<svg version="1.1" xmlns="http://www.w3.org/2000/svg" xmlns:xlink="http://www.w3.org/1999/xlink" width="46.41633" height="58.7576" viewBox="0,0,46.41633,58.7576"><g transform="translate(-216.26169,-126.56322)"><g data-paper-data="{&quot;isPaintingLayer&quot;:true}" fill-rule="nonzero" stroke-linejoin="miter" stroke-miterlimit="10" stroke-dasharray="" stroke-dashoffset="0" style="mix-blend-mode: normal"><g><path d="M233.78081,185.32083l0.94702,-27.33555l8.83883,0.92142l1.57836,26.41413z" fill="#8d5830" stroke="#5c391e" stroke-width="0" stroke-linecap="butt"/><path d="M234.58687,164.12424l0.15857,-4.37675h8.82048l0.23786,4.37675z" fill="#5c391e" stroke="none" stroke-width="0" stroke-linecap="butt"/><g data-paper-data="{&quot;index&quot;:null}" stroke-width="0" stroke-linecap="round"><path d="M216.71806,141.52645l-0.45637,-3.45929l45.94267,-0.31126l0.15802,3.66945l-0.07441,2.10961l-0.86502,1.33135l1.08747,3.83822l-45.32055,0.47855l-0.77239,-4.56879z" fill="#ab7247" stroke="#5c391e"/><path d="M261.92981,146.36226l-9.41324,-1.00729l9.09721,-0.30427z" fill="#794b28" stroke="#794b28"/><path d="M262.28583,150.37721l0.39219,2.76675l-0.73834,2.81341l0.3687,2.46793l-0.3355,1.30708l-9.77333,0.48845l-34.26338,-0.82108l-0.43815,-1.50429l-0.73908,-2.1608l0.07306,-1.79082l0.14675,-4.85852l44.98069,-0.47271z" data-paper-data="{&quot;index&quot;:null}" fill="#8d5830" stroke="#5c391e"/><path d="M254.74384,152.87003l7.57751,-1.01157l-13.17157,-0.62126l13.16266,-0.69365l0.35625,2.86646z" fill="#653f21" stroke="#000000"/><path d="M217.10156,156.85024l11.34874,-0.08272l-10.81063,1.27311z" fill="#653f21" stroke="#000000"/><path d="M216.52417,142.75045l0.18064,-1.67493l13.57188,0.95651z" fill="#794b28" stroke="#000000"/><path d="M261.93277,129.02119l-0.42106,5.58129l0.794,3.13637l-45.24709,0.30621l-0.4466,-3.66734l1.15642,-3.12489l-0.49613,-2.02627l0.51367,-2.25525l10.09787,-0.40809l33.72631,0.69337z" data-paper-data="{&quot;index&quot;:null}" fill="#98653e" stroke="#5c391e"/><path d="M261.36619,134.8918l-14.7266,-0.61161l14.98259,-0.58625z" fill="#653f21" stroke="#653f21"/><path d="M217.2612,130.07117l9.73271,1.00496l-9.26933,0.30664z" data-paper-data="{&quot;index&quot;:null}" fill="#653f21" stroke="#000000"/></g><path d="M220.68655,150.83337l0.59404,-5.49479l-0.89105,-3.7127l1.22439,-3.84709l-0.92737,-2.39024l0.59404,-5.34629h5.94031l1.93059,0.89105l1.48508,-0.89105l2.52462,-0.44551l4.75224,2.07911l7.7224,-2.07911l5.19777,1.18806l1.9306,-0.59404l5.19776,0.14852l0.44553,4.00971l-1.45196,3.98521l1.00644,4.77675l-0.65954,6.48712l0.80804,4.05692l-0.59403,2.97015h-3.86119l-4.60374,-0.74254l-2.97015,-1.48507l-3.26717,1.63358l-4.75496,0.31725l-6.08609,-0.76277l-3.8612,0.89105l-6.97986,0.1485z" fill="#e6e0ce" stroke="#000000" stroke-width="0" stroke-linecap="round"/><path d="M223.27406,136.64121c0,0 2.75378,-0.39477 4.13313,-0.30578c2.63037,0.16971 5.07227,0.97727 7.71528,1.0702c1.13081,0.03977 2.08087,-0.51153 3.16872,-0.68796c1.9012,-0.30823 3.80584,-0.7486 5.78643,-0.76447c1.30553,-0.01041 2.42252,0.60701 3.71981,0.68802c2.41652,0.15075 7.30185,0 7.30185,0" fill="none" stroke="#91804e" stroke-width="3" stroke-linecap="round"/><path d="M223.27406,141.13351c0,0 3.21563,-0.19848 4.822,-0.1529c3.77498,0.1073 7.51741,0.62863 11.29732,0.61151c1.92542,-0.00855 3.72421,-0.64885 5.64867,-0.68797c3.12575,-0.06361 9.36847,0.38223 9.36847,0.38223" fill="none" stroke="#91804e" stroke-width="3" stroke-linecap="round"/><path d="M253.4461,145.62577c0,0 -2.3846,-0.49441 -3.58204,-0.38217c-2.718,0.25437 -5.09756,1.40655 -7.85305,1.45243c-5.08482,0.08441 -10.06999,-0.98126 -15.15491,-1.07026c-1.27136,-0.02229 -2.34206,0.76447 -2.34206,0.76447" fill="none" stroke="#91804e" stroke-width="3" stroke-linecap="round"/><path d="M226.44277,150.72965c0,0 1.50889,-0.48924 2.34217,-0.61158c0.75498,-0.11098 1.56673,-0.129 2.34206,-0.07645c1.12653,0.07616 2.17461,0.41433 3.3066,0.45868c2.79181,0.1095 5.60678,0.04434 8.40405,0c0.69937,-0.011 0.82386,-0.11098 1.23997,-0.1529c1.09834,-0.11067 2.19165,-0.48682 3.30649,-0.50393c0.62053,-0.00672 1.35846,0.28164 2.14922,0.29052c0.93796,-0.00797 2.94834,-0.29052 2.94834,-0.29052" fill="none" stroke="#91804e" stroke-width="3" stroke-linecap="round"/></g><path d="M233.78081,185.32083l0.94702,-27.33555l8.83883,0.92142l1.57836,26.41413z" fill="#8d5830" stroke="#5c391e" stroke-width="0" stroke-linecap="butt"/><path d="M234.58687,164.12424l0.15857,-4.37675h8.82048l0.23786,4.37675z" fill="#5c391e" stroke="none" stroke-width="0" stroke-linecap="butt"/><g data-paper-data="{&quot;index&quot;:null}" stroke-width="0" stroke-linecap="round"><path d="M216.71806,141.52645l-0.45637,-3.45929l45.94267,-0.31126l0.15802,3.66945l-0.07441,2.10961l-0.86502,1.33135l1.08747,3.83822l-45.32055,0.47855l-0.77239,-4.56879z" fill="#ab7247" stroke="#5c391e"/><path d="M261.92981,146.36226l-9.41324,-1.00729l9.09721,-0.30427z" fill="#794b28" stroke="#794b28"/><path d="M262.28583,150.37721l0.39219,2.76675l-0.73834,2.81341l0.3687,2.46793l-0.3355,1.30708l-9.77333,0.48845l-34.26338,-0.82108l-0.43815,-1.50429l-0.73908,-2.1608l0.07306,-1.79082l0.14675,-4.85852l44.98069,-0.47271z" data-paper-data="{&quot;index&quot;:null}" fill="#8d5830" stroke="#5c391e"/><path d="M254.74384,152.87003l7.57751,-1.01157l-13.17157,-0.62126l13.16266,-0.69365l0.35625,2.86646z" fill="#653f21" stroke="#000000"/><path d="M217.10156,156.85024l11.34874,-0.08272l-10.81063,1.27311z" fill="#653f21" stroke="#000000"/><path d="M216.52417,142.75045l0.18064,-1.67493l13.57188,0.95651z" fill="#794b28" stroke="#000000"/><path d="M261.93277,129.02119l-0.42106,5.58129l0.794,3.13637l-45.24709,0.30621l-0.4466,-3.66734l1.15642,-3.12489l-0.49613,-2.02627l0.51367,-2.25525l10.09787,-0.40809l33.72631,0.69337z" data-paper-data="{&quot;index&quot;:null}" fill="#98653e" stroke="#5c391e"/><path d="M261.36619,134.8918l-14.7266,-0.61161l14.98259,-0.58625z" fill="#653f21" stroke="#653f21"/><path d="M217.2612,130.07117l9.73271,1.00496l-9.26933,0.30664z" data-paper-data="{&quot;index&quot;:null}" fill="#653f21" stroke="#000000"/></g><path d="M220.68655,150.83337l0.59404,-5.49479l-0.89105,-3.7127l1.22439,-3.84709l-0.92737,-2.39024l0.59404,-5.34629h5.94031l1.93059,0.89105l1.48508,-0.89105l2.52462,-0.44551l4.75224,2.07911l7.7224,-2.07911l5.19777,1.18806l1.9306,-0.59404l5.19776,0.14852l0.44553,4.00971l-1.45196,3.98521l1.00644,4.77675l-0.65954,6.48712l0.80804,4.05692l-0.59403,2.97015h-3.86119l-4.60374,-0.74254l-2.97015,-1.48507l-3.26717,1.63358l-4.75496,0.31725l-6.08609,-0.76277l-3.8612,0.89105l-6.97986,0.1485z" fill="#e6e0ce" stroke="#000000" stroke-width="0" stroke-linecap="round"/><path d="M223.27406,136.64121c0,0 2.75378,-0.39477 4.13313,-0.30578c2.63037,0.16971 5.07227,0.97727 7.71528,1.0702c1.13081,0.03977 2.08087,-0.51153 3.16872,-0.68796c1.9012,-0.30823 3.80584,-0.7486 5.78643,-0.76447c1.30553,-0.01041 2.42252,0.60701 3.71981,0.68802c2.41652,0.15075 7.30185,0 7.30185,0" fill="none" stroke="#91804e" stroke-width="1.5" stroke-linecap="round"/><path d="M223.27406,141.13351c0,0 3.21563,-0.19848 4.822,-0.1529c3.77498,0.1073 7.51741,0.62863 11.29732,0.61151c1.92542,-0.00855 3.72421,-0.64885 5.64867,-0.68797c3.12575,-0.06361 9.36847,0.38223 9.36847,0.38223" fill="none" stroke="#91804e" stroke-width="1.5" stroke-linecap="round"/><path d="M223.40894,141.13351c0,0 3.21564,-0.19848 4.82201,-0.1529c3.77498,0.1073 7.51741,0.62863 11.29732,0.61151c1.92542,-0.00855 3.72421,-0.64885 5.64867,-0.68797c3.12575,-0.06361 9.36848,0.38223 9.36848,0.38223" fill="none" stroke="#91804e" stroke-width="0" stroke-linecap="round"/><path d="M253.4461,145.62577c0,0 -2.3846,-0.49441 -3.58204,-0.38217c-2.718,0.25437 -5.09756,1.40655 -7.85305,1.45243c-5.08482,0.08441 -10.06999,-0.98126 -15.15491,-1.07026c-1.27136,-0.02229 -2.34206,0.76447 -2.34206,0.76447" fill="none" stroke="#91804e" stroke-width="1" stroke-linecap="round"/><path d="M253.4461,145.62577c0,0 -2.3846,-0.49441 -3.58204,-0.38217c-2.718,0.25437 -5.09756,1.40655 -7.85305,1.45243c-5.08482,0.08441 -10.06999,-0.98126 -15.15491,-1.07026c-1.27136,-0.02229 -2.34206,0.76447 -2.34206,0.76447" fill="none" stroke="#91804e" stroke-width="1.5" stroke-linecap="round"/><path d="M226.44277,150.72965c0,0 1.50889,-0.48924 2.34217,-0.61158c0.75498,-0.11098 1.56673,-0.129 2.34206,-0.07645c1.12653,0.07616 2.17461,0.41433 3.3066,0.45868c2.79181,0.1095 5.60678,0.04434 8.40405,0c0.69937,-0.011 0.82386,-0.11098 1.23997,-0.1529c1.09834,-0.11067 2.19165,-0.48682 3.30649,-0.50393c0.62053,-0.00672 1.35846,0.28164 2.14922,0.29052c0.93796,-0.00797 2.94834,-0.29052 2.94834,-0.29052" fill="none" stroke="#91804e" stroke-width="1.5" stroke-linecap="round"/></g></g></svg>