<svg version="1.1" xmlns="http://www.w3.org/2000/svg" xmlns:xlink="http://www.w3.org/1999/xlink" width="588.36069" height="401.07118" viewBox="0,0,588.36069,401.07118"><defs><linearGradient x1="272.83396" y1="116.45937" x2="272.83396" y2="137.45937" gradientUnits="userSpaceOnUse" id="color-1"><stop offset="0" stop-color="#f2c17c"/><stop offset="1" stop-color="#a47353"/></linearGradient><linearGradient x1="322.95801" y1="116.45937" x2="322.95801" y2="137.45937" gradientUnits="userSpaceOnUse" id="color-2"><stop offset="0" stop-color="#f2f2f2"/><stop offset="1" stop-color="#a3a3a3"/></linearGradient><linearGradient x1="136.77625" y1="146.78947" x2="136.77625" y2="190.34221" gradientUnits="userSpaceOnUse" id="color-3"><stop offset="0" stop-color="#b08b2e"/><stop offset="1" stop-color="#8a6632"/></linearGradient><linearGradient x1="109.41164" y1="178.24422" x2="109.41164" y2="178.24422" gradientUnits="userSpaceOnUse" id="color-4"><stop offset="0" stop-color="#b08b2e"/><stop offset="1" stop-color="#8a6632"/></linearGradient><linearGradient x1="138.31792" y1="162.51684" x2="138.31792" y2="162.51684" gradientUnits="userSpaceOnUse" id="color-5"><stop offset="0" stop-color="#b08b2e"/><stop offset="1" stop-color="#8a6632"/></linearGradient><linearGradient x1="168.38048" y1="175.82463" x2="168.38048" y2="177.03444" gradientUnits="userSpaceOnUse" id="color-6"><stop offset="0" stop-color="#b08b2e"/><stop offset="1" stop-color="#8a6632"/></linearGradient><linearGradient x1="96.69287" y1="160.09725" x2="96.69287" y2="161.30705" gradientUnits="userSpaceOnUse" id="color-7"><stop offset="0" stop-color="#b08b2e"/><stop offset="1" stop-color="#8a6632"/></linearGradient><linearGradient x1="136.77625" y1="192.42991" x2="136.77625" y2="235.98265" gradientUnits="userSpaceOnUse" id="color-8"><stop offset="0" stop-color="#b08b2e"/><stop offset="1" stop-color="#8a6632"/></linearGradient><linearGradient x1="109.41164" y1="223.88466" x2="109.41164" y2="223.88466" gradientUnits="userSpaceOnUse" id="color-9"><stop offset="0" stop-color="#b08b2e"/><stop offset="1" stop-color="#8a6632"/></linearGradient><linearGradient x1="138.31792" y1="208.15728" x2="138.31792" y2="208.15728" gradientUnits="userSpaceOnUse" id="color-10"><stop offset="0" stop-color="#b08b2e"/><stop offset="1" stop-color="#8a6632"/></linearGradient><linearGradient x1="168.38048" y1="221.46507" x2="168.38048" y2="222.67488" gradientUnits="userSpaceOnUse" id="color-11"><stop offset="0" stop-color="#b08b2e"/><stop offset="1" stop-color="#8a6632"/></linearGradient><linearGradient x1="96.69288" y1="205.73769" x2="96.69288" y2="206.94748" gradientUnits="userSpaceOnUse" id="color-12"><stop offset="0" stop-color="#b08b2e"/><stop offset="1" stop-color="#8a6632"/></linearGradient><linearGradient x1="137.8621" y1="117.45937" x2="137.8621" y2="145.45937" gradientUnits="userSpaceOnUse" id="color-13"><stop offset="0" stop-color="#adadad"/><stop offset="1" stop-color="#9e8c72"/></linearGradient><linearGradient x1="136.8621" y1="265.45937" x2="136.8621" y2="237.45937" gradientUnits="userSpaceOnUse" id="color-14"><stop offset="0" stop-color="#adadad"/><stop offset="1" stop-color="#9e8c72"/></linearGradient><linearGradient x1="63.36585" y1="190.54208" x2="91.36545" y2="190.69577" gradientUnits="userSpaceOnUse" id="color-15"><stop offset="0" stop-color="#adadad"/><stop offset="1" stop-color="#9e8c72"/></linearGradient><linearGradient x1="211.35835" y1="192.37666" x2="183.35875" y2="192.22298" gradientUnits="userSpaceOnUse" id="color-16"><stop offset="0" stop-color="#adadad"/><stop offset="1" stop-color="#9e8c72"/></linearGradient><linearGradient x1="78.3621" y1="114.45937" x2="78.3621" y2="148.45937" gradientUnits="userSpaceOnUse" id="color-17"><stop offset="0" stop-color="#b9b9b9"/><stop offset="1" stop-color="#a8a8a8"/></linearGradient><linearGradient x1="197.3621" y1="114.45937" x2="197.3621" y2="148.45937" gradientUnits="userSpaceOnUse" id="color-18"><stop offset="0" stop-color="#b9b9b9"/><stop offset="1" stop-color="#a8a8a8"/></linearGradient><linearGradient x1="198.3621" y1="234.45937" x2="198.3621" y2="268.45937" gradientUnits="userSpaceOnUse" id="color-19"><stop offset="0" stop-color="#b9b9b9"/><stop offset="1" stop-color="#a8a8a8"/></linearGradient><linearGradient x1="77.3621" y1="234.45937" x2="77.3621" y2="268.45937" gradientUnits="userSpaceOnUse" id="color-20"><stop offset="0" stop-color="#b9b9b9"/><stop offset="1" stop-color="#a8a8a8"/></linearGradient><linearGradient x1="405.06893" y1="143.97521" x2="405.06893" y2="187.52795" gradientUnits="userSpaceOnUse" id="color-21"><stop offset="0" stop-color="#b08b2e"/><stop offset="1" stop-color="#8a6632"/></linearGradient><linearGradient x1="377.70432" y1="175.42996" x2="377.70432" y2="175.42996" gradientUnits="userSpaceOnUse" id="color-22"><stop offset="0" stop-color="#b08b2e"/><stop offset="1" stop-color="#8a6632"/></linearGradient><linearGradient x1="406.6106" y1="159.70258" x2="406.6106" y2="159.70258" gradientUnits="userSpaceOnUse" id="color-23"><stop offset="0" stop-color="#b08b2e"/><stop offset="1" stop-color="#8a6632"/></linearGradient><linearGradient x1="436.67316" y1="173.01037" x2="436.67316" y2="174.22018" gradientUnits="userSpaceOnUse" id="color-24"><stop offset="0" stop-color="#b08b2e"/><stop offset="1" stop-color="#8a6632"/></linearGradient><linearGradient x1="364.98555" y1="157.28299" x2="364.98555" y2="158.49279" gradientUnits="userSpaceOnUse" id="color-25"><stop offset="0" stop-color="#b08b2e"/><stop offset="1" stop-color="#8a6632"/></linearGradient><linearGradient x1="405.06893" y1="189.61565" x2="405.06893" y2="233.16839" gradientUnits="userSpaceOnUse" id="color-26"><stop offset="0" stop-color="#b08b2e"/><stop offset="1" stop-color="#8a6632"/></linearGradient><linearGradient x1="377.70432" y1="221.0704" x2="377.70432" y2="221.0704" gradientUnits="userSpaceOnUse" id="color-27"><stop offset="0" stop-color="#b08b2e"/><stop offset="1" stop-color="#8a6632"/></linearGradient><linearGradient x1="406.6106" y1="205.34302" x2="406.6106" y2="205.34302" gradientUnits="userSpaceOnUse" id="color-28"><stop offset="0" stop-color="#b08b2e"/><stop offset="1" stop-color="#8a6632"/></linearGradient><linearGradient x1="436.67316" y1="218.65081" x2="436.67316" y2="219.86062" gradientUnits="userSpaceOnUse" id="color-29"><stop offset="0" stop-color="#b08b2e"/><stop offset="1" stop-color="#8a6632"/></linearGradient><linearGradient x1="364.98556" y1="202.92343" x2="364.98556" y2="204.13322" gradientUnits="userSpaceOnUse" id="color-30"><stop offset="0" stop-color="#b08b2e"/><stop offset="1" stop-color="#8a6632"/></linearGradient><linearGradient x1="406.15478" y1="114.64511" x2="406.15478" y2="142.64511" gradientUnits="userSpaceOnUse" id="color-31"><stop offset="0" stop-color="#adadad"/><stop offset="1" stop-color="#9e8c72"/></linearGradient><linearGradient x1="405.15478" y1="262.64511" x2="405.15478" y2="234.64511" gradientUnits="userSpaceOnUse" id="color-32"><stop offset="0" stop-color="#adadad"/><stop offset="1" stop-color="#9e8c72"/></linearGradient><linearGradient x1="331.65853" y1="187.72782" x2="359.65813" y2="187.88151" gradientUnits="userSpaceOnUse" id="color-33"><stop offset="0" stop-color="#adadad"/><stop offset="1" stop-color="#9e8c72"/></linearGradient><linearGradient x1="479.65103" y1="189.5624" x2="451.65143" y2="189.40872" gradientUnits="userSpaceOnUse" id="color-34"><stop offset="0" stop-color="#adadad"/><stop offset="1" stop-color="#9e8c72"/></linearGradient><linearGradient x1="346.65478" y1="111.64511" x2="346.65478" y2="145.64511" gradientUnits="userSpaceOnUse" id="color-35"><stop offset="0" stop-color="#b9b9b9"/><stop offset="1" stop-color="#a8a8a8"/></linearGradient><linearGradient x1="465.65478" y1="111.64511" x2="465.65478" y2="145.64511" gradientUnits="userSpaceOnUse" id="color-36"><stop offset="0" stop-color="#b9b9b9"/><stop offset="1" stop-color="#a8a8a8"/></linearGradient><linearGradient x1="466.65478" y1="231.64511" x2="466.65478" y2="265.64511" gradientUnits="userSpaceOnUse" id="color-37"><stop offset="0" stop-color="#b9b9b9"/><stop offset="1" stop-color="#a8a8a8"/></linearGradient><linearGradient x1="345.65478" y1="231.64511" x2="345.65478" y2="265.64511" gradientUnits="userSpaceOnUse" id="color-38"><stop offset="0" stop-color="#b9b9b9"/><stop offset="1" stop-color="#a8a8a8"/></linearGradient><linearGradient x1="265.91479" y1="-118.64417" x2="265.91479" y2="-75.09141" gradientUnits="userSpaceOnUse" id="color-39"><stop offset="0" stop-color="#b08b2e"/><stop offset="1" stop-color="#8a6632"/></linearGradient><linearGradient x1="238.55018" y1="-87.1894" x2="238.55018" y2="-87.1894" gradientUnits="userSpaceOnUse" id="color-40"><stop offset="0" stop-color="#b08b2e"/><stop offset="1" stop-color="#8a6632"/></linearGradient><linearGradient x1="267.45646" y1="-102.91678" x2="267.45646" y2="-102.91678" gradientUnits="userSpaceOnUse" id="color-41"><stop offset="0" stop-color="#b08b2e"/><stop offset="1" stop-color="#8a6632"/></linearGradient><linearGradient x1="297.51902" y1="-89.60899" x2="297.51902" y2="-88.39918" gradientUnits="userSpaceOnUse" id="color-42"><stop offset="0" stop-color="#b08b2e"/><stop offset="1" stop-color="#8a6632"/></linearGradient><linearGradient x1="225.83141" y1="-105.33637" x2="225.83141" y2="-104.12657" gradientUnits="userSpaceOnUse" id="color-43"><stop offset="0" stop-color="#b08b2e"/><stop offset="1" stop-color="#8a6632"/></linearGradient><linearGradient x1="265.91479" y1="-73.00371" x2="265.91479" y2="-29.45097" gradientUnits="userSpaceOnUse" id="color-44"><stop offset="0" stop-color="#b08b2e"/><stop offset="1" stop-color="#8a6632"/></linearGradient><linearGradient x1="238.55018" y1="-41.54896" x2="238.55018" y2="-41.54896" gradientUnits="userSpaceOnUse" id="color-45"><stop offset="0" stop-color="#b08b2e"/><stop offset="1" stop-color="#8a6632"/></linearGradient><linearGradient x1="267.45646" y1="-57.27634" x2="267.45646" y2="-57.27634" gradientUnits="userSpaceOnUse" id="color-46"><stop offset="0" stop-color="#b08b2e"/><stop offset="1" stop-color="#8a6632"/></linearGradient><linearGradient x1="297.51902" y1="-43.96855" x2="297.51902" y2="-42.75874" gradientUnits="userSpaceOnUse" id="color-47"><stop offset="0" stop-color="#b08b2e"/><stop offset="1" stop-color="#8a6632"/></linearGradient><linearGradient x1="225.83141" y1="-59.69593" x2="225.83141" y2="-58.48614" gradientUnits="userSpaceOnUse" id="color-48"><stop offset="0" stop-color="#b08b2e"/><stop offset="1" stop-color="#8a6632"/></linearGradient><linearGradient x1="267.00064" y1="-147.97425" x2="267.00064" y2="-119.97425" gradientUnits="userSpaceOnUse" id="color-49"><stop offset="0" stop-color="#adadad"/><stop offset="1" stop-color="#9e8c72"/></linearGradient><linearGradient x1="266.00064" y1="0.02574" x2="266.00064" y2="-27.97425" gradientUnits="userSpaceOnUse" id="color-50"><stop offset="0" stop-color="#adadad"/><stop offset="1" stop-color="#9e8c72"/></linearGradient><linearGradient x1="192.50439" y1="-74.89154" x2="220.50399" y2="-74.73785" gradientUnits="userSpaceOnUse" id="color-51"><stop offset="0" stop-color="#adadad"/><stop offset="1" stop-color="#9e8c72"/></linearGradient><linearGradient x1="340.49689" y1="-73.05696" x2="312.49729" y2="-73.21064" gradientUnits="userSpaceOnUse" id="color-52"><stop offset="0" stop-color="#adadad"/><stop offset="1" stop-color="#9e8c72"/></linearGradient><linearGradient x1="207.50064" y1="-150.97425" x2="207.50064" y2="-116.97425" gradientUnits="userSpaceOnUse" id="color-53"><stop offset="0" stop-color="#b9b9b9"/><stop offset="1" stop-color="#a8a8a8"/></linearGradient><linearGradient x1="326.50064" y1="-150.97425" x2="326.50064" y2="-116.97425" gradientUnits="userSpaceOnUse" id="color-54"><stop offset="0" stop-color="#b9b9b9"/><stop offset="1" stop-color="#a8a8a8"/></linearGradient><linearGradient x1="327.50064" y1="-30.97425" x2="327.50064" y2="3.02574" gradientUnits="userSpaceOnUse" id="color-55"><stop offset="0" stop-color="#b9b9b9"/><stop offset="1" stop-color="#a8a8a8"/></linearGradient><linearGradient x1="206.50064" y1="-30.97425" x2="206.50064" y2="3.02574" gradientUnits="userSpaceOnUse" id="color-56"><stop offset="0" stop-color="#b9b9b9"/><stop offset="1" stop-color="#a8a8a8"/></linearGradient><linearGradient x1="263.78892" y1="-53.76512" x2="263.78892" y2="-53.76512" gradientUnits="userSpaceOnUse" id="color-57"><stop offset="0" stop-color="#b08b2e"/><stop offset="1" stop-color="#8a6632"/></linearGradient><linearGradient x1="236.50379" y1="-29.2085" x2="236.50379" y2="-29.2085" gradientUnits="userSpaceOnUse" id="color-58"><stop offset="0" stop-color="#b08b2e"/><stop offset="1" stop-color="#8a6632"/></linearGradient><linearGradient x1="340.44418" y1="-40.84312" x2="340.44418" y2="-40.84312" gradientUnits="userSpaceOnUse" id="color-59"><stop offset="0" stop-color="#b08b2e"/><stop offset="1" stop-color="#8a6632"/></linearGradient><linearGradient x1="601.12899" y1="-12.76709" x2="601.12899" y2="388.19651" gradientUnits="userSpaceOnUse" id="color-60"><stop offset="0" stop-color="#34322f"/><stop offset="1" stop-color="#2d2b29"/></linearGradient></defs><g transform="translate(-57.8621,12.87467)"><g data-paper-data="{&quot;isPaintingLayer&quot;:true}" fill-rule="nonzero" stroke-linejoin="miter" stroke-miterlimit="10" stroke-dasharray="" stroke-dashoffset="0" style="mix-blend-mode: normal"><g fill="none" stroke="#c9c9c9" stroke-width="2" stroke-linecap="round"><path d="M215.8621,149.95937l9,37l-5,-3.5l-3.5,-1.5l-4,1.5l0.5,-33l5,-1v-11l50,-0.5"/><path d="M225.3621,216.45937l-0.5,-29l4.5,-5.5h4l6.5,1l-21.5,-33l34.5,25.5l-5.5,-0.5l-5.5,1l-2.5,6.5"/><path d="M219.3621,146.45937l42,14.5l-4.5,3l-2.5,4v8"/><path d="M218.8621,141.95937l46.5,7.5l-4,4.5v7"/><path d="M245.8621,139.45937l2,7l-4,3.5v6l-5,3l-3.5,5h-4l-2.5,3.5h-5.5l-3,1.5l-4,-0.5l-3,1"/><path d="M264.8621,148.95937l-0.5,-3l1,-6"/><path d="M230.8621,137.95937v7l-3,5l-3,3l-4,1.5l-5,3l-2.5,2.5"/></g><path d="M216.8621,137.45937v-21h111.94371v21z" fill="url(#color-1)" stroke="none" stroke-width="2" stroke-linecap="butt"/><path d="M317.1102,137.45937v-21h11.69561v21z" fill="url(#color-2)" stroke="none" stroke-width="2" stroke-linecap="butt"/><g stroke-width="2"><g data-paper-data="{&quot;origPos&quot;:null,&quot;index&quot;:null}" stroke="#75491c"><path d="M91.68246,190.34221v-43.55272h90.18761v43.55272z" data-paper-data="{&quot;origPos&quot;:null}" fill="url(#color-3)" stroke-linecap="butt"/><path d="M125.59916,178.24422h-32.37504" data-paper-data="{&quot;origPos&quot;:null}" fill="url(#color-4)" stroke-linecap="round"/><path d="M164.91171,162.51684h-53.18757" data-paper-data="{&quot;origPos&quot;:null}" fill="url(#color-5)" stroke-linecap="round"/><path d="M181.87005,177.03444l-26.9792,-1.20981" data-paper-data="{&quot;origPos&quot;:null}" fill="url(#color-6)" stroke-linecap="round"/><path d="M91.68244,160.09725l10.02085,1.2098" data-paper-data="{&quot;origPos&quot;:null}" fill="url(#color-7)" stroke-linecap="round"/></g><g data-paper-data="{&quot;origPos&quot;:null,&quot;index&quot;:null}" stroke="#75491c"><path d="M91.68245,235.98265v-43.55272h90.18761v43.55272z" data-paper-data="{&quot;origPos&quot;:null}" fill="url(#color-8)" stroke-linecap="butt"/><path d="M93.22412,223.88466h32.37504" data-paper-data="{&quot;origPos&quot;:null}" fill="url(#color-9)" stroke-linecap="round"/><path d="M111.72414,208.15728h53.18757" data-paper-data="{&quot;origPos&quot;:null}" fill="url(#color-10)" stroke-linecap="round"/><path d="M154.89085,221.46507l26.9792,1.20981" data-paper-data="{&quot;origPos&quot;:null}" fill="url(#color-11)" stroke-linecap="round"/><path d="M101.70329,206.94748l-10.02085,-1.20979" data-paper-data="{&quot;origPos&quot;:null}" fill="url(#color-12)" stroke-linecap="round"/></g><g data-paper-data="{&quot;origPos&quot;:null}" stroke="#6b6b6b" stroke-linecap="butt"><g data-paper-data="{&quot;origPos&quot;:null}"><path d="M93.8621,145.45937v-28h88v28z" data-paper-data="{&quot;origPos&quot;:null}" fill="url(#color-13)"/><path d="M180.8621,237.45937v28h-88v-28z" data-paper-data="{&quot;origPos&quot;:null,&quot;index&quot;:null}" fill="url(#color-14)"/></g><g data-paper-data="{&quot;origPos&quot;:null,&quot;origRot&quot;:0}"><path d="M91.12921,235.67515l-27.9996,-0.15368l0.47247,-89.95876l27.9996,0.15368z" data-paper-data="{&quot;origPos&quot;:null}" fill="url(#color-15)"/><path d="M183.59499,147.2436l27.9996,0.15368l-0.47248,89.95876l-27.99959,-0.15368z" data-paper-data="{&quot;origPos&quot;:null,&quot;index&quot;:null}" fill="url(#color-16)"/></g></g><g data-paper-data="{&quot;origPos&quot;:null}" fill="#a7a095" stroke="#6b6b6b" stroke-linecap="butt"><g data-paper-data="{&quot;origPos&quot;:null}"><path d="M109.02877,132.12604c0,-4.78647 3.8802,-8.66666 8.66667,-8.66666c4.78647,0 8.66667,3.88019 8.66667,8.66666c0,4.78647 -3.8802,8.66667 -8.66667,8.66667c-4.78647,0 -8.66667,-3.8802 -8.66667,-8.66667z" data-paper-data="{&quot;origPos&quot;:null}"/><path d="M149.02877,132.45937c0,-4.78647 3.8802,-8.66666 8.66667,-8.66666c4.78647,0 8.66666,3.88019 8.66666,8.66666c0,4.78647 -3.8802,8.66667 -8.66666,8.66667c-4.78647,0 -8.66667,-3.8802 -8.66667,-8.66667z" data-paper-data="{&quot;origPos&quot;:null}"/><path d="M109.3621,252.12604c0,-4.78647 3.8802,-8.66667 8.66667,-8.66667c4.78647,0 8.66667,3.8802 8.66667,8.66667c0,4.78647 -3.8802,8.66667 -8.66667,8.66667c-4.78647,0 -8.66667,-3.8802 -8.66667,-8.66667z" data-paper-data="{&quot;origPos&quot;:null}"/><path d="M149.3621,252.45937c0,-4.78647 3.8802,-8.66667 8.66667,-8.66667c4.78647,0 8.66667,3.8802 8.66667,8.66667c0,4.78647 -3.8802,8.66667 -8.66667,8.66667c-4.78647,0 -8.66667,-3.8802 -8.66667,-8.66667z" data-paper-data="{&quot;origPos&quot;:null}"/></g><g data-paper-data="{&quot;origPos&quot;:null,&quot;origRot&quot;:0}"><path d="M198.04085,163.98459c4.78647,0.002 8.66504,3.88383 8.66304,8.6703c-0.002,4.78647 -3.88383,8.66503 -8.6703,8.66303c-4.78647,-0.002 -8.66504,-3.88383 -8.66304,-8.6703c0.002,-4.78647 3.88383,-8.66504 8.6703,-8.66303z" data-paper-data="{&quot;origPos&quot;:null}"/><path d="M197.69075,203.98444c4.78647,0.002 8.66504,3.88383 8.66303,8.6703c-0.002,4.78647 -3.88382,8.66504 -8.67029,8.66303c-4.78647,-0.002 -8.66504,-3.88383 -8.66304,-8.6703c0.002,-4.78647 3.88383,-8.66504 8.6703,-8.66304z" data-paper-data="{&quot;origPos&quot;:null}"/><path d="M78.04072,164.26764c4.78647,0.002 8.66504,3.88383 8.66304,8.6703c-0.00201,4.78647 -3.88383,8.66504 -8.6703,8.66303c-4.78647,-0.002 -8.66504,-3.88383 -8.66304,-8.6703c0.00201,-4.78647 3.88383,-8.66504 8.6703,-8.66304z" data-paper-data="{&quot;origPos&quot;:null}"/><path d="M77.69062,204.2675c4.78647,0.002 8.66504,3.88383 8.66304,8.6703c-0.00201,4.78647 -3.88383,8.66503 -8.6703,8.66303c-4.78647,-0.002 -8.66504,-3.88383 -8.66304,-8.6703c0.00201,-4.78647 3.88383,-8.66504 8.6703,-8.66303z" data-paper-data="{&quot;origPos&quot;:null}"/></g></g><g data-paper-data="{&quot;origPos&quot;:null}" stroke="#6b6b6b" stroke-linecap="butt"><path d="M59.8621,148.45937v-34h37v34z" data-paper-data="{&quot;origPos&quot;:null}" fill="url(#color-17)"/><path d="M69.02877,131.12604c0,-5.52284 4.47715,-10 10,-10c5.52285,0 10,4.47716 10,10c0,3.24695 -2.36557,3.53791 -3.09842,5.39204c-0.59143,1.49633 -1.52069,2.69867 -2.68807,3.80592c-1.13579,1.07729 -2.64808,0.80204 -4.21352,0.80204c0,0 -2.75392,0.61842 -4.36104,-0.45866c-1.38941,-0.93117 -2.6043,-3.87524 -2.74343,-4.10955c-1.06606,-1.79528 -2.89553,0.09105 -2.89553,-5.43179zM69.69544,131.62604c0,1.38071 3.78595,2.16666 5.16667,2.16666c0.91756,0 1.71965,-0.49431 2.15453,-1.23116c1.8634,-1.0648 1.80634,-9.29448 -1.48787,-9.29448c0,0 -3.52884,2.11278 -3.65612,2.37067c-0.77473,1.56984 -2.17721,5.80467 -2.17721,5.9883zM87.69543,130.95937c0,-1.97693 -0.18387,-3.5113 -1.33723,-5.11692c-0.96464,-1.34288 -2.34266,-2.38308 -3.9961,-2.38308c-0.91756,0 -1.55299,-0.67236 -1.98787,0.06449c-1.8799,1.07423 -0.25977,9.93551 2.65454,9.93551c3.24807,0 4.66667,-2.27586 4.66667,-2.5zM77.14415,136.20937l0.67829,-0.17632c0.95162,0.11895 1.86364,0.17632 2.82171,0.17632c0,0 1.25,-1.07692 1.25,-2.32692c0,-1.25 -1.17308,-1.25 -1.17308,-1.25c-0.85996,0 -1.65953,-0.05051 -2.51163,-0.15702l-0.98837,0.15702c0,0 -1.25,0 -1.25,1.25c0,1.25 1.17308,2.32692 1.17308,2.32692z" data-paper-data="{&quot;origPos&quot;:null}" fill="#6b6b6b"/></g><g data-paper-data="{&quot;origPos&quot;:null}" stroke="#6b6b6b" stroke-linecap="butt"><path d="M178.8621,148.45937v-34h37v34z" data-paper-data="{&quot;origPos&quot;:null}" fill="url(#color-18)"/><path d="M188.02877,131.12604c0,-5.52284 4.47716,-10 10,-10c5.52284,0 10,4.47716 10,10c0,3.24695 -2.36557,3.53791 -3.09842,5.39204c-0.59142,1.49633 -1.52069,2.69867 -2.68806,3.80592c-1.13579,1.07729 -2.64808,0.80204 -4.21352,0.80204c0,0 -2.75393,0.61842 -4.36104,-0.45866c-1.38941,-0.93117 -2.60429,-3.87524 -2.74343,-4.10955c-1.06606,-1.79528 -2.89553,0.09105 -2.89553,-5.43179zM188.69544,131.62604c0,1.38071 3.78596,2.16666 5.16666,2.16666c0.91755,0 1.71966,-0.49431 2.15454,-1.23116c1.8634,-1.0648 1.80634,-9.29448 -1.48787,-9.29448c0,0 -3.52884,2.11278 -3.65612,2.37067c-0.77473,1.56984 -2.17721,5.80467 -2.17721,5.9883zM206.69543,130.95937c0,-1.97693 -0.18387,-3.5113 -1.33723,-5.11692c-0.96463,-1.34288 -2.34266,-2.38308 -3.99609,-2.38308c-0.91755,0 -1.553,-0.67236 -1.98788,0.06449c-1.8799,1.07423 -0.25977,9.93551 2.65454,9.93551c3.24807,0 4.66666,-2.27586 4.66666,-2.5zM196.14415,136.20937l0.67829,-0.17632c0.95162,0.11895 1.86363,0.17632 2.82171,0.17632c0,0 1.25,-1.07692 1.25,-2.32692c0,-1.25 -1.17308,-1.25 -1.17308,-1.25c-0.85996,0 -1.65952,-0.05051 -2.51162,-0.15702l-0.98838,0.15702c0,0 -1.25,0 -1.25,1.25c0,1.25 1.17308,2.32692 1.17308,2.32692z" data-paper-data="{&quot;origPos&quot;:null}" fill="#6b6b6b"/></g><g data-paper-data="{&quot;origPos&quot;:null}" stroke="#6b6b6b" stroke-linecap="butt"><path d="M179.8621,268.45937v-34h37v34z" data-paper-data="{&quot;origPos&quot;:null}" fill="url(#color-19)"/><path d="M189.02877,251.12604c0,-5.52285 4.47716,-10 10,-10c5.52284,0 10,4.47715 10,10c0,3.24695 -2.36557,3.53791 -3.09842,5.39204c-0.59142,1.49633 -1.52069,2.69867 -2.68806,3.80592c-1.13579,1.07729 -2.64808,0.80204 -4.21352,0.80204c0,0 -2.75393,0.61842 -4.36104,-0.45866c-1.38941,-0.93117 -2.60429,-3.87524 -2.74343,-4.10955c-1.06606,-1.79528 -2.89553,0.09105 -2.89553,-5.43179zM189.69544,251.62604c0,1.38071 3.78596,2.16666 5.16666,2.16666c0.91755,0 1.71966,-0.49431 2.15454,-1.23116c1.8634,-1.0648 1.80634,-9.29448 -1.48787,-9.29448c0,0 -3.52884,2.11278 -3.65612,2.37067c-0.77473,1.56984 -2.17721,5.80467 -2.17721,5.98831zM207.69543,250.95937c0,-1.97693 -0.18387,-3.5113 -1.33723,-5.11692c-0.96463,-1.34289 -2.34266,-2.38308 -3.99609,-2.38308c-0.91755,0 -1.553,-0.67236 -1.98788,0.0645c-1.8799,1.07423 -0.25977,9.9355 2.65454,9.9355c3.24807,0 4.66666,-2.27585 4.66666,-2.5zM197.14415,256.20937l0.67829,-0.17632c0.95162,0.11895 1.86363,0.17632 2.82171,0.17632c0,0 1.25,-1.07693 1.25,-2.32693c0,-1.25 -1.17308,-1.25 -1.17308,-1.25c-0.85996,0 -1.65952,-0.0505 -2.51162,-0.15702l-0.98838,0.15702c0,0 -1.25,0 -1.25,1.25c0,1.25 1.17308,2.32693 1.17308,2.32693z" data-paper-data="{&quot;origPos&quot;:null}" fill="#6b6b6b"/></g><g data-paper-data="{&quot;origPos&quot;:null}" stroke="#6b6b6b" stroke-linecap="butt"><path d="M58.8621,268.45937v-34h37v34z" data-paper-data="{&quot;origPos&quot;:null}" fill="url(#color-20)"/><path d="M68.02877,251.12604c0,-5.52285 4.47715,-10 10,-10c5.52285,0 10,4.47715 10,10c0,3.24695 -2.36557,3.53791 -3.09842,5.39204c-0.59143,1.49633 -1.52069,2.69867 -2.68807,3.80592c-1.13579,1.07729 -2.64808,0.80204 -4.21352,0.80204c0,0 -2.75392,0.61842 -4.36104,-0.45866c-1.38941,-0.93117 -2.6043,-3.87524 -2.74343,-4.10955c-1.06606,-1.79528 -2.89553,0.09105 -2.89553,-5.43179zM68.69544,251.62604c0,1.38071 3.78595,2.16666 5.16667,2.16666c0.91756,0 1.71965,-0.49431 2.15453,-1.23116c1.8634,-1.0648 1.80634,-9.29448 -1.48787,-9.29448c0,0 -3.52884,2.11278 -3.65612,2.37067c-0.77473,1.56984 -2.17721,5.80467 -2.17721,5.98831zM86.69543,250.95937c0,-1.97693 -0.18387,-3.5113 -1.33723,-5.11692c-0.96464,-1.34289 -2.34266,-2.38308 -3.9961,-2.38308c-0.91756,0 -1.55299,-0.67236 -1.98787,0.0645c-1.8799,1.07423 -0.25977,9.9355 2.65454,9.9355c3.24807,0 4.66667,-2.27585 4.66667,-2.5zM76.14415,256.20937l0.67829,-0.17632c0.95162,0.11895 1.86364,0.17632 2.82171,0.17632c0,0 1.25,-1.07693 1.25,-2.32693c0,-1.25 -1.17308,-1.25 -1.17308,-1.25c-0.85996,0 -1.65953,-0.0505 -2.51163,-0.15702l-0.98837,0.15702c0,0 -1.25,0 -1.25,1.25c0,1.25 1.17308,2.32693 1.17308,2.32693z" data-paper-data="{&quot;origPos&quot;:null}" fill="#6b6b6b"/></g></g><g stroke-width="2"><g data-paper-data="{&quot;origPos&quot;:null,&quot;index&quot;:null}" stroke="#75491c"><path d="M359.97514,187.52795v-43.55272h46.5314v43.55272z" data-paper-data="{&quot;origPos&quot;:null}" fill="url(#color-21)" stroke-linecap="butt"/><path d="M361.5168,175.42996h32.37504" data-paper-data="{&quot;origPos&quot;:null}" fill="url(#color-22)" stroke-linecap="round"/><path d="M396.36947,159.70258h-16.35265" data-paper-data="{&quot;origPos&quot;:null}" fill="url(#color-23)" stroke-linecap="round"/><path d="M406.50653,174.22018l9.85572,-1.20981" data-paper-data="{&quot;origPos&quot;:null}" fill="url(#color-24)" stroke-linecap="round"/><path d="M359.97512,157.28299l10.02085,1.2098" data-paper-data="{&quot;origPos&quot;:null}" fill="url(#color-25)" stroke-linecap="round"/></g><g data-paper-data="{&quot;origPos&quot;:null,&quot;index&quot;:null}" stroke="#75491c"><path d="M359.97513,195.65133v-6.03567h46.5314v6.03567z" data-paper-data="{&quot;origPos&quot;:null}" fill="url(#color-26)" stroke-linecap="butt"/><path d="M361.5168,221.0704h32.37504" data-paper-data="{&quot;origPos&quot;:null}" fill="url(#color-27)" stroke-linecap="round"/><path d="M396.36947,205.34302h-16.35265" data-paper-data="{&quot;origPos&quot;:null}" fill="url(#color-28)" stroke-linecap="round"/><path d="M416.36225,218.65081l-9.85572,1.20981" data-paper-data="{&quot;origPos&quot;:null}" fill="url(#color-29)" stroke-linecap="round"/><path d="M359.97512,202.92343l10.02085,1.20979" data-paper-data="{&quot;origPos&quot;:null}" fill="url(#color-30)" stroke-linecap="round"/></g><g data-paper-data="{&quot;origPos&quot;:null}" stroke="#6b6b6b" stroke-linecap="butt"><g data-paper-data="{&quot;origPos&quot;:null}"><path d="M362.15478,142.64511v-28h44.34379v28z" data-paper-data="{&quot;origPos&quot;:null}" fill="url(#color-31)"/><path d="M405.49858,197.12805v28h-44.34379v-28z" data-paper-data="{&quot;origPos&quot;:null,&quot;index&quot;:null}" fill="url(#color-32)"/></g><g data-paper-data="{&quot;origPos&quot;:null,&quot;origRot&quot;:0}"><path d="M359.42189,195.34383l-27.9996,-0.15368l0.47247,-52.44171l27.9996,0.15368z" data-paper-data="{&quot;origPos&quot;:null}" fill="url(#color-33)"/><path d="M408.23147,144.42934l27.9996,0.15368l-0.47248,52.44171l-27.99959,-0.15368z" data-paper-data="{&quot;origPos&quot;:null,&quot;index&quot;:null}" fill="url(#color-34)"/></g></g><g data-paper-data="{&quot;origPos&quot;:null}" fill="#a7a095" stroke="#6b6b6b" stroke-linecap="butt"><g data-paper-data="{&quot;origPos&quot;:null}"><path d="M377.32145,129.31178c0,-4.78647 3.8802,-8.66666 8.66667,-8.66666c4.78647,0 8.66667,3.88019 8.66667,8.66666c0,4.78647 -3.8802,8.66667 -8.66667,8.66667c-4.78647,0 -8.66667,-3.8802 -8.66667,-8.66667z" data-paper-data="{&quot;origPos&quot;:null}"/><path d="M377.65478,211.79472c0,-4.78647 3.8802,-8.66667 8.66667,-8.66667c4.78647,0 8.66667,3.8802 8.66667,8.66667c0,4.78647 -3.8802,8.66667 -8.66667,8.66667c-4.78647,0 -8.66667,-3.8802 -8.66667,-8.66667z" data-paper-data="{&quot;origPos&quot;:null}"/></g><g data-paper-data="{&quot;origPos&quot;:null,&quot;origRot&quot;:0}"><path d="M422.67733,161.17033c4.78647,0.002 8.66504,3.88383 8.66304,8.6703c-0.002,4.78647 -3.88383,8.66503 -8.6703,8.66303c-4.78647,-0.002 -8.66504,-3.88383 -8.66304,-8.6703c0.002,-4.78647 3.88383,-8.66504 8.6703,-8.66303z" data-paper-data="{&quot;origPos&quot;:null}"/><path d="M422.32723,201.17018c4.78647,0.002 8.66504,3.88383 8.66303,8.6703c-0.002,4.78647 -3.88382,8.66504 -8.67029,8.66303c-4.78647,-0.002 -8.66504,-3.88383 -8.66304,-8.6703c0.002,-4.78647 3.88383,-8.66504 8.6703,-8.66304z" data-paper-data="{&quot;origPos&quot;:null}"/><path d="M346.3334,161.45338c4.78647,0.002 8.66504,3.88383 8.66304,8.6703c-0.00201,4.78647 -3.88383,8.66504 -8.6703,8.66303c-4.78647,-0.002 -8.66504,-3.88383 -8.66304,-8.6703c0.00201,-4.78647 3.88383,-8.66504 8.6703,-8.66304z" data-paper-data="{&quot;origPos&quot;:null}"/><path d="M345.9833,201.45324c4.78647,0.002 8.66504,3.88383 8.66304,8.6703c-0.00201,4.78647 -3.88383,8.66503 -8.6703,8.66303c-4.78647,-0.002 -8.66504,-3.88383 -8.66304,-8.6703c0.00201,-4.78647 3.88383,-8.66504 8.6703,-8.66303z" data-paper-data="{&quot;origPos&quot;:null}"/></g></g><g data-paper-data="{&quot;origPos&quot;:null}" stroke="#6b6b6b" stroke-linecap="butt"><path d="M328.15478,145.64511v-34h37v34z" data-paper-data="{&quot;origPos&quot;:null}" fill="url(#color-35)"/><path d="M337.32145,128.31178c0,-5.52284 4.47715,-10 10,-10c5.52285,0 10,4.47716 10,10c0,3.24695 -2.36557,3.53791 -3.09842,5.39204c-0.59143,1.49633 -1.52069,2.69867 -2.68807,3.80592c-1.13579,1.07729 -2.64808,0.80204 -4.21352,0.80204c0,0 -2.75392,0.61842 -4.36104,-0.45866c-1.38941,-0.93117 -2.6043,-3.87524 -2.74343,-4.10955c-1.06606,-1.79528 -2.89553,0.09105 -2.89553,-5.43179zM337.98812,128.81178c0,1.38071 3.78595,2.16666 5.16667,2.16666c0.91756,0 1.71965,-0.49431 2.15453,-1.23116c1.8634,-1.0648 1.80634,-9.29448 -1.48787,-9.29448c0,0 -3.52884,2.11278 -3.65612,2.37067c-0.77473,1.56984 -2.17721,5.80467 -2.17721,5.9883zM355.98811,128.14511c0,-1.97693 -0.18387,-3.5113 -1.33723,-5.11692c-0.96464,-1.34288 -2.34266,-2.38308 -3.9961,-2.38308c-0.91756,0 -1.55299,-0.67236 -1.98787,0.06449c-1.8799,1.07423 -0.25977,9.93551 2.65454,9.93551c3.24807,0 4.66667,-2.27586 4.66667,-2.5zM345.43683,133.39511l0.67829,-0.17632c0.95162,0.11895 1.86364,0.17632 2.82171,0.17632c0,0 1.25,-1.07692 1.25,-2.32692c0,-1.25 -1.17308,-1.25 -1.17308,-1.25c-0.85996,0 -1.65953,-0.05051 -2.51163,-0.15702l-0.98837,0.15702c0,0 -1.25,0 -1.25,1.25c0,1.25 1.17308,2.32692 1.17308,2.32692z" data-paper-data="{&quot;origPos&quot;:null}" fill="#6b6b6b"/></g><g data-paper-data="{&quot;origPos&quot;:null}" stroke="#6b6b6b" stroke-linecap="butt"><path d="M403.49858,145.64511v-34h37v34z" data-paper-data="{&quot;origPos&quot;:null}" fill="url(#color-36)"/><path d="M412.66525,128.31178c0,-5.52284 4.47716,-10 10,-10c5.52284,0 10,4.47716 10,10c0,3.24695 -2.36557,3.53791 -3.09842,5.39204c-0.59142,1.49633 -1.52069,2.69867 -2.68806,3.80592c-1.13579,1.07729 -2.64808,0.80204 -4.21352,0.80204c0,0 -2.75393,0.61842 -4.36104,-0.45866c-1.38941,-0.93117 -2.60429,-3.87524 -2.74343,-4.10955c-1.06606,-1.79528 -2.89553,0.09105 -2.89553,-5.43179zM413.33192,128.81178c0,1.38071 3.78596,2.16666 5.16666,2.16666c0.91755,0 1.71966,-0.49431 2.15454,-1.23116c1.8634,-1.0648 1.80634,-9.29448 -1.48787,-9.29448c0,0 -3.52884,2.11278 -3.65612,2.37067c-0.77473,1.56984 -2.17721,5.80467 -2.17721,5.9883zM431.33191,128.14511c0,-1.97693 -0.18387,-3.5113 -1.33723,-5.11692c-0.96463,-1.34288 -2.34266,-2.38308 -3.99609,-2.38308c-0.91755,0 -1.553,-0.67236 -1.98788,0.06449c-1.8799,1.07423 -0.25977,9.93551 2.65454,9.93551c3.24807,0 4.66666,-2.27586 4.66666,-2.5zM420.78063,133.39511l0.67829,-0.17632c0.95162,0.11895 1.86363,0.17632 2.82171,0.17632c0,0 1.25,-1.07692 1.25,-2.32692c0,-1.25 -1.17308,-1.25 -1.17308,-1.25c-0.85996,0 -1.65952,-0.05051 -2.51162,-0.15702l-0.98838,0.15702c0,0 -1.25,0 -1.25,1.25c0,1.25 1.17308,2.32692 1.17308,2.32692z" data-paper-data="{&quot;origPos&quot;:null}" fill="#6b6b6b"/></g><g data-paper-data="{&quot;origPos&quot;:null}" stroke="#6b6b6b" stroke-linecap="butt"><path d="M404.49858,228.12805v-34h37v34z" data-paper-data="{&quot;origPos&quot;:null}" fill="url(#color-37)"/><path d="M413.66525,210.79472c0,-5.52285 4.47716,-10 10,-10c5.52284,0 10,4.47715 10,10c0,3.24695 -2.36557,3.53791 -3.09842,5.39204c-0.59142,1.49633 -1.52069,2.69867 -2.68806,3.80592c-1.13579,1.07729 -2.64808,0.80204 -4.21352,0.80204c0,0 -2.75393,0.61842 -4.36104,-0.45866c-1.38941,-0.93117 -2.60429,-3.87524 -2.74343,-4.10955c-1.06606,-1.79528 -2.89553,0.09105 -2.89553,-5.43179zM414.33192,211.29472c0,1.38071 3.78596,2.16666 5.16666,2.16666c0.91755,0 1.71966,-0.49431 2.15454,-1.23116c1.8634,-1.0648 1.80634,-9.29448 -1.48787,-9.29448c0,0 -3.52884,2.11278 -3.65612,2.37067c-0.77473,1.56984 -2.17721,5.80467 -2.17721,5.98831zM432.33191,210.62805c0,-1.97693 -0.18387,-3.5113 -1.33723,-5.11692c-0.96463,-1.34289 -2.34266,-2.38308 -3.99609,-2.38308c-0.91755,0 -1.553,-0.67236 -1.98788,0.0645c-1.8799,1.07423 -0.25977,9.9355 2.65454,9.9355c3.24807,0 4.66666,-2.27585 4.66666,-2.5zM421.78063,215.87805l0.67829,-0.17632c0.95162,0.11895 1.86363,0.17632 2.82171,0.17632c0,0 1.25,-1.07693 1.25,-2.32693c0,-1.25 -1.17308,-1.25 -1.17308,-1.25c-0.85996,0 -1.65952,-0.0505 -2.51162,-0.15702l-0.98838,0.15702c0,0 -1.25,0 -1.25,1.25c0,1.25 1.17308,2.32693 1.17308,2.32693z" data-paper-data="{&quot;origPos&quot;:null}" fill="#6b6b6b"/></g><g data-paper-data="{&quot;origPos&quot;:null}" stroke="#6b6b6b" stroke-linecap="butt"><path d="M327.15478,228.12805v-34h37v34z" data-paper-data="{&quot;origPos&quot;:null}" fill="url(#color-38)"/><path d="M336.32145,210.79472c0,-5.52285 4.47715,-10 10,-10c5.52285,0 10,4.47715 10,10c0,3.24695 -2.36557,3.53791 -3.09842,5.39204c-0.59143,1.49633 -1.52069,2.69867 -2.68807,3.80592c-1.13579,1.07729 -2.64808,0.80204 -4.21352,0.80204c0,0 -2.75392,0.61842 -4.36104,-0.45866c-1.38941,-0.93117 -2.6043,-3.87524 -2.74343,-4.10955c-1.06606,-1.79528 -2.89553,0.09105 -2.89553,-5.43179zM336.98812,211.29472c0,1.38071 3.78595,2.16666 5.16667,2.16666c0.91756,0 1.71965,-0.49431 2.15453,-1.23116c1.8634,-1.0648 1.80634,-9.29448 -1.48787,-9.29448c0,0 -3.52884,2.11278 -3.65612,2.37067c-0.77473,1.56984 -2.17721,5.80467 -2.17721,5.98831zM354.98811,210.62805c0,-1.97693 -0.18387,-3.5113 -1.33723,-5.11692c-0.96464,-1.34289 -2.34266,-2.38308 -3.9961,-2.38308c-0.91756,0 -1.55299,-0.67236 -1.98787,0.0645c-1.8799,1.07423 -0.25977,9.9355 2.65454,9.9355c3.24807,0 4.66667,-2.27585 4.66667,-2.5zM344.43683,215.87805l0.67829,-0.17632c0.95162,0.11895 1.86364,0.17632 2.82171,0.17632c0,0 1.25,-1.07693 1.25,-2.32693c0,-1.25 -1.17308,-1.25 -1.17308,-1.25c-0.85996,0 -1.65953,-0.0505 -2.51163,-0.15702l-0.98837,0.15702c0,0 -1.25,0 -1.25,1.25c0,1.25 1.17308,2.32693 1.17308,2.32693z" data-paper-data="{&quot;origPos&quot;:null}" fill="#6b6b6b"/></g></g><g><path d="" data-paper-data="{&quot;origPos&quot;:null}" fill="url(#color-39)" stroke="#75491c" stroke-width="2" stroke-linecap="butt"/><path d="" data-paper-data="{&quot;origPos&quot;:null}" fill="url(#color-40)" stroke="#75491c" stroke-width="2" stroke-linecap="round"/><path d="" data-paper-data="{&quot;origPos&quot;:null}" fill="url(#color-41)" stroke="#75491c" stroke-width="2" stroke-linecap="round"/><path d="" data-paper-data="{&quot;origPos&quot;:null}" fill="url(#color-42)" stroke="#75491c" stroke-width="2" stroke-linecap="round"/><path d="" data-paper-data="{&quot;origPos&quot;:null}" fill="url(#color-43)" stroke="#75491c" stroke-width="2" stroke-linecap="round"/><g data-paper-data="{&quot;origPos&quot;:null,&quot;index&quot;:null}" stroke="#75491c" stroke-width="2"><path d="M342.3865,-10.35139h-121.56551z" data-paper-data="{&quot;origPos&quot;:null}" fill="url(#color-44)" stroke-linecap="butt"/><path d="M222.36266,15.06768h32.37504" data-paper-data="{&quot;origPos&quot;:null}" fill="url(#color-45)" stroke-linecap="round"/><path d="M257.21533,-0.6597h-16.35265" data-paper-data="{&quot;origPos&quot;:null}" fill="url(#color-46)" stroke-linecap="round"/><path d="M342.38649,13.8579l9.85572,-1.20981" data-paper-data="{&quot;origPos&quot;:null}" fill="url(#color-47)" stroke-linecap="round"/><path d="M220.82098,-3.07929l10.02085,1.20979" data-paper-data="{&quot;origPos&quot;:null}" fill="url(#color-48)" stroke-linecap="round"/></g><g data-paper-data="{&quot;origPos&quot;:null}" stroke="#6b6b6b" stroke-width="2" stroke-linecap="butt"><g data-paper-data="{&quot;origPos&quot;:null}"><path d="" data-paper-data="{&quot;origPos&quot;:null}" fill="url(#color-49)"/><path d="M341.37854,-8.87467v28h-119.3779v-28z" data-paper-data="{&quot;origPos&quot;:null,&quot;index&quot;:null}" fill="url(#color-50)"/></g><g data-paper-data="{&quot;origPos&quot;:null,&quot;origRot&quot;:0}"><path d="M192.26814,-10.81257l27.9996,0.15368z" data-paper-data="{&quot;origPos&quot;:null}" fill="url(#color-51)"/><path d="M343.63896,-9.13166l27.99959,0.15368z" data-paper-data="{&quot;origPos&quot;:null,&quot;index&quot;:null}" fill="url(#color-52)"/></g></g><g data-paper-data="{&quot;origPos&quot;:null}" stroke-linecap="butt"><g data-paper-data="{&quot;origPos&quot;:null}" fill="none" stroke="none" stroke-width="1" font-family="sans-serif" font-weight="normal" font-size="12" text-anchor="start"/><g data-paper-data="{&quot;origPos&quot;:null,&quot;origRot&quot;:0}" fill="#a7a095" stroke="#6b6b6b" stroke-width="2"><path d="M358.20719,-4.83254c4.78647,0.002 8.66504,3.88383 8.66303,8.6703c-0.002,4.78647 -3.88382,8.66504 -8.67029,8.66303c-4.78647,-0.002 -8.66504,-3.88383 -8.66304,-8.6703c0.002,-4.78647 3.88383,-8.66504 8.6703,-8.66304z" data-paper-data="{&quot;origPos&quot;:null}"/><path d="M206.82916,-4.54948c4.78647,0.002 8.66504,3.88383 8.66304,8.6703c-0.00201,4.78647 -3.88383,8.66503 -8.6703,8.66303c-4.78647,-0.002 -8.66504,-3.88383 -8.66304,-8.6703c0.00201,-4.78647 3.88383,-8.66504 8.6703,-8.66303z" data-paper-data="{&quot;origPos&quot;:null}"/></g></g><g data-paper-data="{&quot;origPos&quot;:null}" stroke="#6b6b6b" stroke-width="2" stroke-linecap="butt"><path d="" data-paper-data="{&quot;origPos&quot;:null}" fill="url(#color-53)"/><path d="" data-paper-data="{&quot;origPos&quot;:null}" fill="#6b6b6b"/></g><g data-paper-data="{&quot;origPos&quot;:null}" stroke="#6b6b6b" stroke-width="2" stroke-linecap="butt"><path d="" data-paper-data="{&quot;origPos&quot;:null}" fill="url(#color-54)"/><path d="" data-paper-data="{&quot;origPos&quot;:null}" fill="#6b6b6b"/></g><g data-paper-data="{&quot;origPos&quot;:null}" stroke="#6b6b6b" stroke-width="2" stroke-linecap="butt"><path d="M340.37854,22.12533v-34h37v34z" data-paper-data="{&quot;origPos&quot;:null}" fill="url(#color-55)"/><path d="M349.54521,4.792c0,-5.52285 4.47716,-10 10,-10c5.52284,0 10,4.47715 10,10c0,3.24695 -2.36557,3.53791 -3.09842,5.39204c-0.59142,1.49633 -1.52069,2.69867 -2.68806,3.80592c-1.13579,1.07729 -2.64808,0.80204 -4.21352,0.80204c0,0 -2.75393,0.61842 -4.36104,-0.45866c-1.38941,-0.93117 -2.60429,-3.87524 -2.74343,-4.10955c-1.06606,-1.79528 -2.89553,0.09105 -2.89553,-5.43179zM350.21188,5.292c0,1.38071 3.78596,2.16666 5.16666,2.16666c0.91755,0 1.71966,-0.49431 2.15454,-1.23116c1.8634,-1.0648 1.80634,-9.29448 -1.48787,-9.29448c0,0 -3.52884,2.11278 -3.65612,2.37067c-0.77473,1.56984 -2.17721,5.80467 -2.17721,5.98831zM368.21187,4.62533c0,-1.97693 -0.18387,-3.5113 -1.33723,-5.11692c-0.96463,-1.34289 -2.34266,-2.38308 -3.99609,-2.38308c-0.91755,0 -1.553,-0.67236 -1.98788,0.0645c-1.8799,1.07423 -0.25977,9.9355 2.65454,9.9355c3.24807,0 4.66666,-2.27585 4.66666,-2.5zM357.66059,9.87533l0.67829,-0.17632c0.95162,0.11895 1.86363,0.17632 2.82171,0.17632c0,0 1.25,-1.07693 1.25,-2.32693c0,-1.25 -1.17308,-1.25 -1.17308,-1.25c-0.85996,0 -1.65952,-0.0505 -2.51162,-0.15702l-0.98838,0.15702c0,0 -1.25,0 -1.25,1.25c0,1.25 1.17308,2.32693 1.17308,2.32693z" data-paper-data="{&quot;origPos&quot;:null}" fill="#6b6b6b"/></g><g data-paper-data="{&quot;origPos&quot;:null}" stroke="#6b6b6b" stroke-width="2" stroke-linecap="butt"><path d="M188.00064,22.12533v-34h37v34z" data-paper-data="{&quot;origPos&quot;:null}" fill="url(#color-56)"/><path d="M197.16731,4.792c0,-5.52285 4.47715,-10 10,-10c5.52285,0 10,4.47715 10,10c0,3.24695 -2.36557,3.53791 -3.09842,5.39204c-0.59143,1.49633 -1.52069,2.69867 -2.68807,3.80592c-1.13579,1.07729 -2.64808,0.80204 -4.21352,0.80204c0,0 -2.75392,0.61842 -4.36104,-0.45866c-1.38941,-0.93117 -2.6043,-3.87524 -2.74343,-4.10955c-1.06606,-1.79528 -2.89553,0.09105 -2.89553,-5.43179zM197.83398,5.292c0,1.38071 3.78595,2.16666 5.16667,2.16666c0.91756,0 1.71965,-0.49431 2.15453,-1.23116c1.8634,-1.0648 1.80634,-9.29448 -1.48787,-9.29448c0,0 -3.52884,2.11278 -3.65612,2.37067c-0.77473,1.56984 -2.17721,5.80467 -2.17721,5.98831zM215.83397,4.62533c0,-1.97693 -0.18387,-3.5113 -1.33723,-5.11692c-0.96464,-1.34289 -2.34266,-2.38308 -3.9961,-2.38308c-0.91756,0 -1.55299,-0.67236 -1.98787,0.0645c-1.8799,1.07423 -0.25977,9.9355 2.65454,9.9355c3.24807,0 4.66667,-2.27585 4.66667,-2.5zM205.28269,9.87533l0.67829,-0.17632c0.95162,0.11895 1.86364,0.17632 2.82171,0.17632c0,0 1.25,-1.07693 1.25,-2.32693c0,-1.25 -1.17308,-1.25 -1.17308,-1.25c-0.85996,0 -1.65953,-0.0505 -2.51163,-0.15702l-0.98837,0.15702c0,0 -1.25,0 -1.25,1.25c0,1.25 1.17308,2.32693 1.17308,2.32693z" data-paper-data="{&quot;origPos&quot;:null}" fill="#6b6b6b"/></g><path d="" fill="url(#color-57)" stroke="#75491c" stroke-width="2" stroke-linecap="round"/><path d="" fill="url(#color-58)" stroke="#75491c" stroke-width="2" stroke-linecap="round"/><path d="" fill="url(#color-59)" stroke="#75491c" stroke-width="2" stroke-linecap="round"/></g><path d="M556.03518,388.19651v-400.9636h90.18761v400.9636z" fill="url(#color-60)" stroke="#75491c" stroke-width="0" stroke-linecap="butt"/></g></g></svg>