<svg version="1.1" xmlns="http://www.w3.org/2000/svg" xmlns:xlink="http://www.w3.org/1999/xlink" width="531.54213" height="337.97612" viewBox="0,0,531.54213,337.97612"><defs><linearGradient x1="503.1381" y1="96.69463" x2="503.1381" y2="337.27413" gradientUnits="userSpaceOnUse" id="color-1"><stop offset="0" stop-color="#ead69e"/><stop offset="1" stop-color="#ccbb8a"/></linearGradient><linearGradient x1="397.2711" y1="307.22013" x2="397.2711" y2="362.22023" gradientUnits="userSpaceOnUse" id="color-2"><stop offset="0" stop-color="#c7a645"/><stop offset="1" stop-color="#ffd559"/></linearGradient><linearGradient x1="195.01" y1="279.47454" x2="195.01" y2="341.33424" gradientUnits="userSpaceOnUse" id="color-3"><stop offset="0" stop-color="#ead69e"/><stop offset="1" stop-color="#ccbb8a"/></linearGradient><linearGradient x1="89.7711" y1="318.75584" x2="89.7711" y2="373.75594" gradientUnits="userSpaceOnUse" id="color-4"><stop offset="0" stop-color="#c7a645"/><stop offset="1" stop-color="#ffd559"/></linearGradient><linearGradient x1="236.8691" y1="38.88602" x2="236.8691" y2="131.14443" gradientUnits="userSpaceOnUse" id="color-5"><stop offset="0" stop-color="#ead69e"/><stop offset="1" stop-color="#ccbb8a"/></linearGradient><linearGradient x1="389.62202" y1="91.26869" x2="389.62202" y2="141.03886" gradientUnits="userSpaceOnUse" id="color-6"><stop offset="0" stop-color="#ebcd5b"/><stop offset="1" stop-color="#ebcd5b" stop-opacity="0"/></linearGradient><linearGradient x1="97.76083" y1="33.88582" x2="97.76083" y2="74.79251" gradientUnits="userSpaceOnUse" id="color-7"><stop offset="0" stop-color="#ebcd5b"/><stop offset="1" stop-color="#ebcd5b" stop-opacity="0"/></linearGradient><linearGradient x1="88.80864" y1="275.17548" x2="88.80864" y2="314.29953" gradientUnits="userSpaceOnUse" id="color-8"><stop offset="0" stop-color="#ebcd5b"/><stop offset="1" stop-color="#ebcd5b" stop-opacity="0"/></linearGradient></defs><g transform="translate(24.77104,-36.77982)"><g data-paper-data="{&quot;isPaintingLayer&quot;:true}" fill-rule="nonzero" stroke-linecap="butt" stroke-linejoin="miter" stroke-miterlimit="10" stroke-dasharray="" stroke-dashoffset="0" style="mix-blend-mode: normal"><path d="M503.1381,337.27413h-109.63814v-240.5795h109.63814z" data-paper-data="{&quot;origPos&quot;:null,&quot;index&quot;:null}" fill="url(#color-1)" stroke="#b7a47c" stroke-width="3.78384"/><path d="M505.7711,362.22023h-114.85714v-55.0001h114.85714z" data-paper-data="{&quot;origPos&quot;:null,&quot;index&quot;:null}" fill="url(#color-2)" stroke="#8c7531" stroke-width="2"/><path d="M281.43857,341.33424h-297.21997v-61.8597h297.21997z" data-paper-data="{&quot;origPos&quot;:null,&quot;index&quot;:null}" fill="url(#color-3)" stroke="#b7a47c" stroke-width="3.78384"/><path d="M283.19967,373.75594h-300.42857v-55.0001h300.42857z" data-paper-data="{&quot;origPos&quot;:null,&quot;index&quot;:null}" fill="url(#color-4)" stroke="#8c7531" stroke-width="2"/><path d="M210.44052,67.573l-47.99464,12.26564l-169.51676,9.87722l6.42857,-50.82983c0,0 156.50583,2.59532 190.29276,3.1556c12.26492,0.20339 25.07578,0.41583 25.07578,0.41583z" data-paper-data="{&quot;origPos&quot;:null,&quot;index&quot;:null}" fill="url(#color-5)" stroke="#b7a47c" stroke-width="3.78384"/><path d="M391.37515,123.74155c0,-0.24491 0,-0.48983 0,-0.73474c0,-3.67174 -1.39015,-7.29269 -1.35127,-10.93865c-0.00425,-3.66652 -0.00985,-7.33304 -0.00989,-10.99957c-0.00003,-2.79879 -0.00004,-5.59757 -0.00004,-8.39636c64.40409,-1.74968 26.57839,-2.56124 90.46688,1.83458c28.96905,1.993 -7.75203,21.271 -19.05679,26c-28.80162,12.035 -47.74236,8.69859 -70.04889,3.23474z" data-paper-data="{&quot;origPos&quot;:null,&quot;index&quot;:null}" fill="url(#color-6)" stroke="#8c7531" stroke-width="0"/><path d="M16.48586,36.79255c61.72597,-0.29119 198.31382,4.50922 198.31382,4.64286c0,8.45243 -12.85714,9.76198 -12.85714,18.2144c-2.00896,0.01833 -4.02462,0.06525 -6.0475,0.14274c-26.19971,0.31699 -50.52432,5.74517 -74.56816,11.89958c-1.9724,0.19517 -3.70304,0.60178 -5.07428,1.30903c-1.3851,0.35965 -2.76964,0.72069 -4.15392,1.08227c-1.07378,0.06285 -2.14491,0.13528 -3.21162,0.22228c-1.03907,0.08475 -3.31882,0.0015 -3.03207,0.48683c-1.90402,0 -3.80804,0 -5.71206,0c-12.76695,0 -25.53389,0 -38.30084,0c-4.03167,0 -8.06333,0 -12.095,0c-1.00792,0 -2.01583,0 -3.02375,0c-0.97433,0 -3.17452,-0.44549 -3.04553,-0.04453c-1.89953,-0.3141 -3.79906,-0.6282 -5.69859,-0.9423c-4.03167,-0.66667 -8.06333,-1.33333 -12.095,-2c-2.01583,-0.33333 -3.99626,-1.27508 -6.0475,-1c-0.40753,0.05465 0.43163,0.31834 1.11486,0.5042c-0.79381,-0.17728 -1.62076,-0.32676 -2.30664,-0.58844c-2.55323,-0.9741 -4.59797,-2.2456 -7.10394,-3.24944c-0.80225,-0.32137 -2.61413,-1.24592 -2.97847,-1.15152c-2.26404,-1.26623 -4.59785,-2.50364 -7.01212,-3.69998c-1.11472,-1.6007 -2.49089,-3.38494 -3.23361,-4.49027c-0.67619,-0.89684 -0.79786,-1.88842 -1.58326,-2.76308c-0.12868,-0.1433 -0.36591,0.58097 -0.40604,0.42536c-0.71531,-2.77402 0.31029,-5.70305 0,-8.5c-0.13681,-1.23327 -0.25887,-4.42092 -1.60979,-5.92536c-0.12868,-0.1433 -0.34778,0.57956 -0.40604,0.42536c-0.60537,-1.60222 -0.47861,-3.25231 -0.73254,-4.87849c7.63856,-0.02877 15.27423,-0.06869 22.90671,-0.12151z" data-paper-data="{&quot;index&quot;:null}" fill="url(#color-7)" stroke="#8c7531" stroke-width="0"/><path d="M-13.11245,279.17861c62.2811,-3.16979 174.54662,-4.00311 174.54662,-4.00311l103.8071,1.14314l10.97381,0.47701c0,0 4.88013,-0.11887 6.75629,1.37592c0.65105,0.5187 1.74864,1.96151 1.82201,2.00771c0.02446,0.0154 1.76935,2.0812 1.79953,2.07009c1.05899,2.18291 1.06788,13.19671 2.15038,14.08605c0.01936,0.06946 0.03538,0.13204 0.04548,0.18386c0.00907,0.04652 0.01845,0.09303 0.02812,0.13952c-0.94287,2.08828 -0.82998,5.5469 -0.82281,5.78901c0.00504,0.17022 -4.11523,2.59217 -6.25796,4.0016c-0.22266,0.14647 -0.44819,0.29625 -0.67589,0.44919c-20.94439,3.98483 -128.37829,7.55588 -149.97087,7.39573c-39.81673,-0.29913 -79.11274,-8.70762 -114.81917,-17.77505c-11.89343,-3.03115 -63.91375,-15.58318 -29.38263,-17.34066z" data-paper-data="{&quot;origPos&quot;:null,&quot;index&quot;:null}" fill="url(#color-8)" stroke="#8c7531" stroke-width="0"/></g></g></svg>