<svg version="1.1" xmlns="http://www.w3.org/2000/svg" xmlns:xlink="http://www.w3.org/1999/xlink" width="348.44766" height="137" viewBox="0,0,348.44766,137"><defs><linearGradient x1="22.9124" y1="12.77285" x2="22.9124" y2="39.06683" gradientUnits="userSpaceOnUse" id="color-1"><stop offset="0" stop-color="#be8202"/><stop offset="1" stop-color="#9b6002"/></linearGradient><linearGradient x1="19.98278" y1="12.66228" x2="19.98278" y2="38.95625" gradientUnits="userSpaceOnUse" id="color-2"><stop offset="0" stop-color="#ffff00"/><stop offset="1" stop-color="#ffc700"/></linearGradient><linearGradient x1="20.02012" y1="15.55991" x2="20.02012" y2="35.44895" gradientUnits="userSpaceOnUse" id="color-3"><stop offset="0" stop-color="#df9902"/><stop offset="1" stop-color="#be7602"/></linearGradient><linearGradient x1="10.77319" y1="87.91484" x2="30.01455" y2="87.91484" gradientUnits="userSpaceOnUse" id="color-4"><stop offset="0" stop-color="#d59c00"/><stop offset="1" stop-color="#ffde00"/></linearGradient><linearGradient x1="3.77385" y1="85.79783" x2="12.31157" y2="85.79783" gradientUnits="userSpaceOnUse" id="color-5"><stop offset="0" stop-color="#f7d200"/><stop offset="1" stop-color="#d59c00"/></linearGradient><linearGradient x1="37.10795" y1="85.79782" x2="28.57024" y2="85.79782" gradientUnits="userSpaceOnUse" id="color-6"><stop offset="0" stop-color="#f7d200"/><stop offset="1" stop-color="#d59c00"/></linearGradient></defs><g transform="translate(118.64831,1.89527)"><g data-paper-data="{&quot;isPaintingLayer&quot;:true}" fill-rule="nonzero" stroke-linejoin="miter" stroke-miterlimit="10" stroke-dasharray="" stroke-dashoffset="0" style="mix-blend-mode: normal"><g stroke="none" stroke-linecap="butt"><path d="M22.9124,12.77285c2.99417,0 5.70703,1.47343 7.67158,3.85339c1.96454,2.37985 3.18076,5.66632 3.18076,9.2936c0,3.62716 -1.21622,6.91375 -3.18076,9.2936c-1.96454,2.37996 -4.67741,3.85339 -7.67158,3.85339c-2.99417,0 -5.70703,-1.47343 -7.67158,-3.85339c-1.96454,-2.37985 -3.18076,-5.66643 -3.18076,-9.2936c0,-3.62727 1.21622,-6.91375 3.18076,-9.2936c1.96454,-2.37996 4.67741,-3.85339 7.67158,-3.85339z" data-paper-data="{&quot;origPos&quot;:null}" fill="url(#color-1)" stroke-width="0.44036"/><path d="M19.98278,12.66228c2.99417,0 5.70703,1.47343 7.67158,3.85339c1.96454,2.37985 3.18076,5.66632 3.18076,9.2936c0,3.62716 -1.21622,6.91375 -3.18076,9.2936c-1.96454,2.37996 -4.67741,3.85339 -7.67158,3.85339c-2.99417,0 -5.70703,-1.47343 -7.67158,-3.85339c-1.96454,-2.37985 -3.18076,-5.66643 -3.18076,-9.2936c0,-3.62727 1.21622,-6.91375 3.18076,-9.2936c1.96454,-2.37996 4.67741,-3.85339 7.67158,-3.85339z" data-paper-data="{&quot;origPos&quot;:null}" fill="url(#color-2)" stroke-width="0.44036"/><path d="M18.13893,15.55991h3.76238v19.88904h-3.76238z" data-paper-data="{&quot;origPos&quot;:null}" fill="url(#color-3)" stroke-width="0.59798"/></g><path d="M46.87791,76.75684l-9.83631,31.69253h-149.68673l-0.29578,-31.8807z" fill-opacity="0.50196" fill="#000000" stroke="#000000" stroke-width="0" stroke-linecap="round"/><path d="M46.87791,42.66593l-9.83631,31.69253h-149.68673l-0.29578,-31.8807z" fill-opacity="0.50196" fill="#000000" stroke="#000000" stroke-width="0" stroke-linecap="round"/><g fill="none" stroke="#ffffff" stroke-width="2.5"><path d="M9.14124,57.76448c0,-6.81648 5.52586,-12.34234 12.34234,-12.34234c6.81649,0 12.34234,5.52586 12.34234,12.34234c0,6.81649 -5.52585,12.34234 -12.34234,12.34234c-6.81648,0 -12.34234,-5.52585 -12.34234,-12.34234z" stroke-linecap="butt"/><path d="M29.40684,58.4377h-7.62981v-6.73219" stroke-linecap="round"/></g><path d="M-118.64831,135.10473v-137h348.44766v137z" fill="none" stroke="none" stroke-width="0" stroke-linecap="butt"/><g><g data-paper-data="{&quot;origPos&quot;:null}" stroke="#d59c00" stroke-width="3"><path d="M29.25074,103.42998h-18.21731" data-paper-data="{&quot;origPos&quot;:null}" fill="none" stroke-linecap="round"/><path d="M20.40233,102.38895v-8.84842" data-paper-data="{&quot;origPos&quot;:null}" fill="none" stroke-linecap="round"/><path d="M10.77319,84.96086c0,-5.31336 4.30732,-3.36333 9.62068,-3.36333c5.31336,0 9.62068,-1.95003 9.62068,3.36333c0,5.31336 -4.30732,9.62068 -9.62068,9.62068c-5.31336,0 -9.62068,-4.30732 -9.62068,-9.62068z" data-paper-data="{&quot;origPos&quot;:null}" fill="url(#color-4)" stroke-linecap="butt"/></g><path d="M12.16037,90.25339c-0.50464,0.92518 -1.42982,0.42054 -1.42982,0.42054l-0.78671,-0.4318c-2.17968,-1.00716 -5.30313,-2.40446 -5.97903,-4.99331c-1.40808,-5.39325 5.34448,-5.36748 8.01557,-2.73403c0,0 0.74519,0.74519 0,1.49038c-0.74519,0.74519 -1.49038,0 -1.49038,0c-1.05915,-1.07861 -5.43788,-2.39299 -4.49849,0.66485c0.58134,1.89237 3.23355,2.91988 4.83559,3.65838l0.91273,0.49517c0,0 0.92518,0.50464 0.42054,1.42982z" fill="url(#color-5)" stroke="none" stroke-width="0.5" stroke-linecap="butt"/><path d="M29.14198,88.82357l0.91274,-0.49517c1.60204,-0.7385 4.25425,-1.76602 4.83559,-3.65839c0.93938,-3.05784 -3.43934,-1.74346 -4.49849,-0.66485c0,0 -0.74519,0.74519 -1.49039,0c-0.74519,-0.74519 0,-1.49039 0,-1.49039c2.67109,-2.63345 9.42365,-2.65922 8.01557,2.73403c-0.6759,2.58885 -3.79935,3.98615 -5.97903,4.99331l-0.78671,0.4318c0,0 -0.92518,0.50464 -1.42982,-0.42054c-0.50464,-0.92518 0.42054,-1.42982 0.42054,-1.42982z" data-paper-data="{&quot;index&quot;:null}" fill="url(#color-6)" stroke="none" stroke-width="0.5" stroke-linecap="butt"/></g></g></g></svg>