<svg version="1.1" xmlns="http://www.w3.org/2000/svg" xmlns:xlink="http://www.w3.org/1999/xlink" width="57.75" height="64.5"><defs><linearGradient x1="215.431" y1="148.5979" x2="215.431" y2="171.5849" gradientUnits="userSpaceOnUse" id="color-1"><stop offset="0" stop-color="#000000"/><stop offset="1" stop-color="#000000" stop-opacity="0"/></linearGradient><linearGradient x1="240.15239" y1="175.61145" x2="240.15239" y2="201.39055" gradientUnits="userSpaceOnUse" id="color-2"><stop offset="0" stop-color="#fab796"/><stop offset="1" stop-color="#fa6e6e"/></linearGradient></defs><g transform="translate(-211.125,-147.75)"><g data-paper-data="{&quot;isPaintingLayer&quot;:true}" fill="none" fill-rule="nonzero" stroke="none" stroke-width="none" stroke-linecap="none" stroke-linejoin="miter" stroke-miterlimit="10" stroke-dasharray="" stroke-dashoffset="0" font-family="none" font-weight="none" font-size="none" text-anchor="none" style="mix-blend-mode: normal"><path d="M215.4668,164h48.3582v48.25h-48.3582z" data-paper-data="{&quot;origPos&quot;:null}" id="ID0.7493802439421415" fill="#e1e1e1" stroke="none" stroke-width="1.18415" stroke-linecap="butt"/><path d="M220.4817,165h6.3806v47.25h-6.3806z" data-paper-data="{&quot;origPos&quot;:null}" id="ID0.15770532842725515" fill="#f9f9f9" stroke="none" stroke-width="1.18415" stroke-linecap="butt"/><path d="M215.431,148.5979h48.3582v22.987h-48.3582z" data-paper-data="{&quot;origPos&quot;:null}" id="ID0.05341690871864557" fill="url(#color-1)" stroke="none" stroke-width="2.30239" stroke-linecap="butt"/><path d="M211.125,147.75h57.75v17.25h-57.75z" data-paper-data="{&quot;origPos&quot;:null}" id="ID0.6849248851649463" fill="#e1e1e1" stroke="none" stroke-width="1.07722" stroke-linecap="butt"/><path d="M216.2728,147.75h6.0447v17.25h-6.0447z" data-paper-data="{&quot;origPos&quot;:null}" id="ID0.9705615900456905" fill="#f9f9f9" stroke="none" stroke-width="1.18415" stroke-linecap="butt"/><path d="M227.26284,188.501c0,-7.1187 5.77085,-12.88955 12.88955,-12.88955c7.1187,0 12.88955,5.77085 12.88955,12.88955c0,7.1187 -5.77085,12.88954 -12.88955,12.88954c-7.1187,0 -12.88955,-5.77085 -12.88955,-12.88954z" data-paper-data="{&quot;origPos&quot;:null}" fill="url(#color-2)" stroke="#ff3f3f" stroke-width="1" stroke-linecap="butt"/><path d="M230.81214,188.501c0,-5.15848 4.18177,-9.34026 9.34025,-9.34026c5.15848,0 9.34026,4.18178 9.34026,9.34026c0,5.15848 -4.18178,9.34025 -9.34026,9.34025c-5.15848,0 -9.34025,-4.18177 -9.34025,-9.34025z" data-paper-data="{&quot;origPos&quot;:null}" fill="none" stroke="#e40000" stroke-width="2" stroke-linecap="butt"/><path d="M240.15239,184.01768v8.77984" data-paper-data="{&quot;origPos&quot;:null}" fill="none" stroke="#e40000" stroke-width="2" stroke-linecap="round"/></g></g></svg>