<svg version="1.1" xmlns="http://www.w3.org/2000/svg" xmlns:xlink="http://www.w3.org/1999/xlink" width="490.98032" height="369" viewBox="0,0,490.98032,369"><defs><linearGradient x1="240.50669" y1="-4.5" x2="240.50669" y2="364.5" gradientUnits="userSpaceOnUse" id="color-1"><stop offset="0" stop-color="#45a068"/><stop offset="1" stop-color="#9c9cba"/></linearGradient><linearGradient x1="138.34553" y1="200.33058" x2="138.34553" y2="317.2314" gradientUnits="userSpaceOnUse" id="color-2"><stop offset="0" stop-color="#997fae"/><stop offset="1" stop-color="#6e5293"/></linearGradient><linearGradient x1="448.89512" y1="202.36364" x2="448.89512" y2="316.21488" gradientUnits="userSpaceOnUse" id="color-3"><stop offset="0" stop-color="#997fae"/><stop offset="1" stop-color="#6e5293"/></linearGradient><linearGradient x1="336.87383" y1="140.85968" x2="336.87383" y2="200.27181" gradientUnits="userSpaceOnUse" id="color-4"><stop offset="0" stop-color="#bf6565"/><stop offset="1" stop-color="#a265bf"/></linearGradient><linearGradient x1="352.04553" y1="63.09917" x2="352.04553" y2="142.86575" gradientUnits="userSpaceOnUse" id="color-5"><stop offset="0" stop-color="#bfa665"/><stop offset="1" stop-color="#bf6565"/></linearGradient><linearGradient x1="324.72611" y1="198.01462" x2="324.72611" y2="258.06629" gradientUnits="userSpaceOnUse" id="color-6"><stop offset="0" stop-color="#a465ba"/><stop offset="1" stop-color="#6abdbd"/></linearGradient><linearGradient x1="309.63066" y1="245.84346" x2="309.63066" y2="316.21488" gradientUnits="userSpaceOnUse" id="color-7"><stop offset="0" stop-color="#6abdbd"/><stop offset="1" stop-color="#66be66"/></linearGradient><linearGradient x1="-5.49016" y1="257.76223" x2="-5.49016" y2="331.96884" gradientUnits="userSpaceOnUse" id="color-8"><stop offset="0" stop-color="#ffa099" stop-opacity="0"/><stop offset="1" stop-color="#ffa099"/></linearGradient><linearGradient x1="-5.49016" y1="315.70438" x2="-5.49016" y2="362.46471" gradientUnits="userSpaceOnUse" id="color-9"><stop offset="0" stop-color="#ffa29b"/><stop offset="1" stop-color="#ff7777"/></linearGradient></defs><g transform="translate(5.49016,4.5)"><g data-paper-data="{&quot;isPaintingLayer&quot;:true}" fill-rule="nonzero" stroke-linejoin="miter" stroke-miterlimit="10" stroke-dasharray="" stroke-dashoffset="0" style="mix-blend-mode: normal"><path d="M-4.47678,364.5v-369h489.96694v369z" fill="url(#color-1)" stroke="none" stroke-width="0" stroke-linecap="butt"/><path d="M-3.46025,280.63636l32.52893,-37.61157l22.36364,-16.26446l41.67769,28.46281l22.36364,31.5124l39.64463,-71.15702l31.5124,-15.24793l64.04132,50.82645l29.47934,64.04132l-283.61157,2.03306z" fill="url(#color-2)" stroke="#845194" stroke-width="2" stroke-linecap="round"/><path d="M482.44057,315.19835l-67.09091,1.01653l10.16529,-100.63636l15.24793,-13.21488l35.57851,19.31405c0,0 5.03633,29.53854 5.60956,30.60311c0.19108,0.35486 -0.52692,62.91755 -0.52692,62.91755" fill="url(#color-3)" stroke="#845194" stroke-width="2" stroke-linecap="round"/><g stroke="#000000" stroke-width="0" stroke-linecap="butt"><path d="M226.27528,176.76246l23.38017,-24.83399l11.35289,-9.48216c0.49173,-0.04298 0.98345,-0.08597 1.47518,-0.12895c1.85562,-0.1622 3.71125,-0.32438 5.56687,-0.48658c1.85647,-0.16227 3.697,-0.163 5.56096,-0.17182c1.86361,-0.00881 3.72723,-0.01763 5.59084,-0.02643c1.86361,-0.00881 3.72723,-0.01762 5.59084,-0.02643c1.86361,-0.00881 3.72723,-0.01763 5.59084,-0.02643c1.86361,-0.00881 3.72723,-0.01763 5.59084,-0.02643c1.86361,-0.00881 3.72723,-0.01762 5.59084,-0.02642c1.86361,-0.00881 3.72723,-0.01762 5.59084,-0.02643c1.86361,-0.00881 3.72723,-0.01763 5.59084,-0.02643c1.86361,-0.00881 3.72723,-0.01763 5.59084,-0.02643c1.86361,-0.00881 3.72723,-0.01762 5.59084,-0.02643c1.86361,-0.00881 3.72723,-0.01763 5.59084,-0.02643c1.86361,-0.00881 3.72723,-0.01763 5.59084,-0.02643c1.86361,-0.00881 3.72723,-0.01762 5.59084,-0.02643c1.86361,-0.00881 3.72724,-0.01762 5.59084,-0.02642c1.86361,-0.00881 3.72723,-0.01763 5.59084,-0.02643c1.86361,-0.00881 3.72723,-0.01763 5.59084,-0.02643c1.86361,-0.00881 3.72723,-0.01762 5.59084,-0.02643c1.86361,-0.00881 3.72723,-0.01763 5.59084,-0.02643c1.86361,-0.00881 3.72723,-0.01763 5.59084,-0.02643c1.86361,-0.00881 3.72723,-0.01762 5.59084,-0.02643c1.86361,-0.00881 3.72723,-0.01763 5.59084,-0.02643c1.86361,-0.00881 3.72723,-0.01762 5.59084,-0.02642c1.86361,-0.00881 3.72723,-0.01763 5.59084,-0.02643c1.86361,-0.00881 3.72723,-0.01762 5.59084,-0.02643c1.86361,-0.00881 3.72723,-0.01763 5.59084,-0.02643c1.86361,-0.00881 3.72723,-0.01763 5.59084,-0.02643c1.86361,-0.00881 3.72724,-0.01762 5.59084,-0.02643c1.86361,-0.00881 3.72723,-0.01763 5.59084,-0.02643c1.86361,-0.00881 3.72723,-0.01762 5.59084,-0.02643c1.86361,-0.00881 3.72723,-0.01762 5.59084,-0.02643c1.86361,-0.00881 3.72723,-0.01762 5.59084,-0.02643c0.45105,-0.00212 0.90212,-0.00427 1.35316,-0.00639l9.25505,17.75485l5.53566,39.87766c-0.75151,0 -1.50302,0 -2.25453,0c-1.86363,0 -3.72728,0.00002 -5.59091,0.00002c-1.86363,0 -3.72728,0.00001 -5.59091,0.00002c-1.86363,0 -3.72728,0 -5.59091,0.00001c-1.86363,0 -3.72728,0.00001 -5.59091,0.00002c-1.86363,0 -3.72728,0.00001 -5.59091,0.00002c-1.86363,0 -3.72728,0.00001 -5.59091,0.00002c-1.86363,0 -3.72728,0.00001 -5.59091,0.00001c-1.86363,0 -3.72728,0.00001 -5.59091,0.00002c-1.86363,0 -3.72728,0.00001 -5.59091,0.00002c-1.86363,0 -3.72728,0.00001 -5.59091,0.00002c-1.86363,0 -3.72728,0.00001 -5.59091,0.00002c-1.86363,0 -3.72728,0.00002 -5.59091,0.00002c-1.86363,0 -3.72728,0.00001 -5.59091,0.00001c-1.86363,0 -3.72728,0.00002 -5.59091,0.00002c-1.86363,0 -3.72728,0.00001 -5.59091,0.00001c-1.86363,0 -3.72728,0.00001 -5.59091,0.00001c-1.86363,0 -3.72728,0.00001 -5.59091,0.00001c-1.86363,0 -3.72728,0.00002 -5.59091,0.00002c-1.86363,0 -3.72728,0.00002 -5.59091,0.00002c-1.86363,0 -3.72728,0.00001 -5.59091,0.00001c-1.86363,0 -3.72728,0.00001 -5.59091,0.00001c-1.86363,0 -3.72728,0.00001 -5.59091,0.00001c-1.86363,0 -3.72728,0.00002 -5.59091,0.00002c-1.86363,0 -3.72728,0.00001 -5.59091,0.00001c-1.86363,0 -3.72728,0.00002 -5.59091,0.00002c-1.86363,0 -3.72728,0.00001 -5.59091,0.00001c-1.86363,0 -3.72728,0.00001 -5.59091,0.00001c-1.86642,0 -3.7299,0.01947 -5.59586,0.05842c-1.86318,0.0389 -3.72635,0.07782 -5.58953,0.11672c-1.86318,0.0389 -3.72636,0.07782 -5.58954,0.11672c-1.86318,0.0389 -3.72635,0.07782 -5.58953,0.11672c-1.86318,0.0389 -3.72636,0.07781 -5.58954,0.11671c-1.86318,0.0389 -3.72635,0.07781 -5.58953,0.11671c-1.86318,0.0389 -3.72635,0.07782 -5.58953,0.11672c-1.86318,0.0389 -3.72635,0.07781 -5.58953,0.11671c-1.86318,0.0389 -3.72636,0.07782 -5.58954,0.11672c-1.86318,0.0389 -3.72635,0.07781 -5.58953,0.11671c-1.86318,0.0389 -3.72636,0.07781 -5.58954,0.11671c-1.86318,0.0389 -3.72635,0.07782 -5.58953,0.11672c-1.86318,0.0389 -3.72635,0.07781 -5.58953,0.11671c-1.86318,0.0389 -3.72635,0.07782 -5.58953,0.11672c-1.86318,0.0389 -3.72635,0.07781 -5.58953,0.11671c-1.38491,0.02891 -2.76983,0.05783 -4.15474,0.08674z" data-paper-data="{&quot;origPos&quot;:null}" fill="url(#color-4)"/><path d="M286.25049,122.3187l17.28099,-20.05822l9.14876,-21.01338l15.24793,-12.41699l13.21488,-5.73093h62.00826l17.28099,15.28246l7.1157,34.38553l14.89331,28.57127c-0.36913,0.00174 -0.73825,0.0035 -1.10739,0.00524c-1.86361,0.00881 -3.72723,0.01762 -5.59084,0.02643c-1.86361,0.00881 -3.72723,0.01762 -5.59084,0.02643c-1.86361,0.00881 -3.72723,0.01762 -5.59084,0.02643c-1.86361,0.00881 -3.72724,0.01763 -5.59084,0.02643c-1.86361,0.00881 -3.72723,0.01762 -5.59084,0.02643c-1.86361,0.00881 -3.72723,0.01763 -5.59084,0.02643c-1.86361,0.00881 -3.72723,0.01763 -5.59084,0.02643c-1.86361,0.00881 -3.72723,0.01762 -5.59084,0.02643c-1.86361,0.00881 -3.72723,0.01763 -5.59084,0.02643c-1.86361,0.00881 -3.72723,0.01762 -5.59084,0.02642c-1.86361,0.00881 -3.72723,0.01763 -5.59084,0.02643c-1.86361,0.00881 -3.72723,0.01762 -5.59084,0.02643c-1.86361,0.00881 -3.72723,0.01763 -5.59084,0.02643c-1.86361,0.00881 -3.72723,0.01763 -5.59084,0.02643c-1.86361,0.00881 -3.72723,0.01762 -5.59084,0.02643c-1.86361,0.00881 -3.72723,0.01763 -5.59084,0.02643c-1.86361,0.00881 -3.72724,0.01763 -5.59084,0.02643c-1.86361,0.00881 -3.72723,0.01762 -5.59084,0.02642c-1.86361,0.00881 -3.72723,0.01762 -5.59084,0.02643c-1.86361,0.00881 -3.72723,0.01763 -5.59084,0.02643c-1.86361,0.00881 -3.72723,0.01763 -5.59084,0.02643c-1.86361,0.00881 -3.72723,0.01762 -5.59084,0.02643c-1.86361,0.00881 -3.72723,0.01763 -5.59084,0.02643c-1.86361,0.00881 -3.72723,0.01763 -5.59084,0.02643c-1.86361,0.00881 -3.72723,0.01762 -5.59084,0.02643c-1.86361,0.00881 -3.72723,0.01762 -5.59084,0.02642c-1.86361,0.00881 -3.72723,0.01763 -5.59084,0.02643c-1.86361,0.00881 -3.72723,0.01763 -5.59084,0.02643c-1.86361,0.00881 -3.72724,0.01762 -5.59084,0.02643c-1.86361,0.00881 -3.72723,0.01763 -5.59084,0.02643c-1.87869,0.00888 -3.73421,0.01031 -5.60548,0.17387c-1.85562,0.1622 -3.71125,0.32438 -5.56687,0.48658c-0.26223,0.02292 -0.52448,0.04585 -0.78671,0.06876z" data-paper-data="{&quot;origPos&quot;:null}" fill="url(#color-5)"/><path d="M183.58107,229.2959l18.29752,-21.96853l14.01535,-7.52522c1.51312,-0.03159 3.02626,-0.06319 4.53937,-0.09479c1.86318,-0.0389 3.72635,-0.07781 5.58953,-0.11671c1.86318,-0.0389 3.72636,-0.07782 5.58954,-0.11672c1.86318,-0.0389 3.72635,-0.07782 5.58953,-0.11672c1.86318,-0.0389 3.72635,-0.07781 5.58953,-0.11671c1.86318,-0.0389 3.72635,-0.07781 5.58953,-0.11671c1.86318,-0.0389 3.72635,-0.07781 5.58953,-0.11671c1.86318,-0.0389 3.72635,-0.07782 5.58953,-0.11672c1.86318,-0.0389 3.72636,-0.07781 5.58954,-0.11671c1.86318,-0.0389 3.72635,-0.07781 5.58953,-0.11671c1.86318,-0.0389 3.72635,-0.07782 5.58953,-0.11672c1.86318,-0.0389 3.72635,-0.07781 5.58953,-0.11671c1.86318,-0.0389 3.72636,-0.07781 5.58954,-0.11671c1.86318,-0.0389 3.72635,-0.07781 5.58953,-0.11671c1.86318,-0.0389 3.72636,-0.07781 5.58954,-0.11671c1.86221,-0.03888 3.7219,-0.05831 5.58457,-0.05832c1.86363,0 3.72728,-0.00002 5.59091,-0.00002c1.86363,0 3.72728,-0.00001 5.59091,-0.00001c1.86363,0 3.72728,-0.00001 5.59091,-0.00001c1.86363,0 3.72728,-0.00001 5.59091,-0.00001c1.86363,0 3.72728,-0.00002 5.59091,-0.00002c1.86363,0 3.72728,-0.00001 5.59091,-0.00001c1.86363,0 3.72728,-0.00002 5.59091,-0.00002c1.86363,0 3.72728,-0.00001 5.59091,-0.00001c1.86363,0 3.72728,-0.00001 5.59091,-0.00001c1.86363,0 3.72728,-0.00002 5.59091,-0.00002c1.86363,0 3.72728,-0.00001 5.59091,-0.00001c1.86363,0 3.72728,-0.00002 5.59091,-0.00002c1.86363,0 3.72728,-0.00001 5.59091,-0.00001c1.86363,0 3.72728,-0.00001 5.59091,-0.00001c1.86363,0 3.72728,-0.00001 5.59091,-0.00001c1.86363,0 3.72728,-0.00002 5.59091,-0.00002c1.86363,0 3.72728,-0.00001 5.59091,-0.00002c1.86363,0 3.72728,-0.00001 5.59091,-0.00002c1.86363,0 3.72728,-0.00001 5.59091,-0.00002c1.86363,0 3.72728,-0.00001 5.59091,-0.00002c1.86363,0 3.72728,-0.00002 5.59091,-0.00002c1.86363,0 3.72728,-0.00001 5.59091,-0.00002c1.86363,0 3.72728,0 5.59091,-0.00001c1.86363,0 3.72728,-0.00001 5.59091,-0.00002c1.86363,0 3.72728,-0.00001 5.59091,-0.00002c1.86363,0 3.72728,-0.00001 5.59091,-0.00002c1.86363,0 3.72728,-0.00001 5.59091,-0.00001c0.77361,0 1.54722,0 2.32083,0l0.49721,3.58182l15.24793,51.57829l0.25603,4.89156c-0.41519,-0.05773 -0.83039,-0.11545 -1.24557,-0.17317c-1.84357,-0.25632 -3.68713,-0.51263 -5.53069,-0.76893c-1.84357,-0.25632 -3.68713,-0.51261 -5.53069,-0.76892c-1.84357,-0.25632 -3.68713,-0.51263 -5.53069,-0.76893c-1.84357,-0.25632 -3.68713,-0.51262 -5.53069,-0.76893c-1.84357,-0.25632 -3.68713,-0.51261 -5.53069,-0.76892c-1.85355,-0.25769 -3.72703,-0.2836 -5.59801,-0.36511c-1.86164,-0.08111 -3.72327,-0.16223 -5.5849,-0.24334c-1.86164,-0.08111 -3.72327,-0.16222 -5.58491,-0.24334c-1.86164,-0.08111 -3.72327,-0.16222 -5.58491,-0.24333c-1.86164,-0.08111 -3.72327,-0.16223 -5.58491,-0.24334c-1.86164,-0.08111 -3.72327,-0.16223 -5.58491,-0.24334c-1.86164,-0.08111 -3.72327,-0.16223 -5.5849,-0.24334c-1.86164,-0.08111 -3.72327,-0.16222 -5.58491,-0.24334c-1.86164,-0.08111 -3.72327,-0.16222 -5.58491,-0.24333c-1.86164,-0.08111 -3.72327,-0.16223 -5.58491,-0.24334c-1.86164,-0.08111 -3.72327,-0.16223 -5.58491,-0.24334c-1.86164,-0.08111 -3.72327,-0.16222 -5.5849,-0.24333c-1.86164,-0.08111 -3.72327,-0.16222 -5.58491,-0.24334c-1.86164,-0.08111 -3.72327,-0.16223 -5.58491,-0.24334c-1.86164,-0.08111 -3.72327,-0.16222 -5.58491,-0.24333c-1.86164,-0.08111 -3.72327,-0.16223 -5.5849,-0.24334c-1.86164,-0.08111 -3.72327,-0.16222 -5.58491,-0.24334c-1.86164,-0.08111 -3.72327,-0.16222 -5.58491,-0.24334c-1.86164,-0.08111 -3.72327,-0.16222 -5.58491,-0.24334c-1.86164,-0.08111 -3.72327,-0.16223 -5.58491,-0.24334c-1.86164,-0.08111 -3.72327,-0.16222 -5.58491,-0.24333c-1.86164,-0.08111 -3.72327,-0.16223 -5.5849,-0.24334c-1.86164,-0.08111 -3.72327,-0.16222 -5.58491,-0.24334c-1.86164,-0.08111 -3.72327,-0.16222 -5.58491,-0.24333c-1.86164,-0.08111 -3.72327,-0.16223 -5.58491,-0.24334c-1.86164,-0.08111 -3.72327,-0.16222 -5.5849,-0.24333c-1.86164,-0.08111 -3.72327,-0.16223 -5.58491,-0.24334c-1.86164,-0.08111 -3.72327,-0.16222 -5.58491,-0.24334c-1.86164,-0.08111 -3.72327,-0.16222 -5.58491,-0.24333c-1.86164,-0.08111 -3.72327,-0.16223 -5.58491,-0.24334c-1.86164,-0.08111 -3.72327,-0.16223 -5.5849,-0.24334c-1.88447,-0.08211 -3.72378,-0.08299 -5.60832,-0.00271c-1.86172,0.0793 -3.72345,0.15863 -5.58518,0.23793c-1.86172,0.0793 -3.72344,0.15862 -5.58517,0.23792c-1.86172,0.0793 -3.72345,0.15863 -5.58518,0.23793c-1.86172,0.0793 -3.72344,0.15863 -5.58517,0.23793c-1.86172,0.0793 -3.72345,0.15863 -5.58518,0.23793c-1.86172,0.0793 -3.72344,0.15862 -5.58517,0.23792c-1.86172,0.0793 -3.72345,0.15863 -5.58518,0.23793c-1.86172,0.0793 -3.72345,0.15863 -5.58518,0.23793c-1.86172,0.0793 -3.72344,0.15862 -5.58517,0.23792c-1.86172,0.0793 -3.72345,0.15863 -5.58518,0.23793c-1.86172,0.0793 -3.72345,0.15863 -5.58518,0.23793c-1.86172,0.0793 -3.72344,0.15863 -5.58517,0.23793c-1.86172,0.0793 -3.72345,0.15862 -5.58518,0.23792c-1.86172,0.0793 -3.72345,0.15863 -5.58518,0.23793c-1.86172,0.0793 -3.72345,0.15863 -5.58518,0.23793c-1.86172,0.0793 -3.72344,0.15863 -5.58517,0.23793c-0.20935,0.00891 -0.41872,0.01785 -0.62807,0.02676z" data-paper-data="{&quot;origPos&quot;:null}" fill="url(#color-6)"/><path d="M137.83727,316.21488l2.03306,-24.83399l10.16529,-21.96853l23.38017,-13.37214l2.31038,-6.29554c0.27643,-0.01177 0.55289,-0.02356 0.82932,-0.03533c1.86172,-0.0793 3.72344,-0.15863 5.58517,-0.23793c1.86172,-0.0793 3.72345,-0.15862 5.58518,-0.23792c1.86172,-0.0793 3.72345,-0.15863 5.58518,-0.23793c1.86172,-0.0793 3.72344,-0.15863 5.58517,-0.23793c1.86172,-0.0793 3.72345,-0.15863 5.58518,-0.23793c1.86172,-0.0793 3.72345,-0.15862 5.58518,-0.23792c1.86172,-0.0793 3.72344,-0.15863 5.58517,-0.23793c1.86172,-0.0793 3.72345,-0.15863 5.58518,-0.23793c1.86172,-0.0793 3.72344,-0.15863 5.58517,-0.23793c1.86172,-0.0793 3.72345,-0.15862 5.58518,-0.23792c1.86172,-0.0793 3.72345,-0.15863 5.58518,-0.23793c1.86172,-0.0793 3.72344,-0.15863 5.58517,-0.23793c1.86172,-0.0793 3.72345,-0.15862 5.58518,-0.23792c1.86172,-0.0793 3.72345,-0.15863 5.58518,-0.23793c1.86172,-0.0793 3.72344,-0.15863 5.58517,-0.23793c1.86172,-0.0793 3.72344,-0.15863 5.58517,-0.23793c1.86943,-0.07963 3.69244,-0.07875 5.56177,0.00269c1.86164,0.08111 3.72327,0.16222 5.58491,0.24334c1.86164,0.08111 3.72327,0.16222 5.58491,0.24333c1.86164,0.08111 3.72327,0.16223 5.5849,0.24334c1.86164,0.08111 3.72327,0.16222 5.58491,0.24333c1.86164,0.08111 3.72327,0.16223 5.58491,0.24334c1.86164,0.08111 3.72327,0.16222 5.58491,0.24334c1.86164,0.08111 3.72327,0.16223 5.5849,0.24334c1.86164,0.08111 3.72327,0.16223 5.58491,0.24334c1.86164,0.08111 3.72327,0.16223 5.58491,0.24334c1.86164,0.08111 3.72327,0.16222 5.58491,0.24333c1.86164,0.08111 3.72327,0.16222 5.5849,0.24334c1.86164,0.08111 3.72327,0.16223 5.58491,0.24334c1.86164,0.08111 3.72327,0.16222 5.58491,0.24333c1.86164,0.08111 3.72327,0.16223 5.58491,0.24334c1.86164,0.08111 3.72327,0.16222 5.58491,0.24334c1.86164,0.08111 3.72327,0.16222 5.58491,0.24334c1.86164,0.08111 3.72327,0.16222 5.5849,0.24334c1.86164,0.08111 3.72327,0.16222 5.58491,0.24333c1.86164,0.08111 3.72327,0.16223 5.58491,0.24334c1.86164,0.08111 3.72327,0.16223 5.58491,0.24334c1.86164,0.08111 3.72327,0.16222 5.58491,0.24333c1.86164,0.08111 3.72327,0.16222 5.5849,0.24334c1.86164,0.08111 3.72327,0.16223 5.58491,0.24334c1.86164,0.08111 3.72327,0.16222 5.58491,0.24333c1.86164,0.08111 3.72327,0.16223 5.58491,0.24334c1.86164,0.08111 3.72327,0.16222 5.5849,0.24334c1.86164,0.08111 3.72327,0.16223 5.58491,0.24334c1.86164,0.08111 3.72327,0.16223 5.58491,0.24334c1.86164,0.08111 3.72327,0.16223 5.58491,0.24334c1.86164,0.08111 3.72327,0.16222 5.58491,0.24333c1.85385,0.08076 3.71075,0.10516 5.54716,0.36047c1.84357,0.25632 3.68713,0.51263 5.53069,0.76893c1.84357,0.25632 3.68713,0.51261 5.53069,0.76892c1.84357,0.25632 3.68713,0.51262 5.53069,0.76893c1.84357,0.25632 3.68713,0.51262 5.53069,0.76892c1.84357,0.25632 3.68713,0.51262 5.53069,0.76893c0.44847,0.06235 0.89695,0.12471 1.34543,0.18705l2.76811,52.8865l5.08264,5.73093z" data-paper-data="{&quot;origPos&quot;:null}" fill="url(#color-7)"/></g><path d="M-5.49016,257.76223h490.97717v74.20661h-490.97717z" fill="url(#color-8)" stroke="none" stroke-width="1.00312" stroke-linecap="butt"/><path d="M-5.49016,315.70438h490.97717v46.76033h-490.97717z" fill="url(#color-9)" stroke="none" stroke-width="1.00312" stroke-linecap="butt"/></g></g></svg>