<svg version="1.1" xmlns="http://www.w3.org/2000/svg" xmlns:xlink="http://www.w3.org/1999/xlink" width="79.6134" height="77.80174" viewBox="0,0,79.6134,77.80174"><defs><linearGradient x1="252.54962" y1="135.60869" x2="252.54962" y2="213.41042" gradientUnits="userSpaceOnUse" id="color-1"><stop offset="0" stop-color="#ffec6c"/><stop offset="1" stop-color="#fdc363"/></linearGradient><linearGradient x1="252.55305" y1="142.41222" x2="252.55305" y2="207.2999" gradientUnits="userSpaceOnUse" id="color-2"><stop offset="0" stop-color="#ffef10"/><stop offset="1" stop-color="#ffa30a"/></linearGradient><linearGradient x1="252.5531" y1="142.41225" x2="252.5531" y2="206.60891" gradientUnits="userSpaceOnUse" id="color-3"><stop offset="0" stop-color="#e6b609"/><stop offset="1" stop-color="#c37808"/></linearGradient></defs><g transform="translate(-212.74293,-135.60867)"><g data-paper-data="{&quot;isPaintingLayer&quot;:true}" fill-rule="nonzero" stroke-linejoin="miter" stroke-miterlimit="10" stroke-dasharray="" stroke-dashoffset="0" style="mix-blend-mode: normal"><path d="" data-paper-data="{&quot;origPos&quot;:null}" fill="#000000" stroke="none" stroke-width="0.26458" stroke-linecap="butt"/><path d="" data-paper-data="{&quot;origPos&quot;:null}" fill="#000000" stroke="none" stroke-width="0.26458" stroke-linecap="butt"/><path d="" data-paper-data="{&quot;origPos&quot;:null}" fill="#000000" stroke="none" stroke-width="0.26458" stroke-linecap="butt"/><path d="" data-paper-data="{&quot;origPos&quot;:null}" fill="#000000" stroke="none" stroke-width="0.26458" stroke-linecap="butt"/><path d="" data-paper-data="{&quot;origPos&quot;:null}" fill="#000000" stroke="none" stroke-width="0.26458" stroke-linecap="butt"/><path d="" data-paper-data="{&quot;origPos&quot;:null}" fill="#000000" stroke="none" stroke-width="0.26458" stroke-linecap="butt"/><path d="" data-paper-data="{&quot;origPos&quot;:null}" fill="#000000" stroke="none" stroke-width="0.26458" stroke-linecap="butt"/><path d="" data-paper-data="{&quot;origPos&quot;:null}" fill="#2b70c2" stroke="none" stroke-width="0.26458" stroke-linecap="butt"/><path d="" data-paper-data="{&quot;origPos&quot;:null}" fill="#2b70c2" stroke="none" stroke-width="0.26458" stroke-linecap="butt"/><path d="" data-paper-data="{&quot;origPos&quot;:null}" fill="#2b70c2" stroke="none" stroke-width="0.26458" stroke-linecap="butt"/><path d="" data-paper-data="{&quot;origPos&quot;:null}" fill="#2b70c2" stroke="none" stroke-width="0.26458" stroke-linecap="butt"/><path d="" data-paper-data="{&quot;origPos&quot;:null}" fill="#000000" stroke="none" stroke-width="0.26458" stroke-linecap="butt"/><path d="" data-paper-data="{&quot;origPos&quot;:null}" fill="#000000" stroke="none" stroke-width="0.26458" stroke-linecap="butt"/><path d="" data-paper-data="{&quot;origPos&quot;:null}" fill="#2b70c2" stroke="none" stroke-width="0.26458" stroke-linecap="butt"/><path d="" data-paper-data="{&quot;origPos&quot;:null}" fill="#2b70c2" stroke="none" stroke-width="0.26458" stroke-linecap="butt"/><path d="" data-paper-data="{&quot;origPos&quot;:null}" fill="#2b70c2" stroke="none" stroke-width="0.26458" stroke-linecap="butt"/><path d="" data-paper-data="{&quot;origPos&quot;:null}" fill="#2b70c2" stroke="none" stroke-width="0.26458" stroke-linecap="butt"/><path d="" data-paper-data="{&quot;origPos&quot;:null}" fill="#2b70c2" stroke="none" stroke-width="0.26458" stroke-linecap="butt"/><path d="" data-paper-data="{&quot;origPos&quot;:null}" fill="#2b70c2" stroke="none" stroke-width="0.26458" stroke-linecap="butt"/><path d="" data-paper-data="{&quot;origPos&quot;:null}" fill="#000000" stroke="none" stroke-width="0.26458" stroke-linecap="butt"/><path d="" data-paper-data="{&quot;origPos&quot;:null}" fill="#000000" stroke="none" stroke-width="0.26458" stroke-linecap="butt"/><path d="" data-paper-data="{&quot;origPos&quot;:null}" fill="#000000" stroke="none" stroke-width="0.26458" stroke-linecap="butt"/><path d="" data-paper-data="{&quot;origPos&quot;:null}" fill="#000000" stroke="none" stroke-width="0.26458" stroke-linecap="butt"/><path d="" data-paper-data="{&quot;origPos&quot;:null}" fill="#000000" stroke="none" stroke-width="0.26458" stroke-linecap="butt"/><path d="" data-paper-data="{&quot;origPos&quot;:null}" fill="#2b70c2" stroke="none" stroke-width="0.26458" stroke-linecap="butt"/><path d="" data-paper-data="{&quot;origPos&quot;:null}" fill="#2b70c2" stroke="none" stroke-width="0.26458" stroke-linecap="butt"/><path d="" data-paper-data="{&quot;origPos&quot;:null}" fill="#2b70c2" stroke="none" stroke-width="0.26458" stroke-linecap="butt"/><path d="" data-paper-data="{&quot;origPos&quot;:null}" fill="#2b70c2" stroke="none" stroke-width="0.26458" stroke-linecap="butt"/><path d="" data-paper-data="{&quot;origPos&quot;:null}" fill="#2b70c2" stroke="none" stroke-width="0.26458" stroke-linecap="butt"/><path d="" data-paper-data="{&quot;origPos&quot;:null}" fill="#000000" stroke="none" stroke-width="0.26458" stroke-linecap="butt"/><g><path d="M262.91386,208.21037c-3.50386,-2.18804 -10.48257,-8.74593 -10.48257,-8.74593c0,0 -7.78504,6.88343 -11.08508,9.02267c-7.55862,4.89983 -13.67953,5.47933 -14.32902,4.55743c-0.8049,-1.14241 -0.37487,-9.29693 1.08988,-17.06594c1.17134,-6.21268 2.44786,-10.78753 2.44786,-10.78753c-3.9023,-3.01045 -7.05873,-4.37471 -10.13584,-7.01342c-6.2964,-5.39938 -8.12354,-12.42936 -7.58796,-13.93255c0.73308,-2.05747 10.31019,-4.21758 25.16442,-4.65718l0.94303,-0.34815c5.04711,-14.47461 11.08583,-23.63109 13.47007,-23.63109c2.21167,0.03913 8.34813,9.10977 13.53411,23.49246l0.74016,0.51264c15.02303,0.46841 24.81848,2.64649 25.60918,4.63132c0.47109,1.1825 -1.56167,8.71934 -9.01446,14.83279c-2.62549,2.15365 -5.8655,3.31283 -8.9694,5.71055c0,0 1.58638,5.10041 2.8903,11.99143c1.47107,7.77477 1.6936,15.40795 0.60157,16.26469c-0.93679,0.73495 -7.58983,-0.2778 -14.88619,-4.83416z" data-paper-data="{&quot;index&quot;:null}" fill="url(#color-1)" stroke="#3f2803" stroke-width="0" stroke-linecap="round"/><path d="M260.98765,202.30918c-2.85244,-1.78125 -8.53374,-6.97091 -8.53374,-6.97091c0,0 -6.33769,5.45468 -9.02423,7.19621c-6.15338,3.9889 -11.13632,4.53885 -11.66505,3.78836c-0.65527,-0.93003 -0.30519,-7.41206 0.88726,-13.73672c0.95358,-5.05766 1.99275,-8.78199 1.99275,-8.78199c-3.17681,-2.45076 -5.74642,-3.56139 -8.25144,-5.70953c-5.12582,-4.39557 -7.3839,-10.11859 -6.94789,-11.34231c0.59679,-1.67496 9.16401,-3.43349 21.25665,-3.79135l0.76772,-0.28342c4.10879,-11.7836 9.02482,-20.26526 10.9658,-20.26526c1.80049,0.03186 6.7961,8.44364 11.01794,20.15241l0.60256,0.41735c12.23005,0.38134 20.97503,2.15447 21.61872,3.77029c0.38351,0.96265 -2.04196,7.0983 -8.10918,12.07516c-2.13737,1.75325 -4.77502,2.69693 -7.30187,4.6489c0,0 1.29147,4.15218 2.35296,9.76207c1.1976,6.32934 1.37874,12.38699 0.48972,13.08445c-0.76263,0.59831 -6.17878,-0.30437 -12.11865,-4.01367z" data-paper-data="{&quot;index&quot;:null}" fill="url(#color-2)" stroke="url(#color-3)" stroke-width="1" stroke-linecap="round"/><g stroke="none" stroke-width="2.7674"><path d="M258.8144,167.5565c0.95112,-0.0367 1.89899,0.75064 2.29828,1.72169c0.72438,1.76232 0.80227,3.86337 0.74809,5.82575c-0.03725,1.81135 -0.32495,3.68391 -1.01546,5.3036c-0.39605,0.95058 -1.11012,2.04797 -2.03089,2.03984c-0.88677,-0.00813 -1.64164,-0.69362 -2.12897,-1.92565c-0.6228,-1.55846 -0.91726,-3.42697 -0.91726,-5.62176c0,-2.19494 0.22673,-3.98989 0.91726,-5.62177c0.45349,-1.07709 1.32007,-1.75839 2.12897,-1.72169z" fill="#3f2803" stroke-linecap="round"/><path d="M258.96232,168.71026c0.49087,0 0.93419,0.24069 1.25574,0.62821c0.32155,0.38763 0.52132,0.92215 0.52132,1.51364c0,0.5915 -0.19977,1.12598 -0.52132,1.5135c-0.32155,0.38763 -0.76488,0.62835 -1.25574,0.62835c-0.49072,0 -0.93417,-0.2407 -1.25572,-0.62835c-0.32155,-0.38752 -0.52121,-0.92198 -0.52121,-1.5135c0,-0.5915 0.19967,-1.12598 0.52121,-1.51364c0.32155,-0.38752 0.76501,-0.62821 1.25572,-0.62821z" fill="#ffffff" stroke-linecap="butt"/></g><g stroke="none" stroke-width="2.7674"><path d="M246.28548,167.4888c0.95111,-0.0367 1.89899,0.75064 2.29829,1.72168c0.72438,1.76232 0.80228,3.86338 0.7481,5.82576c-0.03725,1.81135 -0.32496,3.68391 -1.01545,5.3036c-0.39604,0.95058 -1.11012,2.04797 -2.03091,2.03984c-0.88676,-0.00813 -1.64164,-0.69362 -2.12898,-1.92566c-0.6228,-1.55846 -0.91725,-3.42696 -0.91725,-5.62177c0,-2.19494 0.22672,-3.9899 0.91725,-5.62178c0.45349,-1.07709 1.32008,-1.75837 2.12898,-1.72168z" fill="#3f2803" stroke-linecap="round"/><path d="M246.50113,168.57481c0.49087,0 0.93417,0.24069 1.25573,0.62821c0.32155,0.38763 0.52134,0.92213 0.52134,1.51362c0,0.5915 -0.19979,1.12597 -0.52134,1.51349c-0.32155,0.38763 -0.76487,0.62834 -1.25573,0.62834c-0.49072,0 -0.93418,-0.24071 -1.25573,-0.62834c-0.32155,-0.38752 -0.52121,-0.92198 -0.52121,-1.51349c0,-0.5915 0.19967,-1.12597 0.52121,-1.51362c0.32155,-0.38752 0.76501,-0.62821 1.25573,-0.62821z" fill="#ffffff" stroke-linecap="butt"/></g></g></g></g></svg>