<svg version="1.1" xmlns="http://www.w3.org/2000/svg" xmlns:xlink="http://www.w3.org/1999/xlink" width="38" height="38"><defs><linearGradient x1="221" y1="162" x2="221" y2="198" gradientUnits="userSpaceOnUse" id="color-1"><stop offset="0" stop-color="#99ffbb"/><stop offset="1" stop-color="#99ffff"/></linearGradient><linearGradient x1="221" y1="162" x2="221" y2="198" gradientUnits="userSpaceOnUse" id="color-2"><stop offset="0" stop-color="#009933"/><stop offset="1" stop-color="#009999"/></linearGradient></defs><g transform="translate(-220,-161)"><g data-paper-data="{&quot;isPaintingLayer&quot;:true}" fill="none" fill-rule="nonzero" stroke="none" stroke-width="none" stroke-linecap="butt" stroke-linejoin="miter" stroke-miterlimit="10" stroke-dasharray="" stroke-dashoffset="0" font-family="none" font-weight="none" font-size="none" text-anchor="none" style="mix-blend-mode: normal"><path d="M221,162h36v36h-36z" id="ID0.6936748237349093" fill="url(#color-1)" stroke="url(#color-2)" stroke-width="2"/><path d="M235.9758,167.0593c7.5031,1.4128 11.4312,2.221 11.7799,2.4203c0,0.0996 0,0.1992 0,0.2988c-1.6143,4.5598 -2.4203,6.9235 -2.4203,7.0888c-0.0498,0 -0.0996,0 -0.1494,0c-0.4166,0 -2.4293,-0.6475 -6.0405,-1.9471c-2.0127,3.378 -3.0202,5.1847 -3.0202,5.4179l4.9922,4.8405c3.8602,-3.627 5.8231,-5.4405 5.8888,-5.4405c3.0135,3.944 4.5191,6.156 4.5191,6.6405c-1.6483,0.9463 -4.5191,2.8119 -8.6102,5.5899c-7.922,-1.7139 -12.1988,-2.6716 -12.8304,-2.8708l-3.9191,-12.6787z" data-paper-data="{&quot;origPos&quot;:null}" id="path834" fill="#ffffff" stroke="#006c44" stroke-width="2.26405"/></g></g></svg>