<svg version="1.1" xmlns="http://www.w3.org/2000/svg" xmlns:xlink="http://www.w3.org/1999/xlink" width="815.53146" height="409.38393" viewBox="0,0,815.53146,409.38393"><defs><linearGradient x1="621.42813" y1="-9.29889" x2="621.42813" y2="382.82118" gradientUnits="userSpaceOnUse" id="color-1"><stop offset="0" stop-color="#805c39"/><stop offset="1" stop-color="#674521"/></linearGradient><linearGradient x1="621.12506" y1="-17.0184" x2="621.12506" y2="392.36556" gradientUnits="userSpaceOnUse" id="color-2"><stop offset="0" stop-color="#000000" stop-opacity="0.2"/><stop offset="1" stop-color="#000000" stop-opacity="0.8"/></linearGradient><radialGradient cx="558.73879" cy="176.08641" r="180.93093" gradientUnits="userSpaceOnUse" id="color-3"><stop offset="0" stop-color="#ececec"/><stop offset="1" stop-color="#616161"/></radialGradient><linearGradient x1="576.38141" y1="176.08641" x2="541.09614" y2="176.08641" gradientUnits="userSpaceOnUse" id="color-4"><stop offset="0" stop-color="#ececec" stop-opacity="0"/><stop offset="1" stop-color="#ececec"/></linearGradient></defs><g transform="translate(86.29585,17.01838)"><g data-paper-data="{&quot;isPaintingLayer&quot;:true}" fill-rule="nonzero" stroke-linecap="butt" stroke-linejoin="miter" stroke-miterlimit="10" stroke-dasharray="" stroke-dashoffset="0" style="mix-blend-mode: normal"><g fill="#a18a67" stroke="#8b8064" stroke-width="7"><g><path d="M-80.79585,0h110v50h-110z"/><path d="M35.20414,0h110v50h-110z"/><path d="M151.20413,0h110v50h-110z"/></g><g><path d="M-20.79585,56h110v50h-110z"/><path d="M95.20415,56h110v50h-110z"/><path d="M211.20415,56h110v50h-110z"/></g></g><g fill="#a18a67" stroke="#8b8064" stroke-width="7"><g><path d="M-81.79585,111h110v50h-110z"/><path d="M34.20414,111h110v50h-110z"/><path d="M150.20413,111h110v50h-110z"/></g><g><path d="M-21.79585,167h110v50h-110z"/><path d="M94.20415,167h110v50h-110z"/><path d="M210.20415,167h110v50h-110z"/></g></g><g fill="#a18a67" stroke="#8b8064" stroke-width="7"><g><path d="M-82.79585,222h110v50h-110z"/><path d="M33.20414,222h110v50h-110z"/><path d="M149.20413,222h110v50h-110z"/></g><g><path d="M-22.79585,278h110v50h-110z"/><path d="M93.20415,278h110v50h-110z"/><path d="M209.20415,278h110v50h-110z"/></g></g><g><g fill="#a18a67" stroke="#8b8064" stroke-width="7"><path d="M-82.79585,333h110v37.98799h-110z"/><path d="M33.20414,333h110v37.98799h-110z"/><path d="M149.20413,333h110v37.98799h-110z"/></g><g fill="none" stroke="none" stroke-width="1" font-family="sans-serif" font-weight="normal" font-size="12" text-anchor="start"/></g><g fill="#a18a67" stroke="#8b8064" stroke-width="7"><g><path d="M267.73562,0h110v50h-110z"/><path d="M383.73562,0h110v50h-110z"/><path d="M499.73562,0h110v50h-110z"/><path d="M615.73561,0h110v50h-110z"/></g><g><path d="M327.73562,56h110v50h-110z"/><path d="M443.73562,56h110v50h-110z"/><path d="M559.73561,56h110v50h-110z"/></g></g><g fill="#a18a67" stroke="#8b8064" stroke-width="7"><g><path d="M266.73562,111h110v50h-110z"/><path d="M382.73562,111h110v50h-110z"/><path d="M498.73562,111h110v50h-110z"/><path d="M614.73561,111h110v50h-110z"/></g><g><path d="M326.73562,167h110v50h-110z"/><path d="M442.73562,167h110v50h-110z"/><path d="M558.73561,167h110v50h-110z"/></g></g><g fill="#a18a67" stroke="#8b8064" stroke-width="7"><g><path d="M265.73562,222h110v50h-110z"/><path d="M381.73562,222h110v50h-110z"/><path d="M497.73562,222h110v50h-110z"/><path d="M613.73561,222h110v50h-110z"/></g><g><path d="M325.73562,278h110v50h-110z"/><path d="M441.73562,278h110v50h-110z"/><path d="M557.73561,278h110v50h-110z"/></g></g><g><g fill="#a18a67" stroke="#8b8064" stroke-width="7"><path d="M265.73562,333h110v37.98799h-110z"/><path d="M381.73562,333h110v37.98799h-110z"/><path d="M497.73562,333h110v37.98799h-110z"/><path d="M613.73561,333h110v37.98799h-110z"/></g><g fill="none" stroke="none" stroke-width="1" font-family="sans-serif" font-weight="normal" font-size="12" text-anchor="start"/></g><path d="M575.29522,382.82118v-392.12007h92.26579v392.12007z" fill="url(#color-1)" stroke="none" stroke-width="0"/><path d="M575.21935,392.36556v-409.38393h91.81139v409.38393z" fill="url(#color-2)" stroke="none" stroke-width="0"/><g data-paper-data="{&quot;index&quot;:null}" stroke="none" stroke-width="0"><path d="M541.09614,360.93106v-369.68925h35.28529v369.68925z" fill="url(#color-3)"/><path d="M541.09614,360.93106v-369.68925h35.28529v369.68925z" fill="url(#color-4)"/></g></g></g></svg>