<svg version="1.1" xmlns="http://www.w3.org/2000/svg" xmlns:xlink="http://www.w3.org/1999/xlink" width="134.67069" height="172.85924" viewBox="0,0,134.67069,172.85924"><defs><linearGradient x1="237.20965" y1="244.29768" x2="275.66798" y2="244.29768" gradientUnits="userSpaceOnUse" id="color-1"><stop offset="0" stop-color="#8e4108"/><stop offset="1" stop-color="#be6d2f"/></linearGradient><linearGradient x1="199.54587" y1="242.04133" x2="238.16386" y2="242.04133" gradientUnits="userSpaceOnUse" id="color-2"><stop offset="0" stop-color="#8e4108"/><stop offset="1" stop-color="#be6d2f"/></linearGradient><linearGradient x1="238.84599" y1="169.90308" x2="238.84599" y2="222.15923" gradientUnits="userSpaceOnUse" id="color-3"><stop offset="0" stop-color="#0052ef"/><stop offset="1" stop-color="#004bd6"/></linearGradient><linearGradient x1="281.40053" y1="123.23722" x2="281.40053" y2="136.61647" gradientUnits="userSpaceOnUse" id="color-4"><stop offset="0" stop-color="#bc041a"/><stop offset="1" stop-color="#880010"/></linearGradient><linearGradient x1="261.93219" y1="114.61611" x2="261.93219" y2="129.89176" gradientUnits="userSpaceOnUse" id="color-5"><stop offset="0" stop-color="#bc041a"/><stop offset="1" stop-color="#a90216"/></linearGradient></defs><g transform="translate(-173.59264,-86.59691)"><g data-paper-data="{&quot;isPaintingLayer&quot;:true}" fill="none" fill-rule="nonzero" stroke="none" stroke-width="none" stroke-linecap="none" stroke-linejoin="miter" stroke-miterlimit="10" stroke-dasharray="" stroke-dashoffset="0" font-family="none" font-weight="none" font-size="none" text-anchor="none" style="mix-blend-mode: normal"><g data-paper-data="{&quot;origPos&quot;:null,&quot;index&quot;:null,&quot;origRot&quot;:0}" stroke="none" stroke-width="0" stroke-linecap="butt"><path d="M248.64446,187.51508c-3.28343,-4.18044 -1.25087,-10.45206 6.40422,-16.4646c6.15706,-4.83595 19.27847,-12.7732 19.27847,-12.7732l9.70941,12.65822c0,0 -6.37879,6.85855 -14.03388,12.87109c-7.6551,6.01253 -18.07479,7.88892 -21.35823,3.70848z" data-paper-data="{&quot;origRot&quot;:0,&quot;origPos&quot;:null}" fill="#ff0021"/><g data-paper-data="{&quot;origPos&quot;:null}" fill="#ffffff"><path d="M282.58077,140.48717c7.9579,-7.75842 13.69773,-0.46561 21.35742,6.33857c7.01932,6.23534 4.61753,20.13217 -0.97234,24.63789c-7.70524,6.21081 -14.87835,-2.94117 -20.33324,-10.58281c-5.45488,-7.64164 -7.48241,-13.14935 -0.05184,-20.39365z" data-paper-data="{&quot;origRot&quot;:0,&quot;origPos&quot;:null}"/><path d="M272.54674,151.75636c5.44245,-4.15669 4.72206,-1.02997 12.84771,9.74868c7.13286,9.46171 8.53298,10.77945 3.76328,14.80392c-4.26362,3.59747 -7.92791,-3.95045 -12.14716,-9.8447c-4.21924,-5.89425 -7.64186,-12.2807 -4.46384,-14.70791z" data-paper-data="{&quot;origRot&quot;:0,&quot;origPos&quot;:null}"/></g></g><g data-paper-data="{&quot;origPos&quot;:null,&quot;origRot&quot;:0}" stroke="none" stroke-width="0" stroke-linecap="butt"><path d="M262.82535,228.72159c1.30435,4.37916 6.73914,4.91736 6.8214,5.9516c0.33283,4.18454 -0.90345,7.48486 -7.13532,10.9821c-7.71955,4.33211 -14.35749,5.33745 -22.82421,2.75417c-5.76657,-1.75944 -1.93444,-5.38773 -1.33699,-11.38707c0.21439,-2.15273 0.10356,-4.87477 -0.66928,-10.25597c-0.96625,-6.72792 -0.29195,-19.56503 -0.29195,-19.56503c0,0 4.99746,-2.02946 10.09785,-3.3307c5.05811,-1.23367 10.59394,-0.36205 10.59394,-0.36205c0,0 1.72939,15.08999 4.74454,25.21294z" data-paper-data="{&quot;origPos&quot;:null}" fill="#004bd6"/><path d="M274.95729,248.64325c0.90677,3.79158 -2.52423,6.50072 -5.9394,8.38086c-2.23811,1.23214 -13.93885,3.67093 -20.51239,1.67273c-2.0408,-0.62036 -4.06376,-2.65283 -4.06376,-2.65283c0,0 -4.72194,1.91021 -5.04671,0.49006c-0.2578,-1.12733 -0.74412,-3.03572 0.20607,-3.88002c4.09009,-3.63428 15.20288,-6.28562 20.52427,-7.55826c7.30508,-1.74704 13.94554,-0.15879 14.83191,3.54746z" data-paper-data="{&quot;origPos&quot;:null}" fill="#f9c869"/><path d="M275.65104,243.44211c-0.26765,4.75593 -3.95082,8.99052 -12.20931,10.96558c-8.25849,1.97506 -18.23851,-0.70206 -18.23851,-0.70206c0,0 -5.90354,1.74462 -6.39135,0.23959c-1.00965,-3.11501 -2.30572,-8.28167 -1.14454,-8.73843c4.28672,-1.68624 3.59269,-0.88528 9.0971,-3.51293c3.56384,-1.70127 8.98276,-6.78112 12.82354,-7.69966c8.25849,-1.97506 16.50379,1.6172 16.0631,9.44792z" data-paper-data="{&quot;origPos&quot;:null}" fill="url(#color-1)"/></g><g data-paper-data="{&quot;origPos&quot;:null,&quot;origRot&quot;:0}" stroke="none" stroke-width="0" stroke-linecap="butt"><path d="M233.1217,229.6593c-1.13066,4.42718 3.25562,7.68098 2.79487,8.61056c-1.86419,3.76111 -4.62035,5.95749 -11.76363,5.75641c-8.84854,-0.24908 -15.06003,-2.79668 -20.99693,-9.36264c-4.04354,-4.472 1.10822,-5.61618 4.70286,-10.45638c1.28986,-1.73679 2.59319,-4.1291 4.69464,-9.14293c2.62737,-6.26861 10.59121,-16.9492 10.59121,-16.9492c0,0 7.2514,2.21683 11.75721,4.59957c3.55592,1.88042 8.89995,6.32424 8.89995,6.32424c0,0 -8.06653,10.38639 -10.6802,20.62035z" data-paper-data="{&quot;origPos&quot;:null}" fill="#004bd6"/><path d="M233.29583,252.98367c-1.1699,3.71882 -5.50531,4.2805 -9.40123,4.13908c-2.55318,-0.09269 -13.84471,-4.0114 -18.45793,-9.10282c-1.4322,-1.58067 -2.12365,-4.36368 -2.12365,-4.36368c0,0 -5.03253,-0.78696 -4.58158,-2.17222c0.35797,-1.09964 0.92113,-2.98677 2.17009,-3.22299c5.37614,-1.01681 16.27244,2.41751 21.49172,4.05944c7.1649,2.254 12.04614,7.02807 10.90257,10.66321z" data-paper-data="{&quot;origPos&quot;:null}" fill="#f9c869"/><path d="M236.56304,248.87777c-2.67292,3.94284 -8.00835,5.68373 -16.10837,3.13556c-8.10002,-2.54818 -15.28704,-9.97209 -15.28704,-9.97209c0,0 -5.96121,-1.53606 -5.60654,-3.07791c0.73406,-3.19122 2.27639,-8.28977 3.50728,-8.08512c4.54406,0.75553 3.53715,1.08616 9.60956,1.65958c3.93159,0.37126 11.19045,-1.2031 14.95753,-0.01802c8.10002,2.54818 13.3286,9.86604 8.92759,16.358z" data-paper-data="{&quot;origPos&quot;:null}" fill="url(#color-2)"/></g><g data-paper-data="{&quot;origPos&quot;:null,&quot;origRot&quot;:0}"><path d="M266.54837,200.31058c-3.95882,20.80383 -18.41148,23.93296 -33.27652,20.81834c-14.86504,-3.11462 -25.05277,-15.50515 -22.9688,-25.45121c2.26075,-10.78982 5.35092,-19.10865 15.11196,-24.23244c7.27227,-3.81737 15.70748,0.44717 23.74621,2.13149c14.86504,3.11462 21.26768,6.34142 17.38715,26.73382z" data-paper-data="{&quot;origPos&quot;:null}" fill="url(#color-3)" stroke="none" stroke-width="0" stroke-linecap="butt"/><path d="M266.67142,199.72334c0,0 -17.28751,-1.57876 -29.26733,-3.68016c-10.98837,-1.9275 -21.22668,-7.92138 -21.22668,-7.92138c0,0 1.8636,-13.70474 10.76538,-17.32045c5.82417,-2.36565 11.80035,-2.28783 19.21229,-0.9196c7.41194,1.36823 14.95592,5.31923 18.03828,9.10482c7.28086,8.94202 2.47805,20.73676 2.47805,20.73676z" data-paper-data="{&quot;origPos&quot;:null}" fill="#ff0021" stroke="none" stroke-width="0" stroke-linecap="butt"/><path d="M257.40332,176.21436c0,0 0.69204,7.13382 0.27119,11.24786c-0.54056,5.28417 -3.68649,14.76629 -3.68649,14.76629" data-paper-data="{&quot;origPos&quot;:null,&quot;origRot&quot;:0}" fill="none" stroke="#0052ef" stroke-width="10" stroke-linecap="round"/><path d="M236.24829,172.30156c0,0 -0.23416,7.16348 -1.18231,11.18883c-1.21781,5.17025 -5.56085,14.16723 -5.56085,14.16723" data-paper-data="{&quot;origPos&quot;:null}" fill="none" stroke="#0052ef" stroke-width="10" stroke-linecap="round"/><path d="M226.56703,195.10076c0.46436,-2.21623 2.63742,-3.63642 4.85366,-3.17206c2.21623,0.46436 3.63642,2.63743 3.17206,4.85366c-0.46436,2.21623 -2.63742,3.63642 -4.85366,3.17206c-2.21623,-0.46436 -3.63642,-2.63742 -3.17206,-4.85366z" data-paper-data="{&quot;origPos&quot;:null}" fill="#ffe84f" stroke="none" stroke-width="0" stroke-linecap="butt"/><path d="M250.83995,200.18657c0.46436,-2.21623 2.63742,-3.63642 4.85366,-3.17206c2.21623,0.46436 3.63642,2.63743 3.17206,4.85366c-0.46436,2.21623 -2.63743,3.63642 -4.85366,3.17206c-2.21623,-0.46436 -3.63642,-2.63742 -3.17206,-4.85366z" data-paper-data="{&quot;origPos&quot;:null}" fill="#ffe84f" stroke="none" stroke-width="0" stroke-linecap="butt"/></g><g data-paper-data="{&quot;origPos&quot;:null,&quot;index&quot;:null,&quot;origRot&quot;:0}" stroke="none" stroke-width="0" stroke-linecap="butt"><path d="M223.48132,168.26262c6.27351,7.44274 6.98914,13.99654 2.92467,17.42249c-4.06447,3.42596 -13.88542,-0.52874 -20.15892,-7.97147c-6.2735,-7.44273 -11.12539,-15.45446 -11.12539,-15.45446l12.0792,-10.42095c0,0 11.2346,10.43814 16.28044,16.42441z" data-paper-data="{&quot;origRot&quot;:0,&quot;origPos&quot;:null}" fill="#ff0021"/><g data-paper-data="{&quot;origPos&quot;:null}" fill="#ffffff"><path d="M198.53964,152.69961c-6.89398,6.37365 -15.77726,13.87696 -22.05957,6.22989c-4.55758,-5.54766 -4.08518,-19.6426 4.05481,-24.32137c8.88259,-5.10561 15.98469,-11.07982 22.19988,-1.86609c5.80334,8.60316 2.69885,13.58392 -4.19512,19.95757z" data-paper-data="{&quot;origRot&quot;:0,&quot;origPos&quot;:null}"/><path d="M202.90969,159.30905c-5.32902,4.91382 -10.45074,11.55958 -13.89431,7.17073c-3.85232,-4.90978 -2.21362,-5.91549 6.69319,-13.73024c10.14651,-8.90244 10.07655,-12.11033 14.56073,-6.93436c2.61845,3.02239 -2.03059,8.58005 -7.35961,13.49387z" data-paper-data="{&quot;origRot&quot;:0,&quot;origPos&quot;:null}"/></g></g><g data-paper-data="{&quot;origPos&quot;:null,&quot;origRot&quot;:0}"><path d="M294.19921,131.69699c-1.30205,3.60781 -13.34776,6.09663 -22.08416,4.34626c-7.0398,-1.41045 -3.96777,-7.68412 -3.25169,-11.25817c0.71607,-3.57405 14.356,-0.03035 21.3958,1.3801c7.0398,1.41045 4.78286,3.19652 3.94006,5.53181z" data-paper-data="{&quot;origPos&quot;:null}" fill="url(#color-4)" stroke="none" stroke-width="0" stroke-linecap="butt"/><path d="M214.34886,157.42411c0,0 -1.89711,0.81374 -3.47469,-0.89754c-1.57758,-1.71126 -2.29373,-5.08109 0.67573,-6.02695c3.55177,-1.13134 3.91649,-7.25687 5.49408,-5.5456c0,0 6.89127,2.42269 6.87014,5.36967c0,0 1.34962,8.79299 -0.13873,9.85799c0,0 -2.00674,0.94603 -6.51847,-0.18178c-2.44452,-0.61106 -2.90806,-2.57579 -2.90806,-2.57579z" data-paper-data="{&quot;origRot&quot;:0,&quot;origPos&quot;:null}" fill="#5a2c0a" stroke="none" stroke-width="0" stroke-linecap="butt"/><path d="M226.66715,120.49537c4.03206,1.83495 36.94324,5.19042 42.56087,6.64436c8.31119,2.15107 4.46762,9.27195 3.37858,17.78766c-1.25216,9.79122 4.60028,15.53686 -0.59842,23.92789c-2.00439,3.23521 -5.30401,4.47733 -8.69796,6.19931c-1.92536,0.97687 -6.82114,1.31964 -17.44274,-0.58214c-15.01426,-2.68829 -18.76882,-5.95877 -23.99216,-11.89241c-3.31668,-3.7677 -0.75958,-7.66415 -2.92861,-13.00124c-0.66489,-1.63601 -1.64212,-2.63348 -1.83286,-2.67169c-10.16834,-2.03727 -14.07538,-11.55679 -12.4841,-19.49912c1.59128,-7.94234 6.51016,-13.6538 12.19615,-12.51459c5.68599,1.13921 8.43927,4.96398 9.84125,5.602z" data-paper-data="{&quot;origPos&quot;:null}" fill="#ffdebd" stroke="none" stroke-width="0" stroke-linecap="butt"/><path d="M272.88878,135.06595c-0.61493,4.86281 -3.55642,8.49596 -6.56998,8.11487c-3.01357,-0.38108 -4.95804,-4.63209 -4.34311,-9.49489c0.61493,-4.86281 3.55641,-8.49594 6.56998,-8.11486c3.01357,0.38108 4.95805,4.63209 4.34312,9.49488z" data-paper-data="{&quot;origPos&quot;:null,&quot;origRot&quot;:0}" fill="#ffffff" stroke="none" stroke-width="0" stroke-linecap="butt"/><path d="M235.33738,130.21146c-0.51244,2.55766 1.73648,6.89951 -0.78781,7.55695c-2.93656,0.76483 -3.94563,-1.31017 -3.94563,-1.31017c0,0 0.26136,1.6594 -3.45569,1.61189c-2.7612,-0.03529 -2.56793,-5.79919 -1.69996,-10.13138c0.86797,-4.33218 1.6924,-8.53199 4.41817,-8.08969c11.47636,1.86225 6.33889,6.03022 5.47092,10.3624z" data-paper-data="{&quot;origPos&quot;:null}" fill="#5a2c0a" stroke="none" stroke-width="0" stroke-linecap="butt"/><path d="M259.13616,137.41473c-0.39653,4.88546 -3.17236,8.64671 -6.19996,8.40097c-3.02761,-0.24573 -5.16053,-4.4054 -4.76399,-9.29086c0.39654,-4.88546 3.17235,-8.6467 6.19995,-8.40096c3.02761,0.24573 5.16053,4.4054 4.764,9.29086z" data-paper-data="{&quot;origPos&quot;:null,&quot;origRot&quot;:0}" fill="#ffffff" stroke="none" stroke-width="0" stroke-linecap="butt"/><path d="M257.11432,133.2888c0.93345,0.18702 1.64212,1.03782 2.03452,2.26074c0.39143,1.22272 0.46638,2.81854 0.13026,4.4962c-0.33612,1.67766 -1.02008,3.12143 -1.85234,4.09898c-0.83324,0.97735 -1.81497,1.48947 -2.74842,1.30245c-0.93345,-0.18702 -1.64212,-1.03781 -2.03453,-2.26073c-0.39142,-1.22272 -0.46639,-2.81855 -0.13026,-4.49621c0.33613,-1.67766 1.02008,-3.12143 1.85234,-4.09898c0.83324,-0.97735 1.81498,-1.48947 2.74843,-1.30245z" data-paper-data="{&quot;origPos&quot;:null}" id="ID0.2989244391210377" fill="#000000" stroke="none" stroke-width="1" stroke-linecap="butt"/><path d="M270.75485,131.38132c0.93345,0.18702 1.64212,1.03782 2.03453,2.26074c0.39143,1.22272 0.18941,2.99966 0.13026,4.4962c-0.0245,0.5448 -0.03144,1.34299 -0.50069,1.73546c-0.58694,0.47087 -1.42361,0.58472 -2.17712,0.68567c-1.2826,0.00819 -2.89817,0.47695 -3.85356,-0.36413c-0.83324,-0.75847 -0.45265,-2.27118 -0.23417,-3.4125c0.28213,-1.4743 1.02008,-3.12143 1.85234,-4.09898c0.83324,-0.97735 1.81497,-1.48947 2.74842,-1.30245z" data-paper-data="{&quot;origPos&quot;:null}" id="ID0.2989244391210377" fill="#000000" stroke="none" stroke-width="1" stroke-linecap="round"/><path d="M285.67717,102.42713c-0.58609,15.12418 -3.58539,15.39002 -12.39833,18.50375c-12.84118,4.53696 -27.56971,0.14674 -40.88664,2.9997c-3.49667,0.74911 -11.0187,-4.2802 -14.52502,-4.98271c-7.17146,-1.43683 -10.19106,-7.37295 -9.26427,-13.53717c2.04427,-13.59685 8.68544,-12.32059 15.8569,-10.88376c0,0 7.63032,2.88942 9.51757,7.62283c0,0 14.55856,-15.6642 26.57459,-15.55227c15.46801,0.14409 25.54609,4.96847 25.12521,15.82963z" data-paper-data="{&quot;origPos&quot;:null}" fill="#ff0021" stroke="none" stroke-width="0" stroke-linecap="butt"/><path d="M281.1648,110.21784c-1.07412,5.36108 -3.31688,9.10702 -13.90713,7.3104c-11.17989,-1.89666 -11.09153,-6.7427 -10.01742,-12.10377c1.07412,-5.36107 7.30054,-8.63406 13.90713,-7.3104c6.60658,1.32366 11.09153,6.74271 10.01742,12.10378z" data-paper-data="{&quot;origPos&quot;:null}" fill="#ffffff" stroke="none" stroke-width="0" stroke-linecap="butt"/><path d="M295.00396,129.71649c-0.36475,0.80246 -39.85313,-1.35556 -50.83252,-2.33148c-5.33613,-0.47431 -15.8174,-3.00745 -15.45265,-3.80991c1.34835,-2.96642 4.36997,-7.53329 9.69091,-8.15513c6.43008,-0.75146 28.21305,-1.87412 43.66457,1.46811c6.31649,1.36629 14.27805,9.86199 12.92969,12.82841z" data-paper-data="{&quot;origPos&quot;:null}" fill="url(#color-5)" stroke="none" stroke-width="0" stroke-linecap="butt"/><path d="M259.84208,111.78168l7.25269,-11.62393l3.15144,6.6878l3.71354,-4.67105l3.24824,10.9333l-4.02157,1.44806l0.01273,-7.79008l-3.57901,4.04436l-2.58083,-5.30089l-2.98599,7.11618z" data-paper-data="{&quot;origPos&quot;:null}" fill="#ff0021" stroke="none" stroke-width="0" stroke-linecap="butt"/><path d="M271.31823,169.0653c-0.86449,2.4258 -3.00297,3.30038 -4.49743,3.40075c-4.56117,0.30637 -10.82824,-1.12704 -14.86082,-3.28025c-2.31761,-1.2375 -2.04172,-2.84197 -2.23519,-3.11274c-0.20441,-0.28609 -3.21968,0.95296 -6.42572,0.31061c-5.14446,-1.03071 -7.97572,-5.36878 -6.95857,-10.44556c1.11538,-5.56704 2.2183,-8.56378 3.08775,-8.55618c5.06375,0.04424 5.6556,4.63377 8.9983,7.40812c0,0 11.70625,6.63656 17.62809,7.47616c0,0 10.33717,-2.52959 13.22772,-1.74874c1.43358,0.38727 0.83309,3.43371 0.06667,4.87958c0,0 -0.69232,4.22979 -2.949,4.93895c-5.33591,1.67682 -4.83159,-1.97272 -5.08178,-1.27069z" data-paper-data="{&quot;origPos&quot;:null}" fill="#38291e" stroke="none" stroke-width="0" stroke-linecap="butt"/><path d="M279.97682,154.4821c-1.79037,6.39084 -1.08006,11.12969 -15.1282,8.06012c-6.47466,-1.41475 -11.9104,-6.72788 -10.75762,-12.48155c1.15277,-5.75367 8.84354,-11.59896 15.42331,-10.80565c9.58715,1.15592 13.32683,5.00268 10.46251,15.22707z" data-paper-data="{&quot;origPos&quot;:null}" fill="#ffdebd" stroke="none" stroke-width="0" stroke-linecap="butt"/><g data-paper-data="{&quot;origPos&quot;:null}" fill="none" stroke="#f6b09a" stroke-width="3.5" stroke-linecap="round"><path d="M211.72671,124.43195c0,0 3.24543,-1.11411 6.38772,2.50312c4.50657,5.18771 -0.03276,11.59138 -0.03276,11.59138" data-paper-data="{&quot;origPos&quot;:null}"/><path d="M213.06909,131.54863l5.88308,1.1787" data-paper-data="{&quot;origPos&quot;:null}"/><path d="M215.95251,138.24558l1.26065,0.25258" data-paper-data="{&quot;origPos&quot;:null}"/></g><path d="M251.78514,125.08328c-1.42955,0.13201 -1.40387,0.33538 -2.30833,1.45028c-0.93308,1.15017 -2.694,2.51936 -2.694,2.51936c0,0 -0.71738,-3.84287 -0.18846,-6.48279c0.35913,-1.79247 1.95908,-4.72154 4.84743,-4.79459c9.40844,1.55775 4.86409,9.79739 4.86409,9.79739c0,0 -3.01209,-2.66689 -4.52075,-2.48964z" data-paper-data="{&quot;origPos&quot;:null}" fill="#38291e" stroke="none" stroke-width="0" stroke-linecap="butt"/><path d="M269.26083,125.7228c-1.50437,-0.21048 -4.57454,2.38935 -4.57454,2.38935c0,0 -4.36156,-8.33784 5.07894,-9.68776c2.88603,0.13671 4.42102,3.10035 4.74053,4.90031c0.47058,2.65095 -0.33136,6.47706 -0.33136,6.47706c0,0 -1.7303,-1.40769 -2.63779,-2.57816c-0.87966,-1.13456 -0.84949,-1.33733 -2.27578,-1.50083z" data-paper-data="{&quot;origPos&quot;:null,&quot;index&quot;:null,&quot;origRot&quot;:0}" fill="#38291e" stroke="none" stroke-width="0" stroke-linecap="butt"/></g></g></g></svg>