<svg version="1.1" xmlns="http://www.w3.org/2000/svg" xmlns:xlink="http://www.w3.org/1999/xlink" width="690.04205" height="411" viewBox="0,0,690.04205,411"><defs><linearGradient x1="162.8431" y1="327.27755" x2="162.8431" y2="379.8301" gradientUnits="userSpaceOnUse" id="color-1"><stop offset="0" stop-color="#af9141"/><stop offset="1" stop-color="#ddb747"/></linearGradient><linearGradient x1="539.46473" y1="329.27455" x2="539.46473" y2="381.8271" gradientUnits="userSpaceOnUse" id="color-2"><stop offset="0" stop-color="#af9141"/><stop offset="1" stop-color="#ddb747"/></linearGradient><linearGradient x1="375.09371" y1="51.49676" x2="375.09371" y2="72.51778" gradientUnits="userSpaceOnUse" id="color-3"><stop offset="0" stop-color="#af9141"/><stop offset="1" stop-color="#ddb747"/></linearGradient><linearGradient x1="206.41113" y1="270.22048" x2="206.41113" y2="286.737" gradientUnits="userSpaceOnUse" id="color-4"><stop offset="0" stop-color="#af9141"/><stop offset="1" stop-color="#ddb747"/></linearGradient><linearGradient x1="294.82334" y1="232.68295" x2="294.82334" y2="247.69796" gradientUnits="userSpaceOnUse" id="color-5"><stop offset="0" stop-color="#af9141"/><stop offset="1" stop-color="#ddb747"/></linearGradient><linearGradient x1="373.99845" y1="178.62889" x2="373.99845" y2="195.14541" gradientUnits="userSpaceOnUse" id="color-6"><stop offset="0" stop-color="#af9141"/><stop offset="1" stop-color="#ddb747"/></linearGradient><linearGradient x1="261.17391" y1="123.07334" x2="261.17391" y2="144.09436" gradientUnits="userSpaceOnUse" id="color-7"><stop offset="0" stop-color="#af9141"/><stop offset="1" stop-color="#ddb747"/></linearGradient><linearGradient x1="88.49476" y1="-20.8696" x2="88.49476" y2="388.1304" gradientUnits="userSpaceOnUse" id="color-8"><stop offset="0" stop-color="#af9141"/><stop offset="1" stop-color="#ddb747"/></linearGradient><linearGradient x1="563.49475" y1="-11.8696" x2="563.49475" y2="383.1304" gradientUnits="userSpaceOnUse" id="color-9"><stop offset="0" stop-color="#af9141"/><stop offset="1" stop-color="#ddb747"/></linearGradient></defs><g transform="translate(14.25901,21.8696)"><g data-paper-data="{&quot;isPaintingLayer&quot;:true}" fill-rule="nonzero" stroke-linecap="butt" stroke-linejoin="miter" stroke-miterlimit="10" stroke-dasharray="" stroke-dashoffset="0" style="mix-blend-mode: normal"><path d="M-13.25901,379.8301v-52.55255h278.20421v52.55255z" fill="url(#color-1)" stroke="#91773e" stroke-width="2"/><path d="M471.14641,381.8271v-52.55255h203.63664v52.55255z" fill="url(#color-2)" stroke="#91773e" stroke-width="2"/><path d="M342.10408,72.51778v-21.02102h65.97927v21.02102z" fill="url(#color-3)" stroke="#91773e" stroke-width="2"/><path d="M179.35963,286.737v-16.51652h54.103v16.51652z" fill="url(#color-4)" stroke="#91773e" stroke-width="2"/><path d="M263.81308,247.69796v-15.01502h62.02051v15.01502z" fill="url(#color-5)" stroke="#91773e" stroke-width="2"/><path d="M346.94696,195.14541v-16.51652h54.103v16.51652z" fill="url(#color-6)" stroke="#91773e" stroke-width="2"/><path d="M228.18428,144.09436v-21.02102h65.97927v21.02102z" fill="url(#color-7)" stroke="#91773e" stroke-width="2"/><path d="M-5.00525,388.1304v-409l113,0v409z" fill="url(#color-8)" stroke="#91773e" stroke-width="2"/><path d="M546.99475,383.1304v-395h100v395z" fill="url(#color-9)" stroke="#91773e" stroke-width="2"/><path d="M255.54602,141.31954l-2.17216,-12.32222l5.57052,-0.56162l-0.76906,9.48246l7.48212,-1.64078l-1.31649,3.70883z" fill="#91773e" stroke="none" stroke-width="0"/></g></g></svg>