<svg version="1.1" xmlns="http://www.w3.org/2000/svg" xmlns:xlink="http://www.w3.org/1999/xlink" width="81.06862" height="95.06675" viewBox="0,0,81.06862,95.06675"><defs><linearGradient x1="226.94236" y1="181.47568" x2="227.62866" y2="183.83483" gradientUnits="userSpaceOnUse" id="color-1"><stop offset="0" stop-color="#6f2424" stop-opacity="0"/><stop offset="1" stop-color="#6f2424"/></linearGradient><linearGradient x1="263.59315" y1="181.47002" x2="262.75255" y2="183.7787" gradientUnits="userSpaceOnUse" id="color-2"><stop offset="0" stop-color="#6f2424" stop-opacity="0"/><stop offset="1" stop-color="#6f2424"/></linearGradient></defs><g transform="translate(-199.46569,-132.46662)"><g data-paper-data="{&quot;isPaintingLayer&quot;:true}" fill-rule="nonzero" stroke-linejoin="miter" stroke-miterlimit="10" stroke-dasharray="" stroke-dashoffset="0" style="mix-blend-mode: normal"><path d="M211.43735,216.53338l2.2,-1.6l7.4,-2.2l9.2,-1.2l11.2,-0.2l3.2,0.2l3.8,2l2.2,2.6l-0.4,6.4l-2,1.6l-4.6,3l-3.6,0.2l-18.2,0.2l-3.4,-1l-3.8,-2l-1.6,-2l-1.2,-3z" data-paper-data="{&quot;origPos&quot;:null,&quot;index&quot;:null}" fill="#efefef" stroke="#000000" stroke-width="0" stroke-linecap="round"/><g data-paper-data="{&quot;origPos&quot;:null}" stroke-width="0"><g data-paper-data="{&quot;origPos&quot;:null}" stroke="#000000" stroke-linecap="round"><path d="M228.61058,199.52214c1.52584,-0.13332 3.02246,-0.42891 3.92411,0c0.90166,0.42891 0.80905,0.58026 0.98103,2.33333c0.17198,1.75307 1.01719,1.93548 -0.32701,4.33333c-1.3442,2.39785 -3.68273,4.08943 -4.90513,5c-1.22241,0.91057 -0.93779,0.99449 -3.5971,1.33333c-2.65932,0.33884 -5.64661,0 -6.86719,0c-1.22058,0 -0.3509,0.94368 -2.94308,0c-2.59219,-0.94368 -3.44983,-1.10956 -6.21317,-3.33333c-2.76334,-2.22378 -5.28653,-5.57098 -6.21317,-6.66667c-0.92663,-1.09569 -2.04129,-1.70757 -1.96205,-3c0.07924,-1.29243 1.26291,-1.74496 2.28906,-2.33333c1.02615,-0.58838 1.4663,-0.44087 2.94308,-0.66667c1.47678,-0.2258 0.38334,-1.17571 3.5971,-0.33333c3.21375,0.84237 6.33699,2.77706 7.84821,3.33333c1.51123,0.55627 0.96383,1 3.92411,1c2.96027,0 5.99536,-0.86668 7.5212,-1z" data-paper-data="{&quot;origPos&quot;:null}" fill="#ec8900"/><path d="M218.80032,199.85546c3.20982,2.94471 -2.11506,0.39225 -3.92411,2.33333c-1.80904,1.94109 -1.72446,2.47886 -2.28906,4.33333c-0.56461,1.85447 1.36579,5.75931 -0.65402,5.33333c-2.01981,-0.42597 -5.58528,-4.20067 -8.82924,-7.33333c-3.24396,-3.13266 -3.301,-2.35265 -3.5971,-4.66667c-0.2961,-2.31401 1.05239,-2.35063 2.61607,-3c1.56368,-0.64937 3.80342,-1.10014 6.21317,-0.66667c2.40975,0.43347 7.25447,0.72196 10.46428,3.66667z" data-paper-data="{&quot;origPos&quot;:null}" fill="#efefef"/></g><g data-paper-data="{&quot;origPos&quot;:null}" stroke="none" stroke-linecap="butt"><path d="M266.02069,199.63338c0,12.01219 -9.62588,21.75 -21.5,21.75c-11.87412,0 -21.5,-9.73781 -21.5,-21.75c0,-12.01219 9.62588,-21.75 21.5,-21.75c11.87412,0 21.5,9.73781 21.5,21.75z" data-paper-data="{&quot;origPos&quot;:null}" fill="#ec8900"/><path d="M263.71283,199.21663c0,9.25077 -7.5602,16.75 -16.88618,16.75c-9.32598,0 -16.88618,-7.49923 -16.88618,-16.75c0,-9.25077 7.5602,-16.75 16.88618,-16.75c9.32598,0 16.88618,7.49923 16.88618,16.75z" data-paper-data="{&quot;origPos&quot;:null}" fill="#efefef"/></g></g><path d="M277.90402,218.93338l-1.2,3l-1.6,2l-3.8,2l-3.4,1l-18.2,-0.2l-3.6,-0.2l-4.6,-3l-2,-1.6l-0.4,-6.4l2.2,-2.6l3.8,-2l3.2,-0.2l11.2,0.2l9.2,1.2l7.4,2.2l2.2,1.6z" data-paper-data="{&quot;origPos&quot;:null}" fill="#efefef" stroke="#000000" stroke-width="0" stroke-linecap="round"/><g><path d="M252.36284,140.76664c2.29546,0.4726 3.15291,0.98968 4.1,1.7c0.94709,0.71032 1.62581,1.26984 2.5,2.25c0.87419,0.98016 3.7889,4.05835 5.75,7c1.9611,2.94165 1.92988,4.63081 3.75,7.25c1.82012,2.61919 3.95206,4.57919 6.5,7.5c2.54794,2.92081 2.61194,2.35324 3.75,4.25c1.13806,1.89676 1.1447,2.67273 1.5,4.5c0.3553,1.82727 0.37858,2.74271 0.25,4.5c-0.12858,1.75729 -0.06936,3.66975 -1,5.75c-0.93064,2.08025 -1.65894,2.61353 -3.25,3.75c-1.59106,1.13647 -2.19573,1.11366 -3.75,1.25c-1.55427,0.13634 -6.43433,0.51628 -10.5,0c-4.06567,-0.51628 -3.1419,-1.27534 -5.25,-2c-2.1081,-0.72466 -1.63664,-0.70662 -2.75,-0.75c-1.11336,-0.04338 -10.07553,-0.43803 -16.5,0c-6.42447,0.43803 -3.24648,0.81712 -5.5,1.5c-2.25352,0.68288 -1.6087,0.93083 -2.75,1c-1.1413,0.06917 -8.44055,0.77872 -13.75,0c-5.30945,-0.77872 -3.84103,-1.08191 -5.75,-2.5c-1.90897,-1.41809 -2.19894,-2.08635 -3,-4c-0.80106,-1.91365 -0.55339,-4.24748 -0.75,-7c-0.19661,-2.75252 -0.37055,-2.18249 0,-3.5c0.37055,-1.31751 1.13051,-2.88296 2.25,-4.5c1.11949,-1.61704 2.66438,-3.27001 4.5,-5.25c1.83562,-1.97999 10.84683,-11.40992 17.75,-18.75c0.95542,-1.01589 2.63345,-1.51499 3.09967,-2.05565c0.46622,-0.54066 1.43162,-1.2503 3.15033,-1.44435c1.74062,-0.19652 3.60528,-1.18631 8,-1.25c4.39472,-0.06369 5.35454,0.3274 7.65,0.8z" data-paper-data="{&quot;origPos&quot;:null}" fill="#ec8900" stroke="#000000" stroke-width="0" stroke-linecap="butt"/><path d="M238.17596,173.21664c-2.69514,0 -6.00023,1.11137 -8.00001,-0.63437c-1.99978,-1.74574 -1.96186,-5.19693 -1.96186,-8.36563c0,-5.52284 3.30161,-10 7.37437,-10c4.07275,0 7.37438,4.47716 7.37438,10c0,5.52284 -0.71412,9 -4.78688,9z" data-paper-data="{&quot;origPos&quot;:null}" fill="#ffffff" stroke="#ffffff" stroke-width="0" stroke-linecap="butt"/><path d="M261.71285,164.21663c0,5.52284 -0.65374,9 -4.38218,9c-2.46729,0 -5.49297,1.11137 -7.32368,-0.63437c-1.83071,-1.74574 -1.79601,-5.19693 -1.79601,-8.36563c0,-5.52284 3.02249,-10 6.75093,-10c3.72844,0 6.75093,4.47716 6.75093,10c0,5.52284 0.00001,-5.52284 0.00001,0z" data-paper-data="{&quot;origPos&quot;:null}" fill="#ffffff" stroke="#ffffff" stroke-width="0" stroke-linecap="butt"/><path d="M260.93683,163.18864c0.633,1.064 1.026,2.532 1.026,4.153c0,1.621 -0.392,3.09 -1.026,4.153c-0.634,1.063 -1.508,1.722 -2.474,1.722c-0.966,0 -1.841,-0.658 -2.474,-1.722c-0.633,-1.064 -1.026,-2.532 -1.026,-4.153c0,-1.621 0.392,-3.09 1.026,-4.153c0.634,-1.063 1.508,-1.722 2.474,-1.722c0.966,0 1.841,0.658 2.474,1.722z" data-paper-data="{&quot;origPos&quot;:null}" fill="#000000" stroke="none" stroke-width="1" stroke-linecap="butt"/><path d="M241.68684,163.58864c0.633,1.064 1.026,2.532 1.026,4.153c0,1.621 -0.392,3.09 -1.026,4.153c-0.634,1.063 -1.508,1.722 -2.474,1.722c-0.966,0 -1.841,-0.658 -2.474,-1.722c-0.633,-1.064 -1.026,-2.532 -1.026,-4.153c0,-1.621 0.392,-3.09 1.026,-4.153c0.634,-1.063 1.508,-1.722 2.474,-1.722c0.966,0 1.841,0.658 2.474,1.722z" data-paper-data="{&quot;origPos&quot;:null}" fill="#000000" stroke="none" stroke-width="1" stroke-linecap="butt"/><path d="M209.36021,186.66105c0.97232,-0.52254 8.6501,-2.9156 14.25,-4.58333c5.5999,-1.66773 5.40442,-1.59031 11.75,-3.33333c6.34558,-1.74302 11.58605,-0.84334 16,-0.16667c4.41395,0.67668 11.39086,2.45685 12.1239,2.61496c0.24434,0.0527 5.17184,1.28132 10.20944,4.46837c5.0376,3.18705 4.8306,1.97405 2.66667,3.41667c-2.16393,1.44262 -1.89337,0.9976 -3.25,1.25c-1.35663,0.2524 -4.55798,0.72935 -7.5,0.75c-2.94202,0.02065 -24.39308,-0.04317 -40,-0.41667c-2.50432,-0.05993 -2.57941,0.07567 -5.08364,0.01196c-1.82292,-0.04638 -3.36055,-0.50851 -5.16636,-0.76196c-4.564,-0.64056 -1.9741,-0.37211 -4,-1.25c-2.0259,-0.87789 -2.97232,-1.47746 -2,-2z" data-paper-data="{&quot;origPos&quot;:null}" fill="#ededed" stroke="#000000" stroke-width="0" stroke-linecap="round"/><g data-paper-data="{&quot;origPos&quot;:null}"><path d="M248.96283,140.96663l8.5,-5.25l5.5,-2.25l3.75,-1l3,0.25l3,1.5l1,2l-1,8.25l-4.75,12z" data-paper-data="{&quot;origPos&quot;:null}" fill="#ec8900" stroke="#000000" stroke-width="0" stroke-linecap="round"/><path d="M269.11021,136.32772c3.03756,0 2,4.33172 2,8.75c0,4.41828 -2.46244,8 -5.5,8c-3.03756,0 -5.5,-3.58172 -5.5,-8c0,-4.41828 5.96244,-8.75 9,-8.75z" fill="#e09594" stroke="#e09594" stroke-width="1.5" stroke-linecap="butt"/><path d="M273.83958,136.58324l0.02063,-0.00553c0,1.75035 0.07687,3.5095 -0.14044,5.24807c-0.44775,3.37789 -2.10081,6.21317 -2.91927,9.487c-0.2849,1.1396 -0.48158,3.02772 -1.59028,3.71493c-1.04221,0.64599 -2.15154,1.24383 -3.34228,1.53648c-0.71779,0.17641 -1.29838,-0.70941 -1.92019,-1.10902c-2.10834,-1.35493 -3.33661,-3.68059 -5.45481,-4.89098c-0.62242,-0.82818 -1.40396,-1.55793 -1.86728,-2.48456c-0.97423,-1.94845 1.79966,-5.01432 2.74807,-6.24421c3.06421,-3.97362 5.86254,-8.07029 11.23842,-8.74228c0,0 1.98456,-0.24807 2.23262,1.73648c0.00296,0.02368 0.00561,0.04711 0.00793,0.0703l0.42173,-0.23645c0,0 0.86568,0.86568 0.56515,1.91974zM269.86524,137.32694c-3.13502,0.95966 -5.0047,3.87124 -7.01854,6.49305c-1.05295,1.37083 -1.71428,1.61857 -2.11383,3.20997c-0.00403,0.01604 -0.00617,0.09478 -0.00806,0.20923c1.71931,1.07565 2.68536,2.67815 4.15391,4.03694c0.36334,0.33618 0.84173,0.62321 1.31668,0.88637c0.19793,-0.16855 0.46554,-0.34143 0.5648,-0.53479c0.19714,-0.38401 0.05503,-0.86631 0.15972,-1.28508c0.77641,-3.10561 2.46888,-5.83877 2.83073,-9.013c0.16556,-1.32448 0.12991,-2.66567 0.11458,-4.00271z" data-paper-data="{&quot;origPos&quot;:null}" fill="#ededed" stroke="none" stroke-width="0.5" stroke-linecap="butt"/></g><g data-paper-data="{&quot;origPos&quot;:null,&quot;index&quot;:null}"><path d="M217.15296,156.96663l-4.75,-12l-1,-8.25l1,-2l3,-1.5l3,-0.25l3.75,1l5.5,2.25l8.5,5.25z" data-paper-data="{&quot;origPos&quot;:null}" fill="#ec8900" stroke="#000000" stroke-width="0" stroke-linecap="round"/><path d="M225.00558,145.57772c0,4.41828 -2.46243,8 -5.5,8c-3.03757,0 -5.5,-3.58172 -5.5,-8c0,-4.41828 -1.03757,-8.75 2,-8.75c3.03757,0 9,4.33172 9,8.75z" fill="#e09594" stroke="#e09594" stroke-width="1.5" stroke-linecap="butt"/><path d="M211.84137,135.1635l0.42173,0.23645c0.00233,-0.02319 0.00498,-0.04662 0.00794,-0.0703c0.24807,-1.98456 2.23262,-1.73648 2.23262,-1.73648c5.37588,0.67199 8.17421,4.76865 11.23842,8.74228c0.94841,1.22989 3.7223,4.29575 2.74807,6.24421c-0.46331,0.92663 -1.24485,1.65637 -1.86728,2.48456c-2.11819,1.2104 -3.34646,3.53605 -5.4548,4.89098c-0.62181,0.39961 -1.2024,1.28543 -1.9202,1.10902c-1.19074,-0.29265 -2.30007,-0.89049 -3.34228,-1.53648c-1.10871,-0.68721 -1.30539,-2.57532 -1.59028,-3.71493c-0.81846,-3.27383 -2.47151,-6.10911 -2.91927,-9.487c-0.21732,-1.73856 -0.14044,-3.49772 -0.14044,-5.24807l0.02063,0.00553c-0.30052,-1.05406 0.56515,-1.91974 0.56515,-1.91974zM215.36514,141.82964c0.36185,3.17423 2.05432,5.90738 2.83073,9.013c0.10469,0.41877 -0.03742,0.90107 0.15972,1.28508c0.09927,0.19336 0.36687,0.36624 0.56481,0.53479c0.47495,-0.26316 0.95334,-0.55019 1.31668,-0.88637c1.46856,-1.35879 2.4346,-2.96129 4.15391,-4.03694c-0.00189,-0.11445 -0.00403,-0.19319 -0.00806,-0.20923c-0.39954,-1.5914 -1.06087,-1.83913 -2.11382,-3.20997c-2.01384,-2.62181 -3.88352,-5.53339 -7.01854,-6.49305c-0.01533,1.33703 -0.05098,2.67823 0.11458,4.00271z" data-paper-data="{&quot;origPos&quot;:null}" fill="#ededed" stroke="none" stroke-width="0.5" stroke-linecap="butt"/></g><path d="M240.21284,159.96663c-1.33053,-1.06443 -1.43461,-3.52499 -3.25,-5c-1.81539,-1.47501 -2.81845,-1.0861 -4.75,-1.5c-1.93155,-0.4139 -3.49337,-0.56703 -5.75,-0.75c-2.25663,-0.18297 -2.1388,-0.13612 -3.5,0c-1.3612,0.13612 -2.51812,0.17637 -4,0.75c-1.48188,0.57363 -2.54052,3.45948 -3.75,2.25c-1.20948,-1.20948 0.4673,-2.81506 1.5,-4.5c1.0327,-1.68494 1.82624,-2.14263 3.25,-3.25c1.42376,-1.10737 1.96801,-1.62735 3.5,-2c1.53199,-0.37265 3.50953,-0.45842 5.75,-0.25c2.24047,0.20842 3.20506,0.33166 5,1.25c1.79494,0.91834 3.28058,2.94266 5.75,4.25c2.46942,1.30734 4.1014,2.29777 7,2.5c2.8986,0.20223 2.39874,-0.69902 3.75,-1.75c1.35126,-1.05098 2.9745,-3.45356 5.25,-5.25c2.2755,-1.79644 2.48862,-1.56818 4.25,-2.25c1.76138,-0.68182 2.10038,-0.66602 3.5,-0.75c1.39962,-0.08398 5.5556,-0.68888 9,0c3.4444,0.68888 3.22947,1.17316 4.75,2.75c1.52053,1.57684 3.65106,3.4033 2,4.25c-1.65106,0.8467 -7.17807,0.16218 -11.75,0.75c-4.57193,0.58782 -3.54163,0.74821 -5.75,1.5c-2.20837,0.75179 -3.78985,1.25325 -6,2.5c-2.21015,1.24675 -2.21901,1.90644 -3.75,3c-1.53099,1.09356 -1.83177,1.5425 -3.25,2c-1.41823,0.4575 -2.73134,0.60107 -4.5,0.5c-1.76866,-0.10107 -2.91947,0.06443 -4.25,-1z" data-paper-data="{&quot;origPos&quot;:null}" fill="#b96000" stroke="#000000" stroke-width="0" stroke-linecap="round"/><g data-paper-data="{&quot;origPos&quot;:null}" stroke="none" stroke-linecap="butt"><path d="M244.37069,159.13336c-1.17904,-1.74673 -1.77197,-5.37486 0,-8c1.77197,-2.62514 4.07776,-1.95887 5.4,0c1.32224,1.95887 1.77704,5.36734 0,8c-1.77704,2.63266 -4.22096,1.74673 -5.4,0z" data-paper-data="{&quot;origPos&quot;:null}" fill="#ec8900" stroke-width="0"/><path d="M253.16076,151.73239c-0.01696,0.16962 -0.04693,0.32333 -0.08758,0.46263c-0.04065,0.1393 0.09751,-1.09497 0.09751,-0.06164c0,1.03333 0,2.06667 0,3.1c0,1.03333 -4.1997,9.10015 -9.4,6.5c-3.39958,-1.69979 -2.6,-7.99144 -2.6,-11c0,-3.00856 0,-2 2,-2c2,0 2,0.13555 2,2c0,1.86445 -0.46876,4.40585 0,6.2c0.46876,1.79415 0.7396,1.29218 1.2047,1.79659c0.4651,0.50441 -0.03437,-0.13727 -0.00471,-0.19659c0.02966,-0.05932 1.73279,-0.06448 2.4253,-0.51565c0.69251,-0.45117 0.42122,-1.93671 0.3747,-2.78435c-0.04652,-0.84764 0,-2.06667 0,-3.1c0,-1.03333 0.84706,-2.45421 2.199,-2.59007c1.35194,-0.13586 1.99007,0.19901 1.79107,2.18909c-0.199,1.99008 0.01697,-0.16963 0.00001,-0.00001z" data-paper-data="{&quot;origPos&quot;:null}" fill="#ca7700" stroke-width="0.5"/></g><g><path d="M219.21979,184.20169c-0.02139,-1.99989 1.18779,-1.91357 1.72522,-1.99645c0.53743,-0.08288 3.26742,-1.31403 5.01721,-1.8973c1.74979,-0.58327 9.02436,-2.10471 10.92605,-2.57885c1.90169,-0.47414 7.4224,-0.10551 8.62916,-0.3881c1.20676,-0.28259 13.98941,1.47733 16.21944,1.87028c2.23003,0.39295 3.12534,0.67924 7.12723,2.68019c4.00189,2.00095 1.78886,0.89443 0.89443,2.68328c-0.89443,1.78885 0.92464,1.07359 -2.68328,1.47942c-3.24737,0.36528 -42.89115,-0.22338 -45.83418,0.12603c-2.94303,0.34941 -1.99989,0.02139 -2.02128,-1.9785z" data-paper-data="{&quot;origPos&quot;:null}" fill="#6f2424" stroke="none" stroke-width="0.5" stroke-linecap="butt"/><path d="M223.57462,184.80564l-3.13043,-8c0,0 1.59606,0.11921 2.61761,0.32352c1.0146,0.20292 2.59978,0.71996 2.59978,0.71996c0,0 1.80234,0.60897 2.95592,1.38278c0.4957,0.33251 1.27017,1.452 1.27017,1.452l1.33913,2.03478z" fill="#ffffff" stroke="#ffffff" stroke-width="0" stroke-linecap="round"/><path d="M261.85279,178.92392c0,0 0.71371,-0.91371 1.17052,-1.37052c0.51675,-0.51675 1.3241,-1.12411 1.3241,-1.12411c0,0 0.94531,-0.42906 1.67837,-0.57567c0.48389,-0.09678 1.43991,-0.04798 1.43991,-0.04798l0.31183,9.66667l-7.7957,-2.80645c0,0 0.46319,-0.92639 0.88767,-1.77535c0.30569,-0.61138 0.9833,-1.96659 0.9833,-1.96659z" fill="#ffffff" stroke="#ffffff" stroke-width="0" stroke-linecap="round"/><path d="M222.46099,185.33815l-0.6863,-2.35915l10.33532,-3.00663l0.6863,2.35915z" fill="url(#color-1)" stroke="none" stroke-width="0" stroke-linecap="butt"/><path d="M257.69545,181.93738l0.8406,-2.30867l10.1142,3.68262l-0.8406,2.30867z" fill="url(#color-2)" stroke="none" stroke-width="0" stroke-linecap="butt"/></g></g></g></g></svg>