<svg version="1.1" xmlns="http://www.w3.org/2000/svg" xmlns:xlink="http://www.w3.org/1999/xlink" width="695.64709" height="73.78105" viewBox="0,0,695.64709,73.78105"><defs><linearGradient x1="323.14408" y1="291.22229" x2="323.72834" y2="336.94847" gradientUnits="userSpaceOnUse" id="color-1"><stop offset="0" stop-color="#c3e060"/><stop offset="1" stop-color="#6de01b"/></linearGradient></defs><g transform="translate(17.04838,-291.21896)"><g data-paper-data="{&quot;isPaintingLayer&quot;:true}" fill-rule="nonzero" stroke-width="2" stroke-linejoin="miter" stroke-miterlimit="10" stroke-dasharray="" stroke-dashoffset="0" style="mix-blend-mode: normal"><path d="M-16.04838,314.00001l693.64709,0.08164v49.91836h-693.64709z" data-paper-data="{&quot;origPos&quot;:null}" fill="#c06520" stroke="#763e13" stroke-linecap="butt"/><path d="M-11.94586,292.66843l671.65786,-0.44881l0.39647,34.29472l-12.72837,-6.47774l-13.91426,10.67564l-15.59051,-10.54831l-12.53015,9.0365l-12.29134,-8.92938l-17.66091,10.69181l-20.2425,-8.89504l-5.94222,9.82469l-19.77418,-8.08049l-15.36099,7.41554l-16.97463,-8.90917l-19.56552,8.25027l-14.19595,-9.73778l-16.71381,9.87118l-19.81592,-9.71353l-19.58637,6.61719l-12.74924,-8.11081l-16.69294,11.50425l-18.35867,-7.2579l-11.1148,9.83485l-19.78454,-8.88491l-19.59686,7.42772l-8.58647,-11.4012l-15.37142,6.59901l-15.56964,-8.91523l-22.33377,11.52856l-24.02044,-10.51193l-13.93511,9.04257l-18.36918,-8.08656l-19.56552,8.25027l-8.56558,-10.57862l-19.55508,9.06681l-23.98915,-8.06231l-6.87889,11.46186l-31.02452,-8.84853l-11.12515,9.03043l-12.79096,-11.37698l-19.54465,9.88336l-18.37963,-8.90311l-5.50519,9.00618l-16.97463,-8.90917l-9.70972,9.84091z" data-paper-data="{&quot;origRot&quot;:0}" fill="url(#color-1)" stroke="#0f6600" stroke-linecap="round"/></g></g></svg>