<svg version="1.1" xmlns="http://www.w3.org/2000/svg" xmlns:xlink="http://www.w3.org/1999/xlink" width="544.33001" height="406.17665" viewBox="0,0,544.33001,406.17665"><defs><linearGradient x1="-3.16501" y1="321.11956" x2="-3.16501" y2="362.03444" gradientUnits="userSpaceOnUse" id="color-1"><stop offset="0" stop-color="#ddb747"/><stop offset="1" stop-color="#af9141"/></linearGradient><linearGradient x1="117.43177" y1="321.11956" x2="117.43177" y2="362.03444" gradientUnits="userSpaceOnUse" id="color-2"><stop offset="0" stop-color="#ddb747"/><stop offset="1" stop-color="#af9141"/></linearGradient><linearGradient x1="236.8104" y1="321.11956" x2="236.8104" y2="362.03444" gradientUnits="userSpaceOnUse" id="color-3"><stop offset="0" stop-color="#ddb747"/><stop offset="1" stop-color="#af9141"/></linearGradient><linearGradient x1="357.40718" y1="321.11956" x2="357.40718" y2="362.03444" gradientUnits="userSpaceOnUse" id="color-4"><stop offset="0" stop-color="#ddb747"/><stop offset="1" stop-color="#af9141"/></linearGradient><linearGradient x1="-4.16501" y1="279.8578" x2="-4.16501" y2="320.77268" gradientUnits="userSpaceOnUse" id="color-5"><stop offset="0" stop-color="#ddb747"/><stop offset="1" stop-color="#af9141"/></linearGradient><linearGradient x1="57.43177" y1="279.8578" x2="57.43177" y2="320.77268" gradientUnits="userSpaceOnUse" id="color-6"><stop offset="0" stop-color="#ddb747"/><stop offset="1" stop-color="#af9141"/></linearGradient><linearGradient x1="176.8104" y1="279.8578" x2="176.8104" y2="320.77268" gradientUnits="userSpaceOnUse" id="color-7"><stop offset="0" stop-color="#ddb747"/><stop offset="1" stop-color="#af9141"/></linearGradient><linearGradient x1="297.40717" y1="279.8578" x2="297.40717" y2="320.77268" gradientUnits="userSpaceOnUse" id="color-8"><stop offset="0" stop-color="#ddb747"/><stop offset="1" stop-color="#af9141"/></linearGradient><linearGradient x1="417.835" y1="279.8578" x2="417.835" y2="320.77268" gradientUnits="userSpaceOnUse" id="color-9"><stop offset="0" stop-color="#ddb747"/><stop offset="1" stop-color="#af9141"/></linearGradient><linearGradient x1="-3.56824" y1="136.8578" x2="-3.56824" y2="175.52994" gradientUnits="userSpaceOnUse" id="color-10"><stop offset="0" stop-color="#ddb747"/><stop offset="1" stop-color="#af9141"/></linearGradient><linearGradient x1="56.99998" y1="150.01292" x2="56.99998" y2="175.52994" gradientUnits="userSpaceOnUse" id="color-11"><stop offset="0" stop-color="#bd9c43"/><stop offset="1" stop-color="#ba9a42"/></linearGradient><linearGradient x1="117.43176" y1="136.8578" x2="117.43176" y2="175.52994" gradientUnits="userSpaceOnUse" id="color-12"><stop offset="0" stop-color="#ddb747"/><stop offset="1" stop-color="#af9141"/></linearGradient><linearGradient x1="177.99999" y1="150.01293" x2="177.99999" y2="175.52994" gradientUnits="userSpaceOnUse" id="color-13"><stop offset="0" stop-color="#bd9c43"/><stop offset="1" stop-color="#ba9a42"/></linearGradient><linearGradient x1="237.43178" y1="136.8578" x2="237.43178" y2="175.52994" gradientUnits="userSpaceOnUse" id="color-14"><stop offset="0" stop-color="#ddb747"/><stop offset="1" stop-color="#af9141"/></linearGradient><linearGradient x1="298" y1="150.01293" x2="298" y2="175.52994" gradientUnits="userSpaceOnUse" id="color-15"><stop offset="0" stop-color="#bd9c43"/><stop offset="1" stop-color="#ba9a42"/></linearGradient><linearGradient x1="357.43177" y1="136.8578" x2="357.43177" y2="175.52994" gradientUnits="userSpaceOnUse" id="color-16"><stop offset="0" stop-color="#ddb747"/><stop offset="1" stop-color="#af9141"/></linearGradient><linearGradient x1="420.00668" y1="150.01293" x2="420.00668" y2="175.52994" gradientUnits="userSpaceOnUse" id="color-17"><stop offset="0" stop-color="#bd9c43"/><stop offset="1" stop-color="#ba9a42"/></linearGradient><linearGradient x1="370.40718" y1="73.8578" x2="370.40718" y2="112.52994" gradientUnits="userSpaceOnUse" id="color-18"><stop offset="0" stop-color="#ddb747"/><stop offset="1" stop-color="#af9141"/></linearGradient><linearGradient x1="310.40717" y1="34.8578" x2="310.40717" y2="73.52993" gradientUnits="userSpaceOnUse" id="color-19"><stop offset="0" stop-color="#ddb747"/><stop offset="1" stop-color="#af9141"/></linearGradient><linearGradient x1="430.835" y1="34.8578" x2="430.835" y2="73.52993" gradientUnits="userSpaceOnUse" id="color-20"><stop offset="0" stop-color="#ddb747"/><stop offset="1" stop-color="#af9141"/></linearGradient><linearGradient x1="310.835" y1="73.8578" x2="310.835" y2="112.52994" gradientUnits="userSpaceOnUse" id="color-21"><stop offset="0" stop-color="#ddb747"/><stop offset="1" stop-color="#af9141"/></linearGradient><linearGradient x1="428.16499" y1="-2.47006" x2="428.16499" y2="-41.1422" gradientUnits="userSpaceOnUse" id="color-22"><stop offset="0" stop-color="#ddb747"/><stop offset="1" stop-color="#af9141"/></linearGradient><linearGradient x1="488.165" y1="36.52994" x2="488.165" y2="-2.1422" gradientUnits="userSpaceOnUse" id="color-23"><stop offset="0" stop-color="#af9141"/><stop offset="1" stop-color="#ddb747"/></linearGradient><linearGradient x1="367.73717" y1="36.52994" x2="367.73717" y2="-2.1422" gradientUnits="userSpaceOnUse" id="color-24"><stop offset="0" stop-color="#af9141"/><stop offset="1" stop-color="#ddb747"/></linearGradient><linearGradient x1="487.73717" y1="-3.47006" x2="487.73717" y2="-42.1422" gradientUnits="userSpaceOnUse" id="color-25"><stop offset="0" stop-color="#ddb747"/><stop offset="1" stop-color="#af9141"/></linearGradient></defs><g transform="translate(5.16501,43.14221)"><g data-paper-data="{&quot;isPaintingLayer&quot;:true}" fill-rule="nonzero" stroke-width="2" stroke-linecap="butt" stroke-linejoin="miter" stroke-miterlimit="10" stroke-dasharray="" stroke-dashoffset="0" style="mix-blend-mode: normal"><path d="M480.0942,111.9701v47h-169.33771c0.02582,-0.75242 0.05194,-1.50483 0.07836,-2.25722c0.26429,-7.52631 1.84418,-34.935 1.01576,-43.89902c0,-0.28237 -0.00468,-0.56365 -0.01397,-0.84376z" data-paper-data="{&quot;origPos&quot;:null}" fill="#dec877" stroke="#ab9a5c"/><path d="M-2.9058,158.97009v-47h150.93613c-0.28377,0.42592 -0.55481,0.86104 -0.81259,1.30483c-0.8002,1.19521 -1.37628,2.3849 -1.84278,3.92306c-0.98607,2.68592 -1.52434,5.58804 -1.52434,8.61587c-0.46404,3.77289 0.37172,7.62086 0,11.40397c-0.15061,1.53283 -1.74856,10.88184 -3.15787,21.75228z" data-paper-data="{&quot;origPos&quot;:null}" fill="#dec877" stroke="#ab9a5c"/><path d="M-3.16501,321.11956h120.33v40.91489h-120.33z" data-paper-data="{&quot;origPos&quot;:null}" fill="url(#color-1)" stroke="#91773e"/><path d="M117.43177,321.11956h120.33v40.91489h-120.33z" data-paper-data="{&quot;origPos&quot;:null}" fill="url(#color-2)" stroke="#91773e"/><path d="M236.8104,321.11956h120.33v40.91489h-120.33z" data-paper-data="{&quot;origPos&quot;:null}" fill="url(#color-3)" stroke="#91773e"/><path d="M357.40718,321.11956h120.33v40.91489h-120.33z" data-paper-data="{&quot;origPos&quot;:null}" fill="url(#color-4)" stroke="#91773e"/><path d="M-4.16501,279.8578h61.33v40.91488h-61.33z" data-paper-data="{&quot;origPos&quot;:null}" fill="url(#color-5)" stroke="#91773e"/><path d="M57.43177,279.8578h120.33v40.91488h-120.33z" data-paper-data="{&quot;origPos&quot;:null}" fill="url(#color-6)" stroke="#91773e"/><path d="M176.8104,279.8578h120.33v40.91488h-120.33z" data-paper-data="{&quot;origPos&quot;:null}" fill="url(#color-7)" stroke="#91773e"/><path d="M297.40717,279.8578h120.33v40.91488h-120.33z" data-paper-data="{&quot;origPos&quot;:null}" fill="url(#color-8)" stroke="#91773e"/><path d="M417.835,279.8578h120.33v40.91488h-120.33z" data-paper-data="{&quot;origPos&quot;:null}" fill="url(#color-9)" stroke="#91773e"/><g data-paper-data="{&quot;origPos&quot;:null}" stroke="#91773e"><path d="M-3.56824,136.8578h120.33v38.67214h-120.33z" data-paper-data="{&quot;origPos&quot;:null}" fill="url(#color-10)"/><path d="M-3.16503,155.7363l60.33,1.67231l-1.05711,17.62504l2.6029,-17.41987l36.92943,-0.67914l19.40974,-6.92173l2.11503,25.51702h-120.33z" data-paper-data="{&quot;origPos&quot;:null}" fill="url(#color-11)"/><path d="M31.0942,156.97009v-20h51v20z" data-paper-data="{&quot;origPos&quot;:null}" fill="#ddb747"/></g><g data-paper-data="{&quot;origPos&quot;:null}" stroke="#91773e"><path d="M117.43176,136.8578h26.45065c-0.00944,0.12007 -0.02001,0.24007 -0.03179,0.36002c-0.22546,2.29451 -3.69406,22.10331 -4.91832,38.31212h-21.50054z" data-paper-data="{&quot;origPos&quot;:null}" fill="url(#color-12)"/><path d="M117.83499,155.7363l23.20069,0.64311c-0.8251,6.11138 -1.63119,12.89872 -2.10339,19.15051h-21.09731z" data-paper-data="{&quot;origPos&quot;:null}" fill="url(#color-13)"/><path d="" data-paper-data="{&quot;origPos&quot;:null}" fill="#ddb747"/></g><g data-paper-data="{&quot;origPos&quot;:null}" stroke="#91773e"><path d="M357.76178,136.8578v38.67214h-47.53047c0.18431,-6.2729 0.38331,-12.54536 0.60354,-18.81706c0.12444,-3.54389 0.54057,-11.496 0.85963,-19.85507z" data-paper-data="{&quot;origPos&quot;:null}" fill="url(#color-14)"/><path d="M336.64022,156.93464l19.40974,-6.92174l2.11503,25.51702h-47.93368c0.17748,-6.04059 0.36859,-12.08077 0.57916,-18.12026z" data-paper-data="{&quot;origPos&quot;:null}" fill="url(#color-15)"/><path d="M323.0942,136.97009v20h-12.26837c0.003,-0.08574 0.00601,-0.17148 0.00903,-0.25722c0.12389,-3.52802 0.53685,-11.42486 0.85534,-19.74278z" data-paper-data="{&quot;origPos&quot;:null}" fill="#ddb747"/></g><g data-paper-data="{&quot;origPos&quot;:null}" stroke="#91773e"><path d="M357.43177,136.8578h124.31664v38.67214h-124.31664z" data-paper-data="{&quot;origPos&quot;:null}" fill="url(#color-16)"/><path d="M357.84835,155.7363l62.32879,1.67231l-1.09213,17.62504l2.68914,-17.41987l38.15293,-0.67914l20.0528,-6.92174l2.1851,25.51702h-124.31664z" data-paper-data="{&quot;origPos&quot;:null}" fill="url(#color-17)"/><path d="M393.2426,156.97009v-20h52.68968v20z" data-paper-data="{&quot;origPos&quot;:null}" fill="#ddb747"/></g><path d="M11.60703,279.9701v-106h25.75642v106z" data-paper-data="{&quot;index&quot;:null}" fill="#c09f43" stroke="#91773e"/><path d="M81.80575,279.9701v-106h7.35898v106z" data-paper-data="{&quot;index&quot;:null}" fill="#c09f43" stroke="#91773e"/><path d="M370.40718,73.8578h116.33v38.67214h-116.33z" fill="url(#color-18)" stroke="#91773e"/><path d="M310.40717,34.8578h120.33v38.67214h-120.33z" fill="url(#color-19)" stroke="#91773e"/><path d="M430.835,34.8578h56.33v38.67214h-56.33z" fill="url(#color-20)" stroke="#91773e"/><path d="M310.835,73.8578h59.33v38.67214h-59.33z" fill="url(#color-21)" stroke="#91773e"/><path d="M428.16499,-2.47006h-116.33v-38.67214h116.33z" data-paper-data="{&quot;index&quot;:null}" fill="url(#color-22)" stroke="#91773e"/><path d="M488.165,36.52994h-120.33v-38.67214h120.33z" data-paper-data="{&quot;index&quot;:null}" fill="url(#color-23)" stroke="#91773e"/><path d="M367.73717,36.52994h-56.33v-38.67214h56.33z" data-paper-data="{&quot;index&quot;:null}" fill="url(#color-24)" stroke="#91773e"/><path d="M487.73717,-3.47006h-59.33v-38.67214h59.33z" data-paper-data="{&quot;index&quot;:null}" fill="url(#color-25)" stroke="#91773e"/></g></g></svg>