<svg version="1.1" xmlns="http://www.w3.org/2000/svg" xmlns:xlink="http://www.w3.org/1999/xlink" width="146.858" height="106.67222" viewBox="0,0,146.858,106.67222"><defs><linearGradient x1="168.22089" y1="130.26046" x2="168.22089" y2="218.75653" gradientUnits="userSpaceOnUse" id="color-1"><stop offset="0" stop-color="#b2b2b2"/><stop offset="1" stop-color="#7f7f7f"/></linearGradient></defs><g transform="translate(-166.57596,-128.76046)"><g data-paper-data="{&quot;isPaintingLayer&quot;:true}" fill-rule="nonzero" stroke-linejoin="miter" stroke-miterlimit="10" stroke-dasharray="" stroke-dashoffset="0" style="mix-blend-mode: normal"><path d="M168.22089,130.26046h143.55822l-7.5557,76.78476l-10.14061,11.71133c0,0 -0.56644,-16.04618 -17.17084,-16.02137c-16.24084,0.02427 -17.90623,16.02137 -17.90623,16.02137h-38.95391c0,0 -1.9982,-16.55245 -18.84866,-16.64965c-16.39591,-0.09458 -16.6062,17.27794 -16.6062,17.27794l-9.29262,-12.43406z" fill="url(#color-1)" stroke="#878787" stroke-width="3" stroke-linecap="round"/><path d="M277.11881,210.11021c2.94116,0 5.60732,1.19406 7.53589,3.12545c1.93142,1.92857 3.12545,4.59453 3.12545,7.53569c0,2.94116 -1.19406,5.60732 -3.12545,7.53589c-1.92857,1.93141 -4.59472,3.12545 -7.53589,3.12545c-2.94116,0 -5.60712,-1.19406 -7.53569,-3.12545c-1.93142,-1.92857 -3.12545,-4.59473 -3.12545,-7.53589c0,-2.94116 1.19406,-5.60711 3.12545,-7.53569c1.92857,-1.93141 4.59453,-3.12545 7.53569,-3.12545z" fill="#969696" stroke="#000000" stroke-width="8" stroke-linecap="butt"/><path d="M201.84063,209.73906c2.94116,0 5.60732,1.19404 7.53589,3.12545c1.93141,1.92857 3.12545,4.59453 3.12545,7.53569c0,2.94116 -1.19404,5.60732 -3.12545,7.53589c-1.92857,1.93141 -4.59473,3.12545 -7.53589,3.12545c-2.94116,0 -5.60711,-1.19404 -7.53569,-3.12545c-1.93141,-1.92857 -3.12545,-4.59473 -3.12545,-7.53589c0,-2.94116 1.19404,-5.60711 3.12545,-7.53569c1.92857,-1.93141 4.59453,-3.12545 7.53569,-3.12545z" fill="#969696" stroke="#000000" stroke-width="8" stroke-linecap="butt"/><path d="M218.37199,171.29142c0,-12.26298 9.94111,-22.20408 22.20408,-22.20408c12.26297,0 22.20407,9.94111 22.20407,22.20408c0,12.26298 -9.94111,22.20407 -22.20407,22.20407c-12.26297,0 -22.20408,-9.94111 -22.20408,-22.20407z" fill="#ffffff" stroke="#b0b0b0" stroke-width="2" stroke-linecap="butt"/><path d="M245.19116,154.38829c6.15533,3.11285 9.32167,4.66927 9.49052,4.66927c0,0.273 -1.2806,2.74413 -3.84744,7.41342h-0.18013c-0.20545,0 -3.15508,-1.39318 -8.84882,-4.17954l-2.89894,3.87277c4.90851,2.35856 10.86681,5.37008 17.88059,9.02895c-3.18321,5.66281 -5.44045,9.42299 -6.77453,11.28901l-14.49191,1.2806c-6.61972,-4.46382 -10.11534,-6.77171 -10.49249,-6.9265v-0.17731c0,-0.47848 1.34251,-2.6766 4.02756,-6.5944h0.33212c1.06106,0.63326 4.38783,2.45425 9.98025,5.46577l3.38585,-3.85024c-10.27858,-5.23217 -15.97233,-8.19022 -17.08407,-8.87415v-0.1548c3.26484,-6.36079 5.0436,-9.58623 5.33631,-9.67066c8.49981,-1.72811 13.22819,-2.59218 14.18512,-2.59218z" fill="#b0b0b0" stroke="none" stroke-width="1" stroke-linecap="butt"/></g></g></svg>