<svg version="1.1" xmlns="http://www.w3.org/2000/svg" xmlns:xlink="http://www.w3.org/1999/xlink" width="30.3" height="30.2"><defs><radialGradient cx="240.0748" cy="179.8739" r="18.8497" gradientUnits="userSpaceOnUse" id="color-1"><stop offset="0" stop-color="#ff3030"/><stop offset="1" stop-color="#ff3030" stop-opacity="0"/></radialGradient></defs><g transform="translate(-225.125,-164.825)"><g data-paper-data="{&quot;isPaintingLayer&quot;:true}" fill="none" fill-rule="nonzero" stroke="none" stroke-width="none" stroke-linecap="none" stroke-linejoin="miter" stroke-miterlimit="10" stroke-dasharray="" stroke-dashoffset="0" font-family="none" font-weight="none" font-size="none" text-anchor="none" style="mix-blend-mode: normal"><path d="M239.9,165.675c3.952,0 7.533,1.605 10.127,4.198c2.593,2.594 4.198,6.175 4.198,10.127c0,3.952 -1.605,7.533 -4.198,10.127c-2.594,2.593 -6.175,4.198 -10.127,4.198c-3.952,0 -7.533,-1.605 -10.127,-4.198c-2.593,-2.594 -4.198,-6.175 -4.198,-10.127c0,-3.952 1.605,-7.533 4.198,-10.127c2.594,-2.593 6.175,-4.198 10.127,-4.198z" data-paper-data="{&quot;origPos&quot;:null}" id="ID0.5567860365845263" fill="url(#color-1)" stroke="none" stroke-width="1" stroke-linecap="butt"/><path d="M243.875,166.025c0,0 2.132,0.746 3.1,1.3c1.119,0.64 2.126,1.365 3.15,2.25c0.876,0.796 1.677,1.736 2.25,2.75c0.763,1.351 1.8,4.3 1.8,4.3" data-paper-data="{&quot;origPos&quot;:null}" id="ID0.861272606998682" fill="none" stroke="#ffffff" stroke-width="2" stroke-linecap="round"/><path d="M226.125,176.425c0,0 1.037,-2.949 1.8,-4.3c0.573,-1.014 1.374,-1.954 2.25,-2.75c1.024,-0.885 2.031,-1.61 3.15,-2.25c0.968,-0.554 3.1,-1.3 3.1,-1.3" data-paper-data="{&quot;origPos&quot;:null}" id="ID0.861272606998682" fill="none" stroke="#ff3030" stroke-width="2" stroke-linecap="round"/><path d="M254.425,183.375c0,0 -1.037,2.949 -1.8,4.3c-0.573,1.014 -1.374,1.954 -2.25,2.75c-1.024,0.885 -2.031,1.61 -3.15,2.25c-0.968,0.554 -3.1,1.3 -3.1,1.3" data-paper-data="{&quot;origPos&quot;:null}" id="ID0.861272606998682" fill="none" stroke="#ffffff" stroke-width="2" stroke-linecap="round"/><path d="M236.525,194.025c0,0 -2.132,-0.746 -3.1,-1.3c-1.119,-0.64 -2.126,-1.365 -3.15,-2.25c-0.876,-0.796 -1.677,-1.736 -2.25,-2.75c-0.763,-1.351 -1.8,-4.3 -1.8,-4.3" data-paper-data="{&quot;origPos&quot;:null}" id="ID0.861272606998682" fill="none" stroke="#ffffff" stroke-width="2" stroke-linecap="round"/><g data-paper-data="{&quot;origPos&quot;:null}" id="ID0.733029002789408" fill="#ffffff" stroke="none" stroke-width="1.26647" stroke-linecap="butt"><path d="M238.8652,174.3289c1.4697,1.2626 2.7958,3.1225 3.626,5.2801c0.8301,2.1576 1.0081,4.2072 0.6277,5.7756c-0.3819,1.5687 -1.3253,2.6567 -2.7367,2.8899c-1.4113,0.2333 -3.029,-0.4313 -4.5002,-1.6937c-1.4696,-1.2626 -2.7957,-3.1224 -3.6259,-5.28c-0.8301,-2.1577 -1.0081,-4.2073 -0.6277,-5.7757c0.3819,-1.5686 1.3253,-2.6566 2.7366,-2.8899c1.4114,-0.2333 3.0291,0.4314 4.5002,1.6937z" id="ID0.841910011600703"/><path d="M245.585,172.7352c1.4113,0.2333 2.3547,1.3213 2.7366,2.8899c0.3804,1.5684 0.2024,3.618 -0.6277,5.7757c-0.8302,2.1576 -2.1563,4.0174 -3.6259,5.28c-1.4712,1.2624 -3.0889,1.927 -4.5002,1.6937c-1.4114,-0.2332 -2.3548,-1.3212 -2.7367,-2.8899c-0.3804,-1.5684 -0.2024,-3.618 0.6277,-5.7756c0.8302,-2.1576 2.1563,-4.0175 3.626,-5.2801c1.4711,-1.2623 3.0888,-1.927 4.5002,-1.6937z" id="ID0.841910011600703"/></g><path d="M238.63,175.9601c1.9541,0.2189 2.9308,0.3566 2.9308,0.4144c0.0235,4.2984 0.0344,7.5858 0.0344,9.8613c0,0.0234 0,0.0461 0,0.0696c-0.0109,0.0226 -0.0227,0.0453 -0.0344,0.0688c1.0119,0.0344 -4.0458,-0.1384 -3.034,-0.1032c0,-0.0235 -0.0117,-0.0352 -0.0344,-0.0352c0.1376,-3.8441 0.2064,-5.8905 0.2064,-6.1376l-1.0345,1.0001c-0.0571,-0.0344 -0.8617,-0.8851 -2.4139,-2.5515c1.2191,-0.9657 2.3451,-1.8274 3.3796,-2.5867z" data-paper-data="{&quot;origPos&quot;:null}" id="path1225" fill="#ff3030" stroke="none" stroke-width="0.20689" stroke-linecap="butt"/></g></g></svg>