<svg version="1.1" xmlns="http://www.w3.org/2000/svg" xmlns:xlink="http://www.w3.org/1999/xlink" width="106" height="137" viewBox="0,0,106,137"><defs><linearGradient x1="10.12341" y1="52.18172" x2="32.94588" y2="52.18172" gradientUnits="userSpaceOnUse" id="color-1"><stop offset="0" stop-color="#d59c00"/><stop offset="1" stop-color="#ffde00"/></linearGradient><linearGradient x1="2.4642" y1="50.09568" x2="12.16984" y2="50.09568" gradientUnits="userSpaceOnUse" id="color-2"><stop offset="0" stop-color="#f7d200"/><stop offset="1" stop-color="#d59c00"/></linearGradient><linearGradient x1="40.97446" y1="50.09568" x2="31.26881" y2="50.09568" gradientUnits="userSpaceOnUse" id="color-3"><stop offset="0" stop-color="#f7d200"/><stop offset="1" stop-color="#d59c00"/></linearGradient></defs><g transform="translate(15.13595,2.38889)"><g data-paper-data="{&quot;isPaintingLayer&quot;:true}" fill-rule="nonzero" stroke-linejoin="miter" stroke-miterlimit="10" stroke-dasharray="" stroke-dashoffset="0" style="mix-blend-mode: normal"><g data-paper-data="{&quot;origPos&quot;:null}" stroke-width="3"><g data-paper-data="{&quot;origPos&quot;:null}" fill="none" stroke-linecap="round"><path d="M16.69482,24.76538l-6.28571,-10.85714h21.71429l-6,10.85715" data-paper-data="{&quot;origPos&quot;:null}" stroke="#ffffff"/><path d="M16.69482,22.47965l-6.28572,-10.85715h21.71429l-6,10.85715" data-paper-data="{&quot;origPos&quot;:null}" stroke="#ff0000"/><path d="M16.40912,20.19394l-6.28572,-10.85715h21.71429l-6,10.85715" data-paper-data="{&quot;origPos&quot;:null}" stroke="#ffffff"/></g><path d="M11.29007,29.18203c0,-5.66092 4.58908,-10.25 10.25,-10.25c5.66092,0 10.25,4.58908 10.25,10.25c0,5.66092 -4.58908,10.25 -10.25,10.25c-5.66092,0 -10.25,-4.58908 -10.25,-10.25z" data-paper-data="{&quot;origPos&quot;:null}" fill="#ffde00" stroke="#d59c00" stroke-linecap="butt"/></g><g data-paper-data="{&quot;origPos&quot;:null}" stroke="#d59c00" stroke-width="3"><path d="M32.03992,70.58448h-21.60785" data-paper-data="{&quot;origPos&quot;:null}" fill="none" stroke-linecap="round"/><path d="M21.54469,58.85445v10.49525" data-paper-data="{&quot;origPos&quot;:null}" fill="none" stroke-linecap="round"/><path d="M10.12341,48.67796c0,-6.30226 5.10898,-3.9893 11.41124,-3.9893c6.30226,0 11.41124,-2.31296 11.41124,3.9893c0,6.30226 -5.10898,11.41124 -11.41124,11.41124c-6.30226,0 -11.41124,-5.10898 -11.41124,-11.41124z" data-paper-data="{&quot;origPos&quot;:null}" fill="url(#color-1)" stroke-linecap="butt"/></g><path d="M-15.13595,134.61111v-137h106v137z" fill="none" stroke="none" stroke-width="0" stroke-linecap="butt"/><path d="M11.99794,55.16075c-0.57368,1.05174 -1.62541,0.47807 -1.62541,0.47807l-0.89433,-0.49087c-2.47785,-1.14494 -6.02857,-2.73338 -6.79693,-5.67637c-1.6007,-6.13102 6.07558,-6.10173 9.11206,-3.10804c0,0 0.84713,0.84714 0,1.69427c-0.84713,0.84713 -1.69426,0 -1.69426,0c-1.20404,-1.22616 -6.18176,-2.72033 -5.11387,0.7558c0.66087,2.15123 3.67589,3.31931 5.49708,4.15883l1.03759,0.56291c0,0 1.05174,0.57367 0.47806,1.62541z" fill="url(#color-2)" stroke="none" stroke-width="0.5" stroke-linecap="butt"/><path d="M31.91877,53.53534l1.03759,-0.56291c1.8212,-0.83953 4.83621,-2.0076 5.49708,-4.15883c1.06788,-3.47613 -3.90982,-1.98196 -5.11386,-0.7558c0,0 -0.84713,0.84714 -1.69427,0c-0.84714,-0.84714 0,-1.69427 0,-1.69427c3.03648,-2.9937 10.71277,-3.02298 9.11207,3.10804c-0.76837,2.943 -4.31909,4.53144 -6.79693,5.67637l-0.89432,0.49087c0,0 -1.05174,0.57368 -1.62542,-0.47807c-0.57368,-1.05174 0.47807,-1.62541 0.47807,-1.62541z" data-paper-data="{&quot;index&quot;:null}" fill="url(#color-3)" stroke="none" stroke-width="0.5" stroke-linecap="butt"/><g fill="none" stroke="#ffffff" stroke-width="2.5"><path d="M8.84081,90.81273c0,-6.81648 5.52586,-12.34234 12.34234,-12.34234c6.81649,0 12.34234,5.52586 12.34234,12.34234c0,6.81649 -5.52585,12.34234 -12.34234,12.34234c-6.81648,0 -12.34234,-5.52585 -12.34234,-12.34234z" stroke-linecap="butt"/><path d="M29.10641,91.48595h-7.62981v-6.73219" stroke-linecap="round"/></g></g></g></svg>