<svg version="1.1" xmlns="http://www.w3.org/2000/svg" xmlns:xlink="http://www.w3.org/1999/xlink" width="749.61577" height="363.63354" viewBox="0,0,749.61577,363.63354"><defs><linearGradient x1="-126.15735" y1="0" x2="-126.15735" y2="360" gradientUnits="userSpaceOnUse" id="color-1"><stop offset="0" stop-color="#87c3ff"/><stop offset="1" stop-color="#82e7ff"/></linearGradient><linearGradient x1="243.25938" y1="211.86335" x2="243.25938" y2="270.55901" gradientUnits="userSpaceOnUse" id="color-2"><stop offset="0" stop-color="#c6f0ff" stop-opacity="0"/><stop offset="1" stop-color="#c6f0ff"/></linearGradient></defs><g transform="translate(126.15735,0)"><g data-paper-data="{&quot;isPaintingLayer&quot;:true}" fill-rule="nonzero" stroke-linejoin="miter" stroke-miterlimit="10" stroke-dasharray="" stroke-dashoffset="0" style="mix-blend-mode: normal"><path d="M-126.15735,0h732.31476v360h-732.31476z" data-paper-data="{&quot;origPos&quot;:null}" fill="url(#color-1)" stroke="none" stroke-width="1" stroke-linecap="butt"/><g fill="none" stroke-width="8" stroke-linecap="round"><path d="M47.00003,282c-39.056,-32.028 111.504,-169.667 199,-172c84.409,-2.889 234.941,126.469 196,160c-60.912,52.442 -338.865,58.034 -395,12z" stroke="#ff3e3e"/><path d="M48.00003,288.6c-39.056,-32.028 111.504,-169.667 199,-172c84.409,-2.889 234.941,126.469 196,160c-60.912,52.442 -338.865,58.034 -395,12z" stroke="#ff9441"/><path d="M48.50003,294.55c-39.056,-32.028 111.504,-169.667 199,-172c84.409,-2.889 234.941,126.469 196,160c-60.912,52.442 -338.865,58.034 -395,12z" stroke="#ffdb41"/><path d="M48.50003,301.05c-39.056,-32.028 111.504,-169.667 199,-172c84.409,-2.889 234.941,126.469 196,160c-60.912,52.442 -338.865,58.034 -395,12z" stroke="#ffff3e"/><path d="M47.50003,307c-39.056,-32.028 111.504,-169.667 199,-172c84.409,-2.889 234.941,126.469 196,160c-60.912,52.442 -338.865,58.034 -395,12z" stroke="#54ff3b"/><path d="M49.50003,314.15c-39.056,-32.028 111.504,-169.667 199,-172c84.409,-2.889 234.941,126.469 196,160c-60.912,52.442 -338.865,58.034 -395,12z" stroke="#41abff"/><path d="M51.50003,321.65c-39.056,-32.028 111.504,-169.667 199,-172c84.409,-2.889 234.941,126.469 196,160c-60.912,52.442 -338.865,58.034 -395,12z" stroke="#7a4eff"/></g><path d="M-122.54728,270.55901v-58.69565h731.61329v58.69565z" fill="url(#color-2)" stroke="none" stroke-width="0" stroke-linecap="butt"/><path d="M-121.34792,363.63354v-94.75155h744.80633v94.75155z" fill="#c6f0ff" stroke="none" stroke-width="0" stroke-linecap="butt"/></g></g></svg>