<svg version="1.1" xmlns="http://www.w3.org/2000/svg" xmlns:xlink="http://www.w3.org/1999/xlink" width="40.98067" height="40.98982" viewBox="0,0,40.98067,40.98982"><g transform="translate(-219.50971,-159.47635)"><g data-paper-data="{&quot;isPaintingLayer&quot;:true}" fill-rule="nonzero" stroke="none" stroke-width="0" stroke-linecap="butt" stroke-linejoin="miter" stroke-miterlimit="10" stroke-dasharray="" stroke-dashoffset="0" style="mix-blend-mode: normal"><path d="M221.63522,197.92636c-1.89392,-1.96637 -2.12544,-6.26422 -2.12544,-6.26422v-23.43616c0,0 0.0283,-4.10183 2.21457,-6.42753c2.08577,-2.21879 7.19294,-2.3221 7.19294,-2.3221h22.77104c0,0 4.26759,0.15457 6.27146,2.02423c2.61533,2.44016 2.53028,5.87386 2.53028,5.87386v25.27091c0,0 -0.10478,3.4944 -2.32786,5.78707c-2.2215,2.29104 -6.17025,2.02423 -6.17025,2.02423h-24.11418c0,0 -3.8523,-0.04859 -6.24256,-2.53029z" fill-opacity="0.00784" fill="#000000"/><path d="M227.87771,165.44916h24.11418c0,0 3.94875,-0.19805 6.17025,1.50264c2.22308,1.70191 2.32786,4.29589 2.32786,4.29589v18.75926c0,0 0.08505,2.54893 -2.53028,4.36033c-2.00387,1.3879 -6.27146,1.50264 -6.27146,1.50264h-22.77104c0,0 -5.10717,-0.07669 -7.19294,-1.72375c-2.18627,-1.72642 -2.21457,-4.77132 -2.21457,-4.77132v-17.39728c0,0 0.23152,-3.19041 2.12544,-4.6501c2.39026,-1.84225 6.24256,-1.87831 6.24256,-1.87831z" data-paper-data="{&quot;index&quot;:null}" fill="#e19a00"/><path d="M221.63515,192.67253c-1.89392,-1.45969 -2.12544,-4.6501 -2.12544,-4.6501v-17.39728c0,0 0.0283,-3.0449 2.21457,-4.77132c2.08577,-1.64706 7.19294,-1.72375 7.19294,-1.72375h22.77104c0,0 4.26759,0.11474 6.27146,1.50264c2.61533,1.8114 2.53028,4.36033 2.53028,4.36033v18.75926c0,0 -0.10478,2.59398 -2.32786,4.29589c-2.2215,1.70069 -6.17025,1.50264 -6.17025,1.50264h-24.11418c0,0 -3.8523,-0.03606 -6.24256,-1.87831z" data-paper-data="{&quot;index&quot;:null}" fill="#ffdb29"/><path d="M245.57183,172.33618c1.5935,0 2.11747,1.43026 2.11747,4.78969c0,3.24038 -0.66531,4.7897 -2.11747,4.7897c-1.45215,0 -2.11748,-1.66834 -2.11748,-4.7897c0,-3.35942 0.52398,-4.7897 2.11748,-4.7897z" data-paper-data="{&quot;index&quot;:null}" fill="#8a6401"/><path d="M234.42813,172.36111c1.5935,0 2.11746,1.43027 2.11746,4.7897c0,3.24038 -0.66531,4.7897 -2.11746,4.7897c-1.45216,0 -2.11748,-1.66834 -2.11748,-4.7897c0,-3.35942 0.52398,-4.7897 2.11748,-4.7897z" data-paper-data="{&quot;index&quot;:null}" fill="#8a6401"/></g></g></svg>