<svg version="1.1" xmlns="http://www.w3.org/2000/svg" xmlns:xlink="http://www.w3.org/1999/xlink" width="393.75533" height="52.1326" viewBox="0,0,393.75533,52.1326"><defs><linearGradient x1="44.61705" y1="155.44635" x2="44.61705" y2="204.59025" gradientUnits="userSpaceOnUse" id="color-1"><stop offset="0" stop-color="#7f00ff"/><stop offset="1" stop-color="#4c0099"/></linearGradient><linearGradient x1="96.18225" y1="165.77295" x2="96.18225" y2="204.59025" gradientUnits="userSpaceOnUse" id="color-2"><stop offset="0" stop-color="#7f00ff"/><stop offset="1" stop-color="#4c0099"/></linearGradient><linearGradient x1="136.85495" y1="166.82155" x2="136.85495" y2="204.59025" gradientUnits="userSpaceOnUse" id="color-3"><stop offset="0" stop-color="#7f00ff"/><stop offset="1" stop-color="#4c0099"/></linearGradient><linearGradient x1="198.55185" y1="166.18935" x2="198.55185" y2="204.59025" gradientUnits="userSpaceOnUse" id="color-4"><stop offset="0" stop-color="#7f00ff"/><stop offset="1" stop-color="#4c0099"/></linearGradient><linearGradient x1="261.60925" y1="155.40975" x2="261.60925" y2="204.59025" gradientUnits="userSpaceOnUse" id="color-5"><stop offset="0" stop-color="#7f00ff"/><stop offset="1" stop-color="#4c0099"/></linearGradient><linearGradient x1="306.81745" y1="166.82155" x2="306.81745" y2="204.59025" gradientUnits="userSpaceOnUse" id="color-6"><stop offset="0" stop-color="#7f00ff"/><stop offset="1" stop-color="#4c0099"/></linearGradient><linearGradient x1="355.20785" y1="166.54155" x2="355.20785" y2="204.59025" gradientUnits="userSpaceOnUse" id="color-7"><stop offset="0" stop-color="#7f00ff"/><stop offset="1" stop-color="#4c0099"/></linearGradient><linearGradient x1="399.05545" y1="166.82155" x2="399.05545" y2="204.59025" gradientUnits="userSpaceOnUse" id="color-8"><stop offset="0" stop-color="#7f00ff"/><stop offset="1" stop-color="#4c0099"/></linearGradient></defs><g transform="translate(-43.27191,-154.04894)"><g data-paper-data="{&quot;isPaintingLayer&quot;:true}" fill="none" fill-rule="nonzero" stroke="#2a0054" stroke-width="2.5" stroke-linecap="butt" stroke-linejoin="miter" stroke-miterlimit="10" stroke-dasharray="" stroke-dashoffset="0" font-family="none" font-weight="none" font-size="none" text-anchor="none" style="mix-blend-mode: normal"><path d="M71.91025,155.44635l15.2742,4.3087l-5.4791,12.5091l-12.2896,-4.3087l-6.5764,6.8471l-0.4902,13.1894l9.3343,4.0819l8.4345,-3.8552l-1.3607,-4.3452l-8.2077,3.4381l-0.2267,-0.4535v-1.8508l-0.2268,-7.2567l20.7168,-2.2677l1.5874,19.9926l-22.7577,9.1148l-19.1294,-7.7542l-5.8961,-21.58l8.888,-15.0475z" data-paper-data="{&quot;origPos&quot;:null}" id="path49" fill="url(#color-1)"/><g data-paper-data="{&quot;origPos&quot;:null}" fill="#0a0500"><path d="M238.97622,180.19031l-0.48212,0.09285l-0.03669,-0.09173l-0.24998,0.24888l-0.25,-0.25l0.95375,-0.21076l0.04716,0.11791z" data-paper-data="{&quot;origPos&quot;:null}"/><path d="M238.57054,179.19988l0.25,-0.25l0.25,0.25l-0.25,0.25z" data-paper-data="{&quot;origPos&quot;:null}"/><path d="M237.43863,179.24704l0.25,-0.25l0.25,0.25l-0.25,0.25z" data-paper-data="{&quot;origPos&quot;:null}"/></g><path d="M101.92465,166.82155l21.9165,3.0798l9.3855,8.866l-4.0819,13.6503l4.0819,9.5244l-11.719,2.4214l-2.1507,-2.8749l-17.4323,3.1017l-5.7424,-15.5376l12.6627,-6.6935l9.561,0.4901l0.2268,-5.0255l-19.5756,1.4338l-0.2268,-0.4902zM109.78855,189.05265l2.4214,8.8441h0.2268l4.7622,-4.0819l0.4901,-4.0453z" data-paper-data="{&quot;origPos&quot;:null}" id="path51" fill="url(#color-2)"/><path d="M178.85915,166.82155l15.9107,7.1836l-2.2312,24.6085l-12.4359,2.7578l-0.7535,-19.3927l-4.1989,0.7242l0.4901,16.4008l0.2268,0.2707l-11.6825,2.4945l-2.9846,-18.4125l-4.7257,1.741l1.5143,15.4206l-12.4359,3.9722l-8.6979,-33.043l14.6671,-3.248l1.7411,7.9371h0.2633l8.9246,-7.9371h0.2634l7.937,5.7059h0.2633z" data-paper-data="{&quot;origPos&quot;:null}" id="path53" fill="url(#color-3)"/><path d="M217.84215,166.24365l21.1191,10.8997l-2.9115,11.8288h-23.8916v0.417l6.6935,8.2808l10.512,-5.3694l4.455,9.3782l-19.8463,2.9115l-15.4205,-10.5121l2.9114,-19.6194zM217.52755,176.00955l-4.0088,6.0131l4.4623,1.5874l6.4667,1.09l1.7776,-2.8676l-2.4579,-3.365z" data-paper-data="{&quot;origPos&quot;:null}" id="path55" fill="url(#color-4)"/><path d="M278.09045,155.40975l16.8983,5.0256l8.0102,15.1206l-8.0102,25.362l-17.125,3.6723l-14.6671,-8.6979l-1.5874,-29.9779zM281.03855,168.44555l-7.0739,7.3372l0.9071,13.9502l4.5794,3.1748l5.7059,-1.8142l4.3452,-14.8572l-2.948,-5.2963z" data-paper-data="{&quot;origPos&quot;:null}" id="path57" fill="url(#color-5)"/><path d="M321.52115,166.82155l9.8682,22.0409l5.3329,-18.4857l14.4403,2.2678v0.2633l-10.8924,29.144l-14.967,2.5384l-18.4857,-27.3737v-0.5267z" data-paper-data="{&quot;origPos&quot;:null}" id="path59" fill="url(#color-6)"/><path d="M375.48575,166.60945l20.1315,10.5339l-2.9115,11.8288h-23.8916v0.417l6.6935,8.2808l10.5047,-5.3694l4.4623,9.3782l-19.8463,2.9115l-15.4205,-10.5121l2.9115,-19.6194zM374.18355,176.00955l-4.0087,6.0131l4.4623,1.5874l6.4593,1.09l1.7777,-2.8676l-2.458,-3.365z" data-paper-data="{&quot;origPos&quot;:null}" id="path61" fill="url(#color-7)"/><path d="M426.19505,166.82155l9.1879,5.4426l-6.5764,12.9699h-0.2634l-5.4059,-4.7256l-6.3862,7.7834l0.7169,14.1769l-12.5164,2.1215l-5.8961,-31.8726l15.8009,-2.3409l1.4411,7.0666z" data-paper-data="{&quot;origPos&quot;:null}" id="path63" fill="url(#color-8)"/></g></g></svg>