<svg version="1.1" xmlns="http://www.w3.org/2000/svg" xmlns:xlink="http://www.w3.org/1999/xlink" width="683.40458" height="418.95794" viewBox="0,0,683.40458,418.95794"><defs><linearGradient x1="-101.20229" y1="180" x2="-30.84294" y2="180" gradientUnits="userSpaceOnUse" id="color-1"><stop offset="0" stop-color="#296cdb" stop-opacity="0"/><stop offset="1" stop-color="#296cdb"/></linearGradient><linearGradient x1="510.77689" y1="180" x2="582.20229" y2="180" gradientUnits="userSpaceOnUse" id="color-2"><stop offset="0" stop-color="#296cdb"/><stop offset="1" stop-color="#296cdb" stop-opacity="0"/></linearGradient><linearGradient x1="240.37564" y1="19.00242" x2="240.37564" y2="-63.06776" gradientUnits="userSpaceOnUse" id="color-3"><stop offset="0" stop-color="#296cdb"/><stop offset="1" stop-color="#296cdb" stop-opacity="0"/></linearGradient><radialGradient cx="435.31994" cy="13.59453" r="77.14154" gradientUnits="userSpaceOnUse" id="color-4"><stop offset="0" stop-color="#296cdb"/><stop offset="1" stop-color="#296cdb" stop-opacity="0"/></radialGradient><radialGradient cx="44.68008" cy="13.59453" r="77.14155" gradientUnits="userSpaceOnUse" id="color-5"><stop offset="0" stop-color="#296cdb"/><stop offset="1" stop-color="#296cdb" stop-opacity="0"/></radialGradient><radialGradient cx="43.96569" cy="180.44074" r="37.3349" gradientUnits="userSpaceOnUse" id="color-6"><stop offset="0" stop-color="#3e91ff"/><stop offset="1" stop-color="#3e91ff" stop-opacity="0"/></radialGradient><linearGradient x1="448.65131" y1="284.29247" x2="448.65131" y2="318.32979" gradientUnits="userSpaceOnUse" id="color-7"><stop offset="0" stop-color="#e6a902"/><stop offset="1" stop-color="#c78602"/></linearGradient><linearGradient x1="444.85894" y1="284.14933" x2="444.85894" y2="318.18665" gradientUnits="userSpaceOnUse" id="color-8"><stop offset="0" stop-color="#ffff00"/><stop offset="1" stop-color="#ffc700"/></linearGradient><linearGradient x1="444.90727" y1="287.90031" x2="444.90727" y2="313.64649" gradientUnits="userSpaceOnUse" id="color-9"><stop offset="0" stop-color="#e6a902"/><stop offset="1" stop-color="#c78602"/></linearGradient><radialGradient cx="445.71863" cy="245.03953" r="25.7559" gradientUnits="userSpaceOnUse" id="color-10"><stop offset="0" stop-color="#fff343"/><stop offset="1" stop-color="#fff343" stop-opacity="0"/></radialGradient><linearGradient x1="445.71859" y1="228.39353" x2="445.71859" y2="262.42863" gradientUnits="userSpaceOnUse" id="color-11"><stop offset="0" stop-color="#ffef10"/><stop offset="1" stop-color="#ffa30a"/></linearGradient><linearGradient x1="445.71863" y1="228.39356" x2="445.71863" y2="262.06623" gradientUnits="userSpaceOnUse" id="color-12"><stop offset="0" stop-color="#e6b609"/><stop offset="1" stop-color="#c37808"/></linearGradient></defs><g transform="translate(101.20229,29.47897)"><g data-paper-data="{&quot;isPaintingLayer&quot;:true}" fill-rule="nonzero" stroke-linejoin="miter" stroke-miterlimit="10" stroke-dasharray="" stroke-dashoffset="0" style="mix-blend-mode: normal"><g stroke="none" stroke-width="0" stroke-linecap="butt"><path d="M-31.84294,389.47897v-418.95794h542.61983v418.95794z" fill="#296cdb"/><path d="M-101.20229,389.47897v-418.95794h70.35935v418.95794z" fill="url(#color-1)"/><path d="M510.77689,389.47897v-418.95794h71.4254v418.95794z" fill="url(#color-2)"/></g><g stroke="none" stroke-linecap="butt"><g><g><g><path d="" data-paper-data="{&quot;index&quot;:null,&quot;origRot&quot;:0}" fill="url(#color-3)" stroke-width="1.89892"/><path d="" data-paper-data="{&quot;index&quot;:null}" fill="url(#color-4)" stroke-width="0"/></g></g></g><path d="" data-paper-data="{&quot;index&quot;:null}" fill="url(#color-5)" stroke-width="0"/><text transform="translate(14.00365,61.0802) scale(0.50924,0.50924)" font-size="22" xml:space="preserve" fill="#a1f4fa" fill-rule="nonzero" stroke="none" stroke-width="1" stroke-linecap="butt" stroke-linejoin="miter" stroke-miterlimit="10" stroke-dasharray="" stroke-dashoffset="0" font-family="&quot;Microsoft YaHei&quot;, &quot;微软雅黑&quot;, STXihei, &quot;华文细黑&quot;" font-weight="400" text-anchor="start" style="mix-blend-mode: normal"><tspan x="0" dy="0">Page 4</tspan></text><text transform="translate(12.54471,87.21422) scale(1.03413,1.03413)" font-size="22" xml:space="preserve" fill="#a1f3f9" fill-rule="nonzero" stroke="none" stroke-width="1" stroke-linecap="butt" stroke-linejoin="miter" stroke-miterlimit="10" stroke-dasharray="" stroke-dashoffset="0" font-family="&quot;Microsoft YaHei&quot;, &quot;微软雅黑&quot;, STXihei, &quot;华文细黑&quot;" font-weight="400" text-anchor="start" style="mix-blend-mode: normal"><tspan x="0" dy="0">UI (User Interface)</tspan></text><text transform="translate(282.69409,31.82308) scale(0.63022,0.63021)" font-size="22" xml:space="preserve" fill="#a1f3f9" fill-rule="nonzero" stroke="none" stroke-width="1" stroke-linecap="butt" stroke-linejoin="miter" stroke-miterlimit="10" stroke-dasharray="" stroke-dashoffset="0" font-family="Sans Serif" font-weight="400" text-anchor="start" style="mix-blend-mode: normal"><tspan x="0" dy="0">Use the arrow keys</tspan><tspan x="0" dy="24.86px">or tap to navigate</tspan></text><path d="M31.18761,13.16804c6.80525,1.71922 10.42277,2.74001 10.85258,3.06237c-2.41766,5.78446 -3.71602,8.74832 -3.89511,8.89159c-0.44772,0 -3.35786,-1.02078 -8.73042,-3.06236c-3.11609,2.90118 -4.67413,4.52191 -4.67413,4.86217c-0.23281,5.37257 -0.34922,8.49761 -0.34922,9.37513c3.72498,1.71922 5.93668,2.68628 6.63512,2.90118c3.47426,-1.50432 5.47106,-2.41765 5.99041,-2.74001l-0.96706,-3.08922c-0.64471,0.35817 -2.58779,1.17301 -5.82923,2.44452l-0.16118,-0.32236v-1.31627c0,-1.12824 -0.05373,-2.84746 -0.16118,-5.15767c0.8417,-0.21491 5.74865,-0.75216 14.72083,-1.61177c0.21491,1.11033 0.59098,5.84714 1.12824,14.21043c-0.28654,0.32236 -5.67701,2.48034 -16.17142,6.47394c-8.93636,-3.25935 -13.46722,-5.09499 -13.59258,-5.50688c-2.79373,-9.70643 -4.1906,-14.81932 -4.1906,-15.33867c3.67126,-6.60825 5.77551,-10.17205 6.31276,-10.6914c0.44771,-0.21491 4.80845,-1.34314 13.0822,-3.38472z" fill="#ffffff" stroke-width="0.26459"/><path d="M62.9126,21.25376l0.18803,0.34922l-3.62648,19.23378h0.18803l9.24081,-2.71315v-10.87944c0.03583,-0.25072 0.15223,-0.37608 0.34922,-0.37608c6.94852,0.48353 10.81676,0.7253 11.60474,0.7253c0,0.12537 0.06268,0.18805 0.18805,0.18805c0,3.06236 -0.96706,9.41094 -2.90118,19.04574c0,0.55517 -2.77583,0.97601 -8.32748,1.26255c-0.28654,-0.34026 -0.5283,-1.06556 -0.72529,-2.17589c-7.10969,1.4506 -11.16598,2.17589 -12.16886,2.17589c-5.67701,-4.22642 -8.51552,-6.4023 -8.51552,-6.52766c0.96706,-12.69716 1.57595,-19.28751 1.82667,-19.77104h0.16119c4.53086,-0.12535 8.70356,-0.30444 12.51808,-0.53726z" fill="#ffffff" stroke-width="0.26459"/><path d="M87.43836,10.48175l10.55709,1.6655c-1.32523,5.06812 -2.1938,7.60218 -2.60569,7.60218c-5.55165,-0.37608 -8.32747,-0.74321 -8.32747,-1.10138v-7.79021c0.05372,-0.25072 0.17907,-0.37608 0.37608,-0.37608zM84.48346,23.26846h0.16118c8.1663,1.48641 12.24944,2.35497 12.24944,2.60569c-2.34602,13.28814 -3.76975,20.69333 -4.27119,22.21556h-8.51551c-0.25072,0 -0.37608,-0.12536 -0.37608,-0.37608z" fill="#ffffff" stroke-width="0.26459"/><path d="M115.0802,13.11432h0.16119c8.09467,0.68052 12.14199,1.20883 12.14199,1.58491l3.57276,31.61754c0,0.23281 -3.57276,0.82379 -10.71827,1.77295l-0.16119,-0.34922v-2.87432c-6.16054,1.6655 -10.38695,2.74001 -12.67925,3.22354c-5.4442,-7.70068 -8.30061,-11.80173 -8.56924,-12.30317c4.01152,-7.28878 6.15158,-10.97794 6.42021,-11.06749l11.25552,0.53725c-0.23281,-1.37896 -0.70738,-5.42629 -1.42373,-12.14199zM110.08372,32.37492c1.80876,5.53374 2.937,8.56924 3.38472,9.1065l5.34571,-4.64727c-0.55517,-3.20563 -0.96706,-4.80845 -1.23569,-4.80845h-7.14552c-0.23281,0.03583 -0.34922,0.15223 -0.34922,0.34922z" fill="#ffffff" stroke-width="0.26459"/><path d="M149.00794,21.2806c8.11257,4.17269 12.60762,6.60825 13.48514,7.30669c-1.16405,5.4442 -1.85354,8.24689 -2.06844,8.40806h-16.9773v0.29549l4.75472,5.88296l7.46786,-3.81452c0.73425,1.2715 1.79085,3.49217 3.16982,6.66199c-0.64471,0.2149 -5.3457,0.90438 -14.10298,2.06844c-7.25296,-4.78158 -10.90631,-7.27087 -10.96004,-7.46787c1.16405,-9.29453 1.85354,-13.9418 2.06844,-13.9418c7.57531,-3.22354 11.96291,-5.02334 13.16278,-5.39943zM147.26187,27.78143c-0.14327,0.35817 -1.09242,1.78189 -2.84746,4.27118c0,0.75216 1.0566,1.12824 3.16982,1.12824c0,0.10746 1.53118,0.36713 4.59354,0.77902c0.8417,-1.16405 1.26255,-1.84458 1.26255,-2.04157c-0.26863,-1.59386 -0.85065,-2.39079 -1.74608,-2.39079z" fill="#ffffff" stroke-width="0.26459"/></g><text transform="translate(14.35952,238.38111) scale(0.66931,0.66931)" font-size="22" xml:space="preserve" fill="#a1f3f9" fill-rule="nonzero" stroke="none" stroke-width="1" stroke-linecap="butt" stroke-linejoin="miter" stroke-miterlimit="10" stroke-dasharray="" stroke-dashoffset="0" font-family="&quot;Microsoft YaHei&quot;, &quot;微软雅黑&quot;, STXihei, &quot;华文细黑&quot;" font-weight="400" text-anchor="start" style="mix-blend-mode: normal"><tspan x="0" dy="0">Star counter: Displays the amount of power stars you</tspan><tspan x="0" dy="26.4px">currently have, you can see your grand star count in the</tspan><tspan x="0" dy="26.4px">castle hub.</tspan><tspan x="0" dy="26.4px">Coin counter: Displays the amount of coins you</tspan><tspan x="0" dy="26.4px">currently have, you can spend them at the Luma Shop, or</tspan><tspan x="0" dy="26.4px">in various other places. You will lose coins if you die.</tspan></text><g><g><path d="M43.33319,153.18803c7.7208,0 14.7168,3.1356 19.7845,8.2014c5.0658,5.0678 8.2014,12.0637 8.2014,19.7845c0,7.7208 -3.1356,14.7168 -8.2014,19.7846c-5.0677,5.0658 -12.0637,8.2014 -19.7845,8.2014c-7.7208,0 -14.7168,-3.1356 -19.7845,-8.2014c-5.0658,-5.0678 -8.2014,-12.0638 -8.2014,-19.7846c0,-7.7208 3.1356,-14.7167 8.2014,-19.7845c5.0677,-5.0658 12.0637,-8.2014 19.7845,-8.2014z" fill="url(#color-6)" stroke="none" stroke-width="1.95364" stroke-linecap="butt"/><path d="M51.05059,153.86815c0,0 4.1651,1.4575 6.0563,2.5398c2.1861,1.2503 4.1534,2.6667 6.1539,4.3957c1.7114,1.5551 3.2763,3.3915 4.3957,5.3725c1.4907,2.6394 3.5166,8.4007 3.5166,8.4007" fill="none" stroke="#64a8ff" stroke-width="3.90729" stroke-linecap="round"/><path d="M16.30088,174.17686c0,0 2.0259,-5.7613 3.5166,-8.4007c1.1194,-1.981 2.6843,-3.8174 4.3957,-5.3725c2.0005,-1.729 3.9678,-3.1454 6.1539,-4.3957c1.8912,-1.0823 6.0563,-2.5398 6.0563,-2.5398" fill="none" stroke="#64a8ff" stroke-width="3.90729" stroke-linecap="round"/><path d="M71.67309,187.69465c0,0 -2.0259,5.7613 -3.5166,8.4007c-1.1194,1.981 -2.6843,3.8174 -4.3957,5.3725c-2.0005,1.729 -3.9678,3.1454 -6.1539,4.3957c-1.8912,1.0823 -6.0563,2.5398 -6.0563,2.5398" fill="none" stroke="#64a8ff" stroke-width="3.90729" stroke-linecap="round"/><path d="M36.72339,208.50335c0,0 -4.1651,-1.4575 -6.0563,-2.5398c-2.1861,-1.2503 -4.1534,-2.6667 -6.1539,-4.3957c-1.7114,-1.5551 -3.2763,-3.3915 -4.3957,-5.3725c-1.4907,-2.6394 -3.5166,-8.4007 -3.5166,-8.4007" fill="none" stroke="#64a8ff" stroke-width="3.90729" stroke-linecap="round"/><g fill="#ffffff" stroke="none" stroke-width="2.47423" stroke-linecap="butt"><path d="M41.24638,170.07255c2.8711,2.4667 5.4619,6.1001 7.0837,10.3154c1.6219,4.2152 1.9696,8.2194 1.2264,11.2835c-0.7461,3.0646 -2.5892,5.1901 -5.3464,5.6459c-2.7573,0.4557 -5.9177,-0.8428 -8.7918,-3.3089c-2.8711,-2.4667 -5.462,-6.1001 -7.0838,-10.3154c-1.6218,-4.2152 -1.9695,-8.2194 -1.2263,-11.2835c0.7461,-3.0646 2.5891,-5.1901 5.3464,-5.6459c2.7573,-0.4557 5.9177,0.8427 8.7918,3.3089z"/><path d="M54.41939,166.96365c2.7573,0.4558 4.6003,2.5813 5.3464,5.6459c0.7432,3.0641 0.3955,7.0683 -1.2263,11.2835c-1.6218,4.2153 -4.2127,7.8487 -7.0838,10.3154c-2.8741,2.4661 -6.0345,3.7646 -8.7918,3.3089c-2.7572,-0.4558 -4.6003,-2.5813 -5.3464,-5.6459c-0.7432,-3.0641 -0.3955,-7.0683 1.2264,-11.2835c1.6218,-4.2153 4.2126,-7.8487 7.0837,-10.3154c2.8741,-2.4662 6.0345,-3.7646 8.7918,-3.3089z"/></g></g><path d="M41.44369,173.54416c0.0451,0 0.0888,0 0.1339,0c3.2829,2.001 5.0522,3.1069 5.3065,3.3175c-6.3025,8.0282 0,0 -6.3025,8.0282c0,0.0662 0,0.1324 0,0.1986l2.9865,-0.2648c0.0436,-1.825 0.0662,-2.9534 0.0662,-3.3837c0.0436,0 0.0662,-0.0226 0.0662,-0.0677c1.4037,-0.0436 2.4434,-0.0662 3.1174,-0.0662c0.2437,0 0.4874,0 0.7297,0c0.2211,0 0.5536,-0.0211 0.996,-0.0662c0.0225,0.0451 0.0436,0.0888 0.0662,0.1324c-0.0888,1.5707 -0.1324,2.4779 -0.1324,2.7202c-0.0452,0 -0.0662,0.0225 -0.0662,0.0677l0.1324,0.0662c-0.2423,0 2.8947,0 2.654,0c0.0887,0.0105 0.1324,0.0541 0.1324,0.1324c-0.1114,1.5481 -0.2212,3.0963 -0.3325,4.6445c-0.0437,0.021 -0.0873,0.0436 -0.1324,0.0662c-0.9058,0 -1.813,0 -2.7202,0c-0.0437,0.4859 -0.1099,1.8355 -0.1986,4.0471c-0.0888,0.0437 -0.155,0.0662 -0.1986,0.0662c-3.2964,-0.0887 -5.0643,-0.1324 -5.308,-0.1324c-0.0226,-0.0451 -0.0451,-0.0887 -0.0662,-0.1339c0,-1.0832 0,-2.1665 0,-3.2497c-2.1891,0.1098 -4.3797,0.2211 -6.5688,0.331c-1.2382,-3.1505 -1.8581,-4.7664 -1.8581,-4.8431c2.4991,-3.8697 4.9981,-7.7408 7.4971,-11.6105z" fill="#3373ff" stroke="none" stroke-width="0.39808" stroke-linecap="butt"/></g><text transform="translate(12.99527,123.78356) scale(0.66931,0.66931)" font-size="22" xml:space="preserve" fill="#a1f3f9" fill-rule="nonzero" stroke="none" stroke-width="1" stroke-linecap="butt" stroke-linejoin="miter" stroke-miterlimit="10" stroke-dasharray="" stroke-dashoffset="0" font-family="&quot;Microsoft YaHei&quot;, &quot;微软雅黑&quot;, STXihei, &quot;华文细黑&quot;" font-weight="400" text-anchor="start" style="mix-blend-mode: normal"><tspan x="0" dy="0">On the top of the screen, you will see various icons</tspan><tspan x="0" dy="26.4px">conveying information.</tspan></text><text transform="translate(83.25447,168.1219) scale(0.66931,0.66931)" font-size="22" xml:space="preserve" fill="#a1f3f9" fill-rule="nonzero" stroke="none" stroke-width="1" stroke-linecap="butt" stroke-linejoin="miter" stroke-miterlimit="10" stroke-dasharray="" stroke-dashoffset="0" font-family="&quot;Microsoft YaHei&quot;, &quot;微软雅黑&quot;, STXihei, &quot;华文细黑&quot;" font-weight="400" text-anchor="start" style="mix-blend-mode: normal"><tspan x="0" dy="0">The health meter, displaying your health.</tspan><tspan x="0" dy="26.4px">If it reaches zero, you will restart from the start</tspan><tspan x="0" dy="26.4px">of the level or a checkpoint.</tspan></text><g stroke="none" stroke-linecap="butt"><path d="M448.65131,284.29247c3.87593,0 7.3877,1.90734 9.93079,4.98818c2.54308,3.08069 4.11746,7.335 4.11746,12.03048c0,4.69532 -1.57439,8.94978 -4.11746,12.03048c-2.54308,3.08084 -6.05486,4.98818 -9.93079,4.98818c-3.87593,0 -7.3877,-1.90734 -9.93079,-4.98818c-2.54308,-3.08069 -4.11746,-7.33514 -4.11746,-12.03048c0,-4.69547 1.57439,-8.94978 4.11746,-12.03048c2.54308,-3.08084 6.05486,-4.98818 9.93079,-4.98818z" data-paper-data="{&quot;origPos&quot;:null}" fill="url(#color-7)" stroke-width="0.44036"/><path d="M444.85894,284.14933c3.87593,0 7.3877,1.90734 9.93079,4.98818c2.54308,3.08069 4.11746,7.335 4.11746,12.03048c0,4.69532 -1.57439,8.94978 -4.11746,12.03048c-2.54308,3.08084 -6.05486,4.98818 -9.93079,4.98818c-3.87593,0 -7.3877,-1.90734 -9.93079,-4.98818c-2.54308,-3.08069 -4.11746,-7.33514 -4.11746,-12.03048c0,-4.69547 1.57439,-8.94978 4.11746,-12.03048c2.54308,-3.08084 6.05486,-4.98818 9.93079,-4.98818z" data-paper-data="{&quot;origPos&quot;:null}" fill="url(#color-8)" stroke-width="0.44036"/><path d="M442.47208,287.90031h4.87037v25.74618h-4.87037z" data-paper-data="{&quot;origPos&quot;:null}" fill="url(#color-9)" stroke-width="0.59798"/></g><g><path d="M451.15307,262.90622c-1.83785,-1.14768 -5.49836,-4.58744 -5.49836,-4.58744c0,0 -4.08343,3.61052 -5.81439,4.73261c-3.96468,2.57008 -7.17523,2.87404 -7.5159,2.39048c-0.42219,-0.59922 -0.19662,-4.87646 0.57167,-8.95149c0.61439,-3.2587 1.28395,-5.65831 1.28395,-5.65831c-2.04685,-1.57905 -3.70248,-2.29464 -5.31649,-3.67871c-3.30261,-2.8321 -4.26098,-6.51949 -3.98007,-7.30796c0.38452,-1.07919 5.40794,-2.21222 13.19933,-2.44279l0.49464,-0.18261c2.64732,-7.59228 5.81477,-12.39507 7.06537,-12.39507c1.16007,0.02052 4.37878,4.77829 7.09896,12.32235l0.38823,0.26889c7.87994,0.24569 13.01788,1.38815 13.43262,2.42923c0.24709,0.62024 -0.81913,4.5735 -4.7283,7.78015c-1.37713,1.12964 -3.07659,1.73766 -4.70466,2.99532c0,0 0.8321,2.67528 1.51603,6.28979c0.77162,4.07805 0.88833,8.08183 0.31555,8.53121c-0.49136,0.3855 -3.98105,-0.14571 -7.80816,-2.53564z" data-paper-data="{&quot;index&quot;:null}" fill="url(#color-10)" stroke="#3f2803" stroke-width="0" stroke-linecap="round"/><path d="M450.14273,259.8109c-1.49617,-0.93431 -4.47615,-3.65641 -4.47615,-3.65641c0,0 -3.32426,2.86111 -4.73342,3.77459c-3.22759,2.09227 -5.84126,2.38074 -6.11859,1.98708c-0.3437,-0.48782 -0.16008,-3.88781 0.46538,-7.20524c0.50018,-2.65286 1.04525,-4.60635 1.04525,-4.60635c-1.66631,-1.28548 -3.01413,-1.86803 -4.32808,-2.99479c-2.68862,-2.30558 -3.87304,-5.30744 -3.64433,-5.94931c0.31303,-0.87856 4.80674,-1.80095 11.14962,-1.98865l0.40269,-0.14866c2.15516,-6.18078 4.73373,-10.62961 5.75182,-10.62961c0.9444,0.01671 3.56472,4.42888 5.77916,10.57041l0.31606,0.21891c6.41495,0.20002 11.0019,1.13008 11.33953,1.97761c0.20115,0.50493 -1.07106,3.72323 -4.25345,6.33371c-1.12109,0.91962 -2.50461,1.41461 -3.83,2.43846c0,0 0.67741,2.17792 1.23418,5.12044c0.62816,3.31989 0.72318,6.49727 0.25687,6.8631c-0.40002,0.31382 -3.24091,-0.15965 -6.35652,-2.10526z" data-paper-data="{&quot;index&quot;:null}" fill="url(#color-11)" stroke="url(#color-12)" stroke-width="1" stroke-linecap="round"/><g stroke="none" stroke-width="2.7674"><path d="M449.00283,241.58231c0.49888,-0.01925 0.99606,0.39373 1.20549,0.90306c0.37995,0.92437 0.42081,2.02643 0.39239,3.05575c-0.01953,0.95009 -0.17045,1.9323 -0.53263,2.78186c-0.20774,0.4986 -0.58229,1.07421 -1.06525,1.06995c-0.46512,-0.00426 -0.86108,-0.36382 -1.11669,-1.01005c-0.32668,-0.81744 -0.48112,-1.79753 -0.48112,-2.94875c0,-1.15129 0.11892,-2.09279 0.48112,-2.94875c0.23786,-0.56495 0.69241,-0.92231 1.11669,-0.90306z" fill="#3f2803" stroke-linecap="round"/><path d="M449.08038,242.18746c0.25747,0 0.49,0.12625 0.65866,0.32951c0.16866,0.20333 0.27345,0.48369 0.27345,0.79394c0,0.31025 -0.10479,0.59061 -0.27345,0.79387c-0.16866,0.20333 -0.4012,0.32958 -0.65866,0.32958c-0.2574,0 -0.48999,-0.12625 -0.65866,-0.32958c-0.16866,-0.20326 -0.27338,-0.4836 -0.27338,-0.79387c0,-0.31025 0.10474,-0.5906 0.27338,-0.79394c0.16866,-0.20326 0.40127,-0.32951 0.65866,-0.32951z" fill="#ffffff" stroke-linecap="butt"/></g><g stroke="none" stroke-width="2.7674"><path d="M442.43111,241.54678c0.49888,-0.01925 0.99606,0.39373 1.20551,0.90306c0.37995,0.92437 0.42081,2.02643 0.3924,3.05575c-0.01953,0.95009 -0.17045,1.9323 -0.53263,2.78186c-0.20774,0.4986 -0.58229,1.07421 -1.06526,1.06995c-0.46512,-0.00426 -0.86108,-0.36382 -1.11669,-1.01005c-0.32668,-0.81744 -0.48112,-1.79752 -0.48112,-2.94875c0,-1.15129 0.11892,-2.09279 0.48112,-2.94876c0.23786,-0.56495 0.69241,-0.92231 1.11669,-0.90306z" fill="#3f2803" stroke-linecap="round"/><path d="M442.54421,242.11643c0.25747,0 0.48999,0.12625 0.65866,0.32951c0.16866,0.20333 0.27346,0.48367 0.27346,0.79394c0,0.31025 -0.10479,0.5906 -0.27346,0.79386c-0.16866,0.20333 -0.40119,0.32958 -0.65866,0.32958c-0.2574,0 -0.49,-0.12625 -0.65866,-0.32958c-0.16866,-0.20326 -0.27338,-0.4836 -0.27338,-0.79386c0,-0.31025 0.10474,-0.5906 0.27338,-0.79394c0.16866,-0.20326 0.40127,-0.32951 0.65866,-0.32951z" fill="#ffffff" stroke-linecap="butt"/></g></g></g></g></svg>