<svg version="1.1" xmlns="http://www.w3.org/2000/svg" xmlns:xlink="http://www.w3.org/1999/xlink" width="439.50807" height="243.12685" viewBox="0,0,439.50807,243.12685"><defs><linearGradient x1="258.68595" y1="293.80368" x2="258.62802" y2="349.80372" gradientUnits="userSpaceOnUse" id="color-1"><stop offset="0" stop-color="#c3e060"/><stop offset="1" stop-color="#6de01b"/></linearGradient><linearGradient x1="101.5927" y1="163.42585" x2="73.46587" y2="211.84989" gradientUnits="userSpaceOnUse" id="color-2"><stop offset="0" stop-color="#c3e060"/><stop offset="1" stop-color="#6de01b"/></linearGradient><linearGradient x1="307.6431" y1="215" x2="307.6431" y2="390.00142" gradientUnits="userSpaceOnUse" id="color-3"><stop offset="0" stop-color="#bee061"/><stop offset="1" stop-color="#4ce01b"/></linearGradient></defs><g transform="translate(-76.80585,-167.87319)"><g data-paper-data="{&quot;isPaintingLayer&quot;:true}" fill-rule="nonzero" stroke-linejoin="miter" stroke-miterlimit="10" stroke-dasharray="" stroke-dashoffset="0" style="mix-blend-mode: normal"><g data-paper-data="{&quot;origPos&quot;:null,&quot;origRot&quot;:0,&quot;index&quot;:null}" stroke-linecap="butt"><path d="M264.87476,319.64122l249.33194,-0.94546l1.33283,47.82515l-249.33185,1.94544z" data-paper-data="{&quot;origPos&quot;:null}" fill="#c06520" stroke="#763e13" stroke-width="1.50655"/><path d="M300.91997,348.06899c-0.69191,-2.67333 0.91436,-5.4014 3.58769,-6.09331c2.67333,-0.69191 5.4014,0.91436 6.09331,3.58769c0.69191,2.67333 -0.91436,5.4014 -3.58769,6.09331c-2.67333,0.69191 -5.4014,-0.91436 -6.09331,-3.58769z" data-paper-data="{&quot;origPos&quot;:null}" fill="#e0bb60" stroke="none" stroke-width="0.5"/><path d="M359.17675,353.65007c-0.69191,-2.67333 0.91436,-5.40141 3.58769,-6.09332c2.67333,-0.69191 5.40141,0.91436 6.09332,3.58769c0.69191,2.67333 -0.91436,5.4014 -3.58769,6.09331c-2.67333,0.69191 -5.40141,-0.91436 -6.09332,-3.58769z" data-paper-data="{&quot;origPos&quot;:null}" fill="#e0bb60" stroke="none" stroke-width="0.5"/><path d="M427.29679,349.4477c-0.69191,-2.67333 0.91436,-5.40141 3.58769,-6.09332c2.67333,-0.69191 5.40141,0.91436 6.09332,3.58769c0.69191,2.67333 -0.91436,5.40141 -3.58769,6.09332c-2.67333,0.69191 -5.4014,-0.91436 -6.09331,-3.58769z" data-paper-data="{&quot;origPos&quot;:null}" fill="#e0bb60" stroke="none" stroke-width="0.5"/><path d="M501.71275,295.10762l-0.07358,43.99987l-9.12323,-8.01142l-10.15958,12.98732l-11.14729,-13.01395l-9.14291,10.98859l-8.78193,-11.01099l-12.86522,12.98394l-14.52386,-11.01815l-4.394,11.99458l-14.19423,-10.01775l-11.17007,8.98605l-12.16397,-11.01523l-14.21492,9.98224l-10.14877,-12.01275l-12.1727,11.98485l-14.20724,-12.01783l-14.21285,7.98224l-9.12117,-10.01142l-12.17478,13.98486l-13.18072,-9.00165l-8.12924,11.97501l-14.19326,-11.00291l-0.15947,0.10057c0.08736,-10.19558 -0.26947,-15.45575 -0.18211,-25.65134c0.02573,-3.00295 1.58445,-7.97409 3.54338,-10.25026c1.41143,-1.64 5.81678,-3.62826 11.47404,-3.58619c16.97176,0.12619 224.81969,-0.32828 224.81969,-0.32828z" data-paper-data="{&quot;origPos&quot;:null,&quot;origRot&quot;:0}" fill="url(#color-1)" stroke="#0f6600" stroke-width="2"/></g><g data-paper-data="{&quot;origRot&quot;:0,&quot;index&quot;:null}" stroke-linecap="butt"><path d="M243.49509,322.36271l-165.65208,-94.0418l22.21631,-39.13352l165.65209,94.04169z" data-paper-data="{&quot;origPos&quot;:null}" fill="#c06520" stroke="#763e13" stroke-width="1.5215"/><path d="M192.95811,285.54503c-2.74264,-0.32152 -4.70535,-2.80553 -4.38382,-5.54817c0.32152,-2.74264 2.80553,-4.70534 5.54817,-4.38382c2.74264,0.32152 4.70534,2.80553 4.38382,5.54817c-0.32152,2.74264 -2.80553,4.70534 -5.54816,4.38382z" data-paper-data="{&quot;origPos&quot;:null}" fill="#e0bb60" stroke="none" stroke-width="0.5"/><path d="M142.35271,253.43439c-2.74264,-0.32152 -4.70535,-2.80553 -4.38382,-5.54816c0.32152,-2.74264 2.80553,-4.70534 5.54817,-4.38382c2.74264,0.32152 4.70534,2.80553 4.38382,5.54816c-0.32152,2.74264 -2.80553,4.70534 -5.54816,4.38382z" data-paper-data="{&quot;origPos&quot;:null}" fill="#e0bb60" stroke="none" stroke-width="0.5"/><path d="M93.56254,231.60505c-2.74264,-0.32152 -4.70534,-2.80553 -4.38382,-5.54816c0.32152,-2.74264 2.80553,-4.70535 5.54817,-4.38382c2.74264,0.32152 4.70534,2.80553 4.38382,5.54817c-0.32152,2.74264 -2.80553,4.70534 -5.54817,4.38382z" data-paper-data="{&quot;origPos&quot;:null}" fill="#e0bb60" stroke="none" stroke-width="0.5"/><path d="M288.64026,325.20763l-0.11504,-13.94247l-16.05443,3.39888l2.01507,-11.54953l-16.93191,2.88947l-6.25726,-17.50839l-14.92885,7.52128l-1.49477,-13.58718l-24.82903,-1.69527l2.64439,-14.65309l-19.93948,-0.01291l-6.75954,-16.64367l-11.7942,8.1848l-7.26181,-15.77896l-16.42963,2.02475l-3.24967,-14.60602l-21.44628,2.58124l-7.00766,-20.25666l-15.17697,3.90831l-5.63394,-12.52129l-12.30671,9.05218l-0.97863,-16.42608c5.58558,-9.78532 5.88332,-10.30691 11.46889,-20.09223c1.48779,-2.60644 4.17454,-5.29612 7.23402,-6.6216c2.75384,-1.19305 6.1358,0.82405 9.69326,2.86003c10.67235,6.10796 197.76696,113.18811 197.76696,113.18811z" data-paper-data="{&quot;origPos&quot;:null,&quot;origRot&quot;:0}" fill="url(#color-2)" stroke="#0f6600" stroke-width="2"/></g><path d="M307.4763,217.00004c26.624,0 50.749,10.813 68.218,28.282c17.469,17.469 28.282,41.594 28.282,68.218c0,26.624 -10.813,50.749 -28.282,68.218c-17.469,17.469 -41.594,28.282 -68.218,28.282c-26.624,0 -50.749,-10.813 -68.218,-28.282c-17.469,-17.469 -28.282,-41.594 -28.282,-68.218c0,-26.624 10.813,-50.749 28.282,-68.218c17.469,-17.469 41.594,-28.282 68.218,-28.282z" fill="#c06520" stroke="#763e13" stroke-width="2" stroke-linecap="butt"/><path d="M350.26245,341.00001c-2.76142,0 -5,-2.23858 -5,-5c0,-2.76142 2.23858,-5 5,-5c2.76142,0 5,2.23858 5,5c0,2.76142 -2.23858,5 -5,5z" data-paper-data="{&quot;index&quot;:null}" fill="#e0bb60" stroke="none" stroke-width="0.5" stroke-linecap="butt"/><path d="M347.26245,280.00001c-2.76142,0 -5,-2.23858 -5,-5c0,-2.76142 2.23858,-5 5,-5c2.76142,0 5,2.23858 5,5c0,2.76142 -2.23858,5 -5,5z" data-paper-data="{&quot;index&quot;:null}" fill="#e0bb60" stroke="none" stroke-width="0.5" stroke-linecap="butt"/><path d="M311.26245,302.00001c-2.76142,0 -5,-2.23858 -5,-5c0,-2.76142 2.23858,-5 5,-5c2.76142,0 5,2.23858 5,5c0,2.76142 -2.23858,5 -5,5z" data-paper-data="{&quot;index&quot;:null}" fill="#e0bb60" stroke="none" stroke-width="0.5" stroke-linecap="butt"/><path d="M279.26245,333.00001c-2.76142,0 -5,-2.23858 -5,-5c0,-2.76142 2.23858,-5 5,-5c2.76142,0 5,2.23858 5,5c0,2.76142 -2.23858,5 -5,5z" data-paper-data="{&quot;index&quot;:null}" fill="#e0bb60" stroke="none" stroke-width="0.5" stroke-linecap="butt"/><path d="M251.26245,295.00001c-2.76142,0 -5,-2.23858 -5,-5c0,-2.76142 2.23858,-5 5,-5c2.76142,0 5,2.23858 5,5c0,2.76142 -2.23858,5 -5,5z" data-paper-data="{&quot;index&quot;:null}" fill="#e0bb60" stroke="none" stroke-width="0.5" stroke-linecap="butt"/><path d="M286.26245,265.00001c-2.76142,0 -5,-2.23858 -5,-5c0,-2.76142 2.23858,-5 5,-5c2.76142,0 5,2.23858 5,5c0,2.76142 -2.23858,5 -5,5z" data-paper-data="{&quot;index&quot;:null}" fill="#e0bb60" stroke="none" stroke-width="0.5" stroke-linecap="butt"/><path d="M306.50004,215c26.624,0 49.935,11.841 68.218,28.282c16.785,15.11 28.428,39.161 30.282,62.718c2.816,28.029 -16.058,83.682 -17,84c-0.948,0.32 7.295,-53.653 3,-80c-3.243,-18.886 -11.474,-38.105 -26,-51c-2.77511,-2.46227 -11.95906,-14.10512 -11.95906,-14.10512l-13.95058,3.92558l-18.09032,-15.64311l-18.00005,13.82266l-17.08442,-9.47323l-13.2311,14.14013l-15.18862,-4.04789l-5.49586,14.38099c0,0 -20.978,28.443 -23,46c-1.654,24.528 11.503,71.59 9.282,71.718c-18.19079,1.03245 -16.86419,-12.66558 -23.23087,-29.73708c-3.85653,-10.3408 -5.05113,-27.44439 -5.05113,-38.48092c0,-26.624 10.813,-50.749 28.282,-68.218c17.469,-17.469 41.594,-28.282 68.218,-28.282z" fill="url(#color-3)" stroke="#006622" stroke-width="2" stroke-linecap="round"/></g></g></svg>