<svg version="1.1" xmlns="http://www.w3.org/2000/svg" xmlns:xlink="http://www.w3.org/1999/xlink" width="579.4777" height="140.78064" viewBox="0,0,579.4777,140.78064"><defs><linearGradient x1="-45.48797" y1="261.08205" x2="-45.48797" y2="322.94174" gradientUnits="userSpaceOnUse" id="color-1"><stop offset="0" stop-color="#ead69e"/><stop offset="1" stop-color="#ccbb8a"/></linearGradient><linearGradient x1="-81.36338" y1="237.48205" x2="-81.36338" y2="306.34175" gradientUnits="userSpaceOnUse" id="color-2"><stop offset="0" stop-color="#ead69e"/><stop offset="1" stop-color="#ccbb8a"/></linearGradient><linearGradient x1="43.40093" y1="300.36334" x2="43.40093" y2="367.57076" gradientUnits="userSpaceOnUse" id="color-3"><stop offset="0" stop-color="#c7a645"/><stop offset="1" stop-color="#ffd559"/></linearGradient><linearGradient x1="118.93262" y1="257.4933" x2="118.93262" y2="298.40004" gradientUnits="userSpaceOnUse" id="color-4"><stop offset="0" stop-color="#ebcd5b"/><stop offset="1" stop-color="#ebcd5b" stop-opacity="0"/></linearGradient><linearGradient x1="-8.99998" y1="232.16191" x2="-8.99998" y2="281.93207" gradientUnits="userSpaceOnUse" id="color-5"><stop offset="0" stop-color="#ebcd5b"/><stop offset="1" stop-color="#ebcd5b" stop-opacity="0"/></linearGradient></defs><g transform="translate(83.86338,-232.1619)"><g data-paper-data="{&quot;isPaintingLayer&quot;:true}" fill-rule="nonzero" stroke-linecap="butt" stroke-linejoin="miter" stroke-miterlimit="10" stroke-dasharray="" stroke-dashoffset="0" style="mix-blend-mode: normal"><path d="M-45.48797,261.08205l535.7914,3.57143v61.8597l-535.7914,-3.57143z" data-paper-data="{&quot;origPos&quot;:null}" fill="url(#color-1)" stroke="#b7a47c" stroke-width="3.78384"/><path d="M-81.36338,237.48205h147.3569v68.8597h-147.3569z" data-paper-data="{&quot;origPos&quot;:null}" fill="url(#color-2)" stroke="#b7a47c" stroke-width="5"/><path d="M-80.09907,300.36334l572,4.36411v67.20742l-572,-4.36411z" data-paper-data="{&quot;origPos&quot;:null}" fill="url(#color-3)" stroke="#8c7531" stroke-width="2"/><path d="M484.25093,263.97147c3.78627,0.05282 7.57412,0.09274 11.3634,0.12152c-0.12597,1.62618 -0.06309,3.27627 -0.3634,4.87848c-0.0289,0.15419 -0.13759,-0.56866 -0.20143,-0.42536c-0.67016,1.50445 -0.7307,4.69209 -0.79857,5.92536c-0.15393,2.79695 0.35485,5.72598 0,8.5c-0.01991,0.15561 -0.13759,-0.56866 -0.20143,-0.42536c-0.38962,0.87466 -0.44997,1.86624 -0.78541,2.76308c-0.36844,1.10533 -1.05113,2.88957 -1.60411,4.49027c-1.19766,1.19634 -2.35539,2.43375 -3.47852,3.69998c-0.18074,-0.0944 -1.07957,0.83016 -1.47754,1.15152c-1.24314,1.00384 -2.25748,2.27534 -3.52407,3.24944c-0.34024,0.26167 -0.75048,0.41115 -1.14426,0.58843c0.33893,-0.18586 0.75522,-0.44954 0.55305,-0.5042c-1.01757,-0.27508 -2,0.66667 -3,1c-2,0.66667 -4,1.33333 -6,2c-0.94231,0.3141 -1.88461,0.6282 -2.82692,0.94231c0.06399,-0.40097 -1.02746,0.04453 -1.51081,0.04453c-0.5,0 -1,0 -1.5,0c-2,0 -329,-3.57143 -331,-3.57143c-6.33333,0 -12.66667,0 -19,0c-0.94453,0 -1.88906,0 -2.8336,0c0.14225,-0.48533 -0.98868,-0.40209 -1.50413,-0.48683c-0.52917,-0.087 -1.06053,-0.15943 -1.59319,-0.22228c-0.6867,-0.36159 -1.37354,-0.72263 -2.06065,-1.08228c-0.68024,-0.70726 -1.53876,-1.11387 -2.51721,-1.30904c-11.92749,-6.15441 -23.99427,-11.58259 -36.99123,-11.89958c-1.0035,-0.07749 -2.00341,-0.12441 -3,-0.14274c0,-8.45242 0,-16.90484 0,-25.35726c0,-0.13363 0.0135,-0.26992 0.02968,-0.40673c30.6702,1.25936 386.34975,6.18697 416.97032,6.47816z" data-paper-data="{&quot;origPos&quot;:null}" fill="url(#color-4)" stroke="#8c7531" stroke-width="0"/><path d="M8.58992,281.90103c-24.382,0.632 -49.18,-8.466 -70.339,-20.501c-8.305,-4.729 -35.282,-24.007 -14,-26c46.93543,-4.39582 94.18579,-3.58426 141.5,-1.83458c0,2.79878 -0.00001,5.59757 -0.00003,8.39635c-0.00003,3.66653 -0.00414,7.33305 -0.00726,10.99958c0.02857,3.64597 -0.9927,7.26691 -0.9927,10.93865c0,0.24492 0,0.48983 0,0.73475c-18.53002,6.17823 -36.62848,16.75392 -56.161,17.26625z" data-paper-data="{&quot;origPos&quot;:null}" fill="url(#color-5)" stroke="#8c7531" stroke-width="0"/></g></g></svg>