<svg version="1.1" xmlns="http://www.w3.org/2000/svg" xmlns:xlink="http://www.w3.org/1999/xlink" width="286.18004" height="115.45732" viewBox="0,0,286.18004,115.45732"><defs><linearGradient x1="262.42723" y1="300.36334" x2="262.42723" y2="367.57077" gradientUnits="userSpaceOnUse" id="color-1"><stop offset="0" stop-color="#c7a645"/><stop offset="1" stop-color="#ffd559"/></linearGradient><linearGradient x1="202.31721" y1="261.08205" x2="202.31721" y2="322.94174" gradientUnits="userSpaceOnUse" id="color-2"><stop offset="0" stop-color="#ead69e"/><stop offset="1" stop-color="#ccbb8a"/></linearGradient><linearGradient x1="237.46803" y1="257.4933" x2="237.46803" y2="298.40004" gradientUnits="userSpaceOnUse" id="color-3"><stop offset="0" stop-color="#ebcd5b"/><stop offset="1" stop-color="#ebcd5b" stop-opacity="0"/></linearGradient></defs><g transform="translate(-200.42529,-257.49331)"><g data-paper-data="{&quot;isPaintingLayer&quot;:true}" fill-rule="nonzero" stroke-linecap="butt" stroke-linejoin="miter" stroke-miterlimit="10" stroke-dasharray="" stroke-dashoffset="0" style="mix-blend-mode: normal"><path d="M202.18321,300.36334l279.02495,4.36411v67.20742l-279.02495,-4.36411z" data-paper-data="{&quot;origPos&quot;:null}" fill="url(#color-1)" stroke="#8c7531" stroke-width="2"/><path d="M202.31721,261.08205l281.49784,3.57143v61.8597l-281.49784,-3.57143z" data-paper-data="{&quot;origPos&quot;:null}" fill="url(#color-2)" stroke="#b7a47c" stroke-width="3.78384"/><path d="M479.08957,263.97148c2.50424,0.05282 5.00953,0.09274 7.51576,0.12152c-0.08332,1.62618 -0.04173,3.27627 -0.24036,4.87848c-0.01912,0.15419 -0.091,-0.56866 -0.13322,-0.42536c-0.44324,1.50445 -0.48329,4.69209 -0.52817,5.92536c-0.10181,2.79695 0.2347,5.72598 0,8.5c-0.01317,0.15561 -0.091,-0.56866 -0.13322,-0.42536c-0.25769,0.87466 -0.29761,1.86624 -0.51947,2.76308c-0.24368,1.10533 -0.69521,2.88957 -1.06096,4.49027c-0.79213,1.19634 -1.55786,2.43375 -2.30069,3.69998c-0.11954,-0.0944 -0.71402,0.83016 -0.97724,1.15152c-0.82222,1.00384 -1.49309,2.27534 -2.33082,3.24944c-0.22503,0.26167 -0.49636,0.41115 -0.75681,0.58843c0.22417,-0.18586 0.4995,-0.44954 0.36579,-0.5042c-0.67302,-0.27508 -1.3228,0.66667 -1.9842,1c-1.3228,0.66667 -2.6456,1.33333 -3.9684,2c-0.62325,0.3141 -1.24648,0.6282 -1.86972,0.94231c0.04233,-0.40097 -0.67956,0.04453 -0.99924,0.04453c-0.3307,0 -0.66139,0 -0.9921,0c-1.3228,0 -217.60061,-3.57143 -218.92341,-3.57143c-4.18887,0 -8.37773,0 -12.5666,0c-0.62471,0 -1.24942,0 -1.87415,0c0.09409,-0.48533 -0.65391,-0.40209 -0.99483,-0.48683c-0.34999,-0.087 -0.70143,-0.15943 -1.05373,-0.22228c-0.45419,-0.36159 -0.90845,-0.72263 -1.36291,-1.08228c-0.44991,-0.70726 -1.01774,-1.11387 -1.66487,-1.30904c-7.88884,-6.15441 -15.86981,-11.58259 -24.466,-11.89958c-0.66371,-0.07749 -1.32505,-0.12441 -1.9842,-0.14274c0,-8.45242 0,-16.90484 0,-25.35726c0,-0.13363 0.00893,-0.26992 0.01963,-0.40673c20.28527,1.25936 255.53173,6.18697 275.78418,6.47816z" data-paper-data="{&quot;origPos&quot;:null}" fill="url(#color-3)" stroke="#8c7531" stroke-width="0"/></g></g></svg>