<svg version="1.1" xmlns="http://www.w3.org/2000/svg" xmlns:xlink="http://www.w3.org/1999/xlink" width="522.65384" height="262.0873" viewBox="0,0,522.65384,262.0873"><defs><linearGradient x1="268" y1="236" x2="281" y2="236" gradientUnits="userSpaceOnUse" id="color-1"><stop offset="0" stop-color="#cc7700"/><stop offset="1" stop-color="#995900"/></linearGradient><radialGradient cx="137.8858" cy="294.0092" r="568.3812" gradientUnits="userSpaceOnUse" id="color-2"><stop offset="0" stop-color="#6681bd"/><stop offset="1" stop-color="#45577f"/></radialGradient><radialGradient cx="105.9781" cy="220.1284" r="335.2474" gradientUnits="userSpaceOnUse" id="color-3"><stop offset="0" stop-color="#45577f"/><stop offset="1" stop-color="#1f283a"/></radialGradient><radialGradient cx="105.97811" cy="218.18883" r="329.25269" gradientUnits="userSpaceOnUse" id="color-4"><stop offset="0" stop-color="#45577f"/><stop offset="1" stop-color="#1f283a"/></radialGradient><linearGradient x1="239" y1="222" x2="239" y2="236" gradientUnits="userSpaceOnUse" id="color-5"><stop offset="0" stop-color="#b2b2b2"/><stop offset="1" stop-color="#666666"/></linearGradient><linearGradient x1="380.5" y1="184" x2="393.5" y2="184" gradientUnits="userSpaceOnUse" id="color-6"><stop offset="0" stop-color="#cc7700"/><stop offset="1" stop-color="#995900"/></linearGradient><linearGradient x1="576.8391" y1="34.3778" x2="585.0194" y2="45.7392" gradientUnits="userSpaceOnUse" id="color-7"><stop offset="0" stop-color="#b2b2b2"/><stop offset="1" stop-color="#666666"/></linearGradient></defs><g transform="translate(41.54367,-103.72725)"><g data-paper-data="{&quot;isPaintingLayer&quot;:true}" fill-rule="nonzero" stroke-linejoin="miter" stroke-miterlimit="10" stroke-dasharray="" stroke-dashoffset="0" style="mix-blend-mode: normal"><path d="M268,236h13v124h-13z" fill="url(#color-1)" stroke="none" stroke-width="1" stroke-linecap="butt"/><path d="M-32.9,242.2702h259.4741v121.5958h-259.4741z" fill="url(#color-2)" stroke="#496087" stroke-width="3.8971" stroke-linecap="butt"/><path d="M98.4587,216.95l137.8456,4l-9.7302,20l-38.0233,20.501l-47.9275,-20.501l-43.7863,29l-46.4891,-30l-45.2247,21.501l-38.0232,-20.501l-7.568,-26z" fill="url(#color-3)" stroke="url(#color-4)" stroke-width="1.60762" stroke-linecap="round"/><path d="M239,222h84v14h-84z" fill="url(#color-5)" stroke="none" stroke-width="1" stroke-linecap="butt"/><path d="M380.5,184h13v176h-13z" data-paper-data="{&quot;origPos&quot;:null}" fill="url(#color-6)" stroke="none" stroke-width="1" stroke-linecap="butt"/><path d="M481.11017,120.55385l-162.21147,116.79225l-8.1802,-11.3615l169.8019,-122.25735z" data-paper-data="{&quot;origPos&quot;:null}" fill="url(#color-7)" stroke="none" stroke-width="2.84956" stroke-linecap="butt"/></g></g></svg>