<svg version="1.1" xmlns="http://www.w3.org/2000/svg" xmlns:xlink="http://www.w3.org/1999/xlink" width="544.9895" height="320.28985" viewBox="0,0,544.9895,320.28985"><defs><radialGradient cx="55.58569" cy="167.6213" r="249.38154" gradientUnits="userSpaceOnUse" id="color-1"><stop offset="0" stop-color="#627cb5"/><stop offset="1" stop-color="#496087"/></radialGradient><radialGradient cx="99.07244" cy="136.8022" r="308.83587" gradientUnits="userSpaceOnUse" id="color-2"><stop offset="0" stop-color="#3f5075"/><stop offset="1" stop-color="#263149"/></radialGradient><radialGradient cx="98.40716" cy="140.13985" r="305.73089" gradientUnits="userSpaceOnUse" id="color-3"><stop offset="0" stop-color="#3f5075"/><stop offset="1" stop-color="#263149"/></radialGradient><radialGradient cx="386.11718" cy="314.14581" r="265.18538" gradientUnits="userSpaceOnUse" id="color-4"><stop offset="0" stop-color="#627cb5"/><stop offset="1" stop-color="#496087"/></radialGradient><radialGradient cx="416.70395" cy="290.59979" r="319.0549" gradientUnits="userSpaceOnUse" id="color-5"><stop offset="0" stop-color="#3f5075"/><stop offset="1" stop-color="#263149"/></radialGradient><radialGradient cx="426.13364" cy="269.83436" r="321.16274" gradientUnits="userSpaceOnUse" id="color-6"><stop offset="0" stop-color="#3f5075"/><stop offset="1" stop-color="#263149"/></radialGradient><radialGradient cx="46.7451" cy="358.6213" r="262.8227" gradientUnits="userSpaceOnUse" id="color-7"><stop offset="0" stop-color="#627cb5"/><stop offset="1" stop-color="#496087"/></radialGradient><radialGradient cx="92.5757" cy="327.8022" r="325.4815" gradientUnits="userSpaceOnUse" id="color-8"><stop offset="0" stop-color="#3f5075"/><stop offset="1" stop-color="#263149"/></radialGradient><radialGradient cx="91.87456" cy="331.13984" r="322.20917" gradientUnits="userSpaceOnUse" id="color-9"><stop offset="0" stop-color="#3f5075"/><stop offset="1" stop-color="#263149"/></radialGradient><radialGradient cx="444.94054" cy="99.22225" r="187.93621" gradientUnits="userSpaceOnUse" id="color-10"><stop offset="0" stop-color="#627cb5"/><stop offset="1" stop-color="#496087"/></radialGradient><radialGradient cx="480.37398" cy="78.0524" r="232.74155" gradientUnits="userSpaceOnUse" id="color-11"><stop offset="0" stop-color="#3f5075"/><stop offset="1" stop-color="#263149"/></radialGradient><radialGradient cx="479.56428" cy="80.69457" r="230.40161" gradientUnits="userSpaceOnUse" id="color-12"><stop offset="0" stop-color="#3f5075"/><stop offset="1" stop-color="#263149"/></radialGradient></defs><g transform="translate(31.49302,-67.09193)"><g data-paper-data="{&quot;isPaintingLayer&quot;:true}" fill-rule="nonzero" stroke-width="1.50655" stroke-linejoin="miter" stroke-miterlimit="10" stroke-dasharray="" stroke-dashoffset="0" style="mix-blend-mode: normal"><g><path d="M-18.4331,165.51491l152.20729,-11.6625l2.33429,41.774l-152.20729,11.6625z" fill="url(#color-1)" stroke="#496087" stroke-linecap="butt"/><path d="M-30.58244,145.17521l172.28386,-8.5823l-7.82353,19.1161l-33.56255,21.1804l-44.70898,-16.3224l-38.36975,29.3958l-43.89182,-25.2218z" fill="url(#color-2)" stroke="url(#color-3)" stroke-linecap="round"/></g><path d="M307.29129,271.5585l193.26517,48.09993l-5.46854,51.9301l-193.26517,-12.06387z" fill="url(#color-4)" stroke="#496087" stroke-linecap="butt"/><path d="M435.17019,290.77928l76.84815,-0.01465l-16.20942,45.74486l-23.36593,-18.30609l-45.25929,21.23513l-40.66562,-33.49908l-45.7191,14.14085l-33.75072,-23.67786l-4.05383,-24.9214l132.17576,19.29825z" fill="url(#color-5)" stroke="url(#color-6)" stroke-linecap="round"/><path d="M-4.26358,344.50289l74.20708,3.83614l59.2043,-3.48662l2.4601,41.774l-133.41138,-0.34952z" fill="url(#color-7)" stroke="#496087" stroke-linecap="butt"/><path d="M4.988,331.67071l132.5143,-4.0778l-8.2452,19.1161l-35.3715,21.1804l-47.1187,-16.3224l-40.4378,29.3958z" fill="url(#color-8)" stroke="url(#color-9)" stroke-linecap="round"/><g><path d="M326.49506,86.28409l178.26595,8.55831l-2.15297,33.9906l-178.26595,-8.55832z" fill="url(#color-10)" stroke="#496087" stroke-linecap="butt"/><path d="M417.79476,73.99916l94.51244,7.568l-7.64188,14.78592l-27.10384,14.23124l-31.94678,-17.06615l-31.46977,20.46083l-30.50406,-24.1938l-32.09932,14.74903l-25.14212,-16.73946l-3.95551,-19.8886l95.35085,6.09298z" fill="url(#color-11)" stroke="url(#color-12)" stroke-linecap="round"/></g></g></g></svg>