<svg version="1.1" xmlns="http://www.w3.org/2000/svg" xmlns:xlink="http://www.w3.org/1999/xlink" width="514.7142" height="244.05305" viewBox="0,0,514.7142,244.05305"><defs><linearGradient x1="273.63295" y1="-2006.00639" x2="273.63295" y2="6384.82925" gradientUnits="userSpaceOnUse" id="color-1"><stop offset="0" stop-color="#519dff"/><stop offset="1" stop-color="#519dff" stop-opacity="0"/></linearGradient><linearGradient x1="416.6" y1="234.2627" x2="416.6" y2="406.0217" gradientUnits="userSpaceOnUse" id="color-2"><stop offset="0" stop-color="#7c5831"/><stop offset="1" stop-color="#95693b"/></linearGradient><linearGradient x1="253" y1="203.33333" x2="253" y2="285" gradientUnits="userSpaceOnUse" id="color-3"><stop offset="0" stop-color="#64e298"/><stop offset="1" stop-color="#60b483"/></linearGradient></defs><g transform="translate(19.7142,-207.44718)"><g data-paper-data="{&quot;isPaintingLayer&quot;:true}" fill-rule="nonzero" stroke-linejoin="miter" stroke-miterlimit="10" stroke-dasharray="" stroke-dashoffset="0" style="mix-blend-mode: normal"><g stroke="#3e7ac6" stroke-linecap="butt"><path d="M0.31766,451.50023l-0.26433,-140.282c0,0 22.0363,6.08272 53.15999,6.02565c31.90187,-0.05849 41.79205,-17.90315 122.39788,-16.35135c89.5458,4.36232 72.54621,15.88726 130.77317,13.38209c59.12647,0.29226 66.62096,-15.47206 110.44409,-15.97366c43.82313,-0.5016 63.13059,13.98689 63.13059,13.98689l0.23705,137.43016z" data-paper-data="{&quot;origPos&quot;:null,&quot;index&quot;:null}" fill="url(#color-1)" stroke-width="0"/><path d="M0.05333,311.21823c0,0 22.0363,6.08272 53.15999,6.02565c31.90187,-0.05849 41.79205,-17.90315 122.39788,-16.35135c89.5458,4.36232 72.54621,15.88726 130.77317,13.38209c59.12647,0.29226 66.62096,-15.47206 110.44409,-15.97366c43.82313,-0.5016 63.13059,13.98689 63.13059,13.98689" data-paper-data="{&quot;origPos&quot;:null,&quot;index&quot;:null}" fill="none" stroke-width="2"/></g><path d="M-19.7142,210h375v25h-375z" data-paper-data="{&quot;origPos&quot;:null}" fill="#95693b" stroke="none" stroke-width="1.42233" stroke-linecap="butt"/><path d="M282.5,212c2.897,0 5.522,1.177 7.423,3.077c1.9,1.901 3.077,4.526 3.077,7.423c0,2.897 -1.177,5.522 -3.077,7.423c-1.901,1.9 -4.526,3.077 -7.423,3.077c-2.897,0 -5.522,-1.177 -7.423,-3.077c-1.9,-1.901 -3.077,-4.526 -3.077,-7.423c0,-2.897 1.177,-5.522 3.077,-7.423c1.901,-1.9 4.526,-3.077 7.423,-3.077z" fill="#bc8d5b" stroke="none" stroke-width="1" stroke-linecap="butt"/><path d="M326,211.5c2.897,0 5.522,1.177 7.423,3.077c1.9,1.901 3.077,4.526 3.077,7.423c0,2.897 -1.177,5.522 -3.077,7.423c-1.901,1.9 -4.526,3.077 -7.423,3.077c-2.897,0 -5.522,-1.177 -7.423,-3.077c-1.9,-1.901 -3.077,-4.526 -3.077,-7.423c0,-2.897 1.177,-5.522 3.077,-7.423c1.901,-1.9 4.526,-3.077 7.423,-3.077z" fill="#bc8d5b" stroke="none" stroke-width="1" stroke-linecap="butt"/><path d="M239.5,212c2.897,0 5.522,1.177 7.423,3.077c1.9,1.901 3.077,4.526 3.077,7.423c0,2.897 -1.177,5.522 -3.077,7.423c-1.901,1.9 -4.526,3.077 -7.423,3.077c-2.897,0 -5.522,-1.177 -7.423,-3.077c-1.9,-1.901 -3.077,-4.526 -3.077,-7.423c0,-2.897 1.177,-5.522 3.077,-7.423c1.901,-1.9 4.526,-3.077 7.423,-3.077z" fill="#bc8d5b" stroke="none" stroke-width="1" stroke-linecap="butt"/><path d="M195,212.5c2.897,0 5.522,1.177 7.423,3.077c1.9,1.901 3.077,4.526 3.077,7.423c0,2.897 -1.177,5.522 -3.077,7.423c-1.901,1.9 -4.526,3.077 -7.423,3.077c-2.897,0 -5.522,-1.177 -7.423,-3.077c-1.9,-1.901 -3.077,-4.526 -3.077,-7.423c0,-2.897 1.177,-5.522 3.077,-7.423c1.901,-1.9 4.526,-3.077 7.423,-3.077z" fill="#bc8d5b" stroke="none" stroke-width="1" stroke-linecap="butt"/><path d="M148.5,212c2.897,0 5.522,1.177 7.423,3.077c1.9,1.901 3.077,4.526 3.077,7.423c0,2.897 -1.177,5.522 -3.077,7.423c-1.901,1.9 -4.526,3.077 -7.423,3.077c-2.897,0 -5.522,-1.177 -7.423,-3.077c-1.9,-1.901 -3.077,-4.526 -3.077,-7.423c0,-2.897 1.177,-5.522 3.077,-7.423c1.901,-1.9 4.526,-3.077 7.423,-3.077z" data-paper-data="{&quot;origPos&quot;:null}" fill="#bc8d5b" stroke="none" stroke-width="1" stroke-linecap="butt"/><path d="M103,211.5c2.897,0 5.522,1.177 7.423,3.077c1.9,1.901 3.077,4.526 3.077,7.423c0,2.897 -1.177,5.522 -3.077,7.423c-1.901,1.9 -4.526,3.077 -7.423,3.077c-2.897,0 -5.522,-1.177 -7.423,-3.077c-1.9,-1.901 -3.077,-4.526 -3.077,-7.423c0,-2.897 1.177,-5.522 3.077,-7.423c1.901,-1.9 4.526,-3.077 7.423,-3.077z" data-paper-data="{&quot;origPos&quot;:null}" fill="#bc8d5b" stroke="none" stroke-width="1" stroke-linecap="butt"/><path d="M56.5,212c2.897,0 5.522,1.177 7.423,3.077c1.9,1.901 3.077,4.526 3.077,7.423c0,2.897 -1.177,5.522 -3.077,7.423c-1.901,1.9 -4.526,3.077 -7.423,3.077c-2.897,0 -5.522,-1.177 -7.423,-3.077c-1.9,-1.901 -3.077,-4.526 -3.077,-7.423c0,-2.897 1.177,-5.522 3.077,-7.423c1.901,-1.9 4.526,-3.077 7.423,-3.077z" data-paper-data="{&quot;origPos&quot;:null}" fill="#bc8d5b" stroke="none" stroke-width="1" stroke-linecap="butt"/><path d="M7.5,212c2.897,0 5.522,1.177 7.423,3.077c1.9,1.901 3.077,4.526 3.077,7.423c0,2.897 -1.177,5.522 -3.077,7.423c-1.901,1.9 -4.526,3.077 -7.423,3.077c-2.897,0 -5.522,-1.177 -7.423,-3.077c-1.9,-1.901 -3.077,-4.526 -3.077,-7.423c0,-2.897 1.177,-5.522 3.077,-7.423c1.901,-1.9 4.526,-3.077 7.423,-3.077z" data-paper-data="{&quot;origPos&quot;:null}" fill="#bc8d5b" stroke="none" stroke-width="1" stroke-linecap="butt"/><g><path d="M482.1,406.0217h-131v-171.759h131z" fill="url(#color-2)" stroke="#663b00" stroke-width="3.31555" stroke-linecap="butt"/><g fill="#b2b2b2" stroke="#7f7f7f" stroke-width="2" stroke-linecap="round"><path d="M388.6773,286.9518c0.2596,-0.6536 0.91,2.1422 2.3055,2.8827c1.2695,0.6738 2.7877,0.7351 4.2043,0.9737c0.7018,0.1182 1.8441,-0.5564 2.134,0.0929c0.5799,1.2987 0.4105,2.9763 -0.1857,4.268c-0.6414,1.3899 -1.8096,2.7794 -3.2743,3.2256c-2.0412,0.6214 -4.3501,0.3063 -6.4019,-0.2787c-1.3198,-0.3768 -2.6843,-1.254 -3.2892,-2.4862c-0.5926,-1.2073 -0.3726,-2.7743 0.0879,-4.0379c0.6661,-1.826 1.3166,-4.4149 3.1713,-4.8995z"/><path d="M378.6013,283.7473c-1.1261,-4.5946 3.2996,-8.317 6.602,-11.047c3.477,-2.8721 8.5052,-4.4809 13.1511,-4.7288c3.1093,-0.1637 6.1524,1.2995 8.3795,3.2936c2.2172,1.9866 4.0039,5.243 3.7642,8.3937c-0.1646,4.678 -0.5386,11.0437 -4.8888,13.4062c-4.4922,2.4357 -10.2438,-1.2156 -15.075,-2.8821c-4.2682,-1.4726 -10.2953,-2.3079 -11.933,-6.4356z"/><path d="M383.1593,291.6538c1.3923,1.0825 3.3252,1.906 3.9157,3.5678c0.5091,1.4316 0.4405,4.2877 -1.0717,4.4344c-2.9828,0.2904 -5.9606,-1.6275 -8.2815,-3.5235c-1.3408,-1.0965 -2.5343,-3.2388 -1.9825,-4.9189c0.6123,-1.3652 2.8628,-1.4618 4.3951,-1.3902c1.1745,0.0542 2.0955,1.1078 2.6626,1.4046z"/><path d="M397.7079,297.7798c0.607,0.2028 2.0048,0.1357 2.8584,0.9444c1.1141,1.0544 2.6051,2.7429 2.0461,4.1308c-0.8279,1.5627 -3.1991,2.1882 -4.9189,1.9825c-2.9755,-0.3575 -6.4224,-1.173 -8.2815,-3.5235c-0.9429,-1.1913 1.0673,-3.2213 2.4519,-3.8472c1.6068,-0.7269 3.5405,0.0947 5.286,0.3472z"/></g><path d="M428.8524,331.4272c1.4868,-3.1498 12.1174,4.6765 17.4163,2.2185c3.6499,-1.6976 3.205,-7.4155 3.6005,-11.3622c0.2262,-2.4142 -2.4395,-5.051 -1.2675,-6.2764c1.1153,-1.1635 4.0436,0.5635 5.5699,1.743c2.0584,1.35 4.5548,3.0987 4.7425,5.5348c0.5162,6.7219 1.7455,14.8379 -2.4738,20.0968c-3.4822,4.3405 -11.2589,5.597 -16.3645,3.3845c-5.8072,-2.5164 -12.8331,-11.9286 -12.7859,-15.5811z" fill="#b2b2b2" stroke="#7f7f7f" stroke-width="2" stroke-linecap="round"/><path d="M351.63713,244l-4.06751,13l-8.13502,21v-23l-0.66836,-1.47885c0.13953,-0.65147 0.23376,-1.31869 0.23376,-2.02115c0,-10.18951 0.77866,-20.24908 0.96177,-30.42531c3.25679,-3.21672 6.79753,-6.39284 10.61937,-8.33128c1.31553,-0.66724 2.72303,-1.39214 4.14979,-2.17357c0.35007,-0.12508 0.69786,-0.26039 1.04257,-0.40959c0.55149,-0.2387 1.38486,-0.41021 1.5,-1c0.00287,-0.01471 0.00355,-0.02829 0.0022,-0.0408c0.22242,-0.13246 0.44425,-0.26629 0.66523,-0.40147c0.34015,0.0061 0.69905,0.02421 1.05907,0.04852v0.23351h3c0.63195,0 1.23651,-0.11724 1.79314,-0.33115c0.17934,-0.06094 0.36397,-0.13308 0.54976,-0.2185l117.90408,1.7123c1.18102,0.62679 2.36669,1.23474 3.47952,1.9976c1.98819,1.36292 2.63381,2.77459 4.11325,4.61325c0.7962,0.98953 2.02523,1.64234 2.62472,2.76203c0.13234,0.24719 -0.65321,-0.72941 -0.70788,-0.4544c-0.29359,1.47668 1.12106,2.797 1.77128,4.15493c0.16435,0.3287 0.32187,0.66595 0.47213,1.0097v0.75422l-3.43424,20v22l-3.43425,-16l-3.43424,-14v20l1.71712,18l-5.15136,-17l-5.15137,-16v22l-3.43424,15l-0.85856,-17l-4.29281,-19l-3.43424,20v20l-5.15137,-16v-21l-4.29281,13l-0.85856,21l-6.00993,-17v-15l-4.29281,17l-2.57568,20l-1.71713,-21l-1.71712,-23l-5.15137,29l-2.57568,12l-3.43425,-22l-0.85856,-13l-1.71712,18l-3.43425,19l-2.57568,-14l-2.57569,-18l-3.43424,17l-4.29281,15l-2.57568,-18v-22l-5.15137,17l-1.71712,16l-5.15137,-10l-0.85856,-17l-6.00993,22v11l-4.67641,-16.5l-3.05063,-16.5l-6.00993,8v17l-3.43425,-27l-4.57595,33l-3.30942,-30l-8.13502,31l2.28341,-21l-3.43425,-13z" data-paper-data="{&quot;origPos&quot;:null,&quot;index&quot;:null}" fill="url(#color-3)" stroke="#20996f" stroke-width="2" stroke-linecap="butt"/></g></g></g></svg>