<svg version="1.1" xmlns="http://www.w3.org/2000/svg" xmlns:xlink="http://www.w3.org/1999/xlink" width="143.7336" height="143.73361" viewBox="0,0,143.7336,143.73361"><defs><linearGradient x1="240" y1="110.13322" x2="240" y2="249.86682" gradientUnits="userSpaceOnUse" id="color-1"><stop offset="0" stop-color="#3c94ed"/><stop offset="1" stop-color="#337fcc"/></linearGradient><radialGradient cx="238.38473" cy="139.72601" r="30.98957" gradientUnits="userSpaceOnUse" id="color-2"><stop offset="0" stop-color="#fff343"/><stop offset="1" stop-color="#fff343" stop-opacity="0"/></radialGradient><linearGradient x1="238.38469" y1="119.69749" x2="238.38469" y2="160.64863" gradientUnits="userSpaceOnUse" id="color-3"><stop offset="0" stop-color="#ffef10"/><stop offset="1" stop-color="#ffa30a"/></linearGradient><linearGradient x1="238.38473" y1="119.69753" x2="238.38473" y2="160.21258" gradientUnits="userSpaceOnUse" id="color-4"><stop offset="0" stop-color="#e6b609"/><stop offset="1" stop-color="#c37808"/></linearGradient><radialGradient cx="203.91067" cy="162.53771" r="30.98958" gradientUnits="userSpaceOnUse" id="color-5"><stop offset="0" stop-color="#fff343"/><stop offset="1" stop-color="#fff343" stop-opacity="0"/></radialGradient><linearGradient x1="203.91062" y1="142.50919" x2="203.91062" y2="183.46032" gradientUnits="userSpaceOnUse" id="color-6"><stop offset="0" stop-color="#ffef10"/><stop offset="1" stop-color="#ffa30a"/></linearGradient><linearGradient x1="203.91067" y1="142.50922" x2="203.91067" y2="183.02428" gradientUnits="userSpaceOnUse" id="color-7"><stop offset="0" stop-color="#e6b609"/><stop offset="1" stop-color="#c37808"/></linearGradient><radialGradient cx="272.70617" cy="161.35345" r="30.98958" gradientUnits="userSpaceOnUse" id="color-8"><stop offset="0" stop-color="#fff343"/><stop offset="1" stop-color="#fff343" stop-opacity="0"/></radialGradient><linearGradient x1="272.70613" y1="141.32493" x2="272.70613" y2="182.27606" gradientUnits="userSpaceOnUse" id="color-9"><stop offset="0" stop-color="#ffef10"/><stop offset="1" stop-color="#ffa30a"/></linearGradient><linearGradient x1="272.70617" y1="141.32496" x2="272.70617" y2="181.84002" gradientUnits="userSpaceOnUse" id="color-10"><stop offset="0" stop-color="#e6b609"/><stop offset="1" stop-color="#c37808"/></linearGradient><radialGradient cx="205.42041" cy="196.27069" r="30.98958" gradientUnits="userSpaceOnUse" id="color-11"><stop offset="0" stop-color="#fff343"/><stop offset="1" stop-color="#fff343" stop-opacity="0"/></radialGradient><linearGradient x1="205.42037" y1="176.24217" x2="205.42037" y2="217.19331" gradientUnits="userSpaceOnUse" id="color-12"><stop offset="0" stop-color="#ffef10"/><stop offset="1" stop-color="#ffa30a"/></linearGradient><linearGradient x1="205.42041" y1="176.24221" x2="205.42041" y2="216.75726" gradientUnits="userSpaceOnUse" id="color-13"><stop offset="0" stop-color="#e6b609"/><stop offset="1" stop-color="#c37808"/></linearGradient><radialGradient cx="273.98053" cy="193.87459" r="30.98958" gradientUnits="userSpaceOnUse" id="color-14"><stop offset="0" stop-color="#fff343"/><stop offset="1" stop-color="#fff343" stop-opacity="0"/></radialGradient><linearGradient x1="273.98049" y1="173.84607" x2="273.98049" y2="214.7972" gradientUnits="userSpaceOnUse" id="color-15"><stop offset="0" stop-color="#ffef10"/><stop offset="1" stop-color="#ffa30a"/></linearGradient><linearGradient x1="273.98053" y1="173.8461" x2="273.98053" y2="214.36116" gradientUnits="userSpaceOnUse" id="color-16"><stop offset="0" stop-color="#e6b609"/><stop offset="1" stop-color="#c37808"/></linearGradient><radialGradient cx="241.19643" cy="218.05075" r="30.98958" gradientUnits="userSpaceOnUse" id="color-17"><stop offset="0" stop-color="#fff343"/><stop offset="1" stop-color="#fff343" stop-opacity="0"/></radialGradient><linearGradient x1="241.19638" y1="198.02223" x2="241.19638" y2="238.97337" gradientUnits="userSpaceOnUse" id="color-18"><stop offset="0" stop-color="#ffef10"/><stop offset="1" stop-color="#ffa30a"/></linearGradient><linearGradient x1="241.19643" y1="198.02226" x2="241.19643" y2="238.53732" gradientUnits="userSpaceOnUse" id="color-19"><stop offset="0" stop-color="#e6b609"/><stop offset="1" stop-color="#c37808"/></linearGradient></defs><g transform="translate(-168.1332,-108.13321)"><g data-paper-data="{&quot;isPaintingLayer&quot;:true}" fill-rule="nonzero" stroke-linejoin="miter" stroke-miterlimit="10" stroke-dasharray="" stroke-dashoffset="0" style="mix-blend-mode: normal"><path d="M240,110.13322c19.2752,0 36.74421,7.8268 49.3899,20.47689c12.64989,12.64569 20.4769,30.11449 20.4769,49.38991c0,19.27542 -7.82701,36.74421 -20.4769,49.38991c-12.64569,12.65009 -30.1147,20.4769 -49.3899,20.4769c-19.27542,0 -36.74442,-7.8268 -49.39012,-20.4769c-12.64989,-12.64569 -20.47668,-30.11449 -20.47668,-49.38991c0,-19.27542 7.82679,-36.74421 20.47668,-49.38991c12.64569,-12.6501 30.11471,-20.47689 49.39012,-20.47689z" data-paper-data="{&quot;origPos&quot;:null}" fill="url(#color-1)" stroke="#23568d" stroke-width="4" stroke-linecap="butt"/><g><path d="M244.92347,161.22327c-2.21131,-1.3809 -6.61565,-5.51962 -6.61565,-5.51962c0,0 -4.9132,4.34418 -6.99589,5.69429c-4.77031,3.09233 -8.63326,3.45806 -9.04316,2.87624c-0.50797,-0.72099 -0.23657,-5.86738 0.68784,-10.77047c0.73924,-3.92087 1.54485,-6.8081 1.54485,-6.8081c-2.46277,-1.89991 -4.45483,-2.76092 -6.39681,-4.42623c-3.97371,-3.40759 -5.12683,-7.84428 -4.78883,-8.79296c0.46265,-1.29848 6.50686,-2.66175 15.88147,-2.93918l0.59515,-0.21972c3.18527,-9.13505 6.99635,-14.91379 8.50107,-14.91379c1.3958,0.02469 5.26857,5.74925 8.5415,14.82629l0.46712,0.32353c9.48117,0.29562 15.66315,1.67022 16.16216,2.92285c0.2973,0.74627 -0.98558,5.50285 -5.6891,9.3611c-1.65697,1.35918 -3.70176,2.09075 -5.66066,3.60398c0,0 1.00118,3.21892 1.82409,7.5679c0.92841,4.90672 1.06885,9.72407 0.37966,10.26477c-0.59121,0.46383 -4.79002,-0.17531 -9.39481,-3.05088z" data-paper-data="{&quot;index&quot;:null}" fill="url(#color-2)" stroke="#3f2803" stroke-width="0" stroke-linecap="round"/><path d="M243.70783,157.49897c-1.8002,-1.12417 -5.38573,-4.3994 -5.38573,-4.3994c0,0 -3.99976,3.44249 -5.69527,4.5416c-3.88345,2.51743 -7.02822,2.86451 -7.36191,2.39087c-0.41354,-0.58694 -0.1926,-4.67783 0.55995,-8.66936c0.60181,-3.19194 1.25765,-5.54238 1.25765,-5.54238c-2.00491,-1.54669 -3.62661,-2.24762 -5.20755,-3.60334c-3.23496,-2.77408 -4.66005,-6.38592 -4.38487,-7.15823c0.37664,-1.05709 5.78349,-2.16691 13.41526,-2.39275l0.48451,-0.17887c2.5931,-7.43673 5.69564,-12.78957 6.92061,-12.78957c1.1363,0.02011 4.28907,5.32884 6.95351,12.71835l0.38029,0.2634c7.71849,0.24067 13.23753,1.35971 13.64376,2.37946c0.24203,0.60753 -1.28871,4.4798 -5.11777,7.62074c-1.34891,1.10649 -3.01354,1.70206 -4.60826,2.93396c0,0 0.81506,2.62047 1.48496,6.16092c0.75581,3.9945 0.87014,7.81753 0.30907,8.25771c-0.48131,0.3776 -3.89948,-0.19209 -7.64818,-2.53305z" data-paper-data="{&quot;index&quot;:null}" fill="url(#color-3)" stroke="url(#color-4)" stroke-width="1" stroke-linecap="round"/><g stroke="none" stroke-width="2.7674"><path d="M242.33629,135.56627c0.60026,-0.02316 1.19846,0.47374 1.45046,1.08657c0.45715,1.1122 0.50632,2.43821 0.47212,3.67668c-0.02351,1.14316 -0.20508,2.32495 -0.64086,3.34715c-0.24995,0.59992 -0.70061,1.29249 -1.28171,1.28736c-0.55964,-0.00512 -1.03606,-0.43775 -1.3436,-1.2153c-0.39306,-0.98355 -0.57889,-2.16279 -0.57889,-3.54794c0,-1.38524 0.14309,-2.51805 0.57889,-3.54794c0.28619,-0.67976 0.8331,-1.10972 1.3436,-1.08656z" fill="#3f2803" stroke-linecap="round"/><path d="M242.42962,136.29439c0.3098,0 0.58957,0.1519 0.79251,0.39647c0.20293,0.24464 0.32901,0.58197 0.32901,0.95526c0,0.3733 -0.12608,0.71063 -0.32901,0.95519c-0.20293,0.24464 -0.48273,0.39655 -0.79251,0.39655c-0.3097,0 -0.58956,-0.15191 -0.7925,-0.39655c-0.20293,-0.24456 -0.32894,-0.58187 -0.32894,-0.95519c0,-0.3733 0.12602,-0.7106 0.32894,-0.95526c0.20293,-0.24456 0.4828,-0.39647 0.7925,-0.39647z" fill="#ffffff" stroke-linecap="butt"/></g><g stroke="none" stroke-width="2.7674"><path d="M234.42919,135.52352c0.60026,-0.02316 1.19846,0.47374 1.45047,1.08657c0.45715,1.1122 0.50633,2.43821 0.47214,3.67668c-0.02351,1.14316 -0.20508,2.32495 -0.64087,3.34715c-0.24995,0.59992 -0.70061,1.29249 -1.28172,1.28736c-0.55964,-0.00512 -1.03606,-0.43775 -1.34361,-1.2153c-0.39306,-0.98355 -0.57889,-2.16277 -0.57889,-3.54794c0,-1.38524 0.14309,-2.51805 0.57889,-3.54796c0.28619,-0.67976 0.83311,-1.10972 1.34361,-1.08657z" fill="#3f2803" stroke-linecap="round"/><path d="M234.56527,136.20892c0.3098,0 0.58956,0.15191 0.79251,0.39648c0.20293,0.24464 0.32903,0.58195 0.32903,0.95526c0,0.3733 -0.12608,0.71061 -0.32903,0.95517c-0.20293,0.24464 -0.48271,0.39655 -0.79251,0.39655c-0.3097,0 -0.58957,-0.15191 -0.79251,-0.39655c-0.20293,-0.24456 -0.32894,-0.58186 -0.32894,-0.95517c0,-0.3733 0.12602,-0.7106 0.32894,-0.95526c0.20293,-0.24456 0.48281,-0.39648 0.79251,-0.39648z" fill="#ffffff" stroke-linecap="butt"/></g></g><g><path d="M210.4494,184.03496c-2.21131,-1.3809 -6.61565,-5.51962 -6.61565,-5.51962c0,0 -4.9132,4.34418 -6.99589,5.69429c-4.77031,3.09233 -8.63326,3.45806 -9.04316,2.87624c-0.50797,-0.72098 -0.23657,-5.86737 0.68784,-10.77047c0.73924,-3.92087 1.54485,-6.8081 1.54485,-6.8081c-2.46277,-1.89991 -4.45483,-2.76092 -6.39681,-4.42623c-3.97371,-3.40759 -5.12683,-7.84428 -4.78883,-8.79296c0.46265,-1.29848 6.50686,-2.66175 15.88147,-2.93918l0.59515,-0.21972c3.18527,-9.13505 6.99635,-14.91379 8.50107,-14.91379c1.3958,0.02469 5.26857,5.74925 8.54149,14.82629l0.46712,0.32353c9.48117,0.29562 15.66315,1.67022 16.16217,2.92285c0.2973,0.74627 -0.98558,5.50285 -5.6891,9.3611c-1.65697,1.35918 -3.70176,2.09075 -5.66066,3.60398c0,0 1.00118,3.21892 1.82409,7.5679c0.92841,4.90672 1.06885,9.72407 0.37966,10.26477c-0.59121,0.46384 -4.79001,-0.17531 -9.39481,-3.05088z" data-paper-data="{&quot;index&quot;:null}" fill="url(#color-5)" stroke="#3f2803" stroke-width="0" stroke-linecap="round"/><path d="M209.23376,180.31066c-1.8002,-1.12417 -5.38573,-4.3994 -5.38573,-4.3994c0,0 -3.99976,3.44249 -5.69527,4.5416c-3.88345,2.51743 -7.02822,2.86451 -7.36191,2.39086c-0.41354,-0.58694 -0.1926,-4.67782 0.55995,-8.66936c0.60181,-3.19194 1.25765,-5.54238 1.25765,-5.54238c-2.00491,-1.54669 -3.62661,-2.24762 -5.20755,-3.60334c-3.23496,-2.77408 -4.66005,-6.38592 -4.38487,-7.15823c0.37664,-1.05709 5.78349,-2.16691 13.41526,-2.39275l0.48451,-0.17887c2.5931,-7.43673 5.69564,-12.78957 6.92061,-12.78957c1.1363,0.02011 4.28907,5.32884 6.95351,12.71835l0.38029,0.2634c7.71849,0.24067 13.23753,1.35971 13.64376,2.37946c0.24203,0.60753 -1.2887,4.4798 -5.11776,7.62074c-1.34891,1.10649 -3.01355,1.70206 -4.60826,2.93396c0,0 0.81505,2.62047 1.48496,6.16092c0.75581,3.9945 0.87014,7.81753 0.30906,8.25771c-0.48131,0.37759 -3.89948,-0.19209 -7.64818,-2.53305z" data-paper-data="{&quot;index&quot;:null}" fill="url(#color-6)" stroke="url(#color-7)" stroke-width="1" stroke-linecap="round"/><g stroke="none" stroke-width="2.7674"><path d="M207.86223,158.37797c0.60026,-0.02316 1.19846,0.47374 1.45045,1.08657c0.45715,1.1122 0.50633,2.43821 0.47212,3.67668c-0.02351,1.14316 -0.20508,2.32495 -0.64086,3.34715c-0.24995,0.59992 -0.70061,1.29249 -1.28171,1.28736c-0.55964,-0.00512 -1.03606,-0.43775 -1.34361,-1.2153c-0.39306,-0.98355 -0.57889,-2.16279 -0.57889,-3.54794c0,-1.38524 0.14309,-2.51805 0.57889,-3.54794c0.2862,-0.67976 0.8331,-1.10972 1.34361,-1.08656z" fill="#3f2803" stroke-linecap="round"/><path d="M207.95556,159.10608c0.3098,0 0.58958,0.1519 0.79251,0.39647c0.20293,0.24464 0.32901,0.58197 0.32901,0.95526c0,0.3733 -0.12608,0.71063 -0.32901,0.95519c-0.20293,0.24464 -0.48272,0.39655 -0.79251,0.39655c-0.3097,0 -0.58956,-0.15191 -0.7925,-0.39655c-0.20293,-0.24456 -0.32894,-0.58187 -0.32894,-0.95519c0,-0.3733 0.12602,-0.7106 0.32894,-0.95526c0.20293,-0.24456 0.4828,-0.39647 0.7925,-0.39647z" fill="#ffffff" stroke-linecap="butt"/></g><g stroke="none" stroke-width="2.7674"><path d="M199.95512,158.33521c0.60026,-0.02316 1.19846,0.47374 1.45047,1.08657c0.45715,1.1122 0.50632,2.43821 0.47213,3.67668c-0.02351,1.14316 -0.20508,2.32495 -0.64087,3.34715c-0.24995,0.59992 -0.70061,1.29249 -1.28172,1.28736c-0.55964,-0.00512 -1.03606,-0.43775 -1.34361,-1.2153c-0.39306,-0.98355 -0.57889,-2.16277 -0.57889,-3.54794c0,-1.38524 0.14309,-2.51805 0.57889,-3.54796c0.28619,-0.67976 0.83311,-1.10972 1.34361,-1.08657z" fill="#3f2803" stroke-linecap="round"/><path d="M200.0912,159.02062c0.3098,0 0.58956,0.15191 0.79251,0.39648c0.20293,0.24464 0.32903,0.58195 0.32903,0.95526c0,0.3733 -0.12608,0.71061 -0.32903,0.95517c-0.20293,0.24464 -0.48271,0.39655 -0.79251,0.39655c-0.3097,0 -0.58958,-0.15191 -0.79251,-0.39655c-0.20293,-0.24456 -0.32894,-0.58186 -0.32894,-0.95517c0,-0.3733 0.12602,-0.7106 0.32894,-0.95526c0.20293,-0.24456 0.4828,-0.39648 0.79251,-0.39648z" fill="#ffffff" stroke-linecap="butt"/></g></g><g><path d="M279.24491,182.8507c-2.21131,-1.3809 -6.61565,-5.51963 -6.61565,-5.51963c0,0 -4.9132,4.34418 -6.99588,5.69429c-4.77031,3.09233 -8.63327,3.45806 -9.04316,2.87624c-0.50797,-0.72098 -0.23658,-5.86737 0.68784,-10.77047c0.73924,-3.92087 1.54485,-6.8081 1.54485,-6.8081c-2.46278,-1.89991 -4.45483,-2.76092 -6.39681,-4.42623c-3.97371,-3.40759 -5.12683,-7.84428 -4.78883,-8.79296c0.46265,-1.29848 6.50686,-2.66175 15.88147,-2.93918l0.59515,-0.21972c3.18527,-9.13505 6.99635,-14.91379 8.50107,-14.91379c1.3958,0.02469 5.26857,5.74925 8.54149,14.82629l0.46712,0.32353c9.48117,0.29562 15.66315,1.67022 16.16217,2.92285c0.2973,0.74627 -0.98558,5.50285 -5.6891,9.3611c-1.65697,1.35918 -3.70176,2.09075 -5.66066,3.60398c0,0 1.00118,3.21892 1.82409,7.5679c0.92841,4.90672 1.06885,9.72407 0.37966,10.26477c-0.59121,0.46384 -4.79001,-0.17531 -9.39481,-3.05088z" data-paper-data="{&quot;index&quot;:null}" fill="url(#color-8)" stroke="#3f2803" stroke-width="0" stroke-linecap="round"/><path d="M278.02927,179.1264c-1.8002,-1.12417 -5.38573,-4.3994 -5.38573,-4.3994c0,0 -3.99976,3.4425 -5.69527,4.5416c-3.88345,2.51743 -7.02822,2.86451 -7.36191,2.39086c-0.41354,-0.58694 -0.1926,-4.67782 0.55995,-8.66936c0.60181,-3.19194 1.25765,-5.54238 1.25765,-5.54238c-2.00491,-1.54669 -3.62661,-2.24762 -5.20756,-3.60334c-3.23495,-2.77408 -4.66005,-6.38592 -4.38487,-7.15823c0.37664,-1.05709 5.78349,-2.16691 13.41526,-2.39275l0.48451,-0.17887c2.5931,-7.43673 5.69564,-12.78957 6.92061,-12.78957c1.1363,0.02011 4.28907,5.32884 6.95351,12.71835l0.38029,0.2634c7.71849,0.24067 13.23753,1.35971 13.64376,2.37946c0.24203,0.60753 -1.2887,4.4798 -5.11776,7.62074c-1.34891,1.10649 -3.01355,1.70206 -4.60826,2.93396c0,0 0.81505,2.62047 1.48496,6.16092c0.75581,3.9945 0.87014,7.81753 0.30906,8.25771c-0.48131,0.37759 -3.89948,-0.19209 -7.64818,-2.53305z" data-paper-data="{&quot;index&quot;:null}" fill="url(#color-9)" stroke="url(#color-10)" stroke-width="1" stroke-linecap="round"/><g stroke="none" stroke-width="2.7674"><path d="M276.65773,157.19371c0.60026,-0.02316 1.19846,0.47374 1.45045,1.08657c0.45715,1.1122 0.50633,2.43821 0.47212,3.67668c-0.02351,1.14316 -0.20508,2.32495 -0.64086,3.34715c-0.24995,0.59992 -0.70061,1.29249 -1.28171,1.28736c-0.55964,-0.00512 -1.03606,-0.43775 -1.34361,-1.2153c-0.39306,-0.98355 -0.57889,-2.16279 -0.57889,-3.54794c0,-1.38524 0.14309,-2.51805 0.57889,-3.54794c0.2862,-0.67976 0.8331,-1.10972 1.34361,-1.08656z" fill="#3f2803" stroke-linecap="round"/><path d="M276.75106,157.92182c0.3098,0 0.58958,0.1519 0.79251,0.39647c0.20293,0.24464 0.32901,0.58197 0.32901,0.95526c0,0.3733 -0.12608,0.71063 -0.32901,0.95519c-0.20293,0.24464 -0.48272,0.39655 -0.79251,0.39655c-0.3097,0 -0.58956,-0.15191 -0.7925,-0.39655c-0.20293,-0.24456 -0.32894,-0.58187 -0.32894,-0.95519c0,-0.3733 0.12602,-0.7106 0.32894,-0.95526c0.20293,-0.24456 0.4828,-0.39647 0.7925,-0.39647z" fill="#ffffff" stroke-linecap="butt"/></g><g stroke="none" stroke-width="2.7674"><path d="M268.75063,157.15095c0.60026,-0.02316 1.19846,0.47374 1.45047,1.08657c0.45715,1.1122 0.50632,2.43821 0.47213,3.67668c-0.02351,1.14316 -0.20508,2.32495 -0.64087,3.34715c-0.24995,0.59992 -0.70061,1.29249 -1.28172,1.28736c-0.55964,-0.00512 -1.03606,-0.43775 -1.34361,-1.2153c-0.39306,-0.98355 -0.57889,-2.16277 -0.57889,-3.54794c0,-1.38524 0.14309,-2.51805 0.57889,-3.54796c0.2862,-0.67976 0.83311,-1.10972 1.34361,-1.08657z" fill="#3f2803" stroke-linecap="round"/><path d="M268.88671,157.83636c0.3098,0 0.58956,0.15191 0.79251,0.39648c0.20293,0.24464 0.32903,0.58195 0.32903,0.95526c0,0.3733 -0.12608,0.71061 -0.32903,0.95517c-0.20293,0.24464 -0.48271,0.39655 -0.79251,0.39655c-0.3097,0 -0.58958,-0.15191 -0.79251,-0.39655c-0.20293,-0.24456 -0.32894,-0.58186 -0.32894,-0.95517c0,-0.3733 0.12602,-0.7106 0.32894,-0.95526c0.20293,-0.24456 0.4828,-0.39648 0.79251,-0.39648z" fill="#ffffff" stroke-linecap="butt"/></g></g><g><path d="M211.95915,217.76795c-2.21131,-1.3809 -6.61565,-5.51962 -6.61565,-5.51962c0,0 -4.9132,4.34418 -6.99589,5.69429c-4.77031,3.09233 -8.63326,3.45806 -9.04316,2.87624c-0.50797,-0.72098 -0.23657,-5.86738 0.68784,-10.77047c0.73924,-3.92087 1.54485,-6.8081 1.54485,-6.8081c-2.46277,-1.89991 -4.45483,-2.76092 -6.39681,-4.42623c-3.97371,-3.40759 -5.12683,-7.84428 -4.78883,-8.79296c0.46265,-1.29848 6.50686,-2.66175 15.88147,-2.93918l0.59515,-0.21972c3.18527,-9.13505 6.99635,-14.91379 8.50107,-14.91379c1.3958,0.02469 5.26857,5.74925 8.54149,14.82629l0.46712,0.32353c9.48117,0.29562 15.66315,1.67022 16.16217,2.92285c0.2973,0.74627 -0.98558,5.50285 -5.6891,9.3611c-1.65697,1.35918 -3.70176,2.09075 -5.66066,3.60398c0,0 1.00118,3.21892 1.82409,7.5679c0.92841,4.90672 1.06885,9.72407 0.37966,10.26477c-0.59121,0.46384 -4.79002,-0.17531 -9.39481,-3.05088z" data-paper-data="{&quot;index&quot;:null}" fill="url(#color-11)" stroke="#3f2803" stroke-width="0" stroke-linecap="round"/><path d="M210.74351,214.04365c-1.8002,-1.12417 -5.38573,-4.3994 -5.38573,-4.3994c0,0 -3.99976,3.44249 -5.69527,4.5416c-3.88345,2.51743 -7.02822,2.86451 -7.36191,2.39087c-0.41354,-0.58694 -0.1926,-4.67783 0.55995,-8.66936c0.60181,-3.19194 1.25765,-5.54238 1.25765,-5.54238c-2.00491,-1.54669 -3.62661,-2.24762 -5.20755,-3.60334c-3.23496,-2.77408 -4.66005,-6.38592 -4.38487,-7.15823c0.37664,-1.05709 5.78349,-2.16691 13.41526,-2.39275l0.48451,-0.17887c2.5931,-7.43673 5.69564,-12.78957 6.92061,-12.78957c1.1363,0.02011 4.28907,5.32884 6.95351,12.71835l0.38028,0.2634c7.71849,0.24067 13.23753,1.35971 13.64376,2.37946c0.24203,0.60753 -1.2887,4.4798 -5.11776,7.62074c-1.34891,1.10649 -3.01355,1.70206 -4.60826,2.93396c0,0 0.81506,2.62047 1.48496,6.16092c0.75581,3.9945 0.87014,7.81753 0.30907,8.25771c-0.48131,0.3776 -3.89948,-0.19209 -7.64819,-2.53305z" data-paper-data="{&quot;index&quot;:null}" fill="url(#color-12)" stroke="url(#color-13)" stroke-width="1" stroke-linecap="round"/><g stroke="none" stroke-width="2.7674"><path d="M209.37197,192.11095c0.60026,-0.02316 1.19846,0.47374 1.45045,1.08657c0.45715,1.1122 0.50633,2.43821 0.47212,3.67668c-0.02351,1.14316 -0.20508,2.32495 -0.64086,3.34715c-0.24995,0.59992 -0.70061,1.29249 -1.28171,1.28736c-0.55964,-0.00512 -1.03606,-0.43775 -1.34361,-1.2153c-0.39306,-0.98355 -0.57889,-2.16279 -0.57889,-3.54794c0,-1.38524 0.14309,-2.51805 0.57889,-3.54794c0.2862,-0.67976 0.8331,-1.10972 1.34361,-1.08656z" fill="#3f2803" stroke-linecap="round"/><path d="M209.4653,192.83907c0.3098,0 0.58957,0.1519 0.79251,0.39647c0.20293,0.24464 0.32901,0.58197 0.32901,0.95526c0,0.3733 -0.12608,0.71063 -0.32901,0.95519c-0.20293,0.24464 -0.48272,0.39655 -0.79251,0.39655c-0.3097,0 -0.58956,-0.15191 -0.79251,-0.39655c-0.20293,-0.24456 -0.32894,-0.58187 -0.32894,-0.95519c0,-0.3733 0.12602,-0.7106 0.32894,-0.95526c0.20293,-0.24456 0.4828,-0.39647 0.79251,-0.39647z" fill="#ffffff" stroke-linecap="butt"/></g><g stroke="none" stroke-width="2.7674"><path d="M201.46487,192.0682c0.60026,-0.02316 1.19846,0.47374 1.45047,1.08657c0.45715,1.1122 0.50633,2.43821 0.47214,3.67668c-0.02351,1.14316 -0.20508,2.32495 -0.64087,3.34715c-0.24995,0.59992 -0.70061,1.29249 -1.28172,1.28736c-0.55964,-0.00512 -1.03606,-0.43775 -1.34361,-1.2153c-0.39306,-0.98355 -0.57889,-2.16277 -0.57889,-3.54794c0,-1.38524 0.14309,-2.51805 0.57889,-3.54796c0.28619,-0.67976 0.83311,-1.10972 1.34361,-1.08657z" fill="#3f2803" stroke-linecap="round"/><path d="M201.60095,192.7536c0.3098,0 0.58956,0.15191 0.79251,0.39648c0.20293,0.24464 0.32903,0.58195 0.32903,0.95526c0,0.3733 -0.12608,0.71061 -0.32903,0.95517c-0.20293,0.24464 -0.48271,0.39655 -0.79251,0.39655c-0.3097,0 -0.58957,-0.15191 -0.79251,-0.39655c-0.20293,-0.24456 -0.32894,-0.58186 -0.32894,-0.95517c0,-0.3733 0.12602,-0.7106 0.32894,-0.95526c0.20293,-0.24456 0.48281,-0.39648 0.79251,-0.39648z" fill="#ffffff" stroke-linecap="butt"/></g></g><g><path d="M280.51927,215.37184c-2.21131,-1.3809 -6.61565,-5.51962 -6.61565,-5.51962c0,0 -4.9132,4.34418 -6.99588,5.69429c-4.77031,3.09233 -8.63326,3.45806 -9.04316,2.87624c-0.50797,-0.72099 -0.23658,-5.86738 0.68784,-10.77047c0.73924,-3.92087 1.54485,-6.8081 1.54485,-6.8081c-2.46278,-1.89991 -4.45483,-2.76092 -6.39681,-4.42623c-3.97371,-3.40759 -5.12683,-7.84428 -4.78883,-8.79296c0.46265,-1.29848 6.50686,-2.66175 15.88147,-2.93918l0.59515,-0.21972c3.18527,-9.13505 6.99635,-14.91379 8.50107,-14.91379c1.3958,0.02469 5.26857,5.74925 8.54149,14.82629l0.46712,0.32353c9.48117,0.29562 15.66315,1.67022 16.16217,2.92285c0.2973,0.74627 -0.98558,5.50285 -5.6891,9.3611c-1.65697,1.35918 -3.70176,2.09075 -5.66066,3.60398c0,0 1.00118,3.21892 1.82409,7.5679c0.92841,4.90672 1.06885,9.72407 0.37966,10.26477c-0.59121,0.46383 -4.79002,-0.17531 -9.39481,-3.05088z" data-paper-data="{&quot;index&quot;:null}" fill="url(#color-14)" stroke="#3f2803" stroke-width="0" stroke-linecap="round"/><path d="M279.30363,211.64754c-1.8002,-1.12417 -5.38573,-4.3994 -5.38573,-4.3994c0,0 -3.99976,3.44249 -5.69527,4.5416c-3.88345,2.51743 -7.02822,2.86451 -7.36191,2.39087c-0.41354,-0.58694 -0.1926,-4.67783 0.55995,-8.66936c0.60181,-3.19194 1.25765,-5.54238 1.25765,-5.54238c-2.00491,-1.54669 -3.62661,-2.24762 -5.20756,-3.60334c-3.23495,-2.77408 -4.66005,-6.38592 -4.38487,-7.15823c0.37664,-1.05709 5.78349,-2.16691 13.41526,-2.39275l0.48451,-0.17887c2.5931,-7.43673 5.69564,-12.78957 6.92061,-12.78957c1.1363,0.02011 4.28907,5.32884 6.95351,12.71835l0.38028,0.2634c7.71849,0.24067 13.23753,1.35971 13.64376,2.37946c0.24203,0.60753 -1.2887,4.4798 -5.11776,7.62074c-1.34891,1.10649 -3.01355,1.70206 -4.60826,2.93396c0,0 0.81506,2.62047 1.48496,6.16092c0.75581,3.9945 0.87014,7.81753 0.30907,8.25771c-0.48131,0.3776 -3.89948,-0.19209 -7.64819,-2.53305z" data-paper-data="{&quot;index&quot;:null}" fill="url(#color-15)" stroke="url(#color-16)" stroke-width="1" stroke-linecap="round"/><g stroke="none" stroke-width="2.7674"><path d="M277.93209,189.71485c0.60026,-0.02316 1.19846,0.47374 1.45045,1.08657c0.45715,1.1122 0.50633,2.43821 0.47212,3.67668c-0.02351,1.14316 -0.20508,2.32495 -0.64086,3.34715c-0.24995,0.59992 -0.70061,1.29249 -1.28171,1.28736c-0.55964,-0.00512 -1.03606,-0.43775 -1.34361,-1.2153c-0.39306,-0.98355 -0.57889,-2.16279 -0.57889,-3.54794c0,-1.38524 0.14309,-2.51805 0.57889,-3.54794c0.2862,-0.67976 0.8331,-1.10972 1.34361,-1.08656z" fill="#3f2803" stroke-linecap="round"/><path d="M278.02542,190.44296c0.3098,0 0.58957,0.1519 0.79251,0.39647c0.20293,0.24464 0.32901,0.58197 0.32901,0.95526c0,0.3733 -0.12608,0.71063 -0.32901,0.95519c-0.20293,0.24464 -0.48272,0.39655 -0.79251,0.39655c-0.3097,0 -0.58956,-0.15191 -0.79251,-0.39655c-0.20293,-0.24456 -0.32894,-0.58187 -0.32894,-0.95519c0,-0.3733 0.12602,-0.7106 0.32894,-0.95526c0.20293,-0.24456 0.4828,-0.39647 0.79251,-0.39647z" fill="#ffffff" stroke-linecap="butt"/></g><g stroke="none" stroke-width="2.7674"><path d="M270.02499,189.67209c0.60026,-0.02316 1.19846,0.47374 1.45047,1.08657c0.45715,1.1122 0.50632,2.43821 0.47213,3.67668c-0.02351,1.14316 -0.20508,2.32495 -0.64087,3.34715c-0.24995,0.59992 -0.70061,1.29249 -1.28172,1.28736c-0.55964,-0.00512 -1.03606,-0.43775 -1.34361,-1.2153c-0.39306,-0.98355 -0.57889,-2.16277 -0.57889,-3.54794c0,-1.38524 0.14309,-2.51805 0.57889,-3.54796c0.2862,-0.67976 0.83311,-1.10972 1.34361,-1.08657z" fill="#3f2803" stroke-linecap="round"/><path d="M270.16107,190.3575c0.3098,0 0.58956,0.15191 0.79251,0.39648c0.20293,0.24464 0.32903,0.58195 0.32903,0.95526c0,0.3733 -0.12608,0.71061 -0.32903,0.95517c-0.20293,0.24464 -0.48271,0.39655 -0.79251,0.39655c-0.3097,0 -0.58958,-0.15191 -0.79251,-0.39655c-0.20293,-0.24456 -0.32894,-0.58186 -0.32894,-0.95517c0,-0.3733 0.12602,-0.7106 0.32894,-0.95526c0.20293,-0.24456 0.4828,-0.39648 0.79251,-0.39648z" fill="#ffffff" stroke-linecap="butt"/></g></g><g><path d="M247.73516,239.548c-2.21131,-1.3809 -6.61565,-5.51962 -6.61565,-5.51962c0,0 -4.9132,4.34418 -6.99589,5.69429c-4.77031,3.09233 -8.63326,3.45806 -9.04316,2.87624c-0.50797,-0.72098 -0.23657,-5.86737 0.68784,-10.77046c0.73924,-3.92088 1.54486,-6.80809 1.54486,-6.80809c-2.46277,-1.89991 -4.45483,-2.76092 -6.39681,-4.42623c-3.97371,-3.40759 -5.12683,-7.84428 -4.78883,-8.79296c0.46265,-1.29849 6.50685,-2.66175 15.88147,-2.93918l0.59515,-0.21972c3.18527,-9.13505 6.99635,-14.91379 8.50107,-14.91379c1.3958,0.02469 5.26856,5.74925 8.54149,14.82629l0.46712,0.32353c9.48117,0.29562 15.66315,1.67022 16.16217,2.92285c0.2973,0.74628 -0.98558,5.50285 -5.6891,9.3611c-1.65697,1.35918 -3.70176,2.09076 -5.66066,3.60398c0,0 1.00118,3.21891 1.82409,7.56789c0.92842,4.90672 1.06884,9.72408 0.37966,10.26478c-0.59121,0.46383 -4.79001,-0.17532 -9.3948,-3.05088z" data-paper-data="{&quot;index&quot;:null}" fill="url(#color-17)" stroke="#3f2803" stroke-width="0" stroke-linecap="round"/><path d="M246.51952,235.8237c-1.8002,-1.12417 -5.38572,-4.3994 -5.38572,-4.3994c0,0 -3.99977,3.4425 -5.69527,4.5416c-3.88345,2.51743 -7.02822,2.86451 -7.36191,2.39086c-0.41354,-0.58694 -0.1926,-4.67782 0.55995,-8.66937c0.60182,-3.19193 1.25765,-5.54238 1.25765,-5.54238c-2.00491,-1.54669 -3.62661,-2.24762 -5.20756,-3.60334c-3.23495,-2.77408 -4.66005,-6.38593 -4.38487,-7.15823c0.37664,-1.05708 5.78349,-2.16691 13.41525,-2.39275l0.48452,-0.17887c2.59309,-7.43673 5.69564,-12.78957 6.92061,-12.78957c1.1363,0.02011 4.28908,5.32884 6.95351,12.71835l0.38029,0.26339c7.71849,0.24067 13.23752,1.35971 13.64376,2.37946c0.24203,0.60753 -1.2887,4.4798 -5.11776,7.62074c-1.3489,1.10649 -3.01355,1.70206 -4.60826,2.93396c0,0 0.81506,2.62047 1.48497,6.16092c0.75581,3.9945 0.87013,7.81753 0.30906,8.25771c-0.48131,0.37759 -3.89948,-0.19209 -7.64818,-2.53305z" data-paper-data="{&quot;index&quot;:null}" fill="url(#color-18)" stroke="url(#color-19)" stroke-width="1" stroke-linecap="round"/><g stroke="none" stroke-width="2.7674"><path d="M245.14799,213.89101c0.60026,-0.02316 1.19846,0.47374 1.45045,1.08657c0.45715,1.1122 0.50632,2.43821 0.47212,3.67669c-0.0235,1.14315 -0.20508,2.32495 -0.64086,3.34714c-0.24995,0.59992 -0.70061,1.29249 -1.28171,1.28737c-0.55964,-0.00512 -1.03606,-0.43775 -1.34361,-1.2153c-0.39306,-0.98355 -0.57889,-2.16279 -0.57889,-3.54794c0,-1.38524 0.14309,-2.51805 0.57889,-3.54794c0.2862,-0.67976 0.83311,-1.10973 1.34361,-1.08657z" fill="#3f2803" stroke-linecap="round"/><path d="M245.24131,214.61912c0.30979,0 0.58957,0.15191 0.79251,0.39647c0.20293,0.24464 0.32901,0.58197 0.32901,0.95527c0,0.37329 -0.12608,0.71063 -0.32901,0.95519c-0.20293,0.24464 -0.48273,0.39655 -0.79251,0.39655c-0.3097,0 -0.58956,-0.15191 -0.79251,-0.39655c-0.20293,-0.24456 -0.32894,-0.58186 -0.32894,-0.95519c0,-0.37329 0.12602,-0.71061 0.32894,-0.95527c0.20293,-0.24456 0.4828,-0.39647 0.79251,-0.39647z" fill="#ffffff" stroke-linecap="butt"/></g><g stroke="none" stroke-width="2.7674"><path d="M237.24088,213.84825c0.60026,-0.02316 1.19846,0.47374 1.45047,1.08657c0.45715,1.1122 0.50632,2.43821 0.47214,3.67669c-0.0235,1.14315 -0.20508,2.32495 -0.64086,3.34714c-0.24995,0.59992 -0.70061,1.29249 -1.28173,1.28737c-0.55964,-0.00512 -1.03606,-0.43775 -1.34361,-1.2153c-0.39306,-0.98355 -0.57889,-2.16278 -0.57889,-3.54794c0,-1.38524 0.14309,-2.51805 0.57889,-3.54796c0.2862,-0.67976 0.83311,-1.10973 1.34361,-1.08657z" fill="#3f2803" stroke-linecap="round"/><path d="M237.37696,214.53366c0.30979,0 0.58956,0.15191 0.79251,0.39647c0.20293,0.24464 0.32903,0.58196 0.32903,0.95527c0,0.37329 -0.12608,0.71061 -0.32903,0.95517c-0.20293,0.24464 -0.48271,0.39655 -0.79251,0.39655c-0.3097,0 -0.58957,-0.15191 -0.79251,-0.39655c-0.20293,-0.24456 -0.32894,-0.58186 -0.32894,-0.95517c0,-0.37329 0.12602,-0.71061 0.32894,-0.95527c0.20293,-0.24456 0.4828,-0.39647 0.79251,-0.39647z" fill="#ffffff" stroke-linecap="butt"/></g></g></g></g></svg>