<svg version="1.1" xmlns="http://www.w3.org/2000/svg" xmlns:xlink="http://www.w3.org/1999/xlink" width="621.67767" height="327.08963" viewBox="0,0,621.67767,327.08963"><defs><linearGradient x1="509.48351" y1="216.50066" x2="509.48351" y2="450.70632" gradientUnits="userSpaceOnUse" id="color-1"><stop offset="0" stop-color="#ffffff"/><stop offset="1" stop-color="#bdcede"/></linearGradient><linearGradient x1="76.48351" y1="214.89662" x2="76.48351" y2="449.10228" gradientUnits="userSpaceOnUse" id="color-2"><stop offset="0" stop-color="#ffffff"/><stop offset="1" stop-color="#bdcede"/></linearGradient><linearGradient x1="452.03078" y1="213.60332" x2="452.03078" y2="360.10332" gradientUnits="userSpaceOnUse" id="color-3"><stop offset="0" stop-color="#d3e1ee"/><stop offset="1" stop-color="#a9b6cd"/></linearGradient><linearGradient x1="489.53078" y1="213.60332" x2="489.53078" y2="360.10332" gradientUnits="userSpaceOnUse" id="color-4"><stop offset="0" stop-color="#d3e1ee"/><stop offset="1" stop-color="#a9b6cd"/></linearGradient><linearGradient x1="527.03079" y1="213.60331" x2="527.03079" y2="360.10331" gradientUnits="userSpaceOnUse" id="color-5"><stop offset="0" stop-color="#d3e1ee"/><stop offset="1" stop-color="#a9b6cd"/></linearGradient><linearGradient x1="564.53078" y1="213.60331" x2="564.53078" y2="360.10331" gradientUnits="userSpaceOnUse" id="color-6"><stop offset="0" stop-color="#d3e1ee"/><stop offset="1" stop-color="#a9b6cd"/></linearGradient><linearGradient x1="510.08842" y1="196.16834" x2="510.08842" y2="239.20474" gradientUnits="userSpaceOnUse" id="color-7"><stop offset="0" stop-color="#65d27a"/><stop offset="1" stop-color="#4b9b5b"/></linearGradient><linearGradient x1="509.83842" y1="197.66834" x2="509.83842" y2="221.23486" gradientUnits="userSpaceOnUse" id="color-8"><stop offset="0" stop-color="#7aff95"/><stop offset="1" stop-color="#62cc77"/></linearGradient><linearGradient x1="286.48351" y1="269.89662" x2="286.48351" y2="415.90662" gradientUnits="userSpaceOnUse" id="color-9"><stop offset="0" stop-color="#ffffff"/><stop offset="1" stop-color="#bdcede"/></linearGradient><linearGradient x1="229.03078" y1="267.60332" x2="229.03078" y2="414.10332" gradientUnits="userSpaceOnUse" id="color-10"><stop offset="0" stop-color="#d3e1ee"/><stop offset="1" stop-color="#a9b6cd"/></linearGradient><linearGradient x1="266.53078" y1="267.60332" x2="266.53078" y2="414.10332" gradientUnits="userSpaceOnUse" id="color-11"><stop offset="0" stop-color="#d3e1ee"/><stop offset="1" stop-color="#a9b6cd"/></linearGradient><linearGradient x1="304.03079" y1="267.60331" x2="304.03079" y2="414.10331" gradientUnits="userSpaceOnUse" id="color-12"><stop offset="0" stop-color="#d3e1ee"/><stop offset="1" stop-color="#a9b6cd"/></linearGradient><linearGradient x1="341.53078" y1="267.60331" x2="341.53078" y2="414.10331" gradientUnits="userSpaceOnUse" id="color-13"><stop offset="0" stop-color="#d3e1ee"/><stop offset="1" stop-color="#a9b6cd"/></linearGradient><linearGradient x1="287.08842" y1="250.16834" x2="287.08842" y2="293.20474" gradientUnits="userSpaceOnUse" id="color-14"><stop offset="0" stop-color="#65d27a"/><stop offset="1" stop-color="#4b9b5b"/></linearGradient><linearGradient x1="286.83842" y1="251.66834" x2="286.83842" y2="275.23486" gradientUnits="userSpaceOnUse" id="color-15"><stop offset="0" stop-color="#7aff95"/><stop offset="1" stop-color="#62cc77"/></linearGradient><linearGradient x1="19.03078" y1="212.60332" x2="19.03078" y2="359.10332" gradientUnits="userSpaceOnUse" id="color-16"><stop offset="0" stop-color="#d3e1ee"/><stop offset="1" stop-color="#a9b6cd"/></linearGradient><linearGradient x1="56.53078" y1="212.60332" x2="56.53078" y2="359.10332" gradientUnits="userSpaceOnUse" id="color-17"><stop offset="0" stop-color="#d3e1ee"/><stop offset="1" stop-color="#a9b6cd"/></linearGradient><linearGradient x1="94.03079" y1="212.60331" x2="94.03079" y2="359.10331" gradientUnits="userSpaceOnUse" id="color-18"><stop offset="0" stop-color="#d3e1ee"/><stop offset="1" stop-color="#a9b6cd"/></linearGradient><linearGradient x1="131.53078" y1="212.60331" x2="131.53078" y2="359.10331" gradientUnits="userSpaceOnUse" id="color-19"><stop offset="0" stop-color="#d3e1ee"/><stop offset="1" stop-color="#a9b6cd"/></linearGradient><linearGradient x1="77.08842" y1="195.16834" x2="77.08842" y2="238.20474" gradientUnits="userSpaceOnUse" id="color-20"><stop offset="0" stop-color="#65d27a"/><stop offset="1" stop-color="#4b9b5b"/></linearGradient><linearGradient x1="76.83842" y1="196.66834" x2="76.83842" y2="220.23486" gradientUnits="userSpaceOnUse" id="color-21"><stop offset="0" stop-color="#7aff95"/><stop offset="1" stop-color="#62cc77"/></linearGradient><linearGradient x1="452.03078" y1="513.75796" x2="452.03078" y2="367.25796" gradientUnits="userSpaceOnUse" id="color-22"><stop offset="0" stop-color="#d3e1ee"/><stop offset="1" stop-color="#a9b6cd"/></linearGradient><linearGradient x1="489.53078" y1="513.75796" x2="489.53078" y2="367.25796" gradientUnits="userSpaceOnUse" id="color-23"><stop offset="0" stop-color="#d3e1ee"/><stop offset="1" stop-color="#a9b6cd"/></linearGradient><linearGradient x1="527.03079" y1="513.75797" x2="527.03079" y2="367.25797" gradientUnits="userSpaceOnUse" id="color-24"><stop offset="0" stop-color="#d3e1ee"/><stop offset="1" stop-color="#a9b6cd"/></linearGradient><linearGradient x1="564.53078" y1="513.75797" x2="564.53078" y2="367.25797" gradientUnits="userSpaceOnUse" id="color-25"><stop offset="0" stop-color="#d3e1ee"/><stop offset="1" stop-color="#a9b6cd"/></linearGradient><linearGradient x1="19.03078" y1="510.25346" x2="19.03078" y2="363.75346" gradientUnits="userSpaceOnUse" id="color-26"><stop offset="0" stop-color="#d3e1ee"/><stop offset="1" stop-color="#a9b6cd"/></linearGradient><linearGradient x1="56.53078" y1="510.25346" x2="56.53078" y2="363.75346" gradientUnits="userSpaceOnUse" id="color-27"><stop offset="0" stop-color="#d3e1ee"/><stop offset="1" stop-color="#a9b6cd"/></linearGradient><linearGradient x1="94.03079" y1="510.25347" x2="94.03079" y2="363.75347" gradientUnits="userSpaceOnUse" id="color-28"><stop offset="0" stop-color="#d3e1ee"/><stop offset="1" stop-color="#a9b6cd"/></linearGradient><linearGradient x1="131.53078" y1="510.25347" x2="131.53078" y2="363.75347" gradientUnits="userSpaceOnUse" id="color-29"><stop offset="0" stop-color="#d3e1ee"/><stop offset="1" stop-color="#a9b6cd"/></linearGradient></defs><g transform="translate(17.24779,-194.16834)"><g data-paper-data="{&quot;isPaintingLayer&quot;:true}" fill-rule="nonzero" stroke-linejoin="miter" stroke-miterlimit="10" stroke-dasharray="" stroke-dashoffset="0" style="mix-blend-mode: normal"><path d="M428.70821,216.50066h161.5506c0,0 -1.5,24.21298 -1.5,49.25471c0,17.02531 1.5,33.13982 1.5,47.31914c0,12.53545 -2,29.9201 -2,48.12116c0,14.03242 2,28.55012 2,41.705c0,26.7125 -2.5,47.00364 -2.5,47.00364l-159.0506,0.80202c0,0 2,-19.77183 2,-42.99354c0,-14.28882 -2,-27.89038 -2,-44.91308c0,-16.24788 2.5,-27.07572 2.5,-41.705c0,-14.43949 -2.5,-32.72713 -2.5,-41.705c0,-26.1078 0,-62.88904 0,-62.88904z" fill="url(#color-1)" stroke="#a9b6cd" stroke-width="2" stroke-linecap="butt"/><path d="M-4.29179,214.89662h161.5506c0,0 -1.5,24.21298 -1.5,49.25471c0,17.02531 1.5,33.13982 1.5,47.31914c0,12.53545 -2,29.9201 -2,48.12116c0,14.03242 2,28.55012 2,41.705c0,26.7125 -2.5,47.00364 -2.5,47.00364l-159.0506,0.80202c0,0 2,-19.77183 2,-42.99354c0,-14.28882 -2,-27.89038 -2,-44.91308c0,-16.24788 2.5,-27.07572 2.5,-41.705c0,-14.43949 -2.5,-32.72713 -2.5,-41.705c0,-26.1078 0,-62.88904 0,-62.88904z" fill="url(#color-2)" stroke="#a9b6cd" stroke-width="2" stroke-linecap="butt"/><path d="M446.53078,213.60332c0,0 11,2.20998 11,9.5c0,7.64715 -11,20.63333 -11,31.5c0,10.06624 10.5,16.40879 10.5,26.5c0,11.5994 -10.5,19.7061 -10.5,27c0,7.56039 10.5,18.25498 10.5,26.5c0,12.00687 -10.5,25.5 -10.5,25.5" fill="none" stroke="url(#color-3)" stroke-width="15" stroke-linecap="round"/><path d="M484.03078,213.60332c0,0 11,2.20998 11,9.5c0,7.64715 -11,20.63333 -11,31.5c0,10.06624 10.5,16.40879 10.5,26.5c0,11.5994 -10.5,19.7061 -10.5,27c0,7.56039 10.5,18.25498 10.5,26.5c0,12.00687 -10.5,25.5 -10.5,25.5" fill="none" stroke="url(#color-4)" stroke-width="15" stroke-linecap="round"/><path d="M521.53079,213.60331c0,0 11,2.20998 11,9.5c0,7.64715 -11,20.63333 -11,31.5c0,10.06624 10.5,16.40879 10.5,26.5c0,11.5994 -10.5,19.7061 -10.5,27c0,7.56039 10.5,18.25498 10.5,26.5c0,12.00687 -10.5,25.5 -10.5,25.5" fill="none" stroke="url(#color-5)" stroke-width="15" stroke-linecap="round"/><path d="M559.03078,213.60331c0,0 11,2.20998 11,9.5c0,7.64715 -11,20.63333 -11,31.5c0,10.06624 10.5,16.40879 10.5,26.5c0,11.5994 -10.5,19.7061 -10.5,27c0,7.56039 10.5,18.25498 10.5,26.5c0,12.00687 -10.5,25.5 -10.5,25.5" fill="none" stroke="url(#color-6)" stroke-width="15" stroke-linecap="round"/><g stroke-linecap="butt"><path d="M416.75221,217.27254c0.21723,-8.28143 7.10674,-21.31875 15.38817,-21.10152c4.0055,0.10507 149.97127,0.26629 156.68272,0.44233c8.28143,0.21723 14.81874,14.60674 14.60152,22.88817c-0.21723,8.28143 -7.10674,14.81875 -15.38817,14.60152c-4.35644,-0.11427 -8.23023,-2.07496 -10.892,-5.11337c-2.07247,6.02961 -7.86975,10.28985 -14.58121,10.11381c-5.54406,-0.14542 -10.30647,-3.2812 -12.78391,-7.82302c-2.81696,2.8903 -6.78518,4.64212 -11.13792,4.52794c-6.26799,-0.16441 -11.53686,-4.15111 -13.63417,-9.67059c-2.83571,3.17471 -6.99698,5.12805 -11.58557,5.00769c-4.41394,-0.11578 -8.33241,-2.12704 -10.99677,-5.23425c-2.39123,5.38459 -7.85264,9.07464 -14.10826,8.91055c-3.83877,-0.1007 -7.30279,-1.63506 -9.89301,-4.07717c-2.4912,5.13587 -7.81909,8.61428 -13.89663,8.45486c-5.05468,-0.13259 -9.45961,-2.7509 -12.07547,-6.65423c-3.90683,-0.16531 -7.41105,-1.8165 -9.97986,-4.39204c-2.81573,2.87811 -6.77549,4.62141 -11.11795,4.50751c-8.28143,-0.21723 -14.81875,-7.10674 -14.60152,-15.38817z" fill="url(#color-7)" stroke="#298347" stroke-width="2"/><path d="M425.75169,209.22489c0.19571,-4.53486 6.40248,-11.67404 13.86323,-11.55509c3.60856,0.05754 135.10933,0.14582 141.15569,0.24222c7.46075,0.11895 13.35023,7.99859 13.15453,12.53345c-0.1957,4.53486 -6.40247,8.11467 -13.86322,7.99571c-3.92473,-0.06258 -7.41463,-1.13624 -9.81262,-2.80006c-1.8671,3.30178 -7.08987,5.63467 -13.13623,5.53827c-4.99466,-0.07963 -9.28511,-1.79677 -11.51704,-4.28385c-2.53781,1.58271 -6.11278,2.54201 -10.03417,2.47949c-5.64684,-0.09004 -10.39357,-2.27312 -12.28305,-5.29557c-2.55469,1.73846 -6.30358,2.80809 -10.43745,2.74218c-3.97652,-0.0634 -7.50669,-1.16476 -9.90701,-2.86625c-2.15427,2.94858 -7.07445,4.96923 -12.71015,4.87938c-3.45835,-0.05514 -6.57909,-0.89535 -8.91262,-2.23264c-2.24432,2.81238 -7.04423,4.71714 -12.5195,4.62984c-4.55377,-0.07261 -8.52218,-1.50638 -10.8788,-3.64382c-3.51967,-0.09053 -6.67663,-0.99471 -8.99088,-2.40507c-2.5367,1.57604 -6.10404,2.53066 -10.01618,2.46829c-7.46075,-0.11895 -13.35023,-3.89162 -13.15453,-8.42649z" fill="url(#color-8)" stroke="none" stroke-width="0.5"/></g><g><g><path d="M205.70821,269.89662h161.5506c0,0 -1.5,15.09501 -1.5,30.70669c0,10.61403 1.5,20.66024 1.5,29.5c0,7.81493 -2,18.65298 -2,30c0,8.74818 2,17.7989 2,26c0,16.65328 -2.5,29.30331 -2.5,29.30331l-159.0506,0.5c0,0 2,-12.32628 2,-26.80331c0,-8.90803 -2,-17.3876 -2,-28c0,-10.12936 2.5,-16.87972 2.5,-26c0,-9.00196 -2.5,-20.40296 -2.5,-26c0,-16.27629 0,-39.20669 0,-39.20669z" fill="url(#color-9)" stroke="#a9b6cd" stroke-width="2" stroke-linecap="butt"/><path d="M223.53078,267.60332c0,0 11,2.20998 11,9.5c0,7.64715 -11,20.63333 -11,31.5c0,10.06624 10.5,16.40879 10.5,26.5c0,11.5994 -10.5,19.7061 -10.5,27c0,7.56039 10.5,18.25498 10.5,26.5c0,12.00687 -10.5,25.5 -10.5,25.5" fill="none" stroke="url(#color-10)" stroke-width="15" stroke-linecap="round"/><path d="M261.03078,267.60332c0,0 11,2.20998 11,9.5c0,7.64715 -11,20.63333 -11,31.5c0,10.06624 10.5,16.40879 10.5,26.5c0,11.5994 -10.5,19.7061 -10.5,27c0,7.56039 10.5,18.25498 10.5,26.5c0,12.00687 -10.5,25.5 -10.5,25.5" fill="none" stroke="url(#color-11)" stroke-width="15" stroke-linecap="round"/><path d="M298.53079,267.60331c0,0 11,2.20998 11,9.5c0,7.64715 -11,20.63333 -11,31.5c0,10.06624 10.5,16.40879 10.5,26.5c0,11.5994 -10.5,19.7061 -10.5,27c0,7.56039 10.5,18.25498 10.5,26.5c0,12.00687 -10.5,25.5 -10.5,25.5" fill="none" stroke="url(#color-12)" stroke-width="15" stroke-linecap="round"/><path d="M336.03078,267.60331c0,0 11,2.20998 11,9.5c0,7.64715 -11,20.63333 -11,31.5c0,10.06624 10.5,16.40879 10.5,26.5c0,11.5994 -10.5,19.7061 -10.5,27c0,7.56039 10.5,18.25498 10.5,26.5c0,12.00687 -10.5,25.5 -10.5,25.5" fill="none" stroke="url(#color-13)" stroke-width="15" stroke-linecap="round"/></g><g stroke-linecap="butt"><path d="M193.75221,271.27254c0.21723,-8.28143 7.10674,-21.31875 15.38817,-21.10152c4.0055,0.10507 149.97127,0.26629 156.68272,0.44233c8.28143,0.21723 14.81874,14.60674 14.60152,22.88817c-0.21723,8.28143 -7.10674,14.81875 -15.38817,14.60152c-4.35644,-0.11427 -8.23023,-2.07496 -10.892,-5.11337c-2.07247,6.02961 -7.86975,10.28985 -14.58121,10.11381c-5.54406,-0.14542 -10.30647,-3.2812 -12.78391,-7.82302c-2.81696,2.8903 -6.78518,4.64212 -11.13792,4.52794c-6.26799,-0.16441 -11.53686,-4.15111 -13.63417,-9.67059c-2.83571,3.17471 -6.99698,5.12805 -11.58557,5.00769c-4.41394,-0.11578 -8.33241,-2.12704 -10.99677,-5.23425c-2.39123,5.38459 -7.85264,9.07464 -14.10826,8.91055c-3.83877,-0.1007 -7.30279,-1.63506 -9.89301,-4.07717c-2.4912,5.13587 -7.81909,8.61428 -13.89663,8.45486c-5.05468,-0.13259 -9.45961,-2.7509 -12.07547,-6.65423c-3.90683,-0.16531 -7.41105,-1.8165 -9.97986,-4.39204c-2.81573,2.87811 -6.77549,4.62141 -11.11795,4.50751c-8.28143,-0.21723 -14.81875,-7.10674 -14.60152,-15.38817z" fill="url(#color-14)" stroke="#298347" stroke-width="2"/><path d="M202.75169,263.22489c0.19571,-4.53486 6.40248,-11.67404 13.86323,-11.55509c3.60856,0.05754 135.10933,0.14582 141.15569,0.24222c7.46075,0.11895 13.35023,7.99859 13.15453,12.53345c-0.1957,4.53486 -6.40247,8.11467 -13.86322,7.99571c-3.92473,-0.06258 -7.41463,-1.13624 -9.81262,-2.80006c-1.8671,3.30178 -7.08987,5.63467 -13.13623,5.53827c-4.99466,-0.07963 -9.28511,-1.79677 -11.51704,-4.28385c-2.53781,1.58271 -6.11278,2.54201 -10.03417,2.47949c-5.64684,-0.09004 -10.39357,-2.27312 -12.28305,-5.29557c-2.55469,1.73846 -6.30358,2.80809 -10.43745,2.74218c-3.97652,-0.0634 -7.50669,-1.16476 -9.90701,-2.86625c-2.15427,2.94858 -7.07445,4.96923 -12.71015,4.87938c-3.45835,-0.05514 -6.57909,-0.89535 -8.91262,-2.23264c-2.24432,2.81238 -7.04423,4.71714 -12.5195,4.62984c-4.55377,-0.07261 -8.52218,-1.50638 -10.8788,-3.64382c-3.51967,-0.09053 -6.67663,-0.99471 -8.99088,-2.40507c-2.5367,1.57604 -6.10404,2.53066 -10.01618,2.46829c-7.46075,-0.11895 -13.35023,-3.89162 -13.15453,-8.42649z" fill="url(#color-15)" stroke="none" stroke-width="0.5"/></g></g><path d="M13.53078,212.60332c0,0 11,2.20998 11,9.5c0,7.64715 -11,20.63333 -11,31.5c0,10.06624 10.5,16.40879 10.5,26.5c0,11.5994 -10.5,19.7061 -10.5,27c0,7.56039 10.5,18.25498 10.5,26.5c0,12.00687 -10.5,25.5 -10.5,25.5" fill="none" stroke="url(#color-16)" stroke-width="15" stroke-linecap="round"/><path d="M51.03078,212.60332c0,0 11,2.20998 11,9.5c0,7.64715 -11,20.63333 -11,31.5c0,10.06624 10.5,16.40879 10.5,26.5c0,11.5994 -10.5,19.7061 -10.5,27c0,7.56039 10.5,18.25498 10.5,26.5c0,12.00687 -10.5,25.5 -10.5,25.5" fill="none" stroke="url(#color-17)" stroke-width="15" stroke-linecap="round"/><path d="M88.53079,212.60331c0,0 11,2.20998 11,9.5c0,7.64715 -11,20.63333 -11,31.5c0,10.06624 10.5,16.40879 10.5,26.5c0,11.5994 -10.5,19.7061 -10.5,27c0,7.56039 10.5,18.25498 10.5,26.5c0,12.00687 -10.5,25.5 -10.5,25.5" fill="none" stroke="url(#color-18)" stroke-width="15" stroke-linecap="round"/><path d="M126.03078,212.60331c0,0 11,2.20998 11,9.5c0,7.64715 -11,20.63333 -11,31.5c0,10.06624 10.5,16.40879 10.5,26.5c0,11.5994 -10.5,19.7061 -10.5,27c0,7.56039 10.5,18.25498 10.5,26.5c0,12.00687 -10.5,25.5 -10.5,25.5" fill="none" stroke="url(#color-19)" stroke-width="15" stroke-linecap="round"/><g stroke-linecap="butt"><path d="M-16.24779,216.27254c0.21723,-8.28143 7.10674,-21.31875 15.38817,-21.10152c4.0055,0.10507 149.97127,0.26629 156.68272,0.44233c8.28143,0.21723 14.81874,14.60674 14.60152,22.88817c-0.21723,8.28143 -7.10674,14.81875 -15.38817,14.60152c-4.35644,-0.11427 -8.23023,-2.07496 -10.892,-5.11337c-2.07247,6.02961 -7.86975,10.28985 -14.58121,10.11381c-5.54406,-0.14542 -10.30647,-3.2812 -12.78391,-7.82302c-2.81696,2.8903 -6.78518,4.64212 -11.13792,4.52794c-6.26799,-0.16441 -11.53686,-4.15111 -13.63417,-9.67059c-2.83571,3.17471 -6.99698,5.12805 -11.58557,5.00769c-4.41394,-0.11578 -8.33241,-2.12704 -10.99677,-5.23425c-2.39123,5.38459 -7.85264,9.07464 -14.10826,8.91055c-3.83877,-0.1007 -7.30279,-1.63506 -9.89301,-4.07717c-2.4912,5.13587 -7.81909,8.61428 -13.89663,8.45486c-5.05468,-0.13259 -9.45961,-2.7509 -12.07547,-6.65423c-3.90683,-0.16531 -7.41105,-1.8165 -9.97986,-4.39204c-2.81573,2.87811 -6.77549,4.62141 -11.11795,4.50751c-8.28143,-0.21723 -14.81875,-7.10674 -14.60152,-15.38817z" fill="url(#color-20)" stroke="#298347" stroke-width="2"/><path d="M-7.24831,208.22489c0.19571,-4.53486 6.40248,-11.67404 13.86323,-11.55509c3.60856,0.05754 135.10933,0.14582 141.15569,0.24222c7.46075,0.11895 13.35023,7.99859 13.15453,12.53345c-0.1957,4.53486 -6.40247,8.11467 -13.86322,7.99571c-3.92473,-0.06258 -7.41463,-1.13624 -9.81262,-2.80006c-1.8671,3.30178 -7.08987,5.63467 -13.13623,5.53827c-4.99466,-0.07963 -9.28511,-1.79677 -11.51704,-4.28385c-2.53781,1.58271 -6.11278,2.54201 -10.03417,2.47949c-5.64684,-0.09004 -10.39357,-2.27312 -12.28305,-5.29557c-2.55469,1.73846 -6.30358,2.80809 -10.43745,2.74218c-3.97652,-0.0634 -7.50669,-1.16476 -9.90701,-2.86625c-2.15427,2.94858 -7.07445,4.96923 -12.71015,4.87938c-3.45835,-0.05514 -6.57909,-0.89535 -8.91262,-2.23264c-2.24432,2.81238 -7.04423,4.71714 -12.5195,4.62984c-4.55377,-0.07261 -8.52218,-1.50638 -10.8788,-3.64382c-3.51967,-0.09053 -6.67663,-0.99471 -8.99088,-2.40507c-2.5367,1.57604 -6.10404,2.53066 -10.01618,2.46829c-7.46075,-0.11895 -13.35023,-3.89162 -13.15453,-8.42649z" fill="url(#color-21)" stroke="none" stroke-width="0.5"/></g><path d="M446.53078,367.25796c0,0 10.5,13.49313 10.5,25.5c0,8.24502 -10.5,18.93961 -10.5,26.5c0,7.2939 10.5,15.4006 10.5,27c0,10.09121 -10.5,16.43376 -10.5,26.5c0,10.86667 11,23.85285 11,31.5c0,7.29002 -11,9.5 -11,9.5" data-paper-data="{&quot;index&quot;:null}" fill="none" stroke="url(#color-22)" stroke-width="15" stroke-linecap="round"/><path d="M484.03078,367.25796c0,0 10.5,13.49313 10.5,25.5c0,8.24502 -10.5,18.93961 -10.5,26.5c0,7.2939 10.5,15.4006 10.5,27c0,10.09121 -10.5,16.43376 -10.5,26.5c0,10.86667 11,23.85285 11,31.5c0,7.29002 -11,9.5 -11,9.5" data-paper-data="{&quot;index&quot;:null}" fill="none" stroke="url(#color-23)" stroke-width="15" stroke-linecap="round"/><path d="M521.53079,367.25797c0,0 10.5,13.49313 10.5,25.5c0,8.24502 -10.5,18.93961 -10.5,26.5c0,7.2939 10.5,15.4006 10.5,27c0,10.09121 -10.5,16.43376 -10.5,26.5c0,10.86667 11,23.85285 11,31.5c0,7.29002 -11,9.5 -11,9.5" data-paper-data="{&quot;index&quot;:null}" fill="none" stroke="url(#color-24)" stroke-width="15" stroke-linecap="round"/><path d="M559.03078,367.25797c0,0 10.5,13.49313 10.5,25.5c0,8.24502 -10.5,18.93961 -10.5,26.5c0,7.2939 10.5,15.4006 10.5,27c0,10.09121 -10.5,16.43376 -10.5,26.5c0,10.86667 11,23.85285 11,31.5c0,7.29002 -11,9.5 -11,9.5" data-paper-data="{&quot;index&quot;:null}" fill="none" stroke="url(#color-25)" stroke-width="15" stroke-linecap="round"/><path d="M13.53078,363.75346c0,0 10.5,13.49313 10.5,25.5c0,8.24502 -10.5,18.93961 -10.5,26.5c0,7.2939 10.5,15.4006 10.5,27c0,10.09121 -10.5,16.43376 -10.5,26.5c0,10.86667 11,23.85285 11,31.5c0,7.29002 -11,9.5 -11,9.5" data-paper-data="{&quot;index&quot;:null}" fill="none" stroke="url(#color-26)" stroke-width="15" stroke-linecap="round"/><path d="M51.03078,363.75346c0,0 10.5,13.49313 10.5,25.5c0,8.24502 -10.5,18.93961 -10.5,26.5c0,7.2939 10.5,15.4006 10.5,27c0,10.09121 -10.5,16.43376 -10.5,26.5c0,10.86667 11,23.85285 11,31.5c0,7.29002 -11,9.5 -11,9.5" data-paper-data="{&quot;index&quot;:null}" fill="none" stroke="url(#color-27)" stroke-width="15" stroke-linecap="round"/><path d="M88.53079,363.75347c0,0 10.5,13.49313 10.5,25.5c0,8.24502 -10.5,18.93961 -10.5,26.5c0,7.2939 10.5,15.4006 10.5,27c0,10.09121 -10.5,16.43376 -10.5,26.5c0,10.86667 11,23.85285 11,31.5c0,7.29002 -11,9.5 -11,9.5" data-paper-data="{&quot;index&quot;:null}" fill="none" stroke="url(#color-28)" stroke-width="15" stroke-linecap="round"/><path d="M126.03078,363.75347c0,0 10.5,13.49313 10.5,25.5c0,8.24502 -10.5,18.93961 -10.5,26.5c0,7.2939 10.5,15.4006 10.5,27c0,10.09121 -10.5,16.43376 -10.5,26.5c0,10.86667 11,23.85285 11,31.5c0,7.29002 -11,9.5 -11,9.5" data-paper-data="{&quot;index&quot;:null}" fill="none" stroke="url(#color-29)" stroke-width="15" stroke-linecap="round"/></g></g></svg>