<svg version="1.1" xmlns="http://www.w3.org/2000/svg" xmlns:xlink="http://www.w3.org/1999/xlink" width="284.92502" height="234.9025" viewBox="0,0,284.92502,234.9025"><defs><linearGradient x1="240.05" y1="128.66609" x2="240.05" y2="231.16609" gradientUnits="userSpaceOnUse" id="color-1"><stop offset="0" stop-color="#52cbff"/><stop offset="1" stop-color="#fdffff"/></linearGradient><linearGradient x1="240.05" y1="128.66609" x2="240.05" y2="231.16609" gradientUnits="userSpaceOnUse" id="color-2"><stop offset="0" stop-color="#000000" stop-opacity="0"/><stop offset="1" stop-color="#000000" stop-opacity="0"/></linearGradient><linearGradient x1="253.84805" y1="140.11458" x2="252.93876" y2="157.33673" gradientUnits="userSpaceOnUse" id="color-3"><stop offset="0" stop-color="#ffe746"/><stop offset="1" stop-color="#ffc443"/></linearGradient><linearGradient x1="275.2222" y1="172.15262" x2="274.69453" y2="210.8024" gradientUnits="userSpaceOnUse" id="color-4"><stop offset="0" stop-color="#cfbb36"/><stop offset="1" stop-color="#ffe743"/></linearGradient><linearGradient x1="207.51119" y1="173.25602" x2="207.00589" y2="210.26792" gradientUnits="userSpaceOnUse" id="color-5"><stop offset="0" stop-color="#cfbb36"/><stop offset="1" stop-color="#ffe743"/></linearGradient><linearGradient x1="227.94509" y1="169.85806" x2="226.54571" y2="196.36015" gradientUnits="userSpaceOnUse" id="color-6"><stop offset="0" stop-color="#cfbb36"/><stop offset="1" stop-color="#ffe743"/></linearGradient><linearGradient x1="250.88517" y1="170.34857" x2="249.48587" y2="196.85067" gradientUnits="userSpaceOnUse" id="color-7"><stop offset="0" stop-color="#cfbb36"/><stop offset="1" stop-color="#ffe743"/></linearGradient><linearGradient x1="269.81332" y1="152.85431" x2="269.69189" y2="181.0089" gradientUnits="userSpaceOnUse" id="color-8"><stop offset="0" stop-color="#ffe746"/><stop offset="1" stop-color="#f0d93f"/></linearGradient></defs><g transform="translate(-85.5,-2.16)"><g data-paper-data="{&quot;isPaintingLayer&quot;:true}" fill-rule="nonzero" stroke-linejoin="miter" stroke-miterlimit="10" stroke-dasharray="" stroke-dashoffset="0" style="mix-blend-mode: normal"><path d="M186.3,231.16609v-102.5h107.5v102.5z" fill="url(#color-1)" stroke="url(#color-2)" stroke-width="0" stroke-linecap="butt"/><text transform="translate(207,25.86)" font-size="22" xml:space="preserve" fill="#ff0000" fill-rule="nonzero" stroke="none" stroke-width="1" stroke-linecap="butt" stroke-linejoin="miter" stroke-miterlimit="10" stroke-dasharray="" stroke-dashoffset="0" font-family="Sans Serif" font-weight="400" text-anchor="start" style="mix-blend-mode: normal"><tspan x="0" dy="0">WIP</tspan></text><text transform="translate(86,55.01)" font-size="22" xml:space="preserve" data-paper-data="{&quot;origPos&quot;:null}" fill="#ff0000" fill-rule="nonzero" stroke="none" stroke-width="1" stroke-linecap="butt" stroke-linejoin="miter" stroke-miterlimit="10" stroke-dasharray="" stroke-dashoffset="0" font-family="Sans Serif" font-weight="400" text-anchor="start" style="mix-blend-mode: normal"><tspan x="0" dy="0">This level is unfinished and</tspan><tspan x="0" dy="24.86px">selecting a star here may</tspan><tspan x="0" dy="24.86px">cause errors.</tspan></text><text transform="translate(86,55.01)" font-size="22" xml:space="preserve" data-paper-data="{&quot;origPos&quot;:null}" fill="#ff0000" fill-rule="nonzero" stroke="none" stroke-width="1" stroke-linecap="butt" stroke-linejoin="miter" stroke-miterlimit="10" stroke-dasharray="" stroke-dashoffset="0" font-family="Sans Serif" font-weight="400" text-anchor="start" style="mix-blend-mode: normal"><tspan x="0" dy="0">This level is unfinished and</tspan><tspan x="0" dy="24.86px">selecting a star here may</tspan><tspan x="0" dy="24.86px">cause errors.</tspan></text><path d="M224.75481,212.20254c3.08256,1.6747 4.77958,5.8656 5.68732,9.4132c0.69423,2.71565 0.48291,5.74958 -0.20827,8.5674c-2.87312,0.00792 -5.74165,0.00625 -8.60145,-0.01705c-1.91916,-0.01564 -3.78773,-0.1366 -5.61434,-0.2859c-2.43075,-0.78818 -5.02467,-1.2141 -7.71807,-1.2141c-1.29497,0 -2.56694,0.09846 -3.80884,0.2883c-0.01526,-0.16674 -0.02636,-0.33616 -0.0332,-0.50827c-0.10649,-2.68972 0.91453,-6.12045 2.47554,-8.76668c1.66989,-2.8321 3.83077,-5.81096 6.8886,-7.03536c3.33701,-1.45972 7.73292,-2.18279 10.93273,-0.4415z" data-paper-data="{&quot;origPos&quot;:null,&quot;index&quot;:null}" fill="#ff9ad9" stroke="none" stroke-width="1" stroke-linecap="round"/><g data-paper-data="{&quot;origPos&quot;:null,&quot;index&quot;:null}" stroke-width="1"><path d="M249.57163,210.63633c2.79341,2.89749 4.54547,7.2954 4.52353,11.3168c-0.01413,2.63419 -0.22663,5.45722 -0.82743,8.19044c-9.71891,-0.09027 -19.51153,0.07823 -29.21733,0.03733c-0.62447,-2.75203 -0.86001,-5.58001 -0.8295,-8.22776c0.04787,-4.01901 1.73013,-8.41931 4.52393,-11.3168c2.7946,-2.8979 6.65448,-4.69224 10.91319,-4.69224c4.25912,0 8.11859,1.79432 10.91359,4.69224z" fill="#ff9ad9" stroke="none" stroke-linecap="round"/><path d="M243.01007,215.24562c1.0222,1.37117 1.65435,3.26482 1.65435,5.35509c0,2.09027 -0.63215,3.98391 -1.65435,5.35509c-1.021,1.37198 -2.43247,2.22069 -3.9887,2.22069c-1.55663,0 -2.96811,-0.8487 -3.9891,-2.22069c-1.0222,-1.37117 -1.65435,-3.26482 -1.65435,-5.35509c0,-2.09027 0.63215,-3.98392 1.65435,-5.35509c1.021,-1.37237 2.43247,-2.22068 3.9891,-2.22068c1.55624,0 2.9677,0.84831 3.9887,2.22068z" fill="#4eddff" stroke="#ffe741" stroke-linecap="butt"/><path d="M242.10711,216.65229c0.41399,0.64731 0.67004,1.54029 0.67004,2.52579c0,0.98591 -0.25605,1.87888 -0.67004,2.52619c-0.41399,0.64731 -0.98591,1.04734 -1.61686,1.04734c-0.63136,0 -1.20287,-0.40002 -1.61686,-1.04734c-0.41399,-0.64731 -0.67004,-1.54028 -0.67004,-2.52619c0,-0.9855 0.25605,-1.8785 0.67004,-2.52579c0.41399,-0.64731 0.9855,-1.04733 1.61686,-1.04733c0.63095,0 1.20287,0.40002 1.61686,1.04733z" fill="#a0ffff" stroke="none" stroke-linecap="butt"/></g><g data-paper-data="{&quot;origPos&quot;:null,&quot;index&quot;:null}" stroke="none" stroke-width="1"><path d="M250.37228,157.20127l-19.58609,-1.03416l-1.32359,-13.41205l4.45351,2.87652l6.96462,-6.20175l3.84152,6.77232l8.92971,-2.37303z" fill="url(#color-3)" stroke-linecap="round"/><path d="M241.4249,146.61988c0.39656,0.62235 0.61768,1.463 0.56945,2.3761c-0.04823,0.9131 -0.3566,1.72581 -0.81645,2.30293c-0.45978,0.57579 -1.06973,0.91604 -1.72214,0.88162c-0.65241,-0.03449 -1.22308,-0.43711 -1.6197,-1.05804c-0.39648,-0.62241 -0.6176,-1.463 -0.56938,-2.3761c0.04823,-0.91316 0.3566,-1.72582 0.81645,-2.303c0.45978,-0.57572 1.06973,-0.91604 1.72214,-0.88162c0.65236,0.03449 1.22307,0.43711 1.61962,1.05811z" fill="#ff4949" stroke-linecap="butt"/><path d="M232.56076,147.63991c0.24961,0.53176 0.41783,1.2707 0.44553,2.09229c0.02776,0.8216 -0.09025,1.57019 -0.30344,2.11755c-0.21325,0.54623 -0.52097,0.89122 -0.87355,0.9031c-0.35259,0.01188 -0.68291,-0.31157 -0.9325,-0.84213c-0.24961,-0.53176 -0.41775,-1.27076 -0.44551,-2.09229c-0.02776,-0.8216 0.09024,-1.57019 0.30343,-2.11755c0.21325,-0.54623 0.52102,-0.89122 0.87361,-0.9031c0.35259,-0.01195 0.68285,0.31157 0.93246,0.84213z" fill="#4dddff" stroke-linecap="butt"/><path d="M249.83251,148.83899c0.21332,0.59613 0.26121,1.36643 0.09305,2.17106c-0.16823,0.80463 -0.52068,1.49128 -0.95491,1.95207c-0.43398,0.45965 -0.94878,0.69365 -1.44206,0.59052c-0.49333,-0.10312 -0.87129,-0.52375 -1.08487,-1.11875c-0.21332,-0.59613 -0.26121,-1.36643 -0.09305,-2.17106c0.16823,-0.80463 0.5207,-1.49128 0.95493,-1.95207c0.43398,-0.4596 0.94879,-0.69365 1.44206,-0.59053c0.49333,0.10312 0.87128,0.52376 1.08486,1.11875z" fill="#4dddff" stroke-linecap="butt"/></g><path d="M264.62712,200.92782c1.96744,1.54062 4.91498,-1.07869 7.38205,-1.65785c0.91238,-0.21347 3.28463,-1.4716 2.78305,-0.43544c-2.03391,3.74104 -4.01112,8.4095 -7.98518,10.23969c-4.73703,2.18228 -10.63908,1.51593 -15.98125,0.93167c-2.59311,-0.35602 -5.34587,-1.63407 -7.08297,-3.66528c-1.99275,-2.33102 -3.54683,-5.66922 -2.95491,-8.64673c1.65489,-8.31725 2.77347,-17.9337 8.9334,-23.75442c3.71152,-3.34347 12.34414,-2.42474 14.97531,1.55716c2.99016,4.53474 -3.04615,10.44921 -2.99453,15.92185c-0.07463,3.23209 0.12516,7.31212 2.92502,9.50934z" data-paper-data="{&quot;origPos&quot;:null,&quot;index&quot;:null}" fill="url(#color-4)" stroke="none" stroke-width="1" stroke-linecap="round"/><path d="M215.25508,189.13714c0.79656,-4.81043 0.52889,-10.5877 3.54868,-14.15564c1.88983,-2.22116 6.53069,-1.91026 8.53671,0.31941c3.90362,4.34834 5.42278,10.69191 6.48423,16.59233c0.80158,3.76215 0.2838,7.99335 -1.07186,11.48397c-1.02911,2.63193 -2.91369,5.63102 -5.39246,6.21671c-4.67593,1.09278 -10.17371,1.52641 -14.32206,-1.07479c-3.52656,-2.20986 -4.61534,-7.81034 -5.81697,-11.8485c-0.31429,-1.10951 2.13472,1.46711 3.33444,1.53355c1.72769,0.09256 4.27806,0.34251 5.20501,-1.41702c1.11194,-2.17356 -0.9206,-5.13951 -0.50567,-7.65004z" data-paper-data="{&quot;origPos&quot;:null,&quot;index&quot;:null}" fill="url(#color-5)" stroke="none" stroke-width="1" stroke-linecap="round"/><path d="M257.1606,171.47924c3.45844,4.69589 1.84394,11.67091 1.10109,17.35609c-0.57511,4.32497 -2.10145,8.91148 -4.95219,11.89129c-4.07028,4.25073 -9.24135,9.15223 -14.95372,9.14627c-5.40448,-0.00734 -9.99935,-4.84931 -13.80911,-8.81713c-2.74282,-2.84412 -4.52629,-7.18917 -4.88786,-11.3834c-0.69308,-6.18559 -2.25099,-13.84333 1.82394,-18.75436c4.27344,-5.14441 12.31608,-5.94333 18.84901,-5.9133c5.99035,0.16613 13.20675,1.56244 16.82885,6.47453z" data-paper-data="{&quot;origPos&quot;:null,&quot;index&quot;:null}" fill="#ffe6bd" stroke="none" stroke-width="1" stroke-linecap="round"/><path d="M249.89415,182.10259c0.75761,1.06946 1.18659,2.51438 1.10388,4.07991c-0.08265,1.56553 -0.66137,2.95724 -1.52738,3.94097c-0.86735,0.98361 -2.07174,1.39816 -3.26346,1.49508c-1.49502,0.12153 -3.31222,0.31545 -4.26013,-0.76675c-1.07319,-1.22287 -1.07659,-3.10857 -0.84166,-4.58211c0.32699,-1.72869 1.33086,-3.34858 2.43747,-4.50241c0.83139,-0.86635 2.02478,-1.56053 3.26345,-1.49509c1.23862,0.06537 2.32888,0.76095 3.08783,1.83041z" data-paper-data="{&quot;origPos&quot;:null,&quot;index&quot;:null}" fill="#ffffff" stroke="none" stroke-width="1" stroke-linecap="round"/><path d="M230.826,180.27918c1.23862,0.06537 2.35229,0.88136 3.08783,1.83048c0.97893,1.26396 1.80666,2.9805 1.9498,4.73407c0.07844,1.49002 -0.12355,3.36491 -1.31952,4.46798c-1.05665,0.97634 -2.8433,0.59212 -4.31725,0.31384c-1.17485,-0.22186 -2.32887,-0.76094 -3.08782,-1.83047c-0.75761,-1.06939 -1.18659,-2.51431 -1.10387,-4.07984c0.08265,-1.56553 0.66136,-2.95723 1.52737,-3.94097c0.86735,-0.98361 2.02477,-1.56053 3.26344,-1.49509z" data-paper-data="{&quot;origPos&quot;:null,&quot;index&quot;:null}" fill="#ffffff" stroke="none" stroke-width="1" stroke-linecap="round"/><path d="M247.06064,184.13784c0.48866,0.72373 0.76342,1.70359 0.70732,2.76579c-0.05609,1.06212 -0.43243,2.00764 -0.99468,2.67588c-0.56224,0.66943 -1.31172,1.06272 -2.11277,1.02042c-0.80097,-0.04228 -1.5049,-0.51228 -1.99356,-1.23721c-0.48866,-0.72373 -0.76336,-1.70366 -0.70732,-2.76579c0.05609,-1.06218 0.43251,-2.0077 0.99469,-2.67594c0.56224,-0.66943 1.31173,-1.06272 2.11276,-1.02044c0.80097,0.04228 1.5049,0.51236 1.99356,1.23729z" data-paper-data="{&quot;origPos&quot;:null,&quot;index&quot;:null}" fill="#4eddff" stroke="none" stroke-width="1" stroke-linecap="butt"/><path d="M234.28344,184.32046c0.4906,0.68711 0.76795,1.61635 0.71486,2.62258c-0.05317,1.00628 -0.42684,1.9011 -0.98708,2.53272c-0.5603,0.63275 -1.30865,1.00329 -2.10963,0.96099c-0.80104,-0.04228 -1.50616,-0.48961 -1.99669,-1.17779c-0.49067,-0.68711 -0.76803,-1.61635 -0.71487,-2.62258c0.05309,-1.00628 0.42677,-1.9011 0.98708,-2.53272c0.5603,-0.63275 1.30858,-1.00329 2.10963,-0.96099c0.80097,0.04228 1.50609,0.48961 1.99669,1.17779z" data-paper-data="{&quot;origPos&quot;:null,&quot;index&quot;:null}" fill="#4eddff" stroke="none" stroke-width="1" stroke-linecap="butt"/><path d="M245.96496,185.30754c0.29737,0.52403 0.46025,1.23588 0.41943,2.00877c-0.04075,0.77289 -0.27768,1.46361 -0.62868,1.9534c-0.351,0.49094 -0.81466,0.78104 -1.30907,0.75495c-0.49434,-0.02614 -0.92491,-0.36342 -1.22227,-0.88863c-0.29743,-0.52403 -0.4603,-1.23588 -0.41948,-2.00876c0.04082,-0.77282 0.27775,-1.46359 0.62867,-1.95334c0.35106,-0.49101 0.81472,-0.7811 1.30906,-0.75494c0.49441,0.02609 0.92498,0.36338 1.22233,0.88854z" data-paper-data="{&quot;origPos&quot;:null,&quot;index&quot;:null}" fill="#0f1f43" stroke="none" stroke-width="1" stroke-linecap="butt"/><path d="M233.49559,185.31386c0.29775,0.51789 0.46106,1.22127 0.42078,1.98481c-0.04035,0.76354 -0.27683,1.44587 -0.62748,1.92953c-0.35065,0.48487 -0.81412,0.77117 -1.30853,0.74508c-0.49434,-0.02614 -0.9251,-0.35968 -1.2228,-0.87876c-0.2977,-0.51789 -0.46106,-1.22128 -0.42076,-1.98483c0.04035,-0.76354 0.27683,-1.44586 0.62748,-1.92952c0.35065,-0.48487 0.81412,-0.77117 1.30853,-0.74508c0.49441,0.02614 0.92511,0.35967 1.22281,0.87876z" data-paper-data="{&quot;origPos&quot;:null,&quot;index&quot;:null}" fill="#0f1f43" stroke="none" stroke-width="1" stroke-linecap="butt"/><path d="M240.05821,194.11262c0,0 -0.88923,1.74797 -1.69539,1.75403c-0.79266,0.0074 -1.61863,-1.76269 -1.61863,-1.76269" data-paper-data="{&quot;origPos&quot;:null,&quot;index&quot;:null}" fill="none" stroke="#e1cba6" stroke-width="1" stroke-linecap="round"/><path d="M220.87634,188.87091c0.38261,0.42384 0.60307,0.99489 0.57059,1.60948c-0.03242,0.61461 -0.31177,1.15931 -0.73694,1.54051c-0.42384,0.38262 -0.99487,0.60306 -1.60948,0.57057c-0.61461,-0.03242 -1.15931,-0.31178 -1.54045,-0.73694c-0.38269,-0.42384 -0.60307,-0.99488 -0.57065,-1.60948c0.03249,-0.61461 0.31185,-1.15931 0.73694,-1.54051c0.42384,-0.38262 0.99488,-0.60306 1.60948,-0.57057c0.61461,0.03242 1.15931,0.31177 1.54051,0.73694z" data-paper-data="{&quot;origPos&quot;:null,&quot;index&quot;:null}" fill="#4eddff" stroke="none" stroke-width="1" stroke-linecap="butt"/><path d="M220.83291,178.76992c0.57899,1.10189 0.91137,2.60889 0.86032,4.2597c-0.05097,1.65081 -0.47576,3.13439 -1.1217,4.19841c-0.64452,1.06405 -1.51027,1.70855 -2.44317,1.6797c-0.93289,-0.02877 -1.75717,-0.72552 -2.33476,-1.82737c-0.57899,-1.10183 -0.91137,-2.60888 -0.86032,-4.25962c0.05097,-1.65081 0.47576,-3.13439 1.1217,-4.19848c0.64452,-1.06405 1.51027,-1.70854 2.44317,-1.67969c0.93284,0.02885 1.75717,0.72552 2.33476,1.82737z" data-paper-data="{&quot;origPos&quot;:null,&quot;index&quot;:null}" fill="#ffe6bd" stroke="none" stroke-width="1" stroke-linecap="butt"/><path d="M259.63096,191.83921c0.38261,0.42384 0.60306,0.99488 0.57057,1.60948c-0.03242,0.61461 -0.31177,1.15931 -0.73693,1.54051c-0.42384,0.38262 -0.99488,0.60306 -1.60948,0.57057c-0.6146,-0.03242 -1.15931,-0.31177 -1.54045,-0.73693c-0.38269,-0.42384 -0.60308,-0.99489 -0.57066,-1.6095c0.03249,-0.61461 0.31184,-1.15931 0.73693,-1.54051c0.42384,-0.38262 0.99489,-0.60306 1.60948,-0.57057c0.6146,0.03242 1.15931,0.31177 1.54051,0.73693z" data-paper-data="{&quot;origPos&quot;:null,&quot;index&quot;:null}" fill="#4eddff" stroke="none" stroke-width="1" stroke-linecap="butt"/><path d="M261.62428,181.48094c0.579,1.10189 0.91138,2.60889 0.86034,4.2597c-0.05099,1.65081 -0.47577,3.13439 -1.12171,4.19841c-0.64452,1.06405 -1.51028,1.70854 -2.44317,1.67971c-0.93289,-0.02877 -1.75717,-0.72553 -2.33476,-1.82738c-0.57899,-1.10183 -0.91138,-2.60889 -0.86033,-4.25964c0.05097,-1.65081 0.47577,-3.13439 1.12171,-4.19848c0.64452,-1.06405 1.51027,-1.70853 2.44317,-1.6797c0.93284,0.02885 1.75717,0.72551 2.33476,1.82737z" data-paper-data="{&quot;origPos&quot;:null,&quot;index&quot;:null}" fill="#ffe6bd" stroke="none" stroke-width="1" stroke-linecap="butt"/><path d="M222.46001,171.12615c0.57378,3.44776 -0.07198,7.34042 0.12621,10.43653c0.16282,2.48329 0.28708,5.02963 0.96206,7.43295c0.64982,2.31534 3.13538,4.77777 3.02026,6.93214c-0.06077,0.97206 -2.58861,-0.04863 -3.68603,-0.73641c-1.70134,-1.17892 -3.54301,-2.57375 -4.3608,-4.63249c-1.13896,-2.87758 -0.89415,-6.15344 -0.8658,-9.25654c0.02868,-2.72376 0.31197,-6.08835 1.15323,-9.01442c0.26321,-0.90583 0.91496,-2.21913 1.90931,-2.81141c0.74441,0.03656 1.59955,0.82397 1.74157,1.64962z" data-paper-data="{&quot;origPos&quot;:null,&quot;index&quot;:null}" fill="url(#color-6)" stroke="none" stroke-width="1" stroke-linecap="round"/><path d="M258.11174,170.73011c0.92645,0.69372 1.43632,2.06833 1.60268,2.99685c0.52843,2.99839 0.45586,6.3741 0.19751,9.08579c-0.29858,3.08884 -0.40008,6.37225 -1.83574,9.11389c-1.03003,1.96114 -3.00833,3.15432 -4.8244,4.14747c-1.16377,0.56845 -3.785,1.31726 -3.74312,0.34419c0.11239,-2.15452 2.84351,-4.34152 3.73353,-6.57554c0.92431,-2.31888 1.31605,-4.83793 1.73948,-7.29035c0.52309,-3.05795 0.29083,-6.99705 1.22454,-10.36517c0.22812,-0.80611 1.16143,-1.49909 1.90551,-1.45714z" data-paper-data="{&quot;index&quot;:null}" fill="url(#color-7)" stroke="none" stroke-width="1" stroke-linecap="round"/><path d="M252.79585,156.40348c3.02229,1.76745 4.36527,5.57964 7.27206,7.47102c2.37133,1.54817 6.64742,-0.10661 8.24322,1.86161c1.04275,1.2909 -3.47331,3.06363 -3.06385,4.72107c0.37116,1.45301 4.18952,-0.38775 4.39144,1.10106c0.39065,2.87071 -0.49802,6.95053 -3.08047,8.5761c-2.86769,1.57837 -7.07097,0.75949 -9.93807,-0.92204c-3.08168,-1.8069 -4.29432,-5.73891 -6.38795,-8.61696c-0.55963,-0.72471 -0.52272,-1.75126 -1.00841,-1.42466c-1.48952,1.01082 -1.8596,3.06794 -3.26497,4.31443c-2.37088,2.11751 -4.37335,5.7002 -7.59978,5.78368c-2.83281,0.07302 -4.74337,-3.23168 -6.60485,-5.37148c-1.56401,-1.80716 -1.9609,-4.50607 -3.69325,-6.1705c-0.38754,-0.47381 -0.59711,0.77383 -1.02058,1.4159c-1.68287,2.55057 -2.28427,6.1826 -4.903,7.75664c-2.11563,1.27044 -5.35961,1.02654 -7.43806,-0.37029c-2.28446,-1.60735 -4.38947,-4.67477 -4.02581,-7.45695c0.31308,-2.03031 5.07453,-1.09812 5.55656,-2.47844c0.36988,-1.0819 -4.22871,-1.80105 -3.50517,-2.72046c1.24839,-1.54067 5.22394,-0.9338 7.44911,-2.19973c3.08759,-1.75598 4.76078,-5.20076 8.28022,-6.72756c3.73902,-1.62467 7.89375,-2.42787 12.04805,-2.17994c4.26116,0.25509 8.60866,1.48307 12.29353,3.63752z" data-paper-data="{&quot;index&quot;:null}" fill="url(#color-8)" stroke="none" stroke-width="1" stroke-linecap="round"/><g data-paper-data="{&quot;index&quot;:null}" fill="none" stroke="#000000" stroke-width="1" stroke-linecap="round"><path d="M226.14027,182.8231c0,0 2.6764,-2.10649 4.31864,-2.32189c1.08453,-0.14155 3.07282,1.35381 3.07282,1.35381"/><path d="M227.73141,181.3843c0,0 -1.316,-0.62373 -1.92913,-1.01074c-0.44359,-0.27696 -1.09654,-0.93018 -1.09654,-0.93018"/><path d="M229.1151,180.3492c0,0 -1.2038,-0.81966 -1.74983,-1.29678c-0.39534,-0.34212 -0.93958,-1.0884 -0.93958,-1.0884"/><path d="M231.17958,180.29204c0,0 -0.92571,-1.12428 -1.31606,-1.73535c-0.28355,-0.43931 -0.59673,-1.30819 -0.59673,-1.30819"/></g><g data-paper-data="{&quot;index&quot;:null}" fill="none" stroke="#000000" stroke-width="1" stroke-linecap="round"><path d="M243.43953,181.53673c0,0 2.13471,-1.27763 3.1983,-1.02263c1.61042,0.38715 4.05008,2.76372 4.05008,2.76372"/><path d="M252.4753,180.0826c0,0 -0.71812,0.58078 -1.18838,0.80952c-0.6505,0.32024 -2.0249,0.80197 -2.0249,0.80197"/><path d="M251.19387,178.15647c0,0 -0.61972,0.68483 -1.04897,0.98347c-0.5932,0.4169 -1.87664,1.10528 -1.87664,1.10528"/><path d="M248.33816,177.13431c0,0 -0.40288,0.83106 -0.7312,1.23808c-0.45253,0.56652 -1.4915,1.58707 -1.4915,1.58707"/></g><g data-paper-data="{&quot;index&quot;:null}" stroke-width="1" stroke-linecap="round"><path d="M240.91591,199.65287c0.86058,0.2842 2.91105,0.06238 2.75406,0.81283c-0.269,1.28517 -2.03986,2.81557 -3.60574,3.40104c-1.44145,0.4683 -3.2331,0.1752 -4.5795,-0.53598c-1.16125,-0.6131 -2.43949,-2.17646 -2.2255,-3.20146c0.17957,-0.83128 2.01815,-0.40675 3.0245,-0.68482c0.77605,-0.21449 1.44338,-0.63188 2.34743,-0.59122c0.90398,0.04065 1.51894,0.54742 2.28476,0.79961z" fill="#ffa2bf" stroke="none"/><path d="M242.87593,201.19764c0,0 -2.68763,1.23311 -4.32034,1.22736c-1.53161,-0.02423 -4.40752,-1.3492 -4.40752,-1.3492" fill="none" stroke="#cc8198"/></g><path d="M254.64857,212.6506c3.1998,-1.7413 7.59572,-1.01822 10.93273,0.4415c3.05783,1.2244 5.21871,4.20327 6.8886,7.03536c1.56101,2.64623 2.58202,6.07697 2.47553,8.76668c-0.02461,0.61908 -0.10431,1.20342 -0.23454,1.75288c-5.75775,-0.55143 -11.62935,-0.33544 -16.41209,-0.43106c-3.07448,-0.06147 -6.15918,-0.08872 -9.24897,-0.09674c-0.59367,-2.67058 -0.74095,-5.50356 -0.08857,-8.05546c0.90774,-3.5476 2.60475,-7.7385 5.68731,-9.4132z" data-paper-data="{&quot;index&quot;:null}" fill="#ff9ad9" stroke="none" stroke-width="1" stroke-linecap="round"/><path d="M187.084,126.5625h106v106h-106z" data-paper-data="{&quot;origPos&quot;:null}" fill="none" stroke="#995900" stroke-width="9" stroke-linecap="butt"/></g></g></svg>