<svg version="1.1" xmlns="http://www.w3.org/2000/svg" xmlns:xlink="http://www.w3.org/1999/xlink" width="494.5576" height="372.0349" viewBox="0,0,494.5576,372.0349"><defs><linearGradient x1="0" y1="0" x2="0" y2="360" gradientUnits="userSpaceOnUse" id="color-1"><stop offset="0" stop-color="#847cff"/><stop offset="1" stop-color="#7ceeff"/></linearGradient><radialGradient cx="116.57452" cy="67.26091" r="72.26671" gradientUnits="userSpaceOnUse" id="color-2"><stop offset="0" stop-color="#ffffff" stop-opacity="0"/><stop offset="1" stop-color="#ffffff"/></radialGradient><radialGradient cx="117.43149" cy="67.683" r="72.26672" gradientUnits="userSpaceOnUse" id="color-3"><stop offset="0" stop-color="#ffffff"/><stop offset="1" stop-color="#ffffff" stop-opacity="0"/></radialGradient><radialGradient cx="86.28924" cy="80.47356" r="72.26671" gradientUnits="userSpaceOnUse" id="color-4"><stop offset="0" stop-color="#ffffff" stop-opacity="0"/><stop offset="1" stop-color="#ffffff"/></radialGradient><radialGradient cx="87.1462" cy="80.89565" r="72.26671" gradientUnits="userSpaceOnUse" id="color-5"><stop offset="0" stop-color="#ffffff"/><stop offset="1" stop-color="#ffffff" stop-opacity="0"/></radialGradient><radialGradient cx="356.41047" cy="58.7474" r="72.26672" gradientUnits="userSpaceOnUse" id="color-6"><stop offset="0" stop-color="#ffffff" stop-opacity="0"/><stop offset="1" stop-color="#ffffff"/></radialGradient><radialGradient cx="355.5535" cy="59.16948" r="72.26671" gradientUnits="userSpaceOnUse" id="color-7"><stop offset="0" stop-color="#ffffff"/><stop offset="1" stop-color="#ffffff" stop-opacity="0"/></radialGradient><radialGradient cx="386.69576" cy="71.96005" r="72.26671" gradientUnits="userSpaceOnUse" id="color-8"><stop offset="0" stop-color="#ffffff" stop-opacity="0"/><stop offset="1" stop-color="#ffffff"/></radialGradient><radialGradient cx="385.83879" cy="72.38214" r="72.26671" gradientUnits="userSpaceOnUse" id="color-9"><stop offset="0" stop-color="#ffffff"/><stop offset="1" stop-color="#ffffff" stop-opacity="0"/></radialGradient><linearGradient x1="567.8995" y1="308.00442" x2="567.8995" y2="406.00442" gradientUnits="userSpaceOnUse" id="color-10"><stop offset="0" stop-color="#000000" stop-opacity="0"/><stop offset="1" stop-color="#000000"/></linearGradient></defs><g transform="translate(7.5075,0)"><g data-paper-data="{&quot;isPaintingLayer&quot;:true}" fill-rule="nonzero" stroke-linejoin="miter" stroke-miterlimit="10" stroke-dasharray="" stroke-dashoffset="0" style="mix-blend-mode: normal"><path d="M0,0h480v360h-480z" data-paper-data="{&quot;origPos&quot;:null}" fill="url(#color-1)" stroke="none" stroke-width="1" stroke-linecap="butt"/><g data-paper-data="{&quot;index&quot;:null}" stroke="none" stroke-width="0" stroke-linecap="butt"><g><path d="M44.30781,67.26091c0,-17.66009 32.35491,-31.97642 72.26671,-31.97642c39.91181,0 72.26671,14.31634 72.26671,31.97643c0,17.66009 -32.3549,31.97642 -72.26671,31.97642c-39.9118,0 -72.26671,-14.31633 -72.26671,-31.97642z" fill="url(#color-2)"/><path d="M45.16478,67.683c0,-17.66009 32.35492,-31.97642 72.26672,-31.97642c39.9118,0 72.26671,14.31633 72.26671,31.97642c0,17.66009 -32.35491,31.97642 -72.26671,31.97642c-39.9118,0 -72.26672,-14.31633 -72.26672,-31.97642z" fill="url(#color-3)"/></g><g><path d="M14.02253,80.47356c0,-17.66009 32.35491,-31.97642 72.26671,-31.97642c39.9118,0 72.26671,14.31633 72.26671,31.97642c0,17.66009 -32.35491,31.97642 -72.26671,31.97642c-39.9118,0 -72.26671,-14.31633 -72.26671,-31.97642z" fill="url(#color-4)"/><path d="M14.87949,80.89565c0,-17.66009 32.35491,-31.97642 72.26671,-31.97642c39.9118,0 72.26672,14.31633 72.26672,31.97642c0,17.66009 -32.35492,31.97642 -72.26672,31.97642c-39.9118,0 -72.26671,-14.31633 -72.26671,-31.97642z" fill="url(#color-5)"/></g></g><g stroke="none" stroke-width="0" stroke-linecap="butt"><g><path d="M428.67718,58.7474c0,-17.66009 -32.35491,-31.97642 -72.26672,-31.97642c-39.91181,0 -72.26671,14.31633 -72.26671,31.97642c0,17.66009 32.3549,31.97642 72.26671,31.97642c39.91181,0 72.26672,-14.31633 72.26672,-31.97642z" fill="url(#color-6)"/><path d="M427.82021,59.16948c0,-17.66009 -32.35491,-31.97642 -72.26671,-31.97642c-39.9118,0 -72.26671,14.31633 -72.26671,31.97642c0,17.66009 32.35491,31.97643 72.26671,31.97643c39.9118,0 72.26671,-14.31633 72.26671,-31.97642z" fill="url(#color-7)"/></g><g><path d="M458.96247,71.96005c0,-17.66009 -32.35491,-31.97642 -72.26671,-31.97642c-39.9118,0 -72.26672,14.31633 -72.26672,31.97642c0,17.66009 32.35492,31.97642 72.26672,31.97642c39.9118,0 72.26671,-14.31633 72.26671,-31.97642z" fill="url(#color-8)"/><path d="M458.1055,72.38214c0,-17.66009 -32.35491,-31.97642 -72.26671,-31.97642c-39.9118,0 -72.26671,14.31633 -72.26671,31.97642c0,17.66009 32.35491,31.97642 72.26671,31.97642c39.9118,0 72.26671,-14.31633 72.26671,-31.97642z" fill="url(#color-9)"/></g></g><path d="M366.93811,214.5h29v145.5h-29z" fill="#91ede6" stroke="none" stroke-width="0.99156" stroke-linecap="butt"/><path d="M116.5,169h27v191h-27z" fill="#91ede6" stroke="none" stroke-width="1" stroke-linecap="butt"/><path d="M203.50001,119.5h100.5v240.5h-100.5z" fill="#91ede6" stroke="none" stroke-width="1" stroke-linecap="butt"/><path d="M0,187h115v173h-115z" fill="#8a8e8b" stroke="#626462" stroke-width="2" stroke-linecap="butt"/><path d="M144,135h59v225h-59z" fill="#8a8e8b" stroke="#626462" stroke-width="2" stroke-linecap="butt"/><path d="M397.00001,236h83v124h-83z" fill="#8a8e8b" stroke="#626462" stroke-width="2" stroke-linecap="butt"/><path d="M-5,168c0,-1.587 3.389,0.537 5,0c1.787,-0.596 2.315,-3.158 4,-4c3.11,-1.555 6.702,-1.901 10,-3c0.825,-0.275 0.924,-0.857 2,-1c4.304,-0.574 8.659,-0.911 13,-1c11.986,-0.245 24.015,-0.285 36,0c2.996,0.071 3.984,0.798 6,1c7.98,0.798 16.033,1.081 24,2c1.992,0.23 1.27,0.854 2,1c2.633,0.527 5.379,0.418 8,1c3.394,0.754 7.107,1.072 10,3c3.336,2.224 5.564,5.815 8,9c1.908,2.495 3.595,5.19 5,8c0.351,0.702 0,1.334 0,2c0,1.665 0.49,3.409 0,5c-0.876,2.847 -1.963,5.827 -4,8c-3.098,3.304 -6.87,6.141 -11,8c-2.75,1.237 -6.012,1.407 -9,1c-4.488,-0.612 -8.826,-2.242 -13,-4c-2.213,-0.932 -3.629,-3.621 -6,-4c-6.248,-1 -12.796,-1.241 -19,0c-4.091,0.818 -6.978,4.89 -11,6c-5.814,1.604 -11.991,2.515 -18,2c-5.879,-0.504 -11.214,-3.843 -17,-5c-2.612,-0.522 -5.393,-0.549 -8,0c-3.814,0.803 -7.617,5.41 -11,4c-2.617,-1.09 -0.916,-5.986 -1,-9c-0.25,-8.988 1.432,-18.124 0,-27c-0.358,-2.219 -5,-3.413 -5,-4z" data-paper-data="{&quot;origPos&quot;:null}" fill="#4ec8a5" stroke="#36876d" stroke-width="2" stroke-linecap="round"/><path d="M154,122c2.967,0.539 5.989,0.842 9,1c3.325,0.175 6.715,0.547 10,0c2.806,-0.468 5.171,-2.697 8,-3c6.622,-0.71 13.34,0 20,0c1.665,0 1.483,-0.591 2,0c2.069,2.364 5.915,4.995 5,8c-1.862,6.12 -6.017,12.736 -12,15c-7.792,2.949 -16.673,-1.269 -25,-1c-2.105,0.068 -3.896,2.091 -6,2c-5.743,-0.25 -12.674,0.785 -17,-3c-4.84,-4.235 -8.261,-11.694 -7,-18c0.73,-3.651 7.288,-1.714 11,-2c0.928,-0.071 1.258,0.865 2,1z" fill="#4ec8a5" stroke="#36876d" stroke-width="2" stroke-linecap="round"/><path d="M399.00001,245c-2.991,0.354 -5.275,0.062 -7,-1c-2.808,-1.728 -6.285,-3.782 -7,-7c-1.447,-6.51 -1.109,-13.674 1,-20c0.849,-2.547 4.723,-2.577 7,-4c3.054,-1.909 4.411,-5.857 9,-6c18.354,-0.574 36.692,2.573 55,4c7.334,0.571 14.753,0.74 22,2c1.812,0.315 0.878,1.266 1,2c0.219,1.314 -0.419,1.231 0,4c1.678,11.076 7.422,25.175 5,33.65c-0.703,3.65 -6.393,-8.411 -11.25,-9.4c-4.646,-0.933 -9.027,4.989 -13.75,3.75c-3.217,-0.842 -1.967,-8.079 -5.25,-8.5c-6.251,-0.408 -11.495,6.461 -17.75,6.5c-8.033,0.049 -15.483,-5.372 -23.5,-5.5c-5.474,0.128 -10.199,4.551 -15.5,5.5z" fill="#4ec8a5" stroke="#36876d" stroke-width="2" stroke-linecap="round"/><path d="M305.00001,137h61v223h-61z" data-paper-data="{&quot;origPos&quot;:null}" fill="#8a8e8b" stroke="#626462" stroke-width="2" stroke-linecap="butt"/><path d="M314.00001,117c0.977,-0.326 -2.08,-0.917 0,-1c8.318,-0.333 16.678,-0.219 25,0c4.34,0.114 8.713,0.314 13,1c4.067,0.651 8.135,1.576 12,3c2.519,0.928 5.232,1.98 7,4c0.877,1.002 0,2.668 0,4c0,2.664 1.478,5.783 0,8c-2.255,3.382 -6.489,4.952 -10,7c-0.878,0.512 -1.229,-0.28 -2,0c-3.082,1.121 -5.743,3.617 -9,4c-2.727,0.321 -5.414,-1.076 -8,-2c-2.104,-0.751 -3.78,-2.753 -6,-3c-3.985,-0.443 -8.015,0.557 -12,1c-2.013,0.224 -4.052,1.556 -6,1c-7.611,-2.175 -17.609,-2.414 -22,-9c-2.984,-4.476 2.196,-11.196 6,-15c2.913,-2.913 8.092,-1.697 11,-3z" data-paper-data="{&quot;origPos&quot;:null}" fill="#4ec8a5" stroke="#36876d" stroke-width="2" stroke-linecap="round"/><path d="M123,219.5v-13.5" fill="none" stroke="#99ffff" stroke-width="2" stroke-linecap="round"/><path d="M135.5,252v-38.5" fill="none" stroke="#99ffff" stroke-width="2" stroke-linecap="round"/><path d="M125.5,240v41.5" fill="none" stroke="#99ffff" stroke-width="2" stroke-linecap="round"/><path d="M135,305.5v-27.5" fill="none" stroke="#99ffff" stroke-width="2" stroke-linecap="round"/><path d="M122,305.5v37.5" fill="none" stroke="#99ffff" stroke-width="2" stroke-linecap="round"/><path d="M134.5,322v17.5" fill="none" stroke="#00ffff" stroke-width="2" stroke-linecap="round"/><path d="M217.50001,131v33.5" fill="none" stroke="#99ffff" stroke-width="2" stroke-linecap="round"/><path d="M236.00001,201.5v-44.5" fill="none" stroke="#99ffff" stroke-width="2" stroke-linecap="round"/><path d="M215.00001,228v-34" fill="none" stroke="#99ffff" stroke-width="2" stroke-linecap="round"/><path d="M238.00001,228v27" fill="none" stroke="#99ffff" stroke-width="2" stroke-linecap="round"/><path d="M220.00001,287v-31" fill="none" stroke="#99ffff" stroke-width="2" stroke-linecap="round"/><path d="M234.00001,288.5v25.5" fill="none" stroke="#99ffff" stroke-width="2" stroke-linecap="round"/><path d="M217.50001,317.5v25" fill="none" stroke="#00ffff" stroke-width="2" stroke-linecap="round"/><path d="M245.50001,333v-28" fill="none" stroke="#00ffff" stroke-width="2" stroke-linecap="round"/><path d="M263.00001,313v-37.5" fill="none" stroke="#99ffff" stroke-width="2" stroke-linecap="round"/><path d="M246.00001,273.5v-26" fill="none" stroke="#99ffff" stroke-width="2" stroke-linecap="round"/><path d="M271.50001,217.5v37" fill="none" stroke="#99ffff" stroke-width="2" stroke-linecap="round"/><path d="M258.50001,194v28" fill="none" stroke="#99ffff" stroke-width="2" stroke-linecap="round"/><path d="M281.00001,194.5v-47" fill="none" stroke="#99ffff" stroke-width="2" stroke-linecap="round"/><path d="M263.00001,169v-22.5" fill="none" stroke="#99ffff" stroke-width="2" stroke-linecap="round"/><path d="M244.00001,127v21.5" fill="none" stroke="#99ffff" stroke-width="2" stroke-linecap="round"/><path d="M294.50001,213.5v-40.5" fill="none" stroke="#99ffff" stroke-width="2" stroke-linecap="round"/><path d="M289.00001,235v43" fill="none" stroke="#99ffff" stroke-width="2" stroke-linecap="round"/><path d="M280.00001,295v25.5" fill="none" stroke="#99ffff" stroke-width="2" stroke-linecap="round"/><path d="M291.50001,318.5v22" fill="none" stroke="#00ffff" stroke-width="2" stroke-linecap="round"/><path d="M374.00001,316.5v25.5" fill="none" stroke="#00ffff" stroke-width="2" stroke-linecap="round"/><path d="M386.50001,322v-27.5" fill="none" stroke="#99ffff" stroke-width="2" stroke-linecap="round"/><path d="M379.00001,265v34.5" fill="none" stroke="#99ffff" stroke-width="2" stroke-linecap="round"/><path d="M371.50001,267v-24" fill="none" stroke="#99ffff" stroke-width="2" stroke-linecap="round"/><path d="M389.00001,266.5v-19" fill="none" stroke="#99ffff" stroke-width="2" stroke-linecap="round"/><path d="M379.00001,234v-12.5" fill="none" stroke="#99ffff" stroke-width="2" stroke-linecap="round"/><path d="M109.5,337.5c2.759,0 5.259,1.121 7.069,2.931c1.81,1.81 2.931,4.31 2.931,7.069c0,2.759 -1.121,5.259 -2.931,7.069c-1.81,1.81 -4.31,2.931 -7.069,2.931c-2.759,0 -5.259,-1.121 -7.069,-2.931c-1.81,-1.81 -2.931,-4.31 -2.931,-7.069c0,-2.759 1.121,-5.259 2.931,-7.069c1.81,-1.81 4.31,-2.931 7.069,-2.931z" fill="#ffffff" stroke="none" stroke-width="1" stroke-linecap="butt"/><path d="M117,327.65c2.759,0 5.259,1.121 7.069,2.931c1.81,1.81 2.931,4.31 2.931,7.069c0,2.759 -1.121,5.259 -2.931,7.069c-1.81,1.81 -4.31,2.931 -7.069,2.931c-2.759,0 -5.259,-1.121 -7.069,-2.931c-1.81,-1.81 -2.931,-4.31 -2.931,-7.069c0,-2.759 1.121,-5.259 2.931,-7.069c1.81,-1.81 4.31,-2.931 7.069,-2.931z" fill="#ffffff" stroke="none" stroke-width="1" stroke-linecap="butt"/><path d="M131,337.15c2.759,0 5.259,1.121 7.069,2.931c1.81,1.81 2.931,4.31 2.931,7.069c0,2.759 -1.121,5.259 -2.931,7.069c-1.81,1.81 -4.31,2.931 -7.069,2.931c-2.759,0 -5.259,-1.121 -7.069,-2.931c-1.81,-1.81 -2.931,-4.31 -2.931,-7.069c0,-2.759 1.121,-5.259 2.931,-7.069c1.81,-1.81 4.31,-2.931 7.069,-2.931z" fill="#ffffff" stroke="none" stroke-width="1" stroke-linecap="butt"/><path d="M144,316.65c2.759,0 5.259,1.121 7.069,2.931c1.81,1.81 2.931,4.31 2.931,7.069c0,2.759 -1.121,5.259 -2.931,7.069c-1.81,1.81 -4.31,2.931 -7.069,2.931c-2.759,0 -5.259,-1.121 -7.069,-2.931c-1.81,-1.81 -2.931,-4.31 -2.931,-7.069c0,-2.759 1.121,-5.259 2.931,-7.069c1.81,-1.81 4.31,-2.931 7.069,-2.931z" fill="#ffffff" stroke="none" stroke-width="1" stroke-linecap="butt"/><path d="M129,318.65c2.759,0 5.259,1.121 7.069,2.931c1.81,1.81 2.931,4.31 2.931,7.069c0,2.759 -1.121,5.259 -2.931,7.069c-1.81,1.81 -4.31,2.931 -7.069,2.931c-2.759,0 -5.259,-1.121 -7.069,-2.931c-1.81,-1.81 -2.931,-4.31 -2.931,-7.069c0,-2.759 1.121,-5.259 2.931,-7.069c1.81,-1.81 4.31,-2.931 7.069,-2.931z" fill="#ffffff" stroke="none" stroke-width="1" stroke-linecap="butt"/><path d="M153,334.65c2.759,0 5.259,1.121 7.069,2.931c1.81,1.81 2.931,4.31 2.931,7.069c0,2.759 -1.121,5.259 -2.931,7.069c-1.81,1.81 -4.31,2.931 -7.069,2.931c-2.759,0 -5.259,-1.121 -7.069,-2.931c-1.81,-1.81 -2.931,-4.31 -2.931,-7.069c0,-2.759 1.121,-5.259 2.931,-7.069c1.81,-1.81 4.31,-2.931 7.069,-2.931z" fill="#ffffff" stroke="none" stroke-width="1" stroke-linecap="butt"/><path d="M202.50001,341.65c2.759,0 5.259,1.121 7.069,2.931c1.81,1.81 2.931,4.31 2.931,7.069c0,2.759 -1.121,5.259 -2.931,7.069c-1.81,1.81 -4.31,2.931 -7.069,2.931c-2.759,0 -5.259,-1.121 -7.069,-2.931c-1.81,-1.81 -2.931,-4.31 -2.931,-7.069c0,-2.759 1.121,-5.259 2.931,-7.069c1.81,-1.81 4.31,-2.931 7.069,-2.931z" fill="#ffffff" stroke="none" stroke-width="1" stroke-linecap="butt"/><path d="M229.00001,320.15c2.759,0 5.259,1.121 7.069,2.931c1.81,1.81 2.931,4.31 2.931,7.069c0,2.759 -1.121,5.259 -2.931,7.069c-1.81,1.81 -4.31,2.931 -7.069,2.931c-2.759,0 -5.259,-1.121 -7.069,-2.931c-1.81,-1.81 -2.931,-4.31 -2.931,-7.069c0,-2.759 1.121,-5.259 2.931,-7.069c1.81,-1.81 4.31,-2.931 7.069,-2.931z" fill="#ffffff" stroke="none" stroke-width="1" stroke-linecap="butt"/><path d="M245.50001,332.15c2.759,0 5.259,1.121 7.069,2.931c1.81,1.81 2.931,4.31 2.931,7.069c0,2.759 -1.121,5.259 -2.931,7.069c-1.81,1.81 -4.31,2.931 -7.069,2.931c-2.759,0 -5.259,-1.121 -7.069,-2.931c-1.81,-1.81 -2.931,-4.31 -2.931,-7.069c0,-2.759 1.121,-5.259 2.931,-7.069c1.81,-1.81 4.31,-2.931 7.069,-2.931z" fill="#ffffff" stroke="none" stroke-width="1" stroke-linecap="butt"/><path d="M265.50001,317.65c2.759,0 5.259,1.121 7.069,2.931c1.81,1.81 2.931,4.31 2.931,7.069c0,2.759 -1.121,5.259 -2.931,7.069c-1.81,1.81 -4.31,2.931 -7.069,2.931c-2.759,0 -5.259,-1.121 -7.069,-2.931c-1.81,-1.81 -2.931,-4.31 -2.931,-7.069c0,-2.759 1.121,-5.259 2.931,-7.069c1.81,-1.81 4.31,-2.931 7.069,-2.931z" fill="#ffffff" stroke="none" stroke-width="1" stroke-linecap="butt"/><path d="M292.00001,309.15c2.759,0 5.259,1.121 7.069,2.931c1.81,1.81 2.931,4.31 2.931,7.069c0,2.759 -1.121,5.259 -2.931,7.069c-1.81,1.81 -4.31,2.931 -7.069,2.931c-2.759,0 -5.259,-1.121 -7.069,-2.931c-1.81,-1.81 -2.931,-4.31 -2.931,-7.069c0,-2.759 1.121,-5.259 2.931,-7.069c1.81,-1.81 4.31,-2.931 7.069,-2.931z" fill="#ffffff" stroke="none" stroke-width="1" stroke-linecap="butt"/><path d="M297.00001,331.15c2.759,0 5.259,1.121 7.069,2.931c1.81,1.81 2.931,4.31 2.931,7.069c0,2.759 -1.121,5.259 -2.931,7.069c-1.81,1.81 -4.31,2.931 -7.069,2.931c-2.759,0 -5.259,-1.121 -7.069,-2.931c-1.81,-1.81 -2.931,-4.31 -2.931,-7.069c0,-2.759 1.121,-5.259 2.931,-7.069c1.81,-1.81 4.31,-2.931 7.069,-2.931z" fill="#ffffff" stroke="none" stroke-width="1" stroke-linecap="butt"/><path d="M266.00001,335.65c2.759,0 5.259,1.121 7.069,2.931c1.81,1.81 2.931,4.31 2.931,7.069c0,2.759 -1.121,5.259 -2.931,7.069c-1.81,1.81 -4.31,2.931 -7.069,2.931c-2.759,0 -5.259,-1.121 -7.069,-2.931c-1.81,-1.81 -2.931,-4.31 -2.931,-7.069c0,-2.759 1.121,-5.259 2.931,-7.069c1.81,-1.81 4.31,-2.931 7.069,-2.931z" fill="#ffffff" stroke="none" stroke-width="1" stroke-linecap="butt"/><path d="M253.00001,336.15c2.759,0 5.259,1.121 7.069,2.931c1.81,1.81 2.931,4.31 2.931,7.069c0,2.759 -1.121,5.259 -2.931,7.069c-1.81,1.81 -4.31,2.931 -7.069,2.931c-2.759,0 -5.259,-1.121 -7.069,-2.931c-1.81,-1.81 -2.931,-4.31 -2.931,-7.069c0,-2.759 1.121,-5.259 2.931,-7.069c1.81,-1.81 4.31,-2.931 7.069,-2.931z" fill="#ffffff" stroke="none" stroke-width="1" stroke-linecap="butt"/><path d="M217.50001,339.65c2.759,0 5.259,1.121 7.069,2.931c1.81,1.81 2.931,4.31 2.931,7.069c0,2.759 -1.121,5.259 -2.931,7.069c-1.81,1.81 -4.31,2.931 -7.069,2.931c-2.759,0 -5.259,-1.121 -7.069,-2.931c-1.81,-1.81 -2.931,-4.31 -2.931,-7.069c0,-2.759 1.121,-5.259 2.931,-7.069c1.81,-1.81 4.31,-2.931 7.069,-2.931z" fill="#ffffff" stroke="none" stroke-width="1" stroke-linecap="butt"/><path d="M234.50001,335.15c2.759,0 5.259,1.121 7.069,2.931c1.81,1.81 2.931,4.31 2.931,7.069c0,2.759 -1.121,5.259 -2.931,7.069c-1.81,1.81 -4.31,2.931 -7.069,2.931c-2.759,0 -5.259,-1.121 -7.069,-2.931c-1.81,-1.81 -2.931,-4.31 -2.931,-7.069c0,-2.759 1.121,-5.259 2.931,-7.069c1.81,-1.81 4.31,-2.931 7.069,-2.931z" fill="#ffffff" stroke="none" stroke-width="1" stroke-linecap="butt"/><path d="M275.00001,336.15c2.759,0 5.259,1.121 7.069,2.931c1.81,1.81 2.931,4.31 2.931,7.069c0,2.759 -1.121,5.259 -2.931,7.069c-1.81,1.81 -4.31,2.931 -7.069,2.931c-2.759,0 -5.259,-1.121 -7.069,-2.931c-1.81,-1.81 -2.931,-4.31 -2.931,-7.069c0,-2.759 1.121,-5.259 2.931,-7.069c1.81,-1.81 4.31,-2.931 7.069,-2.931z" fill="#ffffff" stroke="none" stroke-width="1" stroke-linecap="butt"/><path d="M293.50001,336.15c2.759,0 5.259,1.121 7.069,2.931c1.81,1.81 2.931,4.31 2.931,7.069c0,2.759 -1.121,5.259 -2.931,7.069c-1.81,1.81 -4.31,2.931 -7.069,2.931c-2.759,0 -5.259,-1.121 -7.069,-2.931c-1.81,-1.81 -2.931,-4.31 -2.931,-7.069c0,-2.759 1.121,-5.259 2.931,-7.069c1.81,-1.81 4.31,-2.931 7.069,-2.931z" fill="#ffffff" stroke="none" stroke-width="1" stroke-linecap="butt"/><path d="M274.00001,311.65c2.759,0 5.259,1.121 7.069,2.931c1.81,1.81 2.931,4.31 2.931,7.069c0,2.759 -1.121,5.259 -2.931,7.069c-1.81,1.81 -4.31,2.931 -7.069,2.931c-2.759,0 -5.259,-1.121 -7.069,-2.931c-1.81,-1.81 -2.931,-4.31 -2.931,-7.069c0,-2.759 1.121,-5.259 2.931,-7.069c1.81,-1.81 4.31,-2.931 7.069,-2.931z" fill="#ffffff" stroke="none" stroke-width="1" stroke-linecap="butt"/><path d="M244.50001,294.65c2.759,0 5.259,1.121 7.069,2.931c1.81,1.81 2.931,4.31 2.931,7.069c0,2.759 -1.121,5.259 -2.931,7.069c-1.81,1.81 -4.31,2.931 -7.069,2.931c-2.759,0 -5.259,-1.121 -7.069,-2.931c-1.81,-1.81 -2.931,-4.31 -2.931,-7.069c0,-2.759 1.121,-5.259 2.931,-7.069c1.81,-1.81 4.31,-2.931 7.069,-2.931z" fill="#ffffff" stroke="none" stroke-width="1" stroke-linecap="butt"/><path d="M206.00001,316.15c2.759,0 5.259,1.121 7.069,2.931c1.81,1.81 2.931,4.31 2.931,7.069c0,2.759 -1.121,5.259 -2.931,7.069c-1.81,1.81 -4.31,2.931 -7.069,2.931c-2.759,0 -5.259,-1.121 -7.069,-2.931c-1.81,-1.81 -2.931,-4.31 -2.931,-7.069c0,-2.759 1.121,-5.259 2.931,-7.069c1.81,-1.81 4.31,-2.931 7.069,-2.931z" fill="#ffffff" stroke="none" stroke-width="1" stroke-linecap="butt"/><path d="M362.50001,334.65c2.759,0 5.259,1.121 7.069,2.931c1.81,1.81 2.931,4.31 2.931,7.069c0,2.759 -1.121,5.259 -2.931,7.069c-1.81,1.81 -4.31,2.931 -7.069,2.931c-2.759,0 -5.259,-1.121 -7.069,-2.931c-1.81,-1.81 -2.931,-4.31 -2.931,-7.069c0,-2.759 1.121,-5.259 2.931,-7.069c1.81,-1.81 4.31,-2.931 7.069,-2.931z" fill="#ffffff" stroke="none" stroke-width="1" stroke-linecap="butt"/><path d="M376.00001,308.65c2.759,0 5.259,1.121 7.069,2.931c1.81,1.81 2.931,4.31 2.931,7.069c0,2.759 -1.121,5.259 -2.931,7.069c-1.81,1.81 -4.31,2.931 -7.069,2.931c-2.759,0 -5.259,-1.121 -7.069,-2.931c-1.81,-1.81 -2.931,-4.31 -2.931,-7.069c0,-2.759 1.121,-5.259 2.931,-7.069c1.81,-1.81 4.31,-2.931 7.069,-2.931z" fill="#ffffff" stroke="none" stroke-width="1" stroke-linecap="butt"/><path d="M393.00001,333.15c2.759,0 5.259,1.121 7.069,2.931c1.81,1.81 2.931,4.31 2.931,7.069c0,2.759 -1.121,5.259 -2.931,7.069c-1.81,1.81 -4.31,2.931 -7.069,2.931c-2.759,0 -5.259,-1.121 -7.069,-2.931c-1.81,-1.81 -2.931,-4.31 -2.931,-7.069c0,-2.759 1.121,-5.259 2.931,-7.069c1.81,-1.81 4.31,-2.931 7.069,-2.931z" fill="#ffffff" stroke="none" stroke-width="1" stroke-linecap="butt"/><path d="M380.00001,335.15c2.759,0 5.259,1.121 7.069,2.931c1.81,1.81 2.931,4.31 2.931,7.069c0,2.759 -1.121,5.259 -2.931,7.069c-1.81,1.81 -4.31,2.931 -7.069,2.931c-2.759,0 -5.259,-1.121 -7.069,-2.931c-1.81,-1.81 -2.931,-4.31 -2.931,-7.069c0,-2.759 1.121,-5.259 2.931,-7.069c1.81,-1.81 4.31,-2.931 7.069,-2.931z" fill="#ffffff" stroke="none" stroke-width="1" stroke-linecap="butt"/><path d="M400.50001,320.15c2.759,0 5.259,1.121 7.069,2.931c1.81,1.81 2.931,4.31 2.931,7.069c0,2.759 -1.121,5.259 -2.931,7.069c-1.81,1.81 -4.31,2.931 -7.069,2.931c-2.759,0 -5.259,-1.121 -7.069,-2.931c-1.81,-1.81 -2.931,-4.31 -2.931,-7.069c0,-2.759 1.121,-5.259 2.931,-7.069c1.81,-1.81 4.31,-2.931 7.069,-2.931z" fill="#ffffff" stroke="none" stroke-width="1" stroke-linecap="butt"/><path d="M368.50001,324.65c2.759,0 5.259,1.121 7.069,2.931c1.81,1.81 2.931,4.31 2.931,7.069c0,2.759 -1.121,5.259 -2.931,7.069c-1.81,1.81 -4.31,2.931 -7.069,2.931c-2.759,0 -5.259,-1.121 -7.069,-2.931c-1.81,-1.81 -2.931,-4.31 -2.931,-7.069c0,-2.759 1.121,-5.259 2.931,-7.069c1.81,-1.81 4.31,-2.931 7.069,-2.931z" fill="#ffffff" stroke="none" stroke-width="1" stroke-linecap="butt"/><path d="M323.00001,27l157,17l6,62l-49,36l48,31l-4,63l-24,12l-13,36l37,28l3,59l-184,-6l8,-106l46,-95z" data-paper-data="{&quot;origPos&quot;:null}" fill="#b78a5e" stroke="#8a6847" stroke-width="2" stroke-linecap="round"/><path d="M449.55281,204.7485c-0.772,3.3964 -12.8411,-1.9514 -17.4847,1.5923c-3.1976,2.4452 -1.5291,7.9323 -1.0636,11.8714c0.3001,2.4062 3.472,4.4055 2.5922,5.855c-0.838,1.3768 -4.0699,0.3224 -5.8149,-0.4999c-2.3012,-0.874 -5.1162,-2.0427 -5.8251,-4.381c-1.9548,-6.4521 -4.9065,-14.1115 -1.9215,-20.157c2.4633,-4.9897 9.7857,-7.8949 15.2484,-6.8363c6.2135,1.2039 15.105,8.878 15.8471,12.4546z" data-paper-data="{&quot;origPos&quot;:null}" fill="#b2b2b2" stroke="#7f7f7f" stroke-width="2" stroke-linecap="round"/><g data-paper-data="{&quot;origPos&quot;:null}" fill="#b2b2b2" stroke="#7f7f7f" stroke-width="2" stroke-linecap="round"><path d="M387.90111,138.6727c-0.4726,-0.5208 2.324,0.126 3.6032,-0.8011c1.1639,-0.8433 1.8872,-2.1795 2.7251,-3.3464c0.415,-0.5781 0.3121,-1.9008 1.0228,-1.8752c1.4213,0.051 2.8531,0.9415 3.7504,2.0455c0.9656,1.1877 1.699,2.8483 1.455,4.3598c-0.3406,2.1064 -1.6399,4.0409 -3.0684,5.6257c-0.9193,1.0192 -2.3076,1.8582 -3.6802,1.8589c-1.345,0.0006 -2.6551,-0.8867 -3.587,-1.8564c-1.3463,-1.4018 -3.3846,-3.1256 -3.0032,-5.0043z"/><path d="M380.62091,146.2897c-4.6212,-1.0114 -6.0155,-6.6238 -7.013,-10.7908c-1.0482,-4.3863 -0.2794,-9.6093 1.5432,-13.89c1.2217,-2.8639 3.875,-4.9522 6.6459,-6.0741c2.7598,-1.1163 6.4703,-1.2871 9.1938,0.315c4.1279,2.207 9.6789,5.3451 9.8853,10.2911c0.2095,5.1057 -5.6008,8.6628 -9.2238,12.2672c-3.2011,3.1841 -6.6043,8.2281 -11.0314,7.8816z"/><path d="M389.73621,145.7205c1.5849,-0.7736 3.1752,-2.1467 4.9273,-1.9454c1.5096,0.1731 4.0438,1.492 3.5099,2.9143c-1.0523,2.8061 -4.0852,4.6356 -6.8094,5.885c-1.5747,0.7212 -4.0236,0.8498 -5.2893,-0.3852c-0.9562,-1.1508 -0.0523,-3.2141 0.6865,-4.5584c0.5657,-1.0308 1.9172,-1.3939 2.4332,-1.7725z"/><path d="M401.60131,135.3459c0.4494,-0.4558 1.0045,-1.7405 2.1063,-2.1508c1.4372,-0.5363 3.6096,-1.1318 4.6097,-0.0189c1.0387,1.4312 0.5566,3.8357 -0.3851,5.2893c-1.6309,2.5144 -3.8805,5.2503 -6.8094,5.885c-1.4846,0.3222 -2.4225,-2.3764 -2.375,-3.8951c0.0546,-1.7628 1.6436,-3.1374 2.6387,-4.5935z"/></g><g data-paper-data="{&quot;origPos&quot;:null}" fill="#b2b2b2" stroke="#7f7f7f" stroke-width="2" stroke-linecap="round"><path d="M358.51751,278.9974c0.0758,-0.6991 1.4485,1.8218 2.991,2.163c1.4033,0.3107 2.8828,-0.0354 4.3118,-0.1834c0.7078,-0.0733 1.6287,-1.0283 2.0814,-0.4799c0.9053,1.0969 1.1898,2.7589 0.9598,4.1628c-0.2473,1.5106 -1.0024,3.1615 -2.2948,3.9824c-1.8014,1.1435 -4.1107,1.4559 -6.2442,1.4397c-1.3725,-0.011 -2.9216,-0.4923 -3.8333,-1.5184c-0.8933,-1.0055 -1.0994,-2.5744 -0.9928,-3.915c0.1547,-1.9375 0.0908,-4.6062 1.749,-5.5681z"/><path d="M347.98801,278.6091c-2.3112,-4.1276 0.9607,-8.896 3.4149,-12.4082c2.5846,-3.6956 7.0012,-6.5878 11.4125,-8.0664c2.9529,-0.9875 6.2761,-0.3894 8.9545,0.9382c2.6669,1.323 5.2578,3.9846 5.8675,7.085c1.0896,4.5523 2.4277,10.787 -1.1344,14.2245c-3.6794,3.5461 -10.1967,1.5619 -15.2975,1.245c-4.5063,-0.2803 -10.5378,0.5229 -13.2175,-3.0181z"/><path d="M354.46471,285.0484c1.6307,0.6718 3.7133,0.9497 4.7258,2.3937c0.8727,1.2438 1.5686,4.0147 0.1505,4.5596c-2.7972,1.0757 -6.1788,0.0219 -8.9215,-1.186c-1.5848,-0.699 -3.3067,-2.4451 -3.2232,-4.2115c0.2259,-1.4791 2.369,-2.1728 3.8648,-2.5126c1.1465,-0.2612 2.3152,0.5085 2.9409,0.6431z"/><path d="M370.1002,287.0352c0.6391,0.0335 1.9684,-0.4042 3.0068,0.1475c1.3551,0.7188 3.2425,1.9483 3.0741,3.4351c-0.3809,1.7268 -2.4992,2.9624 -4.2115,3.2231c-2.963,0.4494 -6.5025,0.5832 -8.9215,-1.186c-1.2265,-0.8965 0.1691,-3.3893 1.3365,-4.362c1.3546,-1.1293 3.4374,-0.8534 5.187,-1.0758z"/></g><path d="M486.00603,366.96999l-493.51352,1.49689c0,-20.15415 0,-40.3083 0,-60.46246h490.88069c0.19361,6.68646 2.63283,58.96557 2.63283,58.96557z" data-paper-data="{&quot;origPos&quot;:null,&quot;index&quot;:null}" fill="url(#color-10)" stroke="none" stroke-width="1.22826" stroke-linecap="butt"/></g></g></svg>