<svg version="1.1" xmlns="http://www.w3.org/2000/svg" xmlns:xlink="http://www.w3.org/1999/xlink" width="40.76786" height="40.76786" viewBox="0,0,40.76786,40.76786"><g transform="translate(-219.61607,-159.61606)"><g data-paper-data="{&quot;isPaintingLayer&quot;:true}" fill-rule="nonzero" stroke-linecap="butt" stroke-linejoin="miter" stroke-miterlimit="10" stroke-dasharray="" stroke-dashoffset="0" style="mix-blend-mode: normal"><path d="M221.36607,198.63392v-37.26786h37.26786v37.26786z" fill="#ff4a4a" stroke="#d1263a" stroke-width="3.5"/><g fill="#ff8181" stroke="none" stroke-width="0"><path d="M223.13993,171.60162v-8.42223h8.42224v8.42224z"/><path d="M231.5589,180.02061v-8.42222h8.42222v8.42222z"/></g><g fill="#ff8181" stroke="none" stroke-width="0"><path d="M239.98846,171.60164v-8.42222h8.42222v8.42222z"/><path d="M248.40743,180.02061v-8.42222h8.42222v8.42222z"/></g><g fill="#ff8181" stroke="none" stroke-width="0"><path d="M223.17035,188.40162v-8.42223h8.42224v8.42224z"/><path d="M231.58931,196.82061v-8.42222h8.42222v8.42222z"/></g><g fill="#ff8181" stroke="none" stroke-width="0"><path d="M240.01888,188.40164v-8.42222h8.42222v8.42222z"/><path d="M248.43785,196.82061v-8.42222h8.42222v8.42222z"/></g><path d="M258.63393,161.36606v37.26786h-23.11037l12.10816,-37.26786z" fill="#6373ff" stroke="#4d4bdb" stroke-width="3.5"/><path d="M234.51058,196.6125l10.84616,-33.42308h9.40384v33.42308z" fill="#6373ff" stroke="none" stroke-width="0"/><path d="" fill="#879aff" stroke="none" stroke-width="0"/><g fill="#879aff" stroke="none" stroke-width="0"><path d="M248.41068,163.17942v8.42222h-5.881l2.71927,-8.42222z"/><path d="M248.40743,180.02061v-8.42222h8.42222v8.42222z"/></g><g fill="#879aff" stroke="none" stroke-width="0"><path d=""/><path d="M240.01153,188.39839v8.42222h-5.65363l2.79691,-8.42222z"/></g><g fill="#879aff" stroke="none" stroke-width="0"><path d="M240.01888,188.40164v-8.42222h8.42222v8.42222z"/><path d="M248.43785,196.82061v-8.42222h8.42222v8.42222z"/></g><text transform="translate(233.10967,189.15613) scale(0.29655,0.29655)" font-size="40" xml:space="preserve" fill="#fcfcfc" fill-rule="nonzero" stroke="none" stroke-width="1" stroke-linecap="butt" stroke-linejoin="miter" stroke-miterlimit="10" stroke-dasharray="" stroke-dashoffset="0" font-family="Malgun Gothic" font-weight="normal" text-anchor="start" style="mix-blend-mode: normal"><tspan x="0" dy="0">OFF</tspan></text><text transform="translate(225.88847,177.96084) scale(0.29654,0.29654)" font-size="40" xml:space="preserve" fill="#fcfcfc" fill-rule="nonzero" stroke="none" stroke-width="1" stroke-linecap="butt" stroke-linejoin="miter" stroke-miterlimit="10" stroke-dasharray="" stroke-dashoffset="0" font-family="Malgun Gothic" font-weight="normal" text-anchor="start" style="mix-blend-mode: normal"><tspan x="0" dy="0">ON</tspan></text></g></g></svg>