<svg version="1.1" xmlns="http://www.w3.org/2000/svg" xmlns:xlink="http://www.w3.org/1999/xlink" width="486.92683" height="411.8644" viewBox="0,0,486.92683,411.8644"><defs><radialGradient cx="240.00005" cy="180.00006" r="240.83784" gradientUnits="userSpaceOnUse" id="color-1"><stop offset="0" stop-color="#433b68"/><stop offset="1" stop-color="#28253e"/></radialGradient><radialGradient cx="239.10482" cy="276.1539" r="243.46342" gradientUnits="userSpaceOnUse" id="color-2"><stop offset="0" stop-color="#302820"/><stop offset="1" stop-color="#403428"/></radialGradient><radialGradient cx="149.20725" cy="86.46419" r="20.38517" gradientUnits="userSpaceOnUse" id="color-3"><stop offset="0" stop-color="#732310"/><stop offset="1" stop-color="#c93d1d"/></radialGradient><radialGradient cx="332.81564" cy="123.81212" r="21.66889" gradientUnits="userSpaceOnUse" id="color-4"><stop offset="0" stop-color="#732310"/><stop offset="1" stop-color="#c93d1d"/></radialGradient><linearGradient x1="-2.12271" y1="-35.16765" x2="-2.12271" y2="371.46282" gradientUnits="userSpaceOnUse" id="color-5"><stop offset="0" stop-color="#26002e" stop-opacity="0"/><stop offset="1" stop-color="#26002e" stop-opacity="0.25098"/></linearGradient><linearGradient x1="-2.12271" y1="359.2677" x2="-2.12271" y2="-35.16758" gradientUnits="userSpaceOnUse" id="color-6"><stop offset="0" stop-color="#27002f" stop-opacity="0"/><stop offset="1" stop-color="#27002f" stop-opacity="0.72549"/></linearGradient></defs><g transform="translate(4.3586,35.16765)"><g data-paper-data="{&quot;isPaintingLayer&quot;:true}" fill-rule="nonzero" stroke="none" stroke-linejoin="miter" stroke-miterlimit="10" stroke-dasharray="" stroke-dashoffset="0" style="mix-blend-mode: normal"><path d="M-0.83782,376.69675v-393.39339h481.67568v393.39339z" fill="url(#color-1)" stroke-width="NaN" stroke-linecap="butt"/><path d="M-3.82707,363.70089v-83.90177h484.92565v83.90177z" fill="#081010" stroke-width="0" stroke-linecap="butt"/><g fill="#304048" stroke-width="0" stroke-linecap="butt"><path d="M0.05983,319.67607v-40.06586h40.06587v40.06586z"/><path d="M79.91693,319.67607v42.12592h-40.06587v-42.12592z"/></g><g fill="#304048" stroke-width="0" stroke-linecap="butt"><path d="M79.93815,319.67607v-40.06586h40.06587v40.06586z"/><path d="M159.79528,319.67607v42.12592h-40.06586v-42.12592z"/></g><g fill="#304048" stroke-width="0" stroke-linecap="butt"><path d="M159.74505,319.67607v-40.06586h40.06587v40.06586z"/><path d="M239.60221,319.67607v42.12592h-40.06587v-42.12592z"/></g><g fill="#304048" stroke-width="0" stroke-linecap="butt"><path d="M239.58355,319.67607v-40.06586h40.06587v40.06586z"/><path d="M319.44069,319.67607v42.12592h-40.06586v-42.12592z"/></g><g fill="#304048" stroke-width="0" stroke-linecap="butt"><path d="M319.34131,319.67607v-40.06586h40.06586v40.06586z"/><path d="M399.19846,319.67607v42.12592h-40.06586v-42.12592z"/></g><g fill="#304048" stroke-width="0" stroke-linecap="butt"><path d="M399.14823,319.67607v-40.06586h40.06586v40.06586z"/><path d="M479.00536,319.67607v42.12592h-40.06586v-42.12592z"/></g><path d="M-4.3586,286.00379v-19.69981h486.92683v19.69981z" fill="url(#color-2)" stroke-width="0" stroke-linecap="butt"/><path d="M92.85989,130.34876l-7.53216,-112.9825l112.9825,-7.53216l7.53216,112.9825z" fill="#302820" stroke-width="0" stroke-linecap="butt"/><path d="M109.47872,114.24902l-9.20516,-79.22909l84.23881,-9.73109l7.77211,82.48565z" fill="#b9b9b3" stroke-width="0" stroke-linecap="butt"/><g><path d="M158.30792,70.58987c4.67399,0.12961 12.91142,-2.67652 17.41016,-1.79127c2.9411,0.57935 5.94849,3.19266 5.89612,5.46907c-0.05261,2.27627 -2.4021,4.27815 -6.1566,5.84329c-3.75473,1.56342 -10.16066,2.89953 -15.83233,3.07571c-5.67167,0.17619 -6.51789,-12.76884 -1.31734,-12.5968z" data-paper-data="{&quot;index&quot;:null}" fill="#ffffff" stroke-width="1" stroke-linecap="round"/><path d="M134.95179,85.72532c-5.67167,-0.17619 -12.07761,-1.51229 -15.83233,-3.07571c-3.7545,-1.56513 -6.10399,-3.56701 -6.1566,-5.84328c-0.05237,-2.27641 2.95502,-4.88972 5.89612,-5.46907c4.49875,-0.88526 12.73617,1.92088 17.41016,1.79127c5.20055,-0.17204 4.35433,12.77298 -1.31734,12.5968z" data-paper-data="{&quot;index&quot;:null}" fill="#ffffff" stroke-width="1" stroke-linecap="round"/><path d="M123.03678,71.10734c0,-13.09046 10.61191,-23.70237 23.70237,-23.70237c13.09046,0 23.70237,10.61191 23.70237,23.70237c0,13.09046 -10.61191,23.70237 -23.70237,23.70237c-13.09046,0 -23.70237,-10.61191 -23.70237,-23.70237z" fill="#ffffff" stroke-width="0" stroke-linecap="butt"/><g data-paper-data="{&quot;index&quot;:null}" stroke-width="1" stroke-linecap="butt"><path d="M150.29665,63.52534c0.48004,0.96008 0.77727,2.28579 0.77727,3.74826c0,1.46246 -0.29723,2.78815 -0.77727,3.74826c-0.48004,0.96008 -1.1429,1.55457 -1.87413,1.55457c-0.73123,0 -1.39409,-0.59447 -1.87413,-1.55457c-0.48004,-0.96008 -0.77728,-2.28579 -0.77728,-3.74826c0,-1.46246 0.29723,-2.78816 0.77728,-3.74826c0.48004,-0.96008 1.1429,-1.55456 1.87413,-1.55456c0.73123,0 1.39409,0.59446 1.87413,1.55456z" fill="#000000"/><path d="M149.19284,64.01655c0.17025,0.31677 0.2763,0.75217 0.2763,1.23361c0,0.48144 -0.10605,0.91683 -0.2763,1.2336c-0.17025,0.31537 -0.40608,0.51075 -0.66564,0.51075c-0.25956,0 -0.4954,-0.19538 -0.66565,-0.51075c-0.17025,-0.31677 -0.2763,-0.75216 -0.2763,-1.2336c0,-0.48144 0.10605,-0.91684 0.2763,-1.23361c0.17025,-0.31537 0.40609,-0.51074 0.66565,-0.51074c0.25956,0 0.49539,0.19537 0.66564,0.51074z" fill="#ffffff"/></g><g data-paper-data="{&quot;index&quot;:null}" stroke-width="1" stroke-linecap="butt"><path d="M161.39779,63.52534c0.48004,0.96008 0.77728,2.28579 0.77728,3.74826c0,1.46246 -0.29723,2.78815 -0.77728,3.74826c-0.48004,0.96008 -1.14289,1.55457 -1.87413,1.55457c-0.73123,0 -1.39409,-0.59447 -1.87413,-1.55457c-0.48004,-0.96008 -0.77728,-2.28579 -0.77728,-3.74826c0,-1.46246 0.29723,-2.78816 0.77728,-3.74826c0.48004,-0.96008 1.1429,-1.55456 1.87413,-1.55456c0.73123,0 1.39408,0.59446 1.87413,1.55456z" fill="#000000"/><path d="M160.29395,64.01655c0.17025,0.31677 0.2763,0.75217 0.2763,1.23361c0,0.48144 -0.10605,0.91683 -0.2763,1.2336c-0.17025,0.31537 -0.40608,0.51075 -0.66564,0.51075c-0.25956,0 -0.4954,-0.19538 -0.66565,-0.51075c-0.17025,-0.31677 -0.2763,-0.75216 -0.2763,-1.2336c0,-0.48144 0.10605,-0.91684 0.2763,-1.23361c0.17025,-0.31537 0.40609,-0.51074 0.66565,-0.51074c0.25956,0 0.49539,0.19537 0.66564,0.51074z" fill="#ffffff"/></g><path d="M162.91376,56.18626c0.69636,0.27855 0.41781,0.9749 0.41781,0.9749l-0.19582,0.47901c-0.60756,2.12061 -1.00297,4.56873 -3.5068,5.26183c-1.2375,0.34256 -2.65875,-0.29176 -3.61938,-1.00634c-0.47791,-0.3555 -1.46408,-1.73708 -1.48727,-1.03466c-4.37016,5.2221 -11.02976,1.86602 -12.68323,-3.88265c0,0 -0.20605,-0.72114 0.5151,-0.92718c0.72115,-0.20604 0.92719,0.5151 0.92719,0.5151c1.28051,4.51575 6.48743,7.68243 10.03903,3.39729c2.17761,-2.3608 5.23372,4.05821 7.47092,0.37358c0.49129,-0.80914 0.64033,-2.18992 0.90216,-3.10906l0.24539,-0.62402c0,0 0.27854,-0.69636 0.9749,-0.41781z" fill="#000000" stroke-width="0.5" stroke-linecap="butt"/><path d="M165.11334,74.33771c0.9141,0.00167 0.61606,0.97404 0.4995,1.58177c-0.46537,2.43094 -1.05895,5.00674 -2.24778,7.28449c-1.03232,1.89563 -2.46257,3.67139 -4.28744,4.99508c-1.42776,1.03814 -3.17854,1.81405 -5.03671,1.66503c-1.95058,-0.15818 -3.78127,-1.27792 -5.24483,-2.49755c-1.57012,-1.27707 -2.64906,-3.04533 -3.66306,-4.78695c-1.08227,-1.864 -1.91312,-3.94279 -2.70567,-6.03573c-0.13404,-0.48702 -0.99735,-1.49103 0,-1.54015c3.99024,-0.19647 7.92553,1.19383 11.94657,1.1239c3.59313,-0.15318 7.08136,-1.7974 10.73942,-1.78991z" data-paper-data="{&quot;index&quot;:null}" fill="url(#color-3)" stroke-width="1" stroke-linecap="round"/><path d="M162.31792,79.57722l-3.44819,-4.75915l4.93439,-0.79655z" data-paper-data="{&quot;index&quot;:null}" fill="#ffffff" stroke-width="1.03387" stroke-linecap="round"/><path d="M147.60216,80.05275l-2.44434,-5.45746l4.99525,0.17808z" data-paper-data="{&quot;index&quot;:null}" fill="#ffffff" stroke-width="1.04644" stroke-linecap="round"/><path d="M152.95863,79.0872l-2.83055,-3.78235l4.99508,-0.13045z" data-paper-data="{&quot;index&quot;:null}" fill="#ffffff" stroke-width="0.89823" stroke-linecap="round"/><path d="M156.9131,79.00395l-2.83055,-3.78236l4.99508,-0.13046z" data-paper-data="{&quot;index&quot;:null}" fill="#ffffff" stroke-width="0.89823" stroke-linecap="round"/><path d="M158.39487,85.29934c2.00494,0.37313 3.68712,2.93219 4.88044,5.18897c0.79314,1.50652 0.63538,3.62377 0.24684,5.06585c-0.38861,1.44208 -1.2168,2.52318 -2.39223,2.90006c-1.17542,0.37679 -2.4778,-0.0214 -3.63242,-0.96871c-1.15462,-0.9474 -2.0355,-2.70983 -2.74447,-4.26513c-0.42667,-0.93857 -1.85151,-3.12808 -2.40629,-3.44685c-0.79089,-0.45547 -3.04942,-1.15736 -2.38324,-1.68384c2.2025,-1.73504 5.34025,-3.33546 8.43137,-2.79033z" data-paper-data="{&quot;index&quot;:null}" fill="#ff6684" stroke-width="0.91755" stroke-linecap="round"/></g><path d="M269.86747,155.86484l12.94418,-112.49101l112.49101,12.94418l-12.94418,112.49101z" fill="#302820" stroke-width="0" stroke-linecap="butt"/><path d="M289.1147,143.02228l5.21808,-79.59118l84.61368,5.60322l-7.21433,82.5363z" fill="#b9b9b3" stroke-width="0" stroke-linecap="butt"/><g><path d="M313.75059,107.03889c1.6536,0.26504 2.9195,2.37296 3.11454,3.86913c0.16132,1.24803 -0.68052,2.25394 -2.11819,3.181c-1.43785,0.92618 -3.49454,1.64528 -5.82591,1.93669c-2.33137,0.29141 -4.50186,0.10079 -6.12343,-0.443c-1.62156,-0.54468 -2.69154,-1.40617 -2.83605,-2.56172c-0.14442,-1.15564 0.94556,-2.68845 2.11828,-3.18109c1.79386,-0.75308 3.93586,0.53716 5.84228,0.15708c2.1197,-0.43707 3.70613,-3.07808 5.82848,-2.95809z" fill="#000000" stroke-width="1" stroke-linecap="round"/><path d="M332.65538,82.86943c6.87863,0 13.11215,2.79375 17.62534,7.30783c4.51408,4.51319 7.30783,10.7467 7.30783,17.62534c0,6.87863 -2.79375,13.11215 -7.30783,17.62534c-4.51319,4.51408 -10.7467,7.30783 -17.62534,7.30783c-6.87863,0 -13.11215,-2.79375 -17.62534,-7.30783c-4.51408,-4.51319 -7.30783,-10.7467 -7.30783,-17.62534c0,-6.87863 2.79375,-13.11215 7.30783,-17.62534c4.51319,-4.51408 10.7467,-7.30783 17.62534,-7.30783z" fill="#000000" stroke-width="1" stroke-linecap="butt"/><path d="M360.26469,108.80231c1.90642,0.38008 4.04842,-0.91016 5.84228,-0.15708c1.17272,0.49265 2.2627,2.02545 2.11828,3.18109c-0.14451,1.15555 -1.21449,2.01704 -2.83605,2.56172c-1.62156,0.5438 -3.79205,0.73441 -6.12343,0.443c-2.33137,-0.29141 -4.38806,-1.01051 -5.82591,-1.93669c-1.43767,-0.92706 -2.27952,-1.93297 -2.11819,-3.181c0.19504,-1.49617 1.46095,-3.60409 3.11454,-3.86913c2.12235,-0.12 3.70878,2.52102 5.82848,2.95809z" fill="#000000" stroke-width="1" stroke-linecap="round"/><path d="M321.31187,92.92747c1.03113,0 1.96589,0.8383 2.64278,2.19217c0.67698,1.35387 1.09609,3.2233 1.09609,5.28557c0,2.06226 -0.41911,3.9317 -1.09609,5.28557c-0.67689,1.35387 -1.61165,2.19217 -2.64278,2.19217c-1.03113,0 -1.96589,-0.8383 -2.64278,-2.19217c-0.67698,-1.35387 -1.09609,-3.2233 -1.09609,-5.28557c0,-2.06226 0.41911,-3.9317 1.09609,-5.28557c0.67689,-1.35387 1.61165,-2.19217 2.64278,-2.19217z" fill="#ffd523" stroke-width="2.22368" stroke-linecap="butt"/><path d="M327.32362,112.82463c4.27426,0.07433 8.45737,-1.40351 12.69888,-1.19467c1.06016,0.05221 0.14248,1.11945 0,1.63714c-0.84246,2.22474 -1.72563,4.43443 -2.87605,6.41581c-1.07786,1.85129 -2.22474,3.7309 -3.89373,5.0884c-1.55572,1.29644 -3.5017,2.48668 -5.57512,2.65482c-1.97518,0.1584 -3.83621,-0.66636 -5.35388,-1.76988c-1.93979,-1.40705 -3.46011,-3.29463 -4.55744,-5.30964c-1.26369,-2.42119 -1.89466,-5.1592 -2.38934,-7.74322c-0.12389,-0.64601 -0.4407,-1.67961 0.53096,-1.68138c3.88842,-0.00796 7.59632,1.73979 11.41572,1.90262z" fill="url(#color-4)" stroke-width="1" stroke-linecap="round"/><path d="M317.60929,110.49741l5.24512,0.84671l-3.66533,5.05884z" fill="#ffd523" stroke-width="1.03387" stroke-linecap="round"/><path d="M331.58903,112.18154l5.30981,-0.18929l-2.59827,5.80113z" fill="#ffd523" stroke-width="1.04644" stroke-linecap="round"/><path d="M326.61567,111.94411l5.30964,0.13867l-3.00879,4.02054z" fill="#ffd523" stroke-width="0.89822" stroke-linecap="round"/><path d="M322.31548,111.28324l5.23804,0.88016l-3.5417,3.56002z" fill="#ffd523" stroke-width="0.89822" stroke-linecap="round"/><path d="M332.01176,125.53996c0.70813,0.55964 -1.69262,1.30573 -2.53332,1.78988c-0.58972,0.33884 -1.48449,-0.01496 -1.86297,0.65733c-0.64193,0.78485 -0.24132,2.0089 -0.69485,3.00658c-0.75361,1.65324 -1.68997,3.52666 -2.91729,4.53372c-1.22732,1.00697 -2.61172,1.43024 -3.86117,1.02972c-1.24945,-0.40061 -2.12978,-1.54979 -2.54287,-3.08269c-0.413,-1.53289 -0.5807,-3.78347 0.26238,-5.38486c1.26847,-2.39889 3.05658,-5.11911 5.18778,-5.51574c3.28578,-0.57946 6.62112,1.12175 8.96231,2.96605z" fill="#ff71d2" stroke-width="0.91755" stroke-linecap="round"/><path d="M332.77184,93.10446c1.03113,0 1.96589,0.8383 2.64278,2.19217c0.67698,1.35387 1.09609,3.2233 1.09609,5.28557c0,2.06226 -0.41911,3.9317 -1.09609,5.28557c-0.67689,1.35387 -1.61165,2.19217 -2.64278,2.19217c-1.03113,0 -1.96589,-0.8383 -2.64278,-2.19217c-0.67698,-1.35387 -1.09609,-3.2233 -1.09609,-5.28557c0,-2.06226 0.41911,-3.9317 1.09609,-5.28557c0.67689,-1.35387 1.61165,-2.19217 2.64278,-2.19217z" fill="#ffd523" stroke-width="2.22368" stroke-linecap="butt"/></g><g stroke-width="1.22826" stroke-linecap="butt"><path d="M-2.12271,-35.16765h483.40498v406.6304h-483.40498z" fill="url(#color-5)"/><path d="M-2.12271,-35.16758h483.40498v394.43528h-483.40498z" data-paper-data="{&quot;index&quot;:null}" fill="url(#color-6)"/></g></g></g></svg>