<svg version="1.1" xmlns="http://www.w3.org/2000/svg" xmlns:xlink="http://www.w3.org/1999/xlink" width="143.7336" height="143.73361" viewBox="0,0,143.7336,143.73361"><defs><linearGradient x1="320" y1="110.13323" x2="320" y2="249.86683" gradientUnits="userSpaceOnUse" id="color-1"><stop offset="0" stop-color="#3c94ed"/><stop offset="1" stop-color="#337fcc"/></linearGradient></defs><g transform="translate(-248.1332,-108.13322)"><g data-paper-data="{&quot;isPaintingLayer&quot;:true}" fill-rule="nonzero" stroke-linecap="butt" stroke-linejoin="miter" stroke-miterlimit="10" stroke-dasharray="" stroke-dashoffset="0" style="mix-blend-mode: normal"><path d="M320,110.13323c19.2752,0 36.74421,7.8268 49.3899,20.47689c12.64989,12.64569 20.4769,30.11449 20.4769,49.38991c0,19.27542 -7.82701,36.74421 -20.4769,49.38991c-12.64569,12.65009 -30.1147,20.4769 -49.3899,20.4769c-19.27542,0 -36.74442,-7.8268 -49.39012,-20.4769c-12.64989,-12.64569 -20.47668,-30.11449 -20.47668,-49.38991c0,-19.27542 7.82679,-36.74421 20.47668,-49.38991c12.64569,-12.6501 30.11471,-20.47689 49.39012,-20.47689z" data-paper-data="{&quot;origPos&quot;:null}" fill="url(#color-1)" stroke="#23568d" stroke-width="4"/><path d="M359.6855,157.19514h-1.36035c1.17821,-5.30659 0.6375,-9.54325 -1.92974,-12.00723c-4.20224,-4.03229 -12.91939,-2.4525 -23.14174,3.28578c14.563,4.5945 25.01697,17.12809 25.01697,31.8804c0,1.63285 -0.13553,3.23845 -0.38293,4.80963h-48.29998v1.15741c0,6.34639 5.14452,11.49091 11.4902,11.49091c5.06779,0 9.36039,-3.28506 10.88783,-7.83869h24.76025c-4.12336,12.57733 -16.1184,22.08616 -30.81693,23.84379c-1.61134,0.1929 -3.25423,0.29545 -4.92437,0.29545c-2.3306,0 -4.60669,-0.20294 -6.81896,-0.57297c-13.41347,8.28473 -25.53473,10.74871 -31.32966,5.18683c-5.40268,-5.1854 -4.05739,-16.15354 2.40733,-28.75023c4.19722,-8.17788 10.54505,-17.03988 18.62541,-25.45871c3.19614,-3.33096 6.47403,-6.39444 9.7634,-9.16247c-10.24673,2.95233 -21.51749,12.18937 -29.91911,25.52755c-0.00359,-0.17713 -0.01506,-0.35138 -0.01506,-0.52851c0,-18.64477 16.69424,-33.75993 37.28666,-33.75993c1.44425,0 2.86699,0.08247 4.26893,0.22661c13.64582,-8.57372 26.03526,-11.18901 31.91482,-5.5461c3.44785,3.30945 4.14057,8.97889 2.51704,15.92048zM288.4496,196.8418c-3.93261,8.96311 -4.50056,16.33281 -0.75368,19.92839c4.30981,4.13555 13.36471,2.37075 23.92554,-3.73182c-9.93909,-2.32701 -18.2647,-8.27612 -23.17186,-16.19656zM309.60136,174.47453h22.95314c-0.1427,-6.2209 -5.22053,-11.22343 -11.47657,-11.22343c-6.25532,0 -11.33315,5.00253 -11.47657,11.22343" fill="#4ec1ff" stroke="none" stroke-width="1"/></g></g></svg>