<svg version="1.1" xmlns="http://www.w3.org/2000/svg" xmlns:xlink="http://www.w3.org/1999/xlink" width="284.93057" height="234.37611" viewBox="0,0,284.93057,234.37611"><defs><linearGradient x1="240.918" y1="128.125" x2="240.918" y2="233.875" gradientUnits="userSpaceOnUse" id="color-1"><stop offset="0" stop-color="#0b3568"/><stop offset="1" stop-color="#0b7a3a"/></linearGradient></defs><g transform="translate(-85.5,-2.24889)"><g data-paper-data="{&quot;isPaintingLayer&quot;:true}" fill-rule="nonzero" stroke-linecap="butt" stroke-linejoin="miter" stroke-miterlimit="10" stroke-dasharray="" stroke-dashoffset="0" style="mix-blend-mode: normal"><path d="M187.168,128.125h107.5v105.75h-107.5z" data-paper-data="{&quot;origPos&quot;:null}" fill="url(#color-1)" stroke="none" stroke-width="1"/><text transform="translate(207,25.86)" font-size="22" xml:space="preserve" fill="#ff0000" fill-rule="nonzero" stroke="none" stroke-width="1" stroke-linecap="butt" stroke-linejoin="miter" stroke-miterlimit="10" stroke-dasharray="" stroke-dashoffset="0" font-family="Sans Serif" font-weight="400" text-anchor="start" style="mix-blend-mode: normal"><tspan x="0" dy="0">WIP</tspan></text><text transform="translate(86,55.01)" font-size="22" xml:space="preserve" data-paper-data="{&quot;origPos&quot;:null}" fill="#ff0000" fill-rule="nonzero" stroke="none" stroke-width="1" stroke-linecap="butt" stroke-linejoin="miter" stroke-miterlimit="10" stroke-dasharray="" stroke-dashoffset="0" font-family="Sans Serif" font-weight="400" text-anchor="start" style="mix-blend-mode: normal"><tspan x="0" dy="0">This level is unfinished and</tspan><tspan x="0" dy="24.86px">selecting a star here may</tspan><tspan x="0" dy="24.86px">cause errors.</tspan></text><g stroke="none" stroke-width="0"><path d="M296.37279,195.61003c0,13.12687 -6.73801,18.0639 -14.78916,18.0639c-8.05115,0 -14.36662,-4.93704 -14.36662,-18.0639c0,-13.12687 6.31547,-29.47268 14.36662,-29.47268c8.05115,0 14.78916,16.34582 14.78916,29.47268z" fill="#0a7a67"/><path d="M277.56943,233.11111v-26.40922c0,0 2.79981,-1.69019 4.22548,-1.69019c1.46088,0 4.43674,1.69019 4.43674,1.69019v26.40922z" fill="#662200"/></g><g stroke="none" stroke-width="0"><path d="M247.48911,195.76493c0,13.12687 -6.73801,18.0639 -14.78916,18.0639c-8.05115,0 -14.36661,-4.93704 -14.36661,-18.0639c0,-13.12687 6.31547,-29.47268 14.36661,-29.47268c8.05115,0 14.78916,16.34582 14.78916,29.47268z" fill="#0a7a67"/><path d="M228.68575,233.26601v-26.40921c0,0 2.7998,-1.69019 4.22547,-1.69019c1.46088,0 4.43675,1.69019 4.43675,1.69019v26.40921z" fill="#662200"/></g><g stroke="none" stroke-width="0"><g><path d="M222.90032,181.28206c0,17.51418 -8.99002,24.10129 -19.73204,24.10129c-10.74203,0 -19.16828,-6.58711 -19.16828,-24.10129c0,-17.51418 8.42625,-39.32315 19.16828,-39.32315c10.74203,0 19.73204,21.80897 19.73204,39.32315z" fill="#0b8e5d"/><path d="M197.81243,231.3169v-35.2358c0,0 3.73556,-2.25509 5.63773,-2.25509c1.94914,0 5.91961,2.25509 5.91961,2.25509v35.2358z" fill="#663100"/></g><g><path d="M266.66666,178.74294c0,17.51418 -8.99002,24.10129 -19.73204,24.10129c-10.74203,0 -19.16828,-6.58711 -19.16828,-24.10129c0,-17.51418 8.42625,-39.32315 19.16828,-39.32315c10.74203,0 19.73204,21.80897 19.73204,39.32315z" fill="#0b8e5d"/><path d="M241.57878,228.77778v-35.2358c0,0 3.73556,-2.25509 5.63773,-2.25509c1.94914,0 5.91961,2.25509 5.91961,2.25509v35.2358z" fill="#663100"/></g></g><g stroke="none" stroke-width="0"><g><path d="M241.66667,172.61111c0,20.71068 -10.63078,28.5 -23.33333,28.5c-12.70255,0 -22.66667,-7.78932 -22.66667,-28.5c0,-20.71068 9.96412,-46.5 22.66667,-46.5c12.70255,0 23.33333,25.78932 23.33333,46.5z" fill="#0ea852"/><path d="M212,231.77778v-41.66667c0,0 4.41734,-2.66667 6.66667,-2.66667c2.30487,0 7,2.66667 7,2.66667v41.66667z" fill="#844000"/></g><g><path d="M291.33333,177.27778c0,20.71068 -10.63078,28.5 -23.33333,28.5c-12.70255,0 -22.66667,-7.78932 -22.66667,-28.5c0,-20.71068 9.96412,-46.5 22.66667,-46.5c12.70255,0 23.33333,25.78932 23.33333,46.5z" fill="#0ea852"/><path d="M261.66667,236.44444v-41.66666c0,0 4.41734,-2.66666 6.66667,-2.66666c2.30487,0 7,2.66666 7,2.66666v41.66666z" fill="#844000"/></g></g><path d="M187.168,126.125h106v106h-106z" data-paper-data="{&quot;origPos&quot;:null}" fill="none" stroke="#995900" stroke-width="9"/></g></g></svg>