<svg version="1.1" xmlns="http://www.w3.org/2000/svg" xmlns:xlink="http://www.w3.org/1999/xlink" width="491.7485" height="167.16565" viewBox="0,0,491.7485,167.16565"><g transform="translate(4.60642,-207.51323)"><g data-paper-data="{&quot;isPaintingLayer&quot;:true}" fill-rule="nonzero" stroke-linejoin="miter" stroke-miterlimit="10" stroke-dasharray="" stroke-dashoffset="0" style="mix-blend-mode: normal"><path d="M-2.4243,366.62367c0.0953,-2.07344 0.06788,-4.60056 0.06788,-5.94226c0,-6.34634 0,-12.6927 0,-19.03904c0,-14.07517 0,-28.15035 0,-42.22552l482.91171,4.30392c-0.36989,12.42346 -0.08574,24.85846 0.07699,37.29249v21.92931c-0.06584,2.66281 -0.1904,5.3235 -0.34202,7.98325z" fill="#ffe5ad" stroke="#8c7531" stroke-width="0" stroke-linecap="butt"/><path d="M53.50962,319.42888l-14,6l-16,-8l12,-20z" fill="none" stroke="#b7a47c" stroke-width="4.5" stroke-linecap="round"/><path d="M39.50962,299.42888l36,-1l12,14l-16,14l-18,-6" fill="none" stroke="#b7a47c" stroke-width="4.5" stroke-linecap="round"/><path d="M75.50962,326.42888l-30,18l-16,-8l12,-11" fill="none" stroke="#b7a47c" stroke-width="4.5" stroke-linecap="round"/><path d="M-2.35642,314.99451l8.86604,-14.56563l17,17" fill="none" stroke="#b7a47c" stroke-width="4.5" stroke-linecap="round"/><path d="M-2.35642,325.1891l29.86604,10.23978" fill="none" stroke="#b7a47c" stroke-width="4.5" stroke-linecap="round"/><path d="M33.50962,339.42888l-8,14l-24,-6l15,-14" fill="none" stroke="#b7a47c" stroke-width="4.5" stroke-linecap="round"/><path d="M-2.35642,341.45278l1.86604,4.9761l-1.86604,2.23925" fill="none" stroke="#b7a47c" stroke-width="4.5" stroke-linecap="round"/><path d="M64.50962,337.42888l-4,15l-23,7l-10,-8" fill="none" stroke="#b7a47c" stroke-width="4.5" stroke-linecap="round"/><path d="M82.50962,317.42888l23,16l-40,11" fill="none" stroke="#b7a47c" stroke-width="4.5" stroke-linecap="round"/><path d="M93.50962,338.42888l11,20l-32,12l-17,-15" fill="none" stroke="#b7a47c" stroke-width="4.5" stroke-linecap="round"/><path d="M29.50962,371.42888l-10,-18" fill="none" stroke="#b7a47c" stroke-width="4.5" stroke-linecap="round"/><path d="M2.50962,299.42888l-4.86604,1.15858" fill="none" stroke="#b7a47c" stroke-width="4.5" stroke-linecap="round"/><path d="M32.50962,296.42888l-23,2" fill="none" stroke="#b7a47c" stroke-width="4.5" stroke-linecap="round"/><path d="M135.50962,297.42888l12,20l-16,8l-14,-6z" data-paper-data="{&quot;index&quot;:null}" fill="none" stroke="#b7a47c" stroke-width="4.5" stroke-linecap="round"/><path d="M117.50962,320.42888l-18,6l-16,-14l12,-14l36,1" data-paper-data="{&quot;index&quot;:null}" fill="none" stroke="#b7a47c" stroke-width="4.5" stroke-linecap="round"/><path d="M129.50962,325.42888l12,11l-16,8l-30,-18" data-paper-data="{&quot;index&quot;:null}" fill="none" stroke="#b7a47c" stroke-width="4.5" stroke-linecap="round"/><path d="M147.50962,317.42888l17,-17l14,23l-35,12" data-paper-data="{&quot;index&quot;:null}" fill="none" stroke="#b7a47c" stroke-width="4.5" stroke-linecap="round"/><path d="M154.50962,333.42888l15,14l-24,6l-8,-14" data-paper-data="{&quot;index&quot;:null}" fill="none" stroke="#b7a47c" stroke-width="4.5" stroke-linecap="round"/><path d="M186.50962,364.42888l-15,-18l9,-24" data-paper-data="{&quot;index&quot;:null}" fill="none" stroke="#b7a47c" stroke-width="4.5" stroke-linecap="round"/><path d="M143.50962,351.42888l-10,8l-23,-7l-4,-15" data-paper-data="{&quot;index&quot;:null}" fill="none" stroke="#b7a47c" stroke-width="4.5" stroke-linecap="round"/><path d="M105.50962,344.42888l-40,-11l23,-16" data-paper-data="{&quot;index&quot;:null}" fill="none" stroke="#b7a47c" stroke-width="4.5" stroke-linecap="round"/><path d="M115.50962,355.42888l-17,15l-32,-12l11,-20" data-paper-data="{&quot;index&quot;:null}" fill="none" stroke="#b7a47c" stroke-width="4.5" stroke-linecap="round"/><path d="M151.50962,353.42888l-10,18" data-paper-data="{&quot;index&quot;:null}" fill="none" stroke="#b7a47c" stroke-width="4.5" stroke-linecap="round"/><path d="M189.50962,304.42888l-21,-5" data-paper-data="{&quot;index&quot;:null}" fill="none" stroke="#b7a47c" stroke-width="4.5" stroke-linecap="round"/><path d="M138.50962,296.42888l23,2" data-paper-data="{&quot;index&quot;:null}" fill="none" stroke="#b7a47c" stroke-width="4.5" stroke-linecap="round"/><path d="M247.50962,320.42888l-14,6l-16,-8l12,-20z" fill="none" stroke="#b7a47c" stroke-width="4.5" stroke-linecap="round"/><path d="M233.50962,300.42888l36,-1l12,14l-16,14l-18,-6" fill="none" stroke="#b7a47c" stroke-width="4.5" stroke-linecap="round"/><path d="M269.50962,327.42888l-30,18l-16,-8l12,-11" fill="none" stroke="#b7a47c" stroke-width="4.5" stroke-linecap="round"/><path d="M221.50962,336.42888l-35,-12l14,-23l17,17" fill="none" stroke="#b7a47c" stroke-width="4.5" stroke-linecap="round"/><path d="M227.50962,340.42888l-8,14l-24,-6l15,-14" fill="none" stroke="#b7a47c" stroke-width="4.5" stroke-linecap="round"/><path d="M184.50962,323.42888l9,24l-15,18" fill="none" stroke="#b7a47c" stroke-width="4.5" stroke-linecap="round"/><path d="M258.50962,338.42888l-4,15l-23,7l-10,-8" fill="none" stroke="#b7a47c" stroke-width="4.5" stroke-linecap="round"/><path d="M276.50962,318.42888l23,16l-40,11" fill="none" stroke="#b7a47c" stroke-width="4.5" stroke-linecap="round"/><path d="M287.50962,339.42888l11,20l-32,12l-17,-15" fill="none" stroke="#b7a47c" stroke-width="4.5" stroke-linecap="round"/><path d="M213.50962,354.42888l10,18" fill="none" stroke="#b7a47c" stroke-width="4.5" stroke-linecap="round"/><path d="M196.50962,300.42888l-21,5" fill="none" stroke="#b7a47c" stroke-width="4.5" stroke-linecap="round"/><path d="M226.50962,297.42888l-23,2" fill="none" stroke="#b7a47c" stroke-width="4.5" stroke-linecap="round"/><path d="M329.50962,298.42888l12,20l-16,8l-14,-6z" data-paper-data="{&quot;index&quot;:null}" fill="none" stroke="#b7a47c" stroke-width="4.5" stroke-linecap="round"/><path d="M311.50962,321.42888l-18,6l-16,-14l12,-14l36,1" data-paper-data="{&quot;index&quot;:null}" fill="none" stroke="#b7a47c" stroke-width="4.5" stroke-linecap="round"/><path d="M323.50962,326.42888l12,11l-16,8l-30,-18" data-paper-data="{&quot;index&quot;:null}" fill="none" stroke="#b7a47c" stroke-width="4.5" stroke-linecap="round"/><path d="M341.50962,318.42888l17,-17l14,23l-35,12" data-paper-data="{&quot;index&quot;:null}" fill="none" stroke="#b7a47c" stroke-width="4.5" stroke-linecap="round"/><path d="M348.50962,334.42888l15,14l-24,6l-8,-14" data-paper-data="{&quot;index&quot;:null}" fill="none" stroke="#b7a47c" stroke-width="4.5" stroke-linecap="round"/><path d="M380.50962,365.42888l-15,-18l9,-24" data-paper-data="{&quot;index&quot;:null}" fill="none" stroke="#b7a47c" stroke-width="4.5" stroke-linecap="round"/><path d="M337.50962,352.42888l-10,8l-23,-7l-4,-15" data-paper-data="{&quot;index&quot;:null}" fill="none" stroke="#b7a47c" stroke-width="4.5" stroke-linecap="round"/><path d="M299.50962,345.42888l-40,-11l23,-16" data-paper-data="{&quot;index&quot;:null}" fill="none" stroke="#b7a47c" stroke-width="4.5" stroke-linecap="round"/><path d="M309.50962,356.42888l-17,15l-32,-12l11,-20" data-paper-data="{&quot;index&quot;:null}" fill="none" stroke="#b7a47c" stroke-width="4.5" stroke-linecap="round"/><path d="M345.50962,354.42888l-10,18" data-paper-data="{&quot;index&quot;:null}" fill="none" stroke="#b7a47c" stroke-width="4.5" stroke-linecap="round"/><path d="M362.50962,300.42888l21,5" data-paper-data="{&quot;index&quot;:null}" fill="none" stroke="#b7a47c" stroke-width="4.5" stroke-linecap="round"/><path d="M332.50962,297.42888l23,2" data-paper-data="{&quot;index&quot;:null}" fill="none" stroke="#b7a47c" stroke-width="4.5" stroke-linecap="round"/><path d="M418.99399,320.42888l-14,6l-16,-8l12,-20z" fill="none" stroke="#b7a47c" stroke-width="4.5" stroke-linecap="round"/><path d="M404.99399,300.42888l36,-1l12,14l-16,14l-18,-6" fill="none" stroke="#b7a47c" stroke-width="4.5" stroke-linecap="round"/><path d="M440.99399,327.42888l-30,18l-16,-8l12,-11" fill="none" stroke="#b7a47c" stroke-width="4.5" stroke-linecap="round"/><path d="M392.99399,336.42888l-35,-12l14,-23l17,17" fill="none" stroke="#b7a47c" stroke-width="4.5" stroke-linecap="round"/><path d="M398.99399,340.42888l-8,14l-24,-6l15,-14" fill="none" stroke="#b7a47c" stroke-width="4.5" stroke-linecap="round"/><path d="M355.99399,323.42888l9,24l-15,18" fill="none" stroke="#b7a47c" stroke-width="4.5" stroke-linecap="round"/><path d="M429.99399,338.42888l-4,15l-23,7l-10,-8" fill="none" stroke="#b7a47c" stroke-width="4.5" stroke-linecap="round"/><path d="M447.99399,318.42888l23,16l-40,11" fill="none" stroke="#b7a47c" stroke-width="4.5" stroke-linecap="round"/><path d="M458.99399,339.42888l11,20l-32,12l-17,-15" fill="none" stroke="#b7a47c" stroke-width="4.5" stroke-linecap="round"/><path d="M394.99399,372.42888l-10,-18" fill="none" stroke="#b7a47c" stroke-width="4.5" stroke-linecap="round"/><path d="M346.99399,305.42888l21,-5" fill="none" stroke="#b7a47c" stroke-width="4.5" stroke-linecap="round"/><path d="M397.99399,297.42888l-23,2" fill="none" stroke="#b7a47c" stroke-width="4.5" stroke-linecap="round"/><path d="M480.39356,322.29569l-15.39957,5.13319l-16,-14l12,-14l19.67579,0.54655" data-paper-data="{&quot;index&quot;:null}" fill="none" stroke="#b7a47c" stroke-width="4.5" stroke-linecap="round"/><path d="M480.60774,339.19713l-19.61375,-11.76825" data-paper-data="{&quot;index&quot;:null}" fill="none" stroke="#b7a47c" stroke-width="4.5" stroke-linecap="round"/><path d="M480.72362,354.86833l-4.72963,-1.43945l-4,-15" data-paper-data="{&quot;index&quot;:null}" fill="none" stroke="#b7a47c" stroke-width="4.5" stroke-linecap="round"/><path d="M470.99399,345.42888l-40,-11l23,-16" data-paper-data="{&quot;index&quot;:null}" fill="none" stroke="#b7a47c" stroke-width="4.5" stroke-linecap="round"/><path d="M480.71564,356.67448l-16.72165,14.7544l-32,-12l11,-20" data-paper-data="{&quot;index&quot;:null}" fill="none" stroke="#b7a47c" stroke-width="4.5" stroke-linecap="round"/><path d="M1.65559,298.60934h479.48649" fill="none" stroke="#b7a47c" stroke-width="12" stroke-linecap="round"/><g data-paper-data="{&quot;index&quot;:null}"><path d="M354.68734,285.08678l-1.2,3l-1.6,2l-3.8,2l-3.4,1l-18.2,-0.2l-3.6,-0.2l-4.6,-3l-2,-1.6l-0.4,-6.4l2.2,-2.6l3.8,-2l3.2,-0.2l11.2,0.2l9.2,1.2l7.4,2.2l2.2,1.6z" data-paper-data="{&quot;origPos&quot;:null,&quot;index&quot;:null}" fill="#d5b146" stroke="#000000" stroke-width="0" stroke-linecap="round"/><path d="M353.33734,245.43679c11.87412,0 21.5,9.73781 21.5,21.75c0,12.01219 -9.62588,21.75 -21.5,21.75c-11.87412,0 -21.5,-9.73781 -21.5,-21.75c0,-12.01219 9.62588,-21.75 21.5,-21.75z" data-paper-data="{&quot;origPos&quot;:null}" fill="#d5b146" stroke="none" stroke-width="0" stroke-linecap="butt"/><path d="M349.88734,282.48679l2.2,-1.6l7.4,-2.2l9.2,-1.2l11.2,-0.2l3.2,0.2l3.8,2l2.2,2.6l-0.4,6.4l-2,1.6l-4.6,3l-3.6,0.2l-18.2,0.2l-3.4,-1l-3.8,-2l-1.6,-2l-1.2,-3z" data-paper-data="{&quot;origPos&quot;:null}" fill="#d5b146" stroke="#000000" stroke-width="0" stroke-linecap="round"/><g><path d="M353.14519,207.52005c4.39472,0.06369 6.25938,1.05348 8,1.25c1.71871,0.19405 2.68411,0.90369 3.15033,1.44435c0.46622,0.54066 2.14425,1.03976 3.09967,2.05565c6.90317,7.34008 15.91438,16.77001 17.75,18.75c1.83562,1.97999 3.38051,3.63296 4.5,5.25c1.11949,1.61704 1.87945,3.18249 2.25,4.5c0.37055,1.31751 0.19661,0.74748 0,3.5c-0.19661,2.75252 0.05106,5.08635 -0.75,7c-0.80106,1.91365 -1.09103,2.58191 -3,4c-1.90897,1.41809 -0.44055,1.72128 -5.75,2.5c-5.30945,0.77872 -12.6087,0.06917 -13.75,0c-1.1413,-0.06917 -0.49648,-0.31712 -2.75,-1c-2.25352,-0.68288 0.92447,-1.06197 -5.5,-1.5c-6.42447,-0.43803 -15.38664,-0.04338 -16.5,0c-1.11336,0.04338 -0.6419,0.02534 -2.75,0.75c-2.1081,0.72466 -1.18433,1.48372 -5.25,2c-4.06567,0.51628 -8.94573,0.13634 -10.5,0c-1.55427,-0.13634 -2.15894,-0.11353 -3.75,-1.25c-1.59106,-1.13647 -2.31936,-1.66975 -3.25,-3.75c-0.93064,-2.08025 -0.87142,-3.99271 -1,-5.75c-0.12858,-1.75729 -0.1053,-2.67273 0.25,-4.5c0.3553,-1.82727 0.36194,-2.60324 1.5,-4.5c1.13806,-1.89676 1.20206,-1.32919 3.75,-4.25c2.54794,-2.92081 4.67988,-4.88081 6.5,-7.5c1.82012,-2.61919 1.7889,-4.30835 3.75,-7.25c1.9611,-2.94165 4.87581,-6.01984 5.75,-7c0.87419,-0.98016 1.55291,-1.53968 2.5,-2.25c0.94709,-0.71032 1.80454,-1.2274 4.1,-1.7c2.29546,-0.4726 3.25528,-0.86369 7.65,-0.8z" data-paper-data="{&quot;origPos&quot;:null}" fill="#d5b146" stroke="#000000" stroke-width="0" stroke-linecap="butt"/><path d="M354.89519,231.77005c0,-5.52284 3.30163,-10 7.37438,-10c4.07276,0 7.37437,4.47716 7.37437,10c0,3.1687 0.03792,6.61989 -1.96186,8.36563c-1.99978,1.74574 -5.30487,0.63437 -8.00001,0.63437c-4.07276,0 -4.78688,-3.47716 -4.78688,-9z" data-paper-data="{&quot;origPos&quot;:null}" fill="#e1bb4a" stroke="#ffffff" stroke-width="0" stroke-linecap="butt"/><path d="M336.14519,231.77005c0,-5.52284 3.02249,-10 6.75093,-10c3.72844,0 6.75093,4.47716 6.75093,10c0,3.1687 0.0347,6.61989 -1.79601,8.36563c-1.83071,1.74574 -4.85639,0.63437 -7.32368,0.63437c-3.72844,0 -4.38218,-3.47716 -4.38218,-9c0,-5.52284 0.00001,5.52284 0.00001,0z" data-paper-data="{&quot;origPos&quot;:null}" fill="#e1bb4a" stroke="#ffffff" stroke-width="0" stroke-linecap="butt"/><path d="M339.39519,229.02005c0.966,0 1.84,0.659 2.474,1.722c0.634,1.063 1.026,2.532 1.026,4.153c0,1.621 -0.393,3.089 -1.026,4.153c-0.633,1.064 -1.508,1.722 -2.474,1.722c-0.966,0 -1.84,-0.659 -2.474,-1.722c-0.634,-1.063 -1.026,-2.532 -1.026,-4.153c0,-1.621 0.393,-3.089 1.026,-4.153c0.633,-1.064 1.508,-1.722 2.474,-1.722z" data-paper-data="{&quot;origPos&quot;:null}" fill="#be9e3f" stroke="none" stroke-width="1" stroke-linecap="butt"/><path d="M358.64519,229.42005c0.966,0 1.84,0.659 2.474,1.722c0.634,1.063 1.026,2.532 1.026,4.153c0,1.621 -0.393,3.089 -1.026,4.153c-0.633,1.064 -1.508,1.722 -2.474,1.722c-0.966,0 -1.84,-0.659 -2.474,-1.722c-0.634,-1.063 -1.026,-2.532 -1.026,-4.153c0,-1.621 0.393,-3.089 1.026,-4.153c0.633,-1.064 1.508,-1.722 2.474,-1.722z" data-paper-data="{&quot;origPos&quot;:null}" fill="#be9e3f" stroke="none" stroke-width="1" stroke-linecap="butt"/><path d="M353.39519,228.52005c-1.76866,0.10107 -3.08177,-0.0425 -4.5,-0.5c-1.41823,-0.4575 -1.71901,-0.90644 -3.25,-2c-1.53099,-1.09356 -1.53985,-1.75325 -3.75,-3c-2.21015,-1.24675 -3.79163,-1.74821 -6,-2.5c-2.20837,-0.75179 -1.17807,-0.91218 -5.75,-1.5c-4.57193,-0.58782 -10.09894,0.0967 -11.75,-0.75c-1.65106,-0.8467 0.47947,-2.67316 2,-4.25c1.52053,-1.57684 1.3056,-2.06112 4.75,-2.75c3.4444,-0.68888 7.60038,-0.08398 9,0c1.39962,0.08398 1.73862,0.06818 3.5,0.75c1.76138,0.68182 1.9745,0.45356 4.25,2.25c2.2755,1.79644 3.89874,4.19902 5.25,5.25c1.35126,1.05098 0.8514,1.95223 3.75,1.75c2.8986,-0.20223 4.53058,-1.19266 7,-2.5c2.46942,-1.30734 3.95506,-3.33166 5.75,-4.25c1.79494,-0.91834 2.75953,-1.04158 5,-1.25c2.24047,-0.20842 4.21801,-0.12265 5.75,0.25c1.53199,0.37265 2.07624,0.89263 3.5,2c1.42376,1.10737 2.2173,1.56506 3.25,3.25c1.0327,1.68494 2.70948,3.29052 1.5,4.5c-1.20948,1.20948 -2.26812,-1.67637 -3.75,-2.25c-1.48188,-0.57363 -2.6388,-0.61388 -4,-0.75c-1.3612,-0.13612 -1.24337,-0.18297 -3.5,0c-2.25663,0.18297 -3.81845,0.3361 -5.75,0.75c-1.93155,0.4139 -2.93461,0.02499 -4.75,1.5c-1.81539,1.47501 -1.91947,3.93557 -3.25,5c-1.33053,1.06443 -2.48134,0.89893 -4.25,1z" data-paper-data="{&quot;origPos&quot;:null}" fill="#be9e3f" stroke="#000000" stroke-width="0" stroke-linecap="round"/><g data-paper-data="{&quot;origPos&quot;:null}" fill="#be9e3f" stroke="none" stroke-linecap="butt"><path d="M348.08734,226.68678c-1.77704,-2.63266 -1.32224,-6.04113 0,-8c1.32224,-1.95887 3.62803,-2.62514 5.4,0c1.77197,2.62514 1.17904,6.25327 0,8c-1.17904,1.74673 -3.62296,2.63266 -5.4,0z" data-paper-data="{&quot;origPos&quot;:null}" stroke-width="0"/><path d="M344.69728,219.28581c-0.199,-1.99008 0.43913,-2.32495 1.79107,-2.18909c1.35194,0.13586 2.199,1.55674 2.199,2.59007c0,1.03333 0.04652,2.25236 0,3.1c-0.04652,0.84764 -0.31781,2.33318 0.3747,2.78435c0.69251,0.45117 2.39564,0.45633 2.4253,0.51565c0.02966,0.05932 -0.46981,0.701 -0.00471,0.19659c0.4651,-0.50441 0.73594,-0.00244 1.2047,-1.79659c0.46876,-1.79415 0,-4.33555 0,-6.2c0,-1.86445 0,-2 2,-2c2,0 2,-1.00856 2,2c0,3.00856 0.79958,9.30021 -2.6,11c-5.2003,2.60015 -9.4,-5.46667 -9.4,-6.5c0,-1.03333 0,-2.06667 0,-3.1c0,-1.03333 0.13816,0.20094 0.09751,0.06164c-0.04065,-0.1393 -0.07062,-0.29301 -0.08758,-0.46263c-0.01696,-0.16962 0.19901,1.99009 0.00001,0.00001z" data-paper-data="{&quot;origPos&quot;:null}" stroke-width="0.5"/></g><path d="M366.63806,247.26649l1.33913,-2.03478c0,0 0.77447,-1.11949 1.27017,-1.452c1.15358,-0.77381 2.95592,-1.38278 2.95592,-1.38278c0,0 1.58518,-0.51704 2.59978,-0.71996c1.02155,-0.20431 2.61761,-0.32352 2.61761,-0.32352l-3.13043,8z" data-paper-data="{&quot;origPos&quot;:null}" fill="#be9e3f" stroke="#ffffff" stroke-width="0" stroke-linecap="round"/><path d="M336.99537,245.43832c0.42448,0.84896 0.88767,1.77535 0.88767,1.77535l-7.7957,2.80645l0.31183,-9.66667c0,0 0.95602,-0.0488 1.43991,0.04798c0.73306,0.14661 1.67837,0.57567 1.67837,0.57567c0,0 0.80735,0.60736 1.3241,1.12411c0.45681,0.45681 1.17052,1.37052 1.17052,1.37052c0,0 0.67761,1.35521 0.9833,1.96659z" data-paper-data="{&quot;origPos&quot;:null}" fill="#be9e3f" stroke="#ffffff" stroke-width="0" stroke-linecap="round"/><path d="M376.62379,253.76994c-2.94303,-0.34941 -5.35474,-2.24354 -6.95637,-3.04436c-1.60163,-0.80082 -4.11915,-0.51305 -10.36303,-2.76649c-6.24388,-2.25344 -15.40096,-0.11076 -18.95696,0.93363c-3.556,1.04439 -6.31045,2.54252 -9.55782,4.1662c-3.24737,1.62368 -1.78885,0.89442 -2.68328,-0.89443c-0.89443,-1.78885 -3.10746,-0.68233 0.89443,-2.68328c4.00189,-2.00095 4.8972,-2.68724 7.12723,-3.08019c2.23003,-0.39295 15.01268,-2.95287 16.21944,-2.67028c1.20676,0.28259 6.72747,-0.08604 8.62916,0.3881c1.90169,0.47414 9.17626,2.79558 10.92605,3.37885c1.74979,0.58327 4.47978,2.21442 5.01721,2.2973c0.53743,0.08288 1.74661,-0.00344 1.72522,1.99645c-0.02139,1.99989 0.92175,2.32791 -2.02128,1.9785z" data-paper-data="{&quot;origPos&quot;:null}" fill="#be9e3f" stroke="none" stroke-width="0.5" stroke-linecap="butt"/></g></g></g></g></svg>