<svg version="1.1" xmlns="http://www.w3.org/2000/svg" xmlns:xlink="http://www.w3.org/1999/xlink" width="382.95789" height="83.82184"><defs><linearGradient x1="81.39723" y1="150.06483" x2="81.39723" y2="207.88922" gradientUnits="userSpaceOnUse" id="color-1"><stop offset="0" stop-color="#ff3a61"/><stop offset="1" stop-color="#a22054"/></linearGradient><linearGradient x1="129.21931" y1="145.66645" x2="129.21931" y2="207.88922" gradientUnits="userSpaceOnUse" id="color-2"><stop offset="0" stop-color="#ff3a61"/><stop offset="1" stop-color="#a22054"/></linearGradient><linearGradient x1="176.35207" y1="163.48585" x2="176.35207" y2="207.88922" gradientUnits="userSpaceOnUse" id="color-3"><stop offset="0" stop-color="#ff3a61"/><stop offset="1" stop-color="#a22054"/></linearGradient><linearGradient x1="238.42164" y1="163.5302" x2="238.42164" y2="207.88922" gradientUnits="userSpaceOnUse" id="color-4"><stop offset="0" stop-color="#ff3a61"/><stop offset="1" stop-color="#a22054"/></linearGradient><linearGradient x1="315.79902" y1="163.48585" x2="315.79902" y2="207.88922" gradientUnits="userSpaceOnUse" id="color-5"><stop offset="0" stop-color="#ff3a61"/><stop offset="1" stop-color="#a22054"/></linearGradient><linearGradient x1="376.4656" y1="163.5302" x2="376.4656" y2="226.33355" gradientUnits="userSpaceOnUse" id="color-6"><stop offset="0" stop-color="#ff3a61"/><stop offset="1" stop-color="#a22054"/></linearGradient><linearGradient x1="420.0909" y1="151.70977" x2="420.0909" y2="207.88922" gradientUnits="userSpaceOnUse" id="color-7"><stop offset="0" stop-color="#ff3a61"/><stop offset="1" stop-color="#a22054"/></linearGradient></defs><g transform="translate(-48.54193,-144.16644)"><g data-paper-data="{&quot;isPaintingLayer&quot;:true}" fill="none" fill-rule="nonzero" stroke="#741838" stroke-width="3" stroke-linecap="butt" stroke-linejoin="miter" stroke-miterlimit="10" stroke-dasharray="" stroke-dashoffset="0" font-family="none" font-weight="none" font-size="none" text-anchor="none" style="mix-blend-mode: normal"><path d="M112.48644,150.06483l0.26609,0.57653c-0.77002,11.32056 -1.34655,16.98083 -1.73364,16.98083c-0.0887,0 -0.17739,0 -0.26609,0c-12.23566,-0.9796 -19.05306,-1.55614 -20.44385,-1.73353c0,13.13884 0,26.28162 0,39.42036c0,0.71363 -2.78584,1.18536 -8.35742,1.4232c0,0.20959 -3.15673,0.59262 -9.46604,1.157l-0.31042,-0.58047c1.36265,-23.52403 2.23745,-37.42084 2.62049,-41.68617c-4.68067,0.73782 -11.58259,1.68524 -20.71003,2.84224c-2.69715,-10.07486 -4.04359,-15.24326 -4.04359,-15.50934c0,-0.38698 20.81483,-1.3506 62.44451,-2.89064z" data-paper-data="{&quot;origPos&quot;:null}" id="path246" fill="url(#color-1)"/><path d="M123.55295,145.66645c5.82157,0.91522 11.64316,1.83438 17.46462,2.75354c-2.18906,8.38557 -3.62837,12.57841 -4.30969,12.57841c-9.18384,-0.62088 -13.77581,-1.2296 -13.77581,-1.82223c0,-4.29764 0,-8.59121 0,-12.88885c0.0887,-0.41523 0.29434,-0.62088 0.62088,-0.62088zM118.66268,166.81998c0.0887,0 0.1774,0 0.2661,0c13.51378,2.4592 20.26656,3.8985 20.26656,4.31373c-3.87835,21.98399 -6.23681,34.23587 -7.06322,36.75551c-4.69677,0 -9.39353,0 -14.09019,0c-0.41534,0 -0.62088,-0.20959 -0.62088,-0.62482c0.06855,-2.22947 1.17308,-38.21496 1.24163,-40.44442z" data-paper-data="{&quot;origPos&quot;:null}" id="path248" fill="url(#color-2)"/><path d="M191.68599,163.48585c7.22857,2.99543 13.46943,5.80942 18.71042,8.44613c-1.36264,17.62985 -2.23352,27.27338 -2.6205,28.93432c-8.71221,2.16091 -13.58626,3.24542 -14.62238,3.24542c0,-3.85415 -0.29839,-11.4536 -0.88697,-22.80241c-3.28977,0.32654 -4.93461,0.60872 -4.93461,0.84667c0,1.1247 0.19349,7.5551 0.57653,19.28684c0.17739,0 0.26609,0.10479 0.26609,0.31044c0,0.35884 -4.57588,1.3344 -13.73147,2.93499c-0.38698,-0.47579 -1.55614,-7.68815 -3.51152,-21.64541c-3.7049,0.94742 -5.55537,1.62873 -5.55537,2.04396c-0.10491,-1.06425 1.88267,19.20231 1.77787,18.13389c-0.35478,0.38709 -5.22895,1.94323 -14.62238,4.66852c-5.45475,-19.2909 -8.86136,-32.24019 -10.224,-38.84788c10.28039,-2.5479 16.02937,-3.82196 17.24693,-3.82196c1.36264,5.3943 2.04396,8.50656 2.04396,9.33309c0.10085,0 0.20565,0 0.31044,0c5.0072,-4.62023 8.50252,-7.73249 10.49009,-9.33309c0.10074,0 0.20553,0 0.31044,0l9.33299,6.7126c0.10479,0 0.20565,0 0.31044,0c5.83767,-5.62808 8.95005,-8.44613 9.33298,-8.44613z" data-paper-data="{&quot;origPos&quot;:null}" id="path250" fill="url(#color-3)"/><path d="M239.86696,163.5302c13.42103,6.90608 20.85919,10.93358 22.31053,12.09058c-1.92702,9.00645 -3.06804,13.64277 -3.42282,13.91291c-9.36517,0 -18.72641,0 -28.08765,0c0,0.16118 0,0.32248 0,0.48772l7.86544,9.73223c4.1163,-2.10452 8.23654,-4.20488 12.35666,-6.3094c1.2135,2.10452 2.96324,5.77723 5.24111,11.02227c-1.06436,0.35478 -8.84121,1.49569 -23.33054,3.42271c-12.00188,-7.91384 -18.0452,-12.03013 -18.13389,-12.35667c1.92308,-15.38024 3.06398,-23.06839 3.42282,-23.06839c12.53001,-5.33374 19.79077,-8.30903 21.77835,-8.93396zM236.97632,174.28639c-0.23784,0.59262 -1.80613,2.95108 -4.71287,7.06727c0,1.2457 1.74974,1.86657 5.24505,1.86657c0,0.17739 2.53584,0.60883 7.59945,1.29016c1.39495,-1.92713 2.09237,-3.05194 2.09237,-3.37847c-0.44753,-2.63659 -1.41105,-3.95489 -2.89064,-3.95489z" data-paper-data="{&quot;origPos&quot;:null}" id="path252" fill="url(#color-4)"/><path d="M312.79751,163.48585c0.1048,0.19349 0.20959,0.38709 0.31449,0.58058c-2.00367,10.60693 -4.0034,21.21397 -6.00302,31.8209c0.1048,0 0.2097,0 0.31044,0l15.29165,-4.48707c0,-6.00302 0,-12.00188 0,-18.00085c0.06045,-0.41523 0.25,-0.62493 0.57653,-0.62493c11.49795,0.80232 17.89595,1.20146 19.2022,1.20146c0,0.20959 0.10074,0.31044 0.31044,0.31044c0,5.06766 -1.60048,15.56979 -4.80156,31.51452c0,0.91522 -4.59198,1.61263 -13.77582,2.08831c-0.47568,-0.56438 -0.87481,-1.76583 -1.20135,-3.6001c-11.76404,2.39875 -18.47258,3.6001 -20.13351,3.6001c-9.39353,-6.99467 -14.09019,-10.59489 -14.09019,-10.80042c1.60048,-21.00843 2.60834,-31.91376 3.02357,-32.71192c0.08869,0 0.1774,0 0.26609,0c7.49871,-0.2097 14.40063,-0.50393 20.71004,-0.89102z" data-paper-data="{&quot;origPos&quot;:null}" id="path254" fill="url(#color-5)"/><path d="M369.59784,163.5302c0.91927,3.7937 1.55625,6.13606 1.91498,7.02292c13.09449,-2.99138 20.01262,-4.48707 20.75439,-4.48707c8.91775,12.82841 13.37668,19.52479 13.37668,20.08917c-3.40661,7.22857 -6.81333,14.45714 -10.21995,21.68965c-7.33337,-1.17309 -14.66672,-2.34225 -22.00009,-3.51141c0,0.22174 0,0.44349 0,0.66523c1.71744,13.18713 2.57615,20.19395 2.57615,21.02442c-0.2097,0 -0.31044,0.10074 -0.31044,0.31044c-2.13266,-0.2097 -3.73325,-0.31044 -4.80156,-0.31044c-1.27395,0 -2.548,0 -3.82196,0c-2.22136,0 -5.62798,-0.10479 -10.22401,-0.31449c-0.41118,-1.24165 -3.59605,-20.16165 -9.55472,-56.75598c1.00786,-0.41523 8.44612,-2.22136 22.31053,-5.42244zM371.19844,181.70845c0.59262,6.81728 1.12874,10.224 1.60048,10.224c6.07551,2.10441 9.79257,3.15662 11.15532,3.15662c1.17309,-5.0958 2.34226,-10.19575 3.51141,-15.29155c-0.10074,0 -0.20554,0 -0.31044,0c-3.46706,0.20959 -8.78471,0.84657 -15.95677,1.91093z" data-paper-data="{&quot;origPos&quot;:null}" id="path256" fill="url(#color-6)"/><path d="M429.77664,151.70977c0.06056,0.11684 0.121,0.23784 0.18144,0.35479c-2.96313,26.16467 -4.62417,39.91224 -4.97895,41.24664c-6.28116,-0.59262 -10.25214,-1.00786 -11.91318,-1.2457c0,-0.06055 0,-0.11695 0,-0.17739c-0.94741,-12.38492 -1.89483,-24.76984 -2.84224,-37.15476c0.70957,-0.23784 7.22857,-1.24569 19.55293,-3.02357zM412.17898,194.19816c0.20565,0.12089 4.82981,0.47568 13.86451,1.0683c0.06045,0.11695 0.12089,0.23794 0.17739,0.35478c-1.3909,8.17598 -2.27787,12.26797 -2.66485,12.26797c-3.43892,0 -6.87378,0 -10.31269,0c-0.35478,0 -0.82653,-4.09199 -1.41915,-12.26797c-0.12089,0 -0.18133,-0.35478 -0.18133,-1.0683c0.35873,-0.11695 0.53612,-0.2339 0.53612,-0.35479z" data-paper-data="{&quot;origPos&quot;:null}" id="path258" fill="url(#color-7)"/></g></g></svg>