<svg version="1.1" xmlns="http://www.w3.org/2000/svg" xmlns:xlink="http://www.w3.org/1999/xlink" width="585.21018" height="492.69084" viewBox="0,0,585.21018,492.69084"><defs><linearGradient x1="305.56101" y1="92.99999" x2="305.56101" y2="366.00001" gradientUnits="userSpaceOnUse" id="color-1"><stop offset="0" stop-color="#aec2cf"/><stop offset="1" stop-color="#929aa3"/></linearGradient><linearGradient x1="-44.09813" y1="-19.57863" x2="86.91134" y2="49.27282" gradientUnits="userSpaceOnUse" id="color-2"><stop offset="0" stop-color="#aec2cf"/><stop offset="1" stop-color="#929aa3"/></linearGradient></defs><g transform="translate(87.49863,121.0712)"><g data-paper-data="{&quot;isPaintingLayer&quot;:true}" fill-rule="nonzero" stroke-width="2" stroke-linecap="butt" stroke-linejoin="miter" stroke-miterlimit="10" stroke-dasharray="" stroke-dashoffset="0" style="mix-blend-mode: normal"><path d="M211.48875,188.5413c5.852,-4.63179 12.3869,-4.76179 18.49543,-2.43446c6.10853,2.32733 6.11624,3.97733 8.89276,6.77393c-0.01168,-4.12764 1.64575,-9.89822 5.79506,-14.33287c4.14932,-4.43465 8.29532,-5.29451 12.49467,-5.21457c4.19935,0.07994 -3.21858,9.47251 -3.83333,16.5c-0.61475,7.02749 0.41743,10.02526 0.66666,19.69974c0.03618,1.40443 0.11176,2.79791 0.21096,4.18484c2.07745,-1.80989 10.44013,-5.90828 12.36271,-7.14816c1.96725,-1.26869 15.28131,-4.98803 19.56296,-0.70638c3.7763,3.7763 -1.81077,4.36657 -4.69421,7.3008c-1.64156,1.67048 -13.02599,8.10366 -15.01602,10.01603c-2.4451,2.34967 -9.32075,5.29893 -12.3654,10.09615c-0.46047,2.44537 -0.70665,14.93135 -0.68493,18.57502c5.03504,-5.06572 21.01661,-10.52308 28.26982,-9.55958c7.71185,1.02442 1.90114,5.79321 -5.35696,7.90083c-6.88992,2.00071 -15.96819,9.72611 -22.42033,18.65492c0.34836,4.91566 0.83801,9.77106 1.04391,14.78522c2.7899,-1.37241 10.74002,-9.20343 12.89486,-9.92171c6.7082,-2.23607 10.83662,-0.5052 13.07269,6.20301c0.51257,1.53772 -8.25508,1.12014 -12.67186,4.77336c-4.41679,3.65322 -11.71569,4.28644 -15.04525,18.15208c-0.00721,1.24325 -0.03225,2.47449 -0.16295,3.66049c-0.14113,1.28072 -0.02641,2.83891 -0.9375,3.75c-1.78152,1.78152 -4.04304,3.75 -6.5625,3.75c-10.14092,0 -7.92363,-11.85025 -6.35771,-20.06688c-0.39277,-6.83699 -3.42529,-13.41981 -11.74737,-17.43374c-7.45802,-3.59718 -12.90899,-1.27174 -14.35053,-4.6401c-0.09951,-0.23254 2.4618,-4.60144 5.63476,-6.64728c3.17094,-2.04454 7.61967,0.56699 9.0348,1.38822c3.97805,2.30855 7.96727,4.77121 11.71462,7.44302c-0.25975,-2.47732 0.08595,-13.07071 0.08595,-13.07071c0,0 -0.24023,-9.93189 -18.55042,-21.62996c-2.99936,-2.57252 -11.87556,-4.06565 -8.80669,-7.87849c3.06892,-3.8129 9.39104,-4.18692 12.54516,-1.80669c4.67306,3.52649 15.79565,14.18714 15.79743,14.00926c0.03102,-3.10247 -0.63131,-22.23473 -1.0899,-26.83552c-1.4469,-11.38426 -18.98047,-23.08964 -20.6601,-23.10194c-3.3223,-0.02433 -13.82239,0.00518 -7.26127,-5.18787z" fill="#63d485" stroke="#2f825f"/><path d="M123.62195,366.00001l-8.29275,-38.16753l28.0114,-19.01716l197.28135,1.18469l-0.62195,-195l61.60059,5.92339l28.89941,-5.92339l54.49523,34.62174l11.6582,220.92284l-66.15343,-4.54458z" data-paper-data="{&quot;origPos&quot;:null,&quot;index&quot;:null}" fill="url(#color-1)" stroke="#647982"/><path d="M70.8302,20.34289l3.27017,65.08289l-29.26238,43.90357l-131.00946,-68.85145l87.14673,-177.11307l150.02282,-3.39626z" data-paper-data="{&quot;index&quot;:null}" fill="url(#color-2)" stroke="#647982"/></g></g></svg>