<svg xmlns="http://www.w3.org/2000/svg" xmlns:xlink="http://www.w3.org/1999/xlink" version="1.1" width="42.549486000939666" height="42.165384133263885" viewBox="0.31730719427046206 -0.28269282957139585 42.549486000939666 42.165384133263885">
  <defs>
    <radialGradient id="grad_1" cx="0.3134" cy="0.0695" r="1.2096500000000001">
      <stop offset="0" stop-color="#FFE954" stop-opacity="1"/>
      <stop offset="1" stop-color="#FF9441" stop-opacity="1"/>
    </radialGradient>
    <radialGradient id="grad_2" cx="0.3012" cy="0.2097" r="1.02739">
      <stop offset="0" stop-color="#FF9441" stop-opacity="0"/>
      <stop offset="1" stop-color="#FF9441" stop-opacity="1"/>
    </radialGradient>
    <radialGradient id="grad_3" cx="0.3012" cy="0.2097" r="1.02739">
      <stop offset="0" stop-color="#FF9441" stop-opacity="0"/>
      <stop offset="1" stop-color="#FF9441" stop-opacity="1"/>
    </radialGradient>
    <radialGradient id="grad_4" cx="0.5357" cy="0.18600000000000003" r="1.0582">
      <stop offset="0" stop-color="#FFFF41" stop-opacity="1"/>
      <stop offset="1" stop-color="#FFD833" stop-opacity="1"/>
    </radialGradient>
    <radialGradient id="grad_5" cx="0.5357" cy="0.18600000000000003" r="1.0582">
      <stop offset="0" stop-color="#FFFF41" stop-opacity="1"/>
      <stop offset="1" stop-color="#FFD833" stop-opacity="1"/>
    </radialGradient>
  <radialGradient id="grad_1-,0,0,1,-217.45,-159.9" cx="13.6994" cy="3.0995" r="49.5956" gradientUnits="userSpaceOnUse">
      <stop offset="0" stop-color="#FFE954" stop-opacity="1"/>
      <stop offset="1" stop-color="#FF9441" stop-opacity="1"/>
    </radialGradient><radialGradient id="grad_2-,0,0,1,-217.35,-159.8" cx="13.2992" cy="8.9477" r="42.123" gradientUnits="userSpaceOnUse">
      <stop offset="0" stop-color="#FF9441" stop-opacity="0"/>
      <stop offset="1" stop-color="#FF9441" stop-opacity="1"/>
    </radialGradient><radialGradient id="grad_3-,0,0,1,-217.45,-159.9" cx="13.1992" cy="8.8477" r="42.123" gradientUnits="userSpaceOnUse">
      <stop offset="0" stop-color="#FF9441" stop-opacity="0"/>
      <stop offset="1" stop-color="#FF9441" stop-opacity="1"/>
    </radialGradient><radialGradient id="grad_4-.1269841194152832,0,0,1,-274.85,-158.75" cx="11.5728" cy="16.0992" r="16.9971" gradientUnits="userSpaceOnUse">
      <stop offset="0" stop-color="#FFFF41" stop-opacity="1"/>
      <stop offset="1" stop-color="#FFD833" stop-opacity="1"/>
    </radialGradient><radialGradient id="grad_5-.6230158805847168,0,0,1,-119.65,-159" cx="38.6894" cy="15.8492" r="13.2914" gradientUnits="userSpaceOnUse">
      <stop offset="0" stop-color="#FFFF41" stop-opacity="1"/>
      <stop offset="1" stop-color="#FFD833" stop-opacity="1"/>
    </radialGradient></defs>
  <!-- Exported by Scratch - http://scratch.mit.edu/ -->
  <g id="ID0.09077624510973692">
    <path id="ID0.82457021670416" fill="url(#grad_1-,0,0,1,-217.45,-159.9)" stroke="none" d="M 21.35 0.25 C 27.006 0.25 32.131 2.547 35.842 6.258 C 39.553 9.969 41.85 15.094 41.85 20.75 C 41.85 26.406 39.553 31.531 35.842 35.242 C 32.131 38.953 27.006 41.25 21.35 41.25 C 15.694 41.25 10.569 38.953 6.858 35.242 C 3.147 31.531 0.85 26.406 0.85 20.75 C 0.85 15.094 3.147 9.969 6.858 6.258 C 10.569 2.547 15.694 0.25 21.35 0.25 Z " stroke-width="1"/>
    <path id="ID0.82457021670416" fill="url(#grad_2-,0,0,1,-217.35,-159.8)" stroke="none" d="M 21.45 0.35 C 27.106 0.35 32.231 2.647 35.942 6.358 C 39.653 10.069 41.95 15.194 41.95 20.85 C 41.95 26.506 39.653 31.631 35.942 35.342 C 32.231 39.053 27.106 41.35 21.45 41.35 C 15.794 41.35 10.669 39.053 6.958 35.342 C 3.247 31.631 0.95 26.506 0.95 20.85 C 0.95 15.194 3.247 10.069 6.958 6.358 C 10.669 2.647 15.794 0.35 21.45 0.35 Z " stroke-width="1"/>
    <path id="ID0.82457021670416" fill="url(#grad_3-,0,0,1,-217.45,-159.9)" stroke="none" d="M 21.35 0.25 C 27.006 0.25 32.131 2.547 35.842 6.258 C 39.553 9.969 41.85 15.094 41.85 20.75 C 41.85 26.406 39.553 31.531 35.842 35.242 C 32.131 38.953 27.006 41.25 21.35 41.25 C 15.694 41.25 10.569 38.953 6.858 35.242 C 3.147 31.531 0.85 26.406 0.85 20.75 C 0.85 15.094 3.147 9.969 6.858 6.258 C 10.569 2.547 15.694 0.25 21.35 0.25 Z " stroke-width="1"/>
  </g>
  <path id="ID0.5980430189520121" fill="url(#grad_4-.1269841194152832,0,0,1,-274.85,-158.75)" stroke="none" d="M 11.0659 12.9 C 13.0246 12.9 14.7996 13.864 16.0855 15.42 C 17.3702 16.977 18.1659 19.127 18.1659 21.5 C 18.1659 23.873 17.3702 26.023 16.0855 27.58 C 14.7996 29.136 13.0246 30.1 11.0659 30.1 C 9.1072 30.1 7.3322 29.136 6.0463 27.58 C 4.7615 26.023 3.9659 23.873 3.9659 21.5 C 3.9659 19.127 4.7615 16.977 6.0463 15.42 C 7.3322 13.864 9.1072 12.9 11.0659 12.9 Z " stroke-width="1.0653856591427917"/>
  <path id="ID0.5980430189520121" fill="url(#grad_5-.6230158805847168,0,0,1,-119.65,-159)" stroke="none" d="M 38.4091 12.65 C 39.4919 12.65 40.4732 13.614 41.184 15.17 C 41.8943 16.727 42.3341 18.877 42.3341 21.25 C 42.3341 23.623 41.8943 25.773 41.184 27.33 C 40.4732 28.886 39.4919 29.85 38.4091 29.85 C 37.3263 29.85 36.3451 28.886 35.6342 27.33 C 34.924 25.773 34.4841 23.623 34.4841 21.25 C 34.4841 18.877 34.924 16.727 35.6342 15.17 C 36.3451 13.614 37.3263 12.65 38.4091 12.65 Z " stroke-width="0.8331112733185015"/>
</svg>