<svg version="1.1" xmlns="http://www.w3.org/2000/svg" xmlns:xlink="http://www.w3.org/1999/xlink" width="74.95126" height="16.45015" viewBox="0,0,74.95126,16.45015"><g transform="translate(-202.52323,-171.77485)"><g data-paper-data="{&quot;isPaintingLayer&quot;:true}" fill="#ffffff" fill-rule="evenodd" stroke="#000000" stroke-width="0.25" stroke-linecap="round" stroke-linejoin="miter" stroke-miterlimit="10" stroke-dasharray="" stroke-dashoffset="0" style="mix-blend-mode: normal"><path d="M277.3495,180.1c0,1.525 -0.336,3.081 -0.979,4.41c-0.84271,2.10736 -2.85258,3.51635 -5.121,3.59h-0.3c-9.9,-0.6 -20,-0.8 -30.2,-0.8c-10.7,0 -21.4,0.2 -31.9,0.7h-0.2c-1.86448,-0.00981 -3.58633,-0.9997 -4.533,-2.606c-0.9885,-1.62342 -1.49711,-3.49355 -1.467,-5.394c-0.00124,-0.69248 0.06744,-1.38332 0.205,-2.062c0.352,-1.712 1.163,-3.255 2.486,-4.195c0.8259,-0.57844 1.80136,-0.90591 2.809,-0.943c0.30998,-0.01865 0.61998,-0.03699 0.93,-0.055c9.94639,-0.57076 19.90725,-0.85254 29.87,-0.845c2.82116,0.00039 5.64226,0.02506 8.463,0.074c8.21948,0.14069 16.43428,0.48279 24.637,1.026c3.6,0.3 5.3,3.6 5.3,7.1z"/></g></g></svg>