<svg version="1.1" xmlns="http://www.w3.org/2000/svg" xmlns:xlink="http://www.w3.org/1999/xlink" width="767.99628" height="380.62858" viewBox="0,0,767.99628,380.62858"><defs><linearGradient x1="239.72936" y1="-5.62853" x2="239.72936" y2="360" gradientUnits="userSpaceOnUse" id="color-1"><stop offset="0" stop-color="#020f21"/><stop offset="1" stop-color="#183756"/></linearGradient><linearGradient x1="236.51017" y1="273.80395" x2="236.51017" y2="117.14356" gradientUnits="userSpaceOnUse" id="color-2"><stop offset="0" stop-color="#b2b1ff" stop-opacity="0.50196"/><stop offset="1" stop-color="#b2b1ff" stop-opacity="0"/></linearGradient><linearGradient x1="-146.0618" y1="167.22147" x2="-146.0618" y2="361.22147" gradientUnits="userSpaceOnUse" id="color-3"><stop offset="0" stop-color="#69bdff" stop-opacity="0"/><stop offset="1" stop-color="#69bdff"/></linearGradient><linearGradient x1="-150.57138" y1="217.04693" x2="-150.57138" y2="454.33443" gradientUnits="userSpaceOnUse" id="color-4"><stop offset="0" stop-color="#1b6cf2"/><stop offset="1" stop-color="#1d3480"/></linearGradient><radialGradient cx="246.98689" cy="217.66388" r="1004.64232" gradientUnits="userSpaceOnUse" id="color-5"><stop offset="0" stop-color="#bce7f7"/><stop offset="1" stop-color="#1bafe5"/></radialGradient><radialGradient cx="177.98225" cy="352.00003" r="108.3243" gradientUnits="userSpaceOnUse" id="color-6"><stop offset="0" stop-color="#d0edff"/><stop offset="1" stop-color="#d0edff" stop-opacity="0"/></radialGradient><radialGradient cx="73.48774" cy="283.00003" r="117.7438" gradientUnits="userSpaceOnUse" id="color-7"><stop offset="0" stop-color="#d0edff"/><stop offset="1" stop-color="#d0edff" stop-opacity="0"/></radialGradient><radialGradient cx="398.99759" cy="305.00003" r="94.666" gradientUnits="userSpaceOnUse" id="color-8"><stop offset="0" stop-color="#d0edff"/><stop offset="1" stop-color="#d0edff" stop-opacity="0"/></radialGradient></defs><g transform="translate(173.10519,5.62856)"><g data-paper-data="{&quot;isPaintingLayer&quot;:true}" fill-rule="nonzero" stroke-linecap="butt" stroke-linejoin="miter" stroke-miterlimit="10" stroke-dasharray="" stroke-dashoffset="0" style="mix-blend-mode: normal"><path d="M569.03934,-5.62853c0.00107,0.98747 0.00184,1.97495 0.00234,2.96241c-0.67,2.10917 -1.03146,4.35549 -1.03146,6.68611c-0.77516,45.8062 0.11765,91.62561 0,137.43818c-0.00567,2.20903 -0.99419,4.51028 -1.01714,6.78195c-0.0513,5.07792 -0.03761,10.15648 0,15.23452c0.07477,10.0949 2.81337,20.15881 3.05141,30.14155c0.13883,5.82205 -0.83196,13.80837 0.99293,20.32199c-0.02999,7.55401 -0.02019,15.10825 0.0242,22.66217c0.01338,2.27761 1.00563,4.56604 1.01714,6.78195c0.1164,22.4008 0.18764,44.80299 0,67.20331c-0.01985,2.36927 -0.99137,4.83819 -1.01714,7.26551c-0.07411,6.97775 0.48665,14.04201 -0.67147,20.92366c-1.1811,7.01821 -1.68432,14.10536 -1.80445,21.2252h-664.53232c0.0256,-6.71661 0.10739,-13.43252 0.27492,-20.14686c0.11965,-4.79535 1.99852,-9.9209 2.03427,-14.89255c0.05194,-7.22325 -0.38603,-14.45716 0,-21.67031c0.38276,-7.15181 2.64238,-24.40626 3.01324,-30.86117c1.65283,-28.76808 0.3336,-34.47744 1.05531,-64.74434c0.07513,-3.15097 2.00385,-6.33531 2.03428,-9.67854c0.29022,-31.89029 -0.92728,-63.565 -1.01714,-95.46967c-0.00971,-3.44318 -0.98011,-7.00233 -1.01713,-10.36418c-0.25849,-23.474 0.13784,-49.22322 0.13784,-72.69864c0,-2.48394 -1.13092,-4.94383 -1.15498,-7.35209c-0.07577,-7.58799 -0.29571,-12.34329 -0.58766,-17.75019z" fill="url(#color-1)" stroke="none" stroke-width="1"/><path d="M565.77846,117.14356v156.66042h-658.53659v-156.66041z" data-paper-data="{&quot;index&quot;:null}" fill="url(#color-2)" stroke="none" stroke-width="0"/><path d="M561.81634,167.22147c0.54944,8.75348 1.39045,185.63248 1.40911,194h-653.31639c0.00469,-7.95871 8.30834,-183.85757 8.17774,-194z" fill="url(#color-3)" stroke="none" stroke-width="1.28528"/><path d="M-1.45194,361.80003v-107h484v107z" fill="#69bdff" stroke="none" stroke-width="0"/><path d="M236.83684,217.04693c106.88264,0 203.73469,13.29466 273.86686,34.77156c21.35115,6.53911 40.22565,13.83664 56.15251,21.74837c0.0215,12.59336 -3.53828,81.21501 -3.56787,89.13352c-19.81811,0.21666 -648.10322,-0.85322 -653.31537,-0.3039c0.01373,-7.41219 4.8749,-82.26372 5.23952,-88.61926c0.08585,-1.49653 0.16355,-2.92968 0.23382,-4.30637c13.97912,-6.34635 29.90847,-12.25746 47.52354,-17.65235c70.13217,-21.4769 166.98422,-34.77156 273.86698,-34.77156z" data-paper-data="{&quot;origPos&quot;:null}" fill="url(#color-4)" stroke="url(#color-5)" stroke-width="2.70748"/><path d="M169.50007,335.00003c27.727,0 52.852,2.241 71.045,5.862c18.194,3.62 29.455,8.62 29.455,14.138c0,5.518 -11.261,10.518 -29.455,14.138c-18.193,3.621 -43.318,5.862 -71.045,5.862c-27.727,0 -52.852,-2.241 -71.045,-5.862c-18.194,-3.62 -29.455,-8.62 -29.455,-14.138c0,-5.518 11.261,-10.518 29.455,-14.138c18.193,-3.621 43.318,-5.862 71.045,-5.862z" data-paper-data="{&quot;origPos&quot;:null}" fill="url(#color-6)" stroke="none" stroke-width="1"/><path d="M84.00007,268.00003c27.727,0 52.852,2.241 71.045,5.862c18.194,3.62 29.455,8.62 29.455,14.138c0,5.518 -11.261,10.518 -29.455,14.138c-18.193,3.621 -43.318,5.862 -71.045,5.862c-27.727,0 -52.852,-2.241 -71.045,-5.862c-18.194,-3.62 -29.455,-8.62 -29.455,-14.138c0,-5.518 11.261,-10.518 29.455,-14.138c18.193,-3.621 43.318,-5.862 71.045,-5.862z" data-paper-data="{&quot;origPos&quot;:null}" fill="url(#color-7)" stroke="none" stroke-width="1"/><path d="M399.50006,285.00003c27.727,0 52.852,2.241 71.045,5.862c18.194,3.62 29.455,8.62 29.455,14.138c0,5.518 -11.261,10.518 -29.455,14.138c-18.193,3.621 -43.318,5.862 -71.045,5.862c-27.727,0 -52.852,-2.241 -71.045,-5.862c-18.194,-3.62 -29.455,-8.62 -29.455,-14.138c0,-5.518 11.261,-10.518 29.455,-14.138c18.193,-3.621 43.318,-5.862 71.045,-5.862z" data-paper-data="{&quot;origPos&quot;:null}" fill="url(#color-8)" stroke="none" stroke-width="1"/><path d="M555.53951,285.02273c-9.84875,-2.65733 -19.56335,-5.65731 -29.25166,-8.79898c-4.1579,-1.3483 -18.32547,-1.24129 -22.40248,-1.60562c-6.63937,-0.59332 -15.11345,-2.57094 -20.26813,-3.26387c-6.32026,-0.84963 -12.82601,-0.24023 -19.12113,-1.2601c-23.52047,-3.81052 -47.05978,-7.53125 -70.66904,-10.74615c-42.23703,-5.75147 -96.53558,-17.66271 -138.62894,-23.86195c-8.86804,-1.30603 -17.8064,-2.2087 -26.75823,-2.66974c-6.37198,-0.32817 -12.76098,0.12478 -19.13883,0.30592c-14.6467,0.41599 -40.67276,6.00702 -47.86222,-13.3706c-1.73596,-4.67891 -2.31022,-9.97305 -1.49607,-14.89676c1.75648,-10.62258 6.52335,-15.90715 15.90119,-19.54272c3.86889,-1.49988 8.2535,-0.988 12.4021,-1.07221c14.51327,-0.2946 29.18615,-2.70124 43.72053,-1.32001c1.11473,0.10593 20.95324,1.52135 30.59362,3.10453c23.7593,3.90184 47.5109,7.85031 71.26496,11.7839c22.35318,3.7016 44.85602,8.33732 67.20598,12.05829c8.96218,1.49208 17.9497,4.2538 27.01379,3.63003c1.8231,-0.12546 -0.66229,-3.61814 -0.63495,-5.44535c0.02609,-1.74346 0.16415,-3.51745 0.65978,-5.18918c2.03269,-6.85603 7.70158,-10.87869 13.42176,-14.7789c6.01037,-4.09807 17.61791,-4.38332 24.22361,-4.22921c18.98838,0.44302 38.37392,4.23382 55.93435,11.4556c11.69362,4.80903 22.91141,9.89264 34.1214,15.43551c4.6234,0.88295 8.7163,2.99599 11.99401,5.94169c2.49095,1.73847 4.63845,4.0544 6.47372,7.79415c0.85411,1.74042 1.15792,3.64324 1.28711,5.59984c0.52155,2.44104 0.68217,4.99446 0.43206,7.59074c0.09696,0.61473 4.81008,2.87068 6.32573,3.89535c3.95433,2.67337 7.67521,6.58878 10.18858,10.65047c0.40914,0.66118 0.07479,1.55966 0.23308,2.32091c0.64015,3.07851 1.84479,6.05408 2.15899,9.1827c0.30727,3.05957 -2.09511,5.78459 -3.28036,8.62196c-1.18525,2.83736 -1.43509,6.46155 -3.82743,8.39343c-2.44633,1.97548 -5.40962,3.20999 -8.0494,4.91839c-0.65275,0.42245 -1.05688,1.29179 -1.81476,1.46547c-7.38666,1.6928 -14.29767,0.89304 -21.18058,-1.9037z" fill-opacity="0.50196" fill="#75baff" stroke="none" stroke-width="0.5"/><path d="M-172.68697,269.57722c0.92436,-3.02616 2.57935,-5.74979 4.75077,-8.18378c2.68306,-3.4896 6.26653,-6.2509 10.40283,-7.93637c8.99532,-4.91098 19.98201,-7.58165 27.93103,-8.3141c2.22009,-0.20457 22.21057,-2.03453 33.14366,-2.83894c12.7984,-0.94165 25.60033,-1.83587 38.39633,-2.80949c45.52349,-3.46376 91.05049,-7.07793 136.65155,-9.3836c8.89204,-0.44959 17.89666,-0.5144 26.78871,-0.96383c5.29353,-0.26755 12.32295,-1.95411 17.77773,-0.59041c13.02875,3.25719 20.3998,10.11275 21.09375,24.60938c0.16682,3.48475 -5.86476,8.57099 -2.73073,10.10371c5.74248,2.8084 12.70493,-1.42771 19.06,-2.11777c16.04857,-1.74263 34.37258,-2.33819 50.61829,-2.93865c47.74927,-1.76488 51.17189,-1.1094 116.3076,-0.96661c10.68129,0.02341 24.64041,6.07681 27.72169,17.03249c2.84222,10.10565 0.25264,20.46394 -7.0108,28.04318c-7.13067,7.44069 -15.29855,4.9438 -23.78853,4.92433c-27.60766,-0.06329 -55.2164,-0.22835 -82.82318,0c-9.52475,0.07878 -19.04159,0.57525 -28.56038,0.92131c-42.8751,1.55871 -85.1215,7.5579 -127.716,12.06964c-31.11773,3.29609 -62.16634,5.23767 -93.22025,9.31081c-20.68791,2.7135 -24.20365,2.84969 -40.72587,4.75633c-17.59478,2.03042 -37.58379,7.32626 -54.66635,0.32135c-0.71939,-0.29499 -0.97628,-1.21861 -1.55138,-1.74189c-2.3257,-2.11616 -5.0479,-3.81756 -7.13919,-6.16566c-2.04512,-2.29628 -1.70038,-5.91267 -2.40686,-8.90538c-0.70649,-2.99271 -2.63213,-6.07314 -1.82984,-9.0416c0.82039,-3.03546 2.49432,-5.77463 3.62811,-8.70747c0.28036,-0.72523 0.10193,-1.66202 0.6086,-2.2518c1.47464,-1.71652 7.32027,-3.83853 5.13798,-4.43734c-9.52955,-2.61482 -19.92138,2.15456 -29.86824,5.49899c-3.4181,1.75425 -7.29307,2.74419 -11.39925,2.74419c-13.80712,0 -25,-11.19288 -25,-25c0,-0.63182 0.02344,-1.25817 0.06949,-1.87821c-0.01484,-1.74703 -0.15603,-3.51029 0.34875,-5.1628z" fill-opacity="0.50196" fill="#75baff" stroke="none" stroke-width="0.5"/><path d="M-47.72764,34.59195c0,-2.07107 1.67893,-3.75 3.75,-3.75c2.07107,0 3.75,1.67893 3.75,3.75c0,2.07107 -1.67893,3.75 -3.75,3.75c-2.07107,0 -3.75,-1.67893 -3.75,-3.75z" fill-opacity="0.50196" fill="#ffffff" stroke="none" stroke-width="0.5"/><path d="M89.23296,66.48689c0,-2.07107 1.67893,-3.75 3.75,-3.75c2.07107,0 3.75,1.67893 3.75,3.75c0,2.07107 -1.67893,3.75 -3.75,3.75c-2.07107,0 -3.75,-1.67893 -3.75,-3.75z" fill-opacity="0.50196" fill="#ffffff" stroke="none" stroke-width="0.5"/><path d="M29.19544,100.258c0,-2.07107 1.67893,-3.75 3.75,-3.75c2.07107,0 3.75,1.67893 3.75,3.75c0,2.07107 -1.67893,3.75 -3.75,3.75c-2.07107,0 -3.75,-1.67893 -3.75,-3.75z" fill-opacity="0.50196" fill="#ffffff" stroke="none" stroke-width="0.5"/><path d="M253.39806,91.81522c0,-2.07107 1.67893,-3.75 3.75,-3.75c2.07107,0 3.75,1.67893 3.75,3.75c0,2.07107 -1.67893,3.75 -3.75,3.75c-2.07107,0 -3.75,-1.67893 -3.75,-3.75z" fill-opacity="0.50196" fill="#ffffff" stroke="none" stroke-width="0.5"/><path d="M102.36618,22.39683c0,-2.07107 1.67893,-3.75 3.75,-3.75c2.07107,0 3.75,1.67893 3.75,3.75c0,2.07107 -1.67893,3.75 -3.75,3.75c-2.07107,0 -3.75,-1.67893 -3.75,-3.75z" fill-opacity="0.50196" fill="#ffffff" stroke="none" stroke-width="0.5"/><path d="M155.83709,125.58634c0,-2.07107 1.67893,-3.75 3.75,-3.75c2.07107,0 3.75,1.67893 3.75,3.75c0,2.07107 -1.67893,3.75 -3.75,3.75c-2.07107,0 -3.75,-1.67893 -3.75,-3.75z" fill-opacity="0.50196" fill="#ffffff" stroke="none" stroke-width="0.5"/><path d="M212.12228,35.53004c0,-2.07107 1.67893,-3.75 3.75,-3.75c2.07107,0 3.75,1.67893 3.75,3.75c0,2.07107 -1.67893,3.75 -3.75,3.75c-2.07107,0 -3.75,-1.67893 -3.75,-3.75z" fill-opacity="0.50196" fill="#ffffff" stroke="none" stroke-width="0.5"/><path d="M402.5538,83.37244c0,-2.07107 1.67893,-3.75 3.75,-3.75c2.07107,0 3.75,1.67893 3.75,3.75c0,2.07107 -1.67893,3.75 -3.75,3.75c-2.07107,0 -3.75,-1.67893 -3.75,-3.75z" fill-opacity="0.50196" fill="#ffffff" stroke="none" stroke-width="0.5"/><path d="M344.39245,123.71015c0,-2.07107 1.67893,-3.75 3.75,-3.75c2.07107,0 3.75,1.67893 3.75,3.75c0,2.07107 -1.67893,3.75 -3.75,3.75c-2.07107,0 -3.75,-1.67893 -3.75,-3.75z" fill-opacity="0.50196" fill="#ffffff" stroke="none" stroke-width="0.5"/><path d="M325.6307,27.08726c0,-2.07107 1.67893,-3.75 3.75,-3.75c2.07107,0 3.75,1.67893 3.75,3.75c0,2.07107 -1.67893,3.75 -3.75,3.75c-2.07107,0 -3.75,-1.67893 -3.75,-3.75z" fill-opacity="0.50196" fill="#ffffff" stroke="none" stroke-width="0.5"/><path d="M484.16731,43.97282c0,-2.07107 1.67893,-3.75 3.75,-3.75c2.07107,0 3.75,1.67893 3.75,3.75c0,2.07107 -1.67893,3.75 -3.75,3.75c-2.07107,0 -3.75,-1.67893 -3.75,-3.75z" fill-opacity="0.50196" fill="#ffffff" stroke="none" stroke-width="0.5"/><path d="M460.71514,143.40997c0,-2.07107 1.67893,-3.75 3.75,-3.75c2.07107,0 3.75,1.67893 3.75,3.75c0,2.07107 -1.67893,3.75 -3.75,3.75c-2.07107,0 -3.75,-1.67893 -3.75,-3.75z" fill-opacity="0.50196" fill="#ffffff" stroke="none" stroke-width="0.5"/><path d="M518.8765,135.90527c0,-2.07107 1.67893,-3.75 3.75,-3.75c2.07107,0 3.75,1.67893 3.75,3.75c0,2.07107 -1.67893,3.75 -3.75,3.75c-2.07107,0 -3.75,-1.67893 -3.75,-3.75z" fill-opacity="0.50196" fill="#ffffff" stroke="none" stroke-width="0.5"/><path d="M527.31927,49.60134c0,-2.07107 1.67893,-3.75 3.75,-3.75c2.07107,0 3.75,1.67893 3.75,3.75c0,2.07107 -1.67893,3.75 -3.75,3.75c-2.07107,0 -3.75,-1.67893 -3.75,-3.75z" fill-opacity="0.50196" fill="#ffffff" stroke="none" stroke-width="0.5"/><path d="M17.9384,146.22421c0,-2.07107 1.67893,-3.75 3.75,-3.75c2.07107,0 3.75,1.67893 3.75,3.75c0,2.07107 -1.67893,3.75 -3.75,3.75c-2.07107,0 -3.75,-1.67893 -3.75,-3.75z" fill-opacity="0.50196" fill="#ffffff" stroke="none" stroke-width="0.5"/><path d="M144.58005,76.80584c0,-2.07107 1.67893,-3.75 3.75,-3.75c2.07107,0 3.75,1.67893 3.75,3.75c0,2.07107 -1.67893,3.75 -3.75,3.75c-2.07107,0 -3.75,-1.67893 -3.75,-3.75z" fill-opacity="0.50196" fill="#ffffff" stroke="none" stroke-width="0.5"/><path d="M228.06973,139.65763c0,-2.07107 1.67893,-3.75 3.75,-3.75c2.07107,0 3.75,1.67893 3.75,3.75c0,2.07107 -1.67893,3.75 -3.75,3.75c-2.07107,0 -3.75,-1.67893 -3.75,-3.75z" fill-opacity="0.50196" fill="#ffffff" stroke="none" stroke-width="0.5"/><path d="M329.38307,73.05347c0,-2.07107 1.67893,-3.75 3.75,-3.75c2.07107,0 3.75,1.67893 3.75,3.75c0,2.07107 -1.67893,3.75 -3.75,3.75c-2.07107,0 -3.75,-1.67893 -3.75,-3.75z" fill-opacity="0.50196" fill="#ffffff" stroke="none" stroke-width="0.5"/><path d="M396.92528,137.78146c0,-2.07107 1.67893,-3.75 3.75,-3.75c2.07107,0 3.75,1.67893 3.75,3.75c0,2.07107 -1.67893,3.75 -3.75,3.75c-2.07107,0 -3.75,-1.67893 -3.75,-3.75z" fill-opacity="0.50196" fill="#ffffff" stroke="none" stroke-width="0.5"/><path d="M-89.47192,107.96183c1.67705,-3.3541 5.03116,-1.67705 5.03116,-1.67705l1.38497,0.73462c2.41223,0.82983 4.81254,1.89791 6.82012,3.47179c0.56736,0.44479 0.84989,1.21889 1.4702,1.58626c1.9463,1.15269 4.25508,1.70758 6.03449,3.10417c2.80599,2.2023 5.26236,5.23128 7.77888,7.75307c2.28536,2.29014 4.85616,4.27672 7.31005,6.3853c3.51637,3.02156 6.36658,6.41726 10.11194,9.21382c2.26421,1.7105 4.82052,2.9954 7.22618,4.50049c4.64323,2.905 9.68374,6.29542 15.37225,6.97273c3.39726,0.4045 6.06433,-0.46863 9.26008,-0.91776c1.15261,-0.16198 2.36113,0.32966 3.49145,0.0519c2.00936,-0.49378 3.88462,-1.47137 5.68777,-2.48625c3.27026,-1.84063 5.84034,-5.17786 8.46961,-7.77276c2.24647,-2.21711 4.76189,-5.35308 5.56857,-8.52887c0.68331,-2.69009 -0.10032,-6.63837 -0.10032,-9.45738c0.05307,-6.22166 -3.07867,-10.95685 -4.57985,-16.91969c-0.45544,-1.80904 -0.41965,-3.7221 -0.90997,-5.522c-2.83421,-10.40417 -8.092,-19.77054 -12.87874,-29.35764c-0.24051,-0.4817 -5.36951,-12.56829 -5.6736,-13.22699c-2.75637,-5.97046 -5.65804,-11.24593 -6.85325,-17.78731c-0.81911,-4.48295 -2.15518,-9.66081 0.49861,-13.90458c0.36337,-0.58109 5.79272,-5.9142 6.441,-6.55706c5.46118,-3.57511 10.90017,-4.59221 17.38684,-4.60231c7.32355,-0.01141 13.98444,0.5207 20.95603,3.03093c11.89151,4.28172 19.74679,13.87048 22.99298,25.97503c1.01826,3.79696 0.44179,7.86211 1.04054,11.74737c0.33329,2.16276 1.37902,4.16333 1.82996,6.30465c0.41224,1.95754 0.06944,4.07362 0.75162,5.95419c0.5433,1.49774 2.20911,2.39067 2.81062,3.86598c1.93047,4.73481 1.41956,10.16685 2.88157,15.06661c0.43908,1.47153 1.62553,2.60584 2.4383,3.90875c6.09382,9.5457 20.53613,11.83949 30.93972,10.49886c0.98072,-0.12638 1.83506,-0.80048 2.81426,-0.93809c1.15262,-0.16198 2.36113,0.32966 3.49145,0.0519c1.16554,-0.28642 2.07761,-1.21376 3.17885,-1.69104c4.30977,-1.86789 8.35363,-2.53517 12.37561,-5.20613c3.85216,-2.55819 6.03004,-6.19749 9.32167,-9.24829c1.20272,-3.94443 3.61454,-7.2832 5.44978,-10.93311c0.49879,-0.99199 0.54776,-2.18477 1.11683,-3.13818c0.4533,-0.75944 1.41914,-1.11897 1.87617,-1.87617c1.786,-2.95903 2.62065,-6.47783 5.22872,-9.12294c1.86791,-1.89444 6.15315,-5.19536 8.50878,-6.34555c3.60197,-1.75875 7.17058,-1.31941 11.02843,-1.31941c8.08785,0 14.74906,2.08151 20.65659,7.8596c2.53119,3.36384 5.89448,7.2624 7.94086,10.93874c1.48949,2.67588 2.20386,5.74069 3.72664,8.39777c1.88296,3.28553 4.76851,6.10031 6.56966,9.38614c1.16127,2.11851 1.78932,4.49422 2.86509,6.6574c1.77772,3.57468 4.68672,5.78563 7.10742,8.78955c2.52356,3.13155 4.37194,5.54425 8.1284,7.45155c4.22648,2.14594 9.36147,1.49783 13.88957,1.51737c6.36414,-1.45121 12.73311,-2.88526 19.10946,-4.28191c2.23858,-0.49033 4.59919,-0.57977 6.72155,-1.44423c2.12236,-0.86446 3.87364,-2.44986 5.81774,-3.66319c4.11282,-2.56686 8.54172,-4.67155 12.38111,-7.63181c5.14247,-3.96496 9.29986,-9.91317 13.67957,-14.64634c6.3175,-6.82733 12.58785,-13.58512 18.70592,-20.57691c6.26474,-7.15941 12.25465,-14.60068 21.77335,-17.12661c6.72528,-0.95578 14.22173,-1.9377 21.02119,-0.95956c2.36855,0.34073 4.29491,2.14101 6.28241,3.47367c1.2338,0.82729 2.84099,1.06515 3.96249,2.03927c2.82732,2.45579 4.47271,6.01948 6.95803,8.82089c1.26094,1.42131 2.909,2.50525 4.00027,4.06064c2.85326,4.06675 4.41376,8.59123 6.10343,13.08674c1.42733,3.79752 3.4459,7.49448 4.72038,11.34107c2.41618,7.29235 2.16973,15.86986 5.64768,22.57141c1.63073,9.41642 4.56015,18.19589 9.10195,26.55964c0.92838,1.70962 1.46778,3.63674 2.56914,5.24039c1.80981,2.63519 4.59502,3.88526 6.91954,5.92631c1.24536,1.09349 2.17207,2.53568 3.488,3.54314c3.31852,2.54063 7.9474,3.11293 11.82375,4.08808c2.09005,0.52578 4.07191,1.51991 6.20788,1.80688c3.26753,0.43899 6.59369,-0.03458 9.89054,-0.04907c7.45331,-0.03275 14.64363,-0.19366 22.05446,-1.01214c4.60752,-0.50887 9.19644,-1.36847 13.65277,-2.64488c14.4848,-2.05474 28.5555,-8.12318 39.55693,-17.88842c2.77906,-2.46679 4.76581,-5.71609 7.39573,-8.34129c1.01483,-1.01301 2.55038,-1.4353 3.48318,-2.52432c0.85321,-0.99611 0.95219,-2.4739 1.71308,-3.5422c0.76964,-1.08058 2.03654,-1.73947 2.81426,-2.81426c1.56774,-2.1666 2.22365,-4.87264 3.55109,-7.19425c2.88719,-5.04952 4.26045,-9.62767 2.35609,-15.34073c0,-5.63363 -2.34687,-12.56026 -5.17035,-17.48019c-1.9293,-3.36181 -5.09068,-6.07317 -6.69188,-9.61552c-1.50467,-3.32879 -2.10723,-7.03383 -3.74309,-10.30015c-2.41158,-4.8152 -4.80585,-9.66538 -5.95142,-15.02851c-0.88791,-4.15686 0.31539,-8.40137 0.89852,-12.42437c0.1539,-1.06173 -0.23103,-2.18858 0.07222,-3.21765c1.28614,-4.36458 4.13014,-7.72602 7.30671,-10.77115c12.54919,-4.55168 25.15531,-8.06475 38.55686,-8.06475c2.65431,0 5.33523,-0.3472 7.96288,0.0281c3.168,0.45247 7.65034,1.72324 10.57025,3.16748c3.23186,1.59854 6.91494,5.58554 10.54756,5.2472c0,0 3.75,0 3.75,3.75c0,3.75 -3.75,3.75 -3.75,3.75c-8.00687,-0.33027 -13.86801,-7.30394 -22.03417,-8.47088c-14.3803,-2.05493 -28.12346,3.16603 -41.66038,6.97272c-1.45673,1.63514 -3.37073,3.98188 -3.95032,6.11441c-0.21086,0.77584 0.18407,1.61471 0.07222,2.41087c-0.44243,3.14928 -1.74199,6.81405 -0.97765,10.0897c0.35493,1.52105 1.33827,2.83538 1.78838,4.33103c0.43096,1.43201 0.28531,3.01849 0.84125,4.40675c0.63565,1.58732 1.9123,2.84645 2.67598,4.3763c1.63777,3.28089 2.29854,6.97532 3.7616,10.33775c1.45246,3.33808 4.62933,5.96428 6.44133,9.14621c3.1945,5.60966 6.08668,13.58864 6.08668,20.04326c2.41173,7.23521 0.36331,13.94018 -3.27242,20.30655c-0.70849,1.2406 -3.30468,6.89641 -3.9536,7.81513c-0.76538,1.08361 -2.04179,1.7357 -2.81426,2.81426c-0.86495,1.20769 -1.07219,2.83492 -2.03926,3.96249c-1.10243,1.28541 -2.82514,1.90574 -4.02151,3.1042c-2.69508,2.69981 -4.76399,6.00812 -7.61364,8.54426c-11.93796,10.62456 -27.25024,17.37043 -42.99467,19.63503c-9.70212,2.76526 -19.62165,3.64608 -29.70323,3.78848c-5.24954,0.07415 -13.33269,0.69425 -18.49826,0.01013c-2.38003,-0.31521 -4.6047,-1.36674 -6.93472,-1.94547c-4.91007,-1.21958 -10.22935,-2.18413 -14.44267,-5.29279c-1.51323,-1.11649 -2.59945,-2.7255 -4.01669,-3.96155c-3.58559,-3.1272 -5.03991,-2.91487 -8.08984,-7.2069c-1.30327,-1.83404 -1.97873,-4.04323 -3.05938,-6.01665c-4.76386,-8.69955 -8.09292,-18.00541 -9.65977,-27.84937c-3.32903,-6.88078 -3.1499,-15.1277 -5.60935,-22.45672c-1.27116,-3.78799 -3.25807,-7.42414 -4.66048,-11.173c-1.45885,-3.89975 -2.66364,-7.73709 -5.1536,-11.30351c-0.93758,-1.34292 -2.41509,-2.22099 -3.50441,-3.44405c-2.25188,-2.52835 -3.58605,-5.88294 -6.17518,-8.06466c-1.00296,-0.84514 -2.44865,-0.98895 -3.5422,-1.71308c-0.66507,-0.44039 -1.00013,-1.27296 -1.655,-1.72839c-1.77395,-1.23371 -4.31052,-0.38491 -6.47128,-0.37803c-4.45958,0.01418 -8.93621,0.23477 -13.3506,0.86818c-7.55819,1.70111 -12.77964,9.2291 -17.62627,14.76833c-7.78023,8.89206 -15.69778,17.6219 -23.74027,26.32595c-3.08507,3.33884 -5.94724,6.9605 -9.54029,9.74536c-0.25917,0.20088 -12.61338,7.84335 -13.12684,8.15883c-2.3077,1.41787 -4.42786,3.21044 -6.93624,4.23213c-2.50838,1.02169 -5.27764,1.22065 -7.91926,1.8187c-6.63328,1.50174 -13.27589,2.96471 -19.92026,4.41648c-6.09648,0.02273 -12.33522,0.56982 -18.00537,-2.23497c-4.64645,-2.2984 -7.52669,-5.51853 -10.63333,-9.434c-2.68144,-3.37956 -5.89403,-5.97689 -7.90196,-9.97217c-1.0539,-2.09699 -1.64422,-4.41293 -2.76343,-6.47581c-1.77815,-3.2774 -4.69413,-6.09593 -6.56355,-9.37557c-1.53361,-2.69049 -2.27667,-5.77918 -3.77805,-8.48779c-1.81382,-3.27227 -4.82331,-6.69398 -7.06852,-9.69916c-3.06416,-3.20086 -7.77541,-5.29753 -12.17642,-5.27361c-3.15998,0.01717 -7.64129,-0.96189 -10.54756,0.55677c-3.77886,1.97462 -7.63876,5.72027 -9.53592,9.53592c-0.49433,0.99422 -0.54776,2.18477 -1.11683,3.13818c-0.4533,0.75944 -1.41914,1.11898 -1.87617,1.87618c-0.44845,0.743 -0.3732,1.71314 -0.75934,2.49034c-1.93954,3.90379 -4.32844,7.42565 -5.80725,11.58096c-3.76027,3.96174 -6.68499,8.29212 -11.31623,11.38961c-2.31129,1.54586 -4.68638,3.04437 -7.24219,4.13962c-2.11955,0.90829 -4.52561,1.01113 -6.64862,1.91129c-1.47055,0.62352 -2.77749,1.66895 -4.32583,2.06131c-1.29687,0.32864 -2.68923,-0.14008 -4.01324,0.0519c-0.97859,0.1419 -1.83268,0.81862 -2.81426,0.93809c-13.86049,1.68697 -30.19143,-1.80024 -38.47867,-13.89139c-1.0634,-1.82404 -2.55242,-3.45937 -3.19021,-5.47212c-1.47079,-4.64155 -0.70455,-9.88951 -2.60282,-14.37323c-0.66977,-1.582 -2.38216,-2.6005 -2.96203,-4.21763c-0.81757,-2.28003 -0.60972,-4.81217 -1.12455,-7.17901c-0.50261,-2.31063 -1.56337,-4.49131 -1.92238,-6.82856c-0.54652,-3.55796 0.12925,-7.29875 -0.83564,-10.76671c-2.70813,-9.73341 -8.59167,-17.50189 -18.28282,-20.92928c-3.94598,-1.39554 -7.96124,-2.31734 -12.14283,-2.60702c-6.06813,-0.42037 -13.71213,-0.68665 -18.93269,2.91181c-1.57808,1.59411 -3.464,2.91012 -4.81603,4.69997c-1.37544,1.82085 0.31633,7.60109 0.49861,8.60949c1.06677,5.90128 3.79253,10.59289 6.27996,15.9838c1.98094,4.2932 3.46848,8.81063 5.58343,13.03942c5.00467,10.00672 10.42154,19.81605 13.38768,30.67989c0.51061,1.87017 0.4993,3.85349 0.96621,5.73504c1.65191,6.65677 4.75422,11.71517 4.80101,18.72758c0,3.39855 0.70551,7.92407 -0.10032,11.18053c-1.1286,4.56084 -4.36493,8.87292 -7.56463,12.10903c-3.20489,3.24135 -6.29215,6.802 -10.29211,9.1128c-2.33253,1.34751 -4.83418,2.48056 -7.44543,3.14227c-1.29687,0.32865 -2.68923,-0.14008 -4.01324,0.0519c-3.81901,0.55375 -7.34635,1.47989 -11.37782,0.95841c-9.47942,-1.22618 -18.71858,-7.35449 -26.18205,-12.91702c-9.26945,-6.9797 -16.54012,-16.21103 -25.45579,-23.55213c-1.49266,-1.22905 -3.56869,-1.52267 -5.22255,-2.52435c-2.69224,-1.6306 -3.57118,-3.32032 -6.71906,-4.32281l-2.36737,-1.14155c0,0 -3.3541,-1.67705 -1.67705,-5.03115z" data-paper-data="{&quot;index&quot;:null}" fill-opacity="0.50196" fill="#4679ff" stroke="none" stroke-width="0.5"/><path d="M583.59974,119.04939c0,3.75 -3.75,3.75 -3.75,3.75h-0.93809c-14.13703,0 -28.96746,1.47805 -42.46165,-3.0067c-6.3728,-2.1923 -11.91461,-5.82827 -17.13908,-10.03839c-0.62863,-0.50658 -4.28156,-4.35123 -4.69043,-4.69043c-2.73708,-2.27073 -5.71095,-4.2901 -8.44277,-6.56661c-5.69044,-4.74203 -11.21394,-10.11008 -18.86113,-11.39357c-1.6529,-0.27742 -3.35181,0.04842 -5.02783,0.04842c-2.85034,0 -6.10824,-0.39156 -8.92268,-0.0281c-1.27865,0.16513 -2.47245,0.78279 -3.75234,0.93809c-2.20227,0.26722 -4.45444,-0.26904 -6.65527,0.00985c-6.90522,0.87501 -13.3639,3.52029 -19.93887,5.4913c-1.47785,0.44302 -3.07735,0.40562 -4.54197,0.89057c-11.07059,3.66555 -21.76003,10.35683 -31.46438,16.70721c-3.58568,1.09334 -3.02357,2.5664 -6.24268,4.51169c-1.69261,1.02283 -3.94499,0.83842 -5.62851,1.87617c-1.73369,1.06868 -3.01407,2.79077 -4.7797,3.80582c-4.45775,2.56272 -9.02666,3.19886 -13.71439,4.96409c-6.82519,2.57012 -13.31813,4.84516 -20.54267,5.83336c-2.20837,0.30207 -4.22416,1.4975 -6.4241,1.85585c-0.37891,0.06172 -5.55118,0.04842 -6.2292,0.04842c-5.94122,0 -11.88242,0 -17.82364,0c-2.87148,0 -6.21539,0.39946 -9.04347,-0.04842c-0.97666,-0.15467 -1.8397,-0.77064 -2.81425,-0.93809c-1.08483,-0.18638 -2.25528,0.23333 -3.30027,-0.11248c-1.25738,-0.4161 -2.18904,-1.50727 -3.37514,-2.09658c-4.37705,-2.17473 -9.67432,-2.52224 -14.0713,-4.69043c-4.42674,-2.18286 -8.89411,-4.44585 -13.36786,-6.69188c-1.78388,-1.23108 -3.95733,-1.77601 -5.98543,-2.5406c-0.26536,-0.10003 -7.41759,-3.68375 -7.8807,-3.91531c-7.77899,-3.88949 -15.33323,-8.56777 -22.38225,-13.68624c-7.6504,-5.55514 -15.46458,-11.53 -22.53171,-17.83048c-1.22253,-1.08991 -2.13391,-2.52154 -3.44405,-3.50441c-1.04829,-0.78643 -2.4227,-1.02932 -3.53117,-1.72839c-2.14033,-1.34982 -3.74402,-3.43494 -5.84969,-4.83821c-2.25418,-1.50224 -4.98376,-2.17308 -7.28352,-3.60457c-2.47499,-1.54056 -4.8054,-3.33824 -7.41543,-4.63696c-3.63046,-2.4203 -7.23766,-3.61299 -11.12061,-5.55309c-5.94916,-2.97247 -12.02902,-6.83437 -18.31697,-9.18263c-2.17734,-0.81314 -4.56184,-1.01893 -6.70061,-1.92869c-4.85846,-2.06664 -9.67137,-4.29968 -14.2838,-6.66247c-0.89462,-0.45828 -6.14503,-1.69972 -6.22008,-1.72778c-5.60982,-2.09723 -11.04443,-4.61746 -16.77036,-6.52611c-4.94555,-1.64852 -9.86613,-3.21459 -14.87198,-4.64755c-1.75498,-0.50237 -3.3775,-1.49112 -5.18075,-1.77504c-0.92667,-0.1459 -1.89009,0.16094 -2.81426,0c-5.10209,-0.88852 -9.89411,-3.80975 -15.00938,-4.69043c-2.73856,-0.47149 -5.98552,0.04842 -8.78018,0.04842c-4.98325,0 -9.70467,-0.30164 -14.55119,0.90999c-14.63135,0.12562 -28.45512,3.6392 -42.84655,6.51613c-5.82861,1.16517 -11.95143,1.45501 -17.72568,2.79251c-1.92665,0.44627 -3.70116,1.43298 -5.62852,1.87617c-4.06975,0.93583 -8.27209,1.16775 -12.38064,1.91505c-6.39331,1.16288 -12.45466,2.86156 -18.97959,2.8476c-6.231,1.55775 -12.81436,0.96619 -19.21991,0.96619c-3.79322,0 -8.11617,0.54412 -11.85772,-0.04843c-8.2509,-1.30668 -16.27,-3.70392 -24.72765,-3.70392c0,0 -3.75,0 -3.75,-3.75c0,-3.75 3.75,-3.75 3.75,-3.75c8.86759,0 17.32091,2.27758 25.92901,3.80076c3.27858,0.58013 7.31406,-0.04842 10.65635,-0.04842c6.11597,0 12.35914,0.57611 18.30354,-0.90999c6.39276,-0.01317 12.27404,-1.64138 18.54386,-2.78091c3.9845,-0.72417 8.06428,-0.92342 12.0096,-1.83729c1.92665,-0.44628 3.70116,-1.43299 5.62852,-1.87618c5.84865,-1.34487 12.02222,-1.65555 17.9216,-2.836c14.50293,-2.90202 28.67577,-6.79336 43.4574,-6.61708c5.12913,-1.28228 10.20275,-0.96618 15.46756,-0.96618c3.20641,0 6.82081,-0.46644 9.98155,0.04842c5.11659,0.83346 9.94117,3.89244 15.00938,4.69043c8.17499,1.28715 16.09437,4.06297 24.03732,6.71062c13.05146,4.35049 25.27147,9.69622 37.77267,15.1024c2.04561,0.88463 4.34669,1.03871 6.43259,1.82365c6.58732,2.47885 12.97132,6.45918 19.20649,9.5791c3.9131,1.95801 7.71168,3.24942 11.39345,5.70394c2.66709,1.33968 5.06613,3.15704 7.59396,4.7439c2.44329,1.53379 5.32574,2.29961 7.72586,3.90013c1.95855,1.30605 3.40565,3.30374 5.40735,4.54264c1.26393,0.78228 2.78428,1.13224 3.97352,2.02396c1.52015,1.13985 2.63876,2.73997 4.06063,4.00028c6.88726,6.10465 14.45506,11.90896 21.88691,17.31439c6.73181,4.89627 13.94623,9.36609 21.37924,13.08259c4.73982,2.36991 9.90016,3.8388 14.27647,6.6773c4.33445,2.15732 8.63813,4.2765 12.89855,6.44133c4.35122,2.21096 9.69729,2.48915 14.07129,4.69043c0.83261,0.41902 1.37006,1.35822 2.25339,1.65576c0.73634,0.24803 1.56109,-0.23565 2.32825,-0.11248c2.96009,0.47523 4.75396,0.88966 7.8421,0.88966c6.8793,0 13.7586,0 20.6379,0c10.50886,0 20.82427,-3.62242 30.59389,-7.27175c4.27459,-1.59673 8.50425,-2.12248 12.55203,-4.41678c1.71198,-0.97036 2.90648,-2.69862 4.60116,-3.69888c1.70312,-1.00524 3.92657,-0.86895 5.62852,-1.87617c1.52228,-0.90088 2.24906,-2.82012 3.75235,-3.75234c0.94362,-0.58516 2.09212,-0.74455 3.13818,-1.11683c9.77967,-6.68352 21.0514,-13.28341 32.32549,-17.06389c1.56068,-0.52333 3.26234,-0.51228 4.8389,-0.9856c7.03657,-2.11254 13.94512,-4.85194 21.33693,-5.76573c2.14301,-0.26493 4.33641,0.2864 6.47794,0.00984c4.61882,-0.59647 8.88206,-0.96618 13.5914,-0.96618c0.67236,0 5.85716,-0.0133 6.2292,0.04842c2.64104,0.43816 7.51818,1.99215 9.81358,3.3259c0.76471,0.44434 1.11777,1.42114 1.87617,1.87618c0.84791,0.50875 1.96975,0.4237 2.81426,0.93808c2.85336,1.73795 5.35931,4.73038 7.91066,6.85651c2.73023,2.27519 5.71731,4.2862 8.44277,6.56661c6.32761,5.29433 11.35749,10.83775 19.4463,13.41376c12.62078,4.22065 26.84653,2.62182 40.08994,2.62182h0.93809c0,0 3.75,0 3.75,3.75z" data-paper-data="{&quot;index&quot;:null}" fill-opacity="0.50196" fill="#c580ff" stroke="none" stroke-width="0.5"/></g></g></svg>