<svg version="1.1" xmlns="http://www.w3.org/2000/svg" xmlns:xlink="http://www.w3.org/1999/xlink" width="133.09267" height="29.60929" viewBox="0,0,133.09267,29.60929"><g transform="translate(-173.45367,-165.49667)"><g data-paper-data="{&quot;isPaintingLayer&quot;:true}" fill="#ffffff" fill-rule="nonzero" stroke-linecap="butt" stroke-linejoin="miter" stroke-miterlimit="10" stroke-dasharray="" stroke-dashoffset="0" style="mix-blend-mode: normal"><g stroke="#224a8c" stroke-width="5"><path d="M188.45429,170.29445c0,0.1829 2.00627,5.48723 2.28063,6.4132h0.10288c0.29722,-0.64017 1.43468,-2.40067 3.41237,-5.28146h0.10289c3.098,0.19434 4.647,0.40583 4.647,0.63447l2.79506,19.11959c0,0.11432 -2.44639,0.38867 -7.33918,0.82308l-0.10288,-0.20577c-0.27436,-5.80732 -0.41154,-9.35689 -0.41154,-10.64867h-0.10288l-4.23547,3.72104h-0.10289c-0.13718,-0.06859 -1.10316,-1.58329 -2.89794,-4.54412h-0.10288c-2.20633,6.42464 -3.41237,9.83702 -3.61815,10.23712h-0.20577c-3.94396,-1.78335 -6.18457,-2.85222 -6.72186,-3.2066v-0.10288c4.89279,-11.50034 7.44206,-17.3591 7.64784,-17.5763c0.20578,-0.2172 4.85277,0.4344 4.85277,0.6173z"/><path d="M221.72067,179.55416c-0.74307,3.47525 -1.18318,5.26431 -1.32036,5.3672h-10.8373v0.18863l3.03513,3.75532l4.76704,-2.43497c0.4687,0.81166 1.14318,2.22919 2.02342,4.25261c-0.41154,0.13718 -3.41238,0.5773 -9.0025,1.32037c-4.62986,-3.05228 -6.96193,-4.64129 -6.99623,-4.76704c0.74307,-5.93307 1.18319,-8.89961 1.32037,-8.89961c4.83562,-2.05772 7.6364,-3.2066 8.40233,-3.44667c0.76593,-0.24007 8.04794,4.21833 8.6081,4.66416zM211.99797,179.03973c-0.09145,0.22863 -0.69733,1.13746 -1.81764,2.72647c0,0.48013 0.67447,0.7202 2.02342,0.7202c0,0.06859 0.97742,0.23435 2.93225,0.49728c0.53729,-0.74307 0.80593,-1.17747 0.80593,-1.30322c-0.17147,-1.01743 -0.54301,-1.52614 -1.1146,-1.52614z"/><path d="M233.75829,169.67714c5.00704,-1.34821 7.75072,0.77164 7.75072,1.01171l2.28063,20.18274c0,0.14861 -2.28063,0.52586 -6.84189,1.13174l-0.10289,-0.22292v-1.83479c-3.93252,1.06315 -6.6304,1.74905 -8.09367,2.05771c-3.47525,-4.91565 -5.29862,-7.53352 -5.47009,-7.8536c2.56071,-4.65272 3.92681,-7.00765 4.09828,-7.06482c0.17147,-0.05717 7.33345,1.2232 7.18484,0.34295c-0.14861,-0.88025 -1.42912,-7.58292 -0.80593,-7.75072zM232.62654,187.78501l3.41237,-2.96653c-0.35439,-2.04628 -0.61731,-3.06942 -0.78879,-3.06942c0,0 -4.78419,0.09716 -4.78419,0.22292c0,0 1.87482,5.47007 2.16061,5.81303z"/><path d="M254.69553,169.05982c-0.84595,3.23519 -1.40039,4.85278 -1.66331,4.85278c-3.54384,-0.24006 -5.31576,-0.47442 -5.31576,-0.70306c0,0 0.11433,-5.21287 0.24007,-5.21287zM246.07027,176.15893h0.10289c5.21287,0.94884 7.81932,1.50328 7.81932,1.66332c-1.49756,8.48236 -2.40639,13.20938 -2.72647,14.18108h-5.43579c-0.16005,0 -0.24007,-0.08002 -0.24007,-0.24007z"/><path d="M262.29191,187.37347h0.12004l5.89878,-1.73191v-6.94478c0.02286,-0.16005 0.09717,-0.24007 0.22292,-0.24007c4.43552,0.30865 6.90478,0.46298 7.40777,0.46298c0,0.08002 0.04001,0.12004 0.12004,0.12004c0,1.95483 -0.61731,6.00738 -1.85194,12.15766c0,0.35438 -1.77193,0.62303 -5.31576,0.80594c-0.18291,-0.2172 -0.33723,-0.68018 -0.46299,-1.38895c-4.5384,0.92597 -7.12769,1.38895 -7.76786,1.38895c-3.62386,-2.69789 -5.43579,-4.08684 -5.43579,-4.16687c0.61731,-8.1051 1.00599,-12.31199 1.16603,-12.62064h0.10289c2.89223,-0.08003 5.55583,-0.19434 7.99079,-0.34295c2.43496,-0.14861 -2.19492,12.5006 -2.19492,12.5006z"/><path d="M304.04634,178.13091c0.43577,0.25098 -0.8631,10.52292 -1.01171,11.16309c-3.36094,0.83452 -5.24146,1.25178 -5.64157,1.25178c0,-1.48613 -0.11431,-4.41837 -0.34295,-8.79673c-1.26892,0.12575 -1.90339,0.23434 -1.90339,0.32581c0,0.4344 0.07431,2.9151 0.22292,7.44206c0.06859,0 0.10289,0.04001 0.10289,0.12004c0,0.13718 -1.76621,0.51442 -5.29862,1.13174c-0.14861,-0.18291 -0.60018,-2.96653 -1.35467,-8.35088c-1.42897,0.36581 -2.14344,0.62874 -2.14344,0.78879l0.6859,6.99622c-0.13718,0.14861 -2.01771,0.74878 -5.64157,1.8005c-2.10344,-7.44207 -4.01442,-12.38502 -3.94395,-14.98701c0.0216,-0.79738 6.18457,-1.4747 6.65328,-1.4747c0.52587,2.08058 0.78878,3.28091 0.78878,3.601h0.12005c1.93196,-1.78335 3.62347,-3.39095 4.16688,-3.601c0.79008,-0.3054 3.72105,2.58929 3.72105,2.58929c2.25205,-2.17203 3.45238,-3.25804 3.601,-3.25804c0.14862,0 5.25654,2.12771 7.21912,3.25804z"/></g><g stroke="none" stroke-width="0.26458"><path d="M183.60151,169.67714c3.23518,0.22863 4.85278,0.43441 4.85278,0.61731c1.24606,3.3495 2.00627,5.48723 2.28063,6.4132h0.10288c0.29722,-0.64017 1.43468,-2.40067 3.41237,-5.28146h0.10289c3.098,0.19434 4.647,0.40583 4.647,0.63447l2.79506,19.11959c0,0.11432 -2.44639,0.38867 -7.33918,0.82308l-0.10288,-0.20577c-0.27436,-5.80732 -0.41154,-9.35689 -0.41154,-10.64867h-0.10288l-4.23547,3.72104h-0.10289c-0.13718,-0.06859 -1.10316,-1.58329 -2.89794,-4.54412h-0.10288c-2.20633,6.42464 -3.41237,9.83702 -3.61815,10.23712h-0.20577c-3.94396,-1.78335 -6.18457,-2.85222 -6.72186,-3.2066v-0.10288c4.89279,-11.50034 7.44206,-17.3591 7.64784,-17.5763z"/><path d="M213.11257,174.89001c5.17857,2.6636 8.04794,4.21832 8.6081,4.66415c-0.74307,3.47525 -1.18318,5.26431 -1.32036,5.3672h-10.8373v0.18863l3.03513,3.75532l4.76704,-2.43497c0.4687,0.81166 1.14318,2.22919 2.02342,4.25261c-0.41154,0.13718 -3.41238,0.5773 -9.0025,1.32037c-4.62986,-3.05228 -6.96193,-4.64129 -6.99623,-4.76704c0.74307,-5.93307 1.18319,-8.89961 1.32037,-8.89961c4.83562,-2.05772 7.6364,-3.2066 8.40233,-3.44667zM211.99797,179.03973c-0.09145,0.22863 -0.69733,1.13746 -1.81764,2.72647c0,0.48013 0.67447,0.7202 2.02342,0.7202c0,0.06859 0.97742,0.23435 2.93225,0.49728c0.53729,-0.74307 0.80593,-1.17747 0.80593,-1.30322c-0.17147,-1.01743 -0.54301,-1.52614 -1.1146,-1.52614z"/><path d="M233.6554,169.67714h0.10289c5.16715,0.43441 7.75072,0.77164 7.75072,1.01171l2.28063,20.18274c0,0.14861 -2.28063,0.52586 -6.84189,1.13174l-0.10289,-0.22292v-1.83479c-3.93252,1.06315 -6.6304,1.74905 -8.09367,2.05771c-3.47525,-4.91565 -5.29862,-7.53352 -5.47009,-7.8536c2.56071,-4.65272 3.92681,-7.00765 4.09828,-7.06482l7.18484,0.34295c-0.14861,-0.88025 -0.45155,-3.46382 -0.90882,-7.75072zM230.46594,181.97197c1.15461,3.53241 1.87481,5.47008 2.1606,5.81304l3.41237,-2.96653c-0.35439,-2.04628 -0.61731,-3.06942 -0.78879,-3.06942h-4.56127c-0.14861,0.02287 -0.22292,0.09716 -0.22292,0.22292z"/><path d="M247.95652,167.99667l6.73901,1.06315c-0.84595,3.23519 -1.40039,4.85278 -1.66331,4.85278c-3.54384,-0.24006 -5.31576,-0.47442 -5.31576,-0.70306v-4.9728c0.0343,-0.16004 0.11433,-0.24007 0.24007,-0.24007zM246.07027,176.15893h0.10289c5.21287,0.94884 7.81932,1.50328 7.81932,1.66332c-1.49756,8.48236 -2.40639,13.20938 -2.72647,14.18108h-5.43579c-0.16005,0 -0.24007,-0.08002 -0.24007,-0.24007z"/><path d="M264.48679,174.87286l0.12004,0.22292l-2.31493,12.27769h0.12004l5.89878,-1.73191v-6.94478c0.02286,-0.16005 0.09717,-0.24007 0.22292,-0.24007c4.43552,0.30865 6.90478,0.46298 7.40777,0.46298c0,0.08002 0.04001,0.12004 0.12004,0.12004c0,1.95483 -0.61731,6.00738 -1.85194,12.15766c0,0.35438 -1.77193,0.62303 -5.31576,0.80594c-0.18291,-0.2172 -0.33723,-0.68018 -0.46299,-1.38895c-4.5384,0.92597 -7.12769,1.38895 -7.76786,1.38895c-3.62386,-2.69789 -5.43579,-4.08684 -5.43579,-4.16687c0.61731,-8.1051 1.00599,-12.31199 1.16603,-12.62064h0.10289c2.89223,-0.08003 5.55583,-0.19434 7.99079,-0.34295z"/><path d="M296.8272,174.87286c2.78935,1.15461 5.19573,2.24062 7.21915,3.25805c-0.52586,6.80188 -0.8631,10.52292 -1.01171,11.16309c-3.36094,0.83452 -5.24146,1.25178 -5.64157,1.25178c0,-1.48613 -0.11431,-4.41837 -0.34295,-8.79673c-1.26892,0.12575 -1.90339,0.23434 -1.90339,0.32581c0,0.4344 0.07431,2.9151 0.22292,7.44206c0.06859,0 0.10289,0.04001 0.10289,0.12004c0,0.13718 -1.76621,0.51442 -5.29862,1.13174c-0.14861,-0.18291 -0.60018,-2.96653 -1.35467,-8.35088c-1.42897,0.36581 -2.14344,0.62874 -2.14344,0.78879l0.6859,6.99622c-0.13718,0.14861 -2.01771,0.74878 -5.64157,1.8005c-2.10344,-7.44207 -3.41808,-12.43774 -3.94395,-14.98701c3.96681,-0.98313 6.18457,-1.4747 6.65328,-1.4747c0.46871,0 0.78878,3.28091 0.78878,3.601h0.12005c1.93196,-1.78335 4.16688,-3.601 4.16688,-3.601l3.72105,2.58929c2.25205,-2.17203 3.45238,-3.25804 3.601,-3.25804z"/></g></g></g></svg>