<svg version="1.1" xmlns="http://www.w3.org/2000/svg" xmlns:xlink="http://www.w3.org/1999/xlink" width="497.04802" height="444.09189" viewBox="0,0,497.04802,444.09189"><defs><radialGradient cx="312.6776" cy="159.11538" r="10.73368" gradientUnits="userSpaceOnUse" id="color-1"><stop offset="0" stop-color="#000000" stop-opacity="0.11373"/><stop offset="1" stop-color="#000000" stop-opacity="0"/></radialGradient><radialGradient cx="312.6776" cy="159.11538" r="10.73368" gradientUnits="userSpaceOnUse" id="color-2"><stop offset="0" stop-color="#000000" stop-opacity="0.11373"/><stop offset="1" stop-color="#000000" stop-opacity="0"/></radialGradient><radialGradient cx="450.36485" cy="-8.01789" r="23.5976" gradientUnits="userSpaceOnUse" id="color-3"><stop offset="0" stop-color="#000000" stop-opacity="0.11373"/><stop offset="1" stop-color="#000000" stop-opacity="0"/></radialGradient><radialGradient cx="450.36485" cy="-8.01789" r="23.5976" gradientUnits="userSpaceOnUse" id="color-4"><stop offset="0" stop-color="#000000" stop-opacity="0.11373"/><stop offset="1" stop-color="#000000" stop-opacity="0"/></radialGradient></defs><g transform="translate(10.11189,63.20437)"><g data-paper-data="{&quot;isPaintingLayer&quot;:true}" fill-rule="nonzero" stroke-linejoin="miter" stroke-miterlimit="10" stroke-dasharray="" stroke-dashoffset="0" style="mix-blend-mode: normal"><path d="M429.49953,-63.20437h35.92876v427.51699h-35.92876z" data-paper-data="{&quot;index&quot;:null}" fill="#254222" stroke="none" stroke-width="1.18415" stroke-linecap="butt"/><path d="M433.22544,72.76885h4.7406v291.54377h-4.7406z" data-paper-data="{&quot;index&quot;:null}" fill="#325834" stroke="none" stroke-width="1.18415" stroke-linecap="butt"/><path d="M36.51977,34.39805h35.92876v345.48947h-35.92876z" data-paper-data="{&quot;index&quot;:null}" fill="#254222" stroke="none" stroke-width="1.18415" stroke-linecap="butt"/><path d="M486.93613,249.06279v49.92876h-496.04502v-49.92876z" data-paper-data="{&quot;index&quot;:null}" fill="#254222" stroke="none" stroke-width="1.18415" stroke-linecap="butt"/><path d="M486.93613,254.24056v6.58782h-496.48552v-6.58782h48.06322c0.17896,0.18704 2.15324,1.66049 4.80185,2.51137c6.92253,2.22389 19.04066,1.6613 22.75799,-0.50686c4.07317,-2.3757 3.47025,-2.00451 3.47025,-2.00451z" data-paper-data="{&quot;index&quot;:null}" fill="#325834" stroke="none" stroke-width="1.18415" stroke-linecap="butt"/><g><g stroke-linecap="butt"><g fill="#797872" stroke="#665131" stroke-width="6"><path d="M343.36804,96.07296c6.71918,0 12.16616,5.44698 12.16616,12.16616c0,6.71918 -5.44698,12.16616 -12.16616,12.16616c-6.71918,0 -12.16616,-5.44698 -12.16616,-12.16616c0,-6.71918 5.44698,-12.16616 12.16616,-12.16616z"/></g><g fill="none" stroke="#78633a" stroke-width="3"><path d="M343.36804,96.0936c6.71918,0 12.16616,5.44698 12.16616,12.16616c0,6.71918 -5.44698,12.16616 -12.16616,12.16616c-6.71918,0 -12.16616,-5.44698 -12.16616,-12.16616c0,-6.71918 5.44698,-12.16616 12.16616,-12.16616z"/></g></g><path d="M343.27866,108.31721l-5.55714,5.55714" fill="none" stroke="#000000" stroke-width="3" stroke-linecap="round"/></g><g stroke="none" stroke-width="1.18415" stroke-linecap="butt"><path d="M486.93613,22.06279v69.92876h-497.04802v-69.92876z" data-paper-data="{&quot;index&quot;:null}" fill="#254222"/><path d="M486.93613,29.31463v9.22671h-496.48552v-9.22671h440.02852c0,0 4.45798,2.97966 7.03455,3.76449c2.57657,0.78482 7.05228,1.20517 10.33279,1.14488c4.05585,-0.07454 5.6357,0.15517 9.00738,-0.90937c3.37168,-1.06453 7.37528,-4 7.37528,-4z" data-paper-data="{&quot;index&quot;:null}" fill="#325834"/></g><path d="M432.63614,-60.60195h4.7406v88.81793c0,0 -2.05108,-0.46353 -3.35646,-1.346c-0.92031,-0.62215 -1.16821,-1.85372 -1.38414,-2.19873z" data-paper-data="{&quot;index&quot;:null}" fill="#325834" stroke="none" stroke-width="1.18415" stroke-linecap="butt"/><path d="M40.24571,89.80987c0.33011,-0.29291 0.8685,-1.98678 1.21767,-2.27981c1.23517,-1.0366 2.27595,-1.06681 3.52293,-2.08951v167.93249c-0.19244,-0.23065 -2.0154,-0.67405 -3.07538,-1.48504c-1.05998,-0.81099 -0.34651,-0.62123 -1.66522,-2.142z" data-paper-data="{&quot;index&quot;:null}" fill="#325834" stroke="none" stroke-width="1.18415" stroke-linecap="butt"/><path d="" data-paper-data="{&quot;index&quot;:null}" fill="#628a3f" stroke="none" stroke-width="1.18415" stroke-linecap="butt"/><path d="M40.24571,296.55987c0.33011,-0.29291 0.8685,-1.98678 1.21767,-2.27981c1.23517,-1.0366 2.27595,-1.06681 3.52293,-2.08951v78.70105c-1.91436,-0.09172 -3.47285,0.2452 -4.7406,0.83558z" data-paper-data="{&quot;index&quot;:null}" fill="#325834" stroke="none" stroke-width="1.18415" stroke-linecap="butt"/><path d="" data-paper-data="{&quot;index&quot;:null}" fill="#3d602d" stroke="none" stroke-width="1.18415" stroke-linecap="butt"/><path d="M325.56399,249.78497c0,0 -2.17488,7.4076 -13.93611,7.65873c-11.7773,0.25147 -13.93295,-6.99206 -13.93295,-6.99206v-159.4048c1.90825,-5.65826 20.15137,-1.91849 26.74788,-3.4333c0.37583,-0.0863 0.74941,-0.21205 1.12119,-0.37023z" data-paper-data="{&quot;index&quot;:null}" fill="#254222" stroke="none" stroke-width="1.18415" stroke-linecap="butt"/><path d="M304.26221,252.74573c0,0 -1.76227,-1.06459 -2.40941,-1.69769c-0.56831,-0.55598 -1.26776,-1.89967 -1.26776,-1.89967v-156.75856c0.87066,-2.43913 1.61001,-3.02597 3.67717,-3.34622z" data-paper-data="{&quot;index&quot;:null}" fill="#325834" stroke="none" stroke-width="1.18415" stroke-linecap="butt"/><g><path d="M301.9439,159.11538c0,-5.92804 4.80563,-10.73368 10.73367,-10.73368c5.92804,0 10.73368,4.80564 10.73368,10.73368c0,5.92804 -4.80563,10.73368 -10.73368,10.73368c-5.92804,0 -10.73367,-4.80564 -10.73367,-10.73368z" fill="url(#color-1)" stroke="none" stroke-width="NaN" stroke-linecap="butt"/><path d="M301.9439,159.11538c0,-5.92804 4.80563,-10.73368 10.73367,-10.73368c5.92804,0 10.73368,4.80564 10.73368,10.73368c0,5.92804 -4.80563,10.73368 -10.73368,10.73368c-5.92804,0 -10.73367,-4.80564 -10.73367,-10.73368z" fill="url(#color-2)" stroke="none" stroke-width="NaN" stroke-linecap="butt"/><g fill="none"><g stroke="#665131" stroke-width="6"><path d="M304.72533,164.7798c-3.68538,-3.68537 -3.68538,-9.66055 0,-13.34592c3.68538,-3.68537 9.66055,-3.68537 13.34592,0c3.68538,3.68537 3.68538,9.66055 0,13.34592c-3.68538,3.68537 -9.66055,3.68537 -13.34592,0z" stroke-linecap="butt"/><path d="M317.39676,164.02803l-11.81776,-11.81776" stroke-linecap="round"/><path d="M305.47713,163.92615l11.81777,-11.81777" stroke-linecap="round"/></g><g stroke="#78633a" stroke-width="3"><path d="M304.72533,164.7798c-3.68538,-3.68537 -3.68538,-9.66055 0,-13.34592c3.68538,-3.68537 9.66055,-3.68537 13.34592,0c3.68538,3.68537 3.68538,9.66055 0,13.34592c-3.68538,3.68537 -9.66055,3.68537 -13.34592,0z" stroke-linecap="butt"/><path d="M317.193,163.82427l-11.81777,-11.81776" stroke-linecap="round"/><path d="M305.47713,163.92615l11.81777,-11.81776" stroke-linecap="round"/></g></g></g><path d="M201.51981,276.39805h35.92876v104.48947h-35.92876z" data-paper-data="{&quot;index&quot;:null}" fill="#254222" stroke="none" stroke-width="1.18415" stroke-linecap="butt"/><path d="M205.24571,297.55987c0.33011,-0.29291 0.8685,-1.98678 1.21767,-2.27981c1.23517,-1.0366 2.27595,-1.06681 3.52293,-2.08951v78.70105c-1.91436,-0.09172 -3.47285,0.2452 -4.7406,0.83558z" data-paper-data="{&quot;index&quot;:null}" fill="#325834" stroke="none" stroke-width="1.18415" stroke-linecap="butt"/><g stroke="none" stroke-linecap="butt"><path d="" data-paper-data="{&quot;index&quot;:null}" fill="#3d602d" stroke-width="1.18415"/><g fill="none" stroke-width="1" font-family="sans-serif" font-weight="normal" font-size="12" text-anchor="start"><g><g/><g/></g></g></g><g><g stroke-linecap="butt"><g fill="#797872" stroke="#665131" stroke-width="6"><path d="M221.90253,321.59248c6.71918,0 12.16616,5.44698 12.16616,12.16616c0,6.71918 -5.44698,12.16616 -12.16616,12.16616c-6.71918,0 -12.16616,-5.44698 -12.16616,-12.16616c0,-6.71918 5.44698,-12.16616 12.16616,-12.16616z"/></g><g fill="none" stroke="#78633a" stroke-width="3"><path d="M221.90253,321.61312c6.71918,0 12.16616,5.44698 12.16616,12.16616c0,6.71918 -5.44698,12.16616 -12.16616,12.16616c-6.71918,0 -12.16616,-5.44698 -12.16616,-12.16616c0,-6.71918 5.44698,-12.16616 12.16616,-12.16616z"/></g></g><path d="M216.256,339.39387l5.55714,-5.55714" fill="none" stroke="#000000" stroke-width="3" stroke-linecap="round"/></g><g><path d="M426.76726,-8.01789c0,-13.0326 10.565,-23.5976 23.5976,-23.5976c13.0326,0 23.5976,10.56502 23.5976,23.5976c0,13.0326 -10.565,23.5976 -23.5976,23.5976c-13.0326,0 -23.5976,-10.56502 -23.5976,-23.5976z" fill="url(#color-3)" stroke="none" stroke-width="NaN" stroke-linecap="butt"/><path d="M426.76726,-8.01789c0,-13.0326 10.565,-23.5976 23.5976,-23.5976c13.0326,0 23.5976,10.56502 23.5976,23.5976c0,13.0326 -10.565,23.5976 -23.5976,23.5976c-13.0326,0 -23.5976,-10.56502 -23.5976,-23.5976z" fill="url(#color-4)" stroke="none" stroke-width="NaN" stroke-linecap="butt"/><g fill="none"><g stroke="#665131" stroke-width="6"><path d="M432.88208,4.43515c-8.10216,-8.10217 -8.10216,-21.23838 0,-29.34054c8.10216,-8.10216 21.23838,-8.10216 29.34054,0c8.10216,8.10216 8.10216,21.23837 0,29.34054c-8.10216,8.10217 -21.23837,8.10217 -29.34054,0z" stroke-linecap="butt"/><path d="M460.73979,2.78239l-25.98092,-25.98092" stroke-linecap="round"/><path d="M460.51582,-23.42252l-25.98093,25.98094" stroke-linecap="round"/></g><g stroke="#78633a" stroke-width="3"><path d="M432.88208,4.43515c-8.10216,-8.10217 -8.10216,-21.23838 0,-29.34054c8.10216,-8.10216 21.23838,-8.10216 29.34054,0c8.10216,8.10216 8.10216,21.23837 0,29.34054c-8.10216,8.10217 -21.23837,8.10217 -29.34054,0z" stroke-linecap="butt"/><path d="M460.29185,2.33445l-25.98094,-25.98092" stroke-linecap="round"/><path d="M434.53486,2.55844l25.98094,-25.98094" stroke-linecap="round"/></g></g></g><g fill="none"><g stroke="#665131" stroke-width="6"><path d="M53.77248,140.34319c6.71918,0 12.16616,5.44698 12.16616,12.16616c0,6.71918 -5.44698,12.16616 -12.16616,12.16616c-6.71918,0 -12.16616,-5.44698 -12.16616,-12.16616c0,-6.71918 5.44698,-12.16616 12.16616,-12.16616z" stroke-linecap="butt"/><path d="M53.84291,141.82913v21.54617" stroke-linecap="round"/><path d="M64.61597,152.60221h-21.54617" stroke-linecap="round"/></g><g stroke="#78633a" stroke-width="3"><path d="M53.77248,140.36383c6.71918,0 12.16616,5.44698 12.16616,12.16616c0,6.71918 -5.44698,12.16616 -12.16616,12.16616c-6.71918,0 -12.16616,-5.44698 -12.16616,-12.16616c0,-6.71918 5.44698,-12.16616 12.16616,-12.16616z" stroke-linecap="butt"/><path d="M53.84291,141.82913v21.54617" stroke-linecap="round"/><path d="M64.61597,152.49902h-21.54617" stroke-linecap="round"/></g></g></g></g></svg>