<svg version="1.1" xmlns="http://www.w3.org/2000/svg" xmlns:xlink="http://www.w3.org/1999/xlink" width="444.93994" height="86.10109" viewBox="0,0,444.93994,86.10109"><defs><radialGradient cx="116.57454" cy="67.26091" r="72.26671" gradientUnits="userSpaceOnUse" id="color-1"><stop offset="0" stop-color="#ffffff" stop-opacity="0"/><stop offset="1" stop-color="#ffffff"/></radialGradient><radialGradient cx="117.43151" cy="67.68299" r="72.26671" gradientUnits="userSpaceOnUse" id="color-2"><stop offset="0" stop-color="#ffffff"/><stop offset="1" stop-color="#ffffff" stop-opacity="0"/></radialGradient><radialGradient cx="86.28925" cy="80.47356" r="72.26671" gradientUnits="userSpaceOnUse" id="color-3"><stop offset="0" stop-color="#ffffff" stop-opacity="0"/><stop offset="1" stop-color="#ffffff"/></radialGradient><radialGradient cx="87.14622" cy="80.89565" r="72.26671" gradientUnits="userSpaceOnUse" id="color-4"><stop offset="0" stop-color="#ffffff"/><stop offset="1" stop-color="#ffffff" stop-opacity="0"/></radialGradient><radialGradient cx="356.41048" cy="58.7474" r="72.26672" gradientUnits="userSpaceOnUse" id="color-5"><stop offset="0" stop-color="#ffffff" stop-opacity="0"/><stop offset="1" stop-color="#ffffff"/></radialGradient><radialGradient cx="355.55352" cy="59.16948" r="72.26671" gradientUnits="userSpaceOnUse" id="color-6"><stop offset="0" stop-color="#ffffff"/><stop offset="1" stop-color="#ffffff" stop-opacity="0"/></radialGradient><radialGradient cx="386.69577" cy="71.96005" r="72.26671" gradientUnits="userSpaceOnUse" id="color-7"><stop offset="0" stop-color="#ffffff" stop-opacity="0"/><stop offset="1" stop-color="#ffffff"/></radialGradient><radialGradient cx="385.8388" cy="72.38214" r="72.26671" gradientUnits="userSpaceOnUse" id="color-8"><stop offset="0" stop-color="#ffffff"/><stop offset="1" stop-color="#ffffff" stop-opacity="0"/></radialGradient></defs><g transform="translate(-14.02253,-26.77098)"><g data-paper-data="{&quot;isPaintingLayer&quot;:true}" fill-rule="nonzero" stroke="none" stroke-width="0" stroke-linecap="butt" stroke-linejoin="miter" stroke-miterlimit="10" stroke-dasharray="" stroke-dashoffset="0" style="mix-blend-mode: normal"><g data-paper-data="{&quot;index&quot;:null}"><g><path d="M44.30782,67.26091c0,-17.66009 32.35491,-31.97642 72.26671,-31.97642c39.9118,0 72.26671,14.31633 72.26671,31.97642c0,17.66009 -32.35491,31.97642 -72.26671,31.97642c-39.9118,0 -72.26671,-14.31633 -72.26671,-31.97642z" fill="url(#color-1)"/><path d="M45.1648,67.68299c0,-17.66009 32.35491,-31.97642 72.26671,-31.97642c39.9118,0 72.26671,14.31633 72.26671,31.97642c0,17.66009 -32.35491,31.97642 -72.26671,31.97642c-39.9118,0 -72.26671,-14.31633 -72.26671,-31.97642z" fill="url(#color-2)"/></g><g><path d="M14.02253,80.47356c0,-17.66009 32.35491,-31.97642 72.26671,-31.97642c39.9118,0 72.26671,14.31633 72.26671,31.97642c0,17.66009 -32.35491,31.97642 -72.26671,31.97642c-39.9118,0 -72.26671,-14.31633 -72.26671,-31.97642z" fill="url(#color-3)"/><path d="M14.8795,80.89565c0,-17.66009 32.35491,-31.97642 72.26671,-31.97642c39.9118,0 72.26671,14.31633 72.26671,31.97642c0,17.66009 -32.35491,31.97642 -72.26671,31.97642c-39.9118,0 -72.26671,-14.31633 -72.26671,-31.97642z" fill="url(#color-4)"/></g></g><g><g><path d="M356.41048,90.72382c-39.9118,0 -72.26671,-14.31633 -72.26671,-31.97642c0,-17.66009 32.3549,-31.97642 72.26671,-31.97642c39.91181,0 72.26672,14.31633 72.26672,31.97642c0,17.66009 -32.35491,31.97642 -72.26672,31.97642z" fill="url(#color-5)"/><path d="M355.55352,91.1459c-39.9118,0 -72.26671,-14.31633 -72.26671,-31.97642c0,-17.66009 32.35491,-31.97642 72.26671,-31.97642c39.9118,0 72.26671,14.31633 72.26671,31.97642c0,17.66009 -32.35491,31.97642 -72.26671,31.97642z" fill="url(#color-6)"/></g><g><path d="M386.69577,103.93647c-39.91179,0 -72.26671,-14.31633 -72.26671,-31.97642c0,-17.66009 32.35491,-31.97642 72.26671,-31.97642c39.9118,0 72.26671,14.31633 72.26671,31.97642c0,17.66009 -32.35491,31.97642 -72.26671,31.97642z" fill="url(#color-7)"/><path d="M385.8388,104.35857c-39.9118,0 -72.26671,-14.31634 -72.26671,-31.97643c0,-17.66008 32.35491,-31.97641 72.26671,-31.97641c39.9118,0 72.26671,14.31632 72.26671,31.97641c0,17.66009 -32.35491,31.97643 -72.26671,31.97643z" fill="url(#color-8)"/></g></g></g></g></svg>