<svg version="1.1" xmlns="http://www.w3.org/2000/svg" xmlns:xlink="http://www.w3.org/1999/xlink" width="39.54808" height="38.38237" viewBox="0,0,39.54808,38.38237"><g transform="translate(-220.21699,-160.8094)"><g data-paper-data="{&quot;isPaintingLayer&quot;:true}" fill-rule="nonzero" stroke-linecap="round" stroke-linejoin="miter" stroke-miterlimit="10" stroke-dasharray="" stroke-dashoffset="0" style="mix-blend-mode: normal"><g><path d="M244.71639,195.53845c-1.59435,-0.99562 -4.76989,-3.89636 -4.76989,-3.89636c0,0 -3.54242,3.04887 -5.04404,4.02229c-3.4394,2.22957 -6.22459,2.53696 -6.52012,2.11748c-0.36626,-0.51983 -0.17058,-4.14293 0.49593,-7.67806c0.533,-2.82695 1.11384,-4.90864 1.11384,-4.90864c-1.77566,-1.36984 -3.21193,-1.99062 -4.6121,-3.19131c-2.86505,-2.45688 -4.12719,-5.65573 -3.88348,-6.33972c0.33357,-0.93621 5.12217,-1.91913 11.88128,-2.11915l0.42911,-0.15841c2.29659,-6.58638 5.04437,-11.32716 6.12928,-11.32716c1.00637,0.01781 3.79864,4.71952 6.15841,11.26407l0.3368,0.23328c6.83592,0.21315 11.72388,1.20423 12.08367,2.10738c0.21436,0.53807 -1.14134,3.96755 -4.53258,6.74935c-1.19467,0.97997 -2.66897,1.50744 -4.08134,2.59848c0,0 0.72186,2.32083 1.31517,5.45645c0.66939,3.53775 0.77064,6.92364 0.27373,7.31348c-0.42627,0.33442 -3.45359,-0.17013 -6.77365,-2.24342z" data-paper-data="{&quot;index&quot;:null}" fill="none" stroke="#ffffff" stroke-width="2.5"/><g fill="#ffffff" stroke="none" stroke-width="2.7674"><path d="M243.50166,176.11363c0.53162,-0.02051 1.06143,0.41957 1.28461,0.96233c0.40488,0.98504 0.44842,2.15941 0.41814,3.25627c-0.02082,1.01244 -0.18162,2.0591 -0.56758,2.96442c-0.22137,0.53132 -0.62049,1.1447 -1.13516,1.14016c-0.49565,-0.00454 -0.91759,-0.3877 -1.18998,-1.07633c-0.34811,-0.87109 -0.51269,-1.91549 -0.51269,-3.14225c0,-1.22685 0.12673,-2.23012 0.51269,-3.14225c0.25347,-0.60203 0.73785,-0.98284 1.18998,-0.96233z"/></g><g fill="#ffffff" stroke="none" stroke-width="2.7674"><path d="M236.49869,176.07578c0.53162,-0.02051 1.06143,0.41957 1.28462,0.96233c0.40488,0.98504 0.44843,2.15941 0.41815,3.25627c-0.02082,1.01244 -0.18163,2.0591 -0.56758,2.96442c-0.22137,0.53132 -0.62049,1.1447 -1.13516,1.14016c-0.49565,-0.00454 -0.91759,-0.3877 -1.18998,-1.07633c-0.34811,-0.87109 -0.51269,-1.91548 -0.51269,-3.14225c0,-1.22685 0.12673,-2.23013 0.51269,-3.14226c0.25347,-0.60203 0.73785,-0.98283 1.18998,-0.96233z"/></g></g></g></g></svg>