<svg version="1.1" xmlns="http://www.w3.org/2000/svg" xmlns:xlink="http://www.w3.org/1999/xlink" width="486.92683" height="411.86438" viewBox="0,0,486.92683,411.86438"><defs><radialGradient cx="240.00002" cy="180.00004" r="240.83784" gradientUnits="userSpaceOnUse" id="color-1"><stop offset="0" stop-color="#433b68"/><stop offset="1" stop-color="#28253e"/></radialGradient><radialGradient cx="239.10481" cy="276.15389" r="243.46342" gradientUnits="userSpaceOnUse" id="color-2"><stop offset="0" stop-color="#302820"/><stop offset="1" stop-color="#403428"/></radialGradient><linearGradient x1="-2.12271" y1="-35.16766" x2="-2.12271" y2="371.46282" gradientUnits="userSpaceOnUse" id="color-3"><stop offset="0" stop-color="#26002e" stop-opacity="0"/><stop offset="1" stop-color="#26002e" stop-opacity="0.25098"/></linearGradient><linearGradient x1="-2.12271" y1="359.26768" x2="-2.12271" y2="-35.16759" gradientUnits="userSpaceOnUse" id="color-4"><stop offset="0" stop-color="#27002f" stop-opacity="0"/><stop offset="1" stop-color="#27002f" stop-opacity="0.72549"/></linearGradient></defs><g transform="translate(4.3586,35.16766)"><g data-paper-data="{&quot;isPaintingLayer&quot;:true}" fill-rule="nonzero" stroke="none" stroke-linecap="butt" stroke-linejoin="miter" stroke-miterlimit="10" stroke-dasharray="" stroke-dashoffset="0" style="mix-blend-mode: normal"><path d="M-0.83782,376.69673v-393.39339h481.67568v393.39339z" fill="url(#color-1)" stroke-width="NaN"/><path d="M-3.82707,363.70087v-83.90177h484.92565v83.90177z" fill="#081010" stroke-width="0"/><g fill="#304048" stroke-width="0"><path d="M0.05983,319.67606v-40.06586h40.06587v40.06586z"/><path d="M79.91693,319.67606v42.12592h-40.06587v-42.12592z"/></g><g fill="#304048" stroke-width="0"><path d="M79.93815,319.67606v-40.06586h40.06587v40.06586z"/><path d="M159.79527,319.67606v42.12592h-40.06586v-42.12592z"/></g><g fill="#304048" stroke-width="0"><path d="M159.74504,319.67606v-40.06586h40.06587v40.06586z"/><path d="M239.60217,319.67606v42.12592h-40.06587v-42.12592z"/></g><g fill="#304048" stroke-width="0"><path d="M239.58353,319.67606v-40.06586h40.06587v40.06586z"/><path d="M319.44065,319.67606v42.12592h-40.06586v-42.12592z"/></g><g fill="#304048" stroke-width="0"><path d="M319.3413,319.67606v-40.06586h40.06586v40.06586z"/><path d="M399.19842,319.67606v42.12592h-40.06586v-42.12592z"/></g><g fill="#304048" stroke-width="0"><path d="M399.1482,319.67606v-40.06586h40.06586v40.06586z"/><path d="M479.00532,319.67606v42.12592h-40.06586v-42.12592z"/></g><path d="M-4.3586,286.00379v-19.69981h486.92683v19.69981z" fill="url(#color-2)" stroke-width="0"/><path d="M30.03251,133.61532v-113.23329h113.23329v113.23329z" fill="#302820" stroke-width="0"/><path d="M192.85986,141.34876l-7.53216,-112.9825l112.9825,-7.53216l7.53216,112.9825z" fill="#302820" stroke-width="0"/><path d="M342.44724,132.93319v-113.23329h113.23329v113.23329z" fill="#302820" stroke-width="0"/><path d="M44.96305,113.62665l-0.88262,-79.75716l84.79442,-0.88261l-0.88261,82.84631z" fill="#b9b9b3" stroke-width="0"/><path d="M209.4787,125.24901l-9.20516,-79.22909l84.23881,-9.73109l7.77211,82.48565z" fill="#b9b9b3" stroke-width="0"/><path d="M354.31473,111.85315l3.35845,-79.69131l84.72144,3.62622l-5.28539,82.68225z" fill="#b9b9b3" stroke-width="0"/><g stroke-width="1.22826"><path d="M-2.12271,-35.16766h483.40498v406.6304h-483.40498z" fill="url(#color-3)"/><path d="M-2.12271,-35.16759h483.40498v394.43528h-483.40498z" data-paper-data="{&quot;index&quot;:null}" fill="url(#color-4)"/></g><path d="M61.65652,98.3756c0.52931,-2.11723 1.98273,-2.69425 3.10539,-2.8067c-0.01417,-10.31995 -0.53783,-20.75204 -0.53783,-31.11767c0,-3.38386 -0.0845,-6.79702 0,-10.18221c0.03136,-1.25616 -0.28954,-2.59318 0.1609,-3.76622c2.50871,-6.53315 8.38645,-8.05895 14.53382,-9.0814c3.6225,-0.00415 6.23901,-0.2161 9.82039,0.64197c9.80124,2.3483 14.58407,10.89108 14.60333,20.24423c0.00844,4.09827 0.60322,7.17287 -2.84619,10.28742c-1.28882,1.1637 -2.28655,1.81324 -3.24965,2.17152c5.74992,1.15817 11.48385,2.31144 12.99495,9.33995c0.27952,1.30009 0.24708,2.67922 0.01925,3.98936c-0.26547,1.52658 -0.75489,3.0371 -1.47931,4.40682c-0.66975,1.26633 -1.70085,2.30971 -2.64347,3.38841c-2.42856,2.77913 -5.59545,5.24666 -9.13724,6.42429c-4.19781,1.39575 -9.42006,0.70234 -13.78839,1.24838c-5.2581,0.00754 -10.51618,0.00724 -15.77428,0.00724l-3.05313,-0.64787c0,0 -3.63803,-0.90951 -2.72852,-4.54754zM87.80259,67.668c2.3937,0 5.68198,0.87808 7.67068,-0.64246c0.98991,-0.75687 0.36698,-3.72727 0.36924,-4.71794c0.00543,-2.37068 0.19341,-5.07818 -1.09774,-7.22234c-3.2839,-5.45343 -9.51495,-6.18101 -15.20737,-6.18941c-2.42645,0.40561 -7.05946,0.81546 -7.97423,3.78034c-0.42016,1.36179 0.1609,2.84723 0.1609,4.27237c0,2.5009 0,5.00178 0,7.50268c0,1.07198 0.00485,2.14428 0.01361,3.21678c4.46588,0 11.59902,0 16.0649,0zM72.25508,96.07107c3.49711,0.0003 6.99423,0.00166 10.49134,0.00718c3.28087,-0.41011 6.31983,-0.28871 9.57001,-0.53037c3.88865,-0.28914 7.9255,-3.25187 9.87696,-6.62933c0.58219,-1.00763 1.22759,-3.441 0.28238,-4.54812c-2.21709,-2.59686 -6.61194,-2.17548 -9.60092,-2.86291c-4.48607,-1.03175 -9.01585,-2.1 -13.47528,-3.23376c-2.16836,-0.55128 -4.63013,-0.52082 -6.46645,-1.79894c-0.14164,-0.09859 -0.27871,-0.20205 -0.41168,-0.30989l-0.04584,0.0764l-0.6095,-0.3657c0.14338,6.74491 0.3492,13.48615 0.38899,20.19545z" fill="#262625" stroke-width="0.5"/><path d="M251.10059,61.91389c-0.89821,1.10567 -2.32677,1.39137 -2.32677,1.39137c-3.27479,0.53471 -4.36912,2.25897 -6.78116,4.45096c-3.56161,3.23669 -8.39602,7.00437 -10.33142,11.55915c-1.36605,3.21485 -2.47424,8.19196 -1.91264,11.7579c0.91742,5.82523 7.94953,12.12336 13.60679,13.09777c2.3119,0.39543 5.8092,1.21844 8.10868,0.57478c5.54283,-1.55155 7.73131,-6.52249 9.75001,-11.2469c1.49524,-3.49936 3.33871,-7.24137 4.0423,-11.00013c0.59037,-3.15385 -0.93718,-6.92106 -1.98248,-9.79093c-1.68441,-4.62457 -3.10244,-7.71677 -7.95086,-9.55857c-1.36988,-0.45944 -2.79833,-0.94362 -4.22244,-1.23539zM237.83643,61.40039c-0.37007,-1.86264 1.11944,-3.35214 1.11944,-3.35214l1.7941,-1.63576c1.20263,-0.66868 2.2877,-1.61803 3.60789,-2.00605c4.26401,-1.25323 9.558,0.37818 13.54486,1.70045c9.97607,4.11792 16.38127,16.98694 14.71833,27.8102c-0.65294,4.24969 -2.85391,8.67458 -4.53219,12.57972c-2.9978,6.97548 -6.93908,13.4072 -14.90165,15.54838c-3.3351,0.89683 -7.86141,0.04516 -11.18393,-0.49703c-8.83628,-1.9137 -17.81965,-9.83689 -19.61936,-19.05657c-0.94786,-4.85574 0.40854,-11.70717 2.3746,-16.1092c2.52492,-5.65332 7.70545,-10.09835 12.17661,-14.16432c0.30851,-0.28055 0.60811,-0.55314 0.90131,-0.81767z" fill="#262625" stroke-width="0.5"/><path d="M401.77398,57.62313c-0.09467,-0.04733 -0.18532,-0.096 -0.27212,-0.14589c-1.06962,-0.02248 -3.85242,-0.08571 -4.61417,0.23942c-10.00125,4.26864 -16.8712,18.80761 -8.83382,27.84671c3.56847,4.01321 8.97275,4.30523 13.77368,5.72074c4.0233,-0.05736 8.12437,1.71885 11.48161,-1.25349c1.27825,-1.1317 2.15077,-3.19778 2.81714,-4.64914c2.04482,-4.4536 3.41807,-9.57706 3.40326,-14.49936c-0.0053,-1.76068 0.67007,-6.3004 -0.21007,-8.11739c-1.21834,-2.51519 -5.57006,-6.99472 -8.539,-7.49288c-1.1395,-0.1912 -2.31809,0.02287 -3.46405,-0.12477c-0.35983,0.35005 -0.71965,0.7001 -1.07948,1.05015l0.5682,-0.25113c0,0 -1.67705,3.3541 -5.03115,1.67705zM402.03934,49.9931c0.96846,-0.65372 1.93691,-1.30744 2.90537,-1.96116c1.05485,-0.05251 6.02515,-0.38993 7.25406,-0.12477c5.30277,1.14415 11.80873,6.89001 13.96904,11.79973c1.01422,2.30501 0.85712,4.98742 0.86174,7.42387c0.01778,9.37926 -1.27534,21.85788 -8.78496,28.5471c-5.28015,4.70332 -11.04413,3.1033 -17.4573,3.03375c-4.23762,-1.17789 -8.5448,-1.6476 -12.53547,-3.6403c-4.39411,-2.19415 -7.52972,-6.41115 -9.59643,-10.73292c-5.74434,-12.01219 2.55355,-25.29469 12.5542,-31.59566c0.94094,-0.59284 1.69024,-1.5205 2.72762,-1.92133c2.67259,-1.03265 5.15896,-0.82831 7.90611,-0.83827c0,0 0.07199,0 0.19602,0.00997z" fill="#262625" stroke-width="0.5"/></g></g></svg>