<svg version="1.1" xmlns="http://www.w3.org/2000/svg" xmlns:xlink="http://www.w3.org/1999/xlink" width="91.5787" height="90.67825" viewBox="0,0,91.5787,90.67825"><g transform="translate(-194.21065,-134.66087)"><g data-paper-data="{&quot;isPaintingLayer&quot;:true}" fill-rule="nonzero" stroke-linejoin="miter" stroke-miterlimit="10" stroke-dasharray="" stroke-dashoffset="0" style="mix-blend-mode: normal"><path d="M260.0782,190.30182l12.20575,15.57208l-19.4607,-4.4764c0,0 -1.5322,-1.88208 1.54175,-6.59932c2.88801,-4.4319 5.7132,-4.49636 5.7132,-4.49636z" data-paper-data="{&quot;index&quot;:null,&quot;origRot&quot;:0}" fill="#fd7e0b" stroke="#000000" stroke-width="0" stroke-linecap="round"/><path d="M260.716,167.29845l19.76795,-0.83542l-14.98446,13.19935c0,0 -2.42243,0.14726 -4.46219,-5.10069c-1.91637,-4.9305 -0.32131,-7.26325 -0.32131,-7.26325z" data-paper-data="{&quot;index&quot;:null,&quot;origRot&quot;:0}" fill="#fd7e0b" stroke="#000000" stroke-width="0" stroke-linecap="round"/><path d="M235.03539,209.78828l-15.05194,12.84169l3.66463,-19.62975c0,0 1.81685,-1.60901 6.65764,1.26645c4.54798,2.70153 4.72967,5.52162 4.72967,5.52162z" data-paper-data="{&quot;index&quot;:null,&quot;origRot&quot;:0}" fill="#fd7e0b" stroke="#000000" stroke-width="0" stroke-linecap="round"/><path d="M221.92586,165.34741l-5.81808,-18.91084l16.56604,11.15003c0,0 0.75639,2.30602 -3.80327,5.60921c-4.28385,3.10338 -6.94468,2.15159 -6.94468,2.15159z" data-paper-data="{&quot;index&quot;:null,&quot;origRot&quot;:0}" fill="#fd7e0b" stroke="#000000" stroke-width="0" stroke-linecap="round"/><path d="M213.29872,185.8824l-19.08807,-8.10215l20.13258,-5.64695l49.34938,-2.20968l22.09674,5.89246l-16.20428,7.85662z" data-paper-data="{&quot;index&quot;:null}" fill="#ffa902" stroke="#000000" stroke-width="0" stroke-linecap="round"/><path d="M255.43893,205.8409l-5.79997,19.49822l-8.02649,-19.30761l-8.12686,-48.72575l3.19306,-22.64489l9.74785,15.14214z" data-paper-data="{&quot;origRot&quot;:0,&quot;index&quot;:null}" fill="#ffa902" stroke="#000000" stroke-width="0" stroke-linecap="round"/><path d="M227.97836,205.80847l-18.18154,9.12424l8.57512,-19.0703l29.94601,-39.28715l18.68977,-13.17878l-4.3607,17.47253z" data-paper-data="{&quot;origRot&quot;:0,&quot;index&quot;:null}" fill="#ffa902" stroke="#000000" stroke-width="0" stroke-linecap="round"/><path d="M268.87411,185.08115l12.95843,17.80987l-19.96294,-6.22012l-42.60255,-25.00534l-15.33022,-16.96971l20.0131,3.65705z" data-paper-data="{&quot;origRot&quot;:0,&quot;index&quot;:null}" fill="#ffa902" stroke="#000000" stroke-width="0" stroke-linecap="round"/><g stroke="none" stroke-width="0" stroke-linecap="butt"><path d="M240.85931,210.18881c-16.00039,0 -28.97128,-12.97089 -28.97128,-28.97127c0,-16.00039 12.97089,-28.97128 28.97128,-28.97128c16.00039,0 28.97128,12.97089 28.97128,28.97128c0,16.00039 -12.97088,28.97128 -28.97128,28.97128z" data-paper-data="{&quot;index&quot;:null}" fill="#9457aa"/><path d="M230.19213,168.50371c-9.05469,7.44409 -10.81872,16.53917 -13.54857,14.31131c-3.88677,-3.17203 1.28809,-17.18679 6.90031,-21.97897c5.92189,-5.0566 17.7635,-6.92741 21.26347,-4.16765c2.43192,1.91759 -5.21963,4.11096 -14.61521,11.83531z" fill="#b469cd"/></g><path d="M242.05407,157.83941l9.94389,-17.10523l3.04976,19.73464c0,0 -1.18075,2.12032 -6.70102,1.01214c-5.18636,-1.04114 -6.29263,-3.64155 -6.29263,-3.64155z" data-paper-data="{&quot;index&quot;:null,&quot;origRot&quot;:0}" fill="#fcd305" stroke="#000000" stroke-width="0" stroke-linecap="round"/><path d="M228.90805,177.97923c-0.39003,-6.38838 2.98121,-11.7923 7.52988,-12.07001c4.54868,-0.27771 8.5523,4.67595 8.94233,11.06433c0.39003,6.38837 -2.98121,11.7923 -7.5299,12.07c-4.54867,0.27771 -8.55228,-4.67596 -8.94231,-11.06434z" data-paper-data="{&quot;index&quot;:null}" fill="#ffffff" stroke="none" stroke-width="0" stroke-linecap="butt"/><path d="M260.53379,161.48975l19.63843,-2.40871l-13.88448,14.35193c0,0 -2.40299,0.33992 -4.85463,-4.72872c-2.30334,-4.76203 -0.89933,-7.21451 -0.89933,-7.21451z" data-paper-data="{&quot;index&quot;:null,&quot;origRot&quot;:0}" fill="#fcd305" stroke="#000000" stroke-width="0" stroke-linecap="round"/><path d="M240.47166,205.78794l-8.08543,18.05812l-5.11299,-19.30321c0,0 0.95066,-2.23297 6.557,-1.71286c5.26721,0.48864 6.64142,2.95795 6.64142,2.95795z" data-paper-data="{&quot;index&quot;:null,&quot;origRot&quot;:0}" fill="#fcd305" stroke="#000000" stroke-width="0" stroke-linecap="round"/><path d="M224.19335,198.59185l-19.65398,2.27836l13.9794,-14.2595c0,0 2.40519,-0.32396 4.82315,4.76082c2.27169,4.7772 0.85144,7.22032 0.85144,7.22032z" data-paper-data="{&quot;index&quot;:null,&quot;origRot&quot;:0}" fill="#fcd305" stroke="#000000" stroke-width="0" stroke-linecap="round"/><path d="M216.79842,178.45766l-14.52075,-13.43941l19.92431,1.33361c0,0 1.81128,1.61529 -0.47569,6.76031c-2.14864,4.83381 -4.92787,5.34548 -4.92787,5.34548z" data-paper-data="{&quot;index&quot;:null,&quot;origRot&quot;:0}" fill="#fcd305" stroke="#000000" stroke-width="0" stroke-linecap="round"/><path d="M261.54913,200.77525l4.00272,19.37648l-15.43675,-12.66741c0,0 -0.53481,-2.36725 4.31693,-5.2242c4.55826,-2.68414 7.1171,-1.48487 7.1171,-1.48487z" data-paper-data="{&quot;index&quot;:null,&quot;origRot&quot;:0}" fill="#fcd305" stroke="#000000" stroke-width="0" stroke-linecap="round"/><path d="M242.94133,177.22008c-0.35901,-6.38838 2.74409,-11.7923 6.93095,-12.07002c4.18687,-0.27771 7.87204,4.67595 8.23105,11.06433c0.35901,6.38837 -2.74408,11.79229 -6.93096,12.07c-4.18686,0.27771 -7.87202,-4.67596 -8.23103,-11.06434z" data-paper-data="{&quot;index&quot;:null}" fill="#ffffff" stroke="none" stroke-width="0" stroke-linecap="butt"/><g fill="#000000" stroke="none" stroke-width="0" stroke-linecap="butt"><path d="M243.54466,179.02059c0,2.27195 -1.11627,4.11375 -2.49328,4.11375c-1.37701,0 -2.49327,-1.8418 -2.49327,-4.11375c0,-2.27195 1.11627,-4.11375 2.49327,-4.11375c1.377,0 2.49328,1.8418 2.49328,4.11375z" data-paper-data="{&quot;index&quot;:null}"/></g><g fill="#000000" stroke="none" stroke-width="0" stroke-linecap="butt"><path d="M255.42365,178.65426c0,2.27195 -1.11627,4.11375 -2.49328,4.11375c-1.37701,0 -2.49327,-1.8418 -2.49327,-4.11375c0,-2.27195 1.11627,-4.11375 2.49327,-4.11375c1.377,0 2.49328,1.8418 2.49328,4.11375z" data-paper-data="{&quot;index&quot;:null}"/></g><path d="M225.97453,162.27058l-1.91677,-19.69253l14.00018,14.2391c0,0 0.27971,2.41074 -4.84866,4.73484c-4.81815,2.18352 -7.23476,0.7186 -7.23476,0.7186z" data-paper-data="{&quot;index&quot;:null,&quot;origRot&quot;:0}" fill="#fcd305" stroke="#000000" stroke-width="0" stroke-linecap="round"/><g stroke="none"><path d="M249.95508,187.68238c0.94116,1.10959 1.52338,2.64232 1.52338,4.33302c0,1.69072 -0.58222,3.22344 -1.52338,4.33304c-0.94116,1.10959 -2.24116,1.79605 -3.67499,1.79605c-1.43385,0 -2.73392,-0.68645 -3.67507,-1.79605c-0.94106,-1.10959 -1.52327,-2.64232 -1.52327,-4.33304c0,-1.69072 0.58221,-3.22343 1.52327,-4.33302c0.94116,-1.10959 2.24125,-1.79605 3.67507,-1.79605c1.43384,0 2.73384,0.68646 3.67499,1.79605z" data-paper-data="{&quot;index&quot;:null}" fill="#ffadbc" stroke-width="0.99783" stroke-linecap="round"/><path d="M248.11499,190.38137c0.34456,0.09103 0.60457,0.36566 0.74721,0.73523c0.14199,0.37005 0.16642,0.83562 0.03878,1.3082c-0.12765,0.47249 -0.38356,0.86403 -0.69315,1.1148c-0.31005,0.25001 -0.67391,0.35987 -1.01849,0.26883c-0.34462,-0.09094 -0.60463,-0.36563 -0.74728,-0.73521c-0.14199,-0.37005 -0.16642,-0.83564 -0.03877,-1.30813c0.12764,-0.47257 0.38356,-0.8641 0.69322,-1.11481c0.30997,-0.25007 0.67384,-0.35993 1.01848,-0.2689z" data-paper-data="{&quot;index&quot;:null}" fill="#6d3f57" stroke-width="0.73984" stroke-linecap="butt"/></g></g></g></svg>