<svg version="1.1" xmlns="http://www.w3.org/2000/svg" xmlns:xlink="http://www.w3.org/1999/xlink" width="504.5993" height="380.26676" viewBox="0,0,504.5993,380.26676"><defs><linearGradient x1="574.26499" y1="312.62342" x2="574.26499" y2="412.72944" gradientUnits="userSpaceOnUse" id="color-1"><stop offset="0" stop-color="#000000" stop-opacity="0"/><stop offset="1" stop-color="#000000"/></linearGradient><linearGradient x1="-5.83865" y1="-2" x2="-5.83865" y2="365.73639" gradientUnits="userSpaceOnUse" id="color-2"><stop offset="0" stop-color="#847cff"/><stop offset="1" stop-color="#7ceeff"/></linearGradient><radialGradient cx="113.24105" cy="66.70634" r="73.81972" gradientUnits="userSpaceOnUse" id="color-3"><stop offset="0" stop-color="#ffffff" stop-opacity="0"/><stop offset="1" stop-color="#ffffff"/></radialGradient><radialGradient cx="114.11644" cy="67.1375" r="73.81972" gradientUnits="userSpaceOnUse" id="color-4"><stop offset="0" stop-color="#ffffff"/><stop offset="1" stop-color="#ffffff" stop-opacity="0"/></radialGradient><radialGradient cx="82.30493" cy="80.20293" r="73.81972" gradientUnits="userSpaceOnUse" id="color-5"><stop offset="0" stop-color="#ffffff" stop-opacity="0"/><stop offset="1" stop-color="#ffffff"/></radialGradient><radialGradient cx="83.18032" cy="80.63409" r="73.81972" gradientUnits="userSpaceOnUse" id="color-6"><stop offset="0" stop-color="#ffffff"/><stop offset="1" stop-color="#ffffff" stop-opacity="0"/></radialGradient><radialGradient cx="358.23106" cy="58.00988" r="73.81973" gradientUnits="userSpaceOnUse" id="color-7"><stop offset="0" stop-color="#ffffff" stop-opacity="0"/><stop offset="1" stop-color="#ffffff"/></radialGradient><radialGradient cx="357.35568" cy="58.44103" r="73.81972" gradientUnits="userSpaceOnUse" id="color-8"><stop offset="0" stop-color="#ffffff"/><stop offset="1" stop-color="#ffffff" stop-opacity="0"/></radialGradient><radialGradient cx="389.16718" cy="71.50647" r="73.81972" gradientUnits="userSpaceOnUse" id="color-9"><stop offset="0" stop-color="#ffffff" stop-opacity="0"/><stop offset="1" stop-color="#ffffff"/></radialGradient><radialGradient cx="388.29179" cy="71.93763" r="73.81972" gradientUnits="userSpaceOnUse" id="color-10"><stop offset="0" stop-color="#ffffff"/><stop offset="1" stop-color="#ffffff" stop-opacity="0"/></radialGradient></defs><g transform="translate(13.50748,2)"><g data-paper-data="{&quot;isPaintingLayer&quot;:true}" fill-rule="nonzero" stroke-linejoin="miter" stroke-miterlimit="10" stroke-dasharray="" stroke-dashoffset="0" style="mix-blend-mode: normal"><path d="M490.61163,372.85616l-504.11911,1.52906c0,-20.58726 0,-41.17452 0,-61.7618h501.4297c0.19777,6.83015 2.68941,60.23274 2.68941,60.23274z" data-paper-data="{&quot;index&quot;:null}" fill="url(#color-1)" stroke="none" stroke-width="1.22826" stroke-linecap="butt"/><path d="M-5.83865,-2h490.31518v367.73639h-490.31518z" fill="url(#color-2)" stroke="none" stroke-width="1" stroke-linecap="butt"/><path d="M368.98495,217.1096h29.62321v148.62679h-29.62321z" fill="#91ede6" stroke="none" stroke-width="0.99156" stroke-linecap="butt"/><path d="M113.16493,170.6318h27.58023v195.10458h-27.58023z" fill="#91ede6" stroke="none" stroke-width="1" stroke-linecap="butt"/><path d="M202.03457,120.06805h102.65974v245.66834h-102.65974z" fill="#91ede6" stroke="none" stroke-width="1" stroke-linecap="butt"/><path d="M-5.83865,189.01862h117.47135v176.71776h-117.47135z" fill="#8a8e8b" stroke="#626462" stroke-width="2" stroke-linecap="butt"/><path d="M141.2559,135.90115h60.26791v229.83524h-60.26791z" fill="#8a8e8b" stroke="#626462" stroke-width="2" stroke-linecap="butt"/><path d="M399.69288,239.07163h84.78367v126.66476h-84.78367z" fill="#8a8e8b" stroke="#626462" stroke-width="2" stroke-linecap="butt"/><path d="M-10.9461,169.61031c0,-1.6211 3.46183,0.54854 5.10745,0c1.8254,-0.60881 2.04213,-3.06404 4.08596,-4.08596c2.04383,-1.02192 6.84603,-1.94185 10.2149,-3.06447c0.84273,-0.28091 10.88806,-1.95207 15.32235,-2.04298c12.24358,-0.25027 40.84325,0.81515 42.90258,1.02149c8.15149,0.81515 16.37755,1.10423 24.51576,2.04298c2.03481,0.23494 7.53757,1.44847 10.2149,2.04298c3.46694,0.7702 7.25973,1.09504 10.2149,3.06447c3.40769,2.27179 5.68357,5.93996 8.17192,9.19341c1.949,2.54862 3.67226,5.30153 5.10745,8.17192c0.35854,0.71709 0,1.36267 0,2.04298c0,1.70078 0.50053,3.48226 0,5.10745c-0.89483,2.90818 -2.00518,5.95222 -4.08596,8.17192c-3.16458,3.375 -7.01764,6.27297 -11.23639,8.17192c-2.8091,1.26358 -6.1412,1.43724 -9.19341,1.02149c-4.58445,-0.62515 -9.01567,-2.29018 -13.27937,-4.08596c-2.26056,-0.95203 -3.70699,-3.69882 -6.12894,-4.08596c-6.38227,-1.02149 -13.07099,-1.26767 -19.40831,0c-4.17892,0.83558 -7.12796,4.99509 -11.23639,6.12894c-5.93894,1.63847 -12.24869,2.56905 -18.38682,2.04298c-6.00534,-0.51483 -11.45499,-3.92559 -17.36533,-5.10745c-2.66813,-0.53322 -5.5089,-0.5608 -8.17192,0c-3.89596,0.82026 -7.78069,5.52626 -11.23639,4.08596c-2.67324,-1.11342 -6.12894,-40.25998 -6.12894,-40.8596z" fill="#4ec8a5" stroke="#36876d" stroke-width="2" stroke-linecap="round"/><path d="M158.41695,123.84756c3.03076,0.55058 9.10658,0.35446 12.46218,-0.2043c2.8663,-0.47806 13.42238,-4.90315 20.2255,-4.90315c1.70078,0 9.89109,1.23498 10.4192,1.83868c2.11346,2.4148 6.04211,5.10234 5.10745,8.17192c-1.90201,6.25152 -6.14631,13.0097 -12.25788,15.32235c-7.95945,3.01237 -16.00981,-0.88767 -24.51576,-0.61289c-2.15024,0.06946 -5.00121,1.72734 -7.15043,1.63438c-5.86642,-0.25537 -12.94636,0.80187 -17.36533,-3.06447c-4.94401,-4.32601 -8.23423,-7.04215 -6.94613,-13.48367c0.74569,-3.72946 5.40164,-7.67548 9.19341,-7.96762c0,0 8.43546,3.13087 10.82779,3.26877z" fill="#4ec8a5" stroke="#36876d" stroke-width="2" stroke-linecap="round"/><path d="M401.73586,248.26504c-3.05528,0.36161 -5.38836,0.06333 -7.15043,-1.02149c-2.86834,-1.76513 -6.42006,-3.86328 -7.15043,-7.15043c-1.4781,-6.6499 -1.13283,-13.96785 1.02149,-20.4298c0.86724,-2.60173 11.65622,-10.06883 16.34384,-10.2149c18.74843,-0.58634 34.41604,2.62829 53.11748,4.08596c7.49161,0.58327 26.43412,-0.74977 26.55874,0c0.22371,1.34224 7.5815,33.88793 5.10745,42.54506c-0.71811,3.72844 -2.44443,-9.61324 -7.4058,-10.6235c-4.74584,-0.95305 -9.22099,5.09621 -14.04549,3.83059c-3.28613,-0.86009 -9.1597,-7.23113 -12.51325,-7.66117c-6.38533,-0.41677 -11.74203,6.59985 -18.13145,6.63968c-8.20563,0.05005 -12.75126,-5.48744 -20.94054,-5.61819c-5.59164,0.13075 -10.41818,4.6488 -15.83309,5.61819z" fill="#4ec8a5" stroke="#36876d" stroke-width="2" stroke-linecap="round"/><path d="M305.7158,137.94413h62.31089v227.79226h-62.31089z" fill="#8a8e8b" stroke="#626462" stroke-width="2" stroke-linecap="butt"/><path d="M314.90921,117.51433c0.998,-0.33301 -2.1247,-0.93671 0,-1.02149c8.49675,-0.34016 17.03641,-0.22371 25.53725,0c4.43327,0.11645 8.90024,0.32075 13.27937,1.02149c4.1544,0.66499 8.30982,1.60987 12.25788,3.06447c2.57313,0.94794 5.34444,2.02255 7.15043,4.08596c0.89585,1.02353 0,2.72534 0,4.08596c0,2.72125 1.50976,5.90728 0,8.17192c-2.30346,3.45468 -6.62845,5.05842 -10.2149,7.15043c-0.89687,0.523 -1.25541,-0.28602 -2.04298,0c-3.14823,1.14509 -5.86642,3.69473 -9.19341,4.08596c-2.7856,0.3279 -5.53035,-1.09912 -8.17192,-2.04298c-2.14921,-0.76714 -3.86123,-2.81216 -6.12894,-3.06447c-4.07064,-0.45252 -8.18724,0.56897 -12.25788,1.02149c-2.05626,0.22881 -4.13908,1.58944 -6.12894,1.02149c-7.77456,-2.22174 -17.98742,-2.46588 -22.47278,-9.19341c-3.04813,-4.57219 2.24319,-11.4366 6.12894,-15.32235c2.9756,-2.9756 8.2659,-1.73347 11.23639,-3.06447z" fill="#4ec8a5" stroke="#36876d" stroke-width="2" stroke-linecap="round"/><path d="M119.80462,222.21705v-13.79011" fill="none" stroke="#99ffff" stroke-width="2" stroke-linecap="round"/><path d="M132.57323,255.41547v-39.32736" fill="none" stroke="#99ffff" stroke-width="2" stroke-linecap="round"/><path d="M122.35834,243.15759v42.39183" fill="none" stroke="#99ffff" stroke-width="2" stroke-linecap="round"/><path d="M132.06249,310.06518v-28.09097" fill="none" stroke="#99ffff" stroke-width="2" stroke-linecap="round"/><path d="M118.78313,348.37106v-38.30587" fill="none" stroke="#99ffff" stroke-width="2" stroke-linecap="round"/><path d="M131.55174,344.79584v-17.87607" fill="none" stroke="#00ffff" stroke-width="2" stroke-linecap="round"/><path d="M216.33543,131.81519v34.21991" fill="none" stroke="#99ffff" stroke-width="2" stroke-linecap="round"/><path d="M235.23299,203.83023v-45.4563" fill="none" stroke="#99ffff" stroke-width="2" stroke-linecap="round"/><path d="M213.7817,230.89971v-34.73066" fill="none" stroke="#99ffff" stroke-width="2" stroke-linecap="round"/><path d="M237.27597,230.89971v27.58023" fill="none" stroke="#99ffff" stroke-width="2" stroke-linecap="round"/><path d="M218.88915,259.50143v31.66619" fill="none" stroke="#99ffff" stroke-width="2" stroke-linecap="round"/><path d="M233.19001,292.69986v26.04799" fill="none" stroke="#99ffff" stroke-width="2" stroke-linecap="round"/><path d="M216.33543,322.32306v25.53725" fill="none" stroke="#00ffff" stroke-width="2" stroke-linecap="round"/><path d="M244.93715,309.55444v28.60172" fill="none" stroke="#00ffff" stroke-width="2" stroke-linecap="round"/><path d="M262.81322,317.72636v-38.30587" fill="none" stroke="#99ffff" stroke-width="2" stroke-linecap="round"/><path d="M245.44789,277.37751v-26.55874" fill="none" stroke="#99ffff" stroke-width="2" stroke-linecap="round"/><path d="M271.49589,220.17407v37.79513" fill="none" stroke="#99ffff" stroke-width="2" stroke-linecap="round"/><path d="M258.21652,224.77077v-28.60172" fill="none" stroke="#99ffff" stroke-width="2" stroke-linecap="round"/><path d="M281.20004,196.6798v-48.01003" fill="none" stroke="#99ffff" stroke-width="2" stroke-linecap="round"/><path d="M262.81322,170.6318v-22.98352" fill="none" stroke="#99ffff" stroke-width="2" stroke-linecap="round"/><path d="M243.40491,149.69126v-21.96203" fill="none" stroke="#99ffff" stroke-width="2" stroke-linecap="round"/><path d="M294.99016,174.71776v41.37034" fill="none" stroke="#99ffff" stroke-width="2" stroke-linecap="round"/><path d="M289.37196,238.05014v43.92407" fill="none" stroke="#99ffff" stroke-width="2" stroke-linecap="round"/><path d="M280.17855,325.38753v-26.04799" fill="none" stroke="#99ffff" stroke-width="2" stroke-linecap="round"/><path d="M291.92569,323.34455v22.47278" fill="none" stroke="#00ffff" stroke-width="2" stroke-linecap="round"/><path d="M376.19861,347.34957v-26.04799" fill="none" stroke="#00ffff" stroke-width="2" stroke-linecap="round"/><path d="M388.96723,326.91977v-28.09097" fill="none" stroke="#99ffff" stroke-width="2" stroke-linecap="round"/><path d="M381.30606,303.93624v-35.2414" fill="none" stroke="#99ffff" stroke-width="2" stroke-linecap="round"/><path d="M373.64488,246.22206v24.51576" fill="none" stroke="#99ffff" stroke-width="2" stroke-linecap="round"/><path d="M391.52096,270.22708v-19.40831" fill="none" stroke="#99ffff" stroke-width="2" stroke-linecap="round"/><path d="M381.30606,237.02865v-12.76862" fill="none" stroke="#99ffff" stroke-width="2" stroke-linecap="round"/><g data-paper-data="{&quot;index&quot;:null}" stroke="none" stroke-width="0" stroke-linecap="butt"><g><path d="M39.42133,66.70634c0,-18.0396 33.05022,-32.66359 73.81972,-32.66359c40.7695,0 73.81972,14.62399 73.81972,32.66359c0,18.0396 -33.05022,32.66359 -73.81972,32.66359c-40.7695,0 -73.81972,-14.62399 -73.81972,-32.66359z" fill="url(#color-3)"/><path d="M40.29672,67.1375c0,-18.0396 33.05022,-32.66359 73.81972,-32.66359c40.7695,0 73.81972,14.62399 73.81972,32.66359c0,18.0396 -33.05022,32.66359 -73.81972,32.66359c-40.7695,0 -73.81972,-14.62399 -73.81972,-32.66359z" fill="url(#color-4)"/></g><g><path d="M8.48521,80.20293c0,-18.0396 33.05022,-32.66359 73.81972,-32.66359c40.7695,0 73.81972,14.62399 73.81972,32.66359c0,18.0396 -33.05022,32.66359 -73.81972,32.66359c-40.7695,0 -73.81972,-14.62399 -73.81972,-32.66359z" fill="url(#color-5)"/><path d="M9.3606,80.63409c0,-18.0396 33.05022,-32.66359 73.81972,-32.66359c40.7695,0 73.81972,14.62399 73.81972,32.66359c0,18.0396 -33.05022,32.66359 -73.81972,32.66359c-40.7695,0 -73.81972,-14.62399 -73.81972,-32.66359z" fill="url(#color-6)"/></g></g><g stroke="none" stroke-width="0" stroke-linecap="butt"><g><path d="M358.23106,90.67347c-40.7695,0 -73.81972,-14.62399 -73.81972,-32.66359c0,-18.0396 33.05021,-32.66359 73.81972,-32.66359c40.76951,0 73.81973,14.62399 73.81973,32.66359c0,18.0396 -33.05022,32.66359 -73.81973,32.66359z" fill="url(#color-7)"/><path d="M357.35568,91.10462c-40.7695,0 -73.81972,-14.62399 -73.81972,-32.66359c0,-18.0396 33.05022,-32.66359 73.81972,-32.66359c40.7695,0 73.81972,14.62399 73.81972,32.66359c0,18.0396 -33.05022,32.66359 -73.81972,32.66359z" fill="url(#color-8)"/></g><g><path d="M389.16718,104.17006c-40.76949,0 -73.81972,-14.62399 -73.81972,-32.66359c0,-18.0396 33.05022,-32.66359 73.81972,-32.66359c40.7695,0 73.81972,14.62399 73.81972,32.66359c0,18.0396 -33.05022,32.66359 -73.81972,32.66359z" fill="url(#color-9)"/><path d="M388.29179,104.60123c-40.7695,0 -73.81972,-14.624 -73.81972,-32.6636c0,-18.03959 33.05022,-32.66358 73.81972,-32.66358c40.7695,0 73.81972,14.62398 73.81972,32.66358c0,18.0396 -33.05022,32.6636 -73.81972,32.6636z" fill="url(#color-10)"/></g></g><path d="M137.54782,374.33098c-7.50398,3.43933 -16.61186,6.26208 -24.34068,1.10953c-0.47422,-0.31614 -5.32074,-5.00014 -6.48943,-5.25377c-3.17902,-0.68986 -6.50431,0.37234 -9.75549,0.26326c-6.76793,-0.22709 -11.5767,-2.29002 -15.88712,-7.56296c-1.37089,-1.67701 -1.4352,-4.09976 -1.88628,-6.21831c-0.483,-2.26841 0.63829,-4.60725 1.24785,-6.84497c1.34773,-4.94759 8.45987,-7.91005 12.58669,-9.89351c6.16625,-2.96365 12.18422,-5.71145 18.86833,-7.19681c1.43511,-0.31892 2.9611,-0.13557 4.48068,0.07725c0.46382,-0.05104 0.93511,-0.07725 1.41253,-0.07725c1.01523,0 2.00277,0.11848 2.94958,0.34237c0.53986,-0.07041 0.21696,-1.1112 0.55929,-1.53454c1.37927,-1.70572 2.82379,-3.35841 4.28273,-4.99652c1.01737,-1.14232 3.87856,-1.85602 5.3534,-2.23059c6.34363,-1.61107 9.80107,4.09923 14.74426,5.61604c7.62984,2.3412 13.90034,4.60658 18.24968,11.54484c1.9657,3.13579 1.6515,7.71649 1.09825,11.12575c-1.9611,12.08478 -14.04271,20.59937 -26.06077,20.59937z" fill-opacity="0.50196" fill="#ffffff" stroke="none" stroke-width="0.5" stroke-linecap="butt"/><path d="M218.05631,333.68073c0.38199,-0.12521 -0.20199,-0.82436 -0.06965,-1.20394c0.5245,-1.50439 1.90368,-3.75497 2.96525,-4.98416c1.82223,-2.10995 4.2727,-2.02148 6.12556,-3.72427c5.26395,-4.83761 6.39742,-7.55943 14.07198,-8.32166c8.63143,-0.85725 14.83083,7.21475 18.80662,13.66395c1.0145,1.64563 2.34872,3.87296 2.87076,5.75607c0.19827,0.71522 -0.28451,1.92766 0.41037,2.18842c1.18701,0.44543 4.5856,0.36066 5.55788,0.45884c2.64767,0.26735 5.39422,0.03135 7.90265,0.71094c1.77701,0.48143 3.31393,-1.67113 5.09836,-2.12432c2.49826,-0.63448 7.65699,0.65253 9.85206,2.30256c0.48964,0.36806 3.30552,3.06323 3.87316,2.94652c1.12078,-0.23045 2.0246,-1.34136 3.16865,-1.32028c2.54847,0.04697 5.21496,0.3769 7.49477,1.5168c7.37609,3.68805 8.64816,15.13418 5.06937,22.12661c-2.68095,5.23817 -8.80438,7.23925 -14.35658,7.23925c-2.30784,0 -5.52936,-1.52786 -7.59055,-0.79879c-3.97614,1.40641 -8.04807,2.32147 -12.28826,2.76297c-8.42637,0.87738 -16.36415,-0.79628 -24.44762,-3.31039c-2.10094,-0.65343 -4.41743,-2.7521 -6.41349,-2.97566c-2.27752,-0.25509 -4.45747,1.1384 -6.74603,0.56626c-1.48234,-0.37059 -2.84456,-1.34374 -4.37216,-1.37698c-2.79031,-0.06072 -6.32467,2.96538 -9.3306,3.4478c-4.64595,0.74565 -7.50719,-0.20042 -11.75683,-0.92071c-0.73021,-0.12377 -1.09492,1.04573 -1.77752,1.33314c-2.64598,1.1141 -7.0437,2.3789 -10.04038,1.62973c-10.83128,-2.70782 -16.63105,-11.57553 -13.30676,-22.65188c1.14969,-3.83067 3.25944,-7.8444 5.28645,-11.22275c0.6762,-1.95345 1.81328,-3.69174 3.28118,-5.08479c1.78454,-2.80429 4.11255,-3.55512 6.58816,-3.31655c0.71469,-0.12411 1.44974,-0.1888 2.19992,-0.1888c4.04664,0 7.65364,1.88245 9.99302,4.81942c0.72463,0.18462 1.36016,0.22713 1.88023,0.05665z" fill-opacity="0.50196" fill="#ffffff" stroke="none" stroke-width="0.5" stroke-linecap="butt"/><path d="M360.0941,347.2946c0.58818,-0.34299 1.19565,-0.58348 1.81463,-0.75405c1.41884,-0.54396 2.95945,-0.84202 4.56969,-0.84202c0.7611,0 1.50665,0.06659 2.23114,0.19427c0.84921,-0.12847 1.66521,-0.35268 2.42604,-0.76471c1.02676,-0.55605 1.16898,-4.76832 2.46634,-6.1954c7.1181,-7.82991 18.19903,-11.15938 28.33398,-6.96043c4.89027,2.02605 7.29599,8.23418 8.4547,12.85716c0.49823,1.98783 0.78317,3.79 0.89827,5.86836c0.01743,0.31472 -0.13307,0.85992 0.17438,0.92938c7.83035,1.76911 13.27647,4.87854 12.74096,14.51768c-0.57996,10.43923 -20.29362,14.97196 -27.9651,9.78096c-2.08779,-1.41273 -3.01879,-2.05798 -4.86763,-4.15232c-0.72868,-0.82544 -1.53306,-1.5852 -2.22194,-2.44414c-0.19485,-0.24295 -0.01565,-0.89287 -0.32659,-0.87539c-6.06956,0.34154 -15.94016,4.12072 -22.34455,2.78181c-2.43865,0 -4.71763,-0.68364 -6.65573,-1.86974c-3.66637,-2.24376 -6.11289,-6.28562 -6.11289,-10.89889c0,-2.55349 0.74955,-4.93191 2.04062,-6.92724c0.78741,-1.56969 2.00844,-2.88356 4.34369,-4.2453z" fill-opacity="0.50196" fill="#ffffff" stroke="none" stroke-width="0.5" stroke-linecap="butt"/></g></g></svg>