<svg version="1.1" xmlns="http://www.w3.org/2000/svg" xmlns:xlink="http://www.w3.org/1999/xlink" width="496.52141" height="371.76504" viewBox="0,0,496.52141,371.76504"><defs><linearGradient x1="240.00002" y1="177.00002" x2="240.00002" y2="361.00002" gradientUnits="userSpaceOnUse" id="color-1"><stop offset="0" stop-color="#a69675"/><stop offset="1" stop-color="#ccb995"/></linearGradient><linearGradient x1="103.5" y1="133.5744" x2="103.5" y2="383.07441" gradientUnits="userSpaceOnUse" id="color-2"><stop offset="0" stop-color="#dedac5"/><stop offset="1" stop-color="#b2b2b2"/></linearGradient><linearGradient x1="402.50001" y1="104.03441" x2="402.50001" y2="348.03441" gradientUnits="userSpaceOnUse" id="color-3"><stop offset="0" stop-color="#dedac5"/><stop offset="1" stop-color="#b2b2b2"/></linearGradient><radialGradient cx="31.7778" cy="179.8532" r="21.8111" gradientUnits="userSpaceOnUse" id="color-4"><stop offset="0" stop-color="#ffff99"/><stop offset="1" stop-color="#ffff00"/></radialGradient><radialGradient cx="39.8084" cy="179.0381" r="21.4005" gradientUnits="userSpaceOnUse" id="color-5"><stop offset="0" stop-color="#ffff99"/><stop offset="1" stop-color="#ffff00"/></radialGradient><radialGradient cx="38.8876" cy="171.24431" r="21.3777" gradientUnits="userSpaceOnUse" id="color-6"><stop offset="0" stop-color="#ffff99"/><stop offset="1" stop-color="#ffff00"/></radialGradient><radialGradient cx="30.9346" cy="170.166" r="20.4549" gradientUnits="userSpaceOnUse" id="color-7"><stop offset="0" stop-color="#ffff99"/><stop offset="1" stop-color="#ffff00"/></radialGradient><radialGradient cx="161.0778" cy="182.20321" r="21.8111" gradientUnits="userSpaceOnUse" id="color-8"><stop offset="0" stop-color="#ffff99"/><stop offset="1" stop-color="#ffff00"/></radialGradient><radialGradient cx="169.1084" cy="181.38811" r="21.4005" gradientUnits="userSpaceOnUse" id="color-9"><stop offset="0" stop-color="#ffff99"/><stop offset="1" stop-color="#ffff00"/></radialGradient><radialGradient cx="168.18761" cy="173.6443" r="21.3777" gradientUnits="userSpaceOnUse" id="color-10"><stop offset="0" stop-color="#ffff99"/><stop offset="1" stop-color="#ffff00"/></radialGradient><radialGradient cx="160.23459" cy="172.56599" r="20.4549" gradientUnits="userSpaceOnUse" id="color-11"><stop offset="0" stop-color="#ffff99"/><stop offset="1" stop-color="#ffff00"/></radialGradient><radialGradient cx="399.42781" cy="138.7532" r="21.8111" gradientUnits="userSpaceOnUse" id="color-12"><stop offset="0" stop-color="#ffff99"/><stop offset="1" stop-color="#ffff00"/></radialGradient><radialGradient cx="407.45831" cy="137.9381" r="21.4005" gradientUnits="userSpaceOnUse" id="color-13"><stop offset="0" stop-color="#ffff99"/><stop offset="1" stop-color="#ffff00"/></radialGradient><radialGradient cx="406.53751" cy="130.1443" r="21.3777" gradientUnits="userSpaceOnUse" id="color-14"><stop offset="0" stop-color="#ffff99"/><stop offset="1" stop-color="#ffff00"/></radialGradient><radialGradient cx="398.58461" cy="129.06599" r="20.4549" gradientUnits="userSpaceOnUse" id="color-15"><stop offset="0" stop-color="#ffff99"/><stop offset="1" stop-color="#ffff00"/></radialGradient><linearGradient x1="5.45" y1="69.00001" x2="5.45" y2="133.49999" gradientUnits="userSpaceOnUse" id="color-16"><stop offset="0" stop-color="#009933"/><stop offset="1" stop-color="#006622"/></linearGradient><linearGradient x1="335.00001" y1="12.99999" x2="335.00001" y2="105" gradientUnits="userSpaceOnUse" id="color-17"><stop offset="0" stop-color="#990000"/><stop offset="1" stop-color="#660000"/></linearGradient><linearGradient x1="271.00001" y1="119.99999" x2="271.00001" y2="359" gradientUnits="userSpaceOnUse" id="color-18"><stop offset="0" stop-color="#dedac5"/><stop offset="1" stop-color="#b2b2b2"/></linearGradient><linearGradient x1="271.00001" y1="186.25001" x2="271.00001" y2="255.75001" gradientUnits="userSpaceOnUse" id="color-19"><stop offset="0" stop-color="#000000"/><stop offset="1" stop-color="#494949"/></linearGradient><radialGradient cx="3.4224" cy="122.4487" r="15.5131" gradientUnits="userSpaceOnUse" id="color-20"><stop offset="0" stop-color="#fff343"/><stop offset="1" stop-color="#fff343" stop-opacity="0"/></radialGradient><radialGradient cx="28.1224" cy="122.2987" r="15.5131" gradientUnits="userSpaceOnUse" id="color-21"><stop offset="0" stop-color="#fff343"/><stop offset="1" stop-color="#fff343" stop-opacity="0"/></radialGradient><radialGradient cx="16.4224" cy="107.44871" r="15.5131" gradientUnits="userSpaceOnUse" id="color-22"><stop offset="0" stop-color="#fff343"/><stop offset="1" stop-color="#fff343" stop-opacity="0"/></radialGradient><radialGradient cx="193.92241" cy="128.44869" r="15.5131" gradientUnits="userSpaceOnUse" id="color-23"><stop offset="0" stop-color="#fff343"/><stop offset="1" stop-color="#fff343" stop-opacity="0"/></radialGradient><radialGradient cx="218.62241" cy="128.2987" r="15.5131" gradientUnits="userSpaceOnUse" id="color-24"><stop offset="0" stop-color="#fff343"/><stop offset="1" stop-color="#fff343" stop-opacity="0"/></radialGradient><radialGradient cx="206.92241" cy="113.4487" r="15.5131" gradientUnits="userSpaceOnUse" id="color-25"><stop offset="0" stop-color="#fff343"/><stop offset="1" stop-color="#fff343" stop-opacity="0"/></radialGradient><radialGradient cx="324.42241" cy="115.4487" r="15.5131" gradientUnits="userSpaceOnUse" id="color-26"><stop offset="0" stop-color="#fff343"/><stop offset="1" stop-color="#fff343" stop-opacity="0"/></radialGradient><radialGradient cx="349.12241" cy="115.2987" r="15.5131" gradientUnits="userSpaceOnUse" id="color-27"><stop offset="0" stop-color="#fff343"/><stop offset="1" stop-color="#fff343" stop-opacity="0"/></radialGradient><radialGradient cx="337.42241" cy="100.44871" r="15.5131" gradientUnits="userSpaceOnUse" id="color-28"><stop offset="0" stop-color="#fff343"/><stop offset="1" stop-color="#fff343" stop-opacity="0"/></radialGradient><radialGradient cx="451.67241" cy="125.4487" r="15.5131" gradientUnits="userSpaceOnUse" id="color-29"><stop offset="0" stop-color="#fff343"/><stop offset="1" stop-color="#fff343" stop-opacity="0"/></radialGradient><radialGradient cx="476.37241" cy="125.2987" r="15.5131" gradientUnits="userSpaceOnUse" id="color-30"><stop offset="0" stop-color="#fff343"/><stop offset="1" stop-color="#fff343" stop-opacity="0"/></radialGradient><radialGradient cx="464.67241" cy="110.44871" r="15.5131" gradientUnits="userSpaceOnUse" id="color-31"><stop offset="0" stop-color="#fff343"/><stop offset="1" stop-color="#fff343" stop-opacity="0"/></radialGradient><linearGradient x1="567.89948" y1="308.00442" x2="567.89948" y2="406.00442" gradientUnits="userSpaceOnUse" id="color-32"><stop offset="0" stop-color="#000000" stop-opacity="0"/><stop offset="1" stop-color="#000000"/></linearGradient></defs><g transform="translate(8.7522,-11.30935)"><g data-paper-data="{&quot;isPaintingLayer&quot;:true}" fill-rule="nonzero" stroke-linejoin="miter" stroke-miterlimit="10" stroke-dasharray="" stroke-dashoffset="0" style="mix-blend-mode: normal"><path d="M79.3,71.30001l-0.3,-0.3" fill="none" stroke="#cccccc" stroke-width="2" stroke-linecap="round"/><path d="M443.30001,106.30001l-0.3,-0.3" fill="none" stroke="#cccccc" stroke-width="2" stroke-linecap="round"/><path d="M424.00001,146.99999l0.3,0.3" fill="none" stroke="#cccccc" stroke-width="2" stroke-linecap="round"/><path d="M371.30001,132.3l-0.3,-0.3" fill="none" stroke="#cccccc" stroke-width="2" stroke-linecap="round"/><path d="M371.30001,53.30001l-0.3,-0.3" fill="none" stroke="#cccccc" stroke-width="2" stroke-linecap="round"/><path d="M291.30001,233.3l-0.3,-0.3" fill="none" stroke="#cccccc" stroke-width="2" stroke-linecap="round"/><path d="M168.00001,182.00001l0.3,0.3" fill="none" stroke="#cccccc" stroke-width="2" stroke-linecap="round"/><path d="M35.3,151.29999l-0.3,-0.3" fill="none" stroke="#cccccc" stroke-width="2" stroke-linecap="round"/><path d="M42.3,331.30001l-0.3,-0.3" fill="none" stroke="#cccccc" stroke-width="2" stroke-linecap="round"/><path d="M163.3,308.30001l-0.3,-0.3" fill="none" stroke="#cccccc" stroke-width="2" stroke-linecap="round"/><path d="M233.00001,273.00001l0.3,0.3" fill="none" stroke="#cccccc" stroke-width="2" stroke-linecap="round"/><path d="M309.30001,312.30001l-0.3,-0.3" fill="none" stroke="#cccccc" stroke-width="2" stroke-linecap="round"/><path d="M385.30001,291.30001l-0.3,-0.3" fill="none" stroke="#cccccc" stroke-width="2" stroke-linecap="round"/><path d="M451.30001,299.30001l-0.3,-0.3" fill="none" stroke="#cccccc" stroke-width="2" stroke-linecap="round"/><path d="M422.00001,210.00001l0.3,0.3" fill="none" stroke="#cccccc" stroke-width="2" stroke-linecap="round"/><path d="M360.00001,208.00001l0.3,0.3" fill="none" stroke="#cccccc" stroke-width="2" stroke-linecap="round"/><path d="M304.30001,161.3l-0.3,-0.3" fill="none" stroke="#cccccc" stroke-width="2" stroke-linecap="round"/><path d="M277.30001,120.30001l-0.3,-0.3" fill="none" stroke="#cccccc" stroke-width="2" stroke-linecap="round"/><path d="M221.00001,129.99999l0.3,0.3" fill="none" stroke="#cccccc" stroke-width="2" stroke-linecap="round"/><path d="M214.30001,187.30001l-0.3,-0.3" fill="none" stroke="#cccccc" stroke-width="2" stroke-linecap="round"/><path d="M139.99999,103.00001l0.3,0.3" fill="none" stroke="#cccccc" stroke-width="2" stroke-linecap="round"/><path d="M372.30001,92.30001l-0.3,-0.3" fill="none" stroke="#cccccc" stroke-width="2" stroke-linecap="round"/><path d="M323.30001,123.30001l-0.3,-0.3" fill="none" stroke="#cccccc" stroke-width="2" stroke-linecap="round"/><path d="M60.30001,249.30001l-0.3,-0.3" fill="none" stroke="#cccccc" stroke-width="2" stroke-linecap="round"/><path d="M166.99999,262.00001l0.3,0.3" fill="none" stroke="#cccccc" stroke-width="2" stroke-linecap="round"/><path d="M376.00001,250.00001l0.3,0.3" fill="none" stroke="#cccccc" stroke-width="2" stroke-linecap="round"/><path d="M428.90601,146.551c9.323,6.517 15.094,15.517 15.094,25.449c0,9.932 -5.771,18.932 -15.094,25.449c-9.323,6.517 -22.198,10.551 -36.406,10.551c-14.208,0 -27.083,-4.034 -36.406,-10.551c-9.323,-6.517 -15.094,-15.517 -15.094,-25.449c0,-9.932 5.771,-18.932 15.094,-25.449c9.323,-6.517 22.198,-10.551 36.406,-10.551c14.208,0 27.083,4.034 36.406,10.551z" fill="#718399" stroke="none" stroke-width="1" stroke-linecap="butt"/><path d="M364.90601,130.551c9.323,6.517 15.094,15.517 15.094,25.449c0,9.932 -5.771,18.932 -15.094,25.449c-9.323,6.517 -22.198,10.551 -36.406,10.551c-14.208,0 -27.083,-4.034 -36.406,-10.551c-9.323,-6.517 -15.094,-15.517 -15.094,-25.449c0,-9.932 5.771,-18.932 15.094,-25.449c9.323,-6.517 22.198,-10.551 36.406,-10.551c14.208,0 27.083,4.034 36.406,10.551z" fill="#718399" stroke="none" stroke-width="1" stroke-linecap="butt"/><path d="M351.18101,161.35801c0.815,1.765 1.319,4.202 1.319,6.892c0,2.69 -0.504,5.127 -1.319,6.892c-0.814,1.765 -1.939,2.858 -3.181,2.858c-1.242,0 -2.367,-1.093 -3.181,-2.858c-0.815,-1.765 -1.319,-4.202 -1.319,-6.892c0,-2.69 0.504,-5.127 1.319,-6.892c0.814,-1.765 1.939,-2.858 3.181,-2.858c1.242,0 2.367,1.093 3.181,2.858z" fill="#000000" stroke="none" stroke-width="1" stroke-linecap="butt"/><path d="M330.18101,160.85801c0.815,1.765 1.319,4.202 1.319,6.892c0,2.69 -0.504,5.127 -1.319,6.892c-0.814,1.765 -1.939,2.858 -3.181,2.858c-1.242,0 -2.367,-1.093 -3.181,-2.858c-0.815,-1.765 -1.319,-4.202 -1.319,-6.892c0,-2.69 0.504,-5.127 1.319,-6.892c0.814,-1.765 1.939,-2.858 3.181,-2.858c1.242,0 2.367,1.093 3.181,2.858z" fill="#000000" stroke="none" stroke-width="1" stroke-linecap="butt"/><g data-paper-data="{&quot;origPos&quot;:null}" stroke="none" stroke-width="1" stroke-linecap="butt"><path d="M0.00002,177.00002h480v184h-480z" data-paper-data="{&quot;origPos&quot;:null}" fill="url(#color-1)"/><g data-paper-data="{&quot;origPos&quot;:null}" fill="#a79776"><g data-paper-data="{&quot;origPos&quot;:null}"><path d="M359.23302,161.41652h23.23363v16.76882h-23.23363z" data-paper-data="{&quot;origPos&quot;:null}"/><path d="M456.91639,161.31005h23.23363v16.76882h-23.23363z" data-paper-data="{&quot;origPos&quot;:null}"/><path d="M423.82762,161.15034h23.23363v16.76881h-23.23363z" data-paper-data="{&quot;origPos&quot;:null}"/><path d="M391.24947,160.99065h23.23363v16.76881h-23.23363z" data-paper-data="{&quot;origPos&quot;:null}"/></g><g data-paper-data="{&quot;origPos&quot;:null}"><path d="M228.51193,161.41652h23.23363v16.76882h-23.23363z" data-paper-data="{&quot;origPos&quot;:null}"/><path d="M326.1953,161.31005h23.23363v16.76882h-23.23363z" data-paper-data="{&quot;origPos&quot;:null}"/><path d="M293.10652,161.15034h23.23363v16.76881h-23.23363z" data-paper-data="{&quot;origPos&quot;:null}"/><path d="M260.52838,160.99065h23.23363v16.76881h-23.23363z" data-paper-data="{&quot;origPos&quot;:null}"/></g><path d="M130.47111,162.4812h23.23363v16.76881h-23.23363z" data-paper-data="{&quot;origPos&quot;:null}"/><path d="M195.06571,162.21504h23.23363v16.76881h-23.23363z" data-paper-data="{&quot;origPos&quot;:null}"/><path d="M162.48755,162.05533h23.23363v16.76882h-23.23363z" data-paper-data="{&quot;origPos&quot;:null}"/><g data-paper-data="{&quot;origPos&quot;:null}"><path d="M-0.24998,162.4812h23.23363v16.76881h-23.23363z" data-paper-data="{&quot;origPos&quot;:null}"/><path d="M97.4334,162.37473h23.23363v16.76881h-23.23363z" data-paper-data="{&quot;origPos&quot;:null}"/><path d="M64.34462,162.21504h23.23363v16.76881h-23.23363z" data-paper-data="{&quot;origPos&quot;:null}"/><path d="M31.76648,162.05533h23.23363v16.76882h-23.23363z" data-paper-data="{&quot;origPos&quot;:null}"/></g></g></g><path d="M5,133.5744h197v249.5h-197z" fill="url(#color-2)" stroke="none" stroke-width="1.12712" stroke-linecap="butt"/><path d="M335.00001,104.03441h135v244h-135z" data-paper-data="{&quot;origPos&quot;:null}" fill="url(#color-3)" stroke="none" stroke-width="1.02852" stroke-linecap="butt"/><g stroke="#995900" stroke-width="2"><path d="M15,176.00001h19.5v19.5h-19.5z" fill="url(#color-4)" stroke-linecap="butt"/><path d="M36,176.00001h19.5v19.5h-19.5z" fill="url(#color-5)" stroke-linecap="butt"/><path d="M35.75,154.8l8.65,1.6l5.65,3.9l3.7,6.25l1.5,7.75h-19.5z" fill="url(#color-6)" stroke-linecap="round"/><path d="M34.69999,174.3h-19.5l1.5,-7.75l3.7,-6.25l5.65,-3.9l8.65,-1.6z" fill="url(#color-7)" stroke-linecap="round"/></g><g stroke="#995900" stroke-width="2"><path d="M144.3,178.35001h19.5v19.5h-19.5z" fill="url(#color-8)" stroke-linecap="butt"/><path d="M165.3,178.35001h19.5v19.5h-19.5z" fill="url(#color-9)" stroke-linecap="butt"/><path d="M165.05,157.2l8.65,1.6l5.65,3.9l3.7,6.25l1.5,7.75h-19.5z" fill="url(#color-10)" stroke-linecap="round"/><path d="M163.99999,176.7h-19.5l1.5,-7.75l3.7,-6.25l5.65,-3.9l8.65,-1.6z" fill="url(#color-11)" stroke-linecap="round"/></g><g data-paper-data="{&quot;origPos&quot;:null}" stroke="#995900" stroke-width="2"><path d="M382.65001,134.90001h19.5v19.5h-19.5z" fill="url(#color-12)" stroke-linecap="butt"/><path d="M403.65001,134.90001h19.5v19.5h-19.5z" fill="url(#color-13)" stroke-linecap="butt"/><path d="M403.40001,113.70001l8.65,1.6l5.65,3.9l3.7,6.25l1.5,7.75h-19.5z" fill="url(#color-14)" stroke-linecap="round"/><path d="M402.35001,133.2h-19.5l1.5,-7.75l3.7,-6.25l5.65,-3.9l8.65,-1.6z" fill="url(#color-15)" stroke-linecap="round"/></g><g><path d="M79.5,206.00001l10,-14l12,-10l11.5,10.5l7.5,13.5v54.5h-41z" fill="#663b00" stroke="#ffff00" stroke-width="2" stroke-linecap="round"/><path d="M110.25,230.50001c1.035,0 1.972,0.42 2.651,1.099c0.679,0.679 1.099,1.616 1.099,2.651c0,1.035 -0.42,1.972 -1.099,2.651c-0.679,0.679 -1.616,1.099 -2.651,1.099c-1.035,0 -1.972,-0.42 -2.651,-1.099c-0.679,-0.679 -1.099,-1.616 -1.099,-2.651c0,-1.035 0.42,-1.972 1.099,-2.651c0.679,-0.679 1.616,-1.099 2.651,-1.099z" fill="#000000" stroke="none" stroke-width="1" stroke-linecap="butt"/></g><g data-paper-data="{&quot;origPos&quot;:null}"><path d="M382.00001,190.50001l10,-14l12,-10l11.5,10.5l7.5,13.5v54.5h-41z" fill="#663b00" stroke="#ffff00" stroke-width="2" stroke-linecap="round"/><path d="M412.75001,215.00001c1.035,0 1.972,0.42 2.651,1.099c0.679,0.679 1.099,1.616 1.099,2.651c0,1.035 -0.42,1.972 -1.099,2.651c-0.679,0.679 -1.616,1.099 -2.651,1.099c-1.035,0 -1.972,-0.42 -2.651,-1.099c-0.679,-0.679 -1.099,-1.616 -1.099,-2.651c0,-1.035 0.42,-1.972 1.099,-2.651c0.679,-0.679 1.616,-1.099 2.651,-1.099z" fill="#000000" stroke="none" stroke-width="1" stroke-linecap="butt"/></g><path d="M14.95,69.50001l182,-0.5l6.5,64.5h-198z" fill="url(#color-16)" stroke="#ffff00" stroke-width="2" stroke-linecap="round"/><path d="M400.50001,12.99999l69.5,92h-135z" fill="url(#color-17)" stroke="#ffff00" stroke-width="2" stroke-linecap="round"/><path d="M212.00001,119.99999h118v239h-118z" data-paper-data="{&quot;origPos&quot;:null}" fill="url(#color-18)" stroke="none" stroke-width="1" stroke-linecap="butt"/><path d="M211.75001,104.50001h22.75v15.75h-22.75z" data-paper-data="{&quot;origPos&quot;:null}" fill="#dedac5" stroke="none" stroke-width="1" stroke-linecap="butt"/><path d="M307.40001,104.40001h22.75v15.75h-22.75z" data-paper-data="{&quot;origPos&quot;:null}" fill="#dedac5" stroke="none" stroke-width="1" stroke-linecap="butt"/><path d="M275.00001,104.25001h22.75v15.75h-22.75z" data-paper-data="{&quot;origPos&quot;:null}" fill="#dedac5" stroke="none" stroke-width="1" stroke-linecap="butt"/><path d="M243.10001,104.30001h22.75v16.55h-22.75z" data-paper-data="{&quot;origPos&quot;:null}" fill="#dedac5" stroke="none" stroke-width="1" stroke-linecap="butt"/><path d="M271.12501,166.74999c5.621,0 10.715,2.283 14.403,5.972c3.689,3.688 5.972,8.782 5.972,14.403c0,5.621 -2.283,10.715 -5.972,14.403c-3.688,3.689 -8.782,5.972 -14.403,5.972c-5.621,0 -10.715,-2.283 -14.403,-5.972c-3.689,-3.688 -5.972,-8.782 -5.972,-14.403c0,-5.621 2.283,-10.715 5.972,-14.403c3.688,-3.689 8.782,-5.972 14.403,-5.972z" fill="#000000" stroke="none" stroke-width="1" stroke-linecap="butt"/><path d="M250.50001,186.25001h41v69.5h-41z" data-paper-data="{&quot;origPos&quot;:null}" fill="url(#color-19)" stroke="none" stroke-width="1" stroke-linecap="butt"/><g stroke-linecap="round"><path d="M15.75,119.45001l0.25,151.55" fill="none" stroke="#000000" stroke-width="9"/><g stroke="none"><path d="M-8.3343,120.20731l-0.4179,-0.5394l0.3622,-1.1073l0.6408,-0.2839h6.6034l2.8976,-6.672l0.6409,-0.5394l0.6408,0.0284l0.7801,0.5962l3.1206,6.5016l6.6869,-0.1135l0.6687,0.3975l0.5294,0.653l-0.5294,1.164l-3.8171,4.5142l1.1145,6.8424l0.0557,1.0788l-0.6965,0.3691l-1.226,-0.2271l-6.4083,-4.5426l-5.461,5.1104l-1.2259,0.2271l-0.8916,-0.4826l-0.3065,-1.3344l0.6409,-6.3597z" fill="url(#color-20)" stroke-width="0.56256"/><path d="M-7.0379,120.56191l-0.3743,-0.4741l0.3244,-0.9731l0.5739,-0.2496h5.9135l2.595,-5.8636l0.5739,-0.4741l0.5739,0.025l0.6986,0.524l2.7946,5.7139l5.9884,-0.0998l0.5988,0.3493l0.4741,0.5739l-0.4741,1.023l-3.4184,3.9673l0.9981,6.0133l0.0499,0.9482l-0.6238,0.3244l-1.0979,-0.1996l-5.7388,-3.9923l-4.8905,4.4913l-1.0979,0.1996l-0.7985,-0.4242l-0.2744,-1.1727l0.5739,-5.5891z" fill="#ffff99" stroke-width="0.49903"/></g><g stroke="none"><path d="M16.36569,120.0573l-0.4179,-0.5394l0.3622,-1.1073l0.6408,-0.2839h6.6034l2.8976,-6.672l0.6409,-0.5394l0.6408,0.0284l0.7801,0.5962l3.1206,6.5016l6.6869,-0.1135l0.6687,0.3975l0.5294,0.653l-0.5294,1.164l-3.8171,4.5142l1.1145,6.8424l0.0557,1.0788l-0.6965,0.3691l-1.226,-0.2271l-6.4083,-4.5426l-5.461,5.1104l-1.2259,0.2271l-0.8916,-0.4826l-0.3065,-1.3344l0.6409,-6.3597z" fill="url(#color-21)" stroke-width="0.56256"/><path d="M17.6621,120.46191l-0.3743,-0.4741l0.3244,-0.9731l0.5739,-0.2496h5.9135l2.595,-5.8636l0.5739,-0.4741l0.5739,0.025l0.6986,0.524l2.7946,5.7139l5.9884,-0.0998l0.5988,0.3493l0.4741,0.5739l-0.4741,1.023l-3.4184,3.9673l0.9981,6.0133l0.0499,0.9482l-0.6238,0.3244l-1.0979,-0.1996l-5.7388,-3.9923l-4.8905,4.4913l-1.0979,0.1996l-0.7985,-0.4242l-0.2744,-1.1727l0.5739,-5.5891z" fill="#ffff99" stroke-width="0.49903"/></g><g stroke="none"><path d="M4.6657,105.20731l-0.4179,-0.5394l0.3622,-1.1073l0.6408,-0.2839h6.6034l2.8976,-6.672l0.6409,-0.5394l0.6408,0.0284l0.7801,0.5962l3.1206,6.5016l6.6869,-0.1135l0.6687,0.3975l0.5294,0.653l-0.5294,1.164l-3.8171,4.5142l1.1145,6.8424l0.0557,1.0788l-0.6965,0.3691l-1.226,-0.2271l-6.4083,-4.5426l-5.461,5.1104l-1.2259,0.2271l-0.8916,-0.4826l-0.3065,-1.3344l0.6409,-6.3597z" fill="url(#color-22)" stroke-width="0.56256"/><path d="M5.9621,105.56191l-0.3743,-0.4741l0.3244,-0.9731l0.5739,-0.2496h5.9135l2.595,-5.8636l0.5739,-0.4741l0.5739,0.025l0.6986,0.524l2.7946,5.7139l5.9884,-0.0998l0.5988,0.3493l0.4741,0.5739l-0.4741,1.023l-3.4184,3.9673l0.9981,6.0133l0.0499,0.9482l-0.6238,0.3244l-1.0979,-0.1996l-5.7388,-3.9923l-4.8905,4.4913l-1.0979,0.1996l-0.7985,-0.4242l-0.2744,-1.1727l0.5739,-5.5891z" fill="#ffff99" stroke-width="0.49903"/></g></g><g stroke-linecap="round"><path d="M206.25001,257.45v-132" fill="none" stroke="#000000" stroke-width="9"/><g stroke="none"><path d="M182.1657,126.20731l-0.4179,-0.5394l0.3622,-1.1073l0.6408,-0.2839h6.6034l2.8976,-6.672l0.6409,-0.5394l0.6408,0.0284l0.7801,0.5962l3.1206,6.5016l6.6869,-0.1135l0.6687,0.3975l0.5294,0.653l-0.5294,1.164l-3.8171,4.5142l1.1145,6.8424l0.0557,1.0788l-0.6965,0.3691l-1.226,-0.2271l-6.4083,-4.5426l-5.461,5.1104l-1.2259,0.2271l-0.8916,-0.4826l-0.3065,-1.3344l0.6409,-6.3597z" fill="url(#color-23)" stroke-width="0.56256"/><path d="M183.4621,126.56191l-0.3743,-0.4741l0.3244,-0.9731l0.5739,-0.2496h5.9135l2.595,-5.8636l0.5739,-0.4741l0.5739,0.025l0.6986,0.524l2.7946,5.7139l5.9884,-0.0998l0.5988,0.3493l0.4741,0.5739l-0.4741,1.023l-3.4184,3.9673l0.9981,6.0133l0.0499,0.9482l-0.6238,0.3244l-1.0979,-0.1996l-5.7388,-3.9923l-4.8905,4.4913l-1.0979,0.1996l-0.7985,-0.4242l-0.2744,-1.1727l0.5739,-5.5891z" fill="#ffff99" stroke-width="0.49903"/></g><g stroke="none"><path d="M206.86571,126.0573l-0.4179,-0.5394l0.3622,-1.1073l0.6408,-0.2839h6.6034l2.8976,-6.672l0.6409,-0.5394l0.6408,0.0284l0.7801,0.5962l3.1206,6.5016l6.6869,-0.1135l0.6687,0.3975l0.5294,0.653l-0.5294,1.164l-3.8171,4.5142l1.1145,6.8424l0.0557,1.0788l-0.6965,0.3691l-1.226,-0.2271l-6.4083,-4.5426l-5.461,5.1104l-1.2259,0.2271l-0.8916,-0.4826l-0.3065,-1.3344l0.6409,-6.3597z" fill="url(#color-24)" stroke-width="0.56256"/><path d="M208.16211,126.46191l-0.3743,-0.4741l0.3244,-0.9731l0.5739,-0.2496h5.9135l2.595,-5.8636l0.5739,-0.4741l0.5739,0.025l0.6986,0.524l2.7946,5.7139l5.9884,-0.0998l0.5988,0.3493l0.4741,0.5739l-0.4741,1.023l-3.4184,3.9673l0.9981,6.0133l0.0499,0.9482l-0.6238,0.3244l-1.0979,-0.1996l-5.7388,-3.9923l-4.8905,4.4913l-1.0979,0.1996l-0.7985,-0.4242l-0.2744,-1.1727l0.5739,-5.5891z" fill="#ffff99" stroke-width="0.49903"/></g><g stroke="none"><path d="M195.1657,111.20731l-0.4179,-0.5394l0.3622,-1.1073l0.6408,-0.2839h6.6034l2.8976,-6.672l0.6409,-0.5394l0.6408,0.0284l0.7801,0.5962l3.1206,6.5016l6.6869,-0.1135l0.6687,0.3975l0.5294,0.653l-0.5294,1.164l-3.8171,4.5142l1.1145,6.8424l0.0557,1.0788l-0.6965,0.3691l-1.226,-0.2271l-6.4083,-4.5426l-5.461,5.1104l-1.2259,0.2271l-0.8916,-0.4826l-0.3065,-1.3344l0.6409,-6.3597z" fill="url(#color-25)" stroke-width="0.56256"/><path d="M196.4621,111.56191l-0.3743,-0.4741l0.3244,-0.9731l0.5739,-0.2496h5.9135l2.595,-5.8636l0.5739,-0.4741l0.5739,0.025l0.6986,0.524l2.7946,5.7139l5.9884,-0.0998l0.5988,0.3493l0.4741,0.5739l-0.4741,1.023l-3.4184,3.9673l0.9981,6.0133l0.0499,0.9482l-0.6238,0.3244l-1.0979,-0.1996l-5.7388,-3.9923l-4.8905,4.4913l-1.0979,0.1996l-0.7985,-0.4242l-0.2744,-1.1727l0.5739,-5.5891z" fill="#ffff99" stroke-width="0.49903"/></g></g><g stroke-linecap="round"><path d="M336.75001,112.45v132" fill="none" stroke="#000000" stroke-width="9"/><g stroke="none"><path d="M312.66571,113.20731l-0.4179,-0.5394l0.3622,-1.1073l0.6408,-0.2839h6.6034l2.8976,-6.672l0.6409,-0.5394l0.6408,0.0284l0.7801,0.5962l3.1206,6.5016l6.6869,-0.1135l0.6687,0.3975l0.5294,0.653l-0.5294,1.164l-3.8171,4.5142l1.1145,6.8424l0.0557,1.0788l-0.6965,0.3691l-1.226,-0.2271l-6.4083,-4.5426l-5.461,5.1104l-1.2259,0.2271l-0.8916,-0.4826l-0.3065,-1.3344l0.6409,-6.3597z" fill="url(#color-26)" stroke-width="0.56256"/><path d="M313.96211,113.56191l-0.3743,-0.4741l0.3244,-0.9731l0.5739,-0.2496h5.9135l2.595,-5.8636l0.5739,-0.4741l0.5739,0.025l0.6986,0.524l2.7946,5.7139l5.9884,-0.0998l0.5988,0.3493l0.4741,0.5739l-0.4741,1.023l-3.4184,3.9673l0.9981,6.0133l0.0499,0.9482l-0.6238,0.3244l-1.0979,-0.1996l-5.7388,-3.9923l-4.8905,4.4913l-1.0979,0.1996l-0.7985,-0.4242l-0.2744,-1.1727l0.5739,-5.5891z" fill="#ffff99" stroke-width="0.49903"/></g><g stroke="none"><path d="M337.36571,113.0573l-0.4179,-0.5394l0.3622,-1.1073l0.6408,-0.2839h6.6034l2.8976,-6.672l0.6409,-0.5394l0.6408,0.0284l0.7801,0.5962l3.1206,6.5016l6.6869,-0.1135l0.6687,0.3975l0.5294,0.653l-0.5294,1.164l-3.8171,4.5142l1.1145,6.8424l0.0557,1.0788l-0.6965,0.3691l-1.226,-0.2271l-6.4083,-4.5426l-5.461,5.1104l-1.2259,0.2271l-0.8916,-0.4826l-0.3065,-1.3344l0.6409,-6.3597z" fill="url(#color-27)" stroke-width="0.56256"/><path d="M338.66211,113.46191l-0.3743,-0.4741l0.3244,-0.9731l0.5739,-0.2496h5.9135l2.595,-5.8636l0.5739,-0.4741l0.5739,0.025l0.6986,0.524l2.7946,5.7139l5.9884,-0.0998l0.5988,0.3493l0.4741,0.5739l-0.4741,1.023l-3.4184,3.9673l0.9981,6.0133l0.0499,0.9482l-0.6238,0.3244l-1.0979,-0.1996l-5.7388,-3.9923l-4.8905,4.4913l-1.0979,0.1996l-0.7985,-0.4242l-0.2744,-1.1727l0.5739,-5.5891z" fill="#ffff99" stroke-width="0.49903"/></g><g stroke="none"><path d="M325.66571,98.20731l-0.4179,-0.5394l0.3622,-1.1073l0.6408,-0.2839h6.6034l2.8976,-6.672l0.6409,-0.5394l0.6408,0.0284l0.7801,0.5962l3.1206,6.5016l6.6869,-0.1135l0.6687,0.3975l0.5294,0.653l-0.5294,1.164l-3.8171,4.5142l1.1145,6.8424l0.0557,1.0788l-0.6965,0.3691l-1.226,-0.2271l-6.4083,-4.5426l-5.461,5.1104l-1.2259,0.2271l-0.8916,-0.4826l-0.3065,-1.3344l0.6409,-6.3597z" fill="url(#color-28)" stroke-width="0.56256"/><path d="M326.96211,98.56191l-0.3743,-0.4741l0.3244,-0.9731l0.5739,-0.2496h5.9135l2.595,-5.8636l0.5739,-0.4741l0.5739,0.025l0.6986,0.524l2.7946,5.7139l5.9884,-0.0998l0.5988,0.3493l0.4741,0.5739l-0.4741,1.023l-3.4184,3.9673l0.9981,6.0133l0.0499,0.9482l-0.6238,0.3244l-1.0979,-0.1996l-5.7388,-3.9923l-4.8905,4.4913l-1.0979,0.1996l-0.7985,-0.4242l-0.2744,-1.1727l0.5739,-5.5891z" fill="#ffff99" stroke-width="0.49903"/></g></g><g stroke-linecap="round"><path d="M464.00001,254.45v-132" fill="none" stroke="#000000" stroke-width="9"/><g stroke="none"><path d="M439.91571,123.20731l-0.4179,-0.5394l0.3622,-1.1073l0.6408,-0.2839h6.6034l2.8976,-6.672l0.6409,-0.5394l0.6408,0.0284l0.7801,0.5962l3.1206,6.5016l6.6869,-0.1135l0.6687,0.3975l0.5294,0.653l-0.5294,1.164l-3.8171,4.5142l1.1145,6.8424l0.0557,1.0788l-0.6965,0.3691l-1.226,-0.2271l-6.4083,-4.5426l-5.461,5.1104l-1.2259,0.2271l-0.8916,-0.4826l-0.3065,-1.3344l0.6409,-6.3597z" fill="url(#color-29)" stroke-width="0.56256"/><path d="M441.21211,123.56191l-0.3743,-0.4741l0.3244,-0.9731l0.5739,-0.2496h5.9135l2.595,-5.8636l0.5739,-0.4741l0.5739,0.025l0.6986,0.524l2.7946,5.7139l5.9884,-0.0998l0.5988,0.3493l0.4741,0.5739l-0.4741,1.023l-3.4184,3.9673l0.9981,6.0133l0.0499,0.9482l-0.6238,0.3244l-1.0979,-0.1996l-5.7388,-3.9923l-4.8905,4.4913l-1.0979,0.1996l-0.7985,-0.4242l-0.2744,-1.1727l0.5739,-5.5891z" fill="#ffff99" stroke-width="0.49903"/></g><g stroke="none"><path d="M464.61571,123.0573l-0.4179,-0.5394l0.3622,-1.1073l0.6408,-0.2839h6.6034l2.8976,-6.672l0.6409,-0.5394l0.6408,0.0284l0.7801,0.5962l3.1206,6.5016l6.6869,-0.1135l0.6687,0.3975l0.5294,0.653l-0.5294,1.164l-3.8171,4.5142l1.1145,6.8424l0.0557,1.0788l-0.6965,0.3691l-1.226,-0.2271l-6.4083,-4.5426l-5.461,5.1104l-1.2259,0.2271l-0.8916,-0.4826l-0.3065,-1.3344l0.6409,-6.3597z" fill="url(#color-30)" stroke-width="0.56256"/><path d="M465.91211,123.46191l-0.3743,-0.4741l0.3244,-0.9731l0.5739,-0.2496h5.9135l2.595,-5.8636l0.5739,-0.4741l0.5739,0.025l0.6986,0.524l2.7946,5.7139l5.9884,-0.0998l0.5988,0.3493l0.4741,0.5739l-0.4741,1.023l-3.4184,3.9673l0.9981,6.0133l0.0499,0.9482l-0.6238,0.3244l-1.0979,-0.1996l-5.7388,-3.9923l-4.8905,4.4913l-1.0979,0.1996l-0.7985,-0.4242l-0.2744,-1.1727l0.5739,-5.5891z" fill="#ffff99" stroke-width="0.49903"/></g><g stroke="none"><path d="M452.91571,108.20731l-0.4179,-0.5394l0.3622,-1.1073l0.6408,-0.2839h6.6034l2.8976,-6.672l0.6409,-0.5394l0.6408,0.0284l0.7801,0.5962l3.1206,6.5016l6.6869,-0.1135l0.6687,0.3975l0.5294,0.653l-0.5294,1.164l-3.8171,4.5142l1.1145,6.8424l0.0557,1.0788l-0.6965,0.3691l-1.226,-0.2271l-6.4083,-4.5426l-5.461,5.1104l-1.2259,0.2271l-0.8916,-0.4826l-0.3065,-1.3344l0.6409,-6.3597z" fill="url(#color-31)" stroke-width="0.56256"/><path d="M454.21211,108.56191l-0.3743,-0.4741l0.3244,-0.9731l0.5739,-0.2496h5.9135l2.595,-5.8636l0.5739,-0.4741l0.5739,0.025l0.6986,0.524l2.7946,5.7139l5.9884,-0.0998l0.5988,0.3493l0.4741,0.5739l-0.4741,1.023l-3.4184,3.9673l0.9981,6.0133l0.0499,0.9482l-0.6238,0.3244l-1.0979,-0.1996l-5.7388,-3.9923l-4.8905,4.4913l-1.0979,0.1996l-0.7985,-0.4242l-0.2744,-1.1727l0.5739,-5.5891z" fill="#ffff99" stroke-width="0.49903"/></g></g><path d="M486.00601,366.96999l-493.51352,1.49689c0,-20.15415 0,-40.3083 0,-60.46246h490.88069c0.19361,6.68646 2.63283,58.96557 2.63283,58.96557z" data-paper-data="{&quot;origPos&quot;:null,&quot;index&quot;:null}" fill="url(#color-32)" stroke="none" stroke-width="1.22826" stroke-linecap="butt"/></g></g></svg>