<svg version="1.1" xmlns="http://www.w3.org/2000/svg" xmlns:xlink="http://www.w3.org/1999/xlink" width="121.05473" height="278.50968" viewBox="0,0,121.05473,278.50968"><defs><linearGradient x1="38.95423" y1="188.84344" x2="159.96965" y2="188.84344" gradientUnits="userSpaceOnUse" id="color-1"><stop offset="0" stop-color="#ffcd42"/><stop offset="1" stop-color="#fff587"/></linearGradient><linearGradient x1="38.99354" y1="301.95586" x2="160.00896" y2="301.95586" gradientUnits="userSpaceOnUse" id="color-2"><stop offset="0" stop-color="#ffcd42"/><stop offset="1" stop-color="#fff587"/></linearGradient></defs><g transform="translate(-38.95423,-133.48532)"><g data-paper-data="{&quot;isPaintingLayer&quot;:true}" fill-rule="nonzero" stroke-linecap="butt" stroke-linejoin="miter" stroke-miterlimit="10" stroke-dasharray="" stroke-dashoffset="0" style="mix-blend-mode: normal"><path d="M99.46195,133.48532c16.6936,0 31.82053,6.20337 42.77389,16.22422c10.9537,10.02145 17.73382,23.86098 17.73382,39.1339c0,15.273 -6.78012,29.11253 -17.73382,39.13398c-10.95335,10.02085 -26.08028,16.22413 -42.77389,16.22413c-16.69369,0 -31.82062,-6.20328 -42.77389,-16.22413c-10.9537,-10.02145 -17.73382,-23.86098 -17.73382,-39.13398c0,-15.27292 6.78012,-29.11245 17.73382,-39.1339c10.95327,-10.02085 26.0802,-16.22422 42.77389,-16.22422z" data-paper-data="{&quot;origPos&quot;:null}" fill="url(#color-1)" stroke="none" stroke-width="0.55092"/><path d="M38.99354,191.91672h121.01542v220.07828h-121.01542z" data-paper-data="{&quot;origPos&quot;:null}" fill="url(#color-2)" stroke="none" stroke-width="1.16723"/><path d="M60.45018,252.77387c0,13.20448 -3.84258,23.90882 -8.58265,23.90882c-4.74007,0 -8.58265,-10.70435 -8.58265,-23.90882c0,-13.20448 3.84258,-23.90882 8.58265,-23.90882c4.74007,0 8.58265,10.70435 8.58265,23.90882z" data-paper-data="{&quot;origPos&quot;:null}" fill="#fff383" stroke="#000000" stroke-width="0"/><path d="M138.60079,204.83362c2.95343,0 5.34765,6.66962 5.34765,14.89703c0,8.2274 -2.39423,14.89703 -5.34765,14.89703c-2.95343,0 -5.34765,-6.66962 -5.34765,-14.89703c0,-8.2274 2.39423,-14.89703 5.34765,-14.89703z" fill="#fff6a6" stroke="#000000" stroke-width="0"/><path d="M115.79376,277.78617c3.69178,0 6.68457,6.66964 6.68457,14.89704c0,8.2274 -2.99279,14.89703 -6.68457,14.89703c-3.69178,0 -6.68456,-6.66963 -6.68456,-14.89703c0,-8.22741 2.99278,-14.89704 6.68456,-14.89704z" data-paper-data="{&quot;origPos&quot;:null}" fill="#fff59c" stroke="#000000" stroke-width="0"/><path d="M91.5458,139.60544c2.95343,0 5.34765,6.66963 5.34765,14.89704c0,8.22741 -2.39423,14.89703 -5.34765,14.89703c-2.95342,0 -5.34765,-6.66962 -5.34765,-14.89703c0,-8.22741 2.39423,-14.89704 5.34765,-14.89704z" data-paper-data="{&quot;origPos&quot;:null}" fill="#fff493" stroke="#000000" stroke-width="0"/><path d="M85.92841,181.37306c1.20078,3.55987 1.94336,7.72511 1.94336,13.15064c0,5.42552 -2.13081,-9.58761 -6.63011,-9.58761c-4.4993,0 -6.6301,15.01314 -6.6301,9.58761c0,-5.42552 0.74257,-9.84077 1.94336,-13.40064c1.19931,-3.55987 4.40065,-3.97566 4.40065,-3.97566c0,0 3.77353,0.66579 4.97284,4.22566z" data-paper-data="{&quot;origPos&quot;:null}" fill="#916f33" stroke="none" stroke-width="1"/><path d="M115.57228,176.86131c0,0 3.77353,0.66579 4.97284,4.22566c1.20078,3.55987 1.94336,7.72511 1.94336,13.15064c0,5.42552 -2.1308,-9.58762 -6.63011,-9.58762c-4.49931,0 -6.6301,15.01315 -6.6301,9.58762c0,-5.42552 0.74257,-9.59077 1.94336,-13.15064c1.19931,-3.55987 4.40065,-4.22566 4.40065,-4.22566z" data-paper-data="{&quot;origPos&quot;:null}" fill="#916f33" stroke="none" stroke-width="1"/><path d="M72.00004,366.5c0,12.4264 -3.35787,22.5 -7.5,22.5c-4.14213,0 -7.5,-10.0736 -7.5,-22.5c0,-12.4264 3.35787,-22.5 7.5,-22.5c4.14213,0 7.5,10.0736 7.5,22.5z" fill="#fff383" stroke="none" stroke-width="0"/><path d="M138,395.5c0,10.21727 -15,10.21727 -15,0c0,-10.21727 3.35787,-18.5 7.5,-18.5c4.14213,0 7.5,8.28273 7.5,18.5z" fill="#fff6a6" stroke="none" stroke-width="0"/></g></g></svg>