<svg version="1.1" xmlns="http://www.w3.org/2000/svg" xmlns:xlink="http://www.w3.org/1999/xlink" width="106" height="137" viewBox="0,0,106,137"><defs><linearGradient x1="220.20042" y1="173.67841" x2="220.20042" y2="188.7724" gradientUnits="userSpaceOnUse" id="color-1"><stop offset="0" stop-color="#af00ff"/><stop offset="1" stop-color="#4100ff"/></linearGradient><linearGradient x1="216.05728" y1="167.96002" x2="216.05728" y2="190.04786" gradientUnits="userSpaceOnUse" id="color-2"><stop offset="0" stop-color="#343434"/><stop offset="1" stop-color="#090909"/></linearGradient><linearGradient x1="238.41987" y1="169.84304" x2="238.41987" y2="191.288" gradientUnits="userSpaceOnUse" id="color-3"><stop offset="0" stop-color="#af00ff"/><stop offset="1" stop-color="#4100ff"/></linearGradient><linearGradient x1="238.41989" y1="169.84306" x2="238.41989" y2="191.288" gradientUnits="userSpaceOnUse" id="color-4"><stop offset="0" stop-color="#343434"/><stop offset="1" stop-color="#090909"/></linearGradient></defs><g transform="translate(-187,-111.5)"><g data-paper-data="{&quot;isPaintingLayer&quot;:true}" fill-rule="nonzero" stroke-linecap="butt" stroke-linejoin="miter" stroke-miterlimit="10" stroke-dasharray="" stroke-dashoffset="0" style="mix-blend-mode: normal"><path d="M187,248.5v-137h106v137z" fill="none" stroke="none" stroke-width="0"/><path d="M222.63788,184.06868l-0.07503,4.70372l-5.23371,-0.5181l0.37511,-4.61643l-4.9175,-0.24598l0.59984,-4.85114l4.34588,0.20928l0.11625,-5.07162l5.46504,0.38354l-0.31794,5.14862l4.61826,0.36274l-0.07706,4.57461z" fill="url(#color-1)" stroke="url(#color-2)" stroke-width="1"/><path d="M231.55769,169.84306c7.52365,0.08962 12.0088,0.16101 13.43803,0.21499l0.0722,0.14278c-0.34036,3.46674 -0.51878,5.27197 -0.57183,5.43216l-0.1436,0.0722l-7.07639,-0.85821c-0.19664,1.14366 -0.33943,1.87662 -0.42905,2.21605c0.16101,0 0.26804,0.01741 0.35777,0.07139c2.25169,-0.66156 3.46675,-1.00099 3.64516,-1.00099c3.59211,2.59124 5.59317,4.05692 6.00492,4.4321c-0.67979,5.20069 -1.05497,7.79181 -1.14378,7.79181c-4.87856,1.94801 -7.34523,2.93066 -7.43404,2.93066c-5.379,-2.09068 -8.14957,-3.21704 -8.29225,-3.35983c0.59006,-1.14366 1.44745,-2.93055 2.5737,-5.36078h0.07139c0.10703,0 2.0367,1.01841 5.78994,3.07345h0.07127l2.14478,-2.14466c-0.10715,-0.19676 -0.82258,-0.96443 -2.14478,-2.28744h-0.07127c-1.85827,1.2334 -2.84186,1.85828 -2.93067,1.85828c-3.23434,-2.46586 -4.87856,-3.75231 -4.93254,-3.85934c0.48221,-5.5941 0.78681,-8.70307 0.9296,-9.36464z" fill="url(#color-3)" stroke="url(#color-4)" stroke-width="1"/></g></g></svg>