<svg version="1.1" xmlns="http://www.w3.org/2000/svg" xmlns:xlink="http://www.w3.org/1999/xlink" width="532.31326" height="538.01056" viewBox="0,0,532.31326,538.01056"><defs><linearGradient x1="182.1281" y1="295.33966" x2="191.31927" y2="295.33966" gradientUnits="userSpaceOnUse" id="color-1"><stop offset="0" stop-color="#a3822e"/><stop offset="1" stop-color="#e4b234"/></linearGradient><linearGradient x1="124.95433" y1="222.04777" x2="248.49311" y2="222.04777" gradientUnits="userSpaceOnUse" id="color-2"><stop offset="0" stop-color="#a3822e"/><stop offset="1" stop-color="#e4b234"/></linearGradient></defs><g transform="translate(-124.95433,168.42697)"><g data-paper-data="{&quot;isPaintingLayer&quot;:true}" fill-rule="nonzero" stroke-linejoin="miter" stroke-miterlimit="10" stroke-dasharray="" stroke-dashoffset="0" style="mix-blend-mode: normal"><path d="M182.1281,221.09576h9.19117v148.48783h-9.19117z" fill="url(#color-1)" stroke="none" stroke-width="1.54554" stroke-linecap="butt"/><path d="M124.95433,218.0546h123.53871v7.98634h-123.53871z" fill="url(#color-2)" stroke="none" stroke-width="1.54554" stroke-linecap="butt"/><path d="M647.28685,273.41859l-0.61273,88.36561l-289.17907,-3.56169v-85.94493z" data-paper-data="{&quot;origPos&quot;:null,&quot;index&quot;:null}" fill="#cfbf74" stroke="#8d763a" stroke-width="2" stroke-linecap="butt"/><path d="M645.74289,300.74847c-20.33397,6.52085 -42.32602,16.39523 -71.35709,17.53296c-42.31314,1.65826 -45.49067,-22.43186 -79.49934,-21.49347c-34.00867,0.93838 -31.97745,22.8559 -70.19392,22.15938c-28.74259,-0.52384 -51.55291,-0.28146 -65.01867,-13.28432" data-paper-data="{&quot;origPos&quot;:null,&quot;origRot&quot;:0,&quot;index&quot;:null}" fill="none" stroke="#bba15f" stroke-width="9" stroke-linecap="round"/><path d="M645.51188,332.33582c-20.26958,6.52129 -42.20492,16.32534 -71.12608,17.45876c-42.31314,1.65826 -45.49067,-22.43186 -79.49934,-21.49347c-34.00867,0.93838 -33.79533,22.8559 -72.0118,22.15938c-28.74259,-0.52384 -51.55291,-0.28146 -65.01867,-13.28432" data-paper-data="{&quot;origPos&quot;:null,&quot;origRot&quot;:0,&quot;index&quot;:null}" fill="none" stroke="#b49851" stroke-width="9" stroke-linecap="round"/><path d="M651.28685,-166.28201l-0.61273,251.0662l-289.17907,-3.56169v-248.64552z" data-paper-data="{&quot;origPos&quot;:null,&quot;index&quot;:null}" fill="#cfbf74" stroke="#8d763a" stroke-width="2" stroke-linecap="butt"/><path d="M649.74289,23.74846c-20.33397,6.52085 -42.32602,16.39523 -71.35709,17.53296c-42.31314,1.65827 -45.49067,-22.43184 -79.49934,-21.49346c-34.00867,0.93838 -32.88639,19.22014 -71.10286,18.52362c-28.74259,-0.52384 -51.55291,-0.28145 -65.01867,-13.28431" data-paper-data="{&quot;origPos&quot;:null,&quot;origRot&quot;:0,&quot;index&quot;:null}" fill="none" stroke="#bba15f" stroke-width="9" stroke-linecap="round"/><path d="M649.51188,55.33581c-20.26958,6.52128 -42.20492,16.32534 -71.12608,17.45876c-42.31314,1.65826 -45.49067,-22.43185 -79.49934,-21.49347c-34.00867,0.93838 -32.88639,19.22014 -71.10286,18.52361c-28.74259,-0.52384 -51.55291,-0.28146 -65.01867,-13.28432" data-paper-data="{&quot;origPos&quot;:null,&quot;origRot&quot;:0,&quot;index&quot;:null}" fill="none" stroke="#b49851" stroke-width="9" stroke-linecap="round"/><path d="M591.87547,253.66275c15.88934,-0.14273 31.79423,-0.94632 47.70551,-1.47239c0.1929,0.15296 8.01847,2.50119 9.0094,2.75951c1.74075,0.45378 6.46018,8.76666 6.46018,8.76666l1.17908,18.5104c0,0 -39.52049,22.19049 -61.2889,22.58927c-29.04237,0.52794 -53.58084,-26.12589 -82.76217,-27.98962c-30.88766,-0.97867 -59.78392,20.19306 -90.58984,19.78673c-24.92265,-0.33298 -49.51937,-9.6931 -71.86924,-19.78673c-0.30121,-0.13651 -0.64355,-0.2904 -1.02175,-0.46013c0,-4.23606 0.10066,-9.48667 3.40621,-15.43499c3.30554,-5.94832 7.84473,-2.29845 7.84473,-4.8111c80.78866,-5.76699 151.08588,-1.39223 231.92682,-2.4576z" data-paper-data="{&quot;index&quot;:null}" fill="#8fe3a6" stroke="#65a96e" stroke-width="2" stroke-linecap="butt"/><path d="M651.10712,-44.87583c-20.33397,6.52085 -42.32602,16.39523 -71.35709,17.53296c-42.31314,1.65827 -45.49067,-22.43184 -79.49934,-21.49346c-34.00867,0.93838 -32.88639,19.22014 -71.10286,18.52362c-28.74259,-0.52384 -51.55291,-0.28145 -65.01867,-13.28431" data-paper-data="{&quot;origRot&quot;:0,&quot;index&quot;:null}" fill="none" stroke="#bba15f" stroke-width="9" stroke-linecap="round"/><path d="M650.87611,-13.28848c-20.26958,6.52128 -42.20492,16.32534 -71.12608,17.45876c-42.31314,1.65826 -45.49067,-22.43185 -79.49934,-21.49347c-34.00867,0.93838 -32.88639,19.22014 -71.10286,18.52361c-28.74259,-0.52384 -51.55291,-0.28146 -65.01867,-13.28432" data-paper-data="{&quot;origRot&quot;:0,&quot;index&quot;:null}" fill="none" stroke="#b49851" stroke-width="9" stroke-linecap="round"/><path d="M652.24034,-84.63959c-20.26958,6.52128 -42.20492,16.32534 -71.12608,17.45876c-42.31314,1.65826 -45.49067,-22.43185 -79.49934,-21.49347c-34.00867,0.93838 -32.88639,19.22014 -71.10286,18.52361c-28.74259,-0.52384 -51.55291,-0.28146 -65.01867,-13.28432" data-paper-data="{&quot;origRot&quot;:0,&quot;index&quot;:null}" fill="none" stroke="#b49851" stroke-width="9" stroke-linecap="round"/></g></g></svg>