<svg version="1.1" xmlns="http://www.w3.org/2000/svg" xmlns:xlink="http://www.w3.org/1999/xlink" width="137.03747" height="92.11599" viewBox="0,0,137.03747,92.11599"><defs><linearGradient x1="244.85709" y1="135.4026" x2="240.00761" y2="187.93842" gradientUnits="userSpaceOnUse" id="color-1"><stop offset="0" stop-color="#ff0000"/><stop offset="1" stop-color="#990000"/></linearGradient><linearGradient x1="240.00761" y1="135.4026" x2="240.00761" y2="193.19459" gradientUnits="userSpaceOnUse" id="color-2"><stop offset="0" stop-color="#ff0000"/><stop offset="1" stop-color="#990000"/></linearGradient><radialGradient cx="272.6352" cy="159.86349" r="42.50138" gradientUnits="userSpaceOnUse" id="color-3"><stop offset="0" stop-color="#ff9400"/><stop offset="1" stop-color="#ff9400" stop-opacity="0"/></radialGradient><linearGradient x1="239.47771" y1="134.49882" x2="239.47771" y2="193.6699" gradientUnits="userSpaceOnUse" id="color-4"><stop offset="0" stop-color="#000000" stop-opacity="0"/><stop offset="1" stop-color="#000000" stop-opacity="0"/></linearGradient><linearGradient x1="201.79263" y1="153.83812" x2="206.41496" y2="167.27397" gradientUnits="userSpaceOnUse" id="color-5"><stop offset="0" stop-color="#ffc26d"/><stop offset="1" stop-color="#ff9400"/></linearGradient><linearGradient x1="216.51372" y1="195.53248" x2="220.82793" y2="208.07272" gradientUnits="userSpaceOnUse" id="color-6"><stop offset="0" stop-color="#ff9400"/><stop offset="1" stop-color="#f06a22"/></linearGradient></defs><g transform="translate(-173.41894,-133.38519)"><g data-paper-data="{&quot;isPaintingLayer&quot;:true}" fill="none" fill-rule="nonzero" stroke="none" stroke-width="none" stroke-linecap="none" stroke-linejoin="miter" stroke-miterlimit="10" stroke-dasharray="" stroke-dashoffset="0" font-family="none" font-weight="none" font-size="none" text-anchor="none" style="mix-blend-mode: normal"><g data-paper-data="{&quot;origPos&quot;:null}" id="ID0.020601993426680565" stroke-linecap="butt"><path d="M244.85709,135.4026l56.94199,5.2563l-4.84948,52.53568l-56.94199,-5.25617z" id="ID0.3635424133390188" fill="url(#color-1)" stroke="url(#color-2)" stroke-width="2"/><path d="M244.44292,134.49882l58.30079,5.38157l-4.96507,53.78951l-58.30092,-5.3817z" id="ID0.3635424133390188" fill="url(#color-3)" stroke="url(#color-4)" stroke-width="2.04772"/></g><path d="M185.96592,172.48873l11.35634,-3.15291l38.08004,20.82945l-7.53224,2.21431z" data-paper-data="{&quot;origPos&quot;:null,&quot;origRot&quot;:0}" id="ID0.72494453843683" fill="#ffffff" stroke="#e5e5e5" stroke-width="2" stroke-linecap="round"/><path d="M205.40014,200.48688l-7.30029,2.88852l17.20484,-39.84907l10.89245,-4.50133z" data-paper-data="{&quot;origPos&quot;:null,&quot;origRot&quot;:0}" id="ID0.72494453843683" fill="#ffffff" stroke="#e5e5e5" stroke-width="2" stroke-linecap="round"/><path d="M174.4873,163.23196l54.61067,-18.78768l4.62233,13.43584l-54.61067,18.78768z" data-paper-data="{&quot;origPos&quot;:null,&quot;origRot&quot;:0}" id="ID0.6252888571470976" fill="url(#color-5)" stroke="#cc7700" stroke-width="1.68123" stroke-linecap="butt"/><path d="M189.20839,204.92632l54.61067,-18.78768l4.31421,12.54023l-54.61067,18.78768z" data-paper-data="{&quot;origPos&quot;:null,&quot;origRot&quot;:0}" id="ID0.6252888571470976" fill="url(#color-6)" stroke="#cc7700" stroke-width="1.64924" stroke-linecap="butt"/><text transform="translate(193.83312,212.27153) scale(1.40775,1.40775)" font-size="22" xml:space="preserve" data-paper-data="{&quot;origPos&quot;:null}" id="ID0.40125236939638853" fill-opacity="0" fill="#000000" fill-rule="nonzero" stroke="#ffffff" stroke-width="5" stroke-linecap="butt" stroke-linejoin="miter" stroke-miterlimit="10" stroke-dasharray="" stroke-dashoffset="0" font-family="Sans Serif" font-weight="400" text-anchor="start" style="mix-blend-mode: normal"><tspan x="0" dy="0">Objects</tspan></text><path d="M233.91423,225.50118c-0.03453,0 -0.05554,0 -0.05554,0c0,0 0.02102,0 0.05554,0c0.03303,0 0.08106,0 0.1321,0c0.05104,0 0.09908,0 0.1321,0c0.03453,0 0.05554,0 0.05554,0c0,0 -0.02102,0 -0.05554,0c-0.03303,0 -0.08106,0 -0.1321,0c-0.05104,0 -0.09907,0 -0.1321,0z" data-paper-data="{&quot;origPos&quot;:null}" id="ID0.80696503771469" fill="#b2b2b2" stroke="none" stroke-width="1" stroke-linecap="butt"/><path d="M228.43527,224.57838c0.034,0 0.066,0 0.088,0c0.023,0 0.037,0 0.037,0c0,0 -0.014,0 -0.037,0c-0.022,0 -0.054,0 -0.088,0c-0.034,0 -0.066,0 -0.088,0c-0.023,0 -0.037,0 -0.037,0c0,0 0.014,0 0.037,0c0.022,0 0.054,0 0.088,0z" data-paper-data="{&quot;origPos&quot;:null}" id="ID0.80696503771469" fill="#b2b2b2" stroke="none" stroke-width="1" stroke-linecap="butt"/><text transform="translate(193.83312,212.27153) scale(1.40775,1.40775)" font-size="22" xml:space="preserve" data-paper-data="{&quot;origPos&quot;:null}" id="ID0.40125236939638853" fill="#000000" fill-rule="nonzero" stroke="none" stroke-width="1" stroke-linecap="butt" stroke-linejoin="miter" stroke-miterlimit="10" stroke-dasharray="" stroke-dashoffset="0" font-family="Sans Serif" font-weight="400" text-anchor="start" style="mix-blend-mode: normal"><tspan x="0" dy="0">Objects</tspan></text></g></g></svg>