<svg version="1.1" xmlns="http://www.w3.org/2000/svg" xmlns:xlink="http://www.w3.org/1999/xlink" width="174.77767" height="185.22218" viewBox="0,0,174.77767,185.22218"><g transform="translate(-163.56116,-95.91002)"><g data-paper-data="{&quot;isPaintingLayer&quot;:true}" fill-rule="nonzero" stroke-linejoin="miter" stroke-miterlimit="10" stroke-dasharray="" stroke-dashoffset="0" style="mix-blend-mode: normal"><g data-paper-data="{&quot;origPos&quot;:null,&quot;index&quot;:null,&quot;origRot&quot;:0}" stroke="none" stroke-width="0" stroke-linecap="butt"><path d="M249.01032,210.51154c-3.98642,-3.51647 -1.51899,-13.81221 4.92026,-21.11203c6.43925,-7.29981 13.65034,-13.27715 13.65034,-13.27715l12.08401,10.41537c0,0 -8.67251,12.64749 -13.85165,18.51881c-6.43924,7.2998 -12.81654,8.97147 -16.80297,5.45502z" data-paper-data="{&quot;origRot&quot;:0,&quot;origPos&quot;:null}" fill="#64ca00"/><g data-paper-data="{&quot;origPos&quot;:null}" fill="#ffffff"><path d="M277.5392,178.09733c-7.31818,-5.88172 -16.04627,-13.565 -9.40622,-20.90358c4.81711,-5.32386 18.82828,-6.92938 24.65324,0.43406c6.35636,8.03519 13.31005,14.1815 5.1105,21.68409c-7.6562,7.00541 -13.03934,4.66716 -20.35752,-1.21457z" data-paper-data="{&quot;origRot&quot;:0,&quot;origPos&quot;:null}"/><path d="M271.64427,183.39185c-5.64408,-4.54846 -12.97079,-8.63716 -9.13606,-12.68872c4.28989,-4.53246 5.52564,-3.05948 14.56526,4.60126c10.2978,8.72702 13.46051,8.18607 9.00026,13.38266c-2.60447,3.03446 -8.78537,-0.74675 -14.42947,-5.29521z" data-paper-data="{&quot;origRot&quot;:0,&quot;origPos&quot;:null}"/></g></g><g data-paper-data="{&quot;origPos&quot;:null,&quot;origRot&quot;:0}" stroke="none" stroke-width="0" stroke-linecap="butt"><path d="M289.90922,235.04288c3.4063,3.04558 8.31669,0.65505 8.92889,1.49268c2.47694,3.38909 3.15411,6.8477 -0.31974,13.09264c-4.30313,7.73574 -9.42902,12.07144 -17.99342,14.30968c-5.8331,1.52444 -4.47156,-3.57418 -7.10757,-8.99641c-0.94587,-1.94565 -2.46711,-4.20565 -5.94603,-8.38318c-4.34957,-5.22301 -10.50442,-16.50857 -10.50442,-16.50857c0,0 3.19203,-4.3479 6.85343,-8.12962c3.66082,-3.70201 8.83203,-5.86156 8.83203,-5.86156c0,0 9.38277,11.94412 17.25682,18.98433z" data-paper-data="{&quot;origPos&quot;:null}" fill="#2a2a84"/><path d="M310.68354,245.64876c2.75972,2.75359 1.25797,6.85919 -0.66483,10.25052c-1.26011,2.22248 -9.94608,10.43278 -16.59156,12.17688c-2.06313,0.54146 -4.85129,-0.12897 -4.85129,-0.12897c0,0 -3.01989,4.10193 -4.04089,3.06277c-0.81049,-0.8249 -2.22499,-2.19516 -1.85838,-3.41224c1.57808,-5.23894 9.65194,-13.32205 13.51654,-17.19524c5.30523,-5.31703 11.7928,-7.44534 14.49042,-4.75371z" data-paper-data="{&quot;origPos&quot;:null}" fill="#f9c869"/><path d="M308.54795,240.85581c2.26508,4.19046 1.34821,9.72732 -4.64943,15.7383c-5.99764,6.01098 -15.89996,8.96256 -15.89996,8.96256c0,0 -4.11295,4.5803 -5.3173,3.55432c-2.49268,-2.12351 -6.30472,-5.84404 -5.55529,-6.8417c2.76666,-3.68306 2.59548,-2.63717 5.90566,-7.76023c2.14318,-3.31693 4.09513,-10.48348 6.88446,-13.27901c5.99764,-6.01098 14.90238,-7.27391 18.63186,-0.37425z" data-paper-data="{&quot;origPos&quot;:null}" fill="#8e4108"/></g><g data-paper-data="{&quot;origPos&quot;:null,&quot;origRot&quot;:0}" stroke="none" stroke-width="0" stroke-linecap="butt"><path d="M262.8146,251.77614c0.36266,4.55487 5.5658,6.21436 5.43062,7.24302c-0.54693,4.16197 -2.44414,7.13201 -9.26821,9.25308c-8.45312,2.62743 -15.15479,2.22671 -22.89685,-2.06504c-5.27301,-2.92307 -0.76861,-5.67264 1.06653,-11.41558c0.6585,-2.06072 1.11764,-4.74604 1.48373,-10.17012c0.45771,-6.78152 4.53724,-19.46439 4.53724,-19.46439c0,0 7.57861,-0.24874 12.613,0.54788c3.97307,0.62868 10.4675,3.1043 10.4675,3.1043c0,0 -4.27189,12.43772 -3.43357,22.96685z" data-paper-data="{&quot;origPos&quot;:null}" fill="#2a2a84"/><path d="M270.52639,273.78944c0.09632,3.89731 -3.82412,5.83156 -7.55622,6.95835c-2.44582,0.73843 -14.3979,0.6841 -20.41036,-2.64074c-1.8666,-1.03222 -3.42136,-3.4418 -3.42136,-3.4418c0,0 -5.01644,0.88374 -5.03797,-0.57292c-0.0171,-1.15631 -0.09484,-3.12414 1.0105,-3.75178c4.75793,-2.70166 16.17929,-2.97777 21.64907,-3.11296c7.50878,-0.18559 13.67218,2.75225 13.76634,6.56186z" data-paper-data="{&quot;origPos&quot;:null}" fill="#f9c869"/><path d="M272.28929,268.84724c-1.25335,4.5956 -5.73846,7.96922 -14.22725,8.17903c-8.48879,0.20981 -17.69133,-4.48925 -17.69133,-4.48925c0,0 -6.13754,0.47543 -6.30085,-1.09824c-0.338,-3.25707 -0.52837,-8.58039 0.70252,-8.78502c4.54408,-0.75543 3.69832,-0.11678 9.6296,-1.53904c3.84022,-0.92084 10.19917,-4.75925 14.14705,-4.85683c8.48879,-0.20981 15.80393,5.0226 13.74026,12.58935z" data-paper-data="{&quot;origPos&quot;:null}" fill="#8e4108"/></g><g data-paper-data="{&quot;origPos&quot;:null,&quot;origRot&quot;:0}"><path d="M266.83493,200.36178c12.33056,19.85275 5.84688,31.51308 -5.30059,38.21702c-11.14747,6.70394 -26.04047,2.73306 -31.82046,-6.87805c-6.27032,-10.42645 -10.29405,-19.30841 -8.04411,-29.69779c1.67627,-7.7404 9.76794,-9.45903 15.79628,-13.08439c11.14747,-6.70394 17.28218,-8.01691 29.36888,11.44322z" data-paper-data="{&quot;origPos&quot;:null}" fill="#2a2a84" stroke="none" stroke-width="0" stroke-linecap="butt"/><path d="M266.49366,199.79432c0,0 -11.51896,9.50303 -20.21374,15.24709c-7.97521,5.26867 -18.37487,6.67172 -18.37487,6.67172c0,0 -8.57076,-12.61228 -5.77135,-21.20429c1.83158,-5.62149 5.48268,-9.29745 10.91031,-12.79444c5.42763,-3.49699 12.76129,-4.91961 17.29326,-3.68749c10.70503,2.91042 16.1564,15.7674 16.1564,15.7674z" data-paper-data="{&quot;origPos&quot;:null}" fill="#64ca00" stroke="none" stroke-width="0" stroke-linecap="butt"/><path d="M244.29092,185.96206c0,0 5.46155,5.52471 8.1178,9.22405c3.41176,4.75153 8.22461,14.63993 8.22461,14.63993" data-paper-data="{&quot;origPos&quot;:null,&quot;origRot&quot;:0}" fill="none" stroke="#2a2a84" stroke-width="10" stroke-linecap="round"/><path d="M228.79408,195.93675c0,0 4.9252,6.12926 7.20144,10.08461c2.92368,5.08033 6.67309,15.31292 6.67309,15.31292" data-paper-data="{&quot;origPos&quot;:null}" fill="none" stroke="#2a2a84" stroke-width="10" stroke-linecap="round"/><path d="M239.09241,221.03806c-1.28793,-2.1416 -0.70484,-4.85628 1.30241,-6.06341c2.00723,-1.20711 4.67851,-0.44957 5.96643,1.69203c1.28793,2.1416 0.70482,4.85628 -1.30242,6.06341c-2.00723,1.20711 -4.67849,0.44958 -5.96642,-1.69203z" data-paper-data="{&quot;origPos&quot;:null}" fill="#ffe84f" stroke="none" stroke-width="0" stroke-linecap="butt"/><path d="M256.5448,210.54244c-1.28793,-2.1416 -0.7608,-4.82262 1.17739,-5.98822c1.93818,-1.16559 4.55348,-0.37438 5.8414,1.76722c1.28792,2.1416 0.76078,4.82262 -1.17739,5.98821c-1.93818,1.16559 -4.55347,0.37439 -5.8414,-1.76721z" data-paper-data="{&quot;origPos&quot;:null}" fill="#ffe84f" stroke="none" stroke-width="0" stroke-linecap="butt"/></g><g data-paper-data="{&quot;origPos&quot;:null,&quot;origRot&quot;:0}" stroke="none" stroke-width="0" stroke-linecap="butt"><path d="M217.5361,215.8331c-7.82543,0.24207 -23.09749,-1.14918 -23.09749,-1.14918l-0.3103,-15.95014c0,0 9.20349,-1.7391 18.93285,-2.04006c9.72937,-0.30097 19.23161,4.3679 19.39596,9.68109c0.16436,5.3132 -5.19168,9.15732 -14.92104,9.45829z" data-paper-data="{&quot;origRot&quot;:0,&quot;origPos&quot;:null}" fill="#64ca00"/><g data-paper-data="{&quot;origPos&quot;:null}" fill="#ffffff"><path d="M177.2424,224.11262c-11.00861,1.52708 -11.30486,-7.74886 -13.43668,-17.76999c-1.95361,-9.18334 8.22202,-18.94793 15.39492,-19.26051c9.88733,-0.43087 10.23497,11.19202 10.09492,20.57981c-0.14005,9.3878 -1.77406,15.0248 -12.05316,16.45068z" data-paper-data="{&quot;origRot&quot;:0,&quot;origPos&quot;:null}"/><path d="M192.00474,220.99014c-6.84722,0.11899 -4.41281,-1.97124 -4.56267,-15.46875c-0.13154,-11.84839 -0.47733,-13.73974 5.74978,-14.15127c5.56641,-0.36787 4.04026,7.88252 3.94167,15.13058c-0.09859,7.24806 -1.13049,14.41997 -5.12878,14.48944z" data-paper-data="{&quot;origRot&quot;:0,&quot;origPos&quot;:null}"/></g></g><g data-paper-data="{&quot;origPos&quot;:null,&quot;origRot&quot;:0}"><path d="M265.72674,124.78659c0.59148,3.78969 -8.77701,11.75992 -17.27996,14.4223c-6.85168,2.14535 -7.17172,-4.83274 -8.2609,-8.3113c-1.08918,-3.47855 12.57587,-6.92411 19.42755,-9.06946c6.85168,-2.14535 5.73044,0.50543 6.11331,2.95846z" data-paper-data="{&quot;origPos&quot;:null}" fill="#346a00" stroke="none" stroke-width="0" stroke-linecap="butt"/><path d="M210.47183,188.1251c0,0 -0.92163,1.85323 -2.95786,0.66223c-2.03624,-1.191 -4.33947,-4.69836 -2.72255,-7.22406c1.93401,-3.02098 -1.06299,-10.20664 0.97325,-9.01564c0,0 6.208,-0.57814 7.76002,2.80385c0,0 5.63934,9.4042 5.14314,11.34619c0,0 -0.92955,2.05791 -4.75021,2.96078c-2.07009,0.4892 -3.4458,-1.53336 -3.4458,-1.53336z" data-paper-data="{&quot;origRot&quot;:0,&quot;origPos&quot;:null}" fill="#5a2c0a" stroke="none" stroke-width="0" stroke-linecap="butt"/><path d="M201.11809,147.40906c4.4178,-0.32796 34.89361,-13.19768 40.51892,-14.62161c8.32256,-2.10667 8.37299,5.98514 11.50934,13.9768c3.60612,9.18868 4.80689,20.75315 7.55646,27.03491c2.94912,6.73764 3.45211,10.59328 -1.09263,15.69724c-15.04589,5.71484 -13.42614,1.4162 -21.1982,1.30838c-6.65721,-0.32935 -11.44609,-0.77968 -19.55227,-4.18794c-6.15337,-2.58719 -6.07261,-6.35319 -10.53914,-9.99178c-1.36916,-1.11536 -2.70544,-1.52062 -2.89109,-1.46249c-9.89663,3.09876 -17.89691,-3.37284 -20.31731,-11.10294c-2.4204,-7.73011 -0.8506,-15.10248 4.68346,-16.83526c5.53405,-1.73279 9.78637,0.29875 11.32248,0.18471z" data-paper-data="{&quot;origPos&quot;:null}" fill="#ffdebd" stroke="none" stroke-width="0" stroke-linecap="butt"/><path d="M248.6558,137.98003c1.79708,4.56021 0.96293,9.15981 -1.86311,10.27348c-2.82604,1.11369 -6.57382,-1.68027 -8.3709,-6.24048c-1.79708,-4.56021 -0.96293,-9.1598 1.86311,-10.27348c2.82604,-1.11369 6.57382,1.68027 8.3709,6.24047z" data-paper-data="{&quot;origPos&quot;:null,&quot;origRot&quot;:0}" fill="#ffffff" stroke="none" stroke-width="0" stroke-linecap="butt"/><path d="M211.33789,152.8034c1.81832,4.54164 6.8464,6.5691 4.94844,8.35852c-0.96687,0.91159 -5.4726,1.86629 -7.72399,0.68568c-2.2514,-1.18061 -3.61674,-3.10853 -4.93696,-7.32496c-1.32022,-4.21642 -2.61503,-8.29583 -0.01197,-9.21755c10.9597,-3.88072 6.08229,3.39656 7.72449,7.4983z" data-paper-data="{&quot;origPos&quot;:null}" fill="#5a2c0a" stroke="none" stroke-width="0" stroke-linecap="butt"/><path d="M237.72303,146.64754c1.9995,4.47515 1.3722,9.10749 -1.40113,10.34662c-2.77333,1.23914 -6.64249,-1.38417 -8.64199,-5.85933c-1.9995,-4.47515 -1.37219,-9.10749 1.40113,-10.34661c2.77333,-1.23914 6.64249,1.38417 8.64199,5.85932z" data-paper-data="{&quot;origPos&quot;:null,&quot;origRot&quot;:0}" fill="#ffffff" stroke="none" stroke-width="0" stroke-linecap="butt"/><path d="M233.9675,144.00045c0.9085,-0.28447 1.93879,0.12121 2.8705,1.00519c0.93076,0.88429 1.76323,2.24783 2.27448,3.88066c0.51126,1.63283 0.6051,3.22765 0.34486,4.48485c-0.26119,1.2575 -0.87613,2.17831 -1.78463,2.46278c-0.9085,0.28447 -1.93879,-0.12121 -2.87051,-1.00519c-0.93076,-0.88429 -1.76323,-2.24783 -2.27448,-3.88066c-0.51126,-1.63283 -0.6051,-3.22765 -0.34486,-4.48485c0.26119,-1.2575 0.87613,-2.17831 1.78464,-2.46278z" data-paper-data="{&quot;origPos&quot;:null}" fill="#000000" stroke="none" stroke-width="1" stroke-linecap="butt"/><path d="M245.01399,135.77382c0.9085,-0.28447 1.93879,0.12121 2.87051,1.00519c0.93076,0.88429 1.60734,2.53975 2.27449,3.88066c0.24026,0.48958 0.61767,1.19294 0.3947,1.76259c-0.28852,0.69496 -0.96759,1.1968 -1.57994,1.64736c-1.12092,0.62342 -2.31259,1.81075 -3.55459,1.53214c-1.09518,-0.26486 -1.48818,-1.77438 -1.84494,-2.88031c-0.46091,-1.42854 -0.6051,-3.22765 -0.34487,-4.48485c0.26119,-1.2575 0.87613,-2.17831 1.78463,-2.46278z" data-paper-data="{&quot;origPos&quot;:null}" fill="#000000" stroke="none" stroke-width="1" stroke-linecap="round"/><path d="M244.18977,103.21094c6.75257,13.54575 4.24984,15.21994 -1.98323,22.18501c-9.0821,10.14868 -24.10859,13.37483 -34.41701,22.27519c-2.70672,2.33699 -11.72004,1.54024 -15.13268,2.60878c-6.97983,2.18547 -12.48014,-1.5698 -14.629,-7.4212c-4.73988,-12.90686 1.69772,-14.97837 8.67755,-17.16385c0,0 8.08017,-1.13199 12.00953,2.11253c0,0 5.24206,-20.73256 15.8341,-26.40763c13.63493,-7.3054 24.7915,-7.91646 29.64074,1.81117z" data-paper-data="{&quot;origPos&quot;:null}" fill="#64ca00" stroke="none" stroke-width="0" stroke-linecap="butt"/><path d="M243.97547,112.21153c1.63377,5.21782 1.4666,9.58064 -8.68442,13.09316c-10.71622,3.7081 -12.96705,-0.58442 -14.60082,-5.80224c-1.63377,-5.21782 2.25437,-11.07982 8.68442,-13.09316c6.43004,-2.01333 12.96705,0.58442 14.60082,5.80224z" data-paper-data="{&quot;origPos&quot;:null}" fill="#ffffff" stroke="none" stroke-width="0" stroke-linecap="butt"/><path d="M265.48097,122.66301c0.06566,0.87902 -35.60314,17.959 -45.70113,22.37827c-4.90775,2.14783 -15.31708,4.96205 -15.38274,4.08303c-0.24272,-3.24943 0.21308,-8.70642 4.58087,-11.80829c5.27824,-3.74844 23.84286,-15.19888 38.99991,-19.69154c6.19612,-1.83657 17.26038,1.7891 17.5031,5.03853z" data-paper-data="{&quot;origPos&quot;:null}" fill="#509b07" stroke="none" stroke-width="0" stroke-linecap="butt"/><path d="M230.62932,122.91049l-5.7549,-11.1102l5.1482,-2.20047l2.09951,9.27903l6.65001,-3.80154l-0.14811,3.93276z" data-paper-data="{&quot;origPos&quot;:null}" fill="#64ca00" stroke="none" stroke-width="0" stroke-linecap="butt"/><path d="M259.29434,172.20533c0.40733,2.54282 -1.81764,3.71568 -3.0801,4.52175c-3.85302,2.46015 -7.61591,2.86149 -16.05073,2.41431c-2.7309,-0.14478 -9.4444,-14.15598 -2.86325,-12.87956c0,0 12.83359,0.96568 18.43053,-1.14318c0,0 7.8505,-7.18509 10.76073,-7.88907c1.44333,-0.34914 2.3804,2.61116 2.40292,4.24744c0,0 1.50707,4.30408 -0.13136,6.01028c-2.20501,2.93663 -4.52928,2.68616 -4.4114,3.42206z" data-paper-data="{&quot;origPos&quot;:null}" fill="#38291e" stroke="none" stroke-width="0" stroke-linecap="butt"/><path d="M264.20083,151.60279c1.50036,6.46507 4.40014,10.27985 -9.39512,14.33737c-6.35811,1.87007 -13.67809,-0.17799 -15.4315,-5.77792c-1.75341,-5.59993 2.18308,-14.42145 8.3348,-16.88702c8.96346,-3.59249 14.09145,-2.01558 16.49181,8.32757z" data-paper-data="{&quot;origPos&quot;:null}" fill="#ffdebd" stroke="none" stroke-width="0" stroke-linecap="butt"/><g data-paper-data="{&quot;origPos&quot;:null}" fill="none" stroke="#f6b09a" stroke-width="3.5" stroke-linecap="round"><path d="M189.90645,158.0398c0,0 2.31101,-2.53639 6.80479,-0.87377c6.44483,2.38448 5.54048,10.18158 5.54048,10.18158" data-paper-data="{&quot;origPos&quot;:null}"/><path d="M200.2289,161.84344l-5.72588,1.79284" data-paper-data="{&quot;origPos&quot;:null}"/><path d="M200.24944,168.12424l1.22697,-0.38418" data-paper-data="{&quot;origPos&quot;:null}"/></g><path d="M225.35129,139.36452c-1.19031,0.80262 -1.07007,0.96864 -1.32764,2.38098c-0.26571,1.45702 -1.15222,3.50388 -1.15222,3.50388c0,0 -2.47549,-3.02559 -3.28,-5.59498c-0.54625,-1.74458 -0.55036,-5.08213 1.94766,-6.53393c8.99979,-3.1542 8.97315,6.25547 8.97315,6.25547c0,0 -3.92298,-0.89172 -5.16094,-0.01142z" data-paper-data="{&quot;origPos&quot;:null}" fill="#38291e" stroke="none" stroke-width="0" stroke-linecap="butt"/><path d="M240.98502,131.52901c-1.42049,0.5382 -2.86396,4.29339 -2.86396,4.29339c0,0 -7.83116,-5.21687 -0.20027,-10.93655c2.59678,-1.26672 5.3669,0.59494 6.51192,2.02001c1.68638,2.09883 2.82137,5.8397 2.82137,5.8397c0,0 -2.19385,-0.40323 -3.55209,-0.99373c-1.31659,-0.5724 -1.38756,-0.76471 -2.71699,-0.22284z" data-paper-data="{&quot;origPos&quot;:null,&quot;index&quot;:null,&quot;origRot&quot;:0}" fill="#38291e" stroke="none" stroke-width="0" stroke-linecap="butt"/></g><g><path d="M326.03794,148.8301c4.23624,2.06475 8.82942,7.73056 8.82942,12.67896c0,4.9484 -3.37516,9.43135 -8.82942,12.67896c-5.45286,3.24586 -13.91518,5.13913 -21.29543,5.25636c-7.32391,0.11723 -14.66951,-0.85914 -21.23926,-4.28698c-4.03834,-2.21348 -6.9554,-7.15313 -9.0303,-11.81106c-1.20788,-2.72442 -2.47788,-8.04027 -0.21663,-9.27387c7.02487,-3.82154 15.25324,-2.50919 22.97296,-3.41208c5.61892,-0.00175 11.26985,1.39108 16.97696,0.69992c3.97464,-0.47594 7.81945,-4.4882 11.83171,-2.53019z" fill="#fcdda0" stroke="none" stroke-width="0.91701" stroke-linecap="round"/><path d="M334.19107,148.8546c2.0595,2.61243 3.33335,6.22224 3.33335,10.20476c0,3.98252 -1.27384,7.59233 -3.33335,10.20476c-2.0595,2.61418 -4.9029,4.23099 -8.04027,4.23099c-3.13737,0 -5.98077,-1.6168 -8.04028,-4.23099c-2.0595,-2.61243 -3.33335,-6.22224 -3.33335,-10.20476c0,-3.98252 1.27384,-7.59233 3.33335,-10.20476c2.0595,-2.61418 4.90291,-4.23099 8.04028,-4.23099c3.13737,0 5.98077,1.6168 8.04027,4.23099z" fill="#e2bf87" stroke="none" stroke-width="1" stroke-linecap="butt"/><path d="M331.55414,153.48628c1.14786,1.58531 1.85828,3.77254 1.85828,6.1855c0,2.41296 -0.71042,4.60019 -1.85828,6.1855c-1.14961,1.58355 -2.73492,2.56344 -4.4847,2.56344c-1.74978,0 -3.3351,-0.97989 -4.48471,-2.56344c-1.14786,-1.58531 -1.85827,-3.77254 -1.85827,-6.1855c0,-2.41296 0.71041,-4.60019 1.85827,-6.1855c1.14961,-1.58355 2.73492,-2.56343 4.48471,-2.56343c1.74978,0 3.33509,0.97988 4.4847,2.56343z" fill="#322516" stroke="none" stroke-width="1" stroke-linecap="butt"/><path d="M310.37385,154.78673c2.19178,2.07594 2.2602,4.97447 2.2413,7.54438c-0.01418,1.95206 -0.95783,4.17569 -2.50552,5.61472c-1.54996,1.43745 -3.72512,2.38881 -6.04656,2.32687c-2.4889,-0.06667 -5.09573,-1.26108 -6.42872,-2.7001c-1.67735,-1.86475 -1.68679,-3.56729 -1.88732,-5.40019c-0.19108,-1.78688 -1.03815,-3.83273 0.47174,-5.24149c1.70097,-1.59633 5.01804,-2.10762 7.8443,-2.54139c2.00525,-0.30639 5.03694,-0.74488 6.31079,0.39721z" fill="#322516" stroke="none" stroke-width="1.1493" stroke-linecap="butt"/><path d="M325.28788,130.19102c5.39495,4.41628 9.90782,11.95682 8.73511,17.24765c-0.85985,3.8616 -8.88629,-0.29432 -13.25534,0.97253c-7.99355,2.38671 -15.25464,8.46407 -23.51486,9.89505c-6.88524,1.19231 -13.80792,-0.58355 -20.5194,-2.19896c-1.67892,-0.4042 -3.1169,-1.13666 -2.69608,-3.12914c1.68365,-7.98708 2.53737,-17.4879 7.93826,-22.91906c5.81874,-5.69835 14.57171,-7.03134 22.24172,-7.01944c7.37658,0.0119 15.67424,2.73334 21.07058,7.15138z" fill="#f34135" stroke="none" stroke-width="0.91299" stroke-linecap="round"/><path d="M294.82961,133.59996l-9.62383,15.22314l0.26247,5.51183l-0.43745,-5.68681l-7.4366,4.19949" fill="none" stroke="#bb3228" stroke-width="2" stroke-linecap="round"/><path d="M323.7011,148.73561l-7.4366,-4.19949l-0.43745,5.68681l0.26247,-5.51183l-5.42434,-11.72358" fill="none" stroke="#bb3228" stroke-width="2" stroke-linecap="round"/><path d="M328.27242,152.23519c-10.00756,2.8434 -18.92517,10.74544 -29.02476,11.98604c-9.21823,1.13036 -19.06235,-0.69991 -27.48845,-4.8994c-2.2686,-1.12687 -0.67104,-6.9554 1.61698,-7.61157c4.46598,-1.44358 9.08576,2.30621 13.58254,2.88714c5.13878,0.66492 10.61858,1.74629 15.52289,0.61243c6.62487,-1.54856 12.17746,-6.76467 18.75684,-8.48646c3.99406,-1.04462 8.19968,-0.71742 12.04658,0.34995c2.09064,0.55293 3.81593,2.4497 4.93177,4.28698c0.36046,0.59842 -0.11969,1.84602 -0.88942,1.92477c-3.01891,0.30096 -6.07491,-1.89676 -9.05497,-1.04987z" fill="#ffffff" stroke="none" stroke-width="0.9628" stroke-linecap="round"/><path d="M319.41412,127.4757l-9.27387,5.59931l-14.87319,0.8749l-9.27387,-6.12426" fill="none" stroke="#bb3228" stroke-width="2" stroke-linecap="round"/></g></g></g></svg>