<svg version="1.1" xmlns="http://www.w3.org/2000/svg" xmlns:xlink="http://www.w3.org/1999/xlink" width="510.75771" height="248.61654" viewBox="0,0,510.75771,248.61654"><defs><linearGradient x1="50.9" y1="152.3108" x2="50.9" y2="373.0114" gradientUnits="userSpaceOnUse" id="color-1"><stop offset="0" stop-color="#7c5831"/><stop offset="1" stop-color="#95693b"/></linearGradient><linearGradient x1="-107" y1="122.33334" x2="-107" y2="204" gradientUnits="userSpaceOnUse" id="color-2"><stop offset="0" stop-color="#64e298"/><stop offset="1" stop-color="#60b483"/></linearGradient></defs><g transform="translate(22.28046,-126.44717)"><g data-paper-data="{&quot;isPaintingLayer&quot;:true}" fill-rule="nonzero" stroke-linejoin="miter" stroke-miterlimit="10" stroke-dasharray="" stroke-dashoffset="0" style="mix-blend-mode: normal"><path d="M110.70935,370.77481v-20.65278h376.26791v20.65278z" fill="#745c2a" stroke="#41310e" stroke-width="3" stroke-linecap="butt"/><path d="M-14.6,152.3108h131v220.7006h-131z" fill="url(#color-1)" stroke="#663b00" stroke-width="4.10463" stroke-linecap="butt"/><g fill="#b2b2b2" stroke="#7f7f7f" stroke-width="2" stroke-linecap="round"><path d="M27.775,200.6313c0.6216,0.3287 -2.228,0.6732 -3.1149,1.9806c-0.807,1.1893 -1.0319,2.692 -1.4222,4.0746c-0.1933,0.6848 0.354,1.8933 -0.3229,2.1114c-1.3537,0.4362 -3.0032,0.0867 -4.2229,-0.6456c-1.3124,-0.7878 -2.5676,-2.0993 -2.8531,-3.6035c-0.3973,-2.0964 0.1654,-4.3578 0.9686,-6.3344c0.5171,-1.2714 1.5366,-2.5332 2.8269,-3.0014c1.2643,-0.4587 2.7983,-0.0707 4.0048,0.5235c1.7434,0.8594 4.2469,1.7858 4.5283,3.682z"/><path d="M32.049,190.9603c4.6894,-0.6232 7.912,4.1787 10.2693,7.7567c2.4797,3.7668 3.536,8.9394 3.2806,13.5849c-0.1731,3.1088 -1.9564,5.976 -4.1794,7.9747c-2.2145,1.9896 -5.6449,3.4141 -8.7512,2.8356c-4.6329,-0.669 -10.9209,-1.7284 -12.7997,-6.3083c-1.9362,-4.729 2.315,-10.0526 4.4935,-14.6755c1.925,-4.0842 3.4065,-9.9858 7.6869,-11.1681z"/><path d="M23.6965,194.6376c-1.2266,1.2673 -2.254,3.0999 -3.9699,3.5075c-1.4783,0.3515 -4.3102,-0.0252 -4.2927,-1.5444c0.0334,-2.9967 2.2618,-5.7499 4.3974,-7.8525c1.2349,-1.2145 3.4936,-2.1697 5.1042,-1.4396c1.2911,0.7562 1.1441,3.004 0.9074,4.5196c-0.1807,1.1618 -1.3277,1.9636 -1.684,2.4953z"/><path d="M15.9852,208.434c-0.2672,0.5816 -0.3515,1.9785 -1.2477,2.7397c-1.1685,0.9937 -3.0082,2.2936 -4.3276,1.5879c-1.4641,-0.9918 -1.8299,-3.4167 -1.4397,-5.1042c0.6768,-2.9195 1.86,-6.2581 4.3975,-7.8525c1.2861,-0.8087 3.0871,1.4091 3.5598,2.8531c0.5491,1.676 -0.4766,3.5096 -0.9161,5.2176z"/></g><g fill="#b2b2b2" stroke="#7f7f7f" stroke-width="2" stroke-linecap="round"><path d="M73.2773,277.9018c0.2596,-0.6536 0.91,2.1422 2.3055,2.8827c1.2695,0.6738 2.7877,0.7351 4.2043,0.9737c0.7018,0.1182 1.8441,-0.5564 2.134,0.0929c0.5799,1.2987 0.4105,2.9763 -0.1857,4.268c-0.6414,1.3899 -1.8096,2.7794 -3.2743,3.2256c-2.0412,0.6214 -4.3501,0.3063 -6.4019,-0.2787c-1.3198,-0.3768 -2.6843,-1.254 -3.2892,-2.4862c-0.5926,-1.2073 -0.3726,-2.7743 0.0879,-4.0379c0.6661,-1.826 1.3166,-4.4149 3.1713,-4.8995z"/><path d="M63.2013,274.6473c-1.1261,-4.5946 3.2996,-8.317 6.602,-11.047c3.477,-2.8721 8.5052,-4.4809 13.1511,-4.7288c3.1093,-0.1637 6.1524,1.2995 8.3795,3.2936c2.2172,1.9866 4.0039,5.243 3.7642,8.3937c-0.1646,4.678 -0.5386,11.0437 -4.8888,13.4062c-4.4922,2.4357 -10.2438,-1.2156 -15.075,-2.8821c-4.2682,-1.4726 -10.2953,-2.3079 -11.933,-6.4356z"/><path d="M67.7593,282.5538c1.3923,1.0825 3.3252,1.906 3.9157,3.5678c0.5091,1.4316 0.4405,4.2877 -1.0717,4.4344c-2.9828,0.2904 -5.9606,-1.6275 -8.2815,-3.5235c-1.3408,-1.0965 -2.5343,-3.2388 -1.9825,-4.9189c0.6123,-1.3652 2.8628,-1.4618 4.3951,-1.3902c1.1745,0.0542 2.0955,1.1078 2.6626,1.4046z"/><path d="M82.3079,288.7298c0.607,0.2028 2.0048,0.1357 2.8584,0.9444c1.1141,1.0544 2.6051,2.7429 2.0461,4.1308c-0.8279,1.5627 -3.1991,2.1882 -4.9189,1.9825c-2.9755,-0.3575 -6.4224,-1.173 -8.2815,-3.5235c-0.9429,-1.1913 1.0673,-3.2213 2.4519,-3.8472c1.6068,-0.7269 3.5405,0.0947 5.286,0.3472z"/></g><path d="M15.9321,320.2914c3.1679,-1.4479 6.2429,11.3898 11.8776,12.9296c3.884,1.0572 7.2323,-3.5992 10.0804,-6.3599c1.7301,-1.6989 1.3939,-5.4332 3.08,-5.6137c1.6027,-0.1697 2.7264,3.0389 3.1319,4.9248c0.7021,2.3593 1.4817,5.3059 0.0537,7.2885c-3.9415,5.4695 -8.2373,12.4642 -14.8537,13.7611c-5.4607,1.0706 -12.2137,-2.9856 -14.6879,-7.9696c-2.8144,-5.6688 -2.1119,-17.3931 0.2802,-20.1537z" fill="#b2b2b2" stroke="#7f7f7f" stroke-width="2" stroke-linecap="round"/><path d="M-8.36287,163l-4.06751,13l-8.13502,21v-23l-0.66836,-1.47885c0.13953,-0.65147 0.23376,-1.31869 0.23376,-2.02115c0,-10.18951 0.77866,-20.24908 0.96177,-30.42531c3.25679,-3.21672 6.79753,-6.39284 10.61937,-8.33128c1.31553,-0.66724 2.72303,-1.39214 4.14979,-2.17357c0.35007,-0.12508 0.69786,-0.26039 1.04257,-0.40959c0.55149,-0.2387 1.38486,-0.41021 1.5,-1c0.00287,-0.01471 0.00355,-0.02829 0.0022,-0.0408c0.22242,-0.13246 0.44425,-0.26629 0.66523,-0.40147c0.34015,0.0061 0.69905,0.02421 1.05907,0.04852v0.23351h3c0.63195,0 1.23651,-0.11724 1.79314,-0.33115c0.17934,-0.06094 0.36397,-0.13308 0.54976,-0.2185l117.90408,1.7123c1.18102,0.62679 2.36669,1.23474 3.47952,1.9976c1.98819,1.36292 2.63381,2.77459 4.11325,4.61325c0.7962,0.98953 2.02523,1.64234 2.62472,2.76203c0.13234,0.24719 -0.65321,-0.72941 -0.70788,-0.4544c-0.29359,1.47668 1.12106,2.797 1.77128,4.15493c0.16435,0.3287 0.32187,0.66595 0.47213,1.0097v0.75422l-3.43424,20v22l-3.43425,-16l-3.43424,-14v20l1.71712,18l-5.15136,-17l-5.15137,-16v22l-3.43424,15l-0.85856,-17l-4.29281,-19l-3.43424,20v20l-5.15137,-16v-21l-4.29281,13l-0.85856,21l-6.00993,-17v-15l-4.29281,17l-2.57568,20l-1.71713,-21l-1.71712,-23l-5.15137,29l-2.57568,12l-3.43425,-22l-0.85856,-13l-1.71712,18l-3.43425,19l-2.57568,-14l-2.57569,-18l-3.43424,17l-4.29281,15l-2.57568,-18v-22l-5.15137,17l-1.71712,16l-5.15137,-10l-0.85856,-17l-6.00993,22v11l-4.67641,-16.5l-3.05063,-16.5l-6.00993,8v17l-3.43425,-27l-4.57595,33l-3.30942,-30l-8.13502,31l2.28341,-21l-3.43425,-13z" data-paper-data="{&quot;origPos&quot;:null,&quot;index&quot;:null}" fill="url(#color-2)" stroke="#20996f" stroke-width="2" stroke-linecap="butt"/></g></g></svg>