<svg version="1.1" xmlns="http://www.w3.org/2000/svg" xmlns:xlink="http://www.w3.org/1999/xlink" width="23.875" height="23.875" viewBox="0,0,23.875,23.875"><defs><radialGradient cx="240" cy="180" r="11.9375" gradientUnits="userSpaceOnUse" id="color-1"><stop offset="0" stop-color="#fff4b0" stop-opacity="0.58039"/><stop offset="1" stop-color="#fff4b0" stop-opacity="0"/></radialGradient><linearGradient x1="240.4192" y1="170.8339" x2="240.4192" y2="189.4304" gradientUnits="userSpaceOnUse" id="color-2"><stop offset="0" stop-color="#ffffff"/><stop offset="1" stop-color="#d1d1d1"/></linearGradient><linearGradient x1="240.4192" y1="170.8339" x2="240.4192" y2="189.4304" gradientUnits="userSpaceOnUse" id="color-3"><stop offset="0" stop-color="#999da6"/><stop offset="1" stop-color="#ccd0d6"/></linearGradient></defs><g transform="translate(-228.0625,-168.0625)"><g data-paper-data="{&quot;isPaintingLayer&quot;:true}" fill-rule="nonzero" stroke-linecap="butt" stroke-linejoin="miter" stroke-miterlimit="10" stroke-dasharray="" stroke-dashoffset="0" style="mix-blend-mode: normal"><path d="M228.0625,180c0,-6.5929 5.3446,-11.9375 11.9375,-11.9375c6.5929,0 11.9375,5.3446 11.9375,11.9375c0,6.5929 -5.3446,11.9375 -11.9375,11.9375c-6.5929,0 -11.9375,-5.3446 -11.9375,-11.9375z" fill="url(#color-1)" stroke="none" stroke-width="0"/><path d="M238.0487,170.8339l6.8967,1.2311c1.9854,4.0489 3.0172,6.2196 3.0786,6.5278c-4.495,3.8022 -6.7737,5.7419 -6.8351,5.8499l6.1581,-0.6778l0.0615,0.1229c-0.4777,3.6951 -0.7543,5.5426 -0.8623,5.5426c-6.9432,-0.1695 -11.13,-0.2467 -12.5614,-0.2467c-0.1237,0 -0.3696,-1.3549 -0.7393,-4.0639c0.6928,-0.5391 1.3391,-1.139 1.909,-1.7861l6.2196,-5.6647c-0.5242,-0.7235 -0.893,-1.2012 -1.109,-1.4163c-1.0617,1.2161 -2.0012,2.2321 -2.832,3.0171c-2.6325,-2.0169 -4.1718,-3.2173 -4.6187,-3.6327v-0.1238c0.2159,-0.1379 1.8317,-1.585 4.8647,-4.3713c0,-0.0315 0.1229,-0.1387 0.3696,-0.3081z" data-paper-data="{&quot;origPos&quot;:null}" fill="url(#color-2)" stroke="#ffffff" stroke-width="2.5"/><path d="M238.0487,170.8339l6.8967,1.2311c1.9854,4.0489 3.0172,6.2196 3.0786,6.5278c-4.495,3.8022 -6.7737,5.7419 -6.8351,5.8499l6.1581,-0.6778l0.0615,0.1229c-0.4777,3.6951 -0.7543,5.5426 -0.8623,5.5426c-6.9432,-0.1695 -11.13,-0.2467 -12.5614,-0.2467c-0.1237,0 -0.3696,-1.3549 -0.7393,-4.0639c0.6928,-0.5391 1.3391,-1.139 1.909,-1.7861l6.2196,-5.6647c-0.5242,-0.7235 -0.893,-1.2012 -1.109,-1.4163c-1.0617,1.2161 -2.0012,2.2321 -2.832,3.0171c-2.6325,-2.0169 -4.1718,-3.2173 -4.6187,-3.6327v-0.1238c0.2159,-0.1379 1.8317,-1.585 4.8647,-4.3713c0,-0.0315 0.1229,-0.1387 0.3696,-0.3081z" data-paper-data="{&quot;origPos&quot;:null}" fill="url(#color-3)" stroke="none" stroke-width="0"/></g></g></svg>