<svg version="1.1" xmlns="http://www.w3.org/2000/svg" xmlns:xlink="http://www.w3.org/1999/xlink" width="99.95148" height="187.58849" viewBox="0,0,99.95148,187.58849"><defs><linearGradient x1="233.94891" y1="255.86592" x2="272.52444" y2="255.86592" gradientUnits="userSpaceOnUse" id="color-1"><stop offset="0" stop-color="#643a19"/><stop offset="1" stop-color="#9b663d"/></linearGradient><linearGradient x1="220.10282" y1="258.6718" x2="258.94117" y2="258.6718" gradientUnits="userSpaceOnUse" id="color-2"><stop offset="0" stop-color="#643a19"/><stop offset="1" stop-color="#9b663d"/></linearGradient><linearGradient x1="265.9562" y1="114.16707" x2="265.9562" y2="130.74325" gradientUnits="userSpaceOnUse" id="color-3"><stop offset="0" stop-color="#509b07"/><stop offset="1" stop-color="#346a00"/></linearGradient><linearGradient x1="247.13675" y1="108.90124" x2="247.13675" y2="135.72537" gradientUnits="userSpaceOnUse" id="color-4"><stop offset="0" stop-color="#509b07"/><stop offset="1" stop-color="#468904"/></linearGradient></defs><g transform="translate(-188.94878,-85.58178)"><g data-paper-data="{&quot;isPaintingLayer&quot;:true}" fill="none" fill-rule="nonzero" stroke="none" stroke-width="none" stroke-linecap="none" stroke-linejoin="miter" stroke-miterlimit="10" stroke-dasharray="" stroke-dashoffset="0" font-family="none" font-weight="none" font-size="none" text-anchor="none" style="mix-blend-mode: normal"><g data-paper-data="{&quot;origPos&quot;:null,&quot;origRot&quot;:0}" stroke="none" stroke-width="0" stroke-linecap="butt"><path d="M261.00759,183.56147l-3.95578,15.45494c0,0 -1.97421,-1.12083 -11.4313,-3.42616c-9.4571,-2.30533 -11.57155,-5.90871 -10.3126,-11.07323c1.25894,-5.16451 4.80946,-6.76431 14.26656,-4.45898z" data-paper-data="{&quot;origRot&quot;:0,&quot;origPos&quot;:null}" fill="#64ca00"/><g data-paper-data="{&quot;origPos&quot;:null}" fill="#ffffff"><path d="M280.09585,179.06168c11.01706,1.4649 8.82813,10.48374 8.20948,20.71041c-0.56693,9.3717 -12.97861,16.06802 -19.97497,14.45584c-9.64399,-2.22227 -6.87853,-13.51673 -4.23928,-22.52698c2.63925,-9.01025 5.71776,-14.00711 16.00476,-12.63928z" data-paper-data="{&quot;origRot&quot;:0,&quot;origPos&quot;:null}"/><path d="M265.03551,178.13301c6.63083,1.71187 3.72706,3.07697 0.2709,16.12535c-3.03388,11.45414 -3.20516,13.36918 -9.3164,12.10467c-5.46284,-1.13035 -1.79113,-8.67466 0.23737,-15.63378c2.0285,-6.95912 4.93618,-13.59587 8.80812,-12.59625z" data-paper-data="{&quot;origRot&quot;:0,&quot;origPos&quot;:null}"/></g></g><g data-paper-data="{&quot;origPos&quot;:null}"><path d="M269.36634,205.92814c0.33542,23.36797 -11.23027,30.01902 -24.2383,30.01902c-13.00803,0 -23.7244,-11.0783 -23.7244,-22.29354c0,-12.16666 1.12928,-21.85193 8.41177,-29.59575c5.42567,-5.76938 13.24571,-3.072 20.2802,-3.072c13.00803,0 18.94195,2.03645 19.27073,24.94228z" data-paper-data="{&quot;origPos&quot;:null}" fill="#2a2a84" stroke="none" stroke-width="0" stroke-linecap="butt"/><path d="M269.36634,205.26596c0,0 -14.76896,2.20728 -25.18042,2.64874c-9.54981,0.40491 -19.18508,-3.75238 -19.18508,-3.75238c0,0 -0.84489,-15.22543 5.98217,-21.14578c4.46675,-3.8735 9.49009,-5.14202 15.94364,-5.3416c6.45355,-0.19958 13.47144,2.36082 16.7202,5.75234c7.67393,8.01117 5.7195,21.83867 5.7195,21.83867z" data-paper-data="{&quot;origPos&quot;:null}" fill="#64ca00" stroke="none" stroke-width="0" stroke-linecap="butt"/><path d="M257.46799,181.96955c0,0 1.83311,7.54921 2.20291,12.08838c0.47498,5.83023 -0.49673,16.78467 -0.49673,16.78467" data-paper-data="{&quot;origPos&quot;:null,&quot;origRot&quot;:0}" fill="none" stroke="#2a2a84" stroke-width="10" stroke-linecap="round"/><path d="M239.04706,182.53096c0,0 1.06191,7.79088 0.97412,12.35359c-0.11275,5.86046 -2.17318,16.56179 -2.17318,16.56179" data-paper-data="{&quot;origPos&quot;:null}" fill="none" stroke="#2a2a84" stroke-width="10" stroke-linecap="round"/><path d="M234.93597,209.34943c0,-2.49904 1.89876,-4.52493 4.24102,-4.52493c2.34224,0 4.24103,2.02589 4.24103,4.52493c0,2.49904 -1.89877,4.52492 -4.24103,4.52492c-2.34224,0 -4.24102,-2.02587 -4.24102,-4.52492z" data-paper-data="{&quot;origPos&quot;:null}" fill="#ffe84f" stroke="none" stroke-width="0" stroke-linecap="butt"/><path d="M255.30123,209.34943c0,-2.49904 1.83345,-4.52493 4.09513,-4.52493c2.26167,0 4.09513,2.02589 4.09513,4.52493c0,2.49904 -1.83346,4.52492 -4.09513,4.52492c-2.26167,0 -4.09513,-2.02587 -4.09513,-4.52492z" data-paper-data="{&quot;origPos&quot;:null}" fill="#ffe84f" stroke="none" stroke-width="0" stroke-linecap="butt"/></g><g data-paper-data="{&quot;origPos&quot;:null,&quot;origRot&quot;:0}" stroke="none" stroke-width="0" stroke-linecap="butt"><path d="M260.18303,240.38189c1.14867,4.42255 6.56103,5.15261 6.60666,6.18912c0.18465,4.1937 -1.16759,7.44822 -7.51923,10.72289c-7.86792,4.0564 -14.53726,4.82638 -22.90732,1.94529c-5.70075,-1.96227 -1.74269,-5.45276 -0.93345,-11.42722c0.29038,-2.14379 0.27589,-4.86805 -0.30616,-10.27322c-0.72772,-6.75789 0.40013,-19.56313 0.40013,-19.56313c0,0 5.0661,-1.85145 10.20933,-2.97152c5.09857,-1.05402 10.60012,0.01282 10.60012,0.01282c0,0 1.19466,15.14171 3.84994,25.36496z" data-paper-data="{&quot;origPos&quot;:null}" fill="#262675"/><path d="M271.60288,260.72015c0.77212,3.82127 -2.75255,6.40738 -6.23207,8.16558c-2.28028,1.15222 -14.05995,3.1757 -20.55871,0.94628c-2.01758,-0.69215 -3.96741,-2.79487 -3.96741,-2.79487c0,0 -4.78653,1.74203 -5.06088,0.31128c-0.21777,-1.13574 -0.63631,-3.06013 0.34316,-3.8703c4.21605,-3.48736 15.41566,-5.74405 20.77873,-6.82771c7.36229,-1.48761 13.94243,0.33448 14.69718,4.06976z" data-paper-data="{&quot;origPos&quot;:null}" fill="#dbbb7b"/><path d="M272.48013,255.54678c-0.43568,4.74349 -4.2663,8.84518 -12.58947,10.52696c-8.32316,1.68177 -18.20229,-1.34663 -18.20229,-1.34663c0,0 -5.96155,1.53476 -6.39582,0.01342c-0.89885,-3.14876 -2.0114,-8.35803 -0.83479,-8.77344c4.34366,-1.53359 3.62175,-0.75768 9.21564,-3.18902c3.62177,-1.57418 9.21695,-6.45921 13.08782,-7.24135c8.32316,-1.68177 16.43628,2.19983 15.71892,10.01007z" data-paper-data="{&quot;origPos&quot;:null}" fill="url(#color-1)"/></g><g data-paper-data="{&quot;origPos&quot;:null,&quot;origRot&quot;:0}" stroke="none" stroke-width="0" stroke-linecap="butt"><path d="M249.43909,243.9103c0.26084,4.56184 5.42562,6.33712 5.2675,7.36252c-0.63974,4.14872 -2.60281,7.07564 -9.47255,9.04378c-8.50968,2.43799 -15.20073,1.8877 -22.84501,-2.5759c-5.20642,-3.0401 -0.64174,-5.68839 1.32121,-11.38891c0.70436,-2.04549 1.22335,-4.71991 1.7105,-10.13445c0.60904,-6.76961 4.9708,-19.3582 4.9708,-19.3582c0,0 7.58227,-0.07943 12.59763,0.82942c3.95804,0.71726 10.39557,3.33729 10.39557,3.33729c0,0 -4.5486,12.33923 -3.94565,22.88445z" data-paper-data="{&quot;origPos&quot;:null}" fill="#262675"/><path d="M256.65732,266.0903c0.00927,3.8985 -3.95341,5.74472 -7.70974,6.78787c-2.4617,0.68362 -14.40959,0.36237 -20.34629,-3.09591c-1.84309,-1.07364 -3.34363,-3.51734 -3.34363,-3.51734c0,0 -5.03491,0.77148 -5.02392,-0.68529c0.00874,-1.1564 -0.02505,-3.1255 1.09403,-3.72829c4.81708,-2.59473 16.24176,-2.61569 21.7132,-2.6287c7.51107,-0.01785 13.60731,3.05689 13.61635,6.86766z" data-paper-data="{&quot;origPos&quot;:null}" fill="#dbbb7b"/><path d="M258.53017,261.18872c-1.35567,4.56646 -5.91501,7.83909 -14.40637,7.85925c-8.49136,0.02017 -17.58666,-4.88323 -17.58666,-4.88323c0,0 -6.14664,0.33822 -6.27474,-1.23869c-0.26517,-3.2638 -0.33661,-8.59004 0.89854,-8.76714c4.55982,-0.65375 3.7,-0.03415 9.66157,-1.3236c3.85983,-0.83485 10.30291,-4.53028 14.252,-4.53967c8.49136,-0.02017 15.68783,5.3743 13.45568,12.89308z" data-paper-data="{&quot;origPos&quot;:null}" fill="url(#color-2)"/></g><g data-paper-data="{&quot;origPos&quot;:null,&quot;origRot&quot;:0}" stroke="none" stroke-width="0" stroke-linecap="butt"><path d="M227.15161,180.65695l-3.95578,15.45494c0,0 -1.97421,-1.12084 -11.4313,-3.42617c-9.4571,-2.30533 -11.57155,-5.90871 -10.3126,-11.07323c1.25894,-5.16451 4.80946,-6.76431 14.26656,-4.45898z" data-paper-data="{&quot;origRot&quot;:0,&quot;origPos&quot;:null}" fill="#64ca00"/><g data-paper-data="{&quot;origPos&quot;:null}" fill="#ffffff"><path d="M246.23988,176.15716c11.01706,1.4649 8.82813,10.48374 8.20948,20.71042c-0.56693,9.3717 -12.97861,16.06801 -19.97497,14.45583c-9.64399,-2.22227 -6.87853,-13.51673 -4.23928,-22.52698c2.63925,-9.01025 5.71777,-14.0071 16.00476,-12.63928z" data-paper-data="{&quot;origRot&quot;:0,&quot;origPos&quot;:null}"/><path d="M231.17954,175.2285c6.63083,1.71187 3.72706,3.07697 0.2709,16.12535c-3.03388,11.45414 -3.20516,13.36918 -9.3164,12.10467c-5.46284,-1.13035 -1.79113,-8.67466 0.23737,-15.63378c2.0285,-6.95912 4.93618,-13.59587 8.80812,-12.59625z" data-paper-data="{&quot;origRot&quot;:0,&quot;origPos&quot;:null}"/></g></g><g data-paper-data="{&quot;origPos&quot;:null,&quot;origRot&quot;:0}"><path d="M278.97614,118.17755c0.16236,3.83213 -10.04157,10.7004 -18.78963,12.39152c-7.04919,1.36271 -6.58393,-5.60721 -7.27577,-9.18603c-0.69184,-3.57882 13.27361,-5.46874 20.3228,-6.83145c7.04919,-1.36271 5.63749,1.14546 5.74259,3.62596z" data-paper-data="{&quot;origPos&quot;:null}" fill="url(#color-3)" stroke="none" stroke-width="0" stroke-linecap="butt"/><path d="M216.96082,174.91355c0,0 -1.12382,1.73808 -3.01351,0.32603c-1.88968,-1.41203 -3.78466,-5.15577 -1.89445,-7.48401c2.26088,-2.78481 0.0894,-10.26145 1.97908,-8.84942c0,0 6.23366,0.12235 7.39626,3.65718c0,0 4.5481,9.97777 3.83705,11.85179c0,0 -1.15466,1.94056 -5.05253,2.40887c-2.11192,0.25375 -3.2519,-1.91044 -3.2519,-1.91044z" data-paper-data="{&quot;origRot&quot;:0,&quot;origPos&quot;:null}" fill="#5a2c0a" stroke="none" stroke-width="0" stroke-linecap="butt"/><path d="M212.23647,133.40488c4.42669,0.17 36.1545,-9.19755 41.9041,-9.98104c8.50643,-1.15917 7.64825,6.88716 9.86774,15.18036c2.55193,9.53539 2.44702,21.16156 4.4741,27.71226c2.1742,7.02609 2.24122,10.91382 -2.84771,15.47539c-15.59228,3.98986 -13.50026,-0.0998 -21.2111,-1.07933c-6.57817,-1.07452 -11.28624,-2.05955 -18.95862,-6.35617c-5.82408,-3.26154 -5.3211,-6.99468 -9.35098,-11.11163c-1.23531,-1.262 -2.51766,-1.81469 -2.70866,-1.77777c-10.18191,1.96831 -17.40522,-5.36041 -18.94263,-13.31334c-1.53742,-7.95294 0.85,-15.10251 6.54358,-16.20316c5.69358,-1.10065 9.691,1.39536 11.23019,1.45446z" data-paper-data="{&quot;origPos&quot;:null}" fill="#ffdebd" stroke="none" stroke-width="0" stroke-linecap="butt"/><path d="M260.53214,129.37142c1.27385,4.73311 -0.07131,9.21001 -3.00451,9.99943c-2.93319,0.78943 -6.34367,-2.40755 -7.61751,-7.14065c-1.27385,-4.73311 0.07131,-9.21 3.00451,-9.99943c2.93319,-0.78943 6.34367,2.40755 7.61752,7.14065z" data-paper-data="{&quot;origPos&quot;:null,&quot;origRot&quot;:0}" fill="#ffffff" stroke="none" stroke-width="0" stroke-linecap="butt"/><path d="M221.78619,139.91228c1.29704,4.71703 6.06576,7.29608 3.97894,8.86115c-1.06309,0.7973 -5.64749,1.24021 -7.75214,-0.18566c-2.10465,-1.42587 -3.24496,-3.49486 -4.08355,-7.83283c-0.83859,-4.33797 -1.66731,-8.53693 1.02276,-9.16064c11.32603,-2.62599 5.6626,4.05782 6.83401,8.31797z" data-paper-data="{&quot;origPos&quot;:null}" fill="#5a2c0a" stroke="none" stroke-width="0" stroke-linecap="butt"/><path d="M248.69555,136.75698c1.48454,4.67131 0.34123,9.20396 -2.55366,10.12395c-2.89489,0.92001 -6.44514,-2.12103 -7.92968,-6.79234c-1.48454,-4.67131 -0.34123,-9.20396 2.55366,-10.12395c2.89489,-0.92001 6.44514,2.12103 7.92968,6.79234z" data-paper-data="{&quot;origPos&quot;:null,&quot;origRot&quot;:0}" fill="#ffffff" stroke="none" stroke-width="0" stroke-linecap="butt"/><path d="M245.26089,133.70509c0.9347,-0.18069 1.91294,0.33807 2.73953,1.32105c0.82561,0.98317 1.49977,2.43154 1.82452,4.11144c0.32475,1.6799 0.23897,3.27518 -0.16073,4.49522c-0.40068,1.22023 -1.1151,2.06621 -2.0498,2.24689c-0.9347,0.18069 -1.91294,-0.33807 -2.73953,-1.32105c-0.82561,-0.98317 -1.49977,-2.43154 -1.82452,-4.11144c-0.32475,-1.6799 -0.23897,-3.27518 0.16073,-4.49522c0.40068,-1.22023 1.1151,-2.06621 2.0498,-2.24689z" data-paper-data="{&quot;origPos&quot;:null}" id="ID0.2989244391210377" fill="#000000" stroke="none" stroke-width="1" stroke-linecap="butt"/><path d="M257.16099,126.77039c0.9347,-0.18069 1.91294,0.33807 2.73953,1.32105c0.82561,0.98317 1.31209,2.70412 1.82452,4.11144c0.18379,0.51345 0.47987,1.25473 0.19437,1.79575c-0.36471,0.65819 -1.09582,1.08063 -1.75486,1.45961c-1.18382,0.49366 -2.50123,1.53972 -3.7041,1.12346c-1.05852,-0.38611 -1.27962,-1.93021 -1.50998,-3.06919c-0.29765,-1.47125 -0.23897,-3.27518 0.16073,-4.49522c0.40068,-1.22023 1.1151,-2.06621 2.0498,-2.24689z" data-paper-data="{&quot;origPos&quot;:null}" id="ID0.2989244391210377" fill="#000000" stroke="none" stroke-width="1" stroke-linecap="round"/><path d="M259.99708,94.32078c5.18941,14.2181 2.51458,15.60079 -4.46091,21.82219c-10.16386,9.06509 -25.45752,10.58418 -36.69985,18.27119c-2.95194,2.0184 -11.81887,0.21496 -15.32987,0.89369c-7.18103,1.3882 -12.22506,-2.96075 -13.70354,-9.01638c-3.26117,-13.35733 3.36828,-14.69314 10.54931,-16.08134c0,0 8.15617,-0.21786 11.6965,3.44722c0,0 7.53612,-20.01313 18.69823,-24.4634c14.36877,-5.72874 25.52343,-5.08364 29.25011,5.12683z" data-paper-data="{&quot;origPos&quot;:null}" fill="#64ca00" stroke="none" stroke-width="0" stroke-linecap="butt"/><path d="M258.77384,103.24044c1.03776,5.36823 0.38193,9.68471 -10.09921,12.03561c-11.06472,2.48179 -12.8195,-2.03625 -13.85726,-7.40448c-1.03776,-5.36823 3.48381,-10.75676 10.09921,-12.03561c6.61539,-1.27885 12.8195,2.03625 13.85726,7.40448z" data-paper-data="{&quot;origPos&quot;:null}" fill="#ffffff" stroke="none" stroke-width="0" stroke-linecap="butt"/><path d="M278.97028,116.0398c-0.03342,0.88084 -37.39399,13.84913 -47.92422,17.10699c-5.11782,1.58337 -15.77727,3.21139 -15.74384,2.33055c0.12356,-3.25614 1.18901,-8.62748 5.87738,-11.21947c5.66564,-3.13228 25.39822,-12.42652 40.96377,-15.18944c6.36311,-1.12946 16.95048,3.71523 16.82692,6.97137z" data-paper-data="{&quot;origPos&quot;:null}" fill="url(#color-4)" stroke="none" stroke-width="0" stroke-linecap="butt"/><path d="M244.31111,112.37371l-4.47144,-11.68596l5.36267,-1.6087l1.04469,9.45606l7.03469,-3.03106l-0.58862,3.89128z" data-paper-data="{&quot;origPos&quot;:null}" fill="#64ca00" stroke="none" stroke-width="0" stroke-linecap="butt"/><path d="M267.26174,164.57459c0.11933,2.57247 -2.22324,3.48818 -3.56819,4.14744c-4.10482,2.01211 -7.88898,1.98854 -16.2203,0.59739c-2.69739,-0.4504 -7.79574,-15.12663 -1.39945,-13.11955c0,0 12.64409,2.40011 18.44237,0.93283c0,0 8.6074,-6.25848 11.57825,-6.63135c1.4734,-0.18492 2.07226,2.86185 1.91097,4.49032c0,0 1.01442,4.44605 -0.80517,5.95755c-2.52071,2.67056 -4.80216,2.16078 -4.76763,2.90526z" data-paper-data="{&quot;origPos&quot;:null}" fill="#38291e" stroke="none" stroke-width="0" stroke-linecap="butt"/><path d="M274.4498,144.65301c0.76519,6.59262 3.21845,10.70879 -10.94507,13.19218c-6.52784,1.14456 -13.57167,-1.71219 -14.68542,-7.47355c-1.11375,-5.76136 3.78807,-14.08527 10.17766,-15.84474c9.31006,-2.56365 14.22863,-0.4211 15.45283,10.12611z" data-paper-data="{&quot;origPos&quot;:null}" fill="#ffdebd" stroke="none" stroke-width="0" stroke-linecap="butt"/><g data-paper-data="{&quot;origPos&quot;:null}" fill="none" stroke="#f6b09a" stroke-width="3.5" stroke-linecap="round"><path d="M199.90241,142.70995c0,0 2.58111,-2.26095 6.85986,-0.10442c6.13644,3.09282 4.3626,10.73913 4.3626,10.73913" data-paper-data="{&quot;origPos&quot;:null}"/><path d="M203.84174,148.78704l5.89094,-1.1388" data-paper-data="{&quot;origPos&quot;:null}"/><path d="M209.04808,153.89165l1.26234,-0.24403" data-paper-data="{&quot;origPos&quot;:null}"/></g><path d="M237.2195,128.13132c-1.27288,0.66393 -1.17204,0.84241 -1.58651,2.21691c-0.42758,1.41799 -1.53824,3.35241 -1.53824,3.35241c0,0 -2.12024,-3.28434 -2.63126,-5.92779c-0.34697,-1.79487 0.02357,-5.11179 2.66877,-6.27402c9.29696,-2.12407 8.21428,7.22315 8.21428,7.22315c0,0 -3.7981,-1.32643 -5.12704,-0.59065z" data-paper-data="{&quot;origPos&quot;:null}" fill="#38291e" stroke="none" stroke-width="0" stroke-linecap="butt"/><path d="M253.63395,122.10018c-1.47192,0.37535 -3.32778,3.94478 -3.32778,3.94478c0,0 -7.19609,-6.06293 1.0286,-10.88992c2.72256,-0.96723 5.2662,1.1936 6.24403,2.73819c1.44014,2.27485 2.14805,6.11949 2.14805,6.11949c0,0 -2.13472,-0.64694 -3.4181,-1.38617c-1.24402,-0.71656 -1.29295,-0.91563 -2.6748,-0.5264z" data-paper-data="{&quot;origPos&quot;:null,&quot;index&quot;:null,&quot;origRot&quot;:0}" fill="#38291e" stroke="none" stroke-width="0" stroke-linecap="butt"/></g></g></g></svg>