<svg version="1.1" xmlns="http://www.w3.org/2000/svg" xmlns:xlink="http://www.w3.org/1999/xlink" width="700.3173" height="176.95808" viewBox="0,0,700.3173,176.95808"><defs><linearGradient x1="310.66239" y1="224.05804" x2="310.66239" y2="301.25" gradientUnits="userSpaceOnUse" id="color-1"><stop offset="0" stop-color="#8d5418"/><stop offset="1" stop-color="#c06520"/></linearGradient><linearGradient x1="312.61564" y1="192.81162" x2="312.61564" y2="238.40902" gradientUnits="userSpaceOnUse" id="color-2"><stop offset="0" stop-color="#7fea5b"/><stop offset="1" stop-color="#61b245"/></linearGradient><linearGradient x1="320" y1="322" x2="320" y2="367" gradientUnits="userSpaceOnUse" id="color-3"><stop offset="0" stop-color="#8d5418"/><stop offset="1" stop-color="#c06520"/></linearGradient><linearGradient x1="326.57015" y1="295.76186" x2="326.57015" y2="354.00802" gradientUnits="userSpaceOnUse" id="color-4"><stop offset="0" stop-color="#7fea5b"/><stop offset="1" stop-color="#61b245"/></linearGradient><linearGradient x1="267.93007" y1="294.76187" x2="267.93007" y2="353.00803" gradientUnits="userSpaceOnUse" id="color-5"><stop offset="0" stop-color="#7fea5b"/><stop offset="1" stop-color="#61b245"/></linearGradient></defs><g transform="translate(26.95888,-191.04192)"><g data-paper-data="{&quot;isPaintingLayer&quot;:true}" fill-rule="nonzero" stroke-width="2" stroke-linejoin="miter" stroke-miterlimit="10" stroke-dasharray="" stroke-dashoffset="0" style="mix-blend-mode: normal"><path d="M247.45519,224.05804h126.41439v77.19196h-126.41439z" data-paper-data="{&quot;origPos&quot;:null}" fill="url(#color-1)" stroke="#663b00" stroke-linecap="butt"/><path d="M262.87911,196.4214c23.83124,-6.79957 92.90145,-4.79352 100.37828,0c9.95011,6.41074 27.8804,34.12949 15.37325,37.1665c-15.52661,3.7702 -24.14807,-8.98037 -40.5372,-8.33864c-16.38913,0.64173 -18.16659,11.15059 -31.27756,11.15059c-13.11098,0 -17.17669,-10.77498 -29.65081,-11.15059c-12.47412,-0.37561 -16.34509,8.28292 -32.08505,9.29163c-15.73996,1.00871 7.0948,-35.03943 17.79911,-38.11949z" data-paper-data="{&quot;origPos&quot;:null}" fill="url(#color-2)" stroke="#006622" stroke-linecap="round"/><path d="M-10.05629,322h653.54597v45h-653.54597z" data-paper-data="{&quot;origPos&quot;:null}" fill="url(#color-3)" stroke="#763e13" stroke-linecap="butt"/><path d="" data-paper-data="{&quot;origPos&quot;:null}" fill="url(#color-4)" stroke="#006622" stroke-linecap="round"/><path d="M380.58294,295.30732c29.32735,-0.2842 290.55244,1.69269 290.55244,1.69269c4.52503,0.54759 -3.70362,37.89371 -21.41319,45.62286c-15.37204,6.70896 -38.81254,-16.06683 -55.7685,-15.56412c-18.18868,0.53925 -31.66394,22.01897 -67.25386,16.56679c-31.20078,-4.77979 -64.6221,-19.66901 -74.82799,-19.62552c-21.84748,0.09309 -34.56434,21.133 -53.43263,20.501c-22.45203,-0.761 -47.45557,-23.725 -69.742,-21.501c-23.51145,0.741 -36.08937,26.412 -59.55207,27c-21.99623,0.547 -40.58128,-24.069 -62.68276,-26c-23.39382,-1.014 -45.27939,20.922 -68.61131,20.501c-7.01016,-0.12813 -30.15938,-21.24605 -52.64284,-23.51401c-38.05702,-3.83889 -80.26703,28.34885 -90.90798,21.77473c-5.63835,-3.496 -31.23785,-36.73473 -14.8676,-38.76173c65.48181,-8.108 220.22439,-6.817 285.84318,-8c66.323,-0.815 70.29325,-0.25647 115.3071,-0.69269z" data-paper-data="{&quot;index&quot;:null}" fill="url(#color-5)" stroke="#006622" stroke-linecap="round"/></g></g></svg>