<svg version="1.1" xmlns="http://www.w3.org/2000/svg" xmlns:xlink="http://www.w3.org/1999/xlink" width="385.90747" height="206.05399" viewBox="0,0,385.90747,206.05399"><defs><linearGradient x1="159.68408" y1="212.31945" x2="159.68408" y2="409.93003" gradientUnits="userSpaceOnUse" id="color-1"><stop offset="0" stop-color="#e4d686"/><stop offset="1" stop-color="#92b176"/></linearGradient><linearGradient x1="159.68408" y1="212.31945" x2="159.68408" y2="409.93003" gradientUnits="userSpaceOnUse" id="color-2"><stop offset="0" stop-color="#867347"/><stop offset="1" stop-color="#637b4a"/></linearGradient></defs><g transform="translate(21.82704,-211.88268)"><g data-paper-data="{&quot;isPaintingLayer&quot;:true}" fill="url(#color-1)" fill-rule="nonzero" stroke="url(#color-2)" stroke-width="2" stroke-linecap="butt" stroke-linejoin="miter" stroke-miterlimit="10" stroke-dasharray="" stroke-dashoffset="0" style="mix-blend-mode: normal"><path d="M-0.09836,407.52926c-19.28323,-1.8092 -36.00291,-187.78389 2.54502,-193.31717c51.78954,-7.43402 55.14717,18.47527 80.14527,24.22942c26.32169,6.05882 56.50399,7.85406 77.38755,9.41264c22.27962,1.66277 29.85804,18.16934 57.05794,18.77251c36.74957,0.81493 61.93805,21.32371 97.38665,23.36905c35.51947,2.04942 46.26574,36.4046 48.04509,58.41617c6.30917,78.04821 -37.77508,64.0744 -60.66692,67.77542c-22.89184,3.70102 -288.99051,-7.44677 -301.9006,-8.65803z"/></g></g></svg>