<svg version="1.1" xmlns="http://www.w3.org/2000/svg" xmlns:xlink="http://www.w3.org/1999/xlink" width="719.06245" height="157.51327" viewBox="0,0,719.06245,157.51327"><g transform="translate(31.68802,-205.70423)"><g data-paper-data="{&quot;isPaintingLayer&quot;:true}" fill-rule="nonzero" stroke-linecap="butt" stroke-linejoin="miter" stroke-miterlimit="10" stroke-dasharray="" stroke-dashoffset="0" style="mix-blend-mode: normal"><path d="M683.87443,295.15294v-25.91041h-57.39108v25.91041z" fill="#674521" stroke="#4b3318" stroke-width="7"/><path d="M659.17476,359.71751v-25.91041h-86.40133v25.91041z" fill="#674521" stroke="#4b3318" stroke-width="7"/><path d="M47.31545,359.71751v-25.91041h-62.94917v25.91041z" fill="#674521" stroke="#4b3318" stroke-width="7"/><path d="M-28.18802,295.15294v-25.91041h130.29661v25.91041z" fill="#674521" stroke="#4b3318" stroke-width="7"/><path d="M496.18674,295.15294v-25.91041h130.29661v25.91041z" fill="#674521" stroke="#4b3318" stroke-width="7"/><path d="M-22.61442,327.61542v-25.91041h34.00495v25.91042z" fill="#805c39" stroke="#674521" stroke-width="7"/><path d="M47.31545,359.71751v-25.91041h130.29661v25.91041z" fill="#674521" stroke="#4b3318" stroke-width="7"/><g stroke-width="7"><g fill="#674521" stroke="#4b3318"><path d="M178.21256,359.71751v-25.91041h130.29661v25.91041z"/><path d="M310.34469,359.71751v-25.91041h130.29661v25.91041z"/><path d="M442.47683,359.71751v-25.91041h130.29661v25.91041z"/></g><g><path d="M101.63598,295.15294v-25.91041h130.29661v25.91041z" fill="#674521" stroke="#4b3318"/><path d="M140.20377,327.61542v-25.91041h130.29661v25.91042z" fill="#805c39" stroke="#674521"/><path d="M233.76811,295.15294v-25.91041h130.29661v25.91041z" fill="#674521" stroke="#4b3318"/><path d="M272.3359,327.61542v-25.91041h130.29661v25.91042z" fill="#805c39" stroke="#674521"/><path d="M365.90025,295.15294v-25.91041h130.29661v25.91041z" fill="#674521" stroke="#4b3318"/><path d="M404.46804,327.61542v-25.91041h130.29661v25.91042z" fill="#805c39" stroke="#674521"/></g><g fill="#805c39" stroke="#674521"><path d="M198.76233,263.05084v-25.91041h130.29661v25.91042z"/><path d="M71.92785,263.05084v-25.91041h125.7921v25.91042z"/><path d="M330.89446,263.05084v-25.91041h130.29661v25.91042z"/></g></g><path d="M534.5326,327.61542v-25.91041h130.29661v25.91042z" fill="#805c39" stroke="#674521" stroke-width="7"/><path d="M9.37043,327.61542v-25.91041h130.29661v25.91042z" fill="#805c39" stroke="#674521" stroke-width="7"/><path d="M462.34933,263.05084v-25.91041h130.29661v25.91042z" fill="#805c39" stroke="#674521" stroke-width="7"/><path d="M71.92785,263.05084v-25.91041h-88.09157v25.91042z" fill="#805c39" stroke="#674521" stroke-width="7"/><path d="M655.62664,263.05084v-25.91041h-62.9807v25.91042z" fill="#805c39" stroke="#674521" stroke-width="7"/><g stroke="none"><path d="M77.00001,206.37091h487v27.70871h-487z" data-paper-data="{&quot;origPos&quot;:null,&quot;index&quot;:null}" fill="#ececec" stroke-width="1"/><path d="M80.50001,234.11905v-28.41481h43.5v28.41481z" data-paper-data="{&quot;origPos&quot;:null,&quot;index&quot;:null}" fill="#616161" stroke-width="0"/><path d="M167.49701,234.45239v-28.41481h43.5v28.41481z" data-paper-data="{&quot;origPos&quot;:null,&quot;index&quot;:null}" fill="#616161" stroke-width="0"/><path d="M430.49701,234.45239v-28.41481h43.5v28.41481z" data-paper-data="{&quot;origPos&quot;:null,&quot;index&quot;:null}" fill="#616161" stroke-width="0"/><path d="M516.50001,234.45239v-28.41481h43.5v28.41481z" data-paper-data="{&quot;origPos&quot;:null,&quot;index&quot;:null}" fill="#616161" stroke-width="0"/><path d="M254.49701,234.45239v-28.41481h43.5v28.41481z" data-paper-data="{&quot;origPos&quot;:null,&quot;index&quot;:null}" fill="#616161" stroke-width="0"/><path d="M341.49701,234.34839v-28.41481h43.5v28.41481z" data-paper-data="{&quot;origPos&quot;:null,&quot;index&quot;:null}" fill="#616161" stroke-width="0"/><path d="M-1.49113,234.70424v-29h125.49114l-30.74719,29.25741z" data-paper-data="{&quot;origPos&quot;:null,&quot;index&quot;:null}" fill="#cc1919" stroke-width="0"/><path d="M549.47533,234.61273l-32.47533,-28.90849h128.42777v29z" data-paper-data="{&quot;origPos&quot;:null,&quot;index&quot;:null}" fill="#cc1919" stroke-width="0"/></g></g></g></svg>