<svg version="1.1" xmlns="http://www.w3.org/2000/svg" xmlns:xlink="http://www.w3.org/1999/xlink" width="175.87822" height="141.31918" viewBox="0,0,175.87822,141.31918"><g transform="translate(-152.06089,-109.34042)"><g data-paper-data="{&quot;isPaintingLayer&quot;:true}" fill-rule="nonzero" stroke-linejoin="miter" stroke-miterlimit="10" stroke-dasharray="" stroke-dashoffset="0" style="mix-blend-mode: normal"><g data-paper-data="{&quot;origRot&quot;:0}" stroke="none" stroke-linecap="butt"><g data-paper-data="{&quot;origPos&quot;:null}" stroke-width="0"><path d="M204.38569,166.39765l6.31586,-14.86818c0,0 9.22496,2.2027 18.34061,5.9521c9.11564,3.74939 20.69395,8.18414 7.33198,11.22814c-2.04752,4.97804 -3.43991,8.66598 -12.55556,4.91659z" data-paper-data="{&quot;origRot&quot;:0,&quot;origPos&quot;:null}" fill="#41c3ff"/><g data-paper-data="{&quot;origPos&quot;:null}" fill="#ffffff"><path d="M184.59138,167.99241c-10.80535,-3.14587 -7.23933,-11.84053 -5.06108,-21.98367c1.99617,-9.29517 15.44167,-14.10649 22.19964,-11.42611c9.3154,3.69472 4.8253,14.57952 0.80974,23.19692c-4.01553,8.61743 -7.85899,13.15026 -17.94833,10.21284z" data-paper-data="{&quot;origRot&quot;:0,&quot;origPos&quot;:null}"/><path d="M199.52605,171.21783c-6.37686,-2.72446 -3.26193,-3.64837 2.18693,-16.18366c4.78313,-11.00373 5.24651,-12.89468 11.17143,-10.69725c5.29629,1.96428 0.47065,8.95683 -2.62083,15.61407c-3.09145,6.65721 -7.0139,12.85772 -10.73756,11.2668z" data-paper-data="{&quot;origRot&quot;:0,&quot;origPos&quot;:null}"/></g></g><path d="M187.53298,140.62832l7.35427,4.7715l7.49034,-2.68095l-3.91425,7.19987l5.22137,6.32183l-8.23479,-0.58655l-4.51646,8.30954l-1.47264,-9.16755l-8.00313,-2.90017l7.77265,-3.35453z" data-paper-data="{&quot;origPos&quot;:null,&quot;origRot&quot;:0}" fill="#41c3ff" stroke-width="NaN"/></g><g data-paper-data="{&quot;origRot&quot;:0}" stroke="none" stroke-linecap="butt"><g data-paper-data="{&quot;origPos&quot;:null,&quot;index&quot;:null,&quot;origRot&quot;:0}" stroke-width="0"><path d="M272.4917,196.33045c3.56347,4.0342 -0.20963,14.06889 -7.59695,20.59426c-7.38734,6.52533 -15.38398,11.62491 -15.38398,11.62491l-10.83264,-11.98364c0,0 10.30325,-11.61781 16.24496,-16.86622c7.38734,-6.52533 14.00511,-7.40352 17.56861,-3.36931z" data-paper-data="{&quot;origRot&quot;:0,&quot;origPos&quot;:null}" fill="#41c3ff"/><g data-paper-data="{&quot;origPos&quot;:null}" fill="#ffffff"><path d="M239.75328,225.31375c6.61388,6.82947 14.41793,15.64621 6.82399,22.18527c-5.50913,4.74383 -19.78881,4.59616 -24.71614,-3.5344c-5.37681,-8.87232 -11.59122,-15.92181 -2.4097,-22.42966c8.57309,-6.0766 13.68799,-3.05068 20.30185,3.77877z" data-paper-data="{&quot;origRot&quot;:0,&quot;origPos&quot;:null}"/><path d="M246.34169,220.73484c5.09933,5.27946 11.94711,10.30839 7.58498,13.89734c-4.87994,4.01493 -5.93649,2.37964 -14.05641,-6.45364c-9.25012,-10.06275 -12.49584,-9.91673 -7.36128,-14.57754c2.99822,-2.72158 8.73337,1.85441 13.83272,7.13384z" data-paper-data="{&quot;origRot&quot;:0,&quot;origPos&quot;:null}"/></g></g><path d="M221.41553,237.36233l6.64257,-5.72092l-0.47265,-7.9416l5.81313,5.77642l7.53249,-3.23882l-2.87248,7.73983l6.70938,6.66568l-9.21262,-1.15753l-5.02836,6.86856l-1.04002,-8.40153z" data-paper-data="{&quot;origPos&quot;:null,&quot;origRot&quot;:0}" fill="#41c3ff" stroke-width="NaN"/></g><g data-paper-data="{&quot;origRot&quot;:0}" stroke="none" stroke-width="0" stroke-linecap="butt"><path d="M182.12532,212.48953c-4.62353,0.17481 -6.52191,5.3689 -7.5569,5.18875c-4.18765,-0.72888 -7.11245,-2.77358 -8.97056,-9.76703c-2.30169,-8.66296 -1.61361,-15.42624 3.05496,-23.07798c3.17969,-5.21152 5.7715,-0.53835 11.50433,1.56049c2.05711,0.75314 4.75454,1.3309 10.2267,1.93006c6.84164,0.7491 25.31402,6.0163 25.31402,6.0163c0,0 13.74913,13.99584 6.40687,19.34743c-6.41871,4.67846 -29.29154,-1.60205 -39.97935,-1.19803z" data-paper-data="{&quot;origPos&quot;:null}" fill="#434343"/><path d="M159.52894,219.36323c-3.94705,-0.06693 -5.73858,-4.11488 -6.72117,-7.93823c-0.64393,-2.50561 -0.08483,-14.59541 3.53252,-20.53809c1.12303,-1.84493 3.62644,-3.31625 3.62644,-3.31625c0,0 -0.68251,-5.11248 0.79212,-5.07282c1.17056,0.03148 3.16472,0.03582 3.75311,1.18058c2.53264,4.92762 2.33026,16.49442 2.23633,22.03396c-0.12893,7.60457 -3.36111,13.71627 -7.21933,13.65082z" data-paper-data="{&quot;origPos&quot;:null}" fill="#90befc"/><path d="M164.45465,221.3552c-4.59656,-1.46189 -7.82056,-6.1418 -7.67478,-14.73886c0.14577,-8.59709 5.28799,-17.70921 5.28799,-17.70921c0,0 -0.22214,-6.22949 1.37686,-6.32833c3.30949,-0.20459 8.70318,-0.17266 8.85831,1.08129c0.57264,4.62917 -0.03784,3.74654 1.15094,9.80732c0.76967,3.92405 4.38484,10.51934 4.31705,14.51763c-0.14577,8.59708 -5.74798,15.77722 -13.31632,13.37026z" data-paper-data="{&quot;origPos&quot;:null}" fill="#6788b4"/></g><g data-paper-data="{&quot;origRot&quot;:0}" stroke="none" stroke-width="0" stroke-linecap="butt"><path d="M180.95627,188.80476c-4.60171,-0.48134 -7.21612,4.39179 -8.21522,4.06698c-4.04233,-1.31421 -6.64833,-3.75231 -7.49792,-10.93836c-1.05244,-8.9015 0.58595,-15.49931 6.2905,-22.4133c3.88531,-4.70899 5.78963,0.2839 11.16766,3.17302c1.9298,1.0367 4.51826,1.99043 9.85056,3.35805c6.66677,1.70989 24.20772,9.53845 24.20772,9.53845c0,0 -1.11389,7.34102 -2.83804,12.20573c-1.3607,3.83917 -6.0663,9.93658 -6.0663,9.93658c0,0 -16.26145,-7.81447 -26.89888,-8.92715z" data-paper-data="{&quot;origPos&quot;:null}" fill="#434343"/><path d="M157.61449,192.41111c-3.89781,-0.62489 -5.09843,-4.88568 -5.52998,-8.80957c-0.28282,-2.57151 1.98171,-14.46049 6.40377,-19.83135c1.37286,-1.66742 4.05926,-2.76962 4.05926,-2.76962c0,0 0.04795,-5.15762 1.50212,-4.90969c1.15434,0.19682 3.12781,0.48338 3.54823,1.69988c1.80972,5.23647 -0.02769,16.65817 -0.9047,22.1287c-1.20393,7.50977 -5.26861,13.10248 -9.07873,12.49166z" data-paper-data="{&quot;origPos&quot;:null}" fill="#90befc"/><path d="M162.20867,195.08022c-4.34338,-2.09773 -6.87255,-7.18687 -5.51148,-15.67674c1.36106,-8.48989 7.74118,-16.78253 7.74118,-16.78253c0,0 0.66178,-6.19822 2.25865,-6.06974c3.30512,0.26587 8.64001,1.06085 8.6161,2.32408c-0.08831,4.66365 -0.56772,3.7035 -0.24873,9.87151c0.20655,3.99348 2.85187,11.03408 2.21885,14.98251c-1.36106,8.48989 -7.92311,14.80485 -15.07463,11.35094z" data-paper-data="{&quot;origPos&quot;:null}" fill="#6788b4"/></g><g data-paper-data="{&quot;origRot&quot;:0}"><path d="M248.61891,214.59795c-19.83304,8.15402 -31.40092,4.23566 -38.89801,-15.59769c-7.85451,-20.77892 3.53578,-26.59053 13.12356,-30.32664c10.40115,-4.05305 18.5744,-8.25023 28.32061,-2.80756c7.26123,4.05498 7.48491,11.44518 10.50455,19.19437c5.58384,14.32959 6.39009,21.54475 -13.05072,29.53752z" data-paper-data="{&quot;origPos&quot;:null}" fill="#434343" stroke="none" stroke-width="0" stroke-linecap="butt"/><path d="M249.27694,214.61325c0,0 -8.22673,-15.53415 -13.07337,-26.85629c-4.44553,-10.38514 -5.02756,-22.38422 -5.02756,-22.38422c0,0 12.65339,-6.00276 20.64523,-0.45432c5.22882,3.63017 8.4696,8.74129 11.41046,15.784c2.94088,7.04271 3.76453,15.62654 2.25973,20.33515c-3.55453,11.12234 -16.21449,13.57565 -16.21449,13.57565z" data-paper-data="{&quot;origPos&quot;:null}" fill="#41c3ff" stroke="none" stroke-width="0" stroke-linecap="butt"/><path d="M264.08528,193.74542c0,0 -5.66687,4.53421 -9.38864,6.45369c-4.78033,2.46543 -14.56227,5.04425 -14.56227,5.04425" data-paper-data="{&quot;origPos&quot;:null,&quot;origRot&quot;:0}" fill="none" stroke="#434343" stroke-width="10" stroke-linecap="round"/><path d="M255.69795,173.64c0,0 -6.2045,3.76515 -10.14281,5.18841c-5.05844,1.82808 -15.09141,3.12321 -15.09141,3.12321" data-paper-data="{&quot;origPos&quot;:null}" fill="none" stroke="#434343" stroke-width="10" stroke-linecap="round"/><path d="M226.23905,181.18905l4.1059,-1.07988l1.48031,-3.5571l1.30391,3.74846l3.96628,0.18943l-2.89352,2.75905l1.50522,4.32583l-3.76422,-2.45976l-3.64695,1.92215l1.331,-3.87772z" data-paper-data="{&quot;origPos&quot;:null,&quot;origRot&quot;:0}" fill="#41c3ff" stroke="none" stroke-width="NaN" stroke-linecap="butt"/><path d="M235.80308,205.05813l3.91836,-1.63429l0.97705,-3.72687l1.80704,3.5335l3.95466,-0.35784l-2.48658,3.1308l2.08585,4.07767l-4.06674,-1.91867l-3.34789,2.40544l0.78504,-4.02392z" data-paper-data="{&quot;origPos&quot;:null,&quot;origRot&quot;:0}" fill="#41c3ff" stroke="none" stroke-width="NaN" stroke-linecap="butt"/></g><path d="M326.46063,159.94247c-1.86902,3.40457 -14.30968,4.00274 -22.77423,0.87989c-6.82071,-2.5164 -2.7625,-8.30986 -1.48496,-11.77264c1.27754,-3.46283 14.3657,2.22395 21.18646,4.74034c6.82073,2.51641 4.28255,3.94867 3.07276,6.15239z" fill="#000000" stroke="none" stroke-width="0" stroke-linecap="butt"/><path d="M240.55771,172.91359c-1.30939,-1.95957 -0.95036,-4.27607 1.42255,-6.3564c2.75314,-2.41372 3.90753,-7.42833 5.21692,-5.46876c0,0 6.51321,3.50565 6.0293,6.4503c0,0 -0.03067,9.00794 -1.68679,9.8396c0,0 -2.15599,0.63125 -6.49218,-1.20544c-2.34939,-0.99512 -3.18046,-1.29971 -4.48984,-3.25929z" data-paper-data="{&quot;origRot&quot;:0}" fill="#e7be7a" stroke="none" stroke-width="0" stroke-linecap="butt"/><path d="M260.66438,138.13249c3.74529,2.46874 36.14085,10.99338 41.53212,13.32993c7.97628,3.45692 3.01318,9.97668 0.58654,18.32431c-2.79009,9.59795 2.16214,16.26458 -4.356,23.84215c-2.51312,2.92155 -7.45928,3.92036 -11.12482,5.11001c-2.07941,0.67487 -5.66948,3.62932 -15.9961,0.059c-16.64946,-10.21118 -19.91594,-16.76381 -21.54266,-21.65219c-1.79385,-4.75444 -0.05748,-5.45257 -1.38916,-11.1321c-0.40823,-1.741 -1.22915,-2.89221 -1.41397,-2.96042c-9.8519,-3.6347 -12.26543,-13.77099 -9.42643,-21.46618c2.83899,-7.69519 8.65643,-12.63621 14.1655,-10.60374c5.50905,2.03246 7.66268,6.29089 8.96494,7.14928z" fill="#ffdebd" stroke="none" stroke-width="0" stroke-linecap="butt"/><path d="M304.61386,159.96622c-1.37875,4.7679 -4.89174,7.94041 -7.84648,7.08596c-2.95475,-0.85443 -4.2324,-5.41223 -2.85363,-10.18012c1.37875,-4.7679 4.89173,-7.94039 7.8465,-7.08596c2.95475,0.85443 4.23237,5.41223 2.85364,10.18014z" data-paper-data="{&quot;origRot&quot;:0}" fill="#ffffff" stroke="none" stroke-width="0" stroke-linecap="butt"/><path d="M267.81188,149.21341c-0.91425,2.47807 0.15192,10.87496 -2.47649,11.13623c-3.05766,0.30395 -2.33844,-4.02918 -6.04931,-4.66042c-2.7566,-0.46889 -2.55836,-6.1048 -1.0098,-10.30218c1.54854,-4.19737 3.03275,-8.26916 5.69003,-7.39869c11.18788,3.665 5.39415,7.0277 3.84559,11.22507z" fill="#e7be7a" stroke="none" stroke-width="0" stroke-linecap="butt"/><g stroke="none" stroke-width="1" stroke-linecap="butt"><path d="M296.49429,165.74964c-0.32792,-1.38294 -0.26071,-3.11217 0.2777,-4.85667c0.53844,-1.74462 1.44742,-3.17856 2.4816,-4.08379c1.0345,-0.90626 2.19262,-1.28559 3.23032,-0.92175c1.03767,0.36396 1.75825,1.40215 2.08595,2.78614c0.32802,1.38296 0.26083,3.11208 -0.2776,4.85669c-0.53841,1.74449 -1.44752,3.17854 -2.48167,4.08365c-1.03452,0.90638 -2.19265,1.28571 -3.23032,0.92175c-1.03769,-0.36385 -1.75828,-1.40204 -2.08598,-2.78603z" fill="#ffe008"/><path d="M298.3937,165.22065c-0.17539,-1.08936 -0.06635,-2.47176 0.37049,-3.88699c0.43675,-1.41525 1.119,-2.59664 1.86687,-3.36239c0.74924,-0.76643 1.56494,-1.11678 2.26974,-0.86969c0.70468,0.24718 1.16594,1.04539 1.34191,2.13634c0.17539,1.08936 0.06635,2.47176 -0.3704,3.88701c-0.43685,1.41523 -1.1191,2.59662 -1.86697,3.36237c-0.74924,0.76643 -1.56494,1.11678 -2.26974,0.86969c-0.70468,-0.24718 -1.16594,-1.04539 -1.34191,-2.13634z" fill="#000000"/></g><path d="M290.4877,160.15624c-1.16384,4.82483 -4.5312,8.15152 -7.52127,7.43029c-2.99006,-0.72125 -4.47053,-5.21727 -3.30669,-10.04215c1.16383,-4.82484 4.5312,-8.15153 7.52127,-7.43028c2.99007,0.72125 4.47054,5.21728 3.3067,10.04215z" data-paper-data="{&quot;origRot&quot;:0}" fill="#ffffff" stroke="none" stroke-width="0" stroke-linecap="butt"/><path d="M322.5319,129.32433c-2.96122,15.03736 -6.00329,14.83229 -15.30824,16.56323c-13.55802,2.52208 -27.60219,-4.18246 -41.3717,-3.41967c-3.61549,0.20026 -10.35037,-6.01193 -13.7476,-7.26526c-6.94828,-2.56345 -9.03678,-8.97575 -7.14172,-14.99657c4.18006,-13.2805 10.62311,-10.96095 17.5714,-8.3975c0,0 7.17923,4.08861 8.32382,9.11999c0,0 17.02329,-13.38345 29.02589,-11.38462c15.45071,2.57305 24.77468,8.98165 22.64814,19.78044z" fill="#434343" stroke="none" stroke-width="0" stroke-linecap="butt"/><path d="M316.7946,136.40918c-1.91634,5.19422 -4.74806,8.58929 -15.05982,5.12909c-10.88592,-3.65287 -10.03653,-8.48673 -8.12021,-13.68095c1.91634,-5.19422 8.65885,-7.49061 15.05984,-5.12909c6.40099,2.36153 10.03652,8.48673 8.12021,13.68095z" fill="#ffffff" stroke="none" stroke-width="0" stroke-linecap="butt"/><path d="M327.57666,158.08765c-0.49089,0.74546 -39.65396,-7.61411 -50.48386,-10.31447c-5.26345,-1.3124 -15.35058,-5.49227 -14.85971,-6.23773c1.81464,-2.75569 5.55441,-6.84967 10.97484,-6.63618c6.5503,0.25799 28.51701,2.55551 43.44901,8.32522c6.10412,2.35864 12.73434,12.10743 10.91969,14.86315z" fill="#1c1c1c" stroke="none" stroke-width="0" stroke-linecap="butt"/><path d="M298.74612,136.48566l1.39136,-3.21987l5.10347,1.07879l-0.75837,-2.18974l-3.28511,-1.70238l-0.83743,-3.56189l2.84569,-1.9922l7.9393,1.59064l0.49947,3.71481l-7.15936,-2.02418l3.3891,2.90175l2.02125,3.48585l-0.63184,2.55873l-2.71424,0.77712z" data-paper-data="{&quot;origRot&quot;:0}" fill="#ffe008" stroke="none" stroke-width="0" stroke-linecap="butt"/><path d="M291.76239,196.45091c-3.12733,-0.9356 -7.19971,-3.43835 -13.89335,-7.24501c-8.679,-4.93575 -7.59359,-11.91746 -7.59359,-11.91746c0,0 -2.99683,-2.54359 -4.52382,-4.34024c-1.19522,-1.40634 2.5877,-6.06014 3.45627,-5.91599c5.05853,0.83942 4.92989,5.52345 7.83807,8.82365c0,0 10.66812,8.47705 16.46017,10.24685c0,0 10.73793,-0.90722 13.50687,0.32777c1.37325,0.61249 0.2942,3.56573 -0.69954,4.89173c0,0 -2.70339,3.53597 -5.23819,4.18936c-2.53478,0.65338 -6.18556,1.87498 -9.31287,0.93936z" fill="#e7be7a" stroke="none" stroke-width="0" stroke-linecap="butt"/><path d="M308.65543,180.50204c-2.79452,6.1119 -2.82814,10.96394 -16.39908,5.68734c-6.25475,-2.43195 -10.85798,-8.60047 -8.8013,-14.17509c2.05666,-5.57463 10.66793,-10.21426 17.12538,-8.38747c9.40893,2.66177 12.54586,7.0971 8.07503,16.87522z" fill="#ffdebd" stroke="none" stroke-width="0" stroke-linecap="butt"/><g fill="none" stroke="#f6b09a" stroke-width="3.5" stroke-linecap="round"><path d="M245.10066,139.72433c0,0 3.42147,-0.60486 5.99682,3.50703c3.69349,5.89713 -1.85296,11.59022 -1.85296,11.59022" data-paper-data="{&quot;origPos&quot;:null}"/><path d="M245.32596,147.05427l5.70003,2.10291" data-paper-data="{&quot;origPos&quot;:null}"/><path d="M247.15875,154.20628l1.22143,0.45063" data-paper-data="{&quot;origPos&quot;:null}"/></g><path d="M285.07056,146.66626c-1.45078,-0.09242 -1.457,0.11504 -2.53687,1.0883c-1.11399,1.00403 -3.09054,2.09721 -3.09054,2.09721c0,0 -0.11418,-3.95684 0.82948,-6.51461c0.64071,-1.7367 2.70118,-4.41552 5.60199,-4.03504c9.16707,3.03568 3.32728,10.56455 3.32728,10.56455c0,0 -2.59435,-3.1408 -4.13134,-3.20038z" fill="#38291e" stroke="none" stroke-width="0" stroke-linecap="butt"/><path d="M302.45181,150.05018c-1.47184,-0.44679 -4.95129,1.67184 -4.95129,1.67184c0,0 -3.05378,-9.02561 6.60194,-8.89356c2.86554,0.58994 3.93571,3.79566 3.97269,5.64636c0.05448,2.72576 -1.34858,6.42728 -1.34858,6.42728c0,0 -1.50983,-1.67993 -2.23383,-2.99329c-0.70179,-1.27308 -0.63979,-1.47119 -2.04089,-1.8587z" data-paper-data="{&quot;index&quot;:null,&quot;origRot&quot;:0}" fill="#38291e" stroke="none" stroke-width="0" stroke-linecap="butt"/><g stroke="none" stroke-width="1" stroke-linecap="butt"><path d="M282.51963,164.63777c-0.32792,-1.38294 -0.26071,-3.11217 0.2777,-4.85667c0.53844,-1.74462 1.44742,-3.17856 2.4816,-4.08379c1.0345,-0.90626 2.19262,-1.28559 3.23032,-0.92175c1.03767,0.36396 1.75825,1.40215 2.08595,2.78614c0.32802,1.38296 0.26083,3.11208 -0.2776,4.85669c-0.53841,1.74449 -1.44752,3.17854 -2.48167,4.08365c-1.03452,0.90638 -2.19265,1.28571 -3.23032,0.92175c-1.03769,-0.36385 -1.75828,-1.40204 -2.08598,-2.78603z" fill="#ffe008"/><path d="M284.41904,164.10879c-0.17539,-1.08936 -0.06635,-2.47176 0.37049,-3.88699c0.43675,-1.41525 1.119,-2.59663 1.86687,-3.36238c0.74924,-0.76643 1.56494,-1.11678 2.26974,-0.86969c0.70468,0.24718 1.16594,1.0454 1.34191,2.13635c0.17539,1.08936 0.06635,2.47176 -0.3704,3.88701c-0.43685,1.41523 -1.1191,2.59661 -1.86697,3.36236c-0.74924,0.76643 -1.56494,1.11678 -2.26974,0.8697c-0.70468,-0.24718 -1.16594,-1.0454 -1.34191,-2.13635z" fill="#000000"/></g></g></g></svg>