<svg version="1.1" xmlns="http://www.w3.org/2000/svg" xmlns:xlink="http://www.w3.org/1999/xlink" width="721.29029" height="409.38393" viewBox="0,0,721.29029,409.38393"><defs><radialGradient cx="42.74894" cy="180.06852" r="521.89326" gradientUnits="userSpaceOnUse" id="color-1"><stop offset="0" stop-color="#ececec"/><stop offset="1" stop-color="#616161"/></radialGradient><linearGradient x1="93.63896" y1="180.06852" x2="-8.14105" y2="180.06852" gradientUnits="userSpaceOnUse" id="color-2"><stop offset="0" stop-color="#ececec" stop-opacity="0"/><stop offset="1" stop-color="#ececec"/></linearGradient><linearGradient x1="30.83688" y1="-26.39924" x2="30.83688" y2="382.98469" gradientUnits="userSpaceOnUse" id="color-3"><stop offset="0" stop-color="#000000" stop-opacity="0.50196"/><stop offset="1" stop-color="#000000" stop-opacity="0.8"/></linearGradient></defs><g transform="translate(73.74169,26.39925)"><g data-paper-data="{&quot;isPaintingLayer&quot;:true}" fill-rule="nonzero" stroke-linecap="butt" stroke-linejoin="miter" stroke-miterlimit="10" stroke-dasharray="" stroke-dashoffset="0" style="mix-blend-mode: normal"><path d="M16.92462,325.18289v-25.91041h158.75306v25.91041z" data-paper-data="{&quot;index&quot;:null}" fill="#674521" stroke="#4b3318" stroke-width="7"/><path d="M-70.24169,357.64538v-25.91042h142.30862v25.91041z" data-paper-data="{&quot;index&quot;:null}" fill="#805c39" stroke="#674521" stroke-width="7"/><path d="M-53.40017,260.55578v-25.91041h142.30862v25.91041z" data-paper-data="{&quot;index&quot;:null}" fill="#674521" stroke="#4b3318" stroke-width="7"/><path d="M88.61483,260.55578v-25.91041h142.30862v25.91041z" data-paper-data="{&quot;index&quot;:null}" fill="#674521" stroke="#4b3318" stroke-width="7"/><path d="M139.19463,293.01824v-25.91041h130.29661v25.91041z" data-paper-data="{&quot;index&quot;:null}" fill="#805c39" stroke="#674521" stroke-width="7"/><path d="M16.82221,293.01824v-25.91041h121.33006v25.91041z" data-paper-data="{&quot;index&quot;:null}" fill="#805c39" stroke="#674521" stroke-width="7"/><path d="M176.72006,325.18289v-25.91041h130.29661v25.91041z" data-paper-data="{&quot;index&quot;:null}" fill="#674521" stroke="#4b3318" stroke-width="7"/><path d="M215.28785,357.64538v-25.91042h130.29661v25.91041z" data-paper-data="{&quot;index&quot;:null}" fill="#805c39" stroke="#674521" stroke-width="7"/><path d="M71.93686,357.64538v-25.91042h142.30862v25.91041z" data-paper-data="{&quot;index&quot;:null}" fill="#805c39" stroke="#674521" stroke-width="7"/><g data-paper-data="{&quot;index&quot;:null}" fill="#cc1919" stroke="none"><g><path d="M344.78297,365.39148v-10.28539h11.9965v10.28539z" stroke-width="NaN"/><path d="M332.57226,355.10609v-10.28539h11.9965v10.28539z" stroke-width="NaN"/><path d="M320.23706,344.82492v-10.28539h11.9965v10.28539z" stroke-width="NaN"/><path d="M308.02634,334.53953v-10.28539h11.9965v10.28539z" stroke-width="NaN"/></g><g><path d="M295.69114,324.25837v-10.28539h11.9965v10.28539z" stroke-width="NaN"/><path d="M283.48042,313.97298v-10.28539h11.9965v10.28539z" stroke-width="NaN"/><path d="M271.14521,303.69182v-10.28539h11.9965v10.28539z" stroke-width="NaN"/><path d="M258.9345,293.40641v-10.28539h11.9965v10.28539z" stroke-width="NaN"/></g><g><path d="M246.59929,282.64697v-10.28539h11.9965v10.28539z" stroke-width="NaN"/><path d="M234.38858,272.36158v-10.28539h11.9965v10.28539z" stroke-width="NaN"/><path d="M222.05337,262.08042v-10.28539h11.9965v10.28539z" stroke-width="NaN"/><path d="M209.84265,251.79503v-10.28539h11.9965v10.28539z" stroke-width="NaN"/></g><g stroke-width="NaN"><path d="M197.50745,241.51387v-10.28539h11.99649v10.28539z" stroke-width="NaN"/></g></g><path d="M354.78679,335.00001h292.76181v31h-292.7618z" data-paper-data="{&quot;origPos&quot;:null,&quot;index&quot;:null}" fill="#cc1919" stroke="none" stroke-width="1"/><path d="M365.79881,372.50847l-206.2042,-172.67268h37.54054l205.70571,172.67268z" data-paper-data="{&quot;index&quot;:null}" fill="#cc1919" stroke="none" stroke-width="0"/><path d="M26.57114,200.00001h169.93939v31h-169.93937z" data-paper-data="{&quot;index&quot;:null}" fill="#cc1919" stroke="none" stroke-width="1"/><path d="" fill="#cc1919" stroke="none" stroke-width="1"/><path d="M643.68293,236.00001h-145.27392l53,-26h92.27392z" fill="#cc1919" stroke="none" stroke-width="1"/><g data-paper-data="{&quot;index&quot;:null}" stroke="none" stroke-width="0"><path d="M-8.14106,360.99945v-361.86186h101.78002v361.86186z" fill="url(#color-1)"/><path d="M-8.14106,360.99945v-361.86186h101.78002v361.86186z" fill="url(#color-2)"/></g><path d="M-6.29061,382.98469v-409.38393h74.25499v409.38393z" fill="url(#color-3)" stroke="none" stroke-width="0"/></g></g></svg>