<svg version="1.1" xmlns="http://www.w3.org/2000/svg" xmlns:xlink="http://www.w3.org/1999/xlink" width="106" height="137" viewBox="0,0,106,137"><defs><linearGradient x1="240.08072" y1="171.0733" x2="240.08072" y2="189.5469" gradientUnits="userSpaceOnUse" id="color-1"><stop offset="0" stop-color="#ffffff"/><stop offset="1" stop-color="#d1d1d1"/></linearGradient><linearGradient x1="240.08072" y1="171.0733" x2="240.08072" y2="189.5469" gradientUnits="userSpaceOnUse" id="color-2"><stop offset="0" stop-color="#343434"/><stop offset="1" stop-color="#090909"/></linearGradient><linearGradient x1="240.08072" y1="171.0733" x2="240.08072" y2="189.5469" gradientUnits="userSpaceOnUse" id="color-3"><stop offset="0" stop-color="#ffffff"/><stop offset="1" stop-color="#d1d1d1"/></linearGradient></defs><g transform="translate(-185,-111.5)"><g data-paper-data="{&quot;isPaintingLayer&quot;:true}" fill-rule="nonzero" stroke-linecap="butt" stroke-linejoin="miter" stroke-miterlimit="10" stroke-dasharray="" stroke-dashoffset="0" style="mix-blend-mode: normal"><path d="M234.16932,171.0733c6.4812,0.0772 10.3449,0.1387 11.5761,0.1852l0.0622,0.123c-0.2932,2.9864 -0.4469,4.5415 -0.4926,4.6795l-0.1237,0.0622l-6.0959,-0.7393c-0.1694,0.9852 -0.2924,1.6166 -0.3696,1.909c0.1387,0 0.2309,0.015 0.3082,0.0615c1.9397,-0.5699 2.9864,-0.8623 3.1401,-0.8623c3.0944,2.2322 4.8182,3.4948 5.1729,3.818c-0.5856,4.4801 -0.9088,6.7122 -0.9853,6.7122c-4.2026,1.6781 -6.3275,2.5246 -6.404,2.5246c-4.6337,-1.801 -7.0204,-2.7713 -7.1433,-2.8943c0.5083,-0.9852 1.2469,-2.5245 2.2171,-4.618h0.0615c0.0922,0 1.7545,0.8773 4.9877,2.6476h0.0614l1.8476,-1.8475c-0.0923,-0.1695 -0.7086,-0.8308 -1.8476,-1.9705h-0.0614c-1.6008,1.0625 -2.4481,1.6008 -2.5246,1.6008c-2.7862,-2.1242 -4.2026,-3.2324 -4.2491,-3.3246c0.4154,-4.819 0.6778,-7.4972 0.8008,-8.0671z" data-paper-data="{&quot;origPos&quot;:null}" fill="url(#color-1)" stroke="url(#color-2)" stroke-width="2.5"/><path d="M234.16932,171.0733c6.4812,0.0772 10.3449,0.1387 11.5761,0.1852l0.0622,0.123c-0.2932,2.9864 -0.4469,4.5415 -0.4926,4.6795l-0.1237,0.0622l-6.0959,-0.7393c-0.1694,0.9852 -0.2924,1.6166 -0.3696,1.909c0.1387,0 0.2309,0.015 0.3082,0.0615c1.9397,-0.5699 2.9864,-0.8623 3.1401,-0.8623c3.0944,2.2322 4.8182,3.4948 5.1729,3.818c-0.5856,4.4801 -0.9088,6.7122 -0.9853,6.7122c-4.2026,1.6781 -6.3275,2.5246 -6.404,2.5246c-4.6337,-1.801 -7.0204,-2.7713 -7.1433,-2.8943c0.5083,-0.9852 1.2469,-2.5245 2.2171,-4.618h0.0615c0.0922,0 1.7545,0.8773 4.9877,2.6476h0.0614l1.8476,-1.8475c-0.0923,-0.1695 -0.7086,-0.8308 -1.8476,-1.9705h-0.0614c-1.6008,1.0625 -2.4481,1.6008 -2.5246,1.6008c-2.7862,-2.1242 -4.2026,-3.2324 -4.2491,-3.3246c0.4154,-4.819 0.6778,-7.4972 0.8008,-8.0671z" data-paper-data="{&quot;origPos&quot;:null}" fill="url(#color-3)" stroke="none" stroke-width="0"/><path d="M185,248.5v-137h106v137z" fill="none" stroke="none" stroke-width="0"/></g></g></svg>