<svg version="1.1" xmlns="http://www.w3.org/2000/svg" xmlns:xlink="http://www.w3.org/1999/xlink" width="114.38654" height="41.98033" viewBox="0,0,114.38654,41.98033"><defs><linearGradient x1="203.79128" y1="159.00983" x2="203.79128" y2="200.9789" gradientUnits="userSpaceOnUse" id="color-1"><stop offset="0" stop-color="#702aa9"/><stop offset="1" stop-color="#3c185c"/></linearGradient><linearGradient x1="276.20874" y1="159.00983" x2="276.20874" y2="200.9789" gradientUnits="userSpaceOnUse" id="color-2"><stop offset="0" stop-color="#702aa9"/><stop offset="1" stop-color="#3c185c"/></linearGradient><linearGradient x1="240.37012" y1="159.02707" x2="240.37012" y2="200.99017" gradientUnits="userSpaceOnUse" id="color-3"><stop offset="0" stop-color="#702aa9"/><stop offset="1" stop-color="#3c185c"/></linearGradient><linearGradient x1="205.1724" y1="162.97236" x2="205.1724" y2="197.02762" gradientUnits="userSpaceOnUse" id="color-4"><stop offset="0" stop-color="#9d3bed"/><stop offset="1" stop-color="#7c31be"/></linearGradient></defs><g transform="translate(-182.80673,-159.00984)"><g data-paper-data="{&quot;isPaintingLayer&quot;:true}" fill-rule="nonzero" stroke-linejoin="miter" stroke-miterlimit="10" stroke-dasharray="" stroke-dashoffset="0" style="mix-blend-mode: normal"><g data-paper-data="{&quot;index&quot;:null}" stroke="#000000" stroke-width="0" stroke-linecap="butt"><path d="M182.80673,179.99437c0,-11.58944 9.39509,-20.98453 20.98453,-20.98453c11.58944,0 20.98453,9.39509 20.98453,20.98453c0,11.58944 -9.39509,20.98453 -20.98453,20.98453c-11.58944,0 -20.98453,-9.39509 -20.98453,-20.98453z" data-paper-data="{&quot;origPos&quot;:null,&quot;index&quot;:null}" fill="url(#color-1)"/><path d="M255.22422,179.99437c0,-11.58943 9.39509,-20.98453 20.98453,-20.98453c11.58943,0 20.98453,9.39509 20.98453,20.98453c0,11.58943 -9.39509,20.98453 -20.98453,20.98453c-11.58943,0 -20.98453,-9.39509 -20.98453,-20.98453z" data-paper-data="{&quot;origPos&quot;:null,&quot;index&quot;:null}" fill="url(#color-2)"/><path d="M204.29309,200.99017v-41.96308h72.15408v41.96308z" data-paper-data="{&quot;origPos&quot;:null,&quot;index&quot;:null}" fill="url(#color-3)"/></g><g><path d="M205.1724,162.97236c4.69771,0 8.95515,1.90752 12.0371,4.99053c3.08301,3.08195 4.99053,7.33939 4.99053,12.0371c0,4.69771 -1.90752,8.95515 -4.99053,12.0371c-3.08195,3.08301 -7.33939,4.99053 -12.0371,4.99053c-4.69771,0 -8.95515,-1.90752 -12.0371,-4.99053c-3.08301,-3.08195 -4.99053,-7.33939 -4.99053,-12.0371c0,-4.69771 1.90752,-8.95515 4.99053,-12.0371c3.08195,-3.08301 7.33939,-4.99053 12.0371,-4.99053z" data-paper-data="{&quot;origPos&quot;:null}" fill="url(#color-4)" stroke="#5f238c" stroke-width="1.25" stroke-linecap="butt"/><g fill="none" stroke-linecap="round"><path d="M200.0047,185.77644l-6.61562,-0.04926v-12.46621v-0.12466l16.73987,0.12466v2.70368" stroke="#5f238c" stroke-width="4.5"/><path d="M200.0047,185.77644l-6.61562,-0.04927v-12.46621v-0.12466l16.73987,0.12466v2.70368" stroke="#ffffff" stroke-width="2"/><g stroke="#5f238c" stroke-width="3"><path d="M198.32804,176.0033l6.75,6.75"/><path d="M205.14054,176.0033l-6.75,6.75" data-paper-data="{&quot;index&quot;:null}"/></g><g stroke="#ffffff" stroke-width="1"><path d="M198.32804,176.0033l6.75,6.75"/><path d="M205.14054,176.0033l-6.75,6.75" data-paper-data="{&quot;index&quot;:null}"/></g><path d="M216.73581,174.03216l-15.38811,15.46505" stroke="#5f238c" stroke-width="4.5"/><path d="M201.34771,189.4972l15.46505,-15.54197" stroke="#ffffff" stroke-width="2"/></g></g><text transform="translate(235.63115,188.56733) scale(0.65492,0.65492)" font-size="40" xml:space="preserve" data-paper-data="{&quot;origPos&quot;:null,&quot;index&quot;:null}" fill="#f7f7f7" fill-rule="nonzero" stroke="none" stroke-width="1" stroke-linecap="butt" stroke-linejoin="miter" stroke-miterlimit="10" stroke-dasharray="" stroke-dashoffset="0" font-family="&quot;Microsoft YaHei&quot;, &quot;微软雅黑&quot;, STXihei, &quot;华文细黑&quot;" font-weight="normal" text-anchor="start" style="mix-blend-mode: normal"><tspan x="0" dy="0">Off</tspan></text></g></g></svg>