<svg version="1.1" xmlns="http://www.w3.org/2000/svg" xmlns:xlink="http://www.w3.org/1999/xlink" width="143.7336" height="143.73361"><defs><linearGradient x1="240" y1="113.32985" x2="240" y2="246.67015" gradientUnits="userSpaceOnUse" id="color-1"><stop offset="0" stop-color="#61b0ff"/><stop offset="1" stop-color="#ff9869"/></linearGradient><radialGradient cx="232.0068" cy="154.49028" r="47.15254" gradientUnits="userSpaceOnUse" id="color-2"><stop offset="0" stop-color="#f99d47"/><stop offset="1" stop-color="#f88329"/></radialGradient><radialGradient cx="256.54025" cy="173.60043" r="18.55351" gradientUnits="userSpaceOnUse" id="color-3"><stop offset="0" stop-color="#f99d47"/><stop offset="1" stop-color="#f88329"/></radialGradient><radialGradient cx="210.74188" cy="155.89366" r="19.1302" gradientUnits="userSpaceOnUse" id="color-4"><stop offset="0" stop-color="#f99d47"/><stop offset="1" stop-color="#f88329"/></radialGradient><radialGradient cx="216.76012" cy="165.01033" r="17.9273" gradientUnits="userSpaceOnUse" id="color-5"><stop offset="0" stop-color="#f99d47"/><stop offset="1" stop-color="#f88329"/></radialGradient><radialGradient cx="259.86882" cy="153.58014" r="16.48682" gradientUnits="userSpaceOnUse" id="color-6"><stop offset="0" stop-color="#f99d47"/><stop offset="1" stop-color="#f88329"/></radialGradient><radialGradient cx="248.21129" cy="197.79245" r="16.93729" gradientUnits="userSpaceOnUse" id="color-7"><stop offset="0" stop-color="#f99d47"/><stop offset="1" stop-color="#f88329"/></radialGradient><radialGradient cx="239.99999" cy="179.99998" r="67.17002" gradientUnits="userSpaceOnUse" id="color-8"><stop offset="0" stop-color="#3c94ed" stop-opacity="0"/><stop offset="1" stop-color="#3c94ed"/></radialGradient></defs><g transform="translate(-168.1332,-108.1332)"><g data-paper-data="{&quot;isPaintingLayer&quot;:true}" fill="none" fill-rule="nonzero" stroke="none" stroke-width="none" stroke-linecap="butt" stroke-linejoin="miter" stroke-miterlimit="10" stroke-dasharray="" stroke-dashoffset="0" font-family="none" font-weight="none" font-size="none" text-anchor="none" style="mix-blend-mode: normal"><path d="M240,110.13321c19.2752,0 36.74421,7.8268 49.3899,20.47689c12.64989,12.64569 20.4769,30.11449 20.4769,49.38991c0,19.27542 -7.82701,36.74421 -20.4769,49.38991c-12.64569,12.65009 -30.1147,20.4769 -49.3899,20.4769c-19.27542,0 -36.74442,-7.8268 -49.39012,-20.4769c-12.64989,-12.64569 -20.47668,-30.11449 -20.47668,-49.38991c0,-19.27542 7.82679,-36.74421 20.47668,-49.38991c12.64569,-12.6501 30.11471,-20.47689 49.39012,-20.47689z" data-paper-data="{&quot;origPos&quot;:null}" id="ID0.4039921844378114" fill="#3c94ed" stroke="#23568d" stroke-width="4"/><path d="M239.99995,113.32985c18.3943,0 35.0619,7.4711 47.1305,19.5397c12.0686,12.0686 19.5397,28.7362 19.5397,47.1305c0,18.3943 -7.4711,35.0618 -19.5397,47.1305c-12.0686,12.0686 -28.7362,19.5396 -47.1305,19.5396c-18.3943,0 -35.0618,-7.471 -47.1305,-19.5396c-12.0686,-12.0687 -19.5396,-28.7362 -19.5396,-47.1305c0,-18.3943 7.471,-35.0619 19.5396,-47.1305c12.0687,-12.0686 28.7362,-19.5397 47.1305,-19.5397z" data-paper-data="{&quot;origPos&quot;:null}" id="ID0.11478918511420488" fill="url(#color-1)" stroke="none" stroke-width="1.3334"/><path d="M234.63756,177.2827h11.92105v67.80176h-11.92105z" data-paper-data="{&quot;origPos&quot;:null}" id="ID0.754550261888653" fill="#995900" stroke="none" stroke-width="1"/><path d="M239.9845,144.32449c6.84409,0 13.04514,2.48519 17.53587,6.49978c4.49073,4.01459 7.27044,9.55858 7.27044,15.67689c0,6.11831 -2.77971,11.6623 -7.27044,15.67689c-4.49073,4.01459 -10.69178,6.49978 -17.53587,6.49978c-6.84409,0 -13.04514,-2.48519 -17.53587,-6.49978c-4.49073,-4.01459 -7.27044,-9.55858 -7.27044,-15.67689c0,-6.11831 2.77971,-11.6623 7.27044,-15.67689c4.49073,-4.01459 10.69178,-6.49978 17.53587,-6.49978z" data-paper-data="{&quot;origPos&quot;:null}" id="ID0.051652148831635714" fill="url(#color-2)" stroke="none" stroke-width="1"/><path d="M261.87864,167.29005c2.95025,0 5.62393,0.93335 7.56005,2.44031c1.93528,1.50767 3.13383,3.58964 3.13383,5.8869c0,2.29726 -1.19856,4.37923 -3.13383,5.8869c-1.93612,1.50696 -4.6098,2.44031 -7.56005,2.44031c-2.95025,0 -5.62394,-0.93335 -7.56005,-2.44031c-1.93528,-1.50767 -3.13383,-3.58964 -3.13383,-5.8869c0,-2.29726 1.19856,-4.37923 3.13383,-5.8869c1.93612,-1.50696 4.60981,-2.44031 7.56005,-2.44031z" data-paper-data="{&quot;origPos&quot;:null}" id="ID0.3986465372145176" fill="url(#color-3)" stroke="none" stroke-width="1.09612"/><path d="M216.57864,149.40847c2.95025,0 5.62393,0.93335 7.56005,2.44031c1.93528,1.50767 3.13383,3.58964 3.13383,5.88689c0,2.29726 -1.19856,4.37923 -3.13383,5.8869c-1.93612,1.50696 -4.6098,2.44031 -7.56005,2.44031c-2.95025,0 -5.62393,-0.93335 -7.56005,-2.44031c-1.93528,-1.50767 -3.13384,-3.58964 -3.13384,-5.8869c0,-2.29726 1.19856,-4.37923 3.13384,-5.88689c1.93612,-1.50696 4.6098,-2.44031 7.56005,-2.44031z" data-paper-data="{&quot;origPos&quot;:null}" id="ID0.3986465372145176" fill="url(#color-4)" stroke="none" stroke-width="1.09612"/><path d="M221.55743,159.40112c2.95025,0 5.62393,0.93335 7.56005,2.44031c1.93528,1.50767 3.13383,3.58964 3.13383,5.8869c0,2.29726 -1.19856,4.37923 -3.13383,5.8869c-1.93612,1.50696 -4.6098,2.44031 -7.56005,2.44031c-2.95025,0 -5.62393,-0.93335 -7.56005,-2.44031c-1.93528,-1.50767 -3.13384,-3.58964 -3.13384,-5.8869c0,-2.29726 1.19856,-4.37923 3.13384,-5.8869c1.93612,-1.50696 4.6098,-2.44031 7.56005,-2.44031z" data-paper-data="{&quot;origPos&quot;:null}" id="ID0.3986465372145176" fill="url(#color-5)" stroke="none" stroke-width="1.09612"/><path d="M263.42137,147.97093c2.95025,0 5.62393,0.93335 7.56005,2.44031c1.93528,1.50767 3.13383,3.58964 3.13383,5.8869c0,2.29726 -1.19856,4.37923 -3.13383,5.88689c-1.93612,1.50696 -4.6098,2.44031 -7.56005,2.44031c-2.95025,0 -5.62393,-0.93335 -7.56005,-2.44031c-1.93528,-1.50767 -3.13383,-3.58964 -3.13383,-5.88689c0,-2.29726 1.19856,-4.37923 3.13383,-5.8869c1.93612,-1.50696 4.6098,-2.44031 7.56005,-2.44031z" data-paper-data="{&quot;origPos&quot;:null}" id="ID0.3986465372145176" fill="url(#color-6)" stroke="none" stroke-width="1.09612"/><path d="M251.43019,192.53464c2.95025,0 5.62393,0.93335 7.56005,2.44031c1.93528,1.50767 3.13383,3.58964 3.13383,5.8869c0,2.29726 -1.19856,4.37923 -3.13383,5.8869c-1.93612,1.50696 -4.6098,2.44031 -7.56005,2.44031c-2.95025,0 -5.62393,-0.93334 -7.56005,-2.44031c-1.93528,-1.50767 -3.13384,-3.58964 -3.13384,-5.8869c0,-2.29726 1.19856,-4.37923 3.13384,-5.8869c1.93612,-1.50696 4.6098,-2.44031 7.56005,-2.44031z" data-paper-data="{&quot;origPos&quot;:null}" id="ID0.3986465372145176" fill="url(#color-7)" stroke="none" stroke-width="1.09612"/><path d="M223.49904,114.88831c17.96432,-4.5526 36.09141,-1.38139 50.86489,7.41812c14.77348,8.79951 26.19518,23.22838 30.74778,41.19271c4.55261,17.96432 1.38136,36.0913 -7.41811,50.86488c-8.79951,14.77348 -23.22841,26.19508 -41.19273,30.74768c-17.96432,4.55261 -36.09128,1.38146 -50.86485,-7.41801c-14.7735,-8.7996 -26.19508,-23.22841 -30.74768,-41.19272c-4.5526,-17.96432 -1.38149,-36.09137 7.41801,-50.86486c8.7996,-14.7735 23.22838,-26.19517 41.1927,-30.74778zM250.45435,221.25234c23.24803,-5.89163 37.31819,-29.51398 31.42655,-52.76202c-5.89162,-23.24803 -29.51398,-37.31818 -52.76201,-31.42655c-23.24803,5.89163 -37.31818,29.51398 -31.42655,52.76201c5.89163,23.24803 29.51398,37.31819 52.76201,31.42655z" data-paper-data="{&quot;origPos&quot;:null,&quot;origRot&quot;:0}" id="ID0.11478918511420488" fill="url(#color-8)" stroke="none" stroke-width="1.3334"/></g></g></svg>