<svg version="1.1" xmlns="http://www.w3.org/2000/svg" xmlns:xlink="http://www.w3.org/1999/xlink" width="617" height="537.92058" viewBox="0,0,617,537.92058"><defs><linearGradient x1="218.50399" y1="235.27601" x2="218.50399" y2="238.46146" gradientUnits="userSpaceOnUse" id="color-1"><stop offset="0" stop-color="#297b40"/><stop offset="1" stop-color="#297b40" stop-opacity="0"/></linearGradient><linearGradient x1="129.00234" y1="283.22464" x2="129.00234" y2="462.67058" gradientUnits="userSpaceOnUse" id="color-2"><stop offset="0" stop-color="#7fe693"/><stop offset="1" stop-color="#39b360"/></linearGradient><linearGradient x1="140.50399" y1="309.27601" x2="140.50399" y2="312.46146" gradientUnits="userSpaceOnUse" id="color-3"><stop offset="0" stop-color="#297b40"/><stop offset="1" stop-color="#297b40" stop-opacity="0"/></linearGradient><linearGradient x1="239.91411" y1="266.45058" x2="239.91411" y2="455.15059" gradientUnits="userSpaceOnUse" id="color-4"><stop offset="0" stop-color="#000000" stop-opacity="0"/><stop offset="1" stop-color="#000000"/></linearGradient></defs><g transform="translate(68.49999,74.5)"><g data-paper-data="{&quot;isPaintingLayer&quot;:true}" fill-rule="nonzero" stroke-linecap="butt" stroke-linejoin="miter" stroke-miterlimit="10" stroke-dasharray="" stroke-dashoffset="0" style="mix-blend-mode: normal"><g stroke="none" stroke-width="1"><path d="M207.5577,228.1203c2.34457,0 18.40361,0 22.08048,0c0.4719,0 0.97334,0.48583 0.97334,0.85078c0,0.82932 0,4.03855 0,5.52012c0,0.45148 -0.52599,0.79636 -0.97334,0.79636c-2.07725,0 -17.72973,0 -22.08048,0c-0.70994,0 -0.94089,-0.18424 -0.94089,-0.737c0,-1.50611 0,-4.66349 0,-5.52012c0,-0.46315 0.38914,-0.91012 0.94089,-0.91012z" fill="#52b846"/><path d="M208.7557,228.1203h2.51153v7.16725h-2.51153z" fill="#71ff5e"/><path d="M208.4208,234.87207h20.09249v103.77721h-20.09249z" fill="#52b846"/><path d="M210.50445,237.02286h2.6511v101.62639h-2.6511z" fill="#71ff5e"/><path d="M208.42826,238.46146v-3.18545h20.15141v3.18545z" fill="url(#color-1)"/></g><g><path d="M250.07732,367.76624l-89.29399,-0.08566l0.16032,-86.05635l88.88044,3.30605z" data-paper-data="{&quot;origPos&quot;:null,&quot;origRot&quot;:0}" fill="#b76431" stroke="#88451b" stroke-width="1.5"/><path d="M159.63956,278.16093c0,0 0.00856,-2.81891 0.92468,-4.0139c0.91612,-1.19499 3.39523,-1.62097 3.39523,-1.62097c0,0 74.83444,-0.12671 80.77752,-0.16257c2.40132,-0.01448 4.27033,0.78777 4.86867,1.44856c0.83047,0.9171 1.48981,2.9189 1.49937,4.12773c0.03246,4.10424 -0.1214,6.22155 -0.08896,10.32578l-0.06765,-0.04056l-6.02952,4.42305l-3.44511,-4.824l-5.59882,3.6179l-5.16137,-5.63481l-3.87616,4.02612l-6.02918,-3.21935l-6.03591,4.8316l-5.1614,-4.82972l-4.31324,4.83132l-6.02916,-4.02445l-5.16816,4.42889l-4.73719,-3.62213l-6.02949,4.02648l-1.85963,-4.83027l-7.80159,4.84854l-5.317,-5.14691l-8.62808,2.71906z" data-paper-data="{&quot;origPos&quot;:null,&quot;origRot&quot;:0}" fill="#7cdb67" stroke="#39a75c" stroke-width="1.5"/><path d="M244.96049,299.68864c-0.77478,0.79708 -2.04905,0.81518 -2.84614,0.0404c-0.79708,-0.77478 -0.81518,-2.04906 -0.0404,-2.84615c0.77478,-0.79708 2.04904,-0.81518 2.84614,-0.04039c0.79708,0.77478 0.81518,2.04905 0.04039,2.84615z" data-paper-data="{&quot;origRot&quot;:0}" fill="#d6954b" stroke="none" stroke-width="1"/><path d="M190.78241,309.9348c-0.79709,-0.77478 -0.81518,-2.04904 -0.04039,-2.84614c0.77478,-0.79708 2.04905,-0.81519 2.84615,-0.0404c0.79709,0.77478 0.81518,2.04904 0.04039,2.84614c-0.77478,0.79708 -2.04905,0.81519 -2.84615,0.0404z" data-paper-data="{&quot;origRot&quot;:0}" fill="#d6954b" stroke="none" stroke-width="1"/><path d="M239.92292,319.62512c-0.79708,-0.77478 -0.81518,-2.04905 -0.0404,-2.84615c0.77477,-0.79709 2.04904,-0.81518 2.84614,-0.04039c0.79708,0.77478 0.81518,2.04905 0.0404,2.84614c-0.77477,0.79709 -2.04904,0.81518 -2.84614,0.04039z" data-paper-data="{&quot;origRot&quot;:0}" fill="#d6954b" stroke="none" stroke-width="1"/><path d="M227.21053,321.18864c-0.77478,0.79708 -2.04905,0.81518 -2.84615,0.0404c-0.79709,-0.77478 -0.81519,-2.04906 -0.0404,-2.84615c0.77478,-0.79708 2.04904,-0.81518 2.84614,-0.04039c0.79709,0.77478 0.81518,2.04905 0.04039,2.84615z" data-paper-data="{&quot;origRot&quot;:0}" fill="#d6954b" stroke="none" stroke-width="1"/><path d="M209.53241,315.6848c-0.79709,-0.77478 -0.81518,-2.04904 -0.04039,-2.84614c0.77478,-0.79708 2.04905,-0.81519 2.84615,-0.0404c0.79709,0.77478 0.81518,2.04904 0.04039,2.84614c-0.77478,0.79708 -2.04905,0.81519 -2.84615,0.0404z" data-paper-data="{&quot;origRot&quot;:0}" fill="#d6954b" stroke="none" stroke-width="1"/><path d="M180.17292,301.87512c-0.79709,-0.77478 -0.81519,-2.04905 -0.0404,-2.84615c0.77477,-0.79709 2.04905,-0.81518 2.84614,-0.04039c0.79709,0.77478 0.81518,2.04905 0.0404,2.84614c-0.77477,0.79709 -2.04904,0.81518 -2.84614,0.04039z" data-paper-data="{&quot;origRot&quot;:0}" fill="#d6954b" stroke="none" stroke-width="1"/><path d="M235.71053,337.68864c-0.77478,0.79708 -2.04905,0.81518 -2.84615,0.0404c-0.79709,-0.77478 -0.81519,-2.04906 -0.0404,-2.84615c0.77478,-0.79708 2.04904,-0.81518 2.84614,-0.04039c0.79709,0.77478 0.81518,2.04905 0.04039,2.84615z" data-paper-data="{&quot;origRot&quot;:0}" fill="#d6954b" stroke="none" stroke-width="1"/><path d="M206.03241,299.1848c-0.79709,-0.77478 -0.81518,-2.04904 -0.04039,-2.84614c0.77478,-0.79708 2.04905,-0.81519 2.84615,-0.0404c0.79709,0.77478 0.81518,2.04904 0.04039,2.84614c-0.77478,0.79708 -2.04905,0.81519 -2.84615,0.0404z" data-paper-data="{&quot;origRot&quot;:0}" fill="#d6954b" stroke="none" stroke-width="1"/><path d="M224.92292,304.37512c-0.79709,-0.77478 -0.81519,-2.04905 -0.0404,-2.84615c0.77477,-0.79709 2.04905,-0.81518 2.84614,-0.04039c0.79709,0.77478 0.81518,2.04905 0.0404,2.84614c-0.77477,0.79709 -2.04904,0.81518 -2.84614,0.04039z" data-paper-data="{&quot;origRot&quot;:0}" fill="#d6954b" stroke="none" stroke-width="1"/></g><path d="M-1.02383,292.45037c0,0 7.3627,-1.67887 11.13315,-2.43228c21.90992,-4.37802 45.76614,-6.79345 70.53177,-6.79345c101.24649,0 179.35209,40.36964 179.35209,90.16812l0.00001,0.00001c0,26.10627 -0.05498,64.90396 -36.10523,81.36988c-16.01059,7.31284 -79.99992,9.17462 -143.73952,7.13248c-25.60142,-0.82024 -51.17996,-2.27029 -73.93304,-4.2499c-2.77847,-0.24174 -8.20391,-0.74873 -8.20391,-0.74873" fill="url(#color-2)" stroke="#4bca88" stroke-width="1.5"/><g stroke="none" stroke-width="1"><path d="M129.5577,302.1203c2.34457,0 18.40361,0 22.08048,0c0.4719,0 0.97334,0.48583 0.97334,0.85078c0,0.82932 0,4.03855 0,5.52012c0,0.45148 -0.52599,0.79636 -0.97334,0.79636c-2.07725,0 -17.72973,0 -22.08048,0c-0.70994,0 -0.94089,-0.18424 -0.94089,-0.737c0,-1.50611 0,-4.66349 0,-5.52012c0,-0.46315 0.38914,-0.91012 0.94089,-0.91012z" fill="#52b846"/><path d="M130.7557,302.1203h2.51153v7.16725h-2.51153z" fill="#71ff5e"/><path d="M130.4208,308.87207h20.09249v103.77721h-20.09249z" fill="#52b846"/><path d="M132.50445,311.02286h2.6511v101.62639h-2.6511z" fill="#71ff5e"/><path d="M130.42826,312.46146v-3.18545h20.15141v3.18545z" fill="url(#color-3)"/></g><path d="M-68.49999,-74.5h617v509z" fill="none" stroke="none" stroke-width="0"/><path d="M-1.02317,455.15059v-188.70001h481.87449v188.70002z" fill="url(#color-4)" stroke="none" stroke-width="1"/></g></g></svg>