<svg version="1.1" xmlns="http://www.w3.org/2000/svg" xmlns:xlink="http://www.w3.org/1999/xlink" width="550.96403" height="342.99342" viewBox="0,0,550.96403,342.99342"><defs><linearGradient x1="473.35124" y1="80.54925" x2="460.35128" y2="80.51552" gradientUnits="userSpaceOnUse" id="color-1"><stop offset="0" stop-color="#cc7700"/><stop offset="1" stop-color="#995900"/></linearGradient><linearGradient x1="528.73769" y1="50.3776" x2="533.58563" y2="63.51143" gradientUnits="userSpaceOnUse" id="color-2"><stop offset="0" stop-color="#b2b2b2"/><stop offset="1" stop-color="#666666"/></linearGradient><linearGradient x1="92.58284" y1="97.5303" x2="79.10101" y2="97.80806" gradientUnits="userSpaceOnUse" id="color-3"><stop offset="0" stop-color="#cc7700"/><stop offset="1" stop-color="#995900"/></linearGradient><linearGradient x1="31.9" y1="63.4081" x2="18.9" y2="63.4081" gradientUnits="userSpaceOnUse" id="color-4"><stop offset="0" stop-color="#cc7700"/><stop offset="1" stop-color="#995900"/></linearGradient><linearGradient x1="1608.99811" y1="251.41786" x2="128.79282" y2="251.41786" gradientUnits="userSpaceOnUse" id="color-5"><stop offset="0" stop-color="#000000"/><stop offset="1" stop-color="#000000" stop-opacity="0"/></linearGradient><linearGradient x1="-10.4867" y1="34.0073" x2="-17.3784" y2="46.1935" gradientUnits="userSpaceOnUse" id="color-6"><stop offset="0" stop-color="#b2b2b2"/><stop offset="1" stop-color="#666666"/></linearGradient><linearGradient x1="264.7735" y1="302.8936" x2="264.7735" y2="361.89361" gradientUnits="userSpaceOnUse" id="color-7"><stop offset="0" stop-color="#434343"/><stop offset="1" stop-color="#777777"/></linearGradient><linearGradient x1="264.7735" y1="314.8936" x2="264.7735" y2="323.8936" gradientUnits="userSpaceOnUse" id="color-8"><stop offset="0" stop-color="#3affff"/><stop offset="1" stop-color="#3affff" stop-opacity="0"/></linearGradient></defs><g transform="translate(17.3784,-34.0073)"><g data-paper-data="{&quot;isPaintingLayer&quot;:true}" fill-rule="nonzero" stroke="none" stroke-linecap="butt" stroke-linejoin="miter" stroke-miterlimit="10" stroke-dasharray="" stroke-dashoffset="0" style="mix-blend-mode: normal"><path d="M472.84872,372.24238l-12.99997,-0.03373l0.50251,-291.69313l12.99997,0.03373z" data-paper-data="{&quot;origRot&quot;:0}" fill="url(#color-1)" stroke-width="1.42374"/><path d="M533.58563,63.51143l-133.04362,49.10859l-4.84785,-13.13386l133.04352,-49.10857z" data-paper-data="{&quot;origPos&quot;:null,&quot;origRot&quot;:0}" fill="url(#color-2)" stroke-width="1.38751"/><path d="M23.36311,363.8707l-13.48195,0.27812l69.21985,-266.34077l13.48183,-0.27775z" data-paper-data="{&quot;origPos&quot;:null,&quot;origRot&quot;:0}" fill="url(#color-3)" stroke-width="0.80536"/><path d="M31.9,363.008h-13v-299.5999h13z" data-paper-data="{&quot;origPos&quot;:null}" fill="url(#color-4)" stroke-width="0.80536"/><path d="M128.79282,377.00072v-251.16572h13.68761v251.16572z" data-paper-data="{&quot;index&quot;:null}" fill="url(#color-5)" stroke-width="0"/><path d="M-10.4867,34.0073l149.2181,88.0798l-6.8917,12.1862l-149.2181,-88.0798z" fill="url(#color-6)" stroke-width="0.96708"/><g stroke-width="0"><path d="M225.2735,361.89361v-59h79v59z" fill="url(#color-7)"/><path d="M229.2735,323.8936v-9h71v9z" fill="url(#color-8)"/></g></g></g></svg>