<svg version="1.1" xmlns="http://www.w3.org/2000/svg" xmlns:xlink="http://www.w3.org/1999/xlink" width="55.89933" height="53.71813" viewBox="0,0,55.89933,53.71813"><defs><radialGradient cx="240.81166" cy="182.20221" r="33.75743" gradientUnits="userSpaceOnUse" id="color-1"><stop offset="0" stop-color="#fff343"/><stop offset="1" stop-color="#fff343" stop-opacity="0"/></radialGradient><linearGradient x1="253.69506" y1="199.80944" x2="227.35315" y2="163.80884" gradientUnits="userSpaceOnUse" id="color-2"><stop offset="0" stop-color="#ffef10"/><stop offset="1" stop-color="#ffa30a"/></linearGradient><linearGradient x1="253.69502" y1="199.80945" x2="227.63364" y2="164.19223" gradientUnits="userSpaceOnUse" id="color-3"><stop offset="0" stop-color="#e6b609"/><stop offset="1" stop-color="#c37808"/></linearGradient></defs><g transform="translate(-210.99911,-150.23997)"><g data-paper-data="{&quot;isPaintingLayer&quot;:true}" fill-rule="nonzero" stroke-linejoin="miter" stroke-miterlimit="10" stroke-dasharray="" stroke-dashoffset="0" style="mix-blend-mode: normal"><path d="" data-paper-data="{&quot;origPos&quot;:null}" fill="#000000" stroke="none" stroke-width="1" stroke-linecap="butt"/><g><path d="M221.23521,167.50979c2.83225,-0.20847 9.36639,0.59684 9.36639,0.59684c0,0 1.52484,-6.97945 2.4873,-9.50602c2.20448,-5.78701 5.3652,-8.59337 6.0998,-8.34556c0.91034,0.30707 3.98218,5.00589 6.32343,9.91088c1.87223,3.9224 3.02122,6.97881 3.02122,6.97881c3.38718,0.08605 5.69225,-0.43842 8.47069,-0.22362c5.68528,0.43956 9.5529,3.59814 9.86599,4.64956c0.42853,1.43911 -4.00806,6.52552 -12.07094,12.79966l-0.38187,0.57599c3.07593,10.07965 3.44275,17.61129 2.11994,18.5792c-1.24295,0.87614 -8.32988,-1.66521 -17.04596,-7.53962l-0.61876,0.01605c-8.52515,5.8389 -14.84402,8.60704 -16.08848,7.82683c-0.74141,-0.46482 -2.67328,-5.47159 -1.02019,-11.88897c0.58236,-2.26072 1.90938,-4.21917 2.65808,-6.80953c0,0 -2.95072,-2.18577 -6.47164,-5.47966c-3.97243,-3.71635 -7.19467,-7.86101 -6.9366,-8.77966c0.22138,-0.78806 4.32372,-2.92705 10.22155,-3.36116z" data-paper-data="{&quot;index&quot;:null}" fill="url(#color-1)" stroke="#3f2803" stroke-width="0" stroke-linecap="round"/><path d="M224.69955,170.00189c2.30569,-0.16971 7.56457,0.40319 7.56457,0.40319c0,0 1.30184,-5.5992 2.08538,-7.65605c1.79464,-4.71113 4.33599,-7.03914 4.93401,-6.8374c0.74111,0.24998 3.17834,3.98842 5.08432,7.98152c1.52416,3.19318 2.45954,5.68135 2.45954,5.68135c2.75745,0.07005 4.63398,-0.35692 6.89587,-0.18204c4.62831,0.35784 8.20445,2.61635 8.45933,3.4723c0.34886,1.17157 -3.69046,5.62518 -10.25435,10.73288l-0.31089,0.46891c2.50407,8.20573 3.21982,14.90719 2.14294,15.69515c-1.01187,0.71325 -7.19837,-1.92569 -14.29401,-6.70798l-0.50374,0.01307c-6.94021,4.75336 -12.51188,7.31973 -13.52496,6.68457c-0.60357,-0.3784 -1.74873,-4.76719 -0.40297,-9.99149c0.47409,-1.84042 1.55439,-3.43477 2.1639,-5.54355c0,0 -2.40214,-1.7794 -5.26848,-4.46092c-3.23391,-3.02543 -5.79359,-6.31276 -5.58349,-7.06063c0.18023,-0.64155 3.55164,-2.33947 8.35299,-2.69287z" data-paper-data="{&quot;index&quot;:null}" fill="url(#color-2)" stroke="url(#color-3)" stroke-width="1" stroke-linecap="round"/><g stroke="none" stroke-width="2.7674"><path d="M240.01355,188.40091c-0.51279,0.40648 -1.35832,0.35445 -1.97406,-0.02221c-1.11733,-0.68369 -2.01349,-1.81777 -2.78008,-2.92852c-0.71467,-1.02009 -1.31524,-2.1758 -1.58967,-3.35475c-0.16617,-0.68817 -0.21549,-1.58691 0.29867,-1.9562c0.49529,-0.35548 1.19239,-0.28161 1.96293,0.2041c0.97821,0.61182 1.90012,1.52896 2.79113,2.74667c0.89106,1.21778 1.49395,2.30569 1.77332,3.4914c0.18566,0.78168 -0.01856,1.51148 -0.48225,1.8195z" fill="#3f2803" stroke-linecap="round"/><path d="M239.46311,187.82084c-0.27234,0.19927 -0.61601,0.2457 -0.95173,0.16124c-0.33577,-0.08453 -0.66359,-0.29998 -0.90372,-0.62815c-0.24013,-0.32817 -0.34627,-0.70581 -0.32519,-1.05135c0.02104,-0.3456 0.16929,-0.65913 0.44162,-0.85839c0.27226,-0.19921 0.616,-0.2457 0.95178,-0.16116c0.33572,0.08446 0.66346,0.29994 0.9036,0.62812c0.24013,0.32817 0.34632,0.70577 0.3253,1.05138c-0.02108,0.34554 -0.16941,0.65911 -0.44166,0.85832z" fill="#ffffff" stroke-linecap="butt"/></g><g stroke="none" stroke-width="2.7674"><path d="M246.99227,183.35221c-0.51279,0.40648 -1.35832,0.35445 -1.97406,-0.0222c-1.11733,-0.68369 -2.0135,-1.81776 -2.78009,-2.92851c-0.71467,-1.02009 -1.31524,-2.1758 -1.58967,-3.35475c-0.16617,-0.68817 -0.21549,-1.58691 0.29868,-1.9562c0.49529,-0.35548 1.19239,-0.28161 1.96293,0.2041c0.97821,0.61182 1.90012,1.52895 2.79113,2.74667c0.89106,1.21778 1.49395,2.30569 1.77332,3.49141c0.18566,0.78168 -0.01856,1.51147 -0.48225,1.8195z" fill="#3f2803" stroke-linecap="round"/><path d="M246.43174,182.83722c-0.27234,0.19927 -0.616,0.2457 -0.95172,0.16124c-0.33577,-0.08453 -0.6636,-0.29996 -0.90372,-0.62813c-0.24013,-0.32817 -0.34626,-0.70581 -0.32517,-1.05135c0.02104,-0.3456 0.16928,-0.65912 0.44161,-0.85839c0.27226,-0.19921 0.61602,-0.2457 0.95178,-0.16117c0.33572,0.08446 0.66346,0.29994 0.90359,0.62812c0.24013,0.32817 0.34632,0.70577 0.3253,1.05137c-0.02108,0.34554 -0.16941,0.65911 -0.44167,0.85832z" fill="#ffffff" stroke-linecap="butt"/></g></g></g></g></svg>