<svg version="1.1" xmlns="http://www.w3.org/2000/svg" xmlns:xlink="http://www.w3.org/1999/xlink" width="617.56952" height="183.6029" viewBox="0,0,617.56952,183.6029"><defs><linearGradient x1="569.59446" y1="230.99831" x2="570.06126" y2="286.99672" gradientUnits="userSpaceOnUse" id="color-1"><stop offset="0" stop-color="#c3e060"/><stop offset="1" stop-color="#6de01b"/></linearGradient><linearGradient x1="243.53189" y1="329.977" x2="233.63827" y2="385.09617" gradientUnits="userSpaceOnUse" id="color-2"><stop offset="0" stop-color="#c3e060"/><stop offset="1" stop-color="#6de01b"/></linearGradient></defs><g transform="translate(16.14468,-231.75888)"><g data-paper-data="{&quot;isPaintingLayer&quot;:true}" fill-rule="nonzero" stroke-linecap="butt" stroke-linejoin="miter" stroke-miterlimit="10" stroke-dasharray="" stroke-dashoffset="0" style="mix-blend-mode: normal"><path d="M311.37824,261.75091h171.20051l116.83162,75.31902l1,77.18118l-289.03213,-30z" data-paper-data="{&quot;origPos&quot;:null}" fill="#c06520" stroke="#763e13" stroke-width="2"/><path d="M359.53167,301.00001c0,-2.76142 2.2227,-5 4.96453,-5c2.74183,0 4.96453,2.23858 4.96453,5c0,2.76142 -2.2227,5 -4.96453,5c-2.74183,0 -4.96453,-2.23858 -4.96453,-5z" data-paper-data="{&quot;origPos&quot;:null}" fill="#e0bb60" stroke="none" stroke-width="0.5"/><path d="M405.21244,329.00001c0,-2.76142 2.2227,-5 4.96453,-5c2.74183,0 4.96453,2.23858 4.96453,5c0,2.76142 -2.2227,5 -4.96453,5c-2.74183,0 -4.96453,-2.23858 -4.96453,-5z" fill="#e0bb60" stroke="none" stroke-width="0.5"/><path d="M341.65936,339.00001c0,-2.76142 2.2227,-5 4.96453,-5c2.74183,0 4.96453,2.23858 4.96453,5c0,2.76142 -2.2227,5 -4.96453,5c-2.74183,0 -4.96453,-2.23858 -4.96453,-5z" fill="#e0bb60" stroke="none" stroke-width="0.5"/><path d="M305.18739,235.76931c1.30533,-1.64256 5.32387,-3.00636 9.29795,-3.01043c55.26882,-0.05661 122.99423,-0.12847 139.18539,-0.14505c5.39705,-0.00553 9.53122,1.84668 10.51006,2.98584c1.27814,1.48747 3.3192,4.56098 3.3192,9.4004c0,8.39065 0,13.10935 0,21.5c0,0.89907 -0.66169,8.5977 -0.65744,9.49592l-10.56011,-12.29693l-12.5343,13.10368l-12.15436,-13.15508l-12.52597,13.50365l-16.95376,-12.07349l-5.496,14.03674l-19.2556,-13.16966l-12.20785,13.39243l-10.21958,-13.93278l-13.40275,12.10363l-14.68474,-10.90317l-4.39848,11.0294l-13.56219,-10.91059l-7.75778,12.05165c0,0 0.33076,-20.58864 0.54246,-33.76641c0.07674,-4.77672 2.41974,-7.86049 3.51585,-9.23975z" data-paper-data="{&quot;origPos&quot;:null,&quot;origRot&quot;:0}" fill="url(#color-1)" stroke="#0f6600" stroke-width="2"/><g><path d="M-0.59906,318.66123l225.21791,39.39852l-8.56416,44.24681l-231.21791,-15.39852z" fill="#c06520" stroke="#763e13" stroke-width="1.61017"/><path d="M97.78603,356.04513c0.52475,-2.7111 3.14793,-4.4835 5.85903,-3.95876c2.7111,0.52475 4.4835,3.14793 3.95876,5.85903c-0.52475,2.7111 -3.14793,4.4835 -5.85903,3.95876c-2.7111,-0.52475 -4.4835,-3.14793 -3.95876,-5.85903z" data-paper-data="{&quot;origPos&quot;:null}" fill="#e0bb60" stroke="none" stroke-width="0.5"/><path d="M5.3622,287.17382c0,0 211.93171,39.43986 224.02073,41.68974c4.02968,0.74996 7.91334,1.40076 9.24074,4.09241c1.47471,2.9904 1.78244,6.77964 1.22998,9.72952c-2.0741,11.07471 -2.18465,11.66504 -4.25875,22.73976l-11.37596,11.88956l-3.52437,-14.86525l-12.39813,5.90001l-9.04137,-12.80113l-18.45125,10.90831l-14.67972,-15.84649l-11.92953,9.03231l-11.21528,-12.17579l-15.74733,7.33015l-3.69496,-13.87233l-15.92399,8.31442l-15.20974,-12.89367l-7.46649,12.88245l-20.02613,-14.77527l-9.93231,9.39123l-6.51413,-15.39501l-16.10066,9.2987l-11.03861,-13.16007l-5.93785,10.10912l-10.03999,-12.9806l-9.11036,10.55497z" data-paper-data="{&quot;origPos&quot;:null,&quot;origRot&quot;:0}" fill="url(#color-2)" stroke="#0f6600" stroke-width="2"/><path d="M30.78602,348.04513c0.52475,-2.7111 3.14793,-4.4835 5.85903,-3.95876c2.7111,0.52475 4.4835,3.14793 3.95876,5.85903c-0.52475,2.7111 -3.14793,4.4835 -5.85903,3.95876c-2.7111,-0.52475 -4.4835,-3.14793 -3.95876,-5.85903z" fill="#e0bb60" stroke="none" stroke-width="0.5"/></g><path d="M555.35272,356.43441c-2.74264,-0.32152 -4.70535,-2.80553 -4.38382,-5.54816c0.32152,-2.74264 2.80553,-4.70534 5.54817,-4.38382c2.74264,0.32152 4.70534,2.80553 4.38382,5.54816c-0.32152,2.74264 -2.80553,4.70534 -5.54816,4.38382z" fill="#e0bb60" stroke="none" stroke-width="0.5"/><path d="M431.56255,313.60506c-2.74264,-0.32152 -4.70534,-2.80553 -4.38382,-5.54816c0.32152,-2.74264 2.80553,-4.70535 5.54817,-4.38382c2.74264,0.32152 4.70534,2.80553 4.38382,5.54817c-0.32152,2.74264 -2.80553,4.70534 -5.54817,4.38382z" fill="#e0bb60" stroke="none" stroke-width="0.5"/><path d="M485.35272,311.43442c-2.74264,-0.32152 -4.70535,-2.80553 -4.38382,-5.54816c0.32152,-2.74264 2.80553,-4.70534 5.54817,-4.38382c2.74264,0.32152 4.70534,2.80553 4.38382,5.54816c-0.32152,2.74264 -2.80553,4.70534 -5.54816,4.38382z" fill="#e0bb60" stroke="none" stroke-width="0.5"/><path d="M524.35272,342.43442c-2.74264,-0.32152 -4.70535,-2.80553 -4.38382,-5.54816c0.32152,-2.74264 2.80553,-4.70534 5.54817,-4.38382c2.74264,0.32152 4.70534,2.80553 4.38382,5.54816c-0.32152,2.74264 -2.80553,4.70534 -5.54816,4.38382z" fill="#e0bb60" stroke="none" stroke-width="0.5"/><path d="M469.35271,348.43442c-2.74264,-0.32152 -4.70535,-2.80553 -4.38382,-5.54816c0.32152,-2.74264 2.80553,-4.70534 5.54817,-4.38382c2.74264,0.32152 4.70534,2.80553 4.38382,5.54816c-0.32152,2.74264 -2.80553,4.70534 -5.54816,4.38382z" fill="#e0bb60" stroke="none" stroke-width="0.5"/></g></g></svg>