<svg version="1.1" xmlns="http://www.w3.org/2000/svg" xmlns:xlink="http://www.w3.org/1999/xlink" width="94.94692" height="309.46838" viewBox="0,0,94.94692,309.46838"><defs><radialGradient cx="386.70652" cy="120.50002" r="154.50004" gradientUnits="userSpaceOnUse" id="color-1"><stop offset="0" stop-color="#6d6d6d"/><stop offset="1" stop-color="#525252"/></radialGradient><radialGradient cx="379.14837" cy="129.86273" r="165.46318" gradientUnits="userSpaceOnUse" id="color-2"><stop offset="0" stop-color="#6d6d6d"/><stop offset="1" stop-color="#525252"/></radialGradient><radialGradient cx="379.64351" cy="127.98395" r="167.6051" gradientUnits="userSpaceOnUse" id="color-3"><stop offset="0" stop-color="#6d6d6d"/><stop offset="1" stop-color="#525252"/></radialGradient><radialGradient cx="378.64351" cy="127.98395" r="167.6051" gradientUnits="userSpaceOnUse" id="color-4"><stop offset="0" stop-color="#6d6d6d"/><stop offset="1" stop-color="#525252"/></radialGradient><radialGradient cx="379.64351" cy="127.98395" r="167.6051" gradientUnits="userSpaceOnUse" id="color-5"><stop offset="0" stop-color="#6d6d6d"/><stop offset="1" stop-color="#525252"/></radialGradient><radialGradient cx="379.64351" cy="127.98395" r="167.6051" gradientUnits="userSpaceOnUse" id="color-6"><stop offset="0" stop-color="#6d6d6d"/><stop offset="1" stop-color="#525252"/></radialGradient></defs><g transform="translate(-339.47084,34.46831)"><g data-paper-data="{&quot;isPaintingLayer&quot;:true}" fill="none" fill-rule="nonzero" stroke="none" stroke-width="none" stroke-linecap="butt" stroke-linejoin="miter" stroke-miterlimit="10" stroke-dasharray="" stroke-dashoffset="0" font-family="none" font-weight="none" font-size="none" text-anchor="none" style="mix-blend-mode: normal"><path d="M397.28319,273.91765c-0.07198,0.31254 -0.07675,0.67223 0.02567,1.08242h-6.48075c-0.09987,-1.0702 -2.22295,-1.79065 -3.3135,-2.4543c-0.38512,-0.23438 -0.78248,-0.44089 -1.18814,-0.62882c-0.04854,-0.04724 -0.09685,-0.09486 -0.14487,-0.14289c-0.62001,-0.58918 -3.16259,-1.88578 -3.40252,-2.1331c-0.92397,-0.95241 -0.65819,-3.29829 -1.90283,-4.05527c-1.3636,-0.82932 -2.82272,-1.63847 -4.39853,-1.89145c-0.67049,-0.10764 -3.51956,2.92592 -3.9863,3.35274c-2.8821,2.63554 -5.94573,5.1491 -8.66584,7.95308h-10.46827c0.37906,-1.2493 0.64268,-2.54884 0.64268,-4.00004c0,-0.66667 0.40092,-1.46736 0,-2c-1.88884,-2.50944 -4.09566,-4.82316 -6.58114,-6.74342c-0.41707,-0.32223 -1.01859,0.28547 -1.5,0.5c-1.17328,0.52286 -2.35679,1.04063 -3.4544,1.70788c-0.56978,0.34638 -1.08227,0.79907 -1.56494,1.30401v-5.65136c0.383,-0.27327 0.7476,-0.57378 1.08644,-0.91261c0.74498,-0.74498 2.03343,-1.41615 1.97444,-2.46805c-0.18311,-3.26576 -1.54793,-4.65615 -3.06088,-6.07432v-39.07775c0.31012,-0.15981 0.58341,-0.41697 0.87541,-0.61179c1.3442,-0.89679 2.68597,-2.45167 4.15991,-3.10355c0.39674,-0.17547 4.23394,-0.22833 4.37188,-1.16375c0.24432,-1.65682 -0.02387,-3.3799 -0.42299,-5.00638c-0.30004,-1.22268 -3.92468,-1.41972 -3.56018,-2.75063c-0.40562,-0.67603 -0.77624,-1.37888 -1.05883,-2.11485c-0.1588,-0.4136 -0.05532,-1.1694 -0.49361,-1.23403c-0.35559,-0.05243 -0.71421,-0.08127 -1.07428,-0.09026c-0.791,-2.72164 -1.61599,-5.47393 -2.00559,-8.11534l-0.23784,-1.1892c-0.00277,-0.01548 -0.00571,-0.03091 -0.00878,-0.04629c0.00491,-0.0376 0.09512,-0.79835 -0.54509,-1.3691v-21.26394c1.61989,0.35833 3.24601,0.69104 4.89336,0.92447c2.68584,0.38058 5.34496,0.81258 7.99443,1.40097c0.02118,0.00471 0.04249,0.01005 0.06392,0.01598c0.65742,0.18192 1.42759,0.91335 1.93608,0.48402l1.89122,0.4728c0.42094,0.11506 0.86403,0.17648 1.32146,0.17648c2.76142,0 5,-2.23857 5,-5c0,-1.38071 -0.55965,-2.63072 -1.46447,-3.53554l-2,-2l-0.06768,0.06769c-0.47783,-0.44995 -0.96306,-0.91382 -1.4708,-1.25979c1.34574,-0.39692 2.60661,-1.17294 4.00295,-1.27236c2.32744,-0.16571 4.66667,0 7,0c0.66667,0 1.68818,0.58925 2,0h2c2.76142,0 5,-2.23857 5,-5c0,-2.3795 -1.66218,-4.37079 -3.88879,-4.87608l-2.26021,-0.56505c-1.94666,-0.50387 -3.86262,-1.2628 -5.851,-1.55887c-0.9203,-0.13703 -1.86416,0.26544 -2.78732,0.14928c-2.68256,-0.33753 -5.18357,-1.6123 -7.84116,-2.08828l0.7397,-0.18492c2.22661,-0.50529 3.88879,-2.49658 3.88879,-4.87608c0,-2.76143 -2.23858,-5 -5,-5c-1,0 -5,0 -6,0c-0.46119,0 -1.23697,-0.41071 -1.45682,-0.09565c-2.89443,-2.35543 -5.08747,-5.24275 -7.64364,-8.01533v-22.86388c2.36845,0.02661 4.74021,0.05475 7.10046,-0.02514c1.52857,-0.05173 3.0634,-0.06776 4.58114,-0.25659c0.52301,-0.06507 1.25176,-0.03508 1.5,-0.5c1.48117,-2.77405 2.86699,-5.68958 3.45439,-8.77895c0.13208,-0.69466 -0.99495,-1.0051 -1.5,-1.5c-0.6735,-0.65997 -1.32006,-1.35024 -2.03553,-1.96447c-3.51268,-3.0156 -7.25999,-4.90386 -9.83975,-8.7735c0,0 -0.71437,-1.07156 -1.96184,-1.76446c1.81206,-0.52857 3.65802,-0.98337 5.38272,-1.71863c1.50558,-0.64185 2.9307,-1.55495 4.4599,-2.1533l2.43072,-0.81024c2.04312,-0.62835 3.52824,-2.53068 3.52824,-4.77988c0,-2.2492 -1.48512,-4.15152 -3.52824,-4.77987l-1.39062,-0.46354c-0.14496,-0.50672 -0.97525,-0.45087 -1.5,-0.5c-2.18582,-0.20464 -4.3863,-0.20796 -6.58114,-0.25659c-1.36066,-0.03014 -2.72884,-0.02143 -4.10048,0.00217v-4.88992c0.17113,-0.20437 0.26073,-0.33875 0.26073,-0.33875c0.66667,-1 0.87396,-2.57991 2,-3c0.3302,-0.12318 0.06847,0.97302 0.42089,0.96992c1.688,-0.01485 4.36273,-1.76389 5.69236,-2.58317c2.86203,-1.76347 5.75047,-3.38326 8.26203,-5.62471l1,-1c-2.17851,-2.84518 -3.86554,-6.14555 -6.53553,-8.53554c-0.74509,-0.66696 -2,0 -3,0c-1.79958,0 -3.58515,0.03374 -5.36501,0.02609c0.388,-0.47543 0.75628,-0.97197 1.09125,-1.4887c0.70013,-0.2754 1.40991,-0.56762 2.13072,-0.89501c2.16194,-0.98193 4.13914,-2.3824 6.37911,-3.17025c0.18183,-0.06395 -0.42073,0.4726 -0.23607,0.52786c0.63868,0.19113 1.36028,0.18761 2,0c0.90605,-0.26571 1.76486,-0.66249 2.61957,-1.07064l0.15393,0.2309l2.93547,-1.95698c1.37851,-0.89027 2.29102,-2.4402 2.29102,-4.20327c0,-2.2492 -1.48512,-4.15152 -3.52824,-4.77988l-1.39062,-0.46354c-0.20545,-0.48535 -0.97525,-0.45087 -1.5,-0.5c-1.80964,-0.16943 -3.62933,-0.20086 -5.44755,-0.23425c0.38979,-0.23772 0.77544,-0.48137 1.15565,-0.73309l0.24629,0.24629l3,-3c0.90482,-0.90482 1.46447,-2.15482 1.46447,-3.53553c0,-2.76142 -2.23858,-5 -5,-5h-2.5c-0.58925,-0.58925 -1.68731,-0.18433 -2.5,0c-2.14226,0.4859 -3.96368,2.00542 -6.10051,2.4981v-41.49811h91.61406v47.92685c-0.63641,-0.12661 -1.2827,-0.09864 -1.85397,0.12987c-3.20398,1.2816 -9.30899,3.75154 -10.17586,7.60472c-0.46891,2.08425 -1.35368,3.69258 0.23305,5.05262c0.84959,0.72822 1.71401,1.47403 2.71486,1.97444c0.73583,0.36792 1.64537,0 2.46805,0c2.27476,0 4.43025,-0.40329 6.61388,-0.69434v11.91297c-0.34505,0.04155 -0.68892,0.07161 -1.03452,0.09289c-0.15968,0 -0.31937,0 -0.47904,0c-1,0 -2,0 -3,0c-0.66667,0 -1.75241,-0.61899 -2,0h-2c-2.76142,0 -5,2.23857 -5,5c0,2.76143 2.23858,5 5,5h2c0.23645,0.59114 1.23735,0.05318 1.90761,0.00359c0.42325,0.00041 0.84407,-0.00024 1.26292,-0.00359c0.60983,0 1.21965,0 1.82947,0c0.47899,0 0.98608,0 1.51357,0v26.30612c-1.29786,-0.31288 -3.00341,-0.63191 -3.56436,0.04934l-1.44081,0.24014c-1.18964,0.17671 -2.10233,1.20235 -2.10233,2.44114c0,0.81773 0.39768,1.54256 1.0102,1.99167c0.65815,0.49361 3.26776,2.45082 3.9259,2.94443c0,0 1.03688,0.77765 2.17139,0.45448v35.69825c-0.81083,-0.08463 -1.64054,-0.12556 -2.51355,-0.12556c-0.83333,0 -2.03356,-0.69057 -2.5,0h-2.5c-2.76142,0 -5,2.23857 -5,5c0,2.2492 1.48512,4.15152 3.52824,4.77988l2.48509,0.82836c0.24431,0.18455 0.48139,0.39749 0.71317,0.55201c2.76584,1.84389 3.24345,1.81936 5.07274,4.55261c0.20504,0.31685 0.44496,0.60903 0.71431,0.8711v12.33331c-1.06041,0.62171 -1.96643,1.42569 -2.665,2.68018c-0.30618,0.54982 -0.53092,1.14118 -0.77743,1.72048c-0.25501,-0.22913 -0.79586,0.26264 -1.18743,0.30189c-0.32658,0.03274 -1.8688,-0.22346 -1.98403,-0.04793c-0.90662,1.3811 -1.43856,3.00615 -1.79792,4.61868c-0.21974,0.98601 2.14747,2.90096 2.29153,3.03228c1.90467,1.73612 3.85118,3.38199 5.92332,4.9361c0.06837,0.05128 0.13398,0.10184 0.19695,0.1518v22.56286M380.21268,-1.35069c-0.30714,-0.07636 -4.52958,-1.15575 -4.7321,-1.05219c-3.01845,1.54358 -5.78922,3.62491 -8.224,5.98405c-0.37851,0.36675 0.33333,1 0.5,1.5c0.83333,2.5 1.66667,5 2.5,7.5c0,0 1.58114,4.74342 6.32456,3.16228c4.74342,-1.58114 3.16228,-6.32455 3.16228,-6.32455c-0.05467,-0.164 -0.11448,-0.3515 -0.179,-0.55832c2.64976,0.84519 5.20805,2.00074 7.85444,2.88287l4.79382,0.1073c0,0 4.85071,-1.21268 3.63804,-6.06339c-1.02865,-4.11459 -4.67494,-3.86645 -5.75793,-3.69638c-3.30093,-1.13824 -6.49069,-2.59897 -9.8801,-3.44165z" data-paper-data="{&quot;origPos&quot;:null}" id="ID0.01748740393668413" fill="url(#color-1)" stroke-width="NaN"/><path d="M405.51357,245.37643c0,0 8.82025,-6.42539 14.46567,-6.05762c4.89169,0.31868 12.53433,7.81657 12.53433,7.81657l-1.65784,-1.24337c-0.41586,-0.31898 -0.93617,-0.50857 -1.50077,-0.50857c-1.36307,0 -2.46805,1.10499 -2.46805,2.46805c0,0.18336 0.01999,0.36204 0.05792,0.534l0.23681,1.18405c-0.02091,0.03023 -0.03718,0.06155 -0.04939,0.09382c-0.7369,0.42694 -1.23256,1.22409 -1.23256,2.13702c0,0.32513 0.06288,0.63558 0.17712,0.91985l0.72043,1.92119c-0.36825,0.93817 1.93442,4.54645 2.26366,5.53534c1.26249,3.79198 2.62749,8.00348 3.45268,11.98774v2.83557l-9.21614,-7l-11.99439,3.80112c-0.61648,-0.09094 -19.23538,-4.21948 -19.85608,-4.37096" data-paper-data="{&quot;origPos&quot;:null}" id="ID0.01748740393668413" fill="url(#color-2)" stroke-width="NaN"/><path d="" id="ID0.01748740393668413" fill="url(#color-3)" stroke-width="1.0806"/><path d="M424.00001,19.50005c0.09704,0.04852 0.17558,0.13424 0.24412,0.23748c-0.23107,-0.19728 -0.41558,-0.32322 -0.24412,-0.23748z" data-paper-data="{&quot;origPos&quot;:null}" id="ID0.01748740393668413" fill="url(#color-4)" stroke-width="1.0806"/><path d="" id="ID0.01748740393668413" fill="url(#color-5)" stroke-width="1.0806"/><path d="" id="ID0.01748740393668413" fill="url(#color-6)" stroke-width="1.0806"/><path d="M346.68215,199.28846c2.1961,-1.63152 4.47881,-3.12714 7.19983,-4.02449c0.35556,-0.11726 2.53673,-0.26888 4.12838,-0.73201c-0.13887,-0.535 -0.0939,-1.18785 0.40208,-1.90999c0.0436,-0.21282 0.08758,-0.42578 0.08758,-0.62193c0,-2.25 0,-4.5 0,-6.75c0,-0.86602 -0.44284,-3.57178 0,-4.25c1.90267,-2.91397 3.40895,-3.24563 6.39645,-3.72487c1.56338,-0.25079 3.05117,-0.11952 4.60355,-0.27513c0.17713,-0.01775 0.44191,-0.06926 0.72546,-0.13255c-0.0163,-0.01328 -0.03186,-0.02853 -0.04665,-0.04592c-0.29073,-0.34186 0.43124,-0.80653 0.5,-1.25c0.3527,-2.27472 -0.19349,-2.53786 0.92746,-5.10777l0.75,-1.25c0,0 1.98558,-2.24576 3.83065,-0.55883c1.84507,1.68693 0.45681,3.13131 0.45681,3.13131l-0.75,1.25c-0.71781,-0.06607 -0.51308,4.04812 -0.57254,4.39223c-0.24966,1.44488 -2.0915,3.39878 -2.8309,4.02298c-1.12558,0.95021 -3.75858,0.40632 -5.13674,0.52343c-0.97831,0.08313 -1.97164,0.11187 -2.92508,0.34632c-0.29779,0.07323 -0.6518,0.45131 -0.92847,0.56625c0,0.78752 0,1.57504 0,2.36256c0,2.53641 0.28826,5.41901 -0.00586,8.11344c0.98751,1.04453 1.85321,2.1824 2.95803,3.07482c0.16206,0.13091 1.98532,0.58207 3.34543,0.88273c0.33679,-0.68428 1.06574,-1.52528 2.58254,-1.29193c1.08749,0.1673 1.62273,0.73961 1.88117,1.328c1.75367,-0.50956 3.20617,-1.5479 5.31021,-2.17826c0.95954,-0.28747 2.03522,-1.06385 2.93818,-0.63026c1.32096,0.63431 2.47544,1.59088 3.57042,2.5647c0.5819,0.51752 1.59196,2.65572 1.90594,3.26872c0.25,0.5 0.38333,1.07803 0.75,1.5c0.15425,0.17751 -0.28942,-0.66366 -0.05759,-0.70316c0.44239,-0.07537 0.80124,0.5 1.25,0.5c0.26213,0 -0.74872,-0.27953 -0.60695,-0.5c0.24273,-0.37746 0.83333,-0.33334 1.25,-0.5l3.09567,-0.08813c0,0 2.40933,0.6672 1.74213,3.07653c-0.6672,2.40932 -3.07653,1.74212 -3.07653,1.74212l0.09567,-0.08813c-3.69317,1.47727 -6.98209,1.16175 -8.91454,-2.70316c-0.45806,-0.94941 -1.89208,-1.72015 -1.59406,-2.73128c0.01627,-0.05519 0.04144,-0.10053 0.074,-0.1378c-0.99784,0.20568 -1.93875,0.56079 -2.87583,0.98712c-1.94085,0.88299 -3.57237,1.4698 -5.34392,1.7028c-0.67948,2.86005 -1.60292,5.55787 -2.68329,8.43894c-0.26009,0.6936 -0.55356,1.38045 -0.89342,2.04181c0.98736,0.6813 2.1546,2.21638 2.80259,3.08038l0.99926,3.06096c0,0 -0.06095,2.49926 -2.56021,2.4383c-2.41001,-0.05878 -2.43939,-2.38483 -2.43842,-2.55088l-0.00063,0.05162c-1.74854,-2.33138 -3.3164,-2.52117 -4.5,-6.5c-0.2203,-0.74057 0.92581,-0.8991 1.15918,-1.37781c0.312,-0.64 0.5,-1.33334 0.75,-2c0.90161,-2.40423 1.67451,-4.60152 2.27495,-6.91359c-2.90317,-0.64129 -4.8587,-2.20064 -6.89535,-3.92549c-1.39029,1.26621 -4.19662,0.95369 -5.67073,1.45297c-2.55588,0.86568 -4.64214,2.20891 -6.64467,3.68993M382.77166,199.57225c0.2615,-0.00379 0.52886,-0.011 0.71864,-0.12074c0.25615,-0.14813 -0.24777,-0.0051 -0.71864,0.12074z" data-paper-data="{&quot;origPos&quot;:null}" fill="#3f3434" stroke-width="NaN"/><path d="" fill="#3f3434" stroke-width="0.5"/><path d="M381.1283,149.78813c0.7224,-0.95476 -0.62831,-4.95476 -0.62831,-4.95476c3.26074,0 0.81553,-2.73446 4.02877,-1.99662c3.12757,-3.69111 7.33866,-4.78599 11.68925,-6.29c-2.57194,-0.6195 -5.37416,-1.1904 -7.14649,-2.72553c-0.9131,-0.7909 -2.11055,-2.32434 -2.71526,-3.53495c-0.24705,-0.49459 -0.43642,-1.01587 -0.64484,-1.52808c-0.25871,0.22926 -0.80522,-0.27136 -1.20172,-0.30671c-1.58996,-0.14174 -3.30624,0.04124 -4.91506,0.04834c-0.3648,0.29399 -0.87662,0.50022 -1.59465,0.50022c-0.09506,0 -0.18651,-0.00361 -0.27447,-0.01057l-0.52668,0.14527c0,0 -0.26876,-0.16382 -0.55743,-0.47057c-1.14141,-0.68182 -1.14141,-2.16413 -1.14141,-2.16413c0,-5.12462 0.80343,-10.18957 3.12829,-14.79057c1.94748,-3.85415 5.3376,-7.01062 7.47798,-10.74567c1.22782,-2.04636 1.5077,-3.49464 3.39373,-5.21376c1.45466,-1.32592 3.30735,-1.233 5.089,-1.71599c2.46149,-0.66728 4.52312,-1.48 7.161,-1.53401h1.25c0,0 -0.40407,-1.01237 1.55415,0.54178l-0.00002,-0.00001c1.95822,1.55415 -1.55415,4.45822 -1.55415,4.45822h-1.25c-2.3915,-0.09695 -4.10452,0.85408 -6.339,1.46599c-0.66113,0.18105 -2.97486,0.30527 -3.08981,0.46249c-0.8342,1.14102 -1.17714,2.85724 -1.92746,4.10777c-3.01274,4.88117 -7.76648,9.50027 -9.39373,14.96376c-0.40745,1.368 -0.50152,3.22012 -0.51439,4.98973c3.35026,-0.06117 6.51485,-0.29948 9.33559,2.08177c0.10756,0.0908 1.55105,3.28168 1.57254,3.39224c0.0326,0.16771 -0.59154,0.09998 -0.46526,0.21505c1.78969,1.63073 6.15426,2.48915 8.39533,3.20826c2.97748,0.9554 5.00315,2.42039 7.66654,3.94232c2.08261,1.38633 3.42585,2.21891 4.43501,4.56427c0.67451,1.5676 0.77859,3.57029 1.3111,5.31779c0.48933,-0.53528 1.30912,-1.00944 2.57326,-0.57667c2.36524,0.80972 1.55552,3.17496 1.55552,3.17496l-0.49353,0.48085c-0.10968,0.32905 -0.20828,0.66092 -0.29681,0.99532c2.48136,1.78585 5.55661,3.30846 8.64016,4.4358c-0.21576,0.64309 -0.39009,1.30096 -0.53625,1.95678c-0.22258,0.99877 2.17527,2.93851 2.32119,3.07153c0.47093,0.42925 0.94437,0.85305 1.42158,1.27139l-0.33258,-0.05543l0.02065,-0.12387c-4.04831,-1.01072 -8.51279,-2.76031 -12.24364,-5.10988c-0.06608,2.19241 0.05066,4.42148 0.1066,6.61517c0.08348,0.3032 0.10427,0.65048 0.02109,1.0429c0.00401,0.28744 0.0063,0.57406 0.0063,0.85971c0,2.09348 -0.57783,5.3692 -0.17881,7.32153c0.54779,2.68022 2.17881,4.80583 2.17881,7.67847c-0.31943,3.89168 -2.23798,5.70031 -4.54783,8.56174c-4.65022,5.76066 -10.89813,10.0517 -14.90188,16.31815c2.20582,6.14335 -3.13057,11.05398 -5.40656,16.65635c-0.59701,1.46956 0.65698,2.69437 1.05772,4.47347c0.08333,0.41666 0.16667,0.83334 0.25,1.25l0.25195,0.98776c1.03053,-0.00303 1.92033,0.01915 3.08284,0.35881c4.15371,1.21364 4.83274,6.22719 7.48152,8.87597c0,0 1.76776,1.76776 0,3.53553c-0.13339,0.13339 -0.26677,0.24665 -0.3994,0.34206c0.86172,0.4977 1.70949,0.89018 2.63164,0.89018c0.23837,0.88376 3.5355,-1.94572 4.18826,-2.45217c2.26565,-1.75782 4.62149,-3.08361 7.56174,-3.04783c5.80393,0.07062 9.57806,4.12104 11.50611,9.11636c-0.23854,-0.07559 -0.49256,-0.11638 -0.75611,-0.11638c-1.38071,0 -2.5,1.11929 -2.5,2.5c0,0.18573 0.02025,0.36673 0.05867,0.54091l0.23988,1.19938c-0.02118,0.03062 -0.03766,0.06235 -0.05003,0.09503c-0.30581,0.17718 -0.5706,0.4173 -0.77666,0.70264l-0.27014,-1.6208c-0.11945,-0.58823 -0.27594,-1.16618 -0.5229,-1.73868c-0.83641,-1.93895 -2.93428,-4.80287 -4.63098,-6.11674c-0.17761,-0.13753 0.42218,0.56077 0.21188,0.63971c-0.89108,0.33452 -3.21837,-0.43886 -4.25971,-0.20145c-1.16557,0.26574 -2.90942,2.20368 -3.93826,2.95217c-2.25497,1.64051 -3.21337,2.13354 -6.06174,2.54783c-3.25995,0 -5.42416,-2.46189 -8.4848,-3.20213c-1.03915,-0.25133 -3.30518,0.20213 -4.5152,0.20213c-1,0 -2.10557,-0.44721 -3,0c-0.33333,0.16666 -0.23647,0.73648 -0.5,1c-2.42989,2.42989 -5.23737,4.79145 -7.93826,6.95217l-2.06174,1.04783c0,0 -0.30213,0 -0.69633,-0.10503c-2.49989,1.40248 -5.41138,2.11828 -8.30367,1.60503c-2.59407,-0.46033 -5.26535,-2.05892 -8,-1.5c-1.94988,0.39852 -3.76778,3.29088 -5.46376,4.39373c-4.62862,2.77718 -8.11586,4.067 -13.46472,1.92746l-0.01887,0.11696c0,0 -2.43815,0.55265 -2.9908,-1.8855c-0.55265,-2.43815 1.8855,-2.9908 1.8855,-2.9908l2.98113,0.11696c4.00738,1.60296 5.55967,0.51282 9.03528,-1.57254c3.06453,-1.49158 4.37789,-4.38195 8.03624,-5.10627c2.90551,-0.57527 5.33895,0.99519 8,1.5c3.2657,0.61951 6.07846,-0.61399 8.23224,-2.76776c0,0 0.91598,-0.91599 2.08859,-0.76989c0.0486,-0.04529 0.09716,-0.09064 0.14569,-0.13606c-0.83038,-0.41349 -1.2296,-1.26402 -1.2296,-1.26402l-0.68836,-0.57198c-0.08333,-0.41666 -0.16667,-0.83334 -0.25,-1.25c-0.43948,-2.56184 -0.29855,-5.14448 -0.29855,-7.74029c0,-0.97027 0.27866,-2.41789 -0.26776,-3.23224c-0.98243,-1.46415 -2.71585,-2.36148 -4,-3.5c-2.68552,-2.38097 -4.727,-5.02323 -6.05343,-8.33929c0,0 -0.92847,-2.32119 1.39272,-3.24966c2.32119,-0.92847 3.24966,1.39272 3.24966,1.39272c1.09783,2.74456 2.71049,4.66655 4.94657,6.66071c1.29211,1.15231 3.01286,2.01488 4,3.5c2.89291,4.35226 0.70897,8.90886 1.93369,13.52748c0.08333,0.41666 0.16667,0.83334 0.25,1.25l0.31164,-0.57198c0,0 0.04158,0.08858 0.09076,0.2389c1.69842,-1.48718 3.50657,-2.82079 5.64616,-3.67663c1.71137,-0.68455 6.64107,-0.30259 8.91478,0.09083c-1.23664,-1.95138 -1.94266,-4.18875 -3.55851,-5.8046c-0.79185,-0.79185 -1.8732,-0.28624 -2.85627,-0.28624l-2.57299,-0.55689c0,0 -0.98059,-0.7938 -0.98466,-1.95018c-0.48952,-0.74756 -0.43821,-1.63691 -0.43821,-1.63691l-0.4556,-0.86572c-0.08333,-0.41666 -0.16667,-0.83334 -0.25,-1.25c-0.44711,-3.03134 -1.67779,-4.91257 -0.44228,-8.02653c0.98935,-2.49355 3.14148,-4.69952 4.27202,-7.00433c0.63653,-1.29771 1.06546,-2.77057 0.92026,-4.21914c-0.04238,-0.4228 -0.42626,-0.86336 -0.25,-1.25c0.10343,-0.22687 0.83113,0.47267 0.70145,0.25971c-0.4334,-0.71176 -1.33333,-1 -2,-1.5c0,0 -2,-1.5 -0.5,-3.5c1.10023,-1.46696 2.46945,-1.05094 3.12114,-0.72499c3.85325,-5.46462 9.15945,-9.53118 13.61109,-14.54278c0.99852,-1.12412 4.92415,-4.48982 4.35384,-6.28276c-0.13085,0.02375 -0.25845,0.03669 -0.37919,0.04209c-0.06822,0.00559 -0.13722,0.00843 -0.20688,0.00843c-0.2575,0 -0.50592,-0.03893 -0.73967,-0.11123c-7.22305,-2.04623 -15.75696,-0.88877 -23.26033,-0.88877c-2.5171,0 -4.96604,0.5 -7.5,0.5c-0.83333,0 -1.85717,0.53029 -2.5,0c-1.0886,-0.89803 -1.80097,-2.17314 -2.70145,-3.25971c-0.43746,-2.18729 -2.07962,-2.50187 -3.91658,-3.50422c-3.0197,-1.64772 -5.91754,-3.45877 -9,-5c0,0 -9.98832,-0.6853 -10.22978,-0.79381M363.96612,162.58507l0.65193,0.17887c4.81863,2.40932 13.58091,5.62754 15.3851,11.23422c0.58231,-0.00225 1.16461,-0.00496 1.74686,0.00186c2.58203,0.03023 5.14204,-0.5 7.75,-0.5c6.3576,0 13.25342,-0.69832 19.62381,0.31668l0.063,-0.22048l1.24248,0.355l0.26584,-0.44306c-0.00561,-0.02648 -0.01105,-0.05303 -0.01632,-0.07966c-0.57518,-2.90511 -0.17881,-6.23757 -0.17881,-9.17847c0,-0.17117 -0.00061,-0.34245 -0.00174,-0.51384c-1.48521,-0.80544 -3.00896,-1.40684 -4.49826,-2.23616c-1.98151,-1.10342 -3.12602,-3.01792 -5.11804,-4.01393c-0.78556,-0.99966 -2.92799,-0.4095 -4.06877,-0.58226c-0.49599,-0.07512 -3.94795,-1.19652 -4.09944,-1.26008c-2.27605,-0.95487 -4.34462,-2.95903 -5.85749,-4.85749c-0.4585,-0.57536 -1.24696,-2.62334 -1.76727,-2.82026c-1.85453,-0.70188 -1.14867,4.2708 -3.37569,4.36121M395.28625,151.35629c2.59019,1.06812 5.16999,0.62677 7.8318,1.65766c2.29243,1.14622 3.67549,3.26509 5.88196,4.48607c0.45089,0.2495 0.91815,0.47628 1.39261,0.69588c-0.02411,-2.08253 0.01633,-4.15754 0.28015,-6.19949c-0.21626,-0.22501 -0.42475,-0.45324 -0.62493,-0.68467c-2.54273,-2.93957 -1.73568,-9.37641 -5.53817,-10.64113c-0.86691,-0.49538 -1.73973,-1.14691 -2.62389,-1.75594c-0.40353,0.98501 -1.45729,1.40652 -1.45729,1.40652c-3.89432,1.55773 -8.24246,2.10819 -11.2446,4.8704c2.07502,2.00435 3.06203,4.91096 6.10236,6.1647z" data-paper-data="{&quot;origPos&quot;:null}" fill="#3f3434" stroke-width="NaN"/><path d="M348.76854,81.96352c1.95595,-0.75015 4.16284,-1.99331 5.77961,-2.77517c2.57308,-1.24434 5.12454,-3.5086 8.0234,-4.0095c5.60039,-0.9677 8.59441,2.87883 13.54141,4.145c1.68996,0.50699 3.57462,1.48286 5.29991,1.84881c1.30058,0.27586 3.85365,-0.66762 5.17615,-0.8886c5.4989,-0.91884 10.5171,-3.33618 16,-4.25l1.15033,-0.02039c0,0 2.48637,-0.26067 2.74704,2.22571c0.26067,2.48637 -2.22571,2.74704 -2.22571,2.74704l-0.84967,-0.02039c-7.1374,1.18957 -14.2538,5.40866 -21.661,5.03402c-1.33587,-0.06757 -2.55088,-0.38409 -3.75511,-0.77487c0.17253,0.24866 0.26108,0.59646 0.50511,0.77487c1.15974,0.84788 5.40493,0.65526 6.92848,2.17881c2.05611,2.05611 2.44844,3.61702 2.57152,6.32119c0.01374,0.3019 0.39814,5.76231 0.5,3.25l1,0.75c0,0 1.99767,2.51605 -0.00919,4.00686c-2.00686,1.49081 -2.99081,-0.00686 -2.99081,-0.00686l-1,-0.75c-1.93558,-2.30283 -2.2622,-2.89403 -2.5,-5.75c-0.05751,-0.69069 0.29916,-1.38898 0.17881,-2.07152c-0.07793,-0.44195 -0.65001,-0.82705 -0.5,-1.25c0.10073,-0.28402 1.1058,0.3558 0.89272,0.14272c-0.66763,-0.66763 -3.00816,-1.1636 -3.86209,-1.44948c-3.37832,-1.131 -5.99183,-2.21891 -7.20943,-5.87171c-0.25224,-0.75673 -0.0216,-1.59181 -0.00139,-2.39275c-2.65326,-1.46548 -5.66631,-3.65877 -8.07014,-3.28606c-2.83985,0.44032 -5.46434,2.76664 -7.9766,3.9905c-1.11921,0.54523 -2.21846,1.03782 -3.31383,1.4724M377.50001,85.50005c0.04117,0.12352 0.06549,-0.21038 0.13327,-0.39435c-0.07779,-0.02611 -0.15557,-0.05246 -0.23339,-0.079c0.01712,0.16042 0.04851,0.31852 0.10012,0.47335z" data-paper-data="{&quot;origPos&quot;:null}" fill="#3f3434" stroke-width="NaN"/><path d="" fill="#3f3434" stroke-width="NaN"/><path d="M402.39056,62.50005h0.10945v1.49379c1.05113,0.2323 1.64373,1.21997 1.64373,1.21997c1.60066,2.66777 3.73336,4.8884 5.80844,7.2245c1.12113,1.26215 2.88974,2.45063 3.54783,4.06174c1.56156,3.82299 1.80577,8.85587 5.26776,11.73224c1.41449,1.41448 2.78726,2.82485 4.3327,4.09721l1.5,1.25c0,0 1.89067,2.47913 -0.13419,3.94541c-2.02486,1.46627 -3.06673,-0.1043 -3.06673,-0.1043l-1.5,-1.25c-1.65134,-1.38935 -3.14304,-2.87852 -4.6673,-4.40279c-2.58911,-2.78774 -4.68669,-6.66303 -5.69822,-10.35677c-0.16827,-0.61447 0.19149,-1.31514 -0.03402,-1.91099c-0.57419,-1.51714 -2.42584,-2.78431 -3.45217,-3.93826c-2.21341,-2.48865 -4.47751,-4.91874 -6.19156,-7.7755c0,0 -0.06667,-0.11111 -0.14435,-0.29792c-0.82788,-0.06897 -1.34591,-0.43489 -1.67004,-0.86582l-2.64234,-2.20195l1.89745,-2.27693c-0.17771,-0.8146 -0.50643,-1.53614 -1.10905,-2.38614c-0.25185,-0.23322 -0.42236,-0.4835 -0.5331,-0.73638l-0.52654,-0.73053c0,0 -0.45885,-1.37655 0.37131,-2.3818c-0.01726,-1.94586 -0.57997,-4.20509 -0.96724,-6.48004c-5.86248,3.56847 -11.72497,7.13694 -17.58745,10.7054l-1.64504,1.00133c0,0 -2.1355,1.29987 -3.43536,-0.83563l-0.00001,0.00003c-1.29987,-2.1355 0.83563,-3.43536 0.83563,-3.43536c6.68828,-4.07113 14.82884,-9.02625 21.6926,-13.20419c0.15096,-0.67977 0.38773,-1.33354 0.73556,-1.95088c0.60838,-1.07978 1.20477,-2.20477 2.08114,-3.08114c0.7113,-0.7113 1.62117,-0.31497 2.40382,-0.70842c0.13287,-0.0668 0.26178,-0.183 0.38799,-0.31481c-1.80256,-1.37458 -3.50123,-2.55578 -3.50123,-5.10506c0,-5.59177 1.79349,-9.94861 8.29057,-8.87171c0.78107,0.12946 1.42868,0.74036 2.20943,0.87171c0.49307,0.08295 1.07016,-0.25542 1.5,0c0.22342,0.13276 -0.51184,0.82149 -0.26777,0.73223c1.86224,-0.68099 3.37314,-3.82026 5,-5c1.26859,-0.91993 2.01449,-1.35447 2.76777,-1.55831v-0.17393h1.54334c0.06774,-0.00107 0.13712,-0.00179 0.20834,-0.00224l0.74832,-0.99776l1.75,1.3125c0.625,0.3125 1.25,0.9375 1.25,2.1875c0,1.48852 -0.88627,2.09076 -1.60343,2.33442c-0.27831,0.10696 -0.58059,0.16558 -0.89657,0.16558h-3c-0.25455,0.09309 0.8166,0.00116 0.76777,0.26777c-0.08494,0.46369 -0.66667,0.66667 -1,1c-1.02487,1.02487 -2.67591,3.46257 -4,4c-0.86756,0.35213 -3.44515,0.95146 -4.76777,0.73223c-1.80743,-0.29958 -4.07658,-1.70337 -6,-1c-0.25455,0.09309 0.8166,0.00116 0.76777,0.26777c-0.08494,0.46369 -0.8381,0.55727 -1,1c-0.08926,0.24408 0.59947,-0.49118 0.73223,-0.26777c0.51085,0.85967 0,2 0,3c0,0.5 -0.33875,1.13224 0,1.5c0.25909,0.28128 0.00467,-1.0639 0.38675,-1.08013c0.50658,-0.02151 3.95915,2.79371 3.88102,3.31236c-0.25822,1.714 -1.01343,3.3473 -1.88102,4.84789c-0.97502,1.68641 -3.80071,1.12391 -5.02914,2.22805c0.02225,0.0268 0.04433,0.05438 0.06624,0.08277c0.28899,-0.09782 0.85622,-0.3241 0.94786,-0.10038c0.15946,0.38932 -0.19854,0.78172 -0.39396,1.18856c0.14352,0.53777 0.07214,1.00485 -0.09051,1.39093c0.04765,0.37628 0.11277,0.75395 0.11277,1.12993c0,3.14011 1,5.80415 1,9l-0.10568,1.04908c1.25389,1.82827 1.79191,3.48909 1.99622,5.45094z" data-paper-data="{&quot;origPos&quot;:null}" fill="#3f3434" stroke-width="0.5"/><path d="M368.10634,81.42539c-2.42536,0.60634 -3.0317,-1.81901 -3.0317,-1.81901l-0.07464,-1.60634c0,-5.40618 -1.3973,-9.80142 -2.21598,-15.089c-0.3075,-1.98606 -1.60064,-3.99199 -1.68783,-5.97419c-0.00871,-0.1981 0.49282,-0.25962 0.40381,-0.4368l-1.97672,-1.48255c-0.25207,-0.18482 -0.46822,-0.41574 -0.63603,-0.68034c-0.35114,-0.51021 -0.6517,-1.28219 -0.26128,-2.19949c-1.04863,-1.00939 -2.17254,-1.92218 -3.51271,-2.55749c-1.01839,-0.48277 -3.51568,-0.10307 -4.75762,-0.08111c2.27413,-1.382 4.53286,-2.73416 6.57393,-4.44034c0.32232,0.10151 0.6416,0.22088 0.9572,0.3612c3.35751,1.49285 5.16665,4.7376 7.89949,6.9364c3.09873,2.49319 7.1556,2.49336 10.5,4.5c0,0 2.14373,1.28624 0.85749,3.42997c-1.28624,2.14373 -3.42997,0.85749 -3.42997,0.85749c-2.14293,-1.28576 -4.57406,-1.7282 -6.8867,-2.56832c0.0148,0.04456 0.02968,0.08923 0.04465,0.13402c2.01002,6.01454 3.12829,12.96957 3.12829,19.29057l-0.07464,0.39366c0,0 0.60634,2.42535 -1.81902,3.03169z" data-paper-data="{&quot;origPos&quot;:null}" fill="#3f3434" stroke-width="0.5"/><path d="M411.98071,77.68994c0.31009,2.48069 -2.17061,2.79078 -2.17061,2.79078l-1.81009,0.51931c-0.83333,0 -1.66667,0 -2.5,0c0,0 -2.5,0 -2.5,-2.5c0,-2.5 2.5,-2.5 2.5,-2.5c0.83333,0 1.66667,0 2.5,0l1.18991,-0.48069c0,0 2.4807,-0.31009 2.79078,2.17061z" data-paper-data="{&quot;origPos&quot;:null}" fill="#3f3434" stroke-width="0.5"/><path d="M433.14374,93.71381c1.28624,2.14373 -0.85749,3.42997 -0.85749,3.42997l-2.35776,0.67746c-1.0959,0.43836 -3.2991,0.86844 -4.16071,1.44658c-1.81382,1.21706 -2.98241,3.31917 -4.83929,4.55342c-0.52523,0.34912 -3.65973,1.79551 -4.18819,1.38026c-0.26215,-0.20599 0.64323,-1.14685 0.40344,-0.91521c-0.69895,0.67521 -1,1.66667 -1.5,2.5c0,0 -0.01889,0.03148 -0.05591,0.08453c0.79641,1.7928 1.69369,3.50459 2.91217,5.12923l1.04664,2.06429c0,0 1.43571,2.04664 -0.61094,3.48235c-2.04664,1.43571 -3.48235,-0.61094 -3.48235,-0.61094l-0.95336,-1.93571c-2.16465,-2.8862 -3.48943,-5.99212 -4.82119,-9.32152c-1.43905,-3.98082 -4.88669,-7.03121 -7.63098,-10.11674c-3.55037,-3.99185 -7.42571,-7.66574 -10.19156,-12.2755c0,0 -1.28624,-2.14373 0.85749,-3.42997c2.14373,-1.28624 3.42997,0.85749 3.42997,0.85749c4.60234,7.67057 12.71001,12.90866 17.04404,20.77472c1.91005,-1.20755 4.05813,-1.0847 5.88375,-2.30967c1.09185,-0.73262 1.94466,-2.63828 3.16071,-3.44658c1.72532,-1.1468 3.92247,-1.7867 5.83929,-2.55342l1.64224,-0.32254c0,0 2.14373,-1.28624 3.42997,0.85749z" data-paper-data="{&quot;origPos&quot;:null}" fill="#3f3434" stroke-width="0.5"/><path d="M339.50092,116.06759c-0.06754,-2.49909 0.73132,-1.83531 0.73132,-1.83531l1,-1c3.09867,-1.93933 4.29543,-1.73223 7.76777,-1.73223c3.24141,0.14902 6.9262,1.01289 9.76777,2.73223c0.49356,0.29864 0.52561,1.1035 1.0228,1.39606c1.09738,0.64573 3.17121,1.2099 4.41886,1c4.14947,-0.69809 7.797,-2.94081 11.79057,-3.79429v-0.334h3c0.31597,0 0.61826,0.05862 0.89657,0.16558c0.71716,0.24366 1.60343,0.84591 1.60343,2.33442c0,1.48852 -0.88627,2.09076 -1.60343,2.33442c-0.00737,0.00283 -0.01476,0.00563 -0.02216,0.00839l-2.44593,0.97837l-0.26326,-0.65815c-4.98861,0.85313 -9.77375,4.7306 -15.16522,3.83695c-4.89171,-0.81081 -7.71013,-5.56113 -13,-5c-0.54763,0 -6.22003,-0.4255 -4.23223,0.26777l-1,1c0,0 -4.19931,0.79886 -4.26685,-1.70022z" data-paper-data="{&quot;origPos&quot;:null}" fill="#3f3434" stroke-width="0.5"/><path d="M363.76777,31.23228c1.31566,1.62184 2.61201,3.89461 3.31236,5.88102c0.06549,0.18575 -0.44047,0.38849 -0.28956,0.51504c1.09533,0.91851 2.75417,0.86393 3.9772,1.60394c0.49356,0.29864 0.52561,1.1035 1.0228,1.39606c1.35788,0.79901 3.05188,1.01006 4.28956,1.98496c4.11175,3.23874 4.20689,9.22706 5.34523,13.78041c0,0 0.60634,2.42536 -1.81902,3.0317c-2.42536,0.60634 -3.0317,-1.81902 -3.0317,-1.81902c-1.14634,-4.58535 -0.72164,-8.92138 -4.65477,-12.21959c-0.13502,-0.11323 -0.03423,0.48651 -0.21044,0.48496c-0.52703,-0.00463 -1.04907,-0.22716 -1.5,-0.5c-1.12801,-0.68252 -1.8409,-1.93531 -2.9772,-2.60394c-0.59216,-0.34844 -1.48306,0.02908 -2.0228,-0.39606c-2.08625,-1.6433 -3.21783,-3.67742 -4.08114,-6.08114c-0.19908,-0.55429 -0.30807,-1.48895 -0.89606,-1.5228c-1.55002,-1.55002 -2.7464,-3.38392 -3.90272,-5.24989c0.43464,-0.18338 0.86286,-0.38454 1.29006,-0.58854l0.15393,0.2309l2.93547,-1.95698c0.00262,-0.00169 0.00524,-0.00339 0.00786,-0.00509c0.90088,1.44599 1.85901,2.84214 3.05094,4.03407z" data-paper-data="{&quot;origPos&quot;:null}" fill="#3f3434" stroke-width="0.5"/><path d="M342.12829,4.29062c-0.33266,-0.99798 -1.15221,-1.77895 -1.89606,-2.5228l-0.35021,-2.43954c0,0 -1.32822,-2.11798 0.78975,-3.4462c2.11798,-1.32822 3.4462,0.78975 3.4462,0.78975l-0.35021,1.56046c1.39161,1.39161 2.47609,2.59365 3.10394,4.4772c0.18763,0.68403 0.30763,1.43791 0.40217,2.22423c-0.09398,0.02367 -0.18561,0.04629 -0.27387,0.06631c-1.57177,0.35651 -2.97082,1.26942 -4.44846,1.92494c0.01319,-0.9138 0.00893,-1.8095 -0.42325,-2.63435z" data-paper-data="{&quot;origPos&quot;:null}" fill="#3f3434" stroke-width="0.5"/><path d="M353.43116,17.07397c-0.76554,-0.02383 -1.53169,-0.03755 -2.29757,-0.05161c0.38979,-0.23772 0.77544,-0.48137 1.15565,-0.73309l0.24629,0.24629l0.22876,-0.22875c0.22397,0.25168 0.44622,0.50781 0.66687,0.76717z" data-paper-data="{&quot;origPos&quot;:null}" fill="#3f3434" stroke-width="0.5"/><path d="M371.00001,17.50005h-1.5c0.08926,-0.24408 0.51184,-0.82149 0.26777,-0.73223c-1.58891,0.58104 -2.62371,2.50448 -4.4772,3.10394c-0.99379,0.32141 -1.90178,0.65774 -2.77511,0.97832c-0.59717,-1.25199 -1.6997,-2.2166 -3.0437,-2.62993l-1.39062,-0.46354c-0.04647,-0.10979 -0.12183,-0.19299 -0.2167,-0.25656h1.13556c1.08661,-0.27753 1.8507,-1.29536 2.88197,-1.73607c2.88331,-1.23216 4.4794,-2.56063 7.61803,-3.26393h0.72954c0.00901,0.02704 0.01803,0.05407 0.02704,0.08111c0,0 0.81849,2.45547 3.04435,3.24417c-0.59311,1.20604 -2.30093,1.67472 -2.30093,1.67472z" data-paper-data="{&quot;origPos&quot;:null}" fill="#3f3434" stroke-width="0.5"/><path d="M400.81834,-30.40166c0.47689,9.97453 1.04972,29.92693 1.72242,39.88965c0.16586,2.45637 0.66667,4.74859 1.10324,7.16905c0.14792,0.8201 0.47649,1.63523 0.411,2.46598c-0.02725,0.34558 -0.81386,0.48227 -0.66824,0.79686l2.96774,1.97849c0.26491,0.17108 0.4954,0.39089 0.6788,0.64674c0.45723,0.58988 0.86379,1.56439 0.0859,2.78182c-0.02281,0.03635 -0.04653,0.07208 -0.07113,0.10715c-0.71988,1.04442 -1.61816,1.17847 -2.31553,1.06593h-2.73252v-1.26225c-0.5631,-0.29097 -1.07796,-0.62734 -1.38675,-1.15763c-1.78582,-3.06678 -2.37605,-7.91914 -2.8423,-11.44402c-1.42831,-10.79802 -1.42719,-31.92843 -1.94692,-42.799c-0.26499,-5.5425 4.7259,-5.85229 4.99429,-0.23877z" data-paper-data="{&quot;origPos&quot;:null}" fill="#3f3434" stroke-width="0.5"/><path d="M434.10569,53.65242c1.34763,2.10568 -2.10568,3.84763 -2.10568,3.84763h-1.5c-0.28622,-1.06118 -5.16494,3.54225 -5.70943,3.87171c-0.7147,0.43244 -1.65747,0.33322 -2.40382,0.70842c-2.51116,1.26238 -4.16098,3.50952 -6.5,5c-0.80838,0.51512 -2.43273,1.70822 -3.59618,1.79158c-0.15687,0.01124 -0.17422,-0.47752 -0.29057,-0.37171c-1.23306,1.12131 -2,2.66667 -3,4c0,0 -1.5,2 -3.5,0.5c-2,-1.5 -0.5,-3.5 -0.5,-3.5c1,-1.33333 1.69918,-2.95806 3,-4c1.98792,-1.59231 4.57443,-1.95633 6.61325,-3.58013c1.67707,-1.33568 2.99952,-3.00338 5,-4c1.14005,-0.56796 2.49843,-0.64564 3.59618,-1.29158c0.49719,-0.29256 0.57291,-1.03497 1.0228,-1.39606c2.24138,-1.79897 3.39874,-2.31494 6.26777,-2.73223h1.5c0,0 0.75804,-0.95331 2.10568,1.15237z" data-paper-data="{&quot;origPos&quot;:null}" fill="#3f3434" stroke-width="0.5"/></g></g></svg>