<svg version="1.1" xmlns="http://www.w3.org/2000/svg" xmlns:xlink="http://www.w3.org/1999/xlink" width="46.52063" height="83.44303" viewBox="0,0,46.52063,83.44303"><g transform="translate(-218.22616,-139.45081)"><g data-paper-data="{&quot;isPaintingLayer&quot;:true}" fill-rule="nonzero" stroke-linejoin="miter" stroke-miterlimit="10" stroke-dasharray="" stroke-dashoffset="0" style="mix-blend-mode: normal"><path d="M222.64287,203.17095c-1.70981,-0.65884 -4.41671,-3.39074 -4.41671,-3.39074c0,0 4.26764,0.06377 6.30259,-0.29746c1.63835,-0.29083 4.97725,-1.70483 4.97725,-1.70483l-1.20424,5.88473c0,0 -4.01259,0.14267 -5.65889,-0.49172z" fill="#d2a31f" stroke="#000000" stroke-width="0" stroke-linecap="round"/><g data-paper-data="{&quot;index&quot;:null}" stroke-linecap="butt"><g fill="#bba983" stroke="none" stroke-width="0"><path d="M241.10427,218.95758c-0.99448,2.20968 -4.67962,1.13427 -8.08035,-0.39624c-1.49318,-0.67201 -2.84043,-1.10449 -3.55048,-2.11487c-0.90709,-1.29077 -0.91362,-3.21508 -0.35581,-4.45455c0.41847,-0.92982 1.49856,-2.06192 2.57952,-2.39241c1.48793,-0.45491 3.1747,0.17069 4.92808,0.95981c3.02717,1.36238 5.47352,6.18858 4.47904,8.39825z"/><path d="M236.49868,213.99304c1.11618,-3.27574 5.13024,-4.86327 8.96567,-3.54588c3.83542,1.31739 6.03981,5.04088 4.92363,8.31661c-1.11619,3.27573 -5.13025,4.86327 -8.96568,3.54589c-3.83542,-1.31739 -6.03981,-5.04089 -4.92361,-8.31663z"/></g><g><path d="M241.94612,217.30041c-1.02686,2.28166 -4.83201,1.1712 -8.34349,-0.40914c-1.54181,-0.69389 -2.93292,-1.14046 -3.66608,-2.18375c-0.93662,-1.33281 -0.94338,-3.31979 -0.36739,-4.59962c0.43209,-0.9601 1.54738,-2.12908 2.66352,-2.47032c1.53637,-0.46973 3.27808,0.17627 5.08856,0.99107c3.12576,1.40675 5.65177,6.39011 4.6249,8.67176z" fill="#2b9638" stroke="none" stroke-width="0"/><path d="M241.79469,209.52666c-0.52391,1.16411 -2.91152,1.22441 -5.33286,0.13468c-2.42135,-1.08973 -3.95953,-2.91682 -3.43563,-4.08094c0.52391,-1.16411 2.91151,-1.22442 5.33287,-0.1347c2.42135,1.08973 3.95951,2.91684 3.43561,4.08096z" fill="#1c6225" stroke="#2b9638" stroke-width="1.5"/><path d="M237.19054,212.17419c1.15254,-3.38242 5.29732,-5.02168 9.25766,-3.66136c3.96032,1.36031 6.2365,5.20504 5.08396,8.58746c-1.15253,3.38242 -5.29733,5.02167 -9.25766,3.66136c-3.96033,-1.36032 -6.2365,-5.20503 -5.08396,-8.58747z" fill="#2b9638" stroke="none" stroke-width="0"/></g><path d="M233.98731,207.04391l6.25382,-13.89577l5.70068,2.5656l-5.99948,13.33068c0,0 -0.98724,0.85098 -3.20834,-0.03957c-1.69859,-0.71934 -2.74667,-1.96093 -2.74667,-1.96093z" fill="#fcdc48" stroke="none" stroke-width="0"/></g><g data-paper-data="{&quot;index&quot;:null}" stroke-linecap="butt"><g fill="#bba983" stroke="none" stroke-width="0"><path d="M245.62769,216.2537c0.89508,2.25179 -2.44152,4.15022 -5.90703,5.52774c-1.52163,0.60483 -2.76968,1.27153 -3.98942,1.07844c-1.55823,-0.24666 -2.94486,-1.58093 -3.44692,-2.84401c-0.37663,-0.94753 -0.43818,-2.51101 0.07662,-3.51734c0.70859,-1.38519 2.33162,-2.16135 4.11842,-2.87158c3.08484,-1.22619 8.25328,0.37494 9.14837,2.62676z"/><path d="M238.85741,216.10708c-1.57603,-3.08098 0.07683,-7.06858 3.69177,-8.90659c3.61492,-1.838 7.82306,-0.83036 9.39908,2.25062c1.57603,3.08098 -0.07682,7.06859 -3.69176,8.9066c-3.61492,1.838 -7.82307,0.83036 -9.3991,-2.25064z"/></g><g><path d="M245.02326,214.49597c0.92421,2.32513 -2.52104,4.28537 -6.09941,5.70776c-1.57119,0.62453 -2.85987,1.31292 -4.11935,1.11356c-1.60897,-0.25469 -3.04075,-1.63243 -3.55915,-2.93665c-0.3889,-0.97839 -0.45245,-2.59279 0.0791,-3.63188c0.73167,-1.43029 2.40755,-2.23173 4.25251,-2.96508c3.18532,-1.26614 8.52208,0.38716 9.44631,2.71228z" fill="#36c651" stroke="none" stroke-width="0"/><path d="M239.33463,209.19561c0.47154,1.18629 -1.14648,2.94306 -3.61397,3.92387c-2.46749,0.9808 -4.85005,0.81421 -5.32158,-0.37208c-0.47154,-1.18629 1.14648,-2.94306 3.61398,-3.92386c2.46749,-0.9808 4.85004,-0.81422 5.32157,0.37207z" fill="#1c6225" stroke="#36c651" stroke-width="1.5"/><path d="M238.03249,214.34458c-1.62735,-3.18133 0.07932,-7.2988 3.812,-9.19666c3.73268,-1.89784 8.07782,-0.8574 9.70518,2.32391c1.62736,3.18132 -0.07932,7.2988 -3.81199,9.19665c-3.73268,1.89784 -8.07783,0.8574 -9.70519,-2.32392z" fill="#36c651" stroke="none" stroke-width="0"/></g><path d="M226.49028,198.91493l5.80931,-2.30914l5.39976,13.58467c0,0 0.09996,1.13336 -2.22934,2.18099c-2.3478,0.90811 -3.40404,0.58927 -3.40404,0.58927z" fill="#fcdc48" stroke="none" stroke-width="0"/></g><g data-paper-data="{&quot;index&quot;:null}"><path d="M243.44962,180.22525c1.95296,-0.51772 5.19655,3.14182 5.19655,3.14182l5.70222,3.06202l1.07967,-1.22623l1.84272,-0.49908l2.99848,0.67319l3.40908,1.86345l0.50322,1.26074l-0.89442,1.36724l-0.01241,1.74602l-1.3658,2.17871l-0.33866,1.79025l-1.59114,1.12942l-2.07226,0.03184l-4.16802,-3.1726l-0.80321,-1.63538l-4.69901,-2.81222l-4.06668,-3.70875c0,0 -2.67329,-4.67272 -0.72034,-5.19045z" data-paper-data="{&quot;origPos&quot;:null}" fill="#d2a31f" stroke="#000000" stroke-width="0" stroke-linecap="round"/><path d="M261.86891,193.50725c-0.11699,0.72605 -0.82834,0.6431 -0.82834,0.6431l-0.10939,-0.10348c-0.70925,0.11471 -1.19919,0.05193 -1.86362,-0.13532c0,0 -0.68507,-0.19311 -0.46059,-0.89791c0.22448,-0.70481 0.90956,-0.51172 0.90956,-0.51172c0.54949,0.15487 0.73596,0.18606 1.2564,0.10186l0.50165,0.09442c0,0 0.71135,0.08297 0.59435,0.80902z" data-paper-data="{&quot;origPos&quot;:null}" fill="#996c1c" stroke="none" stroke-width="0.5" stroke-linecap="butt"/><path d="M262.89782,190.04808c-0.1275,0.71807 -0.8202,0.64932 -0.8202,0.64932l-0.10484,-0.10002c-0.69427,0.12612 -1.17122,0.07321 -1.81618,-0.09923c0,0 -0.66501,-0.1778 -0.43301,-0.87688c0.23199,-0.69908 0.89701,-0.52128 0.89701,-0.52128c0.53338,0.14262 0.71479,0.16994 1.22424,0.07739l0.48783,0.08388c0,0 0.69267,0.06876 0.56515,0.78682z" data-paper-data="{&quot;origPos&quot;:null}" fill="#996c1c" stroke="none" stroke-width="0.5" stroke-linecap="butt"/></g><g><path d="M226.13797,189.14003c1.34951,-8.14049 7.85331,-13.84282 14.52661,-12.73652c6.67331,1.1063 10.39461,8.70071 9.06461,16.84443c-1.9334,11.83844 -7.27836,13.74122 -13.95166,12.63491c-6.67331,-1.1063 -10.98907,-8.6023 -9.63954,-16.7428z" fill="#fcdda0" stroke="#00beff" stroke-width="0" stroke-linecap="butt"/><path d="M249.11925,186.54456c0,0 -3.82582,1.08557 -6.32144,0.6159c-2.81642,-0.53005 -9.73129,-3.63698 -9.73129,-3.63698" fill="none" stroke="#c5ab79" stroke-width="2" stroke-linecap="round"/><path d="M247.79621,177.35832c-0.2839,1.9347 -3.20273,3.10852 -6.51934,2.62182c-3.31661,-0.48671 -5.77509,-2.44962 -5.4912,-4.38433c0.2839,-1.9347 3.20272,-3.10852 6.51934,-2.62182c3.31661,0.48671 5.77509,2.44962 5.4912,4.38433z" fill="#a28650" stroke="#fcdda0" stroke-width="4.5" stroke-linecap="butt"/><path d="M248.93399,193.97576c0,0 -4.90462,0.9335 -7.11664,0.51721c-2.93286,-0.55196 -8.9361,-3.53828 -8.9361,-3.53828" fill="none" stroke="#c5ab79" stroke-width="2" stroke-linecap="round"/><path d="M238.61425,176.78159l1.05417,-5.26167l5.20271,0.92296l-1.05417,5.26167c0,0 -1.64619,0.06625 -2.45678,-0.07754c-0.91172,-0.16173 -2.74593,-0.84542 -2.74593,-0.84542z" fill="#d2a31f" stroke="none" stroke-width="0" stroke-linecap="butt"/><path d="M230.27703,184.72545c-0.20596,-3.21814 1.58369,-5.95216 3.99728,-6.10663c2.4136,-0.15447 4.53718,2.3291 4.74314,5.54724c0.20596,3.21813 -1.58367,5.95216 -3.99728,6.10664c-2.4136,0.15446 -4.53717,-2.32912 -4.74313,-5.54726z" fill="#a28650" stroke="none" stroke-width="NaN" stroke-linecap="butt"/><path d="M246.40579,201.38659c0,0 -3.80564,1.31942 -6.46432,0.81907c-2.69182,-0.5066 -9.90784,-3.7837 -9.90784,-3.7837" fill="none" stroke="#c5ab79" stroke-width="2" stroke-linecap="round"/><path d="M233.55506,188.55746c-1.31154,7.33067 -2.63288,12.6316 -7.35,11.78765c-4.71712,-0.84395 -7.4779,-7.47079 -6.16635,-14.80146c1.31154,-7.33066 7.82737,-12.5941 12.5445,-11.75016c4.71712,0.84395 2.28341,7.43329 0.97186,14.76395z" fill="#3ddf5b" stroke="#000000" stroke-width="0" stroke-linecap="butt"/><g fill="none" stroke="#2b9638" stroke-width="1.5" stroke-linecap="round"><path d="M223.16267,178.52111l1.97741,3.6071l-2.51178,8.91627l-2.1699,1.28661" data-paper-data="{&quot;origPos&quot;:null}"/><path d="M226.57746,195.16035l-3.74406,-3.99361l2.27666,-9.09226l4.08174,-0.12978" data-paper-data="{&quot;origPos&quot;:null}"/></g><path d="M233.51422,188.47024c-1.2354,6.90505 -1.27606,14.72587 -5.07197,15.07417c-0.39167,0.03593 -3.01182,-1.45574 -3.26831,-2.7835c-0.25648,-1.32775 0.53149,-2.30866 1.67408,-5.46964c0.76118,-2.10584 0.74481,-4.80797 1.28973,-7.85369c0.80367,-4.49201 0.42853,-5.75372 1.68775,-9.16614c1.25922,-3.41243 2.07073,-4.85493 3.39857,-4.61737c4.71712,0.84395 6.17984,1.39094 4.63767,3.08804c-0.64972,0.71501 -2.04143,1.90664 -2.63772,3.44731c-1.37762,3.55946 -1.70981,8.2808 -1.70981,8.2808z" fill="#ffffff" stroke="none" stroke-width="0" stroke-linecap="butt"/></g><g><path d="M236.66308,180.65696c0.41607,1.97712 -3.40632,5.02714 -3.40632,5.02714l-3.35275,5.53629l1.16875,1.14161l0.40314,1.86608l-0.8273,2.95966l-2.03723,3.30817l-1.28508,0.43735l-1.31915,-0.96392l-1.74304,-0.10267l-2.10517,-1.47662l-1.77035,-0.43079l-1.04566,-1.6474l0.07533,-2.07111l3.38384,-3.9984l1.67471,-0.71758l3.05141,-4.54732l3.91405,-3.86948c0,0 4.80468,-2.42813 5.22076,-0.451z" data-paper-data="{&quot;origPos&quot;:null}" fill="#fcdc48" stroke="#000000" stroke-width="0" stroke-linecap="round"/><path d="M222.44653,198.36493c-0.71903,-0.15438 -0.5994,-0.8605 -0.5994,-0.8605l0.10898,-0.1039c-0.07788,-0.71424 0.01015,-1.20027 0.2315,-1.85413c0,0 0.22825,-0.67416 0.92052,-0.41357c0.69228,0.26063 0.46402,0.9348 0.46402,0.9348c-0.18307,0.54074 -0.22387,0.72535 -0.16671,1.24945l-0.12024,0.4961c0,0 -0.11963,0.70613 -0.83867,0.55173z" data-paper-data="{&quot;origPos&quot;:null}" fill="#d2a31f" stroke="none" stroke-width="0.5" stroke-linecap="butt"/><path d="M225.84786,199.57131c-0.71052,-0.16445 -0.60606,-0.85268 -0.60606,-0.85268l0.1053,-0.09953c-0.09004,-0.69986 -0.01254,-1.17345 0.19301,-1.80863c0,0 0.21194,-0.65492 0.89811,-0.3871c0.68616,0.26783 0.4742,0.92274 0.4742,0.92274c-0.17002,0.52531 -0.20666,0.70504 -0.14057,1.2186l-0.10901,0.48285c0,0 -0.10446,0.68818 -0.81498,0.5237z" data-paper-data="{&quot;origPos&quot;:null}" fill="#d2a31f" stroke="none" stroke-width="0.5" stroke-linecap="butt"/></g><g><g stroke-width="0"><path d="M259.81563,162.25254c0.02775,8.10654 -6.63033,14.70104 -14.87122,14.72924c-8.24088,0.02819 -14.94395,-6.52058 -14.9717,-14.6271c-0.02774,-8.10654 6.63034,-14.70103 14.87123,-14.72922c8.24089,-0.02819 14.94394,6.52057 14.97168,14.62709z" fill="#fcdc48" stroke="none" stroke-linecap="butt"/><path d="M246.42479,147.22195c0.02026,5.92269 -2.75211,7.42967 -6.17837,7.4414c-3.42623,0.01172 -6.20847,-1.35461 -6.22914,-7.39895c-0.01403,-4.09805 3.03596,-7.43066 7.31369,-7.44529c4.15609,-0.01421 5.07979,3.30479 5.09383,7.40284z" fill="#ffdd32" stroke="#ff0000" stroke-linecap="butt"/><path d="M254.52132,146.84759c0.02026,5.92269 -1.13022,7.42413 -4.55645,7.43586c-1.71438,0.00587 -7.84071,-4.37345 -7.85103,-7.3934c-0.01403,-4.09805 1.25185,-7.42455 5.52961,-7.43919c4.15609,-0.01421 6.86389,3.29868 6.87791,7.39673z" fill="#ffdd32" stroke="#ff0000" stroke-linecap="butt"/><path d="M240.67346,161.20995c0.01976,5.77758 -3.12414,10.12041 -7.02066,10.13374c-3.89651,0.01333 -7.07428,-5.5386 -7.09406,-11.31619c-0.01976,-5.77758 3.12596,-9.59295 7.02247,-9.60628c3.89651,-0.01333 7.07247,5.01114 7.09224,10.78872z" fill="#fcdc48" stroke="#d2a31f" stroke-linecap="butt"/><path d="M247.05565,148.25294c-0.09716,3.52042 -2.40914,5.48452 -5.16057,5.38726c-2.75142,-0.09726 -4.90038,-2.21904 -4.80322,-5.73948c0.09716,-3.52042 2.72744,-7.2697 5.47887,-7.17245c2.75142,0.09726 4.58209,4.00423 4.48496,7.52468z" fill="#ffffff" stroke="none" stroke-linecap="butt"/><path d="M254.27751,147.53967c-0.09716,3.52042 -2.40915,5.4845 -5.16058,5.38725c-2.75142,-0.09726 -4.90037,-2.21903 -4.80322,-5.73947c0.09716,-3.52042 2.07923,-7.1053 4.83065,-7.00804c2.75142,0.09726 5.2303,3.83983 5.13315,7.36027z" fill="#ffffff" stroke="none" stroke-linecap="butt"/><path d="M245.56216,147.97293c-0.02408,1.97997 -0.66593,3.60001 -1.43361,3.61843c-0.76768,0.01844 -1.37048,-1.57173 -1.3464,-3.5517c0.02408,-1.97997 0.66595,-3.60001 1.43361,-3.61842c0.76768,-0.01844 1.37048,1.57172 1.3464,3.5517z" fill="#000000" stroke="none" stroke-linecap="butt"/><path d="M251.35952,147.49758c-0.02408,1.97997 -0.66593,3.6 -1.43361,3.61841c-0.76768,0.01844 -1.37048,-1.57172 -1.3464,-3.5517c0.02408,-1.97997 0.66594,-3.60001 1.43361,-3.61843c0.76768,-0.01844 1.37047,1.57174 1.34639,3.55171z" fill="#000000" stroke="none" stroke-linecap="butt"/><path d="M239.63773,169.9297l2.90656,-3.76352l15.44308,3.42269l-2.58057,3.0041c0,0 -5.66233,-1.50854 -8.28212,-1.74792c-2.75098,-0.25138 -7.76215,-0.08029 -7.76215,-0.08029z" fill="#d2a31f" stroke="#d2a31f" stroke-linecap="round"/></g><g stroke-linecap="round"><path d="M247.41653,153.53725c0,0 6.68313,-3.53799 10.79896,-1.01009c13.32152,8.18188 2.13973,23.99701 2.13973,23.99701c0,0 -5.25959,-4.86324 -8.76707,-6.22712c-3.22152,-1.25269 -10.63568,-1.65386 -10.63568,-1.65386" fill="#fcdc48" stroke="#d2a31f" stroke-width="0"/><path d="M251.45258,155.7124c0,0 1.15733,0.87294 1.64714,1.38723c0.4853,0.50956 1.27831,1.68441 1.27831,1.68441" fill="none" stroke="#996c1c" stroke-width="1.5"/><path d="M259.40608,158.78117l1.32661,-2.90438" data-paper-data="{&quot;index&quot;:null}" fill="none" stroke="#996c1c" stroke-width="1.5"/><path d="M237.35976,156.43552c0,0 3.94009,0.92471 3.94201,7.24356c0.00211,6.97121 -3.51201,7.97485 -3.51201,7.97485" fill="none" stroke="#d2a31f" stroke-width="2"/></g></g></g></g></svg>