<svg version="1.1" xmlns="http://www.w3.org/2000/svg" xmlns:xlink="http://www.w3.org/1999/xlink" width="96.40152" height="97.76549" viewBox="0,0,96.40152,97.76549"><defs><linearGradient x1="246.70196" y1="138.11994" x2="246.70196" y2="174.00953" gradientUnits="userSpaceOnUse" id="color-1"><stop offset="0" stop-color="#e73a0f"/><stop offset="1" stop-color="#921d13"/></linearGradient><linearGradient x1="233.24337" y1="170.48466" x2="225.71296" y2="170.48466" gradientUnits="userSpaceOnUse" id="color-2"><stop offset="0" stop-color="#921d13"/><stop offset="1" stop-color="#a82317"/></linearGradient><radialGradient cx="213.00942" cy="146.13998" r="4.44012" gradientUnits="userSpaceOnUse" id="color-3"><stop offset="0" stop-color="#ffffff"/><stop offset="1" stop-color="#a08e90"/></radialGradient><radialGradient cx="219.2886" cy="144.12763" r="6.93432" gradientUnits="userSpaceOnUse" id="color-4"><stop offset="0" stop-color="#ffffff"/><stop offset="1" stop-color="#a08e90"/></radialGradient></defs><g transform="translate(-204.28882,-120.48767)"><g data-paper-data="{&quot;isPaintingLayer&quot;:true}" fill-rule="nonzero" stroke-linejoin="miter" stroke-miterlimit="10" stroke-dasharray="" stroke-dashoffset="0" style="mix-blend-mode: normal"><g stroke="none" stroke-linecap="round"><path d="M288.02796,197.8834c1.9077,0.7148 3.13418,2.93093 3.56316,4.90686c0.41178,1.68392 -0.23462,3.65475 -1.27912,5.0334c-1.54719,2.04421 -3.88822,3.39713 -6.0226,4.83076c-3.01715,2.0272 -5.80303,5.05617 -9.39624,5.56679c-1.94516,0.30035 -4.44511,-1.56621 -4.70646,-3.50209c-0.42452,-3.14412 1.22443,-6.46078 2.98155,-9.15247c1.88954,-2.83344 4.56613,-5.29121 7.60736,-6.8915c2.14962,-1.13057 4.97746,-1.64387 7.25235,-0.79175z" data-paper-data="{&quot;index&quot;:null}" fill="#d8b199" stroke-width="0.47213"/><path d="M298.882,185.75772c-0.4607,3.47019 -8.88451,2.90352 -10.63286,6.30261c-1.84789,3.60353 4.58144,7.68029 2.06492,11.14012c-2.57408,3.52947 -9.46837,6.00568 -13.8367,4.42061c-5.8986,-2.14574 -8.7752,-8.19612 -10.14099,-13.52238c-1.04135,-4.07155 0.27138,-9.28429 3.84392,-12.56275c5.403,-4.95567 13.09055,-11.01537 20.38828,-9.90415c6.43064,0.90787 9.03216,8.72244 8.3134,14.12596z" data-paper-data="{&quot;index&quot;:null}" fill="#814719" stroke-width="0.43026"/></g><g stroke="none" stroke-linecap="round"><path d="M244.61757,145.7608c2.09319,8.24681 -0.48025,17.17612 -1.4645,25.67521c-0.88257,7.62727 -0.88433,15.82043 -3.85845,22.87388c-1.69332,3.68121 -5.48931,7.80305 -9.26934,7.31842c-4.26383,-0.54661 -8.25373,-5.19387 -9.51841,-9.7063c-1.76699,-7.08251 0.65296,-14.77392 1.1912,-22.14596c0.6371,-8.72786 -0.65933,-18.16802 2.71879,-26.1389c1.63261,-3.55364 6.83523,-4.41275 10.40902,-4.05337c3.77971,0.37995 8.71895,2.3124 9.7917,6.17704z" data-paper-data="{&quot;index&quot;:null}" fill="#814719" stroke-width="0.40022"/><path d="M235.47897,196.1065c1.89573,2.81386 -0.26028,7.60125 2.17992,9.96327c1.63559,1.58122 4.77468,-2.50372 6.8357,-1.40265c1.58784,0.88228 2.15314,4.39366 0.66932,5.48282c-3.72546,2.73487 -8.76524,4.08322 -13.36236,3.74789c-3.65731,-0.2661 -7.85238,-2.42162 -9.48531,-5.59485c-1.94886,-3.79841 -1.96006,-8.9299 -0.23521,-12.8219c1.00039,-2.1931 4.54141,-2.20121 6.90896,-2.07867c2.33728,0.12075 5.14933,0.78975 6.48899,2.70407z" data-paper-data="{&quot;index&quot;:null}" fill="#d8b199" stroke-width="0.47213"/></g><path d="M251.73589,141.07889c7.02709,2.10604 15.63298,6.51641 24.14783,12.73143c8.51485,6.21519 15.33861,13.06702 19.48663,19.11756c4.14766,6.0491 6.8288,11.58735 3.4243,14.3025c-5.71405,4.54857 -16.23831,5.16559 -25.03118,2.42364c-13.09707,-4.08504 -25.28381,-13.40513 -36.77814,-21.90108c-5.39682,-3.98643 -13.4879,-9.21374 -13.57481,-14.85168c0.12578,-6.1191 8.24368,-8.43045 13.65975,-10.72364c4.17735,-1.77242 7.64015,-3.20495 14.66562,-1.09873z" data-paper-data="{&quot;index&quot;:null}" fill="#96521e" stroke="none" stroke-width="0.5448" stroke-linecap="round"/><g data-paper-data="{&quot;index&quot;:null}" stroke="none" stroke-width="1"><path d="M246.38152,144.36856l-0.96132,7.37018l-2.56354,9.13262l-5.9282,8.17129l-4.16576,4.96686l-2.72376,-0.64088l6.24863,-9.61328l4.32599,-7.37018l1.76243,-5.60775l0.80111,-6.56907v-6.08841l3.52487,0.32044z" fill="url(#color-1)" stroke-linecap="round"/><g><path d="M235.48646,202.68916l-7.85085,9.61328l-4.64641,-11.21549l5.12708,-23.07189l3.68509,0.32045z" fill="#ed0000" stroke-linecap="round"/><path d="M231.9616,178.49573l-4.16577,0.16022l-2.08287,-6.56908l2.2431,-1.44199l3.52486,-0.16022l1.76244,2.2431z" fill="url(#color-2)" stroke-linecap="round"/><text transform="translate(233.48177,204.01941) rotate(-180) scale(0.28142,-0.38042) skewX(0)" font-size="22" xml:space="preserve" fill="#ffff00" fill-rule="nonzero" stroke="none" stroke-width="1" stroke-linecap="butt" stroke-linejoin="miter" stroke-miterlimit="10" stroke-dasharray="" stroke-dashoffset="0" font-family="Sans Serif" font-weight="400" text-anchor="start" style="mix-blend-mode: normal"><tspan x="0" dy="0">DK</tspan></text><text transform="translate(233.06296,203.58467) rotate(-180) scale(0.25043,-0.33853) skewX(0)" font-size="22" xml:space="preserve" fill="#ff0000" fill-rule="nonzero" stroke="none" stroke-width="1" stroke-linecap="butt" stroke-linejoin="miter" stroke-miterlimit="10" stroke-dasharray="" stroke-dashoffset="0" font-family="Sans Serif" font-weight="400" text-anchor="start" style="mix-blend-mode: normal"><tspan x="0" dy="0">DK</tspan></text><text transform="translate(232.63997,203.35882) rotate(-180) scale(0.22165,-0.29962)" font-size="22" xml:space="preserve" fill="#ffff00" fill-rule="nonzero" stroke="none" stroke-width="1" stroke-linecap="butt" stroke-linejoin="miter" stroke-miterlimit="10" stroke-dasharray="" stroke-dashoffset="0" font-family="Sans Serif" font-weight="400" text-anchor="start" style="mix-blend-mode: normal"><tspan x="0" dy="0">DK</tspan></text></g></g><g data-paper-data="{&quot;index&quot;:null}"><path d="M241.07819,133.15308c2.30078,3.76136 2.60425,8.68945 2.2431,13.05804c-0.32269,3.90331 -1.66053,8.13092 -4.34359,10.92999c-2.68275,2.79874 -6.68444,4.78293 -10.47688,4.53137c-4.72108,-0.31243 -9.54214,-2.70839 -13.05804,-5.9282c-1.9531,-1.87139 -1.57337,-4.56983 -1.92266,-6.88951c-0.24418,-1.83357 0.31723,-3.63863 0.16022,-5.44753c-0.1128,-1.32599 -1.41187,-2.64333 -1.12155,-4.00554c0.88986,-3.30121 3.10958,-6.12943 4.4862,-9.29284c0.47521,-1.08533 1.04241,-2.19823 0.96133,-3.36464c-0.02276,-0.81617 -0.54059,-2.13639 -1.28177,-2.08288c-0.97831,0.06281 -1.97649,2.80707 -2.2431,2.40332c-0.3025,-0.48772 -0.23457,-3.44669 0.80111,-4.64642c1.35644,-1.31478 3.51269,-1.80793 5.44753,-1.92265c1.58107,-0.09261 2.90353,1.63586 4.4862,1.60221c1.08886,-0.02467 1.68264,-1.74032 2.72376,-1.60221c0.79118,0.11023 0.70402,1.35579 1.12156,1.92265c0.49156,0.82354 0.75657,1.49903 1.60221,2.24311c3.35984,2.9548 8.01811,4.58425 10.41438,8.49173z" fill="#814719" stroke="none" stroke-width="1" stroke-linecap="round"/><path d="M215.73693,145.2312c0.36275,0.38421 0.58705,0.91486 0.58705,1.50063c0,0.58578 -0.2243,1.11643 -0.58705,1.50064c-0.36242,0.38453 -0.86327,0.6223 -1.41571,0.6223c-0.55244,0 -1.0533,-0.23776 -1.41572,-0.6223c-0.36275,-0.38421 -0.58705,-0.91486 -0.58705,-1.50064c0,-0.58578 0.2243,-1.11642 0.58705,-1.50063c0.36242,-0.38453 0.86328,-0.6223 1.41572,-0.6223c0.55244,0 1.05329,0.23776 1.41571,0.6223z" fill="url(#color-3)" stroke="none" stroke-width="1" stroke-linecap="butt"/><path d="M223.59483,142.87339c0.754,0.6598 1.22088,1.57112 1.22088,2.57667c0,1.00555 -0.46688,1.91688 -1.22088,2.57667c-0.754,0.6598 -1.79543,1.06836 -2.94487,1.06836c-1.14943,0 -2.19087,-0.40857 -2.94487,-1.06836c-0.754,-0.6598 -1.22089,-1.57112 -1.22089,-2.57667c0,-1.00555 0.46689,-1.91688 1.22089,-2.57667c0.754,-0.6598 1.79544,-1.06836 2.94487,-1.06836c1.14943,0 2.19087,0.40856 2.94487,1.06836z" fill="url(#color-4)" stroke="none" stroke-width="1" stroke-linecap="butt"/><path d="M230.34336,132.67241c1.01772,1.86049 1.37886,4.25163 0.72099,6.24863c-1.08053,3.58319 -3.44348,6.69885 -5.68786,9.69339c-0.5611,0.74856 -1.42533,0.70786 -1.60222,0.24033c-0.32364,-0.8636 0.26437,-2.07935 0.64089,-3.04421c0.73413,-1.88068 2.06589,-3.47424 2.72376,-5.36741c0.25955,-0.74599 0.38325,-2.26521 -0.08011,-2.32321c-0.57327,-0.07145 -1.07862,1.69194 -1.92266,2.16299c-2.48023,1.37855 -5.06331,2.54527 -7.77074,3.28454c-1.72526,0.50405 -3.55243,0.69248 -5.36741,0.40056c-0.59955,-0.0987 -0.93473,-0.86937 -0.96133,-1.52211c-0.05672,-1.28305 -0.11248,-2.90578 0.88122,-3.76521c0.86807,-0.74951 2.39051,0.56206 3.44476,0.08011c2.58822,-1.21416 4.61822,-3.44187 7.04973,-4.96686c1.46507,-0.91935 2.88527,-2.07165 4.64642,-2.32321c1.15295,-0.16439 2.72569,0.18008 3.28454,1.20166z" fill="#edc2a8" stroke="none" stroke-width="1" stroke-linecap="round"/><path d="M243.48151,138.6006c1.06419,1.41123 1.51603,3.41048 1.20166,5.12709c-0.29192,1.83486 -1.47468,3.53126 -2.88398,4.72652c-1.38656,1.17603 -3.27076,2.09346 -5.04697,2.08289c-1.24331,-0.00706 -2.70742,-0.92448 -3.04421,-2.16299c-0.36626,-1.35259 0.99947,-2.62474 1.52211,-3.92542c0.60019,-1.49263 0.80687,-3.14771 1.76243,-4.40608c0.77835,-1.02606 1.92523,-1.99892 3.20443,-2.32321c1.10265,-0.20508 2.60263,-0.02308 3.28453,0.88121z" fill="#edc2a8" stroke="none" stroke-width="1" stroke-linecap="round"/><path d="M238.03399,145.16968c0,0 0.19804,-0.54123 0.32044,-0.80111c0.09165,-0.19451 0.21373,-0.37395 0.32044,-0.56077c0.1067,-0.18681 0.18939,-0.39031 0.32045,-0.56078c0.13812,-0.17944 0.28583,-0.36562 0.48066,-0.48066c0.4012,-0.23712 0.83988,-0.41338 1.28177,-0.56078c0.20412,-0.06794 0.42683,-0.0596 0.64089,-0.08011c0.34639,-0.033 1.04143,-0.08011 1.04143,-0.08011" fill="none" stroke="#8f4d28" stroke-width="2" stroke-linecap="round"/><g fill="#000000" stroke="none" stroke-width="1.0037" stroke-linecap="butt"><path d="M214.54454,145.46577c0.2031,0.23956 0.32871,0.56994 0.32871,0.93457c0,0.36463 -0.12561,0.69501 -0.32871,0.93457c-0.2031,0.23922 -0.48342,0.38725 -0.79284,0.38725c-0.30939,0 -0.58972,-0.14804 -0.79284,-0.38725c-0.2031,-0.23956 -0.32871,-0.56994 -0.32871,-0.93457c0,-0.36463 0.12561,-0.69501 0.32871,-0.93457c0.20313,-0.23922 0.48346,-0.38726 0.79284,-0.38726c0.30942,0 0.58974,0.14804 0.79284,0.38726z"/></g><g fill="#000000" stroke="none" stroke-width="1" stroke-linecap="butt"><path d="M219.75625,144.70151c0.30474,0.30442 0.49316,0.72517 0.49316,1.18917c0,0.464 -0.18842,0.88475 -0.49316,1.18917c-0.30442,0.30474 -0.72517,0.49317 -1.18917,0.49317c-0.464,0 -0.88475,-0.18842 -1.18916,-0.49317c-0.30474,-0.30442 -0.49316,-0.72517 -0.49316,-1.18917c0,-0.464 0.18842,-0.88475 0.49316,-1.18917c0.30442,-0.30474 0.72516,-0.49316 1.18916,-0.49316c0.464,0 0.88475,0.18841 1.18917,0.49316z"/></g><path d="M231.00274,153.37178c1.99828,-1.44423 3.29127,-5.22835 5.76797,-4.64642c3.07432,0.72837 6.24736,4.56695 5.60775,7.69063c-1.23819,6.04196 -6.01086,11.0229 -10.57461,15.22102c-2.25912,1.94861 -5.77855,2.28188 -8.81218,2.2431c-3.25282,-0.04069 -6.96035,-0.34032 -9.61329,-2.2431c-3.48193,-2.69845 -8.78621,-7.38748 -7.69062,-10.73482c1.05041,-3.17078 8.19949,-1.72494 12.17683,-2.56354c2.28283,-0.48291 4.75888,-0.40088 6.88951,-1.28177c2.32033,-0.80175 4.31221,-2.28764 6.24864,-3.68509z" fill="#edc2a8" stroke="none" stroke-width="1" stroke-linecap="round"/><g fill="#edc2a8" stroke="none" stroke-width="1" stroke-linecap="round"><path d="M237.63344,149.41555c0.83058,0.27878 0.1458,1.17666 -0.96133,1.84255c-4.16159,2.59719 -8.38343,5.42734 -13.13816,6.88952c-4.19684,1.29074 -8.74712,0.36915 -13.13815,1.12155c-1.83646,0.31596 -3.23777,1.95439 -5.12709,2.2431c-0.47682,0.07307 -1.09527,-0.47137 -0.96132,-1.04144c0.40055,-1.52819 1.68136,-2.65391 2.56354,-4.00554c1.30849,-1.8182 2.1311,-4.27927 3.47484,-6.10417c0.65505,-0.88961 1.43395,-1.62804 2.45335,-2.06712c4.41089,-1.8999 9.6277,-0.58769 14.41992,-0.32044c3.50661,0.10735 7.09526,0.3291 10.4144,1.44199z"/></g></g><path d="M211.63081,152.20797c0.17059,0.30626 0.08799,2.26871 -0.04103,2.53142c-0.11444,0.23338 -0.55404,-0.96107 -0.54684,-1.55866c0.00522,-0.44752 0.48782,-1.43719 0.57815,-1.18077z" data-paper-data="{&quot;index&quot;:null}" fill="none" stroke="#b1695f" stroke-width="0.81869" stroke-linecap="round"/><path d="M216.13543,152.75402c0.17059,0.30626 0.08799,2.26871 -0.04103,2.53143c-0.11444,0.23338 -0.55404,-0.96107 -0.54684,-1.55866c0.00522,-0.44752 0.48782,-1.4372 0.57815,-1.18078z" data-paper-data="{&quot;index&quot;:null}" fill="none" stroke="#b1695f" stroke-width="0.8187" stroke-linecap="round"/><g stroke="none" stroke-linecap="round"><path d="M283.16747,202.98213c1.3395,1.53492 1.3666,4.06766 0.80588,6.01032c-0.4372,1.67751 -1.94191,3.10505 -3.51576,3.82239c-2.33231,1.0644 -5.035,1.14345 -7.59416,1.39167c-3.6179,0.35143 -7.50795,1.69431 -10.9127,0.4375c-1.85451,-0.65932 -3.16832,-3.4891 -2.4791,-5.31691c1.11934,-2.96864 4.14541,-5.10455 6.96992,-6.6391c3.00836,-1.59642 6.53099,-2.48849 9.96737,-2.45276c2.42866,0.02573 5.1611,0.91676 6.75856,2.74688z" data-paper-data="{&quot;index&quot;:null}" fill="#edc2a8" stroke-width="0.47213"/><path d="M297.82747,193.69778c-2.05322,2.83525 -9.19774,-1.66339 -12.3504,0.49788c-3.33736,2.29392 0.38511,8.93466 -3.47247,10.78462c-3.9413,1.88392 -11.18456,0.7895 -14.27637,-2.67971c-4.17233,-4.68928 -3.831,-11.37999 -2.50387,-16.71601c1.01685,-4.07773 4.64736,-8.04201 9.3482,-9.23092c7.10818,-1.79581 16.75116,-3.47845 22.64606,0.96474c5.22834,3.8525 3.80723,11.96519 0.60888,16.37941z" data-paper-data="{&quot;index&quot;:null}" fill="#c06832" stroke-width="0.43026"/></g><g stroke="none" stroke-linecap="round"><path d="M267.65338,156.67316c-0.28169,8.50365 -5.23583,16.36571 -8.54378,24.25624c-2.96798,7.08135 -5.24712,14.95111 -10.06471,20.89985c-2.64986,3.06543 -7.442,5.96963 -10.93835,4.45334c-3.94385,-1.71029 -6.48468,-7.28349 -6.44521,-11.96963c0.2714,-7.29456 4.73398,-14.01015 7.30023,-20.94205c3.03809,-8.20679 4.41688,-17.63528 9.87754,-24.353c2.55609,-2.95976 7.79247,-2.33882 11.12553,-1.00019c3.52513,1.41562 7.73255,4.64489 7.68875,8.65543z" data-paper-data="{&quot;index&quot;:null}" fill="#c06832" stroke-width="0.40022"/><path d="M245.10581,200.85964c1.07422,2.97359 -2.27638,6.60187 -0.55779,9.32364c1.15241,1.82257 5.26178,-0.9279 6.95154,0.58645c1.29276,1.19656 0.90083,4.42864 -0.81726,4.98986c-4.31374,1.4095 -9.52266,1.25283 -13.85688,-0.26392c-3.44836,-1.20595 -6.91061,-4.21303 -7.63617,-7.43204c-0.86293,-3.85176 0.49393,-8.3581 3.19099,-11.31528c1.54713,-1.65873 4.95665,-0.72424 7.2022,0.0127c2.21687,0.72755 4.74447,2.06236 5.52336,4.09859z" data-paper-data="{&quot;index&quot;:null}" fill="#edc2a8" stroke-width="0.45259"/></g></g></g></svg>