<svg version="1.1" xmlns="http://www.w3.org/2000/svg" xmlns:xlink="http://www.w3.org/1999/xlink" width="729.13919" height="378.00472" viewBox="0,0,729.13919,378.00472"><defs><linearGradient x1="240.00004" y1="180.00006" x2="240.00004" y2="180.00006" gradientUnits="userSpaceOnUse" id="color-1"><stop offset="0" stop-color="#ff4040"/><stop offset="1" stop-color="#c33131"/></linearGradient><linearGradient x1="348.9573" y1="227.03833" x2="348.9573" y2="372.92643" gradientUnits="userSpaceOnUse" id="color-2"><stop offset="0" stop-color="#232323"/><stop offset="1" stop-color="#0c0c0c"/></linearGradient><linearGradient x1="514.99303" y1="-2.78787" x2="514.99303" y2="375.21687" gradientUnits="userSpaceOnUse" id="color-3"><stop offset="0" stop-color="#232323"/><stop offset="1" stop-color="#0c0c0c"/></linearGradient><linearGradient x1="-51.57846" y1="90.35503" x2="-51.57846" y2="374.21209" gradientUnits="userSpaceOnUse" id="color-4"><stop offset="0" stop-color="#232323"/><stop offset="1" stop-color="#0c0c0c"/></linearGradient></defs><g transform="translate(156.89638,2.78785)"><g data-paper-data="{&quot;isPaintingLayer&quot;:true}" fill-rule="nonzero" stroke="none" stroke-linecap="butt" stroke-linejoin="miter" stroke-miterlimit="10" stroke-dasharray="" stroke-dashoffset="0" style="mix-blend-mode: normal"><g data-paper-data="{&quot;index&quot;:null}" fill="#cc1919"><path d="M-72.25352,91.94561l77.45819,-1.42857l107.28571,46.71429h-269.38676z" stroke-width="1"/><path d="M18.47938,133.23134h134.011l-40,26h-46z" stroke-width="0.85398"/></g><path d="M157.12005,344.31632h58.8527l5.25825,25.42857l-21.05856,0.57143c0,0 -4.75831,-2.87362 -8.57145,-5.17643c-7.64794,-4.61871 -34.48095,-20.82357 -34.48095,-20.82357z" data-paper-data="{&quot;index&quot;:null}" fill="#cc1919" stroke-width="1.17703"/><path d="" fill="url(#color-1)" stroke-width="1.06271"/><path d="M247.51565,227.03833l234.87044,0.32139l1.42857,145.56671l-269.71471,-0.59215l0.11398,-120.76801z" fill="url(#color-2)" stroke-width="0"/><path d="M291.78274,255.27531v-28.41481h43.5v28.41481z" data-paper-data="{&quot;origPos&quot;:null,&quot;index&quot;:null}" fill="#616161" stroke-width="0"/><path d="" data-paper-data="{&quot;origPos&quot;:null,&quot;index&quot;:null}" fill="#616161" stroke-width="0"/><path d="" data-paper-data="{&quot;origPos&quot;:null,&quot;index&quot;:null}" fill="#616161" stroke-width="0"/><path d="M378.78275,255.27531v-28.41481h43.5v28.41481z" data-paper-data="{&quot;origPos&quot;:null,&quot;index&quot;:null}" fill="#616161" stroke-width="0"/><path d="M465.78275,255.1713v-28.41481h43.5v28.41481z" data-paper-data="{&quot;origPos&quot;:null,&quot;index&quot;:null}" fill="#616161" stroke-width="0"/><path d="M214.21047,255.74796l-0.03876,-4.12312l33.45512,-24.68308l44.34072,-0.08525l0.07386,28.44873z" data-paper-data="{&quot;index&quot;:null}" fill="#cc1919" stroke-width="0"/><path d="" data-paper-data="{&quot;origPos&quot;:null,&quot;index&quot;:null}" fill="#cc1919" stroke-width="0"/><path d="M457.74324,375.21687v-378.00472h114.49957v378.00472z" fill="url(#color-3)" stroke-width="0"/><path d="M-119.39967,374.21209v-283.85703h135.64243v283.85703z" data-paper-data="{&quot;index&quot;:null}" fill="url(#color-4)" stroke-width="0"/></g></g></svg>