<svg version="1.1" xmlns="http://www.w3.org/2000/svg" xmlns:xlink="http://www.w3.org/1999/xlink" width="143.7336" height="143.73361" viewBox="0,0,143.7336,143.73361"><defs><linearGradient x1="320" y1="110.13322" x2="320" y2="249.86682" gradientUnits="userSpaceOnUse" id="color-1"><stop offset="0" stop-color="#3c94ed"/><stop offset="1" stop-color="#337fcc"/></linearGradient><linearGradient x1="327.42451" y1="190.30324" x2="343.16242" y2="195.00484" gradientUnits="userSpaceOnUse" id="color-2"><stop offset="0" stop-color="#3b2f49"/><stop offset="1" stop-color="#342842"/></linearGradient><linearGradient x1="360.81855" y1="192.24042" x2="370.27639" y2="195.06589" gradientUnits="userSpaceOnUse" id="color-3"><stop offset="0" stop-color="#ff7f01"/><stop offset="1" stop-color="#e57300"/></linearGradient><linearGradient x1="318.71364" y1="175.00535" x2="323.30146" y2="203.13069" gradientUnits="userSpaceOnUse" id="color-4"><stop offset="0" stop-color="#4c405a"/><stop offset="1" stop-color="#342842"/></linearGradient><linearGradient x1="326.48853" y1="204.97411" x2="310.54343" y2="208.91631" gradientUnits="userSpaceOnUse" id="color-5"><stop offset="0" stop-color="#3b2f49"/><stop offset="1" stop-color="#342842"/></linearGradient><linearGradient x1="296.73746" y1="220.26426" x2="287.15511" y2="222.63336" gradientUnits="userSpaceOnUse" id="color-6"><stop offset="0" stop-color="#ff7f01"/><stop offset="1" stop-color="#e57300"/></linearGradient><radialGradient cx="327.91705" cy="156.53479" r="8.55001" gradientUnits="userSpaceOnUse" id="color-7"><stop offset="0" stop-color="#fbc5fc"/><stop offset="1" stop-color="#f991fd"/></radialGradient></defs><g transform="translate(-248.1332,-108.13321)"><g data-paper-data="{&quot;isPaintingLayer&quot;:true}" fill-rule="nonzero" stroke-linejoin="miter" stroke-miterlimit="10" stroke-dasharray="" stroke-dashoffset="0" style="mix-blend-mode: normal"><path d="M320,110.13322c19.2752,0 36.74421,7.8268 49.3899,20.47689c12.64989,12.64569 20.4769,30.11449 20.4769,49.38991c0,19.27542 -7.82701,36.74421 -20.4769,49.38991c-12.64569,12.65009 -30.1147,20.4769 -49.3899,20.4769c-19.27542,0 -36.74442,-7.8268 -49.39012,-20.4769c-12.64989,-12.64569 -20.47668,-30.11449 -20.47668,-49.38991c0,-19.27542 7.82679,-36.74421 20.47668,-49.38991c12.64569,-12.6501 30.11471,-20.47689 49.39012,-20.47689z" data-paper-data="{&quot;origPos&quot;:null}" fill="url(#color-1)" stroke="#23568d" stroke-width="4" stroke-linecap="butt"/><g data-paper-data="{&quot;index&quot;:null}" stroke="none" stroke-width="0" stroke-linecap="butt"><path d="M328.34385,174.23534c1.36643,-0.29405 5.68768,1.74042 10.33084,2.72025c2.27503,0.4801 9.72033,1.8003 9.59997,2.48393c-0.26924,1.52924 -0.14252,5.38158 -0.66107,5.35723c-5.38214,-0.25283 -12.10223,0.27111 -17.86716,-0.51957c-1.85493,-0.25441 -5.96758,-3.05501 -5.44846,-5.61489c0.51912,-2.55989 1.5012,-3.87936 4.04589,-4.42696z" fill="#7100f3"/><g><path d="M357.62513,171.51465c-4.01813,-2.72679 -5.37913,-3.51296 -3.54277,-8.18811c1.80785,-2.4731 5.05999,-4.03349 9.15576,-1.14759c4.40841,3.46378 5.39137,5.86229 3.89127,8.67191c-1.71726,2.67699 -4.93753,4.45573 -9.50425,0.66379z" data-paper-data="{&quot;origRot&quot;:0}" fill="#ffffff"/><path d="M355.2234,173.57017c-2.84556,-1.81029 -5.43289,-3.97149 -4.48331,-5.57147c1.6262,-2.74003 1.85885,-1.26539 7.23941,1.97376c4.72317,2.8434 5.55649,3.1687 4.19766,5.73471c-1.21466,2.29375 -4.1082,-0.32669 -6.95376,-2.13699z" data-paper-data="{&quot;origRot&quot;:0}" fill="#ffffff"/><path d="M351.323,172.05873c1.94956,-3.69438 6.80607,0.5985 8.00705,2.08685c1.20099,1.48836 -2.8246,4.50403 -6.07547,7.12723c-3.25086,2.62319 -6.07292,5.45146 -8.06079,2.05483c-1.42548,-2.43567 0.4464,-4.45795 2.02017,-6.14925c1.6671,-1.79159 3.11258,-3.23138 4.10904,-5.11966z" fill="#7100f3"/></g></g><g stroke="none" stroke-width="0" stroke-linecap="butt"><path d="M326.04886,200.77015c-1.93416,-1.75543 0.01733,-6.45353 1.41976,-7.69396c4.3586,-3.85516 11.17189,-7.24113 14.27513,-9.32278c0.83419,-0.55957 3.08497,0.17326 3.6924,1.79348c0.60743,1.62023 -0.33965,2.13192 -1.10109,3.28802c-0.76144,1.15611 -3.80643,4.972 -5.43327,6.63322c-3.32024,3.39043 -4.55351,5.47094 -5.85363,5.98408c0,0 -4.36144,1.71203 -6.9993,-0.68208z" data-paper-data="{&quot;index&quot;:null}" fill="url(#color-2)"/><g><path d="M360.14073,191.12308c5.68943,2.43455 0.96004,10.57307 -1.09323,12.52534c-2.05328,1.95227 -8.1748,-3.548 -12.43898,-8.03281c-4.26418,-4.4848 -7.98062,-8.07306 -5.20001,-10.56239c3.26596,-1.86498 4.85513,0.95556 8.75026,2.2177c3.89513,1.26215 7.07399,2.60781 9.98196,3.85214z" fill="#342842"/><path d="M364.62401,179.66552c0.47636,-1.16977 6.29047,1.85861 7.20733,5.49788c1.2143,4.81983 -2.59578,11.17871 -3.77977,14.86447c-2.26425,7.04863 -5.81843,8.1066 -9.74094,5.01552c-2.4385,-1.92162 2.26256,0.30166 2.72743,-6.47672c0.07458,-1.08751 0.56941,-5.64865 0.86689,-8.77604c0.68085,-2.43756 2.14655,-3.51635 2.40942,-5.1975c-0.23048,-1.84939 -1.24418,-1.11201 0.30965,-4.92762z" fill="url(#color-3)"/></g></g><g><path d="M327.76006,175.18009c4.59144,3.20954 6.20236,11.56462 7.19058,17.62279c0.91093,5.58443 -4.36752,9.14002 -11.4453,10.29455c-3.49724,0.57047 -5.7023,1.20239 -8.51775,-0.61736c-2.81545,-1.81975 -3.11921,-6.09678 -4.03205,-7.49411c-1.23531,-1.89094 -2.87135,-4.0871 -3.37041,-7.48071c-0.39201,-4.31124 -0.09224,-10.06567 6.98554,-11.2202c0,0 9.76863,-3.49616 13.1894,-1.10495z" data-paper-data="{&quot;origPos&quot;:null,&quot;index&quot;:null}" fill="url(#color-4)" stroke="none" stroke-width="0" stroke-linecap="butt"/><path d="M315.63254,174.19107c3.82753,-0.62435 8.18925,-2.36545 11.61001,0.02574c2.31565,1.6187 5.47201,8.55253 5.47201,8.55253c0,0 -8.73339,0.46401 -10.78711,2.15457c-0.92083,0.75799 -3.69522,3.09342 -4.97289,3.82569c-0.66961,0.38376 -8.43254,1.95032 -8.81857,-4.69351c-0.39201,-4.31124 0.41878,-8.71048 7.49656,-9.86501z" data-paper-data="{&quot;origPos&quot;:null,&quot;index&quot;:null}" fill="#7100f3" stroke="none" stroke-width="0" stroke-linecap="butt"/><path d="M313.5466,176.46955c0,0 2.94788,2.7864 4.02261,4.52308c1.25036,2.02046 3.73328,6.45559 3.73328,6.45559" data-paper-data="{&quot;origPos&quot;:null}" fill="none" stroke="#433751" stroke-width="10.5" stroke-linecap="round"/><path d="M323.03421,187.01009c0.17666,1.08302 -0.59964,2.22191 -1.56057,2.37866c-0.96092,0.15675 -2.05891,-0.67642 -2.23557,-1.75943c-0.17666,-1.08302 0.59964,-2.22191 1.56057,-2.37866c0.96092,-0.15675 2.05892,0.67641 2.23558,1.75943z" fill="#ffea12" stroke="none" stroke-width="0" stroke-linecap="butt"/><path d="M324.10599,174.08717c0,0 2.10409,1.7376 3.14888,3.26909c1.04478,1.53149 4.1792,7.60281 4.1792,7.60281" data-paper-data="{&quot;origPos&quot;:null,&quot;origRot&quot;:0}" fill="none" stroke="#433751" stroke-width="9.5" stroke-linecap="round"/><path d="M332.62192,183.85387c0.17666,1.08302 -0.46824,2.03209 -1.42916,2.18884c-0.96093,0.15675 -1.874,-0.53819 -2.05066,-1.62121c-0.17666,-1.08302 0.46823,-2.0321 1.42916,-2.18884c0.96093,-0.15675 1.874,0.53819 2.05066,1.62121z" data-paper-data="{&quot;origPos&quot;:null}" fill="#ffea12" stroke="none" stroke-width="0" stroke-linecap="butt"/></g><g data-paper-data="{&quot;index&quot;:null}" stroke="none" stroke-width="0" stroke-linecap="butt"><path d="M315.98208,198.22573c0,0 2.88771,-3.68975 6.37594,-2.96697c2.55766,0.52997 3.26245,5.56819 2.68427,7.34897c-1.7969,5.53451 -5.94667,11.91143 -7.5628,15.28062c-0.43443,0.90569 -2.74554,1.41743 -4.09163,0.33017c-1.34608,-1.08726 -0.79008,-2.00902 -0.72126,-3.39165c0.06883,-1.38262 0.75406,-6.21619 1.31186,-8.47344c1.13842,-4.60683 1.14425,-7.0254 2.00363,-8.12771z" data-paper-data="{&quot;index&quot;:null}" fill="url(#color-5)"/><g><path d="M297.8888,220.88256c-6.13753,0.7921 -6.19649,-8.62061 -5.41914,-11.34514c0.77734,-2.72452 8.84401,-1.09508 14.79495,0.60281c5.95095,1.6979 10.97474,2.90164 9.84358,6.45818c-1.86634,3.26518 -4.66772,1.64248 -8.66416,2.53332c-3.99643,0.89084 -7.41824,1.34598 -10.55524,1.75084z" fill="#342842"/><path d="M299.84533,233.02947c0.18369,1.24961 -6.3628,1.59347 -9.00081,-1.07595c-3.49377,-3.53537 -3.44089,-10.94814 -4.29274,-14.72452c-1.62906,-7.22192 0.89541,-9.93827 5.84423,-9.26748c3.07653,0.41701 -2.10228,0.88916 0.93961,6.96447c0.48803,0.97471 2.37812,5.15521 3.71006,8.00035c0.65138,2.4456 -0.06339,4.11927 0.56392,5.70099c1.13774,1.47611 1.63652,0.32609 2.23571,4.40215z" fill="url(#color-6)"/></g></g><g stroke-linecap="butt"><path d="M310.05698,187.47188c-1.39688,0.04857 -5.29184,-2.71577 -9.68956,-4.49874c-2.15478,-0.87362 -9.25078,-3.48555 -9.01179,-4.13727c0.5346,-1.45783 1.08893,-5.27219 1.59507,-5.1568c5.25329,1.19761 11.96051,1.86646 17.49579,3.66097c1.78104,0.5774 5.33562,4.05911 4.37338,6.4874c-0.96224,2.42829 -2.16152,3.55397 -4.7629,3.64443z" fill="#7100f3" stroke="none" stroke-width="0"/><g><path d="M282.79855,193.67279c-2.21548,2.11571 -5.69176,3.07838 -9.21468,-0.48432c-3.72878,-4.18664 -4.27357,-6.72086 -2.30169,-9.22205c2.16225,-2.33237 5.64565,-3.5156 9.47244,1.02197c3.47456,3.39239 4.67565,4.40617 2.04394,8.6844z" data-paper-data="{&quot;origRot&quot;:0}" fill="#ffffff" stroke="none" stroke-width="0"/><path d="M286.91206,189.66294c-2.08373,2.41046 -2.0528,0.91791 -6.77812,-3.21899c-4.14798,-3.63144 -4.9109,-4.09854 -3.12104,-6.38485c1.59997,-2.04373 3.98627,1.04575 6.46816,3.32931c2.48189,2.28354 4.64773,4.86698 3.43098,6.27453z" data-paper-data="{&quot;origRot&quot;:0}" fill="#ffffff" stroke="none" stroke-width="0"/><path d="M287.05396,185.56371c-2.57027,3.29287 -6.59399,-1.78888 -7.51381,-3.46562c-0.91982,-1.67675 3.57431,-3.9356 7.23669,-5.94466c3.66237,-2.00907 6.93879,-4.2956 8.29679,-0.60173c0.97381,2.64881 -1.22524,4.30946 -3.0725,5.69685c-1.9568,1.46967 -3.63345,2.63212 -4.94715,4.31516z" fill="#7100f3" stroke="none" stroke-width="0"/><path d="M273.5122,189.69875l1.11797,-1.31575l1.94679,1.75672l2.85371,-3.17414l1.69393,1.42601l-4.13628,4.43853z" data-paper-data="{&quot;index&quot;:null,&quot;origRot&quot;:0}" fill="#ffea12" stroke="#7100f3" stroke-width="1"/></g></g><g><path d="M331.97134,145.28489c-0.00409,1.70247 -5.13372,4.69568 -9.44018,5.39815c-3.47015,0.56605 -3.0915,-2.52621 -3.35134,-4.11914c-0.25984,-1.59294 6.59741,-2.35479 10.06756,-2.92085c3.47014,-0.56605 2.7266,0.53984 2.72395,1.64182z" data-paper-data="{&quot;index&quot;:null}" fill="#2d0757" stroke="none" stroke-width="0" stroke-linecap="butt"/><path d="M324.8919,157.82263c0.02665,-0.02261 0.05518,-0.04498 0.08568,-0.06701c0.80607,-0.58199 1.38805,0.22408 1.38805,0.22408l-0.03905,0.05647c0.14075,0.09929 0.22243,0.20011 0.22243,0.20011c1.50544,1.85843 2.23275,5.25394 2.22683,7.6916c-0.00224,0.92333 -1.06814,2.32996 -0.9079,2.985c-0.2015,1.24815 -1.5095,1.83172 -2.62824,2.11115c-2.80817,0.70138 -5.80549,0.9607 -8.66315,1.42685c-0.62659,0.10221 -1.84766,0.55492 -2.45308,0.40015c-3.94498,-1.00849 -3.0227,-6.1796 -3.52304,-9.24689c-0.3102,-1.90165 0.51184,-3.36687 2.43382,-3.96788c2.64935,-0.82847 5.70061,-0.96865 8.44033,-1.41555c1.14477,-0.18674 2.28954,-0.37347 3.43431,-0.56021z" data-paper-data="{&quot;index&quot;:null}" fill="#ffffff" stroke="none" stroke-width="0.5" stroke-linecap="butt"/><path d="M325.55897,161.79412c0.60898,-0.12353 0.7325,0.48544 0.7325,0.48544l0.03098,0.18704c0.06946,0.42585 0.15562,0.85116 0.24805,1.27709c0.21813,-0.16005 0.43463,-0.31997 0.65041,-0.47576l0.47706,-0.13302c0,0 0.58345,-0.21375 0.79721,0.3697c0.21375,0.58345 -0.3697,0.79721 -0.3697,0.79721l-0.1771,-0.02631c-0.35688,0.25767 -0.71726,0.52514 -1.08381,0.78711c0.04762,0.21642 0.09411,0.43331 0.13813,0.65082l0.0168,-0.00274l0.13338,0.81769c0.01264,0.07751 0.01035,0.15401 -0.00475,0.22656c-0.03107,0.18569 -0.14335,0.42718 -0.50849,0.48674c-0.36515,0.05956 -0.54834,-0.13375 -0.63681,-0.29992c-0.03737,-0.06398 -0.06386,-0.1358 -0.0765,-0.21331c-0.05028,-0.30823 -0.10861,-0.61422 -0.17134,-0.91871c-0.41158,0.25478 -0.83347,0.48557 -1.26901,0.67316c-0.43445,0.15136 -0.86683,0.29688 -1.29871,0.43642c0.08469,0.5192 0.16938,1.0384 0.25408,1.5576l0.02668,0.16353c0,0 0.10004,0.61327 -0.51323,0.71331c-0.61327,0.10004 -0.71331,-0.51323 -0.71331,-0.51323c-0.08223,-0.50411 -0.16699,-1.02374 -0.25273,-1.54934c-1.08652,0.32276 -2.17911,0.60723 -3.30282,0.85167c0.0321,0.1968 0.0642,0.39359 0.0963,0.59038l0.08003,0.49061c0,0 0.10004,0.61327 -0.51323,0.71331c-0.61327,0.10004 -0.71331,-0.51323 -0.71331,-0.51323c-0.05164,-0.31657 -0.10886,-0.66733 -0.1687,-1.03422c-0.3364,0.06311 -0.67624,0.12273 -1.02014,0.17883c0,0 -0.61327,0.10004 -0.71331,-0.51323c-0.10004,-0.61327 0.51323,-0.71331 0.51323,-0.71331c0.34002,-0.05546 0.68089,-0.11134 1.02176,-0.1689c-0.10642,-0.65239 -0.21127,-1.29521 -0.29976,-1.83764c0,0 -0.10004,-0.61327 0.51323,-0.71331c0.61327,-0.10004 0.71331,0.51323 0.71331,0.51323c0.09903,0.60712 0.19806,1.21422 0.29709,1.82132c1.12586,-0.21036 2.2407,-0.45627 3.31374,-0.78474c-0.13276,-0.8139 -0.26522,-1.6259 -0.39168,-2.40115c0,0 -0.10004,-0.61327 0.51323,-0.71331c0.61327,-0.10004 0.71331,0.51323 0.71331,0.51323c0.11922,0.73087 0.23844,1.46173 0.35766,2.19261c0.33791,-0.12944 0.67017,-0.26952 0.9957,-0.42186c0.51224,-0.22061 1.00178,-0.50678 1.47728,-0.82144c-0.13895,-0.61765 -0.27466,-1.23335 -0.3758,-1.85341l-0.02237,-0.14004c0,0 -0.12353,-0.60898 0.48544,-0.7325z" data-paper-data="{&quot;index&quot;:null}" fill="#a5b5ff" stroke="none" stroke-width="0.5" stroke-linecap="butt"/><path d="M299.96999,162.71732l-0.01257,-0.18196c0.03833,-0.10811 0.07665,-0.21621 0.11498,-0.32431c2.08838,-2.45987 4.70075,1.23501 5.97225,2.59991c0.42545,0.4567 0.88795,0.80484 1.23769,1.32204c1.10311,1.64083 6.04252,5.13122 2.2692,6.57288c-0.47914,0.18306 -0.93754,0.24643 -1.44219,0.32875c-0.30864,-0.05522 -0.63735,-0.05495 -0.92592,-0.16566c-0.24732,-0.0949 -1.86602,-0.92876 -2.41803,-1.13722c-0.23195,-0.08759 -3.32428,-2.15194 -3.52675,-2.59362c-0.93054,-2.04108 -0.93078,-4.04698 -1.28098,-6.19381c-0.0115,-0.07052 -0.00812,-0.14035 0.00798,-0.20675c0.00132,-0.00667 0.00277,-0.01342 0.00436,-0.02023z" data-paper-data="{&quot;index&quot;:null}" fill="#8e4108" stroke="none" stroke-width="0.5" stroke-linecap="butt"/><path d="M329.49916,171.2789c0.40561,1.94747 1.37577,3.78416 0.46371,5.43228c-0.39297,0.71011 -1.1987,1.5046 -1.52611,1.52814c-1.60999,0.26938 -3.61379,0.87812 -5.22891,0.50333c-1.16494,-0.27031 -3.70234,-1.43554 -3.71936,-1.4383c-0.01713,-0.00182 -0.02655,-0.00334 -0.02655,-0.00334c-1.49453,-0.24127 -2.87851,-0.94813 -4.35558,-1.19097c-0.6871,-0.11296 -2.86546,-0.43488 -2.86546,-0.43488c-3.39217,-1.54058 -5.95771,-4.24057 -7.72442,-7.48621c-0.72772,-1.38616 -1.30597,-2.82576 -2.02857,-4.20213l0.01407,-0.17197c-1.58914,-0.59449 -3.00036,-1.57624 -4.59755,-2.13802c-0.85061,-0.29918 -1.99022,-0.46178 -2.82792,-0.93533c-0.88332,-0.49933 -1.38715,-0.79474 -2.13827,-1.47695c-2.82922,-2.08797 -3.54947,-4.24674 -4.10297,-7.63992l-0.03626,-0.47598c-0.06447,-0.11833 -0.10672,-0.26504 -0.1107,-0.44684c-0.01882,-0.18553 0.00372,-0.41088 0.1486,-0.61555c0.13197,-0.21322 0.33068,-0.32185 0.50887,-0.37688c0.24203,-0.09629 0.44833,-0.09223 0.61879,-0.03889c2.62495,0.20984 4.79621,1.08299 7.33634,1.68689c1.02256,0.24311 2.17098,-0.03647 3.23546,-0.03279c0.50395,0.00174 2.00252,-0.08852 2.00252,-0.08852c2.23349,-0.36433 3.4189,-1.9446 5.35645,-3.07613c1.51131,-0.8826 3.15505,-1.11694 4.78445,-1.67034c2.78873,-0.94539 6.0716,-1.08805 8.97688,-1.56196c0,0 1.19698,0.14764 1.37507,0.32812c1.37737,0.90273 1.53577,2.078 1.79828,3.68727c0.37828,2.31903 0.56793,4.7953 1.27228,7.03765c0.32358,1.06779 0.70979,2.05197 0.89375,3.15371c0.08911,0.21273 0.07463,0.417 0.02457,0.58622c-0.03579,0.19864 -0.13378,0.41737 -0.36705,0.57486c-1.20673,1.23647 -2.41828,1.1305 -3.86232,1.89395c-0.63762,0.3371 -1.15555,0.88638 -1.88834,1.12243c-1.18338,0.38118 -2.50303,0.42929 -3.66212,0.87426c-1.37352,0.46562 -2.97838,0.68083 -4.45426,0.71348c0.06646,0.59727 0.14236,1.20687 0.32322,1.73693c0.7554,2.21389 3.78029,3.43678 5.8729,3.33099c2.5263,-0.09437 4.25184,-1.12888 6.40707,-2.26038c0.62656,-0.32895 1.44921,-0.50435 2.02538,-0.87203c0.60058,-0.38327 1.03605,-0.86897 1.82908,-1.13781l0.89029,0.39825c0,0 0.98059,0.16399 0.8166,1.14458z" data-paper-data="{&quot;index&quot;:null}" fill="#ffdebd" stroke="none" stroke-width="0.5" stroke-linecap="butt"/><path d="M331.12983,144.29133c0,0 0.18733,1.19276 -0.15187,1.81931c-0.3392,0.62655 -1.80175,1.78935 -1.80175,1.78935l-4.57256,3.1386" data-paper-data="{&quot;index&quot;:null}" fill="none" stroke="#a5b5ff" stroke-width="4.5" stroke-linecap="round"/><path d="M309.86656,151.23916c-0.02583,0.58263 -0.16978,1.13312 -0.17085,1.73689c-0.00145,0.81127 0.31677,1.78351 0.44945,2.59688c0.08149,0.49959 2.06412,0.43596 2.9847,0.2858c0.24692,-0.04028 1.72576,-0.26335 1.67679,-0.35871c0.33211,-0.31573 0.97672,-0.44463 1.25214,-0.77944c0.85561,-1.04007 1.55309,-2.41371 1.79873,-4.00261c0.03072,-0.19875 0.14471,-0.67155 -0.0403,-0.60319c-0.09843,0.03637 -0.00181,0.27103 -0.10153,0.30352c-0.27377,0.08922 -0.95649,-0.26099 -1.2586,-0.29021c-0.39582,-0.03828 -1.03784,0.08252 -1.47041,0.07856c-0.95838,-0.00877 -2.07723,0.36527 -3.02966,0.52063c-0.73539,0.11996 -1.37937,0.38314 -2.09047,0.51188zM309.2585,150.13727c0.18967,-0.03094 0.31825,0.02507 0.40462,0.10544c0.71039,-0.12342 1.38912,-0.39803 2.13023,-0.51892c1.58369,-0.25833 3.67072,-0.86482 5.26253,-0.49779c0.9999,0.23054 1.97446,0.4273 1.78428,1.65747c-0.29426,1.90338 0.07082,2.60609 -1.17155,3.98899c-0.25313,0.28177 -1.71683,1.27581 -2.18148,1.37375c-0.46464,0.09795 -3.61808,1.0398 -4.90535,0.62846c-0.53774,-0.17184 -1.32075,-0.54641 -1.41785,-1.14168c-0.15348,-0.9409 -0.44976,-1.96891 -0.45087,-2.92243c-0.00084,-0.72571 0.2571,-1.35312 0.13665,-2.09153c0,0 -0.08185,-0.50176 0.40876,-0.58178z" data-paper-data="{&quot;index&quot;:null}" fill="#18c6ff" stroke="none" stroke-width="0.5" stroke-linecap="butt"/><path d="M314.72132,149.15325c1.16624,0.09826 0.9776,0.15541 1.66801,0.44185c0.69041,0.28645 1.52025,0.91138 1.48952,1.11014c-0.24563,1.58891 0.08411,2.4011 -0.77151,3.44119c-0.27542,0.3348 -1.7633,1.11715 -2.30154,1.32586c-0.53825,0.20871 -1.43638,0.36991 -1.68329,0.41018c-0.92058,0.15017 -2.91657,0.2038 -2.99807,-0.2958c-0.13268,-0.81336 -0.45505,-1.79952 -0.4536,-2.61079c0.00108,-0.60376 0.05553,-1.72457 0.08137,-2.3072c0.68594,-0.28295 1.11265,-0.71389 2.01743,-1.00653c0.90477,-0.29263 1.78542,-0.60715 2.95165,-0.50888z" data-paper-data="{&quot;noHover&quot;:false,&quot;origItem&quot;:[&quot;Path&quot;,{&quot;applyMatrix&quot;:true,&quot;segments&quot;:[[[469.86056,340.47788],[2.90705,-0.05065],[-0.47996,2.2968]],[[468.0571,347.26415],[0.39535,-2.39679],[-0.53123,3.22051]],[[468.15973,357.86707],[0,-3.31566],[0,2.03658]],[[479.8264,360.93518],[-3.75277,0],[1.00657,0]],[[486.717,360.5969],[0.13271,0.41035],[1.52326,-1.03856]],[[492.19394,358.31293],[-1.31054,1.15106],[4.07119,-3.57579]],[[501.92903,343.58421],[-2.00456,6.15021],[0.25074,-0.76931]],[[502.15973,341.16292],[0.77893,-0.15165],[-0.41434,0.08067]],[[501.56,342.30239],[0.41704,-0.06448],[-1.14489,0.17701]],[[496.75028,340.33482],[1.18068,0.3117],[-1.54698,-0.4084]],[[490.86061,339.69435],[1.71512,0.2959],[-3.79987,-0.65558]],[[478.49306,339.79931],[3.88259,0],[-2.99782,0]]],&quot;closed&quot;:true}],&quot;index&quot;:null}" fill="#ffffff" stroke="none" stroke-width="0.5" stroke-linecap="butt"/><path d="M321.10276,149.67185c0.10454,0.6409 0.20909,1.28181 0.31363,1.92271c0.00801,0.0491 0.11796,0.7362 0.12004,0.73592c0.08233,-0.01146 -0.08788,-0.21278 -0.01308,-0.24906c0.21626,-0.10485 1.21875,0.05239 1.73024,-0.03105c0.09952,-0.01623 1.22711,-0.19596 1.22654,-0.20007c-0.01146,-0.08233 -0.21278,0.08788 -0.24906,0.01308c-0.28675,-0.59142 -0.34376,-2.35987 -0.47867,-3.41508c-0.25138,0.24509 -0.91931,-0.02291 -1.33101,0.04424c-0.38822,0.06333 -0.81501,0.54799 -1.08343,0.95261l-0.2053,0.28533c0,0 -0.01159,-0.02207 -0.02993,-0.05862zM320.531,148.86446c0.75838,-1.00762 1.94783,-1.96504 3.17216,-2.11607c0.55457,-0.06839 0.88269,0.60351 0.99448,1.28888c0.21804,1.3367 1.14313,3.82744 -0.05741,4.79424c-0.21151,0.17033 -0.95069,0.15508 -1.22654,0.20007c-0.96222,0.15696 -2.18141,0.29965 -2.85845,-0.54106c-0.4015,-0.49857 -0.34941,-2.14203 -0.4535,-2.78015c0,0 -0.06895,-0.42268 0.31348,-0.54739z" data-paper-data="{&quot;index&quot;:null}" fill="#18c6ff" stroke="none" stroke-width="0.5" stroke-linecap="butt"/><path d="M322.24972,147.43994c0.41169,-0.06716 1.45076,-0.05346 1.45076,-0.05346c0,0 0.78686,4.39792 0.79831,4.48025c0.00057,0.00411 -1.13836,0.19115 -1.23788,0.20739c-0.51148,0.08343 -1.65455,0.26641 -1.73689,0.27786c-0.00209,0.00028 -0.11715,-0.69074 -0.12516,-0.73984c-0.10454,-0.6409 -0.28958,-1.89001 -0.28958,-1.89001c0,0 0.75222,-2.21887 1.14044,-2.2822z" data-paper-data="{&quot;noHover&quot;:false,&quot;origItem&quot;:[&quot;Path&quot;,{&quot;applyMatrix&quot;:true,&quot;segments&quot;:[[[515.49306,341.5323],[0.04917,0.15701],[0,2.61264]],[[515.49306,349.37022],[0,-2.61264],[0,0.20016]],[[515.49306,352.37022],[-0.00844,-0.0002],[0.33438,0.00784]],[[515.60246,351.37279],[-0.32053,0.09557],[0.92664,-0.27628]],[[522.49306,352.37022],[-2.08504,0],[0.4057,0]],[[527.49306,352.37022],[-0.00039,0.0167],[0.00784,-0.33438]],[[526.49563,352.26082],[0.09557,0.32053],[-0.75555,-2.53413]],[[526.80695,338.39],[-0.14773,4.27747],[-1.15693,0.81042]],[[521.49306,337.70356],[1.67827,0],[-1.5826,0]],[[516.57394,340.78444],[1.32792,-1.43284],[0,0]],[515.57394,341.78444]],&quot;closed&quot;:true}],&quot;index&quot;:null}" fill="#ffffff" stroke="none" stroke-width="0.5" stroke-linecap="butt"/><path d="M293.62078,154.35122l2.79485,1.03955c0,0 1.86542,0.09733 2.9793,0.56083c1.11387,0.4635 1.13998,0.68435 1.66785,1.37293c0.52787,0.68858 0.4452,0.78392 0.16633,1.01968c-0.27886,0.23577 -1.3819,0.89422 -2.35809,0.83329c-0.97619,-0.06093 -1.62034,-1.0816 -1.62034,-1.0816l-0.84308,-2.67392" data-paper-data="{&quot;index&quot;:null}" fill="none" stroke="#f6b09a" stroke-width="3" stroke-linecap="round"/><path d="M316.5972,151.28788c0.28127,-0.04588 0.55442,0.02654 0.76902,0.1808c0.21456,0.15384 0.37017,0.38957 0.41598,0.67037c0.0458,0.28079 -0.02683,0.55376 -0.18138,0.76781c-0.15445,0.21445 -0.39043,0.36993 -0.6717,0.41581c-0.28123,0.04588 -0.55439,-0.02655 -0.76902,-0.1808c-0.21452,-0.15384 -0.37014,-0.38958 -0.41595,-0.67038c-0.0458,-0.28079 0.02683,-0.55376 0.18135,-0.7678c0.15449,-0.21446 0.39046,-0.36994 0.6717,-0.41581z" data-paper-data="{&quot;index&quot;:null}" fill="#000000" stroke="none" stroke-width="1.05702" stroke-linecap="butt"/><path d="M324.39267,134.36539c2.19026,6.59386 0.94432,7.1924 -2.34004,9.95348c-4.78558,4.02312 -11.82368,4.51476 -17.08562,7.89105c-1.38164,0.88652 -5.42613,-0.0601 -7.04632,0.20418c-3.31376,0.54054 -5.56987,-1.52277 -6.16695,-4.32134c-1.31702,-6.173 1.74294,-6.69691 5.05669,-7.23745c0,0 3.74549,0.00957 5.3208,1.7389c0,0 3.72685,-9.08207 8.90851,-10.97422c6.67024,-2.43571 11.78004,-1.98988 13.35295,2.74539z" data-paper-data="{&quot;index&quot;:null}" fill="#7100f3" stroke="none" stroke-width="0" stroke-linecap="butt"/><path d="M323.71158,138.44188c0.40409,2.47723 0.04518,4.44909 -4.79582,5.38706c-5.11053,0.99019 -5.85506,-1.10654 -6.25915,-3.58377c-0.40409,-2.47723 1.74308,-4.8891 4.79582,-5.38706c3.05274,-0.49796 5.85506,1.10654 6.25914,3.58377z" data-paper-data="{&quot;index&quot;:null}" fill="#ffffff" stroke="none" stroke-width="0" stroke-linecap="butt"/><path d="M319.72517,135.60121l0.44343,1.5733l-2.40844,0.60194l0.98699,3.91857l-2.01506,0.5779l-1.30314,-5.59407z" data-paper-data="{&quot;index&quot;:null,&quot;origRot&quot;:0}" fill="#ffea12" stroke="#7100f3" stroke-width="1" stroke-linecap="butt"/><path d="M334.36049,157.96554l-1.70961,5.98714l-1.33499,0.04988l-4.8992,-1.21552l-12.73977,5.26803l-1.96246,0.32012l-1.73861,-1.39529l-3.60365,-5.62412l0.52078,-0.9244l5.48956,3.80546l7.06231,-1.99146l5.45709,-2.56906l5.38981,1.13549l2.68041,-3.12347z" data-paper-data="{&quot;index&quot;:null}" fill="#000000" stroke="#ff0000" stroke-width="0" stroke-linecap="round"/><path d="M303.74424,151.39755c0.45545,-0.07429 1.32267,0.62384 1.38122,0.79301c0.88608,0.63832 1.75121,1.70122 2.0893,2.74194c0.10835,0.33355 -0.40488,2.25981 -0.54946,2.53629c-0.85315,0.91938 -2.07575,1.79251 -2.84176,0.57437c-0.1783,-0.28354 0.10237,-1.67207 0.04768,-2.00736c-0.18674,-1.14477 -0.37347,-2.28953 -0.56021,-3.43431c0,0 -0.02573,-0.15775 0.02891,-0.3263l-0.10894,-0.16432c0,0 -0.10004,-0.61327 0.51323,-0.71331z" data-paper-data="{&quot;index&quot;:null}" fill="#8e4108" stroke="none" stroke-width="0.5" stroke-linecap="butt"/><path d="M324.04946,141.21582c3.13024,-0.46629 8.19226,1.74352 8.06115,3.18864c-0.03547,0.39093 -18.08025,4.17673 -23.29062,5.565c-2.53229,0.67472 -7.3929,3.13455 -7.35742,2.74363c0.13112,-1.44513 1.82546,-4.58779 4.17009,-5.71274c2.83336,-1.35945 10.75962,-4.6439 18.41682,-5.78454z" data-paper-data="{&quot;index&quot;:null}" fill="#4f05a3" stroke="none" stroke-width="0" stroke-linecap="butt"/><path d="M302.41985,152.78791l13.28972,-4.93441l15.56593,-3.58594" data-paper-data="{&quot;index&quot;:null}" fill="none" stroke="#ffffff" stroke-width="4.5" stroke-linecap="round"/><path d="M319.64779,150.33186c0.11729,0.98725 -0.86996,1.10455 -0.86996,1.10455l-0.9857,-0.39478c-0.4622,-0.26038 -0.9244,-0.52078 -1.3866,-0.78115c-2.65805,-1.61121 -6.14809,0.30875 -8.29226,2.04566c0,0 -0.77254,0.62579 -1.39833,-0.14674c-0.62579,-0.77254 0.14674,-1.39833 0.14674,-1.39833c2.86391,-2.31993 6.9233,-4.17683 10.51983,-2.23298c0.4622,0.26038 1.286,0.66026 1.286,0.66026c0,0 0.86302,0.15628 0.9803,1.14354z" data-paper-data="{&quot;index&quot;:null}" fill="#000000" stroke="none" stroke-width="0.5" stroke-linecap="butt"/><path d="M325.05509,145.88792c0.61909,0.77792 -0.15884,1.39702 -0.15884,1.39702l-1.11318,0.31001c-1.38238,0.22549 -2.01102,0.61224 -2.2394,2.02696c0,0 -0.15845,0.98149 -1.13994,0.82305c-0.9815,-0.15844 -0.82305,-1.13994 -0.82305,-1.13994c0.35593,-2.20476 2.59195,-3.19289 2.59195,-3.19289c0,0 2.26338,-1.00212 2.88247,-0.22419z" data-paper-data="{&quot;index&quot;:null}" fill="#000000" stroke="none" stroke-width="0.5" stroke-linecap="butt"/><path d="M323.71012,149.17071c0.24343,-0.03971 0.47984,0.02297 0.66558,0.15648c0.1857,0.13314 0.32039,0.33717 0.36003,0.58019c0.03964,0.24303 -0.02322,0.47927 -0.15699,0.66452c-0.13367,0.18561 -0.33791,0.32018 -0.58134,0.35989c-0.24341,0.0397 -0.47981,-0.02298 -0.66558,-0.15649c-0.18566,-0.13315 -0.32036,-0.33717 -0.36,-0.58019c-0.03964,-0.24303 0.02322,-0.47927 0.15696,-0.66452c0.13371,-0.18562 0.33793,-0.32018 0.58135,-0.35988z" data-paper-data="{&quot;index&quot;:null}" fill="#000000" stroke="none" stroke-width="1.05702" stroke-linecap="butt"/><path d="M318.88971,155.88739c-0.00818,-0.72069 -0.19318,-1.59418 -0.0784,-2.18184c0.25354,-1.29817 1.52318,-2.09048 2.72164,-2.28597c4.0214,-0.65597 10.53132,-0.13993 11.33709,4.7998c0.20734,1.46085 0.13684,2.77476 -0.86021,3.96986c-0.48854,0.58559 -1.53876,0.77572 -2.24062,0.96345c-2.18478,0.5844 -4.69492,1.30887 -6.97196,1.22755c-2.01216,-0.19683 -3.84439,0.31484 -5.64111,-1.07976c-1.26297,-0.9803 -1.47224,-3.19414 -0.8402,-4.52167c0.30547,-0.64159 1.72985,-0.77983 2.35886,-0.88244c0,0 0.08718,-0.01422 0.2149,-0.00899z" fill="url(#color-7)" stroke="none" stroke-width="0.5" stroke-linecap="butt"/></g></g></g></svg>