<svg version="1.1" xmlns="http://www.w3.org/2000/svg" xmlns:xlink="http://www.w3.org/1999/xlink" width="832.67835" height="500.0801" viewBox="0,0,832.67835,500.0801"><defs><linearGradient x1="332.63869" y1="275.12302" x2="332.63869" y2="243.20925" gradientUnits="userSpaceOnUse" id="color-1"><stop offset="0" stop-color="#af9141"/><stop offset="1" stop-color="#ddb747"/></linearGradient><linearGradient x1="68.79184" y1="382.45752" x2="68.79184" y2="341.54262" gradientUnits="userSpaceOnUse" id="color-2"><stop offset="0" stop-color="#af9141"/><stop offset="1" stop-color="#ddb747"/></linearGradient><linearGradient x1="202.30538" y1="382.45752" x2="202.30538" y2="341.54262" gradientUnits="userSpaceOnUse" id="color-3"><stop offset="0" stop-color="#af9141"/><stop offset="1" stop-color="#ddb747"/></linearGradient><linearGradient x1="324.30539" y1="382.45752" x2="324.30539" y2="341.54262" gradientUnits="userSpaceOnUse" id="color-4"><stop offset="0" stop-color="#af9141"/><stop offset="1" stop-color="#ddb747"/></linearGradient><linearGradient x1="440.30539" y1="382.45752" x2="440.30539" y2="341.54262" gradientUnits="userSpaceOnUse" id="color-5"><stop offset="0" stop-color="#af9141"/><stop offset="1" stop-color="#ddb747"/></linearGradient><linearGradient x1="68.62367" y1="279.12304" x2="68.62367" y2="247.20926" gradientUnits="userSpaceOnUse" id="color-6"><stop offset="0" stop-color="#af9141"/><stop offset="1" stop-color="#ddb747"/></linearGradient><linearGradient x1="367.6387" y1="343.7897" x2="367.6387" y2="168.87594" gradientUnits="userSpaceOnUse" id="color-7"><stop offset="0" stop-color="#af9141"/><stop offset="1" stop-color="#ddb747"/></linearGradient><linearGradient x1="71.63869" y1="86.123" x2="71.63869" y2="73.72876" gradientUnits="userSpaceOnUse" id="color-8"><stop offset="0" stop-color="#af9141"/><stop offset="1" stop-color="#ddb747"/></linearGradient><linearGradient x1="70.63869" y1="183.123" x2="70.63869" y2="151.20923" gradientUnits="userSpaceOnUse" id="color-9"><stop offset="0" stop-color="#af9141"/><stop offset="1" stop-color="#ddb747"/></linearGradient><linearGradient x1="202.6387" y1="72.80469" x2="202.6387" y2="-115.62256" gradientUnits="userSpaceOnUse" id="color-10"><stop offset="0" stop-color="#af9141"/><stop offset="1" stop-color="#ddb747"/></linearGradient><linearGradient x1="232.63869" y1="16.123" x2="232.63869" y2="-15.79076" gradientUnits="userSpaceOnUse" id="color-11"><stop offset="0" stop-color="#af9141"/><stop offset="1" stop-color="#ddb747"/></linearGradient><linearGradient x1="481.63869" y1="201.123" x2="481.63869" y2="169.20926" gradientUnits="userSpaceOnUse" id="color-12"><stop offset="0" stop-color="#af9141"/><stop offset="1" stop-color="#ddb747"/></linearGradient></defs><g transform="translate(8.37633,116.62259)"><g data-paper-data="{&quot;isPaintingLayer&quot;:true}" fill-rule="nonzero" stroke="#91773e" stroke-width="2" stroke-linecap="butt" stroke-linejoin="miter" stroke-miterlimit="10" stroke-dasharray="" stroke-dashoffset="0" style="mix-blend-mode: normal"><path d="M332.63869,243.20923h123.66333v31.91377h-123.66333z" data-paper-data="{&quot;index&quot;:null}" fill="url(#color-1)"/><path d="M-7.20816,341.54262h209.84351v40.91489h-209.84351z" data-paper-data="{&quot;index&quot;:null}" fill="url(#color-2)"/><path d="M202.30538,341.54262h120.33v40.91489h-120.33z" data-paper-data="{&quot;index&quot;:null}" fill="url(#color-3)"/><path d="M324.30539,341.54262h120.33v40.91489h-120.33z" data-paper-data="{&quot;index&quot;:null}" fill="url(#color-4)"/><path d="M440.30539,341.54262h208.33v40.91489h-208.33z" data-paper-data="{&quot;index&quot;:null}" fill="url(#color-5)"/><path d="M-7.37633,247.20926h270.66333v31.91377h-270.66333z" data-paper-data="{&quot;index&quot;:null}" fill="url(#color-6)"/><path d="M367.6387,168.87591h29.66333v174.91377h-29.66333z" data-paper-data="{&quot;index&quot;:null}" fill="url(#color-7)"/><path d="M-4.36131,73.72875l236.66333,0v12.39425l-236.66333,0z" data-paper-data="{&quot;index&quot;:null}" fill="url(#color-8)"/><path d="M-5.36131,151.20923h236.66333v31.91377h-236.66333z" data-paper-data="{&quot;index&quot;:null}" fill="url(#color-9)"/><path d="M202.6387,-115.62259h29.66333v188.42728h-29.66333z" data-paper-data="{&quot;index&quot;:null}" fill="url(#color-10)"/><path d="M232.63869,-15.79077h413.66333v31.91377h-413.66333z" data-paper-data="{&quot;index&quot;:null}" fill="url(#color-11)"/><path d="M481.63869,169.20923h341.66333v31.91377h-341.66333z" data-paper-data="{&quot;index&quot;:null}" fill="url(#color-12)"/></g></g></svg>