<svg version="1.1" xmlns="http://www.w3.org/2000/svg" xmlns:xlink="http://www.w3.org/1999/xlink" width="513.01006" height="189.31278" viewBox="0,0,513.01006,189.31278"><defs><radialGradient cx="374.81091" cy="270.59432" r="244.4718" gradientUnits="userSpaceOnUse" id="color-1"><stop offset="0" stop-color="#6681bd"/><stop offset="1" stop-color="#45577f"/></radialGradient><radialGradient cx="413.12261" cy="197.82812" r="319.9632" gradientUnits="userSpaceOnUse" id="color-2"><stop offset="0" stop-color="#45577f"/><stop offset="1" stop-color="#1f283a"/></radialGradient><radialGradient cx="413.6153" cy="196.85541" r="205.22371" gradientUnits="userSpaceOnUse" id="color-3"><stop offset="0" stop-color="#45577f"/><stop offset="1" stop-color="#1f283a"/></radialGradient><radialGradient cx="61.46571" cy="340.61202" r="218.2119" gradientUnits="userSpaceOnUse" id="color-4"><stop offset="0" stop-color="#6681bd"/><stop offset="1" stop-color="#45577f"/></radialGradient><radialGradient cx="89.31201" cy="302.62811" r="326.7468" gradientUnits="userSpaceOnUse" id="color-5"><stop offset="0" stop-color="#45577f"/><stop offset="1" stop-color="#1f283a"/></radialGradient><radialGradient cx="89.31195" cy="301.17197" r="247.45651" gradientUnits="userSpaceOnUse" id="color-6"><stop offset="0" stop-color="#45577f"/><stop offset="1" stop-color="#1f283a"/></radialGradient><radialGradient cx="339.92261" cy="255.67812" r="319.9632" gradientUnits="userSpaceOnUse" id="color-7"><stop offset="0" stop-color="#45577f"/><stop offset="1" stop-color="#1f283a"/></radialGradient><radialGradient cx="340.4153" cy="254.70541" r="205.22371" gradientUnits="userSpaceOnUse" id="color-8"><stop offset="0" stop-color="#45577f"/><stop offset="1" stop-color="#1f283a"/></radialGradient></defs><g transform="translate(12.6797,-179.34851)"><g data-paper-data="{&quot;isPaintingLayer&quot;:true}" fill-rule="nonzero" stroke-linejoin="miter" stroke-miterlimit="10" stroke-dasharray="" stroke-dashoffset="0" style="mix-blend-mode: normal"><path d="M331.15001,188.10002l162.2342,16v155h-180.2342l-52.32929,-52.92272l-0.6707,-45.17728l64,-6.50751z" fill="url(#color-1)" stroke="#496087" stroke-width="1.49093" stroke-linecap="butt"/><path d="M499.39301,180.09401l-6.0088,26.00601l-23.4806,20.501l-29.597,-20.501l-27.0395,29l-28.7086,-30l-27.9278,21.501l-23.4807,-20.501l-4.6735,-26z" fill="url(#color-2)" stroke="url(#color-3)" stroke-width="1.49093" stroke-linecap="round"/><g stroke-width="1.52254"><path d="M-6.14999,322.90002h191.4375v45h-191.4375z" fill="url(#color-4)" stroke="#496087" stroke-linecap="butt"/><path d="M90.76521,300.90002l101.7012,4l-7.1789,20l-28.0532,20.501l-35.3605,-20.501l-32.3051,29l-34.2992,-30l-33.3663,21.501l-28.0532,-20.501l-5.5836,-26z" fill="url(#color-5)" stroke="url(#color-6)" stroke-linecap="round"/></g><path d="M335.06861,252.95002l-18.50468,34.39912l-24.40221,-17.56641l-20.73101,20.66829l-18.1542,-38.501z" fill="url(#color-7)" stroke="url(#color-8)" stroke-width="1.49093" stroke-linecap="round"/></g></g></svg>