<svg version="1.1" xmlns="http://www.w3.org/2000/svg" xmlns:xlink="http://www.w3.org/1999/xlink" width="499.75705" height="209.73938" viewBox="0,0,499.75705,209.73938"><defs><linearGradient x1="433.18704" y1="168" x2="433.18704" y2="299" gradientUnits="userSpaceOnUse" id="color-1"><stop offset="0" stop-color="#7c5831"/><stop offset="1" stop-color="#95693b"/></linearGradient></defs><g transform="translate(1.38298,-154)"><g data-paper-data="{&quot;isPaintingLayer&quot;:true}" fill-rule="nonzero" stroke-linejoin="miter" stroke-miterlimit="10" stroke-dasharray="" stroke-dashoffset="0" style="mix-blend-mode: normal"><path d="M0,280.35551h480v82.00089h-480z" fill="#95693b" stroke="#763e13" stroke-width="2.76596" stroke-linecap="butt"/><path d="M369,168h128.37407v131h-128.37407z" fill="url(#color-1)" stroke="#663b00" stroke-width="2" stroke-linecap="butt"/><path d="M364,291.0182h116v30h-116z" fill="#95693b" stroke="none" stroke-width="1.19572" stroke-linecap="butt"/><path d="M0,266.9775h375.27153v27.13442h-375.27153z" fill="#8d5827" stroke="#704d00" stroke-width="2" stroke-linecap="butt"/><path d="M364.27318,155h115.72683v24h-115.72683z" fill="#8d5827" stroke="#704d00" stroke-width="2" stroke-linecap="butt"/><g fill="#b2b2b2" stroke="#7f7f7f" stroke-width="2" stroke-linecap="round"><path d="M34.2928,337.4121c-0.301,-0.6356 2.1874,0.7951 3.6806,0.2793c1.3586,-0.4692 2.4386,-1.5379 3.5792,-2.4114c0.5649,-0.4327 0.8504,-1.7283 1.523,-1.4976c1.3453,0.4614 2.457,1.7292 2.9952,3.0461c0.5793,1.4168 0.7991,3.2189 0.1268,4.5944c-0.9373,1.9169 -2.7422,3.3909 -4.5691,4.4928c-1.1756,0.7085 -2.7477,1.1084 -4.0614,0.7107c-1.2873,-0.3898 -2.2834,-1.6192 -2.8937,-2.8177c-0.8815,-1.7323 -2.3316,-3.9735 -1.4214,-5.6605z"/><path d="M25.0996,342.6744c-4.1286,-2.3093 -3.8337,-8.0847 -3.5788,-12.3619c0.2701,-4.5016 2.5219,-9.2766 5.5085,-12.844c2.0004,-2.386 5.1457,-3.6142 8.1229,-3.8835c2.965,-0.2672 6.5653,0.6464 8.7065,2.9701c3.3096,3.3102 7.7108,7.9244 6.4726,12.7173c-1.2815,4.9467 -7.8742,6.6642 -12.3874,9.0617c-3.9876,2.1179 -8.7083,5.957 -12.8443,4.3403z"/><path d="M33.9848,344.7053c1.7412,-0.2803 3.6615,-1.1327 5.2798,-0.4314c1.3943,0.6037 3.4367,2.6015 2.5129,3.8076c-1.8215,2.3798 -5.2549,3.2502 -8.2244,3.655c-1.7163,0.2331 -4.0971,-0.3546 -4.9498,-1.9038c-0.581,-1.3789 0.8828,-3.0909 1.98,-4.1629c0.8406,-0.8222 2.2393,-0.7774 2.843,-0.9899z"/><path d="M48.2891,338.2942c0.5623,-0.3058 1.4664,-1.374 2.6399,-1.4469c1.5309,-0.096 3.7827,-0.0352 4.4167,1.3201c0.5785,1.6711 -0.5807,3.8321 -1.9038,4.9498c-2.2905,1.9327 -5.2374,3.8979 -8.2244,3.655c-1.5143,-0.1226 -1.6285,-2.9772 -1.1422,-4.4168c0.564,-1.671 2.4835,-2.5252 3.8584,-3.6297z"/></g><g fill="#b2b2b2" stroke="#7f7f7f" stroke-width="2" stroke-linecap="round"><path d="M432.0341,290.5212c0.0659,0.7001 -1.7844,-1.4944 -3.364,-1.5195c-1.4371,-0.023 -2.8172,0.6126 -4.1875,1.0441c-0.6787,0.2138 -1.3894,1.334 -1.9429,0.8874c-1.1068,-0.8931 -1.7187,-2.4643 -1.7748,-3.8858c-0.0607,-1.5295 0.3482,-3.2983 1.4498,-4.3616c1.5356,-1.4815 3.7354,-2.2505 5.8288,-2.6622c1.3469,-0.2645 2.961,-0.1034 4.0599,0.719c1.0767,0.806 1.5931,2.3017 1.7575,3.6365c0.2369,1.9292 0.8345,4.5309 -0.5973,5.8057z"/><path d="M442.5046,288.7814c3.0918,3.5805 0.8422,8.908 -0.8581,12.8409c-1.7911,4.1388 -5.5383,7.8577 -9.5636,10.1906c-2.695,1.5595 -6.0706,1.6397 -8.9608,0.876c-2.878,-0.7614 -5.9498,-2.8496 -7.1688,-5.7648c-1.9801,-4.2415 -4.5409,-10.0813 -1.7403,-14.1632c2.8938,-4.2117 9.6766,-3.5744 14.7373,-4.2865c4.4711,-0.6288 10.2191,-2.6249 13.5543,0.307z"/><path d="M434.8575,283.819c-1.7322,-0.3312 -3.8282,-0.1859 -5.1097,-1.3976c-1.1043,-1.0437 -2.3416,-3.6188 -1.0615,-4.4369c2.5247,-1.6147 6.049,-1.2602 8.9782,-0.6266c1.6927,0.367 3.7297,1.7325 4.002,3.4798c0.0752,1.4944 -1.8853,2.6036 -3.2827,3.2364c-1.0707,0.4857 -2.3701,-0.0341 -3.0101,-0.0405z"/><path d="M419.0945,284.9822c-0.6329,0.0953 -1.8475,0.7906 -2.9754,0.4583c-1.4716,-0.4326 -3.5672,-1.2587 -3.7003,-2.7491c0.0269,-1.7681 1.8545,-3.4033 3.4798,-4.002c2.8128,-1.0343 6.2536,-1.8749 8.9781,-0.6266c1.3814,0.6324 0.5138,3.3544 -0.4348,4.5413c-1.1008,1.378 -3.1966,1.5253 -4.8661,2.0939z"/></g><path d="M150.6528,318.6985c-0.772,3.3964 -12.8411,-1.9514 -17.4847,1.5923c-3.1976,2.4452 -1.5291,7.9323 -1.0636,11.8714c0.3001,2.4062 3.472,4.4055 2.5922,5.855c-0.838,1.3768 -4.0699,0.3224 -5.8149,-0.4999c-2.3012,-0.874 -5.1162,-2.0427 -5.8251,-4.381c-1.9548,-6.4521 -4.9065,-14.1115 -1.9215,-20.157c2.4633,-4.9897 9.7857,-7.8949 15.2484,-6.8363c6.2135,1.2039 15.105,8.878 15.8471,12.4546z" fill="#b2b2b2" stroke="#7f7f7f" stroke-width="2" stroke-linecap="round"/><path d="M411.1948,199.44c3.481,-0.1186 1.3837,12.9146 5.9932,16.5025c3.179,2.4693 8.0602,-0.5417 11.7508,-1.9952c2.2504,-0.9031 3.3759,-4.4796 5.0017,-3.998c1.5448,0.4597 1.3484,3.8536 0.9976,5.7505c-0.259,2.4478 -0.6723,5.4677 -2.7528,6.7488c-5.7414,3.5337 -12.3964,8.3389 -19.0029,6.9922c-5.4525,-1.1112 -10.1269,-7.4521 -10.4946,-13.0043c-0.4184,-6.3152 4.7379,-16.8681 8.0076,-18.4967z" fill="#b2b2b2" stroke="#7f7f7f" stroke-width="2" stroke-linecap="round"/><path d="M312.7813,324.6332c1.2925,-3.2344 12.3793,3.931 17.519,1.1552c3.5399,-1.9163 2.7481,-7.5966 2.9028,-11.5601c0.079,-2.4235 -2.7421,-4.8932 -1.6468,-6.1877c1.0425,-1.2292 4.0703,0.3166 5.6656,1.4011c2.1367,1.2223 4.7348,2.816 5.0703,5.2362c0.9241,6.6781 2.6446,14.7042 -1.2471,20.21c-3.2117,4.5442 -10.8977,6.2713 -16.1284,4.3734c-5.9495,-2.1586 -13.5347,-11.1261 -13.7097,-14.7747z" fill="#b2b2b2" stroke="#7f7f7f" stroke-width="2" stroke-linecap="round"/></g></g></svg>