<svg version="1.1" xmlns="http://www.w3.org/2000/svg" xmlns:xlink="http://www.w3.org/1999/xlink" width="115" height="115" viewBox="0,0,115,115"><defs><linearGradient x1="240.05" y1="128.66609" x2="240.05" y2="231.16609" gradientUnits="userSpaceOnUse" id="color-1"><stop offset="0" stop-color="#110003"/><stop offset="1" stop-color="#ff3c00"/></linearGradient><linearGradient x1="240.05" y1="128.66609" x2="240.05" y2="231.16609" gradientUnits="userSpaceOnUse" id="color-2"><stop offset="0" stop-color="#000000" stop-opacity="0"/><stop offset="1" stop-color="#000000" stop-opacity="0"/></linearGradient><linearGradient x1="266.0488" y1="245.81128" x2="266.0488" y2="258.51983" gradientUnits="userSpaceOnUse" id="color-3"><stop offset="0" stop-color="#ffffcc"/><stop offset="1" stop-color="#ffff99"/></linearGradient><linearGradient x1="270.8504" y1="239.24753" x2="270.8504" y2="250.94325" gradientUnits="userSpaceOnUse" id="color-4"><stop offset="0" stop-color="#ffffcc"/><stop offset="1" stop-color="#ffff99"/></linearGradient><linearGradient x1="272.62473" y1="228.77167" x2="272.62473" y2="244.1356" gradientUnits="userSpaceOnUse" id="color-5"><stop offset="0" stop-color="#ffffcc"/><stop offset="1" stop-color="#ffff99"/></linearGradient><linearGradient x1="271.91501" y1="220.6735" x2="271.91501" y2="235.19755" gradientUnits="userSpaceOnUse" id="color-6"><stop offset="0" stop-color="#ffffcc"/><stop offset="1" stop-color="#ffff99"/></linearGradient><linearGradient x1="270.93754" y1="214.52871" x2="270.93754" y2="226.53897" gradientUnits="userSpaceOnUse" id="color-7"><stop offset="0" stop-color="#ffffcc"/><stop offset="1" stop-color="#ffff99"/></linearGradient></defs><g transform="translate(-182.5,-121.875)"><g data-paper-data="{&quot;isPaintingLayer&quot;:true}" fill-rule="nonzero" stroke-linejoin="miter" stroke-miterlimit="10" stroke-dasharray="" stroke-dashoffset="0" style="mix-blend-mode: normal"><path d="M186.3,231.16609v-102.5h107.5v102.5z" fill="url(#color-1)" stroke="url(#color-2)" stroke-width="0" stroke-linecap="butt"/><g data-paper-data="{&quot;index&quot;:null}" stroke-width="0.5"><path d="M218.77803,191.7393c0,0 4.4262,6.25273 7.76946,9.66867c3.34326,3.41594 4.75911,4.19217 8.11478,6.56089c3.35566,2.3687 8.46008,5.87025 8.46008,5.87025l-6.21557,5.52496c0,0 -5.2807,-1.37677 -8.46008,-3.4531c-3.17938,-2.07632 -5.3329,-3.68211 -8.28743,-6.56089c-2.95453,-2.87876 -5.17964,-6.56088 -5.17964,-6.56088l-3.4531,-5.52496z" data-paper-data="{&quot;origPos&quot;:null,&quot;index&quot;:null}" fill="#666666" stroke="#666666" stroke-linecap="round"/><path d="M196.44524,222.15596c0,0 7.38515,2.03651 12.1358,2.56322c4.75064,0.52671 6.33799,0.23092 10.43508,-0.06074c4.0971,-0.29166 10.265,-0.81391 10.265,-0.81391l2.22362,6.8808c-3.31442,0.02873 -6.41756,0.21984 -9.08778,0.46391c-6.66935,-0.86033 -13.79755,-0.56386 -20.11697,0.01075c-2.56283,0 -5.0356,0.38564 -7.36343,1.10204c-0.76871,0.05111 -1.54899,0.14478 -2.34508,0.29061l-2.05842,-0.36011z" data-paper-data="{&quot;origPos&quot;:null,&quot;index&quot;:null,&quot;origRot&quot;:0}" fill="#666666" stroke="#666666" stroke-linecap="round"/><path d="M249.68323,191.56664l0.31437,-0.25125c0.61276,2.45107 3.55534,3.05955 4.29414,5.27595c1.75721,6.57978 -6.10946,10.869 -11.16079,13.39467c-2.80431,1.391 -4.96654,2.80338 -7.48744,4.60699c-0.26814,0.19184 -1.89099,0.79821 -1.92015,0.84321c-1.24274,1.91859 -1.77027,4.31578 -2.83358,6.32248c-0.54315,0.75348 -0.38777,1.77022 -0.61799,2.65177c-0.3871,1.48222 -2.06692,3.40991 -1.77117,5.00399c0.08501,0.45823 0.22642,0.91393 0.41104,1.36613c-2.33982,0.07879 -4.53398,0.22945 -6.4947,0.40867c-6.66935,-0.86033 -13.79755,-0.56386 -20.11697,0.01075c-2.56283,0 -5.0356,0.38564 -7.36343,1.10204c-0.30063,0.01999 -0.60303,0.04649 -0.90745,0.08007c0.03506,-1.01633 0.0593,-2.02013 0.0593,-3.00409c0,-6.79031 3.21005,-11.51696 6.73486,-16.80417c3.72873,-4.74638 8.82126,-9.71298 13.42385,-14.31557c2.52048,-2.44874 5.61506,-3.44872 8.51043,-5.3994c3.09699,-2.08653 5.11602,-4.65267 8.92293,-5.63638c6.16635,-1.59098 11.50953,-0.00778 16.76504,3.3226c0.06247,-0.00935 0.12961,-0.01439 0.20178,-0.01439c1.03593,0 1.03593,1.03593 1.03593,1.03593z" data-paper-data="{&quot;origPos&quot;:null}" fill="#ffd833" stroke="none" stroke-linecap="butt"/><path d="M237.25209,219.1914c0,0 -4.4262,-6.25273 -7.76946,-9.66867c-3.34326,-3.41594 -4.75911,-4.19217 -8.11478,-6.56089c-3.35566,-2.3687 -9.66866,-5.52495 -9.66866,-5.52495l7.2515,-6.90619c0,0 5.45336,2.4127 8.63273,4.48903c3.17938,2.07632 5.3329,3.68211 8.28743,6.56089c2.95453,2.87876 5.17964,6.56088 5.17964,6.56088l3.4531,5.52496z" data-paper-data="{&quot;origPos&quot;:null}" fill="#000000" stroke="#000000" stroke-linecap="round"/><path d="M230.08691,204.86106c-1.09658,0 -1.98553,-0.88896 -1.98553,-1.98553c0,-1.09658 0.88895,-1.98552 1.98553,-1.98552c1.09658,0 1.98552,0.88895 1.98552,1.98552c0,1.09658 -0.88895,1.98553 -1.98552,1.98553z" data-paper-data="{&quot;origPos&quot;:null}" fill="#ffffff" stroke="none" stroke-linecap="butt"/><path d="M224.13032,200.63101c-1.00122,0 -1.81287,-0.81165 -1.81287,-1.81287c0,-1.00122 0.81165,-1.81287 1.81287,-1.81287c1.00122,0 1.81287,0.81165 1.81287,1.81287c0,1.00122 -0.81165,1.81287 -1.81287,1.81287z" data-paper-data="{&quot;origPos&quot;:null}" fill="#ffffff" stroke="none" stroke-linecap="butt"/><path d="M235.00757,209.95437c-1.00122,0 -1.81287,-0.81165 -1.81287,-1.81287c0,-1.00122 0.81165,-1.81287 1.81287,-1.81287c1.00122,0 1.81287,0.81165 1.81287,1.81287c0,1.00122 -0.81165,1.81287 -1.81287,1.81287z" data-paper-data="{&quot;origPos&quot;:null}" fill="#ffffff" stroke="none" stroke-linecap="butt"/><path d="M219.38232,197.26424c-0.90587,0 -1.64023,-0.73436 -1.64023,-1.64023c0,-0.90587 0.73436,-1.64022 1.64023,-1.64022c0.90587,0 1.64022,0.73435 1.64022,1.64022c0,0.90587 -0.73435,1.64023 -1.64022,1.64023z" data-paper-data="{&quot;origPos&quot;:null}" fill="#ffffff" stroke="none" stroke-linecap="butt"/><path d="M238.63332,214.70238c-0.95354,0 -1.72655,-0.77301 -1.72655,-1.72654c0,-0.95354 0.77301,-1.72655 1.72655,-1.72655c0.95354,0 1.72654,0.77301 1.72654,1.72655c0,0.95354 -0.77301,1.72654 -1.72654,1.72654z" data-paper-data="{&quot;origPos&quot;:null}" fill="#ffffff" stroke="none" stroke-linecap="butt"/><path d="M242.25907,219.01874c-0.85819,0 -2.58982,-0.86836 -2.58982,-1.72654c0,-0.85819 0.6957,-1.55389 1.55389,-1.55389c0.85819,0 1.55389,0.6957 1.55389,1.55389c0,0.85819 0.34023,1.72654 -0.51796,1.72654z" data-paper-data="{&quot;origPos&quot;:null}" fill="#ffffff" stroke="none" stroke-linecap="butt"/><path d="M214.97962,195.36505c-0.85819,0 -1.55389,-0.69571 -1.55389,-1.55389c0,-0.85818 -0.51288,-1.72654 0.34532,-1.72654c0.85819,0 2.76247,0.86836 2.76247,1.72654c0,0.85818 -0.6957,1.55389 -1.55389,1.55389z" data-paper-data="{&quot;origPos&quot;:null}" fill="#ffffff" stroke="none" stroke-linecap="butt"/><path d="M215.99128,229.14103c-4.75064,-0.52671 -6.33799,-0.23091 -10.43508,0.06075c-4.0971,0.29166 -14.78014,2.88241 -14.78014,2.88241l0.54847,-9.76436c0,0 10.2375,-2.79453 14.01301,-3.20084c3.77551,-0.40631 6.45909,-0.52719 10.56872,-0.17007c4.10962,0.35713 8.16342,1.7979 8.16342,1.7979l7.72504,2.08945l-0.038,7.88722c-1.48961,0.00916 -2.93794,0.05146 -4.32506,0.11708c-3.95032,-0.62534 -9.46839,-1.48088 -11.44038,-1.69952z" data-paper-data="{&quot;origPos&quot;:null,&quot;origRot&quot;:0}" fill="#000000" stroke="#000000" stroke-linecap="round"/><path d="M212.64375,225.15043c-0.84871,0.69439 -2.09963,0.56929 -2.79402,-0.2794c-0.69439,-0.84871 -0.56929,-2.09963 0.27941,-2.79402c0.84871,-0.69439 2.09963,-0.56929 2.79402,0.2794c0.69439,0.84871 0.5693,2.09963 -0.2794,2.79403z" data-paper-data="{&quot;origPos&quot;:null,&quot;origRot&quot;:0}" fill="#ffffff" stroke="none" stroke-linecap="butt"/><path d="M205.18233,225.82116c-0.77491,0.63401 -1.91706,0.5198 -2.55107,-0.25511c-0.63401,-0.77491 -0.5198,-1.91706 0.25511,-2.55107c0.77491,-0.63401 1.91706,-0.5198 2.55107,0.25511c0.63401,0.77491 0.5198,1.91705 -0.25511,2.55107z" data-paper-data="{&quot;origPos&quot;:null,&quot;origRot&quot;:0}" fill="#ffffff" stroke="none" stroke-linecap="butt"/><path d="M220.02273,225.63119c-0.77491,0.63401 -1.91706,0.5198 -2.55108,-0.25511c-0.63401,-0.77491 -0.5198,-1.91706 0.25511,-2.55107c0.77491,-0.63401 1.91706,-0.5198 2.55107,0.25511c0.63401,0.77491 0.5198,1.91705 -0.25511,2.55107z" data-paper-data="{&quot;origPos&quot;:null,&quot;origRot&quot;:0}" fill="#ffffff" stroke="none" stroke-linecap="butt"/><path d="M197.99438,226.74c-0.7011,0.57362 -1.73449,0.47029 -2.30811,-0.2308c-0.57362,-0.7011 -0.47028,-1.73449 0.23082,-2.30811c0.7011,-0.57362 1.73448,-0.47029 2.3081,0.2308c0.57362,0.7011 0.47029,1.73449 -0.2308,2.30811z" data-paper-data="{&quot;origPos&quot;:null,&quot;origRot&quot;:0}" fill="#ffffff" stroke="none" stroke-linecap="butt"/><path d="M227.56206,227.18262c-0.738,0.60382 -1.82577,0.49505 -2.42959,-0.24296c-0.60382,-0.738 -0.49504,-1.82577 0.24296,-2.42959c0.738,-0.60382 1.82577,-0.49504 2.42959,0.24296c0.60382,0.738 0.49504,1.82576 -0.24296,2.42958z" data-paper-data="{&quot;origPos&quot;:null,&quot;origRot&quot;:0}" fill="#ffffff" stroke="none" stroke-linecap="butt"/><path d="M234.13745,227.70939c-0.66421,0.54344 -2.55429,0.9679 -3.09773,0.30369c-0.54344,-0.66421 -0.44554,-1.64319 0.21866,-2.18663c0.66421,-0.54344 1.64319,-0.44553 2.18663,0.21866c0.54344,0.66421 1.35663,1.12083 0.69244,1.66427z" data-paper-data="{&quot;origPos&quot;:null,&quot;origRot&quot;:0}" fill="#ffffff" stroke="none" stroke-linecap="butt"/><path d="M191.65768,228.05806c-0.66421,0.54344 -1.64319,0.44553 -2.18663,-0.21866c-0.54344,-0.66421 -1.49027,-1.0115 -0.82606,-1.55493c0.66421,-0.54344 2.68791,-1.07723 3.23135,-0.41304c0.54344,0.66421 0.44553,1.64319 -0.21866,2.18663z" data-paper-data="{&quot;origPos&quot;:null,&quot;origRot&quot;:0}" fill="#ffffff" stroke="none" stroke-linecap="butt"/></g><g data-paper-data="{&quot;index&quot;:null}" stroke-width="1"><g stroke="none"><path d="M276.06581,178.82541c0.33065,1.20991 -1.5586,1.60837 -2.55076,2.28637c-1.22287,0.81452 -2.73421,1.21377 -4.19086,1.46118c-2.10415,0.35824 -4.58966,1.35135 -6.53493,0.37875c-1.13354,-0.57822 -0.5241,-2.32586 -0.46566,-3.34846c0.25785,-2.51495 0.59672,-5.04873 1.40542,-7.1598c1.13886,-3.0038 2.30827,-9.59526 4.54178,-8.50082c3.75514,1.84656 6.09955,9.45868 7.795,14.8828z" fill="#ffffcc" stroke-linecap="round"/><path d="M274.70061,178.15893c1.62976,0.58135 2.69153,1.49782 2.79722,2.61003c0.10563,1.1122 -0.76453,2.21224 -2.25564,3.0901c-1.49112,0.87843 -3.60314,1.53475 -5.98106,1.76071c-2.37792,0.2259 -4.5758,-0.02089 -6.20563,-0.60286c-1.62976,-0.58135 -2.69153,-1.49777 -2.79722,-2.61003c-0.10563,-1.1122 0.76453,-2.21224 2.25564,-3.0901c1.49112,-0.87843 3.60314,-1.53475 5.98106,-1.76065c2.37792,-0.22596 4.5758,0.02089 6.20563,0.60281z" fill="#ff9400" stroke-linecap="butt"/></g><g stroke="none"><path d="" fill="#ffffcc" stroke-linecap="round"/><path d="" fill="#ff9400" stroke-linecap="butt"/></g><g stroke="none"><path d="" fill="#ffffcc" stroke-linecap="round"/><path d="" fill="#ff9400" stroke-linecap="butt"/></g><g stroke="none"><path d="M293.11988,187.3941c-1.96947,-0.82267 -4.60078,-1.31292 -5.72426,-3.17518c-0.6485,-1.09478 0.80117,-2.24553 1.39744,-3.07831c1.56301,-1.98712 3.20451,-3.94674 5.01694,-5.29792c0.10992,-0.08254 0.22341,-0.17061 0.34005,-0.2634c-0.28985,3.7976 -0.5156,7.90107 -0.47972,12.03612c-0.1855,-0.07138 -0.3691,-0.14546 -0.55044,-0.2213z" fill="#ffffcc" stroke-linecap="round"/><path d="M291.43701,189.93474c-2.13007,-1.08093 -3.85514,-2.46495 -4.92097,-3.82838c-1.06618,-1.36292 -1.47313,-2.70516 -0.96753,-3.70146c0.50555,-0.99629 1.82914,-1.46034 3.55861,-1.40453c1.36603,0.04363 2.98523,0.41146 4.65493,1.09667c-0.11362,2.89468 -0.13889,5.86826 -0.00379,8.82072c-0.76104,-0.25944 -1.54152,-0.58734 -2.32126,-0.98303z" fill="#ff9400" stroke-linecap="butt"/></g><path d="M249.42992,218.15974c0,-9.82496 5.86716,-16.99873 9.53672,-25.17465c1.92835,-4.29074 2.37468,-10.36793 6.38388,-12.39237c5.2281,-2.16687 11.47065,0.7357 16.61887,1.95516c3.77014,0.89293 8.13755,1.28972 11.7062,2.81102c-0.04856,3.77411 0.09273,7.61687 0.57633,11.31661c-0.43067,4.60878 0.13949,9.26836 0.04807,13.89987c-0.11559,5.85637 -0.95231,13.01418 -0.65205,19.89819c-3.97011,-0.01195 -7.78674,0.20532 -11.03994,0.29562c-3.16359,0.08781 -7.01841,0.10581 -10.85361,0.43084c-1.70385,0.00304 -3.36771,0.17653 -4.97544,0.50433c-2.97532,0.18362 -5.92442,0.43549 -8.72586,0.49563c-1.88974,0.04057 -3.91628,-0.00663 -6.00956,-0.04659c-1.68208,-4.2969 -2.61362,-9.02754 -2.61362,-13.99367z" fill="#009933" stroke="none" stroke-linecap="round"/><path d="M279.59526,196.5133c0.52439,0.10166 0.9454,0.13264 1.29057,0.12255c0.12076,-0.07158 0.24638,-0.12246 0.38517,-0.12246c0.04696,0 0.078,0.03032 0.09994,0.07685c0.66246,-0.10935 0.96369,-0.36893 1.29672,-0.35624c0.39383,0.00782 0.51672,0.60834 0.83792,0.83792c0.33852,0.24188 0.77872,0.31674 1.11724,0.55861c0.3212,0.22959 0.49549,0.64241 0.83792,0.83792c0.33294,0.19049 0.75804,0.14468 1.11724,0.27931c0.38935,0.1458 0.75358,0.3564 1.11724,0.55861c0.47427,0.26311 0.91166,0.59548 1.39655,0.83792c0.44801,0.22401 0.99601,0.25808 1.39655,0.55861c0.37204,0.27931 0.5318,0.76698 0.83792,1.11724c0.34634,0.39606 0.7452,0.7452 1.11724,1.11724c0.27931,0.27931 0.60834,0.51672 0.83792,0.83792c0.24188,0.33852 0.3726,0.7452 0.55861,1.11724c0.12732,0.25464 0.2549,0.5098 0.38239,0.76477c0.05958,1.64054 0.10992,3.28106 0.07761,4.91807c-0.11559,5.85637 -0.95231,13.01418 -0.65205,19.89819c-3.97011,-0.01195 -7.78674,0.20532 -11.03994,0.29562c-3.16359,0.08781 -7.01841,0.10581 -10.85361,0.43084c-1.70385,0.00304 -3.36771,0.17653 -4.97544,0.50433c-2.97532,0.18362 -5.92442,0.43549 -8.72586,0.49563c-1.93412,0.04152 -4.01153,-0.00889 -6.15712,-0.04939c0.11093,-0.24055 0.22277,-0.48072 0.32693,-0.7236c0.27931,-0.65135 0.52119,-1.32169 0.83792,-1.95516c0.24244,-0.48488 0.55861,-0.93122 0.83792,-1.39655c0.27931,-0.46533 0.51226,-0.9625 0.83792,-1.39655c0.51448,-0.68598 1.1178,-1.30381 1.67585,-1.95516c0.55805,-0.65135 1.09656,-1.32281 1.67585,-1.95516c0.44466,-0.48488 0.9597,-0.90496 1.39655,-1.39655c0.30891,-0.34746 0.5089,-0.78821 0.83792,-1.11724c0.32902,-0.32902 0.78821,-0.5089 1.11724,-0.83792c0.32902,-0.32902 0.5089,-0.78821 0.83792,-1.11724c0.4212,-0.4212 0.93122,-0.7452 1.39655,-1.11724c0.46533,-0.37204 0.97535,-0.69604 1.39655,-1.11724c0.32902,-0.32902 0.52901,-0.76978 0.83792,-1.11724c0.43684,-0.49158 0.93122,-0.93122 1.39655,-1.39655c0.65135,-0.65135 1.34906,-1.26248 1.95516,-1.95516c0.69827,-0.79827 1.3513,-1.64178 1.95516,-2.51377c0.23685,-0.34188 0.40388,-0.73123 0.55861,-1.11724c0.21842,-0.54633 0.46923,-1.09433 0.55861,-1.67585c0.09888,-0.64353 -0.05921,-1.30661 0,-1.95516c0.03463,-0.38209 0.23183,-0.73681 0.27931,-1.11724c0.04637,-0.36925 -0.04637,-0.74799 0,-1.11724c0.04749,-0.38041 0.18602,-0.7452 0.27931,-1.11724c0.09329,-0.37204 0.14468,-0.75804 0.27931,-1.11724c0.1458,-0.38935 0.30333,-0.78877 0.55861,-1.11724c0.40388,-0.51896 0.83234,-1.05802 1.39655,-1.39655c0.40667,-0.24412 0.92451,-0.23239 1.39655,-0.27931c0.46253,-0.04637 0.93122,0 1.39655,0c0.37204,0 0.7452,0 1.11724,0c0.37204,0 0.75637,0.0905 1.11724,0c0.17292,-0.04335 0.32643,-0.15221 0.47819,-0.26244zM281.5503,197.072l-0.05613,-0.01604c0.01476,0.0144 0.03302,0.02068 0.05613,0.01604z" fill="#ffffcc" stroke="#ffffcc" stroke-linecap="butt"/><path d="M280.99181,197.35123c-0.8519,0.36534 -1.10327,1.0312 -1.39655,1.67585c-0.17206,0.37875 -0.28769,0.80161 -0.55861,1.11724c-0.30277,0.35304 -0.70106,0.63012 -1.11724,0.83792c-0.343,0.1715 -0.75804,0.14468 -1.11724,0.27931c-0.38935,0.1458 -0.71391,0.45751 -1.11724,0.55861c-0.36087,0.0905 -0.77536,0.14636 -1.11724,0c-0.36254,-0.1553 -0.64911,-0.49158 -0.83792,-0.83792c-0.38041,-0.69771 -0.60442,-1.47475 -0.83792,-2.23447c-0.13965,-0.45304 -0.17652,-0.93345 -0.27931,-1.39655c-0.08324,-0.37427 -0.21619,-0.73905 -0.27931,-1.11724c-0.12345,-0.73961 -0.14133,-1.49765 -0.27931,-2.23447c-0.14133,-0.75358 -0.24132,-1.5362 -0.55861,-2.23447c-0.16312,-0.35919 -0.55861,-0.55861 -0.83792,-0.83792c-0.27931,-0.27931 -0.53851,-0.58096 -0.83792,-0.83792c-0.35304,-0.30277 -0.76418,-0.53515 -1.11724,-0.83792c-0.29941,-0.25696 -0.51672,-0.60834 -0.83792,-0.83792c-0.33852,-0.24188 -0.71727,-0.4441 -1.11724,-0.55861c-0.91222,-0.26032 -1.84958,-0.45919 -2.79309,-0.55861c-0.83234,-0.0877 -1.682,0.09218 -2.51377,0c-0.85246,-0.09496 -1.74679,-0.1754 -2.51377,-0.55861c-0.41617,-0.20781 -0.73347,-0.6642 -0.83792,-1.11724c-0.18825,-0.81559 -0.12737,-1.68647 0,-2.51377c0.06312,-0.41114 0.26422,-0.82285 0.55861,-1.11724c0.56588,-0.56588 1.28036,-0.96697 1.95516,-1.39655c0.35081,-0.22345 0.71391,-0.45751 1.11724,-0.55861c0.36087,-0.0905 0.74799,0.04637 1.11724,0c0.38041,-0.04749 0.73403,-0.27931 1.11724,-0.27931c0.47427,0 0.94072,0.14915 1.39655,0.27931c0.84854,0.24244 1.6915,0.51784 2.51377,0.83792c0.85356,0.33182 1.67194,0.75637 2.51377,1.11724c0.4603,0.19719 0.93904,0.35528 1.39655,0.55861c0.37986,0.1687 0.7452,0.3726 1.11724,0.55861c0.74408,0.37204 1.50212,0.72285 2.23447,1.11724c0.47761,0.25696 0.97703,0.49438 1.39655,0.83792c0.61057,0.49996 1.23789,1.01892 1.67585,1.67585c0.50834,0.76196 0.72732,1.68479 1.11724,2.51377c0.35416,0.75246 0.79715,1.46637 1.11724,2.23447c0.14747,0.35416 0.23183,0.73681 0.27931,1.11724c0.04637,0.36925 -0.03073,0.74631 0,1.11724c0.06201,0.74743 0.34132,1.48704 0.27931,2.23447c-0.03463,0.4145 -0.38657,0.73849 -0.55861,1.11724z" fill="#ffffcc" stroke="#ffffcc" stroke-linecap="round"/></g><g data-paper-data="{&quot;index&quot;:null}" stroke="none" stroke-width="1"><path d="" fill="#ffffcc" stroke-linecap="round"/><path d="" fill="#ff9400" stroke-linecap="butt"/></g><g data-paper-data="{&quot;index&quot;:null}" stroke="none" stroke-width="1"><path d="M282.38836,211.03735c2.47412,6.19545 4.07625,12.90276 5.11427,19.55819c-1.7269,0.06136 -3.37244,0.13141 -4.89463,0.17366c-3.16359,0.08781 -7.01841,0.10581 -10.85361,0.43084c-1.70385,0.00304 -3.36771,0.17653 -4.97544,0.50433c-2.97532,0.18362 -5.92442,0.43549 -8.72586,0.49563c-3.27663,0.07034 -6.96453,-0.12317 -10.69848,-0.08534c-3.26073,-0.68273 -6.6351,-1.07019 -9.9349,-1.25532c0.01423,-8.38692 2.30269,-15.85557 7.34687,-21.49226c7.17824,-8.02118 16.40659,-17.83888 27.14769,-17.46238c7.11623,0.2525 7.74244,12.33707 10.47408,19.13265z" data-paper-data="{&quot;origPos&quot;:null}" fill="#ffd833" stroke-linecap="round"/><g><path d="" fill="url(#color-3)" stroke-linecap="butt"/><path d="" fill="url(#color-4)" stroke-linecap="round"/><path d="M270.37809,230.72862c0.28463,0.11262 0.53758,0.27635 0.76137,0.47994c-1.48958,0.03864 -2.94674,0.20756 -4.36049,0.49581c-2.97532,0.18362 -5.92442,0.43549 -8.72586,0.49563c-3.27663,0.07034 -6.96453,-0.12317 -10.69848,-0.08534c-3.74264,-0.78363 -7.635,-1.17827 -11.39245,-1.32445c0.23665,-0.39608 0.57195,-0.70884 1.03852,-0.89952c5.32363,-2.16297 11.59969,-0.54745 17.24731,-0.41896c5.38619,0.12233 11.05113,-0.54186 16.13008,1.25689z" fill="url(#color-5)" stroke-linecap="round"/><path d="M268.92567,222.80184c1.76635,0.67984 3.02212,2.7227 2.9886,4.43542c0.01956,1.31922 -0.34551,2.80697 -1.03569,3.9794c-1.39891,0.05068 -2.7685,0.21631 -4.09962,0.4877c-2.97532,0.18362 -5.92442,0.43549 -8.72586,0.49563c-3.27663,0.07034 -6.96453,-0.12317 -10.69848,-0.08534c-3.83924,-0.80385 -7.83604,-1.19838 -11.68315,-1.33527c-0.492,-0.64407 -0.7922,-1.37307 -0.76561,-2.14558c-0.06983,-2.3892 1.84567,-4.90745 4.10584,-5.83197c4.64603,-1.90377 9.11998,-2.12834 14.95698,-2.12834c5.83699,0 10.26068,0.32679 14.95698,2.12834z" fill="url(#color-6)" stroke-linecap="round"/><path d="M268.11512,216.28891c1.81942,0.71112 2.85621,3.11597 2.82158,5.08286c0.03463,1.45464 -1.34012,2.95621 -2.82158,3.407c-4.56223,1.38984 -8.66807,1.76021 -14.21625,1.76021c-5.54818,0 -9.68029,-0.30835 -14.21625,-1.76021c-1.84009,-0.58822 -3.85222,-2.21938 -3.79915,-4.10528c-0.05307,-1.93281 1.89595,-3.74386 3.79915,-4.38459c4.51307,-1.52223 8.66807,-1.76021 14.21625,-1.76021c5.54818,0 9.77525,0.02234 14.21625,1.76021z" data-paper-data="{&quot;origPos&quot;:null}" fill="url(#color-7)" stroke-linecap="round"/></g></g><g stroke-width="0.5"><path d="M292.55331,217.63752c-3.17937,2.07632 -8.46008,3.4531 -8.46008,3.4531l-6.21557,-5.52496c0,0 5.10441,-3.50155 8.46008,-5.87025c3.25031,-2.29434 4.68069,-3.09463 7.80547,-6.24683c0.07692,2.3759 0.2036,4.75504 0.15679,7.12681c-0.03767,1.90842 -0.15191,3.95503 -0.27844,6.08534c-0.46778,0.31822 -0.95462,0.64136 -1.46824,0.97679z" data-paper-data="{&quot;origPos&quot;:null,&quot;index&quot;:null}" fill="#666666" stroke="#666666" stroke-linecap="round"/><path d="M291.71888,225.57108c0,0 0.74068,0.06272 1.8792,0.15682c-0.02801,1.58365 -0.01879,3.17182 0.04986,4.74568c-1.19318,-0.00359 -2.3725,0.01352 -3.52683,0.04167z" data-paper-data="{&quot;origPos&quot;:null,&quot;index&quot;:null,&quot;origRot&quot;:0}" fill="#666666" stroke="#666666" stroke-linecap="round"/><path d="M272.35271,192.25726c0.07217,0 0.13931,0.00503 0.20178,0.01439c5.25552,-3.33038 10.59869,-4.91357 16.76504,-3.3226c1.77507,0.45869 3.16144,1.26141 4.44961,2.19913c0.09045,1.86022 0.24536,3.71101 0.48278,5.52733c-0.43067,4.60878 0.13949,9.26836 0.04807,13.89987c-0.11559,5.85637 -0.95231,13.01418 -0.65205,19.89819c-0.37788,-0.00114 -0.75436,-0.0002 -1.1291,0.00251c-0.15553,-1.44375 -1.45604,-3.05783 -1.79065,-4.33906c-0.23022,-0.88155 -0.07485,-1.89828 -0.61799,-2.65176c-1.06331,-2.0067 -1.59083,-4.40389 -2.83358,-6.32247c-0.02915,-0.045 -1.65201,-0.65137 -1.92015,-0.84321c-2.5209,-1.80361 -4.68312,-3.216 -7.48744,-4.60699c-5.05133,-2.52567 -12.91801,-6.81489 -11.16079,-13.39467c0.7388,-2.2164 3.68138,-2.82488 4.29414,-5.27595l0.31437,0.25124c0,0 0,-1.03593 1.03593,-1.03593z" data-paper-data="{&quot;origPos&quot;:null}" fill="#ffd833" stroke="none" stroke-linecap="butt"/><path d="" data-paper-data="{&quot;origPos&quot;:null}" fill="#ffd833" stroke="none" stroke-linecap="butt"/><path d="M276.49642,215.393l3.45309,-5.52496c0,0 2.22511,-3.68211 5.17964,-6.56088c2.95453,-2.87877 5.10806,-4.48457 8.28743,-6.56089c0.24804,-0.16199 0.50992,-0.32602 0.78197,-0.49079c0.01731,0.14021 0.03509,0.28022 0.05337,0.42003c-0.36967,3.95599 -0.00195,7.94941 0.05183,11.93037c-0.81344,0.69865 -1.69771,1.53107 -2.78636,2.64339c-3.34326,3.41594 -7.76946,9.66867 -7.76946,9.66867z" data-paper-data="{&quot;origPos&quot;:null}" fill="#000000" stroke="#000000" stroke-linecap="round"/><path d="M288.92757,204.60207c0,-1.09658 0.88895,-1.98552 1.98553,-1.98552c1.09657,0 1.98552,0.88895 1.98552,1.98552c0,1.09658 -0.88895,1.98553 -1.98552,1.98553c-1.09657,0 -1.98553,-0.88896 -1.98553,-1.98553z" data-paper-data="{&quot;origPos&quot;:null}" fill="#ffffff" stroke="none" stroke-linecap="butt"/><path d="" data-paper-data="{&quot;origPos&quot;:null}" fill="#ffffff" stroke="none" stroke-linecap="butt"/><path d="M284.17956,209.86804c0,-1.00122 0.81165,-1.81287 1.81287,-1.81287c1.00122,0 1.81287,0.81165 1.81287,1.81287c0,1.00122 -0.81165,1.81287 -1.81287,1.81287c-1.00122,0 -1.81287,-0.81165 -1.81287,-1.81287z" data-paper-data="{&quot;origPos&quot;:null}" fill="#ffffff" stroke="none" stroke-linecap="butt"/><path d="" data-paper-data="{&quot;origPos&quot;:null}" fill="#ffffff" stroke="none" stroke-linecap="butt"/><path d="M280.64014,214.70238c0,-0.95354 0.77301,-1.72655 1.72655,-1.72655c0.95354,0 1.72655,0.77301 1.72655,1.72655c0,0.95354 -0.77301,1.72654 -1.72655,1.72654c-0.95354,0 -1.72655,-0.77301 -1.72655,-1.72654z" data-paper-data="{&quot;origPos&quot;:null}" fill="#ffffff" stroke="none" stroke-linecap="butt"/><path d="M278.22297,219.01874c0,-0.85819 0.69571,-1.55389 1.55389,-1.55389c0.85818,0 1.55389,0.6957 1.55389,1.55389c0,0.85819 -1.73164,1.72654 -2.58982,1.72654c-0.85818,0 -0.51796,-0.86836 -0.51796,-1.72654z" data-paper-data="{&quot;origPos&quot;:null}" fill="#ffffff" stroke="none" stroke-linecap="butt"/><path d="" data-paper-data="{&quot;origPos&quot;:null}" fill="#ffffff" stroke="none" stroke-linecap="butt"/><path d="M289.20529,224.5628l4.46002,-1.20633c-0.08957,2.3622 -0.12035,4.75576 -0.01736,7.11711c-1.5006,-0.00452 -2.97927,0.02371 -4.41387,0.06546z" data-paper-data="{&quot;origPos&quot;:null,&quot;origRot&quot;:0}" fill="#000000" stroke="#000000" stroke-linecap="round"/><path d="" data-paper-data="{&quot;origPos&quot;:null,&quot;origRot&quot;:0}" fill="#ffffff" stroke="none" stroke-linecap="butt"/><path d="" data-paper-data="{&quot;origPos&quot;:null,&quot;origRot&quot;:0}" fill="#ffffff" stroke="none" stroke-linecap="butt"/><path d="" data-paper-data="{&quot;origPos&quot;:null,&quot;origRot&quot;:0}" fill="#ffffff" stroke="none" stroke-linecap="butt"/><path d="" data-paper-data="{&quot;origPos&quot;:null,&quot;origRot&quot;:0}" fill="#ffffff" stroke="none" stroke-linecap="butt"/><path d="M293.19499,226.47959c0.11632,-0.14217 0.2506,-0.26099 0.39689,-0.35586c-0.01323,0.9683 -0.01187,1.9377 0.00916,2.9039c-0.05594,-0.03587 -0.11041,-0.07534 -0.16309,-0.11845c-0.738,-0.60382 -0.84678,-1.69159 -0.24296,-2.42958z" data-paper-data="{&quot;origPos&quot;:null,&quot;origRot&quot;:0}" fill="#ffffff" stroke="none" stroke-linecap="butt"/><path d="M287.55499,227.77167c0.54344,-0.66421 1.52243,-0.7621 2.18663,-0.21866c0.66421,0.54344 0.7621,1.52243 0.21866,2.18663c-0.54344,0.66421 -2.43353,0.23974 -3.09773,-0.30369c-0.66421,-0.54344 0.149,-1.00006 0.69244,-1.66427z" data-paper-data="{&quot;origPos&quot;:null,&quot;origRot&quot;:0}" fill="#ffffff" stroke="none" stroke-linecap="butt"/><path d="" data-paper-data="{&quot;origPos&quot;:null,&quot;origRot&quot;:0}" fill="#ffffff" stroke="none" stroke-linecap="butt"/></g><path d="" data-paper-data="{&quot;origRot&quot;:0}" fill="#ffffff" stroke="none" stroke-width="0.5" stroke-linecap="butt"/><path d="" data-paper-data="{&quot;origRot&quot;:0}" fill="#ffffff" stroke="none" stroke-width="0.5" stroke-linecap="butt"/><path d="" data-paper-data="{&quot;origRot&quot;:0}" fill="#ffffff" stroke="none" stroke-width="0.5" stroke-linecap="butt"/><path d="" data-paper-data="{&quot;origRot&quot;:0}" fill="#ffffff" stroke="none" stroke-width="0.5" stroke-linecap="butt"/><path d="" data-paper-data="{&quot;origRot&quot;:0,&quot;index&quot;:null}" fill="#ffffff" stroke="none" stroke-width="0.5" stroke-linecap="butt"/><path d="" data-paper-data="{&quot;origRot&quot;:0,&quot;index&quot;:null}" fill="#ffffff" stroke="none" stroke-width="0.5" stroke-linecap="butt"/><path d="" data-paper-data="{&quot;origRot&quot;:0,&quot;index&quot;:null}" fill="#ffffff" stroke="none" stroke-width="0.5" stroke-linecap="butt"/><path d="" data-paper-data="{&quot;origRot&quot;:0,&quot;index&quot;:null}" fill="#ffffff" stroke="none" stroke-width="0.5" stroke-linecap="butt"/><path d="M265.4903,186.62008c0.32093,-0.32741 0.72336,-0.79765 0.85949,-1.24225c0.12541,-0.40969 0.20256,-0.84714 0.41857,-1.21762c0.20959,-0.35953 0.55538,-0.62107 0.83262,-0.93115c0.2773,-0.31003 0.42125,-0.86832 0.83268,-0.9311c0.39561,-0.0601 0.79217,0.31562 1.00942,0.65135c0.2087,0.32166 0.19763,0.76056 0.15222,1.14153c-0.10725,0.89641 -0.31071,1.78959 -0.60431,2.64338c-0.12999,0.37847 -0.27009,0.88893 -0.65135,1.00948c-0.40913,0.12915 -0.82385,-0.24842 -1.21762,-0.41857c-0.39377,-0.17015 -0.98116,-0.20104 -1.1393,-0.59984z" fill="#ffffff" stroke="#ffffff" stroke-width="1" stroke-linecap="round"/><path d="M228.8888,178.30263c0.12178,0.44862 0.25045,0.88467 0.37588,1.30097c0,0 0.32355,1.07385 -0.66055,1.42692c-0.9841,0.35307 -1.30766,-0.72079 -1.30766,-0.72079c-0.08289,-0.27513 -0.1656,-0.55788 -0.24627,-0.84671l-0.04234,0.02672c0,0 -0.06593,-0.18812 -0.06936,-0.43593c-0.81435,-3.05777 -1.31505,-6.69725 0.57259,-9.21269l-0.06255,-0.08782l0.94045,-0.79755c0.14583,-0.12818 0.32527,-0.21478 0.52486,-0.2411c0.568,-0.0749 1.08409,0.36683 1.15272,0.98662c0.00923,0.08337 0.0099,0.16573 0.00276,0.24599l-0.03905,0.5514c0.21964,0.29463 -0.24594,1.7635 -0.32084,2.11472c-0.42015,1.97023 -1.00612,3.62266 -0.78011,5.66365l-0.04055,0.02558z" data-paper-data="{&quot;index&quot;:null,&quot;origRot&quot;:0}" fill="#009933" stroke="none" stroke-width="0.5" stroke-linecap="butt"/><g stroke-linecap="round"><path d="M263.24264,186.02398c3.24624,-0.90513 6.74659,2.03515 8.82381,4.62072c1.75433,2.18464 1.89583,5.54082 1.52866,8.36367c-0.31445,2.87113 -1.87047,5.52205 -3.48561,7.97236c-2.07454,3.14446 -4.27734,6.44572 -7.41872,8.51026c-3.82899,2.5144 -8.45898,4.42425 -13.10868,4.74428c-2.64002,0.18429 -4.7692,-2.21006 -7.27515,-3.33305c-0.62476,-0.27891 -1.28438,0.06045 -1.38403,-0.56242c-0.39701,-2.48841 -0.54778,-5.3162 0.26914,-7.83595c1.15126,-3.80781 2.6222,-7.76835 5.50082,-10.7135c4.72708,-4.83511 10.03651,-9.94948 16.54977,-11.76639z" data-paper-data="{&quot;origPos&quot;:null}" fill="#000000" stroke="none" stroke-width="1"/><path d="M266.0488,185.89957c3.00983,0.64911 4.53094,4.89125 4.6086,7.9603c0.17708,4.15946 -1.35409,8.58651 -3.91032,11.87062c-3.51203,4.51084 -8.60941,7.83517 -13.68613,10.61373c-2.2166,1.15578 -5.0499,1.47252 -7.54133,0.83792c-1.74959,-0.44466 -3.52599,-2.04956 -3.83826,-3.82932c-0.53683,-3.05228 0.52063,-6.22746 1.46414,-9.15853c0.87647,-2.39312 2.47802,-4.48067 3.91032,-6.56376c1.8021,-2.62103 3.14166,-5.92191 5.86548,-7.54133c3.94272,-2.34451 8.64181,-5.15548 13.12751,-4.18963z" data-paper-data="{&quot;origPos&quot;:null}" fill="#666666" stroke="none" stroke-width="1"/><path d="M249.18401,219.26757l-2.41716,4.31637l-1.38124,0.86327l-0.51796,-1.03593l0.34532,-5.17964z" data-paper-data="{&quot;origPos&quot;:null}" fill="#ffffff" stroke="#d40000" stroke-width="0"/><path d="M259.27098,216.18087l0.33097,4.936l-0.68604,1.4773l-0.99947,-0.58522l-2.53815,-4.52832z" data-paper-data="{&quot;origPos&quot;:null,&quot;origRot&quot;:0}" fill="#ffffff" stroke="#d40000" stroke-width="0"/><path d="M267.83504,209.573l2.1011,4.47873l-0.10265,1.62559l-1.14377,-0.18225l-4.0095,-3.29726z" data-paper-data="{&quot;origPos&quot;:null,&quot;origRot&quot;:0}" fill="#ffffff" stroke="#d40000" stroke-width="0"/><path d="M270.73344,201.34733l4.25538,2.52297l0.82892,1.40213l-1.04839,0.49224l-5.16954,-0.47307z" data-paper-data="{&quot;origPos&quot;:null,&quot;origRot&quot;:0}" fill="#ffffff" stroke="#d40000" stroke-width="0"/><path d="M271.97544,191.68468l4.87673,0.83147l1.27612,1.01222l-0.80254,0.83507l-4.99601,1.40987z" data-paper-data="{&quot;origPos&quot;:null,&quot;origRot&quot;:0}" fill="#ffffff" stroke="#d40000" stroke-width="0"/></g><g><path d="M212.57883,162.7032c-0.24479,-0.31629 -0.93133,-1.44219 -1.13071,-1.85736c-0.171,-0.35606 -0.28723,-1.13899 -0.41432,-1.51221c-0.14122,-0.4155 -0.2654,-0.84748 -0.28864,-1.28549c-0.02251,-0.42823 0.05156,-0.86166 0.15289,-1.27845c0.12066,-0.49695 0.31456,-0.97657 0.50901,-1.44939c0.14245,-0.34667 0.32143,-0.67933 0.50192,-1.00785c0.2287,-0.41527 0.45522,-0.83603 0.72626,-1.2251c0.22691,-0.32589 0.51046,-0.61057 0.76547,-0.91535c0.25506,-0.30473 0.48661,-0.63197 0.76547,-0.91529c0.33601,-0.34142 0.69643,-0.66128 1.07528,-0.9545c0.36762,-0.28478 0.75815,-0.54376 1.16075,-0.77653c0.34165,-0.19735 0.69978,-0.37237 1.06824,-0.51292c0.37399,-0.14283 0.75665,-0.28495 1.15371,-0.33495c0.43745,-0.05542 1.19656,-0.18373 1.3247,0.02111c0.10871,0.17435 -0.58873,0.46941 -0.85094,0.73732c-0.27802,0.28423 -0.50678,0.61358 -0.76547,0.91529c-0.32607,0.38048 -0.68922,0.7319 -0.98982,1.1326c-0.25719,0.34305 -0.49148,0.70839 -0.67995,1.09333c-0.16346,0.33394 -0.26926,0.69586 -0.3702,1.05411c-0.10184,0.36093 -0.1987,0.72772 -0.23842,1.10043c-0.04692,0.43879 -0.05418,0.88445 -0.02111,1.3247c0.02793,0.37394 0.07927,0.75369 0.20317,1.10746c0.27205,0.77637 0.60442,1.53609 0.97965,2.26821c0.21227,0.41376 0.45265,0.82681 0.77648,1.16075c0.55269,0.57068 1.27789,0.96032 1.83064,1.53095c0.32378,0.33394 0.57504,0.74134 0.77648,1.16081c0.17306,0.36031 0.34148,0.75397 0.33495,1.15371c-0.00581,0.37215 -0.09815,0.80033 -0.3702,1.05411c-0.57928,0.54018 -1.19033,1.23086 -1.94737,1.46297c-0.3583,0.10982 -1.07496,-0.12481 -1.41114,-0.29022c-0.76213,-0.37471 -2.46032,-2.02905 -2.76309,-2.28636c-0.19049,-0.16223 -1.50365,-1.21079 -1.86369,-1.67589z" data-paper-data="{&quot;origPos&quot;:null}" fill="#ffff99" stroke="#ffff99" stroke-width="1" stroke-linecap="round"/><path d="M216.81702,160.9361c0.99551,-0.50829 2.16592,-0.62772 3.27489,-0.2383c1.10891,0.38942 1.94768,1.21443 2.4068,2.23358c0.45991,1.01881 0.53985,2.23101 0.13134,3.39422c-0.40846,1.1632 -1.22879,2.05928 -2.22464,2.56684c-0.99557,0.50835 -2.16598,0.62778 -3.27489,0.23837c-1.10896,-0.38942 -1.94767,-1.21443 -2.40686,-2.23358c-0.45986,-1.01881 -0.53979,-2.23101 -0.13134,-3.39422c0.40852,-1.16326 1.2288,-2.05929 2.2247,-2.56691z" data-paper-data="{&quot;origPos&quot;:null}" fill="#ff9400" stroke="none" stroke-width="1" stroke-linecap="butt"/><path d="M257.29094,160.13976c3.04303,0.08489 6.67483,2.22204 8.83098,4.16353c0.43614,0.39272 2.40484,1.46074 2.46802,2.04468l0.51796,0.51796c0.18746,0.18747 0.30341,0.44645 0.30341,0.73251c0,0.57212 -0.4638,1.03593 -1.03593,1.03593c-0.369,0 -0.79483,0 -1.24311,0c-1.03419,0 -2.18793,0 -3.0392,0c1.21846,1.50171 2.28947,3.18068 3.37344,4.7458c0.2895,0.41801 1.7724,2.14549 1.40672,2.61332l0.09941,0.49699c0.01592,0.07217 0.0243,0.14717 0.0243,0.22413c0,0.57212 -0.4638,1.03593 -1.03593,1.03593c-0.28606,0 -0.54504,-0.11594 -0.73251,-0.30341l-0.55708,-0.55708c-0.24801,-0.17269 -0.76227,-0.37452 -1.27973,-0.55176c1.0428,2.12414 1.82718,4.70111 -1.16002,5.14159c-0.06915,0.01019 -1.11718,-1.33995 -1.24311,-1.4503c-0.91929,-0.80548 -1.88085,-1.62027 -2.87382,-2.35768c-0.12084,0.04909 -0.26622,0.07864 -0.44115,0.07864c-0.59196,0 -0.82874,0 -0.82874,0c-1.5214,0 -3.67396,0.35122 -5.0834,-0.30341c-1.72858,-0.80287 -1.54654,-4.50449 -1.54654,-6.11934c0.09574,-3.06524 -2.07937,-5.82783 -1.7553,-8.95789c0.16245,-1.56913 3.61997,-1.50499 3.61997,-1.50499c0.65764,0 1.28742,0.04468 1.92487,-0.13016c0,0 1.10118,-0.59499 1.2865,-0.59499z" data-paper-data="{&quot;origPos&quot;:null}" fill="#ff4d12" stroke="none" stroke-width="0.5" stroke-linecap="butt"/><path d="M256.38193,160.15904c5.20464,7.67372 2.79812,18.22433 5.47724,26.99741c0.69045,2.25961 4.69182,3.0562 4.32928,5.30686c-0.79324,4.89405 -3.69246,10.15678 -7.68098,13.40682c-3.60643,2.93777 -9.84619,6.70453 -13.68613,3.91032c-4.82311,-3.63771 0.72173,-14.99217 -4.74825,-17.59645c-6.29841,-2.9981 -13.73696,7.14248 -20.21916,5.49065c-3.03217,-0.77536 1.60714,-6.4794 1.08651,-9.68029c-0.27819,-1.68535 -2.52607,-2.42663 -3.49136,-3.91032c-1.28929,-2.17917 -2.94839,-4.38012 -3.21205,-6.98272c-0.4441,-4.41978 0.0067,-9.0563 1.39655,-13.26717c0.59436,-1.77473 2.58472,-2.82996 4.22035,-3.67514c5.87163,-3.03441 11.13603,-7.77651 18.264,-7.77651c7.12795,0 14.5531,2.30654 18.264,7.77651z" data-paper-data="{&quot;origPos&quot;:null}" fill="#009933" stroke="none" stroke-width="1" stroke-linecap="round"/><path d="M243.47856,141.07868c2.99477,0 9.42203,1.27732 8.09706,5.54086c-0.00184,0.00595 -0.63169,0.21531 -1.28971,0.42795c1.58571,0.88546 3.06812,1.87301 4.45135,3.10573c0.35439,0.31582 1.57381,1.54835 1.47744,2.06458l0.30146,0.60291c0.07579,0.14395 0.11869,0.30793 0.11869,0.48191c0,0.57212 -0.4638,1.03593 -1.03593,1.03593c-0.07696,0 -0.15196,-0.00839 -0.22413,-0.02431l-0.49699,-0.0994c-0.62734,-0.12547 -1.15397,-0.16698 -1.58566,-0.23501c0.77396,1.17523 1.34369,2.53523 1.47804,3.88088c0.01933,0.19369 0.10923,1.55667 0,1.65749v0.12961c-0.09447,-0.00778 -0.16379,0.00057 -0.16379,0.00057l-0.31078,0.10359c-0.41273,0.21625 -1.12625,0.07701 -1.59729,0.07701c0,0 -0.1617,0 -0.30441,0.09035l-0.16951,-0.28252l0.00174,-0.00105c-0.99418,-1.45253 -3.33942,-3.55278 -4.39266,-3.76342c-4.6102,-0.98059 -8.72544,0.3076 -12.90422,2.39698c-3.2913,1.62684 -6.52463,2.19263 -10.07525,2.27414c-0.07672,0.01066 -0.12575,0.01066 -0.12575,0.01066l-0.07157,-0.00664c-0.25074,0.00449 -0.50309,0.00664 -0.75717,0.00664c0,0 -0.65419,0 -0.92284,-0.51986c-3.08302,-1.67894 -3.91534,-4.72239 -3.31037,-8.35225c0.85001,-4.28577 1.73513,-10.04487 5.73044,-12.70841c0.74403,0.14918 1.54772,-0.74352 2.23212,-0.41571c0.26525,0.12705 0.28604,1.73928 0.16493,2.3743c0.16584,-0.30983 0.34456,-0.61338 0.56022,-0.88947c0.617,-0.78986 0.89215,-1.28643 1.47218,-2.10383c0.84829,-1.19545 1.42907,-1.87392 2.77514,-2.45427c0.91591,-0.39489 2.07186,0.61897 2.07186,1.55389c0,0.65359 0.09838,1.28935 0.08681,1.8229c0.52955,-0.57485 1.12751,-1.17109 1.72205,-1.60646c1.6452,-1.20477 3.36703,-1.94578 5.07447,-1.9144l-0.03343,-0.12814l1.98203,-0.51705c0.09031,-0.02571 0.18566,-0.03948 0.28422,-0.03948c0.57213,0 1.03593,0.46381 1.03593,1.03593c0,0.23689 -0.0795,0.45519 -0.21329,0.6297l-0.91401,1.21943l-0.01569,-0.01176c-1.43198,1.84063 -2.48972,3.54945 -0.20372,3.54945z" data-paper-data="{&quot;origPos&quot;:null}" fill="#ff4d12" stroke="none" stroke-width="0.5" stroke-linecap="butt"/><g data-paper-data="{&quot;origPos&quot;:null}" stroke-width="1"><path d="M256.52951,157.1377c0.9959,0.50762 1.81618,1.40364 2.2247,2.56691c0.40846,1.16321 0.32852,2.3754 -0.13134,3.39422c-0.45919,1.01915 -1.29789,1.84416 -2.40686,2.23358c-1.10891,0.38942 -2.27932,0.26998 -3.27489,-0.23837c-0.99585,-0.50756 -1.81618,-1.40364 -2.22464,-2.56684c-0.40852,-1.16321 -0.32858,-2.3754 0.13134,-3.39422c0.45912,-1.01915 1.29789,-1.84416 2.4068,-2.23358c1.10897,-0.38942 2.27938,-0.26998 3.27489,0.2383z" fill="#ff9400" stroke="none" stroke-linecap="butt"/><path d="M258.90403,160.58069c-0.30277,0.2573 -2.00096,1.91166 -2.76309,2.28636c-0.33618,0.16541 -1.05285,0.40003 -1.41114,0.29022c-0.75704,-0.23211 -1.36809,-0.92278 -1.94737,-1.46297c-0.27205,-0.25378 -0.36439,-0.68196 -0.3702,-1.05411c-0.00654,-0.39974 0.16188,-0.79341 0.33495,-1.15371c0.20144,-0.41947 0.4527,-0.82687 0.77648,-1.16081c0.55275,-0.57063 1.27795,-0.96026 1.83064,-1.53095c0.32383,-0.33394 0.56421,-0.74699 0.77648,-1.16075c0.37522,-0.73212 0.7076,-1.49184 0.97965,-2.26821c0.1239,-0.35377 0.17524,-0.73352 0.20317,-1.10746c0.03307,-0.44025 0.0258,-0.88592 -0.02111,-1.3247c-0.03972,-0.37271 -0.13658,-0.7395 -0.23842,-1.10043c-0.10094,-0.35824 -0.20674,-0.72017 -0.3702,-1.05411c-0.18848,-0.38494 -0.42276,-0.75028 -0.67995,-1.09333c-0.3006,-0.4007 -0.66375,-0.75213 -0.98982,-1.1326c-0.25869,-0.30171 -0.48745,-0.63107 -0.76547,-0.91529c-0.26221,-0.26791 -0.95965,-0.56298 -0.85094,-0.73732c0.12814,-0.20484 0.88725,-0.07653 1.3247,-0.02111c0.39706,0.04999 0.77972,0.19211 1.15371,0.33495c0.36846,0.14054 0.72659,0.31556 1.06824,0.51292c0.40259,0.23277 0.79313,0.49176 1.16075,0.77653c0.37885,0.29322 0.73927,0.61308 1.07528,0.9545c0.27886,0.28333 0.51041,0.61057 0.76547,0.91529c0.255,0.30478 0.53856,0.58945 0.76547,0.91535c0.27104,0.38907 0.49756,0.80983 0.72626,1.2251c0.18049,0.32852 0.35947,0.66118 0.50192,1.00785c0.19445,0.47282 0.38835,0.95244 0.50901,1.44939c0.10133,0.41679 0.1754,0.85022 0.15289,1.27845c-0.02324,0.43801 -0.14742,0.86999 -0.28864,1.28549c-0.12709,0.37321 -0.24332,1.15615 -0.41432,1.51221c-0.19937,0.41517 -0.88593,1.54107 -1.13072,1.85736c-0.36003,0.4651 -1.6732,1.51367 -1.86369,1.67589z" data-paper-data="{&quot;origPos&quot;:null}" fill="#ffff99" stroke="#ffff99" stroke-linecap="round"/></g><path d="M210.96581,192.67242l0.04061,-0.18768c1.29322,0 2.54478,0.14798 3.84773,0.14798c2.31517,0.08493 4.62051,0.14799 6.95551,0.14799c2.25129,0 4.47177,-0.04816 6.69989,-0.1666c3.08747,-0.00277 6.70334,-1.30981 9.78982,-1.82422c3.41723,-0.56308 6.58286,-1.53883 9.97287,-2.21684c4.1758,-0.83517 4.39329,0.3584 4.39329,4.35564c0,1.64513 0.02357,3.33477 -0.08589,5.00366c-0.13969,0.20954 -0.27938,0.41907 -0.41907,0.62861c-1.44113,2.20336 -3.20712,5.33801 -5.35989,2.65374c-1.47355,-1.83736 -3.26195,-3.34304 -4.83924,-5.08397c-0.57,-0.62914 -1.59349,-2.01917 -2.41537,-2.22465c-1.72596,0.78715 -2.4767,6.43573 -3.11704,8.35673c-0.21361,0.65123 -1.43823,3.29856 -1.28519,4.21411c-0.15165,-0.06907 -0.29942,-0.14261 -0.37695,-0.21319c-0.59173,-0.53874 -1.06367,-1.22014 -1.56577,-1.83862c-1.56937,-1.92519 -3.49419,-5.5521 -5.72367,-7.0178l-0.13099,-0.52401c-0.05235,-0.23066 -0.25863,-0.40285 -0.50513,-0.40285c-0.2465,0 -0.45278,0.17219 -0.50513,0.40285c-0.02467,0.09866 -0.19469,0.77877 -0.21936,0.87743c-0.01013,0.55118 -0.8975,1.85791 -1.19463,2.33255c-1.0919,1.74417 -1.78072,4.01618 -3.25681,5.49226c0.17367,0.08459 -0.43977,0.19722 -0.57637,0.06062c-0.43309,-0.43309 -0.79723,-1.22145 -1.11553,-1.75549c-0.96964,-1.62686 -1.72051,-3.3937 -2.77318,-4.97271c-2.26975,-3.40462 -3.38879,1.05026 -4.16947,3.39228c-0.08534,0.25779 -1.04047,2.89558 -1.33677,3.81677c-0.2494,-0.38219 -0.65576,-0.91314 -0.84865,-1.20249c-0.64896,-0.93299 -1.35416,-2.26741 -1.83663,-3.6102c0.00327,-2.63908 0.04708,-5.10878 0.61566,-7.6952l-0.00849,-0.00212l0.14536,-0.58145c0.01493,-0.06575 0.04236,-0.12675 0.07966,-0.18037c0.08293,-0.12975 0.24374,-0.2762 0.53314,-0.21128c0.01165,0.00247 0.02316,0.00532 0.03452,0.00856l-0.07784,-0.11306c0,0 0.39186,-0.19594 0.63499,0.13299z" data-paper-data="{&quot;origPos&quot;:null}" fill="#ffffff" stroke="#939393" stroke-width="1" stroke-linecap="butt"/><path d="M252.03575,200.61728c-0.63963,2.52141 -0.76766,7.11041 -3.8839,7.11041c-2.67215,0 -5.4962,0.13505 -8.14538,0.51351c-2.6326,0.3717 -5.3232,0.22644 -7.98551,0.22644c-2.62741,0 -5.2715,0.14799 -7.91745,0.14799c-3.62655,0 -7.36448,0.29995 -10.92796,-0.49193c-0.96886,-0.24643 -2.08135,0.01215 -2.9284,-0.68233c-0.78927,-0.6471 -1.07946,-2.83505 -1.18324,-4.54931c0.30099,0.57059 0.61563,1.10314 0.91957,1.5712c0.24631,0.36946 1.30244,2.35513 1.93324,1.91706c1.29416,-0.89874 1.62127,-3.35998 2.09691,-4.7784c0.36003,-1.08008 0.95949,-2.08323 1.26903,-3.14595c0.07353,-0.25244 0.29769,-0.71897 0.45528,-1.07323c0.07003,0.23538 0.26497,0.57072 0.60044,1.07394c1.10488,1.65732 3.32563,8.56225 6.05953,6.82547c1.82609,-1.82609 3.76357,-5.4778 4.62608,-8.00922c0.59387,0.7638 1.41793,1.76108 1.51807,1.88797c1.28462,1.6278 2.55204,3.27071 3.85479,4.88124c0.36581,0.45059 1.83316,2.71453 2.59257,2.56264c1.36997,-0.274 1.98147,-3.74486 2.42239,-5.05027c0.60355,-1.81064 1.22095,-3.58401 1.69124,-5.44539c0.15125,-0.59864 0.30017,-1.19785 0.44993,-1.79687c0.01725,-0.06901 0.04281,-0.16303 0.07001,-0.26657c0.52881,0.38804 1.15903,1.28891 1.54264,1.71233c1.57237,1.73551 3.35878,3.23829 4.82692,5.0689c2.43501,3.0362 4.65476,0.64906 6.35144,-1.74153c-0.08105,0.51623 -0.18216,1.02755 -0.30824,1.5319z" data-paper-data="{&quot;origPos&quot;:null}" fill="#ffffff" stroke="#939393" stroke-width="1" stroke-linecap="butt"/><g data-paper-data="{&quot;origPos&quot;:null}" stroke="none" stroke-linecap="butt"><path d="M215.63942,168.64733c0.63076,-0.82176 3.43621,-0.24765 4.56852,0.14386c1.96965,0.73713 0.91331,2.22135 2.63271,3.43236c1.24992,0.88035 4.12405,0.52636 4.90721,1.83936c0.50058,0.83925 0.50799,1.44598 0.5039,2.42317c-0.00545,1.29807 -0.13377,2.02931 -0.45461,3.28711c-0.35516,1.29316 -0.89578,2.84888 -1.94196,3.73327c-0.58865,0.4976 -3.32429,0.55431 -3.90292,0.51325c-3.25584,-0.23107 -3.4032,-0.56767 -5.23578,-3.83421c-1.32261,-2.86257 -1.48852,-11.00211 -1.07704,-11.53818z" data-paper-data="{&quot;origPos&quot;:null,&quot;origRot&quot;:0}" fill="#ffffff" stroke-width="0.5"/><path d="M222.81927,175.74019c0.19272,0 0.36701,0.21115 0.49382,0.55247c0.12625,0.34132 0.20445,0.81279 0.20445,1.33286c0,0.52008 -0.0782,0.99155 -0.20445,1.33286c-0.12681,0.34132 -0.30109,0.55247 -0.49382,0.55247c-0.19272,0 -0.36701,-0.21115 -0.49382,-0.55247c-0.12625,-0.34132 -0.20445,-0.81279 -0.20445,-1.33286c0,-0.52008 0.0782,-0.99155 0.20445,-1.33286c0.12681,-0.34132 0.30109,-0.55247 0.49382,-0.55247z" data-paper-data="{&quot;origPos&quot;:null}" fill="#000000" stroke-width="1"/></g><path d="M248.668,180.89628c1.9539,0.37834 3.45746,1.00108 4.93866,2.48227c5.8612,6.32698 4.74013,17.27046 1.59298,24.61379c-3.65404,8.47453 -17.55177,15.08482 -26.51124,11.50103c-0.86803,-0.36213 -2.78059,-0.97335 -3.54926,-1.70854c-0.25479,0.37268 -0.52999,0.7294 -0.85552,1.03844c-0.95259,0.9043 -3.19074,0.79977 -4.33162,0.79977c-5.1605,0 -11.3997,-1.34445 -12.40648,-7.3851c-1.26714,-11.97746 14.45627,-5.74273 21.52306,-4.85938c4.60751,0.63215 9.26947,-0.84722 13.21871,-2.97521c1.51104,-0.8142 3.59716,-2.58028 4.66506,-4.06748c0.79848,-1.112 1.37402,-2.4141 2.13747,-3.55925c0.53726,-0.04219 0.66184,-5.08775 0.51581,-5.91793c-0.03347,-0.19026 -0.26301,-0.41745 -0.3666,-0.5998c-0.21623,-0.0086 -0.38071,-0.01464 -0.41462,-0.01181c-1.09397,0.09127 -2.21108,0.32669 -3.19701,0.82173c-3.25186,1.63277 -6.15665,2.26198 -9.64951,3.42627c-8.20694,2.73565 -17.24215,4.57637 -25.55568,0.4196c-4.36682,-2.96092 -5.23603,-6.98462 -0.81259,-10.42751c3.46335,-2.69562 9.29925,-2.38664 13.44758,-1.79402c7.61817,1.09421 24.86394,-3.05809 25.61081,-1.79686z" data-paper-data="{&quot;origPos&quot;:null}" fill="#ffd499" stroke="none" stroke-width="0.5" stroke-linecap="butt"/><path d="M218.1637,190.47819c-0.92657,-0.4141 -0.46328,-1.24229 -0.46328,-1.24229l0.17265,-0.77162c0.38444,-0.68723 0.79136,-1.26431 1.32623,-1.86191c0,0 0.64714,-0.72304 1.45606,-0.14461c0.80893,0.57843 0.16178,1.30148 0.16178,1.30148c-0.45739,0.51104 -0.76561,0.95163 -1.09095,1.53323l-0.17265,0.77162c0,0 -0.46329,0.82819 -1.38984,0.41409z" data-paper-data="{&quot;origPos&quot;:null}" fill="#000000" stroke="none" stroke-width="0.5" stroke-linecap="butt"/><path d="M223.23553,190.83941c-0.95624,-0.39843 -0.58434,-1.28384 -0.58434,-1.28384l0.17265,-0.51796c0.20896,-0.59679 0.46472,-1.12536 0.74682,-1.68958c0,0 0.46328,-0.92657 1.38984,-0.46328c0.92657,0.46328 0.46328,1.38984 0.46328,1.38984c-0.2352,0.4704 -0.48098,0.91455 -0.63441,1.41821l-0.17266,0.51796c0,0 -0.42496,1.02708 -1.38119,0.62865z" data-paper-data="{&quot;origPos&quot;:null}" fill="#000000" stroke="none" stroke-width="0.5" stroke-linecap="butt"/><path d="M227.5696,174.76714c-3.88121,0.5768 -7.67591,-1.52478 -10.72218,-3.74033c-2.98145,-2.20994 -3.77182,-2.69355 -7.43367,-2.14933l-0.51234,0.07614c-0.56592,0.08411 -1.09285,-0.30648 -1.17695,-0.87239c-0.03484,-0.23441 -0.00999,-0.60851 0.09679,-0.80085l0.79669,-0.60027c0.04967,-0.23662 0.63685,-0.08395 0.75963,-0.27744c-0.09825,-0.07363 -1.09619,-0.84719 -1.12998,-0.94274c-0.12711,-0.3593 -0.2487,-1.53565 0.55782,-2.03525c0.36623,-0.22687 1.08885,-0.70237 1.04118,-0.72511l-1.15044,-0.64166c-0.26655,-0.15214 -0.46313,-0.42068 -0.51175,-0.74781c-0.07486,-0.50368 0.22632,-0.97649 0.69246,-1.13368c0,0 2.903,-0.27727 3.48833,-0.30516c3.07788,-0.14671 6.5688,0.5117 8.37444,3.26848c2.12157,3.63726 2.48731,6.76436 7.18555,7.87917c1.97152,0.4678 1.58841,1.89438 1.03329,3.22763l-0.36419,0.36832c0,0 0.02747,-0.06703 0.06695,-0.16125c-0.1108,0.05239 -1.09162,0.31354 -1.09162,0.31354z" data-paper-data="{&quot;origPos&quot;:null,&quot;index&quot;:null,&quot;origRot&quot;:0}" fill="#ff4d12" stroke="none" stroke-width="0.5" stroke-linecap="butt"/><g data-paper-data="{&quot;origPos&quot;:null}" stroke="none" stroke-width="1"><path d="M242.44722,165.37038c2.80482,0.93848 2.93386,5.5454 3.0724,8.44908c0.11396,2.4149 -0.87647,5.10409 -2.292,6.86149c-1.41609,1.75685 -3.37125,2.84448 -5.52864,2.84448c-2.15738,0 -4.11254,-1.08763 -5.52864,-2.84448c-1.41553,-1.75741 -1.93058,-4.48011 -2.292,-6.86149c-0.14859,-0.98485 0.16535,-2.00543 0.83792,-2.58361c0.73235,-0.8005 1.98868,-0.6709 2.93274,-1.11724c2.9886,-1.41275 5.67555,-5.65768 8.79822,-4.74825z" data-paper-data="{&quot;origPos&quot;:null}" fill="#ffffff" stroke-linecap="round"/><path d="M241.87161,174.30211c0.12625,0.34132 0.20445,0.81279 0.20445,1.33286c0,0.52008 -0.0782,0.99155 -0.20445,1.33286c-0.12681,0.34132 -0.30109,0.55247 -0.49382,0.55247c-0.19272,0 -0.36701,-0.21115 -0.49382,-0.55247c-0.12625,-0.34132 -0.20445,-0.81279 -0.20445,-1.33286c0,-0.52008 0.0782,-0.99155 0.20445,-1.33286c0.12681,-0.34132 0.30109,-0.55247 0.49382,-0.55247c0.19272,0 0.36701,0.21115 0.49382,0.55247z" data-paper-data="{&quot;origPos&quot;:null}" fill="#000000" stroke-linecap="butt"/></g><path d="M229.50387,173.85061c0.05289,0.08739 0.08992,0.14966 0.08992,0.14966l-0.41437,-0.31078c-0.74507,-1.23716 -1.33375,-2.59193 0.54759,-3.34447c4.48333,-1.79333 4.38541,-4.94023 5.94925,-8.84984c1.38077,-2.99227 4.73698,-4.15668 7.80299,-4.46401c0.58306,-0.05845 3.4953,-0.21095 3.4953,-0.21095c0.48418,0.08696 0.85158,0.51036 0.85158,1.01957c0,0.33071 -0.15497,0.62523 -0.39626,0.8149l-1.04363,0.80381c-0.04381,0.0295 0.74086,0.39362 1.13647,0.56418c0.87118,0.37561 0.92385,1.55705 0.85094,1.93113c-0.01938,0.09947 -0.89277,1.01134 -0.97913,1.09861c0.1499,0.17334 0.70824,-0.06399 0.79216,0.16275l0.87627,0.47664c0.13388,0.17454 0.21346,0.54093 0.21346,0.77791c0,0.57212 -0.4638,1.03593 -1.03593,1.03593h-0.51796c-3.70208,0 -4.41275,0.59454 -7.03696,3.21874c-2.68749,2.63929 -6.13203,5.27587 -10.05586,5.27587c0,0 -1.00856,-0.11413 -1.12585,-0.14966z" data-paper-data="{&quot;origPos&quot;:null}" fill="#ff4d12" stroke="none" stroke-width="0.5" stroke-linecap="butt"/></g><path d="M187,126.375h106v106h-106z" data-paper-data="{&quot;origPos&quot;:null}" fill="none" stroke="#995900" stroke-width="9" stroke-linecap="butt"/></g></g></svg>