<svg version="1.1" xmlns="http://www.w3.org/2000/svg" xmlns:xlink="http://www.w3.org/1999/xlink" width="191.08913" height="215.00506" viewBox="0,0,191.08913,215.00506"><defs><linearGradient x1="269.48878" y1="184.3899" x2="282.25891" y2="214.05055" gradientUnits="userSpaceOnUse" id="color-1"><stop offset="0" stop-color="#3b2f49"/><stop offset="1" stop-color="#342842"/></linearGradient><linearGradient x1="308.70603" y1="237.18237" x2="316.38036" y2="255.00721" gradientUnits="userSpaceOnUse" id="color-2"><stop offset="0" stop-color="#ff7f01"/><stop offset="1" stop-color="#e57300"/></linearGradient><linearGradient x1="232.3304" y1="158.24048" x2="254.4861" y2="209.70056" gradientUnits="userSpaceOnUse" id="color-3"><stop offset="0" stop-color="#4c405a"/><stop offset="1" stop-color="#342842"/></linearGradient><linearGradient x1="258.04089" y1="215.99077" x2="229.97166" y2="231.95788" gradientUnits="userSpaceOnUse" id="color-4"><stop offset="0" stop-color="#3b2f49"/><stop offset="1" stop-color="#342842"/></linearGradient><linearGradient x1="209.90151" y1="260.79744" x2="193.03304" y2="270.39302" gradientUnits="userSpaceOnUse" id="color-5"><stop offset="0" stop-color="#ff7f01"/><stop offset="1" stop-color="#e57300"/></linearGradient><radialGradient cx="241.08188" cy="118.62303" r="16.80982" gradientUnits="userSpaceOnUse" id="color-6"><stop offset="0" stop-color="#fbc5fc"/><stop offset="1" stop-color="#f991fd"/></radialGradient></defs><g transform="translate(-144.45543,-72.49747)"><g data-paper-data="{&quot;isPaintingLayer&quot;:true}" fill-rule="nonzero" stroke-linejoin="miter" stroke-miterlimit="10" stroke-dasharray="" stroke-dashoffset="0" style="mix-blend-mode: normal"><g data-paper-data="{&quot;index&quot;:null}" stroke="none" stroke-width="0" stroke-linecap="butt"><path d="M244.39913,171.50593c-2.74751,-0.05153 -10.10356,-5.88821 -18.54987,-9.85106c-4.13848,-1.94171 -17.79498,-7.81583 -17.25725,-9.07016c1.20285,-2.80585 2.69226,-10.23608 3.67381,-9.95633c10.18756,2.90365 23.28512,4.9221 33.96352,9.02726c3.43589,1.32087 10.04826,8.5301 7.90379,13.19625c-2.14446,4.66614 -4.61733,6.75004 -9.73399,6.65406z" fill="#7100f3"/><g><path d="M187.13263,163.54881c6.46464,7.02547 8.71608,9.14205 3.09949,17.26453c-4.57203,3.92065 -11.49804,5.44506 -18.03972,-1.91985c-6.88027,-8.61151 -7.6833,-13.64409 -3.54899,-18.34719c4.49031,-4.35161 11.45349,-6.30827 18.48922,3.00251z" data-paper-data="{&quot;origRot&quot;:0}" fill="#ffffff"/><path d="M192.6536,160.69439c4.63242,4.74415 8.61284,10.04385 6.07604,12.67923c-4.34437,4.51321 -4.12668,1.5862 -12.96859,-7.03244c-7.76162,-7.56563 -9.21033,-8.56289 -5.45593,-12.86324c3.35605,-3.84407 7.71607,2.47226 12.34849,7.21644z" data-paper-data="{&quot;origRot&quot;:0}" fill="#ffffff"/><path d="M199.4393,165.34078c-5.39234,6.19443 -12.7575,-4.20542 -14.387,-7.59402c-1.6295,-3.38861 7.43113,-7.35067 14.83253,-10.90983c7.40139,-3.55915 14.07424,-7.70361 16.35188,-0.30885c1.63326,5.30266 -2.85861,8.33166 -6.63114,10.86121c-3.99625,2.67954 -7.41015,4.78537 -10.16627,7.95147z" fill="#7100f3"/></g></g><g stroke="none" stroke-width="0" stroke-linecap="butt"><path d="M251.97201,195.5234c0.20605,-5.13118 9.75182,-8.11719 13.39166,-7.56798c11.31226,1.70685 25.01456,7.70667 32.06884,9.7587c1.89628,0.55161 3.63151,4.86982 1.9552,7.83011c-1.67632,2.96028 -3.64286,2.17804 -6.34674,2.48884c-2.70388,0.3108 -12.29937,0.53492 -16.8568,0.17834c-9.30134,-0.72774 -13.99431,0.03814 -16.40852,-1.27454c0,0 -8.08465,-4.41541 -7.80363,-11.4135z" data-paper-data="{&quot;index&quot;:null}" fill="url(#color-1)"/><g><path d="M309.53534,234.75051c3.50859,11.64994 -14.72955,14.78898 -20.26388,14.15671c-5.53434,-0.63226 -4.96598,-16.80212 -3.58497,-28.89031c1.38101,-12.08818 2.10147,-22.21925 9.36329,-21.16807c6.93294,2.57077 4.68572,8.52582 7.69781,15.99112c3.01209,7.4653 4.99445,13.95606 6.78777,19.91054z" fill="#342842"/><path d="M332.46704,227.05233c2.36475,-0.75785 5.13535,11.82936 0.80538,17.80389c-5.73458,7.91263 -20.12956,10.19209 -27.18057,13.05785c-13.4843,5.48044 -19.56421,1.4568 -19.85339,-8.3576c-0.17978,-6.1013 2.40017,3.79191 13.2065,-4.06044c1.73375,-1.25982 9.23494,-6.26921 14.32546,-9.76693c4.53422,-2.0493 8.01019,-1.20073 10.87655,-2.92574c2.49749,-2.68112 0.10661,-3.27902 7.82007,-5.75101z" fill="url(#color-2)"/></g></g><g><path d="M249.66896,154.26218c10.28748,3.93359 17.3423,19.1024 22.11462,30.18686c4.39913,10.21766 -3.97444,19.5154 -16.92444,25.09091c-6.3988,2.75495 -10.30357,5.01122 -16.54113,2.88209c-6.23755,-2.12914 -8.8554,-10.14244 -11.26256,-12.37266c-3.25748,-3.01805 -7.42481,-6.42728 -9.99415,-12.66243c-2.8025,-8.03648 -4.97334,-19.15543 7.97666,-24.73095c0,0 16.96652,-11.32445 24.63101,-8.3938z" data-paper-data="{&quot;origPos&quot;:null,&quot;index&quot;:null}" fill="url(#color-3)" stroke="none" stroke-width="0" stroke-linecap="butt"/><path d="M226.06538,158.1558c7.00311,-3.01513 14.49289,-8.41498 22.15737,-5.48435c5.18839,1.98387 14.51362,13.70521 14.51362,13.70521c0,0 -16.43705,5.04747 -19.54861,9.25091c-1.39513,1.88467 -5.57396,7.66161 -7.662,9.6673c-1.09432,1.05113 -15.1548,7.73911 -19.05764,-4.74945c-2.8025,-8.03648 -3.35273,-16.81409 9.59727,-22.38961z" data-paper-data="{&quot;origPos&quot;:null,&quot;index&quot;:null}" fill="#7100f3" stroke="none" stroke-width="0" stroke-linecap="butt"/><path d="M223.17257,163.49599c0,0 6.95085,3.90983 9.82853,6.71017c3.34792,3.25792 10.19771,10.53417 10.19771,10.53417" data-paper-data="{&quot;origPos&quot;:null}" fill="none" stroke="#433751" stroke-width="10.5" stroke-linecap="round"/><path d="M246.2931,179.07928c0.85315,1.98157 -0.08479,4.52391 -1.84297,5.28088c-1.75817,0.75697 -4.24959,-0.30892 -5.10273,-2.29047c-0.85315,-1.98157 0.08478,-4.5239 1.84295,-5.28087c1.75817,-0.75697 4.24959,0.3089 5.10274,2.29046z" fill="#ffea12" stroke="none" stroke-width="0" stroke-linecap="butt"/><path d="M242.17824,153.9191c0,0 4.84153,2.3115 7.5643,4.73472c2.72276,2.42323 11.59505,12.50986 11.59505,12.50986" data-paper-data="{&quot;origPos&quot;:null,&quot;origRot&quot;:0}" fill="none" stroke="#433751" stroke-width="9.5" stroke-linecap="round"/><path d="M263.07656,168.48944c0.85315,1.98157 0.07539,4.09921 -1.68278,4.85618c-1.75818,0.75697 -3.831,-0.13339 -4.68414,-2.11495c-0.85315,-1.98157 -0.0754,-4.09922 1.68278,-4.85619c1.75818,-0.75697 3.831,0.13339 4.68415,2.11496z" data-paper-data="{&quot;origPos&quot;:null}" fill="#ffea12" stroke="none" stroke-width="0" stroke-linecap="butt"/></g><g data-paper-data="{&quot;index&quot;:null}" stroke="none" stroke-width="0" stroke-linecap="butt"><path d="M234.55923,208.82658c0,0 3.49572,-8.52276 10.48205,-9.01616c5.12256,-0.36177 9.14432,8.79592 9.00038,12.47414c-0.44733,11.43156 -4.89751,25.71256 -6.15807,32.95027c-0.33885,1.94561 -4.43906,4.14703 -7.56634,2.80782c-3.12726,-1.3392 -2.56695,-3.38009 -3.17441,-6.03312c-0.60745,-2.65302 -1.8897,-12.16509 -2.03853,-16.73403c-0.30372,-9.3248 -1.58311,-13.90453 -0.54504,-16.44891z" data-paper-data="{&quot;index&quot;:null}" fill="url(#color-4)"/><g><path d="M212.41006,261.35315c-11.1913,4.77351 -16.32494,-13.00652 -16.30763,-18.57683c0.0173,-5.57029 16.15105,-6.79086 28.31781,-6.75304c12.16675,0.03781 22.31542,-0.36478 22.07251,6.96871c-1.78953,7.1744 -7.9563,5.59846 -15.04337,9.41644c-7.08706,3.81797 -13.31925,6.50492 -19.0393,8.94475z" fill="#342842"/><path d="M222.59325,283.29461c1.01432,2.26661 -11.19001,6.4101 -17.6061,2.76631c-8.49744,-4.82583 -12.35242,-18.88108 -15.97921,-25.57254c-6.93584,-12.79671 -3.60813,-19.28372 6.11433,-20.65482c6.04414,-0.85237 -3.5037,2.80419 5.49384,12.6774c1.44354,1.58405 7.25058,8.48626 11.289,13.15943c2.53742,4.28022 2.07785,7.82863 4.10881,10.48699c2.94049,2.18618 3.27074,-0.2561 6.57932,7.13724z" fill="url(#color-5)"/></g></g><g stroke-linecap="butt"><path d="M220.36495,185.16187c-2.60792,0.86619 -11.4876,-2.18826 -20.77143,-3.11282c-4.54886,-0.45301 -19.38196,-1.44502 -19.29256,-2.80683c0.20001,-3.04626 -0.86947,-10.54844 0.14923,-10.61145c10.57306,-0.65399 23.5954,-3.11155 35.03135,-2.79598c3.67964,0.10153 12.31506,4.69785 11.84654,9.81176c-0.46852,5.11389 -2.10647,7.90222 -6.96315,9.51532z" fill="#7100f3" stroke="none" stroke-width="0"/><g><path d="M172.38735,211.97319c-3.00578,5.21924 -9.02907,8.96267 -17.64968,4.19603c-9.3549,-5.82939 -11.78772,-10.30745 -9.4552,-16.11873c2.78523,-5.59839 8.69966,-9.76181 18.434,-3.32481c8.43494,4.47222 11.26264,5.71844 8.6709,15.24752z" data-paper-data="{&quot;origRot&quot;:0}" fill="#ffffff" stroke="none" stroke-width="0"/><path d="M177.92295,202.12869c-2.59381,5.70216 -3.36309,2.86969 -14.57012,-2.3133c-9.83775,-4.54971 -11.53583,-5.00774 -9.42746,-10.31275c1.88468,-4.74215 8.09895,-0.23786 14.04665,2.69327c5.94768,2.9311 11.46552,6.60313 9.95092,9.9328z" data-paper-data="{&quot;origRot&quot;:0}" fill="#ffffff" stroke="none" stroke-width="0"/><path d="M175.91759,194.31786c-3.02225,7.63639 -13.42981,0.28212 -16.09457,-2.37056c-2.66476,-2.65271 4.55972,-9.40547 10.35382,-15.22585c5.79408,-5.82039 10.70632,-11.95012 15.31609,-5.7356c3.3056,4.45632 0.0785,8.80808 -2.63657,12.44936c-2.87607,3.85721 -5.39406,6.97958 -6.93876,10.88265z" fill="#7100f3" stroke="none" stroke-width="0"/><path d="M152.66742,209.6265l1.37918,-3.10175l4.64621,2.2341l3.62272,-7.56959l3.98589,1.75053l-5.34085,10.66572z" data-paper-data="{&quot;index&quot;:null,&quot;origRot&quot;:0}" fill="#ffea12" stroke="#7100f3" stroke-width="1"/></g></g><g><path d="M243.45327,95.23249c0.80361,3.24926 -7.55412,11.40339 -15.43352,14.79579c-6.34923,2.73361 -7.10079,-3.3451 -8.35562,-6.25962c-1.25483,-2.91455 11.46168,-7.63596 17.8109,-10.36956c6.34922,-2.7336 5.45804,-0.26983 5.97821,1.83338z" data-paper-data="{&quot;index&quot;:null}" fill="#2d0757" stroke="none" stroke-width="0" stroke-linecap="butt"/><path d="M235.92545,122.5213c0.04006,-0.05582 0.08381,-0.11209 0.1315,-0.16865c1.26013,-1.49428 2.75438,-0.23414 2.75438,-0.23414l-0.04756,0.12633c0.3158,0.12231 0.51965,0.27568 0.51965,0.27568c3.75724,2.82729 6.76287,8.95728 7.91339,13.60973c0.4358,1.76224 -0.9269,4.95329 -0.30907,6.12635c0.21054,2.47677 -2.00623,4.2133 -4.00695,5.27947c-5.02206,2.67622 -10.61559,4.59942 -15.84417,6.85054c-1.14645,0.49359 -3.25977,1.93909 -4.48834,1.93241c-8.00537,-0.0434 -8.7108,-10.34642 -11.12705,-15.95854c-1.49802,-3.47938 -0.6284,-6.66596 2.75118,-8.72837c4.65856,-2.84293 10.41177,-4.56458 15.42455,-6.72279c2.09455,-0.90179 4.18911,-1.80358 6.28365,-2.70537z" data-paper-data="{&quot;index&quot;:null}" fill="#ffffff" stroke="none" stroke-width="0.5" stroke-linecap="butt"/><path d="M239.09069,129.77864c1.1027,-0.52588 1.62855,0.57681 1.62855,0.57681l0.14823,0.342c0.33546,0.77917 0.7025,1.54933 1.08181,2.31771c0.33979,-0.40925 0.67652,-0.81745 1.01386,-1.21746l0.84655,-0.48109c0,0 1.011,-0.68579 1.6968,0.32521c0.68579,1.01101 -0.32521,1.6968 -0.32521,1.6968l-0.35034,0.03422c-0.55791,0.66158 -1.11783,1.34351 -1.69213,2.0179c0.19398,0.39011 0.38603,0.78165 0.57367,1.17556l0.03073,-0.01324l0.64414,1.49611c0.06106,0.14182 0.09314,0.28881 0.09892,0.43441c0.02923,0.36899 -0.06983,0.88313 -0.73791,1.17077c-0.6681,0.28764 -1.10967,0.00623 -1.35761,-0.26856c-0.10178,-0.10423 -0.18653,-0.2286 -0.24759,-0.3704c-0.24281,-0.56395 -0.4999,-1.11981 -0.76468,-1.67069c-0.66362,0.68214 -1.35834,1.32343 -2.09969,1.88882c-0.75654,0.49577 -1.51191,0.9794 -2.26917,1.45141c0.409,0.94996 0.81799,1.89992 1.22699,2.8499l0.12882,0.29921c0,0 0.4831,1.12208 -0.63898,1.60518c-1.12208,0.4831 -1.60518,-0.63897 -1.60518,-0.63897c-0.39711,-0.92235 -0.80645,-1.87311 -1.22049,-2.83479c-1.91861,1.1335 -3.86705,2.19683 -5.89393,3.19865c0.15502,0.36007 0.31005,0.72013 0.46507,1.08021l0.38648,0.89766c0,0 0.4831,1.12208 -0.63898,1.60518c-1.12208,0.4831 -1.60518,-0.63897 -1.60518,-0.63897c-0.24937,-0.57922 -0.5257,-1.221 -0.81471,-1.89229c-0.61157,0.28071 -1.23137,0.5564 -1.86059,0.8273c0,0 -1.12208,0.4831 -1.60519,-0.63898c-0.4831,-1.12208 0.63898,-1.60518 0.63898,-1.60518c0.62212,-0.26785 1.24567,-0.53689 1.86841,-0.80914c-0.51392,-1.19366 -1.0203,-2.3698 -1.4476,-3.36227c0,0 -0.4831,-1.12208 0.63898,-1.60518c1.12208,-0.4831 1.60519,0.63898 1.60519,0.63898c0.47825,1.11082 0.95649,2.22161 1.43474,3.33241c2.04722,-0.93783 4.05649,-1.93825 5.94666,-3.07619c-0.64114,-1.48917 -1.2808,-2.97485 -1.8915,-4.3933c0,0 -0.4831,-1.12208 0.63898,-1.60519c1.12208,-0.4831 1.60519,0.63898 1.60519,0.63898c0.57575,1.33725 1.15147,2.67449 1.72722,4.01175c0.58284,-0.40795 1.14984,-0.83349 1.69815,-1.27922c0.8719,-0.66494 1.66927,-1.44409 2.42628,-2.27091c-0.55942,-1.1119 -1.11172,-2.2216 -1.60017,-3.3561l-0.10942,-0.25645c0,0 -0.52587,-1.1027 0.57681,-1.62855z" data-paper-data="{&quot;index&quot;:null}" fill="#a5b5ff" stroke="none" stroke-width="0.5" stroke-linecap="butt"/><path d="M190.72191,143.73553l-0.11069,-0.34108c0.02158,-0.22447 0.04316,-0.44894 0.06474,-0.67341c2.811,-5.68734 9.55489,0.11525 12.6307,2.11268c1.02918,0.66834 2.07727,1.11196 2.99087,1.93178c2.88612,2.60398 13.97119,6.90743 7.461,11.45569c-0.82666,0.57754 -1.67083,0.91689 -2.59417,1.31443c-0.61503,0.04178 -1.24188,0.19895 -1.84506,0.12532c-0.51698,-0.06313 -4.00194,-0.88217 -5.15421,-1.01668c-0.48417,-0.05651 -7.36641,-2.52025 -7.96311,-3.26622c-2.74772,-3.44969 -3.70422,-7.27565 -5.39538,-11.20363c-0.05555,-0.12903 -0.08239,-0.26384 -0.08332,-0.39817c-0.00066,-0.01335 -0.00111,-0.02691 -0.00133,-0.04066z" data-paper-data="{&quot;index&quot;:null}" fill="#8e4108" stroke="none" stroke-width="0.5" stroke-linecap="butt"/><path d="M251.1268,145.99211c1.70185,3.52131 4.42774,6.56226 3.47357,10.14059c-0.41111,1.54176 -1.56931,3.4412 -2.1826,3.64216c-2.94252,1.28116 -6.47448,3.39731 -9.73381,3.45222c-2.35085,0.03962 -7.74608,-0.97359 -7.77987,-0.97075c-0.03354,0.00469 -0.05223,0.00629 -0.05223,0.00629c-2.96568,0.25211 -5.94239,-0.43654 -8.87552,-0.19575c-1.36443,0.11201 -5.67288,0.53621 -5.67288,0.53621c-7.20453,-1.32178 -13.38493,-5.24902 -18.30167,-10.59777c-2.04872,-2.29715 -3.83782,-4.76746 -5.87211,-7.04837l-0.05512,-0.33473c-3.31448,-0.37654 -6.47418,-1.57654 -9.78843,-1.88686c-1.76505,-0.16524 -4.01626,0.06775 -5.8398,-0.43625c-1.92284,-0.53143 -3.02466,-0.85476 -4.7825,-1.79803c-6.39164,-2.6342 -8.79436,-6.40858 -11.46733,-12.61697l-0.29602,-0.8906c-0.17937,-0.19498 -0.32987,-0.45467 -0.42412,-0.79955c-0.12432,-0.34492 -0.18874,-0.78549 -0.00994,-1.24493c0.1501,-0.46961 0.47735,-0.7715 0.791,-0.96139c0.41576,-0.29903 0.81119,-0.3896 1.16175,-0.3691c5.10688,-0.85082 9.66451,-0.22021 14.79743,-0.27899c2.06631,-0.02365 4.12357,-1.10426 6.15573,-1.60459c0.96207,-0.23686 3.77745,-1.12326 3.77745,-1.12326c4.08654,-1.75942 5.59444,-5.33863 8.75085,-8.4204c2.46203,-2.40379 5.48565,-3.6342 8.32983,-5.46634c4.86868,-3.13238 11.06248,-4.96915 16.37819,-7.25778c0,0 2.35351,-0.28888 2.77921,-0.02951c3.05747,1.0654 3.91975,3.23165 5.18745,6.17607c1.82681,4.24305 3.36877,8.87595 5.78099,12.81733c1.12613,1.88249 2.33186,3.57566 3.20783,5.58947c0.27136,0.36329 0.34109,0.75982 0.32626,1.10645c0.0264,0.39596 -0.05625,0.85986 -0.42613,1.27144c-1.71243,2.9336 -4.07386,3.30891 -6.46437,5.45337c-1.05554,0.94689 -1.78167,2.24144 -3.06689,3.04095c-2.07552,1.29109 -4.56971,2.01181 -6.5685,3.41297c-2.39794,1.54277 -5.35652,2.71815 -8.15607,3.48384c0.41144,1.10755 0.84673,2.23416 1.44434,3.159c1.36152,2.10704 3.87052,5.72982 6.5097,6.21146c2.19912,0.40133 4.48863,-2.11192 6.27993,-2.65696c4.77373,-1.38406 7.57199,-4.17972 11.14361,-7.36516c1.03833,-0.92606 2.52386,-1.65271 3.44761,-2.62865c0.96289,-1.01729 1.56202,-2.15128 2.94652,-3.04203l1.88796,0.33531c0,0 1.94855,-0.15457 2.1031,1.79398z" data-paper-data="{&quot;index&quot;:null}" fill="#ffdebd" stroke="none" stroke-width="0.5" stroke-linecap="butt"/><path d="M241.3746,93.73844c0,0 0.9258,2.18581 0.57742,3.54257c-0.34837,1.35676 -2.58387,4.27176 -2.58387,4.27176l-7.22588,8.16594" data-paper-data="{&quot;index&quot;:null}" fill="none" stroke="#a5b5ff" stroke-width="4.5" stroke-linecap="round"/><path d="M204.12815,117.12513c0.22842,1.12363 0.21621,2.24226 0.50193,3.39441c0.3839,1.54812 1.45426,3.25091 2.09499,4.7391c0.39355,0.91408 4.14491,-0.15222 5.82926,-0.8774c0.45177,-0.19451 3.16622,-1.32483 3.02737,-1.48338c0.48299,-0.76051 1.65108,-1.31361 2.01686,-2.0835c1.1363,-2.39164 1.81198,-5.34416 1.52324,-8.49193c-0.03614,-0.39374 -0.04405,-1.3499 -0.36435,-1.13133c-0.17041,0.11628 0.12573,0.51782 -0.04899,0.62733c-0.47967,0.30066 -1.94882,-0.04194 -2.53898,0.04632c-0.77324,0.11563 -1.94025,0.65205 -2.76723,0.85066c-1.8322,0.44004 -3.78805,1.68675 -5.53067,2.43702c-1.34552,0.57931 -2.44842,1.38822 -3.74341,1.97271zM202.44315,115.31318c0.34704,-0.14941 0.61898,-0.10386 0.82203,0.00826c1.29619,-0.574 2.45993,-1.42128 3.81591,-2.00509c2.89762,-1.24755 6.58941,-3.39906 9.80058,-3.45766c2.0171,-0.03682 3.96976,-0.12601 4.19333,2.31106c0.3459,3.77078 1.37717,4.93715 -0.33344,8.16703c-0.34854,0.65809 -2.66665,3.25177 -3.50624,3.66003c-0.83957,0.40828 -6.4056,3.70773 -9.057,3.53668c-1.1076,-0.07147 -2.77963,-0.41276 -3.24855,-1.50189c-0.74119,-1.72153 -1.79628,-3.54116 -2.25285,-5.35938c-0.34748,-1.38383 -0.15451,-2.70351 -0.73619,-4.05455c0,0 -0.39525,-0.91804 0.5024,-1.30452z" data-paper-data="{&quot;index&quot;:null}" fill="#18c6ff" stroke="none" stroke-width="0.5" stroke-linecap="butt"/><path d="M212.39402,110.8326c2.27134,-0.36841 1.93876,-0.16951 3.39219,0.0478c1.45343,0.21732 3.33413,1.01382 3.37024,1.40757c0.28877,3.14778 1.30481,4.53981 0.16851,6.93148c-0.36578,0.76988 -2.83089,2.97128 -3.75808,3.62591c-0.9272,0.65462 -2.56347,1.39016 -3.01523,1.58466c-1.68436,0.72518 -5.46599,1.77879 -5.85954,0.86469c-0.64072,-1.48817 -1.72563,-3.21555 -2.10952,-4.76368c-0.28571,-1.15214 -0.71602,-3.31594 -0.94443,-4.43958c1.17352,-0.86662 1.78203,-1.89199 3.36835,-2.88139c1.58631,-0.9894 3.11616,-2.00903 5.38749,-2.37744z" data-paper-data="{&quot;noHover&quot;:false,&quot;origItem&quot;:[&quot;Path&quot;,{&quot;applyMatrix&quot;:true,&quot;segments&quot;:[[[469.86056,340.47788],[2.90705,-0.05065],[-0.47996,2.2968]],[[468.0571,347.26415],[0.39535,-2.39679],[-0.53123,3.22051]],[[468.15973,357.86707],[0,-3.31566],[0,2.03658]],[[479.8264,360.93518],[-3.75277,0],[1.00657,0]],[[486.717,360.5969],[0.13271,0.41035],[1.52326,-1.03856]],[[492.19394,358.31293],[-1.31054,1.15106],[4.07119,-3.57579]],[[501.92903,343.58421],[-2.00456,6.15021],[0.25074,-0.76931]],[[502.15973,341.16292],[0.77893,-0.15165],[-0.41434,0.08067]],[[501.56,342.30239],[0.41704,-0.06448],[-1.14489,0.17701]],[[496.75028,340.33482],[1.18068,0.3117],[-1.54698,-0.4084]],[[490.86061,339.69435],[1.71512,0.2959],[-3.79987,-0.65558]],[[478.49306,339.79931],[3.88259,0],[-2.99782,0]]],&quot;closed&quot;:true}],&quot;index&quot;:null}" fill="#ffffff" stroke="none" stroke-width="0.5" stroke-linecap="butt"/><path d="M224.81325,108.78033c0.50487,1.17263 1.00974,2.34529 1.51461,3.51792c0.03868,0.08983 0.57588,1.34802 0.57971,1.34649c0.15159,-0.06109 -0.26904,-0.36398 -0.14365,-0.46882c0.36252,-0.30307 2.34963,-0.48095 3.28548,-0.88387c0.18209,-0.0784 2.24721,-0.95864 2.24416,-0.96621c-0.06109,-0.15158 -0.36397,0.26905 -0.46882,0.14365c-0.82882,-0.99142 -1.78043,-4.33742 -2.54069,-6.28584c-0.36268,0.58729 -1.76443,0.39445 -2.5177,0.71877c-0.71032,0.30582 -1.2934,1.43368 -1.61253,2.33339l-0.25559,0.64208c0,0 -0.03262,-0.03657 -0.08503,-0.09754zM223.33785,107.51281c0.9663,-2.28339 2.77877,-4.6765 5.04207,-5.5481c1.0252,-0.39477 1.97129,0.73045 2.51119,1.98445c1.05299,2.44572 4.00462,6.75568 2.17549,9.17196c-0.32226,0.4257 -1.73945,0.74891 -2.24416,0.96621c-1.76055,0.75799 -4.01805,1.61124 -5.71013,0.33033c-1.00344,-0.75962 -1.68739,-3.91921 -2.19007,-5.08676c0,0 -0.33296,-0.77337 0.33706,-1.19351z" data-paper-data="{&quot;index&quot;:null}" fill="#18c6ff" stroke="none" stroke-width="0.5" stroke-linecap="butt"/><path d="M225.93722,103.97651c0.75326,-0.32431 2.74172,-0.79341 2.74172,-0.79341c0,0 3.59695,8.01363 3.65805,8.16521c0.00305,0.00757 -2.08023,0.90717 -2.26231,0.98556c-0.93585,0.40292 -3.02894,1.29673 -3.18053,1.35782c-0.00385,0.00154 -0.55266,-1.26169 -0.59133,-1.35152c-0.50487,-1.17263 -1.45314,-3.46702 -1.45314,-3.46702c0,0 0.37725,-4.59083 1.08756,-4.89665z" data-paper-data="{&quot;noHover&quot;:false,&quot;origItem&quot;:[&quot;Path&quot;,{&quot;applyMatrix&quot;:true,&quot;segments&quot;:[[[515.49306,341.5323],[0.04917,0.15701],[0,2.61264]],[[515.49306,349.37022],[0,-2.61264],[0,0.20016]],[[515.49306,352.37022],[-0.00844,-0.0002],[0.33438,0.00784]],[[515.60246,351.37279],[-0.32053,0.09557],[0.92664,-0.27628]],[[522.49306,352.37022],[-2.08504,0],[0.4057,0]],[[527.49306,352.37022],[-0.00039,0.0167],[0.00784,-0.33438]],[[526.49563,352.26082],[0.09557,0.32053],[-0.75555,-2.53413]],[[526.80695,338.39],[-0.14773,4.27747],[-1.15693,0.81042]],[[521.49306,337.70356],[1.67827,0],[-1.5826,0]],[[516.57394,340.78444],[1.32792,-1.43284],[0,0]],[515.57394,341.78444]],&quot;closed&quot;:true}],&quot;index&quot;:null}" fill="#ffffff" stroke="none" stroke-width="0.5" stroke-linecap="butt"/><path d="M174.62395,130.80401l5.8264,0.6508c0,0 3.60451,-0.70342 5.95005,-0.35023c2.34553,0.35321 2.50059,0.76201 3.83564,1.82384c1.33505,1.06183 1.22281,1.28307 0.80325,1.86568c-0.41953,0.58262 -2.20966,2.36427 -4.1007,2.71333c-1.89104,0.34904 -3.60616,-1.29078 -3.60616,-1.29078l-2.88253,-4.69845" data-paper-data="{&quot;index&quot;:null}" fill="none" stroke="#f6b09a" stroke-width="3" stroke-linecap="round"/><path d="M223.79326,78.01657c7.32044,11.53332 5.22919,13.26883 0.2805,20.10071c-7.21062,9.95462 -20.40087,14.2468 -28.82839,23.19467c-2.21284,2.34946 -10.37852,2.47151 -13.34294,3.74782c-6.06309,2.61041 -11.34982,-0.24989 -13.82253,-5.30335c-5.45421,-11.14677 0.13268,-13.60448 6.19576,-16.21489c0,0 7.14876,-1.76689 10.97775,0.78086c0,0 2.78005,-19.09953 11.7618,-25.17828c11.56204,-7.82501 21.52102,-9.41002 26.77808,-1.12756z" data-paper-data="{&quot;index&quot;:null}" fill="#7100f3" stroke="none" stroke-width="0" stroke-linecap="butt"/><path d="M224.43702,86.11673c1.95144,4.53251 2.20666,8.46473 -6.58008,12.56109c-9.27597,4.32443 -11.69541,0.67995 -13.64685,-3.85256c-1.95144,-4.53251 0.99458,-10.1563 6.58009,-12.56109c5.58551,-2.40479 11.6954,-0.67995 13.64684,3.85256z" data-paper-data="{&quot;index&quot;:null}" fill="#ffffff" stroke="none" stroke-width="0" stroke-linecap="butt"/><path d="M215.47941,82.59837l1.59566,2.78959l-4.307,2.29604l3.75022,7.00392l-3.56812,2.0627l-5.15181,-10.04913z" data-paper-data="{&quot;index&quot;:null,&quot;origRot&quot;:0}" fill="#ffea12" stroke="#7100f3" stroke-width="1" stroke-linecap="butt"/><path d="M254.05411,118.28106l-0.40741,12.23477l-2.5226,0.73141l-9.92413,0.01651l-21.78922,16.12022l-3.59066,1.54593l-3.98126,-1.83276l-9.55417,-9.00999l0.55277,-2.01141l12.28459,4.64221l12.52161,-7.16451l9.18448,-7.50116l10.82178,-0.40298l3.62397,-7.23526z" data-paper-data="{&quot;index&quot;:null}" fill="#000000" stroke="#ff0000" stroke-width="0" stroke-linecap="round"/><path d="M192.52584,120.3452c0.83333,-0.35878 2.82022,0.55953 3.01253,0.8543c1.99436,0.79523 4.1511,2.41028 5.29201,4.23423c0.36563,0.58457 0.30477,4.50337 0.16078,5.09963c-1.18911,2.16026 -3.10499,4.40837 -5.14666,2.44997c-0.47522,-0.45585 -0.60166,-3.23812 -0.86578,-3.8516c-0.90179,-2.09455 -1.80358,-4.18909 -2.70537,-6.28365c0,0 -0.12427,-0.28863 -0.10038,-0.63616l-0.2861,-0.26151c0,0 -0.4831,-1.12208 0.63898,-1.60518z" data-paper-data="{&quot;index&quot;:null}" fill="#8e4108" stroke="none" stroke-width="0.5" stroke-linecap="butt"/><path d="M226.40359,91.24674c5.74842,-2.3813 16.45702,-0.5789 16.8957,2.24004c0.11866,0.76256 -32.49586,16.58398 -41.77252,21.71531c-4.50856,2.49389 -12.60736,9.50243 -12.72601,8.73987c-0.43866,-2.81896 1.29532,-9.62086 5.23133,-12.88407c4.75647,-3.94344 18.30972,-13.98598 32.37152,-19.81115z" data-paper-data="{&quot;index&quot;:null}" fill="#4f05a3" stroke="none" stroke-width="0" stroke-linecap="butt"/><path d="M190.66235,123.62841l22.99721,-15.74599l27.98159,-14.25875" data-paper-data="{&quot;index&quot;:null}" fill="none" stroke="#ffffff" stroke-width="4.5" stroke-linecap="round"/><path d="M221.95259,109.33269c0.69426,1.8272 -1.13294,2.52146 -1.13294,2.52146l-2.06829,-0.28321c-1.00571,-0.27636 -2.01141,-0.55277 -3.01712,-0.82912c-5.83793,-1.8064 -11.5798,3.51917 -14.8418,7.85409c0,0 -1.1753,1.56185 -2.73714,0.38657c-1.56185,-1.17529 -0.38656,-2.73713 -0.38656,-2.73713c4.35697,-5.79004 11.21489,-11.26666 19.00141,-9.27308c1.00571,0.27636 2.76763,0.64646 2.76763,0.64646c0,0 1.72061,-0.11323 2.41486,1.71398z" data-paper-data="{&quot;index&quot;:null}" fill="#000000" stroke="none" stroke-width="0.5" stroke-linecap="butt"/><path d="M229.74852,98.87908c1.55163,1.18876 0.36285,2.74039 0.36285,2.74039l-1.97555,1.12188c-2.52929,1.08897 -3.54404,2.12627 -3.30539,4.93358c0,0 0.16555,1.94764 -1.78206,2.1132c-1.94765,0.16558 -2.1132,-1.78205 -2.1132,-1.78205c-0.37191,-4.37503 3.42216,-7.32552 3.42216,-7.32552c0,0 3.83958,-2.99019 5.39122,-1.80144z" data-paper-data="{&quot;index&quot;:null}" fill="#000000" stroke="none" stroke-width="0.5" stroke-linecap="butt"/><path d="M211.20742,116.48668c0.43834,-0.18872 0.91151,-0.18194 1.32278,-0.01844c0.41104,0.16283 0.75955,0.48265 0.94795,0.92024c0.1884,0.43759 0.18122,0.91057 0.01702,1.32106c-0.16386,0.41111 -0.48413,0.7595 -0.92247,0.94823c-0.43828,0.1887 -0.91147,0.18193 -1.32278,0.01845c-0.41098,-0.16286 -0.75951,-0.48268 -0.94791,-0.92027c-0.1884,-0.43759 -0.18121,-0.91056 -0.01706,-1.32103c0.16393,-0.41113 0.48418,-0.75953 0.92247,-0.94823z" data-paper-data="{&quot;index&quot;:null}" fill="#000000" stroke="none" stroke-width="1.05702" stroke-linecap="butt"/><path d="M227.31097,106.65598c0.37938,-0.16334 0.7889,-0.15748 1.14485,-0.01596c0.35575,0.14092 0.65739,0.41772 0.82045,0.79646c0.16306,0.37874 0.15683,0.78807 0.01471,1.14335c-0.14182,0.35582 -0.419,0.65735 -0.79838,0.82069c-0.37933,0.16332 -0.78886,0.15745 -1.14486,0.01596c-0.35569,-0.14095 -0.65734,-0.41774 -0.8204,-0.79647c-0.16306,-0.37874 -0.15685,-0.78808 -0.01477,-1.14334c0.14188,-0.35584 0.41905,-0.65736 0.79839,-0.82068z" data-paper-data="{&quot;index&quot;:null}" fill="#000000" stroke="none" stroke-width="1.05702" stroke-linecap="butt"/><path d="M223.55444,121.6907c-0.35909,-1.37076 -1.12826,-2.9487 -1.18942,-4.12431c-0.13511,-2.597 1.90898,-4.71336 4.10178,-5.65745c7.35783,-3.16786 20.02089,-5.28624 23.91216,3.75184c1.09173,2.68762 1.58348,5.2274 0.25131,7.98216c-0.65275,1.34981 -2.56534,2.213 -3.8146,2.9056c-3.88875,2.15599 -8.33133,4.7342 -12.71335,5.66435c-3.93184,0.58358 -7.18278,2.43281 -11.27455,0.62905c-2.87623,-1.26791 -4.33053,-5.39087 -3.75769,-8.22424c0.27686,-1.36938 2.92786,-2.31193 4.07874,-2.80743c0,0 0.15952,-0.06867 0.40563,-0.11958z" fill="url(#color-6)" stroke="none" stroke-width="0.5" stroke-linecap="butt"/></g></g></g></svg>