<svg version="1.1" xmlns="http://www.w3.org/2000/svg" xmlns:xlink="http://www.w3.org/1999/xlink" width="293.49007" height="191.60001" viewBox="0,0,293.49007,191.60001"><defs><linearGradient x1="205.2464" y1="231.81458" x2="205.81298" y2="360.18809" gradientUnits="userSpaceOnUse" id="color-1"><stop offset="0" stop-color="#935f0a"/><stop offset="1" stop-color="#de7b19"/></linearGradient><linearGradient x1="253.01001" y1="255.13423" x2="253.47362" y2="360.1772" gradientUnits="userSpaceOnUse" id="color-2"><stop offset="0" stop-color="#935f0a"/><stop offset="1" stop-color="#de7b19"/></linearGradient><linearGradient x1="77.07057" y1="321.63295" x2="269" y2="321.63295" gradientUnits="userSpaceOnUse" id="color-3"><stop offset="0" stop-color="#ea742e"/><stop offset="1" stop-color="#c37f10"/></linearGradient><linearGradient x1="76.25231" y1="227.53299" x2="169.99048" y2="227.53299" gradientUnits="userSpaceOnUse" id="color-4"><stop offset="0" stop-color="#ea742e"/><stop offset="1" stop-color="#c37f10"/></linearGradient></defs><g transform="translate(23.24007,-178.78297)"><g data-paper-data="{&quot;isPaintingLayer&quot;:true}" fill-rule="nonzero" stroke-linecap="butt" stroke-linejoin="miter" stroke-miterlimit="10" stroke-dasharray="" stroke-dashoffset="0" style="mix-blend-mode: normal"><path d="M-23.00556,336.46455c-0.0476,0.0889 -0.11935,0.16399 -0.20301,0.23171c-0.01043,-0.01399 -0.02093,-0.02795 -0.0315,-0.04186c0.16471,-0.16122 0.29477,-0.30241 0.23451,-0.18985z" data-paper-data="{&quot;origPos&quot;:null,&quot;index&quot;:null}" fill="url(#color-1)" stroke="#372403" stroke-width="0"/><g data-paper-data="{&quot;index&quot;:null,&quot;origPos&quot;:null}" stroke="#964f17" stroke-width="2.5"><path d="M66.04857,340.92053c0.13478,-0.13192 0.2412,-0.24745 0.19189,-0.15535c-0.03895,0.07274 -0.09766,0.13419 -0.16612,0.1896c-0.00854,-0.01145 -0.01713,-0.02287 -0.02578,-0.03425z" data-paper-data="{&quot;origPos&quot;:null,&quot;index&quot;:null}" fill="url(#color-2)"/><path d="M269,369.13298h-191.92943v-95.00004h191.92943z" data-paper-data="{&quot;origPos&quot;:null,&quot;index&quot;:null}" fill="url(#color-3)"/><path d="M169.99048,275.03301h-93.73817v-95.00004h93.73817z" data-paper-data="{&quot;origPos&quot;:null,&quot;index&quot;:null}" fill="url(#color-4)"/></g></g></g></svg>