<svg version="1.1" xmlns="http://www.w3.org/2000/svg" xmlns:xlink="http://www.w3.org/1999/xlink" width="23.6176" height="23.0182" viewBox="0,0,23.6176,23.0182"><g transform="translate(-228.2162,-168.6909)"><g data-paper-data="{&quot;isPaintingLayer&quot;:true}" fill-rule="nonzero" stroke="none" stroke-linejoin="miter" stroke-miterlimit="10" stroke-dasharray="" stroke-dashoffset="0" style="mix-blend-mode: normal"><path d="M240,170.4c2.69,0 5.127,1.093 6.892,2.858c1.765,1.765 2.858,4.202 2.858,6.892c0,2.69 -1.093,5.127 -2.858,6.892c-1.765,1.765 -4.202,2.858 -6.892,2.858c-2.69,0 -5.127,-1.093 -6.892,-2.858c-1.765,-1.765 -2.858,-4.202 -2.858,-6.892c0,-2.69 1.093,-5.127 2.858,-6.892c1.765,-1.765 4.202,-2.858 6.892,-2.858z" fill="#ff561d" stroke-width="1" stroke-linecap="butt"/><path d="M239.9528,172.1694c2.2003,0 4.1936,0.894 5.6373,2.3377c1.4437,1.4436 2.3377,3.437 2.3377,5.6373c0,2.2002 -0.894,4.1936 -2.3377,5.6373c-1.4437,1.4436 -3.437,2.3377 -5.6373,2.3377c-2.2003,0 -4.1936,-0.8941 -5.6373,-2.3377c-1.4437,-1.4437 -2.3377,-3.4371 -2.3377,-5.6373c0,-2.2003 0.894,-4.1937 2.3377,-5.6373c1.4437,-1.4437 3.437,-2.3377 5.6373,-2.3377z" fill="#ff9e23" stroke-width="0.81795" stroke-linecap="butt"/><path d="M239.8864,174.6272c1.5036,0 2.8659,0.6109 3.8525,1.5975c0.9865,0.9866 1.5975,2.3488 1.5975,3.8525c0,1.5036 -0.611,2.8658 -1.5975,3.8524c-0.9866,0.9866 -2.3489,1.5976 -3.8525,1.5976c-1.5036,0 -2.8659,-0.611 -3.8524,-1.5976c-0.9866,-0.9866 -1.5976,-2.3488 -1.5976,-3.8524c0,-1.5037 0.611,-2.8659 1.5976,-3.8525c0.9865,-0.9866 2.3488,-1.5975 3.8524,-1.5975z" fill="#ffe21d" stroke-width="0.55898" stroke-linecap="butt"/><path d="M237.1,170.9364l6.05,-2.2455v2.6z" fill="#ff561d" stroke-width="0.82133" stroke-linecap="round"/><path d="M242.75,189.4636l-6.05,2.2455v-2.6z" fill="#ff561d" stroke-width="0.82133" stroke-linecap="round"/><path d="M249.0834,176.9596l2.7504,5.8378l-2.5906,0.2205z" fill="#ff561d" stroke-width="0.82133" stroke-linecap="round"/><path d="M230.9666,183.3904l-2.7504,-5.8378l2.5906,-0.2205z" fill="#ff561d" stroke-width="0.82133" stroke-linecap="round"/><path d="M244.6774,171.4395l5.7392,2.9506l-1.9191,1.7542z" fill="#ff561d" stroke-width="0.82133" stroke-linecap="round"/><path d="M232.075,174.746l3.175,-5.6181l1.677,1.9869z" fill="#ff561d" stroke-width="0.82133" stroke-linecap="round"/><path d="M248.4789,184.5355l-2.2694,6.0411l-1.9637,-1.7041z" fill="#ff561d" stroke-width="0.82133" stroke-linecap="round"/><path d="M235.0834,188.5005l-5.9131,-2.5847l1.8053,-1.8711z" fill="#ff561d" stroke-width="0.82133" stroke-linecap="round"/></g></g></svg>