<svg version="1.1" xmlns="http://www.w3.org/2000/svg" xmlns:xlink="http://www.w3.org/1999/xlink" width="112.38574" height="62.72224" viewBox="0,0,112.38574,62.72224"><g transform="translate(-148.54712,-124.73719)"><g data-paper-data="{&quot;isPaintingLayer&quot;:true}" fill-rule="nonzero" stroke-linejoin="miter" stroke-miterlimit="10" stroke-dasharray="" stroke-dashoffset="0" style="mix-blend-mode: normal"><g stroke-width="0" stroke-linecap="butt"><path d="M236.6666,187.45943l1.13036,-20.93149l10.55,1.09981l1.88393,19.83168z" fill="#8d5830" stroke="#5c391e"/><path d="M237.3907,173.9574l0.35928,-5.39409l10.73211,0.068l0.45392,5.25808z" fill="#5c391e" stroke="none"/></g><g data-paper-data="{&quot;index&quot;:null}" stroke="#5c391e" stroke-width="0" stroke-linecap="round"><path d="M248.1803,129.12894l0.59937,42.97875l-8.19964,-0.85383l-4.87342,0.94315l-0.72681,-43.12631z" fill="#ab7247"/><path d="M248.64713,171.45427l-0.59222,-42.57309l9.40811,0.61932l2.8899,-0.61706l0.57994,41.73361l-7.91472,1.25126z" data-paper-data="{&quot;index&quot;:null}" fill="#8d5830"/><path d="M223.35344,171.92398l-1.93527,-35.64748l0.48687,-5.51459l8.39446,-0.82637l4.78496,-0.50089l0.8019,42.88397l-9.04347,-1.06241z" data-paper-data="{&quot;index&quot;:null}" fill="#98653e"/></g><path d="M240.90469,132.59321c4.78401,0.05723 8.56223,-0.00862 13.27454,0.93666c1.1666,0.23921 3.67941,1.13261 4.1354,2.39503c1.09231,3.41046 1.44643,7.07065 1.3535,11.67377c-0.09293,4.60312 0.47853,13.9284 -1.62501,17.63163c-1.12042,2.09419 -4.25787,2.24812 -6.43416,2.37665c-6.64813,0.38244 -13.90708,0.57426 -20.39342,0.02496c-2.15125,-0.18261 -5.01768,-0.18529 -6.1076,-2.1499c-1.91861,-3.42937 -1.7366,-12.79094 -1.76173,-17.64685c-0.02513,-4.85591 -0.07037,-7.96613 1.42629,-11.56897c0.74666,-1.81003 2.86836,-2.51432 4.54947,-2.88973c3.81562,-0.87451 7.75027,-0.82863 11.58272,-0.78326z" data-paper-data="{&quot;index&quot;:null}" fill="#fffaec" stroke="#666666" stroke-width="0" stroke-linecap="round"/><path d="M226.59456,142.98121c0,0 2.5704,-0.6641 3.8579,-0.5144c2.4552,0.2855 4.7345,1.644 7.2015,1.8003c1.0555,0.0669 1.9423,-0.8605 2.9577,-1.1573c1.7746,-0.5185 3.5524,-1.2593 5.4011,-1.286c1.2186,-0.0175 2.2612,1.0211 3.4721,1.1574c2.2556,0.2536 6.8156,0 6.8156,0" fill="none" stroke="#b2b2b2" stroke-width="1.02878" stroke-linecap="round"/><path d="M226.83265,138.12511c0,0 3.0015,-0.3339 4.5009,-0.2572c3.5236,0.1805 7.0168,1.0575 10.545,1.0287c1.7972,-0.0144 3.4762,-1.0915 5.2725,-1.1573c2.9176,-0.107 8.7446,0.643 8.7446,0.643" fill="none" stroke="#b2b2b2" stroke-width="1.02878" stroke-linecap="round"/><path d="M254.63831,147.31653c0,0 -2.2258,-0.8317 -3.3435,-0.6429c-2.537,0.4279 -4.7581,2.3661 -7.3301,2.4433c-4.7462,0.142 -9.3994,-1.6507 -14.1457,-1.8004c-1.1867,-0.0375 -2.1861,1.286 -2.1861,1.286" fill="none" stroke="#b2b2b2" stroke-width="1.02878" stroke-linecap="round"/><path d="M229.43321,166.22733c0,0 1.4084,-0.823 2.1862,-1.0288c0.7047,-0.1867 1.4624,-0.217 2.1861,-0.1286c1.0515,0.1281 2.0298,0.697 3.0864,0.7716c2.6059,0.1842 5.2334,0.0746 7.8444,0c0.6528,-0.0185 0.769,-0.1867 1.1574,-0.2572c1.0252,-0.1862 2.0457,-0.4856 3.0863,-0.5144c0.5792,-0.0113 1.268,0.4738 2.0061,0.4887c0.8755,-0.0134 2.752,-0.4887 2.752,-0.4887" fill="none" stroke="#b2b2b2" stroke-width="1.02878" stroke-linecap="round"/><path d="M237.30946,157.46252c0.00874,0.3594 0.00501,0.82492 0.00501,0.94595c0,0 0,0.5 -0.5,0.5c-0.00831,0 -0.01648,-0.00014 -0.02452,-0.00041l0.23364,0.46728c0,0 0.2236,0.44721 -0.22361,0.67082c-0.44721,0.2236 -0.67082,-0.2236 -0.67082,-0.2236l-0.23809,-0.47619c-0.52633,-1.09133 -0.72411,-0.22376 -1.12938,0.59524c0,0 -0.22361,0.44721 -0.67082,0.2236c-0.44721,-0.2236 -0.22361,-0.67082 -0.22361,-0.67082c0.18097,-0.3588 0.3899,-0.69718 0.61717,-0.97308c-0.09329,0.03002 -0.16995,0.03002 -0.16995,0.03002l-0.61905,-0.5c0.02455,-1.36249 -2.17774,-4.89526 -2.70385,-1.90893c-0.14253,0.809 0.01337,1.79721 0.01337,2.62322c0,0 0,0.34701 -0.28909,0.46286c0.14485,0.10286 0.29385,0.21387 0.44623,0.32762l0.29746,0.03398c0,0 0.48507,0.12126 0.3638,0.60634c-0.12127,0.48507 -0.60634,0.3638 -0.60634,0.3638l-0.65492,-0.20412c-0.7274,-0.54782 -0.85728,-1.28871 -0.99252,-0.19875c0,0 -0.0822,0.4932 -0.5754,0.411c-0.08567,-0.01427 -0.15397,-0.04095 -0.20836,-0.07529c0.47893,1.09806 1.38689,1.82524 3.02866,1.82019c1.17133,0.00522 6.00576,0.07048 6.29909,-1.51964c0.16522,-0.89567 -0.09669,-2.13594 -0.24467,-3.01721c-0.05784,-0.34448 -0.10729,-0.66885 -0.17446,-0.98816c-0.05996,0.29457 -0.193,0.54654 -0.38497,0.6743zM236.49628,155.05778c0.37616,-0.01703 0.65779,0.10924 0.8563,0.31297c-0.07184,-0.89044 -0.08167,-2.40735 -0.5442,-2.80916c-0.67656,-0.58773 -1.45942,-0.20075 -2.25582,-0.20075c-1.91403,0 -3.98345,0.04074 -5.90986,-0.18272l-0.01871,0.03986c-0.00788,2.08659 -0.69506,5.4664 -0.03265,7.73377c0.26266,-1.29835 0.76851,-1.45036 1.41534,-1.15518c-0.00174,-0.01948 -0.00174,-0.03096 -0.00174,-0.03096c0,-1.47817 -0.35106,-3.65466 1.18579,-4.58967c1.92836,-1.1732 3.27374,1.85394 3.47789,3.50816c0.08203,0.07379 0.14584,0.1886 0.14584,0.36722c0,0.05244 -0.00549,0.09937 -0.01534,0.14138c0.46552,-0.40765 0.98313,-0.51393 1.48417,-0.01851c-0.25163,-1.06269 -1.88882,-3.02124 0.21299,-3.11641zM236.21324,156.48139l0.02172,-0.12499c-0.01404,0.00294 -0.02829,0.00621 -0.04275,0.00984c-0.12331,0.0309 -0.09025,0.06795 0.02104,0.11515zM227.75314,151.75813c-0.01324,-0.05884 -0.01637,-0.12706 -0.00508,-0.20609c0.07071,-0.49498 0.56569,-0.42426 0.56569,-0.42426c2.32229,0.33545 7.4239,-0.86952 9.22109,0.7466c0.79722,0.7169 0.63784,2.67207 0.83033,3.65351c0.68727,1.72434 1.63613,5.90914 -0.48144,7.01188c-1.4105,0.73453 -4.48062,0.76745 -6.06926,0.77345c-5.95298,-0.01594 -4.17241,-7.04253 -4.19048,-11.09524z" fill="#b2b2b2" stroke="none" stroke-width="0.5" stroke-linecap="butt"/><path d="M236.83828,153.52752c0,0.3007 -0.18085,0.42056 -0.32501,0.46833c-0.91406,1.31902 -2.12388,0.68048 -2.76506,-0.60187c0,0 -0.22361,-0.44721 0.2236,-0.67082c0.44721,-0.2236 0.67082,0.2236 0.67082,0.2236c0.23959,0.47917 0.74207,1.40998 1.12939,0.35715l0.56626,-0.2764c0,0 0.5,0 0.5,0.5z" fill="#b2b2b2" stroke="none" stroke-width="0.5" stroke-linecap="butt"/><path d="M235.23787,161.042c0.2236,0.44721 -0.22361,0.67082 -0.22361,0.67082l-0.47619,0.23809c-1.20553,0.57194 -2.80139,0.40814 -3.93323,-0.25656c0,0 -0.42874,-0.25725 -0.17149,-0.68599c0.25725,-0.42874 0.68599,-0.1715 0.68599,-0.1715c0.79143,0.48792 2.12901,0.67517 2.97153,0.21963l0.47619,-0.23809c0,0 0.44722,-0.22361 0.67082,0.22361z" fill="#b2b2b2" stroke="none" stroke-width="0.5" stroke-linecap="butt"/><path d="M237.765,161.18563c-0.15812,0.47434 -0.63245,0.31623 -0.63245,0.31623l-0.19903,-0.09339c-0.19842,0 -0.39682,0 -0.59524,0c0,0 -0.5,0 -0.5,-0.5c0,-0.5 0.5,-0.5 0.5,-0.5c0.19842,0 0.39682,0 0.59524,0l0.51525,0.14471c0,0 0.47434,0.15811 0.31623,0.63245z" fill="#b2b2b2" stroke="none" stroke-width="0.5" stroke-linecap="butt"/><path d="M253.26685,153.17037c0,0.5 -0.5,0.5 -0.5,0.5c-0.19842,0 -0.87301,0 -1.07143,0c-1.87314,0 -3.4357,-1.21729 -5.19685,-1.07313c-2.06026,0.16865 -3.55722,1.54933 -5.87457,1.54933c0,0 -0.5,0 -0.5,-0.5c0,-0.5 0.5,-0.5 0.5,-0.5c2.32787,0 3.66481,-1.33735 5.79209,-1.54592c1.85522,-0.1819 3.37499,1.06973 5.27934,1.06973c0.19842,0 0.39683,0 0.59524,0h0.47619c0,0 0.5,0 0.5,0.5z" fill="#b2b2b2" stroke="none" stroke-width="0.5" stroke-linecap="butt"/><path d="M254.57637,156.14657c0,0.5 -0.5,0.5 -0.5,0.5h-0.59524c-0.18199,-0.00081 -0.36398,-0.00163 -0.54597,-0.00244c-2.20339,0.44068 -4.1292,-0.79124 -6.31755,-0.59451c-1.98319,0.17828 -3.56642,1.1082 -5.61549,0.70628c0,0 -0.49029,-0.09806 -0.39223,-0.58835c0.09806,-0.49029 0.58835,-0.39223 0.58835,-0.39223c1.91381,0.39146 3.47098,-0.55105 5.33689,-0.72229c2.18432,-0.20047 4.13193,1.02988 6.30149,0.59597c0.21483,-0.00081 0.42967,-0.00162 0.64451,-0.00243h0.59524c0,0 0.5,0 0.5,0.5z" fill="#b2b2b2" stroke="none" stroke-width="0.5" stroke-linecap="butt"/><path d="M255.05256,159.71799c0,0.5 -0.5,0.5 -0.5,0.5l-0.37813,-0.00971c-0.50114,0.0983 -1.01595,0.12735 -1.52663,0.12876c-3.97306,-0.01454 -7.35672,-0.56637 -11.33051,0.22839c0,0 -0.49029,0.09805 -0.58835,-0.39223c-0.09806,-0.49029 0.39223,-0.58835 0.39223,-0.58835c4.04435,-0.80887 7.49721,-0.23496 11.52663,-0.2478c0.445,0.00138 0.89453,-0.02016 1.33051,-0.10934l0.57425,-0.00971c0,0 0.5,0 0.5,0.5z" fill="#b2b2b2" stroke="none" stroke-width="0.5" stroke-linecap="butt"/><path d="M238.21739,133.72972c0,-2.18563 1.77181,-3.95746 3.95746,-3.95746c2.18563,0 3.95746,1.77181 3.95746,3.95746c0,2.18563 -1.77181,3.95746 -3.95746,3.95746c-2.18563,0 -3.95746,-1.77181 -3.95746,-3.95746z" fill="#e63b3b" stroke="none" stroke-width="0" stroke-linecap="butt"/><path d="M148.54712,125.01837c0,0 3.83818,-0.2369 5.75554,-0.1825c4.50581,0.12807 8.97276,0.75033 13.48445,0.7299c2.29818,-0.01021 4.4452,-0.77446 6.74223,-0.82116c3.73089,-0.07592 11.18219,0.45623 11.18219,0.45623" fill="none" stroke="#91804e" stroke-width="0" stroke-linecap="round"/></g></g></svg>