<svg version="1.1" xmlns="http://www.w3.org/2000/svg" xmlns:xlink="http://www.w3.org/1999/xlink" width="555.24066" height="460.9186" viewBox="0,0,555.24066,460.9186"><defs><linearGradient x1="422.80453" y1="341.07088" x2="480.55554" y2="341.07088" gradientUnits="userSpaceOnUse" id="color-1"><stop offset="0" stop-color="#242231"/><stop offset="1" stop-color="#223130"/></linearGradient><linearGradient x1="-113.20544" y1="114.07458" x2="20.79456" y2="114.07458" gradientUnits="userSpaceOnUse" id="color-2"><stop offset="0" stop-color="#22272d"/><stop offset="1" stop-color="#1e1a17"/></linearGradient><linearGradient x1="599.85646" y1="82.17964" x2="465.85647" y2="82.17964" gradientUnits="userSpaceOnUse" id="color-3"><stop offset="0" stop-color="#22272d"/><stop offset="1" stop-color="#1e1a17"/></linearGradient></defs><g transform="translate(34.29482,44.27894)"><g data-paper-data="{&quot;isPaintingLayer&quot;:true}" fill-rule="nonzero" stroke-linejoin="miter" stroke-miterlimit="10" stroke-dasharray="" stroke-dashoffset="0" style="mix-blend-mode: normal"><path d="M406.33202,191.92295l22.36338,-2.58955l26.24933,-0.54592l15.15558,3.70407l3.6014,18.18399l8.58421,5.6781l4.23783,13.86442l-0.28453,16.14035l-90.36952,-11.84347z" fill="#242124" stroke="#0c120c" stroke-width="1" stroke-linecap="round"/><g data-paper-data="{&quot;index&quot;:null}" fill="#242124" stroke="#0c120c" stroke-width="1" stroke-linecap="round"><path d="M339.24465,250.6825l-56.50154,7.40487l-0.17789,-10.0914l2.64961,-8.66842l5.36709,-3.55011l2.25169,-11.36914l9.4757,-2.31589l16.41181,0.34132l13.98221,1.61906z"/><path d="M290.80506,255.05999l-1.32637,-9.0024l14.97543,-4.96575"/><path d="M306.95159,253.60083l-3.55856,-19.71091l3.18015,-5.06745l13.07639,-0.08704l5.52236,1.94571l4.33176,20.51678"/><path d="M328.04467,241.29526l7.68667,-1.13252"/><path d="M304.14358,230.1002l-3.84333,0.56625l-3.49068,-5.92418"/><path d="M322.47704,230.15839l1.12585,-5.68457"/><path d="M299.65968,230.76083l-7.68667,1.13251"/><path d="M289.23604,248.85269l-1.32637,-9.00241"/></g><g data-paper-data="{&quot;index&quot;:null}" fill="#242124" stroke="#0c120c" stroke-width="1" stroke-linecap="round"><path d="M108.47541,266.62997l-56.50154,7.40487l-0.17789,-10.0914l2.64961,-8.66842l5.36709,-3.55011l2.25169,-11.36914l9.4757,-2.31589l16.41181,0.34132l13.98221,1.61906z"/><path d="M60.03582,271.00746l-1.32637,-9.0024l14.97543,-4.96575"/><path d="M76.18235,269.5483l-3.55856,-19.71092l3.18015,-5.06746l13.07639,-0.08704l5.52236,1.94571l4.33176,20.51678"/><path d="M104.96211,256.11021l-7.68667,1.13251"/><path d="M73.37435,246.04767l-3.84333,0.56626l-3.49068,-5.92418"/><path d="M92.83367,240.42128l-1.12585,5.68457"/><path d="M68.89046,246.7083l-7.68667,1.13251"/><path d="M58.46681,264.80016l-1.32637,-9.00241"/></g><path d="" data-paper-data="{&quot;noHover&quot;:false,&quot;origItem&quot;:[&quot;Path&quot;,{&quot;applyMatrix&quot;:true,&quot;segments&quot;:[[[466.70064,646.41478],[0,0],[-0.46558,1.08789]],[465.53553,648.2022],[464.40075,644.93936],[[463.21082,644.176],[0,0],[0.61134,0.81242]],[[464.07675,645.75219],[0,0],[4.13726,12.41179]],[[462.68165,681.75562],[3.38102,-12.22195],[-1.35873,4.91163]],[[461.26239,700.0304],[-3.41054,-3.41054],[0.38945,0.38945]],[[460.9696,698.40427],[0.0976,0.54204],[4.56201,1.95515]],[[476.12066,699.14929],[-4.70055,2.40721],[5.49623,-2.81468]],[[493.35001,685.76001],[-6.58431,0.77838],[10.52138,-1.24381]],[[517.08895,695.65169],[-8.92096,-2.92165],[8.2024,3.0759]],[[544,700.33333],[-8.83625,0.95496],[7.9731,-0.86167]],[[565.13113,687.13113],[-5.35217,5.36942],[2.2423,-2.24953]],[[571.96255,679.90512],[-0.9533,3.04546],[2.3545,-4.2381]],[[574.33333,662],[1.92804,4.7234],[-0.27509,-0.67392]],[[574.13241,664.17444],[0.70927,-0.16364],[-1.65477,0.38177]],[[570.09381,661.06867],[1.38446,0.98351],[-3.69411,-2.62425]],[[558.07692,654.94872],[4.18,1.73469],[-5.55538,-2.30547]],[[540.83581,650.97519],[6.02128,0.31832],[-2.04322,-0.10802]],[[534.42228,651.68165],[1.67076,-1.25006],[-4.30422,1.61408]],[[521.30293,657.26239],[3.99321,-2.29055],[-3.61659,2.07452]],[[508.90619,666.73533],[4.09182,-0.55891],[-2.47515,0.33808]],[[501.41886,666.41008],[2.47842,0.31319],[-10.2974,-1.30125]],[[481.0304,646.92906],[9.40811,1.79878],[-2.95279,-1.26548]],[[470,645],[3.27105,-1.14877],[-0.29316,0.10296]],[[470.57286,645.73533],[0.18368,-0.25061],[-0.56503,0.77092]],[[468.23952,647.402],[0.77778,-0.55556],[0,0]]],&quot;closed&quot;:true}],&quot;index&quot;:null}" fill="url(#color-1)" stroke="none" stroke-width="0.5" stroke-linecap="butt"/><path d="M68.55074,285.68154" data-paper-data="{&quot;index&quot;:null}" fill="none" stroke="#886584" stroke-width="1.5" stroke-linecap="round"/><path d="" data-paper-data="{&quot;index&quot;:null}" fill="none" stroke="#886584" stroke-width="1.5" stroke-linecap="round"/><path d="M-33.20544,-11.18714l41.32833,6.93808l3.06191,24.75235l4,51.00938l97.61351,-8.55722l14,-10l-8,12l-102.0469,38.37149l-38.95684,37.24765z" fill="url(#color-2)" stroke="#1a150f" stroke-width="2" stroke-linecap="round"/><path d="M508.85647,108.67965l-38.95684,-37.24765l-101.10882,10.40901l3.25704,-20.44278l99.41838,-21.78048l4,-51.00938l3.06191,-24.75234l41.32833,-6.93809z" data-paper-data="{&quot;index&quot;:null}" fill="url(#color-3)" stroke="#1a150f" stroke-width="2" stroke-linecap="round"/><path d="M436.48211,192.86731l-26.48851,12.89264l-5.30163,-7.05492" fill="none" stroke="#0c120c" stroke-width="1" stroke-linecap="round"/><path d="M413.13079,229.64736l1.31663,-4.66566l21.80028,-5.62588l3.51617,0.46883l38.67792,-2.57853" fill="none" stroke="#0c120c" stroke-width="1" stroke-linecap="round"/><path d="M402.11345,229.88177l5.06721,-7.47859l58.36849,-21.33146l-1.87529,7.26676l-6.0947,6.56352l-8.8178,-7.05492" fill="none" stroke="#0c120c" stroke-width="1" stroke-linecap="round"/><path d="M401.87903,212.06649l8.58339,1.66346l32.81763,-12.65823l3.28176,-7.73559l14.0647,5.15706l-1.78546,5.13448" fill="none" stroke="#0c120c" stroke-width="1" stroke-linecap="round"/><path d="M421.10079,202.92443l2.34412,3.985" fill="none" stroke="#0c120c" stroke-width="1" stroke-linecap="round"/><path d="M443.6043,201.04914l0.23441,7.97" fill="none" stroke="#0c120c" stroke-width="1" stroke-linecap="round"/><path d="M431.64931,225.66236l4.92264,-6.56352" fill="none" stroke="#0c120c" stroke-width="1" stroke-linecap="round"/><path d="M400.00374,219.33325l7.50117,3.04735" fill="none" stroke="#0c120c" stroke-width="1" stroke-linecap="round"/><path d="M465.79849,201.00097l4.81178,16.27512" fill="none" stroke="#0c120c" stroke-width="1" stroke-linecap="round"/><path d="M470.96664,243.63212l-4.56896,29.29323l-2.52937,135.87821l-30.83242,-1.73872l-104.11719,-119.34617l-65.86802,-6.84067l0.50964,134.51687l-34.80858,-18.32142l-44.95349,-122.67726l-137.98923,27.07581l-35.63103,-26.75029l348.97898,-37.77731l135.53911,-20.07569z" data-paper-data="{&quot;index&quot;:null}" fill="#242124" stroke="#1c181c" stroke-width="1.5" stroke-linecap="round"/><path d="M455.35799,238.33198c-0.67795,0.5865 -1.32612,1.20705 -1.94101,1.86347c0.32433,1.70806 -0.52658,3.51126 -0.76471,5.2578c-0.74832,5.4885 -1.65124,10.98258 -2.62958,16.43408c-2.64637,14.74611 -4.37841,29.56041 -6.84477,44.33147c-0.52842,3.1647 -1.48755,6.27709 -2.34828,9.38995c0.02748,0.82666 0.06487,1.6563 0.11327,2.4897c0.40906,7.04393 2.04155,13.96732 -0.1867,20.9627c-1.15866,3.63752 -4.5352,9.19574 -8.76547,9.72447c-2.50673,0.31331 -5.66708,-2.2931 -7.43175,-3.90118c-2.72353,-2.48185 -5.06068,-5.37532 -7.48143,-8.14191c-2.7304,-3.19277 -4.9494,-6.63511 -7.37819,-10.04051c-6.47857,-9.08357 -13.55887,-17.54352 -19.43265,-27.03353c-0.45336,-0.73247 -0.90803,-1.45515 -1.35836,-2.17347c-0.14159,0.04965 -0.28359,0.09794 -0.42601,0.14484c-3.16852,1.0434 -7.16925,1.32657 -10.25046,-0.31817c-4.12369,-2.20121 -4.59669,-7.92669 -4.79305,-11.88981c-0.22478,-4.53677 0.6114,-9.85221 2.38038,-14.79537c-3.87224,-1.63227 -8.00639,-2.19203 -12.19289,-2.40138c-6.02058,-0.30108 -11.94315,0.75645 -17.94437,0.98075c-10.49986,0.39243 -21.09471,0.67211 -31.53797,1.95209c-21.91585,0.01563 -43.76121,0.93481 -65.60445,2.58133c-4.64369,0.93518 -9.41913,1.66715 -14.11932,2.24768l-0.44023,0.11006c-0.02251,0.16313 -0.04503,0.32639 -0.06753,0.48977c0.12909,2.91244 0.52889,5.82981 0.8494,8.36537c1.14954,5.31392 1.38272,11.08992 1.98847,16.52875c1.24265,11.15733 1.92697,21.98002 1.32428,33.20488c-0.23213,4.32334 -0.68795,11.32772 -3.65197,14.87628c-0.0363,0.04346 -0.07286,0.08667 -0.10966,0.12964l0.03199,0.01778l-1.59441,2.86994c-0.62972,1.18635 -1.87773,1.99432 -3.31446,1.99432c-1.78463,0 -3.27809,-1.24664 -3.65706,-2.9166l-0.63329,-2.53316l0.01855,-0.00464l-0.03019,-0.0433c-1.97314,-8.87912 -4.6896,-17.18727 -5.30835,-26.3476c-0.88619,-10.73382 -0.8026,-22.10653 0.70976,-32.93381c-0.64334,-1.29623 -0.28214,-2.74102 -0.28214,-2.74102l0.21419,-0.39512c0.02205,-2.40741 0.50005,-4.41022 0.97404,-6.59108c-0.58655,1.41582 -1.2619,2.79602 -2.07171,4.1205c-0.76998,1.25935 -1.14928,3.11393 -2.53079,3.63383c-2.23721,0.84192 -5.18094,1.34129 -7.17115,0.01726c-1.60073,-1.06492 -1.06331,-3.71567 -1.2625,-5.62793c-0.36175,-3.47273 0.82911,-7.06943 1.9455,-10.48601c0.07964,-0.86464 0.40161,-1.50858 0.40161,-1.50858c0.06553,-0.12467 0.13289,-0.24924 0.20203,-0.37365c0.17692,-0.57209 0.34279,-1.13725 0.48943,-1.69393c0.24284,-0.92193 0.8791,-4.97922 -0.154,-5.00394c-7.6866,-0.65416 -15.19222,0.75413 -22.77032,1.78898c-14.1795,1.93631 -27.74669,4.09823 -41.32853,8.62552c-3.08111,1.15625 -6.12352,2.46222 -9.37548,3.08783c-5.49349,1.05681 -11.14598,0.67478 -16.67266,1.63772c-8.86249,1.54417 -17.6457,3.64135 -26.56055,4.91429c-8.73369,1.24707 -31.92932,5.63628 -41.29996,3.81023c0,0 -3.67717,-0.73543 -2.94174,-4.41261c0.73543,-3.67718 4.41262,-2.94175 4.41262,-2.94175c8.52274,1.75932 30.24748,-2.66236 38.82528,-3.88839c8.81991,-1.26063 17.50753,-3.34796 26.27702,-4.87045c5.50426,-0.9556 11.13288,-0.59641 16.59545,-1.62385c2.83461,-0.53316 5.5516,-1.77666 8.23704,-2.78301c14.07524,-4.69175 28.13043,-6.98683 42.82019,-8.98701c8.75519,-1.19212 17.31591,-2.74124 26.15336,-1.4726c1.36213,0.86593 3.09356,1.32518 4.08639,2.59778c0.66368,0.85071 1.10366,1.781 1.37214,2.76277c1.16253,-0.73169 2.37982,-1.35621 3.62457,-1.84117c1.00784,-0.87131 2.07995,-1.64024 3.27344,-1.42487c0.36936,0.06666 0.71389,0.1869 1.03941,0.34821c2.02235,-0.32673 4.62033,-1.29024 5.88333,0.21272c0.47315,0.56304 0.73623,1.22272 0.86492,1.93807c1.00307,0.67302 1.66325,1.81753 1.66325,3.11623v2.04569c3.9272,-1.60951 8.4761,-2.23003 12.58821,-3.30288c9.11857,-2.37905 18.42457,-2.79161 27.7646,-3.13347c10.51639,-1.9382 21.0414,-3.7913 31.77431,-4.94151c6.13471,-0.65729 11.98714,-1.08786 18.13487,-1.49726c15.55725,-1.03601 30.9642,-2.29129 46.56204,-2.29129c4.97177,0 10.79789,-1.13315 14.77902,2.79004c0.51617,0.50865 0.95482,1.07033 1.32439,1.67418c0.37235,-0.22347 0.74126,-0.45137 1.10271,-0.6889c0,0 2.13815,-1.38351 4.03053,-0.10823c4.70416,-0.10666 9.72183,1.37078 13.00384,4.3855c1.42346,0.44673 2.65357,1.17062 3.41447,2.27981c1.02396,1.49266 0.7978,3.59544 0.61091,5.39588c-0.06801,0.6551 -0.2081,1.2851 -0.4025,1.89441c0.78845,0.97358 1.38102,2.14909 1.70024,3.6157c0.94522,4.3426 -3.0954,8.52004 -5.24766,11.73843c-3.0926,3.72582 -6.80604,7.56647 -11.02848,10.44288c0.38299,0.59539 0.76497,1.19363 1.13958,1.79867c5.74945,9.286 12.69885,17.57129 19.05398,26.45635c2.3064,3.22456 4.37765,6.50917 6.97275,9.52896c0.61555,0.70348 1.22565,1.41339 1.83839,2.12144c-0.22489,-0.88396 -0.40666,-1.89786 -0.56636,-3.11524l-0.32616,-2.60926c0,0 -0.46513,-3.72104 3.25592,-4.18617c0.25252,-0.03157 0.49005,-0.04385 0.71346,-0.03933c0.35516,-1.49961 0.77357,-2.95387 0.94144,-4.00946c0.57818,-3.63557 0.77041,-7.36108 1.29314,-11.01273c0.77048,-5.38235 1.54256,-10.78515 2.26986,-16.18892c0.37811,-4.2461 0.80666,-8.45472 1.49621,-12.67115c0.18358,-1.81404 0.41911,-3.62087 0.87097,-5.431c0.24496,-0.98131 0.53272,-1.93631 0.83628,-2.88047c0.64778,-2.81802 1.61815,-6.91764 2.09778,-7.88342l0.94117,-4.39212c0.15861,-0.82166 0.58544,-1.54776 1.18576,-2.08359c1.11953,-4.496 2.04581,-9.05042 3.22364,-13.53057c-0.15404,-1.31032 0.48037,-2.45224 0.48037,-2.45224c0.12906,-0.22928 0.2604,-0.45612 0.39398,-0.68054c0.2328,-0.78269 0.47665,-1.56212 0.73401,-2.33753l0.05138,-0.05486l-0.02761,-0.01036l0.16168,-0.43116c-0.02872,-0.05291 -0.05701,-0.10716 -0.08483,-0.1628c-1.67705,-3.3541 1.67705,-5.03116 1.67705,-5.03116l2.16819,-0.95891c1.39959,-0.30852 2.77499,-0.51617 4.1488,-0.68554c10.3813,-7.66493 24.88078,-9.85618 37.6418,-9.83507l0.19869,0.0897l0.00806,-0.07251l2.89045,0.32117c1.8978,0.18544 3.38085,1.78555 3.38085,3.73206c0,1.03554 -0.41974,1.97304 -1.09835,2.65165l-1.95695,1.95694l-0.08008,-0.08008c-0.137,0.17609 -0.28177,0.34661 -0.43559,0.51065c-2.69135,2.87037 -9.82357,3.46581 -13.43658,3.90333c-3.71897,0.45035 -7.38584,0.47158 -11.06603,1.24638c-3.097,0.65202 -5.90789,1.88832 -9.07256,2.33056c-1.40771,0.19672 -2.77682,0.32312 -4.13725,0.46171zM383.10239,291.06721c-0.72152,-0.28456 -1.27938,-0.64476 -1.72128,-1.06905c0.09744,0.39515 0.27328,0.71943 0.62904,0.84473c0.35834,0.12622 0.72355,0.19768 1.09224,0.22432z" fill="#241a24" stroke="none" stroke-width="0.5" stroke-linecap="butt"/><path d="M28.8997,287.33937c-0.73544,-3.67718 2.94174,-4.41261 2.94174,-4.41261l2.36622,-0.39898c5.73167,0 11.40071,-0.39457 17.11644,-0.64846c4.26171,-0.18931 8.30082,-1.28494 12.56393,-1.30848c0,0 3.75,0 3.75,3.75c0,3.75 -3.75,3.75 -3.75,3.75c-4.11344,-0.02926 -8.0908,1.10888 -12.22407,1.30078c-5.82582,0.27048 -11.61244,0.65617 -17.4563,0.65617l-0.89535,0.25334c0,0 -3.67718,0.73544 -4.41261,-2.94174z" fill="#241a24" stroke="none" stroke-width="0.5" stroke-linecap="butt"/></g></g></svg>