<svg version="1.1" xmlns="http://www.w3.org/2000/svg" xmlns:xlink="http://www.w3.org/1999/xlink" width="59.36608" height="52.89832" viewBox="0,0,59.36608,52.89832"><g transform="translate(-210.31697,-153.55084)"><g data-paper-data="{&quot;isPaintingLayer&quot;:true}" fill-rule="nonzero" stroke="none" stroke-linejoin="miter" stroke-miterlimit="10" stroke-dasharray="" stroke-dashoffset="0" style="mix-blend-mode: normal"><g><path d="M269.47024,183.76688c-0.46928,7.50315 -6.30323,13.46736 -30.55162,13.89604c-23.3835,-0.15636 -28.04017,-8.75009 -28.55292,-14.69649c-0.51274,-5.9464 2.61756,-29.54057 28.96117,-29.41509c27.84484,0.13263 30.66171,21.92796 30.14337,30.21554z" fill="#ff1919" stroke-width="0.93172" stroke-linecap="round"/><path d="M231.74331,173.72483c0,-6.00771 3.3741,-10.84239 12.25107,-10.87791c8.1718,-0.03269 12.25106,4.87021 12.25106,10.87791c0,6.00771 -2.53092,10.76001 -12.25106,10.87791c-7.89062,0.0957 -12.25107,-4.87021 -12.25107,-10.87791z" fill="#ffffff" stroke-width="0" stroke-linecap="butt"/><path d="M226.70264,179.62576c0.69813,3.27704 0.00439,6.37705 -4.93006,7.69576c-4.59753,1.22866 -7.86659,-0.79555 -8.56473,-4.07259c-0.69813,-3.27705 0.84453,-6.88008 5.2357,-8.0978c5.12167,-1.42028 7.56095,1.19759 8.25907,4.47463z" fill="#ffffff" stroke-width="0" stroke-linecap="butt"/><path d="M226.17828,167.00154c-7.83354,2.99656 -10.84428,-1.94965 -10.84428,-1.94965c0,0 2.81854,-5.48914 7.85952,-8.01511c6.46186,-3.23796 10.55625,-3.19393 10.55625,-3.19393c0,0 1.53927,9.67354 -7.5715,13.15869z" fill="#ffffff" stroke-width="0" stroke-linecap="butt"/><path d="M258.56277,165.98003c-5.60825,-3.72051 -4.66125,-9.784 -4.66125,-9.784c0,0 3.4634,1.01583 7.71014,4.82654c4.30838,3.86602 4.79214,7.0032 4.79214,7.0032c0,0 -2.99079,1.1719 -7.84104,-2.04574z" fill="#ffffff" stroke-width="0" stroke-linecap="butt"/><path d="M263.09057,193.40957c0,0 -3.46079,-4.09298 -0.79215,-8.55615c3.14011,-5.25168 7.33586,-3.26229 7.33586,-3.26229c0,0 0.47663,4.18871 -1.55009,7.48324c-1.89354,3.07802 -4.99362,4.33521 -4.99362,4.33521z" fill="#ffffff" stroke-width="0" stroke-linecap="butt"/></g><path d="M257.71612,197.56642c-0.06551,4.10605 -0.75384,8.60526 -18.40721,8.87393c-17.65684,0.26872 -16.95882,-5.67328 -17.0544,-9.39301c-0.13261,-5.1608 3.41775,-9.68433 17.30867,-9.68628c15.9239,0.12071 18.22679,5.57591 18.15293,10.20537z" fill="#ffdea8" stroke-width="1" stroke-linecap="butt"/><path d="M244.77069,191.12522c1.5935,0 2.11747,1.59167 2.11747,5.33019c0,3.60605 -0.66531,5.3302 -2.11747,5.3302c-1.45215,0 -2.11748,-1.85661 -2.11748,-5.3302c0,-3.73852 0.52398,-5.3302 2.11748,-5.3302z" fill="#000000" stroke-width="0" stroke-linecap="butt"/><path d="M234.96032,191.15297c1.5935,0 2.11746,1.59168 2.11746,5.3302c0,3.60605 -0.66531,5.3302 -2.11746,5.3302c-1.45216,0 -2.11748,-1.85661 -2.11748,-5.3302c0,-3.73852 0.52398,-5.3302 2.11748,-5.3302z" fill="#000000" stroke-width="0" stroke-linecap="butt"/></g></g></svg>