<svg version="1.1" xmlns="http://www.w3.org/2000/svg" xmlns:xlink="http://www.w3.org/1999/xlink" width="89.62625" height="176.90333" viewBox="0,0,89.62625,176.90333"><defs><linearGradient x1="230.17934" y1="245.0675" x2="268.91415" y2="245.0675" gradientUnits="userSpaceOnUse" id="color-1"><stop offset="0" stop-color="#8e4108"/><stop offset="1" stop-color="#be6d2f"/></linearGradient><linearGradient x1="209.00964" y1="245.98727" x2="247.97202" y2="245.98727" gradientUnits="userSpaceOnUse" id="color-2"><stop offset="0" stop-color="#8e4108"/><stop offset="1" stop-color="#be6d2f"/></linearGradient><linearGradient x1="237.98182" y1="170.90759" x2="237.98182" y2="221.27829" gradientUnits="userSpaceOnUse" id="color-3"><stop offset="0" stop-color="#0052ef"/><stop offset="1" stop-color="#004bd6"/></linearGradient><linearGradient x1="270.44599" y1="117.63054" x2="270.44599" y2="130.95389" gradientUnits="userSpaceOnUse" id="color-4"><stop offset="0" stop-color="#bc041a"/><stop offset="1" stop-color="#880010"/></linearGradient><linearGradient x1="250.71855" y1="110.20761" x2="250.71855" y2="128.22296" gradientUnits="userSpaceOnUse" id="color-5"><stop offset="0" stop-color="#bc041a"/><stop offset="1" stop-color="#a90216"/></linearGradient></defs><g transform="translate(-194.26171,-83.66498)"><g data-paper-data="{&quot;isPaintingLayer&quot;:true}" fill="none" fill-rule="nonzero" stroke="none" stroke-width="none" stroke-linecap="none" stroke-linejoin="miter" stroke-miterlimit="10" stroke-dasharray="" stroke-dashoffset="0" font-family="none" font-weight="none" font-size="none" text-anchor="none" style="mix-blend-mode: normal"><g data-paper-data="{&quot;origPos&quot;:null,&quot;index&quot;:null,&quot;origRot&quot;:0}" stroke="none" stroke-width="0" stroke-linecap="butt"><path d="M258.74177,168.5332c5.15987,1.27782 7.72646,11.54931 5.38656,20.9979c-2.33991,9.4486 -5.97521,18.0807 -5.97521,18.0807l-15.52835,-3.65697c0,0 1.85088,-15.22319 3.73289,-22.82279c2.33991,-9.4486 7.22424,-13.87665 12.38411,-12.59884z" data-paper-data="{&quot;origRot&quot;:0,&quot;origPos&quot;:null}" fill="#ff0021"/><g data-paper-data="{&quot;origPos&quot;:null}" fill="#ffffff"><path d="M248.40842,210.45933c9.20739,1.83693 20.49737,4.62058 17.99726,14.19631c-1.81373,6.94683 -13.49953,14.84193 -22.06684,11.00114c-9.34889,-4.19118 -18.35519,-6.43113 -14.54762,-16.87258c3.55526,-9.74954 9.40981,-10.1618 18.6172,-8.32487z" data-paper-data="{&quot;origRot&quot;:0,&quot;origPos&quot;:null}"/><path d="M251.19169,203.04074c7.10677,1.42757 15.49362,1.67022 13.9636,7.03485c-1.71162,6.00139 -3.48798,5.26566 -15.04386,2.64587c-13.16429,-2.98444 -15.71965,-1.04394 -14.16365,-7.71307c0.90859,-3.89431 8.13714,-3.39521 15.24391,-1.96765z" data-paper-data="{&quot;origRot&quot;:0,&quot;origPos&quot;:null}"/></g></g><g data-paper-data="{&quot;origPos&quot;:null,&quot;origRot&quot;:0}" stroke="none" stroke-width="0" stroke-linecap="butt"><path d="M257.60774,229.80108c0.82579,4.49404 6.17116,5.61366 6.14172,6.65075c-0.11916,4.19607 -1.70324,7.34427 -8.27509,10.15097c-8.14071,3.47671 -14.84827,3.76229 -22.98803,0.28337c-5.54389,-2.36945 -1.34374,-5.56453 -0.10451,-11.46481c0.44468,-2.11718 0.62726,-4.83535 0.43767,-10.26846c-0.23704,-6.79281 1.81403,-19.48294 1.81403,-19.48294c0,0 5.18675,-1.48019 10.39751,-2.22532c5.16146,-0.68249 10.57143,0.77946 10.57143,0.77946c0,0 0.09638,15.18846 2.00528,25.57698z" data-paper-data="{&quot;origPos&quot;:null}" fill="#004bd6"/><path d="M267.52666,250.91202c0.49372,3.86711 -3.20877,6.19152 -6.80634,7.69344c-2.35765,0.98427 -14.25282,2.15047 -20.57331,-0.54316c-1.96224,-0.83626 -3.75487,-3.07451 -3.75487,-3.07451c0,0 -4.9,1.39127 -5.07014,-0.05557c-0.13506,-1.14852 -0.4133,-3.09814 0.62218,-3.83535c4.45724,-3.1733 15.79074,-4.61404 21.21813,-5.30695c7.4506,-0.95122 13.88173,1.34202 14.36433,5.12211z" data-paper-data="{&quot;origPos&quot;:null}" fill="#f9c869"/><path d="M268.77578,245.81567c-0.77762,4.69956 -4.89487,8.51344 -13.31788,9.58881c-8.42301,1.07537 -18.05721,-2.65961 -18.05721,-2.65961c0,0 -6.05694,1.09955 -6.38005,-0.44921c-0.66876,-3.20554 -1.40162,-8.48162 -0.19805,-8.81084c4.44321,-1.21541 3.66707,-0.49374 9.42216,-2.51413c3.72614,-1.3081 9.65998,-5.77566 13.57728,-6.27578c8.42301,-1.07537 16.23412,3.38286 14.95376,11.12076z" data-paper-data="{&quot;origPos&quot;:null}" fill="url(#color-1)"/></g><g data-paper-data="{&quot;origPos&quot;:null,&quot;origRot&quot;:0}" stroke="none" stroke-width="0" stroke-linecap="butt"><path d="M239.8322,231.69256c-0.16562,4.56628 4.81115,6.81537 4.55813,7.82155c-1.02376,4.071 -3.25117,6.80215 -10.27448,8.12122c-8.69993,1.63397 -15.31052,0.46225 -22.50535,-4.69461c-4.9003,-3.51227 -0.10859,-5.72345 2.37729,-11.21612c0.892,-1.97092 1.65809,-4.58528 2.64792,-9.93083c1.23755,-6.68333 6.75401,-18.81043 6.75401,-18.81043c0,0 7.55665,0.62785 12.46541,2.00035c3.87393,1.08316 10.03913,4.29198 10.03913,4.29198c0,0 -5.67922,11.86138 -6.06207,22.41689z" data-paper-data="{&quot;origPos&quot;:null}" fill="#004bd6"/><path d="M244.95106,254.44897c-0.35425,3.88237 -4.47179,5.35109 -8.30901,6.03949c-2.51472,0.45113 -14.3806,-0.98267 -19.96902,-4.97939c-1.73496,-1.24082 -3.00113,-3.81377 -3.00113,-3.81377c0,0 -5.08492,0.2987 -4.93815,-1.1507c0.11651,-1.15055 0.26647,-3.11421 1.43687,-3.61004c5.03801,-2.1343 16.41489,-1.09001 21.8637,-0.59283c7.48001,0.68252 13.26302,4.31226 12.91674,8.10726z" data-paper-data="{&quot;origPos&quot;:null}" fill="#f9c869"/><path d="M247.27274,249.74335c-1.77552,4.42018 -6.62012,7.25345 -15.07637,6.48185c-8.45625,-0.7716 -17.05476,-6.50164 -17.05476,-6.50164c0,0 -6.1514,-0.23632 -6.13193,-1.81831c0.04028,-3.27431 0.46574,-8.58401 1.71203,-8.64518c4.60091,-0.22578 3.68707,0.31096 9.74289,-0.41704c3.92085,-0.47135 10.68042,-3.54996 14.61317,-3.19112c8.45625,0.7716 15.11841,6.81352 12.19498,14.09144z" data-paper-data="{&quot;origPos&quot;:null}" fill="url(#color-2)"/></g><g data-paper-data="{&quot;origPos&quot;:null}"><path d="M265.97766,194.07829c0.39163,21.17353 -13.11217,27.2 -28.3,27.2c-15.18783,0 -27.7,-10.03796 -27.7,-20.2c0,-11.02412 1.31852,-19.79986 9.82136,-26.81648c6.33487,-5.22759 15.46535,-2.78352 23.67864,-2.78352c15.18783,0 22.11612,1.84521 22.5,22.6z" data-paper-data="{&quot;origPos&quot;:null}" fill="url(#color-3)" stroke="none" stroke-width="0" stroke-linecap="butt"/><path d="M265.97766,193.47829c0,0 -17.24385,2 -29.4,2.4c-11.15011,0.36689 -22.4,-3.4 -22.4,-3.4c0,0 -0.98648,-13.79564 6.98462,-19.16002c5.21526,-3.50975 11.08038,-4.65914 18.61538,-4.83998c7.535,-0.18084 15.72889,2.13912 19.52206,5.21215c8.95988,7.25886 6.67794,19.78785 6.67794,19.78785z" data-paper-data="{&quot;origPos&quot;:null}" fill="#ff0021" stroke="none" stroke-width="0" stroke-linecap="butt"/><path d="M252.08548,172.3696c0,0 2.14029,6.84028 2.57206,10.95319c0.55457,5.28272 -0.57997,15.20846 -0.57997,15.20846" data-paper-data="{&quot;origPos&quot;:null,&quot;origRot&quot;:0}" fill="none" stroke="#0052ef" stroke-width="10" stroke-linecap="round"/><path d="M230.57766,172.87829c0,0 1.23985,7.05925 1.13735,11.19349c-0.13165,5.31011 -2.53735,15.00651 -2.53735,15.00651" data-paper-data="{&quot;origPos&quot;:null}" fill="none" stroke="#0052ef" stroke-width="10" stroke-linecap="round"/><path d="M225.77766,197.17829c0,-2.26436 1.83563,-4.1 4.1,-4.1c2.26436,0 4.1,1.83564 4.1,4.1c0,2.26436 -1.83563,4.1 -4.1,4.1c-2.26436,0 -4.1,-1.83563 -4.1,-4.1z" data-paper-data="{&quot;origPos&quot;:null}" fill="#ffe84f" stroke="none" stroke-width="0" stroke-linecap="butt"/><path d="M250.57766,197.17829c0,-2.26436 1.83563,-4.1 4.1,-4.1c2.26436,0 4.1,1.83564 4.1,4.1c0,2.26436 -1.83564,4.1 -4.1,4.1c-2.26436,0 -4.1,-1.83563 -4.1,-4.1z" data-paper-data="{&quot;origPos&quot;:null}" fill="#ffe84f" stroke="none" stroke-width="0" stroke-linecap="butt"/></g><g data-paper-data="{&quot;origPos&quot;:null,&quot;origRot&quot;:0}" stroke="none" stroke-width="0" stroke-linecap="butt"><path d="M230.43362,182.08733c0.49024,7.81382 -0.41577,23.12232 -0.41577,23.12232l-15.93226,0.81621c0,0 -2.03023,-9.14368 -2.63974,-18.85859c-0.60951,-9.71492 3.75551,-19.36051 9.06082,-19.69335c5.30531,-0.33285 9.31744,4.89852 9.92695,14.61344z" data-paper-data="{&quot;origRot&quot;:0,&quot;origPos&quot;:null}" fill="#ff0021"/><g data-paper-data="{&quot;origPos&quot;:null}" fill="#ffffff"><path d="M239.98741,222.09805c1.8756,10.95462 -7.38628,11.54502 -17.33473,13.99372c-9.11673,2.24399 -19.19925,-7.61671 -19.73926,-14.77607c-0.74436,-9.86868 10.86165,-10.58492 20.24916,-10.7428c9.38751,-0.15788 15.07352,1.29645 16.82482,11.52515z" data-paper-data="{&quot;origRot&quot;:0,&quot;origPos&quot;:null}"/><path d="M236.39812,207.44222c0.33618,6.84 -1.83025,4.47313 -15.31621,5.05116c-11.83825,0.5074 -13.71767,0.91303 -14.32657,-5.2979c-0.5443,-5.55193 7.75037,-4.28832 14.9979,-4.41975c7.24754,-0.13143 14.44858,0.67241 14.64488,4.66648z" data-paper-data="{&quot;origRot&quot;:0,&quot;origPos&quot;:null}"/></g></g><g><path d="M283.39953,122.35389c-0.56793,3.79329 -11.88998,8.6 -20.8,8.6c-7.1797,0 -5.4,-6.75492 -5.4,-10.4c0,-3.64508 14.0703,-2.85 21.25,-2.85c7.1797,0 5.31761,2.19464 4.95,4.65z" data-paper-data="{&quot;origPos&quot;:null}" fill="url(#color-4)" stroke="none" stroke-width="0" stroke-linecap="butt"/><path d="M210.15925,163.26629c0,0 -1.70028,1.17057 -3.5833,-0.19744c-1.88302,-1.368 -3.24721,-4.53148 -0.52143,-6.04226c3.26031,-1.80704 2.41456,-7.88485 4.29758,-6.51685c0,0 7.23293,1.02169 7.79114,3.9154c0,0 3.0507,8.35652 1.80057,9.69315c0,0 -1.78179,1.32182 -6.42716,1.10231c-2.51693,-0.11893 -3.35741,-1.95431 -3.35741,-1.95431z" data-paper-data="{&quot;origRot&quot;:0,&quot;origPos&quot;:null}" fill="#5a2c0a" stroke="none" stroke-width="0" stroke-linecap="butt"/><path d="M214.98286,124.63722c4.31396,1.0071 37.24301,-2.16822 43.0368,-1.8462c8.57182,0.47642 6.20204,8.21361 6.80713,16.77732c0.69572,9.84642 7.56286,14.33038 4.11388,23.57918c-1.32977,3.56593 -4.32109,5.43206 -7.31062,7.78723c-1.69594,1.33607 -6.42898,2.63394 -17.21721,2.85583c-15.24981,0.31365 -19.57369,-2.15552 -25.86091,-6.94741c-3.99221,-3.04272 -2.2504,-7.36559 -5.42563,-12.17258c-0.97333,-1.47352 -2.12747,-2.25956 -2.322,-2.25956c-10.37042,0 -16.07143,-8.56649 -16.07143,-16.66666c0,-8.10018 3.70101,-14.66666 9.5,-14.66666c5.79899,0 9.25,3.20935 10.75,3.55952z" data-paper-data="{&quot;origPos&quot;:null}" fill="#ffdebd" stroke="none" stroke-width="0" stroke-linecap="butt"/><path d="M263.16619,129.84363c0.35235,4.88885 -1.81808,9.02906 -4.84779,9.24741c-3.02971,0.21836 -5.7714,-3.56782 -6.12375,-8.45666c-0.35235,-4.88885 1.81808,-9.02905 4.84779,-9.24741c3.02971,-0.21836 5.77141,3.56782 6.12376,8.45666z" data-paper-data="{&quot;origPos&quot;:null,&quot;origRot&quot;:0}" fill="#ffffff" stroke="none" stroke-width="0" stroke-linecap="butt"/><path d="M225.39286,132.4607c0,2.60849 3.05805,6.42393 0.71211,7.56446c-2.72909,1.32681 -4.12613,-0.50952 -4.12613,-0.50952c0,0 0.58226,1.57572 -3.0717,2.25935c-2.71433,0.50783 -3.65714,-5.18172 -3.65714,-9.6c0,-4.41828 -0.01669,-8.69821 2.74286,-8.8c11.61857,-0.42857 7.4,4.66744 7.4,9.08571z" data-paper-data="{&quot;origPos&quot;:null}" fill="#5a2c0a" stroke="none" stroke-width="0" stroke-linecap="butt"/><path d="M250.14298,134.84835c0.57094,4.86816 -1.41189,9.10142 -4.42877,9.45524c-3.01689,0.35383 -5.92541,-3.30577 -6.49635,-8.17393c-0.57094,-4.86816 1.41189,-9.10142 4.42877,-9.45524c3.01689,-0.35383 5.92541,3.30577 6.49635,8.17393z" data-paper-data="{&quot;origPos&quot;:null,&quot;origRot&quot;:0}" fill="#ffffff" stroke="none" stroke-width="0" stroke-linecap="butt"/><path d="M247.35,131.20001c0.952,0 1.814,0.695 2.439,1.817c0.624,1.122 1.011,2.672 1.011,4.383c0,1.711 -0.387,3.261 -1.011,4.383c-0.625,1.122 -1.487,1.817 -2.439,1.817c-0.952,0 -1.814,-0.695 -2.439,-1.817c-0.624,-1.122 -1.011,-2.672 -1.011,-4.383c0,-1.711 0.387,-3.261 1.011,-4.383c0.625,-1.122 1.487,-1.817 2.439,-1.817z" data-paper-data="{&quot;origPos&quot;:null}" id="ID0.2989244391210377" fill="#000000" stroke="none" stroke-width="1" stroke-linecap="butt"/><path d="M260.35,126.65001c0.952,0 1.814,0.695 2.439,1.817c0.624,1.122 0.775,2.904 1.011,4.383c0.083,0.539 0.233,1.323 -0.15,1.8c-0.483,0.577 -1.281,0.853 -2,1.1c-1.256,0.26 -2.748,1.037 -3.85,0.4c-0.966,-0.58 -0.89,-2.138 -0.9,-3.3c-0.013,-1.501 0.387,-3.261 1.011,-4.383c0.625,-1.122 1.487,-1.817 2.439,-1.817z" data-paper-data="{&quot;origPos&quot;:null}" id="ID0.2989244391210377" fill="#000000" stroke="none" stroke-width="1" stroke-linecap="round"/><path d="M269.29349,95.32854c2.39648,14.94461 -0.49216,15.79448 -8.52168,20.57884c-11.69967,6.97121 -27.00365,5.55994 -39.50062,10.97342c-3.28137,1.42143 -11.64483,-2.03217 -15.22084,-2.03217c-7.31398,0 -11.44089,-5.22725 -11.74313,-11.45342c-0.66666,-13.7335 6.09582,-13.78676 13.4098,-13.78676c0,0 8.04926,1.33414 10.82961,5.60456c0,0 11.19763,-18.21899 23.00151,-20.46979c15.1949,-2.89741 26.02436,-0.14688 27.74535,10.58532z" data-paper-data="{&quot;origPos&quot;:null}" fill="#ff0021" stroke="none" stroke-width="0" stroke-linecap="butt"/><path d="M266.39953,103.85389c0,5.46762 -1.46317,9.58116 -12.2,9.9c-11.33464,0.33659 -12.2,-4.43238 -12.2,-9.9c0,-5.46762 5.46212,-9.9 12.2,-9.9c6.73787,0 12.2,4.43238 12.2,9.9z" data-paper-data="{&quot;origPos&quot;:null}" fill="#ffffff" stroke="none" stroke-width="0" stroke-linecap="butt"/><path d="M283.79953,120.25389c-0.2,0.85848 -39.34284,6.5 -50.3,7.7c-5.32532,0.58322 -16.1,0.15848 -15.9,-0.7c0.73933,-3.1735 2.8049,-8.24498 7.9,-9.9c6.15716,-2 27.29511,-7.38005 43.10212,-7.1384c6.46182,0.09879 15.93721,6.8649 15.19788,10.0384z" data-paper-data="{&quot;origPos&quot;:null}" fill="url(#color-5)" stroke="none" stroke-width="0" stroke-linecap="butt"/><path d="M245.79953,109.57611l4.82784,-12.82222l4.40385,5.93838l2.72355,-5.30956l5.33279,10.08214l-3.65873,2.20988l-1.51788,-7.64078l-2.71476,4.66865l-3.5719,-4.6906l-1.52983,7.56411z" data-paper-data="{&quot;origPos&quot;:null}" fill="#ff0021" stroke="none" stroke-width="0" stroke-linecap="butt"/><path d="M268.30542,163.48899c-0.3711,2.54836 -2.29609,3.82599 -3.74172,4.218c-4.4121,1.19644 -10.83865,1.02213 -15.21565,-0.29692c-2.51556,-0.75809 -2.56024,-2.38549 -2.80313,-2.61298c-0.25663,-0.24036 -2.96973,1.56689 -6.23949,1.56689c-5.2467,0 -8.875,-3.69733 -8.875,-8.875c0,-5.67767 0.49272,-8.8327 1.34672,-8.99605c4.97377,-0.95139 6.45569,3.43243 10.27828,5.49605c0,0 12.7819,4.20754 18.75328,3.86744c0,0 9.6388,-4.51103 12.62642,-4.31325c1.48172,0.09809 1.49141,3.20314 1.02397,4.7714c0,0 0.15212,4.28337 -1.92128,5.42204c-4.90253,2.69238 -5.12499,-0.98512 -5.23239,-0.24762z" data-paper-data="{&quot;origPos&quot;:null}" fill="#38291e" stroke="none" stroke-width="0" stroke-linecap="butt"/><path d="M273.93042,147.48899c-0.5,6.61802 1.12741,11.125 -13.25,10.875c-6.62642,-0.11523 -13,-4.25698 -13,-10.125c0,-5.86802 6.3926,-13.11026 13,-13.625c9.62741,-0.75 14.04992,2.28715 13.25,12.875z" data-paper-data="{&quot;origPos&quot;:null}" fill="#ffdebd" stroke="none" stroke-width="0" stroke-linecap="butt"/><g data-paper-data="{&quot;origPos&quot;:null}" fill="none" stroke="#f6b09a" stroke-width="3.5" stroke-linecap="round"><path d="M201.10689,131.43213c0,0 2.96332,-1.72996 6.75499,1.19948c5.43788,4.2013 2.24501,11.37195 2.24501,11.37195" data-paper-data="{&quot;origPos&quot;:null}"/><path d="M203.82118,138.14644h6" data-paper-data="{&quot;origPos&quot;:null}"/><path d="M209.24974,144.14644h-1.28571" data-paper-data="{&quot;origPos&quot;:null}"/></g><path d="M240.51269,124.2013c-1.37576,0.41027 -1.31062,0.60464 -1.97844,1.87549c-0.68894,1.31106 -2.14657,2.99951 -2.14657,2.99951c0,0 -1.45833,-3.62706 -1.45833,-6.31945c0,-1.8281 0.99336,-5.0144 3.81107,-5.65344c9.53112,-0.32089 6.69401,8.65093 6.69401,8.65093c0,0 -3.4773,-2.0232 -4.92174,-1.55303z" data-paper-data="{&quot;origPos&quot;:null}" fill="#38291e" stroke="none" stroke-width="0" stroke-linecap="butt"/><path d="M257.77348,121.39526c-1.51641,0.08916 -4.01601,3.24146 -4.01601,3.24146c0,0 -5.91454,-7.31854 3.07681,-10.49674c2.85665,-0.43291 4.94393,2.17143 5.61082,3.87354c0.98219,2.50684 0.94752,6.41595 0.94752,6.41595c0,0 -1.97313,-1.04035 -3.09287,-2.00973c-1.0854,-0.93965 -1.09566,-1.14439 -2.52627,-1.02451z" data-paper-data="{&quot;origPos&quot;:null,&quot;index&quot;:null,&quot;origRot&quot;:0}" fill="#38291e" stroke="none" stroke-width="0" stroke-linecap="butt"/></g></g></g></svg>