<svg version="1.1" xmlns="http://www.w3.org/2000/svg" xmlns:xlink="http://www.w3.org/1999/xlink" width="157.13652" height="41.98038" viewBox="0,0,157.13652,41.98038"><defs><linearGradient x1="276.33373" y1="159.00981" x2="276.33373" y2="200.97887" gradientUnits="userSpaceOnUse" id="color-1"><stop offset="0" stop-color="#3b7ded"/><stop offset="1" stop-color="#4d3da9"/></linearGradient><linearGradient x1="203.91627" y1="159.00981" x2="203.91627" y2="200.97887" gradientUnits="userSpaceOnUse" id="color-2"><stop offset="0" stop-color="#3b7ded"/><stop offset="1" stop-color="#4d3da9"/></linearGradient><linearGradient x1="239.75489" y1="159.02711" x2="239.75489" y2="200.99019" gradientUnits="userSpaceOnUse" id="color-3"><stop offset="0" stop-color="#3b7ded"/><stop offset="1" stop-color="#4d3da9"/></linearGradient><linearGradient x1="275.64109" y1="163.03375" x2="275.64109" y2="197.08901" gradientUnits="userSpaceOnUse" id="color-4"><stop offset="0" stop-color="#3b7ded"/><stop offset="1" stop-color="#4d3da9"/></linearGradient></defs><g transform="translate(-182.93174,-159.00981)"><g data-paper-data="{&quot;isPaintingLayer&quot;:true}" fill-rule="nonzero" stroke-linecap="butt" stroke-linejoin="miter" stroke-miterlimit="10" stroke-dasharray="" stroke-dashoffset="0" style="mix-blend-mode: normal"><g data-paper-data="{&quot;index&quot;:null}" stroke="#000000" stroke-width="0"><path d="M319.08373,200.97887c-11.58944,0 -20.98453,-9.39509 -20.98453,-20.98453c0,-11.58944 9.39509,-20.98453 20.98453,-20.98453c11.58944,0 20.98453,9.39509 20.98453,20.98453c0,11.58944 -9.39509,20.98453 -20.98453,20.98453z" data-paper-data="{&quot;origPos&quot;:null,&quot;index&quot;:null}" fill="url(#color-1)"/><path d="M203.91627,200.97887c-11.58944,0 -20.98453,-9.3951 -20.98453,-20.98453c0,-11.58944 9.3951,-20.98453 20.98453,-20.98453c11.58944,0 20.98453,9.3951 20.98453,20.98453c0,11.58944 -9.3951,20.98453 -20.98453,20.98453z" data-paper-data="{&quot;origPos&quot;:null,&quot;index&quot;:null}" fill="url(#color-2)"/><path d="M203.67785,200.99019v-41.96308h114.90408v41.96308z" data-paper-data="{&quot;origPos&quot;:null,&quot;index&quot;:null}" fill="url(#color-3)"/></g><text transform="translate(196.40654,188.46329) scale(0.56621,0.56621)" font-size="40" xml:space="preserve" data-paper-data="{&quot;index&quot;:null}" fill="#f7f7f7" fill-rule="nonzero" stroke="none" stroke-width="1" stroke-linecap="butt" stroke-linejoin="miter" stroke-miterlimit="10" stroke-dasharray="" stroke-dashoffset="0" font-family="&quot;Microsoft YaHei&quot;, &quot;微软雅黑&quot;, STXihei, &quot;华文细黑&quot;" font-weight="normal" text-anchor="start" style="mix-blend-mode: normal"><tspan x="0" dy="0">Changes</tspan></text><g><path d="M318.39109,163.03375c4.69771,0 8.95515,1.90752 12.0371,4.99053c3.08301,3.08195 4.99053,7.33939 4.99053,12.0371c0,4.69771 -1.90752,8.95515 -4.99053,12.0371c-3.08195,3.08301 -7.33939,4.99053 -12.0371,4.99053c-4.69771,0 -8.95515,-1.90752 -12.0371,-4.99053c-3.08301,-3.08195 -4.99053,-7.33939 -4.99053,-12.0371c0,-4.69771 1.90752,-8.95515 4.99053,-12.0371c3.08195,-3.08301 7.33939,-4.99053 12.0371,-4.99053z" data-paper-data="{&quot;origPos&quot;:null}" fill="url(#color-4)" stroke="#2b2866" stroke-width="1.25"/><g data-paper-data="{&quot;origPos&quot;:null}" fill="none" stroke="none" stroke-width="1" font-family="sans-serif" font-weight="normal" font-size="12" text-anchor="start"/><g fill="none" stroke="none" stroke-width="1" font-family="sans-serif" font-weight="normal" font-size="12" text-anchor="start"/></g><g><g fill="#ededed" stroke="#2b2866"><path d="M308.45475,176.36361v-2.94385h2.94386v2.94385z" stroke-width="0.5"/><path d="M308.45475,176.36361v-2.94385h2.94386v2.94385z" stroke-width="2.5"/><path d="M308.45475,181.68155v-2.94386h2.94386v2.94386z" stroke-width="2.5"/><path d="M308.45475,187.4743v-2.94385h2.94386v2.94385z" stroke-width="2.5"/><path d="M313.48779,186.61963v-2.08919h15.76389v2.08919z" stroke-width="2.5"/><path d="M313.48779,180.82688v-2.08919h15.76389v2.08919z" stroke-width="2.5"/><path d="M313.48779,175.50895v-2.08919h15.76389v2.08919z" stroke-width="2.5"/></g><g fill="#ededed" stroke="none" stroke-width="0"><path d="M308.45475,176.36361v-2.94385h2.94386v2.94385z"/><path d="M308.45475,176.36361v-2.94385h2.94386v2.94385z"/><path d="M308.45475,181.68155v-2.94386h2.94386v2.94386z"/><path d="M308.45475,187.4743v-2.94385h2.94386v2.94385z"/><path d="M313.48779,186.61963v-2.08919h15.76389v2.08919z"/><path d="M313.48779,180.82688v-2.08919h15.76389v2.08919z"/><path d="M313.48779,175.50895v-2.08919h15.76389v2.08919z"/></g></g></g></g></svg>