<svg version="1.1" xmlns="http://www.w3.org/2000/svg" xmlns:xlink="http://www.w3.org/1999/xlink" width="358.23053" height="380.7705" viewBox="0,0,358.23053,380.7705"><defs><linearGradient x1="218.5" y1="156.4435" x2="205.5" y2="156.4435" gradientUnits="userSpaceOnUse" id="color-1"><stop offset="0" stop-color="#cc7700"/><stop offset="1" stop-color="#995900"/></linearGradient><linearGradient x1="304.2" y1="95.2435" x2="291.2" y2="95.2435" gradientUnits="userSpaceOnUse" id="color-2"><stop offset="0" stop-color="#cc7700"/><stop offset="1" stop-color="#995900"/></linearGradient><linearGradient x1="129.05" y1="220.9016" x2="116.05" y2="220.9016" gradientUnits="userSpaceOnUse" id="color-3"><stop offset="0" stop-color="#cc7700"/><stop offset="1" stop-color="#995900"/></linearGradient><linearGradient x1="33.65" y1="287.7016" x2="20.65" y2="287.7016" gradientUnits="userSpaceOnUse" id="color-4"><stop offset="0" stop-color="#cc7700"/><stop offset="1" stop-color="#995900"/></linearGradient><linearGradient x1="350.8457" y1="46.9311" x2="359.0259" y2="58.2926" gradientUnits="userSpaceOnUse" id="color-5"><stop offset="0" stop-color="#b2b2b2"/><stop offset="1" stop-color="#666666"/></linearGradient><linearGradient x1="1827.99811" y1="215.91786" x2="347.79282" y2="215.91786" gradientUnits="userSpaceOnUse" id="color-6"><stop offset="0" stop-color="#000000"/><stop offset="1" stop-color="#000000" stop-opacity="0"/></linearGradient></defs><g transform="translate(-3.2499,-46.9311)"><g data-paper-data="{&quot;isPaintingLayer&quot;:true}" fill-rule="nonzero" stroke="none" stroke-linecap="butt" stroke-linejoin="miter" stroke-miterlimit="10" stroke-dasharray="" stroke-dashoffset="0" style="mix-blend-mode: normal"><path d="M218.5,377.6435h-13v-221.2h13z" fill="url(#color-1)" stroke-width="1.44606"/><path d="M304.2,366.0435h-13v-270.8h13z" fill="url(#color-2)" stroke-width="1.69842"/><path d="M129.05,360.9016h-13v-140h13z" fill="url(#color-3)" stroke-width="1.06647"/><path d="M33.65,427.7016h-13v-140h13z" fill="url(#color-4)" stroke-width="1.06647"/><path d="M359.0259,58.2926l-347.5957,250.029l-8.1803,-11.3615l347.5958,-250.029z" fill="url(#color-5)" stroke-width="3.88313"/><path d="M347.79282,371.00072v-310.16572h13.68761v310.16572z" data-paper-data="{&quot;index&quot;:null}" fill="url(#color-6)" stroke-width="0"/></g></g></svg>