<svg version="1.1" xmlns="http://www.w3.org/2000/svg" xmlns:xlink="http://www.w3.org/1999/xlink" width="508.10509" height="305.22176" viewBox="0,0,508.10509,305.22176"><defs><linearGradient x1="133.77219" y1="47.25264" x2="133.77219" y2="66.8993" gradientUnits="userSpaceOnUse" id="color-1"><stop offset="0" stop-color="#6fb361"/><stop offset="1" stop-color="#4a7b50"/></linearGradient><linearGradient x1="154.8833" y1="45.58598" x2="154.8833" y2="65.23264" gradientUnits="userSpaceOnUse" id="color-2"><stop offset="0" stop-color="#6fb361"/><stop offset="1" stop-color="#4a7b50"/></linearGradient><linearGradient x1="113.21664" y1="41.69709" x2="113.21664" y2="61.34375" gradientUnits="userSpaceOnUse" id="color-3"><stop offset="0" stop-color="#6fb361"/><stop offset="1" stop-color="#4a7b50"/></linearGradient><linearGradient x1="166.54997" y1="53.36375" x2="166.54997" y2="73.01041" gradientUnits="userSpaceOnUse" id="color-4"><stop offset="0" stop-color="#6fb361"/><stop offset="1" stop-color="#4a7b50"/></linearGradient><linearGradient x1="142.10553" y1="57.8082" x2="142.10553" y2="77.45486" gradientUnits="userSpaceOnUse" id="color-5"><stop offset="0" stop-color="#6fb361"/><stop offset="1" stop-color="#4a7b50"/></linearGradient><linearGradient x1="119.32775" y1="51.14153" x2="119.32775" y2="70.78819" gradientUnits="userSpaceOnUse" id="color-6"><stop offset="0" stop-color="#6fb361"/><stop offset="1" stop-color="#4a7b50"/></linearGradient><linearGradient x1="99.8833" y1="56.14153" x2="99.8833" y2="75.78819" gradientUnits="userSpaceOnUse" id="color-7"><stop offset="0" stop-color="#6fb361"/><stop offset="1" stop-color="#4a7b50"/></linearGradient><linearGradient x1="159.32775" y1="66.69709" x2="159.32775" y2="86.34375" gradientUnits="userSpaceOnUse" id="color-8"><stop offset="0" stop-color="#6fb361"/><stop offset="1" stop-color="#4a7b50"/></linearGradient><linearGradient x1="119.8833" y1="66.14153" x2="119.8833" y2="85.78819" gradientUnits="userSpaceOnUse" id="color-9"><stop offset="0" stop-color="#6fb361"/><stop offset="1" stop-color="#4a7b50"/></linearGradient></defs><g transform="translate(-67.19936,-40.69709)"><g data-paper-data="{&quot;isPaintingLayer&quot;:true}" fill-rule="nonzero" stroke-linejoin="miter" stroke-miterlimit="10" stroke-dasharray="" stroke-dashoffset="0" style="mix-blend-mode: normal"><path d="M381.33903,344.80662h-113.06231v-153.52967h113.06231z" fill="#817250" stroke="#706035" stroke-width="2.22445" stroke-linecap="butt"/><path d="M79.35119,90.91613h119.21724v231.75438h-119.21724z" fill="#817250" stroke="#706035" stroke-width="2" stroke-linecap="butt"/><path d="M472.90985,152.08932h86.04374v177.58116h-86.04374z" fill="#817250" stroke="#706035" stroke-width="2" stroke-linecap="butt"/><path d="M474.9832,166.04308c-3.10068,0.36698 -5.46845,0.06427 -7.25671,-1.03667c-2.91098,-1.79137 -6.51548,-3.92069 -7.2567,-7.2567c-1.50007,-6.74873 -1.14967,-14.17544 1.03667,-20.73343c0.88013,-2.6404 4.8962,-2.6715 7.2567,-4.14669c3.166,-1.97901 4.57276,-6.07179 9.33005,-6.22003c19.02707,-0.59505 38.03755,2.66736 57.01694,4.14669c7.60295,0.59194 15.29402,0.76713 22.80678,2.07334c1.87845,0.32655 15.14165,13.68772 16.38752,18.77562c1.82721,7.46196 -8.67459,17.10451 -10.16749,22.32841c-0.72878,3.78385 -6.62744,-8.71944 -11.66255,-9.74471c-4.81637,-0.96722 -9.35804,5.17195 -14.25424,3.88752c-3.33497,-0.87288 -2.03913,-8.37527 -5.44253,-8.81171c-6.48023,-0.42296 -11.91654,6.69794 -18.40092,6.73837c-8.32758,0.05079 -16.05079,-5.569 -24.36178,-5.7017c-5.67474,0.1327 -10.57302,4.71789 -16.06841,5.7017z" fill="#577c53" stroke="#416143" stroke-width="2" stroke-linecap="round"/><path d="M379.97685,196.7361c-7.22104,-0.85059 -13.65742,-4.81472 -21.1141,-4.92947c-10.92072,0.11476 -21.0691,4.97333 -32.01159,4.92947c-8.52061,-0.03494 -14.12963,-2.95241 -22.64475,-2.58678c-4.4721,0.37735 -4.30363,3.62459 -8.68575,4.37929c-6.43369,1.11048 -12.4015,-4.19717 -18.73027,-3.36099c-6.61614,0.88635 -14.36702,11.69624 -15.3247,8.42492c-3.29921,-7.5959 -4.85079,-20.40277 -2.56503,-30.32984c0.57069,-2.48179 8.26994,-4.92477 10.73825,-5.20705c9.87181,-1.12935 19.9779,-1.28081 29.96831,-1.79262c24.93911,-1.27894 49.91906,-4.09952 74.92078,-3.58502c6.25113,0.12813 8.09962,3.66661 12.25979,5.37763c3.10172,1.27532 8.37889,1.30227 9.5354,3.58501c2.87282,5.66977 3.33331,12.09059 1.36219,17.92529c-0.97395,2.88413 -5.71041,4.72515 -9.53541,6.27384c-2.34983,0.95187 -5.46108,1.21353 -9.53541,0.8963z" fill="#577c53" stroke="#416143" stroke-width="2.22445" stroke-linecap="round"/><path d="M100.54055,46.68102c5.29311,0 10.27133,3.84322 15.47727,3.96677c13.96014,0.33131 27.9785,-1.54262 41.88816,0c11.40698,1.26506 22.02967,5.91089 31.64672,11.99686c6.45215,4.08313 14.41752,7.6155 18.19836,14.6805c1.65429,3.09125 2.72252,6.00154 3.27869,9.42881c2.65167,16.34035 -6.48597,23.39642 -20.61246,28.36251c-1.99255,0.70047 -4.7412,2.9985 -6.36558,4.21166c-3.62869,2.71005 -7.92835,3.69111 -12.25684,4.65299c-3.5524,0.78942 -8.27063,-0.39324 -11.73062,-1.19701c-0.43258,-0.10049 -5.52091,-1.85147 -5.53924,-1.79583c-1.12082,3.40316 -2.99847,6.51198 -4.96104,9.38607c-1.46008,2.13821 -4.84017,4.3288 -7.23231,4.92684c-1.16709,0.29177 -3.55798,-0.85591 -3.59234,0.3466c-0.09255,3.23942 0.0895,6.48272 0,9.72222c-0.27227,9.85521 -10.71201,29.00844 -22.5,26.38889c-2.7937,-0.62082 -6.93304,-1.17791 -9.20993,-3.12954c-7.38138,-6.32689 -9.79087,-24.51447 -12.09305,-34.3065c-0.22871,-0.97278 -1.96928,-11.10809 -2.0387,-11.14428c-1.02482,-0.53416 -3.19012,0.71613 -4.43609,0.80254c-2.16304,0.15002 -5.38548,-0.42289 -7.28618,-1.19701c-13.22255,-5.3853 -14.39795,-19.63787 -11.9487,-32.14126c1.134,-5.78905 1.36451,-11.72829 2.37633,-17.55902c0.85385,-4.92039 3.17541,-9.31313 4.1762,-14.12492c0.07143,-0.34342 0.15797,-0.71234 0.25986,-1.10001c0.29004,-2.6025 1.37912,-4.96372 3.01631,-6.83274c1.47386,-2.11624 3.42924,-3.72298 5.90388,-3.76997c1.11127,-0.32371 2.28651,-0.49728 3.50229,-0.49728c1.01383,0 1.99947,0.1207 2.94334,0.34851c3.11032,0.14138 5.72618,-0.42639 9.13567,-0.42639z" fill="#577c53" stroke="#416143" stroke-width="2" stroke-linecap="butt"/><g stroke-linecap="butt"><path d="M133.77219,47.25264c3.82603,0 7.29311,1.10076 9.80368,2.87906c2.51057,1.7783 4.06462,4.23413 4.06462,6.94427c0,2.71014 -1.55406,5.16598 -4.06462,6.94428c-2.51057,1.7783 -5.97764,2.87905 -9.80368,2.87905c-3.82603,0 -7.29312,-1.10076 -9.80369,-2.87905c-2.51057,-1.77829 -4.06463,-4.23413 -4.06463,-6.94428c0,-2.71014 1.55406,-5.16598 4.06463,-6.94427c2.51057,-1.77829 5.97765,-2.87906 9.80369,-2.87906z" data-paper-data="{&quot;index&quot;:null}" fill="url(#color-1)" stroke="#4b7c50" stroke-width="2"/><path d="M154.8833,45.58598c3.82604,0 7.29311,1.10076 9.80368,2.87905c2.51057,1.7783 4.06463,4.23413 4.06463,6.94428c0,2.71014 -1.55406,5.16598 -4.06463,6.94428c-2.51057,1.7783 -5.97764,2.87905 -9.80368,2.87905c-3.82603,0 -7.29312,-1.10076 -9.80369,-2.87905c-2.51057,-1.77829 -4.06462,-4.23413 -4.06462,-6.94428c0,-2.71014 1.55406,-5.16598 4.06462,-6.94428c2.51057,-1.77829 5.97765,-2.87905 9.80369,-2.87905z" data-paper-data="{&quot;index&quot;:null}" fill="url(#color-2)" stroke="#4b7c50" stroke-width="2"/><path d="M183.45706,77.9773c0.7905,0.91532 0.70199,2.39937 1.00072,3.49529c2.03717,7.47356 -3.45143,16.86302 -11.81567,17.38786c-1.80253,0.11311 -3.57301,0.07448 -5.40852,0.21721c-1.46796,0.11414 -5.01134,2.75409 -7.96892,2.75409c-5.87982,0 -13.15001,-1.35467 -19.03484,-0.60657c-2.10854,0.26805 -4.23566,0.96449 -6.37965,0.96449c-1.89297,0 -3.74438,-1.14021 -5.68255,-0.94052c-4.05487,0.41778 -7.67239,1.34096 -11.94389,1.0498c-5.09391,-0.34723 -9.12481,-3.5862 -14.00979,-4.29504c-7.39013,-1.07235 -13.61918,-2.59144 -18.09738,-9.06709c-1.58667,-2.29438 -3.32621,-4.86239 -2.94916,-7.93299c1.1174,-9.09987 12.12081,-15.95227 20.73955,-16.82332c2.86998,-0.29005 5.70242,1.30712 8.45665,1.22773c1.54779,-0.04461 7.87685,-3.24177 11.04996,-3.55421c5.81498,-0.57258 11.70056,1.96182 17.58253,1.7896c15.84891,-0.46406 35.53369,-3.87334 44.31997,13.69922z" data-paper-data="{&quot;index&quot;:null}" fill-opacity="0.25098" fill="#000000" stroke="none" stroke-width="0.5"/><path d="M137.1234,69.20906h7.88391v21.62066h-7.88391z" data-paper-data="{&quot;index&quot;:null}" fill="#816c3e" stroke="#706035" stroke-width="0"/><path d="M155.45673,74.87573h7.88391v21.62066h-7.88391z" data-paper-data="{&quot;index&quot;:null}" fill="#816c3e" stroke="#706035" stroke-width="0"/><path d="M113.21664,41.69709c3.82603,0 7.29311,1.10076 9.80368,2.87906c2.51057,1.7783 4.06462,4.23413 4.06462,6.94427c0,2.71014 -1.55406,5.16598 -4.06462,6.94428c-2.51057,1.7783 -5.97765,2.87905 -9.80368,2.87905c-3.82603,0 -7.29311,-1.10076 -9.80368,-2.87905c-2.51057,-1.77829 -4.06463,-4.23413 -4.06463,-6.94428c0,-2.71014 1.55406,-5.16598 4.06463,-6.94427c2.51057,-1.77829 5.97765,-2.87906 9.80368,-2.87906z" data-paper-data="{&quot;index&quot;:null}" fill="url(#color-3)" stroke="#4b7c50" stroke-width="2"/><path d="M166.54997,53.36375c3.82603,0 7.29311,1.10076 9.80368,2.87906c2.51057,1.7783 4.06462,4.23413 4.06462,6.94428c0,2.71014 -1.55406,5.16598 -4.06462,6.94427c-2.51057,1.77829 -5.97764,2.87905 -9.80368,2.87905c-3.82603,0 -7.29312,-1.10076 -9.80369,-2.87905c-2.51057,-1.7783 -4.06462,-4.23413 -4.06462,-6.94427c0,-2.71014 1.55406,-5.16598 4.06462,-6.94428c2.51057,-1.77829 5.97765,-2.87906 9.80369,-2.87906z" data-paper-data="{&quot;index&quot;:null}" fill="url(#color-4)" stroke="#4b7c50" stroke-width="2"/><path d="M142.10553,57.8082c3.82603,0 7.29311,1.10076 9.80368,2.87906c2.51057,1.7783 4.06463,4.23413 4.06463,6.94427c0,2.71014 -1.55406,5.16598 -4.06463,6.94428c-2.51057,1.7783 -5.97764,2.87906 -9.80368,2.87906c-3.82603,0 -7.29311,-1.10076 -9.80368,-2.87906c-2.51057,-1.77829 -4.06463,-4.23413 -4.06463,-6.94428c0,-2.71014 1.55406,-5.16598 4.06463,-6.94427c2.51057,-1.77829 5.97765,-2.87906 9.80368,-2.87906z" data-paper-data="{&quot;index&quot;:null}" fill="url(#color-5)" stroke="#4b7c50" stroke-width="2"/><path d="M95.1234,66.20906h7.88391v21.62066h-7.88391z" data-paper-data="{&quot;index&quot;:null}" fill="#816c3e" stroke="#706035" stroke-width="0"/><path d="M119.32775,51.14153c3.82603,0 7.29311,1.10076 9.80368,2.87905c2.51057,1.7783 4.06462,4.23413 4.06462,6.94428c0,2.71014 -1.55406,5.16598 -4.06462,6.94428c-2.51057,1.7783 -5.97765,2.87905 -9.80368,2.87905c-3.82603,0 -7.29311,-1.10076 -9.80368,-2.87905c-2.51057,-1.77829 -4.06463,-4.23413 -4.06463,-6.94428c0,-2.71014 1.55406,-5.16598 4.06463,-6.94428c2.51057,-1.77829 5.97765,-2.87905 9.80368,-2.87905z" data-paper-data="{&quot;index&quot;:null}" fill="url(#color-6)" stroke="#4b7c50" stroke-width="2"/><path d="M99.8833,56.14153c3.82603,0 7.29311,1.10076 9.80368,2.87905c2.51057,1.7783 4.06463,4.23413 4.06463,6.94428c0,2.71014 -1.55406,5.16598 -4.06463,6.94428c-2.51057,1.7783 -5.97764,2.87905 -9.80368,2.87905c-3.82603,0 -7.29312,-1.10076 -9.80369,-2.87905c-2.51057,-1.77829 -4.06462,-4.23413 -4.06462,-6.94428c0,-2.71014 1.55405,-5.16598 4.06462,-6.94428c2.51057,-1.77829 5.97765,-2.87905 9.80369,-2.87905z" data-paper-data="{&quot;index&quot;:null}" fill="url(#color-7)" stroke="#4b7c50" stroke-width="2"/><path d="M159.32775,66.69709c3.82603,0 7.29311,1.10076 9.80368,2.87906c2.51057,1.7783 4.06462,4.23413 4.06462,6.94427c0,2.71014 -1.55406,5.16598 -4.06462,6.94428c-2.51057,1.7783 -5.97765,2.87905 -9.80368,2.87905c-3.82603,0 -7.29311,-1.10076 -9.80368,-2.87905c-2.51057,-1.77829 -4.06463,-4.23413 -4.06463,-6.94428c0,-2.71014 1.55406,-5.16598 4.06463,-6.94427c2.51057,-1.77829 5.97765,-2.87906 9.80368,-2.87906z" data-paper-data="{&quot;index&quot;:null}" fill="url(#color-8)" stroke="#4b7c50" stroke-width="2"/><path d="M115.45673,77.54239h7.88391v21.62066h-7.88391z" data-paper-data="{&quot;index&quot;:null}" fill="#816c3e" stroke="#706035" stroke-width="0"/><path d="M119.8833,66.14153c3.82603,0 7.29311,1.10076 9.80368,2.87905c2.51057,1.7783 4.06463,4.23413 4.06463,6.94428c0,2.71014 -1.55406,5.16598 -4.06463,6.94428c-2.51057,1.7783 -5.97764,2.87905 -9.80368,2.87905c-3.82603,0 -7.29312,-1.10076 -9.80369,-2.87905c-2.51057,-1.77829 -4.06463,-4.23413 -4.06463,-6.94428c0,-2.71014 1.55406,-5.16598 4.06463,-6.94428c2.51057,-1.77829 5.97765,-2.87905 9.80369,-2.87905z" data-paper-data="{&quot;index&quot;:null}" fill="url(#color-9)" stroke="#4b7c50" stroke-width="2"/></g><path d="" data-paper-data="{&quot;origPos&quot;:null}" fill="#817250" stroke="#585240" stroke-width="2" stroke-linecap="butt"/><path d="" data-paper-data="{&quot;origPos&quot;:null}" fill="#577c53" stroke="#416143" stroke-width="2" stroke-linecap="round"/></g></g></svg>