<svg version="1.1" xmlns="http://www.w3.org/2000/svg" xmlns:xlink="http://www.w3.org/1999/xlink" width="95.37209" height="181.3638" viewBox="0,0,95.37209,181.3638"><defs><linearGradient x1="230.40339" y1="246.50028" x2="269.24325" y2="246.50028" gradientUnits="userSpaceOnUse" id="color-1"><stop offset="0" stop-color="#8e4108"/><stop offset="1" stop-color="#be6d2f"/></linearGradient><linearGradient x1="207.90339" y1="246.75029" x2="246.74328" y2="246.75029" gradientUnits="userSpaceOnUse" id="color-2"><stop offset="0" stop-color="#8e4108"/><stop offset="1" stop-color="#be6d2f"/></linearGradient><linearGradient x1="237.98185" y1="167.12919" x2="237.98185" y2="217.49989" gradientUnits="userSpaceOnUse" id="color-3"><stop offset="0" stop-color="#0052ef"/><stop offset="1" stop-color="#004bd6"/></linearGradient><linearGradient x1="270.44603" y1="113.85213" x2="270.44603" y2="127.17547" gradientUnits="userSpaceOnUse" id="color-4"><stop offset="0" stop-color="#bc041a"/><stop offset="1" stop-color="#880010"/></linearGradient><linearGradient x1="250.71858" y1="106.42921" x2="250.71858" y2="124.44454" gradientUnits="userSpaceOnUse" id="color-5"><stop offset="0" stop-color="#bc041a"/><stop offset="1" stop-color="#a90216"/></linearGradient></defs><g transform="translate(-188.5159,-79.88658)"><g data-paper-data="{&quot;isPaintingLayer&quot;:true}" fill="none" fill-rule="nonzero" stroke="none" stroke-width="none" stroke-linecap="none" stroke-linejoin="miter" stroke-miterlimit="10" stroke-dasharray="" stroke-dashoffset="0" font-family="none" font-weight="none" font-size="none" text-anchor="none" style="mix-blend-mode: normal"><g data-paper-data="{&quot;origPos&quot;:null,&quot;index&quot;:null,&quot;origRot&quot;:0}" stroke="none" stroke-width="0" stroke-linecap="butt"><path d="M257.90002,164.95978c5.31523,0.07345 10.14596,9.49443 10.01147,19.22752c-0.1345,9.73309 -1.71589,18.96498 -1.71589,18.96498l-15.95311,-0.0374c0,0 -1.65231,-15.24602 -1.54413,-23.07444c0.1345,-9.73309 3.88644,-15.1541 9.20167,-15.08066z" data-paper-data="{&quot;origRot&quot;:0,&quot;origPos&quot;:null}" fill="#ff0021"/><g data-paper-data="{&quot;origPos&quot;:null}" fill="#ffffff"><path d="M257.35141,208.13706c9.38403,-0.30061 21.01116,-0.15185 20.74949,9.74141c-0.18983,7.17719 -9.77892,17.51836 -18.99434,15.72214c-10.05613,-1.96009 -19.33578,-2.09762 -17.99724,-13.13074c1.24984,-10.302 6.85806,-12.03219 16.24209,-12.33281z" data-paper-data="{&quot;origRot&quot;:0,&quot;origPos&quot;:null}"/><path d="M258.37838,200.28038c7.24532,-0.22256 15.46839,-1.88963 15.1958,3.68226c-0.30495,6.23325 -2.20193,5.91986 -14.05084,5.99102c-13.49811,0.08106 -15.54639,2.55086 -15.54455,-4.29738c0.00107,-3.9989 7.15427,-5.15333 14.39959,-5.3759z" data-paper-data="{&quot;origRot&quot;:0,&quot;origPos&quot;:null}"/></g></g><g data-paper-data="{&quot;origPos&quot;:null}" stroke="none" stroke-width="0" stroke-linecap="butt"><path d="M259.77582,231.75029c0.25,4.56244 5.41055,6.34999 5.25,7.375c-0.6496,4.14719 -2.61962,7.06944 -9.49401,9.02126c-8.51546,2.41776 -15.20518,1.85158 -22.83883,-2.63017c-5.19918,-3.05246 -0.62822,-5.6899 1.34826,-11.38574c0.70922,-2.04382 1.23457,-4.71698 1.73457,-10.13036c0.62513,-6.76814 4.26679,-19.09634 4.26679,-19.09634c0,0 5.33244,-0.81141 10.59561,-0.89064c5.20633,-0.02334 10.3876,2.11198 10.3876,2.11198c0,0 -1.8279,15.07837 -1.25,25.625z" data-paper-data="{&quot;origPos&quot;:null}" fill="#004bd6"/><path d="M266.94131,253.94738c0,3.8985 -3.96704,5.7353 -7.72585,6.76953c-2.46332,0.67777 -14.4104,0.32814 -20.33888,-3.14424c-1.84053,-1.07803 -3.33527,-3.52528 -3.33527,-3.52528c0,0 -5.03674,0.75952 -5.02228,-0.69722c0.01148,-1.15638 -0.01762,-3.12554 1.10289,-3.72567c4.82323,-2.58327 16.24793,-2.57711 21.71938,-2.57711c7.51108,0 13.6,3.08923 13.6,6.9z" data-paper-data="{&quot;origPos&quot;:null}" fill="#f9c869"/><path d="M268.82581,249.05028c-1.36652,4.56324 -5.93362,7.825 -14.425,7.825c-8.49138,0 -17.575,-4.925 -17.575,-4.925c0,0 -6.14742,0.32363 -6.27179,-1.25358c-0.25742,-3.26442 -0.3162,-8.59083 0.91937,-8.76498c4.56136,-0.64292 3.70007,-0.02536 9.66469,-1.30064c3.8618,-0.82568 10.31365,-4.50579 14.26274,-4.50579c8.49138,0 15.675,5.41155 13.425,12.925z" data-paper-data="{&quot;origPos&quot;:null}" fill="url(#color-1)"/></g><g data-paper-data="{&quot;origPos&quot;:null}" stroke="none" stroke-width="0" stroke-linecap="butt"><path d="M237.27582,232.00029c0.25,4.56244 5.41055,6.34999 5.25,7.375c-0.6496,4.14719 -2.61962,7.06944 -9.49401,9.02125c-8.51546,2.41776 -15.20518,1.85158 -22.83883,-2.63016c-5.19918,-3.05246 -0.62822,-5.6899 1.34826,-11.38574c0.70922,-2.04382 1.23457,-4.71698 1.73457,-10.13036c0.62513,-6.76814 5.01679,-19.34634 5.01679,-19.34634c0,0 7.58244,-0.06141 12.59561,0.85936c3.95633,0.72666 10.3876,3.36198 10.3876,3.36198c0,0 -4.5779,12.32837 -4,22.875z" data-paper-data="{&quot;origPos&quot;:null}" fill="#004bd6"/><path d="M244.44134,254.19738c0,3.8985 -3.96704,5.7353 -7.72584,6.76953c-2.46332,0.67777 -14.4104,0.32814 -20.33888,-3.14424c-1.84053,-1.07803 -3.33527,-3.52528 -3.33527,-3.52528c0,0 -5.03674,0.75952 -5.02228,-0.69722c0.01148,-1.15638 -0.01762,-3.12554 1.10289,-3.72567c4.82323,-2.58327 16.24793,-2.5771 21.71938,-2.5771c7.51108,0 13.6,3.08923 13.6,6.9z" data-paper-data="{&quot;origPos&quot;:null}" fill="#f9c869"/><path d="M246.32582,249.30029c-1.36652,4.56323 -5.93362,7.825 -14.425,7.825c-8.49138,0 -17.575,-4.925 -17.575,-4.925c0,0 -6.14742,0.32363 -6.27179,-1.25359c-0.25742,-3.26442 -0.3162,-8.59082 0.91937,-8.76498c4.56136,-0.64292 3.70007,-0.02536 9.66469,-1.30064c3.8618,-0.82568 10.31365,-4.50579 14.26274,-4.50579c8.49138,0 15.675,5.41155 13.425,12.925z" data-paper-data="{&quot;origPos&quot;:null}" fill="url(#color-2)"/></g><g data-paper-data="{&quot;origPos&quot;:null}"><path d="M265.97767,190.29989c0.39163,21.17353 -13.11217,27.2 -28.3,27.2c-15.18783,0 -27.7,-10.03796 -27.7,-20.2c0,-11.02412 1.31852,-19.79986 9.82136,-26.81648c6.33487,-5.22759 15.46535,-2.78352 23.67864,-2.78352c15.18783,0 22.11612,1.84521 22.5,22.6z" data-paper-data="{&quot;origPos&quot;:null}" fill="url(#color-3)" stroke="none" stroke-width="0" stroke-linecap="butt"/><path d="M265.97767,189.69989c0,0 -17.24385,2 -29.4,2.4c-11.15011,0.36689 -22.4,-3.4 -22.4,-3.4c0,0 -0.98648,-13.79564 6.98462,-19.16002c5.21526,-3.50975 11.08038,-4.65914 18.61538,-4.83998c7.535,-0.18084 15.72889,2.13912 19.52206,5.21215c8.95988,7.25886 6.67794,19.78785 6.67794,19.78785z" data-paper-data="{&quot;origPos&quot;:null}" fill="#ff0021" stroke="none" stroke-width="0" stroke-linecap="butt"/><path d="M252.08551,168.5912c0,0 2.14029,6.84028 2.57206,10.95319c0.55457,5.28272 -0.57997,15.20846 -0.57997,15.20846" data-paper-data="{&quot;origPos&quot;:null,&quot;origRot&quot;:0}" fill="none" stroke="#0052ef" stroke-width="10" stroke-linecap="round"/><path d="M230.57769,169.09989c0,0 1.23985,7.05925 1.13735,11.19349c-0.13165,5.31011 -2.53735,15.00651 -2.53735,15.00651" data-paper-data="{&quot;origPos&quot;:null}" fill="none" stroke="#0052ef" stroke-width="10" stroke-linecap="round"/><path d="M225.77769,193.39989c0,-2.26436 1.83563,-4.1 4.1,-4.1c2.26436,0 4.1,1.83564 4.1,4.1c0,2.26436 -1.83563,4.1 -4.1,4.1c-2.26436,0 -4.1,-1.83563 -4.1,-4.1z" data-paper-data="{&quot;origPos&quot;:null}" fill="#ffe84f" stroke="none" stroke-width="0" stroke-linecap="butt"/><path d="M250.57769,193.39989c0,-2.26436 1.83563,-4.1 4.1,-4.1c2.26436,0 4.1,1.83564 4.1,4.1c0,2.26436 -1.83564,4.1 -4.1,4.1c-2.26436,0 -4.1,-1.83563 -4.1,-4.1z" data-paper-data="{&quot;origPos&quot;:null}" fill="#ffe84f" stroke="none" stroke-width="0" stroke-linecap="butt"/></g><g data-paper-data="{&quot;origPos&quot;:null}" stroke="none" stroke-width="0" stroke-linecap="butt"><path d="M227.21448,182.86028c-1.981,7.57441 -7.6347,21.82947 -7.6347,21.82947l-15.3867,-4.21339c0,0 0.93484,-9.31959 3.39782,-18.73685c2.46298,-9.41727 9.62865,-17.21111 14.77141,-15.86607c5.14276,1.34503 7.31515,7.56959 4.85217,16.98686z" data-paper-data="{&quot;origRot&quot;:0,&quot;origPos&quot;:null}" fill="#ff0021"/><g data-paper-data="{&quot;origPos&quot;:null}" fill="#ffffff"><path d="M223.7601,223.85052c-1.64872,10.99105 -10.62974,8.65178 -20.84466,7.86239c-9.36093,-0.72339 -15.84898,-13.2452 -14.12016,-20.21365c2.38306,-9.60552 13.62974,-6.65178 22.59465,-3.86239c8.96491,2.78939 13.90964,5.95094 12.37017,16.21365z" data-paper-data="{&quot;origRot&quot;:0,&quot;origPos&quot;:null}"/><path d="M224.94019,208.80779c-1.8224,6.60132 -3.1388,3.67514 -16.12763,0.00151c-11.40186,-3.22479 -13.31378,-3.42803 -11.94736,-9.5173c1.22144,-5.44319 8.70337,-1.64597 15.62763,0.49849c6.92426,2.14446 13.51152,5.1626 12.44736,9.0173z" data-paper-data="{&quot;origRot&quot;:0,&quot;origPos&quot;:null}"/></g></g><g data-paper-data="{&quot;origPos&quot;:null}"><path d="M283.39956,118.57549c-0.56793,3.79329 -11.88998,8.6 -20.8,8.6c-7.1797,0 -5.4,-6.75492 -5.4,-10.4c0,-3.64508 14.0703,-2.85 21.25,-2.85c7.1797,0 5.31761,2.19464 4.95,4.65z" data-paper-data="{&quot;origPos&quot;:null}" fill="url(#color-4)" stroke="none" stroke-width="0" stroke-linecap="butt"/><path d="M210.15928,159.48788c0,0 -1.70028,1.17057 -3.5833,-0.19744c-1.88302,-1.368 -3.24721,-4.53148 -0.52143,-6.04226c3.26031,-1.80704 2.41456,-7.88485 4.29758,-6.51685c0,0 7.23293,1.02169 7.79114,3.9154c0,0 3.0507,8.35652 1.80057,9.69315c0,0 -1.78179,1.32182 -6.42716,1.10231c-2.51693,-0.11893 -3.35741,-1.95431 -3.35741,-1.95431z" data-paper-data="{&quot;origRot&quot;:0,&quot;origPos&quot;:null}" fill="#5a2c0a" stroke="none" stroke-width="0" stroke-linecap="butt"/><path d="M214.98289,120.85882c4.31396,1.0071 37.24301,-2.16822 43.0368,-1.8462c8.57182,0.47642 6.20204,8.21361 6.80713,16.77732c0.69572,9.84642 7.56286,14.33038 4.11388,23.57918c-1.32977,3.56593 -4.32109,5.43206 -7.31062,7.78723c-1.69594,1.33607 -6.42898,2.63394 -17.21721,2.85583c-15.24981,0.31365 -19.57369,-2.15552 -25.86091,-6.94741c-3.99221,-3.04272 -2.2504,-7.36559 -5.42563,-12.17258c-0.97333,-1.47352 -2.12747,-2.25956 -2.322,-2.25956c-10.37042,0 -16.07143,-8.56649 -16.07143,-16.66666c0,-8.10018 3.70101,-14.66666 9.5,-14.66666c5.79899,0 9.25,3.20935 10.75,3.55952z" data-paper-data="{&quot;origPos&quot;:null}" fill="#ffdebd" stroke="none" stroke-width="0" stroke-linecap="butt"/><path d="M263.16622,126.06523c0.35235,4.88885 -1.81808,9.02906 -4.84779,9.24741c-3.02971,0.21836 -5.7714,-3.56782 -6.12375,-8.45666c-0.35235,-4.88885 1.81808,-9.02905 4.84779,-9.24741c3.02971,-0.21836 5.77141,3.56782 6.12376,8.45666z" data-paper-data="{&quot;origPos&quot;:null,&quot;origRot&quot;:0}" fill="#ffffff" stroke="none" stroke-width="0" stroke-linecap="butt"/><path d="M225.39289,128.68228c0,2.60849 3.05805,6.42393 0.71211,7.56446c-2.72909,1.32681 -4.12613,-0.50952 -4.12613,-0.50952c0,0 0.58226,1.57572 -3.0717,2.25935c-2.71433,0.50783 -3.65714,-5.18172 -3.65714,-9.6c0,-4.41828 -0.01669,-8.69821 2.74286,-8.8c11.61857,-0.42857 7.4,4.66744 7.4,9.08571z" data-paper-data="{&quot;origPos&quot;:null}" fill="#5a2c0a" stroke="none" stroke-width="0" stroke-linecap="butt"/><path d="M250.14301,131.06995c0.57094,4.86816 -1.41189,9.10142 -4.42877,9.45524c-3.01689,0.35383 -5.92541,-3.30577 -6.49635,-8.17393c-0.57094,-4.86816 1.41189,-9.10142 4.42877,-9.45524c3.01689,-0.35383 5.92541,3.30577 6.49635,8.17393z" data-paper-data="{&quot;origPos&quot;:null,&quot;origRot&quot;:0}" fill="#ffffff" stroke="none" stroke-width="0" stroke-linecap="butt"/><path d="M247.35003,127.42161c0.952,0 1.814,0.695 2.439,1.817c0.624,1.122 1.011,2.672 1.011,4.383c0,1.711 -0.387,3.261 -1.011,4.383c-0.625,1.122 -1.487,1.817 -2.439,1.817c-0.952,0 -1.814,-0.695 -2.439,-1.817c-0.624,-1.122 -1.011,-2.672 -1.011,-4.383c0,-1.711 0.387,-3.261 1.011,-4.383c0.625,-1.122 1.487,-1.817 2.439,-1.817z" data-paper-data="{&quot;origPos&quot;:null}" id="ID0.2989244391210377" fill="#000000" stroke="none" stroke-width="1" stroke-linecap="butt"/><path d="M260.35003,122.87161c0.952,0 1.814,0.695 2.439,1.817c0.624,1.122 0.775,2.904 1.011,4.383c0.083,0.539 0.233,1.323 -0.15,1.8c-0.483,0.577 -1.281,0.853 -2,1.1c-1.256,0.26 -2.748,1.037 -3.85,0.4c-0.966,-0.58 -0.89,-2.138 -0.9,-3.3c-0.013,-1.501 0.387,-3.261 1.011,-4.383c0.625,-1.122 1.487,-1.817 2.439,-1.817z" data-paper-data="{&quot;origPos&quot;:null}" id="ID0.2989244391210377" fill="#000000" stroke="none" stroke-width="1" stroke-linecap="round"/><path d="M269.29352,91.55014c2.39648,14.94461 -0.49216,15.79448 -8.52168,20.57884c-11.69967,6.97121 -27.00365,5.55994 -39.50062,10.97342c-3.28137,1.42143 -11.64483,-2.03217 -15.22084,-2.03217c-7.31398,0 -11.44089,-5.22725 -11.74313,-11.45342c-0.66666,-13.7335 6.09582,-13.78676 13.4098,-13.78676c0,0 8.04926,1.33414 10.82961,5.60456c0,0 11.19763,-18.21899 23.00151,-20.46979c15.1949,-2.89741 26.02436,-0.14688 27.74535,10.58532z" data-paper-data="{&quot;origPos&quot;:null}" fill="#ff0021" stroke="none" stroke-width="0" stroke-linecap="butt"/><path d="M266.39956,100.07549c0,5.46762 -1.46317,9.58116 -12.2,9.9c-11.33464,0.33659 -12.2,-4.43238 -12.2,-9.9c0,-5.46762 5.46212,-9.9 12.2,-9.9c6.73787,0 12.2,4.43238 12.2,9.9z" data-paper-data="{&quot;origPos&quot;:null}" fill="#ffffff" stroke="none" stroke-width="0" stroke-linecap="butt"/><path d="M283.79956,116.47549c-0.2,0.85848 -39.34284,6.5 -50.3,7.7c-5.32532,0.58322 -16.1,0.15848 -15.9,-0.7c0.73933,-3.1735 2.8049,-8.24498 7.9,-9.9c6.15716,-2 27.29511,-7.38005 43.10212,-7.1384c6.46182,0.09879 15.93721,6.8649 15.19788,10.0384z" data-paper-data="{&quot;origPos&quot;:null}" fill="url(#color-5)" stroke="none" stroke-width="0" stroke-linecap="butt"/><path d="M245.79956,105.79771l4.82784,-12.82222l4.40385,5.93838l2.72355,-5.30956l5.33279,10.08214l-3.65873,2.20988l-1.51788,-7.64078l-2.71476,4.66865l-3.5719,-4.6906l-1.52983,7.56411z" data-paper-data="{&quot;origPos&quot;:null}" fill="#ff0021" stroke="none" stroke-width="0" stroke-linecap="butt"/><path d="M268.30545,159.71057c-0.3711,2.54836 -2.29609,3.82599 -3.74172,4.218c-4.4121,1.19644 -10.83865,1.02213 -15.21565,-0.29692c-2.51556,-0.75809 -2.56024,-2.38549 -2.80313,-2.61298c-0.25663,-0.24036 -2.96973,1.56689 -6.23949,1.56689c-5.2467,0 -8.875,-3.69733 -8.875,-8.875c0,-5.67767 0.49272,-8.8327 1.34672,-8.99605c4.97377,-0.95139 6.45569,3.43243 10.27828,5.49605c0,0 12.7819,4.20754 18.75328,3.86744c0,0 9.6388,-4.51103 12.62642,-4.31325c1.48172,0.09809 1.49141,3.20314 1.02397,4.7714c0,0 0.15212,4.28337 -1.92128,5.42204c-4.90253,2.69238 -5.12499,-0.98512 -5.23239,-0.24762z" data-paper-data="{&quot;origPos&quot;:null}" fill="#38291e" stroke="none" stroke-width="0" stroke-linecap="butt"/><path d="M273.93045,143.71057c-0.5,6.61802 1.12741,11.125 -13.25,10.875c-6.62642,-0.11523 -13,-4.25698 -13,-10.125c0,-5.86802 6.3926,-13.11026 13,-13.625c9.62741,-0.75 14.04992,2.28715 13.25,12.875z" data-paper-data="{&quot;origPos&quot;:null}" fill="#ffdebd" stroke="none" stroke-width="0" stroke-linecap="butt"/><g data-paper-data="{&quot;origPos&quot;:null}" fill="none" stroke="#f6b09a" stroke-width="3.5" stroke-linecap="round"><path d="M201.10692,127.65371c0,0 2.96332,-1.72996 6.75499,1.19948c5.43788,4.2013 2.24501,11.37195 2.24501,11.37195" data-paper-data="{&quot;origPos&quot;:null}"/><path d="M203.82121,134.36804h6" data-paper-data="{&quot;origPos&quot;:null}"/><path d="M207.96406,140.36804h1.28571" data-paper-data="{&quot;origPos&quot;:null}"/></g><path d="M240.51272,120.4229c-1.37576,0.41027 -1.31062,0.60464 -1.97844,1.87549c-0.68894,1.31106 -2.14657,2.99951 -2.14657,2.99951c0,0 -1.45833,-3.62706 -1.45833,-6.31945c0,-1.8281 0.99336,-5.0144 3.81107,-5.65344c9.53112,-0.32089 6.69401,8.65093 6.69401,8.65093c0,0 -3.4773,-2.0232 -4.92174,-1.55303z" data-paper-data="{&quot;origPos&quot;:null}" fill="#38291e" stroke="none" stroke-width="0" stroke-linecap="butt"/><path d="M257.77351,117.61686c-1.51641,0.08916 -4.01601,3.24146 -4.01601,3.24146c0,0 -5.91454,-7.31854 3.07681,-10.49674c2.85665,-0.43291 4.94393,2.17143 5.61082,3.87354c0.98219,2.50684 0.94752,6.41595 0.94752,6.41595c0,0 -1.97313,-1.04035 -3.09287,-2.00973c-1.0854,-0.93965 -1.09566,-1.14439 -2.52627,-1.02451z" data-paper-data="{&quot;origPos&quot;:null,&quot;index&quot;:null,&quot;origRot&quot;:0}" fill="#38291e" stroke="none" stroke-width="0" stroke-linecap="butt"/></g></g></g></svg>