<svg version="1.1" xmlns="http://www.w3.org/2000/svg" xmlns:xlink="http://www.w3.org/1999/xlink" width="532.01984" height="149.9531" viewBox="0,0,532.01984,149.9531"><defs><linearGradient x1="239.5" y1="253" x2="239.5" y2="363" gradientUnits="userSpaceOnUse" id="color-1"><stop offset="0" stop-color="#7c5831"/><stop offset="1" stop-color="#95693b"/></linearGradient><linearGradient x1="246.31273" y1="215.0469" x2="246.31273" y2="349.00703" gradientUnits="userSpaceOnUse" id="color-2"><stop offset="0" stop-color="#64e298"/><stop offset="1" stop-color="#60b483"/></linearGradient></defs><g transform="translate(19.6972,-214.0469)"><g data-paper-data="{&quot;isPaintingLayer&quot;:true}" fill-rule="nonzero" stroke-width="2" stroke-linejoin="miter" stroke-miterlimit="10" stroke-dasharray="" stroke-dashoffset="0" style="mix-blend-mode: normal"><g data-paper-data="{&quot;origPos&quot;:null}"><path d="M-2,253l244,90l239,-79l-1,99h-480z" fill="url(#color-1)" stroke="#663b00" stroke-linecap="butt"/><path d="M241,328c92.435,1.572 169.9,-75.368 259,-100c22.275,-6.158 6.016,20.915 -1,26c-27.176,19.709 -61.551,25.918 -92,39c-28.502,13.229 -55.485,30.526 -85,40c-26.486,8.495 -54.019,16.274 -82,16c-29.722,-0.296 -59.394,-8.985 -87,-20c-28.171,-11.241 -50.889,-33.789 -78,-48c-26.342,-12.85 -59.187,-14.258 -82,-33c-8.23,-6.761 -21.59,-38.85 0,-32c86.36,27.408 157.853,110.459 248,112z" fill="url(#color-2)" stroke="#209a70" stroke-linecap="round"/></g><g fill="#b2b2b2" stroke="#7f7f7f" stroke-linecap="round"><path d="M37.1286,315.9466c-0.6625,-0.2358 2.1078,-0.9869 2.7973,-2.4084c0.6274,-1.2931 0.6336,-2.8125 0.8208,-4.2368c0.0927,-0.7056 -0.6229,-1.8227 0.0155,-2.136c1.2769,-0.6265 2.9595,-0.5181 4.2719,0.0311c1.4122,0.5905 2.8431,1.7077 3.3421,3.1552c0.695,2.0174 0.4637,4.3362 -0.0466,6.4078c-0.3287,1.3326 -1.1559,2.728 -2.3654,3.3771c-1.1851,0.636 -2.759,0.4728 -4.0384,0.0584c-1.849,-0.5994 -4.4598,-1.1558 -5.0112,-2.9917z"/><path d="M34.2912,326.1321c-4.5508,1.2918 -8.4311,-2.9962 -11.279,-6.1975c-2.996,-3.3707 -4.7859,-8.3373 -5.2019,-12.9712c-0.2763,-3.1014 1.0757,-6.1954 2.9878,-8.4933c1.905,-2.2877 5.0946,-4.1912 8.2519,-4.0658c4.6809,-0.005 11.0559,0.1383 13.5744,4.4c2.5968,4.401 -0.8437,10.2811 -2.3341,15.1695c-1.317,4.3188 -1.9334,10.3721 -5.9991,12.1583z"/><path d="M42.0274,321.2907c1.0313,-1.4306 1.7842,-3.3921 3.4236,-4.0424c1.4122,-0.5607 4.269,-0.5955 4.4703,0.9103c0.3983,2.9703 -1.4105,6.0157 -3.2212,8.4038c-1.0472,1.3796 -3.1448,2.65 -4.8438,2.1594c-1.3865,-0.5625 -1.5646,-2.808 -1.5485,-4.3419c0.0116,-1.1757 1.0312,-2.1343 1.3072,-2.7118z"/><path d="M47.6723,306.5279c0.1807,-0.6139 0.063,-2.0084 0.8403,-2.8907c1.0133,-1.1516 2.6467,-2.7027 4.054,-2.1944c1.5916,0.7707 2.3026,3.1177 2.1594,4.8438c-0.2495,2.9866 -0.9397,6.4607 -3.2213,8.4038c-1.1563,0.9854 -3.2578,-0.95 -3.9334,-2.311c-0.7847,-1.5795 -0.0337,-3.5416 0.1555,-5.2951z"/></g><g fill="#b2b2b2" stroke="#7f7f7f" stroke-linecap="round"><path d="M364.274,342.8607c-0.2285,-0.6651 2.0855,1.0334 3.6268,0.6867c1.4022,-0.3152 2.5944,-1.2572 3.825,-1.9985c0.6096,-0.3672 1.0373,-1.623 1.6801,-1.319c1.2857,0.6082 2.2495,1.9917 2.638,3.3603c0.4182,1.4724 0.4363,3.2877 -0.3848,4.58c-1.1446,1.8008 -3.1022,3.065 -5.0403,3.957c-1.2471,0.5734 -2.8538,0.796 -4.1152,0.2547c-1.236,-0.5305 -2.0892,-1.863 -2.5625,-3.1219c-0.6834,-1.8195 -1.8754,-4.2081 -0.7832,-5.7835z"/><path d="M354.578,346.9568c-3.8463,-2.754 -2.9111,-8.4609 -2.1822,-12.6831c0.7688,-4.4437 3.5376,-8.9388 6.9023,-12.152c2.2532,-2.1488 5.5155,-3.0197 8.5042,-2.9564c2.9764,0.0641 6.4528,1.3723 8.3224,3.9196c2.921,3.6577 6.782,8.7326 5.0186,13.3581c-1.8235,4.7736 -8.5663,5.7475 -13.3181,7.6284c-4.1983,1.6615 -9.3166,4.9518 -13.2472,2.8854z"/><path d="M363.1475,350.0223c1.7616,-0.085 3.7648,-0.7185 5.2951,0.1583c1.3186,0.755 3.1261,2.9674 2.074,4.0633c-2.0748,2.1626 -5.5837,2.6459 -8.5798,2.7181c-1.7315,0.0408 -4.0323,-0.808 -4.7074,-2.4424c-0.4242,-1.4349 1.221,-2.9736 2.4305,-3.9169c0.9268,-0.7237 2.3119,-0.5237 2.9355,-0.6677z"/><path d="M378.2488,345.2042c0.5928,-0.2413 1.61,-1.2024 2.7844,-1.1443c1.5321,0.0747 3.7631,0.3855 4.2426,1.8029c0.3891,1.725 -1.0032,3.7437 -2.4424,4.7074c-2.4911,1.6661 -5.6382,3.2914 -8.5797,2.718c-1.4913,-0.2902 -1.2874,-3.1398 -0.6441,-4.5164c0.7462,-1.5979 2.7488,-2.2334 4.238,-3.1783z"/></g><path d="M93.8694,308.8258c2.7451,2.1439 -7.2302,10.79 -5.9995,16.5002c0.8521,3.9341 6.5276,4.7593 10.2904,6.0143c2.3051,0.7523 5.4642,-1.2673 6.4014,0.1457c0.8894,1.3442 -1.4401,3.8203 -2.9268,5.0494c-1.7701,1.7105 -4.0257,3.7606 -6.4433,3.4071c-6.6706,-0.9767 -14.858,-1.5649 -19.0586,-6.8388c-3.4671,-4.3525 -2.9802,-12.2151 0.3023,-16.708c3.7336,-5.1105 14.4619,-9.8911 18.0144,-9.0407z" fill="#b2b2b2" stroke="#7f7f7f" stroke-linecap="round"/><path d="M438,299.15c3.481,-0.12 1.389,12.914 6,16.5c3.18,2.468 8.06,-0.545 11.75,-2c2.25,-0.904 3.374,-4.481 5,-4c1.545,0.459 1.35,3.853 1,5.75c-0.258,2.448 -0.67,5.468 -2.75,6.75c-5.74,3.536 -12.393,8.344 -19,7c-5.453,-1.109 -10.13,-7.448 -10.5,-13c-0.421,-6.315 4.731,-16.87 8,-18.5z" fill="#b2b2b2" stroke="#7f7f7f" stroke-linecap="round"/></g></g></svg>