<svg version="1.1" xmlns="http://www.w3.org/2000/svg" xmlns:xlink="http://www.w3.org/1999/xlink" width="1058.67973" height="412.88785" viewBox="0,0,1058.67973,412.88785"><defs><linearGradient x1="719.04826" y1="254.72523" x2="719.04826" y2="293.45984" gradientUnits="userSpaceOnUse" id="color-1"><stop offset="0" stop-color="#8d5418"/><stop offset="1" stop-color="#c06520"/></linearGradient><linearGradient x1="720.02836" y1="239.04596" x2="720.02836" y2="261.92652" gradientUnits="userSpaceOnUse" id="color-2"><stop offset="0" stop-color="#7fea5b"/><stop offset="1" stop-color="#61b245"/></linearGradient><linearGradient x1="723.7338" y1="303.87212" x2="723.7338" y2="326.45289" gradientUnits="userSpaceOnUse" id="color-3"><stop offset="0" stop-color="#8d5418"/><stop offset="1" stop-color="#c06520"/></linearGradient><linearGradient x1="697.60536" y1="290.20416" x2="697.60536" y2="319.4318" gradientUnits="userSpaceOnUse" id="color-4"><stop offset="0" stop-color="#7fea5b"/><stop offset="1" stop-color="#61b245"/></linearGradient><linearGradient x1="303.19501" y1="70.89227" x2="303.19501" y2="197.7953" gradientUnits="userSpaceOnUse" id="color-5"><stop offset="0" stop-color="#edf3f8"/><stop offset="1" stop-color="#cedee9"/></linearGradient><linearGradient x1="320.03179" y1="123.23267" x2="320.03179" y2="140.63374" gradientUnits="userSpaceOnUse" id="color-6"><stop offset="0" stop-color="#ff4040"/><stop offset="1" stop-color="#c33131"/></linearGradient><linearGradient x1="349.17174" y1="157.7117" x2="321.70248" y2="160.58787" gradientUnits="userSpaceOnUse" id="color-7"><stop offset="0" stop-color="#ffffff"/><stop offset="1" stop-color="#ffffff" stop-opacity="0"/></linearGradient><linearGradient x1="291.56757" y1="157.55801" x2="319.07353" y2="159.99073" gradientUnits="userSpaceOnUse" id="color-8"><stop offset="0" stop-color="#979797"/><stop offset="1" stop-color="#979797" stop-opacity="0"/></linearGradient><linearGradient x1="318.73204" y1="190.95644" x2="318.73204" y2="213.60094" gradientUnits="userSpaceOnUse" id="color-9"><stop offset="0" stop-color="#ff4040"/><stop offset="1" stop-color="#c33131"/></linearGradient><linearGradient x1="210.22072" y1="198.50458" x2="248.69294" y2="198.50458" gradientUnits="userSpaceOnUse" id="color-10"><stop offset="0" stop-color="#c33131"/><stop offset="1" stop-color="#ff4040"/></linearGradient><linearGradient x1="388.44536" y1="198.50458" x2="426.91754" y2="198.50458" gradientUnits="userSpaceOnUse" id="color-11"><stop offset="0" stop-color="#c33131"/><stop offset="1" stop-color="#ff4040"/></linearGradient><radialGradient cx="319.98327" cy="193.40131" r="24.05331" gradientUnits="userSpaceOnUse" id="color-12"><stop offset="0" stop-color="#65ceff"/><stop offset="1" stop-color="#3f99ff"/></radialGradient><linearGradient x1="218.22728" y1="256.66685" x2="245.83629" y2="256.66685" gradientUnits="userSpaceOnUse" id="color-13"><stop offset="0" stop-color="#d6dde2"/><stop offset="1" stop-color="#d6dde2" stop-opacity="0"/></linearGradient><linearGradient x1="392.24781" y1="257.09728" x2="419.85682" y2="257.09728" gradientUnits="userSpaceOnUse" id="color-14"><stop offset="0" stop-color="#d6dde2"/><stop offset="1" stop-color="#d6dde2" stop-opacity="0"/></linearGradient><linearGradient x1="293.52459" y1="267.85673" x2="321.13364" y2="267.85673" gradientUnits="userSpaceOnUse" id="color-15"><stop offset="0" stop-color="#d6dde2"/><stop offset="1" stop-color="#d6dde2" stop-opacity="0"/></linearGradient><linearGradient x1="346.65106" y1="268.28709" x2="319.04197" y2="268.28709" gradientUnits="userSpaceOnUse" id="color-16"><stop offset="0" stop-color="#ffffff"/><stop offset="1" stop-color="#ffffff" stop-opacity="0"/></linearGradient><linearGradient x1="141.75753" y1="191.76403" x2="141.75753" y2="213.77408" gradientUnits="userSpaceOnUse" id="color-17"><stop offset="0" stop-color="#ff4040"/><stop offset="1" stop-color="#c33131"/></linearGradient><linearGradient x1="33.24618" y1="199.10074" x2="71.7184" y2="199.10074" gradientUnits="userSpaceOnUse" id="color-18"><stop offset="0" stop-color="#c33131"/><stop offset="1" stop-color="#ff4040"/></linearGradient><linearGradient x1="41.2527" y1="255.63325" x2="68.86175" y2="255.63325" gradientUnits="userSpaceOnUse" id="color-19"><stop offset="0" stop-color="#d6dde2"/><stop offset="1" stop-color="#d6dde2" stop-opacity="0"/></linearGradient><linearGradient x1="502.73676" y1="192.62316" x2="502.73676" y2="214.63321" gradientUnits="userSpaceOnUse" id="color-20"><stop offset="0" stop-color="#ff4040"/><stop offset="1" stop-color="#c33131"/></linearGradient><linearGradient x1="611.24807" y1="199.95979" x2="572.77586" y2="199.95979" gradientUnits="userSpaceOnUse" id="color-21"><stop offset="0" stop-color="#c33131"/><stop offset="1" stop-color="#ff4040"/></linearGradient><linearGradient x1="603.24155" y1="256.49231" x2="575.63251" y2="256.49231" gradientUnits="userSpaceOnUse" id="color-22"><stop offset="0" stop-color="#d6dde2"/><stop offset="1" stop-color="#d6dde2" stop-opacity="0"/></linearGradient><linearGradient x1="319.84948" y1="39.48701" x2="319.84948" y2="73.49939" gradientUnits="userSpaceOnUse" id="color-23"><stop offset="0" stop-color="#ff4040"/><stop offset="1" stop-color="#c33131"/></linearGradient><linearGradient x1="328.20286" y1="295.16075" x2="328.20286" y2="339.87633" gradientUnits="userSpaceOnUse" id="color-24"><stop offset="0" stop-color="#8d5418"/><stop offset="1" stop-color="#c06520"/></linearGradient><linearGradient x1="330.41087" y1="279.53474" x2="330.41087" y2="312.94932" gradientUnits="userSpaceOnUse" id="color-25"><stop offset="0" stop-color="#7fea5b"/><stop offset="1" stop-color="#61b245"/></linearGradient><linearGradient x1="-75.09835" y1="247.17721" x2="-75.09835" y2="285.91182" gradientUnits="userSpaceOnUse" id="color-26"><stop offset="0" stop-color="#8d5418"/><stop offset="1" stop-color="#c06520"/></linearGradient><linearGradient x1="-74.11825" y1="231.4979" x2="-74.11825" y2="254.37849" gradientUnits="userSpaceOnUse" id="color-27"><stop offset="0" stop-color="#7fea5b"/><stop offset="1" stop-color="#61b245"/></linearGradient><linearGradient x1="-70.41282" y1="296.32409" x2="-70.41282" y2="318.90486" gradientUnits="userSpaceOnUse" id="color-28"><stop offset="0" stop-color="#8d5418"/><stop offset="1" stop-color="#c06520"/></linearGradient><linearGradient x1="-96.54121" y1="282.65613" x2="-96.54121" y2="311.88377" gradientUnits="userSpaceOnUse" id="color-29"><stop offset="0" stop-color="#7fea5b"/><stop offset="1" stop-color="#61b245"/></linearGradient></defs><g transform="translate(199.3916,-39.48701)"><g data-paper-data="{&quot;isPaintingLayer&quot;:true}" fill-rule="nonzero" stroke-linejoin="miter" stroke-miterlimit="10" stroke-dasharray="" stroke-dashoffset="0" style="mix-blend-mode: normal"><g><path d="M687.33114,254.72523h63.43417v38.73457h-63.43417z" fill="url(#color-1)" stroke="#663b00" stroke-width="1" stroke-linecap="butt"/><path d="M695.0708,240.85733c11.95839,-3.412 46.61754,-2.40537 50.36938,0c4.99292,3.21688 13.99028,17.12602 7.71422,18.65002c-7.79121,1.89188 -12.11738,-4.50632 -20.34137,-4.18427c-8.22399,0.32201 -9.11593,5.59535 -15.69495,5.59535c-6.57906,0 -8.61918,-5.40681 -14.87866,-5.59535c-6.25948,-0.1885 -8.20192,4.15637 -16.10014,4.66253c-7.89826,0.50616 3.56013,-17.58267 8.93151,-19.1282z" fill="url(#color-2)" stroke="#006622" stroke-width="1" stroke-linecap="round"/><path d="M603.30286,303.87212h240.86183l8.15897,148.50274l-242.56772,-4.26467z" fill="url(#color-3)" stroke="#763e13" stroke-width="0" stroke-linecap="butt"/><path d="M754.13407,290.4778c14.7163,-0.1426 103.90315,0.84937 103.90315,0.84937c4.24158,0.51329 -10.06271,23.01355 -28.3734,23.55644c-17.12841,0.50781 -28.79435,-10.05464 -39.75731,-10.00791c-10.96297,0.04672 -17.34423,10.60446 -26.81228,10.28728c-11.26632,-0.38186 -23.81303,-11.90508 -34.99624,-10.78912c-11.79796,0.37179 -18.10949,13.2534 -29.88295,13.54845c-11.0376,0.2745 -20.36351,-12.07771 -31.45395,-13.04668c-11.73892,-0.50883 -22.72098,10.49855 -34.42882,10.28728c-9.47193,-0.1731 -18.81995,-5.03953 -27.31405,-10.28728c-2.82933,-1.75425 -15.20431,-9.01884 -6.98977,-10.03594c32.85848,-4.06856 65.31773,-3.42078 98.24501,-4.01435c33.2806,-0.40895 35.27282,-0.12873 57.86053,-0.34761z" data-paper-data="{&quot;index&quot;:null}" fill="url(#color-4)" stroke="#006622" stroke-width="1" stroke-linecap="round"/></g><path d="M116.08022,296.10239l0.29049,0.25772" fill="none" stroke="#cccccc" stroke-width="2" stroke-linecap="round"/><path d="M233.53273,276.6008l-0.29049,-0.25772" fill="none" stroke="#cccccc" stroke-width="2" stroke-linecap="round"/><path d="M301.31239,246.53237l-0.29049,-0.25772" fill="none" stroke="#cccccc" stroke-width="2" stroke-linecap="round"/><path d="M374.61128,279.77949l0.29049,0.25772" fill="none" stroke="#cccccc" stroke-width="2" stroke-linecap="round"/><path d="M448.49116,261.99609l-0.29049,-0.25772" fill="none" stroke="#cccccc" stroke-width="2" stroke-linecap="round"/><path d="M512.10725,268.61118l0.29049,0.25772" fill="none" stroke="#cccccc" stroke-width="2" stroke-linecap="round"/><path d="M237.11535,236.82451l0.29049,0.25772" fill="none" stroke="#cccccc" stroke-width="2" stroke-linecap="round"/><path d="M439.77661,226.77304l-0.29049,-0.25772" fill="none" stroke="#cccccc" stroke-width="2" stroke-linecap="round"/><path d="M303.19501,70.89227h33.77998v126.90302h-33.77998z" fill="url(#color-5)" stroke="none" stroke-width="1.11058" stroke-linecap="butt"/><path d="M292.55633,123.23267h54.95085v17.40107h-54.95085z" fill="url(#color-6)" stroke="none" stroke-width="1.06271" stroke-linecap="butt"/><g data-paper-data="{&quot;origRot&quot;:0}" stroke="none"><path d="M352.07445,189.96548l-63.12897,-0.78685l4.33217,-49.66629l12.51273,-11.98097l30.11049,0.00662l11.50311,11.5933z" data-paper-data="{&quot;origPos&quot;:null}" fill="#ebf2f7" stroke-width="2.16315" stroke-linecap="round"/><path d="M325.95084,203.83249l-7.50542,-76.39908l17.3984,0.18098l11.75566,11.87188l5.82058,61.46997z" data-paper-data="{&quot;origPos&quot;:null,&quot;index&quot;:null,&quot;origRot&quot;:0}" fill="url(#color-7)" stroke-width="0" stroke-linecap="butt"/><path d="M287.91909,200.86632l5.1565,-61.21009l12.66524,-12.13376l16.09982,-0.19567l-6.41552,75.97233z" data-paper-data="{&quot;origPos&quot;:null,&quot;origRot&quot;:0}" fill="url(#color-8)" stroke-width="0" stroke-linecap="butt"/></g><path d="M234.88242,203.5367l36.49924,-12.5803h24.66162h49.32335l23.67517,0.83867l35.51279,10.90292l3.94587,10.90292h-179.53693z" fill="url(#color-9)" stroke="none" stroke-width="2.16315" stroke-linecap="round"/><path d="M210.70125,213.60094h216.03625v90.57806h-216.03625z" fill="#ebf2f7" stroke="none" stroke-width="9.46438" stroke-linecap="butt"/><path d="M210.22072,213.60094l18.74288,-30.19269l19.72937,30.19269z" fill="url(#color-10)" stroke="none" stroke-width="2.16315" stroke-linecap="round"/><path d="M388.44536,213.60094l18.74288,-30.19269l19.72937,30.19269z" fill="url(#color-11)" stroke="none" stroke-width="2.16315" stroke-linecap="round"/><path d="M302.60717,149.83873h39.45867l12.82407,48.64382h-70.0391z" fill="#ff4040" stroke="none" stroke-width="2.16315" stroke-linecap="round"/><path d="M292.89304,181.51144l27.1279,-21.14335l27.12782,21.14335v43.09994h-54.25568z" fill="#d6dde2" stroke="none" stroke-width="2.65368" stroke-linecap="round"/><path d="M298.12605,184.79374l22.17088,-16.13918l21.5434,16.13918v33.35429h-43.71428z" fill="url(#color-12)" stroke="none" stroke-width="1" stroke-linecap="round"/><path d="M218.22728,300.13509v-86.9364h27.60901v86.9364z" fill="url(#color-13)" stroke="none" stroke-width="0" stroke-linecap="butt"/><path d="M392.24781,300.56548v-86.9364h27.60901v86.9364z" fill="url(#color-14)" stroke="none" stroke-width="0" stroke-linecap="butt"/><path d="M293.52459,311.32493v-86.9364h27.60901v86.9364z" fill="url(#color-15)" stroke="none" stroke-width="0" stroke-linecap="butt"/><path d="M319.04197,311.75532v-86.9364h27.60901v86.9364z" data-paper-data="{&quot;index&quot;:null}" fill="url(#color-16)" stroke="none" stroke-width="0" stroke-linecap="butt"/><g fill="#99ffff" stroke="#84c3c3" stroke-width="2" stroke-linecap="butt"><path d="M221.57382,237.51506h6.69308v6.88605h-6.69308z"/><path d="M230.56766,237.51506h6.69308v6.88605h-6.69308z"/><path d="M230.3585,246.98338h6.69308v6.88605h-6.69308z"/><path d="M221.57382,246.98338h6.69308v6.88605h-6.69308z"/></g><g fill="#99ffff" stroke="#84c3c3" stroke-width="2" stroke-linecap="butt"><path d="M400.61416,236.22396h6.69308v6.88605h-6.69308z"/><path d="M409.60799,236.22396h6.69308v6.88605h-6.69308z"/><path d="M409.39884,245.69224h6.69308v6.88605h-6.69308z"/><path d="M400.61416,245.69224h6.69308v6.88605h-6.69308z"/></g><g stroke="none" stroke-linecap="butt"><path d="M388.48291,227.57523h11.7129v81.77186h-11.7129z" data-paper-data="{&quot;origPos&quot;:null}" fill="#aa5e35" stroke-width="2.07153"/><path d="M394.3394,212.55315c4.61659,0 8.79976,1.92896 11.82876,5.04533c3.02904,3.11637 4.90394,7.42012 4.90394,12.16978c0,4.74966 -1.8749,9.05345 -4.90394,12.16978c-3.02904,3.11637 -7.21222,5.04533 -11.82876,5.04533c-4.61659,0 -8.79976,-1.92896 -11.82876,-5.04533c-3.02904,-3.11637 -4.90394,-7.42012 -4.90394,-12.16978c0,-4.74966 1.8749,-9.05345 4.90394,-12.16978c3.02904,-3.11637 7.21222,-5.04533 11.82876,-5.04533z" data-paper-data="{&quot;origPos&quot;:null}" fill="#3abc3a" stroke-width="1"/><path d="M394.3394,196.19881c3.80837,0 7.25949,1.59154 9.75854,4.1626c2.49901,2.57109 4.04599,6.1217 4.04599,10.03986c0,3.91816 -1.54694,7.46877 -4.04599,10.03986c-2.49901,2.57109 -5.95017,4.1626 -9.75854,4.1626c-3.80837,0 -7.25949,-1.59154 -9.75854,-4.1626c-2.49901,-2.57109 -4.04599,-6.1217 -4.04599,-10.03986c0,-3.91816 1.54694,-7.46881 4.04599,-10.03986c2.49901,-2.57109 5.95017,-4.1626 9.75854,-4.1626z" data-paper-data="{&quot;origPos&quot;:null}" fill="#3ec73d" stroke-width="1"/><path d="M394.54856,185.00893c2.25057,0 4.28987,0.94039 5.76653,2.45962c1.47666,1.51922 2.39067,3.61732 2.39067,5.93277c0,2.31545 -0.91405,4.4135 -2.39067,5.93277c-1.47666,1.51922 -3.51595,2.45962 -5.76653,2.45962c-2.25057,0 -4.28987,-0.94035 -5.76653,-2.45962c-1.47666,-1.51922 -2.39067,-3.61732 -2.39067,-5.93277c0,-2.31545 0.91405,-4.4135 2.39067,-5.93277c1.47666,-1.51922 3.51595,-2.45962 5.76653,-2.45962z" data-paper-data="{&quot;origPos&quot;:null}" fill="#42d642" stroke-width="1"/></g><g stroke="none" stroke-linecap="butt"><path d="M237.46994,227.84189h11.7129v83.49339h-11.7129z" data-paper-data="{&quot;origPos&quot;:null}" fill="#aa5e35" stroke-width="2.1101"/><path d="M243.32631,213.19869c4.61659,0 8.79976,1.92896 11.8288,5.04533c3.02904,3.11637 4.90394,7.42012 4.90394,12.16978c0,4.74966 -1.8749,9.05345 -4.90394,12.16978c-3.02904,3.11637 -7.21222,5.04533 -11.8288,5.04533c-4.61659,0 -8.79976,-1.92896 -11.82876,-5.04533c-3.02904,-3.11637 -4.90394,-7.42012 -4.90394,-12.16978c0,-4.74966 1.8749,-9.05345 4.90394,-12.16978c3.02904,-3.11637 7.21222,-5.04533 11.82876,-5.04533z" data-paper-data="{&quot;origPos&quot;:null}" fill="#3abc3a" stroke-width="1"/><path d="M243.32631,196.84436c3.80837,0 7.25949,1.59154 9.75854,4.1626c2.49901,2.57109 4.04599,6.1217 4.04599,10.03986c0,3.91816 -1.54694,7.46877 -4.04599,10.03986c-2.49901,2.57109 -5.95017,4.1626 -9.75854,4.1626c-3.80837,0 -7.25949,-1.59154 -9.75854,-4.1626c-2.49901,-2.57109 -4.04599,-6.1217 -4.04599,-10.03986c0,-3.91816 1.54694,-7.46877 4.04599,-10.03986c2.49901,-2.57109 5.95017,-4.1626 9.75854,-4.1626z" data-paper-data="{&quot;origPos&quot;:null}" fill="#3ec73d" stroke-width="1"/><path d="M243.5355,185.65452c2.25057,0 4.28987,0.94039 5.76653,2.45962c1.47666,1.51922 2.39067,3.61732 2.39067,5.93277c0,2.31545 -0.91405,4.4135 -2.39067,5.93277c-1.47666,1.51922 -3.51595,2.45962 -5.76653,2.45962c-2.25057,0 -4.28987,-0.94039 -5.76649,-2.45962c-1.47666,-1.51922 -2.39067,-3.61732 -2.39067,-5.93277c0,-2.31545 0.91401,-4.4135 2.39067,-5.93277c1.47666,-1.51922 3.51595,-2.45962 5.76649,-2.45962z" data-paper-data="{&quot;origPos&quot;:null}" fill="#42d642" stroke-width="1"/></g><g fill="#99ffff" stroke="#84c3c3" stroke-width="2" stroke-linecap="butt"><path d="M263.40568,248.27459h6.69308v6.88605h-6.69308z"/><path d="M272.39951,248.27459h6.69308v6.88605h-6.69308z"/><path d="M272.19035,257.74283h6.69308v6.88605h-6.69308z"/><path d="M263.40568,257.74283h6.69308v6.88605h-6.69308z"/></g><g fill="#99ffff" stroke="#84c3c3" stroke-width="2" stroke-linecap="butt"><path d="M351.04343,249.35045h6.69308v6.88605h-6.69308z"/><path d="M360.03727,249.35045h6.69308v6.88605h-6.69308z"/><path d="M359.82811,258.81881h6.69308v6.88605h-6.69308z"/><path d="M351.04343,258.81881h6.69308v6.88605h-6.69308z"/></g><g fill="#99ffff" stroke="#84c3c3" stroke-width="2" stroke-linecap="butt"><path d="M263.40568,222.88221h6.69308v6.88605h-6.69308z"/><path d="M272.39951,222.88221h6.69308v6.88605h-6.69308z"/><path d="M272.19035,232.35057h6.69308v6.88605h-6.69308z"/><path d="M263.40568,232.35057h6.69308v6.88605h-6.69308z"/></g><g fill="#99ffff" stroke="#84c3c3" stroke-width="2" stroke-linecap="butt"><path d="M351.04343,223.95819h6.69308v6.88605h-6.69308z"/><path d="M360.03727,223.95819h6.69308v6.88605h-6.69308z"/><path d="M359.82811,233.42647h6.69308v6.88605h-6.69308z"/><path d="M351.04343,233.42647h6.69308v6.88605h-6.69308z"/></g><path d="M57.90784,203.99178l36.49924,-12.22776h24.66162h49.32335l23.67517,0.81516l35.51279,10.59741l3.94587,10.59741h-179.53693z" fill="url(#color-17)" stroke="none" stroke-width="2.16315" stroke-linecap="round"/><path d="M33.72671,213.77408h184.24952v88.03997h-184.24952z" fill="#ebf2f7" stroke="none" stroke-width="9.46438" stroke-linecap="butt"/><path d="M33.24618,213.77408l18.74288,-29.34668l19.72937,29.34668z" fill="url(#color-18)" stroke="none" stroke-width="2.16315" stroke-linecap="round"/><path d="M41.2527,297.88342v-84.50034h27.60901v84.50034z" fill="url(#color-19)" stroke="none" stroke-width="0" stroke-linecap="butt"/><g fill="#99ffff" stroke="#84c3c3" stroke-width="2" stroke-linecap="butt"><path d="M44.5992,237.01811h6.69308v6.69308h-6.69308z"/><path d="M53.59311,237.01811h6.69308v6.69308h-6.69308z"/><path d="M53.38395,246.22106h6.69308v6.69308h-6.69308z"/><path d="M44.5992,246.22106h6.69308v6.69308h-6.69308z"/></g><g stroke="none" stroke-linecap="butt"><path d="M131.61211,228.21588h11.7129v79.48049h-11.7129z" data-paper-data="{&quot;origPos&quot;:null}" fill="#aa5e35" stroke-width="2.07153"/><path d="M137.46856,213.6147c4.61659,0 8.79976,1.8749 11.82876,4.90394c3.02904,3.02904 4.90394,7.21222 4.90394,11.82876c0,4.61659 -1.8749,8.79976 -4.90394,11.8288c-3.02904,3.02904 -7.21222,4.90394 -11.82876,4.90394c-4.61659,0 -8.79976,-1.8749 -11.82876,-4.90394c-3.02904,-3.02904 -4.90394,-7.21222 -4.90394,-11.8288c0,-4.61659 1.8749,-8.79976 4.90394,-11.82876c3.02904,-3.02904 7.21222,-4.90394 11.82876,-4.90394z" data-paper-data="{&quot;origPos&quot;:null}" fill="#3abc3a" stroke-width="1"/><path d="M137.46856,197.71859c3.80837,0 7.25949,1.54694 9.75854,4.04599c2.49901,2.49901 4.04599,5.95017 4.04599,9.75854c0,3.80837 -1.54694,7.25949 -4.04599,9.75854c-2.49901,2.49901 -5.95017,4.04599 -9.75854,4.04599c-3.80837,0 -7.25949,-1.54694 -9.75854,-4.04599c-2.49901,-2.49901 -4.04599,-5.95017 -4.04599,-9.75854c0,-3.80837 1.54694,-7.25949 4.04599,-9.75854c2.49901,-2.49901 5.95017,-4.04599 9.75854,-4.04599z" data-paper-data="{&quot;origPos&quot;:null}" fill="#3ec73d" stroke-width="1"/><path d="M137.67772,186.84233c2.25057,0 4.28987,0.91405 5.76653,2.39067c1.47666,1.47666 2.39067,3.51595 2.39067,5.76649c0,2.25057 -0.91405,4.28987 -2.39067,5.76653c-1.47666,1.47666 -3.51595,2.39067 -5.76653,2.39067c-2.25057,0 -4.28987,-0.91401 -5.76653,-2.39067c-1.47666,-1.47666 -2.39067,-3.51595 -2.39067,-5.76653c0,-2.25057 0.91405,-4.28987 2.39067,-5.76649c1.47666,-1.47666 3.51595,-2.39067 5.76653,-2.39067z" data-paper-data="{&quot;origPos&quot;:null}" fill="#42d642" stroke-width="1"/></g><g fill="#99ffff" stroke="#84c3c3" stroke-width="2" stroke-linecap="butt"><path d="M86.43109,247.47601h6.69308v6.69308h-6.69308z"/><path d="M95.42496,247.47601h6.69308v6.69308h-6.69308z"/><path d="M95.2158,256.67904h6.69308v6.69308h-6.69308z"/><path d="M86.43109,256.67904h6.69308v6.69308h-6.69308z"/></g><g fill="#99ffff" stroke="#84c3c3" stroke-width="2" stroke-linecap="butt"><path d="M174.06885,248.52181h6.69308v6.69308h-6.69308z"/><path d="M183.06268,248.52181h6.69308v6.69308h-6.69308z"/><path d="M182.85353,257.72484h6.69308v6.69308h-6.69308z"/><path d="M174.06885,257.72484h6.69308v6.69308h-6.69308z"/></g><g fill="#99ffff" stroke="#84c3c3" stroke-width="2" stroke-linecap="butt"><path d="M86.43109,222.79527h6.69308v6.69308h-6.69308z"/><path d="M95.42496,222.79527h6.69308v6.69308h-6.69308z"/><path d="M95.2158,231.9983h6.69308v6.69308h-6.69308z"/><path d="M86.43109,231.9983h6.69308v6.69308h-6.69308z"/></g><g fill="#99ffff" stroke="#84c3c3" stroke-width="2" stroke-linecap="butt"><path d="M174.06885,223.84106h6.69308v6.69308h-6.69308z"/><path d="M183.06268,223.84106h6.69308v6.69308h-6.69308z"/><path d="M182.85353,233.04409h6.69308v6.69308h-6.69308z"/><path d="M174.06885,233.04409h6.69308v6.69308h-6.69308z"/></g><g stroke="none" stroke-linecap="butt"><path d="M185.73538,229.07497h11.7129v79.48049h-11.7129z" data-paper-data="{&quot;origPos&quot;:null}" fill="#aa5e35" stroke-width="2.07153"/><path d="M191.59179,214.47383c4.61659,0 8.79976,1.8749 11.82876,4.90394c3.02904,3.02904 4.90394,7.21222 4.90394,11.82876c0,4.61659 -1.8749,8.79976 -4.90394,11.8288c-3.02904,3.02904 -7.21222,4.90394 -11.82876,4.90394c-4.61659,0 -8.79976,-1.8749 -11.82876,-4.90394c-3.02904,-3.02904 -4.90394,-7.21222 -4.90394,-11.8288c0,-4.61659 1.8749,-8.79976 4.90394,-11.82876c3.02904,-3.02904 7.21222,-4.90394 11.82876,-4.90394z" data-paper-data="{&quot;origPos&quot;:null}" fill="#3abc3a" stroke-width="1"/><path d="M191.59179,198.57772c3.80837,0 7.25949,1.54694 9.75854,4.04599c2.49901,2.49901 4.04599,5.95017 4.04599,9.75854c0,3.80837 -1.54694,7.25949 -4.04599,9.75854c-2.49901,2.49901 -5.95017,4.04599 -9.75854,4.04599c-3.80837,0 -7.25949,-1.54694 -9.75854,-4.04599c-2.49901,-2.49901 -4.04599,-5.95017 -4.04599,-9.75854c0,-3.80837 1.54694,-7.25949 4.04599,-9.75854c2.49901,-2.49901 5.95017,-4.04599 9.75854,-4.04599z" data-paper-data="{&quot;origPos&quot;:null}" fill="#3ec73d" stroke-width="1"/><path d="M191.80099,187.70138c2.25057,0 4.28987,0.91405 5.76653,2.39067c1.47666,1.47666 2.39067,3.51595 2.39067,5.76649c0,2.25057 -0.91405,4.28987 -2.39067,5.76653c-1.47666,1.47666 -3.51595,2.39067 -5.76653,2.39067c-2.25057,0 -4.28987,-0.91401 -5.76653,-2.39067c-1.47666,-1.47666 -2.39067,-3.51595 -2.39067,-5.76653c0,-2.25057 0.91405,-4.28987 2.39067,-5.76649c1.47666,-1.47666 3.51595,-2.39067 5.76653,-2.39067z" data-paper-data="{&quot;origPos&quot;:null}" fill="#42d642" stroke-width="1"/></g><path d="M592.50523,214.63321h-179.53693l3.94587,-10.59741l35.51279,-10.59741l23.67517,-0.81516h49.32335h24.66162l36.49924,12.22776z" fill="url(#color-20)" stroke="none" stroke-width="2.16315" stroke-linecap="round"/><path d="M610.76755,302.6731h-184.24952v-88.03997h184.24952z" fill="#ebf2f7" stroke="none" stroke-width="9.46438" stroke-linecap="butt"/><path d="M572.77586,214.63321l19.72937,-29.34668l18.74288,29.34668z" fill="url(#color-21)" stroke="none" stroke-width="2.16315" stroke-linecap="round"/><path d="M575.63251,298.74255v-84.50034h27.60901v84.50034z" fill="url(#color-22)" stroke="none" stroke-width="0" stroke-linecap="butt"/><g fill="#99ffff" stroke="#84c3c3" stroke-width="2" stroke-linecap="butt"><path d="M599.89497,244.57033h-6.69308v-6.69308h6.69308z"/><path d="M590.9011,244.57033h-6.69308v-6.69308h6.69308z"/><path d="M591.11034,253.77328h-6.69308v-6.69308h6.69308z"/><path d="M599.89497,253.77328h-6.69308v-6.69308h6.69308z"/></g><g stroke="none" stroke-linecap="butt"><path d="M512.88218,308.5555h-11.7129v-79.48049h11.7129z" data-paper-data="{&quot;origPos&quot;:null}" fill="#aa5e35" stroke-width="2.07153"/><path d="M518.8545,219.37774c3.02904,3.02904 4.90394,7.21222 4.90394,11.82876c0,4.61659 -1.8749,8.79976 -4.90394,11.8288c-3.02904,3.02904 -7.21222,4.90394 -11.82876,4.90394c-4.61655,0 -8.79976,-1.8749 -11.82876,-4.90394c-3.02904,-3.02904 -4.90394,-7.21222 -4.90394,-11.8288c0,-4.61655 1.8749,-8.79976 4.90394,-11.82876c3.02904,-3.02904 7.21222,-4.90394 11.82876,-4.90394c4.61659,0 8.79976,1.8749 11.82876,4.90394z" data-paper-data="{&quot;origPos&quot;:null}" fill="#3abc3a" stroke-width="1"/><path d="M516.78427,202.62375c2.49901,2.49901 4.04599,5.95017 4.04599,9.75854c0,3.80837 -1.54694,7.25949 -4.04599,9.75854c-2.49901,2.49901 -5.95017,4.04599 -9.75854,4.04599c-3.80837,0 -7.25949,-1.54694 -9.75854,-4.04599c-2.49901,-2.49901 -4.04599,-5.95017 -4.04599,-9.75854c0,-3.80837 1.54694,-7.25949 4.04599,-9.75854c2.49901,-2.49901 5.95017,-4.04599 9.75854,-4.04599c3.80837,0 7.25949,1.54694 9.75854,4.04599z" data-paper-data="{&quot;origPos&quot;:null}" fill="#3ec73d" stroke-width="1"/><path d="M512.5831,190.09213c1.47666,1.47666 2.39067,3.51595 2.39067,5.76649c0,2.25057 -0.91401,4.28987 -2.39067,5.76653c-1.47666,1.47666 -3.51595,2.39067 -5.76653,2.39067c-2.25057,0 -4.28987,-0.91401 -5.76653,-2.39067c-1.47666,-1.47666 -2.39067,-3.51595 -2.39067,-5.76653c0,-2.25057 0.91401,-4.28987 2.39067,-5.76649c1.47666,-1.47666 3.51595,-2.39067 5.76653,-2.39067c2.25057,0 4.28987,0.91405 5.76653,2.39067z" data-paper-data="{&quot;origPos&quot;:null}" fill="#42d642" stroke-width="1"/></g><g fill="#99ffff" stroke="#84c3c3" stroke-width="2" stroke-linecap="butt"><path d="M558.06312,255.02823h-6.69308v-6.69308h6.69308z"/><path d="M549.06929,255.02823h-6.69308v-6.69308h6.69308z"/><path d="M549.27845,264.23126h-6.69308v-6.69308h6.69308z"/><path d="M558.06312,264.23126h-6.69308v-6.69308h6.69308z"/></g><g fill="#99ffff" stroke="#84c3c3" stroke-width="2" stroke-linecap="butt"><path d="M470.42544,256.07399h-6.69308v-6.69308h6.69308z"/><path d="M461.43153,256.07399h-6.69308v-6.69308h6.69308z"/><path d="M461.64073,265.27702h-6.69308v-6.69308h6.69308z"/><path d="M470.42544,265.27702h-6.69308v-6.69308h6.69308z"/></g><g fill="#99ffff" stroke="#84c3c3" stroke-width="2" stroke-linecap="butt"><path d="M558.06312,230.34749h-6.69308v-6.69308h6.69308z"/><path d="M549.06929,230.34749h-6.69308v-6.69308h6.69308z"/><path d="M549.27845,239.55044h-6.69308v-6.69308h6.69308z"/><path d="M558.06312,239.55044h-6.69308v-6.69308h6.69308z"/></g><g fill="#99ffff" stroke="#84c3c3" stroke-width="2" stroke-linecap="butt"><path d="M470.42544,231.39324h-6.69308v-6.69308h6.69308z"/><path d="M461.43153,231.39324h-6.69308v-6.69308h6.69308z"/><path d="M461.64073,240.59627h-6.69308v-6.69308h6.69308z"/><path d="M470.42544,240.59627h-6.69308v-6.69308h6.69308z"/></g><g stroke="none" stroke-linecap="butt"><path d="M458.75888,309.41459h-11.7129v-79.48049h11.7129z" data-paper-data="{&quot;origPos&quot;:null}" fill="#aa5e35" stroke-width="2.07153"/><path d="M464.73123,220.23687c3.02904,3.02904 4.90394,7.21222 4.90394,11.82876c0,4.61659 -1.8749,8.79976 -4.90394,11.8288c-3.02904,3.02904 -7.21222,4.90394 -11.82876,4.90394c-4.61655,0 -8.79976,-1.8749 -11.82876,-4.90394c-3.02904,-3.02904 -4.90394,-7.21222 -4.90394,-11.8288c0,-4.61655 1.8749,-8.79976 4.90394,-11.82876c3.02904,-3.02904 7.21222,-4.90394 11.82876,-4.90394c4.61659,0 8.79976,1.8749 11.82876,4.90394z" data-paper-data="{&quot;origPos&quot;:null}" fill="#3abc3a" stroke-width="1"/><path d="M462.66097,203.4828c2.49901,2.49901 4.04599,5.95017 4.04599,9.75854c0,3.80837 -1.54694,7.25949 -4.04599,9.75854c-2.49901,2.49901 -5.95017,4.04599 -9.75854,4.04599c-3.80837,0 -7.25949,-1.54694 -9.75854,-4.04599c-2.49901,-2.49901 -4.04599,-5.95017 -4.04599,-9.75854c0,-3.80837 1.54694,-7.25949 4.04599,-9.75854c2.49901,-2.49901 5.95017,-4.04599 9.75854,-4.04599c3.80837,0 7.25949,1.54694 9.75854,4.04599z" data-paper-data="{&quot;origPos&quot;:null}" fill="#3ec73d" stroke-width="1"/><path d="M458.4598,190.95118c1.47666,1.47666 2.39067,3.51595 2.39067,5.76649c0,2.25057 -0.91401,4.28987 -2.39067,5.76653c-1.47666,1.47666 -3.51595,2.39067 -5.76653,2.39067c-2.25057,0 -4.28987,-0.91401 -5.76653,-2.39067c-1.47666,-1.47666 -2.39067,-3.51595 -2.39067,-5.76653c0,-2.25057 0.91401,-4.28987 2.39067,-5.76649c1.47666,-1.47666 3.51595,-2.39067 5.76653,-2.39067c2.25057,0 4.28987,0.91405 5.76653,2.39067z" data-paper-data="{&quot;origPos&quot;:null}" fill="#42d642" stroke-width="1"/></g><path d="M301.42602,73.49939l17.95097,-34.01238l18.89583,34.01238z" fill="url(#color-23)" stroke="none" stroke-width="1.06271" stroke-linecap="round"/><path d="M306.52505,229.77783h26.72643v12.49548h-26.72643z" fill="#c95206" stroke="none" stroke-width="1" stroke-linecap="butt"/><path d="M297.70483,240.78857h45.33848v42.42385h-45.33848z" fill="#c95206" stroke="none" stroke-width="1" stroke-linecap="butt"/><path d="M297.70483,240.86956l9.06768,-11.17267v11.17267z" fill="#c95206" stroke="none" stroke-width="1" stroke-linecap="round"/><path d="M333.00399,229.85877l10.12018,11.01075h-10.12018z" fill="#c95206" stroke="none" stroke-width="1" stroke-linecap="round"/><g fill="#dd7821" stroke="none" stroke-width="1" stroke-linecap="butt"><path d="M306.86156,233.79351c0.39088,0 0.74519,0.15871 1.00166,0.41514c0.25651,0.25651 0.41514,0.61078 0.41514,1.00166c0,0.39088 -0.15871,0.74519 -0.41514,1.00166c-0.25651,0.25651 -0.61078,0.41514 -1.00166,0.41514c-0.39088,0 -0.74515,-0.15871 -1.00166,-0.41514c-0.25651,-0.25651 -0.41514,-0.61078 -0.41514,-1.00166c0,-0.39088 0.15871,-0.74519 0.41514,-1.00166c0.25651,-0.25651 0.61078,-0.41514 1.00166,-0.41514z" data-paper-data="{&quot;origPos&quot;:null}"/><path d="M315.41654,230.83032c0.39088,0 0.74515,0.15871 1.00166,0.41514c0.25651,0.25651 0.41514,0.61078 0.41514,1.00166c0,0.39088 -0.15871,0.74519 -0.41514,1.00166c-0.25651,0.25651 -0.61078,0.41514 -1.00166,0.41514c-0.39088,0 -0.74515,-0.15871 -1.00166,-0.41514c-0.25651,-0.25651 -0.41514,-0.61078 -0.41514,-1.00166c0,-0.39088 0.15871,-0.74519 0.41514,-1.00166c0.25651,-0.25651 0.61078,-0.41514 1.00166,-0.41514z" data-paper-data="{&quot;origPos&quot;:null}"/><g data-paper-data="{&quot;origPos&quot;:null}"><path d="M315.49207,241.13567c0.39088,0 0.74515,0.15871 1.00166,0.41514c0.25651,0.25651 0.41514,0.61078 0.41514,1.00166c0,0.39088 -0.15871,0.74519 -0.41514,1.00166c-0.25651,0.25651 -0.61078,0.41514 -1.00166,0.41514c-0.39088,0 -0.74515,-0.15871 -1.00166,-0.41514c-0.25651,-0.25651 -0.41514,-0.61078 -0.41514,-1.00166c0,-0.39088 0.15871,-0.74519 0.41514,-1.00166c0.25651,-0.25651 0.61078,-0.41514 1.00166,-0.41514z" data-paper-data="{&quot;origPos&quot;:null}"/><path d="M315.47036,250.99471c0.39088,0 0.74519,0.15871 1.00166,0.41514c0.25651,0.25651 0.41514,0.61078 0.41514,1.00166c0,0.39088 -0.15871,0.74519 -0.41514,1.00166c-0.25651,0.25651 -0.61078,0.41514 -1.00166,0.41514c-0.39088,0 -0.74515,-0.15871 -1.00166,-0.41514c-0.25651,-0.25651 -0.41514,-0.61078 -0.41514,-1.00166c0,-0.39088 0.15871,-0.74519 0.41514,-1.00166c0.25651,-0.25651 0.61078,-0.41514 1.00166,-0.41514z" data-paper-data="{&quot;origPos&quot;:null}"/><path d="M315.32313,260.867c0.39088,0 0.74519,0.15871 1.00166,0.41514c0.25651,0.25651 0.41514,0.61078 0.41514,1.00166c0,0.39088 -0.15871,0.74519 -0.41514,1.00166c-0.25651,0.25651 -0.61078,0.41514 -1.00166,0.41514c-0.39088,0 -0.74519,-0.15871 -1.00166,-0.41514c-0.25651,-0.25651 -0.41514,-0.61078 -0.41514,-1.00166c0,-0.39088 0.15871,-0.74519 0.41514,-1.00166c0.25651,-0.25651 0.61078,-0.41514 1.00166,-0.41514z" data-paper-data="{&quot;origPos&quot;:null}"/><path d="M315.33297,270.30961c0.39088,0 0.74519,0.15871 1.00166,0.41514c0.25651,0.25651 0.41514,0.61078 0.41514,1.00166c0,0.39088 -0.15871,0.74519 -0.41514,1.00166c-0.25651,0.25651 -0.61078,0.41514 -1.00166,0.41514c-0.39088,0 -0.74515,-0.15871 -1.00166,-0.41514c-0.25651,-0.25651 -0.41514,-0.61078 -0.41514,-1.00166c0,-0.39088 0.15871,-0.74519 0.41514,-1.00166c0.25651,-0.25651 0.61078,-0.41514 1.00166,-0.41514z" data-paper-data="{&quot;origPos&quot;:null}"/><path d="M315.3051,279.35863c0.39088,0 0.74519,0.15871 1.00166,0.41514c0.25651,0.25651 0.41514,0.61078 0.41514,1.00166c0,0.39088 -0.15871,0.74519 -0.41514,1.00166c-0.25651,0.25651 -0.61078,0.41514 -1.00166,0.41514c-0.39088,0 -0.74515,-0.15871 -1.00166,-0.41514c-0.25651,-0.25651 -0.41514,-0.61078 -0.41514,-1.00166c0,-0.39088 0.15871,-0.74519 0.41514,-1.00166c0.25651,-0.25651 0.61078,-0.41514 1.00166,-0.41514z" data-paper-data="{&quot;origPos&quot;:null}"/></g><g data-paper-data="{&quot;origPos&quot;:null}"><path d="M300.98493,241.07166c0.39088,0 0.74515,0.15871 1.00166,0.41514c0.25651,0.25651 0.41514,0.61078 0.41514,1.00166c0,0.39088 -0.15871,0.74519 -0.41514,1.00166c-0.25651,0.25651 -0.61078,0.41514 -1.00166,0.41514c-0.39088,0 -0.74519,-0.15871 -1.00166,-0.41514c-0.25651,-0.25651 -0.41514,-0.61078 -0.41514,-1.00166c0,-0.39088 0.15871,-0.74519 0.41514,-1.00166c0.25651,-0.25651 0.61078,-0.41514 1.00166,-0.41514z" data-paper-data="{&quot;origPos&quot;:null}"/><path d="M300.96325,250.9307c0.39088,0 0.74515,0.15871 1.00166,0.41514c0.25651,0.25651 0.41514,0.61078 0.41514,1.00166c0,0.39088 -0.15871,0.74519 -0.41514,1.00166c-0.25651,0.25651 -0.61078,0.41514 -1.00166,0.41514c-0.39088,0 -0.74519,-0.15871 -1.00166,-0.41514c-0.25651,-0.25651 -0.41514,-0.61078 -0.41514,-1.00166c0,-0.39088 0.15871,-0.74519 0.41514,-1.00166c0.25651,-0.25651 0.61078,-0.41514 1.00166,-0.41514z" data-paper-data="{&quot;origPos&quot;:null}"/><path d="M300.81595,260.80299c0.39088,0 0.74515,0.15871 1.00166,0.41514c0.25651,0.25651 0.41514,0.61078 0.41514,1.00166c0,0.39088 -0.15871,0.74519 -0.41514,1.00166c-0.25651,0.25651 -0.61078,0.41514 -1.00166,0.41514c-0.39088,0 -0.74515,-0.15871 -1.00166,-0.41514c-0.25651,-0.25651 -0.41514,-0.61078 -0.41514,-1.00166c0,-0.39088 0.15871,-0.74519 0.41514,-1.00166c0.25651,-0.25651 0.61078,-0.41514 1.00166,-0.41514z" data-paper-data="{&quot;origPos&quot;:null}"/><path d="M300.82571,270.2456c0.39088,0 0.74519,0.15871 1.00166,0.41514c0.25651,0.25651 0.41514,0.61078 0.41514,1.00166c0,0.39088 -0.15871,0.74519 -0.41514,1.00166c-0.25651,0.25651 -0.61078,0.41514 -1.00166,0.41514c-0.39088,0 -0.74515,-0.15871 -1.00166,-0.41514c-0.25651,-0.25651 -0.41514,-0.61078 -0.41514,-1.00166c0,-0.39088 0.15871,-0.74519 0.41514,-1.00166c0.25651,-0.25651 0.61078,-0.41514 1.00166,-0.41514z" data-paper-data="{&quot;origPos&quot;:null}"/><path d="M300.79796,279.29462c0.39088,0 0.74519,0.15871 1.00166,0.41514c0.25651,0.25651 0.41514,0.61078 0.41514,1.00166c0,0.39088 -0.15871,0.74519 -0.41514,1.00166c-0.25651,0.25651 -0.61078,0.41514 -1.00166,0.41514c-0.39088,0 -0.74519,-0.15871 -1.00166,-0.41514c-0.25651,-0.25651 -0.41514,-0.61078 -0.41514,-1.00166c0,-0.39088 0.15871,-0.74519 0.41514,-1.00166c0.25651,-0.25651 0.61078,-0.41514 1.00166,-0.41514z" data-paper-data="{&quot;origPos&quot;:null}"/></g><path d="M308.3189,279.29387c0.39088,0 0.74515,0.15871 1.00166,0.41514c0.25651,0.25651 0.41514,0.61078 0.41514,1.00166c0,0.39088 -0.15871,0.74519 -0.41514,1.00166c-0.25651,0.25651 -0.61078,0.41514 -1.00166,0.41514c-0.39088,0 -0.74519,-0.15871 -1.00166,-0.41514c-0.25651,-0.25651 -0.41514,-0.61078 -0.41514,-1.00166c0,-0.39088 0.15871,-0.74519 0.41514,-1.00166c0.25651,-0.25651 0.61078,-0.41514 1.00166,-0.41514z" data-paper-data="{&quot;origPos&quot;:null}"/></g><g data-paper-data="{&quot;index&quot;:null}" fill="#dd7821" stroke="none" stroke-width="1" stroke-linecap="butt"><path d="M334.7185,234.20865c0.25651,0.25651 0.41514,0.61078 0.41514,1.00166c0,0.39088 -0.15871,0.74519 -0.41514,1.00166c-0.25651,0.25651 -0.61078,0.41514 -1.00166,0.41514c-0.39088,0 -0.74519,-0.15871 -1.00166,-0.41514c-0.25651,-0.25651 -0.41514,-0.61078 -0.41514,-1.00166c0,-0.39088 0.15871,-0.74519 0.41514,-1.00166c0.25651,-0.25651 0.61078,-0.41514 1.00166,-0.41514c0.39088,0 0.74515,0.15871 1.00166,0.41514z" data-paper-data="{&quot;origPos&quot;:null}"/><path d="M326.16356,231.24551c0.25651,0.25651 0.41514,0.61078 0.41514,1.00166c0,0.39088 -0.15871,0.74519 -0.41514,1.00166c-0.25651,0.25651 -0.61078,0.41514 -1.00166,0.41514c-0.39088,0 -0.74515,-0.15871 -1.00166,-0.41514c-0.25651,-0.25651 -0.41514,-0.61078 -0.41514,-1.00166c0,-0.39088 0.15871,-0.74519 0.41514,-1.00166c0.25651,-0.25651 0.61078,-0.41514 1.00166,-0.41514c0.39088,0 0.74515,0.15871 1.00166,0.41514z" data-paper-data="{&quot;origPos&quot;:null}"/><g data-paper-data="{&quot;origPos&quot;:null}"><path d="M326.08807,241.55085c0.25651,0.25651 0.41514,0.61078 0.41514,1.00166c0,0.39088 -0.15871,0.74519 -0.41514,1.00166c-0.25651,0.25651 -0.61078,0.41514 -1.00166,0.41514c-0.39088,0 -0.74515,-0.15871 -1.00166,-0.41514c-0.25651,-0.25651 -0.41514,-0.61078 -0.41514,-1.00166c0,-0.39088 0.15871,-0.74519 0.41514,-1.00166c0.25651,-0.25651 0.61078,-0.41514 1.00166,-0.41514c0.39088,0 0.74515,0.15871 1.00166,0.41514z" data-paper-data="{&quot;origPos&quot;:null}"/><path d="M326.10971,251.40985c0.25651,0.25651 0.41514,0.61078 0.41514,1.00166c0,0.39088 -0.15871,0.74519 -0.41514,1.00166c-0.25651,0.25651 -0.61078,0.41514 -1.00166,0.41514c-0.39088,0 -0.74519,-0.15871 -1.00166,-0.41514c-0.25651,-0.25651 -0.41514,-0.61078 -0.41514,-1.00166c0,-0.39088 0.15871,-0.74519 0.41514,-1.00166c0.25651,-0.25651 0.61078,-0.41514 1.00166,-0.41514c0.39088,0 0.74515,0.15871 1.00166,0.41514z" data-paper-data="{&quot;origPos&quot;:null}"/><path d="M326.25701,261.28215c0.25651,0.25651 0.41514,0.61078 0.41514,1.00166c0,0.39088 -0.15871,0.74519 -0.41514,1.00166c-0.25651,0.25651 -0.61078,0.41514 -1.00166,0.41514c-0.39088,0 -0.74515,-0.15871 -1.00166,-0.41514c-0.25651,-0.25651 -0.41514,-0.61078 -0.41514,-1.00166c0,-0.39088 0.15871,-0.74519 0.41514,-1.00166c0.25651,-0.25651 0.61078,-0.41514 1.00166,-0.41514c0.39088,0 0.74515,0.15871 1.00166,0.41514z" data-paper-data="{&quot;origPos&quot;:null}"/><path d="M326.24725,270.72479c0.25651,0.25651 0.41514,0.61078 0.41514,1.00166c0,0.39088 -0.15871,0.74519 -0.41514,1.00166c-0.25651,0.25651 -0.61078,0.41514 -1.00166,0.41514c-0.39088,0 -0.74515,-0.15871 -1.00166,-0.41514c-0.25651,-0.25651 -0.41514,-0.61078 -0.41514,-1.00166c0,-0.39088 0.15871,-0.74519 0.41514,-1.00166c0.25651,-0.25651 0.61078,-0.41514 1.00166,-0.41514c0.39088,0 0.74519,0.15871 1.00166,0.41514z" data-paper-data="{&quot;origPos&quot;:null}"/><path d="M326.27496,279.77377c0.25651,0.25651 0.41514,0.61078 0.41514,1.00166c0,0.39088 -0.15871,0.74519 -0.41514,1.00166c-0.25651,0.25651 -0.61078,0.41514 -1.00166,0.41514c-0.39088,0 -0.74519,-0.15871 -1.00166,-0.41514c-0.25651,-0.25651 -0.41514,-0.61078 -0.41514,-1.00166c0,-0.39088 0.15871,-0.74519 0.41514,-1.00166c0.25651,-0.25651 0.61078,-0.41514 1.00166,-0.41514c0.39088,0 0.74515,0.15871 1.00166,0.41514z" data-paper-data="{&quot;origPos&quot;:null}"/></g><g data-paper-data="{&quot;origPos&quot;:null}"><path d="M340.59525,241.48684c0.25651,0.25651 0.41514,0.61078 0.41514,1.00166c0,0.39088 -0.15871,0.74519 -0.41514,1.00166c-0.25651,0.25651 -0.61078,0.41514 -1.00166,0.41514c-0.39088,0 -0.74515,-0.15871 -1.00166,-0.41514c-0.25651,-0.25651 -0.41514,-0.61078 -0.41514,-1.00166c0,-0.39088 0.15871,-0.74519 0.41514,-1.00166c0.25651,-0.25651 0.61078,-0.41514 1.00166,-0.41514c0.39088,0 0.74519,0.15871 1.00166,0.41514z" data-paper-data="{&quot;origPos&quot;:null}"/><path d="M340.61689,251.34588c0.25651,0.25651 0.41514,0.61078 0.41514,1.00166c0,0.39088 -0.15871,0.74519 -0.41514,1.00166c-0.25651,0.25651 -0.61078,0.41514 -1.00166,0.41514c-0.39088,0 -0.74515,-0.15871 -1.00166,-0.41514c-0.25651,-0.25651 -0.41514,-0.61078 -0.41514,-1.00166c0,-0.39088 0.15871,-0.74519 0.41514,-1.00166c0.25651,-0.25651 0.61078,-0.41514 1.00166,-0.41514c0.39088,0 0.74519,0.15871 1.00166,0.41514z" data-paper-data="{&quot;origPos&quot;:null}"/><path d="M340.76419,261.21814c0.25651,0.25651 0.41514,0.61078 0.41514,1.00166c0,0.39088 -0.15871,0.74519 -0.41514,1.00166c-0.25651,0.25651 -0.61078,0.41514 -1.00166,0.41514c-0.39088,0 -0.74515,-0.15871 -1.00166,-0.41514c-0.25651,-0.25651 -0.41514,-0.61078 -0.41514,-1.00166c0,-0.39088 0.15871,-0.74519 0.41514,-1.00166c0.25651,-0.25651 0.61078,-0.41514 1.00166,-0.41514c0.39088,0 0.74515,0.15871 1.00166,0.41514z" data-paper-data="{&quot;origPos&quot;:null}"/><path d="M340.75436,270.66078c0.25651,0.25651 0.41514,0.61078 0.41514,1.00166c0,0.39088 -0.15871,0.74519 -0.41514,1.00166c-0.25651,0.25651 -0.61078,0.41514 -1.00166,0.41514c-0.39088,0 -0.74519,-0.15871 -1.00166,-0.41514c-0.25651,-0.25651 -0.41514,-0.61078 -0.41514,-1.00166c0,-0.39088 0.15871,-0.74519 0.41514,-1.00166c0.25651,-0.25651 0.61078,-0.41514 1.00166,-0.41514c0.39088,0 0.74515,0.15871 1.00166,0.41514z" data-paper-data="{&quot;origPos&quot;:null}"/><path d="M340.78219,279.70976c0.25651,0.25651 0.41514,0.61078 0.41514,1.00166c0,0.39088 -0.15871,0.74519 -0.41514,1.00166c-0.25651,0.25651 -0.61078,0.41514 -1.00166,0.41514c-0.39088,0 -0.74519,-0.15871 -1.00166,-0.41514c-0.25651,-0.25651 -0.41514,-0.61078 -0.41514,-1.00166c0,-0.39088 0.15871,-0.74519 0.41514,-1.00166c0.25651,-0.25651 0.61078,-0.41514 1.00166,-0.41514c0.39088,0 0.74519,0.15871 1.00166,0.41514z" data-paper-data="{&quot;origPos&quot;:null}"/></g><path d="M333.26117,279.70902c0.25651,0.25651 0.41514,0.61078 0.41514,1.00166c0,0.39088 -0.15871,0.74519 -0.41514,1.00166c-0.25651,0.25651 -0.61078,0.41514 -1.00166,0.41514c-0.39088,0 -0.74515,-0.15871 -1.00166,-0.41514c-0.25651,-0.25651 -0.41514,-0.61078 -0.41514,-1.00166c0,-0.39088 0.15871,-0.74519 0.41514,-1.00166c0.25651,-0.25651 0.61078,-0.41514 1.00166,-0.41514c0.39088,0 0.74519,0.15871 1.00166,0.41514z" data-paper-data="{&quot;origPos&quot;:null}"/></g><path d="M49.85455,295.16075h556.69666l4.28663,152.36764l-555.99729,-3.4969z" fill="url(#color-24)" stroke="#763e13" stroke-width="0" stroke-linecap="butt"/><path d="M319.07866,229.79993h2.67175v53.43464h-2.67175z" fill="#b03405" stroke="none" stroke-width="1.14943" stroke-linecap="round"/><path d="M310.82061,260.62413c0,-2.0121 1.63113,-3.64323 3.64323,-3.64323c2.0121,0 3.64327,1.63113 3.64327,3.64323c0,2.0121 -1.63113,3.64327 -3.64327,3.64327c-2.0121,0 -3.64323,-1.63113 -3.64323,-3.64327z" fill="#ffd400" stroke="none" stroke-width="0" stroke-linecap="butt"/><path d="M322.80283,260.62413c0,-2.0121 1.63113,-3.64323 3.64323,-3.64323c2.0121,0 3.64327,1.63113 3.64327,3.64323c0,2.0121 -1.63113,3.64327 -3.64327,3.64327c-2.0121,0 -3.64323,-1.63113 -3.64323,-3.64327z" fill="#ffd400" stroke="none" stroke-width="0" stroke-linecap="butt"/><path d="M550.70971,284.83455c12.63973,0.80877 74.55024,9.36797 65.55112,12.56431c-1.86793,0.66342 -12.87385,19.21557 -31.36497,18.73105c-20.51074,-0.53744 -48.64762,-20.14295 -49.64995,-19.82172c-17.04065,5.44036 -27.56911,16.56671 -45.32256,14.37673c-20.1531,-2.48596 -31.54559,-16.59842 -51.76988,-14.78c-19.86108,1.78577 -31.02364,16.27139 -50.96397,16.4597c-25.90183,0.24154 -23.56596,-14.06088 -49.53655,-13.47918c-24.53591,1.10777 -27.98605,14.37313 -52.40511,14.05935c-26.04702,-0.3373 -33.17673,-16.78523 -59.27788,-17.21029c-24.74123,-1.27588 -29.7661,12.75716 -54.69116,13.19371c-20.94654,0.36258 -30.22314,-5.71581 -48.40083,-12.62005c-3.02394,-1.14982 -36.2675,13.46621 -55.26408,11.60593c-17.28242,-1.69244 -20.70034,-19.83477 -18.93879,-21.47724c0.87074,-0.81186 58.69085,-4.82633 62.17545,-5.04423c73.1352,-4.57394 147.16039,0.67977 220.78866,1.14736c0,0 146.376,-2.35668 219.07043,2.29467z" fill="url(#color-25)" stroke="#006622" stroke-width="1" stroke-linecap="round"/><g><path d="M-106.81547,247.17721h63.43417v38.73457h-63.43417z" fill="url(#color-26)" stroke="#663b00" stroke-width="1" stroke-linecap="butt"/><path d="M-99.07581,233.30926c11.95839,-3.412 46.61754,-2.40537 50.36934,0c4.99292,3.21688 13.99028,17.12602 7.71422,18.65002c-7.79121,1.89188 -12.11734,-4.50632 -20.34137,-4.18427c-8.22403,0.32201 -9.11593,5.59535 -15.69499,5.59535c-6.57902,0 -8.61914,-5.40681 -14.87866,-5.59535c-6.25948,-0.1885 -8.20188,4.15637 -16.10014,4.66253c-7.89826,0.50616 3.56013,-17.58267 8.93151,-19.1282z" fill="url(#color-27)" stroke="#006622" stroke-width="1" stroke-linecap="round"/><path d="M-190.84371,296.32409h240.86183l8.15897,148.50274l-242.56772,-4.26467z" fill="url(#color-28)" stroke="#763e13" stroke-width="0" stroke-linecap="butt"/><path d="M-40.01254,282.92977c14.7163,-0.1426 103.90315,0.84937 103.90315,0.84937c4.24158,0.51329 -10.06271,23.01355 -28.3734,23.55644c-17.12841,0.50781 -28.79435,-10.05464 -39.75731,-10.00791c-10.96297,0.04672 -17.34423,10.60446 -26.81228,10.28728c-11.26632,-0.38186 -23.81303,-11.90508 -34.99624,-10.78912c-11.79796,0.37179 -18.10945,13.2534 -29.88295,13.54845c-11.0376,0.2745 -20.36351,-12.07771 -31.45395,-13.04668c-11.73892,-0.50883 -22.72098,10.49855 -34.42882,10.28728c-9.47193,-0.1731 -18.81995,-5.03953 -27.31405,-10.28728c-2.82933,-1.75425 -15.20431,-9.01884 -6.98977,-10.03594c32.85848,-4.06856 65.31773,-3.42078 98.24501,-4.01435c33.2806,-0.40895 35.27282,-0.12873 57.86053,-0.34761z" data-paper-data="{&quot;index&quot;:null}" fill="url(#color-29)" stroke="#006622" stroke-width="1" stroke-linecap="round"/></g></g></g></svg>