<svg version="1.1" xmlns="http://www.w3.org/2000/svg" xmlns:xlink="http://www.w3.org/1999/xlink" width="35.30526" height="35.30526" viewBox="0,0,35.30526,35.30526"><defs><linearGradient x1="240.08888" y1="163.06125" x2="240.08888" y2="197.11651" gradientUnits="userSpaceOnUse" id="color-1"><stop offset="0" stop-color="#0d51ff"/><stop offset="1" stop-color="#0426a2"/></linearGradient></defs><g transform="translate(-222.43625,-162.43625)"><g data-paper-data="{&quot;isPaintingLayer&quot;:true}" fill-rule="nonzero" stroke-linejoin="miter" stroke-miterlimit="10" stroke-dasharray="" stroke-dashoffset="0" style="mix-blend-mode: normal"><path d="M240.08888,163.06125c4.69771,0 8.95515,1.90752 12.0371,4.99053c3.08301,3.08195 4.99053,7.33939 4.99053,12.0371c0,4.69771 -1.90752,8.95515 -4.99053,12.0371c-3.08195,3.08301 -7.33939,4.99053 -12.0371,4.99053c-4.69771,0 -8.95515,-1.90752 -12.0371,-4.99053c-3.08301,-3.08195 -4.99053,-7.33939 -4.99053,-12.0371c0,-4.69771 1.90752,-8.95515 4.99053,-12.0371c3.08195,-3.08301 7.33939,-4.99053 12.0371,-4.99053z" data-paper-data="{&quot;origPos&quot;:null}" fill="url(#color-1)" stroke="#000174" stroke-width="1.25" stroke-linecap="butt"/><g fill="none" stroke="#000174"><path d="M236.52143,176.60618l6.68557,6.43108" data-paper-data="{&quot;origPos&quot;:null,&quot;origRot&quot;:0,&quot;index&quot;:null}" stroke-width="7" stroke-linecap="round"/><path d="M246.70113,190.77736c-2.49795,0 -4.52294,-2.02499 -4.52294,-4.52294c0,-2.49795 2.02499,-4.52294 4.52294,-4.52294c2.49795,0 4.52294,2.02499 4.52294,4.52294c0,2.49795 -2.02499,4.52294 -4.52294,4.52294zM248.823,186.08691c0,-1.20272 -0.975,-2.17772 -2.17771,-2.17772c-1.20272,0 -2.17771,0.975 -2.17771,2.17772c0,1.20272 0.97499,2.17771 2.17771,2.17771c1.20272,0 2.17771,-0.97499 2.17771,-2.17771z" data-paper-data="{&quot;origPos&quot;:null}" stroke-width="2.5" stroke-linecap="butt"/><path d="M234.04566,177.94107c-2.43992,0.53527 -4.8518,-1.00877 -5.38707,-3.4487c-0.20759,-0.94628 -0.10243,-1.88833 0.24645,-2.71833c0.29131,0.20216 3.82969,3.88212 4.54764,3.72462c1.17478,-0.25772 1.9182,-1.41899 1.66048,-2.59377c-0.07988,-0.36414 -3.10016,-3.23457 -3.60683,-3.62394c0.19339,-0.0713 0.39395,-0.13022 0.60096,-0.17563c2.43992,-0.53527 4.8518,1.00877 5.38707,3.4487c0.53527,2.43992 -1.00877,4.8518 -3.44869,5.38707z" data-paper-data="{&quot;origPos&quot;:null,&quot;origRot&quot;:0}" stroke-width="2.5" stroke-linecap="butt"/><path d="M236.56964,183.03725l6.81058,-6.55608" data-paper-data="{&quot;origPos&quot;:null,&quot;origRot&quot;:0,&quot;index&quot;:null}" stroke-width="7" stroke-linecap="round"/><path d="M228.55258,186.25442c0,-2.49795 2.02499,-4.52294 4.52294,-4.52294c2.49795,0 4.52294,2.02499 4.52294,4.52294c0,2.49795 -2.02499,4.52294 -4.52294,4.52294c-2.49795,0 -4.52294,-2.02499 -4.52294,-4.52294zM233.13136,188.26461c1.20272,0 2.17771,-0.97499 2.17771,-2.17771c0,-1.20272 -0.97499,-2.17771 -2.17771,-2.17771c-1.20272,0 -2.17771,0.97499 -2.17771,2.17771c0,1.20272 0.97499,2.17771 2.17771,2.17771z" data-paper-data="{&quot;origPos&quot;:null}" stroke-width="2.5" stroke-linecap="butt"/><path d="M242.28229,172.554c0.53527,-2.43993 2.94714,-3.98396 5.38707,-3.44869c0.20701,0.04541 0.40757,0.10433 0.60096,0.17564c-0.50667,0.38937 -3.52695,3.2598 -3.60684,3.62394c-0.25772,1.17478 0.4857,2.33605 1.66048,2.59377c0.71795,0.1575 4.25633,-3.52246 4.54764,-3.72462c0.34888,0.83 0.45404,1.77206 0.24644,2.71834c-0.53527,2.43993 -2.94714,3.98396 -5.38707,3.44869c-2.43993,-0.53527 -3.98396,-2.94714 -3.44869,-5.38707z" data-paper-data="{&quot;origPos&quot;:null,&quot;origRot&quot;:0}" stroke-width="2.5" stroke-linecap="butt"/></g><g><path d="M236.08394,176.16868l7.31057,7.05608" data-paper-data="{&quot;origPos&quot;:null,&quot;origRot&quot;:0,&quot;index&quot;:null}" fill="none" stroke="#ffffff" stroke-width="4" stroke-linecap="round"/><g data-paper-data="{&quot;origPos&quot;:null}"><path d="M236.38215,183.16225l7.31058,-6.99358" data-paper-data="{&quot;origPos&quot;:null,&quot;origRot&quot;:0,&quot;index&quot;:null}" fill="none" stroke="#ffffff" stroke-width="4" stroke-linecap="round"/><path d="M228.55259,186.25442c0,-2.49795 2.02499,-4.52294 4.52294,-4.52294c2.49795,0 4.52294,2.02499 4.52294,4.52294c0,2.49795 -2.02499,4.52294 -4.52294,4.52294c-2.49795,0 -4.52294,-2.02499 -4.52294,-4.52294zM233.13137,188.26461c1.20272,0 2.17771,-0.97499 2.17771,-2.17771c0,-1.20272 -0.97499,-2.17771 -2.17771,-2.17771c-1.20272,0 -2.17771,0.97499 -2.17771,2.17771c0,1.20272 0.97499,2.17771 2.17771,2.17771z" data-paper-data="{&quot;origPos&quot;:null}" fill="#ffffff" stroke="none" stroke-width="0" stroke-linecap="butt"/><path d="M242.2823,172.554c0.53527,-2.43993 2.94714,-3.98396 5.38707,-3.44869c0.20701,0.04541 0.40757,0.10433 0.60096,0.17564c-0.50667,0.38937 -3.52695,3.2598 -3.60684,3.62394c-0.25772,1.17478 0.4857,2.33605 1.66048,2.59377c0.71795,0.1575 4.25633,-3.52246 4.54764,-3.72462c0.34888,0.83 0.45404,1.77206 0.24644,2.71834c-0.53527,2.43993 -2.94714,3.98396 -5.38707,3.44869c-2.43993,-0.53527 -3.98396,-2.94714 -3.44869,-5.38707z" data-paper-data="{&quot;origPos&quot;:null,&quot;origRot&quot;:0}" fill="#ffffff" stroke="none" stroke-width="0" stroke-linecap="butt"/></g><g data-paper-data="{&quot;origPos&quot;:null,&quot;index&quot;:null}" fill="#ffffff" stroke="none" stroke-width="0" stroke-linecap="butt"><path d="M246.70114,190.77736c-2.49795,0 -4.52294,-2.02499 -4.52294,-4.52294c0,-2.49795 2.02499,-4.52294 4.52294,-4.52294c2.49795,0 4.52294,2.02499 4.52294,4.52294c0,2.49795 -2.02499,4.52294 -4.52294,4.52294zM248.82301,186.08691c0,-1.20272 -0.975,-2.17772 -2.17771,-2.17772c-1.20272,0 -2.17771,0.975 -2.17771,2.17772c0,1.20272 0.97499,2.17771 2.17771,2.17771c1.20272,0 2.17771,-0.97499 2.17771,-2.17771z" data-paper-data="{&quot;origPos&quot;:null}"/><path d="M234.04567,177.94107c-2.43992,0.53527 -4.8518,-1.00877 -5.38707,-3.4487c-0.20759,-0.94628 -0.10243,-1.88833 0.24645,-2.71833c0.29131,0.20216 3.82969,3.88212 4.54764,3.72462c1.17478,-0.25772 1.9182,-1.41899 1.66048,-2.59377c-0.07988,-0.36414 -3.10016,-3.23457 -3.60683,-3.62394c0.19339,-0.0713 0.39395,-0.13022 0.60096,-0.17563c2.43992,-0.53527 4.8518,1.00877 5.38707,3.4487c0.53527,2.43992 -1.00877,4.8518 -3.44869,5.38707z" data-paper-data="{&quot;origPos&quot;:null,&quot;origRot&quot;:0}"/></g></g></g></g></svg>