<svg version="1.1" xmlns="http://www.w3.org/2000/svg" xmlns:xlink="http://www.w3.org/1999/xlink" width="541.07313" height="73.47811" viewBox="0,0,541.07313,73.47811"><defs><linearGradient x1="240" y1="322.00001" x2="240" y2="367.00001" gradientUnits="userSpaceOnUse" id="color-1"><stop offset="0" stop-color="#8d5418"/><stop offset="1" stop-color="#c06520"/></linearGradient><linearGradient x1="313.64787" y1="294.33531" x2="314.08125" y2="354.15055" gradientUnits="userSpaceOnUse" id="color-2"><stop offset="0" stop-color="#7fea5b"/><stop offset="1" stop-color="#61b245"/></linearGradient></defs><g transform="translate(16.86879,-294.5219)"><g data-paper-data="{&quot;isPaintingLayer&quot;:true}" fill-rule="nonzero" stroke-width="2" stroke-linejoin="miter" stroke-miterlimit="10" stroke-dasharray="" stroke-dashoffset="0" style="mix-blend-mode: normal"><path d="M0,322.00001h480v45h-480z" data-paper-data="{&quot;origPos&quot;:null}" fill="url(#color-1)" stroke="#763e13" stroke-linecap="butt"/><path d="M316.38281,295.58704c67.39528,0.72664 133.81455,-1.08044 201.12071,6.75877c16.82634,1.9598 -8.39171,17.01029 -14.15594,20.64242c-17.30564,10.86568 -36.36449,20.96353 -55.74644,21.45828c-23.95732,0.60595 -46.59567,-21.75815 -70.61215,-20.54277c-22.6825,2.14746 -41.58507,27.56487 -64.17792,27.1668c-24.09913,-0.42927 -37.20689,-26.69823 -61.35723,-27.28425c-22.90335,-2.11809 -48.40959,21.65057 -71.4608,22.59912c-19.37187,0.78942 -32.58786,-20.72267 -55.02458,-20.65571c-22.43672,0.06696 -46.15474,21.85636 -81.21604,21.07107c-37.48139,-0.83949 -65.91014,-43.28252 -58.41632,-47.7882c7.67289,-4.61335 182.5087,-3.35258 212.62821,-3.27894c46.22972,0.11304 50.30276,-0.49007 118.41849,-0.14659z" data-paper-data="{&quot;index&quot;:null}" fill="url(#color-2)" stroke="#006622" stroke-linecap="round"/></g></g></svg>