<svg version="1.1" xmlns="http://www.w3.org/2000/svg" xmlns:xlink="http://www.w3.org/1999/xlink" width="96.95556" height="98.64123" viewBox="0,0,96.95556,98.64123"><defs><linearGradient x1="246.70196" y1="138.11995" x2="246.70196" y2="174.00954" gradientUnits="userSpaceOnUse" id="color-1"><stop offset="0" stop-color="#e73a0f"/><stop offset="1" stop-color="#921d13"/></linearGradient><linearGradient x1="233.24337" y1="170.48467" x2="225.71296" y2="170.48467" gradientUnits="userSpaceOnUse" id="color-2"><stop offset="0" stop-color="#921d13"/><stop offset="1" stop-color="#a82317"/></linearGradient><radialGradient cx="213.00942" cy="146.13999" r="4.44012" gradientUnits="userSpaceOnUse" id="color-3"><stop offset="0" stop-color="#ffffff"/><stop offset="1" stop-color="#a08e90"/></radialGradient><radialGradient cx="219.2886" cy="144.12764" r="6.93432" gradientUnits="userSpaceOnUse" id="color-4"><stop offset="0" stop-color="#ffffff"/><stop offset="1" stop-color="#a08e90"/></radialGradient></defs><g transform="translate(-204.28882,-120.48769)"><g data-paper-data="{&quot;isPaintingLayer&quot;:true}" fill-rule="nonzero" stroke-linejoin="miter" stroke-miterlimit="10" stroke-dasharray="" stroke-dashoffset="0" style="mix-blend-mode: normal"><g stroke="none" stroke-linecap="round"><path d="M291.18929,196.36619c2.01297,0.31337 3.66311,2.23497 4.48362,4.08296c0.74449,1.56553 0.51089,3.62646 -0.23255,5.18818c-1.10082,2.31534 -3.1191,4.1146 -4.91867,5.95102c-2.54373,2.59657 -4.65797,6.12726 -8.07315,7.35546c-1.84393,0.68831 -4.67027,-0.6329 -5.31851,-2.47565c-1.05288,-2.99285 -0.11027,-6.57486 1.06491,-9.56678c1.27613,-3.15757 3.39911,-6.10676 6.05293,-8.29016c1.8759,-1.54274 4.54105,-2.61846 6.94142,-2.24503z" data-paper-data="{&quot;index&quot;:null}" fill="#d8b199" stroke-width="0.47213"/><path d="M299.36081,182.29251c0.2521,3.49155 -8.11176,4.64374 -9.13499,8.32661c-1.07928,3.90324 6.04281,6.59249 4.27965,10.49051c-1.80541,3.97788 -8.05484,7.79986 -12.65375,7.13293c-6.21105,-0.90585 -10.25409,-6.24774 -12.67092,-11.1867c-1.84485,-3.77604 -1.61574,-9.14664 1.21829,-13.08106c4.28661,-5.94778 10.58664,-13.43964 17.95813,-13.83039c6.48119,-0.41415 10.61237,6.71106 11.00357,12.14812z" data-paper-data="{&quot;index&quot;:null}" fill="#814719" stroke-width="0.43026"/></g><g stroke="none" stroke-linecap="round"><path d="M245.06577,144.24927c2.75559,8.04972 0.91534,17.15844 0.62412,25.70937c-0.26063,7.67374 0.40256,15.84001 -1.98929,23.11157c-1.38897,3.8065 -4.83791,8.22282 -8.6448,8.04657c-4.29413,-0.19876 -8.64803,-4.50687 -10.27477,-8.90177c-2.33597,-6.91574 -0.54824,-14.77818 -0.61008,-22.16958c-0.07335,-8.75077 -2.13166,-18.05458 0.5884,-26.27333c1.33881,-3.67442 6.45455,-4.95294 10.04571,-4.88479c3.79808,0.07194 8.87786,1.59715 10.26072,5.36197z" data-paper-data="{&quot;index&quot;:null}" fill="#814719" stroke-width="0.40022"/><path d="M240.04334,195.17057c2.11785,2.65072 0.35749,7.5973 2.98134,9.75348c1.75853,1.44326 4.55573,-2.88297 6.69931,-1.9528c1.65421,0.7505 2.50262,4.20442 1.11209,5.41041c-3.49121,3.0282 -8.40493,4.78113 -13.0141,4.82001c-3.66684,0.0316 -8.02301,-1.77634 -9.90809,-4.80657c-2.25071,-3.62771 -2.67834,-8.74136 -1.27505,-12.76051c0.8191,-2.26706 4.34778,-2.56253 6.71746,-2.63254c2.33937,-0.06934 5.19644,0.36923 6.68704,2.16851z" data-paper-data="{&quot;index&quot;:null}" fill="#d8b199" stroke-width="0.47213"/></g><path d="M251.73589,141.07889c7.02709,2.10604 15.63298,6.51641 24.14783,12.73143c8.51485,6.21519 15.33861,13.06702 19.48663,19.11756c4.14766,6.0491 6.8288,11.58735 3.4243,14.3025c-5.71405,4.54857 -16.23831,5.16559 -25.03118,2.42364c-13.09707,-4.08504 -25.28381,-13.40513 -36.77814,-21.90108c-5.39682,-3.98643 -13.4879,-9.21374 -13.57481,-14.85168c0.12578,-6.1191 8.24368,-8.43045 13.65975,-10.72364c4.17735,-1.77242 7.64015,-3.20495 14.66562,-1.09873z" data-paper-data="{&quot;index&quot;:null}" fill="#96521e" stroke="none" stroke-width="0.5448" stroke-linecap="round"/><g data-paper-data="{&quot;index&quot;:null}" stroke="none" stroke-width="1"><path d="M246.38152,144.36856l-0.96132,7.37018l-2.56354,9.13262l-5.9282,8.17129l-4.16576,4.96686l-2.72376,-0.64088l6.24863,-9.61328l4.32599,-7.37018l1.76243,-5.60775l0.80111,-6.56907v-6.08841l3.52487,0.32044z" fill="url(#color-1)" stroke-linecap="round"/><g><path d="M235.48646,202.68917l-7.85085,9.61328l-4.64641,-11.21549l5.12708,-23.07189l3.68509,0.32045z" fill="#ed0000" stroke-linecap="round"/><path d="M231.9616,178.49574l-4.16577,0.16022l-2.08287,-6.56908l2.2431,-1.44199l3.52486,-0.16022l1.76244,2.2431z" fill="url(#color-2)" stroke-linecap="round"/><text transform="translate(233.48177,204.01942) rotate(-180) scale(0.28142,-0.38042) skewX(0)" font-size="22" xml:space="preserve" fill="#ffff00" fill-rule="nonzero" stroke="none" stroke-width="1" stroke-linecap="butt" stroke-linejoin="miter" stroke-miterlimit="10" stroke-dasharray="" stroke-dashoffset="0" font-family="Sans Serif" font-weight="400" text-anchor="start" style="mix-blend-mode: normal"><tspan x="0" dy="0">DK</tspan></text><text transform="translate(233.06296,203.58468) rotate(-180) scale(0.25043,-0.33853) skewX(0)" font-size="22" xml:space="preserve" fill="#ff0000" fill-rule="nonzero" stroke="none" stroke-width="1" stroke-linecap="butt" stroke-linejoin="miter" stroke-miterlimit="10" stroke-dasharray="" stroke-dashoffset="0" font-family="Sans Serif" font-weight="400" text-anchor="start" style="mix-blend-mode: normal"><tspan x="0" dy="0">DK</tspan></text><text transform="translate(232.63997,203.35883) rotate(-180) scale(0.22165,-0.29962)" font-size="22" xml:space="preserve" fill="#ffff00" fill-rule="nonzero" stroke="none" stroke-width="1" stroke-linecap="butt" stroke-linejoin="miter" stroke-miterlimit="10" stroke-dasharray="" stroke-dashoffset="0" font-family="Sans Serif" font-weight="400" text-anchor="start" style="mix-blend-mode: normal"><tspan x="0" dy="0">DK</tspan></text></g></g><g data-paper-data="{&quot;index&quot;:null}"><path d="M241.07819,133.15309c2.30078,3.76136 2.60425,8.68945 2.2431,13.05804c-0.32269,3.90331 -1.66053,8.13092 -4.34359,10.92999c-2.68275,2.79874 -6.68444,4.78293 -10.47688,4.53137c-4.72108,-0.31243 -9.54214,-2.70839 -13.05804,-5.9282c-1.9531,-1.87139 -1.57337,-4.56983 -1.92266,-6.88951c-0.24418,-1.83357 0.31723,-3.63863 0.16022,-5.44753c-0.1128,-1.32599 -1.41187,-2.64333 -1.12155,-4.00554c0.88986,-3.30121 3.10958,-6.12943 4.4862,-9.29284c0.47521,-1.08533 1.04241,-2.19823 0.96133,-3.36464c-0.02276,-0.81617 -0.54059,-2.13639 -1.28177,-2.08288c-0.97831,0.06281 -1.97649,2.80707 -2.2431,2.40332c-0.3025,-0.48772 -0.23457,-3.44669 0.80111,-4.64642c1.35644,-1.31478 3.51269,-1.80793 5.44753,-1.92265c1.58107,-0.09261 2.90353,1.63586 4.4862,1.60221c1.08886,-0.02467 1.68264,-1.74032 2.72376,-1.60221c0.79118,0.11023 0.70402,1.35579 1.12156,1.92265c0.49156,0.82354 0.75657,1.49903 1.60221,2.24311c3.35984,2.9548 8.01811,4.58425 10.41438,8.49173z" fill="#814719" stroke="none" stroke-width="1" stroke-linecap="round"/><path d="M215.73693,145.2312c0.36275,0.38421 0.58705,0.91486 0.58705,1.50063c0,0.58578 -0.2243,1.11643 -0.58705,1.50064c-0.36242,0.38453 -0.86327,0.6223 -1.41571,0.6223c-0.55244,0 -1.0533,-0.23776 -1.41572,-0.6223c-0.36275,-0.38421 -0.58705,-0.91486 -0.58705,-1.50064c0,-0.58578 0.2243,-1.11642 0.58705,-1.50063c0.36242,-0.38453 0.86328,-0.6223 1.41572,-0.6223c0.55244,0 1.05329,0.23776 1.41571,0.6223z" fill="url(#color-3)" stroke="none" stroke-width="1" stroke-linecap="butt"/><path d="M223.59483,142.87339c0.754,0.6598 1.22088,1.57112 1.22088,2.57667c0,1.00555 -0.46688,1.91688 -1.22088,2.57667c-0.754,0.6598 -1.79543,1.06836 -2.94487,1.06836c-1.14943,0 -2.19087,-0.40857 -2.94487,-1.06836c-0.754,-0.6598 -1.22089,-1.57112 -1.22089,-2.57667c0,-1.00555 0.46689,-1.91688 1.22089,-2.57667c0.754,-0.6598 1.79544,-1.06836 2.94487,-1.06836c1.14943,0 2.19087,0.40856 2.94487,1.06836z" fill="url(#color-4)" stroke="none" stroke-width="1" stroke-linecap="butt"/><path d="M230.34336,132.67242c1.01772,1.86049 1.37886,4.25163 0.72099,6.24863c-1.08053,3.58319 -3.44348,6.69885 -5.68786,9.69339c-0.5611,0.74856 -1.42533,0.70786 -1.60222,0.24033c-0.32364,-0.8636 0.26437,-2.07935 0.64089,-3.04421c0.73413,-1.88068 2.06589,-3.47424 2.72376,-5.36741c0.25955,-0.74599 0.38325,-2.26521 -0.08011,-2.32321c-0.57327,-0.07145 -1.07862,1.69194 -1.92266,2.16299c-2.48023,1.37855 -5.06331,2.54527 -7.77074,3.28454c-1.72526,0.50405 -3.55243,0.69248 -5.36741,0.40056c-0.59955,-0.0987 -0.93473,-0.86937 -0.96133,-1.52211c-0.05672,-1.28305 -0.11248,-2.90578 0.88122,-3.76521c0.86807,-0.74951 2.39051,0.56206 3.44476,0.08011c2.58822,-1.21416 4.61822,-3.44187 7.04973,-4.96686c1.46507,-0.91935 2.88527,-2.07165 4.64642,-2.32321c1.15295,-0.16439 2.72569,0.18008 3.28454,1.20166z" fill="#edc2a8" stroke="none" stroke-width="1" stroke-linecap="round"/><path d="M243.48151,138.60061c1.06419,1.41123 1.51603,3.41048 1.20166,5.12709c-0.29192,1.83486 -1.47468,3.53126 -2.88398,4.72652c-1.38656,1.17603 -3.27076,2.09346 -5.04697,2.08289c-1.24331,-0.00706 -2.70742,-0.92448 -3.04421,-2.16299c-0.36626,-1.35259 0.99947,-2.62474 1.52211,-3.92542c0.60019,-1.49263 0.80687,-3.14771 1.76243,-4.40608c0.77835,-1.02606 1.92523,-1.99892 3.20443,-2.32321c1.10265,-0.20508 2.60263,-0.02308 3.28453,0.88121z" fill="#edc2a8" stroke="none" stroke-width="1" stroke-linecap="round"/><path d="M238.03399,145.16968c0,0 0.19804,-0.54123 0.32044,-0.80111c0.09165,-0.19451 0.21373,-0.37395 0.32044,-0.56077c0.1067,-0.18681 0.18939,-0.39031 0.32045,-0.56078c0.13812,-0.17944 0.28583,-0.36562 0.48066,-0.48066c0.4012,-0.23712 0.83988,-0.41338 1.28177,-0.56078c0.20412,-0.06794 0.42683,-0.0596 0.64089,-0.08011c0.34639,-0.033 1.04143,-0.08011 1.04143,-0.08011" fill="none" stroke="#8f4d28" stroke-width="2" stroke-linecap="round"/><g fill="#000000" stroke="none" stroke-width="1.0037" stroke-linecap="butt"><path d="M214.54454,145.46578c0.2031,0.23956 0.32871,0.56994 0.32871,0.93457c0,0.36463 -0.12561,0.69501 -0.32871,0.93457c-0.2031,0.23922 -0.48342,0.38725 -0.79284,0.38725c-0.30939,0 -0.58972,-0.14804 -0.79284,-0.38725c-0.2031,-0.23956 -0.32871,-0.56994 -0.32871,-0.93457c0,-0.36463 0.12561,-0.69501 0.32871,-0.93457c0.20313,-0.23922 0.48346,-0.38726 0.79284,-0.38726c0.30942,0 0.58974,0.14804 0.79284,0.38726z"/></g><g fill="#000000" stroke="none" stroke-width="1" stroke-linecap="butt"><path d="M219.75625,144.70152c0.30474,0.30442 0.49316,0.72517 0.49316,1.18917c0,0.464 -0.18842,0.88475 -0.49316,1.18917c-0.30442,0.30474 -0.72517,0.49317 -1.18917,0.49317c-0.464,0 -0.88475,-0.18842 -1.18916,-0.49317c-0.30474,-0.30442 -0.49316,-0.72517 -0.49316,-1.18917c0,-0.464 0.18842,-0.88475 0.49316,-1.18917c0.30442,-0.30474 0.72516,-0.49316 1.18916,-0.49316c0.464,0 0.88475,0.18841 1.18917,0.49316z"/></g><path d="M231.00274,153.37178c1.99828,-1.44423 3.29127,-5.22835 5.76797,-4.64642c3.07432,0.72837 6.24736,4.56695 5.60775,7.69063c-1.23819,6.04196 -6.01086,11.0229 -10.57461,15.22102c-2.25912,1.94861 -5.77855,2.28188 -8.81218,2.2431c-3.25282,-0.04069 -6.96035,-0.34032 -9.61329,-2.2431c-3.48193,-2.69845 -8.78621,-7.38748 -7.69062,-10.73482c1.05041,-3.17078 8.19949,-1.72494 12.17683,-2.56354c2.28283,-0.48291 4.75888,-0.40088 6.88951,-1.28177c2.32033,-0.80175 4.31221,-2.28764 6.24864,-3.68509z" fill="#edc2a8" stroke="none" stroke-width="1" stroke-linecap="round"/><g fill="#edc2a8" stroke="none" stroke-width="1" stroke-linecap="round"><path d="M237.63344,149.41556c0.83058,0.27878 0.1458,1.17666 -0.96133,1.84255c-4.16159,2.59719 -8.38343,5.42734 -13.13816,6.88952c-4.19684,1.29074 -8.74712,0.36915 -13.13815,1.12155c-1.83646,0.31596 -3.23777,1.95439 -5.12709,2.2431c-0.47682,0.07307 -1.09527,-0.47137 -0.96132,-1.04144c0.40055,-1.52819 1.68136,-2.65391 2.56354,-4.00554c1.30849,-1.8182 2.1311,-4.27927 3.47484,-6.10417c0.65505,-0.88961 1.43395,-1.62804 2.45335,-2.06712c4.41089,-1.8999 9.6277,-0.58769 14.41992,-0.32044c3.50661,0.10735 7.09526,0.3291 10.4144,1.44199z"/></g></g><path d="M211.63081,152.20798c0.17059,0.30626 0.08799,2.26871 -0.04103,2.53142c-0.11444,0.23338 -0.55404,-0.96107 -0.54684,-1.55866c0.00522,-0.44752 0.48782,-1.43719 0.57815,-1.18077z" data-paper-data="{&quot;index&quot;:null}" fill="none" stroke="#b1695f" stroke-width="0.81869" stroke-linecap="round"/><path d="M216.13543,152.75403c0.17059,0.30626 0.08799,2.26871 -0.04103,2.53143c-0.11444,0.23338 -0.55404,-0.96107 -0.54684,-1.55866c0.00522,-0.44752 0.48782,-1.4372 0.57815,-1.18078z" data-paper-data="{&quot;index&quot;:null}" fill="none" stroke="#b1695f" stroke-width="0.8187" stroke-linecap="round"/><g stroke="none" stroke-linecap="round"><path d="M280.06325,202.4661c0.98978,1.78061 0.48787,4.26327 -0.46582,6.04619c-0.77757,1.54938 -2.547,2.63157 -4.23588,3.00476c-2.50306,0.55437 -5.16276,0.0678 -7.71739,-0.22337c-3.6116,-0.41113 -7.69622,0.0906 -10.76383,-1.84891c-1.67614,-1.03173 -2.37064,-4.07334 -1.31525,-5.71713c1.71407,-2.66978 5.11918,-4.12733 8.20169,-5.03882c3.27523,-0.93364 6.90645,-1.07113 10.25976,-0.31923c2.36985,0.53187 4.85625,1.97338 6.03673,4.09651z" data-paper-data="{&quot;index&quot;:null}" fill="#edc2a8" stroke-width="0.47213"/><path d="M296.33768,196.44467c-2.59957,2.34448 -8.64829,-3.54576 -12.18249,-2.08981c-3.74251,1.54715 -1.48746,8.81839 -5.64611,9.82281c-4.24762,1.02016 -11.10314,-1.56137 -13.40311,-5.5993c-3.10216,-5.45658 -1.37242,-11.92884 1.03879,-16.87054c1.84523,-3.77584 6.22294,-6.89543 11.06838,-7.07741c7.32642,-0.27327 17.10825,0.09299 21.94642,5.66829c4.30951,4.85854 1.22708,12.4962 -2.82185,16.14599z" data-paper-data="{&quot;index&quot;:null}" fill="#c06832" stroke-width="0.43026"/></g><g stroke="none" stroke-linecap="round"><path d="M267.86562,159.51308c-1.30068,8.40831 -7.16297,15.61865 -11.3944,23.05491c-3.79676,6.67376 -7.00433,14.21293 -12.50133,19.54018c-2.99875,2.72509 -8.10493,5.03289 -11.39393,3.10776c-3.70996,-2.17145 -5.56324,-8.00941 -4.96139,-12.65691c1.14529,-7.2092 6.38192,-13.34039 9.76192,-19.91401c4.0015,-7.78264 6.50239,-16.97736 12.73013,-22.99083c2.89297,-2.63144 8.01692,-1.38626 11.16513,0.34288c3.32965,1.82864 7.1189,5.53973 6.59387,9.516z" data-paper-data="{&quot;index&quot;:null}" fill="#c06832" stroke-width="0.40022"/><path d="M240.17572,200.67262c0.70941,3.08106 -3.05259,6.28078 -1.67324,9.18921c0.92524,1.94775 5.33513,-0.28941 6.83083,1.41688c1.13974,1.34312 0.36257,4.50476 -1.41048,4.85563c-4.45177,0.88135 -9.60419,0.10039 -13.72494,-1.9258c-3.27861,-1.61127 -6.35476,-5.0123 -6.68856,-8.29514c-0.39421,-3.92751 1.49391,-8.23833 4.52652,-10.85028c1.7351,-1.46097 5.00775,-0.12386 7.14857,0.87737c2.11348,0.98847 4.46252,2.61711 4.99129,4.73213z" data-paper-data="{&quot;index&quot;:null}" fill="#edc2a8" stroke-width="0.45259"/></g></g></g></svg>