<svg version="1.1" xmlns="http://www.w3.org/2000/svg" xmlns:xlink="http://www.w3.org/1999/xlink" width="613.67767" height="173.80001" viewBox="0,0,613.67767,173.80001"><defs><linearGradient x1="64.81409" y1="196.55331" x2="64.81409" y2="211.21998" gradientUnits="userSpaceOnUse" id="color-1"><stop offset="0" stop-color="#ffa836"/><stop offset="1" stop-color="#ff6105"/></linearGradient><linearGradient x1="79.48076" y1="196.55332" x2="79.48076" y2="207.55331" gradientUnits="userSpaceOnUse" id="color-2"><stop offset="0" stop-color="#ffa836"/><stop offset="1" stop-color="#ff6105"/></linearGradient><linearGradient x1="94.14742" y1="196.55331" x2="94.14742" y2="211.21998" gradientUnits="userSpaceOnUse" id="color-3"><stop offset="0" stop-color="#ffa836"/><stop offset="1" stop-color="#ff6105"/></linearGradient><linearGradient x1="108.81409" y1="196.55331" x2="108.81409" y2="207.55331" gradientUnits="userSpaceOnUse" id="color-4"><stop offset="0" stop-color="#ffa836"/><stop offset="1" stop-color="#ff6105"/></linearGradient><linearGradient x1="286.48076" y1="196.55331" x2="286.48076" y2="211.21998" gradientUnits="userSpaceOnUse" id="color-5"><stop offset="0" stop-color="#ffa836"/><stop offset="1" stop-color="#ff6105"/></linearGradient><linearGradient x1="301.14743" y1="196.55332" x2="301.14743" y2="207.55331" gradientUnits="userSpaceOnUse" id="color-6"><stop offset="0" stop-color="#ffa836"/><stop offset="1" stop-color="#ff6105"/></linearGradient><linearGradient x1="315.81409" y1="196.55331" x2="315.81409" y2="211.21998" gradientUnits="userSpaceOnUse" id="color-7"><stop offset="0" stop-color="#ffa836"/><stop offset="1" stop-color="#ff6105"/></linearGradient><linearGradient x1="330.48076" y1="196.55331" x2="330.48076" y2="207.55331" gradientUnits="userSpaceOnUse" id="color-8"><stop offset="0" stop-color="#ffa836"/><stop offset="1" stop-color="#ff6105"/></linearGradient><linearGradient x1="-9.51649" y1="217.39662" x2="-9.51649" y2="363.40662" gradientUnits="userSpaceOnUse" id="color-9"><stop offset="0" stop-color="#7f8899"/><stop offset="1" stop-color="#646b82"/></linearGradient><linearGradient x1="-66.96922" y1="214.60332" x2="-66.96922" y2="361.10332" gradientUnits="userSpaceOnUse" id="color-10"><stop offset="0" stop-color="#757b8f"/><stop offset="1" stop-color="#545569"/></linearGradient><linearGradient x1="-29.46922" y1="214.60332" x2="-29.46922" y2="361.10332" gradientUnits="userSpaceOnUse" id="color-11"><stop offset="0" stop-color="#757b8f"/><stop offset="1" stop-color="#545569"/></linearGradient><linearGradient x1="8.03079" y1="214.60331" x2="8.03079" y2="361.10331" gradientUnits="userSpaceOnUse" id="color-12"><stop offset="0" stop-color="#757b8f"/><stop offset="1" stop-color="#545569"/></linearGradient><linearGradient x1="45.53078" y1="214.60331" x2="45.53078" y2="361.10331" gradientUnits="userSpaceOnUse" id="color-13"><stop offset="0" stop-color="#757b8f"/><stop offset="1" stop-color="#545569"/></linearGradient><linearGradient x1="-8.91158" y1="197.16834" x2="-8.91158" y2="240.20474" gradientUnits="userSpaceOnUse" id="color-14"><stop offset="0" stop-color="#60c975"/><stop offset="1" stop-color="#4da05d"/></linearGradient><linearGradient x1="-9.16158" y1="198.66834" x2="-9.16158" y2="222.23486" gradientUnits="userSpaceOnUse" id="color-15"><stop offset="0" stop-color="#6de385"/><stop offset="1" stop-color="#62cc77"/></linearGradient><linearGradient x1="195.48351" y1="218.39662" x2="195.48351" y2="364.40662" gradientUnits="userSpaceOnUse" id="color-16"><stop offset="0" stop-color="#7f8899"/><stop offset="1" stop-color="#646b82"/></linearGradient><linearGradient x1="138.03078" y1="215.60332" x2="138.03078" y2="362.10332" gradientUnits="userSpaceOnUse" id="color-17"><stop offset="0" stop-color="#757b8f"/><stop offset="1" stop-color="#545569"/></linearGradient><linearGradient x1="175.53078" y1="215.60332" x2="175.53078" y2="362.10332" gradientUnits="userSpaceOnUse" id="color-18"><stop offset="0" stop-color="#757b8f"/><stop offset="1" stop-color="#545569"/></linearGradient><linearGradient x1="213.03079" y1="215.60331" x2="213.03079" y2="362.10331" gradientUnits="userSpaceOnUse" id="color-19"><stop offset="0" stop-color="#757b8f"/><stop offset="1" stop-color="#545569"/></linearGradient><linearGradient x1="250.53078" y1="215.60331" x2="250.53078" y2="362.10331" gradientUnits="userSpaceOnUse" id="color-20"><stop offset="0" stop-color="#757b8f"/><stop offset="1" stop-color="#545569"/></linearGradient><linearGradient x1="196.08842" y1="198.16834" x2="196.08842" y2="241.20474" gradientUnits="userSpaceOnUse" id="color-21"><stop offset="0" stop-color="#60c975"/><stop offset="1" stop-color="#4da05d"/></linearGradient><linearGradient x1="195.83842" y1="199.66834" x2="195.83842" y2="223.23486" gradientUnits="userSpaceOnUse" id="color-22"><stop offset="0" stop-color="#6de385"/><stop offset="1" stop-color="#62cc77"/></linearGradient><linearGradient x1="415.48351" y1="217.39662" x2="415.48351" y2="363.40662" gradientUnits="userSpaceOnUse" id="color-23"><stop offset="0" stop-color="#7f8899"/><stop offset="1" stop-color="#646b82"/></linearGradient><linearGradient x1="358.03078" y1="214.60332" x2="358.03078" y2="361.10332" gradientUnits="userSpaceOnUse" id="color-24"><stop offset="0" stop-color="#757b8f"/><stop offset="1" stop-color="#545569"/></linearGradient><linearGradient x1="395.53078" y1="214.60332" x2="395.53078" y2="361.10332" gradientUnits="userSpaceOnUse" id="color-25"><stop offset="0" stop-color="#757b8f"/><stop offset="1" stop-color="#545569"/></linearGradient><linearGradient x1="433.03079" y1="214.60331" x2="433.03079" y2="361.10331" gradientUnits="userSpaceOnUse" id="color-26"><stop offset="0" stop-color="#757b8f"/><stop offset="1" stop-color="#545569"/></linearGradient><linearGradient x1="470.53078" y1="214.60331" x2="470.53078" y2="361.10331" gradientUnits="userSpaceOnUse" id="color-27"><stop offset="0" stop-color="#757b8f"/><stop offset="1" stop-color="#545569"/></linearGradient><linearGradient x1="416.08842" y1="197.16834" x2="416.08842" y2="240.20474" gradientUnits="userSpaceOnUse" id="color-28"><stop offset="0" stop-color="#60c975"/><stop offset="1" stop-color="#4da05d"/></linearGradient><linearGradient x1="415.83842" y1="198.66834" x2="415.83842" y2="222.23486" gradientUnits="userSpaceOnUse" id="color-29"><stop offset="0" stop-color="#6de385"/><stop offset="1" stop-color="#62cc77"/></linearGradient></defs><g transform="translate(103.24779,-195.80331)"><g data-paper-data="{&quot;isPaintingLayer&quot;:true}" fill-rule="nonzero" stroke-linejoin="miter" stroke-miterlimit="10" stroke-dasharray="" stroke-dashoffset="0" style="mix-blend-mode: normal"><g stroke="#af4600" stroke-width="1.5" stroke-linecap="butt"><g><path d="M57.48076,211.21998v-14.66667h14.66667v14.66667z" fill="url(#color-1)"/><path d="M72.14743,207.55331v-11h14.66666v11z" fill="url(#color-2)"/></g><g><path d="M86.81409,211.21998v-14.66666h14.66667v14.66666z" fill="url(#color-3)"/><path d="M101.48076,207.55331v-11h14.66667v11z" fill="url(#color-4)"/></g></g><g stroke="#af4600" stroke-width="1.5" stroke-linecap="butt"><g><path d="M279.14743,211.21998v-14.66667h14.66667v14.66667z" fill="url(#color-5)"/><path d="M293.8141,207.55331v-11h14.66666v11z" fill="url(#color-6)"/></g><g><path d="M308.48076,211.21998v-14.66667h14.66667v14.66667z" fill="url(#color-7)"/><path d="M323.14743,207.55331v-11h14.66666v11z" fill="url(#color-8)"/></g></g><g><path d="M-90.29179,217.39662h161.5506c0,0 -1.5,15.09501 -1.5,30.70669c0,10.61403 1.5,20.66024 1.5,29.5c0,7.81493 -2,18.65298 -2,30c0,8.74818 2,17.7989 2,26c0,16.65328 -2.5,29.30331 -2.5,29.30331l-159.0506,0.5c0,0 2,-12.32628 2,-26.80331c0,-8.90803 -2,-17.3876 -2,-28c0,-10.12936 2.5,-16.87972 2.5,-26c0,-9.00196 -2.5,-20.40296 -2.5,-26c0,-16.27629 0,-39.20669 0,-39.20669z" data-paper-data="{&quot;origPos&quot;:null}" fill="url(#color-9)" stroke="#4f5162" stroke-width="2" stroke-linecap="butt"/><path d="M-72.46922,214.60332c0,0 11,2.20998 11,9.5c0,7.64715 -11,20.63333 -11,31.5c0,10.06624 10.5,16.40879 10.5,26.5c0,11.5994 -10.5,19.7061 -10.5,27c0,7.56039 10.5,18.25498 10.5,26.5c0,12.00687 -10.5,25.5 -10.5,25.5" fill="none" stroke="url(#color-10)" stroke-width="15" stroke-linecap="round"/><path d="M-34.96922,214.60332c0,0 11,2.20998 11,9.5c0,7.64715 -11,20.63333 -11,31.5c0,10.06624 10.5,16.40879 10.5,26.5c0,11.5994 -10.5,19.7061 -10.5,27c0,7.56039 10.5,18.25498 10.5,26.5c0,12.00687 -10.5,25.5 -10.5,25.5" fill="none" stroke="url(#color-11)" stroke-width="15" stroke-linecap="round"/><path d="M2.53079,214.60331c0,0 11,2.20998 11,9.5c0,7.64715 -11,20.63333 -11,31.5c0,10.06624 10.5,16.40879 10.5,26.5c0,11.5994 -10.5,19.7061 -10.5,27c0,7.56039 10.5,18.25498 10.5,26.5c0,12.00687 -10.5,25.5 -10.5,25.5" fill="none" stroke="url(#color-12)" stroke-width="15" stroke-linecap="round"/><path d="M40.03078,214.60331c0,0 11,2.20998 11,9.5c0,7.64715 -11,20.63333 -11,31.5c0,10.06624 10.5,16.40879 10.5,26.5c0,11.5994 -10.5,19.7061 -10.5,27c0,7.56039 10.5,18.25498 10.5,26.5c0,12.00687 -10.5,25.5 -10.5,25.5" fill="none" stroke="url(#color-13)" stroke-width="15" stroke-linecap="round"/><g stroke-linecap="butt"><path d="M-102.24779,218.27254c0.21723,-8.28143 7.10674,-21.31875 15.38817,-21.10152c4.0055,0.10507 149.97127,0.26629 156.68272,0.44233c8.28143,0.21723 14.81874,14.60674 14.60152,22.88817c-0.21723,8.28143 -7.10674,14.81875 -15.38817,14.60152c-4.35644,-0.11427 -8.23023,-2.07496 -10.892,-5.11337c-2.07247,6.02961 -7.86975,10.28985 -14.58121,10.11381c-5.54406,-0.14542 -10.30647,-3.2812 -12.78391,-7.82302c-2.81696,2.8903 -6.78518,4.64212 -11.13792,4.52794c-6.26799,-0.16441 -11.53686,-4.15111 -13.63417,-9.67059c-2.83571,3.17471 -6.99698,5.12805 -11.58557,5.00769c-4.41394,-0.11578 -8.33241,-2.12704 -10.99677,-5.23425c-2.39123,5.38459 -7.85264,9.07464 -14.10826,8.91055c-3.83877,-0.1007 -7.30279,-1.63506 -9.89301,-4.07717c-2.4912,5.13587 -7.81909,8.61428 -13.89663,8.45486c-5.05468,-0.13259 -9.45961,-2.7509 -12.07547,-6.65423c-3.90683,-0.16531 -7.41105,-1.8165 -9.97986,-4.39204c-2.81573,2.87811 -6.77549,4.62141 -11.11795,4.50751c-8.28143,-0.21723 -14.81875,-7.10674 -14.60152,-15.38817z" fill="url(#color-14)" stroke="#298347" stroke-width="2"/><path d="M-93.24831,210.22489c0.19571,-4.53486 6.40248,-11.67404 13.86323,-11.55509c3.60856,0.05754 135.10933,0.14582 141.15569,0.24222c7.46075,0.11895 13.35023,7.99859 13.15453,12.53345c-0.1957,4.53486 -6.40247,8.11467 -13.86322,7.99571c-3.92473,-0.06258 -7.41463,-1.13624 -9.81262,-2.80006c-1.8671,3.30178 -7.08987,5.63467 -13.13623,5.53827c-4.99466,-0.07963 -9.28511,-1.79677 -11.51704,-4.28385c-2.53781,1.58271 -6.11278,2.54201 -10.03417,2.47949c-5.64684,-0.09004 -10.39357,-2.27312 -12.28305,-5.29557c-2.55469,1.73846 -6.30358,2.80809 -10.43745,2.74218c-3.97652,-0.0634 -7.50669,-1.16476 -9.90701,-2.86625c-2.15427,2.94858 -7.07445,4.96923 -12.71015,4.87938c-3.45835,-0.05514 -6.57909,-0.89535 -8.91262,-2.23264c-2.24432,2.81238 -7.04423,4.71714 -12.5195,4.62984c-4.55377,-0.07261 -8.52218,-1.50638 -10.8788,-3.64382c-3.51967,-0.09053 -6.67663,-0.99471 -8.99088,-2.40507c-2.5367,1.57604 -6.10404,2.53066 -10.01618,2.46829c-7.46075,-0.11895 -13.35023,-3.89162 -13.15453,-8.42649z" fill="url(#color-15)" stroke="none" stroke-width="0.5"/></g></g><g><path d="M114.70821,218.39662h161.5506c0,0 -1.5,15.09501 -1.5,30.70669c0,10.61403 1.5,20.66024 1.5,29.5c0,7.81493 -2,18.65298 -2,30c0,8.74818 2,17.7989 2,26c0,16.65328 -2.5,29.30331 -2.5,29.30331l-159.0506,0.5c0,0 2,-12.32628 2,-26.80331c0,-8.90803 -2,-17.3876 -2,-28c0,-10.12936 2.5,-16.87972 2.5,-26c0,-9.00196 -2.5,-20.40296 -2.5,-26c0,-16.27629 0,-39.20669 0,-39.20669z" data-paper-data="{&quot;origPos&quot;:null}" fill="url(#color-16)" stroke="#4f5162" stroke-width="2" stroke-linecap="butt"/><path d="M132.53078,215.60332c0,0 11,2.20998 11,9.5c0,7.64715 -11,20.63333 -11,31.5c0,10.06624 10.5,16.40879 10.5,26.5c0,11.5994 -10.5,19.7061 -10.5,27c0,7.56039 10.5,18.25498 10.5,26.5c0,12.00687 -10.5,25.5 -10.5,25.5" fill="none" stroke="url(#color-17)" stroke-width="15" stroke-linecap="round"/><path d="M170.03078,215.60332c0,0 11,2.20998 11,9.5c0,7.64715 -11,20.63333 -11,31.5c0,10.06624 10.5,16.40879 10.5,26.5c0,11.5994 -10.5,19.7061 -10.5,27c0,7.56039 10.5,18.25498 10.5,26.5c0,12.00687 -10.5,25.5 -10.5,25.5" fill="none" stroke="url(#color-18)" stroke-width="15" stroke-linecap="round"/><path d="M207.53079,215.60331c0,0 11,2.20998 11,9.5c0,7.64715 -11,20.63333 -11,31.5c0,10.06624 10.5,16.40879 10.5,26.5c0,11.5994 -10.5,19.7061 -10.5,27c0,7.56039 10.5,18.25498 10.5,26.5c0,12.00687 -10.5,25.5 -10.5,25.5" fill="none" stroke="url(#color-19)" stroke-width="15" stroke-linecap="round"/><path d="M245.03078,215.60331c0,0 11,2.20998 11,9.5c0,7.64715 -11,20.63333 -11,31.5c0,10.06624 10.5,16.40879 10.5,26.5c0,11.5994 -10.5,19.7061 -10.5,27c0,7.56039 10.5,18.25498 10.5,26.5c0,12.00687 -10.5,25.5 -10.5,25.5" fill="none" stroke="url(#color-20)" stroke-width="15" stroke-linecap="round"/><g stroke-linecap="butt"><path d="M102.75221,219.27254c0.21723,-8.28143 7.10674,-21.31875 15.38817,-21.10152c4.0055,0.10507 149.97127,0.26629 156.68272,0.44233c8.28143,0.21723 14.81874,14.60674 14.60152,22.88817c-0.21723,8.28143 -7.10674,14.81875 -15.38817,14.60152c-4.35644,-0.11427 -8.23023,-2.07496 -10.892,-5.11337c-2.07247,6.02961 -7.86975,10.28985 -14.58121,10.11381c-5.54406,-0.14542 -10.30647,-3.2812 -12.78391,-7.82302c-2.81696,2.8903 -6.78518,4.64212 -11.13792,4.52794c-6.26799,-0.16441 -11.53686,-4.15111 -13.63417,-9.67059c-2.83571,3.17471 -6.99698,5.12805 -11.58557,5.00769c-4.41394,-0.11578 -8.33241,-2.12704 -10.99677,-5.23425c-2.39123,5.38459 -7.85264,9.07464 -14.10826,8.91055c-3.83877,-0.1007 -7.30279,-1.63506 -9.89301,-4.07717c-2.4912,5.13587 -7.81909,8.61428 -13.89663,8.45486c-5.05468,-0.13259 -9.45961,-2.7509 -12.07547,-6.65423c-3.90683,-0.16531 -7.41105,-1.8165 -9.97986,-4.39204c-2.81573,2.87811 -6.77549,4.62141 -11.11795,4.50751c-8.28143,-0.21723 -14.81875,-7.10674 -14.60152,-15.38817z" fill="url(#color-21)" stroke="#298347" stroke-width="2"/><path d="M111.75169,211.22489c0.19571,-4.53486 6.40248,-11.67404 13.86323,-11.55509c3.60856,0.05754 135.10933,0.14582 141.15569,0.24222c7.46075,0.11895 13.35023,7.99859 13.15453,12.53345c-0.1957,4.53486 -6.40247,8.11467 -13.86322,7.99571c-3.92473,-0.06258 -7.41463,-1.13624 -9.81262,-2.80006c-1.8671,3.30178 -7.08987,5.63467 -13.13623,5.53827c-4.99466,-0.07963 -9.28511,-1.79677 -11.51704,-4.28385c-2.53781,1.58271 -6.11278,2.54201 -10.03417,2.47949c-5.64684,-0.09004 -10.39357,-2.27312 -12.28305,-5.29557c-2.55469,1.73846 -6.30358,2.80809 -10.43745,2.74218c-3.97652,-0.0634 -7.50669,-1.16476 -9.90701,-2.86625c-2.15427,2.94858 -7.07445,4.96923 -12.71015,4.87938c-3.45835,-0.05514 -6.57909,-0.89535 -8.91262,-2.23264c-2.24432,2.81238 -7.04423,4.71714 -12.5195,4.62984c-4.55377,-0.07261 -8.52218,-1.50638 -10.8788,-3.64382c-3.51967,-0.09053 -6.67663,-0.99471 -8.99088,-2.40507c-2.5367,1.57604 -6.10404,2.53066 -10.01618,2.46829c-7.46075,-0.11895 -13.35023,-3.89162 -13.15453,-8.42649z" fill="url(#color-22)" stroke="none" stroke-width="0.5"/></g></g><g><path d="M334.70821,217.39662h161.5506c0,0 -1.5,15.09501 -1.5,30.70669c0,10.61403 1.5,20.66024 1.5,29.5c0,7.81493 -2,18.65298 -2,30c0,8.74818 2,17.7989 2,26c0,16.65328 -2.5,29.30331 -2.5,29.30331l-159.0506,0.5c0,0 2,-12.32628 2,-26.80331c0,-8.90803 -2,-17.3876 -2,-28c0,-10.12936 2.5,-16.87972 2.5,-26c0,-9.00196 -2.5,-20.40296 -2.5,-26c0,-16.27629 0,-39.20669 0,-39.20669z" data-paper-data="{&quot;origPos&quot;:null}" fill="url(#color-23)" stroke="#4f5162" stroke-width="2" stroke-linecap="butt"/><path d="M352.53078,214.60332c0,0 11,2.20998 11,9.5c0,7.64715 -11,20.63333 -11,31.5c0,10.06624 10.5,16.40879 10.5,26.5c0,11.5994 -10.5,19.7061 -10.5,27c0,7.56039 10.5,18.25498 10.5,26.5c0,12.00687 -10.5,25.5 -10.5,25.5" fill="none" stroke="url(#color-24)" stroke-width="15" stroke-linecap="round"/><path d="M390.03078,214.60332c0,0 11,2.20998 11,9.5c0,7.64715 -11,20.63333 -11,31.5c0,10.06624 10.5,16.40879 10.5,26.5c0,11.5994 -10.5,19.7061 -10.5,27c0,7.56039 10.5,18.25498 10.5,26.5c0,12.00687 -10.5,25.5 -10.5,25.5" fill="none" stroke="url(#color-25)" stroke-width="15" stroke-linecap="round"/><path d="M427.53079,214.60331c0,0 11,2.20998 11,9.5c0,7.64715 -11,20.63333 -11,31.5c0,10.06624 10.5,16.40879 10.5,26.5c0,11.5994 -10.5,19.7061 -10.5,27c0,7.56039 10.5,18.25498 10.5,26.5c0,12.00687 -10.5,25.5 -10.5,25.5" fill="none" stroke="url(#color-26)" stroke-width="15" stroke-linecap="round"/><path d="M465.03078,214.60331c0,0 11,2.20998 11,9.5c0,7.64715 -11,20.63333 -11,31.5c0,10.06624 10.5,16.40879 10.5,26.5c0,11.5994 -10.5,19.7061 -10.5,27c0,7.56039 10.5,18.25498 10.5,26.5c0,12.00687 -10.5,25.5 -10.5,25.5" fill="none" stroke="url(#color-27)" stroke-width="15" stroke-linecap="round"/><g stroke-linecap="butt"><path d="M322.75221,218.27254c0.21723,-8.28143 7.10674,-21.31875 15.38817,-21.10152c4.0055,0.10507 149.97127,0.26629 156.68272,0.44233c8.28143,0.21723 14.81874,14.60674 14.60152,22.88817c-0.21723,8.28143 -7.10674,14.81875 -15.38817,14.60152c-4.35644,-0.11427 -8.23023,-2.07496 -10.892,-5.11337c-2.07247,6.02961 -7.86975,10.28985 -14.58121,10.11381c-5.54406,-0.14542 -10.30647,-3.2812 -12.78391,-7.82302c-2.81696,2.8903 -6.78518,4.64212 -11.13792,4.52794c-6.26799,-0.16441 -11.53686,-4.15111 -13.63417,-9.67059c-2.83571,3.17471 -6.99698,5.12805 -11.58557,5.00769c-4.41394,-0.11578 -8.33241,-2.12704 -10.99677,-5.23425c-2.39123,5.38459 -7.85264,9.07464 -14.10826,8.91055c-3.83877,-0.1007 -7.30279,-1.63506 -9.89301,-4.07717c-2.4912,5.13587 -7.81909,8.61428 -13.89663,8.45486c-5.05468,-0.13259 -9.45961,-2.7509 -12.07547,-6.65423c-3.90683,-0.16531 -7.41105,-1.8165 -9.97986,-4.39204c-2.81573,2.87811 -6.77549,4.62141 -11.11795,4.50751c-8.28143,-0.21723 -14.81875,-7.10674 -14.60152,-15.38817z" fill="url(#color-28)" stroke="#298347" stroke-width="2"/><path d="M331.75169,210.22489c0.19571,-4.53486 6.40248,-11.67404 13.86323,-11.55509c3.60856,0.05754 135.10933,0.14582 141.15569,0.24222c7.46075,0.11895 13.35023,7.99859 13.15453,12.53345c-0.1957,4.53486 -6.40247,8.11467 -13.86322,7.99571c-3.92473,-0.06258 -7.41463,-1.13624 -9.81262,-2.80006c-1.8671,3.30178 -7.08987,5.63467 -13.13623,5.53827c-4.99466,-0.07963 -9.28511,-1.79677 -11.51704,-4.28385c-2.53781,1.58271 -6.11278,2.54201 -10.03417,2.47949c-5.64684,-0.09004 -10.39357,-2.27312 -12.28305,-5.29557c-2.55469,1.73846 -6.30358,2.80809 -10.43745,2.74218c-3.97652,-0.0634 -7.50669,-1.16476 -9.90701,-2.86625c-2.15427,2.94858 -7.07445,4.96923 -12.71015,4.87938c-3.45835,-0.05514 -6.57909,-0.89535 -8.91262,-2.23264c-2.24432,2.81238 -7.04423,4.71714 -12.5195,4.62984c-4.55377,-0.07261 -8.52218,-1.50638 -10.8788,-3.64382c-3.51967,-0.09053 -6.67663,-0.99471 -8.99088,-2.40507c-2.5367,1.57604 -6.10404,2.53066 -10.01618,2.46829c-7.46075,-0.11895 -13.35023,-3.89162 -13.15453,-8.42649z" fill="url(#color-29)" stroke="none" stroke-width="0.5"/></g></g></g></g></svg>