<svg version="1.1" xmlns="http://www.w3.org/2000/svg" xmlns:xlink="http://www.w3.org/1999/xlink" width="91.30226" height="187.48988" viewBox="0,0,91.30226,187.48988"><defs><linearGradient x1="241.57262" y1="256.79364" x2="279.75895" y2="256.79364" gradientUnits="userSpaceOnUse" id="color-1"><stop offset="0" stop-color="#8d6431"/><stop offset="1" stop-color="#ac793c"/></linearGradient><linearGradient x1="204.64149" y1="257.84833" x2="243.39289" y2="257.84833" gradientUnits="userSpaceOnUse" id="color-2"><stop offset="0" stop-color="#8d6431"/><stop offset="1" stop-color="#ac793c"/></linearGradient><linearGradient x1="244.96965" y1="170.9076" x2="244.96965" y2="224.28189" gradientUnits="userSpaceOnUse" id="color-3"><stop offset="0" stop-color="#4f6af7"/><stop offset="1" stop-color="#4758dd"/></linearGradient><linearGradient x1="274.94599" y1="119.13055" x2="274.94599" y2="132.4539" gradientUnits="userSpaceOnUse" id="color-4"><stop offset="0" stop-color="#349fc7"/><stop offset="1" stop-color="#297299"/></linearGradient><linearGradient x1="255.21855" y1="111.70762" x2="255.21855" y2="129.72297" gradientUnits="userSpaceOnUse" id="color-5"><stop offset="0" stop-color="#349fc7"/><stop offset="1" stop-color="#308fb6"/></linearGradient><linearGradient x1="244.87944" y1="118.59502" x2="244.87944" y2="130.57631" gradientUnits="userSpaceOnUse" id="color-6"><stop offset="0" stop-color="#38291e"/><stop offset="1" stop-color="#381e32"/></linearGradient><linearGradient x1="262.12054" y1="115.59218" x2="262.12054" y2="126.13673" gradientUnits="userSpaceOnUse" id="color-7"><stop offset="0" stop-color="#38291e"/><stop offset="1" stop-color="#381e32"/></linearGradient></defs><g transform="translate(-197.08571,-85.165)"><g data-paper-data="{&quot;isPaintingLayer&quot;:true}" fill-rule="nonzero" stroke-linejoin="miter" stroke-miterlimit="10" stroke-dasharray="" stroke-dashoffset="0" style="mix-blend-mode: normal"><g data-paper-data="{&quot;origPos&quot;:null,&quot;origRot&quot;:0}" stroke="none" stroke-linecap="butt"><g data-paper-data="{&quot;origPos&quot;:null,&quot;index&quot;:null,&quot;origRot&quot;:0}" stroke-width="0"><path d="M234.58591,167.19789c4.92208,2.00752 5.98283,12.54154 2.30673,21.55472c-3.67613,9.01317 -8.51656,17.03182 -8.51656,17.03182l-14.8399,-5.85494c0,0 4.02372,-14.798 6.98046,-22.04738c3.67613,-9.01317 9.14719,-12.69173 14.06928,-10.68422z" data-paper-data="{&quot;origRot&quot;:0,&quot;origPos&quot;:null}" fill="#41c3ff"/><g data-paper-data="{&quot;origPos&quot;:null}" fill="#ffffff"><path d="M218.32289,207.19905c8.84691,3.14365 19.61838,7.52405 15.76541,16.63996c-2.79517,6.61325 -15.49607,12.74331 -23.42102,7.70887c-8.64792,-5.49373 -17.23781,-9.00725 -11.96634,-18.79159c4.92215,-9.13596 10.77503,-8.70087 19.62195,-5.55723z" data-paper-data="{&quot;origRot&quot;:0,&quot;origPos&quot;:null}"/><path d="M222.14543,200.25857c6.82714,2.43606 15.09163,3.8839 12.80505,8.9723c-2.55799,5.69236 -4.20987,4.70851 -15.26807,0.45197c-12.59733,-4.849 -15.40548,-3.29669 -12.90535,-9.67225c1.4599,-3.72289 8.54124,-2.18806 15.36837,0.24798z" data-paper-data="{&quot;origRot&quot;:0,&quot;origPos&quot;:null}"/></g></g><path d="M207.37828,225.90084l3.36977,-7.97482l-3.90013,-6.82033l7.67664,2.56287l5.24551,-6.16857l0.85153,8.10841l8.85963,2.95683l-8.65981,3.01485l-1.43814,8.28263l-4.60386,-6.97853z" data-paper-data="{&quot;origPos&quot;:null,&quot;origRot&quot;:0}" fill="#ffe008" stroke-width="NaN"/></g><g data-paper-data="{&quot;origPos&quot;:null,&quot;origRot&quot;:0}" stroke="none" stroke-width="0" stroke-linecap="butt"><path d="M266.04911,240.89227c1.57211,4.29032 7.02975,4.49211 7.17568,5.5193c0.59044,4.15602 -0.43982,7.52635 -6.44399,11.4015c-7.4375,4.80024 -14.00074,6.21331 -22.61074,4.15747c-5.86416,-1.40022 -2.26324,-5.25808 -2.03716,-11.28286c0.08112,-2.16186 -0.19746,-4.87186 -1.30092,-10.19512c-1.3796,-6.65546 -2.05637,-25.61313 -2.05637,-25.61313c0,0 6.99455,-2.20106 12.058,-2.78517c3.99601,-0.46097 8.48624,-6.91938 8.48624,-6.91938c0,0 3.09512,25.79982 6.72924,35.71741z" data-paper-data="{&quot;origPos&quot;:null}" fill="#4758dd"/><path d="M279.38735,260.02727c1.13903,3.72839 -2.11825,6.6441 -5.41087,8.73141c-2.15781,1.36791 -13.68574,4.52414 -20.37007,2.93541c-2.07519,-0.49324 -4.21973,-2.39699 -4.21973,-2.39699c0,0 -4.59506,2.19797 -5.00684,0.80057c-0.32688,-1.10928 -0.93004,-2.98401 -0.03376,-3.88534c3.85801,-3.87977 14.78601,-7.21184 20.01872,-8.81044c7.18334,-2.19452 13.90916,-1.0191 15.02256,2.62539z" data-paper-data="{&quot;origPos&quot;:null}" fill="#f8dca0"/><path d="M279.7588,254.79325c0.02636,4.76338 -3.38847,9.2172 -11.50934,11.69814c-8.12086,2.48094 -18.24707,0.42481 -18.24707,0.42481c0,0 -5.78463,2.10561 -6.36439,0.63355c-1.19996,-3.04677 -2.8124,-8.12358 -1.68162,-8.65114c4.17449,-1.94756 3.53121,-1.10531 8.86297,-4.06763c3.45206,-1.91796 8.54716,-7.32254 12.32394,-8.47635c8.12086,-2.48094 16.57214,0.59563 16.61553,8.43863z" data-paper-data="{&quot;origPos&quot;:null}" fill="url(#color-1)"/></g><g data-paper-data="{&quot;origPos&quot;:null,&quot;origRot&quot;:0}" stroke="none" stroke-width="0" stroke-linecap="butt"><path d="M237.91442,244.92248c-0.99523,4.45958 3.48817,7.5782 3.05596,8.5214c-1.74872,3.81617 -4.43666,6.09552 -11.58275,6.11221c-8.85201,0.02068 -15.13826,-2.33646 -21.27248,-8.71846c-4.17794,-4.3467 0.93656,-5.64734 4.38204,-10.59483c1.23634,-1.77529 2.46616,-4.20621 4.41385,-9.28175c2.43512,-6.34576 12.10868,-22.66365 12.10868,-22.66365c0,0 7.07493,1.92711 11.65125,4.17144c3.61157,1.77119 9.0583,7.08043 9.0583,7.08043c0,0 -9.51427,15.06435 -11.81487,25.37321z" data-paper-data="{&quot;origPos&quot;:null}" fill="#4758dd"/><path d="M238.79924,268.23071c-1.05604,3.75275 -5.37232,4.44627 -9.27074,4.42364c-2.55482,-0.01484 -13.96052,-3.58765 -18.72674,-8.53612c-1.4797,-1.53629 -2.25564,-4.29694 -2.25564,-4.29694c0,0 -5.05417,-0.63324 -4.64565,-2.0316c0.3243,-1.11003 0.82969,-3.01345 2.07087,-3.28762c5.34267,-1.18016 16.33855,1.92052 21.60544,3.40264c7.23026,2.03461 12.25472,6.65773 11.22244,10.32603z" data-paper-data="{&quot;origPos&quot;:null}" fill="#f8dca0"/><path d="M241.9398,264.02716c-2.55152,4.02245 -7.83142,5.92514 -16.00534,3.62497c-8.17391,-2.30016 -15.58382,-9.50162 -15.58382,-9.50162c0,0 -6.00525,-1.3537 -5.69773,-2.90564c0.63647,-3.2121 2.02272,-8.35529 3.25927,-8.18824c4.56498,0.61671 3.5686,0.97787 9.65568,1.36598c3.94108,0.25128 11.14858,-1.54355 14.95003,-0.47381c8.17391,2.30016 13.62305,9.4553 9.42192,16.07836z" data-paper-data="{&quot;origPos&quot;:null}" fill="url(#color-2)"/></g><g data-paper-data="{&quot;origPos&quot;:null}"><path d="M270.72766,194.0783c0.39163,21.17353 -7.36176,30.41297 -28.3,30.2c-21.9365,-0.22312 -23.2,-12.78796 -23.2,-22.95c0,-11.02412 -0.93148,-20.04986 7.57136,-27.06648c6.33487,-5.22759 13.21535,-2.78352 21.42864,-2.78352c15.18783,0 22.11612,1.84521 22.5,22.6z" data-paper-data="{&quot;origPos&quot;:null}" fill="url(#color-3)" stroke="none" stroke-width="0" stroke-linecap="butt"/><path d="M270.97766,193.4783c0,0 -17.24385,2 -29.4,2.4c-11.15011,0.36689 -22.4,-3.4 -22.4,-3.4c0,0 -0.98648,-13.79564 6.98462,-19.16002c5.21526,-3.50975 11.08038,-4.65914 18.61538,-4.83998c7.535,-0.18084 15.72889,2.13912 19.52206,5.21215c8.95988,7.25886 6.67794,19.78785 6.67794,19.78785z" data-paper-data="{&quot;origPos&quot;:null}" fill="#41c3ff" stroke="none" stroke-width="0" stroke-linecap="butt"/><path d="M257.08547,172.36961c0,0 2.14029,6.84028 2.57206,10.95319c0.55457,5.28272 -0.57997,15.20846 -0.57997,15.20846" data-paper-data="{&quot;origPos&quot;:null,&quot;origRot&quot;:0}" fill="none" stroke="#5063f7" stroke-width="10" stroke-linecap="round"/><path d="M235.57766,172.8783c0,0 1.23985,7.05925 1.13735,11.19349c-0.13165,5.31011 -2.53735,15.00651 -2.53735,15.00651" data-paper-data="{&quot;origPos&quot;:null}" fill="none" stroke="#5063f7" stroke-width="10" stroke-linecap="round"/><path d="M231.96113,202.6923l0.47856,-4.16533l-2.74233,-2.63761l3.91676,0.14425l1.59649,-3.58172l1.50128,3.65183l4.5202,0.16603l-3.61311,2.58175l0.46103,4.045l-3.09091,-2.61517z" data-paper-data="{&quot;origPos&quot;:null,&quot;origRot&quot;:0}" fill="#ffe008" stroke="none" stroke-width="NaN" stroke-linecap="butt"/><path d="M257.35407,202.4504l-0.09884,-4.19156l-3.07901,-2.23539l3.89937,-0.39579l1.08873,-3.76726l1.98925,3.41067l4.50007,-0.45721l-3.2237,3.05412l1.01296,3.94315l-3.4212,-2.16523z" data-paper-data="{&quot;origPos&quot;:null,&quot;origRot&quot;:0}" fill="#ffe008" stroke="none" stroke-width="NaN" stroke-linecap="butt"/></g><g data-paper-data="{&quot;origPos&quot;:null,&quot;origRot&quot;:0}" stroke="none" stroke-linecap="butt"><g data-paper-data="{&quot;origPos&quot;:null}" stroke-width="0"><path d="M232.2407,182.63685c2.23493,7.50341 4.79487,22.62352 4.79487,22.62352l-15.34059,4.37831c0,0 -4.03455,-8.45287 -6.81323,-17.78186c-2.77869,-9.32899 4.78567,-21.27938 9.88023,-22.79682c5.09455,-1.51744 4.70004,4.24787 7.47873,13.57686z" data-paper-data="{&quot;origRot&quot;:0,&quot;origPos&quot;:null}" fill="#41c3ff"/><g data-paper-data="{&quot;origPos&quot;:null}" fill="#ffffff"><path d="M250.54779,219.4741c4.29114,10.2522 -4.60071,12.91039 -13.74362,17.53368c-8.37855,4.23678 -20.42037,-3.10387 -22.55662,-9.9584c-2.94466,-9.44849 8.20297,-12.75646 17.31451,-15.02145c9.11154,-2.265 14.97896,-2.12665 18.98573,7.44617z" data-paper-data="{&quot;origRot&quot;:0,&quot;origPos&quot;:null}"/><path d="M243.75449,206.00089c1.86582,6.58918 -0.7774,4.77016 -13.78791,8.36624c-11.4209,3.15672 -13.16095,3.97461 -15.15103,-1.94027c-1.77893,-5.28731 6.58743,-5.92146 13.61976,-7.67942c7.03233,-1.75796 14.22968,-2.59416 15.31918,1.25345z" data-paper-data="{&quot;origRot&quot;:0,&quot;origPos&quot;:null}"/></g></g><path d="M227.70392,234.20097l-0.90025,-8.6106l-6.7088,-4.08901l7.95986,-1.46284l1.61453,-7.93472l4.66124,6.68911l9.186,-1.68912l-6.12728,6.82187l2.74037,7.94736l-7.40142,-3.88771z" data-paper-data="{&quot;origPos&quot;:null,&quot;origRot&quot;:0}" fill="#ffe008" stroke-width="NaN"/></g><g data-paper-data="{&quot;origPos&quot;:null}"><path d="M287.89953,123.8539c-0.56793,3.79329 -11.88998,8.6 -20.8,8.6c-7.1797,0 -5.4,-6.75492 -5.4,-10.4c0,-3.64508 14.0703,-2.85 21.25,-2.85c7.1797,0 5.31761,2.19464 4.95,4.65z" data-paper-data="{&quot;origPos&quot;:null}" fill="url(#color-4)" stroke="none" stroke-width="0" stroke-linecap="butt"/><path d="M212.74262,165.23552c-1.88302,-1.368 -2.34219,-3.637 -0.85476,-6.37559c1.72578,-3.17745 1.08123,-8.21818 2.96425,-6.85018c0,0 7.23293,1.02169 7.79114,3.9154c0,0 3.0507,8.35652 1.80057,9.69315c0,0 -1.78179,1.32182 -6.42716,1.10231c-2.51693,-0.11893 -3.39102,-0.11707 -5.27403,-1.48508z" data-paper-data="{&quot;origRot&quot;:0,&quot;origPos&quot;:null}" fill="#e7be7a" stroke="none" stroke-width="0" stroke-linecap="butt"/><path d="M219.48286,126.13723c4.31396,1.0071 37.24301,-2.16822 43.0368,-1.8462c8.57182,0.47642 6.20204,8.21361 6.80713,16.77732c0.69572,9.84642 7.56286,14.33038 4.11388,23.57918c-1.32977,3.56593 -5.57109,6.18206 -8.56062,8.53723c-1.69594,1.33607 -4.01231,5.30061 -14.80054,5.5225c-18.91647,-3.76969 -24.18277,-8.72429 -27.36091,-12.69741c-3.28722,-3.79189 -1.91707,-5.03225 -5.0923,-9.83925c-0.97333,-1.47352 -2.12747,-2.25956 -2.322,-2.25956c-10.37042,0 -16.07143,-8.56649 -16.07143,-16.66666c0,-8.10018 3.70101,-14.66666 9.5,-14.66666c5.79899,0 9.25,3.20935 10.75,3.55952z" data-paper-data="{&quot;origPos&quot;:null}" fill="#ffdebd" stroke="none" stroke-width="0" stroke-linecap="butt"/><path d="M267.66619,131.34364c0.35235,4.88885 -1.81808,9.02906 -4.84779,9.24741c-3.02971,0.21836 -5.7714,-3.56782 -6.12375,-8.45666c-0.35235,-4.88885 1.81808,-9.02905 4.84779,-9.24741c3.02971,-0.21836 5.77141,3.56782 6.12376,8.45666z" data-paper-data="{&quot;origPos&quot;:null,&quot;origRot&quot;:0}" fill="#ffffff" stroke="none" stroke-width="0" stroke-linecap="butt"/><path d="M229.89286,133.9607c0,2.60849 3.85805,10.02393 1.51211,11.16446c-2.72909,1.32681 -3.54387,-2.9338 -7.19783,-2.25017c-2.71433,0.50783 -4.45714,-4.78172 -4.45714,-9.2c0,-4.41828 -0.01669,-8.69821 2.74286,-8.8c11.61857,-0.42857 7.4,4.66744 7.4,9.08571z" data-paper-data="{&quot;origPos&quot;:null}" fill="#e7be7a" stroke="none" stroke-width="0" stroke-linecap="butt"/><path d="M254.64298,136.34836c0.57094,4.86816 -1.41189,9.10142 -4.42877,9.45524c-3.01689,0.35383 -5.92541,-3.30577 -6.49635,-8.17393c-0.57094,-4.86816 1.41189,-9.10142 4.42877,-9.45524c3.01689,-0.35383 5.92541,3.30577 6.49635,8.17393z" data-paper-data="{&quot;origPos&quot;:null,&quot;origRot&quot;:0}" fill="#ffffff" stroke="none" stroke-width="0" stroke-linecap="butt"/><path d="M251.85,132.70002c0.952,0 1.814,0.695 2.439,1.817c0.624,1.122 1.011,2.672 1.011,4.383c0,1.711 -0.387,3.261 -1.011,4.383c-0.625,1.122 -1.487,1.817 -2.439,1.817c-0.952,0 -1.814,-0.695 -2.439,-1.817c-0.624,-1.122 -1.011,-2.672 -1.011,-4.383c0,-1.711 0.387,-3.261 1.011,-4.383c0.625,-1.122 1.487,-1.817 2.439,-1.817z" data-paper-data="{&quot;origPos&quot;:null}" id="ID0.2989244391210377" fill="#000000" stroke="#ffe008" stroke-width="2" stroke-linecap="butt"/><path d="M264.84999,128.15002c0.952,0 1.814,0.695 2.439,1.817c0.624,1.122 0.775,2.904 1.011,4.383c0.083,0.539 0.233,1.323 -0.15,1.8c-0.483,0.577 -1.281,0.853 -2,1.1c-1.256,0.26 -2.748,1.037 -3.85,0.4c-0.966,-0.58 -0.89,-2.138 -0.9,-3.3c-0.013,-1.501 0.387,-3.261 1.011,-4.383c0.625,-1.122 1.487,-1.817 2.439,-1.817z" data-paper-data="{&quot;origPos&quot;:null}" id="ID0.2989244391210377" fill="#000000" stroke="#ffe008" stroke-width="2" stroke-linecap="round"/><path d="M273.79348,96.82855c2.39648,14.94461 -0.49216,15.79448 -8.52168,20.57884c-11.69967,6.97121 -27.00365,5.55994 -39.50062,10.97342c-3.28137,1.42143 -11.64483,-2.03217 -15.22084,-2.03217c-7.31398,0 -11.44089,-5.22725 -11.74313,-11.45342c-0.66666,-13.7335 6.09582,-13.78676 13.4098,-13.78676c0,0 8.04926,1.33414 10.82961,5.60456c0,0 11.19763,-18.21899 23.00151,-20.46979c15.1949,-2.89741 26.02436,-0.14688 27.74535,10.58532z" data-paper-data="{&quot;origPos&quot;:null}" fill="#41c3ff" stroke="none" stroke-width="0" stroke-linecap="butt"/><path d="M270.89953,105.3539c0,5.46762 -1.46317,9.58116 -12.2,9.9c-11.33464,0.33659 -12.2,-4.43238 -12.2,-9.9c0,-5.46762 5.46212,-9.9 12.2,-9.9c6.73787,0 12.2,4.43238 12.2,9.9z" data-paper-data="{&quot;origPos&quot;:null}" fill="#ffffff" stroke="none" stroke-width="0" stroke-linecap="butt"/><path d="M288.29953,121.7539c-0.2,0.85848 -39.34284,6.5 -50.3,7.7c-5.32532,0.58322 -16.1,0.15848 -15.9,-0.7c0.73933,-3.1735 2.8049,-8.24498 7.9,-9.9c6.15716,-2 27.29511,-7.38005 43.10212,-7.1384c6.46182,0.09879 15.93721,6.8649 15.19788,10.0384z" data-paper-data="{&quot;origPos&quot;:null}" fill="url(#color-5)" stroke="none" stroke-width="0" stroke-linecap="butt"/><path d="M254.2034,111.59418l0.18849,-3.45889l5.09724,-0.74498l-1.45114,-1.76959l-3.62565,-0.45434l-1.99342,-3.01392l1.9556,-2.81852l7.89963,-1.24007l1.73259,3.27111l-7.32518,0.57178l4.13196,1.53006l3.06427,2.53879l0.28922,2.58669l-2.24917,1.64784z" data-paper-data="{&quot;origPos&quot;:null,&quot;origRot&quot;:0}" fill="#ffe008" stroke="none" stroke-width="0" stroke-linecap="butt"/><path d="M268.23037,169.54034c-3.21733,0.20214 -7.84599,-0.72468 -15.34899,-1.96359c-9.7284,-1.60637 -11.10928,-8.44609 -11.10928,-8.44609c0,0 -3.6461,-1.33232 -5.675,-2.475c-1.58811,-0.89443 0.32605,-6.49937 1.18005,-6.66272c4.97377,-0.95139 6.45569,3.43243 10.27828,5.49605c0,0 12.7819,4.20754 18.75328,3.86744c0,0 9.6388,-4.51103 12.62642,-4.31325c1.48172,0.09809 1.49141,3.20314 1.02397,4.7714c0,0 -1.29607,4.20023 -3.42128,5.67204c-2.1252,1.47181 -5.09013,3.85158 -8.30745,4.05371z" data-paper-data="{&quot;origPos&quot;:null}" fill="#e7be7a" stroke="none" stroke-width="0" stroke-linecap="butt"/><path d="M278.43042,148.98899c-0.5,6.61802 1.12741,11.125 -13.25,10.875c-6.62642,-0.11523 -13,-4.25698 -13,-10.125c0,-5.86802 6.3926,-13.11026 13,-13.625c9.62741,-0.75 14.04992,2.28715 13.25,12.875z" data-paper-data="{&quot;origPos&quot;:null}" fill="#ffdebd" stroke="none" stroke-width="0" stroke-linecap="butt"/><g data-paper-data="{&quot;origPos&quot;:null}" fill="none" stroke="#f6b09a" stroke-width="3.5" stroke-linecap="round"><path d="M205.60689,132.93213c0,0 2.96332,-1.72996 6.75499,1.19948c5.43788,4.2013 2.24501,11.37195 2.24501,11.37195" data-paper-data="{&quot;origPos&quot;:null}"/><path d="M214.32118,139.64645h-6" data-paper-data="{&quot;origPos&quot;:null}"/><path d="M212.46403,145.64645h1.28571" data-paper-data="{&quot;origPos&quot;:null}"/></g><path d="M245.01269,125.70131c-1.37576,0.41027 -1.31062,0.60464 -1.97844,1.87549c-0.68894,1.31106 -2.14657,2.99951 -2.14657,2.99951c0,0 -1.45833,-3.62706 -1.45833,-6.31945c0,-1.8281 0.99336,-5.0144 3.81107,-5.65344c9.53112,-0.32089 6.69401,8.65093 6.69401,8.65093c0,0 -3.4773,-2.0232 -4.92174,-1.55303z" data-paper-data="{&quot;origPos&quot;:null}" fill="url(#color-6)" stroke="none" stroke-width="0" stroke-linecap="butt"/><path d="M262.27348,122.89527c-1.51641,0.08916 -4.01601,3.24146 -4.01601,3.24146c0,0 -5.91454,-7.31854 3.07681,-10.49674c2.85665,-0.43291 4.94393,2.17143 5.61082,3.87354c0.98219,2.50684 0.94752,6.41595 0.94752,6.41595c0,0 -1.97313,-1.04035 -3.09287,-2.00973c-1.0854,-0.93965 -1.09566,-1.14439 -2.52627,-1.02451z" data-paper-data="{&quot;origPos&quot;:null,&quot;index&quot;:null,&quot;origRot&quot;:0}" fill="url(#color-7)" stroke="none" stroke-width="0" stroke-linecap="butt"/></g></g></g></svg>