<svg version="1.1" xmlns="http://www.w3.org/2000/svg" xmlns:xlink="http://www.w3.org/1999/xlink" width="191" height="246.85849" viewBox="0,0,191,246.85849"><g transform="translate(-158,-58.64151)"><g data-paper-data="{&quot;isPaintingLayer&quot;:true}" fill-rule="nonzero" stroke-linejoin="miter" stroke-miterlimit="10" stroke-dasharray="" stroke-dashoffset="0" style="mix-blend-mode: normal"><path d="M158,305.5v-246.85849h191v246.85849z" fill="none" stroke="none" stroke-width="0" stroke-linecap="butt"/><path d="M158,305.5v-246.85849h191v246.85849z" fill="none" stroke="none" stroke-width="0" stroke-linecap="butt"/><g><g data-paper-data="{&quot;index&quot;:null}"><path d="M256.85866,216.86392c0,0 1.19215,-2.71436 3.41257,-6.19111c0.47467,-0.74326 3.00032,-3.19133 3.56739,-3.98518c2.90827,-4.07147 5.00653,-6.88776 10.08673,-9.21619c3.7513,-1.71933 10.25099,-2.1276 13.64088,-1.06481c6.28306,1.96987 8.55691,8.53564 8.55691,8.53564c0,0 -1.54981,-1.75461 -3.02194,-1.90386c-0.89334,-0.09056 -1.65258,0.83203 -2.32265,1.8841c-2.93086,4.60151 -7.35745,10.08638 -13.47213,12.88895c-10.70422,4.90606 -20.44766,-0.94748 -20.44766,-0.94748z" fill="#9fc225" stroke="none" stroke-width="0" stroke-linecap="butt"/><path d="M263.17787,213.49913c0,0 1.24702,-0.77095 4.44974,-3.76817c1.86567,-1.74596 4.69207,-5.29695 7.58993,-6.89457c2.89786,-1.5976 5.49045,-1.82574 7.96494,-2.11336c4.06693,-0.47272 7.20022,-0.0162 7.20022,-0.0162" fill="none" stroke="#5a911c" stroke-width="1.5" stroke-linecap="round"/></g><path d="M252.06714,174.30561l10.57582,0.18555c0,0 -2.07541,21.46507 -2.07541,29.33999c0,5.25154 0.87806,13.13045 0.87806,13.13045h-8.58024c0,0 0.47895,-8.36413 0.47895,-14.44788c0,-7.7347 -1.27717,-28.20811 -1.27717,-28.20811z" fill="#9fc225" stroke="none" stroke-width="0.97987" stroke-linecap="butt"/><g><path d="M257.52941,217.14823c0,0 -9.74343,5.85361 -20.44762,0.94751c-5.17109,-2.37007 -9.57465,-8.52517 -12.83852,-12.4523c-3.10945,-3.74133 -5.47723,2.42202 -5.47723,2.42202c0,0 0.79291,-5.65747 3.6384,-8.2949c4.19634,-3.88948 11.67951,-4.93854 18.05835,-2.01489c3.35554,1.53793 6.95238,6.35527 9.39235,9.03471c1.79917,1.97575 2.6645,1.7223 3.90706,3.61837c2.4479,3.73537 3.76725,6.73936 3.76725,6.73936z" fill="#9fc225" stroke="none" stroke-width="0" stroke-linecap="butt"/><path d="M223.17044,201.65906c0,0 3.74563,-1.14731 6.14118,-0.81924c2.39555,0.32807 4.27599,0.37536 9.35794,2.44772c2.58833,1.05551 4.80524,4.34877 6.6231,5.84076c3.85705,3.16563 5.9176,4.65501 5.9176,4.65501" fill="none" stroke="#5a911c" stroke-width="1.5" stroke-linecap="round"/></g><g stroke-linecap="butt"><g stroke="none" stroke-width="0"><path d="M295.14445,141.75675c0,0 0.01668,50.74078 -37.23976,50.82086c-36.3919,0.07821 -38.66117,-51.65175 -38.66117,-51.65175c0,0 1.50203,-4.34805 6.0208,-2.52175c5.1043,2.06301 13.31759,7.99268 13.31759,7.99268c0,0 8.84813,-13.29314 18.75425,-13.36416c9.90616,-0.07102 17.14564,13.10682 17.14564,13.10682c0,0 10.59704,-7.62766 15.14965,-8.41146c4.86039,-0.83679 5.51303,4.02869 5.51303,4.02869z" fill="#11ac1e"/><path d="M257.74689,187.31554c-26.32127,-0.22595 -31.498,-34.59111 -31.498,-34.59111c0,0 0.43909,-2.02368 3.32362,-1.40106c3.23399,0.69802 11.08902,6.13443 11.08902,6.13443c0,0 8.87675,-13.08751 16.13759,-12.79301c7.54477,0.30594 17.06587,13.91365 17.06587,13.91365c0,0 8.33102,-5.79953 12.124,-7.18419c3.34137,-1.2198 3.85564,1.31803 3.85564,1.31803c0,0 -5.67253,34.27417 -32.0979,34.60322z" fill="#53ce1b"/><path d="M257.57982,183.76017c-16.24841,-0.35833 -22.17541,-17.95607 -22.17541,-17.95607c0,0 0.10663,-1.33298 2.45066,-1.03602c2.1534,0.27282 6.86356,4.97336 6.86356,4.97336c0,0 6.70918,-9.32753 12.20176,-9.33537c5.1949,-0.00745 13.881,9.41712 13.881,9.41712c0,0 5.04694,-4.20925 7.48091,-5.14572c2.2454,-0.8639 2.40714,1.11977 2.40714,1.11977c0,0 -6.53043,17.54647 -23.10957,17.96303z" fill="#96f018"/></g><path d="M274.96105,154.43265c0,-2.71502 2.25908,-4.9159 5.04584,-4.9159c2.78676,0 5.04589,2.20091 5.04589,4.9159c0,2.71502 -2.25913,4.91586 -5.04589,4.91586c-2.78676,0 -5.04584,-2.20083 -5.04584,-4.91586z" fill="none" stroke="#53ce1b" stroke-width="1.5"/><path d="M252.64566,158.72541c0,-3.17386 2.64095,-5.74673 5.89869,-5.74673c3.25776,0 5.89866,2.57287 5.89866,5.74673c0,3.17386 -2.64092,5.74678 -5.89866,5.74678c-3.25776,0 -5.89869,-2.5729 -5.89869,-5.74678z" fill="none" stroke="#96f018" stroke-width="1.5"/><path d="M236.58426,173.26542c0,-1.87375 1.55911,-3.39266 3.4824,-3.39266c1.92326,0 3.48237,1.51888 3.48237,3.39266c0,1.87375 -1.55909,3.39266 -3.48237,3.39266c-1.92326,0 -3.4824,-1.51888 -3.4824,-3.39266z" fill="none" stroke="#96f018" stroke-width="1.5"/><path d="M247.52874,144.32389c0,-2.94445 2.44999,-5.33129 5.47222,-5.33129c3.02223,0 5.4723,2.38692 5.4723,5.33129c0,2.94445 -2.45006,5.3313 -5.4723,5.3313c-3.02223,0 -5.47222,-2.38693 -5.47222,-5.3313z" fill="none" stroke="#53ce1b" stroke-width="1.5"/><path d="M235.73141,156.30204c0,-1.91197 1.5909,-3.46188 3.55341,-3.46188c1.96251,0 3.55341,1.54994 3.55341,3.46188c0,1.91197 -1.59094,3.46191 -3.55341,3.46191c-1.96251,0 -3.55341,-1.54997 -3.55341,-3.46191z" fill="none" stroke="#53ce1b" stroke-width="1.5"/></g><path d="M265.86485,160.52566c2.81678,0 3.74299,2.74115 3.74299,9.17948c0,6.21016 -1.17601,5.54078 -3.74299,5.54078c-2.56692,0 -3.74305,0.44127 -3.74305,-5.54078c0,-6.43828 0.92622,-9.17948 3.74305,-9.17948z" fill="#000000" stroke="none" stroke-width="0" stroke-linecap="butt"/><path d="M248.52327,160.57352c2.81678,0 3.743,2.74113 3.743,9.17947c0,6.21016 -1.17603,5.54072 -3.743,5.54072c-2.56692,0 -3.74299,0.44127 -3.74299,-5.54075c0,-6.43828 0.9262,-9.17947 3.74299,-9.17947z" fill="#000000" stroke="none" stroke-width="0" stroke-linecap="butt"/></g></g></g></svg>