<svg version="1.1" xmlns="http://www.w3.org/2000/svg" xmlns:xlink="http://www.w3.org/1999/xlink" width="484.28274" height="319.06545" viewBox="0,0,484.28274,319.06545"><defs><linearGradient x1="9.86066" y1="299.39302" x2="30" y2="299.39302" gradientUnits="userSpaceOnUse" id="color-1"><stop offset="0" stop-color="#a3822e"/><stop offset="1" stop-color="#e4b234"/></linearGradient><linearGradient x1="18.98307" y1="223.86562" x2="18.98307" y2="237.86562" gradientUnits="userSpaceOnUse" id="color-2"><stop offset="0" stop-color="#e4b234"/><stop offset="1" stop-color="#a3822e"/></linearGradient><linearGradient x1="450.86066" y1="229.39302" x2="471" y2="229.39302" gradientUnits="userSpaceOnUse" id="color-3"><stop offset="0" stop-color="#a3822e"/><stop offset="1" stop-color="#e4b234"/></linearGradient><linearGradient x1="459.98307" y1="85.86562" x2="459.98307" y2="99.86562" gradientUnits="userSpaceOnUse" id="color-4"><stop offset="0" stop-color="#e4b234"/><stop offset="1" stop-color="#a3822e"/></linearGradient><linearGradient x1="151.62008" y1="188.71152" x2="151.62008" y2="403.93107" gradientUnits="userSpaceOnUse" id="color-5"><stop offset="0" stop-color="#a3822e"/><stop offset="1" stop-color="#e4b234"/></linearGradient><linearGradient x1="152.14117" y1="179.95001" x2="152.55691" y2="215.8685" gradientUnits="userSpaceOnUse" id="color-6"><stop offset="0" stop-color="#aaf073"/><stop offset="1" stop-color="#8bab52"/></linearGradient><linearGradient x1="341.25173" y1="134.82339" x2="341.25173" y2="375.96382" gradientUnits="userSpaceOnUse" id="color-7"><stop offset="0" stop-color="#a3822e"/><stop offset="1" stop-color="#e4b234"/></linearGradient><linearGradient x1="341.77283" y1="126.06188" x2="342.18857" y2="161.98037" gradientUnits="userSpaceOnUse" id="color-8"><stop offset="0" stop-color="#aaf073"/><stop offset="1" stop-color="#8bab52"/></linearGradient></defs><g transform="translate(2.6583,-85.86562)"><g data-paper-data="{&quot;isPaintingLayer&quot;:true}" fill-rule="nonzero" stroke-linejoin="miter" stroke-miterlimit="10" stroke-dasharray="" stroke-dashoffset="0" style="mix-blend-mode: normal"><path d="M9.86066,236.89302h20.13934v125h-20.13934z" data-paper-data="{&quot;origPos&quot;:null}" fill="url(#color-1)" stroke="none" stroke-width="1.54554" stroke-linecap="butt"/><path d="M-2.6583,223.86562h43.28274v14h-43.28274z" data-paper-data="{&quot;origPos&quot;:null}" fill="url(#color-2)" stroke="none" stroke-width="1.16442" stroke-linecap="butt"/><path d="M450.86066,97.89302h20.13934v263h-20.13934z" data-paper-data="{&quot;origPos&quot;:null}" fill="url(#color-3)" stroke="none" stroke-width="1.54554" stroke-linecap="butt"/><path d="M438.3417,85.86562h43.28274v14h-43.28273z" data-paper-data="{&quot;origPos&quot;:null}" fill="url(#color-4)" stroke="none" stroke-width="1.16442" stroke-linecap="butt"/><g stroke-width="2" stroke-linecap="round"><path d="M172.59487,403.93107h-60.18852l7.90354,-85.31918l1.82389,-60.72266l-1.82389,-49.96168l-1.82389,-19.21603h67.4841l-6.68761,91.46831l4.25575,81.47598l7.29558,42.27527z" data-paper-data="{&quot;index&quot;:null}" fill="url(#color-5)" stroke="#75491c"/><path d="M228.13881,195.93491l0.07276,6.28574l-7.18194,9.98119l-7.28588,1.00157l-4.11584,-5.33021l-5.62291,4.57039l-8.10697,0.11512l-4.09506,-3.53428l-6.41282,6.37782l-5.67487,0.08059l-7.33784,-3.48824l-3.33633,-8.03561l-3.97033,7.24126l-8.10697,0.11512l-6.49596,-0.80586l-8.14855,-3.47673l-5.60212,6.36632l-6.46479,1.88802l-8.95924,-3.46521l-4.00152,4.54737l-6.48557,0.0921l-5.68527,-0.81738l-9.0216,-8.85298l-4.833,2.76296l-6.48557,0.0921l-4.89536,-2.62482l-3.30515,-5.34172l-0.06236,-5.38778l7.14037,-13.57304l4.84339,-1.865l135.40715,-0.12664z" data-paper-data="{&quot;origRot&quot;:0,&quot;index&quot;:null}" fill="url(#color-6)" stroke="#316600"/></g><g stroke-width="2" stroke-linecap="round"><path d="M302.038,375.96381l7.90354,-111.24005l1.82389,-60.72266l-1.82389,-49.96168l-1.82389,-19.21603h67.48409l-6.68761,91.46831l4.25576,81.47598l7.29558,68.19614z" data-paper-data="{&quot;index&quot;:null}" fill="url(#color-7)" stroke="#75491c"/><path d="M417.77046,142.04678l0.07276,6.28573l-7.18194,9.98119l-7.28589,1.00158l-4.11584,-5.33021l-5.62291,4.57039l-8.10696,0.11512l-4.09506,-3.53428l-6.41282,6.37783l-5.67487,0.08059l-7.33784,-3.48824l-3.33634,-8.03561l-3.97033,7.24125l-8.10697,0.11513l-6.49597,-0.80587l-8.14854,-3.47672l-5.60213,6.36632l-6.46479,1.88802l-8.95924,-3.46521l-4.00152,4.54737l-6.48557,0.0921l-5.68527,-0.81739l-9.0216,-8.85298l-4.833,2.76296l-6.48558,0.0921l-4.89536,-2.62482l-3.30515,-5.34172l-0.06236,-5.38778l7.14037,-13.57304l4.84339,-1.865l135.40715,-0.12664z" data-paper-data="{&quot;origRot&quot;:0,&quot;index&quot;:null}" fill="url(#color-8)" stroke="#316600"/></g></g></g></svg>