<svg version="1.1" xmlns="http://www.w3.org/2000/svg" xmlns:xlink="http://www.w3.org/1999/xlink" width="92.04583" height="90.51593" viewBox="0,0,92.04583,90.51593"><g transform="translate(-193.47707,-134.24204)"><g data-paper-data="{&quot;isPaintingLayer&quot;:true}" fill-rule="nonzero" stroke-linejoin="miter" stroke-miterlimit="10" stroke-dasharray="" stroke-dashoffset="0" style="mix-blend-mode: normal"><path d="M251.93791,211.82674l-0.72296,3.56323l-1.27456,2.48409l-3.4542,2.78276l-3.21321,1.59502l-18.06257,2.2441l-3.59773,0.26203l-5.02335,-2.77584l-2.22998,-1.54199l-1.39028,-7.19972l1.77582,-3.24561l3.4542,-2.78277l3.13931,-0.66111l11.12738,-1.2938l9.3012,0.11116l7.67318,1.48897l2.42813,1.51484z" data-paper-data="{&quot;origPos&quot;:null,&quot;index&quot;:null,&quot;origRot&quot;:0}" fill="#1dc90b" stroke="#000000" stroke-width="0" stroke-linecap="round"/><g data-paper-data="{&quot;origPos&quot;:null}"><path d="M278.14375,178.07536c0,10.22463 0.55625,15.23072 -6.14908,22.94964c-9.75703,11.23192 -21.30624,11.21704 -36.18427,11.21704c-23.74824,0 -42.33333,-9.38628 -42.33333,-30.83334c0,-21.44706 14.58508,-47.16666 38.33333,-47.16666c13.73573,0 17.53392,0.62204 28.18321,9.29746c10.64929,8.67542 8.8684,6.51535 13.17675,14.20042c4.30835,7.68507 4.97339,10.11082 4.97339,20.33544z" data-paper-data="{&quot;origPos&quot;:null}" fill="#8e4108" stroke="none" stroke-width="NaN" stroke-linecap="butt"/><path d="M278.21941,178.59362c0,0 1.48855,14.42827 -5.27974,22.33097c-9.84864,11.49935 -21.50629,11.48411 -36.52402,11.48411c-10.15904,0 -27.87773,-4.91413 -29.20413,-5.42198c-0.44214,-0.16929 4.97878,-15.90739 4.97878,-15.90739c0,0 5.97399,-14.50396 29.94522,-14.50396c23.97124,0 36.08389,2.01824 36.08389,2.01824z" data-paper-data="{&quot;origPos&quot;:null}" fill="#fcdda0" stroke="none" stroke-width="NaN" stroke-linecap="butt"/><path d="M271.449,170.78657c0,7.50188 -0.65374,12.22503 -4.38218,12.22503c-2.46729,0 -5.49297,1.50961 -7.32368,-0.86169c-1.83071,-2.3713 -1.79601,-7.05918 -1.79601,-11.36334c0,-7.50188 3.02249,-13.58337 6.75093,-13.58337c3.72844,0 6.75093,6.08149 6.75093,13.58337c0,7.50188 0.00001,-7.50188 0.00001,0z" data-paper-data="{&quot;origPos&quot;:null}" fill="#ffffff" stroke="#ffffff" stroke-width="0" stroke-linecap="butt"/><path d="M270.4383,169.1c0.7778,1.30944 1.2607,3.11608 1.2607,5.11101c0,1.99492 -0.48167,3.80279 -1.2607,5.111c-0.77903,1.30821 -1.85296,2.11923 -3.03994,2.11923c-1.18698,0 -2.26214,-0.80979 -3.03994,-2.11923c-0.7778,-1.30944 -1.2607,-3.11608 -1.2607,-5.111c0,-1.99492 0.48167,-3.8028 1.2607,-5.11101c0.77903,-1.30821 1.85296,-2.11923 3.03994,-2.11923c1.18698,0 2.26214,0.80979 3.03994,2.11923z" data-paper-data="{&quot;origPos&quot;:null}" fill="#000000" stroke="none" stroke-width="1" stroke-linecap="butt"/><path d="M241.93726,184.63413c-2.75605,0 -6.13584,1.58112 -8.18081,-0.90251c-2.04497,-2.48363 -2.0062,-7.39357 -2.0062,-11.90161c0,-7.85724 3.37623,-14.22681 7.54104,-14.22681c4.16479,0 7.54105,6.36957 7.54105,14.22681c0,7.85724 -0.73027,12.80413 -4.89507,12.80413z" data-paper-data="{&quot;origPos&quot;:null}" fill="#ffffff" stroke="#ffffff" stroke-width="0" stroke-linecap="butt"/><path d="M245.24302,170.57309c0.8228,1.33262 1.33367,3.17125 1.33367,5.20151c0,2.03025 -0.50955,3.87012 -1.33367,5.2015c-0.82412,1.33137 -1.96021,2.15675 -3.21588,2.15675c-1.25567,0 -2.39305,-0.82413 -3.21586,-2.15675c-0.8228,-1.33262 -1.33367,-3.17124 -1.33367,-5.2015c0,-2.03025 0.50955,-3.87012 1.33367,-5.20151c0.82412,-1.33136 1.96019,-2.15674 3.21586,-2.15674c1.25567,0 2.39305,0.82412 3.21588,2.15674z" data-paper-data="{&quot;origPos&quot;:null}" fill="#000000" stroke="none" stroke-width="1" stroke-linecap="butt"/><path d="M246.7085,162.57772c-1.35154,-1.12135 -1.45727,-3.71348 -3.30134,-5.26736c-1.84407,-1.5539 -6.13883,-0.02736 -8.43111,-0.22012c-2.29227,-0.19275 -3.0658,1.19602 -4.57108,1.80033c-1.50528,0.60431 -4.81539,5.11934 -6.04398,3.84518c-1.22859,-1.27417 -0.93835,-7.62992 0.5079,-8.79651c1.44625,-1.16659 3.472,-3.319 5.02819,-3.71158c1.55619,-0.39257 9.50283,-0.92419 11.32612,0.04327c1.82329,0.96744 2.72292,1.71166 5.23135,3.08891c2.50842,1.37725 4.16618,2.42064 7.11057,2.63369c2.94439,0.21304 6.62756,-1.26792 8.939,-3.16043c2.31144,-1.89251 2.32477,-3.54829 4.11397,-4.26657c1.7892,-0.71828 2.53987,-0.48536 3.9616,-0.57383c1.42173,-0.08847 2.64676,-0.81223 6.14556,-0.0865c3.49881,0.72573 5.26128,2.3703 6.80583,4.03146c1.54455,1.66116 2.8961,7.37779 1.21895,8.26977c-1.67714,0.89198 -6.0725,-4.34024 -10.71664,-3.72099c-4.64414,0.61925 -9.08106,0.03726 -11.32612,1.35067c-2.24506,1.31341 -2.25406,2.00839 -3.80924,3.16043c-1.55518,1.15204 -1.8607,1.62498 -3.30133,2.10695c-1.44063,0.48197 -2.77449,0.63321 -4.57108,0.52673c-1.79659,-0.10647 -2.96559,0.06787 -4.31713,-1.05347z" data-paper-data="{&quot;origPos&quot;:null}" fill="#000000" stroke="#000000" stroke-width="0" stroke-linecap="round"/><path d="M250.50685,162.51993c-1.17904,-1.74673 -1.77197,-5.37486 0,-8c1.77197,-2.62514 4.07776,-1.95887 5.4,0c1.32224,1.95887 1.77704,5.36734 0,8c-1.77704,2.63266 -4.22096,1.74673 -5.4,0z" data-paper-data="{&quot;origPos&quot;:null}" fill="#8e4108" stroke="none" stroke-width="0" stroke-linecap="butt"/><path d="M259.29691,155.11895c-0.01696,0.16962 -0.04693,0.32333 -0.08758,0.46263c-0.04065,0.1393 0.09751,-1.09497 0.09751,-0.06164c0,1.03333 0,2.06667 0,3.1c0,1.03333 -4.1997,9.10015 -9.4,6.5c-3.39958,-1.69979 -2.6,-7.99144 -2.6,-11c0,-3.00856 0,-2 2,-2c2,0 2,0.13555 2,2c0,1.6813 -0.18884,5.47723 0,6.2c0.46876,1.79415 0.7396,1.29218 1.2047,1.79659c0.4651,0.50441 -0.03437,-0.13727 -0.00471,-0.19659c0.02966,-0.05932 1.73279,-0.06448 2.4253,-0.51565c0.69251,-0.45117 0.42122,-1.93671 0.3747,-2.78435c-0.04652,-0.84764 0,-2.06667 0,-3.1c0,-1.03333 0.84706,-2.45421 2.199,-2.59007c1.35194,-0.13586 1.99007,0.19901 1.79107,2.18909c-0.199,1.99008 0.01697,-0.16963 0.00001,-0.00001z" data-paper-data="{&quot;origPos&quot;:null}" fill="#5a2c0a" stroke="none" stroke-width="0.5" stroke-linecap="butt"/><path d="M227.20695,196.43326l-3.26833,-10.34937c0,0 1.66636,0.15422 2.73291,0.41853c1.05929,0.26251 2.7143,0.93139 2.7143,0.93139c0,0 1.88174,0.78781 3.08613,1.78886c0.51754,0.43016 1.32612,1.87841 1.32612,1.87841l1.39812,2.63234z" data-paper-data="{&quot;origPos&quot;:null}" fill="#ffffff" stroke="#ffffff" stroke-width="0" stroke-linecap="round"/><path d="M267.1713,188.82424c0,0 0.74515,-1.18204 1.22208,-1.773c0.53951,-0.66851 1.38243,-1.45423 1.38243,-1.45423c0,0 0.98695,-0.55506 1.7523,-0.74473c0.5052,-0.1252 1.50334,-0.06207 1.50334,-0.06207l0.32557,12.50549l-8.13911,-3.63062c0,0 0.48359,-1.19844 0.92677,-2.29672c0.31916,-0.79092 1.02661,-2.54412 1.02661,-2.54412z" data-paper-data="{&quot;origPos&quot;:null}" fill="#ffffff" stroke="#ffffff" stroke-width="0" stroke-linecap="round"/><path d="M222.79393,201.02756c-0.1063,-2.5851 1.08489,-2.51266 1.60916,-2.63724c0.52427,-0.12457 3.13576,-2.32205 4.82932,-3.13288c1.69356,-0.81083 8.73875,-4.04806 10.58614,-4.72271c1.84739,-0.67466 7.28489,-0.37688 8.45797,-0.78136c1.17308,-0.40447 13.83585,2.49131 16.04268,2.92713c2.41875,0.47768 3.83738,1.69219 5.61075,2.80768c0.59112,0.37183 0.9245,0.57947 1.52014,0.94401c4.01552,2.45752 2.19473,1.08532 1.39263,3.42723c-0.8021,2.3419 -1.60336,1.31119 -4.86179,-0.68298c-3.25843,-1.99417 -4.16246,-1.90239 -7.69928,-3.13755c-3.53682,-1.23516 -12.6212,-3.70893 -18.65708,-0.59302c-6.03588,3.11591 -8.52056,2.82539 -10.05933,3.91271c-1.53877,1.08732 -3.82647,3.6145 -6.70186,4.16162c-2.87539,0.54712 -1.96315,0.09245 -2.06945,-2.49265z" data-paper-data="{&quot;origPos&quot;:null,&quot;origRot&quot;:0}" fill="#c7a96f" stroke="none" stroke-width="0.5" stroke-linecap="butt"/></g><path d="M234.37203,197.37211l2.42813,-1.51484l7.67317,-1.48897l9.3012,-0.11116l11.12737,1.2938l3.13931,0.66111l3.4542,2.78276l1.77582,3.24562l-1.39029,7.19972l-2.22998,1.542l-5.02335,2.77584l-3.59773,-0.26203l-18.06257,-2.2441l-3.21321,-1.59502l-3.45419,-2.78276l-1.27456,-2.48409l-0.72296,-3.56323z" data-paper-data="{&quot;origPos&quot;:null,&quot;index&quot;:null,&quot;origRot&quot;:0}" fill="#1dc90b" stroke="#000000" stroke-width="0" stroke-linecap="round"/></g></g></svg>