<svg version="1.1" xmlns="http://www.w3.org/2000/svg" xmlns:xlink="http://www.w3.org/1999/xlink" width="565.78014" height="417.78186" viewBox="0,0,565.78014,417.78186"><defs><linearGradient x1="-4.20633" y1="-28.89092" x2="-4.20633" y2="344.31088" gradientUnits="userSpaceOnUse" id="color-1"><stop offset="0" stop-color="#7fb8ff"/><stop offset="1" stop-color="#a0ff7b"/></linearGradient><linearGradient x1="-10.17234" y1="261.84598" x2="-10.17234" y2="302.52922" gradientUnits="userSpaceOnUse" id="color-2"><stop offset="0" stop-color="#70b562"/><stop offset="1" stop-color="#457d49"/></linearGradient><linearGradient x1="5.99882" y1="235.28887" x2="5.99882" y2="275.9721" gradientUnits="userSpaceOnUse" id="color-3"><stop offset="0" stop-color="#70b562"/><stop offset="1" stop-color="#457d49"/></linearGradient><linearGradient x1="43.35978" y1="219.4676" x2="43.35978" y2="260.15082" gradientUnits="userSpaceOnUse" id="color-4"><stop offset="0" stop-color="#70b562"/><stop offset="1" stop-color="#457d49"/></linearGradient><linearGradient x1="51.16654" y1="253.93535" x2="51.16654" y2="294.61858" gradientUnits="userSpaceOnUse" id="color-5"><stop offset="0" stop-color="#70b562"/><stop offset="1" stop-color="#457d49"/></linearGradient><linearGradient x1="24.95811" y1="261.84598" x2="24.95811" y2="302.52922" gradientUnits="userSpaceOnUse" id="color-6"><stop offset="0" stop-color="#70b562"/><stop offset="1" stop-color="#457d49"/></linearGradient><linearGradient x1="85.18173" y1="261.28091" x2="85.18173" y2="301.96418" gradientUnits="userSpaceOnUse" id="color-7"><stop offset="0" stop-color="#70b562"/><stop offset="1" stop-color="#457d49"/></linearGradient><linearGradient x1="87.41224" y1="231.89858" x2="87.41224" y2="272.58179" gradientUnits="userSpaceOnUse" id="color-8"><stop offset="0" stop-color="#70b562"/><stop offset="1" stop-color="#457d49"/></linearGradient><linearGradient x1="120.03337" y1="205.90651" x2="120.03337" y2="246.58976" gradientUnits="userSpaceOnUse" id="color-9"><stop offset="0" stop-color="#70b562"/><stop offset="1" stop-color="#457d49"/></linearGradient><linearGradient x1="149.02993" y1="226.81319" x2="149.02993" y2="267.49642" gradientUnits="userSpaceOnUse" id="color-10"><stop offset="0" stop-color="#70b562"/><stop offset="1" stop-color="#457d49"/></linearGradient><linearGradient x1="121.70625" y1="239.24418" x2="121.70625" y2="279.92741" gradientUnits="userSpaceOnUse" id="color-11"><stop offset="0" stop-color="#70b562"/><stop offset="1" stop-color="#457d49"/></linearGradient><linearGradient x1="221.80014" y1="210.99192" x2="221.80014" y2="251.67517" gradientUnits="userSpaceOnUse" id="color-12"><stop offset="0" stop-color="#70b562"/><stop offset="1" stop-color="#457d49"/></linearGradient><linearGradient x1="142.0596" y1="260.15082" x2="142.0596" y2="300.83409" gradientUnits="userSpaceOnUse" id="color-13"><stop offset="0" stop-color="#70b562"/><stop offset="1" stop-color="#457d49"/></linearGradient><linearGradient x1="184.99682" y1="239.80921" x2="184.99682" y2="280.49243" gradientUnits="userSpaceOnUse" id="color-14"><stop offset="0" stop-color="#70b562"/><stop offset="1" stop-color="#457d49"/></linearGradient><linearGradient x1="227.0976" y1="240.93932" x2="227.0976" y2="281.62252" gradientUnits="userSpaceOnUse" id="color-15"><stop offset="0" stop-color="#70b562"/><stop offset="1" stop-color="#457d49"/></linearGradient><linearGradient x1="215.10863" y1="257.89062" x2="215.10863" y2="298.57389" gradientUnits="userSpaceOnUse" id="color-16"><stop offset="0" stop-color="#70b562"/><stop offset="1" stop-color="#457d49"/></linearGradient><linearGradient x1="182.4875" y1="261.84598" x2="182.4875" y2="302.52922" gradientUnits="userSpaceOnUse" id="color-17"><stop offset="0" stop-color="#70b562"/><stop offset="1" stop-color="#457d49"/></linearGradient><linearGradient x1="117.24524" y1="269.75657" x2="117.24524" y2="310.43986" gradientUnits="userSpaceOnUse" id="color-18"><stop offset="0" stop-color="#70b562"/><stop offset="1" stop-color="#457d49"/></linearGradient><linearGradient x1="53.67586" y1="274.27697" x2="53.67586" y2="314.96019" gradientUnits="userSpaceOnUse" id="color-19"><stop offset="0" stop-color="#70b562"/><stop offset="1" stop-color="#457d49"/></linearGradient><linearGradient x1="232.67385" y1="273.7119" x2="232.67385" y2="314.39517" gradientUnits="userSpaceOnUse" id="color-20"><stop offset="0" stop-color="#70b562"/><stop offset="1" stop-color="#457d49"/></linearGradient><linearGradient x1="250.32611" y1="261.84598" x2="250.32611" y2="302.52922" gradientUnits="userSpaceOnUse" id="color-21"><stop offset="0" stop-color="#70b562"/><stop offset="1" stop-color="#457d49"/></linearGradient><linearGradient x1="266.49727" y1="235.28886" x2="266.49727" y2="275.9721" gradientUnits="userSpaceOnUse" id="color-22"><stop offset="0" stop-color="#70b562"/><stop offset="1" stop-color="#457d49"/></linearGradient><linearGradient x1="303.85823" y1="219.4676" x2="303.85823" y2="260.15082" gradientUnits="userSpaceOnUse" id="color-23"><stop offset="0" stop-color="#70b562"/><stop offset="1" stop-color="#457d49"/></linearGradient><linearGradient x1="311.665" y1="253.93535" x2="311.665" y2="294.61858" gradientUnits="userSpaceOnUse" id="color-24"><stop offset="0" stop-color="#70b562"/><stop offset="1" stop-color="#457d49"/></linearGradient><linearGradient x1="285.45656" y1="261.84598" x2="285.45656" y2="302.52922" gradientUnits="userSpaceOnUse" id="color-25"><stop offset="0" stop-color="#70b562"/><stop offset="1" stop-color="#457d49"/></linearGradient><linearGradient x1="345.68019" y1="261.28091" x2="345.68019" y2="301.96418" gradientUnits="userSpaceOnUse" id="color-26"><stop offset="0" stop-color="#70b562"/><stop offset="1" stop-color="#457d49"/></linearGradient><linearGradient x1="347.91069" y1="231.89858" x2="347.91069" y2="272.58179" gradientUnits="userSpaceOnUse" id="color-27"><stop offset="0" stop-color="#70b562"/><stop offset="1" stop-color="#457d49"/></linearGradient><linearGradient x1="380.53182" y1="205.90651" x2="380.53182" y2="246.58976" gradientUnits="userSpaceOnUse" id="color-28"><stop offset="0" stop-color="#70b562"/><stop offset="1" stop-color="#457d49"/></linearGradient><linearGradient x1="409.52839" y1="226.81319" x2="409.52839" y2="267.49642" gradientUnits="userSpaceOnUse" id="color-29"><stop offset="0" stop-color="#70b562"/><stop offset="1" stop-color="#457d49"/></linearGradient><linearGradient x1="382.2047" y1="239.24418" x2="382.2047" y2="279.92741" gradientUnits="userSpaceOnUse" id="color-30"><stop offset="0" stop-color="#70b562"/><stop offset="1" stop-color="#457d49"/></linearGradient><linearGradient x1="482.2986" y1="210.99192" x2="482.2986" y2="251.67518" gradientUnits="userSpaceOnUse" id="color-31"><stop offset="0" stop-color="#70b562"/><stop offset="1" stop-color="#457d49"/></linearGradient><linearGradient x1="402.55806" y1="260.15082" x2="402.55806" y2="300.83409" gradientUnits="userSpaceOnUse" id="color-32"><stop offset="0" stop-color="#70b562"/><stop offset="1" stop-color="#457d49"/></linearGradient><linearGradient x1="445.49527" y1="239.80922" x2="445.49527" y2="280.49243" gradientUnits="userSpaceOnUse" id="color-33"><stop offset="0" stop-color="#70b562"/><stop offset="1" stop-color="#457d49"/></linearGradient><linearGradient x1="487.59605" y1="240.93931" x2="487.59605" y2="281.62252" gradientUnits="userSpaceOnUse" id="color-34"><stop offset="0" stop-color="#70b562"/><stop offset="1" stop-color="#457d49"/></linearGradient><linearGradient x1="475.60708" y1="257.89062" x2="475.60708" y2="298.57389" gradientUnits="userSpaceOnUse" id="color-35"><stop offset="0" stop-color="#70b562"/><stop offset="1" stop-color="#457d49"/></linearGradient><linearGradient x1="442.98596" y1="261.84598" x2="442.98596" y2="302.52922" gradientUnits="userSpaceOnUse" id="color-36"><stop offset="0" stop-color="#70b562"/><stop offset="1" stop-color="#457d49"/></linearGradient><linearGradient x1="377.74369" y1="269.75657" x2="377.74369" y2="310.43986" gradientUnits="userSpaceOnUse" id="color-37"><stop offset="0" stop-color="#70b562"/><stop offset="1" stop-color="#457d49"/></linearGradient><linearGradient x1="314.17431" y1="274.27697" x2="314.17431" y2="314.96019" gradientUnits="userSpaceOnUse" id="color-38"><stop offset="0" stop-color="#70b562"/><stop offset="1" stop-color="#457d49"/></linearGradient><linearGradient x1="493.17231" y1="273.7119" x2="493.17231" y2="314.39517" gradientUnits="userSpaceOnUse" id="color-39"><stop offset="0" stop-color="#70b562"/><stop offset="1" stop-color="#457d49"/></linearGradient><linearGradient x1="-13.17234" y1="324.19309" x2="-13.17234" y2="364.87634" gradientUnits="userSpaceOnUse" id="color-40"><stop offset="0" stop-color="#70b562"/><stop offset="1" stop-color="#457d49"/></linearGradient><linearGradient x1="2.99882" y1="297.63597" x2="2.99882" y2="338.31922" gradientUnits="userSpaceOnUse" id="color-41"><stop offset="0" stop-color="#70b562"/><stop offset="1" stop-color="#457d49"/></linearGradient><linearGradient x1="40.35978" y1="281.81471" x2="40.35978" y2="322.49793" gradientUnits="userSpaceOnUse" id="color-42"><stop offset="0" stop-color="#70b562"/><stop offset="1" stop-color="#457d49"/></linearGradient><linearGradient x1="48.16654" y1="316.28245" x2="48.16654" y2="356.96571" gradientUnits="userSpaceOnUse" id="color-43"><stop offset="0" stop-color="#70b562"/><stop offset="1" stop-color="#457d49"/></linearGradient><linearGradient x1="21.95811" y1="324.19309" x2="21.95811" y2="364.87634" gradientUnits="userSpaceOnUse" id="color-44"><stop offset="0" stop-color="#70b562"/><stop offset="1" stop-color="#457d49"/></linearGradient><linearGradient x1="82.18173" y1="323.62802" x2="82.18173" y2="364.3113" gradientUnits="userSpaceOnUse" id="color-45"><stop offset="0" stop-color="#70b562"/><stop offset="1" stop-color="#457d49"/></linearGradient><linearGradient x1="84.41224" y1="294.24568" x2="84.41224" y2="334.92895" gradientUnits="userSpaceOnUse" id="color-46"><stop offset="0" stop-color="#70b562"/><stop offset="1" stop-color="#457d49"/></linearGradient><linearGradient x1="117.03337" y1="268.25358" x2="117.03337" y2="308.93685" gradientUnits="userSpaceOnUse" id="color-47"><stop offset="0" stop-color="#70b562"/><stop offset="1" stop-color="#457d49"/></linearGradient><linearGradient x1="146.02993" y1="289.16026" x2="146.02993" y2="329.84353" gradientUnits="userSpaceOnUse" id="color-48"><stop offset="0" stop-color="#70b562"/><stop offset="1" stop-color="#457d49"/></linearGradient><linearGradient x1="118.70625" y1="301.59128" x2="118.70625" y2="342.27454" gradientUnits="userSpaceOnUse" id="color-49"><stop offset="0" stop-color="#70b562"/><stop offset="1" stop-color="#457d49"/></linearGradient><linearGradient x1="218.80014" y1="273.339" x2="218.80014" y2="314.02227" gradientUnits="userSpaceOnUse" id="color-50"><stop offset="0" stop-color="#70b562"/><stop offset="1" stop-color="#457d49"/></linearGradient><linearGradient x1="139.0596" y1="322.49793" x2="139.0596" y2="363.18121" gradientUnits="userSpaceOnUse" id="color-51"><stop offset="0" stop-color="#70b562"/><stop offset="1" stop-color="#457d49"/></linearGradient><linearGradient x1="181.99682" y1="302.15632" x2="181.99682" y2="342.83957" gradientUnits="userSpaceOnUse" id="color-52"><stop offset="0" stop-color="#70b562"/><stop offset="1" stop-color="#457d49"/></linearGradient><linearGradient x1="224.0976" y1="303.28643" x2="224.0976" y2="343.96968" gradientUnits="userSpaceOnUse" id="color-53"><stop offset="0" stop-color="#70b562"/><stop offset="1" stop-color="#457d49"/></linearGradient><linearGradient x1="212.10863" y1="320.23773" x2="212.10863" y2="360.92102" gradientUnits="userSpaceOnUse" id="color-54"><stop offset="0" stop-color="#70b562"/><stop offset="1" stop-color="#457d49"/></linearGradient><linearGradient x1="179.4875" y1="324.19309" x2="179.4875" y2="364.87634" gradientUnits="userSpaceOnUse" id="color-55"><stop offset="0" stop-color="#70b562"/><stop offset="1" stop-color="#457d49"/></linearGradient><linearGradient x1="114.24524" y1="332.10368" x2="114.24524" y2="372.78697" gradientUnits="userSpaceOnUse" id="color-56"><stop offset="0" stop-color="#70b562"/><stop offset="1" stop-color="#457d49"/></linearGradient><linearGradient x1="50.67586" y1="336.62409" x2="50.67586" y2="377.30734" gradientUnits="userSpaceOnUse" id="color-57"><stop offset="0" stop-color="#70b562"/><stop offset="1" stop-color="#457d49"/></linearGradient><linearGradient x1="229.67385" y1="336.05904" x2="229.67385" y2="376.74229" gradientUnits="userSpaceOnUse" id="color-58"><stop offset="0" stop-color="#70b562"/><stop offset="1" stop-color="#457d49"/></linearGradient><linearGradient x1="247.32611" y1="324.19309" x2="247.32611" y2="364.87634" gradientUnits="userSpaceOnUse" id="color-59"><stop offset="0" stop-color="#70b562"/><stop offset="1" stop-color="#457d49"/></linearGradient><linearGradient x1="263.49727" y1="297.63597" x2="263.49727" y2="338.31922" gradientUnits="userSpaceOnUse" id="color-60"><stop offset="0" stop-color="#70b562"/><stop offset="1" stop-color="#457d49"/></linearGradient><linearGradient x1="300.85823" y1="281.81471" x2="300.85823" y2="322.49793" gradientUnits="userSpaceOnUse" id="color-61"><stop offset="0" stop-color="#70b562"/><stop offset="1" stop-color="#457d49"/></linearGradient><linearGradient x1="308.665" y1="316.28245" x2="308.665" y2="356.96571" gradientUnits="userSpaceOnUse" id="color-62"><stop offset="0" stop-color="#70b562"/><stop offset="1" stop-color="#457d49"/></linearGradient><linearGradient x1="282.45656" y1="324.19309" x2="282.45656" y2="364.87634" gradientUnits="userSpaceOnUse" id="color-63"><stop offset="0" stop-color="#70b562"/><stop offset="1" stop-color="#457d49"/></linearGradient><linearGradient x1="342.68019" y1="323.62802" x2="342.68019" y2="364.3113" gradientUnits="userSpaceOnUse" id="color-64"><stop offset="0" stop-color="#70b562"/><stop offset="1" stop-color="#457d49"/></linearGradient><linearGradient x1="344.91069" y1="294.24568" x2="344.91069" y2="334.92895" gradientUnits="userSpaceOnUse" id="color-65"><stop offset="0" stop-color="#70b562"/><stop offset="1" stop-color="#457d49"/></linearGradient><linearGradient x1="377.53182" y1="268.25358" x2="377.53182" y2="308.93685" gradientUnits="userSpaceOnUse" id="color-66"><stop offset="0" stop-color="#70b562"/><stop offset="1" stop-color="#457d49"/></linearGradient><linearGradient x1="406.52839" y1="289.16026" x2="406.52839" y2="329.84353" gradientUnits="userSpaceOnUse" id="color-67"><stop offset="0" stop-color="#70b562"/><stop offset="1" stop-color="#457d49"/></linearGradient><linearGradient x1="379.2047" y1="301.59128" x2="379.2047" y2="342.27454" gradientUnits="userSpaceOnUse" id="color-68"><stop offset="0" stop-color="#70b562"/><stop offset="1" stop-color="#457d49"/></linearGradient><linearGradient x1="479.2986" y1="273.339" x2="479.2986" y2="314.02229" gradientUnits="userSpaceOnUse" id="color-69"><stop offset="0" stop-color="#70b562"/><stop offset="1" stop-color="#457d49"/></linearGradient><linearGradient x1="399.55806" y1="322.49793" x2="399.55806" y2="363.1812" gradientUnits="userSpaceOnUse" id="color-70"><stop offset="0" stop-color="#70b562"/><stop offset="1" stop-color="#457d49"/></linearGradient><linearGradient x1="442.49527" y1="302.15632" x2="442.49527" y2="342.83957" gradientUnits="userSpaceOnUse" id="color-71"><stop offset="0" stop-color="#70b562"/><stop offset="1" stop-color="#457d49"/></linearGradient><linearGradient x1="484.59605" y1="303.28641" x2="484.59605" y2="343.96968" gradientUnits="userSpaceOnUse" id="color-72"><stop offset="0" stop-color="#70b562"/><stop offset="1" stop-color="#457d49"/></linearGradient><linearGradient x1="472.60708" y1="320.23773" x2="472.60708" y2="360.92103" gradientUnits="userSpaceOnUse" id="color-73"><stop offset="0" stop-color="#70b562"/><stop offset="1" stop-color="#457d49"/></linearGradient><linearGradient x1="439.98596" y1="324.19309" x2="439.98596" y2="364.87634" gradientUnits="userSpaceOnUse" id="color-74"><stop offset="0" stop-color="#70b562"/><stop offset="1" stop-color="#457d49"/></linearGradient><linearGradient x1="374.74369" y1="332.10368" x2="374.74369" y2="372.78698" gradientUnits="userSpaceOnUse" id="color-75"><stop offset="0" stop-color="#70b562"/><stop offset="1" stop-color="#457d49"/></linearGradient><linearGradient x1="311.17431" y1="336.62409" x2="311.17431" y2="377.30734" gradientUnits="userSpaceOnUse" id="color-76"><stop offset="0" stop-color="#70b562"/><stop offset="1" stop-color="#457d49"/></linearGradient><linearGradient x1="490.17231" y1="336.05904" x2="490.17231" y2="376.74229" gradientUnits="userSpaceOnUse" id="color-77"><stop offset="0" stop-color="#70b562"/><stop offset="1" stop-color="#457d49"/></linearGradient><linearGradient x1="1.35991" y1="290.89094" x2="1.35991" y2="388.89094" gradientUnits="userSpaceOnUse" id="color-78"><stop offset="0" stop-color="#000000" stop-opacity="0"/><stop offset="1" stop-color="#000000"/></linearGradient></defs><g transform="translate(42.89008,28.89092)"><g data-paper-data="{&quot;isPaintingLayer&quot;:true}" fill-rule="nonzero" stroke-linejoin="miter" stroke-miterlimit="10" stroke-dasharray="" stroke-dashoffset="0" style="mix-blend-mode: normal"><path d="M0.35991,344.13657v-363h482v363z" data-paper-data="{&quot;origPos&quot;:null}" fill="#ffffff" stroke="none" stroke-width="0" stroke-linecap="butt"/><path d="M-4.20633,-28.89092h497.60239v373.2018h-497.60239z" fill="url(#color-1)" stroke="none" stroke-width="1" stroke-linecap="butt"/><g data-paper-data="{&quot;origPos&quot;:null}" stroke="#4a7b50" stroke-width="2" stroke-linecap="butt"><g data-paper-data="{&quot;origPos&quot;:null}"><path d="M10.1286,267.80777c5.19875,3.6824 8.41681,8.76781 8.41681,14.37983c0,5.61203 -3.21806,10.69744 -8.41681,14.37983c-5.19875,3.6824 -12.37818,5.96179 -20.30094,5.96179c-7.92275,0 -15.10219,-2.2794 -20.30094,-5.96179c-5.19875,-3.6824 -8.41681,-8.76781 -8.41681,-14.37983c0,-5.61203 3.21806,-10.69744 8.41681,-14.37983c5.19875,-3.6824 12.37819,-5.96179 20.30094,-5.96179c7.92275,0 15.10219,2.27939 20.30094,5.96179z" data-paper-data="{&quot;origPos&quot;:null}" fill="url(#color-2)"/><path d="M26.29976,241.25065c5.19875,3.6824 8.41681,8.76781 8.41681,14.37983c0,5.61203 -3.21806,10.69744 -8.41681,14.37984c-5.19875,3.6824 -12.37818,5.96179 -20.30093,5.96179c-7.92275,0 -15.10219,-2.27939 -20.30094,-5.96179c-5.19875,-3.6824 -8.41681,-8.76781 -8.41681,-14.37984c0,-5.61203 3.21806,-10.69744 8.41681,-14.37983c5.19875,-3.6824 12.37819,-5.96179 20.30094,-5.96179c7.92275,0 15.10218,2.2794 20.30094,5.96179z" data-paper-data="{&quot;origPos&quot;:null}" fill="url(#color-3)"/><path d="M63.66071,225.42938c5.19875,3.6824 8.41681,8.76781 8.41681,14.37983c0,5.61203 -3.21806,10.69744 -8.41681,14.37984c-5.19875,3.6824 -12.37818,5.96179 -20.30093,5.96179c-7.92275,0 -15.10219,-2.27939 -20.30094,-5.96179c-5.19875,-3.6824 -8.41681,-8.76781 -8.41681,-14.37984c0,-5.61203 3.21806,-10.69744 8.41681,-14.37983c5.19875,-3.6824 12.37819,-5.96179 20.30094,-5.96179c7.92275,0 15.10218,2.2794 20.30093,5.96179z" data-paper-data="{&quot;origPos&quot;:null}" fill="url(#color-4)"/><path d="M71.46747,259.89713c5.19875,3.6824 8.41681,8.7678 8.41681,14.37983c0,5.61203 -3.21806,10.69744 -8.41681,14.37984c-5.19875,3.6824 -12.37818,5.96179 -20.30093,5.96179c-7.92275,0 -15.10218,-2.27939 -20.30093,-5.96179c-5.19875,-3.6824 -8.41682,-8.76781 -8.41682,-14.37984c0,-5.61203 3.21807,-10.69743 8.41682,-14.37983c5.19875,-3.6824 12.37818,-5.96179 20.30093,-5.96179c7.92275,0 15.10218,2.2794 20.30093,5.96179z" data-paper-data="{&quot;origPos&quot;:null}" fill="url(#color-5)"/><path d="M45.25905,267.80777c5.19875,3.6824 8.41681,8.76781 8.41681,14.37983c0,5.61203 -3.21806,10.69744 -8.41681,14.37983c-5.19875,3.6824 -12.37819,5.96179 -20.30094,5.96179c-7.92275,0 -15.10218,-2.2794 -20.30094,-5.96179c-5.19875,-3.6824 -8.41681,-8.76781 -8.41681,-14.37983c0,-5.61203 3.21806,-10.69744 8.41681,-14.37983c5.19875,-3.6824 12.37819,-5.96179 20.30094,-5.96179c7.92275,0 15.10219,2.27939 20.30094,5.96179z" data-paper-data="{&quot;origPos&quot;:null}" fill="url(#color-6)"/><path d="M105.48267,267.24268c5.19875,3.6824 8.41681,8.76781 8.41681,14.37984c0,5.61203 -3.21806,10.69744 -8.41681,14.37983c-5.19875,3.6824 -12.37819,5.96179 -20.30094,5.96179c-7.92275,0 -15.10218,-2.27939 -20.30093,-5.96179c-5.19875,-3.6824 -8.41681,-8.76781 -8.41681,-14.37983c0,-5.61203 3.21806,-10.69744 8.41681,-14.37984c5.19875,-3.6824 12.37819,-5.96179 20.30093,-5.96179c7.92275,0 15.10219,2.27939 20.30094,5.96179z" data-paper-data="{&quot;origPos&quot;:null}" fill="url(#color-7)"/><path d="M107.71318,237.86038c5.19875,3.6824 8.41681,8.76781 8.41681,14.37983c0,5.61203 -3.21806,10.69744 -8.41681,14.37984c-5.19875,3.6824 -12.37819,5.96179 -20.30093,5.96179c-7.92275,0 -15.10219,-2.27939 -20.30094,-5.96179c-5.19875,-3.6824 -8.41681,-8.76781 -8.41681,-14.37984c0,-5.61203 3.21806,-10.69744 8.41681,-14.37983c5.19875,-3.6824 12.37819,-5.96179 20.30094,-5.96179c7.92275,0 15.10218,2.27939 20.30093,5.96179z" data-paper-data="{&quot;origPos&quot;:null}" fill="url(#color-8)"/><path d="M140.3343,211.86831c5.19875,3.6824 8.41681,8.76781 8.41681,14.37983c0,5.61203 -3.21806,10.69744 -8.41681,14.37984c-5.19875,3.6824 -12.37819,5.96179 -20.30094,5.96179c-7.92275,0 -15.10219,-2.27939 -20.30094,-5.96179c-5.19875,-3.6824 -8.41681,-8.76781 -8.41681,-14.37984c0,-5.61203 3.21806,-10.69744 8.41681,-14.37983c5.19875,-3.6824 12.37819,-5.96179 20.30094,-5.96179c7.92275,0 15.10219,2.2794 20.30094,5.96179z" data-paper-data="{&quot;origPos&quot;:null}" fill="url(#color-9)"/><path d="M169.33087,232.77498c5.19875,3.6824 8.41681,8.7678 8.41681,14.37983c0,5.61203 -3.21806,10.69744 -8.41681,14.37984c-5.19875,3.6824 -12.37819,5.96179 -20.30094,5.96179c-7.92275,0 -15.10219,-2.27939 -20.30094,-5.96179c-5.19875,-3.6824 -8.41681,-8.76781 -8.41681,-14.37984c0,-5.61203 3.21806,-10.69743 8.41681,-14.37983c5.19875,-3.6824 12.37819,-5.96179 20.30094,-5.96179c7.92275,0 15.10219,2.27939 20.30094,5.96179z" data-paper-data="{&quot;origPos&quot;:null}" fill="url(#color-10)"/><path d="M142.00718,245.20597c5.19875,3.6824 8.41682,8.76781 8.41682,14.37983c0,5.61203 -3.21807,10.69744 -8.41682,14.37983c-5.19875,3.6824 -12.37819,5.96179 -20.30093,5.96179c-7.92275,0 -15.10218,-2.2794 -20.30093,-5.96179c-5.19875,-3.6824 -8.41681,-8.76781 -8.41681,-14.37983c0,-5.61203 3.21806,-10.69744 8.41681,-14.37983c5.19875,-3.6824 12.37819,-5.96179 20.30093,-5.96179c7.92275,0 15.10219,2.27939 20.30093,5.96179z" data-paper-data="{&quot;origPos&quot;:null}" fill="url(#color-11)"/><path d="M242.10108,216.95372c5.19875,3.6824 8.41681,8.7678 8.41681,14.37983c0,5.61203 -3.21806,10.69744 -8.41681,14.37984c-5.19875,3.6824 -12.37819,5.96179 -20.30094,5.96179c-7.92275,0 -15.10219,-2.27939 -20.30094,-5.96179c-5.19875,-3.6824 -8.41681,-8.76781 -8.41681,-14.37984c0,-5.61203 3.21806,-10.69743 8.41681,-14.37983c5.19875,-3.6824 12.37819,-5.96179 20.30094,-5.96179c7.92275,0 15.10219,2.2794 20.30094,5.96179z" data-paper-data="{&quot;origPos&quot;:null}" fill="url(#color-12)"/><path d="M162.36054,266.11259c5.19875,3.6824 8.41681,8.76781 8.41681,14.37984c0,5.61203 -3.21806,10.69744 -8.41681,14.37983c-5.19875,3.6824 -12.37819,5.96179 -20.30094,5.96179c-7.92275,0 -15.10219,-2.2794 -20.30094,-5.96179c-5.19875,-3.6824 -8.41681,-8.76781 -8.41681,-14.37983c0,-5.61203 3.21806,-10.69744 8.41682,-14.37984c5.19875,-3.6824 12.37819,-5.96179 20.30094,-5.96179c7.92275,0 15.10219,2.27939 20.30094,5.96179z" data-paper-data="{&quot;origPos&quot;:null}" fill="url(#color-13)"/><path d="M205.29775,245.77102c5.19875,3.6824 8.41682,8.76781 8.41682,14.37983c0,5.61203 -3.21807,10.69743 -8.41682,14.37983c-5.19875,3.6824 -12.37818,5.96179 -20.30093,5.96179c-7.92275,0 -15.10219,-2.2794 -20.30094,-5.96179c-5.19875,-3.6824 -8.41682,-8.7678 -8.41682,-14.37983c0,-5.61203 3.21807,-10.69744 8.41682,-14.37983c5.19875,-3.6824 12.37819,-5.96179 20.30094,-5.96179c7.92275,0 15.10218,2.2794 20.30093,5.96179z" data-paper-data="{&quot;origPos&quot;:null}" fill="url(#color-14)"/><path d="M247.39853,246.90109c5.19875,3.6824 8.41681,8.76781 8.41681,14.37984c0,5.61203 -3.21806,10.69743 -8.41681,14.37983c-5.19875,3.6824 -12.37819,5.96179 -20.30094,5.96179c-7.92275,0 -15.10219,-2.2794 -20.30094,-5.96179c-5.19875,-3.6824 -8.41681,-8.7678 -8.41681,-14.37983c0,-5.61203 3.21806,-10.69744 8.41681,-14.37984c5.19875,-3.6824 12.37819,-5.96179 20.30094,-5.96179c7.92275,0 15.10219,2.27939 20.30094,5.96179z" data-paper-data="{&quot;origPos&quot;:null}" fill="url(#color-15)"/><path d="M235.40957,263.85246c5.19875,3.6824 8.41681,8.76781 8.41681,14.37984c0,5.61203 -3.21806,10.69744 -8.41681,14.37983c-5.19875,3.6824 -12.37819,5.96179 -20.30094,5.96179c-7.92275,0 -15.10219,-2.27939 -20.30094,-5.96179c-5.19875,-3.6824 -8.41681,-8.76781 -8.41681,-14.37983c0,-5.61203 3.21806,-10.69744 8.41681,-14.37984c5.19875,-3.6824 12.37819,-5.96179 20.30094,-5.96179c7.92275,0 15.10219,2.27939 20.30094,5.96179z" data-paper-data="{&quot;origPos&quot;:null}" fill="url(#color-16)"/><path d="M202.78844,267.80777c5.19875,3.6824 8.41681,8.76781 8.41681,14.37983c0,5.61203 -3.21806,10.69744 -8.41681,14.37983c-5.19875,3.6824 -12.37819,5.96179 -20.30094,5.96179c-7.92275,0 -15.10219,-2.2794 -20.30094,-5.96179c-5.19875,-3.6824 -8.41681,-8.76781 -8.41681,-14.37983c0,-5.61203 3.21806,-10.69744 8.41681,-14.37983c5.19875,-3.6824 12.37819,-5.96179 20.30094,-5.96179c7.92275,0 15.10219,2.27939 20.30094,5.96179z" data-paper-data="{&quot;origPos&quot;:null}" fill="url(#color-17)"/><path d="M137.54618,275.71841c5.19875,3.6824 8.41681,8.76781 8.41681,14.37984c0,5.61203 -3.21806,10.69744 -8.41681,14.37983c-5.19875,3.6824 -12.37819,5.96179 -20.30093,5.96179c-7.92275,0 -15.10219,-2.27939 -20.30094,-5.96179c-5.19875,-3.6824 -8.41681,-8.76781 -8.41681,-14.37983c0,-5.61203 3.21806,-10.69744 8.41681,-14.37984c5.19875,-3.6824 12.37819,-5.96179 20.30094,-5.96179c7.92275,0 15.10219,2.27939 20.30093,5.96179z" data-paper-data="{&quot;origPos&quot;:null}" fill="url(#color-18)"/><path d="M73.97679,280.23874c5.19875,3.6824 8.41682,8.7678 8.41682,14.37983c0,5.61203 -3.21806,10.69744 -8.41681,14.37984c-5.19875,3.6824 -12.37819,5.96179 -20.30093,5.96179c-7.92275,0 -15.10219,-2.27939 -20.30094,-5.96179c-5.19875,-3.6824 -8.41681,-8.76781 -8.41681,-14.37984c0,-5.61203 3.21806,-10.69743 8.41681,-14.37983c5.19875,-3.6824 12.37819,-5.9618 20.30094,-5.9618c7.92275,0 15.10218,2.2794 20.30093,5.9618z" data-paper-data="{&quot;origPos&quot;:null}" fill="url(#color-19)"/><path d="M252.97479,279.67372c5.19875,3.6824 8.41681,8.76781 8.41681,14.37983c0,5.61203 -3.21806,10.69744 -8.41681,14.37983c-5.19875,3.6824 -12.37819,5.96179 -20.30094,5.96179c-7.92275,0 -15.10219,-2.2794 -20.30094,-5.96179c-5.19875,-3.6824 -8.41681,-8.76781 -8.41681,-14.37983c0,-5.61203 3.21806,-10.69744 8.41681,-14.37983c5.19875,-3.6824 12.37819,-5.96179 20.30094,-5.96179c7.92275,0 15.10219,2.27939 20.30094,5.96179z" data-paper-data="{&quot;origPos&quot;:null}" fill="url(#color-20)"/></g><g data-paper-data="{&quot;origPos&quot;:null}"><path d="M270.62705,267.80777c5.19875,3.6824 8.41681,8.7678 8.41681,14.37983c0,5.61203 -3.21806,10.69745 -8.41681,14.37984c-5.19875,3.6824 -12.37819,5.96179 -20.30094,5.96179c-7.92275,0 -15.10219,-2.27939 -20.30094,-5.96179c-5.19875,-3.6824 -8.4168,-8.76781 -8.4168,-14.37984c0,-5.61203 3.21805,-10.69743 8.4168,-14.37983c5.19875,-3.6824 12.37819,-5.96179 20.30094,-5.96179c7.92275,0 15.10219,2.27939 20.30094,5.96179z" data-paper-data="{&quot;origPos&quot;:null}" fill="url(#color-21)"/><path d="M286.79821,241.25065c5.19875,3.6824 8.41682,8.76781 8.41682,14.37983c0,5.61203 -3.21807,10.69744 -8.41682,14.37984c-5.19875,3.6824 -12.37818,5.96179 -20.30093,5.96179c-7.92275,0 -15.10219,-2.2794 -20.30094,-5.96179c-5.19875,-3.6824 -8.41681,-8.76781 -8.41681,-14.37984c0,-5.61203 3.21806,-10.69744 8.41681,-14.37983c5.19875,-3.6824 12.37819,-5.96179 20.30094,-5.96179c7.92275,0 15.10218,2.2794 20.30093,5.96179z" data-paper-data="{&quot;origPos&quot;:null}" fill="url(#color-22)"/><path d="M324.15917,225.42938c5.19875,3.6824 8.41681,8.76781 8.41681,14.37984c0,5.61203 -3.21806,10.69744 -8.41681,14.37983c-5.19875,3.6824 -12.37819,5.96179 -20.30094,5.96179c-7.92275,0 -15.10218,-2.27939 -20.30093,-5.96179c-5.19875,-3.6824 -8.41681,-8.76781 -8.41681,-14.37983c0,-5.61203 3.21806,-10.69745 8.41681,-14.37984c5.19875,-3.6824 12.37818,-5.96179 20.30093,-5.96179c7.92275,0 15.10219,2.27939 20.30094,5.96179z" data-paper-data="{&quot;origPos&quot;:null}" fill="url(#color-23)"/><path d="M331.96593,259.89713c5.19875,3.6824 8.41681,8.7678 8.41681,14.37983c0,5.61203 -3.21806,10.69744 -8.41681,14.37984c-5.19875,3.6824 -12.37818,5.96179 -20.30093,5.96179c-7.92275,0 -15.10219,-2.27939 -20.30094,-5.96179c-5.19875,-3.6824 -8.41681,-8.76781 -8.41681,-14.37984c0,-5.61203 3.21806,-10.69743 8.41681,-14.37983c5.19875,-3.6824 12.37819,-5.96179 20.30094,-5.96179c7.92275,0 15.10218,2.2794 20.30093,5.96179z" data-paper-data="{&quot;origPos&quot;:null}" fill="url(#color-24)"/><path d="M305.7575,267.80777c5.19875,3.6824 8.41681,8.7678 8.41681,14.37983c0,5.61203 -3.21806,10.69745 -8.41681,14.37984c-5.19875,3.6824 -12.37818,5.96179 -20.30093,5.96179c-7.92275,0 -15.10219,-2.27939 -20.30094,-5.96179c-5.19875,-3.6824 -8.41681,-8.76781 -8.41681,-14.37984c0,-5.61203 3.21806,-10.69743 8.41681,-14.37983c5.19875,-3.6824 12.37819,-5.96179 20.30094,-5.96179c7.92275,0 15.10218,2.27939 20.30093,5.96179z" data-paper-data="{&quot;origPos&quot;:null}" fill="url(#color-25)"/><path d="M365.98113,267.24268c5.19875,3.6824 8.41681,8.76781 8.41681,14.37984c0,5.61203 -3.21805,10.69744 -8.41681,14.37983c-5.19875,3.6824 -12.37819,5.96179 -20.30094,5.96179c-7.92275,0 -15.10219,-2.27939 -20.30094,-5.96179c-5.19875,-3.6824 -8.41681,-8.76781 -8.41681,-14.37983c0,-5.61203 3.21805,-10.69744 8.41681,-14.37984c5.19875,-3.6824 12.37819,-5.96179 20.30094,-5.96179c7.92275,0 15.10219,2.27939 20.30094,5.96179z" data-paper-data="{&quot;origPos&quot;:null}" fill="url(#color-26)"/><path d="M368.21163,237.86038c5.19875,3.6824 8.41681,8.76781 8.41681,14.37984c0,5.61203 -3.21806,10.69744 -8.41681,14.37983c-5.19875,3.6824 -12.37819,5.96179 -20.30094,5.96179c-7.92275,0 -15.10218,-2.27939 -20.30093,-5.96179c-5.19875,-3.6824 -8.41681,-8.76781 -8.41681,-14.37983c0,-5.61203 3.21806,-10.69744 8.41681,-14.37984c5.19875,-3.6824 12.37818,-5.96179 20.30093,-5.96179c7.92275,0 15.10219,2.27939 20.30094,5.96179z" data-paper-data="{&quot;origPos&quot;:null}" fill="url(#color-27)"/><path d="M400.83276,211.86831c5.19875,3.6824 8.41681,8.76781 8.41681,14.37983c0,5.61203 -3.21806,10.69743 -8.41681,14.37983c-5.19875,3.6824 -12.37819,5.96179 -20.30094,5.96179c-7.92275,0 -15.10219,-2.2794 -20.30094,-5.96179c-5.19875,-3.6824 -8.41681,-8.7678 -8.41681,-14.37983c0,-5.61203 3.21805,-10.69744 8.41681,-14.37983c5.19875,-3.6824 12.37819,-5.96179 20.30094,-5.96179c7.92275,0 15.10219,2.2794 20.30094,5.96179z" data-paper-data="{&quot;origPos&quot;:null}" fill="url(#color-28)"/><path d="M429.82932,232.77498c5.19875,3.6824 8.41681,8.7678 8.41681,14.37983c0,5.61203 -3.21806,10.69744 -8.41681,14.37984c-5.19875,3.6824 -12.37818,5.96179 -20.30093,5.96179c-7.92275,0 -15.10219,-2.27939 -20.30094,-5.96179c-5.19875,-3.6824 -8.41681,-8.76781 -8.41681,-14.37984c0,-5.61203 3.21806,-10.69743 8.41681,-14.37983c5.19875,-3.6824 12.37819,-5.96179 20.30094,-5.96179c7.92275,0 15.10218,2.27939 20.30093,5.96179z" data-paper-data="{&quot;origPos&quot;:null}" fill="url(#color-29)"/><path d="M402.50564,245.20597c5.19875,3.6824 8.41681,8.7678 8.41681,14.37983c0,5.61203 -3.21806,10.69745 -8.41681,14.37984c-5.19875,3.6824 -12.37819,5.96179 -20.30094,5.96179c-7.92275,0 -15.10219,-2.27939 -20.30094,-5.96179c-5.19875,-3.6824 -8.41681,-8.76781 -8.41681,-14.37984c0,-5.61203 3.21805,-10.69743 8.41681,-14.37983c5.19875,-3.6824 12.37819,-5.96179 20.30094,-5.96179c7.92275,0 15.10219,2.27939 20.30094,5.96179z" data-paper-data="{&quot;origPos&quot;:null}" fill="url(#color-30)"/><path d="M502.59953,216.95372c5.19875,3.6824 8.41681,8.7678 8.41681,14.37983c0,5.61203 -3.21807,10.69744 -8.41681,14.37983c-5.19875,3.6824 -12.37818,5.9618 -20.30093,5.9618c-7.92275,0 -15.10219,-2.2794 -20.30094,-5.9618c-5.19875,-3.6824 -8.41681,-8.76781 -8.41681,-14.37983c0,-5.61203 3.21806,-10.69743 8.41681,-14.37983c5.19875,-3.6824 12.37819,-5.96179 20.30094,-5.96179c7.92275,0 15.10218,2.2794 20.30093,5.96179z" data-paper-data="{&quot;origPos&quot;:null}" fill="url(#color-31)"/><path d="M422.85899,266.11259c5.19875,3.6824 8.41681,8.76781 8.41681,14.37984c0,5.61203 -3.21806,10.69744 -8.41681,14.37983c-5.19875,3.6824 -12.37818,5.96179 -20.30093,5.96179c-7.92275,0 -15.10219,-2.27939 -20.30094,-5.96179c-5.19875,-3.6824 -8.41681,-8.76781 -8.41681,-14.37983c0,-5.61203 3.21805,-10.69744 8.41681,-14.37984c5.19875,-3.6824 12.37819,-5.96179 20.30094,-5.96179c7.92275,0 15.10218,2.27939 20.30093,5.96179z" data-paper-data="{&quot;origPos&quot;:null}" fill="url(#color-32)"/><path d="M465.79621,245.77102c5.19875,3.6824 8.41681,8.76781 8.41681,14.37983c0,5.61203 -3.21806,10.69743 -8.41681,14.37983c-5.19875,3.6824 -12.37818,5.96179 -20.30093,5.96179c-7.92275,0 -15.10219,-2.2794 -20.30094,-5.96179c-5.19875,-3.6824 -8.41681,-8.7678 -8.41681,-14.37983c0,-5.61203 3.21806,-10.69744 8.41681,-14.37983c5.19875,-3.6824 12.37819,-5.96179 20.30094,-5.96179c7.92275,0 15.10218,2.27939 20.30093,5.96179z" data-paper-data="{&quot;origPos&quot;:null}" fill="url(#color-33)"/><path d="M507.89698,246.90111c5.19875,3.6824 8.41682,8.76781 8.41682,14.37983c0,5.61203 -3.21807,10.69743 -8.41682,14.37983c-5.19875,3.6824 -12.37818,5.96179 -20.30093,5.96179c-7.92275,0 -15.10218,-2.2794 -20.30093,-5.96179c-5.19875,-3.6824 -8.41681,-8.7678 -8.41681,-14.37983c0,-5.61203 3.21806,-10.69744 8.41681,-14.37983c5.19875,-3.6824 12.37818,-5.9618 20.30093,-5.9618c7.92275,0 15.10218,2.2794 20.30093,5.9618z" data-paper-data="{&quot;origPos&quot;:null}" fill="url(#color-34)"/><path d="M495.90802,263.85246c5.19875,3.6824 8.41681,8.76781 8.41681,14.37983c0,5.61203 -3.21806,10.69744 -8.41681,14.37984c-5.19875,3.6824 -12.37819,5.96179 -20.30094,5.96179c-7.92275,0 -15.10219,-2.2794 -20.30094,-5.96179c-5.19875,-3.6824 -8.41681,-8.76781 -8.41681,-14.37984c0,-5.61203 3.21805,-10.69744 8.41681,-14.37983c5.19875,-3.6824 12.37819,-5.96179 20.30094,-5.96179c7.92275,0 15.10219,2.27939 20.30094,5.96179z" data-paper-data="{&quot;origPos&quot;:null}" fill="url(#color-35)"/><path d="M463.28689,267.80777c5.19875,3.6824 8.41681,8.7678 8.41681,14.37983c0,5.61203 -3.21806,10.69745 -8.41681,14.37984c-5.19875,3.6824 -12.37819,5.96179 -20.30094,5.96179c-7.92275,0 -15.10219,-2.27939 -20.30094,-5.96179c-5.19875,-3.6824 -8.41681,-8.76781 -8.41681,-14.37984c0,-5.61203 3.21806,-10.69743 8.41681,-14.37983c5.19875,-3.6824 12.37819,-5.96179 20.30094,-5.96179c7.92275,0 15.10219,2.27939 20.30094,5.96179z" data-paper-data="{&quot;origPos&quot;:null}" fill="url(#color-36)"/><path d="M398.04463,275.71841c5.19875,3.6824 8.41682,8.76781 8.41682,14.37983c0,5.61203 -3.21807,10.69743 -8.41682,14.37983c-5.19875,3.6824 -12.37818,5.9618 -20.30093,5.9618c-7.92275,0 -15.10218,-2.2794 -20.30093,-5.9618c-5.19875,-3.6824 -8.41681,-8.7678 -8.41681,-14.37983c0,-5.61203 3.21806,-10.69744 8.41681,-14.37983c5.19875,-3.6824 12.37818,-5.96179 20.30093,-5.96179c7.92275,0 15.10218,2.27939 20.30093,5.96179z" data-paper-data="{&quot;origPos&quot;:null}" fill="url(#color-37)"/><path d="M334.47524,280.23874c5.19875,3.6824 8.41682,8.7678 8.41682,14.37983c0,5.61203 -3.21807,10.69744 -8.41682,14.37984c-5.19875,3.6824 -12.37818,5.96179 -20.30093,5.96179c-7.92275,0 -15.10219,-2.27939 -20.30094,-5.96179c-5.19875,-3.6824 -8.41681,-8.76781 -8.41681,-14.37984c0,-5.61203 3.21806,-10.69743 8.41681,-14.37983c5.19875,-3.6824 12.37819,-5.9618 20.30094,-5.9618c7.92275,0 15.10218,2.2794 20.30093,5.9618z" data-paper-data="{&quot;origPos&quot;:null}" fill="url(#color-38)"/><path d="M513.47325,279.67372c5.19875,3.6824 8.41681,8.7678 8.41681,14.37983c0,5.61203 -3.21806,10.69745 -8.41681,14.37984c-5.19875,3.6824 -12.37819,5.96179 -20.30094,5.96179c-7.92275,0 -15.10219,-2.27939 -20.30094,-5.96179c-5.19875,-3.6824 -8.41681,-8.76781 -8.41681,-14.37984c0,-5.61203 3.21805,-10.69743 8.41681,-14.37983c5.19875,-3.6824 12.37819,-5.96179 20.30094,-5.96179c7.92275,0 15.10219,2.27939 20.30094,5.96179z" data-paper-data="{&quot;origPos&quot;:null}" fill="url(#color-39)"/></g></g><path d="M288.8496,345.85718h-113.06231v-111.13691h113.06231z" data-paper-data="{&quot;origPos&quot;:null}" fill="#a88c51" stroke="#706035" stroke-width="2.22445" stroke-linecap="butt"/><path d="M287.48741,242.78666c-7.22104,-0.85059 -13.65742,-4.81472 -21.1141,-4.92947c-10.92072,0.11476 -21.0691,4.97333 -32.01159,4.92947c-8.52061,-0.03494 -15.6639,-6.19141 -24.17902,-5.82578c-4.4721,0.37735 -2.76936,6.86359 -7.15148,7.61829c-6.43369,1.11048 -12.4015,-4.19717 -18.73027,-3.36099c-6.61614,0.88635 -14.36702,11.69624 -15.3247,8.42492c-3.29921,-7.5959 4.52528,-20.2323 6.81104,-30.15937c0.57069,-2.48179 -0.29835,-2.40736 0,-3.58502c0.16618,-0.65787 -1.10613,-1.51022 1.36218,-1.7925c9.87181,-1.12935 19.9779,-1.28081 29.96831,-1.79262c24.93911,-1.27894 49.91906,-4.09952 74.92078,-3.58502c6.25113,0.12813 8.09962,3.66661 12.25979,5.37763c3.10172,1.27532 8.37889,1.30227 9.5354,3.58501c2.87282,5.66977 3.33331,12.09059 1.36219,17.92529c-0.97395,2.88413 -5.71041,4.72515 -9.53541,6.27384c-2.34983,0.95187 -5.46108,1.21353 -9.53541,0.8963z" data-paper-data="{&quot;origPos&quot;:null}" fill="#7fb579" stroke="#5b875d" stroke-width="2.22445" stroke-linecap="round"/><g stroke="none" stroke-width="1" stroke-linecap="butt"><path d="M96.12767,17.31262c14.72903,0 28.07617,4.18193 37.74106,10.93792c9.66489,6.75599 15.64753,16.08603 15.64753,26.38226c0,10.29623 -5.98263,19.62627 -15.64753,26.38226c-9.66489,6.75599 -23.01203,10.93792 -37.74106,10.93792c-14.72903,0 -28.07618,-4.18193 -37.74107,-10.93792c-9.66489,-6.75599 -15.64752,-16.08603 -15.64752,-26.38225c0,-10.29623 5.98263,-19.62627 15.64752,-26.38226c9.66489,-6.75599 23.01204,-10.93792 37.74107,-10.93792z" fill="#ffffff"/><path d="M162.47466,0.72592c14.72903,0 28.07618,4.18193 37.74107,10.93792c9.66489,6.75599 15.64752,16.08603 15.64752,26.38226c0,10.29623 -5.98263,19.62627 -15.64752,26.38226c-9.66489,6.75599 -23.01204,10.93792 -37.74107,10.93792c-14.72903,0 -28.07618,-4.18193 -37.74107,-10.93792c-9.66489,-6.75599 -15.64752,-16.08603 -15.64752,-26.38226c0,-10.29622 5.98263,-19.62627 15.64752,-26.38225c9.66489,-6.75599 23.01204,-10.93792 37.74107,-10.93792z" fill="#ffffff"/><path d="M108.0494,33.38108c1.28754,0 2.4538,1.13308 3.29765,2.96281c0.84489,1.82973 1.36737,4.35609 1.36737,7.14474c0,2.78865 -0.52248,5.31502 -1.36737,7.14474c-0.84385,1.82972 -2.01011,2.96281 -3.29765,2.96281c-1.28754,0 -2.4538,-1.13308 -3.29765,-2.96281c-0.84489,-1.82972 -1.36737,-4.35609 -1.36737,-7.14474c0,-2.78865 0.52248,-5.31501 1.36737,-7.14474c0.84385,-1.82973 2.01011,-2.96281 3.29765,-2.96281z" fill="#000000"/><path d="M129.8195,32.86274c1.28754,0 2.4538,1.13308 3.29765,2.9628c0.84489,1.82973 1.36737,4.3561 1.36737,7.14475c0,2.78865 -0.52248,5.31502 -1.36737,7.14474c-0.84385,1.82972 -2.01011,2.9628 -3.29765,2.9628c-1.28754,0 -2.4538,-1.13308 -3.29765,-2.9628c-0.84489,-1.82972 -1.36737,-4.35609 -1.36737,-7.14474c0,-2.78865 0.52248,-5.31502 1.36737,-7.14475c0.84385,-1.82973 2.01011,-2.9628 3.29765,-2.9628z" fill="#000000"/></g><path d="M-5.13825,164.96669h119.21724v179.3442h-119.21724z" data-paper-data="{&quot;origPos&quot;:null}" fill="#a88c51" stroke="#706035" stroke-width="2" stroke-linecap="butt"/><path d="M-10.32161,145.26986c0,-1.6452 3.51328,0.55669 5.18336,0c1.85253,-0.61785 2.3999,-3.2738 4.14669,-4.14668c3.22405,-1.61202 6.94778,-1.97072 10.36672,-3.11002c0.85525,-0.28509 0.95788,-0.88843 2.07334,-1.03667c4.46183,-0.59505 8.97655,-0.9444 13.47674,-1.03667c12.42555,-0.25399 24.89567,-0.29545 37.32018,0c3.10587,0.0736 4.1301,0.82726 6.22003,1.03667c8.27264,0.82727 16.62096,1.12065 24.88012,2.07335c2.06505,0.23844 1.31657,0.88531 2.07334,1.03667c2.72956,0.54632 5.57626,0.43333 8.29338,1.03667c3.51847,0.78165 7.36763,1.11131 10.36671,3.11002c3.45834,2.30556 5.76805,6.02824 8.29337,9.33004c1.97797,2.5865 3.72683,5.38033 5.18335,8.29337c0.36387,0.72774 0,1.38291 0,2.07334c0,1.72606 0.50797,3.53401 0,5.18336c-0.90812,2.9514 -2.03498,6.04069 -4.14668,8.29337c-3.21161,3.42516 -7.12194,6.3662 -11.40339,8.29337c-2.85085,1.28236 -6.23247,1.4586 -9.33004,1.03668c-4.65258,-0.63444 -9.14966,-2.32422 -13.47673,-4.14669c-2.29416,-0.96618 -3.76208,-3.75378 -6.22003,-4.14668c-6.47713,-1.03667 -13.26525,-1.28651 -19.69676,0c-4.24103,0.84799 -7.2339,5.06933 -11.40339,6.22003c-6.02721,1.66282 -12.43073,2.60723 -18.66009,2.07334c-6.0946,-0.52248 -11.62523,-3.98393 -17.62342,-5.18336c-2.70778,-0.54115 -5.59077,-0.56913 -8.29337,0c-3.95386,0.83245 -7.89633,5.60839 -11.40339,4.14668c-2.71297,-1.12997 -0.94959,-6.20552 -1.03667,-9.33005c-0.25917,-9.31761 1.48452,-18.78863 0,-27.99013c-0.37113,-2.30038 -5.18336,-3.53816 -5.18336,-4.14668z" data-paper-data="{&quot;origPos&quot;:null}" fill="#7fb579" stroke="#5b875d" stroke-width="2" stroke-linecap="round"/><path d="M406.4204,215.7636h86.04374v128.54728h-86.04374z" data-paper-data="{&quot;origPos&quot;:null}" fill="#a88c51" stroke="#706035" stroke-width="2" stroke-linecap="butt"/><path d="M408.49374,225.09363c-3.10068,0.36698 -5.46845,0.06427 -7.25671,-1.03667c-2.91098,-1.79137 -6.51548,-3.92069 -7.2567,-7.2567c-1.50007,-6.74873 -1.14967,-14.17544 1.03667,-20.73343c0.88013,-2.6404 4.8962,-2.6715 7.2567,-4.14669c3.166,-1.97901 4.57276,-6.07179 9.33005,-6.22003c19.02707,-0.59505 38.03755,2.66736 57.01694,4.14669c7.60295,0.59194 15.29402,0.76713 22.80678,2.07334c1.87845,0.32655 0.91019,1.31243 1.03667,2.07334c0.22703,1.36219 -0.43437,1.27614 0,4.14668c1.73953,11.48218 7.69418,26.09822 5.18336,34.88401c-0.72878,3.78385 -6.62744,-8.71944 -11.66255,-9.74471c-4.81637,-0.96722 -9.35804,5.17195 -14.25424,3.88752c-3.33497,-0.87288 -2.03913,-8.37527 -5.44253,-8.81171c-6.48023,-0.42296 -11.91654,6.69794 -18.40092,6.73837c-8.32758,0.05079 -16.05079,-5.569 -24.36178,-5.7017c-5.67474,0.1327 -10.57302,4.71789 -16.06841,5.7017z" data-paper-data="{&quot;origPos&quot;:null}" fill="#7fb579" stroke="#5b875d" stroke-width="2" stroke-linecap="round"/><g data-paper-data="{&quot;origPos&quot;:null}" stroke="#4a7b50" stroke-width="2" stroke-linecap="butt"><g data-paper-data="{&quot;origPos&quot;:null}"><path d="M7.1286,330.15488c5.19875,3.6824 8.41681,8.76781 8.41681,14.37983c0,5.61203 -3.21806,10.69744 -8.41681,14.37983c-5.19875,3.6824 -12.37818,5.96179 -20.30093,5.96179c-7.92275,0 -15.10219,-2.2794 -20.30094,-5.96179c-5.19875,-3.6824 -8.41681,-8.76781 -8.41681,-14.37983c0,-5.61203 3.21806,-10.69744 8.41681,-14.37983c5.19875,-3.6824 12.37819,-5.96179 20.30094,-5.96179c7.92275,0 15.10218,2.27939 20.30094,5.96179z" data-paper-data="{&quot;origPos&quot;:null}" fill="url(#color-40)"/><path d="M23.29976,303.59776c5.19875,3.6824 8.41681,8.76781 8.41681,14.37983c0,5.61203 -3.21806,10.69744 -8.41681,14.37984c-5.19875,3.6824 -12.37818,5.96179 -20.30093,5.96179c-7.92275,0 -15.10219,-2.27939 -20.30094,-5.96179c-5.19875,-3.6824 -8.41681,-8.76781 -8.41681,-14.37984c0,-5.61203 3.21806,-10.69744 8.41681,-14.37983c5.19875,-3.6824 12.37819,-5.96179 20.30094,-5.96179c7.92275,0 15.10218,2.2794 20.30094,5.96179z" data-paper-data="{&quot;origPos&quot;:null}" fill="url(#color-41)"/><path d="M60.66071,287.77648c5.19875,3.6824 8.41681,8.76781 8.41681,14.37983c0,5.61203 -3.21806,10.69744 -8.41681,14.37984c-5.19875,3.6824 -12.37819,5.96179 -20.30094,5.96179c-7.92275,0 -15.10219,-2.27939 -20.30094,-5.96179c-5.19875,-3.6824 -8.41681,-8.76781 -8.41681,-14.37984c0,-5.61203 3.21806,-10.69744 8.41681,-14.37983c5.19875,-3.6824 12.37819,-5.96179 20.30094,-5.96179c7.92275,0 15.10219,2.2794 20.30094,5.96179z" data-paper-data="{&quot;origPos&quot;:null}" fill="url(#color-42)"/><path d="M68.46747,322.24424c5.19875,3.6824 8.41681,8.7678 8.41681,14.37983c0,5.61203 -3.21806,10.69744 -8.41681,14.37984c-5.19875,3.6824 -12.37818,5.96179 -20.30093,5.96179c-7.92275,0 -15.10218,-2.27939 -20.30093,-5.96179c-5.19875,-3.6824 -8.41681,-8.76781 -8.41681,-14.37984c0,-5.61203 3.21806,-10.69743 8.41682,-14.37983c5.19875,-3.6824 12.37818,-5.96179 20.30094,-5.96179c7.92275,0 15.10218,2.2794 20.30093,5.96179z" data-paper-data="{&quot;origPos&quot;:null}" fill="url(#color-43)"/><path d="M42.25905,330.15488c5.19875,3.6824 8.41681,8.76781 8.41681,14.37983c0,5.61203 -3.21806,10.69744 -8.41681,14.37983c-5.19875,3.6824 -12.37819,5.96179 -20.30094,5.96179c-7.92275,0 -15.10218,-2.2794 -20.30094,-5.96179c-5.19875,-3.6824 -8.41681,-8.76781 -8.41681,-14.37983c0,-5.61203 3.21806,-10.69744 8.41681,-14.37983c5.19875,-3.6824 12.37819,-5.96179 20.30094,-5.96179c7.92275,0 15.10219,2.27939 20.30094,5.96179z" data-paper-data="{&quot;origPos&quot;:null}" fill="url(#color-44)"/><path d="M102.48267,329.58979c5.19875,3.6824 8.41681,8.76781 8.41681,14.37984c0,5.61203 -3.21806,10.69744 -8.41681,14.37983c-5.19875,3.6824 -12.37819,5.96179 -20.30094,5.96179c-7.92275,0 -15.10218,-2.27939 -20.30093,-5.96179c-5.19875,-3.6824 -8.41681,-8.76781 -8.41681,-14.37983c0,-5.61203 3.21806,-10.69744 8.41681,-14.37984c5.19875,-3.6824 12.37819,-5.96179 20.30093,-5.96179c7.92275,0 15.10219,2.27939 20.30094,5.96179z" data-paper-data="{&quot;origPos&quot;:null}" fill="url(#color-45)"/><path d="M104.71318,300.20745c5.19875,3.6824 8.41681,8.76781 8.41681,14.37983c0,5.61203 -3.21806,10.69744 -8.41681,14.37984c-5.19875,3.6824 -12.37819,5.96179 -20.30093,5.96179c-7.92275,0 -15.10219,-2.27939 -20.30094,-5.96179c-5.19875,-3.6824 -8.41681,-8.76781 -8.41681,-14.37984c0,-5.61203 3.21806,-10.69744 8.41681,-14.37983c5.19875,-3.6824 12.37819,-5.96179 20.30094,-5.96179c7.92275,0 15.10218,2.27939 20.30093,5.96179z" data-paper-data="{&quot;origPos&quot;:null}" fill="url(#color-46)"/><path d="M137.3343,274.21542c5.19875,3.6824 8.41681,8.76781 8.41681,14.37983c0,5.61203 -3.21806,10.69744 -8.41681,14.37984c-5.19875,3.6824 -12.37819,5.96179 -20.30094,5.96179c-7.92275,0 -15.10219,-2.27939 -20.30094,-5.96179c-5.19875,-3.6824 -8.41681,-8.76781 -8.41681,-14.37984c0,-5.61203 3.21806,-10.69744 8.41681,-14.37983c5.19875,-3.6824 12.37819,-5.96179 20.30094,-5.96179c7.92275,0 15.10219,2.2794 20.30094,5.96179z" data-paper-data="{&quot;origPos&quot;:null}" fill="url(#color-47)"/><path d="M166.33087,295.12205c5.19875,3.6824 8.41681,8.7678 8.41681,14.37983c0,5.61203 -3.21806,10.69744 -8.41681,14.37984c-5.19875,3.6824 -12.37819,5.96179 -20.30094,5.96179c-7.92275,0 -15.10219,-2.27939 -20.30094,-5.96179c-5.19875,-3.6824 -8.41681,-8.76781 -8.41681,-14.37984c0,-5.61203 3.21806,-10.69743 8.41681,-14.37983c5.19875,-3.6824 12.37819,-5.96179 20.30094,-5.96179c7.92275,0 15.10219,2.27939 20.30094,5.96179z" data-paper-data="{&quot;origPos&quot;:null}" fill="url(#color-48)"/><path d="M139.00718,307.55307c5.19875,3.6824 8.41682,8.76781 8.41682,14.37983c0,5.61203 -3.21807,10.69744 -8.41682,14.37983c-5.19875,3.6824 -12.37819,5.96179 -20.30093,5.96179c-7.92275,0 -15.10218,-2.2794 -20.30093,-5.96179c-5.19875,-3.6824 -8.41681,-8.76781 -8.41681,-14.37983c0,-5.61203 3.21806,-10.69744 8.41681,-14.37983c5.19875,-3.6824 12.37819,-5.96179 20.30093,-5.96179c7.92275,0 15.10219,2.27939 20.30093,5.96179z" data-paper-data="{&quot;origPos&quot;:null}" fill="url(#color-49)"/><path d="M239.10108,279.30082c5.19875,3.6824 8.41681,8.7678 8.41681,14.37983c0,5.61203 -3.21806,10.69744 -8.41681,14.37984c-5.19875,3.6824 -12.37819,5.96179 -20.30094,5.96179c-7.92275,0 -15.10219,-2.27939 -20.30094,-5.96179c-5.19875,-3.6824 -8.41681,-8.76781 -8.41681,-14.37984c0,-5.61203 3.21806,-10.69743 8.41681,-14.37983c5.19875,-3.6824 12.37819,-5.96179 20.30094,-5.96179c7.92275,0 15.10219,2.2794 20.30094,5.96179z" data-paper-data="{&quot;origPos&quot;:null}" fill="url(#color-50)"/><path d="M159.36054,328.4597c5.19875,3.6824 8.41681,8.76781 8.41681,14.37984c0,5.61203 -3.21806,10.69744 -8.41681,14.37983c-5.19875,3.6824 -12.37819,5.96179 -20.30094,5.96179c-7.92275,0 -15.10219,-2.2794 -20.30094,-5.96179c-5.19875,-3.6824 -8.41681,-8.76781 -8.41681,-14.37983c0,-5.61203 3.21806,-10.69744 8.41682,-14.37984c5.19875,-3.6824 12.37819,-5.96179 20.30094,-5.96179c7.92275,0 15.10219,2.27939 20.30094,5.96179z" data-paper-data="{&quot;origPos&quot;:null}" fill="url(#color-51)"/><path d="M202.29775,308.11809c5.19875,3.6824 8.41682,8.76781 8.41682,14.37983c0,5.61203 -3.21807,10.69743 -8.41682,14.37983c-5.19875,3.6824 -12.37818,5.96179 -20.30093,5.96179c-7.92275,0 -15.10219,-2.2794 -20.30094,-5.96179c-5.19875,-3.6824 -8.41682,-8.7678 -8.41682,-14.37983c0,-5.61203 3.21807,-10.69744 8.41682,-14.37983c5.19875,-3.6824 12.37819,-5.96179 20.30094,-5.96179c7.92275,0 15.10218,2.2794 20.30093,5.96179z" data-paper-data="{&quot;origPos&quot;:null}" fill="url(#color-52)"/><path d="M244.39853,309.2482c5.19875,3.6824 8.41681,8.76781 8.41681,14.37984c0,5.61203 -3.21806,10.69743 -8.41681,14.37983c-5.19875,3.6824 -12.37819,5.96179 -20.30094,5.96179c-7.92275,0 -15.10219,-2.2794 -20.30094,-5.96179c-5.19875,-3.6824 -8.41681,-8.7678 -8.41681,-14.37983c0,-5.61203 3.21806,-10.69744 8.41681,-14.37984c5.19875,-3.6824 12.37819,-5.96179 20.30094,-5.96179c7.92275,0 15.10219,2.27939 20.30094,5.96179z" data-paper-data="{&quot;origPos&quot;:null}" fill="url(#color-53)"/><path d="M232.40957,326.19957c5.19875,3.6824 8.41681,8.76781 8.41681,14.37984c0,5.61203 -3.21806,10.69744 -8.41681,14.37983c-5.19875,3.6824 -12.37819,5.96179 -20.30094,5.96179c-7.92275,0 -15.10219,-2.27939 -20.30094,-5.96179c-5.19875,-3.6824 -8.41681,-8.76781 -8.41681,-14.37983c0,-5.61203 3.21806,-10.69744 8.41681,-14.37984c5.19875,-3.6824 12.37819,-5.96179 20.30094,-5.96179c7.92275,0 15.10219,2.27939 20.30094,5.96179z" data-paper-data="{&quot;origPos&quot;:null}" fill="url(#color-54)"/><path d="M199.78844,330.15488c5.19875,3.6824 8.41681,8.76781 8.41681,14.37983c0,5.61203 -3.21806,10.69744 -8.41681,14.37983c-5.19875,3.6824 -12.37819,5.96179 -20.30094,5.96179c-7.92275,0 -15.10219,-2.2794 -20.30094,-5.96179c-5.19875,-3.6824 -8.41681,-8.76781 -8.41681,-14.37983c0,-5.61203 3.21806,-10.69744 8.41681,-14.37983c5.19875,-3.6824 12.37819,-5.96179 20.30094,-5.96179c7.92275,0 15.10219,2.27939 20.30094,5.96179z" data-paper-data="{&quot;origPos&quot;:null}" fill="url(#color-55)"/><path d="M134.54618,338.06552c5.19875,3.6824 8.41681,8.76781 8.41681,14.37984c0,5.61203 -3.21806,10.69744 -8.41681,14.37983c-5.19875,3.6824 -12.37819,5.96179 -20.30093,5.96179c-7.92275,0 -15.10219,-2.27939 -20.30094,-5.96179c-5.19875,-3.6824 -8.41681,-8.76781 -8.41681,-14.37983c0,-5.61203 3.21806,-10.69744 8.41681,-14.37984c5.19875,-3.6824 12.37819,-5.96179 20.30094,-5.96179c7.92275,0 15.10219,2.27939 20.30093,5.96179z" data-paper-data="{&quot;origPos&quot;:null}" fill="url(#color-56)"/><path d="M70.97679,342.58588c5.19875,3.6824 8.41682,8.7678 8.41682,14.37983c0,5.61203 -3.21806,10.69744 -8.41681,14.37984c-5.19875,3.6824 -12.37818,5.96179 -20.30093,5.96179c-7.92275,0 -15.10219,-2.27939 -20.30094,-5.96179c-5.19875,-3.6824 -8.41681,-8.76781 -8.41681,-14.37984c0,-5.61203 3.21806,-10.69743 8.41681,-14.37983c5.19875,-3.6824 12.37819,-5.9618 20.30094,-5.9618c7.92275,0 15.10218,2.2794 20.30093,5.9618z" data-paper-data="{&quot;origPos&quot;:null}" fill="url(#color-57)"/><path d="M249.97479,342.02083c5.19875,3.6824 8.41681,8.76781 8.41681,14.37983c0,5.61203 -3.21806,10.69744 -8.41681,14.37983c-5.19875,3.6824 -12.37819,5.96179 -20.30094,5.96179c-7.92275,0 -15.10219,-2.2794 -20.30094,-5.96179c-5.19875,-3.6824 -8.41681,-8.76781 -8.41681,-14.37983c0,-5.61203 3.21806,-10.69744 8.41681,-14.37983c5.19875,-3.6824 12.37819,-5.96179 20.30094,-5.96179c7.92275,0 15.10219,2.27939 20.30094,5.96179z" data-paper-data="{&quot;origPos&quot;:null}" fill="url(#color-58)"/></g><g data-paper-data="{&quot;origPos&quot;:null}"><path d="M267.62705,330.15488c5.19875,3.6824 8.41681,8.7678 8.41681,14.37983c0,5.61203 -3.21806,10.69745 -8.41681,14.37984c-5.19875,3.6824 -12.37819,5.96179 -20.30094,5.96179c-7.92275,0 -15.10219,-2.27939 -20.30094,-5.96179c-5.19875,-3.6824 -8.4168,-8.76781 -8.4168,-14.37984c0,-5.61203 3.21805,-10.69743 8.4168,-14.37983c5.19875,-3.6824 12.37819,-5.96179 20.30094,-5.96179c7.92275,0 15.10219,2.27939 20.30094,5.96179z" data-paper-data="{&quot;origPos&quot;:null}" fill="url(#color-59)"/><path d="M283.79821,303.59776c5.19875,3.6824 8.41682,8.76781 8.41682,14.37983c0,5.61203 -3.21807,10.69744 -8.41682,14.37984c-5.19875,3.6824 -12.37818,5.96179 -20.30093,5.96179c-7.92275,0 -15.10219,-2.2794 -20.30094,-5.96179c-5.19875,-3.6824 -8.41681,-8.76781 -8.41681,-14.37984c0,-5.61203 3.21806,-10.69744 8.41681,-14.37983c5.19875,-3.6824 12.37819,-5.96179 20.30094,-5.96179c7.92275,0 15.10218,2.2794 20.30093,5.96179z" data-paper-data="{&quot;origPos&quot;:null}" fill="url(#color-60)"/><path d="M321.15917,287.77648c5.19875,3.6824 8.41681,8.76781 8.41681,14.37984c0,5.61203 -3.21806,10.69744 -8.41681,14.37983c-5.19875,3.6824 -12.37819,5.96179 -20.30094,5.96179c-7.92275,0 -15.10218,-2.27939 -20.30093,-5.96179c-5.19875,-3.6824 -8.41681,-8.76781 -8.41681,-14.37983c0,-5.61203 3.21806,-10.69745 8.41681,-14.37984c5.19875,-3.6824 12.37818,-5.96179 20.30093,-5.96179c7.92275,0 15.10219,2.27939 20.30094,5.96179z" data-paper-data="{&quot;origPos&quot;:null}" fill="url(#color-61)"/><path d="M328.96593,322.24424c5.19875,3.6824 8.41681,8.7678 8.41681,14.37983c0,5.61203 -3.21806,10.69744 -8.41681,14.37984c-5.19875,3.6824 -12.37818,5.96179 -20.30093,5.96179c-7.92275,0 -15.10219,-2.27939 -20.30094,-5.96179c-5.19875,-3.6824 -8.41681,-8.76781 -8.41681,-14.37984c0,-5.61203 3.21806,-10.69743 8.41681,-14.37983c5.19875,-3.6824 12.37819,-5.96179 20.30094,-5.96179c7.92275,0 15.10218,2.2794 20.30093,5.96179z" data-paper-data="{&quot;origPos&quot;:null}" fill="url(#color-62)"/><path d="M302.7575,330.15488c5.19875,3.6824 8.41681,8.7678 8.41681,14.37983c0,5.61203 -3.21806,10.69745 -8.41681,14.37984c-5.19875,3.6824 -12.37818,5.96179 -20.30093,5.96179c-7.92275,0 -15.10219,-2.27939 -20.30094,-5.96179c-5.19875,-3.6824 -8.41681,-8.76781 -8.41681,-14.37984c0,-5.61203 3.21806,-10.69743 8.41681,-14.37983c5.19875,-3.6824 12.37819,-5.96179 20.30094,-5.96179c7.92275,0 15.10218,2.27939 20.30093,5.96179z" data-paper-data="{&quot;origPos&quot;:null}" fill="url(#color-63)"/><path d="M362.98113,329.58979c5.19875,3.6824 8.41681,8.76781 8.41681,14.37984c0,5.61203 -3.21805,10.69744 -8.41681,14.37983c-5.19875,3.6824 -12.37819,5.96179 -20.30094,5.96179c-7.92275,0 -15.10219,-2.27939 -20.30094,-5.96179c-5.19875,-3.6824 -8.41681,-8.76781 -8.41681,-14.37983c0,-5.61203 3.21805,-10.69744 8.41681,-14.37984c5.19875,-3.6824 12.37819,-5.96179 20.30094,-5.96179c7.92275,0 15.10219,2.27939 20.30094,5.96179z" data-paper-data="{&quot;origPos&quot;:null}" fill="url(#color-64)"/><path d="M365.21163,300.20745c5.19875,3.6824 8.41681,8.76781 8.41681,14.37984c0,5.61203 -3.21806,10.69744 -8.41681,14.37983c-5.19875,3.6824 -12.37819,5.96179 -20.30094,5.96179c-7.92275,0 -15.10218,-2.27939 -20.30093,-5.96179c-5.19875,-3.6824 -8.41681,-8.76781 -8.41681,-14.37983c0,-5.61203 3.21806,-10.69744 8.41681,-14.37984c5.19875,-3.6824 12.37818,-5.96179 20.30093,-5.96179c7.92275,0 15.10219,2.27939 20.30094,5.96179z" data-paper-data="{&quot;origPos&quot;:null}" fill="url(#color-65)"/><path d="M397.83276,274.21542c5.19875,3.6824 8.41681,8.76781 8.41681,14.37983c0,5.61203 -3.21806,10.69743 -8.41681,14.37983c-5.19875,3.6824 -12.37819,5.96179 -20.30094,5.96179c-7.92275,0 -15.10219,-2.2794 -20.30094,-5.96179c-5.19875,-3.6824 -8.41681,-8.7678 -8.41681,-14.37983c0,-5.61203 3.21805,-10.69744 8.41681,-14.37983c5.19875,-3.6824 12.37819,-5.96179 20.30094,-5.96179c7.92275,0 15.10219,2.2794 20.30094,5.96179z" data-paper-data="{&quot;origPos&quot;:null}" fill="url(#color-66)"/><path d="M426.82932,295.12205c5.19875,3.6824 8.41681,8.7678 8.41681,14.37983c0,5.61203 -3.21806,10.69744 -8.41681,14.37984c-5.19875,3.6824 -12.37818,5.96179 -20.30093,5.96179c-7.92275,0 -15.10219,-2.27939 -20.30094,-5.96179c-5.19875,-3.6824 -8.41681,-8.76781 -8.41681,-14.37984c0,-5.61203 3.21806,-10.69743 8.41681,-14.37983c5.19875,-3.6824 12.37819,-5.96179 20.30094,-5.96179c7.92275,0 15.10218,2.27939 20.30093,5.96179z" data-paper-data="{&quot;origPos&quot;:null}" fill="url(#color-67)"/><path d="M399.50564,307.55307c5.19875,3.6824 8.41681,8.7678 8.41681,14.37983c0,5.61203 -3.21806,10.69745 -8.41681,14.37984c-5.19875,3.6824 -12.37819,5.96179 -20.30094,5.96179c-7.92275,0 -15.10219,-2.27939 -20.30094,-5.96179c-5.19875,-3.6824 -8.41681,-8.76781 -8.41681,-14.37984c0,-5.61203 3.21805,-10.69743 8.41681,-14.37983c5.19875,-3.6824 12.37819,-5.96179 20.30094,-5.96179c7.92275,0 15.10219,2.27939 20.30094,5.96179z" data-paper-data="{&quot;origPos&quot;:null}" fill="url(#color-68)"/><path d="M499.59953,279.30082c5.19875,3.6824 8.41681,8.7678 8.41681,14.37983c0,5.61203 -3.21806,10.69744 -8.41681,14.37983c-5.19875,3.6824 -12.37818,5.9618 -20.30093,5.9618c-7.92275,0 -15.10219,-2.2794 -20.30094,-5.9618c-5.19875,-3.6824 -8.41681,-8.76781 -8.41681,-14.37983c0,-5.61203 3.21806,-10.69743 8.41681,-14.37983c5.19875,-3.6824 12.37819,-5.96179 20.30094,-5.96179c7.92275,0 15.10218,2.2794 20.30093,5.96179z" data-paper-data="{&quot;origPos&quot;:null}" fill="url(#color-69)"/><path d="M419.85899,328.4597c5.19875,3.6824 8.41681,8.76781 8.41681,14.37984c0,5.61203 -3.21806,10.69744 -8.41681,14.37983c-5.19875,3.6824 -12.37818,5.96179 -20.30093,5.96179c-7.92275,0 -15.10219,-2.27939 -20.30094,-5.96179c-5.19875,-3.6824 -8.41681,-8.76781 -8.41681,-14.37983c0,-5.61203 3.21805,-10.69744 8.41681,-14.37984c5.19875,-3.6824 12.37819,-5.96179 20.30094,-5.96179c7.92275,0 15.10218,2.27939 20.30093,5.96179z" data-paper-data="{&quot;origPos&quot;:null}" fill="url(#color-70)"/><path d="M462.79621,308.11809c5.19875,3.6824 8.41681,8.76781 8.41681,14.37983c0,5.61203 -3.21806,10.69743 -8.41681,14.37983c-5.19875,3.6824 -12.37818,5.96179 -20.30093,5.96179c-7.92275,0 -15.10219,-2.2794 -20.30094,-5.96179c-5.19875,-3.6824 -8.41681,-8.7678 -8.41681,-14.37983c0,-5.61203 3.21806,-10.69744 8.41681,-14.37983c5.19875,-3.6824 12.37819,-5.96179 20.30094,-5.96179c7.92275,0 15.10218,2.27939 20.30093,5.96179z" data-paper-data="{&quot;origPos&quot;:null}" fill="url(#color-71)"/><path d="M504.89698,309.2482c5.19875,3.6824 8.41681,8.76781 8.41681,14.37983c0,5.61203 -3.21807,10.69743 -8.41681,14.37983c-5.19875,3.6824 -12.37819,5.96179 -20.30094,5.96179c-7.92275,0 -15.10218,-2.2794 -20.30093,-5.96179c-5.19875,-3.6824 -8.41681,-8.7678 -8.41681,-14.37983c0,-5.61203 3.21806,-10.69744 8.41681,-14.37983c5.19875,-3.6824 12.37818,-5.9618 20.30093,-5.9618c7.92275,0 15.10219,2.2794 20.30094,5.9618z" data-paper-data="{&quot;origPos&quot;:null}" fill="url(#color-72)"/><path d="M492.90802,326.19957c5.19875,3.6824 8.41681,8.76781 8.41681,14.37983c0,5.61203 -3.21806,10.69744 -8.41681,14.37984c-5.19875,3.6824 -12.37819,5.96179 -20.30094,5.96179c-7.92275,0 -15.10219,-2.2794 -20.30094,-5.96179c-5.19875,-3.6824 -8.41681,-8.76781 -8.41681,-14.37984c0,-5.61203 3.21805,-10.69744 8.41681,-14.37983c5.19875,-3.6824 12.37819,-5.96179 20.30094,-5.96179c7.92275,0 15.10219,2.27939 20.30094,5.96179z" data-paper-data="{&quot;origPos&quot;:null}" fill="url(#color-73)"/><path d="M460.28689,330.15488c5.19875,3.6824 8.41681,8.7678 8.41681,14.37983c0,5.61203 -3.21806,10.69745 -8.41681,14.37984c-5.19875,3.6824 -12.37819,5.96179 -20.30094,5.96179c-7.92275,0 -15.10219,-2.27939 -20.30094,-5.96179c-5.19875,-3.6824 -8.41681,-8.76781 -8.41681,-14.37984c0,-5.61203 3.21806,-10.69743 8.41681,-14.37983c5.19875,-3.6824 12.37819,-5.96179 20.30094,-5.96179c7.92275,0 15.10219,2.27939 20.30094,5.96179z" data-paper-data="{&quot;origPos&quot;:null}" fill="url(#color-74)"/><path d="M395.04463,338.06552c5.19875,3.6824 8.41682,8.76781 8.41682,14.37983c0,5.61203 -3.21807,10.69743 -8.41682,14.37983c-5.19875,3.6824 -12.37818,5.9618 -20.30093,5.9618c-7.92275,0 -15.10218,-2.2794 -20.30093,-5.9618c-5.19875,-3.6824 -8.41681,-8.7678 -8.41681,-14.37983c0,-5.61203 3.21806,-10.69744 8.41681,-14.37983c5.19875,-3.6824 12.37818,-5.96179 20.30093,-5.96179c7.92275,0 15.10218,2.27939 20.30093,5.96179z" data-paper-data="{&quot;origPos&quot;:null}" fill="url(#color-75)"/><path d="M331.47524,342.58588c5.19875,3.6824 8.41682,8.7678 8.41682,14.37983c0,5.61203 -3.21807,10.69744 -8.41682,14.37984c-5.19875,3.6824 -12.37818,5.96179 -20.30093,5.96179c-7.92275,0 -15.10219,-2.27939 -20.30094,-5.96179c-5.19875,-3.6824 -8.41681,-8.76781 -8.41681,-14.37984c0,-5.61203 3.21806,-10.69743 8.41681,-14.37983c5.19875,-3.6824 12.37819,-5.9618 20.30094,-5.9618c7.92275,0 15.10218,2.2794 20.30093,5.9618z" data-paper-data="{&quot;origPos&quot;:null}" fill="url(#color-76)"/><path d="M510.47325,342.02083c5.19875,3.6824 8.41681,8.7678 8.41681,14.37983c0,5.61203 -3.21806,10.69745 -8.41681,14.37984c-5.19875,3.6824 -12.37819,5.96179 -20.30094,5.96179c-7.92275,0 -15.10219,-2.27939 -20.30094,-5.96179c-5.19875,-3.6824 -8.41681,-8.76781 -8.41681,-14.37984c0,-5.61203 3.21805,-10.69743 8.41681,-14.37983c5.19875,-3.6824 12.37819,-5.96179 20.30094,-5.96179c7.92275,0 15.10219,2.27939 20.30094,5.96179z" data-paper-data="{&quot;origPos&quot;:null}" fill="url(#color-77)"/></g></g><path d="M1.35991,290.89094h480v98h-480z" data-paper-data="{&quot;origPos&quot;:null}" fill="url(#color-78)" stroke="none" stroke-width="1.22826" stroke-linecap="butt"/><g stroke="none" stroke-width="1" stroke-linecap="butt"><path d="M431.99644,89.701c9.66489,6.75599 15.64752,16.08604 15.64752,26.38226c0,10.29622 -5.98263,19.62626 -15.64752,26.38225c-9.66489,6.75599 -23.01204,10.93793 -37.74107,10.93793c-14.72903,0 -28.07617,-4.18194 -37.74106,-10.93793c-9.66489,-6.75599 -15.64753,-16.08603 -15.64753,-26.38225c0,-10.29622 5.98264,-19.62627 15.64753,-26.38226c9.66489,-6.75599 23.01203,-10.93792 37.74106,-10.93792c14.72903,0 28.07618,4.18193 37.74107,10.93792z" data-paper-data="{&quot;origPos&quot;:null}" fill="#ffffff"/><path d="M365.64946,73.11426c9.66489,6.75599 15.64752,16.08604 15.64752,26.38226c0,10.29622 -5.98263,19.62626 -15.64752,26.38225c-9.66489,6.75599 -23.01204,10.93792 -37.74107,10.93792c-14.72903,0 -28.07617,-4.18193 -37.74106,-10.93792c-9.66489,-6.75599 -15.64753,-16.08603 -15.64753,-26.38225c0,-10.29622 5.98264,-19.62627 15.64753,-26.38226c9.66489,-6.75599 23.01203,-10.93792 37.74106,-10.93792c14.72903,0 28.07618,4.18193 37.74107,10.93792z" data-paper-data="{&quot;origPos&quot;:null}" fill="#ffffff"/><path d="M351.42114,105.05096c0.84488,1.82972 1.36737,4.3561 1.36737,7.14474c0,2.78865 -0.52249,5.31501 -1.36737,7.14474c-0.84385,1.82972 -2.0101,2.96281 -3.29765,2.96281c-1.28755,0 -2.45381,-1.13308 -3.29766,-2.96281c-0.84488,-1.82972 -1.36737,-4.35609 -1.36737,-7.14474c0,-2.78865 0.52249,-5.31502 1.36737,-7.14474c0.84385,-1.82972 2.01011,-2.96281 3.29766,-2.96281c1.28755,0 2.4538,1.13308 3.29765,2.96281z" data-paper-data="{&quot;origPos&quot;:null}" fill="#000000"/><path d="M329.65103,104.53267c0.84488,1.82972 1.36737,4.3561 1.36737,7.14474c0,2.78865 -0.52249,5.31501 -1.36737,7.14474c-0.84385,1.82972 -2.0101,2.96281 -3.29765,2.96281c-1.28755,0 -2.45381,-1.13309 -3.29766,-2.96281c-0.84488,-1.82972 -1.36737,-4.35609 -1.36737,-7.14474c0,-2.78865 0.52249,-5.31502 1.36737,-7.14474c0.84385,-1.82972 2.01011,-2.96281 3.29766,-2.96281c1.28755,0 2.4538,1.13308 3.29765,2.96281z" data-paper-data="{&quot;origPos&quot;:null}" fill="#000000"/></g></g></g></svg>