<svg version="1.1" xmlns="http://www.w3.org/2000/svg" xmlns:xlink="http://www.w3.org/1999/xlink" width="562.29943" height="213.00816" viewBox="0,0,562.29943,213.00816"><defs><linearGradient x1="239.50004" y1="299.93105" x2="239.50004" y2="359.93105" gradientUnits="userSpaceOnUse" id="color-1"><stop offset="0" stop-color="#242231"/><stop offset="1" stop-color="#3a3d2f"/></linearGradient><linearGradient x1="240.00004" y1="287.69292" x2="240.00004" y2="325.56317" gradientUnits="userSpaceOnUse" id="color-2"><stop offset="0" stop-color="#505342"/><stop offset="1" stop-color="#3b4232"/></linearGradient><linearGradient x1="396.29121" y1="450.89352" x2="338.54021" y2="450.89352" gradientUnits="userSpaceOnUse" id="color-3"><stop offset="0" stop-color="#242231"/><stop offset="1" stop-color="#223130"/></linearGradient><linearGradient x1="378.63656" y1="375.3456" x2="445.23539" y2="375.3456" gradientUnits="userSpaceOnUse" id="color-4"><stop offset="0" stop-color="#242231"/><stop offset="1" stop-color="#223130"/></linearGradient><linearGradient x1="196.45148" y1="80.25707" x2="138.70046" y2="80.25707" gradientUnits="userSpaceOnUse" id="color-5"><stop offset="0" stop-color="#242231"/><stop offset="1" stop-color="#223130"/></linearGradient><linearGradient x1="59.97044" y1="341.07087" x2="2.21943" y2="341.07087" gradientUnits="userSpaceOnUse" id="color-6"><stop offset="0" stop-color="#242231"/><stop offset="1" stop-color="#223130"/></linearGradient><linearGradient x1="289.16553" y1="282.40784" x2="231.41453" y2="282.40784" gradientUnits="userSpaceOnUse" id="color-7"><stop offset="0" stop-color="#242231"/><stop offset="1" stop-color="#223130"/></linearGradient><linearGradient x1="205.31914" y1="188.71546" x2="147.56812" y2="188.71546" gradientUnits="userSpaceOnUse" id="color-8"><stop offset="0" stop-color="#242231"/><stop offset="1" stop-color="#223130"/></linearGradient></defs><g transform="translate(2.99994,-153.70718)"><g data-paper-data="{&quot;isPaintingLayer&quot;:true}" fill-rule="nonzero" stroke-linejoin="miter" stroke-miterlimit="10" stroke-dasharray="" stroke-dashoffset="0" style="mix-blend-mode: normal"><g stroke-width="2"><path d="M-0.49998,300.61318c0,0 68.22427,-38.8155 91.06288,-104.24261c5.67593,-16.26019 29.96686,-14.20947 37.64922,-26.36183c9.34852,-14.78797 425.2879,-2.77482 425.2879,-2.77482l4.7749,198.47203l-558.7749,-5.09277zM316.36812,203.23993c-8.68085,-5.78723 -14.86683,-8.56964 -25.51798,-7.94279c-0.64825,-0.15154 -1.31806,-0.24703 -2.00404,-0.28107c-0.64038,-0.16449 -1.2808,-0.3477 -1.93282,-0.39687c-5.94135,-0.44803 -14.2631,1.01958 -19.20647,4.78597c-6.18815,4.71478 -10.67185,10.73735 -11.24201,18.75403c-0.01528,0.21489 -1.51563,0.61824 -1.67767,0.75713c-1.31849,1.13014 -2.94684,2.04706 -3.80841,3.55481c-0.57058,0.99852 0.12777,2.33995 -0.19138,3.44483c-0.30301,1.04902 -1.56464,1.75389 -1.62521,2.84412c-0.04983,0.89702 1.13079,1.46573 1.3372,2.3401c0.20641,0.87437 -0.59524,1.91103 -0.1495,2.69106c0.54174,0.94804 1.9854,1.01428 2.72556,1.81704c0.77957,0.8455 0.75485,2.35763 1.71175,2.99556c3.11804,2.0787 7.35066,1.00673 10.66448,1.94216c3.10994,0.87788 7.19349,4.86089 10.27928,6.55632c8.23244,4.52315 19.72221,7.02079 28.96764,5.1922c3.66248,-0.72438 7.19054,-3.63538 9.51446,-6.3244c0.00493,-0.0057 2.84241,-4.571 3.52717,-4.88822c7.74746,-3.58904 26.26925,6.32999 26.26925,-11.25c0,-10.03331 -8.60406,-11.35865 -15.53725,-11.78591c-1.78431,-0.10996 -3.76436,0.79996 -5.36308,0c-0.79996,-0.40028 0.03143,-1.78958 0,-2.68355c-0.03823,-1.08733 -0.47635,-2.12522 -0.79163,-3.16654c-1.16192,-3.83755 -3.03192,-5.74364 -5.77714,-8.9464z" data-paper-data="{&quot;origPos&quot;:null}" fill="url(#color-1)" stroke="#0c1013" stroke-linecap="butt"/><path d="M243.50004,157.52523c79.11967,0.74376 230.93149,-2.31036 310,1.7157c0,1.79299 -0.3975,30.01955 -0.3975,30.01955l-22.16363,-14.97529l-21.77189,15.50525c0,0 -27.66699,-17.61019 -27.66699,-16.41528c-0.37015,0.11849 -1,0.32123 -1,0.32123l-16.8863,16.11657l-29.79161,-18.4544l-14.39799,20.50748l-33.89232,-19.3l-14.02533,18.61682l-38.01614,-19.42904l-16.10494,17.32275l-36.8471,-16.30931l-14.62915,17.66479l-37.33466,-18.75292c0,0 -12.13994,17.92965 -12.2295,17.88463c-0.2687,-0.13507 -29.82946,-18.50296 -29.82946,-18.50296l-21.05167,20.40034l-26.92435,-21.65518l-13.85553,19.75763l-24.95028,9.23838l-9.312,33.37616c0,0 -18.92838,6.4679 -19.1909,6.66272c-2.75557,2.04485 -1.24446,34.88291 -1.24446,34.88291l-27.89692,14.94278l-16.75377,30.81203c0,0 -26.59246,-8.89811 -27.33559,-9.21065c0,-5.79775 0,-10.59551 0,-16.39326c46.76992,-2.37402 73.64826,-140.23121 120.46618,-139.16129c48.79651,1.11513 76.22558,2.49915 125.03383,2.81188z" data-paper-data="{&quot;origPos&quot;:null}" fill="url(#color-2)" stroke="#1e231d" stroke-linecap="round"/></g><path d="M386.59243,328.88829c-4.70406,-0.89939 -6.05141,-8.07865 -11.20011,-8.72927c-1.23921,-0.1566 -24.44873,7.00997 -23.27148,4.89092c0.47665,-1.52273 -16.83346,-7.95555 -15.7123,-9.08031c2.67609,-2.68471 10.29879,-11.45983 14.39999,-9.92187c4.46048,1.46082 28.36333,-0.52746 31.11145,-1.93481c2.35028,-1.2036 13.44761,-0.96351 13.64233,-0.76879c1.70527,1.70527 11.22697,14.57218 10.54762,17.028c-1.69051,6.11097 -18.04109,9.14888 -19.51749,8.51614z" data-paper-data="{&quot;noHover&quot;:false,&quot;origItem&quot;:[&quot;Path&quot;,{&quot;applyMatrix&quot;:true,&quot;segments&quot;:[[[466.70064,646.41478],[0,0],[-0.46558,1.08789]],[465.53553,648.2022],[464.40075,644.93936],[[463.21082,644.176],[0,0],[0.61134,0.81242]],[[464.07675,645.75219],[0,0],[4.13726,12.41179]],[[462.68165,681.75562],[3.38102,-12.22195],[-1.35873,4.91163]],[[461.26239,700.0304],[-3.41054,-3.41054],[0.38945,0.38945]],[[460.9696,698.40427],[0.0976,0.54204],[4.56201,1.95515]],[[476.12066,699.14929],[-4.70055,2.40721],[5.49623,-2.81468]],[[493.35001,685.76001],[-6.58431,0.77838],[10.52138,-1.24381]],[[517.08895,695.65169],[-8.92096,-2.92165],[8.2024,3.0759]],[[544,700.33333],[-8.83625,0.95496],[7.9731,-0.86167]],[[565.13113,687.13113],[-5.35217,5.36942],[2.2423,-2.24953]],[[571.96255,679.90512],[-0.9533,3.04546],[2.3545,-4.2381]],[[574.33333,662],[1.92804,4.7234],[-0.27509,-0.67392]],[[574.13241,664.17444],[0.70927,-0.16364],[-1.65477,0.38177]],[[570.09381,661.06867],[1.38446,0.98351],[-3.69411,-2.62425]],[[558.07692,654.94872],[4.18,1.73469],[-5.55538,-2.30547]],[[540.83581,650.97519],[6.02128,0.31832],[-2.04322,-0.10802]],[[534.42228,651.68165],[1.67076,-1.25006],[-4.30422,1.61408]],[[521.30293,657.26239],[3.99321,-2.29055],[-3.61659,2.07452]],[[508.90619,666.73533],[4.09182,-0.55891],[-2.47515,0.33808]],[[501.41886,666.41008],[2.47842,0.31319],[-10.2974,-1.30125]],[[481.0304,646.92906],[9.40811,1.79878],[-2.95279,-1.26548]],[[470,645],[3.27105,-1.14877],[-0.29316,0.10296]],[[470.57286,645.73533],[0.18368,-0.25061],[-0.56503,0.77092]],[[468.23952,647.402],[0.77778,-0.55556],[0,0]]],&quot;closed&quot;:true}],&quot;index&quot;:null}" fill="url(#color-3)" stroke="none" stroke-width="0.5" stroke-linecap="butt"/><path d="M401.52635,216.84256c5.42475,1.03718 29.40538,-7.1778 28.04777,-4.73409c-0.54967,1.75602 6.24289,23.68702 1.51336,21.91343c-5.14385,-1.68463 -32.70877,0.60827 -35.87792,2.23123c-2.71036,1.388 -15.50787,1.11112 -15.73242,0.88657c-1.96653,-1.96653 -12.94701,-16.80473 -12.16357,-19.6368c1.9495,-7.04721 32.5102,-1.39004 34.2128,-0.66036z" data-paper-data="{&quot;noHover&quot;:false,&quot;origItem&quot;:[&quot;Path&quot;,{&quot;applyMatrix&quot;:true,&quot;segments&quot;:[[[466.70064,646.41478],[0,0],[-0.46558,1.08789]],[465.53553,648.2022],[464.40075,644.93936],[[463.21082,644.176],[0,0],[0.61134,0.81242]],[[464.07675,645.75219],[0,0],[4.13726,12.41179]],[[462.68165,681.75562],[3.38102,-12.22195],[-1.35873,4.91163]],[[461.26239,700.0304],[-3.41054,-3.41054],[0.38945,0.38945]],[[460.9696,698.40427],[0.0976,0.54204],[4.56201,1.95515]],[[476.12066,699.14929],[-4.70055,2.40721],[5.49623,-2.81468]],[[493.35001,685.76001],[-6.58431,0.77838],[10.52138,-1.24381]],[[517.08895,695.65169],[-8.92096,-2.92165],[8.2024,3.0759]],[[544,700.33333],[-8.83625,0.95496],[7.9731,-0.86167]],[[565.13113,687.13113],[-5.35217,5.36942],[2.2423,-2.24953]],[[571.96255,679.90512],[-0.9533,3.04546],[2.3545,-4.2381]],[[574.33333,662],[1.92804,4.7234],[-0.27509,-0.67392]],[[574.13241,664.17444],[0.70927,-0.16364],[-1.65477,0.38177]],[[570.09381,661.06867],[1.38446,0.98351],[-3.69411,-2.62425]],[[558.07692,654.94872],[4.18,1.73469],[-5.55538,-2.30547]],[[540.83581,650.97519],[6.02128,0.31832],[-2.04322,-0.10802]],[[534.42228,651.68165],[1.67076,-1.25006],[-4.30422,1.61408]],[[521.30293,657.26239],[3.99321,-2.29055],[-3.61659,2.07452]],[[508.90619,666.73533],[4.09182,-0.55891],[-2.47515,0.33808]],[[501.41886,666.41008],[2.47842,0.31319],[-10.2974,-1.30125]],[[481.0304,646.92906],[9.40811,1.79878],[-2.95279,-1.26548]],[[470,645],[3.27105,-1.14877],[-0.29316,0.10296]],[[470.57286,645.73533],[0.18368,-0.25061],[-0.56503,0.77092]],[[468.23952,647.402],[0.77778,-0.55556],[0,0]]],&quot;closed&quot;:true}]}" fill="url(#color-4)" stroke="none" stroke-width="0.5" stroke-linecap="butt"/><path d="M186.7527,225.6461c-4.70406,-0.89939 -6.05141,-8.07865 -11.20011,-8.72927c-1.23921,-0.1566 -24.44873,7.00997 -23.27148,4.89092c0.47665,-1.52273 -16.83346,-7.95555 -15.7123,-9.08031c2.67609,-2.68471 10.29879,-11.45983 14.39999,-9.92188c4.46048,1.46082 28.36333,-0.52746 31.11145,-1.93481c2.35028,-1.2036 13.44761,-0.96351 13.64233,-0.76879c1.70527,1.70527 11.22697,14.57218 10.54762,17.028c-1.69051,6.11097 -18.0411,9.14888 -19.5175,8.51614z" data-paper-data="{&quot;noHover&quot;:false,&quot;origItem&quot;:[&quot;Path&quot;,{&quot;applyMatrix&quot;:true,&quot;segments&quot;:[[[466.70064,646.41478],[0,0],[-0.46558,1.08789]],[465.53553,648.2022],[464.40075,644.93936],[[463.21082,644.176],[0,0],[0.61134,0.81242]],[[464.07675,645.75219],[0,0],[4.13726,12.41179]],[[462.68165,681.75562],[3.38102,-12.22195],[-1.35873,4.91163]],[[461.26239,700.0304],[-3.41054,-3.41054],[0.38945,0.38945]],[[460.9696,698.40427],[0.0976,0.54204],[4.56201,1.95515]],[[476.12066,699.14929],[-4.70055,2.40721],[5.49623,-2.81468]],[[493.35001,685.76001],[-6.58431,0.77838],[10.52138,-1.24381]],[[517.08895,695.65169],[-8.92096,-2.92165],[8.2024,3.0759]],[[544,700.33333],[-8.83625,0.95496],[7.9731,-0.86167]],[[565.13113,687.13113],[-5.35217,5.36942],[2.2423,-2.24953]],[[571.96255,679.90512],[-0.9533,3.04546],[2.3545,-4.2381]],[[574.33333,662],[1.92804,4.7234],[-0.27509,-0.67392]],[[574.13241,664.17444],[0.70927,-0.16364],[-1.65477,0.38177]],[[570.09381,661.06867],[1.38446,0.98351],[-3.69411,-2.62425]],[[558.07692,654.94872],[4.18,1.73469],[-5.55538,-2.30547]],[[540.83581,650.97519],[6.02128,0.31832],[-2.04322,-0.10802]],[[534.42228,651.68165],[1.67076,-1.25006],[-4.30422,1.61408]],[[521.30293,657.26239],[3.99321,-2.29055],[-3.61659,2.07452]],[[508.90619,666.73533],[4.09182,-0.55891],[-2.47515,0.33808]],[[501.41886,666.41008],[2.47842,0.31319],[-10.2974,-1.30125]],[[481.0304,646.92906],[9.40811,1.79878],[-2.95279,-1.26548]],[[470,645],[3.27105,-1.14877],[-0.29316,0.10296]],[[470.57286,645.73533],[0.18368,-0.25061],[-0.56503,0.77092]],[[468.23952,647.402],[0.77778,-0.55556],[0,0]]],&quot;closed&quot;:true}],&quot;index&quot;:null}" fill="url(#color-5)" stroke="none" stroke-width="0.5" stroke-linecap="butt"/><path d="M40.12161,345.50139c-4.70406,-0.89939 -25.49879,6.22421 -24.32155,4.10516c0.47665,-1.52273 -5.41351,-20.54014 -1.31231,-19.00218c4.46048,1.46082 28.36333,-0.52746 31.11145,-1.93481c2.35028,-1.2036 13.44761,-0.96351 13.64233,-0.76879c1.70527,1.70527 11.22697,14.57218 10.54761,17.028c-1.69051,6.11097 -28.19114,1.20537 -29.66754,0.57263z" data-paper-data="{&quot;noHover&quot;:false,&quot;origItem&quot;:[&quot;Path&quot;,{&quot;applyMatrix&quot;:true,&quot;segments&quot;:[[[466.70064,646.41478],[0,0],[-0.46558,1.08789]],[465.53553,648.2022],[464.40075,644.93936],[[463.21082,644.176],[0,0],[0.61134,0.81242]],[[464.07675,645.75219],[0,0],[4.13726,12.41179]],[[462.68165,681.75562],[3.38102,-12.22195],[-1.35873,4.91163]],[[461.26239,700.0304],[-3.41054,-3.41054],[0.38945,0.38945]],[[460.9696,698.40427],[0.0976,0.54204],[4.56201,1.95515]],[[476.12066,699.14929],[-4.70055,2.40721],[5.49623,-2.81468]],[[493.35001,685.76001],[-6.58431,0.77838],[10.52138,-1.24381]],[[517.08895,695.65169],[-8.92096,-2.92165],[8.2024,3.0759]],[[544,700.33333],[-8.83625,0.95496],[7.9731,-0.86167]],[[565.13113,687.13113],[-5.35217,5.36942],[2.2423,-2.24953]],[[571.96255,679.90512],[-0.9533,3.04546],[2.3545,-4.2381]],[[574.33333,662],[1.92804,4.7234],[-0.27509,-0.67392]],[[574.13241,664.17444],[0.70927,-0.16364],[-1.65477,0.38177]],[[570.09381,661.06867],[1.38446,0.98351],[-3.69411,-2.62425]],[[558.07692,654.94872],[4.18,1.73469],[-5.55538,-2.30547]],[[540.83581,650.97519],[6.02128,0.31832],[-2.04322,-0.10802]],[[534.42228,651.68165],[1.67076,-1.25006],[-4.30422,1.61408]],[[521.30293,657.26239],[3.99321,-2.29055],[-3.61659,2.07452]],[[508.90619,666.73533],[4.09182,-0.55891],[-2.47515,0.33808]],[[501.41886,666.41008],[2.47842,0.31319],[-10.2974,-1.30125]],[[481.0304,646.92906],[9.40811,1.79878],[-2.95279,-1.26548]],[[470,645],[3.27105,-1.14877],[-0.29316,0.10296]],[[470.57286,645.73533],[0.18368,-0.25061],[-0.56503,0.77092]],[[468.23952,647.402],[0.77778,-0.55556],[0,0]]],&quot;closed&quot;:true}],&quot;index&quot;:null}" fill="url(#color-6)" stroke="none" stroke-width="0.5" stroke-linecap="butt"/><path d="M269.31668,286.83836c-4.70406,-0.89939 -25.49879,6.22421 -24.32155,4.10516c0.47665,-1.52273 -5.41351,-20.54014 -1.31231,-19.00218c4.46048,1.46082 28.36333,-0.52746 31.11145,-1.93481c2.35028,-1.2036 13.44761,-0.96351 13.64233,-0.76879c1.70527,1.70527 11.22697,14.57218 10.54761,17.028c-1.69051,6.11097 -28.19114,1.20537 -29.66754,0.57263z" data-paper-data="{&quot;noHover&quot;:false,&quot;origItem&quot;:[&quot;Path&quot;,{&quot;applyMatrix&quot;:true,&quot;segments&quot;:[[[466.70064,646.41478],[0,0],[-0.46558,1.08789]],[465.53553,648.2022],[464.40075,644.93936],[[463.21082,644.176],[0,0],[0.61134,0.81242]],[[464.07675,645.75219],[0,0],[4.13726,12.41179]],[[462.68165,681.75562],[3.38102,-12.22195],[-1.35873,4.91163]],[[461.26239,700.0304],[-3.41054,-3.41054],[0.38945,0.38945]],[[460.9696,698.40427],[0.0976,0.54204],[4.56201,1.95515]],[[476.12066,699.14929],[-4.70055,2.40721],[5.49623,-2.81468]],[[493.35001,685.76001],[-6.58431,0.77838],[10.52138,-1.24381]],[[517.08895,695.65169],[-8.92096,-2.92165],[8.2024,3.0759]],[[544,700.33333],[-8.83625,0.95496],[7.9731,-0.86167]],[[565.13113,687.13113],[-5.35217,5.36942],[2.2423,-2.24953]],[[571.96255,679.90512],[-0.9533,3.04546],[2.3545,-4.2381]],[[574.33333,662],[1.92804,4.7234],[-0.27509,-0.67392]],[[574.13241,664.17444],[0.70927,-0.16364],[-1.65477,0.38177]],[[570.09381,661.06867],[1.38446,0.98351],[-3.69411,-2.62425]],[[558.07692,654.94872],[4.18,1.73469],[-5.55538,-2.30547]],[[540.83581,650.97519],[6.02128,0.31832],[-2.04322,-0.10802]],[[534.42228,651.68165],[1.67076,-1.25006],[-4.30422,1.61408]],[[521.30293,657.26239],[3.99321,-2.29055],[-3.61659,2.07452]],[[508.90619,666.73533],[4.09182,-0.55891],[-2.47515,0.33808]],[[501.41886,666.41008],[2.47842,0.31319],[-10.2974,-1.30125]],[[481.0304,646.92906],[9.40811,1.79878],[-2.95279,-1.26548]],[[470,645],[3.27105,-1.14877],[-0.29316,0.10296]],[[470.57286,645.73533],[0.18368,-0.25061],[-0.56503,0.77092]],[[468.23952,647.402],[0.77778,-0.55556],[0,0]]],&quot;closed&quot;:true}],&quot;index&quot;:null}" fill="url(#color-7)" stroke="none" stroke-width="0.5" stroke-linecap="butt"/><path d="M195.62036,334.10449c-4.70406,-0.89939 -6.05141,-8.07865 -11.20011,-8.72927c-1.23921,-0.1566 -24.44873,7.00997 -23.27148,4.89092c0.47665,-1.52273 -16.83346,-7.95555 -15.7123,-9.08031c2.67609,-2.68471 10.29879,-11.45983 14.39999,-9.92188c4.46048,1.46082 28.36333,-0.52746 31.11145,-1.93481c2.35028,-1.2036 13.44761,-0.96351 13.64233,-0.76879c1.70527,1.70527 11.22697,14.57218 10.54762,17.028c-1.69051,6.11097 -18.0411,9.14888 -19.5175,8.51614z" data-paper-data="{&quot;noHover&quot;:false,&quot;origItem&quot;:[&quot;Path&quot;,{&quot;applyMatrix&quot;:true,&quot;segments&quot;:[[[466.70064,646.41478],[0,0],[-0.46558,1.08789]],[465.53553,648.2022],[464.40075,644.93936],[[463.21082,644.176],[0,0],[0.61134,0.81242]],[[464.07675,645.75219],[0,0],[4.13726,12.41179]],[[462.68165,681.75562],[3.38102,-12.22195],[-1.35873,4.91163]],[[461.26239,700.0304],[-3.41054,-3.41054],[0.38945,0.38945]],[[460.9696,698.40427],[0.0976,0.54204],[4.56201,1.95515]],[[476.12066,699.14929],[-4.70055,2.40721],[5.49623,-2.81468]],[[493.35001,685.76001],[-6.58431,0.77838],[10.52138,-1.24381]],[[517.08895,695.65169],[-8.92096,-2.92165],[8.2024,3.0759]],[[544,700.33333],[-8.83625,0.95496],[7.9731,-0.86167]],[[565.13113,687.13113],[-5.35217,5.36942],[2.2423,-2.24953]],[[571.96255,679.90512],[-0.9533,3.04546],[2.3545,-4.2381]],[[574.33333,662],[1.92804,4.7234],[-0.27509,-0.67392]],[[574.13241,664.17444],[0.70927,-0.16364],[-1.65477,0.38177]],[[570.09381,661.06867],[1.38446,0.98351],[-3.69411,-2.62425]],[[558.07692,654.94872],[4.18,1.73469],[-5.55538,-2.30547]],[[540.83581,650.97519],[6.02128,0.31832],[-2.04322,-0.10802]],[[534.42228,651.68165],[1.67076,-1.25006],[-4.30422,1.61408]],[[521.30293,657.26239],[3.99321,-2.29055],[-3.61659,2.07452]],[[508.90619,666.73533],[4.09182,-0.55891],[-2.47515,0.33808]],[[501.41886,666.41008],[2.47842,0.31319],[-10.2974,-1.30125]],[[481.0304,646.92906],[9.40811,1.79878],[-2.95279,-1.26548]],[[470,645],[3.27105,-1.14877],[-0.29316,0.10296]],[[470.57286,645.73533],[0.18368,-0.25061],[-0.56503,0.77092]],[[468.23952,647.402],[0.77778,-0.55556],[0,0]]],&quot;closed&quot;:true}],&quot;index&quot;:null}" fill="url(#color-8)" stroke="none" stroke-width="0.5" stroke-linecap="butt"/></g></g></svg>