<svg version="1.1" xmlns="http://www.w3.org/2000/svg" xmlns:xlink="http://www.w3.org/1999/xlink" width="815.5315" height="377.98799" viewBox="0,0,815.5315,377.98799"><g transform="translate(86.29585,3.49998)"><g data-paper-data="{&quot;isPaintingLayer&quot;:true}" fill-rule="nonzero" stroke-linecap="butt" stroke-linejoin="miter" stroke-miterlimit="10" stroke-dasharray="" stroke-dashoffset="0" style="mix-blend-mode: normal"><g fill="#cfaf77" stroke="#e6cd95" stroke-width="7"><g><path d="M-80.79585,0.00002h110v50h-110z"/><path d="M35.20416,0.00002h110v50h-110z"/><path d="M151.20416,0.00002h110v50h-110z"/></g><g><path d="M-20.79582,56.00002h110v50h-110z"/><path d="M95.20416,56.00002h110v50h-110z"/><path d="M211.20417,56.00002h110v50h-110z"/></g></g><g fill="#cfaf77" stroke="#e6cd95" stroke-width="7"><g><path d="M-81.79585,111.00002h110v50h-110z"/><path d="M34.20416,111.00002h110v50h-110z"/><path d="M150.20416,111.00002h110v50h-110z"/></g><g><path d="M-21.79582,167.00001h110v50h-110z"/><path d="M94.20416,167.00001h110v50h-110z"/><path d="M210.20417,167.00001h110v50h-110z"/></g></g><g fill="#cfaf77" stroke="#e6cd95" stroke-width="7"><g><path d="M-82.79585,222.00002h110v50h-110z"/><path d="M33.20416,222.00002h110v50h-110z"/><path d="M149.20416,222.00002h110v50h-110z"/></g><g><path d="M-22.79582,278.00001h110v50h-110z"/><path d="M93.20416,278.00001h110v50h-110z"/><path d="M209.20417,278.00001h110v50h-110z"/></g></g><g><g fill="#cfaf77" stroke="#e6cd95" stroke-width="7"><path d="M-82.79585,333.00001h110v37.98799h-110z"/><path d="M33.20416,333.00001h110v37.98799h-110z"/><path d="M149.20416,333.00001h110v37.98799h-110z"/></g><g fill="none" stroke="none" stroke-width="1" font-family="sans-serif" font-weight="normal" font-size="12" text-anchor="start"/></g><g fill="#cfaf77" stroke="#e6cd95" stroke-width="7"><g><path d="M267.73562,0.00002h110v50h-110z"/><path d="M383.73565,0.00002h110v50h-110z"/><path d="M499.73566,0.00002h110v50h-110z"/><path d="M615.73565,0.00002h110v50h-110z"/></g><g><path d="M327.73562,56.00002h110v50h-110z"/><path d="M443.73566,56.00002h110v50h-110z"/><path d="M559.73565,56.00002h110v50h-110z"/></g></g><g fill="#cfaf77" stroke="#e6cd95" stroke-width="7"><g><path d="M266.73562,111.00002h110v50h-110z"/><path d="M382.73565,111.00002h110v50h-110z"/><path d="M498.73566,111.00002h110v50h-110z"/><path d="M614.73565,111.00002h110v50h-110z"/></g><g><path d="M326.73562,167.00001h110v50h-110z"/><path d="M442.73566,167.00001h110v50h-110z"/><path d="M558.73565,167.00001h110v50h-110z"/></g></g><g fill="#cfaf77" stroke="#e6cd95" stroke-width="7"><g><path d="M265.73562,222.00002h110v50h-110z"/><path d="M381.73565,222.00002h110v50h-110z"/><path d="M497.73566,222.00002h110v50h-110z"/><path d="M613.73565,222.00002h110v50h-110z"/></g><g><path d="M325.73562,278.00001h110v50h-110z"/><path d="M441.73566,278.00001h110v50h-110z"/><path d="M557.73565,278.00001h110v50h-110z"/></g></g><g><g fill="#cfaf77" stroke="#e6cd95" stroke-width="7"><path d="M265.73562,333.00001h110v37.98799h-110z"/><path d="M381.73565,333.00001h110v37.98799h-110z"/><path d="M497.73566,333.00001h110v37.98799h-110z"/><path d="M613.73565,333.00001h110v37.98799h-110z"/></g><g fill="none" stroke="none" stroke-width="1" font-family="sans-serif" font-weight="normal" font-size="12" text-anchor="start"/></g></g></g></svg>