<svg version="1.1" xmlns="http://www.w3.org/2000/svg" xmlns:xlink="http://www.w3.org/1999/xlink" width="143.7336" height="143.73361" viewBox="0,0,143.7336,143.73361"><defs><linearGradient x1="240" y1="110.13321" x2="240" y2="249.86681" gradientUnits="userSpaceOnUse" id="color-1"><stop offset="0" stop-color="#3c94ed"/><stop offset="1" stop-color="#337fcc"/></linearGradient><radialGradient cx="218.61239" cy="212.21398" r="13.32927" gradientUnits="userSpaceOnUse" id="color-2"><stop offset="0" stop-color="#ffc36a"/><stop offset="1" stop-color="#ffa41c"/></radialGradient></defs><g transform="translate(-168.1332,-108.1332)"><g data-paper-data="{&quot;isPaintingLayer&quot;:true}" fill-rule="nonzero" stroke-linejoin="miter" stroke-miterlimit="10" stroke-dasharray="" stroke-dashoffset="0" style="mix-blend-mode: normal"><path d="M240,110.13321c19.2752,0 36.74421,7.8268 49.3899,20.47689c12.64989,12.64569 20.4769,30.11449 20.4769,49.38991c0,19.27542 -7.82701,36.74421 -20.4769,49.38991c-12.64569,12.65009 -30.1147,20.4769 -49.3899,20.4769c-19.27542,0 -36.74442,-7.8268 -49.39012,-20.4769c-12.64989,-12.64569 -20.47668,-30.11449 -20.47668,-49.38991c0,-19.27542 7.82679,-36.74421 20.47668,-49.38991c12.64569,-12.6501 30.11471,-20.47689 49.39012,-20.47689z" data-paper-data="{&quot;origPos&quot;:null}" id="ID0.4039921844378114" fill="url(#color-1)" stroke="#23568d" stroke-width="4" stroke-linecap="butt"/><g data-paper-data="{&quot;origPos&quot;:null,&quot;origRot&quot;:0,&quot;index&quot;:null}" stroke="none" stroke-linecap="butt"><path d="M212.29197,148.59742c15.21992,-1.74817 28.24445,2.80975 29.09104,10.18041c0.84661,7.37068 -10.8053,14.76296 -26.02524,16.51112c-15.21993,1.74818 -28.24444,-2.80977 -29.09104,-10.18043c-0.84661,-7.37067 10.8053,-14.76294 26.02523,-16.51111z" data-paper-data="{&quot;origPos&quot;:null}" fill="#579e2e" stroke-width="0"/><path d="M211.89384,145.13097c15.21994,-1.74818 28.24443,2.80975 29.09103,10.18041c0.8466,7.37066 -10.80529,14.76293 -26.02523,16.5111c-15.21994,1.74818 -28.24445,-2.80975 -29.09105,-10.18041c-0.8466,-7.37064 10.80532,-14.76292 26.02525,-16.51109z" data-paper-data="{&quot;origPos&quot;:null}" fill="#76d63e" stroke-width="0"/><path d="M232.73684,159.94651c0.17591,1.53156 -0.92307,2.91575 -2.45463,3.09167c-1.53156,0.17592 -2.91575,-0.92305 -3.09167,-2.45461c-0.17591,-1.53156 0.92307,-2.91576 2.45463,-3.09168c1.53156,-0.17591 2.91575,0.92307 3.09167,2.45463z" data-paper-data="{&quot;origPos&quot;:null}" fill="#822626" stroke-width="0"/><path d="M217.86167,154.25104c0.13195,1.14868 -0.69227,2.18681 -1.84096,2.31875c-1.14867,0.13193 -2.1868,-0.69228 -2.31875,-1.84097c-0.13194,-1.14867 0.69227,-2.1868 1.84096,-2.31875c1.14867,-0.13193 2.1868,0.69229 2.31875,1.84097z" data-paper-data="{&quot;origPos&quot;:null}" fill="#822626" stroke-width="0"/><path d="M204.84139,170.87739c-1.53157,0.17591 -2.91575,-0.92306 -3.09167,-2.45462c-0.17592,-1.53156 0.92306,-2.91576 2.45462,-3.09168c1.53157,-0.17591 2.91575,0.92308 3.09167,2.45464c0.17592,1.53156 -0.92306,2.91574 -2.45462,3.09166z" data-paper-data="{&quot;origPos&quot;:null}" fill="#822626" stroke-width="0"/><path d="M197.94139,159.72859c-0.95723,0.10995 -1.82235,-0.57691 -1.9323,-1.53414c-0.10995,-0.95723 0.57691,-1.82234 1.53414,-1.9323c0.95723,-0.10995 1.82235,0.57691 1.9323,1.53414c0.10995,0.95723 -0.57691,1.82234 -1.53414,1.9323z" data-paper-data="{&quot;origPos&quot;:null}" fill="#822626" stroke-width="0"/><g data-paper-data="{&quot;origPos&quot;:null}"><path d="M220.4512,120.62191c2.15494,-0.24752 4.19963,0.32898 5.76214,1.46014c1.56257,1.13123 2.643,2.81721 2.86945,4.78875c0.22645,1.97156 -0.44357,3.8586 -1.70897,5.31466c-1.26535,1.45597 -3.12607,2.48103 -5.28102,2.72855c-2.15494,0.24751 -4.19962,-0.32897 -5.76215,-1.46013c-1.56257,-1.13124 -2.643,-2.81724 -2.86946,-4.78878c-0.22645,-1.97153 0.44357,-3.85857 1.70897,-5.31463c1.26538,-1.45597 3.12609,-2.48104 5.28103,-2.72855z" data-paper-data="{&quot;origPos&quot;:null}" id="ID0.6792544075287879" fill="#f1ffa1" stroke-width="0.55092"/><path d="M231.61752,148.98323c0,0 -1.42873,2.179 -7.34781,2.93811c-5.84408,0.74948 -8.27379,-1.1438 -8.27379,-1.1438l-2.50694,-21.82593l15.62159,-1.7943z" data-paper-data="{&quot;origPos&quot;:null}" id="ID0.6036793803796172" fill="#f1ffa1" stroke-width="1.16723"/><path d="M222.69709,125.94287c0.09109,-0.47276 0.25697,-0.7781 0.47591,-0.80325c0.21894,-0.02514 0.44971,0.23463 0.64562,0.67443c0.19608,0.43976 0.35729,1.05956 0.43716,1.75496c0.07987,0.69541 0.0634,1.33562 -0.02787,1.80839c-0.09109,0.47277 -0.25696,0.77809 -0.4759,0.80324c-0.21895,0.02515 -0.44971,-0.23462 -0.64562,-0.67442c-0.19609,-0.43976 -0.3573,-1.05957 -0.43717,-1.75497c-0.07987,-0.69541 -0.06339,-1.33561 0.02788,-1.80838z" data-paper-data="{&quot;origPos&quot;:null}" id="ID0.9021841273643076" fill="#000000" stroke-width="1"/><path d="M219.16051,126.34907c0.09109,-0.47276 0.25697,-0.7781 0.47591,-0.80325c0.21895,-0.02514 0.44971,0.23463 0.64562,0.67443c0.19608,0.43976 0.3573,1.05956 0.43717,1.75496c0.07987,0.6954 0.06339,1.3356 -0.02788,1.80838c-0.09109,0.47278 -0.25695,0.77811 -0.47589,0.80326c-0.21895,0.02515 -0.44972,-0.23464 -0.64563,-0.67444c-0.19608,-0.43976 -0.35728,-1.05956 -0.43715,-1.75496c-0.07987,-0.69541 -0.06341,-1.3356 0.02786,-1.80838z" data-paper-data="{&quot;origPos&quot;:null}" id="ID0.9021841273643076" fill="#000000" stroke-width="1"/></g><g data-paper-data="{&quot;origPos&quot;:null}" fill="#4e8226" stroke-width="0"><path d="M211.06925,159.38518c0,0 -1.10662,1.5232 -4.74101,1.94065c-3.73354,0.42883 -5.31164,-0.78599 -5.31164,-0.78599l-1.15465,-10.05266l10.05266,-1.15466l1.15466,10.05265z" data-paper-data="{&quot;origPos&quot;:null}"/><path d="M198.28803,152.0729l-0.31852,-2.77315l13.17244,-1.51299l0.31852,2.77315z" data-paper-data="{&quot;origPos&quot;:null}"/></g></g><g data-paper-data="{&quot;origPos&quot;:null,&quot;origRot&quot;:0}" stroke="none" stroke-width="0" stroke-linecap="butt"><path d="M293.71187,165.82446c-3.1164,6.67103 -16.80982,6.8622 -30.58505,0.42703c-13.77524,-6.43519 -22.41593,-17.05988 -19.29953,-23.73091c3.1164,-6.67103 16.80982,-6.8622 30.58506,-0.42701c13.77524,6.43519 22.41594,17.05986 19.29952,23.7309z" data-paper-data="{&quot;origPos&quot;:null}" fill="#196949"/><path d="M295.17752,162.68701c-3.1164,6.67103 -16.80981,6.86221 -30.58505,0.42702c-13.77524,-6.43519 -22.41593,-17.05986 -19.29953,-23.7309c3.1164,-6.67103 16.80979,-6.86222 30.58504,-0.42703c13.77524,6.43519 22.41595,17.05987 19.29955,23.73091z" data-paper-data="{&quot;origPos&quot;:null}" fill="#28a874"/><path d="M281.40596,146.30723l1.6995,-2.71824l8.38126,5.24008l-1.69949,2.71825z" data-paper-data="{&quot;origPos&quot;:null}" fill="#d83434"/><path d="M269.22749,158.22715l1.6995,-2.71825l8.38126,5.24008l-1.69949,2.71825z" data-paper-data="{&quot;origPos&quot;:null}" fill="#d83434"/><path d="M280.0453,155.53864l1.69949,-2.71825l8.38127,5.24008l-1.69949,2.71826z" data-paper-data="{&quot;origPos&quot;:null}" fill="#3443d9"/><path d="M266.14459,133.93003l1.6995,-2.71825l8.38126,5.24008l-1.69949,2.71825z" data-paper-data="{&quot;origPos&quot;:null}" fill="#3443d9"/><path d="M247.19789,147.60458l1.69949,-2.71825l8.38126,5.24008l-1.69949,2.71825z" data-paper-data="{&quot;origPos&quot;:null}" fill="#3443d9"/><path d="M258.58256,141.48971l1.6995,-2.71826l8.38125,5.24008l-1.69948,2.71825z" data-paper-data="{&quot;origPos&quot;:null}" fill="#d83434"/></g><g data-paper-data="{&quot;origPos&quot;:null,&quot;origRot&quot;:0}"><path d="M234.44822,223.54359c-2.86927,6.71215 -16.43116,7.35038 -30.29131,1.42553c-13.86015,-5.92485 -22.77004,-16.16917 -19.90077,-22.88134c2.86927,-6.71215 16.43115,-7.35037 30.2913,-1.42552c13.86015,5.92485 22.77004,16.16916 19.90077,22.88132z" data-paper-data="{&quot;origPos&quot;:null}" fill="#334355" stroke="none" stroke-width="0" stroke-linecap="butt"/><path d="M235.79765,220.38685c-2.86927,6.71215 -16.43114,7.35038 -30.29131,1.42552c-13.86015,-5.92486 -22.77004,-16.16916 -19.90077,-22.88131c2.86927,-6.71215 16.43114,-7.35038 30.29131,-1.42552c13.86015,5.92486 22.77005,16.16917 19.90078,22.88132z" data-paper-data="{&quot;origPos&quot;:null}" fill="#49617a" stroke="none" stroke-width="0" stroke-linecap="butt"/><g data-paper-data="{&quot;origPos&quot;:null}" fill="#2934a8" stroke="none" stroke-width="0" stroke-linecap="butt"><path d="M199.63284,195.77118l3.91332,-9.15453l9.15454,3.91333l-3.91332,9.15454c0,0 -1.82938,0.70208 -5.22936,-0.75132c-3.3097,-1.41481 -3.92517,-3.16201 -3.92517,-3.16201z" data-paper-data="{&quot;origPos&quot;:null}"/><path d="M201.74368,187.33959l1.07954,-2.5254l11.99559,5.1278l-1.07954,2.5254z" data-paper-data="{&quot;origPos&quot;:null}"/></g><path d="M231.6111,217.84067c-1.70757,3.87036 -8.58254,4.58544 -15.35566,1.59718c-6.77312,-2.98826 -10.87957,-8.54826 -9.172,-12.41861c1.70757,-3.87036 8.58255,-4.58544 15.35567,-1.59719c6.77312,2.98826 10.87956,8.54827 9.17199,12.41861z" data-paper-data="{&quot;origPos&quot;:null,&quot;origRot&quot;:0}" fill="url(#color-2)" stroke="none" stroke-width="0" stroke-linecap="butt"/><g data-paper-data="{&quot;origPos&quot;:null}" fill="none" stroke-width="1" stroke-linecap="round"><path d="M200.153,204.39466l9.09912,0.27871l7.45691,1.79203l5.77117,2.09502l7.06854,4.47213l3.80505,4.71068" data-paper-data="{&quot;origPos&quot;:null}" stroke="#8a8a8a"/><path d="M230.37463,219.14883l1.70391,-1.72329" data-paper-data="{&quot;origPos&quot;:null}" stroke="#8a5f00"/><path d="M227.35423,216.03733l1.90766,-1.83449" data-paper-data="{&quot;origPos&quot;:null}" stroke="#8a5f00"/><path d="M223.67629,213.41688l2.00021,-2.14944" data-paper-data="{&quot;origPos&quot;:null}" stroke="#8a5f00"/><path d="M221.54479,209.02691l-2.00021,2.14943" data-paper-data="{&quot;origPos&quot;:null}" stroke="#8a5f00"/><path d="M216.80183,207.11996l-2.25024,2.41812" data-paper-data="{&quot;origPos&quot;:null}" stroke="#8a5f00"/><path d="M209.98473,208.19614l1.79646,-2.03824" data-paper-data="{&quot;origPos&quot;:null}" stroke="#8a5f00"/><path d="M207.23302,205.33464l-1.79646,2.03823" data-paper-data="{&quot;origPos&quot;:null}" stroke="#8a5f00"/><path d="M200.1383,207.35568l2.04648,-2.30692" data-paper-data="{&quot;origPos&quot;:null}" stroke="#8a5f00"/><path d="M197.97092,207.74523l9.09912,0.27871l7.45691,1.79202l5.77117,2.09503l7.06855,4.47213l3.80504,4.71069" data-paper-data="{&quot;origPos&quot;:null}" stroke="#8a8a8a"/></g><g data-paper-data="{&quot;origPos&quot;:null}"><path d="M197.21044,203.92919l-5.79902,-2.38834l0.96208,-5.02061l7.59621,3.25858z" data-paper-data="{&quot;origPos&quot;:null}" fill="#898989" stroke="#898989" stroke-width="1" stroke-linecap="round"/><path d="M193.04662,202.96227c-0.14057,0.47835 -0.60704,0.76254 -1.0419,0.63476c-0.43486,-0.12778 -0.67343,-0.61914 -0.53287,-1.0975c0.14057,-0.47835 0.60704,-0.76254 1.0419,-0.63476c0.43486,0.12778 0.67343,0.61914 0.53287,1.0975z" data-paper-data="{&quot;origPos&quot;:null}" fill="#000000" stroke="none" stroke-width="0" stroke-linecap="butt"/><path d="M196.68725,204.54528c-0.14057,0.47835 -0.60703,0.76254 -1.04189,0.63476c-0.43486,-0.12778 -0.67344,-0.61914 -0.53288,-1.0975c0.14057,-0.47835 0.60704,-0.76254 1.04189,-0.63476c0.43486,0.12778 0.67343,0.61914 0.53288,1.0975z" data-paper-data="{&quot;origPos&quot;:null}" fill="#000000" stroke="none" stroke-width="0" stroke-linecap="butt"/></g></g><g data-paper-data="{&quot;origRot&quot;:0,&quot;origPos&quot;:null}"><path d="M299.47755,197.27862c2.98667,7.46676 -7.09125,18.51933 -22.5096,24.68661c-15.41838,6.16727 -30.33861,5.11383 -33.32529,-2.35292c-2.98667,-7.46676 7.09124,-18.51933 22.50962,-24.6866c15.41838,-6.16727 30.3386,-5.11385 33.32528,2.35293z" data-paper-data="{&quot;origPos&quot;:null,&quot;origRot&quot;:0}" fill="#2a8ead" stroke="none" stroke-width="0" stroke-linecap="butt"/><path d="M298.07289,193.76696c2.98667,7.46676 -7.09123,18.51932 -22.50961,24.68659c-15.41838,6.16727 -30.33861,5.11385 -33.32528,-2.35291c-2.98667,-7.46676 7.09121,-18.51932 22.5096,-24.6866c15.41838,-6.16727 30.33862,-5.11384 33.3253,2.35292z" data-paper-data="{&quot;origPos&quot;:null,&quot;origRot&quot;:0}" fill="#37c3e6" stroke="none" stroke-width="0" stroke-linecap="butt"/><g data-paper-data="{&quot;origPos&quot;:null}" stroke="none" stroke-linecap="butt"><path d="M292.26282,197.16267c0,0 -0.86774,2.45689 -6.4349,4.60594c-5.49663,2.12181 -8.30781,0.86273 -8.30781,0.86273l-7.64063,-20.59797l14.7427,-5.46868z" data-paper-data="{&quot;origPos&quot;:null}" id="ID0.6036793803796172" fill="#b98c52" stroke-width="1.16723"/><path d="M276.35627,175.91836c2.55118,-0.94592 5.00052,-1.43262 6.89667,-1.45486c1.89621,-0.02222 3.23929,0.42004 3.57798,1.33207c0.3387,0.91205 1.32308,2.90947 -0.12866,4.12858c-1.39353,1.17022 -3.65216,-1.00349 -5.30914,-0.25133c-1.40481,0.63769 -0.88358,3.6538 -2.41632,3.8294c-2.56814,0.29422 -2.81236,-2.12434 -5.23607,-1.22568c-2.55118,0.94591 -0.99398,4.56897 -2.89014,4.59121c-1.89622,0.02222 -2.17495,-3.30303 -2.51366,-4.21507c-0.3387,-0.91204 0.39054,-2.12266 1.84228,-3.34177c1.45171,-1.21906 3.6259,-2.44664 6.17707,-3.39255z" data-paper-data="{&quot;origPos&quot;:null}" id="ID0.6792544075287879" fill="#3ed462" stroke-width="0.55092"/></g><g data-paper-data="{&quot;origPos&quot;:null}" stroke="none" stroke-linecap="butt"><path d="M263.55383,206.02673c0,0 -0.86774,2.45689 -6.4349,4.60594c-5.49663,2.12181 -8.30781,0.86273 -8.30781,0.86273l-7.64063,-20.59797l14.7427,-5.46868z" data-paper-data="{&quot;origPos&quot;:null}" id="ID0.6036793803796172" fill="#8d6b3e" stroke-width="1.16723"/><path d="M247.64728,184.7824c2.55118,-0.94592 5.00052,-1.43262 6.89667,-1.45486c1.89621,-0.02222 3.23929,0.42004 3.57798,1.33207c0.3387,0.91205 1.32308,2.90947 -0.12866,4.12858c-1.39353,1.17022 -3.65216,-1.00349 -5.30914,-0.25133c-1.40481,0.63769 -0.88358,3.6538 -2.41632,3.8294c-2.56814,0.29422 -2.81236,-2.12434 -5.23607,-1.22568c-2.55118,0.94591 -0.99398,4.56897 -2.89014,4.59121c-1.89622,0.02222 -2.17495,-3.30303 -2.51366,-4.21507c-0.3387,-0.91204 0.39054,-2.12266 1.84228,-3.34177c1.45171,-1.21906 3.6259,-2.44664 6.17707,-3.39255z" data-paper-data="{&quot;origPos&quot;:null}" id="ID0.6792544075287879" fill="#34b351" stroke-width="0.55092"/></g><g data-paper-data="{&quot;origPos&quot;:null}" stroke="#000000" stroke-width="0" stroke-linecap="round"><path d="M244.48221,188.13175l4.57243,-2.05036l15.56223,5.25193l-6.22896,2.66438z" data-paper-data="{&quot;origPos&quot;:null}" fill="#b98c52"/><path d="M258.99227,194.09362l1.51768,4.09444l-15.02439,-7.15768l-0.97209,-2.91024z" data-paper-data="{&quot;origPos&quot;:null}" fill="#a27a47"/></g><path d="M276.14591,182.82723l1.94955,0.94375l1.39021,0.87335l1.19291,1.77967l5.2125,13.3431l-15.87762,15.42819l-7.22457,-20.92922l11.21017,-11.47626z" data-paper-data="{&quot;origPos&quot;:null}" fill="#37c3e6" stroke="#37c3e6" stroke-width="0.5" stroke-linecap="round"/><g data-paper-data="{&quot;origPos&quot;:null}" stroke="none" stroke-linecap="butt"><path d="M277.22782,211.2676c0,0 -0.86774,2.45689 -6.4349,4.60594c-5.49663,2.12181 -8.30781,0.86273 -8.30781,0.86273l-7.64063,-20.59797l14.7427,-5.46868z" data-paper-data="{&quot;origPos&quot;:null}" id="ID0.6036793803796172" fill="#b98c52" stroke-width="1.16723"/><path d="M261.32126,190.02324c2.55118,-0.94592 5.00052,-1.43262 6.89667,-1.45486c1.89621,-0.02222 3.23929,0.42004 3.57798,1.33207c0.3387,0.91205 1.32308,2.90947 -0.12866,4.12858c-1.39353,1.17022 -3.65216,-1.00349 -5.30914,-0.25133c-1.40481,0.63769 -0.88358,3.6538 -2.41632,3.8294c-2.56814,0.29422 -2.81236,-2.12434 -5.23607,-1.22568c-2.55118,0.94591 -0.99398,4.56897 -2.89014,4.59121c-1.89622,0.02222 -2.17495,-3.30303 -2.51366,-4.21507c-0.3387,-0.91204 0.39054,-2.12266 1.84228,-3.34177c1.45171,-1.21906 3.6259,-2.44664 6.17707,-3.39255z" data-paper-data="{&quot;origPos&quot;:null}" id="ID0.6792544075287879" fill="#3ed462" stroke-width="0.55092"/></g><path d="M280.84714,205.58052c0.71982,1.94195 -0.21843,4.0803 -2.09566,4.77612c-1.87722,0.69583 -3.98254,-0.31436 -4.70236,-2.25631c-0.71982,-1.94195 0.21843,-4.0803 2.09566,-4.77612c1.87722,-0.69583 3.98254,0.31436 4.70236,2.25631z" data-paper-data="{&quot;origPos&quot;:null}" fill="#bcdde6" stroke="#37c3e6" stroke-width="0" stroke-linecap="butt"/><path d="M283.3935,197.70448c1.74776,-0.64784 3.68977,0.24382 4.33761,1.99158c0.64784,1.74776 -0.24382,3.68977 -1.99158,4.33761c-1.74776,0.64784 -3.68977,-0.24382 -4.33761,-1.99158c-0.64784,-1.74776 0.24382,-3.68977 1.99158,-4.33761z" data-paper-data="{&quot;origPos&quot;:null}" fill="#bcdde6" stroke="#37c3e6" stroke-width="0" stroke-linecap="butt"/><path d="M281.44536,202.15931c0.43189,1.16517 -0.16255,2.45985 -1.32772,2.89174c-1.16517,0.43189 -2.45985,-0.16255 -2.89174,-1.32772c-0.43189,-1.16517 0.16255,-2.45985 1.32772,-2.89174c1.16517,-0.43189 2.45985,0.16255 2.89174,1.32772z" data-paper-data="{&quot;origPos&quot;:null}" fill="#bcdde6" stroke="#37c3e6" stroke-width="0" stroke-linecap="butt"/><path d="M282.06171,201.6642c1.29464,-0.47988 2.77207,0.28556 3.29994,1.70966c0.52787,1.4241 -0.09372,2.96758 -1.38835,3.44746c-1.29464,0.47988 -2.77207,-0.28556 -3.29994,-1.70966c-0.52787,-1.4241 0.09372,-2.96758 1.38835,-3.44746z" data-paper-data="{&quot;origPos&quot;:null}" fill="#bcdde6" stroke="#37c3e6" stroke-width="0" stroke-linecap="butt"/><path d="M276.93898,202.22996l-3.04116,-8.2045" data-paper-data="{&quot;origPos&quot;:null}" fill="none" stroke="#bcdde6" stroke-width="1.5" stroke-linecap="round"/><path d="M275.97128,187.39119l1.91158,5.15712" data-paper-data="{&quot;origPos&quot;:null}" fill="none" stroke="#bcdde6" stroke-width="1.5" stroke-linecap="round"/><path d="M282.46802,194.84808l1.56402,4.21946" data-paper-data="{&quot;origPos&quot;:null}" fill="none" stroke="#bcdde6" stroke-width="1.5" stroke-linecap="round"/><path d="M272.57633,187.58312l-2.07535,-0.56384" data-paper-data="{&quot;origPos&quot;:null}" fill="none" stroke="#bcdde6" stroke-width="1.5" stroke-linecap="round"/><path d="M274.98923,184.02252l3.03927,1.00641l1.01643,2.02284" data-paper-data="{&quot;origPos&quot;:null}" fill="none" stroke="#bcdde6" stroke-width="1.5" stroke-linecap="round"/></g></g></g></svg>