<svg version="1.1" xmlns="http://www.w3.org/2000/svg" xmlns:xlink="http://www.w3.org/1999/xlink" width="30.35" height="30.2" viewBox="0,0,30.35,30.2"><defs><radialGradient cx="240.2237" cy="179.6247" r="19.1104" gradientUnits="userSpaceOnUse" id="color-1"><stop offset="0" stop-color="#d533ff"/><stop offset="1" stop-color="#d533ff" stop-opacity="0"/></radialGradient></defs><g transform="translate(-225.075,-164.825)"><g data-paper-data="{&quot;isPaintingLayer&quot;:true}" fill-rule="nonzero" stroke-linejoin="miter" stroke-miterlimit="10" stroke-dasharray="" stroke-dashoffset="0" style="mix-blend-mode: normal"><g data-paper-data="{&quot;origPos&quot;:null}"><path d="M239.9,165.675c3.952,0 7.533,1.605 10.127,4.198c2.593,2.594 4.198,6.175 4.198,10.127c0,3.952 -1.605,7.533 -4.198,10.127c-2.594,2.593 -6.175,4.198 -10.127,4.198c-3.952,0 -7.533,-1.605 -10.127,-4.198c-2.593,-2.594 -4.198,-6.175 -4.198,-10.127c0,-3.952 1.605,-7.533 4.198,-10.127c2.594,-2.593 6.175,-4.198 10.127,-4.198z" fill="url(#color-1)" stroke="none" stroke-width="1" stroke-linecap="butt"/><path d="M243.875,166.025c0,0 2.132,0.746 3.1,1.3c1.119,0.64 2.126,1.365 3.15,2.25c0.876,0.796 1.677,1.736 2.25,2.75c0.763,1.351 1.8,4.3 1.8,4.3" fill="none" stroke="#d533ff" stroke-width="2" stroke-linecap="round"/><path d="M226.075,176.425c0,0 1.037,-2.949 1.8,-4.3c0.573,-1.014 1.374,-1.954 2.25,-2.75c1.024,-0.885 2.031,-1.61 3.15,-2.25c0.968,-0.554 3.1,-1.3 3.1,-1.3" fill="none" stroke="#d533ff" stroke-width="2" stroke-linecap="round"/><path d="M254.425,183.375c0,0 -1.037,2.949 -1.8,4.3c-0.573,1.014 -1.374,1.954 -2.25,2.75c-1.024,0.885 -2.031,1.61 -3.15,2.25c-0.968,0.554 -3.1,1.3 -3.1,1.3" fill="none" stroke="#d533ff" stroke-width="2" stroke-linecap="round"/><path d="M236.525,194.025c0,0 -2.132,-0.746 -3.1,-1.3c-1.119,-0.64 -2.126,-1.365 -3.15,-2.25c-0.876,-0.796 -1.677,-1.736 -2.25,-2.75c-0.763,-1.351 -1.8,-4.3 -1.8,-4.3" fill="none" stroke="#d533ff" stroke-width="2" stroke-linecap="round"/></g><path d="M242.2086,171.2846c0,0 1.3413,0.4693 1.9503,0.8179c0.704,0.4026 1.3376,0.8588 1.9818,1.4155c0.5512,0.5008 1.0551,1.0922 1.4156,1.7302c0.48,0.8499 1.1324,2.7053 1.1324,2.7053" fill="none" stroke="#d533ff" stroke-width="2" stroke-linecap="round"/><path d="M231.1613,177.8035c0,0 0.6524,-1.8554 1.1324,-2.7053c0.3605,-0.638 0.8644,-1.2294 1.4156,-1.7302c0.6442,-0.5567 1.2778,-1.0129 1.9818,-1.4155c0.609,-0.3486 1.9503,-0.8179 1.9503,-0.8179" fill="none" stroke="#d533ff" stroke-width="2" stroke-linecap="round"/><path d="M248.8387,182.1465c0,0 -0.6524,1.8554 -1.1324,2.7053c-0.3605,0.638 -0.8644,1.2294 -1.4156,1.7302c-0.6442,0.5567 -1.2778,1.0129 -1.9818,1.4155c-0.609,0.3486 -1.9503,0.8179 -1.9503,0.8179" fill="none" stroke="#d533ff" stroke-width="2" stroke-linecap="round"/><path d="M237.6914,188.8654c0,0 -1.3413,-0.4693 -1.9503,-0.8179c-0.704,-0.4026 -1.3376,-0.8588 -1.9818,-1.4155c-0.5512,-0.5008 -1.0551,-1.0922 -1.4156,-1.7302c-0.48,-0.8499 -1.1324,-2.7053 -1.1324,-2.7053" fill="none" stroke="#d533ff" stroke-width="2" stroke-linecap="round"/><g fill="#ffffff" stroke="none" stroke-width="0.79679" stroke-linecap="butt"><path d="M239.0217,176.5606c0.9246,0.7943 1.7589,1.9644 2.2812,3.3219c0.5223,1.3574 0.6342,2.6469 0.3949,3.6337c-0.2403,0.9869 -0.8338,1.6713 -1.7217,1.8181c-0.888,0.1468 -1.9057,-0.2714 -2.8313,-1.0656c-0.9246,-0.7943 -1.7589,-1.9644 -2.2812,-3.3219c-0.5223,-1.3574 -0.6342,-2.6469 -0.3949,-3.6336c0.2403,-0.9869 0.8338,-1.6714 1.7217,-1.8182c0.888,-0.1468 1.9057,0.2714 2.8313,1.0656z"/><path d="M243.3096,175.495c0.8879,0.1468 1.4814,0.8313 1.7217,1.8182c0.2393,0.9867 0.1274,2.2762 -0.3949,3.6336c-0.5223,1.3575 -1.3566,2.5276 -2.2812,3.3219c-0.9256,0.7942 -1.9433,1.2124 -2.8313,1.0656c-0.8879,-0.1468 -1.4814,-0.8312 -1.7217,-1.8181c-0.2393,-0.9868 -0.1274,-2.2763 0.3949,-3.6337c0.5223,-1.3575 1.3566,-2.5276 2.2812,-3.3219c0.9256,-0.7942 1.9433,-1.2124 2.8313,-1.0656z"/></g><path d="M238.2344,177.3685c2.0781,0.1122 3.1409,0.1832 3.188,0.2125l1.2753,2.267l-1.1807,1.2046l0.7793,1.0625c-0.2186,1.0688 -0.3603,1.6059 -0.425,1.6059c-0.1596,0.065 -0.8739,0.3954 -2.1491,0.9918c-1.5232,-0.6671 -2.326,-1.0332 -2.4088,-1.11l-0.3779,-1.6056l0.9446,-0.921c-0.785,-1.2457 -1.1806,-1.8835 -1.1806,-1.9128v-0.0236c0.0353,-0.0178 0.5492,-0.6081 1.5349,-1.7713zM238.8958,179.7066c0.4721,0.5193 0.726,0.8203 0.7556,0.8971l0.8029,-0.9917l-0.3779,-0.6139c-0.5667,0 -0.85,0.0414 -0.85,0.1181c-0.2185,0.36 -0.3306,0.5608 -0.3306,0.5904zM239.1082,182.2804c0.2304,0.49 0.3543,0.7321 0.3779,0.7321c0.2893,0 0.4546,-0.0707 0.496,-0.2125c0.1711,-0.2185 0.295,-0.3957 0.3778,-0.5432l-0.5667,-0.5432h-0.0239c-0.4425,0.3661 -0.6611,0.555 -0.6611,0.5668z" fill="#d533ff" stroke="none" stroke-width="0.30227" stroke-linecap="butt"/></g></g></svg>