<svg version="1.1" xmlns="http://www.w3.org/2000/svg" xmlns:xlink="http://www.w3.org/1999/xlink" width="258.11701" height="25.80007" viewBox="0,0,258.11701,25.80007"><g transform="translate(-227.1,-167.09996)"><g data-paper-data="{&quot;isPaintingLayer&quot;:true}" fill-rule="nonzero" stroke="none" stroke-linecap="butt" stroke-linejoin="miter" stroke-miterlimit="10" stroke-dasharray="" stroke-dashoffset="0" style="mix-blend-mode: normal"><g><path d="M240.00004,167.09996c3.55909,0 6.78343,1.44613 9.11867,3.78136c2.33524,2.33524 3.78136,5.55958 3.78136,9.11867c0,3.55909 -1.44613,6.78343 -3.78136,9.11867c-2.33524,2.33524 -5.55958,3.78136 -9.11867,3.78136c-3.55909,0 -6.78343,-1.44613 -9.11867,-3.78136c-2.33524,-2.33524 -3.78136,-5.55958 -3.78136,-9.11867c0,-3.55909 1.44613,-6.78343 3.78136,-9.11867c2.33524,-2.33524 5.55958,-3.78136 9.11867,-3.78136z" fill="#ff561d" stroke-width="1"/><path d="M239.93755,169.44102c2.91117,0 5.54847,1.18283 7.4586,3.09297c1.91013,1.91 3.09297,4.54743 3.09297,7.4586c0,2.91104 -1.18283,5.54847 -3.09297,7.4586c-1.91013,1.91 -4.54743,3.09297 -7.4586,3.09297c-2.91117,0 -5.54847,-1.18297 -7.4586,-3.09297c-1.91013,-1.91013 -3.09297,-4.54756 -3.09297,-7.4586c0,-2.91117 1.18283,-5.5486 3.09297,-7.4586c1.91013,-1.91013 4.54743,-3.09297 7.4586,-3.09297z" fill="#ff9e23" stroke-width="0.81795"/><path d="M239.84971,172.69289c1.98938,0 3.79182,0.80827 5.09717,2.11362c1.30522,1.30535 2.11362,3.10765 2.11362,5.09717c0,1.98938 -0.8084,3.79168 -2.11362,5.09704c-1.30535,1.30535 -3.10778,2.11375 -5.09717,2.11375c-1.98938,0 -3.79182,-0.8084 -5.09704,-2.11375c-1.30535,-1.30535 -2.11375,-3.10765 -2.11375,-5.09704c0,-1.98952 0.8084,-3.79182 2.11375,-5.09717c1.30522,-1.30535 3.10765,-2.11362 5.09704,-2.11362z" fill="#ffe21d" stroke-width="0.55898"/></g><g><path d="M265.65031,167.09997c3.55909,0 6.78344,1.44613 9.11867,3.78136c2.33523,2.33524 3.78137,5.55958 3.78137,9.11867c0,3.55909 -1.44613,6.78343 -3.78137,9.11867c-2.33524,2.33524 -5.55959,3.78136 -9.11867,3.78136c-3.55909,0 -6.78344,-1.44613 -9.11867,-3.78136c-2.33524,-2.33524 -3.78136,-5.55958 -3.78136,-9.11867c0,-3.55909 1.44613,-6.78343 3.78136,-9.11867c2.33524,-2.33524 5.55959,-3.78136 9.11867,-3.78136z" fill="#ff561d" stroke-width="1"/><path d="M265.58786,169.44103c2.91118,0 5.54848,1.18283 7.45861,3.09296c1.91013,1.91 3.09296,4.54743 3.09296,7.4586c0,2.91104 -1.18283,5.54847 -3.09296,7.45861c-1.91013,1.91 -4.54743,3.09296 -7.45861,3.09296c-2.91118,0 -5.54847,-1.18296 -7.4586,-3.09296c-1.91013,-1.91013 -3.09297,-4.54756 -3.09297,-7.45861c0,-2.91118 1.18283,-5.5486 3.09297,-7.4586c1.91013,-1.91013 4.54743,-3.09296 7.4586,-3.09296z" fill="#ff9e23" stroke-width="0.81795"/><path d="M265.50001,172.69289c1.98939,0 3.79182,0.80827 5.09717,2.11362c1.30522,1.30535 2.11362,3.10765 2.11362,5.09717c0,1.98938 -0.8084,3.79169 -2.11362,5.09704c-1.30535,1.30535 -3.10778,2.11375 -5.09717,2.11375c-1.98939,0 -3.79182,-0.8084 -5.09704,-2.11375c-1.30535,-1.30535 -2.11375,-3.10765 -2.11375,-5.09704c0,-1.98952 0.8084,-3.79182 2.11375,-5.09717c1.30522,-1.30535 3.10766,-2.11362 5.09704,-2.11362z" fill="#ffe21d" stroke-width="0.55898"/></g><g><path d="M291.5506,167.09997c3.55909,0 6.78344,1.44613 9.11867,3.78136c2.33524,2.33524 3.78137,5.55958 3.78137,9.11867c0,3.55909 -1.44613,6.78343 -3.78137,9.11867c-2.33524,2.33524 -5.55959,3.78136 -9.11867,3.78136c-3.55909,0 -6.78344,-1.44613 -9.11867,-3.78136c-2.33524,-2.33524 -3.78137,-5.55958 -3.78137,-9.11867c0,-3.55909 1.44613,-6.78343 3.78137,-9.11867c2.33524,-2.33524 5.55959,-3.78136 9.11867,-3.78136z" fill="#ff561d" stroke-width="1"/><path d="M291.48814,169.44103c2.91118,0 5.54848,1.18283 7.45861,3.09296c1.91013,1.91 3.09297,4.54743 3.09297,7.4586c0,2.91104 -1.18284,5.54847 -3.09297,7.45861c-1.91013,1.91 -4.54743,3.09296 -7.45861,3.09296c-2.91118,0 -5.54847,-1.18296 -7.4586,-3.09296c-1.91013,-1.91013 -3.09296,-4.54756 -3.09296,-7.45861c0,-2.91118 1.18283,-5.5486 3.09296,-7.4586c1.91013,-1.91013 4.54743,-3.09296 7.4586,-3.09296z" fill="#ff9e23" stroke-width="0.81795"/><path d="M291.40029,172.69289c1.98939,0 3.79182,0.80827 5.09717,2.11362c1.30522,1.30535 2.11362,3.10765 2.11362,5.09717c0,1.98938 -0.8084,3.79169 -2.11362,5.09704c-1.30535,1.30535 -3.10778,2.11375 -5.09717,2.11375c-1.98939,0 -3.79182,-0.8084 -5.09704,-2.11375c-1.30535,-1.30535 -2.11375,-3.10765 -2.11375,-5.09704c0,-1.98952 0.8084,-3.79182 2.11375,-5.09717c1.30522,-1.30535 3.10766,-2.11362 5.09704,-2.11362z" fill="#ffe21d" stroke-width="0.55898"/></g><g><path d="M317.2009,167.09997c3.55908,0 6.78343,1.44613 9.11867,3.78136c2.33524,2.33524 3.78136,5.55958 3.78136,9.11867c0,3.55909 -1.44613,6.78343 -3.78136,9.11867c-2.33524,2.33524 -5.55958,3.78136 -9.11867,3.78136c-3.55908,0 -6.78343,-1.44613 -9.11867,-3.78136c-2.33524,-2.33524 -3.78137,-5.55958 -3.78137,-9.11867c0,-3.55909 1.44613,-6.78343 3.78137,-9.11867c2.33524,-2.33524 5.55959,-3.78136 9.11867,-3.78136z" fill="#ff561d" stroke-width="1"/><path d="M317.13845,169.44103c2.91118,0 5.54847,1.18283 7.4586,3.09296c1.91013,1.91 3.09296,4.54743 3.09296,7.4586c0,2.91104 -1.18284,5.54847 -3.09296,7.45861c-1.91013,1.91 -4.54743,3.09296 -7.4586,3.09296c-2.91118,0 -5.54847,-1.18296 -7.4586,-3.09296c-1.91013,-1.91013 -3.09297,-4.54756 -3.09297,-7.45861c0,-2.91118 1.18284,-5.5486 3.09297,-7.4586c1.91013,-1.91013 4.54742,-3.09296 7.4586,-3.09296z" fill="#ff9e23" stroke-width="0.81795"/><path d="M317.0506,172.69289c1.98939,0 3.79181,0.80827 5.09716,2.11362c1.30522,1.30535 2.11362,3.10765 2.11362,5.09717c0,1.98938 -0.8084,3.79169 -2.11362,5.09704c-1.30535,1.30535 -3.10778,2.11375 -5.09716,2.11375c-1.98939,0 -3.79182,-0.8084 -5.09704,-2.11375c-1.30535,-1.30535 -2.11375,-3.10765 -2.11375,-5.09704c0,-1.98952 0.8084,-3.79182 2.11375,-5.09717c1.30522,-1.30535 3.10765,-2.11362 5.09704,-2.11362z" fill="#ffe21d" stroke-width="0.55898"/></g><g><path d="M343.00001,167.09997c3.55908,0 6.78343,1.44613 9.11867,3.78136c2.33524,2.33524 3.78136,5.55958 3.78136,9.11867c0,3.55909 -1.44613,6.78343 -3.78136,9.11867c-2.33524,2.33524 -5.55959,3.78136 -9.11867,3.78136c-3.55908,0 -6.78343,-1.44613 -9.11867,-3.78136c-2.33524,-2.33524 -3.78136,-5.55958 -3.78136,-9.11867c0,-3.55909 1.44613,-6.78343 3.78136,-9.11867c2.33524,-2.33524 5.55959,-3.78136 9.11867,-3.78136z" fill="#ff561d" stroke-width="1"/><path d="M342.93757,169.44103c2.91118,0 5.54847,1.18283 7.45861,3.09296c1.91013,1.91 3.09296,4.54743 3.09296,7.4586c0,2.91104 -1.18284,5.54847 -3.09296,7.45861c-1.91013,1.91 -4.54743,3.09296 -7.45861,3.09296c-2.91118,0 -5.54847,-1.18296 -7.4586,-3.09296c-1.91013,-1.91013 -3.09296,-4.54756 -3.09296,-7.45861c0,-2.91118 1.18283,-5.5486 3.09296,-7.4586c1.91013,-1.91013 4.54742,-3.09296 7.4586,-3.09296z" fill="#ff9e23" stroke-width="0.81795"/><path d="M342.84972,172.69289c1.98939,0 3.79182,0.80827 5.09717,2.11362c1.30522,1.30535 2.11362,3.10765 2.11362,5.09717c0,1.98938 -0.8084,3.79169 -2.11362,5.09704c-1.30535,1.30535 -3.10778,2.11375 -5.09717,2.11375c-1.98938,0 -3.79182,-0.8084 -5.09704,-2.11375c-1.30535,-1.30535 -2.11375,-3.10765 -2.11375,-5.09704c0,-1.98952 0.8084,-3.79182 2.11375,-5.09717c1.30522,-1.30535 3.10766,-2.11362 5.09704,-2.11362z" fill="#ffe21d" stroke-width="0.55898"/></g><g><path d="M368.90032,167.09997c3.55908,0 6.78343,1.44613 9.11867,3.78136c2.33524,2.33524 3.78136,5.55958 3.78136,9.11867c0,3.55909 -1.44613,6.78343 -3.78136,9.11867c-2.33524,2.33524 -5.55958,3.78136 -9.11867,3.78136c-3.55908,0 -6.78343,-1.44613 -9.11867,-3.78136c-2.33524,-2.33524 -3.78136,-5.55958 -3.78136,-9.11867c0,-3.55909 1.44613,-6.78343 3.78136,-9.11867c2.33524,-2.33524 5.55959,-3.78136 9.11867,-3.78136z" fill="#ff561d" stroke-width="1"/><path d="M368.83787,169.44103c2.91118,0 5.54847,1.18283 7.4586,3.09296c1.91013,1.91 3.09296,4.54743 3.09296,7.4586c0,2.91104 -1.18284,5.54847 -3.09296,7.45861c-1.91013,1.91 -4.54743,3.09296 -7.4586,3.09296c-2.91118,0 -5.54847,-1.18296 -7.4586,-3.09296c-1.91013,-1.91013 -3.09296,-4.54756 -3.09296,-7.45861c0,-2.91118 1.18284,-5.5486 3.09296,-7.4586c1.91013,-1.91013 4.54742,-3.09296 7.4586,-3.09296z" fill="#ff9e23" stroke-width="0.81795"/><path d="M368.75001,172.69289c1.98939,0 3.79181,0.80827 5.09716,2.11362c1.30522,1.30535 2.11362,3.10765 2.11362,5.09717c0,1.98938 -0.8084,3.79169 -2.11362,5.09704c-1.30535,1.30535 -3.10778,2.11375 -5.09716,2.11375c-1.98939,0 -3.79182,-0.8084 -5.09704,-2.11375c-1.30535,-1.30535 -2.11375,-3.10765 -2.11375,-5.09704c0,-1.98952 0.8084,-3.79182 2.11375,-5.09717c1.30522,-1.30535 3.10765,-2.11362 5.09704,-2.11362z" fill="#ffe21d" stroke-width="0.55898"/></g><g><path d="M394.75001,167.09997c3.55908,0 6.78343,1.44613 9.11867,3.78136c2.33524,2.33524 3.78136,5.55958 3.78136,9.11867c0,3.55909 -1.44613,6.78343 -3.78136,9.11867c-2.33524,2.33524 -5.55959,3.78136 -9.11867,3.78136c-3.55908,0 -6.78343,-1.44613 -9.11867,-3.78136c-2.33524,-2.33524 -3.78136,-5.55958 -3.78136,-9.11867c0,-3.55909 1.44613,-6.78343 3.78136,-9.11867c2.33524,-2.33524 5.55959,-3.78136 9.11867,-3.78136z" fill="#ff561d" stroke-width="1"/><path d="M394.68757,169.44103c2.91118,0 5.54847,1.18283 7.45861,3.09296c1.91013,1.91 3.09296,4.54743 3.09296,7.4586c0,2.91104 -1.18284,5.54847 -3.09296,7.45861c-1.91013,1.91 -4.54743,3.09296 -7.45861,3.09296c-2.91118,0 -5.54847,-1.18296 -7.4586,-3.09296c-1.91013,-1.91013 -3.09296,-4.54756 -3.09296,-7.45861c0,-2.91118 1.18283,-5.5486 3.09296,-7.4586c1.91013,-1.91013 4.54742,-3.09296 7.4586,-3.09296z" fill="#ff9e23" stroke-width="0.81795"/><path d="M394.59972,172.69289c1.98939,0 3.79182,0.80827 5.09717,2.11362c1.30522,1.30535 2.11362,3.10765 2.11362,5.09717c0,1.98938 -0.8084,3.79169 -2.11362,5.09704c-1.30535,1.30535 -3.10778,2.11375 -5.09717,2.11375c-1.98938,0 -3.79182,-0.8084 -5.09704,-2.11375c-1.30535,-1.30535 -2.11375,-3.10765 -2.11375,-5.09704c0,-1.98952 0.8084,-3.79182 2.11375,-5.09717c1.30522,-1.30535 3.10766,-2.11362 5.09704,-2.11362z" fill="#ffe21d" stroke-width="0.55898"/></g><g><path d="M420.65032,167.09997c3.55908,0 6.78343,1.44613 9.11867,3.78136c2.33524,2.33524 3.78136,5.55958 3.78136,9.11867c0,3.55909 -1.44613,6.78343 -3.78136,9.11867c-2.33524,2.33524 -5.55958,3.78136 -9.11867,3.78136c-3.55908,0 -6.78343,-1.44613 -9.11867,-3.78136c-2.33524,-2.33524 -3.78136,-5.55958 -3.78136,-9.11867c0,-3.55909 1.44613,-6.78343 3.78136,-9.11867c2.33524,-2.33524 5.55959,-3.78136 9.11867,-3.78136z" fill="#ff561d" stroke-width="1"/><path d="M420.58787,169.44103c2.91118,0 5.54847,1.18283 7.4586,3.09296c1.91013,1.91 3.09296,4.54743 3.09296,7.4586c0,2.91104 -1.18284,5.54847 -3.09296,7.45861c-1.91013,1.91 -4.54743,3.09296 -7.4586,3.09296c-2.91118,0 -5.54847,-1.18296 -7.4586,-3.09296c-1.91013,-1.91013 -3.09296,-4.54756 -3.09296,-7.45861c0,-2.91118 1.18284,-5.5486 3.09296,-7.4586c1.91013,-1.91013 4.54742,-3.09296 7.4586,-3.09296z" fill="#ff9e23" stroke-width="0.81795"/><path d="M420.50001,172.69289c1.98939,0 3.79181,0.80827 5.09716,2.11362c1.30522,1.30535 2.11362,3.10765 2.11362,5.09717c0,1.98938 -0.8084,3.79169 -2.11362,5.09704c-1.30535,1.30535 -3.10778,2.11375 -5.09716,2.11375c-1.98939,0 -3.79182,-0.8084 -5.09704,-2.11375c-1.30535,-1.30535 -2.11375,-3.10765 -2.11375,-5.09704c0,-1.98952 0.8084,-3.79182 2.11375,-5.09717c1.30522,-1.30535 3.10765,-2.11362 5.09704,-2.11362z" fill="#ffe21d" stroke-width="0.55898"/></g><g><path d="M446.41668,167.09997c3.55908,0 6.78343,1.44613 9.11867,3.78136c2.33524,2.33524 3.78136,5.55958 3.78136,9.11867c0,3.55909 -1.44613,6.78343 -3.78136,9.11867c-2.33524,2.33524 -5.55959,3.78136 -9.11867,3.78136c-3.55908,0 -6.78343,-1.44613 -9.11867,-3.78136c-2.33524,-2.33524 -3.78136,-5.55958 -3.78136,-9.11867c0,-3.55909 1.44613,-6.78343 3.78136,-9.11867c2.33524,-2.33524 5.55959,-3.78136 9.11867,-3.78136z" fill="#ff561d" stroke-width="1"/><path d="M446.35423,169.44103c2.91118,0 5.54847,1.18283 7.45861,3.09296c1.91013,1.91 3.09296,4.54743 3.09296,7.4586c0,2.91104 -1.18284,5.54847 -3.09296,7.45861c-1.91013,1.91 -4.54743,3.09296 -7.45861,3.09296c-2.91118,0 -5.54847,-1.18296 -7.4586,-3.09296c-1.91013,-1.91013 -3.09296,-4.54756 -3.09296,-7.45861c0,-2.91118 1.18283,-5.5486 3.09296,-7.4586c1.91013,-1.91013 4.54742,-3.09296 7.4586,-3.09296z" fill="#ff9e23" stroke-width="0.81795"/><path d="M446.26638,172.69289c1.98939,0 3.79182,0.80827 5.09717,2.11362c1.30522,1.30535 2.11362,3.10765 2.11362,5.09717c0,1.98938 -0.8084,3.79169 -2.11362,5.09704c-1.30535,1.30535 -3.10778,2.11375 -5.09717,2.11375c-1.98938,0 -3.79182,-0.8084 -5.09704,-2.11375c-1.30535,-1.30535 -2.11375,-3.10765 -2.11375,-5.09704c0,-1.98952 0.8084,-3.79182 2.11375,-5.09717c1.30522,-1.30535 3.10766,-2.11362 5.09704,-2.11362z" fill="#ffe21d" stroke-width="0.55898"/></g><g><path d="M472.31698,167.09997c3.55908,0 6.78343,1.44613 9.11867,3.78136c2.33524,2.33524 3.78136,5.55958 3.78136,9.11867c0,3.55909 -1.44613,6.78343 -3.78136,9.11867c-2.33524,2.33524 -5.55958,3.78136 -9.11867,3.78136c-3.55908,0 -6.78343,-1.44613 -9.11867,-3.78136c-2.33524,-2.33524 -3.78136,-5.55958 -3.78136,-9.11867c0,-3.55909 1.44613,-6.78343 3.78136,-9.11867c2.33524,-2.33524 5.55959,-3.78136 9.11867,-3.78136z" fill="#ff561d" stroke-width="1"/><path d="M472.25453,169.44103c2.91118,0 5.54847,1.18283 7.4586,3.09296c1.91013,1.91 3.09296,4.54743 3.09296,7.4586c0,2.91104 -1.18284,5.54847 -3.09296,7.45861c-1.91013,1.91 -4.54743,3.09296 -7.4586,3.09296c-2.91118,0 -5.54847,-1.18296 -7.4586,-3.09296c-1.91013,-1.91013 -3.09296,-4.54756 -3.09296,-7.45861c0,-2.91118 1.18284,-5.5486 3.09296,-7.4586c1.91013,-1.91013 4.54742,-3.09296 7.4586,-3.09296z" fill="#ff9e23" stroke-width="0.81795"/><path d="M472.16668,172.69289c1.98939,0 3.79181,0.80827 5.09716,2.11362c1.30522,1.30535 2.11362,3.10765 2.11362,5.09717c0,1.98938 -0.8084,3.79169 -2.11362,5.09704c-1.30535,1.30535 -3.10778,2.11375 -5.09716,2.11375c-1.98939,0 -3.79182,-0.8084 -5.09704,-2.11375c-1.30535,-1.30535 -2.11375,-3.10765 -2.11375,-5.09704c0,-1.98952 0.8084,-3.79182 2.11375,-5.09717c1.30522,-1.30535 3.10765,-2.11362 5.09704,-2.11362z" fill="#ffe21d" stroke-width="0.55898"/></g></g></g></svg>