<svg version="1.1" xmlns="http://www.w3.org/2000/svg" xmlns:xlink="http://www.w3.org/1999/xlink" width="530.31172" height="399.34047" viewBox="0,0,530.31172,399.34047"><defs><linearGradient x1="-4.20632" y1="-8.42707" x2="-4.20632" y2="364.77473" gradientUnits="userSpaceOnUse" id="color-1"><stop offset="0" stop-color="#7fb8ff"/><stop offset="1" stop-color="#a0ff7b"/></linearGradient><linearGradient x1="245.77493" y1="275.86644" x2="245.77493" y2="391.86644" gradientUnits="userSpaceOnUse" id="color-2"><stop offset="0" stop-color="#75d1ff"/><stop offset="1" stop-color="#75d1ff" stop-opacity="0"/></linearGradient><linearGradient x1="302.28324" y1="244.96938" x2="302.28324" y2="366.56912" gradientUnits="userSpaceOnUse" id="color-3"><stop offset="0" stop-color="#f5e862"/><stop offset="1" stop-color="#e0bc5c"/></linearGradient><linearGradient x1="-21.4259" y1="211.40155" x2="-21.4259" y2="233.05799" gradientUnits="userSpaceOnUse" id="color-4"><stop offset="0" stop-color="#70b562"/><stop offset="1" stop-color="#457d49"/></linearGradient><linearGradient x1="-13.26662" y1="197.26475" x2="-13.26662" y2="218.92116" gradientUnits="userSpaceOnUse" id="color-5"><stop offset="0" stop-color="#70b562"/><stop offset="1" stop-color="#457d49"/></linearGradient><linearGradient x1="5.58414" y1="188.84281" x2="5.58414" y2="210.49923" gradientUnits="userSpaceOnUse" id="color-6"><stop offset="0" stop-color="#70b562"/><stop offset="1" stop-color="#457d49"/></linearGradient><linearGradient x1="9.5231" y1="207.1906" x2="9.5231" y2="228.84703" gradientUnits="userSpaceOnUse" id="color-7"><stop offset="0" stop-color="#70b562"/><stop offset="1" stop-color="#457d49"/></linearGradient><linearGradient x1="-3.70056" y1="211.40155" x2="-3.70056" y2="233.05799" gradientUnits="userSpaceOnUse" id="color-8"><stop offset="0" stop-color="#70b562"/><stop offset="1" stop-color="#457d49"/></linearGradient><linearGradient x1="26.68572" y1="211.10079" x2="26.68572" y2="232.75721" gradientUnits="userSpaceOnUse" id="color-9"><stop offset="0" stop-color="#70b562"/><stop offset="1" stop-color="#457d49"/></linearGradient><linearGradient x1="27.81115" y1="195.46005" x2="27.81115" y2="217.11646" gradientUnits="userSpaceOnUse" id="color-10"><stop offset="0" stop-color="#70b562"/><stop offset="1" stop-color="#457d49"/></linearGradient><linearGradient x1="44.27039" y1="181.624" x2="44.27039" y2="203.28042" gradientUnits="userSpaceOnUse" id="color-11"><stop offset="0" stop-color="#70b562"/><stop offset="1" stop-color="#457d49"/></linearGradient><linearGradient x1="58.90082" y1="192.75299" x2="58.90082" y2="214.40938" gradientUnits="userSpaceOnUse" id="color-12"><stop offset="0" stop-color="#70b562"/><stop offset="1" stop-color="#457d49"/></linearGradient><linearGradient x1="45.11445" y1="199.37023" x2="45.11445" y2="221.02665" gradientUnits="userSpaceOnUse" id="color-13"><stop offset="0" stop-color="#70b562"/><stop offset="1" stop-color="#457d49"/></linearGradient><linearGradient x1="95.61759" y1="184.33106" x2="95.61759" y2="205.98745" gradientUnits="userSpaceOnUse" id="color-14"><stop offset="0" stop-color="#70b562"/><stop offset="1" stop-color="#457d49"/></linearGradient><linearGradient x1="55.38389" y1="210.49923" x2="55.38389" y2="232.15564" gradientUnits="userSpaceOnUse" id="color-15"><stop offset="0" stop-color="#70b562"/><stop offset="1" stop-color="#457d49"/></linearGradient><linearGradient x1="77.0482" y1="199.671" x2="77.0482" y2="221.32743" gradientUnits="userSpaceOnUse" id="color-16"><stop offset="0" stop-color="#70b562"/><stop offset="1" stop-color="#457d49"/></linearGradient><linearGradient x1="98.29046" y1="200.27259" x2="98.29046" y2="221.929" gradientUnits="userSpaceOnUse" id="color-17"><stop offset="0" stop-color="#70b562"/><stop offset="1" stop-color="#457d49"/></linearGradient><linearGradient x1="92.24134" y1="209.29607" x2="92.24134" y2="230.95251" gradientUnits="userSpaceOnUse" id="color-18"><stop offset="0" stop-color="#70b562"/><stop offset="1" stop-color="#457d49"/></linearGradient><linearGradient x1="75.7821" y1="211.40155" x2="75.7821" y2="233.05799" gradientUnits="userSpaceOnUse" id="color-19"><stop offset="0" stop-color="#70b562"/><stop offset="1" stop-color="#457d49"/></linearGradient><linearGradient x1="42.86362" y1="215.61253" x2="42.86362" y2="237.26896" gradientUnits="userSpaceOnUse" id="color-20"><stop offset="0" stop-color="#70b562"/><stop offset="1" stop-color="#457d49"/></linearGradient><linearGradient x1="10.7892" y1="218.01881" x2="10.7892" y2="239.67524" gradientUnits="userSpaceOnUse" id="color-21"><stop offset="0" stop-color="#70b562"/><stop offset="1" stop-color="#457d49"/></linearGradient><linearGradient x1="101.10401" y1="217.71802" x2="101.10401" y2="239.37445" gradientUnits="userSpaceOnUse" id="color-22"><stop offset="0" stop-color="#70b562"/><stop offset="1" stop-color="#457d49"/></linearGradient><linearGradient x1="110.01059" y1="211.40155" x2="110.01059" y2="233.05799" gradientUnits="userSpaceOnUse" id="color-23"><stop offset="0" stop-color="#70b562"/><stop offset="1" stop-color="#457d49"/></linearGradient><linearGradient x1="118.16987" y1="197.26474" x2="118.16987" y2="218.92116" gradientUnits="userSpaceOnUse" id="color-24"><stop offset="0" stop-color="#70b562"/><stop offset="1" stop-color="#457d49"/></linearGradient><linearGradient x1="137.02061" y1="188.84281" x2="137.02061" y2="210.49923" gradientUnits="userSpaceOnUse" id="color-25"><stop offset="0" stop-color="#70b562"/><stop offset="1" stop-color="#457d49"/></linearGradient><linearGradient x1="140.95959" y1="207.1906" x2="140.95959" y2="228.84703" gradientUnits="userSpaceOnUse" id="color-26"><stop offset="0" stop-color="#70b562"/><stop offset="1" stop-color="#457d49"/></linearGradient><linearGradient x1="127.73592" y1="211.40155" x2="127.73592" y2="233.05799" gradientUnits="userSpaceOnUse" id="color-27"><stop offset="0" stop-color="#70b562"/><stop offset="1" stop-color="#457d49"/></linearGradient><linearGradient x1="158.12222" y1="211.10079" x2="158.12222" y2="232.75721" gradientUnits="userSpaceOnUse" id="color-28"><stop offset="0" stop-color="#70b562"/><stop offset="1" stop-color="#457d49"/></linearGradient><linearGradient x1="159.24764" y1="195.46005" x2="159.24764" y2="217.11646" gradientUnits="userSpaceOnUse" id="color-29"><stop offset="0" stop-color="#70b562"/><stop offset="1" stop-color="#457d49"/></linearGradient><linearGradient x1="175.70688" y1="181.624" x2="175.70688" y2="203.28042" gradientUnits="userSpaceOnUse" id="color-30"><stop offset="0" stop-color="#70b562"/><stop offset="1" stop-color="#457d49"/></linearGradient><linearGradient x1="190.33732" y1="192.75299" x2="190.33732" y2="214.40938" gradientUnits="userSpaceOnUse" id="color-31"><stop offset="0" stop-color="#70b562"/><stop offset="1" stop-color="#457d49"/></linearGradient><linearGradient x1="176.55094" y1="199.37023" x2="176.55094" y2="221.02665" gradientUnits="userSpaceOnUse" id="color-32"><stop offset="0" stop-color="#70b562"/><stop offset="1" stop-color="#457d49"/></linearGradient><linearGradient x1="227.05408" y1="184.33106" x2="227.05408" y2="205.98745" gradientUnits="userSpaceOnUse" id="color-33"><stop offset="0" stop-color="#70b562"/><stop offset="1" stop-color="#457d49"/></linearGradient><linearGradient x1="186.82039" y1="210.49923" x2="186.82039" y2="232.15563" gradientUnits="userSpaceOnUse" id="color-34"><stop offset="0" stop-color="#70b562"/><stop offset="1" stop-color="#457d49"/></linearGradient><linearGradient x1="208.48468" y1="199.671" x2="208.48468" y2="221.32743" gradientUnits="userSpaceOnUse" id="color-35"><stop offset="0" stop-color="#70b562"/><stop offset="1" stop-color="#457d49"/></linearGradient><linearGradient x1="229.72695" y1="200.27255" x2="229.72695" y2="221.929" gradientUnits="userSpaceOnUse" id="color-36"><stop offset="0" stop-color="#70b562"/><stop offset="1" stop-color="#457d49"/></linearGradient><linearGradient x1="223.67782" y1="209.29607" x2="223.67782" y2="230.95251" gradientUnits="userSpaceOnUse" id="color-37"><stop offset="0" stop-color="#70b562"/><stop offset="1" stop-color="#457d49"/></linearGradient><linearGradient x1="207.21859" y1="211.40155" x2="207.21859" y2="233.05799" gradientUnits="userSpaceOnUse" id="color-38"><stop offset="0" stop-color="#70b562"/><stop offset="1" stop-color="#457d49"/></linearGradient><linearGradient x1="174.30011" y1="215.61253" x2="174.30011" y2="237.26897" gradientUnits="userSpaceOnUse" id="color-39"><stop offset="0" stop-color="#70b562"/><stop offset="1" stop-color="#457d49"/></linearGradient><linearGradient x1="142.22568" y1="218.01881" x2="142.22568" y2="239.67524" gradientUnits="userSpaceOnUse" id="color-40"><stop offset="0" stop-color="#70b562"/><stop offset="1" stop-color="#457d49"/></linearGradient><linearGradient x1="232.5405" y1="217.71802" x2="232.5405" y2="239.37445" gradientUnits="userSpaceOnUse" id="color-41"><stop offset="0" stop-color="#70b562"/><stop offset="1" stop-color="#457d49"/></linearGradient><linearGradient x1="102.86479" y1="311.67321" x2="102.86479" y2="389.9134" gradientUnits="userSpaceOnUse" id="color-42"><stop offset="0" stop-color="#82721f"/><stop offset="1" stop-color="#a28e42"/></linearGradient><linearGradient x1="102.96371" y1="299.07096" x2="102.96371" y2="327.43997" gradientUnits="userSpaceOnUse" id="color-43"><stop offset="0" stop-color="#8fe3a6"/><stop offset="1" stop-color="#47b54b"/></linearGradient><linearGradient x1="1.35992" y1="290.89094" x2="1.35992" y2="388.89094" gradientUnits="userSpaceOnUse" id="color-44"><stop offset="0" stop-color="#000000" stop-opacity="0"/><stop offset="1" stop-color="#000000"/></linearGradient></defs><g transform="translate(36.91565,8.42707)"><g data-paper-data="{&quot;isPaintingLayer&quot;:true}" fill-rule="nonzero" stroke-linejoin="miter" stroke-miterlimit="10" stroke-dasharray="" stroke-dashoffset="0" style="mix-blend-mode: normal"><path d="M-4.20632,-8.42707h497.60239v373.2018h-497.60239z" fill="url(#color-1)" stroke="none" stroke-width="1" stroke-linecap="butt"/><path d="M5.77493,361.86644v-86h480v86z" data-paper-data="{&quot;origPos&quot;:null,&quot;index&quot;:null}" fill="url(#color-2)" stroke="none" stroke-width="NaN" stroke-linecap="butt"/><path d="M231.03916,245.06912c20.73891,2.95442 56.27692,20.56543 67,22.5c10.72308,1.93457 15.73127,-9.20794 27,-9.5c23.82202,-0.61743 12.98912,9.75241 58.5,17.5c14.49892,2.46824 -57.83243,13.15018 -61.5,19c-5.79835,9.24843 19.238,8.77669 12,13c-10.48708,6.11911 -30.35471,7.15081 -45.28734,11.69831c-15.40149,4.69028 -20.05559,8.62808 -22.71266,16.80169c-2.65707,8.17361 17.14955,10.74173 11.5,14c-15.7447,9.08044 -53.21811,16.5 -53.21811,16.5c0,0 -22.28719,-125.63203 6.71811,-121.5z" fill="url(#color-3)" stroke="#e0bd5c" stroke-width="2" stroke-linecap="round"/><g data-paper-data="{&quot;origPos&quot;:null,&quot;index&quot;:null}" stroke="none" stroke-width="1" stroke-linecap="butt"><path d="M342.7227,117.86426c15.47445,0 29.49708,4.034 39.6511,10.551c10.15402,6.517 16.43943,15.517 16.43943,25.449c0,9.932 -6.28541,18.932 -16.43943,25.449c-10.15402,6.517 -24.17665,10.551 -39.6511,10.551c-15.47445,0 -29.49708,-4.034 -39.6511,-10.551c-10.15402,-6.517 -16.43943,-15.517 -16.43943,-25.449c0,-9.932 6.28541,-18.932 16.43943,-25.449c10.15402,-6.517 24.17665,-10.551 39.6511,-10.551z" fill="#ffffff"/><path d="M412.42744,101.86426c15.47445,0 29.49708,4.034 39.6511,10.551c10.15402,6.517 16.43943,15.517 16.43943,25.449c0,9.932 -6.28541,18.932 -16.43943,25.449c-10.15402,6.517 -24.17665,10.551 -39.6511,10.551c-15.47445,0 -29.49708,-4.034 -39.6511,-10.551c-10.15402,-6.517 -16.43943,-15.517 -16.43943,-25.449c0,-9.932 6.28541,-18.932 16.43943,-25.449c10.15402,-6.517 24.17665,-10.551 39.6511,-10.551z" fill="#ffffff"/><g fill="#4a4f54"><path d="M355.24777,133.36426c1.3527,0 2.57798,1.093 3.46454,2.858c0.88765,1.765 1.43657,4.202 1.43657,6.892c0,2.69 -0.54892,5.127 -1.43657,6.892c-0.88655,1.765 -2.11183,2.858 -3.46454,2.858c-1.3527,0 -2.57798,-1.093 -3.46454,-2.858c-0.88765,-1.765 -1.43657,-4.202 -1.43657,-6.892c0,-2.69 0.54892,-5.127 1.43657,-6.892c0.88655,-1.765 2.11183,-2.858 3.46454,-2.858z"/><path d="M378.11964,132.86426c1.3527,0 2.57798,1.093 3.46454,2.858c0.88765,1.765 1.43657,4.202 1.43657,6.892c0,2.69 -0.54892,5.127 -1.43657,6.892c-0.88655,1.765 -2.11183,2.858 -3.46454,2.858c-1.3527,0 -2.57798,-1.093 -3.46454,-2.858c-0.88765,-1.765 -1.43657,-4.202 -1.43657,-6.892c0,-2.69 0.54892,-5.127 1.43657,-6.892c0.88655,-1.765 2.11183,-2.858 3.46454,-2.858z"/></g></g><g data-paper-data="{&quot;origPos&quot;:null,&quot;index&quot;:null}" stroke="none" stroke-width="1" stroke-linecap="butt"><path d="M229.65653,47.41526c10.15402,6.517 16.43943,15.517 16.43943,25.449c0,9.932 -6.28541,18.932 -16.43943,25.449c-10.15402,6.517 -24.17665,10.551 -39.6511,10.551c-15.47445,0 -29.49708,-4.034 -39.6511,-10.551c-10.15402,-6.517 -16.43943,-15.517 -16.43943,-25.449c0,-9.932 6.28541,-18.932 16.43943,-25.449c10.15402,-6.517 24.17665,-10.551 39.6511,-10.551c15.47445,0 29.49708,4.034 39.6511,10.551z" fill="#ffffff"/><path d="M159.9518,31.41526c10.15402,6.517 16.43943,15.517 16.43943,25.449c0,9.932 -6.28541,18.932 -16.43943,25.449c-10.15402,6.517 -24.17665,10.551 -39.6511,10.551c-15.47445,0 -29.49708,-4.034 -39.6511,-10.551c-10.15402,-6.517 -16.43943,-15.517 -16.43943,-25.449c0,-9.932 6.28541,-18.932 16.43943,-25.449c10.15402,-6.517 24.17665,-10.551 39.6511,-10.551c15.47445,0 29.49708,4.034 39.6511,10.551z" fill="#ffffff"/><g fill="#4a4f54"><path d="M180.9449,55.22226c0.88765,1.765 1.43657,4.202 1.43657,6.892c0,2.69 -0.54892,5.127 -1.43657,6.892c-0.88655,1.765 -2.11183,2.858 -3.46454,2.858c-1.3527,0 -2.57798,-1.093 -3.46454,-2.858c-0.88765,-1.765 -1.43657,-4.202 -1.43657,-6.892c0,-2.69 0.54892,-5.127 1.43657,-6.892c0.88655,-1.765 2.11183,-2.858 3.46454,-2.858c1.3527,0 2.57798,1.093 3.46454,2.858z"/><path d="M158.07304,54.72226c0.88765,1.765 1.43657,4.202 1.43657,6.892c0,2.69 -0.54892,5.127 -1.43657,6.892c-0.88655,1.765 -2.11183,2.858 -3.46454,2.858c-1.3527,0 -2.57798,-1.093 -3.46454,-2.858c-0.88765,-1.765 -1.43657,-4.202 -1.43657,-6.892c0,-2.69 0.54892,-5.127 1.43657,-6.892c0.88655,-1.765 2.11183,-2.858 3.46454,-2.858c1.3527,0 2.57798,1.093 3.46454,2.858z"/></g></g><g stroke-width="2" stroke-linecap="butt"><g data-paper-data="{&quot;origPos&quot;:null}" fill="#5d5a32" stroke="#5b5c37"><path d="M10.95274,303.99278v-74.74992h14.31167v74.74992z" data-paper-data="{&quot;origPos&quot;:null}"/><path d="M67.67899,301.4844v-74.74991h14.31167v74.74991z" data-paper-data="{&quot;origPos&quot;:null}"/><path d="M40.87714,302.48774v-74.74992h14.31167v74.74992z" data-paper-data="{&quot;origPos&quot;:null}"/><path d="M95.26147,301.98607v-74.74992h14.31167v74.74992z" data-paper-data="{&quot;origPos&quot;:null}"/><path d="M120.76225,303.99278v-74.74992h33.18536v74.74992z" data-paper-data="{&quot;origPos&quot;:null}"/></g><path d="M175.73842,301.98607v-74.74992h14.31167v74.74992z" data-paper-data="{&quot;origPos&quot;:null}" fill="#5d5a32" stroke="#5b5c37"/><g data-paper-data="{&quot;origPos&quot;:null}" fill="#7f7a45" stroke="#737446"><path d="M25.33264,302.47911v-75.80248h20.88572v75.80248z" data-paper-data="{&quot;origPos&quot;:null}"/><path d="M108.11606,299.93537v-75.80248h20.88572v75.80248z" data-paper-data="{&quot;origPos&quot;:null}"/><path d="M69.00279,300.95284v-75.80248h29.99716v75.80248z" data-paper-data="{&quot;origPos&quot;:null}"/><path d="M148.36855,300.44411v-75.80248h20.88572v75.80248z" data-paper-data="{&quot;origPos&quot;:null}"/><path d="M185.5831,302.47911v-75.80248h20.88572v75.80248z" data-paper-data="{&quot;origPos&quot;:null}"/></g><g data-paper-data="{&quot;origPos&quot;:null}" fill="#9e9755" stroke="#787a49"><path d="M-17.30249,302.98366v-75.17909h28.50799v75.17909z" data-paper-data="{&quot;origPos&quot;:null}"/><path d="M95.69281,300.46088v-75.17909h28.50799v75.17909z" data-paper-data="{&quot;origPos&quot;:null}"/><path d="M42.30513,301.46999v-75.17909h28.50799v75.17909z" data-paper-data="{&quot;origPos&quot;:null}"/><path d="M150.63548,300.96543v-75.17909h28.50799v75.17909z" data-paper-data="{&quot;origPos&quot;:null}"/><path d="M203.05131,302.98366v-75.17909h28.50799v75.17909z" data-paper-data="{&quot;origPos&quot;:null}"/></g><g data-paper-data="{&quot;origPos&quot;:null}" stroke="#4a7b50"><g data-paper-data="{&quot;origPos&quot;:null}"><path d="M-11.1829,214.57514c2.62307,1.96021 4.24677,4.66726 4.24677,7.65464c0,2.98738 -1.6237,5.69444 -4.24677,7.65464c-2.62307,1.96021 -6.24551,3.17357 -10.24299,3.17357c-3.99748,0 -7.61993,-1.21337 -10.24299,-3.17357c-2.62307,-1.96021 -4.24677,-4.66726 -4.24677,-7.65464c0,-2.98738 1.6237,-5.69444 4.24677,-7.65464c2.62307,-1.96021 6.24551,-3.17357 10.24299,-3.17357c3.99748,0 7.61992,1.21336 10.24299,3.17357z" data-paper-data="{&quot;origPos&quot;:null}" fill="url(#color-4)"/><path d="M-3.02363,200.43831c2.62307,1.96021 4.24677,4.66726 4.24677,7.65464c0,2.98738 -1.6237,5.69444 -4.24677,7.65464c-2.62307,1.96021 -6.24551,3.17357 -10.24299,3.17357c-3.99748,0 -7.61993,-1.21336 -10.24299,-3.17357c-2.62307,-1.96021 -4.24677,-4.66726 -4.24677,-7.65464c0,-2.98738 1.6237,-5.69444 4.24677,-7.65464c2.62307,-1.96021 6.24551,-3.17357 10.24299,-3.17357c3.99748,0 7.61992,1.21337 10.24299,3.17357z" data-paper-data="{&quot;origPos&quot;:null}" fill="url(#color-5)"/><path d="M15.82714,192.01638c2.62307,1.96021 4.24677,4.66726 4.24677,7.65464c0,2.98738 -1.6237,5.69444 -4.24677,7.65464c-2.62307,1.96021 -6.24551,3.17357 -10.24299,3.17357c-3.99748,0 -7.61993,-1.21336 -10.24299,-3.17357c-2.62307,-1.96021 -4.24677,-4.66726 -4.24677,-7.65464c0,-2.98738 1.6237,-5.69444 4.24677,-7.65464c2.62307,-1.96021 6.24551,-3.17357 10.24299,-3.17357c3.99748,0 7.61993,1.21337 10.24299,3.17357z" data-paper-data="{&quot;origPos&quot;:null}" fill="url(#color-6)"/><path d="M19.7661,210.36415c2.62307,1.96021 4.24677,4.66726 4.24677,7.65464c0,2.98738 -1.6237,5.69444 -4.24677,7.65464c-2.62307,1.96021 -6.24551,3.17357 -10.24299,3.17357c-3.99748,0 -7.61992,-1.21336 -10.24299,-3.17357c-2.62307,-1.96021 -4.24677,-4.66726 -4.24677,-7.65464c0,-2.98738 1.6237,-5.69443 4.24677,-7.65464c2.62307,-1.96021 6.24551,-3.17357 10.24299,-3.17357c3.99748,0 7.61992,1.21337 10.24299,3.17357z" data-paper-data="{&quot;origPos&quot;:null}" fill="url(#color-7)"/><path d="M6.54243,214.57514c2.62307,1.96021 4.24677,4.66726 4.24677,7.65464c0,2.98738 -1.6237,5.69444 -4.24677,7.65464c-2.62307,1.96021 -6.24551,3.17357 -10.24299,3.17357c-3.99748,0 -7.61992,-1.21337 -10.24299,-3.17357c-2.62307,-1.96021 -4.24677,-4.66726 -4.24677,-7.65464c0,-2.98738 1.6237,-5.69444 4.24677,-7.65464c2.62307,-1.96021 6.24551,-3.17357 10.24299,-3.17357c3.99748,0 7.61993,1.21336 10.24299,3.17357z" data-paper-data="{&quot;origPos&quot;:null}" fill="url(#color-8)"/><path d="M36.92872,214.27434c2.62307,1.96021 4.24677,4.66726 4.24677,7.65464c0,2.98738 -1.6237,5.69444 -4.24677,7.65464c-2.62307,1.96021 -6.24551,3.17357 -10.24299,3.17357c-3.99748,0 -7.61992,-1.21336 -10.24299,-3.17357c-2.62307,-1.96021 -4.24677,-4.66726 -4.24677,-7.65464c0,-2.98738 1.6237,-5.69444 4.24677,-7.65464c2.62307,-1.96021 6.24551,-3.17357 10.24299,-3.17357c3.99748,0 7.61993,1.21336 10.24299,3.17357z" data-paper-data="{&quot;origPos&quot;:null}" fill="url(#color-9)"/><path d="M38.05415,198.6336c2.62307,1.96021 4.24677,4.66726 4.24677,7.65464c0,2.98738 -1.6237,5.69444 -4.24677,7.65465c-2.62307,1.96021 -6.24551,3.17357 -10.24299,3.17357c-3.99748,0 -7.61993,-1.21336 -10.24299,-3.17357c-2.62307,-1.96021 -4.24677,-4.66726 -4.24677,-7.65465c0,-2.98738 1.6237,-5.69444 4.24677,-7.65464c2.62307,-1.96021 6.24551,-3.17357 10.24299,-3.17357c3.99748,0 7.61992,1.21336 10.24299,3.17357z" data-paper-data="{&quot;origPos&quot;:null}" fill="url(#color-10)"/><path d="M54.51338,184.79758c2.62307,1.96021 4.24677,4.66726 4.24677,7.65464c0,2.98738 -1.6237,5.69444 -4.24677,7.65464c-2.62307,1.96021 -6.24551,3.17357 -10.24299,3.17357c-3.99748,0 -7.61993,-1.21336 -10.24299,-3.17357c-2.62307,-1.96021 -4.24677,-4.66726 -4.24677,-7.65464c0,-2.98738 1.6237,-5.69444 4.24677,-7.65464c2.62307,-1.96021 6.24551,-3.17357 10.24299,-3.17357c3.99748,0 7.61993,1.21337 10.24299,3.17357z" data-paper-data="{&quot;origPos&quot;:null}" fill="url(#color-11)"/><path d="M69.14382,195.92656c2.62307,1.96021 4.24677,4.66726 4.24677,7.65464c0,2.98738 -1.6237,5.69444 -4.24677,7.65464c-2.62307,1.96021 -6.24551,3.17357 -10.24299,3.17357c-3.99748,0 -7.61993,-1.21336 -10.24299,-3.17357c-2.62307,-1.96021 -4.24677,-4.66726 -4.24677,-7.65464c0,-2.98738 1.6237,-5.69443 4.24677,-7.65464c2.62307,-1.96021 6.24551,-3.17357 10.24299,-3.17357c3.99748,0 7.61993,1.21336 10.24299,3.17357z" data-paper-data="{&quot;origPos&quot;:null}" fill="url(#color-12)"/><path d="M55.35744,202.54379c2.62307,1.96021 4.24677,4.66726 4.24677,7.65464c0,2.98738 -1.6237,5.69444 -4.24677,7.65464c-2.62307,1.96021 -6.24551,3.17357 -10.24299,3.17357c-3.99748,0 -7.61992,-1.21337 -10.24299,-3.17357c-2.62307,-1.96021 -4.24677,-4.66726 -4.24677,-7.65464c0,-2.98738 1.6237,-5.69444 4.24677,-7.65464c2.62307,-1.96021 6.24551,-3.17357 10.24299,-3.17357c3.99748,0 7.61993,1.21336 10.24299,3.17357z" data-paper-data="{&quot;origPos&quot;:null}" fill="url(#color-13)"/><path d="M105.86059,187.50463c2.62307,1.96021 4.24677,4.66725 4.24677,7.65464c0,2.98738 -1.6237,5.69444 -4.24677,7.65464c-2.62307,1.96021 -6.24551,3.17357 -10.24299,3.17357c-3.99748,0 -7.61993,-1.21336 -10.24299,-3.17357c-2.62307,-1.96021 -4.24677,-4.66726 -4.24677,-7.65464c0,-2.98738 1.6237,-5.69443 4.24677,-7.65464c2.62307,-1.96021 6.24551,-3.17357 10.24299,-3.17357c3.99748,0 7.61993,1.21337 10.24299,3.17357z" data-paper-data="{&quot;origPos&quot;:null}" fill="url(#color-14)"/><path d="M65.62689,213.67277c2.62307,1.96021 4.24677,4.66726 4.24677,7.65464c0,2.98738 -1.6237,5.69444 -4.24677,7.65464c-2.62307,1.96021 -6.24551,3.17357 -10.24299,3.17357c-3.99748,0 -7.61993,-1.21337 -10.24299,-3.17357c-2.62307,-1.96021 -4.24677,-4.66726 -4.24677,-7.65464c0,-2.98738 1.6237,-5.69444 4.24677,-7.65464c2.62307,-1.96021 6.24551,-3.17357 10.24299,-3.17357c3.99748,0 7.61993,1.21336 10.24299,3.17357z" data-paper-data="{&quot;origPos&quot;:null}" fill="url(#color-15)"/><path d="M87.29119,202.84458c2.62307,1.96021 4.24677,4.66726 4.24677,7.65464c0,2.98738 -1.6237,5.69443 -4.24677,7.65464c-2.62307,1.96021 -6.24551,3.17357 -10.24299,3.17357c-3.99748,0 -7.61993,-1.21337 -10.24299,-3.17357c-2.62307,-1.96021 -4.24677,-4.66725 -4.24677,-7.65464c0,-2.98738 1.6237,-5.69444 4.24677,-7.65464c2.62307,-1.96021 6.24551,-3.17357 10.24299,-3.17357c3.99748,0 7.61992,1.21337 10.24299,3.17357z" data-paper-data="{&quot;origPos&quot;:null}" fill="url(#color-16)"/><path d="M108.53345,203.44614c2.62307,1.96021 4.24677,4.66726 4.24677,7.65464c0,2.98738 -1.6237,5.69443 -4.24677,7.65464c-2.62307,1.96021 -6.24551,3.17357 -10.24299,3.17357c-3.99748,0 -7.61993,-1.21337 -10.24299,-3.17357c-2.62307,-1.96021 -4.24677,-4.66726 -4.24677,-7.65464c0,-2.98738 1.6237,-5.69444 4.24677,-7.65464c2.62307,-1.96021 6.24551,-3.17357 10.24299,-3.17357c3.99748,0 7.61993,1.21336 10.24299,3.17357z" data-paper-data="{&quot;origPos&quot;:null}" fill="url(#color-17)"/><path d="M102.48434,212.46964c2.62307,1.96021 4.24677,4.66726 4.24677,7.65464c0,2.98738 -1.6237,5.69444 -4.24677,7.65464c-2.62307,1.96021 -6.24551,3.17357 -10.24299,3.17357c-3.99748,0 -7.61993,-1.21336 -10.24299,-3.17357c-2.62307,-1.96021 -4.24677,-4.66726 -4.24677,-7.65464c0,-2.98738 1.6237,-5.69444 4.24677,-7.65464c2.62307,-1.96021 6.24551,-3.17357 10.24299,-3.17357c3.99748,0 7.61993,1.21336 10.24299,3.17357z" data-paper-data="{&quot;origPos&quot;:null}" fill="url(#color-18)"/><path d="M86.02509,214.57514c2.62307,1.96021 4.24677,4.66726 4.24677,7.65464c0,2.98738 -1.6237,5.69444 -4.24677,7.65464c-2.62307,1.96021 -6.24551,3.17357 -10.24299,3.17357c-3.99748,0 -7.61993,-1.21337 -10.24299,-3.17357c-2.62307,-1.96021 -4.24677,-4.66726 -4.24677,-7.65464c0,-2.98738 1.6237,-5.69444 4.24677,-7.65464c2.62307,-1.96021 6.24551,-3.17357 10.24299,-3.17357c3.99748,0 7.61993,1.21336 10.24299,3.17357z" data-paper-data="{&quot;origPos&quot;:null}" fill="url(#color-19)"/><path d="M53.10661,218.7861c2.62307,1.96021 4.24677,4.66726 4.24677,7.65464c0,2.98738 -1.6237,5.69444 -4.24677,7.65464c-2.62307,1.96021 -6.24551,3.17357 -10.24299,3.17357c-3.99748,0 -7.61993,-1.21336 -10.24299,-3.17357c-2.62307,-1.96021 -4.24677,-4.66726 -4.24677,-7.65464c0,-2.98738 1.6237,-5.69444 4.24677,-7.65464c2.62307,-1.96021 6.24551,-3.17357 10.24299,-3.17357c3.99748,0 7.61993,1.21336 10.24299,3.17357z" data-paper-data="{&quot;origPos&quot;:null}" fill="url(#color-20)"/><path d="M21.03219,221.19239c2.62307,1.96021 4.24677,4.66726 4.24677,7.65464c0,2.98738 -1.6237,5.69444 -4.24677,7.65464c-2.62307,1.96021 -6.24551,3.17357 -10.24299,3.17357c-3.99748,0 -7.61993,-1.21336 -10.24299,-3.17357c-2.62307,-1.96021 -4.24677,-4.66726 -4.24677,-7.65464c0,-2.98738 1.6237,-5.69443 4.24677,-7.65464c2.62307,-1.96021 6.24551,-3.17357 10.24299,-3.17357c3.99748,0 7.61992,1.21337 10.24299,3.17357z" data-paper-data="{&quot;origPos&quot;:null}" fill="url(#color-21)"/><path d="M111.34701,220.89159c2.62307,1.96021 4.24677,4.66726 4.24677,7.65464c0,2.98738 -1.6237,5.69444 -4.24677,7.65464c-2.62307,1.96021 -6.24551,3.17357 -10.24299,3.17357c-3.99748,0 -7.61993,-1.21337 -10.24299,-3.17357c-2.62307,-1.96021 -4.24677,-4.66726 -4.24677,-7.65464c0,-2.98738 1.6237,-5.69444 4.24677,-7.65464c2.62307,-1.96021 6.24551,-3.17357 10.24299,-3.17357c3.99748,0 7.61993,1.21336 10.24299,3.17357z" data-paper-data="{&quot;origPos&quot;:null}" fill="url(#color-22)"/></g><g data-paper-data="{&quot;origPos&quot;:null}"><path d="M120.25358,214.57514c2.62307,1.96021 4.24677,4.66725 4.24677,7.65464c0,2.98738 -1.6237,5.69444 -4.24677,7.65464c-2.62307,1.96021 -6.24551,3.17357 -10.24299,3.17357c-3.99748,0 -7.61993,-1.21336 -10.24299,-3.17357c-2.62307,-1.96021 -4.24676,-4.66726 -4.24676,-7.65464c0,-2.98738 1.62369,-5.69443 4.24676,-7.65464c2.62307,-1.96021 6.24551,-3.17357 10.24299,-3.17357c3.99748,0 7.61993,1.21336 10.24299,3.17357z" data-paper-data="{&quot;origPos&quot;:null}" fill="url(#color-23)"/><path d="M128.41286,200.43831c2.62307,1.96021 4.24677,4.66726 4.24677,7.65464c0,2.98738 -1.6237,5.69444 -4.24677,7.65464c-2.62307,1.96021 -6.24551,3.17357 -10.24299,3.17357c-3.99748,0 -7.61993,-1.21337 -10.24299,-3.17357c-2.62307,-1.96021 -4.24677,-4.66726 -4.24677,-7.65464c0,-2.98738 1.6237,-5.69444 4.24677,-7.65464c2.62307,-1.96021 6.24551,-3.17357 10.24299,-3.17357c3.99748,0 7.61992,1.21337 10.24299,3.17357z" data-paper-data="{&quot;origPos&quot;:null}" fill="url(#color-24)"/><path d="M147.26362,192.01638c2.62307,1.96021 4.24677,4.66726 4.24677,7.65464c0,2.98738 -1.6237,5.69444 -4.24677,7.65464c-2.62307,1.96021 -6.24551,3.17357 -10.24299,3.17357c-3.99748,0 -7.61992,-1.21336 -10.24299,-3.17357c-2.62307,-1.96021 -4.24677,-4.66726 -4.24677,-7.65464c0,-2.98738 1.6237,-5.69444 4.24677,-7.65464c2.62307,-1.96021 6.24551,-3.17357 10.24299,-3.17357c3.99748,0 7.61993,1.21336 10.24299,3.17357z" data-paper-data="{&quot;origPos&quot;:null}" fill="url(#color-25)"/><path d="M151.20258,210.36415c2.62307,1.96021 4.24677,4.66726 4.24677,7.65464c0,2.98738 -1.6237,5.69444 -4.24677,7.65464c-2.62307,1.96021 -6.24551,3.17357 -10.24299,3.17357c-3.99748,0 -7.61993,-1.21336 -10.24299,-3.17357c-2.62307,-1.96021 -4.24677,-4.66726 -4.24677,-7.65464c0,-2.98738 1.6237,-5.69443 4.24677,-7.65464c2.62307,-1.96021 6.24551,-3.17357 10.24299,-3.17357c3.99748,0 7.61992,1.21337 10.24299,3.17357z" data-paper-data="{&quot;origPos&quot;:null}" fill="url(#color-26)"/><path d="M137.97891,214.57514c2.62307,1.96021 4.24677,4.66725 4.24677,7.65464c0,2.98738 -1.6237,5.69444 -4.24677,7.65464c-2.62307,1.96021 -6.24551,3.17357 -10.24299,3.17357c-3.99748,0 -7.61993,-1.21336 -10.24299,-3.17357c-2.62307,-1.96021 -4.24677,-4.66726 -4.24677,-7.65464c0,-2.98738 1.6237,-5.69443 4.24677,-7.65464c2.62307,-1.96021 6.24551,-3.17357 10.24299,-3.17357c3.99748,0 7.61992,1.21336 10.24299,3.17357z" data-paper-data="{&quot;origPos&quot;:null}" fill="url(#color-27)"/><path d="M168.36522,214.27434c2.62307,1.96021 4.24677,4.66726 4.24677,7.65464c0,2.98738 -1.62369,5.69444 -4.24677,7.65464c-2.62307,1.96021 -6.24551,3.17357 -10.24299,3.17357c-3.99748,0 -7.61993,-1.21336 -10.24299,-3.17357c-2.62307,-1.96021 -4.24677,-4.66726 -4.24677,-7.65464c0,-2.98738 1.62369,-5.69444 4.24677,-7.65464c2.62307,-1.96021 6.24551,-3.17357 10.24299,-3.17357c3.99748,0 7.61993,1.21336 10.24299,3.17357z" data-paper-data="{&quot;origPos&quot;:null}" fill="url(#color-28)"/><path d="M169.49063,198.6336c2.62307,1.96021 4.24677,4.66726 4.24677,7.65464c0,2.98738 -1.6237,5.69444 -4.24677,7.65464c-2.62307,1.96021 -6.24551,3.17357 -10.24299,3.17357c-3.99748,0 -7.61992,-1.21336 -10.24299,-3.17357c-2.62307,-1.96021 -4.24677,-4.66726 -4.24677,-7.65464c0,-2.98738 1.6237,-5.69444 4.24677,-7.65464c2.62307,-1.96021 6.24551,-3.17357 10.24299,-3.17357c3.99748,0 7.61993,1.21336 10.24299,3.17357z" data-paper-data="{&quot;origPos&quot;:null}" fill="url(#color-29)"/><path d="M185.94987,184.79758c2.62307,1.96021 4.24677,4.66726 4.24677,7.65464c0,2.98738 -1.6237,5.69443 -4.24677,7.65464c-2.62307,1.96021 -6.24551,3.17357 -10.24299,3.17357c-3.99748,0 -7.61993,-1.21337 -10.24299,-3.17357c-2.62307,-1.96021 -4.24677,-4.66726 -4.24677,-7.65464c0,-2.98738 1.62369,-5.69444 4.24677,-7.65464c2.62307,-1.96021 6.24551,-3.17357 10.24299,-3.17357c3.99748,0 7.61993,1.21337 10.24299,3.17357z" data-paper-data="{&quot;origPos&quot;:null}" fill="url(#color-30)"/><path d="M200.58031,195.92656c2.62307,1.96021 4.24677,4.66726 4.24677,7.65464c0,2.98738 -1.6237,5.69444 -4.24677,7.65464c-2.62307,1.96021 -6.24551,3.17357 -10.24299,3.17357c-3.99748,0 -7.61993,-1.21336 -10.24299,-3.17357c-2.62307,-1.96021 -4.24677,-4.66726 -4.24677,-7.65464c0,-2.98738 1.6237,-5.69443 4.24677,-7.65464c2.62307,-1.96021 6.24551,-3.17357 10.24299,-3.17357c3.99748,0 7.61992,1.21336 10.24299,3.17357z" data-paper-data="{&quot;origPos&quot;:null}" fill="url(#color-31)"/><path d="M186.79394,202.54379c2.62307,1.96021 4.24677,4.66726 4.24677,7.65464c0,2.98738 -1.6237,5.69444 -4.24677,7.65464c-2.62307,1.96021 -6.24551,3.17357 -10.24299,3.17357c-3.99748,0 -7.61993,-1.21336 -10.24299,-3.17357c-2.62307,-1.96021 -4.24677,-4.66726 -4.24677,-7.65464c0,-2.98738 1.62369,-5.69443 4.24677,-7.65464c2.62307,-1.96021 6.24551,-3.17357 10.24299,-3.17357c3.99748,0 7.61993,1.21336 10.24299,3.17357z" data-paper-data="{&quot;origPos&quot;:null}" fill="url(#color-32)"/><path d="M237.29707,187.50463c2.62307,1.96021 4.24677,4.66725 4.24677,7.65464c0,2.98738 -1.6237,5.69444 -4.24677,7.65464c-2.62307,1.96021 -6.24551,3.17357 -10.24299,3.17357c-3.99748,0 -7.61993,-1.21337 -10.24299,-3.17357c-2.62307,-1.96021 -4.24677,-4.66726 -4.24677,-7.65464c0,-2.98738 1.6237,-5.69443 4.24677,-7.65464c2.62307,-1.96021 6.24551,-3.17357 10.24299,-3.17357c3.99748,0 7.61992,1.21337 10.24299,3.17357z" data-paper-data="{&quot;origPos&quot;:null}" fill="url(#color-33)"/><path d="M197.06337,213.67277c2.62307,1.96021 4.24677,4.66726 4.24677,7.65464c0,2.98738 -1.6237,5.69444 -4.24677,7.65464c-2.62307,1.96021 -6.24551,3.17357 -10.24299,3.17357c-3.99748,0 -7.61993,-1.21336 -10.24299,-3.17357c-2.62307,-1.96021 -4.24677,-4.66726 -4.24677,-7.65464c0,-2.98738 1.62369,-5.69444 4.24677,-7.65464c2.62307,-1.96021 6.24551,-3.17357 10.24299,-3.17357c3.99748,0 7.61992,1.21336 10.24299,3.17357z" data-paper-data="{&quot;origPos&quot;:null}" fill="url(#color-34)"/><path d="M218.72768,202.84458c2.62307,1.96021 4.24677,4.66726 4.24677,7.65464c0,2.98738 -1.6237,5.69443 -4.24677,7.65464c-2.62307,1.96021 -6.24551,3.17357 -10.24299,3.17357c-3.99748,0 -7.61993,-1.21337 -10.24299,-3.17357c-2.62307,-1.96021 -4.24677,-4.66725 -4.24677,-7.65464c0,-2.98738 1.6237,-5.69444 4.24677,-7.65464c2.62307,-1.96021 6.24551,-3.17357 10.24299,-3.17357c3.99748,0 7.61992,1.21336 10.24299,3.17357z" data-paper-data="{&quot;origPos&quot;:null}" fill="url(#color-35)"/><path d="M239.96994,203.44614c2.62307,1.96021 4.24677,4.66726 4.24677,7.65464c0,2.98738 -1.6237,5.69443 -4.24677,7.65464c-2.62307,1.96021 -6.24551,3.17357 -10.24299,3.17357c-3.99748,0 -7.61992,-1.21337 -10.24299,-3.17357c-2.62307,-1.96021 -4.24677,-4.66726 -4.24677,-7.65464c0,-2.98738 1.6237,-5.69444 4.24677,-7.65464c2.62307,-1.96021 6.24551,-3.17357 10.24299,-3.17357c3.99748,0 7.61993,1.21337 10.24299,3.17357z" data-paper-data="{&quot;origPos&quot;:null}" fill="url(#color-36)"/><path d="M233.92082,212.46964c2.62307,1.96021 4.24677,4.66726 4.24677,7.65464c0,2.98738 -1.6237,5.69444 -4.24677,7.65464c-2.62307,1.96021 -6.24551,3.17357 -10.24299,3.17357c-3.99748,0 -7.61993,-1.21337 -10.24299,-3.17357c-2.62307,-1.96021 -4.24677,-4.66726 -4.24677,-7.65464c0,-2.98738 1.62369,-5.69444 4.24677,-7.65464c2.62307,-1.96021 6.24551,-3.17357 10.24299,-3.17357c3.99748,0 7.61993,1.21336 10.24299,3.17357z" data-paper-data="{&quot;origPos&quot;:null}" fill="url(#color-37)"/><path d="M217.46158,214.57514c2.62307,1.96021 4.24677,4.66725 4.24677,7.65464c0,2.98738 -1.6237,5.69444 -4.24677,7.65464c-2.62307,1.96021 -6.24551,3.17357 -10.24299,3.17357c-3.99748,0 -7.61993,-1.21336 -10.24299,-3.17357c-2.62307,-1.96021 -4.24677,-4.66726 -4.24677,-7.65464c0,-2.98738 1.6237,-5.69443 4.24677,-7.65464c2.62307,-1.96021 6.24551,-3.17357 10.24299,-3.17357c3.99748,0 7.61993,1.21336 10.24299,3.17357z" data-paper-data="{&quot;origPos&quot;:null}" fill="url(#color-38)"/><path d="M184.5431,218.7861c2.62307,1.96021 4.24677,4.66726 4.24677,7.65464c0,2.98738 -1.6237,5.69443 -4.24677,7.65464c-2.62307,1.96021 -6.24551,3.17357 -10.24299,3.17357c-3.99748,0 -7.61992,-1.21337 -10.24299,-3.17357c-2.62307,-1.96021 -4.24677,-4.66726 -4.24677,-7.65464c0,-2.98738 1.6237,-5.69444 4.24677,-7.65464c2.62307,-1.96021 6.24551,-3.17357 10.24299,-3.17357c3.99748,0 7.61992,1.21336 10.24299,3.17357z" data-paper-data="{&quot;origPos&quot;:null}" fill="url(#color-39)"/><path d="M152.46867,221.19239c2.62307,1.96021 4.24677,4.66726 4.24677,7.65464c0,2.98738 -1.6237,5.69444 -4.24677,7.65464c-2.62307,1.96021 -6.24551,3.17357 -10.24299,3.17357c-3.99748,0 -7.61993,-1.21336 -10.24299,-3.17357c-2.62307,-1.96021 -4.24677,-4.66726 -4.24677,-7.65464c0,-2.98738 1.6237,-5.69443 4.24677,-7.65464c2.62307,-1.96021 6.24551,-3.17357 10.24299,-3.17357c3.99748,0 7.61992,1.21337 10.24299,3.17357z" data-paper-data="{&quot;origPos&quot;:null}" fill="url(#color-40)"/><path d="M242.78349,220.89159c2.62307,1.96021 4.24677,4.66725 4.24677,7.65464c0,2.98738 -1.6237,5.69444 -4.24677,7.65464c-2.62307,1.96021 -6.24551,3.17357 -10.24299,3.17357c-3.99748,0 -7.61993,-1.21336 -10.24299,-3.17357c-2.62307,-1.96021 -4.24677,-4.66726 -4.24677,-7.65464c0,-2.98738 1.62369,-5.69443 4.24677,-7.65464c2.62307,-1.96021 6.24551,-3.17357 10.24299,-3.17357c3.99748,0 7.61993,1.21336 10.24299,3.17357z" data-paper-data="{&quot;origPos&quot;:null}" fill="url(#color-41)"/></g></g></g><g data-paper-data="{&quot;origPos&quot;:null}" stroke-width="2" stroke-linecap="butt"><path d="M-20.50135,389.9134v-86.31867l247.18683,-0.45455l-5.69825,29.34042l20.59506,34.67944l-15.35135,22.75335z" data-paper-data="{&quot;origPos&quot;:null}" fill="#cfbf74" stroke="url(#color-42)"/><path d="M236.70276,315.28585c0,0.16121 -32.65781,-11.15548 -32.65781,-11.15548c0,0 -14.09843,-1.82082 -18.367,0.13116c-5.53384,2.53058 -13.39517,8.59572 -13.39517,8.59572c0,0 -16.32542,-9.38898 -19.22284,-9.19567c-6.7209,0.44839 -21.97809,0.1636 -26.43424,2.50741c-3.43383,1.8061 -12.75038,7.54361 -12.75038,7.54361c0,0 -11.51399,-8.19992 -28.71177,-8.19992c-15.5177,0 -27.43198,3.59398 -33.60583,7.40897c-7.75852,4.7942 2.0053,-7.95063 -14.22784,-9.15232c-4.0536,-0.30008 -16.71825,0.48832 -27.08896,1.33406c-4.74823,0.38723 -9.36459,5.5376 -12.28078,7.08431c-11.10475,5.88982 -36.1029,-7.98678 -10.13231,-10.75341c25.97058,-2.76664 65.83576,-1.43135 105.41422,-1.43135c39.57846,0 97.44362,-2.35122 123.4142,0.41542c0,0 7.79107,0.2081 10.54939,1.80859c5.92949,3.44053 9.49713,10.18118 9.49713,13.0589z" data-paper-data="{&quot;origPos&quot;:null}" fill="url(#color-43)" stroke="#65a96e"/></g><path d="M1.35992,290.89094h480v98h-480z" data-paper-data="{&quot;origPos&quot;:null}" fill="url(#color-44)" stroke="none" stroke-width="1.22826" stroke-linecap="butt"/></g></g></svg>