<svg version="1.1" xmlns="http://www.w3.org/2000/svg" xmlns:xlink="http://www.w3.org/1999/xlink" width="117.98184" height="91.63251" viewBox="0,0,117.98184,91.63251"><defs><linearGradient x1="196.00292" y1="150.3696" x2="208.83567" y2="148.07408" gradientUnits="userSpaceOnUse" id="color-1"><stop offset="0" stop-color="#d9471c"/><stop offset="1" stop-color="#d95a1c"/></linearGradient></defs><g transform="translate(-170.76224,-139.50281)"><g data-paper-data="{&quot;isPaintingLayer&quot;:true}" fill-rule="nonzero" stroke-linecap="butt" stroke-linejoin="miter" stroke-miterlimit="10" stroke-dasharray="" stroke-dashoffset="0" style="mix-blend-mode: normal"><g data-paper-data="{&quot;index&quot;:null}"><path d="M201.21163,213.89316l-8.2038,-17.73562l9.12066,-3.12347l8.65089,16.04091z" fill="#a48a5c" stroke="none" stroke-width="0"/><g fill="none" stroke="#a48a5c" stroke-width="7.5"><path d="M187.93112,208.54356c-5.39055,2.02048 -11.39838,-0.71151 -13.41887,-6.10206c-2.02048,-5.39055 0.71151,-11.39838 6.10206,-13.41886c5.39055,-2.02048 11.39838,0.71151 13.41887,6.10206c2.02048,5.39055 -0.7115,11.39838 -6.10205,13.41887z"/><path d="M196.13893,226.67036c-5.39055,2.02047 -11.27706,-0.3878 -13.14787,-5.37906c-1.8708,-4.99126 0.98249,-10.67539 6.37306,-12.69587c5.39056,-2.02047 11.27706,0.3878 13.14787,5.37906c1.8708,4.99126 -0.98249,10.67538 -6.37305,12.69587z"/></g></g><path d="M248.58251,220.40716c-18.35303,7.03803 -38.59448,-1.32586 -45.21056,-18.68128c-6.61608,-17.35542 2.89859,-37.13024 21.2516,-44.16828c18.35303,-7.03803 38.59449,1.32585 45.21057,18.68128c6.61608,17.35542 -2.89859,37.13024 -21.2516,44.16829z" data-paper-data="{&quot;index&quot;:null}" fill="#6e170f" stroke="#303546" stroke-width="0"/><path d="M284.96763,198.41491c0,0 -6.95977,13.53295 -17.39687,9.18122c-9.29578,-5.95292 3.59931,-36.43844 14.6335,-31.82746c12.87839,5.38164 2.7634,22.64624 2.7634,22.64624z" data-paper-data="{&quot;index&quot;:null}" fill="#ffd412" stroke="none" stroke-width="0"/><g data-paper-data="{&quot;index&quot;:null}" stroke="none" stroke-width="0"><g><path d="M203.54884,158.9375c-1.20189,0.94188 -8.2775,-10.9527 -7.22697,-11.60054c3.66721,-2.26157 6.89456,-3.61733 6.89456,-3.61733c0,0 8.7843,7.96971 6.59236,10.41762c-1.08574,0.74276 -3.8703,2.92757 -6.25993,4.80023z" data-paper-data="{&quot;index&quot;:null}" fill="#a48a5c"/><path d="M207.38349,155.9473c-1.17974,0.90894 -8.58932,-10.05981 -7.54499,-10.60525c1.98989,-1.03929 3.37795,-1.62239 3.37795,-1.62239c0,0 8.78429,7.96971 6.59235,10.41762c-0.50801,0.34754 -1.38794,1.01078 -2.42532,1.81002z" data-paper-data="{&quot;index&quot;:null}" fill="#d6b780"/></g><path d="M231.93277,169.75375c-14.51582,5.03944 -17.05604,1.28938 -17.05604,1.28938l-4.2014,-11.69685c0,0 2.19571,-6.81296 12.91032,-10.21443c12.04164,-3.82276 18.14065,-1.89686 18.14065,-1.89686l4.01157,12.37114c0,0 -3.52413,6.57838 -13.80509,10.14762z" fill="#a4ddf0"/><path d="M236.49299,150.62675c0,0 -0.50467,3.30086 -8.85315,6.71547c-8.87878,3.63152 -11.54495,2.65805 -11.54495,2.65805l-0.96991,-2.21743c0,0 2.08883,-2.92433 9.42251,-6.40889c7.19399,-3.41818 11.07041,-2.54082 11.07041,-2.54082z" fill="#7ebdd2"/><path d="M220.40377,156.60882c0,0 -3.85986,-5.74714 -10.69184,-2.40011c2.19195,-2.44792 -6.60371,-10.45265 -6.60371,-10.45265c0,0 6.76702,-3.86019 13.14158,-4.10254c11.2449,-0.42751 14.51451,12.00007 14.51451,12.00007z" fill="#ffffff"/></g><g data-paper-data="{&quot;index&quot;:null}" fill="#ffffff" stroke="none" stroke-width="0"><path d="M250.21323,181.89783c-2.51276,-5.63236 -2.19316,-11.24965 0.71388,-12.54656c2.90703,-1.29691 7.30064,2.21768 9.81341,7.85005c2.51277,5.63236 2.19316,11.24965 -0.71387,12.54657c-2.90703,1.29691 -7.30064,-2.21768 -9.81341,-7.85005z"/><path d="M230.24524,189.63564c-2.51276,-5.63236 -2.19315,-11.24965 0.71388,-12.54656c2.90704,-1.29691 7.30063,2.21767 9.81339,7.85004c2.51277,5.63236 2.19317,11.24965 -0.71387,12.54657c-2.90704,1.29691 -7.30064,-2.21769 -9.81341,-7.85006z"/></g><path d="M209.58266,152.77042c0.35662,8.0428 -8.14143,7.40962 -11.91621,3.02836c-2.07768,-2.41149 -2.65208,-13.54918 0.1056,-15.60522c1.62386,-1.21069 4.11695,-0.7519 5.25102,0.7692c0.61488,0.49668 6.38179,7.79783 6.55959,11.80765z" fill="url(#color-1)" stroke="none" stroke-width="0.5"/><path d="M232.45259,219.4567c-1.97481,-7.06871 14.39434,-11.40752 14.39434,-11.40752c0,0 16.99379,-7.44719 19.87781,4.1587c3.36604,13.54565 -16.52376,15.73064 -16.52376,15.73064c0,0 -14.40444,3.48762 -17.74838,-8.48182z" data-paper-data="{&quot;index&quot;:null}" fill="#f2c911" stroke="none" stroke-width="0"/></g></g></svg>