<svg version="1.1" xmlns="http://www.w3.org/2000/svg" xmlns:xlink="http://www.w3.org/1999/xlink" width="123.08119" height="192.06305" viewBox="0,0,123.08119,192.06305"><defs><linearGradient x1="233.69961" y1="246.84756" x2="217.76475" y2="260.57204" gradientUnits="userSpaceOnUse" id="color-1"><stop offset="0" stop-color="#008c4d"/><stop offset="1" stop-color="#006638"/></linearGradient><linearGradient x1="246.73184" y1="168.10032" x2="246.73184" y2="250.77833" gradientUnits="userSpaceOnUse" id="color-2"><stop offset="0" stop-color="#b100c6"/><stop offset="1" stop-color="#9900aa"/></linearGradient><linearGradient x1="282.26191" y1="254.13924" x2="281.35677" y2="275.15022" gradientUnits="userSpaceOnUse" id="color-3"><stop offset="0" stop-color="#008c4d"/><stop offset="1" stop-color="#006638"/></linearGradient><radialGradient cx="283.33333" cy="147.33333" r="20.52041" gradientUnits="userSpaceOnUse" id="color-4"><stop offset="0" stop-color="#fbc5fc"/><stop offset="1" stop-color="#f991fd"/></radialGradient></defs><g transform="translate(-186.95232,-83.16501)"><g data-paper-data="{&quot;isPaintingLayer&quot;:true}" fill="none" fill-rule="nonzero" stroke="none" stroke-width="none" stroke-linecap="none" stroke-linejoin="miter" stroke-miterlimit="10" stroke-dasharray="" stroke-dashoffset="0" font-family="none" font-weight="none" font-size="none" text-anchor="none" style="mix-blend-mode: normal"><g data-paper-data="{&quot;origPos&quot;:null,&quot;origRot&quot;:0}" stroke-width="0" stroke-linecap="butt"><g data-paper-data="{&quot;origPos&quot;:null}" stroke="none"><path d="M244.61495,203.64927c-7.92239,-6.88094 -13.96376,-8.82852 -10.25168,-13.10245c3.71209,-4.27393 9.70528,-17.01897 13.24984,-14.70007c2.96493,1.93968 23.33491,18.28323 24.37816,21.66923c0.81155,2.63401 -4.68388,6.0208 -12.44643,14.95824c-3.71209,4.27393 -7.00749,-1.944 -14.9299,-8.82494z" data-paper-data="{&quot;origRot&quot;:0,&quot;origPos&quot;:null}" fill="#ffdebd"/><path d="M256.39655,187.82384c-7.92241,-6.88094 -13.05372,-9.47798 -9.34164,-13.7519c3.71209,-4.27393 9.70137,-7.40129 13.24593,-5.08239c2.99138,0.82196 10.31897,1.20005 11.36221,4.58605c4.99541,5.41703 6.43655,18.13841 -1.32601,27.07584c-3.00972,2.94853 -6.0181,-5.94665 -13.94049,-12.82759z" data-paper-data="{&quot;origRot&quot;:0,&quot;origPos&quot;:null}" fill="#fff70c"/></g><g data-paper-data="{&quot;origPos&quot;:null}"><path d="M266.67008,207.02552c-6.92639,5.63506 -8.88505,10.78198 -17.76049,11.75933c-4.83688,0.53265 -12.38685,-7.90479 -15.45782,-11.67949c-5.48951,-6.7475 -2.88415,-12.13428 5.14858,-18.66942c8.03274,-6.53514 18.9947,-6.363 24.48421,0.38449c5.48951,6.7475 11.61825,11.66995 3.58551,18.2051z" data-paper-data="{&quot;origPos&quot;:null,&quot;origRot&quot;:0}" fill="#ffdebd" stroke="#ffdebd"/><g data-paper-data="{&quot;origPos&quot;:null,&quot;origRot&quot;:0}" fill="#ffffff" stroke="none"><path d="M283.67148,210.48033c10.33443,10.84636 0.62341,19.14616 -8.66634,29.36535c-8.51311,9.36485 -18.18625,2.77096 -24.17301,-4.83325c-8.25233,-10.48189 0.29373,-15.85149 10.67819,-23.08587c10.38446,-7.23439 12.51158,-11.57386 22.16119,-1.44623z" data-paper-data="{&quot;origRot&quot;:0,&quot;origPos&quot;:null}"/><path d="M273.96507,198.47303c5.5186,7.40013 1.31525,6.38074 -13.33885,17.16653c-12.86365,9.468 -14.66148,11.3348 -20.01227,4.84355c-4.78307,-5.80254 5.44738,-10.62485 13.45743,-16.22078c8.01003,-5.59592 16.67122,-10.11046 19.89369,-5.7893z" data-paper-data="{&quot;origRot&quot;:0,&quot;origPos&quot;:null}"/></g></g></g><g data-paper-data="{&quot;origPos&quot;:null,&quot;origRot&quot;:0}" stroke-width="0" stroke-linecap="round"><path d="M236.31093,249.93101c0.33015,0.38332 1.3915,2.64011 1.73946,3.8438c0.40877,1.41411 0.4312,3.3422 0.54949,4.0737c0.03943,0.24383 -0.86401,3.00025 -0.09163,3.8277c0.77238,0.82745 4.63327,2.30781 7.24132,4.32137c2.60806,2.01356 3.65199,1.85718 3.26301,3.78852c-0.38897,1.93136 -2.49497,2.84249 -4.76374,3.66303c-2.26879,0.82054 -5.69018,2.05611 -9.32462,1.43228c-3.63444,-0.62383 -5.22259,-1.90337 -7.71144,-4.3564c-2.48886,-2.45303 -12.34097,-12.27725 -18.49031,-21.46825c-6.14934,-9.191 -4.26345,-10.36279 -3.69463,-11.95132c0.17145,-0.4788 0.84482,-3.33171 1.51655,-3.85776c1.65245,-1.29409 7.65637,-4.9954 11.46168,-2.83295c3.80531,2.16244 11.08081,11.12878 18.30488,19.51632z" data-paper-data="{&quot;origPos&quot;:null}" fill="url(#color-1)" stroke="#000000"/><path d="M220.45871,227.95027c1.20074,-3.32883 0.06674,-1.90942 4.82651,-7.6764c4.75978,-5.76698 7.532,-8.59652 10.24284,-10.58173c2.99829,-2.1957 21.12423,17.66136 23.01616,24.16911c1.89191,6.50775 -10.2196,10.33635 -12.48094,12.06943c-1.62711,1.24701 -4.4112,2.5805 -6.60912,3.05279c-2.19792,0.4723 -1.91316,0.88974 -5.6412,-0.42042c-3.72804,-1.31016 -5.99085,-1.66164 -8.86918,-4.67903c-2.87832,-3.0174 -4.03933,-7.14113 -4.72298,-9.56986c-0.68365,-2.42873 -0.96283,-3.03504 0.23791,-6.36388z" data-paper-data="{&quot;origPos&quot;:null}" fill="#9900aa" stroke="#b100c6"/></g><g data-paper-data="{&quot;origPos&quot;:null}"><path d="M229.67785,169.82956c15.39885,0 40.51731,-5.44824 52.39438,2.9966c15.94172,11.33491 16.91377,36.01156 16.91377,53.82034c0,16.41613 -22.9587,24.13183 -51.43391,24.13183c-28.47521,0 -53.79308,-8.23538 -53.05883,-42.43989c1.21973,-12.52806 6.70937,-38.50888 35.18458,-38.50888z" data-paper-data="{&quot;origPos&quot;:null,&quot;index&quot;:null}" fill="url(#color-2)" stroke="none" stroke-width="0" stroke-linecap="butt"/><path d="M235.17785,164.32956c15.39885,0 36.01731,-2.94824 47.89438,5.4966c8.04003,5.71663 15.97706,29.68937 15.97706,29.68937c0,0 -36.93426,-2.75059 -46.06329,1.13097c-4.09315,1.74035 -16.45869,7.13183 -21.9339,8.63183c-2.86947,0.78612 -34.29308,0.76462 -31.55883,-18.43989c1.21973,-12.52806 7.20937,-26.50888 35.68458,-26.50888z" data-paper-data="{&quot;origPos&quot;:null,&quot;index&quot;:null}" fill="#fff70c" stroke="none" stroke-width="0" stroke-linecap="butt"/><path d="M237.74093,169.7965l1.5,35.5" data-paper-data="{&quot;origPos&quot;:null}" fill="none" stroke="#b100c6" stroke-width="17" stroke-linecap="round"/><path d="M246.24093,205.2965c0,3.86599 -3.13401,7 -7,7c-3.86599,0 -7,-3.13401 -7,-7c0,-3.86599 3.13401,-7 7,-7c3.86599,0 7,3.13401 7,7z" data-paper-data="{&quot;origPos&quot;:null}" fill="#f3f3f3" stroke="none" stroke-width="0" stroke-linecap="butt"/><path d="M275.21757,167.54925l7.83813,11.27226l9.70859,23.72221" data-paper-data="{&quot;origPos&quot;:null,&quot;origRot&quot;:0}" fill="none" stroke="#b100c6" stroke-width="14" stroke-linecap="round"/><path d="M301.24091,200.2965c0,3.86599 -3.13401,7 -7,7c-3.86599,0 -7,-3.13401 -7,-7c0,-3.86599 3.13401,-7 7,-7c3.86599,0 7,3.13401 7,7z" data-paper-data="{&quot;origPos&quot;:null}" fill="#f3f3f3" stroke="none" stroke-width="0" stroke-linecap="butt"/></g><g data-paper-data="{&quot;origPos&quot;:null,&quot;origRot&quot;:0}" stroke-width="0" stroke-linecap="round"><path d="M286.29722,254.34676c0.50545,0.02177 2.87703,0.79316 3.99264,1.36358c1.31062,0.67014 2.73136,1.97377 3.34555,2.38834c0.20472,0.13819 1.59542,2.68379 2.72734,2.68726c1.13192,0.00347 4.85415,-1.79733 8.10736,-2.31988c3.2532,-0.52256 3.85386,-1.39054 4.99536,0.2152c1.1415,1.60575 0.36386,3.76458 -0.59125,5.98009c-0.95512,2.21551 -2.39681,5.55528 -5.33968,7.77739c-2.94288,2.22211 -4.96281,2.50376 -8.45473,2.63855c-3.49194,0.13479 -17.39776,0.59042 -28.30707,-1.21947c-10.90931,-1.80989 -10.47236,-3.98673 -11.24085,-5.4889c-0.23164,-0.45277 -1.85016,-2.89669 -1.77373,-3.74648c0.188,-2.09044 1.60038,-9.00071 5.78175,-10.29403c4.18138,-1.29332 15.69791,-0.45811 26.75734,0.01832z" data-paper-data="{&quot;origPos&quot;:null}" fill="url(#color-3)" stroke="#000000"/><path d="M259.42267,250.85352c-1.6044,-3.15417 -1.34613,-1.35584 -2.29118,-8.7734c-0.94506,-7.41756 -1.10966,-11.37542 -0.70084,-14.71047c0.45216,-3.68868 27.33536,-3.30666 33.37417,-0.23047c6.03881,3.07619 0.53792,14.52552 0.25306,17.36031c-0.20497,2.03973 -1.13898,4.98201 -2.29943,6.90744c-1.16046,1.92543 -0.6612,2.00367 -4.16845,3.82414c-3.50723,1.82047 -5.31256,3.22924 -9.48249,3.26156c-4.16994,0.03232 -7.97062,-1.94453 -10.20898,-3.10894c-2.23837,-1.16441 -2.87144,-1.37599 -4.47584,-4.53016z" data-paper-data="{&quot;origPos&quot;:null}" fill="#9900aa" stroke="#b100c6"/></g><g data-paper-data="{&quot;origPos&quot;:null}"><path d="M272.55909,139.29737l-2.33333,5.33334l7.66667,27.66666l-42.33334,4.33334l-3.66666,-1.33334l-2.66666,-4.66666l-7.33334,-27.33334l33,-4z" data-paper-data="{&quot;origPos&quot;:null}" fill="#a10114" stroke="#a10114" stroke-width="0.5" stroke-linecap="round"/><path d="M225.9474,162.77771c-1.17041,-4.92546 4.12419,-10.40192 11.82582,-12.23201c7.70162,-1.83009 14.89384,0.67921 16.06424,5.60467c1.17041,4.92546 -4.12419,10.40192 -11.82582,12.23201c-7.70163,1.83009 -14.89385,-0.67921 -16.06425,-5.60467z" data-paper-data="{&quot;origPos&quot;:null,&quot;origRot&quot;:0}" fill="#f4c4f6" stroke="none" stroke-width="0" stroke-linecap="butt"/><g data-paper-data="{&quot;origPos&quot;:null}" stroke-linecap="round"><path d="M237.89242,174.96403l-4.66666,-10.33333l40,-5l6.66667,-0.33334l3,2.33334l1.33333,3l1,7.33333z" data-paper-data="{&quot;origPos&quot;:null}" fill="#ffffff" stroke="#000000" stroke-width="0"/><path d="M272.55909,160.29737l4.66667,10" data-paper-data="{&quot;origPos&quot;:null}" fill="none" stroke="#a5b5ff" stroke-width="1.5"/><path d="M261.1521,161.91449l2.81397,9.43241" data-paper-data="{&quot;origPos&quot;:null,&quot;origRot&quot;:0}" fill="none" stroke="#a5b5ff" stroke-width="1.5"/><path d="M248.96608,173.01356l-2.81397,-9.43242" data-paper-data="{&quot;origPos&quot;:null,&quot;origRot&quot;:0}" fill="none" stroke="#a5b5ff" stroke-width="1.5"/></g><g data-paper-data="{&quot;origPos&quot;:null}"><path d="M222.37301,139.72779c3.44949,0.6899 4.11556,5.38849 4.17233,5.67233c0.32137,1.60688 11.12385,24.14025 11.88456,25.4081c-2.99229,-1.44186 1.25964,1.27756 1.46254,1.32248c1.48977,0.32987 3.46888,0 5,0c5.88154,0 27.35455,-2.09488 29.64305,-2.64239c1.84283,-0.44089 8.47629,-0.81784 9.85696,-0.35761c5.12234,1.70745 4.47231,11.13352 3.6529,15.23058c-1.71763,1.75647 -3.25597,3.7083 -5.1529,5.26942c-0.64345,0.52955 -1.66667,0 -2.5,0c-2.70957,0 -5.00864,-0.20036 -7.57248,-1.21254c-0.65738,-0.25953 -1.15274,-0.82821 -1.78447,-1.14509c-0.18943,-0.09501 -0.55595,-0.14816 -0.85359,-0.20784c-0.9961,0.53477 -1.92051,1.20274 -2.9325,1.70784c-3.55238,1.77304 -21.65861,1.1468 -24.17895,0.53959c-7.12069,-1.71554 -13.07322,-6.37559 -17.42801,-12.18197c-4.90173,-6.74464 -6.71181,-14.16556 -8.55762,-22.12639c-0.65691,-2.83323 -0.59529,-11.35418 -0.59529,-11.35418c0,0 0.98058,-4.90291 5.88349,-3.92233z" data-paper-data="{&quot;origPos&quot;:null}" fill="#ffdebd" stroke="none" stroke-width="0.5" stroke-linecap="butt"/><path d="M271.89243,175.6307l1.66667,3.66666v2.66666v3l-2,2" data-paper-data="{&quot;origPos&quot;:null}" fill="none" stroke="#f6b09a" stroke-width="1.5" stroke-linecap="round"/></g></g><g data-paper-data="{&quot;origPos&quot;:null,&quot;origRot&quot;:0}" stroke-linecap="butt"><g data-paper-data="{&quot;origPos&quot;:null}" stroke="none" stroke-width="0"><path d="M231.2464,210.15883c-1.01757,5.56872 -7.02056,1.89634 -17.34305,0.01014c-10.3225,-1.8862 -16.51346,-0.48502 -15.49591,-6.05374c1.01756,-5.56871 -0.31664,-19.58922 3.91479,-19.39909c3.53948,0.15902 29.39365,3.84819 32.01607,6.23066c2.04001,1.85337 -0.96406,7.56699 -3.09192,19.21204z" data-paper-data="{&quot;origRot&quot;:0,&quot;origPos&quot;:null}" fill="#ffdebd"/><path d="M234.51181,194.48761c-1.08823,4.07039 -8.20788,-2.05211 -18.53037,-3.93831c-10.3225,-1.8862 -16.06111,-1.50747 -15.04355,-7.07618c1.01756,-5.56871 4.57876,-11.31063 8.81021,-11.12052c2.99292,-0.81631 9.49134,-4.22324 12.11374,-1.84077c7.05802,2.11726 14.77783,12.33073 12.64998,23.97578z" data-paper-data="{&quot;origRot&quot;:0,&quot;origPos&quot;:null}" fill="#fff70c"/></g><g data-paper-data="{&quot;origPos&quot;:null}"><path d="M234.60281,201.84065c-3.09036,8.37726 -2.15432,13.80413 -9.29434,19.16592c-3.89111,2.92203 -14.68594,-0.4933 -19.25132,-2.17745c-8.1609,-3.01054 -8.66258,-8.97324 -5.07861,-18.6886c3.58397,-9.71535 13.10508,-15.15068 21.26599,-12.14015c8.1609,3.01054 15.94228,4.12493 12.3583,13.84027z" data-paper-data="{&quot;origPos&quot;:null,&quot;origRot&quot;:0}" fill="#ffdebd" stroke="#ffdebd" stroke-width="0"/><g data-paper-data="{&quot;origPos&quot;:null,&quot;origRot&quot;:0}" fill="#ffffff" stroke="none" stroke-width="0"><path d="M250.99322,196.15407c14.41799,4.07011 10.28857,16.1589 7.49932,29.68485c-2.55605,12.39516 -14.23897,11.64774 -23.26413,8.15322c-12.44056,-4.81698 -7.82118,-13.79077 -2.56955,-25.30572c5.25162,-11.51494 4.87181,-16.33276 18.33438,-12.53235z" data-paper-data="{&quot;origRot&quot;:0,&quot;origPos&quot;:null}"/><path d="M236.52436,190.76502c8.51834,3.55735 4.38189,4.82109 -2.73509,21.56697c-6.24744,14.69986 -6.84371,17.2221 -14.7547,14.3614c-7.07163,-2.55716 -0.72397,-11.91795 3.31888,-20.81349c4.04283,-8.89553 9.19682,-17.19214 14.17092,-15.11488z" data-paper-data="{&quot;origRot&quot;:0,&quot;origPos&quot;:null}"/></g><path d="M232.07319,227.34343c-1.79037,-0.89138 -0.89899,-2.68176 -0.89899,-2.68176l3.1945,-1.17705c1.74806,-0.08244 3.49612,-0.16487 5.24417,-0.24731c1.74806,-0.08244 3.49612,-0.16487 5.24416,-0.2473c0.37476,-0.01767 0.75616,0.27065 1.11429,0.15882c0.0551,-0.0172 0.11128,-0.04943 0.16768,-0.09048c-0.28781,-0.36132 -0.63535,-0.67887 -1.02469,-0.98147c-1.95557,-1.51986 -3.29827,-2.42527 -4.03603,-4.91534c-1.10615,-3.73335 2.46496,-4.12069 4.80602,-4.23109c0.87394,-0.00607 3.48098,0.72104 4.13451,0.51696c0.18393,-0.05744 0.37498,-0.27843 0.54941,-0.43877c-0.42842,-0.9889 -1.12212,-2.51 -1.74693,-3.3059c-0.8574,-1.09216 -2.10715,-1.98505 -3.37881,-2.81218l-0.08703,0.11997l-2.57647,-1.86917c-0.20255,-0.1443 -0.37744,-0.32561 -0.51444,-0.53459c-0.34801,-0.48951 -0.64073,-1.28713 0.0351,-2.24171c0.01161,-0.01656 0.02345,-0.03294 0.03554,-0.04913c0.69639,-0.94221 1.54484,-0.91488 2.1194,-0.73708c0.19151,0.05109 0.37216,0.13002 0.53709,0.23239l1.52199,0.91416l-0.07397,0.12316c3.19255,2.29818 5.99354,4.41613 7.65857,8.29857c0.95894,2.236 0.78054,4.92917 -2.12405,5.78977c-2.13383,0.63222 -3.89536,-0.33992 -5.90149,-0.01086c-0.33297,0.0157 -0.66592,0.03141 -0.99889,0.04711c0.13494,0.43215 0.52671,0.74043 0.84007,1.06718c0.84154,0.87753 5.29769,2.76945 4.73054,4.78246c-1.47895,5.24924 -6.53908,4.20714 -10.84315,4.41011c-1.74806,0.08244 -3.49612,0.16487 -5.24417,0.24731c0,0 -0.69355,0.75463 -2.48392,-0.13675z" data-paper-data="{&quot;origPos&quot;:null}" fill="#0052ef" stroke="none" stroke-width="0.5"/></g></g><g data-paper-data="{&quot;origPos&quot;:null}"><path d="M295.8478,121.85391c-0.62813,3.79329 -13.15027,8.6 -23.00472,8.6c-7.94072,0 -5.97237,-6.75492 -5.97237,-10.4c0,-3.64508 15.56169,-2.85 23.50241,-2.85c7.94072,0 5.88126,2.19464 5.47468,4.65z" data-paper-data="{&quot;origPos&quot;:null}" fill="#b49416" stroke="none" stroke-width="0" stroke-linecap="butt"/><path d="M294.33333,119.33333l-1,4l-4.66667,3.33333l-11.33333,5.33334" data-paper-data="{&quot;origPos&quot;:null}" fill="none" stroke="#a5b5ff" stroke-width="4.5" stroke-linecap="round"/><path d="M208.96507,147.97212c2.84617,0.02051 4.30892,0.91673 6.62718,2.36565c4.2679,2.96956 8.49595,8.92257 7.5327,14.3374c-0.83154,4.67445 -7.32065,4.79843 -9.98889,1.68549c-0.03911,-0.06429 -0.41853,-2.25462 -0.52131,-2.43888c-1.03458,-1.85479 -4.32256,-1.62063 -5.85833,-3.62037c-1.4033,-1.82728 -0.44167,-7.3604 -0.44167,-9.57963c0,0 1.513,-3.00639 2.65032,-2.74964z" data-paper-data="{&quot;origPos&quot;:null}" fill="#8e4108" stroke="none" stroke-width="0.5" stroke-linecap="butt"/><path d="M221.41403,170.56751c0,0 -4.93662,-6.19855 -6.77345,-8.95379c-1.31741,-2.02672 -1.9145,-4.06694 -2.82683,-6.23492c-0.39392,-0.9361 -1.97438,-2.62329 -1.98933,-3.60571c-0.00376,-0.24674 -1.0817,-0.68223 -1.96398,-0.99097c-1.74453,-0.61048 -3.56382,-1.32355 -5.23299,-2.11453c-3.10064,-1.4693 -5.7193,-4.02549 -7.80575,-6.70806c-3.28551,-4.24205 -6.35949,-8.91018 -7.50152,-14.16106c-0.92605,-4.25785 0.18828,-7.58788 0.18828,-7.58788c0,0 12.88558,1.06561 13.3213,1.14831c2.05003,0.38909 8.50036,0.37565 12.82928,1.56112c2.10123,0.57542 3.98038,0.99151 5.67273,2.2931c0.64064,0.49271 1.88683,2.39597 2.19186,2.39016c2.70041,-0.05145 6.61193,-2.4474 9.10771,-3.44571c6.76039,-2.70416 41.91996,-6.00736 46.89214,-2.36908c0.71443,0.52277 0.87538,1.53933 1.28772,2.3227c1.50942,2.86766 6.86783,23.77318 7.4328,27.76682c0.29918,2.11479 -1.2611,4.35411 -2.47003,5.75161c-0.54733,0.6327 -6.93655,1.00233 -9.15664,1.00233c-10.69243,0 -21.34714,-0.11066 -32.0221,0.57805c-2.66168,0.16651 -6.17893,0.6634 -8.81707,0.16448c-0.34053,-0.0644 -1.48419,1.14666 -1.23755,1.48506c1.19458,1.63903 3.25747,9.90041 3.25747,9.90041z" data-paper-data="{&quot;origPos&quot;:null}" fill="#ffdebd" stroke="none" stroke-width="0.5" stroke-linecap="butt"/><path d="M258.56475,137.95023c0,0 -0.9935,-0.51493 -7.4,-0.51493c-6.40651,0 -11.68936,4.29531 -15.6,2.57466c-3.4,-1.49597 -4.60651,-13.07925 -2.6,-13.07925c4.64315,0 24.03794,-0.30883 24.03794,-0.30883l1.56206,11.32836z" data-paper-data="{&quot;origPos&quot;:null}" fill="#ffffff" stroke="#f6b09a" stroke-width="0" stroke-linecap="butt"/><path d="M263.99136,130.82176c0,0 1.7916,-4.46328 4.36206,-5.79988c2.67666,-1.39181 7.03794,-2.10012 7.03794,-2.10012c0,0 6.2,7.44741 2.8,8.9c-3.91064,1.67076 0.4065,1.5 -6,1.5c-6.4065,0 -8.2,-2.5 -8.2,-2.5z" data-paper-data="{&quot;index&quot;:null,&quot;origPos&quot;:null}" fill="#ffffff" stroke="#f6b09a" stroke-width="0" stroke-linecap="butt"/><path d="M234.37537,141.4229c-1.70114,0.41062 -2.11176,-1.29052 -2.11176,-1.29052l-0.58286,-0.68312c-2.35983,-3.77572 -2.266,-7.01579 -2.266,-11.3275c0,0 0,-1.75 1.75,-1.75c1.75,0 1.75,1.75 1.75,1.75c0,3.6974 -0.23865,6.31627 1.734,9.47251l1.01714,1.71687c0,0 0.41063,1.70114 -1.29052,2.11176z" data-paper-data="{&quot;origPos&quot;:null}" fill="#18c6ff" stroke="none" stroke-width="0.5" stroke-linecap="butt"/><path d="M219.43193,127.7154l-0.00648,-0.00039c-0.5388,-4.84921 2.7096,-5.35609 6.53929,-5.14325c1.25,0.06947 2.79474,-0.1181 3.63889,1.0213c2.31535,3.1252 0.31112,5.29268 0.31112,8.62869c-0.20415,3.88036 -1.44846,11.21088 -7.0102,8.0534c-0.00173,-0.00098 -0.77381,-2.32479 -0.78444,-2.35535c-1.09205,-3.13976 -2.08041,-6.20301 -2.67714,-9.485c0,0 -0.03988,-0.21932 -0.01289,-0.51565l-0.01534,0.00261c0,0 0,-0.08024 0.01718,-0.20636z" data-paper-data="{&quot;origPos&quot;:null}" fill="#8e4108" stroke="none" stroke-width="0.5" stroke-linecap="butt"/><path d="M280.52698,132.49278c-1.57528,0.77783 -2.33751,-0.82969 -2.33751,-0.82969l-0.08492,-1.64175c-0.57135,-1.74913 -1.4749,-2.87972 -2.6685,-4.30076c0,0 -1.13889,-1.35589 0.18981,-2.51808c1.3287,-1.16219 2.46758,0.1937 2.46758,0.1937c1.47893,1.76073 2.60309,3.26577 3.3315,5.49569l-0.08492,1.21555c0,0 0.76224,1.60752 -0.81304,2.38535z" data-paper-data="{&quot;origPos&quot;:null}" fill="#18c6ff" stroke="none" stroke-width="0.5" stroke-linecap="butt"/><path d="M280.24658,94.82856c2.65049,14.94461 -0.54433,15.79448 -9.42494,20.57884c-12.93978,6.97121 -29.86592,5.55994 -43.68752,10.97342c-3.62918,1.42143 -12.87913,-2.03217 -16.83418,-2.03217c-8.08923,0 -12.65358,-5.22725 -12.98785,-11.45342c-0.73732,-13.7335 6.74195,-13.78676 14.83118,-13.78676c0,0 8.90245,1.33414 11.97751,5.60456c0,0 12.38453,-18.21899 25.43957,-20.46979c16.8055,-2.89741 28.78283,-0.14688 30.68624,10.58532z" data-paper-data="{&quot;origPos&quot;:null}" fill="#fff70c" stroke="none" stroke-width="0" stroke-linecap="butt"/><path d="M275.9885,104.24664c0,5.24671 -5.95461,9.5 -13.3,9.5c-7.34538,0 -13.3,-4.25329 -13.3,-9.5c0,-5.24671 5.95462,-9.5 13.3,-9.5c7.34539,0 13.3,4.25329 13.3,9.5z" data-paper-data="{&quot;origPos&quot;:null}" fill="#ffffff" stroke="none" stroke-width="0" stroke-linecap="butt"/><path d="M247.09449,93.74067c0.0164,-2.22761 2.24401,-2.21121 2.24401,-2.21121l2.74023,2.62113c0.93742,1.70899 1.87483,3.41799 2.81225,5.12698c0.93742,1.70899 1.87484,3.41799 2.81225,5.12698c0.20097,0.36639 0.09896,0.88907 0.38603,1.19276c0.04417,0.04672 0.10388,0.08719 0.17255,0.12356c0.22082,-0.46473 0.36862,-0.96783 0.48103,-1.50545c0.56455,-2.70028 0.81392,-4.48674 2.94495,-6.44285c3.19504,-2.93281 5.32918,0.45142 6.58461,2.74017c0.43349,0.87162 0.9809,3.83612 1.50475,4.3903c0.14743,0.15597 0.46202,0.23907 0.70778,0.33522c0.78009,-0.91237 1.96303,-2.35049 2.45391,-3.365c0.67361,-1.39216 0.95593,-3.07949 1.16171,-4.75657l-0.16262,-0.02842l0.61043,-3.49248c0.04534,-0.27326 0.14126,-0.53695 0.28338,-0.77626c0.31966,-0.58768 0.97469,-1.27069 2.26049,-1.06123c0.02225,0.00351 0.04444,0.00736 0.06655,0.01154c1.28347,0.23608 1.67107,1.0985 1.77415,1.76044c0.04253,0.21663 0.05191,0.43601 0.03013,0.65112l-0.17046,1.97017l-0.15942,-0.01379c-0.73845,4.31881 -1.48803,8.15762 -4.55894,11.72264c-1.76862,2.05318 -4.55097,3.19181 -6.83272,0.70602c-1.67626,-1.82615 -1.56493,-4.06439 -2.87537,-5.91103c-0.17856,-0.32553 -0.35711,-0.65104 -0.53567,-0.97657c-0.36645,0.34639 -0.48336,0.88921 -0.6571,1.36259c-0.46658,1.27132 -0.1805,6.65594 -2.47233,7.07289c-5.9763,1.08724 -7.40821,-4.48618 -9.71632,-8.69407c-0.93742,-1.70899 -1.87484,-3.41799 -2.81226,-5.12698c0,0 -1.09436,-0.32498 -1.07796,-2.55259z" data-paper-data="{&quot;origPos&quot;:null,&quot;origRot&quot;:0}" fill="#0052ef" stroke="none" stroke-width="0.5" stroke-linecap="butt"/><path d="M296.29017,119.75391c-0.2212,0.85848 -43.51301,6.5 -55.63158,7.7c-5.88978,0.58322 -17.80653,0.15848 -17.58533,-0.7c0.81769,-3.1735 3.1022,-8.24498 8.73737,-9.9c6.8098,-2 30.18828,-7.38005 47.67076,-7.1384c7.14675,0.09879 17.62649,6.8649 16.80879,10.0384z" data-paper-data="{&quot;origPos&quot;:null}" fill="#ffd412" stroke="none" stroke-width="0" stroke-linecap="butt"/><path d="M197.00001,128.49286l6.66666,3.33333c0,0 4.69674,0.89519 7.33334,2.33333c2.63659,1.43814 2.61141,1.93989 3.66666,3.66667c1.05525,1.72678 0.80582,1.90922 0,2.33333c-0.80582,0.42412 -3.87963,1.49074 -6.33333,1c-2.4537,-0.49074 -3.66667,-3 -3.66667,-3l-1.03333,-6.26666" data-paper-data="{&quot;origPos&quot;:null}" fill="none" stroke="#f6b09a" stroke-width="3" stroke-linecap="round"/><path d="M227.25001,127.83334l31.41667,-6.16667l36,-2.33333" data-paper-data="{&quot;origPos&quot;:null}" fill="none" stroke="#ffffff" stroke-width="4.5" stroke-linecap="round"/><path d="M278.00001,125.75v-2.25l-5.5,0.5l-3.25,0.75l-3,3.5l-2.5,2.25h-6.75l-2.75,-1.25l-7,-2l-5.5,-0.25l-5.5,1l-11.25,3.25l-1,-10l8.5,-0.75l6,-0.25l5,0.75l6.5,1.5l4.25,2.5l4,0.5l4,-0.75l2.75,-1l4,-4.25l4.75,-2l4.25,-0.25l4,1l0.5,3.5z" data-paper-data="{&quot;origPos&quot;:null}" fill="#000001" stroke="#ff0000" stroke-width="0" stroke-linecap="round"/><path d="M264.74628,122.63835c0.29131,3.63097 -1.70285,6.79089 -4.45407,7.05788c-2.75122,0.26699 -5.21769,-2.46007 -5.50899,-6.09104c-0.2913,-3.63097 1.70286,-2.12422 4.45408,-2.39121c2.75122,-0.26699 5.21768,-2.2066 5.50899,1.42437z" data-paper-data="{&quot;origPos&quot;:null,&quot;origRot&quot;:0}" fill="#ffdebd" stroke="#f6b09a" stroke-width="2.5" stroke-linecap="butt"/><path d="M254.20001,122.33334l5.06667,-0.86667l5.8,-0.53333" data-paper-data="{&quot;origPos&quot;:null}" fill="none" stroke="#ffffff" stroke-width="4.5" stroke-linecap="round"/><g data-paper-data="{&quot;origPos&quot;:null,&quot;index&quot;:null}" stroke-linecap="round"><path d="M280.47387,151.79734l4.7519,8.68623l-40.73059,4.20301c0,0 -10.2946,0.364 -10.42056,0.28312c-0.37789,-0.24264 -1.20463,-2.38462 -1.20463,-2.38462l-3.39421,-7.35527l2.80023,-0.91065z" data-paper-data="{&quot;origPos&quot;:null}" fill="#ffffff" stroke="#000000" stroke-width="0"/><path d="M245.17402,164.12617l-4.75191,-8.40603" data-paper-data="{&quot;origPos&quot;:null}" fill="none" stroke="#a5b5ff" stroke-width="1.5"/><path d="M253.92399,154.83791l2.86537,7.92891" data-paper-data="{&quot;origPos&quot;:null,&quot;origRot&quot;:0}" fill="none" stroke="#a5b5ff" stroke-width="1.5"/><path d="M272.06332,161.36582l-2.86537,-7.92892" data-paper-data="{&quot;origPos&quot;:null,&quot;origRot&quot;:0}" fill="none" stroke="#a5b5ff" stroke-width="1.5"/></g><path d="M296.78848,153.94663l-2.8,7.6h-3.2l-1,-2.4l-0.6,2.6l-4,-0.2l-2.8,-3.8l-0.6,3.4l-2.4,1l-1.6,-0.6l-3,-4.6l-3,5l-2.6,-0.2l-3,-4.2l-3.2,5.2h-1.8l-5.4,-5h-1.4l-3.4,5.2l-1.8,0.4l-7.4,-5.4l-5.2,6.2l-2.6,0.4l-13.8,-17l2.2,-1l11,5.4l1.8,-4.8h2.4l12.4,6.6l4.2,-4.6l1.6,-0.2l5.8,5.2l3.8,-4.6l2.6,0.4l2,1.4l1.2,2.6l2.4,-2.8l2.8,-0.2l3,3.8l2.8,-2.4l3,1l1.8,2.6l2.2,-2.8l2.4,2.2l1,0.8z" data-paper-data="{&quot;origPos&quot;:null}" fill="#000001" stroke="#ff0000" stroke-width="0" stroke-linecap="round"/><path d="M262.20005,142.31174c0.25909,-1.7103 0.15839,-3.85084 0.65733,-5.19849c1.10219,-2.97706 4.41574,-4.36325 7.33013,-4.36325c9.77911,0 25,3.73774 25,15.75c-0.07332,3.54048 -0.74802,6.62555 -3.57153,9.07119c-1.38349,1.19834 -3.94465,1.2429 -5.67971,1.4164c-5.40098,0.5401 -11.62677,1.28631 -16.98905,0.21385c-4.69024,-1.24371 -9.228,-0.73967 -12.94511,-4.73735c-2.61286,-2.81008 -2.25315,-8.13494 -0.24308,-11.03529c0.97147,-1.40174 4.39887,-1.17881 5.92847,-1.17881c0,0 0.212,0 0.51254,0.06173z" data-paper-data="{&quot;origPos&quot;:null}" fill="url(#color-4)" stroke="none" stroke-width="0.5" stroke-linecap="butt"/><path d="M250.63332,131c0.8434,0 1.6067,0.28 2.16,0.733c0.5534,0.452 0.8956,1.077 0.8956,1.767c0,0.69 -0.3422,1.315 -0.8956,1.767c-0.5533,0.453 -1.3166,0.733 -2.16,0.733c-0.8433,0 -1.6066,-0.28 -2.16,-0.733c-0.5533,-0.452 -0.8955,-1.077 -0.8955,-1.767c0,-0.69 0.3422,-1.315 0.8955,-1.767c0.5534,-0.453 1.3167,-0.733 2.16,-0.733z" data-paper-data="{&quot;origPos&quot;:null}" id="ID0.651427554897964" fill="#000000" stroke="none" stroke-width="1.05702" stroke-linecap="butt"/><path d="M270.68332,127.45c0.8434,0 1.6067,0.28 2.16,0.733c0.5534,0.452 0.8956,1.077 0.8956,1.767c0,0.69 -0.3422,1.315 -0.8956,1.767c-0.5533,0.453 -1.3166,0.733 -2.16,0.733c-0.8433,0 -1.6066,-0.28 -2.16,-0.733c-0.5533,-0.452 -0.8955,-1.077 -0.8955,-1.767c0,-0.69 0.3422,-1.315 0.8955,-1.767c0.5534,-0.453 1.3167,-0.733 2.16,-0.733z" data-paper-data="{&quot;origPos&quot;:null}" id="ID0.651427554897964" fill="#000000" stroke="none" stroke-width="1.05702" stroke-linecap="butt"/></g></g></g></svg>