<svg version="1.1" xmlns="http://www.w3.org/2000/svg" xmlns:xlink="http://www.w3.org/1999/xlink" width="525.87056" height="229.66431" viewBox="0,0,525.87056,229.66431"><defs><linearGradient x1="425.85" y1="168.0681" x2="425.85" y2="371.2024" gradientUnits="userSpaceOnUse" id="color-1"><stop offset="0" stop-color="#7c5831"/><stop offset="1" stop-color="#95693b"/></linearGradient><linearGradient x1="264" y1="139.33334" x2="264" y2="221" gradientUnits="userSpaceOnUse" id="color-2"><stop offset="0" stop-color="#64e298"/><stop offset="1" stop-color="#60b483"/></linearGradient></defs><g transform="translate(19.87056,-143.44718)"><g data-paper-data="{&quot;isPaintingLayer&quot;:true}" fill-rule="nonzero" stroke-linejoin="miter" stroke-miterlimit="10" stroke-dasharray="" stroke-dashoffset="0" style="mix-blend-mode: normal"><path d="M-18.37056,370.77481v-20.65278h393.6937v20.65278z" fill="#745c2a" stroke="#41310e" stroke-width="3" stroke-linecap="butt"/><path d="M360.35,168.0681h131v203.1343h-131z" fill="url(#color-1)" stroke="#663b00" stroke-width="3.81817" stroke-linecap="butt"/><g fill="#b2b2b2" stroke="#7f7f7f" stroke-width="2" stroke-linecap="round"><path d="M445.6162,272.5994c0.6507,0.2665 -2.1518,0.8873 -2.9069,2.2749c-0.6871,1.2624 -0.7644,2.7798 -1.018,4.1939c-0.1256,0.7005 0.537,1.8498 -0.1154,2.1329c-1.3047,0.5661 -2.9804,0.3791 -4.2657,-0.2308c-1.3831,-0.6559 -2.7602,-1.8388 -3.191,-3.308c-0.5999,-2.0477 -0.2604,-4.3532 0.3461,-6.3986c0.3907,-1.3158 1.2823,-2.671 2.5208,-3.2628c1.2135,-0.5799 2.7781,-0.3434 4.0367,0.1304c1.8189,0.6853 4.4009,1.363 4.8658,3.2228z"/><path d="M448.8916,262.5374c4.6062,-1.0776 8.2819,3.3871 10.9769,6.7181c2.8352,3.507 4.3909,8.5519 4.5898,13.2002c0.131,3.1109 -1.3642,6.1383 -3.3816,8.3443c-2.0099,2.1961 -5.285,3.9484 -8.433,3.6756c-4.676,-0.2139 -11.0374,-0.6551 -13.3538,-5.0299c-2.3883,-4.5176 1.3234,-10.2304 3.0407,-15.0438c1.5175,-4.2525 2.4163,-10.2704 6.561,-11.8645z"/><path d="M440.9425,267.0202c-1.0971,1.3809 -1.941,3.305 -3.6089,3.878c-1.4369,0.494 -4.2922,0.3952 -4.4229,-1.1184c-0.2589,-2.9857 1.6903,-5.9431 3.6106,-8.2439c1.1106,-1.3292 3.2653,-2.5001 4.9395,-1.9306c1.3587,0.6267 1.4316,2.8781 1.3438,4.4095c-0.0665,1.174 -1.1299,2.0838 -1.4325,2.6477z"/><path d="M434.6131,281.4444c-0.2092,0.6049 -0.1569,2.0034 -0.9745,2.8483c-1.0661,1.103 -2.7702,2.5761 -4.1522,2.0025c-1.5538,-0.8443 -2.1544,-3.222 -1.9305,-4.9395c0.3888,-2.9716 1.2407,-6.4097 3.6106,-8.244c1.2011,-0.9302 3.2099,1.1013 3.8211,2.4924c0.71,1.6144 -0.132,3.5393 -0.4029,5.282z"/></g><path d="M401.6249,213.2196c1.5533,3.1175 -11.174,6.6214 -12.5239,12.3045c-0.9263,3.9174 3.8397,7.1076 6.6944,9.8614c1.756,1.6722 5.477,1.211 5.7139,2.89c0.2233,1.5962 -2.9457,2.8268 -4.817,3.2954c-2.3344,0.7808 -5.2532,1.6588 -7.2826,0.2981c-5.5986,-3.7558 -12.7334,-7.8146 -14.2516,-14.3837c-1.2532,-5.4217 2.5743,-12.3071 7.4725,-14.947c5.5712,-3.003 17.3124,-2.6941 20.1517,-0.3959z" fill="#b2b2b2" stroke="#7f7f7f" stroke-width="2" stroke-linecap="round"/><path d="M405.714,325.3922c2.8641,-1.9822 8.1478,10.1151 13.9654,10.6404c4.0094,0.358 6.4871,-4.8144 8.8055,-8.0328c1.4046,-1.9766 0.4172,-5.5937 2.0452,-6.0677c1.5481,-0.4488 3.2182,2.5123 3.9489,4.2975c1.1059,2.1992 2.3913,4.9628 1.3341,7.1656c-2.9187,6.0772 -5.9181,13.7181 -12.2035,16.1579c-5.1874,2.0138 -12.5483,-0.7922 -15.8601,-5.2636c-3.767,-5.0859 -5.1364,-16.751 -3.2668,-19.8892z" fill="#b2b2b2" stroke="#7f7f7f" stroke-width="2" stroke-linecap="round"/><path d="M362.63713,180l-4.06751,13l-8.13502,21v-23l-0.66836,-1.47885c0.13953,-0.65147 0.23376,-1.31869 0.23376,-2.02115c0,-10.18951 0.77866,-20.24908 0.96177,-30.42531c3.25679,-3.21672 6.79753,-6.39284 10.61937,-8.33128c1.31553,-0.66724 2.72303,-1.39214 4.14979,-2.17357c0.35007,-0.12508 0.69786,-0.26039 1.04257,-0.40959c0.55149,-0.2387 1.38486,-0.41021 1.5,-1c0.00287,-0.01471 0.00355,-0.02829 0.0022,-0.0408c0.22242,-0.13246 0.44425,-0.26629 0.66523,-0.40147c0.34015,0.0061 0.69905,0.02421 1.05907,0.04852v0.23351h3c0.63195,0 1.23651,-0.11724 1.79314,-0.33115c0.17934,-0.06094 0.36397,-0.13308 0.54976,-0.2185l117.90408,1.7123c1.18102,0.62679 2.36669,1.23474 3.47952,1.9976c1.98819,1.36292 2.63381,2.77459 4.11325,4.61325c0.7962,0.98953 2.02523,1.64234 2.62472,2.76203c0.13234,0.24719 -0.65321,-0.72941 -0.70788,-0.4544c-0.29359,1.47668 1.12106,2.797 1.77128,4.15493c0.16435,0.3287 0.32187,0.66595 0.47213,1.0097v0.75422l-3.43424,20v22l-3.43425,-16l-3.43424,-14v20l1.71712,18l-5.15136,-17l-5.15137,-16v22l-3.43424,15l-0.85856,-17l-4.29281,-19l-3.43424,20v20l-5.15137,-16v-21l-4.29281,13l-0.85856,21l-6.00993,-17v-15l-4.29281,17l-2.57568,20l-1.71713,-21l-1.71712,-23l-5.15137,29l-2.57568,12l-3.43425,-22l-0.85856,-13l-1.71712,18l-3.43425,19l-2.57568,-14l-2.57569,-18l-3.43424,17l-4.29281,15l-2.57568,-18v-22l-5.15137,17l-1.71712,16l-5.15137,-10l-0.85856,-17l-6.00993,22v11l-4.67641,-16.5l-3.05063,-16.5l-6.00993,8v17l-3.43425,-27l-4.57595,33l-3.30942,-30l-8.13502,31l2.28341,-21l-3.43425,-13z" data-paper-data="{&quot;origPos&quot;:null,&quot;index&quot;:null}" fill="url(#color-2)" stroke="#20996f" stroke-width="2" stroke-linecap="butt"/></g></g></svg>