<svg version="1.1" xmlns="http://www.w3.org/2000/svg" xmlns:xlink="http://www.w3.org/1999/xlink" width="185.83333" height="205.83333" viewBox="0,0,185.83333,205.83333"><defs><linearGradient x1="264.42206" y1="220.04703" x2="284.79035" y2="220.04703" gradientUnits="userSpaceOnUse" id="color-1"><stop offset="0" stop-color="#643a19"/><stop offset="1" stop-color="#9b663d"/></linearGradient><linearGradient x1="237.46613" y1="228.7307" x2="261.68466" y2="228.7307" gradientUnits="userSpaceOnUse" id="color-2"><stop offset="0" stop-color="#643a19"/><stop offset="1" stop-color="#9b663d"/></linearGradient><linearGradient x1="245.86368" y1="177.45782" x2="245.86368" y2="213.30476" gradientUnits="userSpaceOnUse" id="color-3"><stop offset="0" stop-color="#2a2a84"/><stop offset="1" stop-color="#262675"/></linearGradient><linearGradient x1="249.39445" y1="137.90625" x2="249.39445" y2="149.4906" gradientUnits="userSpaceOnUse" id="color-4"><stop offset="0" stop-color="#509b07"/><stop offset="1" stop-color="#346a00"/></linearGradient><linearGradient x1="238.15019" y1="135.46691" x2="238.15019" y2="155.52803" gradientUnits="userSpaceOnUse" id="color-5"><stop offset="0" stop-color="#509b07"/><stop offset="1" stop-color="#468904"/></linearGradient></defs><g transform="translate(-145.83333,-77.25779)"><g data-paper-data="{&quot;isPaintingLayer&quot;:true}" fill-rule="nonzero" stroke-linejoin="miter" stroke-miterlimit="10" stroke-dasharray="" stroke-dashoffset="0" style="mix-blend-mode: normal"><g data-paper-data="{&quot;origPos&quot;:null,&quot;index&quot;:null,&quot;origRot&quot;:0}" stroke="none" stroke-width="0" stroke-linecap="butt"><path d="M246.94386,193.71726c-2.48666,-2.19351 -0.94752,-8.61581 3.06917,-13.1693c4.01669,-4.55349 8.51484,-8.28205 8.51484,-8.28205l7.53779,6.49692c0,0 -5.40975,7.88927 -8.64041,11.5517c-4.01668,4.55348 -7.99473,5.59624 -10.48139,3.40274z" data-paper-data="{&quot;origRot&quot;:0,&quot;origPos&quot;:null}" fill="#64ca00"/><g data-paper-data="{&quot;origPos&quot;:null}" fill="#ffffff"><path d="M264.73966,173.49786c-4.56495,-3.66891 -10.00938,-8.46161 -5.86743,-13.03928c3.00482,-3.32093 11.74474,-4.32242 15.37824,0.27076c3.96499,5.0122 8.30257,8.84616 3.18784,13.52614c-4.7758,4.36985 -8.1337,2.91129 -12.69865,-0.75762z" data-paper-data="{&quot;origRot&quot;:0,&quot;origPos&quot;:null}"/><path d="M261.06251,176.80048c-3.52067,-2.83725 -8.09095,-5.3877 -5.69891,-7.91499c2.67595,-2.82727 3.44679,-1.90845 9.08554,2.87018c6.42358,5.44376 8.39643,5.10633 5.6142,8.34787c-1.62462,1.89284 -5.48015,-0.4658 -9.00084,-3.30306z" data-paper-data="{&quot;origRot&quot;:0,&quot;origPos&quot;:null}"/></g></g><g data-paper-data="{&quot;origPos&quot;:null,&quot;origRot&quot;:0}" stroke="none" stroke-width="0" stroke-linecap="butt"><path d="M272.45583,209.01947c2.12479,1.89978 5.1878,0.4086 5.56968,0.93111c1.54507,2.11406 1.96748,4.27148 -0.19945,8.16696c-2.68421,4.82541 -5.88165,7.52994 -11.22397,8.92612c-3.63858,0.95092 -2.78928,-2.22951 -4.43358,-5.6118c-0.59001,-1.21366 -1.53894,-2.6234 -3.70903,-5.22928c-2.71319,-3.25802 -6.55247,-10.29775 -6.55247,-10.29775c0,0 1.99113,-2.71214 4.27505,-5.07111c2.28355,-2.30925 5.50926,-3.65633 5.50926,-3.65633c0,0 5.8528,7.45052 10.7645,11.84208z" data-paper-data="{&quot;origPos&quot;:null}" fill="#262675"/><path d="M285.4145,215.63522c1.72147,1.71764 0.7847,4.27864 -0.41471,6.39409c-0.78604,1.38635 -6.20419,6.50778 -10.34952,7.59572c-1.28695,0.33775 -3.02615,-0.08045 -3.02615,-0.08045c0,0 -1.88375,2.55871 -2.52063,1.9105c-0.50557,-0.51456 -1.38791,-1.3693 -1.15922,-2.1285c0.98438,-3.26796 6.02071,-8.31006 8.43138,-10.72608c3.3093,-3.31667 7.35614,-4.64427 9.03886,-2.96528z" data-paper-data="{&quot;origPos&quot;:null}" fill="#dbbb7b"/><path d="M284.08234,212.64547c1.41291,2.61393 0.84099,6.06773 -2.90023,9.81727c-3.74122,3.74954 -9.91811,5.59068 -9.91811,5.59068c0,0 -2.56558,2.85711 -3.31684,2.21712c-1.55489,-1.3246 -3.93277,-3.6454 -3.46529,-4.26772c1.7258,-2.29743 1.61902,-1.64502 3.68385,-4.8407c1.33688,-2.06904 2.55447,-6.5394 4.2944,-8.2832c3.74122,-3.74954 9.29583,-4.53734 11.62221,-0.23345z" data-paper-data="{&quot;origPos&quot;:null}" fill="url(#color-1)"/></g><g data-paper-data="{&quot;origPos&quot;:null,&quot;origRot&quot;:0}" stroke="none" stroke-width="0" stroke-linecap="butt"><path d="M255.55472,219.45737c0.22622,2.84124 3.47184,3.87641 3.38752,4.51807c-0.34116,2.59616 -1.52461,4.44882 -5.78134,5.77191c-5.27291,1.63895 -9.45328,1.38898 -14.28265,-1.28814c-3.28921,-1.82336 -0.47944,-3.53849 0.66529,-7.12083c0.41076,-1.28544 0.69716,-2.96049 0.92552,-6.34393c0.28551,-4.23019 2.83024,-12.14154 2.83024,-12.14154c0,0 4.72741,-0.15516 7.86776,0.34176c2.47833,0.39216 6.52944,1.93641 6.52944,1.93641c0,0 -2.66473,7.75843 -2.1418,14.32631z" data-paper-data="{&quot;origPos&quot;:null}" fill="#262675"/><path d="M260.36519,233.18887c0.06009,2.43107 -2.38542,3.63763 -4.71343,4.3405c-1.52566,0.46062 -8.98115,0.42673 -12.73162,-1.64724c-1.16435,-0.64388 -2.13418,-2.14694 -2.13418,-2.14694c0,0 -3.12917,0.55127 -3.14259,-0.35737c-0.01066,-0.72128 -0.05916,-1.94878 0.63033,-2.34029c2.96791,-1.68525 10.09235,-1.85748 13.5043,-1.94181c4.68384,-0.11577 8.52846,1.7168 8.58719,4.09317z" data-paper-data="{&quot;origPos&quot;:null}" fill="#dbbb7b"/><path d="M261.46486,230.10602c-0.78181,2.86666 -3.57954,4.97105 -8.8747,5.10193c-5.29515,0.13088 -11.03553,-2.80031 -11.03553,-2.80031c0,0 -3.82849,0.29656 -3.93036,-0.68506c-0.21084,-2.0317 -0.32959,-5.35229 0.43822,-5.47994c2.83452,-0.47123 2.30695,-0.07285 6.00677,-0.96003c2.39546,-0.57441 6.36206,-2.96874 8.82467,-3.02961c5.29516,-0.13088 9.8582,3.13301 8.57092,7.85301z" data-paper-data="{&quot;origPos&quot;:null}" fill="url(#color-2)"/></g><g><path d="M258.06253,187.38602c7.69158,12.38379 3.64718,19.6573 -3.30641,23.83909c-6.95359,4.18179 -16.24357,1.70484 -19.84903,-4.2904c-3.91132,-6.50383 -6.42124,-12.04424 -5.01777,-18.52495c1.04563,-4.82832 6.09307,-5.90037 9.85344,-8.16181c6.95359,-4.18179 10.78031,-5.0008 18.31978,7.13808z" data-paper-data="{&quot;origPos&quot;:null}" fill="url(#color-3)" stroke="none" stroke-width="0" stroke-linecap="butt"/><path d="M257.84963,187.03205c0,0 -7.18532,5.92782 -12.60896,9.51086c-4.9748,3.2865 -11.46192,4.1617 -11.46192,4.1617c0,0 -5.34628,-7.86731 -3.60007,-13.22685c1.1425,-3.50659 3.42,-5.79958 6.80566,-7.98094c3.38566,-2.18136 7.96026,-3.06877 10.78723,-2.30019c6.67761,1.81547 10.07808,9.83542 10.07808,9.83542z" data-paper-data="{&quot;origPos&quot;:null}" fill="#64ca00" stroke="none" stroke-width="0" stroke-linecap="butt"/><path d="M243.99998,178.40373c0,0 3.40682,3.44621 5.06374,5.75379c2.1282,2.96392 5.13036,9.13213 5.13036,9.13213" data-paper-data="{&quot;origPos&quot;:null,&quot;origRot&quot;:0}" fill="none" stroke="#2a2a84" stroke-width="6.5" stroke-linecap="round"/><path d="M234.90121,184.62576c0,0 3.07225,3.82332 4.49213,6.2906c1.82374,3.16902 4.16256,9.55193 4.16256,9.55193" data-paper-data="{&quot;origPos&quot;:null}" fill="none" stroke="#2a2a84" stroke-width="6.5" stroke-linecap="round"/><path d="M240.75725,200.28351c-0.80339,-1.33589 -0.43966,-3.02927 0.81242,-3.78225c1.25207,-0.75297 2.91837,-0.28043 3.72175,1.05546c0.80339,1.33589 0.43966,3.02926 -0.81242,3.78224c-1.25207,0.75297 -2.91835,0.28045 -3.72174,-1.05545z" data-paper-data="{&quot;origPos&quot;:null}" fill="#ffe84f" stroke="none" stroke-width="0" stroke-linecap="butt"/><path d="M251.64373,193.73653c-0.80339,-1.33589 -0.47458,-3.00827 0.73443,-3.73535c1.209,-0.72708 2.84038,-0.23353 3.64376,1.10236c0.80338,1.33589 0.47456,3.00826 -0.73443,3.73534c-1.209,0.72708 -2.84037,0.23354 -3.64376,-1.10235z" data-paper-data="{&quot;origPos&quot;:null}" fill="#ffe84f" stroke="none" stroke-width="0" stroke-linecap="butt"/></g><g data-paper-data="{&quot;origPos&quot;:null,&quot;origRot&quot;:0}"><path d="M257.37126,140.24355c0.36896,2.36394 -5.47494,7.33563 -10.77892,8.99638c-4.27396,1.33823 -4.4736,-3.01458 -5.15301,-5.18444c-0.67941,-2.16986 7.84461,-4.31913 12.11856,-5.65736c4.27395,-1.33823 3.57454,0.31527 3.81337,1.84543z" data-paper-data="{&quot;origPos&quot;:null}" fill="url(#color-4)" stroke="none" stroke-width="0" stroke-linecap="butt"/><path d="M222.90424,179.753c0,0 -0.5749,1.15602 -1.84506,0.41309c-1.27017,-0.74293 -2.70688,-2.93076 -1.69827,-4.50624c1.2064,-1.88443 -0.66307,-6.36672 0.6071,-5.6238c0,0 3.87244,-0.36064 4.84056,1.74899c0,0 3.51772,5.86617 3.2082,7.07755c0,0 -0.57984,1.28368 -2.9631,1.84688c-1.29128,0.30516 -2.14943,-0.95648 -2.14943,-0.95648z" data-paper-data="{&quot;origRot&quot;:0,&quot;origPos&quot;:null}" fill="#5a2c0a" stroke="none" stroke-width="0" stroke-linecap="butt"/><path d="M217.06955,154.35504c2.75574,-0.20458 21.76601,-8.23248 25.27498,-9.1207c5.19146,-1.31411 5.22292,3.73342 7.17932,8.71848c2.24944,5.73173 2.99846,12.94544 4.71358,16.86389c1.83961,4.20282 2.15336,6.6079 -0.68157,9.79166c-9.38536,3.56482 -8.37498,0.88339 -13.22305,0.81614c-4.15265,-0.20544 -7.13987,-0.48635 -12.19636,-2.61236c-3.83836,-1.61384 -3.78798,-3.963 -6.57412,-6.23269c-0.85405,-0.69574 -1.68761,-0.94854 -1.80341,-0.91228c-6.17334,1.93295 -11.16377,-2.10392 -12.67357,-6.92581c-1.5098,-4.8219 -0.53059,-9.42066 2.92146,-10.50153c3.45204,-1.08088 6.10456,0.18635 7.06276,0.11522z" data-paper-data="{&quot;origPos&quot;:null}" fill="#ffdebd" stroke="none" stroke-width="0" stroke-linecap="butt"/><path d="M246.72272,148.47341c1.12098,2.84457 0.60066,5.71373 -1.16217,6.40841c-1.76283,0.6947 -4.10063,-1.04813 -5.22161,-3.8927c-1.12098,-2.84457 -0.60066,-5.71372 1.16217,-6.40841c1.76283,-0.6947 4.10063,1.04812 5.22161,3.89269z" data-paper-data="{&quot;origPos&quot;:null,&quot;origRot&quot;:0}" fill="#ffffff" stroke="none" stroke-width="0" stroke-linecap="butt"/><path d="M223.44448,157.71996c1.13423,2.833 4.27066,4.09769 3.08675,5.2139c-0.60312,0.56864 -3.41371,1.16416 -4.81809,0.42772c-1.40438,-0.73645 -2.25605,-1.93905 -3.07958,-4.56918c-0.82353,-2.63012 -1.6312,-5.17479 -0.00746,-5.74974c6.83647,-2.42073 3.79402,2.11872 4.81839,4.67731z" data-paper-data="{&quot;origPos&quot;:null}" fill="#5a2c0a" stroke="none" stroke-width="0" stroke-linecap="butt"/><path d="M239.90305,153.88002c1.24725,2.79152 0.85595,5.68109 -0.874,6.45404c-1.72995,0.77295 -4.14346,-0.86342 -5.39071,-3.65494c-1.24725,-2.79152 -0.85595,-5.68109 0.874,-6.45403c1.72995,-0.77295 4.14347,0.86342 5.39072,3.65494z" data-paper-data="{&quot;origPos&quot;:null,&quot;origRot&quot;:0}" fill="#ffffff" stroke="none" stroke-width="0" stroke-linecap="butt"/><path d="M237.56042,152.22884c0.56671,-0.17745 1.20938,0.0756 1.79057,0.62702c0.58059,0.5516 1.09987,1.40216 1.41878,2.42069c0.31892,1.01853 0.37745,2.01334 0.21511,2.79756c-0.16293,0.7844 -0.54651,1.35879 -1.11322,1.53624c-0.56671,0.17745 -1.20938,-0.07561 -1.79057,-0.62702c-0.58059,-0.5516 -1.09987,-1.40215 -1.41878,-2.42068c-0.31892,-1.01853 -0.37746,-2.01335 -0.21512,-2.79757c0.16293,-0.7844 0.54652,-1.35879 1.11323,-1.53624z" data-paper-data="{&quot;origPos&quot;:null}" fill="#000000" stroke="none" stroke-width="1" stroke-linecap="butt"/><path d="M244.45102,147.09721c0.56671,-0.17745 1.20939,0.07561 1.79058,0.62702c0.58059,0.5516 1.00263,1.58425 1.41878,2.42068c0.14987,0.30539 0.38529,0.74414 0.24621,1.09947c-0.17998,0.4335 -0.60357,0.74655 -0.98554,1.0276c-0.69921,0.38888 -1.44255,1.12951 -2.21728,0.95572c-0.68315,-0.16521 -0.9283,-1.10682 -1.15085,-1.79668c-0.28751,-0.8911 -0.37745,-2.01335 -0.21512,-2.79757c0.16293,-0.7844 0.54651,-1.35879 1.11322,-1.53623z" data-paper-data="{&quot;origPos&quot;:null}" fill="#000000" stroke="none" stroke-width="1" stroke-linecap="round"/><path d="M243.93689,126.78507c4.21213,8.4496 2.65097,9.49393 -1.2371,13.83861c-5.66525,6.33057 -15.03851,8.34298 -21.46872,13.89487c-1.6884,1.45777 -7.31074,0.96077 -9.43949,1.62731c-4.35389,1.36326 -7.78489,-0.97922 -9.12531,-4.62922c-2.95665,-8.05106 1.05901,-9.34323 5.4129,-10.7065c0,0 5.04027,-0.70612 7.49133,1.31776c0,0 3.2699,-12.9326 9.87703,-16.47261c8.50522,-4.55697 15.46449,-4.93815 18.48936,1.12977z" data-paper-data="{&quot;origPos&quot;:null}" fill="#64ca00" stroke="none" stroke-width="0" stroke-linecap="butt"/><path d="M243.80321,132.39945c1.01911,3.25478 0.91484,5.97624 -5.41718,8.16728c-6.68458,2.31304 -8.08862,-0.36455 -9.10773,-3.61934c-1.01911,-3.25478 1.40623,-6.91139 5.41718,-8.16727c4.01094,-1.25588 8.08862,0.36455 9.10773,3.61933z" data-paper-data="{&quot;origPos&quot;:null}" fill="#ffffff" stroke="none" stroke-width="0" stroke-linecap="butt"/><path d="M257.21796,138.91892c0.04096,0.54832 -22.2086,11.2025 -28.50755,13.95916c-3.06136,1.33978 -9.55451,3.09524 -9.59547,2.54692c-0.15141,-2.02694 0.13291,-5.43091 2.85746,-7.3658c3.29247,-2.33821 14.87275,-9.48079 24.32744,-12.28323c3.86503,-1.14562 10.76671,1.11601 10.91812,3.14294z" data-paper-data="{&quot;origPos&quot;:null}" fill="url(#color-5)" stroke="none" stroke-width="0" stroke-linecap="butt"/><path d="M235.47812,139.0733l-3.5898,-6.93034l3.21136,-1.37261l1.30963,5.78809l4.14816,-2.37133l-0.09239,2.45318z" data-paper-data="{&quot;origPos&quot;:null}" fill="#64ca00" stroke="none" stroke-width="0" stroke-linecap="butt"/><path d="M253.35885,169.82253c0.25409,1.58616 -1.13381,2.31777 -1.92131,2.82058c-2.40345,1.53459 -4.75066,1.78495 -10.01215,1.50601c-1.70349,-0.09031 -5.89125,-8.83025 -1.78605,-8.03404c0,0 8.00536,0.60237 11.49663,-0.7131c0,0 4.897,-4.48193 6.71235,-4.92106c0.90033,-0.21778 1.48485,1.6288 1.4989,2.64948c0,0 0.94009,2.68481 -0.08194,3.7491c-1.37545,1.83182 -2.82528,1.67558 -2.75175,2.13462z" data-paper-data="{&quot;origPos&quot;:null}" fill="#38291e" stroke="none" stroke-width="0" stroke-linecap="butt"/><path d="M256.41943,156.97104c0.9359,4.03279 2.74473,6.41238 -5.8605,8.94339c-3.96607,1.16652 -8.53215,-0.11102 -9.62589,-3.60416c-1.09375,-3.49313 1.36177,-8.99584 5.1991,-10.53382c5.59124,-2.24093 8.79,-1.25728 10.2873,5.19459z" data-paper-data="{&quot;origPos&quot;:null}" fill="#ffdebd" stroke="none" stroke-width="0" stroke-linecap="butt"/><g data-paper-data="{&quot;origPos&quot;:null}" fill="none" stroke="#f6b09a" stroke-width="3.5" stroke-linecap="round"><path d="M210.07593,160.9863c0,0 1.44156,-1.58215 4.24471,-0.54504c4.02017,1.48739 3.45605,6.35109 3.45605,6.35109" data-paper-data="{&quot;origPos&quot;:null}"/><path d="M216.51489,163.35897l-3.5717,1.11834" data-paper-data="{&quot;origPos&quot;:null}"/><path d="M216.5277,167.27682l0.76536,-0.23964" data-paper-data="{&quot;origPos&quot;:null}"/></g><path d="M232.18578,149.33703c-0.74249,0.50066 -0.66748,0.60422 -0.82815,1.48521c-0.16574,0.90886 -0.71874,2.18566 -0.71874,2.18566c0,0 -1.54417,-1.88731 -2.04601,-3.49005c-0.34074,-1.08824 -0.3433,-3.17014 1.21492,-4.07575c5.6139,-1.96753 5.59729,3.90205 5.59729,3.90205c0,0 -2.44709,-0.55624 -3.2193,-0.00713z" data-paper-data="{&quot;origPos&quot;:null}" fill="#38291e" stroke="none" stroke-width="0" stroke-linecap="butt"/><path d="M241.93782,144.44938c-0.88608,0.33572 -1.78648,2.67814 -1.78648,2.67814c0,0 -4.88494,-3.25419 -0.12493,-6.82202c1.61982,-0.79015 3.34778,0.37111 4.06202,1.26004c1.05193,1.30921 1.75992,3.6427 1.75992,3.6427c0,0 -1.36849,-0.25153 -2.21573,-0.61987c-0.82127,-0.35706 -0.86553,-0.47701 -1.69481,-0.139z" data-paper-data="{&quot;origPos&quot;:null,&quot;index&quot;:null,&quot;origRot&quot;:0}" fill="#38291e" stroke="none" stroke-width="0" stroke-linecap="butt"/></g><g data-paper-data="{&quot;origPos&quot;:null,&quot;origRot&quot;:0}" stroke="none" stroke-width="0" stroke-linecap="butt"><path d="M226.6537,197.03675c-4.88136,0.151 -14.4078,-0.71684 -14.4078,-0.71684l-0.19356,-9.94941c0,0 5.74097,-1.08482 11.80997,-1.27255c6.06901,-0.18774 11.99633,2.72462 12.09885,6.03889c0.10253,3.31428 -3.23847,5.71218 -9.30747,5.89991z" data-paper-data="{&quot;origRot&quot;:0,&quot;origPos&quot;:null}" fill="#64ca00"/><g data-paper-data="{&quot;origPos&quot;:null}" fill="#ffffff"><path d="M201.51921,202.20137c-6.86697,0.95256 -7.05177,-4.8336 -8.38156,-11.0846c-1.21863,-5.7284 5.12875,-11.81938 9.60308,-12.01436c6.16754,-0.26877 6.38439,6.98138 6.29703,12.83731c-0.08736,5.85594 -1.10662,9.3722 -7.51854,10.26164z" data-paper-data="{&quot;origRot&quot;:0,&quot;origPos&quot;:null}"/><path d="M210.7277,200.25362c-4.27117,0.07423 -2.75263,-1.22962 -2.84611,-9.64912c-0.08205,-7.39082 -0.29775,-8.5706 3.58661,-8.82731c3.47223,-0.22947 2.52024,4.91698 2.45874,9.43819c-0.0615,4.52121 -0.70518,8.99491 -3.19924,9.03825z" data-paper-data="{&quot;origRot&quot;:0,&quot;origPos&quot;:null}"/></g></g><path d="M145.83334,283.09112v-205.83333h185.83333v205.83333z" fill="none" stroke="#000000" stroke-width="0" stroke-linecap="butt"/></g></g></svg>