<svg version="1.1" xmlns="http://www.w3.org/2000/svg" xmlns:xlink="http://www.w3.org/1999/xlink" width="106" height="137" viewBox="0,0,106,137"><defs><linearGradient x1="240.19665" y1="169.9731" x2="240.19665" y2="189.986" gradientUnits="userSpaceOnUse" id="color-1"><stop offset="0" stop-color="#ffffff"/><stop offset="1" stop-color="#d1d1d1"/></linearGradient><linearGradient x1="240.19665" y1="169.9731" x2="240.19665" y2="189.986" gradientUnits="userSpaceOnUse" id="color-2"><stop offset="0" stop-color="#343434"/><stop offset="1" stop-color="#090909"/></linearGradient><linearGradient x1="240.19665" y1="169.9731" x2="240.19665" y2="189.986" gradientUnits="userSpaceOnUse" id="color-3"><stop offset="0" stop-color="#ffffff"/><stop offset="1" stop-color="#d1d1d1"/></linearGradient></defs><g transform="translate(-185,-111.5)"><g data-paper-data="{&quot;isPaintingLayer&quot;:true}" fill-rule="nonzero" stroke-linecap="butt" stroke-linejoin="miter" stroke-miterlimit="10" stroke-dasharray="" stroke-dashoffset="0" style="mix-blend-mode: normal"><path d="M239.4266,169.9731l5.5425,3.0172v0.1229l-3.695,4.0647c2.1557,-0.1695 3.4483,-0.2467 3.8795,-0.2467c2.1399,3.587 3.2481,5.511 3.3253,5.7884c-1.1397,3.2017 -1.7702,4.8033 -1.909,4.8033c-1.7395,0.6613 -3.8179,1.4778 -6.2196,2.4631c-4.4028,-1.8941 -6.7886,-2.9715 -7.1425,-3.2024c-0.2924,-1.2005 -0.7236,-3.3562 -1.2934,-6.4656zM238.011,183.3967l2.709,2.032c1.2777,-1.6466 1.909,-2.5396 1.909,-2.7091c-0.9238,-1.2776 -1.4314,-1.9089 -1.5393,-1.9089c-1.4014,0.1537 -2.0935,0.4153 -2.0935,0.8008z" data-paper-data="{&quot;origPos&quot;:null}" fill="url(#color-1)" stroke="url(#color-2)" stroke-width="2.5"/><path d="M239.4266,169.9731l5.5425,3.0172v0.1229l-3.695,4.0647c2.1557,-0.1695 3.4483,-0.2467 3.8795,-0.2467c2.1399,3.587 3.2481,5.511 3.3253,5.7884c-1.1397,3.2017 -1.7702,4.8033 -1.909,4.8033c-1.7395,0.6613 -3.8179,1.4778 -6.2196,2.4631c-4.4028,-1.8941 -6.7886,-2.9715 -7.1425,-3.2024c-0.2924,-1.2005 -0.7236,-3.3562 -1.2934,-6.4656zM238.011,183.3967l2.709,2.032c1.2777,-1.6466 1.909,-2.5396 1.909,-2.7091c-0.9238,-1.2776 -1.4314,-1.9089 -1.5393,-1.9089c-1.4014,0.1537 -2.0935,0.4153 -2.0935,0.8008z" data-paper-data="{&quot;origPos&quot;:null}" fill="url(#color-3)" stroke="none" stroke-width="0"/><path d="M185,248.5v-137h106v137z" fill="none" stroke="none" stroke-width="0"/></g></g></svg>