<svg version="1.1" xmlns="http://www.w3.org/2000/svg" xmlns:xlink="http://www.w3.org/1999/xlink" width="484.31286" height="239.16652" viewBox="0,0,484.31286,239.16652"><defs><linearGradient x1="252.5721" y1="168.9949" x2="252.5721" y2="406.0449" gradientUnits="userSpaceOnUse" id="color-1"><stop offset="0" stop-color="#61c189"/><stop offset="1" stop-color="#42bd83"/></linearGradient><linearGradient x1="253.5" y1="186" x2="253.5" y2="399" gradientUnits="userSpaceOnUse" id="color-2"><stop offset="0" stop-color="#7c5831"/><stop offset="1" stop-color="#95693b"/></linearGradient><linearGradient x1="239.95001" y1="318.00001" x2="239.95001" y2="363.00001" gradientUnits="userSpaceOnUse" id="color-3"><stop offset="0" stop-color="#7c5831"/><stop offset="1" stop-color="#95693b"/></linearGradient><linearGradient x1="239.31766" y1="285.33905" x2="240.68238" y2="366.9943" gradientUnits="userSpaceOnUse" id="color-4"><stop offset="0" stop-color="#64e298"/><stop offset="1" stop-color="#60b483"/></linearGradient></defs><g transform="translate(2.66555,-167.93664)"><g data-paper-data="{&quot;isPaintingLayer&quot;:true}" fill-rule="nonzero" stroke-linejoin="miter" stroke-miterlimit="10" stroke-dasharray="" stroke-dashoffset="0" style="mix-blend-mode: normal"><g data-paper-data="{&quot;origPos&quot;:null}" stroke="#20996f" stroke-linecap="butt"><path d="M252.5721,168.9949c32.7002,0 62.3314,13.2811 83.7876,34.7373c21.4562,21.4562 34.7374,51.0875 34.7374,83.7877c0,32.7002 -13.2812,62.3314 -34.7374,83.7876c-21.4562,21.4562 -51.0874,34.7374 -83.7876,34.7374c-32.7002,0 -62.3315,-13.2812 -83.7877,-34.7374c-21.4562,-21.4562 -34.7373,-51.0874 -34.7373,-83.7876c0,-32.7002 13.2811,-62.3315 34.7373,-83.7877c21.4562,-21.4562 51.0875,-34.7373 83.7877,-34.7373z" fill="url(#color-1)" stroke-width="2.11652"/><path d="M253.5,186c29.382,0 56.007,11.934 75.287,31.213c19.279,19.28 31.213,45.905 31.213,75.287c0,29.382 -11.934,56.007 -31.213,75.287c-19.28,19.279 -45.905,31.213 -75.287,31.213c-29.382,0 -56.007,-11.934 -75.287,-31.213c-19.279,-19.28 -31.213,-45.905 -31.213,-75.287c0,-29.382 11.934,-56.007 31.213,-75.287c19.28,-19.279 45.905,-31.213 75.287,-31.213z" fill="url(#color-2)" stroke-width="2"/></g><g data-paper-data="{&quot;origPos&quot;:null}" stroke-width="2"><path d="M-0.04999,318.00001h480v45h-480z" fill="url(#color-3)" stroke="#763e13" stroke-linecap="butt"/><path d="M171.65281,333.69849c-0.772,3.3964 -12.8411,-1.9514 -17.4847,1.5923c-3.1976,2.4452 -1.5291,7.9323 -1.0636,11.8714c0.3001,2.4062 3.472,4.4055 2.5922,5.855c-0.838,1.3768 -4.0699,0.3224 -5.8149,-0.4999c-2.3012,-0.874 -5.1162,-2.0427 -5.8251,-4.381c-1.9548,-6.4521 -4.9065,-14.1115 -1.9215,-20.157c2.4633,-4.9897 9.7857,-7.8949 15.2484,-6.8363c6.2135,1.2039 15.105,8.878 15.8471,12.4546z" fill="#b2b2b2" stroke="#7f7f7f" stroke-linecap="round"/><path d="M338.62057,324.35173l-3.8497,13.06616l-7.78296,21.13301l-0.38435,-22.99679l-8.43468,-17.86154l0.11698,6.99902l-3.61575,27.0642l-0.28408,-16.99763l-7.25084,-7.87993l0.28408,16.99763l-8.88325,16.1507l-0.18382,-10.99846l-7.48478,-21.87798l-0.73266,17.01462l-5.93331,10.10056l-2.30084,-15.96378l-6.3845,-16.89567l0.36764,21.99693l-2.74941,18.04846l-5.33434,-14.91294l-4.35102,-16.92966l-2.74941,18.04846l-2.81626,14.04902l-4.38445,-18.92938l-2.33427,-17.9635l-0.7995,13.01518l-3.69931,22.0649l-3.25073,-11.94735l-6.58503,-28.89399l-1.64913,23.03077l-1.68254,21.03105l-3.38442,-19.94623l-5.36776,-16.91266l0.25066,14.99791l-6.83306,17.11658l-1.36765,-20.98008l-5.30092,-12.91322l0.35093,20.99707l-5.83304,16.09972l-0.33422,-19.99721l-4.40116,-19.92924l-4.76618,19.08231l-0.73265,17.01462l-4.3176,-14.92993l-0.36764,-21.99693l-5.83305,16.09972l-5.81634,17.09958l1.73268,-18.03147l-0.33422,-19.99721l-3.83299,14.06602l-3.79957,16.06574l-0.36764,-21.99693l-1.1337,-6.98203l-2.92767,7.38329l-1.30552,3.02224l-2.54418,10.04392l-7.78296,21.13301l-0.38435,-22.99679l-8.43468,-17.86154l0.11698,6.99902l-3.61576,27.0642l-0.28408,-16.99763l-7.25083,-7.87993l0.28408,16.99763l-8.88325,16.1507l-0.18382,-10.99846l-7.48478,-21.87798l-0.73266,17.01462l-5.9333,10.10056l-2.30084,-15.96378l-6.3845,-16.89567l0.36764,21.99693l-2.74941,18.04846l-5.33434,-14.91294l-4.35102,-16.92966l-2.74942,18.04847l-2.81625,14.04902l-4.38445,-18.92938l-2.33426,-17.9635l-0.7995,13.01518l-3.69931,22.0649l-3.25073,-11.94735l-6.58503,-28.89399l-1.64912,23.03077l-1.68255,21.03105l-3.38442,-19.94623l-5.36776,-16.91266l0.25066,14.99791l-6.83306,17.11658l-1.36765,-20.98008l-5.30092,-12.91322l0.35093,20.99707l-5.83304,16.09972l-0.33422,-19.99721l-4.40116,-19.92924l-4.76618,19.08231l-0.73265,17.01462l-4.3176,-14.92993l-0.36764,-21.99693l-5.83305,16.09972l-5.81634,17.09958l1.73267,-18.03147l-0.33422,-19.99721l-3.83299,14.06602l-3.79957,16.06574l-0.36764,-21.99693l-4.40116,-19.92924l-0.25066,-14.99791l482.04967,-1.05556l-0.00557,-0.33329l0.25066,14.99791l-3.09955,20.0546l0.36764,21.99693l-3.70114,-15.94038l-3.66771,-13.94066l0.33422,19.99721l2.01767,17.96879l-5.43472,-16.91154l-5.41802,-15.91168l0.36764,21.99693l-3.1831,15.05529l-1.14252,-16.98328l-4.60971,-18.92561l-3.09955,20.0546l0.33422,19.99721l-5.41802,-15.91168l-0.35093,-20.99707l-4.07497,13.06992l-0.50751,21.01141l-6.29317,-16.8972l-0.25066,-14.99791l-4.00813,17.06936l-2.24111,20.04025l-2.06782,-20.96837l-2.10123,-22.96809l-4.66604,29.08203l-2.3748,12.04137l-3.8014,-21.93954l-1.07568,-12.98384l-1.4161,18.02618l-3.11626,19.05474l-2.80928,-13.955l-2.87611,-17.95445l-3.14969,17.05502l-4.04154,15.06964l-2.87612,-17.95444l-0.36764,-21.99693l-4.86657,17.08371l-1.44951,16.02646l-5.31776,-9.91252l-1.14252,-16.98328l-5.64145,22.09736l0.18382,10.99846l-4.95149,-16.41955l-3.32593,-16.44672l-5.8754,8.09931l0.28408,16.99763l-3.88495,-26.93884l-4.02386,33.07186l-3.81028,-29.94051l-7.61585,31.13161l1.93217,-21.03523l-3.65101,-12.9408z" data-paper-data="{&quot;origPos&quot;:null,&quot;index&quot;:null,&quot;origRot&quot;:0}" fill="url(#color-4)" stroke="#20996f" stroke-linecap="round"/></g><g fill="#b2b2b2" stroke="#7f7f7f" stroke-width="2" stroke-linecap="round"><path d="M217.19485,230.23052c0.7021,0.038 -1.741,1.5448 -1.9985,3.1035c-0.2344,1.418 0.191,2.8767 0.4159,4.2956c0.1115,0.7028 1.1148,1.5708 0.5916,2.0524c-1.0465,0.9633 -2.6907,1.337 -4.105,1.1831c-1.5217,-0.1653 -3.2109,-0.8302 -4.1003,-2.0765c-1.2392,-1.737 -1.6758,-4.0261 -1.7747,-6.1573c-0.0631,-1.3712 0.3339,-2.944 1.3093,-3.9098c0.9558,-0.9462 2.5112,-1.2366 3.8557,-1.2026c1.943,0.0499 4.6044,-0.1579 5.6543,1.4459z"/><path d="M217.02355,219.65862c3.9968,-2.5306 8.9349,0.4791 12.5744,2.7402c3.8298,2.3813 6.9562,6.6354 8.6707,10.9605c1.1454,2.8953 0.7275,6.2459 -0.4535,8.992c-1.1771,2.7345 -3.695,5.4652 -6.758,6.2414c-4.4868,1.3337 -10.6402,3.0064 -14.265,-0.3649c-3.7395,-3.4827 -2.11,-10.0976 -2.0689,-15.208c0.0366,-4.5149 -1.0909,-10.4942 2.3003,-13.3612z"/><path d="M210.98035,226.49722c-0.5828,1.6646 -0.7478,3.7591 -2.1351,4.8481c-1.1949,0.9385 -3.9242,1.783 -4.5448,0.3963c-1.2252,-2.735 -0.3554,-6.1686 0.7027,-8.9725c0.6124,-1.6201 2.263,-3.4338 4.0314,-3.4458c1.4891,0.1458 2.2974,2.2483 2.7175,3.7236c0.3227,1.1307 -0.3828,2.3393 -0.4835,2.9713z"/><path d="M209.79055,242.19182c0.001,0.6401 0.5098,1.9438 0.015,3.0104c-0.6447,1.3919 -1.7704,3.343 -3.2641,3.2551c-1.7449,-0.2872 -3.0931,-2.3357 -3.4458,-4.0314c-0.6087,-2.9345 -0.9333,-6.4616 0.7028,-8.9725c0.8289,-1.2732 3.3934,-0.0141 4.4277,1.099c1.2008,1.2918 1.0377,3.3864 1.3542,5.1214z"/></g><path d="M299.14408,258.74575c-0.772,3.3964 -12.8411,-1.9514 -17.4847,1.5923c-3.1976,2.4452 -1.5291,7.9323 -1.0636,11.8714c0.3001,2.4062 3.472,4.4055 2.5922,5.855c-0.838,1.3768 -4.0699,0.3224 -5.8149,-0.4999c-2.3012,-0.874 -5.1162,-2.0427 -5.8251,-4.381c-1.9548,-6.4521 -4.9065,-14.1115 -1.9215,-20.157c2.4633,-4.9897 9.7857,-7.8949 15.2484,-6.8363c6.2135,1.2039 15.105,8.878 15.8471,12.4546z" fill="#b2b2b2" stroke="#7f7f7f" stroke-width="2" stroke-linecap="round"/></g></g></svg>