<svg version="1.1" xmlns="http://www.w3.org/2000/svg" xmlns:xlink="http://www.w3.org/1999/xlink" width="588.47005" height="494.23243" viewBox="0,0,588.47005,494.23243"><defs><linearGradient x1="125.2464" y1="231.81452" x2="125.81298" y2="360.18802" gradientUnits="userSpaceOnUse" id="color-1"><stop offset="0" stop-color="#935f0a"/><stop offset="1" stop-color="#de7b19"/></linearGradient></defs><g transform="translate(103.24007,132.09951)"><g data-paper-data="{&quot;isPaintingLayer&quot;:true}" fill-rule="nonzero" stroke-width="0" stroke-linecap="butt" stroke-linejoin="miter" stroke-miterlimit="10" stroke-dasharray="" stroke-dashoffset="0" style="mix-blend-mode: normal"><path d="M-103.00556,336.46449c-0.0476,0.0889 -0.11935,0.16399 -0.20301,0.23171c-0.01043,-0.01399 -0.02093,-0.02795 -0.0315,-0.04186c0.16471,-0.16122 0.29477,-0.30241 0.23451,-0.18985z" data-paper-data="{&quot;origPos&quot;:null,&quot;index&quot;:null}" fill="url(#color-1)" stroke="#372403"/><path d="M376.87151,228.9803h102.86782v131.15262h-102.86782z" data-paper-data="{&quot;origPos&quot;:null,&quot;index&quot;:null}" fill="#000000" stroke="#964f17"/><path d="M-1.12849,-132.09951h33.86782v381.23242h-33.86782z" data-paper-data="{&quot;origPos&quot;:null,&quot;index&quot;:null}" fill="#000000" stroke="#964f17"/><path d="M19.22998,133.72682v-26h111v26z" data-paper-data="{&quot;origPos&quot;:null,&quot;index&quot;:null}" fill="#000000" stroke="none"/><path d="M-17.77002,360v-29h208v29z" data-paper-data="{&quot;origPos&quot;:null,&quot;index&quot;:null}" fill="#000000" stroke="none"/><path d="M125.9947,134.44877l-12.30692,-22.90283l97.77748,-52.54107l12.30692,22.90283z" data-paper-data="{&quot;origPos&quot;:null,&quot;index&quot;:null,&quot;origRot&quot;:0}" fill="#000000" stroke="none"/><path d="M211.22998,84.72682v-26h274v26z" data-paper-data="{&quot;origPos&quot;:null,&quot;index&quot;:null}" fill="#000000" stroke="none"/><path d="M186.87151,230.9803h102.86782v131.15262h-102.86782z" data-paper-data="{&quot;origPos&quot;:null,&quot;index&quot;:null}" fill="#000000" stroke="#964f17"/></g></g></svg>