<svg version="1.1" xmlns="http://www.w3.org/2000/svg" xmlns:xlink="http://www.w3.org/1999/xlink" width="46.56746" height="45.13368" viewBox="0,0,46.56746,45.13368"><defs><linearGradient x1="240.00236" y1="157.93385" x2="240.00236" y2="202.54259" gradientUnits="userSpaceOnUse" id="color-1"><stop offset="0" stop-color="#e8e512"/><stop offset="1" stop-color="#d29c30"/></linearGradient><linearGradient x1="240.00239" y1="157.93387" x2="240.00239" y2="202.06755" gradientUnits="userSpaceOnUse" id="color-2"><stop offset="0" stop-color="#ddb112"/><stop offset="1" stop-color="#a56b15"/></linearGradient></defs><g transform="translate(-216.70524,-157.43387)"><g data-paper-data="{&quot;isPaintingLayer&quot;:true}" fill-rule="nonzero" stroke-linecap="round" stroke-linejoin="miter" stroke-miterlimit="10" stroke-dasharray="" stroke-dashoffset="0" style="mix-blend-mode: normal"><path d="M245.80095,199.11159c-1.96098,-1.22457 -5.86675,-4.79234 -5.86675,-4.79234c0,0 -4.35701,3.74997 -6.20394,4.94723c-4.2303,2.74227 -7.65596,3.12035 -8.01945,2.60441c-0.45048,-0.63937 -0.20981,-5.09562 0.60997,-9.44367c0.65556,-3.47702 1.36997,-6.03741 1.36997,-6.03741c-2.18398,-1.68484 -3.95053,-2.44837 -5.67267,-3.92517c-3.52388,-3.02185 -5.07626,-6.95629 -4.77651,-7.79757c0.41028,-1.1515 6.30004,-2.36044 14.61344,-2.60646l0.52779,-0.19484c2.8247,-8.10095 6.20435,-13.93189 7.53873,-13.93189c1.23779,0.0219 4.67216,5.8048 7.57457,13.8543l0.41425,0.28692c8.40787,0.26216 14.41984,1.48115 14.86236,2.59198c0.26365,0.6618 -1.4038,4.87991 -5.57487,8.30139c-1.46939,1.20532 -3.28271,1.85408 -5.01986,3.19601c0,0 0.88785,2.85452 1.6176,6.71119c0.82332,4.35127 0.94785,8.51576 0.33667,8.99525c-0.52429,0.41132 -4.24776,-0.20925 -8.33128,-2.7593z" data-paper-data="{&quot;index&quot;:null}" fill="url(#color-1)" stroke="url(#color-2)" stroke-width="1"/><path d="M244.30689,176.34655c0.65387,-0.01965 1.30551,0.40194 1.58001,0.92189c0.49799,0.94365 0.55154,2.06867 0.51429,3.11944c-0.02561,0.9699 -0.22339,1.97258 -0.6981,2.83985c-0.27227,0.50899 -0.76318,1.0966 -1.39619,1.09224c-0.60963,-0.00436 -1.12859,-0.37141 -1.46362,-1.0311c-0.42816,-0.83449 -0.63059,-1.835 -0.63059,-3.01022c0,-1.1753 0.15587,-2.1364 0.63059,-3.01021c0.31176,-0.57673 0.90752,-0.94154 1.46362,-0.92189z" fill="#3f2803" stroke="none" stroke-width="2.7674"/><path d="M235.69355,176.31029c0.65387,-0.01965 1.30551,0.40193 1.58002,0.92189c0.49799,0.94365 0.55155,2.06867 0.5143,3.11944c-0.02561,0.9699 -0.2234,1.97258 -0.6981,2.83985c-0.27227,0.50899 -0.76318,1.0966 -1.3962,1.09224c-0.60963,-0.00436 -1.12859,-0.3714 -1.46362,-1.0311c-0.42816,-0.83449 -0.63059,-1.83499 -0.63059,-3.01021c0,-1.1753 0.15587,-2.13641 0.63059,-3.01022c0.31176,-0.57673 0.90752,-0.94153 1.46362,-0.92189z" fill="#3f2803" stroke="none" stroke-width="2.7674"/></g></g></svg>