<svg version="1.1" xmlns="http://www.w3.org/2000/svg" xmlns:xlink="http://www.w3.org/1999/xlink" width="185.83333" height="205.83333" viewBox="0,0,185.83333,205.83333"><defs><linearGradient x1="196.08109" y1="176.88678" x2="244.45384" y2="176.88678" gradientUnits="userSpaceOnUse" id="color-1"><stop offset="0" stop-color="#2154ad"/><stop offset="1" stop-color="#308bff"/></linearGradient></defs><g transform="translate(-145.83334,-77.25779)"><g data-paper-data="{&quot;isPaintingLayer&quot;:true}" fill-rule="nonzero" stroke-width="0" stroke-linejoin="miter" stroke-miterlimit="10" stroke-dasharray="" stroke-dashoffset="0" style="mix-blend-mode: normal"><path d="M145.83335,283.09112v-205.83333h185.83333v205.83333z" fill="none" stroke="#000000" stroke-linecap="butt"/><path d="M253.58444,201.94737c0,3.37967 -8.37038,3.59396 -14.86151,3.59396c-3.16315,0 -6.38339,-0.39759 -9.13544,-1.95697c-2.30291,-1.30489 -2.61778,-2.4869 -2.61778,-5.13381c0,-3.37967 5.26209,-5.1481 11.75322,-5.1481c0,0 12.03989,1.4228 15.19756,3.59c1.47262,1.0107 -0.33605,5.05493 -0.33605,5.05493z" data-paper-data="{&quot;origPos&quot;:null}" fill="#ffffff" stroke="none" stroke-linecap="butt"/><path d="M225.41557,175.81831c0,-14.05516 12.04629,-25.44912 26.90613,-25.44912c14.85984,0 26.90613,11.39396 26.90613,25.44912c0,14.05516 -12.04629,25.44912 -26.90613,25.44912c-14.85984,0 -26.90613,-11.39396 -26.90613,-25.44912z" data-paper-data="{&quot;origPos&quot;:null}" fill="#308bff" stroke="#000000" stroke-linecap="butt"/><path d="M246.37237,199.98194c3.15767,-2.1672 15.19757,-3.58999 15.19757,-3.58999c6.49113,0 11.75322,1.76843 11.75322,5.1481c0,2.64691 -0.31487,3.82892 -2.61778,5.13381c-2.75206,1.55939 -5.9723,1.95697 -9.13544,1.95697c-6.49113,0 -14.86151,-0.21429 -14.86151,-3.59396c0,0 -1.80867,-4.04423 -0.33605,-5.05493z" data-paper-data="{&quot;origPos&quot;:null,&quot;index&quot;:null}" fill="#ffffff" stroke="none" stroke-linecap="butt"/><path d="M282.91892,186.21166c0,4.13071 -6.58736,8.8392 -10.87901,8.8392c-4.29165,0 -7.96499,-6.65117 -7.96499,-10.78188c0,-4.13071 2.89627,-7.67359 7.18792,-7.67359c4.29165,0 11.65609,5.48556 11.65609,9.61627z" data-paper-data="{&quot;origPos&quot;:null}" fill="#ffffff" stroke="none" stroke-linecap="butt"/><path d="M245.20403,169.60507c-1.13606,5.45101 -5.88037,8.99024 -10.59672,7.90511c-2.12907,-0.48986 -5.58539,-0.49867 -6.92752,-2.2225c-2.23433,-2.86977 -0.29723,-6.05174 0.44482,-9.61224c1.13606,-5.45101 5.88037,-8.99024 10.59672,-7.9051c4.71636,1.08514 7.61876,6.38373 6.48271,11.83473z" data-paper-data="{&quot;origPos&quot;:null,&quot;origRot&quot;:0}" fill="#000000" stroke="none" stroke-linecap="butt"/><path d="M222.11301,193.10817l-26.03192,-15.34718l27.3918,-17.09559l-3.30256,11.26755l23.31217,0.77707l0.97134,2.71975l-0.19427,3.49683l-0.97134,3.88536l-23.50644,-0.58281z" data-paper-data="{&quot;origPos&quot;:null}" fill="url(#color-1)" stroke="#000000" stroke-linecap="round"/><path d="M259.21014,170.98374c-1.13606,5.45101 -5.88037,8.99024 -10.59673,7.90511c-4.71636,-1.08514 -7.61876,-6.38373 -6.48271,-11.83473c1.13606,-5.45101 5.88037,-8.99024 10.59673,-7.90511c4.71636,1.08514 7.61876,6.38373 6.48271,11.83473z" data-paper-data="{&quot;origPos&quot;:null,&quot;origRot&quot;:0}" fill="#000000" stroke="none" stroke-linecap="butt"/><path d="M249.43724,171.03315c-0.37185,1.51063 -1.68676,2.48577 -2.93694,2.17804c-1.25018,-0.30774 -1.9622,-1.78181 -1.59036,-3.29245c0.37185,-1.51063 1.68676,-2.48577 2.93694,-2.17804c1.25018,0.30774 1.9622,1.78181 1.59036,3.29245z" data-paper-data="{&quot;origRot&quot;:0}" fill="#ffffff" stroke="none" stroke-linecap="butt"/><path d="M241.83914,170.04301c-0.37184,1.51063 -1.68676,2.48577 -2.93694,2.17804c-1.25018,-0.30774 -1.9622,-1.78181 -1.59036,-3.29245c0.37184,-1.51063 1.68676,-2.48577 2.93694,-2.17804c1.25018,0.30774 1.9622,1.78181 1.59036,3.29245z" data-paper-data="{&quot;origRot&quot;:0,&quot;origPos&quot;:null}" fill="#ffffff" stroke="none" stroke-linecap="butt"/></g></g></svg>