<svg version="1.1" xmlns="http://www.w3.org/2000/svg" xmlns:xlink="http://www.w3.org/1999/xlink" width="478.37682" height="232.96374" viewBox="0,0,478.37682,232.96374"><defs><linearGradient x1="274.92359" y1="-1313.25902" x2="274.92359" y2="4598.10643" gradientUnits="userSpaceOnUse" id="color-1"><stop offset="0" stop-color="#52d7ff"/><stop offset="1" stop-color="#52d7ff" stop-opacity="0"/></linearGradient></defs><g transform="translate(-2.05338,-178.73173)"><g data-paper-data="{&quot;isPaintingLayer&quot;:true}" fill-rule="nonzero" stroke-linecap="butt" stroke-linejoin="miter" stroke-miterlimit="10" stroke-dasharray="" stroke-dashoffset="0" style="mix-blend-mode: normal"><g><path d="M3.31601,411.69547l-0.26268,-229.46374c0,0 2.49155,120.23911 12.9808,132.04255c6.58494,7.40996 19.35048,9.22918 39.84704,9.20254c31.70254,-0.0412 41.53093,-12.61281 121.63312,-11.51957c88.98631,3.07326 72.09293,11.19261 129.95608,9.42772c58.75704,0.2059 66.2047,-10.9001 109.75402,-11.25349c43.54932,-0.35338 62.73614,9.8538 62.73614,9.8538l0.23557,90.45461z" data-paper-data="{&quot;origPos&quot;:null,&quot;index&quot;:null}" fill="url(#color-1)" stroke="#3e7ac6" stroke-width="0"/><path d="M3.05333,179.73173c0,0 0.93878,95.59363 10.62706,127.97588c4.60174,15.38094 21.42691,15.79621 42.20078,15.7692c31.70254,-0.0412 41.53093,-12.61281 121.63312,-11.51957c88.98631,3.07326 72.09293,11.19261 129.95608,9.42772c58.75704,0.2059 66.2047,-10.9001 109.75402,-11.25349c43.54932,-0.35338 62.73614,9.8538 62.73614,9.8538" data-paper-data="{&quot;origPos&quot;:null,&quot;index&quot;:null}" fill="none" stroke="#3b9bb9" stroke-width="2"/></g></g></g></svg>