<svg version="1.1" xmlns="http://www.w3.org/2000/svg" xmlns:xlink="http://www.w3.org/1999/xlink" width="49.25" height="49.25" viewBox="0,0,49.25,49.25"><defs><linearGradient x1="240" y1="164.45" x2="240" y2="195.55" gradientUnits="userSpaceOnUse" id="color-1"><stop offset="0" stop-color="#ffff00"/><stop offset="1" stop-color="#ffc700"/></linearGradient><linearGradient x1="239.80752" y1="168.01532" x2="239.80752" y2="191.5397" gradientUnits="userSpaceOnUse" id="color-2"><stop offset="0" stop-color="#df9902"/><stop offset="1" stop-color="#be7602"/></linearGradient></defs><g transform="translate(-215.375,-155.375)"><g data-paper-data="{&quot;isPaintingLayer&quot;:true}" fill-rule="nonzero" stroke="none" stroke-linecap="butt" stroke-linejoin="miter" stroke-miterlimit="10" stroke-dasharray="" stroke-dashoffset="0" style="mix-blend-mode: normal"><path d="M215.375,180c0,-13.60001 11.02499,-24.625 24.625,-24.625c13.60001,0 24.625,11.02499 24.625,24.625c0,13.60001 -11.02499,24.625 -24.625,24.625c-13.60001,0 -24.625,-11.02499 -24.625,-24.625z" fill="#66caff" stroke-width="0"/><path d="M240,164.45c4.29027,0 8.17745,1.74275 10.99241,4.55771c2.81497,2.81484 4.55759,6.70202 4.55759,10.99229c0,4.29014 -1.74262,8.17745 -4.55759,10.99229c-2.81497,2.81497 -6.70215,4.55771 -10.99241,4.55771c-4.29014,0 -8.17732,-1.74275 -10.99229,-4.55771c-2.81497,-2.81484 -4.55771,-6.70215 -4.55771,-10.99229c0,-4.29027 1.74275,-8.17745 4.55771,-10.99229c2.81497,-2.81497 6.70215,-4.55771 10.99229,-4.55771z" fill="url(#color-1)" stroke-width="0.48028"/><path d="M236.74044,168.01532h6.13417v23.52437h-6.13417z" fill="url(#color-2)" stroke-width="0.59798"/></g></g></svg>