<svg version="1.1" xmlns="http://www.w3.org/2000/svg" xmlns:xlink="http://www.w3.org/1999/xlink" width="100.51617" height="67.57002" viewBox="0,0,100.51617,67.57002"><g transform="translate(-189.70536,-146.35314)"><g data-paper-data="{&quot;isPaintingLayer&quot;:true}" fill-rule="nonzero" stroke-linejoin="miter" stroke-miterlimit="10" stroke-dasharray="" stroke-dashoffset="0" style="mix-blend-mode: normal"><g stroke-linecap="butt"><path d="M259.78219,161.99516c0,-8.19848 6.64619,-14.84467 14.84467,-14.84467c8.19849,0 14.84467,6.64619 14.84467,14.84467c0,8.19848 -6.64619,14.84467 -14.84467,14.84467c-8.19849,0 -14.84467,-6.64619 -14.84467,-14.84467z" fill="#ffffff" stroke="#ffe008" stroke-width="1.5"/><path d="M276.95091,152.1082c3.54252,1.79151 5.36481,2.68726 5.46198,2.68726c0,0.15711 -0.73701,1.5793 -2.21428,4.26656h-0.10367c-0.11824,0 -1.81581,-0.8018 -5.09267,-2.40541l-1.6684,2.22886c2.82494,1.3574 6.25407,3.09059 10.29062,5.19634c-1.832,3.25905 -3.13109,5.42311 -3.89887,6.49704l-8.34038,0.73701c-3.80978,-2.56901 -5.82158,-3.89725 -6.03863,-3.98634v-0.10205c0,-0.27538 0.77264,-1.54043 2.31794,-3.7952h0.19115c0.61066,0.36446 2.52528,1.41247 5.74383,3.14566l1.94863,-2.21589c-5.91552,-3.01121 -9.19239,-4.71364 -9.83222,-5.10724v-0.08909c1.87898,-3.66077 2.90269,-5.51706 3.07115,-5.56566c4.8918,-0.99457 7.61309,-1.49184 8.16382,-1.49184z" fill="#ffe008" stroke="none" stroke-width="1"/></g><g data-paper-data="{&quot;index&quot;:null}"><path d="M190.52852,197.9903c0,-8.19848 6.64619,-14.84467 14.84467,-14.84467c8.19849,0 14.84467,6.64619 14.84467,14.84467c0,8.19848 -6.64619,14.84467 -14.84467,14.84467c-8.19849,0 -14.84467,-6.64619 -14.84467,-14.84467z" fill="#ffffff" stroke="#0052ef" stroke-width="1.5" stroke-linecap="butt"/><path d="M192.18713,193.67787l3.23432,-1.57569l4.64414,6.80035l5.3076,-7.96139l5.63932,8.04432l4.72706,-6.88328l2.81966,1.57569l-7.13208,12.85434l-6.05397,-8.95656l-5.88811,9.0395z" fill="#0052ef" stroke="#000000" stroke-width="0" stroke-linecap="round"/></g><g><path d="M190.45536,161.94781c0,-8.19849 6.64619,-14.84467 14.84467,-14.84467c8.19848,0 14.84467,6.6462 14.84467,14.84467c0,8.19849 -6.64619,14.84467 -14.84467,14.84467c-8.19848,0 -14.84467,-6.64619 -14.84467,-14.84467z" fill="#ffffff" stroke="#ff0021" stroke-width="1.5" stroke-linecap="butt"/><path d="M205.30003,157.80124l5.63932,-6.55157l6.88328,14.51295l-4.47828,3.81483l-3.7319,-10.69812l-4.31242,5.14173l-4.31242,-5.22467l-3.81483,10.69812l-4.39535,-3.64896l6.88328,-14.43002z" fill="#ff0021" stroke="#000000" stroke-width="0" stroke-linecap="round"/></g><g data-paper-data="{&quot;index&quot;:null}" stroke-linecap="butt"><path d="M259.7744,197.93342c0,-8.19849 6.64619,-14.84467 14.84467,-14.84467c8.19849,0 14.84467,6.64619 14.84467,14.84467c0,8.19848 -6.64619,14.84467 -14.84467,14.84467c-8.19849,0 -14.84467,-6.64619 -14.84467,-14.84467z" fill="#ffffff" stroke="#6f18b4" stroke-width="1.5"/><path d="M284.11024,191.30733l-1.47685,4.26163v0.08562c-0.61496,0.37832 -6.87233,3.64619 -12.55799,6.5404l4.98074,0.49817c3.09348,-1.66584 4.9337,-2.67313 5.52063,-3.02343h0.18371c1.48524,2.16715 2.22786,3.38306 2.22786,3.64772v0.09808c-0.20863,0.08563 -2.14224,1.36226 -5.80398,3.83143l-12.05646,-1.48532l0.29281,-5.46762c0,0 10.05033,-5.24368 12.7655,-6.54834l-4.47831,-0.58833c-3.14953,1.54129 -4.78112,2.31194 -4.89476,2.31194h-0.09964c-1.41985,-2.58283 -2.12824,-3.94975 -2.12824,-4.10077c0.09342,0 1.84488,-0.86094 5.24974,-2.58283c0.52933,0 12.27524,2.52161 12.27524,2.52161z" data-paper-data="{&quot;index&quot;:null}" fill="#6f18b4" stroke="none" stroke-width="1"/></g><g stroke="#7100f3"><path d="M225.14757,198.32849c0,-8.19848 6.64619,-14.84467 14.84467,-14.84467c8.19849,0 14.84467,6.64619 14.84467,14.84467c0,8.19848 -6.64619,14.84467 -14.84467,14.84467c-8.19849,0 -14.84467,-6.64619 -14.84467,-14.84467z" fill="#ffffff" stroke-width="1.5" stroke-linecap="butt"/><path d="M248.1195,188.87433v5.63932h-7.79553v14.76175h-6.30277v-20.40107z" fill="#ffe008" stroke-width="2" stroke-linecap="round"/></g><g><path d="M225.16316,162.19533c0,-8.19849 6.64619,-14.84467 14.84467,-14.84467c8.19849,0 14.84467,6.64619 14.84467,14.84467c0,8.19848 -6.64619,14.84467 -14.84467,14.84467c-8.19849,0 -14.84467,-6.64619 -14.84467,-14.84467z" fill="#ffffff" stroke="#64ca00" stroke-width="1.5" stroke-linecap="butt"/><path d="M237.68576,152.24359l-0.41466,14.51295l9.37122,-0.58051l0.16586,4.72707l-13.35192,0.08293l-0.49758,-18.65951z" fill="#64ca00" stroke="#000000" stroke-width="0" stroke-linecap="round"/></g></g></g></svg>