<svg version="1.1" xmlns="http://www.w3.org/2000/svg" xmlns:xlink="http://www.w3.org/1999/xlink" width="198.81633" height="345.77546" viewBox="0,0,198.81633,345.77546"><g transform="translate(-290.88487,-25.93612)"><g data-paper-data="{&quot;isPaintingLayer&quot;:true}" fill-rule="nonzero" stroke-linejoin="miter" stroke-miterlimit="10" stroke-dasharray="" stroke-dashoffset="0" style="mix-blend-mode: normal"><path d="M314.96075,27l162.75112,8.05381l0.24888,70.94619l-49,36l48.95852,31.63901l-0.48543,60.44395l-28.47309,13.91704l-13,36l42.43161,28l0.44395,58.68049l-186.87556,-5.68049l8,-106l46,-95z" data-paper-data="{&quot;origPos&quot;:null}" fill="#b78a5e" stroke="#8a6847" stroke-width="2" stroke-linecap="round"/><path d="M441.51355,204.7485c-0.772,3.3964 -12.8411,-1.9514 -17.4847,1.5923c-3.1976,2.4452 -1.5291,7.9323 -1.0636,11.8714c0.3001,2.4062 3.472,4.4055 2.5922,5.855c-0.838,1.3768 -4.0699,0.3224 -5.8149,-0.4999c-2.3012,-0.874 -5.1162,-2.0427 -5.8251,-4.381c-1.9548,-6.4521 -4.9065,-14.1115 -1.9215,-20.157c2.4633,-4.9897 9.7857,-7.8949 15.2484,-6.8363c6.2135,1.2039 15.105,8.878 15.8471,12.4546z" data-paper-data="{&quot;origPos&quot;:null}" fill="#b2b2b2" stroke="#7f7f7f" stroke-width="2" stroke-linecap="round"/><g data-paper-data="{&quot;origPos&quot;:null}" fill="#b2b2b2" stroke="#7f7f7f" stroke-width="2" stroke-linecap="round"><path d="M379.86185,138.6727c-0.4726,-0.5208 2.324,0.126 3.6032,-0.8011c1.1639,-0.8433 1.8872,-2.1795 2.7251,-3.3464c0.415,-0.5781 0.3121,-1.9008 1.0228,-1.8752c1.4213,0.051 2.8531,0.9415 3.7504,2.0455c0.9656,1.1877 1.699,2.8483 1.455,4.3598c-0.3406,2.1064 -1.6399,4.0409 -3.0684,5.6257c-0.9193,1.0192 -2.3076,1.8582 -3.6802,1.8589c-1.345,0.0006 -2.6551,-0.8867 -3.587,-1.8564c-1.3463,-1.4018 -3.3846,-3.1256 -3.0032,-5.0043z"/><path d="M372.58165,146.2897c-4.6212,-1.0114 -6.0155,-6.6238 -7.013,-10.7908c-1.0482,-4.3863 -0.2794,-9.6093 1.5432,-13.89c1.2217,-2.8639 3.875,-4.9522 6.6459,-6.0741c2.7598,-1.1163 6.4703,-1.2871 9.1938,0.315c4.1279,2.207 9.6789,5.3451 9.8853,10.2911c0.2095,5.1057 -5.6008,8.6628 -9.2238,12.2672c-3.2011,3.1841 -6.6043,8.2281 -11.0314,7.8816z"/><path d="M381.69695,145.7205c1.5849,-0.7736 3.1752,-2.1467 4.9273,-1.9454c1.5096,0.1731 4.0438,1.492 3.5099,2.9143c-1.0523,2.8061 -4.0852,4.6356 -6.8094,5.885c-1.5747,0.7212 -4.0236,0.8498 -5.2893,-0.3852c-0.9562,-1.1508 -0.0523,-3.2141 0.6865,-4.5584c0.5657,-1.0308 1.9172,-1.3939 2.4332,-1.7725z"/><path d="M393.56205,135.3459c0.4494,-0.4558 1.0045,-1.7405 2.1063,-2.1508c1.4372,-0.5363 3.6096,-1.1318 4.6097,-0.0189c1.0387,1.4312 0.5566,3.8357 -0.3851,5.2893c-1.6309,2.5144 -3.8805,5.2503 -6.8094,5.885c-1.4846,0.3222 -2.4225,-2.3764 -2.375,-3.8951c0.0546,-1.7628 1.6436,-3.1374 2.6387,-4.5935z"/></g><g data-paper-data="{&quot;origPos&quot;:null}" fill="#b2b2b2" stroke="#7f7f7f" stroke-width="2" stroke-linecap="round"><path d="M350.47825,278.9974c0.0758,-0.6991 1.4485,1.8218 2.991,2.163c1.4033,0.3107 2.8828,-0.0354 4.3118,-0.1834c0.7078,-0.0733 1.6287,-1.0283 2.0814,-0.4799c0.9053,1.0969 1.1898,2.7589 0.9598,4.1628c-0.2473,1.5106 -1.0024,3.1615 -2.2948,3.9824c-1.8014,1.1435 -4.1107,1.4559 -6.2442,1.4397c-1.3725,-0.011 -2.9216,-0.4923 -3.8333,-1.5184c-0.8933,-1.0055 -1.0994,-2.5744 -0.9928,-3.915c0.1547,-1.9375 0.0908,-4.6062 1.749,-5.5681z"/><path d="M339.94875,278.6091c-2.3112,-4.1276 0.9607,-8.896 3.4149,-12.4082c2.5846,-3.6956 7.0012,-6.5878 11.4125,-8.0664c2.9529,-0.9875 6.2761,-0.3894 8.9545,0.9382c2.6669,1.323 5.2578,3.9846 5.8675,7.085c1.0896,4.5523 2.4277,10.787 -1.1344,14.2245c-3.6794,3.5461 -10.1967,1.5619 -15.2975,1.245c-4.5063,-0.2803 -10.5378,0.5229 -13.2175,-3.0181z"/><path d="M346.42545,285.0484c1.6307,0.6718 3.7133,0.9497 4.7258,2.3937c0.8727,1.2438 1.5686,4.0147 0.1505,4.5596c-2.7972,1.0757 -6.1788,0.0219 -8.9215,-1.186c-1.5848,-0.699 -3.3067,-2.4451 -3.2232,-4.2115c0.2259,-1.4791 2.369,-2.1728 3.8648,-2.5126c1.1465,-0.2612 2.3152,0.5085 2.9409,0.6431z"/><path d="M362.06094,287.0352c0.6391,0.0335 1.9684,-0.4042 3.0068,0.1475c1.3551,0.7188 3.2425,1.9483 3.0741,3.4351c-0.3809,1.7268 -2.4992,2.9624 -4.2115,3.2231c-2.963,0.4494 -6.5025,0.5832 -8.9215,-1.186c-1.2265,-0.8965 0.1691,-3.3893 1.3365,-4.362c1.3546,-1.1293 3.4374,-0.8534 5.187,-1.0758z"/></g><path d="M478.31947,105.24218l-0.30003,67.93071" fill="none" stroke="#8a6847" stroke-width="2" stroke-linecap="round"/><path d="M477.79731,234.98034l0.61954,76.85163" fill="none" stroke="#8a6847" stroke-width="2" stroke-linecap="round"/><path d="M470.5308,108.95179l-7.02915,-73.48655h26.19955l-2.23655,64.85987z" fill="#b78a5e" stroke="none" stroke-width="2" stroke-linecap="butt"/><path d="M473.12609,234.51794l-1.59753,-62.94283l15.65583,7.02915l-0.95852,53.99664z" fill="#b78a5e" stroke="none" stroke-width="0" stroke-linecap="butt"/></g></g></svg>