<svg version="1.1" xmlns="http://www.w3.org/2000/svg" xmlns:xlink="http://www.w3.org/1999/xlink" width="180.33496" height="185.07185" viewBox="0,0,180.33496,185.07185"><g transform="translate(-159.67054,-102.44979)"><g data-paper-data="{&quot;isPaintingLayer&quot;:true}" fill-rule="nonzero" stroke-linejoin="miter" stroke-miterlimit="10" stroke-dasharray="" stroke-dashoffset="0" style="mix-blend-mode: normal"><g data-paper-data="{&quot;origPos&quot;:null,&quot;index&quot;:null,&quot;origRot&quot;:0}" stroke="none" stroke-width="0" stroke-linecap="butt"><path d="M245.60197,198.89821c-3.81868,-3.69794 -2.65303,-10.18683 4.11851,-17.17948c5.44642,-5.62426 17.37374,-15.26327 17.37374,-15.26327l11.33223,11.22869c0,0 -5.39254,7.65827 -12.16409,14.65093c-6.77155,6.99265 -16.84172,10.26107 -20.66041,6.56313z" data-paper-data="{&quot;origRot&quot;:0,&quot;origPos&quot;:null}" fill="#ff0021"/><g data-paper-data="{&quot;origPos&quot;:null}" fill="#ffffff"><path d="M272.86585,147.71249c6.83544,-8.76345 13.5089,-2.31396 22.01848,3.39171c7.79816,5.22867 7.298,19.32266 2.36891,24.543c-6.79442,7.1959 -15.13944,-0.90182 -21.57775,-7.73546c-6.4383,-6.83364 -9.19213,-12.01651 -2.80964,-20.19925z" data-paper-data="{&quot;origRot&quot;:0,&quot;origPos&quot;:null}"/><path d="M264.4482,160.23525c4.83025,-4.85459 4.53937,-1.65917 14.04818,7.92143c8.34703,8.41004 9.9125,9.5263 5.73095,14.1589c-3.73788,4.14107 -8.38937,-2.84189 -13.36705,-8.11131c-4.97768,-5.26943 -9.23263,-11.13428 -6.41209,-13.96902z" data-paper-data="{&quot;origRot&quot;:0,&quot;origPos&quot;:null}"/></g></g><g data-paper-data="{&quot;origPos&quot;:null,&quot;origRot&quot;:0}" stroke="none" stroke-width="0" stroke-linecap="butt"><path d="M242.31701,248.81245c-0.01799,4.56925 5.02885,6.65636 4.80847,7.67019c-0.89169,4.10196 -3.02969,6.90365 -10.00671,8.44897c-8.64259,1.91422 -15.28759,0.95671 -22.64528,-3.96499c-5.01123,-3.3521 -0.29346,-5.71695 2.01364,-11.28708c0.82786,-1.99871 1.50907,-4.63646 2.32566,-10.0112c1.02096,-6.71983 5.37932,-18.81326 5.37932,-18.81326c0,0 5.37085,-0.4973 10.62961,-0.26774c5.19874,0.28202 10.24587,2.71751 10.24587,2.71751c0,0 -2.709,14.94523 -2.75059,25.50759z" data-paper-data="{&quot;origPos&quot;:null}" fill="#0052ef"/><path d="M248.16848,271.39158c-0.22862,3.89179 -4.29655,5.49279 -8.10954,6.30481c-2.49883,0.53215 -14.40484,-0.5175 -20.11949,-4.33157c-1.77414,-1.18411 -3.1228,-3.7148 -3.1228,-3.7148c0,0 -5.07261,0.46284 -4.97275,-0.99054c0.07927,-1.15372 0.1657,-3.12119 1.31948,-3.65458c4.96642,-2.29597 16.3711,-1.61984 21.83313,-1.29897c7.49815,0.44048 13.39543,3.88147 13.17195,7.68568z" data-paper-data="{&quot;origPos&quot;:null}" fill="#f9c869"/><path d="M250.3369,266.61339c-1.63177,4.47525 -6.38229,7.46356 -14.85906,6.9656c-8.47677,-0.49796 -17.25593,-5.94718 -17.25593,-5.94718c0,0 -6.15582,-0.03743 -6.18748,-1.61922c-0.06554,-3.2739 0.18814,-8.59459 1.4318,-8.69598c4.59121,-0.37432 3.69519,0.19167 9.72433,-0.73163c3.90357,-0.59779 10.56014,-3.89321 14.50243,-3.66162c8.47677,0.49796 15.33067,6.32147 12.64393,13.69005z" data-paper-data="{&quot;origPos&quot;:null}" fill="#8e4108"/></g><g data-paper-data="{&quot;origPos&quot;:null,&quot;origRot&quot;:0}" stroke="none" stroke-width="0" stroke-linecap="butt"><path d="M214.32134,262.42889c-2.21912,3.99423 1.19573,8.25631 0.51378,9.03821c-2.7592,3.16354 -5.98322,4.58699 -12.84063,2.57633c-8.49443,-2.49064 -13.85407,-6.5338 -17.92647,-14.39346c-2.77365,-5.35311 2.49972,-5.14986 7.20687,-8.91706c1.68906,-1.35177 3.5578,-3.33409 6.86497,-7.64886c4.13483,-5.3946 14.55252,-13.69939 14.55252,-13.69939c0,0 6.44947,3.98766 10.2014,7.4377c2.96097,2.72273 6.99954,8.37924 6.99954,8.37924c0,0 -10.4422,7.99415 -15.57198,17.22728z" data-paper-data="{&quot;origPos&quot;:null}" fill="#0052ef"/><path d="M208.55951,285.03106c-2.07697,3.29917 -6.41272,2.7401 -10.14466,1.61279c-2.44571,-0.73879 -12.36985,-7.39961 -15.53697,-13.49663c-0.98324,-1.89286 -0.94439,-4.76023 -0.94439,-4.76023c0,0 -4.66706,-2.04062 -3.87873,-3.26571c0.62579,-0.97249 1.65026,-2.65442 2.91823,-2.56533c5.458,0.3835 15.12304,6.47536 19.75334,9.39033c6.35637,4.00161 9.86339,9.85986 7.83316,13.08479z" data-paper-data="{&quot;origPos&quot;:null}" fill="#f9c869"/><path d="M212.76328,281.89077c-3.58755,3.13368 -9.19028,3.46083 -16.37624,-1.06305c-7.18596,-4.52388 -12.24927,-13.53114 -12.24927,-13.53114c0,0 -5.37477,-3.00123 -4.63974,-4.40224c1.52131,-2.89971 4.30927,-7.43857 5.44767,-6.9277c4.20264,1.88603 3.14475,1.94979 8.87183,4.04829c3.708,1.35867 11.1286,1.68162 14.47058,3.78554c7.18596,4.52388 10.38215,12.93064 4.47518,18.0903z" data-paper-data="{&quot;origPos&quot;:null}" fill="#8e4108"/></g><g data-paper-data="{&quot;origPos&quot;:null}"><path d="M257.48831,217.23106c0.39163,21.17353 -13.11217,27.2 -28.3,27.2c-15.18783,0 -27.7,-10.03796 -27.7,-20.2c0,-11.02412 1.31852,-19.79986 9.82136,-26.81648c6.33487,-5.22759 15.46535,-2.78352 23.67864,-2.78352c15.18783,0 22.11612,1.84521 22.5,22.6z" data-paper-data="{&quot;origPos&quot;:null}" fill="#0052ef" stroke="none" stroke-width="0" stroke-linecap="butt"/><path d="M257.48831,216.63106c0,0 -17.24385,2 -29.4,2.4c-11.15011,0.36689 -22.4,-3.4 -22.4,-3.4c0,0 -0.98648,-13.79564 6.98462,-19.16002c5.21526,-3.50975 11.08038,-4.65914 18.61538,-4.83998c7.535,-0.18084 15.72889,2.13912 19.52206,5.21215c8.95988,7.25886 6.67794,19.78785 6.67794,19.78785z" data-paper-data="{&quot;origPos&quot;:null}" fill="#ff0021" stroke="none" stroke-width="0" stroke-linecap="butt"/><path d="M243.59613,195.52237c0,0 2.14029,6.84028 2.57206,10.95319c0.55457,5.28272 -0.57997,15.20846 -0.57997,15.20846" data-paper-data="{&quot;origPos&quot;:null,&quot;origRot&quot;:0}" fill="none" stroke="#0052ef" stroke-width="10" stroke-linecap="round"/><path d="M222.08831,196.03106c0,0 1.23985,7.05925 1.13735,11.19349c-0.13165,5.31011 -2.53735,15.00651 -2.53735,15.00651" data-paper-data="{&quot;origPos&quot;:null}" fill="none" stroke="#0052ef" stroke-width="10" stroke-linecap="round"/><path d="M217.28831,220.33106c0,-2.26436 1.83563,-4.1 4.1,-4.1c2.26436,0 4.1,1.83564 4.1,4.1c0,2.26436 -1.83563,4.1 -4.1,4.1c-2.26436,0 -4.1,-1.83563 -4.1,-4.1z" data-paper-data="{&quot;origPos&quot;:null}" fill="#ffe84f" stroke="none" stroke-width="0" stroke-linecap="butt"/><path d="M242.08831,220.33106c0,-2.26436 1.83563,-4.1 4.1,-4.1c2.26436,0 4.1,1.83564 4.1,4.1c0,2.26436 -1.83564,4.1 -4.1,4.1c-2.26436,0 -4.1,-1.83563 -4.1,-4.1z" data-paper-data="{&quot;origPos&quot;:null}" fill="#ffe84f" stroke="none" stroke-width="0" stroke-linecap="butt"/></g><g data-paper-data="{&quot;origPos&quot;:null,&quot;origRot&quot;:0}" stroke="none" stroke-width="0" stroke-linecap="butt"><path d="M213.24212,211.18469c-6.29077,4.66072 -19.63039,12.22547 -19.63039,12.22547l-9.34925,-12.92651c0,0 6.56931,-6.67629 14.39062,-12.47096c7.82132,-5.79468 18.2897,-7.37701 21.45416,-3.10579c3.16447,4.27121 0.95617,10.48312 -6.86515,16.2778z" data-paper-data="{&quot;origRot&quot;:0,&quot;origPos&quot;:null}" fill="#ff0021"/><g data-paper-data="{&quot;origPos&quot;:null}" fill="#ffffff"><path d="M184.86061,240.96089c-8.17314,7.53135 -13.70541,0.07984 -21.17053,-6.93726c-6.84102,-6.43045 -4.04899,-20.25416 1.6655,-24.60075c7.87702,-5.99146 14.78967,3.35882 20.02728,11.15098c5.23761,7.79216 7.1093,13.35476 -0.52224,20.38703z" data-paper-data="{&quot;origRot&quot;:0,&quot;origPos&quot;:null}"/><path d="M195.20788,229.97862c-5.55732,4.00185 -4.74919,0.89663 -12.56821,-10.10646c-6.8637,-9.65874 -8.22616,-11.01537 -3.34508,-14.90399c4.36319,-3.47603 7.81357,4.17204 11.86523,10.18272c4.05165,6.01067 7.29314,12.49094 4.04806,14.82773z" data-paper-data="{&quot;origRot&quot;:0,&quot;origPos&quot;:null}"/></g></g><path d="M270.85489,136.11782c0.03548,3.8354 -10.39014,10.36228 -19.18936,11.76302c-7.09043,1.12871 -6.39479,-5.822 -6.96783,-9.42175c-0.57304,-3.59976 13.44729,-5.02654 20.53772,-6.15526c7.09042,-1.12871 5.59651,1.33137 5.61947,3.81399z" data-paper-data="{&quot;origPos&quot;:null}" fill="#880010" stroke="none" stroke-width="0" stroke-linecap="butt"/><path d="M204.95714,188.03555c0,0 -1.49511,1.42331 -3.56978,0.36834c-2.07467,-1.05496 -3.91922,-3.96464 -1.46484,-5.88515c2.93569,-2.29712 1.14496,-8.16639 3.21963,-7.11143c0,0 7.30361,-0.1281 8.3098,2.64187c0,0 4.32649,7.77301 3.30203,9.28955c0,0 -1.55183,1.5855 -6.17395,2.09901c-2.50433,0.27823 -3.6229,-1.40219 -3.6229,-1.40219z" data-paper-data="{&quot;origRot&quot;:0,&quot;origPos&quot;:null}" fill="#5a2c0a" stroke="none" stroke-width="0" stroke-linecap="butt"/><path d="M203.64792,149.1285c4.41864,0.31638 36.43904,-7.99621 42.21141,-8.58903c8.54013,-0.87708 7.41618,7.13646 9.36004,15.49855c2.23502,9.61461 9.72168,12.96323 7.76959,22.63924c-0.75263,3.73064 -3.41339,6.04383 -5.99549,8.8397c-1.46481,1.58607 -5.93496,3.61188 -16.55416,5.52702c-15.01087,2.70716 -19.66916,0.94845 -26.63153,-2.79545c-4.42091,-2.37727 -3.38036,-6.92022 -7.2718,-11.16826c-1.19288,-1.30218 -2.45624,-1.897 -2.64835,-1.86642c-10.24147,1.63032 -17.21832,-5.93339 -18.49174,-13.93284c-1.27343,-7.99946 1.34925,-15.06612 7.07613,-15.97777c5.72688,-0.91165 9.63952,1.71526 11.17592,1.82526z" data-paper-data="{&quot;origPos&quot;:null}" fill="#ffdebd" stroke="none" stroke-width="0" stroke-linecap="butt"/><path d="M252.0506,146.6953c1.11654,4.77266 -0.37602,9.20261 -3.33373,9.89454c-2.95771,0.69195 -6.26053,-2.61614 -7.37706,-7.3888c-1.11654,-4.77267 0.37602,-9.2026 3.33373,-9.89454c2.95771,-0.69195 6.26054,2.61614 7.37708,7.3888z" data-paper-data="{&quot;origPos&quot;:null,&quot;origRot&quot;:0}" fill="#ffffff" stroke="none" stroke-width="0" stroke-linecap="butt"/><path d="M215.1584,155.21816c0.41008,2.57605 4.02992,5.8633 1.89246,7.35845c-2.48657,1.73935 -4.15492,0.14548 -4.15492,0.14548c0,0 0.82274,1.4646 -2.67831,2.71416c-2.60074,0.92824 -4.42628,-4.54236 -5.12088,-8.9057c-0.69459,-4.36334 -1.38393,-8.58742 1.32531,-9.12177c11.40672,-2.24979 8.04175,3.44605 8.73634,7.80938z" data-paper-data="{&quot;origPos&quot;:null}" fill="#5a2c0a" stroke="none" stroke-width="0" stroke-linecap="butt"/><path d="M239.97612,153.68516c1.32916,4.71787 0.0365,9.21021 -2.88725,10.03391c-2.92375,0.82371 -6.37143,-2.33313 -7.70059,-7.05101c-1.32916,-4.71787 -0.03649,-9.21021 2.88725,-10.03391c2.92375,-0.82372 6.37143,2.33313 7.70059,7.051z" data-paper-data="{&quot;origPos&quot;:null,&quot;origRot&quot;:0}" fill="#ffffff" stroke="none" stroke-width="0" stroke-linecap="butt"/><path d="M235.14432,147.02127c0.94016,-0.14966 1.90071,0.40119 2.69432,1.41098c0.79263,1.00995 1.41849,2.47983 1.68748,4.16956c0.26898,1.68973 0.13047,3.28129 -0.30938,4.48744c-0.44084,1.2063 -1.18286,2.02818 -2.12302,2.17784c-0.94016,0.14966 -1.90071,-0.40118 -2.69432,-1.41097c-0.79263,-1.00995 -1.41849,-2.47984 -1.68748,-4.16956c-0.26898,-1.68973 -0.13047,-3.28129 0.30938,-4.48744c0.44084,-1.2063 1.18286,-2.02818 2.12302,-2.17784z" data-paper-data="{&quot;origPos&quot;:null}" fill="#000000" stroke="none" stroke-width="1" stroke-linecap="butt"/><path d="M252.67562,111.64613c4.71612,14.38203 1.997,15.67545 -5.18053,21.66264c-10.45825,8.72383 -25.79379,9.73603 -37.28431,17.04684c-3.0171,1.91962 -11.8195,-0.17622 -15.35105,0.38596c-7.22304,1.14982 -12.1204,-3.36364 -13.39769,-9.46487c-2.81741,-13.45793 3.85261,-14.57365 11.07565,-15.72347c0,0 8.15891,0.05213 11.57603,3.83235c0,0 8.1942,-19.75281 19.49745,-23.8313c14.55046,-5.25016 25.67766,-4.23633 29.06445,6.09186z" data-paper-data="{&quot;origPos&quot;:null}" fill="#ff0021" stroke="none" stroke-width="0" stroke-linecap="butt"/><path d="M251.1579,120.52043c0.85956,5.39963 0.06128,9.69205 -10.49192,11.69485c-11.14078,2.11432 -12.74511,-2.45932 -13.60467,-7.85895c-0.85956,-5.39963 3.83783,-10.63559 10.49192,-11.69485c6.65409,-1.05925 12.7451,2.45932 13.60466,7.85895z" data-paper-data="{&quot;origPos&quot;:null}" fill="#ffffff" stroke="none" stroke-width="0" stroke-linecap="butt"/><path d="M270.91978,133.98105c-0.06255,0.87924 -37.83176,12.60424 -48.46402,15.51188c-5.16742,1.41316 -15.87489,2.68757 -15.81234,1.80833c0.23123,-3.25027 1.47383,-8.58341 6.24539,-11.01885c5.76618,-2.94309 25.79549,-11.57932 41.44393,-13.82569c6.397,-0.9183 16.81827,4.27406 16.58703,7.52433z" data-paper-data="{&quot;origPos&quot;:null}" fill="#bc041a" stroke="none" stroke-width="0" stroke-linecap="butt"/><path d="M231.71365,129.41l2.75204,-13.42176l5.28265,5.17221l1.85497,-5.6717l6.85148,9.11841l-3.26582,2.75758l-2.70021,-7.30714l-1.94705,5.03739l-4.26489,-4.07074l-0.32166,7.71056z" data-paper-data="{&quot;origPos&quot;:null}" fill="#ff0021" stroke="none" stroke-width="0" stroke-linecap="butt"/><path d="M262.4153,179.11436c0.03414,2.57501 -1.66606,4.13939 -3.03208,4.75379c-4.16915,1.87518 -10.54319,2.71336 -15.07313,2.09882c-2.60346,-0.35319 -2.90342,-1.95334 -3.17906,-2.13981c-0.29122,-0.19702 -2.68648,2.01427 -5.91557,2.52831c-5.18146,0.82483 -9.3459,-2.25613 -10.15987,-7.36941c-0.89258,-5.60707 -0.90199,-8.80033 -0.08429,-9.0959c4.76236,-1.72149 6.91503,2.37485 11.01451,3.81187c0,0 13.28442,2.14578 19.12808,0.87115c0,0 8.80977,-5.97024 11.79133,-6.2446c1.47872,-0.13607 1.97643,2.92884 1.76135,4.55109c0,0 0.82361,4.2062 -1.045,5.65667c-4.4183,3.42962 -5.21613,-0.16718 -5.20625,0.57804z" data-paper-data="{&quot;origPos&quot;:null}" fill="#38291e" stroke="none" stroke-width="0" stroke-linecap="butt"/><path d="M265.455,162.42901c0.54663,6.61433 2.86235,10.80943 -11.37559,12.8228c-6.56214,0.92794 -13.50759,-2.16033 -14.43009,-7.95538c-0.92251,-5.79505 4.25206,-13.95221 10.69637,-15.49929c9.38979,-2.25419 14.23478,0.04992 15.10931,10.63187z" data-paper-data="{&quot;origPos&quot;:null}" fill="#ffdebd" stroke="none" stroke-width="0" stroke-linecap="butt"/><g data-paper-data="{&quot;origPos&quot;:null}" fill="none" stroke="#f6b09a" stroke-width="3.5" stroke-linecap="round"><path d="M191.01272,158.02036c0,0 2.65451,-2.17431 6.85957,0.12261c6.03074,3.29417 4.00487,10.87761 4.00487,10.87761" data-paper-data="{&quot;origPos&quot;:null}"/><path d="M200.6742,163.28121l-5.92539,0.94325" data-paper-data="{&quot;origPos&quot;:null}"/><path d="M199.7834,169.49856l1.26972,-0.20212" data-paper-data="{&quot;origPos&quot;:null}"/></g><path d="M228.79177,144.68447c-1.29415,0.62145 -1.19927,0.80317 -1.659,2.1632c-0.47426,1.40306 -1.64832,3.29967 -1.64832,3.29967c0,0 -2.0104,-3.3527 -2.43367,-6.01161c-0.2874,-1.80537 0.1927,-5.10821 2.87491,-6.18227c9.36216,-1.81528 7.97078,7.49099 7.97078,7.49099c0,0 -3.75213,-1.45138 -5.10469,-0.75997z" data-paper-data="{&quot;origPos&quot;:null}" fill="#38291e" stroke="none" stroke-width="0" stroke-linecap="butt"/><path d="M245.39679,139.19977c-1.48353,0.32645 -3.45648,3.83251 -3.45648,3.83251c0,0 -6.99154,-6.29771 1.38836,-10.84992c2.75307,-0.87662 5.22383,1.3672 6.15001,2.9433c1.36408,2.32126 1.94439,6.18721 1.94439,6.18721c0,0 -2.11215,-0.71722 -3.37036,-1.49851c-1.21963,-0.75733 -1.26194,-0.95791 -2.65592,-0.61462z" data-paper-data="{&quot;origPos&quot;:null,&quot;index&quot;:null,&quot;origRot&quot;:0}" fill="#38291e" stroke="none" stroke-width="0" stroke-linecap="butt"/><path d="M247.97765,141.68793c0.94016,-0.14966 1.90071,0.40118 2.69432,1.41098c0.79263,1.00995 1.36437,2.48934 1.68748,4.16956c0.35989,1.87154 -0.21847,4.03289 -0.21847,4.03289c0,0 -1.41013,0.43727 -2.35029,0.58693c-0.94016,0.14967 -2.28523,0.90721 -2.28523,0.90721c0,0 -1.41849,-1.84347 -1.9602,-4.44229c-0.34915,-1.675 -0.13047,-3.28129 0.30938,-4.48744c0.44084,-1.2063 1.18286,-2.02818 2.12302,-2.17784z" data-paper-data="{&quot;origPos&quot;:null}" fill="#000000" stroke="none" stroke-width="1" stroke-linecap="butt"/><g><path d="M327.70461,152.49677c4.23623,2.06475 8.82943,7.73056 8.82943,12.67896c0,4.9484 -3.37516,9.43135 -8.82943,12.67896c-5.45286,3.24585 -13.91518,5.13912 -21.29543,5.25636c-7.32391,0.11724 -14.66951,-0.85915 -21.23926,-4.28698c-4.03833,-2.21348 -6.9554,-7.15313 -9.0303,-11.81106c-1.20788,-2.72442 -2.47787,-8.04027 -0.21662,-9.27387c7.02487,-3.82153 15.25324,-2.50919 22.97295,-3.41208c5.61892,-0.00175 11.26985,1.39108 16.97696,0.69991c3.97464,-0.47594 7.81945,-4.4882 11.83171,-2.53019z" fill="#fcdda0" stroke="none" stroke-width="0.91701" stroke-linecap="round"/><path d="M335.85774,152.52127c2.0595,2.61243 3.33334,6.22224 3.33334,10.20476c0,3.98252 -1.27384,7.59233 -3.33334,10.20476c-2.0595,2.61418 -4.9029,4.23098 -8.04027,4.23098c-3.13737,0 -5.98077,-1.6168 -8.04027,-4.23098c-2.0595,-2.61243 -3.33334,-6.22224 -3.33334,-10.20476c0,-3.98252 1.27384,-7.59233 3.33334,-10.20476c2.0595,-2.61418 4.9029,-4.23098 8.04027,-4.23098c3.13737,0 5.98077,1.6168 8.04027,4.23098z" fill="#e2bf87" stroke="none" stroke-width="1" stroke-linecap="butt"/><path d="M333.22081,157.15295c1.14786,1.58531 1.85827,3.77254 1.85827,6.1855c0,2.41296 -0.71041,4.60019 -1.85827,6.1855c-1.14961,1.58356 -2.73492,2.56344 -4.4847,2.56344c-1.74979,0 -3.33509,-0.97988 -4.4847,-2.56344c-1.14786,-1.58531 -1.85827,-3.77254 -1.85827,-6.1855c0,-2.41296 0.71041,-4.60019 1.85827,-6.1855c1.14961,-1.58356 2.73492,-2.56344 4.4847,-2.56344c1.74979,0 3.33509,0.97988 4.4847,2.56344z" fill="#322516" stroke="none" stroke-width="1" stroke-linecap="butt"/><path d="M312.04051,158.45339c2.19178,2.07595 2.2602,4.97447 2.2413,7.54438c-0.01417,1.95206 -0.95783,4.17569 -2.50552,5.61472c-1.54996,1.43745 -3.72512,2.38881 -6.04656,2.32687c-2.4889,-0.06667 -5.09573,-1.26107 -6.42872,-2.7001c-1.67735,-1.86475 -1.68679,-3.56729 -1.88732,-5.40019c-0.19108,-1.78688 -1.03815,-3.83273 0.47174,-5.24149c1.70097,-1.59633 5.01804,-2.10762 7.8443,-2.54139c2.00526,-0.30639 5.03694,-0.74488 6.31078,0.3972z" fill="#322516" stroke="none" stroke-width="1.1493" stroke-linecap="butt"/><path d="M326.95454,133.85769c5.39494,4.41629 9.90782,11.95682 8.73511,17.24765c-0.85985,3.8616 -8.88629,-0.29431 -13.25534,0.97253c-7.99355,2.38671 -15.25464,8.46407 -23.51486,9.89505c-6.88524,1.1923 -13.80792,-0.58355 -20.5194,-2.19896c-1.67892,-0.4042 -3.1169,-1.13666 -2.69607,-3.12914c1.68365,-7.98708 2.53737,-17.4879 7.93826,-22.91906c5.81874,-5.69836 14.5717,-7.03134 22.24172,-7.01945c7.37658,0.0119 15.67424,2.73334 21.07058,7.15138z" fill="#f34135" stroke="none" stroke-width="0.91299" stroke-linecap="round"/><path d="M296.49628,137.26662l-9.62383,15.22315l0.26247,5.51183l-0.43745,-5.68681l-7.43659,4.19949" fill="none" stroke="#bb3228" stroke-width="2" stroke-linecap="round"/><path d="M325.36777,152.40228l-7.43659,-4.19949l-0.43745,5.68681l0.26247,-5.51183l-5.42434,-11.72357" fill="none" stroke="#bb3228" stroke-width="2" stroke-linecap="round"/><path d="M329.93908,155.90185c-10.00756,2.8434 -18.92517,10.74544 -29.02477,11.98604c-9.21823,1.13036 -19.06235,-0.69991 -27.48845,-4.8994c-2.2686,-1.12686 -0.67104,-6.9554 1.61698,-7.61157c4.46598,-1.44357 9.08577,2.30622 13.58255,2.88715c5.13877,0.66492 10.61858,1.74629 15.52289,0.61243c6.62487,-1.54856 12.17747,-6.76468 18.75684,-8.48647c3.99406,-1.04462 8.19968,-0.71741 12.04658,0.34996c2.09065,0.55293 3.81594,2.4497 4.93177,4.28698c0.36046,0.59843 -0.11969,1.84603 -0.88942,1.92477c-3.01891,0.30096 -6.07491,-1.89677 -9.05497,-1.04987z" fill="#ffffff" stroke="none" stroke-width="0.9628" stroke-linecap="round"/><path d="M321.08079,131.14237l-9.27387,5.59932l-14.87319,0.87489l-9.27387,-6.12425" fill="none" stroke="#bb3228" stroke-width="2" stroke-linecap="round"/></g></g></g></svg>