<svg version="1.1" xmlns="http://www.w3.org/2000/svg" xmlns:xlink="http://www.w3.org/1999/xlink" width="37.12076" height="37.12076" viewBox="0,0,37.12076,37.12076"><defs><linearGradient x1="240" y1="162.06462" x2="240" y2="197.93538" gradientUnits="userSpaceOnUse" id="color-1"><stop offset="0" stop-color="#0d51ff"/><stop offset="1" stop-color="#0426a2"/></linearGradient></defs><g transform="translate(-221.43962,-161.43962)"><g data-paper-data="{&quot;isPaintingLayer&quot;:true}" fill-rule="nonzero" stroke-linejoin="miter" stroke-miterlimit="10" stroke-dasharray="" stroke-dashoffset="0" style="mix-blend-mode: normal"><path d="M240,162.06462c4.94815,0 9.43255,2.00922 12.6788,5.25658c3.24737,3.24625 5.25658,7.73065 5.25658,12.6788c0,4.94815 -2.00922,9.43255 -5.25658,12.6788c-3.24625,3.24737 -7.73065,5.25658 -12.6788,5.25658c-4.94815,0 -9.43255,-2.00922 -12.6788,-5.25658c-3.24737,-3.24625 -5.25658,-7.73065 -5.25658,-12.6788c0,-4.94815 2.00922,-9.43255 5.25658,-12.6788c3.24625,-3.24737 7.73065,-5.25658 12.6788,-5.25658z" fill="url(#color-1)" stroke="#000174" stroke-width="1.25" stroke-linecap="butt"/><path d="M231.38945,192.04721v-24.375l10.64806,3.25869l0.37581,19.03075z" fill="#ffffff" stroke="#000174" stroke-width="1.25" stroke-linecap="butt"/><g fill="#ffffff"><g stroke="#000174" stroke-width="2.5"><path d="M245.58816,175.63581l-2.51453,11.85203l-4.92623,-6.53743z" data-paper-data="{&quot;origPos&quot;:null}" stroke-linecap="round"/><path d="M247.18786,186.03899c-1.23017,-2.05752 -3.76133,-1.85041 -3.76133,-1.85041l1.12018,-5.58499c0,0 5.3851,2.79829 5.5238,7.29954c0.13871,4.50125 -3.82463,4.72764 -3.82463,4.72764c0,0 2.37453,-2.19578 0.94198,-4.59177z" stroke-linecap="butt"/></g><g stroke="none"><path d="M245.58816,175.63581l-2.51453,11.85203l-4.92623,-6.53743z" data-paper-data="{&quot;origPos&quot;:null}" stroke-width="1.1379" stroke-linecap="round"/><path d="M247.18786,186.03899c-1.23017,-2.05752 -3.76133,-1.85041 -3.76133,-1.85041l1.12018,-5.58499c0,0 5.3851,2.79829 5.5238,7.29954c0.13871,4.50125 -3.82463,4.72764 -3.82463,4.72764c0,0 2.37453,-2.19578 0.94198,-4.59177z" stroke-width="NaN" stroke-linecap="butt"/></g></g></g></g></svg>