<svg version="1.1" xmlns="http://www.w3.org/2000/svg" xmlns:xlink="http://www.w3.org/1999/xlink" width="490.64904" height="365.8017" viewBox="0,0,490.64904,365.8017"><defs><radialGradient cx="301.99673" cy="179.22554" r="8.84141" gradientUnits="userSpaceOnUse" id="color-1"><stop offset="0" stop-color="#000000" stop-opacity="0.11373"/><stop offset="1" stop-color="#000000" stop-opacity="0"/></radialGradient><radialGradient cx="301.99673" cy="179.22554" r="8.84141" gradientUnits="userSpaceOnUse" id="color-2"><stop offset="0" stop-color="#000000" stop-opacity="0.11373"/><stop offset="1" stop-color="#000000" stop-opacity="0"/></radialGradient></defs><g transform="translate(6.07527,3.90085)"><g data-paper-data="{&quot;isPaintingLayer&quot;:true}" fill-rule="nonzero" stroke-linejoin="miter" stroke-miterlimit="10" stroke-dasharray="" stroke-dashoffset="0" style="mix-blend-mode: normal"><path d="" data-paper-data="{&quot;index&quot;:null}" fill="#628a3f" stroke="none" stroke-width="1.18415" stroke-linecap="butt"/><path d="M398.22379,-3.90085h29.59478v362.65935h-29.59478z" data-paper-data="{&quot;index&quot;:null}" fill="#172815" stroke="none" stroke-width="1.18415" stroke-linecap="butt"/><path d="M401.29285,108.10128h3.90487v250.65722h-3.90487z" data-paper-data="{&quot;index&quot;:null}" fill="#22371f" stroke="none" stroke-width="1.18415" stroke-linecap="butt"/><path d="M74.52353,76.49497h29.59478v284.58218h-29.59478z" data-paper-data="{&quot;index&quot;:null}" fill="#172815" stroke="none" stroke-width="1.18415" stroke-linecap="butt"/><path d="M484.57377,253.31587v41.12668h-490.64904v-41.12668z" data-paper-data="{&quot;index&quot;:null}" fill="#172815" stroke="none" stroke-width="1.18415" stroke-linecap="butt"/><path d="M484.57377,257.58084v5.42643h-488.53829v-5.42643h80.13056c0.14741,0.15407 1.77364,1.36776 3.95532,2.06863c5.70214,1.83183 15.68393,1.36842 18.74592,-0.4175c3.3551,-1.95688 2.85847,-1.65113 2.85847,-1.65113z" data-paper-data="{&quot;index&quot;:null}" fill="#22371f" stroke="none" stroke-width="1.18415" stroke-linecap="butt"/><g stroke="none" stroke-width="1.18415" stroke-linecap="butt"><path d="M484.57377,66.33433v57.60083h-490.64904v-57.60083z" data-paper-data="{&quot;index&quot;:null}" fill="#172815"/><path d="M484.57377,72.30772v7.60011h-488.53829v-7.60011h402.99521c0,0 3.67207,2.45437 5.79441,3.10084c2.12234,0.64646 5.80901,0.99271 8.51119,0.94305c3.34083,-0.0614 4.64217,0.12781 7.41944,-0.74905c2.77728,-0.87686 6.07507,-3.29483 6.07507,-3.29483z" data-paper-data="{&quot;index&quot;:null}" fill="#22371f"/></g><path d="M400.80744,-1.75721h3.90487v73.15997c0,0 -1.68949,-0.38181 -2.76474,-1.10871c-0.75807,-0.51247 -0.96226,-1.52692 -1.14013,-1.81111z" data-paper-data="{&quot;index&quot;:null}" fill="#294426" stroke="none" stroke-width="1.18415" stroke-linecap="butt"/><path d="M77.59262,122.13809c0.27191,-0.24127 0.71539,-1.63653 1.003,-1.8779c1.01742,-0.85385 1.87472,-0.87874 2.90186,-1.72114v138.32721c-0.15851,-0.18999 -1.6601,-0.55522 -2.53321,-1.22324c-0.87311,-0.66802 -0.28542,-0.51171 -1.37165,-1.76438z" data-paper-data="{&quot;index&quot;:null}" fill="#22371f" stroke="none" stroke-width="1.18415" stroke-linecap="butt"/><path d="" data-paper-data="{&quot;index&quot;:null}" fill="#628a3f" stroke="none" stroke-width="1.18415" stroke-linecap="butt"/><path d="M77.59262,292.43956c0.27191,-0.24127 0.71539,-1.63653 1.003,-1.8779c1.01742,-0.85385 1.87472,-0.87874 2.90186,-1.72114v64.82662c-1.57687,-0.07555 -2.86061,0.20197 -3.90487,0.68827z" data-paper-data="{&quot;index&quot;:null}" fill="#22371f" stroke="none" stroke-width="1.18415" stroke-linecap="butt"/><path d="" data-paper-data="{&quot;index&quot;:null}" fill="#3d602d" stroke="none" stroke-width="1.18415" stroke-linecap="butt"/><path d="M312.61133,253.91074c0,0 -1.79146,6.10169 -11.47927,6.30855c-9.70105,0.20714 -11.47667,-5.75941 -11.47667,-5.75941v-131.30289c1.57184,-4.66075 16.59883,-1.58027 22.03242,-2.82803c0.30957,-0.07109 0.61729,-0.17467 0.92353,-0.30496z" data-paper-data="{&quot;index&quot;:null}" fill="#172815" stroke="none" stroke-width="1.18415" stroke-linecap="butt"/><path d="M295.06491,256.34954c0,0 -1.45159,-0.87691 -1.98465,-1.3984c-0.46812,-0.45796 -1.04426,-1.56477 -1.04426,-1.56477v-129.12316c0.71717,-2.00913 1.32618,-2.49251 3.02891,-2.75631z" data-paper-data="{&quot;index&quot;:null}" fill="#22371f" stroke="none" stroke-width="1.18415" stroke-linecap="butt"/><g><path d="M293.1553,179.22554c0,-4.88297 3.95843,-8.84141 8.8414,-8.84141c4.88297,0 8.84141,3.95844 8.84141,8.84141c0,4.88297 -3.95843,8.84141 -8.84141,8.84141c-4.88297,0 -8.8414,-3.95844 -8.8414,-8.84141z" fill="url(#color-1)" stroke="none" stroke-width="NaN" stroke-linecap="butt"/><path d="M293.1553,179.22554c0,-4.88297 3.95843,-8.84141 8.8414,-8.84141c4.88297,0 8.84141,3.95844 8.84141,8.84141c0,4.88297 -3.95843,8.84141 -8.84141,8.84141c-4.88297,0 -8.8414,-3.95844 -8.8414,-8.84141z" fill="url(#color-2)" stroke="none" stroke-width="NaN" stroke-linecap="butt"/><g fill="none"><g stroke="#564429" stroke-width="6"><path d="M295.44639,183.89136c-3.03567,-3.03567 -3.03567,-7.95746 0,-10.99313c3.03567,-3.03567 7.95746,-3.03567 10.99313,0c3.03567,3.03567 3.03567,7.95746 0,10.99313c-3.03567,3.03567 -7.95746,3.03567 -10.99313,0z" stroke-linecap="butt"/><path d="M296.14955,173.53775l9.73437,9.73437" stroke-linecap="round"/><path d="M305.80003,173.45383l-9.73438,9.73438" stroke-linecap="round"/></g><g stroke="#705c36" stroke-width="3"><path d="M295.44639,183.89136c-3.03567,-3.03567 -3.03567,-7.95746 0,-10.99313c3.03567,-3.03567 7.95746,-3.03567 10.99313,0c3.03567,3.03567 3.03567,7.95746 0,10.99313c-3.03567,3.03567 -7.95746,3.03567 -10.99313,0z" stroke-linecap="butt"/><path d="M295.98172,173.36992l9.73438,9.73437" stroke-linecap="round"/><path d="M305.80003,173.45383l-9.73438,9.73437" stroke-linecap="round"/></g></g></g><path d="M210.43525,275.83212h29.59478v86.06873h-29.59478z" data-paper-data="{&quot;index&quot;:null}" fill="#172815" stroke="none" stroke-width="1.18415" stroke-linecap="butt"/><path d="M213.5043,293.26327c0.27191,-0.24127 0.71539,-1.63653 1.003,-1.8779c1.01742,-0.85385 1.87472,-0.87874 2.90186,-1.72114v64.82662c-1.57687,-0.07555 -2.86061,0.20197 -3.90487,0.68827z" data-paper-data="{&quot;index&quot;:null}" fill="#22371f" stroke="none" stroke-width="1.18415" stroke-linecap="butt"/><g stroke="none" stroke-linecap="butt"><path d="" data-paper-data="{&quot;index&quot;:null}" fill="#3d602d" stroke-width="1.18415"/><g fill="none" stroke-width="1" font-family="sans-serif" font-weight="normal" font-size="12" text-anchor="start"><g><g/><g/></g></g></g><g><g stroke-linecap="butt"><g fill="#797872" stroke="#564429" stroke-width="6"><path d="M227.22464,313.0591c5.53464,0 10.02135,4.48672 10.02135,10.02135c0,5.53464 -4.48672,10.02135 -10.02135,10.02135c-5.53464,0 -10.02135,-4.48672 -10.02135,-10.02135c0,-5.53464 4.48672,-10.02135 10.02135,-10.02135z"/></g><g fill="none" stroke="#705c36" stroke-width="3"><path d="M227.22464,313.0761c5.53464,0 10.02135,4.48672 10.02135,10.02135c0,5.53464 -4.48672,10.02135 -10.02135,10.02135c-5.53464,0 -10.02135,-4.48672 -10.02135,-10.02135c0,-5.53464 4.48672,-10.02135 10.02135,-10.02135z"/></g></g><path d="M227.15101,323.14478l-4.57746,4.57746" fill="none" stroke="#000000" stroke-width="3" stroke-linecap="round"/></g><g fill="none"><g stroke="#564429" stroke-width="6"><path d="M88.73471,163.76275c5.53464,0 10.02135,4.48672 10.02135,10.02135c0,5.53464 -4.48672,10.02135 -10.02135,10.02135c-5.53464,0 -10.02135,-4.48672 -10.02135,-10.02135c0,-5.53464 4.48672,-10.02135 10.02135,-10.02135z" stroke-linecap="butt"/><path d="M88.79273,164.98673v17.74774" stroke-linecap="round"/><path d="M97.66658,173.86059h-17.74774" stroke-linecap="round"/></g><g stroke="#705c36" stroke-width="3"><path d="M88.73471,163.77975c5.53464,0 10.02135,4.48672 10.02135,10.02135c0,5.53464 -4.48672,10.02135 -10.02135,10.02135c-5.53464,0 -10.02135,-4.48672 -10.02135,-10.02135c0,-5.53464 4.48672,-10.02135 10.02135,-10.02135z" stroke-linecap="butt"/><path d="M88.79273,164.98673v17.74774" stroke-linecap="round"/><path d="M97.66658,173.7756h-17.74774" stroke-linecap="round"/></g></g></g></g></svg>