<svg version="1.1" xmlns="http://www.w3.org/2000/svg" xmlns:xlink="http://www.w3.org/1999/xlink" width="445.41801" height="300.30001" viewBox="0,0,445.41801,300.30001"><g transform="translate(-10.88201,-13.00002)"><g data-paper-data="{&quot;isPaintingLayer&quot;:true}" fill="none" fill-rule="nonzero" stroke="#cccccc" stroke-width="2" stroke-linecap="round" stroke-linejoin="miter" stroke-miterlimit="10" stroke-dasharray="" stroke-dashoffset="0" style="mix-blend-mode: normal"><path d="M53.30002,14.30003l-0.3,-0.3"/><path d="M79.00001,71.00002l0.3,0.3"/><path d="M291.00002,59.00004l0.3,0.3"/><path d="M168.30002,33.30003l-0.3,-0.3"/><path d="M200.30002,87.30004l-0.3,-0.3"/><path d="M264.00002,29.00003l0.3,0.3"/><path d="M455.30002,41.30003l-0.3,-0.3"/><path d="M443.30002,106.30004l-0.3,-0.3"/><path d="M424.30002,147.30002l-0.3,-0.3"/><path d="M371.30002,132.30002l-0.3,-0.3"/><path d="M371.00002,53.00004l0.3,0.3"/><path d="M291.00002,233.00004l0.3,0.3"/><path d="M168.30002,182.30005l-0.3,-0.3"/><path d="M163.00001,308.00005l0.3,0.3"/><path d="M233.30002,273.30003l-0.3,-0.3"/><path d="M309.30002,312.30003l-0.3,-0.3"/><path d="M385.00002,291.00002l0.3,0.3"/><path d="M451.30002,299.30003l-0.3,-0.3"/><path d="M422.30002,210.30004l-0.3,-0.3"/><path d="M360.30002,208.30004l-0.3,-0.3"/><path d="M304.00002,161l0.3,0.3"/><path d="M277.30002,120.30005l-0.3,-0.3"/><path d="M221.30002,130.30002l-0.3,-0.3"/><path d="M214.30002,187.30004l-0.3,-0.3"/><path d="M140.3,103.30004l-0.3,-0.3"/><path d="M372.00002,92.00004l0.3,0.3"/><path d="M323.00002,123.00005l0.3,0.3"/><path d="M167.3,262.30003l-0.3,-0.3"/><path d="M376.00002,250.00005l0.3,0.3"/><path d="M113.18201,145.59195l-0.3,-0.3" data-paper-data="{&quot;index&quot;:null}"/><path d="M60.18201,130.59195l-0.3,-0.3" data-paper-data="{&quot;index&quot;:null}"/><path d="M26.69132,311.43048l-0.3,-0.3" data-paper-data="{&quot;index&quot;:null}"/><path d="M73.88201,289.29195l0.3,0.3" data-paper-data="{&quot;index&quot;:null}"/><path d="M140.18201,297.59196l-0.3,-0.3" data-paper-data="{&quot;index&quot;:null}"/><path d="M111.18201,208.59197l-0.3,-0.3" data-paper-data="{&quot;index&quot;:null}"/><path d="M48.88201,206.29197l0.3,0.3" data-paper-data="{&quot;index&quot;:null}"/><path d="M12.18201,121.59197l-0.3,-0.3" data-paper-data="{&quot;index&quot;:null}"/><path d="M64.88201,248.29197l0.3,0.3" data-paper-data="{&quot;index&quot;:null}"/></g></g></svg>