<svg version="1.1" xmlns="http://www.w3.org/2000/svg" xmlns:xlink="http://www.w3.org/1999/xlink" width="491.55722" height="236.39775" viewBox="0,0,491.55722,236.39775"><defs><linearGradient x1="122.52438" y1="184.06679" x2="122.52438" y2="220.3569" gradientUnits="userSpaceOnUse" id="color-1"><stop offset="0" stop-color="#57ed34"/><stop offset="1" stop-color="#3eae24"/></linearGradient><linearGradient x1="158.32632" y1="192.4908" x2="158.32632" y2="220.35691" gradientUnits="userSpaceOnUse" id="color-2"><stop offset="0" stop-color="#57ed34"/><stop offset="1" stop-color="#3eae24"/></linearGradient><linearGradient x1="185.50902" y1="184.09468" x2="185.50902" y2="220.35688" gradientUnits="userSpaceOnUse" id="color-3"><stop offset="0" stop-color="#57ed34"/><stop offset="1" stop-color="#3eae24"/></linearGradient><linearGradient x1="210.54391" y1="192.51869" x2="210.54391" y2="220.3569" gradientUnits="userSpaceOnUse" id="color-4"><stop offset="0" stop-color="#57ed34"/><stop offset="1" stop-color="#3eae24"/></linearGradient><linearGradient x1="241.77127" y1="192.51869" x2="241.77127" y2="220.3569" gradientUnits="userSpaceOnUse" id="color-5"><stop offset="0" stop-color="#57ed34"/><stop offset="1" stop-color="#3eae24"/></linearGradient><linearGradient x1="274.40723" y1="184.06677" x2="274.40723" y2="220.35688" gradientUnits="userSpaceOnUse" id="color-6"><stop offset="0" stop-color="#57ed34"/><stop offset="1" stop-color="#3eae24"/></linearGradient><linearGradient x1="307.4477" y1="192.51869" x2="307.4477" y2="220.3569" gradientUnits="userSpaceOnUse" id="color-7"><stop offset="0" stop-color="#57ed34"/><stop offset="1" stop-color="#3eae24"/></linearGradient><linearGradient x1="341.57596" y1="184.03891" x2="341.57596" y2="220.35691" gradientUnits="userSpaceOnUse" id="color-8"><stop offset="0" stop-color="#57ed34"/><stop offset="1" stop-color="#3eae24"/></linearGradient><linearGradient x1="367.37799" y1="185.09882" x2="367.37799" y2="220.3569" gradientUnits="userSpaceOnUse" id="color-9"><stop offset="0" stop-color="#57ed34"/><stop offset="1" stop-color="#3eae24"/></linearGradient><linearGradient x1="116.08087" y1="139.64309" x2="116.08087" y2="175.93318" gradientUnits="userSpaceOnUse" id="color-10"><stop offset="0" stop-color="#57ed34"/><stop offset="1" stop-color="#3eae24"/></linearGradient><linearGradient x1="152.20361" y1="139.64309" x2="152.20361" y2="175.93326" gradientUnits="userSpaceOnUse" id="color-11"><stop offset="0" stop-color="#57ed34"/><stop offset="1" stop-color="#3eae24"/></linearGradient><linearGradient x1="184.8117" y1="148.06707" x2="184.8117" y2="175.93318" gradientUnits="userSpaceOnUse" id="color-12"><stop offset="0" stop-color="#57ed34"/><stop offset="1" stop-color="#3eae24"/></linearGradient><linearGradient x1="214.53278" y1="148.06708" x2="214.53278" y2="175.93321" gradientUnits="userSpaceOnUse" id="color-13"><stop offset="0" stop-color="#57ed34"/><stop offset="1" stop-color="#3eae24"/></linearGradient><linearGradient x1="243.83542" y1="148.06707" x2="243.83542" y2="175.93318" gradientUnits="userSpaceOnUse" id="color-14"><stop offset="0" stop-color="#57ed34"/><stop offset="1" stop-color="#3eae24"/></linearGradient><linearGradient x1="274.32358" y1="148.09498" x2="274.32358" y2="175.93318" gradientUnits="userSpaceOnUse" id="color-15"><stop offset="0" stop-color="#57ed34"/><stop offset="1" stop-color="#3eae24"/></linearGradient><linearGradient x1="304.8396" y1="139.64309" x2="304.8396" y2="175.9332" gradientUnits="userSpaceOnUse" id="color-16"><stop offset="0" stop-color="#57ed34"/><stop offset="1" stop-color="#3eae24"/></linearGradient><linearGradient x1="336.23433" y1="148.09498" x2="336.23433" y2="175.93318" gradientUnits="userSpaceOnUse" id="color-17"><stop offset="0" stop-color="#57ed34"/><stop offset="1" stop-color="#3eae24"/></linearGradient><linearGradient x1="367.08511" y1="148.06708" x2="367.08511" y2="175.93321" gradientUnits="userSpaceOnUse" id="color-18"><stop offset="0" stop-color="#57ed34"/><stop offset="1" stop-color="#3eae24"/></linearGradient></defs><g transform="translate(5.77861,-61.80113)"><g data-paper-data="{&quot;isPaintingLayer&quot;:true}" fill-rule="nonzero" stroke="#277318" stroke-linecap="butt" stroke-linejoin="miter" stroke-miterlimit="10" stroke-dasharray="" stroke-dashoffset="0" style="mix-blend-mode: normal"><g stroke-width="2"><path d="M106.79214,184.0668c7.69875,1.61785 11.54813,2.54764 11.54813,2.78939c-0.5021,9.20503 -0.9949,17.08043 -1.47838,23.62623c0.74384,0 3.53324,0.25105 8.3682,0.75313c1.8596,-16.49465 2.91028,-24.74197 3.15204,-24.74197c6.82473,1.11575 10.2371,1.79451 10.2371,2.03627c-2.10136,17.81496 -3.2822,26.87122 -3.54254,27.16874c-1.04138,0.85543 -2.77081,2.4082 -5.18828,4.65831c-11.04604,-0.33472 -16.56905,-0.70666 -16.56905,-1.11577l-6.88982,-8.00559v-9.87446c0,-3.81219 0.06509,-9.51187 0.19526,-17.09904c0.11155,0 0.16733,-0.06508 0.16733,-0.19524z" fill="url(#color-1)"/><path d="M166.06691,192.4908l9.2887,6.38773c-0.65086,10.59972 -1.10646,16.79218 -1.3668,18.57741c-1.07858,0.13016 -4.36077,0.32543 -9.84659,0.58578l-0.19526,-0.39053l-0.97629,-14.89538l-0.39052,-0.19526c-3.55184,0.76244 -5.99721,1.33892 -7.33612,1.72944c0.37192,6.34123 0.55789,10.92514 0.55789,13.75174c-5.54161,1.54346 -8.57276,2.3152 -9.09345,2.3152c-3.60762,-15.88099 -5.41144,-24.26779 -5.41144,-25.1604c7.84751,-1.02278 12.106,-1.53417 12.77545,-1.53417v0.19526c0.13017,0.09305 0.32544,2.02703 0.58578,5.80194c7.19666,-4.77916 10.99953,-7.16875 11.40865,-7.16875z" fill="url(#color-2)"/><path d="M178.145,184.09469c5.69038,0.11155 9.86519,0.16733 12.52442,0.16733c0.24175,0 0.97629,11.41795 2.20362,34.25385c-0.94839,0.24175 -4.25848,0.85541 -9.93026,1.841c-0.27894,0 -1.19945,-6.99209 -2.76152,-20.97628c-0.13016,-0.33472 -0.80892,-5.43004 -2.03627,-15.28591z" fill="url(#color-3)"/><path d="M207.26636,192.51869c7.06647,1.89679 10.81357,3.04974 11.24128,3.45884c3.88656,5.50443 6.0716,8.67505 6.55509,9.51187c-2.51047,7.9591 -3.95167,11.93864 -4.32359,11.93864c-8.3682,1.95258 -12.74756,2.92887 -13.13807,2.92887c-6.91772,-4.03533 -10.59972,-6.28545 -11.04601,-6.75035c-0.24176,-7.51278 -0.36263,-11.65969 -0.36263,-12.44073c-0.11155,-0.22315 -0.16733,-0.39052 -0.16733,-0.50209c7.14086,-5.43002 10.83216,-8.14504 11.07391,-8.14504zM206.73637,202.7279c-0.11155,0.74384 -0.27892,3.44956 -0.50209,8.11715l6.22036,1.3947c1.48769,-4.64899 2.23153,-7.13155 2.23153,-7.44768c-4.94654,-1.48769 -7.59647,-2.23153 -7.9498,-2.23153z" fill="url(#color-4)"/><path d="M238.56343,192.51869c8.3868,1.58066 12.77545,2.48256 13.16597,2.70571v0.33472c-1.8038,5.09531 -2.70571,7.73595 -2.70571,7.9219h-0.16733c-0.46491,0 -2.71502,-0.72524 -6.75035,-2.17572c-2.25013,3.77498 -3.37519,5.79265 -3.37519,6.05299l5.57881,5.41144c4.31428,-4.05392 6.50861,-6.08089 6.58299,-6.08089c3.36587,4.40724 5.04882,6.88052 5.04882,7.41981c-1.84101,1.05997 -5.04883,3.14271 -9.62344,6.24825c-8.8517,-1.91539 -13.63088,-2.98466 -14.33752,-3.20782l-4.37936,-14.17015z" fill="url(#color-5)"/><path d="M271.00416,184.0668c0.26036,0.74383 0.84613,6.01579 1.75733,15.8159l8.3682,-9.37238h0.19524c1.30172,1.07856 3.70991,3.35656 7.22457,6.83402v0.19524l-8.00559,6.61089c6.02511,4.03533 9.21433,6.31335 9.56766,6.83402c-3.79359,4.22129 -6.07161,6.62947 -6.83405,7.22454l-9.735,-8.98185c0.39052,4.01672 0.58578,7.01068 0.58578,8.98185c-0.46491,0.26036 -3.91446,0.9763 -10.34868,2.14784c-0.52068,-2.60344 -2.21292,-13.78894 -5.07671,-33.55649c1.19015,-0.39052 5.29058,-1.30172 12.30126,-2.73361z" fill="url(#color-6)"/><path d="M308.35423,192.51869c8.424,4.33286 13.0916,6.86191 14.0028,7.58716c-1.20874,5.65319 -1.92469,8.56346 -2.14784,8.73082h-17.62901v0.30685l4.93724,6.10877l7.75453,-3.96096c0.76244,1.32032 1.85961,3.62622 3.29151,6.91772c-0.66946,0.22316 -5.55091,0.9391 -14.64437,2.14784c-7.53138,-4.96514 -11.32496,-7.54998 -11.38074,-7.75453c1.20874,-9.65134 1.92468,-14.47699 2.14783,-14.47699c7.86611,-3.34729 12.42213,-5.21617 13.66806,-5.60668zM306.54113,199.26903c-0.14876,0.37192 -1.13434,1.8503 -2.95676,4.43515c0,0.78102 1.09716,1.17154 3.29148,1.17154c0,0.11155 1.58997,0.38121 4.76989,0.80894c0.87401,-1.20875 1.31101,-1.9154 1.31101,-2.11996c-0.27894,-1.65505 -0.88331,-2.48256 -1.8131,-2.48256z" fill="url(#color-7)"/><path d="M341.77123,184.03891h0.16733c8.40539,0.70666 12.60808,1.25523 12.60808,1.64574l3.70991,32.83127c0,0.24175 -3.70991,0.85541 -11.12972,1.841l-0.16733,-0.36262v-2.98466c-6.39704,1.72944 -10.78569,2.8452 -13.16597,3.34728c-5.65319,-7.99629 -8.61926,-12.25477 -8.89819,-12.77545c4.16551,-7.56858 6.38773,-11.39935 6.66666,-11.49234l11.68759,0.55789c-0.24175,-1.4319 -0.73454,-5.63459 -1.47838,-12.60808zM336.58296,204.03891c1.8782,5.74618 3.04975,8.8982 3.51464,9.45607l5.5509,-4.82566c-0.57647,-3.32869 -1.00418,-4.99302 -1.28311,-4.99302h-7.41981c-0.24175,0.03715 -0.36262,0.15802 -0.36262,0.36262z" fill="url(#color-8)"/><path d="M373.45884,185.09887l0.11162,0.22314c-1.8596,16.42027 -2.90097,25.04883 -3.12412,25.88565c-3.94236,-0.37192 -6.43422,-0.63226 -7.4756,-0.78105v-0.11162l-1.78523,-23.31938c0.44631,-0.14877 4.53743,-0.78103 12.27336,-1.89679zM362.41282,211.76554c0.13017,0.07442 3.03115,0.29757 8.70292,0.66946l0.11162,0.22316c-0.87401,5.1325 -1.43189,7.69874 -1.67364,7.69874h-6.47139c-0.22316,0 -0.5207,-2.56624 -0.89262,-7.69874c-0.07442,0 -0.11162,-0.22315 -0.11162,-0.66946c0.22315,-0.07442 0.33472,-0.14879 0.33472,-0.22316z" fill="url(#color-9)"/></g><g stroke-width="2"><path d="M118.50764,139.64309c8.31242,3.2357 12.46863,4.95583 12.46863,5.16038c-2.65923,5.43004 -3.98884,8.25664 -3.98884,8.47979h-0.16737c-1.19014,-0.33472 -3.80289,-1.49698 -7.83821,-3.48675l-6.63877,4.65831c0,5.76476 0.32543,8.64713 0.97629,8.64713c0.42771,0.22315 3.20781,1.33891 8.34031,3.34728c1.97117,-1.95258 3.97024,-3.84007 5.99721,-5.66247c0.37192,0.33472 2.03627,2.99395 4.99302,7.97769v0.50209c-0.18595,0 -4.29568,2.22222 -12.32915,6.66666c-10.26499,-3.44027 -15.53696,-5.27198 -15.8159,-5.49513l-4.99302,-16.48535c4.6862,-6.65737 7.07578,-9.98606 7.16876,-9.98606c0.20455,0 4.14691,-1.44118 11.82706,-4.32356z" fill="url(#color-10)"/><path d="M148.38212,139.64309c0,0 0.63226,5.26267 1.56207,15.28591c7.17806,-2.19433 10.99953,-3.29151 11.46444,-3.29151l7.11297,4.85355c-1.15295,10.59973 -1.90609,16.7922 -2.25941,18.57742l-9.87447,0.33472c0,-0.11155 -0.06508,-0.16733 -0.19525,-0.16733l0.19525,-0.69734c0,-1.50629 0.22315,-6.0809 0.66946,-13.72386c-2.71501,-0.11155 -4.73268,-0.16733 -6.053,-0.16733h-0.69734c0.79963,8.49837 1.19944,13.12877 1.19944,13.89122l-9.37238,1.3947c-0.35332,-1.19014 -2.43608,-12.30126 -6.24825,-33.33333c0,-0.59508 10.72989,-2.95676 12.49651,-2.95676z" fill="url(#color-11)"/><path d="M175.38352,148.06708c11.04603,1.52486 16.56904,2.46397 16.56904,2.81729c4.35146,3.73779 6.5272,5.73686 6.5272,5.99722c-1.76662,5.52301 -2.77081,8.87959 -3.01255,10.06973c1.76662,3.92376 2.77081,6.26685 3.01255,7.02929c0,0.22315 -2.88238,0.81822 -8.64714,1.78521c-0.07439,-0.31613 -0.60437,-1.02277 -1.58995,-2.11993c-7.9591,1.52486 -12.24548,2.2873 -12.85914,2.2873l-4.23989,-11.46444l9.3445,-4.93724c1.50628,0.24176 3.85867,0.36263 7.05719,0.36263c0,-0.40912 0.05579,-1.64575 0.16737,-3.70991c-0.53929,0 -5.35565,0.35332 -14.4491,1.05998l-0.16737,-0.36262c1.26453,-5.87634 2.02697,-8.81451 2.28731,-8.81451zM181.18548,164.46874c0,0.20456 0.59507,2.3803 1.78522,6.5272h0.16737c2.34309,-1.52486 3.51464,-2.52906 3.51464,-3.01255l0.36262,-2.98466c-0.44631,0 -2.38959,-0.17667 -5.82985,-0.52999z" fill="url(#color-12)"/><path d="M227.93584,152.08381c0,0 -4.6304,9.45607 -4.85355,9.56766h-0.19525l-3.98884,-3.48675l-4.71408,5.74616l0.52999,10.46026c-0.24175,0.22315 -3.31939,0.74384 -9.23292,1.56207c-0.22315,-1.59925 -1.67364,-9.43747 -4.35146,-23.51464c0,-0.22316 3.88656,-0.79965 11.65969,-1.72944c0.13017,0.14877 1.05997,5.21619 1.05997,5.21619l7.30823,-7.83821z" fill="url(#color-13)"/><path d="M234.40724,148.06708c11.04603,1.52486 16.56904,2.46397 16.56904,2.81729c4.35146,3.73779 6.5272,5.73686 6.5272,5.99722c-1.76662,5.52301 -2.77081,8.87959 -3.01255,10.06973c1.76662,3.92376 2.77081,6.26685 3.01255,7.02929c0,0.22315 -2.88238,0.81822 -8.64714,1.78521c-0.07439,-0.31613 -0.60437,-1.02277 -1.58995,-2.11993c-7.9591,1.52486 -12.24548,2.2873 -12.85914,2.2873l-4.23989,-11.46444l9.3445,-4.93724c1.50628,0.24176 3.85867,0.36263 7.05719,0.36263c0,-0.40912 0.05579,-1.64575 0.16737,-3.70991c-0.53929,0 -5.35565,0.35332 -14.4491,1.05998l-0.16737,-0.36262c1.26453,-5.87634 2.02697,-8.81451 2.28731,-8.81451zM240.2092,164.46874c0,0.20456 0.59507,2.3803 1.78522,6.5272h0.16737c2.34309,-1.52486 3.51464,-2.52906 3.51464,-3.01255l0.36262,-2.98466c-0.44631,0 -2.38959,-0.17667 -5.82985,-0.52999z" fill="url(#color-14)"/><path d="M271.11576,148.09498c8.3868,1.58066 12.77545,2.48256 13.16597,2.70571v0.33472c-1.80382,5.09531 -2.70571,7.73595 -2.70571,7.9219h-0.16737c-0.4649,0 -2.71501,-0.72524 -6.75035,-2.17572c-2.25012,3.77498 -3.37517,5.79265 -3.37517,6.05299l5.57879,5.41144c4.31428,-4.05392 6.5086,-6.08089 6.58299,-6.08089c3.36587,4.40724 5.04882,6.88052 5.04882,7.41981c-1.841,1.05997 -5.04882,3.14271 -9.62343,6.24825c-8.8517,-1.91539 -13.63088,-2.98466 -14.33752,-3.20782l-4.37936,-14.17015z" fill="url(#color-15)"/><path d="M299.59554,139.64309l12.27336,2.17572l-1.17155,9.3166c2.43608,-0.13016 4.22129,-0.19524 5.35565,-0.19524h1.78522l0.39052,-0.19526l0.19525,0.39052c-0.39052,5.65319 -0.72524,8.83311 -1.00418,9.53976l-0.39052,-0.22316c-0.27894,0 -2.7894,-0.13017 -7.53138,-0.39052c-0.26034,4.37007 -0.45561,9.59554 -0.58577,15.67643l-0.39052,0.19526c-5.98791,-0.39052 -9.55835,-0.72524 -10.7113,-1.00418l0.19525,-0.78102c0,-1.61785 0.26034,-6.63877 0.78103,-15.06278c-5.02092,-0.27894 -7.53138,-0.61367 -7.53138,-1.00418c0.26034,-6.21106 0.59507,-9.3166 1.00418,-9.3166l7.33613,1.3947v-2.39889c0,-1.95258 -0.07438,-4.59321 -0.22315,-7.9219c0.14877,0 0.22315,-0.06508 0.22315,-0.19524z" fill="url(#color-16)"/><path d="M337.14089,148.09498c8.42399,4.33286 13.09159,6.86191 14.00279,7.58716c-1.20874,5.65319 -1.92469,8.56346 -2.14784,8.73082h-17.62902v0.30685l4.93724,6.10877l7.75453,-3.96096c0.76244,1.32032 1.8596,3.62622 3.2915,6.91772c-0.66946,0.22316 -5.55091,0.9391 -14.64435,2.14784c-7.53138,-4.96514 -11.32497,-7.54998 -11.38075,-7.75453c1.20874,-9.65134 1.92469,-14.47699 2.14784,-14.47699c7.86611,-3.34729 12.42213,-5.21617 13.66806,-5.60668zM335.32778,154.84531c-0.14877,0.37192 -1.13436,1.8503 -2.95676,4.43515c0,0.78102 1.09716,1.17154 3.2915,1.17154c0,0.11155 1.58995,0.38121 4.76988,0.80894c0.87401,-1.20875 1.31102,-1.9154 1.31102,-2.11996c-0.27894,-1.65505 -0.88331,-2.48256 -1.81312,-2.48256z" fill="url(#color-17)"/><path d="M373.70993,148.06708c3.68201,2.06415 5.94143,3.40306 6.77824,4.01672c-3.01254,6.26685 -4.63039,9.45607 -4.85355,9.56766h-0.19524l-3.98884,-3.48675l-4.71409,5.74616l0.52999,10.46026c-0.24175,0.22315 -3.31938,0.74384 -9.23291,1.56207c-0.22315,-1.59925 -1.67364,-9.43747 -4.35146,-23.51464c0,-0.22316 3.88656,-0.79965 11.65969,-1.72944c0.13017,0.14877 0.48351,1.88751 1.05998,5.21619c4.649,-5.22547 7.08508,-7.83821 7.30823,-7.83821z" fill="url(#color-18)"/></g><path d="M-5.77861,298.19887v-236.39775h491.55722v236.39775z" fill="none" stroke-width="0"/></g></g></svg>