<svg version="1.1" xmlns="http://www.w3.org/2000/svg" xmlns:xlink="http://www.w3.org/1999/xlink" width="873.51215" height="483.38439" viewBox="0,0,873.51215,483.38439"><defs><linearGradient x1="246.62906" y1="-2.52054" x2="246.62906" y2="360.47947" gradientUnits="userSpaceOnUse" id="color-1"><stop offset="0" stop-color="#17080f"/><stop offset="1" stop-color="#4a2449"/></linearGradient><linearGradient x1="-108.74188" y1="317.05374" x2="-108.74188" y2="-35.16764" gradientUnits="userSpaceOnUse" id="color-2"><stop offset="0" stop-color="#27002f" stop-opacity="0"/><stop offset="1" stop-color="#27002f" stop-opacity="0.72549"/></linearGradient><linearGradient x1="-108.74188" y1="-35.16766" x2="-108.74188" y2="405.23386" gradientUnits="userSpaceOnUse" id="color-3"><stop offset="0" stop-color="#27002f" stop-opacity="0"/><stop offset="1" stop-color="#27002f" stop-opacity="0.76471"/></linearGradient></defs><g transform="translate(196.90133,35.16766)"><g data-paper-data="{&quot;isPaintingLayer&quot;:true}" fill-rule="nonzero" stroke-linejoin="miter" stroke-miterlimit="10" stroke-dasharray="" stroke-dashoffset="0" style="mix-blend-mode: normal"><path d="M-105.05145,360.47947v-363h703.36103v363z" fill="url(#color-1)" stroke="none" stroke-width="0" stroke-linecap="butt"/><path d="M281.13804,217.01769l65.61784,41.17198l45.03184,39.88535l-7.71974,-57.89809l-15.43949,-34.73885l-28.30573,-42.4586l-21.87261,-33.45223l34.73886,24.44586l11.57962,18.01274l20.58598,-38.59872l28.30573,-42.4586l-9.00637,27.01911l-21.87261,52.75159l20.58599,48.89172l20.58598,-46.31847l1.28662,-25.73248l9.00637,-48.89172l5.1465,27.01911l5.1465,46.31847l20.58598,-21.87261l18.01274,-12.86624l-10.293,15.43949l-34.73885,56.61146l-10.293,52.7516l3.85987,102.92994l-48.89172,-2.57325l-1.28662,-36.02548l-29.59236,-36.02548z" fill="#272d29" stroke="#25302a" stroke-width="1" stroke-linecap="round"/><path d="M273.3737,338.35527l-29.59236,36.02548l-1.28662,36.02548l-48.89172,2.57325l3.85987,-102.92993l-10.29299,-52.7516l-34.73885,-56.61146l-10.29299,-15.43949l18.01274,12.86624l20.58598,21.87261l5.1465,-46.31847l5.14649,-27.01911l9.00637,48.89172l1.28663,25.73248l20.58598,46.31847l20.58599,-48.89172l-21.87261,-52.75159l-9.00637,-27.01911l28.30574,42.4586l20.58598,38.59873l11.57962,-18.01274l34.73886,-24.44586l-21.87261,33.45223l-28.30573,42.4586l-15.43949,34.73885l-7.71974,57.89809l45.03184,-39.88535l65.61784,-41.17198z" data-paper-data="{&quot;index&quot;:null}" fill="#272d29" stroke="#23332a" stroke-width="1" stroke-linecap="round"/><path d="M-28.86196,209.61863l65.61784,42.67432l45.03185,41.34075l-7.71975,-60.01076l-15.43949,-36.00646l-28.30573,-44.00789l-21.87262,-34.67289l34.73886,25.33788l11.57962,18.67002l20.58599,-40.00717l28.30574,-44.0079l-9.00637,28.00503l-21.87261,54.67648l20.58599,50.67575l20.58599,-48.00861l1.28663,-26.67145l9.00637,-50.67576l5.1465,28.00503l5.1465,48.00861l20.58598,-22.67073l18.01274,-13.33573l-10.29299,16.00287l-34.73885,58.6772l-10.29299,54.67647l3.85987,106.68581l-48.89172,-2.66715l-1.28662,-37.34003l-29.59236,-37.34003z" fill="#272d29" stroke="#23332a" stroke-width="1" stroke-linecap="round"/><g stroke="none" stroke-width="1" stroke-linecap="butt"><path d="M322.90578,25.32221c14.72903,0 28.07617,4.18193 37.74106,10.93792c9.66489,6.75599 15.64753,16.08603 15.64753,26.38226c0,10.29623 -5.98263,19.62627 -15.64753,26.38226c-9.66489,6.75599 -23.01203,10.93792 -37.74106,10.93792c-14.72903,0 -28.07618,-4.18193 -37.74107,-10.93792c-9.66489,-6.75599 -15.64752,-16.08603 -15.64752,-26.38225c0,-10.29623 5.98263,-19.62627 15.64752,-26.38226c9.66489,-6.75599 23.01204,-10.93792 37.74107,-10.93792z" fill="#43345e"/><path d="M389.25279,8.73552c14.72903,0 28.07618,4.18193 37.74107,10.93792c9.66489,6.75599 15.64752,16.08603 15.64752,26.38226c0,10.29623 -5.98263,19.62627 -15.64752,26.38226c-9.66489,6.75599 -23.01204,10.93792 -37.74107,10.93792c-14.72903,0 -28.07618,-4.18193 -37.74107,-10.93792c-9.66489,-6.75599 -15.64752,-16.08603 -15.64752,-26.38226c0,-10.29622 5.98263,-19.62627 15.64752,-26.38225c9.66489,-6.75599 23.01204,-10.93792 37.74107,-10.93792z" fill="#43345e"/><path d="M339.49255,51.49822c0,0 -0.52248,5.31502 -1.36737,7.14474c-0.84385,1.82972 -2.01011,2.96281 -3.29765,2.96281c-1.28754,0 -2.4538,-1.13308 -3.29765,-2.96281c-0.84489,-1.82972 -1.36737,-4.35609 -1.36737,-7.14474c0,-2.78865 1.36737,-7.14474 1.36737,-7.14474z" data-paper-data="{&quot;origPos&quot;:null}" fill="#000000"/><path d="M359.89528,43.83514c0,0 1.36737,4.3561 1.36737,7.14475c0,2.78865 -0.52248,5.31502 -1.36737,7.14474c-0.84385,1.82972 -2.01011,2.9628 -3.29765,2.9628c-1.28754,0 -2.4538,-1.13308 -3.29765,-2.9628c-0.84489,-1.82972 -1.36737,-7.14474 -1.36737,-7.14474z" data-paper-data="{&quot;origPos&quot;:null}" fill="#000000"/></g><g data-paper-data="{&quot;index&quot;:null}" stroke="none" stroke-width="1" stroke-linecap="butt"><path d="M162.25278,-3.67776c14.72903,0 28.07618,4.18193 37.74107,10.93792c9.66489,6.75599 15.64752,16.08603 15.64752,26.38226c0,10.29622 -5.98263,19.62626 -15.64752,26.38225c-9.66489,6.75599 -23.01204,10.93792 -37.74107,10.93792c-14.72903,0 -28.07617,-4.18193 -37.74106,-10.93792c-9.6649,-6.75599 -15.64753,-16.08603 -15.64753,-26.38226c0,-10.29623 5.98264,-19.62627 15.64753,-26.38226c9.66489,-6.75599 23.01203,-10.93792 37.74106,-10.93792z" fill="#43345e"/><path d="M95.9058,-20.26447c14.72903,0 28.07618,4.18193 37.74107,10.93792c9.66489,6.75598 15.64752,16.08603 15.64752,26.38225c0,10.29623 -5.98263,19.62627 -15.64752,26.38226c-9.66489,6.75599 -23.01204,10.93792 -37.74107,10.93792c-14.72903,0 -28.07618,-4.18193 -37.74107,-10.93792c-9.66489,-6.75599 -15.64752,-16.08603 -15.64752,-26.38226c0,-10.29623 5.98263,-19.62627 15.64752,-26.38226c9.66489,-6.75599 23.01204,-10.93792 37.74107,-10.93792z" fill="#43345e"/><path d="M153.62871,15.35346c0,0 1.36737,4.35609 1.36737,7.14474c0,2.78865 -0.52248,5.31502 -1.36737,7.14474c-0.84385,1.82973 -2.01011,2.96281 -3.29765,2.96281c-1.28754,0 -2.4538,-1.13309 -3.29765,-2.96281c-0.84489,-1.82972 -1.36737,-7.14474 -1.36737,-7.14474z" data-paper-data="{&quot;origPos&quot;:null}" fill="#000000"/><path d="M133.22598,21.97988c0,0 -0.52248,5.31502 -1.36737,7.14474c-0.84385,1.82972 -2.01011,2.9628 -3.29765,2.9628c-1.28754,0 -2.4538,-1.13308 -3.29765,-2.9628c-0.84489,-1.82972 -1.36737,-4.35609 -1.36737,-7.14474c0,-2.78865 1.36737,-7.14475 1.36737,-7.14475z" data-paper-data="{&quot;origPos&quot;:null}" fill="#000000"/></g><path d="M602.64199,373.06446l-29.59236,36.02548l-1.28662,36.02548l-48.89172,2.57325l3.85987,-102.92993l-10.29299,-52.7516l-34.73885,-56.61146l-10.29299,-15.43949l18.01274,12.86624l20.58598,21.87261l5.1465,-46.31847l5.14649,-27.01911l9.00637,48.89172l1.28663,25.73248l20.58598,46.31847l20.58599,-48.89172l-21.87261,-52.75159l-9.00637,-27.01911l28.30574,42.4586l20.58598,38.59873l11.57962,-18.01274l34.73886,-24.44586l-21.87261,33.45223l-28.30573,42.4586l-15.43949,34.73885l-7.71974,57.89809l45.03184,-39.88535l65.61784,-41.17198z" data-paper-data="{&quot;index&quot;:null}" fill="#272d29" stroke="#23332a" stroke-width="1" stroke-linecap="round"/><path d="M-193.69684,281.90325l65.61784,41.17198l45.03184,39.88535l-7.71974,-57.89809l-15.43949,-34.73885l-28.30573,-42.4586l-21.87261,-33.45223l34.73886,24.44586l11.57962,18.01274l20.58598,-38.59873l28.30574,-42.4586l-9.00637,27.01911l-21.87261,52.75159l20.58599,48.89172l20.58598,-46.31847l1.28663,-25.73248l9.00637,-48.89172l5.14649,27.01911l5.1465,46.31847l20.58598,-21.87261l18.01274,-12.86624l-10.29299,15.43949l-34.73885,56.61146l-10.29299,52.7516l3.85987,102.92993l-48.89172,-2.57325l-1.28662,-36.02548l-29.59236,-36.02548z" data-paper-data="{&quot;index&quot;:null}" fill="#272d29" stroke="#23332a" stroke-width="1" stroke-linecap="round"/><g data-paper-data="{&quot;index&quot;:null}" stroke="none" stroke-width="1" stroke-linecap="butt"><path d="M-121.73022,34.78377c14.72903,0 28.07617,4.18193 37.74106,10.93792c9.66489,6.75599 15.64753,16.08603 15.64753,26.38226c0,10.29623 -5.98263,19.62627 -15.64753,26.38226c-9.66489,6.75599 -23.01203,10.93792 -37.74106,10.93792c-14.72903,0 -28.07618,-4.18193 -37.74107,-10.93792c-9.66489,-6.75599 -15.64752,-16.08603 -15.64752,-26.38225c0,-10.29623 5.98263,-19.62627 15.64752,-26.38226c9.66489,-6.75599 23.01204,-10.93792 37.74107,-10.93792z" fill="#43345e"/><path d="M-55.38323,18.19706c14.72903,0 28.07618,4.18193 37.74107,10.93792c9.66489,6.75599 15.64752,16.08603 15.64752,26.38226c0,10.29623 -5.98263,19.62627 -15.64752,26.38226c-9.66489,6.75599 -23.01204,10.93792 -37.74107,10.93792c-14.72903,0 -28.07618,-4.18193 -37.74107,-10.93792c-9.66489,-6.75599 -15.64752,-16.08603 -15.64752,-26.38226c0,-10.29622 5.98263,-19.62627 15.64752,-26.38225c9.66489,-6.75599 23.01204,-10.93792 37.74107,-10.93792z" fill="#43345e"/><path d="M-105.14347,60.95974c0,0 -0.52248,5.31502 -1.36737,7.14474c-0.84385,1.82972 -2.01011,2.96281 -3.29765,2.96281c-1.28754,0 -2.4538,-1.13308 -3.29765,-2.96281c-0.84489,-1.82972 -1.36737,-4.35609 -1.36737,-7.14474c0,-2.78865 1.36737,-7.14474 1.36737,-7.14474z" data-paper-data="{&quot;origPos&quot;:null}" fill="#000000"/><path d="M-84.74074,53.29667c0,0 1.36737,4.3561 1.36737,7.14475c0,2.78865 -0.52248,5.31502 -1.36737,7.14474c-0.84385,1.82972 -2.01011,2.9628 -3.29765,2.9628c-1.28754,0 -2.4538,-1.13308 -3.29765,-2.9628c-0.84489,-1.82972 -1.36737,-7.14474 -1.36737,-7.14474z" data-paper-data="{&quot;origPos&quot;:null}" fill="#000000"/></g><g stroke="none" stroke-width="1" stroke-linecap="butt"><path d="M556.48929,44.08394c14.72903,0 28.07617,4.18193 37.74106,10.93792c9.66489,6.75599 15.64753,16.08603 15.64753,26.38226c0,10.29623 -5.98263,19.62627 -15.64753,26.38226c-9.66489,6.75599 -23.01203,10.93792 -37.74106,10.93792c-14.72903,0 -28.07618,-4.18193 -37.74107,-10.93792c-9.66489,-6.75599 -15.64752,-16.08603 -15.64752,-26.38225c0,-10.29623 5.98263,-19.62627 15.64752,-26.38226c9.66489,-6.75599 23.01204,-10.93792 37.74107,-10.93792z" fill="#43345e"/><path d="M622.83628,27.49725c14.72903,0 28.07618,4.18193 37.74107,10.93792c9.66489,6.75599 15.64752,16.08603 15.64752,26.38226c0,10.29623 -5.98263,19.62627 -15.64752,26.38226c-9.66489,6.75599 -23.01204,10.93792 -37.74107,10.93792c-14.72903,0 -28.07618,-4.18193 -37.74107,-10.93792c-9.66489,-6.75599 -15.64752,-16.08603 -15.64752,-26.38226c0,-10.29622 5.98263,-19.62627 15.64752,-26.38225c9.66489,-6.75599 23.01204,-10.93792 37.74107,-10.93792z" fill="#43345e"/><path d="M573.07602,70.25995c0,0 -0.52248,5.31502 -1.36737,7.14474c-0.84385,1.82972 -2.01011,2.96281 -3.29765,2.96281c-1.28754,0 -2.4538,-1.13308 -3.29765,-2.96281c-0.84489,-1.82972 -1.36737,-4.35609 -1.36737,-7.14474c0,-2.78865 1.36737,-7.14474 1.36737,-7.14474z" data-paper-data="{&quot;origPos&quot;:null}" fill="#000000"/><path d="M593.47876,62.59687c0,0 1.36737,4.3561 1.36737,7.14475c0,2.78865 -0.52248,5.31502 -1.36737,7.14474c-0.84385,1.82972 -2.01011,2.9628 -3.29765,2.9628c-1.28754,0 -2.4538,-1.13308 -3.29765,-2.9628c-0.84489,-1.82972 -1.36737,-7.14474 -1.36737,-7.14474z" data-paper-data="{&quot;origPos&quot;:null}" fill="#000000"/></g><path d="M-108.74188,-35.16764h708.86572v352.22139h-708.86572z" data-paper-data="{&quot;index&quot;:null}" fill="url(#color-2)" stroke="none" stroke-width="1.22826" stroke-linecap="butt"/><path d="M-108.74188,-35.16766h708.86572v440.4015h-708.86572z" fill="url(#color-3)" stroke="none" stroke-width="1.22826" stroke-linecap="butt"/></g></g></svg>