<svg version="1.1" xmlns="http://www.w3.org/2000/svg" xmlns:xlink="http://www.w3.org/1999/xlink" width="89.95474" height="156.2429" viewBox="0,0,89.95474,156.2429"><defs><linearGradient x1="245.49375" y1="110.56731" x2="242.39162" y2="179.69405" gradientUnits="userSpaceOnUse" id="color-1"><stop offset="0" stop-color="#6f18b4"/><stop offset="1" stop-color="#6a17af"/></linearGradient><linearGradient x1="258.09846" y1="113.01776" x2="256.57793" y2="146.90054" gradientUnits="userSpaceOnUse" id="color-2"><stop offset="0" stop-color="#8328ce"/><stop offset="1" stop-color="#6a17af"/></linearGradient><linearGradient x1="236.41588" y1="112.72623" x2="234.89313" y2="146.65867" gradientUnits="userSpaceOnUse" id="color-3"><stop offset="0" stop-color="#8328ce"/><stop offset="1" stop-color="#6a17af"/></linearGradient><linearGradient x1="223.32097" y1="59.03413" x2="289.5645" y2="59.03413" gradientUnits="userSpaceOnUse" id="color-4"><stop offset="0" stop-color="#de5112"/><stop offset="1" stop-color="#b7430f"/></linearGradient></defs><g transform="translate(-199.65742,-23.48383)"><g data-paper-data="{&quot;isPaintingLayer&quot;:true}" fill-rule="nonzero" stroke-linejoin="miter" stroke-miterlimit="10" stroke-dasharray="" stroke-dashoffset="0" style="mix-blend-mode: normal"><g data-paper-data="{&quot;index&quot;:null,&quot;origRot&quot;:0}" stroke="none" stroke-width="0" stroke-linecap="butt"><path d="M259.86397,117.3729c3.10818,-0.9187 5.75278,-1.22475 10.22961,5.66112c2.86561,4.40763 6.46825,22.08714 6.46825,22.08714l6.78784,15.6202l-15.24596,4.69722l-4.3614,-16.15401c0,0 -5.04929,-11.46301 -5.96388,-14.55726c-2.75914,-9.33479 -3.01218,-15.84763 2.08553,-17.35441z" data-paper-data="{&quot;origRot&quot;:0,&quot;origPos&quot;:null}" fill="#ff5e15"/><g data-paper-data="{&quot;origPos&quot;:null}" fill="#ffffff" font-family="&quot;Helvetica Neue&quot;, Helvetica, Arial, sans-serif" font-weight="400" font-size="16" text-anchor="start"/></g><g><path d="M268.39815,141.64081c-0.86189,27.43869 2.13927,39.56027 -28.3996,37.94354c-6.93918,-0.4019 -10.91855,0.28505 -14.02267,-2.84191c-3.77153,-3.79928 -3.11524,-9.65626 -3.80013,-16.02059c-0.42809,-3.97798 -2.83687,-8.45915 -2.68607,-11.81945c0.64073,-14.27769 0.28832,-26.0057 8.70153,-34.74179c6.26809,-6.50864 12.60399,-3.05894 20.33679,-2.71954c14.2993,0.6276 20.71501,3.30369 19.87016,30.19973z" fill="url(#color-1)" stroke="none" stroke-width="0" stroke-linecap="butt"/><path d="M268.6684,140.87406c0,0 -16.35128,1.87769 -27.8195,1.89342c-10.51913,0.01442 -20.89192,-5.32907 -20.89192,-5.32907c0,0 -0.12697,-17.90793 7.68959,-24.52612c5.11414,-4.33008 10.70294,-5.57633 17.80763,-5.49918c7.10469,0.07716 14.68437,3.4204 18.07703,7.55713c8.01381,9.77143 5.13718,25.90382 5.13718,25.90382z" fill="#ff5e15" stroke="none" stroke-width="0" stroke-linecap="butt"/><path d="M253.1677,113.59255c0,0 3.49831,8.47758 4.61254,14.02061c1.11423,5.54303 0.9076,21.35798 0.9076,21.35798" data-paper-data="{&quot;origRot&quot;:0}" fill="none" stroke="url(#color-2)" stroke-width="10" stroke-linecap="round"/><path d="M233.62054,114.97712c0,0 2.02505,7.71931 2.91726,12.67565c0.89221,4.95634 0.69982,20.69119 0.69982,20.69119" fill="none" stroke="url(#color-3)" stroke-width="10" stroke-linecap="round"/><path d="M259.59214,151.99099l-2.03458,-3.5681l-4.30592,-1.71664l4.12357,-1.86344l1.6718,-4.07022l1.78041,3.99101l3.98256,1.30385l-3.59781,2.18689z" data-paper-data="{&quot;origRot&quot;:0,&quot;index&quot;:null}" fill="#ffe84f" stroke="none" stroke-width="NaN" stroke-linecap="butt"/><path d="M236.32173,152.21721l-1.61203,-3.77785l-4.08069,-2.19904l4.31005,-1.37833l2.12746,-3.8517l1.31105,4.16884l3.80679,1.75191l-3.82483,1.75993z" data-paper-data="{&quot;origRot&quot;:0,&quot;index&quot;:null}" fill="#ffe84f" stroke="none" stroke-width="NaN" stroke-linecap="butt"/></g><g stroke="none" stroke-width="0" stroke-linecap="butt"><path d="M218.89835,166.81596l-17.96231,-4.39501l7.80508,-16.12915c0,0 2.2522,-9.22379 2.79808,-11.61646c2.16515,-9.49017 10.41845,-19.73359 15.60102,-18.55119c5.18257,1.18239 5.76773,5.99878 3.60258,15.48895l-7.75154,18.47739z" data-paper-data="{&quot;origRot&quot;:0,&quot;origPos&quot;:null}" fill="#ff5e15"/><g data-paper-data="{&quot;origPos&quot;:null}" fill="#ffffff" font-family="&quot;Helvetica Neue&quot;, Helvetica, Arial, sans-serif" font-weight="400" font-size="16" text-anchor="start"/></g><path d="M275.01767,35.14738c2.39648,14.94461 -0.49216,15.79448 -8.52168,20.57884c-11.69967,6.97121 -27.00365,6.10539 -39.50062,11.51887c-3.28137,1.42143 -11.64483,-2.57762 -15.22084,-2.57762c-7.31398,0 -11.44089,-5.22725 -11.74313,-11.45342c-0.66666,-13.7335 6.09582,-13.78676 13.4098,-13.78676c0,0 8.04926,1.33414 10.82961,5.60456c0,0 11.19763,-18.21899 23.00151,-20.46979c15.1949,-2.89741 26.02437,-0.14688 27.74535,10.58532z" fill="#ff5e15" stroke="none" stroke-width="0" stroke-linecap="butt"/><path d="M232.65937,112.04069c-1.67042,0.95629 -3.5316,1.48998 -5.49366,1.48998c-7.22573,0 -13.08333,-7.23806 -13.08333,-16.16667c0,-2.83492 0.59052,-5.49942 1.62786,-7.81591c2.22976,-4.97932 21.43042,19.92712 16.94913,22.4926z" fill="#e7be7a" stroke="none" stroke-width="0" stroke-linecap="butt"/><path d="M289.12371,62.17274c-0.56793,3.79329 -11.88999,8.6 -20.8,8.6c-7.1797,0 -5.39999,-6.75492 -5.39999,-10.4c0,-3.64508 14.0703,-2.85 21.25,-2.85c7.1797,0 5.31761,2.19464 4.95,4.65z" fill="#b7430f" stroke="none" stroke-width="0" stroke-linecap="butt"/><g data-paper-data="{&quot;index&quot;:null}"><path d="M269.88278,91.57904l-0.16667,11.66667c0,0 -11.55678,1.66666 -16.5,1.66666c-5.05432,0 -15.33334,-0.83333 -15.33334,-0.83333v-11.16667z" fill="#ffffff" stroke="none" stroke-width="0" stroke-linecap="butt"/><path d="M263.04943,103.41239v-9.33333" fill="none" stroke="#a5b5ff" stroke-width="2" stroke-linecap="round"/><path d="M255.38277,94.07905v9.83333" fill="none" stroke="#a5b5ff" stroke-width="2" stroke-linecap="round"/><path d="M247.21611,94.4124v9.5" fill="none" stroke="#a5b5ff" stroke-width="2" stroke-linecap="round"/></g><g><path d="M238.54944,113.9124v-11.16667c0,0 10.27902,-0.83333 15.33333,-0.83333c4.94322,0 14.66666,0.83333 14.66666,0.83333l-0.16667,8.66667z" fill="#ffffff" stroke="none" stroke-width="0" stroke-linecap="butt"/><path d="M263.71611,112.74573v-9.33333" fill="none" stroke="#a5b5ff" stroke-width="2" stroke-linecap="round"/><path d="M256.04944,112.74573v-9.83333" fill="none" stroke="#a5b5ff" stroke-width="2" stroke-linecap="round"/><path d="M247.88278,112.4124v-9.5" fill="none" stroke="#a5b5ff" stroke-width="2" stroke-linecap="round"/></g><path d="M216.05752,63.44551c5.58919,1.38715 7,3.8 7,3.8l24,-5l21.6,-0.2c0,0 0.106,10.59409 0.39999,16.3c0.06657,1.29206 0.81399,0.91075 1.70767,2.14466c0.8937,1.23391 1.65037,2.7708 2.00281,2.87831c4.96717,1.51529 5.86057,3.64265 5.8895,5.27703c0.11336,6.40216 -6.2,8.6 -6.2,8.6l-29.6,1.4l-3.4,3.4l-0.4,11.2c0,0 3.34533,-1.68801 6.02422,-1.91864c5.36655,-0.46202 24.17578,-0.68136 24.17578,-0.68136c0,0 0.08012,4.86496 -4,5.8c-4.93431,1.13079 -28.20667,1.41553 -33.8,-1.6c-2.9973,-1.61594 -4.46924,-2.4986 -6.19375,-5.90182c-1.1358,-2.24142 -0.09879,-3.01586 -0.89737,-5.46851c-0.6598,-2.02643 -2.766,-4.09575 -3.63374,-6.08819c-1.28142,-2.94229 -1.27893,-5.68075 -1.47514,-5.74148c-0.99168,-0.30692 -3.85974,-0.50017 -4.74021,-0.92387c-4.25236,-2.04631 -8.31456,-7.45172 -10.82724,-11.93544c-2.76256,-4.92962 -3.77735,-9.10004 -4.03255,-14.74069c-0.03149,-0.69599 10.51135,-1.34829 16.4,-0.6z" fill="#ffdebd" stroke="#000000" stroke-width="0" stroke-linecap="round"/><path d="M256.08465,76.23478c-0.30002,5.45731 -1.82192,6.13636 -7.59091,6.04546c-4.04122,-0.06368 -6.8134,-2.66439 -7.04546,-6.04546c-0.36363,-5.29811 3.27646,-6.13636 7.31818,-6.13636c4.04172,0 7.62102,0.62793 7.31819,6.13636z" fill="#ffffff" stroke="none" stroke-width="0" stroke-linecap="butt"/><path d="M268.35736,71.58487c-0.02215,2.45779 0.16567,6.00599 -3.40909,5.87712c-3.99061,-0.14386 -4.54067,-0.39875 -6.22728,-4.21116c-2.90909,-6.04179 3.1019,-5.79781 4.59091,-5.96967c3.69968,-0.427 5.0676,1.84592 5.04546,4.30371z" data-paper-data="{&quot;index&quot;:null}" fill="#ffffff" stroke="none" stroke-width="0" stroke-linecap="butt"/><path d="M245.09648,81.40499c0,0 -4.58156,0.16782 -4.00535,-7.04256c0.37347,-4.67343 6.356,-4.04835 6.356,-4.04835" fill="none" stroke="#18c6ff" stroke-width="2" stroke-linecap="round"/><path d="M262.36434,67.53137c0,0 4.14623,-0.71276 5.42823,1.539c2.39935,4.21426 -0.10862,7.37765 -0.10862,7.37765" fill="none" stroke="#18c6ff" stroke-width="2" stroke-linecap="round"/><path d="M253.8592,74.51823c0.63366,0 1.20715,0.25671 1.62286,0.67204c0.41579,0.4144 0.67288,0.98742 0.67288,1.62c0,0.63259 -0.25711,1.20562 -0.67288,1.62001c-0.4157,0.41532 -0.9892,0.67204 -1.62286,0.67204c-0.63358,0 -1.20709,-0.25671 -1.62286,-0.67204c-0.4157,-0.4144 -0.67281,-0.98743 -0.67281,-1.62001c0,-0.63259 0.25711,-1.20561 0.67281,-1.62c0.41579,-0.41532 0.98928,-0.67204 1.62286,-0.67204z" data-paper-data="{&quot;index&quot;:null}" fill="#000000" stroke="none" stroke-width="1.05702" stroke-linecap="butt"/><path d="M265.78355,72.40428c0.54842,0 1.04476,0.22217 1.40456,0.58165c0.35986,0.35865 0.58237,0.8546 0.58237,1.40209c0,0.54751 -0.22251,1.04343 -0.58237,1.40208c-0.35978,0.35947 -0.85613,0.58166 -1.40456,0.58166c-0.54837,0 -1.04473,-0.22218 -1.40458,-0.58166c-0.35977,-0.35865 -0.58232,-0.85459 -0.58232,-1.40208c0,-0.54751 0.22251,-1.04344 0.58232,-1.40209c0.35986,-0.35947 0.8562,-0.58165 1.40458,-0.58165z" data-paper-data="{&quot;index&quot;:null}" fill="#000000" stroke="none" stroke-width="1.05702" stroke-linecap="butt"/><path d="M230.91571,79.364c-0.64374,0.86538 -2.0893,-0.29799 -3.47379,-2.54087c-0.40721,-0.65969 -0.99152,-1.86997 -1.61462,-3.25262c-0.69344,-0.28197 -1.86875,-0.98405 -2.42213,-2.49166c-0.78363,-2.13487 -0.45914,-4.12394 -0.45914,-4.12394l6.80302,-2.75757c0,0 0.46053,3.93362 0.88758,7.80899c0.37228,3.37832 0.75911,6.71238 0.27909,7.35767z" fill="#e7be7a" stroke="#000000" stroke-width="0" stroke-linecap="round"/><path d="M233.58237,101.03068c-0.61285,-0.41328 3.5,-3.33333 3.5,-3.33333c0,0 4.69323,-0.58958 7.18802,-1.61469c3.05813,-1.25658 4.98736,-2.83337 8.81198,-2.88531c3.2991,-0.04481 4.58439,1.57132 7.23147,2.46754c2.92512,0.99035 7.14463,1.28588 9.38221,1.58955c2.42896,0.32964 5.88632,-1.89043 5.88632,-1.89043c0,0 0.91607,4.51818 -1.83333,4.83333c-3.03617,0.34802 -6.49762,0.55102 -10.34276,0.38428c-3.45928,-0.15 -7.29264,-0.82948 -10.31765,-0.71661c-5.67436,0.21171 -9.19948,1.18213 -12.65789,1.49728c-3.12588,0.28485 -6.44134,-0.05713 -6.84835,-0.33162z" fill="#e7be7a" stroke="#000000" stroke-width="0" stroke-linecap="round"/><path d="M205.54943,69.57907c14.81513,-0.88784 18.2554,19.68672 7.16667,14.66667" fill="none" stroke="#f6b09a" stroke-width="3.5" stroke-linecap="round"/><path d="M217.7161,79.4124c-2.25365,0.81103 -7.66666,-0.5 -7.66666,-0.5" fill="none" stroke="#f6b09a" stroke-width="3" stroke-linecap="round"/><path d="M272.12371,43.67274c0,5.46762 -1.46317,9.58116 -12.2,9.9c-11.33464,0.33659 -12.2,-4.43238 -12.2,-9.9c0,-5.46762 5.46212,-9.9 12.2,-9.9c6.73787,0 12.2,4.43238 12.2,9.9z" fill="#ffffff" stroke="none" stroke-width="0" stroke-linecap="butt"/><path d="M289.52371,60.07274c-0.10146,0.43553 -10.22592,0.3521 -21.60818,2.04523c-5.57466,0.82924 -10.95104,0.85997 -14.59937,3.5017c-4.19793,3.0397 -30.53694,2.13845 -30.35609,1.36215c0.73933,-3.1735 3.16854,-8.15407 8.26364,-9.80909c6.15716,-2 27.29511,-7.38005 43.10212,-7.1384c6.46182,0.09879 15.93722,6.8649 15.19789,10.0384z" fill="url(#color-4)" stroke="none" stroke-width="0" stroke-linecap="butt"/><path d="M265.12593,38.76446c0.6657,1.62584 -3.86912,5.71927 -4.8184,6.84002c-0.16406,0.1937 -0.67201,0.28073 -0.56926,0.51069c0.2127,0.47603 9.77976,-1.41007 5.63926,2.60271c-1.30541,1.26515 -8.46884,0.94671 -9.18272,-1.4299c-0.97165,-3.23481 5.4425,-5.57134 5.12489,-7.52626c-0.06628,-0.40801 -2.92366,0.7255 -4.50708,1.33739c-0.26353,0.22259 -0.60807,0.35741 -0.9851,0.35741c-0.82843,0 -1.5,-0.65086 -1.5,-1.45373c0,-0.18693 0.03641,-0.36561 0.10271,-0.52976c1.03092,-2.81351 9.45143,-3.74746 10.69569,-0.70856z" fill="#6f18b4" stroke="none" stroke-width="0.5" stroke-linecap="butt"/><path d="M268.81166,63.33767c0,0 -3.16125,0.27525 -4.87852,1.07664c-2.3604,1.10152 -7.97862,4.92336 -7.97862,4.92336c0,0 -4.02862,-1.28998 -6.48613,-1.91743c-1.83281,-0.46795 -6.94244,-1.51114 -6.94244,-1.51114" fill="none" stroke="#000000" stroke-width="3" stroke-linecap="round"/><g stroke="none" stroke-width="0" stroke-linecap="butt"><path d="M278.80638,88.34785c-0.49003,4.03597 1.10495,8.94318 -12.98598,8.69816c-5.45105,-0.0948 -16.57196,-0.9685 -16.46865,-5.46171c0.07504,-3.26312 3.72767,-2.96341 3.72767,-4.46155c0,-5.7511 3.325,-9.17375 9.80075,-9.67824c3.31011,-0.73506 16.71019,4.93678 15.92621,10.90333z" data-paper-data="{&quot;origPos&quot;:null}" fill="#f991fd"/><path d="M275.64839,87.38388c-0.55534,1.94368 -3.49341,2.80852 -6.56237,1.93167c-3.06896,-0.87685 -5.10666,-3.16333 -4.55132,-5.10701c0.55534,-1.94367 3.49341,-2.80851 6.56238,-1.93167c3.06896,0.87685 5.10666,3.16333 4.55132,5.10701z" data-paper-data="{&quot;origRot&quot;:0,&quot;origPos&quot;:null}" fill="#faaefc"/></g></g></g></svg>