<svg version="1.1" xmlns="http://www.w3.org/2000/svg" xmlns:xlink="http://www.w3.org/1999/xlink" width="708.53101" height="504.90619" viewBox="0,0,708.53101,504.90619"><defs><linearGradient x1="29.33174" y1="-17.74166" x2="29.33174" y2="374.37841" gradientUnits="userSpaceOnUse" id="color-1"><stop offset="0" stop-color="#805c39"/><stop offset="1" stop-color="#674521"/></linearGradient><linearGradient x1="30.8369" y1="-26.39924" x2="30.8369" y2="382.98469" gradientUnits="userSpaceOnUse" id="color-2"><stop offset="0" stop-color="#000000" stop-opacity="0.2"/><stop offset="1" stop-color="#000000" stop-opacity="0.8"/></linearGradient><radialGradient cx="79.75981" cy="180.00012" r="180.93093" gradientUnits="userSpaceOnUse" id="color-3"><stop offset="0" stop-color="#ececec"/><stop offset="1" stop-color="#616161"/></radialGradient><linearGradient x1="62.11716" y1="180.00012" x2="97.40246" y2="180.00012" gradientUnits="userSpaceOnUse" id="color-4"><stop offset="0" stop-color="#ececec" stop-opacity="0"/><stop offset="1" stop-color="#ececec"/></linearGradient><radialGradient cx="559.20783" cy="238.00012" r="185.74112" gradientUnits="userSpaceOnUse" id="color-5"><stop offset="0" stop-color="#ececec"/><stop offset="1" stop-color="#616161"/></radialGradient><linearGradient x1="577.3195" y1="238.00012" x2="541.09614" y2="238.00012" gradientUnits="userSpaceOnUse" id="color-6"><stop offset="0" stop-color="#ececec" stop-opacity="0"/><stop offset="1" stop-color="#ececec"/></linearGradient><linearGradient x1="319.11206" y1="-60.21624" x2="319.11206" y2="47.89187" gradientUnits="userSpaceOnUse" id="color-7"><stop offset="0" stop-color="#888888"/><stop offset="1" stop-color="#888888" stop-opacity="0"/></linearGradient><linearGradient x1="409.16786" y1="-83.40265" x2="395.18423" y2="24.0212" gradientUnits="userSpaceOnUse" id="color-8"><stop offset="0" stop-color="#888888"/><stop offset="1" stop-color="#888888" stop-opacity="0"/></linearGradient><linearGradient x1="243.98283" y1="-83.40265" x2="257.29974" y2="24.0212" gradientUnits="userSpaceOnUse" id="color-9"><stop offset="0" stop-color="#888888"/><stop offset="1" stop-color="#888888" stop-opacity="0"/></linearGradient></defs><g transform="translate(21.05572,110.72766)"><g data-paper-data="{&quot;isPaintingLayer&quot;:true}" fill-rule="nonzero" stroke-linecap="butt" stroke-linejoin="miter" stroke-miterlimit="10" stroke-dasharray="" stroke-dashoffset="0" style="mix-blend-mode: normal"><g data-paper-data="{&quot;index&quot;:null}" fill-opacity="0.00392" fill="#000000" stroke="none" stroke-width="0"><path d="M643.34754,360.93106v-245.86186h-66.02803v245.86186z"/><path d="M643.34754,360.93106v-245.86186h-66.02803v245.86186z"/></g><path d="M-8.79921,374.37841v-392.12007h76.26188v392.12007z" fill="url(#color-1)" stroke="none" stroke-width="0"/><path d="M-6.2906,382.98469v-409.38393h74.25499v409.38393z" fill="url(#color-2)" stroke="none" stroke-width="0"/><path d="M95.937,330.12307v-36c0,0 156.00298,21 231,21c74.33036,0 217,-21 217,-21v36z" fill="#674521" stroke="#674521" stroke-width="7"/><path d="M63.99404,51.05117v-126.12613h512.01201v126.12613h-106.64926l-85.45593,71.5h-129l-84.54407,-71.5z" fill="#e9e9e9" stroke="none" stroke-width="NaN"/><g><path d="M149.68406,358.21605v-25.91041h130.29661v25.91041z" fill="#674521" stroke="#4b3318" stroke-width="7"/><path d="M188.25186,390.67853v-25.91041h130.29661v25.91042z" fill="#805c39" stroke="#674521" stroke-width="7"/><path d="M73.43267,358.21605v-25.91041h75.20903v25.91041z" fill="#674521" stroke="#4b3318" stroke-width="7"/><path d="M72.86812,390.67853v-25.91041h114.34136v25.91042z" fill="#805c39" stroke="#674521" stroke-width="7"/><path d="M281.81619,358.21605v-25.91041h130.29661v25.91041z" fill="#674521" stroke="#4b3318" stroke-width="7"/><path d="M320.38399,390.67853v-25.91041h130.29661v25.91042z" fill="#805c39" stroke="#674521" stroke-width="7"/><path d="M413.94834,358.21605v-25.91041h130.29661v25.91041z" fill="#674521" stroke="#4b3318" stroke-width="7"/><path d="M452.51613,390.67853v-25.91041h119.0438v25.91042z" fill="#805c39" stroke="#674521" stroke-width="7"/><g><path d="M69.08222,293.58884v-25.91041h134.80521v25.91041z" fill="#674521" stroke="#4b3318" stroke-width="7"/><path d="M112.15864,326.05127v-25.91041h130.29661v25.91041z" fill="#805c39" stroke="#674521" stroke-width="7"/><g stroke="none"><g fill="none" stroke-width="1" font-family="sans-serif" font-weight="normal" font-size="12" text-anchor="start"/><g fill="#cc1919" stroke-width="NaN"><path d="M231.8985,326.43948v-10.28539h11.9965v10.28539z" stroke-width="NaN"/></g><g fill="#cc1919"><path d="M219.56329,315.68007v-10.28539h11.9965v10.28539z" stroke-width="NaN"/><path d="M207.35259,305.39466v-10.28539h11.9965v10.28539z" stroke-width="NaN"/><path d="M195.01738,295.1135v-10.28539h11.9965v10.28539z" stroke-width="NaN"/><path d="M182.80666,284.82806v-10.28539h11.9965v10.28539z" stroke-width="NaN"/></g><g fill="#cc1919" stroke-width="NaN"><path d="M170.47146,274.5469v-10.28539h11.99649v10.28539z" stroke-width="NaN"/></g></g><path d="M244.75199,326.81811l-112.19337,-93.94925h37.54054l112.4231,94.03034z" fill="#cc1919" stroke="none" stroke-width="0"/><path d="M69.73878,233.03316h99.73574v31h-99.73573z" data-paper-data="{&quot;index&quot;:null}" fill="#cc1919" stroke="none" stroke-width="1"/></g><g data-paper-data="{&quot;index&quot;:null}"><path d="M436.00944,293.58884v-25.91041h134.05656v25.91041z" fill="#674521" stroke="#4b3318" stroke-width="7"/><path d="M397.44164,326.05127v-25.91041h130.29661v25.91041z" fill="#805c39" stroke="#674521" stroke-width="7"/><g stroke="none"><g fill="none" stroke-width="1" font-family="sans-serif" font-weight="normal" font-size="12" text-anchor="start"/><g fill="#cc1919" stroke-width="NaN"><path d="M396.00188,326.43948v-10.28539h11.9965v10.28539z" stroke-width="NaN"/></g><g fill="#cc1919"><path d="M408.3371,315.68007v-10.28539h11.9965v10.28539z" stroke-width="NaN"/><path d="M420.54781,305.39466v-10.28539h11.9965v10.28539z" stroke-width="NaN"/><path d="M432.88302,295.1135v-10.28539h11.9965v10.28539z" stroke-width="NaN"/><path d="M445.09374,284.82806v-10.28539h11.9965v10.28539z" stroke-width="NaN"/></g><g fill="#cc1919" stroke-width="NaN"><path d="M457.42895,274.5469v-10.28539h11.99649v10.28539z" stroke-width="NaN"/></g></g><path d="M357.37463,326.89927l112.4231,-94.03035h37.54054l-112.19337,93.94925z" fill="#cc1919" stroke="none" stroke-width="0"/><path d="M570.1581,264.03314h-99.73573v-31h99.73574z" data-paper-data="{&quot;index&quot;:null}" fill="#cc1919" stroke="none" stroke-width="1"/></g><path d="M244.14419,306.1307h151.21172v31h-151.21171z" data-paper-data="{&quot;index&quot;:null}" fill="#cc1919" stroke="none" stroke-width="1"/></g><path d="M118.0481,175.31188v0h-22.52252v0z" fill="#ececec" stroke="none" stroke-width="0"/><path d="M74.00005,18.67721h487v31h-487z" data-paper-data="{&quot;origPos&quot;:null,&quot;index&quot;:null}" fill="#ececec" stroke="none" stroke-width="1"/><g data-paper-data="{&quot;index&quot;:null}" stroke="none" stroke-width="0"><path d="M62.11716,360.93106v-361.86186h35.28529v361.86186z" fill="url(#color-3)"/><path d="M62.11716,360.93106v-361.86186h35.28529v361.86186z" fill="url(#color-4)"/></g><g data-paper-data="{&quot;index&quot;:null}" stroke="none" stroke-width="0"><path d="M541.09614,360.93106v-245.86186h36.22338v245.86186z" fill="url(#color-5)"/><path d="M541.09614,360.93106v-245.86186h36.22338v245.86186z" fill="url(#color-6)"/></g><path d="M75.8688,47.89187v-108.10811h486.48649v108.10811z" fill="url(#color-7)" stroke="none" stroke-width="0"/><path d="M116.87679,-3.30384l13.98363,-107.42381l556.61488,54.65007l-13.98363,107.42381z" fill="url(#color-8)" stroke="none" stroke-width="0"/><path d="M-7.73878,51.34623l-13.31693,-107.42381l530.07708,-54.65007l13.31693,107.42382z" data-paper-data="{&quot;index&quot;:null}" fill="url(#color-9)" stroke="none" stroke-width="0"/><path d="M385.50005,72.17727v50.5h-43.5v-50.5z" data-paper-data="{&quot;index&quot;:null}" fill="#616161" stroke="none" stroke-width="0"/><path d="M211.86019,36.21325v50.5l-43.5,-37.53754v-50.5z" data-paper-data="{&quot;origPos&quot;:null,&quot;index&quot;:null}" fill="#616161" stroke="none" stroke-width="0"/><path d="M471.8572,-1.32423v50.5l-43.5,37.53754v-50.5z" data-paper-data="{&quot;origPos&quot;:null,&quot;index&quot;:null}" fill="#616161" stroke="none" stroke-width="0"/><path d="M254.89923,22.69079v50.5l-43.5,-37.53754v-50.5z" data-paper-data="{&quot;index&quot;:null}" fill="#616161" stroke="none" stroke-width="0"/><path d="M428.8572,-15.32423v50.5l-43.5,37.53754v-50.5z" data-paper-data="{&quot;index&quot;:null}" fill="#616161" stroke="none" stroke-width="0"/><path d="M298.00005,72.17727v50.5h-43.5v-50.5z" data-paper-data="{&quot;index&quot;:null}" fill="#616161" stroke="none" stroke-width="0"/><path d="M342.00005,21.67728v50.5h-43.5v-50.5z" data-paper-data="{&quot;index&quot;:null}" fill="#616161" stroke="none" stroke-width="0"/><path d="M385.50005,-27.82273v50.5h-43.5v-50.5z" data-paper-data="{&quot;index&quot;:null}" fill="#616161" stroke="none" stroke-width="0"/><path d="M298.00005,-27.82273v50.5h-43.5v-50.5z" data-paper-data="{&quot;index&quot;:null}" fill="#616161" stroke="none" stroke-width="0"/><path d="M560.16972,-1.80171l-19.51952,52.0015h-26.98348v-52.0015z" data-paper-data="{&quot;index&quot;:null}" fill="#616161" stroke="none" stroke-width="0"/><path d="M126.23579,-1.80172v52.0015h-28.48497l-18.01803,-52.0015z" data-paper-data="{&quot;index&quot;:null}" fill="#616161" stroke="none" stroke-width="0"/></g></g></svg>