<svg version="1.1" xmlns="http://www.w3.org/2000/svg" xmlns:xlink="http://www.w3.org/1999/xlink" width="500.64711" height="386.4022" viewBox="0,0,500.64711,386.4022"><defs><linearGradient x1="240.49688" y1="-0.67224" x2="240.49688" y2="359.40957" gradientUnits="userSpaceOnUse" id="color-1"><stop offset="0" stop-color="#031632"/><stop offset="1" stop-color="#1a4777"/></linearGradient><linearGradient x1="240.49688" y1="-0.67224" x2="240.49688" y2="359.40957" gradientUnits="userSpaceOnUse" id="color-2"><stop offset="0" stop-color="#05234d"/><stop offset="1" stop-color="#357abe"/></linearGradient><linearGradient x1="240.49688" y1="-0.67224" x2="240.49688" y2="359.40957" gradientUnits="userSpaceOnUse" id="color-3"><stop offset="0" stop-color="#05234d"/><stop offset="1" stop-color="#357abe"/></linearGradient><linearGradient x1="240.49688" y1="-0.67224" x2="240.49688" y2="359.40957" gradientUnits="userSpaceOnUse" id="color-4"><stop offset="0" stop-color="#05234d"/><stop offset="1" stop-color="#357abe"/></linearGradient><linearGradient x1="240.49688" y1="-0.67224" x2="240.49688" y2="359.40957" gradientUnits="userSpaceOnUse" id="color-5"><stop offset="0" stop-color="#05234d"/><stop offset="1" stop-color="#357abe"/></linearGradient><linearGradient x1="-145.59088" y1="169.4021" x2="-145.59088" y2="363.44618" gradientUnits="userSpaceOnUse" id="color-6"><stop offset="0" stop-color="#69bdff" stop-opacity="0"/><stop offset="1" stop-color="#69bdff"/></linearGradient><linearGradient x1="-145.59088" y1="169.4021" x2="-145.59088" y2="363.44618" gradientUnits="userSpaceOnUse" id="color-7"><stop offset="0" stop-color="#69bdff" stop-opacity="0"/><stop offset="1" stop-color="#69bdff"/></linearGradient><linearGradient x1="-145.59088" y1="169.4021" x2="-145.59088" y2="363.44618" gradientUnits="userSpaceOnUse" id="color-8"><stop offset="0" stop-color="#69bdff" stop-opacity="0"/><stop offset="1" stop-color="#69bdff"/></linearGradient><linearGradient x1="-145.59088" y1="169.4021" x2="-145.59088" y2="363.44618" gradientUnits="userSpaceOnUse" id="color-9"><stop offset="0" stop-color="#69bdff" stop-opacity="0"/><stop offset="1" stop-color="#69bdff"/></linearGradient><linearGradient x1="-150.16341" y1="216.42398" x2="-150.16341" y2="453.7654" gradientUnits="userSpaceOnUse" id="color-10"><stop offset="0" stop-color="#1bd2f2"/><stop offset="1" stop-color="#1d557f"/></linearGradient><radialGradient cx="250.05132" cy="217.04107" r="1011.35517" gradientUnits="userSpaceOnUse" id="color-11"><stop offset="0" stop-color="#bce7f7"/><stop offset="1" stop-color="#1bafe5"/></radialGradient><linearGradient x1="-150.16341" y1="216.42398" x2="-150.16341" y2="453.7654" gradientUnits="userSpaceOnUse" id="color-12"><stop offset="0" stop-color="#1bd2f2"/><stop offset="1" stop-color="#1d557f"/></linearGradient><radialGradient cx="250.05132" cy="217.04107" r="1011.35517" gradientUnits="userSpaceOnUse" id="color-13"><stop offset="0" stop-color="#bce7f7"/><stop offset="1" stop-color="#1bafe5"/></radialGradient><linearGradient x1="-150.16341" y1="216.42398" x2="-150.16341" y2="453.7654" gradientUnits="userSpaceOnUse" id="color-14"><stop offset="0" stop-color="#1bd2f2"/><stop offset="1" stop-color="#1d557f"/></linearGradient><radialGradient cx="250.05132" cy="217.04107" r="1011.35517" gradientUnits="userSpaceOnUse" id="color-15"><stop offset="0" stop-color="#bce7f7"/><stop offset="1" stop-color="#1bafe5"/></radialGradient><linearGradient x1="-145.59088" y1="238.47116" x2="-145.59088" y2="470.65211" gradientUnits="userSpaceOnUse" id="color-16"><stop offset="0" stop-color="#69bdff" stop-opacity="0"/><stop offset="1" stop-color="#69bdff"/></linearGradient><linearGradient x1="239.72487" y1="272.05766" x2="239.72487" y2="371.33078" gradientUnits="userSpaceOnUse" id="color-17"><stop offset="0" stop-color="#6f7173"/><stop offset="1" stop-color="#cedee9"/></linearGradient><linearGradient x1="237.61668" y1="-15.07141" x2="237.61668" y2="289.38975" gradientUnits="userSpaceOnUse" id="color-18"><stop offset="0" stop-color="#b32c2c"/><stop offset="1" stop-color="#731d1d"/></linearGradient></defs><g transform="translate(11.11618,15.07141)"><g data-paper-data="{&quot;isPaintingLayer&quot;:true}" fill-rule="nonzero" stroke-linejoin="miter" stroke-miterlimit="10" stroke-dasharray="" stroke-dashoffset="0" style="mix-blend-mode: normal"><path d="M-9.89738,359.40957c2.77225,-10.49167 1.42888,-358.38768 1.36462,-360.0818h492.75679c0.04177,1.0573 -1.033,360.0818 -1.033,360.0818z" fill="url(#color-1)" stroke="none" stroke-width="1" stroke-linecap="butt"/><path d="" fill="url(#color-2)" stroke="none" stroke-width="1" stroke-linecap="butt"/><path d="" fill="url(#color-3)" stroke="none" stroke-width="1" stroke-linecap="butt"/><path d="" fill="url(#color-4)" stroke="none" stroke-width="1" stroke-linecap="butt"/><path d="" fill="url(#color-5)" stroke="none" stroke-width="1" stroke-linecap="butt"/><path d="" fill="#8ecad1" stroke="none" stroke-width="0.5" stroke-linecap="butt"/><path d="" fill="#8ecad1" stroke="none" stroke-width="0.5" stroke-linecap="butt"/><path d="" fill="#8ecad1" stroke="none" stroke-width="0.5" stroke-linecap="butt"/><path d="" fill="#8ecad1" stroke="none" stroke-width="0.5" stroke-linecap="butt"/><path d="" fill="#8ecad1" stroke="none" stroke-width="0.5" stroke-linecap="butt"/><path d="" fill="#8ecad1" stroke="none" stroke-width="0.5" stroke-linecap="butt"/><path d="" fill="#8ecad1" stroke="none" stroke-width="0.5" stroke-linecap="butt"/><path d="M64.50477,54.14022c0,-0.2762 0.22391,-0.50012 0.50012,-0.50012c0.27621,0 0.50011,0.22391 0.50011,0.50012c0,0.2762 -0.22391,0.50012 -0.50011,0.50012c-0.27621,0 -0.50012,-0.22391 -0.50012,-0.50012z" fill="#c6e9ed" stroke="none" stroke-width="0.5" stroke-linecap="butt"/><path d="M139.52183,101.1509c0,-0.27621 0.22391,-0.50011 0.50011,-0.50011c0.27621,0 0.50012,0.22391 0.50012,0.50011c0,0.27621 -0.22392,0.50012 -0.50012,0.50012c-0.27621,0 -0.50011,-0.22391 -0.50011,-0.50012z" fill="#c6e9ed" stroke="none" stroke-width="0.5" stroke-linecap="butt"/><path d="M91.51098,109.15272c0,-0.27621 0.22391,-0.50012 0.50011,-0.50012c0.27621,0 0.50012,0.22391 0.50012,0.50012c0,0.27621 -0.22391,0.50011 -0.50012,0.50011c-0.27621,0 -0.50011,-0.22391 -0.50011,-0.50011z" fill="#c6e9ed" stroke="none" stroke-width="0.5" stroke-linecap="butt"/><path d="M195.53461,43.13773c0,-0.2762 0.22391,-0.50012 0.50011,-0.50012c0.27621,0 0.50011,0.22391 0.50011,0.50012c0,0.2762 -0.22391,0.50012 -0.50011,0.50012c-0.27621,0 -0.50011,-0.22391 -0.50011,-0.50012z" fill="#c6e9ed" stroke="none" stroke-width="0.5" stroke-linecap="butt"/><path d="" fill="#8ecad1" stroke="none" stroke-width="0.5" stroke-linecap="butt"/><path d="M112.51575,36.13611c0,-0.2762 0.22391,-0.50012 0.50012,-0.50012c0.27621,0 0.50011,0.22392 0.50011,0.50012c0,0.2762 -0.22391,0.50012 -0.50011,0.50012c-0.27621,0 -0.50012,-0.22391 -0.50012,-0.50012z" fill="#c6e9ed" stroke="none" stroke-width="0.5" stroke-linecap="butt"/><path d="M240.54483,112.1534c0,-0.27621 0.22391,-0.50011 0.50011,-0.50011c0.27621,0 0.50012,0.22391 0.50012,0.50011c0,0.27621 -0.22391,0.50012 -0.50012,0.50012c-0.27621,0 -0.50011,-0.22391 -0.50011,-0.50012z" fill="#c6e9ed" stroke="none" stroke-width="0.5" stroke-linecap="butt"/><path d="M202.53621,142.16019c0,-0.27621 0.22391,-0.50011 0.50012,-0.50011c0.27621,0 0.50012,0.22391 0.50012,0.50011c0,0.27621 -0.22391,0.50011 -0.50012,0.50011c-0.27621,0 -0.50012,-0.22391 -0.50012,-0.50011z" fill="#c6e9ed" stroke="none" stroke-width="0.5" stroke-linecap="butt"/><path d="M303.55915,148.16158c0,-0.27621 0.22391,-0.50011 0.50011,-0.50011c0.27621,0 0.50011,0.22391 0.50011,0.50011c0,0.27621 -0.22391,0.50011 -0.50011,0.50011c-0.27621,0 -0.50011,-0.22391 -0.50011,-0.50011z" fill="#c6e9ed" stroke="none" stroke-width="0.5" stroke-linecap="butt"/><path d="M272.55209,61.14181c0,-0.2762 0.22391,-0.50011 0.50011,-0.50011c0.27621,0 0.50011,0.22391 0.50011,0.50011c0,0.2762 -0.22391,0.50012 -0.50011,0.50012c-0.27621,0 -0.50011,-0.22392 -0.50011,-0.50012z" fill="#c6e9ed" stroke="none" stroke-width="0.5" stroke-linecap="butt"/><path d="M340.56758,49.13908c0,-0.2762 0.22391,-0.50012 0.50012,-0.50012c0.27621,0 0.50011,0.22391 0.50011,0.50012c0,0.2762 -0.22391,0.50012 -0.50011,0.50012c-0.27621,0 -0.50012,-0.22391 -0.50012,-0.50012z" fill="#c6e9ed" stroke="none" stroke-width="0.5" stroke-linecap="butt"/><path d="M376.57576,90.14841c0,-0.27621 0.22391,-0.50012 0.50011,-0.50012c0.27621,0 0.50011,0.22391 0.50011,0.50012c0,0.27621 -0.22391,0.50011 -0.50011,0.50011c-0.27621,0 -0.50011,-0.22391 -0.50011,-0.50011z" fill="#c6e9ed" stroke="none" stroke-width="0.5" stroke-linecap="butt"/><path d="M366.5735,175.16773c0,-0.27621 0.22391,-0.50012 0.50011,-0.50012c0.27621,0 0.50011,0.22392 0.50011,0.50012c0,0.27621 -0.22391,0.50011 -0.50011,0.50011c-0.27621,0 -0.50011,-0.22391 -0.50011,-0.50011z" fill="#c6e9ed" stroke="none" stroke-width="0.5" stroke-linecap="butt"/><path d="M462.59529,157.16359c0,-0.27621 0.22391,-0.50011 0.50011,-0.50011c0.27621,0 0.50011,0.22391 0.50011,0.50011c0,0.27621 -0.22391,0.50012 -0.50011,0.50012c-0.27621,0 -0.50011,-0.22391 -0.50011,-0.50012z" fill="#c6e9ed" stroke="none" stroke-width="0.5" stroke-linecap="butt"/><path d="M420.58575,129.15724c0,-0.27621 0.22391,-0.50011 0.50012,-0.50011c0.27621,0 0.50011,0.22391 0.50011,0.50011c0,0.27621 -0.22391,0.50011 -0.50011,0.50011c-0.27621,0 -0.50012,-0.22391 -0.50012,-0.50011z" fill="#c6e9ed" stroke="none" stroke-width="0.5" stroke-linecap="butt"/><path d="M458.59439,65.14273c0,-0.27621 0.22391,-0.50012 0.50011,-0.50012c0.27621,0 0.50011,0.22391 0.50011,0.50012c0,0.27621 -0.22391,0.50011 -0.50011,0.50011c-0.27621,0 -0.50011,-0.22391 -0.50011,-0.50011z" fill="#c6e9ed" stroke="none" stroke-width="0.5" stroke-linecap="butt"/><path d="M406.58257,36.13611c0,-0.2762 0.22391,-0.50012 0.50011,-0.50012c0.27621,0 0.50011,0.22392 0.50011,0.50012c0,0.2762 -0.22391,0.50012 -0.50011,0.50012c-0.27621,0 -0.50011,-0.22391 -0.50011,-0.50012z" fill="#c6e9ed" stroke="none" stroke-width="0.5" stroke-linecap="butt"/><path d="M280.55389,24.1334c0,-0.27621 0.22391,-0.50012 0.50011,-0.50012c0.27621,0 0.50011,0.22391 0.50011,0.50012c0,0.27621 -0.22391,0.50011 -0.50011,0.50011c-0.27621,0 -0.50011,-0.22391 -0.50011,-0.50011z" fill="#c6e9ed" stroke="none" stroke-width="0.5" stroke-linecap="butt"/><path d="M95.51189,210.17568c0,-0.27621 0.22391,-0.50011 0.50011,-0.50011c0.27621,0 0.50012,0.22391 0.50012,0.50011c0,0.27621 -0.22391,0.50011 -0.50012,0.50011c-0.27621,0 -0.50011,-0.22391 -0.50011,-0.50011z" fill="#c6e9ed" stroke="none" stroke-width="0.5" stroke-linecap="butt"/><path d="M43.50008,150.16203c0,-0.27621 0.22391,-0.50012 0.50012,-0.50012c0.2762,0 0.50012,0.22391 0.50012,0.50012c0,0.27621 -0.22391,0.50011 -0.50012,0.50011c-0.2762,0 -0.50012,-0.22391 -0.50012,-0.50011z" fill="#c6e9ed" stroke="none" stroke-width="0.5" stroke-linecap="butt"/><path d="M20.49482,30.13476c0,-0.27621 0.22391,-0.50012 0.50012,-0.50012c0.27621,0 0.50012,0.22391 0.50012,0.50012c0,0.27621 -0.22391,0.50012 -0.50012,0.50012c-0.27621,0 -0.50012,-0.22391 -0.50012,-0.50012z" fill="#c6e9ed" stroke="none" stroke-width="0.5" stroke-linecap="butt"/><path d="M128.51934,186.17023c0,-0.27621 0.22391,-0.50011 0.50011,-0.50011c0.27621,0 0.50011,0.22391 0.50011,0.50011c0,0.27621 -0.22391,0.50011 -0.50011,0.50011c-0.27621,0 -0.50011,-0.22391 -0.50011,-0.50011z" fill="#c6e9ed" stroke="none" stroke-width="0.5" stroke-linecap="butt"/><path d="M258.54891,169.16636c0,-0.27621 0.22391,-0.50011 0.50011,-0.50011c0.27621,0 0.50012,0.22391 0.50012,0.50011c0,0.27621 -0.22391,0.50011 -0.50012,0.50011c-0.27621,0 -0.50011,-0.22391 -0.50011,-0.50011z" fill="#c6e9ed" stroke="none" stroke-width="0.5" stroke-linecap="butt"/><path d="M141.02218,148.66169c-0.50011,0 -0.50011,-0.50011 -0.50011,-0.50011c0,-0.1667 0,-0.83352 0,-1.00023c0,0 0,-0.50011 0.50011,-0.50011c0.50011,0 0.50011,0.50011 0.50011,0.50011c0,0.1667 0,0.33342 0,0.50011v0.50011c0,0 0,0.50011 -0.50011,0.50011z" fill="#c6e9ed" stroke="none" stroke-width="0.5" stroke-linecap="butt"/><path d="M352.57032,129.15724c0,-0.27621 0.22391,-0.50011 0.50011,-0.50011c0.27621,0 0.50011,0.22391 0.50011,0.50011c0,0.27621 -0.22391,0.50011 -0.50011,0.50011c-0.27621,0 -0.50011,-0.22391 -0.50011,-0.50011z" fill="#c6e9ed" stroke="none" stroke-width="0.5" stroke-linecap="butt"/><path d="M102.76353,68.14338c0,-0.69052 0.55976,-1.25029 1.25028,-1.25029c0.69052,0 1.25028,0.55976 1.25028,1.25029c0,0.69052 -0.55976,1.25028 -1.25028,1.25028c-0.69052,0 -1.25028,-0.55976 -1.25028,-1.25028z" fill="#c6e9ed" stroke="none" stroke-width="0.5" stroke-linecap="butt"/><path d="M191.78375,110.15294c0,-0.69052 0.55976,-1.25029 1.25028,-1.25029c0.69052,0 1.25028,0.55976 1.25028,1.25029c0,0.69052 -0.55976,1.25028 -1.25028,1.25028c-0.69052,0 -1.25028,-0.55976 -1.25028,-1.25028z" fill="#c6e9ed" stroke="none" stroke-width="0.5" stroke-linecap="butt"/><path d="M240.7949,39.1368c0,-0.69052 0.55976,-1.25029 1.25028,-1.25029c0.69052,0 1.25028,0.55977 1.25028,1.25029c0,0.69052 -0.55976,1.25028 -1.25028,1.25028c-0.69052,0 -1.25028,-0.55976 -1.25028,-1.25028z" fill="#c6e9ed" stroke="none" stroke-width="0.5" stroke-linecap="butt"/><path d="M310.81075,105.15181c0,-0.69052 0.55977,-1.25029 1.25029,-1.25029c0.69052,0 1.25028,0.55976 1.25028,1.25029c0,0.69052 -0.55976,1.25029 -1.25028,1.25029c-0.69052,0 -1.25029,-0.55976 -1.25029,-1.25029z" fill="#c6e9ed" stroke="none" stroke-width="0.5" stroke-linecap="butt"/><path d="M425.83695,92.14885c0,-0.69052 0.55976,-1.25028 1.25028,-1.25028c0.69052,0 1.25029,0.55976 1.25029,1.25028c0,0.69052 -0.55977,1.25029 -1.25029,1.25029c-0.69052,0 -1.25028,-0.55976 -1.25028,-1.25029z" fill="#c6e9ed" stroke="none" stroke-width="0.5" stroke-linecap="butt"/><path d="M359.82196,26.13385c0,-0.69052 0.55977,-1.25028 1.25029,-1.25028c0.69052,0 1.25028,0.55976 1.25028,1.25028c0,0.69052 -0.55976,1.25028 -1.25028,1.25028c-0.69052,0 -1.25029,-0.55976 -1.25029,-1.25028z" fill="#c6e9ed" stroke="none" stroke-width="0.5" stroke-linecap="butt"/><path d="M420.83581,188.17067c0,-0.69052 0.55977,-1.25028 1.25029,-1.25028c0.69052,0 1.25028,0.55976 1.25028,1.25028c0,0.69052 -0.55976,1.25028 -1.25028,1.25028c-0.69052,0 -1.25029,-0.55976 -1.25029,-1.25028z" fill="#c6e9ed" stroke="none" stroke-width="0.5" stroke-linecap="butt"/><path d="M303.80916,188.17067c0,-0.69052 0.55976,-1.25028 1.25028,-1.25028c0.69052,0 1.25028,0.55976 1.25028,1.25028c0,0.69052 -0.55976,1.25028 -1.25028,1.25028c-0.69052,0 -1.25028,-0.55976 -1.25028,-1.25028z" fill="#c6e9ed" stroke="none" stroke-width="0.5" stroke-linecap="butt"/><path d="M195.78468,188.17067c0,-0.69052 0.55976,-1.25028 1.25028,-1.25028c0.69052,0 1.25028,0.55976 1.25028,1.25028c0,0.69052 -0.55976,1.25028 -1.25028,1.25028c-0.69052,0 -1.25028,-0.55976 -1.25028,-1.25028z" fill="#c6e9ed" stroke="none" stroke-width="0.5" stroke-linecap="butt"/><path d="M86.7599,155.16314c0,-0.69052 0.55976,-1.25029 1.25029,-1.25029c0.69052,0 1.25028,0.55977 1.25028,1.25029c0,0.69052 -0.55976,1.25028 -1.25028,1.25028c-0.69052,0 -1.25029,-0.55976 -1.25029,-1.25028z" fill="#c6e9ed" stroke="none" stroke-width="0.5" stroke-linecap="butt"/><path d="M37.74872,207.17499c0,-0.69052 0.55976,-1.25029 1.25028,-1.25029c0.69052,0 1.25028,0.55977 1.25028,1.25029c0,0.69052 -0.55976,1.25028 -1.25028,1.25028c-0.69052,0 -1.25028,-0.55976 -1.25028,-1.25028z" fill="#c6e9ed" stroke="none" stroke-width="0.5" stroke-linecap="butt"/><path d="M25.74604,110.15294c0,-0.69052 0.55976,-1.25029 1.25028,-1.25029c0.69052,0 1.25029,0.55976 1.25029,1.25029c0,0.69052 -0.55977,1.25028 -1.25029,1.25028c-0.69052,0 -1.25028,-0.55976 -1.25028,-1.25028z" fill="#c6e9ed" stroke="none" stroke-width="0.5" stroke-linecap="butt"/><path d="M64.75486,32.13521c0,-0.69052 0.55976,-1.25029 1.25028,-1.25029c0.69052,0 1.25029,0.55977 1.25029,1.25029c0,0.69052 -0.55976,1.25028 -1.25029,1.25028c-0.69052,0 -1.25028,-0.55976 -1.25028,-1.25028z" fill="#c6e9ed" stroke="none" stroke-width="0.5" stroke-linecap="butt"/><path d="M161.77686,66.14294c0,-0.69052 0.55976,-1.25028 1.25028,-1.25028c0.69052,0 1.25029,0.55976 1.25029,1.25028c0,0.69052 -0.55977,1.25028 -1.25029,1.25028c-0.69052,0 -1.25028,-0.55976 -1.25028,-1.25028z" fill="#c6e9ed" stroke="none" stroke-width="0.5" stroke-linecap="butt"/><path d="M353.82059,84.14704c0,-0.69052 0.55977,-1.25028 1.25029,-1.25028c0.69052,0 1.25029,0.55976 1.25029,1.25028c0,0.69052 -0.55977,1.25029 -1.25029,1.25029c-0.69052,0 -1.25029,-0.55976 -1.25029,-1.25029z" fill="#c6e9ed" stroke="none" stroke-width="0.5" stroke-linecap="butt"/><path d="M295.80736,42.13749c0,-0.69052 0.55977,-1.25028 1.25029,-1.25028c0.69052,0 1.25029,0.55976 1.25029,1.25028c0,0.69052 -0.55977,1.25028 -1.25029,1.25028c-0.69052,0 -1.25029,-0.55976 -1.25029,-1.25028z" fill="#c6e9ed" stroke="none" stroke-width="0.5" stroke-linecap="butt"/><path d="M392.82945,58.14112c0,-0.69052 0.55977,-1.25028 1.25029,-1.25028c0.69052,0 1.25028,0.55976 1.25028,1.25028c0,0.69052 -0.55976,1.25028 -1.25028,1.25028c-0.69052,0 -1.25029,-0.55976 -1.25029,-1.25028z" fill="#c6e9ed" stroke="none" stroke-width="0.5" stroke-linecap="butt"/><path d="M375.82559,143.16043c0,-0.69052 0.55976,-1.25028 1.25028,-1.25028c0.69052,0 1.25028,0.55976 1.25028,1.25028c0,0.69052 -0.55976,1.25028 -1.25028,1.25028c-0.69052,0 -1.25028,-0.55976 -1.25028,-1.25028z" fill="#c6e9ed" stroke="none" stroke-width="0.5" stroke-linecap="butt"/><path d="M449.8424,216.17703c0,-0.69052 0.55976,-1.25028 1.25028,-1.25028c0.69052,0 1.25028,0.55976 1.25028,1.25028c0,0.69052 -0.55976,1.25028 -1.25028,1.25028c-0.69052,0 -1.25028,-0.55976 -1.25028,-1.25028z" fill="#c6e9ed" stroke="none" stroke-width="0.5" stroke-linecap="butt"/><path d="M72.75672,189.17089c0,-0.69052 0.55976,-1.25028 1.25028,-1.25028c0.69052,0 1.25029,0.55976 1.25029,1.25028c0,0.69052 -0.55976,1.25029 -1.25029,1.25029c-0.69052,0 -1.25028,-0.55977 -1.25028,-1.25029z" fill="#c6e9ed" stroke="none" stroke-width="0.5" stroke-linecap="butt"/><path d="M48.75125,100.15067c0,-0.69052 0.55976,-1.25028 1.25028,-1.25028c0.69052,0 1.25028,0.55976 1.25028,1.25028c0,0.69052 -0.55976,1.25029 -1.25028,1.25029c-0.69052,0 -1.25028,-0.55976 -1.25028,-1.25029z" fill="#c6e9ed" stroke="none" stroke-width="0.5" stroke-linecap="butt"/><path d="M13.74329,172.16703c0,-0.69052 0.55977,-1.25028 1.25028,-1.25028c0.69052,0 1.25029,0.55976 1.25029,1.25028c0,0.69052 -0.55977,1.25028 -1.25029,1.25028c-0.69052,0 -1.25028,-0.55976 -1.25028,-1.25028z" fill="#c6e9ed" stroke="none" stroke-width="0.5" stroke-linecap="butt"/><path d="M267.80101,138.15929c0,-0.69052 0.55976,-1.25028 1.25028,-1.25028c0.69052,0 1.25028,0.55976 1.25028,1.25028c0,0.69052 -0.55976,1.25028 -1.25028,1.25028c-0.69052,0 -1.25028,-0.55976 -1.25028,-1.25028z" fill="#c6e9ed" stroke="none" stroke-width="0.5" stroke-linecap="butt"/><path d="M232.79307,80.14611c0,-0.69052 0.55977,-1.25029 1.25029,-1.25029c0.69052,0 1.25028,0.55976 1.25028,1.25029c0,0.69052 -0.55976,1.25029 -1.25028,1.25029c-0.69052,0 -1.25029,-0.55976 -1.25029,-1.25029z" fill="#c6e9ed" stroke="none" stroke-width="0.5" stroke-linecap="butt"/><path d="M456.84399,29.13452c0,-0.69052 0.55977,-1.25028 1.25029,-1.25028c0.69052,0 1.25029,0.55976 1.25029,1.25028c0,0.69052 -0.55977,1.25029 -1.25029,1.25029c-0.69052,0 -1.25029,-0.55977 -1.25029,-1.25029z" fill="#c6e9ed" stroke="none" stroke-width="0.5" stroke-linecap="butt"/><path d="M452.84309,132.15793c0,-0.69052 0.55976,-1.25028 1.25028,-1.25028c0.69052,0 1.25028,0.55976 1.25028,1.25028c0,0.69052 -0.55976,1.25029 -1.25028,1.25029c-0.69052,0 -1.25028,-0.55977 -1.25028,-1.25029z" fill="#c6e9ed" stroke="none" stroke-width="0.5" stroke-linecap="butt"/><path d="M118.017,132.15793c0,-1.10482 0.89563,-2.00045 2.00045,-2.00045c1.10482,0 2.00046,0.89563 2.00046,2.00045c0,1.10482 -0.89563,2.00046 -2.00046,2.00046c-1.10482,0 -2.00045,-0.89564 -2.00045,-2.00046z" fill="#8ecad1" stroke="none" stroke-width="0.5" stroke-linecap="butt"/><path d="M24.99586,60.14158c0,-1.10482 0.89563,-2.00045 2.00045,-2.00045c1.10482,0 2.00046,0.89563 2.00046,2.00045c0,1.10482 -0.89564,2.00045 -2.00046,2.00045c-1.10482,0 -2.00045,-0.89563 -2.00045,-2.00045z" fill="#8ecad1" stroke="none" stroke-width="0.5" stroke-linecap="butt"/><path d="M93.01131,16.13155c0,-1.10482 0.89563,-2.00046 2.00046,-2.00046c1.10482,0 2.00045,0.89564 2.00045,2.00046c0,1.10482 -0.89563,2.00045 -2.00045,2.00045c-1.10482,0 -2.00046,-0.89563 -2.00046,-2.00045z" fill="#8ecad1" stroke="none" stroke-width="0.5" stroke-linecap="butt"/><path d="M172.02925,128.15702c0,-1.10482 0.89563,-2.00045 2.00045,-2.00045c1.10482,0 2.00045,0.89563 2.00045,2.00045c0,1.10482 -0.89563,2.00046 -2.00045,2.00046c-1.10482,0 -2.00045,-0.89564 -2.00045,-2.00046z" fill="#8ecad1" stroke="none" stroke-width="0.5" stroke-linecap="butt"/><path d="M167.02809,23.13317c0,-1.10482 0.89563,-2.00045 2.00045,-2.00045c1.10482,0 2.00045,0.89563 2.00045,2.00045c0,1.10482 -0.89563,2.00045 -2.00045,2.00045c-1.10482,0 -2.00045,-0.89563 -2.00045,-2.00045z" fill="#8ecad1" stroke="none" stroke-width="0.5" stroke-linecap="butt"/><path d="M223.04086,157.16359c0,-1.10482 0.89564,-2.00045 2.00046,-2.00045c1.10482,0 2.00045,0.89563 2.00045,2.00045c0,1.10482 -0.89563,2.00045 -2.00045,2.00045c-1.10482,0 -2.00046,-0.89563 -2.00046,-2.00045z" fill="#8ecad1" stroke="none" stroke-width="0.5" stroke-linecap="butt"/><path d="M279.05353,99.15044c0,-1.10482 0.89564,-2.00045 2.00046,-2.00045c1.10482,0 2.00045,0.89563 2.00045,2.00045c0,1.10482 -0.89563,2.00045 -2.00045,2.00045c-1.10482,0 -2.00046,-0.89563 -2.00046,-2.00045z" fill="#8ecad1" stroke="none" stroke-width="0.5" stroke-linecap="butt"/><path d="M217.03951,26.13385c0,-1.10482 0.89563,-2.00045 2.00045,-2.00045c1.10482,0 2.00045,0.89563 2.00045,2.00045c0,1.10482 -0.89563,2.00045 -2.00045,2.00045c-1.10482,0 -2.00045,-0.89563 -2.00045,-2.00045z" fill="#8ecad1" stroke="none" stroke-width="0.5" stroke-linecap="butt"/><path d="M195.03451,82.14659c0,-1.10482 0.89563,-2.00046 2.00045,-2.00046c1.10482,0 2.00045,0.89563 2.00045,2.00046c0,1.10482 -0.89563,2.00045 -2.00045,2.00045c-1.10482,0 -2.00045,-0.89563 -2.00045,-2.00045z" fill="#8ecad1" stroke="none" stroke-width="0.5" stroke-linecap="butt"/><path d="M334.06605,160.16429c0,-1.10482 0.89563,-2.00045 2.00045,-2.00045c1.10482,0 2.00045,0.89563 2.00045,2.00045c0,1.10482 -0.89563,2.00045 -2.00045,2.00045c-1.10482,0 -2.00045,-0.89563 -2.00045,-2.00045z" fill="#8ecad1" stroke="none" stroke-width="0.5" stroke-linecap="butt"/><path d="M387.07814,120.15521c0,-1.10482 0.89564,-2.00045 2.00046,-2.00045c1.10482,0 2.00045,0.89563 2.00045,2.00045c0,1.10482 -0.89563,2.00045 -2.00045,2.00045c-1.10482,0 -2.00046,-0.89563 -2.00046,-2.00045z" fill="#8ecad1" stroke="none" stroke-width="0.5" stroke-linecap="butt"/><path d="M310.06057,72.14428c0,-1.10482 0.89564,-2.00045 2.00046,-2.00045c1.10482,0 2.00045,0.89563 2.00045,2.00045c0,1.10482 -0.89563,2.00045 -2.00045,2.00045c-1.10482,0 -2.00046,-0.89563 -2.00046,-2.00045z" fill="#8ecad1" stroke="none" stroke-width="0.5" stroke-linecap="butt"/><path d="M327.06444,23.13317c0,-1.10482 0.89563,-2.00045 2.00045,-2.00045c1.10482,0 2.00045,0.89563 2.00045,2.00045c0,1.10482 -0.89563,2.00045 -2.00045,2.00045c-1.10482,0 -2.00045,-0.89563 -2.00045,-2.00045z" fill="#8ecad1" stroke="none" stroke-width="0.5" stroke-linecap="butt"/><path d="M411.0836,21.13271c0,-1.10482 0.89563,-2.00045 2.00045,-2.00045c1.10482,0 2.00045,0.89563 2.00045,2.00045c0,1.10482 -0.89563,2.00045 -2.00045,2.00045c-1.10482,0 -2.00045,-0.89563 -2.00045,-2.00045z" fill="#8ecad1" stroke="none" stroke-width="0.5" stroke-linecap="butt"/><path d="M459.0945,93.14908c0,-1.10482 0.89563,-2.00046 2.00045,-2.00046c1.10482,0 2.00045,0.89563 2.00045,2.00046c0,1.10482 -0.89563,2.00045 -2.00045,2.00045c-1.10482,0 -2.00045,-0.89563 -2.00045,-2.00045z" fill="#8ecad1" stroke="none" stroke-width="0.5" stroke-linecap="butt"/><path d="M323.06354,129.15723c0,-1.10482 0.89563,-2.00046 2.00045,-2.00046c1.10482,0 2.00045,0.89564 2.00045,2.00046c0,1.10482 -0.89563,2.00045 -2.00045,2.00045c-1.10482,0 -2.00045,-0.89563 -2.00045,-2.00045z" fill="#8ecad1" stroke="none" stroke-width="0.5" stroke-linecap="butt"/><path d="M381.07678,196.17249c0,-1.10482 0.89563,-2.00046 2.00045,-2.00046c1.10482,0 2.00045,0.89564 2.00045,2.00046c0,1.10482 -0.89563,2.00045 -2.00045,2.00045c-1.10482,0 -2.00045,-0.89563 -2.00045,-2.00045z" fill="#8ecad1" stroke="none" stroke-width="0.5" stroke-linecap="butt"/><path d="M417.08496,152.16248c0,-1.10482 0.89563,-2.00045 2.00045,-2.00045c1.10482,0 2.00046,0.89563 2.00046,2.00045c0,1.10482 -0.89564,2.00045 -2.00046,2.00045c-1.10482,0 -2.00045,-0.89563 -2.00045,-2.00045z" fill="#8ecad1" stroke="none" stroke-width="0.5" stroke-linecap="butt"/><path d="M462.09519,188.17067c0,-1.10482 0.89563,-2.00045 2.00045,-2.00045c1.10482,0 2.00045,0.89563 2.00045,2.00045c0,1.10482 -0.89563,2.00045 -2.00045,2.00045c-1.10482,0 -2.00045,-0.89563 -2.00045,-2.00045z" fill="#8ecad1" stroke="none" stroke-width="0.5" stroke-linecap="butt"/><path d="M247.04632,199.17317c0,-1.10482 0.89563,-2.00045 2.00045,-2.00045c1.10482,0 2.00045,0.89563 2.00045,2.00045c0,1.10482 -0.89563,2.00045 -2.00045,2.00045c-1.10482,0 -2.00045,-0.89563 -2.00045,-2.00045z" fill="#8ecad1" stroke="none" stroke-width="0.5" stroke-linecap="butt"/><path d="M62.00427,129.15723c0,-1.10482 0.89563,-2.00046 2.00045,-2.00046c1.10482,0 2.00045,0.89564 2.00045,2.00046c0,1.10482 -0.89563,2.00045 -2.00045,2.00045c-1.10482,0 -2.00045,-0.89563 -2.00045,-2.00045z" fill="#8ecad1" stroke="none" stroke-width="0.5" stroke-linecap="butt"/><path d="M163.02714,204.1743c0,-1.10482 0.89563,-2.00045 2.00045,-2.00045c1.10482,0 2.00046,0.89563 2.00046,2.00045c0,1.10482 -0.89564,2.00045 -2.00046,2.00045c-1.10482,0 -2.00045,-0.89563 -2.00045,-2.00045z" fill="#8ecad1" stroke="none" stroke-width="0.5" stroke-linecap="butt"/><path d="M174.02974,160.16429c0,-1.10482 0.89563,-2.00045 2.00045,-2.00045c1.10482,0 2.00045,0.89563 2.00045,2.00045c0,1.10482 -0.89563,2.00045 -2.00045,2.00045c-1.10482,0 -2.00045,-0.89563 -2.00045,-2.00045z" fill="#8ecad1" stroke="none" stroke-width="0.5" stroke-linecap="butt"/><path d="M344.06838,204.1743c0,-1.10482 0.89563,-2.00045 2.00045,-2.00045c1.10482,0 2.00045,0.89563 2.00045,2.00045c0,1.10482 -0.89563,2.00045 -2.00045,2.00045c-1.10482,0 -2.00045,-0.89563 -2.00045,-2.00045z" fill="#8ecad1" stroke="none" stroke-width="0.5" stroke-linecap="butt"/><path d="M100.0129,180.16884c0,-1.10482 0.89563,-2.00046 2.00045,-2.00046c1.10482,0 2.00045,0.89564 2.00045,2.00046c0,1.10482 -0.89563,2.00045 -2.00045,2.00045c-1.10482,0 -2.00045,-0.89563 -2.00045,-2.00045z" fill="#8ecad1" stroke="none" stroke-width="0.5" stroke-linecap="butt"/><path d="M40.99945,175.16772c0,-1.10482 0.89563,-2.00046 2.00045,-2.00046c1.10482,0 2.00046,0.89564 2.00046,2.00046c0,1.10482 -0.89564,2.00045 -2.00046,2.00045c-1.10482,0 -2.00045,-0.89563 -2.00045,-2.00045z" fill="#8ecad1" stroke="none" stroke-width="0.5" stroke-linecap="butt"/><path d="M427.08723,56.14066c0,-1.10482 0.89563,-2.00045 2.00045,-2.00045c1.10482,0 2.00045,0.89563 2.00045,2.00045c0,1.10482 -0.89563,2.00045 -2.00045,2.00045c-1.10482,0 -2.00045,-0.89563 -2.00045,-2.00045z" fill="#8ecad1" stroke="none" stroke-width="0.5" stroke-linecap="butt"/><path d="M143.02263,46.1384c0,-1.10482 0.89563,-2.00046 2.00045,-2.00046c1.10482,0 2.00046,0.89564 2.00046,2.00046c0,1.10482 -0.89564,2.00045 -2.00046,2.00045c-1.10482,0 -2.00045,-0.89563 -2.00045,-2.00045z" fill="#8ecad1" stroke="none" stroke-width="0.5" stroke-linecap="butt"/><path d="M218.03972,57.14089c0,-1.10482 0.89564,-2.00046 2.00046,-2.00046c1.10482,0 2.00045,0.89564 2.00045,2.00046c0,1.10482 -0.89563,2.00045 -2.00045,2.00045c-1.10482,0 -2.00046,-0.89563 -2.00046,-2.00045z" fill="#8ecad1" stroke="none" stroke-width="0.5" stroke-linecap="butt"/><path d="M221.04041,124.15613c0,-1.10482 0.89563,-2.00045 2.00045,-2.00045c1.10482,0 2.00046,0.89563 2.00046,2.00045c0,1.10482 -0.89564,2.00045 -2.00046,2.00045c-1.10482,0 -2.00045,-0.89563 -2.00045,-2.00045z" fill="#8ecad1" stroke="none" stroke-width="0.5" stroke-linecap="butt"/><path d="M112.01564,93.14908c0,-1.10482 0.89563,-2.00046 2.00045,-2.00046c1.10482,0 2.00046,0.89563 2.00046,2.00046c0,1.10482 -0.89563,2.00045 -2.00046,2.00045c-1.10482,0 -2.00045,-0.89563 -2.00045,-2.00045z" fill="#8ecad1" stroke="none" stroke-width="0.5" stroke-linecap="butt"/><path d="M67.0054,82.14659c0,-1.10482 0.89563,-2.00046 2.00045,-2.00046c1.10482,0 2.00046,0.89563 2.00046,2.00046c0,1.10482 -0.89563,2.00045 -2.00046,2.00045c-1.10482,0 -2.00045,-0.89563 -2.00045,-2.00045z" fill="#8ecad1" stroke="none" stroke-width="0.5" stroke-linecap="butt"/><path d="M8.99218,133.15813c0,-1.10482 0.89563,-2.00045 2.00045,-2.00045c1.10482,0 2.00046,0.89563 2.00046,2.00045c0,1.10482 -0.89564,2.00045 -2.00046,2.00045c-1.10482,0 -2.00045,-0.89563 -2.00045,-2.00045z" fill="#8ecad1" stroke="none" stroke-width="0.5" stroke-linecap="butt"/><path d="" fill="url(#color-6)" stroke="none" stroke-width="1.28528" stroke-linecap="butt"/><path d="" fill="url(#color-7)" stroke="none" stroke-width="1.28528" stroke-linecap="butt"/><path d="" fill="url(#color-8)" stroke="none" stroke-width="1.28528" stroke-linecap="butt"/><path d="" fill="url(#color-9)" stroke="none" stroke-width="1.28528" stroke-linecap="butt"/><path d="M36.99858,17.1318c0,-1.10482 0.89564,-2.00045 2.00046,-2.00045c1.10482,0 2.00045,0.89563 2.00045,2.00045c0,1.10482 -0.89563,2.00045 -2.00045,2.00045c-1.10482,0 -2.00046,-0.89563 -2.00046,-2.00045z" fill="#8ecad1" stroke="none" stroke-width="0.5" stroke-linecap="butt"/><path d="M254.79806,17.1318c0,-0.69052 0.55976,-1.25028 1.25028,-1.25028c0.69052,0 1.25029,0.55977 1.25029,1.25028c0,0.69052 -0.55977,1.25029 -1.25029,1.25029c-0.69052,0 -1.25028,-0.55977 -1.25028,-1.25029z" fill="#c6e9ed" stroke="none" stroke-width="0.5" stroke-linecap="butt"/><path d="M301.80871,11.13044c0,-0.69052 0.55977,-1.25028 1.25029,-1.25028c0.69052,0 1.25028,0.55977 1.25028,1.25028c0,0.69052 -0.55976,1.25028 -1.25028,1.25028c-0.69052,0 -1.25029,-0.55976 -1.25029,-1.25028z" fill="#c6e9ed" stroke="none" stroke-width="0.5" stroke-linecap="butt"/><path d="M362.82264,60.14158c0,-0.69052 0.55977,-1.25029 1.25029,-1.25029c0.69052,0 1.25028,0.55977 1.25028,1.25029c0,0.69052 -0.55976,1.25028 -1.25028,1.25028c-0.69052,0 -1.25029,-0.55976 -1.25029,-1.25028z" fill="#c6e9ed" stroke="none" stroke-width="0.5" stroke-linecap="butt"/><path d="M131.77006,13.13089c0,-0.69052 0.55977,-1.25028 1.25029,-1.25028c0.69052,0 1.25028,0.55977 1.25028,1.25028c0,0.69052 -0.55976,1.25028 -1.25028,1.25028c-0.69052,0 -1.25029,-0.55977 -1.25029,-1.25028z" fill="#c6e9ed" stroke="none" stroke-width="0.5" stroke-linecap="butt"/><path d="M14.73389,205.1664l-0.30007,-0.30008" fill="none" stroke="#ffffff" stroke-width="2" stroke-linecap="round"/><path d="" fill="url(#color-10)" stroke="url(#color-11)" stroke-width="2.70748" stroke-linecap="butt"/><path d="" fill="url(#color-12)" stroke="url(#color-13)" stroke-width="2.70748" stroke-linecap="butt"/><path d="" fill="url(#color-14)" stroke="url(#color-15)" stroke-width="2.70748" stroke-linecap="butt"/><path d="" fill="#8ecad1" stroke="none" stroke-width="0.5" stroke-linecap="butt"/><path d="" fill="#8ecad1" stroke="none" stroke-width="0.5" stroke-linecap="butt"/><path d="" fill="#8ecad1" stroke="none" stroke-width="0.5" stroke-linecap="butt"/><path d="" fill="#8ecad1" stroke="none" stroke-width="0.5" stroke-linecap="butt"/><path d="" fill="#8ecad1" stroke="none" stroke-width="0.5" stroke-linecap="butt"/><path d="" fill="#8ecad1" stroke="none" stroke-width="0.5" stroke-linecap="butt"/><path d="" fill="#8ecad1" stroke="none" stroke-width="0.5" stroke-linecap="butt"/><path d="" fill="#8ecad1" stroke="none" stroke-width="0.5" stroke-linecap="butt"/><path d="" fill="#8ecad1" stroke="none" stroke-width="0.5" stroke-linecap="butt"/><path d="" fill="#8ecad1" stroke="none" stroke-width="0.5" stroke-linecap="butt"/><path d="" fill="#8ecad1" stroke="none" stroke-width="0.5" stroke-linecap="butt"/><path d="" fill="#8ecad1" stroke="none" stroke-width="0.5" stroke-linecap="butt"/><path d="" fill="#8ecad1" stroke="none" stroke-width="0.5" stroke-linecap="butt"/><path d="" fill="#8ecad1" stroke="none" stroke-width="0.5" stroke-linecap="butt"/><path d="" fill="#8ecad1" stroke="none" stroke-width="0.5" stroke-linecap="butt"/><path d="" fill="#8ecad1" stroke="none" stroke-width="0.5" stroke-linecap="butt"/><path d="" fill="#8ecad1" stroke="none" stroke-width="0.5" stroke-linecap="butt"/><path d="" fill="#8ecad1" stroke="none" stroke-width="0.5" stroke-linecap="butt"/><path d="" fill="#8ecad1" stroke="none" stroke-width="0.5" stroke-linecap="butt"/><path d="" fill="#8ecad1" stroke="none" stroke-width="0.5" stroke-linecap="butt"/><path d="" fill="#8ecad1" stroke="none" stroke-width="0.5" stroke-linecap="butt"/><path d="" fill="#8ecad1" stroke="none" stroke-width="0.5" stroke-linecap="butt"/><path d="" fill="#8ecad1" stroke="none" stroke-width="0.5" stroke-linecap="butt"/><path d="" fill="#8ecad1" stroke="none" stroke-width="0.5" stroke-linecap="butt"/><path d="M7.13293,87.34776c0,-0.27621 0.22391,-0.50011 0.50011,-0.50011c0.27621,0 0.50012,0.22391 0.50012,0.50011c0,0.27621 -0.22391,0.50012 -0.50012,0.50012c-0.27621,0 -0.50011,-0.22391 -0.50011,-0.50012z" fill="#8ecad1" stroke="none" stroke-width="0.5" stroke-linecap="butt"/><path d="" fill="#8ecad1" stroke="none" stroke-width="0.5" stroke-linecap="butt"/><path d="M0.13131,153.36273c0,-0.27621 0.22391,-0.50012 0.50012,-0.50012c0.2762,0 0.50012,0.22391 0.50012,0.50012c0,0.27621 -0.22392,0.50011 -0.50012,0.50011c-0.2762,0 -0.50011,-0.22391 -0.50011,-0.50011z" fill="#8ecad1" stroke="none" stroke-width="0.5" stroke-linecap="butt"/><path d="" fill="#8ecad1" stroke="none" stroke-width="0.5" stroke-linecap="butt"/><path d="" fill="#8ecad1" stroke="none" stroke-width="0.5" stroke-linecap="butt"/><path d="" fill="#8ecad1" stroke="none" stroke-width="0.5" stroke-linecap="butt"/><path d="" fill="#8ecad1" stroke="none" stroke-width="0.5" stroke-linecap="butt"/><path d="" fill="#8ecad1" stroke="none" stroke-width="0.5" stroke-linecap="butt"/><path d="" fill="#8ecad1" stroke="none" stroke-width="0.5" stroke-linecap="butt"/><path d="" fill="#8ecad1" stroke="none" stroke-width="0.5" stroke-linecap="butt"/><path d="" fill="#8ecad1" stroke="none" stroke-width="0.5" stroke-linecap="butt"/><path d="" fill="#8ecad1" stroke="none" stroke-width="0.5" stroke-linecap="butt"/><path d="" fill="#8ecad1" stroke="none" stroke-width="0.5" stroke-linecap="butt"/><path d="" fill="#8ecad1" stroke="none" stroke-width="0.5" stroke-linecap="butt"/><path d="" fill="#8ecad1" stroke="none" stroke-width="0.5" stroke-linecap="butt"/><path d="" fill="#8ecad1" stroke="none" stroke-width="0.5" stroke-linecap="butt"/><path d="" fill="#8ecad1" stroke="none" stroke-width="0.5" stroke-linecap="butt"/><path d="M410.72353,265.09365c0,0.2762 -0.22391,0.50012 -0.50012,0.50012c-0.27621,0 -0.50011,-0.22391 -0.50011,-0.50012c0,-0.2762 0.22391,-0.50012 0.50011,-0.50012c0.27621,0 0.50012,0.22391 0.50012,0.50012z" data-paper-data="{&quot;index&quot;:null}" fill="#c6e9ed" stroke="none" stroke-width="0.5" stroke-linecap="butt"/><path d="M297.70646,214.08298c0,0.27621 -0.22391,0.50011 -0.50011,0.50011c-0.27621,0 -0.50012,-0.22391 -0.50012,-0.50011c0,-0.27621 0.22392,-0.50012 0.50012,-0.50012c0.27621,0 0.50011,0.22391 0.50011,0.50012z" data-paper-data="{&quot;index&quot;:null}" fill="#c6e9ed" stroke="none" stroke-width="0.5" stroke-linecap="butt"/><path d="M279.69372,276.09614c0,0.2762 -0.22391,0.50012 -0.50011,0.50012c-0.27621,0 -0.50011,-0.22391 -0.50011,-0.50012c0,-0.2762 0.22391,-0.50012 0.50011,-0.50012c0.27621,0 0.50011,0.22391 0.50011,0.50012z" data-paper-data="{&quot;index&quot;:null}" fill="#c6e9ed" stroke="none" stroke-width="0.5" stroke-linecap="butt"/><path d="M362.7126,283.09775c0,0.2762 -0.22391,0.50012 -0.50012,0.50012c-0.27621,0 -0.50011,-0.22392 -0.50011,-0.50012c0,-0.2762 0.22391,-0.50012 0.50011,-0.50012c0.27621,0 0.50012,0.22391 0.50012,0.50012z" data-paper-data="{&quot;index&quot;:null}" fill="#c6e9ed" stroke="none" stroke-width="0.5" stroke-linecap="butt"/><path d="M202.67624,258.09208c0,0.2762 -0.22391,0.50011 -0.50011,0.50011c-0.27621,0 -0.50011,-0.22391 -0.50011,-0.50011c0,-0.2762 0.22391,-0.50012 0.50011,-0.50012c0.27621,0 0.50011,0.22392 0.50011,0.50012z" data-paper-data="{&quot;index&quot;:null}" fill="#c6e9ed" stroke="none" stroke-width="0.5" stroke-linecap="butt"/><path d="M134.66073,270.09479c0,0.2762 -0.22391,0.50012 -0.50012,0.50012c-0.27621,0 -0.50011,-0.22391 -0.50011,-0.50012c0,-0.2762 0.22391,-0.50012 0.50011,-0.50012c0.27621,0 0.50012,0.22391 0.50012,0.50012z" data-paper-data="{&quot;index&quot;:null}" fill="#c6e9ed" stroke="none" stroke-width="0.5" stroke-linecap="butt"/><path d="M236.65259,217.08547c0,0.27621 -0.22391,0.50012 -0.50011,0.50012c-0.27621,0 -0.50011,-0.22391 -0.50011,-0.50012c0,-0.27621 0.22391,-0.50011 0.50011,-0.50011c0.27621,0 0.50011,0.22391 0.50011,0.50011z" data-paper-data="{&quot;index&quot;:null}" fill="#c6e9ed" stroke="none" stroke-width="0.5" stroke-linecap="butt"/><path d="M16.63391,254.09116c0,0.27621 -0.22391,0.50012 -0.50011,0.50012c-0.27621,0 -0.50011,-0.22391 -0.50011,-0.50012c0,-0.27621 0.22391,-0.50011 0.50011,-0.50011c0.27621,0 0.50011,0.22391 0.50011,0.50011z" data-paper-data="{&quot;index&quot;:null}" fill="#c6e9ed" stroke="none" stroke-width="0.5" stroke-linecap="butt"/><path d="M68.64578,283.09775c0,0.2762 -0.22391,0.50012 -0.50011,0.50012c-0.27621,0 -0.50011,-0.22392 -0.50011,-0.50012c0,-0.2762 0.22391,-0.50012 0.50011,-0.50012c0.27621,0 0.50011,0.22391 0.50011,0.50012z" data-paper-data="{&quot;index&quot;:null}" fill="#c6e9ed" stroke="none" stroke-width="0.5" stroke-linecap="butt"/><path d="M194.6744,295.10047c0,0.27621 -0.22391,0.50012 -0.50011,0.50012c-0.27621,0 -0.50011,-0.22391 -0.50011,-0.50012c0,-0.27621 0.22391,-0.50011 0.50011,-0.50011c0.27621,0 0.50011,0.22391 0.50011,0.50011z" data-paper-data="{&quot;index&quot;:null}" fill="#c6e9ed" stroke="none" stroke-width="0.5" stroke-linecap="butt"/><path d="M454.73351,289.09912c0,0.27621 -0.22391,0.50012 -0.50012,0.50012c-0.27621,0 -0.50012,-0.22391 -0.50012,-0.50012c0,-0.27621 0.22391,-0.50012 0.50012,-0.50012c0.27621,0 0.50012,0.22391 0.50012,0.50012z" data-paper-data="{&quot;index&quot;:null}" fill="#c6e9ed" stroke="none" stroke-width="0.5" stroke-linecap="butt"/><path d="M372.46481,251.09049c0,0.69052 -0.55976,1.25029 -1.25028,1.25029c-0.69052,0 -1.25028,-0.55976 -1.25028,-1.25029c0,-0.69052 0.55976,-1.25028 1.25028,-1.25028c0.69052,0 1.25028,0.55976 1.25028,1.25028z" data-paper-data="{&quot;index&quot;:null}" fill="#c6e9ed" stroke="none" stroke-width="0.5" stroke-linecap="butt"/><path d="M234.43344,280.09708c0,0.69052 -0.55976,1.25029 -1.25028,1.25029c-0.69052,0 -1.25028,-0.55977 -1.25028,-1.25029c0,-0.69052 0.55976,-1.25028 1.25028,-1.25028c0.69052,0 1.25028,0.55976 1.25028,1.25028z" data-paper-data="{&quot;index&quot;:null}" fill="#c6e9ed" stroke="none" stroke-width="0.5" stroke-linecap="butt"/><path d="M77.39139,233.08503c0,0.69052 -0.55976,1.25028 -1.25028,1.25028c-0.69052,0 -1.25029,-0.55976 -1.25029,-1.25028c0,-0.69052 0.55977,-1.25029 1.25029,-1.25029c0.69052,0 1.25028,0.55976 1.25028,1.25029z" data-paper-data="{&quot;index&quot;:null}" fill="#c6e9ed" stroke="none" stroke-width="0.5" stroke-linecap="butt"/><path d="M115.40639,293.10002c0,0.69052 -0.55977,1.25028 -1.25029,1.25028c-0.69052,0 -1.25028,-0.55976 -1.25028,-1.25028c0,-0.69052 0.55976,-1.25028 1.25028,-1.25028c0.69052,0 1.25029,0.55976 1.25029,1.25028z" data-paper-data="{&quot;index&quot;:null}" fill="#c6e9ed" stroke="none" stroke-width="0.5" stroke-linecap="butt"/><path d="M410.47345,287.09867c0,0.69052 -0.55976,1.25029 -1.25028,1.25029c-0.69052,0 -1.25029,-0.55977 -1.25029,-1.25029c0,-0.69052 0.55976,-1.25028 1.25029,-1.25028c0.69052,0 1.25028,0.55976 1.25028,1.25028z" data-paper-data="{&quot;index&quot;:null}" fill="#c6e9ed" stroke="none" stroke-width="0.5" stroke-linecap="butt"/><path d="M313.45142,253.09093c0,0.69052 -0.55976,1.25028 -1.25028,1.25028c-0.69052,0 -1.25029,-0.55976 -1.25029,-1.25028c0,-0.69052 0.55977,-1.25028 1.25029,-1.25028c0.69052,0 1.25028,0.55976 1.25028,1.25028z" data-paper-data="{&quot;index&quot;:null}" fill="#c6e9ed" stroke="none" stroke-width="0.5" stroke-linecap="butt"/><path d="M121.40775,235.08685c0,0.69052 -0.55977,1.25028 -1.25029,1.25028c-0.69052,0 -1.25029,-0.55976 -1.25029,-1.25028c0,-0.69052 0.55977,-1.25029 1.25029,-1.25029c0.69052,0 1.25029,0.55976 1.25029,1.25029z" data-paper-data="{&quot;index&quot;:null}" fill="#c6e9ed" stroke="none" stroke-width="0.5" stroke-linecap="butt"/><path d="M179.42097,277.09639c0,0.69052 -0.55977,1.25028 -1.25029,1.25028c-0.69052,0 -1.25029,-0.55976 -1.25029,-1.25028c0,-0.69052 0.55977,-1.25028 1.25029,-1.25028c0.69052,0 1.25029,0.55976 1.25029,1.25028z" data-paper-data="{&quot;index&quot;:null}" fill="#c6e9ed" stroke="none" stroke-width="0.5" stroke-linecap="butt"/><path d="M82.3989,261.09275c0,0.69052 -0.55977,1.25028 -1.25029,1.25028c-0.69052,0 -1.25028,-0.55976 -1.25028,-1.25028c0,-0.69052 0.55976,-1.25028 1.25028,-1.25028c0.69052,0 1.25029,0.55976 1.25029,1.25028z" data-paper-data="{&quot;index&quot;:null}" fill="#c6e9ed" stroke="none" stroke-width="0.5" stroke-linecap="butt"/><path d="M378.47709,224.08322c0,0.69052 -0.55976,1.25028 -1.25028,1.25028c-0.69052,0 -1.25028,-0.55976 -1.25028,-1.25028c0,-0.69052 0.55976,-1.25029 1.25028,-1.25029c0.69052,0 1.25028,0.55976 1.25028,1.25029z" data-paper-data="{&quot;index&quot;:null}" fill="#c6e9ed" stroke="none" stroke-width="0.5" stroke-linecap="butt"/><path d="M242.43526,239.08777c0,0.69052 -0.55977,1.25029 -1.25029,1.25029c-0.69052,0 -1.25028,-0.55976 -1.25028,-1.25029c0,-0.69052 0.55976,-1.25029 1.25028,-1.25029c0.69052,0 1.25029,0.55976 1.25029,1.25029z" data-paper-data="{&quot;index&quot;:null}" fill="#c6e9ed" stroke="none" stroke-width="0.5" stroke-linecap="butt"/><path d="M18.38435,290.09936c0,0.69052 -0.55977,1.25028 -1.25029,1.25028c-0.69052,0 -1.25029,-0.55976 -1.25029,-1.25028c0,-0.69052 0.55977,-1.25029 1.25029,-1.25029c0.69052,0 1.25029,0.55977 1.25029,1.25029z" data-paper-data="{&quot;index&quot;:null}" fill="#c6e9ed" stroke="none" stroke-width="0.5" stroke-linecap="butt"/><path d="M450.23247,259.0923c0,1.10482 -0.89563,2.00045 -2.00045,2.00045c-1.10482,0 -2.00046,-0.89563 -2.00046,-2.00045c0,-1.10482 0.89564,-2.00045 2.00046,-2.00045c1.10482,0 2.00045,0.89563 2.00045,2.00045z" data-paper-data="{&quot;index&quot;:null}" fill="#8ecad1" stroke="none" stroke-width="0.5" stroke-linecap="butt"/><path d="M382.21703,303.10231c0,1.10482 -0.89563,2.00046 -2.00046,2.00046c-1.10482,0 -2.00045,-0.89564 -2.00045,-2.00046c0,-1.10482 0.89563,-2.00045 2.00045,-2.00045c1.10482,0 2.00046,0.89563 2.00046,2.00045z" data-paper-data="{&quot;index&quot;:null}" fill="#8ecad1" stroke="none" stroke-width="0.5" stroke-linecap="butt"/><path d="M308.20025,296.10069c0,1.10482 -0.89563,2.00045 -2.00045,2.00045c-1.10482,0 -2.00045,-0.89563 -2.00045,-2.00045c0,-1.10482 0.89563,-2.00045 2.00045,-2.00045c1.10482,0 2.00045,0.89563 2.00045,2.00045z" data-paper-data="{&quot;index&quot;:null}" fill="#8ecad1" stroke="none" stroke-width="0.5" stroke-linecap="butt"/><path d="M196.17476,220.08345c0,1.10482 -0.89564,2.00045 -2.00046,2.00045c-1.10482,0 -2.00045,-0.89563 -2.00045,-2.00045c0,-1.10482 0.89563,-2.00045 2.00045,-2.00045c1.10482,0 2.00046,0.89563 2.00046,2.00045z" data-paper-data="{&quot;index&quot;:null}" fill="#8ecad1" stroke="none" stroke-width="0.5" stroke-linecap="butt"/><path d="M258.18881,293.10002c0,1.10482 -0.89563,2.00045 -2.00045,2.00045c-1.10482,0 -2.00045,-0.89563 -2.00045,-2.00045c0,-1.10482 0.89563,-2.00045 2.00045,-2.00045c1.10482,0 2.00045,0.89563 2.00045,2.00045z" data-paper-data="{&quot;index&quot;:null}" fill="#8ecad1" stroke="none" stroke-width="0.5" stroke-linecap="butt"/><path d="M280.19381,237.0873c0,1.10482 -0.89563,2.00046 -2.00045,2.00046c-1.10482,0 -2.00045,-0.89563 -2.00045,-2.00046c0,-1.10482 0.89563,-2.00045 2.00045,-2.00045c1.10482,0 2.00045,0.89563 2.00045,2.00045z" data-paper-data="{&quot;index&quot;:null}" fill="#8ecad1" stroke="none" stroke-width="0.5" stroke-linecap="butt"/><path d="M165.16771,247.08959c0,1.10482 -0.89564,2.00045 -2.00046,2.00045c-1.10482,0 -2.00045,-0.89563 -2.00045,-2.00045c0,-1.10482 0.89563,-2.00045 2.00045,-2.00045c1.10482,0 2.00046,0.89563 2.00046,2.00045z" data-paper-data="{&quot;index&quot;:null}" fill="#8ecad1" stroke="none" stroke-width="0.5" stroke-linecap="butt"/><path d="M148.16384,296.10069c0,1.10482 -0.89563,2.00045 -2.00045,2.00045c-1.10482,0 -2.00045,-0.89563 -2.00045,-2.00045c0,-1.10482 0.89563,-2.00045 2.00045,-2.00045c1.10482,0 2.00045,0.89563 2.00045,2.00045z" data-paper-data="{&quot;index&quot;:null}" fill="#8ecad1" stroke="none" stroke-width="0.5" stroke-linecap="butt"/><path d="M64.14473,298.10117c0,1.10482 -0.89563,2.00045 -2.00045,2.00045c-1.10482,0 -2.00045,-0.89563 -2.00045,-2.00045c0,-1.10482 0.89563,-2.00045 2.00045,-2.00045c1.10482,0 2.00045,0.89563 2.00045,2.00045z" data-paper-data="{&quot;index&quot;:null}" fill="#8ecad1" stroke="none" stroke-width="0.5" stroke-linecap="butt"/><path d="M40.13384,231.08481c0,1.10482 -0.89563,2.00046 -2.00045,2.00046c-1.10482,0 -2.00045,-0.89563 -2.00045,-2.00046c0,-1.10482 0.89563,-2.00045 2.00045,-2.00045c1.10482,0 2.00045,0.89563 2.00045,2.00045z" data-paper-data="{&quot;index&quot;:null}" fill="#8ecad1" stroke="none" stroke-width="0.5" stroke-linecap="butt"/><path d="M48.14111,263.09322c0,1.10482 -0.89563,2.00045 -2.00045,2.00045c-1.10482,0 -2.00045,-0.89563 -2.00045,-2.00045c0,-1.10482 0.89563,-2.00045 2.00045,-2.00045c1.10482,0 2.00045,0.89563 2.00045,2.00045z" data-paper-data="{&quot;index&quot;:null}" fill="#8ecad1" stroke="none" stroke-width="0.5" stroke-linecap="butt"/><path d="M332.20565,273.09549c0,1.10482 -0.89563,2.00046 -2.00045,2.00046c-1.10482,0 -2.00046,-0.89564 -2.00046,-2.00046c0,-1.10482 0.89564,-2.00045 2.00046,-2.00045c1.10482,0 2.00045,0.89563 2.00045,2.00045z" data-paper-data="{&quot;index&quot;:null}" fill="#8ecad1" stroke="none" stroke-width="0.5" stroke-linecap="butt"/><path d="M257.18861,262.09299c0,1.10482 -0.89564,2.00046 -2.00046,2.00046c-1.10482,0 -2.00045,-0.89564 -2.00045,-2.00046c0,-1.10482 0.89563,-2.00045 2.00045,-2.00045c1.10482,0 2.00046,0.89563 2.00046,2.00045z" data-paper-data="{&quot;index&quot;:null}" fill="#8ecad1" stroke="none" stroke-width="0.5" stroke-linecap="butt"/><path d="M334.2127,230.08481c0,1.10482 -0.89563,2.00046 -2.00045,2.00046c-1.10482,0 -2.00046,-0.89563 -2.00046,-2.00046c0,-1.10482 0.89563,-2.00045 2.00046,-2.00045c1.10482,0 2.00045,0.89563 2.00045,2.00045z" data-paper-data="{&quot;index&quot;:null}" fill="#8ecad1" stroke="none" stroke-width="0.5" stroke-linecap="butt"/><path d="M416.22294,226.0873c0,1.10482 -0.89563,2.00046 -2.00045,2.00046c-1.10482,0 -2.00046,-0.89563 -2.00046,-2.00046c0,-1.10482 0.89563,-2.00045 2.00046,-2.00045c1.10482,0 2.00045,0.89563 2.00045,2.00045z" data-paper-data="{&quot;index&quot;:null}" fill="#8ecad1" stroke="none" stroke-width="0.5" stroke-linecap="butt"/><path d="M438.22976,302.10208c0,1.10482 -0.89564,2.00045 -2.00046,2.00045c-1.10482,0 -2.00045,-0.89563 -2.00045,-2.00045c0,-1.10482 0.89563,-2.00045 2.00045,-2.00045c1.10482,0 2.00046,0.89563 2.00046,2.00045z" data-paper-data="{&quot;index&quot;:null}" fill="#8ecad1" stroke="none" stroke-width="0.5" stroke-linecap="butt"/><path d="M220.43027,302.10208c0,0.69052 -0.55976,1.25028 -1.25028,1.25028c-0.69052,0 -1.25029,-0.55977 -1.25029,-1.25028c0,-0.69052 0.55977,-1.25029 1.25029,-1.25029c0.69052,0 1.25028,0.55977 1.25028,1.25029z" data-paper-data="{&quot;index&quot;:null}" fill="#c6e9ed" stroke="none" stroke-width="0.5" stroke-linecap="butt"/><path d="M173.41959,308.10344c0,0.69052 -0.55977,1.25028 -1.25029,1.25028c-0.69052,0 -1.25028,-0.55977 -1.25028,-1.25028c0,-0.69052 0.55976,-1.25028 1.25028,-1.25028c0.69052,0 1.25029,0.55976 1.25029,1.25028z" data-paper-data="{&quot;index&quot;:null}" fill="#c6e9ed" stroke="none" stroke-width="0.5" stroke-linecap="butt"/><path d="M112.40571,259.0923c0,0.69052 -0.55977,1.25029 -1.25029,1.25029c-0.69052,0 -1.25028,-0.55977 -1.25028,-1.25029c0,-0.69052 0.55976,-1.25028 1.25028,-1.25028c0.69052,0 1.25029,0.55976 1.25029,1.25028z" data-paper-data="{&quot;index&quot;:null}" fill="#c6e9ed" stroke="none" stroke-width="0.5" stroke-linecap="butt"/><path d="M343.45826,306.10299c0,0.69052 -0.55977,1.25028 -1.25029,1.25028c-0.69052,0 -1.25028,-0.55977 -1.25028,-1.25028c0,-0.69052 0.55976,-1.25028 1.25028,-1.25028c0.69052,0 1.25029,0.55977 1.25029,1.25028z" data-paper-data="{&quot;index&quot;:null}" fill="#c6e9ed" stroke="none" stroke-width="0.5" stroke-linecap="butt"/><path d="M468.0954,231.88613c0,0.27621 -0.22391,0.50011 -0.50011,0.50011c-0.27621,0 -0.50012,-0.22391 -0.50012,-0.50011c0,-0.27621 0.22391,-0.50012 0.50012,-0.50012c0.27621,0 0.50011,0.22391 0.50011,0.50012z" data-paper-data="{&quot;index&quot;:null}" fill="#8ecad1" stroke="none" stroke-width="0.5" stroke-linecap="butt"/><path d="M-11.11618,366.44918c0,0 2.78084,-88.88755 1.23837,-127.978h499.40874l-1.59805,127.97802z" data-paper-data="{&quot;index&quot;:null}" fill="url(#color-16)" stroke="none" stroke-width="1.28528" stroke-linecap="butt"/><path d="M99.5345,272.05766h280.38073v99.27313h-280.38073z" fill="url(#color-17)" stroke="none" stroke-width="1.11058" stroke-linecap="butt"/><path d="M72.69988,289.38975l160.68778,-304.46116l169.14578,304.46116z" fill="url(#color-18)" stroke="none" stroke-width="1.06271" stroke-linecap="round"/></g></g></svg>