<svg version="1.1" xmlns="http://www.w3.org/2000/svg" xmlns:xlink="http://www.w3.org/1999/xlink" width="40.74336" height="41.01807" viewBox="0,0,40.74336,41.01807"><defs><linearGradient x1="240.01307" y1="159.52908" x2="240.01307" y2="200.54715" gradientUnits="userSpaceOnUse" id="color-1"><stop offset="0" stop-color="#ff2500"/><stop offset="1" stop-color="#ff000c"/></linearGradient></defs><g transform="translate(-219.64138,-159.52909)"><g data-paper-data="{&quot;isPaintingLayer&quot;:true}" fill-rule="nonzero" stroke-width="0" stroke-linecap="butt" stroke-linejoin="miter" stroke-miterlimit="10" stroke-dasharray="" stroke-dashoffset="0" style="mix-blend-mode: normal"><path d="M241.14564,159.53862h13.04788c0,0 3.28695,-0.19554 4.56648,1.18455c1.50001,1.6179 1.62475,4.28301 1.62475,4.28301v7.11144l-0.09113,15.841v7.11145c0,0 -0.12474,2.66511 -1.62475,4.28301v-0.00001c-1.27953,1.38009 -4.56648,1.18455 -4.56648,1.18455h-13.04788h-2.17379h-13.04788c0,0 -3.28695,0.19554 -4.56648,-1.18455c-1.50001,-1.6179 -1.62475,-4.28301 -1.62475,-4.28301v-7.11144l-0.00022,-15.84056v-7.11145c0,0 0.12592,-2.66511 1.64014,-4.28301v0.00001c1.29165,-1.38009 4.60974,-1.18455 4.60974,-1.18455h13.17147z" data-paper-data="{&quot;origPos&quot;:null}" fill="url(#color-1)" stroke="#000000"/><path d="M231.77247,171.61723c0,0 -8.69977,-7.97416 -10.29095,-9.92627c-0.66579,-0.81681 0.98577,-1.73788 3.27849,-1.73788c4.65609,0 21.76907,0 30.3,0c2.97142,0 4.14928,0.92305 3.48246,1.74112c-1.59189,1.95298 -10.28831,9.92303 -10.28831,9.92303z" fill="#ff5800" stroke="none"/><path d="M248.25415,188.45308c0,0 8.69642,7.97004 10.28831,9.92303c0.66681,0.81807 -0.51104,1.74112 -3.48246,1.74112c-8.53092,0 -25.64391,0 -30.3,0c-2.29271,0 -3.94428,-0.92107 -3.27849,-1.73788c1.59118,-1.95211 10.29095,-9.92627 10.29095,-9.92627z" data-paper-data="{&quot;index&quot;:null}" fill="#bb0009" stroke="none"/><path d="M231.81818,188.31818v-16.63636h16.36364v16.63636z" fill="#ff3600" stroke="none"/></g></g></svg>