<svg version="1.1" xmlns="http://www.w3.org/2000/svg" xmlns:xlink="http://www.w3.org/1999/xlink" width="96.7891" height="99.10703" viewBox="0,0,96.7891,99.10703"><defs><linearGradient x1="246.70195" y1="138.11993" x2="246.70195" y2="174.00952" gradientUnits="userSpaceOnUse" id="color-1"><stop offset="0" stop-color="#e73a0f"/><stop offset="1" stop-color="#921d13"/></linearGradient><linearGradient x1="233.24336" y1="170.48465" x2="225.71295" y2="170.48465" gradientUnits="userSpaceOnUse" id="color-2"><stop offset="0" stop-color="#921d13"/><stop offset="1" stop-color="#a82317"/></linearGradient><radialGradient cx="213.00941" cy="146.13997" r="4.44012" gradientUnits="userSpaceOnUse" id="color-3"><stop offset="0" stop-color="#ffffff"/><stop offset="1" stop-color="#a08e90"/></radialGradient><radialGradient cx="219.28859" cy="144.12762" r="6.93432" gradientUnits="userSpaceOnUse" id="color-4"><stop offset="0" stop-color="#ffffff"/><stop offset="1" stop-color="#a08e90"/></radialGradient></defs><g transform="translate(-204.28881,-120.48767)"><g data-paper-data="{&quot;isPaintingLayer&quot;:true}" fill-rule="nonzero" stroke-linejoin="miter" stroke-miterlimit="10" stroke-dasharray="" stroke-dashoffset="0" style="mix-blend-mode: normal"><g stroke="none" stroke-linecap="round"><path d="M279.29434,197.07374c1.72546,1.08307 2.4823,3.50023 2.50605,5.52205c0.0655,1.7323 -0.96323,3.53334 -2.26313,4.67435c-1.92592,1.69217 -4.49081,2.5478 -6.86946,3.52398c-3.36257,1.38052 -6.69959,3.78886 -10.32218,3.56807c-1.96587,-0.09609 -4.04041,-2.42633 -3.90798,-4.37528c0.21503,-3.16536 2.49597,-6.08366 4.75748,-8.36802c2.41968,-2.39665 5.53501,-4.26732 8.83551,-5.22479c2.33276,-0.67622 5.20608,-0.61163 7.26371,0.67964z" data-paper-data="{&quot;index&quot;:null}" fill="#d8b199" stroke-width="0.47213"/><path d="M292.36081,187.37271c-1.14767,3.30715 -9.28644,1.06166 -11.68129,4.04077c-2.5334,3.15942 2.94709,8.44341 -0.21251,11.32788c-3.22996,2.94115 -10.4809,3.98355 -14.44232,1.55416c-5.34805,-3.28574 -6.95205,-9.79028 -7.22125,-15.28228c-0.20315,-4.19769 2.1289,-9.04099 6.28663,-11.53589c6.28753,-3.77068 15.03469,-8.1645 21.96101,-5.61149c6.11766,2.17981 7.09816,10.35746 5.30972,15.50685z" data-paper-data="{&quot;index&quot;:null}" fill="#814719" stroke-width="0.43026"/></g><g stroke="none" stroke-linecap="round"><path d="M244.43977,146.85197c0.88351,8.46231 -2.94925,16.92784 -5.14742,25.19653c-1.97199,7.42062 -3.15384,15.52808 -7.11292,22.07959c-2.2059,3.39892 -6.556,6.931 -10.22681,5.90696c-4.14064,-1.15505 -7.41955,-6.32856 -8.02109,-10.9761c-0.72841,-7.26317 2.77416,-14.5258 4.36863,-21.74345c1.88759,-8.54508 1.96443,-18.07353 6.45542,-25.47473c2.12745,-3.28142 7.39956,-3.38219 10.88432,-2.51181c3.68557,0.9204 8.29496,3.54414 8.79987,7.52301z" data-paper-data="{&quot;index&quot;:null}" fill="#814719" stroke-width="0.40022"/><path d="M228.14479,195.35637c1.47066,3.05757 -1.35244,7.4845 0.7221,10.17337c1.39077,1.80032 5.08552,-1.78988 6.96645,-0.40343c1.44421,1.10179 1.49783,4.65797 -0.1274,5.52205c-4.08054,2.16974 -9.26197,2.77812 -13.76286,1.78412c-3.58085,-0.79012 -7.4217,-3.5274 -8.58053,-6.90275c-1.38142,-4.03951 -0.65337,-9.1191 1.61408,-12.72207c1.30584,-2.02615 4.8111,-1.52411 7.13631,-1.06184c2.29552,0.45615 4.98188,1.52321 6.03184,3.61053z" data-paper-data="{&quot;index&quot;:null}" fill="#d8b199" stroke-width="0.47213"/></g><path d="M251.73588,141.07889c7.02709,2.10604 15.63298,6.51641 24.14783,12.73143c8.51485,6.21519 15.33861,13.06702 19.48663,19.11756c4.14766,6.0491 6.8288,11.58735 3.4243,14.3025c-5.71405,4.54857 -16.23831,5.16559 -25.03118,2.42364c-13.09707,-4.08504 -25.28381,-13.40513 -36.77814,-21.90108c-5.39682,-3.98643 -13.4879,-9.21374 -13.57481,-14.85168c0.12578,-6.1191 8.24368,-8.43045 13.65975,-10.72364c4.17735,-1.77242 7.64015,-3.20495 14.66562,-1.09873z" data-paper-data="{&quot;index&quot;:null}" fill="#96521e" stroke="none" stroke-width="0.5448" stroke-linecap="round"/><g data-paper-data="{&quot;index&quot;:null}" stroke="none" stroke-width="1"><path d="M246.38151,144.36856l-0.96132,7.37018l-2.56354,9.13262l-5.9282,8.17129l-4.16576,4.96686l-2.72376,-0.64088l6.24863,-9.61328l4.32599,-7.37018l1.76243,-5.60775l0.80111,-6.56907v-6.08841l3.52487,0.32044z" fill="url(#color-1)" stroke-linecap="round"/><g><path d="M235.48645,202.68915l-7.85085,9.61328l-4.64641,-11.21549l5.12708,-23.07189l3.68509,0.32045z" fill="#ed0000" stroke-linecap="round"/><path d="M231.96159,178.49572l-4.16577,0.16022l-2.08287,-6.56908l2.2431,-1.44199l3.52486,-0.16022l1.76244,2.2431z" fill="url(#color-2)" stroke-linecap="round"/><text transform="translate(233.48176,204.0194) rotate(-180) scale(0.28142,-0.38042) skewX(0)" font-size="22" xml:space="preserve" fill="#ffff00" fill-rule="nonzero" stroke="none" stroke-width="1" stroke-linecap="butt" stroke-linejoin="miter" stroke-miterlimit="10" stroke-dasharray="" stroke-dashoffset="0" font-family="Sans Serif" font-weight="400" text-anchor="start" style="mix-blend-mode: normal"><tspan x="0" dy="0">DK</tspan></text><text transform="translate(233.06295,203.58466) rotate(-180) scale(0.25043,-0.33853) skewX(0)" font-size="22" xml:space="preserve" fill="#ff0000" fill-rule="nonzero" stroke="none" stroke-width="1" stroke-linecap="butt" stroke-linejoin="miter" stroke-miterlimit="10" stroke-dasharray="" stroke-dashoffset="0" font-family="Sans Serif" font-weight="400" text-anchor="start" style="mix-blend-mode: normal"><tspan x="0" dy="0">DK</tspan></text><text transform="translate(232.63996,203.35881) rotate(-180) scale(0.22165,-0.29962)" font-size="22" xml:space="preserve" fill="#ffff00" fill-rule="nonzero" stroke="none" stroke-width="1" stroke-linecap="butt" stroke-linejoin="miter" stroke-miterlimit="10" stroke-dasharray="" stroke-dashoffset="0" font-family="Sans Serif" font-weight="400" text-anchor="start" style="mix-blend-mode: normal"><tspan x="0" dy="0">DK</tspan></text></g></g><g data-paper-data="{&quot;index&quot;:null}"><path d="M241.07818,133.15307c2.30078,3.76136 2.60425,8.68945 2.2431,13.05804c-0.32269,3.90331 -1.66053,8.13092 -4.34359,10.92999c-2.68275,2.79874 -6.68444,4.78293 -10.47688,4.53137c-4.72108,-0.31243 -9.54214,-2.70839 -13.05804,-5.9282c-1.9531,-1.87139 -1.57337,-4.56983 -1.92266,-6.88951c-0.24418,-1.83357 0.31723,-3.63863 0.16022,-5.44753c-0.1128,-1.32599 -1.41187,-2.64333 -1.12155,-4.00554c0.88986,-3.30121 3.10958,-6.12943 4.4862,-9.29284c0.47521,-1.08533 1.04241,-2.19823 0.96133,-3.36464c-0.02276,-0.81617 -0.54059,-2.13639 -1.28177,-2.08288c-0.97831,0.06281 -1.97649,2.80707 -2.2431,2.40332c-0.3025,-0.48772 -0.23457,-3.44669 0.80111,-4.64642c1.35644,-1.31478 3.51269,-1.80793 5.44753,-1.92265c1.58107,-0.09261 2.90353,1.63586 4.4862,1.60221c1.08886,-0.02467 1.68264,-1.74032 2.72376,-1.60221c0.79118,0.11023 0.70402,1.35579 1.12156,1.92265c0.49156,0.82354 0.75657,1.49903 1.60221,2.24311c3.35984,2.9548 8.01811,4.58425 10.41438,8.49173z" fill="#814719" stroke="none" stroke-width="1" stroke-linecap="round"/><path d="M215.73692,145.23119c0.36275,0.38421 0.58705,0.91486 0.58705,1.50063c0,0.58578 -0.2243,1.11643 -0.58705,1.50064c-0.36242,0.38453 -0.86327,0.6223 -1.41571,0.6223c-0.55244,0 -1.0533,-0.23776 -1.41572,-0.6223c-0.36275,-0.38421 -0.58705,-0.91486 -0.58705,-1.50064c0,-0.58578 0.2243,-1.11642 0.58705,-1.50063c0.36242,-0.38453 0.86328,-0.6223 1.41572,-0.6223c0.55244,0 1.05329,0.23776 1.41571,0.6223z" fill="url(#color-3)" stroke="none" stroke-width="1" stroke-linecap="butt"/><path d="M223.59482,142.87338c0.754,0.6598 1.22088,1.57112 1.22088,2.57667c0,1.00555 -0.46688,1.91688 -1.22088,2.57667c-0.754,0.6598 -1.79543,1.06836 -2.94487,1.06836c-1.14943,0 -2.19087,-0.40857 -2.94487,-1.06836c-0.754,-0.6598 -1.22089,-1.57112 -1.22089,-2.57667c0,-1.00555 0.46689,-1.91688 1.22089,-2.57667c0.754,-0.6598 1.79544,-1.06836 2.94487,-1.06836c1.14943,0 2.19087,0.40856 2.94487,1.06836z" fill="url(#color-4)" stroke="none" stroke-width="1" stroke-linecap="butt"/><path d="M230.34335,132.6724c1.01772,1.86049 1.37886,4.25163 0.72099,6.24863c-1.08053,3.58319 -3.44348,6.69885 -5.68786,9.69339c-0.5611,0.74856 -1.42533,0.70786 -1.60222,0.24033c-0.32364,-0.8636 0.26437,-2.07935 0.64089,-3.04421c0.73413,-1.88068 2.06589,-3.47424 2.72376,-5.36741c0.25955,-0.74599 0.38325,-2.26521 -0.08011,-2.32321c-0.57327,-0.07145 -1.07862,1.69194 -1.92266,2.16299c-2.48023,1.37855 -5.06331,2.54527 -7.77074,3.28454c-1.72526,0.50405 -3.55243,0.69248 -5.36741,0.40056c-0.59955,-0.0987 -0.93473,-0.86937 -0.96133,-1.52211c-0.05672,-1.28305 -0.11248,-2.90578 0.88122,-3.76521c0.86807,-0.74951 2.39051,0.56206 3.44476,0.08011c2.58822,-1.21416 4.61822,-3.44187 7.04973,-4.96686c1.46507,-0.91935 2.88527,-2.07165 4.64642,-2.32321c1.15295,-0.16439 2.72569,0.18008 3.28454,1.20166z" fill="#edc2a8" stroke="none" stroke-width="1" stroke-linecap="round"/><path d="M243.4815,138.60059c1.06419,1.41123 1.51603,3.41048 1.20166,5.12709c-0.29192,1.83486 -1.47468,3.53126 -2.88398,4.72652c-1.38656,1.17603 -3.27076,2.09346 -5.04697,2.08289c-1.24331,-0.00706 -2.70742,-0.92448 -3.04421,-2.16299c-0.36626,-1.35259 0.99947,-2.62474 1.52211,-3.92542c0.60019,-1.49263 0.80687,-3.14771 1.76243,-4.40608c0.77835,-1.02606 1.92523,-1.99892 3.20443,-2.32321c1.10265,-0.20508 2.60263,-0.02308 3.28453,0.88121z" fill="#edc2a8" stroke="none" stroke-width="1" stroke-linecap="round"/><path d="M238.03398,145.16967c0,0 0.19804,-0.54123 0.32044,-0.80111c0.09165,-0.19451 0.21373,-0.37395 0.32044,-0.56077c0.1067,-0.18681 0.18939,-0.39031 0.32045,-0.56078c0.13812,-0.17944 0.28583,-0.36562 0.48066,-0.48066c0.4012,-0.23712 0.83988,-0.41338 1.28177,-0.56078c0.20412,-0.06794 0.42683,-0.0596 0.64089,-0.08011c0.34639,-0.033 1.04143,-0.08011 1.04143,-0.08011" fill="none" stroke="#8f4d28" stroke-width="2" stroke-linecap="round"/><g fill="#000000" stroke="none" stroke-width="1.0037" stroke-linecap="butt"><path d="M214.54453,145.46576c0.2031,0.23956 0.32871,0.56994 0.32871,0.93457c0,0.36463 -0.12561,0.69501 -0.32871,0.93457c-0.2031,0.23922 -0.48342,0.38725 -0.79284,0.38725c-0.30939,0 -0.58972,-0.14804 -0.79284,-0.38725c-0.2031,-0.23956 -0.32871,-0.56994 -0.32871,-0.93457c0,-0.36463 0.12561,-0.69501 0.32871,-0.93457c0.20313,-0.23922 0.48346,-0.38726 0.79284,-0.38726c0.30942,0 0.58974,0.14804 0.79284,0.38726z"/></g><g fill="#000000" stroke="none" stroke-width="1" stroke-linecap="butt"><path d="M219.75624,144.7015c0.30474,0.30442 0.49316,0.72517 0.49316,1.18917c0,0.464 -0.18842,0.88475 -0.49316,1.18917c-0.30442,0.30474 -0.72517,0.49317 -1.18917,0.49317c-0.464,0 -0.88475,-0.18842 -1.18916,-0.49317c-0.30474,-0.30442 -0.49316,-0.72517 -0.49316,-1.18917c0,-0.464 0.18842,-0.88475 0.49316,-1.18917c0.30442,-0.30474 0.72516,-0.49316 1.18916,-0.49316c0.464,0 0.88475,0.18841 1.18917,0.49316z"/></g><path d="M231.00273,153.37177c1.99828,-1.44423 3.29127,-5.22835 5.76797,-4.64642c3.07432,0.72837 6.24736,4.56695 5.60775,7.69063c-1.23819,6.04196 -6.01086,11.0229 -10.57461,15.22102c-2.25912,1.94861 -5.77855,2.28188 -8.81218,2.2431c-3.25282,-0.04069 -6.96035,-0.34032 -9.61329,-2.2431c-3.48193,-2.69845 -8.78621,-7.38748 -7.69062,-10.73482c1.05041,-3.17078 8.19949,-1.72494 12.17683,-2.56354c2.28283,-0.48291 4.75888,-0.40088 6.88951,-1.28177c2.32033,-0.80175 4.31221,-2.28764 6.24864,-3.68509z" fill="#edc2a8" stroke="none" stroke-width="1" stroke-linecap="round"/><g fill="#edc2a8" stroke="none" stroke-width="1" stroke-linecap="round"><path d="M237.63343,149.41554c0.83058,0.27878 0.1458,1.17666 -0.96133,1.84255c-4.16159,2.59719 -8.38343,5.42734 -13.13816,6.88952c-4.19684,1.29074 -8.74712,0.36915 -13.13815,1.12155c-1.83646,0.31596 -3.23777,1.95439 -5.12709,2.2431c-0.47682,0.07307 -1.09527,-0.47137 -0.96132,-1.04144c0.40055,-1.52819 1.68136,-2.65391 2.56354,-4.00554c1.30849,-1.8182 2.1311,-4.27927 3.47484,-6.10417c0.65505,-0.88961 1.43395,-1.62804 2.45335,-2.06712c4.41089,-1.8999 9.6277,-0.58769 14.41992,-0.32044c3.50661,0.10735 7.09526,0.3291 10.4144,1.44199z"/></g></g><path d="M211.6308,152.20796c0.17059,0.30626 0.08799,2.26871 -0.04103,2.53142c-0.11444,0.23338 -0.55404,-0.96107 -0.54684,-1.55866c0.00522,-0.44752 0.48782,-1.43719 0.57815,-1.18077z" data-paper-data="{&quot;index&quot;:null}" fill="none" stroke="#b1695f" stroke-width="0.81869" stroke-linecap="round"/><path d="M216.13542,152.75401c0.17059,0.30626 0.08799,2.26871 -0.04103,2.53143c-0.11444,0.23338 -0.55404,-0.96107 -0.54684,-1.55866c0.00522,-0.44752 0.48782,-1.4372 0.57815,-1.18078z" data-paper-data="{&quot;index&quot;:null}" fill="none" stroke="#b1695f" stroke-width="0.8187" stroke-linecap="round"/><g stroke="none" stroke-linecap="round"><path d="M271.611,154.22958c0.88351,8.46231 -2.94925,16.92785 -5.14742,25.19654c-1.97199,7.42062 -3.15384,15.52808 -7.11292,22.07959c-2.2059,3.39892 -6.556,6.931 -10.22681,5.90695c-4.14064,-1.15505 -7.41955,-6.32856 -8.02109,-10.9761c-0.72841,-7.26317 2.77416,-14.5258 4.36863,-21.74345c1.88759,-8.54508 1.96443,-18.07354 6.45542,-25.47473c2.12745,-3.28142 7.39956,-3.38219 10.88432,-2.51181c3.68557,0.9204 8.29496,3.54414 8.79987,7.52301z" data-paper-data="{&quot;index&quot;:null}" fill="#c06832" stroke-width="0.40022"/><path d="M255.31601,201.08374c1.47067,2.79881 -1.35244,6.8511 0.72211,9.31235c1.39077,1.64791 5.08552,-1.63855 6.96645,-0.36942c1.44421,1.00858 1.49783,4.2639 -0.1274,5.05474c-4.08054,1.98602 -9.26197,2.54294 -13.76285,1.63298c-3.58085,-0.72319 -7.4217,-3.2287 -8.58053,-6.3183c-1.38142,-3.69762 -0.65337,-8.34714 1.61408,-11.64529c1.30584,-1.85466 4.8111,-1.39509 7.13631,-0.97205c2.29552,0.41764 4.98188,1.39436 6.03183,3.30499z" data-paper-data="{&quot;index&quot;:null}" fill="#edc2a8" stroke-width="0.45259"/></g><g stroke="none" stroke-linecap="round"><path d="M288.92123,202.29205c1.72546,1.08307 2.4823,3.50023 2.50605,5.52206c0.0655,1.7323 -0.96323,3.53334 -2.26313,4.67435c-1.92592,1.69217 -4.49081,2.5478 -6.86946,3.52398c-3.36257,1.38052 -6.69959,3.78886 -10.32218,3.56807c-1.96587,-0.09609 -4.04041,-2.42634 -3.90798,-4.37529c0.21503,-3.16536 2.49597,-6.08366 4.75748,-8.36802c2.41968,-2.39665 5.53501,-4.26732 8.83551,-5.22479c2.33276,-0.67622 5.20608,-0.61163 7.26371,0.67964z" data-paper-data="{&quot;index&quot;:null}" fill="#edc2a8" stroke-width="0.47213"/><path d="M300.27826,189.17213c-1.14767,3.30715 -9.28644,1.06166 -11.68129,4.04077c-2.5334,3.15942 2.94709,8.44341 -0.21251,11.32788c-3.22996,2.94115 -10.48089,3.98355 -14.44231,1.55416c-5.34805,-3.28574 -6.95205,-9.79028 -7.22125,-15.28228c-0.20315,-4.19769 2.12889,-9.041 6.28663,-11.53589c6.28753,-3.77068 15.03469,-8.1645 21.96101,-5.61149c6.11766,2.17981 7.09816,10.35746 5.30973,15.50685z" data-paper-data="{&quot;index&quot;:null}" fill="#c06832" stroke-width="0.43026"/></g></g></g></svg>