<svg version="1.1" xmlns="http://www.w3.org/2000/svg" xmlns:xlink="http://www.w3.org/1999/xlink" width="655.77188" height="378.25616" viewBox="0,0,655.77188,378.25616"><defs><linearGradient x1="341.23087" y1="186.32237" x2="341.23087" y2="359.93233" gradientUnits="userSpaceOnUse" id="color-1"><stop offset="0" stop-color="#a5a5a5"/><stop offset="1" stop-color="#989898"/></linearGradient><linearGradient x1="495.87867" y1="186.45651" x2="495.87867" y2="217.98807" gradientUnits="userSpaceOnUse" id="color-2"><stop offset="0" stop-color="#afafaf"/><stop offset="1" stop-color="#9c9c9c"/></linearGradient><radialGradient cx="561.44325" cy="180.00012" r="180.93093" gradientUnits="userSpaceOnUse" id="color-3"><stop offset="0" stop-color="#afafaf"/><stop offset="1" stop-color="#616161"/></radialGradient><linearGradient x1="579.08589" y1="180.00012" x2="543.8006" y2="180.00012" gradientUnits="userSpaceOnUse" id="color-4"><stop offset="0" stop-color="#afafaf" stop-opacity="0"/><stop offset="1" stop-color="#afafaf"/></linearGradient></defs><g transform="translate(7.78294,3.40034)"><g data-paper-data="{&quot;isPaintingLayer&quot;:true}" fill-rule="nonzero" stroke-linejoin="miter" stroke-miterlimit="10" stroke-dasharray="" stroke-dashoffset="0" style="mix-blend-mode: normal"><path d="M428.49219,200.68166h106.63814l31.25,-23l0.0293,-180.68719l77.18043,-0.3948l4.39888,378.25616h-423.70095z" data-paper-data="{&quot;index&quot;:null}" fill="#272727" stroke="#000000" stroke-width="0" stroke-linecap="round"/><g data-paper-data="{&quot;index&quot;:null}" fill="#cc1919" stroke="none" stroke-linecap="butt"><path d="M-7.78294,210.00009h205.98894l-53,26h-152.98894z" data-paper-data="{&quot;index&quot;:null}" stroke-width="1"/><path d="M167.206,185.45657h46l40,26h-134.011z" data-paper-data="{&quot;index&quot;:null}" stroke-width="0.85398"/></g><path d="M218.55634,359.93233l207.56881,-173.60992h52.79526l-207.14465,173.4602z" data-paper-data="{&quot;index&quot;:null}" fill="url(#color-1)" stroke="none" stroke-width="0" stroke-linecap="butt"/><path d="M426.05885,217.98807v-31.53153h153.03975l-28.8821,31.53153z" data-paper-data="{&quot;index&quot;:null}" fill="url(#color-2)" stroke="none" stroke-width="0" stroke-linecap="butt"/><g data-paper-data="{&quot;index&quot;:null}" stroke="none" stroke-width="0" stroke-linecap="butt"><path d="M543.8006,-0.93079h35.28529v187.40985l-35.28529,1z" fill="url(#color-3)"/><path d="M543.8006,-0.93079h35.28529v187.40985l-35.28529,1z" fill="url(#color-4)"/></g></g></g></svg>