<svg version="1.1" xmlns="http://www.w3.org/2000/svg" xmlns:xlink="http://www.w3.org/1999/xlink" width="55.45" height="80.75" viewBox="0,0,55.45,80.75"><g transform="translate(-212.2755,-139.625)"><g data-paper-data="{&quot;isPaintingLayer&quot;:true}" fill="#ffffff" fill-rule="evenodd" stroke="#000000" stroke-width="0.25" stroke-linecap="round" stroke-linejoin="miter" stroke-miterlimit="10" stroke-dasharray="" stroke-dashoffset="0" style="mix-blend-mode: normal"><path d="M254.3215,210.808c-2.44417,3.00187 -5.23755,5.70159 -8.321,8.042c-1.3,1 -2.6,1.4 -3.9,1.4c-3.736,0 -7.222,-3.404 -7.812,-6.807c-0.05772,-0.32787 -0.08716,-0.66009 -0.088,-0.993c-0.01668,-1.06532 0.29092,-2.11054 0.882,-2.997c0.33743,-0.4937 0.74815,-0.93308 1.218,-1.303c1.08816,-0.85183 2.13755,-1.75207 3.145,-2.698c5.828,-5.483 8.842,-11.357 10.535,-17.077c0.84499,-2.95532 1.45358,-5.97317 1.82,-9.025c0.5,-4.1 0.8,-7.9 0.8,-11.9c-0.00957,-2.70988 -0.10896,-5.4187 -0.298,-8.122c-0.148,-2.246 -0.348,-4.626 -0.588,-7.206c-0.19634,-2.09147 -0.40101,-4.18216 -0.614,-6.272v-0.5c0,-3.5 3.9,-5.6 7.7,-5.6c2.598,0 5.14,0.936 6.483,3.095c0.50054,0.82341 0.81362,1.74695 0.917,2.705c0.625,5.313 1.016,9.648 1.221,13.423c0.11672,2.09032 0.17641,4.18343 0.179,6.277c0,5.4 -0.4,9.9 -1.3,15.6c-1.388,9.332 -4.204,20.388 -11.979,29.958zM227.0005,163.95c0,-6 0.2,-12.1 0.8,-17.9v-0.4c-0.0594,-1.88515 -1.23263,-3.55501 -2.986,-4.25c-1.38202,-0.64204 -2.89021,-0.96664 -4.414,-0.95c-0.10301,-0.00014 -0.20602,0.0012 -0.309,0.004c-1.702,0.049 -3.403,0.499 -4.692,1.376c-1.25577,0.79932 -2.06845,2.13715 -2.199,3.62c-0.5,6.2 -0.8,12.4 -0.8,18.6c0,7.4 0.4,14.8 1.3,21.9c0.28506,1.94947 1.6712,3.55852 3.557,4.129c1.0716,0.38728 2.20361,0.58063 3.343,0.571c0.09501,-0.00002 0.19002,-0.00135 0.285,-0.004c3.607,-0.1 7.215,-2.091 7.215,-5.696v-0.7c-0.45864,-3.68464 -0.76257,-7.38689 -0.911,-11.097c-0.12976,-3.06593 -0.19278,-6.13433 -0.189,-9.203z"/></g></g></svg>