<svg version="1.1" xmlns="http://www.w3.org/2000/svg" xmlns:xlink="http://www.w3.org/1999/xlink" width="698.14715" height="449.44746" viewBox="0,0,698.14715,449.44746"><defs><linearGradient x1="396.57658" y1="125.94595" x2="396.57658" y2="337.65766" gradientUnits="userSpaceOnUse" id="color-1"><stop offset="0" stop-color="#af9141"/><stop offset="1" stop-color="#ddb747"/></linearGradient><linearGradient x1="67.94006" y1="-17.23596" x2="67.94006" y2="400.18145" gradientUnits="userSpaceOnUse" id="color-2"><stop offset="0" stop-color="#af9141"/><stop offset="1" stop-color="#ddb747"/></linearGradient><linearGradient x1="379.74186" y1="335.10638" x2="379.74186" y2="380.15142" gradientUnits="userSpaceOnUse" id="color-3"><stop offset="0" stop-color="#af9141"/><stop offset="1" stop-color="#ddb747"/></linearGradient><linearGradient x1="295.97598" y1="-31.71171" x2="295.97598" y2="44.86486" gradientUnits="userSpaceOnUse" id="color-4"><stop offset="0" stop-color="#af9141"/><stop offset="1" stop-color="#ddb747"/></linearGradient><linearGradient x1="588.01802" y1="-24.2042" x2="588.01802" y2="415.73574" gradientUnits="userSpaceOnUse" id="color-5"><stop offset="0" stop-color="#af9141"/><stop offset="1" stop-color="#ddb747"/></linearGradient></defs><g transform="translate(50.58559,32.71172)"><g data-paper-data="{&quot;isPaintingLayer&quot;:true}" fill-rule="nonzero" stroke-linecap="butt" stroke-linejoin="miter" stroke-miterlimit="10" stroke-dasharray="" stroke-dashoffset="0" style="mix-blend-mode: normal"><path d="M320.75075,337.65766v-211.71171h151.65165v211.71171z" fill="url(#color-1)" stroke="#91773e" stroke-width="2"/><path d="M-9.60349,400.18145v-417.41742l121.08709,0v417.41742z" fill="url(#color-2)" stroke="#91773e" stroke-width="2"/><path d="M186.04816,380.15142v-45.04504h387.38739v45.04504z" fill="url(#color-3)" stroke="#91773e" stroke-width="2"/><path d="M-49.58559,44.86486v-76.57658l657.12312,0v76.57658z" fill="url(#color-4)" stroke="#91773e" stroke-width="2"/><path d="M544.47447,415.73574v-439.93994c0,0 90.89204,0 99.40507,0c1.51751,0 2.68202,0 2.68202,0v439.93994z" fill="url(#color-5)" stroke="#91773e" stroke-width="2"/><text transform="translate(333.5,148) scale(0.5,0.5)" font-size="40" xml:space="preserve" fill="#d7b350" fill-rule="nonzero" stroke="none" stroke-width="1" stroke-linecap="butt" stroke-linejoin="miter" stroke-miterlimit="10" stroke-dasharray="" stroke-dashoffset="0" font-family="Handwriting" font-weight="normal" text-anchor="start" style="mix-blend-mode: normal"><tspan x="0" dy="0">he Sec n d Numb</tspan><tspan x="0" dy="46.150000000000006px">er of t e c d e is</tspan><tspan x="0" dy="46.150000000000006px">9</tspan></text><path d="M329.75,149.5c-2.5,0 -2.5,-2.5 -2.5,-2.5c0,-2.5 0,-6 0,-8.5c0,0 0,-2.5 2.5,-2.5c2.5,0 2.5,2.5 2.5,2.5c0,2.5 0,5 0,7.5v1c0,0 0,2.5 -2.5,2.5z" fill="#d7b350" stroke="none" stroke-width="0.5"/><path d="M388.25,142c0,-1.38071 1.11929,-2.5 2.5,-2.5c1.38071,0 2.5,1.11929 2.5,2.5c0,1.38071 -1.11929,2.5 -2.5,2.5c-1.38071,0 -2.5,-1.11929 -2.5,-2.5z" fill="#d7b350" stroke="none" stroke-width="0.5"/><path d="M404.75,137.5c0,-1.38071 1.11929,-2.5 2.5,-2.5c1.38071,0 2.5,1.11929 2.5,2.5c0,1.38071 -1.11929,2.5 -2.5,2.5c-1.38071,0 -2.5,-1.11929 -2.5,-2.5z" fill="#d7b350" stroke="none" stroke-width="0.5"/><path d="M402.25,143c0,-1.38071 1.11929,-2.5 2.5,-2.5c1.38071,0 2.5,1.11929 2.5,2.5c0,1.38071 -1.11929,2.5 -2.5,2.5c-1.38071,0 -2.5,-1.11929 -2.5,-2.5z" fill="#d7b350" stroke="none" stroke-width="0.5"/><path d="M386.00446,165.98838c1.38071,0 2.5,1.11929 2.5,2.5c0,1.38071 -1.11929,2.5 -2.5,2.5c-0.30351,0 -0.59439,-0.05409 -0.86352,-0.15314c-0.32778,0.5911 -0.95111,1.15314 -2.13648,1.15314c-2.5,0 -2.5,-2.5 -2.5,-2.5c0.01404,-3.1694 0.51211,-5.48114 1.67881,-8.42848l0.44948,-1.36209c0,0 0.79057,-2.37171 3.16228,-1.58114c2.37171,0.79057 1.58114,3.16228 1.58114,3.16228l-0.55052,1.63791c-0.46269,1.14262 -0.78783,2.1044 -0.99982,3.07781c0.059,-0.00417 0.11856,-0.00628 0.17862,-0.00628z" fill="#d7b350" stroke="none" stroke-width="0.5"/><path d="M411.00446,165.48838c0,-1.38071 1.11929,-2.5 2.5,-2.5c1.38071,0 2.5,1.11929 2.5,2.5c0,1.38071 -1.11929,2.5 -2.5,2.5c-1.38071,0 -2.5,-1.11929 -2.5,-2.5z" fill="#d7b350" stroke="none" stroke-width="0.5"/><path d="M421.50446,165.48838c0,-1.38071 1.11929,-2.5 2.5,-2.5c1.38071,0 2.5,1.11929 2.5,2.5c0,1.38071 -1.11929,2.5 -2.5,2.5c-1.38071,0 -2.5,-1.11929 -2.5,-2.5z" fill="#d7b350" stroke="none" stroke-width="0.5"/><path d="M357.61963,242.18497c0,2.5 -2.5,2.5 -2.5,2.5h-2.37354c-5.79545,0 -11.59788,0.01547 -17.35597,0.66287c0,0 -2.48471,0.27608 -2.76079,-2.20863c-0.27608,-2.48471 2.20863,-2.76079 2.20863,-2.76079c5.94598,-0.65349 11.92532,-0.69345 17.90813,-0.69345h2.37354c0,0 2.5,0 2.5,2.5z" fill="#af9141" stroke="none" stroke-width="0.5"/><path d="M387.78352,239.47051c-2.37171,0.79057 -3.16228,-1.58114 -3.16228,-1.58114l-0.30819,-0.92999c-1.4103,-3.78375 -2.18698,-7.7189 -3.10128,-11.6489c-0.27913,0.39761 -0.60151,0.74985 -1.01124,1.01045c-5.65675,3.59788 -14.80832,-3.22809 -14.01324,-9.3784c0.20592,-1.59286 0.40348,-3.50154 1.63508,-4.53245c1.13428,-0.94945 2.92747,-0.50161 4.4065,-0.52466c2.59982,-0.04051 3.77439,0.62459 6.14771,1.51066c1.87781,0.70107 3.70567,1.55406 5.44871,2.54376c0,0 2.17061,1.24035 0.93026,3.41096c-0.00634,0.01109 -0.0127,0.02209 -0.01908,0.033l0.48541,1.13263l-0.03297,0.01413c0.03915,0.06729 0.07737,0.13521 0.11458,0.20379c0.52864,0.97441 0.47647,2.16544 0.73181,3.2442c0.89402,3.77708 1.58787,7.59271 2.9594,11.22522l0.36996,1.10447c0,0 0.79057,2.37171 -1.58114,3.16228zM371.91818,216.87576c-0.37125,-0.08986 -0.67676,-0.69479 -1.01875,-0.52466c-0.27913,0.13887 0.22734,0.5853 0.27877,0.8928c0.08556,0.51155 -0.10448,1.08787 0.12991,1.55055c0.57957,1.14406 4.67184,4.64465 6.20152,3.31232c0.51289,-0.44672 0.59312,-1.22128 0.87433,-1.84355l-0.0041,-0.00234l0.65764,-1.15087c-2.28829,-1.01423 -4.57184,-1.61766 -7.11932,-2.23425z" fill="#af9141" stroke="none" stroke-width="0.5"/><path d="M427.39503,237.02699c-0.60634,2.42536 -3.0317,1.81902 -3.0317,1.81902l-0.74997,-0.26443c-2.8333,-0.00477 -5.48433,-0.50739 -8.29321,-0.68299c-4.71303,-0.29463 -9.39282,0.336 -14.08593,0.34391c0,0 -2.5,0 -2.5,-2.5c0,-2.5 2.5,-2.5 2.5,-2.5c4.79468,0.00906 9.57856,-0.63531 14.39661,-0.33425c2.71287,0.16952 5.25116,0.67848 7.98252,0.67332l1.96265,0.41372c0,0 2.42536,0.60634 1.81902,3.0317z" fill="#af9141" stroke="none" stroke-width="0.5"/><path d="M464.42915,238.45511c0,2.5 -2.5,2.5 -2.5,2.5l-1.28449,-0.07464c-7.45809,-1.87814 -15.47093,-2.2989 -23.12911,-2.2989c0,0 -2.5,0 -2.5,-2.5c0,-2.5 2.5,-2.5 2.5,-2.5c8.0761,0 16.47361,0.49404 24.34179,2.44819l0.07182,-0.07464c0,0 2.5,0 2.5,2.5z" fill="#af9141" stroke="none" stroke-width="0.5"/></g></g></svg>