<svg version="1.1" xmlns="http://www.w3.org/2000/svg" xmlns:xlink="http://www.w3.org/1999/xlink" width="65.10633" height="38.70928" viewBox="0,0,65.10633,38.70928"><defs><linearGradient x1="100.57559" y1="322.85296" x2="100.57559" y2="359.85003" gradientUnits="userSpaceOnUse" id="color-1"><stop offset="0" stop-color="#c1cd1f"/><stop offset="1" stop-color="#ffcc00"/></linearGradient></defs><g transform="translate(1.87997,-322.35297)"><g data-paper-data="{&quot;isPaintingLayer&quot;:true}" fill-rule="nonzero" stroke-linejoin="miter" stroke-miterlimit="10" stroke-dasharray="" stroke-dashoffset="0" style="mix-blend-mode: normal"><path d="M-1.37997,359.85003v-36.99706h44.51282l19.27173,37.70019z" data-paper-data="{&quot;origPos&quot;:null}" fill="url(#color-1)" stroke="#000000" stroke-width="1" stroke-linecap="butt"/><g stroke-width="0.5"><path d="M13.87199,349.22149c0,-2.63818 2.13867,-4.77684 4.77684,-4.77684c2.63818,0 4.77684,2.13867 4.77684,4.77684c0,2.63818 -2.13867,4.77684 -4.77684,4.77684c-2.63818,0 -4.77684,-2.13867 -4.77684,-4.77684z" data-paper-data="{&quot;origPos&quot;:null}" fill="#fff059" stroke="#e6cd00" stroke-linecap="butt"/><path d="M15.11186,347.02789c0,-5.37721 4.35909,-9.73629 9.73629,-9.73629c5.37721,0 9.73629,4.35909 9.73629,9.73629c0,5.37721 -4.35909,9.73629 -9.73629,9.73629c-5.37721,0 -9.73629,-4.35909 -9.73629,-9.73629z" data-paper-data="{&quot;origPos&quot;:null}" fill="#fff059" stroke="#e6cd00" stroke-linecap="butt"/><path d="M19.27004,330.57363c0,0 3.6757,0.86652 4.62619,2.0443c1.23434,1.52951 0.97218,4.89281 0.97218,4.89281" data-paper-data="{&quot;origPos&quot;:null}" fill="none" stroke="#84eb36" stroke-linecap="round"/><path d="M32.74176,336.72249c-0.29162,1.25295 -0.21988,1.19841 -3.11755,0.80799c-2.89767,-0.39042 -5.17394,-1.24692 -5.08419,-1.91306c0.08975,-0.66613 2.51154,-0.88964 5.40921,-0.49922c2.89767,0.39042 3.11043,0.23842 2.79253,1.60429z" data-paper-data="{&quot;origPos&quot;:null,&quot;origRot&quot;:0}" fill="#84eb36" stroke="none" stroke-linecap="butt"/><path d="M19.26607,333.27276c2.89767,-0.39042 5.31946,-0.16691 5.40921,0.49922c0.08975,0.66613 -2.18652,1.52263 -5.08419,1.91305c-2.89767,0.39042 -2.82593,0.44496 -3.11755,-0.80799c-0.3179,-1.36586 -0.10514,-1.21387 2.79253,-1.60429z" data-paper-data="{&quot;origPos&quot;:null,&quot;origRot&quot;:0,&quot;index&quot;:null}" fill="#84eb36" stroke="none" stroke-linecap="butt"/><path d="M20.09455,326.98452c-0.15106,1.26812 -0.71015,2.64648 -1.48312,2.64648c-0.77297,0 -1.35993,-1.38623 -1.56665,-2.64648c-0.25058,-1.52767 0.79367,-1.97826 1.56665,-1.97826c0.77297,0 1.65017,0.57588 1.48312,1.97826z" data-paper-data="{&quot;origPos&quot;:null}" fill="#fff7d7" stroke="#e6e2bf" stroke-linecap="butt"/><path d="M18.64637,336.09755c-0.77297,0 -1.81723,-0.45059 -1.56665,-1.97826c0.20672,-1.26025 0.79367,-2.64648 1.56665,-2.64648c0.77297,0 1.33206,1.37836 1.48312,2.64648c0.16706,1.40238 -0.71015,1.97826 -1.48312,1.97826z" data-paper-data="{&quot;origPos&quot;:null,&quot;index&quot;:null}" fill="#fff7d7" stroke="#e6e2bf" stroke-linecap="butt"/><path d="M23.8379,333.1065c-0.29358,0.71505 -1.10702,1.50992 -2.42504,0.6979c-1.0873,-0.66988 -2.14673,-1.73935 -1.85315,-2.4544c0.29358,-0.71505 1.781,-0.70873 3.01147,-0.36684c1.36074,0.3781 1.5603,1.40829 1.26672,2.12334z" data-paper-data="{&quot;origPos&quot;:null,&quot;index&quot;:null,&quot;origRot&quot;:0}" fill="#fff7d7" stroke="#e6e2bf" stroke-linecap="butt"/><path d="M23.20948,327.69212c0.44082,0.63495 0.66621,1.74972 -0.73159,2.41509c-1.15311,0.54889 -2.62656,0.85729 -3.06738,0.22234c-0.44082,-0.63495 0.37259,-1.88027 1.32813,-2.72756c1.05671,-0.93698 2.03002,-0.54483 2.47084,0.09012z" data-paper-data="{&quot;origPos&quot;:null,&quot;index&quot;:null,&quot;origRot&quot;:0}" fill="#fff7d7" stroke="#e6e2bf" stroke-linecap="butt"/><path d="M16.53412,327.46988c0.95554,0.84728 1.76895,2.0926 1.32813,2.72755c-0.44082,0.63496 -1.91427,0.32656 -3.06738,-0.22234c-1.3978,-0.66537 -1.17241,-1.78014 -0.73159,-2.41509c0.44082,-0.63496 1.41413,-1.02711 2.47084,-0.09012z" data-paper-data="{&quot;origPos&quot;:null,&quot;index&quot;:null,&quot;origRot&quot;:0}" fill="#fff7d7" stroke="#e6e2bf" stroke-linecap="butt"/><path d="M13.88941,333.36322c-0.44082,-0.63496 -0.66621,-1.74972 0.73159,-2.41509c1.15311,-0.54889 2.62656,-0.85729 3.06738,-0.22234c0.44082,0.63496 -0.37259,1.88027 -1.32813,2.72755c-1.05671,0.93698 -2.03002,0.54483 -2.47084,-0.09012z" data-paper-data="{&quot;origPos&quot;:null,&quot;index&quot;:null,&quot;origRot&quot;:0}" fill="#fff7d7" stroke="#e6e2bf" stroke-linecap="butt"/><path d="M19.87856,330.51278c0,0.77297 -0.51764,1.39959 -1.15618,1.39959c-0.63854,0 -1.15618,-0.62662 -1.15618,-1.39959c0,-0.77297 0.51764,-1.39959 1.15618,-1.39959c0.63854,0 1.15618,0.62662 1.15618,1.39959z" data-paper-data="{&quot;origPos&quot;:null}" fill="#977f23" stroke="none" stroke-linecap="butt"/><path d="M23.70366,344.2525c0,1.31684 -0.43768,2.38435 -0.97758,2.38435c-0.5399,0 -0.97758,-1.06751 -0.97758,-2.38435c0,-1.31684 0.43768,-2.38435 0.97758,-2.38435c0.5399,0 0.97758,1.06751 0.97758,2.38435z" fill="#554813" stroke="none" stroke-linecap="butt"/><path d="M18.88727,344.2525c0,1.31684 -0.43768,2.38435 -0.97758,2.38435c-0.5399,0 -0.97758,-1.06751 -0.97758,-2.38435c0,-1.31684 0.43768,-2.38435 0.97758,-2.38435c0.5399,0 0.97758,1.06751 0.97758,2.38435z" data-paper-data="{&quot;origPos&quot;:null}" fill="#554813" stroke="none" stroke-linecap="butt"/><path d="M23.70366,350.02263c0,0 -2.71257,1.15818 -4.54246,1.10589c-1.42694,-0.04077 -3.80277,-1.34433 -3.80277,-1.34433" data-paper-data="{&quot;origPos&quot;:null}" fill="none" stroke="#554813" stroke-linecap="round"/><path d="M23.7432,349.84142c0,-2.63818 2.13867,-4.77684 4.77684,-4.77684c2.63818,0 4.77684,2.13867 4.77684,4.77684c0,2.63818 -2.13867,4.77684 -4.77684,4.77684c-2.63818,0 -4.77684,-2.13867 -4.77684,-4.77684z" data-paper-data="{&quot;origPos&quot;:null}" fill="#fff059" stroke="#e6cd00" stroke-linecap="butt"/><path d="M13.9126,346.32937c0.78302,-0.3434 2.18499,-0.1217 2.18499,-0.1217c1.85675,0 3.36193,0.80063 3.36193,1.78826c0,0.98763 -1.50519,1.78826 -3.36193,1.78826c-0.76956,0 -1.7384,-0.05538 -2.45899,-0.3255c-0.79249,-0.29707 -0.90294,-0.61643 -0.90294,-1.46276c0,-0.98763 0.48013,-1.36096 1.17695,-1.66656z" data-paper-data="{&quot;origPos&quot;:null}" fill="#645416" stroke="#554813" stroke-linecap="butt"/></g></g></g></svg>