<svg version="1.1" xmlns="http://www.w3.org/2000/svg" xmlns:xlink="http://www.w3.org/1999/xlink" width="134.2" height="542.59091" viewBox="0,0,134.2,542.59091"><defs><linearGradient x1="227.60239" y1="-7805.73052" x2="227.60239" y2="19900.1973" gradientUnits="userSpaceOnUse" id="color-1"><stop offset="0" stop-color="#519dff"/><stop offset="1" stop-color="#519dff" stop-opacity="0"/></linearGradient></defs><g transform="translate(-172.9,216.09091)"><g data-paper-data="{&quot;isPaintingLayer&quot;:true}" fill-rule="nonzero" stroke-linejoin="miter" stroke-miterlimit="10" stroke-dasharray="" stroke-dashoffset="0" style="mix-blend-mode: normal"><path d="M185.12013,-214.3052l110.23071,-0.28187l-0.02906,520.41557c0,0 -109.19116,-0.41508 -110.06518,1.5387z" data-paper-data="{&quot;origPos&quot;:null}" fill="url(#color-1)" stroke="#55b2f0" stroke-width="3" stroke-linecap="butt"/><path d="M281.8514,46.73772v-42.36335" data-paper-data="{&quot;origPos&quot;:null}" fill="none" stroke="#8bdfff" stroke-width="3" stroke-linecap="round"/><path d="M284.64026,136.16091l-0.9151,-64.5212" data-paper-data="{&quot;origPos&quot;:null}" fill="none" stroke="#8bdfff" stroke-width="3" stroke-linecap="round"/><path d="M264.05065,83.50861v-46.29757" data-paper-data="{&quot;origPos&quot;:null}" fill="none" stroke="#8bdfff" stroke-width="3" stroke-linecap="round"/><path d="M245.24767,168.00469l-2.81066,-105.36522" data-paper-data="{&quot;origPos&quot;:null}" fill="none" stroke="#8bdfff" stroke-width="3" stroke-linecap="round"/><path d="M267.79817,250.77582l0.93688,38.01838" data-paper-data="{&quot;origPos&quot;:null}" fill="none" stroke="#8bdfff" stroke-width="3" stroke-linecap="round"/><path d="M261.43604,175.52011v42.36333" data-paper-data="{&quot;origPos&quot;:null}" fill="none" stroke="#8bdfff" stroke-width="3" stroke-linecap="round"/><path d="M226.51003,251.47055l0.9369,-94.50281" data-paper-data="{&quot;origPos&quot;:null}" fill="none" stroke="#8bdfff" stroke-width="3" stroke-linecap="round"/><path d="M205.0271,302.27628l-0.93686,-90.65882" data-paper-data="{&quot;origPos&quot;:null}" fill="none" stroke="#8bdfff" stroke-width="3" stroke-linecap="round"/><path d="M244.37613,224.83083v79.98539" data-paper-data="{&quot;origPos&quot;:null}" fill="none" stroke="#8bdfff" stroke-width="3" stroke-linecap="round"/><path d="M283.72516,305.86159v-148.55606" data-paper-data="{&quot;origPos&quot;:null}" fill="none" stroke="#8bdfff" stroke-width="3" stroke-linecap="round"/><path d="M203.17512,-1.64408l0.9369,106.45144" data-paper-data="{&quot;origPos&quot;:null}" fill="none" stroke="#8bdfff" stroke-width="3" stroke-linecap="round"/><path d="M221.8692,137.06641l-0.9151,-94.50281" data-paper-data="{&quot;origPos&quot;:null}" fill="none" stroke="#8bdfff" stroke-width="3" stroke-linecap="round"/><path d="M194.76472,144.03643v42.36333" data-paper-data="{&quot;origPos&quot;:null}" fill="none" stroke="#8bdfff" stroke-width="3" stroke-linecap="round"/><path d="M240.62861,-73.31861l2.81064,105.36522" data-paper-data="{&quot;origPos&quot;:null}" fill="none" stroke="#8bdfff" stroke-width="3" stroke-linecap="round"/><path d="M265.98975,-44.45264l0.93688,38.01836" data-paper-data="{&quot;origPos&quot;:null}" fill="none" stroke="#8bdfff" stroke-width="3" stroke-linecap="round"/><path d="M222.84964,7.88258l-0.95866,-61.91564" data-paper-data="{&quot;origPos&quot;:null}" fill="none" stroke="#8bdfff" stroke-width="3" stroke-linecap="round"/><path d="M205.94222,-98.4478v45.90719" data-paper-data="{&quot;origPos&quot;:null}" fill="none" stroke="#8bdfff" stroke-width="3" stroke-linecap="round"/><path d="M288.2353,-129.43305l-0.93688,97.76154" data-paper-data="{&quot;origPos&quot;:null}" fill="none" stroke="#8bdfff" stroke-width="3" stroke-linecap="round"/><path d="M264.57369,-69.10265l-0.9151,-80.38169" data-paper-data="{&quot;origPos&quot;:null}" fill="none" stroke="#8bdfff" stroke-width="3" stroke-linecap="round"/><g data-paper-data="{&quot;origPos&quot;:null,&quot;index&quot;:null}" fill="#8bdfff" stroke="none" stroke-linecap="butt"><path d="M287.3,285.19102c10.93524,0 19.8,9.24733 19.8,20.65449c0,11.40717 -8.86476,20.65449 -19.8,20.65449c-10.93524,0 -19.8,-9.24733 -19.8,-20.65449c0,-11.40717 8.86476,-20.65449 19.8,-20.65449z" data-paper-data="{&quot;origPos&quot;:null}" stroke-width="3"/><path d="M207,303.05439c0,9.24905 -7.63355,16.74688 -17.05,16.74688c-9.41645,0 -17.05,-7.49783 -17.05,-16.74688c0,-9.24905 7.63355,-16.74688 17.05,-16.74688c9.41645,0 17.05,7.49783 17.05,16.74688z" data-paper-data="{&quot;origPos&quot;:null}" stroke-width="0"/><path d="M259.8,288.54043c7.89767,0 14.3,5.74835 14.3,12.83928c0,7.09094 -6.40233,12.83928 -14.3,12.83928c-7.89767,0 -14.3,-5.74835 -14.3,-12.83928c0,-7.09094 6.40233,-12.83928 14.3,-12.83928z" data-paper-data="{&quot;origPos&quot;:null}" stroke-width="0"/><path d="M226.8,312.54429c0,6.47434 -5.17111,11.72282 -11.55,11.72282c-6.37889,0 -11.55,-5.24849 -11.55,-11.72282c0,-6.47434 5.17111,-11.72282 11.55,-11.72282c6.37889,0 11.55,5.24849 11.55,11.72282z" data-paper-data="{&quot;origPos&quot;:null}" stroke-width="0"/><path d="M236.7,282.95814c9.1127,0 16.5,7.49783 16.5,16.74688c0,9.24905 -7.3873,16.74688 -16.5,16.74688c-9.1127,0 -16.5,-7.49783 -16.5,-16.74688c0,-9.24905 7.3873,-16.74688 16.5,-16.74688z" data-paper-data="{&quot;origPos&quot;:null}" stroke-width="0"/><path d="M225.7,295.7974c0,7.70755 -6.40233,13.95574 -14.3,13.95574c-7.89767,0 -14.3,-6.2482 -14.3,-13.95574c0,-7.70755 6.40233,-13.95574 14.3,-13.95574c7.89767,0 14.3,6.2482 14.3,13.95574z" data-paper-data="{&quot;origPos&quot;:null}" stroke-width="0"/><path d="M246.05,296.35561c6.9864,0 12.65,5.74835 12.65,12.83928c0,7.09094 -5.6636,12.83928 -12.65,12.83928c-6.9864,0 -12.65,-5.74835 -12.65,-12.83928c0,-7.09094 5.6636,-12.83928 12.65,-12.83928z" data-paper-data="{&quot;origPos&quot;:null}" stroke-width="0"/></g></g></g></svg>