<svg version="1.1" xmlns="http://www.w3.org/2000/svg" xmlns:xlink="http://www.w3.org/1999/xlink" width="284.92188" height="235.7025"><defs><linearGradient x1="239.916" y1="127.4375" x2="239.916" y2="233.4375" gradientUnits="userSpaceOnUse" id="color-1"><stop offset="0" stop-color="#965922"/><stop offset="1" stop-color="#dea42c"/></linearGradient><linearGradient x1="239.59723" y1="230.10417" x2="239.59723" y2="205.4375" gradientUnits="userSpaceOnUse" id="color-2"><stop offset="0" stop-color="#a86123"/><stop offset="1" stop-color="#805e2d"/></linearGradient><linearGradient x1="281.41681" y1="167.51137" x2="252.77764" y2="167.24499" gradientUnits="userSpaceOnUse" id="color-3"><stop offset="0" stop-color="#a8a19b"/><stop offset="1" stop-color="#7f776a"/></linearGradient><linearGradient x1="240.26389" y1="182.4375" x2="240.26389" y2="207.10417" gradientUnits="userSpaceOnUse" id="color-4"><stop offset="0" stop-color="#a8a19b"/><stop offset="1" stop-color="#7f776a"/></linearGradient><linearGradient x1="267.26389" y1="143.34553" x2="267.26389" y2="154.74417" gradientUnits="userSpaceOnUse" id="color-5"><stop offset="0" stop-color="#a8a19b"/><stop offset="1" stop-color="#7f776a"/></linearGradient></defs><g transform="translate(-85.5,-1.36)"><g data-paper-data="{&quot;isPaintingLayer&quot;:true}" fill="none" fill-rule="nonzero" stroke="none" stroke-width="none" stroke-linecap="none" stroke-linejoin="miter" stroke-miterlimit="10" stroke-dasharray="" stroke-dashoffset="0" font-family="none" font-weight="none" font-size="none" text-anchor="none" style="mix-blend-mode: normal"><path d="M186.916,127.4375h106v106h-106z" data-paper-data="{&quot;origPos&quot;:null}" id="ID0.5801267544738948" fill="url(#color-1)" stroke="#995900" stroke-width="0" stroke-linecap="butt"/><text transform="translate(207,25.86)" font-size="22" xml:space="preserve" id="ID0.02884628064930439" fill="#ff0000" fill-rule="nonzero" stroke="none" stroke-width="1" stroke-linecap="butt" stroke-linejoin="miter" stroke-miterlimit="10" stroke-dasharray="" stroke-dashoffset="0" font-family="Sans Serif" font-weight="400" text-anchor="start" style="mix-blend-mode: normal"><tspan x="0" dy="0">WIP</tspan></text><text transform="translate(86,55.01)" font-size="22" xml:space="preserve" data-paper-data="{&quot;origPos&quot;:null}" id="ID0.826193920802325" fill="#ff0000" fill-rule="nonzero" stroke="none" stroke-width="1" stroke-linecap="butt" stroke-linejoin="miter" stroke-miterlimit="10" stroke-dasharray="" stroke-dashoffset="0" font-family="Sans Serif" font-weight="400" text-anchor="start" style="mix-blend-mode: normal"><tspan x="0" dy="0">This level is unfinished and</tspan><tspan x="0" dy="24.86px">selecting a star here may</tspan><tspan x="0" dy="24.86px">cause errors.</tspan></text><text transform="translate(86,55.01)" font-size="22" xml:space="preserve" data-paper-data="{&quot;origPos&quot;:null}" id="ID0.826193920802325" fill="#ff0000" fill-rule="nonzero" stroke="none" stroke-width="1" stroke-linecap="butt" stroke-linejoin="miter" stroke-miterlimit="10" stroke-dasharray="" stroke-dashoffset="0" font-family="Sans Serif" font-weight="400" text-anchor="start" style="mix-blend-mode: normal"><tspan x="0" dy="0">This level is unfinished and</tspan><tspan x="0" dy="24.86px">selecting a star here may</tspan><tspan x="0" dy="24.86px">cause errors.</tspan></text><path d="M290.98612,205.4375v24.66666h-102.77778v-24.66666z" data-paper-data="{&quot;origPos&quot;:null,&quot;index&quot;:null}" fill="url(#color-2)" stroke="none" stroke-width="0" stroke-linecap="butt"/><path d="M252.64255,149.85362l28.63916,0.26638l0.27018,34.78275l-28.63916,-0.26638z" data-paper-data="{&quot;origPos&quot;:null,&quot;origRot&quot;:0}" fill="url(#color-3)" stroke="none" stroke-width="0" stroke-linecap="butt"/><path d="M188.875,207.10417v-24.66666h102.77778v24.66666z" data-paper-data="{&quot;origPos&quot;:null}" fill="url(#color-4)" stroke="none" stroke-width="0" stroke-linecap="butt"/><path d="M187.084,126.5625h106v106h-106z" data-paper-data="{&quot;origPos&quot;:null}" id="ID0.5801267544738948" fill="none" stroke="#995900" stroke-width="9" stroke-linecap="butt"/><g data-paper-data="{&quot;origPos&quot;:null}"><g data-paper-data="{&quot;origPos&quot;:null}" fill="#999999" stroke="#999999" stroke-width="4.5" stroke-linecap="round"><g data-paper-data="{&quot;origPos&quot;:null}"><path d="M220.25283,160.8493l-14.12617,7.6064l8.87413,-14.12617l15.0317,-8.51192z" data-paper-data="{&quot;origPos&quot;:null}"/><path d="M214.52472,159.37833l-8.55738,-13.5712l14.70157,7.88435l9.52288,14.41248z" data-paper-data="{&quot;origPos&quot;:null,&quot;origRot&quot;:0}"/></g><g data-paper-data="{&quot;origPos&quot;:null,&quot;origRot&quot;:0}"><path d="M217.0035,161.48238l-15.38499,-4.55061l16.24916,-3.77673l16.66559,4.54565z" data-paper-data="{&quot;origPos&quot;:null}"/><path d="M213.97355,156.40357l3.48466,-15.66088l4.88233,15.95186l-3.39188,16.93812z" data-paper-data="{&quot;origPos&quot;:null,&quot;origRot&quot;:0}"/></g></g><g data-paper-data="{&quot;origPos&quot;:null,&quot;origRot&quot;:0}" fill="#999999" stroke="#999999" stroke-width="4.5" stroke-linecap="round"><g data-paper-data="{&quot;origPos&quot;:null}"><path d="M218.36901,161.78328l-16.00558,1.1079l13.90764,-9.21284l17.20384,-1.5597z" data-paper-data="{&quot;origPos&quot;:null}"/><path d="M213.75637,158.08213l-2.20308,-15.8919l10.14504,13.243l2.73601,17.05635z" data-paper-data="{&quot;origPos&quot;:null,&quot;origRot&quot;:0}"/></g><g data-paper-data="{&quot;origPos&quot;:null,&quot;origRot&quot;:0}"><path d="M215.14758,161.02083l-12.14178,-10.48729l16.36139,3.25637l13.31058,11.01059z" data-paper-data="{&quot;origPos&quot;:null}"/><path d="M214.4803,155.14463l9.62981,-12.83248l-2.12651,16.5462l-10.07172,14.03444z" data-paper-data="{&quot;origPos&quot;:null,&quot;origRot&quot;:0}"/></g></g><path d="M216.81183,156.95554c0,-0.75016 0.60813,-1.35829 1.35829,-1.35829c0.75016,0 1.35829,0.60813 1.35829,1.35829c0,0.75016 -0.60813,1.35829 -1.35829,1.35829c-0.75016,0 -1.35829,-0.60813 -1.35829,-1.35829z" data-paper-data="{&quot;origPos&quot;:null}" fill="none" stroke="#995900" stroke-width="9" stroke-linecap="butt"/></g><path d="M249.875,154.74417v-11.39863h34.77778v11.39863z" data-paper-data="{&quot;origPos&quot;:null}" fill="url(#color-5)" stroke="none" stroke-width="0" stroke-linecap="butt"/></g></g></svg>