<svg version="1.1" xmlns="http://www.w3.org/2000/svg" xmlns:xlink="http://www.w3.org/1999/xlink" width="35.30526" height="35.30526" viewBox="0,0,35.30526,35.30526"><defs><linearGradient x1="240.08888" y1="163.06125" x2="240.08888" y2="197.11651" gradientUnits="userSpaceOnUse" id="color-1"><stop offset="0" stop-color="#3c94ed"/><stop offset="1" stop-color="#296ec6"/></linearGradient></defs><g transform="translate(-222.43625,-162.43625)"><g data-paper-data="{&quot;isPaintingLayer&quot;:true}" fill-rule="nonzero" stroke-linejoin="miter" stroke-miterlimit="10" stroke-dasharray="" stroke-dashoffset="0" style="mix-blend-mode: normal"><path d="M240.08888,163.06125c4.69771,0 8.95515,1.90752 12.0371,4.99053c3.08301,3.08195 4.99053,7.33939 4.99053,12.0371c0,4.69771 -1.90752,8.95515 -4.99053,12.0371c-3.08195,3.08301 -7.33939,4.99053 -12.0371,4.99053c-4.69771,0 -8.95515,-1.90752 -12.0371,-4.99053c-3.08301,-3.08195 -4.99053,-7.33939 -4.99053,-12.0371c0,-4.69771 1.90752,-8.95515 4.99053,-12.0371c3.08195,-3.08301 7.33939,-4.99053 12.0371,-4.99053z" data-paper-data="{&quot;origPos&quot;:null}" id="ID0.4039921844378114" fill="url(#color-1)" stroke="#23568d" stroke-width="1.25" stroke-linecap="butt"/><path d="M237.8234,168.92281l10.8021,3.9452l-6.3981,17.5182l-10.8021,-3.9452z" data-paper-data="{&quot;origPos&quot;:null}" id="ID0.3559445971623063" fill="#ffffff" stroke="#23578c" stroke-width="4.5" stroke-linecap="butt"/><path d="M237.8234,168.92281l10.8021,3.9452l-6.3981,17.5182l-10.8021,-3.9452z" id="ID0.3559445971623063" fill="#ffffff" stroke="#ffffff" stroke-width="2" stroke-linecap="butt"/><g data-paper-data="{&quot;origPos&quot;:null}" fill="none" stroke="#23578c" stroke-width="1.805" stroke-linecap="round"><path d="M238.37357,171.82721l7.942,2.888" data-paper-data="{&quot;origPos&quot;:null}" id="ID0.0528619191609323"/><path d="M236.78763,176.31707l7.942,2.888" data-paper-data="{&quot;origPos&quot;:null}" id="ID0.0528619191609323"/><path d="M235.05169,180.63895l7.942,2.888" data-paper-data="{&quot;origPos&quot;:null}" id="ID0.0528619191609323"/><path d="M241.47571,187.79492l-7.942,-2.888" data-paper-data="{&quot;origPos&quot;:null}" id="ID0.0528619191609323"/></g></g></g></svg>