<svg version="1.1" xmlns="http://www.w3.org/2000/svg" xmlns:xlink="http://www.w3.org/1999/xlink" width="106.09984" height="190.86382" viewBox="0,0,106.09984,190.86382"><defs><linearGradient x1="234.40336" y1="261.27869" x2="273.24325" y2="261.27869" gradientUnits="userSpaceOnUse" id="color-1"><stop offset="0" stop-color="#8d6431"/><stop offset="1" stop-color="#ac793c"/></linearGradient><linearGradient x1="210.90336" y1="261.52869" x2="249.74325" y2="261.52869" gradientUnits="userSpaceOnUse" id="color-2"><stop offset="0" stop-color="#8d6431"/><stop offset="1" stop-color="#ac793c"/></linearGradient><linearGradient x1="244.96965" y1="170.90759" x2="244.96965" y2="224.28188" gradientUnits="userSpaceOnUse" id="color-3"><stop offset="0" stop-color="#4f6af7"/><stop offset="1" stop-color="#4758dd"/></linearGradient><linearGradient x1="274.94599" y1="119.13053" x2="274.94599" y2="132.45389" gradientUnits="userSpaceOnUse" id="color-4"><stop offset="0" stop-color="#349fc7"/><stop offset="1" stop-color="#297299"/></linearGradient><linearGradient x1="255.21855" y1="111.70761" x2="255.21855" y2="129.72296" gradientUnits="userSpaceOnUse" id="color-5"><stop offset="0" stop-color="#349fc7"/><stop offset="1" stop-color="#308fb6"/></linearGradient><linearGradient x1="244.87943" y1="118.59501" x2="244.87943" y2="130.5763" gradientUnits="userSpaceOnUse" id="color-6"><stop offset="0" stop-color="#38291e"/><stop offset="1" stop-color="#381e32"/></linearGradient><linearGradient x1="262.12054" y1="115.59217" x2="262.12054" y2="126.13672" gradientUnits="userSpaceOnUse" id="color-7"><stop offset="0" stop-color="#38291e"/><stop offset="1" stop-color="#381e32"/></linearGradient></defs><g transform="translate(-187.01588,-85.16499)"><g data-paper-data="{&quot;isPaintingLayer&quot;:true}" fill-rule="nonzero" stroke-linejoin="miter" stroke-miterlimit="10" stroke-dasharray="" stroke-dashoffset="0" style="mix-blend-mode: normal"><g data-paper-data="{&quot;origPos&quot;:null,&quot;origRot&quot;:0}" stroke="none" stroke-linecap="butt"><g data-paper-data="{&quot;origPos&quot;:null,&quot;index&quot;:null,&quot;origRot&quot;:0}" stroke-width="0"><path d="M257.76139,170.77534c5.09771,-1.50677 12.50595,6.05688 15.26511,15.39167c2.75914,9.33479 3.98785,18.6202 3.98785,18.6202l-15.24596,4.69722c0,0 -6.10108,-14.0694 -8.32029,-21.57746c-2.75914,-9.33479 -0.78442,-15.62485 4.31329,-17.13163z" data-paper-data="{&quot;origRot&quot;:0,&quot;origPos&quot;:null}" fill="#41c3ff"/><g data-paper-data="{&quot;origPos&quot;:null}" fill="#ffffff"><path d="M270.04722,212.17143c8.87236,-3.07111 20.02014,-6.37856 22.70536,3.14692c1.94803,6.91037 -4.14134,19.63083 -13.47476,20.6495c-10.18489,1.11159 -19.08756,3.73332 -21.08256,-7.20019c-1.8628,-10.20898 2.97961,-13.5251 11.85196,-16.59623z" data-paper-data="{&quot;origRot&quot;:0,&quot;origPos&quot;:null}"/><path d="M268.69708,204.36379c6.85309,-2.36207 14.21136,-6.39368 15.6041,-0.99178c1.55804,6.04308 -0.3465,6.30659 -11.64084,9.88986c-12.86635,4.082 -14.08967,7.04828 -16.11963,0.50782c-1.18536,-3.81918 5.30329,-7.04382 12.15637,-9.4059z" data-paper-data="{&quot;origRot&quot;:0,&quot;origPos&quot;:null}"/></g></g><path d="M273.18206,233.61238l-2.34979,-8.33256l-7.30588,-2.88999l7.59569,-2.79367l0.24325,-8.09367l5.72974,5.80014l8.76559,-3.22495l-4.87945,7.76354l4.05051,7.36638l-7.95425,-2.57397z" data-paper-data="{&quot;origPos&quot;:null,&quot;origRot&quot;:0}" fill="#ffe008" stroke-width="NaN"/></g><g data-paper-data="{&quot;origPos&quot;:null}" stroke="none" stroke-width="0" stroke-linecap="butt"><path d="M263.77579,246.52869c0.25,4.56244 5.41055,6.34999 5.25,7.375c-0.6496,4.14719 -2.61962,7.06944 -9.49401,9.02125c-8.51546,2.41776 -15.20518,1.85158 -22.83883,-2.63016c-5.19918,-3.05246 -0.62822,-5.6899 1.34826,-11.38574c0.70922,-2.04382 1.23457,-4.71698 1.73457,-10.13036c0.62513,-6.76814 5.51679,-25.09634 5.51679,-25.09634c0,0 7.33244,-0.06141 12.34561,0.85936c3.95633,0.72666 10.1376,-4.13802 10.1376,-4.13802c0,0 -4.5779,25.57837 -4,36.125z" data-paper-data="{&quot;origPos&quot;:null}" fill="#4758dd"/><path d="M270.94131,268.7258c0,3.8985 -3.96704,5.7353 -7.72584,6.76953c-2.46332,0.67777 -14.4104,0.32814 -20.33888,-3.14424c-1.84053,-1.07803 -3.33527,-3.52528 -3.33527,-3.52528c0,0 -5.03674,0.75952 -5.02228,-0.69722c0.01148,-1.15638 -0.01762,-3.12554 1.10289,-3.72567c4.82323,-2.58327 16.24793,-2.5771 21.71938,-2.5771c7.51108,0 13.6,3.08923 13.6,6.9z" data-paper-data="{&quot;origPos&quot;:null}" fill="#f8dca0"/><path d="M272.82579,263.82869c-1.36652,4.56323 -5.93362,7.825 -14.425,7.825c-8.49138,0 -17.575,-4.925 -17.575,-4.925c0,0 -6.14742,0.32363 -6.27179,-1.25359c-0.25742,-3.26442 -0.3162,-8.59082 0.91937,-8.76498c4.56136,-0.64292 3.70007,-0.02536 9.66469,-1.30064c3.8618,-0.82568 10.31365,-4.50579 14.26274,-4.50579c8.49138,0 15.675,5.41155 13.425,12.925z" data-paper-data="{&quot;origPos&quot;:null}" fill="url(#color-1)"/></g><g data-paper-data="{&quot;origPos&quot;:null}" stroke="none" stroke-width="0" stroke-linecap="butt"><path d="M240.27579,246.77869c0.25,4.56244 5.41055,6.34999 5.25,7.375c-0.6496,4.14719 -2.61962,7.06944 -9.49401,9.02125c-8.51546,2.41776 -15.20518,1.85158 -22.83883,-2.63016c-5.19918,-3.05246 -0.62822,-5.6899 1.34826,-11.38574c0.70922,-2.04382 1.23457,-4.71698 1.73457,-10.13036c0.62513,-6.76814 5.51679,-25.09634 5.51679,-25.09634c0,0 7.33244,-0.06141 12.34561,0.85936c3.95633,0.72666 10.6376,4.36198 10.6376,4.36198c0,0 -5.0779,17.07837 -4.5,27.625z" data-paper-data="{&quot;origPos&quot;:null}" fill="#4758dd"/><path d="M247.44131,268.9758c0,3.8985 -3.96704,5.7353 -7.72584,6.76953c-2.46332,0.67777 -14.4104,0.32814 -20.33888,-3.14424c-1.84053,-1.07803 -3.33527,-3.52528 -3.33527,-3.52528c0,0 -5.03674,0.75952 -5.02228,-0.69722c0.01148,-1.15638 -0.01762,-3.12554 1.10289,-3.72567c4.82323,-2.58327 16.24793,-2.5771 21.71938,-2.5771c7.51108,0 13.6,3.08923 13.6,6.9z" data-paper-data="{&quot;origPos&quot;:null}" fill="#f8dca0"/><path d="M249.32579,264.07869c-1.36652,4.56323 -5.93362,7.825 -14.425,7.825c-8.49138,0 -17.575,-4.925 -17.575,-4.925c0,0 -6.14742,0.32363 -6.27179,-1.25359c-0.25742,-3.26442 -0.3162,-8.59082 0.91937,-8.76498c4.56136,-0.64292 3.70007,-0.02536 9.66469,-1.30064c3.8618,-0.82568 10.31365,-4.50579 14.26274,-4.50579c8.49138,0 15.675,5.41155 13.425,12.925z" data-paper-data="{&quot;origPos&quot;:null}" fill="url(#color-2)"/></g><g data-paper-data="{&quot;origPos&quot;:null}"><path d="M270.72766,194.07829c0.39163,21.17353 -7.36176,30.41297 -28.3,30.2c-21.9365,-0.22312 -23.2,-12.78796 -23.2,-22.95c0,-11.02412 -0.93148,-20.04986 7.57136,-27.06648c6.33487,-5.22759 13.21535,-2.78352 21.42864,-2.78352c15.18783,0 22.11612,1.84521 22.5,22.6z" data-paper-data="{&quot;origPos&quot;:null}" fill="url(#color-3)" stroke="none" stroke-width="0" stroke-linecap="butt"/><path d="M270.97766,193.47829c0,0 -17.24385,2 -29.4,2.4c-11.15011,0.36689 -22.4,-3.4 -22.4,-3.4c0,0 -0.98648,-13.79564 6.98462,-19.16002c5.21526,-3.50975 11.08038,-4.65914 18.61538,-4.83998c7.535,-0.18084 15.72889,2.13912 19.52206,5.21215c8.95988,7.25886 6.67794,19.78785 6.67794,19.78785z" data-paper-data="{&quot;origPos&quot;:null}" fill="#41c3ff" stroke="none" stroke-width="0" stroke-linecap="butt"/><path d="M257.08548,172.3696c0,0 2.14029,6.84028 2.57206,10.95319c0.55457,5.28272 -0.57997,15.20846 -0.57997,15.20846" data-paper-data="{&quot;origPos&quot;:null,&quot;origRot&quot;:0}" fill="none" stroke="#5063f7" stroke-width="10" stroke-linecap="round"/><path d="M235.57766,172.87829c0,0 1.23985,7.05925 1.13735,11.19349c-0.13165,5.31011 -2.53735,15.00651 -2.53735,15.00651" data-paper-data="{&quot;origPos&quot;:null}" fill="none" stroke="#5063f7" stroke-width="10" stroke-linecap="round"/><path d="M231.96113,202.69229l0.47856,-4.16533l-2.74233,-2.63761l3.91676,0.14425l1.59649,-3.58172l1.50128,3.65183l4.5202,0.16603l-3.61311,2.58175l0.46103,4.045l-3.09091,-2.61517z" data-paper-data="{&quot;origPos&quot;:null,&quot;origRot&quot;:0}" fill="#ffe008" stroke="none" stroke-width="NaN" stroke-linecap="butt"/><path d="M257.35407,202.45039l-0.09884,-4.19156l-3.07901,-2.23539l3.89937,-0.39579l1.08873,-3.76726l1.98925,3.41067l4.50007,-0.45721l-3.2237,3.05412l1.01296,3.94315l-3.4212,-2.16523z" data-paper-data="{&quot;origPos&quot;:null,&quot;origRot&quot;:0}" fill="#ffe008" stroke="none" stroke-width="NaN" stroke-linecap="butt"/></g><g data-paper-data="{&quot;origPos&quot;:null}" stroke="none" stroke-linecap="butt"><g data-paper-data="{&quot;origPos&quot;:null}" stroke-width="0"><path d="M225.71445,188.13868c-1.981,7.57441 -7.6347,21.82947 -7.6347,21.82947l-15.3867,-4.21339c0,0 0.93484,-9.31959 3.39782,-18.73685c2.46298,-9.41727 15.12865,-15.71111 20.27141,-14.36607c5.14276,1.34503 1.81515,6.06959 -0.64783,15.48686z" data-paper-data="{&quot;origRot&quot;:0,&quot;origPos&quot;:null}" fill="#41c3ff"/><g data-paper-data="{&quot;origPos&quot;:null}" fill="#ffffff"><path d="M222.26007,229.12892c-1.64872,10.99105 -10.62974,8.65178 -20.84466,7.86239c-9.36093,-0.72339 -15.84898,-13.2452 -14.12016,-20.21365c2.38306,-9.60552 13.62974,-6.65178 22.59465,-3.86239c8.96491,2.78939 13.90964,5.95094 12.37017,16.21365z" data-paper-data="{&quot;origRot&quot;:0,&quot;origPos&quot;:null}"/><path d="M223.44016,214.08619c-1.8224,6.60132 -3.1388,3.67514 -16.12763,0.00151c-11.40186,-3.22479 -13.31378,-3.42803 -11.94736,-9.5173c1.22144,-5.44319 8.70337,-1.64597 15.62763,0.49849c6.92426,2.14446 13.51152,5.1626 12.44736,9.0173z" data-paper-data="{&quot;origRot&quot;:0,&quot;origPos&quot;:null}"/></g></g><path d="M195.09075,229.87152l3.69639,-7.82877l-3.61499,-6.97566l7.5642,2.87787l5.4959,-5.94656l0.51578,8.13667l8.72989,3.32037l-8.77698,2.65447l-1.77913,8.21613l-4.31157,-7.1628z" data-paper-data="{&quot;origPos&quot;:null,&quot;origRot&quot;:0}" fill="#ffe008" stroke-width="NaN"/></g><g data-paper-data="{&quot;origPos&quot;:null}"><path d="M287.89953,123.85389c-0.56793,3.79329 -11.88998,8.6 -20.8,8.6c-7.1797,0 -5.4,-6.75492 -5.4,-10.4c0,-3.64508 14.0703,-2.85 21.25,-2.85c7.1797,0 5.31761,2.19464 4.95,4.65z" data-paper-data="{&quot;origPos&quot;:null}" fill="url(#color-4)" stroke="none" stroke-width="0" stroke-linecap="butt"/><path d="M212.74262,165.2355c-1.88302,-1.368 -2.34219,-3.637 -0.85476,-6.37559c1.72578,-3.17745 1.08123,-8.21818 2.96425,-6.85018c0,0 7.23293,1.02169 7.79114,3.9154c0,0 3.0507,8.35652 1.80057,9.69315c0,0 -1.78179,1.32182 -6.42716,1.10231c-2.51693,-0.11893 -3.39102,-0.11707 -5.27403,-1.48508z" data-paper-data="{&quot;origRot&quot;:0,&quot;origPos&quot;:null}" fill="#e7be7a" stroke="none" stroke-width="0" stroke-linecap="butt"/><path d="M219.48286,126.13722c4.31396,1.0071 37.24301,-2.16822 43.0368,-1.8462c8.57182,0.47642 6.20204,8.21361 6.80713,16.77732c0.69572,9.84642 7.56286,14.33038 4.11388,23.57918c-1.32977,3.56593 -5.57109,6.18206 -8.56062,8.53723c-1.69594,1.33607 -4.01231,5.30061 -14.80054,5.5225c-18.91647,-3.76969 -24.18277,-8.72429 -27.36091,-12.69741c-3.28722,-3.79189 -1.91707,-5.03225 -5.0923,-9.83925c-0.97333,-1.47352 -2.12747,-2.25956 -2.322,-2.25956c-10.37042,0 -16.07143,-8.56649 -16.07143,-16.66666c0,-8.10018 3.70101,-14.66666 9.5,-14.66666c5.79899,0 9.25,3.20935 10.75,3.55952z" data-paper-data="{&quot;origPos&quot;:null}" fill="#ffdebd" stroke="none" stroke-width="0" stroke-linecap="butt"/><path d="M267.66619,131.34363c0.35235,4.88885 -1.81808,9.02906 -4.84779,9.24741c-3.02971,0.21836 -5.7714,-3.56782 -6.12375,-8.45666c-0.35235,-4.88885 1.81808,-9.02905 4.84779,-9.24741c3.02971,-0.21836 5.77141,3.56782 6.12376,8.45666z" data-paper-data="{&quot;origPos&quot;:null,&quot;origRot&quot;:0}" fill="#ffffff" stroke="none" stroke-width="0" stroke-linecap="butt"/><path d="M229.89286,133.96069c0,2.60849 3.85805,10.02393 1.51211,11.16446c-2.72909,1.32681 -3.54387,-2.9338 -7.19783,-2.25017c-2.71433,0.50783 -4.45714,-4.78172 -4.45714,-9.2c0,-4.41828 -0.01669,-8.69821 2.74286,-8.8c11.61857,-0.42857 7.4,4.66744 7.4,9.08571z" data-paper-data="{&quot;origPos&quot;:null}" fill="#e7be7a" stroke="none" stroke-width="0" stroke-linecap="butt"/><path d="M254.64298,136.34835c0.57094,4.86816 -1.41189,9.10142 -4.42877,9.45524c-3.01689,0.35383 -5.92541,-3.30577 -6.49635,-8.17393c-0.57094,-4.86816 1.41189,-9.10142 4.42877,-9.45524c3.01689,-0.35383 5.92541,3.30577 6.49635,8.17393z" data-paper-data="{&quot;origPos&quot;:null,&quot;origRot&quot;:0}" fill="#ffffff" stroke="none" stroke-width="0" stroke-linecap="butt"/><path d="M251.85,132.70001c0.952,0 1.814,0.695 2.439,1.817c0.624,1.122 1.011,2.672 1.011,4.383c0,1.711 -0.387,3.261 -1.011,4.383c-0.625,1.122 -1.487,1.817 -2.439,1.817c-0.952,0 -1.814,-0.695 -2.439,-1.817c-0.624,-1.122 -1.011,-2.672 -1.011,-4.383c0,-1.711 0.387,-3.261 1.011,-4.383c0.625,-1.122 1.487,-1.817 2.439,-1.817z" data-paper-data="{&quot;origPos&quot;:null}" id="ID0.2989244391210377" fill="#000000" stroke="#ffe008" stroke-width="2" stroke-linecap="butt"/><path d="M264.85,128.15001c0.952,0 1.814,0.695 2.439,1.817c0.624,1.122 0.775,2.904 1.011,4.383c0.083,0.539 0.233,1.323 -0.15,1.8c-0.483,0.577 -1.281,0.853 -2,1.1c-1.256,0.26 -2.748,1.037 -3.85,0.4c-0.966,-0.58 -0.89,-2.138 -0.9,-3.3c-0.013,-1.501 0.387,-3.261 1.011,-4.383c0.625,-1.122 1.487,-1.817 2.439,-1.817z" data-paper-data="{&quot;origPos&quot;:null}" id="ID0.2989244391210377" fill="#000000" stroke="#ffe008" stroke-width="2" stroke-linecap="round"/><path d="M273.79349,96.82854c2.39648,14.94461 -0.49216,15.79448 -8.52168,20.57884c-11.69967,6.97121 -27.00365,5.55994 -39.50062,10.97342c-3.28137,1.42143 -11.64483,-2.03217 -15.22084,-2.03217c-7.31398,0 -11.44089,-5.22725 -11.74313,-11.45342c-0.66666,-13.7335 6.09582,-13.78676 13.4098,-13.78676c0,0 8.04926,1.33414 10.82961,5.60456c0,0 11.19763,-18.21899 23.00151,-20.46979c15.1949,-2.89741 26.02436,-0.14688 27.74535,10.58532z" data-paper-data="{&quot;origPos&quot;:null}" fill="#41c3ff" stroke="none" stroke-width="0" stroke-linecap="butt"/><path d="M270.89953,105.35389c0,5.46762 -1.46317,9.58116 -12.2,9.9c-11.33464,0.33659 -12.2,-4.43238 -12.2,-9.9c0,-5.46762 5.46212,-9.9 12.2,-9.9c6.73787,0 12.2,4.43238 12.2,9.9z" data-paper-data="{&quot;origPos&quot;:null}" fill="#ffffff" stroke="none" stroke-width="0" stroke-linecap="butt"/><path d="M288.29953,121.75389c-0.2,0.85848 -39.34284,6.5 -50.3,7.7c-5.32532,0.58322 -16.1,0.15848 -15.9,-0.7c0.73933,-3.1735 2.8049,-8.24498 7.9,-9.9c6.15716,-2 27.29511,-7.38005 43.10212,-7.1384c6.46182,0.09879 15.93721,6.8649 15.19788,10.0384z" data-paper-data="{&quot;origPos&quot;:null}" fill="url(#color-5)" stroke="none" stroke-width="0" stroke-linecap="butt"/><path d="M254.2034,111.59417l0.18849,-3.45889l5.09724,-0.74498l-1.45114,-1.76959l-3.62565,-0.45434l-1.99342,-3.01392l1.9556,-2.81852l7.89963,-1.24007l1.73259,3.27111l-7.32518,0.57178l4.13196,1.53006l3.06427,2.53879l0.28922,2.58669l-2.24917,1.64784z" data-paper-data="{&quot;origPos&quot;:null,&quot;origRot&quot;:0}" fill="#ffe008" stroke="none" stroke-width="0" stroke-linecap="butt"/><path d="M268.23037,169.54033c-3.21733,0.20214 -7.84599,-0.72468 -15.34899,-1.96359c-9.7284,-1.60637 -11.10928,-8.44609 -11.10928,-8.44609c0,0 -3.6461,-1.33232 -5.675,-2.475c-1.58811,-0.89443 0.32605,-6.49937 1.18005,-6.66272c4.97377,-0.95139 6.45569,3.43243 10.27828,5.49605c0,0 12.7819,4.20754 18.75328,3.86744c0,0 9.6388,-4.51103 12.62642,-4.31325c1.48172,0.09809 1.49141,3.20314 1.02397,4.7714c0,0 -1.29607,4.20023 -3.42128,5.67204c-2.1252,1.47181 -5.09013,3.85158 -8.30745,4.05371z" data-paper-data="{&quot;origPos&quot;:null}" fill="#e7be7a" stroke="none" stroke-width="0" stroke-linecap="butt"/><path d="M278.43042,148.98899c-0.5,6.61802 1.12741,11.125 -13.25,10.875c-6.62642,-0.11523 -13,-4.25698 -13,-10.125c0,-5.86802 6.3926,-13.11026 13,-13.625c9.62741,-0.75 14.04992,2.28715 13.25,12.875z" data-paper-data="{&quot;origPos&quot;:null}" fill="#ffdebd" stroke="none" stroke-width="0" stroke-linecap="butt"/><g data-paper-data="{&quot;origPos&quot;:null}" fill="none" stroke="#f6b09a" stroke-width="3.5" stroke-linecap="round"><path d="M205.60689,132.93213c0,0 2.96332,-1.72996 6.75499,1.19948c5.43788,4.2013 2.24501,11.37195 2.24501,11.37195" data-paper-data="{&quot;origPos&quot;:null}"/><path d="M208.32118,139.64644h6" data-paper-data="{&quot;origPos&quot;:null}"/><path d="M212.46403,145.64644h1.28571" data-paper-data="{&quot;origPos&quot;:null}"/></g><path d="M245.01269,125.7013c-1.37576,0.41027 -1.31062,0.60464 -1.97844,1.87549c-0.68894,1.31106 -2.14657,2.99951 -2.14657,2.99951c0,0 -1.45833,-3.62706 -1.45833,-6.31945c0,-1.8281 0.99336,-5.0144 3.81107,-5.65344c9.53112,-0.32089 6.69401,8.65093 6.69401,8.65093c0,0 -3.4773,-2.0232 -4.92174,-1.55303z" data-paper-data="{&quot;origPos&quot;:null}" fill="url(#color-6)" stroke="none" stroke-width="0" stroke-linecap="butt"/><path d="M262.27348,122.89526c-1.51641,0.08916 -4.01601,3.24146 -4.01601,3.24146c0,0 -5.91454,-7.31854 3.07681,-10.49674c2.85665,-0.43291 4.94393,2.17143 5.61082,3.87354c0.98219,2.50684 0.94752,6.41595 0.94752,6.41595c0,0 -1.97313,-1.04035 -3.09287,-2.00973c-1.0854,-0.93965 -1.09566,-1.14439 -2.52627,-1.02451z" data-paper-data="{&quot;origPos&quot;:null,&quot;index&quot;:null,&quot;origRot&quot;:0}" fill="url(#color-7)" stroke="none" stroke-width="0" stroke-linecap="butt"/></g></g></g></svg>