<svg version="1.1" xmlns="http://www.w3.org/2000/svg" xmlns:xlink="http://www.w3.org/1999/xlink" width="491.7485" height="165.92318" viewBox="0,0,491.7485,165.92318"><defs><linearGradient x1="362.11185" y1="292.67059" x2="362.11185" y2="251.75571" gradientUnits="userSpaceOnUse" id="color-1"><stop offset="0" stop-color="#af9141"/><stop offset="1" stop-color="#ddb747"/></linearGradient><linearGradient x1="244.11185" y1="292.67059" x2="244.11185" y2="251.75571" gradientUnits="userSpaceOnUse" id="color-2"><stop offset="0" stop-color="#af9141"/><stop offset="1" stop-color="#ddb747"/></linearGradient><linearGradient x1="365.11185" y1="250.67059" x2="365.11185" y2="209.75571" gradientUnits="userSpaceOnUse" id="color-3"><stop offset="0" stop-color="#af9141"/><stop offset="1" stop-color="#ddb747"/></linearGradient></defs><g transform="translate(4.60642,-208.7557)"><g data-paper-data="{&quot;isPaintingLayer&quot;:true}" fill-rule="nonzero" stroke-linejoin="miter" stroke-miterlimit="10" stroke-dasharray="" stroke-dashoffset="0" style="mix-blend-mode: normal"><path d="M-2.4243,366.62367c0.0953,-2.07344 0.06788,-4.60056 0.06788,-5.94226c0,-6.34634 0,-12.6927 0,-19.03904c0,-14.07517 0,-28.15035 0,-42.22552l482.91171,4.30392c-0.36989,12.42346 -0.08574,24.85846 0.07699,37.29249v21.92931c-0.06584,2.66281 -0.1904,5.3235 -0.34202,7.98325z" fill="#ffe5ad" stroke="#8c7531" stroke-width="0" stroke-linecap="butt"/><path d="M53.50962,319.42888l-14,6l-16,-8l12,-20z" fill="none" stroke="#b7a47c" stroke-width="4.5" stroke-linecap="round"/><path d="M39.50962,299.42888l36,-1l12,14l-16,14l-18,-6" fill="none" stroke="#b7a47c" stroke-width="4.5" stroke-linecap="round"/><path d="M75.50962,326.42888l-30,18l-16,-8l12,-11" fill="none" stroke="#b7a47c" stroke-width="4.5" stroke-linecap="round"/><path d="M-2.35642,314.99451l8.86604,-14.56563l17,17" fill="none" stroke="#b7a47c" stroke-width="4.5" stroke-linecap="round"/><path d="M-2.35642,325.1891l29.86604,10.23978" fill="none" stroke="#b7a47c" stroke-width="4.5" stroke-linecap="round"/><path d="M33.50962,339.42888l-8,14l-24,-6l15,-14" fill="none" stroke="#b7a47c" stroke-width="4.5" stroke-linecap="round"/><path d="M-2.35642,341.45278l1.86604,4.9761l-1.86604,2.23925" fill="none" stroke="#b7a47c" stroke-width="4.5" stroke-linecap="round"/><path d="M64.50962,337.42888l-4,15l-23,7l-10,-8" fill="none" stroke="#b7a47c" stroke-width="4.5" stroke-linecap="round"/><path d="M82.50962,317.42888l23,16l-40,11" fill="none" stroke="#b7a47c" stroke-width="4.5" stroke-linecap="round"/><path d="M93.50962,338.42888l11,20l-32,12l-17,-15" fill="none" stroke="#b7a47c" stroke-width="4.5" stroke-linecap="round"/><path d="M19.50962,353.42888l10,18" fill="none" stroke="#b7a47c" stroke-width="4.5" stroke-linecap="round"/><path d="M2.50962,299.42888l-4.86604,1.15858" fill="none" stroke="#b7a47c" stroke-width="4.5" stroke-linecap="round"/><path d="M32.50962,296.42888l-23,2" fill="none" stroke="#b7a47c" stroke-width="4.5" stroke-linecap="round"/><path d="M135.50962,297.42888l12,20l-16,8l-14,-6z" data-paper-data="{&quot;index&quot;:null}" fill="none" stroke="#b7a47c" stroke-width="4.5" stroke-linecap="round"/><path d="M117.50962,320.42888l-18,6l-16,-14l12,-14l36,1" data-paper-data="{&quot;index&quot;:null}" fill="none" stroke="#b7a47c" stroke-width="4.5" stroke-linecap="round"/><path d="M129.50962,325.42888l12,11l-16,8l-30,-18" data-paper-data="{&quot;index&quot;:null}" fill="none" stroke="#b7a47c" stroke-width="4.5" stroke-linecap="round"/><path d="M147.50962,317.42888l17,-17l14,23l-35,12" data-paper-data="{&quot;index&quot;:null}" fill="none" stroke="#b7a47c" stroke-width="4.5" stroke-linecap="round"/><path d="M154.50962,333.42888l15,14l-24,6l-8,-14" data-paper-data="{&quot;index&quot;:null}" fill="none" stroke="#b7a47c" stroke-width="4.5" stroke-linecap="round"/><path d="M186.50962,364.42888l-15,-18l9,-24" data-paper-data="{&quot;index&quot;:null}" fill="none" stroke="#b7a47c" stroke-width="4.5" stroke-linecap="round"/><path d="M143.50962,351.42888l-10,8l-23,-7l-4,-15" data-paper-data="{&quot;index&quot;:null}" fill="none" stroke="#b7a47c" stroke-width="4.5" stroke-linecap="round"/><path d="M105.50962,344.42888l-40,-11l23,-16" data-paper-data="{&quot;index&quot;:null}" fill="none" stroke="#b7a47c" stroke-width="4.5" stroke-linecap="round"/><path d="M115.50962,355.42888l-17,15l-32,-12l11,-20" data-paper-data="{&quot;index&quot;:null}" fill="none" stroke="#b7a47c" stroke-width="4.5" stroke-linecap="round"/><path d="M151.50962,353.42888l-10,18" data-paper-data="{&quot;index&quot;:null}" fill="none" stroke="#b7a47c" stroke-width="4.5" stroke-linecap="round"/><path d="M189.50962,304.42888l-21,-5" data-paper-data="{&quot;index&quot;:null}" fill="none" stroke="#b7a47c" stroke-width="4.5" stroke-linecap="round"/><path d="M161.50962,298.42888l-23,-2" data-paper-data="{&quot;index&quot;:null}" fill="none" stroke="#b7a47c" stroke-width="4.5" stroke-linecap="round"/><path d="M247.50962,320.42888l-14,6l-16,-8l12,-20z" fill="none" stroke="#b7a47c" stroke-width="4.5" stroke-linecap="round"/><path d="M233.50962,300.42888l36,-1l12,14l-16,14l-18,-6" fill="none" stroke="#b7a47c" stroke-width="4.5" stroke-linecap="round"/><path d="M269.50962,327.42888l-30,18l-16,-8l12,-11" fill="none" stroke="#b7a47c" stroke-width="4.5" stroke-linecap="round"/><path d="M221.50962,336.42888l-35,-12l14,-23l17,17" fill="none" stroke="#b7a47c" stroke-width="4.5" stroke-linecap="round"/><path d="M227.50962,340.42888l-8,14l-24,-6l15,-14" fill="none" stroke="#b7a47c" stroke-width="4.5" stroke-linecap="round"/><path d="M184.50962,323.42888l9,24l-15,18" fill="none" stroke="#b7a47c" stroke-width="4.5" stroke-linecap="round"/><path d="M258.50962,338.42888l-4,15l-23,7l-10,-8" fill="none" stroke="#b7a47c" stroke-width="4.5" stroke-linecap="round"/><path d="M276.50962,318.42888l23,16l-40,11" fill="none" stroke="#b7a47c" stroke-width="4.5" stroke-linecap="round"/><path d="M287.50962,339.42888l11,20l-32,12l-17,-15" fill="none" stroke="#b7a47c" stroke-width="4.5" stroke-linecap="round"/><path d="M213.50962,354.42888l10,18" fill="none" stroke="#b7a47c" stroke-width="4.5" stroke-linecap="round"/><path d="M175.50962,305.42888l21,-5" fill="none" stroke="#b7a47c" stroke-width="4.5" stroke-linecap="round"/><path d="M203.50962,299.42888l23,-2" fill="none" stroke="#b7a47c" stroke-width="4.5" stroke-linecap="round"/><path d="M329.50962,298.42888l12,20l-16,8l-14,-6z" data-paper-data="{&quot;index&quot;:null}" fill="none" stroke="#b7a47c" stroke-width="4.5" stroke-linecap="round"/><path d="M311.50962,321.42888l-18,6l-16,-14l12,-14l36,1" data-paper-data="{&quot;index&quot;:null}" fill="none" stroke="#b7a47c" stroke-width="4.5" stroke-linecap="round"/><path d="M323.50962,326.42888l12,11l-16,8l-30,-18" data-paper-data="{&quot;index&quot;:null}" fill="none" stroke="#b7a47c" stroke-width="4.5" stroke-linecap="round"/><path d="M341.50962,318.42888l17,-17l14,23l-35,12" data-paper-data="{&quot;index&quot;:null}" fill="none" stroke="#b7a47c" stroke-width="4.5" stroke-linecap="round"/><path d="M348.50962,334.42888l15,14l-24,6l-8,-14" data-paper-data="{&quot;index&quot;:null}" fill="none" stroke="#b7a47c" stroke-width="4.5" stroke-linecap="round"/><path d="M380.50962,365.42888l-15,-18l9,-24" data-paper-data="{&quot;index&quot;:null}" fill="none" stroke="#b7a47c" stroke-width="4.5" stroke-linecap="round"/><path d="M337.50962,352.42888l-10,8l-23,-7l-4,-15" data-paper-data="{&quot;index&quot;:null}" fill="none" stroke="#b7a47c" stroke-width="4.5" stroke-linecap="round"/><path d="M299.50962,345.42888l-40,-11l23,-16" data-paper-data="{&quot;index&quot;:null}" fill="none" stroke="#b7a47c" stroke-width="4.5" stroke-linecap="round"/><path d="M309.50962,356.42888l-17,15l-32,-12l11,-20" data-paper-data="{&quot;index&quot;:null}" fill="none" stroke="#b7a47c" stroke-width="4.5" stroke-linecap="round"/><path d="M345.50962,354.42888l-10,18" data-paper-data="{&quot;index&quot;:null}" fill="none" stroke="#b7a47c" stroke-width="4.5" stroke-linecap="round"/><path d="M383.50962,305.42888l-21,-5" data-paper-data="{&quot;index&quot;:null}" fill="none" stroke="#b7a47c" stroke-width="4.5" stroke-linecap="round"/><path d="M355.50962,299.42888l-23,-2" data-paper-data="{&quot;index&quot;:null}" fill="none" stroke="#b7a47c" stroke-width="4.5" stroke-linecap="round"/><path d="M418.99399,320.42888l-14,6l-16,-8l12,-20z" fill="none" stroke="#b7a47c" stroke-width="4.5" stroke-linecap="round"/><path d="M404.99399,300.42888l36,-1l12,14l-16,14l-18,-6" fill="none" stroke="#b7a47c" stroke-width="4.5" stroke-linecap="round"/><path d="M440.99399,327.42888l-30,18l-16,-8l12,-11" fill="none" stroke="#b7a47c" stroke-width="4.5" stroke-linecap="round"/><path d="M392.99399,336.42888l-35,-12l14,-23l17,17" fill="none" stroke="#b7a47c" stroke-width="4.5" stroke-linecap="round"/><path d="M398.99399,340.42888l-8,14l-24,-6l15,-14" fill="none" stroke="#b7a47c" stroke-width="4.5" stroke-linecap="round"/><path d="M355.99399,323.42888l9,24l-15,18" fill="none" stroke="#b7a47c" stroke-width="4.5" stroke-linecap="round"/><path d="M429.99399,338.42888l-4,15l-23,7l-10,-8" fill="none" stroke="#b7a47c" stroke-width="4.5" stroke-linecap="round"/><path d="M447.99399,318.42888l23,16l-40,11" fill="none" stroke="#b7a47c" stroke-width="4.5" stroke-linecap="round"/><path d="M458.99399,339.42888l11,20l-32,12l-17,-15" fill="none" stroke="#b7a47c" stroke-width="4.5" stroke-linecap="round"/><path d="M384.99399,354.42888l10,18" fill="none" stroke="#b7a47c" stroke-width="4.5" stroke-linecap="round"/><path d="M346.99399,305.42888l21,-5" fill="none" stroke="#b7a47c" stroke-width="4.5" stroke-linecap="round"/><path d="M374.99399,299.42888l23,-2" fill="none" stroke="#b7a47c" stroke-width="4.5" stroke-linecap="round"/><path d="M480.39356,322.29569l-15.39957,5.13319l-16,-14l12,-14l19.67579,0.54655" data-paper-data="{&quot;index&quot;:null}" fill="none" stroke="#b7a47c" stroke-width="4.5" stroke-linecap="round"/><path d="M480.60774,339.19713l-19.61375,-11.76825" data-paper-data="{&quot;index&quot;:null}" fill="none" stroke="#b7a47c" stroke-width="4.5" stroke-linecap="round"/><path d="M480.72362,354.86833l-4.72963,-1.43945l-4,-15" data-paper-data="{&quot;index&quot;:null}" fill="none" stroke="#b7a47c" stroke-width="4.5" stroke-linecap="round"/><path d="M470.99399,345.42888l-40,-11l23,-16" data-paper-data="{&quot;index&quot;:null}" fill="none" stroke="#b7a47c" stroke-width="4.5" stroke-linecap="round"/><path d="M480.71564,356.67448l-16.72165,14.7544l-32,-12l11,-20" data-paper-data="{&quot;index&quot;:null}" fill="none" stroke="#b7a47c" stroke-width="4.5" stroke-linecap="round"/><path d="M1.65559,298.60934h479.48649" fill="none" stroke="#b7a47c" stroke-width="12" stroke-linecap="round"/><path d="M362.11185,251.7557h120.33v40.91489h-120.33z" data-paper-data="{&quot;index&quot;:null}" fill="url(#color-1)" stroke="#91773e" stroke-width="2" stroke-linecap="butt"/><path d="M244.11185,251.7557h120.33v40.91489h-120.33z" data-paper-data="{&quot;index&quot;:null}" fill="url(#color-2)" stroke="#91773e" stroke-width="2" stroke-linecap="butt"/><path d="M365.11185,209.7557h117.33v40.91489h-117.33z" data-paper-data="{&quot;index&quot;:null}" fill="url(#color-3)" stroke="#91773e" stroke-width="2" stroke-linecap="butt"/></g></g></svg>