<svg version="1.1" xmlns="http://www.w3.org/2000/svg" xmlns:xlink="http://www.w3.org/1999/xlink" width="121.08111" height="186.53169" viewBox="0,0,121.08111,186.53169"><defs><linearGradient x1="246.96014" y1="256.20199" x2="284.4147" y2="256.20199" gradientUnits="userSpaceOnUse" id="color-1"><stop offset="0" stop-color="#8d6431"/><stop offset="1" stop-color="#ac793c"/></linearGradient><linearGradient x1="201.9179" y1="256.39949" x2="240.43217" y2="256.39949" gradientUnits="userSpaceOnUse" id="color-2"><stop offset="0" stop-color="#8d6431"/><stop offset="1" stop-color="#ac793c"/></linearGradient><linearGradient x1="244.96964" y1="170.90759" x2="244.96964" y2="224.28189" gradientUnits="userSpaceOnUse" id="color-3"><stop offset="0" stop-color="#4f6af7"/><stop offset="1" stop-color="#4758dd"/></linearGradient><linearGradient x1="274.94599" y1="119.13053" x2="274.94599" y2="132.45389" gradientUnits="userSpaceOnUse" id="color-4"><stop offset="0" stop-color="#349fc7"/><stop offset="1" stop-color="#297299"/></linearGradient><linearGradient x1="255.21855" y1="111.7076" x2="255.21855" y2="129.72296" gradientUnits="userSpaceOnUse" id="color-5"><stop offset="0" stop-color="#349fc7"/><stop offset="1" stop-color="#308fb6"/></linearGradient><linearGradient x1="244.87943" y1="118.595" x2="244.87943" y2="130.5763" gradientUnits="userSpaceOnUse" id="color-6"><stop offset="0" stop-color="#38291e"/><stop offset="1" stop-color="#381e32"/></linearGradient><linearGradient x1="262.12053" y1="115.59217" x2="262.12053" y2="126.13672" gradientUnits="userSpaceOnUse" id="color-7"><stop offset="0" stop-color="#38291e"/><stop offset="1" stop-color="#381e32"/></linearGradient></defs><g transform="translate(-181.67497,-85.16498)"><g data-paper-data="{&quot;isPaintingLayer&quot;:true}" fill-rule="nonzero" stroke-linejoin="miter" stroke-miterlimit="10" stroke-dasharray="" stroke-dashoffset="0" style="mix-blend-mode: normal"><g data-paper-data="{&quot;origPos&quot;:null,&quot;origRot&quot;:0}" stroke="none" stroke-linecap="butt"><g data-paper-data="{&quot;origPos&quot;:null,&quot;index&quot;:null,&quot;origRot&quot;:0}" stroke-width="0"><path d="M252.55548,172.25137c4.29217,-3.13596 13.81537,1.49 19.55786,9.34971c5.74247,7.85972 10.02733,16.1885 10.02733,16.1885l-12.77251,9.55856c0,0 -10.48402,-11.1918 -15.10276,-17.51344c-5.74247,-7.85972 -6.0021,-14.44736 -1.70993,-17.58333z" data-paper-data="{&quot;origRot&quot;:0,&quot;origPos&quot;:null}" fill="#41c3ff"/><g data-paper-data="{&quot;origPos&quot;:null}" fill="#ffffff"><path d="M278.06828,207.08921c7.31922,-5.88043 16.70126,-12.74991 22.43837,-4.68574c4.16206,5.85024 2.71373,19.87853 -5.73101,23.9818c-9.21514,4.47759 -16.71428,9.94512 -22.27584,0.32271c-5.19301,-8.98476 -1.75073,-13.73832 5.56848,-19.61876z" data-paper-data="{&quot;origRot&quot;:0,&quot;origPos&quot;:null}"/><path d="M274.1669,200.19274c5.65683,-4.5326 11.2269,-10.80734 14.35796,-6.19035c3.5027,5.16502 1.79825,6.0547 -7.62886,13.23325c-10.73923,8.17769 -10.8918,11.38269 -15.00639,5.90834c-2.40264,-3.19664 2.62048,-8.41863 8.27729,-12.95124z" data-paper-data="{&quot;origRot&quot;:0,&quot;origPos&quot;:null}"/></g></g><path d="M288.24268,226.22094l-5.01943,-7.05396l-7.85241,-0.25995l6.21063,-5.18914l-2.49747,-7.70255l7.34873,3.53096l7.16687,-5.98931l-1.97896,8.95351l6.29527,5.57134l-8.35643,0.25601z" data-paper-data="{&quot;origPos&quot;:null,&quot;origRot&quot;:0}" fill="#ffe008" stroke-width="NaN"/></g><g data-paper-data="{&quot;origPos&quot;:null,&quot;origRot&quot;:0}" stroke="none" stroke-width="0" stroke-linecap="butt"><path d="M269.16601,239.40203c2.04306,4.08708 7.48894,3.6759 7.74908,4.68026c1.05253,4.06366 0.40651,7.52822 -5.1255,12.05191c-6.85262,5.6036 -13.21612,7.74338 -22.00229,6.6655c-5.98415,-0.73413 -2.83831,-4.97128 -3.28892,-10.98344c-0.16169,-2.15732 -0.74227,-4.81904 -2.4354,-9.98508c-2.11686,-6.4589 -4.91416,-25.22127 -4.91416,-25.22127c0,0 6.70378,-2.97115 11.66986,-4.1191c3.91916,-0.90595 11.49497,-0.22615 11.49497,-0.22615c0,0 2.12957,17.68957 6.85235,27.13735z" data-paper-data="{&quot;origPos&quot;:null}" fill="#4758dd"/><path d="M284.56486,256.9215c1.54974,3.57724 -1.36022,6.83965 -4.39814,9.28286c-1.9909,1.60114 -13.09244,6.02954 -19.91272,5.2c-2.1174,-0.25754 -4.46179,-1.90893 -4.46179,-1.90893c0,0 -4.31975,2.69914 -4.88557,1.3567c-0.44915,-1.06565 -1.25864,-2.86097 -0.46903,-3.85707c3.39886,-4.28773 13.88453,-8.82363 18.9051,-10.99864c6.89211,-2.98581 13.7073,-2.57163 15.22216,0.9251z" data-paper-data="{&quot;origPos&quot;:null}" fill="#f8dca0"/><path d="M284.34734,251.67882c0.56007,4.73041 -2.33404,9.5389 -10.12568,12.91441c-7.79163,3.3755 -18.08449,2.46729 -18.08449,2.46729c0,0 -5.51218,2.74069 -6.25328,1.34288c-1.53388,-2.89308 -3.70518,-7.75718 -2.64066,-8.40815c3.9299,-2.40318 3.38508,-1.49413 8.35122,-5.03538c3.21534,-2.29279 7.67259,-8.23438 11.29624,-9.80422c7.79163,-3.3755 16.53448,-1.26554 17.45665,6.52317z" data-paper-data="{&quot;origPos&quot;:null}" fill="url(#color-1)"/></g><g data-paper-data="{&quot;origPos&quot;:null,&quot;origRot&quot;:0}" stroke="none" stroke-width="0" stroke-linecap="butt"><path d="M235.67764,244.38011c-1.21986,4.40344 3.0998,7.74517 2.62037,8.66526c-1.93978,3.72269 -4.73975,5.86295 -11.8775,5.51762c-8.8417,-0.42776 -15.00046,-3.10031 -20.80352,-9.78485c-3.95239,-4.55276 1.22143,-5.59265 4.91312,-10.35926c1.32468,-1.71038 2.67606,-4.07587 4.87837,-9.04624c2.75345,-6.21426 13.24119,-22.02117 13.24119,-22.02117c0,0 6.96823,2.28303 11.42499,4.75629c3.51721,1.95187 8.68801,7.5302 8.68801,7.5302c0,0 -10.26517,14.56304 -13.08502,24.74213z" data-paper-data="{&quot;origPos&quot;:null}" fill="#4758dd"/><path d="M235.38061,267.70324c-1.24478,3.69443 -5.59065,4.16842 -9.48292,3.94834c-2.55079,-0.14424 -13.76086,-4.29023 -18.27029,-9.47379c-1.39998,-1.60928 -2.03507,-4.40569 -2.03507,-4.40569c0,0 -5.0156,-0.88845 -4.53677,-2.26432c0.38011,-1.09218 0.98128,-2.96756 2.23475,-3.1785c5.39559,-0.90801 16.22029,2.74571 21.40533,4.49273c7.11791,2.39826 11.90172,7.26996 10.68496,10.88125z" data-paper-data="{&quot;origPos&quot;:null}" fill="#f8dca0"/><path d="M238.73008,263.66417c-2.75201,3.88804 -8.12152,5.52081 -16.16842,2.80954c-8.0469,-2.71127 -15.0825,-10.27884 -15.0825,-10.27884c0,0 -5.92897,-1.65616 -5.54322,-3.19053c0.79837,-3.17574 2.44337,-8.24209 3.66988,-8.01262c4.52788,0.84716 3.51449,1.15739 9.57408,1.85335c3.92329,0.4506 11.21246,-0.97682 14.95484,0.28411c8.0469,2.71127 13.1266,10.13326 8.59535,16.535z" data-paper-data="{&quot;origPos&quot;:null}" fill="url(#color-2)"/></g><g data-paper-data="{&quot;origPos&quot;:null}"><path d="M270.72766,194.07829c0.39163,21.17353 -7.36176,30.41297 -28.3,30.2c-21.9365,-0.22312 -23.2,-12.78796 -23.2,-22.95c0,-11.02412 -0.93148,-20.04986 7.57136,-27.06648c6.33487,-5.22759 13.21535,-2.78352 21.42864,-2.78352c15.18783,0 22.11612,1.84521 22.5,22.6z" data-paper-data="{&quot;origPos&quot;:null}" fill="url(#color-3)" stroke="none" stroke-width="0" stroke-linecap="butt"/><path d="M270.97766,193.47829c0,0 -17.24385,2 -29.4,2.4c-11.15011,0.36689 -22.4,-3.4 -22.4,-3.4c0,0 -0.98648,-13.79564 6.98462,-19.16002c5.21526,-3.50975 11.08038,-4.65914 18.61538,-4.83998c7.535,-0.18084 15.72889,2.13912 19.52206,5.21215c8.95988,7.25886 6.67794,19.78785 6.67794,19.78785z" data-paper-data="{&quot;origPos&quot;:null}" fill="#41c3ff" stroke="none" stroke-width="0" stroke-linecap="butt"/><path d="M257.08548,172.3696c0,0 2.14029,6.84028 2.57206,10.95319c0.55457,5.28272 -0.57997,15.20846 -0.57997,15.20846" data-paper-data="{&quot;origPos&quot;:null,&quot;origRot&quot;:0}" fill="none" stroke="#5063f7" stroke-width="10" stroke-linecap="round"/><path d="M235.57766,172.87829c0,0 1.23985,7.05925 1.13735,11.19349c-0.13165,5.31011 -2.53735,15.00651 -2.53735,15.00651" data-paper-data="{&quot;origPos&quot;:null}" fill="none" stroke="#5063f7" stroke-width="10" stroke-linecap="round"/><path d="M231.96113,202.69229l0.47856,-4.16533l-2.74233,-2.63761l3.91676,0.14425l1.59649,-3.58172l1.50128,3.65183l4.5202,0.16603l-3.61311,2.58175l0.46103,4.045l-3.09091,-2.61517z" data-paper-data="{&quot;origPos&quot;:null,&quot;origRot&quot;:0}" fill="#ffe008" stroke="none" stroke-width="NaN" stroke-linecap="butt"/><path d="M257.35407,202.45039l-0.09884,-4.19156l-3.07901,-2.23539l3.89937,-0.39579l1.08873,-3.76726l1.98925,3.41067l4.50007,-0.45721l-3.2237,3.05412l1.01296,3.94315l-3.4212,-2.16523z" data-paper-data="{&quot;origPos&quot;:null,&quot;origRot&quot;:0}" fill="#ffe008" stroke="none" stroke-width="NaN" stroke-linecap="butt"/></g><g data-paper-data="{&quot;origPos&quot;:null,&quot;origRot&quot;:0}" stroke="none" stroke-linecap="butt"><g data-paper-data="{&quot;origPos&quot;:null}" stroke-width="0"><path d="M214.91483,208.5085l-13.13435,-9.05494c0,0 3.95791,-8.48903 9.3906,-16.56597c5.43269,-8.07695 13.9658,-9.83858 18.37661,-6.87179c0.41081,5.96678 2.71052,6.32858 -2.72217,14.40553z" data-paper-data="{&quot;origRot&quot;:0,&quot;origPos&quot;:null}" fill="#41c3ff"/><g data-paper-data="{&quot;origPos&quot;:null}" fill="#ffffff"><path d="M212.53796,227.97541c-5.18338,9.83128 -12.88935,4.65933 -22.27155,0.54326c-8.59783,-3.77195 -10.59026,-17.73335 -6.65872,-23.74094c5.41936,-8.28103 15.0613,-1.78138 22.60352,3.81016c7.54222,5.59153 11.16665,10.20773 6.32675,19.38752z" data-paper-data="{&quot;origRot&quot;:0,&quot;origPos&quot;:null}"/><path d="M218.61601,214.16478c-3.89873,5.63014 -4.17576,2.43347 -15.22469,-5.32066c-9.69897,-6.80673 -11.43672,-7.62951 -8.1374,-12.92676c2.94926,-4.7352 8.75899,1.31833 14.5877,5.62765c5.82871,4.30932 11.05098,9.33217 8.77439,12.61977z" data-paper-data="{&quot;origRot&quot;:0,&quot;origPos&quot;:null}"/></g></g><path d="M186.64556,219.7106l6.0728,-6.17042l-1.11053,-7.77783l6.19078,5.21283l7.15038,-3.79981l-2.1982,7.85107l7.14514,6.01521l-9.16128,-0.39061l-4.39077,7.16877l-1.70634,-8.18436z" data-paper-data="{&quot;origPos&quot;:null,&quot;origRot&quot;:0}" fill="#ffe008" stroke-width="NaN"/></g><g data-paper-data="{&quot;origPos&quot;:null}"><path d="M287.89953,123.85389c-0.56793,3.79329 -11.88998,8.6 -20.8,8.6c-7.1797,0 -5.4,-6.75492 -5.4,-10.4c0,-3.64508 14.0703,-2.85 21.25,-2.85c7.1797,0 5.31761,2.19464 4.95,4.65z" data-paper-data="{&quot;origPos&quot;:null}" fill="url(#color-4)" stroke="none" stroke-width="0" stroke-linecap="butt"/><path d="M212.74262,165.23551c-1.88302,-1.368 -2.34219,-3.637 -0.85476,-6.37559c1.72578,-3.17745 1.08123,-8.21818 2.96425,-6.85018c0,0 7.23293,1.02169 7.79114,3.9154c0,0 3.0507,8.35652 1.80057,9.69315c0,0 -1.78179,1.32182 -6.42716,1.10231c-2.51693,-0.11893 -3.39102,-0.11707 -5.27403,-1.48508z" data-paper-data="{&quot;origRot&quot;:0,&quot;origPos&quot;:null}" fill="#e7be7a" stroke="none" stroke-width="0" stroke-linecap="butt"/><path d="M219.48286,126.13722c4.31396,1.0071 37.24301,-2.16822 43.0368,-1.8462c8.57182,0.47642 6.20204,8.21361 6.80713,16.77732c0.69572,9.84642 7.56286,14.33038 4.11388,23.57918c-1.32977,3.56593 -5.57109,6.18206 -8.56062,8.53723c-1.69594,1.33607 -4.01231,5.30061 -14.80054,5.5225c-18.91647,-3.76969 -24.18277,-8.72429 -27.36091,-12.69741c-3.28722,-3.79189 -1.91707,-5.03225 -5.0923,-9.83925c-0.97333,-1.47352 -2.12747,-2.25956 -2.322,-2.25956c-10.37042,0 -16.07143,-8.56649 -16.07143,-16.66666c0,-8.10018 3.70101,-14.66666 9.5,-14.66666c5.79899,0 9.25,3.20935 10.75,3.55952z" data-paper-data="{&quot;origPos&quot;:null}" fill="#ffdebd" stroke="none" stroke-width="0" stroke-linecap="butt"/><path d="M267.66619,131.34363c0.35235,4.88885 -1.81808,9.02906 -4.84779,9.24741c-3.02971,0.21836 -5.7714,-3.56782 -6.12375,-8.45666c-0.35235,-4.88885 1.81808,-9.02905 4.84779,-9.24741c3.02971,-0.21836 5.77141,3.56782 6.12376,8.45666z" data-paper-data="{&quot;origPos&quot;:null,&quot;origRot&quot;:0}" fill="#ffffff" stroke="none" stroke-width="0" stroke-linecap="butt"/><path d="M229.89286,133.9607c0,2.60849 3.85805,10.02393 1.51211,11.16446c-2.72909,1.32681 -3.54387,-2.9338 -7.19783,-2.25017c-2.71433,0.50783 -4.45714,-4.78172 -4.45714,-9.2c0,-4.41828 -0.01669,-8.69821 2.74286,-8.8c11.61857,-0.42857 7.4,4.66744 7.4,9.08571z" data-paper-data="{&quot;origPos&quot;:null}" fill="#e7be7a" stroke="none" stroke-width="0" stroke-linecap="butt"/><path d="M254.64298,136.34835c0.57094,4.86816 -1.41189,9.10142 -4.42877,9.45524c-3.01689,0.35383 -5.92541,-3.30577 -6.49635,-8.17393c-0.57094,-4.86816 1.41189,-9.10142 4.42877,-9.45524c3.01689,-0.35383 5.92541,3.30577 6.49635,8.17393z" data-paper-data="{&quot;origPos&quot;:null,&quot;origRot&quot;:0}" fill="#ffffff" stroke="none" stroke-width="0" stroke-linecap="butt"/><path d="M251.85,132.70001c0.952,0 1.814,0.695 2.439,1.817c0.624,1.122 1.011,2.672 1.011,4.383c0,1.711 -0.387,3.261 -1.011,4.383c-0.625,1.122 -1.487,1.817 -2.439,1.817c-0.952,0 -1.814,-0.695 -2.439,-1.817c-0.624,-1.122 -1.011,-2.672 -1.011,-4.383c0,-1.711 0.387,-3.261 1.011,-4.383c0.625,-1.122 1.487,-1.817 2.439,-1.817z" data-paper-data="{&quot;origPos&quot;:null}" id="ID0.2989244391210377" fill="#000000" stroke="#ffe008" stroke-width="2" stroke-linecap="butt"/><path d="M264.85,128.15001c0.952,0 1.814,0.695 2.439,1.817c0.624,1.122 0.775,2.904 1.011,4.383c0.083,0.539 0.233,1.323 -0.15,1.8c-0.483,0.577 -1.281,0.853 -2,1.1c-1.256,0.26 -2.748,1.037 -3.85,0.4c-0.966,-0.58 -0.89,-2.138 -0.9,-3.3c-0.013,-1.501 0.387,-3.261 1.011,-4.383c0.625,-1.122 1.487,-1.817 2.439,-1.817z" data-paper-data="{&quot;origPos&quot;:null}" id="ID0.2989244391210377" fill="#000000" stroke="#ffe008" stroke-width="2" stroke-linecap="round"/><path d="M273.79349,96.82854c2.39648,14.94461 -0.49216,15.79448 -8.52168,20.57884c-11.69967,6.97121 -27.00365,5.55994 -39.50062,10.97342c-3.28137,1.42143 -11.64483,-2.03217 -15.22084,-2.03217c-7.31398,0 -11.44089,-5.22725 -11.74313,-11.45342c-0.66666,-13.7335 6.09582,-13.78676 13.4098,-13.78676c0,0 8.04926,1.33414 10.82961,5.60456c0,0 11.19763,-18.21899 23.00151,-20.46979c15.1949,-2.89741 26.02436,-0.14688 27.74535,10.58532z" data-paper-data="{&quot;origPos&quot;:null}" fill="#41c3ff" stroke="none" stroke-width="0" stroke-linecap="butt"/><path d="M270.89953,105.35389c0,5.46762 -1.46317,9.58116 -12.2,9.9c-11.33464,0.33659 -12.2,-4.43238 -12.2,-9.9c0,-5.46762 5.46212,-9.9 12.2,-9.9c6.73787,0 12.2,4.43238 12.2,9.9z" data-paper-data="{&quot;origPos&quot;:null}" fill="#ffffff" stroke="none" stroke-width="0" stroke-linecap="butt"/><path d="M288.29953,121.75389c-0.2,0.85848 -39.34284,6.5 -50.3,7.7c-5.32532,0.58322 -16.1,0.15848 -15.9,-0.7c0.73933,-3.1735 2.8049,-8.24498 7.9,-9.9c6.15716,-2 27.29511,-7.38005 43.10212,-7.1384c6.46182,0.09879 15.93721,6.8649 15.19788,10.0384z" data-paper-data="{&quot;origPos&quot;:null}" fill="url(#color-5)" stroke="none" stroke-width="0" stroke-linecap="butt"/><path d="M254.2034,111.59417l0.18849,-3.45889l5.09724,-0.74498l-1.45114,-1.76959l-3.62565,-0.45434l-1.99342,-3.01392l1.9556,-2.81852l7.89963,-1.24007l1.73259,3.27111l-7.32518,0.57178l4.13196,1.53006l3.06427,2.53879l0.28922,2.58669l-2.24917,1.64784z" data-paper-data="{&quot;origPos&quot;:null,&quot;origRot&quot;:0}" fill="#ffe008" stroke="none" stroke-width="0" stroke-linecap="butt"/><path d="M268.23037,169.54033c-3.21733,0.20214 -7.84599,-0.72468 -15.34899,-1.96359c-9.7284,-1.60637 -11.10928,-8.44609 -11.10928,-8.44609c0,0 -3.6461,-1.33232 -5.675,-2.475c-1.58811,-0.89443 0.32605,-6.49937 1.18005,-6.66272c4.97377,-0.95139 6.45569,3.43243 10.27828,5.49605c0,0 12.7819,4.20754 18.75328,3.86744c0,0 9.6388,-4.51103 12.62642,-4.31325c1.48172,0.09809 1.49141,3.20314 1.02397,4.7714c0,0 -1.29607,4.20023 -3.42128,5.67204c-2.1252,1.47181 -5.09013,3.85158 -8.30745,4.05371z" data-paper-data="{&quot;origPos&quot;:null}" fill="#e7be7a" stroke="none" stroke-width="0" stroke-linecap="butt"/><path d="M278.43042,148.98899c-0.5,6.61802 1.12741,11.125 -13.25,10.875c-6.62642,-0.11523 -13,-4.25698 -13,-10.125c0,-5.86802 6.3926,-13.11026 13,-13.625c9.62741,-0.75 14.04992,2.28715 13.25,12.875z" data-paper-data="{&quot;origPos&quot;:null}" fill="#ffdebd" stroke="none" stroke-width="0" stroke-linecap="butt"/><g data-paper-data="{&quot;origPos&quot;:null}" fill="none" stroke="#f6b09a" stroke-width="3.5" stroke-linecap="round"><path d="M205.60689,132.93213c0,0 2.96332,-1.72996 6.75499,1.19948c5.43788,4.2013 2.24501,11.37195 2.24501,11.37195" data-paper-data="{&quot;origPos&quot;:null}"/><path d="M208.32118,139.64644h6" data-paper-data="{&quot;origPos&quot;:null}"/><path d="M212.46403,145.64644h1.28571" data-paper-data="{&quot;origPos&quot;:null}"/></g><path d="M245.01269,125.7013c-1.37576,0.41027 -1.31062,0.60464 -1.97844,1.87549c-0.68894,1.31106 -2.14657,2.99951 -2.14657,2.99951c0,0 -1.45833,-3.62706 -1.45833,-6.31945c0,-1.8281 0.99336,-5.0144 3.81107,-5.65344c9.53112,-0.32089 6.69401,8.65093 6.69401,8.65093c0,0 -3.4773,-2.0232 -4.92174,-1.55303z" data-paper-data="{&quot;origPos&quot;:null}" fill="url(#color-6)" stroke="none" stroke-width="0" stroke-linecap="butt"/><path d="M262.27348,122.89526c-1.51641,0.08916 -4.01601,3.24146 -4.01601,3.24146c0,0 -5.91454,-7.31854 3.07681,-10.49674c2.85665,-0.43291 4.94393,2.17143 5.61082,3.87354c0.98219,2.50684 0.94752,6.41595 0.94752,6.41595c0,0 -1.97313,-1.04035 -3.09287,-2.00973c-1.0854,-0.93965 -1.09566,-1.14439 -2.52627,-1.02451z" data-paper-data="{&quot;origPos&quot;:null,&quot;index&quot;:null,&quot;origRot&quot;:0}" fill="url(#color-7)" stroke="none" stroke-width="0" stroke-linecap="butt"/></g></g></g></svg>