<svg version="1.1" xmlns="http://www.w3.org/2000/svg" xmlns:xlink="http://www.w3.org/1999/xlink" width="483.54208" height="389.55886" viewBox="0,0,483.54208,389.55886"><defs><linearGradient x1="274.77253" y1="-2568.23937" x2="274.77253" y2="6718.62317" gradientUnits="userSpaceOnUse" id="color-1"><stop offset="0" stop-color="#52d7ff"/><stop offset="1" stop-color="#52d7ff" stop-opacity="0"/></linearGradient></defs><g transform="translate(0.94667,18.8634)"><g data-paper-data="{&quot;isPaintingLayer&quot;:true}" fill-rule="nonzero" stroke-linecap="butt" stroke-linejoin="miter" stroke-miterlimit="10" stroke-dasharray="" stroke-dashoffset="0" style="mix-blend-mode: normal"><path d="M0.31876,370.69547l-0.26543,-374.26221c0,0 22.12809,6.73227 53.38142,6.66911c32.03475,-0.06473 41.96613,-19.81496 122.90772,-18.09745c89.9188,4.82815 72.8484,17.5838 131.3179,14.81112c59.37276,0.32347 66.89846,-17.12426 110.90414,-17.67943c44.00567,-0.55517 63.39356,15.4805 63.39356,15.4805l0.23804,371.10583z" data-paper-data="{&quot;origPos&quot;:null,&quot;index&quot;:null}" fill="url(#color-1)" stroke="#3e7ac6" stroke-width="0"/><path d="M0.05333,-3.56674c0,0 22.12809,6.73227 53.38142,6.66911c32.03475,-0.06473 41.96613,-19.81496 122.90772,-18.09745c89.9188,4.82815 72.8484,17.5838 131.3179,14.81112c59.37276,0.32347 66.89846,-17.12426 110.90414,-17.67943c44.00567,-0.55517 63.39356,15.4805 63.39356,15.4805" data-paper-data="{&quot;origPos&quot;:null,&quot;index&quot;:null}" fill="none" stroke="#3b9bb9" stroke-width="2"/></g></g></svg>