<svg version="1.1" xmlns="http://www.w3.org/2000/svg" xmlns:xlink="http://www.w3.org/1999/xlink" width="200.68949" height="169.07241" viewBox="0,0,200.68949,169.07241"><defs><linearGradient x1="355.76916" y1="151.33262" x2="355.76916" y2="202.48524" gradientUnits="userSpaceOnUse" id="color-1"><stop offset="0" stop-color="#ffffff"/><stop offset="1" stop-color="#c7c7c7"/></linearGradient><linearGradient x1="329.22419" y1="173.02073" x2="329.22419" y2="205.97997" gradientUnits="userSpaceOnUse" id="color-2"><stop offset="0" stop-color="#18c100"/><stop offset="1" stop-color="#13a700"/></linearGradient><linearGradient x1="317.63713" y1="198.05453" x2="317.63713" y2="205.86533" gradientUnits="userSpaceOnUse" id="color-3"><stop offset="0" stop-color="#ffffff"/><stop offset="1" stop-color="#c2c2c2"/></linearGradient><linearGradient x1="385.23539" y1="168.48967" x2="385.23539" y2="207.74033" gradientUnits="userSpaceOnUse" id="color-4"><stop offset="0" stop-color="#18c100"/><stop offset="1" stop-color="#13a700"/></linearGradient><linearGradient x1="387.10526" y1="200.92853" x2="387.10526" y2="208.83097" gradientUnits="userSpaceOnUse" id="color-5"><stop offset="0" stop-color="#ffffff"/><stop offset="1" stop-color="#c2c2c2"/></linearGradient><linearGradient x1="396.64907" y1="199.40878" x2="396.64907" y2="208.13316" gradientUnits="userSpaceOnUse" id="color-6"><stop offset="0" stop-color="#ffffff"/><stop offset="1" stop-color="#c2c2c2"/></linearGradient><linearGradient x1="406.03627" y1="202.38958" x2="406.03627" y2="208.62803" gradientUnits="userSpaceOnUse" id="color-7"><stop offset="0" stop-color="#ffffff"/><stop offset="1" stop-color="#c2c2c2"/></linearGradient><linearGradient x1="392.43135" y1="139.96748" x2="392.43135" y2="171.89139" gradientUnits="userSpaceOnUse" id="color-8"><stop offset="0" stop-color="#18c100"/><stop offset="1" stop-color="#13a700"/></linearGradient><linearGradient x1="365.97903" y1="154.57835" x2="365.97903" y2="159.9229" gradientUnits="userSpaceOnUse" id="color-9"><stop offset="0" stop-color="#ffffff"/><stop offset="1" stop-color="#c2c2c2"/></linearGradient><linearGradient x1="368.46975" y1="163.78919" x2="368.46975" y2="169.13373" gradientUnits="userSpaceOnUse" id="color-10"><stop offset="0" stop-color="#ffffff"/><stop offset="1" stop-color="#c2c2c2"/></linearGradient><linearGradient x1="372.72062" y1="145.36754" x2="372.72062" y2="150.7121" gradientUnits="userSpaceOnUse" id="color-11"><stop offset="0" stop-color="#ffffff"/><stop offset="1" stop-color="#c2c2c2"/></linearGradient><linearGradient x1="322.32046" y1="149.30254" x2="322.32046" y2="174.21508" gradientUnits="userSpaceOnUse" id="color-12"><stop offset="0" stop-color="#18c100"/><stop offset="1" stop-color="#13a700"/></linearGradient><linearGradient x1="332.19248" y1="158.7651" x2="332.19248" y2="164.10966" gradientUnits="userSpaceOnUse" id="color-13"><stop offset="0" stop-color="#ffffff"/><stop offset="1" stop-color="#c2c2c2"/></linearGradient><linearGradient x1="329.88976" y1="167.97593" x2="329.88976" y2="173.32046" gradientUnits="userSpaceOnUse" id="color-14"><stop offset="0" stop-color="#ffffff"/><stop offset="1" stop-color="#c2c2c2"/></linearGradient><linearGradient x1="326.54036" y1="149.97293" x2="326.54036" y2="155.31751" gradientUnits="userSpaceOnUse" id="color-15"><stop offset="0" stop-color="#ffffff"/><stop offset="1" stop-color="#c2c2c2"/></linearGradient><linearGradient x1="345.02865" y1="88.152" x2="383.58157" y2="88.152" gradientUnits="userSpaceOnUse" id="color-16"><stop offset="0" stop-color="#fff700"/><stop offset="1" stop-color="#db9600"/></linearGradient><radialGradient cx="356.22008" cy="86.55592" r="2.98478" gradientUnits="userSpaceOnUse" id="color-17"><stop offset="0" stop-color="#ffffff"/><stop offset="1" stop-color="#5242ad"/></radialGradient><linearGradient x1="348.60399" y1="92.42915" x2="348.60399" y2="153.0491" gradientUnits="userSpaceOnUse" id="color-18"><stop offset="0" stop-color="#18c100"/><stop offset="1" stop-color="#13a700"/></linearGradient><radialGradient cx="321.00444" cy="204.04512" r="18.73626" gradientUnits="userSpaceOnUse" id="color-19"><stop offset="0" stop-color="#257fff"/><stop offset="1" stop-color="#255fff"/></radialGradient><radialGradient cx="278.11504" cy="221.30012" r="18.73642" gradientUnits="userSpaceOnUse" id="color-20"><stop offset="0" stop-color="#257fff"/><stop offset="1" stop-color="#255fff"/></radialGradient><radialGradient cx="364.79679" cy="220.68309" r="18.73642" gradientUnits="userSpaceOnUse" id="color-21"><stop offset="0" stop-color="#257fff"/><stop offset="1" stop-color="#255fff"/></radialGradient></defs><g transform="translate(-227.53715,-73.14951)"><g data-paper-data="{&quot;isPaintingLayer&quot;:true}" fill-rule="nonzero" stroke-linejoin="miter" stroke-miterlimit="10" stroke-dasharray="" stroke-dashoffset="0" style="mix-blend-mode: normal"><g><path d="M412.98938,204.36468l-11.51353,1.74447l-68.73234,-1.74447l-7.6757,-0.3489l-3.48895,-16.39807l2.09337,-21.98039l1.39558,-10.81575l63.49892,-0.69779z" data-paper-data="{&quot;origPos&quot;:null}" fill="#9c5a00" stroke="#9c5a00" stroke-width="0" stroke-linecap="round"/><path d="M386.12447,169.12626c1.92953,3.76494 2.31167,7.23025 2.79116,10.46685c0.47949,3.2366 0.38594,5.54333 0,8.37349c-0.38594,2.83015 -0.74475,4.75268 -2.09338,6.9779c-1.34862,2.22522 -2.87138,2.85801 -4.88452,4.53563c-2.01315,1.67762 -2.14815,2.20034 -3.48895,2.44227c-1.60741,0.29003 -12.798,0.88018 -20.23592,0.3489c-7.4379,-0.53128 -14.10742,-1.88882 -18.84034,-3.14006c-4.73292,-1.25123 -8.89465,-2.84764 -11.51353,-4.88454c-2.61888,-2.0369 -4.40765,-5.03477 -4.60541,-6.48945c-0.23822,-1.75224 -1.84444,-3.31287 -0.27912,-10.95531c1.56531,-7.64244 4.69079,-15.38934 6.62901,-18.84034c1.93823,-3.451 7.6757,-6.62901 7.6757,-6.62901l37.33178,0.34889c0,0 9.58401,13.67982 11.51354,17.44476z" data-paper-data="{&quot;origPos&quot;:null}" fill="url(#color-1)" stroke="#ffffff" stroke-width="0" stroke-linecap="round"/><path d="M398.71148,130.02398l7.06513,4.97175l1.8317,29.56886l9.1585,28.78385l-11.77522,0.52334l-23.28875,-50.50257z" data-paper-data="{&quot;origPos&quot;:null}" fill="#5242ad" stroke="#000000" stroke-width="0" stroke-linecap="round"/><g data-paper-data="{&quot;origPos&quot;:null}" stroke="#000000" stroke-width="0"><path d="M373.59102,144.15424h-40.55906l29.56887,-49.71756l36.63398,13.86859z" data-paper-data="{&quot;origPos&quot;:null}" fill="#536265" stroke-linecap="round"/><path d="M366.4857,100.53776l-4.88454,1.74448l-21.2826,49.892l-14.47914,-2.00614c0,0 2.2138,-11.82427 4.63565,-16.04274c7.26554,-12.65543 25.54378,-43.00778 25.54378,-43.00778l9.42017,0.34891l10.46686,0.3489l21.2826,9.07127l8.37349,3.14006l2.09337,4.18673l-0.69779,10.11795l-3.14006,6.28011l-3.48894,6.28011l-7.42636,5.16617c-0.91748,-0.68923 -1.83498,-1.37846 -2.75245,-2.06769c-1.53391,-1.1523 -3.03668,-2.3293 -4.52292,-3.54243c-1.16712,-0.95266 -2.48312,-2.28094 -3.81156,-2.99332l11.88428,-12.61188l1.04669,-2.09338l-2.09337,-2.44227l-18.66589,-9.07127z" data-paper-data="{&quot;origPos&quot;:null}" fill="#f6e000" stroke-linecap="butt"/></g><path d="M407.0717,180.51994l0.84861,0.07604c1.90744,2.72492 3.98593,5.38823 6.21224,7.8619c3.77127,4.28437 9.99212,4.83691 13.27058,9.69713c2.13984,3.17225 -0.25464,6.7083 -3.02292,8.21889c-4.48728,2.44862 -12.83263,0.21544 -16.46637,-2.75761c-4.33494,-4.21972 -6.13303,-11.01015 -6.58051,-16.97365c-0.17718,-2.36134 0.16476,-4.67036 -0.37604,-7.06772c-0.96266,-4.26749 -6.1368,-4.35589 -7.18715,-8.60478c-0.21017,-0.8502 1.83502,-4.05291 1.83688,-4.9287c0.00302,-1.42341 -0.53096,-3.13612 -0.87333,-4.50562c-0.93807,-4.01372 -6.56681,-8.85712 -6.35159,-13.00844c0.28425,-5.48284 8.0512,-10.71874 13.20905,-12.73367c1.8589,-0.72618 4.55964,-0.15296 6.47951,-0.00528c0,0 2.60901,0.20069 2.40831,2.80969c-0.20069,2.60901 -2.80971,2.4083 -2.80971,2.4083c-1.57954,-0.12151 -4.26322,1.16336 -5.81903,1.82643c-1.09017,0.46463 -2.86144,1.35777 -3.71217,2.43264c-0.60525,0.76471 -2.66471,2.66674 -2.85619,3.63525c-0.04374,0.22122 0.58612,-0.16832 0.67538,0.03877c0.46753,1.08469 0.45534,2.34077 0.94786,3.41434c1.16932,2.54885 2.19828,5.2015 2.90573,7.91264c0.38196,1.52785 0.95638,3.32952 0.95838,4.91455c0.00178,1.42048 2.78547,5.73401 3.14522,7.10819c0.0643,0.24565 1.65668,1.59878 2.36387,3.4321c0.57306,1.48561 0.75426,4.79507 0.75426,4.79507l0.04376,-0.03967c0,0 -0.00123,0.01518 -0.00467,0.04316z" data-paper-data="{&quot;origPos&quot;:null}" fill="#f6e000" stroke="none" stroke-width="0.5" stroke-linecap="butt"/><g data-paper-data="{&quot;origPos&quot;:null}" stroke="#000000" stroke-width="0" stroke-linecap="round"><path d="M350.74497,199.88564c0.32599,2.39065 5.43976,3.86826 -5.23343,5.23343c-10.6732,1.36518 -27.56272,0.69779 -27.56272,0.69779l-3.14006,-1.39558c0,0 -1.45871,-2.10287 0,-4.18674c1.45871,-2.08388 4.88453,-2.79116 4.88453,-2.79116c0,0 -8.98734,-4.2373 -10.46685,-5.58232c-1.47951,-1.34502 -1.60055,-2.22171 -1.04669,-4.88454c0.55387,-2.66283 0.45705,-3.16098 3.3145,-6.01844c2.85745,-2.85745 8.54793,-5.84399 8.54793,-5.84399c0,0 4.13027,-2.09337 6.97791,-2.09337c2.84764,0 4.45795,0.93554 6.97791,2.09337c2.51996,1.15782 3.44651,1.35315 5.93121,3.83785c2.48469,2.48469 5.23343,7.3268 5.23343,7.3268c0,0 1.12158,6.68294 1.74448,8.02459c0.62291,1.34164 2.46516,-0.64617 2.79117,1.74448z" data-paper-data="{&quot;origPos&quot;:null}" fill="url(#color-2)"/><path d="M324.5418,205.51648c-0.39823,0.03057 -15.70029,0.3489 -15.70029,0.3489c0,0 2.84028,-3.98126 5.23343,-5.93123c2.39314,-1.94995 4.18674,-1.74448 4.18674,-1.74448c0,0 2.96167,-0.4723 4.53563,0.3489c1.57397,0.82121 2.78335,1.92288 3.48895,3.83785c0.7056,1.91496 -1.34625,3.10948 -1.74447,3.14006z" data-paper-data="{&quot;origPos&quot;:null}" fill="url(#color-3)"/></g><g data-paper-data="{&quot;origPos&quot;:null}" stroke-width="0" stroke-linecap="round"><path d="M392.16969,170.8447c0,0 3.99768,3.67162 6.28011,6.28012c2.28243,2.6085 2.4812,2.23692 2.87839,4.18673c0.39718,1.94982 0.89697,6.16345 0,9.94351c-0.89697,3.78006 -3.6634,5.4951 -3.6634,5.4951l7.3268,5.75678v5.23343h-32.44725l-5.75678,-1.04669l-1.30836,-3.14006l1.8317,-3.14006l3.40172,-2.61671c0,0 -0.8347,-1.63493 -1.4828,-2.35503c-0.6481,-0.72012 -2.51436,-5.71353 -1.91893,-9.1585c0.59543,-3.44497 2.47419,-7.66112 4.71008,-12.29855c2.2359,-4.63744 2.35504,-2.35504 2.35504,-2.35504l10.72853,-3.14006z" data-paper-data="{&quot;origPos&quot;:null}" fill="url(#color-4)" stroke="#18c100"/><path d="M387.34296,201.15527c4.11625,0.52907 8.02459,6.97791 8.02459,6.97791l-2.79116,0.69779l-13.60692,-0.69779c0,0 -0.28461,-1.72391 0,-2.79117c0.2846,-1.06725 0.60348,-1.65016 1.39558,-2.44227c0.7921,-0.7921 0.50707,-0.91177 2.44227,-1.39558c1.9352,-0.48379 0.86535,-0.82064 4.53564,-0.3489z" data-paper-data="{&quot;origPos&quot;:null}" fill="url(#color-5)" stroke="#000000"/><path d="M396.76313,200.1086c1.42567,0.36962 3.14006,2.09337 3.14006,2.09337l4.88452,5.58231l-2.09337,0.3489h-12.56023c0,0 -1.25151,-2.08928 -1.39558,-2.44227c-0.14407,-0.35297 0,-0.23535 0,-0.9769c0,-0.74154 -0.51329,-0.35653 0,-1.81426c0.51329,-1.45772 -0.57395,-2.33364 1.74448,-3.14006c2.31843,-0.80642 4.85444,-0.02072 6.28012,0.34889z" data-paper-data="{&quot;origPos&quot;:null}" fill="url(#color-6)" stroke="#000000"/><path d="M401.99655,202.55085c1.18575,-0.20209 1.69846,-0.22762 3.14006,0c1.4416,0.22762 2.42473,0.10071 3.48895,1.04669c1.06421,0.94597 2.79116,4.53564 2.79116,4.53564c0,0 -5.55973,1.31851 -8.37349,-0.3489c-2.81375,-1.6674 -3.11115,-4.88157 -1.04668,-5.23343z" data-paper-data="{&quot;origPos&quot;:null}" fill="url(#color-7)" stroke="#000000"/></g><g data-paper-data="{&quot;origPos&quot;:null}"><path d="M389.86168,138.91624l-4.18673,8.02459l-9.76906,2.09338l-3.33942,0.54826l-5.38296,3.63847l-6.97791,4.53563l-4.88453,5.93122l-1.04669,2.09338l-2.34258,2.09337c0,0 -0.06514,1.56414 -0.44859,2.79117c-0.38344,1.22701 -0.72802,1.74057 -1.2959,3.09022c-0.42996,1.02188 -1.43327,1.64824 -2.89084,2.4921c-1.45757,0.84385 -4.40358,1.01055 -4.54237,0.98741c-0.41638,-0.0694 -2.51403,-0.25421 -3.83112,-0.63852c-1.3171,-0.38431 -1.72579,0.01869 -3.14006,-1.39558c-1.41426,-1.41427 -2.05511,-2.31641 -2.09338,-3.83784c-0.13693,-5.44471 0,-13.95581 0,-13.95581l-10.11795,-0.34889l-4.53563,-2.44226l3.14006,-3.83785l3.83784,-0.69779l0.43612,-3.40172l13.69413,5.844l0.52334,5.23343l6.97791,1.39558l4.53563,0.34889l4.88454,-5.23343l5.23343,-4.53563l8.02459,-4.18674l0.34889,-4.18674l5.93123,-8.37348l13.21202,-13.76994c1.33886,0.67328 9.3511,10.22267 10.22256,10.87732z" data-paper-data="{&quot;origPos&quot;:null}" fill="#f6e000" stroke="#000000" stroke-width="0" stroke-linecap="butt"/><g data-paper-data="{&quot;origPos&quot;:null}"><path d="M347.02703,168.61189c0,2.89034 -2.67112,5.23342 -5.96611,5.23342c-3.29498,0 -5.96611,-2.34309 -5.96611,-5.23342c0,-2.89033 2.67111,-5.23343 5.96611,-5.23343c3.29498,0 5.96611,2.34309 5.96611,5.23343z" data-paper-data="{&quot;origPos&quot;:null}" fill="#ca576f" stroke="none" stroke-width="0" stroke-linecap="butt"/><path d="M338.8629,169.8679l-5.02409,-2.51205l5.6521,-1.88404l3.14006,-6.48945l0.20933,7.11746l8.37349,3.34939l-7.95481,1.46536l-2.30271,5.86144z" data-paper-data="{&quot;origPos&quot;:null}" fill="#d1290f" stroke="#d1290f" stroke-width="0.5" stroke-linecap="round"/></g></g><g data-paper-data="{&quot;origPos&quot;:null}" stroke-width="0" stroke-linecap="round"><path d="M410.22499,139.96748l4.18674,2.09338l2.35504,2.09338l0.52334,2.87839l0.26167,3.6634l-1.30836,4.18674l-2.87839,4.44842l-4.18673,3.6634l-3.6634,2.09337l-3.92507,0.52334h-6.54179l-1.57002,4.71009l-2.61671,1.30836l-8.89683,0.26168l-9.42017,-0.52334l-2.09338,-1.8317l-1.57002,-2.35504v-1.57003v-1.8317l1.04669,-1.57003l-2.35504,-2.87839l-0.26167,-3.14006l0.78501,-1.8317l2.35503,-3.14006h2.61671v-3.14006l3.40172,-2.87839l2.61671,-1.30836l3.14006,0.52334l3.6634,2.09338l2.61671,4.97175l18.57867,-11.25186z" data-paper-data="{&quot;origPos&quot;:null}" fill="url(#color-8)" stroke="#18c100"/><path d="M368.21627,154.68247c1.28163,0.32316 1.46677,0.6274 1.585,1.46536c0.11822,0.83796 0.13034,2.39155 -0.90572,3.34939c-1.03605,0.95784 -2.71715,0 -2.71715,0l-4.07572,-0.83735l2.71714,-3.76807c0,0 2.11479,-0.53249 3.39642,-0.20933z" data-paper-data="{&quot;origPos&quot;:null,&quot;index&quot;:null}" fill="url(#color-9)" stroke="#000000"/><path d="M370.70697,163.89326c1.28163,0.32316 1.46679,0.62739 1.58501,1.46536c0.11822,0.83796 0.13033,2.39156 -0.90572,3.34939c-1.03605,0.95784 -2.71714,0 -2.71714,0l-4.07572,-0.83735l2.71714,-3.76806c0,0 2.11479,-0.5325 3.39643,-0.20934z" data-paper-data="{&quot;origPos&quot;:null,&quot;index&quot;:null}" fill="url(#color-10)" stroke="#000000"/><path d="M374.95786,145.47163c1.28163,0.32316 1.46677,0.62739 1.585,1.46536c0.11822,0.83796 0.13034,2.39155 -0.90572,3.34939c-1.03605,0.95784 -2.71715,0 -2.71715,0l-4.07572,-0.83735l2.71715,-3.76807c0,0 2.11479,-0.53249 3.39643,-0.20933z" data-paper-data="{&quot;origPos&quot;:null,&quot;index&quot;:null}" fill="url(#color-11)" stroke="#000000"/></g><g data-paper-data="{&quot;origPos&quot;:null}" stroke-width="0" stroke-linecap="round"><path d="M313.63287,154.99504l2.83283,-4.10578l3.4509,-1.45766l2.8234,-0.12904l10.54171,3.52363l-3.70501,3.84893l1.74372,3.01725l0.49817,1.69776l-0.56296,2.74033l-2.38064,2.28815l0.75652,1.49478l-0.35999,2.99869l-1.63323,1.90987l-2.03919,1.39315l-8.35946,-0.53555l-5.36855,-0.80523c0.06342,-1.44853 -0.10399,-2.92767 -0.51183,-4.30947c0.88029,-4.58477 1.29635,-9.24631 1.87566,-13.88116z" data-paper-data="{&quot;origPos&quot;:null,&quot;index&quot;:null,&quot;origRot&quot;:0}" fill="url(#color-12)" stroke="#18c100"/><path d="M333.26421,159.07853l2.51205,3.76806l-3.76806,0.83735c0,0 -1.55421,0.95784 -2.51205,0c-0.95785,-0.95785 -0.94664,-2.51143 -0.83735,-3.34939c0.10931,-0.83795 0.28047,-1.14221 1.46536,-1.46536c1.18489,-0.32316 3.14006,0.20934 3.14006,0.20934z" data-paper-data="{&quot;origPos&quot;:null}" fill="url(#color-13)" stroke="#000000"/><path d="M330.96148,168.28938l2.51205,3.76806l-3.76806,0.83735c0,0 -1.5542,0.95785 -2.51205,0c-0.95785,-0.95785 -0.94664,-2.51143 -0.83735,-3.34939c0.10929,-0.83796 0.28047,-1.1422 1.46536,-1.46536c1.18489,-0.32316 3.14006,0.20934 3.14006,0.20934z" data-paper-data="{&quot;origPos&quot;:null}" fill="url(#color-14)" stroke="#000000"/><path d="M327.61209,150.28636l2.51205,3.76806l-3.76806,0.83735c0,0 -1.5542,0.95784 -2.51205,0c-0.95785,-0.95785 -0.94664,-2.51142 -0.83735,-3.34938c0.10929,-0.83796 0.28047,-1.14221 1.46536,-1.46536c1.18489,-0.32316 3.14006,0.20934 3.14006,0.20934z" data-paper-data="{&quot;origPos&quot;:null}" fill="url(#color-15)" stroke="#000000"/></g><g data-paper-data="{&quot;origPos&quot;:null}"><path d="M347.99426,91.98985v-10.46685l-1.57003,-0.17443l-0.87223,-0.69779l-0.52333,-1.04669v-1.57003l1.04668,-1.22112l1.22114,-0.69779l1.91892,0.34889l1.57003,1.39559v1.74447l-0.87223,1.22113l1.91892,2.26781l-0.17444,-4.71009l-1.39558,-1.39559l-0.52334,-1.91892l0.69779,-1.39559l2.09338,-0.52334h1.39558l0.69779,1.04668l0.69779,2.09338l-1.22114,1.74447l4.71008,5.93122h1.74448l4.88453,-5.58232l-0.69779,-1.22113l0.34889,-2.09338l0.87223,-1.39559l1.91892,-0.3489l1.22113,1.04668l0.87224,1.74449l-0.52334,1.39558l-1.74448,1.22113l-0.17445,5.75678l1.04669,1.57002l1.39558,0.69779l1.39557,-1.39559l3.6634,-4.53563l-0.34889,-1.91893l0.69779,-1.04669l1.39558,-0.69778h1.91892l0.87223,0.87223v1.74448l-0.3489,1.22112l-1.57002,0.52334h-1.04669l-2.09337,6.10567l0.17444,2.44227l1.22114,1.39559h1.22113l1.22114,-0.87224v-1.22112l0.34889,-1.57002l1.22114,-0.52334h1.04669l1.74448,0.3489l0.87223,1.74447l-1.04669,2.09338l-1.57003,0.3489l-7.85014,11.33909l-5.05898,-4.71008l-3.48895,-1.91892h-7.15234l-9.24572,-0.17444z" data-paper-data="{&quot;origPos&quot;:null}" fill="url(#color-16)" stroke="#fff700" stroke-width="0" stroke-linecap="round"/><path d="M348.16869,89.37313l12.03689,-0.17443l3.14006,0.34889l3.14006,1.39559l3.6634,2.61671l5.23343,5.75678" data-paper-data="{&quot;origPos&quot;:null}" fill="none" stroke="#ce8c00" stroke-width="1" stroke-linecap="round"/><path d="M359.46678,90.1542c-1.06038,1.37226 -2.8779,1.74446 -4.05957,0.83137c-1.18166,-0.91311 -1.27997,-2.76575 -0.2196,-4.13799c1.06038,-1.37226 2.8779,-1.74447 4.05957,-0.83137c1.18166,0.91311 1.27998,2.76574 0.21961,4.13799z" data-paper-data="{&quot;origRot&quot;:0,&quot;origPos&quot;:null}" fill="url(#color-17)" stroke="#ce8c00" stroke-width="0" stroke-linecap="butt"/></g><g data-paper-data="{&quot;origPos&quot;:null}"><path d="M323.02952,143.79385l-0.47505,0.28678c-1.80605,-1.35453 -3.69934,-3.59731 -5.72366,-4.55877c-4.20214,-1.99581 -11.70916,0.03186 -11.92617,-6.95607c-0.04075,-1.31235 0.08836,-2.66824 0.53706,-3.90217c0.32592,-0.48216 0.77582,-1.15359 1.25968,-1.78657c-0.27683,-0.31307 -0.51882,-0.66614 -0.71607,-1.10112c-1.5266,-3.36679 -1.08416,-6.8079 1.09408,-9.92794c1.54667,-2.21543 4.57427,-2.56601 7.00844,-2.3473c0.42488,0.03817 1.10451,-0.15012 1.41647,0.04337c0.16195,-0.29258 0.32679,-0.58342 0.50838,-0.86399c0.70324,-1.08655 1.57828,-2.10436 2.35504,-3.14006c5.00087,-6.61995 11.3861,-13.17799 19.63551,-15.64946c2.21112,-0.66244 4.55678,-0.59735 6.80345,-1.04668c8.64979,-1.48388 19.33099,1.12215 26.57174,6.09172c2.06686,1.41857 3.28287,3.6158 5.11792,5.24695c4.43244,3.96072 8.31519,7.66648 11.47596,12.68428c2.02091,3.20823 4.35607,5.23276 4.33805,9.38706c-0.01376,3.1765 -3.38751,5.71596 -5.36174,7.74502c-2.54484,2.61553 -4.94608,5.50333 -7.61148,7.98836c-1.51868,1.41589 -3.4083,1.9387 -5.08033,3.01596c-6.08988,3.9236 -11.70849,6.99889 -19.18524,7.57403c-6.26934,0.42133 -11.92455,1.04546 -18.17506,-0.62564c-3.99786,-1.06886 -7.64174,-3.98229 -11.57289,-5.41181c0,0 -0.37914,-0.13787 -0.78554,-0.4542l-0.01378,0.07382c0,0 -1.57704,-0.78852 -1.49478,-2.36558z" data-paper-data="{&quot;origPos&quot;:null}" fill="url(#color-18)" stroke="#000000" stroke-width="0" stroke-linecap="butt"/><g data-paper-data="{&quot;origPos&quot;:null}"><path d="M361.87755,99.8236c3.28341,6.10616 1.56479,13.13325 -3.83864,15.69545c-5.40343,2.5622 -12.44551,-0.31077 -15.72893,-6.41693c-3.28341,-6.10616 -1.56479,-13.13326 3.83864,-15.69544c5.40343,-2.5622 12.44551,0.31078 15.72892,6.41693z" data-paper-data="{&quot;origRot&quot;:0,&quot;origPos&quot;:null}" fill="#ffffff" stroke="none" stroke-width="NaN" stroke-linecap="butt"/><path d="M345.82837,98.428c3.28341,6.10616 1.56479,13.13325 -3.83865,15.69545c-5.40343,2.5622 -12.44551,-0.31077 -15.72892,-6.41694c-3.28341,-6.10616 -1.5648,-13.13326 3.83864,-15.69544c5.40343,-2.5622 12.44552,0.31078 15.72893,6.41694z" data-paper-data="{&quot;origRot&quot;:0,&quot;origPos&quot;:null}" fill="#ffffff" stroke="none" stroke-width="NaN" stroke-linecap="butt"/><path d="M347.03479,97.65938c-3.74,1.99897 -6.62901,7.67569 -6.62901,7.67569c0,0 -3.62041,-5.30001 -6.10566,-7.50124c-2.48526,-2.20123 -7.50125,-2.96561 -7.50125,-2.96561c0,0 1.69686,-1.64049 3.14006,-2.44227c1.4432,-0.80178 1.58402,-0.70091 3.14006,-1.04669c1.55603,-0.34579 1.59402,-0.73413 4.01229,0c2.41827,0.73413 5.75677,2.96562 5.75677,2.96562c0,0 2.77102,-2.08833 4.88454,-2.61671c2.11352,-0.52838 3.0555,-0.68914 5.58231,0c2.52682,0.68914 5.93122,3.14006 5.93122,3.14006c0,0 -8.47133,0.7922 -12.21134,2.79117z" data-paper-data="{&quot;origPos&quot;:null}" fill="#a8e61d" stroke="#a8e61d" stroke-width="0.5" stroke-linecap="round"/><path d="M345.15752,104.11661c0.39802,0 0.75842,0.23406 1.01903,0.61268c0.26139,0.37862 0.42297,0.9014 0.42297,1.47844c0,0.57665 -0.16159,1.09943 -0.42297,1.47844c-0.2606,0.37822 -0.621,0.61268 -1.01903,0.61268c-0.39802,0 -0.75883,-0.23447 -1.01943,-0.61268c-0.26139,-0.37901 -0.42298,-0.90179 -0.42298,-1.47844c0,-0.57705 0.1616,-1.09982 0.42298,-1.47844c0.2606,-0.37862 0.6214,-0.61268 1.01943,-0.61268z" data-paper-data="{&quot;origPos&quot;:null}" fill="#000000" stroke="none" stroke-width="0.14566" stroke-linecap="butt"/><path d="M335.25634,104.11661c0.39802,0 0.75842,0.23406 1.01903,0.61268c0.26139,0.37862 0.42298,0.9014 0.42298,1.47844c0,0.57665 -0.1616,1.09943 -0.42298,1.47844c-0.2606,0.37822 -0.621,0.61268 -1.01903,0.61268c-0.39802,0 -0.75883,-0.23447 -1.01943,-0.61268c-0.26139,-0.37901 -0.42298,-0.90179 -0.42298,-1.47844c0,-0.57705 0.1616,-1.09982 0.42298,-1.47844c0.2606,-0.37862 0.6214,-0.61268 1.01943,-0.61268z" data-paper-data="{&quot;origPos&quot;:null}" fill="#000000" stroke="none" stroke-width="0.14566" stroke-linecap="butt"/></g><path d="M307.63913,127.072l8.11182,-0.52334h7.3268l8.89682,2.87838l8.37349,2.09338l5.75678,-0.26167" data-paper-data="{&quot;origPos&quot;:null}" fill="none" stroke="#005208" stroke-width="2" stroke-linecap="round"/><path d="M348.98327,128.9037l7.06513,-4.71008l6.28011,-2.61671l6.28011,-1.30836h2.87839l2.87838,1.04668l2.09338,2.35504l0.52334,4.71009v2.61671l-2.61671,3.40172l-3.92507,2.61671l-5.23342,0.78501l-12.03689,-3.6634l-8.89682,-2.87839z" data-paper-data="{&quot;origPos&quot;:null}" fill="#801a1a" stroke="#801a1a" stroke-width="0.5" stroke-linecap="round"/><path d="M328.76788,121.40026c-0.60838,-0.85173 0.24334,-1.46009 0.24334,-1.46009l-0.32781,-0.13971c0.89276,-1.78553 2.62505,-2.67196 4.59958,-2.67196c0,0 1.04668,0 1.04668,1.04668c0,1.04668 -1.04668,1.04669 -1.04668,1.04669c-1.39402,0 -2.27127,0.60288 -2.72721,1.51478l-0.32781,0.90697c0,0 -0.85172,0.60838 -1.4601,-0.24335z" data-paper-data="{&quot;origPos&quot;:null}" fill="#000000" stroke="none" stroke-width="0.5" stroke-linecap="butt"/><path d="M322.29276,121.05357c-1.04669,0 -1.04669,-1.04669 -1.04669,-1.04669c0,-0.69779 0,-2.1806 0,-2.87838c0,0 0,-1.04669 1.04669,-1.04669c1.04669,0 1.04669,1.04669 1.04669,1.04669c0,0.69779 0,1.39559 0,2.09337v0.78501c0,0 0,1.04669 -1.04669,1.04669z" data-paper-data="{&quot;origPos&quot;:null}" fill="#000000" stroke="none" stroke-width="0.5" stroke-linecap="butt"/><path d="M348.59076,129.03454c0,0 3.0901,1.35818 7.98098,1.70086c4.89087,0.34268 12.56023,-0.26167 12.56023,-0.26167c0,0 1.04669,1.29305 1.04669,2.87839c0,1.58534 -1.04669,3.92507 -1.04669,3.92507l-3.79424,0.65418l-11.77521,-3.6634l-9.28934,-3.00923z" data-paper-data="{&quot;origPos&quot;:null}" fill="#ffffff" stroke="#ffffff" stroke-width="0.5" stroke-linecap="round"/><path d="M353.95504,125.50198l2.48588,-1.70086c0,0 3.64781,-1.83681 6.06635,-2.51c2.53432,-0.70542 6.62471,-1.02256 6.62471,-1.02256l-0.39251,7.85014c0,0 -8.91653,0.66725 -9.93405,0.59188c-3.05254,-0.2261 -8.38294,-1.11522 -8.38294,-1.11522z" data-paper-data="{&quot;origPos&quot;:null}" fill="#ffffff" stroke="#ffffff" stroke-width="0.5" stroke-linecap="round"/></g></g><g><path d="M250.70487,183.1756h8.83542v12.92579h-8.83542z" data-paper-data="{&quot;origPos&quot;:null}" fill="#c673f8" stroke="none" stroke-width="0.27541" stroke-linecap="butt"/><path d="M252.4871,193.24116c1.33507,-0.04278 2.62105,-0.24792 3.84482,0.18892c1.16279,0.41704 2.54381,0.98379 3.10897,2.204c0.50616,1.22774 0.54536,3.26065 -0.38178,4.02977c-1.23726,1.02537 -3.0456,0.10457 -4.58148,0.18892c-1.37111,-0.00118 -2.75729,0.18892 -4.14463,0.06298c-1.01229,-0.09188 -2.05865,-0.31328 -2.95411,-0.87012c-0.87131,-0.54259 -2.11807,-1.46576 -2.11807,-2.404c0,-0.93824 0.80913,-1.78816 2.11807,-2.40401c1.30775,-0.61467 3.38898,-0.92557 5.10822,-0.99646z" data-paper-data="{&quot;origPos&quot;:null}" fill="#c673f8" stroke="none" stroke-width="0.29746" stroke-linecap="round"/><path d="M243.1883,198.05868l2.18143,-1.9632l0.65466,1.90896z" data-paper-data="{&quot;origPos&quot;:null}" fill="#ffffff" stroke="none" stroke-width="0.27541" stroke-linecap="round"/><path d="M245.13646,200.75575l0.75249,-2.83688l1.59212,1.24003z" data-paper-data="{&quot;origPos&quot;:null}" fill="#ffffff" stroke="none" stroke-width="0.27541" stroke-linecap="round"/><path d="M247.31391,202.10865l-0.0998,-2.93312l2.14143,0.58813z" data-paper-data="{&quot;origPos&quot;:null}" fill="#ffffff" stroke="none" stroke-width="0.27541" stroke-linecap="round"/><path d="M261.39813,183.76973h8.83541v12.92579h-8.83541z" data-paper-data="{&quot;origPos&quot;:null}" fill="#c673f8" stroke="none" stroke-width="0.27541" stroke-linecap="butt"/><path d="M263.18037,193.83525c1.33507,-0.04278 2.62105,-0.24792 3.84482,0.18892c1.16279,0.41704 2.54382,0.98379 3.10898,2.204c0.50616,1.22774 0.54536,3.26065 -0.38179,4.02977c-1.23726,1.02537 -3.0456,0.10457 -4.58148,0.18892c-1.37111,-0.00118 -2.75729,0.18892 -4.14463,0.06299c-1.01229,-0.09188 -2.05865,-0.31328 -2.95411,-0.87013c-0.87131,-0.54259 -2.11807,-1.46576 -2.11807,-2.404c0,-0.93824 0.80913,-1.78816 2.11807,-2.404c1.30775,-0.61467 3.38898,-0.92557 5.10822,-0.99646z" data-paper-data="{&quot;origPos&quot;:null}" fill="#c673f8" stroke="none" stroke-width="0.29746" stroke-linecap="round"/><path d="M254.0796,198.6527l2.18142,-1.9632l0.65466,1.90895z" data-paper-data="{&quot;origPos&quot;:null}" fill="#ffffff" stroke="none" stroke-width="0.27541" stroke-linecap="round"/><path d="M255.82973,201.1518l0.75249,-2.83689l1.59212,1.24003z" data-paper-data="{&quot;origPos&quot;:null}" fill="#ffffff" stroke="none" stroke-width="0.27541" stroke-linecap="round"/><path d="M258.00719,202.70273l-0.0998,-2.93313l2.14143,0.58814z" data-paper-data="{&quot;origPos&quot;:null}" fill="#ffffff" stroke="none" stroke-width="0.27541" stroke-linecap="round"/><path d="M238.71612,171.28622c1.33627,0.06099 2.64838,1.73627 3.81751,1.25428c2.44797,-1.01428 4.16562,-5.01 6.10863,-5.18109c1.1113,0.08951 0.61506,3.62345 0,5.01753c-1.13229,2.56759 -3.1569,4.88247 -5.19337,6.64172c-1.12003,0.96753 -2.50342,1.70261 -4.10583,1.70261c-1.60201,0 -3.05391,-0.65109 -4.10542,-1.70261c-1.0515,-1.0515 -1.59251,-2.62896 -1.70261,-4.10583c-0.07327,-0.99248 0.50812,-2.02103 1.36319,-2.53589c1.03091,-0.80516 2.45431,-1.15092 3.81788,-1.09072z" data-paper-data="{&quot;origPos&quot;:null}" fill="#c774f9" stroke="none" stroke-width="0.27541" stroke-linecap="butt"/><path d="M233.86216,174.9402l1.96321,-1.03606" data-paper-data="{&quot;origPos&quot;:null}" fill="none" stroke="#794699" stroke-width="0.27541" stroke-linecap="round"/><path d="M234.72319,177.96521l2.29033,-1.09072" data-paper-data="{&quot;origPos&quot;:null}" fill="none" stroke="#794699" stroke-width="0.27541" stroke-linecap="round"/><path d="M236.30738,179.54946l2.29033,-1.09072" data-paper-data="{&quot;origPos&quot;:null}" fill="none" stroke="#794699" stroke-width="0.27541" stroke-linecap="round"/><path d="M260.44882,154.19566c3.94977,0 7.52886,1.95567 10.12019,5.11455c2.59173,3.16006 4.19652,7.52292 4.19652,12.33767c0,4.81474 -1.60478,9.17761 -4.19652,12.33767c-2.59133,3.15888 -6.17042,5.11455 -10.12019,5.11455c-3.94938,0 -7.52846,-1.95567 -10.12019,-5.11455c-2.59133,-3.16006 -4.19612,-7.52292 -4.19612,-12.33767c0,-4.81474 1.60478,-9.17761 4.19612,-12.33767c2.59173,-3.15888 6.17082,-5.11455 10.12019,-5.11455z" data-paper-data="{&quot;origPos&quot;:null}" fill="#c774f9" stroke="none" stroke-width="0.27541" stroke-linecap="butt"/><path d="M251.11003,152.30455l-5.73279,-1.33428l-8.0057,-23.86938l14.82565,8.89522z" data-paper-data="{&quot;origPos&quot;:null}" fill="#c774f9" stroke="none" stroke-width="0.24956" stroke-linecap="round"/><path d="M248.49057,147.16505c0,0 -0.95883,-0.86575 -1.33428,-1.38379c-0.50219,-0.6919 -0.86457,-1.47963 -1.28477,-2.22381c-0.36953,-0.65428 -0.79565,-1.28398 -1.08714,-1.97667c-0.36991,-0.87804 -0.65428,-1.7949 -0.88953,-2.71807c-0.22733,-0.8915 -0.49427,-2.71806 -0.49427,-2.71806" data-paper-data="{&quot;origPos&quot;:null}" fill="none" stroke="#7a4799" stroke-width="0.24956" stroke-linecap="round"/><path d="M246.16816,139.35657c0,0 0.43367,0.2919 0.59289,0.49427c0.20952,0.26693 0.43883,0.55567 0.49427,0.88952c0.08079,0.48832 -0.09901,1.48281 -0.09901,1.48281" data-paper-data="{&quot;origPos&quot;:null}" fill="none" stroke="#7a4799" stroke-width="0.24956" stroke-linecap="round"/><path d="M257.39372,141.03898c5.57595,0 10.62911,1.22379 14.28859,3.20126c3.65868,1.97707 5.92369,4.70663 5.92369,7.72054c0,3.01352 -2.26499,5.74309 -5.92369,7.72015c-3.65948,1.97746 -8.71264,3.20125 -14.28859,3.20125c-5.57636,0 -10.62952,-1.22378 -14.28899,-3.20125c-3.65829,-1.97707 -5.92329,-4.70663 -5.92329,-7.72015c0,-3.01391 2.26499,-5.74347 5.92329,-7.72054c3.65948,-1.97746 8.71264,-3.20126 14.289,-3.20126z" data-paper-data="{&quot;origPos&quot;:null}" fill="#c774f9" stroke="none" stroke-width="0.24689" stroke-linecap="butt"/><path d="M261.73084,128.35795c4.55336,0 8.68017,1.84914 11.66875,4.83732c2.98779,2.98857 4.28166,7.56608 4.83732,11.66874c0.44872,3.32085 0.55646,7.41123 -1.97706,9.9293c-3.57987,3.59493 -9.06712,6.20764 -14.529,6.57637c-4.29156,0.28871 -8.67978,-1.84915 -11.66874,-4.83732c-2.98779,-2.98818 -4.83693,-7.11499 -4.83693,-11.66835c0,-4.55375 1.84914,-8.68017 4.83693,-11.66874c2.98897,-2.98818 7.11538,-4.83732 11.66874,-4.83732z" data-paper-data="{&quot;origPos&quot;:null}" fill="#c774f9" stroke="none" stroke-width="0.23388" stroke-linecap="round"/><path d="M270.92546,137.18426l14.82564,-8.89522l-8.0057,23.86938l-5.73279,1.33428z" data-paper-data="{&quot;origPos&quot;:null}" fill="#c774f9" stroke="none" stroke-width="0.24956" stroke-linecap="round"/><path d="M279.72207,137.33278c0,0 -0.26693,1.82657 -0.49427,2.71806c-0.23525,0.92318 -0.5196,1.84004 -0.88952,2.71807c-0.29149,0.69269 -0.71765,1.32241 -1.08715,1.97667c-0.42021,0.74417 -0.78259,1.53192 -1.28477,2.22381c-0.37546,0.51802 -1.33428,1.3838 -1.33428,1.3838" data-paper-data="{&quot;origPos&quot;:null}" fill="none" stroke="#7a4799" stroke-width="0.24956" stroke-linecap="round"/><path d="M275.96635,143.41131c0,0 -0.17981,-0.99448 -0.09901,-1.48281c0.05544,-0.33386 0.28476,-0.62259 0.49427,-0.88952c0.15921,-0.20237 0.59289,-0.49427 0.59289,-0.49427" data-paper-data="{&quot;origPos&quot;:null}" fill="none" stroke="#7a4799" stroke-width="0.24956" stroke-linecap="round"/><path d="M252.35044,132.06298c1.66775,0 3.17867,1.0717 4.27256,2.80164c1.09428,1.73073 1.77112,4.12087 1.77112,6.75816c0,2.63727 -0.67685,5.02742 -1.77112,6.75815c-1.09389,1.72993 -2.60481,2.80165 -4.27256,2.80165c-1.66735,0 -3.17867,-1.07171 -4.27217,-2.80165c-1.09428,-1.73073 -1.77112,-4.12086 -1.77112,-6.75815c0,-2.63727 0.67685,-5.02743 1.77112,-6.75816c1.09348,-1.72993 2.6048,-2.80164 4.27217,-2.80164z" data-paper-data="{&quot;origPos&quot;:null}" fill="#ffffff" stroke="none" stroke-width="0.22196" stroke-linecap="butt"/><path d="M259.46029,153.39363c0,0 -0.7216,0.18496 -1.08755,0.24713c-0.40793,0.06931 -0.821,0.16792 -1.23528,0.14813c-0.67604,-0.03446 -1.51013,0.00713 -2.1743,-0.34575c-0.41625,-0.2412 -0.64555,-0.76002 -0.79091,-1.28478c-0.08673,-0.33625 0.12276,-0.72079 0.34615,-0.98853c0.21625,-0.25981 0.67091,-0.23525 0.88952,-0.49427c0.38616,-0.46258 0.63131,-1.06735 0.88953,-1.63053c0.43288,-0.94101 1.48241,-3.26185 1.48241,-3.26185" data-paper-data="{&quot;origPos&quot;:null}" fill="none" stroke="#784598" stroke-width="0.24956" stroke-linecap="round"/><path d="M263.24175,131.86494c1.66775,0 3.17867,1.07171 4.27256,2.80165c1.09428,1.73073 1.77112,4.12086 1.77112,6.75816c0,2.63727 -0.67685,5.02743 -1.77112,6.75816c-1.09389,1.72993 -2.60481,2.80164 -4.27256,2.80164c-1.66735,0 -3.17868,-1.0717 -4.27217,-2.80164c-1.09428,-1.73073 -1.77112,-4.12087 -1.77112,-6.75816c0,-2.63727 0.67685,-5.02743 1.77112,-6.75816c1.09348,-1.72993 2.60481,-2.80165 4.27217,-2.80165z" data-paper-data="{&quot;origPos&quot;:null}" fill="#ffffff" stroke="none" stroke-width="0.22196" stroke-linecap="butt"/><path d="M261.09081,130.75997l-3.70621,6.12805l-3.55808,-5.73279" data-paper-data="{&quot;origPos&quot;:null}" fill="none" stroke="#794699" stroke-width="0.24956" stroke-linecap="round"/><path d="M249.47752,143.26276c0.27287,0 0.52,0.19365 0.69863,0.50733c0.17901,0.31328 0.28991,0.74497 0.28991,1.22261c0,0.47724 -0.11091,0.90933 -0.28991,1.2226c-0.17863,0.31328 -0.42575,0.50695 -0.69863,0.50695c-0.27287,0 -0.52001,-0.19366 -0.69863,-0.50695c-0.17901,-0.31328 -0.28991,-0.74536 -0.28991,-1.2226c0,-0.47763 0.1109,-0.90933 0.28991,-1.22261c0.17863,-0.31367 0.42575,-0.50733 0.69863,-0.50733z" data-paper-data="{&quot;origPos&quot;:null}" fill="#000000" stroke="none" stroke-width="0.24956" stroke-linecap="butt"/><path d="M259.97278,143.26276c0.27287,0 0.52,0.19365 0.69863,0.50733c0.17901,0.31328 0.28991,0.74497 0.28991,1.22261c0,0.47724 -0.1109,0.90933 -0.28991,1.2226c-0.17863,0.31328 -0.42574,0.50695 -0.69863,0.50695c-0.27287,0 -0.52001,-0.19366 -0.69864,-0.50695c-0.17901,-0.31328 -0.2899,-0.74536 -0.2899,-1.2226c0,-0.47763 0.1109,-0.90933 0.2899,-1.22261c0.17863,-0.31367 0.42575,-0.50733 0.69864,-0.50733z" data-paper-data="{&quot;origPos&quot;:null}" fill="#000000" stroke="none" stroke-width="0.24956" stroke-linecap="butt"/><path d="M271.71598,154.28277c0,0 -2.24558,1.76043 -3.45947,2.47093c-1.84201,0.99051 -3.7379,2.00956 -5.68288,2.61946c-2.64798,0.8321 -5.3807,1.8321 -8.15421,1.72953c-2.28994,-0.08595 -4.35493,-1.25151 -6.42428,-2.07568c-1.60122,-0.74615 -3.13234,-1.68914 -4.54662,-2.61907c-1.07328,-0.70575 -2.96521,-2.47093 -2.96521,-2.47093" data-paper-data="{&quot;origPos&quot;:null}" fill="none" stroke="#794699" stroke-width="0.24956" stroke-linecap="round"/><path d="M268.70166,156.55531l0.84001,-4.94189l2.47093,2.37194z" data-paper-data="{&quot;origPos&quot;:null}" fill="#ffffff" stroke="none" stroke-width="0.24956" stroke-linecap="round"/><path d="M240.41676,153.58928l2.47093,-2.37194l0.84001,4.94188z" data-paper-data="{&quot;origPos&quot;:null}" fill="#ffffff" stroke="none" stroke-width="0.24956" stroke-linecap="round"/><path d="M262.67699,169.30599c1.33627,0.06099 2.64838,1.73627 3.81751,1.25428c2.44797,-1.01428 4.16562,-5.01 6.10863,-5.18109c1.1113,0.08951 0.61506,3.62345 0,5.01753c-1.13229,2.56759 -3.15691,4.88247 -5.19337,6.64172c-1.12003,0.96753 -2.50342,1.70261 -4.10582,1.70261c-1.60201,0 -3.05391,-0.65109 -4.10542,-1.70261c-1.0515,-1.0515 -1.59251,-2.62896 -1.70261,-4.10583c-0.07327,-0.99248 0.50812,-2.02103 1.36319,-2.53589c1.03091,-0.80516 2.45431,-1.15092 3.81788,-1.09072z" data-paper-data="{&quot;origPos&quot;:null}" fill="#c774f9" stroke="#b16ee7" stroke-width="0.27541" stroke-linecap="butt"/><path d="M257.49591,173.01459l2.29033,-1.09072" data-paper-data="{&quot;origPos&quot;:null}" fill="none" stroke="#794699" stroke-width="0.27541" stroke-linecap="round"/><path d="M258.55453,176.14854l2.61787,-1.25428" data-paper-data="{&quot;origPos&quot;:null}" fill="none" stroke="#794699" stroke-width="0.27541" stroke-linecap="round"/><path d="M262.75661,176.47845l-2.45391,1.36319" data-paper-data="{&quot;origPos&quot;:null}" fill="none" stroke="#794699" stroke-width="0.27541" stroke-linecap="round"/></g><path d="M320.24983,170.44137c9.85576,0 18.78737,1.53971 25.25353,4.02682c6.46743,2.48743 10.47037,5.92193 10.47037,9.71309c0,3.79117 -4.00294,7.22567 -10.47037,9.71277c-6.46616,2.48743 -15.39777,4.02714 -25.25353,4.02714c-9.85576,0 -18.78737,-1.53971 -25.25353,-4.02714c-6.46711,-2.48711 -10.47037,-5.92161 -10.47037,-9.71277c0,-3.79117 4.00325,-7.22567 10.47037,-9.71309c6.46616,-2.48711 15.39777,-4.02682 25.25353,-4.02682z" fill="#7f7f7f" stroke="none" stroke-width="0.31379" stroke-linecap="butt"/><path d="M320.00016,188.62528c24.94973,0 47.5582,2.88931 63.92947,7.55686c16.37096,4.66754 26.50441,11.11364 26.50441,18.22721c0,7.11357 -10.13345,13.55935 -26.50441,18.22689c-16.37128,4.66754 -38.97975,7.55686 -63.92947,7.55686c-24.94973,0 -47.55851,-2.88931 -63.92947,-7.55686c-16.37096,-4.66754 -26.50472,-11.11332 -26.50472,-18.22689c0,-7.11357 10.13377,-13.55967 26.50472,-18.22721c16.37096,-4.66754 38.97975,-7.55686 63.92947,-7.55686z" fill="#666666" stroke="#b2b2b2" stroke-width="4.05764" stroke-linecap="butt"/><path d="M321.0046,190.8047c5.16911,0 9.85257,1.48398 13.24536,3.88033c3.39151,2.39699 5.49074,5.70665 5.49074,9.35993c0,3.65359 -2.09923,6.96294 -5.49074,9.36025c-3.39278,2.39635 -8.07625,3.88033 -13.24536,3.88033c-5.16942,0 -9.85289,-1.48398 -13.24536,-3.88033c-3.39151,-2.3973 -5.49106,-5.70665 -5.49106,-9.36025c0,-3.65328 2.09955,-6.96294 5.49106,-9.35993c3.39246,-2.39635 8.07593,-3.88033 13.24536,-3.88033z" fill="url(#color-19)" stroke="none" stroke-width="0.31379" stroke-linecap="butt"/><path d="M278.11504,208.05986c5.16911,0 9.85289,1.48398 13.24536,3.88001c3.39151,2.3973 5.49106,5.70697 5.49106,9.36025c0,3.65328 -2.09955,6.96294 -5.49106,9.36025c-3.39246,2.39635 -8.07625,3.88001 -13.24536,3.88001c-5.16911,0 -9.85289,-1.48367 -13.24536,-3.88001c-3.39151,-2.3973 -5.49106,-5.70697 -5.49106,-9.36025c0,-3.65328 2.09955,-6.96294 5.49106,-9.36025c3.39246,-2.39603 8.07625,-3.88001 13.24536,-3.88001z" fill="url(#color-20)" stroke="none" stroke-width="0.31379" stroke-linecap="butt"/><path d="M364.79679,207.44266c5.16942,0 9.85289,1.48398 13.24536,3.88033c3.39151,2.3973 5.49106,5.70665 5.49106,9.35993c0,3.65359 -2.09955,6.96294 -5.49106,9.36025c-3.39246,2.39635 -8.07593,3.88033 -13.24536,3.88033c-5.16911,0 -9.85289,-1.48398 -13.24536,-3.88033c-3.39151,-2.3973 -5.49106,-5.70665 -5.49106,-9.36025c0,-3.65328 2.09955,-6.96263 5.49106,-9.35993c3.39246,-2.39635 8.07625,-3.88033 13.24536,-3.88033z" fill="url(#color-21)" stroke="none" stroke-width="0.31379" stroke-linecap="butt"/></g></g></svg>