<svg version="1.1" xmlns="http://www.w3.org/2000/svg" xmlns:xlink="http://www.w3.org/1999/xlink" width="44" height="55.89294" viewBox="0,0,44,55.89294"><g transform="translate(-218,-155.99381)"><g data-paper-data="{&quot;isPaintingLayer&quot;:true}" fill-rule="nonzero" stroke="none" stroke-linecap="butt" stroke-linejoin="miter" stroke-miterlimit="10" stroke-dasharray="" stroke-dashoffset="0" style="mix-blend-mode: normal"><path d="M240,159.67616c6.07,0 11.57,2.465 15.552,6.448c3.983,3.982 6.448,9.482 6.448,15.552c0,6.07 -2.465,11.57 -6.448,15.552c-3.982,3.983 -9.482,6.448 -15.552,6.448c-6.07,0 -11.57,-2.465 -15.552,-6.448c-3.983,-3.982 -6.448,-9.482 -6.448,-15.552c0,-6.07 2.465,-11.57 6.448,-15.552c3.982,-3.983 9.482,-6.448 15.552,-6.448z" data-paper-data="{&quot;origPos&quot;:null}" fill="#ffffff" stroke-width="1"/><path d="M224.05577,187.52973v-19.32203h31.52542v19.32203h-24.57627l-3.89831,7.79661l-0.08475,-7.79661z" fill="#c9c9c9" stroke-width="0"/><text transform="translate(228.26642,194.6257) scale(1.64391,1.64391)" font-size="22" xml:space="preserve" fill="#000000" fill-rule="nonzero" stroke="none" stroke-width="1" stroke-linecap="butt" stroke-linejoin="miter" stroke-miterlimit="10" stroke-dasharray="" stroke-dashoffset="0" font-family="&quot;ヒラギノ角ゴ Pro W3&quot;, &quot;Hiragino Kaku Gothic Pro&quot;, Osaka, &quot;メイリオ&quot;, Meiryo, &quot;ＭＳ Ｐゴシック&quot;, &quot;MS PGothic&quot;" font-weight="400" text-anchor="start" style="mix-blend-mode: normal"><tspan x="0" dy="0">Z</tspan></text></g></g></svg>