<svg version="1.1" xmlns="http://www.w3.org/2000/svg" xmlns:xlink="http://www.w3.org/1999/xlink" width="75.75" height="80.12592" viewBox="0,0,75.75,80.12592"><g transform="translate(-202.123,-139.87458)"><g data-paper-data="{&quot;isPaintingLayer&quot;:true}" fill="#ffffff" fill-rule="evenodd" stroke="#000000" stroke-width="0.25" stroke-linecap="round" stroke-linejoin="miter" stroke-miterlimit="10" stroke-dasharray="" stroke-dashoffset="0" style="mix-blend-mode: normal"><path d="M273.191,157.2555c3.123,0.465 4.557,3.305 4.557,6.145c0,3.2 -1.8,6.4 -4.9,6.4h-0.4c-3.8,-0.3 -7.7,-0.5 -11.7,-0.6c0,2.5 0.1,5.1 0.1,7.7c-0.00286,4.40407 -0.05253,8.80799 -0.149,13.211c-0.268,12.54 -0.827,23.075 -1.051,25.689c-0.03876,0.53066 -0.20403,1.04431 -0.482,1.498c-1.062,1.751 -3.69,2.702 -6.318,2.702c-1.39519,0.01543 -2.77685,-0.27469 -4.048,-0.85c-1.75417,-0.68776 -2.91993,-2.3661 -2.952,-4.25v-0.7c0.01051,-0.0766 0.02051,-0.15327 0.03,-0.23c0.386,-3.076 0.822,-12.195 0.994,-23.094c0.05019,-3.15842 0.07552,-6.31718 0.076,-9.476v-3.2c-0.8438,0.57975 -1.66539,1.19119 -2.463,1.833c-9.119,7.287 -21.996,22.535 -27.937,31.767c-0.21506,0.33498 -0.4644,0.64666 -0.744,0.93c-0.96653,0.9691 -2.28764,1.50029 -3.656,1.47c-3.7,0 -8,-3.5 -8,-7.4c-0.00005,-0.09742 0.00328,-0.19481 0.01,-0.292c0.03,-0.427 0.124,-0.872 0.283,-1.327c0.15809,-0.4466 0.36148,-0.87583 0.607,-1.281c0.19858,-0.31886 0.39958,-0.6362 0.603,-0.952c7.307,-11.343 21.567,-27.046 31.097,-34.048c-9.4,0.2 -19,0.7 -28.7,1.5h-0.5c-1.23233,0.0112 -2.41865,-0.46757 -3.298,-1.331c-1.305,-1.256 -2.002,-3.231 -2.002,-5.169c0,-2.156 0.827,-4.261 2.554,-5.386c0.73537,-0.46964 1.57585,-0.74934 2.446,-0.814c8.76053,-0.67535 17.5396,-1.08354 26.325,-1.224c2.95806,-0.05106 5.9165,-0.07639 8.875,-0.076h3.9c-0.08874,-1.23186 -0.18441,-2.46321 -0.287,-3.694c-0.1,-1.181 -0.206,-2.31 -0.324,-3.383c-0.12966,-1.21193 -0.29272,-2.42006 -0.489,-3.623c0,-0.3 -0.1,-0.5 -0.1,-0.8c0.04078,-1.66301 1.0241,-3.15797 2.535,-3.854c1.38046,-0.7084 2.91354,-1.06755 4.465,-1.046c0.11035,-0.00011 0.2207,0.00156 0.331,0.005c3.093,0.1 6.186,1.595 6.669,4.395c0.11096,0.73727 0.21197,1.476 0.303,2.216c0.361,2.916 0.66,6.375 0.897,10.084c4.2,0.1 8.3,0.3 12.3,0.5c0.18174,0.01013 0.36292,0.02848 0.543,0.055z"/></g></g></svg>