<svg version="1.1" xmlns="http://www.w3.org/2000/svg" xmlns:xlink="http://www.w3.org/1999/xlink" width="143.7336" height="143.73361" viewBox="0,0,143.7336,143.73361"><defs><linearGradient x1="240" y1="110.13321" x2="240" y2="249.86681" gradientUnits="userSpaceOnUse" id="color-1"><stop offset="0" stop-color="#3c94ed"/><stop offset="1" stop-color="#337fcc"/></linearGradient><linearGradient x1="256.5651" y1="191.0716" x2="228.61318" y2="205.46843" gradientUnits="userSpaceOnUse" id="color-2"><stop offset="0" stop-color="#01c0ff" stop-opacity="0"/><stop offset="1" stop-color="#01c0ff"/></linearGradient><linearGradient x1="200.83922" y1="143.88595" x2="200.83922" y2="150.48364" gradientUnits="userSpaceOnUse" id="color-3"><stop offset="0" stop-color="#bc041a"/><stop offset="1" stop-color="#880010"/></linearGradient><linearGradient x1="209.99026" y1="140.66042" x2="209.99026" y2="150.1504" gradientUnits="userSpaceOnUse" id="color-4"><stop offset="0" stop-color="#bc041a"/><stop offset="1" stop-color="#a90216"/></linearGradient></defs><g transform="translate(-168.1332,-108.1332)"><g data-paper-data="{&quot;isPaintingLayer&quot;:true}" fill-rule="nonzero" stroke-linejoin="miter" stroke-miterlimit="10" stroke-dasharray="" stroke-dashoffset="0" style="mix-blend-mode: normal"><path d="M240,110.13321c19.2752,0 36.74421,7.8268 49.3899,20.47689c12.64989,12.64569 20.4769,30.11449 20.4769,49.38991c0,19.27542 -7.82701,36.74421 -20.4769,49.38991c-12.64569,12.65009 -30.1147,20.4769 -49.3899,20.4769c-19.27542,0 -36.74442,-7.8268 -49.39012,-20.4769c-12.64989,-12.64569 -20.47668,-30.11449 -20.47668,-49.38991c0,-19.27542 7.82679,-36.74421 20.47668,-49.38991c12.64569,-12.6501 30.11471,-20.47689 49.39012,-20.47689z" data-paper-data="{&quot;origPos&quot;:null}" id="ID0.4039921844378114" fill="url(#color-1)" stroke="#23568d" stroke-width="4" stroke-linecap="butt"/><g><g data-paper-data="{&quot;origPos&quot;:null,&quot;origRot&quot;:0,&quot;index&quot;:null}" stroke="none" stroke-linecap="butt"><path d="M291.69483,204.41701c2.48661,6.46112 -6.31323,15.86139 -19.65502,20.99607c-13.34179,5.13469 -26.17324,4.05941 -28.65986,-2.40172c-2.48662,-6.46111 6.31327,-15.86137 19.65504,-20.99606c13.34179,-5.13469 26.17323,-4.05942 28.65984,2.4017z" data-paper-data="{&quot;origPos&quot;:null}" fill="#579e2e" stroke-width="0"/><path d="M290.52535,201.37827c2.48661,6.46112 -6.31324,15.86137 -19.65503,20.99606c-13.34179,5.13469 -26.17323,4.05942 -28.65984,-2.4017c-2.48661,-6.46112 6.31323,-15.86136 19.65503,-20.99605c13.34179,-5.13469 26.17324,-4.0594 28.65985,2.40169z" data-paper-data="{&quot;origPos&quot;:null}" fill="#76d63e" stroke-width="0"/><path d="M251.03508,220.23962c-0.51669,-1.34257 0.15281,-2.84981 1.49537,-3.36651c1.34257,-0.51669 2.84981,0.15281 3.36651,1.49537c0.51669,1.34257 -0.15281,2.84981 -1.49537,3.3665c-1.34257,0.51669 -2.8498,-0.1528 -3.36651,-1.49536z" data-paper-data="{&quot;origPos&quot;:null}" fill="#822626" stroke-width="0"/><path d="M260.87351,209.09854c-0.38752,-1.00694 0.1146,-2.13734 1.12152,-2.52487c1.00694,-0.38752 2.13734,0.1146 2.52486,1.12152c0.38752,1.00694 -0.1146,2.13734 -1.12152,2.52487c-1.00694,0.38752 -2.13734,-0.1146 -2.52487,-1.12153z" data-paper-data="{&quot;origPos&quot;:null}" fill="#822626" stroke-width="0"/><path d="M275.46239,215.72286c-0.51669,-1.34257 0.15279,-2.8498 1.49536,-3.36651c1.34257,-0.51669 2.84981,0.1528 3.3665,1.49537c0.51669,1.34257 -0.1528,2.8498 -1.49537,3.3665c-1.34257,0.51669 -2.8498,-0.1528 -3.36649,-1.49537z" data-paper-data="{&quot;origPos&quot;:null}" fill="#822626" stroke-width="0"/><path d="M277.61051,204.08101c-0.32294,-0.83911 0.0955,-1.78113 0.93461,-2.10407c0.83911,-0.32293 1.78113,0.0955 2.10407,0.93461c0.32294,0.83911 -0.0955,1.78113 -0.93461,2.10407c-0.83911,0.32293 -1.78113,-0.0955 -2.10407,-0.93461z" data-paper-data="{&quot;origPos&quot;:null}" fill="#822626" stroke-width="0"/><g data-paper-data="{&quot;origPos&quot;:null}"><path d="M244.19262,182.40888c1.88902,-0.72701 3.8709,-0.68381 5.54677,-0.0269c1.67594,0.65697 3.04586,1.92776 3.71099,3.656c0.66513,1.72826 0.50062,3.5896 -0.30244,5.20064c-0.80305,1.61096 -2.24464,2.97169 -4.13366,3.69869c-1.88903,0.72701 -3.87091,0.68382 -5.54677,0.02689c-1.67594,-0.65698 -3.04587,-1.92777 -3.71101,-3.65603c-0.66514,-1.72825 -0.50062,-3.58957 0.30245,-5.20061c0.80305,-1.61096 2.24463,-2.97169 4.13366,-3.6987z" data-paper-data="{&quot;origPos&quot;:null}" id="ID0.6792544075287879" fill="#f1ffa1" stroke-width="0.55092"/><path d="M239.85741,191.5571l13.69387,-5.2702l7.36333,19.13259c0,0 -1.19068,2.61611 -6.34741,4.52302c-5.22292,1.93137 -7.34648,0.74718 -7.34648,0.74718z" data-paper-data="{&quot;origPos&quot;:null}" id="ID0.6036793803796172" fill="#f1ffa1" stroke-width="1.16723"/><path d="M244.6359,187.77997c0.27988,0.3515 0.5703,0.87377 0.80491,1.48336c0.23461,0.60959 0.36927,1.19183 0.39725,1.64027c0.02814,0.44839 -0.05038,0.76298 -0.24231,0.83684c-0.19192,0.07386 -0.46109,-0.10692 -0.74082,-0.45848c-0.27988,-0.3515 -0.57029,-0.87378 -0.8049,-1.48338c-0.23461,-0.60959 -0.36926,-1.19182 -0.39724,-1.64025c-0.02814,-0.44839 0.05038,-0.76298 0.2423,-0.83685c0.19192,-0.07386 0.46109,0.10692 0.74082,0.45848z" data-paper-data="{&quot;origPos&quot;:null}" id="ID0.9021841273643076" fill="#000000" stroke-width="1"/><path d="M247.73607,186.58686c0.27988,0.3515 0.57028,0.87377 0.80489,1.48336c0.23461,0.60959 0.36927,1.19182 0.39725,1.64025c0.02814,0.44839 -0.05038,0.76299 -0.24231,0.83685c-0.19192,0.07386 -0.46108,-0.10691 -0.74082,-0.45848c-0.27988,-0.3515 -0.57029,-0.87378 -0.8049,-1.48337c-0.23461,-0.60959 -0.36927,-1.19182 -0.39725,-1.64025c-0.02814,-0.44839 0.05037,-0.76298 0.2423,-0.83685c0.19192,-0.07386 0.4611,0.10692 0.74083,0.45848z" data-paper-data="{&quot;origPos&quot;:null}" id="ID0.9021841273643076" fill="#000000" stroke-width="1"/></g><g data-paper-data="{&quot;origPos&quot;:null}" fill="#4e8226" stroke-width="0"><path d="M268.71016,210.40747l-3.39142,-8.81214l8.81216,-3.39143l3.39143,8.81215c0,0 -0.77976,1.68687 -4.05258,2.94645c-3.1859,1.22612 -4.75957,0.44497 -4.75957,0.44497z" data-paper-data="{&quot;origPos&quot;:null}"/><path d="M264.57106,203.27862l-0.93557,-2.43095l11.54694,-4.44394l0.93557,2.43095z" data-paper-data="{&quot;origPos&quot;:null}"/></g></g><path d="M270.72307,200.91907c-4.50515,6.50512 -5.80235,8.39385 -9.88263,12.04165c-4.40193,3.93535 -8.79881,4.03865 -13.25206,1.55148c-4.88646,-2.72912 -15.7623,-9.71401 -23.98154,-19.13352c-3.22837,-3.69981 -3.35439,-15.01207 7.06485,-11.4395c7.62291,6.34362 20.36516,22.83195 24.56213,23.68324c4.19697,0.85129 12.23913,-9.78659 12.23913,-9.78659c0,0 3.12086,-2.38965 3.25012,3.08325z" data-paper-data="{&quot;origPos&quot;:null,&quot;origRot&quot;:0}" fill="url(#color-2)" stroke="none" stroke-width="2.70749" stroke-linecap="butt"/><g data-paper-data="{&quot;origPos&quot;:null}"><g data-paper-data="{&quot;origPos&quot;:null,&quot;index&quot;:null,&quot;origRot&quot;:0}" stroke="none" stroke-width="0" stroke-linecap="butt"><path d="M205.46347,177.59403c-3.45233,-1.1938 -9.88044,-4.33625 -9.88044,-4.33625l2.51311,-7.0063c0,0 4.30178,0.76988 8.59408,2.25413c4.29229,1.48426 7.66034,5.09782 6.8498,7.44183c-0.81055,2.34402 -3.78425,3.13085 -8.07654,1.64659z" data-paper-data="{&quot;origRot&quot;:0,&quot;origPos&quot;:null}" fill="#ff0021"/><g data-paper-data="{&quot;origPos&quot;:null}" fill="#ffffff"><path d="M194.50644,169.342c-1.61985,4.07012 -3.2683,6.25673 -7.98709,5.17168c-5.05368,-1.16205 -3.64266,-5.25585 -2.90826,-9.97935c0.67299,-4.32862 6.73124,-6.8967 9.91076,-5.84199c4.38275,1.45385 2.60442,6.57952 0.98459,10.64965z" data-paper-data="{&quot;origRot&quot;:0,&quot;origPos&quot;:null}"/><path d="M198.11684,170.1371c-1.24647,3.14402 -2.88726,6.09986 -4.64218,5.46626c-3.00537,-1.08505 -1.59682,-1.59224 0.57901,-7.50248c1.90999,-5.18812 2.07324,-6.07022 4.85681,-5.2157c2.48821,0.76386 0.45285,4.10789 -0.79363,7.25191z" data-paper-data="{&quot;origRot&quot;:0,&quot;origPos&quot;:null}"/></g></g><g data-paper-data="{&quot;origPos&quot;:null,&quot;origRot&quot;:0}" stroke="none" stroke-width="0" stroke-linecap="butt"><path d="M218.05906,200.53069c-3.41645,-3.55177 -8.05036,-4.67536 -8.39938,-11.08412c-0.2832,-5.19985 10.47736,-8.83816 14.09247,-8.35479c3.61511,0.48338 7.8146,2.02837 7.09373,4.48667c-0.08841,0.30149 -8.33665,5.82469 -8.33665,5.82469c0,0 9.47482,1.51523 8.86315,4.26092c-0.89808,4.03135 -2.83255,6.49506 -6.36636,8.63294c-2.85278,1.72588 -4.47692,1.46891 -6.09924,0.3716c-0.40097,-0.27121 0.63021,-2.6014 -0.84772,-4.13789z" data-paper-data="{&quot;origPos&quot;:null}" fill="#0052ef"/><path d="M223.35729,210.03686c-1.30086,-1.21206 -0.41875,-4.27319 1.97025,-6.8372c1.74027,-1.86776 5.37195,-5.76971 7.78788,-6.59454c0.56125,-0.19163 1.2242,0.44463 1.6226,0.80851c0.50187,0.45839 -1.35941,1.93619 -1.35941,1.93619c0,0 0.35999,1.28863 0.14258,2.25981c-0.70029,3.12823 -4.38087,7.31775 -5.39573,7.94306c-1.54859,0.95418 -3.43738,1.72416 -4.76819,0.48419z" data-paper-data="{&quot;origPos&quot;:null}" fill="#f9c869"/><path d="M221.08619,209.12259c-3.28047,-1.62169 -2.84293,-5.79514 -0.14213,-8.6938c1.25606,-1.34808 4.56441,-2.38 6.07458,-3.43567c2.33247,-1.63048 1.84771,-1.5329 3.51799,-2.8855c0.45244,-0.3664 2.252,1.3478 3.28448,2.47397c0.49884,0.54411 -1.5669,2.53969 -1.5669,2.53969c0,0 -1.20796,4.66729 -3.90876,7.56595c-2.7008,2.89866 -5.26687,3.42025 -7.25925,2.43533z" data-paper-data="{&quot;origPos&quot;:null}" fill="#8e4108"/></g><g data-paper-data="{&quot;origPos&quot;:null,&quot;origRot&quot;:0}" stroke="none" stroke-width="0" stroke-linecap="butt"><path d="M224.92599,190.21038c0,0 0.81305,-3.13926 1.64741,-4.82041c1.05722,-2.13023 3.19952,-4.94581 3.19952,-4.94581c0,0 5.92661,1.87502 8.62985,3.53323c2.16214,1.32628 3.30765,1.87718 4.26943,2.18349c2.68035,0.85364 4.9433,-0.11685 4.63046,2.67871c-0.45933,4.10455 -2.11763,6.76201 -5.40102,9.26752c-2.65062,2.02267 -4.29298,1.94185 -6.0239,1.02537c-0.42782,-0.22652 0.34678,-2.6541 -1.28782,-4.02272c-3.77859,-3.16377 -9.66392,-4.89938 -9.66392,-4.89938z" data-paper-data="{&quot;origPos&quot;:null}" fill="#0052ef"/><path d="M240.87975,203.99101c-1.42367,-1.06514 -0.87587,-4.20337 1.22353,-7.00944c1.5293,-2.04408 4.72029,-6.31396 7.0335,-7.39384c0.5374,-0.25088 1.26492,0.31039 1.70014,0.62932c0.54825,0.40177 -1.1433,2.07116 -1.1433,2.07116c0,0 0.49648,1.24244 0.38478,2.23137c-0.3598,3.18539 -3.56848,7.74643 -4.51021,8.47726c-1.43698,1.11518 -3.23202,2.08384 -4.68846,0.99416z" data-paper-data="{&quot;origPos&quot;:null}" fill="#f9c869"/><path d="M238.52347,203.32626c-3.43585,-1.25949 -3.44968,-5.45578 -1.07627,-8.62809c1.10379,-1.47534 4.28199,-2.85708 5.66986,-4.06903c2.14359,-1.87187 1.67213,-1.72271 3.18726,-3.2471c0.41042,-0.41293 2.38388,1.0978 3.53149,2.1064c0.55448,0.4873 -1.28468,2.69347 -1.28468,2.69347c0,0 -0.699,4.77012 -3.07241,7.94243c-2.3734,3.17229 -4.86851,3.96684 -6.95524,3.2019z" data-paper-data="{&quot;origPos&quot;:null}" fill="#8e4108"/></g><g data-paper-data="{&quot;origPos&quot;:null}"><path d="M215.38891,169.28803c3.45753,-1.65248 6.80944,-4.51839 10.528,-3.5923c4.99116,1.24302 7.31186,4.67206 9.52988,9.31286c2.04457,4.27789 -1.20306,11.02097 -7.59665,14.07672c-6.39359,3.05575 -13.29078,3.23571 -17.38596,-5.75646c-4.0142,-8.81435 -1.46885,-10.98507 4.92473,-14.04082z" data-paper-data="{&quot;origPos&quot;:null}" fill="#0052ef" stroke="none" stroke-width="0" stroke-linecap="butt"/><path d="M210.34346,183.07626c0,0 -3.48143,-4.81519 -1.17006,-9.67363c0.97851,-2.05682 3.96112,-4.68203 7.1695,-6.12193c3.20837,-1.43989 5.90867,-2.13608 8.81028,-1.70788c4.43488,0.65447 6.79524,6.66048 6.79524,6.66048c0,0 -3.97796,3.84919 -8.74562,5.9381c-5.19783,2.2774 -12.85934,4.90487 -12.85934,4.90487z" data-paper-data="{&quot;origPos&quot;:null}" fill="#ff0021" stroke="none" stroke-width="0" stroke-linecap="butt"/><path d="M216.36966,182.80915c0,0 -2.47464,-3.95016 -3.30405,-6.28559c-0.64574,-1.81827 -1.12099,-5.12844 -1.12099,-5.12844" data-paper-data="{&quot;origPos&quot;:null,&quot;origRot&quot;:0}" fill="none" stroke="#0052ef" stroke-width="5" stroke-linecap="round"/><path d="M226.96179,178.02966c0,0 -2.96361,-3.59786 -4.08741,-5.80676c-0.87494,-1.71976 -1.77331,-4.94094 -1.77331,-4.94094" data-paper-data="{&quot;origPos&quot;:null}" fill="none" stroke="#0052ef" stroke-width="5" stroke-linecap="round"/><path d="M227.10976,179.09662c-0.95323,0.45559 -2.09529,0.05216 -2.55088,-0.90106c-0.45558,-0.95322 -0.05216,-2.09528 0.90106,-2.55087c0.95322,-0.45559 2.09528,-0.05217 2.55087,0.90105c0.45559,0.95322 0.05217,2.09529 -0.90105,2.55088z" data-paper-data="{&quot;origPos&quot;:null}" fill="#ffe84f" stroke="none" stroke-width="0" stroke-linecap="butt"/><path d="M217.5708,181.53542c0.45558,0.95322 0.05216,2.09529 -0.90107,2.55088c-0.95322,0.45559 -2.09529,0.05216 -2.55088,-0.90107c-0.45559,-0.95323 -0.05216,-2.09529 0.90106,-2.55087c0.95323,-0.45559 2.09529,-0.05217 2.55088,0.90106z" data-paper-data="{&quot;origPos&quot;:null}" fill="#ffe84f" stroke="none" stroke-width="0" stroke-linecap="butt"/></g><g data-paper-data="{&quot;origPos&quot;:null,&quot;origRot&quot;:0}" stroke="none" stroke-width="0" stroke-linecap="butt"><path d="M234.37475,171.59699c0,0 -2.83501,0.43926 -4.32148,0.09768c-1.5512,-0.35647 -4.32016,-5.49565 -4.32016,-5.49565c0.65378,-4.49437 8.47299,-4.38903 10.92736,-4.032c2.45437,0.35702 7.64214,5.77237 6.98837,10.26675c-0.65377,4.49437 -1.38153,7.54952 -1.38153,7.54952l-7.37767,-0.9869z" data-paper-data="{&quot;origRot&quot;:0,&quot;origPos&quot;:null}" fill="#ff0021"/><g data-paper-data="{&quot;origPos&quot;:null}" fill="#ffffff"><path d="M229.60982,186.46974c1.20431,-4.68976 3.90385,-5.1493 8.26318,-4.71803c4.35934,0.43127 9.72904,1.20677 9.0067,5.76751c-0.52403,3.30865 -5.58847,7.50969 -9.74237,6.11866c-4.53285,-1.51793 -8.81728,-2.14556 -7.5275,-7.16815z" data-paper-data="{&quot;origRot&quot;:0,&quot;origPos&quot;:null}"/><path d="M231.8376,179.79134c0.24354,-1.84982 3.62279,-1.94911 6.98802,-1.61171c3.36522,0.33739 7.27054,0.06599 6.8058,2.62699c-0.51991,2.86498 -1.37842,2.60471 -6.86407,1.91747c-6.24918,-0.78288 -7.34682,0.23515 -6.92974,-2.93275z" data-paper-data="{&quot;origRot&quot;:0,&quot;origPos&quot;:null}"/></g></g><g data-paper-data="{&quot;origPos&quot;:null}"><path d="M194.79542,145.94822c-0.10972,-1.15317 -0.92227,-2.22234 2.42277,-2.04238c3.34505,0.17996 9.92039,0.16218 9.82903,1.86043c-0.09136,1.69826 0.5685,4.89001 -2.77654,4.71005c-4.15122,-0.22333 -9.30573,-2.74657 -9.47525,-4.52811z" data-paper-data="{&quot;origPos&quot;:null}" fill="url(#color-3)" stroke="none" stroke-width="0" stroke-linecap="butt"/><path d="M227.89294,166.84515c0,0 -0.43759,0.83405 -1.61321,0.82637c-2.1698,-0.01416 -2.96681,-0.67467 -2.96681,-0.67467c-0.54895,-0.65408 1.08184,-4.47095 1.08184,-4.47095c0.33259,-1.33419 3.72805,-1.62891 3.72805,-1.62891c0.91159,-0.59015 0.36523,2.22031 1.83892,3.14394c1.23208,0.7722 0.51722,2.21188 -0.39438,2.80205c-0.9116,0.59017 -1.67443,0.00218 -1.67443,0.00218z" data-paper-data="{&quot;origRot&quot;:0,&quot;origPos&quot;:null}" fill="#5a2c0a" stroke="none" stroke-width="0" stroke-linecap="butt"/><path d="M231.71147,147.3379c2.70177,0.14535 4.2615,3.29746 4.05848,7.07136c-0.20302,3.7739 -3.07385,7.62217 -7.90547,7.36225c-0.09063,-0.00488 -0.64805,0.33241 -1.13846,0.99453c-1.59984,2.16001 -0.89666,4.21772 -2.83292,5.53527c-3.04934,2.07497 -5.12574,3.11698 -12.22282,2.58863c-5.02072,-0.37377 -7.19333,-1.09709 -7.94999,-1.76207c-1.33381,-1.17221 -2.6807,-2.11663 -3.21087,-3.81134c-1.37508,-4.3955 1.93673,-6.31247 2.50766,-10.88252c0.49655,-3.9747 -0.4136,-7.63888 3.59198,-7.646c2.70743,-0.00482 17.96961,2.29992 20.00473,1.93883c0.70763,-0.12555 2.3959,-1.53429 5.09768,-1.38895z" data-paper-data="{&quot;origPos&quot;:null}" fill="#ffdebd" stroke="none" stroke-width="0" stroke-linecap="butt"/><path d="M204.03448,149.94484c0.2867,-2.26889 1.65896,-3.96417 3.06505,-3.7865c1.40607,0.17766 2.31351,2.16101 2.02682,4.42991c-0.2867,2.26889 -1.65896,3.96417 -3.06504,3.7865c-1.40607,-0.17766 -2.3135,-2.161 -2.02681,-4.4299z" data-paper-data="{&quot;origPos&quot;:null,&quot;origRot&quot;:0}" fill="#ffffff" stroke="none" stroke-width="0" stroke-linecap="butt"/><path d="M221.56762,152.11091c0.11075,-2.05848 -1.72697,-4.53847 3.67542,-4.04759c1.28313,0.11659 1.16808,2.11022 1.05734,4.1687c-0.11074,2.05849 -0.69261,4.68565 -1.9445,4.38101c-1.68526,-0.41009 -1.37449,-1.12963 -1.37449,-1.12963c0,0 -0.69692,0.82055 -1.93515,0.13397c-1.06439,-0.59017 0.456,-2.29116 0.52138,-3.50646z" data-paper-data="{&quot;origPos&quot;:null}" fill="#5a2c0a" stroke="none" stroke-width="0" stroke-linecap="butt"/><path d="M213.20816,148.95754c1.3967,0.24045 2.2144,2.26245 1.82639,4.51623c-0.38801,2.25378 -1.83483,3.88591 -3.23154,3.64544c-1.3967,-0.24046 -2.21441,-2.26245 -1.8264,-4.51623c0.38801,-2.25377 1.83483,-3.88591 3.23155,-3.64544z" data-paper-data="{&quot;origPos&quot;:null,&quot;origRot&quot;:0}" fill="#ffffff" stroke="none" stroke-width="0" stroke-linecap="butt"/><path d="M213.73645,152.00641c0.2626,0.53838 0.40405,1.27024 0.36116,2.0674c-0.04289,0.79716 -0.26204,1.50961 -0.58088,2.01672c-0.31931,0.50709 -0.73834,0.80928 -1.18188,0.78542c-0.44354,-0.02385 -0.82773,-0.36927 -1.0908,-0.90767c-0.2626,-0.53838 -0.40405,-1.27024 -0.36116,-2.0674c0.04289,-0.79716 0.26204,-1.50961 0.58088,-2.01671c0.31931,-0.50709 0.73834,-0.80928 1.18188,-0.78542c0.44354,0.02386 0.82773,0.36927 1.0908,0.90768z" data-paper-data="{&quot;origPos&quot;:null}" id="ID0.2989244391210377" fill="#000000" stroke="none" stroke-width="1" stroke-linecap="butt"/><path d="M206.59833,148.94597c0.44354,0.02385 0.82773,0.36927 1.0908,0.90768c0.26259,0.53838 0.40485,1.3684 0.36117,2.0674c-0.03378,0.54113 -0.03743,1.26891 -0.50203,1.51493c-0.52938,0.26916 -1.20504,-0.13023 -1.7837,-0.28286c-0.3288,-0.13309 -0.69367,-0.28168 -0.90423,-0.56261c-0.16648,-0.23184 -0.07693,-0.59335 -0.02477,-0.8424c0.14703,-0.68316 0.26204,-1.50961 0.58088,-2.01671c0.31931,-0.50709 0.73834,-0.80928 1.18188,-0.78542z" data-paper-data="{&quot;origPos&quot;:null}" id="ID0.2989244391210377" fill="#000000" stroke="none" stroke-width="1" stroke-linecap="round"/><path d="M202.04485,133.71056c1.07081,-4.95704 6.18523,-5.9671 13.19197,-4.23633c5.44305,1.34451 10.20343,10.11347 10.20343,10.11347c1.40241,-1.91992 5.18604,-2.33975 5.18604,-2.33975c3.40761,0.18331 6.55694,0.37763 5.90213,6.7594c-0.29687,2.89322 -2.35064,5.22519 -5.75825,5.04187c-1.66608,-0.08963 -5.6492,1.30979 -7.14238,0.5653c-5.6867,-2.8354 -12.85226,-2.56145 -18.12845,-6.10261c-3.62107,-2.4303 -4.9456,-2.89866 -3.45449,-9.80134z" data-paper-data="{&quot;origPos&quot;:null}" fill="#ff0021" stroke="none" stroke-width="0" stroke-linecap="butt"/><path d="M203.17946,137.75509c0.13704,-2.54739 2.79297,-4.47555 5.93216,-4.30667c3.13921,0.16888 5.57294,2.37084 5.43589,4.91823c-0.13704,2.54738 -0.65975,4.74757 -5.93216,4.30666c-4.99434,-0.41765 -5.57293,-2.37083 -5.43589,-4.91822z" data-paper-data="{&quot;origPos&quot;:null}" fill="#ffffff" stroke="none" stroke-width="0" stroke-linecap="butt"/><path d="M194.66168,144.95979c-0.26492,-1.49707 4.3193,-4.41194 7.33236,-4.29601c7.37061,0.28359 17.084,3.31999 19.90252,4.40613c2.33235,0.89878 3.16759,3.31337 3.43251,4.81045c0.07167,0.40498 -4.95894,0.33281 -7.42541,-0.07239c-5.0749,-0.83372 -23.17029,-4.44321 -23.24196,-4.84818z" data-paper-data="{&quot;origPos&quot;:null}" fill="url(#color-4)" stroke="none" stroke-width="0" stroke-linecap="butt"/><path d="M210.63265,140.82977l-0.52316,-3.56249l-1.78173,2.09584l-1.1478,-2.24318l-0.8987,3.52183l-1.64923,-1.12129l2.73727,-4.56365l1.13583,2.54201l2.20061,-2.65635l1.92792,6.09493z" data-paper-data="{&quot;origPos&quot;:null}" fill="#ff0021" stroke="none" stroke-width="0" stroke-linecap="butt"/><path d="M200.79679,165.49156c-0.03155,-0.34629 -0.22737,1.36149 -2.444,-0.01578c-0.93747,-0.58248 -0.75922,-2.57431 -0.75922,-2.57431c-0.17847,-0.74238 -0.09614,-2.18877 0.59666,-2.19735c1.39691,-0.01726 5.77458,2.32604 5.77458,2.32604c2.77357,0.30812 8.83416,-1.33182 8.83416,-1.33182c1.83268,-0.86565 2.63298,-2.87094 4.92645,-2.30302c0.3938,0.0975 0.54428,1.5798 0.40197,4.22505c-0.12977,2.4123 -1.91288,4.04395 -4.35734,3.91245c-1.52339,-0.08195 -2.74215,-0.99196 -2.86774,-0.88641c-0.11887,0.09991 -0.18048,0.857 -1.37148,1.14714c-2.07233,0.50485 -5.07084,0.42498 -7.09647,-0.24303c-0.6637,-0.21887 -1.52854,-0.86238 -1.63756,-2.05897z" data-paper-data="{&quot;origPos&quot;:null}" fill="#38291e" stroke="none" stroke-width="0" stroke-linecap="butt"/><path d="M198.57713,157.8961c-0.1073,-4.95296 2.02929,-6.25714 6.49593,-5.6664c3.06552,0.40543 5.86233,3.93983 5.71525,6.67377c-0.14708,2.73394 -3.22036,4.50384 -6.31052,4.39144c-6.70476,-0.24388 -5.83359,-2.30291 -5.90066,-5.3988z" data-paper-data="{&quot;origPos&quot;:null}" fill="#ffdebd" stroke="none" stroke-width="0" stroke-linecap="butt"/><g data-paper-data="{&quot;origPos&quot;:null}" fill="none" stroke="#f6b09a" stroke-width="1.5" stroke-linecap="round"><path d="M228.40011,157.87192c0,0 -1.30784,-3.42087 1.33099,-5.24197c1.83998,-1.2698 3.17724,-0.38953 3.17724,-0.38953" data-paper-data="{&quot;origPos&quot;:null}"/><path d="M228.68004,155.1502l2.79542,0.1504" data-paper-data="{&quot;origPos&quot;:null}"/><path d="M228.79588,157.95995l0.59902,0.03223" data-paper-data="{&quot;origPos&quot;:null}"/></g><path d="M214.73025,147.88385c-0.66118,-0.25526 -2.33199,0.60021 -2.33199,0.60021c0,0 -1.09695,-4.25112 3.33559,-3.86273c1.29676,0.36836 1.67971,1.87776 1.63389,2.72949c-0.06748,1.25439 -0.83784,2.90771 -0.83784,2.90771c0,0 -0.63681,-0.82319 -0.92492,-1.45129c-0.27928,-0.60882 -0.24406,-0.69775 -0.87475,-0.92338z" data-paper-data="{&quot;origPos&quot;:null}" fill="#38291e" stroke="none" stroke-width="0" stroke-linecap="butt"/><path d="M206.75873,146.14385c-0.66352,-0.09171 -0.67344,0.00342 -1.20267,0.41401c-0.54599,0.42359 -1.49135,0.85883 -1.49135,0.85883c0,0 0.08182,-1.82214 0.60226,-2.96546c0.35336,-0.7763 1.39111,-1.93735 2.71119,-1.66406c4.10945,1.7061 1.17041,4.96759 1.17041,4.96759c0,0 -1.08557,-1.53132 -1.78983,-1.61087z" data-paper-data="{&quot;origPos&quot;:null,&quot;index&quot;:null,&quot;origRot&quot;:0}" fill="#38291e" stroke="none" stroke-width="0" stroke-linecap="butt"/></g></g></g></g></g></svg>