<svg version="1.1" xmlns="http://www.w3.org/2000/svg" xmlns:xlink="http://www.w3.org/1999/xlink" width="40.98069" height="40.98982" viewBox="0,0,40.98069,40.98982"><g transform="translate(-219.5097,-159.47635)"><g data-paper-data="{&quot;isPaintingLayer&quot;:true}" fill-rule="nonzero" stroke="none" stroke-width="0" stroke-linecap="butt" stroke-linejoin="miter" stroke-miterlimit="10" stroke-dasharray="" stroke-dashoffset="0" style="mix-blend-mode: normal"><path d="M221.63522,197.92636c-1.89392,-1.96637 -2.12544,-6.26422 -2.12544,-6.26422v-23.43616c0,0 0.0283,-4.10183 2.21457,-6.42753c2.08577,-2.21879 7.19294,-2.3221 7.19294,-2.3221h22.77104c0,0 4.26759,0.15457 6.27146,2.02423c2.61533,2.44016 2.53028,5.87386 2.53028,5.87386v25.27091c0,0 -0.10478,3.4944 -2.32786,5.78707c-2.2215,2.29104 -6.17025,2.02423 -6.17025,2.02423h-24.11418c0,0 -3.8523,-0.04859 -6.24256,-2.53029z" fill-opacity="0.00784" fill="#000000"/><path d="M221.63514,187.72598c-1.89392,-0.98937 -2.12544,-3.1518 -2.12544,-3.1518v-11.79176c0,0 0.0283,-2.06382 2.21457,-3.23397c2.08577,-1.11637 7.19294,-1.16835 7.19294,-1.16835h22.77104c0,0 4.26759,0.07777 6.27146,1.01847c2.61533,1.22775 2.53028,2.9554 2.53028,2.9554v12.7149c0,0 -0.10478,1.75819 -2.32786,2.91173c-2.2215,1.15272 -6.17025,1.01847 -6.17025,1.01847h-24.11418c0,0 -3.8523,-0.02445 -6.24256,-1.2731z" fill="#ffde3b"/><path d="M221.63514,190.34201c-1.89392,-0.98937 -2.12544,-3.1518 -2.12544,-3.1518v-11.79176c0,0 0.0283,-2.06382 2.21457,-3.23397c2.08577,-1.11637 7.19294,-1.16835 7.19294,-1.16835h22.77104c0,0 4.26759,0.07777 6.27146,1.01847c2.61533,1.22775 2.53028,2.9554 2.53028,2.9554v12.7149c0,0 -0.10478,1.75819 -2.32786,2.91173c-2.2215,1.15272 -6.17025,1.01847 -6.17025,1.01847h-24.11418c0,0 -3.8523,-0.02445 -6.24256,-1.2731z" fill="#ecad00"/><path d="M245.57181,176.55816c1.5935,0 2.11747,0.96943 2.11747,3.24643c0,2.19631 -0.66531,3.24643 -2.11747,3.24643c-1.45215,0 -2.11748,-1.1308 -2.11748,-3.24643c0,-2.277 0.52398,-3.24643 2.11748,-3.24643z" fill="#8a6401"/><path d="M234.42811,176.57506c1.5935,0 2.11746,0.96943 2.11746,3.24643c0,2.19631 -0.66531,3.24643 -2.11746,3.24643c-1.45216,0 -2.11748,-1.1308 -2.11748,-3.24643c0,-2.277 0.52398,-3.24643 2.11748,-3.24643z" fill="#8a6401"/></g></g></svg>