<svg version="1.1" xmlns="http://www.w3.org/2000/svg" xmlns:xlink="http://www.w3.org/1999/xlink" width="35.30526" height="35.30526" viewBox="0,0,35.30526,35.30526"><defs><linearGradient x1="240.08888" y1="163.06125" x2="240.08888" y2="197.11651" gradientUnits="userSpaceOnUse" id="color-1"><stop offset="0" stop-color="#0d51ff"/><stop offset="1" stop-color="#0426a2"/></linearGradient></defs><g transform="translate(-222.43625,-162.43625)"><g data-paper-data="{&quot;isPaintingLayer&quot;:true}" fill-rule="nonzero" stroke-linejoin="miter" stroke-miterlimit="10" stroke-dasharray="" stroke-dashoffset="0" style="mix-blend-mode: normal"><path d="M240.08888,163.06125c4.69771,0 8.95515,1.90752 12.0371,4.99053c3.08301,3.08195 4.99053,7.33939 4.99053,12.0371c0,4.69771 -1.90752,8.95515 -4.99053,12.0371c-3.08195,3.08301 -7.33939,4.99053 -12.0371,4.99053c-4.69771,0 -8.95515,-1.90752 -12.0371,-4.99053c-3.08301,-3.08195 -4.99053,-7.33939 -4.99053,-12.0371c0,-4.69771 1.90752,-8.95515 4.99053,-12.0371c3.08195,-3.08301 7.33939,-4.99053 12.0371,-4.99053z" data-paper-data="{&quot;origPos&quot;:null}" fill="url(#color-1)" stroke="#000174" stroke-width="1.25" stroke-linecap="butt"/><g fill="#ffffff" stroke-width="3" stroke-linecap="butt"><path d="M234.07643,188.24874l-0.19529,1.55136h1.2868l-0.23245,1.55136l-1.25381,-0.0651l-0.1626,2.64288l-1.75111,-0.29725l0.1302,-2.50821l-1.25411,-0.16706l0.16706,-1.55136l1.22171,0.23215l-0.03715,-1.71842z" stroke="#000174"/><path d="M237.53199,189.29388l1.8718,0.57578l1.09121,1.58376l-0.71965,1.98802l-2.18778,0.48779l-1.8391,-1.12421l-0.06035,-2.07126l-0.02794,-0.08383l1.84385,-1.35606zM237.41576,190.99387l-0.08353,1.3513l1.03563,0.23245l0.37156,-1.24013l-1.32367,-0.37157z" stroke="#23578c"/><path d="M239.40379,189.86966l1.09121,1.58376l-0.71965,1.98802l-2.18778,0.48779l-1.8391,-1.12421l-0.08829,-2.15508l1.84385,-1.35606zM237.41576,190.99387l-0.08353,1.3513l1.03563,0.23245l0.37156,-1.24013l-1.32367,-0.37157z" stroke="#000174"/></g><g><g fill="none" stroke="#000174"><path d="M233.91351,167.5295l4.5516,7.24138l-6.71453,-0.02927z" stroke-width="2.5" stroke-linecap="round"/><path d="M234.08059,172.23232c0.85739,-0.73362 1.8993,-1.27725 3.07476,-1.54918c3.89982,-0.90222 7.79264,1.52782 8.69485,5.42764c0.90222,3.89982 -1.52782,7.79264 -5.42764,8.69486c-2.96536,0.68603 -6.34213,-0.72514 -8.41442,-3.71373" data-paper-data="{&quot;origPos&quot;:null,&quot;origRot&quot;:0}" stroke-width="6" stroke-linecap="butt"/></g><g><path d="M233.81351,167.5295l4.5516,7.24138l-6.71453,-0.02927z" fill="#ffffff" stroke="none" stroke-width="1.1379" stroke-linecap="round"/><path d="M234.08059,172.23232c0.85739,-0.73362 1.8993,-1.27725 3.07476,-1.54918c3.89982,-0.90222 7.79264,1.52782 8.69485,5.42764c0.90222,3.89982 -1.52782,7.79264 -5.42764,8.69486c-2.96536,0.68603 -5.9267,-0.44792 -7.57225,-2.7964" data-paper-data="{&quot;origPos&quot;:null,&quot;origRot&quot;:0}" fill="none" stroke="#ffffff" stroke-width="3.5" stroke-linecap="butt"/></g></g><g stroke-linecap="butt"><g stroke="#000174" stroke-width="2.5"><path d="M243.55514,188.37365v-5.20663h8.31986l-1.03058,1.27273l1.33058,1.33058l-1.33058,1.27273l1.03058,1.33058z" fill="#23578c"/><path d="M242.74843,193.4453v-10.37469h1.67127v10.37469z" data-paper-data="{&quot;origPos&quot;:null}" fill="#ffffff"/><path d="M243.62263,183.68512c-0.7015,0 -1.27017,-0.56867 -1.27017,-1.27017c0,-0.7015 0.56867,-1.27017 1.27017,-1.27017c0.7015,0 1.27017,0.56867 1.27017,1.27017c0,0.7015 -0.56867,1.27017 -1.27017,1.27017z" data-paper-data="{&quot;origPos&quot;:null,&quot;index&quot;:null}" fill="#ffffff"/><path d="M242.23573,194.25522v-1.07989h2.73523v1.07989z" data-paper-data="{&quot;origPos&quot;:null}" fill="#ffffff"/></g><g><path d="M243.55514,188.37365v-5.20663h8.61986l-1.33059,1.27273l1.33059,1.33058l-1.33059,1.27274l1.33059,1.33059zM247.69975,187.72955c1.10945,0 2.00884,-0.89939 2.00884,-2.00884c0,-1.10945 -0.89939,-2.00884 -2.00884,-2.00884c-1.10945,0 -2.00884,0.89939 -2.00884,2.00884c0,1.10945 0.89939,2.00884 2.00884,2.00884z" fill="#ffffff" stroke="#000000" stroke-width="0"/><path d="M245.64091,185.72071c0,-1.10945 0.94939,-2.05884 2.05884,-2.05884c1.10945,0 2.05884,0.94939 2.05884,2.05884c0,1.10945 -0.94939,2.05884 -2.05884,2.05884c-1.10945,0 -2.05884,-0.94939 -2.05884,-2.05884z" data-paper-data="{&quot;noHover&quot;:false,&quot;origItem&quot;:[&quot;Path&quot;,{&quot;applyMatrix&quot;:true,&quot;segments&quot;:[[[495.3995,375.45909],[-2.2189,0],[2.2189,0]],[[499.41718,371.44141],[0,2.2189],[0,-2.2189]],[[495.3995,367.42373],[2.2189,0],[-2.2189,0]],[[491.38182,371.44141],[0,-2.2189],[0,2.2189]]],&quot;closed&quot;:true,&quot;fillColor&quot;:[1,1,1]}]}" fill="#000174" stroke="none" stroke-width="0.5"/><path d="M242.74843,193.44529v-10.37469h1.67127v10.37469z" data-paper-data="{&quot;origPos&quot;:null}" fill="#ffffff" stroke="none" stroke-width="NaN"/><path d="M243.62262,183.68512c-0.70149,0 -1.27016,-0.56868 -1.27016,-1.27017c0,-0.70149 0.56867,-1.27016 1.27016,-1.27016c0.70149,0 1.27016,0.56867 1.27016,1.27016c0,0.70149 -0.56867,1.27017 -1.27016,1.27017z" data-paper-data="{&quot;origPos&quot;:null,&quot;index&quot;:null}" fill="#ffffff" stroke="none" stroke-width="0"/><path d="M242.23573,194.25522v-1.07989h2.73523v1.07989z" data-paper-data="{&quot;origPos&quot;:null}" fill="#ffffff" stroke="none" stroke-width="0"/></g></g><g fill="#ffffff" stroke="#ffbf38" stroke-width="0" stroke-linecap="butt"><path d="M234.07644,188.24874l-0.1953,1.55136h1.28681l-0.23245,1.55136l-1.25382,-0.0651l-0.1626,2.64288l-1.75112,-0.29726l0.1302,-2.50822l-1.25411,-0.16706l0.16706,-1.55136l1.22171,0.23215l-0.03715,-1.71842z"/><path d="M237.53199,189.29388l1.87179,0.57577l1.09122,1.58376l-0.71966,1.98802l-2.18777,0.4878l-1.83909,-1.12421l-0.06035,-2.07125l-0.02794,-0.08383l1.84386,-1.35607zM237.41576,190.99386l-0.08353,1.35131l1.03563,0.23245l0.37156,-1.24013l-1.32367,-0.37156z"/><path d="M239.40379,189.86965l1.09122,1.58376l-0.71966,1.98802l-2.18777,0.4878l-1.83909,-1.12421l-0.08829,-2.15508l1.84386,-1.35607zM237.41576,190.99386l-0.08353,1.35131l1.03563,0.23245l0.37156,-1.24013l-1.32367,-0.37156z"/></g></g></g></svg>