<svg version="1.1" xmlns="http://www.w3.org/2000/svg" xmlns:xlink="http://www.w3.org/1999/xlink" width="137.71022" height="89.97026" viewBox="0,0,137.71022,89.97026"><defs><linearGradient x1="240" y1="138.39991" x2="240" y2="189.34204" gradientUnits="userSpaceOnUse" id="color-1"><stop offset="0" stop-color="#ed3bd9"/><stop offset="1" stop-color="#bb2faf"/></linearGradient></defs><g transform="translate(-171.26727,-137.14991)"><g data-paper-data="{&quot;isPaintingLayer&quot;:true}" fill-rule="nonzero" stroke-linejoin="miter" stroke-miterlimit="10" stroke-dasharray="" stroke-dashoffset="0" style="mix-blend-mode: normal"><g><path d="M240,138.39991c7.02715,0 13.39571,2.8534 18.00589,7.46516c4.61177,4.61019 7.46516,10.97874 7.46516,18.00589c0,7.02715 -2.8534,13.3957 -7.46516,18.00589c-4.61019,4.61177 -10.97874,7.46516 -18.00589,7.46516c-7.02715,0 -13.39571,-2.85341 -18.00589,-7.46516c-4.61177,-4.61019 -7.46516,-10.97873 -7.46516,-18.00588c0,-7.02715 2.8534,-13.3957 7.46516,-18.00589c4.61019,-4.61177 10.97874,-7.46516 18.00589,-7.46516z" fill="url(#color-1)" stroke="#8c2382" stroke-width="2.5" stroke-linecap="butt"/><path d="M236.12739,170.58509c1.67088,0 3.18618,0.67912 4.28266,1.7756c1.09648,1.09648 1.7756,2.61178 1.7756,4.28266c0,1.67088 -0.67912,3.18619 -1.7756,4.28267c-1.09648,1.09648 -2.61177,1.7756 -4.28266,1.7756c-1.67088,0 -3.18619,-0.67912 -4.28267,-1.7756c-1.09648,-1.09648 -1.7756,-2.61178 -1.7756,-4.28267c0,-1.67088 0.67912,-3.18619 1.7756,-4.28266c1.09648,-1.09648 2.61178,-1.7756 4.28267,-1.7756z" fill="#ffffff" stroke="#8c2382" stroke-width="3.5" stroke-linecap="butt"/><path d="M240.24101,178.21401l2.24379,-25.80369l5.08595,8.60123" fill="none" stroke="#8c2382" stroke-width="5.5" stroke-linecap="round"/><g><path d="M236.12739,170.58509c1.67088,0 3.18618,0.67912 4.28266,1.7756c1.09648,1.09648 1.7756,2.61178 1.7756,4.28266c0,1.67088 -0.67912,3.18619 -1.7756,4.28267c-1.09648,1.09648 -2.61177,1.7756 -4.28266,1.7756c-1.67088,0 -3.18619,-0.67912 -4.28267,-1.7756c-1.09648,-1.09648 -1.7756,-2.61178 -1.7756,-4.28267c0,-1.67088 0.67912,-3.18619 1.7756,-4.28266c1.09648,-1.09648 2.61178,-1.7756 4.28267,-1.7756z" fill="#ffffff" stroke="none" stroke-width="1" stroke-linecap="butt"/><path d="M240.24101,178.21401l2.24379,-25.80369l5.08595,8.60123" fill="none" stroke="#ffffff" stroke-width="2" stroke-linecap="round"/></g></g><g stroke-linecap="butt" font-family="Sans Serif" font-weight="400" font-size="22" text-anchor="start"><text transform="translate(175.13283,213.97731) scale(1.54622,1.54622)" font-size="22" xml:space="preserve" data-paper-data="{&quot;origPos&quot;:null}" fill-opacity="0" fill="#000000" fill-rule="nonzero" stroke="#ffffff" stroke-width="5" stroke-linecap="butt" stroke-linejoin="miter" stroke-miterlimit="10" stroke-dasharray="" stroke-dashoffset="0" font-family="Sans Serif" font-weight="400" text-anchor="start" style="mix-blend-mode: normal"><tspan x="0" dy="0">Buttons</tspan></text><text transform="translate(175.13283,213.97731) scale(1.54622,1.54622)" font-size="22" xml:space="preserve" data-paper-data="{&quot;origPos&quot;:null}" fill="#000000" fill-rule="nonzero" stroke="none" stroke-width="1" stroke-linecap="butt" stroke-linejoin="miter" stroke-miterlimit="10" stroke-dasharray="" stroke-dashoffset="0" font-family="Sans Serif" font-weight="400" text-anchor="start" style="mix-blend-mode: normal"><tspan x="0" dy="0">Buttons</tspan></text></g></g></g></svg>