<svg version="1.1" xmlns="http://www.w3.org/2000/svg" xmlns:xlink="http://www.w3.org/1999/xlink" width="683.40458" height="433.97897" viewBox="0,0,683.40458,433.97897"><defs><linearGradient x1="-101.20229" y1="180" x2="-30.84294" y2="180" gradientUnits="userSpaceOnUse" id="color-1"><stop offset="0" stop-color="#296cdb" stop-opacity="0"/><stop offset="1" stop-color="#296cdb"/></linearGradient><linearGradient x1="510.77689" y1="180" x2="582.20229" y2="180" gradientUnits="userSpaceOnUse" id="color-2"><stop offset="0" stop-color="#296cdb"/><stop offset="1" stop-color="#296cdb" stop-opacity="0"/></linearGradient><linearGradient x1="240.37568" y1="19.00242" x2="240.37568" y2="-63.06776" gradientUnits="userSpaceOnUse" id="color-3"><stop offset="0" stop-color="#296cdb"/><stop offset="1" stop-color="#296cdb" stop-opacity="0"/></linearGradient><radialGradient cx="435.32001" cy="13.59453" r="77.14154" gradientUnits="userSpaceOnUse" id="color-4"><stop offset="0" stop-color="#296cdb"/><stop offset="1" stop-color="#296cdb" stop-opacity="0"/></radialGradient><radialGradient cx="44.6801" cy="13.59453" r="77.14155" gradientUnits="userSpaceOnUse" id="color-5"><stop offset="0" stop-color="#296cdb"/><stop offset="1" stop-color="#296cdb" stop-opacity="0"/></radialGradient><linearGradient x1="402.04735" y1="253.45769" x2="402.04735" y2="283.0331" gradientUnits="userSpaceOnUse" id="color-6"><stop offset="0" stop-color="#000000"/><stop offset="1" stop-color="#000000" stop-opacity="0"/></linearGradient></defs><g transform="translate(101.20229,29.47897)"><g data-paper-data="{&quot;isPaintingLayer&quot;:true}" fill-rule="nonzero" stroke-linejoin="miter" stroke-miterlimit="10" stroke-dasharray="" stroke-dashoffset="0" style="mix-blend-mode: normal"><g stroke="none" stroke-width="0" stroke-linecap="butt"><path d="M-31.34294,389.47897v-418.95794h542.61983v418.95794z" fill="#296cdb"/><path d="M-101.20229,389.47897v-418.95794h70.35935v418.95794z" fill="url(#color-1)"/><path d="M510.77689,389.47897v-418.95794h71.4254v418.95794z" fill="url(#color-2)"/></g><g fill="#ffae28" stroke="#c97407" stroke-width="5.5" stroke-linecap="butt"><path d="M10.09877,249.24396h54.04529v86.96387h-54.04529z"/><path d="M37.24314,214.85736c7.48912,0 14.27601,3.44042 19.19012,8.99931c4.91411,5.55901 7.95532,13.23637 7.95532,21.70827c0,8.47201 -3.04121,16.14938 -7.95532,21.70839c-4.91411,5.55889 -11.70099,8.99931 -19.19012,8.99931c-7.48924,0 -14.27613,-3.44042 -19.19023,-8.99931c-4.91399,-5.55901 -7.95532,-13.23637 -7.95532,-21.70839c0,-8.4719 3.04133,-16.14926 7.95532,-21.70827c4.91411,-5.55889 11.70099,-8.99931 19.19023,-8.99931z"/></g><g stroke="none" stroke-linecap="butt"><g><g><g><path d="M432.96469,19.00245l-385.24561,-0.13533z" data-paper-data="{&quot;index&quot;:null,&quot;origRot&quot;:0}" fill="url(#color-3)" stroke-width="1.89892"/><path d="M431.732,15.38856h84.3175z" data-paper-data="{&quot;index&quot;:null}" fill="url(#color-4)" stroke-width="0"/></g></g></g><path d="M48.26808,15.38856h-84.3175z" data-paper-data="{&quot;index&quot;:null}" fill="url(#color-5)" stroke-width="0"/><text transform="translate(14.00367,61.0802) scale(0.50924,0.50924)" font-size="22" xml:space="preserve" fill="#a1f4fa" fill-rule="nonzero" stroke="none" stroke-width="1" stroke-linecap="butt" stroke-linejoin="miter" stroke-miterlimit="10" stroke-dasharray="" stroke-dashoffset="0" font-family="&quot;Microsoft YaHei&quot;, &quot;微软雅黑&quot;, STXihei, &quot;华文细黑&quot;" font-weight="400" text-anchor="start" style="mix-blend-mode: normal"><tspan x="0" dy="0">Page 6</tspan></text><text transform="translate(12.54473,87.21422) scale(1.03413,1.03413)" font-size="22" xml:space="preserve" fill="#a1f3f9" fill-rule="nonzero" stroke="none" stroke-width="1" stroke-linecap="butt" stroke-linejoin="miter" stroke-miterlimit="10" stroke-dasharray="" stroke-dashoffset="0" font-family="&quot;Microsoft YaHei&quot;, &quot;微软雅黑&quot;, STXihei, &quot;华文细黑&quot;" font-weight="400" text-anchor="start" style="mix-blend-mode: normal"><tspan x="0" dy="0">Peach's Castle</tspan></text><text transform="translate(282.69409,31.82308) scale(0.63022,0.63021)" font-size="22" xml:space="preserve" fill="#a1f3f9" fill-rule="nonzero" stroke="none" stroke-width="1" stroke-linecap="butt" stroke-linejoin="miter" stroke-miterlimit="10" stroke-dasharray="" stroke-dashoffset="0" font-family="Sans Serif" font-weight="400" text-anchor="start" style="mix-blend-mode: normal"><tspan x="0" dy="0">Use the arrow keys</tspan><tspan x="0" dy="24.86px">or tap to navigate</tspan></text><path d="M31.18763,13.16804c6.80525,1.71922 10.42277,2.74001 10.85258,3.06237c-2.41766,5.78446 -3.71602,8.74832 -3.89511,8.89159c-0.44772,0 -3.35786,-1.02078 -8.73042,-3.06236c-3.11609,2.90118 -4.67413,4.52191 -4.67413,4.86217c-0.23281,5.37257 -0.34922,8.49761 -0.34922,9.37513c3.72498,1.71922 5.93668,2.68628 6.63512,2.90118c3.47426,-1.50432 5.47106,-2.41765 5.99041,-2.74001l-0.96706,-3.08922c-0.64471,0.35817 -2.58779,1.17301 -5.82923,2.44452l-0.16118,-0.32236v-1.31627c0,-1.12824 -0.05373,-2.84746 -0.16118,-5.15767c0.8417,-0.21491 5.74865,-0.75216 14.72083,-1.61177c0.21491,1.11033 0.59098,5.84714 1.12824,14.21043c-0.28654,0.32236 -5.67701,2.48034 -16.17142,6.47394c-8.93636,-3.25935 -13.46722,-5.09499 -13.59258,-5.50688c-2.79373,-9.70643 -4.1906,-14.81932 -4.1906,-15.33867c3.67126,-6.60825 5.77551,-10.17205 6.31276,-10.6914c0.44771,-0.21491 4.80845,-1.34314 13.0822,-3.38472z" fill="#ffffff" stroke-width="0.26459"/><path d="M62.91263,21.25376l0.18803,0.34922l-3.62648,19.23378h0.18803l9.24081,-2.71315v-10.87944c0.03583,-0.25072 0.15223,-0.37608 0.34922,-0.37608c6.94852,0.48353 10.81676,0.7253 11.60474,0.7253c0,0.12537 0.06268,0.18805 0.18805,0.18805c0,3.06236 -0.96706,9.41094 -2.90118,19.04574c0,0.55517 -2.77583,0.97601 -8.32748,1.26255c-0.28654,-0.34026 -0.5283,-1.06556 -0.72529,-2.17589c-7.10969,1.4506 -11.16598,2.17589 -12.16886,2.17589c-5.67701,-4.22642 -8.51552,-6.4023 -8.51552,-6.52766c0.96706,-12.69716 1.57595,-19.28751 1.82667,-19.77104h0.16119c4.53086,-0.12535 8.70356,-0.30444 12.51808,-0.53726z" fill="#ffffff" stroke-width="0.26459"/><path d="M87.43838,10.48175l10.55709,1.6655c-1.32523,5.06812 -2.1938,7.60218 -2.60569,7.60218c-5.55165,-0.37608 -8.32747,-0.74321 -8.32747,-1.10138v-7.79021c0.05372,-0.25072 0.17907,-0.37608 0.37608,-0.37608zM84.48348,23.26846h0.16118c8.1663,1.48641 12.24944,2.35497 12.24944,2.60569c-2.34602,13.28814 -3.76975,20.69333 -4.27119,22.21556h-8.51551c-0.25072,0 -0.37608,-0.12536 -0.37608,-0.37608z" fill="#ffffff" stroke-width="0.26459"/><path d="M115.08023,13.11432h0.16119c8.09467,0.68052 12.14199,1.20883 12.14199,1.58491l3.57276,31.61754c0,0.23281 -3.57276,0.82379 -10.71827,1.77295l-0.16119,-0.34922v-2.87432c-6.16054,1.6655 -10.38695,2.74001 -12.67925,3.22354c-5.4442,-7.70068 -8.30061,-11.80173 -8.56924,-12.30317c4.01152,-7.28878 6.15158,-10.97794 6.42021,-11.06749l11.25552,0.53725c-0.23281,-1.37896 -0.70738,-5.42629 -1.42373,-12.14199zM110.08374,32.37492c1.80876,5.53374 2.937,8.56924 3.38472,9.1065l5.34571,-4.64727c-0.55517,-3.20563 -0.96706,-4.80845 -1.23569,-4.80845h-7.14552c-0.23281,0.03583 -0.34922,0.15223 -0.34922,0.34922z" fill="#ffffff" stroke-width="0.26459"/><path d="M149.00797,21.2806c8.11257,4.17269 12.60762,6.60825 13.48514,7.30669c-1.16405,5.4442 -1.85354,8.24689 -2.06844,8.40806h-16.9773v0.29549l4.75472,5.88296l7.46786,-3.81452c0.73425,1.2715 1.79085,3.49217 3.16982,6.66199c-0.64471,0.2149 -5.3457,0.90438 -14.10298,2.06844c-7.25296,-4.78158 -10.90631,-7.27087 -10.96004,-7.46787c1.16405,-9.29453 1.85354,-13.9418 2.06844,-13.9418c7.57531,-3.22354 11.96291,-5.02334 13.16278,-5.39943zM147.26189,27.78143c-0.14327,0.35817 -1.09242,1.78189 -2.84746,4.27118c0,0.75216 1.0566,1.12824 3.16982,1.12824c0,0.10746 1.53118,0.36713 4.59354,0.77902c0.8417,-1.16405 1.26255,-1.84458 1.26255,-2.04157c-0.26863,-1.59386 -0.85065,-2.39079 -1.74608,-2.39079z" fill="#ffffff" stroke-width="0.26459"/></g><g stroke="none" stroke-linecap="butt"><path d="M402.0904,273.23497h62.2182v62.07902h-62.2182z" fill="#5ebd47" stroke-width="1.76245"/><path d="M408.52962,274.52162h8.20934v60.79239h-8.20934z" fill="#64e254" stroke-width="1.76245"/><path d="M402.04735,253.45769h62.2182v29.57541h-62.2182z" fill="url(#color-6)" stroke-width="3.42681"/><path d="M396.45095,252.32758h74.3018v22.19402h-74.3018z" fill="#5ebd47" stroke-width="1.6033"/><path d="M403.12937,252.32758h7.7773v22.19402h-7.7773z" fill="#64e254" stroke-width="1.76245"/></g><g stroke="none"><path d="M10.09877,249.24396h54.04529v86.96387h-54.04529z" fill="#ffae28" stroke-width="1.28285" stroke-linecap="butt"/><path d="M37.24314,214.85736c7.48912,0 14.27601,3.44042 19.19012,8.99931c4.91411,5.55901 7.95532,13.23637 7.95532,21.70827c0,8.47201 -3.04121,16.14938 -7.95532,21.70839c-4.91411,5.55889 -11.70099,8.99931 -19.19012,8.99931c-7.48924,0 -14.27613,-3.44042 -19.19023,-8.99931c-4.91399,-5.55901 -7.95532,-13.23637 -7.95532,-21.70839c0,-8.4719 3.04133,-16.14926 7.95532,-21.70827c4.91411,-5.55889 11.70099,-8.99931 19.19023,-8.99931z" fill="#ffae28" stroke-width="0.9034" stroke-linecap="butt"/><path d="M34.86014,215.20428h4.91317v121.11081h-4.91317z" fill="#c97407" stroke-width="0.83217" stroke-linecap="butt"/><path d="M100.70496,268.40549v0v-0.49127v0z" fill="#c97407" stroke-width="0.83469" stroke-linecap="butt"/><path d="M23.87162,222.68365l7.86113,-2.96669l0.04909,30.73465h-16.45923l0.19648,-8.62317l1.47393,-9.33506z" fill="#e18e3b" stroke-width="0.75772" stroke-linecap="round"/><path d="M57.79369,233.02313l1.47393,9.33506l0.19648,8.62317h-16.45923l0.04909,-30.73465l7.86113,2.96669z" fill="#e18e3b" stroke-width="0.75772" stroke-linecap="round"/><g fill="#e18e3b" stroke-width="0.75772" stroke-linecap="butt"><path d="M14.49853,309.10974h16.45923v23.33783h-16.45923z"/><path d="M14.61626,281.73848h16.45923v23.33783h-16.45923z"/><path d="M14.96943,254.07296h16.45923v23.33783h-16.45923z"/></g><g fill="#e18e3b" stroke-width="0.75772" stroke-linecap="butt"><path d="M42.98815,310.05152h16.45923v23.33783h-16.45923z"/><path d="M43.16474,282.6803h16.45923v23.33783h-16.45923z"/><path d="M43.45906,255.01478h16.45923v23.33783h-16.45923z"/></g></g><text transform="translate(12.99528,123.78356) scale(0.66931,0.66931)" font-size="22" xml:space="preserve" fill="#a1f3f9" fill-rule="nonzero" stroke="none" stroke-width="1" stroke-linecap="butt" stroke-linejoin="miter" stroke-miterlimit="10" stroke-dasharray="" stroke-dashoffset="0" font-family="&quot;Microsoft YaHei&quot;, &quot;微软雅黑&quot;, STXihei, &quot;华文细黑&quot;" font-weight="400" text-anchor="start" style="mix-blend-mode: normal"><tspan x="0" dy="0">Explore Peach's Castle to discover new levels and secrets!</tspan><tspan x="0" dy="24.86px"> </tspan><tspan x="0" dy="24.86px">Press or tap Z to enter doors, and enter pipes by standing on</tspan><tspan x="0" dy="24.86px">it and pressing the down key, the S key, or tapping the down</tspan><tspan x="0" dy="24.86px">button on mobile.</tspan></text><g stroke-linecap="butt"><path d="M130.00001,335l60.86667,-32h96.4l60.73334,32l-21.93445,9.3524l-177.06557,0.1476z" data-paper-data="{&quot;index&quot;:null}" fill="#ececec" stroke="none" stroke-width="0"/><path d="M-5.99999,335h487v31h-487z" data-paper-data="{&quot;origPos&quot;:null,&quot;index&quot;:null}" fill="#ececec" stroke="none" stroke-width="1"/><path d="M-1.49999,384.5v-50.5h43.5v50.5z" data-paper-data="{&quot;origPos&quot;:null,&quot;index&quot;:null}" fill="#616161" stroke="none" stroke-width="0"/><path d="M87.00001,384.5v-50.5h43.5v50.5z" data-paper-data="{&quot;origPos&quot;:null,&quot;index&quot;:null}" fill="#616161" stroke="none" stroke-width="0"/><path d="M348.00001,384.5v-50.5h43.5v50.5z" data-paper-data="{&quot;origPos&quot;:null,&quot;index&quot;:null}" fill="#616161" stroke="none" stroke-width="0"/><path d="M434.50001,384.5v-50.5h43.5v50.5z" data-paper-data="{&quot;origPos&quot;:null,&quot;index&quot;:null}" fill="#616161" stroke="none" stroke-width="0"/><path d="M174.50003,345.5v-33.1l16.84246,-8.98067l26.65755,0.08067v42z" data-paper-data="{&quot;index&quot;:null}" fill="#616161" stroke="none" stroke-width="0"/><path d="M260.50001,346v-42.5h27.01666l16.28334,8.8l0.2,33.7z" data-paper-data="{&quot;origPos&quot;:null,&quot;index&quot;:null}" fill="#616161" stroke="none" stroke-width="0"/><path d="M217.50003,396v-50.5h43.5v50.5z" data-paper-data="{&quot;origPos&quot;:null,&quot;index&quot;:null}" fill="#616161" stroke="none" stroke-width="0"/><path d="M131.50001,404v-35l43,-24l0.5,59z" data-paper-data="{&quot;origPos&quot;:null,&quot;index&quot;:null}" fill="#616161" stroke="none" stroke-width="0"/><path d="M303.50001,404.5l0.5,-59l43,24v35z" data-paper-data="{&quot;origPos&quot;:null,&quot;index&quot;:null}" fill="#616161" stroke="none" stroke-width="0"/><path d="M-1.99999,363v-29h45l-32.14286,27.51282z" data-paper-data="{&quot;origPos&quot;:null,&quot;index&quot;:null}" fill="#cc1919" stroke="none" stroke-width="0"/><path d="M467.4286,361.5128l-31.42857,-27.51282h44v29z" data-paper-data="{&quot;origPos&quot;:null,&quot;index&quot;:null}" fill="#cc1919" stroke="none" stroke-width="0"/><g data-paper-data="{&quot;index&quot;:null}"><path d="M287.33931,303.02143c0,0 20.81977,11.3967 24.42673,12.9068c-17.48719,20.63809 -43.59673,33.73843 -72.76601,33.73843c-29.37323,0 -55.64377,-13.28417 -73.13154,-34.17241c5.02411,-1.57417 25.00654,-12.79425 25.00654,-12.79425z" data-paper-data="{&quot;index&quot;:null}" fill="#ffe105" stroke="none" stroke-width="0"/><path d="M306.01492,312.64797c-16.28582,18.69979 -40.27013,30.5187 -67.0149,30.5187c-26.80191,0 -50.83155,-11.86946 -67.11918,-30.63865c3.92167,-1.27585 18.37975,-9.70184 18.37975,-9.70184l97.06548,0.14881c0,0 16.53472,8.60497 18.68885,9.67299z" data-paper-data="{&quot;index&quot;:null}" fill="#2c3d68" stroke="none" stroke-width="0"/><path d="M279.07567,305.87366l2.60141,-2.92584l5.26824,-0.11348l14.92965,7.69635z" data-paper-data="{&quot;index&quot;:null}" fill="#c01fff" stroke="#2c3d68" stroke-width="0"/><path d="M242.91409,318.9711l26.01825,-7.21462l-6.75132,26.08585z" data-paper-data="{&quot;index&quot;:null}" fill="#c01fff" stroke="#2c3d68" stroke-width="2"/><path d="M215.81904,337.84232l-6.75132,-26.08586l26.01825,7.21462z" data-paper-data="{&quot;index&quot;:null}" fill="#c01fff" stroke="#2c3d68" stroke-width="2"/><path d="M225.50001,317.66666h27l-13.47619,23.33333z" data-paper-data="{&quot;index&quot;:null}" fill="#ff1f1f" stroke="none" stroke-width="0"/><path d="M284.72424,327.95673l-23.76189,-12.7053l19.17471,-11.91585c0.59776,0.11145 1.21422,0.16972 1.8443,0.16972c0.67949,0 1.34316,-0.06777 1.98461,-0.19693z" data-paper-data="{&quot;index&quot;:null}" fill="#ff1f1f" stroke="none" stroke-width="0"/><path d="M217.0377,315.25145l-23.76189,12.7053l0.74812,-24.31829c0.76099,0.18529 1.55606,0.28351 2.37409,0.28351c0.70794,0 1.3987,-0.07356 2.06505,-0.21347z" data-paper-data="{&quot;index&quot;:null}" fill="#ff1f1f" stroke="none" stroke-width="0"/><path d="M176.24234,310.36402l14.76298,-7.69635l5.26824,0.11348l2.60141,2.92584z" data-paper-data="{&quot;index&quot;:null}" fill="#c01fff" stroke="#2c3d68" stroke-width="0"/><path d="M287.24092,302.97754c0,0 2.48474,1.29138 2.45376,1.32242c-13.26945,13.29419 -31.07128,21.35893 -50.74726,21.35893c-19.62923,0 -37.55947,-7.94273 -50.81925,-21.18092c-0.01826,-0.01823 2.77119,-1.50522 2.77119,-1.50522" data-paper-data="{&quot;index&quot;:null}" fill="#ff1f1f" stroke="#ff1f1f" stroke-width="0"/><path d="M285.90757,302.97682c-12.11753,11.91503 -28.73751,19.26539 -47.07427,19.26539c-18.33884,0 -34.96053,-7.35204 -47.07841,-19.26947" data-paper-data="{&quot;index&quot;:null}" fill="#ffe105" stroke="#ff1f1f" stroke-width="0"/></g></g></g></g></svg>