<svg version="1.1" xmlns="http://www.w3.org/2000/svg" xmlns:xlink="http://www.w3.org/1999/xlink" width="102.51173" height="94.55858" viewBox="0,0,102.51173,94.55858"><defs><linearGradient x1="222.24061" y1="188.72343" x2="227.65511" y2="176.88993" gradientUnits="userSpaceOnUse" id="color-1"><stop offset="0" stop-color="#fcb69b"/><stop offset="1" stop-color="#fbdda6"/></linearGradient><linearGradient x1="216.87211" y1="161.57772" x2="216.87211" y2="210.63113" gradientUnits="userSpaceOnUse" id="color-2"><stop offset="0" stop-color="#faffb0"/><stop offset="1" stop-color="#ff7a8a"/></linearGradient><linearGradient x1="219.31721" y1="145.90883" x2="219.31721" y2="182.22463" gradientUnits="userSpaceOnUse" id="color-3"><stop offset="0" stop-color="#faffb0"/><stop offset="1" stop-color="#fcc8a0"/></linearGradient><linearGradient x1="242.92381" y1="197.38143" x2="247.90791" y2="216.88603" gradientUnits="userSpaceOnUse" id="color-4"><stop offset="0" stop-color="#fda095"/><stop offset="1" stop-color="#ff7a8a"/></linearGradient><linearGradient x1="235.63081" y1="197.38143" x2="230.64671" y2="216.88613" gradientUnits="userSpaceOnUse" id="color-5"><stop offset="0" stop-color="#fda095"/><stop offset="1" stop-color="#ff7a8a"/></linearGradient><linearGradient x1="255.56401" y1="190.37343" x2="250.14951" y2="178.53993" gradientUnits="userSpaceOnUse" id="color-6"><stop offset="0" stop-color="#fcb69b"/><stop offset="1" stop-color="#fbdda6"/></linearGradient><linearGradient x1="198.92277" y1="122.39705" x2="198.92277" y2="147.12611" gradientUnits="userSpaceOnUse" id="color-7"><stop offset="0" stop-color="#e6a902"/><stop offset="1" stop-color="#c78602"/></linearGradient><linearGradient x1="198.29207" y1="121.86638" x2="204.87318" y2="145.98738" gradientUnits="userSpaceOnUse" id="color-8"><stop offset="0" stop-color="#ffff00"/><stop offset="1" stop-color="#ffc700"/></linearGradient><linearGradient x1="201.47207" y1="124.06305" x2="201.47207" y2="143.25013" gradientUnits="userSpaceOnUse" id="color-9"><stop offset="0" stop-color="#e6a902"/><stop offset="1" stop-color="#c78602"/></linearGradient><linearGradient x1="280.46071" y1="121.83291" x2="280.46071" y2="146.56196" gradientUnits="userSpaceOnUse" id="color-10"><stop offset="0" stop-color="#e6a902"/><stop offset="1" stop-color="#c78602"/></linearGradient><linearGradient x1="281.09143" y1="121.30224" x2="274.51032" y2="145.42325" gradientUnits="userSpaceOnUse" id="color-11"><stop offset="0" stop-color="#ffff00"/><stop offset="1" stop-color="#ffc700"/></linearGradient><linearGradient x1="277.91142" y1="123.49891" x2="277.91142" y2="142.68599" gradientUnits="userSpaceOnUse" id="color-12"><stop offset="0" stop-color="#e6a902"/><stop offset="1" stop-color="#c78602"/></linearGradient></defs><g transform="translate(-188.43588,-120.99822)"><g data-paper-data="{&quot;isPaintingLayer&quot;:true}" fill-rule="nonzero" stroke-linejoin="miter" stroke-miterlimit="10" stroke-dasharray="" stroke-dashoffset="0" style="mix-blend-mode: normal"><path d="M213.61301,175.33193l-1.8624,0.5781l-9.971,-32.1258l1.8624,-0.578z" fill="#eae2c4" stroke="none" stroke-width="0.65" stroke-linecap="butt"/><path d="M274.3626,144.15623l1.8624,0.578l-9.971,32.1257l-1.8624,-0.578z" fill="#eae2c4" stroke="none" stroke-width="0.65" stroke-linecap="butt"/><path d="M220.11561,186.28953c-2.365,0.2851 -4.7054,-0.5629 -6.7198,-1.6691c-2.1884,-1.1969 -4.1092,-2.8659 -5.5895,-4.8484c-0.9232,-1.3376 -2.3552,-3.4281 -1.3858,-4.7826c1.4718,-2.051 4.3449,-2.5692 6.6579,-2.774c2.6253,-0.2316 5.3363,0.3401 7.6151,1.5029c1.52,0.8503 2.5267,2.5604 3.2312,4.2462c0.6778,1.624 1.5165,3.7638 0.7734,5.3878c-0.743,1.6241 -2.8298,2.7237 -4.5825,2.9372z" fill="url(#color-1)" stroke="none" stroke-width="1.06491" stroke-linecap="round"/><path d="M240.27731,161.60253c6.918,-0.4414 13.4,5.0963 17.6,10.3956c3.959,5.0293 5.063,12.4255 4.75,18.9683c-0.034,4.9288 -1.957,10.3818 -5.737,13.736c-4.541,4.0213 -11.159,6.061 -17.363,5.9221c-5.649,0.1389 -11.602,-2.0437 -15.863,-5.9221c-3.87,-3.5246 -5.935,-8.9806 -6.537,-13.9823c-0.634,-5.3939 -0.246,-11.7732 3,-15.7659c5.077,-6.1989 12.083,-12.8344 20.15,-13.3517z" fill="url(#color-2)" stroke="none" stroke-width="0.99271" stroke-linecap="round"/><path d="M235.37731,150.52471c-0.752,-1.501 -4.056,-3.677 -3,-4.35c1.657,-0.764 5.795,0.237 8.5,1.5c1.753,0.822 1.707,3.917 3.5,4.65c1.263,0.452 2.213,-1.655 3.5,-1.9c0.747,-0.088 1.82,0.319 2,1c0.234,0.897 -0.544,1.758 -1,2.6c-0.413,1.129 -1.433,2.059 -1.6,3.3c-0.118,0.888 0.08,0.892 1,2.5c3.679,6.432 16.265,15.943 11.25,19.2c-8.86,5.293 -28.16,3.622 -39,-2.1c-4.542,-2.398 4.918,-9.848 8.35,-14.1c2.094,-2.762 6.39,-3.582 8,-6.65c0.945,-1.802 -0.624,-3.915 -1.5,-5.65z" fill="url(#color-3)" stroke="none" stroke-width="1" stroke-linecap="round"/><path d="M248.64651,195.91913c1.7304,-0.4422 3.6867,0.764 5.1642,1.72c1.5335,0.9932 3.0371,2.2883 3.6033,3.9354c0.7386,2.4494 0.8187,5.2188 0.1236,7.761c-0.6133,2.2396 -1.6345,4.9746 -3.9147,6.0578c-1.5055,0.7129 -3.3077,-1.0683 -4.4596,-2.2149c-1.6875,-1.8095 -2.9879,-3.9967 -3.7762,-6.3631c-0.73,-2.1792 -1.1479,-4.6331 -0.4465,-6.9096c0.5221,-1.6868 1.9756,-3.5445 3.7059,-3.9866z" fill="url(#color-4)" stroke="none" stroke-width="1.06491" stroke-linecap="round"/><path d="M233.61401,199.90573c0.7014,2.2765 0.2835,4.7305 -0.4465,6.9096c-0.7883,2.3665 -2.0887,4.5536 -3.7762,6.3632c-1.1519,1.1465 -2.9541,2.9277 -4.4596,2.2148c-2.2802,-1.0832 -3.3014,-3.8182 -3.9147,-6.0578c-0.6951,-2.5422 -0.615,-5.3116 0.1236,-7.761c0.5662,-1.6471 2.0698,-2.9421 3.6033,-3.9354c1.4775,-0.956 3.4338,-2.1622 5.1642,-1.72c1.7303,0.4421 3.1838,2.2998 3.7059,3.9866z" fill="url(#color-5)" stroke="none" stroke-width="1.06491" stroke-linecap="round"/><path d="M253.10651,185.00233c-0.7431,-1.624 0.0956,-3.7638 0.7734,-5.3878c0.7044,-1.6858 1.7112,-3.3959 3.2312,-4.2462c2.2788,-1.1628 4.9898,-1.7345 7.6151,-1.5029c2.313,0.2048 5.1861,0.723 6.6579,2.774c0.9694,1.3545 -0.4626,3.445 -1.3858,4.7826c-1.4803,1.9825 -3.4011,3.6515 -5.5895,4.8484c-2.0144,1.1062 -4.3548,1.9542 -6.7198,1.6691c-1.7527,-0.2135 -3.8395,-1.3131 -4.5825,-2.9372z" fill="url(#color-6)" stroke="none" stroke-width="1.06491" stroke-linecap="round"/><g stroke="none" stroke-width="0.73598"><path d="M247.28651,176.76333c0.8014,-0.0405 1.7154,0.3986 2.1389,1.1662c0.6618,1.2004 0.9009,2.5168 0.9009,4.1275c0,1.6107 -0.2308,2.9302 -0.9009,4.1275c-0.4505,0.8042 -1.3375,1.3468 -2.1389,1.3218c-0.8512,0.025 -1.7714,-0.5278 -2.2081,-1.3218c-0.6618,-1.2028 -0.9009,-2.5168 -0.9009,-4.1275c0,-1.6107 0.2149,-2.9442 0.9009,-4.1275c0.4629,-0.7988 1.3949,-1.2067 2.2081,-1.1662z" fill="#000000" stroke-linecap="round"/><path d="M247.23461,178.04783c0.2239,0 0.427,0.1028 0.5741,0.2678c0.1465,0.1658 0.2377,0.3947 0.2377,0.6469c0,0.2522 -0.0912,0.4811 -0.2377,0.6469c-0.1471,0.1651 -0.3502,0.2678 -0.5741,0.2678c-0.2238,0 -0.4269,-0.1027 -0.5741,-0.2678c-0.1464,-0.1658 -0.2376,-0.3947 -0.2376,-0.6469c0,-0.2522 0.0912,-0.4811 0.2376,-0.6469c0.1472,-0.165 0.3503,-0.2678 0.5741,-0.2678z" fill="#ffffff" stroke-linecap="butt"/></g><g stroke="none" stroke-width="0.73598"><path d="M233.83651,176.71333c0.8014,-0.0405 1.7154,0.3986 2.1389,1.1662c0.6618,1.2004 0.9009,2.5168 0.9009,4.1275c0,1.6107 -0.2308,2.9302 -0.9009,4.1275c-0.4505,0.8042 -1.3375,1.3468 -2.1389,1.3218c-0.8512,0.025 -1.7714,-0.5278 -2.2081,-1.3218c-0.6618,-1.2028 -0.9009,-2.5168 -0.9009,-4.1275c0,-1.6107 0.2149,-2.9442 0.9009,-4.1275c0.4629,-0.7988 1.3949,-1.2067 2.2081,-1.1662z" fill="#000000" stroke-linecap="round"/><path d="M233.78461,177.99783c0.2239,0 0.427,0.1028 0.5741,0.2678c0.1465,0.1658 0.2377,0.3947 0.2377,0.6469c0,0.2522 -0.0912,0.4811 -0.2377,0.6469c-0.1471,0.1651 -0.3502,0.2678 -0.5741,0.2678c-0.2238,0 -0.4269,-0.1027 -0.5741,-0.2678c-0.1464,-0.1658 -0.2376,-0.3947 -0.2376,-0.6469c0,-0.2522 0.0912,-0.4811 0.2376,-0.6469c0.1472,-0.165 0.3503,-0.2678 0.5741,-0.2678z" fill="#ffffff" stroke-linecap="butt"/></g><path d="M246.17731,193.32473c0,0 -3.65,4.041 -6.1,4.15c-2.348,0.087 -5.5,-4 -5.5,-4" fill="none" stroke="#000000" stroke-width="2" stroke-linecap="round"/><g data-paper-data="{&quot;index&quot;:null}" stroke="none" stroke-linecap="butt"><path d="M203.63429,124.31589c2.39784,1.69147 4.33612,4.40195 5.24399,7.72946c0.90785,3.32742 0.61473,6.6468 -0.59181,9.32168c-1.20652,2.67498 -3.32639,4.70565 -6.07313,5.45506c-2.74673,0.74941 -5.60419,0.07675 -8.00206,-1.61482c-2.39784,-1.69147 -4.33616,-4.40205 -5.244,-7.72946c-0.90787,-3.32752 -0.61473,-6.6468 0.59181,-9.32168c1.20652,-2.67499 3.3264,-4.70565 6.07313,-5.45506c2.74673,-0.74941 5.60419,-0.07675 8.00206,1.61482z" data-paper-data="{&quot;origPos&quot;:null}" fill="url(#color-7)" stroke-width="0.44036"/><path d="M206.29412,123.4812c2.39784,1.69147 4.33613,4.40194 5.244,7.72946c0.90784,3.32742 0.61473,6.6468 -0.59181,9.32168c-1.20652,2.67498 -3.3264,4.70565 -6.07313,5.45506c-2.74673,0.74941 -5.60418,0.07675 -8.00205,-1.61482c-2.39784,-1.69147 -4.33615,-4.40205 -5.24399,-7.72946c-0.90787,-3.32752 -0.61473,-6.6468 0.5918,-9.32168c1.20652,-2.67499 3.3264,-4.70565 6.07313,-5.45506c2.74673,-0.74941 5.60419,-0.07676 8.00206,1.61482z" data-paper-data="{&quot;origPos&quot;:null}" fill="url(#color-8)" stroke-width="0.44036"/><path d="M205.68681,142.30844l-3.45145,0.94169l-4.97803,-18.24539l3.45146,-0.94169z" data-paper-data="{&quot;origPos&quot;:null}" fill="url(#color-9)" stroke-width="0.59798"/></g><g stroke="none" stroke-linecap="butt"><path d="M283.75127,122.13693c2.74673,0.74941 4.86661,2.78008 6.07313,5.45506c1.20654,2.67488 1.49968,5.99416 0.5918,9.32168c-0.90784,3.32741 -2.84615,6.03798 -5.24399,7.72946c-2.39787,1.69157 -5.25533,2.36423 -8.00206,1.61482c-2.74673,-0.74941 -4.86661,-2.78008 -6.07313,-5.45506c-1.20654,-2.67488 -1.49965,-5.99426 -0.5918,-9.32168c0.90787,-3.32751 2.84615,-6.03798 5.24399,-7.72946c2.39787,-1.69157 5.25533,-2.36423 8.00206,-1.61482z" data-paper-data="{&quot;origPos&quot;:null}" fill="url(#color-10)" stroke-width="0.44036"/><path d="M281.09143,121.30224c2.74673,0.74941 4.86661,2.78008 6.07313,5.45506c1.20654,2.67488 1.49968,5.99416 0.5918,9.32168c-0.90784,3.32741 -2.84615,6.03798 -5.24399,7.72946c-2.39787,1.69157 -5.25533,2.36423 -8.00206,1.61482c-2.74673,-0.74941 -4.86661,-2.78008 -6.07313,-5.45506c-1.20654,-2.67488 -1.49965,-5.99426 -0.5918,-9.32168c0.90787,-3.32751 2.84615,-6.03798 5.24399,-7.72946c2.39787,-1.69157 5.25533,-2.36423 8.00206,-1.61482z" data-paper-data="{&quot;origPos&quot;:null}" fill="url(#color-11)" stroke-width="0.44036"/><path d="M278.67471,123.49891l3.45145,0.94169l-4.97803,18.24539l-3.45145,-0.94169z" data-paper-data="{&quot;origPos&quot;:null}" fill="url(#color-12)" stroke-width="0.59798"/></g></g></g></svg>