<svg version="1.1" xmlns="http://www.w3.org/2000/svg" xmlns:xlink="http://www.w3.org/1999/xlink" width="137.14266" height="107.27381" viewBox="0,0,137.14266,107.27381"><defs><radialGradient cx="248.59603" cy="137.57876" r="71.21449" gradientUnits="userSpaceOnUse" id="color-1"><stop offset="0" stop-color="#ffff00"/><stop offset="1" stop-color="#ffdd4b"/></radialGradient><radialGradient cx="238.93347" cy="133.27698" r="85.85678" gradientUnits="userSpaceOnUse" id="color-2"><stop offset="0" stop-color="#ffff00"/><stop offset="1" stop-color="#ffdd4b"/></radialGradient></defs><g transform="translate(-171.50347,-121.39899)"><g data-paper-data="{&quot;isPaintingLayer&quot;:true}" fill="none" fill-rule="nonzero" stroke="none" stroke-width="none" stroke-linecap="butt" stroke-linejoin="miter" stroke-miterlimit="10" stroke-dasharray="" stroke-dashoffset="0" font-family="none" font-weight="none" font-size="none" text-anchor="none" style="mix-blend-mode: normal"><path d="M242.19556,131.3272l62.7816,5.79536l-5.34681,57.92341l-62.7816,-5.79521z" data-paper-data="{&quot;origPos&quot;:null}" id="ID0.3635424133390188" fill="url(#color-1)" stroke="url(#color-2)" stroke-width="2"/><text transform="translate(260.55168,184.3316) scale(2.47677,2.47677)" font-size="22" xml:space="preserve" data-paper-data="{&quot;origPos&quot;:null}" id="ID0.5294113946147263" fill="#eaca44" fill-rule="nonzero" stroke="none" stroke-width="1" stroke-linecap="butt" stroke-linejoin="miter" stroke-miterlimit="10" stroke-dasharray="" stroke-dashoffset="0" font-family="Sans Serif" font-weight="400" text-anchor="start" style="mix-blend-mode: normal"><tspan x="0" dy="0">?</tspan></text><text transform="translate(258.67523,182.07987) scale(2.47677,2.47677)" font-size="22" xml:space="preserve" data-paper-data="{&quot;origPos&quot;:null}" id="ID0.5294113946147263" fill="#ffffff" fill-rule="nonzero" stroke="none" stroke-width="1" stroke-linecap="butt" stroke-linejoin="miter" stroke-miterlimit="10" stroke-dasharray="" stroke-dashoffset="0" font-family="Sans Serif" font-weight="400" text-anchor="start" style="mix-blend-mode: normal"><tspan x="0" dy="0">?</tspan></text><text transform="translate(175.02284,181.94314) scale(1.40775,1.40775)" font-size="22" xml:space="preserve" data-paper-data="{&quot;origPos&quot;:null}" id="ID0.40125236939638853" fill-opacity="0" fill="#000000" fill-rule="nonzero" stroke="#ffffff" stroke-width="5" stroke-linecap="butt" stroke-linejoin="miter" stroke-miterlimit="10" stroke-dasharray="" stroke-dashoffset="0" font-family="Sans Serif" font-weight="400" text-anchor="start" style="mix-blend-mode: normal"><tspan x="0" dy="0">Solid</tspan></text><text transform="translate(175.02284,181.94314) scale(1.40775,1.40775)" font-size="22" xml:space="preserve" data-paper-data="{&quot;origPos&quot;:null}" id="ID0.40125236939638853" fill="#000000" fill-rule="nonzero" stroke="none" stroke-width="1" stroke-linecap="butt" stroke-linejoin="miter" stroke-miterlimit="10" stroke-dasharray="" stroke-dashoffset="0" font-family="Sans Serif" font-weight="400" text-anchor="start" style="mix-blend-mode: normal"><tspan x="0" dy="0">Solid</tspan></text><path d="M215.10396,195.1728c-0.03453,0 -0.05554,0 -0.05554,0c0,0 0.02101,0 0.05554,0c0.03303,0 0.08107,0 0.13211,0c0.05104,0 0.09907,0 0.1321,0c0.03453,0 0.05554,0 0.05554,0c0,0 -0.02102,0 -0.05554,0c-0.03303,0 -0.08106,0 -0.1321,0c-0.05104,0 -0.09908,0 -0.13211,0z" data-paper-data="{&quot;origPos&quot;:null}" id="ID0.80696503771469" fill="#b2b2b2" stroke="none" stroke-width="1"/><text transform="translate(192.02284,215.44314) scale(1.40775,1.40775)" font-size="22" xml:space="preserve" data-paper-data="{&quot;origPos&quot;:null}" id="ID0.40125236939638853" fill-opacity="0" fill="#000000" fill-rule="nonzero" stroke="#ffffff" stroke-width="5" stroke-linecap="butt" stroke-linejoin="miter" stroke-miterlimit="10" stroke-dasharray="" stroke-dashoffset="0" font-family="Sans Serif" font-weight="400" text-anchor="start" style="mix-blend-mode: normal"><tspan x="0" dy="0">Objects</tspan></text><text transform="translate(192.02284,215.44314) scale(1.40775,1.40775)" font-size="22" xml:space="preserve" data-paper-data="{&quot;origPos&quot;:null}" id="ID0.40125236939638853" fill="#000000" fill-rule="nonzero" stroke="none" stroke-width="1" stroke-linecap="butt" stroke-linejoin="miter" stroke-miterlimit="10" stroke-dasharray="" stroke-dashoffset="0" font-family="Sans Serif" font-weight="400" text-anchor="start" style="mix-blend-mode: normal"><tspan x="0" dy="0">Objects</tspan></text><path d="M232.10396,228.6728c-0.03453,0 -0.05554,0 -0.05554,0c0,0 0.02102,0 0.05554,0c0.03303,0 0.08106,0 0.1321,0c0.05104,0 0.09908,0 0.1321,0c0.03453,0 0.05554,0 0.05554,0c0,0 -0.02102,0 -0.05554,0c-0.03303,0 -0.08106,0 -0.1321,0c-0.05104,0 -0.09908,0 -0.1321,0z" data-paper-data="{&quot;origPos&quot;:null}" id="ID0.80696503771469" fill="#b2b2b2" stroke="none" stroke-width="1"/></g></g></svg>