<svg version="1.1" xmlns="http://www.w3.org/2000/svg" xmlns:xlink="http://www.w3.org/1999/xlink" width="746.6073" height="416.59872" viewBox="0,0,746.6073,416.59872"><defs><linearGradient x1="524.76252" y1="139.24086" x2="454.49876" y2="139.24086" gradientUnits="userSpaceOnUse" id="color-1"><stop offset="0" stop-color="#2c5330"/><stop offset="1" stop-color="#153c1e"/></linearGradient><linearGradient x1="524.73969" y1="189.61187" x2="454.47594" y2="189.61187" gradientUnits="userSpaceOnUse" id="color-2"><stop offset="0" stop-color="#2c5330"/><stop offset="1" stop-color="#153c1e"/></linearGradient><linearGradient x1="607.17258" y1="143.31048" x2="536.90883" y2="143.31048" gradientUnits="userSpaceOnUse" id="color-3"><stop offset="0" stop-color="#2c5330"/><stop offset="1" stop-color="#153c1e"/></linearGradient><linearGradient x1="607.14977" y1="193.68152" x2="536.88601" y2="193.68152" gradientUnits="userSpaceOnUse" id="color-4"><stop offset="0" stop-color="#2c5330"/><stop offset="1" stop-color="#153c1e"/></linearGradient><linearGradient x1="277.1631" y1="173.79407" x2="206.89935" y2="173.79407" gradientUnits="userSpaceOnUse" id="color-5"><stop offset="0" stop-color="#2c5330"/><stop offset="1" stop-color="#153c1e"/></linearGradient><linearGradient x1="277.14028" y1="209.20043" x2="206.87654" y2="209.20043" gradientUnits="userSpaceOnUse" id="color-6"><stop offset="0" stop-color="#2c5330"/><stop offset="1" stop-color="#153c1e"/></linearGradient><linearGradient x1="358.76252" y1="130.24086" x2="288.49876" y2="130.24086" gradientUnits="userSpaceOnUse" id="color-7"><stop offset="0" stop-color="#2c5330"/><stop offset="1" stop-color="#153c1e"/></linearGradient><linearGradient x1="358.73969" y1="180.61187" x2="288.47594" y2="180.61187" gradientUnits="userSpaceOnUse" id="color-8"><stop offset="0" stop-color="#2c5330"/><stop offset="1" stop-color="#153c1e"/></linearGradient><linearGradient x1="441.17258" y1="134.31048" x2="370.90883" y2="134.31048" gradientUnits="userSpaceOnUse" id="color-9"><stop offset="0" stop-color="#2c5330"/><stop offset="1" stop-color="#153c1e"/></linearGradient><linearGradient x1="441.14977" y1="184.68152" x2="370.88601" y2="184.68152" gradientUnits="userSpaceOnUse" id="color-10"><stop offset="0" stop-color="#2c5330"/><stop offset="1" stop-color="#153c1e"/></linearGradient><linearGradient x1="195.64144" y1="148.88991" x2="125.37769" y2="148.88991" gradientUnits="userSpaceOnUse" id="color-11"><stop offset="0" stop-color="#2c5330"/><stop offset="1" stop-color="#153c1e"/></linearGradient><linearGradient x1="195.61862" y1="199.261" x2="125.35487" y2="199.261" gradientUnits="userSpaceOnUse" id="color-12"><stop offset="0" stop-color="#2c5330"/><stop offset="1" stop-color="#153c1e"/></linearGradient><linearGradient x1="116.18624" y1="127.2781" x2="45.92249" y2="127.2781" gradientUnits="userSpaceOnUse" id="color-13"><stop offset="0" stop-color="#2c5330"/><stop offset="1" stop-color="#153c1e"/></linearGradient><linearGradient x1="116.16342" y1="177.64918" x2="45.89967" y2="177.64918" gradientUnits="userSpaceOnUse" id="color-14"><stop offset="0" stop-color="#2c5330"/><stop offset="1" stop-color="#153c1e"/></linearGradient><linearGradient x1="229.01167" y1="81.41588" x2="229.01167" y2="278.58418" gradientUnits="userSpaceOnUse" id="color-15"><stop offset="0" stop-color="#03005b" stop-opacity="0.60392"/><stop offset="1" stop-color="#5e0080" stop-opacity="0.75686"/></linearGradient></defs><g transform="translate(125.04578,27.60713)"><g data-paper-data="{&quot;isPaintingLayer&quot;:true}" fill-rule="nonzero" stroke-linejoin="miter" stroke-miterlimit="10" stroke-dasharray="" stroke-dashoffset="0" style="mix-blend-mode: normal"><path d="M-102.47411,383.03475l0.47592,-409.39124l696.42917,0.35653l-3.90453,413.73313z" data-paper-data="{&quot;origPos&quot;:null}" fill="#9ea65d" stroke="#735d3f" stroke-width="2.5" stroke-linecap="butt"/><path d="" fill="#a18a67" stroke="#8b8064" stroke-width="7" stroke-linecap="butt"/><path d="" fill="#a18a67" stroke="#8b8064" stroke-width="7" stroke-linecap="butt"/><path d="" fill="#a18a67" stroke="#8b8064" stroke-width="7" stroke-linecap="butt"/><path d="" fill="#a18a67" stroke="#8b8064" stroke-width="7" stroke-linecap="butt"/><path d="M0,323h480v37h-480z" data-paper-data="{&quot;origPos&quot;:null}" fill="#00a838" stroke="none" stroke-width="0" stroke-linecap="butt"/><path d="" data-paper-data="{&quot;origPos&quot;:null}" fill="#00a838" stroke="none" stroke-width="0.55092" stroke-linecap="butt"/><path d="" data-paper-data="{&quot;origPos&quot;:null}" fill="#00a838" stroke="none" stroke-width="0.55092" stroke-linecap="butt"/><g><path d="M505.81719,129.4519l-0.20327,0.20328" data-paper-data="{&quot;index&quot;:null}" fill="none" stroke="#cccccc" stroke-width="2" stroke-linecap="round"/><path d="M590.99076,230.61671l0.20328,-0.20328" data-paper-data="{&quot;index&quot;:null}" fill="none" stroke="#cccccc" stroke-width="2" stroke-linecap="round"/><path d="M546.26956,170.98842l0.20328,-0.20328" data-paper-data="{&quot;index&quot;:null}" fill="none" stroke="#cccccc" stroke-width="2" stroke-linecap="round"/><path d="M509.20516,214.82875l-0.20327,0.20328" data-paper-data="{&quot;index&quot;:null}" fill="none" stroke="#cccccc" stroke-width="2" stroke-linecap="round"/><path d="M558.66951,151.81249l-0.20327,0.20327" data-paper-data="{&quot;index&quot;:null}" fill="none" stroke="#cccccc" stroke-width="2" stroke-linecap="round"/><path d="M578.99734,174.8507l-0.20328,0.20327" data-paper-data="{&quot;index&quot;:null}" fill="none" stroke="#cccccc" stroke-width="2" stroke-linecap="round"/><path d="M506.4948,183.65943l-0.20328,0.20328" data-paper-data="{&quot;index&quot;:null}" fill="none" stroke="#cccccc" stroke-width="2" stroke-linecap="round"/><path d="M489.63061,107.09893c9.69266,0 18.47563,3.60178 24.8353,9.42007c6.35991,5.81864 10.29658,13.85412 10.29658,22.72186c0,8.86778 -3.93666,16.90326 -10.29658,22.72189c-6.35966,5.81829 -15.14262,9.42003 -24.83529,9.42003c-9.69261,0 -18.47558,-3.60174 -24.83529,-9.42003c-6.35992,-5.81863 -10.29658,-13.85411 -10.29658,-22.72189c0,-8.86774 3.93666,-16.90322 10.29658,-22.72186c6.35972,-5.81828 15.14269,-9.42007 24.8353,-9.42007z" data-paper-data="{&quot;index&quot;:null}" fill="url(#color-1)" stroke="none" stroke-width="0.55092" stroke-linecap="butt"/><path d="M524.73969,238.69684h-70.26375v-98.16992h70.26375z" data-paper-data="{&quot;index&quot;:null}" fill="url(#color-2)" stroke="none" stroke-width="1.16723" stroke-linecap="butt"/><path d="M498.35066,131.1073c0.91189,0 1.5953,-0.04197 2.19295,1.732c0.59838,1.77397 0.96842,4.22336 0.96842,6.92703c0,2.70368 -0.37004,5.15306 -0.96842,6.92703c-0.59765,1.77397 -1.42363,1.87457 -2.33552,1.87457c-0.91189,0 -1.73788,-0.1006 -2.33552,-1.87457c-0.59838,-1.77397 -0.96842,-4.22336 -0.96842,-6.92703c0,-2.70368 0.37004,-5.15306 0.96842,-6.92703c0.59764,-1.77397 1.56619,-1.732 2.47808,-1.732z" data-paper-data="{&quot;index&quot;:null}" fill="#000000" stroke="none" stroke-width="1" stroke-linecap="butt"/><path d="M483.29325,132.69672c0.59838,1.77397 0.96842,4.22336 0.96842,6.92703c0,2.70368 -0.37004,5.15306 -0.96842,6.92703c-0.59764,1.77398 -1.42362,1.87457 -2.33551,1.87457c-0.91189,0 -1.73789,-0.1006 -2.33553,-1.87457c-0.59838,-1.77397 -0.96842,-4.22336 -0.96842,-6.92703c0,-2.70368 0.37004,-5.15306 0.96842,-6.92703c0.59764,-1.77397 1.5662,-1.73201 2.47809,-1.73201c0.91189,0 1.5953,-0.04196 2.19295,1.73201z" data-paper-data="{&quot;index&quot;:null}" fill="#000000" stroke="none" stroke-width="1" stroke-linecap="butt"/><path d="M572.04069,111.16856c9.69266,0 18.47564,3.60178 24.8353,9.42007c6.35991,5.81863 10.29658,13.85411 10.29658,22.72185c0,8.86778 -3.93666,16.90327 -10.29658,22.7219c-6.35966,5.81829 -15.14262,9.42002 -24.83529,9.42002c-9.69261,0 -18.47558,-3.60173 -24.83529,-9.42002c-6.35991,-5.81863 -10.29658,-13.85412 -10.29658,-22.7219c0,-8.86773 3.93666,-16.90321 10.29658,-22.72185c6.35971,-5.81827 15.14268,-9.42007 24.83529,-9.42007z" data-paper-data="{&quot;index&quot;:null}" fill="url(#color-3)" stroke="none" stroke-width="0.55092" stroke-linecap="butt"/><path d="M607.14976,242.76647h-70.26375v-98.16992h70.26376z" data-paper-data="{&quot;index&quot;:null}" fill="url(#color-4)" stroke="none" stroke-width="1.16723" stroke-linecap="butt"/><path d="M580.76073,135.17693c0.91189,0 1.5953,-0.04196 2.19295,1.73201c0.59838,1.77397 0.96842,4.22336 0.96842,6.92703c0,2.70367 -0.37004,5.15305 -0.96842,6.92702c-0.59765,1.77396 -1.42364,1.87457 -2.33552,1.87457c-0.91189,0 -1.73788,-0.1006 -2.33552,-1.87457c-0.59839,-1.77397 -0.96843,-4.22335 -0.96843,-6.92702c0,-2.70368 0.37005,-5.15306 0.96843,-6.92703c0.59764,-1.77397 1.5662,-1.73201 2.47808,-1.73201z" data-paper-data="{&quot;index&quot;:null}" fill="#000000" stroke="none" stroke-width="1" stroke-linecap="butt"/><path d="M563.51038,135.03435c0.91189,0 1.5953,-0.04197 2.19295,1.732c0.59838,1.77397 0.96842,4.22336 0.96842,6.92703c0,2.70368 -0.37004,5.15306 -0.96842,6.92703c-0.59765,1.77398 -1.42364,1.87457 -2.33552,1.87457c-0.91189,0 -1.73789,-0.1006 -2.33553,-1.87457c-0.59838,-1.77397 -0.96842,-4.22336 -0.96842,-6.92703c0,-2.70368 0.37004,-5.15306 0.96842,-6.92703c0.59764,-1.77397 1.56621,-1.732 2.47809,-1.732z" data-paper-data="{&quot;index&quot;:null}" fill="#000000" stroke="none" stroke-width="1" stroke-linecap="butt"/></g><path d="" data-paper-data="{&quot;origPos&quot;:null}" fill="#00a838" stroke="none" stroke-width="0.55092" stroke-linecap="butt"/><g><path d="M256.47314,155.0092l-0.20328,0.20328" data-paper-data="{&quot;index&quot;:null}" fill="none" stroke="#cccccc" stroke-width="2" stroke-linecap="round"/><path d="M339.61392,120.65518l0.20327,-0.20328" data-paper-data="{&quot;index&quot;:null}" fill="none" stroke="#cccccc" stroke-width="2" stroke-linecap="round"/><path d="M425.19404,221.41343l-0.20328,0.20328" data-paper-data="{&quot;index&quot;:null}" fill="none" stroke="#cccccc" stroke-width="2" stroke-linecap="round"/><path d="M380.26956,161.98842l0.20328,-0.20328" data-paper-data="{&quot;index&quot;:null}" fill="none" stroke="#cccccc" stroke-width="2" stroke-linecap="round"/><path d="M343.20516,205.82875l-0.20327,0.20328" data-paper-data="{&quot;index&quot;:null}" fill="none" stroke="#cccccc" stroke-width="2" stroke-linecap="round"/><path d="M295.57032,182.31623l0.20327,-0.20327" data-paper-data="{&quot;index&quot;:null}" fill="none" stroke="#cccccc" stroke-width="2" stroke-linecap="round"/><path d="M244.27645,208.53912l-0.20328,0.20328" data-paper-data="{&quot;index&quot;:null}" fill="none" stroke="#cccccc" stroke-width="2" stroke-linecap="round"/><path d="M167.70834,139.42454l-0.20328,0.20327" data-paper-data="{&quot;index&quot;:null}" fill="none" stroke="#cccccc" stroke-width="2" stroke-linecap="round"/><path d="M308.64788,123.83988l-0.20328,0.20327" data-paper-data="{&quot;index&quot;:null}" fill="none" stroke="#cccccc" stroke-width="2" stroke-linecap="round"/><path d="M392.66951,142.81249l-0.20327,0.20327" data-paper-data="{&quot;index&quot;:null}" fill="none" stroke="#cccccc" stroke-width="2" stroke-linecap="round"/><path d="M412.99734,165.8507l-0.20328,0.20327" data-paper-data="{&quot;index&quot;:null}" fill="none" stroke="#cccccc" stroke-width="2" stroke-linecap="round"/><path d="M340.4948,174.65943l-0.20328,0.20328" data-paper-data="{&quot;index&quot;:null}" fill="none" stroke="#cccccc" stroke-width="2" stroke-linecap="round"/><path d="M242.75005,193.60532l0.1495,-0.1495" data-paper-data="{&quot;index&quot;:null}" fill="none" stroke="#cccccc" stroke-width="2" stroke-linecap="round"/><path d="M210.01014,197.44243l-0.1495,0.1495" data-paper-data="{&quot;index&quot;:null}" fill="none" stroke="#cccccc" stroke-width="2" stroke-linecap="round"/><path d="M242.03121,141.65213c9.69266,0 18.47563,3.60178 24.8353,9.42007c6.35991,5.81864 10.29658,13.85411 10.29658,22.72185c0,8.86778 -3.93666,16.90327 -10.29658,22.7219c-6.35966,5.81829 -15.14262,9.42002 -24.83529,9.42002c-9.69261,0 -18.47558,-3.60173 -24.83529,-9.42002c-6.35991,-5.81863 -10.29658,-13.85412 -10.29658,-22.7219c0,-8.86774 3.93666,-16.90321 10.29658,-22.72185c6.35971,-5.81827 15.14268,-9.42007 24.83529,-9.42007z" data-paper-data="{&quot;index&quot;:null}" fill="url(#color-5)" stroke="none" stroke-width="0.55092" stroke-linecap="butt"/><path d="M277.14028,244.81714h-70.26375v-71.23347h70.26375z" data-paper-data="{&quot;index&quot;:null}" fill="url(#color-6)" stroke="none" stroke-width="1.16723" stroke-linecap="butt"/><path d="M250.75124,165.6605c0.91188,0 1.5953,-0.04197 2.19295,1.732c0.59838,1.77397 0.96842,4.22336 0.96842,6.92703c0,2.70368 -0.37004,5.15306 -0.96842,6.92703c-0.59764,1.77397 -1.42363,1.87457 -2.33552,1.87457c-0.91189,0 -1.73788,-0.1006 -2.33552,-1.87457c-0.59838,-1.77397 -0.96842,-4.22336 -0.96842,-6.92703c0,-2.70368 0.37004,-5.15306 0.96842,-6.92703c0.59765,-1.77397 1.56619,-1.732 2.47808,-1.732z" data-paper-data="{&quot;index&quot;:null}" fill="#000000" stroke="none" stroke-width="1" stroke-linecap="butt"/><path d="M235.69383,167.24992c0.59839,1.77397 0.96843,4.22336 0.96843,6.92703c0,2.70368 -0.37006,5.15306 -0.96843,6.92703c-0.59765,1.77398 -1.42364,1.87457 -2.33552,1.87457c-0.91189,0 -1.73788,-0.1006 -2.33552,-1.87457c-0.59838,-1.77397 -0.96842,-4.22336 -0.96842,-6.92703c0,-2.70368 0.37005,-5.15306 0.96842,-6.92703c0.59765,-1.77397 1.56621,-1.732 2.47809,-1.732c0.91188,0 1.5953,-0.04197 2.19295,1.732z" data-paper-data="{&quot;index&quot;:null}" fill="#000000" stroke="none" stroke-width="1" stroke-linecap="butt"/><path d="M323.63061,98.09893c9.69266,0 18.47563,3.60178 24.8353,9.42007c6.35991,5.81864 10.29658,13.85412 10.29658,22.72186c0,8.86778 -3.93666,16.90326 -10.29658,22.72189c-6.35966,5.81829 -15.14262,9.42003 -24.83529,9.42003c-9.69261,0 -18.47558,-3.60174 -24.83529,-9.42003c-6.35992,-5.81863 -10.29658,-13.85411 -10.29658,-22.72189c0,-8.86774 3.93666,-16.90322 10.29658,-22.72186c6.35972,-5.81828 15.14269,-9.42007 24.8353,-9.42007z" data-paper-data="{&quot;index&quot;:null}" fill="url(#color-7)" stroke="none" stroke-width="0.55092" stroke-linecap="butt"/><path d="M358.73969,229.69684h-70.26375v-98.16992h70.26375z" data-paper-data="{&quot;index&quot;:null}" fill="url(#color-8)" stroke="none" stroke-width="1.16723" stroke-linecap="butt"/><path d="M332.35066,122.1073c0.91189,0 1.5953,-0.04197 2.19295,1.732c0.59838,1.77397 0.96842,4.22336 0.96842,6.92703c0,2.70368 -0.37004,5.15306 -0.96842,6.92703c-0.59765,1.77397 -1.42363,1.87457 -2.33552,1.87457c-0.91189,0 -1.73788,-0.1006 -2.33552,-1.87457c-0.59838,-1.77397 -0.96842,-4.22336 -0.96842,-6.92703c0,-2.70368 0.37004,-5.15306 0.96842,-6.92703c0.59764,-1.77397 1.56619,-1.732 2.47808,-1.732z" data-paper-data="{&quot;index&quot;:null}" fill="#000000" stroke="none" stroke-width="1" stroke-linecap="butt"/><path d="M317.29325,123.69672c0.59838,1.77397 0.96842,4.22336 0.96842,6.92703c0,2.70368 -0.37004,5.15306 -0.96842,6.92703c-0.59764,1.77398 -1.42362,1.87457 -2.33551,1.87457c-0.91189,0 -1.73789,-0.1006 -2.33553,-1.87457c-0.59838,-1.77397 -0.96842,-4.22336 -0.96842,-6.92703c0,-2.70368 0.37004,-5.15306 0.96842,-6.92703c0.59764,-1.77397 1.5662,-1.73201 2.47809,-1.73201c0.91189,0 1.5953,-0.04196 2.19295,1.73201z" data-paper-data="{&quot;index&quot;:null}" fill="#000000" stroke="none" stroke-width="1" stroke-linecap="butt"/><path d="M406.04069,102.16856c9.69266,0 18.47564,3.60178 24.8353,9.42007c6.35991,5.81863 10.29658,13.85411 10.29658,22.72185c0,8.86778 -3.93666,16.90327 -10.29658,22.7219c-6.35966,5.81829 -15.14262,9.42002 -24.83529,9.42002c-9.69261,0 -18.47558,-3.60173 -24.83529,-9.42002c-6.35991,-5.81863 -10.29658,-13.85412 -10.29658,-22.7219c0,-8.86773 3.93666,-16.90321 10.29658,-22.72185c6.35971,-5.81827 15.14268,-9.42007 24.83529,-9.42007z" data-paper-data="{&quot;index&quot;:null}" fill="url(#color-9)" stroke="none" stroke-width="0.55092" stroke-linecap="butt"/><path d="M441.14976,233.76647h-70.26375v-98.16992h70.26376z" data-paper-data="{&quot;index&quot;:null}" fill="url(#color-10)" stroke="none" stroke-width="1.16723" stroke-linecap="butt"/><path d="M414.76073,126.17693c0.91189,0 1.5953,-0.04196 2.19295,1.73201c0.59838,1.77397 0.96842,4.22336 0.96842,6.92703c0,2.70367 -0.37004,5.15305 -0.96842,6.92702c-0.59765,1.77396 -1.42364,1.87457 -2.33552,1.87457c-0.91189,0 -1.73788,-0.1006 -2.33552,-1.87457c-0.59839,-1.77397 -0.96843,-4.22335 -0.96843,-6.92702c0,-2.70368 0.37005,-5.15306 0.96843,-6.92703c0.59764,-1.77397 1.5662,-1.73201 2.47808,-1.73201z" data-paper-data="{&quot;index&quot;:null}" fill="#000000" stroke="none" stroke-width="1" stroke-linecap="butt"/><path d="M397.51038,126.03435c0.91189,0 1.5953,-0.04197 2.19295,1.732c0.59838,1.77397 0.96842,4.22336 0.96842,6.92703c0,2.70368 -0.37004,5.15306 -0.96842,6.92703c-0.59765,1.77398 -1.42364,1.87457 -2.33552,1.87457c-0.91189,0 -1.73789,-0.1006 -2.33553,-1.87457c-0.59838,-1.77397 -0.96842,-4.22336 -0.96842,-6.92703c0,-2.70368 0.37004,-5.15306 0.96842,-6.92703c0.59764,-1.77397 1.56621,-1.732 2.47809,-1.732z" data-paper-data="{&quot;index&quot;:null}" fill="#000000" stroke="none" stroke-width="1" stroke-linecap="butt"/><path d="M185.34487,126.16809c6.35992,5.81863 10.29658,13.85411 10.29658,22.72185c0,8.86778 -3.93666,16.90327 -10.29658,22.7219c-6.35967,5.81828 -15.14264,9.42003 -24.8353,9.42003c-9.69262,0 -18.47558,-3.60175 -24.8353,-9.42003c-6.35992,-5.81863 -10.29658,-13.85412 -10.29658,-22.7219c0,-8.86773 3.93666,-16.90321 10.29658,-22.72185c6.35972,-5.81828 15.14269,-9.42007 24.8353,-9.42007c9.69267,0 18.47563,3.60179 24.8353,9.42007z" data-paper-data="{&quot;index&quot;:null}" fill="url(#color-11)" stroke="none" stroke-width="0.55092" stroke-linecap="butt"/><path d="M195.61861,248.34591h-70.26375v-98.16992h70.26376z" data-paper-data="{&quot;index&quot;:null}" fill="url(#color-12)" stroke="none" stroke-width="1.16723" stroke-linecap="butt"/><path d="M169.2296,140.75633c0.91188,0 1.5953,-0.04197 2.19295,1.73201c0.59839,1.77397 0.96842,4.22336 0.96842,6.92703c0,2.70368 -0.37005,5.15306 -0.96842,6.92703c-0.59764,1.77397 -1.42363,1.87457 -2.33552,1.87457c-0.91188,0 -1.73788,-0.1006 -2.33552,-1.87457c-0.59839,-1.77397 -0.96843,-4.22335 -0.96843,-6.92703c0,-2.70368 0.37006,-5.15306 0.96843,-6.92703c0.59764,-1.77398 1.56619,-1.73201 2.47808,-1.73201z" data-paper-data="{&quot;index&quot;:null}" fill="#000000" stroke="none" stroke-width="1" stroke-linecap="butt"/><path d="M154.17218,142.34581c0.59838,1.77397 0.96842,4.22335 0.96842,6.92703c0,2.70368 -0.37005,5.15306 -0.96842,6.92703c-0.59764,1.77397 -1.42362,1.87456 -2.33551,1.87456c-0.9119,0 -1.73789,-0.10059 -2.33553,-1.87456c-0.59839,-1.77397 -0.96843,-4.22335 -0.96843,-6.92703c0,-2.70368 0.37006,-5.15306 0.96843,-6.92703c0.59765,-1.77397 1.5662,-1.732 2.47809,-1.732c0.91188,0 1.5953,-0.04197 2.19295,1.732z" data-paper-data="{&quot;index&quot;:null}" fill="#000000" stroke="none" stroke-width="1" stroke-linecap="butt"/><path d="M105.88967,104.55627c6.35991,5.81864 10.29657,13.85411 10.29657,22.72185c0,8.86778 -3.93665,16.90327 -10.29657,22.7219c-6.35967,5.81828 -15.14264,9.42003 -24.8353,9.42003c-9.69262,0 -18.47558,-3.60175 -24.8353,-9.42003c-6.35992,-5.81863 -10.29658,-13.85412 -10.29658,-22.7219c0,-8.86774 3.93666,-16.90321 10.29658,-22.72185c6.35972,-5.81827 15.14269,-9.42007 24.8353,-9.42007c9.69267,0 18.47563,3.60179 24.8353,9.42007z" data-paper-data="{&quot;index&quot;:null}" fill="url(#color-13)" stroke="none" stroke-width="0.55092" stroke-linecap="butt"/><path d="M116.16342,226.73409h-70.26375v-98.16991h70.26375z" data-paper-data="{&quot;index&quot;:null}" fill="url(#color-14)" stroke="none" stroke-width="1.16723" stroke-linecap="butt"/><path d="M89.77439,119.14452c0.91188,0 1.5953,-0.04197 2.19295,1.73201c0.59838,1.77397 0.96842,4.22336 0.96842,6.92703c0,2.70367 -0.37005,5.15305 -0.96842,6.92702c-0.59764,1.77397 -1.42363,1.87458 -2.33552,1.87458c-0.91189,0 -1.73788,-0.10061 -2.33552,-1.87458c-0.59839,-1.77397 -0.96843,-4.22334 -0.96843,-6.92702c0,-2.70368 0.37006,-5.15306 0.96843,-6.92703c0.59765,-1.77398 1.56619,-1.73201 2.47808,-1.73201z" data-paper-data="{&quot;index&quot;:null}" fill="#000000" stroke="none" stroke-width="1" stroke-linecap="butt"/><path d="M74.71698,120.73398c0.59839,1.77397 0.96843,4.22335 0.96843,6.92703c0,2.70368 -0.37006,5.15306 -0.96843,6.92703c-0.59765,1.77397 -1.42363,1.87456 -2.33552,1.87456c-0.91189,0 -1.73788,-0.10059 -2.33552,-1.87456c-0.59838,-1.77397 -0.96842,-4.22335 -0.96842,-6.92703c0,-2.70368 0.37005,-5.15306 0.96842,-6.92703c0.59765,-1.77397 1.5662,-1.732 2.47809,-1.732c0.91188,0 1.5953,-0.04197 2.19295,1.732z" data-paper-data="{&quot;index&quot;:null}" fill="#000000" stroke="none" stroke-width="1" stroke-linecap="butt"/></g><g fill="#00a838" stroke="none" stroke-linecap="butt"><g><path d="M361.74071,155.9692c14.56338,0 27.76002,5.56373 37.31565,14.5513c9.55593,8.98811 15.47087,21.40061 15.47087,35.0987c0,13.69816 -5.91494,26.11067 -15.47087,35.09878c-9.55563,8.98757 -22.75226,14.55122 -37.31565,14.55122c-14.56346,0 -27.76009,-5.56365 -37.31564,-14.55122c-9.55593,-8.98811 -15.47087,-21.40061 -15.47087,-35.09878c0,-13.69809 5.91494,-26.11059 15.47087,-35.0987c9.55556,-8.98757 22.75218,-14.5513 37.31564,-14.5513z" data-paper-data="{&quot;origPos&quot;:null}" stroke-width="0.55092"/><path d="M308.9885,207.60582h105.57302v85.44419h-105.57301z" data-paper-data="{&quot;origPos&quot;:null}" stroke-width="1.16723"/></g><g data-paper-data="{&quot;origPos&quot;:null}"><path d="M154.74071,189.9692c14.56339,0 27.76001,5.56373 37.31564,14.5513c9.55593,8.98811 15.47087,21.40061 15.47087,35.0987c0,13.69817 -5.91494,26.11067 -15.47087,35.09878c-9.55563,8.98757 -22.75226,14.55122 -37.31564,14.55122c-14.56346,0 -27.76009,-5.56365 -37.31565,-14.55122c-9.55593,-8.98811 -15.47087,-21.40061 -15.47087,-35.09878c0,-13.69809 5.91494,-26.11059 15.47087,-35.0987c9.55555,-8.98757 22.75219,-14.5513 37.31565,-14.5513z" data-paper-data="{&quot;origPos&quot;:null}" stroke-width="0.55092"/><path d="M101.9885,241.60582h105.57302v85.02211c-13.50255,0 -27.00511,0 -40.50766,0c0,0 -1.21226,0 -2.79263,0.42208h-62.27272z" data-paper-data="{&quot;origPos&quot;:null}" stroke-width="1.16723"/></g><g data-paper-data="{&quot;origPos&quot;:null}"><path d="M257.74071,179.9692c14.56339,0 27.76001,5.56373 37.31564,14.5513c9.55593,8.98811 15.47087,21.40061 15.47087,35.0987c0,13.69817 -5.91494,26.11067 -15.47087,35.09878c-9.55563,8.98757 -22.75226,14.55122 -37.31564,14.55122c-14.56346,0 -27.76009,-5.56365 -37.31565,-14.55122c-9.55593,-8.98811 -15.47087,-21.40061 -15.47087,-35.09878c0,-13.69809 5.91494,-26.11059 15.47087,-35.0987c9.55555,-8.98757 22.75219,-14.5513 37.31565,-14.5513z" data-paper-data="{&quot;origPos&quot;:null}" stroke-width="0.55092"/><path d="M204.9885,231.60582h105.57302v85.44419h-105.57301z" data-paper-data="{&quot;origPos&quot;:null}" stroke-width="1.16723"/></g><g data-paper-data="{&quot;origPos&quot;:null}"><path d="M50.74071,139.9692c14.56339,0 27.76001,5.56373 37.31564,14.5513c9.55593,8.98811 15.47087,21.40061 15.47087,35.0987c0,13.69816 -5.91493,26.11067 -15.47087,35.09878c-9.55563,8.98757 -22.75226,14.55122 -37.31564,14.55122c-14.56346,0 -27.76009,-5.56365 -37.31565,-14.55122c-9.55593,-8.98811 -15.47086,-21.40061 -15.47086,-35.09878c0,-13.69809 5.91494,-26.11059 15.47087,-35.0987c9.55556,-8.98757 22.75219,-14.5513 37.31565,-14.5513z" data-paper-data="{&quot;origPos&quot;:null}" stroke-width="0.55092"/><path d="M-2.0115,191.60582h105.57302v85.44419h-105.57301z" data-paper-data="{&quot;origPos&quot;:null}" stroke-width="1.16723"/></g><g><path d="M464.74071,190.9692c14.56339,0 27.76001,5.56373 37.31564,14.5513c9.55593,8.98811 15.47087,21.40061 15.47087,35.0987c0,13.69817 -5.91494,26.11067 -15.47087,35.09878c-9.55563,8.98757 -22.75226,14.55122 -37.31564,14.55122c-14.56346,0 -27.76009,-5.56365 -37.31565,-14.55122c-9.55593,-8.98811 -15.47087,-21.40061 -15.47087,-35.09878c0,-13.69809 5.91494,-26.11059 15.47087,-35.0987c9.55555,-8.98757 22.75219,-14.5513 37.31565,-14.5513z" data-paper-data="{&quot;origPos&quot;:null}" stroke-width="0.55092"/><path d="M411.9885,242.60582h105.57302v85.02211c-13.50255,0 -27.00511,0 -40.50766,0c0,0 -1.21226,0 -2.79263,0.42208h-62.27272z" data-paper-data="{&quot;origPos&quot;:null}" stroke-width="1.16723"/></g><g><path d="M568.74071,139.9692c14.56338,0 27.76002,5.56373 37.31565,14.5513c9.55593,8.98811 15.47087,21.40061 15.47087,35.0987c0,13.69816 -5.91494,26.11067 -15.47087,35.09878c-9.55563,8.98757 -22.75226,14.55122 -37.31565,14.55122c-14.56346,0 -27.76009,-5.56365 -37.31564,-14.55122c-9.55593,-8.98811 -15.47087,-21.40061 -15.47087,-35.09878c0,-13.69809 5.91494,-26.11059 15.47087,-35.0987c9.55556,-8.98757 22.75218,-14.5513 37.31564,-14.5513z" data-paper-data="{&quot;origPos&quot;:null}" stroke-width="0.55092"/><path d="M515.9885,191.60582h105.57302v85.44419h-105.57301z" data-paper-data="{&quot;origPos&quot;:null}" stroke-width="1.16723"/></g><g><path d="M-53.25929,164.9692c14.56339,0 27.76001,5.56373 37.31564,14.5513c9.55593,8.98811 15.47087,21.40061 15.47087,35.0987c0,13.69816 -5.91493,26.11067 -15.47087,35.09878c-9.55563,8.98757 -22.75226,14.55122 -37.31564,14.55122c-14.56346,0 -27.76009,-5.56365 -37.31565,-14.55122c-9.55593,-8.98811 -15.47086,-21.40061 -15.47086,-35.09878c0,-13.69809 5.91494,-26.11059 15.47087,-35.0987c9.55556,-8.98757 22.75219,-14.5513 37.31565,-14.5513z" data-paper-data="{&quot;origPos&quot;:null}" stroke-width="0.55092"/><path d="M-106.0115,216.60582h105.57302v85.44419h-105.57301z" data-paper-data="{&quot;origPos&quot;:null}" stroke-width="1.16723"/></g></g><g fill="#00c642" stroke="none" stroke-width="0.55092" stroke-linecap="butt"><path d="M122.88009,249.9692c17.91255,0 34.14402,5.30161 45.89717,13.86578c11.75352,8.56468 19.02872,20.39243 19.02872,33.4452c0,13.05284 -8.7767,27.88358 -20.53022,36.44827c-1.39212,1.01439 -94.72706,1.14531 -96.29883,0c-11.75352,-8.56468 -13.02271,-23.39543 -13.02271,-36.44828c0,-13.05277 7.2752,-24.88052 19.02872,-33.4452c11.75306,-8.56417 27.98453,-13.86578 45.89716,-13.86578z" data-paper-data="{&quot;origPos&quot;:null}"/><path d="M273.77726,279.83498c11.75352,8.56468 19.02872,20.39243 19.02872,33.4452c0,7.33404 -2.29679,14.28131 -6.39425,20.48032c-11.74394,-0.45103 -23.53942,-0.13257 -35.2888,-0.13257c-23.02302,0 -67.06707,0 -90.09009,0c0,0 1.92138,-10.99921 1.92138,-20.34775c0,-13.05277 7.2752,-24.88052 19.02872,-33.4452c11.75305,-8.56417 27.98452,-13.86577 45.89715,-13.86578h0.00002c17.91253,0 34.144,5.30161 45.89715,13.86578z" data-paper-data="{&quot;origPos&quot;:null}"/><path d="M336.88009,258.9692c17.91255,0 34.14401,5.30161 45.89716,13.86578c11.75352,8.56468 19.02872,20.39243 19.02872,33.4452c0,10.83123 -5.00946,20.8189 -13.43031,28.79858c-4.71127,0.02641 -9.42167,0.05067 -14.1296,0.05067c-27.33307,0 -88.45215,0.10375 -90.28525,0.04927c-7.55873,-7.73386 -12.0066,-18.69244 -12.0066,-28.89852c0,-13.05277 7.2752,-24.88052 19.02872,-33.4452c11.75306,-8.56417 27.98453,-13.86578 45.89717,-13.86578z" data-paper-data="{&quot;origPos&quot;:null}"/><path d="M456.88009,268.9692c16.96881,0 32.42901,4.75769 44.0026,12.53961c0,17.21884 0,34.73577 0,52.24007c-27.67725,0.26799 -97.285,1.25554 -103.61845,1.28297c-3.41621,-5.75119 -5.31005,-12.09198 -5.31005,-18.75167c0,-13.05277 7.2752,-24.88052 19.02872,-33.4452c11.75306,-8.56417 27.98453,-13.86578 45.89717,-13.86578z" data-paper-data="{&quot;origPos&quot;:null}"/><path d="M20.8801,249.96919c17.91263,0 34.1441,5.30161 45.89716,13.86578c11.75352,8.56468 19.02872,20.39243 19.02872,33.4452c0,13.05285 -1.26919,27.8836 -13.02271,36.44828c-1.57177,1.14531 -94.90671,1.01439 -96.29883,0c-11.75352,-8.56469 -20.53022,-23.39543 -20.53022,-36.44827c0,-13.05277 7.2752,-24.88052 19.02872,-33.4452c11.75315,-8.56417 27.98462,-13.86578 45.89717,-13.86578z" data-paper-data="{&quot;index&quot;:null}"/><path d="M-60.1199,257.96919c17.91263,0 34.1441,5.30161 45.89716,13.86578c11.75352,8.56468 19.02872,20.39243 19.02872,33.4452c0,13.05285 -1.26919,27.8836 -13.02271,36.44828c-1.57177,1.14531 -94.90671,1.01439 -96.29883,0c-11.75352,-8.56469 -20.53022,-23.39543 -20.53022,-36.44827c0,-13.05277 7.2752,-24.88052 19.02872,-33.4452c11.75315,-8.56417 27.98462,-13.86578 45.89717,-13.86578z" data-paper-data="{&quot;index&quot;:null}"/><path d="M538.8801,258.96919c17.91263,0 34.1441,5.30161 45.89716,13.86578c11.75352,8.56468 19.02872,20.39243 19.02872,33.4452c0,13.05285 -1.26919,27.8836 -13.02271,36.44828c-1.57177,1.14531 -94.90671,1.01439 -96.29883,0c-11.75352,-8.56469 -20.53022,-23.39543 -20.53022,-36.44827c0,-13.05277 7.2752,-24.88052 19.02872,-33.4452c11.75315,-8.56417 27.98462,-13.86578 45.89717,-13.86578z" data-paper-data="{&quot;index&quot;:null}"/></g><path d="M-99.24213,378.68834v-390h124v390z" fill="#77664c" stroke="#735d3f" stroke-width="1" stroke-linecap="butt"/><path d="M-14.32743,-2.75c8.75,0 8.75,8.75 8.75,8.75v3c0,5.13728 0.31753,10.43172 -0.01691,15.54371c-0.17544,2.68168 -0.84207,5.31723 -1,8c-0.41032,6.97028 -0.19758,13.99483 -1.10601,20.91783c-0.95033,7.24227 -2.8856,14.59992 -2.99006,21.94006c-1.641,5.02685 -2.21268,9.05767 -7.50826,12.31306c-2.04558,1.2575 -4.74002,0.79117 -7.12875,1.03535c-4.89225,0.50008 -10.08884,0 -15,0c-6.18907,0 -12.70101,0.49893 -18.8622,-0.04259c-1.69315,-0.14881 -3.30785,-0.84019 -5,-1c-3.71909,-0.35123 -7.49505,0.39795 -11.2069,-0.02298c-2.73123,-0.30972 -5.28225,-1.5884 -8,-2c-2.08709,-0.31609 -4.24985,0.2968 -6.33249,-0.04742c-1.50139,-0.24815 -2.91026,-0.89069 -4.3654,-1.33604c0,0 -8.30098,-2.76699 -5.53398,-11.06797c2.767,-8.30098 11.06797,-5.53399 11.06797,-5.53399c2.61288,1.06133 4.34316,0.20743 7.30211,0.61654c2.72284,0.37646 5.26699,1.70645 8,2c3.57713,0.38422 7.20921,-0.33797 10.7931,-0.02298c1.69315,0.14881 3.30786,0.84019 5,1c3.69618,0.34907 7.42517,-0.04259 11.1378,-0.04259c5,0 10,0 15,0c1.11832,0 2.3148,-0.30273 3.45833,-0.40037c0.19174,-1.64547 0.62098,-3.2762 0.85722,-4.91873c0.73092,-5.08201 1.3658,-10.29401 2.05737,-15.39243c0.8559,-6.30992 0.52034,-12.72544 0.89399,-19.08217c0.15769,-2.68279 0.81766,-5.31877 1,-8c0.32299,-4.74962 -0.01691,-9.68384 -0.01691,-14.45629v-3c0,0 0,-8.75 8.75,-8.75z" fill="#8b8064" stroke="none" stroke-width="0.5" stroke-linecap="butt"/><path d="M-80.07743,233v-2c0,-17.13898 -1.59207,-35.20112 1.06556,-52.0691c0.35242,-2.23679 -0.26873,-4.5421 -0.02298,-6.7931c0.21566,-1.97539 0.75156,-3.90254 1.12734,-5.85381c0,0 0.27147,-1.35734 1.13832,-2.88431c-2.555,0.55513 -5.11541,1.04643 -7.69604,1.30774c-1.47949,0.14981 -2.98497,-0.25427 -4.46061,-0.0704c-1.046,0.13033 -1.95763,0.84326 -3,1c-0.97891,0.1472 -7.25418,0.11298 -8.40159,0.11298c0,0 -8.75,0 -8.75,-8.75c0,-8.75 8.75,-8.75 8.75,-8.75c12.27912,0 23.99768,-3.81628 36.2783,-4.97019c10.01772,-0.94128 20.0338,-0.36761 30.10143,-1.0078c7.39325,-0.47013 14.2289,-2.02201 21.62028,-2.02201c1.55717,0.11007 3.0547,-0.65489 4.59841,-0.88702c3.32529,-0.50003 6.98301,-0.28929 10.48054,-0.17195c2.35474,-1.27356 6.23149,-2.25497 10.10823,1.62178c6.18718,6.18718 0,12.37437 0,12.37437l-7.18718,3.56282c-3.25115,0 -7.43837,-0.72254 -10.59841,-0.11298c-2.44978,0.47255 -4.90748,1.04896 -7.40159,1.11298c-6.86407,0 -13.44049,1.55128 -20.37972,1.97799c-6.48239,0.39861 -13.2813,-0.63224 -19.75807,-0.02057c-3.38193,0.31939 -6.75643,0.71689 -10.1405,1.01277c-0.46375,0.04055 -0.92679,0.08889 -1.38922,0.14408c4.41671,3.0062 3.2476,8.85175 3.2476,8.85175c-0.8442,4.01093 -0.36876,7.36324 -0.89564,11.35309c-0.17993,1.36254 -0.81637,2.63795 -1,4c-0.67931,5.03854 0.06556,10.84501 0.06556,15.9309c0,10 0,20 0,30v2c0,0 0,4.34264 -3.05933,6.90925c2.55383,-0.49057 5.10112,-0.99536 7.64042,-1.49862c3.25022,-0.64415 6.42647,-1.69597 9.71414,-2.10839c2.42584,-0.3043 4.89556,0.1398 7.33449,-0.03023c9.19274,-0.6409 18.42854,-2.97018 27.55118,-3.95645c4.43444,-0.47942 8.05753,-2.95257 12.66751,-2.95257c1.98845,-0.80769 3.80483,-1.60181 6,-2c0.52017,-0.09436 1.05382,-0.13358 1.58834,-0.16703c1.2891,-1.13171 3.14406,-1.94596 5.81325,-1.94596c8.75,0 8.75,8.75 8.75,8.75l-5.98301,9.30098c-4.57117,1.39901 -8.75271,1.92432 -13.3654,3.33604c-4.72014,0 -8.60129,2.40254 -13.33249,3.04743c-1.38947,0.18939 -2.81278,-0.12843 -4.2069,0.02298c-8.11191,0.88095 -16.05858,3.4228 -24.24193,4.02057c-2.21595,0.16187 -4.46067,-0.30473 -6.66551,-0.03023c-2.81131,0.35 -5.50889,1.33089 -8.28586,1.89161c-15.66454,3.16297 -31.70294,6.16063 -47.66891,6.16063c0,0 -8.75,0 -8.75,-8.75c0,-8.75 8.75,-8.75 8.75,-8.75c9.46847,0 18.94088,-1.19588 28.34634,-2.81248c-6.09634,-1.56078 -6.09634,-8.43752 -6.09634,-8.43752z" fill="#8b8064" stroke="none" stroke-width="0.5" stroke-linecap="butt"/><path d="M-18.07743,320v-2c0,-4.9196 -0.44991,-10.19815 0.06556,-15.0691c0.14463,-1.36674 0.83918,-2.63507 1,-4c0.7859,-6.67014 -0.74586,-13.63147 0.04743,-20.33249c0.12392,-1.04678 0.83505,-1.95889 1,-3c0.34781,-2.19518 -0.3384,-4.46408 -0.04743,-6.66751c0.26201,-1.98413 1.00235,-3.9307 0.93444,-5.9309c0,0 0,-8.75 8.75,-8.75c8.75,0 8.75,8.75 8.75,8.75c-0.04371,2.7127 -0.64331,5.38911 -1.06556,8.0691c-0.38041,2.41443 0.27356,4.90944 -0.04743,7.33249c-0.13843,1.04496 -0.85956,1.9553 -1,3c-0.57653,4.28873 0.13868,9.26044 0.11298,13.59841c-0.01999,3.37505 -0.67063,6.71718 -1.06556,10.0691c-0.48603,4.12507 0.06556,8.75907 0.06556,12.9309v2c0,0 0,5.4256 -4.27236,7.73208c6.04234,0.00143 12.08615,0.20434 18.12076,0.6309l1.6346,-0.66396c0,0 8.30098,-2.76699 11.06797,5.53399c2.76699,8.30098 -5.53399,11.06797 -5.53399,11.06797l-4.3654,1.33604c-17.81166,0.45721 -35.82608,-0.89367 -53.53939,1.0704c-5.78292,0.64122 -11.66751,1.96443 -17.42371,2.92353c-0.13548,0.02257 -8.87934,1.43015 -9.94521,1.75631c-2.84161,0.86954 -5.67561,1.77432 -8.45751,2.81924c-2.89914,1.08896 -5.58532,2.88716 -8.63419,3.43052c-0.77796,0.13865 -6.08399,0.11298 -7.40159,0.11298c0,0 -8.75,0 -8.75,-8.75c0,-8.75 8.75,-8.75 8.75,-8.75c1.53326,0 3.07716,0.30458 4.59841,0.11298c1.96756,-0.2478 3.50866,-1.87402 5.36581,-2.56948c3.13994,-1.17584 6.3268,-2.23148 9.54249,-3.18076c2.42892,-0.71702 9.61649,-1.8372 12.05479,-2.24369c14.59521,-2.4332 29.38884,-4.04358 44.22237,-4.50238c-4.53388,-2.22186 -4.53388,-7.86667 -4.53388,-7.86667z" fill="#8b8064" stroke="none" stroke-width="0.5" stroke-linecap="butt"/><path d="M-5.32743,74.25c8.75,0 8.75,8.75 8.75,8.75v2c0,4.83124 -0.57541,8.90765 -1.02981,13.7217c-0.779,8.25281 0.02981,16.97162 0.02981,25.2783c0,0 0,8.75 -8.75,8.75c-8.75,0 -8.75,-8.75 -8.75,-8.75c0,-8.80723 -0.73997,-17.95981 0.02981,-26.7217c0.40554,-4.61599 0.97019,-7.73474 0.97019,-12.2783v-2c0,0 0,-8.75 8.75,-8.75z" fill="#8b8064" stroke="none" stroke-width="0.5" stroke-linecap="butt"/><path d="M-120.42059,-7.67653l699.60645,-11.90759l-0.53177,382.08186l-696.86107,4.22805z" fill="url(#color-15)" stroke="#0e6e56" stroke-width="0" stroke-linecap="round"/></g></g></svg>