<svg version="1.1" xmlns="http://www.w3.org/2000/svg" xmlns:xlink="http://www.w3.org/1999/xlink" width="649.97936" height="296.62501" viewBox="0,0,649.97936,296.62501"><defs><linearGradient x1="320" y1="66.875" x2="320" y2="143.125" gradientUnits="userSpaceOnUse" id="color-1"><stop offset="0" stop-color="#5ed94b"/><stop offset="1" stop-color="#4ebd3e"/></linearGradient><linearGradient x1="261.9375" y1="86.81633" x2="261.9375" y2="125.93878" gradientUnits="userSpaceOnUse" id="color-2"><stop offset="0" stop-color="#59d047"/><stop offset="1" stop-color="#53c542"/></linearGradient><linearGradient x1="146.08707" y1="241.51561" x2="146.08707" y2="362.00001" gradientUnits="userSpaceOnUse" id="color-3"><stop offset="0" stop-color="#aab0c1"/><stop offset="1" stop-color="#ffffff"/></linearGradient><linearGradient x1="495.75723" y1="241.51561" x2="495.75723" y2="362.00001" gradientUnits="userSpaceOnUse" id="color-4"><stop offset="0" stop-color="#aab0c1"/><stop offset="1" stop-color="#ffffff"/></linearGradient></defs><g transform="translate(3.61351,-65.375)"><g data-paper-data="{&quot;isPaintingLayer&quot;:true}" fill-rule="nonzero" stroke-linejoin="miter" stroke-miterlimit="10" stroke-dasharray="" stroke-dashoffset="0" style="mix-blend-mode: normal"><path d="M212.375,105c0,-38.125 6.98864,-38.125 6.98864,-38.125c25.62501,0 54.04544,0 79.67045,0c40.53409,0 81.06818,0 121.60227,0c0,0 6.98864,0 6.98864,38.125c0,38.125 -6.98864,38.125 -6.98864,38.125c-40.53409,0 -81.06818,0 -121.60227,0c-25.62501,0 -51.24999,0 -76.875,0h-2.79545c0,0 -6.98864,0 -6.98864,-38.125z" data-paper-data="{&quot;origPos&quot;:null}" fill="url(#color-1)" stroke="#4f8f2d" stroke-width="3" stroke-linecap="butt"/><g data-paper-data="{&quot;origPos&quot;:null}" stroke="#4f8f2d" stroke-width="0"><path d="M234.9375,105c0,-14.91169 12.08831,-27 27,-27c14.91169,0 27,12.08831 27,27c0,14.91169 -12.08831,27 -27,27c-14.91169,0 -27,-12.08831 -27,-27z" data-paper-data="{&quot;origPos&quot;:null}" fill="#efefef" stroke-linecap="butt"/><path d="M256.37628,86.81633h10.46939v19.83674h11.07143l-15.42857,19.28571l-16.53061,-18.73469h10.41836z" data-paper-data="{&quot;origPos&quot;:null}" fill="url(#color-2)" stroke-linecap="round"/></g><g data-paper-data="{&quot;origPos&quot;:null}" fill="#efefef" stroke="none" stroke-width="1" stroke-linecap="butt" font-family="Sans Serif" font-weight="normal" font-size="40" text-anchor="start"><text transform="translate(309.4375,91.46577) scale(0.48707,0.45182)" font-size="40" xml:space="preserve" data-paper-data="{&quot;origPos&quot;:null}" fill="#efefef" fill-rule="nonzero" stroke="none" stroke-width="1" stroke-linecap="butt" stroke-linejoin="miter" stroke-miterlimit="10" stroke-dasharray="" stroke-dashoffset="0" font-family="Sans Serif" font-weight="normal" text-anchor="start" style="mix-blend-mode: normal"><tspan x="0" dy="0">Download</tspan></text><text transform="translate(310.89871,106.30574) scale(0.44268,0.41064)" font-size="40" xml:space="preserve" data-paper-data="{&quot;origPos&quot;:null}" fill="#efefef" fill-rule="nonzero" stroke="none" stroke-width="1" stroke-linecap="butt" stroke-linejoin="miter" stroke-miterlimit="10" stroke-dasharray="" stroke-dashoffset="0" font-family="Sans Serif" font-weight="normal" text-anchor="start" style="mix-blend-mode: normal"><tspan x="0" dy="0">100% Legit</tspan></text><text transform="translate(311.25159,118.57491) scale(0.27599,0.25602)" font-size="40" xml:space="preserve" data-paper-data="{&quot;origPos&quot;:null}" fill="#efefef" fill-rule="nonzero" stroke="none" stroke-width="1" stroke-linecap="butt" stroke-linejoin="miter" stroke-miterlimit="10" stroke-dasharray="" stroke-dashoffset="0" font-family="Sans Serif" font-weight="normal" text-anchor="start" style="mix-blend-mode: normal"><tspan x="0" dy="0">Totally not a fake</tspan><tspan x="0" dy="46.150000000000006px">download button!!</tspan></text></g><path d="M-3.61351,362.00001v-120.4844h299.40114c-0.28463,40.16148 -0.5757,80.32293 -0.8627,120.4844z" data-paper-data="{&quot;origPos&quot;:null}" fill="url(#color-3)" stroke="none" stroke-width="NaN" stroke-linecap="butt"/><path d="M646.36585,241.51561v120.4844h-301.21726c0.27695,-40.16153 0.58486,-80.32295 0.88404,-120.4844z" data-paper-data="{&quot;origPos&quot;:null}" fill="url(#color-4)" stroke="none" stroke-width="NaN" stroke-linecap="butt"/></g></g></svg>