<svg version="1.1" xmlns="http://www.w3.org/2000/svg" xmlns:xlink="http://www.w3.org/1999/xlink" width="113.2336" height="113.2336" viewBox="0,0,113.2336,113.2336"><defs><linearGradient x1="240" y1="125.38324" x2="240" y2="234.61681" gradientUnits="userSpaceOnUse" id="color-1"><stop offset="0" stop-color="#3c94ed"/><stop offset="1" stop-color="#337fcc"/></linearGradient></defs><g transform="translate(-183.3832,-123.38323)"><g data-paper-data="{&quot;isPaintingLayer&quot;:true}" fill-rule="nonzero" stroke-linejoin="miter" stroke-miterlimit="10" stroke-dasharray="" stroke-dashoffset="0" style="mix-blend-mode: normal"><path d="M240,125.38324c15.06796,0 28.72396,6.11843 38.60944,16.00735c9.88876,9.88548 16.00736,23.54133 16.00736,38.60945c0,15.06813 -6.11859,28.72396 -16.00736,38.60945c-9.88549,9.88893 -23.54149,16.00735 -38.60944,16.00735c-15.06813,0 -28.72412,-6.11843 -38.60961,-16.00735c-9.88877,-9.88548 -16.00719,-23.54133 -16.00719,-38.60945c0,-15.06813 6.11842,-28.72396 16.00719,-38.60945c9.88548,-9.88893 23.54149,-16.00735 38.60961,-16.00735z" fill="url(#color-1)" stroke="#23568d" stroke-width="4" stroke-linecap="butt"/><g><g data-paper-data="{&quot;index&quot;:null}" stroke-linecap="butt"><g fill="#bba983" stroke="none" stroke-width="0"><path d="M249.50155,216.40423c-0.23215,2.41202 -4.06745,2.57707 -7.77955,2.2198c-1.6299,-0.15687 -3.04467,-0.13375 -4.0416,-0.86258c-1.27358,-0.93108 -1.89776,-2.75135 -1.76756,-4.10431c0.09769,-1.01495 0.75698,-2.43396 1.67454,-3.0941c1.263,-0.90867 3.06135,-0.85791 4.97527,-0.67372c3.30434,0.31803 7.17106,4.1029 6.93891,6.51491z"/><path d="M243.54555,213.18179c0.00503,-3.46067 3.29661,-6.25325 7.35196,-6.23741c4.05533,0.01583 7.33877,2.83413 7.33372,6.2948c-0.00504,3.46068 -3.29663,6.25326 -7.35195,6.23743c-4.05533,-0.01583 -7.33876,-2.83414 -7.33372,-6.29482z"/></g><g><path d="M249.76663,214.56449c-0.2397,2.49057 -4.19991,2.66098 -8.03291,2.29209c-1.68298,-0.16197 -3.14382,-0.13812 -4.1732,-0.89068c-1.31505,-0.9614 -1.95958,-2.84096 -1.82513,-4.23797c0.10086,-1.04801 0.78165,-2.51324 1.72907,-3.19486c1.30414,-0.93825 3.16104,-0.88584 5.13728,-0.69565c3.41196,0.32837 7.40459,4.2365 7.16489,6.72707z" fill="#af2117" stroke="none" stroke-width="0"/><path d="M247.12663,207.25117c-0.12229,1.27069 -2.36406,2.0946 -5.00711,1.84023c-2.64305,-0.25438 -4.68653,-1.49068 -4.56424,-2.76139c0.12229,-1.27069 2.36405,-2.0946 5.00711,-1.84024c2.64305,0.25438 4.68653,1.49071 4.56424,2.76141z" fill="#79140d" stroke="#af2117" stroke-width="1.5"/><path d="M243.61665,211.2371c0.00521,-3.57339 3.40397,-6.45692 7.59138,-6.44055c4.1874,0.01638 7.57776,2.92644 7.57255,6.4998c-0.0052,3.57339 -3.40398,6.45691 -7.59138,6.44055c-4.18741,-0.01637 -7.57775,-2.92642 -7.57256,-6.49982z" fill="#af2117" stroke="none" stroke-width="0"/></g><path d="M238.93545,207.40733l1.45982,-15.16811l6.22266,0.59889l-1.40045,14.55127c0,0 -0.66165,1.12296 -3.0511,0.99289c-1.83963,-0.13572 -3.23093,-0.97494 -3.23093,-0.97494z" fill="#fcdc48" stroke="none" stroke-width="0"/></g><g data-paper-data="{&quot;index&quot;:null}" stroke-linecap="butt"><g fill="#bba983" stroke="none" stroke-width="0"><path d="M237.98118,219.21175c-0.58934,2.35041 -4.40638,1.94146 -8.02365,1.03446c-1.58827,-0.39825 -2.99065,-0.58645 -3.8677,-1.45583c-1.12044,-1.11065 -1.46612,-3.00368 -1.13554,-4.32205c0.24799,-0.98902 1.11159,-2.29381 2.11737,-2.80967c1.38442,-0.7101 3.15507,-0.39165 5.02011,0.076c3.21992,0.80739 6.47876,5.1267 5.88941,7.47713z"/><path d="M232.57253,215.13687c0.52122,-3.4212 4.19255,-5.69152 8.20015,-5.0709c4.00759,0.6206 6.83387,3.89716 6.31265,7.31837c-0.52122,3.4212 -4.19254,5.69153 -8.20015,5.07092c-4.00759,-0.6206 -6.83388,-3.89718 -6.31264,-7.31838z"/></g><g><path d="M238.51768,217.43211c-0.60854,2.42694 -4.54987,2.00468 -8.28495,1.06815c-1.64,-0.41122 -3.08804,-0.60555 -3.99365,-1.50325c-1.15692,-1.14682 -1.51384,-3.10149 -1.17249,-4.46281c0.25607,-1.02124 1.14779,-2.36852 2.18631,-2.90118c1.4295,-0.73321 3.25782,-0.40439 5.18356,0.07848c3.3248,0.83367 6.68975,5.29367 6.08122,7.72062z" fill="#e63427" stroke="none" stroke-width="0"/><path d="M236.99817,209.8068c-0.31049,1.23824 -2.65005,1.71851 -5.22559,1.07271c-2.57554,-0.6458 -4.41173,-2.17314 -4.10124,-3.41137c0.31049,-1.23824 2.65005,-1.71851 5.2256,-1.0727c2.57554,0.6458 4.41173,2.17313 4.10124,3.41136z" fill="#79140d" stroke="#e63427" stroke-width="1.5"/><path d="M232.93288,213.22453c0.5382,-3.53263 4.32908,-5.8769 8.46721,-5.23605c4.13812,0.64084 7.05643,4.02409 6.51823,7.55671c-0.53818,3.53263 -4.32909,5.87689 -8.46719,5.23606c-4.13812,-0.64084 -7.05643,-4.02409 -6.51823,-7.55672z" fill="#e63427" stroke="none" stroke-width="0"/></g><path d="M232.58158,193.95868l6.0637,1.52044l-3.55546,14.17955c0,0 -0.5811,0.97817 -3.08355,0.46734c-2.43593,-0.63486 -3.10682,-1.51078 -3.10682,-1.51078z" fill="#fcdc48" stroke="none" stroke-width="0"/></g><path d="M226.22492,206.92904c-1.6567,0.78287 -5.50184,0.85688 -5.50184,0.85688c0,0 2.99104,-3.04476 4.13381,-4.76684c0.92005,-1.38646 2.20065,-4.77876 2.20065,-4.77876l3.42816,4.93234c0,0 -2.66563,3.0026 -4.26079,3.75638z" fill="#d2a31f" stroke="#000000" stroke-width="0" stroke-linecap="round"/><g data-paper-data="{&quot;index&quot;:null}"><path d="M239.17141,175.70054c2.00091,0.2801 3.57159,4.91109 3.57159,4.91109l4.06864,5.03362l1.47069,-0.7116l1.89207,0.25455l2.5028,1.78326l2.41972,3.03961l-0.02504,1.35723l-1.35462,0.91341l-0.68851,1.60458l-2.10379,1.4786l-1.00638,1.51884l-1.9046,0.42405l-1.92245,-0.77423l-2.61161,-4.54062l-0.10619,-1.81889l-3.2408,-4.41435l-2.31029,-4.99552c0,0 -0.65213,-5.34374 1.34877,-5.06364z" data-paper-data="{&quot;origPos&quot;:null}" fill="#d2a31f" stroke="#000000" stroke-width="0" stroke-linecap="round"/><path d="M250.999,195.08586c-0.38939,0.62387 -1.01291,0.27156 -1.01291,0.27156l-0.0607,-0.13781c-0.69824,-0.1693 -1.12549,-0.41715 -1.66531,-0.84741c0,0 -0.55659,-0.44365 -0.07637,-1.00625c0.48023,-0.56262 1.03682,-0.11898 1.03682,-0.11898c0.44643,0.35583 0.60622,0.45689 1.11857,0.5811l0.42579,0.28157c0,0 0.62352,0.35232 0.23412,0.9762z" data-paper-data="{&quot;origPos&quot;:null}" fill="#996c1c" stroke="none" stroke-width="0.5" stroke-linecap="butt"/><path d="M253.28875,192.29638c-0.39598,0.61244 -1.00782,0.28046 -1.00782,0.28046l-0.05785,-0.13285c-0.68885,-0.15298 -1.10797,-0.38669 -1.63559,-0.79574c0,0 -0.54403,-0.42177 -0.05909,-0.97619c0.48492,-0.55442 1.02896,-0.13264 1.02896,-0.13264c0.43634,0.3383 0.59295,0.43382 1.09843,0.54608l0.41713,0.26649c0,0 0.61181,0.33197 0.21581,0.94441z" data-paper-data="{&quot;origPos&quot;:null}" fill="#996c1c" stroke="none" stroke-width="0.5" stroke-linecap="butt"/></g><g><path d="M223.73419,191.67966c-0.92232,-8.19988 3.77927,-15.46012 10.50126,-16.21619c6.722,-0.75608 12.37385,5.53517 13.31582,13.73284c1.36935,11.91686 -3.25384,15.20553 -9.97583,15.9616c-6.722,0.75608 -12.91892,-5.27833 -13.84123,-13.47822z" fill="#fcdda0" stroke="#00beff" stroke-width="0" stroke-linecap="butt"/><path d="M245.13585,182.91355c0,0 -3.38459,2.08805 -5.91368,2.31697c-2.8542,0.25835 -10.35435,-0.84444 -10.35435,-0.84444" fill="none" stroke="#c5ab79" stroke-width="2" stroke-linecap="round"/><path d="M241.35711,174.43661c0.25464,1.93877 -2.23328,3.8643 -5.55687,4.3008c-3.32359,0.43649 -6.22431,-0.78133 -6.47894,-2.72011c-0.25464,-1.93877 2.23328,-3.8643 5.55687,-4.3008c3.32359,-0.43649 6.2243,0.78132 6.47894,2.7201z" fill="#a28650" stroke="#fcdda0" stroke-width="4.5" stroke-linecap="butt"/><path d="M246.98478,190.11343c0,0 -4.46395,2.23603 -6.70563,2.43895c-2.9722,0.26903 -9.56239,-0.9664 -9.56239,-0.9664" fill="none" stroke="#c5ab79" stroke-width="2" stroke-linecap="round"/><path d="M232.36602,176.38652l-0.42115,-5.34968l5.25716,-0.5313l0.42115,5.34968c0,0 -1.56568,0.5128 -2.38476,0.59559c-0.92126,0.09311 -2.87241,-0.06429 -2.87241,-0.06429z" fill="#d2a31f" stroke="none" stroke-width="0" stroke-linecap="butt"/><path d="M226.51201,186.30341c-1.07603,-3.0399 -0.10007,-6.15843 2.17984,-6.96545c2.27992,-0.80702 5.00045,1.00307 6.07648,4.04297c1.07602,3.03989 0.10008,6.15843 -2.17984,6.96546c-2.27993,0.80701 -5.00045,-1.00309 -6.07648,-4.04299z" fill="#a28650" stroke="none" stroke-width="NaN" stroke-linecap="butt"/><path d="M246.57407,197.93288c0,0 -3.30138,2.30753 -5.99571,2.55142c-2.72792,0.24692 -10.56423,-0.93743 -10.56423,-0.93743" fill="none" stroke="#c5ab79" stroke-width="2" stroke-linecap="round"/><path d="M230.71106,189.09587c0.73793,7.41042 0.91276,12.87075 -3.85568,13.3456c-4.76844,0.47485 -9.23225,-5.14755 -9.97018,-12.55797c-0.73793,-7.41041 4.09496,-14.25169 8.8634,-14.72654c4.76844,-0.47485 4.22454,6.52848 4.96246,13.93889z" fill="#f34135" stroke="#000000" stroke-width="0" stroke-linecap="butt"/><g fill="none" stroke="#af2117" stroke-width="1.5" stroke-linecap="round"><path d="M217.975,182.27511l2.8864,2.93088l0.01576,9.2633l-1.73664,1.82974" data-paper-data="{&quot;origPos&quot;:null}"/><path d="M225.79936,197.35175l-4.69148,-2.8208l-0.28997,-9.36847l3.89152,-1.23832" data-paper-data="{&quot;origPos&quot;:null}"/></g><path d="M230.64798,189.0231c0.6951,6.98017 2.78942,14.51546 -0.76751,15.88604c-0.36701,0.14141 -3.2947,-0.57893 -3.90367,-1.78637c-0.60895,-1.20743 -0.11845,-2.36609 0.11852,-5.71887c0.15786,-2.23362 -0.595,-4.8288 -0.9016,-7.90765c-0.45219,-4.54088 -1.15729,-5.6524 -0.8767,-9.2789c0.28059,-3.62651 0.66782,-5.23568 2.0101,-5.36935c4.76844,-0.47485 6.3249,-0.34762 5.30417,1.70581c-0.43003,0.86513 -1.44389,2.39121 -1.59729,4.03611c-0.35438,3.80026 0.61397,8.43317 0.61397,8.43317z" fill="#ffffff" stroke="none" stroke-width="0" stroke-linecap="butt"/></g><g><path d="M229.8717,180.86074c1.91727,0.63733 2.62454,5.47603 2.62454,5.47603l3.09128,5.68643l1.57511,-0.4339l1.81486,0.59253l2.13905,2.20646l1.83012,3.42709l-0.27009,1.33032l-1.49746,0.65336l-0.96734,1.45361l-2.33649,1.07377l-1.26448,1.31179l-1.94988,0.07262l-1.75073,-1.10911l-1.74741,-4.93802l0.22449,-1.80809l-2.38905,-4.92764l-1.36879,-5.33095c0,0 0.325,-5.37356 2.24227,-4.73623z" data-paper-data="{&quot;origPos&quot;:null}" fill="#fcdc48" stroke="#000000" stroke-width="0" stroke-linecap="round"/><path d="M237.99855,202.06538c-0.4958,0.54316 -1.04533,0.0839 -1.04533,0.0839l-0.03479,-0.1465c-0.65611,-0.29278 -1.03149,-0.61382 -1.48461,-1.1346c0,0 -0.46717,-0.53698 0.10686,-1.00348c0.57407,-0.46649 1.04125,0.07048 1.04125,0.07048c0.37472,0.4307 0.5136,0.55899 0.99505,0.77383l0.36784,0.35393c0,0 0.54954,0.45927 0.05373,1.00244z" data-paper-data="{&quot;origPos&quot;:null}" fill="#d2a31f" stroke="none" stroke-width="0.5" stroke-linecap="butt"/><path d="M240.75507,199.73596c-0.5002,0.53074 -1.04193,0.09358 -1.04193,0.09358l-0.03287,-0.14111c-0.64982,-0.27504 -1.01977,-0.5807 -1.46471,-1.07841c0,0 -0.45879,-0.51319 0.11841,-0.97078c0.5772,-0.45758 1.03597,0.05562 1.03597,0.05562c0.36798,0.41164 0.50472,0.53389 0.98157,0.73571l0.36205,0.33756c0,0 0.54169,0.43713 0.04146,0.96786z" data-paper-data="{&quot;origPos&quot;:null}" fill="#d2a31f" stroke="none" stroke-width="0.5" stroke-linecap="butt"/></g><g><g stroke-width="0"><path d="M248.58503,155.06278c2.70503,7.64196 -1.39984,16.06618 -9.16846,18.81603c-7.76862,2.74984 -16.25918,-1.21598 -18.9642,-8.85793c-2.70502,-7.64196 1.39986,-16.06617 9.16847,-18.81601c7.76863,-2.74984 16.25916,1.21598 18.96418,8.85793z" fill="#fcdc48" stroke="none" stroke-linecap="butt"/><path d="M230.97954,145.30163c1.9763,5.58327 -0.14234,7.92173 -3.37224,9.06502c-3.22988,1.14327 -6.30732,0.77309 -8.32421,-4.92484c-1.36746,-3.86319 0.40992,-8.01646 4.4425,-9.44387c3.91791,-1.38681 5.8865,1.4405 7.25396,5.3037z" fill="#ffdd32" stroke="#ff0000" stroke-linecap="butt"/><path d="M238.49752,142.27277c1.9763,5.58327 1.3866,7.38055 -1.84328,8.52383c-1.61613,0.57206 -8.84546,-1.53676 -9.85316,-4.38366c-1.36746,-3.86319 -1.27194,-7.42114 2.76066,-8.84855c3.91791,-1.38681 7.56835,0.84517 8.93579,4.70837z" fill="#ffdd32" stroke="#ff0000" stroke-linecap="butt"/><path d="M230.1737,160.40436c1.92788,5.44648 0.39569,10.58425 -3.27752,11.88445c-3.67321,1.3002 -8.50712,-2.88973 -10.43501,-8.33621c-1.92788,-5.44648 -0.21968,-10.08702 3.45353,-11.38722c3.67321,-1.3002 8.3311,2.3925 10.25899,7.83898z" fill="#fcdc48" stroke="#d2a31f" stroke-linecap="butt"/><path d="M231.91568,146.06622c1.07164,3.35476 -0.46142,5.97252 -3.09042,6.78995c-2.62899,0.81743 -5.35838,-0.47504 -6.43001,-3.8298c-1.07164,-3.35476 0.17192,-7.7626 2.80092,-8.58003c2.62899,-0.81743 5.6479,2.26511 6.71955,5.61989z" fill="#ffffff" stroke="none" stroke-linecap="butt"/><path d="M238.49614,143.00652c1.07164,3.35476 -0.46144,5.9725 -3.09044,6.78994c-2.62899,0.81743 -5.35837,-0.47503 -6.43001,-3.82979c-1.07164,-3.35476 -0.38556,-7.39322 2.24344,-8.21065c2.62899,-0.81743 6.20536,1.89574 7.277,5.25051z" fill="#ffffff" stroke="none" stroke-linecap="butt"/><path d="M230.41353,146.29547c0.63156,1.87669 0.56111,3.61783 -0.15735,3.8889c-0.71846,0.27108 -1.81287,-1.03056 -2.44443,-2.90725c-0.63156,-1.87669 -0.56109,-3.61783 0.15736,-3.88889c0.71846,-0.27108 1.81287,1.03055 2.44443,2.90725z" fill="#000000" stroke="none" stroke-linecap="butt"/><path d="M235.72817,143.93106c0.63156,1.87669 0.56111,3.61782 -0.15736,3.88888c-0.71846,0.27108 -1.81287,-1.03055 -2.44443,-2.90725c-0.63156,-1.87669 -0.5611,-3.61783 0.15735,-3.8889c0.71846,-0.27108 1.81287,1.03057 2.44442,2.90727z" fill="#000000" stroke="none" stroke-linecap="butt"/><path d="M232.07762,168.97651l1.49962,-4.51258l15.70656,-1.87281l-1.44289,3.68809c0,0 -5.84273,0.44734 -8.39445,1.08713c-2.67951,0.67182 -7.35262,2.48926 -7.35262,2.48926z" fill="#d2a31f" stroke="#d2a31f" stroke-linecap="round"/></g><g stroke-linecap="round"><path d="M234.00252,150.93442c0,0 5.13855,-5.54769 9.85851,-4.5219c15.27688,3.3201 9.94943,21.94184 9.94943,21.94184c0,0 -6.57119,-2.85199 -10.33233,-2.98018c-3.4545,-0.11775 -10.58472,1.95365 -10.58472,1.95365" fill="#fcdc48" stroke="#d2a31f" stroke-width="0"/><path d="M238.53058,151.65365c0,0 1.38078,0.44146 2.01302,0.765c0.62643,0.32056 1.76311,1.16736 1.76311,1.16736" fill="none" stroke="#996c1c" stroke-width="1.5"/><path d="M247.34368,148.74217l-0.29232,3.1796" data-paper-data="{&quot;index&quot;:null}" fill="none" stroke="#996c1c" stroke-width="1.5"/><path d="M225.46845,156.99316c0,0 4.02432,-0.42926 6.11422,5.53398c2.30565,6.57888 -0.6794,8.6874 -0.6794,8.6874" fill="none" stroke="#d2a31f" stroke-width="2"/></g></g><g data-paper-data="{&quot;origRot&quot;:0}" stroke-linecap="round"><path d="M221.92465,187.75375c-0.75247,0.49971 -2.53305,2.24867 -6.87655,3.8552c-4.34348,1.6065 -6.48214,2.1088 -8.19583,1.85453c-1.71369,-0.25428 -5.32361,-2.79341 -6.19692,-3.56795c-0.87331,-0.7745 -2.69112,-2.31881 -4.22819,-3.98639c-1.53707,-1.66759 -0.92416,-1.08262 -1.24482,-1.95131c-0.32066,-0.86869 -0.13924,-0.83585 0.02297,-1.35896c0.16221,-0.52311 0.28438,-0.42547 0.58086,-0.5883c0.29647,-0.16284 0.78931,-0.40355 1.34007,-0.4667c0.55075,-0.06319 0.71795,0.01154 1.13877,0.18237c0.45699,0.18549 1.2374,0.78216 1.2374,0.78216c0,0 -0.39659,-1.80978 -0.49307,-2.99892c-0.09647,-1.18912 0.53759,-1.70334 0.84882,-1.84065c0.31123,-0.13733 0.91119,-0.59364 1.34853,-0.47285c0.43734,0.1208 0.84261,0.36507 1.36265,0.7947c0.52005,0.42966 1.86482,1.39923 1.86482,1.39923c0,0 -0.25535,-0.94899 -0.37206,-1.74418c-0.11669,-0.79521 0.04602,-1.78852 0.47008,-1.95371c0.42409,-0.16517 0.95582,-0.70392 1.81166,-0.65326c0.85584,0.05066 1.10323,0.35231 1.72708,0.76325c0.62386,0.41094 1.67641,1.34817 2.76317,2.19447c1.08676,0.84629 3.28552,1.81063 5.10874,2.74231c1.82323,0.9317 2.70194,0.47177 3.39762,0.66391c0.69568,0.19212 1.01272,0.4347 1.50688,0.92265c0.49416,0.48792 0.55303,0.8291 0.84631,1.40085c0.29327,0.57173 0.74205,1.02205 0.78553,1.78045c0.04349,0.75838 0.19794,1.74744 -0.55454,2.24716z" data-paper-data="{&quot;origPos&quot;:null}" fill="#ffffff" stroke="#000000" stroke-width="0"/><path d="M211.19627,188.56085c-0.42917,0.38542 -2.21923,-0.58115 -3.27698,-0.99647c-1.05776,-0.41532 -1.98836,-1.66175 -2.93517,-2.28939" data-paper-data="{&quot;origPos&quot;:null}" fill="none" stroke="#e5e5e5" stroke-width="1"/><path d="M213.08315,185.68475c-0.42919,0.38543 -2.21923,-0.58115 -3.27698,-0.99647c-1.05776,-0.41532 -1.98836,-1.66173 -2.93517,-2.28939" data-paper-data="{&quot;origPos&quot;:null}" fill="none" stroke="#e6e6e6" stroke-width="1"/><path d="M215.13118,182.92435c-0.42919,0.38543 -2.21923,-0.58115 -3.27698,-0.99647c-1.05776,-0.41532 -1.98836,-1.66175 -2.93517,-2.28939" data-paper-data="{&quot;origPos&quot;:null}" fill="none" stroke="#e4e4e4" stroke-width="1"/></g></g><g data-paper-data="{&quot;origRot&quot;:0}" fill="none" stroke="#ff3d3d" stroke-width="3.5"><path d="M236.14609,184.65918c1.03553,-10.86323 10.68139,-18.83015 21.54462,-17.79461c10.86323,1.03553 18.83015,10.68139 17.79461,21.54462c-1.03553,10.86323 -10.68139,18.83015 -21.54462,17.79461c-10.86323,-1.03553 -18.83015,-10.68139 -17.79461,-21.54462z" data-paper-data="{&quot;origPos&quot;:null,&quot;origRot&quot;:0}" stroke-linecap="butt"/><path d="M222.97051,184.06483l64.25408,6.12501" data-paper-data="{&quot;origRot&quot;:0}" stroke-linecap="round"/><path d="M258.62822,157.02977l-5.68752,59.66451" data-paper-data="{&quot;origRot&quot;:0}" stroke-linecap="round"/></g></g></g></svg>