<svg version="1.1" xmlns="http://www.w3.org/2000/svg" xmlns:xlink="http://www.w3.org/1999/xlink" width="198.90894" height="198.68247" viewBox="0,0,198.90894,198.68247"><defs><radialGradient cx="382.75048" cy="41.24856" r="6.77877" gradientUnits="userSpaceOnUse" id="color-1"><stop offset="0" stop-color="#ffc36a"/><stop offset="1" stop-color="#ffa41c"/></radialGradient><linearGradient x1="457.25152" y1="157.68787" x2="457.2822" y2="158.78965" gradientUnits="userSpaceOnUse" id="color-2"><stop offset="0" stop-color="#cedee8"/><stop offset="1" stop-color="#edf3f8"/></linearGradient><linearGradient x1="458.23081" y1="157.63683" x2="458.26312" y2="158.79815" gradientUnits="userSpaceOnUse" id="color-3"><stop offset="0" stop-color="#e2524b"/><stop offset="1" stop-color="#ff6767"/></linearGradient><linearGradient x1="455.57029" y1="157.40385" x2="455.00452" y2="157.4196" gradientUnits="userSpaceOnUse" id="color-4"><stop offset="0" stop-color="#ff6767"/><stop offset="1" stop-color="#e2524b"/></linearGradient><linearGradient x1="455.47325" y1="157.29664" x2="455.52631" y2="159.20242" gradientUnits="userSpaceOnUse" id="color-5"><stop offset="0" stop-color="#cedee8"/><stop offset="1" stop-color="#edf3f8"/></linearGradient><linearGradient x1="454.7848" y1="157.18732" x2="453.05771" y2="157.23543" gradientUnits="userSpaceOnUse" id="color-6"><stop offset="0" stop-color="#ff6767"/><stop offset="1" stop-color="#e2524b"/></linearGradient><linearGradient x1="453.30566" y1="155.43853" x2="452.50168" y2="155.4609" gradientUnits="userSpaceOnUse" id="color-7"><stop offset="0" stop-color="#ff6767"/><stop offset="1" stop-color="#e2524b"/></linearGradient><linearGradient x1="452.48624" y1="154.90635" x2="449.27026" y2="154.99589" gradientUnits="userSpaceOnUse" id="color-8"><stop offset="0" stop-color="#edf3f8"/><stop offset="1" stop-color="#cedee8"/></linearGradient><linearGradient x1="453.55792" y1="154.86529" x2="453.59027" y2="156.02661" gradientUnits="userSpaceOnUse" id="color-9"><stop offset="0" stop-color="#e2524b"/><stop offset="1" stop-color="#ff6767"/></linearGradient><linearGradient x1="453.7075" y1="160.23673" x2="453.73982" y2="161.39807" gradientUnits="userSpaceOnUse" id="color-10"><stop offset="0" stop-color="#ff6767"/><stop offset="1" stop-color="#e2524b"/></linearGradient><linearGradient x1="454.41384" y1="157.43938" x2="452.13288" y2="157.50289" gradientUnits="userSpaceOnUse" id="color-11"><stop offset="0" stop-color="#edf3f8"/><stop offset="1" stop-color="#cedee8"/></linearGradient><linearGradient x1="418.21616" y1="84.1645" x2="413.98866" y2="85.70358" gradientUnits="userSpaceOnUse" id="color-12"><stop offset="0" stop-color="#eb8b58"/><stop offset="1" stop-color="#c56235"/></linearGradient><linearGradient x1="420.14357" y1="87.91464" x2="415.04888" y2="89.76941" gradientUnits="userSpaceOnUse" id="color-13"><stop offset="0" stop-color="#eb8b58"/><stop offset="1" stop-color="#c56235"/></linearGradient><linearGradient x1="422.61841" y1="88.02162" x2="417.52374" y2="89.87638" gradientUnits="userSpaceOnUse" id="color-14"><stop offset="0" stop-color="#eb8b58"/><stop offset="1" stop-color="#c56235"/></linearGradient><linearGradient x1="420.74797" y1="91.6513" x2="416.61745" y2="93.15507" gradientUnits="userSpaceOnUse" id="color-15"><stop offset="0" stop-color="#eb8b58"/><stop offset="1" stop-color="#c56235"/></linearGradient><linearGradient x1="410.90508" y1="89.23115" x2="407.9384" y2="90.31119" gradientUnits="userSpaceOnUse" id="color-16"><stop offset="0" stop-color="#eb8b58"/><stop offset="1" stop-color="#c56235"/></linearGradient><linearGradient x1="414.2187" y1="96.25648" x2="411.25202" y2="97.33652" gradientUnits="userSpaceOnUse" id="color-17"><stop offset="0" stop-color="#eb8b58"/><stop offset="1" stop-color="#c56235"/></linearGradient><linearGradient x1="414.84448" y1="92.66877" x2="411.8778" y2="93.74882" gradientUnits="userSpaceOnUse" id="color-18"><stop offset="0" stop-color="#eb8b58"/><stop offset="1" stop-color="#c56235"/></linearGradient><linearGradient x1="410.99119" y1="85.08395" x2="408.02453" y2="86.16399" gradientUnits="userSpaceOnUse" id="color-19"><stop offset="0" stop-color="#eb8b58"/><stop offset="1" stop-color="#c56235"/></linearGradient></defs><g transform="translate(-259.33759,31.33694)"><g data-paper-data="{&quot;isPaintingLayer&quot;:true}" fill-rule="nonzero" stroke-linejoin="miter" stroke-miterlimit="10" stroke-dasharray="" stroke-dashoffset="0" style="mix-blend-mode: normal"><g data-paper-data="{&quot;origRot&quot;:0}" stroke="none" stroke-linecap="butt"><path d="M283.99481,-9.4119c-0.75495,3.28711 -6.86947,4.68807 -13.65715,3.12913c-6.78767,-1.55895 -11.67816,-5.48745 -10.92318,-8.77457c0.75495,-3.28711 6.86949,-4.68806 13.65716,-3.12911c6.78767,1.55896 11.67815,5.48746 10.92318,8.77458z" data-paper-data="{&quot;origPos&quot;:null}" fill="#579e2e" stroke-width="0"/><path d="M284.34986,-10.95786c-0.75495,3.28711 -6.86947,4.68806 -13.65715,3.12911c-6.78767,-1.55895 -11.67816,-5.48746 -10.92318,-8.77457c0.75495,-3.28711 6.86946,-4.68807 13.65715,-3.12912c6.78767,1.55896 11.67816,5.48747 10.92318,8.77458z" data-paper-data="{&quot;origPos&quot;:null}" fill="#76d63e" stroke-width="0"/><path d="M263.26157,-14.09244c0.15687,-0.68304 0.83776,-1.10956 1.5208,-0.95269c0.68304,0.15687 1.10958,0.83777 0.9527,1.5208c-0.15687,0.68304 -0.83776,1.10956 -1.5208,0.9527c-0.68304,-0.15687 -1.10957,-0.83777 -0.9527,-1.52081z" data-paper-data="{&quot;origPos&quot;:null}" fill="#822626" stroke-width="0"/><path d="M270.26964,-15.91378c0.11766,-0.51229 0.62831,-0.83217 1.1406,-0.71452c0.51229,0.11766 0.83218,0.62831 0.71452,1.1406c-0.11766,0.51229 -0.62831,0.83217 -1.1406,0.71452c-0.51229,-0.11766 -0.83217,-0.62831 -0.7145,-1.1406z" data-paper-data="{&quot;origPos&quot;:null}" fill="#822626" stroke-width="0"/><path d="M274.35897,-9.26515c0.15687,-0.68304 0.83777,-1.10956 1.52081,-0.9527c0.68304,0.15687 1.10957,0.83777 0.95269,1.5208c-0.15687,0.68304 -0.83776,1.10956 -1.5208,0.9527c-0.68304,-0.15687 -1.10957,-0.83776 -0.9527,-1.5208z" data-paper-data="{&quot;origPos&quot;:null}" fill="#822626" stroke-width="0"/><path d="M278.39693,-13.38292c0.09805,-0.42689 0.5236,-0.69349 0.95049,-0.59544c0.4269,0.09805 0.69349,0.52361 0.59544,0.9505c-0.09805,0.4269 -0.5236,0.69349 -0.9505,0.59544c-0.4269,-0.09805 -0.69349,-0.5236 -0.59544,-0.9505z" data-paper-data="{&quot;origPos&quot;:null}" fill="#822626" stroke-width="0"/><g data-paper-data="{&quot;origPos&quot;:null}"><path d="M270.79927,-31.23751c0.96104,0.22072 1.74986,0.77784 2.24795,1.49958c0.4981,0.72177 0.70545,1.60814 0.5035,2.4874c-0.20195,0.87926 -0.77527,1.58635 -1.53837,2.01844c-0.76308,0.43207 -1.71595,0.58917 -2.67699,0.36847c-0.96104,-0.22072 -1.74987,-0.77786 -2.24795,-1.49958c-0.4981,-0.72177 -0.70544,-1.60815 -0.50348,-2.48741c0.20195,-0.87926 0.77526,-1.58633 1.53836,-2.01843c0.76308,-0.43205 1.71594,-0.58919 2.67699,-0.36847z" data-paper-data="{&quot;origPos&quot;:null}" fill="#f1ffa1" stroke-width="0.55092"/><path d="M266.55688,-28.72259l6.96679,1.60009l-2.23559,9.73377c0,0 -1.19337,0.73254 -3.79571,0.0986c-2.63574,-0.64208 -3.1711,-1.6987 -3.1711,-1.6987z" data-paper-data="{&quot;origPos&quot;:null}" fill="#f1ffa1" stroke-width="1.16723"/><path d="M269.51573,-28.94713c0.01733,0.21821 -0.00756,0.50825 -0.07879,0.81838c-0.07123,0.31012 -0.17538,0.58198 -0.2862,0.77075c-0.11073,0.18879 -0.22812,0.2945 -0.32576,0.27207c-0.09764,-0.02242 -0.15713,-0.16876 -0.1744,-0.38693c-0.01733,-0.21821 0.00758,-0.50826 0.07879,-0.81839c0.07123,-0.31012 0.17538,-0.58199 0.28619,-0.77075c0.11073,-0.18879 0.22812,-0.2945 0.32575,-0.27207c0.09764,0.02242 0.15715,0.16876 0.17442,0.38695z" data-paper-data="{&quot;origPos&quot;:null}" fill="#000000" stroke-width="1"/><path d="M271.09295,-28.58489c0.01733,0.21821 -0.00758,0.50826 -0.0788,0.81839c-0.07123,0.31012 -0.17537,0.58198 -0.28618,0.77076c-0.11073,0.18879 -0.22812,0.2945 -0.32576,0.27207c-0.09764,-0.02242 -0.15714,-0.16876 -0.17441,-0.38695c-0.01733,-0.21821 0.00758,-0.50826 0.07879,-0.81838c0.07123,-0.31012 0.17537,-0.58199 0.28619,-0.77075c0.11073,-0.18879 0.22813,-0.29449 0.32576,-0.27206c0.09764,0.02242 0.15714,0.16875 0.17441,0.38694z" data-paper-data="{&quot;origPos&quot;:null}" fill="#000000" stroke-width="1"/></g><g data-paper-data="{&quot;origPos&quot;:null}" fill="#4e8226" stroke-width="0"><path d="M273.07883,-13.25102l1.02969,-4.4832l4.48319,1.02968l-1.02968,4.4832c0,0 -0.77433,0.46907 -2.4394,0.08667c-1.62084,-0.37227 -2.0438,-1.11634 -2.0438,-1.11634z" data-paper-data="{&quot;origPos&quot;:null}"/><path d="M273.3481,-17.25785l0.28405,-1.23675l5.87454,1.34922l-0.28405,1.23675z" data-paper-data="{&quot;origPos&quot;:null}"/></g></g><g data-paper-data="{&quot;origRot&quot;:0}" stroke="none" stroke-width="0" stroke-linecap="butt"><path d="M343.14434,20.99868c-1.34708,2.04895 -5.86897,1.45499 -10.09992,-1.32664c-4.23095,-2.78164 -6.56878,-6.69761 -5.2217,-8.74656c1.34708,-2.04895 5.86897,-1.45498 10.09992,1.32666c4.23095,2.78164 6.56879,6.6976 5.2217,8.74656z" data-paper-data="{&quot;origPos&quot;:null}" fill="#196949"/><path d="M343.77789,20.03503c-1.34708,2.04895 -5.86897,1.45499 -10.09992,-1.32665c-4.23095,-2.78164 -6.56878,-6.6976 -5.2217,-8.74655c1.34708,-2.04895 5.86897,-1.45499 10.09992,1.32665c4.23095,2.78164 6.56879,6.6976 5.22171,8.74655z" data-paper-data="{&quot;origPos&quot;:null}" fill="#28a874"/><path d="M340.02525,13.97631l0.69049,-0.81427l2.51068,2.129l-0.69049,0.81427z" data-paper-data="{&quot;origPos&quot;:null}" fill="#d83434"/><path d="M335.43991,17.32027l0.69049,-0.81428l2.51068,2.129l-0.69049,0.81427z" data-paper-data="{&quot;origPos&quot;:null}" fill="#d83434"/><path d="M339.13394,16.95325l0.69049,-0.81428l2.51067,2.129l-0.69049,0.81427z" data-paper-data="{&quot;origPos&quot;:null}" fill="#3443d9"/><path d="M335.58963,9.16513l0.69049,-0.81428l2.51067,2.129l-0.69049,0.81428z" data-paper-data="{&quot;origPos&quot;:null}" fill="#3443d9"/><path d="M328.6896,12.76263l0.69049,-0.81428l2.51067,2.129l-0.69048,0.81428z" data-paper-data="{&quot;origPos&quot;:null}" fill="#3443d9"/><path d="M332.73483,11.29366l0.69049,-0.81428l2.51067,2.129l-0.69049,0.81428z" data-paper-data="{&quot;origPos&quot;:null}" fill="#d83434"/></g><g><path d="M388.4361,49.35605c-2.50912,2.73604 -9.1232,0.75388 -14.77295,-4.42729c-5.64975,-5.18117 -8.19574,-11.59935 -5.68661,-14.33539c2.50912,-2.73604 9.12319,-0.75387 14.77294,4.4273c5.64975,5.18117 8.19574,11.59934 5.68662,14.33538z" data-paper-data="{&quot;origPos&quot;:null}" fill="#334355" stroke="none" stroke-width="0" stroke-linecap="butt"/><path d="M389.61615,48.06928c-2.50912,2.73604 -9.12319,0.75388 -14.77294,-4.4273c-5.64975,-5.18117 -8.19574,-11.59934 -5.68662,-14.33538c2.50912,-2.73604 9.12319,-0.75388 14.77295,4.4273c5.64975,5.18117 8.19574,11.59934 5.68662,14.33539z" data-paper-data="{&quot;origPos&quot;:null}" fill="#49617a" stroke="none" stroke-width="0" stroke-linecap="butt"/><g fill="#2934a8" stroke="none" stroke-width="0" stroke-linecap="butt"><path d="M377.33515,30.11242l3.42212,-3.73162l3.73163,3.42213l-3.42213,3.73162c0,0 -0.99612,0.02815 -2.38204,-1.24282c-1.34911,-1.23722 -1.34958,-2.1793 -1.34958,-2.1793z" data-paper-data="{&quot;origPos&quot;:null}"/><path d="M379.67232,26.30308l0.94404,-1.02942l4.88971,4.48417l-0.94403,1.02941z"/></g><path d="M388.03726,46.14132c-1.47228,1.5687 -4.89124,0.75171 -7.63646,-1.82478c-2.74522,-2.57649 -3.77714,-5.93683 -2.30486,-7.50553c1.47228,-1.5687 4.89124,-0.75171 7.63646,1.82478c2.74522,2.57649 3.77714,5.93684 2.30485,7.50553z" data-paper-data="{&quot;origPos&quot;:null,&quot;origRot&quot;:0}" fill="url(#color-1)" stroke="none" stroke-width="0" stroke-linecap="butt"/><g data-paper-data="{&quot;origPos&quot;:null}" fill="none" stroke-width="0.5" stroke-linecap="round"><path d="M375.21388,34.38244l4.31832,1.66905l3.27511,2.11798l2.41524,1.9789l2.63657,3.33824l1.03064,2.90202" data-paper-data="{&quot;origPos&quot;:null}" stroke="#8a8a8a"/><path d="M388.33157,46.02102l-1.10824,0.53925" data-paper-data="{&quot;origPos&quot;:null}" stroke="#8a5f00"/><path d="M386.29929,44.55786l1.22475,-0.55821" data-paper-data="{&quot;origPos&quot;:null}" stroke="#8a5f00"/><path d="M384.97695,42.6801l1.3223,-0.6937" data-paper-data="{&quot;origPos&quot;:null}" stroke="#8a5f00"/><path d="M383.37278,40.90804l1.3223,-0.6937" data-paper-data="{&quot;origPos&quot;:null}" stroke="#8a5f00"/><path d="M382.74139,38.49917l-1.48758,0.78041" data-paper-data="{&quot;origPos&quot;:null}" stroke="#8a5f00"/><path d="M380.49504,37.19043l-1.20578,0.67473" data-paper-data="{&quot;origPos&quot;:null}" stroke="#8a5f00"/><path d="M378.45195,36.02804l-1.20578,0.67473" data-paper-data="{&quot;origPos&quot;:null}" stroke="#8a5f00"/><path d="M376.07827,35.03907l-1.37107,0.76144" data-paper-data="{&quot;origPos&quot;:null}" stroke="#8a5f00"/><path d="M373.60166,35.62172l4.31832,1.66905l3.27511,2.11797l2.41525,1.9789l2.63657,3.33824l1.03063,2.90201" data-paper-data="{&quot;origPos&quot;:null}" stroke="#8a8a8a"/></g><g data-paper-data="{&quot;origPos&quot;:null}"><path d="M373.88072,33.66262l-2.37912,-2.12431l1.30871,-2.24633l3.09449,2.84507z" data-paper-data="{&quot;origPos&quot;:null}" fill="#898989" stroke="#898989" stroke-width="1" stroke-linecap="round"/><path d="M372.04625,32.49616c-0.14815,0.20577 -0.4199,0.26341 -0.60696,0.12873c-0.18706,-0.13468 -0.21861,-0.41067 -0.07046,-0.61645c0.14815,-0.20577 0.41989,-0.26341 0.60695,-0.12873c0.18706,0.13468 0.21862,0.41067 0.07047,0.61645z" data-paper-data="{&quot;origPos&quot;:null}" fill="#000000" stroke="none" stroke-width="0" stroke-linecap="butt"/><path d="M373.52577,33.86991c-0.14815,0.20577 -0.4199,0.26341 -0.60696,0.12873c-0.18706,-0.13468 -0.21861,-0.41067 -0.07046,-0.61645c0.14815,-0.20577 0.41989,-0.2634 0.60696,-0.12872c0.18706,0.13468 0.21861,0.41067 0.07046,0.61644z" data-paper-data="{&quot;origPos&quot;:null}" fill="#000000" stroke="none" stroke-width="0" stroke-linecap="butt"/></g></g><g><g data-paper-data="{&quot;origPos&quot;:null}" stroke-width="0.75"><path d="M448.02395,150.66558c-0.18259,0.70752 -0.11435,1.45922 -0.19074,2.18574c-0.0191,0.18167 -0.07046,0.22252 -0.07446,0.33753c-0.01164,0.33475 0.03227,0.67067 0.02799,1.00557c-0.0045,0.35 -0.00169,0.70383 -0.05463,1.04981c-0.01887,0.12347 -0.13028,0.21815 -0.15826,0.33986c-0.06014,0.26165 -0.09659,0.5312 -0.10353,0.79959c-0.0133,0.51631 -0.00068,1.03572 0.04317,1.55027c0.03938,0.46233 0.16774,0.91564 0.20609,1.37801c0.08781,1.05759 0.05989,2.12678 0.17246,3.18198c0.09558,0.89702 0.20635,1.80301 0.45176,2.67103c0.10028,0.3548 0.38421,0.63086 0.57152,0.94851c0.12058,0.20447 0.51856,0.47415 0.35269,0.61915c-0.30489,0.26646 -0.85975,0.16315 -1.29421,0.20376c-0.41689,0.03895 -0.83921,0.0633 -1.25696,0.035c-0.60664,-0.04114 -1.21568,-0.11391 -1.80982,-0.24312c-0.49173,-0.1069 -0.96223,-0.30078 -1.43856,-0.46313c-0.13005,-0.04435 -0.43317,-0.03389 -0.38176,-0.15709c0.12546,-0.30103 0.45853,-0.50102 0.73551,-0.69139c0.19651,-0.13512 0.54998,-0.06026 0.66338,-0.27006c0.13286,-0.24589 0.13493,-0.64163 -0.06523,-0.83682c-0.79358,-0.77376 -1.86734,-1.2068 -2.73636,-1.89458c-0.21729,-0.17191 -0.55527,-0.39497 -0.4365,-0.61682c0.23739,-0.44371 0.82151,-0.58425 1.23363,-0.87297c0.2726,-0.19108 0.53355,-0.40315 0.82281,-0.56802c0.12664,-0.07214 0.42715,-0.01977 0.41549,-0.13736c-0.01746,-0.17512 -0.2889,-0.33411 -0.47372,-0.44806c-0.23413,-0.14426 -0.54017,-0.15436 -0.76351,-0.3142c-0.47609,-0.34064 -0.90247,-0.75682 -1.25007,-1.22314c-0.42584,-0.51195 -0.93112,-1.02671 -1.05341,-1.68984c-0.04103,-0.2268 0.40836,-0.21901 0.62032,-0.31079c0.47829,-0.20687 0.96055,-0.41017 1.4513,-0.58551c0.14697,-0.05256 0.30865,-0.05337 0.45856,-0.09662c0.28003,-0.0806 0.55518,-0.18066 0.83097,-0.27473c0.12528,-0.04273 0.42703,-0.03034 0.37359,-0.13619c-0.12408,-0.24562 -0.48831,-0.37501 -0.72862,-0.56677c-0.58802,-0.46937 -1.15739,-0.96624 -1.75869,-1.41863c-0.31248,-0.23517 -0.73473,-0.34082 -0.98234,-0.64356c-0.075,-0.09166 0.09698,-0.17345 0.2444,-0.2584c0.58947,-0.33995 1.19907,-0.65061 1.81905,-0.93121c0.23753,-0.10741 0.50289,-0.14265 0.74835,-0.23051c0.43228,-0.1546 0.84567,-0.36706 1.28603,-0.49706c0.71151,-0.21002 1.4391,-0.37284 2.16592,-0.52155c0.30202,-0.06174 0.61422,-0.06592 0.91944,-0.10947c0.18177,-0.02586 0.36373,-0.05658 0.54235,-0.09895c0.15478,-0.03685 0.34624,-0.19632 0.54351,-0.05705c0,0 -0.09839,0.1592 -0.16061,0.25603c0,0 -0.46169,0.34361 -0.5283,0.60176z" data-paper-data="{&quot;origPos&quot;:null}" fill="#c06520" stroke="#763e13" stroke-linecap="round"/><path d="M450.49648,158.14438c0.06406,2.30041 -0.04216,4.38938 -0.26559,5.90614c-0.22346,1.51675 -0.56413,2.46132 -0.96871,2.47258c-0.40456,0.01128 -0.79729,-0.91287 -1.10478,-2.41486c-0.30749,-1.50198 -0.52976,-3.5818 -0.59383,-5.88221c-0.06406,-2.30041 0.04217,-4.38939 0.2656,-5.90616c0.22346,-1.51675 0.56413,-2.46132 0.9687,-2.47258c0.40456,-0.01128 0.79729,0.91287 1.10478,2.41486c0.30749,1.50198 0.52976,3.5818 0.59382,5.88222z" data-paper-data="{&quot;origPos&quot;:null}" fill="#78de56" stroke="#006521" stroke-linecap="butt"/><g data-paper-data="{&quot;origPos&quot;:null}" stroke="none"><g><path d="M457.25152,157.68787l0.03066,1.10176l-4.13908,0.11525l-0.03067,-1.10176z" fill="url(#color-2)" stroke-linecap="butt"/><path d="M457.1588,157.66668l1.08774,0.53592l-1.05541,0.6254z" fill="url(#color-3)" stroke-linecap="round"/></g><path d="M455.57029,157.40385l0.04974,1.78667l-0.56576,0.01575l-0.04974,-1.78667z" fill="url(#color-4)" stroke-linecap="butt"/><path d="M455.11924,157.42571l0.36978,0.43671l0.0257,0.92311l-0.40612,0.3987l-1.81559,0.08035l-0.05308,-1.90576z" fill="url(#color-5)" stroke-linecap="round"/><path d="M454.79973,157.72332l0.03317,1.19111l-1.71632,0.43518l-0.05888,-2.1142z" fill="url(#color-6)" stroke-linecap="round"/><g><path d="M452.86398,155.62962l0.47733,1.08933l0.02072,0.74445l0.04145,1.48887l-0.00988,0.7155l-0.35724,1.08278l-0.3838,0.12989l-0.15089,-5.41951z" fill="url(#color-7)" stroke-linecap="round"/><path d="M452.48624,154.90635l0.18157,6.52127l-3.21599,0.08954l-0.18157,-6.52127z" fill="url(#color-8)" stroke-linecap="butt"/><path d="M452.48594,154.89513l1.08774,0.53592l-1.05541,0.6254z" fill="url(#color-9)" stroke-linecap="round"/><path d="M452.63548,160.26659l1.08774,0.53592l-1.05541,0.6254z" fill="url(#color-10)" stroke-linecap="round"/><path d="M450.41493,157.57616c0.3576,-0.00995 0.81911,0.29872 0.83414,0.62164c0.01464,0.31505 -0.45843,0.54479 -0.77678,0.6665l-1.11629,0.05258l-0.01499,-1.31082z" fill="#000000" stroke-linecap="round"/></g><path d="M453.66315,157.46029l0.77348,0.79799l-0.72789,0.83977l-1.53026,0.0426l-0.04561,-1.63776z" fill="url(#color-11)" stroke-linecap="round"/></g><path d="M449.09028,158.14859c0,0 -0.67309,-0.38481 -0.71485,-0.72011c-0.10562,-0.86781 0.3689,-1.42607 0.30415,-2.14397c-0.04833,-0.54123 -0.71221,-1.43756 -0.71221,-1.43756" data-paper-data="{&quot;origPos&quot;:null,&quot;origRot&quot;:0}" fill="none" stroke="#bd8247" stroke-linecap="round"/><g data-paper-data="{&quot;origPos&quot;:null}"><path d="M450.53265,162.75583l-1.12291,0.03127z" fill="none" stroke="#763e13" stroke-linecap="round"/><path d="M450.95989,162.73975c0.00436,0.15604 -0.05506,0.29924 -0.15463,0.4045c-0.09955,0.10526 -0.23923,0.17255 -0.39526,0.17689c-0.15604,0.00436 -0.29925,-0.05506 -0.4045,-0.15463c-0.10526,-0.09955 -0.17254,-0.23922 -0.17688,-0.39526c-0.00436,-0.15604 0.05506,-0.29925 0.15463,-0.4045c0.09955,-0.10526 0.23922,-0.17254 0.39526,-0.17688c0.15604,-0.00436 0.29924,0.05506 0.4045,0.15463c0.10526,0.09955 0.17255,0.23923 0.17689,0.39526z" fill="#006521" stroke="none" stroke-linecap="butt"/><path d="M451.46685,162.75509c0.00296,0.10596 -0.0374,0.20321 -0.105,0.27469c-0.0676,0.07148 -0.16247,0.11717 -0.26842,0.12011c-0.10597,0.00295 -0.20321,-0.0374 -0.2747,-0.10501c-0.07148,-0.0676 -0.11717,-0.16247 -0.12011,-0.26842c-0.00295,-0.10597 0.0374,-0.20321 0.10501,-0.2747c0.06761,-0.07148 0.16247,-0.11717 0.26844,-0.12012c0.10596,-0.00296 0.20321,0.0374 0.27469,0.105c0.07148,0.06761 0.11717,0.16247 0.12012,0.26844z" fill="#006521" stroke="none" stroke-linecap="butt"/><path d="M451.79439,162.78657c0.0017,0.06104 -0.02156,0.11706 -0.06048,0.15826c-0.03895,0.04119 -0.0936,0.06749 -0.15465,0.0692c-0.06104,0.0017 -0.11706,-0.02156 -0.15826,-0.06049c-0.04119,-0.03895 -0.0675,-0.09361 -0.0692,-0.15465c-0.0017,-0.06104 0.02156,-0.11706 0.06049,-0.15824c0.03896,-0.0412 0.09361,-0.06753 0.15464,-0.06922c0.06104,-0.0017 0.11706,0.02156 0.15826,0.0605c0.04118,0.03894 0.06749,0.09359 0.06921,0.15463z" fill="#006521" stroke="none" stroke-linecap="butt"/></g><g data-paper-data="{&quot;origPos&quot;:null}"><path d="M449.43851,161.10904l-1.1229,0.03127z" fill="none" stroke="#763e13" stroke-linecap="round"/><path d="M449.86574,161.09296c0.00436,0.15604 -0.05506,0.29924 -0.15463,0.4045c-0.09955,0.10526 -0.23923,0.17255 -0.39526,0.17689c-0.15604,0.00436 -0.29925,-0.05506 -0.4045,-0.15463c-0.10526,-0.09955 -0.17254,-0.23922 -0.17688,-0.39526c-0.00436,-0.15604 0.05506,-0.29925 0.15463,-0.4045c0.09955,-0.10526 0.23922,-0.17254 0.39526,-0.17688c0.15604,-0.00436 0.29925,0.05506 0.4045,0.15463c0.10526,0.09955 0.17254,0.23922 0.17688,0.39526z" fill="#006521" stroke="none" stroke-linecap="butt"/><path d="M450.37271,161.1083c0.00296,0.10596 -0.03741,0.20321 -0.105,0.27469c-0.0676,0.07148 -0.16247,0.11717 -0.26842,0.12011c-0.10597,0.00295 -0.20321,-0.0374 -0.2747,-0.10501c-0.07148,-0.0676 -0.11717,-0.16247 -0.12011,-0.26842c-0.00295,-0.10597 0.0374,-0.20321 0.10501,-0.2747c0.06761,-0.07148 0.16247,-0.11717 0.26844,-0.12012c0.10596,-0.00296 0.20321,0.0374 0.27469,0.105c0.07148,0.06761 0.11717,0.16247 0.12012,0.26844z" fill="#006521" stroke="none" stroke-linecap="butt"/><path d="M450.70024,161.13978c0.0017,0.06104 -0.02156,0.11706 -0.06048,0.15826c-0.03895,0.04119 -0.09361,0.0675 -0.15465,0.0692c-0.06104,0.0017 -0.11706,-0.02156 -0.15826,-0.06049c-0.04119,-0.03895 -0.06749,-0.0936 -0.06919,-0.15464c-0.0017,-0.06104 0.02155,-0.11706 0.06049,-0.15824c0.03896,-0.0412 0.09362,-0.06752 0.15464,-0.06922c0.06104,-0.0017 0.11706,0.02156 0.15826,0.0605c0.04118,0.03894 0.06749,0.09359 0.06921,0.15463z" fill="#006521" stroke="none" stroke-linecap="butt"/></g><g data-paper-data="{&quot;origPos&quot;:null}"><path d="M450.48085,153.96843l-1.12291,0.03127z" fill="none" stroke="#763e13" stroke-linecap="round"/><path d="M450.9081,153.95235c0.00436,0.15604 -0.05506,0.29924 -0.15463,0.4045c-0.09955,0.10526 -0.23923,0.17255 -0.39526,0.17689c-0.15604,0.00436 -0.29924,-0.05506 -0.4045,-0.15463c-0.10526,-0.09955 -0.17254,-0.23922 -0.17688,-0.39526c-0.00436,-0.15604 0.05506,-0.29924 0.15463,-0.4045c0.09955,-0.10526 0.23923,-0.17255 0.39526,-0.17689c0.15604,-0.00436 0.29924,0.05506 0.4045,0.15463c0.10526,0.09955 0.17255,0.23923 0.17689,0.39526z" fill="#006521" stroke="none" stroke-linecap="butt"/><path d="M451.41507,153.96769c0.00296,0.10596 -0.0374,0.20321 -0.105,0.27469c-0.0676,0.07148 -0.16247,0.11717 -0.26842,0.12011c-0.10597,0.00295 -0.20321,-0.0374 -0.2747,-0.10501c-0.07148,-0.0676 -0.11717,-0.16247 -0.12011,-0.26842c-0.00295,-0.10597 0.0374,-0.20321 0.10501,-0.2747c0.06761,-0.07148 0.16247,-0.11717 0.26844,-0.12012c0.10596,-0.00296 0.20321,0.0374 0.27469,0.105c0.07148,0.06761 0.11717,0.16247 0.12012,0.26844z" fill="#006521" stroke="none" stroke-linecap="butt"/><path d="M451.7426,153.99917c0.0017,0.06104 -0.02156,0.11706 -0.0605,0.15826c-0.03895,0.04119 -0.0936,0.06749 -0.15464,0.06919c-0.06104,0.0017 -0.11706,-0.02156 -0.15826,-0.06049c-0.04119,-0.03895 -0.06749,-0.0936 -0.06919,-0.15464c-0.0017,-0.06104 0.02155,-0.11706 0.06049,-0.15824c0.03896,-0.0412 0.09361,-0.06753 0.15464,-0.06922c0.06104,-0.0017 0.11706,0.02156 0.15826,0.0605c0.04118,0.03894 0.06749,0.09359 0.06921,0.15463z" fill="#006521" stroke="none" stroke-linecap="butt"/></g><g data-paper-data="{&quot;origPos&quot;:null}"><path d="M449.70303,151.93545l-1.12291,0.03127z" fill="none" stroke="#763e13" stroke-linecap="round"/><path d="M450.13027,151.91936c0.00436,0.15604 -0.05506,0.29924 -0.15463,0.4045c-0.09955,0.10526 -0.23923,0.17255 -0.39526,0.17689c-0.15604,0.00436 -0.29924,-0.05506 -0.4045,-0.15463c-0.10526,-0.09955 -0.17254,-0.23922 -0.17688,-0.39526c-0.00436,-0.15604 0.05506,-0.29924 0.15463,-0.4045c0.09955,-0.10526 0.23923,-0.17255 0.39526,-0.17689c0.15604,-0.00436 0.29924,0.05506 0.4045,0.15463c0.10526,0.09955 0.17255,0.23923 0.17689,0.39526z" fill="#006521" stroke="none" stroke-linecap="butt"/><path d="M450.62886,151.93494c0.00296,0.10596 -0.03741,0.20321 -0.105,0.27469c-0.0676,0.07148 -0.16247,0.11717 -0.26842,0.12011c-0.10597,0.00295 -0.20321,-0.0374 -0.2747,-0.10501c-0.07148,-0.0676 -0.11717,-0.16247 -0.12011,-0.26842c-0.00295,-0.10597 0.0374,-0.20321 0.10501,-0.2747c0.06761,-0.07148 0.16247,-0.11717 0.26844,-0.12014c0.10596,-0.00296 0.20321,0.03741 0.27469,0.105c0.07148,0.06761 0.11717,0.16247 0.12013,0.26843z" fill="#006521" stroke="none" stroke-linecap="butt"/><path d="M450.95638,151.96642c0.0017,0.06104 -0.02156,0.11706 -0.06049,0.15826c-0.03895,0.04119 -0.09361,0.0675 -0.15465,0.0692c-0.06104,0.0017 -0.11706,-0.02156 -0.15826,-0.0605c-0.04119,-0.03895 -0.06749,-0.0936 -0.06919,-0.15464c-0.0017,-0.06104 0.02155,-0.11706 0.06049,-0.15824c0.03896,-0.0412 0.09362,-0.06752 0.15464,-0.06922c0.06104,-0.0017 0.11706,0.02156 0.15826,0.0605c0.04118,0.03894 0.06749,0.09359 0.06921,0.15463z" fill="#006521" stroke="none" stroke-linecap="butt"/></g><g data-paper-data="{&quot;origPos&quot;:null}"><path d="M448.62025,163.94963l1.1229,-0.03127z" fill="none" stroke="#763e13" stroke-linecap="round"/><path d="M450.1704,163.90226c0.00436,0.15604 -0.05506,0.29924 -0.15463,0.4045c-0.09955,0.10526 -0.23923,0.17255 -0.39526,0.17689c-0.15604,0.00436 -0.29924,-0.05506 -0.4045,-0.15463c-0.10526,-0.09955 -0.17255,-0.23923 -0.17689,-0.39526c-0.00436,-0.15604 0.05506,-0.29924 0.15463,-0.4045c0.09955,-0.10526 0.23922,-0.17254 0.39526,-0.17688c0.15604,-0.00436 0.29925,0.05506 0.4045,0.15463c0.10526,0.09955 0.17254,0.23922 0.17688,0.39526z" fill="#006521" stroke="none" stroke-linecap="butt"/><path d="M450.669,163.91784c0.00296,0.10596 -0.0374,0.20321 -0.105,0.27469c-0.0676,0.07148 -0.16247,0.11717 -0.26842,0.12011c-0.10597,0.00295 -0.20321,-0.0374 -0.2747,-0.10501c-0.07148,-0.0676 -0.11717,-0.16247 -0.12011,-0.26842c-0.00295,-0.10597 0.0374,-0.20321 0.10501,-0.2747c0.06761,-0.07148 0.16247,-0.11717 0.26844,-0.12012c0.10596,-0.00296 0.20321,0.0374 0.27469,0.105c0.07148,0.06761 0.11717,0.16247 0.12012,0.26844z" fill="#006521" stroke="none" stroke-linecap="butt"/><path d="M450.99675,163.9577c0.0017,0.06104 -0.02156,0.11706 -0.06049,0.15826c-0.03895,0.04119 -0.09361,0.0675 -0.15465,0.0692c-0.06104,0.0017 -0.11706,-0.02156 -0.15826,-0.06049c-0.04119,-0.03895 -0.06749,-0.0936 -0.06919,-0.15464c-0.0017,-0.06104 0.02155,-0.11706 0.06049,-0.15824c0.03896,-0.0412 0.09362,-0.06752 0.15464,-0.06922c0.06104,-0.0017 0.11706,0.02156 0.15826,0.0605c0.04118,0.03894 0.06749,0.09359 0.06921,0.15463z" fill="#006521" stroke="none" stroke-linecap="butt"/></g><path d="M445.23706,151.91081l-1.85301,0.87766" data-paper-data="{&quot;origPos&quot;:null}" fill="none" stroke="#763e13" stroke-linecap="round"/><path d="M445.74182,156.55284l-1.47782,0.86723" data-paper-data="{&quot;origPos&quot;:null}" fill="none" stroke="#763e13" stroke-linecap="round"/><path d="M443.71401,161.94129l1.92179,-1.10489" data-paper-data="{&quot;origPos&quot;:null}" fill="none" stroke="#763e13" stroke-linecap="round"/><path d="M446.05886,159.84832l-1.37578,-0.86286" data-paper-data="{&quot;origPos&quot;:null}" fill="none" stroke="#763e13" stroke-linecap="round"/><path d="M446.33224,164.27151l-1.16513,1.30911" data-paper-data="{&quot;origPos&quot;:null}" fill="none" stroke="#763e13" stroke-linecap="round"/><path d="M446.27737,154.2099l-0.54199,-0.58569" data-paper-data="{&quot;origPos&quot;:null}" fill="none" stroke="#763e13" stroke-linecap="round"/><path d="M446.94418,151.1874l0.11264,1.34863" data-paper-data="{&quot;origPos&quot;:null}" fill="none" stroke="#763e13" stroke-linecap="round"/><path d="M446.65937,162.53515l0.47113,0.73786" data-paper-data="{&quot;origPos&quot;:null}" fill="none" stroke="#763e13" stroke-linecap="round"/></g><g data-paper-data="{&quot;origPos&quot;:null}" fill="none" stroke="none" stroke-width="1" stroke-linecap="butt" font-family="sans-serif" font-weight="normal" font-size="12" text-anchor="start"><g data-paper-data="{&quot;origPos&quot;:null}"/></g></g><g><path d="M412.69754,101.73768c-2.46993,1.12717 -6.35904,-2.09364 -8.68657,-7.19388c-2.32752,-5.10022 -2.21209,-10.14856 0.25785,-11.27572c2.46992,-1.12717 6.35902,2.09367 8.68654,7.19388c2.32752,5.10022 2.21209,10.14854 -0.25784,11.27571z" data-paper-data="{&quot;origPos&quot;:null}" fill="#825c26" stroke="none" stroke-width="2" stroke-linecap="butt"/><path d="M413.85914,101.20756c-2.46993,1.12717 -6.35902,-2.09363 -8.68655,-7.19388c-2.32752,-5.10022 -2.2121,-10.14854 0.25784,-11.27572c2.46992,-1.12717 6.35901,2.09364 8.68654,7.19388c2.32752,5.10022 2.21209,10.14855 -0.25784,11.27571z" data-paper-data="{&quot;origPos&quot;:null}" fill="#eaa544" stroke="none" stroke-width="2" stroke-linecap="butt"/><path d="M415.16339,89.39177l-5.79834,2.53091" data-paper-data="{&quot;origPos&quot;:null}" fill="none" stroke="#825c26" stroke-width="3" stroke-linecap="round"/><path d="M411.94929,96.02165l-1.33499,0.48603" data-paper-data="{&quot;origPos&quot;:null}" fill="none" stroke="#825c26" stroke-width="1.5" stroke-linecap="round"/><path d="M411.85938,90.00663l2.37229,-3.63555" data-paper-data="{&quot;origPos&quot;:null}" fill="none" stroke="#825c26" stroke-width="1.5" stroke-linecap="round"/><path d="M416.37809,91.80542l-2.09753,-0.9163" data-paper-data="{&quot;origPos&quot;:null}" fill="none" stroke="#825c26" stroke-width="1.5" stroke-linecap="round"/><path d="M408.3849,86.14775l-1.18669,0.43202" fill="none" stroke="#825c26" stroke-width="1.5" stroke-linecap="round"/><path d="M417.15545,87.82654c-1.16739,0.425 -2.5852,-0.52549 -3.16679,-2.12298c-0.58158,-1.59748 -0.10667,-3.23703 1.0607,-3.66203c1.16739,-0.425 2.58521,0.52549 3.1668,2.12297c0.58158,1.59748 0.10667,3.23704 -1.06072,3.66204z" data-paper-data="{&quot;origPos&quot;:null}" fill="url(#color-12)" stroke="none" stroke-width="0" stroke-linecap="butt"/><path d="M418.86527,92.32786c-1.40686,0.51219 -3.11552,-0.63329 -3.81639,-2.55845c-0.70087,-1.92517 -0.12858,-3.90103 1.27828,-4.41322c1.40686,-0.51219 3.1155,0.63328 3.81639,2.55845c0.70087,1.92517 0.12858,3.90103 -1.27828,4.41322z" data-paper-data="{&quot;origPos&quot;:null}" fill="url(#color-13)" stroke="none" stroke-width="0" stroke-linecap="butt"/><path d="M421.34013,92.43482c-1.40686,0.51219 -3.11552,-0.63329 -3.81639,-2.55844c-0.70087,-1.92517 -0.12857,-3.90103 1.2783,-4.41322c1.40686,-0.51219 3.1155,0.63328 3.81639,2.55845c0.70087,1.92517 0.12858,3.90103 -1.27829,4.41322z" data-paper-data="{&quot;origPos&quot;:null}" fill="url(#color-14)" stroke="none" stroke-width="0" stroke-linecap="butt"/><path d="M419.71159,95.22931c-1.1406,0.41526 -2.52592,-0.51342 -3.09416,-2.07426c-0.56824,-1.56084 -0.10425,-3.16277 1.03637,-3.57801c1.1406,-0.41526 2.52591,0.51342 3.09415,2.07426c0.56824,1.56084 0.10424,3.16277 -1.03636,3.57801z" data-paper-data="{&quot;origPos&quot;:null}" fill="url(#color-15)" stroke="none" stroke-width="0" stroke-linecap="butt"/><path d="M410.16073,91.801c-0.81922,0.29825 -1.81418,-0.36876 -2.22231,-1.48981c-0.40813,-1.12104 -0.07487,-2.27161 0.74436,-2.56986c0.81922,-0.29825 1.81418,0.36876 2.22231,1.48981c0.40813,1.12104 0.07487,2.2716 -0.74435,2.56985z" data-paper-data="{&quot;origPos&quot;:null}" fill="url(#color-16)" stroke="none" stroke-width="0" stroke-linecap="butt"/><path d="M413.47432,98.82631c-0.81922,0.29825 -1.81418,-0.36876 -2.22231,-1.48981c-0.40813,-1.12104 -0.07487,-2.2716 0.74435,-2.56985c0.81922,-0.29825 1.81418,0.36877 2.22231,1.48981c0.40813,1.12104 0.07488,2.2716 -0.74435,2.56985z" data-paper-data="{&quot;origPos&quot;:null}" fill="url(#color-17)" stroke="none" stroke-width="0" stroke-linecap="butt"/><path d="M414.10012,95.23862c-0.81922,0.29825 -1.81418,-0.36875 -2.22231,-1.4898c-0.40813,-1.12104 -0.07487,-2.27161 0.74435,-2.56986c0.81922,-0.29825 1.81418,0.36876 2.22231,1.48981c0.40813,1.12104 0.07487,2.27161 -0.74436,2.56986z" data-paper-data="{&quot;origPos&quot;:null}" fill="url(#color-18)" stroke="none" stroke-width="0" stroke-linecap="butt"/><path d="M410.24683,87.6538c-0.81922,0.29825 -1.81417,-0.36877 -2.22231,-1.48981c-0.40813,-1.12104 -0.07487,-2.2716 0.74435,-2.56985c0.81922,-0.29825 1.81418,0.36876 2.22231,1.4898c0.40813,1.12104 0.07487,2.2716 -0.74435,2.56985z" data-paper-data="{&quot;origPos&quot;:null}" fill="url(#color-19)" stroke="none" stroke-width="0" stroke-linecap="butt"/></g></g></g></svg>