<svg version="1.1" xmlns="http://www.w3.org/2000/svg" xmlns:xlink="http://www.w3.org/1999/xlink" width="114.17213" height="79.6436" viewBox="0,0,114.17213,79.6436"><g transform="translate(-182.74652,-139.34487)"><g data-paper-data="{&quot;isPaintingLayer&quot;:true}" fill="none" fill-rule="nonzero" stroke="#ffffff" stroke-width="10" stroke-linejoin="miter" stroke-miterlimit="10" stroke-dasharray="" stroke-dashoffset="0" style="mix-blend-mode: normal"><g><path d="M258.6868,213.98847h-37.4936" data-paper-data="{&quot;origPos&quot;:null}" stroke-linecap="round"/><path d="M239.52668,188.68397v23.62446" data-paper-data="{&quot;origPos&quot;:null}" stroke-linecap="round"/><path d="M208.57091,156.2806c0,-17.08139 13.84717,-10.81243 30.92856,-10.81243c17.08139,0 30.92856,-6.26895 30.92856,10.81243c0,17.08139 -13.84717,30.92856 -30.92856,30.92856c-17.08139,0 -30.92856,-13.84717 -30.92856,-30.92856z" data-paper-data="{&quot;origPos&quot;:null}" stroke-linecap="butt"/></g><path d="M188.40004,158.4316c-4.33847,-16.61726 14.0596,-16.72306 21.73399,-8.60909c0,0 -0.73107,10.46215 0.25459,17.65063c0.44221,3.22505 -19.90605,-1.06498 -21.98858,-9.04154z" stroke-linecap="butt"/><path d="M269.27655,167.47314c0.98566,-7.18848 0.25459,-17.65063 0.25459,-17.65063c7.67439,-8.11398 26.07246,-8.00818 21.73399,8.60909c-2.08253,7.97656 -22.43079,12.2666 -21.98858,9.04155z" data-paper-data="{&quot;index&quot;:null}" stroke-linecap="butt"/></g></g></svg>