<svg version="1.1" xmlns="http://www.w3.org/2000/svg" xmlns:xlink="http://www.w3.org/1999/xlink" width="726.19048" height="142.46032" viewBox="0,0,726.19048,142.46032"><defs><linearGradient x1="238.21432" y1="-7.7619" x2="238.21432" y2="134.46032" gradientUnits="userSpaceOnUse" id="color-1"><stop offset="0" stop-color="#000000"/><stop offset="1" stop-color="#000000" stop-opacity="0"/></linearGradient><linearGradient x1="242.02384" y1="-8" x2="242.02384" y2="134.22222" gradientUnits="userSpaceOnUse" id="color-2"><stop offset="0" stop-color="#000000"/><stop offset="1" stop-color="#000000" stop-opacity="0"/></linearGradient></defs><g transform="translate(123.21427,8)"><g data-paper-data="{&quot;isPaintingLayer&quot;:true}" fill-rule="nonzero" stroke-linejoin="miter" stroke-miterlimit="10" stroke-dasharray="" stroke-dashoffset="0" style="mix-blend-mode: normal"><path d="M-123.21426,134.46032v-142.22222h722.85714v142.22222z" fill="url(#color-1)" stroke="none" stroke-width="0" stroke-linecap="butt"/><path d="M-118.92854,134.22222v-142.22222h721.90476v142.22222z" fill="url(#color-2)" stroke="none" stroke-width="0" stroke-linecap="butt"/><path d="M472.00003,5.53197v60.37657h-464v-60.37657z" data-paper-data="{&quot;index&quot;:null}" fill="none" stroke="#ffffff" stroke-width="0.5" stroke-linecap="butt"/><g><path d="M462.44758,70.78157c2.63643,0 5.02507,1.07115 6.75533,2.80067c1.72952,1.73025 2.80067,4.11888 2.80067,6.75532c0,2.63643 -1.07115,5.02506 -2.80067,6.75532c-1.73025,1.72952 -4.11888,2.80067 -6.75533,2.80067c-2.63643,0 -5.02506,-1.07115 -6.75532,-2.80067c-1.72952,-1.73025 -2.80067,-4.11888 -2.80067,-6.75532c0,-2.63643 1.07115,-5.02507 2.80067,-6.75532c1.73025,-1.72952 4.11888,-2.80067 6.75532,-2.80067z" fill="#000000" stroke="#ffffff" stroke-width="2" stroke-linecap="butt"/><path d="M459.22808,75.73795l7.22076,0.40087l0.02161,2.75373l-5.10053,3.55243l5.21643,0.0065l0.39654,2.68108l-9.20432,-0.32778l0.24,-2.43459l4.82811,-3.45255l-4.68237,-0.16864z" fill="#ffffff" stroke="none" stroke-width="1" stroke-linecap="round"/></g></g></g></svg>