<svg version="1.1" xmlns="http://www.w3.org/2000/svg" xmlns:xlink="http://www.w3.org/1999/xlink" width="50.4791" height="53.72875" viewBox="0,0,50.4791,53.72875"><defs><linearGradient x1="240" y1="151.62232" x2="240" y2="158.99198" gradientUnits="userSpaceOnUse" id="color-1"><stop offset="0" stop-color="#996840"/><stop offset="1" stop-color="#bf8250"/></linearGradient><linearGradient x1="240" y1="126.32079" x2="240" y2="151.84078" gradientUnits="userSpaceOnUse" id="color-2"><stop offset="0" stop-color="#af774a"/><stop offset="1" stop-color="#e69c60"/></linearGradient></defs><g transform="translate(-214.76045,-126.32079)"><g data-paper-data="{&quot;isPaintingLayer&quot;:true}" fill-rule="nonzero" stroke-linejoin="miter" stroke-miterlimit="10" stroke-dasharray="" stroke-dashoffset="0" style="mix-blend-mode: normal"><path d="M218.55398,180.04954v-6.69698h42.86063v6.69698z" fill="#cc8b56" stroke="none" stroke-width="0" stroke-linecap="butt"/><path d="M224.41804,174.02226v-16.84285h30.9923v16.84285z" fill="#cc8b56" stroke="none" stroke-width="0" stroke-linecap="butt"/><path d="M214.76045,158.99198v-7.36966h50.4791v7.36966z" fill="url(#color-1)" stroke="none" stroke-width="0" stroke-linecap="butt"/><path d="M214.76045,151.84078l5.19323,-25.51999h41.03686l4.24901,25.51999z" fill="url(#color-2)" stroke="none" stroke-width="0" stroke-linecap="butt"/><path d="M229.04529,170.82793v-9.58214h22.01825v9.58214z" fill="#e6c6ac" stroke="none" stroke-width="0" stroke-linecap="butt"/><path d="M248.53254,164.45509c0,0.77197 -0.77197,0.77197 -0.77197,0.77197h-0.66368c-5.04223,0 -9.83374,0.49324 -14.84353,-0.00383c0,0 -0.76813,-0.07681 -0.69133,-0.84495c0.07681,-0.76814 0.84495,-0.69133 0.84495,-0.69133c4.95458,0.49905 9.69878,-0.00383 14.68991,-0.00383h0.66368c0,0 0.77197,0 0.77197,0.77197z" fill="#91804e" stroke="none" stroke-width="0.5" stroke-linecap="butt"/><path d="M249.61099,167.60753c0,0.77197 -0.77197,0.77197 -0.77197,0.77197l-0.09748,-0.01499c-0.50539,0.10009 -1.00615,0.22995 -1.49461,0.39378c-5.07792,1.49282 -9.76871,-0.50819 -15.17177,0.03218c0,0 -0.76814,0.07681 -0.84495,-0.69133c-0.07681,-0.76814 0.69133,-0.84495 0.69133,-0.84495c5.24868,-0.52482 10.00683,1.51278 14.85941,0.03218c0.54237,-0.17976 1.09771,-0.32282 1.65782,-0.43581l0.40027,-0.01499c0,0 0.77197,0 0.77197,0.77197z" fill="#91804e" stroke="none" stroke-width="0.5" stroke-linecap="butt"/><path d="M219.2761,144.85204l0.4688,-4.33636l1.78052,-3.97574l0.10368,-5.05307l2.16819,-3.17338h4.68794l1.52358,0.7032l1.17197,-0.7032l1.99238,-0.35159h9.84468l4.10194,0.93759l1.52359,-0.4688l4.10194,0.1172l6.00328,2.25701l0.79426,7.56063l-0.52049,5.11947l0.63769,3.20162l-0.46879,2.34398h-6.83809l-5.98616,-1.50105l-5.57594,1.2937l-3.75248,0.25037l-4.803,-0.60197l-7.09954,0.83391l-5.50833,0.1172z" fill="#e6e0ce" stroke="#000000" stroke-width="0" stroke-linecap="round"/><path d="M239.54423,147.5433c-0.38598,0 -0.38598,-0.38598 -0.38598,-0.38598l0.00749,-0.00224c-0.55426,-2.83486 -0.00324,-6.69733 0.54436,-9.49736c0.44774,-2.63924 0.53922,-5.3538 0.53922,-8.03556c0,0 0,-0.38598 0.38598,-0.38598c0.38598,0 0.38598,0.38598 0.38598,0.38598c0,2.73253 -0.11016,5.48355 -0.55187,8.17473c-0.54541,2.65789 -1.10018,6.51274 -0.54671,9.20679l0.00749,0.15364c0,0 0,0.38598 -0.38598,0.38598z" fill="#665a37" stroke="none" stroke-width="0.5" stroke-linecap="butt"/><g fill="#d7be74" stroke="none" stroke-width="0.5" stroke-linecap="butt"><path d="M237.20252,130.94704c0,0.38598 -0.38598,0.38598 -0.38598,0.38598l-0.17034,-0.00525c-1.23617,0.20272 -2.52357,0.24144 -3.77692,0.23808c-2.60233,0.37175 -6.28516,0.40102 -8.74345,-0.57218c0,0 -0.35838,-0.14334 -0.21502,-0.50172c0.14335,-0.35838 0.50173,-0.21502 0.50173,-0.21502c2.33068,0.94367 5.93683,0.87108 8.40203,0.5189c1.22861,-0.00287 2.4941,-0.02404 3.70473,-0.22952l0.29725,-0.00525c0,0 0.38598,0 0.38598,0.38598z"/><path d="M232.05889,133.83061c0,0.38598 -0.38598,0.38598 -0.38598,0.38598h-0.31174c-2.73026,0 -5.16059,0.14453 -7.8691,-0.39716c0,0 -0.37848,-0.0757 -0.30278,-0.4542c0.0757,-0.3785 0.45418,-0.30278 0.45418,-0.30278c2.66112,0.53223 5.03391,0.38217 7.71771,0.38217h0.31174c0,0 0.38598,0 0.38598,0.38598z"/><path d="M233.09685,133.76814c-0.08952,-0.05129 -0.17332,-0.14734 -0.17332,-0.32721c0,-0.30576 0.24221,-0.36931 0.34289,-0.38253c0.04314,-0.10037 0.16577,-0.29641 0.44844,-0.22574c0.1711,0.04277 0.24447,0.14417 0.27371,0.2417c3.06986,0.18666 3.61728,1.72961 2.86861,5.1222c-0.6362,0.7683 -3.40571,0.53613 -3.97083,-0.53047c-0.46205,-0.87209 -0.027,-2.78971 0.21052,-3.89798zM233.8713,133.83617c-0.21076,0.9794 -0.62074,2.66952 -0.29449,3.48472c0.12407,0.31002 2.48269,0.7739 2.57563,0.5606c0.51838,-3.07968 0.39235,-3.9496 -2.28114,-4.04532z"/><path d="M231.66921,136.32449c0,0.38598 -0.38598,0.38598 -0.38598,0.38598l-0.15364,-0.00749c-2.60047,-0.53425 -5.47921,0.67279 -8.01692,-0.33185c0,0 -0.35838,-0.14335 -0.21502,-0.50173c0.14335,-0.35838 0.50173,-0.21502 0.50173,-0.21502c2.43518,0.98598 5.35134,-0.20309 7.88161,0.29162l0.00224,-0.00749c0,0 0.38598,0 0.38598,0.38598z"/><path d="M231.27954,139.36392c0,0.38598 -0.38598,0.38598 -0.38598,0.38598h-0.31174c-0.27246,0 -0.54492,-0.00068 -0.81738,-0.00188c-2.45113,-0.49023 -4.72534,-0.23193 -7.20983,-0.23193c0,0 -0.38598,0 -0.38598,-0.38598c0,-0.38598 0.38598,-0.38598 0.38598,-0.38598c2.50354,0 4.81325,-0.25884 7.2859,0.23568c0.24709,-0.00131 0.4942,-0.00188 0.74131,-0.00188h0.31174c0,0 0.38598,0 0.38598,0.38598z"/><path d="M236.72339,140.67312c0.09361,0.37447 -0.28084,0.46808 -0.28084,0.46808l-0.40535,0.08946c-1.61984,-0.00865 -3.25629,0.46636 -4.8885,0.46701c-2.66268,0.29585 -6.13223,0.97223 -8.71614,0.13665c0,0 -0.36618,-0.12206 -0.24411,-0.48824c0.12206,-0.36618 0.48824,-0.24411 0.48824,-0.24411c2.41803,0.83719 5.92059,0.10366 8.42934,-0.17508c1.64933,0.00066 3.29242,-0.461 4.93119,-0.4682l0.21813,-0.0664c0,0 0.37447,-0.09361 0.46808,0.28084z"/><path d="M236.89078,144.1179c0,0.38598 -0.38598,0.38598 -0.38598,0.38598h-0.38967c-2.74843,-0.01207 -4.60304,0.06038 -7.32803,0.61597c0,0 -0.3785,0.0757 -0.45418,-0.3028c-0.0757,-0.3785 0.3028,-0.45418 0.3028,-0.45418c2.76138,-0.53947 4.69861,-0.61611 7.47943,-0.63096h0.38967c0,0 0.38598,0 0.38598,0.38598z"/><path d="M236.49586,146.31452c0.06346,0.38074 -0.31728,0.44419 -0.31728,0.44419l-0.4676,0.07794c-1.87079,0.3116 -5.17133,1.31632 -6.84151,0.16185c0,0 -0.30879,-0.23159 -0.0772,-0.54038c0.23159,-0.30879 0.54038,-0.0772 0.54038,-0.0772c1.17582,1.02584 4.84073,-0.07048 6.25141,-0.30575l0.4676,-0.07794c0,0 0.38074,-0.06346 0.44419,0.31728z"/><path d="M222.10884,143.53713c-0.1122,-0.04113 -0.19917,-0.08289 -0.25342,-0.12359c0,0 -0.30879,-0.23159 -0.0772,-0.54038c0.23159,-0.30879 0.54038,-0.0772 0.54038,-0.0772c0.01493,0.01119 0.02977,0.02216 0.04453,0.03289c0.08155,-0.0851 0.2289,-0.17592 0.44205,-0.06934c0.22926,0.11464 0.23016,0.30539 0.20488,0.42062c1.23132,0.41631 1.74578,-0.9978 2.87238,-0.76922c1.00495,0.20391 0.72107,2.70294 0.72107,3.42152c0,1.73256 -3.44224,3.55416 -5.15086,2.16891c-0.595,-0.4824 0.16797,-2.33561 0.26267,-2.8964c0.20031,-0.50291 0.29478,-1.03578 0.39355,-1.56784zM225.63197,143.70971c-0.50359,0.28898 -1.82242,0.2069 -2.77412,0.02239c-0.09907,0.53663 -0.196,1.07521 -0.39914,1.58089c-0.07826,0.47623 -0.04683,1.47753 -0.17768,1.93479c0.49723,-0.09645 1.35505,-0.16469 1.44258,-0.16469c0.19977,0 2.13885,0.18822 2.14865,0.13543c0.0726,-0.39066 -0.04074,-0.97433 -0.04074,-1.38606c0,-0.48217 -0.13908,-1.45898 -0.19955,-2.12273z"/><path d="M255.66135,129.91822c0.09361,0.37447 -0.28084,0.46808 -0.28084,0.46808l-0.26201,0.06185c-0.44589,0.17652 -0.85432,0.25529 -1.32685,0.33409c-3.45873,0.57607 -6.3515,-0.61822 -9.72727,-0.61822c0,0 -0.38598,0 -0.38598,-0.38598c0,-0.38598 0.38598,-0.38598 0.38598,-0.38598c3.33343,0 6.19452,1.19672 9.60036,0.62872c0.41986,-0.06993 0.77324,-0.12994 1.16705,-0.28938l0.36147,-0.09401c0,0 0.37447,-0.09361 0.46808,0.28084z"/><path d="M243.98647,131.96388c0.11157,0 0.19088,0.03224 0.24726,0.07809c0.10076,0.00239 0.17426,0.03173 0.22789,0.07324c1.52225,0.19968 3.06872,-0.16529 4.55252,-0.46119c2.62803,-0.01155 1.78016,5.94559 1.35735,8.05967c0,3.68355 -6.67819,3.13826 -6.69307,0.35163c0,-2.46042 0.15387,-4.91732 0.15622,-7.37103l-0.23415,-0.34444c0,0 0,-0.38598 0.38598,-0.38598zM244.60316,132.90717c-0.02285,2.384 -0.15279,4.76781 -0.15279,7.15815c-0.00736,1.67672 5.1529,2.42922 5.1529,-0.4277c0.31025,-1.55124 1.00177,-7.2073 -0.51307,-7.21539c-1.46541,0.29431 -2.98247,0.62687 -4.48704,0.48494z"/><path d="M256.77707,133.3433c-0.21411,0.32115 -0.53527,0.10706 -0.53527,0.10706l-0.32849,-0.24544c-0.86576,-1.18263 -2.7278,-0.70898 -3.83423,-0.26289c0,0 -0.35838,0.14335 -0.50173,-0.21502c-0.14335,-0.35838 0.21502,-0.50173 0.21502,-0.50173c1.47443,-0.58437 3.60741,-0.96456 4.7385,0.51646l0.13912,0.0663c0,0 0.32115,0.21411 0.10706,0.53527z"/><path d="M256.44473,134.45631c0.0757,0.3785 -0.3028,0.45418 -0.3028,0.45418l-0.42733,0.08356c-1.34561,-0.0193 -2.57319,0.76809 -3.85458,-0.15325c0,0 -0.30879,-0.23159 -0.0772,-0.54038c0.23159,-0.30879 0.54038,-0.0772 0.54038,-0.0772c0.96524,0.77246 2.27183,0.01512 3.31533,0.00261l0.352,-0.07232c0,0 0.3785,-0.0757 0.45418,0.3028z"/><path d="M256.14048,137.18176c0,0.38598 -0.38598,0.38598 -0.38598,0.38598h-0.31174c-1.11069,0 -2.14642,-0.15906 -3.18277,-0.57314c0,0 -0.35838,-0.14335 -0.21502,-0.50173c0.14335,-0.35838 0.50173,-0.21502 0.50173,-0.21502c0.94447,0.37823 1.88416,0.51793 2.89608,0.51793h0.31174c0,0 0.38598,0 0.38598,0.38598z"/><path d="M256.76396,139.7536c0,0.38598 -0.38598,0.38598 -0.38598,0.38598h-0.15586c-1.22996,0 -3.06436,0.17277 -4.19592,-0.2614c0,0 -0.35838,-0.14335 -0.21502,-0.50173c0.14335,-0.35838 0.50173,-0.21502 0.50173,-0.21502c0.99346,0.42072 2.80707,0.20619 3.90922,0.20619h0.15586c0,0 0.38598,0 0.38598,0.38598z"/><path d="M257.54329,143.65028c0,0.38598 -0.38598,0.38598 -0.38598,0.38598c-1.50673,0 -3.24724,0 -4.75398,0c-3.18606,0 -5.68983,1.63472 -8.77731,-0.29247c0,0 -0.32732,-0.20457 -0.12274,-0.53189c0.20457,-0.32732 0.53189,-0.12274 0.53189,-0.12274c2.90004,1.81498 5.34518,0.17513 8.36817,0.17513c1.50673,0 3.01345,0 4.52018,0h0.2338c0,0 0.38598,0 0.38598,0.38598z"/><path d="M255.71006,145.27015c0.17261,0.34524 -0.17261,0.51785 -0.17261,0.51785l-0.48435,0.19662c-1.13699,-0.00607 -2.27398,0.28208 -3.39725,0.46629c-2.1948,0.00577 -5.97881,0.65925 -7.96858,-0.10423c0,0 -0.35838,-0.14335 -0.21502,-0.50173c0.14335,-0.35838 0.50173,-0.21502 0.50173,-0.21502c1.77667,0.75241 5.59803,0.04555 7.61821,0.05164c1.14818,-0.19488 2.29766,-0.46381 3.46093,-0.46893l0.13912,-0.11512c0,0 0.34524,-0.17261 0.51785,0.17261z"/><path d="M257.46537,141.70194c0,0.38598 -0.38598,0.38598 -0.38598,0.38598h-0.38967c-1.77264,0 -3.52287,-0.15586 -5.29951,-0.15586c0,0 -0.38598,0 -0.38598,-0.38598c0,-0.38598 0.38598,-0.38598 0.38598,-0.38598c1.77667,0 3.52724,0.15586 5.29951,0.15586h0.38967c0,0 0.38598,0 0.38598,0.38598z"/></g></g></g></svg>