<svg version="1.1" xmlns="http://www.w3.org/2000/svg" xmlns:xlink="http://www.w3.org/1999/xlink" width="274.9338" height="107.23742" viewBox="0,0,274.9338,107.23742"><defs><linearGradient x1="341.40021" y1="162.284" x2="341.40021" y2="176.0466" gradientUnits="userSpaceOnUse" id="color-1"><stop offset="0" stop-color="#252525"/><stop offset="1" stop-color="#000000"/></linearGradient><radialGradient cx="263.37498" cy="169.31043" r="28.125" gradientUnits="userSpaceOnUse" id="color-2"><stop offset="0" stop-color="#005eff"/><stop offset="1" stop-color="#005eff" stop-opacity="0"/></radialGradient></defs><g transform="translate(-102.5331,-118.43777)"><g data-paper-data="{&quot;isPaintingLayer&quot;:true}" fill-rule="nonzero" stroke-linecap="butt" stroke-linejoin="miter" stroke-miterlimit="10" stroke-dasharray="" stroke-dashoffset="0" style="mix-blend-mode: normal"><path d="M329.66092,170.52345c0,-7.27175 5.89492,-13.16667 13.16667,-13.16667c7.27175,0 13.16667,5.89492 13.16667,13.16667c0,7.27175 -5.89492,13.16666 -13.16667,13.16666c-7.27175,0 -13.16667,-5.89491 -13.16667,-13.16666z" fill-opacity="0.4" fill="#000000" stroke="none" stroke-width="NaN"/><g><path d="M341.13823,156.9135c3.345,0 6.376,1.345 8.571,3.517c2.195,2.172 3.554,5.172 3.554,8.483c0,3.311 -1.359,6.311 -3.554,8.483c-2.195,2.172 -5.226,3.517 -8.571,3.517c-3.345,0 -6.376,-1.345 -8.571,-3.517c-2.195,-2.172 -3.554,-5.172 -3.554,-8.483c0,-3.311 1.359,-6.311 3.554,-8.483c2.195,-2.172 5.226,-3.517 8.571,-3.517z" fill="#f0f0f0" stroke="#ff912a" stroke-width="2"/><path d="M347.9859,165.50858c-0.75225,0.6562 -2.13093,1.77659 -4.12525,3.36273c3.24168,1.7389 5.04924,2.772 5.43497,3.08998l-3.72333,3.48458c-1.89855,-2.1258 -3.11145,-3.47324 -3.64173,-4.02065c-1.84178,2.63225 -3.47321,4.62139 -3.47321,4.62139c-2.56215,-1.31406 -4.14594,-2.37128 -4.14594,-2.37128l4.39442,-4.3504c-3.25313,-1.89478 -4.9868,-2.98376 -5.20104,-3.26694c1.88299,-2.37305 2.92764,-3.62795 3.14627,-3.77397c0.01105,0.07874 1.51752,1.45578 4.51763,4.14208c1.47849,-1.99932 2.48587,-3.30346 3.02369,-3.92324z" fill="url(#color-1)" stroke="none" stroke-width="0.26459"/></g><path d="M252.32763,170.85678c0,-7.27175 5.89491,-13.16667 13.16666,-13.16667c7.27175,0 13.16666,5.89492 13.16666,13.16667c0,7.27175 -5.89491,13.16666 -13.16666,13.16666c-7.27175,0 -13.16666,-5.89491 -13.16666,-13.16666z" fill-opacity="0.4" fill="#000000" stroke="none" stroke-width="NaN"/><g fill-opacity="0.4" fill="#000000" stroke="none" stroke-width="1"><path d="M294.18235,170.61611l-1.39981,-0.57769l-1.26649,-0.08888l-1.16651,0.11111l-1.29982,0.4666l-0.64436,0.88877l-0.31106,0.87766l-0.11111,0.97765l0.22221,1.1665l0.66657,0.95543l1.11096,0.41106h0.99986l1.08875,-0.56658l0.74435,-0.9221l0.42217,-1.38871l0.3666,-2.26635zM294.88223,170.56055l1.1554,-0.08888l0.73323,7.96559h-2.44412l-0.21108,-2.23304l-0.86655,1.27761l-0.92209,0.68878l-1.1443,0.26664h-2.07749l-1.28871,-0.2111l-0.86655,-0.57771l-0.64435,-0.77766l-0.52215,-1.12207l-0.33329,-1.9553l0.1111,-1.63311l0.31108,-1.56645l0.42217,-0.89989l1.06653,-1.12207l1.07762,-0.67768l1.27761,-0.45548l1.47756,-0.22219l1.4998,0.08887l1.17761,0.27774l1.12207,0.44438l1.24427,0.86655z"/><path d="M301.83686,167.2499l0.05556,1.29981l1.03319,-0.79988l1.08875,-0.27775l1.06651,-0.05555l1.12207,0.31107l0.54438,0.37774l0.64435,0.59991l0.62214,0.86655l0.19997,1.13319l0.1222,1.93306l-0.11111,1.93308l-0.2111,3.87725h-2.82182l0.22218,-3.35511l0.11111,-1.66643l-0.11111,-1.67755l-0.43327,-0.66658l-0.76657,-0.36662l-0.96654,-0.01118l-0.74435,0.48883l-0.36662,0.54435l-0.15553,0.75546l0.05556,2.97737l0.05555,2.97737h-3.1329l-0.29996,-11.04295z"/><path d="M319.06789,162.67273h2.79962l-0.06667,15.65344h-2.51076v-1.99974l-0.69992,0.88877l-0.88878,0.66658l-1.68866,0.55548h-1.58868l-1.5109,-0.3333l-0.85542,-0.44438l-0.51105,-0.55548l-0.52215,-0.77768l-0.28885,-1.11095l-0.16664,-1.94418l0.27774,-1.94418l0.39995,-1.21095l0.63326,-0.88877l0.73323,-0.66657l1.25538,-0.77767l1.36649,-0.44438l1.21096,-0.05555l1.22206,0.12219l1.33315,0.2333l-0.41105,2.81073l-1.63312,-0.44438l-1.79976,0.22218l-1.03319,0.65546l-0.51104,0.66658l-0.3333,1.44425l0.11111,1.33315l0.52216,0.77768l0.73324,0.44437l1.23316,0.16664l1.23316,-0.27774l1.25539,-0.88877l0.73324,-1.33316z"/></g><g fill-opacity="0.4" fill="#000000" stroke="none" stroke-width="1"><path d="M132.61619,171.15936l0.27774,7.1768h-3.24401l-0.48883,-12.30944l-1.48868,0.32218v-3.43286l2.35523,-0.39995l2.34413,-0.16665h2.59965l3.1329,0.56659l1.04432,0.57769l1.26649,0.9221l0.41106,0.8999l0.27774,1.83308l-0.16664,1.83308l-0.52214,1.13318l-0.74435,0.79989l-0.52215,0.56659l-0.63325,0.46661l-1.0443,0.56659l-1.04431,0.56659l-1.45536,0.57769l-1.77754,0.3444zM129.92766,165.91563l2.47744,-0.04444l0.18885,4.81045l1.8553,-0.23331l1.56645,-0.67768l1.37759,-0.56658l0.63325,-1.14429l-0.11111,-1.25539l-0.41106,-0.56659l-1.48868,-0.46661l-1.82197,-0.1111h-1.82197l-1.56645,0.12219z"/><path d="M145.82549,167.09323l0.24442,3.52174l0.99986,-1.48868l0.89988,-0.69991l1.12207,-0.58881l1.44424,-0.48883l0.94432,2.48854l-0.78878,0.11111l-0.78878,0.47771l-0.79989,0.58881l-0.56658,0.71101l-0.78878,0.69991l-0.45549,0.811l-0.44438,1.29981l-0.3444,1.92197v1.77754h-2.83296l-0.56658,-10.66522z"/><path d="M156.87955,174.70332l0.74435,0.56659l1.39982,0.32218l1.54423,-0.26663l1.21095,-0.41107l1.09986,-0.56658l0.96654,-0.66658l1.32203,1.97752l-1.2776,1.15539l-1.09984,0.66658l-1.29984,0.46659l-1.66645,0.44439l-2.14415,-0.1l-1.62201,-0.51103l-0.86655,-0.58881l-0.68878,-0.68881l-0.46661,-1.23316l-0.33329,-1.4887l0.16664,-1.81086l0.36661,-1.29984l0.52216,-1.02207l0.65546,-0.76656l1.08873,-0.83323l1.57757,-0.77766l1.91085,-0.27775l1.61088,0.13331l1.63313,0.54437l0.74434,0.72213l0.29996,1.11095l0.01118,1.25539l-0.22219,0.98875l-0.41106,0.67768l-0.62214,0.4555l-2.29969,0.79988l-2.28858,0.38885l-1.62201,-0.03332l-0.06667,-2.07749l2.26635,-0.25553l2.1886,-0.47771l0.76656,-0.62214l-0.54436,-0.76656l-0.91099,-0.2444l-0.94432,-0.07776l-1.24427,0.36661l-0.95543,0.74435l-0.85544,1.46647l-0.1111,1.3887z"/><path d="M172.13306,167.08212h1.16652l1.16651,0.11111l1.03318,0.55548l0.71102,0.76657l0.38885,0.87766l0.16663,0.98875v1.23316h-2.29969v-0.76657l-0.48882,-0.99988l-1.22206,-0.16663l-1.22207,0.16663l-0.97764,0.4444l-0.44439,0.76657l1.26649,0.44438l1.13318,0.33329l1.46647,0.66657l1.47758,0.65546l0.97764,0.66658l0.33329,0.9443l-0.05555,0.91099l-0.16663,0.79989l-0.48882,0.76656l-0.82211,0.44439l-1.25539,0.55549l-1.41091,0.26663l-1.42203,0.05555l-1.42203,-0.05555l-1.42202,-0.26663l-0.04444,-2.76629l1.63311,0.37774l1.18873,0.05555l1.17762,-0.05555l1.18873,-0.15554l0.1111,-0.88877l-1.36648,-0.71102l-2.47744,-0.71103l-1.52201,-0.55548l-0.68881,-0.66657l-0.11111,-1.09985l0.11111,-1.11096l0.37774,-0.77767l0.71101,-0.76657l0.59993,-0.44438l1.43314,-0.66657z"/><path d="M183.73149,167.08212h1.16649l1.16651,0.11111l1.0332,0.55548l0.71103,0.76657l0.38884,0.87766l0.16663,0.98875v1.23316h-2.2997v-0.76657l-0.48881,-0.99988l-1.22205,-0.16663l-1.22207,0.16663l-0.97764,0.4444l-0.44437,0.76657l1.26648,0.44438l1.13319,0.33329l1.46647,0.66657l1.47757,0.65546l0.97764,0.66658l0.33329,0.9443l-0.05555,0.91099l-0.16665,0.79989l-0.48883,0.76656l-0.8221,0.44439l-1.25538,0.55549l-1.41092,0.26663l-1.42202,0.05555l-1.42203,-0.05555l-1.42204,-0.26663l-0.04444,-2.76629l1.63312,0.37774l1.18873,0.05555l1.17761,-0.05555l1.18873,-0.15554l0.11111,-0.88877l-1.36649,-0.71102l-2.47744,-0.71103l-1.52201,-0.55548l-0.68881,-0.66657l-0.11111,-1.09985l0.11111,-1.11096l0.37774,-0.77767l0.71103,-0.76657l0.59991,-0.44438l1.43313,-0.66657z"/><path d="M199.70707,178.18063h-2.95515l-0.18886,-6.86574l-0.33329,-8.47663h3.03291l0.2222,5.92142l1.46647,-0.98874l1.83309,-0.2222l1.72199,0.2222l0.9332,0.43327l0.83323,0.66658l0.63325,1.08874l0.41106,1.64423l0.11111,1.9775l-0.41106,1.96641l-0.63324,1.21095l-0.64436,0.54435l-1.01096,0.65547l-1.24427,0.33328l-1.14428,-0.11111l-1.35537,-0.22218l-1.14429,-0.55549l0.27774,-2.39967l1.87752,0.43328h1.0443l1.05542,-0.54436l0.52215,-1.08875l0.11111,-1.08873l-0.14443,-0.88877l-0.48883,-0.76658l-0.52215,-0.54436l-0.98875,-0.2222l-1.08873,-0.01118l-0.76657,0.33329l-0.53326,0.54436l-0.63325,0.88877z"/><path d="M214.42733,166.98215l1.32203,-0.1111l1.11096,0.1111l1.2776,0.55549l0.84433,0.55548l0.53325,0.55548l0.53327,0.55548l0.42217,1.09986l0.32217,1.38871l0.05555,1.75532l-0.25553,1.53314l-0.64436,1.21094l-0.74433,0.87766l-0.85544,0.55549l-1.79976,0.55548l-1.32205,0.05555l-1.75532,-0.05555l-1.69976,-0.66658l-0.74435,-0.55548l-0.85544,-1.19984l-0.42217,-1.32203l0.01118,-1.65534l0.22218,-1.25539l0.42217,-1.22206l0.53327,-1.09986l0.52214,-0.66657l0.53327,-0.44439l1.06652,-0.66658zM214.7495,169.64845l-0.73324,0.33329l-0.64435,0.55548l-0.53325,0.98875l-0.2111,1.35537l0.15554,1.15541l0.5777,0.71102l1.11096,0.43327l0.95543,0.1111l1.08874,-0.22219l0.56659,-0.54437l0.7999,-0.9332l-0.06668,-1.57757l-0.32217,-1.1554l-0.52215,-0.76656l-0.74435,-0.44439z"/><path d="M225.87021,162.37166l2.95515,0.23329l-0.23329,0.84434l-0.23331,1.34427l-0.2333,1.38871l2.49966,-0.06668v3.03292l-2.65518,-0.0222l-0.06665,1.82197l-0.05555,1.25538v1.18873l0.23329,1.19983l0.86655,0.73323h0.69991l0.71103,-0.23329l0.38884,2.85516l-1.34427,0.31107l-1.34427,0.07776l-1.7442,-0.61103l-0.97765,-1.12206l-0.38883,-1.27761l-0.28885,-1.38869l0.05555,-1.38871v-1.3887l0.12219,-1.9664l-1.71088,-0.04444v-2.81073l2.06639,-0.15553l0.14443,-1.36648l0.29996,-1.36649z"/><path d="M233.64693,162.29389h2.96625l0.11111,6.28803l0.82211,-0.68881l1.03319,-0.56658l1.23317,-0.2222l1.34426,0.11111l1.15541,0.3444l0.82211,0.68879l0.61102,0.9221l0.26664,1.35538v7.76561h-2.85517v-6.96571l-0.26664,-0.67768l-0.711,-0.4555l-1.04431,-0.11111l-0.93321,0.3333l-0.83321,0.5777l-0.48881,1.01097l0.1111,6.28804h-2.85517z"/></g><g fill-opacity="0.4" fill="#000000" stroke="none" stroke-width="1"><path d="M151.00682,187.7286l1.32203,-0.11111l1.11096,0.11111l1.2776,0.55548l0.84433,0.55548l0.53325,0.55548l0.53328,0.55549l0.42216,1.09984l0.32217,1.3887l0.05555,1.75532l-0.25553,1.53313l-0.64436,1.21094l-0.74434,0.87767l-0.85543,0.55548l-1.79976,0.55548l-1.32205,0.05555l-1.75532,-0.05555l-1.69976,-0.66657l-0.74434,-0.55549l-0.85544,-1.19983l-0.42216,-1.32204l0.01117,-1.65534l0.22219,-1.25539l0.42216,-1.22206l0.53327,-1.09984l0.52214,-0.66658l0.53328,-0.44439l1.06651,-0.66657zM151.32896,190.3949l-0.73324,0.3333l-0.64435,0.55547l-0.53326,0.98876l-0.21108,1.35536l0.15553,1.15539l0.5777,0.71101l1.11096,0.43328l0.95544,0.11111l1.08873,-0.22218l0.56659,-0.54437l0.79989,-0.93321l-0.06667,-1.57756l-0.32217,-1.15538l-0.52214,-0.76657l-0.74435,-0.44437z"/><path d="M162.42746,187.83969l0.24441,3.52174l0.99986,-1.48868l0.89987,-0.69991l1.12206,-0.58881l1.44425,-0.48882l0.94431,2.48855l-0.78878,0.11111l-0.78877,0.4777l-0.79989,0.58881l-0.5666,0.71103l-0.78878,0.6999l-0.45549,0.811l-0.44439,1.29984l-0.34439,1.92194v1.77754h-2.83294l-0.5666,-10.66522z"/><path d="M178.69193,183.11812l2.95516,0.23329l-0.23329,0.84433l-0.23331,1.34427l-0.23329,1.38869l2.49967,-0.06667v3.03292l-2.6552,-0.02222l-0.06668,1.82198l-0.05556,1.25538v1.18872l0.23331,1.19984l0.86655,0.73324h0.6999l0.71102,-0.23329l0.38884,2.85516l-1.34426,0.31106l-1.34426,0.07776l-1.7442,-0.61103l-0.97764,-1.12206l-0.38885,-1.27759l-0.28885,-1.38871l0.05555,-1.3887v-1.3887l0.12219,-1.9664l-1.71088,-0.04444v-2.81073l2.0664,-0.15554l0.14442,-1.36648l0.29996,-1.36648z"/><path d="M194.97863,191.26146l-1.39981,-0.57771l-1.26649,-0.08887l-1.16651,0.11111l-1.29984,0.46661l-0.64435,0.88877l-0.31107,0.87765l-0.11111,0.97764l0.22219,1.1665l0.66658,0.95543l1.11097,0.41105h0.99986l1.08875,-0.56658l0.74435,-0.9221l0.42216,-1.3887l0.36662,-2.26635zM195.67854,191.2059l1.15541,-0.08888l0.73324,7.96558h-2.44412l-0.21108,-2.23301l-0.86655,1.27759l-0.92211,0.68881l-1.14428,0.26664h-2.07749l-1.28872,-0.2111l-0.86655,-0.57771l-0.64435,-0.77767l-0.52214,-1.12208l-0.3333,-1.95529l0.1111,-1.6331l0.31108,-1.56645l0.42216,-0.89988l1.06651,-1.12207l1.07764,-0.67768l1.27762,-0.45549l1.47756,-0.22219l1.4998,0.08888l1.17761,0.27774l1.12207,0.44439l1.24428,0.86655z"/><path d="M203.01087,202.63768l-2.88851,0.11111l-0.66657,-14.70913l2.5552,-0.1111l0.1111,0.99986l0.99988,-0.66657l0.99986,-0.54438l1.4998,-0.16665l1.49979,0.27773l0.99985,0.43328l0.77768,0.77768l0.61103,0.97764l0.27774,1.09986l0.22218,1.81086l-0.1111,2.03306l-0.38884,1.21095l-0.61103,0.97764l-0.88877,0.66658l-1.33316,0.48883l-1.55534,0.05555l-1.07764,-0.16664l-1.08875,-0.38885l0.44438,-2.63298l1.19984,0.3333l1.18873,-0.11111l0.83321,-0.43329l0.49994,-0.55548l0.16663,-1.14429l-0.05555,-1.14429l-0.61103,-1.11095l-0.72212,-0.32217l-1.11096,-0.2222l-1.16652,0.32218l-0.72212,0.55548l-0.27774,0.87766z"/><path d="M220.61959,183.11812l2.95516,0.23329l-0.2333,0.84433l-0.2333,1.34427l-0.2333,1.38869l2.49967,-0.06667v3.03292l-2.6552,-0.02222l-0.06668,1.82198l-0.05555,1.25538v1.18872l0.23331,1.19984l0.86653,0.73324h0.69991l0.71102,-0.23329l0.38884,2.85516l-1.34426,0.31106l-1.34426,0.07776l-1.74421,-0.61103l-0.97764,-1.12206l-0.38884,-1.27759l-0.28884,-1.38871l0.05555,-1.3887v-1.3887l0.1222,-1.9664l-1.71088,-0.04444v-2.81073l2.06638,-0.15554l0.14443,-1.36648l0.29997,-1.36648z"/><path d="M228.39633,183.04034h2.96626l0.11111,6.28803l0.8221,-0.68879l1.03319,-0.56659l1.23317,-0.2222l1.34426,0.11111l1.1554,0.34441l0.82212,0.68878l0.61103,0.9221l0.26662,1.35537v7.76561h-2.85516v-6.96573l-0.26662,-0.67768l-0.71102,-0.45548l-1.0443,-0.11111l-0.93321,0.33328l-0.83322,0.57771l-0.48883,1.01098l0.1111,6.28804h-2.85516z"/><path d="M244.16085,195.44978l0.74435,0.56659l1.3998,0.32217l1.54425,-0.26664l1.21094,-0.41105l1.09986,-0.56659l0.96654,-0.66658l1.32204,1.97752l-1.27762,1.1554l-1.09985,0.66657l-1.29982,0.4666l-1.66644,0.44438l-2.14416,-0.1l-1.622,-0.51103l-0.86655,-0.58881l-0.68881,-0.68879l-0.46659,-1.23317l-0.33329,-1.48868l0.16664,-1.81086l0.36661,-1.29982l0.52217,-1.02208l0.65546,-0.76656l1.08873,-0.83321l1.57757,-0.77767l1.91085,-0.27774l1.61088,0.13332l1.63311,0.54436l0.74436,0.72212l0.29996,1.11096l0.01118,1.25539l-0.22222,0.98875l-0.41106,0.67769l-0.62213,0.45548l-2.29969,0.7999l-2.28859,0.38883l-1.622,-0.03332l-0.06665,-2.07749l2.26635,-0.25553l2.18858,-0.47772l0.76658,-0.62213l-0.54438,-0.76656l-0.91098,-0.24442l-0.94432,-0.07776l-1.24428,0.36662l-0.95543,0.74434l-0.85543,1.46647l-0.11111,1.38871z"/><path d="M265.05798,187.82858h1.16651l1.16652,0.11111l1.03319,0.55549l0.71101,0.76657l0.38885,0.87766l0.16663,0.98875v1.23317h-2.29969v-0.76656l-0.48881,-0.99986l-1.22206,-0.16664l-1.22206,0.16664l-0.97764,0.44438l-0.44439,0.76657l1.2665,0.44438l1.13317,0.3333l1.46648,0.66657l1.47758,0.65548l0.97763,0.66657l0.3333,0.94433l-0.05556,0.91098l-0.16665,0.79989l-0.48883,0.76657l-0.8221,0.44437l-1.2554,0.55548l-1.4109,0.26664l-1.42204,0.05555l-1.42202,-0.05555l-1.42203,-0.26664l-0.04444,-2.7663l1.63312,0.37774l1.18872,0.05555l1.17764,-0.05555l1.18872,-0.15553l0.11111,-0.88877l-1.36649,-0.71101l-2.47744,-0.71102l-1.52202,-0.55548l-0.68878,-0.66658l-0.11111,-1.09986l0.11111,-1.11096l0.37773,-0.77766l0.711,-0.76657l0.59994,-0.44438l1.43312,-0.66658z"/><path d="M277.31185,187.89525l1.3776,0.05555l1.36648,0.27774l0.71102,0.33328l0.69991,0.3444l0.53325,0.45549l-1.28872,2.48855l-0.54437,-0.56659l-0.84432,-0.45548l-1.07764,-0.22219l-1.06652,0.22219l-0.95544,0.46659l-0.76655,1.01098l-0.3333,1.41092l0.22219,1.31094l1.09985,0.78879l1.42205,0.22218l1.76643,-0.33329l0.79988,-0.28885l0.81099,-0.27774l0.53328,2.82184l-1.06653,0.56659l-1.34426,0.39995l-1.34426,0.16663h-1.06651l-1.34427,-0.05555l-1.33315,-0.51103l-0.75546,-0.34441l-0.85543,-0.78877l-0.53325,-1.13318l-0.2222,-1.53312v-1.32205l0.33329,-1.21094l0.26663,-0.84434l0.37772,-0.74434l0.53327,-0.77767l0.65547,-0.67768l0.97764,-0.67769l0.95542,-0.34439z"/><path d="M286.9439,187.83969l0.24439,3.52174l0.99988,-1.48868l0.89987,-0.69991l1.12207,-0.58881l1.44426,-0.48882l0.9443,2.48855l-0.78877,0.11111l-0.78878,0.4777l-0.79989,0.58881l-0.56659,0.71103l-0.78877,0.6999l-0.45551,0.811l-0.44438,1.29984l-0.34439,1.92194v1.77754h-2.83295l-0.5666,-10.66522z"/><path d="M297.99796,195.44978l0.74434,0.56659l1.3998,0.32217l1.54424,-0.26664l1.21096,-0.41105l1.09985,-0.56659l0.96653,-0.66658l1.32205,1.97752l-1.27761,1.1554l-1.09985,0.66657l-1.29983,0.4666l-1.66644,0.44438l-2.14415,-0.1l-1.62201,-0.51103l-0.86654,-0.58881l-0.68878,-0.68879l-0.4666,-1.23317l-0.33329,-1.48868l0.16664,-1.81086l0.3666,-1.29982l0.52216,-1.02208l0.65546,-0.76656l1.08874,-0.83321l1.57756,-0.77767l1.91086,-0.27774l1.61088,0.13332l1.63313,0.54436l0.74434,0.72212l0.29996,1.11096l0.01118,1.25539l-0.22219,0.98875l-0.41107,0.67769l-0.62213,0.45548l-2.29969,0.7999l-2.28858,0.38883l-1.622,-0.03332l-0.06667,-2.07749l2.26636,-0.25553l2.18861,-0.47772l0.76657,-0.62213l-0.54438,-0.76656l-0.91098,-0.24442l-0.94431,-0.07776l-1.24428,0.36662l-0.95542,0.74434l-0.85543,1.46647l-0.11111,1.38871z"/><path d="M311.685,195.44978l0.74435,0.56659l1.39982,0.32217l1.54423,-0.26664l1.21095,-0.41105l1.09985,-0.56659l0.96653,-0.66658l1.32205,1.97752l-1.27761,1.1554l-1.09983,0.66657l-1.29984,0.4666l-1.66644,0.44438l-2.14416,-0.1l-1.622,-0.51103l-0.86656,-0.58881l-0.68878,-0.68879l-0.4666,-1.23317l-0.33329,-1.48868l0.16663,-1.81086l0.36661,-1.29982l0.52216,-1.02208l0.65546,-0.76656l1.08875,-0.83321l1.57756,-0.77767l1.91086,-0.27774l1.61089,0.13332l1.6331,0.54436l0.74434,0.72212l0.29997,1.11096l0.01075,1.25539l-0.22219,0.98875l-0.41107,0.67769l-0.62212,0.45548l-2.29968,0.7999l-2.28858,0.38883l-1.62201,-0.03332l-0.06666,-2.07749l2.26636,-0.25553l2.18861,-0.47772l0.76655,-0.62213l-0.54437,-0.76656l-0.91098,-0.24442l-0.94431,-0.07776l-1.24429,0.36662l-0.95542,0.74434l-0.85544,1.46647l-0.11111,1.38871z"/><path d="M325.37201,187.89525l0.05547,1.29982l1.03316,-0.79989l1.08875,-0.27774l1.06651,-0.05555l1.12207,0.31107l0.54439,0.37773l0.64436,0.59993l0.62214,0.86655l0.19993,1.13319l0.12212,1.93306l-0.11115,1.93306l-0.21112,3.87726h-2.82185l0.22219,-3.3551l0.11115,-1.66645l-0.11115,-1.67755l-0.43325,-0.66658l-0.76658,-0.36661l-0.96652,-0.01117l-0.74435,0.48882l-0.36664,0.54437l-0.15544,0.75546l0.05546,2.97735l0.05547,2.97739h-3.13291l-0.29958,-11.04288z"/><path d="M334.8374,195.9497l0.911,-0.33328l0.91098,0.15554l0.67769,0.38883l0.3333,0.97765l-0.14447,1.21095l-0.78877,0.55548l-0.89989,0.22218l-1.03319,-0.21107l-0.5888,-0.77768l-0.11115,-0.8221l0.11115,-0.82209z"/></g><path d="M235.25003,169.31043c0,-15.53301 12.59199,-28.125 28.125,-28.125c15.53301,0 28.125,12.59199 28.125,28.125c0,15.53301 -12.59199,28.125 -28.125,28.125c-15.53301,0 -28.125,-12.59199 -28.125,-28.125z" fill="url(#color-2)" stroke="none" stroke-width="11"/><g fill="#ffffff" stroke="none" stroke-width="1"><path d="M292.18235,168.94944l-1.39981,-0.57769l-1.26649,-0.08888l-1.16651,0.11111l-1.29982,0.4666l-0.64436,0.88877l-0.31107,0.87766l-0.11111,0.97765l0.22221,1.1665l0.66657,0.95543l1.11096,0.41106h0.99986l1.08875,-0.56658l0.74435,-0.9221l0.42217,-1.38871l0.36661,-2.26636zM292.88223,168.89388l1.1554,-0.08887l0.73323,7.96559h-2.44412l-0.21108,-2.23304l-0.86655,1.27761l-0.92209,0.68879l-1.1443,0.26664h-2.07749l-1.28871,-0.2111l-0.86655,-0.57771l-0.64435,-0.77766l-0.52215,-1.12207l-0.33329,-1.9553l0.1111,-1.63311l0.31107,-1.56645l0.42217,-0.89989l1.06653,-1.12206l1.07762,-0.67769l1.27761,-0.45548l1.47756,-0.22219l1.4998,0.08887l1.17761,0.27774l1.12207,0.44437l1.24427,0.86655z"/><path d="M299.83686,165.58323l0.05556,1.29981l1.03319,-0.79989l1.08875,-0.27775l1.06651,-0.05555l1.12207,0.31107l0.54438,0.37774l0.64435,0.59991l0.62214,0.86655l0.19997,1.13319l0.1222,1.93306l-0.11111,1.93308l-0.2111,3.87725h-2.82182l0.22218,-3.35511l0.11111,-1.66643l-0.11111,-1.67755l-0.43327,-0.66657l-0.76657,-0.36662l-0.96654,-0.01118l-0.74435,0.48883l-0.36662,0.54435l-0.15553,0.75545l0.05556,2.97737l0.05555,2.97737h-3.1329l-0.29996,-11.04295z"/><path d="M317.06789,161.00606h2.79962l-0.06667,15.65344h-2.51076v-1.99974l-0.69992,0.88877l-0.88878,0.66658l-1.68866,0.55548h-1.58868l-1.5109,-0.33329l-0.85542,-0.44439l-0.51105,-0.55548l-0.52215,-0.77768l-0.28885,-1.11095l-0.16664,-1.94418l0.27774,-1.94418l0.39994,-1.21095l0.63326,-0.88877l0.73323,-0.66658l1.25538,-0.77767l1.36649,-0.44438l1.21096,-0.05555l1.22206,0.12219l1.33315,0.2333l-0.41105,2.81074l-1.63312,-0.44439l-1.79976,0.22218l-1.03319,0.65546l-0.51104,0.66658l-0.3333,1.44425l0.11111,1.33316l0.52216,0.77767l0.73324,0.44438l1.23316,0.16663l1.23316,-0.27774l1.25539,-0.88877l0.73324,-1.33316z"/></g><g fill="#ffffff" stroke="none" stroke-width="1"><path d="M130.61619,169.49269l0.27774,7.1768h-3.24401l-0.48883,-12.30944l-1.48868,0.32218v-3.43287l2.35522,-0.39995l2.34413,-0.16665h2.59965l3.1329,0.56659l1.04432,0.57769l1.26649,0.9221l0.41105,0.8999l0.27774,1.83308l-0.16664,1.83308l-0.52214,1.13318l-0.74435,0.79989l-0.52215,0.56659l-0.63325,0.46661l-1.0443,0.56659l-1.04431,0.56659l-1.45536,0.57769l-1.77754,0.3444zM127.92767,164.24894l2.47744,-0.04444l0.18885,4.81045l1.8553,-0.23331l1.56645,-0.67768l1.37759,-0.56658l0.63325,-1.14429l-0.1111,-1.25539l-0.41107,-0.56659l-1.48868,-0.46661l-1.82197,-0.1111h-1.82197l-1.56645,0.12219z"/><path d="M143.82549,165.42658l0.24442,3.52174l0.99986,-1.48868l0.89988,-0.69991l1.12207,-0.58881l1.44424,-0.48883l0.94432,2.48855l-0.78878,0.1111l-0.78878,0.47772l-0.79989,0.58881l-0.56658,0.71101l-0.78878,0.69992l-0.45549,0.81099l-0.44438,1.29981l-0.3444,1.92197v1.77754h-2.83296l-0.56658,-10.66522z"/><path d="M154.87955,173.03665l0.74435,0.56659l1.39982,0.32218l1.54423,-0.26663l1.21095,-0.41106l1.09986,-0.56658l0.96654,-0.66658l1.32203,1.97752l-1.2776,1.15538l-1.09984,0.66658l-1.29984,0.46659l-1.66645,0.44439l-2.14415,-0.1l-1.62201,-0.51103l-0.86655,-0.58881l-0.68878,-0.68881l-0.46661,-1.23316l-0.33329,-1.4887l0.16664,-1.81086l0.36661,-1.29984l0.52216,-1.02207l0.65546,-0.76656l1.08873,-0.83323l1.57757,-0.77766l1.91085,-0.27775l1.61088,0.13331l1.63313,0.54437l0.74434,0.72213l0.29996,1.11096l0.01118,1.25538l-0.22219,0.98875l-0.41106,0.67768l-0.62214,0.45549l-2.29969,0.79989l-2.28858,0.38884l-1.62201,-0.03332l-0.06667,-2.07749l2.26635,-0.25553l2.1886,-0.47771l0.76656,-0.62214l-0.54436,-0.76656l-0.91099,-0.2444l-0.94432,-0.07776l-1.24427,0.36661l-0.95543,0.74435l-0.85544,1.46647l-0.1111,1.38869z"/><path d="M170.13304,165.41547h1.16652l1.16651,0.11111l1.03318,0.55548l0.71101,0.76657l0.38885,0.87766l0.16663,0.98875v1.23316h-2.29969v-0.76657l-0.48882,-0.99987l-1.22206,-0.16664l-1.22207,0.16664l-0.97764,0.44439l-0.44439,0.76657l1.26649,0.44439l1.13318,0.33329l1.46647,0.66657l1.47758,0.65546l0.97764,0.66658l0.33329,0.9443l-0.05555,0.911l-0.16663,0.79988l-0.48882,0.76656l-0.82211,0.44439l-1.25539,0.55549l-1.41091,0.26663l-1.42203,0.05555l-1.42203,-0.05555l-1.42202,-0.26663l-0.04444,-2.76629l1.63311,0.37774l1.18873,0.05555l1.17762,-0.05555l1.18873,-0.15554l0.1111,-0.88877l-1.36647,-0.71102l-2.47745,-0.71103l-1.52201,-0.55548l-0.68881,-0.66657l-0.11111,-1.09985l0.11111,-1.11096l0.37774,-0.77767l0.71101,-0.76657l0.59993,-0.44437l1.43314,-0.66658z"/><path d="M181.73148,165.41547h1.16649l1.16651,0.11111l1.0332,0.55548l0.71103,0.76657l0.38884,0.87766l0.16663,0.98875v1.23316h-2.2997v-0.76657l-0.48881,-0.99987l-1.22205,-0.16664l-1.22207,0.16664l-0.97764,0.44439l-0.44438,0.76657l1.26648,0.44439l1.13319,0.33329l1.46647,0.66657l1.47757,0.65546l0.97764,0.66658l0.33329,0.9443l-0.05555,0.911l-0.16665,0.79988l-0.48883,0.76656l-0.8221,0.44439l-1.25538,0.55549l-1.41092,0.26663l-1.42202,0.05555l-1.42203,-0.05555l-1.42204,-0.26663l-0.04444,-2.76629l1.63312,0.37774l1.18873,0.05555l1.17761,-0.05555l1.18873,-0.15554l0.11111,-0.88877l-1.36649,-0.71102l-2.47744,-0.71103l-1.52201,-0.55548l-0.68881,-0.66657l-0.11111,-1.09985l0.11111,-1.11096l0.37774,-0.77767l0.71103,-0.76657l0.59991,-0.44437l1.43313,-0.66658z"/><path d="M197.70707,176.51396h-2.95515l-0.18886,-6.86574l-0.33329,-8.47663h3.03291l0.2222,5.92142l1.46647,-0.98874l1.83309,-0.2222l1.72199,0.2222l0.9332,0.43327l0.83323,0.66658l0.63325,1.08873l0.41106,1.64423l0.11111,1.9775l-0.41106,1.96641l-0.63324,1.21095l-0.64436,0.54435l-1.01096,0.65547l-1.24427,0.33328l-1.14428,-0.1111l-1.35537,-0.22219l-1.14429,-0.55549l0.27774,-2.39967l1.87752,0.43327h1.0443l1.05542,-0.54436l0.52215,-1.08875l0.11111,-1.08873l-0.14443,-0.88877l-0.48883,-0.76658l-0.52214,-0.54436l-0.98876,-0.2222l-1.08873,-0.01117l-0.76657,0.33329l-0.53326,0.54436l-0.63325,0.88877z"/><path d="M212.42732,165.31546l1.32203,-0.1111l1.11096,0.1111l1.2776,0.55549l0.84433,0.55548l0.53325,0.55548l0.53327,0.55548l0.42217,1.09986l0.32217,1.38871l0.05555,1.75532l-0.25553,1.53314l-0.64436,1.21094l-0.74434,0.87766l-0.85544,0.55549l-1.79976,0.55548l-1.32205,0.05555l-1.75532,-0.05555l-1.69977,-0.66659l-0.74435,-0.55548l-0.85544,-1.19984l-0.42217,-1.32203l0.01118,-1.65533l0.22218,-1.2554l0.42217,-1.22206l0.53327,-1.09986l0.52214,-0.66657l0.53327,-0.44439l1.06652,-0.66658zM212.7495,167.98178l-0.73324,0.33329l-0.64435,0.55548l-0.53325,0.98876l-0.2111,1.35536l0.15554,1.15541l0.5777,0.71102l1.11096,0.43327l0.95543,0.1111l1.08873,-0.22219l0.56659,-0.54437l0.7999,-0.9332l-0.06668,-1.57757l-0.32217,-1.1554l-0.52215,-0.76656l-0.74435,-0.44439z"/><path d="M223.87021,160.70497l2.95515,0.23329l-0.23329,0.84434l-0.23331,1.34427l-0.2333,1.38871l2.49966,-0.06668v3.03292l-2.65518,-0.02221l-0.06665,1.82197l-0.05555,1.25538v1.18873l0.23329,1.19983l0.86655,0.73323h0.69991l0.71103,-0.23329l0.38884,2.85516l-1.34427,0.31107l-1.34427,0.07776l-1.7442,-0.61103l-0.97765,-1.12206l-0.38883,-1.27761l-0.28885,-1.38869l0.05555,-1.38871v-1.38869l0.12219,-1.96641l-1.71088,-0.04443v-2.81074l2.06639,-0.15553l0.14443,-1.36648l0.29996,-1.36648z"/><path d="M231.64693,160.62724h2.96625l0.11111,6.28803l0.82211,-0.68881l1.03319,-0.56658l1.23317,-0.2222l1.34426,0.11111l1.15541,0.3444l0.82211,0.68879l0.61102,0.9221l0.26664,1.35537v7.76561h-2.85517v-6.96571l-0.26664,-0.67768l-0.711,-0.4555l-1.04431,-0.1111l-0.93321,0.33329l-0.83321,0.5777l-0.48881,1.01097l0.1111,6.28803h-2.85517z"/></g><g fill="#ffffff" stroke="none" stroke-width="1"><path d="M149.00682,186.06194l1.32203,-0.11111l1.11095,0.11111l1.2776,0.55548l0.84433,0.55548l0.53326,0.55548l0.53327,0.55549l0.42216,1.09984l0.32217,1.3887l0.05555,1.75532l-0.25553,1.53313l-0.64436,1.21094l-0.74434,0.87768l-0.85544,0.55548l-1.79976,0.55548l-1.32205,0.05555l-1.75532,-0.05555l-1.69977,-0.66657l-0.74434,-0.55549l-0.85544,-1.19983l-0.42216,-1.32205l0.01117,-1.65534l0.22219,-1.25538l0.42217,-1.22206l0.53327,-1.09984l0.52215,-0.66658l0.53327,-0.44439l1.06651,-0.66657zM149.32896,188.72823l-0.73324,0.33329l-0.64435,0.55548l-0.53326,0.98875l-0.21108,1.35537l0.15554,1.15539l0.5777,0.71101l1.11096,0.43328l0.95543,0.1111l1.08873,-0.22218l0.56659,-0.54437l0.79989,-0.93321l-0.06667,-1.57756l-0.32217,-1.15539l-0.52215,-0.76657l-0.74435,-0.44437z"/><path d="M160.42746,186.17303l0.24441,3.52174l0.99986,-1.48868l0.89987,-0.69991l1.12206,-0.58881l1.44425,-0.48883l0.94431,2.48856l-0.78877,0.1111l-0.78877,0.47771l-0.79989,0.58881l-0.5666,0.71103l-0.78878,0.6999l-0.45549,0.811l-0.44439,1.29984l-0.34439,1.92194v1.77754h-2.83294l-0.5666,-10.66521z"/><path d="M176.69193,181.45145l2.95516,0.23329l-0.23329,0.84433l-0.23331,1.34426l-0.23329,1.3887l2.49966,-0.06667v3.03292l-2.6552,-0.02223l-0.06668,1.82199l-0.05555,1.25538v1.18872l0.2333,1.19984l0.86655,0.73323h0.6999l0.71102,-0.23329l0.38884,2.85516l-1.34426,0.31106l-1.34426,0.07776l-1.7442,-0.61103l-0.97764,-1.12206l-0.38885,-1.2776l-0.28885,-1.3887l0.05555,-1.3887v-1.38871l0.12219,-1.96639l-1.71088,-0.04445v-2.81073l2.06639,-0.15553l0.14442,-1.36649l0.29996,-1.36648z"/><path d="M192.97862,189.59479l-1.39981,-0.57771l-1.26649,-0.08887l-1.16651,0.1111l-1.29984,0.46662l-0.64435,0.88877l-0.31107,0.87765l-0.11111,0.97764l0.22219,1.1665l0.66657,0.95544l1.11097,0.41105h0.99986l1.08875,-0.56659l0.74435,-0.92209l0.42216,-1.3887l0.36662,-2.26636zM193.67854,189.53923l1.15541,-0.08888l0.73324,7.96558h-2.44412l-0.21108,-2.23301l-0.86655,1.27759l-0.92211,0.68881l-1.14428,0.26664h-2.07749l-1.28872,-0.2111l-0.86655,-0.57771l-0.64435,-0.77766l-0.52214,-1.12208l-0.33329,-1.95529l0.1111,-1.6331l0.31108,-1.56646l0.42216,-0.89988l1.06652,-1.12207l1.07764,-0.67768l1.27761,-0.4555l1.47756,-0.22219l1.4998,0.08888l1.17761,0.27774l1.12207,0.44439l1.24428,0.86655z"/><path d="M201.01087,200.97102l-2.88851,0.11111l-0.66657,-14.70913l2.55521,-0.1111l0.1111,0.99986l0.99988,-0.66657l0.99986,-0.54438l1.4998,-0.16665l1.49979,0.27774l0.99986,0.43328l0.77768,0.77768l0.61103,0.97764l0.27774,1.09986l0.22218,1.81086l-0.11111,2.03306l-0.38883,1.21095l-0.61103,0.97764l-0.88877,0.66658l-1.33316,0.48882l-1.55534,0.05555l-1.07763,-0.16663l-1.08875,-0.38885l0.44438,-2.63298l1.19984,0.33329l1.18873,-0.1111l0.83321,-0.43329l0.49994,-0.55548l0.16663,-1.14429l-0.05555,-1.14429l-0.61103,-1.11095l-0.72213,-0.32217l-1.11096,-0.2222l-1.16652,0.32218l-0.72213,0.55548l-0.27774,0.87766z"/><path d="M218.61959,181.45145l2.95516,0.23329l-0.23329,0.84433l-0.23331,1.34426l-0.23329,1.3887l2.49966,-0.06667v3.03292l-2.6552,-0.02223l-0.06668,1.82199l-0.05555,1.25538v1.18872l0.2333,1.19984l0.86655,0.73323h0.6999l0.71102,-0.23329l0.38884,2.85516l-1.34426,0.31106l-1.34427,0.07776l-1.7442,-0.61103l-0.97764,-1.12206l-0.38884,-1.2776l-0.28884,-1.3887l0.05555,-1.3887v-1.38871l0.12219,-1.96639l-1.71088,-0.04445v-2.81073l2.06638,-0.15553l0.14442,-1.36649l0.29998,-1.36648z"/><path d="M226.39633,181.37368h2.96626l0.11111,6.28803l0.8221,-0.68879l1.03319,-0.56659l1.23317,-0.2222l1.34426,0.11111l1.15541,0.34441l0.82211,0.68878l0.61103,0.9221l0.26663,1.35537v7.76561h-2.85517v-6.96572l-0.26662,-0.67768l-0.71103,-0.45549l-1.0443,-0.1111l-0.93321,0.33328l-0.83323,0.57771l-0.48883,1.01098l0.1111,6.28803h-2.85516z"/><path d="M242.16085,193.78312l0.74435,0.56659l1.3998,0.32217l1.54425,-0.26664l1.21094,-0.41105l1.09986,-0.56659l0.96654,-0.66658l1.32204,1.97752l-1.27762,1.1554l-1.09985,0.66657l-1.29981,0.46659l-1.66645,0.44439l-2.14416,-0.1l-1.622,-0.51103l-0.86655,-0.58881l-0.68881,-0.68879l-0.4666,-1.23317l-0.33328,-1.48868l0.16664,-1.81086l0.36661,-1.29982l0.52216,-1.02208l0.65546,-0.76657l1.08873,-0.83321l1.57757,-0.77767l1.91085,-0.27774l1.61088,0.13332l1.6331,0.54436l0.74436,0.72213l0.29997,1.11095l0.01117,1.2554l-0.22221,0.98875l-0.41106,0.67769l-0.62214,0.45549l-2.29969,0.7999l-2.28859,0.38883l-1.62199,-0.03332l-0.06666,-2.07749l2.26635,-0.25553l2.18858,-0.47771l0.76658,-0.62213l-0.54438,-0.76657l-0.91098,-0.24442l-0.94432,-0.07776l-1.24428,0.36662l-0.95543,0.74435l-0.85543,1.46647l-0.11111,1.38871z"/><path d="M263.05798,186.16192h1.16651l1.16652,0.11111l1.03319,0.55549l0.71101,0.76656l0.38885,0.87766l0.16663,0.98875v1.23317h-2.29969v-0.76657l-0.48882,-0.99986l-1.22206,-0.16663l-1.22206,0.16663l-0.97764,0.44439l-0.44439,0.76656l1.26649,0.44439l1.13317,0.33329l1.46648,0.66657l1.47757,0.65547l0.97764,0.66657l0.33329,0.94432l-0.05555,0.91098l-0.16665,0.7999l-0.48883,0.76656l-0.82209,0.44438l-1.2554,0.55548l-1.4109,0.26664l-1.42204,0.05555l-1.42201,-0.05555l-1.42203,-0.26664l-0.04444,-2.76629l1.63312,0.37774l1.18872,0.05555l1.17763,-0.05555l1.18872,-0.15554l0.1111,-0.88877l-1.36648,-0.71101l-2.47744,-0.71103l-1.52202,-0.55548l-0.68878,-0.66658l-0.11111,-1.09986l0.11111,-1.11095l0.37772,-0.77766l0.71101,-0.76657l0.59994,-0.44439l1.43313,-0.66658z"/><path d="M275.31185,186.22858l1.37761,0.05555l1.36648,0.27774l0.71102,0.33328l0.69991,0.3444l0.53326,0.45549l-1.28872,2.48855l-0.54437,-0.56659l-0.84432,-0.45549l-1.07764,-0.22219l-1.06652,0.22219l-0.95544,0.4666l-0.76655,1.01098l-0.33329,1.41092l0.22219,1.31094l1.09985,0.78878l1.42204,0.22218l1.76643,-0.33329l0.79988,-0.28885l0.811,-0.27774l0.53327,2.82184l-1.06652,0.56659l-1.34426,0.39994l-1.34427,0.16664h-1.06651l-1.34427,-0.05555l-1.33315,-0.51103l-0.75547,-0.34441l-0.85543,-0.78878l-0.53325,-1.13317l-0.2222,-1.53313v-1.32205l0.33329,-1.21094l0.26663,-0.84434l0.37772,-0.74435l0.53328,-0.77766l0.65547,-0.67768l0.97764,-0.67769l0.95542,-0.34439z"/><path d="M284.9439,186.17303l0.24439,3.52174l0.99988,-1.48868l0.89987,-0.69991l1.12207,-0.58881l1.44426,-0.48883l0.9443,2.48856l-0.78877,0.1111l-0.78878,0.47771l-0.79989,0.58881l-0.56659,0.71103l-0.78877,0.6999l-0.45551,0.811l-0.44438,1.29984l-0.34439,1.92194v1.77754h-2.83295l-0.56659,-10.66521z"/><path d="M295.99796,193.78312l0.74434,0.56659l1.39981,0.32217l1.54423,-0.26664l1.21096,-0.41105l1.09985,-0.56659l0.96653,-0.66658l1.32205,1.97752l-1.2776,1.1554l-1.09985,0.66657l-1.29984,0.46659l-1.66644,0.44439l-2.14415,-0.1l-1.62201,-0.51103l-0.86655,-0.58881l-0.68878,-0.68879l-0.4666,-1.23317l-0.33329,-1.48868l0.16664,-1.81086l0.36661,-1.29982l0.52216,-1.02208l0.65546,-0.76657l1.08874,-0.83321l1.57756,-0.77767l1.91086,-0.27774l1.61089,0.13332l1.63312,0.54436l0.74434,0.72213l0.29996,1.11095l0.01117,1.2554l-0.22219,0.98875l-0.41106,0.67769l-0.62213,0.45549l-2.29969,0.7999l-2.28858,0.38883l-1.622,-0.03332l-0.06667,-2.07749l2.26635,-0.25553l2.18861,-0.47771l0.76657,-0.62213l-0.54438,-0.76657l-0.91098,-0.24442l-0.94431,-0.07776l-1.24428,0.36662l-0.95542,0.74435l-0.85544,1.46647l-0.11111,1.38871z"/><path d="M309.68501,193.78312l0.74435,0.56659l1.39981,0.32217l1.54424,-0.26664l1.21095,-0.41105l1.09985,-0.56659l0.96653,-0.66658l1.32205,1.97752l-1.27761,1.1554l-1.09983,0.66657l-1.29984,0.46659l-1.66645,0.44439l-2.14416,-0.1l-1.62201,-0.51103l-0.86655,-0.58881l-0.68878,-0.68879l-0.4666,-1.23317l-0.33329,-1.48868l0.16664,-1.81086l0.36661,-1.29982l0.52216,-1.02208l0.65546,-0.76657l1.08875,-0.83321l1.57756,-0.77767l1.91085,-0.27774l1.61089,0.13332l1.6331,0.54436l0.74434,0.72213l0.29998,1.11095l0.01075,1.2554l-0.22219,0.98875l-0.41107,0.67769l-0.62212,0.45549l-2.29968,0.7999l-2.28858,0.38883l-1.62201,-0.03332l-0.06666,-2.07749l2.26635,-0.25553l2.18861,-0.47771l0.76655,-0.62213l-0.54437,-0.76657l-0.91098,-0.24442l-0.94432,-0.07776l-1.24428,0.36662l-0.95542,0.74435l-0.85544,1.46647l-0.1111,1.38871z"/><path d="M323.37205,186.22858l0.05547,1.29982l1.03316,-0.7999l1.08875,-0.27774l1.06651,-0.05555l1.12207,0.31107l0.54439,0.37773l0.64436,0.59993l0.62214,0.86654l0.19993,1.13319l0.12212,1.93306l-0.11115,1.93306l-0.21112,3.87726h-2.82185l0.22219,-3.3551l0.11115,-1.66645l-0.11115,-1.67754l-0.43325,-0.66658l-0.76658,-0.36661l-0.96652,-0.01118l-0.74434,0.48883l-0.36664,0.54437l-0.15544,0.75546l0.05546,2.97735l0.05547,2.97738h-3.13291l-0.29958,-11.04288z"/><path d="M332.8374,194.28303l0.911,-0.33328l0.91098,0.15553l0.67769,0.38883l0.3333,0.97764l-0.14447,1.21095l-0.78877,0.55548l-0.89989,0.22218l-1.03319,-0.21107l-0.5888,-0.77768l-0.11115,-0.82211l0.11115,-0.82209z"/></g><g><path d="M263.4715,157.16349c3.345,0 6.37601,1.345 8.57101,3.517c2.195,2.172 3.55399,5.172 3.55399,8.483c0,3.311 -1.35899,6.311 -3.55399,8.483c-2.195,2.172 -5.226,3.517 -8.57101,3.517c-3.345,0 -6.37599,-1.345 -8.57099,-3.517c-2.195,-2.172 -3.554,-5.172 -3.554,-8.483c0,-3.311 1.359,-6.311 3.554,-8.483c2.195,-2.172 5.22599,-3.517 8.57099,-3.517z" fill="#3b9dff" stroke="#00ffff" stroke-width="2"/><path d="M269.39736,167.05193l-7.0629,5.67538c4.68113,-1.1336 7.13265,-1.27142 7.13037,-1.24002c-0.27436,2.62156 -0.4219,4.07365 -0.4409,4.33536c-0.39417,0.06609 -11.01225,-0.08363 -11.01225,-0.08363c0.02964,-1.71323 0.0576,-2.67938 0.07508,-2.92017l6.23527,-5.87222c-0.10473,-0.0076 -6.69135,0.55626 -6.69135,0.55626c0.09042,-2.55072 0.13538,-4.62063 0.13538,-4.62063c0.00532,-0.07333 3.5903,-0.02358 10.74602,0.12742c0,0 0.8982,3.86427 0.88529,4.04223z" fill="#ffffff" stroke="none" stroke-width="0.26459"/></g><path d="M102.5331,225.6752v-107.23742h274.9338v107.23742z" fill="none" stroke="none" stroke-width="NaN"/></g></g></svg>