<svg version="1.1" xmlns="http://www.w3.org/2000/svg" xmlns:xlink="http://www.w3.org/1999/xlink" width="39.05721" height="21.99386" viewBox="0,0,39.05721,21.99386"><g transform="translate(-220.47139,-169.00307)"><g data-paper-data="{&quot;isPaintingLayer&quot;:true}" fill-rule="nonzero" stroke-linejoin="miter" stroke-miterlimit="10" stroke-dasharray="" stroke-dashoffset="0" style="mix-blend-mode: normal"><path d="M255.63595,183.13211l-32.37265,-1.13768l32.27936,-1.67942l-32.09278,-1.08351l32.09278,-1.46273l-31.62632,-1.24603" fill="none" stroke="#131313" stroke-width="2" stroke-linecap="round"/><path d="M258.77861,172.6463c0,1.3084 0,4.37637 0,4.37637h-37.55721c0,0 0,-2.63577 0,-3.88634c0,-1.16682 1.16371,-3.38325 2.70568,-3.38325c7.22663,0 27.89822,0 32.09674,0c1.43328,0 2.75478,1.82939 2.75478,2.89323z" data-paper-data="{&quot;index&quot;:null}" fill="#ff0c00" stroke="#9c0027" stroke-width="1.5" stroke-linecap="butt"/><path d="M221.2214,182.97734h37.55721v7.26959h-37.55721z" fill="#ff0c00" stroke="#9c0027" stroke-width="1.5" stroke-linecap="butt"/><path d="M227.31216,173.81539l-0.93293,-3.54513h27.42813l-0.93293,3.54513z" fill="#ffdd00" stroke="none" stroke-width="0" stroke-linecap="butt"/><g stroke-width="0" stroke-linecap="butt"><path d="M221.7706,189.691v-1.59993h36.29096v1.59993z" fill="#ffdd00" stroke="#000000"/><path d="M225.77355,189.70247l-1.09973,-1.59992h4.17896l1.2097,1.59992z" fill="#000000" stroke="none"/><path d="M234.0215,189.70247l-1.09972,-1.59992h4.17896l1.2097,1.59992z" fill="#000000" stroke="none"/><path d="M242.26944,189.70247l-1.09973,-1.59992h4.17896l1.2097,1.59992z" fill="#000000" stroke="none"/><path d="M250.51739,189.70247l-1.09972,-1.59992h4.17896l1.2097,1.59992z" fill="#000000" stroke="none"/></g><g stroke-width="0" stroke-linecap="butt"><path d="M221.86389,187.17209v-1.59992h36.29097v1.59992z" fill="#000000" stroke="#000000"/><path d="M225.86685,187.18356l-1.09973,-1.59993h4.17896l1.2097,1.59993z" fill="#ffdd00" stroke="none"/><path d="M234.11479,187.18356l-1.09973,-1.59993h4.17896l1.20969,1.59993z" fill="#ffdd00" stroke="none"/><path d="M242.36274,187.18356l-1.09972,-1.59993h4.17896l1.2097,1.59993z" fill="#ffdd00" stroke="none"/><path d="M250.61069,187.18356l-1.09972,-1.59992h4.17896l1.2097,1.59992z" fill="#ffdd00" stroke="none"/></g><path d="M230.06507,174.30912l9.93493,-2.12203l9.93493,2.12203z" data-paper-data="{&quot;index&quot;:null}" fill="#ff0000" stroke="#ff0000" stroke-width="2" stroke-linecap="round"/></g></g></svg>