<svg version="1.1" xmlns="http://www.w3.org/2000/svg" xmlns:xlink="http://www.w3.org/1999/xlink" width="499.69714" height="497.47891" viewBox="0,0,499.69714,497.47891"><defs><radialGradient cx="78.76774" cy="369.68409" r="132.3511" gradientUnits="userSpaceOnUse" id="color-1"><stop offset="0" stop-color="#5f5a96"/><stop offset="1" stop-color="#4a4c75"/></radialGradient><radialGradient cx="128.73637" cy="377.95791" r="132.3511" gradientUnits="userSpaceOnUse" id="color-2"><stop offset="0" stop-color="#4a4c75" stop-opacity="0"/><stop offset="1" stop-color="#4a4c75"/></radialGradient><linearGradient x1="80.14642" y1="315.66828" x2="80.14642" y2="351.26932" gradientUnits="userSpaceOnUse" id="color-3"><stop offset="0" stop-color="#404266"/><stop offset="1" stop-color="#404266" stop-opacity="0"/></linearGradient><radialGradient cx="87.66641" cy="306.47857" r="470.5805" gradientUnits="userSpaceOnUse" id="color-4"><stop offset="0" stop-color="#3b3a5c"/><stop offset="1" stop-color="#2f324a"/></radialGradient><radialGradient cx="213.88127" cy="448.95491" r="470.5805" gradientUnits="userSpaceOnUse" id="color-5"><stop offset="0" stop-color="#3b3a5c"/><stop offset="1" stop-color="#2f324a"/></radialGradient><radialGradient cx="-56.29093" cy="435.65536" r="470.5805" gradientUnits="userSpaceOnUse" id="color-6"><stop offset="0" stop-color="#3b3a5c"/><stop offset="1" stop-color="#2f324a"/></radialGradient><radialGradient cx="79.1223" cy="306.895" r="131.35665" gradientUnits="userSpaceOnUse" id="color-7"><stop offset="0" stop-color="#534a76"/><stop offset="1" stop-color="#534a76" stop-opacity="0"/></radialGradient><linearGradient x1="58.31495" y1="214.79823" x2="35.32796" y2="214.79823" gradientUnits="userSpaceOnUse" id="color-8"><stop offset="0" stop-color="#000000" stop-opacity="0"/><stop offset="1" stop-color="#000000"/></linearGradient><radialGradient cx="170.40511" cy="98.81719" r="18.625" gradientUnits="userSpaceOnUse" id="color-9"><stop offset="0" stop-color="#000000" stop-opacity="0.11373"/><stop offset="1" stop-color="#000000" stop-opacity="0"/></radialGradient><linearGradient x1="77.73957" y1="91.6751" x2="54.75257" y2="91.6751" gradientUnits="userSpaceOnUse" id="color-10"><stop offset="0" stop-color="#000000"/><stop offset="1" stop-color="#000000" stop-opacity="0"/></linearGradient><radialGradient cx="26.38533" cy="93.89877" r="18.625" gradientUnits="userSpaceOnUse" id="color-11"><stop offset="0" stop-color="#000000" stop-opacity="0.11373"/><stop offset="1" stop-color="#000000" stop-opacity="0"/></radialGradient></defs><g transform="translate(57.33865,101.14548)"><g data-paper-data="{&quot;isPaintingLayer&quot;:true}" fill-rule="nonzero" stroke-linejoin="miter" stroke-miterlimit="10" stroke-dasharray="" stroke-dashoffset="0" style="mix-blend-mode: normal"><path d="M392.44503,206.51088h49.91346v163.9159h-49.91346z" fill="#5cb745" stroke="none" stroke-width="1.18415" stroke-linecap="butt"/><path d="M397.62123,209.16121h6.58581v161.26554h-6.58581z" fill="#71ff5e" stroke="none" stroke-width="1.18415" stroke-linecap="butt"/><path d="M-51.82202,312.41283h264.7022v76.13702h-264.7022z" fill="url(#color-1)" stroke="#363756" stroke-width="1.50908" stroke-linecap="butt"/><path d="M-51.82202,312.41283h264.7022v76.13702h-264.7022z" fill="url(#color-2)" stroke="#363756" stroke-width="1.50908" stroke-linecap="butt"/><path d="M75.55362,309.66828l132.31328,7.6884l9.13614,10.31092l-3.75897,7.36693l-39.28311,10.52581l-12.02844,-3.38783l-6.58387,-15.47284l-6.19299,11.87421l-24.08794,-6.78441l-18.75717,8.17995l-4.78412,-8.14805l-4.42314,12.16331l-4.30652,-3.29527l-3.75786,6.81212l-8.63965,3.76773l-37.05,-15.74279l-6.82793,-11.62746l-3.5478,7.21874l-46.13597,14.44258l-17.87245,-6.34503l-3.14475,-10.10272l-3.84121,7.62259l-13.93089,-4.9457l-4.75851,-7.23024l11.44513,-7.96989l48.74666,-6.79244z" fill="url(#color-3)" stroke-opacity="0.50196" stroke="#363656" stroke-width="0" stroke-linecap="round"/><path d="M82.55362,304.66828l125.81328,1.6884l9.13614,10.31092l-3.75897,7.36693l-39.28311,10.52581l-12.02844,-3.38783l-6.58387,-15.47284l-6.19299,11.87421l-24.08794,-6.78441l-18.75717,8.17995l-4.78412,-8.14805l-4.42314,12.16331l-4.30652,-3.29527l-3.75786,6.81212l-8.63965,3.76773l-37.05,-15.74279l-6.82793,-11.62746l-3.5478,7.21874l-46.13597,14.44258l-17.87245,-6.34503l-3.14475,-10.10272l-3.84121,7.62259l-13.93089,-4.9457l-4.75851,-7.23024l11.44513,-7.96989l127.3188,-0.92106z" fill="url(#color-4)" stroke-opacity="0.50196" stroke="#363656" stroke-width="0" stroke-linecap="round"/><path d="M185.79948,348.62614l6.34503,-13.79978l10.10272,-7.21743l-7.62259,-3.84121l4.9457,-13.93089l9.08146,-4.01802l8.71037,11.07488l-0.88964,71.37348l-10.03278,8.06627z" fill="url(#color-5)" stroke-opacity="0.50196" stroke="#363656" stroke-width="0" stroke-linecap="butt"/><path d="M-56.41282,314.95484l10.31092,-9.13614l7.36694,3.75897l3.60252,24.42642l-9.74454,4.30513l10.74395,4.25744l2.53605,18.32257l-15.47283,6.58387l11.87421,6.19299l-5.35391,19.00894c-2.29262,-1.33648 -7.6594,0.50568 -7.6594,0.50568l-9.12974,-9.23681z" data-paper-data="{&quot;index&quot;:null}" fill="url(#color-6)" stroke-opacity="0.50196" stroke="#363656" stroke-width="0" stroke-linecap="butt"/><path d="M80.97699,306.66828l120.7571,0.7503l8.76898,4.58203l-3.60791,3.27376l-37.7044,4.67753l-11.54504,-1.5055l-6.31928,-6.87591l-5.94411,5.27674l-23.11989,-3.0149l-18.00335,3.63506l-4.59186,-3.62088l-4.24538,5.4052l-4.13345,-1.46437l-3.60684,3.02721l-8.29243,1.67433l-35.56104,-6.99588l-6.55353,-5.16708l-3.40522,3.20791l-44.28185,6.41808l-17.15419,-2.81964l-3.01837,-4.48951l-3.68684,3.38737l-13.37103,-2.19781l-4.56728,-3.21301l10.98518,-3.54171l122.20211,-0.40931z" fill="url(#color-7)" stroke-opacity="0.50196" stroke="#363656" stroke-width="0" stroke-linecap="round"/><path d="M188.21755,192.00199c0,13.55332 0.2702,22.83825 -11,33.72868c-11.2702,10.89043 -19.42387,13.75466 -37.3582,13c-1.45388,-0.06118 0,-338.87613 0,-338.87613h48.3582c0,0 0,278.59413 0,292.14745z" data-paper-data="{&quot;index&quot;:null}" fill="#6f3434" stroke="none" stroke-width="1.18415" stroke-linecap="butt"/><path d="M144.12536,-101.14548h6.3806v297.14745c0,0 -6.3806,9.90385 -6.3806,2.83333c0,-30.46002 0,-299.98078 0,-299.98078z" data-paper-data="{&quot;index&quot;:null}" fill="#905042" stroke="none" stroke-width="1.18415" stroke-linecap="butt"/><path d="M140.47705,190.65495v48.3582h-89.747v-48.3582z" data-paper-data="{&quot;index&quot;:null}" fill="#6f3434" stroke="none" stroke-width="1.18415" stroke-linecap="butt"/><path d="M145.14372,195.58097l0.33333,6.3806h-93.747v-6.3806z" data-paper-data="{&quot;index&quot;:null}" fill="#905042" stroke="none" stroke-width="1.18415" stroke-linecap="butt"/><path d="M58.31495,190.61914v48.3582h-22.987v-48.3582z" data-paper-data="{&quot;index&quot;:null}" fill="url(#color-8)" stroke="none" stroke-width="2.30239" stroke-linecap="butt"/><path d="M51.73005,186.31318v57.75h-17.25v-57.75z" data-paper-data="{&quot;index&quot;:null}" fill="#6f3434" stroke="none" stroke-width="1.07721" stroke-linecap="butt"/><path d="M51.73005,191.46099v6.0447h-17.25v-6.0447z" data-paper-data="{&quot;index&quot;:null}" fill="#905042" stroke="none" stroke-width="1.18415" stroke-linecap="butt"/><g stroke-linecap="butt"><g fill="#a2a199" stroke="#6e5735" stroke-width="6"><path d="M208.79287,19.05414c9.04366,0 16.375,7.33134 16.375,16.375c0,9.04366 -7.33134,16.375 -16.375,16.375c-9.04366,0 -16.375,-7.33134 -16.375,-16.375c0,-9.04366 7.33134,-16.375 16.375,-16.375z"/></g><g fill="none" stroke="#866f40" stroke-width="3"><path d="M208.79287,19.0819c9.04366,0 16.375,7.33134 16.375,16.375c0,9.04366 -7.33134,16.375 -16.375,16.375c-9.04366,0 -16.375,-7.33134 -16.375,-16.375c0,-9.04366 7.33134,-16.375 16.375,-16.375z"/></g></g><path d="M201.19296,43.01387l7.47961,-7.47961" fill="none" stroke="#000000" stroke-width="3" stroke-linecap="round"/><path d="M146.78011,98.81719c0,-10.2863 8.33869,-18.625 18.625,-18.625c10.28631,0 18.625,8.3387 18.625,18.625c0,10.2863 -8.33869,18.625 -18.625,18.625c-10.28631,0 -18.625,-8.3387 -18.625,-18.625z" fill="url(#color-9)" stroke="none" stroke-width="NaN" stroke-linecap="butt"/><g fill="none"><g stroke="#6e5735" stroke-width="6"><path d="M146.8103,97.06719c0,-9.04366 7.33135,-16.375 16.375,-16.375c9.04366,0.00001 16.375,7.33135 16.375,16.375c0,9.04367 -7.33134,16.37501 -16.375,16.375c-9.04366,0.00001 -16.37501,-7.33134 -16.375,-16.375z" stroke-linecap="butt"/><path d="M163.28011,111.69217v-28.99999" stroke-linecap="round"/><path d="M148.78013,96.94219h29" stroke-linecap="round"/></g><g stroke="#866f40" stroke-width="3"><path d="M146.8103,97.06719c0,-9.04366 7.33135,-16.375 16.375,-16.375c9.04366,0.00001 16.375,7.33135 16.375,16.375c0,9.04367 -7.33134,16.37501 -16.375,16.375c-9.04366,0.00001 -16.37501,-7.33134 -16.375,-16.375z" stroke-linecap="butt"/><path d="M163.28011,82.19218l0.00001,29" stroke-linecap="round"/><path d="M177.78011,96.94219h-29" stroke-linecap="round"/></g></g><g><path d="M54.33748,67.53179v48.3582h-79.23949v-48.3582z" data-paper-data="{&quot;index&quot;:null}" fill="#6b6632" stroke="none" stroke-width="1.18415" stroke-linecap="butt"/><path d="M53.33748,72.45783v6.3806h-64.75l8,-6.3806z" data-paper-data="{&quot;index&quot;:null}" fill="#8f8842" stroke="none" stroke-width="1.18415" stroke-linecap="butt"/><path d="M69.73957,67.49599v48.3582h-22.987v-48.3582z" data-paper-data="{&quot;index&quot;:null}" fill="url(#color-10)" stroke="none" stroke-width="2.30239" stroke-linecap="butt"/><path d="M70.58747,63.19002v57.75h-17.25v-57.75z" data-paper-data="{&quot;index&quot;:null}" fill="#6b6632" stroke="none" stroke-width="1.07721" stroke-linecap="butt"/><path d="M70.58747,68.33785v6.0447h-17.25v-6.0447z" data-paper-data="{&quot;index&quot;:null}" fill="#8f8842" stroke="none" stroke-width="1.18415" stroke-linecap="butt"/><path d="M5.21547,80.72891c7.27351,-7.27351 19.06621,-7.27352 26.33973,0c7.27352,7.27352 7.27351,19.06622 0,26.33973c-7.27351,7.27351 -19.06621,7.27352 -26.33973,0c-7.27352,-7.27352 -7.27351,-19.06622 0,-26.33973z" fill="url(#color-11)" stroke="none" stroke-width="NaN" stroke-linecap="butt"/><g fill="none"><g stroke="#6e5735" stroke-width="6"><path d="M3.47124,79.51283c6.39483,-6.39483 16.76292,-6.39483 23.15775,0c6.39483,6.39484 6.39483,16.76292 0,23.15775c-6.39484,6.39484 -16.76292,6.39484 -23.15775,0c-6.39484,-6.39483 -6.39484,-16.76292 0,-23.15775z" stroke-linecap="butt"/><path d="M4.77573,101.50016l20.50609,-20.50609" stroke-linecap="round"/><path d="M4.9525,80.8173l20.5061,20.5061" stroke-linecap="round"/></g><g stroke="#866f40" stroke-width="3"><path d="M3.47124,79.51283c6.39483,-6.39483 16.76292,-6.39483 23.15775,0c6.39483,6.39484 6.39483,16.76292 0,23.15775c-6.39484,6.39484 -16.76292,6.39484 -23.15775,0c-6.39484,-6.39483 -6.39484,-16.76292 0,-23.15775z" stroke-linecap="butt"/><path d="M25.63537,80.64052l-20.50609,20.5061" stroke-linecap="round"/><path d="M25.4586,101.32339l-20.5061,-20.5061" stroke-linecap="round"/></g></g></g></g></g></svg>