<svg version="1.1" xmlns="http://www.w3.org/2000/svg" xmlns:xlink="http://www.w3.org/1999/xlink" width="185.83333" height="205.83333" viewBox="0,0,185.83333,205.83333"><defs><linearGradient x1="240.04332" y1="153.60843" x2="240.04332" y2="159.80513" gradientUnits="userSpaceOnUse" id="color-1"><stop offset="0" stop-color="#f69635"/><stop offset="1" stop-color="#ff0000"/></linearGradient><linearGradient x1="239.95665" y1="136.65294" x2="239.95665" y2="141.47258" gradientUnits="userSpaceOnUse" id="color-2"><stop offset="0" stop-color="#ffffff"/><stop offset="1" stop-color="#ff0000"/></linearGradient><linearGradient x1="213.20937" y1="221.57563" x2="234.75356" y2="221.57563" gradientUnits="userSpaceOnUse" id="color-3"><stop offset="0" stop-color="#be6d2f"/><stop offset="1" stop-color="#8e4108"/></linearGradient><linearGradient x1="235.46068" y1="222.83788" x2="257.32247" y2="222.83788" gradientUnits="userSpaceOnUse" id="color-4"><stop offset="0" stop-color="#be6d2f"/><stop offset="1" stop-color="#8e4108"/></linearGradient><linearGradient x1="236.85818" y1="178.66887" x2="236.85818" y2="207.02252" gradientUnits="userSpaceOnUse" id="color-5"><stop offset="0" stop-color="#0052ef"/><stop offset="1" stop-color="#004bd6"/></linearGradient><linearGradient x1="222.47024" y1="144.35922" x2="222.47024" y2="154.09873" gradientUnits="userSpaceOnUse" id="color-6"><stop offset="0" stop-color="#bc041a"/><stop offset="1" stop-color="#880010"/></linearGradient><linearGradient x1="232.90365" y1="141.67451" x2="232.90365" y2="157.86272" gradientUnits="userSpaceOnUse" id="color-7"><stop offset="0" stop-color="#bc041a"/><stop offset="1" stop-color="#a90216"/></linearGradient></defs><g transform="translate(-145.83333,-77.25778)"><g data-paper-data="{&quot;isPaintingLayer&quot;:true}" fill-rule="nonzero" stroke-linejoin="miter" stroke-miterlimit="10" stroke-dasharray="" stroke-dashoffset="0" style="mix-blend-mode: normal"><g data-paper-data="{&quot;origPos&quot;:null,&quot;index&quot;:null,&quot;origRot&quot;:0}" stroke="none" stroke-width="0" stroke-linecap="butt"><path d="M225.59607,183.63206c-1.87926,2.32846 -5.57615,2.00437 -9.83997,-1.43689c-3.42946,-2.76783 -9.43855,-8.96511 -9.43855,-8.96511l5.71968,-6.92285c0,0 4.56699,2.63438 8.83083,6.07562c4.26384,3.44124 6.60727,8.92077 4.728,11.24923z" data-paper-data="{&quot;origRot&quot;:0,&quot;origPos&quot;:null}" fill="#ff0021"/><g data-paper-data="{&quot;origPos&quot;:null}" fill="#ffffff"><path d="M195.51718,170.9458c-5.25979,-3.38718 -1.9829,-7.45573 0.78381,-12.51585c2.53541,-4.6371 10.46199,-5.07208 13.63873,-2.57375c4.37894,3.44375 0.26287,8.53304 -3.24134,12.48926c-3.50419,3.95622 -6.26997,5.76309 -11.18122,2.60035z" data-paper-data="{&quot;origRot&quot;:0,&quot;origPos&quot;:null}"/><path d="M202.96477,175.02915c-2.96669,-2.46147 -1.16054,-2.46057 3.72777,-8.27757c4.29105,-5.10629 4.83738,-6.04056 7.64669,-3.93148c2.51125,1.88529 -1.16736,4.84738 -3.86877,7.90537c-2.70143,3.05797 -5.77332,5.74101 -7.50567,4.30369z" data-paper-data="{&quot;origRot&quot;:0,&quot;origPos&quot;:null}"/></g></g><path d="M172.13717,153.86601v-12.73767h135.63902v12.73767h-9.95252c1.3846,-1.00669 2.28475,-2.63931 2.28475,-4.48217c0,-3.05851 -2.4794,-5.53791 -5.53791,-5.53791c-3.05851,0 -5.53791,2.4794 -5.53791,5.53791c0,1.84287 0.90016,3.47548 2.28475,4.48217h-14.81168c1.68024,-0.95092 2.81427,-2.7545 2.81427,-4.82296c0,-3.05851 -2.4794,-5.53791 -5.53791,-5.53791c-3.05851,0 -5.53791,2.4794 -5.53791,5.53791c0,2.06846 1.13403,3.87205 2.81427,4.82296h-16.70435c1.68024,-0.95092 2.81427,-2.7545 2.81427,-4.82296c0,-3.05851 -2.4794,-5.53791 -5.53791,-5.53791c-3.05851,0 -5.53791,2.4794 -5.53791,5.53791c0,2.06846 1.13403,3.87205 2.81427,4.82296h-17.72673c1.68024,-0.95092 2.81427,-2.7545 2.81427,-4.82296c0,-3.05851 -2.4794,-5.53791 -5.53791,-5.53791c-3.05851,0 -5.53791,2.4794 -5.53791,5.53791c0,2.06846 1.13403,3.87205 2.81427,4.82296h-18.58917c1.95606,-0.85448 3.32309,-2.80623 3.32309,-5.07727c0,-3.05851 -2.4794,-5.53791 -5.53791,-5.53791c-3.05851,0 -5.53791,2.4794 -5.53791,5.53791c0,2.27104 1.36701,4.22277 3.32309,5.07727h-17.60308c1.95606,-0.85448 3.32309,-2.80623 3.32309,-5.07727c0,-3.05851 -2.4794,-5.53791 -5.53791,-5.53791c-3.05851,0 -5.53791,2.4794 -5.53791,5.53791c0,2.27104 1.36703,4.22277 3.32309,5.07727z" data-paper-data="{&quot;origPos&quot;:null}" fill="#f69635" stroke="none" stroke-width="NaN" stroke-linecap="butt"/><path d="M172.22383,159.80513v-6.1967h7.94263c0.80557,0.45719 1.73703,0.71824 2.72946,0.71824c0.99244,0 1.92391,-0.26105 2.72948,-0.71824h16.57378c0.80557,0.45719 1.73705,0.71824 2.72948,0.71824c0.99244,0 1.92391,-0.26105 2.72948,-0.71824h17.66261c0.89148,0.61345 1.97158,0.97256 3.13555,0.97256c1.16397,0 2.24406,-0.35909 3.13555,-0.97256h16.90295c0.89148,0.61345 1.97158,0.97256 3.13555,0.97256c1.16397,0 2.24406,-0.35909 3.13555,-0.97256h15.88057c0.89148,0.61345 1.97158,0.97256 3.13555,0.97256c1.16397,0 2.24406,-0.35909 3.13555,-0.97256h14.07203c0.96551,0.81921 2.21549,1.31335 3.58088,1.31335c1.36539,0 2.6154,-0.49414 3.58088,-1.31335h9.71144v6.1967z" data-paper-data="{&quot;origPos&quot;:null}" fill="url(#color-1)" stroke="none" stroke-width="NaN" stroke-linecap="butt"/><path d="M172.13717,141.47258v-4.81967h135.63902v4.81967z" data-paper-data="{&quot;origPos&quot;:null}" fill="url(#color-2)" stroke="none" stroke-width="NaN" stroke-linecap="butt"/><path d="M190.46968,150.16579c0,3.04209 -2.46609,5.50818 -5.50818,5.50818c-1.55466,0 -2.9589,-0.64408 -3.96043,-1.67997c0.59112,0.21524 1.22929,0.33265 1.89485,0.33265c3.05851,0 5.53791,-2.4794 5.53791,-5.53791c0,-1.4489 -0.55643,-2.76787 -1.46728,-3.75481c2.05061,0.80181 3.50311,2.79721 3.50311,5.13188z" data-paper-data="{&quot;origPos&quot;:null}" fill="#ff0000" stroke="none" stroke-width="0" stroke-linecap="butt"/><path d="M212.41577,150.07912c0,3.04209 -2.46609,5.50818 -5.50818,5.50818c-1.51113,0 -2.88016,-0.60852 -3.87535,-1.59388c0.59159,0.2156 1.23027,0.33323 1.89644,0.33323c3.05851,0 5.53791,-2.4794 5.53791,-5.53791c0,-1.49019 -0.58861,-2.84291 -1.54599,-3.83835c2.04642,0.80383 3.49516,2.79711 3.49516,5.12875z" data-paper-data="{&quot;origPos&quot;:null}" fill="#ff0000" stroke="none" stroke-width="0" stroke-linecap="butt"/><path d="M235.82552,150.07912c0,3.04209 -2.46609,5.50818 -5.50818,5.50818c-1.32751,0 -2.54535,-0.46962 -3.49642,-1.25179c0.5169,0.15955 1.06611,0.24544 1.63538,0.24544c3.05851,0 5.53791,-2.4794 5.53791,-5.53791c0,-1.66938 -0.73865,-3.16624 -1.90696,-4.18157c2.17384,0.73717 3.73825,2.79472 3.73825,5.21765z" data-paper-data="{&quot;origPos&quot;:null}" fill="#ff0000" stroke="none" stroke-width="0" stroke-linecap="butt"/><path d="M258.80438,150.33674c0,3.04209 -2.46609,5.50818 -5.50818,5.50818c-1.62522,0 -3.08603,-0.70386 -4.09426,-1.82339c0.73324,0.35833 1.55733,0.55945 2.4284,0.55945c3.05851,0 5.53791,-2.4794 5.53791,-5.53791c0,-1.36923 -0.49691,-2.6224 -1.32024,-3.58901c1.75731,0.9203 2.95637,2.76146 2.95637,4.88268z" data-paper-data="{&quot;origPos&quot;:null}" fill="#ff0000" stroke="none" stroke-width="0" stroke-linecap="butt"/><path d="M280.83711,150.33674c0,3.04209 -2.46609,5.50818 -5.50818,5.50818c-1.67887,0 -3.18231,-0.75109 -4.19261,-1.93562c0.78609,0.4283 1.68748,0.67165 2.64569,0.67165c3.05851,0 5.53791,-2.4794 5.53791,-5.53791c0,-1.31264 -0.45668,-2.51861 -1.21984,-3.46769c1.63697,0.95478 2.73703,2.72962 2.73703,4.76136z" data-paper-data="{&quot;origPos&quot;:null}" fill="#ff0000" stroke="none" stroke-width="0" stroke-linecap="butt"/><path d="M302.78318,150.25008c0,3.04209 -2.46609,5.50818 -5.50818,5.50818c-1.07528,0 -2.07858,-0.30812 -2.92646,-0.84086c0.07363,0.00289 0.14761,0.00436 0.22196,0.00436c3.05851,0 5.53791,-2.4794 5.53791,-5.53791c0,-1.93742 -0.9949,-3.64248 -2.50167,-4.63213c2.88762,0.17153 5.17643,2.56765 5.17643,5.49835z" data-paper-data="{&quot;origPos&quot;:null}" fill="#ff0000" stroke="none" stroke-width="0" stroke-linecap="butt"/><g data-paper-data="{&quot;origPos&quot;:null,&quot;index&quot;:null,&quot;origRot&quot;:0}" stroke="none" stroke-width="0" stroke-linecap="butt"><path d="M220.78667,212.71944c1.94608,-5.61809 3.29197,-14.06125 3.29197,-14.06125c0,0 3.13468,-0.35318 5.94859,0.46573c2.83603,0.85795 5.59618,2.12289 5.59618,2.12289c0,0 0.06156,7.2357 -0.64829,10.99527c-0.56777,3.00702 -0.69744,4.53504 -0.63015,5.75095c0.18754,3.38854 2.25279,5.52376 -1.03362,6.37049c-4.82522,1.24322 -8.53323,0.51362 -12.76718,-2.1136c-3.41799,-2.12088 -4.03157,-4.00744 -3.74085,-6.3524c0.07186,-0.57959 3.14147,-0.74778 3.98332,-3.17813z" data-paper-data="{&quot;origPos&quot;:null}" fill="#004bd6"/><path d="M213.47129,223.62234c0.59016,-2.0623 4.36377,-2.79114 8.42859,-1.62793c2.96103,0.84736 9.14475,2.61332 11.35491,4.75828c0.51346,0.49831 0.19275,1.55946 0.01987,2.18705c-0.21777,0.79059 -2.82592,-0.40047 -2.82592,-0.40047c0,0 -1.18791,1.09292 -2.35092,1.39128c-3.74612,0.96104 -10.26574,-0.69995 -11.49387,-1.44822c-1.87402,-1.14182 -3.73642,-2.75022 -3.13269,-4.85999z" data-paper-data="{&quot;origPos&quot;:null}" fill="#f9c869"/><path d="M213.20983,220.68028c-0.05406,-4.41456 4.67161,-6.23065 9.26694,-4.91562c2.13716,0.61157 5.05882,3.60235 7.02087,4.64725c3.03042,1.61387 2.65996,1.14626 5.02887,2.20062c0.64168,0.28559 -0.21499,3.15902 -0.85986,4.88579c-0.31157,0.83428 -3.58829,-0.2929 -3.58829,-0.2929c0,0 -5.67856,1.25856 -10.27391,-0.05649c-4.59534,-1.31503 -6.56182,-3.78751 -6.59465,-6.46866z" data-paper-data="{&quot;origPos&quot;:null}" fill="url(#color-3)"/></g><g data-paper-data="{&quot;origPos&quot;:null,&quot;index&quot;:null,&quot;origRot&quot;:0}" stroke="none" stroke-width="0" stroke-linecap="butt"><path d="M238.74138,215.31944c-1.15359,-5.83262 -5.36732,-11.91895 -5.36732,-11.91895c0,0 3.14061,-2.33296 5.19719,-3.28025c2.60595,-1.20034 6.74997,-2.22283 6.74997,-2.22283c0,0 4.14693,6.24854 5.43043,9.85282c1.02659,2.88281 1.6854,4.2676 2.35685,5.28353c1.8712,2.83126 4.73153,3.63313 2.32098,6.02202c-3.53924,3.50745 -7.10896,4.7479 -12.09,4.61516c-4.0211,-0.10715 -5.50253,-1.42659 -6.43438,-3.59801c-0.23033,-0.53668 2.33531,-2.23031 1.83625,-4.75347z" data-paper-data="{&quot;origPos&quot;:null}" fill="#004bd6"/><path d="M237.92459,228.42368c-0.5307,-2.07839 2.35997,-4.61124 6.45651,-5.65728c2.98414,-0.76198 9.21429,-2.35643 12.20465,-1.61922c0.69471,0.17126 0.95307,1.24929 1.12037,1.87839c0.21076,0.7925 -2.64206,1.07969 -2.64206,1.07969c0,0 -0.47441,1.5429 -1.32811,2.38719c-2.74982,2.71948 -9.21707,4.57398 -10.65493,4.54738c-2.19407,-0.04059 -4.61351,-0.48991 -5.15643,-2.61616z" data-paper-data="{&quot;origPos&quot;:null}" fill="#f9c869"/><path d="M236.21479,226.01521c-2.27353,-3.78447 0.89078,-7.73638 5.52199,-8.91894c2.15382,-0.54997 6.18519,0.55865 8.40641,0.47115c3.43069,-0.13512 2.87495,-0.35201 5.45226,-0.63658c0.69812,-0.07709 1.40785,2.83612 1.72209,4.65237c0.1518,0.87755 -3.24606,1.55716 -3.24606,1.55716c0,0 -4.26832,3.95112 -8.89952,5.1337c-4.6312,1.18256 -7.57634,0.03963 -8.95714,-2.25884z" data-paper-data="{&quot;origPos&quot;:null}" fill="url(#color-4)"/></g><g data-paper-data="{&quot;origPos&quot;:null,&quot;index&quot;:null}"><path d="M233.76457,178.99011c4.62326,0 9.7628,-1.37577 13.32871,1.56684c4.78624,3.94966 5.52844,8.88951 5.52844,15.09499c0,5.72021 -7.0431,11.37057 -15.59231,11.37057c-8.54923,0 -16.15051,-3.39231 -15.93006,-15.31088c0.21608,-11.68287 4.11602,-12.72153 12.66525,-12.72153z" data-paper-data="{&quot;origPos&quot;:null}" fill="url(#color-5)" stroke="none" stroke-width="0" stroke-linecap="butt"/><path d="M224.85832,180.23534c2.13518,-1.72981 6.74752,-3.03571 10.98896,-2.93392c4.24144,0.1018 7.54293,0.74879 10.47859,2.72442c4.48693,3.01961 3.93164,10.78517 3.93164,10.78517c0,0 -6.33256,2.12038 -12.60895,1.91385c-6.8427,-0.22516 -16.54926,-1.35097 -16.54926,-1.35097c0,0 -1.28451,-7.05256 3.75902,-11.13857z" data-paper-data="{&quot;origPos&quot;:null}" fill="#ff0021" stroke="none" stroke-width="0" stroke-linecap="butt"/><path d="M227.79786,194.21822c0,0 -0.63864,-5.5872 -0.32646,-8.56083c0.24303,-2.31516 1.44782,-6.16554 1.44782,-6.16554" data-paper-data="{&quot;origPos&quot;:null,&quot;origRot&quot;:0}" fill="none" stroke="#0052ef" stroke-width="3.5" stroke-linecap="round"/><path d="M241.81404,194.52615c0,0 -1.35417,-5.4581 -1.42827,-8.44716c-0.0577,-2.32716 0.64021,-6.30082 0.64021,-6.30082" data-paper-data="{&quot;origPos&quot;:null}" fill="none" stroke="#0052ef" stroke-width="3.5" stroke-linecap="round"/><path d="M241.42001,195.76452c-1.27461,0 -2.3079,-1.03327 -2.3079,-2.3079c0,-1.27461 1.03327,-2.3079 2.3079,-2.3079c1.27461,0 2.3079,1.03327 2.3079,2.3079c0,1.27461 -1.03327,2.3079 -2.3079,2.3079z" data-paper-data="{&quot;origPos&quot;:null}" fill="#ffe84f" stroke="none" stroke-width="0" stroke-linecap="butt"/><path d="M227.46006,195.76452c-1.27461,0 -2.3079,-1.03327 -2.3079,-2.3079c0,-1.27461 1.03327,-2.3079 2.3079,-2.3079c1.27461,0 2.3079,1.03327 2.3079,2.3079c0,1.27461 -1.03327,2.3079 -2.3079,2.3079z" data-paper-data="{&quot;origPos&quot;:null}" fill="#ffe84f" stroke="none" stroke-width="0" stroke-linecap="butt"/></g><g data-paper-data="{&quot;origPos&quot;:null}"><path d="M218.48125,144.65285c3.93363,0.92728 11.74519,2.30891 11.27442,4.306c-0.47078,1.99707 -0.36814,5.92784 -4.30177,5.00055c-4.88165,-1.15076 -10.46399,-5.24658 -10.28524,-7.3982c0.11572,-1.39273 -0.62104,-2.83563 3.31259,-1.90835z" data-paper-data="{&quot;origPos&quot;:null}" fill="url(#color-6)" stroke="none" stroke-width="0" stroke-linecap="butt"/><path d="M250.01175,178.43567c0,0 -0.69754,0.89703 -2.09186,0.63712c-2.57346,-0.4797 -3.37896,-1.43403 -3.37896,-1.43403c-0.5123,-0.89376 2.23841,-5.07815 2.23841,-5.07815c0.67957,-1.51332 4.77432,-1.13892 4.77432,-1.13892c1.20836,-0.5063 -0.03999,2.7144 1.51289,4.12553c1.29829,1.17978 0.1423,2.73681 -1.06605,3.24311c-1.20836,0.5063 -1.98872,-0.35463 -1.98872,-0.35463z" data-paper-data="{&quot;origRot&quot;:0,&quot;origPos&quot;:null}" fill="#5a2c0a" stroke="none" stroke-width="0" stroke-linecap="butt"/><path d="M252.35808,156.64849c0.86705,0.00188 3.1723,-1.31075 6.34947,-0.5618c3.17716,0.74897 4.35679,4.82463 3.31062,9.26257c-1.04617,4.43795 -5.27605,8.39508 -10.95783,7.05568c-0.10659,-0.02512 -0.84044,0.25646 -1.56401,0.93807c-2.3605,2.22357 -1.96451,4.81696 -4.54475,5.96841c-4.06355,1.81336 -6.75144,2.60774 -15.06603,0.46633c-5.88204,-1.51491 -8.30755,-2.83729 -9.06417,-3.78833c-1.33373,-1.67647 -2.73161,-3.08524 -2.99961,-5.21069c-0.69512,-5.51272 3.64638,-7.08247 5.29927,-12.38729c1.43756,-4.61377 1.13849,-9.1589 5.89637,-8.31284c3.21591,0.57187 20.84705,6.5645 23.34067,6.56988z" data-paper-data="{&quot;origPos&quot;:null}" fill="#ffdebd" stroke="none" stroke-width="0" stroke-linecap="butt"/><path d="M225.28683,153.27791c0.82447,-2.633 2.81559,-4.35328 4.44732,-3.84234c1.63173,0.51094 2.28614,3.0596 1.46168,5.6926c-0.82447,2.633 -2.81558,4.35328 -4.4473,3.84234c-1.63173,-0.51094 -2.28614,-3.0596 -1.46168,-5.6926z" data-paper-data="{&quot;origPos&quot;:null,&quot;origRot&quot;:0}" fill="#ffffff" stroke="none" stroke-width="0" stroke-linecap="butt"/><path d="M250.87197,155.56818c1.49876,0.41218 0.93684,2.75492 0.3662,5.17562c-0.57065,2.4207 -1.82203,5.41614 -3.24356,4.78733c-1.91365,-0.84647 -1.39112,-1.63459 -1.39112,-1.63459c0,0 -1.00259,0.82566 -2.32644,-0.25375c-1.138,-0.92786 1.03024,-2.62332 1.36714,-4.05246c0.57065,-2.4207 -1.08246,-5.75756 5.22779,-4.02217z" data-paper-data="{&quot;origPos&quot;:null}" fill="#5a2c0a" stroke="none" stroke-width="0" stroke-linecap="butt"/><path d="M236.3906,154.06259c1.60721,0.58349 2.14682,3.15891 1.20526,5.75236c-0.94155,2.59345 -3.00774,4.22283 -4.61495,3.63933c-1.60721,-0.58349 -2.14682,-3.15891 -1.20526,-5.75236c0.94155,-2.59345 3.00774,-4.22283 4.61495,-3.63933z" data-paper-data="{&quot;origPos&quot;:null,&quot;origRot&quot;:0}" fill="#ffffff" stroke="none" stroke-width="0" stroke-linecap="butt"/><path d="M235.69135,155.72274c0.19696,0.69532 0.20881,1.59451 -0.01216,2.53196c-0.22099,0.93742 -0.6332,1.73666 -1.11999,2.2708c-0.48733,0.534 -1.04937,0.80345 -1.57096,0.6805c-0.52159,-0.12296 -0.9041,-0.61506 -1.10162,-1.31051c-0.19696,-0.69532 -0.20881,-1.59451 0.01216,-2.53196c0.22099,-0.93742 0.6332,-1.73666 1.11999,-2.2708c0.48733,-0.534 1.04937,-0.80345 1.57096,-0.6805c0.52159,0.12296 0.9041,0.61506 1.10162,1.31051z" data-paper-data="{&quot;origPos&quot;:null}" fill="#000000" stroke="none" stroke-width="1" stroke-linecap="butt"/><path d="M242.95589,131.36023c6.17644,2.7577 9.95836,14.18579 9.95836,14.18579c2.07484,-1.98059 6.65721,-1.67195 6.65721,-1.67195c4.0072,0.94463 7.70537,1.84721 5.56637,9.28545c-0.96973,3.37218 -3.90591,5.70308 -7.91312,4.75845c-1.95923,-0.46187 -6.98747,0.35013 -8.6017,-0.85245c-6.1477,-4.57999 -14.71476,-5.78336 -20.22444,-11.11382c-3.78131,-3.65831 -5.25419,-4.49703 -2.01104,-12.3754c2.32901,-5.65771 8.61753,-5.76601 16.56834,-2.21609z" data-paper-data="{&quot;origPos&quot;:null}" fill="#ff0021" stroke="none" stroke-width="0" stroke-linecap="butt"/><path d="M234.83482,134.77263c3.69157,0.87022 6.11172,4.0041 5.40553,6.99972c-0.70616,2.99562 -1.79621,5.49668 -7.96279,3.84836c-5.84135,-1.56139 -6.11172,-4.0041 -5.40553,-6.99972c0.70616,-2.99562 4.27123,-4.71858 7.96279,-3.84836z" data-paper-data="{&quot;origPos&quot;:null}" fill="#ffffff" stroke="none" stroke-width="0" stroke-linecap="butt"/><path d="M224.8439,141.82199c8.6916,1.90915 19.57787,7.58682 22.69294,9.47783c2.57777,1.56481 3.05446,4.61017 3.04966,6.44436c-0.0013,0.49618 -5.95941,-0.66271 -8.80174,-1.67003c-5.84825,-2.07263 -26.56532,-10.21897 -26.564,-10.71515c0.00481,-1.83419 6.07009,-4.31744 9.62316,-3.53699z" data-paper-data="{&quot;origPos&quot;:null}" fill="url(#color-7)" stroke="none" stroke-width="0" stroke-linecap="butt"/><path d="M235.06625,143.86195l0.13877,-4.34183l-2.5628,2.10856l-0.8844,-2.9085l-1.81846,3.99022l-1.71914,-1.68328l4.22389,-4.83507l0.80644,3.26078l3.17976,-2.68477l0.98906,7.64862z" data-paper-data="{&quot;origPos&quot;:null}" fill="#ff0021" stroke="none" stroke-width="0" stroke-linecap="butt"/><path d="M218.12571,171.04787c0.03641,-0.41794 -0.56044,1.56816 -2.89871,-0.54013c-0.98892,-0.89164 -0.35237,-3.21879 -0.35237,-3.21879c-0.05356,-0.9196 0.35279,-2.61956 1.17725,-2.48192c1.66241,0.27751 6.36071,3.99391 6.36071,3.99391c3.22768,0.95756 10.7741,0.30315 10.7741,0.30315c2.36086,-0.63691 3.73897,-2.84734 6.34114,-1.68371c0.4468,0.19979 0.30926,1.99201 -0.42403,5.10273c-0.66873,2.83675 -3.13412,4.39385 -6.00871,3.71622c-1.79144,-0.4223 -3.04449,-1.76286 -3.21613,-1.66432c-0.16246,0.09327 -0.39713,0.97912 -1.87326,1.06957c-2.56844,0.15738 -6.11195,-0.57713 -8.37475,-1.80248c-0.7414,-0.40149 -1.63106,-1.3501 -1.50526,-2.79423z" data-paper-data="{&quot;origPos&quot;:null}" fill="#38291e" stroke="none" stroke-width="0" stroke-linecap="butt"/><path d="M226.03264,156.21256c3.5536,1.13539 6.12063,5.92891 5.36275,9.1439c-0.75788,3.21499 -4.78478,4.661 -8.43015,3.86831c-7.90942,-1.71992 -6.43569,-3.97904 -5.85488,-7.66952c0.92919,-5.90422 3.74448,-6.99703 8.9223,-5.34269z" data-paper-data="{&quot;origPos&quot;:null}" fill="#ffdebd" stroke="none" stroke-width="0" stroke-linecap="butt"/><g data-paper-data="{&quot;origPos&quot;:null}" fill="none" stroke="#f6b09a" stroke-width="1.5" stroke-linecap="round"><path d="M252.5283,167.88872c0,0 -0.8232,-4.34104 2.69874,-5.94055c2.45574,-1.11529 3.85586,0.21526 3.85586,0.21526" data-paper-data="{&quot;origPos&quot;:null}"/><path d="M256.72859,165.49152l-3.28729,-0.77492" data-paper-data="{&quot;origPos&quot;:null}"/><path d="M253.68389,168.24376l-0.70443,-0.16605" data-paper-data="{&quot;origPos&quot;:null}"/></g><path d="M238.42703,153.11236c-0.73067,-0.44416 -2.89712,0.21521 -2.89712,0.21521c0,0 -0.39566,-5.28192 4.78483,-3.87512c1.46124,0.71403 1.59396,2.58805 1.35785,3.58964c-0.34773,1.47512 -1.61518,3.27397 -1.61518,3.27397c0,0 -0.58055,-1.11332 -0.78867,-1.92062c-0.20175,-0.78253 -0.14096,-0.88061 -0.84172,-1.28308z" data-paper-data="{&quot;origPos&quot;:null}" fill="#38291e" stroke="none" stroke-width="0" stroke-linecap="butt"/><path d="M229.33256,149.34566c-0.76832,-0.25045 -0.80039,-0.1396 -1.51641,0.23503c-0.73869,0.3865 -1.9541,0.70165 -1.9541,0.70165c0,0 0.48589,-2.14621 1.34777,-3.39282c0.58521,-0.84644 2.06517,-2.00372 3.57436,-1.39758c4.51572,2.90254 0.33002,6.14836 0.33002,6.14836c0,0 -0.96235,-2.04993 -1.78166,-2.29462z" data-paper-data="{&quot;origPos&quot;:null,&quot;index&quot;:null,&quot;origRot&quot;:0}" fill="#38291e" stroke="none" stroke-width="0" stroke-linecap="butt"/><path d="M229.00654,151.92156c0.22155,0.78207 0.02736,2.35076 -0.01216,2.53196c-0.40035,1.83426 -1.56841,2.36048 -1.56841,2.36048c0,0 -0.42158,-0.36242 -0.94316,-0.48538c-0.52159,-0.12296 -1.37066,-0.41368 -1.37066,-0.41368c0,0 -0.11913,-1.41515 0.10184,-2.35257c0.22097,-0.93742 0.6332,-1.73666 1.12001,-2.2708c0.48733,-0.534 1.04936,-0.80345 1.57094,-0.6805c0.52159,0.12296 0.90411,0.61506 1.10162,1.31051z" data-paper-data="{&quot;origPos&quot;:null}" fill="#000000" stroke="none" stroke-width="1" stroke-linecap="butt"/></g><g data-paper-data="{&quot;origPos&quot;:null,&quot;index&quot;:null,&quot;origRot&quot;:0}" stroke="none" stroke-width="0" stroke-linecap="butt"><path d="M255.95772,183.15945c-4.15913,3.56711 -7.84465,4.00153 -9.79265,1.73025c-1.948,-2.27128 0.23067,-7.81836 4.38977,-11.38548c4.15911,-3.5671 8.64535,-6.33677 8.64535,-6.33677l5.92396,6.74888c0,0 -5.82124,6.37405 -9.16646,9.24312z" data-paper-data="{&quot;origRot&quot;:0,&quot;origPos&quot;:null}" fill="#ff0021"/><g data-paper-data="{&quot;origPos&quot;:null}" fill="#ffffff"><path d="M264.59757,169.04524c-3.62085,-3.84974 -7.88713,-8.81378 -3.61306,-12.38684c3.10069,-2.59211 11.03671,-2.39418 13.70954,2.16508c2.91667,4.9752 6.31368,8.94401 1.15744,12.48686c-4.81456,3.30807 -7.63309,1.58462 -11.25391,-2.26511z" data-paper-data="{&quot;origRot&quot;:0,&quot;origPos&quot;:null}"/><path d="M260.89831,171.53694c-2.79159,-2.9759 -6.55705,-5.82676 -4.10326,-7.78624c2.74503,-2.19206 3.31904,-1.27452 7.76074,3.70126c5.05994,5.66834 6.86524,5.61349 3.97343,8.16249c-1.68861,1.48844 -4.83932,-1.10162 -7.63091,-4.07751z" data-paper-data="{&quot;origRot&quot;:0,&quot;origPos&quot;:null}"/></g></g><path d="M145.83334,283.09112v-205.83333h185.83333v205.83333z" fill="none" stroke="#000000" stroke-width="0" stroke-linecap="butt"/></g></g></svg>