<svg version="1.1" xmlns="http://www.w3.org/2000/svg" xmlns:xlink="http://www.w3.org/1999/xlink" width="451.58364" height="254.55886" viewBox="0,0,451.58364,254.55886"><defs><linearGradient x1="286.53931" y1="-2433.23936" x2="286.53931" y2="6853.62318" gradientUnits="userSpaceOnUse" id="color-1"><stop offset="0" stop-color="#52d7ff"/><stop offset="1" stop-color="#52d7ff" stop-opacity="0"/></linearGradient></defs><g transform="translate(-29.05333,-116.13661)"><g data-paper-data="{&quot;isPaintingLayer&quot;:true}" fill-rule="nonzero" stroke-linecap="butt" stroke-linejoin="miter" stroke-miterlimit="10" stroke-dasharray="" stroke-dashoffset="0" style="mix-blend-mode: normal"><path d="M30.30114,370.69548l-0.24781,-218.26221c0,0 20.65944,-14.26773 49.83848,-14.33089c29.9086,-0.06473 39.18082,-19.81496 114.75029,-18.09745c83.95085,4.82815 68.01342,17.5838 122.60228,14.81112c55.43216,0.32347 62.45839,-17.12426 103.54339,-17.67943c41.085,-0.55517 59.1861,15.4805 59.1861,15.4805l0.22224,236.10583z" data-paper-data="{&quot;origPos&quot;:null,&quot;index&quot;:null}" fill="url(#color-1)" stroke="#3e7ac6" stroke-width="0"/><path d="M30.05333,152.43327c0,0 20.65944,-14.26773 49.83848,-14.33089c29.9086,-0.06473 39.18082,-19.81496 114.75029,-18.09745c83.95085,4.82815 68.01342,17.5838 122.60228,14.81112c55.43216,0.32347 62.45839,-17.12426 103.54339,-17.67943c41.085,-0.55517 59.1861,15.4805 59.1861,15.4805" data-paper-data="{&quot;origPos&quot;:null,&quot;index&quot;:null}" fill="none" stroke="#3b9bb9" stroke-width="2"/></g></g></svg>