<svg version="1.1" xmlns="http://www.w3.org/2000/svg" xmlns:xlink="http://www.w3.org/1999/xlink" width="765.2338" height="509.87068" viewBox="0,0,765.2338,509.87068"><defs><linearGradient x1="228.8652" y1="-10.02524" x2="228.8652" y2="396.12679" gradientUnits="userSpaceOnUse" id="color-1"><stop offset="0" stop-color="#17080f"/><stop offset="1" stop-color="#4a2449"/></linearGradient><linearGradient x1="113.72718" y1="2.64266" x2="-148.93699" y2="2.64266" gradientUnits="userSpaceOnUse" id="color-2"><stop offset="0" stop-color="#4a339f"/><stop offset="1" stop-color="#201849"/></linearGradient><linearGradient x1="158.57532" y1="216.17245" x2="-147.99891" y2="216.17245" gradientUnits="userSpaceOnUse" id="color-3"><stop offset="0" stop-color="#3c2e57"/><stop offset="1" stop-color="#281c3c"/></linearGradient><radialGradient cx="139.64064" cy="220.21026" r="84.94105" gradientUnits="userSpaceOnUse" id="color-4"><stop offset="0" stop-color="#323050"/><stop offset="1" stop-color="#27263f"/></radialGradient><linearGradient x1="113.72718" y1="108.33158" x2="-148.93699" y2="108.33158" gradientUnits="userSpaceOnUse" id="color-5"><stop offset="0" stop-color="#593931"/><stop offset="1" stop-color="#321f17"/></linearGradient><linearGradient x1="588.9129" y1="347.44182" x2="588.9129" y2="-25.78673" gradientUnits="userSpaceOnUse" id="color-6"><stop offset="0" stop-color="#27002f" stop-opacity="0"/><stop offset="1" stop-color="#27002f" stop-opacity="0.72549"/></linearGradient><linearGradient x1="588.9129" y1="-25.7868" x2="588.9129" y2="440.88118" gradientUnits="userSpaceOnUse" id="color-7"><stop offset="0" stop-color="#ff00f7" stop-opacity="0"/><stop offset="1" stop-color="#ff00f7" stop-opacity="0.50196"/></linearGradient></defs><g transform="translate(152.687,26.00662)"><g data-paper-data="{&quot;isPaintingLayer&quot;:true}" fill-rule="nonzero" stroke-linejoin="miter" stroke-miterlimit="10" stroke-dasharray="" stroke-dashoffset="0" style="mix-blend-mode: normal"><path d="M-126.554,396.12679v-406.15197h710.83838v406.15197z" data-paper-data="{&quot;index&quot;:null}" fill="url(#color-1)" stroke="none" stroke-width="0" stroke-linecap="butt"/><path d="M228.64389,326.0026l-29.59236,36.02548l-1.28662,36.02548l-48.89172,2.57325l3.85987,-102.92994l-10.293,-52.7516l-34.73885,-56.61146l-10.293,-15.43949l18.01274,12.86624l20.58598,21.87261l5.1465,-46.31847l5.1465,-27.01911l9.00637,48.89172l1.28662,25.73248l20.58598,46.31847l20.58599,-48.89172l-21.87261,-52.75159l-9.00637,-27.01911l28.30573,42.4586l20.58598,38.59872l11.57962,-18.01274l34.73886,-24.44586l-21.87261,33.45223l-28.30573,42.4586l-15.43949,34.73885l-7.71974,57.89809l45.03184,-39.88535l65.61784,-41.17198z" data-paper-data="{&quot;index&quot;:null}" fill="#272d29" stroke="#25302a" stroke-width="1" stroke-linecap="round"/><path d="M236.4082,300.66501l65.61784,41.17198l45.03184,39.88535l-7.71974,-57.89809l-15.43949,-34.73885l-28.30573,-42.4586l-21.87261,-33.45223l34.73886,24.44586l11.57962,18.01274l20.58598,-38.59873l28.30574,-42.4586l-9.00637,27.01911l-21.87261,52.75159l20.58599,48.89172l20.58598,-46.31847l1.28663,-25.73248l9.00637,-48.89172l5.14649,27.01911l5.1465,46.31847l20.58598,-21.87261l18.01274,-12.86624l-10.29299,15.43949l-34.73885,56.61146l-10.29299,52.7516l3.85987,102.92993l-48.89172,-2.57325l-1.28662,-36.02548l-29.59236,-36.02548z" data-paper-data="{&quot;index&quot;:null}" fill="#272d29" stroke="#23332a" stroke-width="1" stroke-linecap="round"/><path d="M538.64384,321.27961l-29.59236,37.34003l-1.28662,37.34003l-48.89172,2.66715l3.85987,-106.68581l-10.29299,-54.67647l-34.73885,-58.6772l-10.29299,-16.00287l18.01274,13.33573l20.58598,22.67073l5.1465,-48.00861l5.1465,-28.00503l9.00637,50.67576l1.28663,26.67145l20.58599,48.00861l20.58599,-50.67575l-21.87261,-54.67648l-9.00637,-28.00503l28.30574,44.0079l20.58599,40.00717l11.57962,-18.67002l34.73886,-25.33788l-21.87262,34.67289l-28.30573,44.00789l-15.43949,36.00646l-7.71975,60.01076l45.03185,-41.34075l65.61784,-42.67432z" data-paper-data="{&quot;index&quot;:null}" fill="#272d29" stroke="#23332a" stroke-width="1" stroke-linecap="round"/><g data-paper-data="{&quot;index&quot;:null}" stroke="none" stroke-width="1" stroke-linecap="butt"><path d="M257.64047,60.96954c14.72903,0 28.07618,4.18193 37.74107,10.93792c9.66489,6.75599 15.64752,16.08603 15.64752,26.38226c0,10.29622 -5.98263,19.62626 -15.64752,26.38225c-9.66489,6.75599 -23.01204,10.93792 -37.74107,10.93792c-14.72903,0 -28.07617,-4.18193 -37.74106,-10.93792c-9.6649,-6.75599 -15.64753,-16.08603 -15.64753,-26.38226c0,-10.29623 5.98264,-19.62627 15.64753,-26.38226c9.66489,-6.75599 23.01203,-10.93792 37.74106,-10.93792z" fill="#43345e"/><path d="M191.29346,44.38285c14.72903,0 28.07618,4.18193 37.74107,10.93792c9.66489,6.75598 15.64752,16.08603 15.64752,26.38225c0,10.29623 -5.98263,19.62627 -15.64752,26.38226c-9.66489,6.75599 -23.01204,10.93792 -37.74107,10.93792c-14.72903,0 -28.07618,-4.18193 -37.74107,-10.93792c-9.66489,-6.75599 -15.64752,-16.08603 -15.64752,-26.38226c0,-10.29623 5.98263,-19.62627 15.64752,-26.38226c9.66489,-6.75599 23.01204,-10.93792 37.74107,-10.93792z" fill="#43345e"/><path d="M249.01637,80.0008c0,0 1.36737,4.35609 1.36737,7.14474c0,2.78865 -0.52248,5.31502 -1.36737,7.14474c-0.84385,1.82973 -2.01011,2.96281 -3.29765,2.96281c-1.28754,0 -2.4538,-1.13309 -3.29765,-2.96281c-0.84489,-1.82972 -1.36737,-7.14474 -1.36737,-7.14474z" data-paper-data="{&quot;origPos&quot;:null}" fill="#000000"/><path d="M228.61364,86.62721c0,0 -0.52248,5.31502 -1.36737,7.14474c-0.84385,1.82972 -2.01011,2.9628 -3.29765,2.9628c-1.28754,0 -2.4538,-1.13308 -3.29765,-2.9628c-0.84489,-1.82972 -1.36737,-4.35609 -1.36737,-7.14474c0,-2.78865 1.36737,-7.14475 1.36737,-7.14475z" data-paper-data="{&quot;origPos&quot;:null}" fill="#000000"/></g><g data-paper-data="{&quot;index&quot;:null}" stroke="none" stroke-width="1" stroke-linecap="butt"><path d="M418.29347,31.96955c14.72903,0 28.07617,4.18193 37.74106,10.93792c9.66489,6.75599 15.64753,16.08603 15.64753,26.38226c0,10.29623 -5.98263,19.62627 -15.64753,26.38226c-9.66489,6.75599 -23.01203,10.93792 -37.74106,10.93792c-14.72903,0 -28.07618,-4.18193 -37.74107,-10.93792c-9.66489,-6.75599 -15.64752,-16.08603 -15.64752,-26.38225c0,-10.29623 5.98263,-19.62627 15.64752,-26.38226c9.66489,-6.75599 23.01204,-10.93792 37.74107,-10.93792z" fill="#43345e"/><path d="M484.64045,15.3828c14.72903,0 28.07618,4.18193 37.74107,10.93792c9.66489,6.75599 15.64752,16.08603 15.64752,26.38226c0,10.29623 -5.98263,19.62627 -15.64752,26.38226c-9.66489,6.75599 -23.01204,10.93792 -37.74107,10.93792c-14.72903,0 -28.07618,-4.18193 -37.74107,-10.93792c-9.66489,-6.75599 -15.64752,-16.08603 -15.64752,-26.38226c0,-10.29622 5.98263,-19.62627 15.64752,-26.38225c9.66489,-6.75599 23.01204,-10.93792 37.74107,-10.93792z" fill="#43345e"/><path d="M434.88021,58.14552c0,0 -0.52248,5.31502 -1.36737,7.14474c-0.84385,1.82972 -2.01011,2.96281 -3.29765,2.96281c-1.28754,0 -2.4538,-1.13308 -3.29765,-2.96281c-0.84489,-1.82972 -1.36737,-4.35609 -1.36737,-7.14474c0,-2.78865 1.36737,-7.14474 1.36737,-7.14474z" data-paper-data="{&quot;origPos&quot;:null}" fill="#000000"/><path d="M455.28294,50.48245c0,0 1.36737,4.3561 1.36737,7.14475c0,2.78865 -0.52248,5.31502 -1.36737,7.14474c-0.84385,1.82972 -2.01011,2.9628 -3.29765,2.9628c-1.28754,0 -2.4538,-1.13308 -3.29765,-2.9628c-0.84489,-1.82972 -1.36737,-7.14474 -1.36737,-7.14474z" data-paper-data="{&quot;origPos&quot;:null}" fill="#000000"/></g><path d="M-92.86009,335.3742l65.61784,41.17198l45.03184,39.88535l-7.71974,-57.89809l-15.43949,-34.73885l-28.30573,-42.4586l-21.87261,-33.45223l34.73886,24.44586l11.57962,18.01274l20.58598,-38.59873l28.30574,-42.4586l-9.00637,27.01911l-21.87261,52.75159l20.58599,48.89172l20.58598,-46.31847l1.28663,-25.73248l9.00637,-48.89172l5.14649,27.01911l5.1465,46.31847l20.58598,-21.87261l18.01274,-12.86624l-10.29299,15.43949l-34.73885,56.61146l-10.29299,52.7516l3.85987,102.92993l-48.89172,-2.57325l-1.28662,-36.02548l-29.59236,-36.02548z" data-paper-data="{&quot;index&quot;:null}" fill="#272d29" stroke="#23332a" stroke-width="1" stroke-linecap="round"/><g data-paper-data="{&quot;index&quot;:null}" stroke="none" stroke-width="1" stroke-linecap="butt"><path d="M24.05696,79.73127c14.72903,0 28.07618,4.18193 37.74107,10.93792c9.66489,6.75599 15.64752,16.08603 15.64752,26.38226c0,10.29622 -5.98263,19.62626 -15.64752,26.38225c-9.66489,6.75599 -23.01204,10.93792 -37.74107,10.93792c-14.72903,0 -28.07617,-4.18193 -37.74106,-10.93792c-9.6649,-6.75599 -15.64753,-16.08603 -15.64753,-26.38226c0,-10.29623 5.98264,-19.62627 15.64753,-26.38226c9.66489,-6.75599 23.01203,-10.93792 37.74106,-10.93792z" fill="#43345e"/><path d="M-42.29003,63.14458c14.72903,0 28.07618,4.18193 37.74107,10.93792c9.66489,6.75598 15.64752,16.08603 15.64752,26.38225c0,10.29623 -5.98263,19.62627 -15.64752,26.38226c-9.66489,6.75599 -23.01204,10.93792 -37.74107,10.93792c-14.72903,0 -28.07618,-4.18193 -37.74107,-10.93792c-9.66489,-6.75599 -15.64752,-16.08603 -15.64752,-26.38226c0,-10.29623 5.98263,-19.62627 15.64752,-26.38226c9.66489,-6.75599 23.01204,-10.93792 37.74107,-10.93792z" fill="#43345e"/><path d="M15.4329,98.7625c0,0 1.36737,4.35609 1.36737,7.14474c0,2.78865 -0.52248,5.31502 -1.36737,7.14474c-0.84385,1.82973 -2.01011,2.96281 -3.29765,2.96281c-1.28754,0 -2.4538,-1.13309 -3.29765,-2.96281c-0.84489,-1.82972 -1.36737,-7.14474 -1.36737,-7.14474z" data-paper-data="{&quot;origPos&quot;:null}" fill="#000000"/><path d="M-4.96984,105.38894c0,0 -0.52248,5.31502 -1.36737,7.14474c-0.84385,1.82972 -2.01011,2.9628 -3.29765,2.9628c-1.28754,0 -2.4538,-1.13308 -3.29765,-2.9628c-0.84489,-1.82972 -1.36737,-4.35609 -1.36737,-7.14474c0,-2.78865 1.36737,-7.14475 1.36737,-7.14475z" data-paper-data="{&quot;origPos&quot;:null}" fill="#000000"/></g><path d="M-148.937,-19.40237l262.66417,-2.81426l1.07671,108.15788l-259.21574,0.31843" data-paper-data="{&quot;index&quot;:null}" fill="url(#color-2)" stroke="#3a385e" stroke-width="7.5" stroke-linecap="round"/><path d="M-142.7173,126.59739l302.54932,0.34111l-1.2567,179.17507l-306.57423,-3.01479" data-paper-data="{&quot;index&quot;:null}" fill="url(#color-3)" stroke="#3a385e" stroke-width="0" stroke-linecap="round"/><path d="M109.30798,58.97455l-49.71857,-50.65666" data-paper-data="{&quot;index&quot;:null}" fill="none" stroke="#2b1f5d" stroke-width="4" stroke-linecap="round"/><path d="M45.51811,30.83196l49.71858,50.65666" data-paper-data="{&quot;index&quot;:null}" fill="none" stroke="#2b1f5d" stroke-width="4" stroke-linecap="round"/><path d="M54.89898,83.36479l-49.71857,-50.65666" data-paper-data="{&quot;index&quot;:null}" fill="none" stroke="#2b1f5d" stroke-width="4" stroke-linecap="round"/><path d="M16.43744,83.36479l-49.71857,-50.65666" data-paper-data="{&quot;index&quot;:null}" fill="none" stroke="#2b1f5d" stroke-width="4" stroke-linecap="round"/><path d="M109.01947,30.24518l-49.71858,50.65666" data-paper-data="{&quot;index&quot;:null}" fill="none" stroke="#2b1f5d" stroke-width="4" stroke-linecap="round"/><path d="M72.08929,30.82221l-49.71857,50.65666" data-paper-data="{&quot;index&quot;:null}" fill="none" stroke="#2b1f5d" stroke-width="4" stroke-linecap="round"/><path d="M38.33279,31.11073l-49.71857,50.65666" data-paper-data="{&quot;index&quot;:null}" fill="none" stroke="#2b1f5d" stroke-width="4" stroke-linecap="round"/><path d="M-47.16189,82.05591l49.71857,-50.65666" data-paper-data="{&quot;index&quot;:null}" fill="none" stroke="#2b1f5d" stroke-width="4" stroke-linecap="round"/><path d="M-19.30837,83.36479l-49.71857,-50.65666" data-paper-data="{&quot;index&quot;:null}" fill="none" stroke="#2b1f5d" stroke-width="4" stroke-linecap="round"/><path d="M-75.84679,82.49721l49.71857,-50.65666" data-paper-data="{&quot;index&quot;:null}" fill="none" stroke="#2b1f5d" stroke-width="4" stroke-linecap="round"/><path d="M-48.87589,83.36479l-49.71857,-50.65666" data-paper-data="{&quot;index&quot;:null}" fill="none" stroke="#2b1f5d" stroke-width="4" stroke-linecap="round"/><path d="M-104.5317,82.49721l49.71857,-50.65666" data-paper-data="{&quot;index&quot;:null}" fill="none" stroke="#2b1f5d" stroke-width="4" stroke-linecap="round"/><path d="M-74.47165,84.2474l-49.71857,-50.65666" data-paper-data="{&quot;index&quot;:null}" fill="none" stroke="#2b1f5d" stroke-width="4" stroke-linecap="round"/><path d="M109.46078,58.04747l-21.91628,22.41306" data-paper-data="{&quot;index&quot;:null}" fill="none" stroke="#2b1f5d" stroke-width="4" stroke-linecap="round"/><g data-paper-data="{&quot;index&quot;:null}" fill="#200046" stroke="#000540" stroke-width="1.5"><path d="M70.26218,174.76769c0,-14.01615 11.03021,-25.37847 24.63666,-25.37847c13.60645,0 24.63666,11.36233 24.63666,25.37847c0,14.01614 -11.03021,25.37847 -24.63666,25.37847c-13.60645,0 -24.63666,-11.36233 -24.63666,-25.37847z" data-paper-data="{&quot;index&quot;:null}" stroke-linecap="butt"/><path d="M70.26219,225.37878v-50.75694h49.27331v50.75694z" data-paper-data="{&quot;index&quot;:null}" stroke-linecap="butt"/><path d="M70.29758,199.80341h48.84854" data-paper-data="{&quot;index&quot;:null}" stroke-linecap="round"/><path d="M94.93424,149.48403v75.26029" data-paper-data="{&quot;index&quot;:null}" stroke-linecap="round"/></g><g data-paper-data="{&quot;index&quot;:null}" fill="#200046" stroke="#000540" stroke-width="1.5"><path d="M-25.42263,174.76769c0,-14.01615 11.03021,-25.37847 24.63666,-25.37847c13.60645,0 24.63666,11.36233 24.63666,25.37847c0,14.01614 -11.03021,25.37847 -24.63666,25.37847c-13.60645,0 -24.63666,-11.36233 -24.63666,-25.37847z" data-paper-data="{&quot;index&quot;:null}" stroke-linecap="butt"/><path d="M-25.42262,225.37878v-50.75694h49.27332v50.75694z" data-paper-data="{&quot;index&quot;:null}" stroke-linecap="butt"/><path d="M-25.38722,199.80341h48.84854" data-paper-data="{&quot;index&quot;:null}" stroke-linecap="round"/><path d="M-0.75056,224.74432v-75.26029" data-paper-data="{&quot;index&quot;:null}" stroke-linecap="round"/></g><path d="M129.50215,309.46994l4.80486,-175.24548l29.23101,0.91278l-1.14011,174.72748z" data-paper-data="{&quot;index&quot;:null}" fill="url(#color-4)" stroke="#3a385e" stroke-width="0" stroke-linecap="butt"/><path d="M-143.55238,85.07274l258.35626,-0.8967l42.3675,4.3396l44.26507,50.08139l-87.70927,-5.91846l-262.66417,-0.8161" data-paper-data="{&quot;index&quot;:null}" fill="url(#color-5)" stroke="#211510" stroke-width="5" stroke-linecap="round"/><g data-paper-data="{&quot;index&quot;:null}" fill="none" stroke="#1e172d" stroke-width="2" stroke-linecap="round"><path d="M161.05139,154.34837l-25.0525,-1.35013"/><path d="M162.85156,175.20046l-28.35283,-1.35014"/><path d="M133.44862,196.05255l28.9529,1.35013"/><path d="M162.2515,218.25476l-29.25293,-1.20012"/><path d="M131.79846,238.50679l30.003,1.50015"/><path d="M161.80146,262.35917l-30.30303,-0.60006"/><path d="M161.80146,286.51159l-30.90309,-1.35013"/><path d="M139.44922,262.05914l-1.50015,23.70237"/><path d="M155.05078,261.45909l1.20012,-21.15212"/><path d="M137.94907,238.35677l1.05011,-21.0021"/><path d="M157.15099,197.25266l-0.75007,20.55205"/><path d="M139.74925,195.45249l1.35014,-21.15212"/><path d="M157.00098,174.6004l0.45004,-20.25203"/><path d="M141.99948,137.54669l-0.90009,15.30153"/></g><path d="M588.9129,347.44184h-715.40498v-373.22857h715.40498z" data-paper-data="{&quot;index&quot;:null}" fill="url(#color-6)" stroke="none" stroke-width="1.22826" stroke-linecap="butt"/><path d="M588.9129,440.88112h-715.40498v-466.66792h715.40498z" fill="url(#color-7)" stroke="none" stroke-width="1.22826" stroke-linecap="butt"/></g></g></svg>