<svg version="1.1" xmlns="http://www.w3.org/2000/svg" xmlns:xlink="http://www.w3.org/1999/xlink" width="494.77688" height="124.32285" viewBox="0,0,494.77688,124.32285"><defs><linearGradient x1="-7" y1="239.0695" x2="-7" y2="361.5729" gradientUnits="userSpaceOnUse" id="color-1"><stop offset="0" stop-color="#7f7f7f"/><stop offset="1" stop-color="#5e5e5e"/></linearGradient></defs><g transform="translate(8.77688,-239.0695)"><g data-paper-data="{&quot;isPaintingLayer&quot;:true}" fill-rule="nonzero" stroke="none" stroke-linecap="butt" stroke-linejoin="miter" stroke-miterlimit="10" stroke-dasharray="" stroke-dashoffset="0" style="mix-blend-mode: normal"><path d="M-7,256.0439h140l33,-16.9744h320l-6,122.5034h-480z" fill="url(#color-1)" stroke-width="2.37248"/><path d="M24.0214,259.77c4.0362,0.4604 7.5839,1.8415 10.0552,3.7014c2.4711,1.8616 3.8643,4.2 3.5935,6.5736c-0.2707,2.3736 -2.1547,4.3382 -4.9816,5.5955c-2.8267,1.2555 -6.5942,1.8022 -10.6305,1.3418c-4.0363,-0.4604 -7.584,-1.8415 -10.0553,-3.7014c-2.4711,-1.8616 -3.8643,-4.2001 -3.5935,-6.5737c0.2707,-2.3735 2.1548,-4.3382 4.9816,-5.5954c2.8267,-1.2556 6.5943,-1.8023 10.6306,-1.3418z" fill="#b2b2b2" stroke-width="1.73239"/><path d="M32.5725,284.8665c3.0861,0.3521 5.7402,1.9242 7.535,4.1812c1.7948,2.257 2.7288,5.1969 2.3768,8.2831c-0.3521,3.0861 -1.9242,5.7402 -4.1812,7.535c-2.2569,1.7948 -5.1969,2.7288 -8.283,2.3768c-3.0862,-0.3521 -5.7403,-1.9242 -7.5351,-4.1812c-1.7948,-2.2569 -2.7288,-5.1969 -2.3768,-8.283c0.3521,-3.0862 1.9242,-5.7403 4.1812,-7.5351c2.257,-1.7948 5.1969,-2.7288 8.2831,-2.3768z" fill="#b2b2b2" stroke-width="1.73239"/><path d="M68.3013,258.5276c2.4923,0.2843 4.6093,1.7951 6.0134,4.0075c1.4058,2.2126 2.0989,5.1251 1.7468,8.2113c-0.352,3.0861 -1.6831,5.7677 -3.5511,7.6069c-1.8663,1.8393 -4.2692,2.8346 -6.7615,2.5503c-2.4924,-0.2843 -4.6094,-1.7952 -6.0135,-4.0076c-1.4058,-2.2126 -2.0988,-5.125 -1.7468,-8.2112c0.352,-3.0862 1.6832,-5.7677 3.5511,-7.6069c1.8663,-1.8394 4.2692,-2.8346 6.7616,-2.5503z" fill="#b2b2b2" stroke-width="1.73239"/><path d="M80.4056,287.9209c3.9176,0.4469 7.2871,2.4424 9.5635,5.307c2.2784,2.8632 3.4638,6.5955 3.0169,10.513c-0.4468,3.9175 -2.4423,7.287 -5.307,9.5635c-2.8631,2.2784 -6.5954,3.4637 -10.5129,3.0169c-3.9176,-0.4469 -7.2871,-2.4424 -9.5635,-5.307c-2.2784,-2.8631 -3.4638,-6.5955 -3.0169,-10.513c0.4468,-3.9175 2.4423,-7.287 5.307,-9.5635c2.8631,-2.2784 6.5954,-3.4637 10.5129,-3.0169z" fill="#b2b2b2" stroke-width="1.73239"/><path d="M97.0062,267.5843c3.4425,0.3927 6.4421,1.8089 8.5048,3.7809c2.0645,1.9721 3.1921,4.4982 2.8943,7.1093c-0.2979,2.6111 -1.9655,4.8184 -4.421,6.275c-2.4538,1.4567 -5.6953,2.161 -9.1378,1.7684c-3.4425,-0.3927 -6.4421,-1.809 -8.5048,-3.7809c-2.0645,-1.9721 -3.1921,-4.4983 -2.8943,-7.1094c0.2979,-2.6111 1.9655,-4.8184 4.421,-6.2749c2.4538,-1.4568 5.6953,-2.1611 9.1378,-1.7684z" fill="#b2b2b2" stroke-width="1.73239"/><path d="M47.2696,269.1699c1.6627,0.1896 3.1193,0.7952 4.1289,1.62c1.0112,0.8268 1.5756,1.8711 1.4536,2.9399c-0.1219,1.0689 -0.9069,1.9593 -2.0783,2.5371c-1.1695,0.5762 -2.725,0.8382 -4.3877,0.6485c-1.6627,-0.1896 -3.1193,-0.7952 -4.129,-1.62c-1.0111,-0.8267 -1.5755,-1.871 -1.4536,-2.9399c0.1219,-1.0689 0.907,-1.9593 2.0784,-2.5371c1.1694,-0.5762 2.725,-0.8382 4.3877,-0.6485z" fill="#b2b2b2" stroke-width="1.73239"/><path d="M54.9641,289.6051c0.9501,0.1083 1.7228,0.9776 2.2037,2.2949c0.481,1.3172 0.6702,3.0824 0.4534,4.9827c-0.2167,1.9002 -0.7986,3.5775 -1.5639,4.7526c-0.7652,1.1751 -1.7138,1.848 -2.6639,1.7396c-0.9501,-0.1084 -1.7228,-0.9776 -2.2037,-2.2949c-0.4809,-1.3172 -0.6702,-3.0824 -0.4534,-4.9827c0.2168,-1.9002 0.7986,-3.5775 1.5639,-4.7526c0.7652,-1.1751 1.7138,-1.848 2.6639,-1.7396z" fill="#b2b2b2" stroke-width="1.73239"/><path d="M167.9437,286.7686c-2.389,0.009 -4.5608,-1.6807 -6.1406,-4.4189c-1.5781,-2.7382 -2.5624,-6.525 -2.5781,-10.707c-0.0156,-4.182 0.9404,-7.9761 2.4979,-10.726c1.5593,-2.75 3.7184,-4.4558 6.1073,-4.4647c2.389,-0.009 4.5608,1.6807 6.1406,4.4189c1.5781,2.7382 2.5624,6.525 2.5781,10.707c0.0156,4.182 -0.9404,7.976 -2.4979,10.726c-1.5593,2.75 -3.7184,4.4558 -6.1073,4.4647z" fill="#b2b2b2" stroke-width="1.73239"/><path d="M194.9758,280.9585c-3.1062,0.0116 -5.926,-1.239 -7.9727,-3.2704c-2.0466,-2.0314 -3.3183,-4.8418 -3.3299,-7.948c-0.0117,-3.1061 1.239,-5.926 3.2704,-7.9726c2.0314,-2.0466 4.8418,-3.3184 7.9479,-3.33c3.1062,-0.0116 5.926,1.2391 7.9727,3.2704c2.0466,2.0314 3.3183,4.8418 3.3299,7.948c0.0116,3.1062 -1.239,5.926 -3.2704,7.9726c-2.0314,2.0467 -4.8418,3.3184 -7.9479,3.33z" fill="#b2b2b2" stroke-width="1.73239"/><path d="M157.9246,316.069c-2.5085,0.0094 -4.7878,-1.2433 -6.4412,-3.2762c-1.6551,-2.0328 -2.6843,-4.8441 -2.6959,-7.9503c-0.0116,-3.1061 0.9965,-5.9251 2.6363,-7.9703c1.6382,-2.0451 3.9081,-3.3148 6.4166,-3.3242c2.5085,-0.0094 4.7878,1.2433 6.4412,3.2761c1.6551,2.0329 2.6843,4.8442 2.6959,7.9504c0.0116,3.1061 -0.9965,5.9251 -2.6364,7.9702c-1.6381,2.0452 -3.908,3.3149 -6.4165,3.3243z" fill="#b2b2b2" stroke-width="1.73239"/><path d="M128.4176,287.1074c-3.9429,0.0147 -7.5228,-1.5726 -10.119,-4.1511c-2.5978,-2.5768 -4.2119,-6.1447 -4.2267,-10.0876c-0.0147,-3.9429 1.5726,-7.5228 4.1512,-10.1189c2.5767,-2.5979 6.1446,-4.212 10.0875,-4.2267c3.9429,-0.0148 7.5228,1.5726 10.119,4.1511c2.5978,2.5768 4.2119,6.1447 4.2267,10.0876c0.0147,3.9429 -1.5727,7.5228 -4.1512,10.1189c-2.5767,2.5978 -6.1446,4.2119 -10.0875,4.2267z" fill="#b2b2b2" stroke-width="1.73239"/><path d="M125.005,310.4945c-3.4647,0.013 -6.6095,-1.0424 -8.8889,-2.7593c-2.281,-1.717 -3.6966,-4.0937 -3.7065,-6.7218c-0.0098,-2.628 1.388,-5.0153 3.6561,-6.7492c2.2665,-1.734 5.4033,-2.8129 8.8681,-2.8259c3.4647,-0.0129 6.6095,1.0425 8.8889,2.7594c2.281,1.717 3.6966,4.0937 3.7065,6.7218c0.0098,2.628 -1.388,5.0153 -3.6561,6.7492c-2.2665,1.734 -5.4033,2.8129 -8.8681,2.8258z" fill="#b2b2b2" stroke-width="1.73239"/><path d="M178.918,251.477c-1.6735,0.0062 -3.1909,-0.4247 -4.2902,-1.1256c-1.1009,-0.7027 -1.7837,-1.6738 -1.7877,-2.7496c-0.004,-1.0758 0.6714,-2.052 1.7671,-2.7629c1.094,-0.7092 2.6082,-1.1514 4.2817,-1.1576c1.6734,-0.0063 3.1909,0.4246 4.2901,1.1256c1.101,0.7027 1.7838,1.6737 1.7878,2.7495c0.004,1.0758 -0.6715,2.052 -1.7671,2.7629c-1.094,0.7092 -2.6082,1.1514 -4.2817,1.1577z" fill="#b2b2b2" stroke-width="1.73239"/><path d="M150.3147,267.5398c-0.9562,0.0036 -1.8253,-0.7693 -2.4572,-2.0212c-0.6318,-1.2519 -1.0263,-2.9828 -1.0335,-4.8954c-0.0071,-1.9125 0.3745,-3.6463 0.9969,-4.9029c0.6224,-1.2566 1.4857,-2.036 2.442,-2.0396c0.9563,-0.0035 1.8254,0.7693 2.4572,2.0212c0.6318,1.2519 1.0263,2.9829 1.0335,4.8954c0.0071,1.9126 -0.3744,3.6464 -0.9969,4.903c-0.6224,1.2566 -1.4857,2.0359 -2.442,2.0395z" fill="#b2b2b2" stroke-width="1.73239"/><path d="M272.2842,244.8426c2.3409,1.0412 3.9012,2.6681 4.1254,4.6337c0.2242,1.9656 -0.9295,3.9022 -2.9759,5.4438c-2.0466,1.5402 -4.9845,2.684 -8.327,3.0652c-3.3426,0.3813 -6.4626,-0.0714 -8.8034,-1.1111c-2.341,-1.0412 -3.9012,-2.6682 -4.1254,-4.6338c-0.2243,-1.9656 0.9295,-3.9022 2.9758,-5.4438c2.0466,-1.5402 4.9845,-2.6839 8.3271,-3.0652c3.3425,-0.3813 6.4625,0.0714 8.8034,1.1112z" fill="#b2b2b2" stroke-width="1.43464"/><path d="M258.1916,269.6843c1.8691,1.4863 3.171,3.6842 3.4625,6.24c0.2915,2.5557 -0.4819,4.9903 -1.9683,6.8594c-1.4863,1.8691 -3.6842,3.171 -6.2399,3.4625c-2.5557,0.2915 -4.9904,-0.4819 -6.8594,-1.9683c-1.8691,-1.4863 -3.171,-3.6842 -3.4625,-6.2399c-0.2916,-2.5558 0.4819,-4.9904 1.9682,-6.8594c1.4863,-1.8691 3.6842,-3.171 6.24,-3.4625c2.5557,-0.2916 4.9904,0.4819 6.8594,1.9682z" fill="#b2b2b2" stroke-width="1.43464"/><path d="M240.8038,247.127c1.5469,1.5231 2.6493,3.7438 2.9408,6.2995c0.2915,2.5557 -0.2824,4.9676 -1.4466,6.7999c-1.1627,1.8322 -2.9159,3.0833 -4.9799,3.3188c-2.0639,0.2354 -4.0539,-0.5888 -5.5994,-2.112c-1.5469,-1.5231 -2.6492,-3.7437 -2.9408,-6.2995c-0.2915,-2.5557 0.2824,-4.9676 1.4466,-6.7999c1.1628,-1.8322 2.916,-3.0833 4.9799,-3.3188c2.064,-0.2354 4.0539,0.5888 5.5994,2.112z" fill="#b2b2b2" stroke-width="1.43464"/><path d="M227.6756,276.0782c2.3723,1.8852 4.0248,4.6756 4.3949,7.9198c0.37,3.2442 -0.6116,6.335 -2.4984,8.706c-1.8852,2.3723 -4.6756,4.0248 -7.9198,4.3949c-3.2442,0.37 -6.335,-0.6116 -8.706,-2.4984c-2.3723,-1.8852 -4.0248,-4.6755 -4.3949,-7.9197c-0.37,-3.2442 0.6116,-6.3351 2.4984,-8.7061c1.8852,-2.3723 4.6755,-4.0248 7.9197,-4.3948c3.2442,-0.3701 6.3351,0.6115 8.7061,2.4983z" fill="#b2b2b2" stroke-width="1.43464"/><path d="M224.5877,263.3614c0.97,0.4784 1.6201,1.2158 1.7211,2.101c0.101,0.8851 -0.3664,1.7499 -1.2038,2.4346c-0.8361,0.683 -2.0423,1.1845 -3.4192,1.3416c-1.377,0.157 -2.6652,-0.0599 -3.6336,-0.5371c-0.9701,-0.4785 -1.6202,-1.2158 -1.7212,-2.101c-0.1009,-0.8852 0.3664,-1.75 1.2038,-2.4346c0.8361,-0.6831 2.0424,-1.1845 3.4193,-1.3416c1.3769,-0.1571 2.6651,0.0599 3.6336,0.5371z" fill="#b2b2b2" stroke-width="1.43464"/><path d="M239.3873,285.9386c0.6338,0.9731 1.1156,2.3621 1.2951,3.9357c0.1795,1.5737 0.0228,3.0355 -0.3754,4.1263c-0.3983,1.0909 -1.0382,1.8108 -1.825,1.9005c-0.7868,0.0898 -1.5723,-0.4675 -2.206,-1.4406c-0.6338,-0.9732 -1.1156,-2.3621 -1.2951,-3.9358c-0.1795,-1.5736 -0.0228,-3.0354 0.3754,-4.1263c0.3983,-1.0908 1.0382,-1.8107 1.825,-1.9004c0.7868,-0.0898 1.5723,0.4675 2.206,1.4406z" fill="#b2b2b2" stroke-width="1.43464"/><path d="M285.5847,261.8142c4.0539,-0.2631 7.7903,0.4666 10.5524,1.8585c2.7622,1.3936 4.5482,3.4477 4.7029,5.8317c0.1547,2.384 -1.3508,4.6517 -3.9097,6.3906c-2.559,1.7372 -6.1698,2.9437 -10.2238,3.2068c-4.0539,0.2631 -7.7903,-0.4667 -10.5524,-1.8585c-2.7622,-1.3936 -4.5482,-3.4478 -4.7029,-5.8317c-0.1548,-2.384 1.3508,-4.6517 3.9097,-6.3906c2.559,-1.7372 6.1698,-2.9437 10.2238,-3.2068z" fill="#b2b2b2" stroke-width="1.73239"/><path d="M314.6012,274.1913c3.0997,-0.2012 5.9906,0.8751 8.1574,2.7778c2.1668,1.9027 3.6076,4.6302 3.8087,7.7299c0.2012,3.0997 -0.875,5.9906 -2.7777,8.1574c-1.9027,2.1668 -4.6303,3.6076 -7.73,3.8088c-3.0996,0.2011 -5.9905,-0.8751 -8.1573,-2.7778c-2.1668,-1.9027 -3.6077,-4.6303 -3.8088,-7.73c-0.2012,-3.0996 0.8751,-5.9905 2.7778,-8.1573c1.9027,-2.1668 4.6302,-3.6077 7.7299,-3.8088z" fill="#b2b2b2" stroke-width="1.73239"/><path d="M331.647,246.4503c2.5032,-0.1624 4.8548,0.9488 6.6291,2.877c1.7761,1.9281 2.9749,4.6713 3.1761,7.771c0.2011,3.0996 -0.6331,5.9748 -2.1451,8.1163c-1.5102,2.1413 -3.6984,3.5471 -6.2017,3.7096c-2.5032,0.1624 -4.8547,-0.9488 -6.6291,-2.877c-1.7761,-1.928 -2.9749,-4.6713 -3.1761,-7.771c-0.2011,-3.0996 0.6331,-5.9748 2.1451,-8.1163c1.5103,-2.1413 3.6985,-3.5471 6.2017,-3.7096z" fill="#b2b2b2" stroke-width="1.73239"/><path d="M357.0607,276.9178c3.9346,-0.2553 7.6047,1.1106 10.3534,3.5259c2.7502,2.4134 4.579,5.8762 4.8344,9.8109c0.2553,3.9346 -1.1106,7.6047 -3.5259,10.3533c-2.4134,2.7503 -5.8762,4.5791 -9.8108,4.8344c-3.9347,0.2554 -7.6048,-1.1105 -10.3534,-3.5258c-2.7503,-2.4134 -4.5791,-5.8762 -4.8344,-9.8109c-0.2554,-3.9346 1.1106,-7.6047 3.5258,-10.3534c2.4135,-2.7502 5.8762,-4.579 9.8109,-4.8344z" fill="#b2b2b2" stroke-width="1.73239"/><path d="M355.5462,253.5796c3.4575,-0.2244 6.6608,0.6372 9.0407,2.2118c2.3816,1.5746 3.9396,3.8605 4.1098,6.483c0.1702,2.6225 -1.0793,5.0907 -3.2374,6.9598c-2.1564,1.8691 -5.2216,3.1374 -8.6791,3.3617c-3.4575,0.2244 -6.6608,-0.6371 -9.0407,-2.2118c-2.3816,-1.5745 -3.9396,-3.8604 -4.1098,-6.483c-0.1702,-2.6225 1.0793,-5.0906 3.2374,-6.9598c2.1564,-1.869 5.2215,-3.1373 8.6791,-3.3617z" fill="#b2b2b2" stroke-width="1.73239"/><path d="M340.6209,271.0405c1.67,-0.1083 3.2109,0.2291 4.3509,0.8617c1.1418,0.6342 1.8825,1.5618 1.9522,2.6354c0.0697,1.0735 -0.545,2.0891 -1.5952,2.8655c-1.0487,0.7747 -2.5331,1.3085 -4.203,1.4168c-1.67,0.1084 -3.2109,-0.2291 -4.3509,-0.8617c-1.1418,-0.6342 -1.8825,-1.5617 -1.9522,-2.6353c-0.0697,-1.0736 0.5449,-2.0891 1.5952,-2.8656c1.0487,-0.7746 2.533,-1.3084 4.203,-1.4168z" fill="#b2b2b2" stroke-width="1.73239"/><path d="M310.2575,245.8449c0.9542,-0.062 1.8689,0.6564 2.5759,1.8674c0.707,1.211 1.2065,2.9147 1.3303,4.8232c0.1239,1.9086 -0.1512,3.6625 -0.6958,4.9547c-0.5446,1.2922 -1.3587,2.1228 -2.313,2.1847c-0.9542,0.0619 -1.8689,-0.6564 -2.5759,-1.8675c-0.707,-1.211 -1.2065,-2.9146 -1.3303,-4.8231c-0.1239,-1.9086 0.1512,-3.6625 0.6958,-4.9547c0.5446,-1.2922 1.3587,-2.1228 2.313,-2.1847z" fill="#b2b2b2" stroke-width="1.73239"/><path d="M451.3355,299.0597c-4.0624,0.0152 -7.7474,-0.9412 -10.4194,-2.499c-2.672,-1.5596 -4.3293,-3.7189 -4.3382,-6.1079c-0.009,-2.3889 1.6321,-4.5606 4.2924,-6.1401c2.6603,-1.5778 6.338,-2.5617 10.4004,-2.5769c4.0624,-0.0152 7.7474,0.9412 10.4194,2.499c2.672,1.5596 4.3293,3.7189 4.3383,6.1079c0.0089,2.3889 -1.6322,4.5606 -4.2925,6.1401c-2.6603,1.5778 -6.338,2.5617 -10.4004,2.5769z" fill="#b2b2b2" stroke-width="1.73239"/><path d="M437.5937,276.2686c-2.389,0.009 -4.5608,-1.6807 -6.1406,-4.4189c-1.5781,-2.7382 -2.5624,-6.525 -2.5781,-10.707c-0.0156,-4.182 0.9404,-7.9761 2.4979,-10.726c1.5593,-2.75 3.7184,-4.4558 6.1073,-4.4647c2.389,-0.009 4.5608,1.6807 6.1406,4.4189c1.5781,2.7382 2.5624,6.525 2.5781,10.707c0.0156,4.182 -0.9404,7.976 -2.4979,10.726c-1.5593,2.75 -3.7184,4.4558 -6.1073,4.4647z" fill="#b2b2b2" stroke-width="1.73239"/><path d="M461.7258,266.5085c-3.1062,0.0116 -5.926,-1.239 -7.9727,-3.2704c-2.0466,-2.0314 -3.3183,-4.8418 -3.3299,-7.948c-0.0117,-3.1061 1.239,-5.926 3.2704,-7.9726c2.0314,-2.0466 4.8418,-3.3184 7.9479,-3.33c3.1062,-0.0116 5.926,1.2391 7.9727,3.2704c2.0466,2.0314 3.3183,4.8418 3.3299,7.948c0.0116,3.1062 -1.239,5.926 -3.2704,7.9726c-2.0314,2.0467 -4.8418,3.3184 -7.9479,3.33z" fill="#b2b2b2" stroke-width="1.73239"/><path d="M421.1246,309.069c-2.5085,0.0094 -4.7878,-1.2433 -6.4412,-3.2762c-1.6551,-2.0328 -2.6843,-4.8441 -2.6959,-7.9503c-0.0116,-3.1061 0.9965,-5.9251 2.6363,-7.9703c1.6382,-2.0451 3.9081,-3.3148 6.4166,-3.3242c2.5085,-0.0094 4.7878,1.2433 6.4412,3.2761c1.6551,2.0329 2.6843,4.8442 2.6959,7.9504c0.0116,3.1061 -0.9965,5.9251 -2.6364,7.9702c-1.6381,2.0452 -3.908,3.3149 -6.4165,3.3243z" fill="#b2b2b2" stroke-width="1.73239"/><path d="M397.6176,277.1074c-3.9429,0.0147 -7.5228,-1.5726 -10.119,-4.1511c-2.5978,-2.5768 -4.2119,-6.1447 -4.2267,-10.0876c-0.0147,-3.9429 1.5726,-7.5228 4.1512,-10.1189c2.5767,-2.5979 6.1446,-4.212 10.0875,-4.2267c3.9429,-0.0148 7.5228,1.5726 10.119,4.1511c2.5978,2.5768 4.2119,6.1447 4.2267,10.0876c0.0147,3.9429 -1.5727,7.5228 -4.1512,10.1189c-2.5767,2.5978 -6.1446,4.2119 -10.0875,4.2267z" fill="#b2b2b2" stroke-width="1.73239"/><path d="M397.705,300.4945c-3.4647,0.013 -6.6095,-1.0424 -8.8889,-2.7593c-2.281,-1.717 -3.6966,-4.0937 -3.7065,-6.7218c-0.0098,-2.628 1.388,-5.0153 3.6561,-6.7492c2.2665,-1.734 5.4033,-2.8129 8.8681,-2.8259c3.4647,-0.0129 6.6095,1.0425 8.8889,2.7594c2.281,1.717 3.6966,4.0937 3.7065,6.7218c0.0098,2.628 -1.388,5.0153 -3.6561,6.7492c-2.2665,1.734 -5.4033,2.8129 -8.8681,2.8258z" fill="#b2b2b2" stroke-width="1.73239"/><path d="M413.668,283.977c-1.6735,0.0062 -3.1909,-0.4247 -4.2902,-1.1256c-1.1009,-0.7027 -1.7837,-1.6738 -1.7877,-2.7496c-0.004,-1.0758 0.6714,-2.052 1.7671,-2.7629c1.094,-0.7092 2.6082,-1.1514 4.2817,-1.1576c1.6734,-0.0063 3.1909,0.4246 4.2901,1.1256c1.101,0.7027 1.7838,1.6737 1.7878,2.7495c0.004,1.0758 -0.6715,2.052 -1.7671,2.7629c-1.094,0.7092 -2.6082,1.1514 -4.2817,1.1577z" fill="#b2b2b2" stroke-width="1.73239"/><path d="M417.9147,261.4398c-0.9562,0.0036 -1.8253,-0.7693 -2.4572,-2.0212c-0.6318,-1.2519 -1.0263,-2.9828 -1.0335,-4.8954c-0.0071,-1.9125 0.3745,-3.6463 0.9969,-4.9029c0.6224,-1.2566 1.4857,-2.036 2.442,-2.0396c0.9563,-0.0035 1.8254,0.7693 2.4572,2.0212c0.6318,1.2519 1.0263,2.9829 1.0335,4.8954c0.0071,1.9126 -0.3744,3.6464 -0.9969,4.903c-0.6224,1.2566 -1.4857,2.0359 -2.442,2.0395z" fill="#b2b2b2" stroke-width="1.73239"/><path d="M210,244.5c1.793,0 3.418,0.756 4.595,1.978c1.177,1.222 1.905,2.91 1.905,4.772c0,1.862 -0.728,3.55 -1.905,4.772c-1.177,1.222 -2.802,1.978 -4.595,1.978c-1.793,0 -3.418,-0.756 -4.595,-1.978c-1.177,-1.222 -1.905,-2.91 -1.905,-4.772c0,-1.862 0.728,-3.55 1.905,-4.772c1.177,-1.222 2.802,-1.978 4.595,-1.978z" fill="#b1b1b1" stroke-width="1"/><path d="M289.75,247c1.724,0 3.287,0.56 4.418,1.465c1.132,0.906 1.832,2.156 1.832,3.535c0,1.379 -0.7,2.629 -1.832,3.535c-1.131,0.905 -2.694,1.465 -4.418,1.465c-1.724,0 -3.287,-0.56 -4.418,-1.465c-1.132,-0.906 -1.832,-2.156 -1.832,-3.535c0,-1.379 0.7,-2.629 1.832,-3.535c1.131,-0.905 2.694,-1.465 4.418,-1.465z" fill="#b1b1b1" stroke-width="1"/><path d="M373.25,243c1.448,0 2.761,0.644 3.711,1.685c0.951,1.041 1.539,2.479 1.539,4.065c0,1.586 -0.588,3.024 -1.539,4.065c-0.95,1.041 -2.263,1.685 -3.711,1.685c-1.448,0 -2.761,-0.644 -3.711,-1.685c-0.951,-1.041 -1.539,-2.479 -1.539,-4.065c0,-1.586 0.588,-3.024 1.539,-4.065c0.95,-1.041 2.263,-1.685 3.711,-1.685z" fill="#b1b1b1" stroke-width="1"/><path d="M2.5258,296.8085c-3.1062,0.0116 -5.926,-1.239 -7.9727,-3.2704c-2.0466,-2.0314 -3.3183,-4.8418 -3.3299,-7.948c-0.0117,-3.1061 1.239,-5.926 3.2704,-7.9726c2.0314,-2.0466 4.8418,-3.3184 7.9479,-3.33c3.1062,-0.0116 5.926,1.2391 7.9727,3.2704c2.0466,2.0314 3.3183,4.8418 3.3299,7.948c0.0116,3.1062 -1.239,5.926 -3.2704,7.9726c-2.0314,2.0467 -4.8418,3.3184 -7.9479,3.33z" fill="#b2b2b2" stroke-width="1.73239"/><path d="M282.8256,298.2782c2.3723,1.8852 4.0248,4.6756 4.3949,7.9198c0.37,3.2442 -0.6116,6.335 -2.4984,8.706c-1.8852,2.3723 -4.6756,4.0248 -7.9198,4.3949c-3.2442,0.37 -6.335,-0.6116 -8.706,-2.4984c-2.3723,-1.8852 -4.0248,-4.6755 -4.3949,-7.9197c-0.37,-3.2442 0.6116,-6.3351 2.4984,-8.7061c1.8852,-2.3723 4.6755,-4.0248 7.9197,-4.3948c3.2442,-0.3701 6.3351,0.6115 8.7061,2.4983z" fill="#9f9f9f" stroke-width="1.43464"/><path d="M103.1355,334.1097c-4.0624,0.0152 -7.7474,-0.9412 -10.4194,-2.499c-2.672,-1.5596 -4.3293,-3.7189 -4.3382,-6.1079c-0.009,-2.3889 1.6321,-4.5606 4.2924,-6.1401c2.6603,-1.5778 6.338,-2.5617 10.4004,-2.5769c4.0624,-0.0152 7.7474,0.9412 10.4194,2.499c2.672,1.5596 4.3293,3.7189 4.3383,6.1079c0.0089,2.3889 -1.6322,4.5606 -4.2925,6.1401c-2.6603,1.5778 -6.338,2.5617 -10.4004,2.5769z" fill="#9f9f9f" stroke-width="1.73239"/><path d="M378.518,315.527c-1.6735,0.0062 -3.1909,-0.4247 -4.2902,-1.1256c-1.1009,-0.7027 -1.7837,-1.6738 -1.7877,-2.7496c-0.004,-1.0758 0.6714,-2.052 1.7671,-2.7629c1.094,-0.7092 2.6082,-1.1514 4.2817,-1.1576c1.6734,-0.0063 3.1909,0.4246 4.2901,1.1256c1.101,0.7027 1.7838,1.6737 1.7878,2.7495c0.004,1.0758 -0.6715,2.052 -1.7671,2.7629c-1.094,0.7092 -2.6082,1.1514 -4.2817,1.1577z" fill="#9f9f9f" stroke-width="1.73239"/><path d="M333.455,337.5445c-3.4647,0.013 -6.6095,-1.0424 -8.8889,-2.7593c-2.281,-1.717 -3.6966,-4.0937 -3.7065,-6.7218c-0.0098,-2.628 1.388,-5.0153 3.6561,-6.7492c2.2665,-1.734 5.4033,-2.8129 8.8681,-2.8259c3.4647,-0.0129 6.6095,1.0425 8.8889,2.7594c2.281,1.717 3.6966,4.0937 3.7065,6.7218c0.0098,2.628 -1.388,5.0153 -3.6561,6.7492c-2.2665,1.734 -5.4033,2.8129 -8.8681,2.8258z" fill="#878787" stroke-width="1.73239"/><path d="M201.7985,334.0423c-2.2823,0.0085 -4.3553,-1.0509 -5.859,-2.7708c-1.5048,-1.7198 -2.4403,-4.0984 -2.4501,-6.7264c-0.0099,-2.628 0.9078,-5.0135 2.3998,-6.7446c1.4907,-1.731 3.5557,-2.8059 5.838,-2.8144c2.2824,-0.0086 4.3553,1.0508 5.859,2.7707c1.5048,1.7198 2.4403,4.0984 2.4502,6.7264c0.0098,2.628 -0.9079,5.0135 -2.3998,6.7446c-1.4908,1.731 -3.5558,2.8059 -5.8381,2.8145z" fill="#878787" stroke-width="1.46688"/><path d="M34.693,339.2972c-2.2824,0.0085 -4.3534,-0.5509 -5.8541,-1.4622c-1.5018,-0.9113 -2.4331,-2.1737 -2.4384,-3.5703c-0.0052,-1.3965 0.9167,-2.6658 2.4116,-3.5884c1.4938,-0.9225 3.5606,-1.4973 5.843,-1.5059c2.2823,-0.0085 4.3534,0.5509 5.854,1.4622c1.5018,0.9113 2.4332,2.1737 2.4384,3.5703c0.0053,1.3965 -0.9166,2.6658 -2.4116,3.5884c-1.4938,0.9225 -3.5606,1.4973 -5.8429,1.5059z" fill="#878787" stroke-width="1.03678"/><path d="M435.4985,351.5423c-2.2823,0.0085 -4.3553,-1.0509 -5.859,-2.7708c-1.5048,-1.7198 -2.4403,-4.0984 -2.4501,-6.7264c-0.0099,-2.628 0.9078,-5.0135 2.3998,-6.7446c1.4907,-1.731 3.5557,-2.8059 5.838,-2.8144c2.2824,-0.0086 4.3553,1.0508 5.859,2.7707c1.5048,1.7198 2.4403,4.0984 2.4502,6.7264c0.0098,2.628 -0.9079,5.0135 -2.3998,6.7446c-1.4908,1.731 -3.5558,2.8059 -5.8381,2.8145z" fill="#7c7c7c" stroke-width="1.46688"/><path d="M127.1985,363.3923c-2.2823,0.0085 -4.3553,-1.0509 -5.859,-2.7708c-1.5048,-1.7198 -2.4403,-4.0984 -2.4501,-6.7264c-0.0099,-2.628 0.9078,-5.0135 2.3998,-6.7446c1.4907,-1.731 3.5557,-2.8059 5.838,-2.8144c2.2824,-0.0086 4.3553,1.0508 5.859,2.7707c1.5048,1.7198 2.4403,4.0984 2.4502,6.7264c0.0098,2.628 -0.9079,5.0135 -2.3998,6.7446c-1.4908,1.731 -3.5558,2.8059 -5.8381,2.8145z" fill="#7c7c7c" stroke-width="1.46688"/></g></g></svg>