<svg version="1.1" xmlns="http://www.w3.org/2000/svg" xmlns:xlink="http://www.w3.org/1999/xlink" width="77.16858" height="60.83746" viewBox="0,0,77.16858,60.83746"><defs><radialGradient cx="238.20996" cy="195.13553" r="24.4863" gradientUnits="userSpaceOnUse" id="color-1"><stop offset="0" stop-color="#732310"/><stop offset="1" stop-color="#c93d1d"/></radialGradient></defs><g transform="translate(-201.06957,-148.86943)"><g data-paper-data="{&quot;isPaintingLayer&quot;:true}" fill-rule="nonzero" stroke="none" stroke-linejoin="miter" stroke-miterlimit="10" stroke-dasharray="" stroke-dashoffset="0" style="mix-blend-mode: normal"><path d="M216.66606,176.18143c1.8686,0.2995 3.2991,2.6815 3.5195,4.3722c0.1823,1.4103 -0.769,2.547 -2.3936,3.5946c-1.6248,1.0466 -3.9489,1.8592 -6.5834,2.1885c-2.6345,0.3293 -5.0872,0.1139 -6.9196,-0.5006c-1.8324,-0.6155 -3.0415,-1.589 -3.2048,-2.8948c-0.1632,-1.3059 1.0685,-3.038 2.3937,-3.5947c2.0271,-0.851 4.4476,0.607 6.6019,0.1775c2.3953,-0.4939 4.188,-3.4783 6.5863,-3.3427z" fill="#000000" stroke-width="1" stroke-linecap="round"/><path d="M238.02886,148.86943c7.773,0 14.817,3.157 19.917,8.258c5.101,5.1 8.258,12.144 8.258,19.917c0,7.773 -3.157,14.817 -8.258,19.917c-5.1,5.101 -12.144,8.258 -19.917,8.258c-7.773,0 -14.817,-3.157 -19.917,-8.258c-5.101,-5.1 -8.258,-12.144 -8.258,-19.917c0,-7.773 3.157,-14.817 8.258,-19.917c5.1,-5.101 12.144,-8.258 19.917,-8.258z" fill="#000000" stroke-width="1" stroke-linecap="butt"/><path d="M269.22796,178.17413c2.1543,0.4295 4.5748,-1.0285 6.6019,-0.1775c1.3252,0.5567 2.5569,2.2888 2.3937,3.5947c-0.1633,1.3058 -1.3724,2.2793 -3.2048,2.8948c-1.8324,0.6145 -4.2851,0.8299 -6.9196,0.5006c-2.6345,-0.3293 -4.9586,-1.1419 -6.5834,-2.1885c-1.6246,-1.0476 -2.5759,-2.1843 -2.3936,-3.5946c0.2204,-1.6907 1.6509,-4.0727 3.5195,-4.3722c2.3983,-0.1356 4.191,2.8488 6.5863,3.3427z" fill="#000000" stroke-width="1" stroke-linecap="round"/><path d="M225.21046,160.23523c1.1652,0 2.2215,0.9473 2.9864,2.4772c0.765,1.5299 1.2386,3.6424 1.2386,5.9728c0,2.3304 -0.4736,4.4429 -1.2386,5.9728c-0.7649,1.5299 -1.8212,2.4772 -2.9864,2.4772c-1.1652,0 -2.2215,-0.9473 -2.9864,-2.4772c-0.765,-1.5299 -1.2386,-3.6424 -1.2386,-5.9728c0,-2.3304 0.4736,-4.4429 1.2386,-5.9728c0.7649,-1.5299 1.8212,-2.4772 2.9864,-2.4772z" fill="#ffd523" stroke-width="2.22368" stroke-linecap="butt"/><path d="M232.00386,182.71943c4.83,0.084 9.557,-1.586 14.35,-1.35c1.198,0.059 0.161,1.265 0,1.85c-0.952,2.514 -1.95,5.011 -3.25,7.25c-1.218,2.092 -2.514,4.216 -4.4,5.75c-1.758,1.465 -3.957,2.81 -6.3,3c-2.232,0.179 -4.335,-0.753 -6.05,-2c-2.192,-1.59 -3.91,-3.723 -5.15,-6c-1.428,-2.736 -2.141,-5.83 -2.7,-8.75c-0.14,-0.73 -0.498,-1.898 0.6,-1.9c4.394,-0.009 8.584,1.966 12.9,2.15z" fill="url(#color-1)" stroke-width="1" stroke-linecap="round"/><path d="M221.02646,180.08963l5.9271,0.9568l-4.1419,5.7166z" fill="#ffd523" stroke-width="1.03387" stroke-linecap="round"/><path d="M236.82386,181.99273l6.0002,-0.2139l-2.9361,6.5554z" fill="#ffd523" stroke-width="1.04644" stroke-linecap="round"/><path d="M231.20386,181.72443l6,0.1567l-3.4,4.5433z" fill="#ffd523" stroke-width="0.89822" stroke-linecap="round"/><path d="M226.34456,180.97763l5.9191,0.9946l-4.0022,4.0229z" fill="#ffd523" stroke-width="0.89822" stroke-linecap="round"/><path d="M237.30156,197.08803c0.8002,0.6324 -1.9127,1.4755 -2.8627,2.0226c-0.6664,0.3829 -1.6775,-0.0169 -2.1052,0.7428c-0.7254,0.8869 -0.2727,2.2701 -0.7852,3.3975c-0.8516,1.8682 -1.9097,3.9852 -3.2966,5.1232c-1.3869,1.1379 -2.9513,1.6162 -4.3632,1.1636c-1.4119,-0.4527 -2.4067,-1.7513 -2.8735,-3.4835c-0.4667,-1.7322 -0.6562,-4.2754 0.2965,-6.085c1.4334,-2.7108 3.454,-5.7847 5.8623,-6.2329c3.713,-0.6548 7.482,1.2676 10.1276,3.3517z" fill="#ff71d2" stroke-width="0.91755" stroke-linecap="round"/><path d="M238.16046,160.43523c1.1652,0 2.2215,0.9473 2.9864,2.4772c0.765,1.5299 1.2386,3.6424 1.2386,5.9728c0,2.3304 -0.4736,4.4429 -1.2386,5.9728c-0.7649,1.5299 -1.8212,2.4772 -2.9864,2.4772c-1.1652,0 -2.2215,-0.9473 -2.9864,-2.4772c-0.765,-1.5299 -1.2386,-3.6424 -1.2386,-5.9728c0,-2.3304 0.4736,-4.4429 1.2386,-5.9728c0.7649,-1.5299 1.8212,-2.4772 2.9864,-2.4772z" fill="#ffd523" stroke-width="2.22368" stroke-linecap="butt"/></g></g></svg>