<svg version="1.1" xmlns="http://www.w3.org/2000/svg" xmlns:xlink="http://www.w3.org/1999/xlink" width="106.33751" height="160.40569" viewBox="0,0,106.33751,160.40569"><defs><linearGradient x1="237.9888" y1="120.72632" x2="237.9888" y2="181.07711" gradientUnits="userSpaceOnUse" id="color-1"><stop offset="0" stop-color="#4c405a"/><stop offset="1" stop-color="#342842"/></linearGradient><radialGradient cx="263.52297" cy="85.25771" r="18.10712" gradientUnits="userSpaceOnUse" id="color-2"><stop offset="0" stop-color="#fbc5fc"/><stop offset="1" stop-color="#f991fd"/></radialGradient></defs><g transform="translate(-180.66374,-26.37916)"><g data-paper-data="{&quot;isPaintingLayer&quot;:true}" fill-rule="nonzero" stroke-linejoin="miter" stroke-miterlimit="10" stroke-dasharray="" stroke-dashoffset="0" style="mix-blend-mode: normal"><g data-paper-data="{&quot;index&quot;:null}" fill="#7100f3" stroke="none" stroke-width="0" stroke-linecap="butt"><path d="M243.0181,133.45867c-2.33655,-4.99282 -1.36957,-8.33931 2.2823,-12.49419c3.65186,-4.15488 13.64339,-0.80727 16.44876,1.9949c8.7188,8.70886 16.4443,20.7126 23.76569,29.46496c0.70539,0.84328 -5.95343,5.56479 -8.18735,7.97792c-0.99866,1.07878 -12.76313,-9.78544 -16.48728,-13.00691c-7.60066,-6.5748 -16.56745,-11.25567 -17.82211,-13.93669z"/><g><path d="M268.78601,174.99835c1.90778,-4.09943 2.48399,-8.38156 3.36955,-13.4881c0.83601,-4.82067 1.84827,-10.56806 7.78186,-11.28451c8.27462,-0.99913 7.12043,7.38316 6.86144,16.22587c-0.259,8.84273 -0.1874,19.49469 -4.23588,19.37612c-4.04847,-0.11857 -17.50949,-2.80883 -13.77698,-10.82937z"/></g></g><g><path d="M256.83772,124.17593c8.50257,8.27391 9.02101,26.28664 9.02101,39.28615c0,11.98295 -12.2451,17.61503 -27.43246,17.61503c-7.50431,0 -12.32869,0.569 -17.59301,-4.1945c-5.26432,-4.7635 -4.44097,-13.80676 -5.87254,-17.03865c-1.93728,-4.37355 -4.60811,-9.52169 -4.49417,-16.78503c0.65055,-9.14485 3.23908,-21.07034 18.42644,-21.07034c0,0 21.61005,-3.97694 27.94473,2.18738z" data-paper-data="{&quot;origPos&quot;:null,&quot;index&quot;:null}" fill="url(#color-1)" stroke="none" stroke-width="0" stroke-linecap="butt"/><path d="M231.82643,117.97385c8.21303,0 17.92337,-2.15207 24.25805,4.01223c4.28819,4.17286 8.52142,19.74187 8.52142,19.74187c0,0 -18.41242,-2.00779 -23.28143,0.82556c-2.18311,1.27036 -8.77831,5.20586 -11.69852,6.30082c-1.53044,0.57381 -18.29035,1.20143 -16.83202,-12.81689c0.65055,-9.14485 3.84514,-18.06356 19.0325,-18.06356z" data-paper-data="{&quot;origPos&quot;:null,&quot;index&quot;:null}" fill="#7100f3" stroke="none" stroke-width="0" stroke-linecap="butt"/><path d="M226.68962,122.02506c0,0 5.21153,6.8291 6.86578,10.82548c1.92458,4.6494 5.60214,14.7661 5.60214,14.7661" data-paper-data="{&quot;origPos&quot;:null}" fill="none" stroke="#433751" stroke-width="10.5" stroke-linecap="round"/><path d="M242.92649,147.2913c0,2.32393 -2.01092,4.43972 -4.07286,4.43972c-2.06193,0 -4.07284,-2.11581 -4.07284,-4.43972c0,-2.32393 2.01091,-4.43972 4.07284,-4.43972c2.06193,0 4.07286,2.1158 4.07286,4.43972z" fill="#ffea12" stroke="none" stroke-width="0" stroke-linecap="butt"/><path d="M249.57275,120.6457c0,0 3.80546,4.34927 5.46708,7.90654c1.66161,3.55728 6.14304,17.31602 6.14304,17.31602" data-paper-data="{&quot;origPos&quot;:null,&quot;origRot&quot;:0}" fill="none" stroke="#433751" stroke-width="9.5" stroke-linecap="round"/><path d="M264.0425,143.96319c0,2.32393 -1.67154,4.08776 -3.73347,4.08776c-2.06194,0 -3.73347,-1.76384 -3.73347,-4.08776c0,-2.32393 1.67153,-4.08777 3.73347,-4.08777c2.06194,0 3.73347,1.76384 3.73347,4.08777z" data-paper-data="{&quot;origPos&quot;:null}" fill="#ffea12" stroke="none" stroke-width="0" stroke-linecap="butt"/></g><g fill="#7100f3" stroke="none" stroke-width="0" stroke-linecap="butt"><path d="M224.87913,134.7676c-1.27837,2.6698 -10.28627,7.27107 -17.94487,13.77829c-3.75254,3.18839 -15.61275,13.94797 -16.60183,12.86039c-2.21247,-2.43284 -8.82919,-7.21314 -8.11635,-8.05013c7.39862,-8.68717 15.23014,-20.62203 24.02574,-29.25331c2.83008,-2.77722 12.85087,-6.0362 16.46579,-1.84913c3.61491,4.18705 4.55219,7.54198 2.17152,12.51392z"/><g><path d="M198.74426,176.07744c3.66132,8.05329 -9.82301,10.62419 -13.87236,10.70693c-4.04936,0.08272 -3.88343,-10.5682 -4.06408,-19.41287c-0.18066,-8.84466 -1.26056,-17.23686 7.00489,-16.16447c5.92703,0.76898 6.88833,6.52512 7.68159,11.353c0.84031,5.11418 1.37859,9.40124 3.24996,13.51739z"/></g></g><g><path d="M275.83273,63.12588c-0.58901,3.55703 -12.33129,8.0644 -21.57201,8.0644c-7.44619,0 -5.60044,-6.33424 -5.60044,-9.75231c0,-3.41809 14.59253,-2.67252 22.03871,-2.67252c7.44617,0 5.51497,2.05797 5.13372,4.36041z" data-paper-data="{&quot;index&quot;:null}" fill="#2d0757" stroke="none" stroke-width="0" stroke-linecap="butt"/><path d="M256.76081,86.91809c0.06342,-0.03817 0.13066,-0.07519 0.20193,-0.11084c1.88324,-0.94163 2.82485,0.94162 2.82485,0.94162l-0.10086,0.10473c0.26034,0.25553 0.39669,0.49411 0.39669,0.49411c2.51299,4.3977 2.8755,11.74285 2.03201,16.83593c-0.31949,1.92915 -3.02698,4.50583 -2.9154,5.92959c-0.84672,2.54013 -3.77963,3.31394 -6.21324,3.51654c-6.10867,0.50856 -12.46197,0.02866 -18.59388,0.02866c-1.34452,0 -4.05111,0.52992 -5.26378,0c-7.90181,-3.45295 -4.21101,-13.94697 -4.21101,-20.52869c0,-4.08051 2.21776,-6.86281 6.43993,-7.46371c5.82004,-0.82833 12.24548,-0.08101 18.12431,-0.08101c2.45642,0 4.91286,0 7.36927,0z" data-paper-data="{&quot;index&quot;:null}" fill="#ffffff" stroke="none" stroke-width="0.5" stroke-linecap="butt"/><path d="M256.80102,95.44659c1.31498,-0.05058 1.36554,1.26439 1.36554,1.26439l0.00098,0.4015c0,0.91378 0.03508,1.83211 0.08305,2.75391c0.51051,-0.26016 1.01754,-0.52059 1.52168,-0.77265l1.04248,-0.11538c0,0 1.29238,-0.24784 1.54024,1.04454c0.24784,1.29238 -1.04454,1.54024 -1.04454,1.54024l-0.36119,-0.11538c-0.83378,0.4169 -1.67824,0.85308 -2.5337,1.27566c0.02574,0.46859 0.04896,0.93778 0.06681,1.40743h0.03605v1.75459c0,0.16631 -0.03087,0.32542 -0.08718,0.47193c-0.12826,0.37752 -0.44527,0.844 -1.22878,0.844c-0.78352,0 -1.10053,-0.46651 -1.22879,-0.844c-0.05631,-0.14648 -0.08718,-0.30562 -0.08718,-0.47193c0,-0.66138 -0.01759,-1.32084 -0.0449,-1.97866c-0.94714,0.39221 -1.90763,0.73075 -2.88195,0.97434c-0.95968,0.16825 -1.91304,0.32497 -2.86331,0.4694c0,1.11409 0,2.22817 0,3.34227v0.3509c0,0 0,1.31594 -1.31594,1.31594c-1.31594,0 -1.31594,-1.31594 -1.31594,-1.31594c0,-1.0817 0,-2.19673 0,-3.32455c-2.38105,0.30418 -4.76174,0.52626 -7.19382,0.65404c0,0.42228 0,0.84455 0,1.26683v1.05275c0,0 0,1.31594 -1.31594,1.31594c-1.31594,0 -1.31594,-1.31594 -1.31594,-1.31594c0,-0.67929 0,-1.43196 0,-2.21922c-0.72465,0.01721 -1.45529,0.02596 -2.19322,0.02596c0,0 -1.31594,0 -1.31594,-1.31594c0,-1.31594 1.31594,-1.31594 1.31594,-1.31594c0.7296,0 1.46112,-0.00057 2.19322,-0.00465c0,-1.39989 0,-2.77924 0,-3.94318c0,0 0,-1.31594 1.31594,-1.31594c1.31594,0 1.31594,1.31594 1.31594,1.31594c0,1.30274 0,2.60544 0,3.90816c2.42494,-0.05582 4.83901,-0.18973 7.19382,-0.51042c0,-1.74644 0,-3.48882 0,-5.15233c0,0 0,-1.31594 1.31594,-1.31594c1.31594,0 1.31594,1.31594 1.31594,1.31594c0,1.56829 0,3.13656 0,4.70485c0.75043,-0.15534 1.49265,-0.33484 2.225,-0.54227c1.14587,-0.28647 2.26666,-0.71769 3.36782,-1.21327c-0.07984,-1.33837 -0.15357,-2.67155 -0.15357,-4.00205l0.00098,-0.30033c0,0 -0.05058,-1.31499 1.26438,-1.36553z" data-paper-data="{&quot;index&quot;:null}" fill="#a5b5ff" stroke="none" stroke-width="0.5" stroke-linecap="butt"/><path d="M203.00109,88.6517l0.03578,-0.3846c0.11697,-0.2129 0.23393,-0.42578 0.3509,-0.63867c5.20375,-4.42951 9.40425,4.18409 11.59654,7.47048c0.73354,1.09964 1.58154,1.98499 2.13622,3.18526c1.74624,3.8057 10.88038,12.78528 2.50198,14.51208c-1.0639,0.21927 -2.04363,0.19543 -3.1265,0.19543c-0.62629,-0.22065 -1.31343,-0.33217 -1.87884,-0.66196c-0.48459,-0.28267 -3.58363,-2.57748 -4.66636,-3.20139c-0.45495,-0.26215 -6.21459,-5.63131 -6.48719,-6.62353c-1.24907,-4.58346 -0.56568,-8.77621 -0.56568,-13.38282c0,-0.15132 0.03087,-0.29613 0.08718,-0.42943c0.00503,-0.0135 0.01036,-0.0271 0.01601,-0.0408z" data-paper-data="{&quot;index&quot;:null}" fill="#8e4108" stroke="none" stroke-width="0.5" stroke-linecap="butt"/><path d="M261.80284,116.61474c0.18381,4.20882 1.58538,8.37859 -0.8829,11.51245c-1.06349,1.35026 -3.01847,2.73616 -3.71085,2.67374c-3.45699,0.01414 -7.85281,0.6033 -11.10089,-0.73074c-2.34275,-0.96219 -7.24904,-4.26281 -7.28368,-4.27439c-0.03518,-0.00964 -0.05436,-0.01603 -0.05436,-0.01603c-3.04156,-1.01385 -5.69329,-2.96317 -8.69782,-3.97434c-1.39763,-0.47038 -5.841,-1.88594 -5.841,-1.88594c-6.56494,-4.37661 -11.00678,-10.89476 -13.59289,-18.28104c-1.04845,-3.14542 -1.76625,-6.35157 -2.80733,-9.47479l0.08805,-0.35465c-3.11887,-1.78439 -5.73382,-4.31757 -8.88067,-6.03635c-1.67591,-0.91534 -4.00244,-1.64375 -5.59192,-2.91916c-1.67603,-1.34485 -2.62842,-2.13408 -3.96577,-3.81611c-5.20164,-5.32883 -5.97106,-10.08658 -5.97106,-17.36758l0.08648,-1.00724c-0.09442,-0.26932 -0.1327,-0.59035 -0.07903,-0.97172c0.02393,-0.3942 0.14786,-0.85754 0.52047,-1.23593c0.34854,-0.40068 0.80091,-0.55997 1.19211,-0.61424c0.53872,-0.11875 0.96853,-0.03992 1.30663,0.12969c5.41503,1.33357 9.65562,3.89889 14.75902,6.02719c2.05442,0.85679 4.55012,0.66397 6.77381,1.03459c1.05275,0.17546 4.21578,0.49774 4.21578,0.49774c4.79257,0 7.80907,-2.89886 12.24466,-4.60335c3.4598,-1.3295 6.9754,-1.25887 10.56978,-1.86002c6.15123,-1.0252 13.06161,-0.2041 19.2957,-0.2041c0,0 2.45155,0.71671 2.76225,1.15465c2.57115,2.35646 2.50152,4.86699 2.50152,8.32012c0,4.97612 -0.44788,10.21661 0.2598,15.14363c0.31228,2.34217 0.78397,4.53095 0.79282,6.89649c0.11373,0.47502 0.01381,0.89703 -0.14852,1.23367c-0.14254,0.403 -0.42193,0.82677 -0.9632,1.07641c-2.94385,2.17299 -5.44005,1.53842 -8.71863,2.64182c-1.44767,0.4872 -2.7175,1.45869 -4.32964,1.70224c-2.60343,0.39327 -5.37811,0.04388 -7.95251,0.57874c-3.02963,0.50492 -6.45743,0.40757 -9.5534,-0.02739c-0.06471,1.27104 -0.11393,2.57109 0.08337,3.74066c0.82408,4.88494 6.72965,8.47233 11.13961,8.96468c5.31257,0.66409 9.27193,-0.90989 14.16249,-2.54009c1.42178,-0.47393 3.20104,-0.56007 4.5307,-1.13215c1.38599,-0.59633 2.46178,-1.46305 4.21101,-1.75459l1.72506,1.13596c0,0 1.99367,0.67709 1.31658,2.67077z" data-paper-data="{&quot;index&quot;:null}" fill="#ffdebd" stroke="none" stroke-width="0.5" stroke-linecap="butt"/><path d="M274.41258,60.76227c0,0 -0.01513,2.55694 -0.93774,3.75089c-0.9226,1.19395 -4.37604,3.12572 -4.37604,3.12572l-10.6275,5.00118" data-paper-data="{&quot;index&quot;:null}" fill="none" stroke="#a5b5ff" stroke-width="4.5" stroke-linecap="round"/><path d="M227.6,68.0347c-0.25263,1.20899 -0.7412,2.31053 -0.9493,3.57214c-0.27963,1.69521 0.05402,3.83583 0.05402,5.58113c0,1.07201 4.16571,1.61499 6.14107,1.61499c0.52983,0 3.6969,0.03794 3.62706,-0.17806c0.80181,-0.5467 2.1931,-0.59634 2.88293,-1.20225c2.14299,-1.8822 4.06916,-4.51552 5.12433,-7.75284c0.13196,-0.40496 0.53143,-1.35431 0.12143,-1.2745c-0.21813,0.04245 -0.09618,0.56588 -0.3157,0.5998c-0.60264,0.09315 -1.91024,-0.87163 -2.53173,-1.0357c-0.81428,-0.21497 -2.19738,-0.18136 -3.10017,-0.33713c-2.00018,-0.3451 -4.46629,0.05524 -6.50998,0.05524c-1.57799,0 -3.01374,0.33052 -4.54395,0.35718zM226.70474,65.52424c0.40699,0 0.65665,0.16091 0.80978,0.35833c1.52691,-0.01577 3.0392,-0.35833 4.62945,-0.35833c3.39824,0 7.96727,-0.55608 11.16927,0.75379c2.01135,0.82279 3.98126,1.56631 3.16434,4.07273c-1.264,3.87805 -0.74052,5.47131 -3.80879,7.93821c-0.62516,0.50263 -4.02345,2.08131 -5.02803,2.12759c-1.00457,0.04631 -7.91689,0.93977 -10.46726,-0.35889c-1.06538,-0.54251 -2.57428,-1.59239 -2.57428,-2.8697c0,-2.01896 -0.26878,-4.26869 0.05401,-6.26208c0.24568,-1.51713 0.99874,-2.74059 0.99874,-4.32505c0,0 0,-1.07666 1.05274,-1.07666z" data-paper-data="{&quot;index&quot;:null}" fill="#18c6ff" stroke="none" stroke-width="0.5" stroke-linecap="butt"/><path d="M238.45843,65.33002c2.40413,0.60301 1.99036,0.65815 3.33578,1.49226c1.34542,0.83412 2.86685,2.42327 2.73485,2.82822c-1.05514,3.23734 -0.64286,5.04737 -2.78585,6.9296c-0.68984,0.60589 -4.06647,1.73383 -5.26265,1.98656c-1.19619,0.25271 -3.12839,0.28343 -3.6582,0.28343c-1.97537,0 -6.1656,-0.56844 -6.1656,-1.64046c0,-1.74528 -0.33757,-3.91643 -0.05794,-5.61164c0.2081,-1.2616 0.70406,-3.5857 0.95671,-4.79469c1.53021,-0.35753 2.56902,-1.1128 4.55993,-1.41597c1.9909,-0.30317 3.93882,-0.6603 6.34294,-0.05728z" data-paper-data="{&quot;noHover&quot;:false,&quot;origItem&quot;:[&quot;Path&quot;,{&quot;applyMatrix&quot;:true,&quot;segments&quot;:[[[469.86056,340.47788],[2.90705,-0.05065],[-0.47996,2.2968]],[[468.0571,347.26415],[0.39535,-2.39679],[-0.53123,3.22051]],[[468.15973,357.86707],[0,-3.31566],[0,2.03658]],[[479.8264,360.93518],[-3.75277,0],[1.00657,0]],[[486.717,360.5969],[0.13271,0.41035],[1.52326,-1.03856]],[[492.19394,358.31293],[-1.31054,1.15106],[4.07119,-3.57579]],[[501.92903,343.58421],[-2.00456,6.15021],[0.25074,-0.76931]],[[502.15973,341.16292],[0.77893,-0.15165],[-0.41434,0.08067]],[[501.56,342.30239],[0.41704,-0.06448],[-1.14489,0.17701]],[[496.75028,340.33482],[1.18068,0.3117],[-1.54698,-0.4084]],[[490.86061,339.69435],[1.71512,0.2959],[-3.79987,-0.65558]],[[478.49306,339.79931],[3.88259,0],[-2.99782,0]]],&quot;closed&quot;:true}],&quot;index&quot;:null}" fill="#ffffff" stroke="none" stroke-width="0.5" stroke-linecap="butt"/><path d="M251.61989,68.58973c0,1.37523 0,2.75048 0,4.12571c0,0.10536 -0.00445,1.579 0,1.57912c0.176,0.00413 -0.11115,-0.47471 0.05757,-0.52502c0.48777,-0.14543 2.52952,0.52502 3.62706,0.52502c0.21355,0 2.63168,0.00879 2.63189,0c0.00412,-0.176 -0.47471,0.11114 -0.52502,-0.05759c-0.3977,-1.33393 0.08609,-5.04972 0.16386,-7.30128c-0.60899,0.42656 -1.9137,-0.36133 -2.79711,-0.36133c-0.83305,0 -1.89035,0.8675 -2.58934,1.62171l-0.52639,0.52639c0,0 -0.01669,-0.05008 -0.04257,-0.13273zM250.70009,66.70721c1.92868,-1.84752 4.74127,-3.44315 7.35179,-3.34139c1.18247,0.04613 1.63919,1.56239 1.63919,3.03305c0,2.86827 1.08437,8.38971 -1.75458,10.00117c-0.50016,0.2839 -2.03997,0 -2.63188,0c-2.06472,0 -4.66168,-0.11743 -5.79016,-2.1055c-0.6692,-1.17898 0,-4.59633 0,-5.9656c0,0 0,-0.90698 0.84186,-1.03726z" data-paper-data="{&quot;index&quot;:null}" fill="#18c6ff" stroke="none" stroke-width="0.5" stroke-linecap="butt"/><path d="M254.77817,64.31573c0.8834,0 3.05055,0.38291 3.05055,0.38291c0,0 0.14519,9.46065 0.14107,9.63665c-0.0002,0.00879 -2.44454,0.01141 -2.65808,0.01141c-1.09753,0 -3.54912,-0.00727 -3.72512,-0.01141c-0.00446,-0.00012 -0.00935,-1.4837 -0.00935,-1.58905c0,-1.37523 0.03913,-4.04917 0.03913,-4.04917c0,0 2.32877,-4.38135 3.16181,-4.38135z" data-paper-data="{&quot;noHover&quot;:false,&quot;origItem&quot;:[&quot;Path&quot;,{&quot;applyMatrix&quot;:true,&quot;segments&quot;:[[[515.49306,341.5323],[0.04917,0.15701],[0,2.61264]],[[515.49306,349.37022],[0,-2.61264],[0,0.20016]],[[515.49306,352.37022],[-0.00844,-0.0002],[0.33438,0.00784]],[[515.60246,351.37279],[-0.32053,0.09557],[0.92664,-0.27628]],[[522.49306,352.37022],[-2.08504,0],[0.4057,0]],[[527.49306,352.37022],[-0.00039,0.0167],[0.00784,-0.33438]],[[526.49563,352.26082],[0.09557,0.32053],[-0.75555,-2.53413]],[[526.80695,338.39],[-0.14773,4.27747],[-1.15693,0.81042]],[[521.49306,337.70356],[1.67827,0],[-1.5826,0]],[[516.57394,340.78444],[1.32792,-1.43284],[0,0]],[515.57394,341.78444]],&quot;closed&quot;:true}],&quot;index&quot;:null}" fill="#ffffff" stroke="none" stroke-width="0.5" stroke-linecap="butt"/><path d="M192.5826,69.00043l5.48727,3.12573c0,0 3.86584,0.83945 6.036,2.18801c2.17014,1.34857 2.14943,1.81908 3.01799,3.43831c0.86856,1.61923 0.66327,1.79031 0,2.18802c-0.66325,0.39772 -3.19327,1.3979 -5.2129,0.93773c-2.01963,-0.46019 -3.01801,-2.81317 -3.01801,-2.81317l-0.85051,-5.87638" data-paper-data="{&quot;index&quot;:null}" fill="none" stroke="#f6b09a" stroke-width="3" stroke-linecap="round"/><path d="M241.65155,70.43134c0.60354,0 1.14977,0.24451 1.54573,0.6401c0.39603,0.3947 0.6409,0.94048 0.6409,1.543c0,0.60252 -0.24488,1.14831 -0.6409,1.54301c-0.39594,0.39558 -0.94218,0.6401 -1.54573,0.6401c-0.60347,0 -1.14971,-0.2445 -1.54573,-0.6401c-0.39594,-0.3947 -0.64083,-0.94049 -0.64083,-1.54301c0,-0.60252 0.24488,-1.1483 0.64083,-1.543c0.39603,-0.39558 0.94226,-0.6401 1.54573,-0.6401z" data-paper-data="{&quot;index&quot;:null}" fill="#000000" stroke="none" stroke-width="1.05702" stroke-linecap="butt"/><path d="M263.71505,37.71841c2.32984,14.52902 -0.47846,15.35527 -8.2847,20.00657c-11.37432,6.77735 -26.25273,5.40534 -38.40218,10.66827c-3.19011,1.3819 -11.32101,-1.97566 -14.79758,-1.97566c-7.11061,0 -11.12276,-5.08187 -11.41659,-11.13492c-0.6481,-13.35161 5.92633,-13.40338 13.03692,-13.40338c0,0 7.82543,1.29702 10.52847,5.4487c0,0 10.88626,-17.71235 22.3619,-19.90058c14.77236,-2.81683 25.30067,-0.14279 26.97381,10.29098z" data-paper-data="{&quot;index&quot;:null}" fill="#7100f3" stroke="none" stroke-width="0" stroke-linecap="butt"/><path d="M260.90158,46.00671c0,5.31559 -1.42248,9.31473 -11.86075,9.62471c-11.01946,0.32722 -11.86077,-4.30912 -11.86077,-9.62471c0,-5.31559 5.31026,-9.62471 11.86077,-9.62471c6.5505,0 11.86075,4.30912 11.86075,9.62471z" data-paper-data="{&quot;index&quot;:null}" fill="#ffffff" stroke="none" stroke-width="0" stroke-linecap="butt"/><path d="M253.53786,38.7101l0.39043,3.43963l-5.23926,0.437l0.72693,8.52696l-4.40884,0.52088l-0.81648,-12.13684z" data-paper-data="{&quot;index&quot;:null,&quot;origRot&quot;:0}" fill="#ffea12" stroke="#7100f3" stroke-width="1" stroke-linecap="butt"/><path d="M276.50301,90.44511l-5.61468,11.93121l-2.80736,-0.3509l-9.8257,-4.21101l-28.42433,6.66744h-4.21101l-3.15826,-3.50917l-5.61468,-12.98398l1.40369,-1.75458l10.17662,9.8257l15.44038,-1.75459l12.28212,-3.50916l10.87843,4.21101l6.66744,-5.61468z" data-paper-data="{&quot;index&quot;:null}" fill="#000000" stroke="#ff0000" stroke-width="0" stroke-linecap="round"/><path d="M214.74935,66.27835c0.9773,0 2.5519,1.7549 2.61661,2.12846c1.63442,1.6363 3.08029,4.1529 3.43212,6.44346c0.11273,0.7341 -1.61675,4.58533 -2.01319,5.11392c-2.09668,1.63078 -4.94982,3.03891 -6.13557,0.23164c-0.276,-0.65344 0.78406,-3.46 0.78406,-4.17946c0,-2.45642 0,-4.91283 0,-7.36926c0,0 0,-0.33851 0.17167,-0.67216l-0.17167,-0.38059c0,0 0,-1.31594 1.31594,-1.31594z" data-paper-data="{&quot;index&quot;:null}" fill="#8e4108" stroke="none" stroke-width="0.5" stroke-linecap="butt"/><path d="M260.66204,51.9199c6.70169,0.09264 16.52872,6.43738 15.76197,9.41323c-0.20742,0.805 -39.21474,2.56561 -50.57859,3.69087c-5.52296,0.5469 -16.52109,4.03114 -16.31366,3.22614c0.76679,-2.97585 5.37972,-8.96685 10.66392,-10.51878c6.3857,-1.87543 24.07271,-6.03804 40.4664,-5.81145z" data-paper-data="{&quot;index&quot;:null}" fill="#4f05a3" stroke="none" stroke-width="0" stroke-linecap="butt"/><path d="M211.50713,68.73289l29.46008,-5.78262l33.75797,-2.18801" data-paper-data="{&quot;index&quot;:null}" fill="none" stroke="#ffffff" stroke-width="4.5" stroke-linecap="round"/><path d="M248.35373,69.47319c-0.09144,2.1035 -2.19496,2.01208 -2.19496,2.01208l-1.92568,-1.16123c-0.8773,-0.70182 -1.75458,-1.40369 -2.63189,-2.1055c-5.00642,-4.27396 -12.95578,-1.45083 -18.02965,1.44852c0,0 -1.82811,1.04462 -2.87272,-0.78347c-1.04461,-1.8281 0.78347,-2.87271 0.78347,-2.87271c6.77702,-3.87259 15.89493,-6.36977 22.74951,-1.08058c0.8773,0.70182 2.46284,1.81851 2.46284,1.81851c0,0 1.75056,0.6209 1.65911,2.72442z" data-paper-data="{&quot;index&quot;:null}" fill="#000000" stroke="none" stroke-width="0.5" stroke-linecap="butt"/><path d="M261.17102,62.02823c1.02877,1.83707 -0.80831,2.86584 -0.80831,2.86584l-2.43243,0.26844c-2.96628,0 -4.4121,0.59402 -5.3718,3.47316c0,0 -0.66584,1.99746 -2.66327,1.33165c-1.99748,-0.66581 -1.33165,-2.66327 -1.33165,-2.66327c1.49566,-4.48696 6.50622,-5.78995 6.50622,-5.78995c0,0 5.0725,-1.32289 6.10128,0.51418z" data-paper-data="{&quot;index&quot;:null}" fill="#000000" stroke="none" stroke-width="0.5" stroke-linecap="butt"/><path d="M257.24055,68.43125c0.52236,0 0.99512,0.21161 1.33781,0.554c0.34276,0.34161 0.5547,0.81398 0.5547,1.33545c0,0.52148 -0.21195,0.99384 -0.5547,1.33544c-0.34268,0.34238 -0.81545,0.55401 -1.33781,0.55401c-0.5223,0 -0.99505,-0.21162 -1.33781,-0.55401c-0.34267,-0.34161 -0.55464,-0.81397 -0.55464,-1.33544c0,-0.52148 0.21193,-0.99384 0.55464,-1.33545c0.34276,-0.34238 0.8155,-0.554 1.33781,-0.554z" data-paper-data="{&quot;index&quot;:null}" fill="#000000" stroke="none" stroke-width="1.05702" stroke-linecap="butt"/><path d="M244.87507,80.82669c0.22862,-1.50916 0.13976,-3.39795 0.58002,-4.58713c0.97256,-2.62695 3.89644,-3.85012 6.46809,-3.85012c8.62905,0 22.05988,3.29815 22.05988,13.89773c-0.06471,3.1241 -0.66004,5.84636 -3.15149,8.00438c-1.22078,1.05742 -3.48074,1.09673 -5.01175,1.24983c-4.7658,0.4766 -10.2594,1.13503 -14.99107,0.1887c-4.13864,-1.09744 -8.14274,-0.65267 -11.4227,-4.18022c-2.30557,-2.4796 -1.98818,-7.17824 -0.2145,-9.73749c0.85723,-1.23689 3.88155,-1.04019 5.23127,-1.04019c0,0 0.18707,0 0.45225,0.05447z" fill="url(#color-2)" stroke="none" stroke-width="0.5" stroke-linecap="butt"/></g></g></g></svg>