<svg version="1.1" xmlns="http://www.w3.org/2000/svg" xmlns:xlink="http://www.w3.org/1999/xlink" width="28.8" height="28.8" viewBox="0,0,28.8,28.8"><g transform="translate(-225.6,-165.6)"><g data-paper-data="{&quot;isPaintingLayer&quot;:true}" fill-rule="nonzero" stroke-linejoin="miter" stroke-miterlimit="10" stroke-dasharray="" stroke-dashoffset="0" style="mix-blend-mode: normal"><path d="M240,166.85c3.628,0 6.915,1.474 9.296,3.854c2.38,2.381 3.854,5.668 3.854,9.296c0,3.628 -1.474,6.915 -3.854,9.296c-2.381,2.38 -5.668,3.854 -9.296,3.854c-3.628,0 -6.915,-1.474 -9.296,-3.854c-2.38,-2.381 -3.854,-5.668 -3.854,-9.296c0,-3.628 1.474,-6.915 3.854,-9.296c2.381,-2.38 5.668,-3.854 9.296,-3.854z" fill="#000000" stroke="#ffffff" stroke-width="2.5" stroke-linecap="butt"/><path d="M235.6,173.25l8.1,0.65l2.5,4.6l-5.25,4.25l4.85,-0.75l1.15,5l-10.75,-0.1l-2.75,-3.5l6.75,-4.8l-6.6,-0.5z" fill="#ffffff" stroke="none" stroke-width="1" stroke-linecap="round"/></g></g></svg>