<svg version="1.1" xmlns="http://www.w3.org/2000/svg" xmlns:xlink="http://www.w3.org/1999/xlink" width="62.65944" height="64.648" viewBox="0,0,62.65944,64.648"><g transform="translate(-208.7245,-147.65)"><g data-paper-data="{&quot;isPaintingLayer&quot;:true}" fill="#ffffff" fill-rule="evenodd" stroke="#000000" stroke-width="0.25" stroke-linecap="round" stroke-linejoin="miter" stroke-miterlimit="10" stroke-dasharray="" stroke-dashoffset="0" style="mix-blend-mode: normal"><path d="M270.0405,176.398c-0.19526,0.59486 -0.42738,1.17699 -0.695,1.743c-2.001,4.305 -6.63,10.458 -10.861,14.279c-0.52979,0.48063 -1.07821,0.94031 -1.644,1.378c-0.75,0.55 -1.5,0.95 -2.237,1.213c-0.69346,0.25211 -1.42514,0.38302 -2.163,0.387c-1.79916,-0.02358 -3.52088,-0.73575 -4.811,-1.99c-1.085,-1.027 -1.838,-2.337 -2.093,-3.647c-0.06283,-0.31717 -0.09498,-0.63966 -0.096,-0.963c-0.0018,-0.62493 0.15951,-1.23951 0.468,-1.783c0.21942,-0.38251 0.50054,-0.72614 0.832,-1.017c1.26224,-1.11477 2.52191,-2.23244 3.779,-3.353c3.058,-2.761 5.473,-5.252 6.121,-7.847c0.045,-0.178 0.069,-0.336 0.083,-0.483c0.01393,-0.17196 0.01961,-0.34449 0.017,-0.517c0,-1.039 -0.551,-1.472 -1.407,-1.626c-0.3282,-0.05368 -0.66047,-0.07844 -0.993,-0.074c-1,0 -2.1,0.1 -3.1,0.1c-1.85375,0.08027 -3.70483,0.21333 -5.551,0.399c-3.372,0.33726 -6.72562,0.83819 -10.049,1.501c1.692,6.465 3.603,13.112 5.6,19.412c1.2485,3.95761 2.58214,7.88786 4,11.788c0.2,0.4 0.2,0.8 0.2,1.2c-0.02721,1.00278 -0.38908,1.96764 -1.028,2.741c-1.392,1.794 -3.975,3.059 -6.372,3.059c-1.44297,0.05161 -2.83749,-0.52473 -3.823,-1.58c-0.42043,-0.47686 -0.7514,-1.02564 -0.977,-1.62c-4,-9.5 -7.5,-21 -10.3,-32c-2.8,0.7 -5.5,1.6 -7.9,2.4c-0.287,0.144 -0.626,0.185 -0.943,0.196c-0.11897,0.00349 -0.23799,0.00482 -0.357,0.004c-2.591,0 -4.436,-2.834 -4.891,-5.668c-0.07154,-0.44041 -0.10799,-0.88581 -0.109,-1.332c-0.00332,-0.51693 0.04999,-1.03268 0.159,-1.538c0.21093,-1.27336 1.0554,-2.35183 2.241,-2.862c0.71346,-0.27978 1.43121,-0.54847 2.153,-0.806c2.2899,-0.81056 4.60693,-1.54232 6.947,-2.194c-0.38353,-1.70268 -0.73891,-3.41158 -1.066,-5.126c-0.3922,-2.04976 -0.73696,-4.10831 -1.034,-6.174c0,-0.3 -0.1,-0.5 -0.1,-0.8c0,-3.022 3.161,-5.017 6.321,-5.423c0.39096,-0.05071 0.78476,-0.07643 1.179,-0.077c0.81596,-0.00753 1.62734,0.12263 2.4,0.385c1.45022,0.42064 2.53577,1.6283 2.8,3.115c0.31571,1.79847 0.64505,3.59452 0.988,5.388c0.37798,1.97591 0.78202,3.94675 1.212,5.912c3.79813,-0.66137 7.61599,-1.20396 11.448,-1.627c2.71038,-0.30178 5.42882,-0.52621 8.152,-0.673c0.44764,-0.03624 0.89611,-0.06125 1.345,-0.075c0.71815,-0.02024 1.43658,-0.02857 2.155,-0.025c0.82376,-0.00096 1.6474,0.02038 2.47,0.064c3.67,0.199 6.452,0.862 8.464,1.957c2.80485,1.45092 4.4808,4.42841 4.266,7.579c-0.0002,0.30386 -0.0092,0.60766 -0.027,0.911c-0.101,1.753 -0.492,3.663 -1.173,5.789z"/></g></g></svg>