<svg version="1.1" xmlns="http://www.w3.org/2000/svg" xmlns:xlink="http://www.w3.org/1999/xlink" width="497.67744" height="154.45189" viewBox="0,0,497.67744,154.45189"><defs><linearGradient x1="338" y1="291.89302" x2="358.13935" y2="291.89302" gradientUnits="userSpaceOnUse" id="color-1"><stop offset="0" stop-color="#a3822e"/><stop offset="1" stop-color="#e4b234"/></linearGradient><linearGradient x1="447.86066" y1="291.39302" x2="468" y2="291.39302" gradientUnits="userSpaceOnUse" id="color-2"><stop offset="0" stop-color="#a3822e"/><stop offset="1" stop-color="#e4b234"/></linearGradient><linearGradient x1="404.59065" y1="210.86562" x2="404.59065" y2="224.86562" gradientUnits="userSpaceOnUse" id="color-3"><stop offset="0" stop-color="#e4b234"/><stop offset="1" stop-color="#a3822e"/></linearGradient></defs><g transform="translate(11.81891,-210.86562)"><g data-paper-data="{&quot;isPaintingLayer&quot;:true}" fill-rule="nonzero" stroke-linejoin="miter" stroke-miterlimit="10" stroke-dasharray="" stroke-dashoffset="0" style="mix-blend-mode: normal"><path d="M0.5,287.39303h237.92744c0.02369,0.92848 0.04849,1.85698 0.07469,2.78549c0.52044,18.44616 3.34673,74.11912 3.34673,74.11912l-241.34885,-4.51347z" data-paper-data="{&quot;origPos&quot;:null}" fill="#cfbf74" stroke="#8d763a" stroke-width="2" stroke-linecap="butt"/><path d="M158.7801,286.99163c-31.3095,-1.80799 -59.41184,16.86059 -90.95399,17.47924c-26.50746,0.51378 -53.46718,-6.88244 -76.47067,-16.6663c-0.63329,-0.26964 -1.36644,-0.59748 -2.17435,-0.97457c0,-6.9951 0,-13.99021 0,-20.9853c93.46187,-5.26486 215.42506,1.63329 239.78091,2.09417c8.11862,0.15362 13.6847,3.89066 14.80436,4.97202c3.10056,3.1134 6.20216,11.22769 6.33859,15.67556c0.30436,9.9223 0.97602,28.43301 0.97602,28.43301c0,0 -59.67068,-29.43273 -92.30088,-30.02782z" fill="#8fe3a6" stroke="#70bc7d" stroke-width="2" stroke-linecap="butt"/><path d="M-4.5,317.60516c20.36854,-3.99984 41.46759,8.46885 65.36109,9.02416c27.36369,0.63597 56.94049,-19.80293 86.00783,-18.67152c27.00219,1.05103 51.47766,15.82132 88.88886,19.03449" data-paper-data="{&quot;origPos&quot;:null,&quot;origRot&quot;:0}" fill="none" stroke="#bba15f" stroke-width="10" stroke-linecap="round"/><path d="M-4.5,346.55994c20.36854,-3.99984 41.46759,8.46885 65.36109,9.02416c27.36369,0.63597 56.94049,-19.80293 86.00783,-18.67152c27.21808,1.05944 53.05913,14.86189 90.96185,17.91283" data-paper-data="{&quot;origPos&quot;:null,&quot;origRot&quot;:0}" fill="none" stroke="#b49851" stroke-width="10" stroke-linecap="round"/><path d="M338,222.89302h20.13934v138h-20.13934z" data-paper-data="{&quot;origPos&quot;:null}" fill="url(#color-1)" stroke="none" stroke-width="1.54554" stroke-linecap="butt"/><path d="M447.86066,221.89302h20.13934v139h-20.13934z" data-paper-data="{&quot;origPos&quot;:null}" fill="url(#color-2)" stroke="none" stroke-width="1.54554" stroke-linecap="butt"/><path d="M323.32277,210.86562h162.53576v14h-162.53575z" data-paper-data="{&quot;origPos&quot;:null}" fill="url(#color-3)" stroke="none" stroke-width="1.16442" stroke-linecap="butt"/></g></g></svg>