<svg version="1.1" xmlns="http://www.w3.org/2000/svg" xmlns:xlink="http://www.w3.org/1999/xlink" width="157.44934" height="149.1926" viewBox="0,0,157.44934,149.1926"><g transform="translate(-161.27533,-105.4037)"><g data-paper-data="{&quot;isPaintingLayer&quot;:true}" fill-rule="nonzero" stroke-linejoin="miter" stroke-miterlimit="10" stroke-dasharray="" stroke-dashoffset="0" style="mix-blend-mode: normal"><g data-paper-data="{&quot;origRot&quot;:0}" stroke="none" stroke-linecap="butt"><g data-paper-data="{&quot;origPos&quot;:null}" stroke-width="0"><path d="M209.49372,161.00269l12.33882,-10.42624c0,0 7.24231,6.12379 13.68997,13.57904c6.44766,7.45523 14.78484,16.63214 1.48492,13.32756c-4.07128,3.52107 -6.97631,6.18573 -13.42398,-1.2695z" data-paper-data="{&quot;origRot&quot;:0,&quot;origPos&quot;:null}" fill="#41c3ff"/><g data-paper-data="{&quot;origPos&quot;:null}" fill="#ffffff"><path d="M191.10487,153.50549c-8.22803,-7.67799 -1.12622,-13.83248 5.38954,-21.90546c5.97106,-7.39806 20.14204,-5.63351 24.96682,-0.19511c6.65062,7.49646 -2.26315,15.1896 -9.73145,21.07254c-7.46828,5.88297 -12.94213,8.19722 -20.62493,1.028z" data-paper-data="{&quot;origRot&quot;:0,&quot;origPos&quot;:null}"/><path d="M202.98324,163.11548c-4.4647,-5.30599 -1.26765,-4.72692 9.24583,-13.46136c9.22895,-7.66725 10.49481,-9.14644 14.79359,-4.51461c3.84268,4.1404 -3.61648,8.20776 -9.37646,12.75734c-5.75995,4.54956 -12.05588,8.31693 -14.66296,5.21858z" data-paper-data="{&quot;origRot&quot;:0,&quot;origPos&quot;:null}"/></g></g><path d="M206.06312,130.40361l4.41466,7.57385l7.89478,0.98246l-6.73901,4.66317l1.81196,7.99656l-7.08676,-4.23483l-7.7767,5.38236l2.81698,-8.84744l-5.83726,-6.19576l8.45036,0.5084z" data-paper-data="{&quot;origPos&quot;:null,&quot;origRot&quot;:0}" fill="#ffe84f" stroke-width="NaN"/></g><g data-paper-data="{&quot;origRot&quot;:0}" stroke="none" stroke-linecap="butt"><g data-paper-data="{&quot;origPos&quot;:null,&quot;index&quot;:null,&quot;origRot&quot;:0}" stroke-width="0"><path d="M251.17324,209.84793c2.44351,-4.79607 13.16267,-4.9721 21.94516,-0.49762c8.78245,4.47451 16.46257,10.03938 16.46257,10.03938l-7.16765,14.47683c0,0 -14.58997,-5.31633 -21.6538,-8.91521c-8.78245,-4.47451 -12.02978,-10.30725 -9.58627,-15.10336z" data-paper-data="{&quot;origRot&quot;:0,&quot;origPos&quot;:null}" fill="#41c3ff"/><g data-paper-data="{&quot;origPos&quot;:null}" fill="#ffffff"><path d="M290.15486,229.65371c3.92311,-8.65992 9.25749,-19.15671 18.12859,-14.49507c6.43564,3.38186 11.54279,16.71782 5.7901,24.28692c-6.27753,8.25959 -10.552,16.62876 -19.97713,10.47904c-8.80057,-5.7422 -7.86467,-11.61097 -3.94157,-20.27087z" data-paper-data="{&quot;origRot&quot;:0,&quot;origPos&quot;:null}"/><path d="M283.47622,225.20743c3.03767,-6.68195 5.20017,-14.89814 10.14038,-12.15897c5.5266,3.06434 4.39364,4.64764 -0.84012,15.4443c-5.96222,12.29942 -4.63434,15.26468 -10.85521,12.20072c-3.63254,-1.78913 -1.48269,-8.8041 1.55494,-15.48606z" data-paper-data="{&quot;origRot&quot;:0,&quot;origPos&quot;:null}"/></g></g><path d="M308.09632,242.28483l-7.76073,-4.07723l-7.21301,3.35633l3.23774,-7.52837l-5.77893,-5.81656l8.2539,-0.17087l3.73569,-8.6886l2.30687,8.99392l8.23531,2.15433l-7.4324,4.05296z" data-paper-data="{&quot;origPos&quot;:null,&quot;origRot&quot;:0}" fill="#ffe84f" stroke-width="NaN"/></g><g data-paper-data="{&quot;origRot&quot;:0}" stroke="none" stroke-width="0" stroke-linecap="butt"><path d="M208.64296,235.18224c-3.69793,2.7808 -2.29455,8.12991 -3.24742,8.57229c-3.85537,1.78992 -7.42401,1.77873 -12.93921,-2.90565c-6.83182,-5.80266 -10.12437,-11.7503 -10.65421,-20.69816c-0.36089,-6.09427 4.43349,-3.73421 10.33944,-5.28022c2.11924,-0.55475 4.66438,-1.61878 9.50082,-4.24791c6.04682,-3.28713 24.2239,-9.49727 24.2239,-9.49727c0,0 9.04332,12.58577 6.06508,21.16939c-2.60361,7.50394 -14.74013,6.45941 -23.28836,12.8875z" data-paper-data="{&quot;origPos&quot;:null}" fill="#6173f8"/><path d="M194.00359,253.71689c-3.28017,2.19639 -7.06061,-0.10663 -10.04849,-2.68655c-1.95808,-1.69075 -8.39477,-11.93989 -8.81322,-18.88436c-0.12991,-2.15594 1.0871,-4.79236 1.0871,-4.79236c0,0 -3.47671,-3.80995 -2.24287,-4.6185c0.97942,-0.64182 2.61984,-1.7757 3.75609,-1.17104c4.89091,2.60282 11.32228,12.21892 14.40484,16.82252c4.23168,6.31973 5.06291,13.18332 1.85654,15.33026z" data-paper-data="{&quot;origPos&quot;:null}" fill="#f8dca0"/><path d="M199.18564,252.54346c-4.60935,1.42108 -9.92683,-0.58394 -14.71077,-7.7285c-4.78397,-7.14456 -5.75775,-17.56209 -5.75775,-17.56209c0,0 -3.7357,-4.99003 -2.47871,-5.98326c2.60163,-2.05575 7.05008,-5.10603 7.89273,-4.16456c3.11079,3.47566 2.1059,3.0989 6.53934,7.39899c2.87043,2.78409 9.60174,6.13923 11.82665,9.46198c4.78397,7.14456 4.27795,16.23759 -3.31139,18.57749z" data-paper-data="{&quot;origPos&quot;:null}" fill="#8d6431"/></g><g data-paper-data="{&quot;origRot&quot;:0}" stroke="none" stroke-width="0" stroke-linecap="butt"><path d="M194.17315,216.39502c-4.05427,2.22941 -3.4221,7.7233 -4.428,8.02639c-4.06988,1.22625 -7.60104,0.7101 -12.39773,-4.70773c-5.94178,-6.71116 -8.35939,-13.06494 -7.6175,-21.99773c0.50532,-6.08398 4.91739,-3.06915 10.98268,-3.7637c2.17641,-0.24923 4.84651,-0.94229 10.00639,-2.86047c6.45121,-2.39821 25.32422,-5.97323 25.32422,-5.97323c0,0 3.27233,6.66508 4.63094,11.64425c1.0722,3.92951 0.68505,11.6218 0.68505,11.6218c0,0 -17.81403,2.85679 -27.18599,8.01036z" data-paper-data="{&quot;origPos&quot;:null}" fill="#6173f8"/><path d="M177.05786,232.67112c-3.55799,1.71001 -6.97447,-1.10486 -9.56708,-4.08169c-1.69906,-1.95085 -6.62041,-13.00781 -6.05174,-19.9416c0.17655,-2.15264 1.75441,-4.59027 1.75441,-4.59027c0,0 -2.90248,-4.26368 -1.56665,-4.88948c1.06041,-0.49676 2.84481,-1.38703 3.88402,-0.62764c4.47329,3.26885 9.47893,13.69837 11.87892,18.69195c3.29463,6.85503 3.14604,13.76718 -0.33189,15.43874z" data-paper-data="{&quot;origPos&quot;:null}" fill="#f8dca0"/><path d="M182.35384,232.24298c-4.76406,0.75441 -9.74425,-1.98306 -13.46885,-9.73277c-3.72462,-7.74971 -3.21421,-18.20023 -3.21421,-18.20023c0,0 -2.99184,-5.46852 -1.60693,-6.27384c2.86638,-1.66683 7.70177,-4.05683 8.40267,-3.0056c2.58757,3.88097 1.64613,3.36578 5.42633,8.25006c2.4475,3.16233 8.63619,7.43642 10.36839,11.04062c3.72462,7.74971 1.93673,16.67958 -5.90742,17.92179z" data-paper-data="{&quot;origPos&quot;:null}" fill="#8d6431"/></g><g data-paper-data="{&quot;origRot&quot;:0}"><path d="M249.6319,223.24889c-19.83305,8.15402 -31.40093,4.23566 -38.89801,-15.59769c-7.85451,-20.77892 3.53578,-26.59053 13.12356,-30.32664c10.40114,-4.05305 18.5744,-8.25024 28.32061,-2.80757c7.26123,4.05498 7.48491,11.44519 10.50455,19.19437c5.58384,14.32959 6.39009,21.54474 -13.05072,29.53752z" data-paper-data="{&quot;origPos&quot;:null}" fill="#6173f8" stroke="none" stroke-width="0" stroke-linecap="butt"/><path d="M250.28993,223.26418c0,0 -8.22673,-15.53415 -13.07337,-26.85629c-4.44553,-10.38515 -5.02756,-22.38423 -5.02756,-22.38423c0,0 12.65339,-6.00276 20.64522,-0.45432c5.22882,3.63017 8.4696,8.7413 11.41046,15.78401c2.94088,7.04271 3.76453,15.62654 2.25974,20.33515c-3.55453,11.12234 -16.2145,13.57565 -16.2145,13.57565z" data-paper-data="{&quot;origPos&quot;:null}" fill="#41c3ff" stroke="none" stroke-width="0" stroke-linecap="butt"/><path d="M265.09827,202.39635c0,0 -5.66687,4.53421 -9.38864,6.45368c-4.78033,2.46543 -14.56228,5.04426 -14.56228,5.04426" data-paper-data="{&quot;origPos&quot;:null,&quot;origRot&quot;:0}" fill="none" stroke="#6173f8" stroke-width="10" stroke-linecap="round"/><path d="M256.71094,182.29093c0,0 -6.20451,3.76515 -10.14281,5.1884c-5.05844,1.82808 -15.09141,3.12321 -15.09141,3.12321" data-paper-data="{&quot;origPos&quot;:null}" fill="none" stroke="#6173f8" stroke-width="10" stroke-linecap="round"/><path d="M227.25204,189.83998l4.1059,-1.07988l1.48032,-3.5571l1.30391,3.74846l3.96629,0.18944l-2.89353,2.75905l1.50522,4.32583l-3.76423,-2.45976l-3.64695,1.92215l1.331,-3.87772z" data-paper-data="{&quot;origPos&quot;:null,&quot;origRot&quot;:0}" fill="#ffe84f" stroke="none" stroke-width="NaN" stroke-linecap="butt"/><path d="M236.81607,213.70906l3.91836,-1.63428l0.97705,-3.72687l1.80705,3.5335l3.95466,-0.35784l-2.48658,3.1308l2.08585,4.07767l-4.06674,-1.91867l-3.34789,2.40544l0.78504,-4.02392z" data-paper-data="{&quot;origPos&quot;:null,&quot;origRot&quot;:0}" fill="#ffe84f" stroke="none" stroke-width="NaN" stroke-linecap="butt"/></g><path d="M317.84182,149.23881c-1.11942,3.71904 -13.16308,6.89364 -22.09225,5.6011c-7.19511,-1.04155 -4.43169,-7.55282 -3.90292,-11.20569c0.52877,-3.6529 14.51396,-0.815 21.70911,0.22653c7.19513,1.04155 5.01066,2.97077 4.28608,5.37804z" fill="#2a8499" stroke="none" stroke-width="0" stroke-linecap="butt"/><path d="M236.5204,179.80657c-1.6886,-1.6441 -1.81961,-3.9846 0.06829,-6.51328c2.19041,-2.93392 2.27573,-8.07898 3.96434,-6.43488c0,0 7.10025,2.07314 7.23987,5.05402c0,0 1.84501,8.81703 0.39828,9.97519c0,0 -1.97737,1.0662 -6.60089,0.17232c-2.50507,-0.48429 -3.38133,-0.60923 -5.06992,-2.25335z" data-paper-data="{&quot;origRot&quot;:0}" fill="#e7be7a" stroke="none" stroke-width="0" stroke-linecap="butt"/><path d="M248.94696,141.60207c4.17713,1.63507 37.63753,3.22986 43.39707,4.39303c8.52113,1.72093 5.02383,9.13095 4.38791,17.80085c-0.73116,9.96848 5.50026,15.45828 0.70217,24.22663c-1.84995,3.38067 -6.47987,5.38714 -9.8175,7.31372c-1.89339,1.09292 -4.78986,4.72993 -15.63345,3.38731c-18.41025,-6.52193 -22.96911,-12.25111 -25.57772,-16.69382c-2.74421,-4.27691 -1.19118,-5.32118 -3.6759,-10.59912c-0.76168,-1.61789 -1.80424,-2.57302 -1.99921,-2.60126c-10.39269,-1.50441 -14.86322,-10.91631 -13.68816,-19.03388c1.17505,-8.11758 5.83659,-14.16128 11.64805,-13.32004c5.81144,0.84123 8.8043,4.55812 10.25671,5.12664z" fill="#ffdebd" stroke="none" stroke-width="0" stroke-linecap="butt"/><path d="M296.47851,153.80945c-0.35611,4.95046 -3.13179,8.78471 -6.19967,8.564c-3.06788,-0.22068 -5.26626,-4.41271 -4.91013,-9.36316c0.35611,-4.95046 3.13179,-8.7847 6.19969,-8.56402c3.06788,0.22068 5.26623,4.41271 4.91014,9.36318z" data-paper-data="{&quot;origRot&quot;:0}" fill="#ffffff" stroke="none" stroke-width="0" stroke-linecap="butt"/><path d="M258.2444,150.95252c-0.37841,2.61409 2.41222,10.60515 -0.10423,11.40779c-2.92743,0.93375 -3.1259,-3.45418 -6.88688,-3.29917c-2.79383,0.11517 -3.77304,-5.43856 -3.13209,-9.86634c0.64094,-4.42777 1.24509,-8.71931 4.02536,-8.42102c11.7057,1.25596 6.73881,5.75097 6.09786,10.17874z" fill="#e7be7a" stroke="none" stroke-width="0" stroke-linecap="butt"/><g stroke="none" stroke-width="1" stroke-linecap="butt"><path d="M289.7406,161.15629c-0.6086,-1.28439 -0.9028,-2.98974 -0.7393,-4.80809c0.1635,-1.81847 0.7541,-3.41023 1.5772,-4.51089c0.8232,-1.10174 1.877,-1.71384 2.9677,-1.57395c1.0907,0.14 2.0116,1.00546 2.6202,2.29092c0.6087,1.28439 0.9029,2.98963 0.7394,4.8081c-0.1635,1.81835 -0.7542,3.41022 -1.5773,4.51077c-0.8232,1.10186 -1.877,1.71395 -2.9677,1.57395c-1.0907,-0.13988 -2.0116,-1.00534 -2.6202,-2.2908z" fill="#ffe008"/><path d="M291.4883,160.24353c-0.3983,-1.02899 -0.5794,-2.40381 -0.4467,-3.87897c0.1326,-1.47516 0.554,-2.77269 1.1261,-3.67733c0.5733,-0.9056 1.2982,-1.41805 2.039,-1.32309c0.7407,0.09508 1.358,0.77981 1.7572,1.81023c0.3983,1.02899 0.5794,2.40381 0.4468,3.87897c-0.1327,1.47516 -0.5541,2.77269 -1.1262,3.67733c-0.5733,0.9056 -1.2982,1.41805 -2.039,1.32309c-0.7407,-0.09508 -1.358,-0.77981 -1.7572,-1.81023z" fill="#000000"/></g><path d="M282.70131,156.93568c-0.13406,4.96141 -2.73521,8.91615 -5.80992,8.83309c-3.0747,-0.08307 -5.45859,-4.17245 -5.32454,-9.13391c0.13405,-4.96141 2.73521,-8.91616 5.80991,-8.83309c3.07471,0.08307 5.4586,4.17246 5.32455,9.13391z" data-paper-data="{&quot;origRot&quot;:0}" fill="#ffffff" stroke="none" stroke-width="0" stroke-linecap="butt"/><path d="M307.62595,120.10907c0.23368,15.32437 -2.78445,15.757 -11.52529,19.38686c-12.73608,5.28895 -27.86819,1.65456 -41.17733,5.26678c-3.49461,0.94844 -11.37505,-3.72581 -14.95875,-4.24457c-7.32967,-1.06101 -10.70715,-6.89814 -10.10685,-13.18154c1.32416,-13.85969 8.1089,-12.93209 15.43858,-11.87107c0,0 7.87304,2.50469 10.03983,7.18763c0,0 13.86465,-16.63373 26.02041,-17.17703c15.64787,-0.69938 26.10157,3.62806 26.26938,14.63296z" fill="#41c3ff" stroke="none" stroke-width="0" stroke-linecap="butt"/><path d="M303.48904,128.23296c-0.79318,5.47934 -2.85619,9.38947 -13.66234,8.15146c-11.40783,-1.30695 -11.58323,-6.21173 -10.79005,-11.69107c0.79318,-5.47934 6.91002,-9.12889 13.66236,-8.15146c6.75234,0.97743 11.58321,6.21173 10.79005,11.69107z" fill="#ffffff" stroke="none" stroke-width="0" stroke-linecap="butt"/><path d="M318.54732,147.19231c-0.32497,0.83131 -40.37029,0.80666 -51.52506,0.4197c-5.42134,-0.18806 -16.15757,-2.17675 -15.83262,-3.00806c1.20129,-3.07304 4.007,-7.85579 9.35314,-8.77524c6.46053,-1.11111 28.42433,-3.4363 44.23024,-0.90107c6.46137,1.0364 14.97559,9.19158 13.77428,12.26466z" fill="#34a1c6" stroke="none" stroke-width="0" stroke-linecap="butt"/><path d="M285.8518,132.06457l0.69067,-3.43897l5.21624,-0.00713l-1.19755,-1.98392l-3.56752,-0.98129l-1.5605,-3.30956l2.36868,-2.54089l8.0965,-0.09677l1.26177,3.52948l-7.42388,-0.48962l3.91888,2.13275l2.70255,2.98877l-0.0854,2.6342l-2.49303,1.32508z" data-paper-data="{&quot;origRot&quot;:0}" fill="#ffe008" stroke="none" stroke-width="0" stroke-linecap="butt"/><path d="M291.50285,192.17005c-3.25358,-0.26414 -7.75771,-1.86442 -15.0971,-4.19441c-9.51628,-3.0211 -9.90789,-10.07582 -9.90789,-10.07582c0,0 -3.46064,-1.86408 -5.32816,-3.30354c-1.46177,-1.12675 1.2696,-6.46604 2.14915,-6.50585c5.12246,-0.2319 5.97162,4.37631 9.50304,6.99888c0,0 12.19896,6.07081 18.23253,6.59623c0,0 10.3139,-3.12245 13.27925,-2.49087c1.47066,0.31324 1.02997,3.42638 0.334,4.93019c0,0 -1.90816,4.02123 -4.25144,5.18793c-2.34326,1.16668 -5.6598,3.12144 -8.91336,2.85726z" fill="#e7be7a" stroke="none" stroke-width="0" stroke-linecap="butt"/><path d="M304.7061,173.05422c-1.46112,6.55971 -0.48404,11.31246 -14.85606,8.97624c-6.62396,-1.07675 -12.41035,-6.152 -11.55908,-12.03261c0.85125,-5.88061 8.30816,-12.21107 15.00442,-11.76842c9.75689,0.64499 13.74833,4.33023 11.41075,14.82479z" fill="#ffdebd" stroke="none" stroke-width="0" stroke-linecap="butt"/><g fill="none" stroke="#f6b09a" stroke-width="3.5" stroke-linecap="round"><path d="M234.05548,146.39864c0,0 3.22063,-1.30379 6.59546,2.18197c4.84008,4.99915 0.60014,11.72204 0.60014,11.72204" data-paper-data="{&quot;origPos&quot;:null}"/><path d="M235.80157,153.52114l6.0129,0.87039" data-paper-data="{&quot;origPos&quot;:null}"/><path d="M239.08291,160.135l1.28848,0.18651" data-paper-data="{&quot;origPos&quot;:null}"/></g><path d="M274.59487,144.86876c-1.43824,0.21159 -1.40114,0.4158 -2.25477,1.59252c-0.8806,1.21393 -2.58631,2.69457 -2.58631,2.69457c0,0 -0.9353,-3.84641 -0.54471,-6.54458c0.26518,-1.83202 1.72292,-4.88106 4.63939,-5.11273c9.59816,1.06106 5.45343,9.64058 5.45343,9.64058c0,0 -3.19128,-2.53199 -4.70702,-2.27034z" fill="#38291e" stroke="none" stroke-width="0" stroke-linecap="butt"/><path d="M292.29978,144.56064c-1.5326,-0.13065 -4.49485,2.66584 -4.49485,2.66584c0,0 -4.86557,-8.19227 4.60615,-10.07296c2.92557,-0.01945 4.63957,2.8933 5.06096,4.69577c0.62066,2.65472 0.01881,6.56721 0.01881,6.56721c0,0 -1.82645,-1.32885 -2.80797,-2.46274c-0.95141,-1.09912 -0.932,-1.30579 -2.38308,-1.39319z" data-paper-data="{&quot;index&quot;:null,&quot;origRot&quot;:0}" fill="#38291e" stroke="none" stroke-width="0" stroke-linecap="butt"/><g stroke="none" stroke-width="1" stroke-linecap="butt"><path d="M275.8406,162.97761c-0.6086,-1.28439 -0.9028,-2.98974 -0.7393,-4.80809c0.1635,-1.81847 0.7541,-3.41023 1.5772,-4.51089c0.8232,-1.10174 1.877,-1.71384 2.9677,-1.57395c1.0907,0.14 2.0116,1.00546 2.6202,2.29093c0.6087,1.28439 0.9029,2.98962 0.7394,4.8081c-0.1635,1.81835 -0.7542,3.41022 -1.5773,4.51077c-0.8232,1.10186 -1.877,1.71395 -2.9677,1.57395c-1.0907,-0.13988 -2.0116,-1.00534 -2.6202,-2.2908z" fill="#ffe008"/><path d="M277.5883,162.06485c-0.3983,-1.02899 -0.5794,-2.40381 -0.4467,-3.87897c0.1326,-1.47516 0.554,-2.77269 1.1261,-3.67732c0.5733,-0.9056 1.2982,-1.41806 2.039,-1.3231c0.7407,0.09508 1.358,0.77981 1.7572,1.81023c0.3983,1.02899 0.5794,2.40381 0.4468,3.87897c-0.1327,1.47516 -0.5541,2.77269 -1.1262,3.67732c-0.5733,0.9056 -1.2982,1.41806 -2.039,1.32309c-0.7407,-0.09508 -1.358,-0.77981 -1.7572,-1.81023z" fill="#000000"/></g></g></g></svg>