<svg version="1.1" xmlns="http://www.w3.org/2000/svg" xmlns:xlink="http://www.w3.org/1999/xlink" width="481.33749" height="121.9006" viewBox="0,0,481.33749,121.9006"><defs><radialGradient cx="320.89074" cy="178.95626" r="240.51374" gradientUnits="userSpaceOnUse" id="color-1"><stop offset="0" stop-color="#ba82ff" stop-opacity="0.8"/><stop offset="1" stop-color="#6a3dff" stop-opacity="0.8"/></radialGradient></defs><g transform="translate(-79.33126,-119.07954)"><g data-paper-data="{&quot;isPaintingLayer&quot;:true}" fill-rule="nonzero" stroke="#5b46b0" stroke-width="3.5" stroke-linejoin="miter" stroke-miterlimit="10" stroke-dasharray="" stroke-dashoffset="0" style="mix-blend-mode: normal"><path d="M321.71649,120.82954c65.91319,0.72754 125.44892,8.01731 168.38937,19.20566c42.93869,11.18957 69.28015,26.27769 68.8066,42.60212c-0.47353,16.32455 -27.67331,30.82158 -71.23347,41.05626c-43.56175,10.23343 -103.48224,16.20454 -169.39549,15.47688c-65.91319,-0.72754 -125.44892,-8.01731 -168.38937,-19.20566c-42.93869,-11.18957 -69.28015,-26.27769 -68.8066,-42.60212c0.47353,-16.32455 27.67331,-30.82158 71.23347,-41.05626c43.56175,-10.23343 103.48224,-16.20454 169.39549,-15.47688z" fill="url(#color-1)" stroke-linecap="butt"/><path d="M469.73374,209.05609c0,0 -61.01001,10.63056 -92.31299,12.40818c-37.08038,2.10065 -76.4928,2.39561 -114.57955,-0.99092c-33.26232,-3.02078 -66.16087,-8.84369 -97.64793,-18.06742c-15.77588,-4.62645 -33.6017,-11.90636 -37.99878,-22.34151c-3.07037,-7.41067 11.08162,-14.7978 21.43578,-19.21913c17.10242,-7.28996 38.9191,-12.38715 59.97496,-15.50546c30.66358,-4.53918 61.55688,-7.06883 92.61409,-7.47249c32.14792,-0.3982 65.90769,1.40605 98.00553,5.74026c23.08247,3.08823 51.06526,5.70118 67.48249,16.63853c7.35957,4.915 -7.62581,14.44022 -17.39934,17.89349c-23.938,8.45852 -52.32803,13.45139 -79.9901,16.38063c-29.78296,3.15133 -61.56106,3.66101 -91.99514,1.45072c-24.94268,-1.81213 -55.19715,-3.10626 -74.23111,-13.69863c-8.22364,-4.5793 9.39931,-14.50403 20.03196,-16.76851c28.62164,-6.11594 60.63098,-7.43417 91.27388,-7.21319c22.23644,0.16548 55.00884,2.43555 66.38892,8.40556c5.9204,3.1257 -20.50109,8.18965 -32.27552,10.05666c-9.92085,1.55335 -31.09324,-0.06922 -31.09324,-0.06922" fill="none" stroke-linecap="round"/></g></g></svg>