<svg version="1.1" xmlns="http://www.w3.org/2000/svg" xmlns:xlink="http://www.w3.org/1999/xlink" width="715.75985" height="476.31876" viewBox="0,0,715.75985,476.31876"><defs><linearGradient x1="569.30535" y1="-14.73662" x2="569.30535" y2="360.66796" gradientUnits="userSpaceOnUse" id="color-1"><stop offset="0" stop-color="#001d66"/><stop offset="1" stop-color="#006666"/></linearGradient><linearGradient x1="697.36707" y1="304.4167" x2="697.36707" y2="402.4167" gradientUnits="userSpaceOnUse" id="color-2"><stop offset="0" stop-color="#000000" stop-opacity="0"/><stop offset="1" stop-color="#000000"/></linearGradient><linearGradient x1="-88.65023" y1="302.62264" x2="-88.65023" y2="400.62264" gradientUnits="userSpaceOnUse" id="color-3"><stop offset="0" stop-color="#000000" stop-opacity="0"/><stop offset="1" stop-color="#000000"/></linearGradient></defs><g transform="translate(127.23807,14.73662)"><g data-paper-data="{&quot;isPaintingLayer&quot;:true}" fill-rule="nonzero" stroke-linejoin="miter" stroke-miterlimit="10" stroke-dasharray="" stroke-dashoffset="0" style="mix-blend-mode: normal"><path d="M569.30535,360.66793h-658.5427v-375.40455h658.5427z" data-paper-data="{&quot;index&quot;:null}" fill="url(#color-1)" stroke="#000000" stroke-width="0" stroke-linecap="butt"/><path d="M476.36418,14.20075l0.34823,-0.3" data-paper-data="{&quot;index&quot;:null}" fill="none" stroke="#cccccc" stroke-width="2" stroke-linecap="round"/><path d="M464.18409,84.20076l0.34823,-0.3" data-paper-data="{&quot;index&quot;:null}" fill="none" stroke="#cccccc" stroke-width="2" stroke-linecap="round"/><path d="M342.87538,33.20074l0.34823,-0.3" data-paper-data="{&quot;index&quot;:null}" fill="none" stroke="#cccccc" stroke-width="2" stroke-linecap="round"/><path d="M392.73067,18.20075l0.34823,-0.3" data-paper-data="{&quot;index&quot;:null}" fill="none" stroke="#cccccc" stroke-width="2" stroke-linecap="round"/><path d="M443.69943,37.90075l-0.34823,0.3" data-paper-data="{&quot;index&quot;:null}" fill="none" stroke="#cccccc" stroke-width="2" stroke-linecap="round"/><path d="M387.37701,68.20076l0.34823,-0.3" data-paper-data="{&quot;index&quot;:null}" fill="none" stroke="#cccccc" stroke-width="2" stroke-linecap="round"/><path d="M72.44861,53.90075l-0.34823,0.3" data-paper-data="{&quot;index&quot;:null}" fill="none" stroke="#cccccc" stroke-width="2" stroke-linecap="round"/><path d="M62.78946,15.90075l-0.34823,0.3" data-paper-data="{&quot;index&quot;:null}" fill="none" stroke="#cccccc" stroke-width="2" stroke-linecap="round"/><path d="M9.73374,41.20073l0.34823,-0.3" data-paper-data="{&quot;index&quot;:null}" fill="none" stroke="#cccccc" stroke-width="2" stroke-linecap="round"/><path d="M30.01124,71.90076l-0.34823,0.3" data-paper-data="{&quot;index&quot;:null}" fill="none" stroke="#cccccc" stroke-width="2" stroke-linecap="round"/><path d="M155.23861,16.20076l0.34823,-0.3" data-paper-data="{&quot;index&quot;:null}" fill="none" stroke="#cccccc" stroke-width="2" stroke-linecap="round"/><path d="M106.42606,31.90076l-0.34823,0.3" data-paper-data="{&quot;index&quot;:null}" fill="none" stroke="#cccccc" stroke-width="2" stroke-linecap="round"/><path d="M133.3039,76.90074l-0.34823,0.3" data-paper-data="{&quot;index&quot;:null}" fill="none" stroke="#cccccc" stroke-width="2" stroke-linecap="round"/><path d="M347.95567,82.20075l0.34823,-0.3" data-paper-data="{&quot;index&quot;:null}" fill="none" stroke="#cccccc" stroke-width="2" stroke-linecap="round"/><path d="M584.34045,363.38227l-681.13078,1.49689c0,-20.15415 0,-40.3083 0,-60.46246h677.49704c0.26721,6.68646 3.63375,58.96557 3.63375,58.96557z" data-paper-data="{&quot;index&quot;:null}" fill="url(#color-2)" stroke="none" stroke-width="1.22826" stroke-linecap="butt"/><path d="M521.53931,35.6041l0.34823,-0.3" data-paper-data="{&quot;index&quot;:null}" fill="none" stroke="#cccccc" stroke-width="2" stroke-linecap="round"/><path d="M521.53932,71.95724l0.34823,-0.3" data-paper-data="{&quot;index&quot;:null}" fill="none" stroke="#cccccc" stroke-width="2" stroke-linecap="round"/><path d="M-51.94919,40.03518l-0.34823,0.3" data-paper-data="{&quot;index&quot;:null}" fill="none" stroke="#cccccc" stroke-width="2" stroke-linecap="round"/><path d="M-25.46534,87.07494l0.34823,-0.3" data-paper-data="{&quot;index&quot;:null}" fill="none" stroke="#cccccc" stroke-width="2" stroke-linecap="round"/><path d="M54.05077,8.91824l-0.3,-0.3" fill="none" stroke="#cccccc" stroke-width="2" stroke-linecap="round"/><path d="M80.05076,65.91825l-0.3,-0.3" fill="none" stroke="#cccccc" stroke-width="2" stroke-linecap="round"/><path d="M292.05077,53.91825l-0.3,-0.3" fill="none" stroke="#cccccc" stroke-width="2" stroke-linecap="round"/><path d="M169.05077,27.91824l-0.3,-0.3" fill="none" stroke="#cccccc" stroke-width="2" stroke-linecap="round"/><path d="M200.75077,81.61825l0.3,0.3" fill="none" stroke="#cccccc" stroke-width="2" stroke-linecap="round"/><path d="M265.05077,23.91824l-0.3,-0.3" fill="none" stroke="#cccccc" stroke-width="2" stroke-linecap="round"/><path d="M455.75077,35.61824l0.3,0.3" fill="none" stroke="#cccccc" stroke-width="2" stroke-linecap="round"/><path d="M444.05077,100.91825l-0.3,-0.3" fill="none" stroke="#cccccc" stroke-width="2" stroke-linecap="round"/><path d="M425.05077,141.91824l-0.3,-0.3" fill="none" stroke="#cccccc" stroke-width="2" stroke-linecap="round"/><path d="M372.05077,126.91824l-0.3,-0.3" fill="none" stroke="#cccccc" stroke-width="2" stroke-linecap="round"/><path d="M372.05077,47.91825l-0.3,-0.3" fill="none" stroke="#cccccc" stroke-width="2" stroke-linecap="round"/><path d="M163.75076,302.61826l0.3,0.3" fill="none" stroke="#cccccc" stroke-width="2" stroke-linecap="round"/><path d="M233.75077,267.61826l0.3,0.3" fill="none" stroke="#cccccc" stroke-width="2" stroke-linecap="round"/><path d="M310.05077,306.91826l-0.3,-0.3" fill="none" stroke="#cccccc" stroke-width="2" stroke-linecap="round"/><path d="M386.05077,285.91825l-0.3,-0.3" fill="none" stroke="#cccccc" stroke-width="2" stroke-linecap="round"/><path d="M451.75077,293.61825l0.3,0.3" fill="none" stroke="#cccccc" stroke-width="2" stroke-linecap="round"/><path d="M360.11268,162.58055l-0.3,-0.3" fill="none" stroke="#cccccc" stroke-width="2" stroke-linecap="round"/><path d="M305.05077,155.91825l-0.3,-0.3" fill="none" stroke="#cccccc" stroke-width="2" stroke-linecap="round"/><path d="M278.05077,114.91826l-0.3,-0.3" fill="none" stroke="#cccccc" stroke-width="2" stroke-linecap="round"/><path d="M222.05077,124.91824l-0.3,-0.3" fill="none" stroke="#cccccc" stroke-width="2" stroke-linecap="round"/><path d="M157.52751,140.34245l0.3,0.3" fill="none" stroke="#cccccc" stroke-width="2" stroke-linecap="round"/><path d="M141.05075,97.91825l-0.3,-0.3" fill="none" stroke="#cccccc" stroke-width="2" stroke-linecap="round"/><path d="M372.75077,86.61825l0.3,0.3" fill="none" stroke="#cccccc" stroke-width="2" stroke-linecap="round"/><path d="M324.05077,117.91826l-0.3,-0.3" fill="none" stroke="#cccccc" stroke-width="2" stroke-linecap="round"/><path d="M168.05075,256.91826l-0.3,-0.3" fill="none" stroke="#cccccc" stroke-width="2" stroke-linecap="round"/><path d="M377.05077,244.91826l-0.3,-0.3" fill="none" stroke="#cccccc" stroke-width="2" stroke-linecap="round"/><g stroke="none" stroke-width="1" stroke-linecap="butt"><path d="M206.90142,28.07997c6.62602,0 12.63038,1.88129 16.97823,4.92054c4.34786,3.03926 7.03921,7.23648 7.03921,11.86835c0,4.63187 -2.69135,8.82909 -7.03921,11.86835c-4.34786,3.03926 -10.35222,4.92054 -16.97823,4.92054c-6.62602,0 -12.63038,-1.88129 -16.97823,-4.92054c-4.34786,-3.03926 -7.03921,-7.23648 -7.03921,-11.86835c0,-4.63187 2.69135,-8.82909 7.03921,-11.86835c4.34786,-3.03926 10.35222,-4.92054 16.97823,-4.92054z" fill="#718399"/><path d="M236.74834,20.61824c6.62602,0 12.63038,1.88129 16.97823,4.92054c4.34786,3.03926 7.03921,7.23648 7.03921,11.86835c0,4.63187 -2.69135,8.82909 -7.03921,11.86835c-4.34786,3.03926 -10.35222,4.92054 -16.97823,4.92054c-6.62602,0 -12.63038,-1.88129 -16.97823,-4.92054c-4.34786,-3.03926 -7.03921,-7.23648 -7.03921,-11.86835c0,-4.63187 2.69135,-8.82909 7.03921,-11.86835c4.34786,-3.03926 10.35222,-4.92054 16.97823,-4.92054z" fill="#718399"/><path d="M212.26454,35.30852c0.57922,0 1.10387,0.50973 1.48349,1.33285c0.38008,0.82312 0.61513,1.95964 0.61513,3.21414c0,1.2545 -0.23504,2.39102 -0.61513,3.21414c-0.37962,0.82312 -0.90427,1.33285 -1.48349,1.33285c-0.57922,0 -1.10387,-0.50973 -1.48349,-1.33285c-0.38008,-0.82312 -0.61513,-1.95964 -0.61513,-3.21414c0,-1.2545 0.23504,-2.39102 0.61513,-3.21414c0.37962,-0.82312 0.90427,-1.33285 1.48349,-1.33285z" fill="#000000"/><path d="M222.05806,35.07535c0.57922,0 1.10387,0.50973 1.48349,1.33285c0.38008,0.82312 0.61513,1.95964 0.61513,3.21414c0,1.2545 -0.23504,2.39102 -0.61513,3.21414c-0.37962,0.82312 -0.90427,1.33285 -1.48349,1.33285c-0.57922,0 -1.10387,-0.50973 -1.48349,-1.33285c-0.38008,-0.82312 -0.61513,-1.95964 -0.61513,-3.21414c0,-1.2545 0.23504,-2.39102 0.61513,-3.21414c0.37962,-0.82312 0.90427,-1.33285 1.48349,-1.33285z" fill="#000000"/></g><g stroke="none" stroke-width="1" stroke-linecap="butt"><path d="M452.36594,91.20106c4.45319,3.11289 7.20975,7.4118 7.20975,12.15588c0,4.74408 -2.75656,9.04299 -7.20975,12.15588c-4.45319,3.11289 -10.60302,5.03975 -17.38956,5.03975c-6.78654,0 -12.93637,-1.92687 -17.38956,-5.03975c-4.45319,-3.11289 -7.20975,-7.4118 -7.20975,-12.15588c0,-4.74408 2.75656,-9.04299 7.20975,-12.15588c4.45319,-3.11289 10.60302,-5.03975 17.38956,-5.03975c6.78654,0 12.93637,1.92687 17.38956,5.03975z" data-paper-data="{&quot;origPos&quot;:null}" fill="#718399"/><path d="M421.79593,83.55856c4.45319,3.11289 7.20975,7.4118 7.20975,12.15588c0,4.74408 -2.75656,9.04299 -7.20975,12.15588c-4.45319,3.11289 -10.60302,5.03975 -17.38956,5.03975c-6.78654,0 -12.93637,-1.92687 -17.38956,-5.03975c-4.45319,-3.11289 -7.20975,-7.4118 -7.20975,-12.15588c0,-4.74408 2.75656,-9.04299 7.20975,-12.15588c4.45319,-3.11289 10.60302,-5.03975 17.38956,-5.03975c6.78654,0 12.93637,1.92687 17.38956,5.03975z" data-paper-data="{&quot;origPos&quot;:null}" fill="#718399"/><path d="M415.24009,98.27373c0.38929,0.84306 0.63003,2.00711 0.63003,3.29201c0,1.2849 -0.24074,2.44894 -0.63003,3.29201c-0.38881,0.84306 -0.92618,1.36514 -1.51943,1.36514c-0.59325,0 -1.13061,-0.52208 -1.51943,-1.36514c-0.38929,-0.84306 -0.63003,-2.00711 -0.63003,-3.29201c0,-1.2849 0.24074,-2.44894 0.63003,-3.29201c0.38881,-0.84306 0.92618,-1.36514 1.51943,-1.36514c0.59325,0 1.13061,0.52208 1.51943,1.36514z" data-paper-data="{&quot;origPos&quot;:null}" fill="#000000"/><path d="M405.2093,98.0349c0.38929,0.84306 0.63003,2.00711 0.63003,3.29201c0,1.2849 -0.24074,2.44894 -0.63003,3.29201c-0.38881,0.84306 -0.92618,1.36514 -1.51943,1.36514c-0.59325,0 -1.13061,-0.52208 -1.51943,-1.36514c-0.38929,-0.84306 -0.63003,-2.00711 -0.63003,-3.29201c0,-1.2849 0.24074,-2.44894 0.63003,-3.29201c0.38881,-0.84306 0.92618,-1.36514 1.51943,-1.36514c0.59325,0 1.13061,0.52208 1.51943,1.36514z" data-paper-data="{&quot;origPos&quot;:null}" fill="#000000"/></g><path d="M-4.12393,302.62264h490.88069c0,20.15416 0,40.30831 0,60.46246l-493.51352,-1.49689c0,0 2.43922,-52.27911 2.63283,-58.96557z" fill="url(#color-3)" stroke="none" stroke-width="1.22826" stroke-linecap="butt"/><g stroke="none" stroke-linecap="butt"><path d="M36.42231,173.82011c4.80267,0 9.15461,1.78468 12.30584,4.66763c3.15132,2.88312 5.10193,6.86469 5.10193,11.25863c0,4.39397 -1.95061,8.37553 -5.10193,11.25865c-3.15123,2.88295 -7.50317,4.6676 -12.30584,4.6676c-4.80269,0 -9.15464,-1.78465 -12.30584,-4.6676c-3.15132,-2.88312 -5.10193,-6.86469 -5.10193,-11.25865c0,-4.39394 1.95061,-8.37551 5.10193,-11.25863c3.1512,-2.88295 7.50314,-4.66763 12.30584,-4.66763z" fill="#4c7349" stroke-width="0.55092"/><path d="M19.02584,190.38361h34.81554v48.64299h-34.81554z" fill="#4c7349" stroke-width="1.16723"/><path d="M32.10156,185.7162c0.45184,0 0.93175,-0.02079 1.22788,0.85821c0.2965,0.879 0.47985,2.09266 0.47985,3.43233c0,1.33966 -0.18335,2.55333 -0.47985,3.43233c-0.29613,0.879 -0.70541,0.92885 -1.15725,0.92885c-0.45184,0 -0.86111,-0.04985 -1.15724,-0.92885c-0.2965,-0.879 -0.47985,-2.09266 -0.47985,-3.43233c0,-1.33966 0.18335,-2.55333 0.47985,-3.43233c0.29613,-0.879 0.63477,-0.85821 1.0866,-0.85821z" fill="#000000" stroke-width="1"/><path d="M40.64907,185.64556c0.45184,0 0.93176,-0.02079 1.22789,0.85821c0.2965,0.879 0.47985,2.09266 0.47985,3.43233c0,1.33966 -0.18335,2.55333 -0.47985,3.43233c-0.29613,0.879 -0.70541,0.92884 -1.15725,0.92884c-0.45184,0 -0.86111,-0.04985 -1.15724,-0.92884c-0.2965,-0.879 -0.47985,-2.09266 -0.47985,-3.43233c0,-1.33966 0.18335,-2.55333 0.47985,-3.43233c0.29613,-0.879 0.63477,-0.85821 1.0866,-0.85821z" fill="#000000" stroke-width="1"/></g><g stroke="none" stroke-linecap="butt"><path d="M165.87822,177.57245c4.80267,0 9.15461,1.78468 12.30584,4.66763c3.15132,2.88312 5.10194,6.86469 5.10194,11.25863c0,4.39397 -1.95061,8.37553 -5.10194,11.25865c-3.15123,2.88295 -7.50317,4.6676 -12.30584,4.6676c-4.8027,0 -9.15464,-1.78465 -12.30584,-4.6676c-3.15133,-2.88312 -5.10193,-6.86468 -5.10193,-11.25865c0,-4.39395 1.95061,-8.37551 5.10193,-11.25863c3.1512,-2.88295 7.50314,-4.66763 12.30584,-4.66763z" fill="#4c7349" stroke-width="0.55092"/><path d="M148.48175,194.13596h34.81554v48.64299h-34.81554z" fill="#4c7349" stroke-width="1.16723"/><path d="M161.55747,189.46855c0.45184,0 0.93175,-0.02079 1.22788,0.8582c0.29649,0.879 0.47985,2.09266 0.47985,3.43232c0,1.33967 -0.18335,2.55333 -0.47985,3.43233c-0.29613,0.879 -0.7054,0.92884 -1.15724,0.92884c-0.45184,0 -0.86111,-0.04984 -1.15724,-0.92884c-0.29649,-0.879 -0.47986,-2.09267 -0.47986,-3.43233c0,-1.33966 0.18336,-2.55333 0.47986,-3.43232c0.29613,-0.879 0.63476,-0.8582 1.0866,-0.8582z" fill="#000000" stroke-width="1"/><path d="M170.10498,189.39791c0.45184,0 0.93176,-0.02079 1.22789,0.85821c0.29649,0.879 0.47985,2.09267 0.47985,3.43233c0,1.33967 -0.18335,2.55332 -0.47985,3.43232c-0.29613,0.879 -0.70541,0.92884 -1.15725,0.92884c-0.45184,0 -0.86111,-0.04984 -1.15724,-0.92884c-0.29649,-0.879 -0.47985,-2.09266 -0.47985,-3.43232c0,-1.33966 0.18336,-2.55333 0.47985,-3.43233c0.29613,-0.879 0.63477,-0.85821 1.0866,-0.85821z" fill="#000000" stroke-width="1"/></g><g stroke="none" stroke-width="1" stroke-linecap="butt"><path d="M50.83721,63.62103c6.53169,0 12.45058,1.85451 16.73655,4.8505c4.28596,2.99599 6.93901,7.13347 6.93901,11.6994c0,4.56593 -2.65304,8.70341 -6.93901,11.6994c-4.28596,2.99599 -10.20485,4.8505 -16.73655,4.8505c-6.53169,0 -12.45059,-1.85451 -16.73655,-4.8505c-4.28596,-2.99599 -6.93901,-7.13347 -6.93901,-11.6994c0,-4.56593 2.65304,-8.70341 6.93901,-11.6994c4.28596,-2.99599 10.20486,-4.8505 16.73655,-4.8505z" fill="#718399"/><path d="M80.25925,56.26552c6.53169,0 12.45059,1.85451 16.73655,4.8505c4.28596,2.99599 6.93901,7.13347 6.93901,11.6994c0,4.56593 -2.65304,8.70341 -6.93901,11.6994c-4.28596,2.99599 -10.20486,4.8505 -16.73655,4.8505c-6.53169,0 -12.45058,-1.85451 -16.73655,-4.8505c-4.28596,-2.99599 -6.93901,-7.13347 -6.93901,-11.6994c0,-4.56593 2.65304,-8.70341 6.93901,-11.6994c4.28596,-2.99599 10.20485,-4.8505 16.73655,-4.8505z" fill="#718399"/><path d="M56.12398,70.74669c0.57097,0 1.08816,0.50247 1.46237,1.31388c0.37467,0.8114 0.60637,1.93175 0.60637,3.16839c0,1.23665 -0.2317,2.35698 -0.60637,3.16839c-0.37421,0.8114 -0.8914,1.31388 -1.46237,1.31388c-0.57097,0 -1.08816,-0.50247 -1.46237,-1.31388c-0.37467,-0.8114 -0.60637,-1.93174 -0.60637,-3.16839c0,-1.23665 0.2317,-2.35699 0.60637,-3.16839c0.37421,-0.8114 0.8914,-1.31388 1.46237,-1.31388z" fill="#000000"/><path d="M65.77809,70.51683c0.57097,0 1.08816,0.50247 1.46237,1.31388c0.37467,0.8114 0.60637,1.93175 0.60637,3.16839c0,1.23665 -0.2317,2.35698 -0.60637,3.16839c-0.37421,0.8114 -0.8914,1.31388 -1.46237,1.31388c-0.57097,0 -1.08816,-0.50247 -1.46237,-1.31388c-0.37467,-0.8114 -0.60637,-1.93174 -0.60637,-3.16839c0,-1.23665 0.2317,-2.35699 0.60637,-3.16839c0.37421,-0.8114 0.8914,-1.31388 1.46237,-1.31388z" fill="#000000"/></g><g stroke="none" stroke-width="1" stroke-linecap="butt"><path d="M377.84375,24.66982c3.1612,2.20975 5.11801,5.26143 5.11801,8.62913c0,3.3677 -1.95681,6.41938 -5.11801,8.62913c-3.1612,2.20975 -7.5268,3.57759 -12.34438,3.57759c-4.81759,0 -9.18318,-1.36783 -12.34438,-3.57759c-3.1612,-2.20975 -5.11801,-5.26143 -5.11801,-8.62913c0,-3.3677 1.95681,-6.41938 5.11801,-8.62913c3.1612,-2.20975 7.5268,-3.57759 12.34438,-3.57759c4.81759,0 9.18318,1.36783 12.34438,3.57759z" data-paper-data="{&quot;origPos&quot;:null}" fill="#718399"/><path d="M356.14291,19.24461c3.1612,2.20975 5.11801,5.26143 5.11801,8.62913c0,3.3677 -1.95681,6.41938 -5.11801,8.62913c-3.1612,2.20975 -7.5268,3.57759 -12.34438,3.57759c-4.81759,0 -9.18319,-1.36783 -12.34439,-3.57759c-3.1612,-2.20975 -5.118,-5.26143 -5.118,-8.62913c0,-3.3677 1.9568,-6.41938 5.118,-8.62913c3.1612,-2.20975 7.5268,-3.57758 12.34439,-3.57758c4.81759,0 9.18318,1.36783 12.34438,3.57758z" data-paper-data="{&quot;origPos&quot;:null}" fill="#718399"/><path d="M351.4891,29.69052c0.27635,0.59847 0.44724,1.4248 0.44724,2.33691c0,0.91211 -0.17089,1.73844 -0.44724,2.33691c-0.27601,0.59847 -0.65747,0.96908 -1.0786,0.96908c-0.42113,0 -0.80259,-0.37061 -1.0786,-0.96908c-0.27635,-0.59847 -0.44724,-1.42479 -0.44724,-2.33691c0,-0.91211 0.17089,-1.73844 0.44724,-2.33691c0.27601,-0.59847 0.65747,-0.96908 1.0786,-0.96908c0.42113,0 0.80259,0.37061 1.0786,0.96908z" data-paper-data="{&quot;origPos&quot;:null}" fill="#000000"/><path d="M344.36851,29.52098c0.27635,0.59847 0.44724,1.4248 0.44724,2.33691c0,0.91211 -0.17089,1.73844 -0.44724,2.33691c-0.27601,0.59847 -0.65747,0.96908 -1.0786,0.96908c-0.42113,0 -0.80259,-0.37061 -1.0786,-0.96908c-0.27635,-0.59847 -0.44724,-1.4248 -0.44724,-2.33691c0,-0.91211 0.17089,-1.73844 0.44724,-2.33691c0.27601,-0.59847 0.65747,-0.96908 1.0786,-0.96908c0.42113,0 0.80259,0.37061 1.0786,0.96908z" data-paper-data="{&quot;origPos&quot;:null}" fill="#000000"/></g><g stroke="none" stroke-linecap="butt"><path d="M239.98704,194.458c4.80267,0 9.15461,1.78468 12.30583,4.66763c3.15133,2.88312 5.10194,6.86469 5.10194,11.25863c0,4.39397 -1.95061,8.37554 -5.10194,11.25865c-3.15122,2.88295 -7.50316,4.6676 -12.30583,4.6676c-4.80269,0 -9.15464,-1.78465 -12.30584,-4.6676c-3.15132,-2.88312 -5.10193,-6.86469 -5.10193,-11.25865c0,-4.39395 1.95061,-8.37551 5.10193,-11.25863c3.1512,-2.88295 7.50315,-4.66763 12.30584,-4.66763z" fill="#4c7349" stroke-width="0.55092"/><path d="M222.59058,211.02151h34.81554v48.64299h-34.81554z" fill="#4c7349" stroke-width="1.16723"/><path d="M235.66629,206.3541c0.45184,0 0.93175,-0.02079 1.22789,0.8582c0.29649,0.879 0.47985,2.09266 0.47985,3.43232c0,1.33966 -0.18335,2.55333 -0.47985,3.43233c-0.29613,0.879 -0.70541,0.92884 -1.15725,0.92884c-0.45184,0 -0.86111,-0.04985 -1.15724,-0.92884c-0.29649,-0.879 -0.47985,-2.09267 -0.47985,-3.43233c0,-1.33966 0.18336,-2.55333 0.47985,-3.43232c0.29613,-0.879 0.63477,-0.8582 1.0866,-0.8582z" fill="#000000" stroke-width="1"/><path d="M244.2138,206.28346c0.45184,0 0.93176,-0.0208 1.22789,0.8582c0.29649,0.879 0.47985,2.09267 0.47985,3.43233c0,1.33967 -0.18335,2.55333 -0.47985,3.43233c-0.29613,0.879 -0.70541,0.92884 -1.15725,0.92884c-0.45184,0 -0.86111,-0.04985 -1.15724,-0.92884c-0.2965,-0.879 -0.47986,-2.09266 -0.47986,-3.43233c0,-1.33966 0.18336,-2.55333 0.47986,-3.43233c0.29613,-0.879 0.63477,-0.8582 1.0866,-0.8582z" fill="#000000" stroke-width="1"/></g><g stroke="none" stroke-linecap="butt"><path d="M405.09023,185.07715c4.80267,0 9.15461,1.78468 12.30584,4.66763c3.15132,2.88312 5.10194,6.86469 5.10194,11.25863c0,4.39397 -1.95061,8.37553 -5.10194,11.25865c-3.15123,2.88295 -7.50316,4.6676 -12.30584,4.6676c-4.80269,0 -9.15464,-1.78465 -12.30584,-4.6676c-3.15132,-2.88312 -5.10193,-6.86468 -5.10193,-11.25865c0,-4.39395 1.95061,-8.37551 5.10193,-11.25863c3.1512,-2.88295 7.50315,-4.66763 12.30584,-4.66763z" fill="#4c7349" stroke-width="0.55092"/><path d="M387.69376,201.64065h34.81554v48.64299h-34.81554z" fill="#4c7349" stroke-width="1.16723"/><path d="M400.76948,196.97325c0.45184,0 0.93175,-0.02079 1.22789,0.85821c0.29649,0.879 0.47985,2.09266 0.47985,3.43232c0,1.33966 -0.18335,2.55333 -0.47985,3.43233c-0.29613,0.879 -0.70541,0.92884 -1.15724,0.92884c-0.45184,0 -0.86112,-0.04985 -1.15725,-0.92884c-0.29649,-0.879 -0.47985,-2.09267 -0.47985,-3.43233c0,-1.33966 0.18336,-2.55333 0.47985,-3.43232c0.29613,-0.879 0.63477,-0.85821 1.0866,-0.85821z" fill="#000000" stroke-width="1"/><path d="M409.31699,196.9026c0.45184,0 0.93176,-0.02079 1.22789,0.8582c0.2965,0.879 0.47985,2.09267 0.47985,3.43233c0,1.33966 -0.18335,2.55333 -0.47985,3.43232c-0.29613,0.879 -0.70541,0.92884 -1.15725,0.92884c-0.45184,0 -0.86111,-0.04985 -1.15724,-0.92884c-0.2965,-0.879 -0.47986,-2.09266 -0.47986,-3.43232c0,-1.33966 0.18336,-2.55333 0.47986,-3.43233c0.29613,-0.879 0.63477,-0.8582 1.0866,-0.8582z" fill="#000000" stroke-width="1"/></g><g stroke="none" stroke-linecap="butt"><path d="M513.90824,230.10529c4.80267,0 9.15461,1.78468 12.30584,4.66763c3.15133,2.88312 5.10193,6.86468 5.10193,11.25863c0,4.39397 -1.95061,8.37554 -5.10193,11.25865c-3.15123,2.88295 -7.50317,4.6676 -12.30584,4.6676c-4.8027,0 -9.15464,-1.78465 -12.30584,-4.6676c-3.15132,-2.88312 -5.10193,-6.86468 -5.10193,-11.25865c0,-4.39395 1.9506,-8.37551 5.10193,-11.25863c3.1512,-2.88295 7.50314,-4.66763 12.30584,-4.66763z" fill="#4c7349" stroke-width="0.55092"/><path d="M496.51177,246.66879h34.81554v48.64299h-34.81554z" fill="#4c7349" stroke-width="1.16723"/><path d="M509.58749,242.00139c0.45184,0 0.93176,-0.02079 1.22789,0.8582c0.29649,0.879 0.47985,2.09266 0.47985,3.43233c0,1.33966 -0.18335,2.55333 -0.47985,3.43233c-0.29613,0.879 -0.7054,0.92885 -1.15724,0.92885c-0.45184,0 -0.86112,-0.04985 -1.15725,-0.92885c-0.29649,-0.879 -0.47985,-2.09266 -0.47985,-3.43233c0,-1.33966 0.18336,-2.55333 0.47985,-3.43233c0.29613,-0.879 0.63477,-0.8582 1.0866,-0.8582z" fill="#000000" stroke-width="1"/><path d="M518.135,241.93074c0.45184,0 0.93176,-0.02079 1.22789,0.8582c0.29649,0.879 0.47985,2.09267 0.47985,3.43233c0,1.33966 -0.18335,2.55333 -0.47985,3.43232c-0.29613,0.879 -0.70541,0.92884 -1.15725,0.92884c-0.45184,0 -0.86111,-0.04985 -1.15724,-0.92884c-0.2965,-0.879 -0.47986,-2.09266 -0.47986,-3.43232c0,-1.33966 0.18335,-2.55333 0.47986,-3.43233c0.29613,-0.879 0.63476,-0.8582 1.0866,-0.8582z" fill="#000000" stroke-width="1"/></g><g fill="#537f50" stroke="none" stroke-width="0" stroke-linecap="butt"><path d="M-11.85346,299.76225c0,-53.62239 43.46954,-97.09193 97.09193,-97.09193c53.62239,0 97.09193,43.46954 97.09193,97.09193c0,53.62239 -43.46954,97.09193 -97.09193,97.09193c-53.62239,0 -97.09193,-43.46954 -97.09193,-97.09193z"/><path d="M-127.23807,332.59527c0,-53.62239 43.46953,-97.09194 97.09193,-97.09194c53.62239,0 97.09193,43.46954 97.09193,97.09194c0,53.62239 -43.46954,97.09193 -97.09193,97.09193c-53.62239,0 -97.09193,-43.46954 -97.09193,-97.09193z"/><path d="M86.64561,306.32885c0,-53.62239 43.46954,-97.09193 97.09193,-97.09193c53.62239,0 97.09193,43.46954 97.09193,97.09194c0,53.62239 -43.46954,97.09193 -97.09193,97.09193c-53.6224,0 -97.09193,-43.46954 -97.09193,-97.09193z"/><path d="M167.32103,364.49021c0,-53.62239 43.46954,-97.09194 97.09193,-97.09194c53.6224,0 97.09193,43.46954 97.09193,97.09194c0,53.62239 -43.46954,97.09193 -97.09193,97.09193c-53.62239,0 -97.09193,-43.46954 -97.09193,-97.09193z"/><path d="M280.82947,308.20503c0,-53.62239 43.46954,-97.09193 97.09193,-97.09193c53.6224,0 97.09193,43.46954 97.09193,97.09193c0,53.62239 -43.46954,97.09193 -97.09193,97.09193c-53.62239,0 -97.09193,-43.46954 -97.09193,-97.09193z"/><path d="M394.33791,352.29508c0,-53.62239 43.46954,-97.09194 97.09193,-97.09194c53.62239,0 97.09194,43.46954 97.09194,97.09194c0,53.62239 -43.46954,97.09193 -97.09194,97.09193c-53.62239,0 -97.09193,-43.46954 -97.09193,-97.09193z"/></g><g stroke="none" stroke-linecap="butt"><path d="M-53.63398,205.71504c4.80267,0 9.15461,1.78468 12.30583,4.66763c3.15133,2.88312 5.10194,6.86469 5.10194,11.25863c0,4.39397 -1.95061,8.37554 -5.10194,11.25866c-3.15122,2.88295 -7.50316,4.6676 -12.30583,4.6676c-4.80269,0 -9.15464,-1.78465 -12.30584,-4.6676c-3.15132,-2.88312 -5.10193,-6.86469 -5.10193,-11.25866c0,-4.39395 1.9506,-8.37551 5.10193,-11.25863c3.1512,-2.88295 7.50315,-4.66763 12.30584,-4.66763z" fill="#4c7349" stroke-width="0.55092"/><path d="M-71.03044,222.27854h34.81554v48.64299h-34.81554z" fill="#4c7349" stroke-width="1.16723"/><path d="M-57.95473,217.61114c0.45184,0 0.93175,-0.02079 1.22789,0.8582c0.29649,0.879 0.47985,2.09266 0.47985,3.43232c0,1.33966 -0.18335,2.55333 -0.47985,3.43233c-0.29613,0.879 -0.70541,0.92884 -1.15725,0.92884c-0.45184,0 -0.86111,-0.04985 -1.15725,-0.92884c-0.29649,-0.879 -0.47986,-2.09267 -0.47986,-3.43233c0,-1.33966 0.18336,-2.55333 0.47986,-3.43232c0.29613,-0.879 0.63477,-0.8582 1.0866,-0.8582z" fill="#000000" stroke-width="1"/><path d="M-49.40722,217.54049c0.45184,0 0.93176,-0.02079 1.22789,0.8582c0.2965,0.879 0.47985,2.09267 0.47985,3.43233c0,1.33966 -0.18335,2.55333 -0.47985,3.43232c-0.29613,0.879 -0.70541,0.92885 -1.15725,0.92885c-0.45184,0 -0.86111,-0.04985 -1.15724,-0.92885c-0.2965,-0.879 -0.47986,-2.09266 -0.47986,-3.43232c0,-1.33966 0.18335,-2.55333 0.47986,-3.43233c0.29613,-0.879 0.63477,-0.8582 1.0866,-0.8582z" fill="#000000" stroke-width="1"/></g><g stroke="none" stroke-linecap="butt"><path d="M95.52175,240.42423c4.80267,0 9.15461,1.78468 12.30584,4.66763c3.15132,2.88312 5.10193,6.86469 5.10193,11.25863c0,4.39397 -1.95061,8.37554 -5.10193,11.25865c-3.15123,2.88295 -7.50316,4.6676 -12.30584,4.6676c-4.80269,0 -9.15464,-1.78465 -12.30584,-4.6676c-3.15133,-2.88312 -5.10193,-6.86469 -5.10193,-11.25865c0,-4.39395 1.9506,-8.37551 5.10193,-11.25863c3.1512,-2.88295 7.50314,-4.66763 12.30584,-4.66763z" fill="#4c7349" stroke-width="0.55092"/><path d="M78.12528,256.98774h34.81554v48.64299h-34.81554z" fill="#4c7349" stroke-width="1.16723"/><path d="M91.201,252.32033c0.45184,0 0.93176,-0.0208 1.22788,0.8582c0.2965,0.879 0.47985,2.09266 0.47985,3.43232c0,1.33967 -0.18335,2.55333 -0.47985,3.43233c-0.29613,0.879 -0.7054,0.92884 -1.15724,0.92884c-0.45184,0 -0.86112,-0.04985 -1.15724,-0.92884c-0.2965,-0.879 -0.47986,-2.09267 -0.47986,-3.43233c0,-1.33966 0.18336,-2.55333 0.47986,-3.43232c0.29613,-0.879 0.63476,-0.8582 1.0866,-0.8582z" fill="#000000" stroke-width="1"/><path d="M99.74851,252.24969c0.45184,0 0.93176,-0.0208 1.22789,0.8582c0.2965,0.879 0.47985,2.09267 0.47985,3.43233c0,1.33967 -0.18335,2.55333 -0.47985,3.43233c-0.29613,0.879 -0.70541,0.92885 -1.15725,0.92885c-0.45184,0 -0.86111,-0.04985 -1.15724,-0.92885c-0.2965,-0.879 -0.47986,-2.09266 -0.47986,-3.43233c0,-1.33966 0.18336,-2.55333 0.47986,-3.43233c0.29613,-0.879 0.63476,-0.8582 1.0866,-0.8582z" fill="#000000" stroke-width="1"/></g></g></g></svg>