<svg version="1.1" xmlns="http://www.w3.org/2000/svg" xmlns:xlink="http://www.w3.org/1999/xlink" width="692.04205" height="411" viewBox="0,0,692.04205,411"><defs><linearGradient x1="162.8431" y1="327.27755" x2="162.8431" y2="379.8301" gradientUnits="userSpaceOnUse" id="color-1"><stop offset="0" stop-color="#af9141"/><stop offset="1" stop-color="#ddb747"/></linearGradient><linearGradient x1="539.46472" y1="329.27455" x2="539.46472" y2="381.8271" gradientUnits="userSpaceOnUse" id="color-2"><stop offset="0" stop-color="#af9141"/><stop offset="1" stop-color="#ddb747"/></linearGradient><linearGradient x1="375.0937" y1="51.49676" x2="375.0937" y2="72.51778" gradientUnits="userSpaceOnUse" id="color-3"><stop offset="0" stop-color="#af9141"/><stop offset="1" stop-color="#ddb747"/></linearGradient><linearGradient x1="206.41112" y1="270.22048" x2="206.41112" y2="286.737" gradientUnits="userSpaceOnUse" id="color-4"><stop offset="0" stop-color="#af9141"/><stop offset="1" stop-color="#ddb747"/></linearGradient><linearGradient x1="294.82333" y1="232.68295" x2="294.82333" y2="247.69796" gradientUnits="userSpaceOnUse" id="color-5"><stop offset="0" stop-color="#af9141"/><stop offset="1" stop-color="#ddb747"/></linearGradient><linearGradient x1="373.99845" y1="178.62889" x2="373.99845" y2="195.14541" gradientUnits="userSpaceOnUse" id="color-6"><stop offset="0" stop-color="#af9141"/><stop offset="1" stop-color="#ddb747"/></linearGradient><linearGradient x1="261.1739" y1="123.07334" x2="261.1739" y2="144.09436" gradientUnits="userSpaceOnUse" id="color-7"><stop offset="0" stop-color="#af9141"/><stop offset="1" stop-color="#ddb747"/></linearGradient><linearGradient x1="88.49475" y1="-20.8696" x2="88.49475" y2="388.1304" gradientUnits="userSpaceOnUse" id="color-8"><stop offset="0" stop-color="#af9141"/><stop offset="1" stop-color="#ddb747"/></linearGradient><linearGradient x1="563.49475" y1="-11.8696" x2="563.49475" y2="383.1304" gradientUnits="userSpaceOnUse" id="color-9"><stop offset="0" stop-color="#af9141"/><stop offset="1" stop-color="#ddb747"/></linearGradient></defs><g transform="translate(17.25901,21.8696)"><g data-paper-data="{&quot;isPaintingLayer&quot;:true}" fill-rule="nonzero" stroke="#91773e" stroke-width="2" stroke-linejoin="miter" stroke-miterlimit="10" stroke-dasharray="" stroke-dashoffset="0" style="mix-blend-mode: normal"><path d="M-16.25901,379.8301v-52.55255h281.20421v52.55255z" fill="url(#color-1)" stroke-linecap="butt"/><path d="M471.1464,381.8271v-52.55255h202.63664v52.55255z" fill="url(#color-2)" stroke-linecap="butt"/><path d="M342.10407,72.51778v-21.02102h65.97927v21.02102z" fill="url(#color-3)" stroke-linecap="butt"/><path d="M179.35962,286.737v-16.51652h54.103v16.51652z" fill="url(#color-4)" stroke-linecap="butt"/><path d="M263.81307,247.69796v-15.01502h62.02051v15.01502z" fill="url(#color-5)" stroke-linecap="butt"/><path d="M346.94695,195.14541v-16.51652h54.103v16.51652z" fill="url(#color-6)" stroke-linecap="butt"/><path d="M228.18427,144.09436v-21.02102h65.97927v21.02102z" fill="url(#color-7)" stroke-linecap="butt"/><path d="M-8.00525,388.1304v-409l116,0v409z" fill="url(#color-8)" stroke-linecap="butt"/><path d="M546.99475,383.1304v-395h99v395z" fill="url(#color-9)" stroke-linecap="butt"/><path d="M151.99475,343.1304l20,-14v32" fill="none" stroke-linecap="round"/><path d="M188.99475,339.1304l-16,-8" fill="none" stroke-linecap="round"/></g></g></svg>