<svg version="1.1" xmlns="http://www.w3.org/2000/svg" xmlns:xlink="http://www.w3.org/1999/xlink" width="50.99993" height="51.00003" viewBox="0,0,50.99993,51.00003"><g transform="translate(-214.50004,-154.49998)"><g data-paper-data="{&quot;isPaintingLayer&quot;:true}" fill-rule="nonzero" stroke-linejoin="miter" stroke-miterlimit="10" stroke-dasharray="" stroke-dashoffset="0" style="mix-blend-mode: normal"><path d="M216.26781,156.26775h47.4644v47.4645h-47.4644z" fill="#e0933a" stroke="#8f5225" stroke-width="3.53553" stroke-linecap="butt"/><path d="M227.60074,174.94084c0.99614,0.42692 1.1048,2.31951 1.75037,3.1085c2.78029,3.39798 6.0148,6.54616 9.24186,9.55468c0.48319,0.45047 6.05628,4.25683 5.82082,5.37526c0.07801,0.24195 0.12015,0.5 0.12015,0.7679c0,1.17612 -0.81216,2.16256 -1.90624,2.42906c-1.41588,0.78147 -4.27082,-0.52926 -5.52527,-0.59573c-3.11284,-0.16495 -6.24695,-0.00719 -9.34498,-0.35246c-1.37527,-0.15328 -3.52746,0.45029 -4.06893,-0.82316c-0.45449,-0.3457 -0.78704,-0.84346 -0.92179,-1.41743c-1.26685,-3.33037 -0.05469,-10.10302 0.10055,-13.18701c0.05342,-1.06125 -0.19426,-4.4532 0.9412,-4.85395l1.89214,-0.86598c0.31289,0.21827 0.69997,0.38074 1.07325,0.55367c0.25506,0.07667 0.52969,0.17928 0.82688,0.30665z" fill="#b46f2f" stroke="none" stroke-width="0.5" stroke-linecap="butt"/><path d="M247.80153,163.91385c1.03477,-0.02615 2.06708,-0.11413 3.10101,-0.16321c0.09748,-0.00463 3.20892,-0.28447 3.5669,0.34201l0.08436,0.14762c0.56211,0.3718 1.03812,1.06921 1.27946,2.09592c1.26642,5.38752 0.39064,11.05482 0.22024,16.60111c0.08772,0.33591 0.0941,0.65539 -0.00398,0.94964c-0.00813,0.0244 -0.01629,0.04858 -0.02447,0.07256c-0.10776,1.28134 -1.18191,2.28769 -2.49111,2.28769c-0.48691,0 -0.9413,-0.1392 -1.32557,-0.37997c-0.02384,-0.00776 -0.04783,-0.01567 -0.07198,-0.02372c-0.89837,-0.29946 -2.02412,-2.59205 -2.71343,-3.16567c-4.05711,-3.37619 -6.76084,-8.08 -10.81508,-11.48783c-1.62973,-1.36988 -3.26334,-2.57655 -5.14316,-3.55287c-0.14819,-0.04558 -0.29051,-0.10456 -0.42555,-0.17553c-0.79583,-0.41826 -1.33857,-1.25295 -1.33857,-2.21441c0,-1.1033 0.7147,-2.03968 1.70639,-2.37141c0.09274,-0.04492 0.19217,-0.07864 0.2995,-0.09912c1.24113,-0.23678 2.54371,0.31238 3.74952,1.11022c2.91323,-1.13536 8.94052,0.06248 10.34551,0.02697z" fill="#b46f2f" stroke="none" stroke-width="0.5" stroke-linecap="butt"/><path d="M223.48063,171.55617l24.78593,24.34403" data-paper-data="{&quot;origPos&quot;:null}" fill="none" stroke="#8f5225" stroke-width="3.53553" stroke-linecap="round"/><path d="M230.54809,163.69199l24.78593,24.34403" data-paper-data="{&quot;origPos&quot;:null}" fill="none" stroke="#8f5225" stroke-width="3.53553" stroke-linecap="round"/><path d="M223.25041,163.69234h32.2617v32.2617h-32.2617z" data-paper-data="{&quot;origPos&quot;:null}" fill="none" stroke="#8f5225" stroke-width="3.53553" stroke-linecap="butt"/></g></g></svg>