<svg version="1.1" xmlns="http://www.w3.org/2000/svg" xmlns:xlink="http://www.w3.org/1999/xlink" width="106" height="137" viewBox="0,0,106,137"><defs><linearGradient x1="240.0848" y1="170.6127" x2="240.0848" y2="189.7634" gradientUnits="userSpaceOnUse" id="color-1"><stop offset="0" stop-color="#ffffff"/><stop offset="1" stop-color="#d1d1d1"/></linearGradient><linearGradient x1="240.0848" y1="170.6127" x2="240.0848" y2="189.7634" gradientUnits="userSpaceOnUse" id="color-2"><stop offset="0" stop-color="#343434"/><stop offset="1" stop-color="#090909"/></linearGradient><linearGradient x1="240.0848" y1="170.6127" x2="240.0848" y2="189.7634" gradientUnits="userSpaceOnUse" id="color-3"><stop offset="0" stop-color="#ffffff"/><stop offset="1" stop-color="#d1d1d1"/></linearGradient></defs><g transform="translate(-185,-111.5)"><g data-paper-data="{&quot;isPaintingLayer&quot;:true}" fill-rule="nonzero" stroke-linecap="butt" stroke-linejoin="miter" stroke-miterlimit="10" stroke-dasharray="" stroke-dashoffset="0" style="mix-blend-mode: normal"><path d="M236.2668,170.6127l8.313,0.5541l3.3254,5.9114l-3.0787,3.141l2.032,2.7705l-1.1082,4.1876l-5.6041,2.5861l-6.281,-2.8943l-0.9853,-4.1868l2.4631,-2.4016l-3.0786,-4.9877v-0.0615zM237.9913,176.7094l1.9705,1.79189l2.0934,-2.03858l-0.9852,-1.6008l-2.2164,0.3081zM238.5454,183.4208l0.9853,1.909l1.2934,-0.5541l0.9852,-1.4164l-1.4778,-1.4164h-0.0623z" data-paper-data="{&quot;origPos&quot;:null}" fill="url(#color-1)" stroke="url(#color-2)" stroke-width="2.5"/><path d="M236.2668,170.6127l8.313,0.5541l3.3254,5.9114l-3.0787,3.141l2.032,2.7705l-1.1082,4.1876l-5.6041,2.5861l-6.281,-2.8943l-0.9853,-4.1868l2.4631,-2.4016l-3.0786,-4.9877v-0.0615zM237.9913,176.7094l1.9705,1.79188l2.0934,-2.03858l-0.9852,-1.6008l-2.2164,0.3081zM238.5454,183.4208l0.9853,1.909l1.2934,-0.5541l0.9852,-1.4164l-1.4778,-1.4164h-0.0623z" data-paper-data="{&quot;origPos&quot;:null}" fill="url(#color-3)" stroke="none" stroke-width="0"/><path d="M185,248.5v-137h106v137z" fill="none" stroke="none" stroke-width="0"/></g></g></svg>