<svg version="1.1" xmlns="http://www.w3.org/2000/svg" xmlns:xlink="http://www.w3.org/1999/xlink" width="491.4316" height="203.1043" viewBox="0,0,491.4316,203.1043"><defs><linearGradient x1="400.5" y1="338.79702" x2="413.5" y2="338.79702" gradientUnits="userSpaceOnUse" id="color-1"><stop offset="0" stop-color="#cc7700"/><stop offset="1" stop-color="#995900"/></linearGradient><linearGradient x1="177.5" y1="342" x2="190.5" y2="342" gradientUnits="userSpaceOnUse" id="color-2"><stop offset="0" stop-color="#cc7700"/><stop offset="1" stop-color="#995900"/></linearGradient><linearGradient x1="4.6129" y1="280" x2="19.5" y2="280" gradientUnits="userSpaceOnUse" id="color-3"><stop offset="0" stop-color="#cc7700"/><stop offset="1" stop-color="#995900"/></linearGradient><linearGradient x1="109.8942" y1="332.4518" x2="102.4742" y2="344.3238" gradientUnits="userSpaceOnUse" id="color-4"><stop offset="0" stop-color="#b2b2b2"/><stop offset="1" stop-color="#666666"/></linearGradient><linearGradient x1="101.3071" y1="330" x2="101.3071" y2="344" gradientUnits="userSpaceOnUse" id="color-5"><stop offset="0" stop-color="#b2b2b2"/><stop offset="1" stop-color="#666666"/></linearGradient><linearGradient x1="361.566" y1="325.79702" x2="361.566" y2="339.79702" gradientUnits="userSpaceOnUse" id="color-6"><stop offset="0" stop-color="#b2b2b2"/><stop offset="1" stop-color="#666666"/></linearGradient><linearGradient x1="185.8395" y1="332.7805" x2="194.4608" y2="343.811" gradientUnits="userSpaceOnUse" id="color-7"><stop offset="0" stop-color="#b2b2b2"/><stop offset="1" stop-color="#666666"/></linearGradient><linearGradient x1="1712.99811" y1="362.91786" x2="232.79282" y2="362.91786" gradientUnits="userSpaceOnUse" id="color-8"><stop offset="0" stop-color="#000000"/><stop offset="1" stop-color="#000000" stop-opacity="0"/></linearGradient></defs><g transform="translate(8.8156,-262.8957)"><g data-paper-data="{&quot;isPaintingLayer&quot;:true}" fill-rule="nonzero" stroke="none" stroke-linecap="butt" stroke-linejoin="miter" stroke-miterlimit="10" stroke-dasharray="" stroke-dashoffset="0" style="mix-blend-mode: normal"><path d="M400.5,338.79702h13v124h-13z" fill="url(#color-1)" stroke-width="1"/><path d="M177.5,342h13v124h-13z" fill="url(#color-2)" stroke-width="1"/><path d="M4.6129,280h14.8871v142h-14.8871z" data-paper-data="{&quot;origPos&quot;:null}" fill="url(#color-3)" stroke-width="1"/><path d="M102.4742,344.3238l-111.2898,-69.5561l7.4199,-11.872l111.2899,69.5561z" fill="url(#color-4)" stroke-width="1.31167"/><path d="M101.3071,330h93v14h-93z" fill="url(#color-5)" stroke-width="1.05493"/><path d="M361.566,325.79702h121.05v14h-121.05z" fill="url(#color-6)" stroke-width="1.2403"/><path d="M185.8395,332.7805l49.6376,-38.7957l8.6213,11.0305l-49.6376,38.7957z" fill="url(#color-7)" stroke-width="0.88388"/><path d="M232.79282,417.00072v-108.16572h13.68761v108.16572z" data-paper-data="{&quot;index&quot;:null}" fill="url(#color-8)" stroke-width="0"/></g></g></svg>