<svg version="1.1" xmlns="http://www.w3.org/2000/svg" xmlns:xlink="http://www.w3.org/1999/xlink" width="54.73232" height="53.48685" viewBox="0,0,54.73232,53.48685"><defs><radialGradient cx="240.0024" cy="179.75122" r="33.75743" gradientUnits="userSpaceOnUse" id="color-1"><stop offset="0" stop-color="#fff343"/><stop offset="1" stop-color="#fff343" stop-opacity="0"/></radialGradient><linearGradient x1="240.00236" y1="157.93387" x2="240.00236" y2="202.54261" gradientUnits="userSpaceOnUse" id="color-2"><stop offset="0" stop-color="#ffef10"/><stop offset="1" stop-color="#ffa30a"/></linearGradient><linearGradient x1="240.00239" y1="157.93389" x2="240.00239" y2="202.06757" gradientUnits="userSpaceOnUse" id="color-3"><stop offset="0" stop-color="#e6b609"/><stop offset="1" stop-color="#c37808"/></linearGradient></defs><g transform="translate(-212.63384,-153.25659)"><g data-paper-data="{&quot;isPaintingLayer&quot;:true}" fill-rule="nonzero" stroke-linecap="round" stroke-linejoin="miter" stroke-miterlimit="10" stroke-dasharray="" stroke-dashoffset="0" style="mix-blend-mode: normal"><path d="M247.12517,203.16854c-2.40882,-1.50423 -7.20652,-6.01262 -7.20652,-6.01262c0,0 -5.35203,4.73219 -7.62073,6.20287c-5.19637,3.36852 -9.40435,3.76691 -9.85086,3.13313c-0.55335,-0.78538 -0.25771,-6.39142 0.74927,-11.73243c0.80527,-4.27107 1.68284,-7.41617 1.68284,-7.41617c-2.68274,-2.06961 -4.85271,-3.00751 -6.96815,-4.82156c-4.32863,-3.71195 -5.58474,-8.54489 -5.21654,-9.5783c0.50397,-1.41446 7.08801,-2.89949 17.29994,-3.2017l0.64831,-0.23934c3.46977,-9.95095 7.62124,-16.24582 9.26035,-16.24582c1.52047,0.0269 5.73914,6.26275 9.30438,16.15051l0.50884,0.35243c10.32798,0.32202 17.06212,1.8194 17.60571,3.18392c0.32386,0.81294 -1.07361,5.99434 -6.19723,10.19719c-1.80496,1.48058 -4.03239,2.27749 -6.16625,3.92587c0,0 1.0906,3.50641 1.98701,8.24382c1.01133,5.34497 1.16431,10.5926 0.41357,11.18159c-0.64402,0.50526 -5.21783,-0.19098 -10.2339,-3.32337z" data-paper-data="{&quot;index&quot;:null}" fill="url(#color-1)" stroke="#3f2803" stroke-width="0"/><path d="M245.80095,199.11161c-1.96098,-1.22457 -5.86675,-4.79234 -5.86675,-4.79234c0,0 -4.35701,3.74997 -6.20394,4.94723c-4.2303,2.74227 -7.65596,3.12035 -8.01945,2.60441c-0.45048,-0.63937 -0.20981,-5.09562 0.60997,-9.44367c0.65556,-3.47702 1.36997,-6.03741 1.36997,-6.03741c-2.18398,-1.68484 -3.95053,-2.44837 -5.67267,-3.92517c-3.52388,-3.02185 -5.07626,-6.95629 -4.77651,-7.79757c0.41028,-1.1515 6.30004,-2.36044 14.61344,-2.60646l0.52779,-0.19484c2.8247,-8.10095 6.20435,-13.93189 7.53873,-13.93189c1.23779,0.0219 4.67216,5.8048 7.57457,13.8543l0.41425,0.28692c8.40787,0.26216 14.41984,1.48115 14.86236,2.59198c0.26365,0.6618 -1.4038,4.87991 -5.57487,8.30139c-1.46939,1.20532 -3.28271,1.85408 -5.01986,3.19601c0,0 0.88785,2.85452 1.6176,6.71119c0.82332,4.35127 0.94785,8.51576 0.33667,8.99525c-0.52429,0.41132 -4.24776,-0.20925 -8.33128,-2.7593z" data-paper-data="{&quot;index&quot;:null}" fill="url(#color-2)" stroke="url(#color-3)" stroke-width="1"/><path d="M244.30689,175.21997c0.65387,-0.02523 1.30551,0.51605 1.58001,1.18362c0.49799,1.21155 0.55154,2.65598 0.51429,4.00507c-0.02561,1.24526 -0.22339,2.5326 -0.6981,3.6461c-0.27227,0.6535 -0.76318,1.40793 -1.39619,1.40234c-0.60963,-0.00559 -1.12859,-0.47685 -1.46362,-1.32384c-0.42816,-1.0714 -0.63059,-2.35596 -0.63059,-3.86483c0,-1.50897 0.15587,-2.74295 0.63059,-3.86483c0.31176,-0.74047 0.90752,-1.20885 1.46362,-1.18362z" fill="#3f2803" stroke="none" stroke-width="2.7674"/><path d="M235.69355,175.17342c0.65387,-0.02523 1.30551,0.51605 1.58002,1.18362c0.49799,1.21155 0.55155,2.65598 0.5143,4.00507c-0.02561,1.24526 -0.2234,2.5326 -0.6981,3.6461c-0.27227,0.6535 -0.76318,1.40793 -1.3962,1.40234c-0.60963,-0.00559 -1.12859,-0.47685 -1.46362,-1.32384c-0.42816,-1.0714 -0.63059,-2.35595 -0.63059,-3.86483c0,-1.50897 0.15587,-2.74296 0.63059,-3.86484c0.31176,-0.74047 0.90752,-1.20884 1.46362,-1.18362z" fill="#3f2803" stroke="none" stroke-width="2.7674"/></g></g></svg>