<svg version="1.1" xmlns="http://www.w3.org/2000/svg" xmlns:xlink="http://www.w3.org/1999/xlink" width="427.12717" height="176.8274" viewBox="0,0,427.12717,176.8274"><defs><linearGradient x1="354.45775" y1="197.6368" x2="354.45775" y2="287.2684" gradientUnits="userSpaceOnUse" id="color-1"><stop offset="0" stop-color="#7c5831"/><stop offset="1" stop-color="#95693b"/></linearGradient></defs><g transform="translate(1,-186.12893)"><g data-paper-data="{&quot;isPaintingLayer&quot;:true}" fill="none" fill-rule="nonzero" stroke="none" stroke-width="none" stroke-linecap="none" stroke-linejoin="miter" stroke-miterlimit="10" stroke-dasharray="" stroke-dashoffset="0" font-family="none" font-weight="none" font-size="none" text-anchor="none" style="mix-blend-mode: normal"><path d="M2,278.9351h418.2573v83.2979h-418.2573z" id="ID0.29126935824751854" fill="#95693b" stroke="#763e13" stroke-width="1.44667" stroke-linecap="butt"/><path d="M288.6433,197.6368h131.6289v89.6316h-131.6289z" id="ID0.2339868787676096" fill="url(#color-1)" stroke="#663b00" stroke-width="1.36978" stroke-linecap="butt"/><path d="M285.6949,187h139.5612v28h-139.5612z" id="ID0.8432238660752773" fill="#8d5827" stroke="#704d00" stroke-width="1.74214" stroke-linecap="butt"/><g id="ID0.05189864058047533" fill="#b2b2b2" stroke="#7f7f7f" stroke-width="2" stroke-linecap="round"><path d="M42.439,334.3701c-0.5393,-0.4512 2.3195,-0.1932 3.4598,-1.2866c1.0375,-0.9946 1.5712,-2.4172 2.2416,-3.6878c0.332,-0.6295 0.0491,-1.9256 0.7566,-1.9975c1.4149,-0.144 2.9551,0.5423 3.995,1.5131c1.1191,1.0444 2.0728,2.5891 2.0378,4.1198c-0.0491,2.1332 -1.0716,4.2272 -2.2697,5.9925c-0.7713,1.1354 -2.0317,2.1565 -3.3913,2.345c-1.3323,0.1847 -2.7515,-0.5151 -3.8073,-1.3481c-1.5255,-1.2045 -3.7804,-2.6332 -3.6597,-4.5464z" id="ID0.7308755069971085"/><path d="M36.267,342.9199c-4.7161,-0.3696 -6.8652,-5.7385 -8.4235,-9.7298c-1.6385,-4.2016 -1.5915,-9.4807 -0.3717,-13.9705c0.8183,-3.0042 3.161,-5.4358 5.7523,-6.9263c2.5811,-1.4834 6.2333,-2.1603 9.1504,-0.9459c4.391,1.6215 10.3193,3.9705 11.2004,8.8418c0.9061,5.029 -4.3629,9.3476 -7.4586,13.4138c-2.7354,3.5922 -5.4164,9.0544 -9.8493,9.3169z" id="ID0.6456214534118772"/><path d="M45.2121,341.099c1.4642,-0.9832 2.8516,-2.5609 4.6148,-2.6012c1.5191,-0.0352 4.2099,0.9246 3.8757,2.4066c-0.6585,2.9237 -3.4126,5.151 -5.9402,6.7613c-1.4612,0.9299 -3.8695,1.3924 -5.2922,0.3422c-1.1048,-1.0092 -0.4917,-3.1767 0.0563,-4.6095c0.4193,-1.0985 1.7084,-1.6431 2.1678,-2.0887z" id="ID0.09971229592338204"/><path d="M55.4841,329.2068c0.3827,-0.513 0.7568,-1.8615 1.7922,-2.4188c1.3503,-0.7278 3.4208,-1.6149 4.5638,-0.6493c1.2247,1.2756 1.0761,3.7235 0.3422,5.2922c-1.2715,2.7139 -3.1256,5.7319 -5.9402,6.7613c-1.4266,0.5224 -2.7248,-2.0225 -2.8856,-3.5335c-0.1871,-1.7537 1.1989,-3.3327 1.9854,-4.9113z" id="ID0.09971229592338204"/></g><g id="ID0.05189864058047533" fill="#b2b2b2" stroke="#7f7f7f" stroke-width="2" stroke-linecap="round"><path d="M318.0551,335.7805c-0.576,-0.4034 2.2944,-0.3911 3.3369,-1.5781c0.9485,-1.0798 1.3585,-2.5428 1.9176,-3.8662c0.2769,-0.6555 -0.1159,-1.9227 0.5828,-2.055c1.3974,-0.2645 2.9907,0.2874 4.1099,1.1656c1.2044,0.9447 2.2868,2.4021 2.3831,3.9301c0.1336,2.1296 -0.7057,4.3035 -1.7484,6.1649c-0.6711,1.1973 -1.8395,2.3225 -3.178,2.6268c-1.3116,0.298 -2.7854,-0.2776 -3.9087,-1.0172c-1.623,-1.0695 -3.992,-2.2998 -4.0355,-4.2163z" id="ID0.7308755069971085"/><path d="M312.6414,344.8615c-4.7305,0.0355 -7.3313,-5.1296 -9.2257,-8.9729c-1.9922,-4.0458 -2.3974,-9.3096 -1.5666,-13.8873c0.5581,-3.0632 2.684,-5.6865 5.1382,-7.3934c2.4446,-1.699 6.0254,-2.6861 9.0358,-1.7259c4.5138,1.2396 10.6214,3.0724 11.9163,7.8503c1.3335,4.9329 -3.5464,9.6869 -6.2827,14.0032c-2.4177,3.8132 -4.6211,9.4849 -9.0153,10.126z" id="ID0.6456214534118772"/><path d="M321.4249,342.2679c1.3745,-1.105 2.6218,-2.7957 4.3751,-2.9868c1.5104,-0.1651 4.2736,0.5607 4.0674,2.0659c-0.4057,2.9693 -2.9589,5.4242 -5.3393,7.2451c-1.3763,1.0516 -3.7361,1.7186 -5.2436,0.794c-1.187,-0.9109 -0.7618,-3.1229 -0.3386,-4.5973c0.3238,-1.1304 1.5615,-1.7834 1.9811,-2.2667z" id="ID0.09971229592338204"/><path d="M330.6319,329.5533c0.3375,-0.5439 0.5947,-1.9195 1.5786,-2.5633c1.283,-0.8408 3.2699,-1.902 4.4914,-1.0378c1.3295,1.1661 1.391,3.6177 0.7941,5.2435c-1.0345,2.8128 -2.6234,5.9785 -5.3394,7.2451c-1.3767,0.6426 -2.8881,-1.7818 -3.1776,-3.2734c-0.3366,-1.7313 0.9091,-3.4232 1.5575,-5.0633z" id="ID0.09971229592338204"/></g><path d="M156.9293,315.2084c3.3465,0.9658 -2.6857,12.7077 0.5854,17.5472c2.2574,3.3328 7.8314,1.9823 11.7907,1.7438c2.4194,-0.1614 4.5976,-3.2132 5.9942,-2.2516c1.3264,0.9157 0.0881,4.0817 -0.8331,5.7766c-1.0047,2.2472 -2.3332,4.9904 -4.7083,5.5639c-6.5538,1.5809 -14.3701,4.0878 -20.2342,0.7604c-4.8399,-2.7459 -7.3197,-10.223 -5.9491,-15.6159c1.5588,-6.1341 9.731,-14.5701 13.3444,-15.1056z" id="ID0.759138444904238" fill="#b2b2b2" stroke="#7f7f7f" stroke-width="2" stroke-linecap="round"/><path d="M345.0933,251.5395c-2.6502,-2.2601 7.6883,-10.4686 6.7046,-16.2264c-0.6818,-3.9672 -6.3166,-5.0361 -10.0218,-6.452c-2.2706,-0.8509 -5.5136,1.0308 -6.3892,-0.4213c-0.8306,-1.3812 1.6033,-3.7547 3.1416,-4.9186c1.8422,-1.6327 4.1839,-3.5837 6.5841,-3.1265c6.6223,1.2631 14.7768,2.2035 18.7464,7.6533c3.2764,4.4978 2.4512,12.3322 -1.0218,16.6796c-3.9501,4.9449 -14.8744,9.259 -18.387,8.2564z" id="ID0.759138444904238" fill="#b2b2b2" stroke="#7f7f7f" stroke-width="2" stroke-linecap="round"/><path d="M289.9711,276h130v16h-130z" id="ID0.9138228627853096" fill="#95693b" stroke="none" stroke-width="0.85678" stroke-linecap="butt"/><g id="ID0.05189864058047533" fill="#b2b2b2" stroke="#7f7f7f" stroke-width="2" stroke-linecap="round"><path d="M386.0273,291.9518c0.2596,-0.6536 0.91,2.1422 2.3055,2.8827c1.2695,0.6738 2.7877,0.7351 4.2043,0.9737c0.7018,0.1182 1.8441,-0.5564 2.134,0.0929c0.5799,1.2987 0.4105,2.9763 -0.1857,4.268c-0.6414,1.3899 -1.8096,2.7794 -3.2743,3.2256c-2.0412,0.6214 -4.3501,0.3063 -6.4019,-0.2787c-1.3198,-0.3768 -2.6843,-1.254 -3.2892,-2.4862c-0.5926,-1.2073 -0.3726,-2.7743 0.0879,-4.0379c0.6661,-1.826 1.3166,-4.4149 3.1713,-4.8995z" id="ID0.7308755069971085"/><path d="M375.9513,288.7473c-1.1261,-4.5946 3.2996,-8.317 6.602,-11.047c3.477,-2.8721 8.5052,-4.4809 13.1511,-4.7288c3.1093,-0.1637 6.1524,1.2995 8.3795,3.2936c2.2172,1.9866 4.0039,5.243 3.7642,8.3937c-0.1646,4.678 -0.5386,11.0437 -4.8888,13.4062c-4.4922,2.4357 -10.2438,-1.2156 -15.075,-2.8821c-4.2682,-1.4726 -10.2953,-2.3079 -11.933,-6.4356z" id="ID0.6456214534118772"/><path d="M380.5093,296.6538c1.3923,1.0825 3.3252,1.906 3.9157,3.5678c0.5091,1.4316 0.4405,4.2877 -1.0717,4.4344c-2.9828,0.2904 -5.9606,-1.6275 -8.2815,-3.5235c-1.3408,-1.0965 -2.5343,-3.2388 -1.9825,-4.9189c0.6123,-1.3652 2.8628,-1.4618 4.3951,-1.3902c1.1745,0.0542 2.0955,1.1078 2.6626,1.4046z" id="ID0.09971229592338204"/><path d="M395.0579,302.7798c0.607,0.2028 2.0048,0.1357 2.8584,0.9444c1.1141,1.0544 2.6051,2.7429 2.0461,4.1308c-0.8279,1.5627 -3.1991,2.1882 -4.9189,1.9825c-2.9755,-0.3575 -6.4224,-1.173 -8.2815,-3.5235c-0.9429,-1.1913 1.0673,-3.2213 2.4519,-3.8472c1.6068,-0.7269 3.5405,0.0947 5.286,0.3472z" id="ID0.09971229592338204"/></g><path d="M0,273h290v22h-290z" id="ID0.3982666623778641" fill="#8d5827" stroke="#704d00" stroke-width="2" stroke-linecap="butt"/></g></g></svg>