<svg version="1.1" xmlns="http://www.w3.org/2000/svg" xmlns:xlink="http://www.w3.org/1999/xlink" width="462.56921" height="170.55886" viewBox="0,0,462.56921,170.55886"><defs><linearGradient x1="262.80698" y1="-2350.23937" x2="262.80698" y2="6936.62317" gradientUnits="userSpaceOnUse" id="color-1"><stop offset="0" stop-color="#519dff"/><stop offset="1" stop-color="#519dff" stop-opacity="0"/></linearGradient></defs><g transform="translate(0.94667,-199.1366)"><g data-paper-data="{&quot;isPaintingLayer&quot;:true}" fill-rule="nonzero" stroke="#3e7ac6" stroke-linecap="butt" stroke-linejoin="miter" stroke-miterlimit="10" stroke-dasharray="" stroke-dashoffset="0" style="mix-blend-mode: normal"><path d="M0.3072,369.69547l-0.25387,-155.26221c0,0 21.16429,6.73227 51.05637,6.66911c30.63946,-0.06473 40.13827,-19.81496 117.5544,-18.09745c86.00233,4.82815 69.67544,17.5838 125.59827,14.81112c56.78674,0.32347 63.98466,-17.12426 106.07364,-17.67943c42.08898,-0.55517 60.63241,15.4805 60.63241,15.4805l0.22767,152.10583z" data-paper-data="{&quot;origPos&quot;:null,&quot;index&quot;:null}" fill="url(#color-1)" stroke-width="0"/><path d="M0.05333,214.43325c0,0 21.16429,6.73227 51.05637,6.66911c30.63946,-0.06473 40.13827,-19.81496 117.5544,-18.09745c86.00233,4.82815 69.67544,17.5838 125.59827,14.81112c56.78674,0.32347 63.98466,-17.12426 106.07364,-17.67943c42.08898,-0.55517 60.63241,15.4805 60.63241,15.4805" data-paper-data="{&quot;origPos&quot;:null,&quot;index&quot;:null}" fill="none" stroke-width="2"/></g></g></svg>