<svg version="1.1" xmlns="http://www.w3.org/2000/svg" xmlns:xlink="http://www.w3.org/1999/xlink" width="465.59882" height="204.60382" viewBox="0,0,465.59882,204.60382"><g transform="translate(-2.39857,-158.00003)"><g data-paper-data="{&quot;isPaintingLayer&quot;:true}" fill-rule="nonzero" stroke-linejoin="miter" stroke-miterlimit="10" stroke-dasharray="" stroke-dashoffset="0" style="mix-blend-mode: normal"><g stroke-width="2.22445"><path d="M283.58823,361.49163h-109.0628v-107.2055h109.0628z" fill="#a87c50" stroke="#705235" stroke-linecap="butt"/><path d="M282.27423,262.06723c-6.9656,-0.8205 -13.1743,-4.6444 -20.3672,-4.7551c-10.5344,0.1107 -20.3238,4.7974 -30.8792,4.7551c-8.2192,-0.0337 -15.1098,-5.9724 -23.3237,-5.6197c-4.3139,0.364 -2.6714,6.6208 -6.8985,7.3488c-6.2061,1.0712 -11.9628,-4.0487 -18.0677,-3.2421c-6.3821,0.855 -13.8588,11.2825 -14.7826,8.1269c-3.1825,-7.3272 4.3652,-19.5166 6.5701,-29.0925c0.5505,-2.394 -0.2878,-2.3222 0,-3.4582c0.1603,-0.6346 -1.067,-1.4568 1.314,-1.7291c9.5226,-1.0894 19.2712,-1.2355 28.9082,-1.7292c24.0569,-1.2337 48.1532,-3.9545 72.2705,-3.4582c6.03,0.1236 7.8131,3.5369 11.8261,5.1874c2.992,1.2302 8.0825,1.2562 9.1981,3.4582c2.7712,5.4692 3.2154,11.6629 1.314,17.2912c-0.9395,2.7821 -5.5084,4.558 -9.1981,6.0519c-2.2667,0.9182 -5.2679,1.1706 -9.1981,0.8646z" fill="#b49379" stroke="#876f5b" stroke-linecap="round"/></g><path d="M12.57768,187.00003h115v173h-115z" fill="#a87c50" stroke="#705235" stroke-width="2" stroke-linecap="butt"/><path d="M26.57768,161.00003c0.825,-0.275 0.924,-0.857 2,-1c4.304,-0.574 8.659,-0.911 13,-1c11.986,-0.245 24.015,-0.285 36,0c2.996,0.071 3.984,0.798 6,1c7.98,0.798 16.033,1.081 24,2c1.992,0.23 1.27,0.854 2,1c2.633,0.527 5.379,0.418 8,1c3.394,0.754 7.107,1.072 10,3c3.336,2.224 5.564,5.815 8,9c1.908,2.495 3.595,5.19 5,8c0.351,0.702 0,1.334 0,2c0,1.665 0.49,3.409 0,5c-0.876,2.847 -1.963,5.827 -4,8c-3.098,3.304 -6.87,6.141 -11,8c-2.75,1.237 -6.012,1.407 -9,1c-4.488,-0.612 -8.826,-2.242 -13,-4c-2.213,-0.932 -3.629,-3.621 -6,-4c-6.248,-1 -12.796,-1.241 -19,0c-4.091,0.818 -6.978,4.89 -11,6c-5.814,1.604 -11.991,2.515 -18,2c-5.879,-0.504 -11.214,-3.843 -17,-5c-2.612,-0.522 -5.393,-0.549 -8,0c-3.814,0.803 -8.87721,5.6278 -14.19257,3.54392c-5.31536,-2.08388 -7.3153,-11.31167 -6.94322,-19.34256c0.37208,-8.03089 5.10339,-15.17141 8.6634,-20.92796c3.29254,-5.32407 11.67208,-4.34025 14.47239,-5.2734z" fill="#b49379" stroke="#876f5b" stroke-width="2" stroke-linecap="round"/><g stroke-width="2"><path d="M371.84478,236.00003h83v124h-83z" fill="#a87c50" stroke="#705235" stroke-linecap="butt"/><path d="M373.84478,245.00003c-2.991,0.354 -5.275,0.062 -7,-1c-2.808,-1.728 -6.285,-3.782 -7,-7c-1.447,-6.51 -1.109,-13.674 1,-20c0.849,-2.547 11.411,-9.857 16,-10c18.354,-0.574 69.61413,5.02104 78.91216,6.63176c6.97153,1.20769 17.18969,31.85395 6.82432,39.01824c-6.98281,4.82635 -9.12949,-8.411 -13.98649,-9.4c-4.646,-0.933 -9.027,4.989 -13.75,3.75c-3.217,-0.842 -1.967,-8.079 -5.25,-8.5c-6.251,-0.408 -11.495,6.461 -17.75,6.5c-8.033,0.049 -15.483,-5.372 -23.5,-5.5c-5.474,0.128 -10.199,4.551 -15.5,5.5z" fill="#b49379" stroke="#876f5b" stroke-linecap="round"/></g></g></g></svg>