<svg version="1.1" xmlns="http://www.w3.org/2000/svg" xmlns:xlink="http://www.w3.org/1999/xlink" width="116.22256" height="94.26561" viewBox="0,0,116.22256,94.26561"><defs><linearGradient x1="220.30175" y1="189.39786" x2="225.22955" y2="177.05416" gradientUnits="userSpaceOnUse" id="color-1"><stop offset="0" stop-color="#fc8970"/><stop offset="1" stop-color="#fba987"/></linearGradient><linearGradient x1="214.69595" y1="162.25216" x2="214.69595" y2="211.30556" gradientUnits="userSpaceOnUse" id="color-2"><stop offset="0" stop-color="#fbcea2"/><stop offset="1" stop-color="#fe5248"/></linearGradient><linearGradient x1="217.49835" y1="146.58326" x2="217.49835" y2="182.89906" gradientUnits="userSpaceOnUse" id="color-3"><stop offset="0" stop-color="#fbcea2"/><stop offset="1" stop-color="#fc9a7c"/></linearGradient><linearGradient x1="244.19165" y1="198.05586" x2="248.60485" y2="217.85016" gradientUnits="userSpaceOnUse" id="color-4"><stop offset="0" stop-color="#fd7964"/><stop offset="1" stop-color="#fe5248"/></linearGradient><linearGradient x1="235.66185" y1="198.05586" x2="231.24865" y2="217.85016" gradientUnits="userSpaceOnUse" id="color-5"><stop offset="0" stop-color="#fd7964"/><stop offset="1" stop-color="#fe5248"/></linearGradient><linearGradient x1="258.45175" y1="191.04786" x2="253.52395" y2="178.70416" gradientUnits="userSpaceOnUse" id="color-6"><stop offset="0" stop-color="#fc8970"/><stop offset="1" stop-color="#fba987"/></linearGradient><linearGradient x1="193.37818" y1="122.80032" x2="193.37818" y2="147.52938" gradientUnits="userSpaceOnUse" id="color-7"><stop offset="0" stop-color="#e6a902"/><stop offset="1" stop-color="#c78602"/></linearGradient><linearGradient x1="192.69288" y1="122.26965" x2="199.84355" y2="146.39066" gradientUnits="userSpaceOnUse" id="color-8"><stop offset="0" stop-color="#ffff00"/><stop offset="1" stop-color="#ffc700"/></linearGradient><linearGradient x1="196.14809" y1="124.46633" x2="196.14809" y2="143.6534" gradientUnits="userSpaceOnUse" id="color-9"><stop offset="0" stop-color="#e6a902"/><stop offset="1" stop-color="#c78602"/></linearGradient><linearGradient x1="286.81182" y1="123.04269" x2="286.81182" y2="147.77175" gradientUnits="userSpaceOnUse" id="color-10"><stop offset="0" stop-color="#e6a902"/><stop offset="1" stop-color="#c78602"/></linearGradient><linearGradient x1="287.49711" y1="122.51203" x2="280.34645" y2="146.63304" gradientUnits="userSpaceOnUse" id="color-11"><stop offset="0" stop-color="#ffff00"/><stop offset="1" stop-color="#ffc700"/></linearGradient><linearGradient x1="284.0419" y1="124.7087" x2="284.0419" y2="143.89578" gradientUnits="userSpaceOnUse" id="color-12"><stop offset="0" stop-color="#e6a902"/><stop offset="1" stop-color="#c78602"/></linearGradient></defs><g transform="translate(-181.98372,-121.96562)"><g data-paper-data="{&quot;isPaintingLayer&quot;:true}" fill-rule="nonzero" stroke-linejoin="miter" stroke-miterlimit="10" stroke-dasharray="" stroke-dashoffset="0" style="mix-blend-mode: normal"><path d="M207.36245,175.50636l-1.8624,0.5781l-9.971,-32.1258l1.8624,-0.578z" fill="#eae2c4" stroke="none" stroke-width="0.65" stroke-linecap="butt"/><path d="M281.96205,145.53066l1.8624,0.578l-9.971,32.1257l-1.8624,-0.578z" fill="#eae2c4" stroke="none" stroke-width="0.65" stroke-linecap="butt"/><path d="M217.86625,186.96396c-2.7107,0.2851 -5.3931,-0.5629 -7.7018,-1.6691c-2.5082,-1.1969 -4.7097,-2.8659 -6.4063,-4.8484c-1.0581,-1.3376 -2.6994,-3.4281 -1.5883,-4.7826c1.6869,-2.051 4.9798,-2.5692 7.6308,-2.774c3.009,-0.2316 6.1161,0.3401 8.7279,1.5029c1.7421,0.8503 2.896,2.5604 3.7034,4.2462c0.7768,1.624 1.7381,3.7638 0.8865,5.3878c-0.8517,1.6241 -3.2434,2.7237 -5.2522,2.9372z" fill="url(#color-1)" stroke="none" stroke-width="1.13642" stroke-linecap="round"/><path d="M241.52145,162.27696c7.9289,-0.4414 15.3582,5.0963 20.1719,10.3956c4.5375,5.0293 5.8029,12.4255 5.4441,18.9683c-0.0389,4.9288 -2.2429,10.3818 -6.5753,13.736c-5.2046,4.0213 -12.7897,6.061 -19.9003,5.9221c-6.4745,0.1389 -13.2974,-2.0437 -18.1811,-5.9221c-4.4355,-3.5246 -6.8023,-8.9806 -7.4923,-13.9823c-0.7266,-5.3939 -0.2819,-11.7732 3.4384,-15.7659c5.8189,-6.1989 13.8487,-12.8344 23.0946,-13.3517z" fill="url(#color-2)" stroke="none" stroke-width="1.06878" stroke-linecap="round"/><path d="M235.90535,151.19916c-0.8618,-1.501 -4.6487,-3.677 -3.4384,-4.35c1.8992,-0.764 6.6419,0.237 9.7422,1.5c2.0091,0.822 1.9564,3.917 4.0114,4.65c1.4476,0.452 2.5364,-1.655 4.0115,-1.9c0.8561,-0.088 2.0859,0.319 2.2923,1c0.2681,0.897 -0.6235,1.758 -1.1462,2.6c-0.4733,1.129 -1.6424,2.059 -1.8338,3.3c-0.1352,0.888 0.0917,0.892 1.1461,2.5c4.2167,6.432 18.6419,15.943 12.894,19.2c-10.1547,5.293 -32.275,3.622 -44.6991,-2.1c-5.2057,-2.398 5.6367,-9.848 9.5702,-14.1c2.4,-2.762 7.3238,-3.582 9.169,-6.65c1.0831,-1.802 -0.7151,-3.915 -1.7192,-5.65z" fill="url(#color-3)" stroke="none" stroke-width="1.07555" stroke-linecap="round"/><path d="M250.75065,196.59356c1.9832,-0.4422 4.2255,0.764 5.9188,1.72c1.7576,0.9932 3.481,2.2883 4.1299,3.9354c0.8466,2.4494 0.9383,5.2188 0.1416,7.761c-0.7029,2.2396 -1.8734,4.9746 -4.4868,6.0578c-1.7254,0.7129 -3.791,-1.0683 -5.1112,-2.2149c-1.9341,-1.8095 -3.4245,-3.9967 -4.3281,-6.3631c-0.8367,-2.1792 -1.3156,-4.6331 -0.5117,-6.9096c0.5984,-1.6868 2.2643,-3.5445 4.2475,-3.9866z" fill="url(#color-4)" stroke="none" stroke-width="1.15244" stroke-linecap="round"/><path d="M233.35035,200.58016c0.8039,2.2765 0.325,4.7305 -0.5117,6.9096c-0.9036,2.3665 -2.394,4.5536 -4.3281,6.3632c-1.3202,1.1465 -3.3858,2.9277 -5.1112,2.2148c-2.6134,-1.0832 -3.7839,-3.8182 -4.4868,-6.0578c-0.7967,-2.5422 -0.705,-5.3116 0.1416,-7.761c0.6489,-1.6471 2.3723,-2.9421 4.1299,-3.9354c1.6933,-0.956 3.9356,-2.1622 5.9188,-1.72c1.9832,0.4421 3.6491,2.2998 4.2475,3.9866z" fill="url(#color-5)" stroke="none" stroke-width="1.15244" stroke-linecap="round"/><path d="M255.63505,185.67676c-0.8516,-1.624 0.1097,-3.7638 0.8865,-5.3878c0.8074,-1.6858 1.9613,-3.3959 3.7034,-4.2462c2.6118,-1.1628 5.7189,-1.7345 8.7279,-1.5029c2.651,0.2048 5.9439,0.723 7.6308,2.774c1.1111,1.3545 -0.5302,3.445 -1.5883,4.7826c-1.6966,1.9825 -3.8981,3.6515 -6.4063,4.8484c-2.3087,1.1062 -4.9911,1.9542 -7.7018,1.6691c-2.0088,-0.2135 -4.4005,-1.3131 -5.2522,-2.9372z" fill="url(#color-6)" stroke="none" stroke-width="1.13642" stroke-linecap="round"/><g stroke="none" stroke-width="0.78518"><path d="M248.98625,177.43776c0.9185,-0.0405 1.9661,0.3986 2.4515,1.1662c0.7586,1.2004 1.0325,2.5168 1.0325,4.1275c0,1.6107 -0.2644,2.9302 -1.0325,4.1275c-0.5163,0.8042 -1.533,1.3468 -2.4515,1.3218c-0.9755,0.025 -2.0303,-0.5278 -2.5307,-1.3218c-0.7586,-1.2028 -1.0325,-2.5168 -1.0325,-4.1275c0,-1.6107 0.2462,-2.9442 1.0325,-4.1275c0.5305,-0.7988 1.5987,-1.2067 2.5307,-1.1662z" fill="#000000" stroke-linecap="round"/><path d="M248.92685,178.72226c0.2565,0 0.4893,0.1028 0.658,0.2678c0.1679,0.1658 0.2724,0.3947 0.2724,0.6469c0,0.2522 -0.1045,0.4811 -0.2724,0.6469c-0.1687,0.1651 -0.4015,0.2678 -0.658,0.2678c-0.2566,0 -0.4894,-0.1027 -0.658,-0.2678c-0.1679,-0.1658 -0.2724,-0.3947 -0.2724,-0.6469c0,-0.2522 0.1045,-0.4811 0.2724,-0.6469c0.1686,-0.165 0.4014,-0.2678 0.658,-0.2678z" fill="#ffffff" stroke-linecap="butt"/></g><g stroke="none" stroke-width="0.78518"><path d="M233.57075,177.38776c0.9185,-0.0405 1.9661,0.3986 2.4515,1.1662c0.7586,1.2004 1.0326,2.5168 1.0326,4.1275c0,1.6107 -0.2645,2.9302 -1.0326,4.1275c-0.5163,0.8042 -1.533,1.3468 -2.4515,1.3218c-0.9755,0.025 -2.0302,-0.5278 -2.5307,-1.3218c-0.7585,-1.2028 -1.0325,-2.5168 -1.0325,-4.1275c0,-1.6107 0.2462,-2.9442 1.0325,-4.1275c0.5306,-0.7988 1.5987,-1.2067 2.5307,-1.1662z" fill="#000000" stroke-linecap="round"/><path d="M233.51135,178.67226c0.2566,0 0.4894,0.1028 0.658,0.2678c0.1679,0.1658 0.2724,0.3947 0.2724,0.6469c0,0.2522 -0.1045,0.4811 -0.2724,0.6469c-0.1686,0.1651 -0.4014,0.2678 -0.658,0.2678c-0.2565,0 -0.4893,-0.1027 -0.658,-0.2678c-0.1679,-0.1658 -0.2724,-0.3947 -0.2724,-0.6469c0,-0.2522 0.1045,-0.4811 0.2724,-0.6469c0.1687,-0.165 0.4015,-0.2678 0.658,-0.2678z" fill="#ffffff" stroke-linecap="butt"/></g><path d="M248.28365,193.99916c0,0 -4.1834,4.041 -6.9914,4.15c-2.6912,0.087 -6.3038,-4 -6.3038,-4" fill="none" stroke="#000000" stroke-width="2.1511" stroke-linecap="round"/><path d="M245.77675,189.09916c0,0 2.039,-0.912 2.9,-0.9c1.242,0.022 3.6,0.9 3.6,0.9" fill="none" stroke="#000000" stroke-width="2" stroke-linecap="round"/><path d="M230.72675,188.59916c0,0 2.039,-0.912 2.9,-0.9c1.242,0.022 3.6,0.9 3.6,0.9" fill="none" stroke="#000000" stroke-width="2" stroke-linecap="round"/><g data-paper-data="{&quot;index&quot;:null}" stroke="none" stroke-linecap="butt"><path d="M198.49744,124.71916c2.60536,1.69147 4.71138,4.40195 5.69782,7.72946c0.98641,3.32742 0.66793,6.6468 -0.64302,9.32168c-1.31094,2.67498 -3.61427,4.70565 -6.59871,5.45506c-2.98444,0.74941 -6.0892,0.07675 -8.69459,-1.61482c-2.60536,-1.69147 -4.71142,-4.40205 -5.69783,-7.72946c-0.98644,-3.32752 -0.66793,-6.6468 0.64302,-9.32168c1.31094,-2.67499 3.61428,-4.70565 6.59872,-5.45506c2.98444,-0.74941 6.0892,-0.07675 8.69459,1.61482z" data-paper-data="{&quot;origPos&quot;:null}" fill="url(#color-7)" stroke-width="0.44036"/><path d="M201.38746,123.88447c2.60536,1.69147 4.71139,4.40194 5.69783,7.72945c0.98641,3.32742 0.66793,6.6468 -0.64302,9.32168c-1.31094,2.67498 -3.61428,4.70565 -6.59872,5.45506c-2.98444,0.74941 -6.08919,0.07675 -8.69458,-1.61482c-2.60536,-1.69147 -4.71142,-4.40205 -5.69783,-7.72946c-0.98644,-3.32752 -0.66793,-6.6468 0.64302,-9.32168c1.31094,-2.67499 3.61428,-4.70565 6.59872,-5.45506c2.98444,-0.74941 6.08919,-0.07675 8.69458,1.61482z" data-paper-data="{&quot;origPos&quot;:null}" fill="url(#color-8)" stroke-width="0.44036"/><path d="M200.72759,142.71171l-3.75016,0.94169l-5.40884,-18.24539l3.75016,-0.94168z" data-paper-data="{&quot;origPos&quot;:null}" fill="url(#color-9)" stroke-width="0.59798"/></g><g stroke="none" stroke-linecap="butt"><path d="M290.38715,123.34671c2.98444,0.74941 5.28778,2.78007 6.59872,5.45506c1.31095,2.67488 1.62946,5.99416 0.64302,9.32168c-0.98641,3.32741 -3.09247,6.03798 -5.69783,7.72946c-2.60539,1.69158 -5.71014,2.36424 -8.69459,1.61482c-2.98444,-0.74941 -5.28778,-2.78008 -6.59871,-5.45506c-1.31095,-2.67488 -1.62943,-5.99426 -0.64302,-9.32168c0.98644,-3.32751 3.09247,-6.03799 5.69782,-7.72946c2.60539,-1.69158 5.71014,-2.36423 8.69459,-1.61482z" data-paper-data="{&quot;origPos&quot;:null}" fill="url(#color-10)" stroke-width="0.44036"/><path d="M287.49711,122.51203c2.98444,0.74941 5.28778,2.78007 6.59872,5.45506c1.31095,2.67488 1.62946,5.99416 0.64302,9.32168c-0.98641,3.32741 -3.09247,6.03798 -5.69783,7.72946c-2.60539,1.69158 -5.71014,2.36424 -8.69458,1.61482c-2.98444,-0.74941 -5.28778,-2.78008 -6.59872,-5.45506c-1.31095,-2.67488 -1.62943,-5.99426 -0.64302,-9.32168c0.98644,-3.32751 3.09247,-6.03799 5.69783,-7.72946c2.60539,-1.69158 5.71014,-2.36423 8.69458,-1.61482z" data-paper-data="{&quot;origPos&quot;:null}" fill="url(#color-11)" stroke-width="0.44036"/><path d="M284.87124,124.7087l3.75016,0.94169l-5.40884,18.24539l-3.75016,-0.94169z" data-paper-data="{&quot;origPos&quot;:null}" fill="url(#color-12)" stroke-width="0.59798"/></g></g></g></svg>