<svg version="1.1" xmlns="http://www.w3.org/2000/svg" xmlns:xlink="http://www.w3.org/1999/xlink" width="40.9829" height="40.9803" viewBox="0,0,40.9829,40.9803"><g transform="translate(-219.50952,-159.47635)"><g data-paper-data="{&quot;isPaintingLayer&quot;:true}" fill-rule="nonzero" stroke="none" stroke-width="0" stroke-linecap="butt" stroke-linejoin="miter" stroke-miterlimit="10" stroke-dasharray="" stroke-dashoffset="0" style="mix-blend-mode: normal"><path d="M223.50973,179.31916c-0.00048,-0.23827 0,-8.80138 0,-8.80138c0,0 0.02277,-3.30114 1.78227,-5.17286c1.67862,-1.78567 5.78886,-1.86882 5.78886,-1.86882h18.32605c0,0 3.43454,0.1244 5.04725,1.6291c2.10481,1.96383 2.03636,4.72727 2.03636,4.72727c0,0 0.00423,10.00714 0,10.27799c-0.25158,16.08023 -9.99216,16.34538 -16.42998,16.34646c-6.37008,0.00107 -16.51674,-0.31369 -16.55082,-17.13775zM239.95995,188.67328c5.54563,0 10.04797,-4.2552 10.04797,-10.04797c0,-5.79277 -4.23709,-10.04797 -10.04797,-10.04797c-5.81088,0 -10.04797,4.23574 -10.04797,10.04797c0,5.81223 4.50234,10.04797 10.04797,10.04797z" fill="#736123"/><path d="M219.50978,179.16214c-0.0006,-0.29607 0,-10.93616 0,-10.93616c0,0 0.0283,-4.10183 2.21457,-6.42753c2.08577,-2.21879 7.19294,-2.3221 7.19294,-2.3221h22.77104c0,0 4.26759,0.15457 6.27146,2.02423c2.61533,2.44016 2.53028,5.87386 2.53028,5.87386c0,0 0.00527,12.43437 0,12.77091c-0.3126,19.98048 -12.41576,20.30996 -20.41507,20.3113c-7.91514,0.00133 -20.52289,-0.38978 -20.56522,-21.29451zM239.95,190.3c6.62298,0 12,-5.08186 12,-12c0,-6.91814 -5.06023,-12 -12,-12c-6.93977,0 -12,5.05862 -12,12c0,6.94138 5.37702,12 12,12z" fill="#e0ba32"/></g></g></svg>