<svg version="1.1" xmlns="http://www.w3.org/2000/svg" xmlns:xlink="http://www.w3.org/1999/xlink" width="35.98996" height="28.68572" viewBox="0,0,35.98996,28.68572"><g transform="translate(-222.00502,-165.65714)"><g data-paper-data="{&quot;isPaintingLayer&quot;:true}" fill-rule="nonzero" stroke-width="0" stroke-linecap="butt" stroke-linejoin="miter" stroke-miterlimit="10" stroke-dasharray="" stroke-dashoffset="0" style="mix-blend-mode: normal"><path d="M225.32514,194.34285v-25.36561h32.66984v25.36562z" fill-opacity="0.3451" fill="#000000" stroke="none"/><path d="M222.00503,191.02275v-25.3656h32.66985v25.36562z" fill-opacity="0.3451" fill="#ffffff" stroke="none"/><path d="M238.57594,168.8921c4.44291,0.11049 6.31441,1.71415 6.59884,3.8739c0.26501,2.01219 -0.00423,3.67308 -2.02961,4.56651c-1.67284,0.73793 -2.76661,0.91461 -3.22936,2.32438c-0.46276,1.40977 0.28016,2.30185 -2.37607,2.39204c-2.75638,0.0936 -2.40217,-2.01431 -2.08756,-3.63276c0.24472,-1.2588 1.03886,-2.22926 2.45052,-2.7711c0.84428,-0.32405 1.58322,-0.21071 2.21484,-0.92187c0.37324,-0.42025 0.89407,-1.36826 -2.14604,-1.39227c-2.29783,-0.01814 -3.12038,0.59181 -3.12038,1.21946c0,1.39359 -1.24267,1.96931 -2.60957,1.96931c-1.2582,0 -2.02513,-0.73569 -2.12999,-1.98076c-0.15727,-1.8675 0.15405,-5.6468 8.46437,-5.64686z" fill="#ff0000" stroke="#a88801"/><path d="M234.70581,185.313c0,-1.26179 0.73735,-2.28466 2.63732,-2.28466c2.15336,0 2.63733,1.02288 2.63733,2.28466c0,1.26179 -0.67746,2.25718 -2.63733,2.28466c-1.84083,0.02582 -2.63732,-1.02289 -2.63732,-2.28466z" fill="#ff0000" stroke="#a88801"/></g></g></svg>