<svg version="1.1" xmlns="http://www.w3.org/2000/svg" xmlns:xlink="http://www.w3.org/1999/xlink" width="739.16224" height="156.68213" viewBox="0,0,739.16224,156.68213"><defs><linearGradient x1="640.36962" y1="295.92235" x2="640.36962" y2="325.11552" gradientUnits="userSpaceOnUse" id="color-1"><stop offset="0" stop-color="#b08b2e"/><stop offset="1" stop-color="#8a6632"/></linearGradient><linearGradient x1="609.11268" y1="317.0063" x2="609.11268" y2="317.0063" gradientUnits="userSpaceOnUse" id="color-2"><stop offset="0" stop-color="#b08b2e"/><stop offset="1" stop-color="#8a6632"/></linearGradient><linearGradient x1="642.13056" y1="306.46432" x2="642.13056" y2="306.46432" gradientUnits="userSpaceOnUse" id="color-3"><stop offset="0" stop-color="#b08b2e"/><stop offset="1" stop-color="#8a6632"/></linearGradient><linearGradient x1="676.46924" y1="315.38446" x2="676.46924" y2="316.19539" gradientUnits="userSpaceOnUse" id="color-4"><stop offset="0" stop-color="#b08b2e"/><stop offset="1" stop-color="#8a6632"/></linearGradient><linearGradient x1="594.58478" y1="304.84248" x2="594.58478" y2="305.6534" gradientUnits="userSpaceOnUse" id="color-5"><stop offset="0" stop-color="#b08b2e"/><stop offset="1" stop-color="#8a6632"/></linearGradient><linearGradient x1="6.22328" y1="292.17001" x2="6.22328" y2="321.36318" gradientUnits="userSpaceOnUse" id="color-6"><stop offset="0" stop-color="#b08b2e"/><stop offset="1" stop-color="#8a6632"/></linearGradient><linearGradient x1="-25.03366" y1="313.25396" x2="-25.03366" y2="313.25396" gradientUnits="userSpaceOnUse" id="color-7"><stop offset="0" stop-color="#b08b2e"/><stop offset="1" stop-color="#8a6632"/></linearGradient><linearGradient x1="7.98422" y1="302.71198" x2="7.98422" y2="302.71198" gradientUnits="userSpaceOnUse" id="color-8"><stop offset="0" stop-color="#b08b2e"/><stop offset="1" stop-color="#8a6632"/></linearGradient><linearGradient x1="42.3229" y1="311.63212" x2="42.3229" y2="312.44305" gradientUnits="userSpaceOnUse" id="color-9"><stop offset="0" stop-color="#b08b2e"/><stop offset="1" stop-color="#8a6632"/></linearGradient><linearGradient x1="-39.56156" y1="301.09013" x2="-39.56156" y2="301.90106" gradientUnits="userSpaceOnUse" id="color-10"><stop offset="0" stop-color="#b08b2e"/><stop offset="1" stop-color="#8a6632"/></linearGradient><linearGradient x1="310.47374" y1="288.41766" x2="310.47374" y2="317.61083" gradientUnits="userSpaceOnUse" id="color-11"><stop offset="0" stop-color="#b08b2e"/><stop offset="1" stop-color="#8a6632"/></linearGradient><linearGradient x1="341.73071" y1="309.50161" x2="341.73071" y2="309.50161" gradientUnits="userSpaceOnUse" id="color-12"><stop offset="0" stop-color="#b08b2e"/><stop offset="1" stop-color="#8a6632"/></linearGradient><linearGradient x1="308.71279" y1="298.95963" x2="308.71279" y2="298.95963" gradientUnits="userSpaceOnUse" id="color-13"><stop offset="0" stop-color="#b08b2e"/><stop offset="1" stop-color="#8a6632"/></linearGradient><linearGradient x1="274.37415" y1="307.87977" x2="274.37415" y2="308.6907" gradientUnits="userSpaceOnUse" id="color-14"><stop offset="0" stop-color="#b08b2e"/><stop offset="1" stop-color="#8a6632"/></linearGradient><linearGradient x1="356.25859" y1="297.33779" x2="356.25859" y2="298.14871" gradientUnits="userSpaceOnUse" id="color-15"><stop offset="0" stop-color="#b08b2e"/><stop offset="1" stop-color="#8a6632"/></linearGradient><linearGradient x1="412.97376" y1="288.41766" x2="412.97376" y2="317.61083" gradientUnits="userSpaceOnUse" id="color-16"><stop offset="0" stop-color="#b08b2e"/><stop offset="1" stop-color="#8a6632"/></linearGradient><linearGradient x1="381.7168" y1="309.50161" x2="381.7168" y2="309.50161" gradientUnits="userSpaceOnUse" id="color-17"><stop offset="0" stop-color="#b08b2e"/><stop offset="1" stop-color="#8a6632"/></linearGradient><linearGradient x1="414.7347" y1="298.95963" x2="414.7347" y2="298.95963" gradientUnits="userSpaceOnUse" id="color-18"><stop offset="0" stop-color="#b08b2e"/><stop offset="1" stop-color="#8a6632"/></linearGradient><linearGradient x1="449.07337" y1="307.87977" x2="449.07337" y2="308.6907" gradientUnits="userSpaceOnUse" id="color-19"><stop offset="0" stop-color="#b08b2e"/><stop offset="1" stop-color="#8a6632"/></linearGradient><linearGradient x1="367.18893" y1="297.33779" x2="367.18893" y2="298.14871" gradientUnits="userSpaceOnUse" id="color-20"><stop offset="0" stop-color="#b08b2e"/><stop offset="1" stop-color="#8a6632"/></linearGradient><linearGradient x1="104.47374" y1="302.06022" x2="104.47374" y2="331.25339" gradientUnits="userSpaceOnUse" id="color-21"><stop offset="0" stop-color="#b08b2e"/><stop offset="1" stop-color="#8a6632"/></linearGradient><linearGradient x1="135.7307" y1="323.14417" x2="135.7307" y2="323.14417" gradientUnits="userSpaceOnUse" id="color-22"><stop offset="0" stop-color="#b08b2e"/><stop offset="1" stop-color="#8a6632"/></linearGradient><linearGradient x1="102.71279" y1="312.60219" x2="102.71279" y2="312.60219" gradientUnits="userSpaceOnUse" id="color-23"><stop offset="0" stop-color="#b08b2e"/><stop offset="1" stop-color="#8a6632"/></linearGradient><linearGradient x1="68.37413" y1="321.52233" x2="68.37413" y2="322.33326" gradientUnits="userSpaceOnUse" id="color-24"><stop offset="0" stop-color="#b08b2e"/><stop offset="1" stop-color="#8a6632"/></linearGradient><linearGradient x1="150.25857" y1="310.98035" x2="150.25857" y2="311.79127" gradientUnits="userSpaceOnUse" id="color-25"><stop offset="0" stop-color="#b08b2e"/><stop offset="1" stop-color="#8a6632"/></linearGradient><linearGradient x1="206.97375" y1="288.41766" x2="206.97375" y2="317.61083" gradientUnits="userSpaceOnUse" id="color-26"><stop offset="0" stop-color="#b08b2e"/><stop offset="1" stop-color="#8a6632"/></linearGradient><linearGradient x1="175.71681" y1="309.50161" x2="175.71681" y2="309.50161" gradientUnits="userSpaceOnUse" id="color-27"><stop offset="0" stop-color="#b08b2e"/><stop offset="1" stop-color="#8a6632"/></linearGradient><linearGradient x1="208.73469" y1="298.95963" x2="208.73469" y2="298.95963" gradientUnits="userSpaceOnUse" id="color-28"><stop offset="0" stop-color="#b08b2e"/><stop offset="1" stop-color="#8a6632"/></linearGradient><linearGradient x1="243.07337" y1="307.87977" x2="243.07337" y2="308.6907" gradientUnits="userSpaceOnUse" id="color-29"><stop offset="0" stop-color="#b08b2e"/><stop offset="1" stop-color="#8a6632"/></linearGradient><linearGradient x1="161.18891" y1="297.33779" x2="161.18891" y2="298.14871" gradientUnits="userSpaceOnUse" id="color-30"><stop offset="0" stop-color="#b08b2e"/><stop offset="1" stop-color="#8a6632"/></linearGradient><linearGradient x1="397.7623" y1="318.74837" x2="397.7623" y2="347.94155" gradientUnits="userSpaceOnUse" id="color-31"><stop offset="0" stop-color="#b08b2e"/><stop offset="1" stop-color="#8a6632"/></linearGradient><linearGradient x1="366.50535" y1="339.83234" x2="366.50535" y2="339.83234" gradientUnits="userSpaceOnUse" id="color-32"><stop offset="0" stop-color="#b08b2e"/><stop offset="1" stop-color="#8a6632"/></linearGradient><linearGradient x1="399.52325" y1="329.29036" x2="399.52325" y2="329.29036" gradientUnits="userSpaceOnUse" id="color-33"><stop offset="0" stop-color="#b08b2e"/><stop offset="1" stop-color="#8a6632"/></linearGradient><linearGradient x1="433.86191" y1="338.2105" x2="433.86191" y2="339.02142" gradientUnits="userSpaceOnUse" id="color-34"><stop offset="0" stop-color="#b08b2e"/><stop offset="1" stop-color="#8a6632"/></linearGradient><linearGradient x1="351.97747" y1="327.66851" x2="351.97747" y2="328.47944" gradientUnits="userSpaceOnUse" id="color-35"><stop offset="0" stop-color="#b08b2e"/><stop offset="1" stop-color="#8a6632"/></linearGradient><linearGradient x1="191.51229" y1="318.74837" x2="191.51229" y2="347.94155" gradientUnits="userSpaceOnUse" id="color-36"><stop offset="0" stop-color="#b08b2e"/><stop offset="1" stop-color="#8a6632"/></linearGradient><linearGradient x1="189.75134" y1="329.29036" x2="189.75134" y2="329.29036" gradientUnits="userSpaceOnUse" id="color-37"><stop offset="0" stop-color="#b08b2e"/><stop offset="1" stop-color="#8a6632"/></linearGradient><linearGradient x1="155.41268" y1="338.2105" x2="155.41268" y2="339.02142" gradientUnits="userSpaceOnUse" id="color-38"><stop offset="0" stop-color="#b08b2e"/><stop offset="1" stop-color="#8a6632"/></linearGradient><linearGradient x1="294.0123" y1="318.74837" x2="294.0123" y2="347.94155" gradientUnits="userSpaceOnUse" id="color-39"><stop offset="0" stop-color="#b08b2e"/><stop offset="1" stop-color="#8a6632"/></linearGradient><linearGradient x1="295.77326" y1="329.29036" x2="295.77326" y2="329.29036" gradientUnits="userSpaceOnUse" id="color-40"><stop offset="0" stop-color="#b08b2e"/><stop offset="1" stop-color="#8a6632"/></linearGradient><linearGradient x1="330.11191" y1="338.2105" x2="330.11191" y2="339.02142" gradientUnits="userSpaceOnUse" id="color-41"><stop offset="0" stop-color="#b08b2e"/><stop offset="1" stop-color="#8a6632"/></linearGradient><linearGradient x1="218.04713" y1="341.82285" x2="218.04713" y2="342.63378" gradientUnits="userSpaceOnUse" id="color-42"><stop offset="0" stop-color="#b08b2e"/><stop offset="1" stop-color="#8a6632"/></linearGradient><linearGradient x1="276.04715" y1="341.82285" x2="276.04715" y2="342.63378" gradientUnits="userSpaceOnUse" id="color-43"><stop offset="0" stop-color="#b08b2e"/><stop offset="1" stop-color="#8a6632"/></linearGradient><linearGradient x1="501.5123" y1="318.74837" x2="501.5123" y2="347.94155" gradientUnits="userSpaceOnUse" id="color-44"><stop offset="0" stop-color="#b08b2e"/><stop offset="1" stop-color="#8a6632"/></linearGradient><linearGradient x1="499.75135" y1="329.29036" x2="499.75135" y2="329.29036" gradientUnits="userSpaceOnUse" id="color-45"><stop offset="0" stop-color="#b08b2e"/><stop offset="1" stop-color="#8a6632"/></linearGradient><linearGradient x1="465.41269" y1="338.2105" x2="465.41269" y2="339.02142" gradientUnits="userSpaceOnUse" id="color-46"><stop offset="0" stop-color="#b08b2e"/><stop offset="1" stop-color="#8a6632"/></linearGradient><linearGradient x1="493.25859" y1="341.82285" x2="493.25859" y2="342.63378" gradientUnits="userSpaceOnUse" id="color-47"><stop offset="0" stop-color="#b08b2e"/><stop offset="1" stop-color="#8a6632"/></linearGradient><linearGradient x1="551.2586" y1="341.82285" x2="551.2586" y2="342.63378" gradientUnits="userSpaceOnUse" id="color-48"><stop offset="0" stop-color="#b08b2e"/><stop offset="1" stop-color="#8a6632"/></linearGradient><linearGradient x1="120.57922" y1="304.88965" x2="120.57922" y2="348.44239" gradientUnits="userSpaceOnUse" id="color-49"><stop offset="0" stop-color="#b08b2e"/><stop offset="1" stop-color="#8a6632"/></linearGradient><linearGradient x1="93.21461" y1="336.3444" x2="93.21461" y2="336.3444" gradientUnits="userSpaceOnUse" id="color-50"><stop offset="0" stop-color="#b08b2e"/><stop offset="1" stop-color="#8a6632"/></linearGradient><linearGradient x1="122.12089" y1="320.61702" x2="122.12089" y2="320.61702" gradientUnits="userSpaceOnUse" id="color-51"><stop offset="0" stop-color="#b08b2e"/><stop offset="1" stop-color="#8a6632"/></linearGradient><linearGradient x1="152.18345" y1="333.92481" x2="152.18345" y2="335.13462" gradientUnits="userSpaceOnUse" id="color-52"><stop offset="0" stop-color="#b08b2e"/><stop offset="1" stop-color="#8a6632"/></linearGradient><linearGradient x1="80.49584" y1="318.19743" x2="80.49584" y2="319.40723" gradientUnits="userSpaceOnUse" id="color-53"><stop offset="0" stop-color="#b08b2e"/><stop offset="1" stop-color="#8a6632"/></linearGradient><linearGradient x1="120.57922" y1="350.53009" x2="120.57922" y2="394.08283" gradientUnits="userSpaceOnUse" id="color-54"><stop offset="0" stop-color="#b08b2e"/><stop offset="1" stop-color="#8a6632"/></linearGradient><linearGradient x1="93.21461" y1="381.98484" x2="93.21461" y2="381.98484" gradientUnits="userSpaceOnUse" id="color-55"><stop offset="0" stop-color="#b08b2e"/><stop offset="1" stop-color="#8a6632"/></linearGradient><linearGradient x1="122.12089" y1="366.25746" x2="122.12089" y2="366.25746" gradientUnits="userSpaceOnUse" id="color-56"><stop offset="0" stop-color="#b08b2e"/><stop offset="1" stop-color="#8a6632"/></linearGradient><linearGradient x1="152.18345" y1="379.56525" x2="152.18345" y2="380.77506" gradientUnits="userSpaceOnUse" id="color-57"><stop offset="0" stop-color="#b08b2e"/><stop offset="1" stop-color="#8a6632"/></linearGradient><linearGradient x1="80.49585" y1="363.83787" x2="80.49585" y2="365.04766" gradientUnits="userSpaceOnUse" id="color-58"><stop offset="0" stop-color="#b08b2e"/><stop offset="1" stop-color="#8a6632"/></linearGradient><linearGradient x1="121.66507" y1="275.55955" x2="121.66507" y2="303.55955" gradientUnits="userSpaceOnUse" id="color-59"><stop offset="0" stop-color="#adadad"/><stop offset="1" stop-color="#9e8c72"/></linearGradient><linearGradient x1="120.66507" y1="423.55955" x2="120.66507" y2="395.55955" gradientUnits="userSpaceOnUse" id="color-60"><stop offset="0" stop-color="#adadad"/><stop offset="1" stop-color="#9e8c72"/></linearGradient><linearGradient x1="47.16882" y1="348.64226" x2="75.16842" y2="348.79595" gradientUnits="userSpaceOnUse" id="color-61"><stop offset="0" stop-color="#adadad"/><stop offset="1" stop-color="#9e8c72"/></linearGradient><linearGradient x1="195.16132" y1="350.47684" x2="167.16172" y2="350.32316" gradientUnits="userSpaceOnUse" id="color-62"><stop offset="0" stop-color="#adadad"/><stop offset="1" stop-color="#9e8c72"/></linearGradient><linearGradient x1="62.16507" y1="272.55955" x2="62.16507" y2="306.55955" gradientUnits="userSpaceOnUse" id="color-63"><stop offset="0" stop-color="#b9b9b9"/><stop offset="1" stop-color="#a8a8a8"/></linearGradient><linearGradient x1="181.16507" y1="272.55955" x2="181.16507" y2="306.55955" gradientUnits="userSpaceOnUse" id="color-64"><stop offset="0" stop-color="#b9b9b9"/><stop offset="1" stop-color="#a8a8a8"/></linearGradient><linearGradient x1="182.16507" y1="392.55955" x2="182.16507" y2="426.55955" gradientUnits="userSpaceOnUse" id="color-65"><stop offset="0" stop-color="#b9b9b9"/><stop offset="1" stop-color="#a8a8a8"/></linearGradient><linearGradient x1="61.16507" y1="392.55955" x2="61.16507" y2="426.55955" gradientUnits="userSpaceOnUse" id="color-66"><stop offset="0" stop-color="#b9b9b9"/><stop offset="1" stop-color="#a8a8a8"/></linearGradient><linearGradient x1="520.9885" y1="305.57178" x2="520.9885" y2="349.12452" gradientUnits="userSpaceOnUse" id="color-67"><stop offset="0" stop-color="#b08b2e"/><stop offset="1" stop-color="#8a6632"/></linearGradient><linearGradient x1="493.62389" y1="337.02653" x2="493.62389" y2="337.02653" gradientUnits="userSpaceOnUse" id="color-68"><stop offset="0" stop-color="#b08b2e"/><stop offset="1" stop-color="#8a6632"/></linearGradient><linearGradient x1="522.53017" y1="321.29915" x2="522.53017" y2="321.29915" gradientUnits="userSpaceOnUse" id="color-69"><stop offset="0" stop-color="#b08b2e"/><stop offset="1" stop-color="#8a6632"/></linearGradient><linearGradient x1="552.59273" y1="334.60694" x2="552.59273" y2="335.81675" gradientUnits="userSpaceOnUse" id="color-70"><stop offset="0" stop-color="#b08b2e"/><stop offset="1" stop-color="#8a6632"/></linearGradient><linearGradient x1="480.90512" y1="318.87956" x2="480.90512" y2="320.08936" gradientUnits="userSpaceOnUse" id="color-71"><stop offset="0" stop-color="#b08b2e"/><stop offset="1" stop-color="#8a6632"/></linearGradient><linearGradient x1="520.9885" y1="351.21222" x2="520.9885" y2="394.76496" gradientUnits="userSpaceOnUse" id="color-72"><stop offset="0" stop-color="#b08b2e"/><stop offset="1" stop-color="#8a6632"/></linearGradient><linearGradient x1="493.62389" y1="382.66697" x2="493.62389" y2="382.66697" gradientUnits="userSpaceOnUse" id="color-73"><stop offset="0" stop-color="#b08b2e"/><stop offset="1" stop-color="#8a6632"/></linearGradient><linearGradient x1="522.53017" y1="366.93959" x2="522.53017" y2="366.93959" gradientUnits="userSpaceOnUse" id="color-74"><stop offset="0" stop-color="#b08b2e"/><stop offset="1" stop-color="#8a6632"/></linearGradient><linearGradient x1="552.59273" y1="380.24738" x2="552.59273" y2="381.45719" gradientUnits="userSpaceOnUse" id="color-75"><stop offset="0" stop-color="#b08b2e"/><stop offset="1" stop-color="#8a6632"/></linearGradient><linearGradient x1="480.90513" y1="364.52" x2="480.90513" y2="365.72979" gradientUnits="userSpaceOnUse" id="color-76"><stop offset="0" stop-color="#b08b2e"/><stop offset="1" stop-color="#8a6632"/></linearGradient><linearGradient x1="522.07435" y1="276.24168" x2="522.07435" y2="304.24168" gradientUnits="userSpaceOnUse" id="color-77"><stop offset="0" stop-color="#adadad"/><stop offset="1" stop-color="#9e8c72"/></linearGradient><linearGradient x1="521.07435" y1="424.24168" x2="521.07435" y2="396.24168" gradientUnits="userSpaceOnUse" id="color-78"><stop offset="0" stop-color="#adadad"/><stop offset="1" stop-color="#9e8c72"/></linearGradient><linearGradient x1="447.5781" y1="349.32439" x2="475.5777" y2="349.47808" gradientUnits="userSpaceOnUse" id="color-79"><stop offset="0" stop-color="#adadad"/><stop offset="1" stop-color="#9e8c72"/></linearGradient><linearGradient x1="595.5706" y1="351.15897" x2="567.571" y2="351.00529" gradientUnits="userSpaceOnUse" id="color-80"><stop offset="0" stop-color="#adadad"/><stop offset="1" stop-color="#9e8c72"/></linearGradient><linearGradient x1="462.57435" y1="273.24168" x2="462.57435" y2="307.24168" gradientUnits="userSpaceOnUse" id="color-81"><stop offset="0" stop-color="#b9b9b9"/><stop offset="1" stop-color="#a8a8a8"/></linearGradient><linearGradient x1="581.57435" y1="273.24168" x2="581.57435" y2="307.24168" gradientUnits="userSpaceOnUse" id="color-82"><stop offset="0" stop-color="#b9b9b9"/><stop offset="1" stop-color="#a8a8a8"/></linearGradient><linearGradient x1="582.57435" y1="393.24168" x2="582.57435" y2="427.24168" gradientUnits="userSpaceOnUse" id="color-83"><stop offset="0" stop-color="#b9b9b9"/><stop offset="1" stop-color="#a8a8a8"/></linearGradient><linearGradient x1="461.57435" y1="393.24168" x2="461.57435" y2="427.24168" gradientUnits="userSpaceOnUse" id="color-84"><stop offset="0" stop-color="#b9b9b9"/><stop offset="1" stop-color="#a8a8a8"/></linearGradient></defs><g transform="translate(46.28467,-271.55955)"><g data-paper-data="{&quot;isPaintingLayer&quot;:true}" fill-rule="nonzero" stroke-width="2" stroke-linejoin="miter" stroke-miterlimit="10" stroke-dasharray="" stroke-dashoffset="0" style="mix-blend-mode: normal"><g data-paper-data="{&quot;index&quot;:null}" stroke="#75491c"><path d="M588.86169,325.11552v-29.19316h103.01588v29.19316z" data-paper-data="{&quot;origPos&quot;:null}" fill="url(#color-1)" stroke-linecap="butt"/><path d="M590.62263,317.0063h36.98006" data-paper-data="{&quot;origPos&quot;:null}" fill="url(#color-2)" stroke-linecap="round"/><path d="M672.50707,306.46432h-60.75297" data-paper-data="{&quot;origPos&quot;:null}" fill="url(#color-3)" stroke-linecap="round"/><path d="M691.87757,316.19539l-30.81672,-0.81093" data-paper-data="{&quot;origPos&quot;:null}" fill="url(#color-4)" stroke-linecap="round"/><path d="M600.30788,305.6534l-11.44621,-0.81092" data-paper-data="{&quot;origPos&quot;:null}" fill="url(#color-5)" stroke-linecap="round"/></g><g data-paper-data="{&quot;index&quot;:null}" stroke="#75491c"><path d="M-45.28465,321.36318v-29.19316h103.01588v29.19316z" data-paper-data="{&quot;origPos&quot;:null}" fill="url(#color-6)" stroke-linecap="butt"/><path d="M-43.52371,313.25396h36.98006" data-paper-data="{&quot;origPos&quot;:null}" fill="url(#color-7)" stroke-linecap="round"/><path d="M38.36073,302.71198h-60.75297" data-paper-data="{&quot;origPos&quot;:null}" fill="url(#color-8)" stroke-linecap="round"/><path d="M57.73123,312.44305l-30.81672,-0.81093" data-paper-data="{&quot;origPos&quot;:null}" fill="url(#color-9)" stroke-linecap="round"/><path d="M-33.83846,301.90106l-11.44621,-0.81092" data-paper-data="{&quot;origPos&quot;:null}" fill="url(#color-10)" stroke-linecap="round"/></g><g data-paper-data="{&quot;origPos&quot;:null,&quot;index&quot;:null}" stroke="#75491c"><path d="M258.9658,317.61083v-29.19316h103.01589v29.19316z" data-paper-data="{&quot;origPos&quot;:null}" fill="url(#color-11)" stroke-linecap="butt"/><path d="M323.24067,309.50161h36.98007" data-paper-data="{&quot;origPos&quot;:null}" fill="url(#color-12)" stroke-linecap="round"/><path d="M278.33631,298.95963h60.75297" data-paper-data="{&quot;origPos&quot;:null}" fill="url(#color-13)" stroke-linecap="round"/><path d="M289.78252,307.87977l-30.81672,0.81093" data-paper-data="{&quot;origPos&quot;:null}" fill="url(#color-14)" stroke-linecap="round"/><path d="M350.53549,298.14872l11.44621,-0.81092" data-paper-data="{&quot;origPos&quot;:null}" fill="url(#color-15)" stroke-linecap="round"/></g><g data-paper-data="{&quot;origPos&quot;:null,&quot;index&quot;:null}" stroke="#75491c"><path d="M361.46581,317.61083v-29.19316h103.01589v29.19316z" data-paper-data="{&quot;origPos&quot;:null}" fill="url(#color-16)" stroke-linecap="butt"/><path d="M400.20684,309.50161h-36.98007" data-paper-data="{&quot;origPos&quot;:null}" fill="url(#color-17)" stroke-linecap="round"/><path d="M384.35824,298.95963h60.75296" data-paper-data="{&quot;origPos&quot;:null}" fill="url(#color-18)" stroke-linecap="round"/><path d="M464.48171,308.6907l-30.81672,-0.81093" data-paper-data="{&quot;origPos&quot;:null}" fill="url(#color-19)" stroke-linecap="round"/><path d="M361.46581,297.3378l11.44621,0.81092" data-paper-data="{&quot;origPos&quot;:null}" fill="url(#color-20)" stroke-linecap="round"/></g><g data-paper-data="{&quot;origPos&quot;:null,&quot;index&quot;:null}" stroke="#75491c"><path d="M52.9658,331.25339v-29.19316h103.01588v29.19316z" data-paper-data="{&quot;origPos&quot;:null}" fill="url(#color-21)" stroke-linecap="butt"/><path d="M117.24067,323.14417h36.98006" data-paper-data="{&quot;origPos&quot;:null}" fill="url(#color-22)" stroke-linecap="round"/><path d="M72.3363,312.60219h60.75297" data-paper-data="{&quot;origPos&quot;:null}" fill="url(#color-23)" stroke-linecap="round"/><path d="M83.78252,321.52233l-30.81672,0.81093" data-paper-data="{&quot;origPos&quot;:null}" fill="url(#color-24)" stroke-linecap="round"/><path d="M144.53548,311.79128l11.44621,-0.81092" data-paper-data="{&quot;origPos&quot;:null}" fill="url(#color-25)" stroke-linecap="round"/></g><g data-paper-data="{&quot;origPos&quot;:null,&quot;index&quot;:null}" stroke="#75491c"><path d="M155.46582,317.61083v-29.19316h103.01588v29.19316z" data-paper-data="{&quot;origPos&quot;:null}" fill="url(#color-26)" stroke-linecap="butt"/><path d="M157.22676,309.50161h36.98006" data-paper-data="{&quot;origPos&quot;:null}" fill="url(#color-27)" stroke-linecap="round"/><path d="M239.1112,298.95963h-60.75297" data-paper-data="{&quot;origPos&quot;:null}" fill="url(#color-28)" stroke-linecap="round"/><path d="M258.4817,308.6907l-30.81672,-0.81093" data-paper-data="{&quot;origPos&quot;:null}" fill="url(#color-29)" stroke-linecap="round"/><path d="M166.91201,298.14871l-11.44621,-0.81092" data-paper-data="{&quot;origPos&quot;:null}" fill="url(#color-30)" stroke-linecap="round"/></g><path d="M346.25436,347.94155v-29.19316h103.01589v29.19316z" data-paper-data="{&quot;origPos&quot;:null}" fill="url(#color-31)" stroke="#75491c" stroke-linecap="butt"/><path d="M348.0153,339.83234h36.98007" data-paper-data="{&quot;origPos&quot;:null}" fill="url(#color-32)" stroke="#75491c" stroke-linecap="round"/><path d="M429.89975,329.29036h-60.75297" data-paper-data="{&quot;origPos&quot;:null}" fill="url(#color-33)" stroke="#75491c" stroke-linecap="round"/><path d="M418.45353,338.2105l30.81672,0.81093" data-paper-data="{&quot;origPos&quot;:null}" fill="url(#color-34)" stroke="#75491c" stroke-linecap="round"/><path d="M357.70056,328.47944l-11.44621,-0.81092" data-paper-data="{&quot;origPos&quot;:null}" fill="url(#color-35)" stroke="#75491c" stroke-linecap="round"/><g data-paper-data="{&quot;origPos&quot;:null}" stroke="#75491c"><path d="M140.00435,347.94156v-29.19316h95.34922l-12.33334,7.85642l4.41896,12.03333l-7.08562,9.3034z" data-paper-data="{&quot;origPos&quot;:null}" fill="url(#color-36)" stroke-linecap="butt"/><path d="M159.37485,329.29036h60.75297" data-paper-data="{&quot;origPos&quot;:null}" fill="url(#color-37)" stroke-linecap="round"/><path d="M140.00435,339.02142l30.81672,-0.81093" data-paper-data="{&quot;origPos&quot;:null}" fill="url(#color-38)" stroke-linecap="round"/><path d="M261.8377,347.60455l11.40356,-8.092l-9.75106,-6.40401l6.68083,-7.17775l-13,-7.51941l88.34922,0.33701v29.19316z" data-paper-data="{&quot;origPos&quot;:null}" fill="url(#color-39)" stroke-linecap="butt"/><path d="M266.73011,329.29036h59.41963" data-paper-data="{&quot;origPos&quot;:null}" fill="url(#color-40)" stroke-linecap="round"/><path d="M345.52025,339.02143l-30.81672,-0.81093" data-paper-data="{&quot;origPos&quot;:null}" fill="url(#color-41)" stroke-linecap="round"/><path d="M212.32403,342.63378l11.44621,-0.81092" data-paper-data="{&quot;origPos&quot;:null}" fill="url(#color-42)" stroke-linecap="round"/><path d="M270.32403,341.82287l11.44621,0.81092" data-paper-data="{&quot;origPos&quot;:null,&quot;index&quot;:null}" fill="url(#color-43)" stroke-linecap="round"/></g><path d="M450.00436,347.94156v-29.19316h95.34922l-12.33334,7.85642l4.41895,12.03333l-7.08562,9.3034z" data-paper-data="{&quot;origPos&quot;:null}" fill="url(#color-44)" stroke="#75491c" stroke-linecap="butt"/><path d="M469.37485,329.29036h60.75297" data-paper-data="{&quot;origPos&quot;:null}" fill="url(#color-45)" stroke="#75491c" stroke-linecap="round"/><path d="M450.00435,339.02143l30.81672,-0.81093" data-paper-data="{&quot;origPos&quot;:null}" fill="url(#color-46)" stroke="#75491c" stroke-linecap="round"/><path d="M498.9817,341.82287l-11.44621,0.81092" data-paper-data="{&quot;origPos&quot;:null}" fill="url(#color-47)" stroke="#75491c" stroke-linecap="round"/><path d="M556.9817,342.63379l-11.44621,-0.81092" data-paper-data="{&quot;origPos&quot;:null,&quot;index&quot;:null}" fill="url(#color-48)" stroke="#75491c" stroke-linecap="round"/><g><g data-paper-data="{&quot;origPos&quot;:null,&quot;index&quot;:null}" stroke="#75491c"><path d="M75.48543,348.44239v-43.55272h90.18761v43.55272z" data-paper-data="{&quot;origPos&quot;:null}" fill="url(#color-49)" stroke-linecap="butt"/><path d="M77.02709,336.3444h32.37504" data-paper-data="{&quot;origPos&quot;:null}" fill="url(#color-50)" stroke-linecap="round"/><path d="M148.71468,320.61702h-53.18757" data-paper-data="{&quot;origPos&quot;:null}" fill="url(#color-51)" stroke-linecap="round"/><path d="M165.67302,335.13462l-26.9792,-1.20981" data-paper-data="{&quot;origPos&quot;:null}" fill="url(#color-52)" stroke-linecap="round"/><path d="M85.50626,319.40723l-10.02085,-1.2098" data-paper-data="{&quot;origPos&quot;:null}" fill="url(#color-53)" stroke-linecap="round"/></g><g data-paper-data="{&quot;origPos&quot;:null,&quot;index&quot;:null}" stroke="#75491c"><path d="M75.48542,394.08283v-43.55272h90.18761v43.55272z" data-paper-data="{&quot;origPos&quot;:null}" fill="url(#color-54)" stroke-linecap="butt"/><path d="M109.40213,381.98484h-32.37504" data-paper-data="{&quot;origPos&quot;:null}" fill="url(#color-55)" stroke-linecap="round"/><path d="M95.52711,366.25746h53.18757" data-paper-data="{&quot;origPos&quot;:null}" fill="url(#color-56)" stroke-linecap="round"/><path d="M138.69382,379.56525l26.9792,1.20981" data-paper-data="{&quot;origPos&quot;:null}" fill="url(#color-57)" stroke-linecap="round"/><path d="M75.48541,363.83787l10.02085,1.20979" data-paper-data="{&quot;origPos&quot;:null}" fill="url(#color-58)" stroke-linecap="round"/></g><g data-paper-data="{&quot;origPos&quot;:null}" stroke="#6b6b6b" stroke-linecap="butt"><g data-paper-data="{&quot;origPos&quot;:null}"><path d="M77.66507,303.55955v-28h88v28z" data-paper-data="{&quot;origPos&quot;:null}" fill="url(#color-59)"/><path d="M164.66507,395.55955v28h-88v-28z" data-paper-data="{&quot;origPos&quot;:null,&quot;index&quot;:null}" fill="url(#color-60)"/></g><g data-paper-data="{&quot;origPos&quot;:null,&quot;origRot&quot;:0}"><path d="M74.93218,393.77533l-27.9996,-0.15368l0.47247,-89.95876l27.9996,0.15368z" data-paper-data="{&quot;origPos&quot;:null}" fill="url(#color-61)"/><path d="M167.39796,305.34378l27.9996,0.15368l-0.47248,89.95876l-27.99959,-0.15368z" data-paper-data="{&quot;origPos&quot;:null,&quot;index&quot;:null}" fill="url(#color-62)"/></g></g><g data-paper-data="{&quot;origPos&quot;:null}" fill="#a7a095" stroke="#6b6b6b" stroke-linecap="butt"><g data-paper-data="{&quot;origPos&quot;:null}"><path d="M92.83174,290.22622c0,-4.78647 3.8802,-8.66666 8.66667,-8.66666c4.78647,0 8.66667,3.88019 8.66667,8.66666c0,4.78647 -3.8802,8.66667 -8.66667,8.66667c-4.78647,0 -8.66667,-3.8802 -8.66667,-8.66667z" data-paper-data="{&quot;origPos&quot;:null}"/><path d="M132.83174,290.55955c0,-4.78647 3.8802,-8.66666 8.66667,-8.66666c4.78647,0 8.66666,3.88019 8.66666,8.66666c0,4.78647 -3.8802,8.66667 -8.66666,8.66667c-4.78647,0 -8.66667,-3.8802 -8.66667,-8.66667z" data-paper-data="{&quot;origPos&quot;:null}"/><path d="M93.16507,410.22622c0,-4.78647 3.8802,-8.66667 8.66667,-8.66667c4.78647,0 8.66667,3.8802 8.66667,8.66667c0,4.78647 -3.8802,8.66667 -8.66667,8.66667c-4.78647,0 -8.66667,-3.8802 -8.66667,-8.66667z" data-paper-data="{&quot;origPos&quot;:null}"/><path d="M133.16507,410.55955c0,-4.78647 3.8802,-8.66667 8.66667,-8.66667c4.78647,0 8.66667,3.8802 8.66667,8.66667c0,4.78647 -3.8802,8.66667 -8.66667,8.66667c-4.78647,0 -8.66667,-3.8802 -8.66667,-8.66667z" data-paper-data="{&quot;origPos&quot;:null}"/></g><g data-paper-data="{&quot;origPos&quot;:null,&quot;origRot&quot;:0}"><path d="M181.84382,322.08477c4.78647,0.002 8.66504,3.88383 8.66304,8.6703c-0.002,4.78647 -3.88383,8.66503 -8.6703,8.66303c-4.78647,-0.002 -8.66504,-3.88383 -8.66304,-8.6703c0.002,-4.78647 3.88383,-8.66504 8.6703,-8.66303z" data-paper-data="{&quot;origPos&quot;:null}"/><path d="M181.49372,362.08462c4.78647,0.002 8.66504,3.88383 8.66303,8.6703c-0.002,4.78647 -3.88382,8.66504 -8.67029,8.66303c-4.78647,-0.002 -8.66504,-3.88383 -8.66304,-8.6703c0.002,-4.78647 3.88383,-8.66504 8.6703,-8.66304z" data-paper-data="{&quot;origPos&quot;:null}"/><path d="M61.84369,322.36782c4.78647,0.002 8.66504,3.88383 8.66304,8.6703c-0.00201,4.78647 -3.88383,8.66504 -8.6703,8.66303c-4.78647,-0.002 -8.66504,-3.88383 -8.66304,-8.6703c0.00201,-4.78647 3.88383,-8.66504 8.6703,-8.66304z" data-paper-data="{&quot;origPos&quot;:null}"/><path d="M61.49359,362.36768c4.78647,0.002 8.66504,3.88383 8.66304,8.6703c-0.00201,4.78647 -3.88383,8.66503 -8.6703,8.66303c-4.78647,-0.002 -8.66504,-3.88383 -8.66304,-8.6703c0.00201,-4.78647 3.88383,-8.66504 8.6703,-8.66303z" data-paper-data="{&quot;origPos&quot;:null}"/></g></g><g data-paper-data="{&quot;origPos&quot;:null}" stroke="#6b6b6b" stroke-linecap="butt"><path d="M43.66507,306.55955v-34h37v34z" data-paper-data="{&quot;origPos&quot;:null}" fill="url(#color-63)"/><path d="M52.83174,289.22622c0,-5.52284 4.47715,-10 10,-10c5.52285,0 10,4.47716 10,10c0,3.24695 -2.36557,3.53791 -3.09842,5.39204c-0.59143,1.49633 -1.52069,2.69867 -2.68807,3.80592c-1.13579,1.07729 -2.64808,0.80204 -4.21352,0.80204c0,0 -2.75392,0.61842 -4.36104,-0.45866c-1.38941,-0.93117 -2.6043,-3.87524 -2.74343,-4.10955c-1.06606,-1.79528 -2.89553,0.09105 -2.89553,-5.43179zM53.49841,289.72622c0,1.38071 3.78595,2.16666 5.16667,2.16666c0.91756,0 1.71965,-0.49431 2.15453,-1.23116c1.8634,-1.0648 1.80634,-9.29448 -1.48787,-9.29448c0,0 -3.52884,2.11278 -3.65612,2.37067c-0.77473,1.56984 -2.17721,5.80467 -2.17721,5.9883zM71.4984,289.05955c0,-1.97693 -0.18387,-3.5113 -1.33723,-5.11692c-0.96464,-1.34288 -2.34266,-2.38308 -3.9961,-2.38308c-0.91756,0 -1.55299,-0.67236 -1.98787,0.06449c-1.8799,1.07423 -0.25977,9.93551 2.65454,9.93551c3.24807,0 4.66667,-2.27586 4.66667,-2.5zM60.94712,294.30955l0.67829,-0.17632c0.95162,0.11895 1.86364,0.17632 2.82171,0.17632c0,0 1.25,-1.07692 1.25,-2.32692c0,-1.25 -1.17308,-1.25 -1.17308,-1.25c-0.85996,0 -1.65953,-0.05051 -2.51163,-0.15702l-0.98837,0.15702c0,0 -1.25,0 -1.25,1.25c0,1.25 1.17308,2.32692 1.17308,2.32692z" data-paper-data="{&quot;origPos&quot;:null}" fill="#6b6b6b"/></g><g data-paper-data="{&quot;origPos&quot;:null}" stroke="#6b6b6b" stroke-linecap="butt"><path d="M162.66507,306.55955v-34h37v34z" data-paper-data="{&quot;origPos&quot;:null}" fill="url(#color-64)"/><path d="M171.83174,289.22622c0,-5.52284 4.47716,-10 10,-10c5.52284,0 10,4.47716 10,10c0,3.24695 -2.36557,3.53791 -3.09842,5.39204c-0.59142,1.49633 -1.52069,2.69867 -2.68806,3.80592c-1.13579,1.07729 -2.64808,0.80204 -4.21352,0.80204c0,0 -2.75393,0.61842 -4.36104,-0.45866c-1.38941,-0.93117 -2.60429,-3.87524 -2.74343,-4.10955c-1.06606,-1.79528 -2.89553,0.09105 -2.89553,-5.43179zM172.49841,289.72622c0,1.38071 3.78596,2.16666 5.16666,2.16666c0.91755,0 1.71966,-0.49431 2.15454,-1.23116c1.8634,-1.0648 1.80634,-9.29448 -1.48787,-9.29448c0,0 -3.52884,2.11278 -3.65612,2.37067c-0.77473,1.56984 -2.17721,5.80467 -2.17721,5.9883zM190.4984,289.05955c0,-1.97693 -0.18387,-3.5113 -1.33723,-5.11692c-0.96463,-1.34288 -2.34266,-2.38308 -3.99609,-2.38308c-0.91755,0 -1.553,-0.67236 -1.98788,0.06449c-1.8799,1.07423 -0.25977,9.93551 2.65454,9.93551c3.24807,0 4.66666,-2.27586 4.66666,-2.5zM179.94712,294.30955l0.67829,-0.17632c0.95162,0.11895 1.86363,0.17632 2.82171,0.17632c0,0 1.25,-1.07692 1.25,-2.32692c0,-1.25 -1.17308,-1.25 -1.17308,-1.25c-0.85996,0 -1.65952,-0.05051 -2.51162,-0.15702l-0.98838,0.15702c0,0 -1.25,0 -1.25,1.25c0,1.25 1.17308,2.32692 1.17308,2.32692z" data-paper-data="{&quot;origPos&quot;:null}" fill="#6b6b6b"/></g><g data-paper-data="{&quot;origPos&quot;:null}" stroke="#6b6b6b" stroke-linecap="butt"><path d="M163.66507,426.55955v-34h37v34z" data-paper-data="{&quot;origPos&quot;:null}" fill="url(#color-65)"/><path d="M172.83174,409.22622c0,-5.52285 4.47716,-10 10,-10c5.52284,0 10,4.47715 10,10c0,3.24695 -2.36557,3.53791 -3.09842,5.39204c-0.59142,1.49633 -1.52069,2.69867 -2.68806,3.80592c-1.13579,1.07729 -2.64808,0.80204 -4.21352,0.80204c0,0 -2.75393,0.61842 -4.36104,-0.45866c-1.38941,-0.93117 -2.60429,-3.87524 -2.74343,-4.10955c-1.06606,-1.79528 -2.89553,0.09105 -2.89553,-5.43179zM173.49841,409.72622c0,1.38071 3.78596,2.16666 5.16666,2.16666c0.91755,0 1.71966,-0.49431 2.15454,-1.23116c1.8634,-1.0648 1.80634,-9.29448 -1.48787,-9.29448c0,0 -3.52884,2.11278 -3.65612,2.37067c-0.77473,1.56984 -2.17721,5.80467 -2.17721,5.98831zM191.4984,409.05955c0,-1.97693 -0.18387,-3.5113 -1.33723,-5.11692c-0.96463,-1.34289 -2.34266,-2.38308 -3.99609,-2.38308c-0.91755,0 -1.553,-0.67236 -1.98788,0.0645c-1.8799,1.07423 -0.25977,9.9355 2.65454,9.9355c3.24807,0 4.66666,-2.27585 4.66666,-2.5zM180.94712,414.30955l0.67829,-0.17632c0.95162,0.11895 1.86363,0.17632 2.82171,0.17632c0,0 1.25,-1.07693 1.25,-2.32693c0,-1.25 -1.17308,-1.25 -1.17308,-1.25c-0.85996,0 -1.65952,-0.0505 -2.51162,-0.15702l-0.98838,0.15702c0,0 -1.25,0 -1.25,1.25c0,1.25 1.17308,2.32693 1.17308,2.32693z" data-paper-data="{&quot;origPos&quot;:null}" fill="#6b6b6b"/></g><g data-paper-data="{&quot;origPos&quot;:null}" stroke="#6b6b6b" stroke-linecap="butt"><path d="M42.66507,426.55955v-34h37v34z" data-paper-data="{&quot;origPos&quot;:null}" fill="url(#color-66)"/><path d="M51.83174,409.22622c0,-5.52285 4.47715,-10 10,-10c5.52285,0 10,4.47715 10,10c0,3.24695 -2.36557,3.53791 -3.09842,5.39204c-0.59143,1.49633 -1.52069,2.69867 -2.68807,3.80592c-1.13579,1.07729 -2.64808,0.80204 -4.21352,0.80204c0,0 -2.75392,0.61842 -4.36104,-0.45866c-1.38941,-0.93117 -2.6043,-3.87524 -2.74343,-4.10955c-1.06606,-1.79528 -2.89553,0.09105 -2.89553,-5.43179zM52.49841,409.72622c0,1.38071 3.78595,2.16666 5.16667,2.16666c0.91756,0 1.71965,-0.49431 2.15453,-1.23116c1.8634,-1.0648 1.80634,-9.29448 -1.48787,-9.29448c0,0 -3.52884,2.11278 -3.65612,2.37067c-0.77473,1.56984 -2.17721,5.80467 -2.17721,5.98831zM70.4984,409.05955c0,-1.97693 -0.18387,-3.5113 -1.33723,-5.11692c-0.96464,-1.34289 -2.34266,-2.38308 -3.9961,-2.38308c-0.91756,0 -1.55299,-0.67236 -1.98787,0.0645c-1.8799,1.07423 -0.25977,9.9355 2.65454,9.9355c3.24807,0 4.66667,-2.27585 4.66667,-2.5zM59.94712,414.30955l0.67829,-0.17632c0.95162,0.11895 1.86364,0.17632 2.82171,0.17632c0,0 1.25,-1.07693 1.25,-2.32693c0,-1.25 -1.17308,-1.25 -1.17308,-1.25c-0.85996,0 -1.65953,-0.0505 -2.51163,-0.15702l-0.98837,0.15702c0,0 -1.25,0 -1.25,1.25c0,1.25 1.17308,2.32693 1.17308,2.32693z" data-paper-data="{&quot;origPos&quot;:null}" fill="#6b6b6b"/></g></g><g><g data-paper-data="{&quot;origPos&quot;:null,&quot;index&quot;:null}" stroke="#75491c"><path d="M475.89471,349.12452v-43.55272h90.18761v43.55272z" data-paper-data="{&quot;origPos&quot;:null}" fill="url(#color-67)" stroke-linecap="butt"/><path d="M477.43637,337.02653h32.37504" data-paper-data="{&quot;origPos&quot;:null}" fill="url(#color-68)" stroke-linecap="round"/><path d="M549.12396,321.29915h-53.18757" data-paper-data="{&quot;origPos&quot;:null}" fill="url(#color-69)" stroke-linecap="round"/><path d="M566.0823,335.81675l-26.9792,-1.20981" data-paper-data="{&quot;origPos&quot;:null}" fill="url(#color-70)" stroke-linecap="round"/><path d="M475.89469,318.87956l10.02085,1.2098" data-paper-data="{&quot;origPos&quot;:null}" fill="url(#color-71)" stroke-linecap="round"/></g><g data-paper-data="{&quot;origPos&quot;:null,&quot;index&quot;:null}" stroke="#75491c"><path d="M475.8947,394.76496v-43.55272h90.18761v43.55272z" data-paper-data="{&quot;origPos&quot;:null}" fill="url(#color-72)" stroke-linecap="butt"/><path d="M509.81141,382.66697h-32.37504" data-paper-data="{&quot;origPos&quot;:null}" fill="url(#color-73)" stroke-linecap="round"/><path d="M549.12396,366.93959h-53.18757" data-paper-data="{&quot;origPos&quot;:null}" fill="url(#color-74)" stroke-linecap="round"/><path d="M566.0823,381.45719l-26.9792,-1.20981" data-paper-data="{&quot;origPos&quot;:null}" fill="url(#color-75)" stroke-linecap="round"/><path d="M485.91554,365.72979l-10.02085,-1.20979" data-paper-data="{&quot;origPos&quot;:null}" fill="url(#color-76)" stroke-linecap="round"/></g><g data-paper-data="{&quot;origPos&quot;:null}" stroke="#6b6b6b" stroke-linecap="butt"><g data-paper-data="{&quot;origPos&quot;:null}"><path d="M478.07435,304.24168v-28h88v28z" data-paper-data="{&quot;origPos&quot;:null}" fill="url(#color-77)"/><path d="M565.07435,396.24168v28h-88v-28z" data-paper-data="{&quot;origPos&quot;:null,&quot;index&quot;:null}" fill="url(#color-78)"/></g><g data-paper-data="{&quot;origPos&quot;:null,&quot;origRot&quot;:0}"><path d="M475.34146,394.45746l-27.9996,-0.15368l0.47247,-89.95876l27.9996,0.15368z" data-paper-data="{&quot;origPos&quot;:null}" fill="url(#color-79)"/><path d="M567.80724,306.02591l27.9996,0.15368l-0.47248,89.95876l-27.99959,-0.15368z" data-paper-data="{&quot;origPos&quot;:null,&quot;index&quot;:null}" fill="url(#color-80)"/></g></g><g data-paper-data="{&quot;origPos&quot;:null}" fill="#a7a095" stroke="#6b6b6b" stroke-linecap="butt"><g data-paper-data="{&quot;origPos&quot;:null}"><path d="M493.24102,290.90835c0,-4.78647 3.8802,-8.66666 8.66667,-8.66666c4.78647,0 8.66667,3.88019 8.66667,8.66666c0,4.78647 -3.8802,8.66667 -8.66667,8.66667c-4.78647,0 -8.66667,-3.8802 -8.66667,-8.66667z" data-paper-data="{&quot;origPos&quot;:null}"/><path d="M533.24102,291.24168c0,-4.78647 3.8802,-8.66666 8.66667,-8.66666c4.78647,0 8.66666,3.88019 8.66666,8.66666c0,4.78647 -3.8802,8.66667 -8.66666,8.66667c-4.78647,0 -8.66667,-3.8802 -8.66667,-8.66667z" data-paper-data="{&quot;origPos&quot;:null}"/><path d="M493.57435,410.90835c0,-4.78647 3.8802,-8.66667 8.66667,-8.66667c4.78647,0 8.66667,3.8802 8.66667,8.66667c0,4.78647 -3.8802,8.66667 -8.66667,8.66667c-4.78647,0 -8.66667,-3.8802 -8.66667,-8.66667z" data-paper-data="{&quot;origPos&quot;:null}"/><path d="M533.57435,411.24168c0,-4.78647 3.8802,-8.66667 8.66667,-8.66667c4.78647,0 8.66667,3.8802 8.66667,8.66667c0,4.78647 -3.8802,8.66667 -8.66667,8.66667c-4.78647,0 -8.66667,-3.8802 -8.66667,-8.66667z" data-paper-data="{&quot;origPos&quot;:null}"/></g><g data-paper-data="{&quot;origPos&quot;:null,&quot;origRot&quot;:0}"><path d="M582.2531,322.7669c4.78647,0.002 8.66504,3.88383 8.66304,8.6703c-0.002,4.78647 -3.88383,8.66503 -8.6703,8.66303c-4.78647,-0.002 -8.66504,-3.88383 -8.66304,-8.6703c0.002,-4.78647 3.88383,-8.66504 8.6703,-8.66303z" data-paper-data="{&quot;origPos&quot;:null}"/><path d="M581.903,362.76675c4.78647,0.002 8.66504,3.88383 8.66303,8.6703c-0.002,4.78647 -3.88382,8.66504 -8.67029,8.66303c-4.78647,-0.002 -8.66504,-3.88383 -8.66304,-8.6703c0.002,-4.78647 3.88383,-8.66504 8.6703,-8.66304z" data-paper-data="{&quot;origPos&quot;:null}"/><path d="M462.25297,323.04995c4.78647,0.002 8.66504,3.88383 8.66304,8.6703c-0.00201,4.78647 -3.88383,8.66504 -8.6703,8.66303c-4.78647,-0.002 -8.66504,-3.88383 -8.66304,-8.6703c0.00201,-4.78647 3.88383,-8.66504 8.6703,-8.66304z" data-paper-data="{&quot;origPos&quot;:null}"/><path d="M461.90287,363.04981c4.78647,0.002 8.66504,3.88383 8.66304,8.6703c-0.00201,4.78647 -3.88383,8.66503 -8.6703,8.66303c-4.78647,-0.002 -8.66504,-3.88383 -8.66304,-8.6703c0.00201,-4.78647 3.88383,-8.66504 8.6703,-8.66303z" data-paper-data="{&quot;origPos&quot;:null}"/></g></g><g data-paper-data="{&quot;origPos&quot;:null}" stroke="#6b6b6b" stroke-linecap="butt"><path d="M444.07435,307.24168v-34h37v34z" data-paper-data="{&quot;origPos&quot;:null}" fill="url(#color-81)"/><path d="M453.24102,289.90835c0,-5.52284 4.47715,-10 10,-10c5.52285,0 10,4.47716 10,10c0,3.24695 -2.36557,3.53791 -3.09842,5.39204c-0.59143,1.49633 -1.52069,2.69867 -2.68807,3.80592c-1.13579,1.07729 -2.64808,0.80204 -4.21352,0.80204c0,0 -2.75392,0.61842 -4.36104,-0.45866c-1.38941,-0.93117 -2.6043,-3.87524 -2.74343,-4.10955c-1.06606,-1.79528 -2.89553,0.09105 -2.89553,-5.43179zM453.90769,290.40835c0,1.38071 3.78595,2.16666 5.16667,2.16666c0.91756,0 1.71965,-0.49431 2.15453,-1.23116c1.8634,-1.0648 1.80634,-9.29448 -1.48787,-9.29448c0,0 -3.52884,2.11278 -3.65612,2.37067c-0.77473,1.56984 -2.17721,5.80467 -2.17721,5.9883zM471.90768,289.74168c0,-1.97693 -0.18387,-3.5113 -1.33723,-5.11692c-0.96464,-1.34288 -2.34266,-2.38308 -3.9961,-2.38308c-0.91756,0 -1.55299,-0.67236 -1.98787,0.06449c-1.8799,1.07423 -0.25977,9.93551 2.65454,9.93551c3.24807,0 4.66667,-2.27586 4.66667,-2.5zM461.3564,294.99168l0.67829,-0.17632c0.95162,0.11895 1.86364,0.17632 2.82171,0.17632c0,0 1.25,-1.07692 1.25,-2.32692c0,-1.25 -1.17308,-1.25 -1.17308,-1.25c-0.85996,0 -1.65953,-0.05051 -2.51163,-0.15702l-0.98837,0.15702c0,0 -1.25,0 -1.25,1.25c0,1.25 1.17308,2.32692 1.17308,2.32692z" data-paper-data="{&quot;origPos&quot;:null}" fill="#6b6b6b"/></g><g data-paper-data="{&quot;origPos&quot;:null}" stroke="#6b6b6b" stroke-linecap="butt"><path d="M563.07435,307.24168v-34h37v34z" data-paper-data="{&quot;origPos&quot;:null}" fill="url(#color-82)"/><path d="M572.24102,289.90835c0,-5.52284 4.47716,-10 10,-10c5.52284,0 10,4.47716 10,10c0,3.24695 -2.36557,3.53791 -3.09842,5.39204c-0.59142,1.49633 -1.52069,2.69867 -2.68806,3.80592c-1.13579,1.07729 -2.64808,0.80204 -4.21352,0.80204c0,0 -2.75393,0.61842 -4.36104,-0.45866c-1.38941,-0.93117 -2.60429,-3.87524 -2.74343,-4.10955c-1.06606,-1.79528 -2.89553,0.09105 -2.89553,-5.43179zM572.90769,290.40835c0,1.38071 3.78596,2.16666 5.16666,2.16666c0.91755,0 1.71966,-0.49431 2.15454,-1.23116c1.8634,-1.0648 1.80634,-9.29448 -1.48787,-9.29448c0,0 -3.52884,2.11278 -3.65612,2.37067c-0.77473,1.56984 -2.17721,5.80467 -2.17721,5.9883zM590.90768,289.74168c0,-1.97693 -0.18387,-3.5113 -1.33723,-5.11692c-0.96463,-1.34288 -2.34266,-2.38308 -3.99609,-2.38308c-0.91755,0 -1.553,-0.67236 -1.98788,0.06449c-1.8799,1.07423 -0.25977,9.93551 2.65454,9.93551c3.24807,0 4.66666,-2.27586 4.66666,-2.5zM580.3564,294.99168l0.67829,-0.17632c0.95162,0.11895 1.86363,0.17632 2.82171,0.17632c0,0 1.25,-1.07692 1.25,-2.32692c0,-1.25 -1.17308,-1.25 -1.17308,-1.25c-0.85996,0 -1.65952,-0.05051 -2.51162,-0.15702l-0.98838,0.15702c0,0 -1.25,0 -1.25,1.25c0,1.25 1.17308,2.32692 1.17308,2.32692z" data-paper-data="{&quot;origPos&quot;:null}" fill="#6b6b6b"/></g><g data-paper-data="{&quot;origPos&quot;:null}" stroke="#6b6b6b" stroke-linecap="butt"><path d="M564.07435,427.24168v-34h37v34z" data-paper-data="{&quot;origPos&quot;:null}" fill="url(#color-83)"/><path d="M573.24102,409.90835c0,-5.52285 4.47716,-10 10,-10c5.52284,0 10,4.47715 10,10c0,3.24695 -2.36557,3.53791 -3.09842,5.39204c-0.59142,1.49633 -1.52069,2.69867 -2.68806,3.80592c-1.13579,1.07729 -2.64808,0.80204 -4.21352,0.80204c0,0 -2.75393,0.61842 -4.36104,-0.45866c-1.38941,-0.93117 -2.60429,-3.87524 -2.74343,-4.10955c-1.06606,-1.79528 -2.89553,0.09105 -2.89553,-5.43179zM573.90769,410.40835c0,1.38071 3.78596,2.16666 5.16666,2.16666c0.91755,0 1.71966,-0.49431 2.15454,-1.23116c1.8634,-1.0648 1.80634,-9.29448 -1.48787,-9.29448c0,0 -3.52884,2.11278 -3.65612,2.37067c-0.77473,1.56984 -2.17721,5.80467 -2.17721,5.98831zM591.90768,409.74168c0,-1.97693 -0.18387,-3.5113 -1.33723,-5.11692c-0.96463,-1.34289 -2.34266,-2.38308 -3.99609,-2.38308c-0.91755,0 -1.553,-0.67236 -1.98788,0.0645c-1.8799,1.07423 -0.25977,9.9355 2.65454,9.9355c3.24807,0 4.66666,-2.27585 4.66666,-2.5zM581.3564,414.99168l0.67829,-0.17632c0.95162,0.11895 1.86363,0.17632 2.82171,0.17632c0,0 1.25,-1.07693 1.25,-2.32693c0,-1.25 -1.17308,-1.25 -1.17308,-1.25c-0.85996,0 -1.65952,-0.0505 -2.51162,-0.15702l-0.98838,0.15702c0,0 -1.25,0 -1.25,1.25c0,1.25 1.17308,2.32693 1.17308,2.32693z" data-paper-data="{&quot;origPos&quot;:null}" fill="#6b6b6b"/></g><g data-paper-data="{&quot;origPos&quot;:null}" stroke="#6b6b6b" stroke-linecap="butt"><path d="M443.07435,427.24168v-34h37v34z" data-paper-data="{&quot;origPos&quot;:null}" fill="url(#color-84)"/><path d="M452.24102,409.90835c0,-5.52285 4.47715,-10 10,-10c5.52285,0 10,4.47715 10,10c0,3.24695 -2.36557,3.53791 -3.09842,5.39204c-0.59143,1.49633 -1.52069,2.69867 -2.68807,3.80592c-1.13579,1.07729 -2.64808,0.80204 -4.21352,0.80204c0,0 -2.75392,0.61842 -4.36104,-0.45866c-1.38941,-0.93117 -2.6043,-3.87524 -2.74343,-4.10955c-1.06606,-1.79528 -2.89553,0.09105 -2.89553,-5.43179zM452.90769,410.40835c0,1.38071 3.78595,2.16666 5.16667,2.16666c0.91756,0 1.71965,-0.49431 2.15453,-1.23116c1.8634,-1.0648 1.80634,-9.29448 -1.48787,-9.29448c0,0 -3.52884,2.11278 -3.65612,2.37067c-0.77473,1.56984 -2.17721,5.80467 -2.17721,5.98831zM470.90768,409.74168c0,-1.97693 -0.18387,-3.5113 -1.33723,-5.11692c-0.96464,-1.34289 -2.34266,-2.38308 -3.9961,-2.38308c-0.91756,0 -1.55299,-0.67236 -1.98787,0.0645c-1.8799,1.07423 -0.25977,9.9355 2.65454,9.9355c3.24807,0 4.66667,-2.27585 4.66667,-2.5zM460.3564,414.99168l0.67829,-0.17632c0.95162,0.11895 1.86364,0.17632 2.82171,0.17632c0,0 1.25,-1.07693 1.25,-2.32693c0,-1.25 -1.17308,-1.25 -1.17308,-1.25c-0.85996,0 -1.65953,-0.0505 -2.51163,-0.15702l-0.98837,0.15702c0,0 -1.25,0 -1.25,1.25c0,1.25 1.17308,2.32693 1.17308,2.32693z" data-paper-data="{&quot;origPos&quot;:null}" fill="#6b6b6b"/></g></g></g></g></svg>