<svg version="1.1" xmlns="http://www.w3.org/2000/svg" xmlns:xlink="http://www.w3.org/1999/xlink" width="35.30526" height="35.30526" viewBox="0,0,35.30526,35.30526"><defs><linearGradient x1="240.08888" y1="163.06125" x2="240.08888" y2="197.11651" gradientUnits="userSpaceOnUse" id="color-1"><stop offset="0" stop-color="#ed663b"/><stop offset="1" stop-color="#c72a2a"/></linearGradient></defs><g transform="translate(-222.43625,-162.43625)"><g data-paper-data="{&quot;isPaintingLayer&quot;:true}" fill-rule="nonzero" stroke-linejoin="miter" stroke-miterlimit="10" stroke-dasharray="" stroke-dashoffset="0" style="mix-blend-mode: normal"><path d="M240.08888,163.06125c4.69771,0 8.95515,1.90752 12.0371,4.99053c3.08301,3.08195 4.99053,7.33939 4.99053,12.0371c0,4.69771 -1.90752,8.95515 -4.99053,12.0371c-3.08195,3.08301 -7.33939,4.99053 -12.0371,4.99053c-4.69771,0 -8.95515,-1.90752 -12.0371,-4.99053c-3.08301,-3.08195 -4.99053,-7.33939 -4.99053,-12.0371c0,-4.69771 1.90752,-8.95515 4.99053,-12.0371c3.08195,-3.08301 7.33939,-4.99053 12.0371,-4.99053z" data-paper-data="{&quot;origPos&quot;:null}" fill="url(#color-1)" stroke="#8c2323" stroke-width="1.25" stroke-linecap="butt"/><g fill="#ffffff" stroke-width="3" stroke-linecap="butt"><path d="M234.07643,188.24875l-0.19529,1.55136h1.2868l-0.23245,1.55136l-1.25381,-0.0651l-0.1626,2.64288l-1.75111,-0.29726l0.1302,-2.50821l-1.25411,-0.16706l0.16706,-1.55136l1.22171,0.23216l-0.03715,-1.71842z" stroke="#8c2323"/><path d="M237.53199,189.29389l1.8718,0.57578l1.09121,1.58376l-0.71965,1.98802l-2.18778,0.4878l-1.8391,-1.12421l-0.06035,-2.07125l-0.02794,-0.08383l1.84385,-1.35607zM237.41576,190.99388l-0.08353,1.3513l1.03563,0.23245l0.37156,-1.24013l-1.32367,-0.37157z" stroke="#23578c"/><path d="M239.40379,189.86967l1.09121,1.58376l-0.71965,1.98802l-2.18778,0.4878l-1.8391,-1.12421l-0.08829,-2.15508l1.84385,-1.35607zM237.41576,190.99388l-0.08353,1.3513l1.03563,0.23245l0.37156,-1.24013l-1.32367,-0.37157z" stroke="#8c2323"/></g><g><g fill="none" stroke="#8c2323"><path d="M233.91351,167.5295l4.5516,7.24138l-6.71453,-0.02927z" stroke-width="2.5" stroke-linecap="round"/><path d="M234.08059,172.23232c0.85739,-0.73362 1.8993,-1.27725 3.07476,-1.54918c3.89982,-0.90222 7.79264,1.52782 8.69485,5.42764c0.90222,3.89982 -1.52782,7.79264 -5.42764,8.69486c-2.96536,0.68603 -6.34213,-0.72514 -8.41442,-3.71373" data-paper-data="{&quot;origPos&quot;:null,&quot;origRot&quot;:0}" stroke-width="6" stroke-linecap="butt"/></g><g><path d="M233.81351,167.5295l4.5516,7.24138l-6.71453,-0.02927z" fill="#ffffff" stroke="none" stroke-width="1.1379" stroke-linecap="round"/><path d="M234.08059,172.23232c0.85739,-0.73362 1.8993,-1.27725 3.07476,-1.54918c3.89982,-0.90222 7.79264,1.52782 8.69485,5.42764c0.90222,3.89982 -1.52782,7.79264 -5.42764,8.69486c-2.96536,0.68603 -5.9267,-0.44792 -7.57225,-2.7964" data-paper-data="{&quot;origPos&quot;:null,&quot;origRot&quot;:0}" fill="none" stroke="#ffffff" stroke-width="3.5" stroke-linecap="butt"/></g></g><g fill="#ffffff" stroke="#ffbf38" stroke-width="0" stroke-linecap="butt"><path d="M234.07644,188.24875l-0.1953,1.55136h1.28681l-0.23245,1.55136l-1.25382,-0.0651l-0.1626,2.64288l-1.75112,-0.29726l0.1302,-2.50822l-1.25411,-0.16706l0.16706,-1.55136l1.22171,0.23216l-0.03715,-1.71842z"/><path d="M237.53199,189.29388l1.87179,0.57577l1.09122,1.58376l-0.71966,1.98802l-2.18777,0.4878l-1.83909,-1.12421l-0.06035,-2.07125l-0.02794,-0.08383l1.84386,-1.35607zM237.41576,190.99387l-0.08353,1.35131l1.03563,0.23245l0.37156,-1.24013l-1.32367,-0.37157z"/><path d="M239.40379,189.86966l1.09122,1.58376l-0.71966,1.98802l-2.18777,0.4878l-1.83909,-1.12421l-0.08829,-2.15508l1.84386,-1.35607zM237.41576,190.99387l-0.08353,1.35131l1.03563,0.23245l0.37156,-1.24013l-1.32367,-0.37157z"/></g><g stroke-linecap="butt"><g stroke="#8c2323" stroke-width="2.5"><path d="M242.51602,188.91912l-0.23691,-5.43055l8.99057,-0.39222l0.23692,5.43057z" fill="#8c2323"/><path d="M245.90107,193.55638v-5.20517h1.74481v5.20517z" fill="#ffffff"/><path d="M245.90107,184.0444v-1.89918h1.74481v1.89918z" fill="#ffffff"/></g><g fill="#ffffff"><path d="M242.51602,188.91911l-0.23691,-5.43055l8.99057,-0.39222l0.23692,5.43056zM247.19446,186.65301l-0.43979,1.37937l2.93848,-2.35579l-3.07159,-1.53453l0.44793,1.33519l-3.1074,-0.44275l0.22433,2.12263z" stroke="#000000" stroke-width="0"/><path d="M245.90107,193.55637v-5.20517h1.74481v5.20517z" stroke="none" stroke-width="NaN"/><path d="M245.90107,184.04438v-1.89917h1.74481v1.89917z" stroke="none" stroke-width="NaN"/></g></g></g></g></svg>