<svg version="1.1" xmlns="http://www.w3.org/2000/svg" xmlns:xlink="http://www.w3.org/1999/xlink" width="35.30526" height="35.30526" viewBox="0,0,35.30526,35.30526"><defs><linearGradient x1="240.08888" y1="163.06125" x2="240.08888" y2="197.11651" gradientUnits="userSpaceOnUse" id="color-1"><stop offset="0" stop-color="#3c94ed"/><stop offset="1" stop-color="#296ec6"/></linearGradient></defs><g transform="translate(-222.43625,-162.43625)"><g data-paper-data="{&quot;isPaintingLayer&quot;:true}" fill-rule="nonzero" stroke-linejoin="miter" stroke-miterlimit="10" stroke-dasharray="" stroke-dashoffset="0" style="mix-blend-mode: normal"><path d="M240.08888,163.06125c4.69771,0 8.95515,1.90752 12.0371,4.99053c3.08301,3.08195 4.99053,7.33939 4.99053,12.0371c0,4.69771 -1.90752,8.95515 -4.99053,12.0371c-3.08195,3.08301 -7.33939,4.99053 -12.0371,4.99053c-4.69771,0 -8.95515,-1.90752 -12.0371,-4.99053c-3.08301,-3.08195 -4.99053,-7.33939 -4.99053,-12.0371c0,-4.69771 1.90752,-8.95515 4.99053,-12.0371c3.08195,-3.08301 7.33939,-4.99053 12.0371,-4.99053z" data-paper-data="{&quot;origPos&quot;:null}" id="ID0.4039921844378114" fill="url(#color-1)" stroke="#23568d" stroke-width="1.25" stroke-linecap="butt"/><g data-paper-data="{&quot;origPos&quot;:null}" id="ID0.29553776467218995" fill="none" stroke="#23578c" stroke-width="4.5" stroke-linecap="round"><path d="M232.2,187.30001h16.5" id="ID0.10867395671084523"/><g id="ID0.37869906052947044"><path d="M240.5,183.65001v3.25z" id="ID0.9504391811788082"/><path d="M232.15,172.90001l16.5,0.1v10.1l-16.5,-0.1v-10z" id="ID0.08591015869751573"/></g></g><g id="ID0.29553776467218995" fill="none" stroke="#ffffff" stroke-width="2" stroke-linecap="round"><path d="M232.2,187.30001h16.5" id="ID0.10867395671084523"/><g id="ID0.37869906052947044"><path d="M240.5,183.65001v3.25z" id="ID0.9504391811788082"/><path d="M232.15,172.90001l16.5,0.1v10.1l-16.5,-0.1v-10z" id="ID0.08591015869751573"/></g></g></g></g></svg>