<svg version="1.1" xmlns="http://www.w3.org/2000/svg" xmlns:xlink="http://www.w3.org/1999/xlink" width="390.50001" height="102" viewBox="0,0,390.50001,102"><defs><linearGradient x1="393.00006" y1="89" x2="393.00006" y2="161" gradientUnits="userSpaceOnUse" id="color-1"><stop offset="0" stop-color="#3056a6"/><stop offset="1" stop-color="#3473b3"/></linearGradient><linearGradient x1="329.00006" y1="73" x2="329.00006" y2="145" gradientUnits="userSpaceOnUse" id="color-2"><stop offset="0" stop-color="#2f50a3"/><stop offset="1" stop-color="#336baf"/></linearGradient><linearGradient x1="105.50005" y1="75" x2="105.50005" y2="147" gradientUnits="userSpaceOnUse" id="color-3"><stop offset="0" stop-color="#3056a6"/><stop offset="1" stop-color="#3473b3"/></linearGradient><linearGradient x1="169.50005" y1="59" x2="169.50005" y2="131" gradientUnits="userSpaceOnUse" id="color-4"><stop offset="0" stop-color="#2f50a3"/><stop offset="1" stop-color="#336baf"/></linearGradient></defs><g transform="translate(-54.00005,-59)"><g data-paper-data="{&quot;isPaintingLayer&quot;:true}" fill-rule="nonzero" stroke="none" stroke-width="1" stroke-linecap="butt" stroke-linejoin="miter" stroke-miterlimit="10" stroke-dasharray="" stroke-dashoffset="0" style="mix-blend-mode: normal"><g data-paper-data="{&quot;origPos&quot;:null}"><path d="M429.40607,99.551c9.323,6.517 15.094,15.517 15.094,25.449c0,9.932 -5.771,18.932 -15.094,25.449c-9.323,6.517 -22.198,10.551 -36.406,10.551c-14.208,0 -27.083,-4.034 -36.406,-10.551c-9.323,-6.517 -15.094,-15.517 -15.094,-25.449c0,-9.932 5.771,-18.932 15.094,-25.449c9.323,-6.517 22.198,-10.551 36.406,-10.551c14.208,0 27.083,4.034 36.406,10.551z" fill="url(#color-1)"/><path d="M365.40607,83.551c9.323,6.517 15.094,15.517 15.094,25.449c0,9.932 -5.771,18.932 -15.094,25.449c-9.323,6.517 -22.198,10.551 -36.406,10.551c-14.208,0 -27.083,-4.034 -36.406,-10.551c-9.323,-6.517 -15.094,-15.517 -15.094,-25.449c0,-9.932 5.771,-18.932 15.094,-25.449c9.323,-6.517 22.198,-10.551 36.406,-10.551c14.208,0 27.083,4.034 36.406,10.551z" fill="url(#color-2)"/><g fill="none" font-family="sans-serif" font-weight="normal" font-size="12" text-anchor="start"/></g><g data-paper-data="{&quot;origPos&quot;:null}"><path d="M105.50005,75c14.208,0 27.083,4.034 36.406,10.551c9.323,6.517 15.094,15.517 15.094,25.449c0,9.932 -5.771,18.932 -15.094,25.449c-9.323,6.517 -22.198,10.551 -36.406,10.551c-14.208,0 -27.083,-4.034 -36.406,-10.551c-9.323,-6.517 -15.094,-15.517 -15.094,-25.449c0,-9.932 5.771,-18.932 15.094,-25.449c9.323,-6.517 22.198,-10.551 36.406,-10.551z" fill="url(#color-3)"/><path d="M169.50005,59c14.208,0 27.083,4.034 36.406,10.551c9.323,6.517 15.094,15.517 15.094,25.449c0,9.932 -5.771,18.932 -15.094,25.449c-9.323,6.517 -22.198,10.551 -36.406,10.551c-14.208,0 -27.083,-4.034 -36.406,-10.551c-9.323,-6.517 -15.094,-15.517 -15.094,-25.449c0,-9.932 5.771,-18.932 15.094,-25.449c9.323,-6.517 22.198,-10.551 36.406,-10.551z" fill="url(#color-4)"/><g fill="none" font-family="sans-serif" font-weight="normal" font-size="12" text-anchor="start"/></g><g fill="#181832"><path d="M365.50005,114.25c0,0 -0.504,5.127 -1.319,6.892c-0.814,1.765 -1.939,2.858 -3.181,2.858c-1.242,0 -2.367,-1.093 -3.181,-2.858c-0.815,-1.765 -1.319,-6.892 -1.319,-6.892c0,0 2.35528,2.91105 4.40083,2.91105c2.04555,0 4.59917,-2.91105 4.59917,-2.91105z"/><path d="M386.30004,114.45c0,0 -0.504,5.127 -1.319,6.892c-0.814,1.765 -1.939,2.858 -3.181,2.858c-1.242,0 -2.367,-1.093 -3.181,-2.858c-0.815,-1.765 -1.319,-6.892 -1.319,-6.892c0,0 2.35528,2.91105 4.40083,2.91105c2.04555,0 4.59917,-2.91105 4.59917,-2.91105z"/></g><g fill="#181832"><path d="M121.50004,100.25c0,0 -0.504,5.127 -1.319,6.892c-0.814,1.765 -1.939,2.858 -3.181,2.858c-1.242,0 -2.367,-1.093 -3.181,-2.858c-0.815,-1.765 -1.319,-6.892 -1.319,-6.892c0,0 2.35528,2.91105 4.40083,2.91105c2.04555,0 4.59917,-2.91105 4.59917,-2.91105z"/><path d="M142.30003,100.45c0,0 -0.504,5.127 -1.319,6.892c-0.814,1.765 -1.939,2.858 -3.181,2.858c-1.242,0 -2.367,-1.093 -3.181,-2.858c-0.815,-1.765 -1.319,-6.892 -1.319,-6.892c0,0 2.35528,2.91105 4.40083,2.91105c2.04555,0 4.59917,-2.91105 4.59917,-2.91105z"/></g></g></g></svg>