<svg version="1.1" xmlns="http://www.w3.org/2000/svg" xmlns:xlink="http://www.w3.org/1999/xlink" width="686.78294" height="378.25616" viewBox="0,0,686.78294,378.25616"><defs><linearGradient x1="218.97513" y1="186.32237" x2="218.97513" y2="359.93233" gradientUnits="userSpaceOnUse" id="color-1"><stop offset="0" stop-color="#a5a5a5"/><stop offset="1" stop-color="#989898"/></linearGradient><linearGradient x1="64.32733" y1="186.45651" x2="64.32733" y2="217.98807" gradientUnits="userSpaceOnUse" id="color-2"><stop offset="0" stop-color="#afafaf"/><stop offset="1" stop-color="#9c9c9c"/></linearGradient><radialGradient cx="-1.23725" cy="180.00012" r="180.93093" gradientUnits="userSpaceOnUse" id="color-3"><stop offset="0" stop-color="#afafaf"/><stop offset="1" stop-color="#616161"/></radialGradient><linearGradient x1="-18.87989" y1="180.00012" x2="16.4054" y2="180.00012" gradientUnits="userSpaceOnUse" id="color-4"><stop offset="0" stop-color="#afafaf" stop-opacity="0"/><stop offset="1" stop-color="#afafaf"/></linearGradient></defs><g transform="translate(87.78294,3.40033)"><g data-paper-data="{&quot;isPaintingLayer&quot;:true}" fill-rule="nonzero" stroke-linejoin="miter" stroke-miterlimit="10" stroke-dasharray="" stroke-dashoffset="0" style="mix-blend-mode: normal"><path d="M335.91801,374.85583h-423.70095l4.39888,-378.25616l77.18043,0.3948l0.0293,180.68719l31.25,23h106.63814z" data-paper-data="{&quot;index&quot;:null}" fill="#272727" stroke="#000000" stroke-width="0" stroke-linecap="round"/><g data-paper-data="{&quot;index&quot;:null}" fill="#cc1919" stroke="none" stroke-linecap="butt"><path d="M567.98894,236.00009h-152.98894l-53,-26h205.98894z" data-paper-data="{&quot;index&quot;:null}" stroke-width="1"/><path d="M441.011,211.45657h-134.011l40,-26h46z" data-paper-data="{&quot;index&quot;:null}" stroke-width="0.85398"/></g><path d="M288.43024,359.78261l-207.14465,-173.4602h52.79526l207.56881,173.60992z" data-paper-data="{&quot;index&quot;:null}" fill="url(#color-1)" stroke="none" stroke-width="0" stroke-linecap="butt"/><path d="M9.9895,217.98807l-28.8821,-31.53153h153.03975v31.53153z" data-paper-data="{&quot;index&quot;:null}" fill="url(#color-2)" stroke="none" stroke-width="0" stroke-linecap="butt"/><g data-paper-data="{&quot;index&quot;:null}" stroke="none" stroke-width="0" stroke-linecap="butt"><path d="M16.4054,187.47906l-35.28529,-1v-187.40985h35.28529z" fill="url(#color-3)"/><path d="M16.4054,187.47906l-35.28529,-1v-187.40985h35.28529z" fill="url(#color-4)"/></g><path d="M474.20846,365.15002v-130h124.79154v130z" fill-opacity="0.01961" fill="#000000" stroke="none" stroke-width="none" stroke-linecap="butt"/></g></g></svg>