<svg version="1.1" xmlns="http://www.w3.org/2000/svg" xmlns:xlink="http://www.w3.org/1999/xlink" width="530.31172" height="399.34048" viewBox="0,0,530.31172,399.34048"><defs><linearGradient x1="486.07699" y1="-3.73664" x2="486.07699" y2="369.46516" gradientUnits="userSpaceOnUse" id="color-1"><stop offset="0" stop-color="#7fb8ff"/><stop offset="1" stop-color="#a0ff7b"/></linearGradient><linearGradient x1="126.27493" y1="275.86644" x2="126.27493" y2="391.86644" gradientUnits="userSpaceOnUse" id="color-2"><stop offset="0" stop-color="#75d1ff"/><stop offset="1" stop-color="#75d1ff" stop-opacity="0"/></linearGradient><linearGradient x1="179.58743" y1="249.65981" x2="179.58743" y2="371.25955" gradientUnits="userSpaceOnUse" id="color-3"><stop offset="0" stop-color="#f5e862"/><stop offset="1" stop-color="#e0bc5c"/></linearGradient><linearGradient x1="503.29657" y1="216.09198" x2="503.29657" y2="237.74842" gradientUnits="userSpaceOnUse" id="color-4"><stop offset="0" stop-color="#70b562"/><stop offset="1" stop-color="#457d49"/></linearGradient><linearGradient x1="495.13729" y1="201.95518" x2="495.13729" y2="223.61159" gradientUnits="userSpaceOnUse" id="color-5"><stop offset="0" stop-color="#70b562"/><stop offset="1" stop-color="#457d49"/></linearGradient><linearGradient x1="476.28653" y1="193.53324" x2="476.28653" y2="215.18966" gradientUnits="userSpaceOnUse" id="color-6"><stop offset="0" stop-color="#70b562"/><stop offset="1" stop-color="#457d49"/></linearGradient><linearGradient x1="472.34757" y1="211.88103" x2="472.34757" y2="233.53746" gradientUnits="userSpaceOnUse" id="color-7"><stop offset="0" stop-color="#70b562"/><stop offset="1" stop-color="#457d49"/></linearGradient><linearGradient x1="485.57123" y1="216.09198" x2="485.57123" y2="237.74842" gradientUnits="userSpaceOnUse" id="color-8"><stop offset="0" stop-color="#70b562"/><stop offset="1" stop-color="#457d49"/></linearGradient><linearGradient x1="455.18495" y1="215.79122" x2="455.18495" y2="237.44764" gradientUnits="userSpaceOnUse" id="color-9"><stop offset="0" stop-color="#70b562"/><stop offset="1" stop-color="#457d49"/></linearGradient><linearGradient x1="454.05952" y1="200.15048" x2="454.05952" y2="221.80689" gradientUnits="userSpaceOnUse" id="color-10"><stop offset="0" stop-color="#70b562"/><stop offset="1" stop-color="#457d49"/></linearGradient><linearGradient x1="437.60028" y1="186.31443" x2="437.60028" y2="207.97085" gradientUnits="userSpaceOnUse" id="color-11"><stop offset="0" stop-color="#70b562"/><stop offset="1" stop-color="#457d49"/></linearGradient><linearGradient x1="422.96985" y1="197.44342" x2="422.96985" y2="219.09981" gradientUnits="userSpaceOnUse" id="color-12"><stop offset="0" stop-color="#70b562"/><stop offset="1" stop-color="#457d49"/></linearGradient><linearGradient x1="436.75622" y1="204.06066" x2="436.75622" y2="225.71708" gradientUnits="userSpaceOnUse" id="color-13"><stop offset="0" stop-color="#70b562"/><stop offset="1" stop-color="#457d49"/></linearGradient><linearGradient x1="386.25308" y1="189.02149" x2="386.25308" y2="210.67788" gradientUnits="userSpaceOnUse" id="color-14"><stop offset="0" stop-color="#70b562"/><stop offset="1" stop-color="#457d49"/></linearGradient><linearGradient x1="426.48678" y1="215.18966" x2="426.48678" y2="236.84607" gradientUnits="userSpaceOnUse" id="color-15"><stop offset="0" stop-color="#70b562"/><stop offset="1" stop-color="#457d49"/></linearGradient><linearGradient x1="404.82247" y1="204.36143" x2="404.82247" y2="226.01786" gradientUnits="userSpaceOnUse" id="color-16"><stop offset="0" stop-color="#70b562"/><stop offset="1" stop-color="#457d49"/></linearGradient><linearGradient x1="383.58021" y1="204.96302" x2="383.58021" y2="226.61943" gradientUnits="userSpaceOnUse" id="color-17"><stop offset="0" stop-color="#70b562"/><stop offset="1" stop-color="#457d49"/></linearGradient><linearGradient x1="389.62933" y1="213.9865" x2="389.62933" y2="235.64294" gradientUnits="userSpaceOnUse" id="color-18"><stop offset="0" stop-color="#70b562"/><stop offset="1" stop-color="#457d49"/></linearGradient><linearGradient x1="406.08857" y1="216.09198" x2="406.08857" y2="237.74842" gradientUnits="userSpaceOnUse" id="color-19"><stop offset="0" stop-color="#70b562"/><stop offset="1" stop-color="#457d49"/></linearGradient><linearGradient x1="439.00705" y1="220.30296" x2="439.00705" y2="241.95939" gradientUnits="userSpaceOnUse" id="color-20"><stop offset="0" stop-color="#70b562"/><stop offset="1" stop-color="#457d49"/></linearGradient><linearGradient x1="471.08147" y1="222.70924" x2="471.08147" y2="244.36567" gradientUnits="userSpaceOnUse" id="color-21"><stop offset="0" stop-color="#70b562"/><stop offset="1" stop-color="#457d49"/></linearGradient><linearGradient x1="380.76666" y1="222.40845" x2="380.76666" y2="244.06488" gradientUnits="userSpaceOnUse" id="color-22"><stop offset="0" stop-color="#70b562"/><stop offset="1" stop-color="#457d49"/></linearGradient><linearGradient x1="371.86008" y1="216.09198" x2="371.86008" y2="237.74842" gradientUnits="userSpaceOnUse" id="color-23"><stop offset="0" stop-color="#70b562"/><stop offset="1" stop-color="#457d49"/></linearGradient><linearGradient x1="363.7008" y1="201.95517" x2="363.7008" y2="223.61159" gradientUnits="userSpaceOnUse" id="color-24"><stop offset="0" stop-color="#70b562"/><stop offset="1" stop-color="#457d49"/></linearGradient><linearGradient x1="344.85006" y1="193.53324" x2="344.85006" y2="215.18966" gradientUnits="userSpaceOnUse" id="color-25"><stop offset="0" stop-color="#70b562"/><stop offset="1" stop-color="#457d49"/></linearGradient><linearGradient x1="340.91108" y1="211.88103" x2="340.91108" y2="233.53746" gradientUnits="userSpaceOnUse" id="color-26"><stop offset="0" stop-color="#70b562"/><stop offset="1" stop-color="#457d49"/></linearGradient><linearGradient x1="354.13475" y1="216.09198" x2="354.13475" y2="237.74842" gradientUnits="userSpaceOnUse" id="color-27"><stop offset="0" stop-color="#70b562"/><stop offset="1" stop-color="#457d49"/></linearGradient><linearGradient x1="323.74845" y1="215.79122" x2="323.74845" y2="237.44764" gradientUnits="userSpaceOnUse" id="color-28"><stop offset="0" stop-color="#70b562"/><stop offset="1" stop-color="#457d49"/></linearGradient><linearGradient x1="322.62303" y1="200.15048" x2="322.62303" y2="221.80689" gradientUnits="userSpaceOnUse" id="color-29"><stop offset="0" stop-color="#70b562"/><stop offset="1" stop-color="#457d49"/></linearGradient><linearGradient x1="306.16379" y1="186.31443" x2="306.16379" y2="207.97085" gradientUnits="userSpaceOnUse" id="color-30"><stop offset="0" stop-color="#70b562"/><stop offset="1" stop-color="#457d49"/></linearGradient><linearGradient x1="291.53335" y1="197.44342" x2="291.53335" y2="219.09981" gradientUnits="userSpaceOnUse" id="color-31"><stop offset="0" stop-color="#70b562"/><stop offset="1" stop-color="#457d49"/></linearGradient><linearGradient x1="305.31973" y1="204.06066" x2="305.31973" y2="225.71708" gradientUnits="userSpaceOnUse" id="color-32"><stop offset="0" stop-color="#70b562"/><stop offset="1" stop-color="#457d49"/></linearGradient><linearGradient x1="254.81659" y1="189.02149" x2="254.81659" y2="210.67788" gradientUnits="userSpaceOnUse" id="color-33"><stop offset="0" stop-color="#70b562"/><stop offset="1" stop-color="#457d49"/></linearGradient><linearGradient x1="295.05028" y1="215.18966" x2="295.05028" y2="236.84606" gradientUnits="userSpaceOnUse" id="color-34"><stop offset="0" stop-color="#70b562"/><stop offset="1" stop-color="#457d49"/></linearGradient><linearGradient x1="273.38599" y1="204.36143" x2="273.38599" y2="226.01786" gradientUnits="userSpaceOnUse" id="color-35"><stop offset="0" stop-color="#70b562"/><stop offset="1" stop-color="#457d49"/></linearGradient><linearGradient x1="252.14372" y1="204.96298" x2="252.14372" y2="226.61943" gradientUnits="userSpaceOnUse" id="color-36"><stop offset="0" stop-color="#70b562"/><stop offset="1" stop-color="#457d49"/></linearGradient><linearGradient x1="258.19285" y1="213.9865" x2="258.19285" y2="235.64294" gradientUnits="userSpaceOnUse" id="color-37"><stop offset="0" stop-color="#70b562"/><stop offset="1" stop-color="#457d49"/></linearGradient><linearGradient x1="274.65208" y1="216.09198" x2="274.65208" y2="237.74842" gradientUnits="userSpaceOnUse" id="color-38"><stop offset="0" stop-color="#70b562"/><stop offset="1" stop-color="#457d49"/></linearGradient><linearGradient x1="307.57056" y1="220.30296" x2="307.57056" y2="241.9594" gradientUnits="userSpaceOnUse" id="color-39"><stop offset="0" stop-color="#70b562"/><stop offset="1" stop-color="#457d49"/></linearGradient><linearGradient x1="339.64499" y1="222.70924" x2="339.64499" y2="244.36567" gradientUnits="userSpaceOnUse" id="color-40"><stop offset="0" stop-color="#70b562"/><stop offset="1" stop-color="#457d49"/></linearGradient><linearGradient x1="249.33017" y1="222.40845" x2="249.33017" y2="244.06488" gradientUnits="userSpaceOnUse" id="color-41"><stop offset="0" stop-color="#70b562"/><stop offset="1" stop-color="#457d49"/></linearGradient><linearGradient x1="379.00588" y1="316.36364" x2="379.00588" y2="394.60383" gradientUnits="userSpaceOnUse" id="color-42"><stop offset="0" stop-color="#82721f"/><stop offset="1" stop-color="#a28e42"/></linearGradient><linearGradient x1="378.90696" y1="303.76139" x2="378.90696" y2="332.1304" gradientUnits="userSpaceOnUse" id="color-43"><stop offset="0" stop-color="#8fe3a6"/><stop offset="1" stop-color="#47b54b"/></linearGradient><linearGradient x1="1.35992" y1="290.89094" x2="1.35992" y2="388.89094" gradientUnits="userSpaceOnUse" id="color-44"><stop offset="0" stop-color="#000000" stop-opacity="0"/><stop offset="1" stop-color="#000000"/></linearGradient></defs><g transform="translate(11.5254,3.73664)"><g data-paper-data="{&quot;isPaintingLayer&quot;:true}" fill-rule="nonzero" stroke-linejoin="miter" stroke-miterlimit="10" stroke-dasharray="" stroke-dashoffset="0" style="mix-blend-mode: normal"><path d="" data-paper-data="{&quot;index&quot;:null}" fill="#f5e862" stroke="none" stroke-width="0.5" stroke-linecap="butt"/><path d="M486.07699,369.46516h-497.60239v-373.2018h497.60239z" data-paper-data="{&quot;index&quot;:null}" fill="url(#color-1)" stroke="none" stroke-width="1" stroke-linecap="butt"/><path d="M-8.22507,361.86644v-86h269v86z" data-paper-data="{&quot;origPos&quot;:null,&quot;index&quot;:null}" fill="url(#color-2)" stroke="none" stroke-width="NaN" stroke-linecap="butt"/><path d="M257.54962,371.25955c0,0 -37.47341,-7.41956 -53.21811,-16.5c-5.64955,-3.25827 14.15707,-5.82639 11.5,-14c-2.65707,-8.17361 -7.31117,-12.11141 -22.71266,-16.80169c-14.93263,-4.5475 -34.80026,-5.5792 -45.28734,-11.69831c-7.238,-4.22331 17.79835,-3.75157 12,-13c-3.66757,-5.84982 -75.99892,-16.53176 -61.5,-19c45.51088,-7.74759 34.67798,-18.11743 58.5,-17.5c11.26873,0.29206 16.27692,11.43457 27,9.5c10.72308,-1.93457 46.26109,-19.54558 67,-22.5c29.0053,-4.13203 6.71811,121.5 6.71811,121.5z" data-paper-data="{&quot;index&quot;:null}" fill="url(#color-3)" stroke="#e0bd5c" stroke-width="2" stroke-linecap="round"/><g data-paper-data="{&quot;index&quot;:null}" stroke="none" stroke-width="1" stroke-linecap="butt"><path d="M178.79907,133.10569c10.15402,6.517 16.43943,15.517 16.43943,25.449c0,9.932 -6.28541,18.932 -16.43943,25.449c-10.15402,6.517 -24.17665,10.551 -39.6511,10.551c-15.47445,0 -29.49708,-4.034 -39.6511,-10.551c-10.15402,-6.517 -16.43943,-15.517 -16.43943,-25.449c0,-9.932 6.28541,-18.932 16.43943,-25.449c10.15402,-6.517 24.17665,-10.551 39.6511,-10.551c15.47445,0 29.49708,4.034 39.6511,10.551z" fill="#ffffff"/><path d="M109.09433,117.10569c10.15402,6.517 16.43943,15.517 16.43943,25.449c0,9.932 -6.28541,18.932 -16.43943,25.449c-10.15402,6.517 -24.17665,10.551 -39.6511,10.551c-15.47445,0 -29.49708,-4.034 -39.6511,-10.551c-10.15402,-6.517 -16.43943,-15.517 -16.43943,-25.449c0,-9.932 6.28541,-18.932 16.43943,-25.449c10.15402,-6.517 24.17665,-10.551 39.6511,-10.551c15.47445,0 29.49708,4.034 39.6511,10.551z" fill="#ffffff"/><g fill="#4a4f54"><path d="M130.08744,140.91269c0.88765,1.765 1.43657,4.202 1.43657,6.892c0,2.69 -0.54892,5.127 -1.43657,6.892c-0.88656,1.765 -2.11184,2.858 -3.46454,2.858c-1.35271,0 -2.57799,-1.093 -3.46454,-2.858c-0.88765,-1.765 -1.43657,-4.202 -1.43657,-6.892c0,-2.69 0.54892,-5.127 1.43657,-6.892c0.88656,-1.765 2.11184,-2.858 3.46454,-2.858c1.35271,0 2.57799,1.093 3.46454,2.858z"/><path d="M107.21557,140.41269c0.88765,1.765 1.43657,4.202 1.43657,6.892c0,2.69 -0.54892,5.127 -1.43657,6.892c-0.88656,1.765 -2.11184,2.858 -3.46454,2.858c-1.35271,0 -2.57799,-1.093 -3.46454,-2.858c-0.88765,-1.765 -1.43657,-4.202 -1.43657,-6.892c0,-2.69 0.54892,-5.127 1.43657,-6.892c0.88656,-1.765 2.11184,-2.858 3.46454,-2.858c1.35271,0 2.57799,1.093 3.46454,2.858z"/></g></g><g data-paper-data="{&quot;index&quot;:null}" stroke="none" stroke-width="1" stroke-linecap="butt"><path d="M291.86524,41.55469c15.47445,0 29.49708,4.034 39.6511,10.551c10.15402,6.517 16.43943,15.517 16.43943,25.449c0,9.932 -6.28541,18.932 -16.43943,25.449c-10.15402,6.517 -24.17665,10.551 -39.6511,10.551c-15.47445,0 -29.49708,-4.034 -39.6511,-10.551c-10.15402,-6.517 -16.43943,-15.517 -16.43943,-25.449c0,-9.932 6.28541,-18.932 16.43943,-25.449c10.15402,-6.517 24.17665,-10.551 39.6511,-10.551z" fill="#ffffff"/><path d="M361.56997,25.55469c15.47445,0 29.49708,4.034 39.6511,10.551c10.15402,6.517 16.43943,15.517 16.43943,25.449c0,9.932 -6.28541,18.932 -16.43943,25.449c-10.15402,6.517 -24.17665,10.551 -39.6511,10.551c-15.47445,0 -29.49708,-4.034 -39.6511,-10.551c-10.15402,-6.517 -16.43943,-15.517 -16.43943,-25.449c0,-9.932 6.28541,-18.932 16.43943,-25.449c10.15402,-6.517 24.17665,-10.551 39.6511,-10.551z" fill="#ffffff"/><g fill="#4a4f54"><path d="M304.39031,57.05469c1.35271,0 2.57799,1.093 3.46454,2.858c0.88765,1.765 1.43657,4.202 1.43657,6.892c0,2.69 -0.54892,5.127 -1.43657,6.892c-0.88656,1.765 -2.11184,2.858 -3.46454,2.858c-1.35271,0 -2.57799,-1.093 -3.46454,-2.858c-0.88765,-1.765 -1.43657,-4.202 -1.43657,-6.892c0,-2.69 0.54892,-5.127 1.43657,-6.892c0.88656,-1.765 2.11184,-2.858 3.46454,-2.858z"/><path d="M327.26217,56.55469c1.35271,0 2.57799,1.093 3.46454,2.858c0.88765,1.765 1.43657,4.202 1.43657,6.892c0,2.69 -0.54892,5.127 -1.43657,6.892c-0.88656,1.765 -2.11184,2.858 -3.46454,2.858c-1.35271,0 -2.57799,-1.093 -3.46454,-2.858c-0.88765,-1.765 -1.43657,-4.202 -1.43657,-6.892c0,-2.69 0.54892,-5.127 1.43657,-6.892c0.88656,-1.765 2.11184,-2.858 3.46454,-2.858z"/></g></g><g data-paper-data="{&quot;index&quot;:null}" stroke-width="2" stroke-linecap="butt"><g data-paper-data="{&quot;origPos&quot;:null}" fill="#5d5a32" stroke="#5b5c37"><path d="M456.60626,308.68321v-74.74992h14.31167v74.74992z" data-paper-data="{&quot;origPos&quot;:null}"/><path d="M399.88001,306.17483v-74.74991h14.31167v74.74991z" data-paper-data="{&quot;origPos&quot;:null}"/><path d="M426.68186,307.17817v-74.74992h14.31167v74.74992z" data-paper-data="{&quot;origPos&quot;:null}"/><path d="M372.29753,306.6765v-74.74992h14.31167v74.74992z" data-paper-data="{&quot;origPos&quot;:null}"/><path d="M327.92306,308.68321v-74.74992h33.18536v74.74992z" data-paper-data="{&quot;origPos&quot;:null}"/></g><path d="M291.82058,306.6765v-74.74992h14.31167v74.74992z" data-paper-data="{&quot;origPos&quot;:null}" fill="#5d5a32" stroke="#5b5c37"/><g data-paper-data="{&quot;origPos&quot;:null}" fill="#7f7a45" stroke="#737446"><path d="M435.65231,307.16954v-75.80248h20.88572v75.80248z" data-paper-data="{&quot;origPos&quot;:null}"/><path d="M352.86889,304.6258v-75.80248h20.88572v75.80248z" data-paper-data="{&quot;origPos&quot;:null}"/><path d="M382.87072,305.64327v-75.80248h29.99716v75.80248z" data-paper-data="{&quot;origPos&quot;:null}"/><path d="M312.6164,305.13454v-75.80248h20.88572v75.80248z" data-paper-data="{&quot;origPos&quot;:null}"/><path d="M275.40185,307.16954v-75.80248h20.88572v75.80248z" data-paper-data="{&quot;origPos&quot;:null}"/></g><g data-paper-data="{&quot;origPos&quot;:null}" fill="#9e9755" stroke="#787a49"><path d="M470.66517,307.67409v-75.17909h28.50799v75.17909z" data-paper-data="{&quot;origPos&quot;:null}"/><path d="M357.66987,305.15131v-75.17909h28.50799v75.17909z" data-paper-data="{&quot;origPos&quot;:null}"/><path d="M411.05755,306.16042v-75.17909h28.50799v75.17909z" data-paper-data="{&quot;origPos&quot;:null}"/><path d="M302.7272,305.65586v-75.17909h28.50799v75.17909z" data-paper-data="{&quot;origPos&quot;:null}"/><path d="M250.31137,307.67409v-75.17909h28.50799v75.17909z" data-paper-data="{&quot;origPos&quot;:null}"/></g><g data-paper-data="{&quot;origPos&quot;:null}" stroke="#4a7b50"><g data-paper-data="{&quot;origPos&quot;:null}"><path d="M503.29656,216.092c3.99748,0 7.61992,1.21336 10.24299,3.17357c2.62307,1.9602 4.24677,4.66726 4.24677,7.65464c0,2.98738 -1.6237,5.69443 -4.24677,7.65464c-2.62306,1.9602 -6.24551,3.17357 -10.24299,3.17357c-3.99748,0 -7.61992,-1.21336 -10.24299,-3.17357c-2.62307,-1.9602 -4.24677,-4.66726 -4.24677,-7.65464c0,-2.98738 1.6237,-5.69443 4.24677,-7.65464c2.62307,-1.96021 6.24551,-3.17357 10.24299,-3.17357z" data-paper-data="{&quot;origPos&quot;:null}" fill="url(#color-4)"/><path d="M495.13729,201.95517c3.99748,0 7.61992,1.21336 10.24299,3.17357c2.62307,1.9602 4.24677,4.66726 4.24677,7.65464c0,2.98738 -1.6237,5.69443 -4.24677,7.65464c-2.62306,1.96021 -6.24551,3.17357 -10.24299,3.17357c-3.99748,0 -7.61992,-1.21336 -10.24299,-3.17357c-2.62307,-1.9602 -4.24677,-4.66726 -4.24677,-7.65464c0,-2.98738 1.6237,-5.69443 4.24677,-7.65464c2.62307,-1.9602 6.24551,-3.17357 10.24299,-3.17357z" data-paper-data="{&quot;origPos&quot;:null}" fill="url(#color-5)"/><path d="M476.28652,193.53324c3.99748,0 7.61992,1.21336 10.24299,3.17357c2.62307,1.9602 4.24677,4.66726 4.24677,7.65464c0,2.98738 -1.6237,5.69443 -4.24677,7.65464c-2.62306,1.96021 -6.24551,3.17357 -10.24299,3.17357c-3.99748,0 -7.61992,-1.21336 -10.24299,-3.17357c-2.62307,-1.9602 -4.24677,-4.66726 -4.24677,-7.65464c0,-2.98738 1.6237,-5.69443 4.24677,-7.65464c2.62306,-1.9602 6.24551,-3.17357 10.24299,-3.17357z" data-paper-data="{&quot;origPos&quot;:null}" fill="url(#color-6)"/><path d="M472.34756,211.88101c3.99748,0 7.61992,1.21336 10.24299,3.17357c2.62307,1.96021 4.24677,4.66726 4.24677,7.65464c0,2.98738 -1.6237,5.69443 -4.24677,7.65464c-2.62307,1.96021 -6.24551,3.17357 -10.24299,3.17357c-3.99748,0 -7.61992,-1.21336 -10.24299,-3.17357c-2.62307,-1.9602 -4.24677,-4.66726 -4.24677,-7.65464c0,-2.98738 1.6237,-5.69443 4.24677,-7.65464c2.62307,-1.9602 6.24551,-3.17357 10.24299,-3.17357z" data-paper-data="{&quot;origPos&quot;:null}" fill="url(#color-7)"/><path d="M485.57123,216.092c3.99748,0 7.61992,1.21336 10.24299,3.17357c2.62307,1.9602 4.24677,4.66726 4.24677,7.65464c0,2.98738 -1.6237,5.69443 -4.24677,7.65464c-2.62307,1.9602 -6.24551,3.17357 -10.24299,3.17357c-3.99748,0 -7.61992,-1.21336 -10.24299,-3.17357c-2.62307,-1.9602 -4.24677,-4.66726 -4.24677,-7.65464c0,-2.98738 1.6237,-5.69443 4.24677,-7.65464c2.62306,-1.96021 6.24551,-3.17357 10.24299,-3.17357z" data-paper-data="{&quot;origPos&quot;:null}" fill="url(#color-8)"/><path d="M455.18494,215.7912c3.99748,0 7.61992,1.21336 10.24299,3.17357c2.62307,1.9602 4.24677,4.66726 4.24677,7.65464c0,2.98738 -1.6237,5.69443 -4.24677,7.65464c-2.62307,1.96021 -6.24551,3.17357 -10.24299,3.17357c-3.99748,0 -7.61992,-1.21336 -10.24299,-3.17357c-2.62307,-1.9602 -4.24677,-4.66726 -4.24677,-7.65464c0,-2.98738 1.6237,-5.69443 4.24677,-7.65464c2.62306,-1.96021 6.24551,-3.17357 10.24299,-3.17357z" data-paper-data="{&quot;origPos&quot;:null}" fill="url(#color-9)"/><path d="M454.05951,200.15046c3.99748,0 7.61992,1.21336 10.24299,3.17357c2.62307,1.9602 4.24677,4.66726 4.24677,7.65464c0,2.98739 -1.6237,5.69444 -4.24677,7.65465c-2.62306,1.96021 -6.24551,3.17357 -10.24299,3.17357c-3.99748,0 -7.61992,-1.21336 -10.24299,-3.17357c-2.62307,-1.96021 -4.24677,-4.66727 -4.24677,-7.65465c0,-2.98738 1.6237,-5.69443 4.24677,-7.65464c2.62307,-1.96021 6.24551,-3.17357 10.24299,-3.17357z" data-paper-data="{&quot;origPos&quot;:null}" fill="url(#color-10)"/><path d="M437.60028,186.31444c3.99748,0 7.61992,1.21336 10.24299,3.17357c2.62307,1.9602 4.24677,4.66726 4.24677,7.65464c0,2.98738 -1.6237,5.69443 -4.24677,7.65464c-2.62306,1.96021 -6.24551,3.17357 -10.24299,3.17357c-3.99748,0 -7.61992,-1.21336 -10.24299,-3.17357c-2.62307,-1.9602 -4.24677,-4.66726 -4.24677,-7.65464c0,-2.98738 1.6237,-5.69443 4.24677,-7.65464c2.62306,-1.9602 6.24551,-3.17357 10.24299,-3.17357z" data-paper-data="{&quot;origPos&quot;:null}" fill="url(#color-11)"/><path d="M422.96984,197.44342c3.99748,0 7.61992,1.21336 10.24299,3.17357c2.62307,1.96021 4.24677,4.66726 4.24677,7.65464c0,2.98738 -1.6237,5.69443 -4.24677,7.65464c-2.62306,1.96021 -6.24551,3.17357 -10.24299,3.17357c-3.99748,0 -7.61992,-1.21336 -10.24299,-3.17357c-2.62307,-1.9602 -4.24677,-4.66726 -4.24677,-7.65464c0,-2.98738 1.6237,-5.69443 4.24677,-7.65464c2.62306,-1.96021 6.24551,-3.17357 10.24299,-3.17357z" data-paper-data="{&quot;origPos&quot;:null}" fill="url(#color-12)"/><path d="M436.75622,204.06065c3.99748,0 7.61992,1.21336 10.24299,3.17357c2.62307,1.9602 4.24677,4.66726 4.24677,7.65464c0,2.98738 -1.6237,5.69443 -4.24677,7.65464c-2.62307,1.9602 -6.24551,3.17357 -10.24299,3.17357c-3.99748,0 -7.61992,-1.21336 -10.24299,-3.17357c-2.62307,-1.9602 -4.24677,-4.66726 -4.24677,-7.65464c0,-2.98738 1.6237,-5.69443 4.24677,-7.65464c2.62306,-1.96021 6.24551,-3.17357 10.24299,-3.17357z" data-paper-data="{&quot;origPos&quot;:null}" fill="url(#color-13)"/><path d="M386.25307,189.02149c3.99748,0 7.61992,1.21336 10.24299,3.17357c2.62307,1.96021 4.24677,4.66726 4.24677,7.65464c0,2.98738 -1.6237,5.69443 -4.24677,7.65464c-2.62306,1.96021 -6.24551,3.17357 -10.24299,3.17357c-3.99748,0 -7.61992,-1.21336 -10.24299,-3.17357c-2.62307,-1.9602 -4.24677,-4.66726 -4.24677,-7.65464c0,-2.98739 1.6237,-5.69443 4.24677,-7.65464c2.62306,-1.9602 6.24551,-3.17357 10.24299,-3.17357z" data-paper-data="{&quot;origPos&quot;:null}" fill="url(#color-14)"/><path d="M426.48677,215.18963c3.99748,0 7.61992,1.21336 10.24299,3.17357c2.62307,1.9602 4.24677,4.66726 4.24677,7.65464c0,2.98738 -1.6237,5.69443 -4.24677,7.65464c-2.62306,1.9602 -6.24551,3.17357 -10.24299,3.17357c-3.99748,0 -7.61992,-1.21336 -10.24299,-3.17357c-2.62307,-1.9602 -4.24677,-4.66726 -4.24677,-7.65464c0,-2.98738 1.6237,-5.69443 4.24677,-7.65464c2.62306,-1.96021 6.24551,-3.17357 10.24299,-3.17357z" data-paper-data="{&quot;origPos&quot;:null}" fill="url(#color-15)"/><path d="M404.82247,204.36144c3.99748,0 7.61992,1.21336 10.24299,3.17357c2.62307,1.9602 4.24677,4.66726 4.24677,7.65464c0,2.98739 -1.6237,5.69443 -4.24677,7.65464c-2.62306,1.9602 -6.24551,3.17357 -10.24299,3.17357c-3.99748,0 -7.61992,-1.21336 -10.24299,-3.17357c-2.62307,-1.96021 -4.24677,-4.66726 -4.24677,-7.65464c0,-2.98738 1.6237,-5.69443 4.24677,-7.65464c2.62307,-1.9602 6.24551,-3.17357 10.24299,-3.17357z" data-paper-data="{&quot;origPos&quot;:null}" fill="url(#color-16)"/><path d="M383.58021,204.963c3.99748,0 7.61992,1.21336 10.24299,3.17357c2.62307,1.9602 4.24677,4.66726 4.24677,7.65464c0,2.98738 -1.6237,5.69443 -4.24677,7.65464c-2.62306,1.9602 -6.24551,3.17357 -10.24299,3.17357c-3.99748,0 -7.61992,-1.21336 -10.24299,-3.17357c-2.62307,-1.96021 -4.24677,-4.66726 -4.24677,-7.65464c0,-2.98738 1.6237,-5.69443 4.24677,-7.65464c2.62306,-1.96021 6.24551,-3.17357 10.24299,-3.17357z" data-paper-data="{&quot;origPos&quot;:null}" fill="url(#color-17)"/><path d="M389.62932,213.9865c3.99748,0 7.61992,1.21336 10.24299,3.17357c2.62307,1.9602 4.24677,4.66726 4.24677,7.65464c0,2.98738 -1.6237,5.69443 -4.24677,7.65464c-2.62306,1.96021 -6.24551,3.17357 -10.24299,3.17357c-3.99748,0 -7.61992,-1.21336 -10.24299,-3.17357c-2.62307,-1.9602 -4.24677,-4.66726 -4.24677,-7.65464c0,-2.98738 1.6237,-5.69443 4.24677,-7.65464c2.62306,-1.96021 6.24551,-3.17357 10.24299,-3.17357z" data-paper-data="{&quot;origPos&quot;:null}" fill="url(#color-18)"/><path d="M406.08857,216.092c3.99748,0 7.61992,1.21336 10.24299,3.17357c2.62307,1.9602 4.24677,4.66726 4.24677,7.65464c0,2.98738 -1.6237,5.69443 -4.24677,7.65464c-2.62306,1.9602 -6.24551,3.17357 -10.24299,3.17357c-3.99748,0 -7.61992,-1.21336 -10.24299,-3.17357c-2.62307,-1.9602 -4.24677,-4.66726 -4.24677,-7.65464c0,-2.98738 1.6237,-5.69443 4.24677,-7.65464c2.62306,-1.96021 6.24551,-3.17357 10.24299,-3.17357z" data-paper-data="{&quot;origPos&quot;:null}" fill="url(#color-19)"/><path d="M439.00705,220.30296c3.99748,0 7.61992,1.21336 10.24299,3.17357c2.62307,1.9602 4.24677,4.66726 4.24677,7.65464c0,2.98738 -1.6237,5.69443 -4.24677,7.65464c-2.62306,1.96021 -6.24551,3.17357 -10.24299,3.17357c-3.99748,0 -7.61992,-1.21336 -10.24299,-3.17357c-2.62307,-1.9602 -4.24677,-4.66726 -4.24677,-7.65464c0,-2.98738 1.6237,-5.69443 4.24677,-7.65464c2.62306,-1.96021 6.24551,-3.17357 10.24299,-3.17357z" data-paper-data="{&quot;origPos&quot;:null}" fill="url(#color-20)"/><path d="M471.08147,222.70925c3.99748,0 7.61992,1.21336 10.24299,3.17357c2.62307,1.96021 4.24677,4.66726 4.24677,7.65464c0,2.98738 -1.6237,5.69443 -4.24677,7.65464c-2.62306,1.96021 -6.24551,3.17357 -10.24299,3.17357c-3.99748,0 -7.61992,-1.21336 -10.24299,-3.17357c-2.62307,-1.9602 -4.24677,-4.66726 -4.24677,-7.65464c0,-2.98738 1.6237,-5.69443 4.24677,-7.65464c2.62307,-1.9602 6.24551,-3.17357 10.24299,-3.17357z" data-paper-data="{&quot;origPos&quot;:null}" fill="url(#color-21)"/><path d="M380.76665,222.40845c3.99748,0 7.61992,1.21336 10.24299,3.17357c2.62307,1.9602 4.24677,4.66726 4.24677,7.65464c0,2.98738 -1.6237,5.69443 -4.24677,7.65464c-2.62306,1.9602 -6.24551,3.17357 -10.24299,3.17357c-3.99748,0 -7.61992,-1.21336 -10.24299,-3.17357c-2.62307,-1.9602 -4.24677,-4.66726 -4.24677,-7.65464c0,-2.98738 1.6237,-5.69443 4.24677,-7.65464c2.62306,-1.96021 6.24551,-3.17357 10.24299,-3.17357z" data-paper-data="{&quot;origPos&quot;:null}" fill="url(#color-22)"/></g><g data-paper-data="{&quot;origPos&quot;:null}"><path d="M371.86008,216.092c3.99748,0 7.61992,1.21336 10.24299,3.17357c2.62307,1.96021 4.24676,4.66726 4.24676,7.65464c0,2.98738 -1.62369,5.69443 -4.24676,7.65464c-2.62306,1.96021 -6.24551,3.17357 -10.24299,3.17357c-3.99748,0 -7.61992,-1.21336 -10.24299,-3.17357c-2.62307,-1.9602 -4.24677,-4.66726 -4.24677,-7.65464c0,-2.98739 1.6237,-5.69443 4.24677,-7.65464c2.62306,-1.96021 6.24551,-3.17357 10.24299,-3.17357z" data-paper-data="{&quot;origPos&quot;:null}" fill="url(#color-23)"/><path d="M363.7008,201.95517c3.99748,0 7.61992,1.21336 10.24299,3.17357c2.62307,1.9602 4.24677,4.66726 4.24677,7.65464c0,2.98738 -1.6237,5.69443 -4.24677,7.65464c-2.62306,1.9602 -6.24551,3.17357 -10.24299,3.17357c-3.99748,0 -7.61992,-1.21336 -10.24299,-3.17357c-2.62307,-1.9602 -4.24677,-4.66726 -4.24677,-7.65464c0,-2.98738 1.6237,-5.69443 4.24677,-7.65464c2.62307,-1.9602 6.24551,-3.17357 10.24299,-3.17357z" data-paper-data="{&quot;origPos&quot;:null}" fill="url(#color-24)"/><path d="M344.85004,193.53324c3.99748,0 7.61992,1.21336 10.24299,3.17357c2.62307,1.9602 4.24677,4.66726 4.24677,7.65464c0,2.98738 -1.6237,5.69443 -4.24677,7.65464c-2.62307,1.96021 -6.24551,3.17357 -10.24299,3.17357c-3.99748,0 -7.61992,-1.21336 -10.24299,-3.17357c-2.62307,-1.9602 -4.24677,-4.66726 -4.24677,-7.65464c0,-2.98738 1.6237,-5.69443 4.24677,-7.65464c2.62306,-1.96021 6.24551,-3.17357 10.24299,-3.17357z" data-paper-data="{&quot;origPos&quot;:null}" fill="url(#color-25)"/><path d="M340.91108,211.88101c3.99748,0 7.61992,1.21336 10.24299,3.17357c2.62307,1.96021 4.24677,4.66726 4.24677,7.65464c0,2.98738 -1.6237,5.69443 -4.24677,7.65464c-2.62306,1.96021 -6.24551,3.17357 -10.24299,3.17357c-3.99748,0 -7.61992,-1.21336 -10.24299,-3.17357c-2.62307,-1.9602 -4.24677,-4.66726 -4.24677,-7.65464c0,-2.98738 1.6237,-5.69443 4.24677,-7.65464c2.62307,-1.9602 6.24551,-3.17357 10.24299,-3.17357z" data-paper-data="{&quot;origPos&quot;:null}" fill="url(#color-26)"/><path d="M354.13475,216.092c3.99748,0 7.61992,1.21336 10.24299,3.17357c2.62307,1.96021 4.24677,4.66726 4.24677,7.65464c0,2.98738 -1.6237,5.69443 -4.24677,7.65464c-2.62306,1.96021 -6.24551,3.17357 -10.24299,3.17357c-3.99748,0 -7.61992,-1.21336 -10.24299,-3.17357c-2.62307,-1.9602 -4.24677,-4.66726 -4.24677,-7.65464c0,-2.98739 1.6237,-5.69443 4.24677,-7.65464c2.62307,-1.96021 6.24551,-3.17357 10.24299,-3.17357z" data-paper-data="{&quot;origPos&quot;:null}" fill="url(#color-27)"/><path d="M323.74844,215.7912c3.99748,0 7.61992,1.21336 10.24299,3.17357c2.62308,1.9602 4.24677,4.66726 4.24677,7.65464c0,2.98738 -1.6237,5.69443 -4.24677,7.65464c-2.62306,1.96021 -6.24551,3.17357 -10.24299,3.17357c-3.99748,0 -7.61992,-1.21336 -10.24299,-3.17357c-2.62308,-1.9602 -4.24677,-4.66726 -4.24677,-7.65464c0,-2.98738 1.6237,-5.69443 4.24677,-7.65464c2.62306,-1.96021 6.24551,-3.17357 10.24299,-3.17357z" data-paper-data="{&quot;origPos&quot;:null}" fill="url(#color-28)"/><path d="M322.62303,200.15046c3.99748,0 7.61992,1.21336 10.24299,3.17357c2.62307,1.9602 4.24677,4.66726 4.24677,7.65464c0,2.98738 -1.6237,5.69443 -4.24677,7.65464c-2.62307,1.96021 -6.24551,3.17357 -10.24299,3.17357c-3.99748,0 -7.61992,-1.21336 -10.24299,-3.17357c-2.62307,-1.9602 -4.24677,-4.66726 -4.24677,-7.65464c0,-2.98738 1.6237,-5.69443 4.24677,-7.65464c2.62306,-1.96021 6.24551,-3.17357 10.24299,-3.17357z" data-paper-data="{&quot;origPos&quot;:null}" fill="url(#color-29)"/><path d="M306.16379,186.31444c3.99748,0 7.61992,1.21336 10.24299,3.17357c2.62308,1.9602 4.24677,4.66726 4.24677,7.65464c0,2.98738 -1.6237,5.69443 -4.24677,7.65464c-2.62306,1.9602 -6.24551,3.17357 -10.24299,3.17357c-3.99748,0 -7.61992,-1.21336 -10.24299,-3.17357c-2.62307,-1.96021 -4.24677,-4.66726 -4.24677,-7.65464c0,-2.98738 1.6237,-5.69443 4.24677,-7.65464c2.62306,-1.9602 6.24551,-3.17357 10.24299,-3.17357z" data-paper-data="{&quot;origPos&quot;:null}" fill="url(#color-30)"/><path d="M291.53335,197.44342c3.99748,0 7.61992,1.21336 10.24299,3.17357c2.62307,1.96021 4.24677,4.66726 4.24677,7.65464c0,2.98738 -1.6237,5.69443 -4.24677,7.65464c-2.62306,1.96021 -6.24551,3.17357 -10.24299,3.17357c-3.99748,0 -7.61992,-1.21336 -10.24299,-3.17357c-2.62307,-1.9602 -4.24677,-4.66726 -4.24677,-7.65464c0,-2.98738 1.6237,-5.69443 4.24677,-7.65464c2.62307,-1.96021 6.24551,-3.17357 10.24299,-3.17357z" data-paper-data="{&quot;origPos&quot;:null}" fill="url(#color-31)"/><path d="M305.31972,204.06065c3.99748,0 7.61992,1.21336 10.24299,3.17357c2.62308,1.96021 4.24677,4.66726 4.24677,7.65464c0,2.98738 -1.6237,5.69443 -4.24677,7.65464c-2.62306,1.96021 -6.24551,3.17357 -10.24299,3.17357c-3.99748,0 -7.61992,-1.21336 -10.24299,-3.17357c-2.62307,-1.9602 -4.24677,-4.66726 -4.24677,-7.65464c0,-2.98738 1.6237,-5.69443 4.24677,-7.65464c2.62306,-1.96021 6.24551,-3.17357 10.24299,-3.17357z" data-paper-data="{&quot;origPos&quot;:null}" fill="url(#color-32)"/><path d="M254.81659,189.02149c3.99748,0 7.61992,1.21336 10.24299,3.17357c2.62307,1.96021 4.24677,4.66726 4.24677,7.65464c0,2.98738 -1.6237,5.69443 -4.24677,7.65464c-2.62306,1.9602 -6.24551,3.17357 -10.24299,3.17357c-3.99748,0 -7.61992,-1.21336 -10.24299,-3.17357c-2.62307,-1.9602 -4.24677,-4.66726 -4.24677,-7.65464c0,-2.98739 1.6237,-5.69443 4.24677,-7.65464c2.62307,-1.9602 6.24551,-3.17357 10.24299,-3.17357z" data-paper-data="{&quot;origPos&quot;:null}" fill="url(#color-33)"/><path d="M295.05029,215.18963c3.99748,0 7.61992,1.21336 10.24299,3.17357c2.62308,1.9602 4.24677,4.66726 4.24677,7.65464c0,2.98738 -1.6237,5.69443 -4.24677,7.65464c-2.62306,1.96021 -6.24551,3.17357 -10.24299,3.17357c-3.99748,0 -7.61992,-1.21336 -10.24299,-3.17357c-2.62307,-1.9602 -4.24677,-4.66726 -4.24677,-7.65464c0,-2.98738 1.6237,-5.69443 4.24677,-7.65464c2.62307,-1.96021 6.24551,-3.17357 10.24299,-3.17357z" data-paper-data="{&quot;origPos&quot;:null}" fill="url(#color-34)"/><path d="M273.38598,204.36144c3.99748,0 7.61992,1.21336 10.24299,3.17357c2.62307,1.9602 4.24677,4.66726 4.24677,7.65464c0,2.98739 -1.6237,5.69443 -4.24677,7.65464c-2.62306,1.9602 -6.24551,3.17357 -10.24299,3.17357c-3.99748,0 -7.61992,-1.21336 -10.24299,-3.17357c-2.62307,-1.96021 -4.24677,-4.66726 -4.24677,-7.65464c0,-2.98738 1.6237,-5.69443 4.24677,-7.65464c2.62307,-1.96021 6.24551,-3.17357 10.24299,-3.17357z" data-paper-data="{&quot;origPos&quot;:null}" fill="url(#color-35)"/><path d="M252.14372,204.963c3.99748,0 7.61992,1.21336 10.24299,3.17357c2.62307,1.9602 4.24677,4.66726 4.24677,7.65464c0,2.98738 -1.6237,5.69443 -4.24677,7.65464c-2.62307,1.9602 -6.24551,3.17357 -10.24299,3.17357c-3.99748,0 -7.61992,-1.21336 -10.24299,-3.17357c-2.62307,-1.96021 -4.24677,-4.66726 -4.24677,-7.65464c0,-2.98738 1.6237,-5.69443 4.24677,-7.65464c2.62306,-1.9602 6.24551,-3.17357 10.24299,-3.17357z" data-paper-data="{&quot;origPos&quot;:null}" fill="url(#color-36)"/><path d="M258.19284,213.9865c3.99748,0 7.61992,1.21336 10.24299,3.17357c2.62308,1.9602 4.24677,4.66726 4.24677,7.65464c0,2.98738 -1.6237,5.69443 -4.24677,7.65464c-2.62306,1.9602 -6.24551,3.17357 -10.24299,3.17357c-3.99748,0 -7.61992,-1.21336 -10.24299,-3.17357c-2.62307,-1.9602 -4.24677,-4.66726 -4.24677,-7.65464c0,-2.98738 1.6237,-5.69443 4.24677,-7.65464c2.62306,-1.96021 6.24551,-3.17357 10.24299,-3.17357z" data-paper-data="{&quot;origPos&quot;:null}" fill="url(#color-37)"/><path d="M274.65208,216.092c3.99748,0 7.61992,1.21336 10.24299,3.17357c2.62307,1.96021 4.24677,4.66726 4.24677,7.65464c0,2.98738 -1.6237,5.69443 -4.24677,7.65464c-2.62306,1.96021 -6.24551,3.17357 -10.24299,3.17357c-3.99748,0 -7.61992,-1.21336 -10.24299,-3.17357c-2.62307,-1.9602 -4.24677,-4.66726 -4.24677,-7.65464c0,-2.98739 1.6237,-5.69443 4.24677,-7.65464c2.62306,-1.96021 6.24551,-3.17357 10.24299,-3.17357z" data-paper-data="{&quot;origPos&quot;:null}" fill="url(#color-38)"/><path d="M307.57056,220.30296c3.99748,0 7.61992,1.21336 10.24299,3.17357c2.62307,1.9602 4.24677,4.66726 4.24677,7.65464c0,2.98738 -1.6237,5.69443 -4.24677,7.65464c-2.62307,1.9602 -6.24551,3.17357 -10.24299,3.17357c-3.99748,0 -7.61992,-1.21336 -10.24299,-3.17357c-2.62307,-1.96021 -4.24677,-4.66726 -4.24677,-7.65464c0,-2.98738 1.6237,-5.69443 4.24677,-7.65464c2.62307,-1.96021 6.24551,-3.17357 10.24299,-3.17357z" data-paper-data="{&quot;origPos&quot;:null}" fill="url(#color-39)"/><path d="M339.64499,222.70925c3.99748,0 7.61992,1.21336 10.24299,3.17357c2.62307,1.96021 4.24677,4.66726 4.24677,7.65464c0,2.98738 -1.6237,5.69443 -4.24677,7.65464c-2.62306,1.96021 -6.24551,3.17357 -10.24299,3.17357c-3.99748,0 -7.61992,-1.21336 -10.24299,-3.17357c-2.62307,-1.9602 -4.24677,-4.66726 -4.24677,-7.65464c0,-2.98738 1.6237,-5.69443 4.24677,-7.65464c2.62307,-1.9602 6.24551,-3.17357 10.24299,-3.17357z" data-paper-data="{&quot;origPos&quot;:null}" fill="url(#color-40)"/><path d="M249.33017,222.40845c3.99748,0 7.61992,1.21336 10.24299,3.17357c2.62308,1.96021 4.24677,4.66726 4.24677,7.65464c0,2.98738 -1.6237,5.69443 -4.24677,7.65464c-2.62306,1.96021 -6.24551,3.17357 -10.24299,3.17357c-3.99748,0 -7.61992,-1.21336 -10.24299,-3.17357c-2.62307,-1.9602 -4.24677,-4.66726 -4.24677,-7.65464c0,-2.98739 1.6237,-5.69443 4.24677,-7.65464c2.62306,-1.96021 6.24551,-3.17357 10.24299,-3.17357z" data-paper-data="{&quot;origPos&quot;:null}" fill="url(#color-41)"/></g></g></g><g data-paper-data="{&quot;index&quot;:null}" stroke-width="2" stroke-linecap="butt"><path d="M255.63974,394.60383l-45.78832,-31.03218l24.32568,-9.88957l12.40946,-12.46817l-8.59388,-15.87478l17.64706,-17.05396h246.73228v86.31867z" data-paper-data="{&quot;origPos&quot;:null}" fill="#cfbf74" stroke="url(#color-42)"/><path d="M245.1679,319.97628c0,-2.87772 3.56764,-9.61837 9.49713,-13.0589c2.75832,-1.60049 10.54939,-1.80859 10.54939,-1.80859c25.97058,-2.76664 83.83574,-0.41542 123.4142,-0.41542c39.57846,0 79.44364,-1.33529 105.41422,1.43135c25.97059,2.76663 0.97244,16.64323 -10.13231,10.75341c-2.91619,-1.54671 -7.53255,-6.69708 -12.28078,-7.08431c-10.37071,-0.84574 -23.03536,-1.63414 -27.08896,-1.33406c-16.23314,1.20169 -6.46932,13.94652 -14.22784,9.15232c-6.17385,-3.81499 -18.08813,-7.40897 -33.60583,-7.40897c-17.19778,0 -28.71177,8.19992 -28.71177,8.19992c0,0 -9.31655,-5.73751 -12.75038,-7.54361c-4.45615,-2.34381 -19.71334,-2.05902 -26.43424,-2.50741c-2.89742,-0.19331 -19.22284,9.19567 -19.22284,9.19567c0,0 -7.86133,-6.06514 -13.39517,-8.59572c-4.26857,-1.95198 -18.367,-0.13116 -18.367,-0.13116c0,0 -32.65781,11.31669 -32.65781,11.15548z" data-paper-data="{&quot;origPos&quot;:null}" fill="url(#color-43)" stroke="#65a96e"/></g><path d="M1.35992,290.89094h480v98h-480z" data-paper-data="{&quot;origPos&quot;:null}" fill="url(#color-44)" stroke="none" stroke-width="1.22826" stroke-linecap="butt"/></g></g></svg>