<svg version="1.1" xmlns="http://www.w3.org/2000/svg" xmlns:xlink="http://www.w3.org/1999/xlink" width="68.65269" height="51.19006" viewBox="0,0,68.65269,51.19006"><defs><radialGradient cx="242.20724" cy="193.46418" r="20.38517" gradientUnits="userSpaceOnUse" id="color-1"><stop offset="0" stop-color="#732310"/><stop offset="1" stop-color="#c93d1d"/></radialGradient></defs><g transform="translate(-205.96218,-154.40497)"><g data-paper-data="{&quot;isPaintingLayer&quot;:true}" fill-rule="nonzero" stroke="none" stroke-linejoin="miter" stroke-miterlimit="10" stroke-dasharray="" stroke-dashoffset="0" style="mix-blend-mode: normal"><path d="M251.30791,177.58986c4.67399,0.12961 12.91142,-2.67652 17.41016,-1.79127c2.9411,0.57935 5.94849,3.19266 5.89612,5.46907c-0.05261,2.27627 -2.4021,4.27815 -6.1566,5.84329c-3.75473,1.56342 -10.16066,2.89953 -15.83233,3.07571c-5.67167,0.17619 -6.51789,-12.76884 -1.31734,-12.5968z" data-paper-data="{&quot;index&quot;:null}" fill="#ffffff" stroke-width="1" stroke-linecap="round"/><path d="M227.95178,192.72531c-5.67167,-0.17619 -12.07761,-1.51229 -15.83233,-3.07571c-3.7545,-1.56513 -6.10399,-3.56701 -6.1566,-5.84328c-0.05237,-2.27641 2.95502,-4.88972 5.89612,-5.46907c4.49875,-0.88526 12.73617,1.92088 17.41016,1.79127c5.20055,-0.17204 4.35433,12.77298 -1.31734,12.5968z" data-paper-data="{&quot;index&quot;:null}" fill="#ffffff" stroke-width="1" stroke-linecap="round"/><path d="M216.03676,178.10734c0,-13.09046 10.61191,-23.70237 23.70237,-23.70237c13.09046,0 23.70237,10.61191 23.70237,23.70237c0,13.09046 -10.61191,23.70237 -23.70237,23.70237c-13.09046,0 -23.70237,-10.61191 -23.70237,-23.70237z" fill="#ffffff" stroke-width="0" stroke-linecap="butt"/><g data-paper-data="{&quot;index&quot;:null}" fill="#000000" stroke-width="1" stroke-linecap="butt"><path d="M243.29665,170.52533c0.48004,0.96008 0.597,2.28579 0.597,3.74826c0,1.46246 -0.11696,2.78815 -0.597,3.74826c-0.48004,0.96008 -1.1429,1.55457 -1.87413,1.55457c-0.73123,0 -1.39409,-0.59447 -1.87413,-1.55457c-0.48004,-0.96008 -0.59701,-2.28579 -0.59701,-3.74826c0,-1.46246 0.11696,-2.78816 0.59701,-3.74826c0.48004,-0.96008 1.1429,-1.19402 1.87413,-1.19402c0.73123,0 1.39409,0.23391 1.87413,1.19402z"/></g><g data-paper-data="{&quot;index&quot;:null}" fill="#000000" stroke-width="1" stroke-linecap="butt"><path d="M254.39776,170.52533c0.48004,0.96008 0.59701,2.28579 0.59701,3.74826c0,1.46246 -0.11696,2.78815 -0.59701,3.74826c-0.48004,0.96008 -1.14289,1.55457 -1.87413,1.55457c-0.73123,0 -1.39409,-0.59447 -1.87413,-1.55457c-0.48004,-0.96008 -0.59701,-2.28579 -0.59701,-3.74826c0,-1.46246 0.11696,-2.78816 0.59701,-3.74826c0.48004,-0.96008 1.1429,-1.19402 1.87413,-1.19402c0.73123,0 1.39408,0.23391 1.87413,1.19402z"/></g><path d="M255.91375,163.54681c0.69636,0.27855 0.41781,0.9749 0.41781,0.9749l-0.19582,0.47901c-0.60756,2.12061 -1.00297,4.56873 -3.5068,5.26183c-1.2375,0.34256 -2.65875,-0.29176 -3.61938,-1.00634c-0.47791,-0.3555 -1.46408,-1.73708 -1.48727,-1.03466c-4.37016,5.2221 -11.02976,1.86602 -12.68323,-3.88265c0,0 -0.20605,-0.72114 0.5151,-0.92718c0.72115,-0.20604 0.92719,0.5151 0.92719,0.5151c1.28051,4.51575 6.48743,7.68243 10.03903,3.39729c2.17761,-2.3608 5.23372,4.05821 7.47092,0.37358c0.49129,-0.80914 0.64033,-2.18992 0.90216,-3.10906l0.24539,-0.62402c0,0 0.27854,-0.69636 0.9749,-0.41781z" fill="#000000" stroke-width="0.5" stroke-linecap="butt"/><path d="M258.11333,181.3377c0.9141,0.00167 0.61606,0.97404 0.4995,1.58177c-0.46537,2.43094 -1.05895,5.00674 -2.24778,7.28449c-1.03232,1.89563 -2.46257,3.67139 -4.28744,4.99508c-1.42776,1.03814 -3.17854,1.81405 -5.03671,1.66503c-1.95058,-0.15818 -3.78127,-1.27792 -5.24483,-2.49755c-1.57012,-1.27707 -2.64906,-3.04533 -3.66306,-4.78695c-1.08227,-1.864 -1.91312,-3.94279 -2.70567,-6.03573c-0.13404,-0.48702 -0.99735,-1.49103 0,-1.54015c3.99024,-0.19647 7.92553,1.19383 11.94657,1.1239c3.59313,-0.15318 7.08136,-1.7974 10.73942,-1.78991z" data-paper-data="{&quot;index&quot;:null}" fill="url(#color-1)" stroke-width="1" stroke-linecap="round"/><path d="M255.31791,186.57721l-3.44819,-4.75915l4.93439,-0.79655z" data-paper-data="{&quot;index&quot;:null}" fill="#ffffff" stroke-width="1.03387" stroke-linecap="round"/><path d="M240.60215,187.05274l-2.44434,-5.45746l4.99525,0.17808z" data-paper-data="{&quot;index&quot;:null}" fill="#ffffff" stroke-width="1.04644" stroke-linecap="round"/><path d="M245.95863,186.08719l-2.83055,-3.78235l4.99508,-0.13045z" data-paper-data="{&quot;index&quot;:null}" fill="#ffffff" stroke-width="0.89823" stroke-linecap="round"/><path d="M249.91307,186.00394l-2.83055,-3.78236l4.99508,-0.13046z" data-paper-data="{&quot;index&quot;:null}" fill="#ffffff" stroke-width="0.89823" stroke-linecap="round"/><path d="M251.39486,192.29933c2.00494,0.37313 3.68712,2.93219 4.88044,5.18897c0.79314,1.50652 0.63538,3.62377 0.24684,5.06585c-0.38861,1.44208 -1.2168,2.52318 -2.39223,2.90006c-1.17542,0.37679 -2.4778,-0.0214 -3.63242,-0.96871c-1.15462,-0.9474 -2.0355,-2.70983 -2.74447,-4.26513c-0.42667,-0.93857 -1.85151,-3.12808 -2.40629,-3.44685c-0.79089,-0.45547 -3.04942,-1.15736 -2.38324,-1.68384c2.2025,-1.73504 5.34025,-3.33546 8.43137,-2.79033z" data-paper-data="{&quot;index&quot;:null}" fill="#ff6684" stroke-width="0.91755" stroke-linecap="round"/></g></g></svg>