<svg version="1.1" xmlns="http://www.w3.org/2000/svg" xmlns:xlink="http://www.w3.org/1999/xlink" width="106.95148" height="187.90727" viewBox="0,0,106.95148,187.90727"><defs><linearGradient x1="245.38855" y1="180.35602" x2="245.38855" y2="235.94716" gradientUnits="userSpaceOnUse" id="color-1"><stop offset="0" stop-color="#2a2a84"/><stop offset="1" stop-color="#262675"/></linearGradient><linearGradient x1="251.53976" y1="254.28697" x2="284.77764" y2="254.28697" gradientUnits="userSpaceOnUse" id="color-2"><stop offset="0" stop-color="#643a19"/><stop offset="1" stop-color="#9b663d"/></linearGradient><linearGradient x1="207.03691" y1="255.96665" x2="243.31918" y2="255.96665" gradientUnits="userSpaceOnUse" id="color-3"><stop offset="0" stop-color="#643a19"/><stop offset="1" stop-color="#9b663d"/></linearGradient><linearGradient x1="265.9562" y1="114.16707" x2="265.9562" y2="130.74325" gradientUnits="userSpaceOnUse" id="color-4"><stop offset="0" stop-color="#509b07"/><stop offset="1" stop-color="#346a00"/></linearGradient><linearGradient x1="247.13675" y1="108.90124" x2="247.13675" y2="135.72537" gradientUnits="userSpaceOnUse" id="color-5"><stop offset="0" stop-color="#509b07"/><stop offset="1" stop-color="#468904"/></linearGradient></defs><g transform="translate(-188.94878,-85.58178)"><g data-paper-data="{&quot;isPaintingLayer&quot;:true}" fill="none" fill-rule="nonzero" stroke="none" stroke-width="none" stroke-linecap="none" stroke-linejoin="miter" stroke-miterlimit="10" stroke-dasharray="" stroke-dashoffset="0" font-family="none" font-weight="none" font-size="none" text-anchor="none" style="mix-blend-mode: normal"><g data-paper-data="{&quot;origPos&quot;:null,&quot;origRot&quot;:0}" stroke="none" stroke-width="0" stroke-linecap="butt"><path d="M268.00759,182.06147l-3.95578,15.45494c0,0 -1.97421,-1.12083 -11.4313,-3.42616c-9.4571,-2.30533 -11.57155,-5.90871 -10.3126,-11.07323c1.25894,-5.16451 4.80946,-6.76431 14.26656,-4.45898z" data-paper-data="{&quot;origRot&quot;:0,&quot;origPos&quot;:null}" fill="#64ca00"/><g data-paper-data="{&quot;origPos&quot;:null}" fill="#ffffff"><path d="M287.09585,177.56168c11.01706,1.4649 8.82813,10.48374 8.20948,20.71041c-0.56693,9.3717 -12.97861,16.06802 -19.97497,14.45584c-9.64399,-2.22227 -6.87853,-13.51673 -4.23928,-22.52698c2.63925,-9.01025 5.71776,-14.00711 16.00476,-12.63928z" data-paper-data="{&quot;origRot&quot;:0,&quot;origPos&quot;:null}"/><path d="M272.03551,176.63301c6.63083,1.71187 3.72706,3.07697 0.2709,16.12535c-3.03388,11.45414 -3.20516,13.36918 -9.3164,12.10467c-5.46284,-1.13035 -1.79113,-8.67466 0.23737,-15.63378c2.0285,-6.95912 4.93618,-13.59587 8.80812,-12.59625z" data-paper-data="{&quot;origRot&quot;:0,&quot;origPos&quot;:null}"/></g></g><g data-paper-data="{&quot;origPos&quot;:null}"><path d="M269.36634,205.92814c0.33542,23.36797 -11.23027,30.01902 -24.2383,30.01902c-13.00803,0 -23.7244,-11.0783 -23.7244,-22.29354c0,-12.16666 1.12928,-21.85193 8.41177,-29.59575c5.42567,-5.76938 13.24571,-3.072 20.2802,-3.072c13.00803,0 18.94195,2.03645 19.27073,24.94228z" data-paper-data="{&quot;origPos&quot;:null}" fill="url(#color-1)" stroke="none" stroke-width="0" stroke-linecap="butt"/><path d="M269.36634,205.26596c0,0 -14.76896,2.20728 -25.18042,2.64874c-9.54981,0.40491 -19.18508,-3.75238 -19.18508,-3.75238c0,0 -0.84489,-15.22543 5.98217,-21.14578c4.46675,-3.8735 9.49009,-5.14202 15.94364,-5.3416c6.45355,-0.19958 13.47144,2.36082 16.7202,5.75234c7.67393,8.01117 5.7195,21.83867 5.7195,21.83867z" data-paper-data="{&quot;origPos&quot;:null}" fill="#64ca00" stroke="none" stroke-width="0" stroke-linecap="butt"/><path d="M257.46799,181.96955c0,0 1.83311,7.54921 2.20291,12.08838c0.47498,5.83023 -0.49673,16.78467 -0.49673,16.78467" data-paper-data="{&quot;origPos&quot;:null,&quot;origRot&quot;:0}" fill="none" stroke="#2a2a84" stroke-width="10" stroke-linecap="round"/><path d="M239.04706,182.53096c0,0 1.06191,7.79088 0.97412,12.35359c-0.11275,5.86046 -2.17318,16.56179 -2.17318,16.56179" data-paper-data="{&quot;origPos&quot;:null}" fill="none" stroke="#2a2a84" stroke-width="10" stroke-linecap="round"/><path d="M234.93597,209.34943c0,-2.49904 1.89876,-4.52493 4.24102,-4.52493c2.34224,0 4.24103,2.02589 4.24103,4.52493c0,2.49904 -1.89877,4.52492 -4.24103,4.52492c-2.34224,0 -4.24102,-2.02587 -4.24102,-4.52492z" data-paper-data="{&quot;origPos&quot;:null}" fill="#ffe84f" stroke="none" stroke-width="0" stroke-linecap="butt"/><path d="M255.30123,209.34943c0,-2.49904 1.83345,-4.52493 4.09513,-4.52493c2.26167,0 4.09513,2.02589 4.09513,4.52493c0,2.49904 -1.83346,4.52492 -4.09513,4.52492c-2.26167,0 -4.09513,-2.02587 -4.09513,-4.52492z" data-paper-data="{&quot;origPos&quot;:null}" fill="#ffe84f" stroke="none" stroke-width="0" stroke-linecap="butt"/></g><g data-paper-data="{&quot;origPos&quot;:null,&quot;origRot&quot;:0}" stroke="none" stroke-width="0" stroke-linecap="butt"><path d="M265.36666,236.55199c3.29866,3.16184 8.28898,0.943 8.87177,1.80137c2.35795,3.47293 2.91478,6.95293 -0.77349,13.07367c-4.56875,7.58189 -9.84187,11.73727 -18.47872,13.67722c-5.88245,1.32128 -4.34494,-3.72707 -6.79137,-9.23742c-0.87784,-1.97726 -2.31981,-4.28865 -5.6518,-8.58429c-4.16587,-5.37068 -9.92574,-16.86285 -9.92574,-16.86285c0,0 3.34085,-4.23461 7.13117,-7.88713c3.78697,-3.57285 9.02995,-5.55182 9.02995,-5.55182c0,0 8.96301,12.26226 16.58825,19.57124z" data-paper-data="{&quot;origPos&quot;:null}" fill="#262675"/><path d="M285.76079,247.87177c2.66259,2.84762 1.01939,6.89869 -1.01984,10.22132c-1.3364,2.17746 -10.30181,10.08166 -17.00376,11.59432c-2.08067,0.4696 -4.8439,-0.29708 -4.8439,-0.29708c0,0 -3.16029,3.99476 -4.14466,2.92082c-0.78139,-0.8525 -2.14755,-2.27097 -1.73895,-3.47463c1.75876,-5.18107 10.10803,-12.97939 14.10459,-16.71627c5.48639,-5.12989 12.04385,-7.03199 14.64652,-4.24846z" data-paper-data="{&quot;origPos&quot;:null}" fill="#dbbb7b"/><path d="M283.79265,243.00764c2.11842,4.26647 1.01014,9.76822 -5.19229,15.56765c-6.20243,5.79942 -16.20116,8.4059 -16.20116,8.4059c0,0 -4.26928,4.43495 -5.43732,3.36782c-2.41754,-2.20864 -6.09831,-6.05913 -5.31473,-7.0302c2.89269,-3.58492 2.68535,-2.54559 6.17116,-7.5508c2.25689,-3.24064 4.45615,-10.3352 7.34073,-13.03234c6.20243,-5.79942 15.14561,-6.75286 18.63363,0.27197z" data-paper-data="{&quot;origPos&quot;:null}" fill="url(#color-2)"/></g><g data-paper-data="{&quot;origPos&quot;:null,&quot;origRot&quot;:0}" stroke="none" stroke-width="0" stroke-linecap="butt"><path d="M241.93533,248.51287c-2.26141,3.97045 1.10801,8.26854 0.41779,9.04316c-2.79262,3.13407 -6.03157,4.52321 -12.86725,2.43987c-8.4675,-2.58067 -13.78392,-6.68051 -17.77264,-14.58296c-2.71667,-5.38226 2.55425,-5.12303 7.30113,-8.84004c1.70331,-1.33376 3.59299,-3.29614 6.94579,-7.57555c4.19186,-5.35041 14.69712,-13.54413 14.69712,-13.54413c0,0 6.40678,4.0559 10.12188,7.54558c2.93189,2.75401 6.9102,8.45308 6.9102,8.45308c0,0 -10.52649,7.88285 -15.754,17.061z" data-paper-data="{&quot;origPos&quot;:null}" fill="#262675"/><path d="M235.93389,271.05257c-2.11188,3.27694 -6.44146,2.67187 -10.16121,1.505c-2.43773,-0.76471 -12.2906,-7.53052 -15.3928,-13.66081c-0.96311,-1.90318 -0.8938,-4.76998 -0.8938,-4.76998c0,0 -4.64512,-2.09005 -3.84384,-3.30671c0.63608,-0.96578 1.67834,-2.63677 2.9453,-2.53422c5.45363,0.44141 15.05344,6.63555 19.65255,9.59951c6.31354,4.06887 9.75818,9.96401 7.69381,13.1672z" data-paper-data="{&quot;origPos&quot;:null}" fill="#dbbb7b"/><path d="M240.17076,267.95709c-3.62061,3.09541 -9.2265,3.36308 -16.36403,-1.23685c-7.13753,-4.59992 -12.10494,-13.66042 -12.10494,-13.66042c0,0 -5.3426,-3.05814 -4.59273,-4.45124c1.55201,-2.88339 4.38799,-7.3924 5.52091,-6.86947c4.18238,1.93055 3.12388,1.98307 8.82835,4.14224c3.69337,1.39797 11.11011,1.79967 14.42958,3.93895c7.13753,4.59992 10.2443,13.04015 4.28287,18.13681z" data-paper-data="{&quot;origPos&quot;:null}" fill="url(#color-3)"/></g><g data-paper-data="{&quot;origPos&quot;:null,&quot;origRot&quot;:0}" stroke="none" stroke-width="0" stroke-linecap="butt"><path d="M220.15161,182.15695l-3.95578,15.45494c0,0 -1.97421,-1.12084 -11.4313,-3.42617c-9.4571,-2.30533 -11.57155,-5.90871 -10.3126,-11.07323c1.25894,-5.16451 4.80946,-6.76431 14.26656,-4.45898z" data-paper-data="{&quot;origRot&quot;:0,&quot;origPos&quot;:null}" fill="#64ca00"/><g data-paper-data="{&quot;origPos&quot;:null}" fill="#ffffff"><path d="M239.23988,177.65716c11.01706,1.4649 8.82813,10.48374 8.20948,20.71042c-0.56693,9.3717 -12.97861,16.06801 -19.97497,14.45583c-9.64399,-2.22227 -6.87853,-13.51673 -4.23928,-22.52698c2.63925,-9.01025 5.71777,-14.0071 16.00476,-12.63928z" data-paper-data="{&quot;origRot&quot;:0,&quot;origPos&quot;:null}"/><path d="M224.17954,176.7285c6.63083,1.71187 3.72706,3.07697 0.2709,16.12535c-3.03388,11.45414 -3.20516,13.36918 -9.3164,12.10467c-5.46284,-1.13035 -1.79113,-8.67466 0.23737,-15.63378c2.0285,-6.95912 4.93618,-13.59587 8.80812,-12.59625z" data-paper-data="{&quot;origRot&quot;:0,&quot;origPos&quot;:null}"/></g></g><g data-paper-data="{&quot;origPos&quot;:null,&quot;origRot&quot;:0}"><path d="M278.97614,118.17755c0.16236,3.83213 -10.04157,10.7004 -18.78963,12.39152c-7.04919,1.36271 -6.58393,-5.60721 -7.27577,-9.18603c-0.69184,-3.57882 13.27361,-5.46874 20.3228,-6.83145c7.04919,-1.36271 5.63749,1.14546 5.74259,3.62596z" data-paper-data="{&quot;origPos&quot;:null}" fill="url(#color-4)" stroke="none" stroke-width="0" stroke-linecap="butt"/><path d="M216.96082,174.91355c0,0 -1.12382,1.73808 -3.01351,0.32603c-1.88968,-1.41203 -3.78466,-5.15577 -1.89445,-7.48401c2.26088,-2.78481 0.0894,-10.26145 1.97908,-8.84942c0,0 6.23366,0.12235 7.39626,3.65718c0,0 4.5481,9.97777 3.83705,11.85179c0,0 -1.15466,1.94056 -5.05253,2.40887c-2.11192,0.25375 -3.2519,-1.91044 -3.2519,-1.91044z" data-paper-data="{&quot;origRot&quot;:0,&quot;origPos&quot;:null}" fill="#5a2c0a" stroke="none" stroke-width="0" stroke-linecap="butt"/><path d="M212.23647,133.40488c4.42669,0.17 36.1545,-9.19755 41.9041,-9.98104c8.50643,-1.15917 7.64825,6.88716 9.86774,15.18036c2.55193,9.53539 2.44702,21.16156 4.4741,27.71226c2.1742,7.02609 2.24122,10.91382 -2.84771,15.47539c-15.59228,3.98986 -13.50026,-0.0998 -21.2111,-1.07933c-6.57817,-1.07452 -11.28624,-2.05955 -18.95862,-6.35617c-5.82408,-3.26154 -5.3211,-6.99468 -9.35098,-11.11163c-1.23531,-1.262 -2.51766,-1.81469 -2.70866,-1.77777c-10.18191,1.96831 -17.40522,-5.36041 -18.94263,-13.31334c-1.53742,-7.95294 0.85,-15.10251 6.54358,-16.20316c5.69358,-1.10065 9.691,1.39536 11.23019,1.45446z" data-paper-data="{&quot;origPos&quot;:null}" fill="#ffdebd" stroke="none" stroke-width="0" stroke-linecap="butt"/><path d="M260.53214,129.37142c1.27385,4.73311 -0.07131,9.21001 -3.00451,9.99943c-2.93319,0.78943 -6.34367,-2.40755 -7.61751,-7.14065c-1.27385,-4.73311 0.07131,-9.21 3.00451,-9.99943c2.93319,-0.78943 6.34367,2.40755 7.61752,7.14065z" data-paper-data="{&quot;origPos&quot;:null,&quot;origRot&quot;:0}" fill="#ffffff" stroke="none" stroke-width="0" stroke-linecap="butt"/><path d="M221.78619,139.91228c1.29704,4.71703 6.06576,7.29608 3.97894,8.86115c-1.06309,0.7973 -5.64749,1.24021 -7.75214,-0.18566c-2.10465,-1.42587 -3.24496,-3.49486 -4.08355,-7.83283c-0.83859,-4.33797 -1.66731,-8.53693 1.02276,-9.16064c11.32603,-2.62599 5.6626,4.05782 6.83401,8.31797z" data-paper-data="{&quot;origPos&quot;:null}" fill="#5a2c0a" stroke="none" stroke-width="0" stroke-linecap="butt"/><path d="M248.69555,136.75698c1.48454,4.67131 0.34123,9.20396 -2.55366,10.12395c-2.89489,0.92001 -6.44514,-2.12103 -7.92968,-6.79234c-1.48454,-4.67131 -0.34123,-9.20396 2.55366,-10.12395c2.89489,-0.92001 6.44514,2.12103 7.92968,6.79234z" data-paper-data="{&quot;origPos&quot;:null,&quot;origRot&quot;:0}" fill="#ffffff" stroke="none" stroke-width="0" stroke-linecap="butt"/><path d="M245.26089,133.70509c0.9347,-0.18069 1.91294,0.33807 2.73953,1.32105c0.82561,0.98317 1.49977,2.43154 1.82452,4.11144c0.32475,1.6799 0.23897,3.27518 -0.16073,4.49522c-0.40068,1.22023 -1.1151,2.06621 -2.0498,2.24689c-0.9347,0.18069 -1.91294,-0.33807 -2.73953,-1.32105c-0.82561,-0.98317 -1.49977,-2.43154 -1.82452,-4.11144c-0.32475,-1.6799 -0.23897,-3.27518 0.16073,-4.49522c0.40068,-1.22023 1.1151,-2.06621 2.0498,-2.24689z" data-paper-data="{&quot;origPos&quot;:null}" id="ID0.2989244391210377" fill="#000000" stroke="none" stroke-width="1" stroke-linecap="butt"/><path d="M257.16099,126.77039c0.9347,-0.18069 1.91294,0.33807 2.73953,1.32105c0.82561,0.98317 1.31209,2.70412 1.82452,4.11144c0.18379,0.51345 0.47987,1.25473 0.19437,1.79575c-0.36471,0.65819 -1.09582,1.08063 -1.75486,1.45961c-1.18382,0.49366 -2.50123,1.53972 -3.7041,1.12346c-1.05852,-0.38611 -1.27962,-1.93021 -1.50998,-3.06919c-0.29765,-1.47125 -0.23897,-3.27518 0.16073,-4.49522c0.40068,-1.22023 1.1151,-2.06621 2.0498,-2.24689z" data-paper-data="{&quot;origPos&quot;:null}" id="ID0.2989244391210377" fill="#000000" stroke="none" stroke-width="1" stroke-linecap="round"/><path d="M259.99708,94.32078c5.18941,14.2181 2.51458,15.60079 -4.46091,21.82219c-10.16386,9.06509 -25.45752,10.58418 -36.69985,18.27119c-2.95194,2.0184 -11.81887,0.21496 -15.32987,0.89369c-7.18103,1.3882 -12.22506,-2.96075 -13.70354,-9.01638c-3.26117,-13.35733 3.36828,-14.69314 10.54931,-16.08134c0,0 8.15617,-0.21786 11.6965,3.44722c0,0 7.53612,-20.01313 18.69823,-24.4634c14.36877,-5.72874 25.52343,-5.08364 29.25011,5.12683z" data-paper-data="{&quot;origPos&quot;:null}" fill="#64ca00" stroke="none" stroke-width="0" stroke-linecap="butt"/><path d="M258.77384,103.24044c1.03776,5.36823 0.38193,9.68471 -10.09921,12.03561c-11.06472,2.48179 -12.8195,-2.03625 -13.85726,-7.40448c-1.03776,-5.36823 3.48381,-10.75676 10.09921,-12.03561c6.61539,-1.27885 12.8195,2.03625 13.85726,7.40448z" data-paper-data="{&quot;origPos&quot;:null}" fill="#ffffff" stroke="none" stroke-width="0" stroke-linecap="butt"/><path d="M278.97028,116.0398c-0.03342,0.88084 -37.39399,13.84913 -47.92422,17.10699c-5.11782,1.58337 -15.77727,3.21139 -15.74384,2.33055c0.12356,-3.25614 1.18901,-8.62748 5.87738,-11.21947c5.66564,-3.13228 25.39822,-12.42652 40.96377,-15.18944c6.36311,-1.12946 16.95048,3.71523 16.82692,6.97137z" data-paper-data="{&quot;origPos&quot;:null}" fill="url(#color-5)" stroke="none" stroke-width="0" stroke-linecap="butt"/><path d="M244.31111,112.37371l-4.47144,-11.68596l5.36267,-1.6087l1.04469,9.45606l7.03469,-3.03106l-0.58862,3.89128z" data-paper-data="{&quot;origPos&quot;:null}" fill="#64ca00" stroke="none" stroke-width="0" stroke-linecap="butt"/><path d="M267.26174,164.57459c0.11933,2.57247 -2.22324,3.48818 -3.56819,4.14744c-4.10482,2.01211 -7.88898,1.98854 -16.2203,0.59739c-2.69739,-0.4504 -7.79574,-15.12663 -1.39945,-13.11955c0,0 12.64409,2.40011 18.44237,0.93283c0,0 8.6074,-6.25848 11.57825,-6.63135c1.4734,-0.18492 2.07226,2.86185 1.91097,4.49032c0,0 1.01442,4.44605 -0.80517,5.95755c-2.52071,2.67056 -4.80216,2.16078 -4.76763,2.90526z" data-paper-data="{&quot;origPos&quot;:null}" fill="#38291e" stroke="none" stroke-width="0" stroke-linecap="butt"/><path d="M274.4498,144.65301c0.76519,6.59262 3.21845,10.70879 -10.94507,13.19218c-6.52784,1.14456 -13.57167,-1.71219 -14.68542,-7.47355c-1.11375,-5.76136 3.78807,-14.08527 10.17766,-15.84474c9.31006,-2.56365 14.22863,-0.4211 15.45283,10.12611z" data-paper-data="{&quot;origPos&quot;:null}" fill="#ffdebd" stroke="none" stroke-width="0" stroke-linecap="butt"/><g data-paper-data="{&quot;origPos&quot;:null}" fill="none" stroke="#f6b09a" stroke-width="3.5" stroke-linecap="round"><path d="M199.90241,142.70995c0,0 2.58111,-2.26095 6.85986,-0.10442c6.13644,3.09282 4.3626,10.73913 4.3626,10.73913" data-paper-data="{&quot;origPos&quot;:null}"/><path d="M203.84174,148.78704l5.89094,-1.1388" data-paper-data="{&quot;origPos&quot;:null}"/><path d="M210.31042,153.64762l-1.26234,0.24403" data-paper-data="{&quot;origPos&quot;:null}"/></g><path d="M237.2195,128.13132c-1.27288,0.66393 -1.17204,0.84241 -1.58651,2.21691c-0.42758,1.41799 -1.53824,3.35241 -1.53824,3.35241c0,0 -2.12024,-3.28434 -2.63126,-5.92779c-0.34697,-1.79487 0.02357,-5.11179 2.66877,-6.27402c9.29696,-2.12407 8.21428,7.22315 8.21428,7.22315c0,0 -3.7981,-1.32643 -5.12704,-0.59065z" data-paper-data="{&quot;origPos&quot;:null}" fill="#38291e" stroke="none" stroke-width="0" stroke-linecap="butt"/><path d="M253.63395,122.10018c-1.47192,0.37535 -3.32778,3.94478 -3.32778,3.94478c0,0 -7.19609,-6.06293 1.0286,-10.88992c2.72256,-0.96723 5.2662,1.1936 6.24403,2.73819c1.44014,2.27485 2.14805,6.11949 2.14805,6.11949c0,0 -2.13472,-0.64694 -3.4181,-1.38617c-1.24402,-0.71656 -1.29295,-0.91563 -2.6748,-0.5264z" data-paper-data="{&quot;origPos&quot;:null,&quot;index&quot;:null,&quot;origRot&quot;:0}" fill="#38291e" stroke="none" stroke-width="0" stroke-linecap="butt"/></g></g></g></svg>