<svg version="1.1" xmlns="http://www.w3.org/2000/svg" xmlns:xlink="http://www.w3.org/1999/xlink" width="545.8165" height="290.67765" viewBox="0,0,545.8165,290.67765"><defs><linearGradient x1="537.165" y1="320.7727" x2="537.165" y2="279.85781" gradientUnits="userSpaceOnUse" id="color-1"><stop offset="0" stop-color="#af9141"/><stop offset="1" stop-color="#ddb747"/></linearGradient><linearGradient x1="416.56822" y1="320.7727" x2="416.56822" y2="279.85781" gradientUnits="userSpaceOnUse" id="color-2"><stop offset="0" stop-color="#af9141"/><stop offset="1" stop-color="#ddb747"/></linearGradient><linearGradient x1="297.18959" y1="320.7727" x2="297.18959" y2="279.85781" gradientUnits="userSpaceOnUse" id="color-3"><stop offset="0" stop-color="#af9141"/><stop offset="1" stop-color="#ddb747"/></linearGradient><linearGradient x1="176.59281" y1="320.7727" x2="176.59281" y2="279.85781" gradientUnits="userSpaceOnUse" id="color-4"><stop offset="0" stop-color="#af9141"/><stop offset="1" stop-color="#ddb747"/></linearGradient><linearGradient x1="538.165" y1="362.03446" x2="538.165" y2="321.11958" gradientUnits="userSpaceOnUse" id="color-5"><stop offset="0" stop-color="#af9141"/><stop offset="1" stop-color="#ddb747"/></linearGradient><linearGradient x1="476.56822" y1="362.03446" x2="476.56822" y2="321.11958" gradientUnits="userSpaceOnUse" id="color-6"><stop offset="0" stop-color="#af9141"/><stop offset="1" stop-color="#ddb747"/></linearGradient><linearGradient x1="357.18959" y1="362.03446" x2="357.18959" y2="321.11958" gradientUnits="userSpaceOnUse" id="color-7"><stop offset="0" stop-color="#af9141"/><stop offset="1" stop-color="#ddb747"/></linearGradient><linearGradient x1="236.59282" y1="362.03446" x2="236.59282" y2="321.11958" gradientUnits="userSpaceOnUse" id="color-8"><stop offset="0" stop-color="#af9141"/><stop offset="1" stop-color="#ddb747"/></linearGradient><linearGradient x1="116.16499" y1="362.03446" x2="116.16499" y2="321.11958" gradientUnits="userSpaceOnUse" id="color-9"><stop offset="0" stop-color="#af9141"/><stop offset="1" stop-color="#ddb747"/></linearGradient><linearGradient x1="178.35509" y1="238.68561" x2="178.35509" y2="197.77073" gradientUnits="userSpaceOnUse" id="color-10"><stop offset="0" stop-color="#af9141"/><stop offset="1" stop-color="#ddb747"/></linearGradient><linearGradient x1="298.95187" y1="238.68561" x2="298.95187" y2="197.77073" gradientUnits="userSpaceOnUse" id="color-11"><stop offset="0" stop-color="#af9141"/><stop offset="1" stop-color="#ddb747"/></linearGradient><linearGradient x1="418.3305" y1="238.68561" x2="418.3305" y2="197.77073" gradientUnits="userSpaceOnUse" id="color-12"><stop offset="0" stop-color="#af9141"/><stop offset="1" stop-color="#ddb747"/></linearGradient><linearGradient x1="177.35509" y1="279.94737" x2="177.35509" y2="239.03249" gradientUnits="userSpaceOnUse" id="color-13"><stop offset="0" stop-color="#af9141"/><stop offset="1" stop-color="#ddb747"/></linearGradient><linearGradient x1="238.95187" y1="279.94737" x2="238.95187" y2="239.03249" gradientUnits="userSpaceOnUse" id="color-14"><stop offset="0" stop-color="#af9141"/><stop offset="1" stop-color="#ddb747"/></linearGradient><linearGradient x1="358.3305" y1="279.94737" x2="358.3305" y2="239.03249" gradientUnits="userSpaceOnUse" id="color-15"><stop offset="0" stop-color="#af9141"/><stop offset="1" stop-color="#ddb747"/></linearGradient><linearGradient x1="538.15599" y1="155.09702" x2="538.15599" y2="114.18214" gradientUnits="userSpaceOnUse" id="color-16"><stop offset="0" stop-color="#af9141"/><stop offset="1" stop-color="#ddb747"/></linearGradient><linearGradient x1="417.55921" y1="155.09702" x2="417.55921" y2="114.18214" gradientUnits="userSpaceOnUse" id="color-17"><stop offset="0" stop-color="#af9141"/><stop offset="1" stop-color="#ddb747"/></linearGradient><linearGradient x1="298.18058" y1="155.09702" x2="298.18058" y2="114.18214" gradientUnits="userSpaceOnUse" id="color-18"><stop offset="0" stop-color="#af9141"/><stop offset="1" stop-color="#ddb747"/></linearGradient><linearGradient x1="539.15599" y1="196.35878" x2="539.15599" y2="155.4439" gradientUnits="userSpaceOnUse" id="color-19"><stop offset="0" stop-color="#af9141"/><stop offset="1" stop-color="#ddb747"/></linearGradient><linearGradient x1="477.55921" y1="196.35878" x2="477.55921" y2="155.4439" gradientUnits="userSpaceOnUse" id="color-20"><stop offset="0" stop-color="#af9141"/><stop offset="1" stop-color="#ddb747"/></linearGradient><linearGradient x1="358.18058" y1="196.35878" x2="358.18058" y2="155.4439" gradientUnits="userSpaceOnUse" id="color-21"><stop offset="0" stop-color="#af9141"/><stop offset="1" stop-color="#ddb747"/></linearGradient><linearGradient x1="535.14698" y1="114.27169" x2="535.14698" y2="73.35681" gradientUnits="userSpaceOnUse" id="color-22"><stop offset="0" stop-color="#af9141"/><stop offset="1" stop-color="#ddb747"/></linearGradient><linearGradient x1="473.5502" y1="114.27169" x2="473.5502" y2="73.35681" gradientUnits="userSpaceOnUse" id="color-23"><stop offset="0" stop-color="#af9141"/><stop offset="1" stop-color="#ddb747"/></linearGradient><linearGradient x1="354.17157" y1="114.27169" x2="354.17157" y2="73.35681" gradientUnits="userSpaceOnUse" id="color-24"><stop offset="0" stop-color="#af9141"/><stop offset="1" stop-color="#ddb747"/></linearGradient><linearGradient x1="539.65149" y1="277.93536" x2="539.65149" y2="237.02048" gradientUnits="userSpaceOnUse" id="color-25"><stop offset="0" stop-color="#af9141"/><stop offset="1" stop-color="#ddb747"/></linearGradient><linearGradient x1="239.84668" y1="114.76719" x2="239.84668" y2="73.85231" gradientUnits="userSpaceOnUse" id="color-26"><stop offset="0" stop-color="#af9141"/><stop offset="1" stop-color="#ddb747"/></linearGradient><linearGradient x1="240.34218" y1="196.34376" x2="240.34218" y2="155.42888" gradientUnits="userSpaceOnUse" id="color-27"><stop offset="0" stop-color="#af9141"/><stop offset="1" stop-color="#ddb747"/></linearGradient></defs><g transform="translate(5.16501,-72.35681)"><g data-paper-data="{&quot;isPaintingLayer&quot;:true}" fill-rule="nonzero" stroke="#91773e" stroke-width="2" stroke-linecap="butt" stroke-linejoin="miter" stroke-miterlimit="10" stroke-dasharray="" stroke-dashoffset="0" style="mix-blend-mode: normal"><path d="M537.165,320.7727h-120.33v-40.91489h120.33z" data-paper-data="{&quot;origPos&quot;:null,&quot;index&quot;:null}" fill="url(#color-1)"/><path d="M416.56822,320.7727h-120.33v-40.91489h120.33z" data-paper-data="{&quot;origPos&quot;:null,&quot;index&quot;:null}" fill="url(#color-2)"/><path d="M297.18959,320.7727h-120.33v-40.91489h120.33z" data-paper-data="{&quot;origPos&quot;:null,&quot;index&quot;:null}" fill="url(#color-3)"/><path d="M176.59281,320.7727h-120.33v-40.91489h120.33z" data-paper-data="{&quot;origPos&quot;:null,&quot;index&quot;:null}" fill="url(#color-4)"/><path d="M538.165,362.03446h-61.33v-40.91488h61.33z" data-paper-data="{&quot;origPos&quot;:null,&quot;index&quot;:null}" fill="url(#color-5)"/><path d="M476.56822,362.03446h-120.33v-40.91488h120.33z" data-paper-data="{&quot;origPos&quot;:null,&quot;index&quot;:null}" fill="url(#color-6)"/><path d="M357.18959,362.03446h-120.33v-40.91488h120.33z" data-paper-data="{&quot;origPos&quot;:null,&quot;index&quot;:null}" fill="url(#color-7)"/><path d="M236.59282,362.03446h-120.33v-40.91488h120.33z" data-paper-data="{&quot;origPos&quot;:null,&quot;index&quot;:null}" fill="url(#color-8)"/><path d="M116.16499,362.03446h-120.33v-40.91488h120.33z" data-paper-data="{&quot;origPos&quot;:null,&quot;index&quot;:null}" fill="url(#color-9)"/><path d="M178.35509,197.77072h120.33v40.91489h-120.33z" data-paper-data="{&quot;index&quot;:null}" fill="url(#color-10)"/><path d="M298.95187,197.77072h120.33v40.91489h-120.33z" data-paper-data="{&quot;index&quot;:null}" fill="url(#color-11)"/><path d="M418.3305,197.77072h120.33v40.91489h-120.33z" data-paper-data="{&quot;index&quot;:null}" fill="url(#color-12)"/><path d="M177.35509,239.03249h61.33v40.91488h-61.33z" data-paper-data="{&quot;index&quot;:null}" fill="url(#color-13)"/><path d="M238.95187,239.03249h120.33v40.91488h-120.33z" data-paper-data="{&quot;index&quot;:null}" fill="url(#color-14)"/><path d="M358.3305,239.03249h120.33v40.91488h-120.33z" data-paper-data="{&quot;index&quot;:null}" fill="url(#color-15)"/><path d="M538.15599,155.09702h-120.33v-40.91489h120.33z" data-paper-data="{&quot;index&quot;:null}" fill="url(#color-16)"/><path d="M417.55921,155.09702h-120.33v-40.91489h120.33z" data-paper-data="{&quot;index&quot;:null}" fill="url(#color-17)"/><path d="M298.18058,155.09702h-120.33v-40.91489h120.33z" data-paper-data="{&quot;index&quot;:null}" fill="url(#color-18)"/><path d="M539.15599,196.35878h-61.33v-40.91488h61.33z" data-paper-data="{&quot;index&quot;:null}" fill="url(#color-19)"/><path d="M477.55921,196.35878h-120.33v-40.91488h120.33z" data-paper-data="{&quot;index&quot;:null}" fill="url(#color-20)"/><path d="M358.18058,196.35878h-120.33v-40.91488h120.33z" data-paper-data="{&quot;index&quot;:null}" fill="url(#color-21)"/><path d="M535.14698,114.27169h-61.33v-40.91488h61.33z" data-paper-data="{&quot;index&quot;:null}" fill="url(#color-22)"/><path d="M473.5502,114.27169h-120.33v-40.91488h120.33z" data-paper-data="{&quot;index&quot;:null}" fill="url(#color-23)"/><path d="M354.17157,114.27169h-120.33v-40.91488h120.33z" data-paper-data="{&quot;index&quot;:null}" fill="url(#color-24)"/><path d="M539.65149,277.93536h-61.33v-40.91488h61.33z" data-paper-data="{&quot;index&quot;:null}" fill="url(#color-25)"/><path d="M239.84668,114.76719h-61.33v-40.91488h61.33z" data-paper-data="{&quot;index&quot;:null}" fill="url(#color-26)"/><path d="M240.34218,196.34376h-61.33v-40.91488h61.33z" data-paper-data="{&quot;index&quot;:null}" fill="url(#color-27)"/></g></g></svg>