<svg version="1.1" xmlns="http://www.w3.org/2000/svg" xmlns:xlink="http://www.w3.org/1999/xlink" width="473.95263" height="334.05095" viewBox="0,0,473.95263,334.05095"><defs><linearGradient x1="382.13804" y1="90.92854" x2="382.13804" y2="364.97951" gradientUnits="userSpaceOnUse" id="color-1"><stop offset="0" stop-color="#311837"/><stop offset="1" stop-color="#4f2858"/></linearGradient><linearGradient x1="243.13805" y1="138.92853" x2="243.13805" y2="412.97949" gradientUnits="userSpaceOnUse" id="color-2"><stop offset="0" stop-color="#311837"/><stop offset="1" stop-color="#4f2858"/></linearGradient><linearGradient x1="72.13807" y1="78.92854" x2="72.13807" y2="362.97951" gradientUnits="userSpaceOnUse" id="color-3"><stop offset="0" stop-color="#311837"/><stop offset="1" stop-color="#4f2858"/></linearGradient></defs><g transform="translate(-4.95793,-78.92854)"><g data-paper-data="{&quot;isPaintingLayer&quot;:true}" fill-rule="nonzero" stroke="none" stroke-width="0" stroke-linecap="round" stroke-linejoin="miter" stroke-miterlimit="10" stroke-dasharray="" stroke-dashoffset="0" style="mix-blend-mode: normal"><path d="M298.04798,217.8632l48.7079,40.32648l45.03184,39.88535l-7.71974,-57.89809l-15.43949,-34.73885l-28.30573,-42.4586l-21.87261,-33.45223l34.73886,24.44586l11.57962,18.01274l20.58598,-38.59872l28.30573,-42.4586l-9.00637,27.01911l-21.87261,52.75159l20.58599,48.89172l20.58598,-46.31847l1.28662,-25.73248l9.00637,-48.89172l5.1465,27.01911l5.1465,46.31847l20.58598,-21.87261l13.78526,-13.71174l-6.06552,16.28499l-34.73885,56.61146l-10.293,52.7516l3.85987,102.92994l-48.89172,-2.57325l-1.28662,-36.02548l-29.59236,-36.02548z" fill="url(#color-1)"/><path d="M273.3737,338.35528l-29.59236,36.02548l-1.28662,36.02548l-48.89172,2.57325l3.85987,-102.92993l-10.29299,-52.7516l-34.73885,-56.61146l-10.29299,-15.43949l18.01274,12.86624l20.58598,21.87261l5.1465,-46.31847l5.14649,-27.01911l9.00637,48.89172l1.28663,25.73248l20.58598,46.31847l20.58599,-48.89172l-21.87261,-52.75159l-9.00637,-27.01911l28.30574,42.4586l20.58598,38.59873l11.57962,-18.01274l34.73886,-24.44586l-21.87261,33.45223l-28.30573,42.4586l-15.43949,34.73885l-7.71974,57.89809l45.03184,-39.88535l62.23585,-63.1549z" data-paper-data="{&quot;index&quot;:null}" fill="url(#color-2)"/><path d="M4.95793,204.54566l31.79796,47.7473l45.03185,41.34075l-7.71975,-60.01076l-15.43949,-36.00646l-28.30573,-44.00789l-21.87262,-34.67289l34.73886,25.33788l11.57962,18.67002l20.58599,-40.00717l28.30574,-44.0079l-9.00637,28.00503l-21.87261,54.67648l20.58599,50.67575l20.58599,-48.00861l1.28663,-26.67145l9.00637,-50.67576l5.1465,28.00503l5.1465,48.00861l20.58598,-22.67073l18.01274,-13.33573l-10.29299,16.00287l-34.73885,58.6772l-10.29299,54.67647l3.85987,106.68581l-48.89172,-2.66715l-1.28662,-37.34003l-29.59236,-37.34003z" fill="url(#color-3)"/></g></g></svg>