<svg version="1.1" xmlns="http://www.w3.org/2000/svg" xmlns:xlink="http://www.w3.org/1999/xlink" width="143.7336" height="143.73361" viewBox="0,0,143.7336,143.73361"><defs><linearGradient x1="240" y1="113.32988" x2="240" y2="246.67018" gradientUnits="userSpaceOnUse" id="color-1"><stop offset="0" stop-color="#5ca5ed"/><stop offset="1" stop-color="#b8dfed"/></linearGradient><radialGradient cx="239.99999" cy="180.00001" r="67.17002" gradientUnits="userSpaceOnUse" id="color-2"><stop offset="0" stop-color="#3c94ed" stop-opacity="0"/><stop offset="1" stop-color="#3c94ed"/></radialGradient></defs><g transform="translate(-168.1332,-108.13323)"><g data-paper-data="{&quot;isPaintingLayer&quot;:true}" fill-rule="nonzero" stroke-linecap="butt" stroke-linejoin="miter" stroke-miterlimit="10" stroke-dasharray="" stroke-dashoffset="0" style="mix-blend-mode: normal"><path d="M240,110.13324c19.2752,0 36.74421,7.8268 49.3899,20.47689c12.64989,12.64569 20.4769,30.11449 20.4769,49.38991c0,19.27542 -7.82701,36.74421 -20.4769,49.38991c-12.64569,12.65009 -30.1147,20.4769 -49.3899,20.4769c-19.27542,0 -36.74442,-7.8268 -49.39012,-20.4769c-12.64989,-12.64569 -20.47668,-30.11449 -20.47668,-49.38991c0,-19.27542 7.82679,-36.74421 20.47668,-49.38991c12.64569,-12.6501 30.11471,-20.47689 49.39012,-20.47689z" data-paper-data="{&quot;origPos&quot;:null}" fill="#3c94ed" stroke="#23568d" stroke-width="4"/><path d="M239.99995,113.32988c18.3943,0 35.0619,7.4711 47.1305,19.5397c12.0686,12.0686 19.5397,28.7362 19.5397,47.1305c0,18.3943 -7.4711,35.0618 -19.5397,47.1305c-12.0686,12.0686 -28.7362,19.5396 -47.1305,19.5396c-18.3943,0 -35.0618,-7.471 -47.1305,-19.5396c-12.0686,-12.0687 -19.5396,-28.7362 -19.5396,-47.1305c0,-18.3943 7.471,-35.0619 19.5396,-47.1305c12.0687,-12.0686 28.7362,-19.5397 47.1305,-19.5397z" data-paper-data="{&quot;origPos&quot;:null}" fill="url(#color-1)" stroke="none" stroke-width="1.3334"/><path d="M223.49904,114.88834c17.96432,-4.5526 36.09141,-1.38139 50.86489,7.41812c14.77348,8.79951 26.19518,23.22838 30.74778,41.19271c4.55261,17.96432 1.38136,36.0913 -7.41811,50.86488c-8.79951,14.77348 -23.22841,26.19508 -41.19273,30.74768c-17.96432,4.55261 -36.09128,1.38146 -50.86485,-7.41801c-14.7735,-8.7996 -26.19508,-23.22841 -30.74768,-41.19272c-4.5526,-17.96432 -1.38149,-36.09137 7.41801,-50.86486c8.7996,-14.7735 23.22838,-26.19517 41.1927,-30.74778zM250.45435,221.25237c23.24803,-5.89163 37.31819,-29.51398 31.42655,-52.76202c-5.89162,-23.24803 -29.51398,-37.31818 -52.76201,-31.42655c-23.24803,5.89163 -37.31818,29.51398 -31.42655,52.76201c5.89163,23.24803 29.51398,37.31819 52.76201,31.42655z" data-paper-data="{&quot;origPos&quot;:null,&quot;origRot&quot;:0}" fill="url(#color-2)" stroke="none" stroke-width="1.3334"/><g stroke="none" stroke-width="0.26821"><path d="M282.35312,181.15127c-19.46645,8.71499 -30.07135,3.82192 -38.85544,-2.12922l10.00954,-34.71945c8.79277,5.9172 18.54831,10.63328 38.83821,2.24441z" fill="#91c300"/><path d="M226.38458,216.34348c-8.81233,-5.93098 -18.39216,-10.80914 -38.73001,-2.39954l9.95849,-34.78481c20.3422,-8.41099 30.11453,-3.65112 38.91821,2.31609l-10.14668,34.86735z" fill="#00b4f1"/><path d="M238.22227,175.19598c-5.30536,-3.57248 -11.01125,-6.90721 -19.11469,-6.96865c-5.34654,-0.04128 -11.71098,1.47765 -19.79056,4.81833l10.01286,-34.69477c20.32846,-8.40549 30.09269,-3.64842 38.89026,2.3145z" fill="#f8682c"/><path d="M241.80973,184.82186c8.80139,5.92595 18.57781,10.64616 38.88928,2.25052l-10.01159,34.57984c-20.31503,8.40183 -30.07112,3.64378 -38.86338,-2.31838z" fill="#ffc300"/></g></g></g></svg>