<svg version="1.1" xmlns="http://www.w3.org/2000/svg" xmlns:xlink="http://www.w3.org/1999/xlink" width="38.88847" height="32.14052" viewBox="0,0,38.88847,32.14052"><g transform="translate(-220.71647,-164.01475)"><g data-paper-data="{&quot;isPaintingLayer&quot;:true}" fill-rule="nonzero" stroke-linejoin="miter" stroke-miterlimit="10" stroke-dasharray="" stroke-dashoffset="0" style="mix-blend-mode: normal"><path d="M257.245,178.618c1.177,1.493 1.905,3.556 1.905,5.832c0,2.276 -0.728,4.339 -1.905,5.832c-1.177,1.494 -2.802,2.418 -4.595,2.418c-1.793,0 -3.418,-0.924 -4.595,-2.418c-1.177,-1.493 -1.905,-3.556 -1.905,-5.832c0,-2.276 0.728,-4.339 1.905,-5.832c1.177,-1.494 2.802,-2.418 4.595,-2.418c1.793,0 3.418,0.924 4.595,2.418z" fill="#e2bf87" stroke="none" stroke-width="1" stroke-linecap="butt"/><path d="M252.5855,178.654c2.1585,1.313 2.9305,4.951 2.7753,7.846c0.1552,2.479 -0.6713,5.328 -2.7753,6.646c-3.563,2.249 -7.9525,2.937 -12.1703,3.004c-4.1856,0.067 -8.3836,-0.491 -12.1382,-2.45c-2.3079,-1.265 -3.975,-4.088 -5.1608,-6.75c-0.6903,-1.557 -1.4161,-4.595 -0.1238,-5.3c4.0147,-2.184 8.7172,-1.434 13.129,-1.95c3.2112,-0.001 6.4407,0.795 9.7023,0.4c2.2715,-0.272 4.6926,-2.707 6.7618,-1.446z" fill="#fcdda0" stroke="none" stroke-width="0.91701" stroke-linecap="round"/><path d="M250.7835,181.5582c1.2526,1.1864 1.2917,2.843 1.2809,4.3116c-0.0081,1.1156 -0.5474,2.3864 -1.4319,3.2088c-0.8858,0.8215 -2.1289,1.3652 -3.4556,1.3298c-1.4224,-0.0381 -2.9122,-0.7207 -3.674,-1.5431c-0.9586,-1.0657 -0.964,-2.0387 -1.0786,-3.0862c-0.1092,-1.0212 -0.5933,-2.1904 0.2696,-2.9955c0.9721,-0.9123 2.8678,-1.2045 4.483,-1.4523c1.146,-0.1752 2.8786,-0.4258 3.6066,0.2269z" fill="#322516" stroke="none" stroke-width="1.1493" stroke-linecap="butt"/><path d="M252.0725,168.1018c3.0832,2.5239 5.4705,6.1992 4.9921,9.857c-0.3476,2.6593 -4.2388,2.8826 -6.591,3.6008c-4.7121,1.3688 -9.5792,2.2794 -14.4231,2.61c-3.9178,0.2687 -7.8912,-0.3335 -11.7268,-1.2567c-0.9595,-0.231 -1.7813,-0.6496 -1.5408,-1.7883c0.9622,-4.5646 1.4501,-9.9943 4.5367,-13.0982c3.3254,-3.2566 8.3277,-4.0184 12.7111,-4.0116c4.2157,0.0068 8.9578,1.5621 12.0418,4.087z" fill="#3ddf5b" stroke="none" stroke-width="0.91299" stroke-linecap="round"/><path d="M237.1964,169.5856l-2.0605,10.0844l1.2565,2.8924l-1.3854,-2.9505l-3.1239,3.7502" fill="none" stroke="#2b9638" stroke-width="1" stroke-linecap="round"/><path d="M254.35,178.35l-4.25,-2.4l-0.25,3.25l0.15,-3.15l-3.1,-6.7" fill="none" stroke="#2b9638" stroke-width="1" stroke-linecap="round"/><path d="M257.0968,181.5c-4.2231,1.654 -8.0979,4.966 -12.3829,5.35c-7.7143,0.695 -15.9869,0.03 -23.1486,-2.2c-1.7946,-0.559 -0.3835,-3.975 0.9241,-4.35c2.5523,-0.825 5.1925,1.318 7.7624,1.65c2.9368,0.38 5.9262,0.607 8.8713,0.35c2.3463,-0.22 4.3719,-0.701 6.4687,-1.3c2.5403,-0.957 4.7203,-2.62 7.3928,-3.35c1.2004,-0.334 2.3232,-0.49 3.7426,0c1.1468,0.402 2.1808,1.4 2.8185,2.45c0.206,0.342 -0.1645,0.926 -0.5083,1.1c-0.7337,0.344 -0.9768,-0.093 -1.9406,0.3z" fill="#ffffff" stroke="none" stroke-width="0.9628" stroke-linecap="round"/><path d="M249.85,166.5l-2.5,2.15l-10.55,0.85l-7.2,-3.25" fill="none" stroke="#2b9638" stroke-width="1" stroke-linecap="round"/></g></g></svg>