<svg version="1.1" xmlns="http://www.w3.org/2000/svg" xmlns:xlink="http://www.w3.org/1999/xlink" width="94.73529" height="186.22609" viewBox="0,0,94.73529,186.22609"><defs><linearGradient x1="252.25426" y1="253.58893" x2="287.97069" y2="253.58893" gradientUnits="userSpaceOnUse" id="color-1"><stop offset="0" stop-color="#8d6431"/><stop offset="1" stop-color="#ac793c"/></linearGradient><linearGradient x1="195.68288" y1="256.64494" x2="234.45848" y2="256.64494" gradientUnits="userSpaceOnUse" id="color-2"><stop offset="0" stop-color="#8d6431"/><stop offset="1" stop-color="#ac793c"/></linearGradient><linearGradient x1="244.96964" y1="170.90759" x2="244.96964" y2="224.28189" gradientUnits="userSpaceOnUse" id="color-3"><stop offset="0" stop-color="#4f6af7"/><stop offset="1" stop-color="#4758dd"/></linearGradient><linearGradient x1="274.946" y1="119.13053" x2="274.946" y2="132.45389" gradientUnits="userSpaceOnUse" id="color-4"><stop offset="0" stop-color="#349fc7"/><stop offset="1" stop-color="#297299"/></linearGradient><linearGradient x1="255.21855" y1="111.7076" x2="255.21855" y2="129.72296" gradientUnits="userSpaceOnUse" id="color-5"><stop offset="0" stop-color="#349fc7"/><stop offset="1" stop-color="#308fb6"/></linearGradient><linearGradient x1="244.87943" y1="118.595" x2="244.87943" y2="130.5763" gradientUnits="userSpaceOnUse" id="color-6"><stop offset="0" stop-color="#38291e"/><stop offset="1" stop-color="#381e32"/></linearGradient><linearGradient x1="262.12053" y1="115.59217" x2="262.12053" y2="126.13672" gradientUnits="userSpaceOnUse" id="color-7"><stop offset="0" stop-color="#38291e"/><stop offset="1" stop-color="#381e32"/></linearGradient></defs><g transform="translate(-194.78903,-85.16498)"><g data-paper-data="{&quot;isPaintingLayer&quot;:true}" fill-rule="nonzero" stroke-linejoin="miter" stroke-miterlimit="10" stroke-dasharray="" stroke-dashoffset="0" style="mix-blend-mode: normal"><g data-paper-data="{&quot;origPos&quot;:null,&quot;origRot&quot;:0}" stroke="none" stroke-linecap="butt"><g data-paper-data="{&quot;origPos&quot;:null,&quot;index&quot;:null,&quot;origRot&quot;:0}" stroke-width="0"><path d="M240.75009,169.59618c4.49513,2.83739 3.69726,13.39459 -1.49849,21.62595c-5.19577,8.23135 -11.36397,15.27989 -11.36397,15.27989l-13.58724,-8.36003c0,0 6.54971,-13.86623 10.72871,-20.48679c5.19577,-8.23135 11.22585,-10.8964 15.72099,-8.05902z" data-paper-data="{&quot;origRot&quot;:0,&quot;origPos&quot;:null}" fill="#41c3ff"/><g data-paper-data="{&quot;origPos&quot;:null}" fill="#ffffff"><path d="M217.74199,206.13664c8.16078,4.64243 18.00016,10.83911 12.61231,19.14069c-3.90867,6.02248 -17.48591,9.83682 -24.40826,3.49399c-7.55385,-6.92148 -15.39688,-11.88312 -8.49549,-20.59475c6.44405,-8.13433 12.13065,-6.68235 20.29144,-2.03994z" data-paper-data="{&quot;origRot&quot;:0,&quot;origPos&quot;:null}"/><path d="M222.71942,199.97164c6.29588,3.5925 14.17979,6.46339 11.03856,11.07347c-3.51409,5.15727 -4.96846,3.89968 -15.11182,-2.22521c-11.55516,-6.9774 -14.59151,-5.94012 -11.01489,-11.78017c2.08849,-3.41019 8.79226,-0.66058 15.08815,2.93191z" data-paper-data="{&quot;origRot&quot;:0,&quot;origPos&quot;:null}"/></g></g><path d="M203.69532,222.63612l4.71254,-7.26258l-2.64723,-7.3973l7.11011,3.86592l6.24348,-5.15612l-0.57967,8.13237l8.20597,4.4607l-9.05361,1.45389l-2.86451,7.90346l-3.31244,-7.67614z" data-paper-data="{&quot;origPos&quot;:null,&quot;origRot&quot;:0}" fill="#ffe008" stroke-width="NaN"/></g><g data-paper-data="{&quot;origPos&quot;:null,&quot;origRot&quot;:0}" stroke="none" stroke-width="0" stroke-linecap="butt"><path d="M270.5224,235.97991c2.71013,3.6788 8.00611,2.34491 8.43372,3.2902c1.73012,3.82464 1.68439,7.34863 -2.99512,12.74945c-5.79661,6.69013 -11.702,9.88378 -20.54328,10.32006c-6.02168,0.29714 -3.64451,-4.41442 -5.11382,-10.26167c-0.52722,-2.09815 -1.55321,-4.62186 -4.10255,-9.42348c-3.18733,-6.00329 -9.14333,-24.01376 -9.14333,-24.01376c0,0 6.09889,-4.07087 10.79646,-6.0489c3.70726,-1.56104 6.21029,-9.01812 6.21029,-9.01812c0,0 10.19282,23.90223 16.45762,32.40622z" data-paper-data="{&quot;origPos&quot;:null}" fill="#4758dd"/><path d="M288.68339,250.61667c2.13709,3.26055 -0.17389,6.97143 -2.75065,9.89693c-1.68868,1.91721 -11.87239,8.17395 -18.73423,8.51968c-2.1303,0.10733 -4.72197,-1.12007 -4.72197,-1.12007c0,0 -3.79617,3.39628 -4.58264,2.16999c-0.6243,-0.97345 -1.7281,-2.60442 -1.11993,-3.72058c2.61786,-4.80455 12.17639,-11.0622 16.75249,-14.06154c6.28197,-4.11744 13.06795,-4.87156 15.15694,-1.68438z" data-paper-data="{&quot;origPos&quot;:null}" fill="#f8dca0"/><path d="M287.57499,245.48789c1.35857,4.5656 -0.67313,9.79721 -7.77497,14.45203c-7.10185,4.65481 -17.39881,5.51522 -17.39881,5.51522c0,0 -4.96404,3.64057 -5.93266,2.38963c-2.00479,-2.58911 -4.97379,-7.01168 -4.03588,-7.83465c3.4625,-3.03816 3.08069,-2.04952 7.37017,-6.38581c2.77723,-2.80753 6.15592,-9.42221 9.45878,-11.58703c7.10185,-4.65482 16.07645,-4.06674 18.31337,3.45061z" data-paper-data="{&quot;origPos&quot;:null}" fill="url(#color-1)"/></g><g data-paper-data="{&quot;origPos&quot;:null,&quot;origRot&quot;:0}" stroke="none" stroke-width="0" stroke-linecap="butt"><path d="M228.88909,243.60669c-0.96699,4.46579 3.53604,7.55597 3.10982,8.50189c-1.72453,3.82716 -4.398,6.12348 -11.54384,6.18539c-8.85171,0.07669 -15.15274,-2.24062 -21.32722,-8.58367c-4.20536,-4.32018 0.9008,-5.65315 4.31491,-10.62235c1.22508,-1.78308 2.43949,-4.22172 4.35503,-9.30949c2.39492,-6.36104 11.96502,-22.73982 11.96502,-22.73982c0,0 7.08699,1.88231 11.67742,4.09762c3.62271,1.7483 9.10293,7.02297 9.10293,7.02297c0,0 -9.41876,15.12424 -11.65408,25.44746z" data-paper-data="{&quot;origPos&quot;:null}" fill="#4758dd"/><path d="M229.92139,266.90885c-1.03226,3.75935 -5.34406,4.48018 -9.24255,4.48222c-2.55486,0.00133 -13.98294,-3.49924 -18.78038,-8.41745c-1.48939,-1.5269 -2.28279,-4.28258 -2.28279,-4.28258c0,0 -5.05807,-0.60125 -4.6584,-2.00216c0.31726,-1.11207 0.81061,-3.01865 2.05003,-3.30066c5.33509,-1.21394 16.35037,1.8171 21.62653,3.26586c7.24299,1.98883 12.2966,6.58004 11.28757,10.2548z" data-paper-data="{&quot;origPos&quot;:null}" fill="#f8dca0"/><path d="M233.03529,262.68551c-2.52602,4.03852 -7.79378,5.97456 -15.98208,3.72617c-8.1883,-2.24839 -15.64363,-9.40281 -15.64363,-9.40281c0,0 -6.0137,-1.31567 -5.716,-2.86953c0.61614,-3.21606 1.96981,-8.36791 3.2074,-8.20869c4.56879,0.58781 3.57471,0.95527 9.66412,1.30485c3.94259,0.22634 11.1386,-1.61407 14.94673,-0.56841c8.1883,2.24839 13.68262,9.36891 9.52347,16.01842z" data-paper-data="{&quot;origPos&quot;:null}" fill="url(#color-2)"/></g><g data-paper-data="{&quot;origPos&quot;:null}"><path d="M270.72766,194.07829c0.39163,21.17353 -7.36176,30.41297 -28.3,30.2c-21.9365,-0.22312 -23.2,-12.78796 -23.2,-22.95c0,-11.02412 -0.93148,-20.04986 7.57136,-27.06648c6.33487,-5.22759 13.21535,-2.78352 21.42864,-2.78352c15.18783,0 22.11612,1.84521 22.5,22.6z" data-paper-data="{&quot;origPos&quot;:null}" fill="url(#color-3)" stroke="none" stroke-width="0" stroke-linecap="butt"/><path d="M270.97766,193.47829c0,0 -17.24385,2 -29.4,2.4c-11.15011,0.36689 -22.4,-3.4 -22.4,-3.4c0,0 -0.98648,-13.79564 6.98462,-19.16002c5.21526,-3.50975 11.08038,-4.65914 18.61538,-4.83998c7.535,-0.18084 15.72889,2.13912 19.52206,5.21215c8.95988,7.25886 6.67794,19.78785 6.67794,19.78785z" data-paper-data="{&quot;origPos&quot;:null}" fill="#41c3ff" stroke="none" stroke-width="0" stroke-linecap="butt"/><path d="M257.08547,172.3696c0,0 2.14029,6.84028 2.57206,10.95319c0.55457,5.28272 -0.57997,15.20846 -0.57997,15.20846" data-paper-data="{&quot;origPos&quot;:null,&quot;origRot&quot;:0}" fill="none" stroke="#5063f7" stroke-width="10" stroke-linecap="round"/><path d="M235.57766,172.87829c0,0 1.23985,7.05925 1.13735,11.19349c-0.13165,5.31011 -2.53735,15.00651 -2.53735,15.00651" data-paper-data="{&quot;origPos&quot;:null}" fill="none" stroke="#5063f7" stroke-width="10" stroke-linecap="round"/><path d="M231.96113,202.69229l0.47856,-4.16533l-2.74233,-2.63761l3.91676,0.14425l1.59649,-3.58172l1.50128,3.65183l4.5202,0.16603l-3.61311,2.58175l0.46103,4.045l-3.09091,-2.61517z" data-paper-data="{&quot;origPos&quot;:null,&quot;origRot&quot;:0}" fill="#ffe008" stroke="none" stroke-width="NaN" stroke-linecap="butt"/><path d="M257.35407,202.45039l-0.09884,-4.19156l-3.07901,-2.23539l3.89937,-0.39579l1.08873,-3.76726l1.98925,3.41067l4.50007,-0.45721l-3.2237,3.05412l1.01296,3.94315l-3.4212,-2.16523z" data-paper-data="{&quot;origPos&quot;:null,&quot;origRot&quot;:0}" fill="#ffe008" stroke="none" stroke-width="NaN" stroke-linecap="butt"/></g><g data-paper-data="{&quot;origPos&quot;:null,&quot;origRot&quot;:0}" stroke="none" stroke-linecap="butt"><g data-paper-data="{&quot;origPos&quot;:null}" stroke-width="0"><path d="M235.86021,180.50476c3.06106,7.20597 7.29792,21.94436 7.29792,21.94436l-14.75386,6.0685c0,0 -4.95566,-7.94796 -8.76146,-16.90714c-3.80581,-8.95919 2.37287,-21.68143 7.26548,-23.75977c4.8926,-2.07835 5.14612,3.69488 8.95193,12.65407z" data-paper-data="{&quot;origRot&quot;:0,&quot;origPos&quot;:null}" fill="#41c3ff"/><g data-paper-data="{&quot;origPos&quot;:null}" fill="#ffffff"><path d="M258.17693,215.06046c5.41212,9.70723 -3.12617,13.34436 -11.69391,18.96233c-7.85145,5.1483 -20.6395,-0.79784 -23.52983,-7.37006c-3.98412,-9.05935 6.72302,-13.59475 15.52364,-16.86574c8.80062,-3.27099 14.64663,-3.7905 19.7001,5.27347z" data-paper-data="{&quot;origRot&quot;:0,&quot;origPos&quot;:null}"/><path d="M249.91772,202.43264c2.59189,6.33882 -0.23839,4.8272 -12.76442,9.8575c-10.99561,4.41569 -12.63313,5.42328 -15.273,-0.23157c-2.35978,-5.05487 5.88295,-6.62183 12.67422,-9.15617c6.79127,-2.53433 13.84973,-4.17118 15.3632,-0.46975z" data-paper-data="{&quot;origRot&quot;:0,&quot;origPos&quot;:null}"/></g></g><path d="M237.12571,232.2526l-1.85874,-8.45565l-7.12446,-3.31209l7.746,-2.34493l0.71591,-8.06561l5.38093,6.12512l8.9391,-2.70708l-5.32489,7.46506l3.61302,7.59053l-7.7902,-3.0345z" data-paper-data="{&quot;origPos&quot;:null,&quot;origRot&quot;:0}" fill="#ffe008" stroke-width="NaN"/></g><g data-paper-data="{&quot;origPos&quot;:null}"><path d="M287.89953,123.85389c-0.56793,3.79329 -11.88998,8.6 -20.8,8.6c-7.1797,0 -5.4,-6.75492 -5.4,-10.4c0,-3.64508 14.0703,-2.85 21.25,-2.85c7.1797,0 5.31761,2.19464 4.95,4.65z" data-paper-data="{&quot;origPos&quot;:null}" fill="url(#color-4)" stroke="none" stroke-width="0" stroke-linecap="butt"/><path d="M212.74262,165.23551c-1.88302,-1.368 -2.34219,-3.637 -0.85476,-6.37559c1.72578,-3.17745 1.08123,-8.21818 2.96425,-6.85018c0,0 7.23293,1.02169 7.79114,3.9154c0,0 3.0507,8.35652 1.80057,9.69315c0,0 -1.78179,1.32182 -6.42716,1.10231c-2.51693,-0.11893 -3.39102,-0.11707 -5.27403,-1.48508z" data-paper-data="{&quot;origRot&quot;:0,&quot;origPos&quot;:null}" fill="#e7be7a" stroke="none" stroke-width="0" stroke-linecap="butt"/><path d="M219.48286,126.13722c4.31396,1.0071 37.24301,-2.16822 43.0368,-1.8462c8.57182,0.47642 6.20204,8.21361 6.80713,16.77732c0.69572,9.84642 7.56286,14.33038 4.11388,23.57918c-1.32977,3.56593 -5.57109,6.18206 -8.56062,8.53723c-1.69594,1.33607 -4.01231,5.30061 -14.80054,5.5225c-18.91647,-3.76969 -24.18277,-8.72429 -27.36091,-12.69741c-3.28722,-3.79189 -1.91707,-5.03225 -5.0923,-9.83925c-0.97333,-1.47352 -2.12747,-2.25956 -2.322,-2.25956c-10.37042,0 -16.07143,-8.56649 -16.07143,-16.66666c0,-8.10018 3.70101,-14.66666 9.5,-14.66666c5.79899,0 9.25,3.20935 10.75,3.55952z" data-paper-data="{&quot;origPos&quot;:null}" fill="#ffdebd" stroke="none" stroke-width="0" stroke-linecap="butt"/><path d="M267.66619,131.34363c0.35235,4.88885 -1.81808,9.02906 -4.84779,9.24741c-3.02971,0.21836 -5.7714,-3.56782 -6.12375,-8.45666c-0.35235,-4.88885 1.81808,-9.02905 4.84779,-9.24741c3.02971,-0.21836 5.77141,3.56782 6.12376,8.45666z" data-paper-data="{&quot;origPos&quot;:null,&quot;origRot&quot;:0}" fill="#ffffff" stroke="none" stroke-width="0" stroke-linecap="butt"/><path d="M229.89286,133.9607c0,2.60849 3.85805,10.02393 1.51211,11.16446c-2.72909,1.32681 -3.54387,-2.9338 -7.19783,-2.25017c-2.71433,0.50783 -4.45714,-4.78172 -4.45714,-9.2c0,-4.41828 -0.01669,-8.69821 2.74286,-8.8c11.61857,-0.42857 7.4,4.66744 7.4,9.08571z" data-paper-data="{&quot;origPos&quot;:null}" fill="#e7be7a" stroke="none" stroke-width="0" stroke-linecap="butt"/><path d="M254.64298,136.34835c0.57094,4.86816 -1.41189,9.10142 -4.42877,9.45524c-3.01689,0.35383 -5.92541,-3.30577 -6.49635,-8.17393c-0.57094,-4.86816 1.41189,-9.10142 4.42877,-9.45524c3.01689,-0.35383 5.92541,3.30577 6.49635,8.17393z" data-paper-data="{&quot;origPos&quot;:null,&quot;origRot&quot;:0}" fill="#ffffff" stroke="none" stroke-width="0" stroke-linecap="butt"/><path d="M251.85,132.70001c0.952,0 1.814,0.695 2.439,1.817c0.624,1.122 1.011,2.672 1.011,4.383c0,1.711 -0.387,3.261 -1.011,4.383c-0.625,1.122 -1.487,1.817 -2.439,1.817c-0.952,0 -1.814,-0.695 -2.439,-1.817c-0.624,-1.122 -1.011,-2.672 -1.011,-4.383c0,-1.711 0.387,-3.261 1.011,-4.383c0.625,-1.122 1.487,-1.817 2.439,-1.817z" data-paper-data="{&quot;origPos&quot;:null}" id="ID0.2989244391210377" fill="#000000" stroke="#ffe008" stroke-width="2" stroke-linecap="butt"/><path d="M264.84999,128.15001c0.952,0 1.814,0.695 2.439,1.817c0.624,1.122 0.775,2.904 1.011,4.383c0.083,0.539 0.233,1.323 -0.15,1.8c-0.483,0.577 -1.281,0.853 -2,1.1c-1.256,0.26 -2.748,1.037 -3.85,0.4c-0.966,-0.58 -0.89,-2.138 -0.9,-3.3c-0.013,-1.501 0.387,-3.261 1.011,-4.383c0.625,-1.122 1.487,-1.817 2.439,-1.817z" data-paper-data="{&quot;origPos&quot;:null}" id="ID0.2989244391210377" fill="#000000" stroke="#ffe008" stroke-width="2" stroke-linecap="round"/><path d="M273.79348,96.82854c2.39648,14.94461 -0.49216,15.79448 -8.52168,20.57884c-11.69967,6.97121 -27.00365,5.55994 -39.50062,10.97342c-3.28137,1.42143 -11.64483,-2.03217 -15.22084,-2.03217c-7.31398,0 -11.44089,-5.22725 -11.74313,-11.45342c-0.66666,-13.7335 6.09582,-13.78676 13.4098,-13.78676c0,0 8.04926,1.33414 10.82961,5.60456c0,0 11.19763,-18.21899 23.00151,-20.46979c15.1949,-2.89741 26.02436,-0.14688 27.74535,10.58532z" data-paper-data="{&quot;origPos&quot;:null}" fill="#41c3ff" stroke="none" stroke-width="0" stroke-linecap="butt"/><path d="M270.89953,105.35389c0,5.46762 -1.46317,9.58116 -12.2,9.9c-11.33464,0.33659 -12.2,-4.43238 -12.2,-9.9c0,-5.46762 5.46212,-9.9 12.2,-9.9c6.73787,0 12.2,4.43238 12.2,9.9z" data-paper-data="{&quot;origPos&quot;:null}" fill="#ffffff" stroke="none" stroke-width="0" stroke-linecap="butt"/><path d="M288.29953,121.75389c-0.2,0.85848 -39.34284,6.5 -50.3,7.7c-5.32532,0.58322 -16.1,0.15848 -15.9,-0.7c0.73933,-3.1735 2.8049,-8.24498 7.9,-9.9c6.15716,-2 27.29511,-7.38005 43.10212,-7.1384c6.46182,0.09879 15.93721,6.8649 15.19788,10.0384z" data-paper-data="{&quot;origPos&quot;:null}" fill="url(#color-5)" stroke="none" stroke-width="0" stroke-linecap="butt"/><path d="M254.2034,111.59417l0.18849,-3.45889l5.09724,-0.74498l-1.45114,-1.76959l-3.62565,-0.45434l-1.99342,-3.01392l1.9556,-2.81852l7.89963,-1.24007l1.73259,3.27111l-7.32518,0.57178l4.13196,1.53006l3.06427,2.53879l0.28922,2.58669l-2.24917,1.64784z" data-paper-data="{&quot;origPos&quot;:null,&quot;origRot&quot;:0}" fill="#ffe008" stroke="none" stroke-width="0" stroke-linecap="butt"/><path d="M268.23037,169.54033c-3.21733,0.20214 -7.84599,-0.72468 -15.34899,-1.96359c-9.7284,-1.60637 -11.10928,-8.44609 -11.10928,-8.44609c0,0 -3.6461,-1.33232 -5.675,-2.475c-1.58811,-0.89443 0.32605,-6.49937 1.18005,-6.66272c4.97377,-0.95139 6.45569,3.43243 10.27828,5.49605c0,0 12.7819,4.20754 18.75328,3.86744c0,0 9.6388,-4.51103 12.62642,-4.31325c1.48172,0.09809 1.49141,3.20314 1.02397,4.7714c0,0 -1.29607,4.20023 -3.42128,5.67204c-2.1252,1.47181 -5.09013,3.85158 -8.30745,4.05371z" data-paper-data="{&quot;origPos&quot;:null}" fill="#e7be7a" stroke="none" stroke-width="0" stroke-linecap="butt"/><path d="M278.43042,148.98899c-0.5,6.61802 1.12741,11.125 -13.25,10.875c-6.62642,-0.11523 -13,-4.25698 -13,-10.125c0,-5.86802 6.3926,-13.11026 13,-13.625c9.62741,-0.75 14.04992,2.28715 13.25,12.875z" data-paper-data="{&quot;origPos&quot;:null}" fill="#ffdebd" stroke="none" stroke-width="0" stroke-linecap="butt"/><g data-paper-data="{&quot;origPos&quot;:null}" fill="none" stroke="#f6b09a" stroke-width="3.5" stroke-linecap="round"><path d="M205.60689,132.93213c0,0 2.96332,-1.72996 6.75499,1.19948c5.43788,4.2013 2.24501,11.37195 2.24501,11.37195" data-paper-data="{&quot;origPos&quot;:null}"/><path d="M214.32118,139.64644h-6" data-paper-data="{&quot;origPos&quot;:null}"/><path d="M212.46403,145.64644h1.28571" data-paper-data="{&quot;origPos&quot;:null}"/></g><path d="M245.01269,125.7013c-1.37576,0.41027 -1.31062,0.60464 -1.97844,1.87549c-0.68894,1.31106 -2.14657,2.99951 -2.14657,2.99951c0,0 -1.45833,-3.62706 -1.45833,-6.31945c0,-1.8281 0.99336,-5.0144 3.81107,-5.65344c9.53112,-0.32089 6.69401,8.65093 6.69401,8.65093c0,0 -3.4773,-2.0232 -4.92174,-1.55303z" data-paper-data="{&quot;origPos&quot;:null}" fill="url(#color-6)" stroke="none" stroke-width="0" stroke-linecap="butt"/><path d="M262.27348,122.89526c-1.51641,0.08916 -4.01601,3.24146 -4.01601,3.24146c0,0 -5.91454,-7.31854 3.07681,-10.49674c2.85665,-0.43291 4.94393,2.17143 5.61082,3.87354c0.98219,2.50684 0.94752,6.41595 0.94752,6.41595c0,0 -1.97313,-1.04035 -3.09287,-2.00973c-1.0854,-0.93965 -1.09566,-1.14439 -2.52627,-1.02451z" data-paper-data="{&quot;origPos&quot;:null,&quot;index&quot;:null,&quot;origRot&quot;:0}" fill="url(#color-7)" stroke="none" stroke-width="0" stroke-linecap="butt"/></g></g></g></svg>