<svg version="1.1" xmlns="http://www.w3.org/2000/svg" xmlns:xlink="http://www.w3.org/1999/xlink" width="709.20288" height="451.37517" viewBox="0,0,709.20288,451.37517"><defs><linearGradient x1="246.46892" y1="349.21621" x2="176.20517" y2="349.21621" gradientUnits="userSpaceOnUse" id="color-1"><stop offset="0" stop-color="#2c5330"/><stop offset="1" stop-color="#153c1e"/></linearGradient><linearGradient x1="246.4461" y1="384.62257" x2="176.18236" y2="384.62257" gradientUnits="userSpaceOnUse" id="color-2"><stop offset="0" stop-color="#2c5330"/><stop offset="1" stop-color="#153c1e"/></linearGradient><linearGradient x1="328.06834" y1="305.663" x2="257.80458" y2="305.663" gradientUnits="userSpaceOnUse" id="color-3"><stop offset="0" stop-color="#2c5330"/><stop offset="1" stop-color="#153c1e"/></linearGradient><linearGradient x1="328.04551" y1="356.03401" x2="257.78176" y2="356.03401" gradientUnits="userSpaceOnUse" id="color-4"><stop offset="0" stop-color="#2c5330"/><stop offset="1" stop-color="#153c1e"/></linearGradient><linearGradient x1="164.94726" y1="324.31205" x2="94.68351" y2="324.31205" gradientUnits="userSpaceOnUse" id="color-5"><stop offset="0" stop-color="#2c5330"/><stop offset="1" stop-color="#153c1e"/></linearGradient><linearGradient x1="164.92445" y1="374.68314" x2="94.66069" y2="374.68314" gradientUnits="userSpaceOnUse" id="color-6"><stop offset="0" stop-color="#2c5330"/><stop offset="1" stop-color="#153c1e"/></linearGradient><linearGradient x1="319.62906" y1="82.69804" x2="319.62906" y2="290.8785" gradientUnits="userSpaceOnUse" id="color-7"><stop offset="0" stop-color="#0a337d"/><stop offset="1" stop-color="#03005b" stop-opacity="0.60392"/></linearGradient><linearGradient x1="-39.39964" y1="32.28498" x2="92.49044" y2="32.28498" gradientUnits="userSpaceOnUse" id="color-8"><stop offset="0" stop-color="#1b1b1b"/><stop offset="1" stop-color="#434343"/></linearGradient></defs><g transform="translate(39.39964,27.60712)"><g data-paper-data="{&quot;isPaintingLayer&quot;:true}" fill-rule="nonzero" stroke-linejoin="miter" stroke-miterlimit="10" stroke-dasharray="" stroke-dashoffset="0" style="mix-blend-mode: normal"><path d="M-22.4741,367.26823l0.46119,-393.62472l674.86792,0.3428l-3.78365,397.79939z" data-paper-data="{&quot;origPos&quot;:null}" fill="#9ea65d" stroke="#735d3f" stroke-width="2.5" stroke-linecap="butt"/><path d="" fill="#a18a67" stroke="#8b8064" stroke-width="7" stroke-linecap="butt"/><path d="" fill="#a18a67" stroke="#8b8064" stroke-width="7" stroke-linecap="butt"/><path d="" fill="#a18a67" stroke="#8b8064" stroke-width="7" stroke-linecap="butt"/><path d="" fill="#a18a67" stroke="#8b8064" stroke-width="7" stroke-linecap="butt"/><path d="" data-paper-data="{&quot;origPos&quot;:null}" fill="#00a838" stroke="none" stroke-width="0.55092" stroke-linecap="butt"/><path d="" data-paper-data="{&quot;origPos&quot;:null}" fill="#00a838" stroke="none" stroke-width="0.55092" stroke-linecap="butt"/><path d="" data-paper-data="{&quot;origPos&quot;:null}" fill="#00a838" stroke="none" stroke-width="0.55092" stroke-linecap="butt"/><g><path d="M225.77896,330.43134l-0.20328,0.20328" data-paper-data="{&quot;index&quot;:null}" fill="none" stroke="#cccccc" stroke-width="2" stroke-linecap="round"/><path d="M309.12301,295.87404l-0.20327,0.20328" data-paper-data="{&quot;index&quot;:null}" fill="none" stroke="#cccccc" stroke-width="2" stroke-linecap="round"/><path d="M312.30771,381.45417l0.20327,-0.20328" data-paper-data="{&quot;index&quot;:null}" fill="none" stroke="#cccccc" stroke-width="2" stroke-linecap="round"/><path d="M264.87616,357.73837l0.20327,-0.20327" data-paper-data="{&quot;index&quot;:null}" fill="none" stroke="#cccccc" stroke-width="2" stroke-linecap="round"/><path d="M213.37899,384.16454l0.20328,-0.20328" data-paper-data="{&quot;index&quot;:null}" fill="none" stroke="#cccccc" stroke-width="2" stroke-linecap="round"/><path d="M137.01416,314.84668l-0.20328,0.20327" data-paper-data="{&quot;index&quot;:null}" fill="none" stroke="#cccccc" stroke-width="2" stroke-linecap="round"/><path d="M277.75042,299.46529l0.20328,-0.20327" data-paper-data="{&quot;index&quot;:null}" fill="none" stroke="#cccccc" stroke-width="2" stroke-linecap="round"/><path d="M309.59734,350.28485l0.20328,-0.20328" data-paper-data="{&quot;index&quot;:null}" fill="none" stroke="#cccccc" stroke-width="2" stroke-linecap="round"/><path d="M212.20537,368.87796l-0.1495,0.1495" data-paper-data="{&quot;index&quot;:null}" fill="none" stroke="#cccccc" stroke-width="2" stroke-linecap="round"/><path d="M179.31596,372.86457l-0.1495,0.1495" data-paper-data="{&quot;index&quot;:null}" fill="none" stroke="#cccccc" stroke-width="2" stroke-linecap="round"/><path d="M211.33703,317.07427c9.69266,0 18.47563,3.60178 24.8353,9.42007c6.35991,5.81864 10.29658,13.85411 10.29658,22.72185c0,8.86778 -3.93666,16.90327 -10.29658,22.7219c-6.35966,5.81829 -15.14262,9.42002 -24.83529,9.42002c-9.69261,0 -18.47558,-3.60173 -24.83529,-9.42002c-6.35991,-5.81863 -10.29658,-13.85412 -10.29658,-22.7219c0,-8.86774 3.93666,-16.90321 10.29658,-22.72185c6.35971,-5.81827 15.14268,-9.42007 24.83529,-9.42007z" data-paper-data="{&quot;index&quot;:null}" fill="url(#color-1)" stroke="none" stroke-width="0.55092" stroke-linecap="butt"/><path d="M246.4461,420.23928h-70.26375v-71.23347h70.26375z" data-paper-data="{&quot;index&quot;:null}" fill="url(#color-2)" stroke="none" stroke-width="1.16723" stroke-linecap="butt"/><path d="M220.05706,341.08264c0.91188,0 1.5953,-0.04197 2.19295,1.732c0.59838,1.77397 0.96842,4.22336 0.96842,6.92703c0,2.70368 -0.37004,5.15306 -0.96842,6.92703c-0.59764,1.77397 -1.42363,1.87457 -2.33552,1.87457c-0.91189,0 -1.73788,-0.1006 -2.33552,-1.87457c-0.59838,-1.77397 -0.96842,-4.22336 -0.96842,-6.92703c0,-2.70368 0.37004,-5.15306 0.96842,-6.92703c0.59765,-1.77397 1.56619,-1.732 2.47808,-1.732z" data-paper-data="{&quot;index&quot;:null}" fill="#000000" stroke="none" stroke-width="1" stroke-linecap="butt"/><path d="M204.99965,342.67206c0.59839,1.77397 0.96843,4.22336 0.96843,6.92703c0,2.70368 -0.37006,5.15306 -0.96843,6.92703c-0.59765,1.77398 -1.42364,1.87457 -2.33552,1.87457c-0.91189,0 -1.73788,-0.1006 -2.33552,-1.87457c-0.59838,-1.77397 -0.96842,-4.22336 -0.96842,-6.92703c0,-2.70368 0.37005,-5.15306 0.96842,-6.92703c0.59765,-1.77397 1.56621,-1.732 2.47809,-1.732c0.91188,0 1.5953,-0.04197 2.19295,1.732z" data-paper-data="{&quot;index&quot;:null}" fill="#000000" stroke="none" stroke-width="1" stroke-linecap="butt"/><path d="M292.93643,273.52107c9.69266,0 18.47563,3.60178 24.8353,9.42007c6.35991,5.81864 10.29658,13.85412 10.29658,22.72186c0,8.86778 -3.93666,16.90326 -10.29658,22.72189c-6.35966,5.81829 -15.14262,9.42003 -24.83529,9.42003c-9.69261,0 -18.47558,-3.60174 -24.83529,-9.42003c-6.35992,-5.81863 -10.29658,-13.85411 -10.29658,-22.72189c0,-8.86774 3.93666,-16.90322 10.29658,-22.72186c6.35972,-5.81828 15.14269,-9.42007 24.8353,-9.42007z" data-paper-data="{&quot;index&quot;:null}" fill="url(#color-3)" stroke="none" stroke-width="0.55092" stroke-linecap="butt"/><path d="M328.04551,405.11898h-70.26375v-98.16992h70.26375z" data-paper-data="{&quot;index&quot;:null}" fill="url(#color-4)" stroke="none" stroke-width="1.16723" stroke-linecap="butt"/><path d="M301.65648,297.52943c0.91189,0 1.5953,-0.04197 2.19295,1.732c0.59838,1.77397 0.96842,4.22336 0.96842,6.92703c0,2.70368 -0.37004,5.15306 -0.96842,6.92703c-0.59765,1.77397 -1.42363,1.87457 -2.33552,1.87457c-0.91189,0 -1.73788,-0.1006 -2.33552,-1.87457c-0.59838,-1.77397 -0.96842,-4.22336 -0.96842,-6.92703c0,-2.70368 0.37004,-5.15306 0.96842,-6.92703c0.59764,-1.77397 1.56619,-1.732 2.47808,-1.732z" data-paper-data="{&quot;index&quot;:null}" fill="#000000" stroke="none" stroke-width="1" stroke-linecap="butt"/><path d="M286.59907,299.11886c0.59838,1.77397 0.96842,4.22336 0.96842,6.92703c0,2.70368 -0.37004,5.15306 -0.96842,6.92703c-0.59764,1.77398 -1.42362,1.87457 -2.33551,1.87457c-0.91189,0 -1.73789,-0.1006 -2.33553,-1.87457c-0.59838,-1.77397 -0.96842,-4.22336 -0.96842,-6.92703c0,-2.70368 0.37004,-5.15306 0.96842,-6.92703c0.59764,-1.77397 1.5662,-1.73201 2.47809,-1.73201c0.91189,0 1.5953,-0.04196 2.19295,1.73201z" data-paper-data="{&quot;index&quot;:null}" fill="#000000" stroke="none" stroke-width="1" stroke-linecap="butt"/><path d="M154.65069,301.59022c6.35992,5.81863 10.29658,13.85411 10.29658,22.72185c0,8.86778 -3.93666,16.90327 -10.29658,22.7219c-6.35967,5.81828 -15.14264,9.42003 -24.8353,9.42003c-9.69262,0 -18.47558,-3.60175 -24.8353,-9.42003c-6.35992,-5.81863 -10.29658,-13.85412 -10.29658,-22.7219c0,-8.86773 3.93666,-16.90321 10.29658,-22.72185c6.35972,-5.81828 15.14269,-9.42007 24.8353,-9.42007c9.69267,0 18.47563,3.60179 24.8353,9.42007z" data-paper-data="{&quot;index&quot;:null}" fill="url(#color-5)" stroke="none" stroke-width="0.55092" stroke-linecap="butt"/><path d="M164.92443,423.76805h-70.26375v-98.16992h70.26376z" data-paper-data="{&quot;index&quot;:null}" fill="url(#color-6)" stroke="none" stroke-width="1.16723" stroke-linecap="butt"/><path d="M138.53542,316.17847c0.91188,0 1.5953,-0.04197 2.19295,1.73201c0.59839,1.77397 0.96842,4.22336 0.96842,6.92703c0,2.70368 -0.37005,5.15306 -0.96842,6.92703c-0.59764,1.77397 -1.42363,1.87457 -2.33552,1.87457c-0.91188,0 -1.73788,-0.1006 -2.33552,-1.87457c-0.59839,-1.77397 -0.96843,-4.22335 -0.96843,-6.92703c0,-2.70368 0.37006,-5.15306 0.96843,-6.92703c0.59764,-1.77398 1.56619,-1.73201 2.47808,-1.73201z" data-paper-data="{&quot;index&quot;:null}" fill="#000000" stroke="none" stroke-width="1" stroke-linecap="butt"/><path d="M123.478,317.76795c0.59838,1.77397 0.96842,4.22335 0.96842,6.92703c0,2.70368 -0.37005,5.15306 -0.96842,6.92703c-0.59764,1.77397 -1.42362,1.87456 -2.33551,1.87456c-0.9119,0 -1.73789,-0.10059 -2.33553,-1.87456c-0.59839,-1.77397 -0.96843,-4.22335 -0.96843,-6.92703c0,-2.70368 0.37006,-5.15306 0.96843,-6.92703c0.59765,-1.77397 1.5662,-1.732 2.47809,-1.732c0.91188,0 1.5953,-0.04197 2.19295,1.732z" data-paper-data="{&quot;index&quot;:null}" fill="#000000" stroke="none" stroke-width="1" stroke-linecap="butt"/></g><path d="M-29.80321,-11.3703l699.60645,-12.57264l-0.53177,403.4217l-696.86107,4.4642z" fill="url(#color-7)" stroke="#0e6e56" stroke-width="0" stroke-linecap="round"/><g fill="#30006b" stroke="#000540" stroke-width="1.5"><path d="M454.48419,134.10097c-27.33585,0 -49.49594,-22.82733 -49.49594,-50.98627c0,-28.15894 22.16009,-50.98627 49.49594,-50.98627c27.33585,0 49.49594,22.82733 49.49594,50.98627c0,28.15894 -22.16009,50.98627 -49.49594,50.98627z" data-paper-data="{&quot;index&quot;:null}" stroke-linecap="butt"/><path d="M404.98825,184.79422v-101.97254h98.99188v101.97254z" data-paper-data="{&quot;index&quot;:null}" stroke-linecap="butt"/><path d="M405.77053,133.41237h98.1385" data-paper-data="{&quot;index&quot;:null}" stroke-linecap="round"/><path d="M454.41306,183.51957v-151.20067" data-paper-data="{&quot;index&quot;:null}" stroke-linecap="round"/></g><g fill="#30006b" stroke="#000540" stroke-width="1.5"><path d="M313.77124,134.10097c-27.33585,0 -49.49594,-22.82733 -49.49594,-50.98627c0,-28.15894 22.16009,-50.98627 49.49594,-50.98627c27.33585,0 49.49594,22.82733 49.49594,50.98627c0,28.15894 -22.16009,50.98627 -49.49594,50.98627z" data-paper-data="{&quot;index&quot;:null}" stroke-linecap="butt"/><path d="M264.27529,184.79422v-101.97254h98.99188v101.97254z" data-paper-data="{&quot;index&quot;:null}" stroke-linecap="butt"/><path d="M363.19606,133.41237h-98.1385" data-paper-data="{&quot;index&quot;:null}" stroke-linecap="round"/><path d="M313.70012,183.51957v-151.20067" data-paper-data="{&quot;index&quot;:null}" stroke-linecap="round"/></g><path d="M140.00869,19.12384c25.14545,-0.2112 51.1389,15.41798 49.50906,34.48382c-1.87617,21.94749 -26.21729,31.87872 -51.35289,31.66988c-23.14367,-0.1923 -56.15143,-14.50491 -53.81308,-35.42222c2.28503,-20.44034 32.52488,-30.53719 55.65691,-30.73148z" data-paper-data="{&quot;index&quot;:null}" fill-opacity="0.50196" fill="#a8a8a8" stroke="none" stroke-width="0.55092" stroke-linecap="butt"/><path d="M254.20086,145.54012c2.33835,20.91731 -30.6694,35.22992 -53.81307,35.42221c-25.1356,0.20884 -49.47672,-9.72239 -51.35289,-31.66987c-1.62984,-19.06583 24.36361,-34.69502 49.50906,-34.48382c23.13203,0.19429 53.37187,10.29114 55.6569,30.73148z" fill-opacity="0.50196" fill="#a8a8a8" stroke="none" stroke-width="0.55092" stroke-linecap="butt"/><path d="M92.49044,-27.26506v119.10009h-131.89008v-119.10009z" fill="url(#color-8)" stroke="none" stroke-width="0" stroke-linecap="butt"/></g></g></svg>