<svg version="1.1" xmlns="http://www.w3.org/2000/svg" xmlns:xlink="http://www.w3.org/1999/xlink" width="243.75" height="335" viewBox="0,0,243.75,335"><defs><linearGradient x1="230.125" y1="25.5" x2="250.125" y2="25.5" gradientUnits="userSpaceOnUse" id="color-1"><stop offset="0" stop-color="#fff838"/><stop offset="1" stop-color="#e38100"/></linearGradient><radialGradient cx="235.60001" cy="-134.10001" r="23" gradientUnits="userSpaceOnUse" id="color-2"><stop offset="0" stop-color="#fff838"/><stop offset="1" stop-color="#e38100"/></radialGradient></defs><g transform="translate(-211.125,154)"><g data-paper-data="{&quot;isPaintingLayer&quot;:true}" fill-rule="nonzero" stroke-linejoin="miter" stroke-miterlimit="10" stroke-dasharray="" stroke-dashoffset="0" style="mix-blend-mode: normal"><path d="M238.375,69.5v-184l216.5,92z" fill="#ffe008" stroke="#000000" stroke-width="0" stroke-linecap="butt"/><g stroke-width="0"><path d="M280.67499,-23.7c0,-22.64367 18.35633,-41 41,-41c22.64367,0 41,18.35633 41,41c0,22.64367 -18.35633,41 -41,41c-22.64367,0 -41,-18.35633 -41,-41z" fill="#ffffff" stroke="none" stroke-linecap="butt"/><path d="M285.256,-35.61063l8.93296,-4.35195l12.82682,18.78212l14.65922,-21.98883l15.57542,22.21788l13.05587,-19.01117l7.78771,4.35195l-19.69833,35.5028l-16.72067,-24.73743l-16.26257,24.96648z" fill="#0052ef" stroke="#000000" stroke-linecap="round"/></g><g data-paper-data="{&quot;origPos&quot;:null}" stroke="none" stroke-linecap="butt"><path d="M230.125,160v-274h20v274z" data-paper-data="{&quot;origPos&quot;:null}" fill="url(#color-1)" stroke-width="NaN"/><path d="M241.125,-108c-12.70255,0 -23,-10.29745 -23,-23c0,-12.70255 10.29745,-23 23,-23c12.70255,0 23,10.29745 23,23c0,12.70255 -10.29745,23 -23,23z" data-paper-data="{&quot;origPos&quot;:null,&quot;index&quot;:null}" fill="url(#color-2)" stroke-width="0"/><path d="M211.125,181v-28h59v28z" data-paper-data="{&quot;origPos&quot;:null}" fill="#aaafb7" stroke-width="0"/></g></g></g></svg>