<svg version="1.1" xmlns="http://www.w3.org/2000/svg" xmlns:xlink="http://www.w3.org/1999/xlink" width="40.74335" height="41.01805" viewBox="0,0,40.74335,41.01805"><g transform="translate(-219.64138,-159.52912)"><g data-paper-data="{&quot;isPaintingLayer&quot;:true}" fill-rule="nonzero" stroke="none" stroke-linecap="butt" stroke-linejoin="miter" stroke-miterlimit="10" stroke-dasharray="" stroke-dashoffset="0" style="mix-blend-mode: normal"><path d="M219.64162,171.16064h2.60371v17.67301h-2.60371z" data-paper-data="{&quot;origPos&quot;:null}" fill="#ff000c" stroke-width="0.71585"/><path d="M221.28152,160.72362c1.29165,-1.38009 4.60974,-1.18455 4.60974,-1.18455h13.08056v2.43967c0,0 -12.86962,0.0657 -14.03645,0.0657c-1.38071,0 -2.5,1.11929 -2.5,2.5c0,1.12521 -0.15014,4.57362 -0.15014,4.57362h-2.64384v-4.11145c0,0 0.12592,-2.66511 1.64014,-4.28301z" data-paper-data="{&quot;origPos&quot;:null}" fill="#ff000c" stroke-width="0.95559"/><path d="" data-paper-data="{&quot;origPos&quot;:null}" fill="#c75c1a" stroke-width="0.95559"/><path d="M257.43628,171.12919h2.93704v17.67301h-2.93704z" data-paper-data="{&quot;origPos&quot;:null}" fill="#ff000c" stroke-width="0.71585"/><path d="M260.38473,165.00621v3.92962h-2.71692c0.0066,-0.07403 -0.1567,-3.33314 -0.1567,-4.32067c0,-1.38071 -1.11929,-2.5 -2.5,-2.5c-1.38071,0 -13.86549,0.00377 -13.86549,0.00377v-2.58028h13.04788c0,0 3.28695,-0.19554 4.56648,1.18455c1.50001,1.6179 1.62475,4.28301 1.62475,4.28301z" data-paper-data="{&quot;index&quot;:null}" fill="#ff000c" stroke-width="0.95559"/><path d="" data-paper-data="{&quot;index&quot;:null}" fill="#c75c1a" stroke-width="0.95559"/><path d="M258.66884,199.35308c-1.27953,1.38009 -4.56648,1.18455 -4.56648,1.18455h-13.04788v-2.48908c0.11293,0.01561 0.22828,0.02368 0.34552,0.02368c0.74527,0 13.08039,-0.11111 13.61111,-0.11111c1.38071,0 2.5,-1.11929 2.5,-2.5c0,-1.38071 0.05649,-4.50248 0.05649,-4.50248h2.72598v4.11145c0,0 -0.12474,2.66511 -1.62475,4.28301z" data-paper-data="{&quot;index&quot;:null}" fill="#ff000c" stroke-width="0.95559"/><path d="" data-paper-data="{&quot;index&quot;:null}" fill="#c75c1a" stroke-width="0.95559"/><path d="M219.6416,195.07007v-4.11144h2.58277c-0.01241,0.10094 -0.04657,3.47412 -0.04657,4.64137c0,1.38071 1.11929,2.5 2.5,2.5c1.36382,0 14.20291,-0.02825 14.20291,-0.02825v2.46587h-13.04788c0,0 -3.28695,0.19554 -4.56648,-1.18455c-1.50001,-1.6179 -1.62475,-4.28301 -1.62475,-4.28301z" data-paper-data="{&quot;index&quot;:null}" fill="#ff000c" stroke-width="0.95559"/><path d="" data-paper-data="{&quot;index&quot;:null}" fill="#c75c1a" stroke-width="0.95559"/></g></g></svg>