<svg version="1.1" xmlns="http://www.w3.org/2000/svg" xmlns:xlink="http://www.w3.org/1999/xlink" width="117.98184" height="99.46462" viewBox="0,0,117.98184,99.46462"><defs><linearGradient x1="214.29193" y1="144.84565" x2="229.85044" y2="142.06255" gradientUnits="userSpaceOnUse" id="color-1"><stop offset="0" stop-color="#a11515"/><stop offset="1" stop-color="#be2619"/></linearGradient></defs><g transform="translate(-170.76224,-131.6707)"><g data-paper-data="{&quot;isPaintingLayer&quot;:true}" fill-rule="nonzero" stroke-linecap="butt" stroke-linejoin="miter" stroke-miterlimit="10" stroke-dasharray="" stroke-dashoffset="0" style="mix-blend-mode: normal"><g data-paper-data="{&quot;index&quot;:null}"><path d="M201.21162,213.89315l-8.2038,-17.73562l9.12066,-3.12347l8.65089,16.04091z" fill="#a48a5c" stroke="none" stroke-width="0"/><g fill="none" stroke="#a48a5c" stroke-width="7.5"><path d="M187.93111,208.54355c-5.39055,2.02048 -11.39838,-0.71151 -13.41887,-6.10206c-2.02048,-5.39055 0.71151,-11.39838 6.10206,-13.41886c5.39055,-2.02048 11.39838,0.71151 13.41887,6.10206c2.02048,5.39055 -0.7115,11.39838 -6.10205,13.41887z"/><path d="M196.13892,226.67035c-5.39055,2.02047 -11.27706,-0.3878 -13.14787,-5.37906c-1.8708,-4.99126 0.98249,-10.67539 6.37306,-12.69587c5.39056,-2.02047 11.27706,0.3878 13.14787,5.37906c1.8708,4.99126 -0.98249,10.67538 -6.37305,12.69587z"/></g></g><path d="M248.5825,220.40715c-18.35303,7.03803 -38.59448,-1.32586 -45.21056,-18.68128c-6.61608,-17.35542 2.89859,-37.13024 21.2516,-44.16828c18.35303,-7.03803 38.59449,1.32585 45.21057,18.68128c6.61608,17.35542 -2.89859,37.13024 -21.2516,44.16829z" data-paper-data="{&quot;index&quot;:null}" fill="#a1160a" stroke="#303546" stroke-width="0"/><path d="M284.96763,198.4149c0,0 -6.95977,13.53295 -17.39687,9.18122c-9.29578,-5.95292 3.59931,-36.43844 14.6335,-31.82746c12.87839,5.38164 2.7634,22.64624 2.7634,22.64624z" data-paper-data="{&quot;index&quot;:null}" fill="#ffd412" stroke="none" stroke-width="0"/><g data-paper-data="{&quot;index&quot;:null}" stroke="none" stroke-width="0"><g fill="#000000" font-family="&quot;Helvetica Neue&quot;, Helvetica, Arial, sans-serif" font-weight="400" font-size="16" text-anchor="start"/><path d="M231.93276,169.75374c-14.51582,5.03944 -17.05604,1.28938 -17.05604,1.28938l-4.2014,-11.69685c0,0 2.19571,-6.81296 12.91032,-10.21443c12.04164,-3.82276 18.14065,-1.89686 18.14065,-1.89686l4.01157,12.37114c0,0 -3.52413,6.57838 -13.80509,10.14762z" fill="#a4ddf0"/><path d="M236.49298,150.62674c0,0 -0.50467,3.30086 -8.85315,6.71547c-8.87878,3.63152 -11.54495,2.65805 -11.54495,2.65805l-0.96991,-2.21743c0,0 2.08883,-2.92433 9.42251,-6.40889c7.19399,-3.41818 11.07041,-2.54082 11.07041,-2.54082z" fill="#7ebdd2"/></g><g data-paper-data="{&quot;index&quot;:null}" fill="#ffffff" stroke="none" stroke-width="0" font-family="&quot;Helvetica Neue&quot;, Helvetica, Arial, sans-serif" font-weight="400" font-size="16" text-anchor="start"/><path d="M230.75609,147.75642c0.43237,9.75114 -9.87072,8.98347 -14.44729,3.6716c-2.51899,-2.92371 -3.2154,-16.42712 0.12803,-18.91987c1.96878,-1.46785 4.99142,-0.91161 6.36637,0.93258c0.74548,0.60218 7.73732,9.45414 7.95289,14.31567z" fill="url(#color-1)" stroke="none" stroke-width="0.5"/><path d="M232.45258,219.45669c-1.97481,-7.06871 14.39434,-11.40752 14.39434,-11.40752c0,0 16.99379,-7.44719 19.87781,4.1587c3.36604,13.54565 -16.52376,15.73064 -16.52376,15.73064c0,0 -14.40444,3.48762 -17.74838,-8.48182z" data-paper-data="{&quot;index&quot;:null}" fill="#f2c911" stroke="none" stroke-width="0"/><path d="M242.45829,190.80111c-1.36279,0.06381 -3.88335,-1.19149 -5.12779,-1.62551c-1.22602,-0.42759 -2.49801,-0.75711 -3.73219,-1.15618c-1.96409,-0.6351 -11.08827,-1.80729 -11.27039,-5.08549c-0.11373,-2.04716 2.31717,-2.62655 3.87909,-2.23607c5.14374,1.28594 12.24411,2.28739 16.79171,5.18132c0.00256,0.00072 0.00512,0.00145 0.00768,0.00218c0.42199,0.09378 0.78656,0.32285 1.07717,0.63368c0.39331,0.3921 0.65674,0.91441 0.72016,1.49678c0.2159,1.29301 -0.41898,2.6991 -2.34543,2.78929z" fill="#ffffff" stroke="none" stroke-width="0.5"/><path d="M253.93544,187.39183c-1.70362,-0.9735 -2.2492,-2.28063 -2.16555,-3.74998c0.16241,-2.8529 2.69689,-6.31735 3.73289,-9.13875c0.44207,-1.2039 1.3132,-5.49016 2.64778,-5.93502c2.23607,-0.74536 3.16776,-0.27951 3.91312,1.95656c0.44044,1.32133 -3.97858,11.10578 -4.43336,12.1185c-0.14151,0.31512 -1.24388,3.34813 -1.54034,3.51753z" fill="#ffffff" stroke="none" stroke-width="0.5"/></g></g></svg>