<svg version="1.1" xmlns="http://www.w3.org/2000/svg" xmlns:xlink="http://www.w3.org/1999/xlink" width="342" height="302.02231" viewBox="0,0,342,302.02231"><defs><linearGradient x1="436.50229" y1="163.50323" x2="437.09088" y2="200.11385" gradientUnits="userSpaceOnUse" id="color-1"><stop offset="0" stop-color="#c3e060"/><stop offset="1" stop-color="#6de01b"/></linearGradient><linearGradient x1="562.6461" y1="285.59804" x2="563.18416" y2="356.47822" gradientUnits="userSpaceOnUse" id="color-2"><stop offset="0" stop-color="#c3e060"/><stop offset="1" stop-color="#6de01b"/></linearGradient><linearGradient x1="209.50229" y1="62.11302" x2="210.09088" y2="113.70516" gradientUnits="userSpaceOnUse" id="color-3"><stop offset="0" stop-color="#c3e060"/><stop offset="1" stop-color="#6de01b"/></linearGradient></defs><g transform="translate(-156.5,-62.45683)"><g data-paper-data="{&quot;isPaintingLayer&quot;:true}" fill-rule="nonzero" stroke-linecap="butt" stroke-linejoin="miter" stroke-miterlimit="10" stroke-dasharray="" stroke-dashoffset="0" style="mix-blend-mode: normal"><g><g data-paper-data="{&quot;origPos&quot;:null}" stroke-width="2"><path d="M389.33333,206v-33.9965h103v33.99651z" data-paper-data="{&quot;origPos&quot;:null}" fill="#c06520" stroke="#763e13"/><path d="M473.71398,191.28295l-13.53057,-7.5985l-16.93129,9.66663l-11.40888,-8.00029l-17.9835,7.43404l-10.1521,-8.88172c0,0 -9.63279,8.21116 -10.0378,8.02684c-1.21504,-0.55293 -9.16984,-5.68993 -9.16984,-5.68993c0,-6.74801 0,-10.78546 0,-15.98337c0,-1.73263 1.69835,-3.15756 4.18518,-4.43967c2.09259,-1.07886 4.32122,-1.31208 9.76574,-1.31496c16.33359,-0.00868 51.88732,-0.02756 85.09787,-0.04519c5.44464,-0.00289 9.06849,0.41656 10.46355,1.62703c1.55896,1.35268 3.48766,3.07471 3.48766,4.61207c0,7.67528 0,13.71612 0,21.39139l-14.19126,-7.28072z" data-paper-data="{&quot;origPos&quot;:null,&quot;origRot&quot;:0}" fill="url(#color-1)" stroke="#0f6600"/></g><path d="M420,196.00001c0,-2.76142 2.23858,-5 5,-5c2.76142,0 5,2.23858 5,5c0,2.76142 -2.23858,5 -5,5c-2.76142,0 -5,-2.23858 -5,-5z" data-paper-data="{&quot;origPos&quot;:null}" fill="#e0bb60" stroke="none" stroke-width="0.5"/><path d="M456,198.00001c0,-2.76142 2.23858,-5 5,-5c2.76142,0 5,2.23858 5,5c0,2.76142 -2.23858,5 -5,5c-2.76142,0 -5,-2.23858 -5,-5z" data-paper-data="{&quot;origPos&quot;:null}" fill="#e0bb60" stroke="none" stroke-width="0.5"/></g><g><path d="M234.95362,304.24859l246.91475,2.50632l-0.5966,56.9558l-246.91475,-2.50644z" fill="#c06520" stroke="#763e13" stroke-width="1.5215"/><path d="M436.67573,350.15362c0,-3.49527 2.8549,-6.32876 6.37657,-6.32876c3.52167,0 6.37657,2.83349 6.37657,6.32876c0,3.49527 -2.8549,6.32876 -6.37657,6.32876c-3.52167,0 -6.37657,-2.83349 -6.37657,-6.32876z" fill="#e0bb60" stroke="none" stroke-width="0.5"/><path d="M376.73598,345.09061c0,-3.49527 2.8549,-6.32876 6.37657,-6.32876c3.52167,0 6.37657,2.83349 6.37657,6.32876c0,3.49527 -2.8549,6.32876 -6.37657,6.32876c-3.52167,0 -6.37657,-2.83349 -6.37657,-6.32876z" data-paper-data="{&quot;origPos&quot;:null}" fill="#e0bb60" stroke="none" stroke-width="0.5"/><path d="M307.86904,348.88787c0,-3.49527 2.8549,-6.32876 6.37657,-6.32876c3.52167,0 6.37657,2.83349 6.37657,6.32876c0,3.49527 -2.8549,6.32876 -6.37657,6.32876c-3.52167,0 -6.37657,-2.83349 -6.37657,-6.32876z" data-paper-data="{&quot;origPos&quot;:null}" fill="#e0bb60" stroke="none" stroke-width="0.5"/><path d="M254.04711,287.83971c0,0 191.694,-0.2156 212.59813,-0.23911c6.96804,-0.00784 12.7535,-0.83671 14.66646,2.51142c2.92221,5.11452 3.18828,9.22775 3.18828,15.10738c0,11.47616 0,22.95232 0,34.42848l-14.0422,-10.3434l-12.83346,14.01689l-16.91699,-12.53498l-18.01874,12.78875l-7.88842,-16.39792l-18.00913,14.05447l-22.09266,-12.49739l-6.33507,17.76703l-28.57184,-13.71611l-10.24564,13.99808l-11.77975,-17.63546l-17.99952,15.32019l-16.9266,-13.80071l-5.06997,13.96048l-15.63268,-13.8101l-8.94211,15.2544l-10.52569,-9.68357l-12.94162,7.07025l1.22973,-38.24504c0,0 3.18758,-11.45314 8.08472,-15.13808c4.1138,-3.09551 15.00473,-2.23596 15.00473,-2.23596z" data-paper-data="{&quot;origPos&quot;:null,&quot;origRot&quot;:0}" fill="url(#color-2)" stroke="#0f6600" stroke-width="2"/></g><g><g data-paper-data="{&quot;origPos&quot;:null}" stroke-width="2"><path d="M162.33333,122v-47.90829h103v47.9083z" data-paper-data="{&quot;origPos&quot;:null}" fill="#c06520" stroke="#763e13"/><path d="M246.71398,101.26054l-13.53057,-10.7079l-16.93129,13.62233l-11.40888,-11.2741l-17.9835,10.47615l-10.1521,-12.51623c0,0 -9.63279,11.57127 -10.0378,11.31153c-1.21504,-0.7792 -9.16984,-8.01833 -9.16984,-8.01833c0,-9.50938 0,-15.199 0,-22.52397c0,-2.44165 1.69835,-4.44967 4.18518,-6.25644c2.09259,-1.52034 4.32122,-1.849 9.76574,-1.85306c16.33359,-0.01223 51.88732,-0.03884 85.09787,-0.06369c5.44464,-0.00407 9.06849,0.58703 10.46355,2.29284c1.55896,1.90621 3.48766,4.33292 3.48766,6.49939c0,10.8161 0,19.32892 0,30.14502l-14.19126,-10.26008z" data-paper-data="{&quot;origPos&quot;:null,&quot;origRot&quot;:0}" fill="url(#color-3)" stroke="#0f6600"/></g><path d="M193,109.00001c0,-2.76142 2.23858,-5 5,-5c2.76142,0 5,2.23858 5,5c0,2.76142 -2.23858,5 -5,5c-2.76142,0 -5,-2.23858 -5,-5z" data-paper-data="{&quot;origPos&quot;:null}" fill="#e0bb60" stroke="none" stroke-width="0.5"/><path d="M229,111.00001c0,-2.76142 2.23858,-5 5,-5c2.76142,0 5,2.23858 5,5c0,2.76142 -2.23858,5 -5,5c-2.76142,0 -5,-2.23858 -5,-5z" data-paper-data="{&quot;origPos&quot;:null}" fill="#e0bb60" stroke="none" stroke-width="0.5"/></g></g></g></svg>