<svg version="1.1" xmlns="http://www.w3.org/2000/svg" xmlns:xlink="http://www.w3.org/1999/xlink" width="171.25533" height="131.33022" viewBox="0,0,171.25533,131.33022"><defs><linearGradient x1="199" y1="164.93334" x2="199" y2="177.43334" gradientUnits="userSpaceOnUse" id="color-1"><stop offset="0" stop-color="#8f0000"/><stop offset="1" stop-color="#ffffff"/></linearGradient><linearGradient x1="280.33333" y1="163.26667" x2="280.33333" y2="175.76667" gradientUnits="userSpaceOnUse" id="color-2"><stop offset="0" stop-color="#8f0000"/><stop offset="1" stop-color="#ffffff"/></linearGradient><linearGradient x1="181.29804" y1="109.85311" x2="181.29804" y2="148.60035" gradientUnits="userSpaceOnUse" id="color-3"><stop offset="0" stop-color="#ffffff"/><stop offset="1" stop-color="#cecece"/></linearGradient><linearGradient x1="313.3029" y1="110.2135" x2="313.3029" y2="148.69946" gradientUnits="userSpaceOnUse" id="color-4"><stop offset="0" stop-color="#ffffff"/><stop offset="1" stop-color="#cecece"/></linearGradient></defs><g transform="translate(-160.58363,-109.10312)"><g data-paper-data="{&quot;isPaintingLayer&quot;:true}" fill-rule="nonzero" stroke-linejoin="miter" stroke-miterlimit="10" stroke-dasharray="" stroke-dashoffset="0" style="mix-blend-mode: normal"><g stroke-width="0" stroke-linecap="butt"><path d="M307.5,183c0,31.20409 -25.1333,49.5 -61.31754,49.5c-36.18425,0 -69.71721,-18.29591 -69.71721,-49.5c0,-0.0796 -0.00002,-0.12438 -0.00008,-0.20398c-0.0002,-0.23882 -2.4873,-22.59847 10.91731,-28.00422c1.46695,-0.59159 15.58363,-27.49926 24.90799,-35.77838c8.94251,-7.94007 21.89634,-2.51341 33.05202,-2.51341c0,0 24.10313,-3.29001 35.10638,3.83928c9.40659,6.09479 8.55762,22.56893 16.98873,30.43078c9.74628,9.08823 10.0624,16.02585 10.0624,32.22994z" data-paper-data="{&quot;origPos&quot;:null}" fill="#fd0000" stroke="#000000"/><path d="M279.78111,140.8c0,8.56954 4.72226,13.77604 -2.11083,16.47039c-8.3486,3.29193 -25.21312,-0.47039 -34.00772,-0.47039c-11.23266,0 -30.03365,5.25954 -39.71296,-1.5258c-4.10179,-2.87542 6.95427,-8.80724 6.95427,-14.4742c0,-6.51628 0.23358,-12.82006 4.74224,-16.51466c9.15975,-7.50593 18.57655,-0.48534 29.69638,-0.48534c0,0 20.04753,-3.59751 29.86356,3.02343c3.98121,2.68534 4.57506,1.82631 4.57506,13.97657z" data-paper-data="{&quot;origPos&quot;:null}" fill="#000000" stroke="none"/><path d="M239.04274,138.675c0,3.0166 -1.86735,5.46203 -4.17084,5.46203c-2.30349,0 -4.17084,-2.44544 -4.17084,-5.46203c0,-3.0166 0.40237,-6.10561 2.64153,-5.46203c2.30349,0.66206 5.70015,2.44544 5.70015,5.46203z" data-paper-data="{&quot;origPos&quot;:null}" fill="#f1ec8b" stroke="none"/><path d="M255.7257,133.38481c2.37399,-0.68233 2.80059,2.59269 2.80059,5.79093c0,3.19824 -1.97979,5.79093 -4.42199,5.79093c-2.4422,0 -4.42199,-2.59269 -4.42199,-5.79093c0,-3.19824 3.60119,-5.089 6.04338,-5.79093z" data-paper-data="{&quot;origPos&quot;:null,&quot;index&quot;:null}" fill="#f1ec8b" stroke="none"/><path d="M302.85609,175.04086c0,11.3259 -25.31086,48.09247 -60.67031,48.09247c-35.35945,0 -58.84105,-35.31472 -58.84105,-46.64062c0,-12.71772 15.31888,-14.17678 25.83396,-11.93436c21.4038,4.56453 17.26448,7.10217 26.60469,13.20473c0,0 24.03734,-13.16248 39.61152,-15.45923c11.31108,-1.66806 27.46118,1.41111 27.46118,12.73701z" data-paper-data="{&quot;origPos&quot;:null}" fill="#8f0000" stroke="none"/><path d="M253.32217,224.18334c0,8.97463 -6.20508,16.25 -13.85944,16.25c-7.65436,0 -13.85944,-7.27537 -13.85944,-16.25c0,-8.97463 4.10517,-16.75 11.75953,-16.75c0,0 0.34177,12.55613 1.96507,12.29802c2.05147,-0.32619 0.83107,-12.94649 2.67547,-11.82855c4.97753,3.01703 11.31882,7.3059 11.31882,16.28053z" data-paper-data="{&quot;origPos&quot;:null}" fill="#f2afe3" stroke="none"/><path d="M190.5,177.43334v-9.5c0,0 5.92059,-3 8.75,-3c3.80506,0 8.25,3 8.25,3v9.5z" data-paper-data="{&quot;origPos&quot;:null}" fill="url(#color-1)" stroke="none"/><path d="M271.83333,175.76667v-9.5c0,0 5.92059,-3 8.75,-3c3.80507,0 8.25,3 8.25,3v9.5z" data-paper-data="{&quot;origPos&quot;:null}" fill="url(#color-2)" stroke="none"/></g><g data-paper-data="{&quot;origPos&quot;:null,&quot;origRot&quot;:0}" stroke="#aaaaaa" stroke-width="1.5"><path d="M180.6961,148.59388c-9.66087,-0.28166 -17.22509,-9.68426 -16.89514,-21.00129c0.24043,-8.24672 0.76653,-12.50827 8.35402,-15.74807c4.48426,-1.91474 11.81934,-2.30059 16.66743,-1.78018c6.39768,0.68674 10.29363,7.23122 9.96368,18.54825c-0.32995,11.31703 -8.42912,20.26296 -18.08999,19.98129z" data-paper-data="{&quot;origPos&quot;:null}" fill="url(#color-3)" stroke-linecap="butt"/><path d="M193.04365,119.69145c0,0 -2.46719,5.42117 -7.20724,5.08459c-5.12781,-0.36411 -4.4722,-7.67606 -4.4722,-7.67606" data-paper-data="{&quot;origPos&quot;:null}" fill="none" stroke-linecap="round"/><path d="M179.32856,118.45456c0,0 -0.26279,5.95038 -4.78527,7.40936c-4.89242,1.57832 -7.0165,-5.44895 -7.0165,-5.44895" data-paper-data="{&quot;origPos&quot;:null,&quot;origRot&quot;:0}" fill="none" stroke-linecap="round"/></g><g data-paper-data="{&quot;origPos&quot;:null,&quot;origRot&quot;:0}" stroke="#aaaaaa" stroke-width="1.5"><path d="M309.04652,148.39277c-9.46928,-1.93509 -15.30804,-12.49611 -13.04121,-23.5887c1.65183,-8.08317 2.90132,-12.19127 10.93217,-14.08116c4.74629,-1.11694 12.0388,-0.23852 16.7257,1.106c6.18499,1.77426 8.90026,8.89015 6.63344,19.98275c-2.26682,11.09258 -11.78081,18.51621 -21.2501,16.58111z" data-paper-data="{&quot;origPos&quot;:null,&quot;origRot&quot;:0}" fill="url(#color-4)" stroke-linecap="butt"/><path d="M326.17,122.03753c0,0 -3.36075,4.91746 -7.97277,3.77257c-4.98929,-1.23854 -3.08882,-8.32956 -3.08882,-8.32956" data-paper-data="{&quot;origPos&quot;:null,&quot;origRot&quot;:0}" fill="none" stroke-linecap="round"/><path d="M312.87052,118.46576c0,0 -1.27985,5.81705 -5.9856,6.47844c-5.09068,0.71548 -5.97752,-6.57203 -5.97752,-6.57203" data-paper-data="{&quot;origPos&quot;:null,&quot;origRot&quot;:0}" fill="none" stroke-linecap="round"/></g><path d="M184.01354,204.4486c1.23133,2.48562 9.51918,2.71988 10.79693,9.78946c2.24855,12.44089 -5.18856,10.30977 -11.5538,13.463c-5.44378,2.69676 -13.93103,-3.34142 -18.9568,-13.48665c-5.02577,-10.14523 -5.12662,-21.7386 0.75687,-23.25247c16.40623,-4.22145 13.93103,3.34142 18.9568,13.48665z" data-paper-data="{&quot;origPos&quot;:null,&quot;origRot&quot;:0}" fill="#ab6900" stroke="#ab6900" stroke-width="0" stroke-linecap="butt"/><path d="M317.81351,193.62589c6.0486,0.56721 7.77706,12.03146 4.41387,22.84224c-3.36319,10.81078 -10.79216,18.11169 -16.59307,16.30706c-6.78281,-2.11011 -13.79085,1.16704 -13.53212,-11.47277c0.14703,-7.18262 8.29425,-8.72078 9.11825,-11.36947c3.36319,-10.81078 -0.27356,-17.88874 16.59307,-16.30706z" data-paper-data="{&quot;origPos&quot;:null,&quot;index&quot;:null,&quot;origRot&quot;:0}" fill="#ab6900" stroke="#ab6900" stroke-width="0" stroke-linecap="butt"/></g></g></svg>