<svg version="1.1" xmlns="http://www.w3.org/2000/svg" xmlns:xlink="http://www.w3.org/1999/xlink" width="40.2508" height="39.55774" viewBox="0,0,40.2508,39.55774"><defs><radialGradient cx="240.01513" cy="179.78" r="25.26064" gradientUnits="userSpaceOnUse" id="color-1"><stop offset="0" stop-color="#fff343"/><stop offset="1" stop-color="#fff343" stop-opacity="0"/></radialGradient><linearGradient x1="240.0151" y1="163.4541" x2="240.0151" y2="196.83477" gradientUnits="userSpaceOnUse" id="color-2"><stop offset="0" stop-color="#ffef10"/><stop offset="1" stop-color="#ffa30a"/></linearGradient><linearGradient x1="240.01513" y1="163.45412" x2="240.01513" y2="196.4793" gradientUnits="userSpaceOnUse" id="color-3"><stop offset="0" stop-color="#e6b609"/><stop offset="1" stop-color="#c37808"/></linearGradient></defs><g transform="translate(-219.8746,-160.22114)"><g data-paper-data="{&quot;isPaintingLayer&quot;:true}" fill-rule="nonzero" stroke-linecap="round" stroke-linejoin="miter" stroke-miterlimit="10" stroke-dasharray="" stroke-dashoffset="0" style="mix-blend-mode: normal"><path d="M245.16707,198.28227c-1.80252,-1.12561 -5.39263,-3.96517 -5.39263,-3.96517c0,0 -4.00491,3.00702 -5.70258,4.10753c-2.8203,1.71957 -6.50321,1.48362 -6.83733,1.00936c-0.41407,-0.5877 -1.17196,-3.89258 -0.41843,-7.88926c0.60258,-3.19604 1.25927,-5.54951 1.25927,-5.54951c-2.00749,-1.54868 -3.63128,-2.25051 -5.21426,-3.60796c-2.61603,-2.33259 -3.19994,-6.57216 -2.92441,-7.34546c0.37712,-1.05843 3.87978,-4.21693 11.52136,-4.44306l0.48513,-0.1791c2.59642,-7.44628 6.77109,-10.19849 7.99764,-10.19849c1.13776,0.02014 5.00667,2.90619 7.67454,10.3052l0.38077,0.26372c7.72842,0.24097 11.61042,2.96364 12.01719,3.98471c0.24234,0.60832 0.44277,4.75259 -3.39123,7.89757c-1.35065,1.10791 -3.10644,2.0603 -4.70321,3.29378c0,0 0.81609,2.62383 1.48687,6.16884c0.75678,3.99964 -0.3749,6.68028 -0.93666,7.12103c-0.48193,0.37809 -3.99351,0.92522 -7.30197,-0.97369z" data-paper-data="{&quot;index&quot;:null}" fill="url(#color-1)" stroke="#3f2803" stroke-width="0"/><path d="M244.17615,195.24647c-1.4674,-0.91634 -4.39008,-3.58611 -4.39008,-3.58611c0,0 -3.26034,2.8061 -4.6424,3.70201c-3.16553,2.05204 -5.55093,1.35584 -5.82292,0.96976c-0.33709,-0.47844 -0.78008,-3.27898 -0.16663,-6.53262c0.49056,-2.60185 1.02515,-4.51779 1.02515,-4.51779c-1.63426,-1.26077 -2.95617,-1.83212 -4.24485,-2.9372c-2.63691,-2.26125 -3.17549,-5.73945 -2.95118,-6.36898c0.30701,-0.86167 3.64619,-3.45751 9.8671,-3.64161l0.39494,-0.1458c2.11372,-6.06193 5.71084,-8.73401 6.70936,-8.73401c0.92624,0.01638 4.20825,2.83054 6.38012,8.85397l0.30999,0.2147c6.2916,0.19617 10.07827,2.62152 10.40939,3.45275c0.19729,0.49522 -0.33837,4.36371 -3.45958,6.924c-1.09953,0.90194 -2.45646,1.38741 -3.75637,2.39158c0,0 0.66438,2.13603 1.21045,5.02197c0.61609,3.25605 -0.00281,5.66025 -0.46015,6.01906c-0.39232,0.30779 -3.35661,0.82254 -6.41231,-1.08567z" data-paper-data="{&quot;index&quot;:null}" fill="url(#color-2)" stroke="url(#color-3)" stroke-width="1"/><path d="M243.07926,176.55496c0.46543,-0.01795 0.92929,0.36733 1.12468,0.84252c0.35448,0.86241 0.3926,1.89059 0.36609,2.8509c-0.01823,0.8864 -0.15902,1.80276 -0.49692,2.59538c-0.02489,0.05975 -0.05236,0.12069 -0.08228,0.18152c-0.27732,-0.03979 -0.56083,-0.06036 -0.84916,-0.06036c-0.35376,0 -0.70027,0.03098 -1.03698,0.09039c-0.02344,-0.04972 -0.04587,-0.10162 -0.06726,-0.15568c-0.30477,-0.76265 -0.44887,-1.67702 -0.44887,-2.75107c0,-1.07412 0.11096,-1.95249 0.44887,-2.75107c0.22191,-0.52708 0.64599,-0.86049 1.04184,-0.84252z" fill="#3f2803" stroke="none" stroke-width="2.7674"/><path d="M236.94809,176.52182c0.46543,-0.01795 0.92929,0.36734 1.12469,0.84253c0.35448,0.86241 0.39261,1.89058 0.36609,2.85089c-0.01823,0.8864 -0.15902,1.80276 -0.49692,2.59538c-0.03289,0.07896 -0.07028,0.15999 -0.11188,0.24009c-0.32841,-0.05641 -0.66605,-0.08581 -1.01056,-0.08581c-0.28681,0 -0.56887,0.02037 -0.84481,0.05975c-0.02387,-0.05047 -0.0467,-0.10321 -0.06843,-0.15816c-0.30477,-0.76265 -0.44887,-1.67702 -0.44887,-2.75107c0,-1.07412 0.11095,-1.9525 0.44887,-2.75108c0.22191,-0.52708 0.64599,-0.86049 1.04184,-0.84253z" fill="#3f2803" stroke="none" stroke-width="2.7674"/></g></g></svg>