<svg version="1.1" xmlns="http://www.w3.org/2000/svg" xmlns:xlink="http://www.w3.org/1999/xlink" width="30.3" height="30.2" viewBox="0,0,30.3,30.2"><defs><radialGradient cx="238.7225" cy="179.9742" r="20.1533" gradientUnits="userSpaceOnUse" id="color-1"><stop offset="0" stop-color="#666666"/><stop offset="1" stop-color="#666666" stop-opacity="0"/></radialGradient></defs><g transform="translate(-225.125,-164.825)"><g data-paper-data="{&quot;isPaintingLayer&quot;:true}" fill-rule="nonzero" stroke-linejoin="miter" stroke-miterlimit="10" stroke-dasharray="" stroke-dashoffset="0" style="mix-blend-mode: normal"><path d="M239.9,165.675c3.952,0 7.533,1.605 10.127,4.198c2.593,2.594 4.198,6.175 4.198,10.127c0,3.952 -1.605,7.533 -4.198,10.127c-2.594,2.593 -6.175,4.198 -10.127,4.198c-3.952,0 -7.533,-1.605 -10.127,-4.198c-2.593,-2.594 -4.198,-6.175 -4.198,-10.127c0,-3.952 1.605,-7.533 4.198,-10.127c2.594,-2.593 6.175,-4.198 10.127,-4.198z" data-paper-data="{&quot;origPos&quot;:null}" fill="url(#color-1)" stroke="none" stroke-width="1" stroke-linecap="butt"/><path d="M243.875,166.025c0,0 2.132,0.746 3.1,1.3c1.119,0.64 2.126,1.365 3.15,2.25c0.876,0.796 1.677,1.736 2.25,2.75c0.763,1.351 1.8,4.3 1.8,4.3" data-paper-data="{&quot;origPos&quot;:null}" fill="none" stroke="#ffffff" stroke-width="2" stroke-linecap="round"/><path d="M226.125,176.425c0,0 1.037,-2.949 1.8,-4.3c0.573,-1.014 1.374,-1.954 2.25,-2.75c1.024,-0.885 2.031,-1.61 3.15,-2.25c0.968,-0.554 3.1,-1.3 3.1,-1.3" data-paper-data="{&quot;origPos&quot;:null}" fill="none" stroke="#ffffff" stroke-width="2" stroke-linecap="round"/><path d="M254.425,183.375c0,0 -1.037,2.949 -1.8,4.3c-0.573,1.014 -1.374,1.954 -2.25,2.75c-1.024,0.885 -2.031,1.61 -3.15,2.25c-0.968,0.554 -3.1,1.3 -3.1,1.3" data-paper-data="{&quot;origPos&quot;:null}" fill="none" stroke="#ffffff" stroke-width="2" stroke-linecap="round"/><path d="M236.525,194.025c0,0 -2.132,-0.746 -3.1,-1.3c-1.119,-0.64 -2.126,-1.365 -3.15,-2.25c-0.876,-0.796 -1.677,-1.736 -2.25,-2.75c-0.763,-1.351 -1.8,-4.3 -1.8,-4.3" data-paper-data="{&quot;origPos&quot;:null}" fill="none" stroke="#ffffff" stroke-width="2" stroke-linecap="round"/><g fill="#ffffff" stroke="none" stroke-width="1.26647" stroke-linecap="butt"><path d="M238.8902,173.82405c1.4697,1.2626 2.7958,3.1225 3.626,5.2801c0.8301,2.1576 1.0081,4.2072 0.6277,5.7756c-0.3819,1.5687 -1.3253,2.6567 -2.7367,2.8899c-1.4113,0.2333 -3.029,-0.4313 -4.5002,-1.6937c-1.4696,-1.2626 -2.7957,-3.1224 -3.6259,-5.28c-0.8301,-2.1577 -1.0081,-4.2073 -0.6277,-5.7757c0.3819,-1.5686 1.3253,-2.6566 2.7366,-2.8899c1.4114,-0.2333 3.0291,0.4314 4.5002,1.6937z"/><path d="M245.61,172.23035c1.4113,0.2333 2.3547,1.3213 2.7366,2.8899c0.3804,1.5684 0.2024,3.618 -0.6277,5.7757c-0.8302,2.1576 -2.1563,4.0174 -3.6259,5.28c-1.4712,1.2624 -3.0889,1.927 -4.5002,1.6937c-1.4114,-0.2332 -2.3548,-1.3212 -2.7367,-2.8899c-0.3804,-1.5684 -0.2024,-3.618 0.6277,-5.7756c0.8302,-2.1576 2.1563,-4.0175 3.626,-5.2801c1.4711,-1.2623 3.0888,-1.927 4.5002,-1.6937z"/></g><path d="M239.2107,175.43565c2.5139,0.6498 3.7938,1.0207 3.8404,1.1228c0,0.0556 0.6122,1.1873 1.8275,3.3763c-0.7703,2.5048 -1.1783,3.8123 -1.2524,3.9239c0,0 -1.4006,2.0778 -1.5122,1.9387l-2.9588,0.6122c-2.0874,-1.1408 -3.1911,-1.781 -3.3208,-1.9387c-0.0745,-0.7979 -0.1952,-3.0239 -0.3619,-6.688c1.9663,-1.2895 3.2187,-2.0779 3.7382,-2.3472zM239.86,178.48765l-1.6138,1.6328c0.1391,1.6974 0.2037,2.7361 0.2037,3.1075c0.037,0 0.3899,0.2413 1.0392,0.7143c0.8624,-0.1857 1.2984,-0.3154 1.2984,-0.399l0.9926,-3.3207c-0.2688,-0.7794 -0.4915,-1.1688 -0.6772,-1.1688z" fill="#666666" stroke="none" stroke-width="0.47493" stroke-linecap="butt"/></g></g></svg>