<svg version="1.1" xmlns="http://www.w3.org/2000/svg" xmlns:xlink="http://www.w3.org/1999/xlink" width="243.75" height="335" viewBox="0,0,243.75,335"><defs><linearGradient x1="230.125" y1="25.5" x2="250.125" y2="25.5" gradientUnits="userSpaceOnUse" id="color-1"><stop offset="0" stop-color="#fff838"/><stop offset="1" stop-color="#e38100"/></linearGradient><radialGradient cx="235.60001" cy="-134.10001" r="23" gradientUnits="userSpaceOnUse" id="color-2"><stop offset="0" stop-color="#fff838"/><stop offset="1" stop-color="#e38100"/></radialGradient></defs><g transform="translate(-211.125,154)"><g data-paper-data="{&quot;isPaintingLayer&quot;:true}" fill-rule="nonzero" stroke-linecap="butt" stroke-linejoin="miter" stroke-miterlimit="10" stroke-dasharray="" stroke-dashoffset="0" style="mix-blend-mode: normal"><path d="M238.375,69.5v-184l216.5,92z" fill="#41c3ff" stroke="#000000" stroke-width="0"/><g stroke="none"><path d="M280.775,-23.375c0,-22.57463 18.30037,-40.875 40.875,-40.875c22.57463,0 40.875,18.30037 40.875,40.875c0,22.57463 -18.30037,40.875 -40.875,40.875c-22.57463,0 -40.875,-18.30037 -40.875,-40.875z" fill="#ffffff" stroke-width="0"/><path d="M328.04925,-50.59885c9.75436,4.93293 14.77204,7.3994 15.03964,7.3994c0,0.43264 -2.02937,4.34864 -6.09703,11.74804h-0.28545c-0.32559,0 -4.99984,-2.20777 -14.02273,-6.62333l-4.59396,6.13718c7.77851,3.73761 17.22065,8.50998 28.33536,14.30817c-5.04444,8.97383 -8.62149,14.9326 -10.7356,17.88968l-22.96534,2.02937c-10.49028,-7.0738 -16.0298,-10.73114 -16.62746,-10.97644v-0.28099c0,-0.75823 2.12749,-4.2416 6.38248,-10.45014h0.5263c1.68148,1.00353 6.95338,3.88925 15.81571,8.66162l5.36557,-6.10149c-16.28848,-8.29143 -25.31137,-12.97905 -27.07314,-14.06287v-0.24531c5.17378,-10.07995 7.9926,-15.1913 8.45647,-15.3251c13.46966,-2.73853 20.96273,-4.1078 22.47918,-4.1078z" fill="#ffe008" stroke-width="1"/></g><g data-paper-data="{&quot;origPos&quot;:null}" stroke="none"><path d="M230.125,160v-274h20v274z" data-paper-data="{&quot;origPos&quot;:null}" fill="url(#color-1)" stroke-width="NaN"/><path d="M241.125,-108c-12.70255,0 -23,-10.29745 -23,-23c0,-12.70255 10.29745,-23 23,-23c12.70255,0 23,10.29745 23,23c0,12.70255 -10.29745,23 -23,23z" data-paper-data="{&quot;origPos&quot;:null,&quot;index&quot;:null}" fill="url(#color-2)" stroke-width="0"/><path d="M211.125,181v-28h59v28z" data-paper-data="{&quot;origPos&quot;:null}" fill="#aaafb7" stroke-width="0"/></g></g></g></svg>