<svg version="1.1" xmlns="http://www.w3.org/2000/svg" xmlns:xlink="http://www.w3.org/1999/xlink" width="487.5075" height="352" viewBox="0,0,487.5075,352"><defs><linearGradient x1="-89.40098" y1="308.0044" x2="-89.40098" y2="406.0044" gradientUnits="userSpaceOnUse" id="color-1"><stop offset="0" stop-color="#000000" stop-opacity="0"/><stop offset="1" stop-color="#000000"/></linearGradient></defs><g transform="translate(4.5045,-12)"><g data-paper-data="{&quot;isPaintingLayer&quot;:true}" fill-rule="nonzero" stroke-linecap="butt" stroke-linejoin="miter" stroke-miterlimit="10" stroke-dasharray="" stroke-dashoffset="0" style="mix-blend-mode: normal"><g data-paper-data="{&quot;origRot&quot;:0,&quot;origPos&quot;:null}" fill="#75beff" stroke="#4bca88" stroke-width="0"><g data-paper-data="{&quot;origPos&quot;:null}"><path d="M148.22601,254.23415c0.36156,23.85704 -40.13842,43.81522 -90.45925,44.57786c-23.99485,0.36365 -45.89,-3.70292 -62.27126,-10.64401c0,-21.21946 0,-42.43892 0,-63.65838c16.06033,-7.18363 37.43803,-11.73506 60.96193,-12.09158c50.32083,-0.76264 91.40703,17.95907 91.76859,41.81611z" data-paper-data="{&quot;origPos&quot;:null}"/><path d="M260.94064,250.96421c0.36156,23.85704 -40.13842,43.81522 -90.45925,44.57786c-50.32083,0.76264 -91.40703,-17.95907 -91.76859,-41.81611c-0.36156,-23.85704 40.13842,-43.81522 90.45925,-44.57786c50.32083,-0.76264 91.40703,17.95907 91.76859,41.81611z" data-paper-data="{&quot;origPos&quot;:null}"/></g><g data-paper-data="{&quot;origPos&quot;:null}"><path d="M407.2872,256.30864c0.36156,23.85704 -40.13842,43.81522 -90.45925,44.57786c-50.32083,0.76264 -91.40702,-17.95907 -91.76859,-41.81611c-0.36156,-23.85704 40.13842,-43.81522 90.45925,-44.57786c50.32083,-0.76264 91.40703,17.95907 91.76859,41.8161z" data-paper-data="{&quot;origPos&quot;:null}"/><path d="M429.54257,297.61656c-50.32083,0.76264 -91.40703,-17.95907 -91.76859,-41.81611c-0.36156,-23.85704 40.13842,-43.81522 90.45925,-44.57786c20.49852,-0.31067 39.46465,2.61189 54.76977,7.79772c0,20.78803 0,41.57605 0,62.36408c0,2.1162 0,4.65183 0,7.16353c-14.95965,5.42073 -33.43216,8.7651 -53.46043,9.06864z" data-paper-data="{&quot;origPos&quot;:null}"/></g></g><path d="" data-paper-data="{&quot;origPos&quot;:null}" fill="url(#color-1)" stroke="none" stroke-width="1.22826"/><g data-paper-data="{&quot;origPos&quot;:null}" stroke="none" stroke-width="1"><path d="M269.28457,22.34084c9.18266,0 17.5038,2.60718 23.52928,6.81914c6.02548,4.21195 9.75529,10.02867 9.75529,16.44775c0,6.41907 -3.72981,12.23579 -9.75529,16.44775c-6.02548,4.21195 -14.34662,6.81914 -23.52928,6.81914c-9.18266,0 -17.5038,-2.60718 -23.52928,-6.81914c-6.02548,-4.21195 -9.75529,-10.02867 -9.75529,-16.44775c0,-6.41907 3.72981,-12.23579 9.75529,-16.44775c6.02548,-4.21195 14.34662,-6.81914 23.52928,-6.81914z" data-paper-data="{&quot;origPos&quot;:null}" fill="#ffffff"/><path d="M310.64791,12c9.18266,0 17.5038,2.60718 23.52928,6.81914c6.02548,4.21195 9.75529,10.02867 9.75529,16.44775c0,6.41907 -3.72981,12.23579 -9.75529,16.44775c-6.02548,4.21195 -14.34662,6.81914 -23.52928,6.81914c-9.18266,0 -17.5038,-2.60718 -23.52928,-6.81914c-6.02548,-4.21195 -9.75529,-10.02867 -9.75529,-16.44775c0,-6.41907 3.72981,-12.23579 9.75529,-16.44775c6.02548,-4.21195 14.34662,-6.81914 23.52928,-6.81914z" data-paper-data="{&quot;origPos&quot;:null}" fill="#ffffff"/><path d="M276.71704,32.35852c0.80271,0 1.5298,0.70641 2.05589,1.84713c0.52674,1.14072 0.85247,2.71576 0.85247,4.45432c0,1.73855 -0.32574,3.31359 -0.85247,4.45432c-0.52609,1.14072 -1.25318,1.84713 -2.05589,1.84713c-0.80271,0 -1.5298,-0.70641 -2.05589,-1.84713c-0.52674,-1.14072 -0.85247,-2.71576 -0.85247,-4.45432c0,-1.73855 0.32574,-3.31359 0.85247,-4.45432c0.52609,-1.14072 1.25318,-1.84713 2.05589,-1.84713z" data-paper-data="{&quot;origPos&quot;:null}" fill="#4a4f54"/><path d="M290.28939,32.03537c0.80271,0 1.5298,0.70641 2.05589,1.84713c0.52674,1.14072 0.85247,2.71576 0.85247,4.45432c0,1.73855 -0.32574,3.31359 -0.85247,4.45432c-0.52609,1.14072 -1.25318,1.84713 -2.05589,1.84713c-0.80271,0 -1.5298,-0.70641 -2.05589,-1.84713c-0.52674,-1.14072 -0.85247,-2.71576 -0.85247,-4.45432c0,-1.73855 0.32574,-3.31359 0.85247,-4.45432c0.52609,-1.14072 1.25318,-1.84713 2.05589,-1.84713z" data-paper-data="{&quot;origPos&quot;:null}" fill="#4a4f54"/></g><g data-paper-data="{&quot;origPos&quot;:null}" stroke="none" stroke-width="1"><path d="M460.24471,58.09566c6.02548,4.21195 9.75529,10.02867 9.75529,16.44775c0,6.41907 -3.72981,12.23579 -9.75529,16.44775c-6.02548,4.21195 -14.34662,6.81914 -23.52928,6.81914c-9.18266,0 -17.5038,-2.60718 -23.52928,-6.81914c-6.02548,-4.21195 -9.75529,-10.02867 -9.75529,-16.44775c0,-6.41907 3.72981,-12.23579 9.75529,-16.44775c6.02548,-4.21195 14.34662,-6.81914 23.52928,-6.81914c9.18266,0 17.5038,2.60718 23.52928,6.81914z" data-paper-data="{&quot;origPos&quot;:null}" fill="#ffffff"/><path d="M418.88137,47.75483c6.02548,4.21195 9.75529,10.02867 9.75529,16.44775c0,6.41907 -3.72981,12.23579 -9.75529,16.44775c-6.02548,4.21195 -14.34662,6.81914 -23.52928,6.81914c-9.18266,0 -17.5038,-2.60718 -23.52928,-6.81914c-6.02548,-4.21195 -9.75529,-10.02867 -9.75529,-16.44775c0,-6.41907 3.72981,-12.23579 9.75529,-16.44775c6.02548,-4.21195 14.34662,-6.81914 23.52928,-6.81914c9.18266,0 17.5038,2.60718 23.52928,6.81914z" data-paper-data="{&quot;origPos&quot;:null}" fill="#ffffff"/><path d="M410.01087,67.66546c0.52674,1.14072 0.85247,2.71576 0.85247,4.45432c0,1.73855 -0.32574,3.31359 -0.85247,4.45432c-0.52609,1.14072 -1.25318,1.84713 -2.05589,1.84713c-0.80271,0 -1.5298,-0.70641 -2.05589,-1.84713c-0.52674,-1.14072 -0.85247,-2.71576 -0.85247,-4.45432c0,-1.73855 0.32574,-3.31359 0.85247,-4.45432c0.52609,-1.14072 1.25318,-1.84713 2.05589,-1.84713c0.80271,0 1.5298,0.70641 2.05589,1.84713z" data-paper-data="{&quot;origPos&quot;:null}" fill="#4a4f54"/><path d="M396.43852,67.34231c0.52674,1.14072 0.85247,2.71576 0.85247,4.45432c0,1.73855 -0.32574,3.31359 -0.85247,4.45432c-0.52609,1.14072 -1.25318,1.84713 -2.05589,1.84713c-0.80271,0 -1.5298,-0.70641 -2.05589,-1.84713c-0.52674,-1.14072 -0.85247,-2.71576 -0.85247,-4.45432c0,-1.73855 0.32574,-3.31359 0.85247,-4.45432c0.52609,-1.14072 1.25318,-1.84713 2.05589,-1.84713c0.80271,0 1.5298,0.70641 2.05589,1.84713z" data-paper-data="{&quot;origPos&quot;:null}" fill="#4a4f54"/></g><g data-paper-data="{&quot;origPos&quot;:null}" stroke="none" stroke-width="1"><path d="M58.28457,26.34084c9.18266,0 17.50381,2.60719 23.52928,6.81914c6.02548,4.21195 9.75528,10.02867 9.75528,16.44774c0,6.41908 -3.72981,12.2358 -9.75528,16.44775c-6.02548,4.21195 -14.34662,6.81914 -23.52928,6.81914c-9.18266,0 -17.5038,-2.60719 -23.52928,-6.81914c-6.02547,-4.21195 -9.75529,-10.02867 -9.75529,-16.44775c0,-6.41907 3.72981,-12.23579 9.75529,-16.44774c6.02547,-4.21195 14.34662,-6.81914 23.52928,-6.81914z" data-paper-data="{&quot;origPos&quot;:null}" fill="#ffffff"/><path d="M99.64791,16c9.18266,0 17.5038,2.60719 23.52928,6.81914c6.02548,4.21195 9.75529,10.02867 9.75529,16.44774c0,6.41908 -3.72981,12.23579 -9.75529,16.44774c-6.02548,4.21195 -14.34662,6.81914 -23.52928,6.81914c-9.18266,0 -17.50381,-2.60719 -23.52928,-6.81914c-6.02547,-4.21195 -9.75529,-10.02867 -9.75529,-16.44774c0,-6.41907 3.72981,-12.2358 9.75529,-16.44774c6.02547,-4.21195 14.34662,-6.81914 23.52928,-6.81914z" data-paper-data="{&quot;origPos&quot;:null}" fill="#ffffff"/><path d="M65.71704,36.35852c0.80271,0 1.5298,0.70641 2.05589,1.84714c0.52673,1.14073 0.85247,2.71576 0.85247,4.45432c0,1.73855 -0.32574,3.31359 -0.85247,4.45432c-0.52609,1.14073 -1.25318,1.84713 -2.05589,1.84713c-0.80271,0 -1.52979,-0.7064 -2.05588,-1.84713c-0.52673,-1.14073 -0.85248,-2.71576 -0.85248,-4.45432c0,-1.73855 0.32574,-3.31359 0.85248,-4.45432c0.52609,-1.14073 1.25318,-1.84714 2.05588,-1.84714z" data-paper-data="{&quot;origPos&quot;:null}" fill="#4a4f54"/><path d="M79.28939,36.03537c0.80271,0 1.52979,0.7064 2.05588,1.84713c0.52673,1.14073 0.85247,2.71576 0.85247,4.45432c0,1.73855 -0.32574,3.31359 -0.85247,4.45432c-0.52609,1.14073 -1.25318,1.84713 -2.05588,1.84713c-0.80271,0 -1.5298,-0.70641 -2.05589,-1.84713c-0.52673,-1.14073 -0.85247,-2.71576 -0.85247,-4.45432c0,-1.73855 0.32574,-3.31359 0.85247,-4.45432c0.52609,-1.14073 1.25319,-1.84713 2.05589,-1.84713z" data-paper-data="{&quot;origPos&quot;:null}" fill="#4a4f54"/></g><g data-paper-data="{&quot;origPos&quot;:null}" stroke="none" stroke-width="1"><path d="M252.24471,87.09566c6.02548,4.21195 9.75529,10.02867 9.75529,16.44775c0,6.41908 -3.72981,12.23579 -9.75529,16.44774c-6.02547,4.21195 -14.34662,6.81914 -23.52928,6.81914c-9.18266,0 -17.5038,-2.60719 -23.52928,-6.81914c-6.02548,-4.21195 -9.75528,-10.02867 -9.75528,-16.44774c0,-6.41908 3.72981,-12.2358 9.75528,-16.44775c6.02548,-4.21195 14.34662,-6.81913 23.52928,-6.81913c9.18266,0 17.50381,2.60718 23.52928,6.81913z" data-paper-data="{&quot;origPos&quot;:null}" fill="#ffffff"/><path d="M210.88137,76.75483c6.02547,4.21195 9.75529,10.02867 9.75529,16.44774c0,6.41908 -3.72981,12.2358 -9.75529,16.44775c-6.02547,4.21195 -14.34662,6.81913 -23.52928,6.81913c-9.18266,0 -17.5038,-2.60718 -23.52928,-6.81913c-6.02548,-4.21195 -9.75529,-10.02867 -9.75529,-16.44775c0,-6.41908 3.72981,-12.23579 9.75529,-16.44774c6.02548,-4.21195 14.34662,-6.81914 23.52928,-6.81914c9.18266,0 17.50381,2.60719 23.52928,6.81914z" data-paper-data="{&quot;origPos&quot;:null}" fill="#ffffff"/><path d="M202.01087,96.66546c0.52673,1.14073 0.85247,2.71576 0.85247,4.45432c0,1.73856 -0.32574,3.31359 -0.85247,4.45431c-0.52609,1.14073 -1.25318,1.84713 -2.05588,1.84713c-0.80271,0 -1.5298,-0.70641 -2.05589,-1.84713c-0.52673,-1.14073 -0.85247,-2.71576 -0.85247,-4.45431c0,-1.73856 0.32574,-3.31359 0.85247,-4.45432c0.52609,-1.14073 1.25319,-1.84713 2.05589,-1.84713c0.80271,0 1.52979,0.7064 2.05588,1.84713z" data-paper-data="{&quot;origPos&quot;:null}" fill="#4a4f54"/><path d="M188.43853,96.34231c0.52673,1.14073 0.85247,2.71576 0.85247,4.45432c0,1.73856 -0.32574,3.31359 -0.85247,4.45431c-0.52609,1.14073 -1.25319,1.84713 -2.05589,1.84713c-0.80271,0 -1.52979,-0.70641 -2.05588,-1.84713c-0.52673,-1.14073 -0.85248,-2.71576 -0.85248,-4.45431c0,-1.73856 0.32574,-3.31359 0.85248,-4.45432c0.52609,-1.14073 1.25318,-1.84713 2.05588,-1.84713c0.80271,0 1.5298,0.70641 2.05589,1.84713z" data-paper-data="{&quot;origPos&quot;:null}" fill="#4a4f54"/></g><path d="M-4.5,364v-90h486v90z" fill="#75beff" stroke="none" stroke-width="0"/></g></g></svg>