<svg version="1.1" xmlns="http://www.w3.org/2000/svg" xmlns:xlink="http://www.w3.org/1999/xlink" width="191" height="246.85849" viewBox="0,0,191,246.85849"><g transform="translate(-158,-58.64151)"><g data-paper-data="{&quot;isPaintingLayer&quot;:true}" fill-rule="nonzero" stroke-linejoin="miter" stroke-miterlimit="10" stroke-dasharray="" stroke-dashoffset="0" style="mix-blend-mode: normal"><g><g data-paper-data="{&quot;index&quot;:null}"><path d="M257.34009,217.31198c0,0 6.19521,-14.10561 16.6181,-18.88277c10.42288,-4.77716 21.12648,1.58317 21.12648,1.58317c0,0 -7.41142,13.44508 -17.83431,18.22224c-10.42288,4.77716 -19.91027,-0.92264 -19.91027,-0.92264z" fill="#24c060" stroke="none" stroke-width="0" stroke-linecap="butt"/><path d="M263.49321,214.03559c0,0 5.48161,-6.68627 13.34936,-9.89469c6.87349,-2.80298 11.83958,-2.56137 11.83958,-2.56137" fill="none" stroke="#1a8752" stroke-width="2.5" stroke-linecap="round"/></g><path d="M253.75859,175.87225h7.76839v41.53486h-7.76839z" fill="#24c060" stroke="none" stroke-width="0.97987" stroke-linecap="butt"/><g><path d="M257.99324,217.58879c0,0 -9.48739,5.6998 -19.91027,0.92264c-10.42289,-4.77716 -17.83431,-18.22224 -17.83431,-18.22224c0,0 10.70359,-6.36033 21.12648,-1.58317c10.42289,4.77716 16.6181,18.88277 16.6181,18.88277z" fill="#24c060" stroke="none" stroke-width="0" stroke-linecap="butt"/><path d="M226.65119,201.85633c0,0 4.96609,-0.2416 11.83958,2.56137c7.86777,3.20842 13.34936,9.89471 13.34936,9.89471" fill="none" stroke="#1a8752" stroke-width="2.5" stroke-linecap="round"/></g><g stroke="none" stroke-width="0" stroke-linecap="butt"><path d="M294.61968,141.40136c0,0 0.01617,51.26669 -36.26101,51.3467c-35.43539,0.07815 -37.64501,-52.17709 -37.64501,-52.17709l18.83005,6.02155l17.98456,-16.6784l16.97179,16.42127z" fill="#35b2ff"/><path d="M258.20502,187.48886c-25.62947,-0.22585 -30.67009,-34.57218 -30.67009,-34.57218l14.03384,4.73074l15.71342,-13.06284l16.61731,14.18288l15.55972,-5.86297c0,0 -5.52345,34.25543 -31.25421,34.58438z" fill="#85e0ff"/><path d="M258.04231,183.93546c-15.82138,-0.35814 -21.5926,-17.94627 -21.5926,-17.94627l9.06944,3.93518l11.88105,-9.33029l13.51613,9.41193l9.62812,-4.0237c0,0 -6.35873,17.53682 -22.50212,17.95316z" fill="#d0f8ff"/></g><g stroke="none" stroke-width="0" stroke-linecap="butt"><path d="M266.10958,160.71366c2.74277,0 3.64464,2.73962 3.64464,9.17445c0,6.20682 -1.14516,9.17445 -3.64464,9.17445c-2.49946,0 -3.64464,-3.19564 -3.64464,-9.17446c0,-6.43481 0.90189,-9.17445 3.64464,-9.17445z" fill="#000000"/><path d="M264.45005,164.96997c0,-2.10648 0.71846,-2.55744 1.6047,-2.55744c0.88622,0 1.64776,0.49049 1.60466,2.59654c-0.03911,1.91096 -0.29026,2.70422 -1.60466,2.70422c-1.39265,0 -1.6047,-0.94969 -1.6047,-2.74331z" fill="#ffffff"/></g><g stroke="none" stroke-width="0" stroke-linecap="butt"><path d="M249.22377,160.76143c2.74277,0 3.64461,2.73964 3.64461,9.17445c0,6.20682 -1.14515,9.17445 -3.64461,9.17445c-2.49946,0 -3.64464,-3.19563 -3.64464,-9.17445c0,-6.43481 0.90187,-9.17446 3.64464,-9.17446z" fill="#000000"/><path d="M247.83762,165.01774c0,-2.10647 0.71846,-2.55744 1.6047,-2.55744c0.88622,0 1.64776,0.49047 1.60466,2.59653c-0.03911,1.91096 -0.29026,2.70422 -1.60466,2.70422c-1.39264,0 -1.6047,-0.94969 -1.6047,-2.74331z" fill="#ffffff"/></g></g><path d="M158,305.5v-246.85849h191v246.85849z" fill="none" stroke="none" stroke-width="0" stroke-linecap="butt"/><path d="M158,305.5v-246.85849h191v246.85849z" fill="none" stroke="none" stroke-width="0" stroke-linecap="butt"/></g></g></svg>