<svg version="1.1" xmlns="http://www.w3.org/2000/svg" xmlns:xlink="http://www.w3.org/1999/xlink" width="59.81277" height="52.89831" viewBox="0,0,59.81277,52.89831"><g transform="translate(-210.09362,-153.55085)"><g data-paper-data="{&quot;isPaintingLayer&quot;:true}" fill-rule="nonzero" stroke="none" stroke-linejoin="miter" stroke-miterlimit="10" stroke-dasharray="" stroke-dashoffset="0" style="mix-blend-mode: normal"><path d="M269.35504,183.76688c-0.46927,7.50315 -6.30323,13.46736 -30.55163,13.89605c-23.3835,-0.15636 -28.04018,-8.75009 -28.55292,-14.69649c-0.51274,-5.9464 2.61756,-29.54057 28.96117,-29.41509c27.84484,0.13262 30.66171,21.92795 30.14337,30.21553z" fill="#ff1919" stroke-width="0.93172" stroke-linecap="round"/><path d="M257.60091,197.56642c-0.0655,4.10605 -0.75383,8.60527 -18.4072,8.87393c-17.65684,0.26871 -16.95882,-5.67328 -17.05441,-9.39301c-0.13261,-5.16081 3.41775,-9.68433 17.30867,-9.68628c15.9239,0.12071 18.22679,5.57591 18.15293,10.20537z" fill="#ffdea8" stroke-width="1" stroke-linecap="butt"/><path d="M244.65549,191.12522c1.5935,0 2.11747,1.59168 2.11747,5.33019c0,3.60605 -0.66531,4.08019 -2.11747,4.08019c-1.45215,0 -2.11747,-0.60661 -2.11747,-4.0802c0,-3.73852 0.52398,-5.3302 2.11747,-5.3302z" fill="#000000" stroke-width="0" stroke-linecap="butt"/><path d="M234.84511,191.15297c1.5935,0 2.11746,1.59167 2.11746,5.33019c0,3.60605 -0.66531,4.0802 -2.11746,4.0802c-1.45216,0 -2.11748,-0.60661 -2.11748,-4.0802c0,-3.73852 0.52398,-5.3302 2.11748,-5.3302z" fill="#000000" stroke-width="0" stroke-linecap="butt"/><path d="M237.36279,184.93126l-9.08203,-6.45453l-9.0049,6.45453l2.1407,-10.12422l-6.12726,-7.75517l8.79835,-0.5911l4.25655,-9.47344l4.40475,9.47267l8.67755,0.59188l-6.23181,7.75517z" data-paper-data="{&quot;index&quot;:null}" fill="#ffe428" stroke-width="1" stroke-linecap="round"/><path d="M253.1534,183.71947l-4.87348,-3.46354l-4.83208,3.46354l1.14872,-5.43272l-3.28793,-4.16147l4.72125,-0.31719l2.2841,-5.08351l2.36362,5.08309l4.65642,0.31761l-3.34403,4.16147z" data-paper-data="{&quot;index&quot;:null}" fill="#ffe428" stroke-width="1" stroke-linecap="round"/><path d="M259.2739,167.52398l-7.74726,-4.96418l-7.68145,4.96418l1.82609,-7.78654l-5.22674,-5.96449l3.3785,-0.20465c0,0 4.75564,0.35499 8.24117,1.6208c2.51683,0.91402 6.49626,3.43775 6.49626,3.43775l-1.13604,1.11059z" data-paper-data="{&quot;index&quot;:null}" fill="#ffe428" stroke-width="1" stroke-linecap="round"/><path d="M265.18992,186.6275l-5.93213,5.05178l1.41022,-7.92395l-4.03644,-6.06975l5.79607,-0.46264l2.80408,-7.4146l2.90171,7.414l1.47624,0.15134c0,0 0.50306,4.23422 0.19912,6.91705c-0.30395,2.68284 -1.53253,4.91394 -1.53253,4.91394z" data-paper-data="{&quot;index&quot;:null}" fill="#ffe428" stroke-width="1" stroke-linecap="round"/><path d="M215.46322,191.78418l-3.29014,-2.92858c0,0 -1.7413,-2.64441 -2.03044,-6.10052c-0.29834,-3.56599 0.85715,-7.9536 0.98779,-8.38663l1.85698,5.00169l4.65643,0.39779l-3.34403,5.21204z" data-paper-data="{&quot;index&quot;:null}" fill="#ffe428" stroke-width="1" stroke-linecap="round"/></g></g></svg>