<svg version="1.1" xmlns="http://www.w3.org/2000/svg" xmlns:xlink="http://www.w3.org/1999/xlink" width="683.40458" height="418.95794" viewBox="0,0,683.40458,418.95794"><defs><linearGradient x1="-101.20229" y1="180" x2="-30.84294" y2="180" gradientUnits="userSpaceOnUse" id="color-1"><stop offset="0" stop-color="#296cdb" stop-opacity="0"/><stop offset="1" stop-color="#296cdb"/></linearGradient><linearGradient x1="510.77689" y1="180" x2="582.20229" y2="180" gradientUnits="userSpaceOnUse" id="color-2"><stop offset="0" stop-color="#296cdb"/><stop offset="1" stop-color="#296cdb" stop-opacity="0"/></linearGradient><linearGradient x1="240.37562" y1="19.00242" x2="240.37562" y2="-63.06776" gradientUnits="userSpaceOnUse" id="color-3"><stop offset="0" stop-color="#296cdb"/><stop offset="1" stop-color="#296cdb" stop-opacity="0"/></linearGradient><radialGradient cx="435.31992" cy="13.59456" r="77.14154" gradientUnits="userSpaceOnUse" id="color-4"><stop offset="0" stop-color="#296cdb"/><stop offset="1" stop-color="#296cdb" stop-opacity="0"/></radialGradient><radialGradient cx="44.68008" cy="13.59456" r="77.14155" gradientUnits="userSpaceOnUse" id="color-5"><stop offset="0" stop-color="#296cdb"/><stop offset="1" stop-color="#296cdb" stop-opacity="0"/></radialGradient><linearGradient x1="495.99204" y1="306.61578" x2="474.10198" y2="306.61578" gradientUnits="userSpaceOnUse" id="color-6"><stop offset="0" stop-color="#8e4108"/><stop offset="1" stop-color="#be6d2f"/></linearGradient><linearGradient x1="510.73022" y1="290.67625" x2="489.51484" y2="290.67625" gradientUnits="userSpaceOnUse" id="color-7"><stop offset="0" stop-color="#8e4108"/><stop offset="1" stop-color="#be6d2f"/></linearGradient><linearGradient x1="443.08185" y1="251.97295" x2="443.08185" y2="308.05265" gradientUnits="userSpaceOnUse" id="color-8"><stop offset="0" stop-color="#0052ef"/><stop offset="1" stop-color="#004bd6"/></linearGradient><linearGradient x1="378.96514" y1="225.25071" x2="378.96514" y2="240.61613" gradientUnits="userSpaceOnUse" id="color-9"><stop offset="0" stop-color="#bc041a"/><stop offset="1" stop-color="#880010"/></linearGradient><linearGradient x1="397.14182" y1="210.65893" x2="397.14182" y2="236.50718" gradientUnits="userSpaceOnUse" id="color-10"><stop offset="0" stop-color="#bc041a"/><stop offset="1" stop-color="#a90216"/></linearGradient></defs><g transform="translate(101.20229,29.47897)"><g data-paper-data="{&quot;isPaintingLayer&quot;:true}" fill-rule="nonzero" stroke-linejoin="miter" stroke-miterlimit="10" stroke-dasharray="" stroke-dashoffset="0" style="mix-blend-mode: normal"><g stroke="none" stroke-width="0" stroke-linecap="butt"><path d="M-31.84294,389.47897v-418.95794h542.61983v418.95794z" fill="#296cdb"/><path d="M-101.20229,389.47897v-418.95794h70.35935v418.95794z" fill="url(#color-1)"/><path d="M510.77689,389.47897v-418.95794h71.4254v418.95794z" fill="url(#color-2)"/></g><text transform="translate(12.99527,123.78356) scale(0.66931,0.66931)" font-size="22" xml:space="preserve" fill="#a1f3f9" fill-rule="nonzero" stroke="none" stroke-width="1" stroke-linecap="butt" stroke-linejoin="miter" stroke-miterlimit="10" stroke-dasharray="" stroke-dashoffset="0" font-family="&quot;Microsoft YaHei&quot;, &quot;微软雅黑&quot;, STXihei, &quot;华文细黑&quot;" font-weight="400" text-anchor="start" style="mix-blend-mode: normal"><tspan x="0" dy="0">Throughout your adventure, you can find several</tspan><tspan x="0" dy="24.86px">power-ups to enhance your abilities.</tspan><tspan x="0" dy="24.86px"> </tspan><tspan x="0" dy="24.86px">When you collect a power-up, you will see an</tspan><tspan x="0" dy="24.86px">icon on the screen! </tspan><tspan x="0" dy="24.86px"> </tspan><tspan x="0" dy="24.86px">Press or tap X to use the powerup!</tspan><tspan x="0" dy="24.86px"> </tspan><tspan x="0" dy="24.86px"> </tspan><tspan x="0" dy="24.86px"> </tspan><tspan x="0" dy="24.86px"> </tspan><tspan x="0" dy="24.86px"> </tspan><tspan x="0" dy="24.86px"> </tspan><tspan x="0" dy="24.86px">There will be many power-ups in the worlds you visit.</tspan></text><g stroke="none" stroke-linecap="butt"><g><g><g><path d="M432.96461,19.00245l-385.24561,-0.13533z" data-paper-data="{&quot;index&quot;:null,&quot;origRot&quot;:0}" fill="url(#color-3)" stroke-width="1.89892"/><path d="M516.04943,15.38856h-84.3175z" data-paper-data="{&quot;index&quot;:null}" fill="url(#color-4)" stroke-width="0"/></g></g></g><path d="M48.26806,15.38856h-84.3175z" data-paper-data="{&quot;index&quot;:null}" fill="url(#color-5)" stroke-width="0"/><text transform="translate(14.00365,61.0802) scale(0.50924,0.50924)" font-size="22" xml:space="preserve" fill="#a1f4fa" fill-rule="nonzero" stroke="none" stroke-width="1" stroke-linecap="butt" stroke-linejoin="miter" stroke-miterlimit="10" stroke-dasharray="" stroke-dashoffset="0" font-family="&quot;Microsoft YaHei&quot;, &quot;微软雅黑&quot;, STXihei, &quot;华文细黑&quot;" font-weight="400" text-anchor="start" style="mix-blend-mode: normal"><tspan x="0" dy="0">Page 3</tspan></text><text transform="translate(12.54471,87.21422) scale(1.03413,1.03413)" font-size="22" xml:space="preserve" fill="#a1f3f9" fill-rule="nonzero" stroke="none" stroke-width="1" stroke-linecap="butt" stroke-linejoin="miter" stroke-miterlimit="10" stroke-dasharray="" stroke-dashoffset="0" font-family="&quot;Microsoft YaHei&quot;, &quot;微软雅黑&quot;, STXihei, &quot;华文细黑&quot;" font-weight="400" text-anchor="start" style="mix-blend-mode: normal"><tspan x="0" dy="0">Power-ups!</tspan></text><text transform="translate(282.69408,31.82308) scale(0.63022,0.63021)" font-size="22" xml:space="preserve" fill="#a1f3f9" fill-rule="nonzero" stroke="none" stroke-width="1" stroke-linecap="butt" stroke-linejoin="miter" stroke-miterlimit="10" stroke-dasharray="" stroke-dashoffset="0" font-family="Sans Serif" font-weight="400" text-anchor="start" style="mix-blend-mode: normal"><tspan x="0" dy="0">Use the arrow keys</tspan><tspan x="0" dy="24.86px">or tap to navigate</tspan></text><path d="M31.18761,13.16804c6.80525,1.71922 10.42277,2.74001 10.85258,3.06237c-2.41766,5.78446 -3.71602,8.74832 -3.89511,8.89159c-0.44772,0 -3.35786,-1.02078 -8.73042,-3.06236c-3.11609,2.90118 -4.67413,4.52191 -4.67413,4.86217c-0.23281,5.37257 -0.34922,8.49761 -0.34922,9.37513c3.72498,1.71922 5.93668,2.68628 6.63512,2.90118c3.47426,-1.50432 5.47106,-2.41765 5.99041,-2.74001l-0.96706,-3.08922c-0.64471,0.35817 -2.58779,1.17301 -5.82923,2.44452l-0.16118,-0.32236v-1.31627c0,-1.12824 -0.05373,-2.84746 -0.16118,-5.15767c0.8417,-0.21491 5.74865,-0.75216 14.72083,-1.61177c0.21491,1.11033 0.59098,5.84714 1.12824,14.21043c-0.28654,0.32236 -5.67701,2.48034 -16.17142,6.47394c-8.93636,-3.25935 -13.46722,-5.09499 -13.59258,-5.50688c-2.79373,-9.70643 -4.1906,-14.81932 -4.1906,-15.33867c3.67126,-6.60825 5.77551,-10.17205 6.31276,-10.6914c0.44771,-0.21491 4.80845,-1.34314 13.0822,-3.38472z" fill="#ffffff" stroke-width="0.26459"/><path d="M62.9126,21.25376l0.18803,0.34922l-3.62648,19.23378h0.18803l9.24081,-2.71315v-10.87944c0.03583,-0.25072 0.15223,-0.37608 0.34922,-0.37608c6.94852,0.48353 10.81676,0.7253 11.60474,0.7253c0,0.12537 0.06268,0.18805 0.18805,0.18805c0,3.06236 -0.96706,9.41094 -2.90118,19.04574c0,0.55517 -2.77583,0.97601 -8.32748,1.26255c-0.28654,-0.34026 -0.5283,-1.06556 -0.72529,-2.17589c-7.10969,1.4506 -11.16598,2.17589 -12.16886,2.17589c-5.67701,-4.22642 -8.51552,-6.4023 -8.51552,-6.52766c0.96706,-12.69716 1.57595,-19.28751 1.82667,-19.77104h0.16119c4.53086,-0.12535 8.70356,-0.30444 12.51808,-0.53726z" fill="#ffffff" stroke-width="0.26459"/><path d="M87.43836,10.48175l10.55709,1.6655c-1.32523,5.06812 -2.1938,7.60218 -2.60569,7.60218c-5.55165,-0.37608 -8.32747,-0.74321 -8.32747,-1.10138v-7.79021c0.05372,-0.25072 0.17907,-0.37608 0.37608,-0.37608zM84.48345,23.26846h0.16118c8.1663,1.48641 12.24944,2.35497 12.24944,2.60569c-2.34602,13.28814 -3.76975,20.69333 -4.27119,22.21556h-8.51551c-0.25072,0 -0.37608,-0.12536 -0.37608,-0.37608z" fill="#ffffff" stroke-width="0.26459"/><path d="M115.0802,13.11432h0.16119c8.09467,0.68052 12.14199,1.20883 12.14199,1.58491l3.57276,31.61754c0,0.23281 -3.57276,0.82379 -10.71827,1.77295l-0.16119,-0.34922v-2.87432c-6.16054,1.6655 -10.38695,2.74001 -12.67925,3.22354c-5.4442,-7.70068 -8.30061,-11.80173 -8.56924,-12.30317c4.01152,-7.28878 6.15158,-10.97794 6.42021,-11.06749l11.25552,0.53725c-0.23281,-1.37896 -0.70738,-5.42629 -1.42373,-12.14199zM110.08371,32.37492c1.80876,5.53374 2.937,8.56924 3.38472,9.1065l5.34571,-4.64727c-0.55517,-3.20563 -0.96706,-4.80845 -1.23569,-4.80845h-7.14552c-0.23281,0.03583 -0.34922,0.15223 -0.34922,0.34922z" fill="#ffffff" stroke-width="0.26459"/><path d="M149.00794,21.2806c8.11257,4.17269 12.60762,6.60825 13.48514,7.30669c-1.16405,5.4442 -1.85354,8.24689 -2.06844,8.40806h-16.9773v0.29549l4.75472,5.88296l7.46786,-3.81452c0.73425,1.2715 1.79085,3.49217 3.16982,6.66199c-0.64471,0.2149 -5.3457,0.90438 -14.10298,2.06844c-7.25296,-4.78158 -10.90631,-7.27087 -10.96004,-7.46787c1.16405,-9.29453 1.85354,-13.9418 2.06844,-13.9418c7.57531,-3.22354 11.96291,-5.02334 13.16278,-5.39943zM147.26186,27.78143c-0.14327,0.35817 -1.09242,1.78189 -2.84746,4.27118c0,0.75216 1.0566,1.12824 3.16982,1.12824c0,0.10746 1.53118,0.36713 4.59354,0.77902c0.8417,-1.16405 1.26255,-1.84458 1.26255,-2.04157c-0.26863,-1.59386 -0.85065,-2.39079 -1.74608,-2.39079z" fill="#ffffff" stroke-width="0.26459"/></g><g data-paper-data="{&quot;index&quot;:null}"><g data-paper-data="{&quot;origPos&quot;:null,&quot;index&quot;:null,&quot;origRot&quot;:0}" stroke="none" stroke-width="0" stroke-linecap="butt"><path d="M437.5226,256.4937c3.34131,4.13434 1.39624,10.43363 -6.17442,16.55215c-6.08916,4.92118 -19.09881,13.04031 -19.09881,13.04031l-9.88467,-12.52184c0,0 6.2827,-6.94667 13.85336,-13.06519c7.57067,-6.11851 17.96323,-8.13974 21.30455,-4.00541z" data-paper-data="{&quot;origRot&quot;:0,&quot;origPos&quot;:null}" fill="#ff0021"/><g data-paper-data="{&quot;origPos&quot;:null}" fill="#ffffff"><path d="M404.24419,303.98943c-7.84914,7.86844 -13.68993,0.65622 -21.44359,-6.04068c-7.10544,-6.13703 -4.89731,-20.06595 0.6293,-24.64903c7.61805,-6.31747 14.91785,2.73378 20.47858,10.29875c5.56072,7.56498 7.66472,13.04392 0.33571,20.39096z" data-paper-data="{&quot;origRot&quot;:0,&quot;origPos&quot;:null}"/><path d="M414.12038,292.58168c-5.38407,4.23204 -4.70727,1.0956 -12.98217,-9.5689c-7.26387,-9.36151 -8.68219,-10.65963 -3.96898,-14.75011c4.21313,-3.65647 7.98212,3.83972 12.28301,9.67466c4.30088,5.83496 7.81207,12.17313 4.66814,14.64435z" data-paper-data="{&quot;origRot&quot;:0,&quot;origPos&quot;:null}"/></g></g><g data-paper-data="{&quot;origPos&quot;:null,&quot;origRot&quot;:0}" stroke="none" stroke-width="0" stroke-linecap="butt"><path d="M469.40397,312.5607c-10.03642,-3.29173 -25.07329,-5.43444 -25.07329,-5.43444c0,0 -0.71941,-5.55766 0.65255,-10.58002c1.44067,-5.06278 3.60647,-10.00268 3.60647,-10.00268c0,0 12.85078,-0.32188 19.54966,0.82858c5.35798,0.92018 8.07595,1.10564 10.23375,0.95039c6.01347,-0.43264 9.74553,-4.1638 11.3461,1.64887c2.35003,8.53441 1.16296,15.14226 -3.37929,22.74006c-3.66689,6.13358 -6.99988,7.27887 -11.17372,6.83136c-1.0316,-0.11061 -1.4205,-5.55812 -5.76223,-6.98211z" data-paper-data="{&quot;origPos&quot;:null}" fill="#004bd6"/><path d="M488.98533,325.23461c-3.68054,-0.98771 -5.08602,-7.66925 -3.13923,-14.92365c1.41814,-5.28447 4.37334,-16.32035 8.11846,-20.3092c0.87005,-0.92668 2.76437,-0.38819 3.88421,-0.09955c1.4107,0.3636 -0.62833,5.03136 -0.62833,5.03136c0,0 1.9762,2.07796 2.54035,4.13501c1.81712,6.62589 -0.94176,18.25532 -2.23483,20.45879c-1.97313,3.3623 -4.77538,6.71769 -8.54065,5.70724z" data-paper-data="{&quot;origPos&quot;:null}" fill="#f9c869"/><path d="M474.76341,309.46916c1.02357,-3.81413 6.25016,-9.09166 8.04856,-12.60748c2.77767,-5.43025 1.95798,-4.75846 3.76118,-8.9973c0.48844,-1.14821 5.6176,0.28911 8.70374,1.38383c1.49108,0.52892 -0.41484,6.38238 -0.41484,6.38238c0,0 2.40233,10.04971 0.20145,18.25091c-2.20088,8.2012 -6.53491,11.76682 -11.2964,11.9039c-7.83986,0.22571 -11.20457,-8.11504 -9.00369,-16.31624z" data-paper-data="{&quot;origPos&quot;:null}" fill="url(#color-6)"/></g><g data-paper-data="{&quot;origPos&quot;:null,&quot;origRot&quot;:0}" stroke="none" stroke-width="0" stroke-linecap="butt"><path d="M484.74937,298.22416c-10.31845,-2.25722 -23.22028,0.29005 -23.22028,0.29005c0,0 -1.57283,-6.76996 -1.65739,-10.79158c-0.10715,-5.0959 1.16615,-12.57092 1.16615,-12.57092c0,0 13.11866,-2.32346 19.89966,-1.8581c5.42366,0.37221 8.14643,0.28116 10.27737,-0.09206c5.93862,-1.04008 9.27316,-5.1304 11.45481,0.49005c3.20318,8.25216 2.69217,14.94632 -1.05637,22.96549c-3.02613,6.47374 -6.22584,7.95104 -10.42354,7.92901c-1.03749,-0.00544 -1.97669,-5.38545 -6.44042,-6.36192z" data-paper-data="{&quot;origPos&quot;:null}" fill="#004bd6"/><path d="M505.51477,308.84753c-3.76172,-0.60947 -5.83737,-7.11408 -4.6361,-14.52848c0.87507,-5.40102 2.69616,-16.67965 6.01757,-21.02764c0.77161,-1.01011 2.71077,-0.66645 3.8541,-0.49284c1.4403,0.2187 -0.11498,5.06914 -0.11498,5.06914c0,0 2.17669,1.8669 2.94648,3.85615c2.47953,6.40752 0.91393,18.25672 -0.14908,20.57994c-1.62207,3.545 -4.06969,7.16722 -7.91801,6.54372z" data-paper-data="{&quot;origPos&quot;:null}" fill="#f9c869"/><path d="M500.37928,309.92454c-7.77658,1.01939 -11.96958,-6.93724 -10.61153,-15.31932c0.63159,-3.89826 5.29619,-9.67849 6.72887,-13.35853c2.2128,-5.68388 1.46545,-4.93245 2.8296,-9.33227c0.36952,-1.19182 5.61796,-0.28192 8.79919,0.49427c1.53703,0.37501 0.23439,6.39155 0.23439,6.39155c0,0 3.40884,9.75436 2.05079,18.13644c-1.35805,8.38208 -5.30827,12.36873 -10.03131,12.98785z" data-paper-data="{&quot;origPos&quot;:null}" fill="url(#color-7)"/></g><g data-paper-data="{&quot;origPos&quot;:null,&quot;origRot&quot;:0}"><path d="M422.0186,297.17931c-13.28781,-15.94813 -9.25507,-21.87628 2.23159,-31.81242c6.21176,-5.37327 11.51826,-13.19506 19.72934,-13.38578c11.02115,-0.25599 17.75959,5.51857 24.97176,13.85618c6.64818,7.68562 3.75215,23.46307 -7.73451,33.39921c-11.48666,9.93614 -25.6423,14.21269 -39.19819,-2.0572z" data-paper-data="{&quot;origPos&quot;:null}" fill="url(#color-8)" stroke="none" stroke-width="0" stroke-linecap="butt"/><path d="M421.62607,296.72554c0,0 -9.92252,-7.98288 -7.89498,-19.33451c0.85836,-4.80571 5.5377,-11.9209 11.35478,-16.71365c5.81708,-4.79276 11.00485,-7.76053 17.24533,-8.51799c9.53806,-1.15771 17.81733,9.92139 17.81733,9.92139c0,0 -6.044,10.2088 -14.71693,17.22591c-9.45546,7.65024 -23.80554,17.41885 -23.80554,17.41885z" data-paper-data="{&quot;origPos&quot;:null}" fill="#ff0021" stroke="none" stroke-width="0" stroke-linecap="butt"/><path d="M433.93191,292.76188c0,0 -7.35165,-6.76467 -10.38827,-11.12283c-2.36418,-3.39309 -5.2205,-9.96666 -5.2205,-9.96666" data-paper-data="{&quot;origPos&quot;:null,&quot;origRot&quot;:0}" fill="none" stroke="#0052ef" stroke-width="10" stroke-linecap="round"/><path d="M453.12177,276.88567c0,0 -8.16301,-5.7596 -11.73654,-9.68955c-2.7822,-3.0597 -6.46278,-9.20979 -6.46278,-9.20979" data-paper-data="{&quot;origPos&quot;:null}" fill="none" stroke="#0052ef" stroke-width="10" stroke-linecap="round"/><path d="M454.45019,273.22434c1.48139,1.71256 1.29398,4.30176 -0.41857,5.78314c-1.71256,1.48139 -4.30176,1.29398 -5.78314,-0.41857c-1.48138,-1.71255 -1.29398,-4.30177 0.41857,-5.78315c1.71256,-1.48139 4.30177,-1.29398 5.78315,0.41857z" data-paper-data="{&quot;origPos&quot;:null}" fill="#ffe84f" stroke="none" stroke-width="0" stroke-linecap="butt"/><path d="M435.69379,289.4489c1.48139,1.71256 1.29399,4.30177 -0.41856,5.78315c-1.71255,1.48139 -4.30177,1.29398 -5.78315,-0.41857c-1.48138,-1.71255 -1.29398,-4.30176 0.41857,-5.78314c1.71256,-1.48139 4.30176,-1.29398 5.78314,0.41857z" data-paper-data="{&quot;origPos&quot;:null}" fill="#ffe84f" stroke="none" stroke-width="0" stroke-linecap="butt"/></g><g data-paper-data="{&quot;origPos&quot;:null,&quot;origRot&quot;:0}" stroke="none" stroke-width="0" stroke-linecap="butt"><path d="M441.69442,257.94147c7.58021,-6.10669 14.14828,-6.67663 17.48314,-2.53709c3.33487,4.13954 -0.83693,13.87026 -8.41714,19.97695c-7.5802,6.10668 -15.69769,10.77947 -15.69769,10.77947l-10.15016,-12.30762c0,0 10.68503,-11.00005 16.78187,-15.91173z" data-paper-data="{&quot;origRot&quot;:0,&quot;origPos&quot;:null}" fill="#ff0021"/><g data-paper-data="{&quot;origPos&quot;:null}" fill="#ffffff"><path d="M405.72194,277.89418c8.72991,-5.61088 13.64049,-2.39655 19.85949,4.63725c6.219,7.0338 13.5232,16.0815 5.73852,22.19246c-5.6475,4.43327 -19.72848,3.64801 -24.22534,-4.59387c-4.90711,-8.99378 -10.72215,-16.22678 -1.37268,-22.23585z" data-paper-data="{&quot;origRot&quot;:0,&quot;origPos&quot;:null}"/><path d="M418.95915,270.65175c3.07979,-2.55069 8.53284,2.22061 13.32712,7.65743c4.79428,5.43682 11.32468,10.70485 6.86045,14.05012c-4.99412,3.74235 -5.96319,2.08173 -13.57824,-6.99642c-8.67495,-10.34169 -11.88359,-10.34298 -6.60933,-14.71112z" data-paper-data="{&quot;origRot&quot;:0,&quot;origPos&quot;:null}"/></g></g><g data-paper-data="{&quot;origRot&quot;:0,&quot;origPos&quot;:null}"><path d="M366.73966,238.24189c-1.31066,-2.10857 -3.89008,-3.38545 2.70163,-6.23106c6.59171,-2.84561 19.19458,-9.1522 20.63927,-5.80564c1.44469,3.34656 5.75589,8.84291 -0.83582,11.68852c-8.18033,3.53141 -20.48024,3.60573 -22.50509,0.34819z" data-paper-data="{&quot;origPos&quot;:null}" fill="url(#color-9)" stroke="none" stroke-width="0" stroke-linecap="butt"/><path d="M450.19707,246.77563c0,0 -0.04421,2.01819 -2.30788,3.12494c-4.17793,2.04268 -6.33769,1.53531 -6.33769,1.53531c-1.67751,-0.73169 -2.18867,-9.61296 -2.18867,-9.61296c-0.6344,-2.87796 5.60124,-6.68268 5.60124,-6.68268c1.18662,-2.00228 2.81902,3.91298 6.52852,4.27984c3.10133,0.30671 3.10267,3.7518 1.91606,5.75408c-1.18661,2.0023 -3.21159,1.60148 -3.21159,1.60148z" data-paper-data="{&quot;origRot&quot;:0,&quot;origPos&quot;:null}" fill="#5a2c0a" stroke="none" stroke-width="0" stroke-linecap="butt"/><path d="M430.45822,213.22194c1.23837,-0.916 3.13477,-5.2303 8.45884,-7.52867c5.32407,-2.29838 11.32454,2.26348 14.53497,9.70028c3.21042,7.4368 1.37155,17.56127 -8.14957,21.67148c-0.1786,0.0771 -0.92668,1.2562 -1.23628,2.99481c-1.00999,5.67179 2.3025,8.95029 -0.15681,13.32609c-3.8731,6.89133 -6.86424,10.87201 -20.98946,16.62816c-9.99266,4.07209 -14.85248,4.75641 -16.93907,4.20193c-3.67815,-0.97742 -7.16411,-1.50514 -9.7983,-4.25199c-6.83219,-7.12439 -2.30462,-13.96285 -5.56841,-23.27863c-2.83861,-8.10219 -8.08088,-14.2665 -0.39988,-18.10126c5.19167,-2.59196 36.68246,-12.72779 40.24397,-15.36221z" data-paper-data="{&quot;origPos&quot;:null}" fill="#ffdebd" stroke="none" stroke-width="0" stroke-linecap="butt"/><path d="M388.28443,237.09897c-1.61416,-4.62812 -0.5976,-9.19087 2.27053,-10.19119c2.86813,-1.00031 6.50174,1.94059 8.11589,6.56871c1.61415,4.62811 0.59761,9.19086 -2.27052,10.19118c-2.86813,1.00032 -6.50174,-1.94059 -8.11589,-6.56871z" data-paper-data="{&quot;origPos&quot;:null,&quot;origRot&quot;:0}" fill="#ffffff" stroke="none" stroke-width="0" stroke-linecap="butt"/><path d="M424.00152,224.53062c-1.75114,-4.05643 -7.64397,-7.0631 3.19294,-11.27454c2.5739,-1.00027 4.25489,2.93576 6.00603,6.9922c1.75114,4.05644 3.14054,9.65371 0.44723,10.26327c-3.62566,0.82057 -3.71561,-0.85688 -3.71561,-0.85688c0,0 -0.55482,2.23964 -3.58627,2.10314c-2.60586,-0.11733 -1.31046,-4.83232 -2.34431,-7.22719z" data-paper-data="{&quot;origPos&quot;:null}" fill="#5a2c0a" stroke="none" stroke-width="0" stroke-linecap="butt"/><path d="M404.94933,226.45291c2.91004,-0.87087 6.40829,2.22983 7.81356,6.92559c1.40527,4.69576 0.18539,9.20842 -2.72466,10.07928c-2.91004,0.87087 -6.40829,-2.22983 -7.81356,-6.92559c-1.40527,-4.69576 -0.18539,-9.20842 2.72466,-10.07928z" data-paper-data="{&quot;origPos&quot;:null,&quot;origRot&quot;:0}" fill="#ffffff" stroke="none" stroke-width="0" stroke-linecap="butt"/><path d="M403.34293,232.07566c0.87404,-0.37732 1.9409,-0.08088 2.95941,0.70152c1.01759,0.7828 1.98722,2.05248 2.66536,3.62335c0.67814,1.57088 0.93716,3.14732 0.80896,4.42475c-0.12913,1.27783 -0.64507,2.25755 -1.51911,2.63487c-0.87404,0.37732 -1.9409,0.08088 -2.95941,-0.70152c-1.01758,-0.78279 -1.98722,-2.05247 -2.66536,-3.62334c-0.67814,-1.57087 -0.93716,-3.14732 -0.80896,-4.42475c0.12913,-1.27783 0.64507,-2.25755 1.51911,-2.63487z" data-paper-data="{&quot;origPos&quot;:null}" fill="#000000" stroke="none" stroke-width="1" stroke-linecap="butt"/><path d="M389.60423,233.05072c0.87404,-0.37732 1.9409,-0.08088 2.95941,0.70152c1.01759,0.7828 2.08239,2.24012 2.66536,3.62335c0.45136,1.0708 1.13864,2.47109 0.48163,3.38645c-0.75928,1.0216 -2.43704,0.89958 -3.69323,1.15867c-0.75801,0.05819 -1.60005,0.12107 -2.27218,-0.21724c-0.54069,-0.28614 -0.71371,-1.06539 -0.85113,-1.59314c-0.36952,-1.45142 -0.93716,-3.14732 -0.80896,-4.42475c0.12913,-1.27783 0.64507,-2.25755 1.51911,-2.63487z" data-paper-data="{&quot;origPos&quot;:null}" fill="#000000" stroke="none" stroke-width="1" stroke-linecap="round"/><path d="M368.97923,207.83903c-2.67355,-10.53537 6.17887,-17.35279 21.27772,-20.71502c11.72926,-2.61189 29.23077,9.67696 29.23077,9.67696c0.8601,-5.02265 7.72139,-9.43778 7.72139,-9.43778c6.71499,-2.89883 12.94476,-5.53017 17.77583,7.34283c2.19019,5.83606 0.47303,12.27088 -6.24196,15.1697c-3.28315,1.41732 -9.59287,7.90286 -13.16888,7.89838c-13.61909,-0.01708 -27.11039,7.3442 -40.61487,5.58095c-9.26817,-1.21011 -12.25708,-0.8455 -15.98001,-15.51602z" data-paper-data="{&quot;origPos&quot;:null}" fill="#ff0021" stroke="none" stroke-width="0" stroke-linecap="butt"/><path d="M375.01512,214.51918c-2.16704,-5.01984 1.09104,-11.25409 7.2771,-13.92458c6.18607,-2.67049 12.95759,-0.76596 15.12463,4.25388c2.16704,5.01985 3.26269,9.74123 -7.27709,13.92458c-9.98389,3.96272 -12.9576,0.76597 -15.12464,-4.25387z" data-paper-data="{&quot;origPos&quot;:null}" fill="#ffffff" stroke="none" stroke-width="0" stroke-linecap="butt"/><path d="M375.5147,221.23259c14.41669,-6.48682 35.95586,-9.9252 42.40145,-10.52932c5.33379,-0.49991 9.24022,3.33757 11.17679,5.95814c0.52387,0.70891 -9.20006,5.36931 -14.32041,6.94449c-10.53542,3.24104 -48.70857,13.57543 -49.23244,12.86652c-1.93657,-2.62058 4.08114,-12.58805 9.97461,-15.23983z" data-paper-data="{&quot;origPos&quot;:null}" fill="url(#color-10)" stroke="none" stroke-width="0" stroke-linecap="butt"/><path d="M392.25281,213.31042l-4.4025,-6.3383l-1.4203,5.72214l-4.34281,-3.21034l1.63478,7.61662l-4.23496,-0.57879l0.9001,-11.37005l4.60489,3.79528l1.68957,-7.19748l9.51442,9.85866z" data-paper-data="{&quot;origPos&quot;:null}" fill="#ff0021" stroke="none" stroke-width="0" stroke-linecap="butt"/><path d="M392.19538,272.32692c-2.35489,-0.22364 -3.9129,-4.21651 -3.9129,-4.21651c-1.05072,-1.25456 -2.27249,-4.10916 -0.95099,-4.78648c2.66456,-1.3657 13.30188,-1.04435 13.30188,-1.04435c5.61714,-2.05445 15.68463,-10.98339 15.68463,-10.98339c2.69163,-3.40966 2.31471,-8.02181 7.25822,-9.11964c0.8488,-0.1885 2.55163,2.51286 4.80192,7.72555c2.05211,4.75363 0.18636,9.58621 -4.63065,11.66569c-3.00198,1.29594 -6.20917,0.712 -6.34952,1.03439c-0.13284,0.30513 0.47114,1.81696 -1.53794,3.50998c-3.49575,2.94581 -9.32691,5.65294 -13.85187,6.30318c-1.48261,0.21305 -3.75632,-0.197 -5.10705,-2.38957c-0.3909,-0.63453 0.8624,2.82996 -4.70573,2.30115z" data-paper-data="{&quot;origPos&quot;:null}" fill="#38291e" stroke="none" stroke-width="0" stroke-linecap="butt"/><path d="M385.39532,257.56556c-4.9308,-9.40371 -2.07423,-13.94495 7.06199,-17.0721c6.2703,-2.14619 15.00976,1.96929 17.33549,7.35674c2.32574,5.38745 -1.88433,11.71611 -7.9224,14.44822c-13.10087,5.92787 -13.39303,1.14499 -16.47507,-4.73287z" data-paper-data="{&quot;origPos&quot;:null}" fill="#ffdebd" stroke="none" stroke-width="0" stroke-linecap="butt"/><g data-paper-data="{&quot;origPos&quot;:null}" fill="none" stroke="#f6b09a" stroke-width="3.5" stroke-linecap="round"><path d="M442.61053,229.06972c0,0 -5.7734,-5.31794 -2.44601,-11.33042c2.32009,-4.19232 5.72638,-3.77852 5.72638,-3.77852" data-paper-data="{&quot;origPos&quot;:null}"/><path d="M446.06005,221.20098l-5.50862,2.37804" data-paper-data="{&quot;origPos&quot;:null}"/><path d="M444.63453,228.35158l-1.18042,0.50958" data-paper-data="{&quot;origPos&quot;:null}"/></g><path d="M406.84643,222.94024c-1.5125,0.14082 -3.90314,3.37652 -3.90314,3.37652c0,0 -6.16066,-7.11259 2.71708,-10.59555c2.84022,-0.53007 5.01509,2.00157 5.73964,3.67996c1.06711,2.4719 1.16576,6.37991 1.16576,6.37991c0,0 -2.00745,-0.97246 -3.1596,-1.90309c-1.11682,-0.90209 -1.13406,-1.10636 -2.55975,-0.93776z" data-paper-data="{&quot;origPos&quot;:null}" fill="#38291e" stroke="none" stroke-width="0" stroke-linecap="butt"/><path d="M389.88707,227.20512c-1.36097,0.45695 -1.28924,0.64899 -1.91333,1.94187c-0.64383,1.33379 -2.04304,3.07097 -2.04304,3.07097c0,0 -1.58116,-3.57523 -1.67297,-6.26605c-0.06234,-1.82703 0.82179,-5.04536 3.61607,-5.78011c9.51464,-0.64572 6.98511,8.41763 6.98511,8.41763c0,0 -3.54427,-1.90345 -4.97183,-1.38429z" data-paper-data="{&quot;origPos&quot;:null,&quot;index&quot;:null,&quot;origRot&quot;:0}" fill="#38291e" stroke="none" stroke-width="0" stroke-linecap="butt"/></g></g><g><path d="M49.82843,274.27636h6.30391v33.70481h-6.30391z" fill="#61b120" stroke="none" stroke-width="0.97987" stroke-linecap="butt"/><g data-paper-data="{&quot;index&quot;:null}"><path d="M52.73475,307.90396c0,0 5.02731,-11.44647 13.4853,-15.32305c8.45798,-3.87658 17.14377,1.28471 17.14377,1.28471c0,0 -6.01424,10.91045 -14.47222,14.78703c-8.45798,3.87658 -16.15683,-0.7487 -16.15683,-0.7487z" fill="#61b120" stroke="none" stroke-width="0" stroke-linecap="butt"/><path d="M57.72789,305.24522c0,0 4.44822,-5.4258 10.83277,-8.02937c5.57772,-2.27456 9.60762,-2.07851 9.60762,-2.07851" fill="none" stroke="#448618" stroke-width="1.5" stroke-linecap="round"/></g><g stroke="none" stroke-width="0" stroke-linecap="butt"><path d="M83.8288,264.55419c0,11.53702 -9.77583,20.81335 -30.82903,20.88962c-20.29188,0.07352 -30.82903,-9.3526 -30.82903,-20.88962c0,-11.53702 11.88441,-20.85843 30.82903,-20.88962c21.24866,-0.03499 30.82903,9.3526 30.82903,20.88962z" fill="#ff401c"/><path d="M77.85442,264.89109c0,9.24202 -8.3344,16.2006 -24.85467,16.35038c-15.75026,0.14281 -24.85467,-7.10836 -24.85467,-16.35038c0,-9.24202 9.29379,-16.5078 24.85467,-16.54228c17.09402,-0.03787 24.85467,7.30025 24.85467,16.54228z" fill="#ffc51c"/><path d="M71.9475,264.66646c0,6.38878 -5.88132,11.39078 -18.94775,11.37603c-12.48813,-0.01412 -18.94775,-4.98725 -18.94775,-11.37603c0,-6.38878 5.4989,-11.37603 18.94775,-11.37603c13.25695,0 18.94775,4.98725 18.94775,11.37603z" fill="#ffffff"/></g><g stroke="none" stroke-width="0" stroke-linecap="butt"><path d="M59.12943,258.21298c1.99128,0 2.64606,1.98901 2.64606,6.66078c0,4.50624 -0.83139,6.66078 -2.64606,6.66078c-1.81464,0 -2.64606,-2.32007 -2.64606,-6.66078c0,-4.67177 0.65479,-6.66078 2.64606,-6.66078z" fill="#000000"/><path d="M57.89209,261.30312c0,-1.52934 0.5216,-1.85673 1.16502,-1.85673c0.64342,0 1.1963,0.3561 1.16501,1.88513c-0.02839,1.38738 -0.21072,1.96331 -1.16501,1.96331c-1.01108,0 -1.16502,-0.68949 -1.16502,-1.99167z" fill="#ffffff"/></g><g stroke="none" stroke-width="0" stroke-linecap="butt"><path d="M46.87009,258.24768c1.99128,0 2.64604,1.98901 2.64604,6.66078c0,4.50624 -0.83138,6.66078 -2.64604,6.66078c-1.81466,0 -2.64606,-2.32007 -2.64606,-6.66078c0,-4.67177 0.65479,-6.66078 2.64606,-6.66078z" fill="#000000"/><path d="M45.83195,261.33782c0,-1.52933 0.5216,-1.85673 1.16502,-1.85673c0.64342,0 1.1963,0.3561 1.16501,1.88513c-0.02839,1.38738 -0.21072,1.96331 -1.16501,1.96331c-1.01108,0 -1.16502,-0.68949 -1.16502,-1.99169z" fill="#ffffff"/></g><g><path d="M53.26477,308.1286c0,0 -7.69885,4.62528 -16.15683,0.7487c-8.45798,-3.87658 -14.47222,-14.78703 -14.47222,-14.78703c0,0 8.68579,-5.16129 17.14377,-1.28471c8.45798,3.87658 13.4853,15.32305 13.4853,15.32305z" fill="#61b120" stroke="none" stroke-width="0" stroke-linecap="butt"/><path d="M27.83125,295.36197c0,0 4.0299,-0.19605 9.60762,2.0785c6.38455,2.60358 10.83277,8.02938 10.83277,8.02938" fill="none" stroke="#448618" stroke-width="1.5" stroke-linecap="round"/></g></g><g><path d="M315.31857,281.6591l1.82875,-2.01386l6.79816,-3.65856l8.76388,-3.0454l10.92541,-2.47291l3.17383,-0.45478l4.12725,1.18565l2.68266,2.09841l0.90955,6.34766l-1.63293,1.97321l-3.89399,3.87258l-3.48415,0.92774l-17.77921,3.89609l-3.5323,-0.28786l-4.12725,-1.18565l-1.97321,-1.63292l-1.78487,-2.69337z" data-paper-data="{&quot;index&quot;:null}" fill="#5a2c0a" stroke="#000000" stroke-width="0" stroke-linecap="round"/><path d="M322.89906,267.30628c7.80939,9.12722 6.82613,22.78429 -2.19618,30.50392c-9.02231,7.71963 -22.6671,6.57855 -30.4765,-2.54866c-7.80939,-9.12722 -6.82613,-22.78429 2.19618,-30.50392c9.02231,-7.71963 22.6671,-6.57855 30.4765,2.54866z" data-paper-data="{&quot;origPos&quot;:null}" fill="#fcdda0" stroke="none" stroke-width="0" stroke-linecap="butt"/><path d="M309.69736,292.02881l2.09511,2.45978l1.02392,2.34768l-0.00132,4.29418l-0.69968,3.47425l-8.65849,16.0097l-1.85462,3.09199l-4.79801,2.67191l-2.34768,1.02392l-5.84896,-2.62861l-1.27518,-3.15815l0.00132,-4.29418l1.31431,-2.92448l5.39636,-9.81628l5.3491,-7.58071l5.39504,-5.52209l2.44088,-1.20088z" fill="#5a2c0a" stroke="#000000" stroke-width="0" stroke-linecap="round"/><g><path d="M277.50146,235.25601c2.05141,-1.13323 3.03909,-1.29779 4.22051,-1.37379c1.18142,-0.076 2.06089,-0.09211 3.36235,0.08431c1.30146,0.17642 5.51734,0.62041 8.91988,1.5806c3.40253,0.9602 4.47697,2.26397 7.56275,3.07081c3.08577,0.80684 5.97993,0.91008 9.81481,1.47293c3.83488,0.56285 3.51452,0.08998 5.61238,0.79132c2.09786,0.70134 2.60738,1.28662 4.06529,2.44405c1.45792,1.15743 2.07075,1.83787 3.11551,3.2567c1.04475,1.41883 2.33308,2.83348 2.97837,5.01914c0.64529,2.18567 0.4386,3.06435 -0.03149,4.96226c-0.47009,1.89791 -0.94437,2.27368 -2.03671,3.38775c-1.09234,1.11406 -4.55335,4.57539 -7.97821,6.82628c-3.42486,2.2509 -3.21644,1.07358 -5.28935,1.89348c-2.07291,0.8199 -1.70296,0.52711 -2.57712,1.21796c-0.87417,0.69086 -7.94046,6.2175 -12.53719,10.72702c-4.59673,4.50952 -1.93554,2.73148 -3.20388,4.71542c-1.26834,1.98394 -0.61718,1.75312 -1.43941,2.54767c-0.82222,0.79454 -5.90712,6.07908 -10.44766,8.93918c-4.54054,2.8601 -3.6219,1.67507 -5.99433,1.83863c-2.37242,0.16356 -3.0272,-0.15569 -4.87998,-1.08895c-1.85278,-0.93326 -3.18186,-2.86759 -5.12073,-4.83122c-1.93886,-1.96363 -1.70044,-1.41742 -2.27543,-2.6594c-0.57499,-1.24199 -1.01528,-2.92553 -1.21593,-4.88201c-0.20065,-1.95648 -0.10143,-4.21682 0.00609,-6.91466c0.10752,-2.69783 0.8239,-15.72136 1.29718,-25.78648c0.0655,-1.39304 1.01604,-2.8632 1.0188,-3.57711c0.00275,-0.71391 0.27494,-1.88074 1.45471,-3.14556c1.19481,-1.28094 1.96815,-3.24527 5.26598,-6.15077c3.29783,-2.9055 4.28139,-3.23234 6.33279,-4.36557z" data-paper-data="{&quot;origPos&quot;:null}" fill="#8e4108" stroke="#000000" stroke-width="0" stroke-linecap="butt"/><path d="M287.81831,269.13568c-2.04785,1.75217 -3.83663,4.74534 -6.49106,4.71897c-2.65444,-0.02636 -4.86932,-2.67333 -6.92936,-5.081c-3.59052,-4.19642 -3.99256,-9.74475 -0.89796,-12.39254c3.0946,-2.64779 8.51397,-1.39237 12.1045,2.80405c3.59052,4.19642 5.30849,7.30273 2.21389,9.95052z" data-paper-data="{&quot;origPos&quot;:null}" fill="#ffffff" stroke="#ffffff" stroke-width="0" stroke-linecap="butt"/><path d="M299.85124,246.99536c3.59052,4.19642 5.35437,7.26348 2.52139,9.68742c-1.87472,1.60404 -3.45119,4.41555 -5.97717,4.27927c-2.52597,-0.13628 -4.7433,-2.78115 -6.80334,-5.18883c-3.59052,-4.19642 -4.20465,-9.56328 -1.37167,-11.98723c2.83298,-2.42394 8.04026,-0.98705 11.63078,3.20937c3.59052,4.19642 -3.59051,-4.19642 0.00001,-0.00001z" data-paper-data="{&quot;origPos&quot;:null}" fill="#ffffff" stroke="#ffffff" stroke-width="0" stroke-linecap="butt"/><path d="M280.75188,257.74372c-1.70299,0.05622 -3.38173,-1.74572 -5.72006,-1.68625c-2.33832,0.05947 -2.84764,1.00709 -4.58437,1.94834c-1.73673,0.94125 -3.023,1.84027 -4.85661,3.16833c-1.83361,1.32806 -1.71362,1.28705 -2.6594,2.27543c-0.94579,0.98837 -1.79868,1.7711 -2.55173,3.17036c-0.75305,1.39926 0.31872,4.28026 -1.38659,4.14758c-1.70531,-0.13269 -1.47506,-2.44277 -1.78581,-4.39442c-0.31074,-1.95165 -0.00534,-2.81531 0.35655,-4.58234c0.36189,-1.76703 0.43738,-2.51596 1.35916,-3.79509c0.92178,-1.27913 2.36862,-2.62994 4.20649,-3.92816c1.83787,-1.29822 2.65092,-1.83168 4.6118,-2.30082c1.96088,-0.46915 4.40577,0.10314 7.13204,-0.50893c2.72627,-0.61207 4.6102,-0.9205 6.94411,-2.65128c2.33392,-1.73078 1.36819,-2.09061 1.71165,-3.76766c0.34346,-1.67705 0.01488,-4.55791 0.57596,-7.40225c0.56109,-2.84434 0.87142,-2.80946 1.7665,-4.47264c0.89508,-1.66318 1.16294,-1.87157 2.17181,-2.8453c1.00888,-0.97373 3.77345,-4.13525 6.83847,-5.8511c3.06501,-1.71585 3.21654,-1.20815 5.39703,-0.99855c2.18048,0.2096 4.98674,0.21229 4.28268,1.92903c-0.70407,1.71674 -5.34867,4.78985 -8.44041,8.20881c-3.09173,3.41896 -2.20461,2.871 -3.39384,4.87795c-1.18923,2.00694 -2.06487,3.41612 -2.93367,5.80031c-0.8688,2.38419 -0.44665,2.8912 -0.89899,4.71745c-0.45234,1.82625 -0.38902,2.36291 -1.1692,3.63256c-0.78018,1.26964 -1.68458,2.23242 -3.09417,3.30547c-1.40959,1.07305 -2.17641,1.94697 -3.8794,2.00319z" data-paper-data="{&quot;origPos&quot;:null}" fill="#000000" stroke="#000000" stroke-width="0" stroke-linecap="round"/><g data-paper-data="{&quot;origPos&quot;:null}" stroke="none" stroke-linecap="butt"><path d="M283.36941,254.40747c-2.03146,-0.5607 -4.84071,-2.93198 -5.20098,-6.07864c-0.36027,-3.14666 1.8249,-4.13945 4.10308,-3.51066c2.27818,0.62879 4.83968,2.92297 5.20098,6.07864c0.3613,3.15567 -2.07162,4.07136 -4.10308,3.51066z" data-paper-data="{&quot;origPos&quot;:null}" fill="#8e4108" stroke-width="0"/><path d="M285.23682,243.06936c0.09739,0.13991 0.17455,0.27619 0.23422,0.40846c0.05967,0.13227 -0.63777,-0.89538 0.03402,-0.11023c0.67179,0.78515 1.34359,1.57032 2.01538,2.35547c0.67179,0.78515 2.72515,9.64488 -2.9166,11.05004c-3.68817,0.91859 -7.17097,-4.38181 -9.1269,-6.66781c-1.95593,-2.28599 -1.30024,-1.51966 0.21941,-2.8199c1.51966,-1.30024 1.60778,-1.19725 2.8199,0.21941c1.21212,1.41666 2.50816,3.65245 4.03076,4.71094c1.52259,1.0585 1.40204,0.50101 2.08337,0.5819c0.68132,0.08089 -0.11536,-0.08196 -0.13139,-0.14631c-0.01603,-0.06436 1.27471,-1.17552 1.50758,-1.96855c0.23287,-0.79303 -0.93904,-1.74541 -1.52546,-2.35923c-0.58642,-0.61382 -1.34359,-1.57032 -2.01538,-2.35547c-0.67179,-0.78515 -0.95192,-2.41547 -0.013,-3.39763c0.93892,-0.98216 1.64149,-1.14258 2.78408,0.49892c1.14259,1.6415 -0.09739,-0.13992 0,-0.00001z" data-paper-data="{&quot;origPos&quot;:null}" fill="#5a2c0a" stroke-width="0.5"/></g><path d="M282.29885,285.1547l-7.57957,-4.04347c0,0 1.29023,-0.94705 2.19927,-1.45595c0.90285,-0.50543 2.44345,-1.14313 2.44345,-1.14313c0,0 1.76538,-0.70903 3.14497,-0.87103c0.59282,-0.06961 1.90909,0.27751 1.90909,0.27751l2.34037,0.67549z" data-paper-data="{&quot;origPos&quot;:null}" fill="#ffffff" stroke="#ffffff" stroke-width="0" stroke-linecap="round"/><path d="M307.5599,255.8001c0,0 -0.05173,-1.15826 -0.00161,-1.80234c0.05669,-0.72859 0.27528,-1.71496 0.27528,-1.71496c0,0 0.43933,-0.94058 0.90102,-1.52856c0.30476,-0.38812 1.06289,-0.97257 1.06289,-0.97257l6.52146,7.14229l-7.74794,2.93573c0,0 -0.25032,-1.00503 -0.47972,-1.92606c-0.1652,-0.66328 -0.53138,-2.13354 -0.53138,-2.13354z" data-paper-data="{&quot;origPos&quot;:null}" fill="#ffffff" stroke="#ffffff" stroke-width="0" stroke-linecap="round"/><path d="M280.57492,289.83833c-1.31643,-1.50567 -0.34154,-2.2262 0.01294,-2.63857c0.35447,-0.41237 1.36835,-3.42659 2.3187,-5.00736c0.95035,-1.58076 4.96856,-8.07402 6.10527,-9.67062c1.13671,-1.5966 5.57116,-4.90564 6.30438,-5.9049c0.73321,-0.99926 12.11011,-7.36444 14.06002,-8.51566c1.94991,-1.15122 3.07636,-1.21181 7.41798,-2.29315c4.34162,-1.08134 1.94072,-0.48336 2.42407,1.45735c0.48336,1.94071 2.06569,1.54661 -1.45735,2.42407c-3.52304,0.87747 -6.58992,1.52987 -9.97085,3.04815c-3.38094,1.51828 -11.73176,5.84343 -15.01103,11.61494c-3.27927,5.77152 -5.37924,7.18956 -6.07558,8.8393c-0.69633,1.64974 -1.29741,4.65686 -3.30645,6.83569c-2.00904,2.17882 -1.50567,1.31643 -2.8221,-0.18924z" data-paper-data="{&quot;origPos&quot;:null}" fill="#5a2c0a" stroke="none" stroke-width="0.5" stroke-linecap="butt"/><path d="M286.77878,267.83295c-0.94979,0.81265 -1.51864,0.1478 -1.51864,0.1478l-0.86683,-1.01311c-1.0619,-1.24109 -2.37068,-2.84695 -3.8449,-3.61063c-0.25379,1.51369 0.7408,2.98126 1.30508,5.20337c0,0 0.24826,0.76547 -0.96468,1.06758c-1.21294,0.3021 -1.46121,-0.46338 -1.46121,-0.46338c-0.33151,-1.36301 -1.65623,-3.01493 -1.82795,-4.28042c-0.07885,-0.58109 -0.02426,-1.16203 0.12694,-1.72854c-0.41232,0.17207 -0.83197,0.44282 -1.25766,0.83128c0,0 -0.75983,0.65012 -1.57248,-0.29966c-0.81265,-0.94979 -0.05282,-1.59991 -0.05282,-1.59991c1.50528,-1.23507 2.93775,-1.68304 4.29101,-1.60051c0.51339,-0.65914 1.09277,-1.24513 1.64135,-1.72053l0.25328,-0.21671c0,0 0.47489,-0.40633 1.28755,0.54346c0.81265,0.94979 0.33776,1.35611 0.33776,1.35611l-0.25328,0.21671c-0.25172,0.21194 -0.47359,0.41718 -0.66829,0.61698c1.67657,0.91005 3.20174,2.47216 4.55988,4.05948l0.86683,1.01311c0,0 0.56886,0.66485 -0.38093,1.4775z" fill="#000000" stroke="none" stroke-width="0.5" stroke-linecap="butt"/><path d="M295.88276,258.39833l-0.86683,-1.01311c-1.35814,-1.58733 -2.66554,-3.33577 -3.30529,-5.13293c-0.22752,0.16145 -0.46461,0.3489 -0.71293,0.56481l-0.25328,0.21671c0,0 -0.47489,0.40633 -1.28755,-0.54346c-0.81265,-0.94979 -0.33776,-1.35611 -0.33776,-1.35611l0.25328,-0.21671c0.55453,-0.46844 1.22309,-0.95021 1.95371,-1.35546c0.12779,-1.34974 0.79194,-2.69568 2.24499,-3.99179c0,0 0.75983,-0.65012 1.57248,0.29966c0.81265,0.94979 0.05282,1.59991 0.05282,1.59991c-0.44963,0.36048 -0.78203,0.7332 -1.01581,1.11394c0.58308,-0.06176 1.16547,-0.02583 1.72737,0.14196c1.22369,0.3654 2.65082,1.9297 3.94615,2.46806c0,0 0.71787,0.36368 0.23178,1.51529c-0.48609,1.15162 -1.20395,0.78794 -1.20395,0.78794c-2.10808,-0.90121 -3.40414,-2.11084 -4.93887,-2.09424c0.52645,1.5746 1.91053,3.11603 2.97243,4.35712l0.86683,1.01311c0,0 0.56886,0.66485 -0.38093,1.4775c-0.94979,0.81265 -1.51864,0.1478 -1.51864,0.1478z" data-paper-data="{&quot;index&quot;:null}" fill="#000000" stroke="none" stroke-width="0.5" stroke-linecap="butt"/></g></g><g stroke="none"><path d="M346.28292,234.98051c5.76599,0 10.98972,2.34288 14.77298,6.12613c3.78326,3.78326 6.12604,9.00689 6.12604,14.77298c0,5.76599 -2.34279,10.98963 -6.12604,14.77289c-3.78326,3.78335 -9.00698,6.12613 -14.77298,6.12613c-5.76599,0 -10.98972,-2.34279 -14.77298,-6.12613c-3.78326,-3.78326 -6.12613,-9.00689 -6.12613,-14.77289c0,-5.76608 2.34288,-10.98972 6.12613,-14.77298c3.78326,-3.78326 9.00698,-6.12613 14.77298,-6.12613z" fill="#ff561d" stroke-width="2.34681" stroke-linecap="butt"/><path d="M346.16555,238.86598c4.71626,0 8.98899,1.91633 12.08357,5.01091c3.09449,3.09449 5.01082,7.36722 5.01082,12.08348c0,4.71635 -1.91633,8.98899 -5.01082,12.08357c-3.09458,3.09449 -7.36731,5.01082 -12.08357,5.01082c-4.71626,0 -8.98899,-1.91633 -12.08357,-5.01082c-3.09449,-3.09458 -5.01082,-7.36722 -5.01082,-12.08357c0,-4.71626 1.91633,-8.98899 5.01082,-12.08348c3.09458,-3.09458 7.36731,-5.01091 12.08357,-5.01091z" fill="#ff9e23" stroke-width="1.91957" stroke-linecap="butt"/><path d="M346.02443,244.11747c3.22309,0 6.14303,1.30959 8.25775,3.4243c2.11472,2.11472 3.4243,5.03466 3.4243,8.25775c0,3.223 -1.30959,6.14294 -3.4243,8.25766c-2.11472,2.11472 -5.03466,3.4243 -8.25775,3.4243c-3.223,0 -6.14294,-1.30959 -8.25766,-3.4243c-2.11472,-2.11472 -3.4243,-5.03466 -3.4243,-8.25766c0,-3.22309 1.30959,-6.14303 3.4243,-8.25775c2.11472,-2.11472 5.03466,-3.4243 8.25766,-3.4243z" fill="#ffe21d" stroke-width="1.3118" stroke-linecap="butt"/><path d="M340.05512,236.19712l12.96807,-4.81317v5.57309z" fill="#ff561d" stroke-width="1.92751" stroke-linecap="round"/><path d="M352.12489,275.90828l-12.96816,4.81308v-5.57309z" fill="#ff561d" stroke-width="1.92751" stroke-linecap="round"/><path d="M365.69344,249.16371l5.89551,12.51331l-5.553,0.47258z" fill="#ff561d" stroke-width="1.92751" stroke-linecap="round"/><path d="M327.02313,262.90329l-5.89551,-12.51331l5.553,-0.47258z" fill="#ff561d" stroke-width="1.92751" stroke-linecap="round"/><path d="M356.2894,237.30612l12.30195,6.32461l-4.11362,3.76006z" fill="#ff561d" stroke-width="1.92751" stroke-linecap="round"/><path d="M329.28524,244.37996l6.80577,-12.04247l3.59456,4.25885z" fill="#ff561d" stroke-width="1.92751" stroke-linecap="round"/><path d="M364.41317,265.34356l-4.86441,12.94898l-4.20916,-3.65265z" fill="#ff561d" stroke-width="1.92751" stroke-linecap="round"/><path d="M335.7,273.86582l-12.67461,-5.54021l3.86957,-4.01078z" fill="#ff561d" stroke-width="1.92751" stroke-linecap="round"/></g></g></g></svg>