<svg version="1.1" xmlns="http://www.w3.org/2000/svg" xmlns:xlink="http://www.w3.org/1999/xlink" width="143.7336" height="143.73361" viewBox="0,0,143.7336,143.73361"><defs><linearGradient x1="240" y1="110.13322" x2="240" y2="249.86682" gradientUnits="userSpaceOnUse" id="color-1"><stop offset="0" stop-color="#3c94ed"/><stop offset="1" stop-color="#337fcc"/></linearGradient><radialGradient cx="240.65245" cy="176.81029" r="62.72362" gradientUnits="userSpaceOnUse" id="color-2"><stop offset="0" stop-color="#fff343"/><stop offset="1" stop-color="#fff343" stop-opacity="0"/></radialGradient><linearGradient x1="249.97272" y1="137.35813" x2="230.91594" y2="218.02375" gradientUnits="userSpaceOnUse" id="color-3"><stop offset="0" stop-color="#ffef10"/><stop offset="1" stop-color="#ffa30a"/></linearGradient><linearGradient x1="249.97276" y1="137.35818" x2="231.11893" y2="217.16477" gradientUnits="userSpaceOnUse" id="color-4"><stop offset="0" stop-color="#e6b609"/><stop offset="1" stop-color="#c37808"/></linearGradient></defs><g transform="translate(-168.1332,-108.13321)"><g data-paper-data="{&quot;isPaintingLayer&quot;:true}" fill-rule="nonzero" stroke-linejoin="miter" stroke-miterlimit="10" stroke-dasharray="" stroke-dashoffset="0" style="mix-blend-mode: normal"><path d="M240,110.13322c19.2752,0 36.74421,7.8268 49.3899,20.47689c12.64989,12.64569 20.4769,30.11449 20.4769,49.38991c0,19.27542 -7.82701,36.74421 -20.4769,49.38991c-12.64569,12.65009 -30.1147,20.4769 -49.3899,20.4769c-19.27542,0 -36.74442,-7.8268 -49.39012,-20.4769c-12.64989,-12.64569 -20.47668,-30.11449 -20.47668,-49.38991c0,-19.27542 7.82679,-36.74421 20.47668,-49.38991c12.64569,-12.6501 30.11471,-20.47689 49.39012,-20.47689z" data-paper-data="{&quot;origPos&quot;:null}" fill="url(#color-1)" stroke="#23568d" stroke-width="4" stroke-linecap="butt"/><g><path d="M243.52866,222.19848c-3.71325,-3.74913 -10.46291,-13.95119 -10.46291,-13.95119c0,0 -11.69962,6.2708 -16.43036,7.96104c-10.83558,3.87139 -18.61503,2.79415 -19.1517,1.45734c-0.66511,-1.65659 2.26439,-11.66765 6.36697,-20.89557c3.28076,-7.37933 6.21124,-12.6917 6.21124,-12.6917c-3.96704,-4.88852 -7.49031,-7.51153 -10.54069,-11.69557c-6.24169,-8.56147 -6.44848,-17.83745 -5.34119,-19.54886c1.51558,-2.34246 14.05585,-2.21514 32.65111,1.6009l1.27458,-0.15584c10.52539,-16.51194 20.72162,-26.12141 23.68561,-25.42118c2.73796,0.69819 7.7026,13.77663 9.92557,33.17966l0.76957,0.85467c18.53844,4.9944 30.07605,10.57892 30.4761,13.27859c0.23835,1.60839 -4.50217,10.38087 -15.56263,15.79205c-3.8964,1.90625 -8.26468,2.39574 -12.82751,4.46491c0,0 0.47419,6.80652 0.07135,15.75608c-0.45458,10.09731 -2.41973,19.65191 -4.0289,20.39626c-1.38042,0.63853 -9.35377,-2.5744 -17.08614,-10.38153z" data-paper-data="{&quot;index&quot;:null}" fill="url(#color-2)" stroke="#3f2803" stroke-width="0" stroke-linecap="round"/><path d="M242.8672,214.29666c-3.02289,-3.05211 -8.56152,-11.17222 -8.56152,-11.17222c0,0 -9.48073,4.91973 -13.33198,6.29572c-8.82111,3.15165 -15.17722,2.37189 -15.61411,1.28364c-0.54146,-1.34861 1.79744,-9.304 5.13732,-16.81634c2.67082,-6.00741 5.05648,-10.33215 5.05648,-10.33215c-3.22951,-3.97968 -6.09777,-6.11503 -8.58102,-9.52121c-5.08127,-6.96978 -6.20765,-14.74757 -5.30622,-16.1408c1.23383,-1.90698 12.40069,-1.577 27.53884,1.5296l1.03763,-0.12686c8.5686,-13.44218 17.17096,-22.54244 19.58391,-21.97239c2.22893,0.56838 5.96883,12.49271 7.7785,28.28847l0.62651,0.6958c15.09189,4.06589 25.44254,8.83848 25.7682,11.03623c0.19404,1.30936 -4.62317,8.2246 -13.62733,12.62976c-3.172,1.55185 -6.72816,1.95035 -10.4427,3.63484c0,0 0.38605,5.54109 0.05808,12.82683c-0.37005,8.22009 -1.92393,15.8039 -3.23396,16.40986c-1.12378,0.51981 -7.5918,-2.19302 -13.88662,-8.54873z" data-paper-data="{&quot;index&quot;:null}" fill="url(#color-3)" stroke="url(#color-4)" stroke-width="1" stroke-linecap="round"/><g stroke="none" stroke-width="2.7674"><path d="M250.37197,170.45534c1.19317,0.23371 2.14029,1.49088 2.35148,2.81531c0.38294,2.40358 -0.13728,5.0384 -0.78097,7.46204c-0.57828,2.24085 -1.48588,4.48425 -2.81998,6.29499c-0.77152,1.06541 -1.98152,2.21992 -3.1238,1.93939c-1.1,-0.27054 -1.83711,-1.34442 -2.08111,-3.01915c-0.31654,-2.12031 -0.13383,-4.52965 0.51076,-7.25813c0.64463,-2.72866 1.45364,-4.89347 2.79134,-6.71935c0.88008,-1.2058 2.15748,-1.79826 3.15229,-1.51507z" fill="#3f2803" stroke-linecap="round"/><path d="M250.21701,171.93306c0.61023,0.14416 1.09065,0.57358 1.37658,1.14976c0.2859,0.57633 0.37727,1.29947 0.20355,2.0348c-0.17372,0.73532 -0.57904,1.34111 -1.09259,1.72842c-0.51359,0.38746 -1.13541,0.55649 -1.74562,0.41233c-0.61005,-0.14412 -1.09063,-0.57357 -1.37653,-1.14992c-0.28593,-0.57618 -0.37717,-1.29924 -0.20345,-2.0346c0.17372,-0.73532 0.57891,-1.34112 1.09249,-1.72862c0.51355,-0.38731 1.13553,-0.55629 1.74556,-0.41217z" fill="#ffffff" stroke-linecap="butt"/></g><g stroke="none" stroke-width="2.7674"><path d="M234.81643,166.69154c1.19317,0.23371 2.14029,1.49088 2.3515,2.81531c0.38294,2.40358 -0.13727,5.03841 -0.78095,7.46204c-0.57828,2.24085 -1.4859,4.48424 -2.81998,6.29499c-0.77152,1.06541 -1.98152,2.21992 -3.12381,1.93939c-1.1,-0.27054 -1.83711,-1.34442 -2.08111,-3.01915c-0.31654,-2.12031 -0.13383,-4.52963 0.51076,-7.25813c0.64463,-2.72866 1.45365,-4.89349 2.79134,-6.71937c0.88008,-1.2058 2.15748,-1.79824 3.15229,-1.51507z" fill="#3f2803" stroke-linecap="round"/><path d="M234.76557,168.10496c0.61023,0.14416 1.09063,0.57357 1.37656,1.14976c0.2859,0.57633 0.37729,1.29946 0.20358,2.03478c-0.17372,0.73532 -0.57905,1.34109 -1.09261,1.7284c-0.51359,0.38746 -1.13539,0.55649 -1.7456,0.41234c-0.61005,-0.14412 -1.09065,-0.5736 -1.37654,-1.14992c-0.28593,-0.57618 -0.37717,-1.29924 -0.20345,-2.03458c0.17372,-0.73532 0.57891,-1.34112 1.09248,-1.7286c0.51355,-0.38731 1.13553,-0.55629 1.74558,-0.41217z" fill="#ffffff" stroke-linecap="butt"/></g></g></g></g></svg>