<svg version="1.1" xmlns="http://www.w3.org/2000/svg" xmlns:xlink="http://www.w3.org/1999/xlink" width="64.60029" height="63.48798" viewBox="0,0,64.60029,63.48798"><defs><radialGradient cx="240.02427" cy="179.6469" r="40.54193" gradientUnits="userSpaceOnUse" id="color-1"><stop offset="0" stop-color="#ffffff"/><stop offset="1" stop-color="#ffffff" stop-opacity="0"/></radialGradient><radialGradient cx="239.99825" cy="180.0836" r="34.14988" gradientUnits="userSpaceOnUse" id="color-2"><stop offset="0" stop-color="#fff343"/><stop offset="1" stop-color="#fff343" stop-opacity="0"/></radialGradient><radialGradient cx="240" cy="179.98503" r="27.4068" gradientUnits="userSpaceOnUse" id="color-3"><stop offset="0" stop-color="#ffffff"/><stop offset="1" stop-color="#ffffff" stop-opacity="0"/></radialGradient></defs><g transform="translate(-207.69986,-148.25601)"><g data-paper-data="{&quot;isPaintingLayer&quot;:true}" fill-rule="nonzero" stroke-linecap="round" stroke-linejoin="miter" stroke-miterlimit="10" stroke-dasharray="" stroke-dashoffset="0" style="mix-blend-mode: normal"><path d="M248.29285,209.34202c-2.89294,-1.80654 -8.65487,-6.36388 -8.65487,-6.36388c0,0 -6.42767,4.82611 -9.15233,6.59237c-4.52644,2.75981 -10.43728,2.38112 -10.97353,1.61996c-0.66456,-0.94323 -1.88093,-6.24738 -0.67157,-12.66182c0.96711,-5.12946 2.02105,-8.90666 2.02105,-8.90666c-3.22191,-2.48556 -5.82801,-3.61195 -8.3686,-5.79058c-4.19859,-3.74368 -5.13572,-10.54794 -4.69352,-11.78905c0.60525,-1.69873 6.22683,-6.76793 18.49114,-7.13088l0.7786,-0.28745c4.16712,-11.95087 10.86723,-16.36802 12.83577,-16.36802c1.82605,0.03231 8.03543,4.66428 12.31721,16.53927l0.61111,0.42326c12.40368,0.38674 18.63409,4.75649 19.28693,6.39525c0.38895,0.97633 0.71061,7.62764 -5.44274,12.67516c-2.16772,1.77814 -4.98567,3.30665 -7.54839,5.28632c0,0 1.30978,4.21112 2.38635,9.90065c1.21458,6.41919 -0.60169,10.72148 -1.5033,11.42885c-0.77346,0.60681 -6.40936,1.48492 -11.71926,-1.56273z" data-paper-data="{&quot;index&quot;:null}" fill="url(#color-1)" stroke="#3f2803" stroke-width="0"/><path d="M239.67287,198.4506c0,0 -5.41425,5.0652 -7.70933,6.55298c-3.81278,2.32468 -8.50597,1.86284 -8.95767,1.22169c-0.55978,-0.79452 -1.72723,-4.5481 -0.70854,-9.95121c0.81463,-4.32072 1.7024,-7.93096 1.7024,-7.93096c-2.71393,-2.09367 -5.05199,-3.47104 -7.19202,-5.30618c-3.53662,-3.15343 -4.326,-8.31347 -3.95352,-9.3589c0.50982,-1.4309 5.24508,-5.70086 15.57573,-6.00659l0.65584,-0.24213c3.51011,-10.06663 9.15385,-13.78735 10.81202,-13.78735c1.53815,0.02722 6.76852,3.92889 10.37522,13.9316l0.51476,0.35653c10.44805,0.32576 15.69614,4.00656 16.24605,5.38694c0.32763,0.8224 0.59857,6.42503 -4.58461,10.67673c-1.82595,1.49779 -4.1996,2.78531 -6.35827,4.45285c0,0 0.53184,3.54717 1.43868,8.33966c1.02308,5.40711 0.0646,9.03108 -0.69485,9.62692c-0.65151,0.51114 -6.11311,0.39366 -10.58583,-2.17348z" data-paper-data="{&quot;index&quot;:null}" fill="url(#color-2)" stroke="#3f2803" stroke-width="0"/><path d="M246.6803,204.27933c-2.3551,-1.47068 -7.04584,-5.7555 -7.04584,-5.7555c0,0 -5.23267,4.50363 -7.45079,5.94152c-5.0805,3.29341 -8.90893,2.17605 -9.34547,1.55641c-0.54101,-0.76787 -1.25198,-5.26258 -0.26744,-10.48449c0.78732,-4.17583 1.64531,-7.2508 1.64531,-7.2508c-2.62291,-2.02346 -4.7445,-2.94044 -6.81276,-4.71404c-4.2321,-3.62918 -5.09648,-9.2115 -4.73648,-10.22186c0.49274,-1.38293 5.85193,-5.54912 15.83614,-5.84458l0.63386,-0.234c3.3924,-9.72906 9.16557,-14.01761 10.76814,-14.01761c1.48656,0.0263 6.75402,4.54287 10.23974,14.21014l0.49751,0.34458c10.09767,0.31485 16.17506,4.2074 16.70651,5.54148c0.31664,0.7948 -0.54307,7.00351 -5.55244,11.11264c-1.7647,1.44756 -3.94247,2.22671 -6.02875,3.83834c0,0 1.06629,3.42821 1.9427,8.05999c0.98879,5.22578 -0.00451,9.08439 -0.73852,9.66025c-0.62966,0.49399 -5.38718,1.32012 -10.2914,-1.74243z" data-paper-data="{&quot;index&quot;:null}" fill="url(#color-3)" stroke="#fffbba" stroke-width="1"/><g fill="#3f2803" stroke="none" stroke-width="2.7674"><path d="M244.91984,174.28048c0.747,-0.02882 1.49145,0.58956 1.80505,1.35221c0.56892,1.38412 0.6301,3.03428 0.58755,4.57553c-0.02925,1.42263 -0.25521,2.89334 -0.79753,4.16544c-0.03995,0.09591 -0.08404,0.19371 -0.13205,0.29134c-0.44508,-0.06386 -0.90011,-0.09689 -1.36285,-0.09689c-0.56776,0 -1.12389,0.04973 -1.66429,0.14509c-0.03762,-0.07979 -0.07363,-0.1631 -0.10795,-0.24986c-0.48914,-1.22401 -0.72041,-2.69153 -0.72041,-4.41531c0,-1.7239 0.17807,-3.13365 0.72041,-4.41532c0.35616,-0.84594 1.03678,-1.38103 1.6721,-1.35221z"/></g><g fill="#3f2803" stroke="none" stroke-width="2.7674"><path d="M235.07965,174.22731c0.747,-0.02882 1.49146,0.58956 1.80507,1.35221c0.56892,1.38412 0.63011,3.03428 0.58755,4.57553c-0.02925,1.42263 -0.25522,2.89334 -0.79753,4.16544c-0.0528,0.12673 -0.11279,0.25678 -0.17956,0.38534c-0.52707,-0.09054 -1.06897,-0.13771 -1.62189,-0.13771c-0.46032,0 -0.91302,0.03269 -1.35588,0.0959c-0.03831,-0.081 -0.07494,-0.16564 -0.10982,-0.25384c-0.48914,-1.22401 -0.7204,-2.69152 -0.7204,-4.41531c0,-1.7239 0.17807,-3.13366 0.7204,-4.41533c0.35616,-0.84594 1.03678,-1.38102 1.6721,-1.35221z"/></g></g></g></svg>