<svg version="1.1" xmlns="http://www.w3.org/2000/svg" xmlns:xlink="http://www.w3.org/1999/xlink" width="717.65001" height="416.49233" viewBox="0,0,717.65001,416.49233"><defs><linearGradient x1="125.54244" y1="179.59459" x2="125.54244" y2="247.65766" gradientUnits="userSpaceOnUse" id="color-1"><stop offset="0" stop-color="#c2c2c2"/><stop offset="1" stop-color="#797979"/></linearGradient><linearGradient x1="357.77968" y1="-2.58258" x2="357.77968" y2="63.48349" gradientUnits="userSpaceOnUse" id="color-2"><stop offset="0" stop-color="#c2c2c2"/><stop offset="1" stop-color="#797979"/></linearGradient></defs><g transform="translate(115.97214,20.05478)"><g data-paper-data="{&quot;isPaintingLayer&quot;:true}" fill-rule="nonzero" stroke-linejoin="miter" stroke-miterlimit="10" stroke-dasharray="" stroke-dashoffset="0" style="mix-blend-mode: normal"><path d="M384.32656,334.43754c0,-1.50252 22.5045,-2.40645 48.33903,-2.65874c0.34914,-0.00341 1.81149,10.32065 14.32805,10.65129c12.88041,0.34025 13.49123,-10.67488 13.99479,-10.67061c25.55341,0.21646 47.33813,1.09192 47.33813,2.67806c0,34.24165 -27.75835,62 -62,62c-34.24165,0 -62,-27.75835 -62,-62z" fill="#848484" stroke="none" stroke-width="0" stroke-linecap="butt"/><g stroke="none" stroke-width="1.18415" stroke-linecap="butt"><path d="M94.79989,-12.53392h10.88362v378.31067h-18.88362v-123.58994l8,-12z" fill="#848484"/><path d="M95.92855,-11.89574h1.43604v236.79985l-4,12.5v128.37264h-4.93604v-129.87264l7.5,-11z" fill="#c2c2c2"/></g><g stroke="none" stroke-width="1.18415" stroke-linecap="butt"><path d="M601.67787,114.09107v10.88362h-717.65001v-10.88362z" fill="#848484"/><path d="M600.46724,115.21973v1.43603h-716.43938v-1.43603z" fill="#c2c2c2"/></g><g stroke="none" stroke-width="1.18415" stroke-linecap="butt"><path d="M601.67787,98.09603v10.88362h-717.65001v-10.88362z" fill="#848484"/><path d="M600.46724,99.22469v1.43603h-716.43938v-1.43603z" fill="#c2c2c2"/></g><g stroke="none" stroke-width="1.18415" stroke-linecap="butt"><path d="M110.79492,-12.53392h10.88362v231.16353h-10.88362z" fill="#8a8a8a"/><path d="M111.92359,-12.14396h1.43604v230.77357h-1.43604z" fill="#c2c2c2"/></g><g stroke="none" stroke-width="1.18415" stroke-linecap="butt"><path d="M126.78996,-12.53392h10.88361v231.16353h-10.88361z" fill="#8a8a8a"/><path d="M127.91861,-12.14396h1.43603v230.77357h-1.43603z" fill="#c2c2c2"/></g><g stroke="none" stroke-width="1.18415" stroke-linecap="butt"><path d="M601.67787,82.10098v10.88362h-717.65001v-10.88362z" fill="#848484"/><path d="M600.46724,83.22965v1.43603h-716.43938v-1.43603z" fill="#c2c2c2"/></g><g stroke="none" stroke-width="1.18415" stroke-linecap="butt"><path d="M142.78498,-12.53392h10.88362v235.72073l9,16v126.58995h-19.88362z" fill="#848484"/><path d="M143.91365,-11.89574h1.43604v240.29985l3.5,10v127.37264h-4.93604z" fill="#c2c2c2"/></g><path d="M86.24515,247.65766v-68.06306h78.59459v68.06306z" fill="url(#color-1)" stroke="none" stroke-width="0" stroke-linecap="butt"/><text transform="translate(207,25.86001)" font-size="22" xml:space="preserve" fill="#ff0000" fill-rule="nonzero" stroke="none" stroke-width="1" stroke-linecap="butt" stroke-linejoin="miter" stroke-miterlimit="10" stroke-dasharray="" stroke-dashoffset="0" font-family="Sans Serif" font-weight="400" text-anchor="start" style="mix-blend-mode: normal"><tspan x="0" dy="0">WIP</tspan></text><g stroke="none" stroke-width="1.18415" stroke-linecap="butt"><path d="M601.67787,6.04591v48.3582h-717.65001v-48.3582z" fill="#848484"/><path d="M600.46724,11.06081v6.3806h-716.43938v-6.3806z" fill="#c2c2c2"/></g><g stroke="none" stroke-width="1.18415" stroke-linecap="butt"><path d="M601.67787,66.10595v10.88362h-717.65001v-10.88362z" fill="#848484"/><path d="M600.46724,67.23462v1.43603h-716.43938v-1.43603z" fill="#c2c2c2"/></g><text transform="translate(154.84644,143.05298) scale(0.61258,0.61258)" font-size="22" xml:space="preserve" fill="#ff0000" fill-rule="nonzero" stroke="none" stroke-width="1" stroke-linecap="butt" stroke-linejoin="miter" stroke-miterlimit="10" stroke-dasharray="" stroke-dashoffset="0" font-family="Sans Serif" font-weight="400" text-anchor="start" style="mix-blend-mode: normal"><tspan x="0" dy="0">This level is unfinished and</tspan><tspan x="0" dy="24.86px">selecting a star here may</tspan><tspan x="0" dy="24.86px">cause errors.</tspan></text><g><g data-paper-data="{&quot;origPos&quot;:null}" fill="#797979" stroke="#797979" stroke-width="4.5" stroke-linecap="round"><g data-paper-data="{&quot;origPos&quot;:null}"><path d="M128.38326,40.96706l-36.68038,19.75098l23.0428,-36.68038l39.0317,-22.10228z" data-paper-data="{&quot;origPos&quot;:null}"/><path d="M113.50949,37.1475l-22.22031,-35.23933l38.17448,20.47271l24.72736,37.42382z" data-paper-data="{&quot;origPos&quot;:null,&quot;origRot&quot;:0}"/></g><g data-paper-data="{&quot;origPos&quot;:null,&quot;origRot&quot;:0}"><path d="M119.94596,42.61094l-39.94907,-11.81624l42.19299,-9.80675l43.27431,11.80335z" data-paper-data="{&quot;origPos&quot;:null}"/><path d="M112.07831,29.42316l9.04836,-40.66545l12.67758,41.42102l-8.80745,43.98197z" data-paper-data="{&quot;origPos&quot;:null,&quot;origRot&quot;:0}"/></g></g><g data-paper-data="{&quot;origPos&quot;:null,&quot;origRot&quot;:0}" fill="#797979" stroke="#797979" stroke-width="4.5" stroke-linecap="round"><g data-paper-data="{&quot;origPos&quot;:null}"><path d="M123.49168,43.39226l-41.5605,2.8768l36.11294,-23.9223l44.67194,-4.04996z" data-paper-data="{&quot;origPos&quot;:null}"/><path d="M111.51438,33.78175l-5.72057,-41.26533l26.34288,34.38712l7.10439,44.28897z" data-paper-data="{&quot;origPos&quot;:null,&quot;origRot&quot;:0}"/></g><g data-paper-data="{&quot;origPos&quot;:null,&quot;origRot&quot;:0}"><path d="M115.12683,41.41246l-31.52766,-27.23157l42.48442,8.45558l34.5626,28.59039z" data-paper-data="{&quot;origPos&quot;:null}"/><path d="M113.39415,26.15417l25.00501,-33.32115l-5.52175,42.9643l-26.15249,36.4422z" data-paper-data="{&quot;origPos&quot;:null,&quot;origRot&quot;:0}"/></g></g><path d="M119.44826,31.18976c0,-1.94788 1.57909,-3.52697 3.52698,-3.52697c1.94789,0 3.52697,1.57908 3.52697,3.52697c0,1.94789 -1.57908,3.52697 -3.52697,3.52697c-1.94789,0 -3.52698,-1.57908 -3.52698,-3.52697z" data-paper-data="{&quot;origPos&quot;:null}" fill="none" stroke="#ac6400" stroke-width="9" stroke-linecap="butt"/></g><g><g data-paper-data="{&quot;origPos&quot;:null}" fill="#797979" stroke="#797979" stroke-width="0.5" stroke-linecap="round"><g data-paper-data="{&quot;origPos&quot;:null}"><path d="M242.39985,122.7873l-10.91052,5.8749l6.85404,-10.91053l11.60992,-6.57429z" data-paper-data="{&quot;origPos&quot;:null}"/><path d="M237.97567,121.65118l-6.6094,-10.48188l11.35494,6.08957l7.35511,11.13165z" data-paper-data="{&quot;origPos&quot;:null,&quot;origRot&quot;:0}"/></g><g data-paper-data="{&quot;origPos&quot;:null,&quot;origRot&quot;:0}"><path d="M239.89019,123.27627l-11.88279,-3.51472l12.55024,-2.917l12.87188,3.51089z" data-paper-data="{&quot;origPos&quot;:null}"/><path d="M237.54997,119.35359l2.69142,-12.09588l3.77093,12.32062l-2.61976,13.08236z" data-paper-data="{&quot;origPos&quot;:null,&quot;origRot&quot;:0}"/></g></g><g data-paper-data="{&quot;origPos&quot;:null,&quot;origRot&quot;:0}" fill="#797979" stroke="#797979" stroke-width="0.5" stroke-linecap="round"><g data-paper-data="{&quot;origPos&quot;:null}"><path d="M240.94486,123.50867l-12.3621,0.8557l10.74174,-7.11565l13.2876,-1.20466z" data-paper-data="{&quot;origPos&quot;:null}"/><path d="M237.38223,120.65004l-1.70157,-12.2743l7.83565,10.22839l2.11319,13.17369z" data-paper-data="{&quot;origPos&quot;:null,&quot;origRot&quot;:0}"/></g><g data-paper-data="{&quot;origPos&quot;:null,&quot;origRot&quot;:0}"><path d="M238.45675,122.91979l-9.37786,-8.09999l12.63692,2.5151l10.28059,8.50417z" data-paper-data="{&quot;origPos&quot;:null}"/><path d="M237.94137,118.38123l7.4377,-9.91132l-1.64244,12.77966l-7.77902,10.83967z" data-paper-data="{&quot;origPos&quot;:null,&quot;origRot&quot;:0}"/></g></g><path d="M239.74215,119.87906c0,-0.5794 0.46969,-1.04909 1.04909,-1.04909c0.5794,0 1.0491,0.4697 1.0491,1.04909c0,0.5794 -0.4697,1.04909 -1.0491,1.04909c-0.5794,0 -1.04909,-0.46969 -1.04909,-1.04909z" data-paper-data="{&quot;origPos&quot;:null}" fill="none" stroke="#ac6400" stroke-width="2.5" stroke-linecap="butt"/></g><g><g data-paper-data="{&quot;origPos&quot;:null}" fill="#797979" stroke="#797979" stroke-width="0.5" stroke-linecap="round"><g data-paper-data="{&quot;origPos&quot;:null}"><path d="M268.39985,105.2873l-10.91053,5.8749l6.85404,-10.91052l11.60992,-6.57429z" data-paper-data="{&quot;origPos&quot;:null}"/><path d="M263.97567,104.15118l-6.6094,-10.48188l11.35494,6.08957l7.35512,11.13165z" data-paper-data="{&quot;origPos&quot;:null,&quot;origRot&quot;:0}"/></g><g data-paper-data="{&quot;origPos&quot;:null,&quot;origRot&quot;:0}"><path d="M265.89018,105.77627l-11.88278,-3.51472l12.55024,-2.917l12.87187,3.51089z" data-paper-data="{&quot;origPos&quot;:null}"/><path d="M263.54997,101.85359l2.69142,-12.09588l3.77092,12.32062l-2.61976,13.08236z" data-paper-data="{&quot;origPos&quot;:null,&quot;origRot&quot;:0}"/></g></g><g data-paper-data="{&quot;origPos&quot;:null,&quot;origRot&quot;:0}" fill="#797979" stroke="#797979" stroke-width="0.5" stroke-linecap="round"><g data-paper-data="{&quot;origPos&quot;:null}"><path d="M266.94486,106.00867l-12.36211,0.8557l10.74173,-7.11565l13.2876,-1.20466z" data-paper-data="{&quot;origPos&quot;:null}"/><path d="M263.38223,103.15004l-1.70157,-12.2743l7.83565,10.22839l2.11319,13.17369z" data-paper-data="{&quot;origPos&quot;:null,&quot;origRot&quot;:0}"/></g><g data-paper-data="{&quot;origPos&quot;:null,&quot;origRot&quot;:0}"><path d="M264.45675,105.41979l-9.37786,-8.09999l12.63693,2.5151l10.28059,8.50417z" data-paper-data="{&quot;origPos&quot;:null}"/><path d="M263.94137,100.88123l7.4377,-9.91132l-1.64244,12.77966l-7.77902,10.83968z" data-paper-data="{&quot;origPos&quot;:null,&quot;origRot&quot;:0}"/></g></g><path d="M265.74215,102.37906c0,-0.5794 0.4697,-1.04909 1.04909,-1.04909c0.57939,0 1.04909,0.4697 1.04909,1.04909c0,0.5794 -0.4697,1.04909 -1.04909,1.04909c-0.57939,0 -1.04909,-0.46969 -1.04909,-1.04909z" data-paper-data="{&quot;origPos&quot;:null}" fill="none" stroke="#ac6400" stroke-width="2.5" stroke-linecap="butt"/></g><g><g data-paper-data="{&quot;origPos&quot;:null}" fill="#797979" stroke="#797979" stroke-width="0.5" stroke-linecap="round"><g data-paper-data="{&quot;origPos&quot;:null}"><path d="M321.89985,89.7873l-10.91053,5.8749l6.85404,-10.91052l11.60992,-6.57429z" data-paper-data="{&quot;origPos&quot;:null}"/><path d="M317.47567,88.65118l-6.6094,-10.48188l11.35494,6.08957l7.35512,11.13165z" data-paper-data="{&quot;origPos&quot;:null,&quot;origRot&quot;:0}"/></g><g data-paper-data="{&quot;origPos&quot;:null,&quot;origRot&quot;:0}"><path d="M319.39018,90.27627l-11.88278,-3.51472l12.55024,-2.917l12.87187,3.51089z" data-paper-data="{&quot;origPos&quot;:null}"/><path d="M317.04997,86.35359l2.69142,-12.09588l3.77092,12.32062l-2.61976,13.08236z" data-paper-data="{&quot;origPos&quot;:null,&quot;origRot&quot;:0}"/></g></g><g data-paper-data="{&quot;origPos&quot;:null,&quot;origRot&quot;:0}" fill="#797979" stroke="#797979" stroke-width="0.5" stroke-linecap="round"><g data-paper-data="{&quot;origPos&quot;:null}"><path d="M320.44486,90.50867l-12.36211,0.8557l10.74174,-7.11565l13.2876,-1.20466z" data-paper-data="{&quot;origPos&quot;:null}"/><path d="M316.88223,87.65004l-1.70157,-12.2743l7.83565,10.22839l2.11319,13.17369z" data-paper-data="{&quot;origPos&quot;:null,&quot;origRot&quot;:0}"/></g><g data-paper-data="{&quot;origPos&quot;:null,&quot;origRot&quot;:0}"><path d="M317.95675,89.91979l-9.37786,-8.09999l12.63693,2.5151l10.28059,8.50417z" data-paper-data="{&quot;origPos&quot;:null}"/><path d="M317.44137,85.38123l7.4377,-9.91132l-1.64244,12.77966l-7.77902,10.83968z" data-paper-data="{&quot;origPos&quot;:null,&quot;origRot&quot;:0}"/></g></g><path d="M319.24215,86.87906c0,-0.5794 0.4697,-1.04909 1.04909,-1.04909c0.57939,0 1.04909,0.4697 1.04909,1.04909c0,0.5794 -0.4697,1.04909 -1.04909,1.04909c-0.57939,0 -1.04909,-0.46969 -1.04909,-1.04909z" data-paper-data="{&quot;origPos&quot;:null}" fill="none" stroke="#ac6400" stroke-width="2.5" stroke-linecap="butt"/></g><g><g data-paper-data="{&quot;origPos&quot;:null}" fill="#797979" stroke="#797979" stroke-width="0.5" stroke-linecap="round"><g data-paper-data="{&quot;origPos&quot;:null}"><path d="M295.39985,72.7873l-10.91053,5.8749l6.85404,-10.91052l11.60992,-6.57429z" data-paper-data="{&quot;origPos&quot;:null}"/><path d="M290.97567,71.65117l-6.6094,-10.48188l11.35494,6.08957l7.35512,11.13165z" data-paper-data="{&quot;origPos&quot;:null,&quot;origRot&quot;:0}"/></g><g data-paper-data="{&quot;origPos&quot;:null,&quot;origRot&quot;:0}"><path d="M292.89018,73.27626l-11.88278,-3.51472l12.55024,-2.917l12.87187,3.51089z" data-paper-data="{&quot;origPos&quot;:null}"/><path d="M290.54997,69.35359l2.69142,-12.09588l3.77092,12.32062l-2.61976,13.08236z" data-paper-data="{&quot;origPos&quot;:null,&quot;origRot&quot;:0}"/></g></g><g data-paper-data="{&quot;origPos&quot;:null,&quot;origRot&quot;:0}" fill="#797979" stroke="#797979" stroke-width="0.5" stroke-linecap="round"><g data-paper-data="{&quot;origPos&quot;:null}"><path d="M293.94486,73.50866l-12.36211,0.8557l10.74174,-7.11565l13.2876,-1.20466z" data-paper-data="{&quot;origPos&quot;:null}"/><path d="M290.38223,70.65004l-1.70157,-12.2743l7.83565,10.22839l2.11319,13.17369z" data-paper-data="{&quot;origPos&quot;:null,&quot;origRot&quot;:0}"/></g><g data-paper-data="{&quot;origPos&quot;:null,&quot;origRot&quot;:0}"><path d="M291.45675,72.91979l-9.37786,-8.09999l12.63693,2.5151l10.28059,8.50417z" data-paper-data="{&quot;origPos&quot;:null}"/><path d="M290.94137,68.38123l7.4377,-9.91132l-1.64244,12.77967l-7.77902,10.83968z" data-paper-data="{&quot;origPos&quot;:null,&quot;origRot&quot;:0}"/></g></g><path d="M292.74215,69.87905c0,-0.5794 0.4697,-1.04909 1.04909,-1.04909c0.57939,0 1.04909,0.4697 1.04909,1.04909c0,0.5794 -0.4697,1.04909 -1.04909,1.04909c-0.57939,0 -1.04909,-0.46969 -1.04909,-1.04909z" data-paper-data="{&quot;origPos&quot;:null}" fill="none" stroke="#ac6400" stroke-width="2.5" stroke-linecap="butt"/></g><g stroke="none" stroke-width="1.18415" stroke-linecap="butt"><path d="M460.911,51.44845h48.3582v284.77264h-48.3582z" fill="#848484"/><path d="M465.9259,52.15691l6.04727,-3.74494l0.33333,287.80913c0,0 -0.27311,3.77957 -4.64902,7.22028c-3.65583,2.87452 -11.48408,5.51253 -11.99759,5.51253c-0.52767,0 3.51028,-3.71535 6.41568,-7.13213c2.47319,-2.90851 3.85033,-5.60068 3.85033,-5.60068z" fill="#c2c2c2"/></g><path d="M310.48239,63.48349v-66.06606h94.59459v66.06606z" fill="url(#color-2)" stroke="none" stroke-width="0" stroke-linecap="butt"/><g><g data-paper-data="{&quot;origPos&quot;:null}" fill="#797979" stroke="#797979" stroke-width="4.5" stroke-linecap="round"><g data-paper-data="{&quot;origPos&quot;:null}"><path d="M489.23912,187.1082l-36.68038,19.75098l23.0428,-36.68038l39.0317,-22.10228z" data-paper-data="{&quot;origPos&quot;:null}"/><path d="M474.36535,183.28864l-22.22031,-35.23933l38.17448,20.47271l24.72736,37.42382z" data-paper-data="{&quot;origPos&quot;:null,&quot;origRot&quot;:0}"/></g><g data-paper-data="{&quot;origPos&quot;:null,&quot;origRot&quot;:0}"><path d="M480.80182,188.75208l-39.94907,-11.81624l42.19299,-9.80675l43.27431,11.80335z" data-paper-data="{&quot;origPos&quot;:null}"/><path d="M472.93417,175.5643l9.04836,-40.66545l12.67758,41.42102l-8.80745,43.98197z" data-paper-data="{&quot;origPos&quot;:null,&quot;origRot&quot;:0}"/></g></g><g data-paper-data="{&quot;origPos&quot;:null,&quot;origRot&quot;:0}" fill="#797979" stroke="#797979" stroke-width="4.5" stroke-linecap="round"><g data-paper-data="{&quot;origPos&quot;:null}"><path d="M484.34754,189.5334l-41.5605,2.8768l36.11294,-23.9223l44.67194,-4.04996z" data-paper-data="{&quot;origPos&quot;:null}"/><path d="M472.37024,179.9229l-5.72057,-41.26533l26.34288,34.38712l7.10439,44.28897z" data-paper-data="{&quot;origPos&quot;:null,&quot;origRot&quot;:0}"/></g><g data-paper-data="{&quot;origPos&quot;:null,&quot;origRot&quot;:0}"><path d="M475.98269,187.5536l-31.52766,-27.23157l42.48442,8.45558l34.5626,28.59039z" data-paper-data="{&quot;origPos&quot;:null}"/><path d="M474.25001,172.29531l25.00501,-33.32115l-5.52175,42.9643l-26.15249,36.4422z" data-paper-data="{&quot;origPos&quot;:null,&quot;origRot&quot;:0}"/></g></g><path d="M480.30412,177.3309c0,-1.94788 1.57909,-3.52697 3.52698,-3.52697c1.94789,0 3.52697,1.57908 3.52697,3.52697c0,1.94789 -1.57908,3.52697 -3.52697,3.52697c-1.94789,0 -3.52698,-1.57908 -3.52698,-3.52697z" data-paper-data="{&quot;origPos&quot;:null}" fill="none" stroke="#ac6400" stroke-width="9" stroke-linecap="butt"/></g></g></g></svg>