<svg version="1.1" xmlns="http://www.w3.org/2000/svg" xmlns:xlink="http://www.w3.org/1999/xlink" width="571.96468" height="204.49466" viewBox="0,0,571.96468,204.49466"><defs><linearGradient x1="69.98681" y1="225.22466" x2="69.98681" y2="382.87143" gradientUnits="userSpaceOnUse" id="color-1"><stop offset="0" stop-color="#7be39f"/><stop offset="1" stop-color="#29a66e"/></linearGradient><linearGradient x1="-89.40087" y1="308.00447" x2="-89.40087" y2="406.00449" gradientUnits="userSpaceOnUse" id="color-2"><stop offset="0" stop-color="#000000" stop-opacity="0"/><stop offset="1" stop-color="#000000"/></linearGradient></defs><g transform="translate(87.76965,-179.13143)"><g data-paper-data="{&quot;isPaintingLayer&quot;:true}" fill-rule="nonzero" stroke-linejoin="miter" stroke-miterlimit="10" stroke-dasharray="" stroke-dashoffset="0" style="mix-blend-mode: normal"><path d="M226.99326,303.22466c0,26.90337 -23.12722,79.64677 -23.12722,79.64677c0,0 -155.64717,-1.4799 -206.78657,-1.96614c-30.15785,-0.28674 -71.91374,-0.68376 -71.91374,-0.68376c0,0 -12.18537,-62.37623 -12.18537,-76.99686c0,-30.11192 34.34639,-56.23854 84.63829,-69.2384c21.65585,-5.59778 46.26829,-8.7616 72.36817,-8.7616c86.71227,0 157.00645,34.92179 157.00645,78z" fill="url(#color-1)" stroke="#33b97b" stroke-width="1.5" stroke-linecap="butt"/><g stroke-linecap="butt"><path d="M160.38002,238.61265c0,0 84.44263,3.72525 123.0272,0.14693c37.75384,-3.50128 106.04226,-21.39076 106.04226,-21.39076l26.66672,144.06943l-256.46417,0.1883z" data-paper-data="{&quot;origRot&quot;:0}" fill="#b85e32" stroke="#88451b" stroke-width="1.5"/><path d="M210.29382,258.37104c0.40455,-0.96782 1.51708,-1.42444 2.48489,-1.01988c0.96782,0.40455 1.42444,1.51707 1.01989,2.48489c-0.40455,0.96782 -1.51708,1.42445 -2.4849,1.01989c-0.96782,-0.40455 -1.42444,-1.51708 -1.01988,-2.4849z" data-paper-data="{&quot;origRot&quot;:0}" fill="#d6954b" stroke="none" stroke-width="1"/><path d="M225.85103,249.39999c0.40455,-0.96782 1.51708,-1.42444 2.4849,-1.01988c0.96782,0.40455 1.42443,1.51707 1.01988,2.48489c-0.40455,0.96782 -1.51708,1.42444 -2.48489,1.01989c-0.96782,-0.40455 -1.42444,-1.51708 -1.01988,-2.4849z" data-paper-data="{&quot;origRot&quot;:0}" fill="#d6954b" stroke="none" stroke-width="1"/><path d="M240.78074,251.11177c0.40455,-0.96782 1.51708,-1.42444 2.4849,-1.01988c0.96782,0.40455 1.42444,1.51707 1.01988,2.48489c-0.40455,0.96782 -1.51708,1.42444 -2.48489,1.01988c-0.96782,-0.40455 -1.42444,-1.51707 -1.01989,-2.48489z" data-paper-data="{&quot;origRot&quot;:0}" fill="#d6954b" stroke="none" stroke-width="1"/><path d="M159.93129,230.75982c0,0 81.88557,-0.58941 86.5565,-0.62298c1.55698,-0.01119 3.05235,-0.04882 3.74168,0.8592c0.76585,1.0088 1.15413,2.39976 1.16103,3.53978c0.0259,4.27997 0.02729,4.50811 0.0532,8.78807l-3.38434,5.2553l-2.38744,-5.28949l-4.19792,3.09533l-4.29596,-4.12145l-6.09387,5.40008l-6.61858,-4.85019l-3.79705,4.22968l-5.06157,-3.73131l-5.34375,3.87045l-2.37938,-4.90688l-5.33858,4.25029l-6.6031,-3.7107l-1.85466,5.3434l-8.53518,-4.06476l-3.02629,4.21937l-3.54068,-5.27126l-5.33342,4.63012l-5.06674,-4.11115l-1.48476,4.19875l-4.68135,-4.1163l-2.63574,4.59404z" data-paper-data="{&quot;origRot&quot;:0}" fill="#67db68" stroke="#39a75c" stroke-width="1.5"/><path d="M174.18933,250.15973c0.40455,-0.96782 1.51708,-1.42444 2.4849,-1.01988c0.96782,0.40455 1.42444,1.51708 1.01988,2.4849c-0.40455,0.96782 -1.51708,1.42444 -2.4849,1.01989c-0.96782,-0.40455 -1.42444,-1.51708 -1.01988,-2.4849z" data-paper-data="{&quot;origRot&quot;:0}" fill="#d6954b" stroke="none" stroke-width="1"/></g><path d="" data-paper-data="{&quot;origPos&quot;:null}" fill="url(#color-2)" stroke="none" stroke-width="1.22826" stroke-linecap="butt"/><g data-paper-data="{&quot;origRot&quot;:0,&quot;index&quot;:null}" stroke-linecap="butt"><path d="M326.59108,248.65252c-0.52745,-0.90672 -0.22001,-2.06934 0.6867,-2.59679c0.90672,-0.52745 2.06934,-0.22002 2.59679,0.6867c0.52745,0.90672 0.22001,2.06934 -0.6867,2.59679c-0.90672,0.52745 -2.06934,0.22001 -2.59679,-0.6867z" fill="#d6954b" stroke="none" stroke-width="1"/><path d="M349.97048,243.21399c-0.52745,-0.90672 -0.22001,-2.06934 0.68671,-2.59679c0.90672,-0.52746 2.06934,-0.22002 2.59679,0.6867c0.52745,0.90672 0.22002,2.06934 -0.6867,2.59679c-0.90672,0.52745 -2.06934,0.22002 -2.5968,-0.6867z" fill="#d6954b" stroke="none" stroke-width="1"/><path d="M373.95299,245.1849c-0.52745,-0.90672 -0.22001,-2.06934 0.68671,-2.59679c0.90672,-0.52745 2.06934,-0.22002 2.59679,0.6867c0.52745,0.90672 0.22002,2.06934 -0.68669,2.5968c-0.90672,0.52745 -2.06934,0.22001 -2.5968,-0.6867z" fill="#d6954b" stroke="none" stroke-width="1"/><path d="M387.92511,208.50581c0,0 3.15518,1.41855 3.54861,2.82946c0.7957,2.85352 2.10748,12.93703 2.10748,12.93703l-4.159,-1.99361l-2.38264,5.79274l-5.41276,-3.61545l-2.21596,4.95738l-4.34207,-3.12569l-3.37253,6.06922l-6.44283,-2.53893l-0.37586,4.83785l-6.21959,-2.20687l-3.16291,4.43305l-5.57943,-2.78009l-4.17427,5.10994l-4.9448,-3.35176l-3.2218,5.63272l-6.42964,-2.93704l-4.3788,4.37825l-4.36354,-2.72528l-3.01727,6.36442l-5.74461,-1.93929l-1.74398,5.2141l-6.32035,-2.56729l-0.048,0.05315c-1.01457,-3.73784 -1.68501,-5.62504 -2.69958,-9.36289c-0.29883,-1.10092 -0.239,-3.07904 0.24381,-4.11258c0.34787,-0.74468 1.75498,-1.92404 3.82835,-2.48934c6.22011,-1.6959 81.02397,-22.8632 81.02397,-22.8632z" data-paper-data="{&quot;origPos&quot;:null,&quot;origRot&quot;:0}" fill="#67db68" stroke="#39a75c" stroke-width="1.5"/></g><g fill="#52b846" stroke="#3c8b35" stroke-width="1" stroke-linecap="butt"><path d="M406.26359,240.34804c2.21247,0 17.36667,0 20.83637,0c0.44531,0 0.9185,0.45845 0.9185,0.80284c0,0.78259 0,3.811 0,5.20909c0,0.42604 -0.49635,0.75149 -0.9185,0.75149c-1.96021,0 -16.73076,0 -20.83637,0c-0.66994,0 -0.88788,-0.17386 -0.88788,-0.69547c0,-1.42125 0,-4.40073 0,-5.20909c0,-0.43705 0.36721,-0.85885 0.88788,-0.85885z"/><path d="M407.07806,246.71936h18.96039v114.92996h-18.96039z"/></g><g fill="#52b846" stroke="#3c8b35" stroke-width="1" stroke-linecap="butt"><path d="M429.26359,219.34804c2.21247,0 17.36667,0 20.83637,0c0.44531,0 0.9185,0.45846 0.9185,0.80284c0,0.78259 0,3.811 0,5.20909c0,0.42604 -0.49635,0.75149 -0.9185,0.75149c-1.96021,0 -16.73076,0 -20.83637,0c-0.66994,0 -0.88788,-0.17387 -0.88788,-0.69548c0,-1.42126 0,-4.40073 0,-5.20909c0,-0.43705 0.36721,-0.85885 0.88788,-0.85885z"/><path d="M430.07807,225.71937h18.96039v46.01329h-18.96039z"/></g><g><path d="M282.53238,213.68615c10.11354,0 19.27779,4.10748 25.91366,10.74335c6.63587,6.63586 10.74335,15.80012 10.74335,25.91366c0,10.11354 -4.10748,19.27779 -10.74335,25.91366c-6.63587,6.63587 -15.80012,10.74335 -25.91366,10.74335c-10.11354,0 -19.27779,-4.10748 -25.91366,-10.74335c-6.63586,-6.63587 -10.74335,-15.80012 -10.74335,-25.91366c0,-10.11354 4.10748,-19.27779 10.74335,-25.91366c6.63587,-6.63586 15.80012,-10.74335 25.91366,-10.74335z" fill="#b85e32" stroke="#763e13" stroke-width="1" stroke-linecap="butt"/><path d="M298.78538,260.78945c-1.04897,0 -1.89932,-0.85036 -1.89932,-1.89933c0,-1.04897 0.85035,-1.89932 1.89932,-1.89932c1.04897,0 1.89933,0.85035 1.89933,1.89932c0,1.04897 -0.85036,1.89933 -1.89933,1.89933z" data-paper-data="{&quot;index&quot;:null}" fill="#d6954b" stroke="none" stroke-width="1" stroke-linecap="butt"/><path d="M297.64579,237.61766c-1.04897,0 -1.89933,-0.85036 -1.89933,-1.89933c0,-1.04897 0.85036,-1.89933 1.89933,-1.89933c1.04897,0 1.89932,0.85036 1.89932,1.89933c0,1.04897 -0.85035,1.89933 -1.89932,1.89933z" data-paper-data="{&quot;index&quot;:null}" fill="#d6954b" stroke="none" stroke-width="1" stroke-linecap="butt"/><path d="M283.9706,245.97471c-1.04897,0 -1.89933,-0.85036 -1.89933,-1.89933c0,-1.04897 0.85036,-1.89932 1.89933,-1.89932c1.04897,0 1.89933,0.85035 1.89933,1.89932c0,1.04897 -0.85036,1.89933 -1.89933,1.89933z" data-paper-data="{&quot;index&quot;:null}" fill="#d6954b" stroke="none" stroke-width="1" stroke-linecap="butt"/><path d="M271.81489,257.7505c-1.04897,0 -1.89933,-0.85036 -1.89933,-1.89933c0,-1.04897 0.85036,-1.89933 1.89933,-1.89933c1.04897,0 1.89932,0.85036 1.89932,1.89933c0,1.04897 -0.85035,1.89933 -1.89932,1.89933z" data-paper-data="{&quot;index&quot;:null}" fill="#d6954b" stroke="none" stroke-width="1" stroke-linecap="butt"/><path d="M263.17868,243.81562c-1.04897,0 -1.89932,-0.85036 -1.89932,-1.89933c0,-1.04897 0.85035,-1.89933 1.89932,-1.89933c1.04897,0 1.89933,0.85036 1.89933,1.89933c0,1.04897 -0.85036,1.89933 -1.89933,1.89933z" data-paper-data="{&quot;index&quot;:null}" fill="#d6954b" stroke="none" stroke-width="1" stroke-linecap="butt"/><path d="M274.474,231.91968c-1.04897,0 -1.89933,-0.85036 -1.89933,-1.89933c0,-1.04897 0.85036,-1.89933 1.89933,-1.89933c1.04897,0 1.89932,0.85036 1.89932,1.89933c0,1.04897 -0.85035,1.89933 -1.89932,1.89933z" data-paper-data="{&quot;index&quot;:null}" fill="#d6954b" stroke="none" stroke-width="1" stroke-linecap="butt"/><path d="M282.16155,212.54655c10.11354,0 18.96857,4.49799 25.91366,10.74335c6.37604,5.73977 10.79881,14.87591 11.50308,23.8244c1.0697,10.64724 -6.09988,31.78789 -6.45771,31.90868c-0.36012,0.12156 2.77112,-20.38092 1.13959,-30.38923c-1.2319,-7.17414 -4.35858,-14.47477 -9.8765,-19.37314c-1.05417,-0.93533 -4.54283,-5.35804 -4.54283,-5.35804l-5.29935,1.49119l-6.87188,-5.94227l-6.8376,5.25074l-6.48978,-3.59855l-5.02604,5.37134l-5.76963,-1.53765l-2.08769,5.46283c0,0 -7.96881,10.80451 -8.7369,17.47381c-0.6283,9.31734 4.36959,27.19456 3.52591,27.24318c-6.91005,0.3922 -6.40613,-4.81122 -8.8246,-11.29609c-1.46496,-3.92811 -1.91874,-10.42518 -1.91874,-14.61757c0,-10.11354 4.10748,-19.27779 10.74335,-25.91366c6.63587,-6.63586 15.80012,-10.74335 25.91366,-10.74335z" fill="#67db68" stroke="#39a75c" stroke-width="1.5" stroke-linecap="round"/></g><g fill="#52b846" stroke="#3c8b35" stroke-width="1" stroke-linecap="butt"><path d="M148.26353,199.34804c2.21247,0 17.36667,0 20.83638,0c0.4453,0 0.91851,0.45846 0.91851,0.80284c0,0.78259 0,3.811 0,5.20909c0,0.42604 -0.49636,0.75149 -0.91851,0.75149c-1.96021,0 -16.73076,0 -20.83638,0c-0.66994,0 -0.88787,-0.17387 -0.88787,-0.69548c0,-1.42126 0,-4.40073 0,-5.20909c0,-0.43705 0.3672,-0.85885 0.88787,-0.85885z"/><path d="M149.078,205.71937h18.96039v157.92996h-18.96039z"/></g><path d="M270.77932,310.40374l-3.90938,-3.57337l-3.20574,5.34623l-2.6927,-3.54731l-3.5744,5.45866l-6.48996,-2.78634l-1.76757,6.09904l-4.1673,-3.09758l-5.59932,5.07925l-4.68651,-3.13367l-5.15974,5.54503l-6.37923,-2.42298l-0.77236,5.39837l-6.2685,-2.05961l-3.68513,5.0953l-4.9046,-2.87272l-4.1483,5.70156c-0.87578,-5.69824 -5.49453,-7.34193 -8.08627,-7.81606c-2.36728,-1.91963 -4.31922,-3.46878 -7.04957,-4.98577c18.77596,-5.85332 77.08415,-24.03049 77.08415,-24.03049z" data-paper-data="{&quot;origRot&quot;:0}" fill="#67db68" stroke="#39a75c" stroke-width="1.5" stroke-linecap="butt"/><path d="M191.79382,255.87105c0.40455,-0.96782 1.51708,-1.42444 2.48489,-1.01988c0.96782,0.40455 1.42444,1.51707 1.01989,2.48489c-0.40455,0.96782 -1.51708,1.42445 -2.4849,1.01989c-0.96782,-0.40455 -1.42444,-1.51708 -1.01988,-2.4849z" data-paper-data="{&quot;origRot&quot;:0}" fill="#d6954b" stroke="none" stroke-width="1" stroke-linecap="butt"/><path d="M213.79382,280.87104c0.40455,-0.96782 1.51708,-1.42444 2.48489,-1.01988c0.96782,0.40455 1.42444,1.51707 1.01989,2.48489c-0.40455,0.96782 -1.51708,1.42445 -2.4849,1.01989c-0.96782,-0.40455 -1.42444,-1.51708 -1.01988,-2.4849z" data-paper-data="{&quot;origRot&quot;:0}" fill="#d6954b" stroke="none" stroke-width="1" stroke-linecap="butt"/><path d="M175.29382,266.87104c0.40455,-0.96782 1.51708,-1.42444 2.48489,-1.01988c0.96782,0.40455 1.42444,1.51707 1.01989,2.48489c-0.40455,0.96782 -1.51708,1.42445 -2.4849,1.01989c-0.96782,-0.40455 -1.42444,-1.51708 -1.01988,-2.4849z" data-paper-data="{&quot;origRot&quot;:0}" fill="#d6954b" stroke="none" stroke-width="1" stroke-linecap="butt"/><path d="M287.2938,268.37104c0.40455,-0.96782 1.51707,-1.42444 2.48489,-1.01988c0.96782,0.40455 1.42444,1.51707 1.01989,2.48489c-0.40455,0.96782 -1.51708,1.42445 -2.4849,1.01989c-0.96782,-0.40455 -1.42444,-1.51708 -1.01988,-2.4849z" data-paper-data="{&quot;origRot&quot;:0}" fill="#d6954b" stroke="none" stroke-width="1" stroke-linecap="butt"/><path d="M330.2938,260.37104c0.40455,-0.96782 1.51707,-1.42444 2.48489,-1.01988c0.96782,0.40455 1.42444,1.51707 1.01989,2.48489c-0.40455,0.96782 -1.51708,1.42445 -2.4849,1.01989c-0.96782,-0.40455 -1.42444,-1.51708 -1.01988,-2.4849z" data-paper-data="{&quot;origRot&quot;:0}" fill="#d6954b" stroke="none" stroke-width="1" stroke-linecap="butt"/><path d="M342.29383,251.87105c0.40455,-0.96782 1.51707,-1.42444 2.48489,-1.01988c0.96782,0.40455 1.42444,1.51707 1.01989,2.48489c-0.40455,0.96782 -1.51708,1.42445 -2.4849,1.01989c-0.96782,-0.40455 -1.42444,-1.51708 -1.01988,-2.4849z" data-paper-data="{&quot;origRot&quot;:0}" fill="#d6954b" stroke="none" stroke-width="1" stroke-linecap="butt"/><path d="M242.29382,286.37104c0.40455,-0.96782 1.51708,-1.42444 2.48489,-1.01988c0.96782,0.40455 1.42444,1.51707 1.01989,2.48489c-0.40455,0.96782 -1.51708,1.42445 -2.4849,1.01989c-0.96782,-0.40455 -1.42444,-1.51708 -1.01988,-2.4849z" data-paper-data="{&quot;origRot&quot;:0}" fill="#d6954b" stroke="none" stroke-width="1" stroke-linecap="butt"/><path d="M185.29382,281.87104c0.40455,-0.96782 1.51708,-1.42444 2.48489,-1.01988c0.96782,0.40455 1.42444,1.51707 1.01989,2.48489c-0.40455,0.96782 -1.51708,1.42445 -2.4849,1.01989c-0.96782,-0.40455 -1.42444,-1.51708 -1.01988,-2.4849z" data-paper-data="{&quot;origRot&quot;:0}" fill="#d6954b" stroke="none" stroke-width="1" stroke-linecap="butt"/><path d="M197.29382,294.37104c0.40455,-0.96782 1.51708,-1.42444 2.48489,-1.01988c0.96782,0.40455 1.42444,1.51707 1.01989,2.48489c-0.40455,0.96782 -1.51708,1.42445 -2.4849,1.01989c-0.96782,-0.40455 -1.42444,-1.51708 -1.01988,-2.4849z" data-paper-data="{&quot;origRot&quot;:0}" fill="#d6954b" stroke="none" stroke-width="1" stroke-linecap="butt"/><path d="M197.29382,269.37104c0.40455,-0.96782 1.51708,-1.42444 2.48489,-1.01988c0.96782,0.40455 1.42444,1.51707 1.01989,2.48489c-0.40455,0.96782 -1.51708,1.42445 -2.4849,1.01989c-0.96782,-0.40455 -1.42444,-1.51708 -1.01988,-2.4849z" data-paper-data="{&quot;origRot&quot;:0}" fill="#d6954b" stroke="none" stroke-width="1" stroke-linecap="butt"/><path d="M177.79382,294.37104c0.40455,-0.96782 1.51708,-1.42444 2.48489,-1.01988c0.96782,0.40455 1.42444,1.51707 1.01989,2.48489c-0.40455,0.96782 -1.51708,1.42445 -2.4849,1.01989c-0.96782,-0.40455 -1.42444,-1.51708 -1.01988,-2.4849z" data-paper-data="{&quot;origRot&quot;:0}" fill="#d6954b" stroke="none" stroke-width="1" stroke-linecap="butt"/><path d="M234.29382,269.37104c0.40455,-0.96782 1.51708,-1.42444 2.48489,-1.01988c0.96782,0.40455 1.42444,1.51707 1.01989,2.48489c-0.40455,0.96782 -1.51708,1.42445 -2.4849,1.01989c-0.96782,-0.40455 -1.42444,-1.51708 -1.01988,-2.4849z" data-paper-data="{&quot;origRot&quot;:0}" fill="#d6954b" stroke="none" stroke-width="1" stroke-linecap="butt"/><path d="M216.29382,299.87104c0.40455,-0.96782 1.51708,-1.42444 2.48489,-1.01988c0.96782,0.40455 1.42444,1.51707 1.01989,2.48489c-0.40455,0.96782 -1.51708,1.42445 -2.4849,1.01989c-0.96782,-0.40455 -1.42444,-1.51708 -1.01988,-2.4849z" data-paper-data="{&quot;origRot&quot;:0}" fill="#d6954b" stroke="none" stroke-width="1" stroke-linecap="butt"/><path d="M360.79383,256.37104c0.40455,-0.96782 1.51707,-1.42444 2.48489,-1.01988c0.96782,0.40455 1.42444,1.51707 1.01989,2.48489c-0.40455,0.96782 -1.51708,1.42445 -2.4849,1.01989c-0.96782,-0.40455 -1.42444,-1.51708 -1.01988,-2.4849z" data-paper-data="{&quot;origRot&quot;:0}" fill="#d6954b" stroke="none" stroke-width="1" stroke-linecap="butt"/><path d="M382.29383,233.87106c0.40455,-0.96782 1.51707,-1.42444 2.48489,-1.01989c0.96782,0.40455 1.42444,1.51708 1.01989,2.4849c-0.40455,0.96782 -1.51708,1.42444 -2.4849,1.01989c-0.96782,-0.40455 -1.42444,-1.51708 -1.01988,-2.4849z" data-paper-data="{&quot;origRot&quot;:0}" fill="#d6954b" stroke="none" stroke-width="1" stroke-linecap="butt"/><path d="M384.79383,257.37104c0.40455,-0.96782 1.51707,-1.42444 2.48489,-1.01988c0.96782,0.40455 1.42444,1.51707 1.01989,2.48489c-0.40455,0.96782 -1.51708,1.42445 -2.4849,1.01989c-0.96782,-0.40455 -1.42444,-1.51708 -1.01988,-2.4849z" data-paper-data="{&quot;origRot&quot;:0}" fill="#d6954b" stroke="none" stroke-width="1" stroke-linecap="butt"/><path d="M228.29382,325.87104c0.40455,-0.96782 1.51708,-1.42444 2.48489,-1.01988c0.96782,0.40455 1.42444,1.51707 1.01989,2.48489c-0.40455,0.96782 -1.51708,1.42445 -2.4849,1.01989c-0.96782,-0.40455 -1.42444,-1.51708 -1.01988,-2.4849z" data-paper-data="{&quot;origRot&quot;:0}" fill="#d6954b" stroke="none" stroke-width="1" stroke-linecap="butt"/><path d="M176.54382,310.62104c0.40455,-0.96782 1.51708,-1.42444 2.48489,-1.01988c0.96782,0.40455 1.42444,1.51707 1.01989,2.48489c-0.40455,0.96782 -1.51708,1.42445 -2.4849,1.01989c-0.96782,-0.40455 -1.42444,-1.51708 -1.01988,-2.4849z" data-paper-data="{&quot;origRot&quot;:0}" fill="#d6954b" stroke="none" stroke-width="1" stroke-linecap="butt"/><path d="M169.04382,322.37104c0.40455,-0.96782 1.51708,-1.42444 2.48489,-1.01988c0.96782,0.40455 1.42444,1.51707 1.01989,2.48489c-0.40455,0.96782 -1.51708,1.42445 -2.4849,1.01989c-0.96782,-0.40455 -1.42444,-1.51708 -1.01988,-2.4849z" data-paper-data="{&quot;origRot&quot;:0}" fill="#d6954b" stroke="none" stroke-width="1" stroke-linecap="butt"/><path d="M278.2938,308.12104c0.40455,-0.96782 1.51708,-1.42444 2.48489,-1.01988c0.96782,0.40455 1.42444,1.51707 1.01989,2.48489c-0.40455,0.96782 -1.51708,1.42445 -2.4849,1.01989c-0.96782,-0.40455 -1.42444,-1.51708 -1.01988,-2.4849z" data-paper-data="{&quot;origRot&quot;:0}" fill="#d6954b" stroke="none" stroke-width="1" stroke-linecap="butt"/><path d="M184.04382,328.87104c0.40455,-0.96782 1.51708,-1.42444 2.48489,-1.01988c0.96782,0.40455 1.42444,1.51707 1.01989,2.48489c-0.40455,0.96782 -1.51708,1.42445 -2.4849,1.01989c-0.96782,-0.40455 -1.42444,-1.51708 -1.01988,-2.4849z" data-paper-data="{&quot;origRot&quot;:0}" fill="#d6954b" stroke="none" stroke-width="1" stroke-linecap="butt"/><path d="M173.04382,340.37107c0.40455,-0.96782 1.51708,-1.42444 2.48489,-1.01988c0.96782,0.40455 1.42444,1.51707 1.01989,2.48489c-0.40455,0.96782 -1.51708,1.42445 -2.4849,1.01989c-0.96782,-0.40455 -1.42444,-1.51708 -1.01988,-2.4849z" data-paper-data="{&quot;origRot&quot;:0}" fill="#d6954b" stroke="none" stroke-width="1" stroke-linecap="butt"/><path d="M195.79382,340.87107c0.40455,-0.96782 1.51708,-1.42444 2.48489,-1.01988c0.96782,0.40455 1.42444,1.51707 1.01989,2.48489c-0.40455,0.96782 -1.51708,1.42445 -2.4849,1.01989c-0.96782,-0.40455 -1.42444,-1.51708 -1.01988,-2.4849z" data-paper-data="{&quot;origRot&quot;:0}" fill="#d6954b" stroke="none" stroke-width="1" stroke-linecap="butt"/><path d="M218.54382,334.12104c0.40455,-0.96782 1.51708,-1.42444 2.48489,-1.01988c0.96782,0.40455 1.42444,1.51707 1.01989,2.48489c-0.40455,0.96782 -1.51708,1.42445 -2.4849,1.01989c-0.96782,-0.40455 -1.42444,-1.51708 -1.01988,-2.4849z" data-paper-data="{&quot;origRot&quot;:0}" fill="#d6954b" stroke="none" stroke-width="1" stroke-linecap="butt"/><path d="" data-paper-data="{&quot;origRot&quot;:0}" fill="#d6954b" stroke="none" stroke-width="1" stroke-linecap="butt"/><path d="" data-paper-data="{&quot;origRot&quot;:0}" fill="#d6954b" stroke="none" stroke-width="1" stroke-linecap="butt"/><path d="M240.54382,338.62107c0.40455,-0.96782 1.51708,-1.42444 2.48489,-1.01988c0.96782,0.40455 1.42444,1.51707 1.01989,2.48489c-0.40455,0.96782 -1.51708,1.42445 -2.4849,1.01989c-0.96782,-0.40455 -1.42444,-1.51708 -1.01988,-2.4849z" data-paper-data="{&quot;origRot&quot;:0}" fill="#d6954b" stroke="none" stroke-width="1" stroke-linecap="butt"/><path d="" data-paper-data="{&quot;origRot&quot;:0}" fill="#d6954b" stroke="none" stroke-width="1" stroke-linecap="butt"/><path d="M267.2938,324.62104c0.40455,-0.96782 1.51708,-1.42444 2.48489,-1.01988c0.96782,0.40455 1.42444,1.51707 1.01989,2.48489c-0.40455,0.96782 -1.51708,1.42445 -2.4849,1.01989c-0.96782,-0.40455 -1.42444,-1.51708 -1.01988,-2.4849z" data-paper-data="{&quot;origRot&quot;:0}" fill="#d6954b" stroke="none" stroke-width="1" stroke-linecap="butt"/><path d="M249.79382,324.62104c0.40455,-0.96782 1.51708,-1.42444 2.48489,-1.01988c0.96782,0.40455 1.42444,1.51707 1.01989,2.48489c-0.40455,0.96782 -1.51708,1.42445 -2.4849,1.01989c-0.96782,-0.40455 -1.42444,-1.51708 -1.01988,-2.4849z" data-paper-data="{&quot;origRot&quot;:0}" fill="#d6954b" stroke="none" stroke-width="1" stroke-linecap="butt"/><path d="M271.2938,340.62107c0.40455,-0.96782 1.51708,-1.42444 2.48489,-1.01988c0.96782,0.40455 1.42444,1.51707 1.01989,2.48489c-0.40455,0.96782 -1.51708,1.42445 -2.4849,1.01989c-0.96782,-0.40455 -1.42444,-1.51708 -1.01988,-2.4849z" data-paper-data="{&quot;origRot&quot;:0}" fill="#d6954b" stroke="none" stroke-width="1" stroke-linecap="butt"/><path d="M286.7938,327.62104c0.40455,-0.96782 1.51708,-1.42444 2.48489,-1.01988c0.96782,0.40455 1.42444,1.51707 1.01989,2.48489c-0.40455,0.96782 -1.51708,1.42445 -2.4849,1.01989c-0.96782,-0.40455 -1.42444,-1.51708 -1.01988,-2.4849z" data-paper-data="{&quot;origRot&quot;:0}" fill="#d6954b" stroke="none" stroke-width="1" stroke-linecap="butt"/><path d="M304.2938,336.62107c0.40455,-0.96782 1.51708,-1.42444 2.48489,-1.01988c0.96782,0.40455 1.42444,1.51707 1.01989,2.48489c-0.40455,0.96782 -1.51708,1.42445 -2.4849,1.01989c-0.96782,-0.40455 -1.42444,-1.51708 -1.01988,-2.4849z" data-paper-data="{&quot;origRot&quot;:0}" fill="#d6954b" stroke="none" stroke-width="1" stroke-linecap="butt"/><path d="M205.37692,192.62731c-0.66476,-0.69019 -0.74602,-2.19873 -0.74602,-2.19873v-8.22605c0,0 0.00993,-1.43973 0.77731,-2.25604c0.7321,-0.77879 2.52471,-0.81505 2.52471,-0.81505h7.99259c0,0 1.49791,0.05426 2.20127,0.71051c0.91797,0.85649 0.88812,2.06171 0.88812,2.06171v8.87004c0,0 -0.03678,1.22653 -0.81708,2.03126c-0.77974,0.80415 -2.16575,0.71051 -2.16575,0.71051h-8.46403c0,0 -1.35215,-0.01706 -2.19113,-0.88813z" fill="#ffde38" stroke="none" stroke-width="0" stroke-linecap="butt"/><path d="" fill="#a08408" stroke="none" stroke-width="0" stroke-linecap="butt"/><path d="" fill="#a08408" stroke="none" stroke-width="0" stroke-linecap="butt"/><g data-paper-data="{&quot;index&quot;:null}"><path d="" fill="#b85e32" stroke="#763e13" stroke-width="1" stroke-linecap="butt"/><path d="" data-paper-data="{&quot;index&quot;:null}" fill="#d6954b" stroke="none" stroke-width="1" stroke-linecap="butt"/><path d="" data-paper-data="{&quot;index&quot;:null}" fill="#d6954b" stroke="none" stroke-width="1" stroke-linecap="butt"/><path d="" data-paper-data="{&quot;index&quot;:null}" fill="#d6954b" stroke="none" stroke-width="1" stroke-linecap="butt"/><path d="" data-paper-data="{&quot;index&quot;:null}" fill="#d6954b" stroke="none" stroke-width="1" stroke-linecap="butt"/><path d="" data-paper-data="{&quot;index&quot;:null}" fill="#d6954b" stroke="none" stroke-width="1" stroke-linecap="butt"/><path d="" data-paper-data="{&quot;index&quot;:null}" fill="#d6954b" stroke="none" stroke-width="1" stroke-linecap="butt"/><path d="" fill="#67db68" stroke="#39a75c" stroke-width="1.5" stroke-linecap="round"/></g><g stroke-linecap="butt"><path d="M412.17626,276.25014l69.2494,-0.11675l-0.28059,27.16729l-69.24301,0.06128z" data-paper-data="{&quot;origRot&quot;:0}" fill="#b85e32" stroke="#88451b" stroke-width="1.5"/><path d="M462.29385,297.87104c0.40455,-0.96782 1.51708,-1.42444 2.48489,-1.01988c0.96782,0.40455 1.42444,1.51707 1.01989,2.48489c-0.40455,0.96782 -1.51708,1.42445 -2.4849,1.01989c-0.96782,-0.40455 -1.42444,-1.51708 -1.01988,-2.4849z" data-paper-data="{&quot;origRot&quot;:0}" fill="#d6954b" stroke="none" stroke-width="1"/><path d="M453.85103,292.39999c0.40455,-0.96782 1.51708,-1.42444 2.4849,-1.01988c0.96782,0.40455 1.42443,1.51707 1.01988,2.48489c-0.40455,0.96782 -1.51708,1.42444 -2.48489,1.01989c-0.96782,-0.40455 -1.42444,-1.51708 -1.01988,-2.4849z" data-paper-data="{&quot;origRot&quot;:0}" fill="#d6954b" stroke="none" stroke-width="1"/><path d="M415.68129,271.0098c0,0 58.13557,0.16059 62.8065,0.12702c1.55698,-0.01119 2.80235,0.20118 3.49168,1.1092c0.76585,1.0088 1.40413,2.14976 1.41103,3.28978c0.0259,4.27997 0.02729,4.50811 0.0532,8.78807l-3.38434,5.2553l-2.63744,-5.28949l-3.94792,3.09533l-4.29596,-4.12145l-6.09387,5.40008l-6.61858,-4.85019l-3.79705,4.22968l-5.72638,-4.22815l-1.85466,5.3434l-8.53518,-4.06476l-3.02629,4.21937l-3.54068,-5.27126l-5.33342,4.63012l-5.06674,-4.11115l-1.48476,4.19875l-4.68135,-4.1163l-2.63574,4.59404c0,0 0.08883,-9.94421 0.11551,-13.23044c0.00678,-0.83486 0.606,-2.51756 1.74876,-3.52277c1.24116,-1.09177 3.03369,-1.47418 3.03369,-1.47418z" data-paper-data="{&quot;origRot&quot;:0}" fill="#67db68" stroke="#39a75c" stroke-width="1.5"/><path d="M427.43934,291.40972c0.40455,-0.96782 1.51708,-1.42444 2.4849,-1.01988c0.96782,0.40455 1.42444,1.51708 1.01988,2.4849c-0.40455,0.96782 -1.51708,1.42444 -2.4849,1.01989c-0.96782,-0.40455 -1.42444,-1.51708 -1.01988,-2.4849z" data-paper-data="{&quot;origRot&quot;:0}" fill="#d6954b" stroke="none" stroke-width="1"/><path d="M442.79385,296.87104c0.40455,-0.96782 1.51708,-1.42444 2.48489,-1.01988c0.96782,0.40455 1.42444,1.51707 1.01989,2.48489c-0.40455,0.96782 -1.51708,1.42445 -2.4849,1.01989c-0.96782,-0.40455 -1.42444,-1.51708 -1.01988,-2.4849z" data-paper-data="{&quot;origRot&quot;:0}" fill="#d6954b" stroke="none" stroke-width="1"/><path d="M472.79385,291.37104c0.40455,-0.96782 1.51708,-1.42444 2.48489,-1.01988c0.96782,0.40455 1.42444,1.51707 1.01989,2.48489c-0.40455,0.96782 -1.51708,1.42445 -2.4849,1.01989c-0.96782,-0.40455 -1.42444,-1.51708 -1.01988,-2.4849z" data-paper-data="{&quot;origRot&quot;:0}" fill="#d6954b" stroke="none" stroke-width="1"/><path d="M416.68934,295.65972c0.40455,-0.96782 1.51708,-1.42444 2.4849,-1.01988c0.96782,0.40455 1.42444,1.51708 1.01988,2.4849c-0.40455,0.96782 -1.51708,1.42444 -2.4849,1.01989c-0.96782,-0.40455 -1.42444,-1.51708 -1.01988,-2.4849z" data-paper-data="{&quot;origRot&quot;:0}" fill="#d6954b" stroke="none" stroke-width="1"/></g><path d="M219.77693,192.62732c-0.66476,-0.69019 -0.74602,-2.19873 -0.74602,-2.19873v-8.22605c0,0 0.00993,-1.43973 0.77731,-2.25604c0.7321,-0.77879 2.52471,-0.81505 2.52471,-0.81505h7.99259c0,0 1.49791,0.05426 2.20127,0.71051c0.91797,0.85649 0.88812,2.06171 0.88812,2.06171v8.87004c0,0 -0.03678,1.22653 -0.81708,2.03126c-0.77974,0.80415 -2.16575,0.71051 -2.16575,0.71051h-8.46403c0,0 -1.35215,-0.01706 -2.19113,-0.88813z" fill="#a7531e" stroke="none" stroke-width="0" stroke-linecap="butt"/><path d="M190.97692,192.62731c-0.66476,-0.69019 -0.74602,-2.19873 -0.74602,-2.19873v-8.22605c0,0 0.00993,-1.43973 0.77731,-2.25604c0.7321,-0.77879 2.52471,-0.81505 2.52471,-0.81505h7.99259c0,0 1.49791,0.05426 2.20127,0.71051c0.91797,0.85649 0.88812,2.06171 0.88812,2.06171v8.87004c0,0 -0.03678,1.22653 -0.81708,2.03126c-0.77974,0.80415 -2.16575,0.71051 -2.16575,0.71051h-8.46403c0,0 -1.35215,-0.01706 -2.19113,-0.88813z" fill="#a7531e" stroke="none" stroke-width="0" stroke-linecap="butt"/></g></g></svg>