<svg version="1.1" xmlns="http://www.w3.org/2000/svg" xmlns:xlink="http://www.w3.org/1999/xlink" width="39.25651" height="39.31759" viewBox="0,0,39.25651,39.31759"><g transform="translate(-220.37219,-160.29363)"><g data-paper-data="{&quot;isPaintingLayer&quot;:true}" fill-rule="nonzero" stroke="none" stroke-linecap="butt" stroke-linejoin="miter" stroke-miterlimit="10" stroke-dasharray="" stroke-dashoffset="0" style="mix-blend-mode: normal"><path d="M259.60866,199.61123h-39.21734v-39.21734h39.21734z" data-paper-data="{&quot;index&quot;:null}" fill="#ff0000" stroke-width="0.90186"/><path d="M242.74159,165.9992v-5.70556h5.70556v5.70556z" data-paper-data="{&quot;index&quot;:null}" fill="#ffffff" stroke-width="0"/><path d="M231.60266,165.9992v-5.70556h5.70556v5.70556z" data-paper-data="{&quot;index&quot;:null}" fill="#ffffff" stroke-width="0"/><path d="M237.31294,193.84458v5.70556h-5.70556v-5.70556z" data-paper-data="{&quot;index&quot;:null}" fill="#ffffff" stroke-width="0"/><path d="M248.45185,193.84458v5.70556h-5.70556v-5.70556z" data-paper-data="{&quot;index&quot;:null}" fill="#ffffff" stroke-width="0"/><path d="M253.92314,182.71688h5.70556v5.70556h-5.70556z" data-paper-data="{&quot;index&quot;:null}" fill="#ffffff" stroke-width="0"/><path d="M253.92314,171.57797h5.70556v5.70556h-5.70556z" data-paper-data="{&quot;index&quot;:null}" fill="#ffffff" stroke-width="0"/><path d="M226.07776,177.28824h-5.70556v-5.70556h5.70556z" data-paper-data="{&quot;index&quot;:null}" fill="#ffffff" stroke-width="0"/><path d="M226.07776,188.42715h-5.70556v-5.70556h5.70556z" data-paper-data="{&quot;index&quot;:null}" fill="#ffffff" stroke-width="0"/><path d="M253.80607,193.8558h5.70556v5.70556h-5.70556z" data-paper-data="{&quot;index&quot;:null}" fill="#ffffff" stroke-width="0"/><path d="M253.80607,160.43903h5.70556v5.70556h-5.70556z" data-paper-data="{&quot;index&quot;:null}" fill="#ffffff" stroke-width="0"/><path d="M226.19482,166.1493h-5.70556v-5.70556h5.70556z" data-paper-data="{&quot;index&quot;:null}" fill="#ffffff" stroke-width="0"/><path d="M226.19482,199.56608h-5.70556v-5.70556h5.70556z" data-paper-data="{&quot;index&quot;:null}" fill="#ffffff" stroke-width="0"/><path d="M237.46968,186.69929h5.0606v3.91911h-5.0606z" fill="#ffffff" stroke-width="0.72044"/><path d="M237.46968,169.38671h5.0606v14.76325h-5.0606z" fill="#ffffff" stroke-width="0.72044"/></g></g></svg>