<svg version="1.1" xmlns="http://www.w3.org/2000/svg" xmlns:xlink="http://www.w3.org/1999/xlink" width="649.32998" height="409.41365" viewBox="0,0,649.32998,409.41365"><defs><linearGradient x1="81.27531" y1="-0.2631" x2="81.27531" y2="361.34409" gradientUnits="userSpaceOnUse" id="color-1"><stop offset="0" stop-color="#794f25"/><stop offset="1" stop-color="#ab6f34"/></linearGradient><linearGradient x1="-5.66499" y1="-9.73339" x2="-5.66499" y2="363.7334" gradientUnits="userSpaceOnUse" id="color-2"><stop offset="0" stop-color="#55381a"/><stop offset="1" stop-color="#6b4620"/></linearGradient></defs><g transform="translate(5.66499,26.04339)"><g data-paper-data="{&quot;isPaintingLayer&quot;:true}" fill-rule="nonzero" stroke-linejoin="miter" stroke-miterlimit="10" stroke-dasharray="" stroke-dashoffset="0" style="mix-blend-mode: normal"><path d="" fill="#714a23" stroke="none" stroke-width="0.5" stroke-linecap="butt"/><path d="" data-paper-data="{&quot;origPos&quot;:null}" fill="#714a23" stroke="none" stroke-width="0.5" stroke-linecap="butt"/><path d="" fill="#714a23" stroke="none" stroke-width="0.5" stroke-linecap="butt"/><path d="" data-paper-data="{&quot;origPos&quot;:null}" fill="#714a23" stroke="none" stroke-width="0.5" stroke-linecap="butt"/><path d="" data-paper-data="{&quot;origPos&quot;:null}" fill="url(#color-1)" stroke="#714a23" stroke-width="0" stroke-linecap="butt"/><path d="" fill="#714a23" stroke="none" stroke-width="0.5" stroke-linecap="butt"/><path d="" data-paper-data="{&quot;origPos&quot;:null}" fill="#714a23" stroke="none" stroke-width="0.5" stroke-linecap="butt"/><path d="" fill="#714a23" stroke="none" stroke-width="0.5" stroke-linecap="butt"/><path d="" data-paper-data="{&quot;origPos&quot;:null}" fill="#714a23" stroke="none" stroke-width="0.5" stroke-linecap="butt"/><g fill="#714a23" stroke="none" stroke-width="0.5" stroke-linecap="butt"><path d="" data-paper-data="{&quot;origPos&quot;:null}"/><path d="" data-paper-data="{&quot;origPos&quot;:null}"/><path d=""/><path d=""/><path d=""/><path d=""/><path d=""/><path d="" data-paper-data="{&quot;origPos&quot;:null}"/><path d=""/><path d=""/><path d=""/><path d=""/><path d=""/><path d="" data-paper-data="{&quot;origPos&quot;:null}"/><path d="" data-paper-data="{&quot;origPos&quot;:null}"/><path d="" data-paper-data="{&quot;origPos&quot;:null}"/><path d="" data-paper-data="{&quot;origPos&quot;:null}"/><path d="" data-paper-data="{&quot;origPos&quot;:null}"/><path d="" data-paper-data="{&quot;origPos&quot;:null}"/><path d="" data-paper-data="{&quot;origPos&quot;:null}"/><path d="" data-paper-data="{&quot;origPos&quot;:null}"/><path d=""/><path d=""/><path d=""/><path d=""/><path d=""/><path d="" data-paper-data="{&quot;origPos&quot;:null}"/><path d=""/><path d=""/><path d=""/><path d=""/><path d=""/><path d="" data-paper-data="{&quot;origPos&quot;:null}"/><path d="" data-paper-data="{&quot;origPos&quot;:null}"/><path d="" data-paper-data="{&quot;origPos&quot;:null}"/><path d="" data-paper-data="{&quot;origPos&quot;:null}"/><path d="" data-paper-data="{&quot;origPos&quot;:null}"/><path d="" data-paper-data="{&quot;origPos&quot;:null}"/></g><g><path d="" data-paper-data="{&quot;origPos&quot;:null}" fill="none" stroke="#4f3215" stroke-width="2.5" stroke-linecap="butt"/><path d="" data-paper-data="{&quot;origPos&quot;:null}" fill="#4f3215" stroke="none" stroke-width="0" stroke-linecap="round"/><path d="" data-paper-data="{&quot;origPos&quot;:null}" fill="none" stroke="#4f3215" stroke-width="2.5" stroke-linecap="round"/></g><path d="M-5.66499,-9.73339h649.32998v373.46679h-649.32998z" fill="url(#color-2)" stroke="#714a23" stroke-width="0" stroke-linecap="butt"/><g fill="#3c2713" stroke="none" stroke-width="0.5" stroke-linecap="butt"><path d="M23.53232,341.38285c-1.12966,-10.87331 -1.8571,-21.91017 -2.79513,-32.85734c-1.21936,-14.23037 -3.10486,-28.41619 -3.96801,-42.75312c-0.40766,-6.7712 -0.19555,-13.93986 -0.29116,-20.75581c-0.14509,-10.34348 -0.43364,-20.90615 -0.02365,-31.24256c0.62234,-15.69014 2.76872,-31.34349 2.76872,-47.13729c0,-0.60035 0.05469,-1.17469 0.15446,-1.70348c0.2273,-1.3626 0.7891,-3.04652 2.17766,-3.04652c1.38855,0 1.95036,1.68392 2.17766,3.04652c0.09977,0.52879 0.15446,1.10313 0.15446,1.70348v4h-0.04191c-0.3048,14.89911 -2.1858,29.6594 -2.77369,44.48079c-0.38792,9.78005 -0.06866,19.84066 0.06863,29.62774c0.09553,6.80967 -0.12562,13.99306 0.29116,20.75581c0.85136,13.81449 2.71064,27.52163 3.88754,41.24688c0.93278,10.87835 1.64255,21.85897 2.77555,32.65945c1.2857,12.31799 0.76308,25.59453 0.70708,38.22244c-1.5545,0 -3.10899,0 -4.66349,0c0.06157,-11.94852 0.60795,-24.61759 -0.60588,-36.24699z"/><path d="M1.54816,366.6368c0,-6.3439 0.11294,-12.66654 -0.23122,-18.97545c-0.73009,-13.4481 -2.6391,-26.52065 -3.20558,-40.02455c-0.45444,-10.83296 0,-22.12121 0,-33c0,0 0,-4.75 2.33212,-4.75c2.33212,0 2.33212,4.75 2.33212,4.75c0,10.89235 -0.42863,22.14835 0,33c0.51824,13.12047 2.45983,25.88712 3.17705,38.97545c0.53081,9.73026 0.25975,19.73401 0.25975,29.52455c0,0.49451 0.00097,0.99235 0.00263,1.49311c-1.54852,0 -3.09705,0 -4.64557,0c0.00117,-3.66486 -0.02129,-7.33098 -0.02129,-10.99311z"/><path d="M45.76728,377.41694c-0.07429,-4.05068 -0.68562,-8.2851 -1.00309,-12.27182c-0.56337,-7.07456 -0.99283,-14.22231 -1.71055,-21.23922c-0.7451,-7.28451 -1.69127,-14.61152 -2.2232,-21.9728c-0.60887,-8.42592 -0.49551,-17.30705 -0.49551,-25.7963c0,-12.75 0,-25.5 0,-38.25c0,-24.08333 0,-48.16667 0,-72.25c0,-8.75 -0.0014,-17.5 0,-26.25c0.0007,-4.3426 -0.14586,-8.67409 -0.14672,-13.01258c-0.0002,-1.0524 0.18865,-2.1231 0.08188,-3.15278c-0.35563,-3.42955 -1.369,-6.44869 -1.86733,-9.80374c-0.04149,-0.27938 -0.40775,-5.14733 -0.45307,-5.62885c-0.50598,-5.3759 -1.3831,-10.54115 -1.76459,-15.98029c-0.20022,-3.58152 -0.96154,-6.6172 -1.25087,-10.17175c-0.11375,-1.39742 0.28784,-2.84101 0.1668,-4.23589c-0.2654,-3.05864 -1.11783,-5.80927 -1.3625,-8.98321c-0.39745,-5.15595 -0.20692,-10.21547 -0.27035,-15.41659c-0.05448,-4.46713 -0.32036,-8.90414 -0.43968,-13.36431h-0.05816v-4c0,-0.60035 0.05468,-1.17469 0.15445,-1.70348c0.2273,-1.3626 0.7891,-3.04652 2.17766,-3.04652c1.38855,0 1.95036,1.68392 2.17766,3.04652c0.07981,0.42301 0.13077,0.87518 0.14797,1.34649l0.15195,3.63844l-0.10297,0.01784c0.10703,4.45251 0.38339,8.877 0.44162,13.3364c0.05322,4.07596 -0.17711,8.30255 0.00687,12.36431c0.15376,3.39457 1.01816,6.05596 1.30611,9.23589c0.23068,2.54755 -0.04407,5.20945 0.16681,7.76411c0.23673,2.86779 0.96479,5.79701 1.20399,8.82825c0.35876,5.11492 1.19002,9.96357 1.67221,15.01971c0.20164,2.11434 0.21624,4.31357 0.52887,6.37115c0.40617,2.67323 1.31074,5.07496 1.59718,7.83732c0.63522,6.1259 0.39746,13.39684 0.39843,19.69358c0.00135,8.75 0,17.5 0,26.25c0,24.08333 0,48.16667 0,72.25c0,12.75 0,25.5 0,38.25c0,8.28549 -0.11705,16.98162 0.48644,25.2037c0.50645,6.89988 1.43514,13.79301 2.13424,20.62783c1.20734,11.80358 2.18147,23.68502 2.58238,35.66156c-1.47706,0 -2.95413,0 -4.43118,0c-0.00118,-0.07101 -0.00244,-0.142 -0.00374,-0.21297z" data-paper-data="{&quot;origPos&quot;:null}"/><path d="M61.85084,-8.91936l-0.73645,2.5c-1.10485,3.70435 -2.22826,7.94538 -2.85898,12.05615c-0.14644,0.95448 0,2 0,3c0,4.61233 0.01749,8.98923 0.29785,13.55756c0.63153,10.2903 1.26997,20.57694 1.94289,30.85634c0.71345,10.89852 1.34236,21.83616 2.13806,32.71073c0.79071,10.80636 2.08161,21.4702 2.96532,32.24759c0.64835,7.90697 1.04167,15.9324 1.55083,23.88311c0.64356,10.04944 1.73947,19.85345 2.45652,29.85364c0.98251,13.70213 0.43185,28.09087 0.43185,41.89103c0,0.60035 -0.05468,1.17469 -0.15445,1.70348c-0.2273,1.3626 -0.7891,3.04652 -2.17766,3.04652c-1.38855,0 -1.95036,-1.68392 -2.17766,-3.04652c-0.09977,-0.52879 -0.15445,-1.10313 -0.15445,-1.70348v-7h0.03811c0.10595,-11.3318 0.34643,-22.91247 -0.45081,-34.03094c-0.70772,-9.87 -1.8009,-19.55993 -2.4365,-29.485c-0.50857,-7.94142 -0.89977,-15.95919 -1.54909,-23.85628c-0.87256,-10.6122 -2.14355,-21.11159 -2.92634,-31.75241c-0.81207,-11.03881 -1.45274,-22.14169 -2.17703,-33.20592c-0.67461,-10.30513 -1.31468,-20.61751 -1.94779,-30.93356c-0.21572,-3.51494 -0.32712,-6.64445 -0.33387,-10.23589c-0.00228,-1.21426 -0.21815,-5.733 0,-7.5c0.74544,-6.03786 1.97165,-11.62405 3.52366,-16.94385l0.2874,-0.97561c1.42004,0.00293 2.85853,0.00595 4.28412,0.0088c0.19962,1.71407 0.16448,3.35451 0.16448,3.35451z" data-paper-data="{&quot;origPos&quot;:null}"/><path d="M64.67406,336.06524c-0.42183,-21.47889 -0.29863,-42.9842 -0.28301,-64.48031l-1.13906,-1.39201l1.36447,-4.63189c0.26507,-1.27836 0.84396,-2.67426 2.10821,-2.67426c1.38855,0 1.95036,1.68392 2.17767,3.04652c0.09977,0.52879 0.15445,1.10313 0.15445,1.70348v4h-0.00158c-0.01599,21.35212 -0.13965,42.71405 0.27935,64.04877c0.27751,14.13087 1.93923,27.93125 3.52494,41.73521c-1.58888,0.0299 -3.17799,0.06691 -4.76701,0.10145c-1.56481,-13.70375 -3.14258,-27.411 -3.41843,-41.45695z" data-paper-data="{&quot;origPos&quot;:null}"/><path d="M89.47137,290.37532c-2.32648,0.3299 -2.48846,-4.40863 -2.48846,-4.40863l-0.00563,-1.3299c0,-7.41915 -0.90686,-14.30246 -1.46605,-21.63569c-0.32037,-4.20138 -0.27688,-8.56231 -0.4808,-12.79108c-0.66049,-13.69704 -1.68823,-27.29844 -2.08545,-41.05249c-0.72843,-25.22202 -1.28182,-50.28559 -1.35914,-75.52073h-0.00926v-6c0,-0.60035 0.05468,-1.17469 0.15445,-1.70348c0.2273,-1.3626 0.7891,-3.04652 2.17766,-3.04652c1.38855,0 1.95036,1.68392 2.17767,3.04652c0.09977,0.52879 0.15445,1.10313 0.15445,1.70348c0,27.0805 0.57955,53.92746 1.36035,80.96287c0.39153,13.55672 1.40809,26.96332 2.0594,40.4639c0.21035,4.36036 0.16231,8.87838 0.50115,13.20892c0.59481,7.60193 1.47978,14.6338 1.47978,22.36431l-0.00563,0.6701c0,0 0.16197,4.73853 -2.16451,5.06843z" data-paper-data="{&quot;origPos&quot;:null}"/><path d="M107.58441,336.39602c-0.22998,-13.49012 -0.94859,-26.90404 -1.09597,-40.41195c-0.25413,-23.29271 -0.34235,-46.55713 -0.35982,-69.84732h-0.00344v-9.5c0,-0.60035 0.05468,-1.17469 0.15445,-1.70348c0.2273,-1.3626 0.7891,-3.04652 2.17766,-3.04652c1.38855,0 1.95036,1.68392 2.17766,3.04652c0.09977,0.52879 0.15446,1.10313 0.15446,1.70348c0,26.39514 0.07419,52.74738 0.36211,79.13626c0.14577,13.36027 0.85859,26.62645 1.08606,39.96939c0.24658,14.46329 0.15583,28.99933 0.08143,43.51089c-1.54429,0.04396 -3.10497,0.08946 -4.66209,0.11697c0.07672,-14.33315 0.17098,-28.6916 -0.07251,-42.97424z" data-paper-data="{&quot;origPos&quot;:null}"/><path d="M137.66166,327.88212c-2.33204,0.0374 -2.3504,-4.71245 -2.3504,-4.71245l-0.00008,-1.0374c0,-0.83333 0,-1.66667 0,-2.5c0,-7.39292 -0.56131,-15.75107 0.11968,-23.00208c0.14847,-1.58088 0.69528,-2.92472 0.86227,-4.49792c0.17058,-1.60701 -0.04221,-3.2971 0.04529,-4.93155c0.07395,-1.38131 0.39354,-2.68302 0.44569,-4.06845c0.2663,-7.0746 0,-14.40516 0,-21.5c0,-9.24911 -0.29442,-18.27496 -0.49097,-27.5c-0.12228,-5.73885 0.26423,-11.92062 -0.1635,-17.58494c-0.26748,-3.54205 -1.04525,-6.87198 -1.30942,-10.41506c-0.23728,-3.18251 0,-6.75447 0,-10c0,0 0,-4.75 2.33212,-4.75c2.33212,0 2.33211,4.75 2.33211,4.75c0,3.23816 -0.24655,6.83016 0,10c0.2113,2.71675 0.93977,5.19679 1.14507,7.91545c0.49815,6.59676 0.18401,13.44171 0.32785,20.08455c0.19963,9.21909 0.49097,18.2528 0.49097,27.5c0,7.08373 0.28587,14.43964 0,21.5c-0.08112,2.00362 -0.4242,3.93412 -0.53626,5.93155c-0.05703,1.01666 0.13968,2.06339 0.04529,3.06845c-0.24077,2.56366 -0.83082,4.95088 -1.10162,7.50208c-0.16792,1.58198 0.11968,4.71661 0.11968,6.49792c0,4.5 0,9 0,13.5c0,0.83333 0,1.66667 0,2.5l-0.00007,0.9626c0,0 0.01835,4.74985 -2.31369,4.78725z" data-paper-data="{&quot;origPos&quot;:null}"/><path d="M170.01797,104.38855c2.32905,-0.24384 2.44876,4.4999 2.44876,4.4999l0.00307,1.24384c0,9.44242 -0.37162,18.34381 -1.38071,27.61951c-0.30707,2.82261 -0.90085,5.50425 -1.15242,8.34955c-1.00484,11.36521 -0.4127,23.78221 -0.4127,35.28094c0,15.33506 0.50094,30.44473 2.35173,45.35309c0.78271,6.30486 1.61811,13.26084 2.80275,19.27264c0.78971,4.00763 1.98784,7.39051 2.41029,11.69271c0.87179,8.9998 0.78175,17.80487 0.78175,26.93155c0,11.83333 0,23.66667 0,35.5v3c0,0.60035 -0.05469,1.17469 -0.15445,1.70348c-0.22731,1.3626 -0.78911,3.04652 -2.17766,3.04652c-1.38855,0 -1.95036,-1.68392 -2.17766,-3.04652c-0.09978,-0.52879 -0.15445,-1.10313 -0.15445,-1.70348c0,-1 0,-2 0,-3c0,-11.83333 0,-23.66667 0,-35.5c0,-8.48383 0.14245,-16.718 -0.69117,-25.06845c-0.34962,-3.56051 -1.34727,-5.93142 -2.00845,-9.30729c-1.2794,-6.53237 -2.23665,-13.90338 -3.08891,-20.72736c-1.97706,-15.83021 -2.55799,-31.8557 -2.55799,-48.14691c0,-11.7788 -0.59712,-24.50282 0.43186,-36.14103c0.73705,-8.33643 2.14934,-16.40847 2.54776,-24.91459c0.15456,-3.29956 -0.03378,-6.87417 -0.03378,-10.19438l0.00307,-0.75616c0,0 -0.11973,-4.74374 2.20932,-4.98757z"/><path d="M184.69151,6.38542c2.33056,-0.17324 2.41563,4.5736 2.41563,4.5736l0.00155,1.17324c0,10.4079 0.27907,20.62421 0.49097,31c0.12062,5.90647 -0.19401,11.87086 -0.08074,17.76095c0.03548,1.84489 0.81352,6.13213 0.95512,7.19952c0.99786,7.86877 1.00828,15.79487 1.60241,23.79246c0.23964,3.22585 0.79593,7.03515 0.96002,10.24707c0.34501,6.75361 0,13.9569 0,20.75c0,4.44872 0.17831,9.14449 -0.08973,13.55493c-0.25001,4.11369 -1.07487,8.32044 -1.41492,12.47597c0,0 -0.3834,4.68537 -2.68379,3.90448c-2.30039,-0.7809 -1.91699,-5.46627 -1.91699,-5.46627c0.36875,-4.50637 1.27313,-9.06193 1.53092,-13.52403c0.20114,-3.48134 -0.08973,-7.40536 -0.08973,-10.94507c0,-6.79036 0.34873,-14.00001 0,-20.75c-0.14676,-2.84063 -0.65965,-5.5598 -0.86944,-8.38396c-0.57421,-7.72944 -0.46992,-15.63827 -1.5315,-23.17746c-0.17874,-1.3473 -0.8863,-5.22369 -0.95512,-7.19952c-0.23465,-6.73653 0.05685,-13.50145 -0.08074,-20.23905c-0.2117,-10.36663 -0.49097,-20.59872 -0.49097,-31l0.00155,-0.82676c0,0 -0.08506,-4.74684 2.2455,-4.92008z"/><path d="M217.29266,340.8768c-2.32943,0.2279 -2.44401,-4.74453 -2.44401,-4.74453v-3c0.05966,-4.34618 0.7048,-8.03481 0.98584,-12.27592c1.06262,-16.03542 0.48707,-32.82881 0.48707,-48.97408c0.00025,-4.02748 -0.02619,-8.04918 -0.0578,-12.07593c-0.02148,-2.7363 0.22923,-5.50543 0.0235,-8.20981c-0.25255,-3.31985 -1.01176,-6.40097 -1.40523,-9.66345c-0.58629,-4.86119 -0.55327,-10.10369 -1.20499,-14.91109c-0.44923,-3.31376 -1.32418,-6.34202 -1.79614,-9.64265c-1.32715,-9.28128 -1.8385,-19.52062 -2.23121,-29.11901c-0.3933,-9.99811 -0.20173,-20.10043 -0.20173,-30.12806c0,-15 0,-30 0,-45v-6c0,-0.60035 0.05469,-1.17469 0.15445,-1.70348c0.22731,-1.3626 0.78911,-3.04652 2.17766,-3.04652c1.38855,0 1.95035,1.68392 2.17766,3.04652c0.09978,0.52879 0.15445,1.10313 0.15445,1.70348c0,2 0,4 0,6c0,15 0,30 0,45c0,9.74977 -0.23001,19.62301 0.18562,29.33913c0.37841,9.24882 0.87818,19.10335 2.15675,28.04484c0.39755,2.78023 1.19366,5.28432 1.57207,8.07561c0.73976,5.45676 0.78664,11.25416 1.45288,16.73962c0.13025,1.07246 1.2112,7.69277 1.27529,8.53525c0.55973,7.35784 0.23055,15.56487 0.23101,23.01555c0,14.93701 0.01458,29.81055 -0.37094,44.72996c-0.14261,5.519 -1.25446,11.0827 -1.10197,16.52004v3c0,0 0.10921,4.51663 -2.22023,4.74453z"/><path d="M231.24758,31.39514c2.32581,-0.34905 2.49719,4.3881 2.49719,4.3881l-0.48467,2.34905c0,3.46527 -0.29503,6.59082 -0.49097,10c-0.19551,3.40156 0,7.07856 0,10.5c-0.02124,10.3074 0.59384,20.70335 1.03188,30.96351c0.93236,21.83862 2.10322,43.46967 3.54452,65.19317c0.91237,13.769 2.6479,27.53717 3.27916,41.34332c0.44892,9.81826 0,20.13302 0,30c0,0.60035 -0.05469,1.17469 -0.15445,1.70348c-0.22731,1.3626 -0.7891,3.04652 -2.17766,3.04652c-1.38855,0 -1.95036,-1.68392 -2.17766,-3.04652c-0.09978,-0.52879 -0.15446,-1.10313 -0.15446,-1.70348v-6h0.04417c0.10221,-7.9958 0.31968,-16.16107 -0.04417,-24c-0.20331,-4.38013 -0.79379,-8.88646 -1.16427,-13.2254c-0.76224,-8.92691 -1.47634,-17.86602 -2.07286,-26.84571c-1.45114,-21.87174 -2.63027,-43.65465 -3.56901,-65.6424c-0.4504,-10.54962 -1.0322,-21.1896 -1.04941,-31.78649c0,-3.43416 -0.1794,-7.0825 0,-10.5c0.18057,-3.43967 0.49097,-6.5546 0.49097,-10l0.49728,-1.65095c0,0 -0.17138,-4.73716 2.15443,-5.08621z"/><path d="M270.70993,341.87837c-1.12966,-10.87331 -1.85709,-21.91017 -2.79512,-32.85734c-1.21936,-14.23037 -3.10487,-28.41619 -3.96801,-42.75312c-0.40765,-6.7712 -0.19555,-13.93986 -0.29116,-20.75581c-0.1451,-10.34348 -0.43364,-20.90615 -0.02365,-31.24256c0.62234,-15.69014 2.76872,-31.34349 2.76872,-47.13729c0,-0.60035 0.05469,-1.17469 0.15446,-1.70348c0.22731,-1.3626 0.7891,-3.04652 2.17766,-3.04652c1.38855,0 1.95036,1.68392 2.17766,3.04652c0.09978,0.52879 0.15445,1.10313 0.15445,1.70348v4h-0.0419c-0.30481,14.89911 -2.18581,29.6594 -2.7737,44.48079c-0.38792,9.78005 -0.06866,19.84066 0.06863,29.62774c0.09553,6.80967 -0.12563,13.99306 0.29116,20.75581c0.85136,13.81449 2.71064,27.52163 3.88754,41.24688c0.93279,10.87835 1.64253,21.85897 2.77554,32.65945c1.31989,12.64556 0.73401,26.30131 0.70366,39.22845c-1.55468,0 -3.10937,0 -4.66405,0c0.03344,-12.24135 0.64607,-25.29665 -0.60188,-37.253z"/><path d="M248.72571,367.1323c0,-6.3439 0.11295,-12.66654 -0.23122,-18.97545c-0.73009,-13.4481 -2.63911,-26.52065 -3.20558,-40.02455c-0.45443,-10.83296 0,-22.12121 0,-33c0,0 0,-4.75 2.33212,-4.75c2.33212,0 2.33212,4.75 2.33212,4.75c0,10.89235 -0.42863,22.14835 0,33c0.51824,13.12047 2.45983,25.88712 3.17706,38.97545c0.5308,9.73026 0.25975,19.73401 0.25975,29.52455c0,0.82441 0.0027,1.65807 0.00675,2.49912c-1.55021,0 -3.10044,0 -4.65065,0c0.00642,-3.99991 -0.02034,-8.0019 -0.02034,-11.99912z"/><path d="M190.78972,351.1223c-0.09332,-2.92594 0.04291,-5.87772 -0.10868,-8.79353c-0.32819,-6.31305 -1.32893,-12.42952 -1.83966,-18.67192c-0.32525,-3.97542 -0.30819,-7.51789 -0.90263,-11.37581c-1.76322,-12.4143 -0.5713,-24.92585 -1.05752,-37.55957c-0.33024,-8.58109 -0.50898,-16.96842 -0.50898,-25.58916c0,0 -0.00001,-4.75 2.33211,-4.75c2.33212,0 2.33212,4.75 2.33212,4.75c0,5.64084 -0.1617,11.37648 0,17c0.15993,5.56175 0.49097,10.89671 0.49097,16.5c0,8.6121 -0.57937,18.61663 0.86151,26.80412c0.67346,4.37072 0.72111,8.68708 1.08812,13.17134c0.4934,6.02849 1.47569,11.91875 1.79296,18.02161c0.66298,12.75317 0.69165,25.65393 0.68189,38.50205c-1.56258,0 -3.12516,0 -4.68774,0c-0.04379,-9.35048 -0.17571,-18.64175 -0.47447,-28.00913z" data-paper-data="{&quot;origPos&quot;:null}"/><path d="M158.38685,371.13231c0,-3.86557 0.17184,-7.77954 -0.2002,-11.56845c-0.70606,-7.19039 -1.84733,-14.00469 -2.6559,-21.12663c-0.30111,-2.65223 -0.90913,-5.63031 -1.07168,-8.30493c-0.19099,-3.14268 0,-6.33333 0,-9.5c0,-6.8125 0,-13.625 0,-20.4375l-0.42134,-0.21454l0.47914,-3.9036c0.02477,-0.22227 0.05719,-0.43861 0.09666,-0.64783c0.22731,-1.3626 0.7891,-3.04652 2.17766,-3.04652c1.38855,0 1.95036,1.68392 2.17766,3.04652c0.09978,0.52879 0.15445,1.10313 0.15445,1.70348c0,1 0,2 0,3c0,6.83333 0,13.66667 0,20.5c0,3.16667 -0.18169,6.35503 0,9.5c0.11433,1.97901 0.67259,3.75328 0.89222,5.69507c0.24318,2.15007 0.24892,4.40397 0.54897,6.52403c0.3459,2.444 0.99136,4.68048 1.35616,7.11306c0.39544,2.63694 0.57399,5.53077 0.83966,8.23628c0.43351,4.41482 0.29077,8.94323 0.29077,13.43155c0,2.78742 0.08513,5.43655 0.03055,7.99912c-1.54467,0 -3.08934,0 -4.63401,0c-0.00023,-2.67131 -0.06076,-5.36664 -0.06076,-7.99911z"/><path d="M292.94485,377.91245c-0.07429,-4.05068 -0.68562,-8.2851 -1.00309,-12.27182c-0.56336,-7.07456 -0.99282,-14.22231 -1.71055,-21.23922c-0.74511,-7.28451 -1.69127,-14.61152 -2.2232,-21.9728c-0.60886,-8.42592 -0.49551,-17.30705 -0.49551,-25.7963c0,-12.75 0,-25.5 0,-38.25c0,-24.08333 0,-48.16667 0,-72.25c0,-8.75 -0.0014,-17.5 0,-26.25c0.0007,-4.3426 -0.14586,-8.67409 -0.14672,-13.01258c-0.0002,-1.0524 0.18865,-2.1231 0.08188,-3.15278c-0.35562,-3.42955 -1.36899,-6.44869 -1.86732,-9.80374c-0.04149,-0.27938 -0.40776,-5.14733 -0.45308,-5.62885c-0.50597,-5.3759 -1.3831,-10.54115 -1.76459,-15.98029c-0.20022,-3.58152 -0.96154,-6.6172 -1.25087,-10.17175c-0.11374,-1.39742 0.28784,-2.84101 0.16681,-4.23589c-0.2654,-3.05864 -1.11784,-5.80927 -1.3625,-8.98321c-0.39745,-5.15595 -0.20692,-10.21547 -0.27035,-15.41659c-0.05448,-4.46713 -0.32035,-8.90414 -0.43968,-13.36431h-0.05816v-4c0,-0.60035 0.05469,-1.17469 0.15446,-1.70348c0.22731,-1.3626 0.78911,-3.04652 2.17766,-3.04652c1.38855,0 1.95035,1.68392 2.17766,3.04652c0.07982,0.42301 0.13078,0.87518 0.14797,1.34649l0.15195,3.63844l-0.10297,0.01784c0.10703,4.45251 0.38339,8.877 0.44162,13.3364c0.05322,4.07596 -0.17711,8.30255 0.00687,12.36431c0.15375,3.39457 1.01817,6.05596 1.30611,9.23589c0.23068,2.54755 -0.04408,5.20945 0.1668,7.76411c0.23673,2.86779 0.96479,5.79701 1.204,8.82825c0.35875,5.11492 1.19002,9.96357 1.67221,15.01971c0.20164,2.11434 0.21624,4.31357 0.52887,6.37115c0.40618,2.67323 1.31073,5.07496 1.59717,7.83732c0.63522,6.1259 0.39747,13.39684 0.39844,19.69358c0.00135,8.75 0,17.5 0,26.25c0,24.08333 0,48.16667 0,72.25c0,12.75 0,25.5 0,38.25c0,8.28549 -0.11706,16.98162 0.48643,25.2037c0.50644,6.89988 1.43513,13.79301 2.13423,20.62783c1.24113,12.134 2.23583,24.35027 2.6147,36.66757c-1.48343,0 -2.96686,0 -4.45029,0c-0.00396,-0.40681 -0.0095,-0.81317 -0.01695,-1.21898z" data-paper-data="{&quot;origPos&quot;:null}"/><path d="M313.56706,-15.53742c2.3417,-0.20343 1.75121,7.2939 1.75121,7.2939l-0.87813,2.45383c-1.31475,3.63515 -2.6787,7.80505 -3.54332,11.87305c-0.20076,0.94455 -0.1143,1.99673 -0.17145,2.9951c-0.2636,4.60479 -0.4963,8.97554 -0.47748,13.55243c0.04239,10.30958 0.09191,20.61589 0.17625,30.91695c0.08942,10.92148 0.0922,21.87719 0.26511,32.77946c0.17182,10.83388 0.85116,21.55407 1.11748,32.36435c0.1954,7.9311 0.12941,15.96589 0.18335,23.9327c0.06818,10.06979 0.60198,19.92042 0.74633,29.94524c0.19781,13.73588 -1.17427,28.06964 -1.96296,41.84724c-0.03431,0.59937 -0.12174,1.16965 -0.25157,1.69187c-0.30482,1.34738 -0.96193,2.99645 -2.34821,2.91709c-1.38628,-0.07935 -1.85093,-1.79263 -1.99998,-3.166c-0.06939,-0.53363 -0.09116,-1.11015 -0.05685,-1.70952l0.40006,-6.98856l0.03804,0.00218c0.7534,-11.30722 1.65535,-22.85522 1.49484,-34.00108c-0.14248,-9.89432 -0.68009,-19.63089 -0.74741,-29.57606c-0.05387,-7.9575 0.01378,-15.98453 -0.18315,-23.90582c-0.26463,-10.64472 -0.9335,-21.19959 -1.10688,-31.86776c-0.17986,-11.06718 -0.18493,-22.18852 -0.27571,-33.27606c-0.08454,-10.32684 -0.13421,-20.65895 -0.17671,-30.99432c-0.01448,-3.52153 0.05316,-6.65228 0.25167,-10.23824c0.06712,-1.21241 0.10985,-5.73609 0.42864,-7.48774c1.08928,-5.98539 2.63275,-11.49237 4.48626,-16.71477l0.87814,-2.45382c0,0 -0.37923,-1.98216 1.96245,-2.1856z" data-paper-data="{&quot;origPos&quot;:null}"/><path d="M311.85163,336.56069c-0.42182,-21.47889 -0.29863,-42.9842 -0.28301,-64.48031l-1.13906,-1.39201l1.36447,-4.63189c0.26508,-1.27836 0.84398,-2.67426 2.10822,-2.67426c1.38855,0 1.95035,1.68392 2.17766,3.04652c0.09978,0.52879 0.15446,1.10313 0.15446,1.70348v4h-0.00158c-0.01599,21.35212 -0.13964,42.71405 0.27935,64.04877c0.28566,14.54551 2.03794,28.74085 3.66429,42.95037c-1.59308,0 -3.18616,0 -4.77925,0c-1.60548,-14.07504 -3.26224,-28.14421 -3.54556,-42.57067z" data-paper-data="{&quot;origPos&quot;:null}"/><path d="M336.64893,290.87075c-2.32648,0.3299 -2.48846,-4.40863 -2.48846,-4.40863l-0.00563,-1.3299c0,-7.41915 -0.90686,-14.30246 -1.46604,-21.63569c-0.32036,-4.20138 -0.27688,-8.56231 -0.4808,-12.79108c-0.6605,-13.69704 -1.68822,-27.29844 -2.08545,-41.05249c-0.72843,-25.22202 -1.28182,-50.28559 -1.35913,-75.52073h-0.00926v-6c0,-0.60035 0.05469,-1.17469 0.15446,-1.70348c0.22731,-1.3626 0.78911,-3.04652 2.17766,-3.04652c1.38855,0 1.95035,1.68392 2.17766,3.04652c0.09978,0.52879 0.15445,1.10313 0.15445,1.70348c0,27.0805 0.57955,53.92746 1.36035,80.96287c0.39153,13.55672 1.4081,26.96332 2.05941,40.4639c0.21035,4.36036 0.16231,8.87838 0.50115,13.20892c0.59481,7.60193 1.47978,14.6338 1.47978,22.36431l-0.00563,0.6701c0,0 0.16197,4.73853 -2.16451,5.06843z" data-paper-data="{&quot;origPos&quot;:null}"/><path d="M354.76197,336.89157c-0.22998,-13.49012 -0.94859,-26.90404 -1.09597,-40.41195c-0.25414,-23.29271 -0.34234,-46.55713 -0.35981,-69.84732h-0.00344v-9.5c0,-0.60035 0.05469,-1.17469 0.15445,-1.70348c0.22731,-1.3626 0.7891,-3.04652 2.17766,-3.04652c1.38855,0 1.95036,1.68392 2.17766,3.04652c0.09978,0.52879 0.15445,1.10313 0.15445,1.70348c0,26.39514 0.0742,52.74738 0.36211,79.13626c0.14576,13.36027 0.85859,26.62645 1.08606,39.96939c0.24307,14.25817 0.15834,28.58704 0.0846,42.89347c-1.55377,0 -3.10755,0 -4.66132,0c0.07589,-14.08918 0.16287,-28.20114 -0.07646,-42.23985z" data-paper-data="{&quot;origPos&quot;:null}"/><path d="M254.1151,126.38132c-2.32943,0.2279 -2.44401,-4.74453 -2.44401,-4.74453v-3c0.05966,-4.34618 0.7048,-8.03481 0.98585,-12.27592c1.06262,-16.03542 0.48707,-32.82881 0.48707,-48.97408c0.00025,-4.02748 -0.02619,-8.04918 -0.0578,-12.07593c-0.02148,-2.7363 0.22923,-5.50543 0.0235,-8.20981c-0.25255,-3.31985 -1.01176,-6.40097 -1.40524,-9.66345c-0.5863,-4.86119 -0.55327,-10.10369 -1.20499,-14.91109c-0.44924,-3.31376 -1.32418,-6.34202 -1.79614,-9.64265c-1.32715,-9.28128 3.29507,-10.80459 4.57364,-1.8631c0.39755,2.78023 1.19367,5.28432 1.57207,8.07561c0.73975,5.45676 0.78664,11.25416 1.45288,16.73962c0.13026,1.07246 1.2112,7.69277 1.27528,8.53525c0.55974,7.35784 0.23055,15.56487 0.23101,23.01555c0,14.93701 0.01458,29.81055 -0.37094,44.72996c-0.14262,5.519 -1.25445,11.0827 -1.10197,16.52004v3c0,0 0.1092,4.51663 -2.22023,4.74453z"/><path d="M133.83763,32.8799c0,8.75 0.0014,17.5 0,26.25c-0.0007,4.3426 0.14586,8.67409 0.14672,13.01258c0.0002,1.0524 -0.18865,2.1231 -0.08188,3.15278c0.35563,3.42955 1.369,6.44869 1.86733,9.80374c0.04149,0.27938 0.40775,5.14733 0.45307,5.62885c0.50598,5.3759 1.3831,10.54115 1.76459,15.98029c0.20022,3.58152 0.96154,6.6172 1.25087,10.17175c0.11375,1.39742 -0.28784,2.84101 -0.1668,4.23589c0.2654,3.05864 1.11783,5.80927 1.3625,8.98321c0.39745,5.15595 0.20692,10.21547 0.27035,15.41659c0.05448,4.46713 0.32036,8.90414 0.43968,13.36431h0.05816v4c0,0.60035 -0.05468,1.17469 -0.15445,1.70348c-0.2273,1.3626 -0.7891,3.04652 -2.17766,3.04652c-1.38855,0 -1.95036,-1.68392 -2.17766,-3.04652c-0.07981,-0.42301 -0.13077,-0.87518 -0.14797,-1.34649l-0.15195,-3.63844l0.10297,-0.01784c-0.10703,-4.45251 -0.38339,-8.877 -0.44162,-13.3364c-0.05322,-4.07596 0.17711,-8.30255 -0.00687,-12.36431c-0.15376,-3.39457 -1.01816,-6.05596 -1.30611,-9.23589c-0.23068,-2.54755 0.04407,-5.20945 -0.16681,-7.76411c-0.23673,-2.86779 -0.96479,-5.79701 -1.20399,-8.82825c-0.35876,-5.11492 -1.19002,-9.96357 -1.67221,-15.01971c-0.20164,-2.11434 -0.21624,-4.31357 -0.52887,-6.37115c-0.40617,-2.67323 -1.31074,-5.07496 -1.59718,-7.83732c-0.63522,-6.1259 -0.39746,-13.39684 -0.39843,-19.69358c-0.00135,-8.75 0,-17.5 0,-26.25c0,-24.08333 4.66422,-24.08331 4.66422,0.00002z" data-paper-data="{&quot;index&quot;:null}"/><path d="M103.56721,-21.71228l-0.48467,2.34905c0,3.46527 -0.29503,6.59082 -0.49097,10c-0.1955,3.40156 0,7.07856 0,10.5c-0.02124,10.3074 0.59384,20.70335 1.03188,30.96351c0.93236,21.83862 2.10322,43.46967 3.54452,65.19317c0.91236,13.769 2.6479,27.53717 3.27915,41.34332c0.44892,9.81826 0,20.13302 0,30c0,0.60035 -0.05468,1.17469 -0.15445,1.70348c-0.2273,1.3626 -0.7891,3.04652 -2.17766,3.04652c-1.38855,0 -1.95036,-1.68392 -2.17767,-3.04652c-0.09977,-0.52879 -0.15445,-1.10313 -0.15445,-1.70348v-6h0.04417c0.10221,-7.9958 0.31968,-16.16107 -0.04417,-24c-0.20331,-4.38013 -0.79379,-8.88646 -1.16428,-13.2254c-0.76224,-8.92691 -1.47634,-17.86602 -2.07286,-26.84571c-1.45113,-21.87174 -2.63026,-43.65465 -3.569,-65.6424c-0.4504,-10.54962 -1.03221,-21.1896 -1.04942,-31.78649c0,-3.43416 -0.1794,-7.0825 0,-10.5c0.18057,-3.43967 0.49097,-6.5546 0.49097,-10l0.49728,-1.65095z"/><path d="M339.524,-5.61771c0,15.33506 0.50094,30.44473 2.35173,45.35309c0.78271,6.30486 1.61811,13.26084 2.80275,19.27264c0.78971,4.00763 1.98784,7.39051 2.41029,11.69271c0.87179,8.9998 0.78175,17.80487 0.78175,26.93155c0,11.83333 0,23.66667 0,35.5v3c0,0.60035 -0.05469,1.17469 -0.15445,1.70348c-0.22731,1.3626 -0.78911,3.04652 -2.17766,3.04652c-1.38855,0 -1.95036,-1.68392 -2.17766,-3.04652c-0.09978,-0.52879 -0.15445,-1.10313 -0.15445,-1.70348c0,-1 0,-2 0,-3c0,-11.83333 0,-23.66667 0,-35.5c0,-8.48383 0.14245,-16.718 -0.69117,-25.06845c-0.34962,-3.56051 -1.34727,-5.93142 -2.00845,-9.30729c-1.2794,-6.53237 -2.23665,-13.90338 -3.08891,-20.72736c-1.97706,-15.83021 -2.55799,-31.8557 -2.55799,-48.14691c0,-11.7788 4.66422,-11.49871 4.66422,0.00002z"/><path d="M15.11507,147.38134c-2.32943,0.2279 -2.44401,-4.74453 -2.44401,-4.74453v-3c0.05966,-4.34618 0.7048,-8.03481 0.98585,-12.27592c1.06262,-16.03542 0.48707,-32.82881 0.48707,-48.97408c0.00025,-4.02748 -0.02619,-8.04918 -0.0578,-12.07593c-0.02148,-2.7363 0.22923,-5.50543 0.0235,-8.20981c-0.25255,-3.31985 -1.01176,-6.40097 -1.40524,-9.66345c-0.5863,-4.86119 -0.55327,-10.10369 -1.20499,-14.91109c-0.44924,-3.31376 -1.32418,-6.34202 -1.79614,-9.64265c-1.32715,-9.28128 -1.8385,-19.52062 -2.23121,-29.11901c-0.39331,-9.99811 4.23249,-10.50505 4.64811,-0.78893c0.37841,9.24882 0.87817,19.10335 2.15674,28.04484c0.39755,2.78023 1.19367,5.28432 1.57207,8.07561c0.73975,5.45676 0.78664,11.25416 1.45288,16.73962c0.13026,1.07246 1.2112,7.69277 1.27528,8.53525c0.55974,7.35784 0.23055,15.56487 0.23101,23.01555c0,14.93701 0.01458,29.81055 -0.37094,44.72996c-0.14262,5.519 -1.25445,11.0827 -1.10197,16.52004v3c0,0 0.1092,4.51663 -2.22023,4.74453z"/><path d="M80.69817,4.2399c0.78272,6.30486 1.61812,13.26084 2.80275,19.27264c0.78972,4.00763 1.98784,7.39051 2.41029,11.69271c0.87179,8.9998 0.78175,17.80487 0.78175,26.93155c0,11.83333 0,23.66667 0,35.5v3c0,0.60035 -0.05468,1.17469 -0.15445,1.70348c-0.2273,1.3626 -0.7891,3.04652 -2.17766,3.04652c-1.38855,0 -1.95035,-1.68392 -2.17766,-3.04652c-0.09978,-0.52879 -0.15446,-1.10313 -0.15446,-1.70348c0,-1 0,-2 0,-3c0,-11.83333 0,-23.66667 0,-35.5c0,-8.48383 0.14245,-16.718 -0.69117,-25.06845c-0.34962,-3.56051 -1.34727,-5.93142 -2.00845,-9.30729c-1.2794,-6.53237 -2.23665,-13.90338 -3.08891,-20.72736c-1.97707,-15.83021 2.60718,-17.70216 4.45797,-2.7938z"/><path d="M159.51892,-16.1068c0.03548,1.84489 0.81352,6.13213 0.95512,7.19952c0.99786,7.86877 1.00828,15.79487 1.60241,23.79246c0.23964,3.22585 0.79593,7.03515 0.96002,10.24707c0.34501,6.75361 0,13.9569 0,20.75c0,4.44872 0.17831,9.14449 -0.08973,13.55493c-0.25001,4.11369 -1.07487,8.32044 -1.41492,12.47597c0,0 -0.3834,4.68537 -2.68379,3.90448c-2.30039,-0.7809 -1.91699,-5.46627 -1.91699,-5.46627c0.36875,-4.50637 1.27313,-9.06193 1.53092,-13.52403c0.20114,-3.48134 -0.08973,-7.40536 -0.08973,-10.94507c0,-6.79036 0.34873,-14.00001 0,-20.75c-0.14676,-2.84063 -0.65965,-5.5598 -0.86944,-8.38396c-0.57421,-7.72944 -0.46992,-15.63827 -1.5315,-23.17746c-0.17874,-1.3473 -0.8863,-5.22369 -0.95512,-7.19952c-0.23465,-6.73653 4.38948,-8.36821 4.50275,-2.47812z"/><path d="M288.03649,-16.8677c0.34501,6.75361 0,13.9569 0,20.75c0,4.44872 0.17831,9.14449 -0.08973,13.55493c-0.25001,4.11369 -1.07487,8.32044 -1.41492,12.47597c0,0 -0.3834,4.68537 -2.68379,3.90448c-2.30039,-0.7809 -1.91699,-5.46627 -1.91699,-5.46627c0.36875,-4.50637 1.27313,-9.06193 1.53092,-13.52403c0.20114,-3.48134 -0.08973,-7.40536 -0.08973,-10.94507c0,-6.79036 0.34873,-14.00001 0,-20.75c-0.14676,-2.84063 4.50015,-3.21193 4.66424,-0.00001z"/><path d="M38.23833,-13.12009c0.11375,1.39742 -0.28784,2.84101 -0.1668,4.23589c0.2654,3.05864 1.11783,5.80927 1.3625,8.98321c0.39745,5.15595 0.20692,10.21547 0.27035,15.41659c0.05448,4.46713 0.32036,8.90414 0.43968,13.36431h0.05816v4c0,0.60035 -0.05468,1.17469 -0.15445,1.70348c-0.2273,1.3626 -0.7891,3.04652 -2.17766,3.04652c-1.38855,0 -1.95036,-1.68392 -2.17766,-3.04652c-0.07981,-0.42301 -0.13077,-0.87518 -0.14797,-1.34649l-0.15195,-3.63844l0.10297,-0.01784c-0.10703,-4.45251 -0.38339,-8.877 -0.44162,-13.3364c-0.05322,-4.07596 0.17711,-8.30255 -0.00687,-12.36431c-0.15376,-3.39457 -1.01816,-6.05596 -1.30611,-9.23589c-0.23068,-2.54755 0.04407,-5.20945 -0.16681,-7.76411c-0.23673,-2.86779 -0.96479,-5.79701 -1.20399,-8.82825c-0.35876,-5.11492 5.5789,5.2737 5.86823,8.82825z" data-paper-data="{&quot;index&quot;:null}"/><path d="M210.76728,78.41692c-0.07429,-4.05068 -0.68562,-8.2851 -1.00309,-12.27182c-0.56337,-7.07456 -0.99283,-14.22231 -1.71055,-21.23922c-0.7451,-7.28451 -1.69127,-14.61152 -2.2232,-21.9728c-0.60887,-8.42592 -0.49551,-17.30705 -0.49551,-25.7963c0,-12.75 4.66422,-12.74998 4.66422,0.00002c0,8.28549 -0.11705,16.98162 0.48644,25.2037c0.50645,6.89988 1.43514,13.79301 2.13424,20.62783c1.20734,11.80358 2.18147,23.68502 2.58238,35.66156c-1.47706,0 -2.95413,0 -4.43118,0c-0.00118,-0.07101 -0.00244,-0.142 -0.00374,-0.21297z" data-paper-data="{&quot;index&quot;:null}"/><path d=""/><path d=""/><path d="M186.01264,-14.6187c-2.32943,-0.2279 -2.22023,-4.74453 -2.22023,-4.74453v-3c0.15248,-5.43734 4.60456,-4.34618 4.66422,0v3c0,0 -0.11458,4.97243 -2.44401,4.74453z" data-paper-data="{&quot;index&quot;:null}"/><path d=""/></g><g data-paper-data="{&quot;index&quot;:null}" fill="#3c2713" stroke="none" stroke-width="0.5" stroke-linecap="butt"><path d="M624.13327,383.37026c-1.55712,-0.02751 -3.1178,-0.07301 -4.66209,-0.11697c-0.0744,-14.51156 -0.16515,-29.0476 0.08143,-43.51089c0.22747,-13.34294 0.94029,-26.60912 1.08606,-39.96939c0.28792,-26.38888 0.36211,-52.74112 0.36211,-79.13626c0,-0.60035 0.05469,-1.17469 0.15446,-1.70348c0.2273,-1.3626 0.78911,-3.04652 2.17766,-3.04652c1.38856,0 1.95036,1.68392 2.17766,3.04652c0.09977,0.52879 0.15445,1.10313 0.15445,1.70348v9.5h-0.00344c-0.01747,23.29019 -0.10569,46.55461 -0.35982,69.84732c-0.14738,13.50791 -0.86599,26.92183 -1.09597,40.41195c-0.24349,14.28264 -0.14923,28.64109 -0.07251,42.97424z" data-paper-data="{&quot;origPos&quot;:null}"/><path d="M594.12852,331.88212c-2.33204,-0.0374 -2.31369,-4.78725 -2.31369,-4.78725l-0.00007,-0.9626c0,-0.83333 0,-1.66667 0,-2.5c0,-4.5 0,-9 0,-13.5c0,-1.78131 0.2876,-4.91594 0.11968,-6.49792c-0.2708,-2.5512 -0.86085,-4.93842 -1.10162,-7.50208c-0.09439,-1.00506 0.10232,-2.05179 0.04529,-3.06845c-0.11206,-1.99743 -0.45514,-3.92793 -0.53626,-5.93155c-0.28587,-7.06036 0,-14.41627 0,-21.5c0,-9.2472 0.29134,-18.28091 0.49097,-27.5c0.14384,-6.64284 -0.1703,-13.48779 0.32785,-20.08455c0.2053,-2.71866 0.93377,-5.1987 1.14507,-7.91545c0.24655,-3.16984 0,-6.76184 0,-10c0,0 -0.00001,-4.75 2.33211,-4.75c2.33212,0 2.33212,4.75 2.33212,4.75c0,3.24553 0.23728,6.81749 0,10c-0.26417,3.54308 -1.04194,6.87301 -1.30942,10.41506c-0.42773,5.66432 -0.04122,11.84609 -0.1635,17.58494c-0.19655,9.22504 -0.49097,18.25089 -0.49097,27.5c0,7.09484 -0.2663,14.4254 0,21.5c0.05215,1.38543 0.37174,2.68714 0.44569,4.06845c0.0875,1.63445 -0.12529,3.32454 0.04529,4.93155c0.16699,1.5732 0.7138,2.91704 0.86227,4.49792c0.68099,7.25101 0.11968,15.60916 0.11968,23.00208c0,0.83333 0,1.66667 0,2.5l-0.00008,1.0374c0,0 -0.01836,4.74985 -2.3504,4.71245z" data-paper-data="{&quot;origPos&quot;:null}"/><path d="M561.77221,108.38854c2.32905,0.24383 2.20932,4.98757 2.20932,4.98757l0.00307,0.75616c0,3.32021 -0.18834,6.89482 -0.03378,10.19438c0.39842,8.50612 1.81071,16.57816 2.54776,24.91459c1.02898,11.63821 0.43186,24.36223 0.43186,36.14103c0,16.29121 -0.58093,32.3167 -2.55799,48.14691c-0.85226,6.82398 -1.80951,14.19499 -3.08891,20.72736c-0.66118,3.37587 -1.65883,5.74678 -2.00845,9.30729c-0.83362,8.35045 -0.69117,16.58462 -0.69117,25.06845c0,11.83333 0,23.66667 0,35.5c0,1 0,2 0,3c0,0.60035 -0.05467,1.17469 -0.15445,1.70348c-0.2273,1.3626 -0.78911,3.04652 -2.17766,3.04652c-1.38855,0 -1.95035,-1.68392 -2.17766,-3.04652c-0.09976,-0.52879 -0.15445,-1.10313 -0.15445,-1.70348v-3c0,-11.83333 0,-23.66667 0,-35.5c0,-9.12668 -0.09004,-17.93175 0.78175,-26.93155c0.42245,-4.3022 1.62058,-7.68508 2.41029,-11.69271c1.18464,-6.0118 2.02004,-12.96778 2.80275,-19.27264c1.85079,-14.90836 2.35173,-30.01803 2.35173,-45.35309c0,-11.49873 0.59214,-23.91573 -0.4127,-35.28094c-0.25157,-2.8453 -0.84535,-5.52694 -1.15242,-8.34955c-1.00909,-9.2757 -1.38071,-18.17709 -1.38071,-27.61951l0.00307,-1.24384c0,0 0.11971,-4.74374 2.44876,-4.4999z"/><path d="M547.09868,10.38544c2.33056,0.17324 2.2455,4.92008 2.2455,4.92008l0.00155,0.82676c0,10.40128 -0.27927,20.63337 -0.49097,31c-0.13759,6.7376 0.15391,13.50252 -0.08074,20.23905c-0.06882,1.97583 -0.77638,5.85222 -0.95512,7.19952c-1.06158,7.53919 -0.95729,15.44802 -1.5315,23.17746c-0.20979,2.82416 -0.72268,5.54333 -0.86944,8.38396c-0.34873,6.74999 0,13.95964 0,20.75c0,3.53971 -0.29087,7.46373 -0.08973,10.94507c0.25779,4.4621 1.16217,9.01766 1.53092,13.52403c0,0 0.3834,4.68537 -1.91699,5.46627c-2.30039,0.78089 -2.68379,-3.90448 -2.68379,-3.90448c-0.34005,-4.15553 -1.16491,-8.36228 -1.41492,-12.47597c-0.26804,-4.41044 -0.08973,-9.10621 -0.08973,-13.55493c0,-6.7931 -0.34501,-13.99639 0,-20.75c0.16409,-3.21192 0.72038,-7.02122 0.96002,-10.24707c0.59413,-7.99759 0.60455,-15.92369 1.60241,-23.79246c0.1416,-1.06739 0.91964,-5.35463 0.95512,-7.19952c0.11327,-5.89009 -0.20136,-11.85448 -0.08074,-17.76095c0.2119,-10.37579 0.49097,-20.5921 0.49097,-31l0.00155,-1.17324c0,0 0.08507,-4.74684 2.41563,-4.5736z"/><path d="M512.2773,340.13227v-3c0.15249,-5.43734 -0.95936,-11.00104 -1.10197,-16.52004c-0.38552,-14.91941 -0.37094,-29.79295 -0.37094,-44.72996c0.00046,-7.45068 -0.32872,-15.65771 0.23101,-23.01555c0.06409,-0.84248 1.14504,-7.46279 1.27529,-8.53525c0.66624,-5.48546 0.71312,-11.28286 1.45288,-16.73962c0.37841,-2.79129 1.17452,-5.29538 1.57207,-8.07561c1.27857,-8.94149 1.77834,-18.79602 2.15675,-28.04484c0.41563,-9.71612 0.18562,-19.58936 0.18562,-29.33913c0,-15 0,-30 0,-45c0,-2 0,-4 0,-6c0,-0.60035 0.05467,-1.17469 0.15445,-1.70348c0.22731,-1.3626 0.78911,-3.04652 2.17766,-3.04652c1.38855,0 1.95035,1.68392 2.17766,3.04652c0.09976,0.52879 0.15445,1.10313 0.15445,1.70348v6c0,15 0,30 0,45c0,10.02763 0.19157,20.12995 -0.20173,30.12806c-0.39271,9.59839 -0.90406,19.83773 -2.23121,29.11901c-0.47196,3.30063 -1.34691,6.32889 -1.79614,9.64265c-0.65172,4.8074 -0.6187,10.0499 -1.20499,14.91109c-0.39347,3.26248 -1.15268,6.3436 -1.40523,9.66345c-0.20573,2.70438 0.04498,5.47351 0.0235,8.20981c-0.03161,4.02675 -0.05805,8.04845 -0.0578,12.07593c0,16.14527 -0.57555,32.93866 0.48707,48.97408c0.28104,4.24111 0.92618,7.92974 0.98584,12.27592v3c0,0 -0.11458,4.97243 -2.44401,4.74453c-2.32944,-0.2279 -2.22023,-4.74453 -2.22023,-4.74453z"/><path d="M500.5426,35.39513c2.32581,0.34905 2.15443,5.08621 2.15443,5.08621l0.49728,1.65095c0,3.4454 0.3104,6.56033 0.49097,10c0.1794,3.4175 0,7.06584 0,10.5c-0.01721,10.59689 -0.59901,21.23687 -1.04941,31.78649c-0.93874,21.98775 -2.11787,43.77066 -3.56901,65.6424c-0.59652,8.97969 -1.31062,17.9188 -2.07286,26.84571c-0.37048,4.33894 -0.96096,8.84527 -1.16427,13.2254c-0.36385,7.83893 -0.14638,16.0042 -0.04417,24h0.04417v6c0,0.60035 -0.05468,1.17469 -0.15446,1.70348c-0.2273,1.3626 -0.78911,3.04652 -2.17766,3.04652c-1.38856,0 -1.95035,-1.68392 -2.17766,-3.04652c-0.09976,-0.52879 -0.15445,-1.10313 -0.15445,-1.70348c0,-9.86698 -0.44892,-20.18174 0,-30c0.63126,-13.80615 2.36679,-27.57432 3.27916,-41.34332c1.4413,-21.7235 2.61216,-43.35455 3.54452,-65.19317c0.43804,-10.26016 1.05312,-20.65611 1.03188,-30.96351c0,-3.42144 0.19551,-7.09844 0,-10.5c-0.19594,-3.40918 -0.49097,-6.53473 -0.49097,-10l-0.48467,-2.34905c0,0 0.17138,-4.73715 2.49719,-4.3881z"/><path d="M461.08024,345.87837c-1.24795,11.95635 -0.63532,25.01165 -0.60188,37.253c-1.55468,0 -3.10937,0 -4.66405,0c-0.03035,-12.92714 -0.61623,-26.58289 0.70366,-39.22845c1.13301,-10.80048 1.84275,-21.7811 2.77554,-32.65945c1.1769,-13.72525 3.03618,-27.43239 3.88754,-41.24688c0.41679,-6.76275 0.19563,-13.94614 0.29116,-20.75581c0.13729,-9.78708 0.45655,-19.84769 0.06863,-29.62774c-0.58789,-14.82139 -2.46889,-29.58168 -2.7737,-44.48079h-0.0419v-4c0,-0.60035 0.05467,-1.17469 0.15445,-1.70348c0.2273,-1.3626 0.78911,-3.04652 2.17766,-3.04652c1.38856,0 1.95035,1.68392 2.17766,3.04652c0.09977,0.52879 0.15446,1.10313 0.15446,1.70348c0,15.7938 2.14638,31.44715 2.76872,47.13729c0.40999,10.33641 0.12145,20.89908 -0.02365,31.24256c-0.09561,6.81595 0.11649,13.98461 -0.29116,20.75581c-0.86314,14.33693 -2.74865,28.52275 -3.96801,42.75312c-0.93803,10.94717 -1.66546,21.98403 -2.79512,32.85734z"/><path d="M483.06446,371.1323c0,3.99722 -0.02676,7.99921 -0.02034,11.99912c-1.55021,0 -3.10044,0 -4.65065,0c0.00405,-0.84105 0.00675,-1.67471 0.00675,-2.49912c0,-9.79054 -0.27105,-19.79429 0.25975,-29.52455c0.71723,-13.08833 2.65882,-25.85498 3.17706,-38.97545c0.42863,-10.85165 0,-22.10765 0,-33c0,0 0,-4.75 2.33212,-4.75c2.33212,0 2.33212,4.75 2.33212,4.75c0,10.87879 0.45443,22.16704 0,33c-0.56647,13.5039 -2.47549,26.57645 -3.20558,40.02455c-0.34417,6.30891 -0.23122,12.63155 -0.23122,18.97545z"/><path d="M540.526,383.13143c-1.56258,0 -3.12516,0 -4.68774,0c-0.00976,-12.84812 0.01891,-25.74888 0.68189,-38.50205c0.31727,-6.10286 1.29956,-11.99312 1.79296,-18.02161c0.36701,-4.48426 0.41466,-8.80062 1.08812,-13.17134c1.44088,-8.18749 0.86151,-18.19202 0.86151,-26.80412c0,-5.60329 0.33104,-10.93825 0.49097,-16.5c0.1617,-5.62352 0,-11.35916 0,-17c0,0 0,-4.75 2.33212,-4.75c2.33212,0 2.33211,4.75 2.33211,4.75c0,8.62074 -0.17874,17.00807 -0.50898,25.58916c-0.48622,12.63372 0.7057,25.14527 -1.05752,37.55957c-0.59444,3.85792 -0.57738,7.40039 -0.90263,11.37581c-0.51073,6.2424 -1.51147,12.35887 -1.83966,18.67192c-0.15159,2.91581 -0.01536,5.86759 -0.10868,8.79353c-0.29876,9.36738 -0.43068,18.65865 -0.47447,28.00913z" data-paper-data="{&quot;origPos&quot;:null}"/><path d="M573.40333,375.13231c0,2.63247 -0.06053,5.3278 -0.06076,7.99911c-1.54467,0 -3.08934,0 -4.63401,0c-0.05458,-2.56257 0.03055,-5.2117 0.03055,-7.99912c0,-4.48832 -0.14274,-9.01673 0.29077,-13.43155c0.26567,-2.70551 0.44422,-5.59934 0.83966,-8.23628c0.3648,-2.43258 1.01026,-4.66906 1.35616,-7.11306c0.30005,-2.12006 0.30579,-4.37396 0.54897,-6.52403c0.21963,-1.94179 0.77789,-3.71606 0.89222,-5.69507c0.18169,-3.14497 0,-6.33333 0,-9.5c0,-6.83333 0,-13.66667 0,-20.5c0,-1 0,-2 0,-3c0,-0.60035 0.05467,-1.17469 0.15445,-1.70348c0.2273,-1.3626 0.78911,-3.04652 2.17766,-3.04652c1.38856,0 1.95035,1.68392 2.17766,3.04652c0.03947,0.20922 0.07189,0.42556 0.09666,0.64783l0.47914,3.9036l-0.42134,0.21454c0,6.8125 0,13.625 0,20.4375c0,3.16667 0.19099,6.35732 0,9.5c-0.16255,2.67462 -0.77057,5.6527 -1.07168,8.30493c-0.80857,7.12194 -1.94984,13.93624 -2.6559,21.12663c-0.37204,3.78891 -0.2002,7.70288 -0.2002,11.56845z"/><path d="M438.84533,381.91245c-0.00745,0.40581 -0.01299,0.81217 -0.01695,1.21898c-1.48343,0 -2.96686,0 -4.45029,0c0.37887,-12.3173 1.37357,-24.53357 2.6147,-36.66757c0.6991,-6.83482 1.62779,-13.72795 2.13423,-20.62783c0.60349,-8.22208 0.48643,-16.91821 0.48643,-25.2037c0,-12.75 0,-25.5 0,-38.25c0,-24.08333 0,-48.16667 0,-72.25c0,-8.75 -0.00135,-17.5 0,-26.25c0.00097,-6.29674 -0.23678,-13.56768 0.39844,-19.69358c0.28644,-2.76236 1.19099,-5.16409 1.59717,-7.83732c0.31263,-2.05758 0.32723,-4.25681 0.52887,-6.37115c0.48219,-5.05614 1.31346,-9.90479 1.67221,-15.01971c0.23921,-3.03124 0.96727,-5.96046 1.204,-8.82825c0.21088,-2.55466 -0.06388,-5.21656 0.1668,-7.76411c0.28794,-3.17993 1.15236,-5.84132 1.30611,-9.23589c0.18398,-4.06176 -0.04635,-8.28835 0.00687,-12.36431c0.05823,-4.4594 0.33459,-8.88389 0.44162,-13.3364l-0.10297,-0.01784l0.15195,-3.63844c0.01719,-0.47131 0.06815,-0.92348 0.14797,-1.34649c0.22731,-1.3626 0.78911,-3.04652 2.17766,-3.04652c1.38855,0 1.95035,1.68392 2.17766,3.04652c0.09977,0.52879 0.15446,1.10313 0.15446,1.70348v4h-0.05816c-0.11933,4.46017 -0.3852,8.89718 -0.43968,13.36431c-0.06343,5.20112 0.1271,10.26064 -0.27035,15.41659c-0.24466,3.17394 -1.0971,5.92457 -1.3625,8.98321c-0.12103,1.39488 0.28055,2.83847 0.16681,4.23589c-0.28933,3.55455 -1.05065,6.59023 -1.25087,10.17175c-0.38149,5.43914 -1.25862,10.60439 -1.76459,15.98029c-0.04532,0.48152 -0.41159,5.34947 -0.45308,5.62885c-0.49833,3.35505 -1.5117,6.37419 -1.86732,9.80374c-0.10677,1.02968 0.08208,2.10038 0.08188,3.15278c-0.00086,4.33849 -0.14742,8.66998 -0.14672,13.01258c0.0014,8.75 0,17.5 0,26.25c0,24.08333 0,48.16667 0,72.25c0,12.75 0,25.5 0,38.25c0,8.48925 0.11335,17.37038 -0.49551,25.7963c-0.53193,7.36128 -1.47809,14.68829 -2.2232,21.9728c-0.71773,7.01691 -1.14719,14.16466 -1.71055,21.23922c-0.31747,3.98672 -0.9288,8.22114 -1.00309,12.27182z" data-paper-data="{&quot;origPos&quot;:null}"/><path d="M418.22311,-11.53738c2.34168,0.20344 1.96245,2.1856 1.96245,2.1856l0.87814,2.45382c1.85351,5.2224 3.39698,10.72938 4.48626,16.71477c0.31879,1.75165 0.36152,6.27533 0.42864,7.48774c0.19851,3.58596 0.26615,6.71671 0.25167,10.23824c-0.0425,10.33537 -0.09217,20.66748 -0.17671,30.99432c-0.09078,11.08754 -0.09585,22.20888 -0.27571,33.27606c-0.17338,10.66817 -0.84225,21.22304 -1.10688,31.86776c-0.19693,7.92129 -0.12928,15.94832 -0.18315,23.90582c-0.06732,9.94517 -0.60493,19.68174 -0.74741,29.57606c-0.16051,11.14586 0.74144,22.69386 1.49484,34.00108l0.03804,-0.00218l0.40006,6.98856c0.03431,0.59937 0.01254,1.17589 -0.05685,1.70952c-0.14905,1.37337 -0.6137,3.08665 -1.99998,3.166c-1.38628,0.07936 -2.04339,-1.56971 -2.34821,-2.91709c-0.12983,-0.52222 -0.21726,-1.0925 -0.25157,-1.69187c-0.78869,-13.7776 -2.16077,-28.11136 -1.96296,-41.84724c0.14435,-10.02482 0.67815,-19.87545 0.74633,-29.94524c0.05394,-7.96681 -0.01205,-16.0016 0.18335,-23.9327c0.26632,-10.81028 0.94566,-21.53047 1.11748,-32.36435c0.17291,-10.90227 0.17569,-21.85798 0.26511,-32.77946c0.08434,-10.30106 0.13386,-20.60737 0.17625,-30.91695c0.01882,-4.57689 -0.21388,-8.94764 -0.47748,-13.55243c-0.05715,-0.99837 0.02931,-2.05055 -0.17145,-2.9951c-0.86462,-4.068 -2.22857,-8.2379 -3.54332,-11.87305l-0.87813,-2.45383c0,0 -0.59049,-7.49733 1.75121,-7.2939z" data-paper-data="{&quot;origPos&quot;:null}"/><path d="M419.93857,340.56069c-0.28332,14.42646 -1.94008,28.49563 -3.54556,42.57067c-1.59309,0 -3.18617,0 -4.77925,0c1.62635,-14.20952 3.37863,-28.40486 3.66429,-42.95037c0.41899,-21.33472 0.29534,-42.69665 0.27935,-64.04877h-0.00158v-4c0,-0.60035 0.05468,-1.17469 0.15446,-1.70348c0.22731,-1.3626 0.78911,-3.04652 2.17766,-3.04652c1.26424,0 1.84314,1.3959 2.10822,2.67426l1.36447,4.63189l-1.13906,1.39201c0.01562,21.49611 0.13881,43.00142 -0.28301,64.48031z" data-paper-data="{&quot;origPos&quot;:null}"/><path d="M395.14125,294.87077c-2.32648,-0.3299 -2.16451,-5.06843 -2.16451,-5.06843l-0.00563,-0.6701c0,-7.73051 0.88497,-14.76238 1.47978,-22.36431c0.33884,-4.33054 0.2908,-8.84856 0.50115,-13.20892c0.65131,-13.50058 1.66788,-26.90718 2.05941,-40.4639c0.7808,-27.03541 1.36035,-53.88237 1.36035,-80.96287c0,-0.60035 0.05467,-1.17469 0.15445,-1.70348c0.22731,-1.3626 0.78911,-3.04652 2.17766,-3.04652c1.38855,0 1.95035,1.68392 2.17766,3.04652c0.09977,0.52879 0.15446,1.10313 0.15446,1.70348v6h-0.00926c-0.07731,25.23514 -0.6307,50.29871 -1.35913,75.52073c-0.39723,13.75405 -1.42495,27.35545 -2.08545,41.05249c-0.20392,4.22877 -0.16044,8.5897 -0.4808,12.79108c-0.55918,7.33323 -1.46604,14.21654 -1.46604,21.63569l-0.00563,1.3299c0,0 -0.16198,4.73853 -2.48846,4.40863z" data-paper-data="{&quot;origPos&quot;:null}"/><path d="M377.02823,340.89157c-0.23933,14.03871 -0.15235,28.15067 -0.07646,42.23985c-1.55377,0 -3.10755,0 -4.66132,0c-0.07374,-14.30643 -0.15847,-28.6353 0.0846,-42.89347c0.22747,-13.34294 0.9403,-26.60912 1.08606,-39.96939c0.28791,-26.38888 0.36211,-52.74112 0.36211,-79.13626c0,-0.60035 0.05467,-1.17469 0.15445,-1.70348c0.2273,-1.3626 0.78911,-3.04652 2.17766,-3.04652c1.38856,0 1.95035,1.68392 2.17766,3.04652c0.09976,0.52879 0.15445,1.10313 0.15445,1.70348v9.5h-0.00344c-0.01747,23.29019 -0.10567,46.55461 -0.35981,69.84732c-0.14738,13.50791 -0.86599,26.92183 -1.09597,40.41195z" data-paper-data="{&quot;origPos&quot;:null}"/><path d="M477.67511,130.38132c-2.32943,-0.2279 -2.22023,-4.74453 -2.22023,-4.74453v-3c0.15248,-5.43734 -0.95935,-11.00104 -1.10197,-16.52004c-0.38552,-14.91941 -0.37094,-29.79295 -0.37094,-44.72996c0.00046,-7.45068 -0.32873,-15.65771 0.23101,-23.01555c0.06408,-0.84248 1.14502,-7.46279 1.27528,-8.53525c0.66624,-5.48546 0.71313,-11.28286 1.45288,-16.73962c0.3784,-2.79129 1.17452,-5.29538 1.57207,-8.07561c1.27857,-8.94149 5.90079,-7.41818 4.57364,1.8631c-0.47196,3.30063 -1.3469,6.32889 -1.79614,9.64265c-0.65172,4.8074 -0.61869,10.0499 -1.20499,14.91109c-0.39348,3.26248 -1.15269,6.3436 -1.40524,9.66345c-0.20573,2.70438 0.04498,5.47351 0.0235,8.20981c-0.03161,4.02675 -0.05805,8.04845 -0.0578,12.07593c0,16.14527 -0.57555,32.93866 0.48707,48.97408c0.28105,4.24111 0.92619,7.92974 0.98585,12.27592v3c0,0 -0.11458,4.97243 -2.44401,4.74453z"/><path d="M602.61678,36.87988c0,8.75 0.00135,17.5 0,26.25c-0.00097,6.29674 0.23679,13.56768 -0.39843,19.69358c-0.28644,2.76236 -1.19101,5.16409 -1.59718,7.83732c-0.31263,2.05758 -0.32723,4.25681 -0.52887,6.37115c-0.48219,5.05614 -1.31345,9.90479 -1.67221,15.01971c-0.2392,3.03124 -0.96726,5.96046 -1.20399,8.82825c-0.21088,2.55466 0.06387,5.21656 -0.16681,7.76411c-0.28795,3.17993 -1.15235,5.84132 -1.30611,9.23589c-0.18398,4.06176 0.04635,8.28835 -0.00687,12.36431c-0.05823,4.4594 -0.33459,8.88389 -0.44162,13.3364l0.10297,0.01784l-0.15195,3.63844c-0.0172,0.47131 -0.06816,0.92348 -0.14797,1.34649c-0.2273,1.3626 -0.78911,3.04652 -2.17766,3.04652c-1.38856,0 -1.95036,-1.68392 -2.17766,-3.04652c-0.09977,-0.52879 -0.15445,-1.10313 -0.15445,-1.70348v-4h0.05816c0.11932,-4.46017 0.3852,-8.89718 0.43968,-13.36431c0.06343,-5.20112 -0.1271,-10.26064 0.27035,-15.41659c0.24467,-3.17394 1.0971,-5.92457 1.3625,-8.98321c0.12104,-1.39488 -0.28055,-2.83847 -0.1668,-4.23589c0.28933,-3.55455 1.05065,-6.59023 1.25087,-10.17175c0.38149,-5.43914 1.25861,-10.60439 1.76459,-15.98029c0.04532,-0.48152 0.41158,-5.34947 0.45307,-5.62885c0.49833,-3.35505 1.5117,-6.37419 1.86733,-9.80374c0.10677,-1.02968 -0.08208,-2.10038 -0.08188,-3.15278c0.00086,-4.33849 0.14742,-8.66998 0.14672,-13.01258c-0.0014,-8.75 0,-17.5 0,-26.25c0,-24.08333 4.66422,-24.08335 4.66422,-0.00002z" data-paper-data="{&quot;index&quot;:null}"/><path d="M632.87461,-17.01419l0.49728,1.65095c0,3.4454 0.3104,6.56033 0.49097,10c0.1794,3.4175 0,7.06584 0,10.5c-0.01721,10.59689 -0.59902,21.23687 -1.04942,31.78649c-0.93874,21.98775 -2.11787,43.77066 -3.569,65.6424c-0.59652,8.97969 -1.31062,17.9188 -2.07286,26.84571c-0.37049,4.33894 -0.96097,8.84527 -1.16428,13.2254c-0.36385,7.83893 -0.14638,16.0042 -0.04417,24h0.04417v6c0,0.60035 -0.05468,1.17469 -0.15445,1.70348c-0.22731,1.3626 -0.78912,3.04652 -2.17767,3.04652c-1.38856,0 -1.95036,-1.68392 -2.17766,-3.04652c-0.09977,-0.52879 -0.15445,-1.10313 -0.15445,-1.70348c0,-9.86698 -0.44892,-20.18174 0,-30c0.63125,-13.80615 2.36679,-27.57432 3.27915,-41.34332c1.4413,-21.7235 2.61216,-43.35455 3.54452,-65.19317c0.43804,-10.26016 1.05312,-20.65611 1.03188,-30.96351c0,-3.42144 0.1955,-7.09844 0,-10.5c-0.19594,-3.40918 -0.49097,-6.53473 -0.49097,-10l-0.48467,-2.34905z"/><path d="M396.93041,-1.61772c0,16.29121 -0.58093,32.3167 -2.55799,48.14691c-0.85226,6.82398 -1.80951,14.19499 -3.08891,20.72736c-0.66118,3.37587 -1.65883,5.74678 -2.00845,9.30729c-0.83362,8.35045 -0.69117,16.58462 -0.69117,25.06845c0,11.83333 0,23.66667 0,35.5c0,1 0,2 0,3c0,0.60035 -0.05467,1.17469 -0.15445,1.70348c-0.2273,1.3626 -0.78911,3.04652 -2.17766,3.04652c-1.38855,0 -1.95035,-1.68392 -2.17766,-3.04652c-0.09976,-0.52879 -0.15445,-1.10313 -0.15445,-1.70348v-3c0,-11.83333 0,-23.66667 0,-35.5c0,-9.12668 -0.09004,-17.93175 0.78175,-26.93155c0.42245,-4.3022 1.62058,-7.68508 2.41029,-11.69271c1.18464,-6.0118 2.02004,-12.96778 2.80275,-19.27264c1.85079,-14.90836 2.35173,-30.01803 2.35173,-45.35309c0,-11.49873 4.66422,-11.77882 4.66422,-0.00002z"/><path d="M576.77402,-9.62868c-0.06882,1.97583 -0.77638,5.85222 -0.95512,7.19952c-1.06158,7.53919 -0.95729,15.44802 -1.5315,23.17746c-0.20979,2.82416 -0.72268,5.54333 -0.86944,8.38396c-0.34873,6.74999 0,13.95964 0,20.75c0,3.53971 -0.29087,7.46373 -0.08973,10.94507c0.25779,4.4621 1.16217,9.01766 1.53092,13.52403c0,0 0.3834,4.68537 -1.91699,5.46627c-2.30039,0.78089 -2.68379,-3.90448 -2.68379,-3.90448c-0.34005,-4.15553 -1.16491,-8.36228 -1.41492,-12.47597c-0.26804,-4.41044 -0.08973,-9.10621 -0.08973,-13.55493c0,-6.7931 -0.34501,-13.99639 0,-20.75c0.16409,-3.21192 0.72038,-7.02122 0.96002,-10.24707c0.59413,-7.99759 0.60455,-15.92369 1.60241,-23.79246c0.1416,-1.06739 0.91964,-5.35463 0.95512,-7.19952c0.11327,-5.89009 4.7374,-4.25841 4.50275,2.47812z"/><path d="M448.41794,-12.8677c-0.34873,6.74999 0,13.95964 0,20.75c0,3.53971 -0.29087,7.46373 -0.08973,10.94507c0.25779,4.4621 1.16217,9.01766 1.53092,13.52403c0,0 0.3834,4.68537 -1.91699,5.46627c-2.30039,0.78089 -2.68379,-3.90448 -2.68379,-3.90448c-0.34005,-4.15553 -1.16491,-8.36228 -1.41492,-12.47597c-0.26804,-4.41044 -0.08973,-9.10621 -0.08973,-13.55493c0,-6.7931 -0.34501,-13.99639 0,-20.75c0.16409,-3.21192 4.811,-2.84062 4.66424,0.00001z"/><path d="M521.0229,82.41692c-0.0013,0.07097 -0.00256,0.14196 -0.00374,0.21297c-1.47705,0 -2.95412,0 -4.43118,0c0.40091,-11.97654 1.37504,-23.85798 2.58238,-35.66156c0.6991,-6.83482 1.62779,-13.72795 2.13424,-20.62783c0.60349,-8.22208 0.48644,-16.91821 0.48644,-25.2037c0,-12.75 4.66422,-12.75002 4.66422,-0.00002c0,8.48925 0.11336,17.37038 -0.49551,25.7963c-0.53193,7.36128 -1.4781,14.68829 -2.2232,21.9728c-0.71772,7.01691 -1.14718,14.16466 -1.71055,21.23922c-0.31747,3.98672 -0.9288,8.22114 -1.00309,12.27182z" data-paper-data="{&quot;index&quot;:null}"/><path d=""/><path d=""/><path d="M545.77757,-10.6187c-2.32943,0.2279 -2.44401,-4.74453 -2.44401,-4.74453v-3c0.05966,-4.34618 4.51174,-5.43734 4.66422,0v3c0,0 0.1092,4.51663 -2.22023,4.74453z" data-paper-data="{&quot;index&quot;:null}"/><path d=""/></g></g></g></svg>