<svg version="1.1" xmlns="http://www.w3.org/2000/svg" xmlns:xlink="http://www.w3.org/1999/xlink" width="580.67543" height="424.9531" viewBox="0,0,580.67543,424.9531"><defs><linearGradient x1="245.11598" y1="-1.5" x2="245.11598" y2="361.5" gradientUnits="userSpaceOnUse" id="color-1"><stop offset="0" stop-color="#b4daff"/><stop offset="1" stop-color="#ffffbd"/></linearGradient><linearGradient x1="241.00003" y1="274.50218" x2="241.00003" y2="390.50218" gradientUnits="userSpaceOnUse" id="color-2"><stop offset="0" stop-color="#76cfff"/><stop offset="1" stop-color="#76cfff" stop-opacity="0"/></linearGradient><linearGradient x1="297.50834" y1="243.60512" x2="297.50834" y2="365.20486" gradientUnits="userSpaceOnUse" id="color-3"><stop offset="0" stop-color="#f5e862"/><stop offset="1" stop-color="#e0bc5c"/></linearGradient><linearGradient x1="59.50324" y1="168" x2="59.50324" y2="406" gradientUnits="userSpaceOnUse" id="color-4"><stop offset="0" stop-color="#8d8d8d"/><stop offset="1" stop-color="#bbbbbb"/></linearGradient><linearGradient x1="59.66257" y1="132.49999" x2="59.66257" y2="225.47867" gradientUnits="userSpaceOnUse" id="color-5"><stop offset="0" stop-color="#90e3c8"/><stop offset="1" stop-color="#47b566"/></linearGradient><linearGradient x1="178.51012" y1="213" x2="178.51012" y2="451" gradientUnits="userSpaceOnUse" id="color-6"><stop offset="0" stop-color="#8d8d8d"/><stop offset="1" stop-color="#bbbbbb"/></linearGradient><linearGradient x1="178.66945" y1="177.49999" x2="178.66945" y2="270.47867" gradientUnits="userSpaceOnUse" id="color-7"><stop offset="0" stop-color="#90e3c8"/><stop offset="1" stop-color="#47b566"/></linearGradient><linearGradient x1="240.65112" y1="243.94075" x2="240.65112" y2="390.50218" gradientUnits="userSpaceOnUse" id="color-8"><stop offset="0" stop-color="#76cfff" stop-opacity="0"/><stop offset="1" stop-color="#76cfff"/></linearGradient><linearGradient x1="88.08989" y1="310.30895" x2="88.08989" y2="388.54914" gradientUnits="userSpaceOnUse" id="color-9"><stop offset="0" stop-color="#8d8d8d"/><stop offset="1" stop-color="#bbbbbb"/></linearGradient><linearGradient x1="88.46712" y1="298.63867" x2="88.46712" y2="329.20451" gradientUnits="userSpaceOnUse" id="color-10"><stop offset="0" stop-color="#90e3c8"/><stop offset="1" stop-color="#47b566"/></linearGradient><linearGradient x1="567.89951" y1="308.00443" x2="567.89951" y2="406.00443" gradientUnits="userSpaceOnUse" id="color-11"><stop offset="0" stop-color="#000000" stop-opacity="0"/><stop offset="1" stop-color="#000000"/></linearGradient></defs><g transform="translate(48.05672,15.63023)"><g data-paper-data="{&quot;isPaintingLayer&quot;:true}" fill-rule="nonzero" stroke-linejoin="miter" stroke-miterlimit="10" stroke-dasharray="" stroke-dashoffset="0" style="mix-blend-mode: normal"><path d="M-28.96724,361.5v-363h548.16644v363z" fill="url(#color-1)" stroke="none" stroke-width="0" stroke-linecap="butt"/><path d="M1.00003,360.50218v-86h480v86z" data-paper-data="{&quot;origPos&quot;:null,&quot;index&quot;:null}" fill="url(#color-2)" stroke="none" stroke-width="NaN" stroke-linecap="butt"/><path d="M226.26426,243.70486c20.73891,2.95442 56.27692,20.56543 67,22.5c10.72308,1.93457 15.73127,-9.20794 27,-9.5c23.82202,-0.61743 12.98912,9.75241 58.5,17.5c14.49892,2.46824 -57.83243,13.15018 -61.5,19c-5.79835,9.24843 19.238,8.77669 12,13c-10.48708,6.11911 -30.35471,7.15081 -45.28734,11.69831c-15.40149,4.69028 -20.05559,8.62808 -22.71266,16.80169c-2.65707,8.17361 17.14955,10.74173 11.5,14c-15.7447,9.08044 -42.5,16.5 -42.5,16.5c0,0 -33.0053,-125.63203 -4,-121.5z" fill="url(#color-3)" stroke="#e0bd5c" stroke-width="2" stroke-linecap="round"/><g data-paper-data="{&quot;origPos&quot;:null,&quot;index&quot;:null}" stroke="none" stroke-width="1" stroke-linecap="butt"><path d="M337.9478,116.5c15.47445,0 29.49708,4.034 39.6511,10.551c10.15402,6.517 16.43943,15.517 16.43943,25.449c0,9.932 -6.28541,18.932 -16.43943,25.449c-10.15402,6.517 -24.17665,10.551 -39.6511,10.551c-15.47445,0 -29.49708,-4.034 -39.6511,-10.551c-10.15402,-6.517 -16.43943,-15.517 -16.43943,-25.449c0,-9.932 6.28541,-18.932 16.43943,-25.449c10.15402,-6.517 24.17665,-10.551 39.6511,-10.551z" fill="#ffffff"/><path d="M407.65254,100.5c15.47445,0 29.49708,4.034 39.6511,10.551c10.15402,6.517 16.43943,15.517 16.43943,25.449c0,9.932 -6.28541,18.932 -16.43943,25.449c-10.15402,6.517 -24.17665,10.551 -39.6511,10.551c-15.47445,0 -29.49708,-4.034 -39.6511,-10.551c-10.15402,-6.517 -16.43943,-15.517 -16.43943,-25.449c0,-9.932 6.28541,-18.932 16.43943,-25.449c10.15402,-6.517 24.17665,-10.551 39.6511,-10.551z" fill="#ffffff"/><g fill="#4a4f54"><path d="M350.47287,132c1.3527,0 2.57798,1.093 3.46454,2.858c0.88765,1.765 1.43657,4.202 1.43657,6.892c0,2.69 -0.54892,5.127 -1.43657,6.892c-0.88655,1.765 -2.11183,2.858 -3.46454,2.858c-1.3527,0 -2.57798,-1.093 -3.46454,-2.858c-0.88765,-1.765 -1.43657,-4.202 -1.43657,-6.892c0,-2.69 0.54892,-5.127 1.43657,-6.892c0.88655,-1.765 2.11183,-2.858 3.46454,-2.858z"/><path d="M373.34474,131.5c1.3527,0 2.57798,1.093 3.46454,2.858c0.88765,1.765 1.43657,4.202 1.43657,6.892c0,2.69 -0.54892,5.127 -1.43657,6.892c-0.88655,1.765 -2.11183,2.858 -3.46454,2.858c-1.3527,0 -2.57798,-1.093 -3.46454,-2.858c-0.88765,-1.765 -1.43657,-4.202 -1.43657,-6.892c0,-2.69 0.54892,-5.127 1.43657,-6.892c0.88655,-1.765 2.11183,-2.858 3.46454,-2.858z"/></g></g><g data-paper-data="{&quot;origPos&quot;:null}"><path d="M3.17245,367v-199h112.66158v199z" data-paper-data="{&quot;origPos&quot;:null}" fill="url(#color-4)" stroke="#a8a8a8" stroke-width="2" stroke-linecap="butt"/><path d="M80.36647,189l-7.30214,96l13.56112,10l-15.64744,64" data-paper-data="{&quot;origPos&quot;:null}" fill="none" stroke="#838383" stroke-width="5" stroke-linecap="round"/><path d="M60.5464,191l-9.73619,96l18.08149,10l-20.86326,64" data-paper-data="{&quot;origPos&quot;:null}" fill="none" stroke="#838383" stroke-width="5" stroke-linecap="round"/><path d="M38.63994,190l-7.30214,96l13.56111,10l-15.64744,64" data-paper-data="{&quot;origPos&quot;:null}" fill="none" stroke="#838383" stroke-width="5" stroke-linecap="round"/><path d="M22.72701,193l-5.17788,96l9.61606,10l-11.09546,64" data-paper-data="{&quot;origPos&quot;:null}" fill="none" stroke="#838383" stroke-width="5" stroke-linecap="round"/><path d="M9.54248,195l-3.30019,96l6.12892,10l-7.07183,64" data-paper-data="{&quot;origPos&quot;:null}" fill="none" stroke="#838383" stroke-width="5" stroke-linecap="round"/><path d="M2.8893,194l-1.65009,96l3.06445,10l-3.53591,64" data-paper-data="{&quot;origPos&quot;:null}" fill="none" stroke="#838383" stroke-width="5" stroke-linecap="round"/><path d="M118.75861,189l-1.63586,96l3.03804,10l-3.50543,64" data-paper-data="{&quot;origPos&quot;:null}" fill="none" stroke="#838383" stroke-width="5" stroke-linecap="round"/><path d="M111.68305,191l-3.92609,96l7.2913,10l-8.41304,64" data-paper-data="{&quot;origPos&quot;:null}" fill="none" stroke="#838383" stroke-width="5" stroke-linecap="round"/><path d="M98.49856,190l-5.17789,96l9.61607,10l-11.09546,64" data-paper-data="{&quot;origPos&quot;:null}" fill="none" stroke="#838383" stroke-width="5" stroke-linecap="round"/><path d="M102.49759,146.12524c10.96938,8.41586 17.7595,20.0382 17.7595,32.86409c0,12.82589 1.49217,21.56413 -5.51611,27.96112c-5.76902,4.42608 -19.91552,-12.19881 -26.76613,-8.90721c-11.25526,5.40797 -15.18698,17.91789 -28.31228,17.91789c-14.79097,0 -15.93422,-11.02587 -28.24679,-17.59015c-5.48114,-2.92219 -21.42333,12.28251 -26.11142,8.57946c-7.36837,-5.82018 -6.23631,-15.13523 -6.23631,-27.96112c0,-12.82589 6.79012,-24.44824 17.75949,-32.86409c10.96938,-8.41586 26.118,-13.62525 42.83503,-13.62525c16.71703,0 31.86564,5.20938 42.83502,13.62525z" data-paper-data="{&quot;origPos&quot;:null}" fill="url(#color-5)" stroke="#65a96e" stroke-width="2" stroke-linecap="butt"/></g><g data-paper-data="{&quot;origPos&quot;:null}"><path d="M122.17933,213h112.66158v156.89562c-4.99938,0.34118 -9.99908,0.80783 -14.99625,1.33709c-11.46293,-0.48327 -22.92437,-0.98192 -34.37222,-0.93266c-19.87693,0.08553 -39.77209,0.81444 -59.6285,1.64123c-1.2197,0.05082 -2.44133,0.09726 -3.66461,0.14017z" data-paper-data="{&quot;origPos&quot;:null}" fill="url(#color-6)" stroke="#a8a8a8" stroke-width="2" stroke-linecap="butt"/><path d="M199.37338,234l-7.30214,96l13.56112,10l-12.83,30.33788" data-paper-data="{&quot;origPos&quot;:null}" fill="none" stroke="#838383" stroke-width="5" stroke-linecap="round"/><path d="M179.55328,236l-9.73618,96l18.08149,10l-16.04371,28.45277" data-paper-data="{&quot;origPos&quot;:null}" fill="none" stroke="#838383" stroke-width="5" stroke-linecap="round"/><path d="M157.64685,235l-7.30213,96l13.56112,10l-12.67884,29.98043" data-paper-data="{&quot;origPos&quot;:null}" fill="none" stroke="#838383" stroke-width="5" stroke-linecap="round"/><path d="M141.73388,238l-5.17788,96l9.61606,10l-8.23297,27.45448" data-paper-data="{&quot;origPos&quot;:null}" fill="none" stroke="#838383" stroke-width="5" stroke-linecap="round"/><path d="M126.42457,371.91713l4.95356,-25.91713l-6.12892,-10l3.30019,-96" data-paper-data="{&quot;origPos&quot;:null}" fill="none" stroke="#838383" stroke-width="5" stroke-linecap="round"/><path d="M237.76549,234l-1.63587,96l3.03804,10l-2.823,29.79684" data-paper-data="{&quot;origPos&quot;:null}" fill="none" stroke="#838383" stroke-width="5" stroke-linecap="round"/><path d="M230.68994,236l-3.92609,96l7.29129,10l-6.47397,28.47213" data-paper-data="{&quot;origPos&quot;:null}" fill="none" stroke="#838383" stroke-width="5" stroke-linecap="round"/><path d="M217.50544,235l-5.17789,96l9.61607,10l-8.97991,29.94527" data-paper-data="{&quot;origPos&quot;:null}" fill="none" stroke="#838383" stroke-width="5" stroke-linecap="round"/><path d="M221.50448,191.12524c10.96937,8.41586 17.75949,20.0382 17.75949,32.86409c0,12.82589 1.49217,21.56413 -5.51611,27.96112c-5.76902,4.42608 -19.91551,-12.19881 -26.76612,-8.90721c-11.25526,5.40797 -15.18699,17.91789 -28.31229,17.91789c-14.79098,0 -15.93422,-11.02587 -28.24679,-17.59015c-5.48114,-2.92219 -21.42333,12.28251 -26.11142,8.57946c-7.36837,-5.82018 -6.23631,-15.13523 -6.23631,-27.96112c0,-12.82589 6.79012,-24.44824 17.75949,-32.86409c10.96937,-8.41586 26.118,-13.62525 42.83503,-13.62525c16.71703,0 31.86565,5.20938 42.83503,13.62525z" data-paper-data="{&quot;origPos&quot;:null}" fill="url(#color-7)" stroke="#65a96e" stroke-width="2" stroke-linecap="butt"/></g><g data-paper-data="{&quot;origPos&quot;:null,&quot;index&quot;:null}" stroke="none" stroke-width="1" stroke-linecap="butt"><path d="M224.88163,46.051c10.15402,6.517 16.43943,15.517 16.43943,25.449c0,9.932 -6.28541,18.932 -16.43943,25.449c-10.15402,6.517 -24.17665,10.551 -39.6511,10.551c-15.47445,0 -29.49708,-4.034 -39.6511,-10.551c-10.15402,-6.517 -16.43943,-15.517 -16.43943,-25.449c0,-9.932 6.28541,-18.932 16.43943,-25.449c10.15402,-6.517 24.17665,-10.551 39.6511,-10.551c15.47445,0 29.49708,4.034 39.6511,10.551z" fill="#ffffff"/><path d="M155.1769,30.051c10.15402,6.517 16.43943,15.517 16.43943,25.449c0,9.932 -6.28541,18.932 -16.43943,25.449c-10.15402,6.517 -24.17665,10.551 -39.6511,10.551c-15.47445,0 -29.49708,-4.034 -39.6511,-10.551c-10.15402,-6.517 -16.43943,-15.517 -16.43943,-25.449c0,-9.932 6.28541,-18.932 16.43943,-25.449c10.15402,-6.517 24.17665,-10.551 39.6511,-10.551c15.47445,0 29.49708,4.034 39.6511,10.551z" fill="#ffffff"/><g fill="#4a4f54"><path d="M176.17,53.858c0.88765,1.765 1.43657,4.202 1.43657,6.892c0,2.69 -0.54892,5.127 -1.43657,6.892c-0.88655,1.765 -2.11183,2.858 -3.46454,2.858c-1.3527,0 -2.57798,-1.093 -3.46454,-2.858c-0.88765,-1.765 -1.43657,-4.202 -1.43657,-6.892c0,-2.69 0.54892,-5.127 1.43657,-6.892c0.88655,-1.765 2.11183,-2.858 3.46454,-2.858c1.3527,0 2.57798,1.093 3.46454,2.858z"/><path d="M153.29814,53.358c0.88765,1.765 1.43657,4.202 1.43657,6.892c0,2.69 -0.54892,5.127 -1.43657,6.892c-0.88655,1.765 -2.11183,2.858 -3.46454,2.858c-1.3527,0 -2.57798,-1.093 -3.46454,-2.858c-0.88765,-1.765 -1.43657,-4.202 -1.43657,-6.892c0,-2.69 0.54892,-5.127 1.43657,-6.892c0.88655,-1.765 2.11183,-2.858 3.46454,-2.858c1.3527,0 2.57798,1.093 3.46454,2.858z"/></g></g><path d="M-26.33903,390.50218v-146.56143h533.9803v146.56143z" data-paper-data="{&quot;index&quot;:null}" fill="url(#color-8)" stroke="none" stroke-width="NaN" stroke-linecap="butt"/><g data-paper-data="{&quot;origPos&quot;:null}"><path d="M-25.27625,388.54914v-78.24019h246.73228v78.24019z" data-paper-data="{&quot;origPos&quot;:null}" fill="url(#color-9)" stroke="#a8a8a8" stroke-width="2" stroke-linecap="butt"/><path d="M214.27361,320.26031l3.42623,34.84647l-8.56563,33.86025" data-paper-data="{&quot;origPos&quot;:null}" fill="none" stroke="#838383" stroke-width="5" stroke-linecap="round"/><path d="M196.72807,321.27625l3.42624,34.84647l-8.56563,33.86025" data-paper-data="{&quot;origPos&quot;:null}" fill="none" stroke="#838383" stroke-width="5" stroke-linecap="round"/><path d="M181.24673,319.24438l3.42623,34.84647l-8.56563,33.86025" data-paper-data="{&quot;origPos&quot;:null}" fill="none" stroke="#838383" stroke-width="5" stroke-linecap="round"/><path d="M163.7012,320.26031l3.42624,34.84647l-8.56563,33.86025" data-paper-data="{&quot;origPos&quot;:null}" fill="none" stroke="#838383" stroke-width="5" stroke-linecap="round"/><path d="M148.21983,320.26031l3.42624,34.84647l-8.56563,33.86025" data-paper-data="{&quot;origPos&quot;:null}" fill="none" stroke="#838383" stroke-width="5" stroke-linecap="round"/><path d="M130.67432,321.27625l3.42624,34.84647l-8.56563,33.86025" data-paper-data="{&quot;origPos&quot;:null}" fill="none" stroke="#838383" stroke-width="5" stroke-linecap="round"/><path d="M115.19297,319.24438l3.42624,34.84647l-8.56563,33.86025" data-paper-data="{&quot;origPos&quot;:null}" fill="none" stroke="#838383" stroke-width="5" stroke-linecap="round"/><path d="M97.64744,320.26031l3.42624,34.84647l-8.56563,33.86025" data-paper-data="{&quot;origPos&quot;:null}" fill="none" stroke="#838383" stroke-width="5" stroke-linecap="round"/><path d="M82.16609,320.26031l3.42624,34.84647l-8.56563,33.86025" data-paper-data="{&quot;origPos&quot;:null}" fill="none" stroke="#838383" stroke-width="5" stroke-linecap="round"/><path d="M64.62056,321.27625l3.42624,34.84647l-8.56563,33.86025" data-paper-data="{&quot;origPos&quot;:null}" fill="none" stroke="#838383" stroke-width="5" stroke-linecap="round"/><path d="M49.13922,319.24438l3.42623,34.84647l-8.56563,33.86025" data-paper-data="{&quot;origPos&quot;:null}" fill="none" stroke="#838383" stroke-width="5" stroke-linecap="round"/><path d="M31.59368,320.26031l3.42624,34.84647l-8.56563,33.86025" data-paper-data="{&quot;origPos&quot;:null}" fill="none" stroke="#838383" stroke-width="5" stroke-linecap="round"/><path d="M16.11231,321.27625l3.42624,34.84647l-8.56563,33.86025" data-paper-data="{&quot;origPos&quot;:null}" fill="none" stroke="#838383" stroke-width="5" stroke-linecap="round"/><path d="M-1.43319,322.29219l3.42624,34.84647l-8.56563,33.86025" data-paper-data="{&quot;origPos&quot;:null}" fill="none" stroke="#838383" stroke-width="5" stroke-linecap="round"/><path d="M-16.91454,320.26031l3.42624,34.84647l-8.56563,33.86025" data-paper-data="{&quot;origPos&quot;:null}" fill="none" stroke="#838383" stroke-width="5" stroke-linecap="round"/><path d="M211.88132,299.05409c25.97058,2.76664 20.04654,10.65111 20.04654,14.8675c0,4.21639 3.53279,7.089 -13.05968,9.19194c-13.65848,1.45503 -47.15105,-4.01024 -63.37022,-2.92815c-26.64742,1.77782 -35.956,5.89033 -67.03084,5.89033c-35.01842,0 -37.72512,-3.62465 -66.87579,-5.78259c-12.97689,-0.96064 -30.72087,4.03775 -41.82016,2.82041c-17.44502,-1.91332 -14.76479,-4.97555 -14.76479,-9.19194c0,-4.21639 -7.92405,-11.08493 18.04654,-13.85156c25.97058,-2.76664 65.83576,-1.43135 105.41422,-1.43135c39.57846,0 97.44362,-2.35122 123.4142,0.41542z" data-paper-data="{&quot;origPos&quot;:null}" fill="url(#color-10)" stroke="#65a96e" stroke-width="2" stroke-linecap="butt"/></g><g stroke="none" stroke-linecap="butt"><path d="M43.75724,299.01399c-0.22483,-0.17331 -0.33062,-0.55329 -0.36405,-1.0209c-0.39677,0.08403 -0.77343,0.02713 -1.08613,-0.07422c-1.81368,0.67446 -3.70867,0.91438 -5.43369,-0.19378c-4.26397,-2.73921 -5.56474,-5.2832 -0.10511,-7.68849c0.57468,-0.25318 1.22265,0.28169 1.82307,0.46303c0.9765,0.29493 1.74215,0.61143 2.42613,0.97989c0.74386,-4.35749 2.51375,-8.15396 4.77579,-12.09356c0,0 1.14824,-1.99978 3.11666,-0.83324c1.96841,1.16654 0.82017,3.16633 0.82017,3.16633c-1.78821,3.11436 -3.38136,6.15405 -4.09681,9.56999c0.38789,-0.12599 0.81388,-0.253 1.31133,-0.41178c0.56097,-0.17905 1.14292,-0.72022 1.69206,-0.50665c4.56574,1.77572 4.68517,3.90726 2.58306,7.68277c-0.22987,0.41286 -0.62602,0.76027 -1.06345,0.92606c-0.90652,0.3436 -1.90024,0.37157 -2.85036,0.55736c-0.95678,0 -1.91462,-0.06292 -2.86534,-0.17222l-1.21538,-0.15434c0,0 0.2298,-0.08682 0.53206,-0.19623z" fill="#65a96e" stroke-width="0.5"/><g stroke-width="0"><g data-paper-data="{&quot;origPos&quot;:null}" fill="#ffd691"><path d="M49.91435,277.90472c1.69766,2.74185 0.13756,6.84102 -3.48455,9.15576c-3.62212,2.31474 -7.93464,1.96851 -9.63229,-0.77334c-1.69765,-2.74185 -0.13757,-6.84102 3.48455,-9.15576c3.62212,-2.31474 7.93465,-1.96851 9.6323,0.77334z" data-paper-data="{&quot;origRot&quot;:0,&quot;origPos&quot;:null}"/><path d="M62.372,268.3354c1.69765,2.74185 0.13756,6.84101 -3.48455,9.15575c-3.62212,2.31474 -7.93463,1.96851 -9.63229,-0.77334c-1.69766,-2.74185 -0.13758,-6.84101 3.48454,-9.15575c3.62212,-2.31474 7.93464,-1.96851 9.6323,0.77334z" data-paper-data="{&quot;origRot&quot;:0,&quot;origPos&quot;:null}"/></g><g data-paper-data="{&quot;origPos&quot;:null,&quot;origRot&quot;:0}" fill="#ffd691"><path d="M49.32115,277.67454c-2.61322,1.8558 -6.71908,0.47175 -9.17069,-3.09137c-2.45161,-3.56312 -2.3206,-7.95601 0.29262,-9.81182c2.61322,-1.8558 6.71908,-0.47175 9.17069,3.09137c2.45161,3.56312 2.3206,7.95601 -0.29262,9.81182z" data-paper-data="{&quot;origRot&quot;:0,&quot;origPos&quot;:null}"/><path d="M59.3341,289.85118c-2.61322,1.8558 -6.71908,0.47175 -9.17069,-3.09137c-2.45161,-3.56312 -2.32059,-7.95601 0.29263,-9.81181c2.61322,-1.8558 6.71907,-0.47176 9.17068,3.09136c2.45161,3.56312 2.3206,7.95601 -0.29262,9.81182z" data-paper-data="{&quot;origRot&quot;:0,&quot;origPos&quot;:null}"/></g><path d="M44.41938,276.84824c0,-3.0687 2.44864,-5.55638 5.46921,-5.55638c3.02057,0 5.46922,2.48768 5.46922,5.55638c0,3.0687 -2.44865,5.55637 -5.46922,5.55637c-3.02056,0 -5.46921,-2.48767 -5.46921,-5.55637z" data-paper-data="{&quot;origPos&quot;:null}" fill="#fffba7"/></g></g><g data-paper-data="{&quot;index&quot;:null}" stroke="none" stroke-linecap="butt"><path d="M177.89412,298.88909c0,0 0.2298,-0.08682 0.53206,-0.19623c-0.22482,-0.17331 -0.33062,-0.55329 -0.36405,-1.0209c-0.39677,0.08403 -0.77343,0.02713 -1.08613,-0.07422c-1.81367,0.67446 -3.70867,0.91437 -5.43369,-0.1938c-4.26397,-2.73921 -5.56475,-5.28319 -0.10512,-7.68848c0.57468,-0.25318 1.22265,0.28169 1.82307,0.46303c0.9765,0.29493 1.74217,0.61143 2.42615,0.97989c0.74386,-4.3575 2.51374,-8.15396 4.77579,-12.09356c0,0 1.14824,-1.99979 3.11665,-0.83325c1.96841,1.16655 0.82017,3.16633 0.82017,3.16633c-1.78821,3.11436 -3.38137,6.15404 -4.09681,9.56999c0.38789,-0.12599 0.81388,-0.253 1.31133,-0.41178c0.56097,-0.17905 1.14291,-0.72022 1.69205,-0.50664c4.56575,1.77572 4.68518,3.90726 2.58306,7.68276c-0.22986,0.41285 -0.62602,0.76027 -1.06345,0.92607c-0.90652,0.34359 -1.90024,0.37158 -2.85035,0.55736c-0.95679,0 -1.91462,-0.06293 -2.86534,-0.17223l-1.21538,-0.15434z" fill="#65a96e" stroke-width="0.5"/><g stroke-width="0"><g data-paper-data="{&quot;origPos&quot;:null}" fill="#dc91ff"><path d="M174.95099,276.81025c3.62212,-2.31474 7.93465,-1.96851 9.6323,0.77334c1.69766,2.74185 0.13757,6.84102 -3.48455,9.15576c-3.62211,2.31474 -7.93464,1.96851 -9.63229,-0.77334c-1.69766,-2.74185 -0.13757,-6.84102 3.48455,-9.15576z" data-paper-data="{&quot;origRot&quot;:0,&quot;origPos&quot;:null}"/><path d="M187.40864,267.24093c3.62212,-2.31474 7.93465,-1.96851 9.6323,0.77334c1.69766,2.74185 0.13757,6.84102 -3.48455,9.15576c-3.62212,2.31474 -7.93464,1.96851 -9.63229,-0.77334c-1.69765,-2.74185 -0.13757,-6.84102 3.48455,-9.15576z" data-paper-data="{&quot;origRot&quot;:0,&quot;origPos&quot;:null}"/></g><g data-paper-data="{&quot;origPos&quot;:null,&quot;origRot&quot;:0}" fill="#dc91ff"><path d="M183.9901,277.35341c-2.61322,1.8558 -6.71908,0.47175 -9.17069,-3.09137c-2.45162,-3.56311 -2.3206,-7.95601 0.29262,-9.81181c2.61322,-1.8558 6.71908,-0.47175 9.17069,3.09137c2.45162,3.56311 2.3206,7.95601 -0.29262,9.81181z" data-paper-data="{&quot;origRot&quot;:0,&quot;origPos&quot;:null}"/><path d="M194.00305,289.53005c-2.61322,1.8558 -6.71908,0.47175 -9.17069,-3.09137c-2.45161,-3.56311 -2.32059,-7.95601 0.29263,-9.81181c2.61322,-1.8558 6.71907,-0.47176 9.17068,3.09136c2.45162,3.56312 2.3206,7.95602 -0.29262,9.81182z" data-paper-data="{&quot;origRot&quot;:0,&quot;origPos&quot;:null}"/></g><path d="M179.08833,276.52711c0,-3.0687 2.44865,-5.55638 5.46921,-5.55638c3.02057,0 5.46922,2.48768 5.46922,5.55638c0,3.0687 -2.44866,5.55637 -5.46922,5.55637c-3.02057,0 -5.46921,-2.48767 -5.46921,-5.55637z" data-paper-data="{&quot;origPos&quot;:null}" fill="#fffba7"/></g></g><path d="" fill="#f5e862" stroke="none" stroke-width="0.5" stroke-linecap="butt"/><path d="M486.00611,366.97l-493.51352,1.49689c0,-20.15415 0,-40.3083 0,-60.46246h490.88069c0.19361,6.68646 2.63283,58.96557 2.63283,58.96557z" data-paper-data="{&quot;origPos&quot;:null,&quot;index&quot;:null}" fill="url(#color-11)" stroke="none" stroke-width="1.22826" stroke-linecap="butt"/><g data-paper-data="{&quot;index&quot;:null}" stroke="none" stroke-linecap="butt"><path d="M119.3135,298.59087c0.30226,0.10941 0.53206,0.19623 0.53206,0.19623l-1.21538,0.15434c-0.95072,0.1093 -1.90856,0.17222 -2.86534,0.17222c-0.95012,-0.18579 -1.94384,-0.21376 -2.85036,-0.55736c-0.43743,-0.16579 -0.83358,-0.5132 -1.06345,-0.92606c-2.10211,-3.77551 -1.98268,-5.90705 2.58306,-7.68277c0.54914,-0.21357 1.13109,0.3276 1.69206,0.50665c0.49745,0.15878 0.92344,0.28579 1.31133,0.41178c-0.71545,-3.41594 -2.3086,-6.45563 -4.09681,-9.56999c0,0 -1.14824,-1.99979 0.82017,-3.16633c1.96842,-1.16654 3.11666,0.83324 3.11666,0.83324c2.26204,3.9396 4.03193,7.73607 4.77579,12.09356c0.68398,-0.36846 1.44963,-0.68496 2.42613,-0.97989c0.60042,-0.18134 1.24839,-0.71621 1.82307,-0.46303c5.45963,2.40529 4.15886,4.94928 -0.10511,7.68849c-1.72502,1.10816 -3.62001,0.86824 -5.43369,0.19378c-0.3127,0.10135 -0.68936,0.15825 -1.08613,0.07422c-0.03343,0.46761 -0.13922,0.84759 -0.36405,1.0209z" fill="#65a96e" stroke-width="0.5"/><g stroke-width="0"><g data-paper-data="{&quot;origPos&quot;:null}" fill="#ffd691"><path d="M113.15639,277.48158c1.69765,-2.74185 6.01018,-3.08808 9.6323,-0.77334c3.62212,2.31474 5.1822,6.41391 3.48455,9.15576c-1.69765,2.74185 -6.01017,3.08808 -9.63229,0.77334c-3.62211,-2.31474 -5.18221,-6.41391 -3.48455,-9.15576z" data-paper-data="{&quot;origRot&quot;:0,&quot;origPos&quot;:null}"/><path d="M110.33105,267.13892c3.62212,2.31474 5.1822,6.4139 3.48454,9.15575c-1.69766,2.74185 -6.01017,3.08808 -9.63229,0.77334c-3.62211,-2.31474 -5.1822,-6.4139 -3.48455,-9.15575c1.69766,-2.74185 6.01018,-3.08808 9.6323,-0.77334z" data-paper-data="{&quot;origRot&quot;:0,&quot;origPos&quot;:null}"/></g><g data-paper-data="{&quot;origPos&quot;:null,&quot;origRot&quot;:0}" fill="#ffd691"><path d="M113.45698,267.43958c2.45161,-3.56312 6.55747,-4.94717 9.17069,-3.09137c2.61322,1.85581 2.74423,6.2487 0.29262,9.81182c-2.45161,3.56312 -6.55747,4.94717 -9.17069,3.09137c-2.61322,-1.85581 -2.74423,-6.2487 -0.29262,-9.81182z" data-paper-data="{&quot;origRot&quot;:0,&quot;origPos&quot;:null}"/><path d="M103.44403,279.61622c2.45161,-3.56312 6.55746,-4.94716 9.17068,-3.09136c2.61322,1.8558 2.74424,6.24869 0.29263,9.81181c-2.45161,3.56312 -6.55747,4.94717 -9.17069,3.09137c-2.61322,-1.85581 -2.74423,-6.2487 -0.29262,-9.81182z" data-paper-data="{&quot;origRot&quot;:0,&quot;origPos&quot;:null}"/></g><path d="M113.18216,281.98147c-3.02057,0 -5.46922,-2.48767 -5.46922,-5.55637c0,-3.0687 2.44865,-5.55638 5.46922,-5.55638c3.02057,0 5.46921,2.48768 5.46921,5.55638c0,3.0687 -2.44865,5.55637 -5.46921,5.55637z" data-paper-data="{&quot;origPos&quot;:null}" fill="#fffba7"/></g></g><path d="M-48.05671,409.32286v-424.95309h580.67543v424.9531z" fill="none" stroke="#65a96e" stroke-width="0" stroke-linecap="butt"/></g></g></svg>