<svg version="1.1" xmlns="http://www.w3.org/2000/svg" xmlns:xlink="http://www.w3.org/1999/xlink" width="231.70732" height="134.14634" viewBox="0,0,231.70732,134.14634"><g transform="translate(-124.14637,-301.51926)"><g data-paper-data="{&quot;isPaintingLayer&quot;:true}" fill-rule="nonzero" stroke-linejoin="miter" stroke-miterlimit="10" stroke-dasharray="" stroke-dashoffset="0" style="mix-blend-mode: normal"><path d="M124.14638,435.6656v-134.14634h231.70732v134.14634z" fill="none" stroke="#1130ad" stroke-width="0" stroke-linecap="butt"/><g stroke="#1138ad" stroke-width="2.5"><path d="M204.17498,353.84084c0,-19.78564 16.03942,-35.82506 35.82506,-35.82506c19.78564,0 35.82506,16.03942 35.82506,35.82506c0,19.78564 -16.03942,35.82506 -35.82506,35.82506c-19.78564,0 -35.82506,-16.03942 -35.82506,-35.82506z" fill="#3c80ff" stroke-linecap="butt"/><g><path d="M261.04605,338.75146v36.13539h-42.09202v-42.09202h36.18511z" fill="#687a8c" stroke-linecap="butt"/><path d="M254.48839,352.61673v21.81132h-29.00121v-21.81132z" fill="#ffffff" stroke-linecap="butt"/><path d="M250.562,333.02516v14.95819h-22.49605v-14.95819z" fill="#ffffff" stroke-linecap="butt"/><path d="M238.66075,334.70811v7.65311h-3.44388v-7.65311z" fill="#1138ad" stroke-linecap="butt"/><path d="M231.98022,366.98909h16.25186" fill="none" stroke-linecap="round"/><path d="M231.98022,360.08204h16.25186" fill="none" stroke-linecap="round"/></g></g><g stroke-linecap="butt"><path d="M187.43131,410.36601v-28.28976h105.13744v28.28976z" fill-opacity="0.50196" fill="#000000" stroke="#238c39" stroke-width="0"/><text transform="translate(197.42728,402.48021) scale(0.52159,0.52159)" font-size="40" xml:space="preserve" fill="#ffffff" fill-rule="nonzero" stroke="none" stroke-width="1" stroke-linecap="butt" stroke-linejoin="miter" stroke-miterlimit="10" stroke-dasharray="" stroke-dashoffset="0" font-family="&quot;Microsoft YaHei&quot;, &quot;微软雅黑&quot;, STXihei, &quot;华文细黑&quot;" font-weight="normal" text-anchor="start" style="mix-blend-mode: normal"><tspan x="0" dy="0">Get save</tspan></text></g></g></g></svg>