<svg version="1.1" xmlns="http://www.w3.org/2000/svg" xmlns:xlink="http://www.w3.org/1999/xlink" width="482.41825" height="154.36755" viewBox="0,0,482.41825,154.36755"><defs><linearGradient x1="85.78546" y1="255.63743" x2="85.78546" y2="335.09857" gradientUnits="userSpaceOnUse" id="color-1"><stop offset="0" stop-color="#6fb361"/><stop offset="1" stop-color="#4a7b50"/></linearGradient><linearGradient x1="10.81331" y1="286.53898" x2="10.81331" y2="366.00012" gradientUnits="userSpaceOnUse" id="color-2"><stop offset="0" stop-color="#6fb361"/><stop offset="1" stop-color="#4a7b50"/></linearGradient><linearGradient x1="171.82724" y1="279.91722" x2="171.82724" y2="359.37836" gradientUnits="userSpaceOnUse" id="color-3"><stop offset="0" stop-color="#6fb361"/><stop offset="1" stop-color="#4a7b50"/></linearGradient><linearGradient x1="247.54172" y1="257.15038" x2="247.54172" y2="336.61152" gradientUnits="userSpaceOnUse" id="color-4"><stop offset="0" stop-color="#6fb361"/><stop offset="1" stop-color="#4a7b50"/></linearGradient><linearGradient x1="326.17682" y1="268.98458" x2="326.17682" y2="348.44572" gradientUnits="userSpaceOnUse" id="color-5"><stop offset="0" stop-color="#6fb361"/><stop offset="1" stop-color="#4a7b50"/></linearGradient><linearGradient x1="427.30912" y1="253.08303" x2="427.30912" y2="332.54416" gradientUnits="userSpaceOnUse" id="color-6"><stop offset="0" stop-color="#6fb361"/><stop offset="1" stop-color="#4a7b50"/></linearGradient><linearGradient x1="103.63337" y1="305.95867" x2="103.63337" y2="385.41981" gradientUnits="userSpaceOnUse" id="color-7"><stop offset="0" stop-color="#6fb361"/><stop offset="1" stop-color="#4a7b50"/></linearGradient><linearGradient x1="238.80913" y1="294.26437" x2="238.80913" y2="373.72551" gradientUnits="userSpaceOnUse" id="color-8"><stop offset="0" stop-color="#6fb361"/><stop offset="1" stop-color="#4a7b50"/></linearGradient><linearGradient x1="362.42612" y1="295.368" x2="362.42612" y2="374.82914" gradientUnits="userSpaceOnUse" id="color-9"><stop offset="0" stop-color="#6fb361"/><stop offset="1" stop-color="#4a7b50"/></linearGradient><linearGradient x1="443.65593" y1="297.57525" x2="443.65593" y2="377.03639" gradientUnits="userSpaceOnUse" id="color-10"><stop offset="0" stop-color="#6fb361"/><stop offset="1" stop-color="#4a7b50"/></linearGradient><linearGradient x1="32.84395" y1="329.40945" x2="32.84395" y2="408.87059" gradientUnits="userSpaceOnUse" id="color-11"><stop offset="0" stop-color="#6fb361"/><stop offset="1" stop-color="#4a7b50"/></linearGradient><linearGradient x1="167.47069" y1="337.30582" x2="167.47069" y2="416.76696" gradientUnits="userSpaceOnUse" id="color-12"><stop offset="0" stop-color="#6fb361"/><stop offset="1" stop-color="#4a7b50"/></linearGradient><linearGradient x1="286.56258" y1="327.09857" x2="286.56258" y2="406.55971" gradientUnits="userSpaceOnUse" id="color-13"><stop offset="0" stop-color="#6fb361"/><stop offset="1" stop-color="#4a7b50"/></linearGradient><linearGradient x1="-38.18672" y1="313.339" x2="-38.18672" y2="392.80014" gradientUnits="userSpaceOnUse" id="color-14"><stop offset="0" stop-color="#6fb361"/><stop offset="1" stop-color="#4a7b50"/></linearGradient><linearGradient x1="514.54725" y1="277.44615" x2="514.54725" y2="356.9073" gradientUnits="userSpaceOnUse" id="color-15"><stop offset="0" stop-color="#6fb361"/><stop offset="1" stop-color="#4a7b50"/></linearGradient><linearGradient x1="491.54728" y1="324.58561" x2="491.54728" y2="404.04676" gradientUnits="userSpaceOnUse" id="color-16"><stop offset="0" stop-color="#6fb361"/><stop offset="1" stop-color="#4a7b50"/></linearGradient><linearGradient x1="239.99932" y1="307.45058" x2="239.99932" y2="406.45058" gradientUnits="userSpaceOnUse" id="color-17"><stop offset="0" stop-color="#000000" stop-opacity="0"/><stop offset="1" stop-color="#000000"/></linearGradient></defs><g transform="translate(1.52206,-252.08303)"><g data-paper-data="{&quot;isPaintingLayer&quot;:true}" fill-rule="nonzero" stroke-linecap="butt" stroke-linejoin="miter" stroke-miterlimit="10" stroke-dasharray="" stroke-dashoffset="0" style="mix-blend-mode: normal"><path d="M125.43656,267.2818c10.15402,7.19234 16.43943,17.12498 16.43943,28.0862c0,10.96122 -6.28541,20.89387 -16.43943,28.0862c-10.15402,7.19234 -24.17665,11.64437 -39.6511,11.64437c-15.47445,0 -29.49708,-4.45203 -39.6511,-11.64437c-10.15402,-7.19234 -16.43943,-17.12498 -16.43943,-28.0862c0,-10.96122 6.28541,-20.89387 16.43943,-28.0862c10.15402,-7.19234 24.17665,-11.64437 39.6511,-11.64437c15.47445,0 29.49708,4.45203 39.6511,11.64437z" data-paper-data="{&quot;origPos&quot;:null}" fill="url(#color-1)" stroke="#4b7c50" stroke-width="2"/><path d="M50.46441,298.18334c10.15402,7.19234 16.43943,17.12498 16.43943,28.0862c0,10.96122 -6.28541,20.89387 -16.43943,28.0862c-10.15402,7.19234 -24.17665,11.64437 -39.6511,11.64437c-5.67831,0 -5.16114,-0.09947 -10.32905,-1.21383c0.2389,-3.03607 -0.18228,-71.31495 -0.89477,-76.86104c4.69315,-0.90382 6.12983,-1.38627 11.22384,-1.38627c15.47445,0 29.49708,4.45203 39.6511,11.64437z" data-paper-data="{&quot;origPos&quot;:null}" fill="url(#color-2)" stroke="#4b7c50" stroke-width="2"/><path d="M211.47834,291.56159c10.15402,7.19234 16.43943,17.12498 16.43943,28.0862c0,10.96122 -6.28541,20.89387 -16.43943,28.0862c-10.15402,7.19234 -24.17665,11.64437 -39.6511,11.64437c-15.47445,0 -29.49708,-4.45203 -39.6511,-11.64437c-10.15402,-7.19234 -16.43943,-17.12498 -16.43943,-28.0862c0,-10.96122 6.28541,-20.89387 16.43943,-28.0862c10.15402,-7.19234 24.17665,-11.64437 39.6511,-11.64437c15.47445,0 29.49708,4.45203 39.6511,11.64437z" data-paper-data="{&quot;origPos&quot;:null}" fill="url(#color-3)" stroke="#4b7c50" stroke-width="2"/><path d="M287.19282,268.79475c10.15402,7.19234 16.43943,17.12498 16.43943,28.0862c0,10.96122 -6.28541,20.89387 -16.43943,28.0862c-10.15402,7.19234 -24.17665,11.64437 -39.6511,11.64437c-15.47445,0 -29.49708,-4.45203 -39.6511,-11.64437c-10.15402,-7.19234 -16.43943,-17.12498 -16.43943,-28.0862c0,-10.96122 6.28541,-20.89387 16.43943,-28.0862c10.15402,-7.19234 24.17665,-11.64437 39.6511,-11.64437c15.47445,0 29.49708,4.45203 39.6511,11.64437z" data-paper-data="{&quot;origPos&quot;:null}" fill="url(#color-4)" stroke="#4b7c50" stroke-width="2"/><path d="M365.82791,280.62895c10.15402,7.19234 16.43943,17.12498 16.43943,28.0862c0,10.96122 -6.28541,20.89387 -16.43943,28.0862c-10.15402,7.19234 -24.17665,11.64437 -39.6511,11.64437c-15.47445,0 -29.49708,-4.45203 -39.6511,-11.64437c-10.15402,-7.19234 -16.43943,-17.12498 -16.43943,-28.0862c0,-10.96122 6.28541,-20.89387 16.43943,-28.0862c10.15402,-7.19234 24.17665,-11.64437 39.6511,-11.64437c15.47445,0 29.49708,4.45203 39.6511,11.64437z" data-paper-data="{&quot;origPos&quot;:null}" fill="url(#color-5)" stroke="#4b7c50" stroke-width="2"/><path d="M466.96023,264.7274c10.15402,7.19234 12.43943,17.12498 12.43943,28.0862c0,10.96122 -2.28541,20.89387 -12.43943,28.0862c-10.15402,7.19234 -24.17665,11.64437 -39.6511,11.64437c-15.47445,0 -29.49708,-4.45203 -39.6511,-11.64437c-10.15402,-7.19234 -16.43943,-17.12498 -16.43943,-28.0862c0,-10.96122 6.28541,-20.89387 16.43943,-28.0862c10.15402,-7.19234 24.17665,-11.64437 39.6511,-11.64437c15.47445,0 29.49708,4.45203 39.6511,11.64437z" data-paper-data="{&quot;origPos&quot;:null}" fill="url(#color-6)" stroke="#4b7c50" stroke-width="2"/><path d="M143.28447,317.60304c10.15402,7.19234 16.43943,17.12498 16.43943,28.0862c0,4.98982 -1.30253,9.76649 -3.67958,14.16853c-0.29245,0.00481 -0.58406,0.00947 -0.87474,0.01397c-28.27647,0.43786 -56.51267,1.37554 -84.74913,2.81135c-5.47694,0.2785 -10.91998,0.75796 -16.27109,1.71308c-4.21531,-5.57656 -6.60651,-11.94609 -6.60651,-18.70693c0,-10.96122 6.28541,-20.89387 16.43943,-28.0862c10.15402,-7.19234 24.17665,-11.64437 39.6511,-11.64437c15.47445,0 29.49708,4.45203 39.6511,11.64437z" fill="url(#color-7)" stroke="#4b7c50" stroke-width="2"/><path d="M278.4602,305.90874c10.15402,7.19234 16.43943,17.12498 16.43943,28.0862c0,10.96122 -6.28541,20.89387 -16.43943,28.0862c-10.15402,7.19234 -24.17665,11.64437 -39.6511,11.64437c-15.47445,0 -29.49708,-4.45203 -39.6511,-11.64437c-10.15402,-7.19234 -16.43943,-17.12498 -16.43943,-28.0862c0,-10.96122 6.28541,-20.89387 16.43943,-28.0862c10.15402,-7.19234 24.17665,-11.64437 39.6511,-11.64437c15.47445,0 29.49708,4.45203 39.6511,11.64437z" data-paper-data="{&quot;origPos&quot;:null}" fill="url(#color-8)" stroke="#4b7c50" stroke-width="2"/><path d="M402.07722,307.01237c10.15402,7.19234 16.43943,17.12498 16.43943,28.0862c0,10.96122 -6.28541,20.89387 -16.43943,28.0862c-10.15402,7.19234 -24.17665,11.64437 -39.6511,11.64437c-15.47445,0 -29.49708,-4.45203 -39.6511,-11.64437c-10.15402,-7.19234 -16.43943,-17.12498 -16.43943,-28.0862c0,-10.96122 6.28541,-20.89387 16.43943,-28.0862c10.15402,-7.19234 24.17665,-11.64437 39.6511,-11.64437c15.47445,0 29.49708,4.45203 39.6511,11.64437z" data-paper-data="{&quot;origPos&quot;:null}" fill="url(#color-9)" stroke="#4b7c50" stroke-width="2"/><path d="M479.61918,368.64165c0,0 -22.97687,8.39474 -35.96325,8.39474c-15.47445,0 -29.49708,-4.45203 -39.6511,-11.64437c-10.15402,-7.19234 -16.43943,-17.12498 -16.43943,-28.0862c0,-10.96122 6.28541,-20.89387 16.43943,-28.0862c10.15402,-7.19234 24.17665,-11.64437 39.6511,-11.64437c13.79404,0 36.20938,9.4004 36.20938,9.4004z" data-paper-data="{&quot;origPos&quot;:null}" fill="url(#color-10)" stroke="#4b7c50" stroke-width="2"/><path d="M72.49501,341.05382c9.09932,6.44527 15.09197,15.09115 16.2387,24.7058c-25.13891,0.56886 -82.20522,0.11627 -85.69846,-0.38668c-0.0473,-0.63185 0.75247,-17.4947 -0.20369,-24.91705c10.14282,-7.13479 14.60827,-11.04644 30.01236,-11.04644c15.47445,0 29.49708,4.45203 39.6511,11.64437z" data-paper-data="{&quot;origPos&quot;:null}" fill="url(#color-11)" stroke="#4b7c50" stroke-width="2"/><path d="M207.12179,348.95019c7.83043,5.54649 13.36022,12.72262 15.48099,20.7434c-32.41639,0.18793 -64.88063,2.13644 -97.21464,2.977c-3.09319,0.08041 -8.95566,0.76759 -13.78371,0.79357c1.2031,-9.5378 7.17639,-18.1116 16.21517,-24.51397c10.15402,-7.19234 24.17665,-11.64437 39.6511,-11.64437c15.47445,0 29.49708,4.45203 39.6511,11.64437z" data-paper-data="{&quot;origPos&quot;:null}" fill="url(#color-12)" stroke="#4b7c50" stroke-width="2"/><path d="M326.2137,338.74294c10.15402,7.19234 16.43943,17.12498 16.43943,28.0862c0,10.96122 -112.18106,10.96122 -112.18106,0c0,-10.96122 6.28541,-20.89387 16.43943,-28.0862c10.15402,-7.19234 24.17665,-11.64437 39.6511,-11.64437c15.47445,0 29.49708,4.45203 39.6511,11.64437z" data-paper-data="{&quot;origPos&quot;:null}" fill="url(#color-13)" stroke="#4b7c50" stroke-width="2"/><path d="M0.9644,324.98336c0,0 16.93943,11.12498 16.93943,28.0862c0,13.46122 -16.93943,28.0862 -16.93943,28.0862z" fill="url(#color-14)" stroke="#4b7c50" stroke-width="2"/><path d="M479.89619,347.26293c0,0 -21.76242,-12.12974 -21.43943,-30.0862c0.30517,-16.96584 21.43943,-30.5862 21.43943,-30.5862z" fill="url(#color-15)" stroke="#4b7c50" stroke-width="2"/><path d="M435.45676,364.31619c0,-10.96122 6.28541,-20.89387 16.43943,-28.0862c9.53182,-6.75162 12.47267,-10.58847 26.82336,-11.09461c-0.03855,2.82008 0.69362,37.97621 0.69362,37.97621c0,0 -27.23294,4.99934 -43.84562,3.71863c-0.07349,-0.83139 -0.11079,-1.66965 -0.11079,-2.51403z" data-paper-data="{&quot;origPos&quot;:null}" fill="url(#color-16)" stroke="#4b7c50" stroke-width="2"/><path d="M-0.0007,406.45058v-99h480v99z" fill="url(#color-17)" stroke="none" stroke-width="0"/></g></g></svg>