<svg version="1.1" xmlns="http://www.w3.org/2000/svg" xmlns:xlink="http://www.w3.org/1999/xlink" width="191" height="246.85849" viewBox="0,0,191,246.85849"><g transform="translate(-158,-58.64151)"><g data-paper-data="{&quot;isPaintingLayer&quot;:true}" fill-rule="nonzero" stroke-linejoin="miter" stroke-miterlimit="10" stroke-dasharray="" stroke-dashoffset="0" style="mix-blend-mode: normal"><path d="M158,305.5v-246.85849h191v246.85849z" fill="none" stroke="none" stroke-width="0" stroke-linecap="butt"/><path d="M158,305.5v-246.85849h191v246.85849z" fill="none" stroke="none" stroke-width="0" stroke-linecap="butt"/><g><g data-paper-data="{&quot;index&quot;:null}"><path d="M257.02503,216.82811c0,0 6.35942,-14.47946 17.05852,-19.38321c10.69911,-4.90376 21.68639,1.62514 21.68639,1.62514c0,0 -7.60787,13.80141 -18.30698,18.70517c-10.6991,4.90376 -20.43792,-0.94708 -20.43792,-0.94708z" fill="#61b120" stroke="none" stroke-width="0" stroke-linecap="butt"/><path d="M263.34117,213.46491c0,0 5.62689,-6.86347 13.70315,-10.15689c7.05564,-2.87725 12.15333,-2.62923 12.15333,-2.62923" fill="none" stroke="#448618" stroke-width="1.5" stroke-linecap="round"/></g><path d="M253.34861,174.29017h7.97423v42.63561h-7.97423z" fill="#61b120" stroke="none" stroke-width="0.97987" stroke-linecap="butt"/><g><path d="M257.69549,217.11224c0,0 -9.73882,5.85083 -20.43792,0.94708c-10.6991,-4.90376 -18.30699,-18.70518 -18.30699,-18.70518c0,0 10.98732,-6.52889 21.68643,-1.62514c10.6991,4.90376 17.0585,19.38321 17.0585,19.38321z" fill="#61b120" stroke="none" stroke-width="0" stroke-linecap="butt"/><path d="M225.52276,200.96285c0,0 5.09769,-0.24799 12.15333,2.62928c8.07625,3.29348 13.7032,10.15695 13.7032,10.15695" fill="none" stroke="#448618" stroke-width="1.5" stroke-linecap="round"/></g><g stroke="none" stroke-width="0" stroke-linecap="butt"><path d="M295.2926,141.11539c0,0 0.01665,51.2702 -37.222,51.35017c-36.37452,0.07817 -38.64268,-52.18065 -38.64268,-52.18065l19.32912,6.02194l18.46117,-16.67954l17.42156,16.42241z" fill="#ff401c"/><path d="M257.91284,187.20605c-26.30868,-0.22588 -31.48285,-34.57453 -31.48285,-34.57453l14.40581,4.73111l16.12985,-13.06375l17.05767,14.1838l15.97213,-5.86334c0,0 -5.66982,34.25774 -32.08252,34.5867z" fill="#ff991c"/><path d="M257.74582,183.65242c-16.24065,-0.35814 -22.16483,-17.94748 -22.16483,-17.94748l9.30981,3.93542l12.19593,-9.33092l13.87431,9.41258l9.88324,-4.02403c0,0 -6.52726,17.53804 -23.09846,17.9544z" fill="#ffc51c"/></g><path d="M268.40107,161.57005c0.99365,1.35078 1.36706,3.94714 1.36706,8.03404c0,6.20722 -1.17556,9.17509 -3.74123,9.17509c-2.56572,0 -3.74122,-3.1959 -3.74122,-9.17507c0,-2.60051 0.65922,-1.90189 0.65922,-1.90189c0,0 4.88519,-6.90835 5.45618,-6.13219z" fill="#000000" stroke="none" stroke-width="0" stroke-linecap="butt"/><path d="M252.43476,169.65186c0,6.20722 -1.17546,9.17509 -3.74118,9.17509c-2.56572,0 -3.74123,-3.1959 -3.74123,-9.17507c0,-3.76765 0.31731,-6.26854 1.1454,-7.69454c0.58633,-1.00967 6.33705,5.21688 6.33705,7.69454z" fill="#000000" stroke="none" stroke-width="0" stroke-linecap="butt"/><path d="M241.42652,158.21898c0,0 3.77914,2.79548 5.46706,4.48982c1.42102,1.42653 3.99811,5.01169 3.99811,5.01169" fill="none" stroke="#000000" stroke-width="1.5" stroke-linecap="round"/><path d="M263.58921,167.7204c0,0 2.57703,-3.58514 3.99808,-5.01169c1.68786,-1.69429 5.46706,-4.4898 5.46706,-4.4898" data-paper-data="{&quot;index&quot;:null}" fill="none" stroke="#000000" stroke-width="1.5" stroke-linecap="round"/></g></g></g></svg>