<svg version="1.1" xmlns="http://www.w3.org/2000/svg" xmlns:xlink="http://www.w3.org/1999/xlink" width="9.67099" height="24.40006" viewBox="0,0,9.67099,24.40006"><defs><linearGradient x1="240.2733" y1="167.99648" x2="240.2733" y2="192.19944" gradientUnits="userSpaceOnUse" id="color-1"><stop offset="0" stop-color="#ffcc00"/><stop offset="1" stop-color="#d69900"/></linearGradient><linearGradient x1="238.06516" y1="167.85003" x2="238.06516" y2="192.20003" gradientUnits="userSpaceOnUse" id="color-2"><stop offset="0" stop-color="#ffcc00"/><stop offset="1" stop-color="#d69900"/></linearGradient><linearGradient x1="241.93495" y1="167.79997" x2="241.93495" y2="192.14997" gradientUnits="userSpaceOnUse" id="color-3"><stop offset="0" stop-color="#ebad00"/><stop offset="1" stop-color="#bc7e02"/></linearGradient><linearGradient x1="242.08404" y1="170.84147" x2="242.08404" y2="189.26007" gradientUnits="userSpaceOnUse" id="color-4"><stop offset="0" stop-color="#df9902"/><stop offset="1" stop-color="#be7602"/></linearGradient></defs><g transform="translate(-235.16456,-167.79997)"><g data-paper-data="{&quot;isPaintingLayer&quot;:true}" fill-rule="nonzero" stroke="none" stroke-linecap="butt" stroke-linejoin="miter" stroke-miterlimit="10" stroke-dasharray="" stroke-dashoffset="0" style="mix-blend-mode: normal"><path d="M242.23645,192.19944h-3.92631v-24.20296h3.92631z" data-paper-data="{&quot;origPos&quot;:null,&quot;index&quot;:null}" fill="url(#color-1)" stroke-width="0.36499"/><path d="M240.11556,171.41853c0.5251,2.2039 0.8502,5.2474 0.8502,8.6065c0,3.359 -0.3251,6.4026 -0.8502,8.6065c-0.525,2.204 -1.2501,3.5685 -2.0504,3.5685c-0.8003,0 -1.5253,-1.3645 -2.0504,-3.5685c-0.5251,-2.2039 -0.8502,-5.2475 -0.8502,-8.6065c0,-3.3591 0.3251,-6.4026 0.8502,-8.6065c0.5251,-2.204 1.2501,-3.5685 2.0504,-3.5685c0.8003,0 1.5254,1.3645 2.0504,3.5685z" data-paper-data="{&quot;origPos&quot;:null,&quot;index&quot;:null}" fill="url(#color-2)" stroke-width="0.34911"/><path d="M241.93495,167.79997c0.8003,0 1.5253,1.3645 2.0504,3.5685c0.5251,2.2039 0.8502,5.2474 0.8502,8.6065c0,3.359 -0.3251,6.4026 -0.8502,8.6065c-0.5251,2.204 -1.2501,3.5685 -2.0504,3.5685c-0.8003,0 -1.5254,-1.3645 -2.0504,-3.5685c-0.5251,-2.2039 -0.8502,-5.2475 -0.8502,-8.6065c0,-3.3591 0.3251,-6.4026 0.8502,-8.6065c0.525,-2.204 1.2501,-3.5685 2.0504,-3.5685z" data-paper-data="{&quot;origPos&quot;:null,&quot;index&quot;:null}" fill="url(#color-3)" stroke-width="0.34911"/><path d="M242.57338,189.26007h-0.97868v-18.4186h0.97868z" data-paper-data="{&quot;origPos&quot;:null,&quot;index&quot;:null}" fill="url(#color-4)" stroke-width="0.36499"/></g></g></svg>