<svg version="1.1" xmlns="http://www.w3.org/2000/svg" xmlns:xlink="http://www.w3.org/1999/xlink" width="70.95196" height="70.95196" viewBox="0,0,70.95196,70.95196"><g transform="translate(-204.52402,-144.52402)"><g data-paper-data="{&quot;isPaintingLayer&quot;:true}" fill-rule="nonzero" stroke-linecap="butt" stroke-linejoin="miter" stroke-miterlimit="10" stroke-dasharray="" stroke-dashoffset="0" style="mix-blend-mode: normal"><path d="M205.52402,180c0,-19.04057 15.43543,-34.47598 34.47598,-34.47598c19.04057,0 34.47598,15.43543 34.47598,34.47598c0,19.04057 -15.43543,34.47598 -34.47598,34.47598c-19.04057,0 -34.47598,-15.43543 -34.47598,-34.47598z" fill="#ffffff" stroke="#6f18b4" stroke-width="2"/><path d="M262.04275,164.61124l-3.4299,9.89743v0.19887c-1.42821,0.87863 -15.96062,8.46808 -29.16527,15.18974l11.56749,1.15699c7.18446,-3.86884 11.45826,-6.20821 12.8214,-7.02175h0.42665c3.4494,5.0331 5.1741,7.85699 5.1741,8.47165v0.22779c-0.48453,0.19887 -4.97524,3.16378 -13.47945,8.89831l-28.00052,-3.44959l0.68004,-12.69826c0,0 23.34137,-12.17818 29.64721,-15.20816l-10.40064,-1.36636c-7.31463,3.57957 -11.10391,5.36936 -11.36785,5.36936h-0.2314c-3.29754,-5.99849 -4.94272,-9.1731 -4.94272,-9.52384c0.21695,0 4.28464,-1.99948 12.19225,-5.99849c1.22934,0 28.50862,5.85631 28.50862,5.85631z" data-paper-data="{&quot;index&quot;:null}" fill="#6f18b4" stroke="none" stroke-width="1"/></g></g></svg>