<svg version="1.1" xmlns="http://www.w3.org/2000/svg" xmlns:xlink="http://www.w3.org/1999/xlink" width="312.2048" height="102.88577" viewBox="0,0,312.2048,102.88577"><g transform="translate(-231.51107,17.03125)"><g data-paper-data="{&quot;isPaintingLayer&quot;:true}" fill-rule="nonzero" stroke-linejoin="miter" stroke-miterlimit="10" stroke-dasharray="" stroke-dashoffset="0" style="mix-blend-mode: normal"><path d="M321.10828,85.85452v-25.16783h222.6076v25.16783z" fill-opacity="0.50196" fill="#000000" stroke="none" stroke-width="0" stroke-linecap="butt"/><text transform="translate(349.98393,77.02052) scale(0.30058,0.30058)" font-size="40" xml:space="preserve" fill-opacity="0.8" fill="#ffffff" fill-rule="nonzero" stroke="none" stroke-width="1" stroke-linecap="butt" stroke-linejoin="miter" stroke-miterlimit="10" stroke-dasharray="" stroke-dashoffset="0" font-family="&quot;Microsoft YaHei&quot;, &quot;微软雅黑&quot;, STXihei, &quot;华文细黑&quot;" font-weight="normal" text-anchor="start" style="mix-blend-mode: normal"><tspan x="0" dy="0">Objective completed!</tspan></text><path d="M231.51108,-4.21875v-12.8125h22.08333v12.8125z" fill-opacity="0.8" fill="#000000" stroke="none" stroke-width="0" stroke-linecap="butt"/><g><g><path d="" fill="#b2b2b2" stroke-opacity="0.5" stroke="#ffffff" stroke-width="0.5" stroke-linecap="butt"/><g data-paper-data="{&quot;origRot&quot;:0}" fill="none" stroke="none" stroke-width="1" stroke-linecap="butt" font-family="sans-serif" font-weight="normal" font-size="12" text-anchor="start"><g/><g><g><g data-paper-data="{&quot;origPos&quot;:null}"/></g></g></g><g data-paper-data="{&quot;origPos&quot;:null,&quot;origRot&quot;:0}" fill="none" stroke-opacity="0.5" stroke="#ffffff" stroke-width="0.5"><path d="" data-paper-data="{&quot;origPos&quot;:null}" stroke-linecap="round"/><path d="" data-paper-data="{&quot;origPos&quot;:null}" stroke-linecap="butt"/><path d="" data-paper-data="{&quot;origPos&quot;:null}" stroke-linecap="butt"/></g><g fill="none" stroke-opacity="0.5" stroke="#ffffff" stroke-width="0.5"><path d="M326.97583,70.88459l-0.3062,-0.39522l0.2654,-0.81127l0.46951,-0.208h4.83802l2.12304,-4.88833l0.46951,-0.39522l0.46952,0.02079l0.57156,0.43682l2.28633,4.76353l4.89929,-0.0832l0.48995,0.29122l0.38783,0.47844l-0.38783,0.85285l-2.79668,3.30743l0.81654,5.01313l0.04082,0.79044l-0.51032,0.27041l-0.89822,-0.16639l-4.69515,-3.32825l-4.00107,3.74428l-0.8982,0.16641l-0.65326,-0.35363l-0.22453,-0.97766l0.46952,-4.65952z" data-paper-data="{&quot;origPos&quot;:null}" stroke-linecap="round"/><path d="M327.92603,71.12726l-0.2742,-0.34732l0.23764,-0.71298l0.42048,-0.18279h4.33264l1.90125,-4.29609l0.42047,-0.34735l0.42047,0.01828l0.51187,0.38391l2.04748,4.18641l4.38751,-0.07312l0.43876,0.25592l0.34732,0.42047l-0.34732,0.74954l-2.50455,2.90671l0.73127,4.40577l0.03656,0.6947l-0.45704,0.23764l-0.80438,-0.14624l-4.20468,-2.92499l-3.58311,3.29063l-0.80438,0.14624l-0.58499,-0.31079l-0.20108,-0.85921l0.42043,-4.09498z" data-paper-data="{&quot;origPos&quot;:null}" stroke-linecap="round"/><g data-paper-data="{&quot;origPos&quot;:null}"><path d="M336.49821,70.68418c0.20151,-0.00778 0.40233,0.15903 0.48694,0.36477c0.15348,0.37337 0.16997,0.81853 0.15849,1.23429c-0.0079,0.38377 -0.06885,0.78051 -0.21515,1.12367c-0.08391,0.2014 -0.2352,0.43391 -0.43028,0.43218c-0.18788,-0.00172 -0.34781,-0.14696 -0.45106,-0.40799c-0.13194,-0.3302 -0.19434,-0.72607 -0.19434,-1.19108c0,-0.46504 0.04804,-0.84533 0.19434,-1.19107c0.09608,-0.22821 0.27968,-0.37255 0.45106,-0.36477z" stroke-linecap="round"/><path d="M336.52956,70.92861c0.104,0 0.19792,0.051 0.26605,0.13309c0.06813,0.08213 0.11046,0.19537 0.11046,0.3207c0,0.12532 -0.04233,0.23857 -0.11046,0.32067c-0.06813,0.08213 -0.16205,0.13312 -0.26605,0.13312c-0.10397,0 -0.19792,-0.05099 -0.26605,-0.13312c-0.06813,-0.08209 -0.11042,-0.19535 -0.11042,-0.32067c0,-0.12532 0.0423,-0.23856 0.11042,-0.3207c0.06813,-0.08209 0.16209,-0.13309 0.26605,-0.13309z" stroke-linecap="butt"/></g><g data-paper-data="{&quot;origPos&quot;:null}"><path d="M333.84373,70.66982c0.20151,-0.00778 0.40232,0.15904 0.48692,0.36478c0.15348,0.37337 0.16998,0.81853 0.1585,1.2343c-0.0079,0.38377 -0.06885,0.7805 -0.21515,1.12366c-0.08391,0.2014 -0.2352,0.4339 -0.43028,0.43218c-0.18788,-0.00172 -0.34781,-0.14695 -0.45106,-0.40798c-0.13194,-0.3302 -0.19434,-0.72607 -0.19434,-1.19108c0,-0.46504 0.04804,-0.84534 0.19434,-1.19108c0.09608,-0.22821 0.27968,-0.37255 0.45106,-0.36477z" stroke-linecap="round"/><path d="M333.88942,70.89992c0.104,0 0.19792,0.05099 0.26605,0.13308c0.06813,0.08213 0.11045,0.19537 0.11045,0.3207c0,0.12532 -0.04232,0.23856 -0.11045,0.32066c-0.06813,0.08213 -0.16205,0.13313 -0.26605,0.13313c-0.10397,0 -0.19792,-0.05099 -0.26605,-0.13313c-0.06813,-0.08209 -0.11043,-0.19535 -0.11043,-0.32066c0,-0.12532 0.0423,-0.23856 0.11043,-0.3207c0.06813,-0.08209 0.16208,-0.13308 0.26605,-0.13308z" stroke-linecap="butt"/></g></g><path d="" fill="#93f65b" stroke-opacity="0.5" stroke="#ffffff" stroke-width="0.5" stroke-linecap="butt"/><g fill="none" stroke="none" stroke-width="1" stroke-linecap="butt" font-family="sans-serif" font-weight="normal" font-size="12" text-anchor="start"/><g fill="none" stroke="none" stroke-width="1" stroke-linecap="butt" font-family="sans-serif" font-weight="normal" font-size="12" text-anchor="start"><g data-paper-data="{&quot;origPos&quot;:null}"/></g><g data-paper-data="{&quot;origPos&quot;:null}" fill="none" stroke="none" stroke-width="1" stroke-linecap="butt" font-family="sans-serif" font-weight="normal" font-size="12" text-anchor="start"/></g><g fill="#ffffff" stroke-opacity="0.5" stroke="#ffffff" stroke-width="0.5" stroke-linecap="butt"><g><g><path d=""/><path d=""/><path d=""/><path d=""/><path d=""/><path d="" data-paper-data="{&quot;origPos&quot;:null}"/><path d=""/><path d=""/></g><g><path d=""/><path d=""/><path d=""/><path d=""/><path d=""/><path d=""/><path d=""/><path d=""/></g></g></g></g><g fill="#ffffff" stroke="none" stroke-width="0.5" stroke-linecap="butt"><path d="M342.29678,77.0782c-1.1438,0 -1.1438,-1.14381 -1.1438,-1.14381v-0.86532c0.00561,-0.66352 -0.04771,-1.32161 -0.12395,-1.97835c-0.16809,-1.44785 -0.44763,-2.88909 -0.45292,-4.36731c0,0 0,-1.14381 1.14381,-1.14381c1.1438,0 1.1438,1.14381 1.1438,1.14381c-0.00901,2.15177 0.5627,4.20549 0.57687,6.34566v0.86532c0,0 0,1.14381 -1.1438,1.14381z"/><path d="M341.44141,80.54942c0,-0.63171 0.51209,-1.14381 1.1438,-1.14381c0.63171,0 1.1438,0.5121 1.1438,1.14381c0,0.63171 -0.51209,1.14381 -1.1438,1.14381c-0.63171,0 -1.1438,-0.5121 -1.1438,-1.14381z"/></g></g></g></svg>