<svg version="1.1" xmlns="http://www.w3.org/2000/svg" xmlns:xlink="http://www.w3.org/1999/xlink" width="243.69751" height="242.91715" viewBox="0,0,243.69751,242.91715"><defs><linearGradient x1="61.18024" y1="168" x2="61.18024" y2="406" gradientUnits="userSpaceOnUse" id="color-1"><stop offset="0" stop-color="#8d8d8d"/><stop offset="1" stop-color="#bbbbbb"/></linearGradient><linearGradient x1="61.33957" y1="132.49999" x2="61.33957" y2="225.47867" gradientUnits="userSpaceOnUse" id="color-2"><stop offset="0" stop-color="#90e3c8"/><stop offset="1" stop-color="#47b566"/></linearGradient><linearGradient x1="180.18712" y1="213" x2="180.18712" y2="451" gradientUnits="userSpaceOnUse" id="color-3"><stop offset="0" stop-color="#8d8d8d"/><stop offset="1" stop-color="#bbbbbb"/></linearGradient><linearGradient x1="180.34645" y1="177.49999" x2="180.34645" y2="270.47867" gradientUnits="userSpaceOnUse" id="color-4"><stop offset="0" stop-color="#90e3c8"/><stop offset="1" stop-color="#47b566"/></linearGradient></defs><g transform="translate(0.3175,-131.49998)"><g data-paper-data="{&quot;isPaintingLayer&quot;:true}" fill-rule="nonzero" stroke-linejoin="miter" stroke-miterlimit="10" stroke-dasharray="" stroke-dashoffset="0" style="mix-blend-mode: normal"><g data-paper-data="{&quot;origPos&quot;:null}"><path d="M4.84945,367v-199h112.66158v199z" data-paper-data="{&quot;origPos&quot;:null}" fill="url(#color-1)" stroke="#a8a8a8" stroke-width="2" stroke-linecap="butt"/><path d="M82.04349,189l-7.30214,96l13.56112,10l-15.64744,64" data-paper-data="{&quot;origPos&quot;:null}" fill="none" stroke="#838383" stroke-width="5" stroke-linecap="round"/><path d="M62.2234,191l-9.73619,96l18.08149,10l-20.86326,64" data-paper-data="{&quot;origPos&quot;:null}" fill="none" stroke="#838383" stroke-width="5" stroke-linecap="round"/><path d="M40.31696,190l-7.30214,96l13.56111,10l-15.64744,64" data-paper-data="{&quot;origPos&quot;:null}" fill="none" stroke="#838383" stroke-width="5" stroke-linecap="round"/><path d="M24.40401,193l-5.17788,96l9.61606,10l-11.09546,64" data-paper-data="{&quot;origPos&quot;:null}" fill="none" stroke="#838383" stroke-width="5" stroke-linecap="round"/><path d="M11.2195,195l-3.30019,96l6.12892,10l-7.07183,64" data-paper-data="{&quot;origPos&quot;:null}" fill="none" stroke="#838383" stroke-width="5" stroke-linecap="round"/><path d="M4.5663,194l-1.65009,96l3.06445,10l-3.53591,64" data-paper-data="{&quot;origPos&quot;:null}" fill="none" stroke="#838383" stroke-width="5" stroke-linecap="round"/><path d="M120.43561,189l-1.63586,96l3.03804,10l-3.50543,64" data-paper-data="{&quot;origPos&quot;:null}" fill="none" stroke="#838383" stroke-width="5" stroke-linecap="round"/><path d="M113.36005,191l-3.92609,96l7.2913,10l-8.41304,64" data-paper-data="{&quot;origPos&quot;:null}" fill="none" stroke="#838383" stroke-width="5" stroke-linecap="round"/><path d="M100.17556,190l-5.17789,96l9.61607,10l-11.09546,64" data-paper-data="{&quot;origPos&quot;:null}" fill="none" stroke="#838383" stroke-width="5" stroke-linecap="round"/><path d="M104.17459,146.12524c10.96938,8.41586 17.7595,20.0382 17.7595,32.86409c0,12.82589 1.49217,21.56413 -5.51611,27.96112c-5.76902,4.42608 -19.91552,-12.19881 -26.76613,-8.90721c-11.25526,5.40797 -15.18698,17.91789 -28.31228,17.91789c-14.79097,0 -15.93422,-11.02587 -28.24679,-17.59015c-5.48114,-2.92219 -21.42333,12.28251 -26.11142,8.57946c-7.36837,-5.82018 -6.23631,-15.13523 -6.23631,-27.96112c0,-12.82589 6.79012,-24.44824 17.75949,-32.86409c10.96938,-8.41586 26.118,-13.62525 42.83503,-13.62525c16.71703,0 31.86564,5.20938 42.83502,13.62525z" data-paper-data="{&quot;origPos&quot;:null}" fill="url(#color-2)" stroke="#65a96e" stroke-width="2" stroke-linecap="butt"/></g><g data-paper-data="{&quot;origPos&quot;:null}"><path d="M123.85633,213h112.66158v156.89562c-4.99938,0.34118 -9.99908,0.80783 -14.99625,1.33709c-11.46293,-0.48327 -22.92437,-0.98192 -34.37222,-0.93266c-19.87693,0.08553 -39.77209,0.81444 -59.6285,1.64123c-1.2197,0.05082 -2.44133,0.09726 -3.66461,0.14017z" data-paper-data="{&quot;origPos&quot;:null}" fill="url(#color-3)" stroke="#a8a8a8" stroke-width="2" stroke-linecap="butt"/><path d="M201.05038,234l-7.30214,96l13.56112,10l-12.83,30.33788" data-paper-data="{&quot;origPos&quot;:null}" fill="none" stroke="#838383" stroke-width="5" stroke-linecap="round"/><path d="M181.23028,236l-9.73618,96l18.08149,10l-16.04371,28.45277" data-paper-data="{&quot;origPos&quot;:null}" fill="none" stroke="#838383" stroke-width="5" stroke-linecap="round"/><path d="M159.32386,235l-7.30213,96l13.56112,10l-12.67884,29.98043" data-paper-data="{&quot;origPos&quot;:null}" fill="none" stroke="#838383" stroke-width="5" stroke-linecap="round"/><path d="M143.41089,238l-5.17788,96l9.61606,10l-8.23297,27.45448" data-paper-data="{&quot;origPos&quot;:null}" fill="none" stroke="#838383" stroke-width="5" stroke-linecap="round"/><path d="M128.10157,371.91713l4.95356,-25.91713l-6.12892,-10l3.30019,-96" data-paper-data="{&quot;origPos&quot;:null}" fill="none" stroke="#838383" stroke-width="5" stroke-linecap="round"/><path d="M239.44249,234l-1.63587,96l3.03804,10l-2.823,29.79684" data-paper-data="{&quot;origPos&quot;:null}" fill="none" stroke="#838383" stroke-width="5" stroke-linecap="round"/><path d="M232.36694,236l-3.92609,96l7.29129,10l-6.47397,28.47213" data-paper-data="{&quot;origPos&quot;:null}" fill="none" stroke="#838383" stroke-width="5" stroke-linecap="round"/><path d="M219.18244,235l-5.17789,96l9.61607,10l-8.97991,29.94527" data-paper-data="{&quot;origPos&quot;:null}" fill="none" stroke="#838383" stroke-width="5" stroke-linecap="round"/><path d="M223.18148,191.12524c10.96937,8.41586 17.75949,20.0382 17.75949,32.86409c0,12.82589 1.49217,21.56413 -5.51611,27.96112c-5.76902,4.42608 -19.91551,-12.19881 -26.76612,-8.90721c-11.25526,5.40797 -15.18699,17.91789 -28.31229,17.91789c-14.79098,0 -15.93422,-11.02587 -28.24679,-17.59015c-5.48114,-2.92219 -21.42333,12.28251 -26.11142,8.57946c-7.36837,-5.82018 -6.23631,-15.13523 -6.23631,-27.96112c0,-12.82589 6.79012,-24.44824 17.75949,-32.86409c10.96937,-8.41586 26.118,-13.62525 42.83503,-13.62525c16.71703,0 31.86565,5.20938 42.83503,13.62525z" data-paper-data="{&quot;origPos&quot;:null}" fill="url(#color-4)" stroke="#65a96e" stroke-width="2" stroke-linecap="butt"/></g><path d="" fill="#f5e862" stroke="none" stroke-width="0.5" stroke-linecap="butt"/></g></g></svg>