<svg version="1.1" xmlns="http://www.w3.org/2000/svg" xmlns:xlink="http://www.w3.org/1999/xlink" width="338.57732" height="60.22743" viewBox="0,0,338.57732,60.22743"><defs><linearGradient x1="72.49217" y1="152.6232" x2="72.49217" y2="204.3376" gradientUnits="userSpaceOnUse" id="color-1"><stop offset="0" stop-color="#ff6e35"/><stop offset="1" stop-color="#b81825"/></linearGradient><linearGradient x1="133.03325" y1="166.47006" x2="133.03325" y2="204.3376" gradientUnits="userSpaceOnUse" id="color-2"><stop offset="0" stop-color="#ff6e35"/><stop offset="1" stop-color="#b81825"/></linearGradient><linearGradient x1="177.52773" y1="166.50961" x2="177.52773" y2="204.3376" gradientUnits="userSpaceOnUse" id="color-3"><stop offset="0" stop-color="#ff6e35"/><stop offset="1" stop-color="#b81825"/></linearGradient><linearGradient x1="242.51234" y1="153.21575" x2="242.51234" y2="204.33898" gradientUnits="userSpaceOnUse" id="color-4"><stop offset="0" stop-color="#ff6e35"/><stop offset="1" stop-color="#b81825"/></linearGradient><linearGradient x1="295.01233" y1="168.09798" x2="295.01233" y2="204.3376" gradientUnits="userSpaceOnUse" id="color-5"><stop offset="0" stop-color="#ff6e35"/><stop offset="1" stop-color="#b81825"/></linearGradient><linearGradient x1="337.29145" y1="153.17681" x2="337.29145" y2="204.3376" gradientUnits="userSpaceOnUse" id="color-6"><stop offset="0" stop-color="#ff6e35"/><stop offset="1" stop-color="#b81825"/></linearGradient><linearGradient x1="388.37618" y1="154.66728" x2="388.37618" y2="204.3376" gradientUnits="userSpaceOnUse" id="color-7"><stop offset="0" stop-color="#ff6e35"/><stop offset="1" stop-color="#b81825"/></linearGradient></defs><g transform="translate(-70.33677,-150.01358)"><g data-paper-data="{&quot;isPaintingLayer&quot;:true}" fill-rule="nonzero" stroke-linecap="butt" stroke-linejoin="miter" stroke-miterlimit="10" stroke-dasharray="" stroke-dashoffset="0" style="mix-blend-mode: normal"><g fill="none" stroke="#c2acb0" stroke-width="6"><path d="M129.23408,155.66101l0.38015,0.54756l-1.52846,15.01054h-0.2357l-18.07504,-1.52837v34.85743l-7.3913,1.25468l-8.37211,1.01897l-0.27378,-0.50949l2.31924,-36.85738l-18.31075,2.51703l-3.574,-13.71795z" data-paper-data="{&quot;origPos&quot;:null}"/><path d="M149.38505,169.34849l15.86986,3.13298l9.23904,13.3985l-6.09087,16.82037l-18.50856,4.12148l-15.56569,-9.50522l-0.50949,-17.52757l-0.2357,-0.7072zM148.44214,181.9866l-0.7072,11.4367l8.76003,1.96948l3.14049,-10.4938l-11.19332,-3.14809z" data-paper-data="{&quot;origPos&quot;:null}"/><path d="M193.4892,169.34849l16.2501,3.13298l9.23144,13.3985l-6.09095,16.82037l-18.50095,4.12148l-15.56569,-9.50522l-0.50949,-17.52757l-0.2357,-0.7072zM192.91884,181.9866l-0.7072,11.4367l8.76763,1.96948l3.14049,-10.4938l-11.20092,-3.14809z" data-paper-data="{&quot;origPos&quot;:null}"/><path d="M289.58956,168.31484l-4.51881,13.79177l5.93321,7.58496v0.4708l-8.52657,14.26465l-32.5773,2.39616l-7.38776,-45.19003l30.69002,-5.93321zM261.7685,181.87125l10.45201,-2.86904l2.16081,-7.62321l-14.02713,-3.53705zM266.05193,186.86078h-2.59337l-0.51104,0.47288l-0.23743,7.58297l-0.23536,1.45455l12.37935,-1.92536l-0.23734,-1.17904v-1.41432l-0.23545,-5.22704z" data-paper-data="{&quot;origPos&quot;:null}"/><path d="M298.80675,173.15059l25.51962,-1.61203l9.19336,8.44817l-4.24313,14.18176l4.24313,9.90825l-12.18181,2.50935l-2.23566,-2.98085l-18.12072,3.21656l-5.96921,-16.15124l13.1628,-6.95019l9.93864,0.50949l0.2357,-5.22402l-20.34869,1.49038l-0.23579,-0.50949zM309.15602,190.67056l2.51703,9.20105h0.2357l4.95032,-4.24313l0.5094,-4.20513z" data-paper-data="{&quot;origPos&quot;:null}"/><path d="M361.0696,155.66101h0.23579l17.75567,2.31933l5.23162,46.24846l-15.67974,2.59302l-0.2357,-0.50949v-4.20505l-18.54654,4.71454l-12.53925,-17.99147l9.39108,-16.19683l16.47061,0.79087zM353.75445,183.83442l4.95792,13.32252l7.81703,-6.79815l-1.80975,-7.03385h-10.44813z" data-paper-data="{&quot;origPos&quot;:null}"/><path d="M405.66804,157.15148l0.15964,0.31937l-4.40277,36.46195l-10.53179,-1.09504v-0.15964l-2.51695,-32.85005zM390.10995,194.72358l12.25788,0.94291l0.15964,0.31177l-2.36483,10.84356h-9.10979l-1.26228,-10.84356l-0.15213,-0.94291z" data-paper-data="{&quot;origPos&quot;:null}"/></g><g fill="none" stroke="#ffffff" stroke-width="6"><path d="M129.23408,153.17681l0.38015,0.54756l-1.52846,15.01054h-0.2357l-18.07504,-1.52837v34.85743l-7.3913,1.25468l-8.37211,1.01897l-0.27378,-0.50949l2.31924,-36.85738l-18.31075,2.51703l-3.574,-13.71795z" data-paper-data="{&quot;origPos&quot;:null}"/><path d="M149.38505,166.86429l15.86986,3.13298l9.23904,13.3985l-6.09087,16.82037l-18.50856,4.12148l-15.56569,-9.50522l-0.50949,-17.52757l-0.2357,-0.7072zM148.44214,179.5024l-0.7072,11.4367l8.76003,1.96948l3.14049,-10.4938l-11.19332,-3.14809z" data-paper-data="{&quot;origPos&quot;:null}"/><path d="M193.4892,166.86429l16.2501,3.13298l9.23144,13.3985l-6.09095,16.82037l-18.50095,4.12148l-15.56569,-9.50522l-0.50949,-17.52757l-0.2357,-0.7072zM192.91884,179.5024l-0.7072,11.4367l8.76763,1.96948l3.14049,-10.4938l-11.20092,-3.14809z" data-paper-data="{&quot;origPos&quot;:null}"/><path d="M289.58956,165.83064l-4.51881,13.79177l5.93321,7.58496v0.4708l-8.52657,14.26465l-32.5773,2.39616l-7.38776,-45.19003l30.69002,-5.93321zM261.7685,179.38705l10.45201,-2.86904l2.16081,-7.62321l-14.02713,-3.53705zM266.05193,184.37658h-2.59337l-0.51104,0.47288l-0.23743,7.58297l-0.23536,1.45455l12.37935,-1.92536l-0.23734,-1.17904v-1.41432l-0.23545,-5.22704z" data-paper-data="{&quot;origPos&quot;:null}"/><path d="M298.80675,170.66639l25.51962,-1.61203l9.19336,8.44817l-4.24313,14.18176l4.24313,9.90825l-12.18181,2.50935l-2.23566,-2.98085l-18.12072,3.21656l-5.96921,-16.15124l13.1628,-6.95019l9.93864,0.50949l0.2357,-5.22402l-20.34869,1.49038l-0.23579,-0.50949zM309.15602,188.18636l2.51703,9.20105h0.2357l4.95032,-4.24313l0.5094,-4.20513z" data-paper-data="{&quot;origPos&quot;:null}"/><path d="M361.0696,153.17681h0.23579l17.75567,2.31933l5.23162,46.24846l-15.67974,2.59302l-0.2357,-0.50949v-4.20505l-18.54654,4.71454l-12.53925,-17.99147l9.39108,-16.19683l16.47061,0.79087zM353.75445,181.35022l4.95792,13.32252l7.81703,-6.79815l-1.80975,-7.03385h-10.44813z" data-paper-data="{&quot;origPos&quot;:null}"/><path d="M405.66804,154.66728l0.15964,0.31937l-4.40277,36.46195l-10.53179,-1.09504v-0.15964l-2.51695,-32.85005zM390.10995,192.23937l12.25788,0.94291l0.15964,0.31177l-2.36483,10.84356h-9.10979l-1.26228,-10.84356l-0.15213,-0.94291z" data-paper-data="{&quot;origPos&quot;:null}"/></g><g stroke="none" stroke-width="0"><path d="M129.23408,153.17681l0.38015,0.54756l-1.52846,15.01054h-0.2357l-18.07504,-1.52837v34.85743l-7.3913,1.25468l-8.37211,1.01897l-0.27378,-0.50949l2.31924,-36.85738l-18.31075,2.51703l-3.574,-13.71795z" data-paper-data="{&quot;origPos&quot;:null}" fill="url(#color-1)"/><path d="M149.38506,166.86429l15.86986,3.13298l9.23904,13.3985l-6.09087,16.82037l-18.50856,4.12148l-15.56569,-9.50522l-0.50949,-17.52757l-0.2357,-0.7072zM148.44215,179.5024l-0.7072,11.4367l8.76003,1.96948l3.14049,-10.4938l-11.19332,-3.14809z" data-paper-data="{&quot;origPos&quot;:null}" fill="url(#color-2)"/><path d="M193.48921,166.86429l16.2501,3.13298l9.23144,13.3985l-6.09095,16.82037l-18.50095,4.12148l-15.56569,-9.50522l-0.50949,-17.52757l-0.2357,-0.7072zM192.91885,179.5024l-0.7072,11.4367l8.76763,1.96948l3.14049,-10.4938l-11.20092,-3.14809z" data-paper-data="{&quot;origPos&quot;:null}" fill="url(#color-3)"/><path d="M289.58956,165.83064l-4.51881,13.79177l5.93321,7.58496v0.4708l-8.52657,14.26465l-32.5773,2.39616l-7.38776,-45.19003l30.69002,-5.93321zM261.76851,179.38705l10.45201,-2.86904l2.16081,-7.62321l-14.02713,-3.53705zM266.05193,184.37658h-2.59337l-0.51104,0.47288l-0.23743,7.58297l-0.23536,1.45455l12.37935,-1.92536l-0.23734,-1.17904v-1.41432l-0.23545,-5.22704z" data-paper-data="{&quot;origPos&quot;:null}" fill="url(#color-4)"/><path d="M298.80675,170.66639l25.51962,-1.61203l9.19336,8.44817l-4.24313,14.18176l4.24313,9.90825l-12.18181,2.50935l-2.23566,-2.98085l-18.12072,3.21656l-5.96921,-16.15124l13.1628,-6.95019l9.93864,0.50949l0.2357,-5.22402l-20.34869,1.49038l-0.23579,-0.50949zM309.15603,188.18636l2.51703,9.20105h0.2357l4.95032,-4.24313l0.5094,-4.20513z" data-paper-data="{&quot;origPos&quot;:null}" fill="url(#color-5)"/><path d="M361.06961,153.17681h0.23579l17.75567,2.31933l5.23162,46.24846l-15.67974,2.59302l-0.2357,-0.50949v-4.20505l-18.54654,4.71454l-12.53925,-17.99147l9.39108,-16.19683l16.47061,0.79087zM353.75446,181.35022l4.95792,13.32252l7.81703,-6.79815l-1.80975,-7.03385h-10.44813z" data-paper-data="{&quot;origPos&quot;:null}" fill="url(#color-6)"/><path d="M405.66805,154.66728l0.15964,0.31937l-4.40277,36.46195l-10.53179,-1.09504v-0.15964l-2.51695,-32.85005zM390.10996,192.23937l12.25788,0.94291l0.15964,0.31177l-2.36483,10.84356h-9.10979l-1.26228,-10.84356l-0.15213,-0.94291z" data-paper-data="{&quot;origPos&quot;:null}" fill="url(#color-7)"/></g></g></g></svg>