<svg version="1.1" xmlns="http://www.w3.org/2000/svg" xmlns:xlink="http://www.w3.org/1999/xlink" width="56.44264" height="84.99782" viewBox="0,0,56.44264,84.99782"><g transform="translate(-208.62814,-138.65122)"><g data-paper-data="{&quot;isPaintingLayer&quot;:true}" fill-rule="nonzero" stroke-linejoin="miter" stroke-miterlimit="10" stroke-dasharray="" stroke-dashoffset="0" style="mix-blend-mode: normal"><path d="M224.37435,204.49051c-1.80743,0.30124 -5.52692,-0.67647 -5.52692,-0.67647c0,0 3.70818,-2.11335 5.27738,-3.45838c1.26337,-1.0829 3.42079,-3.9972 3.42079,-3.9972l1.95265,5.68044c0,0 -3.38361,2.16156 -5.1239,2.45161z" fill="#d2a31f" stroke="#000000" stroke-width="0" stroke-linecap="round"/><g data-paper-data="{&quot;index&quot;:null}"><path d="M243.98408,180.3385c1.97896,-0.4072 5.01186,3.42875 5.01186,3.42875l5.52121,3.37748l1.14684,-1.16364l1.86786,-0.39479l2.95593,0.84055l3.29902,2.05199l0.43161,1.28701l-0.9698,1.31483l-0.11047,1.74256l-1.48602,2.09855l-0.43869,1.7684l-1.65207,1.03827l-2.07077,-0.0846l-3.98323,-3.4017l-0.71008,-1.67792l-4.53362,-3.07173l-3.85193,-3.93132c0,0 -2.4066,-4.8155 -0.42765,-5.22271z" data-paper-data="{&quot;origPos&quot;:null}" fill="#d2a31f" stroke="#000000" stroke-width="0" stroke-linecap="round"/><path d="M261.62829,194.63412c-0.15759,0.71834 -0.86316,0.59556 -0.86316,0.59556l-0.10341,-0.10947c-0.71458,0.0747 -1.20021,-0.01551 -1.85307,-0.23979c0,0 -0.67316,-0.23129 -0.40944,-0.92235c0.26371,-0.6911 0.93686,-0.45982 0.93686,-0.45982c0.53992,0.18549 0.72435,0.2271 1.24868,0.17229l0.49556,0.12245c0,0 0.70557,0.12279 0.54797,0.84114z" data-paper-data="{&quot;origPos&quot;:null}" fill="#996c1c" stroke="none" stroke-width="0.5" stroke-linecap="butt"/><path d="M262.84984,191.23826c-0.16764,0.70978 -0.85538,0.60223 -0.85538,0.60223l-0.09905,-0.10575c-0.70025,0.08692 -1.17348,0.00731 -1.80775,-0.2011c0,0 -0.65397,-0.21488 -0.38306,-0.89983c0.27088,-0.68494 0.92487,-0.47006 0.92487,-0.47006c0.52454,0.17235 0.7041,0.20982 1.21797,0.14605l0.48234,0.11115c0,0 0.68772,0.10755 0.52006,0.81732z" data-paper-data="{&quot;origPos&quot;:null}" fill="#996c1c" stroke="none" stroke-width="0.5" stroke-linecap="butt"/></g><g data-paper-data="{&quot;index&quot;:null}" stroke-linecap="butt"><g fill="#bba983" stroke="none" stroke-width="0"><path d="M251.0336,218.22112c0.34209,2.3989 -3.34661,3.46204 -7.03851,3.98852c-1.62103,0.23116 -2.99061,0.58663 -4.13108,0.11292c-1.45696,-0.60515 -2.49203,-2.22738 -2.68393,-3.57297c-0.14394,-1.00943 0.16284,-2.54374 0.89924,-3.40131c1.01365,-1.18041 2.77341,-1.55436 4.67693,-1.82582c3.28636,-0.46866 7.93528,2.29978 8.27738,4.69867z"/><path d="M244.48645,216.49108c-0.80965,-3.36464 1.73217,-6.8535 5.67731,-7.79261c3.94514,-0.93911 7.79967,1.02719 8.60928,4.39182c0.80964,3.36464 -1.73218,6.85352 -5.67729,7.79262c-3.94514,0.93911 -7.79966,-1.02719 -8.60931,-4.39183z"/></g><g><path d="M250.8582,216.37067c0.35324,2.47702 -3.4556,3.57476 -7.26774,4.1184c-1.67382,0.2387 -3.08801,0.60573 -4.2656,0.1166c-1.50438,-0.62487 -2.5732,-2.29992 -2.77135,-3.68933c-0.14864,-1.0423 0.16815,-2.62661 0.92851,-3.51208c1.04666,-1.21884 2.86374,-1.60498 4.82922,-1.88527c3.3934,-0.48393 8.19372,2.37466 8.54695,4.85168z" fill="#2b9638" stroke="none" stroke-width="0"/><path d="M246.57103,209.88419c0.18022,1.26378 -1.80464,2.59219 -4.43329,2.96705c-2.62866,0.37487 -4.90573,-0.34574 -5.08596,-1.60952c-0.18022,-1.26378 1.80462,-2.59218 4.4333,-2.96706c2.62866,-0.37487 4.90573,0.34576 5.08596,1.60954z" fill="#1c6225" stroke="#2b9638" stroke-width="1.5"/><path d="M244.09783,214.58429c-0.83601,-3.47423 1.78857,-7.07672 5.86219,-8.04639c4.07361,-0.96967 8.05367,1.06064 8.88967,4.53485c0.83602,3.47423 -1.78859,7.07671 -5.86219,8.04639c-4.07362,0.96967 -8.05365,-1.06063 -8.88967,-4.53485z" fill="#2b9638" stroke="none" stroke-width="0"/></g><path d="M238.64673,211.96392l-2.15131,-15.08558l6.1888,-0.88256l2.06382,14.47209c0,0 -0.37875,1.24715 -2.73168,1.68313c-1.8199,0.30108 -3.36962,-0.18708 -3.36962,-0.18708z" fill="#fcdc48" stroke="none" stroke-width="0"/></g><g data-paper-data="{&quot;index&quot;:null}" stroke-linecap="butt"><g fill="#bba983" stroke="none" stroke-width="0"><path d="M224.20078,217.31484c-2.11215,1.18769 -4.43903,-1.8656 -6.26689,-5.11618c-0.80256,-1.42726 -1.62991,-2.57513 -1.6014,-3.80973c0.03642,-1.57721 1.17362,-3.12956 2.35836,-3.79576c0.88877,-0.49976 2.43004,-0.76951 3.49607,-0.39365c1.46738,0.51732 2.45329,2.02219 3.39571,3.69817c1.62705,2.89352 0.73026,8.22947 -1.38189,9.41716z"/><path d="M223.44221,210.5856c2.84298,-1.97325 7.01556,-0.86755 9.31972,2.46964c2.30416,3.33718 1.86734,7.64217 -0.97564,9.61543c-2.84298,1.97325 -7.01557,0.86755 -9.31975,-2.46965c-2.30416,-3.33718 -1.86733,-7.64218 0.97566,-9.61542z"/></g><g><path d="M225.86206,216.48113c-2.18092,1.22636 -4.58359,-1.92635 -6.47097,-5.28278c-0.8287,-1.47375 -1.68298,-2.65899 -1.65354,-3.9338c0.03761,-1.62857 1.21186,-3.23147 2.43518,-3.91935c0.91771,-0.51604 2.50918,-0.79456 3.60993,-0.40648c1.51517,0.53418 2.53318,2.08806 3.50628,3.81859c1.68006,2.98776 0.75405,8.49749 -1.42688,9.72386z" fill="#36c651" stroke="none" stroke-width="0"/><path d="M230.3555,210.13581c-1.11272,0.62569 -3.06979,-0.7433 -4.37123,-3.05776c-1.30145,-2.31446 -1.45443,-4.69793 -0.3417,-5.32361c1.11272,-0.62569 3.06978,0.7433 4.37122,3.05777c1.30145,2.31446 1.45444,4.69792 0.34172,5.3236z" fill="#1c6225" stroke="#36c651" stroke-width="1.5"/><path d="M225.07878,209.53273c2.93559,-2.0375 7.24406,-0.89581 9.62325,2.55008c2.3792,3.44589 1.92815,7.89105 -1.00742,9.92856c-2.93558,2.03752 -7.24405,0.89581 -9.62324,-2.55007c-2.3792,-3.44589 -1.92815,-7.89105 1.00743,-9.92856z" fill="#36c651" stroke="none" stroke-width="0"/></g><path d="M238.82937,196.03394l3.06405,5.44902l-12.74216,7.16505c0,0 -1.10987,0.25038 -2.4591,-1.91821c-1.21342,-2.20555 -1.03846,-3.29491 -1.03846,-3.29491z" fill="#fcdc48" stroke="none" stroke-width="0"/></g><g><path d="M226.13798,189.14004c1.34951,-8.14049 7.85331,-13.84282 14.52661,-12.73652c6.67331,1.1063 10.39461,8.70071 9.0646,16.84443c-1.9334,11.83844 -7.27836,13.74122 -13.95166,12.63491c-6.67331,-1.1063 -10.98907,-8.6023 -9.63954,-16.7428z" fill="#fcdda0" stroke="#00beff" stroke-width="0" stroke-linecap="butt"/><path d="M249.11926,186.54457c0,0 -3.82582,1.08557 -6.32144,0.6159c-2.81642,-0.53005 -9.73129,-3.63698 -9.73129,-3.63698" fill="none" stroke="#c5ab79" stroke-width="2" stroke-linecap="round"/><path d="M247.79627,177.35833c-0.2839,1.9347 -3.20272,3.10852 -6.51934,2.62182c-3.31661,-0.48671 -5.7751,-2.44963 -5.4912,-4.38434c0.2839,-1.9347 3.20272,-3.10852 6.51934,-2.62182c3.31661,0.48671 5.7751,2.44962 5.4912,4.38433z" fill="#a28650" stroke="#fcdda0" stroke-width="4.5" stroke-linecap="butt"/><path d="M248.93401,193.97576c0,0 -4.90462,0.9335 -7.11663,0.51721c-2.93286,-0.55196 -8.9361,-3.53828 -8.9361,-3.53828" fill="none" stroke="#c5ab79" stroke-width="2" stroke-linecap="round"/><path d="M238.61426,176.7816l1.05417,-5.26167l5.20271,0.92296l-1.05417,5.26167c0,0 -1.64619,0.06625 -2.45679,-0.07754c-0.91172,-0.16173 -2.74593,-0.84542 -2.74593,-0.84542z" fill="#d2a31f" stroke="none" stroke-width="0" stroke-linecap="butt"/><path d="M230.27704,184.72545c-0.20596,-3.21814 1.58369,-5.95216 3.99728,-6.10663c2.4136,-0.15447 4.53717,2.3291 4.74313,5.54724c0.20596,3.21813 -1.58368,5.95216 -3.99728,6.10664c-2.4136,0.15446 -4.53717,-2.32912 -4.74313,-5.54726z" fill="#a28650" stroke="none" stroke-width="NaN" stroke-linecap="butt"/><path d="M246.4058,201.3866c0,0 -3.80564,1.31943 -6.46432,0.81908c-2.69182,-0.5066 -9.90784,-3.7837 -9.90784,-3.7837" fill="none" stroke="#c5ab79" stroke-width="2" stroke-linecap="round"/><path d="M233.55507,188.55747c-1.31155,7.33067 -2.63288,12.6316 -7.35,11.78765c-4.71712,-0.84395 -7.4779,-7.47079 -6.16635,-14.80146c1.31155,-7.33066 7.82738,-12.5941 12.54451,-11.75016c4.71712,0.84395 2.28341,7.43329 0.97185,14.76395z" fill="#3ddf5b" stroke="#000000" stroke-width="0" stroke-linecap="butt"/><g fill="none" stroke="#2b9638" stroke-width="1.5" stroke-linecap="round"><path d="M223.16269,178.52111l1.97741,3.6071l-2.51178,8.91627l-2.16991,1.28661" data-paper-data="{&quot;origPos&quot;:null}"/><path d="M226.57753,195.16036l-3.74406,-3.99361l2.27666,-9.09226l4.08173,-0.12978" data-paper-data="{&quot;origPos&quot;:null}"/></g><path d="M233.51424,188.47025c-1.23539,6.90505 -1.27606,14.72587 -5.07197,15.07417c-0.39167,0.03593 -3.01182,-1.45574 -3.26831,-2.7835c-0.25648,-1.32775 0.53149,-2.30866 1.67408,-5.46964c0.76118,-2.10584 0.74482,-4.80797 1.28973,-7.85369c0.80367,-4.49201 0.42852,-5.75372 1.68775,-9.16614c1.25923,-3.41243 2.07074,-4.85493 3.39857,-4.61737c4.71712,0.84395 6.17984,1.39094 4.63767,3.08804c-0.64972,0.71501 -2.04143,1.90664 -2.63772,3.44731c-1.37762,3.55946 -1.70981,8.28081 -1.70981,8.28081z" fill="#ffffff" stroke="none" stroke-width="0" stroke-linecap="butt"/></g><g><g stroke-width="0"><path d="M260.03506,160.69099c0.51778,8.09003 -5.72946,15.07498 -13.95357,15.60133c-8.22411,0.52634 -15.31081,-5.60522 -15.82859,-13.69524c-0.51777,-8.09003 5.72947,-15.07497 13.95358,-15.60131c8.22412,-0.52634 15.3108,5.60521 15.82857,13.69523z" fill="#fcdc48" stroke="none" stroke-linecap="butt"/><path d="M245.76004,146.4974c0.37828,5.91063 -2.29792,7.58246 -5.7172,7.8013c-3.41926,0.21883 -6.279,-0.97681 -6.66505,-7.00883c-0.26175,-4.0897 2.58119,-7.6006 6.85021,-7.87382c4.14763,-0.26544 5.27029,2.99165 5.53204,7.08136z" fill="#ffdd32" stroke="#ff0000" stroke-linecap="butt"/><path d="M253.81913,145.63428c0.37828,5.91063 -0.67933,7.47888 -4.09859,7.69772c-1.71089,0.1095 -8.09077,-3.89144 -8.28364,-6.90525c-0.26175,-4.0897 0.80072,-7.48665 5.06976,-7.75987c4.14763,-0.26544 7.05075,2.87769 7.31249,6.9674z" fill="#ffdd32" stroke="#ff0000" stroke-linecap="butt"/><path d="M240.86488,160.80754c0.36901,5.76582 -2.5066,10.29077 -6.39518,10.53964c-3.88858,0.24887 -7.39618,-5.1008 -7.7652,-10.86662c-0.36901,-5.76582 2.5403,-9.76438 6.42888,-10.01325c3.88858,-0.24887 7.36248,4.57441 7.7315,10.34023z" fill="#fcdc48" stroke="#d2a31f" stroke-linecap="butt"/><path d="M246.4521,147.48836c0.11585,3.51986 -2.07317,5.62013 -4.82545,5.68939c-2.75227,0.06926 -5.02557,-1.91874 -5.14141,-5.4386c-0.11585,-3.51986 2.28296,-7.42129 5.03524,-7.49055c2.75227,-0.06926 4.81579,3.7199 4.93165,7.23978z" fill="#ffffff" stroke="none" stroke-linecap="butt"/><path d="M253.61764,146.33981c0.11585,3.51986 -2.07318,5.62011 -4.82546,5.68938c-2.75227,0.06926 -5.02556,-1.91873 -5.14141,-5.43859c-0.11585,-3.51986 1.64587,-7.218 4.39814,-7.28726c2.75227,-0.06926 5.45287,3.51661 5.56872,7.03648z" fill="#ffffff" stroke="none" stroke-linecap="butt"/><path d="M244.94439,147.29916c0.09566,1.9778 -0.44708,3.63368 -1.21224,3.69848c-0.76516,0.06481 -1.46299,-1.48601 -1.55865,-3.46381c-0.09566,-1.9778 0.4471,-3.63368 1.21224,-3.69847c0.76516,-0.06481 1.46299,1.486 1.55865,3.46381z" fill="#000000" stroke="none" stroke-linecap="butt"/><path d="M250.70245,146.47421c0.09566,1.9778 -0.44708,3.63367 -1.21224,3.69846c-0.76516,0.06481 -1.46299,-1.486 -1.55865,-3.46381c-0.09566,-1.9778 0.44709,-3.63368 1.21224,-3.69848c0.76516,-0.06481 1.46298,1.48602 1.55864,3.46382z" fill="#000000" stroke="none" stroke-linecap="butt"/><path d="M240.35818,169.57395l2.67373,-3.93235l15.62175,2.48283l-2.39424,3.15461c0,0 -5.74317,-1.16347 -8.37264,-1.24403c-2.76115,-0.08461 -7.75281,0.38912 -7.75281,0.38912z" fill="#d2a31f" stroke="#d2a31f" stroke-linecap="round"/></g><g stroke-linecap="round"><path d="M247.1318,152.74122c0,0 6.45702,-3.93554 10.71814,-1.66109c13.79179,7.36157 3.58655,23.82377 3.58655,23.82377c0,0 -5.54397,-4.53638 -9.12749,-5.68572c-3.29136,-1.05564 -10.71621,-1.00786 -10.71621,-1.00786" fill="#fcdc48" stroke="#d2a31f" stroke-width="0"/><path d="M251.29192,154.6684c0,0 1.20799,0.80138 1.72799,1.28512c0.51522,0.47929 1.3778,1.60405 1.3778,1.60405" fill="none" stroke="#996c1c" stroke-width="1.5"/><path d="M260.56501,154.27146l-1.1486,2.97927" data-paper-data="{&quot;index&quot;:null}" fill="none" stroke="#996c1c" stroke-width="1.5"/><path d="M237.26862,156.24217c0,0 3.98879,0.68482 4.37271,6.992c0.42355,6.95833 -3.02347,8.17258 -3.02347,8.17258" fill="none" stroke="#d2a31f" stroke-width="2"/></g></g><g data-paper-data="{&quot;origRot&quot;:0}" stroke-linecap="round"><path d="M221.04452,185.63922c-0.79591,-0.42717 -3.17854,-1.17037 -6.64633,-4.2398c-3.46776,-3.06942 -4.92075,-4.71713 -5.50616,-6.34768c-0.5854,-1.63055 -0.05271,-6.01176 0.21742,-7.14737c0.27011,-1.13559 0.77253,-3.4673 1.51623,-5.6098c0.74371,-2.14251 0.51765,-1.32596 1.13183,-2.01894c0.61418,-0.69299 0.67094,-0.51756 1.20862,-0.6217c0.53769,-0.10414 0.50935,0.04966 0.79292,0.23406c0.28357,0.18439 0.72855,0.50506 1.04438,0.96067c0.31586,0.45558 0.32897,0.63824 0.3772,1.08985c0.05238,0.49042 -0.10486,1.46011 -0.10486,1.46011c0,0 1.40779,-1.20446 2.41031,-1.85124c1.00252,-0.64676 1.75526,-0.3308 2.02331,-0.12135c0.26806,0.20944 0.95367,0.52269 1.05379,0.96521c0.10012,0.44253 0.07627,0.91513 -0.05676,1.57644c-0.13304,0.66133 -0.35235,2.30461 -0.35235,2.30461c0,0 0.71582,-0.67336 1.36154,-1.15185c0.64577,-0.47849 1.59813,-0.8043 1.94405,-0.50858c0.34592,0.29577 1.07194,0.50993 1.43158,1.28819c0.35964,0.77825 0.21062,1.13881 0.14313,1.88278c-0.0675,0.74399 -0.39636,2.11443 -0.62891,3.47207c-0.23254,1.35763 -0.04383,3.75115 -0.00375,5.79823c0.04008,2.0471 0.86054,2.60433 1.01983,3.30826c0.1593,0.70393 0.09525,1.09794 -0.10139,1.76399c-0.19662,0.66604 -0.46952,0.87909 -0.83491,1.40767c-0.36539,0.52856 -0.55029,1.13684 -1.1982,1.53343c-0.64788,0.39658 -1.44667,0.99993 -2.24259,0.57276z" data-paper-data="{&quot;origPos&quot;:null}" fill="#ffffff" stroke="#000000" stroke-width="0"/><path d="M215.26523,176.56457c-0.54244,-0.19619 -0.53612,-2.23054 -0.66972,-3.35903c-0.13361,-1.1285 0.52538,-2.53751 0.63132,-3.66851" data-paper-data="{&quot;origPos&quot;:null}" fill="none" stroke="#e5e5e5" stroke-width="1"/><path d="M218.69151,176.86903c-0.54244,-0.19622 -0.53612,-2.23053 -0.66972,-3.35902c-0.13361,-1.1285 0.52536,-2.5375 0.63132,-3.66851" data-paper-data="{&quot;origPos&quot;:null}" fill="none" stroke="#e6e6e6" stroke-width="1"/><path d="M222.09198,177.37016c-0.54244,-0.19622 -0.53612,-2.23054 -0.66972,-3.35903c-0.13361,-1.1285 0.52538,-2.53751 0.63132,-3.66851" data-paper-data="{&quot;origPos&quot;:null}" fill="none" stroke="#e4e4e4" stroke-width="1"/></g><g><path d="M236.87598,180.763c0.40947,1.9785 -3.42306,5.01575 -3.42306,5.01575l-3.37118,5.52508l1.16494,1.1455l0.39691,1.86742l-0.83716,2.95688l-2.04825,3.30136l-1.28654,0.43307l-1.31593,-0.9683l-1.74269,-0.10849l-2.10025,-1.48363l-1.7689,-0.43669l-1.04016,-1.65087l0.08224,-2.07085l3.39715,-3.9871l1.6771,-0.71199l3.06655,-4.53712l3.92693,-3.85641c0,0 4.81275,-2.41208 5.22222,-0.43359z" data-paper-data="{&quot;origPos&quot;:null}" fill="#fcdc48" stroke="#000000" stroke-width="0" stroke-linecap="round"/><path d="M222.60046,198.42348c-0.71851,-0.15678 -0.59653,-0.86249 -0.59653,-0.86249l0.10934,-0.10354c-0.0755,-0.7145 0.01415,-1.20024 0.23768,-1.85335c0,0 0.2305,-0.67339 0.9219,-0.41049c0.6914,0.26294 0.4609,0.93634 0.4609,0.93634c-0.18488,0.54013 -0.22628,0.7246 -0.17087,1.24889l-0.1219,0.49569c0,0 -0.12198,0.70572 -0.84051,0.54893z" data-paper-data="{&quot;origPos&quot;:null}" fill="#d2a31f" stroke="none" stroke-width="0.5" stroke-linecap="butt"/><path d="M225.99778,199.6412c-0.70997,-0.16682 -0.60321,-0.8547 -0.60321,-0.8547l0.10563,-0.09917c-0.08771,-0.70016 -0.00862,-1.17349 0.19904,-1.80797c0,0 0.21412,-0.65422 0.89938,-0.38411c0.68526,0.27011 0.47112,0.92432 0.47112,0.92432c-0.17177,0.52474 -0.20901,0.70435 -0.14464,1.21812l-0.11063,0.48249c0,0 -0.10675,0.68785 -0.81672,0.52099z" data-paper-data="{&quot;origPos&quot;:null}" fill="#d2a31f" stroke="none" stroke-width="0.5" stroke-linecap="butt"/></g></g></g></svg>