<svg version="1.1" xmlns="http://www.w3.org/2000/svg" xmlns:xlink="http://www.w3.org/1999/xlink" width="659.59351" height="378.53045" viewBox="0,0,659.59351,378.53045"><defs><linearGradient x1="320.49683" y1="-0.67226" x2="320.49683" y2="359.40955" gradientUnits="userSpaceOnUse" id="color-1"><stop offset="0" stop-color="#05234d"/><stop offset="1" stop-color="#357abe"/></linearGradient><linearGradient x1="320.49683" y1="-0.67226" x2="320.49683" y2="359.40955" gradientUnits="userSpaceOnUse" id="color-2"><stop offset="0" stop-color="#05234d"/><stop offset="1" stop-color="#357abe"/></linearGradient><linearGradient x1="320.49683" y1="-0.67226" x2="320.49683" y2="359.40955" gradientUnits="userSpaceOnUse" id="color-3"><stop offset="0" stop-color="#05234d"/><stop offset="1" stop-color="#357abe"/></linearGradient><linearGradient x1="320.49683" y1="-0.67226" x2="320.49683" y2="359.40955" gradientUnits="userSpaceOnUse" id="color-4"><stop offset="0" stop-color="#05234d"/><stop offset="1" stop-color="#357abe"/></linearGradient><linearGradient x1="-65.59089" y1="169.40209" x2="-65.59089" y2="363.44616" gradientUnits="userSpaceOnUse" id="color-5"><stop offset="0" stop-color="#69bdff" stop-opacity="0"/><stop offset="1" stop-color="#69bdff"/></linearGradient><linearGradient x1="-65.59089" y1="169.40209" x2="-65.59089" y2="363.44616" gradientUnits="userSpaceOnUse" id="color-6"><stop offset="0" stop-color="#69bdff" stop-opacity="0"/><stop offset="1" stop-color="#69bdff"/></linearGradient><linearGradient x1="-65.59089" y1="169.40209" x2="-65.59089" y2="363.44616" gradientUnits="userSpaceOnUse" id="color-7"><stop offset="0" stop-color="#69bdff" stop-opacity="0"/><stop offset="1" stop-color="#69bdff"/></linearGradient><linearGradient x1="-65.59089" y1="169.40209" x2="-65.59089" y2="363.44616" gradientUnits="userSpaceOnUse" id="color-8"><stop offset="0" stop-color="#69bdff" stop-opacity="0"/><stop offset="1" stop-color="#69bdff"/></linearGradient><linearGradient x1="-70.16341" y1="216.42395" x2="-70.16341" y2="453.76538" gradientUnits="userSpaceOnUse" id="color-9"><stop offset="0" stop-color="#1bd2f2"/><stop offset="1" stop-color="#1d557f"/></linearGradient><radialGradient cx="330.05127" cy="217.04106" r="1011.35517" gradientUnits="userSpaceOnUse" id="color-10"><stop offset="0" stop-color="#bce7f7"/><stop offset="1" stop-color="#1bafe5"/></radialGradient><linearGradient x1="-70.16341" y1="216.42395" x2="-70.16341" y2="453.76538" gradientUnits="userSpaceOnUse" id="color-11"><stop offset="0" stop-color="#1bd2f2"/><stop offset="1" stop-color="#1d557f"/></linearGradient><radialGradient cx="330.05127" cy="217.04106" r="1011.35517" gradientUnits="userSpaceOnUse" id="color-12"><stop offset="0" stop-color="#bce7f7"/><stop offset="1" stop-color="#1bafe5"/></radialGradient><linearGradient x1="-70.16341" y1="216.42395" x2="-70.16341" y2="453.76538" gradientUnits="userSpaceOnUse" id="color-13"><stop offset="0" stop-color="#1bd2f2"/><stop offset="1" stop-color="#1d557f"/></linearGradient><radialGradient cx="330.05127" cy="217.04106" r="1011.35517" gradientUnits="userSpaceOnUse" id="color-14"><stop offset="0" stop-color="#bce7f7"/><stop offset="1" stop-color="#1bafe5"/></radialGradient><linearGradient x1="320.00012" y1="-3.53043" x2="320.00012" y2="360.00002" gradientUnits="userSpaceOnUse" id="color-15"><stop offset="0" stop-color="#05234d"/><stop offset="1" stop-color="#357abe"/></linearGradient><radialGradient cx="511.01802" cy="70.56025" r="388.16668" gradientUnits="userSpaceOnUse" id="color-16"><stop offset="0" stop-color="#1f5899"/><stop offset="1" stop-color="#1f5899" stop-opacity="0"/></radialGradient><linearGradient x1="-66.99989" y1="170.03572" x2="-66.99989" y2="364.03572" gradientUnits="userSpaceOnUse" id="color-17"><stop offset="0" stop-color="#69bdff" stop-opacity="0"/><stop offset="1" stop-color="#69bdff"/></linearGradient><linearGradient x1="-70.57139" y1="217.04692" x2="-70.57139" y2="454.33442" gradientUnits="userSpaceOnUse" id="color-18"><stop offset="0" stop-color="#1bd2f2"/><stop offset="1" stop-color="#1d557f"/></linearGradient><radialGradient cx="326.98688" cy="217.66387" r="1004.64232" gradientUnits="userSpaceOnUse" id="color-19"><stop offset="0" stop-color="#bce7f7"/><stop offset="1" stop-color="#1bafe5"/></radialGradient><radialGradient cx="341.98746" cy="239.00002" r="117.7438" gradientUnits="userSpaceOnUse" id="color-20"><stop offset="0" stop-color="#d0edff"/><stop offset="1" stop-color="#d0edff" stop-opacity="0"/></radialGradient><radialGradient cx="257.98224" cy="352.00002" r="108.3243" gradientUnits="userSpaceOnUse" id="color-21"><stop offset="0" stop-color="#d0edff"/><stop offset="1" stop-color="#d0edff" stop-opacity="0"/></radialGradient><radialGradient cx="153.48773" cy="283.00002" r="117.7438" gradientUnits="userSpaceOnUse" id="color-22"><stop offset="0" stop-color="#d0edff"/><stop offset="1" stop-color="#d0edff" stop-opacity="0"/></radialGradient><radialGradient cx="478.99757" cy="305.00002" r="94.666" gradientUnits="userSpaceOnUse" id="color-23"><stop offset="0" stop-color="#d0edff"/><stop offset="1" stop-color="#d0edff" stop-opacity="0"/></radialGradient></defs><g transform="translate(11.38358,3.53043)"><g data-paper-data="{&quot;isPaintingLayer&quot;:true}" fill-rule="nonzero" stroke-linejoin="miter" stroke-miterlimit="10" stroke-dasharray="" stroke-dashoffset="0" style="mix-blend-mode: normal"><path d="" fill="url(#color-1)" stroke="none" stroke-width="1" stroke-linecap="butt"/><path d="" fill="url(#color-2)" stroke="none" stroke-width="1" stroke-linecap="butt"/><path d="" fill="url(#color-3)" stroke="none" stroke-width="1" stroke-linecap="butt"/><path d="" fill="url(#color-4)" stroke="none" stroke-width="1" stroke-linecap="butt"/><path d="" fill="#8ecad1" stroke="none" stroke-width="0.5" stroke-linecap="butt"/><path d="" fill="#8ecad1" stroke="none" stroke-width="0.5" stroke-linecap="butt"/><path d="" fill="#8ecad1" stroke="none" stroke-width="0.5" stroke-linecap="butt"/><path d="" fill="#8ecad1" stroke="none" stroke-width="0.5" stroke-linecap="butt"/><path d="" fill="#8ecad1" stroke="none" stroke-width="0.5" stroke-linecap="butt"/><path d="" fill="#8ecad1" stroke="none" stroke-width="0.5" stroke-linecap="butt"/><path d="" fill="#8ecad1" stroke="none" stroke-width="0.5" stroke-linecap="butt"/><path d="" fill="#8ecad1" stroke="none" stroke-width="0.5" stroke-linecap="butt"/><path d="" fill="url(#color-5)" stroke="none" stroke-width="1.28528" stroke-linecap="butt"/><path d="" fill="url(#color-6)" stroke="none" stroke-width="1.28528" stroke-linecap="butt"/><path d="" fill="url(#color-7)" stroke="none" stroke-width="1.28528" stroke-linecap="butt"/><path d="" fill="url(#color-8)" stroke="none" stroke-width="1.28528" stroke-linecap="butt"/><path d="" fill="url(#color-9)" stroke="url(#color-10)" stroke-width="2.70748" stroke-linecap="butt"/><path d="" fill="url(#color-11)" stroke="url(#color-12)" stroke-width="2.70748" stroke-linecap="butt"/><path d="" fill="url(#color-13)" stroke="url(#color-14)" stroke-width="2.70748" stroke-linecap="butt"/><path d="" fill="#8ecad1" stroke="none" stroke-width="0.5" stroke-linecap="butt"/><path d="" fill="#8ecad1" stroke="none" stroke-width="0.5" stroke-linecap="butt"/><path d="" fill="#8ecad1" stroke="none" stroke-width="0.5" stroke-linecap="butt"/><path d="" fill="#8ecad1" stroke="none" stroke-width="0.5" stroke-linecap="butt"/><path d="" fill="#8ecad1" stroke="none" stroke-width="0.5" stroke-linecap="butt"/><path d="" fill="#8ecad1" stroke="none" stroke-width="0.5" stroke-linecap="butt"/><path d="" fill="#8ecad1" stroke="none" stroke-width="0.5" stroke-linecap="butt"/><path d="" fill="#8ecad1" stroke="none" stroke-width="0.5" stroke-linecap="butt"/><path d="" fill="#8ecad1" stroke="none" stroke-width="0.5" stroke-linecap="butt"/><path d="" fill="#8ecad1" stroke="none" stroke-width="0.5" stroke-linecap="butt"/><path d="" fill="#8ecad1" stroke="none" stroke-width="0.5" stroke-linecap="butt"/><path d="" fill="#8ecad1" stroke="none" stroke-width="0.5" stroke-linecap="butt"/><path d="" fill="#8ecad1" stroke="none" stroke-width="0.5" stroke-linecap="butt"/><path d="" fill="#8ecad1" stroke="none" stroke-width="0.5" stroke-linecap="butt"/><path d="" fill="#8ecad1" stroke="none" stroke-width="0.5" stroke-linecap="butt"/><path d="" fill="#8ecad1" stroke="none" stroke-width="0.5" stroke-linecap="butt"/><path d="" fill="#8ecad1" stroke="none" stroke-width="0.5" stroke-linecap="butt"/><path d="" fill="#8ecad1" stroke="none" stroke-width="0.5" stroke-linecap="butt"/><path d="" fill="#8ecad1" stroke="none" stroke-width="0.5" stroke-linecap="butt"/><path d="" fill="#8ecad1" stroke="none" stroke-width="0.5" stroke-linecap="butt"/><path d="" fill="#8ecad1" stroke="none" stroke-width="0.5" stroke-linecap="butt"/><path d="" fill="#8ecad1" stroke="none" stroke-width="0.5" stroke-linecap="butt"/><path d="" fill="#8ecad1" stroke="none" stroke-width="0.5" stroke-linecap="butt"/><path d="" fill="#8ecad1" stroke="none" stroke-width="0.5" stroke-linecap="butt"/><path d="" fill="#8ecad1" stroke="none" stroke-width="0.5" stroke-linecap="butt"/><path d="" fill="#8ecad1" stroke="none" stroke-width="0.5" stroke-linecap="butt"/><path d="" fill="#8ecad1" stroke="none" stroke-width="0.5" stroke-linecap="butt"/><path d="" fill="#8ecad1" stroke="none" stroke-width="0.5" stroke-linecap="butt"/><path d="" fill="#8ecad1" stroke="none" stroke-width="0.5" stroke-linecap="butt"/><path d="" fill="#8ecad1" stroke="none" stroke-width="0.5" stroke-linecap="butt"/><path d="" fill="#8ecad1" stroke="none" stroke-width="0.5" stroke-linecap="butt"/><path d="" fill="#8ecad1" stroke="none" stroke-width="0.5" stroke-linecap="butt"/><path d="" fill="#8ecad1" stroke="none" stroke-width="0.5" stroke-linecap="butt"/><path d="" fill="#8ecad1" stroke="none" stroke-width="0.5" stroke-linecap="butt"/><path d="" fill="#8ecad1" stroke="none" stroke-width="0.5" stroke-linecap="butt"/><path d="" fill="#8ecad1" stroke="none" stroke-width="0.5" stroke-linecap="butt"/><path d="" fill="#8ecad1" stroke="none" stroke-width="0.5" stroke-linecap="butt"/><path d="" fill="#8ecad1" stroke="none" stroke-width="0.5" stroke-linecap="butt"/><path d="" fill="#8ecad1" stroke="none" stroke-width="0.5" stroke-linecap="butt"/><path d="M643.76179,-3.53043c0.00105,0.9818 0.00181,1.96361 0.0023,2.94541c-0.65871,2.09707 -1.01408,4.3305 -1.01408,6.64774c-0.7621,45.54335 0.11567,91.09984 0,136.64953c-0.00558,2.19635 -0.97744,4.48439 -1,6.74304c-0.05044,5.04878 -0.03698,10.09821 0,15.1471c0.07351,10.03697 2.76597,20.04314 3,29.96859c0.13649,5.78864 -0.81795,13.72913 0.9762,20.20538c-0.02948,7.51067 -0.01984,15.02156 0.0238,22.53212c0.01316,2.26454 0.98868,4.53984 1,6.74304c0.11444,22.27226 0.18448,44.5459 0,66.81768c-0.01951,2.35567 -0.97466,4.81043 -1,7.22382c-0.07286,6.93771 0.47845,13.96144 -0.66016,20.8036c-1.1612,6.97794 -1.65594,14.02442 -1.77405,21.1034h-653.33609c0.02517,-6.67806 0.10558,-13.35544 0.27029,-20.03125c0.11764,-4.76783 1.96485,-9.86396 2,-14.80709c0.05107,-7.1818 -0.37953,-14.37421 0,-21.54595c0.37631,-7.11077 2.59786,-24.26621 2.96247,-30.68408c1.62499,-28.603 0.32798,-34.2796 1.03753,-64.37282c0.07387,-3.13289 1.97009,-6.29895 2,-9.62299c0.28533,-31.7073 -0.91165,-63.20025 -1,-94.92184c-0.00954,-3.42342 -0.9636,-6.96215 -1,-10.3047c-0.25413,-23.3393 0.13552,-48.94077 0.13552,-72.28148c0,-2.46969 -1.11187,-4.91546 -1.13552,-7.3099c-0.07449,-7.54445 -0.29073,-12.27245 -0.57776,-17.64833z" data-paper-data="{&quot;origPos&quot;:null}" fill="url(#color-15)" stroke="none" stroke-width="1" stroke-linecap="butt"/><path d="M643.76179,-2.86971c0.00105,0.98249 0.00181,1.96498 0.0023,2.94747c-0.65871,2.09853 -1.01408,4.33352 -1.01408,6.65238c-0.7621,45.57515 0.11567,91.16345 0,136.74494c-0.00558,2.19788 -0.97744,4.48752 -1,6.74774c-0.05044,5.05231 -0.03698,10.10526 0,15.15768c0.07351,10.04398 2.76597,20.05713 3,29.98952c0.13649,5.79268 -0.81795,13.73872 0.9762,20.21948c-0.02948,7.51591 -0.01984,15.03205 0.0238,22.54785c0.01316,2.26612 0.98868,4.54301 1,6.74774c0.04812,9.37148 0.08839,18.74321 0.10519,28.11494h-651.59855c1.55709,-27.94436 0.29034,-33.79563 0.99336,-63.63242c0.07387,-3.13507 1.97009,-6.30335 2,-9.62971c0.28533,-31.72944 -0.91165,-63.24438 -1,-94.98811c-0.00954,-3.42581 -0.9636,-6.96701 -1,-10.3119c-0.25413,-23.3556 0.13552,-48.97494 0.13552,-72.33194c0,-2.47142 -1.11187,-4.91889 -1.13552,-7.315c-0.07449,-7.54972 -0.29073,-12.28102 -0.57776,-17.66065z" data-paper-data="{&quot;origPos&quot;:null}" fill="url(#color-16)" stroke="none" stroke-width="1" stroke-linecap="butt"/><path d="M577.93921,219.00002c0,-1.24264 1.00736,-2.25 2.25,-2.25c1.24264,0 2.25,1.00736 2.25,2.25c0,1.24264 -1.00736,2.25 -2.25,2.25c-1.24264,0 -2.25,-1.00736 -2.25,-2.25z" fill="#8ecad1" stroke="none" stroke-width="0.5" stroke-linecap="butt"/><path d="M596.93921,164.00001c0,-1.24264 1.00736,-2.25 2.25,-2.25c1.24264,0 2.25,1.00736 2.25,2.25c0,1.24264 -1.00736,2.25 -2.25,2.25c-1.24264,0 -2.25,-1.00736 -2.25,-2.25z" fill="#8ecad1" stroke="none" stroke-width="0.5" stroke-linecap="butt"/><path d="M580.93921,93.00002c0,-1.24264 1.00736,-2.25 2.25,-2.25c1.24264,0 2.25,1.00736 2.25,2.25c0,1.24264 -1.00736,2.25 -2.25,2.25c-1.24264,0 -2.25,-1.00736 -2.25,-2.25z" fill="#8ecad1" stroke="none" stroke-width="0.5" stroke-linecap="butt"/><path d="M144.04804,54.80003c0,-0.27614 0.22386,-0.5 0.5,-0.5c0.27614,0 0.5,0.22386 0.5,0.5c0,0.27614 -0.22386,0.5 -0.5,0.5c-0.27614,0 -0.5,-0.22386 -0.5,-0.5z" fill="#c6e9ed" stroke="none" stroke-width="0.5" stroke-linecap="butt"/><path d="M219.04804,101.80003c0,-0.27614 0.22386,-0.5 0.5,-0.5c0.27614,0 0.5,0.22386 0.5,0.5c0,0.27614 -0.22386,0.5 -0.5,0.5c-0.27614,0 -0.5,-0.22386 -0.5,-0.5z" fill="#c6e9ed" stroke="none" stroke-width="0.5" stroke-linecap="butt"/><path d="M171.04806,109.80003c0,-0.27614 0.22386,-0.5 0.5,-0.5c0.27614,0 0.5,0.22386 0.5,0.5c0,0.27614 -0.22386,0.5 -0.5,0.5c-0.27614,0 -0.5,-0.22386 -0.5,-0.5z" fill="#c6e9ed" stroke="none" stroke-width="0.5" stroke-linecap="butt"/><path d="M275.04808,43.80003c0,-0.27614 0.22386,-0.5 0.5,-0.5c0.27614,0 0.5,0.22386 0.5,0.5c0,0.27614 -0.22386,0.5 -0.5,0.5c-0.27614,0 -0.5,-0.22386 -0.5,-0.5z" fill="#c6e9ed" stroke="none" stroke-width="0.5" stroke-linecap="butt"/><path d="M192.04806,36.80003c0,-0.27614 0.22386,-0.5 0.5,-0.5c0.27614,0 0.5,0.22386 0.5,0.5c0,0.27614 -0.22386,0.5 -0.5,0.5c-0.27614,0 -0.5,-0.22386 -0.5,-0.5z" fill="#c6e9ed" stroke="none" stroke-width="0.5" stroke-linecap="butt"/><path d="M320.04808,112.80003c0,-0.27614 0.22386,-0.5 0.5,-0.5c0.27614,0 0.5,0.22386 0.5,0.5c0,0.27614 -0.22386,0.5 -0.5,0.5c-0.27614,0 -0.5,-0.22386 -0.5,-0.5z" fill="#c6e9ed" stroke="none" stroke-width="0.5" stroke-linecap="butt"/><path d="M282.04808,142.80003c0,-0.27614 0.22386,-0.5 0.5,-0.5c0.27614,0 0.5,0.22386 0.5,0.5c0,0.27614 -0.22386,0.5 -0.5,0.5c-0.27614,0 -0.5,-0.22386 -0.5,-0.5z" fill="#c6e9ed" stroke="none" stroke-width="0.5" stroke-linecap="butt"/><path d="M383.04807,148.80003c0,-0.27614 0.22386,-0.5 0.5,-0.5c0.27614,0 0.5,0.22386 0.5,0.5c0,0.27614 -0.22386,0.5 -0.5,0.5c-0.27614,0 -0.5,-0.22386 -0.5,-0.5z" fill="#c6e9ed" stroke="none" stroke-width="0.5" stroke-linecap="butt"/><path d="M352.04807,61.80003c0,-0.27614 0.22386,-0.5 0.5,-0.5c0.27614,0 0.5,0.22386 0.5,0.5c0,0.27614 -0.22386,0.5 -0.5,0.5c-0.27614,0 -0.5,-0.22386 -0.5,-0.5z" fill="#c6e9ed" stroke="none" stroke-width="0.5" stroke-linecap="butt"/><path d="M420.0481,49.80003c0,-0.27614 0.22386,-0.5 0.5,-0.5c0.27614,0 0.5,0.22386 0.5,0.5c0,0.27614 -0.22386,0.5 -0.5,0.5c-0.27614,0 -0.5,-0.22386 -0.5,-0.5z" fill="#c6e9ed" stroke="none" stroke-width="0.5" stroke-linecap="butt"/><path d="M456.04809,90.80003c0,-0.27614 0.22386,-0.5 0.5,-0.5c0.27614,0 0.5,0.22386 0.5,0.5c0,0.27614 -0.22386,0.5 -0.5,0.5c-0.27614,0 -0.5,-0.22386 -0.5,-0.5z" fill="#c6e9ed" stroke="none" stroke-width="0.5" stroke-linecap="butt"/><path d="M446.0481,175.80003c0,-0.27614 0.22386,-0.5 0.5,-0.5c0.27614,0 0.5,0.22386 0.5,0.5c0,0.27614 -0.22386,0.5 -0.5,0.5c-0.27614,0 -0.5,-0.22386 -0.5,-0.5z" fill="#c6e9ed" stroke="none" stroke-width="0.5" stroke-linecap="butt"/><path d="M542.04809,157.80003c0,-0.27614 0.22386,-0.5 0.5,-0.5c0.27614,0 0.5,0.22386 0.5,0.5c0,0.27614 -0.22386,0.5 -0.5,0.5c-0.27614,0 -0.5,-0.22386 -0.5,-0.5z" fill="#c6e9ed" stroke="none" stroke-width="0.5" stroke-linecap="butt"/><path d="M500.04809,129.80003c0,-0.27614 0.22386,-0.5 0.5,-0.5c0.27614,0 0.5,0.22386 0.5,0.5c0,0.27614 -0.22386,0.5 -0.5,0.5c-0.27614,0 -0.5,-0.22386 -0.5,-0.5z" fill="#c6e9ed" stroke="none" stroke-width="0.5" stroke-linecap="butt"/><path d="M538.04809,65.80003c0,-0.27614 0.22386,-0.5 0.5,-0.5c0.27614,0 0.5,0.22386 0.5,0.5c0,0.27614 -0.22386,0.5 -0.5,0.5c-0.27614,0 -0.5,-0.22386 -0.5,-0.5z" fill="#c6e9ed" stroke="none" stroke-width="0.5" stroke-linecap="butt"/><path d="M486.04809,36.80003c0,-0.27614 0.22386,-0.5 0.5,-0.5c0.27614,0 0.5,0.22386 0.5,0.5c0,0.27614 -0.22386,0.5 -0.5,0.5c-0.27614,0 -0.5,-0.22386 -0.5,-0.5z" fill="#c6e9ed" stroke="none" stroke-width="0.5" stroke-linecap="butt"/><path d="M360.04807,24.80003c0,-0.27614 0.22386,-0.5 0.5,-0.5c0.27614,0 0.5,0.22386 0.5,0.5c0,0.27614 -0.22386,0.5 -0.5,0.5c-0.27614,0 -0.5,-0.22386 -0.5,-0.5z" fill="#c6e9ed" stroke="none" stroke-width="0.5" stroke-linecap="butt"/><path d="M175.04806,210.80003c0,-0.27614 0.22386,-0.5 0.5,-0.5c0.27614,0 0.5,0.22386 0.5,0.5c0,0.27614 -0.22386,0.5 -0.5,0.5c-0.27614,0 -0.5,-0.22386 -0.5,-0.5z" fill="#c6e9ed" stroke="none" stroke-width="0.5" stroke-linecap="butt"/><path d="M123.04807,150.80003c0,-0.27614 0.22386,-0.5 0.5,-0.5c0.27614,0 0.5,0.22386 0.5,0.5c0,0.27614 -0.22386,0.5 -0.5,0.5c-0.27614,0 -0.5,-0.22386 -0.5,-0.5z" fill="#c6e9ed" stroke="none" stroke-width="0.5" stroke-linecap="butt"/><path d="M532.04809,222.80003c0,-0.27614 0.22386,-0.5 0.5,-0.5c0.27614,0 0.5,0.22386 0.5,0.5c0,0.27614 -0.22386,0.5 -0.5,0.5c-0.27614,0 -0.5,-0.22386 -0.5,-0.5z" fill="#c6e9ed" stroke="none" stroke-width="0.5" stroke-linecap="butt"/><path d="M100.04807,30.80003c0,-0.27614 0.22386,-0.5 0.5,-0.5c0.27614,0 0.5,0.22386 0.5,0.5c0,0.27614 -0.22386,0.5 -0.5,0.5c-0.27614,0 -0.5,-0.22386 -0.5,-0.5z" fill="#c6e9ed" stroke="none" stroke-width="0.5" stroke-linecap="butt"/><path d="M208.04804,186.80003c0,-0.27614 0.22386,-0.5 0.5,-0.5c0.27614,0 0.5,0.22386 0.5,0.5c0,0.27614 -0.22386,0.5 -0.5,0.5c-0.27614,0 -0.5,-0.22386 -0.5,-0.5z" fill="#c6e9ed" stroke="none" stroke-width="0.5" stroke-linecap="butt"/><path d="M338.04807,169.80003c0,-0.27614 0.22386,-0.5 0.5,-0.5c0.27614,0 0.5,0.22386 0.5,0.5c0,0.27614 -0.22386,0.5 -0.5,0.5c-0.27614,0 -0.5,-0.22386 -0.5,-0.5z" fill="#c6e9ed" stroke="none" stroke-width="0.5" stroke-linecap="butt"/><path d="M220.54804,149.30003c-0.5,0 -0.5,-0.5 -0.5,-0.5c0,-0.16666 0,-0.83334 0,-1c0,0 0,-0.5 0.5,-0.5c0.5,0 0.5,0.5 0.5,0.5c0,0.16666 0,0.33334 0,0.5v0.5c0,0 0,0.5 -0.5,0.5z" fill="#c6e9ed" stroke="none" stroke-width="0.5" stroke-linecap="butt"/><path d="M432.0481,129.80003c0,-0.27614 0.22386,-0.5 0.5,-0.5c0.27614,0 0.5,0.22386 0.5,0.5c0,0.27614 -0.22386,0.5 -0.5,0.5c-0.27614,0 -0.5,-0.22386 -0.5,-0.5z" fill="#c6e9ed" stroke="none" stroke-width="0.5" stroke-linecap="butt"/><path d="M182.29806,68.80002c0,-0.69036 0.55964,-1.25 1.25,-1.25c0.69036,0 1.25,0.55964 1.25,1.25c0,0.69036 -0.55964,1.25 -1.25,1.25c-0.69036,0 -1.25,-0.55964 -1.25,-1.25z" fill="#c6e9ed" stroke="none" stroke-width="0.5" stroke-linecap="butt"/><path d="M271.29808,110.80002c0,-0.69036 0.55964,-1.25 1.25,-1.25c0.69036,0 1.25,0.55964 1.25,1.25c0,0.69036 -0.55964,1.25 -1.25,1.25c-0.69036,0 -1.25,-0.55964 -1.25,-1.25z" fill="#c6e9ed" stroke="none" stroke-width="0.5" stroke-linecap="butt"/><path d="M320.29808,39.80002c0,-0.69036 0.55964,-1.25 1.25,-1.25c0.69036,0 1.25,0.55964 1.25,1.25c0,0.69036 -0.55964,1.25 -1.25,1.25c-0.69036,0 -1.25,-0.55964 -1.25,-1.25z" fill="#c6e9ed" stroke="none" stroke-width="0.5" stroke-linecap="butt"/><path d="M390.29807,105.80002c0,-0.69036 0.55964,-1.25 1.25,-1.25c0.69036,0 1.25,0.55964 1.25,1.25c0,0.69036 -0.55964,1.25 -1.25,1.25c-0.69036,0 -1.25,-0.55964 -1.25,-1.25z" fill="#c6e9ed" stroke="none" stroke-width="0.5" stroke-linecap="butt"/><path d="M505.29809,92.80002c0,-0.69036 0.55964,-1.25 1.25,-1.25c0.69036,0 1.25,0.55964 1.25,1.25c0,0.69036 -0.55964,1.25 -1.25,1.25c-0.69036,0 -1.25,-0.55964 -1.25,-1.25z" fill="#c6e9ed" stroke="none" stroke-width="0.5" stroke-linecap="butt"/><path d="M439.2981,26.80002c0,-0.69036 0.55964,-1.25 1.25,-1.25c0.69036,0 1.25,0.55964 1.25,1.25c0,0.69036 -0.55964,1.25 -1.25,1.25c-0.69036,0 -1.25,-0.55964 -1.25,-1.25z" fill="#c6e9ed" stroke="none" stroke-width="0.5" stroke-linecap="butt"/><path d="M500.29809,188.80001c0,-0.69036 0.55964,-1.25 1.25,-1.25c0.69036,0 1.25,0.55964 1.25,1.25c0,0.69036 -0.55964,1.25 -1.25,1.25c-0.69036,0 -1.25,-0.55964 -1.25,-1.25z" fill="#c6e9ed" stroke="none" stroke-width="0.5" stroke-linecap="butt"/><path d="M383.29807,188.80001c0,-0.69036 0.55964,-1.25 1.25,-1.25c0.69036,0 1.25,0.55964 1.25,1.25c0,0.69036 -0.55964,1.25 -1.25,1.25c-0.69036,0 -1.25,-0.55964 -1.25,-1.25z" fill="#c6e9ed" stroke="none" stroke-width="0.5" stroke-linecap="butt"/><path d="M275.29808,188.80001c0,-0.69036 0.55964,-1.25 1.25,-1.25c0.69036,0 1.25,0.55964 1.25,1.25c0,0.69036 -0.55964,1.25 -1.25,1.25c-0.69036,0 -1.25,-0.55964 -1.25,-1.25z" fill="#c6e9ed" stroke="none" stroke-width="0.5" stroke-linecap="butt"/><path d="M166.29806,155.80001c0,-0.69036 0.55964,-1.25 1.25,-1.25c0.69036,0 1.25,0.55964 1.25,1.25c0,0.69036 -0.55964,1.25 -1.25,1.25c-0.69036,0 -1.25,-0.55964 -1.25,-1.25z" fill="#c6e9ed" stroke="none" stroke-width="0.5" stroke-linecap="butt"/><path d="M117.29805,207.80001c0,-0.69036 0.55964,-1.25 1.25,-1.25c0.69036,0 1.25,0.55964 1.25,1.25c0,0.69036 -0.55964,1.25 -1.25,1.25c-0.69036,0 -1.25,-0.55964 -1.25,-1.25z" fill="#c6e9ed" stroke="none" stroke-width="0.5" stroke-linecap="butt"/><path d="M105.29807,110.80002c0,-0.69036 0.55964,-1.25 1.25,-1.25c0.69036,0 1.25,0.55964 1.25,1.25c0,0.69036 -0.55964,1.25 -1.25,1.25c-0.69036,0 -1.25,-0.55964 -1.25,-1.25z" fill="#c6e9ed" stroke="none" stroke-width="0.5" stroke-linecap="butt"/><path d="M144.29806,32.80002c0,-0.69036 0.55964,-1.25 1.25,-1.25c0.69036,0 1.25,0.55964 1.25,1.25c0,0.69036 -0.55964,1.25 -1.25,1.25c-0.69036,0 -1.25,-0.55964 -1.25,-1.25z" fill="#c6e9ed" stroke="none" stroke-width="0.5" stroke-linecap="butt"/><path d="M241.29804,66.80002c0,-0.69036 0.55964,-1.25 1.25,-1.25c0.69036,0 1.25,0.55964 1.25,1.25c0,0.69036 -0.55964,1.25 -1.25,1.25c-0.69036,0 -1.25,-0.55964 -1.25,-1.25z" fill="#c6e9ed" stroke="none" stroke-width="0.5" stroke-linecap="butt"/><path d="M433.2981,84.80002c0,-0.69036 0.55964,-1.25 1.25,-1.25c0.69036,0 1.25,0.55964 1.25,1.25c0,0.69036 -0.55964,1.25 -1.25,1.25c-0.69036,0 -1.25,-0.55964 -1.25,-1.25z" fill="#c6e9ed" stroke="none" stroke-width="0.5" stroke-linecap="butt"/><path d="M375.29807,42.80002c0,-0.69036 0.55964,-1.25 1.25,-1.25c0.69036,0 1.25,0.55964 1.25,1.25c0,0.69036 -0.55964,1.25 -1.25,1.25c-0.69036,0 -1.25,-0.55964 -1.25,-1.25z" fill="#c6e9ed" stroke="none" stroke-width="0.5" stroke-linecap="butt"/><path d="M472.29809,58.80002c0,-0.69036 0.55964,-1.25 1.25,-1.25c0.69036,0 1.25,0.55964 1.25,1.25c0,0.69036 -0.55964,1.25 -1.25,1.25c-0.69036,0 -1.25,-0.55964 -1.25,-1.25z" fill="#c6e9ed" stroke="none" stroke-width="0.5" stroke-linecap="butt"/><path d="M455.29809,143.80001c0,-0.69036 0.55964,-1.25 1.25,-1.25c0.69036,0 1.25,0.55964 1.25,1.25c0,0.69036 -0.55964,1.25 -1.25,1.25c-0.69036,0 -1.25,-0.55964 -1.25,-1.25z" fill="#c6e9ed" stroke="none" stroke-width="0.5" stroke-linecap="butt"/><path d="M529.29809,216.80001c0,-0.69036 0.55964,-1.25 1.25,-1.25c0.69036,0 1.25,0.55964 1.25,1.25c0,0.69036 -0.55964,1.25 -1.25,1.25c-0.69036,0 -1.25,-0.55964 -1.25,-1.25z" fill="#c6e9ed" stroke="none" stroke-width="0.5" stroke-linecap="butt"/><path d="M152.29806,189.80001c0,-0.69036 0.55964,-1.25 1.25,-1.25c0.69036,0 1.25,0.55964 1.25,1.25c0,0.69036 -0.55964,1.25 -1.25,1.25c-0.69036,0 -1.25,-0.55964 -1.25,-1.25z" fill="#c6e9ed" stroke="none" stroke-width="0.5" stroke-linecap="butt"/><path d="M128.29806,100.80002c0,-0.69036 0.55964,-1.25 1.25,-1.25c0.69036,0 1.25,0.55964 1.25,1.25c0,0.69036 -0.55964,1.25 -1.25,1.25c-0.69036,0 -1.25,-0.55964 -1.25,-1.25z" fill="#c6e9ed" stroke="none" stroke-width="0.5" stroke-linecap="butt"/><path d="M93.29807,172.80001c0,-0.69036 0.55964,-1.25 1.25,-1.25c0.69036,0 1.25,0.55964 1.25,1.25c0,0.69036 -0.55964,1.25 -1.25,1.25c-0.69036,0 -1.25,-0.55964 -1.25,-1.25z" fill="#c6e9ed" stroke="none" stroke-width="0.5" stroke-linecap="butt"/><path d="M347.29807,138.80001c0,-0.69036 0.55964,-1.25 1.25,-1.25c0.69036,0 1.25,0.55964 1.25,1.25c0,0.69036 -0.55964,1.25 -1.25,1.25c-0.69036,0 -1.25,-0.55964 -1.25,-1.25z" fill="#c6e9ed" stroke="none" stroke-width="0.5" stroke-linecap="butt"/><path d="M312.29808,80.80002c0,-0.69036 0.55964,-1.25 1.25,-1.25c0.69036,0 1.25,0.55964 1.25,1.25c0,0.69036 -0.55964,1.25 -1.25,1.25c-0.69036,0 -1.25,-0.55964 -1.25,-1.25z" fill="#c6e9ed" stroke="none" stroke-width="0.5" stroke-linecap="butt"/><path d="M536.29809,29.80002c0,-0.69036 0.55964,-1.25 1.25,-1.25c0.69036,0 1.25,0.55964 1.25,1.25c0,0.69036 -0.55964,1.25 -1.25,1.25c-0.69036,0 -1.25,-0.55964 -1.25,-1.25z" fill="#c6e9ed" stroke="none" stroke-width="0.5" stroke-linecap="butt"/><path d="M532.29809,132.80002c0,-0.69036 0.55964,-1.25 1.25,-1.25c0.69036,0 1.25,0.55964 1.25,1.25c0,0.69036 -0.55964,1.25 -1.25,1.25c-0.69036,0 -1.25,-0.55964 -1.25,-1.25z" fill="#c6e9ed" stroke="none" stroke-width="0.5" stroke-linecap="butt"/><path d="M197.54806,132.80002c0,-1.10457 0.89543,-2 2,-2c1.10457,0 2,0.89543 2,2c0,1.10457 -0.89543,2 -2,2c-1.10457,0 -2,-0.89543 -2,-2z" fill="#8ecad1" stroke="none" stroke-width="0.5" stroke-linecap="butt"/><path d="M104.54807,60.80002c0,-1.10457 0.89543,-2 2,-2c1.10457,0 2,0.89543 2,2c0,1.10457 -0.89543,2 -2,2c-1.10457,0 -2,-0.89543 -2,-2z" fill="#8ecad1" stroke="none" stroke-width="0.5" stroke-linecap="butt"/><path d="M172.54806,16.80001c0,-1.10457 0.89543,-2 2,-2c1.10457,0 2,0.89543 2,2c0,1.10457 -0.89543,2 -2,2c-1.10457,0 -2,-0.89543 -2,-2z" fill="#8ecad1" stroke="none" stroke-width="0.5" stroke-linecap="butt"/><path d="M251.54808,128.80002c0,-1.10457 0.89543,-2 2,-2c1.10457,0 2,0.89543 2,2c0,1.10457 -0.89543,2 -2,2c-1.10457,0 -2,-0.89543 -2,-2z" fill="#8ecad1" stroke="none" stroke-width="0.5" stroke-linecap="butt"/><path d="M246.54804,23.80002c0,-1.10457 0.89543,-2 2,-2c1.10457,0 2,0.89543 2,2c0,1.10457 -0.89543,2 -2,2c-1.10457,0 -2,-0.89543 -2,-2z" fill="#8ecad1" stroke="none" stroke-width="0.5" stroke-linecap="butt"/><path d="M302.54808,157.80001c0,-1.10457 0.89543,-2 2,-2c1.10457,0 2,0.89543 2,2c0,1.10457 -0.89543,2 -2,2c-1.10457,0 -2,-0.89543 -2,-2z" fill="#8ecad1" stroke="none" stroke-width="0.5" stroke-linecap="butt"/><path d="M358.54807,99.80002c0,-1.10457 0.89543,-2 2,-2c1.10457,0 2,0.89543 2,2c0,1.10457 -0.89543,2 -2,2c-1.10457,0 -2,-0.89543 -2,-2z" fill="#8ecad1" stroke="none" stroke-width="0.5" stroke-linecap="butt"/><path d="M296.54808,26.80002c0,-1.10457 0.89543,-2 2,-2c1.10457,0 2,0.89543 2,2c0,1.10457 -0.89543,2 -2,2c-1.10457,0 -2,-0.89543 -2,-2z" fill="#8ecad1" stroke="none" stroke-width="0.5" stroke-linecap="butt"/><path d="M274.54808,82.80002c0,-1.10457 0.89543,-2 2,-2c1.10457,0 2,0.89543 2,2c0,1.10457 -0.89543,2 -2,2c-1.10457,0 -2,-0.89543 -2,-2z" fill="#8ecad1" stroke="none" stroke-width="0.5" stroke-linecap="butt"/><path d="M413.54807,160.80001c0,-1.10457 0.89543,-2 2,-2c1.10457,0 2,0.89543 2,2c0,1.10457 -0.89543,2 -2,2c-1.10457,0 -2,-0.89543 -2,-2z" fill="#8ecad1" stroke="none" stroke-width="0.5" stroke-linecap="butt"/><path d="M466.54809,120.80002c0,-1.10457 0.89543,-2 2,-2c1.10457,0 2,0.89543 2,2c0,1.10457 -0.89543,2 -2,2c-1.10457,0 -2,-0.89543 -2,-2z" fill="#8ecad1" stroke="none" stroke-width="0.5" stroke-linecap="butt"/><path d="M389.54807,72.80002c0,-1.10457 0.89543,-2 2,-2c1.10457,0 2,0.89543 2,2c0,1.10457 -0.89543,2 -2,2c-1.10457,0 -2,-0.89543 -2,-2z" fill="#8ecad1" stroke="none" stroke-width="0.5" stroke-linecap="butt"/><path d="M406.54807,23.80002c0,-1.10457 0.89543,-2 2,-2c1.10457,0 2,0.89543 2,2c0,1.10457 -0.89543,2 -2,2c-1.10457,0 -2,-0.89543 -2,-2z" fill="#8ecad1" stroke="none" stroke-width="0.5" stroke-linecap="butt"/><path d="M490.54809,21.80002c0,-1.10457 0.89543,-2 2,-2c1.10457,0 2,0.89543 2,2c0,1.10457 -0.89543,2 -2,2c-1.10457,0 -2,-0.89543 -2,-2z" fill="#8ecad1" stroke="none" stroke-width="0.5" stroke-linecap="butt"/><path d="M538.54809,93.80002c0,-1.10457 0.89543,-2 2,-2c1.10457,0 2,0.89543 2,2c0,1.10457 -0.89543,2 -2,2c-1.10457,0 -2,-0.89543 -2,-2z" fill="#8ecad1" stroke="none" stroke-width="0.5" stroke-linecap="butt"/><path d="M402.54807,129.80002c0,-1.10457 0.89543,-2 2,-2c1.10457,0 2,0.89543 2,2c0,1.10457 -0.89543,2 -2,2c-1.10457,0 -2,-0.89543 -2,-2z" fill="#8ecad1" stroke="none" stroke-width="0.5" stroke-linecap="butt"/><path d="M460.54809,196.80001c0,-1.10457 0.89543,-2 2,-2c1.10457,0 2,0.89543 2,2c0,1.10457 -0.89543,2 -2,2c-1.10457,0 -2,-0.89543 -2,-2z" fill="#8ecad1" stroke="none" stroke-width="0.5" stroke-linecap="butt"/><path d="M496.54809,152.80001c0,-1.10457 0.89543,-2 2,-2c1.10457,0 2,0.89543 2,2c0,1.10457 -0.89543,2 -2,2c-1.10457,0 -2,-0.89543 -2,-2z" fill="#8ecad1" stroke="none" stroke-width="0.5" stroke-linecap="butt"/><path d="M541.54809,188.80001c0,-1.10457 0.89543,-2 2,-2c1.10457,0 2,0.89543 2,2c0,1.10457 -0.89543,2 -2,2c-1.10457,0 -2,-0.89543 -2,-2z" fill="#8ecad1" stroke="none" stroke-width="0.5" stroke-linecap="butt"/><path d="M326.54808,199.80001c0,-1.10457 0.89543,-2 2,-2c1.10457,0 2,0.89543 2,2c0,1.10457 -0.89543,2 -2,2c-1.10457,0 -2,-0.89543 -2,-2z" fill="#8ecad1" stroke="none" stroke-width="0.5" stroke-linecap="butt"/><path d="M141.54806,129.80002c0,-1.10457 0.89543,-2 2,-2c1.10457,0 2,0.89543 2,2c0,1.10457 -0.89543,2 -2,2c-1.10457,0 -2,-0.89543 -2,-2z" fill="#8ecad1" stroke="none" stroke-width="0.5" stroke-linecap="butt"/><path d="M242.54804,204.80001c0,-1.10457 0.89543,-2 2,-2c1.10457,0 2,0.89543 2,2c0,1.10457 -0.89543,2 -2,2c-1.10457,0 -2,-0.89543 -2,-2z" fill="#8ecad1" stroke="none" stroke-width="0.5" stroke-linecap="butt"/><path d="M253.54808,160.80001c0,-1.10457 0.89543,-2 2,-2c1.10457,0 2,0.89543 2,2c0,1.10457 -0.89543,2 -2,2c-1.10457,0 -2,-0.89543 -2,-2z" fill="#8ecad1" stroke="none" stroke-width="0.5" stroke-linecap="butt"/><path d="M423.5481,204.80001c0,-1.10457 0.89543,-2 2,-2c1.10457,0 2,0.89543 2,2c0,1.10457 -0.89543,2 -2,2c-1.10457,0 -2,-0.89543 -2,-2z" fill="#8ecad1" stroke="none" stroke-width="0.5" stroke-linecap="butt"/><path d="M179.54806,180.80001c0,-1.10457 0.89543,-2 2,-2c1.10457,0 2,0.89543 2,2c0,1.10457 -0.89543,2 -2,2c-1.10457,0 -2,-0.89543 -2,-2z" fill="#8ecad1" stroke="none" stroke-width="0.5" stroke-linecap="butt"/><path d="M120.54805,175.80001c0,-1.10457 0.89543,-2 2,-2c1.10457,0 2,0.89543 2,2c0,1.10457 -0.89543,2 -2,2c-1.10457,0 -2,-0.89543 -2,-2z" fill="#8ecad1" stroke="none" stroke-width="0.5" stroke-linecap="butt"/><path d="M89.54807,230.80001c0,-1.10457 0.89543,-2 2,-2c1.10457,0 2,0.89543 2,2c0,1.10457 -0.89543,2 -2,2c-1.10457,0 -2,-0.89543 -2,-2z" fill="#8ecad1" stroke="none" stroke-width="0.5" stroke-linecap="butt"/><path d="M506.54809,56.80002c0,-1.10457 0.89543,-2 2,-2c1.10457,0 2,0.89543 2,2c0,1.10457 -0.89543,2 -2,2c-1.10457,0 -2,-0.89543 -2,-2z" fill="#8ecad1" stroke="none" stroke-width="0.5" stroke-linecap="butt"/><path d="M222.54804,46.80002c0,-1.10457 0.89543,-2 2,-2c1.10457,0 2,0.89543 2,2c0,1.10457 -0.89543,2 -2,2c-1.10457,0 -2,-0.89543 -2,-2z" fill="#8ecad1" stroke="none" stroke-width="0.5" stroke-linecap="butt"/><path d="M297.54808,57.80002c0,-1.10457 0.89543,-2 2,-2c1.10457,0 2,0.89543 2,2c0,1.10457 -0.89543,2 -2,2c-1.10457,0 -2,-0.89543 -2,-2z" fill="#8ecad1" stroke="none" stroke-width="0.5" stroke-linecap="butt"/><path d="M300.54808,124.80002c0,-1.10457 0.89543,-2 2,-2c1.10457,0 2,0.89543 2,2c0,1.10457 -0.89543,2 -2,2c-1.10457,0 -2,-0.89543 -2,-2z" fill="#8ecad1" stroke="none" stroke-width="0.5" stroke-linecap="butt"/><path d="M191.54806,93.80002c0,-1.10457 0.89543,-2 2,-2c1.10457,0 2,0.89543 2,2c0,1.10457 -0.89543,2 -2,2c-1.10457,0 -2,-0.89543 -2,-2z" fill="#8ecad1" stroke="none" stroke-width="0.5" stroke-linecap="butt"/><path d="M146.54806,82.80002c0,-1.10457 0.89543,-2 2,-2c1.10457,0 2,0.89543 2,2c0,1.10457 -0.89543,2 -2,2c-1.10457,0 -2,-0.89543 -2,-2z" fill="#8ecad1" stroke="none" stroke-width="0.5" stroke-linecap="butt"/><path d="M88.54807,133.80002c0,-1.10457 0.89543,-2 2,-2c1.10457,0 2,0.89543 2,2c0,1.10457 -0.89543,2 -2,2c-1.10457,0 -2,-0.89543 -2,-2z" fill="#8ecad1" stroke="none" stroke-width="0.5" stroke-linecap="butt"/><path d="M640.87825,170.03572c0.54944,8.75348 1.39045,185.63248 1.40911,194h-653.31639c0.00469,-7.95871 8.30834,-183.85757 8.17774,-194z" fill="url(#color-17)" stroke="none" stroke-width="1.28528" stroke-linecap="butt"/><path d="M78.54805,361.80002v-107h484v107z" fill="#69bdff" stroke="none" stroke-width="0" stroke-linecap="butt"/><path d="M116.54807,17.80001c0,-1.10457 0.89543,-2 2,-2c1.10457,0 2,0.89543 2,2c0,1.10457 -0.89543,2 -2,2c-1.10457,0 -2,-0.89543 -2,-2z" fill="#8ecad1" stroke="none" stroke-width="0.5" stroke-linecap="butt"/><path d="M334.29808,17.80001c0,-0.69036 0.55964,-1.25 1.25,-1.25c0.69036,0 1.25,0.55964 1.25,1.25c0,0.69036 -0.55964,1.25 -1.25,1.25c-0.69036,0 -1.25,-0.55964 -1.25,-1.25z" fill="#c6e9ed" stroke="none" stroke-width="0.5" stroke-linecap="butt"/><path d="M381.29807,11.80002c0,-0.69036 0.55964,-1.25 1.25,-1.25c0.69036,0 1.25,0.55964 1.25,1.25c0,0.69036 -0.55964,1.25 -1.25,1.25c-0.69036,0 -1.25,-0.55964 -1.25,-1.25z" fill="#c6e9ed" stroke="none" stroke-width="0.5" stroke-linecap="butt"/><path d="M442.2981,60.80002c0,-0.69036 0.55964,-1.25 1.25,-1.25c0.69036,0 1.25,0.55964 1.25,1.25c0,0.69036 -0.55964,1.25 -1.25,1.25c-0.69036,0 -1.25,-0.55964 -1.25,-1.25z" fill="#c6e9ed" stroke="none" stroke-width="0.5" stroke-linecap="butt"/><path d="M211.29804,13.80002c0,-0.69036 0.55964,-1.25 1.25,-1.25c0.69036,0 1.25,0.55964 1.25,1.25c0,0.69036 -0.55964,1.25 -1.25,1.25c-0.69036,0 -1.25,-0.55964 -1.25,-1.25z" fill="#c6e9ed" stroke="none" stroke-width="0.5" stroke-linecap="butt"/><path d="M109.30005,216.30002l-0.3,-0.3" data-paper-data="{&quot;origPos&quot;:null}" fill="none" stroke="#ffffff" stroke-width="2" stroke-linecap="round"/><path d="M316.83682,217.04692c106.88264,0 203.73469,13.29466 273.86686,34.77156c21.35115,6.53911 40.22565,13.83664 56.15251,21.74837c0.0215,12.59336 -3.53828,81.21501 -3.56787,89.13352c-19.81811,0.21666 -648.10322,-0.85322 -653.31537,-0.3039c0.01373,-7.41219 4.8749,-82.26372 5.23952,-88.61926c0.08585,-1.49653 0.16355,-2.92968 0.23382,-4.30637c13.97912,-6.34635 29.90847,-12.25746 47.52354,-17.65235c70.13217,-21.4769 166.98422,-34.77156 273.86698,-34.77156z" data-paper-data="{&quot;origPos&quot;:null}" fill="url(#color-18)" stroke="url(#color-19)" stroke-width="2.70748" stroke-linecap="butt"/><path d="M340.50005,224.00002c27.727,0 52.852,2.241 71.045,5.862c18.194,3.62 29.455,8.62 29.455,14.138c0,5.518 -11.261,10.518 -29.455,14.138c-18.193,3.621 -43.318,5.862 -71.045,5.862c-27.727,0 -52.852,-2.241 -71.045,-5.862c-18.194,-3.62 -29.455,-8.62 -29.455,-14.138c0,-5.518 11.261,-10.518 29.455,-14.138c18.193,-3.621 43.318,-5.862 71.045,-5.862z" data-paper-data="{&quot;origPos&quot;:null}" fill="url(#color-20)" stroke="none" stroke-width="1" stroke-linecap="butt"/><path d="M249.50006,335.00002c27.727,0 52.852,2.241 71.045,5.862c18.194,3.62 29.455,8.62 29.455,14.138c0,5.518 -11.261,10.518 -29.455,14.138c-18.193,3.621 -43.318,5.862 -71.045,5.862c-27.727,0 -52.852,-2.241 -71.045,-5.862c-18.194,-3.62 -29.455,-8.62 -29.455,-14.138c0,-5.518 11.261,-10.518 29.455,-14.138c18.193,-3.621 43.318,-5.862 71.045,-5.862z" data-paper-data="{&quot;origPos&quot;:null}" fill="url(#color-21)" stroke="none" stroke-width="1" stroke-linecap="butt"/><path d="M164.00006,268.00002c27.727,0 52.852,2.241 71.045,5.862c18.194,3.62 29.455,8.62 29.455,14.138c0,5.518 -11.261,10.518 -29.455,14.138c-18.193,3.621 -43.318,5.862 -71.045,5.862c-27.727,0 -52.852,-2.241 -71.045,-5.862c-18.194,-3.62 -29.455,-8.62 -29.455,-14.138c0,-5.518 11.261,-10.518 29.455,-14.138c18.193,-3.621 43.318,-5.862 71.045,-5.862z" data-paper-data="{&quot;origPos&quot;:null}" fill="url(#color-22)" stroke="none" stroke-width="1" stroke-linecap="butt"/><path d="M479.50004,285.00002c27.727,0 52.852,2.241 71.045,5.862c18.194,3.62 29.455,8.62 29.455,14.138c0,5.518 -11.261,10.518 -29.455,14.138c-18.193,3.621 -43.318,5.862 -71.045,5.862c-27.727,0 -52.852,-2.241 -71.045,-5.862c-18.194,-3.62 -29.455,-8.62 -29.455,-14.138c0,-5.518 11.261,-10.518 29.455,-14.138c18.193,-3.621 43.318,-5.862 71.045,-5.862z" data-paper-data="{&quot;origPos&quot;:null}" fill="url(#color-23)" stroke="none" stroke-width="1" stroke-linecap="butt"/><path d="M12.9392,56.00002c0,-1.24264 1.00736,-2.25 2.25,-2.25c1.24264,0 2.25,1.00736 2.25,2.25c0,1.24264 -1.00736,2.25 -2.25,2.25c-1.24264,0 -2.25,-1.00736 -2.25,-2.25z" fill="#8ecad1" stroke="none" stroke-width="0.5" stroke-linecap="butt"/><path d="M62.9392,37.00002c0,-1.24264 1.00736,-2.25 2.25,-2.25c1.24264,0 2.25,1.00736 2.25,2.25c0,1.24264 -1.00736,2.25 -2.25,2.25c-1.24264,0 -2.25,-1.00736 -2.25,-2.25z" fill="#8ecad1" stroke="none" stroke-width="0.5" stroke-linecap="butt"/><path d="M15.9392,116.00002c0,-1.24264 1.00736,-2.25 2.25,-2.25c1.24264,0 2.25,1.00736 2.25,2.25c0,1.24264 -1.00736,2.25 -2.25,2.25c-1.24264,0 -2.25,-1.00736 -2.25,-2.25z" fill="#8ecad1" stroke="none" stroke-width="0.5" stroke-linecap="butt"/><path d="M56.9392,150.00001c0,-1.24264 1.00736,-2.25 2.25,-2.25c1.24264,0 2.25,1.00736 2.25,2.25c0,1.24264 -1.00736,2.25 -2.25,2.25c-1.24264,0 -2.25,-1.00736 -2.25,-2.25z" fill="#8ecad1" stroke="none" stroke-width="0.5" stroke-linecap="butt"/><path d="M38.9392,202.00002c0,-1.24264 1.00736,-2.25 2.25,-2.25c1.24264,0 2.25,1.00736 2.25,2.25c0,1.24264 -1.00736,2.25 -2.25,2.25c-1.24264,0 -2.25,-1.00736 -2.25,-2.25z" fill="#8ecad1" stroke="none" stroke-width="0.5" stroke-linecap="butt"/><path d="M0.18919,164.75001c1.24264,0 2.25,1.00736 2.25,2.25c0,1.24264 -1.00736,2.25 -2.25,2.25c-0.92834,0 -1.72537,-0.56222 -2.06916,-1.36475c-0.00786,-0.57064 -0.01592,-1.14125 -0.02415,-1.71185c0.32946,-0.83365 1.14251,-1.4234 2.09331,-1.4234z" fill="#8ecad1" stroke="none" stroke-width="0.5" stroke-linecap="butt"/><path d="M601.93921,32.00002c0,-1.24264 1.00736,-2.25 2.25,-2.25c1.24264,0 2.25,1.00736 2.25,2.25c0,1.24264 -1.00736,2.25 -2.25,2.25c-1.24264,0 -2.25,-1.00736 -2.25,-2.25z" fill="#8ecad1" stroke="none" stroke-width="0.5" stroke-linecap="butt"/><path d="M46.9392,94.00002c0,-1.24264 1.00736,-2.25 2.25,-2.25c1.24264,0 2.25,1.00736 2.25,2.25c0,1.24264 -1.00736,2.25 -2.25,2.25c-1.24264,0 -2.25,-1.00736 -2.25,-2.25z" fill="#8ecad1" stroke="none" stroke-width="0.5" stroke-linecap="butt"/><path d="M46.6892,66.00002c0,-0.27614 0.22386,-0.5 0.5,-0.5c0.27614,0 0.5,0.22386 0.5,0.5c0,0.27614 -0.22386,0.5 -0.5,0.5c-0.27614,0 -0.5,-0.22386 -0.5,-0.5z" fill="#8ecad1" stroke="none" stroke-width="0.5" stroke-linecap="butt"/><path d="M605.68921,50.00002c0,-0.5 0.5,-0.5 0.5,-0.5h1c0,0 0.5,0 0.5,0.5c0,0.5 -0.5,0.5 -0.5,0.5h-1c0,0 -0.5,0 -0.5,-0.5z" fill="#8ecad1" stroke="none" stroke-width="0.5" stroke-linecap="butt"/><path d="M572.68921,134.00001c0,-0.27614 0.22386,-0.5 0.5,-0.5c0.27614,0 0.5,0.22386 0.5,0.5c0,0.27614 -0.22386,0.5 -0.5,0.5c-0.27614,0 -0.5,-0.22386 -0.5,-0.5z" fill="#8ecad1" stroke="none" stroke-width="0.5" stroke-linecap="butt"/><path d="M615.68922,128.00001c0,-0.27614 0.22386,-0.5 0.5,-0.5c0.27614,0 0.5,0.22386 0.5,0.5c0,0.27614 -0.22386,0.5 -0.5,0.5c-0.27614,0 -0.5,-0.22386 -0.5,-0.5z" fill="#8ecad1" stroke="none" stroke-width="0.5" stroke-linecap="butt"/><path d="M616.68922,198.00002c0,-0.27614 0.22386,-0.5 0.5,-0.5c0.27614,0 0.5,0.22386 0.5,0.5c0,0.27614 -0.22386,0.5 -0.5,0.5c-0.27614,0 -0.5,-0.22386 -0.5,-0.5z" fill="#8ecad1" stroke="none" stroke-width="0.5" stroke-linecap="butt"/><path d="M611.68922,75.00002c0,-0.27614 0.22386,-0.5 0.5,-0.5c0.27614,0 0.5,0.22386 0.5,0.5c0,0.27614 -0.22386,0.5 -0.5,0.5c-0.27614,0 -0.5,-0.22386 -0.5,-0.5z" fill="#8ecad1" stroke="none" stroke-width="0.5" stroke-linecap="butt"/><path d="M572.68921,56.00002c0,-0.27614 0.22386,-0.5 0.5,-0.5c0.27614,0 0.5,0.22386 0.5,0.5c0,0.27614 -0.22386,0.5 -0.5,0.5c-0.27614,0 -0.5,-0.22386 -0.5,-0.5z" fill="#8ecad1" stroke="none" stroke-width="0.5" stroke-linecap="butt"/><path d="M86.6892,88.00002c0,-0.27614 0.22386,-0.5 0.5,-0.5c0.27614,0 0.5,0.22386 0.5,0.5c0,0.27614 -0.22386,0.5 -0.5,0.5c-0.27614,0 -0.5,-0.22386 -0.5,-0.5z" fill="#8ecad1" stroke="none" stroke-width="0.5" stroke-linecap="butt"/><path d="M45.6892,126.00002c0,-0.27614 0.22386,-0.5 0.5,-0.5c0.27614,0 0.5,0.22386 0.5,0.5c0,0.27614 -0.22386,0.5 -0.5,0.5c-0.27614,0 -0.5,-0.22386 -0.5,-0.5z" fill="#8ecad1" stroke="none" stroke-width="0.5" stroke-linecap="butt"/><path d="M79.6892,154.00001c0,-0.27614 0.22386,-0.5 0.5,-0.5c0.27614,0 0.5,0.22386 0.5,0.5c0,0.27614 -0.22386,0.5 -0.5,0.5c-0.27614,0 -0.5,-0.22386 -0.5,-0.5z" fill="#8ecad1" stroke="none" stroke-width="0.5" stroke-linecap="butt"/><path d="M68.6892,213.00002c0,-0.27614 0.22386,-0.5 0.5,-0.5c0.27614,0 0.5,0.22386 0.5,0.5c0,0.27614 -0.22386,0.5 -0.5,0.5c-0.27614,0 -0.5,-0.22386 -0.5,-0.5z" fill="#8ecad1" stroke="none" stroke-width="0.5" stroke-linecap="butt"/><path d="M1.6892,243.00002c0,-0.27614 0.22386,-0.5 0.5,-0.5c0.27614,0 0.5,0.22386 0.5,0.5c0,0.27614 -0.22386,0.5 -0.5,0.5c-0.27614,0 -0.5,-0.22386 -0.5,-0.5z" fill="#8ecad1" stroke="none" stroke-width="0.5" stroke-linecap="butt"/><path d="M38.6892,170.00002c0,-0.27614 0.22386,-0.5 0.5,-0.5c0.27614,0 0.5,0.22386 0.5,0.5c0,0.27614 -0.22386,0.5 -0.5,0.5c-0.27614,0 -0.5,-0.22386 -0.5,-0.5z" fill="#8ecad1" stroke="none" stroke-width="0.5" stroke-linecap="butt"/><path d="M11.6892,83.00002c0,-0.27614 0.22386,-0.5 0.5,-0.5c0.27614,0 0.5,0.22386 0.5,0.5c0,0.27614 -0.22386,0.5 -0.5,0.5c-0.27614,0 -0.5,-0.22386 -0.5,-0.5z" fill="#8ecad1" stroke="none" stroke-width="0.5" stroke-linecap="butt"/><path d="M13.6892,27.00002c0,-0.27614 0.22386,-0.5 0.5,-0.5c0.27614,0 0.5,0.22386 0.5,0.5c0,0.27614 -0.22386,0.5 -0.5,0.5c-0.27614,0 -0.5,-0.22386 -0.5,-0.5z" fill="#8ecad1" stroke="none" stroke-width="0.5" stroke-linecap="butt"/><path d="M58.6892,16.00002c0,0.5 -0.5,0.5 -0.5,0.5h-1c0,0 -0.5,0 -0.5,-0.5c0,-0.5 0.5,-0.5 0.5,-0.5h1c0,0 0.5,0 0.5,0.5z" fill="#8ecad1" stroke="none" stroke-width="0.5" stroke-linecap="butt"/><path d="M575.68921,15.00002c0,-0.27614 0.22386,-0.5 0.5,-0.5c0.27614,0 0.5,0.22386 0.5,0.5c0,0.27614 -0.22386,0.5 -0.5,0.5c-0.27614,0 -0.5,-0.22386 -0.5,-0.5z" fill="#8ecad1" stroke="none" stroke-width="0.5" stroke-linecap="butt"/><path d="M632.68922,22.00002c0,-0.27614 0.22386,-0.5 0.5,-0.5c0.27614,0 0.5,0.22386 0.5,0.5c0,0.27614 -0.22386,0.5 -0.5,0.5c-0.27614,0 -0.5,-0.22386 -0.5,-0.5z" fill="#8ecad1" stroke="none" stroke-width="0.5" stroke-linecap="butt"/></g></g></svg>