<svg version="1.1" xmlns="http://www.w3.org/2000/svg" xmlns:xlink="http://www.w3.org/1999/xlink" width="134.2" height="542.59094" viewBox="0,0,134.2,542.59094"><defs><linearGradient x1="227.60239" y1="-7805.73052" x2="227.60239" y2="19900.1973" gradientUnits="userSpaceOnUse" id="color-1"><stop offset="0" stop-color="#519dff"/><stop offset="1" stop-color="#519dff" stop-opacity="0"/></linearGradient></defs><g transform="translate(-172.9,216.09092)"><g data-paper-data="{&quot;isPaintingLayer&quot;:true}" fill-rule="nonzero" stroke-linejoin="miter" stroke-miterlimit="10" stroke-dasharray="" stroke-dashoffset="0" style="mix-blend-mode: normal"><path d="M185.12013,-214.3052l110.23071,-0.28187l-0.02906,520.41557c0,0 -109.19116,-0.41508 -110.06518,1.5387z" data-paper-data="{&quot;origPos&quot;:null}" fill="url(#color-1)" stroke="#55b2f0" stroke-width="3" stroke-linecap="butt"/><path d="M281.8514,-61.40563v-42.36335" data-paper-data="{&quot;origPos&quot;:null}" fill="none" stroke="#8bdfff" stroke-width="3" stroke-linecap="round"/><path d="M284.64026,28.01759l-0.9151,-64.5212" data-paper-data="{&quot;origPos&quot;:null}" fill="none" stroke="#8bdfff" stroke-width="3" stroke-linecap="round"/><path d="M264.05065,-70.93233v46.29757" data-paper-data="{&quot;origPos&quot;:null}" fill="none" stroke="#8bdfff" stroke-width="3" stroke-linecap="round"/><path d="M245.24767,59.86134l-2.81066,-105.3652" data-paper-data="{&quot;origPos&quot;:null}" fill="none" stroke="#8bdfff" stroke-width="3" stroke-linecap="round"/><path d="M268.73505,180.65086l-0.93688,-38.01838" data-paper-data="{&quot;origPos&quot;:null}" fill="none" stroke="#8bdfff" stroke-width="3" stroke-linecap="round"/><path d="M261.43604,109.74011v-42.36335" data-paper-data="{&quot;origPos&quot;:null}" fill="none" stroke="#8bdfff" stroke-width="3" stroke-linecap="round"/><path d="M242.43925,302.04661l-1.81064,-22.36522" data-paper-data="{&quot;origPos&quot;:null}" fill="none" stroke="#8bdfff" stroke-width="3" stroke-linecap="round"/><path d="M205.94222,300.45939v-45.90719" data-paper-data="{&quot;origPos&quot;:null}" fill="none" stroke="#8bdfff" stroke-width="3" stroke-linecap="round"/><path d="M226.51003,143.32723l0.9369,-94.50283" data-paper-data="{&quot;origPos&quot;:null}" fill="none" stroke="#8bdfff" stroke-width="3" stroke-linecap="round"/><path d="M205.0271,225.13294l-0.93686,-121.65882" data-paper-data="{&quot;origPos&quot;:null}" fill="none" stroke="#8bdfff" stroke-width="3" stroke-linecap="round"/><path d="M226.61896,181.29188l0.9151,80.38169" data-paper-data="{&quot;origPos&quot;:null}" fill="none" stroke="#8bdfff" stroke-width="3" stroke-linecap="round"/><path d="M244.37613,116.6875v87.98539" data-paper-data="{&quot;origPos&quot;:null}" fill="none" stroke="#8bdfff" stroke-width="3" stroke-linecap="round"/><path d="M288.2353,223.56694l0.06312,76.76154" data-paper-data="{&quot;origPos&quot;:null}" fill="none" stroke="#8bdfff" stroke-width="3" stroke-linecap="round"/><path d="M283.72516,194.71825v-145.55606" data-paper-data="{&quot;origPos&quot;:null}" fill="none" stroke="#8bdfff" stroke-width="3" stroke-linecap="round"/><path d="M263.65859,203.51565l0.9151,80.38169" data-paper-data="{&quot;origPos&quot;:null}" fill="none" stroke="#8bdfff" stroke-width="3" stroke-linecap="round"/><path d="M204.11202,-3.33596l-0.9369,-106.45144" data-paper-data="{&quot;origPos&quot;:null}" fill="none" stroke="#8bdfff" stroke-width="3" stroke-linecap="round"/><path d="M220.9541,-65.57973l0.9151,94.50281" data-paper-data="{&quot;origPos&quot;:null}" fill="none" stroke="#8bdfff" stroke-width="3" stroke-linecap="round"/><path d="M194.76472,78.2564v-42.36335" data-paper-data="{&quot;origPos&quot;:null}" fill="none" stroke="#8bdfff" stroke-width="3" stroke-linecap="round"/><g data-paper-data="{&quot;origPos&quot;:null,&quot;index&quot;:null}" fill="#8bdfff" stroke="none" stroke-linecap="butt"><path d="M267.5,302.49617c0,-11.40716 8.86476,-20.65449 19.8,-20.65449c10.93524,0 19.8,9.24732 19.8,20.65449c0,11.40716 -8.86476,20.65449 -19.8,20.65449c-10.93524,0 -19.8,-9.24732 -19.8,-20.65449z" data-paper-data="{&quot;origPos&quot;:null}" stroke-width="3"/><path d="M189.95,322.03418c-9.41645,0 -17.05,-7.49783 -17.05,-16.74688c0,-9.24905 7.63355,-16.74688 17.05,-16.74688c9.41645,0 17.05,7.49783 17.05,16.74688c0,9.24905 -7.63355,16.74688 -17.05,16.74688z" data-paper-data="{&quot;origPos&quot;:null}" stroke-width="0"/><path d="M245.5,306.96197c0,-7.09093 6.40233,-12.83928 14.3,-12.83928c7.89767,0 14.3,5.74834 14.3,12.83928c0,7.09093 -6.40233,12.83928 -14.3,12.83928c-7.89767,0 -14.3,-5.74834 -14.3,-12.83928z" data-paper-data="{&quot;origPos&quot;:null}" stroke-width="0"/><path d="M215.25,307.5202c-6.37889,0 -11.55,-5.24848 -11.55,-11.72282c0,-6.47433 5.17111,-11.72282 11.55,-11.72282c6.37889,0 11.55,5.24848 11.55,11.72282c0,6.47433 -5.17111,11.72282 -11.55,11.72282z" data-paper-data="{&quot;origPos&quot;:null}" stroke-width="0"/><path d="M220.2,308.63667c0,-9.24905 7.3873,-16.74688 16.5,-16.74688c9.1127,0 16.5,7.49783 16.5,16.74688c0,9.24905 -7.3873,16.74688 -16.5,16.74688c-9.1127,0 -16.5,-7.49783 -16.5,-16.74688z" data-paper-data="{&quot;origPos&quot;:null}" stroke-width="0"/><path d="M211.4,326.50002c-7.89767,0 -14.3,-6.24819 -14.3,-13.95574c0,-7.70754 6.40233,-13.95574 14.3,-13.95574c7.89767,0 14.3,6.24819 14.3,13.95574c0,7.70754 -6.40233,13.95574 -14.3,13.95574z" data-paper-data="{&quot;origPos&quot;:null}" stroke-width="0"/><path d="M233.4,299.14679c0,-7.09093 5.6636,-12.83928 12.65,-12.83928c6.9864,0 12.65,5.74834 12.65,12.83928c0,7.09093 -5.6636,12.83928 -12.65,12.83928c-6.9864,0 -12.65,-5.74834 -12.65,-12.83928z" data-paper-data="{&quot;origPos&quot;:null}" stroke-width="0"/></g></g></g></svg>