<svg version="1.1" xmlns="http://www.w3.org/2000/svg" xmlns:xlink="http://www.w3.org/1999/xlink" width="79.6524" height="57.35999" viewBox="0,0,79.6524,57.35999"><defs><linearGradient x1="239.97458" y1="163.80509" x2="239.97458" y2="167.44171" gradientUnits="userSpaceOnUse" id="color-1"><stop offset="0" stop-color="#f69635"/><stop offset="1" stop-color="#ff0000"/></linearGradient><linearGradient x1="240.02544" y1="153.85454" x2="240.02544" y2="156.68301" gradientUnits="userSpaceOnUse" id="color-2"><stop offset="0" stop-color="#ffffff"/><stop offset="1" stop-color="#ff0000"/></linearGradient><linearGradient x1="257.68112" y1="203.77284" x2="245.57254" y2="203.77284" gradientUnits="userSpaceOnUse" id="color-3"><stop offset="0" stop-color="#be6d2f"/><stop offset="1" stop-color="#8e4108"/></linearGradient><linearGradient x1="241.67666" y1="204.16539" x2="229.07893" y2="204.16539" gradientUnits="userSpaceOnUse" id="color-4"><stop offset="0" stop-color="#be6d2f"/><stop offset="1" stop-color="#8e4108"/></linearGradient><linearGradient x1="241.84382" y1="179.26214" x2="241.84382" y2="195.90186" gradientUnits="userSpaceOnUse" id="color-5"><stop offset="0" stop-color="#0052ef"/><stop offset="1" stop-color="#004bd6"/></linearGradient><linearGradient x1="242.61443" y1="156.51845" x2="245.96729" y2="161.14752" gradientUnits="userSpaceOnUse" id="color-6"><stop offset="0" stop-color="#bc041a"/><stop offset="1" stop-color="#880010"/></linearGradient><linearGradient x1="236.73134" y1="158.83415" x2="242.30419" y2="166.52821" gradientUnits="userSpaceOnUse" id="color-7"><stop offset="0" stop-color="#bc041a"/><stop offset="1" stop-color="#a90216"/></linearGradient></defs><g transform="translate(-200.17381,-152.05027)"><g data-paper-data="{&quot;isPaintingLayer&quot;:true}" fill-rule="nonzero" stroke-linejoin="miter" stroke-miterlimit="10" stroke-dasharray="" stroke-dashoffset="0" style="mix-blend-mode: normal"><g data-paper-data="{&quot;origPos&quot;:null,&quot;index&quot;:null,&quot;origRot&quot;:0}" stroke="none" stroke-width="0" stroke-linecap="butt"><path d="M248.45315,181.42486c-1.10287,-1.36649 0.2724,-4.58222 2.77469,-6.60176c2.50229,-2.01954 5.18249,-3.56556 5.18249,-3.56556l3.35667,4.06277c0,0 -3.52652,3.63695 -5.53914,5.26129c-2.50228,2.01955 -4.67185,2.20975 -5.77472,0.84326z" data-paper-data="{&quot;origRot&quot;:0,&quot;origPos&quot;:null}" fill="#ff0021"/><g data-paper-data="{&quot;origPos&quot;:null}" fill="#ffffff"><path d="M266.10535,173.97977c-2.88223,1.8561 -4.50537,0.79571 -6.56185,-1.52605c-2.05649,-2.32176 -4.47206,-5.30848 -1.90222,-7.32949c1.86431,-1.46618 6.51613,-1.2109 8.00407,1.51044c1.62368,2.9696 3.54677,5.35728 0.45999,7.34509z" data-paper-data="{&quot;origRot&quot;:0,&quot;origPos&quot;:null}"/><path d="M261.73461,176.37614c-1.01665,0.84351 -2.81943,-0.73107 -4.4048,-2.52568c-1.58536,-1.79462 -3.7442,-3.53296 -2.27044,-4.63937c1.64868,-1.23774 1.9693,-0.68945 4.48756,2.30724c2.86877,3.41378 3.92873,3.41325 2.18769,4.8578z" data-paper-data="{&quot;origRot&quot;:0,&quot;origPos&quot;:null}"/></g></g><path d="M274.81206,163.95626c1.14794,-0.50147 1.9502,-1.64687 1.9502,-2.97966c0,-1.79493 -1.45507,-3.25 -3.25,-3.25c-1.79493,0 -3.25,1.45507 -3.25,3.25c0,1.33279 0.80226,2.4782 1.9502,2.97966h-10.3306c1.14795,-0.50147 1.9502,-1.64687 1.9502,-2.97966c0,-1.79493 -1.45507,-3.25 -3.25,-3.25c-1.79493,0 -3.25,1.45507 -3.25,3.25c0,1.33279 0.80226,2.4782 1.9502,2.97966h-10.9093c0.98607,-0.55806 1.65159,-1.61652 1.65159,-2.83042c0,-1.79493 -1.45507,-3.25 -3.25,-3.25c-1.79493,0 -3.25,1.45507 -3.25,3.25c0,1.2139 0.66552,2.27236 1.65159,2.83042h-10.40317c0.98607,-0.55806 1.65159,-1.61652 1.65159,-2.83042c0,-1.79493 -1.45507,-3.25 -3.25,-3.25c-1.79493,0 -3.25,1.45507 -3.25,3.25c0,1.2139 0.66552,2.27236 1.65159,2.83042h-9.80317c0.98607,-0.55806 1.65159,-1.61652 1.65159,-2.83042c0,-1.79493 -1.45507,-3.25 -3.25,-3.25c-1.79493,0 -3.25,1.45507 -3.25,3.25c0,1.2139 0.66552,2.27236 1.65159,2.83042h-8.69243c0.81257,-0.59079 1.34084,-1.54891 1.34084,-2.63042c0,-1.79493 -1.45507,-3.25 -3.25,-3.25c-1.79493,0 -3.25,1.45507 -3.25,3.25c0,1.08151 0.52827,2.03963 1.34084,2.63042h-5.84077v-7.47527h79.60157v7.47527z" data-paper-data="{&quot;origPos&quot;:null,&quot;index&quot;:null}" fill="#f69635" stroke="none" stroke-width="NaN" stroke-linecap="butt"/><path d="M200.17381,167.44171v-3.63662h5.69929c0.56661,0.48077 1.30019,0.77076 2.10149,0.77076c0.8013,0 1.53487,-0.29 2.10149,-0.77076h8.25836c0.52318,0.36002 1.15705,0.57076 1.84014,0.57076c0.68309,0 1.31696,-0.21075 1.84014,-0.57076h9.31972c0.52318,0.36002 1.15705,0.57076 1.84014,0.57076c0.68309,0 1.31696,-0.21075 1.84014,-0.57076h9.91972c0.52318,0.36002 1.15705,0.57076 1.84014,0.57076c0.68309,0 1.31696,-0.21075 1.84014,-0.57076h10.36554c0.47276,0.26831 1.0194,0.42151 1.60183,0.42151c0.58242,0 1.12907,-0.1532 1.60183,-0.42151h9.72654c0.47276,0.26831 1.0194,0.42151 1.60183,0.42151c0.58242,0 1.12906,-0.1532 1.60182,-0.42151h4.66124v3.63662z" data-paper-data="{&quot;origPos&quot;:null,&quot;index&quot;:null}" fill="url(#color-1)" stroke="none" stroke-width="NaN" stroke-linecap="butt"/><path d="M200.22464,156.68301v-2.82849h79.60157v2.82849z" data-paper-data="{&quot;origPos&quot;:null,&quot;index&quot;:null}" fill="url(#color-2)" stroke="none" stroke-width="NaN" stroke-linecap="butt"/><path d="M269.06753,161.78474c0,-1.37013 0.85242,-2.54116 2.05585,-3.01171c-0.53454,0.5792 -0.86109,1.35325 -0.86109,2.20356c0,1.79493 1.45507,3.25 3.25,3.25c0.3906,0 0.76511,-0.0689 1.11202,-0.19522c-0.58776,0.60792 -1.41186,0.98591 -2.32423,0.98591c-1.78529,0 -3.23255,-1.44726 -3.23255,-3.23255z" data-paper-data="{&quot;origPos&quot;:null,&quot;index&quot;:null}" fill="#ff0000" stroke="none" stroke-width="0" stroke-linecap="butt"/><path d="M258.23936,158.724c-0.56185,0.58419 -0.90728,1.37805 -0.90728,2.25259c0,1.79493 1.45507,3.25 3.25,3.25c0.39095,0 0.76577,-0.06903 1.11295,-0.19556c-0.58404,0.57827 -1.38747,0.93539 -2.2743,0.93539c-1.78529,0 -3.23255,-1.44726 -3.23255,-3.23255c0,-1.36835 0.85021,-2.53813 2.05118,-3.00987z" data-paper-data="{&quot;origPos&quot;:null,&quot;index&quot;:null}" fill="#ff0000" stroke="none" stroke-width="0" stroke-linecap="butt"/><path d="M242.44986,161.73387c0,-1.42193 0.91809,-2.62943 2.19384,-3.06205c-0.68563,0.59586 -1.11912,1.47431 -1.11912,2.45401c0,1.79493 1.45507,3.25 3.25,3.25c0.33408,0 0.65639,-0.05041 0.95974,-0.14404c-0.55815,0.45903 -1.27285,0.73463 -2.05192,0.73463c-1.78529,0 -3.23255,-1.44726 -3.23255,-3.23255z" data-paper-data="{&quot;origPos&quot;:null,&quot;index&quot;:null}" fill="#ff0000" stroke="none" stroke-width="0" stroke-linecap="butt"/><path d="M230.69938,159.01959c-0.48318,0.56727 -0.7748,1.30271 -0.7748,2.10626c0,1.79493 1.45507,3.25 3.25,3.25c0.5112,0 0.99483,-0.11803 1.42514,-0.32832c-0.59169,0.65701 -1.44899,1.07008 -2.40277,1.07008c-1.78529,0 -3.23255,-1.44726 -3.23255,-3.23255c0,-1.24487 0.70368,-2.32538 1.73498,-2.86547z" data-paper-data="{&quot;origPos&quot;:null,&quot;index&quot;:null}" fill="#ff0000" stroke="none" stroke-width="0" stroke-linecap="butt"/><path d="M216.0342,161.88505c0,-1.19236 0.64558,-2.23394 1.60626,-2.79427c-0.44787,0.55698 -0.71588,1.26472 -0.71588,2.03506c0,1.79493 1.45507,3.25 3.25,3.25c0.56234,0 1.09133,-0.14282 1.55266,-0.39417c-0.59291,0.69515 -1.47522,1.13594 -2.46049,1.13594c-1.78529,0 -3.23255,-1.44726 -3.23255,-3.23255z" data-paper-data="{&quot;origPos&quot;:null,&quot;index&quot;:null}" fill="#ff0000" stroke="none" stroke-width="0" stroke-linecap="butt"/><path d="M203.15485,161.83419c0,-1.71992 1.34322,-3.12611 3.03786,-3.22678c-0.88427,0.58079 -1.46814,1.58143 -1.46814,2.71843c0,1.79493 1.45507,3.25 3.25,3.25c0.04363,0 0.08705,-0.00086 0.13026,-0.00256c-0.49759,0.31265 -1.08639,0.49347 -1.71743,0.49347c-1.78529,0 -3.23255,-1.44726 -3.23255,-3.23255z" data-paper-data="{&quot;origPos&quot;:null,&quot;index&quot;:null}" fill="#ff0000" stroke="none" stroke-width="0" stroke-linecap="butt"/><g data-paper-data="{&quot;origPos&quot;:null,&quot;index&quot;:null,&quot;origRot&quot;:0}" stroke="none" stroke-width="0" stroke-linecap="butt"><path d="M252.26118,198.05719c0.7912,1.28545 2.57127,0.99168 2.6861,1.31462c0.46459,1.30657 0.35281,2.46543 -1.33593,4.11496c-2.09189,2.04332 -4.12361,2.9326 -7.04616,2.83357c-1.99052,-0.06745 -1.07863,-1.55327 -1.40184,-3.51852c-0.11598,-0.70519 -0.38448,-1.56417 -1.09194,-3.21484c-0.88452,-2.06377 -1.76885,-6.21719 -1.76885,-6.21719c0,0 1.42063,-1.07553 2.93645,-1.92752c1.50811,-0.82682 3.34897,-1.02286 3.34897,-1.02286c0,0 1.84418,4.66634 3.67318,7.63781z" data-paper-data="{&quot;origPos&quot;:null}" fill="#004bd6"/><path d="M257.83814,203.37415c0.61404,1.13204 -0.24859,2.29025 -1.17716,3.18261c-0.60854,0.58481 -4.13277,2.36504 -6.4012,2.29053c-0.70425,-0.02314 -1.52375,-0.49833 -1.52375,-0.49833c0,0 -1.34293,1.01388 -1.56818,0.5886c-0.17882,-0.3376 -0.49743,-0.90481 -0.26658,-1.25557c0.99367,-1.50982 4.31211,-3.30752 5.9009,-4.16932c2.18104,-1.18306 4.43572,-1.24508 5.03594,-0.13852z" data-paper-data="{&quot;origPos&quot;:null}" fill="#f9c869"/><path d="M257.61401,201.6553c0.32194,1.5403 -0.49049,3.2068 -2.9562,4.54426c-2.46571,1.33747 -5.87912,1.3381 -5.87912,1.3381c0,0 -1.7341,1.06225 -2.01864,0.62386c-0.58893,-0.90737 -1.44494,-2.44478 -1.11359,-2.68996c1.22324,-0.90515 1.07042,-0.59016 2.60154,-1.89995c0.99133,-0.84802 2.28515,-2.93287 3.43188,-3.55488c2.4657,-1.33746 5.40403,-0.89755 5.93411,1.63858z" data-paper-data="{&quot;origPos&quot;:null}" fill="url(#color-3)"/></g><g data-paper-data="{&quot;origPos&quot;:null,&quot;index&quot;:null,&quot;origRot&quot;:0}" stroke="none" stroke-width="0" stroke-linecap="butt"><path d="M240.38519,200.55369c-0.48943,1.42788 0.86885,2.61534 0.69254,2.90925c-0.71334,1.18918 -1.67899,1.83951 -4.02584,1.58435c-2.9071,-0.31606 -4.88506,-1.31926 -6.66631,-3.63836c-1.2132,-1.57952 0.51347,-1.82001 1.82516,-3.31873c0.47067,-0.53778 0.96312,-1.29106 1.78771,-2.88645c1.03096,-1.99466 3.93584,-5.30096 3.93584,-5.30096c0,0 2.32914,0.92178 3.74981,1.82556c1.12117,0.71324 2.76334,2.31788 2.76334,2.31788c0,0 -2.93092,3.2067 -4.06226,6.50746z" data-paper-data="{&quot;origPos&quot;:null}" fill="#004bd6"/><path d="M239.82559,208.23864c-0.48359,1.19361 -1.92604,1.26389 -3.20516,1.11427c-0.83826,-0.09805 -4.45273,-1.68709 -5.83713,-3.48564c-0.42979,-0.55838 -0.58386,-1.49307 -0.58386,-1.49307c0,0 -1.63632,-0.39224 -1.45119,-0.83646c0.14695,-0.35264 0.3823,-0.95914 0.79982,-1.00389c1.79718,-0.19261 5.29431,1.22648 6.96951,1.90519c2.29967,0.93173 3.78071,2.63288 3.308,3.79962z" data-paper-data="{&quot;origPos&quot;:null}" fill="#f9c869"/><path d="M241.01002,206.97308c-0.98444,1.22762 -2.78736,1.65974 -5.38717,0.60641c-2.5998,-1.05334 -4.77001,-3.68802 -4.77001,-3.68802c0,0 -1.92229,-0.66348 -1.76473,-1.16181c0.32613,-1.0314 0.96886,-2.66948 1.36875,-2.56953c1.47631,0.36897 1.136,0.45122 3.12038,0.80065c1.28479,0.22624 3.71667,-0.10017 4.92576,0.3897c2.59981,1.05332 4.12794,3.6013 2.50703,5.62258z" data-paper-data="{&quot;origPos&quot;:null}" fill="url(#color-4)"/></g><g data-paper-data="{&quot;origPos&quot;:null,&quot;index&quot;:null}"><path d="M243.65934,179.45067c5.01723,0 7.30596,0.60955 7.43277,7.4658c0.12937,6.99457 -4.33154,8.98539 -9.34877,8.98539c-5.01722,0 -9.15056,-3.31599 -9.15056,-6.67297c0,-3.64177 0.43557,-6.54079 3.24444,-8.8587c2.0927,-1.72691 5.10891,-0.91952 7.82213,-0.91952z" data-paper-data="{&quot;origPos&quot;:null}" fill="url(#color-5)" stroke="none" stroke-width="0" stroke-linecap="butt"/><path d="M248.88609,180.18144c2.95986,2.39793 2.20603,6.53682 2.20603,6.53682c0,0 -5.69642,0.66069 -9.71215,0.79283c-3.68338,0.1212 -7.39973,-1.12317 -7.39973,-1.12317c0,0 -0.32587,-4.55732 2.30734,-6.32942c1.72283,-1.15942 3.66035,-1.53912 6.1495,-1.59886c2.48915,-0.05974 5.19596,0.70665 6.44902,1.72181z" data-paper-data="{&quot;origPos&quot;:null}" fill="#ff0021" stroke="none" stroke-width="0" stroke-linecap="butt"/><path d="M246.50291,179.74512c0,0 0.70704,2.25965 0.84967,3.61833c0.1832,1.74512 -0.19159,5.02404 -0.19159,5.02404" data-paper-data="{&quot;origPos&quot;:null,&quot;origRot&quot;:0}" fill="none" stroke="#0052ef" stroke-width="3.5" stroke-linecap="round"/><path d="M239.39789,179.91315c0,0 0.40958,2.33199 0.37572,3.69772c-0.04349,1.75417 -0.8382,4.95733 -0.8382,4.95733" data-paper-data="{&quot;origPos&quot;:null}" fill="none" stroke="#0052ef" stroke-width="3.5" stroke-linecap="round"/><path d="M237.81223,187.94054c0,-0.74803 0.6064,-1.35442 1.35442,-1.35442c0.74803,0 1.35442,0.6064 1.35442,1.35442c0,0.74803 -0.6064,1.35442 -1.35442,1.35442c-0.74803,0 -1.35442,-0.6064 -1.35442,-1.35442z" data-paper-data="{&quot;origPos&quot;:null}" fill="#ffe84f" stroke="none" stroke-width="0" stroke-linecap="butt"/><path d="M246.00481,187.94054c0,-0.74803 0.6064,-1.35442 1.35442,-1.35442c0.74803,0 1.35442,0.6064 1.35442,1.35442c0,0.74803 -0.6064,1.35442 -1.35442,1.35442c-0.74803,0 -1.35442,-0.6064 -1.35442,-1.35442z" data-paper-data="{&quot;origPos&quot;:null}" fill="#ffe84f" stroke="none" stroke-width="0" stroke-linecap="butt"/></g><g data-paper-data="{&quot;origPos&quot;:null,&quot;origRot&quot;:0,&quot;index&quot;:null}"><path d="M244.61144,155.28478c1.55039,-1.79489 1.69694,-0.85546 2.23139,-0.23335c0.82566,0.9611 -0.41756,4.82953 -2.3416,7.05699c-1.55038,1.79489 -2.85478,-0.10868 -3.76603,-0.8958c-0.91125,-0.78712 2.32585,-4.13295 3.87623,-5.92784z" data-paper-data="{&quot;origPos&quot;:null}" fill="url(#color-6)" stroke="none" stroke-width="0" stroke-linecap="butt"/><path d="M241.25523,182.19583c0,0 -0.07451,0.67783 -0.82313,0.85317c-0.74862,0.17534 -1.83406,-0.16674 -1.62314,-1.17442c0.25228,-1.20528 -1.44979,-2.30629 -0.70117,-2.48163c0,0 1.8173,-1.58757 2.66125,-1.10225c0,0 2.74786,1.04184 2.81206,1.643c0,0 -0.05431,0.73087 -1.11231,1.84479c-0.57323,0.60353 -1.21356,0.41732 -1.21356,0.41732z" data-paper-data="{&quot;origRot&quot;:0,&quot;origPos&quot;:null}" fill="#5a2c0a" stroke="none" stroke-width="0" stroke-linecap="butt"/><path d="M232.63973,172.64834c1.18334,-0.861 7.50022,-9.77879 8.83183,-11.15768c1.9701,-2.04004 3.39263,0.22317 5.66419,1.92115c2.6118,1.9523 5.21566,1.20381 6.78305,4.06323c0.60431,1.10246 0.42488,2.25325 0.36811,3.5092c-0.03221,0.71249 -0.7298,2.17599 -3.00394,4.92092c-3.21463,3.88012 -4.76562,4.42787 -7.32123,4.96489c-1.62275,0.34099 -2.32733,-1.02793 -4.21471,-1.27216c-0.57855,-0.07487 -1.02428,0.04393 -1.06629,0.09256c-2.23939,2.59257 -5.61205,2.16795 -7.63706,0.41879c-2.025,-1.74914 -2.8674,-4.09235 -1.61517,-5.54207c1.25224,-1.44972 2.79978,-1.61944 3.21123,-1.91881z" data-paper-data="{&quot;origPos&quot;:null}" fill="#ffdebd" stroke="none" stroke-width="0" stroke-linecap="butt"/><path d="M244.34602,161.727c1.29827,0.96761 1.86463,2.40425 1.26498,3.20882c-0.59965,0.80457 -2.13822,0.67238 -3.43649,-0.29522c-1.29827,-0.96761 -1.86463,-2.40425 -1.26498,-3.20882c0.59965,-0.80457 2.13823,-0.67238 3.4365,0.29522z" data-paper-data="{&quot;origPos&quot;:null,&quot;origRot&quot;:0}" fill="#ffffff" stroke="none" stroke-width="0" stroke-linecap="butt"/><path d="M236.84352,171.73531c0.65211,0.56327 2.2663,0.62268 2.04485,1.45544c-0.25762,0.96877 -1.01837,0.92149 -1.01837,0.92149c0,0 0.51966,0.19471 -0.09847,1.2558c-0.45918,0.78823 -2.08512,-0.20468 -3.18968,-1.15876c-1.10456,-0.95408 -2.17813,-1.87411 -1.60768,-2.58597c2.40177,-2.99714 2.76479,-0.84208 3.86935,0.112z" data-paper-data="{&quot;origPos&quot;:null}" fill="#5a2c0a" stroke="none" stroke-width="0" stroke-linecap="butt"/><path d="M242.78496,166.06347c1.34031,0.90849 1.97044,2.31833 1.40742,3.14894c-0.56301,0.83061 -2.10596,0.76748 -3.44627,-0.14102c-1.34032,-0.90849 -1.97045,-2.31833 -1.40743,-3.14894c0.56302,-0.83061 2.10597,-0.76748 3.44628,0.14102z" data-paper-data="{&quot;origPos&quot;:null,&quot;origRot&quot;:0}" fill="#ffffff" stroke="none" stroke-width="0" stroke-linecap="butt"/><path d="M240.24254,166.47079c-0.14552,-0.39854 -0.13314,-0.76411 0.07244,-1.00211c0.20558,-0.238 0.56547,-0.30342 0.98093,-0.21738c0.41524,0.0863 0.8863,0.32426 1.31404,0.69373c0.42774,0.36948 0.73165,0.80094 0.87741,1.19922c0.14552,0.39854 0.13314,0.76411 -0.07244,1.00211c-0.20558,0.238 -0.56546,0.30341 -0.98092,0.21737c-0.41525,-0.0863 -0.88631,-0.32426 -1.31405,-0.69373c-0.42774,-0.36948 -0.73166,-0.80093 -0.87742,-1.19921z" data-paper-data="{&quot;origPos&quot;:null}" fill="#000000" stroke="none" stroke-width="1" stroke-linecap="butt"/><path d="M237.04053,152.74201c4.25359,2.62802 3.84227,3.5337 3.30445,6.57418c-0.78366,4.43022 -4.44121,7.9514 -5.78646,12.24458c-0.35323,1.12727 -3.02262,2.47233 -3.79482,3.36632c-1.57938,1.82846 -3.77734,1.7314 -5.39912,0.46248c-3.57728,-2.79894 -2.1303,-4.50104 -0.55092,-6.3295c0,0 2.07169,-1.72418 3.73967,-1.4971c0,0 -2.13666,-6.73357 -0.15042,-10.17053c2.55685,-4.42433 5.58299,-6.5377 8.63762,-4.65043z" data-paper-data="{&quot;origPos&quot;:null}" fill="#ff0021" stroke="none" stroke-width="0" stroke-linecap="butt"/><path d="M233.43748,156.21861c1.45498,-1.68444 3.74255,-2.09283 5.10943,-0.91214c1.36689,1.18067 2.0793,2.43474 -0.15951,5.18775c-2.36346,2.90629 -3.74254,2.09283 -5.10942,0.91214c-1.36689,-1.18068 -1.29547,-3.50332 0.15951,-5.18776z" data-paper-data="{&quot;origPos&quot;:null}" fill="#ffffff" stroke="none" stroke-width="0" stroke-linecap="butt"/><path d="M246.4042,154.49795c0.17143,0.23538 -6.87073,11.23915 -8.93682,14.23752c-1.00415,1.45725 -3.43702,4.05917 -3.60844,3.82378c-0.63371,-0.87011 -1.45552,-2.48164 -0.76903,-4.11278c0.82958,-1.97115 4.04912,-8.4173 7.5229,-12.31681c1.42006,-1.5941 5.15768,-2.50182 5.79139,-1.63171z" data-paper-data="{&quot;origPos&quot;:null}" fill="url(#color-7)" stroke="none" stroke-width="0" stroke-linecap="butt"/><path d="M235.52907,161.69203l-2.16297,-3.97578l2.43554,0.1814l-0.73924,-1.82743l3.67206,0.84396l-0.23761,1.39187l-2.23794,-1.27049l0.58092,1.68683l-1.94395,-0.11992l1.56064,2.01584z" data-paper-data="{&quot;origPos&quot;:null}" fill="#ff0021" stroke="none" stroke-width="0" stroke-linecap="butt"/><path d="M253.86698,167.70759c0.55694,0.64307 0.46067,1.4002 0.2465,1.84625c-0.65365,1.36137 -2.08498,2.93034 -3.3599,3.73973c-0.73272,0.46518 -1.14921,0.12494 -1.25854,0.13653c-0.1155,0.01226 -0.24957,1.08078 -0.95564,1.8982c-1.13297,1.31165 -2.84078,1.42031 -4.13518,0.30224c-1.41939,-1.22605 -2.10174,-2.03052 -1.95816,-2.27929c0.8362,-1.44887 2.25214,-0.87269 3.59348,-1.38271c0,0 3.812,-2.28684 5.01643,-3.8531c0,0 0.95366,-3.38376 1.64825,-4.08795c0.34448,-0.34924 1.12283,0.31884 1.41395,0.77435c0,0 1.10368,0.88692 0.94061,1.65115c-0.38557,1.80701 -1.35297,1.06851 -1.19179,1.25461z" data-paper-data="{&quot;origPos&quot;:null}" fill="#38291e" stroke="none" stroke-width="0" stroke-linecap="butt"/><path d="M251.08172,162.84634c1.54651,1.5541 3.02466,2.12049 -0.1425,5.66079c-1.45973,1.63169 -3.87145,2.33069 -5.33843,1.06355c-1.46698,-1.26715 -1.89709,-4.42915 -0.59897,-6.19213c1.89144,-2.56876 3.60572,-3.01853 6.0799,-0.53221z" data-paper-data="{&quot;origPos&quot;:null}" fill="#ffdebd" stroke="none" stroke-width="0" stroke-linecap="butt"/><g data-paper-data="{&quot;origPos&quot;:null}" fill="none" stroke="#f6b09a" stroke-width="1.5" stroke-linecap="round"><path d="M231.34206,177.58458c0,0 0.20741,-1.11439 1.75853,-1.4297c2.22457,-0.45221 3.32773,1.89442 3.32773,1.89442" data-paper-data="{&quot;origPos&quot;:null}"/><path d="M234.90237,176.85594l-1.29564,1.49997" data-paper-data="{&quot;origPos&quot;:null}"/><path d="M236.00131,178.61587l0.27764,-0.32143" data-paper-data="{&quot;origPos&quot;:null}"/></g><path d="M238.04368,166.17188c-0.19452,0.43253 -0.13187,0.45821 0.04163,0.89959c0.179,0.45535 0.28634,1.18435 0.28634,1.18435c0,0 -1.22167,-0.41865 -1.89475,-1.00004c-0.45702,-0.39476 -1.03908,-1.33115 -0.59038,-2.17356c1.97793,-2.45204 3.6082,0.1946 3.6082,0.1946c0,0 -1.25667,0.43242 -1.45105,0.89506z" data-paper-data="{&quot;origPos&quot;:null}" fill="#38291e" stroke="none" stroke-width="0" stroke-linecap="butt"/><path d="M241.06948,161.2508c-0.30517,0.39835 -0.05687,1.70395 -0.05687,1.70395c0,0 -3.10679,-0.10175 -1.95974,-3.03585c0.50864,-0.80763 1.61044,-0.76707 2.17997,-0.56623c0.8388,0.29579 1.80857,1.14859 1.80857,1.14859c0,0 -0.68617,0.26862 -1.17031,0.33922c-0.46929,0.06844 -0.52269,0.0268 -0.80164,0.41033z" data-paper-data="{&quot;origPos&quot;:null,&quot;index&quot;:null,&quot;origRot&quot;:0}" fill="#38291e" stroke="none" stroke-width="0" stroke-linecap="butt"/><path d="M242.11117,162.3629c-0.14553,-0.39853 -0.13314,-0.76411 0.07244,-1.00211c0.20558,-0.238 0.56546,-0.30341 0.98092,-0.21737c0.41525,0.08628 0.88631,0.32424 1.31405,0.69371c0.42773,0.36947 0.85828,1.08309 0.85828,1.08309c0,0 -0.30346,0.43047 -0.50904,0.66847c-0.20558,0.238 -0.28119,0.55538 -0.28119,0.55538c0,0 -0.73631,0.152 -1.55804,-0.58198c-0.08117,-0.07252 -0.71348,-0.75124 -0.87741,-1.19922z" data-paper-data="{&quot;origPos&quot;:null}" fill="#000000" stroke="none" stroke-width="1" stroke-linecap="butt"/></g><g data-paper-data="{&quot;origPos&quot;:null,&quot;index&quot;:null,&quot;origRot&quot;:0}" stroke="none" stroke-width="0" stroke-linecap="butt"><path d="M230.63502,181.1475c-1.96319,-1.68375 -5.37946,-5.42445 -5.37946,-5.42445l3.47656,-3.96067c0,0 2.63281,1.62542 5.07364,3.71882c2.44082,2.09341 3.7194,5.34879 2.57619,6.68172c-1.14321,1.33293 -3.30611,1.07799 -5.74695,-1.01542z" data-paper-data="{&quot;origRot&quot;:0,&quot;origPos&quot;:null}" fill="#ff0021"/><g data-paper-data="{&quot;origPos&quot;:null}" fill="#ffffff"><path d="M225.56458,172.86439c-2.12493,2.25927 -3.77902,3.27069 -6.60451,1.32931c-3.02601,-2.07917 -1.03243,-4.40832 0.67926,-7.32808c1.56859,-2.67567 6.22595,-2.79183 8.04563,-1.27061c2.5083,2.0969 0.00457,5.01011 -2.12037,7.26938z" data-paper-data="{&quot;origRot&quot;:0,&quot;origPos&quot;:null}"/><path d="M223.25725,176.71962c-1.6971,-1.49592 -0.63763,-1.46373 2.33186,-4.79027c2.60667,-2.9201 2.94353,-3.45857 4.55449,-2.17213c1.44004,1.14995 -0.76977,2.82301 -2.40805,4.56946c-1.63828,1.74644 -3.48732,3.26645 -4.4783,2.39294z" data-paper-data="{&quot;origRot&quot;:0,&quot;origPos&quot;:null}"/></g></g></g></g></svg>