<svg version="1.1" xmlns="http://www.w3.org/2000/svg" xmlns:xlink="http://www.w3.org/1999/xlink" width="684.54943" height="364.45991" viewBox="0,0,684.54943,364.45991"><defs><linearGradient x1="236.21429" y1="79.51881" x2="236.21429" y2="61.20095" gradientUnits="userSpaceOnUse" id="color-1"><stop offset="0" stop-color="#2c5daf" stop-opacity="0"/><stop offset="1" stop-color="#2c5daf"/></linearGradient><linearGradient x1="241.64286" y1="244.8226" x2="241.64286" y2="339.71149" gradientUnits="userSpaceOnUse" id="color-2"><stop offset="0" stop-color="#3269c8" stop-opacity="0"/><stop offset="1" stop-color="#3269c8"/></linearGradient><linearGradient x1="230.6566" y1="-2.77778" x2="230.6566" y2="351.57673" gradientUnits="userSpaceOnUse" id="color-3"><stop offset="0" stop-color="#2b5cac"/><stop offset="1" stop-color="#336aca"/></linearGradient><linearGradient x1="217.17384" y1="-0.64162" x2="217.17384" y2="59.64171" gradientUnits="userSpaceOnUse" id="color-4"><stop offset="0" stop-color="#3672d9"/><stop offset="1" stop-color="#3d85f3"/></linearGradient></defs><g transform="translate(112.26371,2.77778)"><g data-paper-data="{&quot;isPaintingLayer&quot;:true}" fill-rule="nonzero" stroke-linejoin="miter" stroke-miterlimit="10" stroke-dasharray="" stroke-dashoffset="0" style="mix-blend-mode: normal"><path d="M-96.5,61.20095h665.42857v18.31786h-665.42857z" fill="url(#color-1)" stroke="none" stroke-width="1.00627" stroke-linecap="butt"/><path d="M-89,244.8226h661.28572v94.88889h-661.28571z" fill="url(#color-2)" stroke="none" stroke-width="1.00627" stroke-linecap="butt"/><path d="M-108.69231,-2.77778h678.69781v64.60607h-678.69781z" fill="url(#color-3)" stroke="none" stroke-width="1.00627" stroke-linecap="butt"/><path d="M381.19598,-0.64162l-18.41802,60.28323h-475.04167l2.47148,-60.1323z" fill="url(#color-4)" stroke="#000000" stroke-width="0" stroke-linecap="round"/><path d="M-94.14285,339.41065h664.28571v22.27148h-664.28571z" fill="#3268c7" stroke="none" stroke-width="1.00627" stroke-linecap="butt"/><g fill="#2c6eb0" stroke-linecap="butt"><g stroke="#2c6eb0" stroke-width="7.5"><path d="M86.98468,21.79326c0,0.13428 1.42261,2.81843 4.26784,8.05252c-2.50969,8.40149 -3.93231,12.9042 -4.26784,13.50814l-9.11949,1.95273c-4.89864,-2.71103 -7.5023,-4.25441 -7.81095,-4.63022c-0.16104,-1.89231 -0.4429,-7.2137 -0.84551,-15.96417c4.63022,-3.0868 7.55598,-4.95227 8.77726,-5.59649c0,0 8.87789,2.43591 8.99869,2.67748zM79.55617,26.06111l-3.76457,3.90547c0.32209,4.05312 0.48314,6.52927 0.48314,7.42847c0.09393,0 0.9059,0.56366 2.43588,1.69103c2.02657,-0.4429 3.03981,-0.765 3.03981,-0.96632l2.31511,-7.91161c-0.61735,-1.87892 -1.14076,-2.81838 -1.57026,-2.81838z"/><path d="M103.35145,28.25549c0.67022,-0.21343 7.57478,-2.87176 8.13642,-2.5501c0.2563,0.14679 6.82885,6.13075 7.14993,7.7872c0.12252,0.63213 -4.18843,9.57969 -4.7722,10.71014c-0.40948,0.79292 -8.44307,1.04897 -9.46438,1.01553l-8.03538,0.08857c-0.28185,0 -0.81867,-4.02627 -1.6105,-12.07879c-0.17449,-0.68447 -0.66433,-4.71745 -1.4696,-12.09897c2.67849,-0.63024 9.06503,-2.75627 9.48365,-2.15066c0.3654,0.52862 0.43794,7.14857 0.58205,9.27708zM104.03592,33.89219l0.52342,4.97246h4.04642l1.4696,-5.63678c-4.02628,0.34893 -6.03939,0.5704 -6.03939,0.66432z"/><path d="M144.85126,17.09027l4.74591,0.76145c0.68827,-0.34774 -1.68829,5.89429 -1.99698,5.89429c-4.17389,-0.28185 -6.26087,-0.56366 -6.26087,-0.84551v-5.8381c0.02684,-0.18777 0.12077,-0.28166 0.28185,-0.28166zM148.94421,27.72723c-1.94603,11.27356 -3.01298,17.25928 -3.20087,17.95714c-0.41606,0.37581 -3.84509,2.09368 -10.28714,5.15364c-5.1268,-2.41577 -8.28068,-3.94575 -9.46173,-4.58994c-1.30181,-4.96575 -2.04669,-7.70362 -2.23458,-8.2136c0.18789,-0.18805 2.83183,-0.93289 7.93175,-2.23458c0,0.094 0.04698,0.14103 0.14091,0.14103c-0.09393,0.18777 -0.14091,0.32868 -0.14091,0.42276c0,0.63078 -0.18789,2.81169 -0.56366,6.54271c4.84955,-0.9677 1.93438,-0.62971 8.12319,-1.10723l-0.0505,-3.62366c0,-0.21476 -0.04028,-0.40265 -0.1208,-0.56366l0.1208,-0.28204c-0.08053,-0.16101 -0.1208,-0.3422 -0.1208,-0.54357h0.1208l-0.1208,-0.28165v-0.14103c0,-0.094 0.04028,-0.14102 0.1208,-0.14102l-0.1208,-0.28165v-0.14102c0,-0.094 0.04028,-0.14102 0.1208,-0.14102l-0.07576,-5.30684c0,0 -0.15706,-5.0186 0.02491,-4.97284c0,0 0.25541,-0.14117 0.35043,-0.11706c0.73513,0.18651 9.44396,2.46512 9.44396,2.46512z"/><path d="M171.71757,36.99243h-12.72302v0.22127l3.56324,4.40876l5.59653,-2.85863c0.55026,0.95288 1.34209,2.61706 2.3755,4.99256c-0.48314,0.16101 -4.00614,0.67772 -10.56895,1.55011c-5.43545,-3.58338 -8.17332,-5.44889 -8.2136,-5.5965c0.87235,-6.96547 1.38907,-10.44818 1.55011,-10.44818c5.67706,-2.41573 8.00056,-3.28537 9.3072,-3.82648c0,0 0.63941,-0.17684 0.78905,-0.09825c1.45446,0.76379 9.27778,4.87965 9.87405,5.35421c0,0 -1.38907,6.18033 -1.55011,6.30113zM161.85318,30.08735c-0.10736,0.26845 -0.81867,1.33539 -2.13392,3.20091c0,0.56366 0.79184,0.84551 2.3755,0.84551c0,0.08053 1.1475,0.27512 3.44247,0.58381c0.63078,-0.87235 0.94618,-1.38234 0.94618,-1.52998c-0.20129,-1.19445 -0.63749,-1.79169 -1.30855,-1.79169z"/><path d="M190.5605,33.12717h-0.12081c-0.33554,0 -1.95943,-0.52343 -4.87179,-1.57027c-1.62395,2.72443 -2.43588,4.18062 -2.43588,4.36851l4.02627,3.90547c3.11365,-2.92576 4.69731,-4.38861 4.75099,-4.38861c1.46252,1.91502 3.16731,4.34213 3.43015,5.25831c0.20601,0.71808 -5.4179,3.71415 -6.73172,4.60604c-6.38837,-1.38234 -9.8375,-2.15403 -10.34752,-2.31511l-3.16062,-10.22672c0,0 6.24316,-6.22437 7.50633,-7.25809c0.57203,-0.25784 9.95214,0.50623 9.95463,1.80421c0.00187,0.97137 -2.00003,5.73772 -2.00003,5.81626z"/><path d="M211.59774,27.40991c0.23631,-0.01263 5.35318,-0.65183 5.47661,-0.33844c0.22921,0.58198 -0.41128,6.50246 -0.75199,6.89827c-0.23465,0.27259 -5.2144,-0.09683 -5.59025,-0.11745c-0.13864,2.3272 -0.26349,10.47978 -0.49904,11.25648c-0.09695,0.3197 -7.67422,0.08314 -7.84281,-0.76755c-0.16271,-0.821 0.42644,-8.20118 0.61138,-11.19338c-3.62366,-0.20128 -5.43545,-0.44285 -5.43545,-0.72475c0.18789,-4.48258 0.42949,-6.72387 0.72475,-6.72387l5.29455,1.00656c0,0 -0.33576,-7.39502 0.33586,-7.63714c0.40498,-0.14599 8.27767,0.86265 8.4625,1.52225c0.29242,1.0435 -0.78611,6.81901 -0.78611,6.81901z"/><path d="M228.04509,24.06808c-4.16049,-0.28185 -6.24073,-0.55696 -6.24073,-0.82537c0,0 -0.06713,-6.11977 0.08051,-6.11977c0,0 7.60784,0.88672 7.97446,1.41723c0.26784,0.38758 -1.65267,5.52791 -1.81423,5.52791zM229.17249,28.65802c-1.75815,9.95831 -2.82509,15.50786 -3.20091,16.64863h-6.38163c-0.18789,0 -0.28185,-0.09389 -0.28185,-0.28165c0,0 0.47019,-16.56466 0.53676,-18.34633c0.01179,-0.31554 9.32763,1.79147 9.32763,1.97935z"/><path d="M243.74758,36.93202c1.62394,-6.1602 2.57011,-9.44159 2.83853,-9.84421c5.1268,0.4697 7.69018,0.87231 7.69018,1.20785v0.14103c-2.86153,7.85849 -5.02109,14.67233 -5.84141,15.42387c-0.51307,0.47004 -7.65409,1.41052 -7.92845,1.4462l-9.84424,-14.57509v-0.28204c0.09393,-0.17452 7.75095,-5.4255 7.90368,-5.08107c1.00931,2.27592 4.99516,11.31867 5.1817,11.56347z"/><path d="M276.40061,36.99243h-12.72302v0.22127l3.56324,4.40876l5.59653,-2.85863c0.51849,0.89787 2.55761,4.42391 2.38938,4.85802c-0.07333,0.18921 -10.02364,1.76801 -10.55565,1.52804c-0.75688,-0.34141 -8.22334,-5.37599 -8.24078,-5.43988c0.87235,-6.96547 1.38908,-10.44818 1.55012,-10.44818c2.49933,-1.06352 8.6108,-3.93982 9.99895,-3.98414c0.68201,-0.02178 9.60324,5.12065 9.97135,5.41362c0,0 -1.38908,6.18032 -1.55012,6.30112zM266.8761,29.2098c-0.10736,0.26845 -0.81867,1.33539 -2.13392,3.20091c0,0.56366 0.99759,0.88666 2.58125,0.88666c0,0.08053 0.94174,0.23397 3.23671,0.54266c0.63078,-0.87235 0.94618,-1.38234 0.94618,-1.52998c-0.20129,-1.19445 -0.63749,-1.79169 -1.30855,-1.79169z"/><path d="M300.26104,33.81319c-0.46101,0.19875 -7.55403,-3.94727 -7.55403,-3.94727h-0.26171c0,0.13428 -0.31539,0.88583 -0.94618,2.25472c3.41988,1.84252 10.04006,4.53606 10.11324,5.48473c0.02483,0.32185 -2.79876,6.15595 -3.12877,6.89495c-0.14042,0.31446 -10.81549,0.83597 -11.38291,0.70112c-0.68579,-0.16298 -7.15252,-4.4858 -7.31806,-4.56525v-0.12077c0,-0.33553 0.66433,-1.84537 1.99302,-4.52956l8.9383,4.65037l0.66432,-2.65735c-5.52942,-2.48286 -8.81754,-4.03298 -9.86438,-4.65037v-0.28165c0,-0.11181 2.67499,-6.45499 3.17795,-6.85838c0.50219,-0.40277 9.79816,-1.12951 11.41935,-1.12649c0.27306,0.00051 5.94845,3.49116 6.3513,4.19176c0.35832,0.62316 -1.81476,4.39273 -2.20144,4.55944z"/></g><g stroke="none"><path d="M78.04678,18.91964c5.87835,1.54342 8.87792,2.43591 8.99873,2.67749c0,0.13429 1.42262,2.81843 4.26785,8.05252c-2.5097,8.40149 -3.93231,12.90421 -4.26785,13.50814l-9.11949,1.95273c-4.89864,-2.71103 -7.50229,-4.25441 -7.81095,-4.63022c-0.16104,-1.89231 -0.44289,-7.2137 -0.84551,-15.96417c4.63022,-3.0868 7.55598,-4.95227 8.77726,-5.5965z" stroke-width="0.13229"/><path d="M102.74797,18.91964l0.14091,0.26179c0,0.76499 0.17449,3.72429 0.52342,8.87792c4.80467,-1.52998 7.49559,-2.33525 8.07269,-2.41577l7.24729,7.79084c-3.04656,6.83123 -4.70404,10.45489 -4.97245,10.87094c-0.84551,-0.094 -3.93231,-0.22825 -9.26044,-0.40265v0.94618c0,0.17453 -0.09396,0.26179 -0.28185,0.26179h-7.79084c-0.28185,0 -0.81867,-4.02627 -1.6105,-12.07879c-0.17449,-0.68447 -0.66432,-4.71745 -1.4696,-12.09897c4.5631,-1.07368 7.69688,-1.74471 9.40134,-2.01312zM104.09676,33.69605l0.52342,4.97245h4.04642l1.4696,-5.63678c-4.02627,0.34893 -6.03939,0.5704 -6.03939,0.66432z" stroke-width="0.26458"/><path d="M149.61374,17.83256c-0.99316,3.81155 -1.64404,5.7173 -1.95273,5.7173c-4.17388,-0.28185 -6.26087,-0.56366 -6.26087,-0.84551v-5.83811c0.02684,-0.18777 8.2136,0.96632 8.2136,0.96632zM139.44742,25.07983l9.60267,2.4963c-1.94604,11.27356 -3.01298,17.25928 -3.20087,17.95714c-0.41606,0.37581 -3.84509,2.09368 -10.28714,5.15364c-5.1268,-2.41577 -8.28068,-3.94576 -9.46173,-4.58994c-1.30181,-4.96575 -2.0467,-7.70362 -2.23458,-8.2136c0.18789,-0.18804 2.83183,-0.93289 7.93175,-2.23458c0,0.094 -0.18789,3.37547 -0.56366,7.1065c4.49602,-0.56366 7.1869,-0.93274 8.07269,-1.10722v-3.62366c0,-0.21477 -0.1208,-2.77843 -0.1208,-2.77843v-9.88452c0.02684,-0.18777 0.11407,-0.28165 0.26171,-0.28165z" stroke-width="0.26458"/><path d="M163.22257,25.01941c6.07968,3.12708 9.44833,4.95235 10.10595,5.47573c-0.87235,4.07996 -1.38907,6.18034 -1.55012,6.30114h-12.72302v0.22127l3.56324,4.40876l5.59653,-2.85863c0.55026,0.95288 1.34209,2.61707 2.37549,4.99256c-0.48314,0.16101 -4.00614,0.67773 -10.56895,1.55012c-5.43545,-3.58338 -8.17332,-5.44889 -8.2136,-5.5965c0.87235,-6.96548 1.38907,-10.44818 1.55012,-10.44818c5.67706,-2.41573 8.96515,-3.76457 9.86438,-4.04642zM161.91401,29.89121c-0.10736,0.26845 -0.81867,1.33539 -2.13392,3.20091c0,0.56366 0.79183,0.84551 2.37549,0.84551c0,0.08053 1.1475,0.27511 3.44247,0.5838c0.63078,-0.87235 0.94618,-1.38234 0.94618,-1.52998c-0.20128,-1.19445 -0.63749,-1.79169 -1.30855,-1.79169z" stroke-width="0.26458"/><path d="M183.07206,25.01941c6.05284,1.14077 9.22016,1.79169 9.50201,1.95277v0.24153c-1.30181,3.6773 -1.95273,5.5831 -1.95273,5.7173h-0.1208c-0.33553,0 -1.95943,-0.52342 -4.87179,-1.57026c-1.62395,2.72443 -2.43588,4.18062 -2.43588,4.36851l4.02627,3.90547c3.11364,-2.92576 4.6973,-4.38861 4.75099,-4.38861c2.42918,3.18076 3.64376,4.96572 3.64376,5.35493c-1.32865,0.76499 -3.64376,2.26812 -6.94533,4.50942c-6.38837,-1.38234 -9.8375,-2.15403 -10.34752,-2.31511l-3.16062,-10.22672z" stroke-width="0.26458"/><path d="M203.6463,18.91964l8.85779,1.57026l-0.84551,6.72387c1.75815,-0.094 3.04656,-0.14102 3.86523,-0.14102h1.28841l0.28185,-0.14102l0.14091,0.28204c-0.28185,4.07996 -0.52342,6.37493 -0.72475,6.88491l-0.28185,-0.16089c-0.20128,0 -2.01312,-0.09389 -5.43545,-0.28165c-0.18789,3.15392 -0.32883,6.92519 -0.42276,11.31384l-0.28185,0.14102c-4.32153,-0.28185 -6.89835,-0.52342 -7.73042,-0.72471l0.14091,-0.5637c0,-1.16761 0.18789,-4.79123 0.56366,-10.87091c-3.62366,-0.20128 -5.43545,-0.44286 -5.43545,-0.72475c0.18789,-4.48257 0.4295,-6.72387 0.72475,-6.72387l5.29454,1.00656v-1.73131c0,-1.40918 0,-5.76432 0,-5.85832z" stroke-width="0.26458"/><path d="M222.14705,16.92661l7.91161,1.24817c-0.99316,3.79811 -1.64404,5.69716 -1.95273,5.69716c-4.16049,-0.28185 -6.24072,-0.55696 -6.24072,-0.82538v-5.83811c0.04024,-0.18777 0.1342,-0.28165 0.28185,-0.28165zM219.9326,26.50914h0.1208c6.11992,1.11392 9.17991,1.76485 9.17991,1.95273c-1.75815,9.95831 -2.82509,15.50786 -3.20091,16.64863h-6.38163c-0.18789,0 -0.28185,-0.09389 -0.28185,-0.28165z" stroke-width="0.26458"/><path d="M243.80841,36.73588c1.62395,-6.1602 2.57012,-9.44159 2.83853,-9.84421c5.1268,0.4697 7.69018,0.87232 7.69018,1.20785v0.14102c-3.59682,9.87779 -5.52942,15.05153 -5.79783,15.52126c-3.9726,0.72471 -6.62994,1.17431 -7.97203,1.3488l-9.84425,-14.57509v-0.28204c0.09393,-0.17453 2.70428,-1.92594 7.83108,-5.25427c0,0 5.03956,11.45483 5.25432,11.73668z" stroke-width="0.26458"/><path d="M267.90561,25.01941c6.07968,3.12708 9.44833,4.95235 10.10595,5.47573c-0.87235,4.07996 -1.38907,6.18034 -1.55012,6.30114h-12.72302v0.22127l3.56324,4.40876l5.59653,-2.85863c0.55026,0.95288 1.34209,2.61707 2.37549,4.99256c-0.48314,0.16101 -4.00614,0.67773 -10.56895,1.55012c-5.43545,-3.58338 -8.17332,-5.44889 -8.2136,-5.5965c0.87235,-6.96548 1.38907,-10.44818 1.55012,-10.44818c5.67706,-2.41573 8.96515,-3.76457 9.86434,-4.04642zM266.0709,28.84881c-0.10736,0.26845 -2.10363,4.62905 -2.10363,4.62905l8.36642,0.59946l-1.4598,-4.59026z" stroke-width="0.26458"/><path d="M296.08951,24.99932c3.86523,2.46942 5.99915,3.89203 6.40177,4.26785c-1.39577,3.1002 -2.19431,4.65032 -2.39564,4.65032l-7.3278,-4.2477h-0.26171c0,0.13429 -0.31539,0.88583 -0.94618,2.25473c6.7507,3.63706 10.12606,5.50257 10.12606,5.5965c-1.89235,4.37521 -2.9593,6.68362 -3.20091,6.92519l-11.45475,0.66432c-4.45573,-2.9526 -6.85137,-4.50942 -7.1869,-4.67046v-0.12077c0,-0.33553 0.66432,-1.84537 1.99302,-4.52956l8.93831,4.65036l0.66432,-2.65734c-5.52942,-2.48285 -8.81754,-4.03298 -9.86438,-4.65036v-0.28165c0,-0.50998 1.06698,-2.77141 3.20091,-6.78429z" stroke-width="0.26458"/></g></g><g fill="#ffffff" stroke-linecap="butt"><g stroke="#224a8c" stroke-width="7.5"><path d="M83.51815,18.33009c0,0.13428 1.42261,2.81843 4.26784,8.05252c-2.50969,8.40149 -3.93231,12.9042 -4.26784,13.50814l-9.11949,1.95273c-4.89864,-2.71103 -7.5023,-4.25441 -7.81095,-4.63022c-0.16104,-1.89231 -0.4429,-7.2137 -0.84551,-15.96417c4.63022,-3.0868 7.55598,-4.95227 8.77726,-5.59649c0,0 8.87789,2.43591 8.99869,2.67748zM76.08964,22.59794l-3.76457,3.90547c0.32209,4.05312 0.48314,6.52927 0.48314,7.42847c0.09393,0 0.9059,0.56366 2.43588,1.69103c2.02657,-0.4429 3.03981,-0.765 3.03981,-0.96632l2.31511,-7.91161c-0.61735,-1.87892 -1.14076,-2.81838 -1.57026,-2.81838z"/><path d="M99.88492,24.79232c0.67022,-0.21343 7.57478,-2.87176 8.13642,-2.5501c0.2563,0.14679 6.82885,6.13075 7.14993,7.7872c0.12252,0.63213 -4.18843,9.57969 -4.7722,10.71014c-0.40948,0.79292 -8.44307,1.04897 -9.46438,1.01553l-8.03538,0.08857c-0.28185,0 -0.81867,-4.02627 -1.6105,-12.07879c-0.17449,-0.68447 -0.66433,-4.71745 -1.4696,-12.09897c2.67849,-0.63024 9.06503,-2.75627 9.48365,-2.15066c0.3654,0.52862 0.43794,7.14857 0.58205,9.27708zM100.56939,30.42902l0.52342,4.97246h4.04642l1.4696,-5.63678c-4.02628,0.34893 -6.03939,0.5704 -6.03939,0.66432z"/><path d="M141.38473,13.6271l4.74591,0.76145c0.68827,-0.34774 -1.68829,5.89429 -1.99698,5.89429c-4.17389,-0.28185 -6.26087,-0.56366 -6.26087,-0.84551v-5.8381c0.02684,-0.18777 0.12077,-0.28166 0.28185,-0.28166zM145.47768,24.26406c-1.94603,11.27356 -3.01298,17.25928 -3.20087,17.95714c-0.41606,0.37581 -3.84509,2.09368 -10.28714,5.15364c-5.1268,-2.41577 -8.28068,-3.94575 -9.46173,-4.58994c-1.30181,-4.96575 -2.04669,-7.70362 -2.23458,-8.2136c0.18789,-0.18805 2.83183,-0.93289 7.93175,-2.23458c0,0.094 0.04698,0.14103 0.14091,0.14103c-0.09393,0.18777 -0.14091,0.32868 -0.14091,0.42276c0,0.63078 -0.18789,2.81169 -0.56366,6.54271c4.84955,-0.9677 1.93438,-0.62971 8.12319,-1.10723l-0.0505,-3.62366c0,-0.21476 -0.04028,-0.40265 -0.1208,-0.56366l0.1208,-0.28204c-0.08053,-0.16101 -0.1208,-0.3422 -0.1208,-0.54357h0.1208l-0.1208,-0.28165v-0.14103c0,-0.094 0.04028,-0.14102 0.1208,-0.14102l-0.1208,-0.28165v-0.14102c0,-0.094 0.04028,-0.14102 0.1208,-0.14102l-0.07576,-5.30684c0,0 -0.15706,-5.0186 0.02491,-4.97284c0,0 0.25541,-0.14117 0.35043,-0.11706c0.73513,0.18651 9.44396,2.46512 9.44396,2.46512z"/><path d="M168.25104,33.52926h-12.72302v0.22127l3.56324,4.40876l5.59653,-2.85863c0.55026,0.95288 1.34209,2.61706 2.3755,4.99256c-0.48314,0.16101 -4.00614,0.67772 -10.56895,1.55011c-5.43545,-3.58338 -8.17332,-5.44889 -8.2136,-5.5965c0.87235,-6.96547 1.38907,-10.44818 1.55011,-10.44818c5.67706,-2.41573 8.00056,-3.28537 9.3072,-3.82648c0,0 0.63941,-0.17684 0.78905,-0.09825c1.45446,0.76379 9.27778,4.87965 9.87405,5.35421c0,0 -1.38907,6.18033 -1.55011,6.30113zM158.38665,26.62418c-0.10736,0.26845 -0.81867,1.33539 -2.13392,3.20091c0,0.56366 0.79184,0.84551 2.3755,0.84551c0,0.08053 1.1475,0.27512 3.44247,0.58381c0.63078,-0.87235 0.94618,-1.38234 0.94618,-1.52998c-0.20129,-1.19445 -0.63749,-1.79169 -1.30855,-1.79169z"/><path d="M187.09397,29.664h-0.12081c-0.33554,0 -1.95943,-0.52343 -4.87179,-1.57027c-1.62395,2.72443 -2.43588,4.18062 -2.43588,4.36851l4.02627,3.90547c3.11365,-2.92576 4.69731,-4.38861 4.75099,-4.38861c1.46252,1.91502 3.16731,4.34213 3.43015,5.25831c0.20601,0.71808 -5.4179,3.71415 -6.73172,4.60604c-6.38837,-1.38234 -9.8375,-2.15403 -10.34752,-2.31511l-3.16062,-10.22672c0,0 6.24316,-6.22437 7.50633,-7.25809c0.57203,-0.25784 9.95214,0.50623 9.95463,1.80421c0.00187,0.97137 -2.00003,5.73772 -2.00003,5.81626z"/><path d="M208.13121,23.94674c0.23631,-0.01263 5.35318,-0.65183 5.47661,-0.33844c0.22921,0.58198 -0.41128,6.50246 -0.75199,6.89827c-0.23465,0.27259 -5.2144,-0.09683 -5.59025,-0.11745c-0.13864,2.3272 -0.26349,10.47978 -0.49904,11.25648c-0.09695,0.3197 -7.67422,0.08314 -7.84281,-0.76755c-0.16271,-0.821 0.42644,-8.20118 0.61138,-11.19338c-3.62366,-0.20128 -5.43545,-0.44285 -5.43545,-0.72475c0.18789,-4.48258 0.42949,-6.72387 0.72475,-6.72387l5.29455,1.00656c0,0 -0.33576,-7.39502 0.33586,-7.63714c0.40498,-0.14599 8.27767,0.86265 8.4625,1.52225c0.29242,1.0435 -0.78611,6.81901 -0.78611,6.81901z"/><path d="M224.57856,20.60491c-4.16049,-0.28185 -6.24073,-0.55696 -6.24073,-0.82537c0,0 -0.06713,-6.11977 0.08051,-6.11977c0,0 7.60784,0.88672 7.97446,1.41723c0.26784,0.38758 -1.65267,5.52791 -1.81423,5.52791zM225.70596,25.19485c-1.75815,9.95831 -2.82509,15.50786 -3.20091,16.64863h-6.38163c-0.18789,0 -0.28185,-0.09389 -0.28185,-0.28165c0,0 0.47019,-16.56466 0.53676,-18.34633c0.01179,-0.31554 9.32763,1.79147 9.32763,1.97935z"/><path d="M240.28105,33.46885c1.62394,-6.1602 2.57011,-9.44159 2.83853,-9.84421c5.1268,0.4697 7.69018,0.87231 7.69018,1.20785v0.14103c-2.86153,7.85849 -5.02109,14.67233 -5.84141,15.42387c-0.51307,0.47004 -7.65409,1.41052 -7.92845,1.4462l-9.84424,-14.57509v-0.28204c0.09393,-0.17452 7.75095,-5.4255 7.90368,-5.08107c1.00931,2.27592 4.99516,11.31867 5.1817,11.56347z"/><path d="M272.93408,33.52926h-12.72302v0.22127l3.56324,4.40876l5.59653,-2.85863c0.51849,0.89787 2.55761,4.42391 2.38938,4.85802c-0.07333,0.18921 -10.02364,1.76801 -10.55565,1.52804c-0.75688,-0.34141 -8.22334,-5.37599 -8.24078,-5.43988c0.87235,-6.96547 1.38908,-10.44818 1.55012,-10.44818c2.49933,-1.06352 8.6108,-3.93982 9.99895,-3.98414c0.68201,-0.02178 9.60324,5.12065 9.97135,5.41362c0,0 -1.38908,6.18032 -1.55012,6.30112zM263.40957,25.74663c-0.10736,0.26845 -0.81867,1.33539 -2.13392,3.20091c0,0.56366 0.99759,0.88666 2.58125,0.88666c0,0.08053 0.94174,0.23397 3.23671,0.54266c0.63078,-0.87235 0.94618,-1.38234 0.94618,-1.52998c-0.20129,-1.19445 -0.63749,-1.79169 -1.30855,-1.79169z"/><path d="M296.79451,30.35002c-0.46101,0.19875 -7.55403,-3.94727 -7.55403,-3.94727h-0.26171c0,0.13428 -0.31539,0.88583 -0.94618,2.25472c3.41988,1.84252 10.04006,4.53606 10.11324,5.48473c0.02483,0.32185 -2.79876,6.15595 -3.12877,6.89495c-0.14042,0.31446 -10.81549,0.83597 -11.38291,0.70112c-0.68579,-0.16298 -7.15252,-4.4858 -7.31806,-4.56525v-0.12077c0,-0.33553 0.66433,-1.84537 1.99302,-4.52956l8.9383,4.65037l0.66432,-2.65735c-5.52942,-2.48286 -8.81754,-4.03298 -9.86438,-4.65037v-0.28165c0,-0.11181 2.67499,-6.45499 3.17795,-6.85838c0.50219,-0.40277 9.79816,-1.12951 11.41935,-1.12649c0.27306,0.00051 5.94845,3.49116 6.3513,4.19176c0.35832,0.62316 -1.81476,4.39273 -2.20144,4.55944z"/></g><g stroke="none" stroke-width="0.26458"><path d="M74.58025,15.45647c5.87835,1.54342 8.87792,2.43591 8.99873,2.67749c0,0.13429 1.42262,2.81843 4.26785,8.05252c-2.5097,8.40149 -3.93231,12.90421 -4.26785,13.50814l-9.11949,1.95273c-4.89864,-2.71103 -7.50229,-4.25441 -7.81095,-4.63022c-0.16104,-1.89231 -0.44289,-7.2137 -0.84551,-15.96417c4.63022,-3.0868 7.55598,-4.95227 8.77726,-5.5965zM76.15047,22.4018l-3.76457,3.90547c0.32209,4.05312 0.48314,6.52927 0.48314,7.42847c0.09393,0 0.90589,0.56366 2.43588,1.69103c2.02656,-0.44289 3.03982,-0.76499 3.03982,-0.96631l2.31511,-7.91161c-0.61735,-1.87892 -1.14077,-2.81839 -1.57026,-2.81839z"/><path d="M99.28144,15.45647l0.14091,0.26179c0,0.76499 0.17449,3.72429 0.52342,8.87792c4.80467,-1.52998 7.49559,-2.33525 8.07269,-2.41577l7.24729,7.79084c-3.04656,6.83123 -4.70404,10.45489 -4.97245,10.87094c-0.84551,-0.094 -3.93231,-0.22825 -9.26044,-0.40265v0.94618c0,0.17453 -0.09396,0.26179 -0.28185,0.26179h-7.79084c-0.28185,0 -0.81867,-4.02627 -1.6105,-12.07879c-0.17449,-0.68447 -0.66432,-4.71745 -1.4696,-12.09897c4.5631,-1.07368 7.69688,-1.74471 9.40134,-2.01312zM100.63023,30.23288l0.52342,4.97245h4.04642l1.4696,-5.63678c-4.02627,0.34893 -6.03939,0.5704 -6.03939,0.66432z"/><path d="M146.14721,14.36939c-0.99316,3.81155 -1.64404,5.7173 -1.95273,5.7173c-4.17388,-0.28185 -6.26087,-0.56366 -6.26087,-0.84551v-5.83811c0.02684,-0.18777 8.2136,0.96632 8.2136,0.96632zM135.98089,21.61666l9.60267,2.4963c-1.94604,11.27356 -3.01298,17.25928 -3.20087,17.95714c-0.41606,0.37581 -3.84509,2.09368 -10.28714,5.15364c-5.1268,-2.41577 -8.28068,-3.94576 -9.46173,-4.58994c-1.30181,-4.96575 -2.0467,-7.70362 -2.23458,-8.2136c0.18789,-0.18804 2.83183,-0.93289 7.93175,-2.23458c0,0.094 -0.18789,3.37547 -0.56366,7.1065c4.49602,-0.56366 7.1869,-0.93274 8.07269,-1.10722v-3.62366c0,-0.21477 -0.1208,-2.77843 -0.1208,-2.77843v-9.88452c0.02684,-0.18777 0.11407,-0.28165 0.26171,-0.28165z"/><path d="M159.75604,21.55624c6.07968,3.12708 9.44833,4.95235 10.10595,5.47573c-0.87235,4.07996 -1.38907,6.18034 -1.55012,6.30114h-12.72302v0.22127l3.56324,4.40876l5.59653,-2.85863c0.55026,0.95288 1.34209,2.61707 2.37549,4.99256c-0.48314,0.16101 -4.00614,0.67773 -10.56895,1.55012c-5.43545,-3.58338 -8.17332,-5.44889 -8.2136,-5.5965c0.87235,-6.96548 1.38907,-10.44818 1.55012,-10.44818c5.67706,-2.41573 8.96515,-3.76457 9.86438,-4.04642zM158.44748,26.42804c-0.10736,0.26845 -0.81867,1.33539 -2.13392,3.20091c0,0.56366 0.79183,0.84551 2.37549,0.84551c0,0.08053 1.1475,0.27511 3.44247,0.5838c0.63078,-0.87235 0.94618,-1.38234 0.94618,-1.52998c-0.20128,-1.19445 -0.63749,-1.79169 -1.30855,-1.79169z"/><path d="M179.60553,21.55624c6.05284,1.14077 9.22016,1.79169 9.50201,1.95277v0.24153c-1.30181,3.6773 -1.95273,5.5831 -1.95273,5.7173h-0.1208c-0.33553,0 -1.95943,-0.52342 -4.87179,-1.57026c-1.62395,2.72443 -2.43588,4.18062 -2.43588,4.36851l4.02627,3.90547c3.11364,-2.92576 4.6973,-4.38861 4.75099,-4.38861c2.42918,3.18076 3.64376,4.96572 3.64376,5.35493c-1.32865,0.76499 -3.64376,2.26812 -6.94533,4.50942c-6.38837,-1.38234 -9.8375,-2.15403 -10.34752,-2.31511l-3.16062,-10.22672z"/><path d="M200.17977,15.45647l8.85779,1.57026l-0.84551,6.72387c1.75815,-0.094 3.04656,-0.14102 3.86523,-0.14102h1.28841l0.28185,-0.14102l0.14091,0.28204c-0.28185,4.07996 -0.52342,6.37493 -0.72475,6.88491l-0.28185,-0.16089c-0.20128,0 -2.01312,-0.09389 -5.43545,-0.28165c-0.18789,3.15392 -0.32883,6.92519 -0.42276,11.31384l-0.28185,0.14102c-4.32153,-0.28185 -6.89835,-0.52342 -7.73042,-0.72471l0.14091,-0.5637c0,-1.16761 0.18789,-4.79123 0.56366,-10.87091c-3.62366,-0.20128 -5.43545,-0.44286 -5.43545,-0.72475c0.18789,-4.48257 0.4295,-6.72387 0.72475,-6.72387l5.29454,1.00656v-1.73131c0,-1.40918 0,-5.76432 0,-5.85832z"/><path d="M218.68052,13.46344l7.91161,1.24817c-0.99316,3.79811 -1.64404,5.69716 -1.95273,5.69716c-4.16049,-0.28185 -6.24072,-0.55696 -6.24072,-0.82538v-5.83811c0.04024,-0.18777 0.1342,-0.28165 0.28185,-0.28165zM216.46607,23.04597h0.1208c6.11992,1.11392 9.17991,1.76485 9.17991,1.95273c-1.75815,9.95831 -2.82509,15.50786 -3.20091,16.64863h-6.38163c-0.18789,0 -0.28185,-0.09389 -0.28185,-0.28165z"/><path d="M240.34188,33.27271c1.62395,-6.1602 2.57012,-9.44159 2.83853,-9.84421c5.1268,0.4697 7.69018,0.87232 7.69018,1.20785v0.14102c-3.59682,9.87779 -5.52942,15.05153 -5.79783,15.52126c-3.9726,0.72471 -6.62994,1.17431 -7.97203,1.3488l-9.84425,-14.57509v-0.28204c0.09393,-0.17453 2.70428,-1.92594 7.83108,-5.25427c0,0 5.03956,11.45483 5.25432,11.73668z"/><path d="M264.43908,21.55624c6.07968,3.12708 9.44833,4.95235 10.10595,5.47573c-0.87235,4.07996 -1.38907,6.18034 -1.55012,6.30114h-12.72302v0.22127l3.56324,4.40876l5.59653,-2.85863c0.55026,0.95288 1.34209,2.61707 2.37549,4.99256c-0.48314,0.16101 -4.00614,0.67773 -10.56895,1.55012c-5.43545,-3.58338 -8.17332,-5.44889 -8.2136,-5.5965c0.87235,-6.96548 1.38907,-10.44818 1.55012,-10.44818c5.67706,-2.41573 8.96515,-3.76457 9.86434,-4.04642zM262.60437,25.38564c-0.10736,0.26845 -2.10363,4.62905 -2.10363,4.62905l8.36642,0.59946l-1.4598,-4.59026z"/><path d="M292.62298,21.53615c3.86523,2.46942 5.99915,3.89203 6.40177,4.26785c-1.39577,3.1002 -2.19431,4.65032 -2.39564,4.65032l-7.3278,-4.2477h-0.26171c0,0.13429 -0.31539,0.88583 -0.94618,2.25473c6.7507,3.63706 10.12606,5.50257 10.12606,5.5965c-1.89235,4.37521 -2.9593,6.68362 -3.20091,6.92519l-11.45475,0.66432c-4.45573,-2.9526 -6.85137,-4.50942 -7.1869,-4.67046v-0.12077c0,-0.33553 0.66432,-1.84537 1.99302,-4.52956l8.93831,4.65036l0.66432,-2.65734c-5.52942,-2.48285 -8.81754,-4.03298 -9.86438,-4.65036v-0.28165c0,-0.50998 1.06698,-2.77141 3.20091,-6.78429z"/></g></g></g></g></svg>