<svg version="1.1" xmlns="http://www.w3.org/2000/svg" xmlns:xlink="http://www.w3.org/1999/xlink" width="64.8879" height="125.15888" viewBox="0,0,64.8879,125.15888"><defs><linearGradient x1="238.47348" y1="102.15988" x2="238.47348" y2="223.31876" gradientUnits="userSpaceOnUse" id="color-1"><stop offset="0" stop-color="#0a1038"/><stop offset="1" stop-color="#040915"/></linearGradient><linearGradient x1="208.02953" y1="162.73932" x2="268.91743" y2="162.73932" gradientUnits="userSpaceOnUse" id="color-2"><stop offset="0" stop-color="#ffffff"/><stop offset="1" stop-color="#c0c0c0"/></linearGradient><radialGradient cx="220.11851" cy="112.3316" r="3.31064" gradientUnits="userSpaceOnUse" id="color-3"><stop offset="0" stop-color="#ffec6d"/><stop offset="1" stop-color="#ffec6d" stop-opacity="0"/></radialGradient><radialGradient cx="220.11851" cy="112.3316" r="3.31064" gradientUnits="userSpaceOnUse" id="color-4"><stop offset="0" stop-color="#ffffff"/><stop offset="1" stop-color="#ffffff" stop-opacity="0"/></radialGradient><radialGradient cx="245.61676" cy="129.98424" r="3.31064" gradientUnits="userSpaceOnUse" id="color-5"><stop offset="0" stop-color="#ffec6d"/><stop offset="1" stop-color="#ffec6d" stop-opacity="0"/></radialGradient><radialGradient cx="245.61676" cy="129.98424" r="3.31064" gradientUnits="userSpaceOnUse" id="color-6"><stop offset="0" stop-color="#ffffff"/><stop offset="1" stop-color="#ffffff" stop-opacity="0"/></radialGradient><radialGradient cx="225.11117" cy="186.68664" r="3.31064" gradientUnits="userSpaceOnUse" id="color-7"><stop offset="0" stop-color="#ffec6d"/><stop offset="1" stop-color="#ffec6d" stop-opacity="0"/></radialGradient><radialGradient cx="225.11117" cy="186.68664" r="3.31064" gradientUnits="userSpaceOnUse" id="color-8"><stop offset="0" stop-color="#ffffff"/><stop offset="1" stop-color="#ffffff" stop-opacity="0"/></radialGradient><radialGradient cx="250.60942" cy="200.41647" r="3.31065" gradientUnits="userSpaceOnUse" id="color-9"><stop offset="0" stop-color="#ffec6d"/><stop offset="1" stop-color="#ffec6d" stop-opacity="0"/></radialGradient><radialGradient cx="250.60942" cy="200.41647" r="3.31065" gradientUnits="userSpaceOnUse" id="color-10"><stop offset="0" stop-color="#ffffff"/><stop offset="1" stop-color="#ffffff" stop-opacity="0"/></radialGradient><radialGradient cx="260.77306" cy="114.64963" r="3.31065" gradientUnits="userSpaceOnUse" id="color-11"><stop offset="0" stop-color="#ffec6d"/><stop offset="1" stop-color="#ffec6d" stop-opacity="0"/></radialGradient><radialGradient cx="260.77306" cy="114.64963" r="3.31065" gradientUnits="userSpaceOnUse" id="color-12"><stop offset="0" stop-color="#ffffff"/><stop offset="1" stop-color="#ffffff" stop-opacity="0"/></radialGradient><radialGradient cx="226.71596" cy="208.44039" r="3.31064" gradientUnits="userSpaceOnUse" id="color-13"><stop offset="0" stop-color="#ffec6d"/><stop offset="1" stop-color="#ffec6d" stop-opacity="0"/></radialGradient><radialGradient cx="226.71596" cy="208.44039" r="3.31064" gradientUnits="userSpaceOnUse" id="color-14"><stop offset="0" stop-color="#ffffff"/><stop offset="1" stop-color="#ffffff" stop-opacity="0"/></radialGradient><radialGradient cx="239.30152" cy="162.43813" r="58.67258" gradientUnits="userSpaceOnUse" id="color-15"><stop offset="0" stop-color="#ffffff" stop-opacity="0"/><stop offset="1" stop-color="#ffffff"/></radialGradient></defs><g transform="translate(-206.02953,-100.15987)"><g data-paper-data="{&quot;isPaintingLayer&quot;:true}" fill-rule="nonzero" stroke-linejoin="miter" stroke-miterlimit="10" stroke-dasharray="" stroke-dashoffset="0" style="mix-blend-mode: normal"><path d="M208.02953,223.31876v-121.15888h60.8879v121.15888z" fill="url(#color-1)" stroke="url(#color-2)" stroke-width="4" stroke-linecap="butt"/><g stroke="none" stroke-width="0" stroke-linecap="butt"><path d="M216.80787,112.30678c0,0 1.83697,-0.36832 2.38607,-0.91742c0.54615,-0.54615 0.89975,-2.3684 0.89975,-2.3684c0,0 0.40536,1.83535 0.95909,2.38908c0.55806,0.55805 2.37637,0.94638 2.37637,0.94638c0,0 -1.84028,0.39095 -2.37806,0.92874c-0.55683,0.55683 -0.90776,2.35709 -0.90776,2.35709c0,0 -0.40452,-1.81519 -0.96571,-2.37638c-0.55043,-0.55043 -2.36975,-0.95908 -2.36975,-0.95908z" fill="url(#color-3)"/><path d="M216.80787,112.30678c0,0 1.83697,-0.36832 2.38607,-0.91742c0.54615,-0.54615 0.89975,-2.3684 0.89975,-2.3684c0,0 0.40536,1.83535 0.95909,2.38908c0.55806,0.55805 2.37637,0.94638 2.37637,0.94638c0,0 -1.84028,0.39095 -2.37806,0.92874c-0.55683,0.55683 -0.90776,2.35709 -0.90776,2.35709c0,0 -0.40452,-1.81519 -0.96571,-2.37638c-0.55043,-0.55043 -2.36975,-0.95908 -2.36975,-0.95908z" fill="url(#color-4)"/></g><g stroke="none" stroke-width="0" stroke-linecap="butt"><path d="M242.30611,129.95942c0,0 1.83697,-0.36832 2.38607,-0.91743c0.54615,-0.54615 0.89976,-2.3684 0.89976,-2.3684c0,0 0.40535,1.83535 0.95908,2.38908c0.55806,0.55805 2.37637,0.94638 2.37637,0.94638c0,0 -1.84028,0.39095 -2.37806,0.92874c-0.55683,0.55683 -0.90776,2.35709 -0.90776,2.35709c0,0 -0.40452,-1.81519 -0.96571,-2.37638c-0.55043,-0.55042 -2.36975,-0.95908 -2.36975,-0.95908z" fill="url(#color-5)"/><path d="M242.30611,129.95942c0,0 1.83697,-0.36832 2.38607,-0.91743c0.54615,-0.54615 0.89976,-2.3684 0.89976,-2.3684c0,0 0.40535,1.83535 0.95908,2.38908c0.55806,0.55805 2.37637,0.94638 2.37637,0.94638c0,0 -1.84028,0.39095 -2.37806,0.92874c-0.55683,0.55683 -0.90776,2.35709 -0.90776,2.35709c0,0 -0.40452,-1.81519 -0.96571,-2.37638c-0.55043,-0.55042 -2.36975,-0.95908 -2.36975,-0.95908z" fill="url(#color-6)"/></g><g stroke="none" stroke-width="0" stroke-linecap="butt"><path d="M221.80053,186.66182c0,0 1.83697,-0.36832 2.38607,-0.91743c0.54615,-0.54615 0.89976,-2.3684 0.89976,-2.3684c0,0 0.40535,1.83535 0.95908,2.38908c0.55806,0.55805 2.37637,0.94638 2.37637,0.94638c0,0 -1.84028,0.39095 -2.37806,0.92874c-0.55683,0.55683 -0.90776,2.35708 -0.90776,2.35708c0,0 -0.40452,-1.81519 -0.96571,-2.37638c-0.55043,-0.55042 -2.36975,-0.95908 -2.36975,-0.95908z" fill="url(#color-7)"/><path d="M221.80053,186.66182c0,0 1.83697,-0.36832 2.38607,-0.91743c0.54615,-0.54615 0.89976,-2.3684 0.89976,-2.3684c0,0 0.40535,1.83535 0.95908,2.38908c0.55806,0.55805 2.37637,0.94638 2.37637,0.94638c0,0 -1.84028,0.39095 -2.37806,0.92874c-0.55683,0.55683 -0.90776,2.35708 -0.90776,2.35708c0,0 -0.40452,-1.81519 -0.96571,-2.37638c-0.55043,-0.55042 -2.36975,-0.95908 -2.36975,-0.95908z" fill="url(#color-8)"/></g><g stroke="none" stroke-width="0" stroke-linecap="butt"><path d="M247.29878,200.39165c0,0 1.83696,-0.36832 2.38607,-0.91743c0.54615,-0.54615 0.89976,-2.3684 0.89976,-2.3684c0,0 0.40536,1.83535 0.95909,2.38908c0.55806,0.55805 2.37637,0.94638 2.37637,0.94638c0,0 -1.84028,0.39095 -2.37806,0.92874c-0.55683,0.55683 -0.90777,2.35709 -0.90777,2.35709c0,0 -0.40451,-1.81519 -0.9657,-2.37638c-0.55043,-0.55042 -2.36975,-0.95908 -2.36975,-0.95908z" fill="url(#color-9)"/><path d="M247.29878,200.39165c0,0 1.83696,-0.36832 2.38607,-0.91743c0.54615,-0.54615 0.89976,-2.3684 0.89976,-2.3684c0,0 0.40536,1.83535 0.95909,2.38908c0.55806,0.55805 2.37637,0.94638 2.37637,0.94638c0,0 -1.84028,0.39095 -2.37806,0.92874c-0.55683,0.55683 -0.90777,2.35709 -0.90777,2.35709c0,0 -0.40451,-1.81519 -0.9657,-2.37638c-0.55043,-0.55042 -2.36975,-0.95908 -2.36975,-0.95908z" fill="url(#color-10)"/></g><g stroke="none" stroke-width="0" stroke-linecap="butt"><path d="M257.46242,114.62481c0,0 1.83697,-0.36832 2.38607,-0.91742c0.54615,-0.54615 0.89975,-2.3684 0.89975,-2.3684c0,0 0.40536,1.83535 0.95909,2.38908c0.55806,0.55805 2.37637,0.94638 2.37637,0.94638c0,0 -1.84028,0.39096 -2.37806,0.92874c-0.55683,0.55683 -0.90776,2.35708 -0.90776,2.35708c0,0 -0.40452,-1.81519 -0.96571,-2.37638c-0.55043,-0.55043 -2.36975,-0.95908 -2.36975,-0.95908z" fill="url(#color-11)"/><path d="M257.46242,114.62481c0,0 1.83697,-0.36832 2.38607,-0.91742c0.54615,-0.54615 0.89975,-2.3684 0.89975,-2.3684c0,0 0.40536,1.83535 0.95909,2.38908c0.55806,0.55805 2.37637,0.94638 2.37637,0.94638c0,0 -1.84028,0.39096 -2.37806,0.92874c-0.55683,0.55683 -0.90776,2.35708 -0.90776,2.35708c0,0 -0.40452,-1.81519 -0.96571,-2.37638c-0.55043,-0.55043 -2.36975,-0.95908 -2.36975,-0.95908z" fill="url(#color-12)"/></g><g stroke="none" stroke-width="0" stroke-linecap="butt"><path d="M223.40531,208.41557c0,0 1.83697,-0.36832 2.38607,-0.91742c0.54615,-0.54615 0.89976,-2.3684 0.89976,-2.3684c0,0 0.40535,1.83535 0.95908,2.38908c0.55806,0.55805 2.37637,0.94638 2.37637,0.94638c0,0 -1.84027,0.39095 -2.37806,0.92874c-0.55683,0.55683 -0.90777,2.35709 -0.90777,2.35709c0,0 -0.40451,-1.81519 -0.9657,-2.37638c-0.55043,-0.55042 -2.36976,-0.95908 -2.36976,-0.95908z" fill="url(#color-13)"/><path d="M223.40531,208.41557c0,0 1.83697,-0.36832 2.38607,-0.91742c0.54615,-0.54615 0.89976,-2.3684 0.89976,-2.3684c0,0 0.40535,1.83535 0.95908,2.38908c0.55806,0.55805 2.37637,0.94638 2.37637,0.94638c0,0 -1.84027,0.39095 -2.37806,0.92874c-0.55683,0.55683 -0.90777,2.35709 -0.90777,2.35709c0,0 -0.40451,-1.81519 -0.9657,-2.37638c-0.55043,-0.55042 -2.36976,-0.95908 -2.36976,-0.95908z" fill="url(#color-14)"/></g><path d="M219.68996,123.90685c0,-0.41421 0.33578,-0.75 0.75,-0.75c0.41422,0 0.75,0.33579 0.75,0.75c0,0.41421 -0.33578,0.75 -0.75,0.75c-0.41422,0 -0.75,-0.33579 -0.75,-0.75z" fill="#ffffff" stroke="none" stroke-width="0.5" stroke-linecap="butt"/><path d="M250.35919,110.17702c0,-0.41421 0.33578,-0.75 0.75,-0.75c0.41422,0 0.75,0.33579 0.75,0.75c0,0.41421 -0.33578,0.75 -0.75,0.75c-0.41422,0 -0.75,-0.33579 -0.75,-0.75z" fill="#ffffff" stroke="none" stroke-width="0.5" stroke-linecap="butt"/><path d="M242.33527,182.39234c0,-0.41422 0.33578,-0.75 0.75,-0.75c0.41422,0 0.75,0.33578 0.75,0.75c0,0.41422 -0.33578,0.75 -0.75,0.75c-0.41422,0 -0.75,-0.33578 -0.75,-0.75z" fill="#ffffff" stroke="none" stroke-width="0.5" stroke-linecap="butt"/><path d="M226.46573,144.23412c0,-0.41422 0.33578,-0.75 0.75,-0.75c0.41422,0 0.75,0.33578 0.75,0.75c0,0.41422 -0.33578,0.75 -0.75,0.75c-0.41422,0 -0.75,-0.33578 -0.75,-0.75z" fill="#ffffff" stroke="none" stroke-width="0.5" stroke-linecap="butt"/><path d="M256.42171,135.85358c0,-0.41422 0.33578,-0.75 0.75,-0.75c0.41422,0 0.75,0.33578 0.75,0.75c0,0.41422 -0.33578,0.75 -0.75,0.75c-0.41422,0 -0.75,-0.33578 -0.75,-0.75z" fill="#ffffff" stroke="none" stroke-width="0.5" stroke-linecap="butt"/><path d="M237.69922,118.37925c0,-0.41421 0.33578,-0.75 0.75,-0.75c0.41422,0 0.75,0.33579 0.75,0.75c0,0.41421 -0.33578,0.75 -0.75,0.75c-0.41422,0 -0.75,-0.33579 -0.75,-0.75z" fill="#ffffff" stroke="none" stroke-width="0.5" stroke-linecap="butt"/><path d="M261.9493,190.77289c0,-0.41422 0.33578,-0.75 0.75,-0.75c0.41422,0 0.75,0.33578 0.75,0.75c0,0.41422 -0.33578,0.75 -0.75,0.75c-0.41422,0 -0.75,-0.33578 -0.75,-0.75z" fill="#ffffff" stroke="none" stroke-width="0.5" stroke-linecap="butt"/><path d="M256.77833,212.70495c0,-0.41422 0.33578,-0.75 0.75,-0.75c0.41422,0 0.75,0.33578 0.75,0.75c0,0.41422 -0.33578,0.75 -0.75,0.75c-0.41422,0 -0.75,-0.33578 -0.75,-0.75z" fill="#ffffff" stroke="none" stroke-width="0.5" stroke-linecap="butt"/><path d="M229.14036,192.9126c0,-0.41422 0.33578,-0.75 0.75,-0.75c0.41422,0 0.75,0.33578 0.75,0.75c0,0.41422 -0.33578,0.75 -0.75,0.75c-0.41422,0 -0.75,-0.33578 -0.75,-0.75z" fill="#ffffff" stroke="none" stroke-width="0.5" stroke-linecap="butt"/><path d="M215.58885,203.96778c0,-0.41422 0.33578,-0.75 0.75,-0.75c0.41422,0 0.75,0.33578 0.75,0.75c0,0.41422 -0.33578,0.75 -0.75,0.75c-0.41422,0 -0.75,-0.33578 -0.75,-0.75z" fill="#ffffff" stroke="none" stroke-width="0.5" stroke-linecap="butt"/><path d="M238.41246,216.09283c0,-0.41422 0.33578,-0.75 0.75,-0.75c0.41422,0 0.75,0.33578 0.75,0.75c0,0.41422 -0.33578,0.75 -0.75,0.75c-0.41422,0 -0.75,-0.33578 -0.75,-0.75z" fill="#ffffff" stroke="none" stroke-width="0.5" stroke-linecap="butt"/><path d="M217.37194,171.51547c0,-0.41422 0.33578,-0.75 0.75,-0.75c0.41422,0 0.75,0.33578 0.75,0.75c0,0.41422 -0.33578,0.75 -0.75,0.75c-0.41422,0 -0.75,-0.33578 -0.75,-0.75z" fill="#ffffff" stroke="none" stroke-width="0.5" stroke-linecap="butt"/><path d="M213.44914,143.16427c0,-0.41422 0.33578,-0.75 0.75,-0.75c0.41422,0 0.75,0.33578 0.75,0.75c0,0.41422 -0.33578,0.75 -0.75,0.75c-0.41422,0 -0.75,-0.33578 -0.75,-0.75z" fill="#ffffff" stroke="none" stroke-width="0.5" stroke-linecap="butt"/><path d="M246.25807,147.622c0,-0.41422 0.33578,-0.75 0.75,-0.75c0.41422,0 0.75,0.33578 0.75,0.75c0,0.41422 -0.33578,0.75 -0.75,0.75c-0.41422,0 -0.75,-0.33578 -0.75,-0.75z" fill="#ffffff" stroke="none" stroke-width="0.5" stroke-linecap="butt"/><path d="M261.9493,124.44177c0,-0.41421 0.33578,-0.75 0.75,-0.75c0.41422,0 0.75,0.33579 0.75,0.75c0,0.41421 -0.33578,0.75 -0.75,0.75c-0.41422,0 -0.75,-0.33579 -0.75,-0.75z" fill="#ffffff" stroke="none" stroke-width="0.5" stroke-linecap="butt"/><path d="M233.24148,106.96745c0,-0.41421 0.33578,-0.75 0.75,-0.75c0.41422,0 0.75,0.33579 0.75,0.75c0,0.41421 -0.33578,0.75 -0.75,0.75c-0.41422,0 -0.75,-0.33579 -0.75,-0.75z" fill="#ffffff" stroke="none" stroke-width="0.5" stroke-linecap="butt"/><path d="M246.61469,170.80223c0,-0.41422 0.33578,-0.75 0.75,-0.75c0.41422,0 0.75,0.33578 0.75,0.75c0,0.41422 -0.33578,0.75 -0.75,0.75c-0.41422,0 -0.75,-0.33578 -0.75,-0.75z" fill="#ffffff" stroke="none" stroke-width="0.5" stroke-linecap="butt"/><path d="M231.81501,175.25996c0,-0.41422 0.33578,-0.75 0.75,-0.75c0.41422,0 0.75,0.33578 0.75,0.75c0,0.41422 -0.33578,0.75 -0.75,0.75c-0.41422,0 -0.75,-0.33578 -0.75,-0.75z" fill="#ffffff" stroke="none" stroke-width="0.5" stroke-linecap="butt"/><path d="M239.30152,103.76556v117.34515" fill="none" stroke="url(#color-15)" stroke-width="2.5" stroke-linecap="round"/><path d="M220.85157,171.33688c-0.13127,0.06669 -0.29589,0.10847 -0.50229,0.10847c-1.01918,0 -1.01917,-1.01917 -1.01917,-1.01917c0,-7.71136 -0.96625,-15.63542 -1.6066,-23.31972c-0.00029,-0.44278 -0.00057,-0.88555 -0.00087,-1.32833v-1.07166c0,-0.56287 0.4563,-1.01917 1.01917,-1.01917c0.25881,0 0.49509,0.09647 0.67485,0.25541l0.8536,0.74691l-0.14413,0.16472c2.97714,2.16619 4.83607,5.57906 7.22436,8.4191c0.805,0.95727 1.68514,1.73526 2.58981,2.58414c0.34194,0.32085 0.53111,1.1565 0.97716,1.01189c1.36207,-0.44163 2.94214,-2.64966 3.86325,-3.70263c0.84446,-1.08524 1.9827,-3.71406 3.10345,-4.3715c2.97581,-1.74562 5.75086,4.75772 7.17836,6.65916c0.35922,0.4785 0.34031,1.2527 0.83533,1.58878c0.35204,0.23902 0.59507,-0.61934 0.81025,-0.98646c1.04889,-1.78957 2.28291,-3.43161 3.14177,-5.32736c1.07218,-2.57354 2.15189,-5.48666 4.17887,-7.49383c0.50796,-0.50299 2.26923,-1.719 2.94813,-1.39312c0.87243,0.41877 1.29052,3.45602 1.45528,4.40112c0.69945,4.01233 0.97794,8.00555 0.98006,12.07284c-0.00161,3.08352 -0.34145,6.29191 -0.75948,9.35366c-0.11664,0.85432 -0.30656,3.12108 -0.82967,3.78559c-0.97356,1.23672 -2.68791,1.06062 -4.03816,1.06128c-3.72071,0.00179 -7.33461,-0.34324 -11.02391,-0.64725c-7.20625,-0.72046 -14.01569,-0.53157 -21.2329,-0.53157h-0.64299c0,0 -0.01205,-0.00001 -0.03353,-0.00132zM219.77651,147.21791c0.61131,7.27848 1.49993,14.76353 1.58529,22.08193h0.16629c7.27453,0 14.1539,-0.1866 21.41896,0.54008c3.15837,0.26596 6.25802,0.63874 9.44469,0.63874c0.47481,0 3.44079,0.36891 3.78492,-0.2247c0.49923,-0.86112 0.46776,-2.99099 0.55836,-3.99234c0.23944,-2.64653 0.64028,-5.28604 0.63881,-7.94513c0.00218,-3.9496 -0.27305,-7.82183 -0.94891,-11.7179c-0.07771,-0.44789 -0.61424,-1.64855 -0.54175,-2.37701c-0.15108,0.17695 -0.31333,0.35422 -0.41312,0.4554c-0.46134,0.46773 -0.79488,1.04654 -1.17466,1.58263c-1.1314,1.59702 -1.82784,3.48663 -2.57671,5.28369c-0.9478,2.07903 -3.58176,8.16131 -6.55022,7.40337c-0.04183,-0.01067 -1.47087,-1.91445 -1.73664,-2.26917c-1.50832,-2.01307 -2.73278,-4.34295 -4.26369,-6.30371c-0.24158,-0.3094 -0.4031,0.67376 -0.61047,1.00705c-0.66332,1.06607 -1.43504,2.09325 -2.20483,3.08336c-1.18292,1.35158 -3.41678,4.27194 -5.35298,4.44195c-1.01979,0.08954 -1.82225,-0.97501 -2.45215,-1.56008c-1.82252,-1.69279 -3.41676,-3.48304 -4.851,-5.51387c-0.94458,-1.33748 -1.99985,-2.54696 -3.05569,-3.79048c-0.2426,-0.28571 -0.57057,-0.55152 -0.86454,-0.82382z" fill="#ffd966" stroke="#000000" stroke-width="0" stroke-linecap="butt"/></g></g></svg>