<svg version="1.1" xmlns="http://www.w3.org/2000/svg" xmlns:xlink="http://www.w3.org/1999/xlink" width="461.42618" height="138.17168" viewBox="0,0,461.42618,138.17168"><defs><linearGradient x1="293.77598" y1="224.99825" x2="294.19789" y2="280.99672" gradientUnits="userSpaceOnUse" id="color-1"><stop offset="0" stop-color="#c3e060"/><stop offset="1" stop-color="#6de01b"/></linearGradient><linearGradient x1="273.77598" y1="275.99825" x2="274.19789" y2="331.99672" gradientUnits="userSpaceOnUse" id="color-2"><stop offset="0" stop-color="#c3e060"/><stop offset="1" stop-color="#6de01b"/></linearGradient><linearGradient x1="240.77598" y1="300.99825" x2="241.19789" y2="356.99672" gradientUnits="userSpaceOnUse" id="color-3"><stop offset="0" stop-color="#c3e060"/><stop offset="1" stop-color="#6de01b"/></linearGradient></defs><g transform="translate(2.92619,-225.30838)"><g data-paper-data="{&quot;isPaintingLayer&quot;:true}" fill-rule="nonzero" stroke-linecap="butt" stroke-linejoin="miter" stroke-miterlimit="10" stroke-dasharray="" stroke-dashoffset="0" style="mix-blend-mode: normal"><path d="M349,295v-63h107v63z" data-paper-data="{&quot;origPos&quot;:null}" fill="#c06520" stroke="#763e13" stroke-width="1.42854"/><path d="M242,336v-52h71v52z" data-paper-data="{&quot;origPos&quot;:null}" fill="#c06520" stroke="#763e13" stroke-width="1.42854"/><path d="M366,282.00001c0,-2.76142 2.23858,-5 5,-5c2.76142,0 5,2.23858 5,5c0,2.76142 -2.23858,5 -5,5c-2.76142,0 -5,-2.23858 -5,-5z" data-paper-data="{&quot;origPos&quot;:null}" fill="#e0bb60" stroke="none" stroke-width="0.5"/><path d="M457.02395,274.80497l-14.27955,-9.89576l-11.09265,9.08143l-12.25791,-10.91059l-14.12887,10.10368l-10.25134,-11.92535l-12.06956,12.08872l-11.97636,-11.89565l-9.8106,10.43706l-11.20662,-10.93289l-7.45049,8.58692c0,-9.79196 0,-22.25059 0,-32.04255c0,-2.35339 1.60147,-7.1674 3,-9.06016c1,-1.35339 4.92665,-2.00898 10.00011,-2.01473c15.22038,-0.01725 101.99989,-0.11559 101.99989,-0.11559c0,8.06349 0,16.12699 0,24.19048c0,7.19507 0,15.42399 0,22.97015z" data-paper-data="{&quot;origPos&quot;:null,&quot;origRot&quot;:0}" fill="url(#color-1)" stroke="#0f6600" stroke-width="2"/><path d="M299.97197,315.82258l-8.02634,12.04423l-14.28703,-10.88089l-14.1515,9.09634l-6.20056,-13.96245l-11.10018,8.08146l-9.70636,-9.42553c0,-10.32154 0,-16.4971 0,-24.44767c0,-2.65019 1.2174,-4.8297 3,-6.79078c1.5,-1.65019 3.09751,-2.00691 7.00022,-2.01133c11.70815,-0.01327 37.19357,-0.04215 60.99936,-0.06913c3.90279,-0.00442 6.50042,0.63717 7.50042,2.48867c1.11748,2.06901 2.5,4.70299 2.5,7.05449c0,11.73987 0,20.97975 0,32.71962z" data-paper-data="{&quot;origPos&quot;:null,&quot;origRot&quot;:0}" fill="url(#color-2)" stroke="#0f6600" stroke-width="2"/><path d="M401.66667,283.66667c0,-2.76142 2.23858,-5 5,-5c2.76142,0 5,2.23858 5,5c0,2.76142 -2.23858,5 -5,5c-2.76142,0 -5,-2.23858 -5,-5z" data-paper-data="{&quot;origPos&quot;:null}" fill="#e0bb60" stroke="none" stroke-width="0.5"/><g><path d="M-0.1745,315.73301l174.4745,1.9801l-0.4678,44.9976l-174.4745,-1.9802z" fill="#c06520" stroke="#763e13" stroke-width="1.5215"/><path d="M142,352.00001c0,-2.76142 2.23858,-5 5,-5c2.76142,0 5,2.23858 5,5c0,2.76142 -2.23858,5 -5,5c-2.76142,0 -5,-2.23858 -5,-5z" fill="#e0bb60" stroke="none" stroke-width="0.5"/><path d="M95,348.00001c0,-2.76142 2.23858,-5 5,-5c2.76142,0 5,2.23858 5,5c0,2.76142 -2.23858,5 -5,5c-2.76142,0 -5,-2.23858 -5,-5z" data-paper-data="{&quot;origPos&quot;:null}" fill="#e0bb60" stroke="none" stroke-width="0.5"/><path d="M41,351.00001c0,-2.76142 2.23858,-5 5,-5c2.76142,0 5,2.23858 5,5c0,2.76142 -2.23858,5 -5,5c-2.76142,0 -5,-2.23858 -5,-5z" data-paper-data="{&quot;origPos&quot;:null}" fill="#e0bb60" stroke="none" stroke-width="0.5"/><path d="M-1.20289,302.76927c0,0 150.31125,-0.17033 166.70261,-0.18891c5.46379,-0.00619 10.00028,-0.66104 11.50028,1.98413c2.29136,4.0407 2.5,7.29033 2.5,11.9355c0,9.06667 0,18.13335 0,27.20002l-11.01078,-8.17174l-10.06298,11.07396l-13.26496,-9.90319l-14.12887,10.10368l-6.18547,-12.95508l-14.12133,11.10365l-17.32331,-9.87349l-4.96746,14.03674l-22.40377,-10.83633l-8.03382,11.0591l-9.23675,-13.93279l-14.1138,12.10363l-13.2725,-10.90317l-3.97547,11.0294l-12.25791,-10.91059l-7.01169,12.05165z" data-paper-data="{&quot;origPos&quot;:null,&quot;origRot&quot;:0}" fill="url(#color-3)" stroke="#0f6600" stroke-width="2"/></g><path d="M247,325.33334c0,-2.76142 2.23858,-5 5,-5c2.76142,0 5,2.23858 5,5c0,2.76142 -2.23858,5 -5,5c-2.76142,0 -5,-2.23858 -5,-5z" fill="#e0bb60" stroke="none" stroke-width="0.5"/><path d="M297.33333,326.33335c0,-2.76142 2.23858,-5 5,-5c2.76142,0 5,2.23858 5,5c0,2.76142 -2.23858,5 -5,5c-2.76142,0 -5,-2.23858 -5,-5z" fill="#e0bb60" stroke="none" stroke-width="0.5"/></g></g></svg>