<svg version="1.1" xmlns="http://www.w3.org/2000/svg" xmlns:xlink="http://www.w3.org/1999/xlink" width="482.9938" height="360" viewBox="0,0,482.9938,360"><defs><linearGradient x1="-1" y1="0" x2="-1" y2="360" gradientUnits="userSpaceOnUse" id="color-1"><stop offset="0" stop-color="#303c58"/><stop offset="1" stop-color="#536899"/></linearGradient><linearGradient x1="-1" y1="257" x2="-1" y2="330" gradientUnits="userSpaceOnUse" id="color-2"><stop offset="0" stop-color="#ff9439" stop-opacity="0"/><stop offset="1" stop-color="#ff9439"/></linearGradient><linearGradient x1="-1" y1="314" x2="-1" y2="360" gradientUnits="userSpaceOnUse" id="color-3"><stop offset="0" stop-color="#ffaa3e"/><stop offset="1" stop-color="#ff6430"/></linearGradient><linearGradient x1="230.5" y1="60" x2="230.5" y2="249" gradientUnits="userSpaceOnUse" id="color-4"><stop offset="0" stop-color="#50687d"/><stop offset="1" stop-color="#8fb9e0"/></linearGradient><radialGradient cx="85.7539" cy="219.5959" r="63.7959" gradientUnits="userSpaceOnUse" id="color-5"><stop offset="0" stop-color="#87ff8f"/><stop offset="1" stop-color="#5dde54"/></radialGradient><radialGradient cx="125.8905" cy="213.78836" r="85.06516" gradientUnits="userSpaceOnUse" id="color-6"><stop offset="0" stop-color="#87ff8f"/><stop offset="1" stop-color="#5dde54"/></radialGradient><radialGradient cx="95.5486" cy="184.8408" r="46.72" gradientUnits="userSpaceOnUse" id="color-7"><stop offset="0" stop-color="#4bd2ff"/><stop offset="1" stop-color="#3f81ff"/></radialGradient><radialGradient cx="115.99388" cy="179.86154" r="47.8654" gradientUnits="userSpaceOnUse" id="color-8"><stop offset="0" stop-color="#4bd2ff"/><stop offset="1" stop-color="#3f81ff"/></radialGradient><radialGradient cx="182.0669" cy="161.6666" r="34.8688" gradientUnits="userSpaceOnUse" id="color-9"><stop offset="0" stop-color="#ffe743"/><stop offset="1" stop-color="#ff9730"/></radialGradient><radialGradient cx="168.71566" cy="166.97142" r="23.6282" gradientUnits="userSpaceOnUse" id="color-10"><stop offset="0" stop-color="#ffe743"/><stop offset="1" stop-color="#ff9730"/></radialGradient><radialGradient cx="296.7683" cy="214.4559" r="64.2537" gradientUnits="userSpaceOnUse" id="color-11"><stop offset="0" stop-color="#87ff8f"/><stop offset="1" stop-color="#5dde54"/></radialGradient><radialGradient cx="285.73407" cy="211.15815" r="84.07242" gradientUnits="userSpaceOnUse" id="color-12"><stop offset="0" stop-color="#87ff8f"/><stop offset="1" stop-color="#5dde54"/></radialGradient><radialGradient cx="272.7426" cy="181.9643" r="41.781" gradientUnits="userSpaceOnUse" id="color-13"><stop offset="0" stop-color="#4bd2ff"/><stop offset="1" stop-color="#3f81ff"/></radialGradient><radialGradient cx="256.29139" cy="187.13191" r="40.63008" gradientUnits="userSpaceOnUse" id="color-14"><stop offset="0" stop-color="#4bd2ff"/><stop offset="1" stop-color="#3f81ff"/></radialGradient><radialGradient cx="195.2846" cy="170.4617" r="35.445" gradientUnits="userSpaceOnUse" id="color-15"><stop offset="0" stop-color="#ffe743"/><stop offset="1" stop-color="#ff9730"/></radialGradient><radialGradient cx="193.95772" cy="180.75092" r="26.78946" gradientUnits="userSpaceOnUse" id="color-16"><stop offset="0" stop-color="#ffe743"/><stop offset="1" stop-color="#ff9730"/></radialGradient><radialGradient cx="283.9907" cy="171.5855" r="63.6275" gradientUnits="userSpaceOnUse" id="color-17"><stop offset="0" stop-color="#87ff8f"/><stop offset="1" stop-color="#5dde54"/></radialGradient><radialGradient cx="329.37164" cy="168.77195" r="62.92798" gradientUnits="userSpaceOnUse" id="color-18"><stop offset="0" stop-color="#87ff8f"/><stop offset="1" stop-color="#5dde54"/></radialGradient><radialGradient cx="319.5868" cy="157.4024" r="39.8787" gradientUnits="userSpaceOnUse" id="color-19"><stop offset="0" stop-color="#4bd2ff"/><stop offset="1" stop-color="#3f81ff"/></radialGradient><radialGradient cx="336.52753" cy="155.97981" r="28.99838" gradientUnits="userSpaceOnUse" id="color-20"><stop offset="0" stop-color="#4bd2ff"/><stop offset="1" stop-color="#3f81ff"/></radialGradient><radialGradient cx="398.628" cy="185.2285" r="35.9486" gradientUnits="userSpaceOnUse" id="color-21"><stop offset="0" stop-color="#ffe743"/><stop offset="1" stop-color="#ff9730"/></radialGradient><radialGradient cx="384.18664" cy="184.70613" r="40.90767" gradientUnits="userSpaceOnUse" id="color-22"><stop offset="0" stop-color="#ffe743"/><stop offset="1" stop-color="#ff9730"/></radialGradient><radialGradient cx="128.7496" cy="181.5012" r="75.7989" gradientUnits="userSpaceOnUse" id="color-23"><stop offset="0" stop-color="#ff968f"/><stop offset="1" stop-color="#ff3636"/></radialGradient><radialGradient cx="150.42781" cy="176.74532" r="70.84826" gradientUnits="userSpaceOnUse" id="color-24"><stop offset="0" stop-color="#ff968f"/><stop offset="1" stop-color="#ff3636"/></radialGradient><radialGradient cx="252.2467" cy="181.784" r="77.7724" gradientUnits="userSpaceOnUse" id="color-25"><stop offset="0" stop-color="#ff968f"/><stop offset="1" stop-color="#ff3636"/></radialGradient><radialGradient cx="221.91126" cy="178.86305" r="68.50902" gradientUnits="userSpaceOnUse" id="color-26"><stop offset="0" stop-color="#ff968f"/><stop offset="1" stop-color="#ff3636"/></radialGradient><radialGradient cx="346.0952" cy="174.999" r="70.2712" gradientUnits="userSpaceOnUse" id="color-27"><stop offset="0" stop-color="#ff968f"/><stop offset="1" stop-color="#ff3636"/></radialGradient><radialGradient cx="353.0257" cy="171.02927" r="54.18508" gradientUnits="userSpaceOnUse" id="color-28"><stop offset="0" stop-color="#ff968f"/><stop offset="1" stop-color="#ff3636"/></radialGradient><linearGradient x1="230.5" y1="60" x2="230.5" y2="249" gradientUnits="userSpaceOnUse" id="color-29"><stop offset="0" stop-color="#415566"/><stop offset="1" stop-color="#415566" stop-opacity="0"/></linearGradient></defs><g transform="translate(1,0)"><g data-paper-data="{&quot;isPaintingLayer&quot;:true}" fill-rule="nonzero" stroke-linejoin="miter" stroke-miterlimit="10" stroke-dasharray="" stroke-dashoffset="0" style="mix-blend-mode: normal"><path d="M-1,0h482.9938v360h-482.9938z" data-paper-data="{&quot;origPos&quot;:null}" fill="url(#color-1)" stroke="none" stroke-width="1.00312" stroke-linecap="butt"/><path d="M-1,152v0v-46v0z" fill="#001966" stroke="none" stroke-width="1.00312" stroke-linecap="butt"/><path d="M-1,257h482.9938v73h-482.9938z" fill="url(#color-2)" stroke="none" stroke-width="1.00312" stroke-linecap="butt"/><path d="M-1,314h482.9938v46h-482.9938z" fill="url(#color-3)" stroke="none" stroke-width="1.00312" stroke-linecap="butt"/><path d="M157,141l-23,-60l66,27l110,-48l25,91l78,-17l-24,76l24,37l-122,-38l-19,40l-92,-31l-74,30l-58,-42l63,-55l45,-10z" data-paper-data="{&quot;origPos&quot;:null}" fill="url(#color-4)" stroke="#344452" stroke-width="2" stroke-linecap="round"/><path d="M131.333,215.7344l10.66834,16.7709c0,0 -4.49212,2.46449 -8.43406,2.7618c-11.82581,0.8919 -38.59491,2.62777 -38.59491,2.62777l-16.52817,-12.60853l8.9752,-12.35293l43.7239,0.6881z" data-paper-data="{&quot;origPos&quot;:null}" fill="url(#color-5)" stroke="url(#color-6)" stroke-width="2" stroke-linecap="round"/><path d="M130.7595,213.301l-17.7333,0.1726l-17.2691,-14.4231l-2.8,-15.3675l16.9701,-4.7187l16.1179,13.4615l0.1769,13.8282z" data-paper-data="{&quot;origPos&quot;:null}" fill="url(#color-7)" stroke="url(#color-8)" stroke-width="2" stroke-linecap="round"/><path d="M173.9903,199.6396l-7.3504,-13.6991l6.3009,-24.7042l11.7197,-3.8923l2.2307,9.029z" data-paper-data="{&quot;origPos&quot;:null}" fill="url(#color-9)" stroke="url(#color-10)" stroke-width="2" stroke-linecap="round"/><path d="M252.9072,215.9095l35.8791,-5.85653l-11.87773,25.56827l-34.13777,2.42987l10.1817,-20.0208z" data-paper-data="{&quot;origPos&quot;:null}" fill="url(#color-11)" stroke="url(#color-12)" stroke-width="2" stroke-linecap="round"/><path d="M256.9829,208.0425l-1.3547,-13.7628l14.529,-15.1627l17.3881,2.8115l-1.0819,15.583l-15.5668,16.2458l-17.6435,1.7911z" fill="url(#color-13)" stroke="url(#color-14)" stroke-width="2" stroke-linecap="round"/><path d="M192.2724,175.1213l1.2178,-9.2205l12.0784,2.5713l8.9964,23.855l-6.1211,11.447z" fill="url(#color-15)" stroke="url(#color-16)" stroke-width="2" stroke-linecap="round"/><path d="M330.5143,196.7979l-2.9584,22.2654l-39.7593,-29.4907l-6.8311,-20.164l18.1789,-3.4681l32.6092,29.1358z" fill="url(#color-17)" stroke="url(#color-18)" stroke-width="2" stroke-linecap="round"/><path d="M331.6732,194.5828l-13.5211,-11.4753l-3.6178,-22.2072l7.9403,-13.4518l15.9193,7.5384l3.3766,20.7268l-8.9162,10.5712z" fill="url(#color-19)" stroke="url(#color-20)" stroke-width="2" stroke-linecap="round"/><path d="M375.264,210.2779l1.4446,-12.9001l19.682,-14.0551l-6.3415,19.4771z" data-paper-data="{&quot;origPos&quot;:null}" fill="url(#color-21)" stroke="url(#color-22)" stroke-width="2" stroke-linecap="round"/><path d="M444,98.89999v-38" data-paper-data="{&quot;origPos&quot;:null}" fill="none" stroke="#1e2130" stroke-width="0.5" stroke-linecap="round"/><path d="M125,43.89999v33" data-paper-data="{&quot;origPos&quot;:null}" fill="none" stroke="#1f2232" stroke-width="0.5" stroke-linecap="round"/><path d="M62,160.89999v-38" data-paper-data="{&quot;origPos&quot;:null}" fill="none" stroke="#222535" stroke-width="0.5" stroke-linecap="round"/><path d="M206,290.89999v-26" data-paper-data="{&quot;origPos&quot;:null}" fill="none" stroke="#242739" stroke-width="0.5" stroke-linecap="round"/><path d="M435,221.89999v31" fill="none" stroke="#242739" stroke-width="0.5" stroke-linecap="round"/><path d="M339,248.89999v13" data-paper-data="{&quot;origPos&quot;:null}" fill="none" stroke="#242739" stroke-width="0.5" stroke-linecap="round"/><path d="M18,183.89999v23" data-paper-data="{&quot;origPos&quot;:null}" fill="none" stroke="#242739" stroke-width="0.5" stroke-linecap="round"/><path d="M268,17.89999v19" data-paper-data="{&quot;origPos&quot;:null}" fill="none" stroke="#1d202e" stroke-width="0.5" stroke-linecap="round"/><path d="M122,332.89999c0,2.20914 -3.80558,4 -8.5,4c-4.69442,0 -8.5,-1.79086 -8.5,-4c0,-2.20914 3.80558,-4 8.5,-4c4.69442,0 8.5,1.79086 8.5,4z" fill="#ffbc3b" stroke="#242739" stroke-width="0" stroke-linecap="butt"/><path d="M233,336.89999c0,2.20914 -1.79086,4 -4,4c-2.20914,0 -4,-1.79086 -4,-4c0,-2.20914 1.79086,-4 4,-4c2.20914,0 4,1.79086 4,4z" data-paper-data="{&quot;origPos&quot;:null}" fill="#ffbc3b" stroke="none" stroke-width="0" stroke-linecap="butt"/><path d="M265,329.39999c0,1.38071 -1.34315,2.5 -3,2.5c-1.65685,0 -3,-1.11929 -3,-2.5c0,-1.38071 1.34315,-2.5 3,-2.5c1.65685,0 3,1.11929 3,2.5z" fill="#ffbc3b" stroke="none" stroke-width="0" stroke-linecap="butt"/><path d="M328.83333,321.39999c0,1.38071 -3.54441,2.5 -7.91667,2.5c-4.37225,0 -7.91667,-1.11929 -7.91667,-2.5c0,-1.38071 3.54441,-2.5 7.91667,-2.5c4.37225,0 7.91667,1.11929 7.91667,2.5z" data-paper-data="{&quot;origPos&quot;:null}" fill="#ffbc3b" stroke="none" stroke-width="0" stroke-linecap="butt"/><path d="M378,329.89999c0,1.65685 -1.11929,3 -2.5,3c-1.38071,0 -2.5,-1.34315 -2.5,-3c0,-1.65685 1.11929,-3 2.5,-3c1.38071,0 2.5,1.34315 2.5,3z" fill="#ffbc3b" stroke="none" stroke-width="0" stroke-linecap="butt"/><path d="M427,326.89999c0,1.65685 -2.01472,3 -4.5,3c-2.48528,0 -4.5,-1.34315 -4.5,-3c0,-1.65685 2.01472,-3 4.5,-3c2.48528,0 4.5,1.34315 4.5,3z" fill="#ffbc3b" stroke="none" stroke-width="0" stroke-linecap="butt"/><path d="M66,327.89999c0,1.65685 -2.46243,3 -5.5,3c-3.03757,0 -5.5,-1.34315 -5.5,-3c0,-1.65685 2.46243,-3 5.5,-3c3.03757,0 5.5,1.34315 5.5,3z" fill="#ffbc3b" stroke="none" stroke-width="0" stroke-linecap="butt"/><path d="M171,324.39999c-6.14417,0 -11.125,-0.89543 -11.125,-2c0,-1.10457 4.98083,-2 11.125,-2c6.14417,0 11.125,0.89543 11.125,2c0,1.10457 -4.98083,2 -11.125,2z" data-paper-data="{&quot;origPos&quot;:null}" fill="#ffbc3b" stroke="none" stroke-width="0" stroke-linecap="butt"/><path d="M28,341.39999c0,0.82843 -2.46243,1.5 -5.5,1.5c-3.03757,0 -5.5,-0.67157 -5.5,-1.5c0,-0.82843 2.46243,-1.5 5.5,-1.5c3.03757,0 5.5,0.67157 5.5,1.5z" fill="#ffbc3b" stroke="none" stroke-width="0" stroke-linecap="butt"/><path d="M298.33333,344.89999c0,1.38071 -1.82817,2.5 -4.08334,2.5c-2.25516,0 -4.08333,-1.11929 -4.08333,-2.5c0,-1.38071 1.82817,-2.5 4.08333,-2.5c2.25516,0 4.08334,1.11929 4.08334,2.5z" data-paper-data="{&quot;origPos&quot;:null}" fill="#ffbc3b" stroke="none" stroke-width="0" stroke-linecap="butt"/><path d="M460.14286,340.86306c0,1.743 -2.30786,3.15598 -5.15476,3.15598c-2.8469,0 -5.15476,-1.41298 -5.15476,-3.15598c0,-1.743 2.30786,-3.15598 5.15476,-3.15598c2.8469,0 5.15476,1.41298 5.15476,3.15598z" data-paper-data="{&quot;origPos&quot;:null}" fill="#ffbc3b" stroke="none" stroke-width="0" stroke-linecap="butt"/><path d="M18,98.89999v-38" data-paper-data="{&quot;origPos&quot;:null,&quot;index&quot;:null}" fill="none" stroke="#1e2130" stroke-width="0.5" stroke-linecap="round"/><path d="M347,106.89999v-33" data-paper-data="{&quot;origPos&quot;:null,&quot;index&quot;:null}" fill="none" stroke="#1f2232" stroke-width="0.5" stroke-linecap="round"/><path d="M428,169.89999v-38" data-paper-data="{&quot;origPos&quot;:null,&quot;index&quot;:null}" fill="none" stroke="#222535" stroke-width="0.5" stroke-linecap="round"/><path d="M256,264.89999v26" data-paper-data="{&quot;origPos&quot;:null,&quot;index&quot;:null}" fill="none" stroke="#242739" stroke-width="0.5" stroke-linecap="round"/><path d="M49,278.89999v-31" data-paper-data="{&quot;origPos&quot;:null,&quot;index&quot;:null}" fill="none" stroke="#242739" stroke-width="0.5" stroke-linecap="round"/><path d="M123,261.89999v-13" data-paper-data="{&quot;origPos&quot;:null,&quot;index&quot;:null}" fill="none" stroke="#242739" stroke-width="0.5" stroke-linecap="round"/><path d="M458,255.89999v23" data-paper-data="{&quot;origPos&quot;:null,&quot;index&quot;:null}" fill="none" stroke="#242739" stroke-width="0.5" stroke-linecap="round"/><path d="M161.9715,181.39l18.56917,34.56757l-37.2239,15.5212l-16.71107,-24.90427l-0.3452,-35.4666l36.0316,9.8984z" data-paper-data="{&quot;origPos&quot;:null}" fill="url(#color-23)" stroke="url(#color-24)" stroke-width="2" stroke-linecap="round"/><path d="M218.34,186.942l34.7147,-13.8254l3.5823,35.2869l-14.24737,29.49303l-42.69337,-14.62227l19.00483,-35.98627z" data-paper-data="{&quot;origPos&quot;:null}" fill="url(#color-25)" stroke="url(#color-26)" stroke-width="2" stroke-linecap="round"/><path d="M376.1569,190.882l-5.74426,41.21047l-42.5345,-12.98776l5.05657,-32.3263l22.9504,-27.0422l20.7653,31.0654z" data-paper-data="{&quot;origPos&quot;:null}" fill="url(#color-27)" stroke="url(#color-28)" stroke-width="2" stroke-linecap="round"/><path d="M157,141l-23,-60l66,27l110,-48l25,91l78,-17l-24,76l24,37l-122,-38l-19,40l-92,-31l-74,30l-58,-42l63,-55l45,-10z" data-paper-data="{&quot;origPos&quot;:null}" fill="url(#color-29)" stroke="#374857" stroke-width="2" stroke-linecap="round"/></g></g></svg>