<svg version="1.1" xmlns="http://www.w3.org/2000/svg" xmlns:xlink="http://www.w3.org/1999/xlink" width="46.35146" height="82.87627" viewBox="0,0,46.35146,82.87627"><g transform="translate(-218.50173,-139.06057)"><g data-paper-data="{&quot;isPaintingLayer&quot;:true}" fill-rule="nonzero" stroke-linejoin="miter" stroke-miterlimit="10" stroke-dasharray="" stroke-dashoffset="0" style="mix-blend-mode: normal"><g data-paper-data="{&quot;index&quot;:null}"><path d="M244.58958,178.37034c1.99144,0.34096 3.42023,5.01768 3.42023,5.01768l3.9133,5.15531l1.4917,-0.66643l1.88343,0.31211l2.44728,1.85873l2.32593,3.11196l-0.06642,1.35584l-1.38183,0.87169l-0.73711,1.58284l-2.14789,1.41378l-1.05223,1.48745l-1.91665,0.36578l-1.89796,-0.83247l-2.47198,-4.61812l-0.0507,-1.82128l-3.10473,-4.51109l-2.15694,-5.06362c0,0 -0.48892,-5.36114 1.5025,-5.02017z" data-paper-data="{&quot;origPos&quot;:null}" fill="#d2a31f" stroke="#000000" stroke-width="0" stroke-linecap="round"/><path d="M255.82066,198.10721c-0.40823,0.61172 -1.02071,0.24056 -1.02071,0.24056l-0.05647,-0.1396c-0.69275,-0.1905 -1.11225,-0.45126 -1.63872,-0.89777c0,0 -0.5428,-0.46041 -0.04566,-1.00811c0.49715,-0.54772 1.03996,-0.08732 1.03996,-0.08732c0.43538,0.36928 0.59202,0.47516 1.10035,0.61493l0.41701,0.29442c0,0 0.61249,0.37117 0.20425,0.98288z" data-paper-data="{&quot;origPos&quot;:null}" fill="#996c1c" stroke="none" stroke-width="0.5" stroke-linecap="butt"/><path d="M258.19444,195.38882c-0.41446,0.60009 -1.0159,0.2496 -1.0159,0.2496l-0.05378,-0.13455c-0.68386,-0.17391 -1.09566,-0.42029 -1.61057,-0.84523c0,0 -0.53092,-0.43816 -0.02929,-0.97754c0.5016,-0.53938 1.03253,-0.10122 1.03253,-0.10122c0.42583,0.35144 0.57945,0.45169 1.08128,0.57931l0.40881,0.27908c0,0 0.6014,0.35047 0.18692,0.95055z" data-paper-data="{&quot;origPos&quot;:null}" fill="#996c1c" stroke="none" stroke-width="0.5" stroke-linecap="butt"/></g><path d="M223.74594,204.17497c-1.8295,-0.10229 -5.24421,-1.87157 -5.24421,-1.87157c0,0 4.08125,-1.24909 5.90713,-2.21743c1.47002,-0.77962 4.21381,-3.15012 4.21381,-3.15012l0.65996,5.97032c0,0 -3.77515,1.36729 -5.5367,1.26878z" fill="#d2a31f" stroke="#000000" stroke-width="0" stroke-linecap="round"/><g data-paper-data="{&quot;index&quot;:null}" stroke-linecap="butt"><g fill="#bba983" stroke="none" stroke-width="0"><path d="M245.63803,218.33009c-0.5974,2.34836 -4.41299,1.92639 -8.02714,1.00699c-1.58689,-0.40368 -2.98863,-0.59668 -3.8627,-1.46906c-1.11663,-1.11447 -1.45581,-3.00866 -1.12073,-4.32592c0.25138,-0.98817 1.11944,-2.28999 2.12696,-2.80242c1.38685,-0.70535 3.15639,-0.38085 5.01981,0.09318c3.21715,0.8184 6.4612,5.14887 5.8638,7.49722z"/><path d="M240.24335,214.23674c0.53292,-3.4194 4.212,-5.67713 8.21745,-5.04281c4.00545,0.63432 6.8205,3.92053 6.28757,7.33993c-0.53293,3.4194 -4.21201,5.67714 -8.21746,5.04283c-4.00545,-0.63432 -6.8205,-3.92054 -6.28756,-7.33995z"/></g><g><path d="M246.18065,216.55231c-0.61685,2.42485 -4.55669,1.98911 -8.28855,1.03979c-1.63857,-0.41683 -3.08595,-0.61612 -3.98847,-1.51691c-1.15298,-1.15077 -1.50323,-3.10665 -1.15723,-4.4668c0.25956,-1.02035 1.15591,-2.36458 2.19623,-2.89368c1.432,-0.72832 3.25918,-0.39323 5.18328,0.09622c3.32193,0.84505 6.67161,5.31654 6.05476,7.74138z" fill="#2b9638" stroke="none" stroke-width="0"/><path d="M244.68726,208.92185c-0.31472,1.23717 -2.65593,1.70943 -5.22924,1.05481c-2.57331,-0.65461 -4.40426,-2.1882 -4.08955,-3.42537c0.31472,-1.23717 2.65592,-1.70944 5.22924,-1.05483c2.57331,0.65461 4.40425,2.18822 4.08954,3.42539z" fill="#1c6225" stroke="#2b9638" stroke-width="1.5"/><path d="M240.61028,212.32565c0.55029,-3.53076 4.34917,-5.86205 8.48507,-5.20705c4.13589,0.655 7.04261,4.04821 6.49232,7.57897c-0.55028,3.53076 -4.34918,5.86204 -8.48507,5.20705c-4.1359,-0.655 -7.04261,-4.0482 -6.49233,-7.57898z" fill="#2b9638" stroke="none" stroke-width="0"/></g><path d="M236.56817,207.82656l3.75674,-14.76786l6.05845,1.54118l-3.60395,14.1673c0,0 -0.82522,1.00888 -3.16685,0.51581c-1.79739,-0.41478 -3.04438,-1.45643 -3.04438,-1.45643z" fill="#fcdc48" stroke="none" stroke-width="0"/></g><g data-paper-data="{&quot;index&quot;:null}" stroke-linecap="butt"><g fill="#bba983" stroke="none" stroke-width="0"><path d="M242.40793,217.51255c0.36381,2.3957 -3.31515,3.49216 -7.00213,4.05205c-1.61887,0.24583 -2.98518,0.61367 -4.12988,0.1503c-1.46237,-0.59195 -2.51211,-2.20473 -2.71617,-3.54853c-0.15308,-1.00808 0.1398,-2.54512 0.86843,-3.40931c1.00292,-1.18954 2.75924,-1.5794 4.66022,-1.86807c3.28198,-0.49838 7.95575,2.22785 8.31956,4.62357z"/><path d="M235.84541,215.84182c-0.84006,-3.35717 1.67007,-6.86889 5.60655,-7.84367c3.93646,-0.97478 7.80863,0.95655 8.64869,4.31372c0.84006,3.35717 -1.67006,6.8689 -5.60654,7.84368c-3.93646,0.97478 -7.80864,-0.95655 -8.6487,-4.31374z"/></g><g><path d="M242.21579,215.66376c0.37564,2.47372 -3.42311,3.60588 -7.23017,4.18401c-1.6716,0.25384 -3.08239,0.63364 -4.26438,0.15519c-1.50998,-0.61123 -2.5939,-2.27654 -2.8046,-3.66411c-0.15807,-1.04092 0.14436,-2.62801 0.89669,-3.52033c1.03558,-1.22827 2.84909,-1.63083 4.81195,-1.92889c3.38888,-0.51462 8.21486,2.30041 8.59051,4.77413z" fill="#36c651" stroke="none" stroke-width="0"/><path d="M237.87008,209.21635c0.19166,1.2621 -1.78109,2.6084 -4.40627,3.00705c-2.62518,0.39864 -4.90868,-0.30134 -5.10032,-1.56344c-0.19166,-1.2621 1.78109,-2.6084 4.40627,-3.00704c2.62518,-0.39864 4.90867,0.30133 5.10032,1.56343z" fill="#1c6225" stroke="#36c651" stroke-width="1.5"/><path d="M235.43952,213.93862c-0.86741,-3.46651 1.72445,-7.09261 5.78913,-8.09912c4.06468,-1.0065 8.06293,0.9877 8.93035,4.4542c0.86743,3.46651 -1.72445,7.0926 -5.78912,8.09912c-4.06468,1.0065 -8.06294,-0.9877 -8.93036,-4.45421z" fill="#36c651" stroke="none" stroke-width="0"/></g><path d="M227.6772,196.30221l6.18056,-0.93854l2.19471,14.45282c0,0 -0.15839,1.12668 -2.66403,1.62161c-2.49217,0.35484 -3.44921,-0.19415 -3.44921,-0.19415z" fill="#fcdc48" stroke="none" stroke-width="0"/></g><g><path d="M226.138,189.14003c1.34951,-8.14049 7.85331,-13.84282 14.52661,-12.73652c6.67331,1.1063 10.39461,8.70071 9.06461,16.84443c-1.9334,11.83844 -7.27836,13.74122 -13.95166,12.63491c-6.67331,-1.1063 -10.98907,-8.6023 -9.63954,-16.7428z" fill="#fcdda0" stroke="#00beff" stroke-width="0" stroke-linecap="butt"/><path d="M249.11928,186.54456c0,0 -3.82582,1.08557 -6.32144,0.6159c-2.81642,-0.53005 -9.73129,-3.63698 -9.73129,-3.63698" fill="none" stroke="#c5ab79" stroke-width="2" stroke-linecap="round"/><path d="M247.79624,177.35832c-0.2839,1.9347 -3.20273,3.10852 -6.51934,2.62182c-3.31661,-0.48671 -5.77509,-2.44962 -5.4912,-4.38433c0.2839,-1.9347 3.20272,-3.10852 6.51934,-2.62182c3.31661,0.48671 5.77509,2.44962 5.4912,4.38433z" fill="#a28650" stroke="#fcdda0" stroke-width="4.5" stroke-linecap="butt"/><path d="M248.93402,193.97576c0,0 -4.90462,0.9335 -7.11664,0.51721c-2.93286,-0.55196 -8.9361,-3.53828 -8.9361,-3.53828" fill="none" stroke="#c5ab79" stroke-width="2" stroke-linecap="round"/><path d="M238.61428,176.78159l1.05417,-5.26167l5.20271,0.92296l-1.05417,5.26167c0,0 -1.64619,0.06625 -2.45678,-0.07754c-0.91172,-0.16173 -2.74593,-0.84542 -2.74593,-0.84542z" fill="#d2a31f" stroke="none" stroke-width="0" stroke-linecap="butt"/><path d="M230.27706,184.72545c-0.20596,-3.21814 1.58369,-5.95216 3.99728,-6.10663c2.4136,-0.15447 4.53718,2.3291 4.74314,5.54724c0.20596,3.21813 -1.58367,5.95216 -3.99728,6.10664c-2.4136,0.15446 -4.53717,-2.32912 -4.74313,-5.54726z" fill="#a28650" stroke="none" stroke-width="NaN" stroke-linecap="butt"/><path d="M246.40582,201.38659c0,0 -3.80564,1.31942 -6.46432,0.81907c-2.69182,-0.5066 -9.90784,-3.7837 -9.90784,-3.7837" fill="none" stroke="#c5ab79" stroke-width="2" stroke-linecap="round"/><path d="M233.55509,188.55746c-1.31154,7.33067 -2.63288,12.6316 -7.35,11.78765c-4.71712,-0.84395 -7.4779,-7.47079 -6.16635,-14.80146c1.31154,-7.33066 7.82737,-12.5941 12.5445,-11.75016c4.71712,0.84395 2.28341,7.43329 0.97186,14.76395z" fill="#3ddf5b" stroke="#000000" stroke-width="0" stroke-linecap="butt"/><g fill="none" stroke="#2b9638" stroke-width="1.5" stroke-linecap="round"><path d="M223.1627,178.52111l1.97741,3.6071l-2.51178,8.91627l-2.1699,1.28661" data-paper-data="{&quot;origPos&quot;:null}"/><path d="M226.57749,195.16035l-3.74406,-3.99361l2.27666,-9.09226l4.08174,-0.12978" data-paper-data="{&quot;origPos&quot;:null}"/></g><path d="M233.51425,188.47024c-1.2354,6.90505 -1.27606,14.72587 -5.07197,15.07417c-0.39167,0.03593 -3.01182,-1.45574 -3.26831,-2.7835c-0.25648,-1.32775 0.53149,-2.30866 1.67408,-5.46964c0.76118,-2.10584 0.74481,-4.80797 1.28973,-7.85369c0.80367,-4.49201 0.42853,-5.75372 1.68775,-9.16614c1.25922,-3.41243 2.07073,-4.85493 3.39857,-4.61737c4.71712,0.84395 6.17984,1.39094 4.63767,3.08804c-0.64972,0.71501 -2.04143,1.90664 -2.63772,3.44731c-1.37762,3.55946 -1.70981,8.2808 -1.70981,8.2808z" fill="#ffffff" stroke="none" stroke-width="0" stroke-linecap="butt"/></g><g><path d="M236.77673,180.26025c1.07362,1.71157 -1.45943,5.8945 -1.45943,5.8945l-1.23323,6.35378l1.49123,0.66744l1.02311,1.61184l0.24633,3.06322l-0.76864,3.80834l-1.05481,0.85446l-1.57096,-0.44873l-1.67115,0.50594l-2.48574,-0.65824l-1.81016,0.20747l-1.55049,-1.18461l-0.64496,-1.96958l1.7938,-4.92136l1.32361,-1.25206l1.29218,-5.3216l2.3359,-4.98359c0,0 3.66972,-3.93877 4.74334,-2.2272z" data-paper-data="{&quot;origPos&quot;:null}" fill="#fcdc48" stroke="#000000" stroke-width="0" stroke-linecap="round"/><path d="M229.55465,201.78985c-0.72808,0.10358 -0.85982,-0.60038 -0.85982,-0.60038l0.06637,-0.13516c-0.31989,-0.64333 -0.40522,-1.12985 -0.42343,-1.81992c0,0 -0.01875,-0.71151 0.72092,-0.70616c0.73969,0.00537 0.75845,0.71688 0.75845,0.71688c0.01505,0.5707 0.04056,0.75802 0.2753,1.2301l0.05859,0.50709c0,0 0.13174,0.70396 -0.59637,0.80754z" data-paper-data="{&quot;origPos&quot;:null}" fill="#d2a31f" stroke="none" stroke-width="0.5" stroke-linecap="butt"/><path d="M233.16332,201.74663c-0.72358,0.09119 -0.86336,-0.59075 -0.86336,-0.59075l0.06443,-0.12978c-0.32633,-0.62564 -0.41724,-1.09683 -0.44383,-1.76391c0,0 -0.02742,-0.68782 0.70902,-0.67359c0.73643,0.01424 0.76384,0.70206 0.76384,0.70206c0.02197,0.5517 0.04968,0.73302 0.28915,1.19212l0.06454,0.49078c0,0 0.13977,0.68189 -0.58382,0.77306z" data-paper-data="{&quot;origPos&quot;:null}" fill="#d2a31f" stroke="none" stroke-width="0.5" stroke-linecap="butt"/></g><g><g stroke-width="0"><path d="M259.89237,161.6209c0.18693,8.10443 -6.34037,14.8284 -14.57912,15.01842c-8.23874,0.19001 -15.06911,-6.22587 -15.25604,-14.33029c-0.18692,-8.10443 6.34038,-14.82839 14.57913,-15.0184c8.23875,-0.19001 15.0691,6.22586 15.25602,14.33028z" fill="#fcdc48" stroke="none" stroke-linecap="butt"/><path d="M246.20896,146.85616c0.13656,5.92115 -2.60569,7.48228 -6.03105,7.56129c-3.42534,0.079 -6.23387,-1.23244 -6.37323,-7.2752c-0.0945,-4.09698 2.88946,-7.48884 7.16608,-7.58747c4.15501,-0.09582 5.14371,3.2044 5.23821,7.30139z" fill="#ffdd32" stroke="#ff0000" stroke-linecap="butt"/><path d="M254.29657,146.32288c0.13656,5.92115 -0.98422,7.44489 -4.40956,7.5239c-1.71393,0.03953 -7.92508,-4.21864 -7.9947,-7.23781c-0.0945,-4.09698 1.10582,-7.4477 5.38246,-7.54634c4.15501,-0.09582 6.92734,3.16326 7.02183,7.26024z" fill="#ffdd32" stroke="#ff0000" stroke-linecap="butt"/><path d="M240.73341,160.9544c0.13321,5.77608 -2.92481,10.17981 -6.82031,10.26965c-3.8955,0.08984 -7.18168,-5.39862 -7.3149,-11.1747c-0.13321,-5.77608 2.93698,-9.65248 6.83248,-9.74233c3.8955,-0.08984 7.16951,4.87129 7.30273,10.64737z" fill="#fcdc48" stroke="#d2a31f" stroke-linecap="butt"/><path d="M246.85994,147.87456c-0.02801,3.52165 -2.30098,5.53077 -5.05379,5.48756c-2.7528,-0.04321 -4.94301,-2.12239 -4.915,-5.64405c0.02801,-3.52165 2.58416,-7.32186 5.33697,-7.27865c2.7528,0.04321 4.65984,3.91348 4.63185,7.43516z" fill="#ffffff" stroke="none" stroke-linecap="butt"/><path d="M254.0664,147.01962c-0.02801,3.52165 -2.30099,5.53075 -5.0538,5.48755c-2.7528,-0.04321 -4.943,-2.12238 -4.915,-5.64404c0.02801,-3.52165 1.9393,-7.14476 4.6921,-7.10155c2.7528,0.04321 5.30469,3.73638 5.27669,7.25805z" fill="#ffffff" stroke="none" stroke-linecap="butt"/><path d="M245.36124,147.62393c0.0148,1.98006 -0.59511,3.61239 -1.36228,3.64588c-0.76717,0.03351 -1.40108,-1.54452 -1.41588,-3.52458c-0.0148,-1.98006 0.59513,-3.61239 1.36228,-3.64587c0.76717,-0.03351 1.40108,1.54451 1.41588,3.52458z" fill="#000000" stroke="none" stroke-linecap="butt"/><path d="M251.14815,147.03484c0.0148,1.98006 -0.59511,3.61238 -1.36228,3.64586c-0.76717,0.03351 -1.40108,-1.54451 -1.41588,-3.52458c-0.0148,-1.98006 0.59512,-3.61239 1.36228,-3.64588c0.76717,-0.03351 1.40107,1.54453 1.41587,3.52459z" fill="#000000" stroke="none" stroke-linecap="butt"/><path d="M239.86911,169.69281l2.8321,-3.81987l15.50731,3.11878l-2.52108,3.05419c0,0 -5.69086,-1.39706 -8.31485,-1.58495c-2.75539,-0.19731 -7.76223,0.07215 -7.76223,0.07215z" fill="#d2a31f" stroke="#d2a31f" stroke-linecap="round"/></g><g stroke-linecap="round"><path d="M247.32452,153.15078c0,0 6.61237,-3.66854 10.77704,-1.22195c13.47962,7.91871 2.61054,23.95037 2.61054,23.95037c0,0 -5.35407,-4.75902 -8.88766,-6.05376c-3.2455,-1.18919 -10.66611,-1.44469 -10.66611,-1.44469" fill="#fcdc48" stroke="#d2a31f" stroke-width="0"/><path d="M251.4025,155.24625c0,0 1.17425,0.85005 1.67406,1.35462c0.49521,0.49993 1.31114,1.65898 1.31114,1.65898" fill="none" stroke="#996c1c" stroke-width="1.5"/><path d="M260.68406,155.22838l-1.26932,2.92987" data-paper-data="{&quot;index&quot;:null}" fill="none" stroke="#996c1c" stroke-width="1.5"/><path d="M237.3266,156.24596c0,0 3.95749,0.84716 4.08349,7.16476c0.139,6.96982 -3.35473,8.04228 -3.35473,8.04228" fill="none" stroke="#d2a31f" stroke-width="2"/></g></g></g></g></svg>