<svg version="1.1" xmlns="http://www.w3.org/2000/svg" xmlns:xlink="http://www.w3.org/1999/xlink" width="121.05473" height="227.50967" viewBox="0,0,121.05473,227.50967"><defs><linearGradient x1="186.8433" y1="193.67813" x2="307.85872" y2="193.67813" gradientUnits="userSpaceOnUse" id="color-1"><stop offset="0" stop-color="#ff9e52"/><stop offset="1" stop-color="#ffe787"/></linearGradient><linearGradient x1="186.88261" y1="281.29055" x2="307.89803" y2="281.29055" gradientUnits="userSpaceOnUse" id="color-2"><stop offset="0" stop-color="#ff9e52"/><stop offset="1" stop-color="#ffe686"/></linearGradient></defs><g transform="translate(-186.8433,-138.32002)"><g data-paper-data="{&quot;isPaintingLayer&quot;:true}" fill-rule="nonzero" stroke-linecap="butt" stroke-linejoin="miter" stroke-miterlimit="10" stroke-dasharray="" stroke-dashoffset="0" style="mix-blend-mode: normal"><path d="M247.35101,138.32002c16.6936,0 31.82053,6.20337 42.77389,16.22422c10.9537,10.02145 17.73382,23.86098 17.73382,39.1339c0,15.273 -6.78012,29.11253 -17.73382,39.13398c-10.95335,10.02085 -26.08028,16.22413 -42.77389,16.22413c-16.69369,0 -31.82062,-6.20328 -42.77389,-16.22413c-10.9537,-10.02145 -17.73382,-23.86098 -17.73382,-39.13398c0,-15.27292 6.78012,-29.11245 17.73382,-39.1339c10.95327,-10.02085 26.0802,-16.22422 42.77389,-16.22422z" data-paper-data="{&quot;origPos&quot;:null}" fill="url(#color-1)" stroke="none" stroke-width="0.55092"/><path d="M186.88261,196.75141h121.01542v169.07828h-121.01542z" data-paper-data="{&quot;origPos&quot;:null}" fill="url(#color-2)" stroke="none" stroke-width="1.16723"/><path d="M279.25486,228.66616c4.74007,0 8.58265,6.71085 8.58265,14.98911c0,8.27825 -3.84258,14.98911 -8.58265,14.98911c-4.74007,0 -8.58265,-6.71085 -8.58265,-14.98911c0,-8.27825 3.84258,-14.98911 8.58265,-14.98911z" data-paper-data="{&quot;origPos&quot;:null,&quot;index&quot;:null}" fill="#fff3b3" stroke="#000000" stroke-width="0"/><path d="M202.86925,220.45622c0,7.39475 -2.39422,13.38937 -5.34765,13.38937c-2.95342,0 -5.34765,-5.99463 -5.34765,-13.38937c0,-7.39475 2.39422,-13.38937 5.34765,-13.38937c2.95342,0 5.34765,5.99463 5.34765,13.38937z" data-paper-data="{&quot;origPos&quot;:null,&quot;index&quot;:null}" fill="#ffeab3" stroke="#000000" stroke-width="0"/><path d="M244.92425,161.82951c0,7.39475 -2.39423,13.38937 -5.34765,13.38937c-2.95342,0 -5.34765,-5.99462 -5.34765,-13.38937c0,-7.39475 2.39422,-13.38938 5.34765,-13.38938c2.95342,0 5.34765,5.99463 5.34765,13.38938z" data-paper-data="{&quot;origPos&quot;:null,&quot;index&quot;:null}" fill="#ffeab3" stroke="#000000" stroke-width="0"/><path d="M228.84464,181.9821c1.82991,0 3.77352,-0.08421 4.97283,3.47566c1.20078,3.55987 1.94336,8.47511 1.94336,13.90064c0,5.42552 -0.74257,10.34077 -1.94336,13.90064c-1.19931,3.55987 -2.85684,3.76175 -4.68675,3.76175c-1.82991,0 -3.48743,-0.20188 -4.68674,-3.76175c-1.20078,-3.55987 -1.94336,-8.47511 -1.94336,-13.90064c0,-5.42552 0.74257,-10.34077 1.94336,-13.90064c1.19931,-3.55987 2.57075,-3.47566 4.40065,-3.47566z" data-paper-data="{&quot;origPos&quot;:null}" fill="#31353b" stroke="none" stroke-width="1"/><path d="M263.46134,181.696c1.82991,0 3.77353,-0.08421 4.97284,3.47566c1.20078,3.55987 1.94336,8.47511 1.94336,13.90064c0,5.42552 -0.74257,10.34077 -1.94336,13.90064c-1.19931,3.55987 -2.85684,3.76174 -4.68675,3.76174c-1.82991,0 -3.48743,-0.20187 -4.68674,-3.76174c-1.20078,-3.55987 -1.94336,-8.47511 -1.94336,-13.90064c0,-5.42552 0.74257,-10.34077 1.94336,-13.90064c1.19931,-3.55987 2.57075,-3.47566 4.40065,-3.47566z" data-paper-data="{&quot;origPos&quot;:null}" fill="#31353b" stroke="none" stroke-width="1"/><path d="M216.86925,300.45622c0,7.39475 -2.39422,13.38937 -5.34765,13.38937c-2.95342,0 -5.34765,-5.99463 -5.34765,-13.38937c0,-7.39475 2.39422,-13.38937 5.34765,-13.38937c2.95342,0 5.34765,5.99463 5.34765,13.38937z" data-paper-data="{&quot;index&quot;:null}" fill="#ffeab3" stroke="#000000" stroke-width="0"/></g></g></svg>