<svg version="1.1" xmlns="http://www.w3.org/2000/svg" xmlns:xlink="http://www.w3.org/1999/xlink" width="648.60975" height="270.5" viewBox="0,0,648.60975,270.5"><g transform="translate(83.2439,-134)"><g data-paper-data="{&quot;isPaintingLayer&quot;:true}" fill-rule="nonzero" stroke-linecap="butt" stroke-linejoin="miter" stroke-miterlimit="10" stroke-dasharray="" stroke-dashoffset="0" style="mix-blend-mode: normal"><path d="M130,335l60.86667,-32h96.4l60.73334,32l1.30241,10.58701l-222.07664,1.41299z" data-paper-data="{&quot;index&quot;:null}" fill="#ececec" stroke="none" stroke-width="0"/><g data-paper-data="{&quot;index&quot;:null}" fill="#cc1919" stroke="none"><path d="M563.68293,236h-199.68293l53,-26h146.68293z" stroke-width="1"/><path d="M410,258h-47.0087l-38.9913,-26h134.011z" stroke-width="0.85398"/></g><path d="M-82.8,335h647v31h-647z" data-paper-data="{&quot;origPos&quot;:null,&quot;index&quot;:null}" fill="#ececec" stroke="none" stroke-width="1"/><path d="M198.0494,134h80.9736l44.974,26h-37.526l-15.4988,-14h-64.0071l-15.5067,14h-36.4614z" data-paper-data="{&quot;index&quot;:null}" fill="#cc1919" stroke="none" stroke-width="1.17703"/><g data-paper-data="{&quot;index&quot;:null}" fill="#cc1919" stroke="none"><path d="M-83.2439,210h144.2439l53,26h-197.2439z" stroke-width="1"/><path d="M19.989,232h134.011l-40,26h-46z" stroke-width="0.85398"/></g><path d="M-1.5,384.5v-50.5h43.5v50.5z" data-paper-data="{&quot;origPos&quot;:null,&quot;index&quot;:null}" fill="#616161" stroke="none" stroke-width="0"/><path d="M87,384.5v-50.5h43.5v50.5z" data-paper-data="{&quot;origPos&quot;:null,&quot;index&quot;:null}" fill="#616161" stroke="none" stroke-width="0"/><path d="M348,384.5v-50.5h43.5v50.5z" data-paper-data="{&quot;origPos&quot;:null,&quot;index&quot;:null}" fill="#616161" stroke="none" stroke-width="0"/><path d="M434.5,384.5v-50.5h43.5v50.5z" data-paper-data="{&quot;origPos&quot;:null,&quot;index&quot;:null}" fill="#616161" stroke="none" stroke-width="0"/><path d="M174.5,345.5v-33.1l16.84246,-8.98067l26.65755,0.08067v42z" data-paper-data="{&quot;index&quot;:null}" fill="#616161" stroke="none" stroke-width="0"/><path d="M260.5,346v-42.5h27.01666l16.28334,8.8l0.2,33.7z" data-paper-data="{&quot;origPos&quot;:null,&quot;index&quot;:null}" fill="#616161" stroke="none" stroke-width="0"/><path d="M217.5,396v-50.5h43.5v50.5z" data-paper-data="{&quot;origPos&quot;:null,&quot;index&quot;:null}" fill="#616161" stroke="none" stroke-width="0"/><path d="M131.5,404v-35l43,-24l0.5,59z" data-paper-data="{&quot;origPos&quot;:null,&quot;index&quot;:null}" fill="#616161" stroke="none" stroke-width="0"/><path d="M303.5,404.5l0.5,-59l43,24v35z" data-paper-data="{&quot;origPos&quot;:null,&quot;index&quot;:null}" fill="#616161" stroke="none" stroke-width="0"/><path d="M-82.97561,363v-29h125.97561l-32.14286,27.51282z" data-paper-data="{&quot;origPos&quot;:null,&quot;index&quot;:null}" fill="#cc1919" stroke="none" stroke-width="0"/><path d="M467.42857,361.51282l-31.42857,-27.51282h129.36585v29z" data-paper-data="{&quot;origPos&quot;:null,&quot;index&quot;:null}" fill="#cc1919" stroke="none" stroke-width="0"/><g data-paper-data="{&quot;index&quot;:null}"><path d="M287.33928,303.02143c0,0 20.81977,11.3967 24.42673,12.9068c-17.48719,20.63809 -43.59673,33.73843 -72.76601,33.73843c-29.37323,0 -55.64377,-13.28417 -73.13154,-34.17241c5.02411,-1.57417 25.00654,-12.79425 25.00654,-12.79425z" data-paper-data="{&quot;index&quot;:null}" fill="#ffe105" stroke="none" stroke-width="0"/><path d="M306.01491,312.64798c-16.28582,18.69979 -40.27013,30.5187 -67.0149,30.5187c-26.80191,0 -50.83155,-11.86946 -67.11918,-30.63865c3.92167,-1.27585 18.37975,-9.70184 18.37975,-9.70184l97.06548,0.14881c0,0 16.53472,8.60497 18.68885,9.67299z" data-paper-data="{&quot;index&quot;:null}" fill="#2c3d68" stroke="none" stroke-width="0"/><path d="M279.07564,305.87366l2.60141,-2.92584l5.26824,-0.11348l14.92965,7.69635z" data-paper-data="{&quot;index&quot;:null}" fill="#c01fff" stroke="#2c3d68" stroke-width="0"/><path d="M242.91407,318.9711l26.01825,-7.21462l-6.75132,26.08585z" data-paper-data="{&quot;index&quot;:null}" fill="#c01fff" stroke="#2c3d68" stroke-width="2"/><path d="M215.81901,337.84233l-6.75132,-26.08586l26.01825,7.21462z" data-paper-data="{&quot;index&quot;:null}" fill="#c01fff" stroke="#2c3d68" stroke-width="2"/><path d="M225.5,317.66667h27l-13.47619,23.33333z" data-paper-data="{&quot;index&quot;:null}" fill="#ff1f1f" stroke="none" stroke-width="0"/><path d="M284.72421,327.95675l-23.76189,-12.7053l19.17471,-11.91585c0.59776,0.11145 1.21422,0.16972 1.8443,0.16972c0.67949,0 1.34316,-0.06777 1.98461,-0.19693z" data-paper-data="{&quot;index&quot;:null}" fill="#ff1f1f" stroke="none" stroke-width="0"/><path d="M217.03768,315.25146l-23.76189,12.7053l0.74812,-24.31829c0.76099,0.18529 1.55606,0.28351 2.37409,0.28351c0.70794,0 1.3987,-0.07356 2.06505,-0.21347z" data-paper-data="{&quot;index&quot;:null}" fill="#ff1f1f" stroke="none" stroke-width="0"/><path d="M176.24231,310.36402l14.76298,-7.69635l5.26824,0.11348l2.60141,2.92584z" data-paper-data="{&quot;index&quot;:null}" fill="#c01fff" stroke="#2c3d68" stroke-width="0"/><path d="M287.2409,302.97754c0,0 2.48474,1.29138 2.45376,1.32242c-13.26945,13.29419 -31.07128,21.35893 -50.74726,21.35893c-19.62923,0 -37.55947,-7.94273 -50.81925,-21.18092c-0.01826,-0.01823 2.77119,-1.50522 2.77119,-1.50522" data-paper-data="{&quot;index&quot;:null}" fill="#ff1f1f" stroke="#ff1f1f" stroke-width="0"/><path d="M285.90756,302.97684c-12.11753,11.91503 -28.73751,19.26539 -47.07427,19.26539c-18.33884,0 -34.96053,-7.35204 -47.07841,-19.26947" data-paper-data="{&quot;index&quot;:null}" fill="#ffe105" stroke="#ff1f1f" stroke-width="0"/></g></g></g></svg>