<svg version="1.1" xmlns="http://www.w3.org/2000/svg" xmlns:xlink="http://www.w3.org/1999/xlink" width="140.62325" height="185.5784" viewBox="0,0,140.62325,185.5784"><defs><linearGradient x1="261.11505" y1="253.22945" x2="295.70188" y2="253.22945" gradientUnits="userSpaceOnUse" id="color-1"><stop offset="0" stop-color="#8d6431"/><stop offset="1" stop-color="#ac793c"/></linearGradient><linearGradient x1="188.24301" y1="251.26537" x2="224.41281" y2="251.26537" gradientUnits="userSpaceOnUse" id="color-2"><stop offset="0" stop-color="#8d6431"/><stop offset="1" stop-color="#ac793c"/></linearGradient><linearGradient x1="244.96964" y1="170.90761" x2="244.96964" y2="224.2819" gradientUnits="userSpaceOnUse" id="color-3"><stop offset="0" stop-color="#4f6af7"/><stop offset="1" stop-color="#4758dd"/></linearGradient><linearGradient x1="274.94599" y1="119.13055" x2="274.94599" y2="132.4539" gradientUnits="userSpaceOnUse" id="color-4"><stop offset="0" stop-color="#349fc7"/><stop offset="1" stop-color="#297299"/></linearGradient><linearGradient x1="255.21854" y1="111.70762" x2="255.21854" y2="129.72297" gradientUnits="userSpaceOnUse" id="color-5"><stop offset="0" stop-color="#349fc7"/><stop offset="1" stop-color="#308fb6"/></linearGradient><linearGradient x1="244.87943" y1="118.59502" x2="244.87943" y2="130.57631" gradientUnits="userSpaceOnUse" id="color-6"><stop offset="0" stop-color="#38291e"/><stop offset="1" stop-color="#381e32"/></linearGradient><linearGradient x1="262.12053" y1="115.59218" x2="262.12053" y2="126.13673" gradientUnits="userSpaceOnUse" id="color-7"><stop offset="0" stop-color="#38291e"/><stop offset="1" stop-color="#381e32"/></linearGradient></defs><g transform="translate(-171.7292,-85.165)"><g data-paper-data="{&quot;isPaintingLayer&quot;:true}" fill-rule="nonzero" stroke-linejoin="miter" stroke-miterlimit="10" stroke-dasharray="" stroke-dashoffset="0" style="mix-blend-mode: normal"><g data-paper-data="{&quot;origPos&quot;:null,&quot;origRot&quot;:0}" stroke="none" stroke-linecap="butt"><g data-paper-data="{&quot;origPos&quot;:null,&quot;index&quot;:null,&quot;origRot&quot;:0}" stroke-width="0"><path d="M248.13417,180.81361c2.49427,-4.69421 13.08157,-4.68585 21.67748,-0.1184c8.59589,4.56746 16.08479,10.19285 16.08479,10.19285l-7.32351,14.17284c0,0 -14.31606,-5.49741 -21.22983,-9.17106c-8.5959,-4.56746 -11.70321,-10.38201 -9.20894,-15.07623z" data-paper-data="{&quot;origRot&quot;:0,&quot;origPos&quot;:null}" fill="#41c3ff"/><g data-paper-data="{&quot;origPos&quot;:null}" fill="#ffffff"><path d="M286.28867,201.03271c4.02092,-8.48426 9.4666,-18.75834 18.14685,-14.00457c6.29719,3.44868 11.11342,16.70365 5.30447,24.07973c-6.33889,8.04898 -10.70184,16.24017 -19.90386,10.00766c-8.59224,-5.81951 -7.56837,-11.59855 -3.54746,-20.08281z" data-paper-data="{&quot;origRot&quot;:0,&quot;origPos&quot;:null}"/><path d="M279.76965,196.52887c3.113,-6.54626 5.38795,-14.62231 10.21945,-11.83361c5.40497,3.11972 4.25934,4.66381 -1.09207,15.23567c-6.09626,12.04331 -4.83545,14.99385 -10.92596,11.86271c-3.55644,-1.82837 -1.31441,-8.71852 1.79857,-15.26478z" data-paper-data="{&quot;origRot&quot;:0,&quot;origPos&quot;:null}"/></g></g><path d="M303.78972,213.80984l-7.59379,-4.15783l-7.17929,3.1915l3.32493,-7.37861l-5.60737,-5.84159l8.15296,-0.0284l3.83634,-8.51578l2.125,8.91997l8.09508,2.26715l-7.40775,3.87565z" data-paper-data="{&quot;origPos&quot;:null,&quot;origRot&quot;:0}" fill="#ffe008" stroke-width="NaN"/></g><g data-paper-data="{&quot;origPos&quot;:null,&quot;origRot&quot;:0}" stroke="none" stroke-width="0" stroke-linecap="butt"><path d="M277.25501,235.47359c3.0106,3.43725 8.17528,1.66168 8.68106,2.56756c2.04636,3.66519 2.29785,7.18048 -1.90974,12.95655c-5.21203,7.15495 -10.82718,10.83504 -19.60022,12.01505c-5.9752,0.80368 -4.00366,-4.0915 -5.96063,-9.79407c-0.70221,-2.04624 -1.93729,-4.47448 -4.88231,-9.04412c-3.68204,-5.71323 -11.13505,-23.15754 -11.13505,-23.15754c0,0 5.73403,-4.57049 10.24813,-6.93747c3.56247,-1.86799 11.06381,-3.12691 11.06381,-3.12691c0,0 6.53559,16.57533 13.49494,24.52095z" data-paper-data="{&quot;origPos&quot;:null}" fill="#4758dd"/><path d="M296.58518,248.52734c2.40433,3.06879 0.4144,6.96127 -1.90659,10.09356c-1.52105,2.05273 -11.14111,9.14566 -17.94938,10.06858c-2.11367,0.28652 -4.79959,-0.71804 -4.79959,-0.71804c0,0 -3.49637,3.70419 -4.3834,2.54856c-0.70414,-0.91735 -1.94148,-2.44948 -1.42957,-3.61293c2.20353,-5.00812 11.20056,-12.04924 15.50754,-15.42366c5.91252,-4.63233 12.61078,-5.95579 14.96101,-2.95606z" data-paper-data="{&quot;origPos&quot;:null}" fill="#f8dca0"/><path d="M295.04839,243.51026c1.7386,4.43483 0.15514,9.81908 -6.52904,15.05599c-6.68419,5.2369 -16.87197,6.96224 -16.87197,6.96224c0,0 -4.63949,4.04606 -5.71012,2.88122c-2.21591,-2.41091 -5.54714,-6.56745 -4.68194,-7.46656c3.19407,-3.31923 2.89695,-2.30191 6.80564,-6.98435c2.53068,-3.03165 5.33977,-9.90759 8.44839,-12.34312c6.68419,-5.23691 15.67642,-5.40745 18.53906,1.89459z" data-paper-data="{&quot;origPos&quot;:null}" fill="url(#color-1)"/></g><g data-paper-data="{&quot;origPos&quot;:null,&quot;origRot&quot;:0}" stroke="none" stroke-width="0" stroke-linecap="butt"><path d="M223.14357,243.97968c-2.29678,3.95008 1.0341,8.2781 0.33699,9.04652c-2.82052,3.109 -6.07175,4.46915 -12.88854,2.32482c-8.44412,-2.65623 -13.72369,-6.80339 -17.64165,-14.74116c-2.66848,-5.40632 2.59991,-5.10001 7.37981,-8.77447c1.71516,-1.31849 3.6223,-3.26389 7.01319,-7.51319c4.2395,-5.31274 18.39332,-17.94288 18.39332,-17.94288c0,0 6.16136,3.97568 9.84512,7.49841c2.90717,2.78009 6.49411,9.48746 6.49411,9.48746c0,0 -13.62305,11.4834 -18.93235,20.61448z" data-paper-data="{&quot;origPos&quot;:null}" fill="#4758dd"/><path d="M216.94099,266.46488c-2.14107,3.25793 -6.46506,2.61421 -10.17425,1.41416c-2.4308,-0.78646 -12.22282,-7.64002 -15.27014,-13.79779c-0.94605,-1.91172 -0.85115,-4.77778 -0.85115,-4.77778c0,0 -4.62628,-2.13147 -3.81415,-3.34091c0.64468,-0.96007 1.70184,-2.62166 2.96783,-2.50779c5.44946,0.49013 14.99356,6.76976 19.56599,9.7747c6.27693,4.12511 9.66876,10.05081 7.57586,13.23542z" data-paper-data="{&quot;origPos&quot;:null}" fill="#f8dca0"/><path d="M221.20533,263.40738c-3.64812,3.06294 -9.25618,3.2805 -16.35233,-1.38299c-7.09615,-4.6635 -11.9824,-13.76802 -11.9824,-13.76802c0,0 -5.31507,-3.10573 -4.55279,-4.4921c1.57771,-2.86942 4.45387,-7.35291 5.58207,-6.81988c4.16497,1.96784 3.10603,2.0109 8.79099,4.22096c3.68073,1.4309 11.0936,1.89885 14.39381,4.06771c7.09615,4.6635 10.12738,13.13114 4.12067,18.17433z" data-paper-data="{&quot;origPos&quot;:null}" fill="url(#color-2)"/></g><g data-paper-data="{&quot;origPos&quot;:null}"><path d="M270.72766,194.0783c0.39163,21.17353 -7.36176,30.41297 -28.3,30.2c-21.9365,-0.22312 -23.2,-12.78796 -23.2,-22.95c0,-11.02412 -0.93148,-20.04986 7.57136,-27.06648c6.33487,-5.22759 13.21535,-2.78352 21.42864,-2.78352c15.18783,0 22.11612,1.84521 22.5,22.6z" data-paper-data="{&quot;origPos&quot;:null}" fill="url(#color-3)" stroke="none" stroke-width="0" stroke-linecap="butt"/><path d="M270.97766,193.4783c0,0 -17.24385,2 -29.4,2.4c-11.15011,0.36689 -22.4,-3.4 -22.4,-3.4c0,0 -0.98648,-13.79564 6.98462,-19.16002c5.21526,-3.50975 11.08038,-4.65914 18.61538,-4.83998c7.535,-0.18084 15.72889,2.13912 19.52206,5.21215c8.95988,7.25886 6.67794,19.78785 6.67794,19.78785z" data-paper-data="{&quot;origPos&quot;:null}" fill="#41c3ff" stroke="none" stroke-width="0" stroke-linecap="butt"/><path d="M257.08548,172.36961c0,0 2.14029,6.84028 2.57206,10.95319c0.55457,5.28272 -0.57997,15.20846 -0.57997,15.20846" data-paper-data="{&quot;origPos&quot;:null,&quot;origRot&quot;:0}" fill="none" stroke="#5063f7" stroke-width="10" stroke-linecap="round"/><path d="M235.57766,172.8783c0,0 1.23985,7.05925 1.13735,11.19349c-0.13165,5.31011 -2.53735,15.00651 -2.53735,15.00651" data-paper-data="{&quot;origPos&quot;:null}" fill="none" stroke="#5063f7" stroke-width="10" stroke-linecap="round"/><path d="M231.96113,202.6923l0.47856,-4.16533l-2.74233,-2.63761l3.91676,0.14425l1.59649,-3.58172l1.50128,3.65183l4.5202,0.16603l-3.61311,2.58175l0.46103,4.045l-3.09091,-2.61517z" data-paper-data="{&quot;origPos&quot;:null,&quot;origRot&quot;:0}" fill="#ffe008" stroke="none" stroke-width="NaN" stroke-linecap="butt"/><path d="M257.35407,202.4504l-0.09884,-4.19156l-3.07901,-2.23539l3.89937,-0.39579l1.08873,-3.76726l1.98925,3.41067l4.50007,-0.45721l-3.2237,3.05412l1.01296,3.94315l-3.4212,-2.16523z" data-paper-data="{&quot;origPos&quot;:null,&quot;origRot&quot;:0}" fill="#ffe008" stroke="none" stroke-width="NaN" stroke-linecap="butt"/></g><g data-paper-data="{&quot;origPos&quot;:null,&quot;origRot&quot;:0}" stroke="none" stroke-linecap="butt"><g data-paper-data="{&quot;origPos&quot;:null}" stroke-width="0"><path d="M205.65992,204.4499l-8.84566,-13.2762c0,0 6.82099,-6.41894 14.85917,-11.9088c8.0382,-5.48987 14.05964,-4.16879 17.05765,0.22086c2.99801,4.38965 2.55266,9.51212 -5.48553,15.00199z" data-paper-data="{&quot;origRot&quot;:0,&quot;origPos&quot;:null}" fill="#41c3ff"/><g data-paper-data="{&quot;origPos&quot;:null}" fill="#ffffff"><path d="M196.24088,221.65141c-8.45649,7.21174 -13.69835,-0.44684 -20.88834,-7.7456c-6.58889,-6.68856 -3.26776,-20.39478 2.60952,-24.51858c8.10142,-5.68436 14.64969,3.92462 19.58402,11.91227c4.93434,7.98765 6.59091,13.61807 -1.30521,20.3519z" data-paper-data="{&quot;origRot&quot;:0,&quot;origPos&quot;:null}"/><path d="M207.0025,211.07483c-5.70698,3.78536 -4.78014,0.7135 -12.1706,-10.58191c-6.4875,-9.91535 -7.79683,-11.32332 -2.76994,-15.02152c4.49354,-3.30581 7.64749,4.46919 11.4652,10.63111c3.81771,6.16191 6.80781,12.76195 3.47534,14.97232z" data-paper-data="{&quot;origRot&quot;:0,&quot;origPos&quot;:null}"/></g></g><path d="M175.25212,204.38308l7.92652,-3.48185l1.84967,-7.63588l3.81932,7.13527l8.04927,-0.88072l-4.95014,6.47824l4.40857,8.2341l-8.36482,-3.7565l-6.73398,5.03226l1.44685,-8.23419z" data-paper-data="{&quot;origPos&quot;:null,&quot;origRot&quot;:0}" fill="#ffe008" stroke-width="NaN"/></g><g data-paper-data="{&quot;origPos&quot;:null}"><path d="M287.89953,123.8539c-0.56793,3.79329 -11.88998,8.6 -20.8,8.6c-7.1797,0 -5.4,-6.75492 -5.4,-10.4c0,-3.64508 14.0703,-2.85 21.25,-2.85c7.1797,0 5.31761,2.19464 4.95,4.65z" data-paper-data="{&quot;origPos&quot;:null}" fill="url(#color-4)" stroke="none" stroke-width="0" stroke-linecap="butt"/><path d="M212.74262,165.23552c-1.88302,-1.368 -2.34219,-3.637 -0.85476,-6.37559c1.72578,-3.17745 1.08123,-8.21818 2.96425,-6.85018c0,0 7.23293,1.02169 7.79114,3.9154c0,0 3.0507,8.35652 1.80057,9.69315c0,0 -1.78179,1.32182 -6.42716,1.10231c-2.51693,-0.11893 -3.39102,-0.11707 -5.27403,-1.48508z" data-paper-data="{&quot;origRot&quot;:0,&quot;origPos&quot;:null}" fill="#e7be7a" stroke="none" stroke-width="0" stroke-linecap="butt"/><path d="M219.48286,126.13723c4.31396,1.0071 37.24301,-2.16822 43.0368,-1.8462c8.57182,0.47642 6.20204,8.21361 6.80713,16.77732c0.69572,9.84642 7.56286,14.33038 4.11388,23.57918c-1.32977,3.56593 -5.57109,6.18206 -8.56062,8.53723c-1.69594,1.33607 -4.01231,5.30061 -14.80054,5.5225c-18.91647,-3.76969 -24.18277,-8.72429 -27.36091,-12.69741c-3.28722,-3.79189 -1.91707,-5.03225 -5.0923,-9.83925c-0.97333,-1.47352 -2.12747,-2.25956 -2.322,-2.25956c-10.37042,0 -16.07143,-8.56649 -16.07143,-16.66666c0,-8.10018 3.70101,-14.66666 9.5,-14.66666c5.79899,0 9.25,3.20935 10.75,3.55952z" data-paper-data="{&quot;origPos&quot;:null}" fill="#ffdebd" stroke="none" stroke-width="0" stroke-linecap="butt"/><path d="M267.66619,131.34364c0.35235,4.88885 -1.81808,9.02906 -4.84779,9.24741c-3.02971,0.21836 -5.7714,-3.56782 -6.12375,-8.45666c-0.35235,-4.88885 1.81808,-9.02905 4.84779,-9.24741c3.02971,-0.21836 5.77141,3.56782 6.12376,8.45666z" data-paper-data="{&quot;origPos&quot;:null,&quot;origRot&quot;:0}" fill="#ffffff" stroke="none" stroke-width="0" stroke-linecap="butt"/><path d="M229.89286,133.9607c0,2.60849 3.85805,10.02393 1.51211,11.16446c-2.72909,1.32681 -3.54387,-2.9338 -7.19783,-2.25017c-2.71433,0.50783 -4.45714,-4.78172 -4.45714,-9.2c0,-4.41828 -0.01669,-8.69821 2.74286,-8.8c11.61857,-0.42857 7.4,4.66744 7.4,9.08571z" data-paper-data="{&quot;origPos&quot;:null}" fill="#e7be7a" stroke="none" stroke-width="0" stroke-linecap="butt"/><path d="M254.64298,136.34836c0.57094,4.86816 -1.41189,9.10142 -4.42877,9.45524c-3.01689,0.35383 -5.92541,-3.30577 -6.49635,-8.17393c-0.57094,-4.86816 1.41189,-9.10142 4.42877,-9.45524c3.01689,-0.35383 5.92541,3.30577 6.49635,8.17393z" data-paper-data="{&quot;origPos&quot;:null,&quot;origRot&quot;:0}" fill="#ffffff" stroke="none" stroke-width="0" stroke-linecap="butt"/><path d="M251.85,132.70002c0.952,0 1.814,0.695 2.439,1.817c0.624,1.122 1.011,2.672 1.011,4.383c0,1.711 -0.387,3.261 -1.011,4.383c-0.625,1.122 -1.487,1.817 -2.439,1.817c-0.952,0 -1.814,-0.695 -2.439,-1.817c-0.624,-1.122 -1.011,-2.672 -1.011,-4.383c0,-1.711 0.387,-3.261 1.011,-4.383c0.625,-1.122 1.487,-1.817 2.439,-1.817z" data-paper-data="{&quot;origPos&quot;:null}" id="ID0.2989244391210377" fill="#000000" stroke="#ffe008" stroke-width="2" stroke-linecap="butt"/><path d="M264.85,128.15002c0.952,0 1.814,0.695 2.439,1.817c0.624,1.122 0.775,2.904 1.011,4.383c0.083,0.539 0.233,1.323 -0.15,1.8c-0.483,0.577 -1.281,0.853 -2,1.1c-1.256,0.26 -2.748,1.037 -3.85,0.4c-0.966,-0.58 -0.89,-2.138 -0.9,-3.3c-0.013,-1.501 0.387,-3.261 1.011,-4.383c0.625,-1.122 1.487,-1.817 2.439,-1.817z" data-paper-data="{&quot;origPos&quot;:null}" id="ID0.2989244391210377" fill="#000000" stroke="#ffe008" stroke-width="2" stroke-linecap="round"/><path d="M273.79349,96.82855c2.39648,14.94461 -0.49216,15.79448 -8.52168,20.57884c-11.69967,6.97121 -27.00365,5.55994 -39.50062,10.97342c-3.28137,1.42143 -11.64483,-2.03217 -15.22084,-2.03217c-7.31398,0 -11.44089,-5.22725 -11.74313,-11.45342c-0.66666,-13.7335 6.09582,-13.78676 13.4098,-13.78676c0,0 8.04926,1.33414 10.82961,5.60456c0,0 11.19763,-18.21899 23.00151,-20.46979c15.1949,-2.89741 26.02436,-0.14688 27.74535,10.58532z" data-paper-data="{&quot;origPos&quot;:null}" fill="#41c3ff" stroke="none" stroke-width="0" stroke-linecap="butt"/><path d="M270.89953,105.3539c0,5.46762 -1.46317,9.58116 -12.2,9.9c-11.33464,0.33659 -12.2,-4.43238 -12.2,-9.9c0,-5.46762 5.46212,-9.9 12.2,-9.9c6.73787,0 12.2,4.43238 12.2,9.9z" data-paper-data="{&quot;origPos&quot;:null}" fill="#ffffff" stroke="none" stroke-width="0" stroke-linecap="butt"/><path d="M288.29953,121.7539c-0.2,0.85848 -39.34284,6.5 -50.3,7.7c-5.32532,0.58322 -16.1,0.15848 -15.9,-0.7c0.73933,-3.1735 2.8049,-8.24498 7.9,-9.9c6.15716,-2 27.29511,-7.38005 43.10212,-7.1384c6.46182,0.09879 15.93721,6.8649 15.19788,10.0384z" data-paper-data="{&quot;origPos&quot;:null}" fill="url(#color-5)" stroke="none" stroke-width="0" stroke-linecap="butt"/><path d="M254.2034,111.59418l0.18849,-3.45889l5.09724,-0.74498l-1.45114,-1.76959l-3.62565,-0.45434l-1.99342,-3.01392l1.9556,-2.81852l7.89963,-1.24007l1.73259,3.27111l-7.32518,0.57178l4.13196,1.53006l3.06427,2.53879l0.28922,2.58669l-2.24917,1.64784z" data-paper-data="{&quot;origPos&quot;:null,&quot;origRot&quot;:0}" fill="#ffe008" stroke="none" stroke-width="0" stroke-linecap="butt"/><path d="M268.23037,169.54034c-3.21733,0.20214 -7.84599,-0.72468 -15.34899,-1.96359c-9.7284,-1.60637 -11.10928,-8.44609 -11.10928,-8.44609c0,0 -3.6461,-1.33232 -5.675,-2.475c-1.58811,-0.89443 0.32605,-6.49937 1.18005,-6.66272c4.97377,-0.95139 6.45569,3.43243 10.27828,5.49605c0,0 12.7819,4.20754 18.75328,3.86744c0,0 9.6388,-4.51103 12.62642,-4.31325c1.48172,0.09809 1.49141,3.20314 1.02397,4.7714c0,0 -1.29607,4.20023 -3.42128,5.67204c-2.1252,1.47181 -5.09013,3.85158 -8.30745,4.05371z" data-paper-data="{&quot;origPos&quot;:null}" fill="#e7be7a" stroke="none" stroke-width="0" stroke-linecap="butt"/><path d="M278.43042,148.98899c-0.5,6.61802 1.12741,11.125 -13.25,10.875c-6.62642,-0.11523 -13,-4.25698 -13,-10.125c0,-5.86802 6.3926,-13.11026 13,-13.625c9.62741,-0.75 14.04992,2.28715 13.25,12.875z" data-paper-data="{&quot;origPos&quot;:null}" fill="#ffdebd" stroke="none" stroke-width="0" stroke-linecap="butt"/><g data-paper-data="{&quot;origPos&quot;:null}" fill="none" stroke="#f6b09a" stroke-width="3.5" stroke-linecap="round"><path d="M205.60689,132.93213c0,0 2.96332,-1.72996 6.75499,1.19948c5.43788,4.2013 2.24501,11.37195 2.24501,11.37195" data-paper-data="{&quot;origPos&quot;:null}"/><path d="M208.32118,139.64645h6" data-paper-data="{&quot;origPos&quot;:null}"/><path d="M213.74974,145.64645h-1.28571" data-paper-data="{&quot;origPos&quot;:null}"/></g><path d="M245.01269,125.70131c-1.37576,0.41027 -1.31062,0.60464 -1.97844,1.87549c-0.68894,1.31106 -2.14657,2.99951 -2.14657,2.99951c0,0 -1.45833,-3.62706 -1.45833,-6.31945c0,-1.8281 0.99336,-5.0144 3.81107,-5.65344c9.53112,-0.32089 6.69401,8.65093 6.69401,8.65093c0,0 -3.4773,-2.0232 -4.92174,-1.55303z" data-paper-data="{&quot;origPos&quot;:null}" fill="url(#color-6)" stroke="none" stroke-width="0" stroke-linecap="butt"/><path d="M262.27348,122.89527c-1.51641,0.08916 -4.01601,3.24146 -4.01601,3.24146c0,0 -5.91454,-7.31854 3.07681,-10.49674c2.85665,-0.43291 4.94393,2.17143 5.61082,3.87354c0.98219,2.50684 0.94752,6.41595 0.94752,6.41595c0,0 -1.97313,-1.04035 -3.09287,-2.00973c-1.0854,-0.93965 -1.09566,-1.14439 -2.52627,-1.02451z" data-paper-data="{&quot;origPos&quot;:null,&quot;index&quot;:null,&quot;origRot&quot;:0}" fill="url(#color-7)" stroke="none" stroke-width="0" stroke-linecap="butt"/></g></g></g></svg>