<svg version="1.1" xmlns="http://www.w3.org/2000/svg" xmlns:xlink="http://www.w3.org/1999/xlink" width="493.51352" height="372.72596" viewBox="0,0,493.51352,372.72596"><defs><linearGradient x1="240.00004" y1="177.00004" x2="240.00004" y2="361.00004" gradientUnits="userSpaceOnUse" id="color-1"><stop offset="0" stop-color="#a69675"/><stop offset="1" stop-color="#ccb995"/></linearGradient><linearGradient x1="103.50003" y1="158.03533" x2="103.50003" y2="378.03534" gradientUnits="userSpaceOnUse" id="color-2"><stop offset="0" stop-color="#dedac5"/><stop offset="1" stop-color="#b2b2b2"/></linearGradient><linearGradient x1="261.50004" y1="215.00004" x2="261.50004" y2="338.00003" gradientUnits="userSpaceOnUse" id="color-3"><stop offset="0" stop-color="#dedac5"/><stop offset="1" stop-color="#b2b2b2"/></linearGradient><radialGradient cx="50.77784" cy="211.3532" r="21.8111" gradientUnits="userSpaceOnUse" id="color-4"><stop offset="0" stop-color="#ffff99"/><stop offset="1" stop-color="#ffff00"/></radialGradient><radialGradient cx="58.80844" cy="210.5381" r="21.4005" gradientUnits="userSpaceOnUse" id="color-5"><stop offset="0" stop-color="#ffff99"/><stop offset="1" stop-color="#ffff00"/></radialGradient><radialGradient cx="57.88764" cy="202.74432" r="21.3777" gradientUnits="userSpaceOnUse" id="color-6"><stop offset="0" stop-color="#ffff99"/><stop offset="1" stop-color="#ffff00"/></radialGradient><radialGradient cx="49.93463" cy="201.66604" r="20.4549" gradientUnits="userSpaceOnUse" id="color-7"><stop offset="0" stop-color="#ffff99"/><stop offset="1" stop-color="#ffff00"/></radialGradient><radialGradient cx="146.57782" cy="211.20322" r="21.8111" gradientUnits="userSpaceOnUse" id="color-8"><stop offset="0" stop-color="#ffff99"/><stop offset="1" stop-color="#ffff00"/></radialGradient><radialGradient cx="154.60843" cy="210.38812" r="21.4005" gradientUnits="userSpaceOnUse" id="color-9"><stop offset="0" stop-color="#ffff99"/><stop offset="1" stop-color="#ffff00"/></radialGradient><radialGradient cx="153.68752" cy="202.6443" r="21.3777" gradientUnits="userSpaceOnUse" id="color-10"><stop offset="0" stop-color="#ffff99"/><stop offset="1" stop-color="#ffff00"/></radialGradient><radialGradient cx="145.73464" cy="201.56604" r="20.4549" gradientUnits="userSpaceOnUse" id="color-11"><stop offset="0" stop-color="#ffff99"/><stop offset="1" stop-color="#ffff00"/></radialGradient><linearGradient x1="394.50004" y1="98.03444" x2="394.50004" y2="342.03444" gradientUnits="userSpaceOnUse" id="color-12"><stop offset="0" stop-color="#dedac5"/><stop offset="1" stop-color="#b2b2b2"/></linearGradient><radialGradient cx="391.42784" cy="140.7532" r="21.8111" gradientUnits="userSpaceOnUse" id="color-13"><stop offset="0" stop-color="#ffff99"/><stop offset="1" stop-color="#ffff00"/></radialGradient><radialGradient cx="399.45835" cy="139.9381" r="21.4005" gradientUnits="userSpaceOnUse" id="color-14"><stop offset="0" stop-color="#ffff99"/><stop offset="1" stop-color="#ffff00"/></radialGradient><radialGradient cx="398.53755" cy="132.1443" r="21.3777" gradientUnits="userSpaceOnUse" id="color-15"><stop offset="0" stop-color="#ffff99"/><stop offset="1" stop-color="#ffff00"/></radialGradient><radialGradient cx="390.58465" cy="131.06599" r="20.4549" gradientUnits="userSpaceOnUse" id="color-16"><stop offset="0" stop-color="#ffff99"/><stop offset="1" stop-color="#ffff00"/></radialGradient><radialGradient cx="391.02785" cy="209.70322" r="21.8111" gradientUnits="userSpaceOnUse" id="color-17"><stop offset="0" stop-color="#ffff99"/><stop offset="1" stop-color="#ffff00"/></radialGradient><radialGradient cx="399.05845" cy="208.88812" r="21.4005" gradientUnits="userSpaceOnUse" id="color-18"><stop offset="0" stop-color="#ffff99"/><stop offset="1" stop-color="#ffff00"/></radialGradient><radialGradient cx="398.13755" cy="201.09434" r="21.3777" gradientUnits="userSpaceOnUse" id="color-19"><stop offset="0" stop-color="#ffff99"/><stop offset="1" stop-color="#ffff00"/></radialGradient><radialGradient cx="390.18465" cy="200.016" r="20.4549" gradientUnits="userSpaceOnUse" id="color-20"><stop offset="0" stop-color="#ffff99"/><stop offset="1" stop-color="#ffff00"/></radialGradient><linearGradient x1="4.50003" y1="104.00001" x2="4.50003" y2="168.50004" gradientUnits="userSpaceOnUse" id="color-21"><stop offset="0" stop-color="#009933"/><stop offset="1" stop-color="#006622"/></linearGradient><linearGradient x1="206.50004" y1="143.49999" x2="206.50004" y2="217.50004" gradientUnits="userSpaceOnUse" id="color-22"><stop offset="0" stop-color="#6898c9"/><stop offset="1" stop-color="#3e76ae"/></linearGradient><radialGradient cx="20.92243" cy="212.19874" r="15.5131" gradientUnits="userSpaceOnUse" id="color-23"><stop offset="0" stop-color="#fff343"/><stop offset="1" stop-color="#fff343" stop-opacity="0"/></radialGradient><radialGradient cx="45.62243" cy="212.09872" r="15.5131" gradientUnits="userSpaceOnUse" id="color-24"><stop offset="0" stop-color="#fff343"/><stop offset="1" stop-color="#fff343" stop-opacity="0"/></radialGradient><radialGradient cx="33.92243" cy="197.19874" r="15.5131" gradientUnits="userSpaceOnUse" id="color-25"><stop offset="0" stop-color="#fff343"/><stop offset="1" stop-color="#fff343" stop-opacity="0"/></radialGradient><radialGradient cx="189.52244" cy="221.74871" r="15.5131" gradientUnits="userSpaceOnUse" id="color-26"><stop offset="0" stop-color="#fff343"/><stop offset="1" stop-color="#fff343" stop-opacity="0"/></radialGradient><radialGradient cx="214.22244" cy="221.6487" r="15.5131" gradientUnits="userSpaceOnUse" id="color-27"><stop offset="0" stop-color="#fff343"/><stop offset="1" stop-color="#fff343" stop-opacity="0"/></radialGradient><radialGradient cx="202.52244" cy="206.74871" r="15.5131" gradientUnits="userSpaceOnUse" id="color-28"><stop offset="0" stop-color="#fff343"/><stop offset="1" stop-color="#fff343" stop-opacity="0"/></radialGradient><radialGradient cx="311.12245" cy="211.94874" r="15.5131" gradientUnits="userSpaceOnUse" id="color-29"><stop offset="0" stop-color="#fff343"/><stop offset="1" stop-color="#fff343" stop-opacity="0"/></radialGradient><radialGradient cx="335.82245" cy="211.84872" r="15.5131" gradientUnits="userSpaceOnUse" id="color-30"><stop offset="0" stop-color="#fff343"/><stop offset="1" stop-color="#fff343" stop-opacity="0"/></radialGradient><radialGradient cx="324.12245" cy="196.94874" r="15.5131" gradientUnits="userSpaceOnUse" id="color-31"><stop offset="0" stop-color="#fff343"/><stop offset="1" stop-color="#fff343" stop-opacity="0"/></radialGradient><radialGradient cx="436.42245" cy="212.19874" r="15.5131" gradientUnits="userSpaceOnUse" id="color-32"><stop offset="0" stop-color="#fff343"/><stop offset="1" stop-color="#fff343" stop-opacity="0"/></radialGradient><radialGradient cx="461.12245" cy="212.09872" r="15.5131" gradientUnits="userSpaceOnUse" id="color-33"><stop offset="0" stop-color="#fff343"/><stop offset="1" stop-color="#fff343" stop-opacity="0"/></radialGradient><radialGradient cx="449.42245" cy="197.19874" r="15.5131" gradientUnits="userSpaceOnUse" id="color-34"><stop offset="0" stop-color="#fff343"/><stop offset="1" stop-color="#fff343" stop-opacity="0"/></radialGradient><linearGradient x1="327.00004" y1="7" x2="327.00004" y2="99" gradientUnits="userSpaceOnUse" id="color-35"><stop offset="0" stop-color="#990000"/><stop offset="1" stop-color="#660000"/></linearGradient><linearGradient x1="567.89948" y1="308.00442" x2="567.89948" y2="406.00442" gradientUnits="userSpaceOnUse" id="color-36"><stop offset="0" stop-color="#000000" stop-opacity="0"/><stop offset="1" stop-color="#000000"/></linearGradient></defs><g transform="translate(7.50751,-5.30937)"><g data-paper-data="{&quot;isPaintingLayer&quot;:true}" fill-rule="nonzero" stroke-linejoin="miter" stroke-miterlimit="10" stroke-dasharray="" stroke-dashoffset="0" style="mix-blend-mode: normal"><path d="M424.30004,147.3l-0.3,-0.3" fill="none" stroke="#cccccc" stroke-width="2" stroke-linecap="round"/><path d="M371.00004,132l0.3,0.3" fill="none" stroke="#cccccc" stroke-width="2" stroke-linecap="round"/><path d="M291.30002,233.30003l-0.3,-0.3" fill="none" stroke="#cccccc" stroke-width="2" stroke-linecap="round"/><path d="M168.00004,182.00004l0.3,0.3" fill="none" stroke="#cccccc" stroke-width="2" stroke-linecap="round"/><path d="M35.30002,151.29999l-0.3,-0.3" fill="none" stroke="#cccccc" stroke-width="2" stroke-linecap="round"/><path d="M96.00003,141.00001l0.3,0.3" fill="none" stroke="#cccccc" stroke-width="2" stroke-linecap="round"/><path d="M42.30004,331.30004l-0.3,-0.3" fill="none" stroke="#cccccc" stroke-width="2" stroke-linecap="round"/><path d="M108.30004,243.30004l-0.3,-0.3" fill="none" stroke="#cccccc" stroke-width="2" stroke-linecap="round"/><path d="M163.30003,308.30003l-0.3,-0.3" fill="none" stroke="#cccccc" stroke-width="2" stroke-linecap="round"/><path d="M233.30003,273.30003l-0.3,-0.3" fill="none" stroke="#cccccc" stroke-width="2" stroke-linecap="round"/><path d="M309.30004,312.30003l-0.3,-0.3" fill="none" stroke="#cccccc" stroke-width="2" stroke-linecap="round"/><path d="M385.30004,291.30003l-0.3,-0.3" fill="none" stroke="#cccccc" stroke-width="2" stroke-linecap="round"/><path d="M451.00005,299.00004l0.3,0.3" fill="none" stroke="#cccccc" stroke-width="2" stroke-linecap="round"/><path d="M422.30004,210.30002l-0.3,-0.3" fill="none" stroke="#cccccc" stroke-width="2" stroke-linecap="round"/><path d="M360.00004,208.00003l0.3,0.3" fill="none" stroke="#cccccc" stroke-width="2" stroke-linecap="round"/><path d="M214.30004,187.30002l-0.3,-0.3" fill="none" stroke="#cccccc" stroke-width="2" stroke-linecap="round"/><path d="M90.00004,215.00001l0.3,0.3" fill="none" stroke="#cccccc" stroke-width="2" stroke-linecap="round"/><path d="M60.30004,249.30004l-0.3,-0.3" fill="none" stroke="#cccccc" stroke-width="2" stroke-linecap="round"/><path d="M167.30004,262.30003l-0.3,-0.3" fill="none" stroke="#cccccc" stroke-width="2" stroke-linecap="round"/><path d="M376.30004,250.30004l-0.3,-0.3" fill="none" stroke="#cccccc" stroke-width="2" stroke-linecap="round"/><g data-paper-data="{&quot;origPos&quot;:null}" stroke="none" stroke-width="1" stroke-linecap="butt"><path d="M0.00004,177.00004h480v184h-480z" data-paper-data="{&quot;origPos&quot;:null}" fill="url(#color-1)"/><g data-paper-data="{&quot;origPos&quot;:null}" fill="#a79776"><g data-paper-data="{&quot;origPos&quot;:null}"><path d="M359.23305,161.41652h23.23363v16.76882h-23.23363z" data-paper-data="{&quot;origPos&quot;:null}"/><path d="M456.91642,161.31005h23.23363v16.76882h-23.23363z" data-paper-data="{&quot;origPos&quot;:null}"/><path d="M423.82765,161.15033h23.23363v16.76881h-23.23363z" data-paper-data="{&quot;origPos&quot;:null}"/><path d="M391.2495,160.99065h23.23363v16.76881h-23.23363z" data-paper-data="{&quot;origPos&quot;:null}"/></g><g data-paper-data="{&quot;origPos&quot;:null}"><path d="M228.51195,161.41652h23.23363v16.76882h-23.23363z" data-paper-data="{&quot;origPos&quot;:null}"/><path d="M326.19533,161.31005h23.23363v16.76882h-23.23363z" data-paper-data="{&quot;origPos&quot;:null}"/><path d="M293.10653,161.15033h23.23363v16.76881h-23.23363z" data-paper-data="{&quot;origPos&quot;:null}"/><path d="M260.52841,160.99065h23.23363v16.76881h-23.23363z" data-paper-data="{&quot;origPos&quot;:null}"/></g><path d="M130.47113,162.48119h23.23363v16.76881h-23.23363z" data-paper-data="{&quot;origPos&quot;:null}"/><path d="M195.06573,162.21504h23.23363v16.76881h-23.23363z" data-paper-data="{&quot;origPos&quot;:null}"/><path d="M162.48756,162.05533h23.23363v16.76882h-23.23363z" data-paper-data="{&quot;origPos&quot;:null}"/><g data-paper-data="{&quot;origPos&quot;:null}"><path d="M-0.24996,162.48119h23.23363v16.76881h-23.23363z" data-paper-data="{&quot;origPos&quot;:null}"/><path d="M97.43342,162.37472h23.23363v16.76881h-23.23363z" data-paper-data="{&quot;origPos&quot;:null}"/><path d="M64.34463,162.21504h23.23363v16.76881h-23.23363z" data-paper-data="{&quot;origPos&quot;:null}"/><path d="M31.7665,162.05533h23.23363v16.76882h-23.23363z" data-paper-data="{&quot;origPos&quot;:null}"/></g></g></g><path d="M5.00003,158.03533h197v220h-197z" data-paper-data="{&quot;origPos&quot;:null}" fill="url(#color-2)" stroke="none" stroke-width="1.04833" stroke-linecap="butt"/><path d="M207.00004,215.00004h109v123h-109z" data-paper-data="{&quot;origPos&quot;:null}" fill="url(#color-3)" stroke="none" stroke-width="1" stroke-linecap="butt"/><g stroke="#995900" stroke-width="2"><path d="M34.00002,207.50004h19.5v19.5h-19.5z" fill="url(#color-4)" stroke-linecap="butt"/><path d="M55.00003,207.50004h19.5v19.5h-19.5z" fill="url(#color-5)" stroke-linecap="butt"/><path d="M54.75003,186.30001l8.65,1.6l5.65,3.9l3.7,6.25l1.5,7.75h-19.5z" fill="url(#color-6)" stroke-linecap="round"/><path d="M53.70003,205.80001h-19.5l1.5,-7.75l3.7,-6.25l5.65,-3.9l8.65,-1.6z" fill="url(#color-7)" stroke-linecap="round"/></g><g stroke="#995900" stroke-width="2"><path d="M129.80003,207.35004h19.5v19.5h-19.5z" fill="url(#color-8)" stroke-linecap="butt"/><path d="M150.80003,207.35004h19.5v19.5h-19.5z" fill="url(#color-9)" stroke-linecap="butt"/><path d="M150.55003,186.2l8.65,1.6l5.65,3.9l3.7,6.25l1.5,7.75h-19.5z" fill="url(#color-10)" stroke-linecap="round"/><path d="M149.50002,205.7h-19.5l1.5,-7.75l3.7,-6.25l5.65,-3.9l8.65,-1.6z" fill="url(#color-11)" stroke-linecap="round"/></g><path d="M327.00004,98.03444h135v244h-135z" data-paper-data="{&quot;origPos&quot;:null}" fill="url(#color-12)" stroke="none" stroke-width="1.02852" stroke-linecap="butt"/><g data-paper-data="{&quot;origPos&quot;:null}" stroke="#995900" stroke-width="2"><path d="M374.65005,136.90003h19.5v19.5h-19.5z" fill="url(#color-13)" stroke-linecap="butt"/><path d="M395.65005,136.90003h19.5v19.5h-19.5z" fill="url(#color-14)" stroke-linecap="butt"/><path d="M395.40005,115.7l8.65,1.6l5.65,3.9l3.7,6.25l1.5,7.75h-19.5z" fill="url(#color-15)" stroke-linecap="round"/><path d="M394.35005,135.2h-19.5l1.5,-7.75l3.7,-6.25l5.65,-3.9l8.65,-1.6z" fill="url(#color-16)" stroke-linecap="round"/></g><g data-paper-data="{&quot;origPos&quot;:null}" stroke="#995900" stroke-width="2"><path d="M374.25004,205.85004h19.5v19.5h-19.5z" fill="url(#color-17)" stroke-linecap="butt"/><path d="M395.25004,205.85004h19.5v19.5h-19.5z" fill="url(#color-18)" stroke-linecap="butt"/><path d="M395.00004,184.65003l8.65,1.6l5.65,3.9l3.7,6.25l1.5,7.75h-19.5z" fill="url(#color-19)" stroke-linecap="round"/><path d="M393.95005,204.15003h-19.5l1.5,-7.75l3.7,-6.25l5.65,-3.9l8.65,-1.6z" fill="url(#color-20)" stroke-linecap="round"/></g><g><path d="M82.50003,265.00003l10,-14l12,-10l11.5,10.5l7.5,13.5v54.5h-41z" fill="#663b00" stroke="#ffff00" stroke-width="2" stroke-linecap="round"/><path d="M113.25003,289.50003c1.035,0 1.972,0.42 2.651,1.099c0.679,0.679 1.099,1.616 1.099,2.651c0,1.035 -0.42,1.972 -1.099,2.651c-0.679,0.679 -1.616,1.099 -2.651,1.099c-1.035,0 -1.972,-0.42 -2.651,-1.099c-0.679,-0.679 -1.099,-1.616 -1.099,-2.651c0,-1.035 0.42,-1.972 1.099,-2.651c0.679,-0.679 1.616,-1.099 2.651,-1.099z" fill="#000000" stroke="none" stroke-width="1" stroke-linecap="butt"/></g><g data-paper-data="{&quot;origPos&quot;:null}"><path d="M371.50004,267.95004l10,-14l12,-10l11.5,10.5l7.5,13.5v54.5h-41z" fill="#663b00" stroke="#ffff00" stroke-width="2" stroke-linecap="round"/><path d="M402.25004,292.45004c1.035,0 1.972,0.42 2.651,1.099c0.679,0.679 1.099,1.616 1.099,2.651c0,1.035 -0.42,1.972 -1.099,2.651c-0.679,0.679 -1.616,1.099 -2.651,1.099c-1.035,0 -1.972,-0.42 -2.651,-1.099c-0.679,-0.679 -1.099,-1.616 -1.099,-2.651c0,-1.035 0.42,-1.972 1.099,-2.651c0.679,-0.679 1.616,-1.099 2.651,-1.099z" fill="#000000" stroke="none" stroke-width="1" stroke-linecap="butt"/></g><path d="M14.00003,104.50001l182,-0.5l6.5,64.5h-198z" fill="url(#color-21)" stroke="#ffff00" stroke-width="2" stroke-linecap="round"/><path d="M222.00004,174.00004h18l19,-30.5l21.5,30.5l18,0.5l18.5,43h-110.5z" data-paper-data="{&quot;origPos&quot;:null}" fill="url(#color-22)" stroke="#ffff00" stroke-width="2" stroke-linecap="round"/><path d="M480.00004,243.00004v0v30v0z" fill="#990000" stroke="none" stroke-width="1" stroke-linecap="butt"/><g stroke-linecap="round"><path d="M33.25002,341.20001v-132" fill="none" stroke="#000000" stroke-width="9"/><g stroke="none"><path d="M9.16573,209.95734l-0.4179,-0.5394l0.3622,-1.1073l0.6408,-0.2839h6.6034l2.8976,-6.672l0.6409,-0.5394l0.6408,0.0284l0.7801,0.5962l3.1206,6.5016l6.6869,-0.1135l0.6687,0.3975l0.5294,0.653l-0.5294,1.164l-3.8171,4.5142l1.1145,6.8424l0.0557,1.0788l-0.6965,0.3691l-1.226,-0.2271l-6.4083,-4.5426l-5.461,5.1104l-1.2259,0.2271l-0.8916,-0.4826l-0.3065,-1.3344l0.6409,-6.3597z" fill="url(#color-23)" stroke-width="0.56256"/><path d="M10.46213,210.31192l-0.3743,-0.4741l0.3244,-0.9731l0.5739,-0.2496h5.9135l2.595,-5.8636l0.5739,-0.4741l0.5739,0.025l0.6986,0.524l2.7946,5.7139l5.9884,-0.0998l0.5988,0.3493l0.4741,0.5739l-0.4741,1.023l-3.4184,3.9673l0.9981,6.0133l0.0499,0.9482l-0.6238,0.3244l-1.0979,-0.1996l-5.7388,-3.9923l-4.8905,4.4913l-1.0979,0.1996l-0.7985,-0.4242l-0.2744,-1.1727l0.5739,-5.5891z" fill="#ffff99" stroke-width="0.49903"/></g><g stroke="none"><path d="M33.86573,209.85732l-0.4179,-0.5394l0.3622,-1.1073l0.6408,-0.2839h6.6034l2.8976,-6.672l0.6409,-0.5394l0.6408,0.0284l0.7801,0.5962l3.1206,6.5016l6.6869,-0.1135l0.6687,0.3975l0.5294,0.653l-0.5294,1.164l-3.8171,4.5142l1.1145,6.8424l0.0557,1.0788l-0.6965,0.3691l-1.226,-0.2271l-6.4083,-4.5426l-5.461,5.1104l-1.2259,0.2271l-0.8916,-0.4826l-0.3065,-1.3344l0.6409,-6.3597z" fill="url(#color-24)" stroke-width="0.56256"/><path d="M35.16213,210.21191l-0.3743,-0.4741l0.3244,-0.9731l0.5739,-0.2496h5.9135l2.595,-5.8636l0.5739,-0.4741l0.5739,0.025l0.6986,0.524l2.7946,5.7139l5.9884,-0.0998l0.5988,0.3493l0.4741,0.5739l-0.4741,1.023l-3.4184,3.9673l0.9981,6.0133l0.0499,0.9482l-0.6238,0.3244l-1.0979,-0.1996l-5.7388,-3.9923l-4.8905,4.4913l-1.0979,0.1996l-0.7985,-0.4242l-0.2744,-1.1727l0.5739,-5.5891z" fill="#ffff99" stroke-width="0.49903"/></g><g stroke="none"><path d="M22.16573,194.95734l-0.4179,-0.5394l0.3622,-1.1073l0.6408,-0.2839h6.6034l2.8976,-6.672l0.6409,-0.5394l0.6408,0.0284l0.7801,0.5962l3.1206,6.5016l6.6869,-0.1135l0.6687,0.3975l0.5294,0.653l-0.5294,1.164l-3.8171,4.5142l1.1145,6.8424l0.0557,1.0788l-0.6965,0.3691l-1.226,-0.2271l-6.4083,-4.5426l-5.461,5.1104l-1.2259,0.2271l-0.8916,-0.4826l-0.3065,-1.3344l0.6409,-6.3597z" fill="url(#color-25)" stroke-width="0.56256"/><path d="M23.46213,195.31192l-0.3743,-0.4741l0.3244,-0.9731l0.5739,-0.2496h5.9135l2.595,-5.8636l0.5739,-0.4741l0.5739,0.025l0.6986,0.524l2.7946,5.7139l5.9884,-0.0998l0.5988,0.3493l0.4741,0.5739l-0.4741,1.023l-3.4184,3.9673l0.9981,6.0133l0.0499,0.9482l-0.6238,0.3244l-1.0979,-0.1996l-5.7388,-3.9923l-4.8905,4.4913l-1.0979,0.1996l-0.7985,-0.4242l-0.2744,-1.1727l0.5739,-5.5891z" fill="#ffff99" stroke-width="0.49903"/></g></g><g stroke-linecap="round"><path d="M201.85004,218.75003v132" fill="none" stroke="#000000" stroke-width="9"/><g stroke="none"><path d="M177.76574,219.5073l-0.4179,-0.5394l0.3622,-1.1073l0.6408,-0.2839h6.6034l2.8976,-6.672l0.6409,-0.5394l0.6408,0.0284l0.7801,0.5962l3.1206,6.5016l6.6869,-0.1135l0.6687,0.3975l0.5294,0.653l-0.5294,1.164l-3.8171,4.5142l1.1145,6.8424l0.0557,1.0788l-0.6965,0.3691l-1.226,-0.2271l-6.4083,-4.5426l-5.461,5.1104l-1.2259,0.2271l-0.8916,-0.4826l-0.3065,-1.3344l0.6409,-6.3597z" fill="url(#color-26)" stroke-width="0.56256"/><path d="M179.06213,219.8619l-0.3743,-0.4741l0.3244,-0.9731l0.5739,-0.2496h5.9135l2.595,-5.8636l0.5739,-0.4741l0.5739,0.025l0.6986,0.524l2.7946,5.7139l5.9884,-0.0998l0.5988,0.3493l0.4741,0.5739l-0.4741,1.023l-3.4184,3.9673l0.9981,6.0133l0.0499,0.9482l-0.6238,0.3244l-1.0979,-0.1996l-5.7388,-3.9923l-4.8905,4.4913l-1.0979,0.1996l-0.7985,-0.4242l-0.2744,-1.1727l0.5739,-5.5891z" fill="#ffff99" stroke-width="0.49903"/></g><g stroke="none"><path d="M202.46574,219.4073l-0.4179,-0.5394l0.3622,-1.1073l0.6408,-0.2839h6.6034l2.8976,-6.672l0.6409,-0.5394l0.6408,0.0284l0.7801,0.5962l3.1206,6.5016l6.6869,-0.1135l0.6687,0.3975l0.5294,0.653l-0.5294,1.164l-3.8171,4.5142l1.1145,6.8424l0.0557,1.0788l-0.6965,0.3691l-1.226,-0.2271l-6.4083,-4.5426l-5.461,5.1104l-1.2259,0.2271l-0.8916,-0.4826l-0.3065,-1.3344l0.6409,-6.3597z" fill="url(#color-27)" stroke-width="0.56256"/><path d="M203.76214,219.76194l-0.3743,-0.4741l0.3244,-0.9731l0.5739,-0.2496h5.9135l2.595,-5.8636l0.5739,-0.4741l0.5739,0.025l0.6986,0.524l2.7946,5.7139l5.9884,-0.0998l0.5988,0.3493l0.4741,0.5739l-0.4741,1.023l-3.4184,3.9673l0.9981,6.0133l0.0499,0.9482l-0.6238,0.3244l-1.0979,-0.1996l-5.7388,-3.9923l-4.8905,4.4913l-1.0979,0.1996l-0.7985,-0.4242l-0.2744,-1.1727l0.5739,-5.5891z" fill="#ffff99" stroke-width="0.49903"/></g><g stroke="none"><path d="M190.76574,204.5073l-0.4179,-0.5394l0.3622,-1.1073l0.6408,-0.2839h6.6034l2.8976,-6.672l0.6409,-0.5394l0.6408,0.0284l0.7801,0.5962l3.1206,6.5016l6.6869,-0.1135l0.6687,0.3975l0.5294,0.653l-0.5294,1.164l-3.8171,4.5142l1.1145,6.8424l0.0557,1.0788l-0.6965,0.3691l-1.226,-0.2271l-6.4083,-4.5426l-5.461,5.1104l-1.2259,0.2271l-0.8916,-0.4826l-0.3065,-1.3344l0.6409,-6.3597z" fill="url(#color-28)" stroke-width="0.56256"/><path d="M192.06213,204.8619l-0.3743,-0.4741l0.3244,-0.9731l0.5739,-0.2496h5.9135l2.595,-5.8636l0.5739,-0.4741l0.5739,0.025l0.6986,0.524l2.7946,5.7139l5.9884,-0.0998l0.5988,0.3493l0.4741,0.5739l-0.4741,1.023l-3.4184,3.9673l0.9981,6.0133l0.0499,0.9482l-0.6238,0.3244l-1.0979,-0.1996l-5.7388,-3.9923l-4.8905,4.4913l-1.0979,0.1996l-0.7985,-0.4242l-0.2744,-1.1727l0.5739,-5.5891z" fill="#ffff99" stroke-width="0.49903"/></g></g><g stroke-linecap="round"><path d="M323.45005,340.95004v-132" fill="none" stroke="#000000" stroke-width="9"/><g stroke="none"><path d="M299.36574,209.70734l-0.4179,-0.5394l0.3622,-1.1073l0.6408,-0.2839h6.6034l2.8976,-6.672l0.6409,-0.5394l0.6408,0.0284l0.7801,0.5962l3.1206,6.5016l6.6869,-0.1135l0.6687,0.3975l0.5294,0.653l-0.5294,1.164l-3.8171,4.5142l1.1145,6.8424l0.0557,1.0788l-0.6965,0.3691l-1.226,-0.2271l-6.4083,-4.5426l-5.461,5.1104l-1.2259,0.2271l-0.8916,-0.4826l-0.3065,-1.3344l0.6409,-6.3597z" fill="url(#color-29)" stroke-width="0.56256"/><path d="M300.66212,210.06192l-0.3743,-0.4741l0.3244,-0.9731l0.5739,-0.2496h5.9135l2.595,-5.8636l0.5739,-0.4741l0.5739,0.025l0.6986,0.524l2.7946,5.7139l5.9884,-0.0998l0.5988,0.3493l0.4741,0.5739l-0.4741,1.023l-3.4184,3.9673l0.9981,6.0133l0.0499,0.9482l-0.6238,0.3244l-1.0979,-0.1996l-5.7388,-3.9923l-4.8905,4.4913l-1.0979,0.1996l-0.7985,-0.4242l-0.2744,-1.1727l0.5739,-5.5891z" fill="#ffff99" stroke-width="0.49903"/></g><g stroke="none"><path d="M324.06574,209.60732l-0.4179,-0.5394l0.3622,-1.1073l0.6408,-0.2839h6.6034l2.8976,-6.672l0.6409,-0.5394l0.6408,0.0284l0.7801,0.5962l3.1206,6.5016l6.6869,-0.1135l0.6687,0.3975l0.5294,0.653l-0.5294,1.164l-3.8171,4.5142l1.1145,6.8424l0.0557,1.0788l-0.6965,0.3691l-1.226,-0.2271l-6.4083,-4.5426l-5.461,5.1104l-1.2259,0.2271l-0.8916,-0.4826l-0.3065,-1.3344l0.6409,-6.3597z" fill="url(#color-30)" stroke-width="0.56256"/><path d="M325.36214,209.96191l-0.3743,-0.4741l0.3244,-0.9731l0.5739,-0.2496h5.9135l2.595,-5.8636l0.5739,-0.4741l0.5739,0.025l0.6986,0.524l2.7946,5.7139l5.9884,-0.0998l0.5988,0.3493l0.4741,0.5739l-0.4741,1.023l-3.4184,3.9673l0.9981,6.0133l0.0499,0.9482l-0.6238,0.3244l-1.0979,-0.1996l-5.7388,-3.9923l-4.8905,4.4913l-1.0979,0.1996l-0.7985,-0.4242l-0.2744,-1.1727l0.5739,-5.5891z" fill="#ffff99" stroke-width="0.49903"/></g><g stroke="none"><path d="M312.36574,194.70734l-0.4179,-0.5394l0.3622,-1.1073l0.6408,-0.2839h6.6034l2.8976,-6.672l0.6409,-0.5394l0.6408,0.0284l0.7801,0.5962l3.1206,6.5016l6.6869,-0.1135l0.6687,0.3975l0.5294,0.653l-0.5294,1.164l-3.8171,4.5142l1.1145,6.8424l0.0557,1.0788l-0.6965,0.3691l-1.226,-0.2271l-6.4083,-4.5426l-5.461,5.1104l-1.2259,0.2271l-0.8916,-0.4826l-0.3065,-1.3344l0.6409,-6.3597z" fill="url(#color-31)" stroke-width="0.56256"/><path d="M313.66212,195.06192l-0.3743,-0.4741l0.3244,-0.9731l0.5739,-0.2496h5.9135l2.595,-5.8636l0.5739,-0.4741l0.5739,0.025l0.6986,0.524l2.7946,5.7139l5.9884,-0.0998l0.5988,0.3493l0.4741,0.5739l-0.4741,1.023l-3.4184,3.9673l0.9981,6.0133l0.0499,0.9482l-0.6238,0.3244l-1.0979,-0.1996l-5.7388,-3.9923l-4.8905,4.4913l-1.0979,0.1996l-0.7985,-0.4242l-0.2744,-1.1727l0.5739,-5.5891z" fill="#ffff99" stroke-width="0.49903"/></g></g><g stroke-linecap="round"><path d="M448.75004,209.20001v132" fill="none" stroke="#000000" stroke-width="9"/><g stroke="none"><path d="M424.66575,209.95734l-0.4179,-0.5394l0.3622,-1.1073l0.6408,-0.2839h6.6034l2.8976,-6.672l0.6409,-0.5394l0.6408,0.0284l0.7801,0.5962l3.1206,6.5016l6.6869,-0.1135l0.6687,0.3975l0.5294,0.653l-0.5294,1.164l-3.8171,4.5142l1.1145,6.8424l0.0557,1.0788l-0.6965,0.3691l-1.226,-0.2271l-6.4083,-4.5426l-5.461,5.1104l-1.2259,0.2271l-0.8916,-0.4826l-0.3065,-1.3344l0.6409,-6.3597z" fill="url(#color-32)" stroke-width="0.56256"/><path d="M425.96215,210.31192l-0.3743,-0.4741l0.3244,-0.9731l0.5739,-0.2496h5.9135l2.595,-5.8636l0.5739,-0.4741l0.5739,0.025l0.6986,0.524l2.7946,5.7139l5.9884,-0.0998l0.5988,0.3493l0.4741,0.5739l-0.4741,1.023l-3.4184,3.9673l0.9981,6.0133l0.0499,0.9482l-0.6238,0.3244l-1.0979,-0.1996l-5.7388,-3.9923l-4.8905,4.4913l-1.0979,0.1996l-0.7985,-0.4242l-0.2744,-1.1727l0.5739,-5.5891z" fill="#ffff99" stroke-width="0.49903"/></g><g stroke="none"><path d="M449.36575,209.85732l-0.4179,-0.5394l0.3622,-1.1073l0.6408,-0.2839h6.6034l2.8976,-6.672l0.6409,-0.5394l0.6408,0.0284l0.7801,0.5962l3.1206,6.5016l6.6869,-0.1135l0.6687,0.3975l0.5294,0.653l-0.5294,1.164l-3.8171,4.5142l1.1145,6.8424l0.0557,1.0788l-0.6965,0.3691l-1.226,-0.2271l-6.4083,-4.5426l-5.461,5.1104l-1.2259,0.2271l-0.8916,-0.4826l-0.3065,-1.3344l0.6409,-6.3597z" fill="url(#color-33)" stroke-width="0.56256"/><path d="M450.66215,210.21191l-0.3743,-0.4741l0.3244,-0.9731l0.5739,-0.2496h5.9135l2.595,-5.8636l0.5739,-0.4741l0.5739,0.025l0.6986,0.524l2.7946,5.7139l5.9884,-0.0998l0.5988,0.3493l0.4741,0.5739l-0.4741,1.023l-3.4184,3.9673l0.9981,6.0133l0.0499,0.9482l-0.6238,0.3244l-1.0979,-0.1996l-5.7388,-3.9923l-4.8905,4.4913l-1.0979,0.1996l-0.7985,-0.4242l-0.2744,-1.1727l0.5739,-5.5891z" fill="#ffff99" stroke-width="0.49903"/></g><g stroke="none"><path d="M437.66575,194.95734l-0.4179,-0.5394l0.3622,-1.1073l0.6408,-0.2839h6.6034l2.8976,-6.672l0.6409,-0.5394l0.6408,0.0284l0.7801,0.5962l3.1206,6.5016l6.6869,-0.1135l0.6687,0.3975l0.5294,0.653l-0.5294,1.164l-3.8171,4.5142l1.1145,6.8424l0.0557,1.0788l-0.6965,0.3691l-1.226,-0.2271l-6.4083,-4.5426l-5.461,5.1104l-1.2259,0.2271l-0.8916,-0.4826l-0.3065,-1.3344l0.6409,-6.3597z" fill="url(#color-34)" stroke-width="0.56256"/><path d="M438.96215,195.31192l-0.3743,-0.4741l0.3244,-0.9731l0.5739,-0.2496h5.9135l2.595,-5.8636l0.5739,-0.4741l0.5739,0.025l0.6986,0.524l2.7946,5.7139l5.9884,-0.0998l0.5988,0.3493l0.4741,0.5739l-0.4741,1.023l-3.4184,3.9673l0.9981,6.0133l0.0499,0.9482l-0.6238,0.3244l-1.0979,-0.1996l-5.7388,-3.9923l-4.8905,4.4913l-1.0979,0.1996l-0.7985,-0.4242l-0.2744,-1.1727l0.5739,-5.5891z" fill="#ffff99" stroke-width="0.49903"/></g></g><g data-paper-data="{&quot;origPos&quot;:null}"><path d="M242.50004,265.40004l10,-14l12,-10l11.5,10.5l7.5,13.5v54.5h-41z" fill="#663b00" stroke="#ffff00" stroke-width="2" stroke-linecap="round"/><path d="M273.25004,289.90004c1.035,0 1.972,0.42 2.651,1.099c0.679,0.679 1.099,1.616 1.099,2.651c0,1.035 -0.42,1.972 -1.099,2.651c-0.679,0.679 -1.616,1.099 -2.651,1.099c-1.035,0 -1.972,-0.42 -2.651,-1.099c-0.679,-0.679 -1.099,-1.616 -1.099,-2.651c0,-1.035 0.42,-1.972 1.099,-2.651c0.679,-0.679 1.616,-1.099 2.651,-1.099z" fill="#000000" stroke="none" stroke-width="1" stroke-linecap="butt"/></g><path d="M392.50004,7l69.5,92h-135z" data-paper-data="{&quot;origPos&quot;:null}" fill="url(#color-35)" stroke="#ffff00" stroke-width="2" stroke-linecap="round"/><path d="M486.00601,366.96999l-493.51352,1.49689c0,-20.15415 0,-40.3083 0,-60.46246h490.88069c0.19361,6.68646 2.63283,58.96557 2.63283,58.96557z" data-paper-data="{&quot;origPos&quot;:null,&quot;index&quot;:null}" fill="url(#color-36)" stroke="none" stroke-width="1.22826" stroke-linecap="butt"/></g></g></svg>