<svg version="1.1" xmlns="http://www.w3.org/2000/svg" xmlns:xlink="http://www.w3.org/1999/xlink" width="192.06488" height="200.77976" viewBox="0,0,192.06488,200.77976"><defs><linearGradient x1="260.08344" y1="198.49894" x2="287.46339" y2="245.07032" gradientUnits="userSpaceOnUse" id="color-1"><stop offset="0" stop-color="#6a17af"/><stop offset="1" stop-color="#6215a2"/></linearGradient><linearGradient x1="273.79675" y1="249.13131" x2="306.90443" y2="228.89955" gradientUnits="userSpaceOnUse" id="color-2"><stop offset="0" stop-color="#8d6431"/><stop offset="1" stop-color="#ac793c"/></linearGradient><linearGradient x1="237.75863" y1="201.59947" x2="188.87099" y2="224.66555" gradientUnits="userSpaceOnUse" id="color-3"><stop offset="0" stop-color="#6a17af"/><stop offset="1" stop-color="#6215a2"/></linearGradient><linearGradient x1="185.84059" y1="209.6397" x2="202.39686" y2="244.73005" gradientUnits="userSpaceOnUse" id="color-4"><stop offset="0" stop-color="#8d6431"/><stop offset="1" stop-color="#ac793c"/></linearGradient><linearGradient x1="241.17524" y1="142.20062" x2="247.04983" y2="211.14711" gradientUnits="userSpaceOnUse" id="color-5"><stop offset="0" stop-color="#6f18b4"/><stop offset="1" stop-color="#6a17af"/></linearGradient><linearGradient x1="253.99113" y1="142.99837" x2="256.87057" y2="176.7928" gradientUnits="userSpaceOnUse" id="color-6"><stop offset="0" stop-color="#8328ce"/><stop offset="1" stop-color="#6a17af"/></linearGradient><linearGradient x1="232.45333" y1="145.51678" x2="235.337" y2="179.36074" gradientUnits="userSpaceOnUse" id="color-7"><stop offset="0" stop-color="#8328ce"/><stop offset="1" stop-color="#6a17af"/></linearGradient><linearGradient x1="217.76348" y1="91.04868" x2="284.00701" y2="91.04868" gradientUnits="userSpaceOnUse" id="color-8"><stop offset="0" stop-color="#de5112"/><stop offset="1" stop-color="#b7430f"/></linearGradient></defs><g transform="translate(-145.73495,-55.49836)"><g data-paper-data="{&quot;isPaintingLayer&quot;:true}" fill-rule="nonzero" stroke-linejoin="miter" stroke-miterlimit="10" stroke-dasharray="" stroke-dashoffset="0" style="mix-blend-mode: normal"><g stroke="none" stroke-linecap="butt"><g data-paper-data="{&quot;origPos&quot;:null,&quot;index&quot;:null,&quot;origRot&quot;:0}" stroke-width="0"><path d="M256.92874,153.9553c0.06463,-3.24047 0.57296,-5.85373 8.49051,-8.03767c5.06801,-1.39794 23.00899,0.51663 23.00899,0.51663l16.94173,-1.74437l-0.13508,15.95258l-16.71649,-0.72987c0,0 -12.4534,1.34491 -15.67935,1.28057c-9.73209,-0.1941 -16.0163,-1.92318 -15.91032,-7.23786z" data-paper-data="{&quot;origRot&quot;:0,&quot;origPos&quot;:null}" fill="#ff5e15"/><g data-paper-data="{&quot;origPos&quot;:null}" fill="#ffffff"><path d="M310.30051,153.56441c-0.24314,-9.3857 0.76704,-20.1181 9.86828,-20.68946c0.63369,-0.03978 7.38407,1.18215 10.57222,5.2174c4.21923,5.34027 7.05883,12.64592 7.05883,12.64592c0,0 -3.07909,9.22494 -6.73518,14.2338c-2.66676,3.65349 -8.19708,4.89052 -8.53103,4.90963c-8.62881,0.49389 -11.98996,-6.9316 -12.23313,-16.3173z" data-paper-data="{&quot;origRot&quot;:0,&quot;origPos&quot;:null}"/><path d="M302.45027,152.48933c-0.17819,-7.24656 -1.79488,-15.47967 3.77523,-15.17298c6.23125,0.34312 5.90627,2.23813 5.90487,14.08726c-0.00159,13.49836 2.45561,15.56172 -4.39249,15.51794c-3.99882,-0.02556 -5.10941,-7.18569 -5.28763,-14.43223z" data-paper-data="{&quot;origRot&quot;:0,&quot;origPos&quot;:null}"/></g></g><path d="M332.18921,150.39972l-6.53809,3.89532l-3.02788,8.03761l-3.59792,-7.57319l-7.59937,-2.95311l7.33054,-3.43943l2.2746,-7.42395l4.17853,6.58776z" data-paper-data="{&quot;origRot&quot;:0,&quot;index&quot;:null}" fill="#6f18b4" stroke-width="NaN"/></g><g data-paper-data="{&quot;origRot&quot;:0}" stroke="none" stroke-width="0" stroke-linecap="butt"><path d="M295.28915,237.849c-5.55778,6.88982 -7.49353,8.95155 -16.31401,9.69846c-6.00751,0.50871 -4.49402,-2.76574 -7.62805,-10.94692c-0.37941,-1.31278 -4.36747,-12.93681 -8.86073,-23.26496c-2.62019,-6.02277 -6.46758,-12.61269 -6.46758,-12.61269l10.71928,-5.80855l12.76398,20.80023c0,0 4.05646,6.81534 9.85413,10.24002c5.79766,3.42468 10.41969,6.33237 5.93298,11.89441z" data-paper-data="{&quot;origPos&quot;:null}" fill="url(#color-1)"/><path d="M308.81639,235.49278c0,0 0.07137,6.97323 -2.40093,9.98753c-1.62021,1.97539 -11.57762,8.58638 -18.42306,9.17317c-2.12521,0.18216 -4.75844,-0.95333 -4.75844,-0.95333c0,0 -3.6744,3.52767 -4.5035,2.3298c-0.65814,-0.95089 -1.81861,-2.54204 -1.25007,-3.6789c2.44729,-4.89363 11.77988,-11.48352 16.24768,-14.64192c6.1333,-4.33579 15.08834,-2.21633 15.08834,-2.21633z" data-paper-data="{&quot;origPos&quot;:null}" fill="#f8dca0"/><path d="M307.52833,230.40617c0,0 -0.32819,9.81482 -7.26196,14.7165c-6.93378,4.90166 -17.19412,6.12361 -17.19412,6.12361c0,0 -4.83296,3.81288 -5.84498,2.59677c-2.0946,-2.51702 -5.21727,-6.83244 -4.30887,-7.6879c3.35353,-3.15804 3.00671,-2.15658 7.14106,-6.64102c2.67678,-2.90344 5.8208,-9.63285 9.0455,-11.91247c6.93377,-4.90167 18.42338,2.8045 18.42338,2.8045z" data-paper-data="{&quot;origPos&quot;:null}" fill="url(#color-2)"/></g><g data-paper-data="{&quot;origRot&quot;:0}" stroke="none" stroke-width="0" stroke-linecap="butt"><path d="M195.15885,233.13172c-6.25258,-6.26608 -9.01,-12.38732 -8.80459,-21.23698c0.13991,-6.02739 4.1484,-0.19563 12.61902,-2.43222c1.34596,-0.23614 13.62501,-2.30069 24.37627,-5.65787c6.2695,-1.95771 13.57449,-3.97405 13.57449,-3.97405l4.62283,11.28147l-22.39132,9.35402c0,0 -7.50557,2.64938 -11.53352,8.0454c-4.02795,5.39601 -7.41557,9.67875 -12.46318,4.62024z" data-paper-data="{&quot;origPos&quot;:null}" fill="url(#color-3)"/><path d="M195.63631,245.92232c0,0 -6.94051,-0.6785 -9.67163,-3.46045c-1.78982,-1.82314 -7.29232,-12.43339 -7.14,-19.30224c0.0473,-2.13248 1.45924,-4.62842 1.45924,-4.62842c0,0 -3.11232,-4.03225 -1.83228,-4.72781c1.01612,-0.55214 2.72278,-1.53487 3.79194,-0.84743c4.60226,2.95906 10.15095,12.94585 12.81087,17.72722c3.65149,6.56377 0.58185,15.23914 0.58185,15.23914z" data-paper-data="{&quot;origPos&quot;:null}" fill="#f8dca0"/><path d="M200.83193,245.1884c0,0 -9.7227,-1.38115 -13.85076,-8.80158c-4.12806,-7.42043 -4.24018,-17.75266 -4.24018,-17.75266c0,0 -3.27136,-5.21476 -1.95352,-6.0902c2.72755,-1.81194 7.3536,-4.45272 8.10647,-3.45765c2.77932,3.67352 1.82094,3.22108 5.83506,7.81345c2.59894,2.97333 8.95146,6.82239 10.87129,10.27341c4.12806,7.42043 -4.76834,18.01525 -4.76834,18.01525z" data-paper-data="{&quot;origPos&quot;:null}" fill="url(#color-4)"/></g><g><path d="M267.91026,170.04686c2.69816,27.31931 7.24357,38.95025 -23.24756,41.30134c-6.9328,0.49998 -10.78973,1.6964 -14.2726,-1.00232c-4.23172,-3.27896 -4.33932,-9.17161 -5.8425,-15.39368c-0.93956,-3.88906 -3.90829,-8.02062 -4.19385,-11.37216c-1.21335,-14.24046 -3.08135,-25.82411 4.12988,-35.57601c5.37258,-7.26545 12.10181,-4.66517 19.81346,-5.32988c14.26019,-1.22917 20.96839,0.59368 23.61318,27.3727z" fill="url(#color-5)" stroke="none" stroke-width="0" stroke-linecap="butt"/><path d="M268.07894,169.25157c0,0 -15.97051,3.97906 -27.34015,5.47958c-10.42871,1.37633 -21.40606,-2.5791 -21.40606,-2.5791c0,0 -2.44464,-17.74074 4.44919,-25.31531c4.51043,-4.95581 9.89081,-6.91522 16.94568,-7.75864c7.05487,-0.84341 15.00363,1.49026 18.90336,5.15288c9.21156,8.65154 8.44799,25.02059 8.44799,25.02059z" fill="#ff5e15" stroke="none" stroke-width="0" stroke-linecap="butt"/><path d="M249.1763,144.20676c0,0 4.56655,7.95325 6.38911,13.30535c1.82257,5.3521 3.66541,21.06067 3.66541,21.06067" data-paper-data="{&quot;origRot&quot;:0}" fill="none" stroke="url(#color-6)" stroke-width="10" stroke-linecap="round"/><path d="M229.97297,148.11066c0,0 3.00751,7.39212 4.53396,12.19122c1.52645,4.79909 3.37305,20.4264 3.37305,20.4264" fill="none" stroke="url(#color-7)" stroke-width="10" stroke-linecap="round"/><path d="M260.51853,181.45012l-2.47945,-3.27462l-4.49194,-1.14465l3.84758,-2.38168l1.13071,-4.25242l2.28218,3.72688l4.11786,0.77721l-3.28436,2.63433z" data-paper-data="{&quot;origRot&quot;:0,&quot;index&quot;:null}" fill="#ffe84f" stroke="none" stroke-width="NaN" stroke-linecap="butt"/><path d="M237.4733,184.68751l-2.08762,-3.53732l-4.33107,-1.65216l4.0953,-1.9248l1.61083,-4.09474l1.8398,3.96399l4.00158,1.24426l-3.56475,2.24036z" data-paper-data="{&quot;origRot&quot;:0,&quot;index&quot;:null}" fill="#ffe84f" stroke="none" stroke-width="NaN" stroke-linecap="butt"/></g><g stroke="none" stroke-linecap="butt"><g data-paper-data="{&quot;origPos&quot;:null}" stroke-width="0"><path d="M180.60563,179.23514l-7.97682,-16.68326l17.42476,-4.17691c0,0 8.56403,-4.09976 10.76127,-5.19294c8.71502,-4.33587 21.86926,-4.4378 24.23705,0.32148c2.3678,4.75927 -0.9885,8.26286 -9.70352,12.59873l-19.20793,5.70577z" data-paper-data="{&quot;origRot&quot;:0,&quot;origPos&quot;:null}" fill="#ff5e15"/><g data-paper-data="{&quot;origPos&quot;:null}" fill="#ffffff"><path d="M168.91698,194.98269c-9.36546,5.9841 -23.16893,-11.88262 -23.16893,-11.88262c0,0 -0.22262,-6.51081 1.16822,-11.83952c1.42456,-5.45787 5.08659,-9.08448 8.31842,-10.7436c8.80431,-4.51984 13.97321,5.89626 17.7657,14.48504c3.7925,8.58879 4.66141,14.39316 -4.08343,19.98072z" data-paper-data="{&quot;origRot&quot;:0,&quot;origPos&quot;:null}"/><path d="M181.02715,185.98159c-6.1721,2.96709 -4.83281,0.05133 -10.6047,-12.15075c-5.06668,-10.71123 -6.17059,-12.28544 -0.6841,-15.25944c4.90437,-2.65845 6.96246,5.47557 9.89923,12.10275c2.93675,6.62718 4.99366,13.57487 1.38956,15.30743z" data-paper-data="{&quot;origRot&quot;:0,&quot;origPos&quot;:null}"/></g></g><path d="M156.91584,175.56017l1.20525,-7.70753l5.04612,5.90132l8.09401,0.23128l-5.79165,5.73831l-0.27987,8.37973l-5.98161,-6.16372l-7.54907,-0.96534z" data-paper-data="{&quot;origRot&quot;:0}" fill="#6f18b4" stroke-width="NaN"/></g><g><path d="M269.46018,67.16191c2.39648,14.94461 -0.49216,15.79448 -8.52168,20.57884c-11.69967,6.97121 -27.00365,6.10539 -39.50062,11.51887c-3.28137,1.42143 -11.64483,-2.57762 -15.22084,-2.57762c-7.31398,0 -11.44089,-5.22725 -11.74313,-11.45342c-0.66666,-13.7335 6.09582,-13.78676 13.4098,-13.78676c0,0 8.04926,1.33414 10.82961,5.60456c0,0 11.19763,-18.21899 23.00151,-20.46979c15.1949,-2.89741 26.02437,-0.14688 27.74535,10.58532z" fill="#ff5e15" stroke="none" stroke-width="0" stroke-linecap="butt"/><path d="M227.10188,144.05524c-1.67042,0.95629 -3.5316,1.48998 -5.49366,1.48998c-7.22573,0 -13.08333,-7.23806 -13.08333,-16.16667c0,-2.83492 0.59052,-5.49942 1.62786,-7.81591c2.22976,-4.97932 21.43042,19.92712 16.94913,22.4926z" fill="#e7be7a" stroke="none" stroke-width="0" stroke-linecap="butt"/><path d="M283.56622,94.18729c-0.56793,3.79329 -11.88999,8.6 -20.8,8.6c-7.1797,0 -5.39999,-6.75492 -5.39999,-10.4c0,-3.64508 14.0703,-2.85 21.25,-2.85c7.1797,0 5.31761,2.19464 4.95,4.65z" fill="#b7430f" stroke="none" stroke-width="0" stroke-linecap="butt"/><g data-paper-data="{&quot;index&quot;:null}"><path d="M264.32527,123.59358l-0.16667,11.66667c0,0 -11.55678,1.66666 -16.5,1.66666c-5.05432,0 -15.33334,-0.83333 -15.33334,-0.83333v-11.16667z" fill="#ffffff" stroke="none" stroke-width="0" stroke-linecap="butt"/><path d="M257.49192,135.42693v-9.33333" fill="none" stroke="#a5b5ff" stroke-width="2" stroke-linecap="round"/><path d="M249.82528,135.92692v-9.83333" fill="none" stroke="#a5b5ff" stroke-width="2" stroke-linecap="round"/><path d="M241.65862,126.42694v9.5" fill="none" stroke="#a5b5ff" stroke-width="2" stroke-linecap="round"/></g><g><path d="M232.99195,145.92693v-11.16667c0,0 10.27902,-0.83333 15.33333,-0.83333c4.94322,0 14.66666,0.83333 14.66666,0.83333l-0.16667,8.66667z" fill="#ffffff" stroke="none" stroke-width="0" stroke-linecap="butt"/><path d="M258.15862,135.42694v9.33333" fill="none" stroke="#a5b5ff" stroke-width="2" stroke-linecap="round"/><path d="M250.49195,134.92694v9.83333" fill="none" stroke="#a5b5ff" stroke-width="2" stroke-linecap="round"/><path d="M242.32529,144.42693v-9.5" fill="none" stroke="#a5b5ff" stroke-width="2" stroke-linecap="round"/></g><path d="M210.50003,95.46006c5.58919,1.38715 7,3.8 7,3.8l24,-5l21.6,-0.2c0,0 0.106,10.59409 0.39999,16.3c0.06657,1.29206 0.81399,0.91075 1.70767,2.14466c0.8937,1.23391 1.65037,2.7708 2.00281,2.87831c4.96717,1.51529 5.86057,3.64265 5.8895,5.27703c0.11336,6.40216 -6.2,8.6 -6.2,8.6l-29.6,1.4l-3.4,3.4l-0.4,11.2c0,0 3.34533,-1.68801 6.02422,-1.91864c5.36655,-0.46202 24.17578,-0.68136 24.17578,-0.68136c0,0 0.08012,4.86496 -4,5.8c-4.93431,1.13079 -28.20667,1.41553 -33.8,-1.6c-2.9973,-1.61594 -4.46924,-2.4986 -6.19375,-5.90182c-1.1358,-2.24142 -0.09879,-3.01586 -0.89737,-5.46851c-0.6598,-2.02643 -2.766,-4.09575 -3.63374,-6.08819c-1.28142,-2.94229 -1.27893,-5.68075 -1.47514,-5.74148c-0.99168,-0.30692 -3.85974,-0.50017 -4.74021,-0.92387c-4.25236,-2.04631 -8.31456,-7.45172 -10.82724,-11.93544c-2.76256,-4.92962 -3.77735,-9.10004 -4.03255,-14.74069c-0.03149,-0.69599 10.51135,-1.34829 16.4,-0.6z" fill="#ffdebd" stroke="#000000" stroke-width="0" stroke-linecap="round"/><path d="M250.79782,108.14043c-0.30542,5.55549 -1.8547,6.24676 -7.72748,6.15422c-4.11393,-0.06482 -6.93598,-2.71232 -7.17222,-6.15422c-0.37017,-5.39343 3.3354,-6.24676 7.44984,-6.24676c4.11444,0 7.75814,0.63923 7.44986,6.24676z" fill="#ffffff" stroke="none" stroke-width="0" stroke-linecap="butt"/><path d="M263.29132,103.40686c-0.02255,2.50201 0.16865,6.11405 -3.47042,5.98286c-4.06241,-0.14645 -4.62237,-0.40593 -6.33932,-4.28693c-2.96143,-6.15049 3.15771,-5.90213 4.67351,-6.07708c3.76625,-0.43468 5.15877,1.87914 5.13623,4.38115z" data-paper-data="{&quot;index&quot;:null}" fill="#ffffff" stroke="none" stroke-width="0" stroke-linecap="butt"/><path d="M239.61195,113.40366c0,0 -4.66399,0.17083 -4.07742,-7.16927c0.38019,-4.75751 6.47036,-4.12118 6.47036,-4.12118" fill="none" stroke="#18c6ff" stroke-width="2" stroke-linecap="round"/><path d="M257.19049,99.28043c0,0 4.22083,-0.72559 5.52589,1.56669c2.44252,4.29008 -0.11057,7.51039 -0.11057,7.51039" fill="none" stroke="#18c6ff" stroke-width="2" stroke-linecap="round"/><path d="M247.80171,107.53278c0.63366,0 1.20715,0.25671 1.62286,0.67204c0.41579,0.4144 0.67288,0.98742 0.67288,1.62c0,0.63259 -0.25711,1.20562 -0.67288,1.62001c-0.4157,0.41532 -0.9892,0.67204 -1.62286,0.67204c-0.63358,0 -1.20709,-0.25671 -1.62286,-0.67204c-0.4157,-0.4144 -0.67281,-0.98743 -0.67281,-1.62001c0,-0.63259 0.25711,-1.20561 0.67281,-1.62c0.41579,-0.41532 0.98928,-0.67204 1.62286,-0.67204z" data-paper-data="{&quot;index&quot;:null}" fill="#000000" stroke="none" stroke-width="1.05702" stroke-linecap="butt"/><path d="M259.72605,105.41883c0.54842,0 1.04476,0.22217 1.40456,0.58165c0.35986,0.35865 0.58237,0.8546 0.58237,1.40209c0,0.54751 -0.22251,1.04343 -0.58237,1.40208c-0.35978,0.35947 -0.85613,0.58166 -1.40456,0.58166c-0.54837,0 -1.04473,-0.22218 -1.40458,-0.58166c-0.35977,-0.35865 -0.58232,-0.85459 -0.58232,-1.40208c0,-0.54751 0.22251,-1.04344 0.58232,-1.40209c0.35986,-0.35947 0.8562,-0.58165 1.40458,-0.58165z" data-paper-data="{&quot;index&quot;:null}" fill="#000000" stroke="none" stroke-width="1.05702" stroke-linecap="butt"/><path d="M225.35822,111.37855c-0.64374,0.86538 -2.0893,-0.29799 -3.47379,-2.54087c-0.40721,-0.65969 -0.99152,-1.86997 -1.61462,-3.25262c-0.69344,-0.28197 -1.86875,-0.98405 -2.42213,-2.49166c-0.78363,-2.13487 -0.45914,-4.12394 -0.45914,-4.12394l6.80302,-2.75757c0,0 0.46053,3.93362 0.88758,7.80899c0.37228,3.37832 0.75911,6.71238 0.27909,7.35767z" fill="#e7be7a" stroke="#000000" stroke-width="0" stroke-linecap="round"/><path d="M228.02488,133.04522c-0.61285,-0.41328 3.5,-3.33333 3.5,-3.33333c0,0 4.69323,-0.58958 7.18802,-1.61469c3.05813,-1.25658 4.98736,-2.83337 8.81198,-2.88531c3.2991,-0.04481 22.5,2.16666 22.5,2.16666c0,0 0.91607,4.51818 -1.83333,4.83333c-3.03617,0.34802 -6.49762,0.55102 -10.34276,0.38428c-3.45928,-0.15 -7.29264,-0.82948 -10.31765,-0.71661c-5.67436,0.21171 -9.19948,1.18213 -12.65789,1.49728c-3.12588,0.28485 -6.44134,-0.05713 -6.84835,-0.33162z" fill="#e7be7a" stroke="#000000" stroke-width="0" stroke-linecap="round"/><path d="M199.99194,101.59362c14.81513,-0.88784 18.2554,19.68672 7.16667,14.66667" fill="none" stroke="#f6b09a" stroke-width="3.5" stroke-linecap="round"/><path d="M212.15861,111.42695c-2.25365,0.81103 -7.66666,-0.5 -7.66666,-0.5" fill="none" stroke="#f6b09a" stroke-width="3" stroke-linecap="round"/><path d="M266.56622,75.68729c0,5.46762 -1.46317,9.58116 -12.2,9.9c-11.33464,0.33659 -12.2,-4.43238 -12.2,-9.9c0,-5.46762 5.46212,-9.9 12.2,-9.9c6.73787,0 12.2,4.43238 12.2,9.9z" fill="#ffffff" stroke="none" stroke-width="0" stroke-linecap="butt"/><path d="M283.96621,92.08729c-0.10146,0.43553 -10.22592,0.3521 -21.60818,2.04523c-5.57466,0.82924 -10.95104,0.85997 -14.59937,3.5017c-4.19793,3.0397 -30.53694,2.13845 -30.35609,1.36215c0.73933,-3.1735 3.16854,-8.15407 8.26364,-9.80909c6.15716,-2 27.29511,-7.38005 43.10212,-7.1384c6.46182,0.09879 15.93722,6.8649 15.19789,10.0384z" fill="url(#color-8)" stroke="none" stroke-width="0" stroke-linecap="butt"/><path d="M259.56844,70.77899c0.6657,1.62584 -3.86912,5.71927 -4.8184,6.84002c-0.16406,0.1937 -0.67201,0.28073 -0.56926,0.51069c0.2127,0.47603 9.77976,-1.41007 5.63926,2.60271c-1.30541,1.26515 -8.46884,0.94671 -9.18272,-1.4299c-0.97165,-3.23481 5.4425,-5.57134 5.12489,-7.52626c-0.06628,-0.40801 -2.92366,0.7255 -4.50708,1.33739c-0.26353,0.22259 -0.60807,0.35741 -0.9851,0.35741c-0.82843,0 -1.5,-0.65086 -1.5,-1.45373c0,-0.18693 0.03641,-0.36561 0.10271,-0.52976c1.03092,-2.81351 9.45143,-3.74746 10.69569,-0.70856z" fill="#6f18b4" stroke="none" stroke-width="0.5" stroke-linecap="butt"/><g stroke="none" stroke-width="0" stroke-linecap="butt"><path d="M273.24888,120.36239c-0.49003,4.03597 1.10495,8.94318 -12.98598,8.69816c-5.45105,-0.0948 -16.57196,-0.9685 -16.46865,-5.46171c0.07504,-3.26312 3.72767,-2.96341 3.72767,-4.46155c0,-5.7511 3.325,-9.17375 9.80075,-9.67824c3.31011,-0.73506 16.71019,4.93678 15.92621,10.90333z" data-paper-data="{&quot;origPos&quot;:null}" fill="#f991fd"/><path d="M270.09089,119.39841c-0.55534,1.94368 -3.49341,2.80852 -6.56237,1.93167c-3.06896,-0.87685 -5.10666,-3.16333 -4.55132,-5.10701c0.55534,-1.94367 3.49341,-2.80851 6.56238,-1.93167c3.06896,0.87685 5.10666,3.16333 4.55132,5.10701z" data-paper-data="{&quot;origRot&quot;:0,&quot;origPos&quot;:null}" fill="#faaefc"/></g><path d="M263.75381,95.01128c0,0 -3.21813,0.2802 -4.9663,1.09601c-2.40287,1.12134 -8.12217,5.01194 -8.12217,5.01194c0,0 -4.1011,-1.31319 -6.60282,-1.95193c-1.86578,-0.47637 -7.06735,-1.53833 -7.06735,-1.53833" fill="none" stroke="#000000" stroke-width="3" stroke-linecap="round"/></g></g></g></svg>