<svg version="1.1" xmlns="http://www.w3.org/2000/svg" xmlns:xlink="http://www.w3.org/1999/xlink" width="143.7336" height="143.73361" viewBox="0,0,143.7336,143.73361"><defs><linearGradient x1="240" y1="110.13325" x2="240" y2="249.86685" gradientUnits="userSpaceOnUse" id="color-1"><stop offset="0" stop-color="#3c94ed"/><stop offset="1" stop-color="#337fcc"/></linearGradient></defs><g transform="translate(-168.1332,-108.13324)"><g data-paper-data="{&quot;isPaintingLayer&quot;:true}" fill-rule="nonzero" stroke-linejoin="miter" stroke-miterlimit="10" stroke-dasharray="" stroke-dashoffset="0" style="mix-blend-mode: normal"><path d="M240,110.13325c19.2752,0 36.74421,7.8268 49.3899,20.47689c12.64989,12.64569 20.4769,30.11449 20.4769,49.38991c0,19.27542 -7.82701,36.74421 -20.4769,49.38991c-12.64569,12.65009 -30.1147,20.4769 -49.3899,20.4769c-19.27542,0 -36.74442,-7.8268 -49.39012,-20.4769c-12.64989,-12.64569 -20.47668,-30.11449 -20.47668,-49.38991c0,-19.27542 7.82679,-36.74421 20.47668,-49.38991c12.64569,-12.6501 30.11471,-20.47689 49.39012,-20.47689z" data-paper-data="{&quot;origPos&quot;:null}" fill="url(#color-1)" stroke="#23568d" stroke-width="4" stroke-linecap="butt"/><g fill="#ffffff" stroke-linecap="round"><g stroke="#23568d" stroke-width="9"><path d="M218.86617,140.12128l49.35653,4.2921l11.64953,33.72181l-27.28425,5.82462l-2.45238,10.11672h-22.99244l1.22648,-18.39401l24.52495,-6.74418l-1.22619,-9.50348l-21.45934,-0.91986l-12.26277,15.94134l-17.16753,-11.34291z"/><path d="M226.959,201.71229l24.52495,2.45238l-0.30662,19.6199l-23.91201,-2.759z"/></g><g stroke="none" stroke-width="2.03761"><path d="M218.86617,140.12129l49.35653,4.2921l11.64953,33.72181l-27.28425,5.82462l-2.45238,10.11672h-22.99244l1.22648,-18.39401l24.52495,-6.74418l-1.22619,-9.50348l-21.45934,-0.91986l-12.26277,15.94134l-17.16753,-11.34291z"/><path d="M226.959,201.7123l24.52495,2.45238l-0.30662,19.6199l-23.91201,-2.759z"/></g></g></g></g></svg>