<svg version="1.1" xmlns="http://www.w3.org/2000/svg" xmlns:xlink="http://www.w3.org/1999/xlink" width="719.06245" height="387.83535" viewBox="0,0,719.06245,387.83535"><g transform="translate(111.68802,24.61782)"><g data-paper-data="{&quot;isPaintingLayer&quot;:true}" fill-rule="nonzero" stroke-width="7" stroke-linecap="butt" stroke-linejoin="miter" stroke-miterlimit="10" stroke-dasharray="" stroke-dashoffset="0" style="mix-blend-mode: normal"><path d="M546.48335,295.15295v-25.91041h57.39108v25.91041z" fill="#674521" stroke="#4b3318"/><path d="M492.77343,359.71753v-25.91041h86.40133v25.91041z" fill="#674521" stroke="#4b3318"/><path d="M-95.63372,359.71753v-25.91041h62.94917v25.91041z" fill="#674521" stroke="#4b3318"/><path d="M-108.18802,295.15295v-25.91041h130.29661v25.91041z" fill="#674521" stroke="#4b3318"/><path d="M416.18674,295.15295v-25.91041h130.29661v25.91041z" fill="#674521" stroke="#4b3318"/><path d="M-102.61442,327.61544v-25.91041h34.00495v25.91042z" fill="#805c39" stroke="#674521"/><path d="M-32.68455,359.71753v-25.91041h130.29661v25.91041z" fill="#674521" stroke="#4b3318"/><g><g fill="#674521" stroke="#4b3318"><path d="M98.21256,359.71753v-25.91041h130.29661v25.91041z"/><path d="M230.34469,359.71753v-25.91041h130.29661v25.91041z"/><path d="M362.47683,359.71753v-25.91041h130.29661v25.91041z"/></g><g><path d="M21.63598,295.15295v-25.91041h130.29661v25.91041z" fill="#674521" stroke="#4b3318"/><path d="M60.20377,327.61544v-25.91041h130.29661v25.91042z" fill="#805c39" stroke="#674521"/><path d="M153.76811,295.15295v-25.91041h130.29661v25.91041z" fill="#674521" stroke="#4b3318"/><path d="M192.3359,327.61544v-25.91041h130.29661v25.91042z" fill="#805c39" stroke="#674521"/><path d="M285.90025,295.15295v-25.91041h130.29661v25.91041z" fill="#674521" stroke="#4b3318"/><path d="M324.46804,327.61544v-25.91041h130.29661v25.91042z" fill="#805c39" stroke="#674521"/></g><g fill="#805c39" stroke="#674521"><path d="M118.76233,263.05084v-25.91041h130.29661v25.91042z"/><path d="M-8.07215,263.05084v-25.91041h125.7921v25.91042z"/><path d="M250.89446,263.05084v-25.91041h130.29661v25.91042z"/></g></g><path d="M454.5326,327.61544v-25.91041h130.29661v25.91042z" fill="#805c39" stroke="#674521"/><path d="M-70.62957,327.61544v-25.91041h130.29661v25.91042z" fill="#805c39" stroke="#674521"/><path d="M382.34933,263.05084v-25.91041h130.29661v25.91042z" fill="#805c39" stroke="#674521"/><path d="M-96.16372,263.05087v-25.91042h88.09157v25.91041z" fill="#805c39" stroke="#674521"/><path d="M512.64594,263.05087v-25.91042h62.9807v25.91041z" fill="#805c39" stroke="#674521"/><path d="M546.48335,166.02382v-25.91041h57.39108v25.91041z" fill="#674521" stroke="#4b3318"/><path d="M492.77343,230.58839v-25.91041h86.40133v25.91041z" fill="#674521" stroke="#4b3318"/><path d="M-95.63372,230.58839v-25.91041h62.94917v25.91041z" fill="#674521" stroke="#4b3318"/><path d="M-108.18802,166.02382v-25.91041h130.29661v25.91041z" fill="#674521" stroke="#4b3318"/><path d="M416.18674,166.02382v-25.91041h130.29661v25.91041z" fill="#674521" stroke="#4b3318"/><path d="M-102.61442,198.4863v-25.91041h34.00495v25.91042z" fill="#805c39" stroke="#674521"/><path d="M-32.68455,230.58839v-25.91041h130.29661v25.91041z" fill="#674521" stroke="#4b3318"/><g><g fill="#674521" stroke="#4b3318"><path d="M98.21256,230.58839v-25.91041h130.29661v25.91041z"/><path d="M230.34469,230.58839v-25.91041h130.29661v25.91041z"/><path d="M362.47683,230.58839v-25.91041h130.29661v25.91041z"/></g><g><path d="M21.63598,166.02382v-25.91041h130.29661v25.91041z" fill="#674521" stroke="#4b3318"/><path d="M60.20377,198.4863v-25.91041h130.29661v25.91042z" fill="#805c39" stroke="#674521"/><path d="M153.76811,166.02382v-25.91041h130.29661v25.91041z" fill="#674521" stroke="#4b3318"/><path d="M192.3359,198.4863v-25.91041h130.29661v25.91042z" fill="#805c39" stroke="#674521"/><path d="M285.90025,166.02382v-25.91041h130.29661v25.91041z" fill="#674521" stroke="#4b3318"/><path d="M324.46804,198.4863v-25.91041h130.29661v25.91042z" fill="#805c39" stroke="#674521"/></g><g fill="#805c39" stroke="#674521"><path d="M118.76233,133.92172v-25.91041h130.29661v25.91042z"/><path d="M-8.07215,133.92172v-25.91041h125.7921v25.91042z"/><path d="M250.89446,133.92172v-25.91041h130.29661v25.91042z"/></g></g><path d="M454.5326,198.4863v-25.91041h130.29661v25.91042z" fill="#805c39" stroke="#674521"/><path d="M-70.62957,198.4863v-25.91041h130.29661v25.91042z" fill="#805c39" stroke="#674521"/><path d="M382.34933,133.92172v-25.91041h130.29661v25.91042z" fill="#805c39" stroke="#674521"/><path d="M-96.16372,133.92173v-25.91042h88.09157v25.91041z" fill="#805c39" stroke="#674521"/><path d="M512.64594,133.92173v-25.91042h62.9807v25.91041z" fill="#805c39" stroke="#674521"/><path d="M546.48335,36.89469v-25.91041h57.39108v25.91041z" fill="#674521" stroke="#4b3318"/><path d="M492.77343,101.45926v-25.91041h86.40133v25.91041z" fill="#674521" stroke="#4b3318"/><path d="M-95.63372,101.45926v-25.91041h62.94917v25.91041z" fill="#674521" stroke="#4b3318"/><path d="M-108.18802,36.89469v-25.91041h130.29661v25.91041z" fill="#674521" stroke="#4b3318"/><path d="M416.18674,36.89469v-25.91041h130.29661v25.91041z" fill="#674521" stroke="#4b3318"/><path d="M-102.61442,69.35717v-25.91041h34.00495v25.91042z" fill="#805c39" stroke="#674521"/><path d="M-32.68455,101.45926v-25.91041h130.29661v25.91041z" fill="#674521" stroke="#4b3318"/><g><g fill="#674521" stroke="#4b3318"><path d="M98.21256,101.45926v-25.91041h130.29661v25.91041z"/><path d="M230.34469,101.45926v-25.91041h130.29661v25.91041z"/><path d="M362.47683,101.45926v-25.91041h130.29661v25.91041z"/></g><g><path d="M21.63598,36.89469v-25.91041h130.29661v25.91041z" fill="#674521" stroke="#4b3318"/><path d="M60.20377,69.35717v-25.91041h130.29661v25.91042z" fill="#805c39" stroke="#674521"/><path d="M153.76811,36.89469v-25.91041h130.29661v25.91041z" fill="#674521" stroke="#4b3318"/><path d="M192.3359,69.35717v-25.91041h130.29661v25.91042z" fill="#805c39" stroke="#674521"/><path d="M285.90025,36.89469v-25.91041h130.29661v25.91041z" fill="#674521" stroke="#4b3318"/><path d="M324.46804,69.35717v-25.91041h130.29661v25.91042z" fill="#805c39" stroke="#674521"/></g><g fill="#805c39" stroke="#674521"><path d="M118.76233,4.79259v-25.91041h130.29661v25.91042z"/><path d="M-8.07215,4.79259v-25.91041h125.7921v25.91042z"/><path d="M250.89446,4.79259v-25.91041h130.29661v25.91042z"/></g></g><path d="M454.5326,69.35717v-25.91041h130.29661v25.91042z" fill="#805c39" stroke="#674521"/><path d="M-70.62957,69.35717v-25.91041h130.29661v25.91042z" fill="#805c39" stroke="#674521"/><path d="M382.34933,4.79259v-25.91041h130.29661v25.91042z" fill="#805c39" stroke="#674521"/><path d="M-96.16372,4.7926v-25.91042h88.09157v25.91041z" fill="#805c39" stroke="#674521"/><path d="M512.64594,4.7926v-25.91042h62.9807v25.91041z" fill="#805c39" stroke="#674521"/></g></g></svg>