<svg version="1.1" xmlns="http://www.w3.org/2000/svg" xmlns:xlink="http://www.w3.org/1999/xlink" width="377.53591" height="284.26633" viewBox="0,0,377.53591,284.26633"><defs><linearGradient x1="413.32663" y1="65.04539" x2="413.32663" y2="84.69205" gradientUnits="userSpaceOnUse" id="color-1"><stop offset="0" stop-color="#6fb361"/><stop offset="1" stop-color="#4a7b50"/></linearGradient><linearGradient x1="434.43774" y1="66.71206" x2="434.43774" y2="86.35872" gradientUnits="userSpaceOnUse" id="color-2"><stop offset="0" stop-color="#6fb361"/><stop offset="1" stop-color="#4a7b50"/></linearGradient><linearGradient x1="413.32663" y1="65.04539" x2="413.32663" y2="84.69205" gradientUnits="userSpaceOnUse" id="color-3"><stop offset="0" stop-color="#6fb361"/><stop offset="1" stop-color="#4a7b50"/></linearGradient><linearGradient x1="454.9933" y1="61.1565" x2="454.9933" y2="80.80316" gradientUnits="userSpaceOnUse" id="color-4"><stop offset="0" stop-color="#6fb361"/><stop offset="1" stop-color="#4a7b50"/></linearGradient><linearGradient x1="401.65996" y1="72.82317" x2="401.65996" y2="92.46983" gradientUnits="userSpaceOnUse" id="color-5"><stop offset="0" stop-color="#6fb361"/><stop offset="1" stop-color="#4a7b50"/></linearGradient><linearGradient x1="426.1044" y1="77.26761" x2="426.1044" y2="96.91427" gradientUnits="userSpaceOnUse" id="color-6"><stop offset="0" stop-color="#6fb361"/><stop offset="1" stop-color="#4a7b50"/></linearGradient><linearGradient x1="448.88218" y1="70.60094" x2="448.88218" y2="90.2476" gradientUnits="userSpaceOnUse" id="color-7"><stop offset="0" stop-color="#6fb361"/><stop offset="1" stop-color="#4a7b50"/></linearGradient><linearGradient x1="468.32663" y1="75.60094" x2="468.32663" y2="95.2476" gradientUnits="userSpaceOnUse" id="color-8"><stop offset="0" stop-color="#6fb361"/><stop offset="1" stop-color="#4a7b50"/></linearGradient><linearGradient x1="408.88219" y1="86.1565" x2="408.88219" y2="105.80316" gradientUnits="userSpaceOnUse" id="color-9"><stop offset="0" stop-color="#6fb361"/><stop offset="1" stop-color="#4a7b50"/></linearGradient><linearGradient x1="448.32663" y1="85.60095" x2="448.32663" y2="105.24761" gradientUnits="userSpaceOnUse" id="color-10"><stop offset="0" stop-color="#6fb361"/><stop offset="1" stop-color="#4a7b50"/></linearGradient></defs><g transform="translate(-133.79029,-60.15649)"><g data-paper-data="{&quot;isPaintingLayer&quot;:true}" fill-rule="nonzero" stroke-linejoin="miter" stroke-miterlimit="10" stroke-dasharray="" stroke-dashoffset="0" style="mix-blend-mode: normal"><path d="M496.41986,340.42285h-119.21724v-231.75438h119.21724z" data-paper-data="{&quot;index&quot;:null}" fill="#817250" stroke="#706035" stroke-width="2" stroke-linecap="butt"/><path d="M230.86121,343.42282h-86.04374v-177.58116h86.04374z" data-paper-data="{&quot;index&quot;:null}" fill="#817250" stroke="#706035" stroke-width="2" stroke-linecap="butt"/><path d="M229.82453,179.79543c-5.49539,-0.98381 -10.39367,-5.569 -16.06841,-5.7017c-8.31099,0.1327 -16.0342,5.75249 -24.36178,5.7017c-6.48438,-0.04043 -11.92069,-7.16133 -18.40092,-6.73837c-3.4034,0.43644 -2.10756,7.93883 -5.44253,8.81171c-4.8962,1.28443 -9.43787,-4.85474 -14.25424,-3.88752c-5.03511,1.02527 -10.93377,13.52856 -11.66255,9.74471c-2.51082,-8.78579 -6.12679,-23.14316 -4.38726,-34.62534c0.43437,-2.87054 8.72884,-6.15214 10.60729,-6.47869c7.51276,-1.30621 15.20383,-1.4814 22.80678,-2.07334c18.97939,-1.47933 37.98987,-4.74174 57.01694,-4.14669c4.75729,0.14824 6.16405,4.24102 9.33005,6.22003c2.3605,1.47519 6.37657,1.50629 7.2567,4.14669c2.18634,6.55799 2.53674,13.9847 1.03667,20.73343c-0.74122,3.33601 -4.34572,5.46533 -7.2567,7.2567c-1.78826,1.10094 -4.15603,1.40365 -7.25671,1.03667z" data-paper-data="{&quot;index&quot;:null}" fill="#577c53" stroke="#416143" stroke-width="2" stroke-linecap="round"/><path d="M379.7132,81.36041c10.52043,-5.40313 22.84712,-4.53039 34.40191,-1.52768c1.01526,0.26383 13.9289,4.79093 15.59938,4.92613c7.86843,0.63685 15.84127,-5.47725 22.81619,-7.89302c9.9603,-3.44976 22.54665,0.47786 31.00671,4.99807c11.96257,6.3916 24.42476,16.53775 26.78881,28.50873c0.80168,4.05954 0.45603,10.25791 -4.19649,13.0238c-3.4145,2.02989 -7.39327,3.62014 -11.71076,3.77813c-2.52848,0.09252 -5.3572,-0.93599 -7.5928,0.03907c-2.4075,1.05004 -3.93817,3.11198 -6.77836,3.88994c-12.50811,3.42612 -25.53616,2.57029 -38.42085,1.48941c-6.30878,-0.52923 -13.6117,-3.45111 -17.33042,-7.833c-0.36916,-0.43499 -1.09341,0.5636 -1.63996,0.84562c-0.86876,0.44828 -1.75553,0.7683 -2.64626,1.18946c-3.23078,1.52762 -6.81163,3.11229 -10.28966,4.1706c-9.91785,3.01785 -20.56136,3.91487 -30.57834,0.51335c-5.67415,-1.92681 -10.03044,-7.68624 -10.03044,-12.7139c0,-1.40384 -0.0415,-2.81003 0.06412,-4.21118c0.02907,-0.38556 1.10724,-3.13022 0.79219,-3.39233c-3.72546,-3.09937 -6.08096,-6.26323 -6.80892,-10.6595c-1.11348,-6.72451 9.20384,-16.17278 16.13196,-18.78211z" fill="#577c53" stroke="#416143" stroke-width="2" stroke-linecap="butt"/><path d="M423.13031,67.92445c2.51057,1.7783 4.06463,4.23413 4.06463,6.94428c0,2.71015 -1.55406,5.16598 -4.06463,6.94428c-2.51057,1.7783 -5.97764,2.87905 -9.80368,2.87905c-3.82604,0 -7.29311,-1.10076 -9.80368,-2.87905c-2.51057,-1.7783 -4.06463,-4.23413 -4.06463,-6.94428c0,-2.71015 1.55406,-5.16598 4.06463,-6.94428c2.51057,-1.7783 5.97764,-2.87905 9.80368,-2.87905c3.82604,0 7.29311,1.10076 9.80368,2.87905z" fill="url(#color-1)" stroke="#4b7c50" stroke-width="2" stroke-linecap="butt"/><path d="M444.24143,69.59111c2.51057,1.7783 4.06462,4.23413 4.06462,6.94428c0,2.71014 -1.55406,5.16598 -4.06462,6.94428c-2.51057,1.7783 -5.97765,2.87905 -9.80369,2.87905c-3.82603,0 -7.29311,-1.10076 -9.80368,-2.87905c-2.51057,-1.77829 -4.06463,-4.23413 -4.06463,-6.94428c0,-2.71014 1.55406,-5.16598 4.06463,-6.94428c2.51057,-1.77829 5.97764,-2.87905 9.80368,-2.87905c3.82603,0 7.29312,1.10076 9.80369,2.87905z" fill="url(#color-2)" stroke="#4b7c50" stroke-width="2" stroke-linecap="butt"/><path d="M423.13032,67.92445c2.51057,1.7783 4.06462,4.23413 4.06462,6.94428c0,2.71014 -1.55406,5.16598 -4.06462,6.94428c-2.51057,1.7783 -5.97765,2.87905 -9.80369,2.87905c-3.82603,0 -7.29311,-1.10076 -9.80368,-2.87905c-2.51057,-1.77829 -4.06463,-4.23413 -4.06463,-6.94428c0,-2.71014 1.55406,-5.16598 4.06463,-6.94428c2.51057,-1.77829 5.97764,-2.87905 9.80368,-2.87905c3.82603,0 7.29312,1.10076 9.80369,2.87905z" fill="url(#color-3)" stroke="#4b7c50" stroke-width="2" stroke-linecap="butt"/><path d="M384.89387,96.80224c8.78628,-17.57256 28.47106,-14.16327 44.31997,-13.69922c5.88197,0.17222 11.76754,-2.36218 17.58252,-1.7896c3.17311,0.31244 9.50217,3.5096 11.04996,3.55421c2.75423,0.07939 5.58667,-1.51779 8.45666,-1.22773c8.61873,0.87105 19.62214,7.72345 20.73954,16.82332c0.37705,3.0706 -1.36249,5.63861 -2.94916,7.93299c-4.4782,6.47565 -10.70726,7.99474 -18.09738,9.06709c-4.88498,0.70884 -8.91587,3.9478 -14.00979,4.29503c-4.2715,0.29117 -7.88901,-0.63202 -11.94389,-1.04979c-1.93817,-0.19969 -3.78959,0.94052 -5.68255,0.94052c-2.14399,0 -4.2711,-0.69644 -6.37965,-0.96449c-5.88484,-0.7481 -13.15503,0.60657 -19.03484,0.60657c-2.95757,0 -6.50097,-2.63994 -7.96892,-2.75409c-1.8355,-0.14272 -3.606,-0.1041 -5.40852,-0.2172c-8.36424,-0.52483 -13.85283,-9.9143 -11.81566,-17.38786c0.29873,-1.09592 0.21021,-2.57996 1.00072,-3.49528z" fill-opacity="0.25098" fill="#000000" stroke="none" stroke-width="0.5" stroke-linecap="butt"/><path d="M431.08653,110.28913h-7.88391v-21.62066h7.88391z" data-paper-data="{&quot;index&quot;:null}" fill="#816c3e" stroke="#706035" stroke-width="0" stroke-linecap="butt"/><path d="M412.7532,115.9558h-7.88391v-21.62066h7.88391z" data-paper-data="{&quot;index&quot;:null}" fill="#816c3e" stroke="#706035" stroke-width="0" stroke-linecap="butt"/><path d="M464.79698,64.03555c2.51057,1.7783 4.06462,4.23413 4.06462,6.94427c0,2.71014 -1.55406,5.16598 -4.06462,6.94428c-2.51057,1.7783 -5.97765,2.87905 -9.80369,2.87905c-3.82603,0 -7.29311,-1.10076 -9.80368,-2.87905c-2.51057,-1.77829 -4.06462,-4.23413 -4.06462,-6.94428c0,-2.71014 1.55406,-5.16598 4.06462,-6.94427c2.51057,-1.77829 5.97764,-2.87906 9.80368,-2.87906c3.82603,0 7.29312,1.10076 9.80369,2.87906z" fill="url(#color-4)" stroke="#4b7c50" stroke-width="2" stroke-linecap="butt"/><path d="M411.46365,75.70222c2.51057,1.7783 4.06463,4.23413 4.06463,6.94427c0,2.71014 -1.55406,5.16598 -4.06463,6.94428c-2.51057,1.7783 -5.97765,2.87905 -9.80368,2.87905c-3.82603,0 -7.29311,-1.10076 -9.80368,-2.87905c-2.51057,-1.77829 -4.06462,-4.23413 -4.06462,-6.94428c0,-2.71014 1.55406,-5.16598 4.06462,-6.94427c2.51057,-1.77829 5.97765,-2.87906 9.80368,-2.87906c3.82603,0 7.29312,1.10076 9.80368,2.87906z" fill="url(#color-5)" stroke="#4b7c50" stroke-width="2" stroke-linecap="butt"/><path d="M435.90809,80.14666c2.51057,1.7783 4.06462,4.23413 4.06462,6.94428c0,2.71014 -1.55406,5.16598 -4.06462,6.94427c-2.51057,1.7783 -5.97765,2.87906 -9.80369,2.87906c-3.82603,0 -7.29311,-1.10076 -9.80368,-2.87906c-2.51057,-1.77829 -4.06462,-4.23413 -4.06462,-6.94427c0,-2.71014 1.55406,-5.16598 4.06462,-6.94428c2.51057,-1.77829 5.97764,-2.87906 9.80368,-2.87906c3.82603,0 7.29312,1.10076 9.80369,2.87906z" fill="url(#color-6)" stroke="#4b7c50" stroke-width="2" stroke-linecap="butt"/><path d="M473.08653,107.28913h-7.88391v-21.62066h7.88391z" data-paper-data="{&quot;index&quot;:null}" fill="#816c3e" stroke="#706035" stroke-width="0" stroke-linecap="butt"/><path d="M458.68587,73.48c2.51057,1.7783 4.06463,4.23413 4.06463,6.94427c0,2.71014 -1.55406,5.16598 -4.06463,6.94428c-2.51057,1.7783 -5.97765,2.87906 -9.80368,2.87906c-3.82603,0 -7.29311,-1.10076 -9.80368,-2.87906c-2.51057,-1.77829 -4.06463,-4.23413 -4.06463,-6.94428c0,-2.71014 1.55406,-5.16598 4.06463,-6.94427c2.51057,-1.77829 5.97764,-2.87906 9.80368,-2.87906c3.82603,0 7.29312,1.10076 9.80368,2.87906z" fill="url(#color-7)" stroke="#4b7c50" stroke-width="2" stroke-linecap="butt"/><path d="M478.13031,78.48c2.51057,1.7783 4.06463,4.23413 4.06463,6.94428c0,2.71014 -1.55406,5.16598 -4.06463,6.94428c-2.51057,1.7783 -5.97765,2.87905 -9.80368,2.87905c-3.82603,0 -7.29311,-1.10076 -9.80368,-2.87905c-2.51057,-1.77829 -4.06462,-4.23413 -4.06462,-6.94428c0,-2.71014 1.55406,-5.16598 4.06462,-6.94428c2.51057,-1.77829 5.97765,-2.87905 9.80368,-2.87905c3.82603,0 7.29312,1.10076 9.80368,2.87905z" fill="url(#color-8)" stroke="#4b7c50" stroke-width="2" stroke-linecap="butt"/><path d="M418.68587,89.03556c2.51057,1.7783 4.06462,4.23413 4.06462,6.94428c0,2.71014 -1.55406,5.16598 -4.06462,6.94428c-2.51057,1.7783 -5.97765,2.87905 -9.80369,2.87905c-3.82603,0 -7.29311,-1.10076 -9.80368,-2.87905c-2.51057,-1.77829 -4.06463,-4.23413 -4.06463,-6.94428c0,-2.71014 1.55406,-5.16598 4.06463,-6.94428c2.51057,-1.77829 5.97764,-2.87905 9.80368,-2.87905c3.82603,0 7.29312,1.10076 9.80369,2.87905z" fill="url(#color-9)" stroke="#4b7c50" stroke-width="2" stroke-linecap="butt"/><path d="M452.7532,118.62247h-7.88391v-21.62066h7.88391z" data-paper-data="{&quot;index&quot;:null}" fill="#816c3e" stroke="#706035" stroke-width="0" stroke-linecap="butt"/><path d="M458.13032,88.48c2.51057,1.7783 4.06462,4.23413 4.06462,6.94428c0,2.71014 -1.55406,5.16598 -4.06462,6.94428c-2.51057,1.7783 -5.97765,2.87905 -9.80369,2.87905c-3.82603,0 -7.29311,-1.10076 -9.80368,-2.87905c-2.51057,-1.77829 -4.06463,-4.23413 -4.06463,-6.94428c0,-2.71014 1.55406,-5.16598 4.06463,-6.94428c2.51057,-1.77829 5.97764,-2.87905 9.80368,-2.87905c3.82603,0 7.29312,1.10076 9.80369,2.87905z" fill="url(#color-10)" stroke="#4b7c50" stroke-width="2" stroke-linecap="butt"/></g></g></svg>