<svg version="1.1" xmlns="http://www.w3.org/2000/svg" xmlns:xlink="http://www.w3.org/1999/xlink" width="696.61561" height="465.96396" viewBox="0,0,696.61561,465.96396"><defs><linearGradient x1="374.8048" y1="112.43243" x2="374.8048" y2="330.15015" gradientUnits="userSpaceOnUse" id="color-1"><stop offset="0" stop-color="#af9141"/><stop offset="1" stop-color="#ddb747"/></linearGradient><linearGradient x1="307.98801" y1="330.02755" x2="307.98801" y2="370.56809" gradientUnits="userSpaceOnUse" id="color-2"><stop offset="0" stop-color="#af9141"/><stop offset="1" stop-color="#ddb747"/></linearGradient><linearGradient x1="301.23123" y1="-39.21922" x2="301.23123" y2="37.35736" gradientUnits="userSpaceOnUse" id="color-3"><stop offset="0" stop-color="#af9141"/><stop offset="1" stop-color="#ddb747"/></linearGradient><linearGradient x1="594.77477" y1="-69.24925" x2="594.77477" y2="394.71471" gradientUnits="userSpaceOnUse" id="color-4"><stop offset="0" stop-color="#af9141"/><stop offset="1" stop-color="#ddb747"/></linearGradient></defs><g transform="translate(26.51651,70.24925)"><g data-paper-data="{&quot;isPaintingLayer&quot;:true}" fill-rule="nonzero" stroke-linecap="butt" stroke-linejoin="miter" stroke-miterlimit="10" stroke-dasharray="" stroke-dashoffset="0" style="mix-blend-mode: normal"><path d="M286.21622,330.15015v-217.71772h177.17718v217.71772z" fill="url(#color-1)" stroke="#91773e" stroke-width="2"/><path d="M-25.51651,370.56809v-40.54054h588.009v40.54054z" data-paper-data="{&quot;index&quot;:null}" fill="url(#color-2)" stroke="#91773e" stroke-width="2"/><path d="M-14.05105,37.35736v-76.57658l597.56456,0v76.57658z" fill="url(#color-3)" stroke="#91773e" stroke-width="2"/><path d="M520.45045,394.71471v-463.96396h148.64865v463.96396z" fill="url(#color-4)" stroke="#91773e" stroke-width="2"/><text transform="translate(297.78608,137.47797) scale(0.5,0.5)" font-size="40" xml:space="preserve" fill="#d9b550" fill-rule="nonzero" stroke="none" stroke-width="1" stroke-linecap="butt" stroke-linejoin="miter" stroke-miterlimit="10" stroke-dasharray="" stroke-dashoffset="0" font-family="Handwriting" font-weight="normal" text-anchor="start" style="mix-blend-mode: normal"><tspan x="0" dy="0">The 3 d numb r of</tspan><tspan x="0" dy="46.150000000000006px">the c d  is 4</tspan></text><path d="M344.01563,131.95749c0,-1.38071 1.11929,-2.5 2.5,-2.5c1.38071,0 2.5,1.11929 2.5,2.5c0,1.38071 -1.11929,2.5 -2.5,2.5c-1.38071,0 -2.5,-1.11929 -2.5,-2.5z" fill="#d2af4e" stroke="none" stroke-width="0.5"/><path d="M404.01563,131.95749c0,-1.38071 1.11929,-2.5 2.5,-2.5c1.38071,0 2.5,1.11929 2.5,2.5c0,1.38071 -1.11929,2.5 -2.5,2.5c-1.38071,0 -2.5,-1.11929 -2.5,-2.5z" fill="#d2af4e" stroke="none" stroke-width="0.5"/><path d="M338.01563,155.95749c0,-1.38071 1.11929,-2.5 2.5,-2.5c1.38071,0 2.5,1.11929 2.5,2.5c0,1.38071 -1.11929,2.5 -2.5,2.5c-1.38071,0 -2.5,-1.11929 -2.5,-2.5z" fill="#d2af4e" stroke="none" stroke-width="0.5"/><path d="M351.01563,153.95749c0,-1.38071 1.11929,-2.5 2.5,-2.5c1.38071,0 2.5,1.11929 2.5,2.5c0,1.38071 -1.11929,2.5 -2.5,2.5c-1.38071,0 -2.5,-1.11929 -2.5,-2.5z" fill="#d2af4e" stroke="none" stroke-width="0.5"/><path d="M327.60242,213.63656c0.60634,2.42535 -1.81902,3.03169 -1.81902,3.03169l-2.26666,0.48973c-5.52572,-0.01105 -11.04517,0.41508 -16.60319,0.41508c0,0 -2.5,0 -2.5,-2.5c0,-2.5 2.5,-2.5 2.5,-2.5c5.56377,0 11.06924,-0.40513 16.60319,-0.41508l1.05398,-0.34044c0,0 2.42536,-0.60634 3.0317,1.81902z" fill="#af9141" stroke="none" stroke-width="0.5"/><path d="M370.0152,213.82782c0,2.5 -2.5,2.5 -2.5,2.5h-2.90556c-7.59517,-0.0084 -15.20598,-0.41508 -22.82939,-0.41508c0,0 -2.5,0 -2.5,-2.5c0,-2.5 2.5,-2.5 2.5,-2.5c7.61996,0 15.239,0.42421 22.82939,0.41508h2.90556c0,0 2.5,0 2.5,2.5z" fill="#af9141" stroke="none" stroke-width="0.5"/><path d="M413.59858,201.37543c0,2.5 -2.5,2.5 -2.5,2.5h-0.37699c-3.5154,0 -7.2499,0.30716 -10.93597,0.46606c-0.11713,2.48123 -0.34778,4.95328 -0.74885,7.40685c0,0 -0.411,2.46598 -2.87698,2.05499c-2.46598,-0.411 -2.05499,-2.87698 -2.05499,-2.87698c0.36627,-2.14893 0.5839,-4.32026 0.70018,-6.50304c-0.92558,-0.01822 -1.83982,-0.06013 -2.73812,-0.13356c-2.20698,-0.18041 -5.47048,0.65109 -6.51421,-1.30184c-1.13228,-2.11862 1.3194,-4.62389 2.14079,-6.88131c1.28181,-3.52279 3.39608,-6.89909 5.84851,-9.86308l-0.38701,-0.22115l1.63624,-2.86342c0.42441,-0.77572 1.24811,-1.30179 2.19469,-1.30179c1.38071,0 2.5,1.11929 2.5,2.5v2.86619c0.16246,3.85504 0.36636,7.7397 0.39649,11.61877c3.61107,-0.06297 7.23626,0.03331 10.83922,0.03331h0.37699c0,0 2.5,0 2.5,2.5zM394.91236,198.99781c-0.01434,-1.66935 -0.06472,-3.34009 -0.13031,-5.0074c-0.79091,1.56905 -1.65769,3.14333 -2.61647,4.35226c-0.6448,0.81303 -2.09426,1.05273 -2.33135,2.06297c-0.18164,0.77399 1.33043,-0.95216 2.10873,-1.11436c0.97466,-0.20311 1.97063,-0.26175 2.96941,-0.29347z" fill="#af9141" stroke="none" stroke-width="0.5"/><path d="M448.0502,211.33734c0,2.5 -2.5,2.5 -2.5,2.5h-1.24524c-7.92652,0 -15.74615,-0.83016 -23.65955,-0.83016c0,0 -2.5,0 -2.5,-2.5c0,-2.5 2.5,-2.5 2.5,-2.5c7.91552,0 15.73316,0.83016 23.65955,0.83016h1.24524c0,0 2.5,0 2.5,2.5z" fill="#af9141" stroke="none" stroke-width="0.5"/></g></g></svg>