<svg version="1.1" xmlns="http://www.w3.org/2000/svg" xmlns:xlink="http://www.w3.org/1999/xlink" width="64.3297" height="123.36367" viewBox="0,0,64.3297,123.36367"><defs><linearGradient x1="249.41692" y1="162.73929" x2="268.91743" y2="162.73929" gradientUnits="userSpaceOnUse" id="color-1"><stop offset="0" stop-color="#523110"/><stop offset="1" stop-color="#492a0c"/></linearGradient><linearGradient x1="228.52281" y1="162.94407" x2="248.02331" y2="162.94407" gradientUnits="userSpaceOnUse" id="color-2"><stop offset="0" stop-color="#6b4210"/><stop offset="1" stop-color="#603a10"/></linearGradient><linearGradient x1="207.41692" y1="162.73928" x2="226.91742" y2="162.73928" gradientUnits="userSpaceOnUse" id="color-3"><stop offset="0" stop-color="#523110"/><stop offset="1" stop-color="#492a0c"/></linearGradient><linearGradient x1="259.00733" y1="104.3976" x2="259.00733" y2="220.76126" gradientUnits="userSpaceOnUse" id="color-4"><stop offset="0" stop-color="#945a18"/><stop offset="1" stop-color="#744610"/></linearGradient><linearGradient x1="217.00733" y1="104.39759" x2="217.00733" y2="220.76126" gradientUnits="userSpaceOnUse" id="color-5"><stop offset="0" stop-color="#945a18"/><stop offset="1" stop-color="#744610"/></linearGradient><linearGradient x1="237.79354" y1="104.28272" x2="237.79354" y2="220.64638" gradientUnits="userSpaceOnUse" id="color-6"><stop offset="0" stop-color="#efa539"/><stop offset="1" stop-color="#a56318"/></linearGradient><linearGradient x1="239.16718" y1="183.32236" x2="239.16718" y2="207.1562" gradientUnits="userSpaceOnUse" id="color-7"><stop offset="0" stop-color="#523110"/><stop offset="1" stop-color="#492a0c"/></linearGradient><linearGradient x1="239.16718" y1="117.65569" x2="239.16718" y2="141.48953" gradientUnits="userSpaceOnUse" id="color-8"><stop offset="0" stop-color="#523110"/><stop offset="1" stop-color="#492a0c"/></linearGradient><linearGradient x1="210.38399" y1="195.04391" x2="269.12233" y2="195.04391" gradientUnits="userSpaceOnUse" id="color-9"><stop offset="0" stop-color="#945a18"/><stop offset="1" stop-color="#744610"/></linearGradient><linearGradient x1="210.38399" y1="129.37725" x2="269.12233" y2="129.37725" gradientUnits="userSpaceOnUse" id="color-10"><stop offset="0" stop-color="#945a18"/><stop offset="1" stop-color="#744610"/></linearGradient></defs><g transform="translate(-206.41692,-101.15984)"><g data-paper-data="{&quot;isPaintingLayer&quot;:true}" fill-rule="nonzero" stroke-linejoin="miter" stroke-miterlimit="10" stroke-dasharray="" stroke-dashoffset="0" style="mix-blend-mode: normal"><path d="M249.41692,223.31873v-121.15888h19.50051v121.15888z" fill="url(#color-1)" stroke="#311800" stroke-width="2" stroke-linecap="butt"/><path d="M228.52281,223.52351v-121.15888h19.5005v121.15888z" fill="url(#color-2)" stroke="#311800" stroke-width="2" stroke-linecap="butt"/><path d="M207.41692,223.31872v-121.15888h19.5005v121.15888z" fill="url(#color-3)" stroke="#311800" stroke-width="2" stroke-linecap="butt"/><path d="M251.335,220.76126v-116.36367h15.34466" fill="none" stroke="url(#color-4)" stroke-width="2" stroke-linecap="round"/><path d="M209.335,220.76126v-116.36367h15.34466" fill="none" stroke="url(#color-5)" stroke-width="2" stroke-linecap="round"/><path d="M230.12121,220.64638v-116.36367h15.34466" fill="none" stroke="url(#color-6)" stroke-width="2" stroke-linecap="round"/><path d="M208.58774,183.32236h61.15888v23.83384h-61.15888z" data-paper-data="{&quot;index&quot;:null}" fill="url(#color-7)" stroke="#311800" stroke-width="2" stroke-linecap="butt"/><path d="M208.58773,117.65569h61.15889v23.83384h-61.15889z" data-paper-data="{&quot;index&quot;:null}" fill="url(#color-8)" stroke="#311800" stroke-width="2" stroke-linecap="butt"/><path d="M210.38398,204.42116v-18.7545h57.73835" data-paper-data="{&quot;index&quot;:null}" fill="none" stroke="url(#color-9)" stroke-width="2" stroke-linecap="round"/><path d="M210.38398,138.75449v-18.75449h57.73835" data-paper-data="{&quot;index&quot;:null}" fill="none" stroke="url(#color-10)" stroke-width="2" stroke-linecap="round"/><g data-paper-data="{&quot;index&quot;:null}"><g fill="#313131" stroke="#1e1e1e" stroke-width="2"><path d="M209.39091,204.43333v-17.66667h3.66667v17.66667z" stroke-linecap="butt"/><path d="M213.39092,189.26666c0,0 40.72364,-0.41179 44.16667,0c3.44303,0.41179 6,2.57212 6,6c0,3.42788 -2.96733,5.86814 -6,6c-3.03267,0.13186 -5.5,-5.5 -5.5,-5.5h-20l-10.66667,5.66667l-8,-0.33333z" stroke-linecap="round"/></g><path d="M258.05758,197.26667c-1.38071,0 -2.5,-1.11929 -2.5,-2.5c0,-1.38071 1.11929,-2.5 2.5,-2.5c1.38071,0 2.5,1.11929 2.5,2.5c0,1.38071 -1.11929,2.5 -2.5,2.5z" fill="#c3c3c3" stroke="none" stroke-width="0.5" stroke-linecap="butt"/></g><g data-paper-data="{&quot;index&quot;:null}"><g fill="#313131" stroke="#1e1e1e" stroke-width="2"><path d="M209.39091,138.76666v-17.66667h3.66667v17.66667z" stroke-linecap="butt"/><path d="M213.39092,123.59999c0,0 40.72364,-0.41179 44.16667,0c3.44303,0.41179 6,2.57212 6,6c0,3.42788 -2.96733,5.86814 -6,6c-3.03267,0.13186 -5.5,-5.5 -5.5,-5.5h-20l-10.66667,5.66667l-8,-0.33333z" stroke-linecap="round"/></g><path d="M258.05758,131.6c-1.38071,0 -2.5,-1.11929 -2.5,-2.5c0,-1.38071 1.11929,-2.5 2.5,-2.5c1.38071,0 2.5,1.11929 2.5,2.5c0,1.38071 -1.11929,2.5 -2.5,2.5z" fill="#c3c3c3" stroke="none" stroke-width="0.5" stroke-linecap="butt"/></g><g data-paper-data="{&quot;index&quot;:null}" stroke="none" stroke-width="0" stroke-linecap="butt"><path d="M259.13993,180.4417c-4.24422,0 -7.68484,-3.44061 -7.68484,-7.68483c0,-4.24422 3.44062,-7.68484 7.68484,-7.68484c4.24422,0 7.68483,3.44062 7.68483,7.68484c0,4.24422 -3.44061,7.68483 -7.68483,7.68483z" fill="#311800"/><path d="M259.13992,178.35768c-4.24422,0 -7.68484,-3.44062 -7.68484,-7.68484c0,-4.24422 3.44062,-7.68484 7.68484,-7.68484c4.24422,0 7.68484,3.44062 7.68484,7.68484c0,4.24422 -3.44062,7.68484 -7.68484,7.68484z" fill="#ffd200"/><path d="M259.27017,163.76951c2.87743,0 5.21006,2.09937 5.21006,4.68905c0,2.58969 -2.33263,4.68905 -5.21006,4.68905c-2.87743,0 -5.21005,-2.09936 -5.21005,-4.68905c0,-2.58969 2.33262,-4.68905 5.21005,-4.68905z" fill="#fff500"/></g></g></g></svg>