<svg version="1.1" xmlns="http://www.w3.org/2000/svg" xmlns:xlink="http://www.w3.org/1999/xlink" width="89.62626" height="187.00189" viewBox="0,0,89.62626,187.00189"><defs><linearGradient x1="236.14033" y1="255.76994" x2="274.93744" y2="255.76994" gradientUnits="userSpaceOnUse" id="color-1"><stop offset="0" stop-color="#8d6431"/><stop offset="1" stop-color="#ac793c"/></linearGradient><linearGradient x1="214.51179" y1="257.65253" x2="253.31182" y2="257.65253" gradientUnits="userSpaceOnUse" id="color-2"><stop offset="0" stop-color="#8d6431"/><stop offset="1" stop-color="#ac793c"/></linearGradient><linearGradient x1="244.96965" y1="170.90759" x2="244.96965" y2="224.28189" gradientUnits="userSpaceOnUse" id="color-3"><stop offset="0" stop-color="#4f6af7"/><stop offset="1" stop-color="#4758dd"/></linearGradient><linearGradient x1="274.946" y1="119.13053" x2="274.946" y2="132.45389" gradientUnits="userSpaceOnUse" id="color-4"><stop offset="0" stop-color="#349fc7"/><stop offset="1" stop-color="#297299"/></linearGradient><linearGradient x1="255.21856" y1="111.7076" x2="255.21856" y2="129.72296" gradientUnits="userSpaceOnUse" id="color-5"><stop offset="0" stop-color="#349fc7"/><stop offset="1" stop-color="#308fb6"/></linearGradient><linearGradient x1="244.87944" y1="118.595" x2="244.87944" y2="130.5763" gradientUnits="userSpaceOnUse" id="color-6"><stop offset="0" stop-color="#38291e"/><stop offset="1" stop-color="#381e32"/></linearGradient><linearGradient x1="262.12054" y1="115.59217" x2="262.12054" y2="126.13672" gradientUnits="userSpaceOnUse" id="color-7"><stop offset="0" stop-color="#38291e"/><stop offset="1" stop-color="#381e32"/></linearGradient></defs><g transform="translate(-198.76171,-85.16498)"><g data-paper-data="{&quot;isPaintingLayer&quot;:true}" fill-rule="nonzero" stroke-linejoin="miter" stroke-miterlimit="10" stroke-dasharray="" stroke-dashoffset="0" style="mix-blend-mode: normal"><g data-paper-data="{&quot;origPos&quot;:null,&quot;origRot&quot;:0}" stroke="none" stroke-linecap="butt"><g data-paper-data="{&quot;origPos&quot;:null,&quot;index&quot;:null,&quot;origRot&quot;:0}" stroke-width="0"><path d="M259.3164,164.18492c5.30691,0.30612 9.72049,9.92958 9.15994,19.64746c-0.56057,9.71787 -2.54468,18.87166 -2.54468,18.87166l-15.93617,-0.73591c0,0 -0.98315,-15.30375 -0.53228,-23.11992c0.56057,-9.71787 4.54628,-14.96939 9.85319,-14.66328z" data-paper-data="{&quot;origRot&quot;:0,&quot;origPos&quot;:null}" fill="#41c3ff"/><g data-paper-data="{&quot;origPos&quot;:null}" fill="#ffffff"><path d="M256.87769,207.29675c9.3882,0.11058 20.99766,0.76832 20.30304,10.64064c-0.50392,7.16199 -10.53663,17.07336 -19.66456,14.87535c-9.96065,-2.39854 -19.22539,-2.94227 -17.40501,-13.90621c1.69975,-10.23739 7.37834,-11.72035 16.76654,-11.60979z" data-paper-data="{&quot;origRot&quot;:0,&quot;origPos&quot;:null}"/><path d="M258.24773,199.49258c7.24812,0.0949 15.5363,-1.21049 15.01999,4.34412c-0.5776,6.21391 -2.45903,5.81776 -14.2997,5.37002c-13.48872,-0.51007 -15.64317,1.86767 -15.34146,-4.97392c0.17617,-3.99502 7.37306,-4.83511 14.62117,-4.74022z" data-paper-data="{&quot;origRot&quot;:0,&quot;origPos&quot;:null}"/></g></g><path d="M252.57627,228.53444l0.60683,-8.63625l-5.89793,-5.1906l8.09293,-0.06011l2.96627,-7.53445l3.43043,7.39619l9.33975,-0.0703l-7.21761,5.65577l1.32044,8.30221l-6.61497,-5.11249z" data-paper-data="{&quot;origPos&quot;:null,&quot;origRot&quot;:0}" fill="#ffe008" stroke-width="NaN"/></g><g data-paper-data="{&quot;origPos&quot;:null,&quot;origRot&quot;:0}" stroke="none" stroke-width="0" stroke-linecap="butt"><path d="M264.44253,240.70818c0.57185,4.53336 5.84584,5.95169 5.75814,6.98548c-0.35485,4.18273 -2.1134,7.23692 -8.83264,9.66973c-8.32327,3.01359 -15.03628,2.92166 -22.96761,-1.00932c-5.40193,-2.67734 -1.02881,-5.63127 0.54014,-11.45256c0.56299,-2.08884 0.89808,-4.79244 1.01421,-10.22762c0.14519,-6.7954 3.72917,-25.4235 3.72917,-25.4235c0,0 7.30976,-0.57952 12.37547,-0.01538c3.9978,0.44521 9.81977,-4.8442 9.81977,-4.8442c0,0 -2.75856,25.83797 -1.43666,36.31737z" data-paper-data="{&quot;origPos&quot;:null}" fill="#4758dd"/><path d="M273.15903,262.34331c0.27555,3.88875 -3.55174,6.00135 -7.22804,7.29867c-2.40925,0.85018 -14.35117,1.34585 -20.51025,-1.69881c-1.91212,-0.94524 -3.5761,-3.28072 -3.5761,-3.28072c0,0 -4.97046,1.11362 -5.059,-0.3405c-0.07028,-1.1543 -0.23849,-3.11648 0.8368,-3.7943c4.62858,-2.91772 16.02514,-3.71907 21.48291,-4.10579c7.49229,-0.53089 13.78433,2.12025 14.05368,5.92149z" data-paper-data="{&quot;origPos&quot;:null}" fill="#f8dca0"/><path d="M274.69266,257.32525c-1.04057,4.6484 -5.3657,8.22482 -13.83585,8.825c-8.47014,0.60018 -17.87915,-3.67047 -17.87915,-3.67047c0,0 -6.10917,0.75732 -6.34471,-0.80716c-0.48751,-3.23806 -0.92261,-8.54699 0.29756,-8.80804c4.50451,-0.96371 3.68902,-0.28682 9.54859,-1.98049c3.79378,-1.09657 9.96938,-5.2235 13.9086,-5.50262c8.47014,-0.60018 16.01829,4.2901 14.30497,11.94379z" data-paper-data="{&quot;origPos&quot;:null}" fill="url(#color-1)"/></g><g data-paper-data="{&quot;origPos&quot;:null,&quot;origRot&quot;:0}" stroke="none" stroke-width="0" stroke-linecap="butt"><path d="M242.87356,242.60637c0.5541,4.53556 5.8225,5.97452 5.73076,7.00796c-0.37122,4.18131 -2.1417,7.22859 -8.87042,9.63509c-8.335,2.98099 -15.0476,2.86279 -22.96349,-1.0992c-5.39141,-2.69847 -1.00677,-5.63525 0.58496,-11.45036c0.57116,-2.08662 0.91683,-4.78889 1.05423,-10.22358c0.17178,-6.79478 3.82864,-25.40871 3.82864,-25.40871c0,0 7.31197,-0.5509 12.37544,0.03305c3.99602,0.46085 10.90513,3.64191 10.90513,3.64191c0,0 -3.92614,17.37933 -2.64527,27.86383z" data-paper-data="{&quot;origPos&quot;:null}" fill="#4758dd"/><path d="M251.50532,264.27545c0.26033,3.8898 -3.5752,5.9874 -7.25655,7.27032c-2.41256,0.84075 -14.35632,1.28968 -20.50344,-1.77907c-1.90841,-0.95272 -3.56323,-3.2947 -3.56323,-3.2947c0,0 -4.97478,1.09416 -5.05763,-0.3603c-0.06576,-1.15457 -0.22629,-3.11739 0.85164,-3.791c4.63996,-2.89958 16.03958,-3.65632 21.49881,-4.02168c7.49432,-0.50156 13.77593,2.17418 14.0304,5.97644z" data-paper-data="{&quot;origPos&quot;:null}" fill="#f8dca0"/><path d="M253.05858,259.26343c-1.05876,4.6443 -5.39785,8.20376 -13.87028,8.77078c-8.47243,0.56702 -17.86464,-3.74042 -17.86464,-3.74042c0,0 -6.11209,0.73341 -6.3415,-0.83199c-0.47483,-3.23994 -0.88916,-8.55053 0.33203,-8.80681c4.50825,-0.94607 3.69012,-0.27238 9.55627,-1.94311c3.79804,-1.08171 9.98975,-5.18444 13.93003,-5.44814c8.47243,-0.56702 16.00138,4.35276 14.25812,11.99968z" data-paper-data="{&quot;origPos&quot;:null}" fill="url(#color-2)"/></g><g data-paper-data="{&quot;origPos&quot;:null}"><path d="M270.72767,194.07829c0.39163,21.17353 -7.36176,30.41297 -28.3,30.2c-21.9365,-0.22312 -23.2,-12.78796 -23.2,-22.95c0,-11.02412 -0.93148,-20.04986 7.57136,-27.06648c6.33487,-5.22759 13.21535,-2.78352 21.42864,-2.78352c15.18783,0 22.11612,1.84521 22.5,22.6z" data-paper-data="{&quot;origPos&quot;:null}" fill="url(#color-3)" stroke="none" stroke-width="0" stroke-linecap="butt"/><path d="M270.97767,193.47829c0,0 -17.24385,2 -29.4,2.4c-11.15011,0.36689 -22.4,-3.4 -22.4,-3.4c0,0 -0.98648,-13.79564 6.98462,-19.16002c5.21526,-3.50975 11.08038,-4.65914 18.61538,-4.83998c7.535,-0.18084 15.72889,2.13912 19.52206,5.21215c8.95988,7.25886 6.67794,19.78785 6.67794,19.78785z" data-paper-data="{&quot;origPos&quot;:null}" fill="#41c3ff" stroke="none" stroke-width="0" stroke-linecap="butt"/><path d="M257.08547,172.3696c0,0 2.14029,6.84028 2.57206,10.95319c0.55457,5.28272 -0.57997,15.20846 -0.57997,15.20846" data-paper-data="{&quot;origPos&quot;:null,&quot;origRot&quot;:0}" fill="none" stroke="#5063f7" stroke-width="10" stroke-linecap="round"/><path d="M235.57767,172.87829c0,0 1.23985,7.05925 1.13735,11.19349c-0.13165,5.31011 -2.53735,15.00651 -2.53735,15.00651" data-paper-data="{&quot;origPos&quot;:null}" fill="none" stroke="#5063f7" stroke-width="10" stroke-linecap="round"/><path d="M231.96114,202.69229l0.47856,-4.16533l-2.74233,-2.63761l3.91676,0.14425l1.59649,-3.58172l1.50128,3.65183l4.5202,0.16603l-3.61311,2.58175l0.46103,4.045l-3.09091,-2.61517z" data-paper-data="{&quot;origPos&quot;:null,&quot;origRot&quot;:0}" fill="#ffe008" stroke="none" stroke-width="NaN" stroke-linecap="butt"/><path d="M257.35408,202.45039l-0.09884,-4.19156l-3.07901,-2.23539l3.89937,-0.39579l1.08873,-3.76726l1.98925,3.41067l4.50007,-0.45721l-3.2237,3.05412l1.01296,3.94315l-3.4212,-2.16523z" data-paper-data="{&quot;origPos&quot;:null,&quot;origRot&quot;:0}" fill="#ffe008" stroke="none" stroke-width="NaN" stroke-linecap="butt"/></g><g data-paper-data="{&quot;origPos&quot;:null,&quot;origRot&quot;:0}" stroke="none" stroke-linecap="butt"><g data-paper-data="{&quot;origPos&quot;:null}" stroke-width="0"><path d="M232.05324,208.37091l-15.94821,0.39741c0,0 -1.78934,-9.19385 -2.14344,-18.92143c-0.35411,-9.72758 9.96174,-19.40306 15.27397,-19.59643c5.31222,-0.19338 0.15325,5.62279 0.50736,15.35038z" data-paper-data="{&quot;origRot&quot;:0,&quot;origPos&quot;:null}" fill="#41c3ff"/><g data-paper-data="{&quot;origPos&quot;:null}" fill="#ffffff"><path d="M241.57572,225.51537c1.58719,11.0001 -7.687,11.34701 -17.69634,13.53354c-9.17253,2.00373 -18.99255,-8.11841 -19.3443,-15.28949c-0.48487,-9.88483 11.13595,-10.29595 20.52437,-10.20718c9.38842,0.08877 15.03426,1.69196 16.51627,11.96313z" data-paper-data="{&quot;origRot&quot;:0,&quot;origPos&quot;:null}"/><path d="M238.37266,210.77031c0.15639,6.84647 -1.94712,4.42351 -15.44361,4.64709c-11.8475,0.19626 -13.73692,0.55237 -14.18246,-5.6724c-0.39827,-5.56432 7.86034,-4.08325 15.10883,-4.02426c7.24849,0.059 14.42593,1.05172 14.51724,5.04957z" data-paper-data="{&quot;origRot&quot;:0,&quot;origPos&quot;:null}"/></g></g><path d="M215.77191,234.05275l1.2846,-8.5617l-5.47114,-5.63867l8.07257,0.57698l3.55001,-7.27763l2.83773,7.64322l9.31631,0.66494l-7.64032,5.07021l0.66298,8.38037l-6.1921,-5.61723z" data-paper-data="{&quot;origPos&quot;:null,&quot;origRot&quot;:0}" fill="#ffe008" stroke-width="NaN"/></g><g data-paper-data="{&quot;origPos&quot;:null}"><path d="M287.89954,123.85389c-0.56793,3.79329 -11.88998,8.6 -20.8,8.6c-7.1797,0 -5.4,-6.75492 -5.4,-10.4c0,-3.64508 14.0703,-2.85 21.25,-2.85c7.1797,0 5.31761,2.19464 4.95,4.65z" data-paper-data="{&quot;origPos&quot;:null}" fill="url(#color-4)" stroke="none" stroke-width="0" stroke-linecap="butt"/><path d="M212.74263,165.23551c-1.88302,-1.368 -2.34219,-3.637 -0.85476,-6.37559c1.72578,-3.17745 1.08123,-8.21818 2.96425,-6.85018c0,0 7.23293,1.02169 7.79114,3.9154c0,0 3.0507,8.35652 1.80057,9.69315c0,0 -1.78179,1.32182 -6.42716,1.10231c-2.51693,-0.11893 -3.39102,-0.11707 -5.27403,-1.48508z" data-paper-data="{&quot;origRot&quot;:0,&quot;origPos&quot;:null}" fill="#e7be7a" stroke="none" stroke-width="0" stroke-linecap="butt"/><path d="M219.48287,126.13722c4.31396,1.0071 37.24301,-2.16822 43.0368,-1.8462c8.57182,0.47642 6.20204,8.21361 6.80713,16.77732c0.69572,9.84642 7.56286,14.33038 4.11388,23.57918c-1.32977,3.56593 -5.57109,6.18206 -8.56062,8.53723c-1.69594,1.33607 -4.01231,5.30061 -14.80054,5.5225c-18.91647,-3.76969 -24.18277,-8.72429 -27.36091,-12.69741c-3.28722,-3.79189 -1.91707,-5.03225 -5.0923,-9.83925c-0.97333,-1.47352 -2.12747,-2.25956 -2.322,-2.25956c-10.37042,0 -16.07143,-8.56649 -16.07143,-16.66666c0,-8.10018 3.70101,-14.66666 9.5,-14.66666c5.79899,0 9.25,3.20935 10.75,3.55952z" data-paper-data="{&quot;origPos&quot;:null}" fill="#ffdebd" stroke="none" stroke-width="0" stroke-linecap="butt"/><path d="M267.6662,131.34363c0.35235,4.88885 -1.81808,9.02906 -4.84779,9.24741c-3.02971,0.21836 -5.7714,-3.56782 -6.12375,-8.45666c-0.35235,-4.88885 1.81808,-9.02905 4.84779,-9.24741c3.02971,-0.21836 5.77141,3.56782 6.12376,8.45666z" data-paper-data="{&quot;origPos&quot;:null,&quot;origRot&quot;:0}" fill="#ffffff" stroke="none" stroke-width="0" stroke-linecap="butt"/><path d="M229.89287,133.9607c0,2.60849 3.85805,10.02393 1.51211,11.16446c-2.72909,1.32681 -3.54387,-2.9338 -7.19783,-2.25017c-2.71433,0.50783 -4.45714,-4.78172 -4.45714,-9.2c0,-4.41828 -0.01669,-8.69821 2.74286,-8.8c11.61857,-0.42857 7.4,4.66744 7.4,9.08571z" data-paper-data="{&quot;origPos&quot;:null}" fill="#e7be7a" stroke="none" stroke-width="0" stroke-linecap="butt"/><path d="M254.64299,136.34835c0.57094,4.86816 -1.41189,9.10142 -4.42877,9.45524c-3.01689,0.35383 -5.92541,-3.30577 -6.49635,-8.17393c-0.57094,-4.86816 1.41189,-9.10142 4.42877,-9.45524c3.01689,-0.35383 5.92541,3.30577 6.49635,8.17393z" data-paper-data="{&quot;origPos&quot;:null,&quot;origRot&quot;:0}" fill="#ffffff" stroke="none" stroke-width="0" stroke-linecap="butt"/><path d="M251.85001,132.70001c0.952,0 1.814,0.695 2.439,1.817c0.624,1.122 1.011,2.672 1.011,4.383c0,1.711 -0.387,3.261 -1.011,4.383c-0.625,1.122 -1.487,1.817 -2.439,1.817c-0.952,0 -1.814,-0.695 -2.439,-1.817c-0.624,-1.122 -1.011,-2.672 -1.011,-4.383c0,-1.711 0.387,-3.261 1.011,-4.383c0.625,-1.122 1.487,-1.817 2.439,-1.817z" data-paper-data="{&quot;origPos&quot;:null}" id="ID0.2989244391210377" fill="#000000" stroke="#ffe008" stroke-width="2" stroke-linecap="butt"/><path d="M264.84999,128.15001c0.952,0 1.814,0.695 2.439,1.817c0.624,1.122 0.775,2.904 1.011,4.383c0.083,0.539 0.233,1.323 -0.15,1.8c-0.483,0.577 -1.281,0.853 -2,1.1c-1.256,0.26 -2.748,1.037 -3.85,0.4c-0.966,-0.58 -0.89,-2.138 -0.9,-3.3c-0.013,-1.501 0.387,-3.261 1.011,-4.383c0.625,-1.122 1.487,-1.817 2.439,-1.817z" data-paper-data="{&quot;origPos&quot;:null}" id="ID0.2989244391210377" fill="#000000" stroke="#ffe008" stroke-width="2" stroke-linecap="round"/><path d="M273.79348,96.82854c2.39648,14.94461 -0.49216,15.79448 -8.52168,20.57884c-11.69967,6.97121 -27.00365,5.55994 -39.50062,10.97342c-3.28137,1.42143 -11.64483,-2.03217 -15.22084,-2.03217c-7.31398,0 -11.44089,-5.22725 -11.74313,-11.45342c-0.66666,-13.7335 6.09582,-13.78676 13.4098,-13.78676c0,0 8.04926,1.33414 10.82961,5.60456c0,0 11.19763,-18.21899 23.00151,-20.46979c15.1949,-2.89741 26.02436,-0.14688 27.74535,10.58532z" data-paper-data="{&quot;origPos&quot;:null}" fill="#41c3ff" stroke="none" stroke-width="0" stroke-linecap="butt"/><path d="M270.89954,105.35389c0,5.46762 -1.46317,9.58116 -12.2,9.9c-11.33464,0.33659 -12.2,-4.43238 -12.2,-9.9c0,-5.46762 5.46212,-9.9 12.2,-9.9c6.73787,0 12.2,4.43238 12.2,9.9z" data-paper-data="{&quot;origPos&quot;:null}" fill="#ffffff" stroke="none" stroke-width="0" stroke-linecap="butt"/><path d="M288.29954,121.75389c-0.2,0.85848 -39.34284,6.5 -50.3,7.7c-5.32532,0.58322 -16.1,0.15848 -15.9,-0.7c0.73933,-3.1735 2.8049,-8.24498 7.9,-9.9c6.15716,-2 27.29511,-7.38005 43.10212,-7.1384c6.46182,0.09879 15.93721,6.8649 15.19788,10.0384z" data-paper-data="{&quot;origPos&quot;:null}" fill="url(#color-5)" stroke="none" stroke-width="0" stroke-linecap="butt"/><path d="M254.20341,111.59417l0.18849,-3.45889l5.09724,-0.74498l-1.45114,-1.76959l-3.62565,-0.45434l-1.99342,-3.01392l1.9556,-2.81852l7.89963,-1.24007l1.73259,3.27111l-7.32518,0.57178l4.13196,1.53006l3.06427,2.53879l0.28922,2.58669l-2.24917,1.64784z" data-paper-data="{&quot;origPos&quot;:null,&quot;origRot&quot;:0}" fill="#ffe008" stroke="none" stroke-width="0" stroke-linecap="butt"/><path d="M268.23037,169.54033c-3.21733,0.20214 -7.84599,-0.72468 -15.34899,-1.96359c-9.7284,-1.60637 -11.10928,-8.44609 -11.10928,-8.44609c0,0 -3.6461,-1.33232 -5.675,-2.475c-1.58811,-0.89443 0.32605,-6.49937 1.18005,-6.66272c4.97377,-0.95139 6.45569,3.43243 10.27828,5.49605c0,0 12.7819,4.20754 18.75328,3.86744c0,0 9.6388,-4.51103 12.62642,-4.31325c1.48172,0.09809 1.49141,3.20314 1.02397,4.7714c0,0 -1.29607,4.20023 -3.42128,5.67204c-2.1252,1.47181 -5.09013,3.85158 -8.30745,4.05371z" data-paper-data="{&quot;origPos&quot;:null}" fill="#e7be7a" stroke="none" stroke-width="0" stroke-linecap="butt"/><path d="M278.43043,148.98899c-0.5,6.61802 1.12741,11.125 -13.25,10.875c-6.62642,-0.11523 -13,-4.25698 -13,-10.125c0,-5.86802 6.3926,-13.11026 13,-13.625c9.62741,-0.75 14.04992,2.28715 13.25,12.875z" data-paper-data="{&quot;origPos&quot;:null}" fill="#ffdebd" stroke="none" stroke-width="0" stroke-linecap="butt"/><g data-paper-data="{&quot;origPos&quot;:null}" fill="none" stroke="#f6b09a" stroke-width="3.5" stroke-linecap="round"><path d="M205.6069,132.93213c0,0 2.96332,-1.72996 6.75499,1.19948c5.43788,4.2013 2.24501,11.37195 2.24501,11.37195" data-paper-data="{&quot;origPos&quot;:null}"/><path d="M214.32119,139.64644h-6" data-paper-data="{&quot;origPos&quot;:null}"/><path d="M212.46404,145.64644h1.28571" data-paper-data="{&quot;origPos&quot;:null}"/></g><path d="M245.0127,125.7013c-1.37576,0.41027 -1.31062,0.60464 -1.97844,1.87549c-0.68894,1.31106 -2.14657,2.99951 -2.14657,2.99951c0,0 -1.45833,-3.62706 -1.45833,-6.31945c0,-1.8281 0.99336,-5.0144 3.81107,-5.65344c9.53112,-0.32089 6.69401,8.65093 6.69401,8.65093c0,0 -3.4773,-2.0232 -4.92174,-1.55303z" data-paper-data="{&quot;origPos&quot;:null}" fill="url(#color-6)" stroke="none" stroke-width="0" stroke-linecap="butt"/><path d="M262.27349,122.89526c-1.51641,0.08916 -4.01601,3.24146 -4.01601,3.24146c0,0 -5.91454,-7.31854 3.07681,-10.49674c2.85665,-0.43291 4.94393,2.17143 5.61082,3.87354c0.98219,2.50684 0.94752,6.41595 0.94752,6.41595c0,0 -1.97313,-1.04035 -3.09287,-2.00973c-1.0854,-0.93965 -1.09566,-1.14439 -2.52627,-1.02451z" data-paper-data="{&quot;origPos&quot;:null,&quot;index&quot;:null,&quot;origRot&quot;:0}" fill="url(#color-7)" stroke="none" stroke-width="0" stroke-linecap="butt"/></g></g></g></svg>