<svg version="1.1" xmlns="http://www.w3.org/2000/svg" xmlns:xlink="http://www.w3.org/1999/xlink" width="484.31286" height="85.46638" viewBox="0,0,484.31286,85.46638"><defs><linearGradient x1="239.95002" y1="318.00003" x2="239.95002" y2="363.00003" gradientUnits="userSpaceOnUse" id="color-1"><stop offset="0" stop-color="#7c5831"/><stop offset="1" stop-color="#95693b"/></linearGradient><linearGradient x1="239.31767" y1="285.33905" x2="240.68239" y2="366.99432" gradientUnits="userSpaceOnUse" id="color-2"><stop offset="0" stop-color="#64e298"/><stop offset="1" stop-color="#60b483"/></linearGradient></defs><g transform="translate(2.66554,-287.96076)"><g data-paper-data="{&quot;isPaintingLayer&quot;:true}" fill="none" fill-rule="nonzero" stroke="none" stroke-width="2" stroke-linecap="none" stroke-linejoin="miter" stroke-miterlimit="10" stroke-dasharray="" stroke-dashoffset="0" font-family="none" font-weight="none" font-size="none" text-anchor="none" style="mix-blend-mode: normal"><path d="M-0.04998,318.00003h480v45h-480z" id="ID0.29126935824751854" fill="url(#color-1)" stroke="#763e13" stroke-linecap="butt"/><path d="M171.65282,333.69849c-0.772,3.3964 -12.8411,-1.9514 -17.4847,1.5923c-3.1976,2.4452 -1.5291,7.9323 -1.0636,11.8714c0.3001,2.4062 3.472,4.4055 2.5922,5.855c-0.838,1.3768 -4.0699,0.3224 -5.8149,-0.4999c-2.3012,-0.874 -5.1162,-2.0427 -5.8251,-4.381c-1.9548,-6.4521 -4.9065,-14.1115 -1.9215,-20.157c2.4633,-4.9897 9.7857,-7.8949 15.2484,-6.8363c6.2135,1.2039 15.105,8.878 15.8471,12.4546z" id="ID0.759138444904238" fill="#b2b2b2" stroke="#7f7f7f" stroke-linecap="round"/><path d="M338.62058,324.35175l-3.8497,13.06616l-7.78296,21.13301l-0.38435,-22.99679l-8.43468,-17.86154l0.11698,6.99902l-3.61575,27.0642l-0.28408,-16.99763l-7.25084,-7.87993l0.28408,16.99763l-8.88325,16.1507l-0.18382,-10.99846l-7.48478,-21.87798l-0.73266,17.01462l-5.93331,10.10056l-2.30084,-15.96378l-6.3845,-16.89567l0.36764,21.99693l-2.74941,18.04846l-5.33434,-14.91294l-4.35102,-16.92966l-2.74941,18.04846l-2.81626,14.04902l-4.38445,-18.92938l-2.33427,-17.9635l-0.7995,13.01518l-3.69931,22.0649l-3.25073,-11.94735l-6.58503,-28.89399l-1.64913,23.03077l-1.68254,21.03105l-3.38442,-19.94623l-5.36776,-16.91266l0.25066,14.99791l-6.83306,17.11658l-1.36765,-20.98008l-5.30092,-12.91322l0.35093,20.99707l-5.83304,16.09972l-0.33422,-19.99721l-4.40116,-19.92924l-4.76618,19.08231l-0.73265,17.01462l-4.3176,-14.92993l-0.36764,-21.99693l-5.83305,16.09972l-5.81634,17.09958l1.73268,-18.03147l-0.33422,-19.99721l-3.83299,14.06602l-3.79957,16.06574l-0.36764,-21.99693l-1.1337,-6.98203l-2.92767,7.38329l-1.30552,3.02224l-2.54418,10.04392l-7.78296,21.13301l-0.38435,-22.99679l-8.43468,-17.86154l0.11698,6.99902l-3.61576,27.0642l-0.28408,-16.99763l-7.25083,-7.87993l0.28408,16.99763l-8.88325,16.1507l-0.18382,-10.99846l-7.48478,-21.87798l-0.73266,17.01462l-5.9333,10.10056l-2.30084,-15.96378l-6.3845,-16.89567l0.36764,21.99693l-2.74941,18.04846l-5.33434,-14.91294l-4.35102,-16.92966l-2.74942,18.04847l-2.81625,14.04902l-4.38445,-18.92938l-2.33426,-17.9635l-0.7995,13.01518l-3.69931,22.0649l-3.25073,-11.94735l-6.58503,-28.89399l-1.64912,23.03077l-1.68255,21.03105l-3.38442,-19.94623l-5.36776,-16.91266l0.25066,14.99791l-6.83306,17.11658l-1.36765,-20.98008l-5.30092,-12.91322l0.35093,20.99707l-5.83304,16.09972l-0.33422,-19.99721l-4.40116,-19.92924l-4.76618,19.08231l-0.73265,17.01462l-4.3176,-14.92993l-0.36764,-21.99693l-5.83305,16.09972l-5.81634,17.09958l1.73267,-18.03147l-0.33422,-19.99721l-3.83299,14.06602l-3.79957,16.06574l-0.36764,-21.99693l-4.40116,-19.92924l-0.25066,-14.99791l482.04967,-1.05556l-0.00557,-0.33329l0.25066,14.99791l-3.09955,20.0546l0.36764,21.99693l-3.70114,-15.94038l-3.66771,-13.94066l0.33422,19.99721l2.01767,17.96879l-5.43472,-16.91154l-5.41802,-15.91168l0.36764,21.99693l-3.1831,15.05529l-1.14252,-16.98328l-4.60971,-18.92561l-3.09955,20.0546l0.33422,19.99721l-5.41802,-15.91168l-0.35093,-20.99707l-4.07497,13.06992l-0.50751,21.01141l-6.29317,-16.8972l-0.25066,-14.99791l-4.00813,17.06936l-2.24111,20.04025l-2.06782,-20.96837l-2.10123,-22.96809l-4.66604,29.08203l-2.3748,12.04137l-3.8014,-21.93954l-1.07568,-12.98384l-1.4161,18.02618l-3.11626,19.05474l-2.80928,-13.955l-2.87611,-17.95445l-3.14969,17.05502l-4.04154,15.06964l-2.87612,-17.95444l-0.36764,-21.99693l-4.86657,17.08371l-1.44951,16.02646l-5.31776,-9.91252l-1.14252,-16.98328l-5.64145,22.09736l0.18382,10.99846l-4.95149,-16.41955l-3.32593,-16.44672l-5.8754,8.09931l0.28408,16.99763l-3.88495,-26.93884l-4.02386,33.07186l-3.81028,-29.94051l-7.61585,31.13161l1.93217,-21.03523l-3.65101,-12.9408z" data-paper-data="{&quot;origPos&quot;:null,&quot;index&quot;:null,&quot;origRot&quot;:0}" fill="url(#color-2)" stroke="#20996f" stroke-linecap="round"/></g></g></svg>