<svg version="1.1" xmlns="http://www.w3.org/2000/svg" xmlns:xlink="http://www.w3.org/1999/xlink" width="30.775" height="30.775" viewBox="0,0,30.775,30.775"><defs><radialGradient cx="240.32511" cy="179.62306" r="19.19378" gradientUnits="userSpaceOnUse" id="color-1"><stop offset="0" stop-color="#a5e8ff"/><stop offset="1" stop-color="#a5e8ff" stop-opacity="0"/></radialGradient></defs><g transform="translate(-224.6125,-164.6125)"><g data-paper-data="{&quot;isPaintingLayer&quot;:true}" fill-rule="nonzero" stroke-linejoin="miter" stroke-miterlimit="10" stroke-dasharray="" stroke-dashoffset="0" style="mix-blend-mode: normal"><path d="M240,165.6125c3.96924,0 7.56587,1.612 10.17118,4.21632c2.60431,2.60532 4.21632,6.20194 4.21632,10.17118c0,3.96924 -1.612,7.56587 -4.21632,10.17118c-2.60532,2.60431 -6.20194,4.21632 -10.17118,4.21632c-3.96924,0 -7.56587,-1.612 -10.17118,-4.21632c-2.60431,-2.60532 -4.21632,-6.20194 -4.21632,-10.17118c0,-3.96924 1.612,-7.56587 4.21632,-10.17118c2.60532,-2.60431 6.20194,-4.21632 10.17118,-4.21632z" data-paper-data="{&quot;origPos&quot;:null}" fill="url(#color-1)" stroke="#4b85c6" stroke-width="2" stroke-linecap="butt"/><g><path d="M238.87516,179.84813h2.23809l-0.52734,10.08662h-1.18341z" fill="#24c060" stroke="none" stroke-width="0.97987" stroke-linecap="butt"/><g stroke="none" stroke-width="0" stroke-linecap="butt"><path d="M248.97394,171.96561c0,0 0.00393,12.15954 -8.80588,12.17852c-8.60538,0.01854 -9.14199,-12.37547 -9.14199,-12.37547l4.57282,1.4282l4.3675,-3.95582l4.12155,3.89483z" fill="#35b2ff"/><path d="M240.13074,182.89674c-6.22404,-0.05357 -7.44814,-8.19991 -7.44814,-8.19991l3.40807,1.12204l3.81596,-3.09827l4.03547,3.36392l3.77863,-1.39059c0,0 -1.34135,8.12478 -7.58999,8.20279z" fill="#85e0ff"/><path d="M240.09123,182.05393c-3.84217,-0.08495 -5.2437,-4.25654 -5.2437,-4.25654l2.20248,0.93335l2.88528,-2.21298l3.28235,2.23235l2.33816,-0.95435c0,0 -1.5442,4.15942 -5.46457,4.25817z" fill="#d0f8ff"/></g><g stroke="none" stroke-width="0" stroke-linecap="butt"><path d="M242.05035,176.44377c0.66608,0 0.88509,0.66531 0.88509,2.22799c0,1.50731 -0.2781,2.22799 -0.88509,2.22799c-0.60699,0 -0.8851,-0.77605 -0.8851,-2.22799c0,-1.56268 0.21903,-2.22799 0.8851,-2.22799z" fill="#000000"/><path d="M241.64733,177.4774c0,-0.51155 0.17448,-0.62106 0.38969,-0.62106c0.21522,0 0.40016,0.11911 0.38969,0.63056c-0.00949,0.46408 -0.07049,0.65671 -0.38969,0.65671c-0.3382,0 -0.38969,-0.23063 -0.38969,-0.6662z" fill="#ffffff"/></g><g stroke="none" stroke-width="0" stroke-linecap="butt"><path d="M237.94967,176.45537c0.66608,0 0.88509,0.66531 0.88509,2.22799c0,1.50731 -0.2781,2.22799 -0.88509,2.22799c-0.60699,0 -0.88509,-0.77605 -0.88509,-2.22799c0,-1.56268 0.21901,-2.22799 0.88509,-2.22799z" fill="#000000"/><path d="M237.61305,177.489c0,-0.51155 0.17448,-0.62107 0.3897,-0.62107c0.21522,0 0.40015,0.11911 0.38968,0.63056c-0.00949,0.46408 -0.07048,0.65671 -0.38968,0.65671c-0.3382,0 -0.3897,-0.23063 -0.3897,-0.6662z" fill="#ffffff"/></g><g data-paper-data="{&quot;index&quot;:null}"><path d="M239.9207,189.91165l4.03566,-4.58563l5.1305,0.38447l-3.77731,4.30657z" fill="#24c060" stroke="none" stroke-width="0" stroke-linecap="butt"/><path d="M240.22845,189.6697l4.42837,-2.9566l3.94307,-0.81978" fill="none" stroke="#1a8752" stroke-width="0.7" stroke-linecap="round"/></g><g><path d="M240.07932,189.97888l-4.83516,0.22406l-4.33101,-4.42522l5.1305,-0.38447z" fill="#24c060" stroke="none" stroke-width="0" stroke-linecap="butt"/><path d="M231.51878,185.96054l3.82442,0.81977l4.50747,2.9566" fill="none" stroke="#1a8752" stroke-width="0.7" stroke-linecap="round"/></g></g></g></g></svg>