<svg version="1.1" xmlns="http://www.w3.org/2000/svg" xmlns:xlink="http://www.w3.org/1999/xlink" width="504.2423" height="398.12843" viewBox="0,0,504.2423,398.12843"><defs><linearGradient x1="-4.17285" y1="2.32116" x2="-4.17285" y2="369.72967" gradientUnits="userSpaceOnUse" id="color-1"><stop offset="0" stop-color="#7fb8ff"/><stop offset="1" stop-color="#ff923e"/></linearGradient><linearGradient x1="338.23147" y1="-15.30649" x2="338.23147" y2="369.06631" gradientUnits="userSpaceOnUse" id="color-2"><stop offset="0" stop-color="#794f25"/><stop offset="1" stop-color="#ab6f34"/></linearGradient><linearGradient x1="163.71241" y1="-18.37079" x2="163.71241" y2="369.06722" gradientUnits="userSpaceOnUse" id="color-3"><stop offset="0" stop-color="#794f25"/><stop offset="1" stop-color="#ab6f34"/></linearGradient><linearGradient x1="575.41357" y1="316.66405" x2="575.41357" y2="416.68082" gradientUnits="userSpaceOnUse" id="color-4"><stop offset="0" stop-color="#000000" stop-opacity="0"/><stop offset="1" stop-color="#000000"/></linearGradient></defs><g transform="translate(11.83482,19.75764)"><g data-paper-data="{&quot;isPaintingLayer&quot;:true}" fill-rule="nonzero" stroke-linejoin="miter" stroke-miterlimit="10" stroke-dasharray="" stroke-dashoffset="0" style="mix-blend-mode: normal"><path d="M-4.17284,2.32116h489.87803v367.40852h-489.87803z" fill="#ffffff" stroke="none" stroke-width="1" stroke-linecap="butt"/><path d="M-4.17285,2.32116h489.87803v367.40852h-489.87803z" fill="url(#color-1)" stroke="none" stroke-width="1" stroke-linecap="butt"/><g stroke-width="2.22445"><path d="M285.25136,371.25198h-111.30723v-109.41171h111.30723z" fill="#a87c50" stroke="#705235" stroke-linecap="butt"/><path d="M283.91033,269.7815c-7.10895,-0.83739 -13.44542,-4.73998 -20.78634,-4.85296c-10.75119,0.11298 -20.74205,4.89613 -31.51467,4.85296c-8.38834,-0.03439 -15.42075,-6.09531 -23.80368,-5.73535c-4.40268,0.37149 -2.72638,6.75705 -7.04047,7.50003c-6.33382,1.09324 -12.20899,-4.13202 -18.43952,-3.30882c-6.51344,0.8726 -14.144,11.51469 -15.08681,8.29415c-3.24799,-7.47799 4.45503,-19.91824 6.70531,-29.6912c0.56183,-2.44327 -0.29372,-2.36999 0,-3.52937c0.1636,-0.64766 -1.08896,-1.48678 1.34104,-1.76468c9.71857,-1.11182 19.66779,-1.26093 29.50311,-1.76479c24.55197,-1.25909 49.14416,-4.03588 73.75777,-3.52937c6.15409,0.12614 7.97389,3.60969 12.06947,5.29415c3.05357,1.25552 8.24883,1.28205 9.38739,3.52937c2.82823,5.58175 3.28157,11.90291 1.34104,17.64704c-0.95883,2.83935 -5.62176,4.6518 -9.38739,6.17644c-2.31335,0.9371 -5.37631,1.19469 -9.38739,0.88239z" fill="#b49379" stroke="#876f5b" stroke-linecap="round"/></g><g stroke="none" stroke-width="1" stroke-linecap="butt"><path d="M85.12783,51.30897c14.50039,0 27.64035,4.11702 37.15521,10.76813c9.51486,6.65111 15.40462,15.83633 15.40462,25.97272c0,10.13639 -5.88976,19.32161 -15.40462,25.97272c-9.51486,6.65111 -22.65482,10.76813 -37.15521,10.76813c-14.50039,0 -27.64035,-4.11702 -37.15521,-10.76813c-9.51486,-6.65111 -15.40462,-15.83633 -15.40462,-25.97272c0,-10.13639 5.88976,-19.32161 15.40462,-25.97272c9.51486,-6.65111 22.65482,-10.76813 37.15521,-10.76813z" fill="#ecdcd6"/><path d="M150.44488,34.9797c14.50039,0 27.64035,4.11702 37.15521,10.76813c9.51486,6.65111 15.40462,15.83633 15.40462,25.97272c0,10.13639 -5.88976,19.32161 -15.40462,25.97272c-9.51486,6.65111 -22.65482,10.76813 -37.15521,10.76813c-14.50039,0 -27.64035,-4.11702 -37.15521,-10.76813c-9.51486,-6.65111 -15.40462,-15.83633 -15.40462,-25.97272c0,-10.13639 5.88976,-19.32161 15.40462,-25.97272c9.51486,-6.65111 22.65482,-10.76813 37.15521,-10.76813z" fill="#ecdcd6"/><path d="M96.86449,67.12794c1.26756,0 2.41571,1.11549 3.24646,2.91682c0.83177,1.80132 1.34614,4.28847 1.34614,7.03383c0,2.74536 -0.51437,5.23251 -1.34614,7.03383c-0.83075,1.80132 -1.9789,2.91682 -3.24646,2.91682c-1.26756,0 -2.41571,-1.11549 -3.24646,-2.91682c-0.83177,-1.80132 -1.34614,-4.28847 -1.34614,-7.03383c0,-2.74536 0.51437,-5.23251 1.34614,-7.03383c0.83075,-1.80132 1.9789,-2.91682 3.24646,-2.91682z" fill="#6b3d2c"/><path d="M118.29665,66.61765c1.26756,0 2.41571,1.11549 3.24646,2.91682c0.83177,1.80132 1.34614,4.28847 1.34614,7.03383c0,2.74536 -0.51437,5.23251 -1.34614,7.03383c-0.83075,1.80132 -1.9789,2.91682 -3.24646,2.91682c-1.26756,0 -2.41571,-1.11549 -3.24646,-2.91682c-0.83177,-1.80132 -1.34614,-4.28847 -1.34614,-7.03383c0,-2.74536 0.51437,-5.23251 1.34614,-7.03383c0.83075,-1.80132 1.9789,-2.91682 3.24646,-2.91682z" fill="#6b3d2c"/></g><path d="M-4.17285,193.16948h117.36661v176.56021h-117.36661z" fill="#a87c50" stroke="#705235" stroke-width="2" stroke-linecap="butt"/><path d="M-9.27575,173.77847c0,-1.61966 3.45874,0.54805 5.1029,0c1.82378,-0.60827 2.36264,-3.22299 4.08232,-4.08232c3.174,-1.587 6.83992,-1.94012 10.20579,-3.06174c0.84198,-0.28066 0.94302,-0.87464 2.04116,-1.02058c4.39257,-0.58581 8.8372,-0.92975 13.26753,-1.02058c12.23266,-0.25004 24.50921,-0.29087 36.74085,0c3.05766,0.07246 4.06599,0.81442 6.12348,1.02058c8.14422,0.81442 16.36295,1.10325 24.4939,2.04116c2.03299,0.23473 1.29614,0.87157 2.04116,1.02058c2.68719,0.53785 5.4897,0.4266 8.16463,1.02058c3.46385,0.76952 7.25326,1.09406 10.20579,3.06174c3.40465,2.26977 5.6785,5.93467 8.16463,9.18521c1.94727,2.54635 3.66898,5.29681 5.1029,8.16463c0.35822,0.71645 0,1.36145 0,2.04116c0,1.69926 0.50008,3.47915 0,5.1029c-0.89403,2.90559 -2.0034,5.94692 -4.08232,8.16463c-3.16175,3.37199 -7.01138,6.26738 -11.22637,8.16463c-2.80659,1.26246 -6.13572,1.43595 -9.18521,1.02058c-4.58036,-0.62459 -9.00763,-2.28814 -13.26753,-4.08232c-2.25854,-0.95118 -3.70368,-3.69552 -6.12348,-4.08232c-6.37658,-1.02058 -13.05933,-1.26654 -19.39101,0c-4.17519,0.83483 -7.1216,4.99063 -11.22637,6.12348c-5.93365,1.63701 -12.23777,2.56676 -18.37043,2.04116c-5.99999,-0.51437 -11.44478,-3.92209 -17.34985,-5.1029c-2.66575,-0.53274 -5.50398,-0.5603 -8.16463,0c-3.89249,0.81953 -7.77375,5.52133 -11.22637,4.08232c-2.67086,-1.11243 -0.93485,-6.10919 -1.02058,-9.18521c-0.25514,-9.17297 1.46147,-18.49698 0,-27.55564c-0.36537,-2.26467 -5.1029,-3.48324 -5.1029,-4.08232z" fill="#b49379" stroke="#876f5b" stroke-width="2" stroke-linecap="round"/><g stroke-width="2"><path d="M400.9971,243.17786h84.70808v126.55182h-84.70808z" fill="#a87c50" stroke="#705235" stroke-linecap="butt"/><path d="M403.03826,252.36307c-3.05255,0.36129 -5.38356,0.06328 -7.14405,-1.02058c-2.86579,-1.76356 -6.41434,-3.85983 -7.14405,-7.14405c-1.47678,-6.64397 -1.13182,-13.9554 1.02058,-20.41158c0.86647,-2.59942 4.8202,-2.63003 7.14405,-4.08232c3.11685,-1.94829 4.50177,-5.97753 9.18521,-6.12348c18.73171,-0.58581 37.44709,2.62595 56.13186,4.08232c7.48493,0.58275 15.05661,0.75523 22.45274,2.04116c1.84929,0.32148 0.89607,1.29205 1.02058,2.04116c0.22351,1.34104 -0.42762,1.25633 0,4.08232c1.71253,11.30394 7.57474,25.69308 5.1029,34.34249c-0.71747,3.72511 -6.52456,-8.58409 -11.48152,-9.59344c-4.74161,-0.9522 -9.21277,5.09167 -14.03296,3.82717c-3.2832,-0.85933 -2.00748,-8.24526 -5.35804,-8.67492c-6.37964,-0.4164 -11.73156,6.59396 -18.11528,6.63376c-8.19831,0.05001 -15.80163,-5.48255 -23.98361,-5.61319c-5.58665,0.13063 -10.40889,4.64466 -15.81898,5.61319z" fill="#b49379" stroke="#876f5b" stroke-linecap="round"/></g><g stroke="none" stroke-width="1" stroke-linecap="butt"><path d="M378.44842,110.04432c9.51486,6.65111 15.40462,15.83633 15.40462,25.97272c0,10.13639 -5.88976,19.32161 -15.40462,25.97272c-9.51486,6.65111 -22.65482,10.76813 -37.15521,10.76813c-14.50039,0 -27.64035,-4.11702 -37.15521,-10.76813c-9.51486,-6.65111 -15.40462,-15.83633 -15.40462,-25.97272c0,-10.13639 5.88976,-19.32161 15.40462,-25.97272c9.51486,-6.65111 22.65482,-10.76813 37.15521,-10.76813c14.50039,0 27.64035,4.11702 37.15521,10.76813z" data-paper-data="{&quot;origPos&quot;:null}" fill="#ecdcd6"/><path d="M313.13135,93.71505c9.51486,6.65111 15.40462,15.83633 15.40462,25.97272c0,10.13639 -5.88976,19.32161 -15.40462,25.97272c-9.51486,6.65111 -22.65482,10.76813 -37.15521,10.76813c-14.50039,0 -27.64035,-4.11702 -37.15521,-10.76813c-9.51486,-6.65111 -15.40462,-15.83633 -15.40462,-25.97272c0,-10.13639 5.88976,-19.32161 15.40462,-25.97272c9.51486,-6.65111 22.65482,-10.76813 37.15521,-10.76813c14.50039,0 27.64035,4.11702 37.15521,10.76813z" data-paper-data="{&quot;origPos&quot;:null}" fill="#ecdcd6"/><path d="M299.12389,125.15603c0.83177,1.80132 1.34614,4.28847 1.34614,7.03383c0,2.74536 -0.51437,5.23251 -1.34614,7.03383c-0.83075,1.80132 -1.9789,2.91682 -3.24646,2.91682c-1.26756,0 -2.41571,-1.11549 -3.24646,-2.91682c-0.83177,-1.80132 -1.34614,-4.28847 -1.34614,-7.03383c0,-2.74536 0.51437,-5.23251 1.34614,-7.03383c0.83075,-1.80132 1.9789,-2.91682 3.24646,-2.91682c1.26756,0 2.41571,1.11549 3.24646,2.91682z" data-paper-data="{&quot;origPos&quot;:null}" fill="#6b3d2c"/><path d="M277.69173,124.64574c0.83177,1.80132 1.34614,4.28847 1.34614,7.03383c0,2.74536 -0.51437,5.23251 -1.34614,7.03383c-0.83075,1.80132 -1.9789,2.91682 -3.24646,2.91682c-1.26756,0 -2.41571,-1.11549 -3.24646,-2.91682c-0.83177,-1.80132 -1.34614,-4.28847 -1.34614,-7.03383c0,-2.74536 0.51437,-5.23251 1.34614,-7.03383c0.83075,-1.80132 1.9789,-2.91682 3.24646,-2.91682c1.26756,0 2.41571,1.11549 3.24646,2.91682z" data-paper-data="{&quot;origPos&quot;:null}" fill="#6b3d2c"/></g><path d="M307.10381,-15.30649h62.25533v384.37279h-62.25533z" data-paper-data="{&quot;index&quot;:null}" fill="url(#color-2)" stroke="#663b00" stroke-width="2.77573" stroke-linecap="butt"/><path d="M133.60532,-18.37079h60.21417v387.438h-60.21417z" fill="url(#color-3)" stroke="#663b00" stroke-width="2.77371" stroke-linecap="butt"/><path d="M491.83482,376.84309l-503.66965,1.52769c0,-20.56891 0,-41.13781 0,-61.70673h500.98263c0.19759,6.82406 2.68701,60.17904 2.68701,60.17904z" data-paper-data="{&quot;index&quot;:null}" fill="url(#color-4)" stroke="none" stroke-width="1.22826" stroke-linecap="butt"/></g></g></svg>