<svg version="1.1" xmlns="http://www.w3.org/2000/svg" xmlns:xlink="http://www.w3.org/1999/xlink" width="76.15305" height="78.48" viewBox="0,0,76.15305,78.48"><g transform="translate(-201.928,-140.725)"><g data-paper-data="{&quot;isPaintingLayer&quot;:true}" fill="#ffffff" fill-rule="evenodd" stroke="#000000" stroke-width="0.25" stroke-linecap="round" stroke-linejoin="miter" stroke-miterlimit="10" stroke-dasharray="" stroke-dashoffset="0" style="mix-blend-mode: normal"><path d="M238.306,218.046c-1.60657,0.3937 -3.22698,0.72859 -4.858,1.004c-0.3,0.1 -0.7,0.1 -1,0.1c-0.30169,0.00001 -0.60293,-0.0234 -0.901,-0.07c-3.293,-0.514 -5.804,-3.782 -6.157,-7.05c-0.02797,-0.25906 -0.04199,-0.51944 -0.042,-0.78c-0.01123,-0.92135 0.20008,-1.8318 0.616,-2.654c0.7,-1.346 2.021,-2.408 4.084,-2.846c1.84324,-0.38329 3.67266,-0.83022 5.485,-1.34c2.948,-0.833 5.896,-1.861 8.716,-3.128c8.69992,-3.26183 15.48554,-10.24296 18.499,-19.032c0.00528,-0.02701 0.01062,-0.05401 0.016,-0.081c0.094,-0.463 0.184,-0.841 0.184,-1.219c0.02268,-1.17703 -0.63493,-2.26175 -1.689,-2.786c-0.50341,-0.26278 -1.04842,-0.43667 -1.611,-0.514c-0.40101,-0.06406 -0.80307,-0.1214 -1.206,-0.172c-2.008,-0.255 -4.588,-0.442 -7.557,-0.543c-1.74506,-0.05779 -3.49098,-0.08613 -5.237,-0.085c-1.13005,0.00013 -2.26009,0.00913 -3.39,0.027c-11.423,0.18 -25.074,1.229 -33.61,2.773c-0.178,0.045 -0.337,0.069 -0.484,0.083c-0.17163,0.0139 -0.34383,0.01957 -0.516,0.017c-3.306,0 -5.477,-3.308 -5.595,-6.617c-0.00335,-0.0943 -0.00501,-0.18864 -0.005,-0.283c-0.06972,-2.05445 0.85644,-4.01624 2.487,-5.268c0.72186,-0.51157 1.54447,-0.86339 2.413,-1.032c9,-2 23.1,-2.6 35.1,-2.6c2.50654,-0.00013 5.01301,0.02587 7.519,0.078c3.539,0.074 6.655,0.194 9.109,0.328c0.9914,0.05294 1.98213,0.11761 2.972,0.194c1.32973,0.09982 2.65303,0.27207 3.964,0.516c4.91,0.93 8.22,2.814 10.165,5.503c1.50581,2.19698 2.26679,4.81923 2.171,7.481c-0.00032,0.44236 -0.01499,0.88459 -0.044,1.326c-0.088,1.35 -0.307,2.772 -0.658,4.259c-0.3679,1.53364 -0.83488,3.04181 -1.398,4.515c-6.163,16.313 -21.852,26.055 -37.542,29.896zM264.715,141.522c3.143,0.512 4.633,3.326 4.633,6.228c-0.00013,0.09435 -0.0018,0.1887 -0.005,0.283c-0.07,2.146 -0.931,4.291 -2.509,5.534c-0.9066,0.71527 -2.0313,1.09758 -3.186,1.083h-0.5c-5.9,-0.5 -13.5,-0.7 -21.2,-0.7c-1.02468,-0.0001 -2.04935,0.00357 -3.074,0.011c-8.208,0.061 -16.415,0.367 -22.726,0.989h-0.5c-1.35515,0.00694 -2.64938,-0.56238 -3.56,-1.566c-1.21593,-1.39203 -1.87164,-3.18597 -1.84,-5.034c-0.00523,-0.88038 0.1409,-1.75512 0.432,-2.586c0.738,-2.06 2.463,-3.728 5.468,-4.014c1.04005,-0.09515 2.08111,-0.17882 3.123,-0.251c6.18,-0.433 14.065,-0.649 21.877,-0.649c8.3,0 16.6,0.2 22.9,0.6c0.22345,0.0122 0.44609,0.03623 0.667,0.072z"/></g></g></svg>