<svg version="1.1" xmlns="http://www.w3.org/2000/svg" xmlns:xlink="http://www.w3.org/1999/xlink" width="554.26482" height="313.54565" viewBox="0,0,554.26482,313.54565"><defs><linearGradient x1="283.07939" y1="-2266.23938" x2="283.07939" y2="7020.62316" gradientUnits="userSpaceOnUse" id="color-1"><stop offset="0" stop-color="#519dff"/><stop offset="1" stop-color="#519dff" stop-opacity="0"/></linearGradient><linearGradient x1="51.60001" y1="224.891" x2="51.60001" y2="368.3488" gradientUnits="userSpaceOnUse" id="color-2"><stop offset="0" stop-color="#7c5831"/><stop offset="1" stop-color="#95693b"/></linearGradient><linearGradient x1="-110.99999" y1="195.33334" x2="-110.99999" y2="277" gradientUnits="userSpaceOnUse" id="color-3"><stop offset="0" stop-color="#64e298"/><stop offset="1" stop-color="#60b483"/></linearGradient></defs><g transform="translate(26.28045,-140.81557)"><g data-paper-data="{&quot;isPaintingLayer&quot;:true}" fill-rule="nonzero" stroke-linejoin="miter" stroke-miterlimit="10" stroke-dasharray="" stroke-dashoffset="0" style="mix-blend-mode: normal"><g stroke="none" stroke-width="1.02459" stroke-linecap="butt"><path d="M107.70846,204.08133l372.1608,-63.26576l5.53056,32.53321l-372.16091,63.26585z" fill="#95693b"/><path d="M130.7868,202.18679c3.99239,-0.67868 7.87363,0.25303 10.91887,2.30567c3.04444,2.05389 5.25307,5.22862 5.90032,9.03601c0.64726,3.80739 -0.38826,7.53361 -2.583,10.47805c-2.19598,2.94365 -5.55117,5.10553 -9.54367,5.7843c-3.99249,0.67867 -7.87363,-0.25303 -10.91897,-2.30567c-3.04444,-2.05389 -5.25297,-5.22861 -5.90023,-9.036c-0.64726,-3.80739 0.38817,-7.53361 2.5829,-10.47806c2.19598,-2.94365 5.55128,-5.10562 9.54377,-5.78429z" fill="#bc8d5b"/><path d="M183.62993,193.98819c3.99239,-0.67868 7.87363,0.25303 10.91887,2.30567c3.04444,2.05389 5.25307,5.22862 5.90032,9.03601c0.64726,3.80739 -0.38826,7.53361 -2.583,10.47805c-2.19598,2.94365 -5.55117,5.10553 -9.54367,5.7843c-3.99249,0.67867 -7.87363,-0.25303 -10.91897,-2.30567c-3.04444,-2.05389 -5.25297,-5.22861 -5.90023,-9.036c-0.64726,-3.80739 0.38817,-7.53361 2.5829,-10.47806c2.19598,-2.94365 5.55128,-5.10562 9.54377,-5.78429z" data-paper-data="{&quot;origPos&quot;:null}" fill="#bc8d5b"/><path d="M236.36011,185.27993c3.99239,-0.67868 7.87363,0.25303 10.91887,2.30567c3.04444,2.05389 5.25307,5.22862 5.90032,9.03601c0.64726,3.80739 -0.38826,7.53361 -2.583,10.47805c-2.19598,2.94365 -5.55117,5.10553 -9.54367,5.7843c-3.99249,0.67867 -7.87363,-0.25303 -10.91897,-2.30567c-3.04444,-2.05389 -5.25297,-5.22861 -5.90023,-9.036c-0.64726,-3.80739 0.38817,-7.53361 2.5829,-10.47806c2.19598,-2.94365 5.55128,-5.10562 9.54377,-5.78429z" fill="#bc8d5b"/><path d="M289.1086,176.32235c3.99239,-0.67868 7.87363,0.25303 10.91887,2.30567c3.04444,2.05389 5.25307,5.22862 5.90032,9.03601c0.64726,3.80739 -0.38826,7.53361 -2.583,10.47805c-2.19598,2.94365 -5.55117,5.10553 -9.54367,5.7843c-3.99249,0.67867 -7.87363,-0.25303 -10.91897,-2.30567c-3.04444,-2.05389 -5.25297,-5.22861 -5.90023,-9.036c-0.64726,-3.80739 0.38817,-7.53361 2.5829,-10.47806c2.19598,-2.94365 5.55128,-5.10562 9.54377,-5.78429z" fill="#bc8d5b"/><path d="M343.88837,167.01271c3.99239,-0.67868 7.87363,0.25303 10.91887,2.30567c3.04444,2.05389 5.25307,5.22862 5.90032,9.03601c0.64726,3.80739 -0.38826,7.53361 -2.583,10.47805c-2.19598,2.94365 -5.55117,5.10553 -9.54367,5.7843c-3.99249,0.67867 -7.87363,-0.25303 -10.91897,-2.30567c-3.04444,-2.05389 -5.25297,-5.22861 -5.90023,-9.036c-0.64726,-3.80739 0.38817,-7.53361 2.5829,-10.47806c2.19598,-2.94365 5.55128,-5.10562 9.54377,-5.78429z" fill="#bc8d5b"/><path d="M400.75295,157.30483c3.99239,-0.67868 7.87363,0.25303 10.91887,2.30567c3.04444,2.05389 5.25307,5.22862 5.90032,9.03601c0.64726,3.80739 -0.38826,7.53361 -2.583,10.47805c-2.19598,2.94365 -5.55117,5.10553 -9.54367,5.7843c-3.99249,0.67867 -7.87363,-0.25303 -10.91897,-2.30567c-3.04444,-2.05389 -5.25297,-5.22861 -5.90023,-9.036c-0.64726,-3.80739 0.38817,-7.53361 2.5829,-10.47806c2.19598,-2.94365 5.55128,-5.10562 9.54377,-5.78429z" fill="#bc8d5b"/><path d="M458.44979,146.50501c3.99239,-0.67868 7.87363,0.25303 10.91887,2.30567c3.04444,2.05389 5.25307,5.22862 5.90032,9.03601c0.64726,3.80739 -0.38826,7.53361 -2.583,10.47805c-2.19598,2.94365 -5.55117,5.10553 -9.54367,5.7843c-3.99249,0.67867 -7.87363,-0.25303 -10.91897,-2.30567c-3.04444,-2.05389 -5.25297,-5.22861 -5.90023,-9.036c-0.64726,-3.80739 0.38817,-7.53361 2.5829,-10.47806c2.19598,-2.94365 5.55128,-5.10562 9.54377,-5.78429z" fill="#bc8d5b"/></g><path d="M526.1961,453.22293c-5.01794,-0.6549 -524.52349,-0.51576 -524.52349,-0.51576c0,0 6.17322,-143.98413 64.65591,-144.10481c31.37088,-0.06473 36.67135,-26.81496 115.93554,-25.09745c88.05536,4.82815 75.76382,24.5838 133.02163,21.81112c58.14234,0.32347 83.37708,-9.70848 108.60581,-17.67943c2.28748,-0.23339 103.08814,-0.0195 103.08814,-0.0195z" data-paper-data="{&quot;origPos&quot;:null,&quot;index&quot;:null}" fill="url(#color-1)" stroke="#3e7ac6" stroke-width="2" stroke-linecap="butt"/><g><path d="M-13.89999,224.891h131v143.4578h-131z" data-paper-data="{&quot;origPos&quot;:null}" fill="url(#color-2)" stroke="#663b00" stroke-width="2.87637" stroke-linecap="butt"/><g data-paper-data="{&quot;origPos&quot;:null}" fill="#b2b2b2" stroke="#7f7f7f" stroke-width="2" stroke-linecap="round"><path d="M75.86011,260.3985c0.7022,-0.0378 -1.5648,1.7229 -1.6533,3.3002c-0.0806,1.435 0.4991,2.8395 0.8752,4.226c0.1863,0.6868 1.2771,1.4419 0.8087,1.977c-0.9368,1.0701 -2.5313,1.6184 -3.954,1.6174c-1.5307,-0.0008 -3.2816,-0.4803 -4.2998,-1.6237c-1.4187,-1.5938 -2.0988,-3.8227 -2.4262,-5.931c-0.2101,-1.3564 0.0156,-2.9627 0.8815,-4.0278c0.8486,-1.0435 2.3638,-1.4994 3.7041,-1.61c1.9371,-0.1593 4.5607,-0.652 5.777,0.8298z"/><path d="M74.56801,249.9034c3.7017,-2.9456 8.9346,-0.484 12.7961,1.3728c4.0636,1.9559 7.6291,5.8493 9.7985,9.965c1.45,2.7554 1.3947,6.1315 0.5156,8.9887c-0.8764,2.8452 -3.0862,5.8307 -6.048,6.9316c-4.3175,1.8083 -10.2554,4.1326 -14.2216,1.1704c-4.0922,-3.0605 -3.1831,-9.8123 -3.6914,-14.8975c-0.4489,-4.4927 -2.2126,-10.3162 0.8508,-13.531z"/><path d="M69.30981,257.3796c-0.4005,1.7176 -0.3395,3.8177 -1.6017,5.0495c-1.0871,1.0616 -3.7098,2.1945 -4.4759,0.8825c-1.512,-2.5875 -1.0163,-6.0946 -0.2657,-8.9961c0.4347,-1.6765 1.8809,-3.6571 3.6377,-3.859c1.4962,-0.0152 2.5258,1.9883 3.102,3.4099c0.4424,1.0894 -0.1292,2.3668 -0.1613,3.006z"/><path d="M69.77351,273.119c0.0698,0.6362 0.7157,1.8777 0.3384,2.9913c-0.4913,1.4531 -1.4008,3.5139 -2.8953,3.587c-1.7657,-0.0979 -3.3262,-1.9896 -3.8591,-3.6376c-0.9206,-2.8521 -1.6224,-6.3239 -0.2657,-8.9961c0.6873,-1.3549 3.3723,-0.3787 4.5202,0.6168c1.3327,1.1552 1.3957,3.2552 1.8968,4.9462z"/></g><path d="M7.14561,293.9422c-0.5289,-3.4427 12.6608,-2.8992 15.6791,-7.9002c2.0766,-3.4484 -1.4898,-7.9399 -3.369,-11.433c-1.1625,-2.1279 -4.8469,-2.8231 -4.5606,-4.4945c0.2739,-1.5882 3.6673,-1.794 5.5923,-1.6697c2.4613,-0.032 5.5088,0.0217 7.0267,1.9364c4.187,5.2839 9.7446,11.3248 9.1876,18.0441c-0.4595,5.5456 -6.204,10.9362 -11.6739,11.957c-6.2215,1.1614 -17.3095,-2.7126 -19.3129,-5.767z" data-paper-data="{&quot;origPos&quot;:null}" fill="#b2b2b2" stroke="#7f7f7f" stroke-width="2" stroke-linecap="round"/><path d="M72.96301,315.844c3.1639,1.4565 -4.5602,12.1617 -2.0514,17.4368c1.7324,3.6335 7.4458,3.1337 11.3961,3.4914c2.4163,0.203 5.0274,-2.4879 6.264,-1.3277c1.1742,1.1041 -0.5247,4.0488 -1.6895,5.5864c-1.3302,2.0712 -3.0549,4.5843 -5.4891,4.7953c-6.7167,0.5807 -14.8204,1.8877 -20.1196,-2.281c-4.3736,-3.4403 -5.7047,-11.2047 -3.5412,-16.3312c2.4606,-5.8311 11.8049,-12.9469 15.4578,-12.9347z" data-paper-data="{&quot;origPos&quot;:null}" fill="#b2b2b2" stroke="#7f7f7f" stroke-width="2" stroke-linecap="round"/><path d="M-12.36286,236l-4.06751,13l-8.13502,21v-23l-0.66836,-1.47885c0.13953,-0.65147 0.23376,-1.31869 0.23376,-2.02115c0,-10.18951 0.77866,-20.24908 0.96177,-30.42531c3.25679,-3.21672 6.79753,-6.39284 10.61937,-8.33128c1.31553,-0.66724 2.72303,-1.39214 4.14979,-2.17357c0.35007,-0.12508 0.69786,-0.26039 1.04257,-0.40959c0.55149,-0.2387 1.38486,-0.41021 1.5,-1c0.00287,-0.01471 0.00355,-0.02829 0.0022,-0.0408c0.22242,-0.13246 0.44425,-0.26629 0.66523,-0.40147c0.34015,0.0061 0.69905,0.02421 1.05907,0.04852v0.23351h3c0.63195,0 1.23651,-0.11724 1.79314,-0.33115c0.17934,-0.06094 0.36397,-0.13308 0.54976,-0.2185l117.90408,1.7123c1.18102,0.62679 2.36669,1.23474 3.47952,1.9976c1.98819,1.36292 2.63381,2.77459 4.11325,4.61325c0.7962,0.98953 2.02523,1.64234 2.62472,2.76203c0.13234,0.24719 -0.65321,-0.72941 -0.70788,-0.4544c-0.29359,1.47668 1.12106,2.797 1.77128,4.15493c0.16435,0.3287 0.32187,0.66595 0.47213,1.0097v0.75422l-3.43424,20v22l-3.43425,-16l-3.43424,-14v20l1.71712,18l-5.15136,-17l-5.15137,-16v22l-3.43424,15l-0.85856,-17l-4.29281,-19l-3.43424,20v20l-5.15137,-16v-21l-4.29281,13l-0.85856,21l-6.00993,-17v-15l-4.29281,17l-2.57568,20l-1.71713,-21l-1.71712,-23l-5.15137,29l-2.57568,12l-3.43425,-22l-0.85856,-13l-1.71712,18l-3.43425,19l-2.57568,-14l-2.57569,-18l-3.43424,17l-4.29281,15l-2.57568,-18v-22l-5.15137,17l-1.71712,16l-5.15137,-10l-0.85856,-17l-6.00993,22v11l-4.67641,-16.5l-3.05063,-16.5l-6.00993,8v17l-3.43425,-27l-4.57595,33l-3.30942,-30l-8.13502,31l2.28341,-21l-3.43425,-13z" data-paper-data="{&quot;origPos&quot;:null,&quot;index&quot;:null}" fill="url(#color-3)" stroke="#20996f" stroke-width="2" stroke-linecap="butt"/></g></g></g></svg>