<svg version="1.1" xmlns="http://www.w3.org/2000/svg" xmlns:xlink="http://www.w3.org/1999/xlink" width="520.57018" height="389.80174" viewBox="0,0,520.57018,389.80174"><defs><linearGradient x1="-7.4551" y1="339.0443" x2="-7.4551" y2="361.0443" gradientUnits="userSpaceOnUse" id="color-1"><stop offset="0" stop-color="#ea742e"/><stop offset="1" stop-color="#c37f10"/></linearGradient><linearGradient x1="93.9474" y1="202.2266" x2="93.9474" y2="226.7404" gradientUnits="userSpaceOnUse" id="color-2"><stop offset="0" stop-color="#ea742e"/><stop offset="1" stop-color="#c37f10"/></linearGradient><linearGradient x1="132.8449" y1="155.2183" x2="132.8449" y2="365.2183" gradientUnits="userSpaceOnUse" id="color-3"><stop offset="0" stop-color="#ea742e"/><stop offset="1" stop-color="#c37f10"/></linearGradient><linearGradient x1="311.4968" y1="100.1392" x2="311.4968" y2="361.1392" gradientUnits="userSpaceOnUse" id="color-4"><stop offset="0" stop-color="#ea742e"/><stop offset="1" stop-color="#c37f10"/></linearGradient><linearGradient x1="-25.4026" y1="-22.0522" x2="-25.4026" y2="252.5881" gradientUnits="userSpaceOnUse" id="color-5"><stop offset="0" stop-color="#ea742e"/><stop offset="1" stop-color="#c37f10"/></linearGradient></defs><g transform="translate(26.65192,23.30152)"><g data-paper-data="{&quot;isPaintingLayer&quot;:true}" fill="none" fill-rule="nonzero" stroke="none" stroke-width="none" stroke-linecap="none" stroke-linejoin="miter" stroke-miterlimit="10" stroke-dasharray="" stroke-dashoffset="0" font-family="none" font-weight="none" font-size="none" text-anchor="none" style="mix-blend-mode: normal"><path d="M-7.4551,339.0443h194.8v22h-194.8z" id="ID0.17253359453752637" fill="url(#color-1)" stroke="#964f17" stroke-width="1.75468" stroke-linecap="butt"/><path d="M93.9474,202.2266h50v24.5138h-50z" data-paper-data="{&quot;origPos&quot;:null}" id="ID0.17253359453752637" fill="url(#color-2)" stroke="#964f17" stroke-width="1.99372" stroke-linecap="butt"/><path d="M132.8449,155.2183h194.8v210h-194.8z" id="ID0.17253359453752637" fill="url(#color-3)" stroke="#964f17" stroke-width="2.56383" stroke-linecap="butt"/><path d="M311.4968,100.1392h181v261h-181z" id="ID0.17253359453752637" fill="url(#color-4)" stroke="#964f17" stroke-width="2.84292" stroke-linecap="butt"/><path d="M-25.4026,-22.0522h50v274.6403h-50z" id="ID0.17253359453752637" fill="url(#color-5)" stroke="#964f17" stroke-width="2.49864" stroke-linecap="butt"/><g data-paper-data="{&quot;origPos&quot;:null}" stroke="#674116"><path d="M175,282c7.311,0 13.936,2.969 18.733,7.767c4.798,4.797 7.767,11.422 7.767,18.733c0,7.311 -2.969,13.936 -7.767,18.733c-4.797,4.798 -11.422,7.767 -18.733,7.767c-7.311,0 -13.936,-2.969 -18.733,-7.767c-4.798,-4.797 -7.767,-11.422 -7.767,-18.733c0,-7.311 2.969,-13.936 7.767,-18.733c4.797,-4.798 11.422,-7.767 18.733,-7.767z" data-paper-data="{&quot;origPos&quot;:null}" id="ID0.7821869030594826" fill="none" stroke-width="2" stroke-linecap="butt"/><path d="M162,292.5h11l-1.5,23l19,-2l-1.5,11l-27,-1z" data-paper-data="{&quot;origPos&quot;:null}" id="ID0.7211763034574687" fill="#664215" stroke-width="1" stroke-linecap="round"/><path d="M160,244h-11.5l26,-33l26.5,33h-11.5v26.5h-29.5z" data-paper-data="{&quot;origPos&quot;:null}" id="ID0.818852954544127" fill="none" stroke-width="2" stroke-linecap="round"/></g></g></g></svg>