<svg version="1.1" xmlns="http://www.w3.org/2000/svg" xmlns:xlink="http://www.w3.org/1999/xlink" width="59.70528" height="59.70527" viewBox="0,0,59.70528,59.70527"><defs><radialGradient cx="245.94632" cy="193.13685" r="27.38835" gradientUnits="userSpaceOnUse" id="color-1"><stop offset="0" stop-color="#fff300"/><stop offset="1" stop-color="#f2b900"/></radialGradient><radialGradient cx="254.02052" cy="201.66807" r="25.38835" gradientUnits="userSpaceOnUse" id="color-2"><stop offset="0" stop-color="#be9000"/><stop offset="1" stop-color="#d19600"/></radialGradient><radialGradient cx="224.875" cy="156.625" r="27.38835" gradientUnits="userSpaceOnUse" id="color-3"><stop offset="0" stop-color="#fff300"/><stop offset="1" stop-color="#f2b900"/></radialGradient><radialGradient cx="243.10969" cy="172.74407" r="12.02512" gradientUnits="userSpaceOnUse" id="color-4"><stop offset="0" stop-color="#ffff00"/><stop offset="1" stop-color="#ffd400"/></radialGradient><radialGradient cx="246.29872" cy="177.62927" r="12.02512" gradientUnits="userSpaceOnUse" id="color-5"><stop offset="0" stop-color="#ba8513"/><stop offset="1" stop-color="#a86000"/></radialGradient><radialGradient cx="233.5215" cy="169.76395" r="11.92169" gradientUnits="userSpaceOnUse" id="color-6"><stop offset="0" stop-color="#ffff00"/><stop offset="1" stop-color="#ffd400"/></radialGradient><radialGradient cx="228.55326" cy="176.14163" r="11.92168" gradientUnits="userSpaceOnUse" id="color-7"><stop offset="0" stop-color="#ba8513"/><stop offset="1" stop-color="#a86000"/></radialGradient><radialGradient cx="223.28571" cy="155.57143" r="29.10264" gradientUnits="userSpaceOnUse" id="color-8"><stop offset="0" stop-color="#ffff78"/><stop offset="1" stop-color="#ffd828"/></radialGradient></defs><g transform="translate(-210.14736,-150.14736)"><g data-paper-data="{&quot;isPaintingLayer&quot;:true}" fill-rule="nonzero" stroke-linecap="butt" stroke-linejoin="miter" stroke-miterlimit="10" stroke-dasharray="" stroke-dashoffset="0" style="mix-blend-mode: normal"><path d="M240,152.61165c7.55648,0 14.40301,3.06952 19.36103,8.02754c4.95802,4.9578 8.02732,11.80432 8.02732,19.36081c0,7.55626 -3.06929,14.40301 -8.02732,19.36081c-4.95802,4.95802 -11.80455,8.02754 -19.36103,8.02754c-7.55626,0 -14.40278,-3.06952 -19.36081,-8.02754c-4.95802,-4.9578 -8.02754,-11.80455 -8.02754,-19.36081c0,-7.55648 3.06952,-14.40301 8.02754,-19.36081c4.95802,-4.95802 11.80455,-8.02754 19.36081,-8.02754z" fill="url(#color-1)" stroke="none" stroke-width="0"/><path d="M240,205.38835c-7.00468,0 -13.35125,-2.84537 -17.94721,-7.44134c-4.59597,-4.59576 -7.44114,-10.94233 -7.44114,-17.94701c0,-7.00448 2.84516,-13.35125 7.44114,-17.94701c4.59597,-4.59597 10.94253,-7.44134 17.94722,-7.44134c7.00448,0 13.35103,2.84537 17.94701,7.44134c4.59596,4.59577 7.44134,10.94253 7.44134,17.94701c0,7.00468 -2.84538,13.35125 -7.44134,17.94701c-4.59597,4.59597 -10.94253,7.44134 -17.94701,7.44134z" fill="none" stroke="url(#color-2)" stroke-width="3"/><path d="M240,152.61165c7.55648,0 14.40301,3.06952 19.36103,8.02754c4.95802,4.9578 8.02732,11.80432 8.02732,19.36081c0,7.55626 -3.06929,14.40301 -8.02732,19.36081c-4.95802,4.95802 -11.80455,8.02754 -19.36103,8.02754c-7.55626,0 -14.40278,-3.06952 -19.36081,-8.02754c-4.95802,-4.9578 -8.02754,-11.80455 -8.02754,-19.36081c0,-7.55648 3.06952,-14.40301 8.02754,-19.36081c4.95802,-4.95802 11.80455,-8.02754 19.36081,-8.02754z" fill="none" stroke="url(#color-3)" stroke-width="4"/><g fill="#de9800" stroke="#000000" stroke-width="0"><path d="M258.85665,171.37791c0,0.12662 1.39531,2.70619 4.16537,7.69513c-1.75569,5.70887 -2.68559,8.68888 -2.85449,8.94322c0,0 -3.19207,4.73585 -3.44653,4.4186l-6.74366,1.39531c-4.7574,-2.60001 -7.27298,-4.0592 -7.56851,-4.4186c-0.16988,-1.81845 -0.44481,-6.892 -0.82482,-15.24316c4.48137,-2.93883 7.33586,-4.73571 8.5201,-5.34946c0,0 8.64652,2.32617 8.75255,2.55895zM251.58368,175.77481l-3.67824,3.72149c0.31725,3.86872 0.46447,6.2361 0.46447,7.08249c0.08445,0 0.8887,0.54988 2.36834,1.6281c1.96582,-0.42325 2.95942,-0.71881 2.95942,-0.90929l2.26245,-7.56851c-0.61279,-1.77642 -1.12037,-2.66403 -1.54364,-2.66403z"/><path d="M221.79471,169.26764c8.69934,0.10362 13.88537,0.18617 15.53793,0.24858l0.08347,0.16509c-0.39354,4.00847 -0.59985,6.09579 -0.6612,6.28102l-0.16603,0.08348l-8.1822,-0.99233c-0.22736,1.32237 -0.39248,2.16987 -0.4961,2.56235c0.18617,0 0.30993,0.02013 0.41367,0.08254c2.60354,-0.76494 4.00849,-1.15742 4.21477,-1.15742c4.15345,2.99616 6.4672,4.69087 6.94328,5.12468c-0.78602,6.01339 -1.21983,9.00941 -1.32251,9.00941c-5.64091,2.25242 -8.49304,3.38862 -8.59574,3.38862c-6.21956,-2.41738 -9.42306,-3.71975 -9.58804,-3.88485c0.68228,-1.32237 1.67364,-3.38851 2.97588,-6.19849h0.08254c0.12375,0 2.35496,1.17755 6.69472,3.55373h0.0824l2.47994,-2.47979c-0.12389,-0.2275 -0.95113,-1.11514 -2.47994,-2.64489h-0.0824c-2.14865,1.42613 -3.28594,2.14865 -3.38864,2.14865c-3.73975,-2.85119 -5.64091,-4.33867 -5.70334,-4.46242c0.55758,-6.46828 0.90976,-10.06306 1.07487,-10.82801z"/></g><g stroke-width="1"><path d="M257.15026,170.32325c0,0.12176 1.3417,2.60221 4.00532,7.39947c-1.68823,5.48952 -2.5824,8.35503 -2.74482,8.5996c0,0 -3.06942,4.55389 -3.31411,4.24883l-6.48455,1.3417c-4.57461,-2.50011 -6.99353,-3.90324 -7.27771,-4.24883c-0.16336,-1.74858 -0.42772,-6.62719 -0.79313,-14.65748c4.30918,-2.82591 7.054,-4.55376 8.19274,-5.14392c0,0 8.31431,2.23679 8.41626,2.46063zM250.15673,174.55121l-3.53691,3.5785c0.30506,3.72007 0.44662,5.99649 0.44662,6.81036c0.08121,0 0.85455,0.52875 2.27734,1.56554c1.89029,-0.40699 2.84571,-0.69119 2.84571,-0.87435l2.17552,-7.27771c-0.58924,-1.70817 -1.07732,-2.56167 -1.48433,-2.56167z" fill="url(#color-4)" stroke="url(#color-5)"/><path d="M221.51231,168.29406c8.3651,0.09964 13.35186,0.17902 14.94093,0.23903l0.08027,0.15875c-0.37842,3.85445 -0.5768,5.86158 -0.63579,6.03969l-0.15966,0.08027l-7.86782,-0.9542c-0.21863,1.27156 -0.3774,2.0865 -0.47704,2.4639c0.17902,0 0.29802,0.01936 0.39778,0.07937c2.50351,-0.73555 3.85447,-1.11295 4.05283,-1.11295c3.99386,2.88104 6.21871,4.51064 6.6765,4.92778c-0.75582,5.78234 -1.17296,8.66325 -1.27169,8.66325c-5.42417,2.16588 -8.16672,3.25842 -8.26547,3.25842c-5.98059,-2.3245 -9.06101,-3.57683 -9.21965,-3.73559c0.65606,-1.27156 1.60933,-3.25831 2.86154,-5.96033h0.07937c0.119,0 2.26448,1.13231 6.43749,3.41719h0.07924l2.38465,-2.38452c-0.11913,-0.21876 -0.91458,-1.07229 -2.38465,-2.54327h-0.07924c-2.0661,1.37134 -3.15969,2.0661 -3.25844,2.0661c-3.59606,-2.74164 -5.42417,-4.17197 -5.4842,-4.29097c0.53615,-6.21975 0.87481,-9.67642 1.03357,-10.41198z" fill="url(#color-6)" stroke="url(#color-7)"/></g><path d="M240,209.10264c-8.02946,0 -15.30452,-3.26164 -20.57287,-8.53c-5.26835,-5.26811 -8.52977,-12.54318 -8.52977,-20.57264c0,-8.02923 3.2614,-15.30452 8.52977,-20.57264c5.26835,-5.26835 12.54341,-8.53 20.57288,-8.53c8.02923,0 15.30427,3.26164 20.57264,8.53c5.26834,5.26813 8.53,12.54341 8.53,20.57264c0,8.02946 -3.26166,15.30452 -8.53,20.57264c-5.26835,5.26835 -12.54341,8.53 -20.57264,8.53z" fill="none" stroke="url(#color-8)" stroke-width="1.5"/></g></g></svg>