<svg version="1.1" xmlns="http://www.w3.org/2000/svg" xmlns:xlink="http://www.w3.org/1999/xlink" width="143.7336" height="143.73361" viewBox="0,0,143.7336,143.73361"><defs><linearGradient x1="240" y1="110.13322" x2="240" y2="249.86682" gradientUnits="userSpaceOnUse" id="color-1"><stop offset="0" stop-color="#3c94ed"/><stop offset="1" stop-color="#337fcc"/></linearGradient><linearGradient x1="232.95007" y1="152.49462" x2="232.95007" y2="213.02536" gradientUnits="userSpaceOnUse" id="color-2"><stop offset="0" stop-color="#fff01b"/><stop offset="1" stop-color="#ffa30a"/></linearGradient><linearGradient x1="232.90697" y1="156.87589" x2="232.90697" y2="192.4811" gradientUnits="userSpaceOnUse" id="color-3"><stop offset="0" stop-color="#d69a18"/><stop offset="1" stop-color="#ce6e08"/></linearGradient><linearGradient x1="199.13719" y1="170.33943" x2="199.13719" y2="203.56641" gradientUnits="userSpaceOnUse" id="color-4"><stop offset="0" stop-color="#d69a18"/><stop offset="1" stop-color="#ce6e08"/></linearGradient><linearGradient x1="267.11539" y1="170.56333" x2="267.11539" y2="203.55242" gradientUnits="userSpaceOnUse" id="color-5"><stop offset="0" stop-color="#d69a18"/><stop offset="1" stop-color="#ce6e08"/></linearGradient><linearGradient x1="233.03835" y1="198.88909" x2="233.03835" y2="225.08184" gradientUnits="userSpaceOnUse" id="color-6"><stop offset="0" stop-color="#fff159"/><stop offset="1" stop-color="#ffd341"/></linearGradient><linearGradient x1="239.60615" y1="204.05429" x2="239.60615" y2="218.68252" gradientUnits="userSpaceOnUse" id="color-7"><stop offset="0" stop-color="#000000"/><stop offset="1" stop-color="#805506"/></linearGradient><linearGradient x1="226.14431" y1="204.09238" x2="226.14431" y2="218.7206" gradientUnits="userSpaceOnUse" id="color-8"><stop offset="0" stop-color="#000000"/><stop offset="1" stop-color="#805506"/></linearGradient><linearGradient x1="264.84909" y1="138.20477" x2="264.84909" y2="181.16499" gradientUnits="userSpaceOnUse" id="color-9"><stop offset="0" stop-color="#ffae82"/><stop offset="1" stop-color="#db8b67"/></linearGradient></defs><g transform="translate(-168.1332,-108.13321)"><g data-paper-data="{&quot;isPaintingLayer&quot;:true}" fill-rule="nonzero" stroke-linejoin="miter" stroke-miterlimit="10" stroke-dasharray="" stroke-dashoffset="0" style="mix-blend-mode: normal"><path d="M240,110.13322c19.2752,0 36.74421,7.8268 49.3899,20.47689c12.64989,12.64569 20.4769,30.11449 20.4769,49.38991c0,19.27542 -7.82701,36.74421 -20.4769,49.38991c-12.64569,12.65009 -30.1147,20.4769 -49.3899,20.4769c-19.27542,0 -36.74442,-7.8268 -49.39012,-20.4769c-12.64989,-12.64569 -20.47668,-30.11449 -20.47668,-49.38991c0,-19.27542 7.82679,-36.74421 20.47668,-49.38991c12.64569,-12.6501 30.11471,-20.47689 49.39012,-20.47689z" data-paper-data="{&quot;origPos&quot;:null}" fill="url(#color-1)" stroke="#23568d" stroke-width="4" stroke-linecap="butt"/><g stroke="none"><g><path d="M273.49896,193.95716c-0.64394,10.29586 -8.64932,18.47995 -41.92305,19.0682c-32.08692,-0.21456 -38.47683,-12.00691 -39.18041,-20.16657c-0.70358,-8.15967 3.59183,-40.53566 39.74062,-40.36348c38.20876,0.18198 42.0741,30.08962 41.36284,41.46185z" fill="url(#color-2)" stroke-width="0.93172" stroke-linecap="round"/><path d="M214.21806,174.67751c0,-9.83142 5.14717,-17.74323 18.68892,-17.80135c12.46601,-0.0535 18.68891,7.96995 18.68891,17.80136c0,9.83142 -3.86091,17.60842 -18.68891,17.80136c-12.03708,0.15661 -18.68892,-7.96994 -18.68892,-17.80136z" fill="url(#color-3)" stroke-width="0" stroke-linecap="butt"/><path d="M198.13565,170.33944c0,0 6.94699,6.31021 7.9877,14.75968c1.3068,10.6098 -8.62359,18.46729 -8.62359,18.46729c0,0 -7.01698,-3.11534 -5.15192,-16.53765c1.6311,-11.73857 5.78781,-16.68932 5.78781,-16.68932z" fill="url(#color-4)" stroke-width="0" stroke-linecap="butt"/><path d="M269.46411,203.55241c0,0 -9.70906,-6.24793 -9.07235,-17.52696c0.47292,-8.37717 7.88718,-15.46213 7.88718,-15.46213c0,0 5.35358,8.23603 5.57344,17.42856c0.33133,13.85395 -4.38826,15.56054 -4.38826,15.56054z" fill="url(#color-5)" stroke-width="0" stroke-linecap="butt"/></g><g stroke-linecap="butt"><path d="M257.36991,212.89294c-0.08989,5.63433 -1.03442,11.80816 -25.25843,12.17682c-24.22877,0.36873 -23.27096,-7.7849 -23.40212,-12.88912c-0.18195,-7.08167 4.68986,-13.28887 23.75102,-13.29154c21.85082,0.16563 25.01087,7.65129 24.90952,14.00384z" fill="url(#color-6)" stroke-width="1"/><g stroke-width="0"><path d="M239.60615,204.05429c2.18661,0 2.9056,2.18411 2.9056,7.31411c0,4.94824 -0.91294,7.31411 -2.9056,7.31411c-1.99264,0 -2.9056,-2.54763 -2.9056,-7.31411c0,-5.13 0.71899,-7.31411 2.9056,-7.31411z" fill="url(#color-7)"/><path d="M238.33344,207.44754c0,-1.67933 0.57277,-2.03885 1.27931,-2.03885c0.70654,0 1.31366,0.39102 1.2793,2.07003c-0.03118,1.52346 -0.23141,2.15588 -1.2793,2.15588c-1.11026,0 -1.27931,-0.75711 -1.27931,-2.18704z" fill="#ffffff"/></g><g stroke-width="0"><path d="M226.14432,204.09238c2.1866,0 2.90559,2.1841 2.90559,7.31411c0,4.94824 -0.91293,7.31411 -2.90559,7.31411c-1.99266,0 -2.90561,-2.54763 -2.90561,-7.31411c0,-5.13 0.719,-7.31411 2.90561,-7.31411z" fill="url(#color-8)"/><path d="M224.99423,207.48562c0,-1.67933 0.57277,-2.03886 1.2793,-2.03886c0.70654,0 1.31364,0.39102 1.27928,2.07003c-0.03118,1.52346 -0.23139,2.15588 -1.27928,2.15588c-1.11026,0 -1.2793,-0.75712 -1.2793,-2.18704z" fill="#ffffff"/></g></g></g><path d="M279.62976,138.20477l3.54591,10.21066c-5.83918,9.42397 -8.74132,14.44132 -8.74132,15.05019l-0.78879,17.55619l-0.28605,0.14314c-10.42735,-0.21459 -16.16017,-0.28628 -17.16355,-0.28628l-0.64401,-0.32282c6.87933,-18.66779 10.3538,-28.30613 10.42549,-28.87869c-0.50087,-0.28605 -0.89538,-0.46597 -1.2182,-0.46597l-17.91369,1.25312c0,0.10823 -0.07169,0.17969 -0.17991,0.17969c-0.10823,-0.21459 -0.14314,-0.39428 -0.14314,-0.46597c1.54102,-9.20728 2.43641,-13.83013 2.75923,-13.83013h0.14314c6.16201,0 16.22976,-0.03491 30.20489,-0.14314z" data-paper-data="{&quot;origPos&quot;:null}" fill="url(#color-9)" stroke="#ab7356" stroke-width="2.5" stroke-linecap="butt"/></g></g></svg>