<svg version="1.1" xmlns="http://www.w3.org/2000/svg" xmlns:xlink="http://www.w3.org/1999/xlink" width="507.73472" height="158.11093" viewBox="0,0,507.73472,158.11093"><defs><linearGradient x1="249.5" y1="227.16302" x2="249.5" y2="360.53852" gradientUnits="userSpaceOnUse" id="color-1"><stop offset="0" stop-color="#7c5831"/><stop offset="1" stop-color="#95693b"/></linearGradient></defs><g transform="translate(7.09665,-203.81057)"><g data-paper-data="{&quot;isPaintingLayer&quot;:true}" fill-rule="nonzero" stroke-linejoin="miter" stroke-miterlimit="10" stroke-dasharray="" stroke-dashoffset="0" style="mix-blend-mode: normal"><path d="M0,284.90022l234,-57.7372l265,36.0542l-19,97.3213h-480z" fill="url(#color-1)" stroke="#763e13" stroke-width="2.76596" stroke-linecap="butt"/><path d="M-5.1488,270.35442l241.831,-64.596l5.4071,20.2427l-241.831,64.596z" fill="#8d5827" stroke="#704d00" stroke-width="3.18226" stroke-linecap="butt"/><path d="M236.98854,205.84071l250.95232,36.05618l-2.72681,22.71329l-250.95232,-38.78301z" fill="#8d5827" stroke="#704d00" stroke-width="3.33648" stroke-linecap="butt"/><g fill="#b2b2b2" stroke="#7f7f7f" stroke-width="2" stroke-linecap="round"><path d="M52.7296,308.99802c0.6301,-0.3122 -0.7565,2.2011 -0.2144,3.6849c0.493,1.3501 1.5806,2.4112 2.474,3.5362c0.4426,0.5572 1.743,0.8198 1.5242,1.4964c-0.4377,1.3533 -1.6857,2.4871 -2.9929,3.0484c-1.4064,0.6042 -3.2043,0.8556 -4.5915,0.2077c-1.9331,-0.9034 -3.4387,-2.6821 -4.5726,-4.4894c-0.729,-1.1629 -1.1566,-2.7277 -0.782,-4.0482c0.3671,-1.2939 1.5787,-2.3115 2.7662,-2.9429c1.7165,-0.9118 3.9319,-2.4012 5.6347,-1.5208z"/><path d="M47.3829,299.87612c2.2362,-4.1686 8.016,-3.9755 12.297,-3.7959c4.5057,0.1908 9.3196,2.3582 12.939,5.2815c2.4209,1.9581 3.7043,5.0812 4.0259,8.0532c0.3194,2.9599 -0.5307,6.5757 -2.8163,8.7575c-3.2514,3.3673 -7.7874,7.8491 -12.6014,6.6955c-4.9685,-1.1942 -6.8018,-7.7556 -9.2784,-12.226c-2.1878,-3.9496 -6.1093,-8.602 -4.5658,-12.7658z"/><path d="M45.4826,308.80222c0.3109,1.7361 1.1969,3.6411 0.5243,5.2714c-0.5791,1.4048 -2.5406,3.482 -3.7628,2.5796c-2.4115,-1.7793 -3.3422,-5.1969 -3.7993,-8.1588c-0.2633,-1.7118 0.2825,-4.1027 1.8164,-4.9825c1.3685,-0.6052 3.106,0.8283 4.1971,1.9064c0.8369,0.8259 0.8168,2.2252 1.0398,2.8251z"/><path d="M52.1998,323.08752c0.3156,0.5568 1.3996,1.442 1.4931,2.614c0.1229,1.5291 0.1018,3.7815 -1.2421,4.4393c-1.6606,0.6079 -3.8417,-0.5132 -4.9825,-1.8164c-1.9728,-2.2561 -3.9895,-5.1679 -3.7993,-8.1588c0.0959,-1.5162 2.9481,-1.6806 4.396,-1.2197c1.6807,0.5344 2.5685,2.4386 3.6971,3.7939z"/></g><g fill="#b2b2b2" stroke="#7f7f7f" stroke-width="2" stroke-linecap="round"><path d="M342.3499,280.95732c-0.5561,-0.4305 2.3104,-0.281 3.4084,-1.4169c0.9991,-1.0332 1.4785,-2.475 2.1002,-3.7701c0.3079,-0.6416 -0.024,-1.9261 0.6803,-2.0248c1.4085,-0.1975 2.9736,0.4299 4.0495,1.3606c1.1579,1.0012 2.1695,2.5086 2.1926,4.0395c0.0318,2.1335 -0.9105,4.2648 -2.0409,6.0743c-0.7276,1.1638 -1.9485,2.232 -3.3,2.4719c-1.3242,0.235 -2.7689,-0.4104 -3.8556,-1.2028c-1.57,-1.1458 -3.8776,-2.4879 -3.8294,-4.4043z"/><path d="M336.48,289.75162c-4.7267,-0.1906 -7.0778,-5.4741 -8.7863,-9.4035c-1.7967,-4.1363 -1.9499,-9.4135 -0.9013,-13.9463c0.7039,-3.033 2.9526,-5.5518 5.4855,-7.1394c2.5231,-1.5802 6.147,-2.3951 9.108,-1.2922c4.4494,1.4538 10.4624,3.5764 11.5276,8.4107c1.0962,4.991 -4.0052,9.5064 -6.9446,13.687c-2.5971,3.6934 -5.0691,9.2533 -9.4889,9.6837z"/><path d="M345.3257,287.60982c1.4258,-1.038 2.7524,-2.6672 4.5128,-2.7743c1.5166,-0.0928 4.242,0.7643 3.9641,2.2579c-0.5471,2.9465 -3.2147,5.2766 -5.6794,6.9817c-1.4249,0.9846 -3.814,1.5381 -5.2755,0.5425c-1.1422,-0.9665 -0.6118,-3.1557 -0.1185,-4.6082c0.3773,-1.1136 1.6449,-1.7067 2.087,-2.1695z"/><path d="M355.1935,275.31322c0.3631,-0.5271 0.6858,-1.8888 1.6992,-2.4849c1.3217,-0.7786 3.3571,-1.7435 4.5359,-0.822c1.2722,1.2283 1.2166,3.68 0.5426,5.2755c-1.1676,2.7601 -2.9059,5.8462 -5.6794,6.9817c-1.4058,0.576 -2.7997,-1.9178 -3.0176,-3.4216c-0.2534,-1.7453 1.0716,-3.3758 1.7977,-4.983z"/></g><path d="M126.2591,271.26242c3.481,0.1193 0.4992,12.9789 4.8531,16.873c3.0031,2.6805 8.0784,0.0096 11.8596,-1.1887c2.3067,-0.7474 3.6736,-4.2388 5.2628,-3.6473c1.5098,0.564 1.0823,3.9366 0.6029,5.8051c-0.4255,2.4245 -1.0438,5.4091 -3.2069,6.5453c-5.9692,3.1336 -12.9366,7.4735 -19.4357,5.6791c-5.364,-1.4807 -9.5948,-8.1258 -9.5828,-13.6901c0.0135,-6.329 5.8779,-16.5054 9.2511,-17.9072z" fill="#b2b2b2" stroke="#7f7f7f" stroke-width="2" stroke-linecap="round"/><path d="M284.5528,331.33062c-0.772,3.3964 -12.8411,-1.9514 -17.4847,1.5923c-3.1976,2.4452 -1.5291,7.9323 -1.0636,11.8714c0.3001,2.4062 3.472,4.4055 2.5922,5.855c-0.838,1.3768 -4.0699,0.3224 -5.8149,-0.4999c-2.3012,-0.874 -5.1162,-2.0427 -5.8251,-4.381c-1.9548,-6.4521 -4.9065,-14.1115 -1.9215,-20.157c2.4633,-4.9897 9.7857,-7.8949 15.2484,-6.8363c6.2135,1.2039 15.105,8.878 15.8471,12.4546z" fill="#b2b2b2" stroke="#7f7f7f" stroke-width="2" stroke-linecap="round"/><path d="M440.8571,313.16062c-1.9179,-2.9075 10.2941,-7.9203 10.9489,-13.7248c0.4473,-4.0004 -4.6686,-6.5928 -7.8346,-8.9823c-1.9447,-1.4483 -5.5829,-0.5417 -6.0206,-2.18c-0.4141,-1.5576 2.5834,-3.1613 4.3845,-3.8521c2.2233,-1.0566 5.0149,-2.2801 7.1935,-1.174c6.0107,3.0533 13.5828,6.2222 15.8819,12.5604c1.8978,5.231 -1.0715,12.5276 -5.6157,15.739c-5.1685,3.6527 -16.8613,4.7618 -19.957,2.8227z" fill="#b2b2b2" stroke="#7f7f7f" stroke-width="2" stroke-linecap="round"/></g></g></svg>