<svg version="1.1" xmlns="http://www.w3.org/2000/svg" xmlns:xlink="http://www.w3.org/1999/xlink" width="694.47635" height="470.11169" viewBox="0,0,694.47635,470.11169"><defs><radialGradient cx="363.23231" cy="168.20565" r="22.11461" gradientUnits="userSpaceOnUse" id="color-1"><stop offset="0" stop-color="#ffffff"/><stop offset="1" stop-color="#ffffff" stop-opacity="0"/></radialGradient><radialGradient cx="318.54996" cy="169.46569" r="22.11461" gradientUnits="userSpaceOnUse" id="color-2"><stop offset="0" stop-color="#ffffff"/><stop offset="1" stop-color="#ffffff" stop-opacity="0"/></radialGradient><radialGradient cx="338.55592" cy="160.64539" r="22.11461" gradientUnits="userSpaceOnUse" id="color-3"><stop offset="0" stop-color="#ffffff"/><stop offset="1" stop-color="#ffffff" stop-opacity="0"/></radialGradient><radialGradient cx="305.44498" cy="176.16914" r="22.11461" gradientUnits="userSpaceOnUse" id="color-4"><stop offset="0" stop-color="#ffffff"/><stop offset="1" stop-color="#ffffff" stop-opacity="0"/></radialGradient><radialGradient cx="367.69354" cy="176.52196" r="22.11461" gradientUnits="userSpaceOnUse" id="color-5"><stop offset="0" stop-color="#ffffff"/><stop offset="1" stop-color="#ffffff" stop-opacity="0"/></radialGradient><radialGradient cx="363.72027" cy="180.80613" r="22.11461" gradientUnits="userSpaceOnUse" id="color-6"><stop offset="0" stop-color="#ffffff"/><stop offset="1" stop-color="#ffffff" stop-opacity="0"/></radialGradient><radialGradient cx="313.04305" cy="183.93103" r="22.11461" gradientUnits="userSpaceOnUse" id="color-7"><stop offset="0" stop-color="#ffffff"/><stop offset="1" stop-color="#ffffff" stop-opacity="0"/></radialGradient><radialGradient cx="348.73318" cy="163.46788" r="22.11461" gradientUnits="userSpaceOnUse" id="color-8"><stop offset="0" stop-color="#ffffff"/><stop offset="1" stop-color="#ffffff" stop-opacity="0"/></radialGradient><radialGradient cx="341.41393" cy="188.16478" r="22.11461" gradientUnits="userSpaceOnUse" id="color-9"><stop offset="0" stop-color="#ffffff"/><stop offset="1" stop-color="#ffffff" stop-opacity="0"/></radialGradient><radialGradient cx="337.71946" cy="181.96536" r="22.11461" gradientUnits="userSpaceOnUse" id="color-10"><stop offset="0" stop-color="#ffffff"/><stop offset="1" stop-color="#ffffff" stop-opacity="0"/></radialGradient><radialGradient cx="341.48365" cy="175.16111" r="22.11461" gradientUnits="userSpaceOnUse" id="color-11"><stop offset="0" stop-color="#ffffff"/><stop offset="1" stop-color="#ffffff" stop-opacity="0"/></radialGradient><radialGradient cx="357.51631" cy="170.07052" r="22.11461" gradientUnits="userSpaceOnUse" id="color-12"><stop offset="0" stop-color="#ffffff"/><stop offset="1" stop-color="#ffffff" stop-opacity="0"/></radialGradient><radialGradient cx="320.98969" cy="176.97558" r="22.11461" gradientUnits="userSpaceOnUse" id="color-13"><stop offset="0" stop-color="#ffffff"/><stop offset="1" stop-color="#ffffff" stop-opacity="0"/></radialGradient><radialGradient cx="329.35458" cy="162.81267" r="22.11461" gradientUnits="userSpaceOnUse" id="color-14"><stop offset="0" stop-color="#ffffff"/><stop offset="1" stop-color="#ffffff" stop-opacity="0"/></radialGradient><radialGradient cx="330.4699" cy="186.50153" r="22.11461" gradientUnits="userSpaceOnUse" id="color-15"><stop offset="0" stop-color="#ffffff"/><stop offset="1" stop-color="#ffffff" stop-opacity="0"/></radialGradient><radialGradient cx="339.67127" cy="189.87845" r="22.11461" gradientUnits="userSpaceOnUse" id="color-16"><stop offset="0" stop-color="#ffffff"/><stop offset="1" stop-color="#ffffff" stop-opacity="0"/></radialGradient><radialGradient cx="311.30039" cy="176.26996" r="22.11462" gradientUnits="userSpaceOnUse" id="color-17"><stop offset="0" stop-color="#ffffff"/><stop offset="1" stop-color="#ffffff" stop-opacity="0"/></radialGradient><radialGradient cx="374.24603" cy="176.82438" r="22.11461" gradientUnits="userSpaceOnUse" id="color-18"><stop offset="0" stop-color="#ffffff"/><stop offset="1" stop-color="#ffffff" stop-opacity="0"/></radialGradient><radialGradient cx="358.14368" cy="188.5176" r="22.11461" gradientUnits="userSpaceOnUse" id="color-19"><stop offset="0" stop-color="#ffffff"/><stop offset="1" stop-color="#ffffff" stop-opacity="0"/></radialGradient><radialGradient cx="335.76765" cy="164.12311" r="22.11461" gradientUnits="userSpaceOnUse" id="color-20"><stop offset="0" stop-color="#ffffff"/><stop offset="1" stop-color="#ffffff" stop-opacity="0"/></radialGradient><radialGradient cx="357.37689" cy="185.19108" r="22.11461" gradientUnits="userSpaceOnUse" id="color-21"><stop offset="0" stop-color="#ffffff"/><stop offset="1" stop-color="#ffffff" stop-opacity="0"/></radialGradient><radialGradient cx="320.43206" cy="186.09831" r="22.11461" gradientUnits="userSpaceOnUse" id="color-22"><stop offset="0" stop-color="#ffffff"/><stop offset="1" stop-color="#ffffff" stop-opacity="0"/></radialGradient><radialGradient cx="318.61967" cy="168.15525" r="22.11461" gradientUnits="userSpaceOnUse" id="color-23"><stop offset="0" stop-color="#ffffff"/><stop offset="1" stop-color="#ffffff" stop-opacity="0"/></radialGradient><radialGradient cx="342.73838" cy="175.21153" r="22.11461" gradientUnits="userSpaceOnUse" id="color-24"><stop offset="0" stop-color="#ffffff"/><stop offset="1" stop-color="#ffffff" stop-opacity="0"/></radialGradient><radialGradient cx="486.11852" cy="127.15031" r="14.09198" gradientUnits="userSpaceOnUse" id="color-25"><stop offset="0" stop-color="#ffffff"/><stop offset="1" stop-color="#ffffff" stop-opacity="0"/></radialGradient><radialGradient cx="457.64583" cy="128.14275" r="14.09198" gradientUnits="userSpaceOnUse" id="color-26"><stop offset="0" stop-color="#ffffff"/><stop offset="1" stop-color="#ffffff" stop-opacity="0"/></radialGradient><radialGradient cx="470.39412" cy="121.19565" r="14.09198" gradientUnits="userSpaceOnUse" id="color-27"><stop offset="0" stop-color="#ffffff"/><stop offset="1" stop-color="#ffffff" stop-opacity="0"/></radialGradient><radialGradient cx="449.29502" cy="133.42257" r="14.09198" gradientUnits="userSpaceOnUse" id="color-28"><stop offset="0" stop-color="#ffffff"/><stop offset="1" stop-color="#ffffff" stop-opacity="0"/></radialGradient><radialGradient cx="488.96133" cy="133.70046" r="14.09198" gradientUnits="userSpaceOnUse" id="color-29"><stop offset="0" stop-color="#ffffff"/><stop offset="1" stop-color="#ffffff" stop-opacity="0"/></radialGradient><radialGradient cx="486.42946" cy="137.07479" r="14.09198" gradientUnits="userSpaceOnUse" id="color-30"><stop offset="0" stop-color="#ffffff"/><stop offset="1" stop-color="#ffffff" stop-opacity="0"/></radialGradient><radialGradient cx="454.13669" cy="139.53604" r="14.09198" gradientUnits="userSpaceOnUse" id="color-31"><stop offset="0" stop-color="#ffffff"/><stop offset="1" stop-color="#ffffff" stop-opacity="0"/></radialGradient><radialGradient cx="476.87932" cy="123.41871" r="14.09198" gradientUnits="userSpaceOnUse" id="color-32"><stop offset="0" stop-color="#ffffff"/><stop offset="1" stop-color="#ffffff" stop-opacity="0"/></radialGradient><radialGradient cx="472.21531" cy="142.87066" r="14.09198" gradientUnits="userSpaceOnUse" id="color-33"><stop offset="0" stop-color="#ffffff"/><stop offset="1" stop-color="#ffffff" stop-opacity="0"/></radialGradient><radialGradient cx="469.86111" cy="137.98783" r="14.09197" gradientUnits="userSpaceOnUse" id="color-34"><stop offset="0" stop-color="#ffffff"/><stop offset="1" stop-color="#ffffff" stop-opacity="0"/></radialGradient><radialGradient cx="472.25974" cy="132.62862" r="14.09198" gradientUnits="userSpaceOnUse" id="color-35"><stop offset="0" stop-color="#ffffff"/><stop offset="1" stop-color="#ffffff" stop-opacity="0"/></radialGradient><radialGradient cx="482.47614" cy="128.61913" r="14.09198" gradientUnits="userSpaceOnUse" id="color-36"><stop offset="0" stop-color="#ffffff"/><stop offset="1" stop-color="#ffffff" stop-opacity="0"/></radialGradient><radialGradient cx="459.20048" cy="134.05774" r="14.09198" gradientUnits="userSpaceOnUse" id="color-37"><stop offset="0" stop-color="#ffffff"/><stop offset="1" stop-color="#ffffff" stop-opacity="0"/></radialGradient><radialGradient cx="464.5308" cy="122.90265" r="14.09198" gradientUnits="userSpaceOnUse" id="color-38"><stop offset="0" stop-color="#ffffff"/><stop offset="1" stop-color="#ffffff" stop-opacity="0"/></radialGradient><radialGradient cx="465.2415" cy="141.56064" r="14.09198" gradientUnits="userSpaceOnUse" id="color-39"><stop offset="0" stop-color="#ffffff"/><stop offset="1" stop-color="#ffffff" stop-opacity="0"/></radialGradient><radialGradient cx="471.10485" cy="144.22039" r="14.09198" gradientUnits="userSpaceOnUse" id="color-40"><stop offset="0" stop-color="#ffffff"/><stop offset="1" stop-color="#ffffff" stop-opacity="0"/></radialGradient><radialGradient cx="453.02623" cy="133.50197" r="14.09198" gradientUnits="userSpaceOnUse" id="color-41"><stop offset="0" stop-color="#ffffff"/><stop offset="1" stop-color="#ffffff" stop-opacity="0"/></radialGradient><radialGradient cx="493.13674" cy="133.93865" r="14.09198" gradientUnits="userSpaceOnUse" id="color-42"><stop offset="0" stop-color="#ffffff"/><stop offset="1" stop-color="#ffffff" stop-opacity="0"/></radialGradient><radialGradient cx="482.87592" cy="143.14855" r="14.09198" gradientUnits="userSpaceOnUse" id="color-43"><stop offset="0" stop-color="#ffffff"/><stop offset="1" stop-color="#ffffff" stop-opacity="0"/></radialGradient><radialGradient cx="468.61736" cy="123.9348" r="14.09198" gradientUnits="userSpaceOnUse" id="color-44"><stop offset="0" stop-color="#ffffff"/><stop offset="1" stop-color="#ffffff" stop-opacity="0"/></radialGradient><radialGradient cx="482.38731" cy="140.52849" r="14.09198" gradientUnits="userSpaceOnUse" id="color-45"><stop offset="0" stop-color="#ffffff"/><stop offset="1" stop-color="#ffffff" stop-opacity="0"/></radialGradient><radialGradient cx="458.84515" cy="141.24305" r="14.09198" gradientUnits="userSpaceOnUse" id="color-46"><stop offset="0" stop-color="#ffffff"/><stop offset="1" stop-color="#ffffff" stop-opacity="0"/></radialGradient><radialGradient cx="457.69025" cy="127.11061" r="14.09198" gradientUnits="userSpaceOnUse" id="color-47"><stop offset="0" stop-color="#ffffff"/><stop offset="1" stop-color="#ffffff" stop-opacity="0"/></radialGradient><radialGradient cx="473.05928" cy="132.66833" r="14.09198" gradientUnits="userSpaceOnUse" id="color-48"><stop offset="0" stop-color="#ffffff"/><stop offset="1" stop-color="#ffffff" stop-opacity="0"/></radialGradient><radialGradient cx="524.11852" cy="146.15031" r="14.09198" gradientUnits="userSpaceOnUse" id="color-49"><stop offset="0" stop-color="#ffffff"/><stop offset="1" stop-color="#ffffff" stop-opacity="0"/></radialGradient><radialGradient cx="495.64583" cy="147.14275" r="14.09197" gradientUnits="userSpaceOnUse" id="color-50"><stop offset="0" stop-color="#ffffff"/><stop offset="1" stop-color="#ffffff" stop-opacity="0"/></radialGradient><radialGradient cx="508.39412" cy="140.19565" r="14.09197" gradientUnits="userSpaceOnUse" id="color-51"><stop offset="0" stop-color="#ffffff"/><stop offset="1" stop-color="#ffffff" stop-opacity="0"/></radialGradient><radialGradient cx="487.29502" cy="152.42258" r="14.09198" gradientUnits="userSpaceOnUse" id="color-52"><stop offset="0" stop-color="#ffffff"/><stop offset="1" stop-color="#ffffff" stop-opacity="0"/></radialGradient><radialGradient cx="526.96133" cy="152.70046" r="14.09198" gradientUnits="userSpaceOnUse" id="color-53"><stop offset="0" stop-color="#ffffff"/><stop offset="1" stop-color="#ffffff" stop-opacity="0"/></radialGradient><radialGradient cx="524.42945" cy="156.07479" r="14.09198" gradientUnits="userSpaceOnUse" id="color-54"><stop offset="0" stop-color="#ffffff"/><stop offset="1" stop-color="#ffffff" stop-opacity="0"/></radialGradient><radialGradient cx="492.13669" cy="158.53604" r="14.09197" gradientUnits="userSpaceOnUse" id="color-55"><stop offset="0" stop-color="#ffffff"/><stop offset="1" stop-color="#ffffff" stop-opacity="0"/></radialGradient><radialGradient cx="514.87933" cy="142.41872" r="14.09198" gradientUnits="userSpaceOnUse" id="color-56"><stop offset="0" stop-color="#ffffff"/><stop offset="1" stop-color="#ffffff" stop-opacity="0"/></radialGradient><radialGradient cx="510.21532" cy="161.87066" r="14.09197" gradientUnits="userSpaceOnUse" id="color-57"><stop offset="0" stop-color="#ffffff"/><stop offset="1" stop-color="#ffffff" stop-opacity="0"/></radialGradient><radialGradient cx="507.86111" cy="156.98783" r="14.09197" gradientUnits="userSpaceOnUse" id="color-58"><stop offset="0" stop-color="#ffffff"/><stop offset="1" stop-color="#ffffff" stop-opacity="0"/></radialGradient><radialGradient cx="510.25974" cy="151.62862" r="14.09198" gradientUnits="userSpaceOnUse" id="color-59"><stop offset="0" stop-color="#ffffff"/><stop offset="1" stop-color="#ffffff" stop-opacity="0"/></radialGradient><radialGradient cx="520.47614" cy="147.61913" r="14.09198" gradientUnits="userSpaceOnUse" id="color-60"><stop offset="0" stop-color="#ffffff"/><stop offset="1" stop-color="#ffffff" stop-opacity="0"/></radialGradient><radialGradient cx="497.20048" cy="153.05775" r="14.09198" gradientUnits="userSpaceOnUse" id="color-61"><stop offset="0" stop-color="#ffffff"/><stop offset="1" stop-color="#ffffff" stop-opacity="0"/></radialGradient><radialGradient cx="502.5308" cy="141.90266" r="14.09197" gradientUnits="userSpaceOnUse" id="color-62"><stop offset="0" stop-color="#ffffff"/><stop offset="1" stop-color="#ffffff" stop-opacity="0"/></radialGradient><radialGradient cx="503.2415" cy="160.56063" r="14.09198" gradientUnits="userSpaceOnUse" id="color-63"><stop offset="0" stop-color="#ffffff"/><stop offset="1" stop-color="#ffffff" stop-opacity="0"/></radialGradient><radialGradient cx="509.10485" cy="163.22039" r="14.09197" gradientUnits="userSpaceOnUse" id="color-64"><stop offset="0" stop-color="#ffffff"/><stop offset="1" stop-color="#ffffff" stop-opacity="0"/></radialGradient><radialGradient cx="491.02623" cy="152.50197" r="14.09198" gradientUnits="userSpaceOnUse" id="color-65"><stop offset="0" stop-color="#ffffff"/><stop offset="1" stop-color="#ffffff" stop-opacity="0"/></radialGradient><radialGradient cx="531.13674" cy="152.93865" r="14.09197" gradientUnits="userSpaceOnUse" id="color-66"><stop offset="0" stop-color="#ffffff"/><stop offset="1" stop-color="#ffffff" stop-opacity="0"/></radialGradient><radialGradient cx="520.87592" cy="162.14855" r="14.09197" gradientUnits="userSpaceOnUse" id="color-67"><stop offset="0" stop-color="#ffffff"/><stop offset="1" stop-color="#ffffff" stop-opacity="0"/></radialGradient><radialGradient cx="506.61737" cy="142.9348" r="14.09198" gradientUnits="userSpaceOnUse" id="color-68"><stop offset="0" stop-color="#ffffff"/><stop offset="1" stop-color="#ffffff" stop-opacity="0"/></radialGradient><radialGradient cx="520.38731" cy="159.52849" r="14.09197" gradientUnits="userSpaceOnUse" id="color-69"><stop offset="0" stop-color="#ffffff"/><stop offset="1" stop-color="#ffffff" stop-opacity="0"/></radialGradient><radialGradient cx="496.84515" cy="160.24306" r="14.09198" gradientUnits="userSpaceOnUse" id="color-70"><stop offset="0" stop-color="#ffffff"/><stop offset="1" stop-color="#ffffff" stop-opacity="0"/></radialGradient><radialGradient cx="495.69025" cy="146.11062" r="14.09198" gradientUnits="userSpaceOnUse" id="color-71"><stop offset="0" stop-color="#ffffff"/><stop offset="1" stop-color="#ffffff" stop-opacity="0"/></radialGradient><radialGradient cx="511.05929" cy="151.66833" r="14.09197" gradientUnits="userSpaceOnUse" id="color-72"><stop offset="0" stop-color="#ffffff"/><stop offset="1" stop-color="#ffffff" stop-opacity="0"/></radialGradient><radialGradient cx="34.2323" cy="160.20565" r="22.11461" gradientUnits="userSpaceOnUse" id="color-73"><stop offset="0" stop-color="#ffffff"/><stop offset="1" stop-color="#ffffff" stop-opacity="0"/></radialGradient><radialGradient cx="-10.45004" cy="161.46569" r="22.11461" gradientUnits="userSpaceOnUse" id="color-74"><stop offset="0" stop-color="#ffffff"/><stop offset="1" stop-color="#ffffff" stop-opacity="0"/></radialGradient><radialGradient cx="9.55592" cy="152.64539" r="22.11461" gradientUnits="userSpaceOnUse" id="color-75"><stop offset="0" stop-color="#ffffff"/><stop offset="1" stop-color="#ffffff" stop-opacity="0"/></radialGradient><radialGradient cx="-23.55501" cy="168.16914" r="22.11461" gradientUnits="userSpaceOnUse" id="color-76"><stop offset="0" stop-color="#ffffff"/><stop offset="1" stop-color="#ffffff" stop-opacity="0"/></radialGradient><radialGradient cx="38.69353" cy="168.52196" r="22.11461" gradientUnits="userSpaceOnUse" id="color-77"><stop offset="0" stop-color="#ffffff"/><stop offset="1" stop-color="#ffffff" stop-opacity="0"/></radialGradient><radialGradient cx="34.72027" cy="172.80613" r="22.11461" gradientUnits="userSpaceOnUse" id="color-78"><stop offset="0" stop-color="#ffffff"/><stop offset="1" stop-color="#ffffff" stop-opacity="0"/></radialGradient><radialGradient cx="-15.95695" cy="175.93103" r="22.11461" gradientUnits="userSpaceOnUse" id="color-79"><stop offset="0" stop-color="#ffffff"/><stop offset="1" stop-color="#ffffff" stop-opacity="0"/></radialGradient><radialGradient cx="19.73318" cy="155.46788" r="22.11461" gradientUnits="userSpaceOnUse" id="color-80"><stop offset="0" stop-color="#ffffff"/><stop offset="1" stop-color="#ffffff" stop-opacity="0"/></radialGradient><radialGradient cx="12.41393" cy="180.16478" r="22.11461" gradientUnits="userSpaceOnUse" id="color-81"><stop offset="0" stop-color="#ffffff"/><stop offset="1" stop-color="#ffffff" stop-opacity="0"/></radialGradient><radialGradient cx="8.71946" cy="173.96536" r="22.11461" gradientUnits="userSpaceOnUse" id="color-82"><stop offset="0" stop-color="#ffffff"/><stop offset="1" stop-color="#ffffff" stop-opacity="0"/></radialGradient><radialGradient cx="12.48365" cy="167.16111" r="22.11461" gradientUnits="userSpaceOnUse" id="color-83"><stop offset="0" stop-color="#ffffff"/><stop offset="1" stop-color="#ffffff" stop-opacity="0"/></radialGradient><radialGradient cx="28.51631" cy="162.07052" r="22.11461" gradientUnits="userSpaceOnUse" id="color-84"><stop offset="0" stop-color="#ffffff"/><stop offset="1" stop-color="#ffffff" stop-opacity="0"/></radialGradient><radialGradient cx="-8.01031" cy="168.97558" r="22.11461" gradientUnits="userSpaceOnUse" id="color-85"><stop offset="0" stop-color="#ffffff"/><stop offset="1" stop-color="#ffffff" stop-opacity="0"/></radialGradient><radialGradient cx="0.35458" cy="154.81267" r="22.11461" gradientUnits="userSpaceOnUse" id="color-86"><stop offset="0" stop-color="#ffffff"/><stop offset="1" stop-color="#ffffff" stop-opacity="0"/></radialGradient><radialGradient cx="1.4699" cy="178.50153" r="22.11461" gradientUnits="userSpaceOnUse" id="color-87"><stop offset="0" stop-color="#ffffff"/><stop offset="1" stop-color="#ffffff" stop-opacity="0"/></radialGradient><radialGradient cx="10.67127" cy="181.87845" r="22.11461" gradientUnits="userSpaceOnUse" id="color-88"><stop offset="0" stop-color="#ffffff"/><stop offset="1" stop-color="#ffffff" stop-opacity="0"/></radialGradient><radialGradient cx="-17.6996" cy="168.26996" r="22.11462" gradientUnits="userSpaceOnUse" id="color-89"><stop offset="0" stop-color="#ffffff"/><stop offset="1" stop-color="#ffffff" stop-opacity="0"/></radialGradient><radialGradient cx="45.24603" cy="168.82438" r="22.11461" gradientUnits="userSpaceOnUse" id="color-90"><stop offset="0" stop-color="#ffffff"/><stop offset="1" stop-color="#ffffff" stop-opacity="0"/></radialGradient><radialGradient cx="29.14368" cy="180.5176" r="22.11461" gradientUnits="userSpaceOnUse" id="color-91"><stop offset="0" stop-color="#ffffff"/><stop offset="1" stop-color="#ffffff" stop-opacity="0"/></radialGradient><radialGradient cx="6.76765" cy="156.12311" r="22.11461" gradientUnits="userSpaceOnUse" id="color-92"><stop offset="0" stop-color="#ffffff"/><stop offset="1" stop-color="#ffffff" stop-opacity="0"/></radialGradient><radialGradient cx="28.37689" cy="177.19108" r="22.11461" gradientUnits="userSpaceOnUse" id="color-93"><stop offset="0" stop-color="#ffffff"/><stop offset="1" stop-color="#ffffff" stop-opacity="0"/></radialGradient><radialGradient cx="-8.56794" cy="178.09831" r="22.11461" gradientUnits="userSpaceOnUse" id="color-94"><stop offset="0" stop-color="#ffffff"/><stop offset="1" stop-color="#ffffff" stop-opacity="0"/></radialGradient><radialGradient cx="-10.38033" cy="160.15525" r="22.11461" gradientUnits="userSpaceOnUse" id="color-95"><stop offset="0" stop-color="#ffffff"/><stop offset="1" stop-color="#ffffff" stop-opacity="0"/></radialGradient><radialGradient cx="13.73838" cy="167.21153" r="22.11461" gradientUnits="userSpaceOnUse" id="color-96"><stop offset="0" stop-color="#ffffff"/><stop offset="1" stop-color="#ffffff" stop-opacity="0"/></radialGradient><radialGradient cx="157.11852" cy="119.15031" r="14.09198" gradientUnits="userSpaceOnUse" id="color-97"><stop offset="0" stop-color="#ffffff"/><stop offset="1" stop-color="#ffffff" stop-opacity="0"/></radialGradient><radialGradient cx="128.64583" cy="120.14275" r="14.09198" gradientUnits="userSpaceOnUse" id="color-98"><stop offset="0" stop-color="#ffffff"/><stop offset="1" stop-color="#ffffff" stop-opacity="0"/></radialGradient><radialGradient cx="141.39412" cy="113.19565" r="14.09198" gradientUnits="userSpaceOnUse" id="color-99"><stop offset="0" stop-color="#ffffff"/><stop offset="1" stop-color="#ffffff" stop-opacity="0"/></radialGradient><radialGradient cx="120.29502" cy="125.42257" r="14.09198" gradientUnits="userSpaceOnUse" id="color-100"><stop offset="0" stop-color="#ffffff"/><stop offset="1" stop-color="#ffffff" stop-opacity="0"/></radialGradient><radialGradient cx="159.96132" cy="125.70046" r="14.09198" gradientUnits="userSpaceOnUse" id="color-101"><stop offset="0" stop-color="#ffffff"/><stop offset="1" stop-color="#ffffff" stop-opacity="0"/></radialGradient><radialGradient cx="157.42945" cy="129.07479" r="14.09198" gradientUnits="userSpaceOnUse" id="color-102"><stop offset="0" stop-color="#ffffff"/><stop offset="1" stop-color="#ffffff" stop-opacity="0"/></radialGradient><radialGradient cx="125.13669" cy="131.53604" r="14.09198" gradientUnits="userSpaceOnUse" id="color-103"><stop offset="0" stop-color="#ffffff"/><stop offset="1" stop-color="#ffffff" stop-opacity="0"/></radialGradient><radialGradient cx="147.87932" cy="115.41871" r="14.09198" gradientUnits="userSpaceOnUse" id="color-104"><stop offset="0" stop-color="#ffffff"/><stop offset="1" stop-color="#ffffff" stop-opacity="0"/></radialGradient><radialGradient cx="143.21531" cy="134.87066" r="14.09198" gradientUnits="userSpaceOnUse" id="color-105"><stop offset="0" stop-color="#ffffff"/><stop offset="1" stop-color="#ffffff" stop-opacity="0"/></radialGradient><radialGradient cx="140.86111" cy="129.98783" r="14.09197" gradientUnits="userSpaceOnUse" id="color-106"><stop offset="0" stop-color="#ffffff"/><stop offset="1" stop-color="#ffffff" stop-opacity="0"/></radialGradient><radialGradient cx="143.25974" cy="124.62862" r="14.09198" gradientUnits="userSpaceOnUse" id="color-107"><stop offset="0" stop-color="#ffffff"/><stop offset="1" stop-color="#ffffff" stop-opacity="0"/></radialGradient><radialGradient cx="153.47614" cy="120.61913" r="14.09198" gradientUnits="userSpaceOnUse" id="color-108"><stop offset="0" stop-color="#ffffff"/><stop offset="1" stop-color="#ffffff" stop-opacity="0"/></radialGradient><radialGradient cx="130.20048" cy="126.05774" r="14.09198" gradientUnits="userSpaceOnUse" id="color-109"><stop offset="0" stop-color="#ffffff"/><stop offset="1" stop-color="#ffffff" stop-opacity="0"/></radialGradient><radialGradient cx="135.5308" cy="114.90265" r="14.09198" gradientUnits="userSpaceOnUse" id="color-110"><stop offset="0" stop-color="#ffffff"/><stop offset="1" stop-color="#ffffff" stop-opacity="0"/></radialGradient><radialGradient cx="136.24149" cy="133.56064" r="14.09198" gradientUnits="userSpaceOnUse" id="color-111"><stop offset="0" stop-color="#ffffff"/><stop offset="1" stop-color="#ffffff" stop-opacity="0"/></radialGradient><radialGradient cx="142.10485" cy="136.22039" r="14.09198" gradientUnits="userSpaceOnUse" id="color-112"><stop offset="0" stop-color="#ffffff"/><stop offset="1" stop-color="#ffffff" stop-opacity="0"/></radialGradient><radialGradient cx="124.02623" cy="125.50197" r="14.09198" gradientUnits="userSpaceOnUse" id="color-113"><stop offset="0" stop-color="#ffffff"/><stop offset="1" stop-color="#ffffff" stop-opacity="0"/></radialGradient><radialGradient cx="164.13673" cy="125.93865" r="14.09198" gradientUnits="userSpaceOnUse" id="color-114"><stop offset="0" stop-color="#ffffff"/><stop offset="1" stop-color="#ffffff" stop-opacity="0"/></radialGradient><radialGradient cx="153.87592" cy="135.14855" r="14.09198" gradientUnits="userSpaceOnUse" id="color-115"><stop offset="0" stop-color="#ffffff"/><stop offset="1" stop-color="#ffffff" stop-opacity="0"/></radialGradient><radialGradient cx="139.61736" cy="115.9348" r="14.09198" gradientUnits="userSpaceOnUse" id="color-116"><stop offset="0" stop-color="#ffffff"/><stop offset="1" stop-color="#ffffff" stop-opacity="0"/></radialGradient><radialGradient cx="153.38731" cy="132.52849" r="14.09198" gradientUnits="userSpaceOnUse" id="color-117"><stop offset="0" stop-color="#ffffff"/><stop offset="1" stop-color="#ffffff" stop-opacity="0"/></radialGradient><radialGradient cx="129.84515" cy="133.24305" r="14.09198" gradientUnits="userSpaceOnUse" id="color-118"><stop offset="0" stop-color="#ffffff"/><stop offset="1" stop-color="#ffffff" stop-opacity="0"/></radialGradient><radialGradient cx="128.69025" cy="119.11061" r="14.09198" gradientUnits="userSpaceOnUse" id="color-119"><stop offset="0" stop-color="#ffffff"/><stop offset="1" stop-color="#ffffff" stop-opacity="0"/></radialGradient><radialGradient cx="144.05928" cy="124.66833" r="14.09198" gradientUnits="userSpaceOnUse" id="color-120"><stop offset="0" stop-color="#ffffff"/><stop offset="1" stop-color="#ffffff" stop-opacity="0"/></radialGradient><radialGradient cx="195.11852" cy="138.15031" r="14.09198" gradientUnits="userSpaceOnUse" id="color-121"><stop offset="0" stop-color="#ffffff"/><stop offset="1" stop-color="#ffffff" stop-opacity="0"/></radialGradient><radialGradient cx="166.64583" cy="139.14275" r="14.09197" gradientUnits="userSpaceOnUse" id="color-122"><stop offset="0" stop-color="#ffffff"/><stop offset="1" stop-color="#ffffff" stop-opacity="0"/></radialGradient><radialGradient cx="179.39412" cy="132.19565" r="14.09197" gradientUnits="userSpaceOnUse" id="color-123"><stop offset="0" stop-color="#ffffff"/><stop offset="1" stop-color="#ffffff" stop-opacity="0"/></radialGradient><radialGradient cx="158.29502" cy="144.42258" r="14.09198" gradientUnits="userSpaceOnUse" id="color-124"><stop offset="0" stop-color="#ffffff"/><stop offset="1" stop-color="#ffffff" stop-opacity="0"/></radialGradient><radialGradient cx="197.96133" cy="144.70046" r="14.09198" gradientUnits="userSpaceOnUse" id="color-125"><stop offset="0" stop-color="#ffffff"/><stop offset="1" stop-color="#ffffff" stop-opacity="0"/></radialGradient><radialGradient cx="195.42946" cy="148.07479" r="14.09198" gradientUnits="userSpaceOnUse" id="color-126"><stop offset="0" stop-color="#ffffff"/><stop offset="1" stop-color="#ffffff" stop-opacity="0"/></radialGradient><radialGradient cx="163.13669" cy="150.53604" r="14.09197" gradientUnits="userSpaceOnUse" id="color-127"><stop offset="0" stop-color="#ffffff"/><stop offset="1" stop-color="#ffffff" stop-opacity="0"/></radialGradient><radialGradient cx="185.87933" cy="134.41872" r="14.09198" gradientUnits="userSpaceOnUse" id="color-128"><stop offset="0" stop-color="#ffffff"/><stop offset="1" stop-color="#ffffff" stop-opacity="0"/></radialGradient><radialGradient cx="181.21532" cy="153.87066" r="14.09197" gradientUnits="userSpaceOnUse" id="color-129"><stop offset="0" stop-color="#ffffff"/><stop offset="1" stop-color="#ffffff" stop-opacity="0"/></radialGradient><radialGradient cx="178.86111" cy="148.98783" r="14.09197" gradientUnits="userSpaceOnUse" id="color-130"><stop offset="0" stop-color="#ffffff"/><stop offset="1" stop-color="#ffffff" stop-opacity="0"/></radialGradient><radialGradient cx="181.25974" cy="143.62862" r="14.09198" gradientUnits="userSpaceOnUse" id="color-131"><stop offset="0" stop-color="#ffffff"/><stop offset="1" stop-color="#ffffff" stop-opacity="0"/></radialGradient><radialGradient cx="191.47614" cy="139.61913" r="14.09198" gradientUnits="userSpaceOnUse" id="color-132"><stop offset="0" stop-color="#ffffff"/><stop offset="1" stop-color="#ffffff" stop-opacity="0"/></radialGradient><radialGradient cx="168.20048" cy="145.05775" r="14.09198" gradientUnits="userSpaceOnUse" id="color-133"><stop offset="0" stop-color="#ffffff"/><stop offset="1" stop-color="#ffffff" stop-opacity="0"/></radialGradient><radialGradient cx="173.5308" cy="133.90266" r="14.09197" gradientUnits="userSpaceOnUse" id="color-134"><stop offset="0" stop-color="#ffffff"/><stop offset="1" stop-color="#ffffff" stop-opacity="0"/></radialGradient><radialGradient cx="174.2415" cy="152.56063" r="14.09198" gradientUnits="userSpaceOnUse" id="color-135"><stop offset="0" stop-color="#ffffff"/><stop offset="1" stop-color="#ffffff" stop-opacity="0"/></radialGradient><radialGradient cx="180.10485" cy="155.22039" r="14.09197" gradientUnits="userSpaceOnUse" id="color-136"><stop offset="0" stop-color="#ffffff"/><stop offset="1" stop-color="#ffffff" stop-opacity="0"/></radialGradient><radialGradient cx="162.02623" cy="144.50197" r="14.09198" gradientUnits="userSpaceOnUse" id="color-137"><stop offset="0" stop-color="#ffffff"/><stop offset="1" stop-color="#ffffff" stop-opacity="0"/></radialGradient><radialGradient cx="202.13674" cy="144.93865" r="14.09197" gradientUnits="userSpaceOnUse" id="color-138"><stop offset="0" stop-color="#ffffff"/><stop offset="1" stop-color="#ffffff" stop-opacity="0"/></radialGradient><radialGradient cx="191.87592" cy="154.14855" r="14.09197" gradientUnits="userSpaceOnUse" id="color-139"><stop offset="0" stop-color="#ffffff"/><stop offset="1" stop-color="#ffffff" stop-opacity="0"/></radialGradient><radialGradient cx="177.61737" cy="134.9348" r="14.09198" gradientUnits="userSpaceOnUse" id="color-140"><stop offset="0" stop-color="#ffffff"/><stop offset="1" stop-color="#ffffff" stop-opacity="0"/></radialGradient><radialGradient cx="191.38731" cy="151.52849" r="14.09197" gradientUnits="userSpaceOnUse" id="color-141"><stop offset="0" stop-color="#ffffff"/><stop offset="1" stop-color="#ffffff" stop-opacity="0"/></radialGradient><radialGradient cx="167.84515" cy="152.24306" r="14.09198" gradientUnits="userSpaceOnUse" id="color-142"><stop offset="0" stop-color="#ffffff"/><stop offset="1" stop-color="#ffffff" stop-opacity="0"/></radialGradient><radialGradient cx="166.69025" cy="138.11062" r="14.09198" gradientUnits="userSpaceOnUse" id="color-143"><stop offset="0" stop-color="#ffffff"/><stop offset="1" stop-color="#ffffff" stop-opacity="0"/></radialGradient><radialGradient cx="182.05929" cy="143.66833" r="14.09197" gradientUnits="userSpaceOnUse" id="color-144"><stop offset="0" stop-color="#ffffff"/><stop offset="1" stop-color="#ffffff" stop-opacity="0"/></radialGradient><radialGradient cx="444.20855" cy="114.43659" r="162.24793" gradientUnits="userSpaceOnUse" id="color-145"><stop offset="0" stop-color="#b9ecfa"/><stop offset="1" stop-color="#b9ecfa" stop-opacity="0"/></radialGradient><radialGradient cx="442.91349" cy="113.34403" r="24.88102" gradientUnits="userSpaceOnUse" id="color-146"><stop offset="0" stop-color="#fff78e"/><stop offset="1" stop-color="#ffed00"/></radialGradient><linearGradient x1="423.00001" y1="100.71667" x2="423.00001" y2="391.71667" gradientUnits="userSpaceOnUse" id="color-147"><stop offset="0" stop-color="#85785d"/><stop offset="1" stop-color="#453b2d"/></linearGradient><linearGradient x1="413.37896" y1="101.71667" x2="413.37896" y2="190.73474" gradientUnits="userSpaceOnUse" id="color-148"><stop offset="0" stop-color="#abcdcd"/><stop offset="1" stop-color="#95a6a7"/></linearGradient><linearGradient x1="177.50001" y1="254.71667" x2="177.50001" y2="399.71667" gradientUnits="userSpaceOnUse" id="color-149"><stop offset="0" stop-color="#abcdcd"/><stop offset="1" stop-color="#95a6a7"/></linearGradient><linearGradient x1="177.50001" y1="254.71667" x2="177.50001" y2="399.71667" gradientUnits="userSpaceOnUse" id="color-150"><stop offset="0" stop-color="#abcdcd"/><stop offset="1" stop-color="#95a6a7"/></linearGradient><linearGradient x1="177.50001" y1="254.71667" x2="177.50001" y2="399.71667" gradientUnits="userSpaceOnUse" id="color-151"><stop offset="0" stop-color="#abcdcd"/><stop offset="1" stop-color="#95a6a7"/></linearGradient><linearGradient x1="177.50001" y1="254.71667" x2="177.50001" y2="399.71667" gradientUnits="userSpaceOnUse" id="color-152"><stop offset="0" stop-color="#abcdcd"/><stop offset="1" stop-color="#95a6a7"/></linearGradient><linearGradient x1="72.17604" y1="101.70664" x2="72.17604" y2="402.71667" gradientUnits="userSpaceOnUse" id="color-153"><stop offset="0" stop-color="#ab9a78"/><stop offset="1" stop-color="#857a6a"/></linearGradient><linearGradient x1="101" y1="104.71667" x2="101" y2="395.71667" gradientUnits="userSpaceOnUse" id="color-154"><stop offset="0" stop-color="#85785d"/><stop offset="1" stop-color="#453b2d"/></linearGradient><linearGradient x1="91.37895" y1="105.71667" x2="91.37895" y2="194.73474" gradientUnits="userSpaceOnUse" id="color-155"><stop offset="0" stop-color="#abcdcd"/><stop offset="1" stop-color="#95a6a7"/></linearGradient><linearGradient x1="271.00001" y1="143.71667" x2="271.00001" y2="434.71667" gradientUnits="userSpaceOnUse" id="color-156"><stop offset="0" stop-color="#85785d"/><stop offset="1" stop-color="#453b2d"/></linearGradient><linearGradient x1="261.37896" y1="144.71667" x2="261.37896" y2="233.73474" gradientUnits="userSpaceOnUse" id="color-157"><stop offset="0" stop-color="#abcdcd"/><stop offset="1" stop-color="#95a6a7"/></linearGradient><linearGradient x1="226.75678" y1="40.51502" x2="226.75678" y2="1162.19054" gradientUnits="userSpaceOnUse" id="color-158"><stop offset="0" stop-color="#25237a" stop-opacity="0"/><stop offset="1" stop-color="#25237a"/></linearGradient><linearGradient x1="274.00001" y1="347.59026" x2="274.00001" y2="499.59026" gradientUnits="userSpaceOnUse" id="color-159"><stop offset="0" stop-color="#cfd8d8"/><stop offset="1" stop-color="#80aead"/></linearGradient><linearGradient x1="252.76276" y1="319.2142" x2="252.76276" y2="553.44844" gradientUnits="userSpaceOnUse" id="color-160"><stop offset="0" stop-color="#779ccc" stop-opacity="0"/><stop offset="1" stop-color="#779ccc"/></linearGradient></defs><g transform="translate(89.57958,40.436)"><g data-paper-data="{&quot;isPaintingLayer&quot;:true}" fill-rule="nonzero" stroke-linejoin="miter" stroke-miterlimit="10" stroke-dasharray="" stroke-dashoffset="0" style="mix-blend-mode: normal"><g stroke="none" stroke-width="0" stroke-linecap="butt"><g><g><path d="M340.76666,167.95184c0,-8.83102 9.90105,-15.98998 22.11462,-15.98998c12.21356,0 22.11461,7.15896 22.11461,15.98998c0,8.83102 -9.90105,15.98998 -22.11461,15.98998c-12.21356,0 -22.11462,-7.15896 -22.11462,-15.98998z" fill="url(#color-1)"/><path d="M296.08432,169.2119c0,-8.83102 9.90105,-15.98998 22.11461,-15.98998c12.21356,0 22.11461,7.15896 22.11461,15.98998c0,8.83102 -9.90105,15.98998 -22.11461,15.98998c-12.21356,0 -22.11461,-7.15896 -22.11461,-15.98998z" fill="url(#color-2)"/><path d="M316.09028,160.39158c0,-8.83102 9.90105,-15.98998 22.11461,-15.98998c12.21356,0 22.11461,7.15896 22.11461,15.98998c0,8.83102 -9.90105,15.98998 -22.11461,15.98998c-12.21356,0 -22.11461,-7.15896 -22.11461,-15.98998z" fill="url(#color-3)"/><path d="M282.97936,175.91535c0,-8.83102 9.90105,-15.98998 22.11461,-15.98998c12.21356,0 22.11461,7.15896 22.11461,15.98998c0,8.83102 -9.90105,15.98998 -22.11461,15.98998c-12.21356,0 -22.11461,-7.15896 -22.11461,-15.98998z" fill="url(#color-4)"/><path d="M345.22789,176.26816c0,-8.83102 9.90105,-15.98998 22.11461,-15.98998c12.21356,0 22.11461,7.15896 22.11461,15.98998c0,8.83102 -9.90105,15.98998 -22.11461,15.98998c-12.21356,0 -22.11461,-7.15896 -22.11461,-15.98998z" fill="url(#color-5)"/><path d="M341.2546,180.55231c0,-8.83102 9.90105,-15.98998 22.11461,-15.98998c12.21356,0 22.11461,7.15896 22.11461,15.98998c0,8.83102 -9.90105,15.98998 -22.11461,15.98998c-12.21356,0 -22.11461,-7.15896 -22.11461,-15.98998z" data-paper-data="{&quot;index&quot;:null}" fill="url(#color-6)"/><path d="M290.57743,183.67723c0,-8.83102 9.90105,-15.98998 22.11461,-15.98998c12.21356,0 22.11461,7.15896 22.11461,15.98998c0,8.83102 -9.90105,15.98998 -22.11461,15.98998c-12.21356,0 -22.11461,-7.15896 -22.11461,-15.98998z" data-paper-data="{&quot;index&quot;:null}" fill="url(#color-7)"/><path d="M326.26756,163.21407c0,-8.83102 9.90105,-15.98998 22.11461,-15.98998c12.21356,0 22.11461,7.15896 22.11461,15.98998c0,8.83102 -9.90105,15.98998 -22.11461,15.98998c-12.21356,0 -22.11461,-7.15896 -22.11461,-15.98998z" fill="url(#color-8)"/><path d="M318.94829,187.91098c0,-8.83102 9.90105,-15.98998 22.11461,-15.98998c12.21356,0 22.11461,7.15896 22.11461,15.98998c0,8.83102 -9.90105,15.98998 -22.11461,15.98998c-12.21356,0 -22.11461,-7.15896 -22.11461,-15.98998z" fill="url(#color-9)"/><path d="M315.25379,181.71156c0,-8.83102 9.90105,-15.98998 22.11462,-15.98998c12.21356,0 22.11461,7.15896 22.11461,15.98998c0,8.83102 -9.90105,15.98998 -22.11461,15.98998c-12.21356,0 -22.11462,-7.15896 -22.11462,-15.98998z" fill="url(#color-10)"/><path d="M319.01797,174.90731c0,-8.83102 9.90105,-15.98998 22.11461,-15.98998c12.21356,0 22.11461,7.15896 22.11461,15.98998c0,8.83102 -9.90105,15.98998 -22.11461,15.98998c-12.21356,0 -22.11461,-7.15896 -22.11461,-15.98998z" fill="url(#color-11)"/><path d="M335.05066,169.81671c0,-8.83102 9.90105,-15.98998 22.11461,-15.98998c12.21356,0 22.11461,7.15896 22.11461,15.98998c0,8.83102 -9.90105,15.98998 -22.11461,15.98998c-12.21356,0 -22.11461,-7.15896 -22.11461,-15.98998z" fill="url(#color-12)"/><path d="M298.52407,176.72177c0,-8.83102 9.90105,-15.98998 22.11461,-15.98998c12.21356,0 22.11461,7.15896 22.11461,15.98998c0,8.83102 -9.90105,15.98998 -22.11461,15.98998c-12.21356,0 -22.11461,-7.15896 -22.11461,-15.98998z" fill="url(#color-13)"/><path d="M306.88894,162.55886c0,-8.83102 9.90105,-15.98998 22.11461,-15.98998c12.21356,0 22.11461,7.15896 22.11461,15.98998c0,8.83102 -9.90105,15.98998 -22.11461,15.98998c-12.21356,0 -22.11461,-7.15896 -22.11461,-15.98998z" fill="url(#color-14)"/><path d="M308.00425,186.24772c0,-8.83102 9.90105,-15.98998 22.11462,-15.98998c12.21356,0 22.11461,7.15896 22.11461,15.98998c0,8.83102 -9.90105,15.98998 -22.11461,15.98998c-12.21356,0 -22.11462,-7.15896 -22.11462,-15.98998z" data-paper-data="{&quot;index&quot;:null}" fill="url(#color-15)"/><path d="M317.20559,189.62464c0,-8.83102 9.90105,-15.98998 22.11461,-15.98998c12.21356,0 22.11461,7.15896 22.11461,15.98998c0,8.83102 -9.90105,15.98998 -22.11461,15.98998c-12.21356,0 -22.11461,-7.15896 -22.11461,-15.98998z" data-paper-data="{&quot;index&quot;:null}" fill="url(#color-16)"/><path d="M288.83477,176.01615c0,-8.83102 9.90105,-15.98998 22.11461,-15.98998c12.21356,0 22.11461,7.15896 22.11461,15.98998c0,8.83102 -9.90105,15.98998 -22.11461,15.98998c-12.21356,0 -22.11461,-7.15896 -22.11461,-15.98998z" data-paper-data="{&quot;index&quot;:null}" fill="url(#color-17)"/><path d="M351.7804,176.57056c0,-8.83102 9.90105,-15.98998 22.11461,-15.98998c12.21356,0 22.11461,7.15896 22.11461,15.98998c0,8.83102 -9.90105,15.98998 -22.11461,15.98998c-12.21356,0 -22.11461,-7.15896 -22.11461,-15.98998z" fill="url(#color-18)"/><path d="M335.67803,188.26379c0,-8.83102 9.90105,-15.98998 22.11461,-15.98998c12.21356,0 22.11461,7.15896 22.11461,15.98998c0,8.83102 -9.90105,15.98998 -22.11461,15.98998c-12.21356,0 -22.11461,-7.15896 -22.11461,-15.98998z" fill="url(#color-19)"/><path d="M313.30201,163.86928c0,-8.83102 9.90105,-15.98998 22.11461,-15.98998c12.21356,0 22.11461,7.15896 22.11461,15.98998c0,8.83102 -9.90105,15.98998 -22.11461,15.98998c-12.21356,0 -22.11461,-7.15896 -22.11461,-15.98998z" data-paper-data="{&quot;index&quot;:null}" fill="url(#color-20)"/><path d="M334.91125,184.93727c0,-8.83102 9.90105,-15.98998 22.11461,-15.98998c12.21356,0 22.11461,7.15896 22.11461,15.98998c0,8.83102 -9.90105,15.98998 -22.11461,15.98998c-12.21356,0 -22.11461,-7.15896 -22.11461,-15.98998z" data-paper-data="{&quot;index&quot;:null}" fill="url(#color-21)"/><path d="M297.96639,185.8445c0,-8.83102 9.90105,-15.98998 22.11461,-15.98998c12.21356,0 22.11461,7.15896 22.11461,15.98998c0,8.83102 -9.90105,15.98998 -22.11461,15.98998c-12.21356,0 -22.11461,-7.15896 -22.11461,-15.98998z" data-paper-data="{&quot;index&quot;:null}" fill="url(#color-22)"/><path d="M296.154,167.90143c0,-8.83102 9.90105,-15.98998 22.11461,-15.98998c12.21356,0 22.11461,7.15896 22.11461,15.98998c0,8.83102 -9.90105,15.98998 -22.11461,15.98998c-12.21356,0 -22.11461,-7.15896 -22.11461,-15.98998z" data-paper-data="{&quot;index&quot;:null}" fill="url(#color-23)"/><path d="M320.27272,174.9577c0,-8.83102 9.90105,-15.98998 22.11461,-15.98998c12.21356,0 22.11461,7.15896 22.11461,15.98998c0,8.83102 -9.90105,15.98998 -22.11461,15.98998c-12.21356,0 -22.11461,-7.15896 -22.11461,-15.98998z" data-paper-data="{&quot;index&quot;:null}" fill="url(#color-24)"/></g><g><path d="M471.80285,126.9504c0,-6.95555 6.3092,-12.59414 14.09198,-12.59414c7.78278,0 14.09197,5.63859 14.09197,12.59414c0,6.95555 -6.30919,12.59414 -14.09197,12.59414c-7.78278,0 -14.09198,-5.63859 -14.09198,-12.59414z" fill="url(#color-25)"/><path d="M443.33017,127.94286c0,-6.95555 6.30919,-12.59414 14.09198,-12.59414c7.78278,0 14.09198,5.63859 14.09198,12.59414c0,6.95555 -6.30919,12.59413 -14.09198,12.59413c-7.78278,0 -14.09198,-5.63859 -14.09198,-12.59413z" fill="url(#color-26)"/><path d="M456.07846,120.99573c0,-6.95555 6.3092,-12.59413 14.09198,-12.59413c7.78278,0 14.09197,5.63859 14.09197,12.59413c0,6.95555 -6.30919,12.59414 -14.09197,12.59414c-7.78278,0 -14.09198,-5.63859 -14.09198,-12.59414z" fill="url(#color-27)"/><path d="M434.97937,133.22267c0,-6.95555 6.30919,-12.59414 14.09198,-12.59414c7.78278,0 14.09198,5.63859 14.09198,12.59414c0,6.95555 -6.3092,12.59414 -14.09198,12.59414c-7.78278,0 -14.09198,-5.63859 -14.09198,-12.59414z" fill="url(#color-28)"/><path d="M474.64566,133.50056c0,-6.95555 6.3092,-12.59414 14.09198,-12.59414c7.78278,0 14.09198,5.63859 14.09198,12.59414c0,6.95555 -6.30919,12.59414 -14.09198,12.59414c-7.78278,0 -14.09198,-5.63859 -14.09198,-12.59414z" fill="url(#color-29)"/><path d="M472.11379,136.87487c0,-6.95555 6.30919,-12.59414 14.09198,-12.59414c7.78278,0 14.09198,5.63859 14.09198,12.59414c0,6.95555 -6.3092,12.59414 -14.09198,12.59414c-7.78278,0 -14.09198,-5.63859 -14.09198,-12.59414z" data-paper-data="{&quot;index&quot;:null}" fill="url(#color-30)"/><path d="M439.82104,139.33614c0,-6.95555 6.30919,-12.59414 14.09198,-12.59414c7.78278,0 14.09198,5.63859 14.09198,12.59414c0,6.95555 -6.3092,12.59414 -14.09198,12.59414c-7.78278,0 -14.09198,-5.63859 -14.09198,-12.59414z" data-paper-data="{&quot;index&quot;:null}" fill="url(#color-31)"/><path d="M462.56367,123.21881c0,-6.95555 6.30919,-12.59414 14.09198,-12.59414c7.78278,0 14.09198,5.63859 14.09198,12.59414c0,6.95555 -6.3092,12.59414 -14.09198,12.59414c-7.78278,0 -14.09198,-5.63859 -14.09198,-12.59414z" fill="url(#color-32)"/><path d="M457.89965,142.67076c0,-6.95555 6.3092,-12.59414 14.09198,-12.59414c7.78278,0 14.09198,5.63859 14.09198,12.59414c0,6.95555 -6.30919,12.59414 -14.09198,12.59414c-7.78278,0 -14.09198,-5.63859 -14.09198,-12.59414z" fill="url(#color-33)"/><path d="M455.54542,137.78792c0,-6.95555 6.3092,-12.59414 14.09198,-12.59414c7.78278,0 14.09197,5.63859 14.09197,12.59414c0,6.95555 -6.30919,12.59414 -14.09197,12.59414c-7.78278,0 -14.09198,-5.63859 -14.09198,-12.59414z" fill="url(#color-34)"/><path d="M457.94406,132.42872c0,-6.95555 6.3092,-12.59414 14.09198,-12.59414c7.78278,0 14.09198,5.63859 14.09198,12.59414c0,6.95555 -6.30919,12.59414 -14.09198,12.59414c-7.78278,0 -14.09198,-5.63859 -14.09198,-12.59414z" fill="url(#color-35)"/><path d="M468.16049,128.41922c0,-6.95555 6.30919,-12.59414 14.09198,-12.59414c7.78278,0 14.09198,5.63859 14.09198,12.59414c0,6.95555 -6.3092,12.59414 -14.09198,12.59414c-7.78278,0 -14.09198,-5.63859 -14.09198,-12.59414z" fill="url(#color-36)"/><path d="M444.88484,133.85784c0,-6.95555 6.30919,-12.59414 14.09198,-12.59414c7.78278,0 14.09198,5.63859 14.09198,12.59414c0,6.95555 -6.3092,12.59413 -14.09198,12.59413c-7.78278,0 -14.09198,-5.63859 -14.09198,-12.59413z" fill="url(#color-37)"/><path d="M450.21514,122.70275c0,-6.95555 6.3092,-12.59414 14.09198,-12.59414c7.78278,0 14.09198,5.63859 14.09198,12.59414c0,6.95555 -6.30919,12.59414 -14.09198,12.59414c-7.78278,0 -14.09198,-5.63859 -14.09198,-12.59414z" fill="url(#color-38)"/><path d="M450.92584,141.36073c0,-6.95555 6.3092,-12.59413 14.09198,-12.59413c7.78278,0 14.09198,5.63859 14.09198,12.59413c0,6.95555 -6.30919,12.59414 -14.09198,12.59414c-7.78278,0 -14.09198,-5.63859 -14.09198,-12.59414z" data-paper-data="{&quot;index&quot;:null}" fill="url(#color-39)"/><path d="M456.78916,144.02049c0,-6.95555 6.30919,-12.59414 14.09198,-12.59414c7.78278,0 14.09198,5.63859 14.09198,12.59414c0,6.95555 -6.3092,12.59414 -14.09198,12.59414c-7.78278,0 -14.09198,-5.63859 -14.09198,-12.59414z" data-paper-data="{&quot;index&quot;:null}" fill="url(#color-40)"/><path d="M438.71058,133.30207c0,-6.95555 6.3092,-12.59413 14.09198,-12.59413c7.78278,0 14.09197,5.63859 14.09197,12.59413c0,6.95555 -6.30919,12.59414 -14.09197,12.59414c-7.78278,0 -14.09198,-5.63859 -14.09198,-12.59414z" data-paper-data="{&quot;index&quot;:null}" fill="url(#color-41)"/><path d="M478.82108,133.73874c0,-6.95555 6.30919,-12.59414 14.09198,-12.59414c7.78278,0 14.09198,5.63859 14.09198,12.59414c0,6.95555 -6.30919,12.59414 -14.09198,12.59414c-7.78278,0 -14.09198,-5.63859 -14.09198,-12.59414z" fill="url(#color-42)"/><path d="M468.56026,142.94864c0,-6.95555 6.30919,-12.59414 14.09198,-12.59414c7.78278,0 14.09198,5.63859 14.09198,12.59414c0,6.95555 -6.30919,12.59413 -14.09198,12.59413c-7.78278,0 -14.09198,-5.63859 -14.09198,-12.59413z" fill="url(#color-43)"/><path d="M454.3017,123.73487c0,-6.95555 6.3092,-12.59413 14.09198,-12.59413c7.78278,0 14.09197,5.63859 14.09197,12.59413c0,6.95555 -6.30919,12.59414 -14.09197,12.59414c-7.78278,0 -14.09198,-5.63859 -14.09198,-12.59414z" data-paper-data="{&quot;index&quot;:null}" fill="url(#color-44)"/><path d="M468.07165,140.32858c0,-6.95555 6.30919,-12.59414 14.09198,-12.59414c7.78278,0 14.09198,5.63859 14.09198,12.59414c0,6.95555 -6.30919,12.59414 -14.09198,12.59414c-7.78278,0 -14.09198,-5.63859 -14.09198,-12.59414z" data-paper-data="{&quot;index&quot;:null}" fill="url(#color-45)"/><path d="M444.52947,141.04314c0,-6.95555 6.30919,-12.59414 14.09197,-12.59414c7.78278,0 14.09198,5.63859 14.09198,12.59414c0,6.95555 -6.3092,12.59414 -14.09198,12.59414c-7.78278,0 -14.09197,-5.63859 -14.09197,-12.59414z" data-paper-data="{&quot;index&quot;:null}" fill="url(#color-46)"/><path d="M443.37457,126.9107c0,-6.95555 6.30919,-12.59414 14.09198,-12.59414c7.78278,0 14.09198,5.63859 14.09198,12.59414c0,6.95555 -6.30919,12.59414 -14.09198,12.59414c-7.78278,0 -14.09198,-5.63859 -14.09198,-12.59414z" data-paper-data="{&quot;index&quot;:null}" fill="url(#color-47)"/><path d="M458.74362,132.46841c0,-6.95555 6.3092,-12.59414 14.09198,-12.59414c7.78278,0 14.09198,5.63859 14.09198,12.59414c0,6.95555 -6.30919,12.59413 -14.09198,12.59413c-7.78278,0 -14.09198,-5.63859 -14.09198,-12.59413z" data-paper-data="{&quot;index&quot;:null}" fill="url(#color-48)"/></g><g><path d="M509.80286,145.9504c0,-6.95555 6.3092,-12.59414 14.09198,-12.59414c7.78278,0 14.09197,5.63859 14.09197,12.59414c0,6.95555 -6.30919,12.59413 -14.09197,12.59413c-7.78278,0 -14.09198,-5.63859 -14.09198,-12.59413z" fill="url(#color-49)"/><path d="M481.33017,146.94287c0,-6.95555 6.30919,-12.59414 14.09197,-12.59414c7.78278,0 14.09197,5.6386 14.09197,12.59414c0,6.95555 -6.30919,12.59413 -14.09197,12.59413c-7.78278,0 -14.09197,-5.63859 -14.09197,-12.59413z" fill="url(#color-50)"/><path d="M494.07846,139.99574c0,-6.95555 6.3092,-12.59413 14.09198,-12.59413c7.78278,0 14.09197,5.63859 14.09197,12.59413c0,6.95555 -6.30919,12.59414 -14.09197,12.59414c-7.78278,0 -14.09198,-5.63859 -14.09198,-12.59414z" fill="url(#color-51)"/><path d="M472.97937,152.22268c0,-6.95555 6.3092,-12.59414 14.09198,-12.59414c7.78278,0 14.09198,5.63859 14.09198,12.59414c0,6.95555 -6.3092,12.59413 -14.09198,12.59413c-7.78278,0 -14.09198,-5.63859 -14.09198,-12.59413z" fill="url(#color-52)"/><path d="M512.64567,152.50056c0,-6.95555 6.30919,-12.59414 14.09197,-12.59414c7.78278,0 14.09197,5.63859 14.09197,12.59414c0,6.95555 -6.30919,12.59414 -14.09197,12.59414c-7.78278,0 -14.09197,-5.63859 -14.09197,-12.59414z" fill="url(#color-53)"/><path d="M510.11379,155.87487c0,-6.95555 6.3092,-12.59413 14.09198,-12.59413c7.78278,0 14.09197,5.63859 14.09197,12.59413c0,6.95555 -6.30919,12.59414 -14.09197,12.59414c-7.78278,0 -14.09198,-5.63859 -14.09198,-12.59414z" data-paper-data="{&quot;index&quot;:null}" fill="url(#color-54)"/><path d="M477.82105,158.33614c0,-6.95555 6.30919,-12.59414 14.09197,-12.59414c7.78278,0 14.09198,5.63859 14.09198,12.59414c0,6.95555 -6.3092,12.59413 -14.09198,12.59413c-7.78278,0 -14.09197,-5.63859 -14.09197,-12.59413z" data-paper-data="{&quot;index&quot;:null}" fill="url(#color-55)"/><path d="M500.56368,142.21881c0,-6.95555 6.3092,-12.59413 14.09198,-12.59413c7.78278,0 14.09197,5.63859 14.09197,12.59413c0,6.95555 -6.30919,12.59414 -14.09197,12.59414c-7.78278,0 -14.09198,-5.63859 -14.09198,-12.59414z" fill="url(#color-56)"/><path d="M495.89966,161.67076c0,-6.95555 6.30919,-12.59414 14.09197,-12.59414c7.78278,0 14.09198,5.63859 14.09198,12.59414c0,6.95555 -6.3092,12.59413 -14.09198,12.59413c-7.78278,0 -14.09197,-5.63859 -14.09197,-12.59413z" fill="url(#color-57)"/><path d="M493.54543,156.78793c0,-6.95555 6.3092,-12.59414 14.09198,-12.59414c7.78278,0 14.09197,5.63859 14.09197,12.59414c0,6.95555 -6.30919,12.59413 -14.09197,12.59413c-7.78278,0 -14.09198,-5.63859 -14.09198,-12.59413z" fill="url(#color-58)"/><path d="M495.94406,151.42872c0,-6.95555 6.3092,-12.59414 14.09198,-12.59414c7.78278,0 14.09198,5.63859 14.09198,12.59414c0,6.95555 -6.3092,12.59413 -14.09198,12.59413c-7.78278,0 -14.09198,-5.63859 -14.09198,-12.59413z" fill="url(#color-59)"/><path d="M506.16049,147.41923c0,-6.95555 6.3092,-12.59414 14.09198,-12.59414c7.78278,0 14.09197,5.6386 14.09197,12.59414c0,6.95555 -6.30919,12.59414 -14.09197,12.59414c-7.78278,0 -14.09198,-5.63859 -14.09198,-12.59414z" fill="url(#color-60)"/><path d="M482.88484,152.85784c0,-6.95555 6.30919,-12.59414 14.09197,-12.59414c7.78278,0 14.09198,5.63859 14.09198,12.59414c0,6.95555 -6.3092,12.59413 -14.09198,12.59413c-7.78278,0 -14.09197,-5.63859 -14.09197,-12.59413z" fill="url(#color-61)"/><path d="M488.21514,141.70275c0,-6.95555 6.3092,-12.59413 14.09198,-12.59413c7.78278,0 14.09197,5.63858 14.09197,12.59413c0,6.95555 -6.30919,12.59414 -14.09197,12.59414c-7.78278,0 -14.09198,-5.63859 -14.09198,-12.59414z" fill="url(#color-62)"/><path d="M488.92584,160.36073c0,-6.95555 6.3092,-12.59413 14.09198,-12.59413c7.78278,0 14.09197,5.63859 14.09197,12.59413c0,6.95555 -6.30919,12.59414 -14.09197,12.59414c-7.78278,0 -14.09198,-5.6386 -14.09198,-12.59414z" data-paper-data="{&quot;index&quot;:null}" fill="url(#color-63)"/><path d="M494.78916,163.02049c0,-6.95555 6.3092,-12.59414 14.09198,-12.59414c7.78278,0 14.09198,5.63859 14.09198,12.59414c0,6.95555 -6.3092,12.59414 -14.09198,12.59414c-7.78278,0 -14.09198,-5.63859 -14.09198,-12.59414z" data-paper-data="{&quot;index&quot;:null}" fill="url(#color-64)"/><path d="M476.71058,152.30207c0,-6.95555 6.3092,-12.59413 14.09198,-12.59413c7.78278,0 14.09197,5.63859 14.09197,12.59413c0,6.95555 -6.30919,12.59414 -14.09197,12.59414c-7.78278,0 -14.09198,-5.63859 -14.09198,-12.59414z" data-paper-data="{&quot;index&quot;:null}" fill="url(#color-65)"/><path d="M516.82109,152.73874c0,-6.95555 6.30919,-12.59414 14.09197,-12.59414c7.78278,0 14.09198,5.63859 14.09198,12.59414c0,6.95555 -6.3092,12.59413 -14.09198,12.59413c-7.78278,0 -14.09197,-5.63859 -14.09197,-12.59413z" fill="url(#color-66)"/><path d="M506.56026,161.94864c0,-6.95555 6.3092,-12.59414 14.09198,-12.59414c7.78278,0 14.09198,5.63859 14.09198,12.59414c0,6.95555 -6.3092,12.59413 -14.09198,12.59413c-7.78278,0 -14.09198,-5.63859 -14.09198,-12.59413z" fill="url(#color-67)"/><path d="M492.3017,142.73487c0,-6.95555 6.3092,-12.59413 14.09198,-12.59413c7.78278,0 14.09197,5.63858 14.09197,12.59413c0,6.95555 -6.30919,12.59413 -14.09197,12.59413c-7.78278,0 -14.09198,-5.63859 -14.09198,-12.59413z" data-paper-data="{&quot;index&quot;:null}" fill="url(#color-68)"/><path d="M506.07165,159.32859c0,-6.95555 6.3092,-12.59414 14.09198,-12.59414c7.78278,0 14.09197,5.63859 14.09197,12.59414c0,6.95555 -6.30919,12.59413 -14.09197,12.59413c-7.78278,0 -14.09198,-5.63859 -14.09198,-12.59413z" data-paper-data="{&quot;index&quot;:null}" fill="url(#color-69)"/><path d="M482.52947,160.04314c0,-6.95555 6.30919,-12.59414 14.09197,-12.59414c7.78278,0 14.09198,5.63859 14.09198,12.59414c0,6.95555 -6.3092,12.59413 -14.09198,12.59413c-7.78278,0 -14.09197,-5.63859 -14.09197,-12.59413z" data-paper-data="{&quot;index&quot;:null}" fill="url(#color-70)"/><path d="M481.37458,145.9107c0,-6.95555 6.3092,-12.59413 14.09197,-12.59413c7.78278,0 14.09198,5.63859 14.09198,12.59413c0,6.95555 -6.3092,12.59414 -14.09198,12.59414c-7.78278,0 -14.09197,-5.63859 -14.09197,-12.59414z" data-paper-data="{&quot;index&quot;:null}" fill="url(#color-71)"/><path d="M496.74361,151.4684c0,-6.95555 6.3092,-12.59414 14.09198,-12.59414c7.78278,0 14.09197,5.63859 14.09197,12.59414c0,6.95555 -6.30919,12.59414 -14.09197,12.59414c-7.78278,0 -14.09198,-5.63859 -14.09198,-12.59414z" data-paper-data="{&quot;index&quot;:null}" fill="url(#color-72)"/></g></g><g><g><path d="M11.76666,159.95184c0,-8.83102 9.90105,-15.98998 22.11462,-15.98998c12.21356,0 22.11461,7.15896 22.11461,15.98998c0,8.83102 -9.90105,15.98998 -22.11461,15.98998c-12.21356,0 -22.11462,-7.15896 -22.11462,-15.98998z" fill="url(#color-73)"/><path d="M-32.91569,161.2119c0,-8.83102 9.90105,-15.98998 22.11461,-15.98998c12.21356,0 22.11461,7.15896 22.11461,15.98998c0,8.83102 -9.90105,15.98998 -22.11461,15.98998c-12.21356,0 -22.11461,-7.15896 -22.11461,-15.98998z" fill="url(#color-74)"/><path d="M-12.90972,152.39158c0,-8.83102 9.90105,-15.98998 22.11461,-15.98998c12.21356,0 22.11461,7.15896 22.11461,15.98998c0,8.83102 -9.90105,15.98998 -22.11461,15.98998c-12.21356,0 -22.11461,-7.15896 -22.11461,-15.98998z" fill="url(#color-75)"/><path d="M-46.02063,167.91535c0,-8.83102 9.90105,-15.98998 22.11461,-15.98998c12.21356,0 22.11461,7.15896 22.11461,15.98998c0,8.83102 -9.90105,15.98998 -22.11461,15.98998c-12.21356,0 -22.11461,-7.15896 -22.11461,-15.98998z" fill="url(#color-76)"/><path d="M16.22789,168.26816c0,-8.83102 9.90105,-15.98998 22.11461,-15.98998c12.21356,0 22.11461,7.15896 22.11461,15.98998c0,8.83102 -9.90105,15.98998 -22.11461,15.98998c-12.21356,0 -22.11461,-7.15896 -22.11461,-15.98998z" fill="url(#color-77)"/><path d="M12.2546,172.55231c0,-8.83102 9.90105,-15.98998 22.11461,-15.98998c12.21356,0 22.11461,7.15896 22.11461,15.98998c0,8.83102 -9.90105,15.98998 -22.11461,15.98998c-12.21356,0 -22.11461,-7.15896 -22.11461,-15.98998z" data-paper-data="{&quot;index&quot;:null}" fill="url(#color-78)"/><path d="M-38.42257,175.67723c0,-8.83102 9.90105,-15.98998 22.11461,-15.98998c12.21356,0 22.11461,7.15896 22.11461,15.98998c0,8.83102 -9.90105,15.98998 -22.11461,15.98998c-12.21356,0 -22.11461,-7.15896 -22.11461,-15.98998z" data-paper-data="{&quot;index&quot;:null}" fill="url(#color-79)"/><path d="M-2.73244,155.21407c0,-8.83102 9.90105,-15.98998 22.11461,-15.98998c12.21356,0 22.11461,7.15896 22.11461,15.98998c0,8.83102 -9.90105,15.98998 -22.11461,15.98998c-12.21356,0 -22.11461,-7.15896 -22.11461,-15.98998z" fill="url(#color-80)"/><path d="M-10.05171,179.91098c0,-8.83102 9.90105,-15.98998 22.11461,-15.98998c12.21356,0 22.11461,7.15896 22.11461,15.98998c0,8.83102 -9.90105,15.98998 -22.11461,15.98998c-12.21356,0 -22.11461,-7.15896 -22.11461,-15.98998z" fill="url(#color-81)"/><path d="M-13.74621,173.71156c0,-8.83102 9.90105,-15.98998 22.11462,-15.98998c12.21356,0 22.11461,7.15896 22.11461,15.98998c0,8.83102 -9.90105,15.98998 -22.11461,15.98998c-12.21356,0 -22.11462,-7.15896 -22.11462,-15.98998z" fill="url(#color-82)"/><path d="M-9.98203,166.90731c0,-8.83102 9.90105,-15.98998 22.11461,-15.98998c12.21356,0 22.11461,7.15896 22.11461,15.98998c0,8.83102 -9.90105,15.98998 -22.11461,15.98998c-12.21356,0 -22.11461,-7.15896 -22.11461,-15.98998z" fill="url(#color-83)"/><path d="M6.05067,161.81671c0,-8.83102 9.90105,-15.98998 22.11461,-15.98998c12.21356,0 22.11461,7.15896 22.11461,15.98998c0,8.83102 -9.90105,15.98998 -22.11461,15.98998c-12.21356,0 -22.11461,-7.15896 -22.11461,-15.98998z" fill="url(#color-84)"/><path d="M-30.47593,168.72177c0,-8.83102 9.90105,-15.98998 22.11461,-15.98998c12.21356,0 22.11461,7.15896 22.11461,15.98998c0,8.83102 -9.90105,15.98998 -22.11461,15.98998c-12.21356,0 -22.11461,-7.15896 -22.11461,-15.98998z" fill="url(#color-85)"/><path d="M-22.11105,154.55886c0,-8.83102 9.90105,-15.98998 22.11461,-15.98998c12.21356,0 22.11461,7.15896 22.11461,15.98998c0,8.83102 -9.90105,15.98998 -22.11461,15.98998c-12.21356,0 -22.11461,-7.15896 -22.11461,-15.98998z" fill="url(#color-86)"/><path d="M-20.99575,178.24772c0,-8.83102 9.90105,-15.98998 22.11462,-15.98998c12.21356,0 22.11461,7.15896 22.11461,15.98998c0,8.83102 -9.90105,15.98998 -22.11461,15.98998c-12.21356,0 -22.11462,-7.15896 -22.11462,-15.98998z" data-paper-data="{&quot;index&quot;:null}" fill="url(#color-87)"/><path d="M-11.79441,181.62464c0,-8.83102 9.90105,-15.98998 22.11461,-15.98998c12.21356,0 22.11461,7.15896 22.11461,15.98998c0,8.83102 -9.90105,15.98998 -22.11461,15.98998c-12.21356,0 -22.11461,-7.15896 -22.11461,-15.98998z" data-paper-data="{&quot;index&quot;:null}" fill="url(#color-88)"/><path d="M-40.16522,168.01615c0,-8.83102 9.90105,-15.98998 22.11461,-15.98998c12.21356,0 22.11461,7.15896 22.11461,15.98998c0,8.83102 -9.90105,15.98998 -22.11461,15.98998c-12.21356,0 -22.11461,-7.15896 -22.11461,-15.98998z" data-paper-data="{&quot;index&quot;:null}" fill="url(#color-89)"/><path d="M22.7804,168.57056c0,-8.83102 9.90105,-15.98998 22.11461,-15.98998c12.21356,0 22.11461,7.15896 22.11461,15.98998c0,8.83102 -9.90105,15.98998 -22.11461,15.98998c-12.21356,0 -22.11461,-7.15896 -22.11461,-15.98998z" fill="url(#color-90)"/><path d="M6.67803,180.26379c0,-8.83102 9.90105,-15.98998 22.11461,-15.98998c12.21356,0 22.11461,7.15896 22.11461,15.98998c0,8.83102 -9.90105,15.98998 -22.11461,15.98998c-12.21356,0 -22.11461,-7.15896 -22.11461,-15.98998z" fill="url(#color-91)"/><path d="M-15.69799,155.86928c0,-8.83102 9.90105,-15.98998 22.11461,-15.98998c12.21356,0 22.11461,7.15896 22.11461,15.98998c0,8.83102 -9.90105,15.98998 -22.11461,15.98998c-12.21356,0 -22.11461,-7.15896 -22.11461,-15.98998z" data-paper-data="{&quot;index&quot;:null}" fill="url(#color-92)"/><path d="M5.91125,176.93727c0,-8.83102 9.90105,-15.98998 22.11461,-15.98998c12.21356,0 22.11461,7.15896 22.11461,15.98998c0,8.83102 -9.90105,15.98998 -22.11461,15.98998c-12.21356,0 -22.11461,-7.15896 -22.11461,-15.98998z" data-paper-data="{&quot;index&quot;:null}" fill="url(#color-93)"/><path d="M-31.03361,177.8445c0,-8.83102 9.90105,-15.98998 22.11461,-15.98998c12.21356,0 22.11461,7.15896 22.11461,15.98998c0,8.83102 -9.90105,15.98998 -22.11461,15.98998c-12.21356,0 -22.11461,-7.15896 -22.11461,-15.98998z" data-paper-data="{&quot;index&quot;:null}" fill="url(#color-94)"/><path d="M-32.846,159.90143c0,-8.83102 9.90105,-15.98998 22.11461,-15.98998c12.21356,0 22.11461,7.15896 22.11461,15.98998c0,8.83102 -9.90105,15.98998 -22.11461,15.98998c-12.21356,0 -22.11461,-7.15896 -22.11461,-15.98998z" data-paper-data="{&quot;index&quot;:null}" fill="url(#color-95)"/><path d="M-8.72727,166.9577c0,-8.83102 9.90105,-15.98998 22.11461,-15.98998c12.21356,0 22.11461,7.15896 22.11461,15.98998c0,8.83102 -9.90105,15.98998 -22.11461,15.98998c-12.21356,0 -22.11461,-7.15896 -22.11461,-15.98998z" data-paper-data="{&quot;index&quot;:null}" fill="url(#color-96)"/></g><g><path d="M142.80285,118.9504c0,-6.95555 6.3092,-12.59414 14.09198,-12.59414c7.78278,0 14.09197,5.63859 14.09197,12.59414c0,6.95555 -6.30919,12.59414 -14.09197,12.59414c-7.78278,0 -14.09198,-5.63859 -14.09198,-12.59414z" fill="url(#color-97)"/><path d="M114.33017,119.94286c0,-6.95555 6.30919,-12.59414 14.09198,-12.59414c7.78278,0 14.09198,5.63859 14.09198,12.59414c0,6.95555 -6.30919,12.59413 -14.09198,12.59413c-7.78278,0 -14.09198,-5.63859 -14.09198,-12.59413z" fill="url(#color-98)"/><path d="M127.07846,112.99573c0,-6.95555 6.3092,-12.59413 14.09198,-12.59413c7.78278,0 14.09197,5.63859 14.09197,12.59413c0,6.95555 -6.30919,12.59414 -14.09197,12.59414c-7.78278,0 -14.09198,-5.63859 -14.09198,-12.59414z" fill="url(#color-99)"/><path d="M105.97937,125.22267c0,-6.95555 6.30919,-12.59414 14.09198,-12.59414c7.78278,0 14.09198,5.63859 14.09198,12.59414c0,6.95555 -6.3092,12.59414 -14.09198,12.59414c-7.78278,0 -14.09198,-5.63859 -14.09198,-12.59414z" fill="url(#color-100)"/><path d="M145.64566,125.50056c0,-6.95555 6.3092,-12.59414 14.09198,-12.59414c7.78278,0 14.09198,5.63859 14.09198,12.59414c0,6.95555 -6.30919,12.59414 -14.09198,12.59414c-7.78278,0 -14.09198,-5.63859 -14.09198,-12.59414z" fill="url(#color-101)"/><path d="M143.11379,128.87487c0,-6.95555 6.30919,-12.59414 14.09198,-12.59414c7.78278,0 14.09198,5.63859 14.09198,12.59414c0,6.95555 -6.3092,12.59414 -14.09198,12.59414c-7.78278,0 -14.09198,-5.63859 -14.09198,-12.59414z" data-paper-data="{&quot;index&quot;:null}" fill="url(#color-102)"/><path d="M110.82104,131.33614c0,-6.95555 6.30919,-12.59414 14.09198,-12.59414c7.78278,0 14.09198,5.63859 14.09198,12.59414c0,6.95555 -6.3092,12.59414 -14.09198,12.59414c-7.78278,0 -14.09198,-5.63859 -14.09198,-12.59414z" data-paper-data="{&quot;index&quot;:null}" fill="url(#color-103)"/><path d="M133.56366,115.21881c0,-6.95555 6.30919,-12.59414 14.09198,-12.59414c7.78278,0 14.09198,5.63859 14.09198,12.59414c0,6.95555 -6.3092,12.59414 -14.09198,12.59414c-7.78278,0 -14.09198,-5.63859 -14.09198,-12.59414z" fill="url(#color-104)"/><path d="M128.89965,134.67076c0,-6.95555 6.3092,-12.59414 14.09198,-12.59414c7.78278,0 14.09198,5.63859 14.09198,12.59414c0,6.95555 -6.30919,12.59414 -14.09198,12.59414c-7.78278,0 -14.09198,-5.63859 -14.09198,-12.59414z" fill="url(#color-105)"/><path d="M126.54542,129.78792c0,-6.95555 6.3092,-12.59414 14.09198,-12.59414c7.78278,0 14.09197,5.63859 14.09197,12.59414c0,6.95555 -6.30919,12.59414 -14.09197,12.59414c-7.78278,0 -14.09198,-5.63859 -14.09198,-12.59414z" fill="url(#color-106)"/><path d="M128.94406,124.42872c0,-6.95555 6.3092,-12.59414 14.09198,-12.59414c7.78278,0 14.09198,5.63859 14.09198,12.59414c0,6.95555 -6.30919,12.59414 -14.09198,12.59414c-7.78278,0 -14.09198,-5.63859 -14.09198,-12.59414z" fill="url(#color-107)"/><path d="M139.16049,120.41922c0,-6.95555 6.30919,-12.59414 14.09198,-12.59414c7.78278,0 14.09198,5.63859 14.09198,12.59414c0,6.95555 -6.3092,12.59414 -14.09198,12.59414c-7.78278,0 -14.09198,-5.63859 -14.09198,-12.59414z" fill="url(#color-108)"/><path d="M115.88484,125.85784c0,-6.95555 6.30919,-12.59414 14.09198,-12.59414c7.78278,0 14.09198,5.63859 14.09198,12.59414c0,6.95555 -6.3092,12.59413 -14.09198,12.59413c-7.78278,0 -14.09198,-5.63859 -14.09198,-12.59413z" fill="url(#color-109)"/><path d="M121.21514,114.70275c0,-6.95555 6.3092,-12.59414 14.09198,-12.59414c7.78278,0 14.09198,5.63859 14.09198,12.59414c0,6.95555 -6.30919,12.59414 -14.09198,12.59414c-7.78278,0 -14.09198,-5.63859 -14.09198,-12.59414z" fill="url(#color-110)"/><path d="M121.92584,133.36073c0,-6.95555 6.3092,-12.59413 14.09198,-12.59413c7.78278,0 14.09198,5.63859 14.09198,12.59413c0,6.95555 -6.30919,12.59414 -14.09198,12.59414c-7.78278,0 -14.09198,-5.63859 -14.09198,-12.59414z" data-paper-data="{&quot;index&quot;:null}" fill="url(#color-111)"/><path d="M127.78916,136.02049c0,-6.95555 6.30919,-12.59414 14.09198,-12.59414c7.78278,0 14.09198,5.63859 14.09198,12.59414c0,6.95555 -6.3092,12.59414 -14.09198,12.59414c-7.78278,0 -14.09198,-5.63859 -14.09198,-12.59414z" data-paper-data="{&quot;index&quot;:null}" fill="url(#color-112)"/><path d="M109.71058,125.30207c0,-6.95555 6.3092,-12.59413 14.09198,-12.59413c7.78278,0 14.09197,5.63859 14.09197,12.59413c0,6.95555 -6.30919,12.59414 -14.09197,12.59414c-7.78278,0 -14.09198,-5.63859 -14.09198,-12.59414z" data-paper-data="{&quot;index&quot;:null}" fill="url(#color-113)"/><path d="M149.82108,125.73874c0,-6.95555 6.30919,-12.59414 14.09198,-12.59414c7.78278,0 14.09198,5.63859 14.09198,12.59414c0,6.95555 -6.30919,12.59414 -14.09198,12.59414c-7.78278,0 -14.09198,-5.63859 -14.09198,-12.59414z" fill="url(#color-114)"/><path d="M139.56026,134.94864c0,-6.95555 6.30919,-12.59414 14.09198,-12.59414c7.78278,0 14.09198,5.63859 14.09198,12.59414c0,6.95555 -6.30919,12.59413 -14.09198,12.59413c-7.78278,0 -14.09198,-5.63859 -14.09198,-12.59413z" fill="url(#color-115)"/><path d="M125.3017,115.73487c0,-6.95555 6.3092,-12.59413 14.09198,-12.59413c7.78278,0 14.09197,5.63859 14.09197,12.59413c0,6.95555 -6.30919,12.59414 -14.09197,12.59414c-7.78278,0 -14.09198,-5.63859 -14.09198,-12.59414z" data-paper-data="{&quot;index&quot;:null}" fill="url(#color-116)"/><path d="M139.07164,132.32858c0,-6.95555 6.30919,-12.59414 14.09198,-12.59414c7.78278,0 14.09198,5.63859 14.09198,12.59414c0,6.95555 -6.30919,12.59414 -14.09198,12.59414c-7.78278,0 -14.09198,-5.63859 -14.09198,-12.59414z" data-paper-data="{&quot;index&quot;:null}" fill="url(#color-117)"/><path d="M115.52947,133.04314c0,-6.95555 6.30919,-12.59414 14.09197,-12.59414c7.78278,0 14.09198,5.63859 14.09198,12.59414c0,6.95555 -6.3092,12.59414 -14.09198,12.59414c-7.78278,0 -14.09197,-5.63859 -14.09197,-12.59414z" data-paper-data="{&quot;index&quot;:null}" fill="url(#color-118)"/><path d="M114.37457,118.9107c0,-6.95555 6.30919,-12.59414 14.09198,-12.59414c7.78278,0 14.09198,5.63859 14.09198,12.59414c0,6.95555 -6.30919,12.59414 -14.09198,12.59414c-7.78278,0 -14.09198,-5.63859 -14.09198,-12.59414z" data-paper-data="{&quot;index&quot;:null}" fill="url(#color-119)"/><path d="M129.74362,124.46841c0,-6.95555 6.3092,-12.59414 14.09198,-12.59414c7.78278,0 14.09198,5.63859 14.09198,12.59414c0,6.95555 -6.30919,12.59413 -14.09198,12.59413c-7.78278,0 -14.09198,-5.63859 -14.09198,-12.59413z" data-paper-data="{&quot;index&quot;:null}" fill="url(#color-120)"/></g><g><path d="M180.80286,137.9504c0,-6.95555 6.3092,-12.59414 14.09198,-12.59414c7.78278,0 14.09197,5.63859 14.09197,12.59414c0,6.95555 -6.30919,12.59413 -14.09197,12.59413c-7.78278,0 -14.09198,-5.63859 -14.09198,-12.59413z" fill="url(#color-121)"/><path d="M152.33017,138.94287c0,-6.95555 6.30919,-12.59414 14.09197,-12.59414c7.78278,0 14.09197,5.6386 14.09197,12.59414c0,6.95555 -6.30919,12.59413 -14.09197,12.59413c-7.78278,0 -14.09197,-5.63859 -14.09197,-12.59413z" fill="url(#color-122)"/><path d="M165.07846,131.99574c0,-6.95555 6.3092,-12.59413 14.09198,-12.59413c7.78278,0 14.09197,5.63859 14.09197,12.59413c0,6.95555 -6.30919,12.59414 -14.09197,12.59414c-7.78278,0 -14.09198,-5.63859 -14.09198,-12.59414z" fill="url(#color-123)"/><path d="M143.97937,144.22268c0,-6.95555 6.3092,-12.59414 14.09198,-12.59414c7.78278,0 14.09198,5.63859 14.09198,12.59414c0,6.95555 -6.3092,12.59413 -14.09198,12.59413c-7.78278,0 -14.09198,-5.63859 -14.09198,-12.59413z" fill="url(#color-124)"/><path d="M183.64567,144.50056c0,-6.95555 6.30919,-12.59414 14.09197,-12.59414c7.78278,0 14.09197,5.63859 14.09197,12.59414c0,6.95555 -6.30919,12.59414 -14.09197,12.59414c-7.78278,0 -14.09197,-5.63859 -14.09197,-12.59414z" fill="url(#color-125)"/><path d="M181.11379,147.87487c0,-6.95555 6.3092,-12.59413 14.09198,-12.59413c7.78278,0 14.09197,5.63859 14.09197,12.59413c0,6.95555 -6.30919,12.59414 -14.09197,12.59414c-7.78278,0 -14.09198,-5.63859 -14.09198,-12.59414z" data-paper-data="{&quot;index&quot;:null}" fill="url(#color-126)"/><path d="M148.82105,150.33614c0,-6.95555 6.30919,-12.59414 14.09197,-12.59414c7.78278,0 14.09198,5.63859 14.09198,12.59414c0,6.95555 -6.3092,12.59413 -14.09198,12.59413c-7.78278,0 -14.09197,-5.63859 -14.09197,-12.59413z" data-paper-data="{&quot;index&quot;:null}" fill="url(#color-127)"/><path d="M171.56368,134.21881c0,-6.95555 6.3092,-12.59413 14.09198,-12.59413c7.78278,0 14.09197,5.63859 14.09197,12.59413c0,6.95555 -6.30919,12.59414 -14.09197,12.59414c-7.78278,0 -14.09198,-5.63859 -14.09198,-12.59414z" fill="url(#color-128)"/><path d="M166.89966,153.67076c0,-6.95555 6.30919,-12.59414 14.09197,-12.59414c7.78278,0 14.09198,5.63859 14.09198,12.59414c0,6.95555 -6.3092,12.59413 -14.09198,12.59413c-7.78278,0 -14.09197,-5.63859 -14.09197,-12.59413z" fill="url(#color-129)"/><path d="M164.54543,148.78793c0,-6.95555 6.3092,-12.59414 14.09198,-12.59414c7.78278,0 14.09197,5.63859 14.09197,12.59414c0,6.95555 -6.30919,12.59413 -14.09197,12.59413c-7.78278,0 -14.09198,-5.63859 -14.09198,-12.59413z" fill="url(#color-130)"/><path d="M166.94406,143.42872c0,-6.95555 6.3092,-12.59414 14.09198,-12.59414c7.78278,0 14.09198,5.63859 14.09198,12.59414c0,6.95555 -6.3092,12.59413 -14.09198,12.59413c-7.78278,0 -14.09198,-5.63859 -14.09198,-12.59413z" fill="url(#color-131)"/><path d="M177.16049,139.41923c0,-6.95555 6.3092,-12.59414 14.09198,-12.59414c7.78278,0 14.09197,5.6386 14.09197,12.59414c0,6.95555 -6.30919,12.59414 -14.09197,12.59414c-7.78278,0 -14.09198,-5.63859 -14.09198,-12.59414z" fill="url(#color-132)"/><path d="M153.88484,144.85784c0,-6.95555 6.30919,-12.59414 14.09197,-12.59414c7.78278,0 14.09198,5.63859 14.09198,12.59414c0,6.95555 -6.3092,12.59413 -14.09198,12.59413c-7.78278,0 -14.09197,-5.63859 -14.09197,-12.59413z" fill="url(#color-133)"/><path d="M159.21514,133.70275c0,-6.95555 6.3092,-12.59413 14.09198,-12.59413c7.78278,0 14.09197,5.63858 14.09197,12.59413c0,6.95555 -6.30919,12.59414 -14.09197,12.59414c-7.78278,0 -14.09198,-5.63859 -14.09198,-12.59414z" fill="url(#color-134)"/><path d="M159.92584,152.36073c0,-6.95555 6.3092,-12.59413 14.09198,-12.59413c7.78278,0 14.09197,5.63859 14.09197,12.59413c0,6.95555 -6.30919,12.59414 -14.09197,12.59414c-7.78278,0 -14.09198,-5.6386 -14.09198,-12.59414z" data-paper-data="{&quot;index&quot;:null}" fill="url(#color-135)"/><path d="M165.78916,155.02049c0,-6.95555 6.3092,-12.59414 14.09198,-12.59414c7.78278,0 14.09198,5.63859 14.09198,12.59414c0,6.95555 -6.3092,12.59414 -14.09198,12.59414c-7.78278,0 -14.09198,-5.63859 -14.09198,-12.59414z" data-paper-data="{&quot;index&quot;:null}" fill="url(#color-136)"/><path d="M147.71058,144.30207c0,-6.95555 6.3092,-12.59413 14.09198,-12.59413c7.78278,0 14.09197,5.63859 14.09197,12.59413c0,6.95555 -6.30919,12.59414 -14.09197,12.59414c-7.78278,0 -14.09198,-5.63859 -14.09198,-12.59414z" data-paper-data="{&quot;index&quot;:null}" fill="url(#color-137)"/><path d="M187.82109,144.73874c0,-6.95555 6.30919,-12.59414 14.09197,-12.59414c7.78278,0 14.09198,5.63859 14.09198,12.59414c0,6.95555 -6.3092,12.59413 -14.09198,12.59413c-7.78278,0 -14.09197,-5.63859 -14.09197,-12.59413z" fill="url(#color-138)"/><path d="M177.56026,153.94864c0,-6.95555 6.3092,-12.59414 14.09198,-12.59414c7.78278,0 14.09198,5.63859 14.09198,12.59414c0,6.95555 -6.3092,12.59413 -14.09198,12.59413c-7.78278,0 -14.09198,-5.63859 -14.09198,-12.59413z" fill="url(#color-139)"/><path d="M163.3017,134.73487c0,-6.95555 6.3092,-12.59413 14.09198,-12.59413c7.78278,0 14.09197,5.63858 14.09197,12.59413c0,6.95555 -6.30919,12.59413 -14.09197,12.59413c-7.78278,0 -14.09198,-5.63859 -14.09198,-12.59413z" data-paper-data="{&quot;index&quot;:null}" fill="url(#color-140)"/><path d="M177.07165,151.32859c0,-6.95555 6.3092,-12.59414 14.09198,-12.59414c7.78278,0 14.09197,5.63859 14.09197,12.59414c0,6.95555 -6.30919,12.59413 -14.09197,12.59413c-7.78278,0 -14.09198,-5.63859 -14.09198,-12.59413z" data-paper-data="{&quot;index&quot;:null}" fill="url(#color-141)"/><path d="M153.52946,152.04314c0,-6.95555 6.30919,-12.59414 14.09197,-12.59414c7.78278,0 14.09198,5.63859 14.09198,12.59414c0,6.95555 -6.3092,12.59413 -14.09198,12.59413c-7.78278,0 -14.09197,-5.63859 -14.09197,-12.59413z" data-paper-data="{&quot;index&quot;:null}" fill="url(#color-142)"/><path d="M152.37458,137.9107c0,-6.95555 6.3092,-12.59413 14.09197,-12.59413c7.78278,0 14.09198,5.63859 14.09198,12.59413c0,6.95555 -6.3092,12.59414 -14.09198,12.59414c-7.78278,0 -14.09197,-5.63859 -14.09197,-12.59414z" data-paper-data="{&quot;index&quot;:null}" fill="url(#color-143)"/><path d="M167.74361,143.4684c0,-6.95555 6.3092,-12.59414 14.09198,-12.59414c7.78278,0 14.09197,5.63859 14.09197,12.59414c0,6.95555 -6.30919,12.59414 -14.09197,12.59414c-7.78278,0 -14.09198,-5.63859 -14.09198,-12.59414z" data-paper-data="{&quot;index&quot;:null}" fill="url(#color-144)"/></g></g></g><g stroke="none" stroke-linecap="butt"><path d="M604.89676,114.43659c0,85.53385 -71.94247,154.8726 -160.68795,154.8726c-88.74548,0 -160.68795,-69.33887 -160.68795,-154.8726c0,-85.53385 71.94248,-154.87259 160.68796,-154.87259c88.74548,0 160.68795,69.33886 160.68795,154.8726z" fill="url(#color-145)" stroke-width="0"/><g fill="none" stroke-width="1" font-family="sans-serif" font-weight="normal" font-size="12" text-anchor="start"/><g data-paper-data="{&quot;origRot&quot;:0}" fill="none" stroke-width="1" font-family="sans-serif" font-weight="normal" font-size="12" text-anchor="start"/><g data-paper-data="{&quot;origRot&quot;:0,&quot;index&quot;:null}" fill="none" stroke-width="1" font-family="sans-serif" font-weight="normal" font-size="12" text-anchor="start"/></g><path d="M418.03247,113.34403c0,-13.11676 11.13962,-23.75 24.88102,-23.75c13.74141,0 24.88102,10.63324 24.88102,23.75c0,13.11676 -11.13962,23.75 -24.88102,23.75c-13.74141,0 -24.88102,-10.63324 -24.88102,-23.75z" fill="url(#color-146)" stroke="#d4d014" stroke-width="3.5" stroke-linecap="butt"/><g stroke-width="4" stroke-linecap="butt"><path d="M408.50001,100.71667l191,286l-85.23653,1.20732c-2.66867,-11.12741 -12.30695,-18.58071 -24.26348,-18.63471c-27.52725,-0.12433 -55.06743,-0.8253 -82.58258,0c-3.39203,0 -6.62628,0.67555 -9.57555,1.89944c-2.94706,-1.20939 -6.27558,-1.89441 -9.94397,-1.89944c-42.90344,-0.05887 -85.80783,-0.25371 -128.71188,-0.36043z" fill="url(#color-147)" stroke="#372c1c"/><path d="M408.50001,101.71667l59.31435,88.81626c-2.71731,-0.00486 -21.13406,-6.20468 -21.13406,-6.20468l-9.47761,9.2491l-13.28892,-10.7639l-20.12139,16.62901l-18.11313,-21.8289c0,0 -19.4905,13.07224 -26.73569,13.12117z" fill="url(#color-148)" stroke="#354548"/></g><path d="" fill="#4cff00" stroke="none" stroke-width="0.5" stroke-linecap="butt"/><path d="" fill="url(#color-149)" stroke="#4b5b5e" stroke-width="4" stroke-linecap="butt"/><path d="" fill="url(#color-150)" stroke="#4b5b5e" stroke-width="4" stroke-linecap="butt"/><path d="" fill="url(#color-151)" stroke="#4b5b5e" stroke-width="4" stroke-linecap="butt"/><path d="" fill="url(#color-152)" stroke="#4b5b5e" stroke-width="4" stroke-linecap="butt"/><path d="" fill="url(#color-153)" stroke="#4b5b5e" stroke-width="4" stroke-linecap="butt"/><g stroke-width="4" stroke-linecap="butt"><path d="M-75.49999,395.71667l162,-291l176.4558,264.22178c-51.94743,-0.13523 -103.89442,-0.15088 -155.8387,0.35083c-3.68775,0.03562 -7.61707,0.97747 -11.21573,2.65096c-3.93896,1.83174 -7.48177,4.54003 -9.87802,7.89591c-1.17857,1.65055 -1.8293,3.5509 -2.27397,5.54877c-0.96406,2.52852 -1.52952,5.2538 -1.61956,8.09903z" fill="url(#color-154)" stroke="#372c1c"/><path d="M86.5,105.71667l59.31435,88.81626c-2.7173,-0.00487 -21.13406,-6.20468 -21.13406,-6.20468l-9.4776,9.24911l-13.28892,-10.7639l-20.12139,16.62901l-18.11313,-21.8289c0,0 -19.4905,13.07224 -26.73569,13.12117z" fill="url(#color-155)" stroke="#354548"/></g><path d="M387.8979,369.28928c-85.6214,-0.11748 -171.24659,-0.77652 -256.86536,-0.19587l125.46746,-225.37674l150.64561,225.57406c-3.29301,0.03508 -6.43335,0.70683 -9.30374,1.89799c-2.94706,-1.20939 -6.27558,-1.89441 -9.94397,-1.89944z" fill="url(#color-156)" stroke="#372c1c" stroke-width="4" stroke-linecap="butt"/><path d="M256.50001,144.71667l59.31435,88.81626c-2.71731,-0.00486 -21.13406,-6.20468 -21.13406,-6.20468l-9.47761,9.2491l-13.28892,-10.7639l-20.12139,16.62901l-18.11313,-21.8289c0,0 -19.4905,13.07224 -26.73569,13.12117z" fill="url(#color-157)" stroke="#354548" stroke-width="4" stroke-linecap="butt"/><path d="M135.53732,429.67569z" fill="#674100" stroke="#352100" stroke-width="4.5" stroke-linecap="butt"/><g fill="none" stroke="none" stroke-width="1" stroke-linecap="butt" font-family="sans-serif" font-weight="normal" font-size="12" text-anchor="start"><g/><g><g/><g/></g><g/><g><g/><g/></g><g/></g><path d="M-60.60931,40.51503h574.73215v355.90036c-1.39633,-0.02689 -2.79258,-0.05964 -4.18874,-0.09909c-105.48342,-2.98009 -210.93452,-7.01161 -316.40247,-10.49676c-84.43386,-2.79009 -169.60056,-1.09359 -254.14094,-0.14717z" fill="url(#color-158)" stroke="none" stroke-width="0" stroke-linecap="butt"/><path d="" fill="#9966ff" stroke="none" stroke-width="NaN" stroke-linecap="butt"/><path d="M-66.35027,371.52564c17.25465,-15.57995 40.435,-43.45177 71.53093,-53.28595c34.80051,-25.66211 209.73645,23.15655 229.8252,25.53108c69.03732,8.16033 127.7358,-40.4572 189.87667,-30.58938c51.79125,8.22432 86.30812,42.30487 105.40673,70.77639c-203.12929,-0.14714 -406.25849,-0.18482 -609.38697,0.29852c3.84136,-4.25952 8.07736,-8.51385 12.74745,-12.73066z" fill="url(#color-159)" stroke="#485b5b" stroke-width="4" stroke-linecap="butt"/><g stroke-width="4" stroke-linecap="round"><path d="M50.97425,298.93446l-0.1394,12.49923" fill="none" stroke="#c16a00"/><path d="M45.17999,302.8701l5.75914,-6.68619l6.23176,7.56996z" fill="#00a01f" stroke="#00a01f"/><path d="M46.75072,296.53722l4.51257,-5.35001l4.88015,6.0548z" fill="#00a01f" stroke="#00a01f"/><path d="M49.57226,290.13744l2.11227,-2.50426l2.28433,2.83416z" fill="#00a01f" stroke="#00a01f"/></g><g stroke-width="4" stroke-linecap="round"><path d="M73.24129,300.36836l0.21502,12.49815" fill="none" stroke="#c16a00"/><path d="M67.56096,304.46667l5.56726,-6.84678l6.44387,7.39025z" fill="#00a01f" stroke="#00a01f"/><path d="M68.95149,298.09181l4.35909,-5.47579l5.04985,5.91401z" fill="#00a01f" stroke="#00a01f"/><path d="M71.59046,291.6146l2.04042,-2.56313l2.36376,2.76826z" fill="#00a01f" stroke="#00a01f"/></g><g stroke-width="4" stroke-linecap="round"><path d="M96.05736,314.98213l0.87739,-12.46918" fill="none" stroke="#c16a00"/><path d="M90.91815,306.09949l6.14399,-6.33437l5.77378,7.92481z" fill="#00a01f" stroke="#00a01f"/><path d="M92.86017,299.87044l4.82068,-5.07414l4.51402,6.33247z" fill="#00a01f" stroke="#00a01f"/><path d="M96.05478,293.64847l2.25649,-2.37513l2.11294,2.96413z" fill="#00a01f" stroke="#00a01f"/></g><g stroke-width="4" stroke-linecap="round"><path d="M29.3764,310.91791l-0.95375,-12.46357" fill="none" stroke="#c16a00"/><path d="M22.99461,302.88141l5.15263,-7.16402l6.86962,6.99624z" fill="#00a01f" stroke="#00a01f"/><path d="M24.00574,296.43548l4.02764,-5.724l5.39074,5.60503z" fill="#00a01f" stroke="#00a01f"/><path d="M26.25705,289.81355l1.88528,-2.67932l2.52332,2.62363z" fill="#00a01f" stroke="#00a01f"/></g><g stroke-width="4" stroke-linecap="round"><path d="M224.04501,327.6623l-1.81555,12.36745" fill="none" stroke="#c16a00"/><path d="M217.775,330.78473l6.60432,-5.85282l5.15949,8.3378z" fill="#00a01f" stroke="#00a01f"/><path d="M220.1814,324.71993l5.18973,-4.69601l4.02345,6.65495z" fill="#00a01f" stroke="#00a01f"/><path d="M223.83628,318.75669l2.42924,-2.19813l1.88331,3.11508z" fill="#00a01f" stroke="#00a01f"/></g><g stroke-width="4" stroke-linecap="round"><path d="M243.22424,329.87396l-0.46442,12.49137" fill="none" stroke="#c16a00"/><path d="M237.32959,333.65756l5.93107,-6.53415l6.03278,7.72948z" fill="#00a01f" stroke="#00a01f"/><path d="M239.06448,327.36767l4.65018,-5.23084l4.72104,6.17967z" fill="#00a01f" stroke="#00a01f"/><path d="M242.05151,321.04344l2.17668,-2.44848l2.20985,2.89261z" fill="#00a01f" stroke="#00a01f"/></g><g stroke-width="4" stroke-linecap="round"><path d="M262.8386,329.90971l2.38963,12.26946" fill="none" stroke="#c16a00"/><path d="M257.95934,334.93516l4.28897,-7.71215l7.63309,6.15429z" fill="#00a01f" stroke="#00a01f"/><path d="M258.21774,328.41552l3.33819,-6.15161l6.00315,4.94356z" fill="#00a01f" stroke="#00a01f"/><path d="M259.68764,321.57756l1.56255,-2.87948l2.80998,2.314z" fill="#00a01f" stroke="#00a01f"/></g><g stroke-width="4" stroke-linecap="round"><path d="M287.39958,339.58481l-3.08953,-12.11218" fill="none" stroke="#c16a00"/><path d="M279.7271,332.76971l3.8395,-7.94549l7.97355,5.70629z" fill="#00a01f" stroke="#00a01f"/><path d="M279.61108,326.24598l2.97981,-6.33298l6.27684,4.59104z" fill="#00a01f" stroke="#00a01f"/><path d="M280.68629,319.33496l1.3948,-2.96437l2.93809,2.14899z" fill="#00a01f" stroke="#00a01f"/></g><g stroke-width="4" stroke-linecap="round"><path d="M409.64582,299.55194l-0.03075,12.49997" fill="none" stroke="#c16a00"/><path d="M403.88601,303.53778l5.70079,-6.73599l6.29732,7.51552z" fill="#00a01f" stroke="#00a01f"/><path d="M405.40162,297.19149l4.4659,-5.38903l4.93259,6.01216z" fill="#00a01f" stroke="#00a01f"/><path d="M408.16744,290.76742l2.09042,-2.52251l2.30886,2.8142z" fill="#00a01f" stroke="#00a01f"/></g><g stroke-width="4" stroke-linecap="round"><path d="M432.99706,302.0438l-2.10288,12.32185" fill="none" stroke="#c16a00"/><path d="M426.6561,305.01947l6.73873,-5.69754l4.96406,8.45561z" fill="#00a01f" stroke="#00a01f"/><path d="M429.20297,299.01232l5.29761,-4.57397l3.86748,6.74678z" fill="#00a01f" stroke="#00a01f"/><path d="M432.99565,293.13575l2.47973,-2.141l1.8103,3.15806z" fill="#00a01f" stroke="#00a01f"/></g><g data-paper-data="{&quot;index&quot;:null}" stroke-width="4" stroke-linecap="round"><path d="M455.53777,308.18532l-4.85875,11.51705" fill="none" stroke="#c16a00"/><path d="M447.93292,310.13243l8.7344,-4.45529l2.6135,8.42865z" fill="#00a01f" stroke="#00a01f"/><path d="M451.47297,304.57113l6.89053,-3.60514l2.00351,6.70611z" fill="#00a01f" stroke="#00a01f"/><path d="M456.16977,299.22649l3.22535,-1.68752l0.93781,3.13903z" fill="#00a01f" stroke="#00a01f"/></g><path d="M-89.57958,319.21421h684.68468v75.55673c-228.22834,-0.1932 -456.45765,-0.74171 -684.68468,-0.08566z" fill="url(#color-160)" stroke="none" stroke-width="NaN" stroke-linecap="butt"/></g></g></svg>