<svg version="1.1" xmlns="http://www.w3.org/2000/svg" xmlns:xlink="http://www.w3.org/1999/xlink" width="485.99999" height="350.70337" viewBox="0,0,485.99999,350.70337"><g transform="translate(1.75163,-16.93569)"><g data-paper-data="{&quot;isPaintingLayer&quot;:true}" fill-rule="nonzero" stroke-linecap="butt" stroke-linejoin="miter" stroke-miterlimit="10" stroke-dasharray="" stroke-dashoffset="0" style="mix-blend-mode: normal"><g data-paper-data="{&quot;origPos&quot;:null,&quot;index&quot;:null}" stroke="none" stroke-width="1"><path d="M159.75952,128.71463c-6.02548,-4.21195 -9.75529,-10.02867 -9.75529,-16.44774c0,-6.41908 3.72982,-12.2358 9.75529,-16.44775c6.02548,-4.21195 14.34662,-6.81914 23.52928,-6.81914c9.18266,0 17.5038,2.60719 23.52928,6.81914c6.02547,4.21195 9.75528,10.02867 9.75528,16.44775c0,6.41907 -3.7298,12.23579 -9.75528,16.44774c-6.02547,4.21195 -14.34662,6.81914 -23.52928,6.81914c-9.18266,0 -17.50381,-2.60719 -23.52928,-6.81914z" data-paper-data="{&quot;origPos&quot;:null}" fill="#ffffff"/><path d="M201.12286,139.05547c-6.02548,-4.21194 -9.75529,-10.02867 -9.75529,-16.44774c0,-6.41907 3.72982,-12.23579 9.75529,-16.44774c6.02547,-4.21195 14.34662,-6.81914 23.52928,-6.81914c9.18266,0 17.5038,2.60719 23.52928,6.81914c6.02548,4.21195 9.75529,10.02866 9.75529,16.44774c0,6.41907 -3.72981,12.23579 -9.75529,16.44774c-6.02548,4.21195 -14.34662,6.81914 -23.52928,6.81914c-9.18266,0 -17.50381,-2.60719 -23.52928,-6.81914z" data-paper-data="{&quot;origPos&quot;:null}" fill="#ffffff"/><path d="M188.66539,123.66895c-0.52674,-1.14073 -0.85248,-2.71577 -0.85248,-4.45432c0,-1.73856 0.32575,-3.31359 0.85248,-4.45432c0.52609,-1.14073 1.25317,-1.84713 2.05588,-1.84713c0.80271,0 1.5298,0.7064 2.05589,1.84713c0.52673,1.14073 0.85247,2.71577 0.85247,4.45432c0,1.73856 -0.32574,3.31359 -0.85247,4.45432c-0.52609,1.14073 -1.25318,1.84714 -2.05589,1.84714c-0.8027,0 -1.52979,-0.70641 -2.05588,-1.84714z" data-paper-data="{&quot;origPos&quot;:null}" fill="#4a4f54"/><path d="M202.23773,123.99211c-0.52673,-1.14073 -0.85247,-2.71577 -0.85247,-4.45432c0,-1.73856 0.32574,-3.31359 0.85247,-4.45432c0.52609,-1.14072 1.25318,-1.84713 2.05589,-1.84713c0.8027,0 1.52979,0.7064 2.05588,1.84713c0.52673,1.14073 0.85247,2.71577 0.85247,4.45432c0,1.73856 -0.32574,3.31359 -0.85247,4.45432c-0.52609,1.14073 -1.25317,1.84713 -2.05588,1.84713c-0.8027,0 -1.5298,-0.7064 -2.05589,-1.84713z" data-paper-data="{&quot;origPos&quot;:null}" fill="#4a4f54"/></g><g data-paper-data="{&quot;origPos&quot;:null,&quot;index&quot;:null,&quot;origRot&quot;:0}" stroke="#4bca88" stroke-width="0"><path d="M415.67189,190.34094c26.40766,-3.59559 50.89929,-1.45591 68.57647,4.86406c0,20.78174 0,41.8292 0,62.6952c-14.8705,8.45324 -34.69852,15.02915 -56.91952,18.05469c-49.8665,6.78968 -92.90078,-6.87153 -96.11976,-30.51317c-3.21898,-23.64164 34.59631,-48.3111 84.46281,-55.10078z" data-paper-data="{&quot;origPos&quot;:null}" fill="#00c7c9"/><path d="" data-paper-data="{&quot;origPos&quot;:null}" fill="#75beff"/><path d="M303.7408,204.00523c49.8665,-6.78968 92.90078,6.87153 96.11976,30.51317c3.21898,23.64164 -34.59631,48.3111 -84.46281,55.10078c-49.8665,6.78968 -92.90078,-6.87153 -96.11976,-30.51317c-3.21898,-23.64164 34.59631,-48.3111 84.46281,-55.10078z" data-paper-data="{&quot;origPos&quot;:null}" fill="#00c7c9"/></g><path d="M107.71703,295.30863c0.36156,-23.85703 41.44776,-42.57874 91.76859,-41.8161c50.32083,0.76264 90.82081,20.72082 90.45925,44.57786c-0.36157,23.85704 -41.44776,42.57875 -91.76859,41.81611c-50.32083,-0.76264 -90.82081,-20.72082 -90.45925,-44.57786z" data-paper-data="{&quot;origPos&quot;:null,&quot;index&quot;:null}" fill="#00c7c9" stroke="#4bca88" stroke-width="0"/><path d="M42.771,259.22259c50.32083,0.76264 90.82081,20.72082 90.45925,44.57786c-0.36156,23.85704 -41.44776,42.57875 -91.76859,41.81611c-15.66904,-0.23748 -30.38586,-2.33613 -43.21329,-5.83414c0,-25.25194 0,-50.50387 0,-75.7558c13.19899,-3.28952 28.386,-5.04858 44.52263,-4.80402z" data-paper-data="{&quot;origPos&quot;:null,&quot;index&quot;:null}" fill="#00c7c9" stroke="#4bca88" stroke-width="0"/><path d="M99.23084,281.22259c85.66612,0.76264 154.61324,20.72082 153.99772,44.57786c-0.61552,23.85704 -70.56062,42.57875 -156.22674,41.81611c-37.63951,-0.33508 -72.05142,-4.37586 -98.75345,-10.82486c0,-22.04074 0,-44.08149 0,-66.12223c27.26601,-6.20797 62.54146,-9.7891 100.98248,-9.44688z" data-paper-data="{&quot;origPos&quot;:null,&quot;index&quot;:null}" fill="#00c7c9" stroke="#4bca88" stroke-width="0"/><g data-paper-data="{&quot;origPos&quot;:null,&quot;index&quot;:null}" stroke="none" stroke-width="1"><path d="M324.2888,120.34084c9.18266,0 17.5038,2.60718 23.52928,6.81914c6.02548,4.21195 9.75529,10.02867 9.75529,16.44775c0,6.41907 -3.72981,12.23579 -9.75529,16.44775c-6.02548,4.21195 -14.34662,6.81914 -23.52928,6.81914c-9.18266,0 -17.5038,-2.60718 -23.52928,-6.81914c-6.02548,-4.21195 -9.75529,-10.02867 -9.75529,-16.44775c0,-6.41907 3.72981,-12.23579 9.75529,-16.44775c6.02548,-4.21195 14.34662,-6.81914 23.52928,-6.81914z" data-paper-data="{&quot;origPos&quot;:null}" fill="#ffffff"/><path d="M365.65214,110c9.18266,0 17.5038,2.60718 23.52928,6.81914c6.02548,4.21195 9.75529,10.02867 9.75529,16.44775c0,6.41907 -3.72981,12.23579 -9.75529,16.44775c-6.02548,4.21195 -14.34662,6.81914 -23.52928,6.81914c-9.18266,0 -17.5038,-2.60718 -23.52928,-6.81914c-6.02548,-4.21195 -9.75529,-10.02867 -9.75529,-16.44775c0,-6.41907 3.72981,-12.23579 9.75529,-16.44775c6.02548,-4.21195 14.34662,-6.81914 23.52928,-6.81914z" data-paper-data="{&quot;origPos&quot;:null}" fill="#ffffff"/><path d="M331.72126,130.35852c0.80271,0 1.5298,0.70641 2.05589,1.84713c0.52674,1.14072 0.85247,2.71576 0.85247,4.45432c0,1.73855 -0.32574,3.31359 -0.85247,4.45432c-0.52609,1.14072 -1.25318,1.84713 -2.05589,1.84713c-0.80271,0 -1.5298,-0.70641 -2.05589,-1.84713c-0.52674,-1.14072 -0.85247,-2.71576 -0.85247,-4.45432c0,-1.73855 0.32574,-3.31359 0.85247,-4.45432c0.52609,-1.14072 1.25318,-1.84713 2.05589,-1.84713z" data-paper-data="{&quot;origPos&quot;:null}" fill="#4a4f54"/><path d="M345.29362,130.03537c0.80271,0 1.5298,0.70641 2.05589,1.84713c0.52674,1.14072 0.85247,2.71576 0.85247,4.45432c0,1.73855 -0.32574,3.31359 -0.85247,4.45432c-0.52609,1.14072 -1.25318,1.84713 -2.05589,1.84713c-0.80271,0 -1.5298,-0.70641 -2.05589,-1.84713c-0.52674,-1.14072 -0.85247,-2.71576 -0.85247,-4.45432c0,-1.73855 0.32574,-3.31359 0.85247,-4.45432c0.52609,-1.14072 1.25318,-1.84713 2.05589,-1.84713z" data-paper-data="{&quot;origPos&quot;:null}" fill="#4a4f54"/></g><g data-paper-data="{&quot;origPos&quot;:null,&quot;index&quot;:null}" stroke="none" stroke-width="1"><path d="M443.24893,40.09566c6.02548,4.21195 9.75529,10.02867 9.75529,16.44775c0,6.41907 -3.72981,12.23579 -9.75529,16.44775c-6.02548,4.21195 -14.34662,6.81914 -23.52928,6.81914c-9.18266,0 -17.5038,-2.60718 -23.52928,-6.81914c-6.02548,-4.21195 -9.75529,-10.02867 -9.75529,-16.44775c0,-6.41907 3.72981,-12.23579 9.75529,-16.44775c6.02548,-4.21195 14.34662,-6.81914 23.52928,-6.81914c9.18266,0 17.5038,2.60718 23.52928,6.81914z" data-paper-data="{&quot;origPos&quot;:null}" fill="#ffffff"/><path d="M401.8856,29.75483c6.02548,4.21195 9.75529,10.02867 9.75529,16.44775c0,6.41907 -3.72981,12.23579 -9.75529,16.44775c-6.02548,4.21195 -14.34662,6.81914 -23.52928,6.81914c-9.18266,0 -17.5038,-2.60718 -23.52928,-6.81914c-6.02548,-4.21195 -9.75529,-10.02867 -9.75529,-16.44775c0,-6.41907 3.72981,-12.23579 9.75529,-16.44775c6.02548,-4.21195 14.34662,-6.81914 23.52928,-6.81914c9.18266,0 17.5038,2.60718 23.52928,6.81914z" data-paper-data="{&quot;origPos&quot;:null}" fill="#ffffff"/><path d="M393.0151,49.66546c0.52674,1.14072 0.85247,2.71576 0.85247,4.45432c0,1.73855 -0.32574,3.31359 -0.85247,4.45432c-0.52609,1.14072 -1.25318,1.84713 -2.05589,1.84713c-0.80271,0 -1.5298,-0.70641 -2.05589,-1.84713c-0.52674,-1.14072 -0.85247,-2.71576 -0.85247,-4.45432c0,-1.73855 0.32574,-3.31359 0.85247,-4.45432c0.52609,-1.14072 1.25318,-1.84713 2.05589,-1.84713c0.80271,0 1.5298,0.70641 2.05589,1.84713z" data-paper-data="{&quot;origPos&quot;:null}" fill="#4a4f54"/><path d="M379.44275,49.34231c0.52674,1.14072 0.85247,2.71576 0.85247,4.45432c0,1.73855 -0.32574,3.31359 -0.85247,4.45432c-0.52609,1.14072 -1.25318,1.84713 -2.05589,1.84713c-0.80271,0 -1.5298,-0.70641 -2.05589,-1.84713c-0.52674,-1.14072 -0.85247,-2.71576 -0.85247,-4.45432c0,-1.73855 0.32574,-3.31359 0.85247,-4.45432c0.52609,-1.14072 1.25318,-1.84713 2.05589,-1.84713c0.80271,0 1.5298,0.70641 2.05589,1.84713z" data-paper-data="{&quot;origPos&quot;:null}" fill="#4a4f54"/></g><g data-paper-data="{&quot;origPos&quot;:null,&quot;index&quot;:null}" stroke="none" stroke-width="1"><path d="M54.2888,58.34084c9.18266,0 17.50381,2.60719 23.52928,6.81914c6.02548,4.21195 9.75528,10.02867 9.75528,16.44774c0,6.41908 -3.72981,12.2358 -9.75528,16.44775c-6.02548,4.21195 -14.34662,6.81914 -23.52928,6.81914c-9.18266,0 -17.5038,-2.60719 -23.52928,-6.81914c-6.02547,-4.21195 -9.75529,-10.02867 -9.75529,-16.44775c0,-6.41907 3.72981,-12.23579 9.75529,-16.44774c6.02547,-4.21195 14.34662,-6.81914 23.52928,-6.81914z" data-paper-data="{&quot;origPos&quot;:null}" fill="#ffffff"/><path d="M95.65214,48c9.18266,0 17.5038,2.60719 23.52928,6.81914c6.02548,4.21195 9.75529,10.02867 9.75529,16.44774c0,6.41908 -3.72981,12.23579 -9.75529,16.44774c-6.02548,4.21195 -14.34662,6.81914 -23.52928,6.81914c-9.18266,0 -17.50381,-2.60719 -23.52928,-6.81914c-6.02547,-4.21195 -9.75529,-10.02867 -9.75529,-16.44774c0,-6.41907 3.72981,-12.2358 9.75529,-16.44774c6.02547,-4.21195 14.34662,-6.81914 23.52928,-6.81914z" data-paper-data="{&quot;origPos&quot;:null}" fill="#ffffff"/><path d="M61.72127,68.35852c0.80271,0 1.5298,0.70641 2.05589,1.84714c0.52673,1.14073 0.85247,2.71576 0.85247,4.45432c0,1.73855 -0.32574,3.31359 -0.85247,4.45432c-0.52609,1.14073 -1.25318,1.84713 -2.05589,1.84713c-0.80271,0 -1.52979,-0.7064 -2.05588,-1.84713c-0.52673,-1.14073 -0.85248,-2.71576 -0.85248,-4.45432c0,-1.73855 0.32574,-3.31359 0.85248,-4.45432c0.52609,-1.14073 1.25318,-1.84714 2.05588,-1.84714z" data-paper-data="{&quot;origPos&quot;:null}" fill="#4a4f54"/><path d="M75.29362,68.03537c0.80271,0 1.52979,0.7064 2.05588,1.84713c0.52673,1.14073 0.85247,2.71576 0.85247,4.45432c0,1.73855 -0.32574,3.31359 -0.85247,4.45432c-0.52609,1.14073 -1.25318,1.84713 -2.05588,1.84713c-0.80271,0 -1.5298,-0.70641 -2.05589,-1.84713c-0.52673,-1.14073 -0.85247,-2.71576 -0.85247,-4.45432c0,-1.73855 0.32574,-3.31359 0.85247,-4.45432c0.52609,-1.14073 1.25319,-1.84713 2.05589,-1.84713z" data-paper-data="{&quot;origPos&quot;:null}" fill="#4a4f54"/></g><g data-paper-data="{&quot;origPos&quot;:null,&quot;index&quot;:null}" stroke="none" stroke-width="1"><path d="M293.24893,34.09566c6.02548,4.21195 9.75529,10.02867 9.75529,16.44775c0,6.41908 -3.72981,12.23579 -9.75529,16.44774c-6.02547,4.21195 -14.34662,6.81914 -23.52928,6.81914c-9.18266,0 -17.5038,-2.60719 -23.52928,-6.81914c-6.02548,-4.21195 -9.75528,-10.02867 -9.75528,-16.44774c0,-6.41908 3.72981,-12.2358 9.75528,-16.44775c6.02548,-4.21195 14.34662,-6.81913 23.52928,-6.81913c9.18266,0 17.50381,2.60718 23.52928,6.81913z" data-paper-data="{&quot;origPos&quot;:null}" fill="#ffffff"/><path d="M251.8856,23.75483c6.02547,4.21195 9.75529,10.02867 9.75529,16.44774c0,6.41908 -3.72981,12.2358 -9.75529,16.44775c-6.02547,4.21195 -14.34662,6.81913 -23.52928,6.81913c-9.18266,0 -17.5038,-2.60718 -23.52928,-6.81913c-6.02548,-4.21195 -9.75529,-10.02867 -9.75529,-16.44775c0,-6.41908 3.72981,-12.23579 9.75529,-16.44774c6.02548,-4.21195 14.34662,-6.81914 23.52928,-6.81914c9.18266,0 17.50381,2.60719 23.52928,6.81914z" data-paper-data="{&quot;origPos&quot;:null}" fill="#ffffff"/><path d="M243.0151,43.66546c0.52673,1.14073 0.85247,2.71576 0.85247,4.45432c0,1.73856 -0.32574,3.31359 -0.85247,4.45431c-0.52609,1.14073 -1.25318,1.84713 -2.05588,1.84713c-0.80271,0 -1.5298,-0.70641 -2.05589,-1.84713c-0.52673,-1.14073 -0.85247,-2.71576 -0.85247,-4.45431c0,-1.73856 0.32574,-3.31359 0.85247,-4.45432c0.52609,-1.14073 1.25319,-1.84713 2.05589,-1.84713c0.80271,0 1.52979,0.7064 2.05588,1.84713z" data-paper-data="{&quot;origPos&quot;:null}" fill="#4a4f54"/><path d="M229.44276,43.34231c0.52673,1.14073 0.85247,2.71576 0.85247,4.45432c0,1.73856 -0.32574,3.31359 -0.85247,4.45431c-0.52609,1.14073 -1.25319,1.84713 -2.05589,1.84713c-0.80271,0 -1.52979,-0.70641 -2.05588,-1.84713c-0.52673,-1.14073 -0.85248,-2.71576 -0.85248,-4.45431c0,-1.73856 0.32574,-3.31359 0.85248,-4.45432c0.52609,-1.14073 1.25318,-1.84713 2.05588,-1.84713c0.80271,0 1.5298,0.70641 2.05589,1.84713z" data-paper-data="{&quot;origPos&quot;:null}" fill="#4a4f54"/></g></g></g></svg>