<svg version="1.1" xmlns="http://www.w3.org/2000/svg" xmlns:xlink="http://www.w3.org/1999/xlink" width="480" height="88.46952" viewBox="0,0,480,88.46952"><defs><linearGradient x1="369.02756" y1="289.30659" x2="369.02756" y2="297.21983" gradientUnits="userSpaceOnUse" id="color-1"><stop offset="0" stop-color="#297b40"/><stop offset="1" stop-color="#297b40" stop-opacity="0"/></linearGradient></defs><g transform="translate(0,-271.53048)"><g data-paper-data="{&quot;isPaintingLayer&quot;:true}" fill-rule="nonzero" stroke="none" stroke-linecap="butt" stroke-linejoin="miter" stroke-miterlimit="10" stroke-dasharray="" stroke-dashoffset="0" style="mix-blend-mode: normal"><g><path d="M343.97911,288.30311h49.91346v49.80178h-49.91346z" fill="#5cb745" stroke-width="1.18415"/><path d="M341.83502,271.53048c5.82435,0 45.71797,0 54.852,0c1.17227,0 2.41797,1.20688 2.41797,2.11348c0,2.06017 0,10.03251 0,13.713c0,1.12155 -1.30665,1.97831 -2.41797,1.97831c-5.16027,0 -44.04392,0 -54.852,0c-1.76363,0 -2.33734,-0.45771 -2.33734,-1.83085c0,-3.74147 0,-11.58497 0,-13.713c0,-1.15054 0.96668,-2.26093 2.33734,-2.26093z" fill="#5cb745" stroke-width="1.07722"/><path d="M344.81101,271.53048h6.23911v17.80478h-6.23911z" fill="#71ff5e" stroke-width="1.18415"/><path d="M349.1553,289.33526h6.58581v48.76962h-6.58581z" fill="#71ff5e" stroke-width="1.18415"/><path d="M343.99765,297.21983v-7.91323h50.05983v7.91323z" fill="url(#color-1)" stroke-width="0"/></g><path d="M0,337h480v23h-480z" data-paper-data="{&quot;origPos&quot;:null}" fill="#000000" stroke-width="1"/></g></g></svg>