<svg version="1.1" xmlns="http://www.w3.org/2000/svg" xmlns:xlink="http://www.w3.org/1999/xlink" width="481.3477" height="92.56457" viewBox="0,0,481.3477,92.56457"><defs><linearGradient x1="273.63295" y1="-1200.86801" x2="273.63295" y2="4308.5207" gradientUnits="userSpaceOnUse" id="color-1"><stop offset="0" stop-color="#52d7ff"/><stop offset="1" stop-color="#52d7ff" stop-opacity="0"/></linearGradient></defs><g transform="translate(0.94667,-311.13089)"><g data-paper-data="{&quot;isPaintingLayer&quot;:true}" fill-rule="nonzero" stroke-linecap="butt" stroke-linejoin="miter" stroke-miterlimit="10" stroke-dasharray="" stroke-dashoffset="0" style="mix-blend-mode: normal"><path d="M0.31766,403.69547l-0.26433,-83.08317c0,0 22.0363,3.99388 53.15999,3.95642c31.90187,-0.03841 41.79205,-11.75513 122.39788,-10.73623c89.5458,2.86428 72.54621,10.43151 130.77317,8.78663c59.12647,0.19189 66.62096,-10.15889 110.44409,-10.48825c43.82313,-0.32935 63.13059,9.18374 63.13059,9.18374l0.23705,81.21066z" data-paper-data="{&quot;origPos&quot;:null,&quot;index&quot;:null}" fill="url(#color-1)" stroke="#3e7ac6" stroke-width="0"/><path d="M0.05333,320.61229c0,0 22.0363,3.99389 53.15999,3.95642c31.90187,-0.03841 41.79205,-11.75514 122.39788,-10.73623c89.5458,2.86428 72.54621,10.43151 130.77317,8.78663c59.12647,0.19189 66.62096,-10.15889 110.44409,-10.48825c43.82313,-0.32935 63.13059,9.18374 63.13059,9.18374" data-paper-data="{&quot;origPos&quot;:null,&quot;index&quot;:null}" fill="none" stroke="#3b9bb9" stroke-width="2"/></g></g></svg>