<svg version="1.1" xmlns="http://www.w3.org/2000/svg" xmlns:xlink="http://www.w3.org/1999/xlink" width="40.98069" height="40.98982" viewBox="0,0,40.98069,40.98982"><g transform="translate(-219.5097,-159.47635)"><g data-paper-data="{&quot;isPaintingLayer&quot;:true}" fill-rule="nonzero" stroke="none" stroke-width="0" stroke-linecap="butt" stroke-linejoin="miter" stroke-miterlimit="10" stroke-dasharray="" stroke-dashoffset="0" style="mix-blend-mode: normal"><path d="M221.63522,197.92636c-1.89392,-1.96637 -2.12544,-6.26422 -2.12544,-6.26422v-23.43616c0,0 0.0283,-4.10183 2.21457,-6.42753c2.08577,-2.21879 7.19294,-2.3221 7.19294,-2.3221h22.77104c0,0 4.26759,0.15457 6.27146,2.02423c2.61533,2.44016 2.53028,5.87386 2.53028,5.87386v25.27091c0,0 -0.10478,3.4944 -2.32786,5.78707c-2.2215,2.29104 -6.17025,2.02423 -6.17025,2.02423h-24.11418c0,0 -3.8523,-0.04859 -6.24256,-2.53029z" fill-opacity="0.00784" fill="#000000"/><path d="M221.63514,182.4069c-1.89392,-0.45525 -2.12544,-1.45027 -2.12544,-1.45027v-5.42585c0,0 0.0283,-0.94964 2.21457,-1.48808c2.08577,-0.51368 7.19294,-0.5376 7.19294,-0.5376h22.77104c0,0 4.26759,0.03578 6.27146,0.46864c2.61533,0.56493 2.53028,1.35989 2.53028,1.35989v5.85063c0,0 -0.10478,0.80901 -2.32786,1.3398c-2.2215,0.53041 -6.17025,0.46864 -6.17025,0.46864h-24.11418c0,0 -3.8523,-0.01125 -6.24256,-0.58581z" fill="#ffdb29"/><path d="M221.63514,185.9069c-1.89392,-0.45525 -2.12544,-1.45027 -2.12544,-1.45027v-5.42585c0,0 0.0283,-0.94964 2.21457,-1.48808c2.08577,-0.51368 7.19294,-0.5376 7.19294,-0.5376h22.77104c0,0 4.26759,0.03578 6.27146,0.46864c2.61533,0.56493 2.53028,1.35989 2.53028,1.35989v5.85063c0,0 -0.10478,0.80901 -2.32786,1.3398c-2.2215,0.53041 -6.17025,0.46864 -6.17025,0.46864h-24.11418c0,0 -3.8523,-0.01125 -6.24256,-0.58581z" fill="#e19a00"/><path d="M245.57181,179.5644c1.5935,0 2.11747,0.44607 2.11747,1.4938c0,1.01061 -0.66531,1.4938 -2.11747,1.4938c-1.45215,0 -2.11748,-0.52033 -2.11748,-1.4938c0,-1.04774 0.52398,-1.4938 2.11748,-1.4938z" fill="#8a6401"/><path d="M234.42811,179.57218c1.5935,0 2.11746,0.44608 2.11746,1.4938c0,1.01061 -0.66531,1.4938 -2.11746,1.4938c-1.45216,0 -2.11748,-0.52033 -2.11748,-1.4938c0,-1.04774 0.52398,-1.4938 2.11748,-1.4938z" fill="#8a6401"/></g></g></svg>