<svg version="1.1" xmlns="http://www.w3.org/2000/svg" xmlns:xlink="http://www.w3.org/1999/xlink" width="504.24844" height="385.21843" viewBox="0,0,504.24844,385.21843"><defs><radialGradient cx="-0.24024" cy="182.41958" r="180.93093" gradientUnits="userSpaceOnUse" id="color-1"><stop offset="0" stop-color="#ececec"/><stop offset="1" stop-color="#616161"/></radialGradient><linearGradient x1="-17.88288" y1="182.41958" x2="17.40241" y2="182.41958" gradientUnits="userSpaceOnUse" id="color-2"><stop offset="0" stop-color="#ececec" stop-opacity="0"/><stop offset="1" stop-color="#ececec"/></linearGradient></defs><g transform="translate(17.88288,0.93081)"><g data-paper-data="{&quot;isPaintingLayer&quot;:true}" fill-rule="nonzero" stroke="none" stroke-linecap="butt" stroke-linejoin="miter" stroke-miterlimit="10" stroke-dasharray="" stroke-dashoffset="0" style="mix-blend-mode: normal"><path d="M484.99399,236.00003h-143.51652l53,-26h90.51652z" fill="#cc1919" stroke-width="1"/><path d="M198.0494,134.00001h80.9736l44.974,26h-169z" data-paper-data="{&quot;index&quot;:null}" fill="#cc1919" stroke-width="1.17703"/><path d="M9.52252,210.00003h74l53,26h-127z" fill="#cc1919" stroke-width="1"/><path d="M476.4925,365.1343h-473.48648v-30.1398h473.48649z" data-paper-data="{&quot;origPos&quot;:null,&quot;index&quot;:null}" fill="#ececec" stroke-width="1"/><path d="M430.79668,384.28761v-49.0987h42.29294v49.0987z" data-paper-data="{&quot;origPos&quot;:null,&quot;index&quot;:null}" fill="#616161" stroke-width="0"/><path d="M346.21371,384.0932v-49.0987h42.29294v49.0987z" data-paper-data="{&quot;origPos&quot;:null,&quot;index&quot;:null}" fill="#616161" stroke-width="0"/><path d="M90.51156,384.0932v-49.0987h42.29294v49.0987z" data-paper-data="{&quot;origPos&quot;:null,&quot;index&quot;:null}" fill="#616161" stroke-width="0"/><path d="M6.89502,384.0932v-49.0987h42.29294v49.0987z" data-paper-data="{&quot;origPos&quot;:null,&quot;index&quot;:null}" fill="#616161" stroke-width="0"/><path d="M461.85317,361.74388l-31.25094,-26.74938h55.76333v28.1953z" data-paper-data="{&quot;origPos&quot;:null,&quot;index&quot;:null}" fill="#cc1919" stroke-width="0"/><path d="M4.85183,363.1898v-28.1953h42.77907l-30.55648,26.74938z" data-paper-data="{&quot;origPos&quot;:null,&quot;index&quot;:null}" fill="#cc1919" stroke-width="0"/><path d="M261.1417,383.89874v-49.0987h42.29294v49.0987z" data-paper-data="{&quot;origPos&quot;:null,&quot;index&quot;:null}" fill="#616161" stroke-width="0"/><path d="M176.55582,384.0932v-49.0987h42.29294v49.0987z" data-paper-data="{&quot;origPos&quot;:null,&quot;index&quot;:null}" fill="#616161" stroke-width="0"/><g data-paper-data="{&quot;index&quot;:null}" stroke-width="0"><path d="M-17.88288,365.76998v-366.70079h35.28529v366.70079z" fill="url(#color-1)"/><path d="M-17.88288,365.76998v-366.70079h35.28529v366.70079z" fill="url(#color-2)"/></g></g></g></svg>