<svg version="1.1" xmlns="http://www.w3.org/2000/svg" xmlns:xlink="http://www.w3.org/1999/xlink" width="43.27036" height="42.30669" viewBox="0,0,43.27036,42.30669"><g transform="translate(-218.34321,-158.84666)"><g data-paper-data="{&quot;isPaintingLayer&quot;:true}" fill-rule="nonzero" stroke-linecap="round" stroke-linejoin="miter" stroke-miterlimit="10" stroke-dasharray="" stroke-dashoffset="0" style="mix-blend-mode: normal"><path d="M244.97408,198.08927c-1.75358,-1.09505 -5.24625,-4.28548 -5.24625,-4.28548c0,0 -3.89619,3.35335 -5.54778,4.42399c-3.78288,2.45224 -6.63349,1.62026 -6.95853,1.15889c-0.40283,-0.57175 -0.93221,-3.91846 -0.19913,-7.80664c0.58623,-3.10928 1.22508,-5.39887 1.22508,-5.39887c-1.95299,-1.50665 -3.5327,-2.18942 -5.07271,-3.51002c-3.15117,-2.70225 -3.79478,-6.85878 -3.52673,-7.61108c0.36689,-1.02971 4.35728,-4.13181 11.79141,-4.35181l0.47197,-0.17423c2.52594,-7.24415 6.82458,-10.43736 8.01784,-10.43736c1.10688,0.01958 5.02897,3.38257 7.6244,10.58071l0.37044,0.25657c7.51861,0.23443 12.04377,3.13278 12.43948,4.12612c0.23577,0.5918 -0.40436,5.21474 -4.13429,8.27435c-1.31398,1.07784 -2.93552,1.65798 -4.48894,2.85799c0,0 0.79395,2.55261 1.44651,6.00138c0.73624,3.89106 -0.00336,6.76414 -0.54989,7.19292c-0.46884,0.36782 -4.01123,0.98295 -7.66286,-1.29739z" data-paper-data="{&quot;index&quot;:null}" fill="#ffffff" stroke="#ffffff" stroke-width="2.5"/><path d="M243.66326,175.75245c0.55621,-0.02146 1.11052,0.43898 1.34402,1.00684c0.42361,1.0306 0.46917,2.25929 0.43748,3.40689c-0.02178,1.05927 -0.19003,2.15435 -0.59383,3.10154c-0.02975,0.07141 -0.06258,0.14423 -0.09832,0.21693c-0.3314,-0.04755 -0.67021,-0.07214 -1.01476,-0.07214c-0.42275,0 -0.83684,0.03703 -1.23921,0.10803c-0.02801,-0.05941 -0.05482,-0.12144 -0.08038,-0.18604c-0.36421,-0.91138 -0.53641,-2.00408 -0.53641,-3.28759c0,-1.2836 0.13259,-2.33328 0.53641,-3.2876c0.26519,-0.62988 0.77197,-1.0283 1.24503,-1.00684z" fill="#000000" stroke="none" stroke-width="2.7674"/><path d="M236.33636,175.71286c0.55621,-0.02146 1.11052,0.43898 1.34404,1.00684c0.42361,1.0306 0.46917,2.25929 0.43748,3.40689c-0.02178,1.05927 -0.19003,2.15435 -0.59383,3.10154c-0.03931,0.09436 -0.08398,0.1912 -0.1337,0.28692c-0.39245,-0.06742 -0.79594,-0.10254 -1.20764,-0.10254c-0.34275,0 -0.67982,0.02434 -1.00957,0.07141c-0.02853,-0.06031 -0.0558,-0.12333 -0.08177,-0.18901c-0.36421,-0.91138 -0.5364,-2.00408 -0.5364,-3.28759c0,-1.2836 0.13259,-2.33329 0.5364,-3.28761c0.26519,-0.62988 0.77197,-1.02829 1.24503,-1.00684z" fill="#000000" stroke="none" stroke-width="2.7674"/></g></g></svg>