<svg version="1.1" xmlns="http://www.w3.org/2000/svg" xmlns:xlink="http://www.w3.org/1999/xlink" width="661.2822" height="385.21843" viewBox="0,0,661.2822,385.21843"><defs><linearGradient x1="-15.98616" y1="119.21676" x2="96.48355" y2="119.21676" gradientUnits="userSpaceOnUse" id="color-1"><stop offset="0" stop-color="#1f2649"/><stop offset="1" stop-color="#537aca"/></linearGradient><linearGradient x1="541.09609" y1="180.00012" x2="645.29604" y2="180.00012" gradientUnits="userSpaceOnUse" id="color-2"><stop offset="0" stop-color="#537aca"/><stop offset="1" stop-color="#1f2649"/></linearGradient></defs><g transform="translate(15.98616,0.93082)"><g data-paper-data="{&quot;isPaintingLayer&quot;:true}" fill-rule="nonzero" stroke="none" stroke-linecap="butt" stroke-linejoin="miter" stroke-miterlimit="10" stroke-dasharray="" stroke-dashoffset="0" style="mix-blend-mode: normal"><path d="M556.4925,365.13429h-473.48648v-30.1398h473.48649z" data-paper-data="{&quot;origPos&quot;:null,&quot;index&quot;:null}" fill="#ececec" stroke-width="1"/><path d="M510.79668,384.28761v-49.0987h42.29294v49.0987z" data-paper-data="{&quot;origPos&quot;:null,&quot;index&quot;:null}" fill="#616161" stroke-width="0"/><path d="M426.21371,384.09319v-49.0987h42.29294v49.0987z" data-paper-data="{&quot;origPos&quot;:null,&quot;index&quot;:null}" fill="#616161" stroke-width="0"/><path d="M170.51156,384.09319v-49.0987h42.29294v49.0987z" data-paper-data="{&quot;origPos&quot;:null,&quot;index&quot;:null}" fill="#616161" stroke-width="0"/><path d="M86.89502,384.09319v-49.0987h42.29294v49.0987z" data-paper-data="{&quot;origPos&quot;:null,&quot;index&quot;:null}" fill="#616161" stroke-width="0"/><path d="M541.85317,361.74387l-31.25094,-26.74938h43.75132v28.1953z" data-paper-data="{&quot;origPos&quot;:null,&quot;index&quot;:null}" fill="#cc1919" stroke-width="0"/><path d="M-2.44007,363.18979v-28.1953h130.07097l-30.55648,26.74938z" data-paper-data="{&quot;origPos&quot;:null,&quot;index&quot;:null}" fill="#cc1919" stroke-width="0"/><path d="M341.1417,383.89874v-49.0987h42.29294v49.0987z" data-paper-data="{&quot;origPos&quot;:null,&quot;index&quot;:null}" fill="#616161" stroke-width="0"/><path d="M256.55582,384.09319v-49.0987h42.29294v49.0987z" data-paper-data="{&quot;origPos&quot;:null,&quot;index&quot;:null}" fill="#616161" stroke-width="0"/><path d="M-15.98616,239.36434v-240.29515h112.46971v240.29515z" fill="url(#color-1)" stroke-width="0"/><path d="M541.09609,360.93105v-361.86186h104.19995v361.86186z" fill="url(#color-2)" stroke-width="0"/><path d="M278.0494,197.06308h80.9736l44.974,26h-37.526l-15.4988,-14h-64.0071l-15.5067,14h-36.4614z" data-paper-data="{&quot;index&quot;:null}" fill="#cc1919" stroke-width="1.17703"/></g></g></svg>