<svg version="1.1" xmlns="http://www.w3.org/2000/svg" xmlns:xlink="http://www.w3.org/1999/xlink" width="39.07291" height="40.78064" viewBox="0,0,39.07291,40.78064"><g transform="translate(-220.45528,-159.16129)"><g data-paper-data="{&quot;isPaintingLayer&quot;:true}" fill-rule="nonzero" stroke="none" stroke-linejoin="miter" stroke-miterlimit="10" stroke-dasharray="" stroke-dashoffset="0" style="mix-blend-mode: normal"><path d="M221.93338,177.51066h36.37549v22.01906h-36.37549z" fill="#3ab6ff" stroke-width="1.00121" stroke-linecap="butt"/><path d="M240.11655,159.1613c5.01806,0 9.56517,2.03808 12.85781,5.33073c3.29264,3.29255 5.33073,7.83975 5.33073,12.85772c0,5.01806 -2.03808,9.56517 -5.33073,12.85772c-3.29264,3.29264 -7.83975,5.33081 -12.85781,5.33081c-5.01797,0 -9.56508,-2.03817 -12.85772,-5.33081c-3.29264,-3.29255 -5.33073,-7.83967 -5.33073,-12.85772c0,-5.01797 2.03808,-9.56517 5.33073,-12.85772c3.29264,-3.29264 7.83975,-5.33073 12.85772,-5.33073z" fill="#3ab6ff" stroke-width="0.81624" stroke-linecap="round"/><path d="M229.14359,178.93168l0.04219,-12.99124l19.55592,0.04404l2.91435,3.03863l0.21121,6.95802l-1.8585,2.95055z" fill="#ffffff" stroke-width="0.97977" stroke-linecap="round"/><path d="M229.12095,173.15168h5.85707v16.8666h-5.85707z" fill="#ffffff" stroke-width="0.87355" stroke-linecap="butt"/><path d="M235.55686,169.68368h9.68839v5.50476h-9.68839z" fill="#3ab6ff" stroke-width="0.91078" stroke-linecap="butt"/><path d="M220.45528,192.31496h39.07291v7.62698h-39.07291z" fill="#b2b2b2" stroke-width="0.81624" stroke-linecap="butt"/></g></g></svg>