<svg version="1.1" xmlns="http://www.w3.org/2000/svg" xmlns:xlink="http://www.w3.org/1999/xlink" width="706.49338" height="424.75" viewBox="0,0,706.49338,424.75"><defs><linearGradient x1="321.36371" y1="-2.375" x2="321.36371" y2="359.625" gradientUnits="userSpaceOnUse" id="color-1"><stop offset="0" stop-color="#74beff"/><stop offset="1" stop-color="#c2efff"/></linearGradient><linearGradient x1="174.41067" y1="243.83802" x2="174.41067" y2="421.625" gradientUnits="userSpaceOnUse" id="color-2"><stop offset="0" stop-color="#80e794"/><stop offset="1" stop-color="#39b360"/></linearGradient><linearGradient x1="-5.5812" y1="307.6294" x2="-5.5812" y2="405.6294" gradientUnits="userSpaceOnUse" id="color-3"><stop offset="0" stop-color="#000000" stop-opacity="0"/><stop offset="1" stop-color="#000000"/></linearGradient></defs><g transform="translate(52.73141,2.375)"><g data-paper-data="{&quot;isPaintingLayer&quot;:true}" fill-rule="nonzero" stroke-linecap="butt" stroke-linejoin="miter" stroke-miterlimit="10" stroke-dasharray="" stroke-dashoffset="0" style="mix-blend-mode: normal"><path d="M79.89009,-0.375h480v360h-480z" fill="#ffffff" stroke="none" stroke-width="1"/><path d="M-6.56363,-2.375h655.85468v362h-655.85468z" fill="url(#color-1)" stroke="none" stroke-width="1"/><path d="M165.15008,274.70043c0.4323,23.85704 -47.99104,43.81522 -108.15656,44.57786c-60.16552,0.76264 -109.28977,-17.95907 -109.72206,-41.81611c-0.4323,-23.85704 47.99104,-43.81522 108.15656,-44.57786c60.16552,-0.76264 109.28975,17.95907 109.72206,41.81611z" fill="#75beff" stroke="#4bca88" stroke-width="0"/><path d="M644.72959,382.06584c-85.66612,0.76264 -155.61122,-17.95907 -156.22674,-41.81611c-0.61552,-23.85704 68.3316,-43.81522 153.99772,-44.57786c2.44911,-0.0218 4.88538,-0.02768 7.30754,-0.01797c-0.03852,0.52902 -0.05811,1.0633 -0.05811,1.60215c-1.13634,12.05079 1.15464,21.0611 2.33984,32.39844c0.35872,3.43142 1.64746,7.1874 1.66016,10.62461c0.05126,13.87823 -0.08263,27.75695 -0.01927,41.63504c-2.97803,0.07401 -5.97918,0.12479 -9.00114,0.1517z" fill="#75beff" stroke="#4bca88" stroke-width="0"/><path d="" fill="#75beff" stroke="#4bca88" stroke-width="0"/><path d="" fill="#75beff" stroke="#4bca88" stroke-width="0"/><g data-paper-data="{&quot;origRot&quot;:0}" fill="#75beff" stroke="#4bca88" stroke-width="0"><path d="M228.00793,254.35671c-1.35416,23.82132 -43.18393,40.81684 -93.42942,37.96056c-50.24549,-2.85627 -89.87975,-24.48274 -88.52559,-48.30406c1.35416,-23.82132 43.18393,-40.81684 93.42942,-37.96056c50.24549,2.85627 89.87975,24.48274 88.52559,48.30406z" data-paper-data="{&quot;origPos&quot;:null}"/><path d="M340.66605,259.19689c-1.35416,23.82132 -43.18393,40.81684 -93.42942,37.96056c-50.24549,-2.85627 -89.87975,-24.48274 -88.52559,-48.30406c1.35416,-23.82132 43.18393,-40.81684 93.42942,-37.96056c50.24549,2.85627 89.87975,24.48274 88.52559,48.30406z" data-paper-data="{&quot;origPos&quot;:null}"/></g><path d="M452.17728,294.93364c0.36156,23.85704 -40.13842,43.81522 -90.45925,44.57786c-50.32083,0.76264 -91.40702,-17.95907 -91.76859,-41.81611c-0.36156,-23.85704 40.13842,-43.81522 90.45925,-44.57786c50.32083,-0.76264 91.40703,17.95907 91.76859,41.8161z" fill="#75beff" stroke="#4bca88" stroke-width="0"/><path d="M608.8919,300.6637c0.36156,23.85704 -40.13842,43.81522 -90.45925,44.57786c-50.32083,0.76264 -91.40703,-17.95907 -91.76859,-41.81611c-0.36156,-23.85704 40.13842,-43.81522 90.45925,-44.57786c50.32083,-0.76264 91.40702,17.95907 91.76859,41.81611z" fill="#75beff" stroke="#4bca88" stroke-width="0"/><path d="M616.89021,322.6637c0.61552,23.85704 -68.3316,43.81522 -153.99772,44.57786c-85.66612,0.76264 -155.61122,-17.95907 -156.22674,-41.81611c-0.61552,-23.85704 68.3316,-43.81522 153.99772,-44.57786c85.66612,-0.76264 155.6112,17.95907 156.22674,41.81611z" fill="#75beff" stroke="#4bca88" stroke-width="0"/><path d="M362.89008,359.73151c0,49.09452 -86.62973,61.89349 -188.47941,61.89349c-101.84968,0 -184.41516,-39.79897 -184.41516,-88.89349c0,-49.09452 82.56548,-88.89349 184.41516,-88.89349c101.84968,0 188.47941,66.79897 188.47941,115.89349z" fill="url(#color-2)" stroke="#4bca88" stroke-width="1.5"/><path d="M-5.5812,307.6294h651.92497v98h-651.92497z" fill="url(#color-3)" stroke="none" stroke-width="1.22826"/><g data-paper-data="{&quot;index&quot;:null}" stroke="none" stroke-width="1"><path d="M214.24217,104.96584c9.18266,0 17.5038,2.60718 23.52928,6.81914c6.02548,4.21195 9.75529,10.02867 9.75529,16.44775c0,6.41907 -3.72981,12.23579 -9.75529,16.44775c-6.02548,4.21195 -14.34662,6.81914 -23.52928,6.81914c-9.18266,0 -17.5038,-2.60718 -23.52928,-6.81914c-6.02548,-4.21195 -9.75529,-10.02867 -9.75529,-16.44775c0,-6.41907 3.72981,-12.23579 9.75529,-16.44775c6.02548,-4.21195 14.34662,-6.81914 23.52928,-6.81914z" data-paper-data="{&quot;origPos&quot;:null}" fill="#ffffff"/><path d="M255.60551,94.625c9.18266,0 17.5038,2.60718 23.52928,6.81914c6.02548,4.21195 9.75529,10.02867 9.75529,16.44775c0,6.41907 -3.72981,12.23579 -9.75529,16.44775c-6.02548,4.21195 -14.34662,6.81914 -23.52928,6.81914c-9.18266,0 -17.5038,-2.60718 -23.52928,-6.81914c-6.02548,-4.21195 -9.75529,-10.02867 -9.75529,-16.44775c0,-6.41907 3.72981,-12.23579 9.75529,-16.44775c6.02548,-4.21195 14.34662,-6.81914 23.52928,-6.81914z" data-paper-data="{&quot;origPos&quot;:null}" fill="#ffffff"/><path d="M221.67464,114.98352c0.80271,0 1.5298,0.70641 2.05589,1.84713c0.52674,1.14072 0.85247,2.71576 0.85247,4.45432c0,1.73855 -0.32574,3.31359 -0.85247,4.45432c-0.52609,1.14072 -1.25318,1.84713 -2.05589,1.84713c-0.80271,0 -1.5298,-0.70641 -2.05589,-1.84713c-0.52674,-1.14072 -0.85247,-2.71576 -0.85247,-4.45432c0,-1.73855 0.32574,-3.31359 0.85247,-4.45432c0.52609,-1.14072 1.25318,-1.84713 2.05589,-1.84713z" data-paper-data="{&quot;origPos&quot;:null}" fill="#4a4f54"/><path d="M235.24699,114.66037c0.80271,0 1.5298,0.70641 2.05589,1.84713c0.52674,1.14072 0.85247,2.71576 0.85247,4.45432c0,1.73855 -0.32574,3.31359 -0.85247,4.45432c-0.52609,1.14072 -1.25318,1.84713 -2.05589,1.84713c-0.80271,0 -1.5298,-0.70641 -2.05589,-1.84713c-0.52674,-1.14072 -0.85247,-2.71576 -0.85247,-4.45432c0,-1.73855 0.32574,-3.31359 0.85247,-4.45432c0.52609,-1.14072 1.25318,-1.84713 2.05589,-1.84713z" data-paper-data="{&quot;origPos&quot;:null}" fill="#4a4f54"/></g><g data-paper-data="{&quot;index&quot;:null}" stroke="none" stroke-width="1"><path d="M203.06727,48.72066c6.02548,4.21195 9.75529,10.02867 9.75529,16.44775c0,6.41907 -3.72981,12.23579 -9.75529,16.44775c-6.02548,4.21195 -14.34662,6.81914 -23.52928,6.81914c-9.18266,0 -17.5038,-2.60718 -23.52928,-6.81914c-6.02548,-4.21195 -9.75529,-10.02867 -9.75529,-16.44775c0,-6.41907 3.72981,-12.23579 9.75529,-16.44775c6.02548,-4.21195 14.34662,-6.81914 23.52928,-6.81914c9.18266,0 17.5038,2.60718 23.52928,6.81914z" data-paper-data="{&quot;origPos&quot;:null}" fill="#ffffff"/><path d="M161.70393,38.37983c6.02548,4.21195 9.75529,10.02867 9.75529,16.44775c0,6.41907 -3.72981,12.23579 -9.75529,16.44775c-6.02548,4.21195 -14.34662,6.81914 -23.52928,6.81914c-9.18266,0 -17.5038,-2.60718 -23.52928,-6.81914c-6.02548,-4.21195 -9.75529,-10.02867 -9.75529,-16.44775c0,-6.41907 3.72981,-12.23579 9.75529,-16.44775c6.02548,-4.21195 14.34662,-6.81914 23.52928,-6.81914c9.18266,0 17.5038,2.60718 23.52928,6.81914z" data-paper-data="{&quot;origPos&quot;:null}" fill="#ffffff"/><path d="M152.83343,58.29046c0.52674,1.14072 0.85247,2.71576 0.85247,4.45432c0,1.73855 -0.32574,3.31359 -0.85247,4.45432c-0.52609,1.14072 -1.25318,1.84713 -2.05589,1.84713c-0.80271,0 -1.5298,-0.70641 -2.05589,-1.84713c-0.52674,-1.14072 -0.85247,-2.71576 -0.85247,-4.45432c0,-1.73855 0.32574,-3.31359 0.85247,-4.45432c0.52609,-1.14072 1.25318,-1.84713 2.05589,-1.84713c0.80271,0 1.5298,0.70641 2.05589,1.84713z" data-paper-data="{&quot;origPos&quot;:null}" fill="#4a4f54"/><path d="M139.26108,57.96731c0.52674,1.14072 0.85247,2.71576 0.85247,4.45432c0,1.73855 -0.32574,3.31359 -0.85247,4.45432c-0.52609,1.14072 -1.25318,1.84713 -2.05589,1.84713c-0.80271,0 -1.5298,-0.70641 -2.05589,-1.84713c-0.52674,-1.14072 -0.85247,-2.71576 -0.85247,-4.45432c0,-1.73855 0.32574,-3.31359 0.85247,-4.45432c0.52609,-1.14072 1.25318,-1.84713 2.05589,-1.84713c0.80271,0 1.5298,0.70641 2.05589,1.84713z" data-paper-data="{&quot;origPos&quot;:null}" fill="#4a4f54"/></g><g data-paper-data="{&quot;index&quot;:null}" stroke="none" stroke-width="1"><path d="M464.24217,57.96584c9.18266,0 17.50381,2.60719 23.52928,6.81914c6.02548,4.21195 9.75528,10.02867 9.75528,16.44774c0,6.41908 -3.72981,12.2358 -9.75528,16.44775c-6.02548,4.21195 -14.34662,6.81914 -23.52928,6.81914c-9.18266,0 -17.5038,-2.60719 -23.52928,-6.81914c-6.02547,-4.21195 -9.75529,-10.02867 -9.75529,-16.44775c0,-6.41907 3.72981,-12.23579 9.75529,-16.44774c6.02547,-4.21195 14.34662,-6.81914 23.52928,-6.81914z" data-paper-data="{&quot;origPos&quot;:null}" fill="#ffffff"/><path d="M505.60551,47.625c9.18266,0 17.5038,2.60719 23.52928,6.81914c6.02548,4.21195 9.75529,10.02867 9.75529,16.44774c0,6.41908 -3.72981,12.23579 -9.75529,16.44774c-6.02548,4.21195 -14.34662,6.81914 -23.52928,6.81914c-9.18266,0 -17.50381,-2.60719 -23.52928,-6.81914c-6.02547,-4.21195 -9.75529,-10.02867 -9.75529,-16.44774c0,-6.41907 3.72981,-12.2358 9.75529,-16.44774c6.02547,-4.21195 14.34662,-6.81914 23.52928,-6.81914z" data-paper-data="{&quot;origPos&quot;:null}" fill="#ffffff"/><path d="M471.67464,67.98352c0.80271,0 1.5298,0.70641 2.05589,1.84714c0.52673,1.14073 0.85247,2.71576 0.85247,4.45432c0,1.73855 -0.32574,3.31359 -0.85247,4.45432c-0.52609,1.14073 -1.25318,1.84713 -2.05589,1.84713c-0.80271,0 -1.52979,-0.7064 -2.05588,-1.84713c-0.52673,-1.14073 -0.85248,-2.71576 -0.85248,-4.45432c0,-1.73855 0.32574,-3.31359 0.85248,-4.45432c0.52609,-1.14073 1.25318,-1.84714 2.05588,-1.84714z" data-paper-data="{&quot;origPos&quot;:null}" fill="#4a4f54"/><path d="M485.24699,67.66037c0.80271,0 1.52979,0.7064 2.05588,1.84713c0.52673,1.14073 0.85247,2.71576 0.85247,4.45432c0,1.73855 -0.32574,3.31359 -0.85247,4.45432c-0.52609,1.14073 -1.25318,1.84713 -2.05588,1.84713c-0.80271,0 -1.5298,-0.70641 -2.05589,-1.84713c-0.52673,-1.14073 -0.85247,-2.71576 -0.85247,-4.45432c0,-1.73855 0.32574,-3.31359 0.85247,-4.45432c0.52609,-1.14073 1.25319,-1.84713 2.05589,-1.84713z" data-paper-data="{&quot;origPos&quot;:null}" fill="#4a4f54"/></g><g data-paper-data="{&quot;index&quot;:null}" stroke="none" stroke-width="1"><path d="M385.06727,43.72066c6.02548,4.21195 9.75529,10.02867 9.75529,16.44775c0,6.41908 -3.72981,12.23579 -9.75529,16.44774c-6.02547,4.21195 -14.34662,6.81914 -23.52928,6.81914c-9.18266,0 -17.5038,-2.60719 -23.52928,-6.81914c-6.02548,-4.21195 -9.75528,-10.02867 -9.75528,-16.44774c0,-6.41908 3.72981,-12.2358 9.75528,-16.44775c6.02548,-4.21195 14.34662,-6.81913 23.52928,-6.81913c9.18266,0 17.50381,2.60718 23.52928,6.81913z" data-paper-data="{&quot;origPos&quot;:null}" fill="#ffffff"/><path d="M343.70393,33.37983c6.02547,4.21195 9.75529,10.02867 9.75529,16.44774c0,6.41908 -3.72981,12.2358 -9.75529,16.44775c-6.02547,4.21195 -14.34662,6.81913 -23.52928,6.81913c-9.18266,0 -17.5038,-2.60718 -23.52928,-6.81913c-6.02548,-4.21195 -9.75529,-10.02867 -9.75529,-16.44775c0,-6.41908 3.72981,-12.23579 9.75529,-16.44774c6.02548,-4.21195 14.34662,-6.81914 23.52928,-6.81914c9.18266,0 17.50381,2.60719 23.52928,6.81914z" data-paper-data="{&quot;origPos&quot;:null}" fill="#ffffff"/><path d="M334.83342,53.29046c0.52673,1.14073 0.85247,2.71576 0.85247,4.45432c0,1.73856 -0.32574,3.31359 -0.85247,4.45431c-0.52609,1.14073 -1.25318,1.84713 -2.05588,1.84713c-0.80271,0 -1.5298,-0.70641 -2.05589,-1.84713c-0.52673,-1.14073 -0.85247,-2.71576 -0.85247,-4.45431c0,-1.73856 0.32574,-3.31359 0.85247,-4.45432c0.52609,-1.14073 1.25319,-1.84713 2.05589,-1.84713c0.80271,0 1.52979,0.7064 2.05588,1.84713z" data-paper-data="{&quot;origPos&quot;:null}" fill="#4a4f54"/><path d="M321.26108,52.96731c0.52673,1.14073 0.85247,2.71576 0.85247,4.45432c0,1.73856 -0.32574,3.31359 -0.85247,4.45431c-0.52609,1.14073 -1.25319,1.84713 -2.05589,1.84713c-0.80271,0 -1.52979,-0.70641 -2.05588,-1.84713c-0.52673,-1.14073 -0.85248,-2.71576 -0.85248,-4.45431c0,-1.73856 0.32574,-3.31359 0.85248,-4.45432c0.52609,-1.14073 1.25318,-1.84713 2.05588,-1.84713c0.80271,0 1.5298,0.70641 2.05589,1.84713z" data-paper-data="{&quot;origPos&quot;:null}" fill="#4a4f54"/></g><g data-paper-data="{&quot;index&quot;:null}" stroke="none" stroke-width="1"><path d="M359.71289,165.33963c-6.02548,-4.21195 -9.75529,-10.02867 -9.75529,-16.44774c0,-6.41908 3.72982,-12.2358 9.75529,-16.44775c6.02548,-4.21195 14.34662,-6.81914 23.52928,-6.81914c9.18266,0 17.5038,2.60719 23.52928,6.81914c6.02547,4.21195 9.75528,10.02867 9.75528,16.44775c0,6.41907 -3.7298,12.23579 -9.75528,16.44774c-6.02547,4.21195 -14.34662,6.81914 -23.52928,6.81914c-9.18266,0 -17.50381,-2.60719 -23.52928,-6.81914z" data-paper-data="{&quot;origPos&quot;:null}" fill="#ffffff"/><path d="M401.07623,175.68047c-6.02548,-4.21194 -9.75529,-10.02867 -9.75529,-16.44774c0,-6.41907 3.72982,-12.23579 9.75529,-16.44774c6.02547,-4.21195 14.34662,-6.81914 23.52928,-6.81914c9.18266,0 17.5038,2.60719 23.52928,6.81914c6.02548,4.21195 9.75529,10.02866 9.75529,16.44774c0,6.41907 -3.72981,12.23579 -9.75529,16.44774c-6.02548,4.21195 -14.34662,6.81914 -23.52928,6.81914c-9.18266,0 -17.50381,-2.60719 -23.52928,-6.81914z" data-paper-data="{&quot;origPos&quot;:null}" fill="#ffffff"/><path d="M388.61876,160.29395c-0.52674,-1.14073 -0.85248,-2.71577 -0.85248,-4.45432c0,-1.73856 0.32575,-3.31359 0.85248,-4.45432c0.52609,-1.14073 1.25317,-1.84713 2.05588,-1.84713c0.80271,0 1.5298,0.7064 2.05589,1.84713c0.52673,1.14073 0.85247,2.71577 0.85247,4.45432c0,1.73856 -0.32574,3.31359 -0.85247,4.45432c-0.52609,1.14073 -1.25318,1.84714 -2.05589,1.84714c-0.8027,0 -1.52979,-0.70641 -2.05588,-1.84714z" data-paper-data="{&quot;origPos&quot;:null}" fill="#4a4f54"/><path d="M402.1911,160.61711c-0.52673,-1.14073 -0.85247,-2.71577 -0.85247,-4.45432c0,-1.73856 0.32574,-3.31359 0.85247,-4.45432c0.52609,-1.14072 1.25318,-1.84713 2.05589,-1.84713c0.8027,0 1.52979,0.7064 2.05588,1.84713c0.52673,1.14073 0.85247,2.71577 0.85247,4.45432c0,1.73856 -0.32574,3.31359 -0.85247,4.45432c-0.52609,1.14073 -1.25317,1.84713 -2.05588,1.84713c-0.8027,0 -1.5298,-0.7064 -2.05589,-1.84713z" data-paper-data="{&quot;origPos&quot;:null}" fill="#4a4f54"/></g></g></g></svg>