<svg version="1.1" xmlns="http://www.w3.org/2000/svg" xmlns:xlink="http://www.w3.org/1999/xlink" width="106" height="137" viewBox="0,0,106,137"><defs><linearGradient x1="22.9124" y1="12.77285" x2="22.9124" y2="39.06683" gradientUnits="userSpaceOnUse" id="color-1"><stop offset="0" stop-color="#e6a902"/><stop offset="1" stop-color="#c78602"/></linearGradient><linearGradient x1="19.98278" y1="12.85707" x2="19.98278" y2="39.15104" gradientUnits="userSpaceOnUse" id="color-2"><stop offset="0" stop-color="#fff300"/><stop offset="1" stop-color="#ffbb00"/></linearGradient><linearGradient x1="20.02012" y1="15.55991" x2="20.02012" y2="35.44895" gradientUnits="userSpaceOnUse" id="color-3"><stop offset="0" stop-color="#e6a902"/><stop offset="1" stop-color="#c78602"/></linearGradient></defs><g transform="translate(15.18121,1.89527)"><g data-paper-data="{&quot;isPaintingLayer&quot;:true}" fill-rule="nonzero" stroke="none" stroke-linecap="butt" stroke-linejoin="miter" stroke-miterlimit="10" stroke-dasharray="" stroke-dashoffset="0" style="mix-blend-mode: normal"><path d="M-15.18121,135.10473v-137h106v137z" fill="none" stroke-width="0"/><g><path d="M22.9124,12.77285c2.99417,0 5.70703,1.47343 7.67158,3.85339c1.96454,2.37985 3.18076,5.66632 3.18076,9.2936c0,3.62716 -1.21622,6.91375 -3.18076,9.2936c-1.96454,2.37996 -4.67741,3.85339 -7.67158,3.85339c-2.99417,0 -5.70703,-1.47343 -7.67158,-3.85339c-1.96454,-2.37985 -3.18076,-5.66643 -3.18076,-9.2936c0,-3.62727 1.21622,-6.91375 3.18076,-9.2936c1.96454,-2.37996 4.67741,-3.85339 7.67158,-3.85339z" data-paper-data="{&quot;origPos&quot;:null}" fill="url(#color-1)" stroke-width="0.44036"/><path d="M19.98278,12.85707c2.99417,0 5.70703,1.47343 7.67158,3.85339c1.96454,2.37985 3.18076,5.66632 3.18076,9.2936c0,3.62716 -1.21622,6.91375 -3.18076,9.2936c-1.96454,2.37996 -4.67741,3.85339 -7.67158,3.85339c-2.99417,0 -5.70703,-1.47343 -7.67158,-3.85339c-1.96454,-2.37985 -3.18076,-5.66643 -3.18076,-9.2936c0,-3.62727 1.21622,-6.91375 3.18076,-9.2936c1.96454,-2.37996 4.67741,-3.85339 7.67158,-3.85339z" fill="url(#color-2)" stroke-width="0.44036"/><path d="M18.13893,15.55991h3.76238v19.88904h-3.76238z" data-paper-data="{&quot;origPos&quot;:null}" fill="url(#color-3)" stroke-width="0.59798"/></g></g></g></svg>