<svg version="1.1" xmlns="http://www.w3.org/2000/svg" xmlns:xlink="http://www.w3.org/1999/xlink" width="34.65429" height="38.57186" viewBox="0,0,34.65429,38.57186"><defs><radialGradient cx="35.71844" cy="26.7353" r="6.67945" gradientUnits="userSpaceOnUse" id="color-1"><stop offset="0" stop-color="#fbc5fc"/><stop offset="1" stop-color="#f991fd"/></radialGradient></defs><g transform="translate(-6.19648,-5.0159)"><g data-paper-data="{&quot;isPaintingLayer&quot;:true}" fill-rule="nonzero" stroke-linejoin="miter" stroke-miterlimit="10" stroke-dasharray="" stroke-dashoffset="0" style="mix-blend-mode: normal"><path d="M40.25933,18.5712c-0.21728,1.31214 -4.54882,2.97483 -7.95759,2.97483c-2.74679,0 -2.06592,-2.33661 -2.06592,-3.59748c0,-1.26088 5.38296,-0.98585 8.12975,-0.98585c2.74678,0 2.0344,0.75915 1.89376,1.60848z" data-paper-data="{&quot;index&quot;:null}" fill="#2d0757" stroke="none" stroke-width="0" stroke-linecap="butt"/><path d="M33.22398,27.34779c0.02339,-0.01408 0.0482,-0.02774 0.07449,-0.04089c0.6947,-0.34735 1.04205,0.34735 1.04205,0.34735l-0.03721,0.03863c0.09604,0.09426 0.14633,0.18227 0.14633,0.18227c0.927,1.62224 1.06072,4.33176 0.74958,6.21053c-0.11785,0.71164 -1.1166,1.66213 -1.07545,2.18733c-0.31234,0.93702 -1.39425,1.22246 -2.29197,1.2972c-2.25339,0.1876 -4.59703,0.01057 -6.859,0.01057c-0.49598,0 -1.4944,0.19548 -1.94173,0c-2.91486,-1.27374 -1.55338,-5.14483 -1.55338,-7.57273c0,-1.50524 0.81809,-2.53158 2.3756,-2.75325c2.14692,-0.30556 4.51718,-0.02989 6.68579,-0.02989c0.90613,0 1.81227,0 2.71841,0z" data-paper-data="{&quot;index&quot;:null}" fill="#ffffff" stroke="none" stroke-width="0.5" stroke-linecap="butt"/><path d="M33.23882,30.49383c0.48508,-0.01865 0.50372,0.46641 0.50372,0.46641l0.00036,0.14811c0,0.33708 0.01294,0.67583 0.03064,1.01587c0.18832,-0.09597 0.37535,-0.19204 0.56132,-0.28502l0.38455,-0.04256c0,0 0.47675,-0.09142 0.56818,0.38532c0.09143,0.47674 -0.38531,0.56817 -0.38531,0.56817l-0.13324,-0.04256c-0.30757,0.15379 -0.61908,0.31469 -0.93464,0.47057c0.0095,0.17285 0.01806,0.34593 0.02464,0.51918h0.0133v0.64724c0,0.06135 -0.01139,0.12004 -0.03216,0.17409c-0.04731,0.13926 -0.16425,0.31133 -0.45327,0.31133c-0.28903,0 -0.40597,-0.17209 -0.45329,-0.31133c-0.02077,-0.05403 -0.03215,-0.11274 -0.03215,-0.17409c0,-0.24397 -0.00649,-0.48724 -0.01656,-0.7299c-0.34938,0.14468 -0.7037,0.26957 -1.06311,0.35943c-0.35401,0.06206 -0.70569,0.11988 -1.05624,0.17315c0,0.41097 0,0.82194 0,1.23291v0.12944c0,0 0,0.48543 -0.48543,0.48543c-0.48543,0 -0.48543,-0.48543 -0.48543,-0.48543c0,-0.39903 0,-0.81034 0,-1.22638c-0.87833,0.11221 -1.75654,0.19412 -2.65369,0.24126c0,0.15577 0,0.31154 0,0.46732v0.38834c0,0 0,0.48543 -0.48543,0.48543c-0.48543,0 -0.48543,-0.48543 -0.48543,-0.48543c0,-0.25058 0,-0.52822 0,-0.81864c-0.26731,0.00635 -0.53684,0.00958 -0.80905,0.00958c0,0 -0.48543,0 -0.48543,-0.48543c0,-0.48543 0.48543,-0.48544 0.48543,-0.48544c0.26914,0 0.53899,-0.00021 0.80905,-0.00171c0,-0.5164 0,-1.02521 0,-1.45457c0,0 0,-0.48544 0.48543,-0.48544c0.48543,0 0.48543,0.48544 0.48543,0.48544c0,0.48056 0,0.9611 0,1.44165c0.89453,-0.02059 1.78504,-0.06999 2.65369,-0.18829c0,-0.64424 0,-1.28697 0,-1.90061c0,0 0,-0.48544 0.48543,-0.48544c0.48543,0 0.48543,0.48544 0.48543,0.48544c0,0.57852 0,1.15703 0,1.73554c0.27682,-0.0573 0.55061,-0.12351 0.82077,-0.20003c0.42269,-0.10567 0.83614,-0.26474 1.24234,-0.44756c-0.02945,-0.4937 -0.05665,-0.98549 -0.05665,-1.4763l0.00036,-0.11078c0,0 -0.01865,-0.48507 0.46642,-0.50372z" data-paper-data="{&quot;index&quot;:null}" fill="#a5b5ff" stroke="none" stroke-width="0.5" stroke-linecap="butt"/><path d="M13.39283,27.98729l0.01319,-0.14188c0.04315,-0.07853 0.08629,-0.15706 0.12944,-0.23559c1.91959,-1.63398 3.46909,1.54345 4.27779,2.75575c0.2706,0.40564 0.5834,0.73223 0.78802,1.17499c0.64416,1.40387 4.01361,4.7163 0.92294,5.35329c-0.39246,0.08089 -0.75387,0.07209 -1.15332,0.07209c-0.23103,-0.0814 -0.4845,-0.12253 -0.69308,-0.24419c-0.17876,-0.10428 -1.32194,-0.95079 -1.72134,-1.18095c-0.16783,-0.09671 -2.29247,-2.07731 -2.39303,-2.44332c-0.46077,-1.69077 -0.20867,-3.23741 -0.20867,-4.93672c0,-0.05582 0.01139,-0.10923 0.03216,-0.15841c0.00186,-0.00498 0.00383,-0.01 0.00591,-0.01505z" data-paper-data="{&quot;index&quot;:null}" fill="#8e4108" stroke="none" stroke-width="0.5" stroke-linecap="butt"/><path d="M35.08391,38.30244c0.0678,1.55257 0.58482,3.09073 -0.32569,4.24677c-0.39231,0.49809 -1.11347,1.00933 -1.36888,0.98631c-1.27523,0.00521 -2.89678,0.22254 -4.09495,-0.26956c-0.8642,-0.35493 -2.67407,-1.57249 -2.68685,-1.57676c-0.01298,-0.00355 -0.02005,-0.00591 -0.02005,-0.00591c-1.12198,-0.374 -2.10017,-1.09307 -3.20849,-1.46608c-0.51556,-0.17352 -2.15466,-0.6957 -2.15466,-0.6957c-2.42171,-1.61447 -4.06023,-4.01891 -5.01421,-6.7436c-0.38676,-1.1603 -0.65155,-2.343 -1.03559,-3.49511l0.03248,-0.13082c-1.1505,-0.65824 -2.11512,-1.59268 -3.27594,-2.22672c-0.61822,-0.33766 -1.47644,-0.60636 -2.06278,-1.07684c-0.61826,-0.4961 -0.96958,-0.78723 -1.46291,-1.4077c-1.91881,-1.96572 -2.20264,-3.72078 -2.20264,-6.40664l0.03191,-0.37156c-0.03483,-0.09934 -0.04895,-0.21777 -0.02915,-0.35845c0.00882,-0.14541 0.05455,-0.31634 0.192,-0.45592c0.12857,-0.14781 0.29545,-0.20657 0.43975,-0.22659c0.19872,-0.0438 0.35728,-0.01472 0.482,0.04784c1.99752,0.49194 3.56181,1.43825 5.44437,2.22334c0.75784,0.31605 1.67848,0.24493 2.49876,0.38164c0.38834,0.06472 1.55514,0.18361 1.55514,0.18361c1.7679,0 2.88064,-1.06934 4.51687,-1.6981c1.27627,-0.49044 2.57312,-0.46438 3.89904,-0.68614c2.2691,-0.37818 4.81823,-0.07529 7.11789,-0.07529c0,0 0.90434,0.26439 1.01895,0.42593c0.94846,0.86926 0.92278,1.79535 0.92278,3.06916c0,1.83562 -0.16522,3.76876 0.09584,5.58626c0.11519,0.86399 0.2892,1.6714 0.29246,2.54401c0.04196,0.17523 0.00509,0.33091 -0.05479,0.45509c-0.05258,0.14866 -0.15564,0.30498 -0.35531,0.39707c-1.08594,0.80158 -2.00674,0.5675 -3.21616,0.97452c-0.53402,0.17972 -1.00245,0.53809 -1.59714,0.62793c-0.96036,0.14507 -1.9839,0.01619 -2.93356,0.21349c-1.11759,0.18626 -2.38205,0.15035 -3.5241,-0.0101c-0.02388,0.46887 -0.04203,0.94843 0.03075,1.37987c0.30399,1.80198 2.48246,3.12532 4.10923,3.30694c1.95972,0.24497 3.42028,-0.33564 5.22433,-0.937c0.52447,-0.17482 1.18082,-0.2066 1.67131,-0.41763c0.51127,-0.21997 0.90811,-0.5397 1.55337,-0.64724l0.63635,0.41904c0,0 0.73544,0.24977 0.48567,0.98521z" data-paper-data="{&quot;index&quot;:null}" fill="#ffdebd" stroke="none" stroke-width="0.5" stroke-linecap="butt"/><path d="M39.73545,17.6993c0,0 -0.00558,0.94322 -0.34591,1.38365c-0.34034,0.44043 -1.61425,1.15303 -1.61425,1.15303l-3.92033,1.84486" data-paper-data="{&quot;index&quot;:null}" fill="none" stroke="#a5b5ff" stroke-width="2" stroke-linecap="round"/><path d="M22.467,20.38199c-0.09319,0.44598 -0.27342,0.85232 -0.35018,1.31771c-0.10315,0.62533 0.01993,1.41498 0.01993,2.0588c0,0.39544 1.53666,0.59575 2.26535,0.59575c0.19544,0 1.36374,0.014 1.33797,-0.06568c0.29577,-0.20167 0.80899,-0.21998 1.06346,-0.44349c0.79051,-0.69431 1.50106,-1.66571 1.89029,-2.85991c0.04868,-0.14938 0.19604,-0.49958 0.0448,-0.47014c-0.08047,0.01566 -0.03549,0.20874 -0.11646,0.22125c-0.2223,0.03436 -0.70466,-0.32153 -0.93391,-0.38205c-0.30037,-0.0793 -0.81058,-0.0669 -1.14361,-0.12436c-0.73784,-0.1273 -1.64756,0.02037 -2.40144,0.02037c-0.58209,0 -1.11172,0.12193 -1.67619,0.13176zM22.13675,19.45592c0.15013,0 0.24222,0.05936 0.29871,0.13218c0.56326,-0.00581 1.12112,-0.13218 1.70773,-0.13218c1.25356,0 2.939,-0.20513 4.12017,0.27806c0.74196,0.30352 1.46862,0.57779 1.16728,1.50237c-0.46627,1.43055 -0.27316,2.01828 -1.405,2.92828c-0.23061,0.18541 -1.48419,0.76776 -1.85477,0.78484c-0.37057,0.01708 -2.92043,0.34667 -3.86122,-0.13239c-0.393,-0.20012 -0.94961,-0.58741 -0.94961,-1.05859c0,-0.74477 -0.09915,-1.57465 0.01993,-2.30999c0.09063,-0.55965 0.36841,-1.01096 0.36841,-1.59544c0,0 0.00001,-0.39717 0.38835,-0.39717z" data-paper-data="{&quot;index&quot;:null}" fill="#18c6ff" stroke="none" stroke-width="0.5" stroke-linecap="butt"/><path d="M26.47251,19.38427c0.88685,0.22245 0.73421,0.24278 1.23052,0.55047c0.4963,0.30769 1.05754,0.89391 1.00885,1.04329c-0.38923,1.19421 -0.23714,1.8619 -1.02766,2.55623c-0.25447,0.2235 -1.50006,0.63958 -1.94131,0.73281c-0.44126,0.09323 -1.15402,0.10456 -1.34946,0.10456c-0.72868,0 -2.27439,-0.20969 -2.27439,-0.60514c0,-0.64381 -0.12453,-1.44472 -0.02137,-2.07005c0.07677,-0.46539 0.25972,-1.32271 0.35292,-1.76869c0.56447,-0.13189 0.94767,-0.4105 1.68209,-0.52233c0.73441,-0.11183 1.45297,-0.24357 2.33982,-0.02113z" data-paper-data="{&quot;noHover&quot;:false,&quot;origItem&quot;:[&quot;Path&quot;,{&quot;applyMatrix&quot;:true,&quot;segments&quot;:[[[469.86056,340.47788],[2.90705,-0.05065],[-0.47996,2.2968]],[[468.0571,347.26415],[0.39535,-2.39679],[-0.53123,3.22051]],[[468.15973,357.86707],[0,-3.31566],[0,2.03658]],[[479.8264,360.93518],[-3.75277,0],[1.00657,0]],[[486.717,360.5969],[0.13271,0.41035],[1.52326,-1.03856]],[[492.19394,358.31293],[-1.31054,1.15106],[4.07119,-3.57579]],[[501.92903,343.58421],[-2.00456,6.15021],[0.25074,-0.76931]],[[502.15973,341.16292],[0.77893,-0.15165],[-0.41434,0.08067]],[[501.56,342.30239],[0.41704,-0.06448],[-1.14489,0.17701]],[[496.75028,340.33482],[1.18068,0.3117],[-1.54698,-0.4084]],[[490.86061,339.69435],[1.71512,0.2959],[-3.79987,-0.65558]],[[478.49306,339.79931],[3.88259,0],[-2.99782,0]]],&quot;closed&quot;:true}],&quot;index&quot;:null}" fill="#ffffff" stroke="none" stroke-width="0.5" stroke-linecap="butt"/><path d="M31.32757,20.58673c0,0.5073 0,1.01461 0,1.52192c0,0.03887 -0.00164,0.58246 0,0.58251c0.06493,0.00152 -0.041,-0.17511 0.02124,-0.19367c0.17993,-0.05364 0.9331,0.19367 1.33796,0.19367c0.07878,0 0.97079,0.00324 0.97087,0c0.00152,-0.06492 -0.17511,0.041 -0.19367,-0.02124c-0.1467,-0.49207 0.03176,-1.86276 0.06045,-2.69334c-0.22465,0.15735 -0.70593,-0.13329 -1.03181,-0.13329c-0.3073,0 -0.69732,0.32001 -0.95517,0.59822l-0.19418,0.19418c0,0 -0.00615,-0.01847 -0.0157,-0.04896zM30.98827,19.8923c0.71146,-0.68152 1.74898,-1.27013 2.71196,-1.23259c0.43619,0.01702 0.60468,0.57634 0.60468,1.11885c0,1.05806 0.40001,3.09484 -0.64724,3.68928c-0.18451,0.10472 -0.75252,0 -0.97086,0c-0.76165,0 -1.71963,-0.04331 -2.13591,-0.77669c-0.24686,-0.43491 0,-1.69552 0,-2.20062c0,0 0.00001,-0.33457 0.31056,-0.38263z" data-paper-data="{&quot;index&quot;:null}" fill="#18c6ff" stroke="none" stroke-width="0.5" stroke-linecap="butt"/><path d="M32.49262,19.01012c0.32588,0 1.1253,0.14125 1.1253,0.14125c0,0 0.05356,3.48989 0.05204,3.55482c-0.00008,0.00324 -0.90176,0.00421 -0.98053,0.00421c-0.40487,0 -1.30922,-0.00268 -1.37414,-0.00421c-0.00165,-0.00005 -0.00345,-0.54732 -0.00345,-0.58618c0,-0.5073 0.01444,-1.49368 0.01444,-1.49368c0,0 0.85905,-1.61621 1.16634,-1.61621z" data-paper-data="{&quot;noHover&quot;:false,&quot;origItem&quot;:[&quot;Path&quot;,{&quot;applyMatrix&quot;:true,&quot;segments&quot;:[[[515.49306,341.5323],[0.04917,0.15701],[0,2.61264]],[[515.49306,349.37022],[0,-2.61264],[0,0.20016]],[[515.49306,352.37022],[-0.00844,-0.0002],[0.33438,0.00784]],[[515.60246,351.37279],[-0.32053,0.09557],[0.92664,-0.27628]],[[522.49306,352.37022],[-2.08504,0],[0.4057,0]],[[527.49306,352.37022],[-0.00039,0.0167],[0.00784,-0.33438]],[[526.49563,352.26082],[0.09557,0.32053],[-0.75555,-2.53413]],[[526.80695,338.39],[-0.14773,4.27747],[-1.15693,0.81042]],[[521.49306,337.70356],[1.67827,0],[-1.5826,0]],[[516.57394,340.78444],[1.32792,-1.43284],[0,0]],[515.57394,341.78444]],&quot;closed&quot;:true}],&quot;index&quot;:null}" fill="#ffffff" stroke="none" stroke-width="0.5" stroke-linecap="butt"/><path d="M9.5496,20.73823l2.02417,1.15303c0,0 1.42605,0.30966 2.22659,0.80712c0.80054,0.49746 0.79289,0.67103 1.11329,1.26834c0.3204,0.59731 0.24467,0.66042 0,0.80713c-0.24467,0.14672 -1.17795,0.51566 -1.92296,0.34591c-0.74501,-0.16975 -1.1133,-1.03773 -1.1133,-1.03773l-0.31374,-2.16771" data-paper-data="{&quot;index&quot;:null}" fill="none" stroke="#f6b09a" stroke-width="1.5" stroke-linecap="round"/><path d="M27.6504,21.26607c0.22264,0 0.42413,0.0902 0.57019,0.23613c0.14608,0.1456 0.23642,0.34693 0.23642,0.56919c0,0.22226 -0.09033,0.42359 -0.23642,0.56919c-0.14606,0.14592 -0.34756,0.23613 -0.57019,0.23613c-0.22261,0 -0.42411,-0.0902 -0.5702,-0.23613c-0.14606,-0.1456 -0.23639,-0.34693 -0.23639,-0.56919c0,-0.22226 0.09033,-0.42359 0.23639,-0.56919c0.14608,-0.14592 0.34759,-0.23613 0.5702,-0.23613z" data-paper-data="{&quot;index&quot;:null}" fill="#000000" stroke="none" stroke-width="1.05702" stroke-linecap="butt"/><path d="M35.7893,9.19877c0.85945,5.35953 -0.1765,5.66433 -3.05611,7.38013c-4.19581,2.50006 -9.68424,1.99394 -14.16599,3.93536c-1.17678,0.50976 -4.17615,-0.72879 -5.4586,-0.72879c-2.62299,0 -4.10302,-1.87462 -4.21141,-4.1075c-0.23907,-4.92521 2.18613,-4.94431 4.80912,-4.94431c0,0 2.88669,0.47845 3.8838,2.00994c0,0 4.01578,-6.53382 8.24897,-7.34102c5.4493,-1.03908 9.33303,-0.05267 9.95023,3.79619z" data-paper-data="{&quot;index&quot;:null}" fill="#7100f3" stroke="none" stroke-width="0" stroke-linecap="butt"/><path d="M34.75144,12.2562c0,1.96084 -0.52473,3.43606 -4.37525,3.55041c-4.06491,0.12071 -4.37526,-1.58957 -4.37526,-3.55041c0,-1.96084 1.95888,-3.55041 4.37526,-3.55041c2.41638,0 4.37525,1.58957 4.37525,3.55041z" data-paper-data="{&quot;index&quot;:null}" fill="#ffffff" stroke="none" stroke-width="0" stroke-linecap="butt"/><path d="M32.03508,9.56458l0.14402,1.26883l-1.93268,0.1612l0.26816,3.14547l-1.62636,0.19215l-0.30119,-4.4771z" data-paper-data="{&quot;index&quot;:null,&quot;origRot&quot;:0}" fill="#ffea12" stroke="#7100f3" stroke-width="0.5" stroke-linecap="butt"/><path d="M40.50658,28.64885l-2.07117,4.40124l-1.03559,-0.12944l-3.62456,-1.55338l-10.48531,2.45952h-1.55338l-1.16503,-1.29448l-2.07118,-4.7896l0.5178,-0.64724l3.754,3.62456l5.69573,-0.64724l4.53069,-1.29448l4.01289,1.55338l2.45952,-2.07117z" data-paper-data="{&quot;index&quot;:null}" fill="#000000" stroke="#ff0000" stroke-width="0" stroke-linecap="round"/><path d="M17.72658,19.7341c0.36051,0 0.94136,0.64736 0.96523,0.78515c0.60291,0.60361 1.13627,1.53194 1.26606,2.3769c0.04159,0.2708 -0.5964,1.69146 -0.74264,1.88645c-0.77343,0.60157 -1.82591,1.12101 -2.26332,0.08545c-0.10181,-0.24104 0.28923,-1.27634 0.28923,-1.54174c0,-0.90613 0,-1.81227 0,-2.71841c0,0 0,-0.12487 0.06332,-0.24795l-0.06332,-0.1404c0,0 0,-0.48543 0.48543,-0.48543z" data-paper-data="{&quot;index&quot;:null}" fill="#8e4108" stroke="none" stroke-width="0.5" stroke-linecap="butt"/><path d="M34.66309,14.43748c2.47215,0.03417 6.0972,2.37466 5.81435,3.4724c-0.07652,0.29696 -14.46573,0.94641 -18.65768,1.3615c-2.03733,0.20174 -6.09438,1.48702 -6.01786,1.19007c0.28286,-1.09774 1.9845,-3.30773 3.93376,-3.88021c2.35559,-0.69182 8.88006,-2.22734 14.92744,-2.14376z" data-paper-data="{&quot;index&quot;:null}" fill="#4f05a3" stroke="none" stroke-width="0" stroke-linecap="butt"/><path d="M16.53058,20.63954l10.86738,-2.13312l12.45281,-0.80712" data-paper-data="{&quot;index&quot;:null}" fill="none" stroke="#ffffff" stroke-width="2" stroke-linecap="round"/><path d="M30.12274,20.91262c-0.03373,0.77595 -0.80969,0.74223 -0.80969,0.74223l-0.71035,-0.42836c-0.32362,-0.25889 -0.64723,-0.51779 -0.97086,-0.77668c-1.8468,-1.5766 -4.7792,-0.5352 -6.65086,0.53433c0,0 -0.67437,0.38534 -1.05971,-0.28901c-0.38534,-0.67435 0.28901,-1.0597 0.28901,-1.0597c2.49995,-1.42854 5.8634,-2.34971 8.39195,-0.39861c0.32362,0.25889 0.90851,0.67082 0.90851,0.67082c0,0 0.64576,0.22904 0.61202,1.005z" data-paper-data="{&quot;index&quot;:null}" fill="#000000" stroke="none" stroke-width="0.5" stroke-linecap="butt"/><path d="M34.85084,18.16629c0.37949,0.67767 -0.29818,1.05717 -0.29818,1.05717l-0.89728,0.09902c-1.09421,0 -1.62756,0.21913 -1.98158,1.2812c0,0 -0.24561,0.73683 -0.98244,0.49123c-0.73684,-0.24561 -0.49122,-0.98245 -0.49122,-0.98245c0.55172,-1.65517 2.40004,-2.13582 2.40004,-2.13582c0,0 1.87117,-0.48799 2.25067,0.18967z" data-paper-data="{&quot;index&quot;:null}" fill="#000000" stroke="none" stroke-width="0.5" stroke-linecap="butt"/><path d="M33.40095,20.52827c0.19269,0 0.36708,0.07806 0.49349,0.20436c0.12644,0.12601 0.20463,0.30026 0.20463,0.49263c0,0.19236 -0.07818,0.36661 -0.20463,0.49262c-0.12641,0.1263 -0.3008,0.20437 -0.49349,0.20437c-0.19267,0 -0.36706,-0.07806 -0.4935,-0.20437c-0.1264,-0.12601 -0.20459,-0.30026 -0.20459,-0.49262c0,-0.19236 0.07817,-0.36661 0.20459,-0.49263c0.12644,-0.1263 0.30083,-0.20436 0.4935,-0.20436z" data-paper-data="{&quot;index&quot;:null}" fill="#000000" stroke="none" stroke-width="1.05702" stroke-linecap="butt"/><path d="M28.83951,25.10076c0.08433,-0.55671 0.05156,-1.25346 0.21397,-1.69212c0.35877,-0.96904 1.43734,-1.42025 2.38598,-1.42025c3.18312,0 8.13756,1.21664 8.13756,5.12667c-0.02387,1.15244 -0.24348,2.15663 -1.16254,2.95269c-0.45033,0.39006 -1.28399,0.40457 -1.84876,0.46104c-1.75803,0.17581 -3.78454,0.41869 -5.52998,0.06961c-1.52668,-0.40483 -3.00374,-0.24076 -4.21367,-1.54202c-0.85049,-0.91469 -0.73341,-2.64794 -0.07913,-3.59201c0.31622,-0.45627 1.43184,-0.38371 1.92974,-0.38371c0,0 0.06901,0 0.16683,0.02009z" fill="url(#color-1)" stroke="none" stroke-width="0.5" stroke-linecap="butt"/></g></g></svg>