<svg version="1.1" xmlns="http://www.w3.org/2000/svg" xmlns:xlink="http://www.w3.org/1999/xlink" width="483.30616" height="190.67596" viewBox="0,0,483.30616,190.67596"><defs><linearGradient x1="455.97067" y1="265.22465" x2="455.97067" y2="378.56489" gradientUnits="userSpaceOnUse" id="color-1"><stop offset="0" stop-color="#80e794"/><stop offset="1" stop-color="#39b360"/></linearGradient><linearGradient x1="239.91411" y1="266.45058" x2="239.91411" y2="455.15059" gradientUnits="userSpaceOnUse" id="color-2"><stop offset="0" stop-color="#000000" stop-opacity="0"/><stop offset="1" stop-color="#000000"/></linearGradient></defs><g transform="translate(1.02317,-264.47464)"><g data-paper-data="{&quot;isPaintingLayer&quot;:true}" fill-rule="nonzero" stroke-linecap="butt" stroke-linejoin="miter" stroke-miterlimit="10" stroke-dasharray="" stroke-dashoffset="0" style="mix-blend-mode: normal"><path d="M480.5235,382.56432c0,0 -4.60679,-0.05809 -6.92497,-0.09658c-4.97469,-0.08259 -9.98839,-0.19399 -15.00007,-0.33306c-50.24694,-1.39429 -100.37724,-5.56979 -113.26898,-11.37644c-23.46806,-10.57038 -27.85883,-30.83608 -27.85883,-46.5336c0,-32.5848 65.00856,-59 141.5,-59c5.29835,0 10.51282,0.12674 15.62961,0.37349c2.32957,0.11234 6.92665,0.41101 6.92665,0.41101z" fill="url(#color-1)" stroke="#4bca88" stroke-width="1.5"/><path d="M-1.02317,455.15059v-188.70001h481.87449v188.70002z" fill="url(#color-2)" stroke="none" stroke-width="1"/></g></g></svg>