<svg version="1.1" xmlns="http://www.w3.org/2000/svg" xmlns:xlink="http://www.w3.org/1999/xlink" width="325.34767" height="133.02925" viewBox="0,0,325.34767,133.02925"><g transform="translate(-231.51102,17.03125)"><g data-paper-data="{&quot;isPaintingLayer&quot;:true}" fill-rule="nonzero" stroke-linejoin="miter" stroke-miterlimit="10" stroke-dasharray="" stroke-dashoffset="0" style="mix-blend-mode: normal"><path d="M268.00956,115.998v-51.88274h288.84914v51.88274z" fill-opacity="0.50196" fill="#000000" stroke="none" stroke-width="0" stroke-linecap="butt"/><text transform="translate(325.88737,82.25301) scale(0.35889,0.35889)" font-size="40" xml:space="preserve" fill-opacity="0.8" fill="#ffffff" fill-rule="nonzero" stroke="none" stroke-width="1" stroke-linecap="butt" stroke-linejoin="miter" stroke-miterlimit="10" stroke-dasharray="" stroke-dashoffset="0" font-family="&quot;Microsoft YaHei&quot;, &quot;微软雅黑&quot;, STXihei, &quot;华文细黑&quot;" font-weight="normal" text-anchor="start" style="mix-blend-mode: normal"><tspan x="0" dy="0">Objective completed!</tspan></text><text transform="translate(326.28275,95.60857) scale(0.2201,0.2201)" font-size="40" xml:space="preserve" fill-opacity="0.8" fill="#ffffff" fill-rule="nonzero" stroke="none" stroke-width="1" stroke-linecap="butt" stroke-linejoin="miter" stroke-miterlimit="10" stroke-dasharray="" stroke-dashoffset="0" font-family="&quot;Microsoft YaHei&quot;, &quot;微软雅黑&quot;, STXihei, &quot;华文细黑&quot;" font-weight="normal" text-anchor="start" style="mix-blend-mode: normal"><tspan x="0" dy="0">Finish the level or return to the hub</tspan><tspan x="0" dy="46.150000000000006px">to find out more!</tspan></text><path d="M315.49765,72.50463c0,0 1.61991,10.76324 1.58953,16.15609c-0.03303,5.86512 -1.78043,17.73688 -1.78043,17.73688c0,0 -2.34876,0.45869 -3.93482,0.48218c-2.01763,0.02988 -11.25683,0.82105 -11.25683,0.82105c0,0 -12.88206,-0.60025 -15.1481,-0.65031c-1.00438,-0.02219 -3.32728,-0.57211 -3.32728,-0.57211c0,0 -2.27482,-11.25205 -2.31102,-16.97987c-0.03532,-5.58756 2.09641,-16.97669 2.09641,-16.97669c0,0 2.67762,-1.04884 4.16016,-1.04959c3.63095,-0.00184 18.18373,-0.14855 25.78221,-0.06368c2.56879,0.02869 4.13016,1.09604 4.13016,1.09604z" fill="none" stroke-opacity="0.8" stroke="#ffffff" stroke-width="1" stroke-linecap="round"/><path d="M298.29735,73.64792c4.31223,0.05158 7.71786,-0.00777 11.96546,0.84429c1.05155,0.21562 3.31656,1.02092 3.72759,2.15884c0.98459,3.07414 1.30379,6.37337 1.22002,10.52255c-0.08377,4.14918 0.43134,12.55484 -1.46476,15.89287c-1.00993,1.88767 -3.83798,2.02642 -5.79965,2.14227c-5.99252,0.34472 -12.53562,0.51763 -18.38231,0.0225c-1.9391,-0.16461 -4.52285,-0.16702 -5.50529,-1.93789c-1.72941,-3.09118 -1.56534,-11.52955 -1.588,-15.90659c-0.02265,-4.37704 -0.06343,-7.18055 1.28563,-10.42809c0.67303,-1.63153 2.58549,-2.26637 4.10082,-2.60476c3.43934,-0.78827 6.98597,-0.74691 10.44048,-0.70601z" data-paper-data="{&quot;index&quot;:null}" fill="none" stroke-opacity="0.8" stroke="#ffffff" stroke-width="1" stroke-linecap="round"/><path d="M295.87506,74.67235c0,-1.97009 1.59708,-3.56719 3.5672,-3.56719c1.97009,0 3.56719,1.59708 3.56719,3.56719c0,1.97009 -1.59708,3.5672 -3.56719,3.5672c-1.97009,0 -3.5672,-1.59708 -3.5672,-3.5672z" fill="none" stroke-opacity="0.8" stroke="#ffffff" stroke-width="1" stroke-linecap="butt"/><path d="M309.42382,81.85324c0,0.61882 -0.61882,0.61882 -0.61882,0.61882h-0.119c-2.23454,0 -4.4763,-0.00305 -6.70804,-0.00156c-5.30221,-0.74803 -10.22769,-0.59346 -15.54554,-0.59346c0,0 -0.61882,0 -0.61882,-0.61882c0,-0.61882 0.61882,-0.61882 0.61882,-0.61882c5.34225,0 10.30692,-0.17471 15.63327,0.59657c2.20391,0.00145 4.41341,-0.00156 6.62031,-0.00156h0.119c0,0 0.61882,0 0.61882,0.61882z" fill="#ffffff" stroke="none" stroke-width="0.5" stroke-linecap="butt"/><path d="M310.13784,87.20839c0,0.61882 -0.61882,0.61882 -0.61882,0.61882l-0.45874,-0.00842c-1.37851,-0.23419 -2.93758,-0.23261 -4.33348,-0.23042c-5.7952,-0.60367 -11.63354,-0.47518 -17.46136,-0.47518c0,0 -0.61882,0 -0.61882,-0.61882c0,-0.61882 0.61882,-0.61882 0.61882,-0.61882c5.84895,0 11.70943,-0.129 17.52556,0.47685c1.44714,0.00217 3.04333,0.01135 4.47275,0.24559l0.25528,-0.00842c0,0 0.61882,0 0.61882,0.61882z" fill="#ffffff" stroke="none" stroke-width="0.5" stroke-linecap="butt"/><path d="M312.75589,92.80154c0,0.61882 -0.61882,0.61882 -0.61882,0.61882h-0.35701c-3.17292,0 -6.42415,-0.16531 -9.58182,-0.47908c-2.79231,-0.27923 -5.73962,-0.99817 -8.53982,-0.59793c-2.34102,0.33461 -5.14247,1.32378 -7.45584,0.43773c0,0 -0.57456,-0.22982 -0.34473,-0.80438c0.22982,-0.57456 0.80438,-0.34473 0.80438,-0.34473c1.97435,0.83898 4.80715,-0.22623 6.82453,-0.51429c2.90862,-0.41532 5.93503,0.30215 8.83463,0.59211c3.11528,0.3136 6.32798,0.47294 9.45867,0.47294h0.35701c0,0 0.61882,0 0.61882,0.61882z" fill="#ffffff" stroke="none" stroke-width="0.5" stroke-linecap="butt"/><path d="M309.42382,98.98969c0,0.61882 -0.61882,0.61882 -0.61882,0.61882l-0.76506,-0.00211c-1.54259,-0.26916 -3.36139,0.00211 -4.94709,0.00211c-4.33059,-0.01194 -11.39735,1.50195 -15.34322,-0.04426c0,0 -0.57456,-0.22982 -0.34473,-0.80438c0.22982,-0.57456 0.80438,-0.34473 0.80438,-0.34473c1.61607,0.6634 3.51455,0.20592 5.20045,0.0763c3.24448,-0.24946 6.44455,-0.11026 9.68312,-0.12056c1.63036,0 3.45697,-0.25225 5.04917,0.00211l0.66298,-0.00211c0,0 0.61882,0 0.61882,0.61882z" fill="#ffffff" stroke="none" stroke-width="0.5" stroke-linecap="butt"/><path d="M231.51103,-4.21875v-12.8125h22.08333v12.8125z" fill-opacity="0.8" fill="#000000" stroke="none" stroke-width="0" stroke-linecap="butt"/></g></g></svg>