<svg version="1.1" xmlns="http://www.w3.org/2000/svg" xmlns:xlink="http://www.w3.org/1999/xlink" width="632.94984" height="400.9636" viewBox="0,0,632.94984,400.9636"><defs><linearGradient x1="141.66631" y1="13.1381" x2="258.17243" y2="13.16875" gradientUnits="userSpaceOnUse" id="color-1"><stop offset="0" stop-color="#adadad"/><stop offset="1" stop-color="#9e8c72"/></linearGradient><linearGradient x1="465.19413" y1="119.87003" x2="465.19413" y2="140.87004" gradientUnits="userSpaceOnUse" id="color-2"><stop offset="0" stop-color="#f2c17c"/><stop offset="1" stop-color="#a47353"/></linearGradient><linearGradient x1="550.78884" y1="119.87003" x2="550.78884" y2="140.87004" gradientUnits="userSpaceOnUse" id="color-3"><stop offset="0" stop-color="#f2f2f2"/><stop offset="1" stop-color="#a3a3a3"/></linearGradient><linearGradient x1="264.55053" y1="147.38587" x2="264.55053" y2="190.93862" gradientUnits="userSpaceOnUse" id="color-4"><stop offset="0" stop-color="#b08b2e"/><stop offset="1" stop-color="#8a6632"/></linearGradient><linearGradient x1="237.18592" y1="178.84064" x2="237.18592" y2="178.84064" gradientUnits="userSpaceOnUse" id="color-5"><stop offset="0" stop-color="#b08b2e"/><stop offset="1" stop-color="#8a6632"/></linearGradient><linearGradient x1="266.0922" y1="163.11323" x2="266.0922" y2="163.11323" gradientUnits="userSpaceOnUse" id="color-6"><stop offset="0" stop-color="#b08b2e"/><stop offset="1" stop-color="#8a6632"/></linearGradient><linearGradient x1="296.15476" y1="176.42105" x2="296.15476" y2="177.63086" gradientUnits="userSpaceOnUse" id="color-7"><stop offset="0" stop-color="#b08b2e"/><stop offset="1" stop-color="#8a6632"/></linearGradient><linearGradient x1="224.46715" y1="160.69365" x2="224.46715" y2="161.90344" gradientUnits="userSpaceOnUse" id="color-8"><stop offset="0" stop-color="#b08b2e"/><stop offset="1" stop-color="#8a6632"/></linearGradient><linearGradient x1="264.55053" y1="193.0263" x2="264.55053" y2="236.57907" gradientUnits="userSpaceOnUse" id="color-9"><stop offset="0" stop-color="#b08b2e"/><stop offset="1" stop-color="#8a6632"/></linearGradient><linearGradient x1="237.18592" y1="224.48107" x2="237.18592" y2="224.48107" gradientUnits="userSpaceOnUse" id="color-10"><stop offset="0" stop-color="#b08b2e"/><stop offset="1" stop-color="#8a6632"/></linearGradient><linearGradient x1="266.0922" y1="208.7537" x2="266.0922" y2="208.7537" gradientUnits="userSpaceOnUse" id="color-11"><stop offset="0" stop-color="#b08b2e"/><stop offset="1" stop-color="#8a6632"/></linearGradient><linearGradient x1="296.15476" y1="222.06148" x2="296.15476" y2="223.27128" gradientUnits="userSpaceOnUse" id="color-12"><stop offset="0" stop-color="#b08b2e"/><stop offset="1" stop-color="#8a6632"/></linearGradient><linearGradient x1="224.46715" y1="206.33411" x2="224.46715" y2="207.5439" gradientUnits="userSpaceOnUse" id="color-13"><stop offset="0" stop-color="#b08b2e"/><stop offset="1" stop-color="#8a6632"/></linearGradient><linearGradient x1="265.63638" y1="118.05577" x2="265.63638" y2="146.05577" gradientUnits="userSpaceOnUse" id="color-14"><stop offset="0" stop-color="#adadad"/><stop offset="1" stop-color="#9e8c72"/></linearGradient><linearGradient x1="264.63638" y1="266.05575" x2="264.63638" y2="238.05579" gradientUnits="userSpaceOnUse" id="color-15"><stop offset="0" stop-color="#adadad"/><stop offset="1" stop-color="#9e8c72"/></linearGradient><linearGradient x1="191.14013" y1="191.13848" x2="219.13973" y2="191.29219" gradientUnits="userSpaceOnUse" id="color-16"><stop offset="0" stop-color="#adadad"/><stop offset="1" stop-color="#9e8c72"/></linearGradient><linearGradient x1="339.13262" y1="192.97308" x2="311.13303" y2="192.81937" gradientUnits="userSpaceOnUse" id="color-17"><stop offset="0" stop-color="#adadad"/><stop offset="1" stop-color="#9e8c72"/></linearGradient><linearGradient x1="206.13638" y1="115.05577" x2="206.13638" y2="149.05577" gradientUnits="userSpaceOnUse" id="color-18"><stop offset="0" stop-color="#b9b9b9"/><stop offset="1" stop-color="#a8a8a8"/></linearGradient><linearGradient x1="325.13638" y1="115.05577" x2="325.13638" y2="149.05577" gradientUnits="userSpaceOnUse" id="color-19"><stop offset="0" stop-color="#b9b9b9"/><stop offset="1" stop-color="#a8a8a8"/></linearGradient><linearGradient x1="326.13638" y1="235.05579" x2="326.13638" y2="269.05575" gradientUnits="userSpaceOnUse" id="color-20"><stop offset="0" stop-color="#b9b9b9"/><stop offset="1" stop-color="#a8a8a8"/></linearGradient><linearGradient x1="205.13638" y1="235.05579" x2="205.13638" y2="269.05575" gradientUnits="userSpaceOnUse" id="color-21"><stop offset="0" stop-color="#b9b9b9"/><stop offset="1" stop-color="#a8a8a8"/></linearGradient><linearGradient x1="262.42466" y1="212.26491" x2="262.42466" y2="212.26491" gradientUnits="userSpaceOnUse" id="color-22"><stop offset="0" stop-color="#b08b2e"/><stop offset="1" stop-color="#8a6632"/></linearGradient><linearGradient x1="235.13953" y1="236.82151" x2="235.13953" y2="236.82151" gradientUnits="userSpaceOnUse" id="color-23"><stop offset="0" stop-color="#b08b2e"/><stop offset="1" stop-color="#8a6632"/></linearGradient><linearGradient x1="339.07992" y1="225.18692" x2="339.07992" y2="225.18692" gradientUnits="userSpaceOnUse" id="color-24"><stop offset="0" stop-color="#b08b2e"/><stop offset="1" stop-color="#8a6632"/></linearGradient><linearGradient x1="304.41484" y1="26.27247" x2="304.41484" y2="-1.72753" gradientUnits="userSpaceOnUse" id="color-25"><stop offset="0" stop-color="#adadad"/><stop offset="1" stop-color="#9e8c72"/></linearGradient><linearGradient x1="365.91484" y1="-4.72753" x2="365.91484" y2="29.27247" gradientUnits="userSpaceOnUse" id="color-26"><stop offset="0" stop-color="#b9b9b9"/><stop offset="1" stop-color="#a8a8a8"/></linearGradient><linearGradient x1="244.91484" y1="-4.72753" x2="244.91484" y2="29.27247" gradientUnits="userSpaceOnUse" id="color-27"><stop offset="0" stop-color="#b9b9b9"/><stop offset="1" stop-color="#a8a8a8"/></linearGradient><linearGradient x1="92.27295" y1="27.63673" x2="92.27295" y2="-0.36327" gradientUnits="userSpaceOnUse" id="color-28"><stop offset="0" stop-color="#adadad"/><stop offset="1" stop-color="#9e8c72"/></linearGradient><linearGradient x1="153.77295" y1="-3.36327" x2="153.77295" y2="30.63673" gradientUnits="userSpaceOnUse" id="color-29"><stop offset="0" stop-color="#b9b9b9"/><stop offset="1" stop-color="#a8a8a8"/></linearGradient><linearGradient x1="32.77295" y1="-3.36327" x2="32.77295" y2="30.63673" gradientUnits="userSpaceOnUse" id="color-30"><stop offset="0" stop-color="#b9b9b9"/><stop offset="1" stop-color="#a8a8a8"/></linearGradient><linearGradient x1="601.12898" y1="-12.76727" x2="601.12898" y2="388.19651" gradientUnits="userSpaceOnUse" id="color-31"><stop offset="0" stop-color="#5a5549"/><stop offset="1" stop-color="#2d2b29"/></linearGradient></defs><g transform="translate(-13.27295,12.76709)"><g data-paper-data="{&quot;isPaintingLayer&quot;:true}" fill-rule="nonzero" stroke-linejoin="miter" stroke-miterlimit="10" stroke-dasharray="" stroke-dashoffset="0" style="mix-blend-mode: normal"><path d="M257.18944,22.13822l-116.50613,-0.03065l1.96594,-17.93894l116.50613,0.03065z" fill="url(#color-1)" stroke="#6b6b6b" stroke-width="2" stroke-linecap="butt"/><g data-paper-data="{&quot;index&quot;:null}" fill="none" stroke="#c9c9c9" stroke-width="2" stroke-linecap="round"><path d="M374.11586,149.9594l16.50342,53.37108l-12.50342,-19.87108l-3.5,-1.5l-4,1.5l0.5,-33l5,-1v-11l50,-0.5"/><path d="M391.11928,232.83047l-0.5,-29l4.5,-5.5h4l6.5,1l-29.00342,-49.37108l42.00342,41.87108l-5.5,-0.5l-5.5,1l-2.5,6.5"/><path d="M377.61586,146.4594l42,14.5l3.00342,19.37108l-2.5,4v8"/><path d="M377.11586,141.9594l46.5,7.5l-4,4.5v7"/><path d="M404.11586,139.4594l2,7l-4,3.5v6l-5,3l4.00342,21.37108h-4l-2.5,3.5h-5.5l-10.50342,-14.87108l-4,-0.5l-3,1"/><path d="M423.11586,148.9594l-0.5,-3l1,-6"/><path d="M389.11586,137.9594v7l-3,5l-3,3l-4,1.5l-5,3l-2.5,2.5"/></g><path d="M369.65883,140.87004v-21h191.0706v21z" data-paper-data="{&quot;index&quot;:null}" fill="url(#color-2)" stroke="none" stroke-width="2" stroke-linecap="butt"/><path d="M536.85494,140.87004v-21h27.86783v21z" data-paper-data="{&quot;index&quot;:null}" fill="url(#color-3)" stroke="none" stroke-width="2" stroke-linecap="butt"/><g><path d="M219.45674,190.93862v-43.55272h121.5655v43.55272z" data-paper-data="{&quot;origPos&quot;:null}" fill="url(#color-4)" stroke="#75491c" stroke-width="2" stroke-linecap="butt"/><path d="M307.26157,178.84064h-86.26317" data-paper-data="{&quot;origPos&quot;:null}" fill="url(#color-5)" stroke="#75491c" stroke-width="2" stroke-linecap="round"/><path d="M239.49842,163.11323h16.35265" data-paper-data="{&quot;origPos&quot;:null}" fill="url(#color-6)" stroke="#75491c" stroke-width="2" stroke-linecap="round"/><path d="M350.87795,176.42105l-9.85572,1.20981" data-paper-data="{&quot;origPos&quot;:null}" fill="url(#color-7)" stroke="#75491c" stroke-width="2" stroke-linecap="round"/><path d="M219.45672,160.69365l10.02085,1.2098" data-paper-data="{&quot;origPos&quot;:null}" fill="url(#color-8)" stroke="#75491c" stroke-width="2" stroke-linecap="round"/><g data-paper-data="{&quot;origPos&quot;:null,&quot;index&quot;:null}" stroke="#75491c" stroke-width="2"><path d="M219.45673,255.67865v-62.65231h121.56551v62.65231z" data-paper-data="{&quot;origPos&quot;:null}" fill="url(#color-9)" stroke-linecap="butt"/><path d="M220.9984,281.0977h32.37504" data-paper-data="{&quot;origPos&quot;:null}" fill="url(#color-10)" stroke-linecap="round"/><path d="M239.49842,265.37032h16.35265" data-paper-data="{&quot;origPos&quot;:null}" fill="url(#color-11)" stroke-linecap="round"/><path d="M341.02223,279.88793l9.85572,-1.20981" data-paper-data="{&quot;origPos&quot;:null}" fill="url(#color-12)" stroke-linecap="round"/><path d="M229.47757,264.16054l-10.02085,-1.20979" data-paper-data="{&quot;origPos&quot;:null}" fill="url(#color-13)" stroke-linecap="round"/></g><g data-paper-data="{&quot;origPos&quot;:null}" stroke="#6b6b6b" stroke-width="2" stroke-linecap="butt"><g data-paper-data="{&quot;origPos&quot;:null}"><path d="M221.63638,146.05577v-28h119.37789v28z" data-paper-data="{&quot;origPos&quot;:null}" fill="url(#color-14)"/><path d="M340.01428,257.15536v28h-119.3779v-28z" data-paper-data="{&quot;origPos&quot;:null,&quot;index&quot;:null}" fill="url(#color-15)"/></g><g data-paper-data="{&quot;origPos&quot;:null,&quot;origRot&quot;:0}"><path d="M218.90348,255.37113l-27.9996,-0.15368l0.47247,-109.05835l27.9996,0.15368z" data-paper-data="{&quot;origPos&quot;:null}" fill="url(#color-16)"/><path d="M342.74717,147.83999l27.9996,0.15368l-0.47248,109.05836l-27.99959,-0.15368z" data-paper-data="{&quot;origPos&quot;:null,&quot;index&quot;:null}" fill="url(#color-17)"/></g></g><g data-paper-data="{&quot;origPos&quot;:null}" stroke-linecap="butt"><g data-paper-data="{&quot;origPos&quot;:null}" fill="none" stroke="none" stroke-width="1" font-family="sans-serif" font-weight="normal" font-size="12" text-anchor="start"/><g data-paper-data="{&quot;origPos&quot;:null,&quot;origRot&quot;:0}" fill="#a7a095" stroke="#6b6b6b" stroke-width="2"><path d="M356.84293,261.19748c4.78647,0.002 8.66504,3.88383 8.66303,8.6703c-0.002,4.78647 -3.88382,8.66504 -8.67029,8.66303c-4.78647,-0.002 -8.66504,-3.88383 -8.66304,-8.6703c0.002,-4.78647 3.88383,-8.66504 8.6703,-8.66304z" data-paper-data="{&quot;origPos&quot;:null}"/><path d="M205.4649,261.48055c4.78647,0.002 8.66504,3.88383 8.66304,8.6703c-0.00201,4.78647 -3.88383,8.66503 -8.6703,8.66303c-4.78647,-0.002 -8.66504,-3.88383 -8.66304,-8.6703c0.00201,-4.78647 3.88383,-8.66504 8.6703,-8.66303z" data-paper-data="{&quot;origPos&quot;:null}"/></g></g><g data-paper-data="{&quot;origPos&quot;:null}" stroke="#6b6b6b" stroke-width="2" stroke-linecap="butt"><path d="M187.63638,149.05577v-34h37v34z" data-paper-data="{&quot;origPos&quot;:null}" fill="url(#color-18)"/><path d="M196.80305,131.72242c0,-5.52284 4.47715,-10 10,-10c5.52285,0 10,4.47716 10,10c0,3.24695 -2.36557,3.53791 -3.09842,5.39204c-0.59143,1.49633 -1.52069,2.69867 -2.68807,3.80592c-1.13579,1.07729 -2.64808,0.80204 -4.21352,0.80204c0,0 -2.75392,0.61842 -4.36104,-0.45866c-1.38941,-0.93117 -2.6043,-3.87524 -2.74343,-4.10955c-1.06606,-1.79528 -2.89553,0.09105 -2.89553,-5.43179zM197.46972,132.22242c0,1.38071 3.78595,2.16666 5.16667,2.16666c0.91756,0 1.71965,-0.49431 2.15453,-1.23116c1.8634,-1.0648 1.80634,-9.29448 -1.48787,-9.29448c0,0 -3.52884,2.11278 -3.65612,2.37067c-0.77473,1.56984 -2.17721,5.80467 -2.17721,5.9883zM215.46971,131.55577c0,-1.97693 -0.18387,-3.5113 -1.33723,-5.11692c-0.96464,-1.34288 -2.34266,-2.38308 -3.9961,-2.38308c-0.91756,0 -1.55299,-0.67236 -1.98787,0.06449c-1.8799,1.07423 -0.25977,9.93551 2.65454,9.93551c3.24807,0 4.66667,-2.27586 4.66667,-2.5zM204.91843,136.80577l0.67829,-0.17632c0.95162,0.11895 1.86364,0.17632 2.82171,0.17632c0,0 1.25,-1.07692 1.25,-2.32692c0,-1.25 -1.17308,-1.25 -1.17308,-1.25c-0.85996,0 -1.65953,-0.05051 -2.51163,-0.15702l-0.98837,0.15702c0,0 -1.25,0 -1.25,1.25c0,1.25 1.17308,2.32692 1.17308,2.32692z" data-paper-data="{&quot;origPos&quot;:null}" fill="#6b6b6b"/></g><g data-paper-data="{&quot;origPos&quot;:null}" stroke="#6b6b6b" stroke-width="2" stroke-linecap="butt"><path d="M338.01428,149.05577v-34h37v34z" data-paper-data="{&quot;origPos&quot;:null}" fill="url(#color-19)"/><path d="M347.18095,131.72242c0,-5.52284 4.47716,-10 10,-10c5.52284,0 10,4.47716 10,10c0,3.24695 -2.36557,3.53791 -3.09842,5.39204c-0.59142,1.49633 -1.52069,2.69867 -2.68806,3.80592c-1.13579,1.07729 -2.64808,0.80204 -4.21352,0.80204c0,0 -2.75393,0.61842 -4.36104,-0.45866c-1.38941,-0.93117 -2.60429,-3.87524 -2.74343,-4.10955c-1.06606,-1.79528 -2.89553,0.09105 -2.89553,-5.43179zM347.84762,132.22242c0,1.38071 3.78596,2.16666 5.16666,2.16666c0.91755,0 1.71966,-0.49431 2.15454,-1.23116c1.8634,-1.0648 1.80634,-9.29448 -1.48787,-9.29448c0,0 -3.52884,2.11278 -3.65612,2.37067c-0.77473,1.56984 -2.17721,5.80467 -2.17721,5.9883zM365.84761,131.55577c0,-1.97693 -0.18387,-3.5113 -1.33723,-5.11692c-0.96463,-1.34288 -2.34266,-2.38308 -3.99609,-2.38308c-0.91755,0 -1.553,-0.67236 -1.98788,0.06449c-1.8799,1.07423 -0.25977,9.93551 2.65454,9.93551c3.24807,0 4.66666,-2.27586 4.66666,-2.5zM355.29633,136.80577l0.67829,-0.17632c0.95162,0.11895 1.86363,0.17632 2.82171,0.17632c0,0 1.25,-1.07692 1.25,-2.32692c0,-1.25 -1.17308,-1.25 -1.17308,-1.25c-0.85996,0 -1.65952,-0.05051 -2.51162,-0.15702l-0.98838,0.15702c0,0 -1.25,0 -1.25,1.25c0,1.25 1.17308,2.32692 1.17308,2.32692z" data-paper-data="{&quot;origPos&quot;:null}" fill="#6b6b6b"/></g><g data-paper-data="{&quot;origPos&quot;:null}" stroke="#6b6b6b" stroke-width="2" stroke-linecap="butt"><path d="M339.01428,288.15536v-34h37v34z" data-paper-data="{&quot;origPos&quot;:null}" fill="url(#color-20)"/><path d="M348.18095,270.82201c0,-5.52285 4.47716,-10 10,-10c5.52284,0 10,4.47715 10,10c0,3.24695 -2.36557,3.53791 -3.09842,5.39204c-0.59142,1.49633 -1.52069,2.69867 -2.68806,3.80592c-1.13579,1.07729 -2.64808,0.80204 -4.21352,0.80204c0,0 -2.75393,0.61842 -4.36104,-0.45866c-1.38941,-0.93117 -2.60429,-3.87524 -2.74343,-4.10955c-1.06606,-1.79528 -2.89553,0.09105 -2.89553,-5.43179zM348.84762,271.32201c0,1.38071 3.78596,2.16666 5.16666,2.16666c0.91755,0 1.71966,-0.49431 2.15454,-1.23116c1.8634,-1.0648 1.80634,-9.29448 -1.48787,-9.29448c0,0 -3.52884,2.11278 -3.65612,2.37067c-0.77473,1.56984 -2.17721,5.80467 -2.17721,5.98831zM366.84761,270.65536c0,-1.97693 -0.18387,-3.5113 -1.33723,-5.11692c-0.96463,-1.34289 -2.34266,-2.38308 -3.99609,-2.38308c-0.91755,0 -1.553,-0.67236 -1.98788,0.0645c-1.8799,1.07423 -0.25977,9.9355 2.65454,9.9355c3.24807,0 4.66666,-2.27585 4.66666,-2.5zM356.29633,275.90536l0.67829,-0.17632c0.95162,0.11895 1.86363,0.17632 2.82171,0.17632c0,0 1.25,-1.07693 1.25,-2.32693c0,-1.25 -1.17308,-1.25 -1.17308,-1.25c-0.85996,0 -1.65952,-0.0505 -2.51162,-0.15702l-0.98838,0.15702c0,0 -1.25,0 -1.25,1.25c0,1.25 1.17308,2.32693 1.17308,2.32693z" data-paper-data="{&quot;origPos&quot;:null}" fill="#6b6b6b"/></g><g data-paper-data="{&quot;origPos&quot;:null}" stroke="#6b6b6b" stroke-width="2" stroke-linecap="butt"><path d="M186.63638,288.15536v-34h37v34z" data-paper-data="{&quot;origPos&quot;:null}" fill="url(#color-21)"/><path d="M195.80305,270.82201c0,-5.52285 4.47715,-10 10,-10c5.52285,0 10,4.47715 10,10c0,3.24695 -2.36557,3.53791 -3.09842,5.39204c-0.59143,1.49633 -1.52069,2.69867 -2.68807,3.80592c-1.13579,1.07729 -2.64808,0.80204 -4.21352,0.80204c0,0 -2.75392,0.61842 -4.36104,-0.45866c-1.38941,-0.93117 -2.6043,-3.87524 -2.74343,-4.10955c-1.06606,-1.79528 -2.89553,0.09105 -2.89553,-5.43179zM196.46972,271.32201c0,1.38071 3.78595,2.16666 5.16667,2.16666c0.91756,0 1.71965,-0.49431 2.15453,-1.23116c1.8634,-1.0648 1.80634,-9.29448 -1.48787,-9.29448c0,0 -3.52884,2.11278 -3.65612,2.37067c-0.77473,1.56984 -2.17721,5.80467 -2.17721,5.98831zM214.46971,270.65536c0,-1.97693 -0.18387,-3.5113 -1.33723,-5.11692c-0.96464,-1.34289 -2.34266,-2.38308 -3.9961,-2.38308c-0.91756,0 -1.55299,-0.67236 -1.98787,0.0645c-1.8799,1.07423 -0.25977,9.9355 2.65454,9.9355c3.24807,0 4.66667,-2.27585 4.66667,-2.5zM203.91843,275.90536l0.67829,-0.17632c0.95162,0.11895 1.86364,0.17632 2.82171,0.17632c0,0 1.25,-1.07693 1.25,-2.32693c0,-1.25 -1.17308,-1.25 -1.17308,-1.25c-0.85996,0 -1.65953,-0.0505 -2.51163,-0.15702l-0.98837,0.15702c0,0 -1.25,0 -1.25,1.25c0,1.25 1.17308,2.32693 1.17308,2.32693z" data-paper-data="{&quot;origPos&quot;:null}" fill="#6b6b6b"/></g><path d="M332.50031,212.26491h-86.26317" fill="url(#color-22)" stroke="#75491c" stroke-width="2" stroke-linecap="round"/><path d="M305.21518,236.82151h-86.26317" fill="url(#color-23)" stroke="#75491c" stroke-width="2" stroke-linecap="round"/><path d="M328.83879,225.18692h-16.35265" fill="url(#color-24)" stroke="#75491c" stroke-width="2" stroke-linecap="round"/></g><path d="M348.41484,-1.72753v28h-88v-28z" data-paper-data="{&quot;index&quot;:null}" fill="url(#color-25)" stroke="#6b6b6b" stroke-width="2" stroke-linecap="butt"/><path d="M276.91484,12.93914c0,-4.78647 3.8802,-8.66667 8.66667,-8.66667c4.78647,0 8.66667,3.8802 8.66667,8.66667c0,4.78647 -3.8802,8.66667 -8.66667,8.66667c-4.78647,0 -8.66667,-3.8802 -8.66667,-8.66667z" fill="#a7a095" stroke="#6b6b6b" stroke-width="2" stroke-linecap="butt"/><path d="M316.91484,13.27247c0,-4.78647 3.8802,-8.66667 8.66667,-8.66667c4.78647,0 8.66667,3.8802 8.66667,8.66667c0,4.78647 -3.8802,8.66667 -8.66667,8.66667c-4.78647,0 -8.66667,-3.8802 -8.66667,-8.66667z" fill="#a7a095" stroke="#6b6b6b" stroke-width="2" stroke-linecap="butt"/><path d="M347.41484,29.27247v-34h37v34z" fill="url(#color-26)" stroke="#6b6b6b" stroke-width="2" stroke-linecap="butt"/><path d="M356.58151,11.93914c0,-5.52285 4.47716,-10 10,-10c5.52284,0 10,4.47715 10,10c0,3.24695 -2.36557,3.53791 -3.09842,5.39204c-0.59142,1.49633 -1.52069,2.69867 -2.68806,3.80592c-1.13579,1.07729 -2.64808,0.80204 -4.21352,0.80204c0,0 -2.75393,0.61842 -4.36104,-0.45866c-1.38941,-0.93117 -2.60429,-3.87524 -2.74343,-4.10955c-1.06606,-1.79528 -2.89553,0.09105 -2.89553,-5.43179zM357.24818,12.43914c0,1.38071 3.78596,2.16666 5.16666,2.16666c0.91755,0 1.71966,-0.49431 2.15454,-1.23116c1.8634,-1.0648 1.80634,-9.29448 -1.48787,-9.29448c0,0 -3.52884,2.11278 -3.65612,2.37067c-0.77473,1.56984 -2.17721,5.80467 -2.17721,5.98831zM375.24817,11.77247c0,-1.97693 -0.18387,-3.5113 -1.33723,-5.11692c-0.96463,-1.34289 -2.34266,-2.38308 -3.99609,-2.38308c-0.91755,0 -1.553,-0.67236 -1.98788,0.0645c-1.8799,1.07423 -0.25977,9.9355 2.65454,9.9355c3.24807,0 4.66666,-2.27585 4.66666,-2.5zM364.69689,17.02247l0.67829,-0.17632c0.95162,0.11895 1.86363,0.17632 2.82171,0.17632c0,0 1.25,-1.07693 1.25,-2.32693c0,-1.25 -1.17308,-1.25 -1.17308,-1.25c-0.85996,0 -1.65952,-0.0505 -2.51162,-0.15702l-0.98838,0.15702c0,0 -1.25,0 -1.25,1.25c0,1.25 1.17308,2.32693 1.17308,2.32693z" fill="#6b6b6b" stroke="#6b6b6b" stroke-width="2" stroke-linecap="butt"/><path d="M356.58151,11.93914c0,-5.52285 4.47716,-10 10,-10c5.52284,0 10,4.47715 10,10c0,3.24695 -2.36557,3.53791 -3.09842,5.39204c-0.59142,1.49633 -1.52069,2.69867 -2.68806,3.80592c-1.13579,1.07729 -2.64808,0.80204 -4.21352,0.80204c0,0 -2.75393,0.61842 -4.36104,-0.45866c-1.38941,-0.93117 -2.60429,-3.87524 -2.74343,-4.10955c-1.06606,-1.79528 -2.89553,0.09105 -2.89553,-5.43179zM357.24818,12.43914c0,1.38071 3.78596,2.16666 5.16666,2.16666c0.91755,0 1.71966,-0.49431 2.15454,-1.23116c1.8634,-1.0648 1.80634,-9.29448 -1.48787,-9.29448c0,0 -3.52884,2.11278 -3.65612,2.37067c-0.77473,1.56984 -2.17721,5.80467 -2.17721,5.98831zM375.24817,11.77247c0,-1.97693 -0.18387,-3.5113 -1.33723,-5.11692c-0.96463,-1.34289 -2.34266,-2.38308 -3.99609,-2.38308c-0.91755,0 -1.553,-0.67236 -1.98788,0.0645c-1.8799,1.07423 -0.25977,9.9355 2.65454,9.9355c3.24807,0 4.66666,-2.27585 4.66666,-2.5zM364.69689,17.02247l0.67829,-0.17632c0.95162,0.11895 1.86363,0.17632 2.82171,0.17632c0,0 1.25,-1.07693 1.25,-2.32693c0,-1.25 -1.17308,-1.25 -1.17308,-1.25c-0.85996,0 -1.65952,-0.0505 -2.51162,-0.15702l-0.98838,0.15702c0,0 -1.25,0 -1.25,1.25c0,1.25 1.17308,2.32693 1.17308,2.32693z" fill="#6b6b6b" stroke="#6b6b6b" stroke-width="2" stroke-linecap="butt"/><path d="M356.58151,11.93914c0,-5.52285 4.47716,-10 10,-10c5.52284,0 10,4.47715 10,10c0,3.24695 -2.36557,3.53791 -3.09842,5.39204c-0.59142,1.49633 -1.52069,2.69867 -2.68806,3.80592c-1.13579,1.07729 -2.64808,0.80204 -4.21352,0.80204c0,0 -2.75393,0.61842 -4.36104,-0.45866c-1.38941,-0.93117 -2.60429,-3.87524 -2.74343,-4.10955c-1.06606,-1.79528 -2.89553,0.09105 -2.89553,-5.43179zM357.24818,12.43914c0,1.38071 3.78596,2.16666 5.16666,2.16666c0.91755,0 1.71966,-0.49431 2.15454,-1.23116c1.8634,-1.0648 1.80634,-9.29448 -1.48787,-9.29448c0,0 -3.52884,2.11278 -3.65612,2.37067c-0.77473,1.56984 -2.17721,5.80467 -2.17721,5.98831zM375.24817,11.77247c0,-1.97693 -0.18387,-3.5113 -1.33723,-5.11692c-0.96463,-1.34289 -2.34266,-2.38308 -3.99609,-2.38308c-0.91755,0 -1.553,-0.67236 -1.98788,0.0645c-1.8799,1.07423 -0.25977,9.9355 2.65454,9.9355c3.24807,0 4.66666,-2.27585 4.66666,-2.5zM364.69689,17.02247l0.67829,-0.17632c0.95162,0.11895 1.86363,0.17632 2.82171,0.17632c0,0 1.25,-1.07693 1.25,-2.32693c0,-1.25 -1.17308,-1.25 -1.17308,-1.25c-0.85996,0 -1.65952,-0.0505 -2.51162,-0.15702l-0.98838,0.15702c0,0 -1.25,0 -1.25,1.25c0,1.25 1.17308,2.32693 1.17308,2.32693z" fill="#6b6b6b" stroke="#6b6b6b" stroke-width="2" stroke-linecap="butt"/><path d="M356.58151,11.93914c0,-5.52285 4.47716,-10 10,-10c5.52284,0 10,4.47715 10,10c0,3.24695 -2.36557,3.53791 -3.09842,5.39204c-0.59142,1.49633 -1.52069,2.69867 -2.68806,3.80592c-1.13579,1.07729 -2.64808,0.80204 -4.21352,0.80204c0,0 -2.75393,0.61842 -4.36104,-0.45866c-1.38941,-0.93117 -2.60429,-3.87524 -2.74343,-4.10955c-1.06606,-1.79528 -2.89553,0.09105 -2.89553,-5.43179zM357.24818,12.43914c0,1.38071 3.78596,2.16666 5.16666,2.16666c0.91755,0 1.71966,-0.49431 2.15454,-1.23116c1.8634,-1.0648 1.80634,-9.29448 -1.48787,-9.29448c0,0 -3.52884,2.11278 -3.65612,2.37067c-0.77473,1.56984 -2.17721,5.80467 -2.17721,5.98831zM375.24817,11.77247c0,-1.97693 -0.18387,-3.5113 -1.33723,-5.11692c-0.96463,-1.34289 -2.34266,-2.38308 -3.99609,-2.38308c-0.91755,0 -1.553,-0.67236 -1.98788,0.0645c-1.8799,1.07423 -0.25977,9.9355 2.65454,9.9355c3.24807,0 4.66666,-2.27585 4.66666,-2.5zM364.69689,17.02247l0.67829,-0.17632c0.95162,0.11895 1.86363,0.17632 2.82171,0.17632c0,0 1.25,-1.07693 1.25,-2.32693c0,-1.25 -1.17308,-1.25 -1.17308,-1.25c-0.85996,0 -1.65952,-0.0505 -2.51162,-0.15702l-0.98838,0.15702c0,0 -1.25,0 -1.25,1.25c0,1.25 1.17308,2.32693 1.17308,2.32693z" fill="#6b6b6b" stroke="#6b6b6b" stroke-width="2" stroke-linecap="butt"/><path d="M226.41484,29.27247v-34h37v34z" fill="url(#color-27)" stroke="#6b6b6b" stroke-width="2" stroke-linecap="butt"/><path d="M235.58151,11.93914c0,-5.52285 4.47715,-10 10,-10c5.52285,0 10,4.47715 10,10c0,3.24695 -2.36557,3.53791 -3.09842,5.39204c-0.59143,1.49633 -1.52069,2.69867 -2.68807,3.80592c-1.13579,1.07729 -2.64808,0.80204 -4.21352,0.80204c0,0 -2.75392,0.61842 -4.36104,-0.45866c-1.38941,-0.93117 -2.6043,-3.87524 -2.74343,-4.10955c-1.06606,-1.79528 -2.89553,0.09105 -2.89553,-5.43179zM236.24818,12.43914c0,1.38071 3.78595,2.16666 5.16667,2.16666c0.91756,0 1.71965,-0.49431 2.15453,-1.23116c1.8634,-1.0648 1.80634,-9.29448 -1.48787,-9.29448c0,0 -3.52884,2.11278 -3.65612,2.37067c-0.77473,1.56984 -2.17721,5.80467 -2.17721,5.98831zM254.24817,11.77247c0,-1.97693 -0.18387,-3.5113 -1.33723,-5.11692c-0.96464,-1.34289 -2.34266,-2.38308 -3.9961,-2.38308c-0.91756,0 -1.55299,-0.67236 -1.98787,0.0645c-1.8799,1.07423 -0.25977,9.9355 2.65454,9.9355c3.24807,0 4.66667,-2.27585 4.66667,-2.5zM243.69689,17.02247l0.67829,-0.17632c0.95162,0.11895 1.86364,0.17632 2.82171,0.17632c0,0 1.25,-1.07693 1.25,-2.32693c0,-1.25 -1.17308,-1.25 -1.17308,-1.25c-0.85996,0 -1.65953,-0.0505 -2.51163,-0.15702l-0.98837,0.15702c0,0 -1.25,0 -1.25,1.25c0,1.25 1.17308,2.32693 1.17308,2.32693z" fill="#6b6b6b" stroke="#6b6b6b" stroke-width="2" stroke-linecap="butt"/><path d="M235.58151,11.93914c0,-5.52285 4.47715,-10 10,-10c5.52285,0 10,4.47715 10,10c0,3.24695 -2.36557,3.53791 -3.09842,5.39204c-0.59143,1.49633 -1.52069,2.69867 -2.68807,3.80592c-1.13579,1.07729 -2.64808,0.80204 -4.21352,0.80204c0,0 -2.75392,0.61842 -4.36104,-0.45866c-1.38941,-0.93117 -2.6043,-3.87524 -2.74343,-4.10955c-1.06606,-1.79528 -2.89553,0.09105 -2.89553,-5.43179zM236.24818,12.43914c0,1.38071 3.78595,2.16666 5.16667,2.16666c0.91756,0 1.71965,-0.49431 2.15453,-1.23116c1.8634,-1.0648 1.80634,-9.29448 -1.48787,-9.29448c0,0 -3.52884,2.11278 -3.65612,2.37067c-0.77473,1.56984 -2.17721,5.80467 -2.17721,5.98831zM254.24817,11.77247c0,-1.97693 -0.18387,-3.5113 -1.33723,-5.11692c-0.96464,-1.34289 -2.34266,-2.38308 -3.9961,-2.38308c-0.91756,0 -1.55299,-0.67236 -1.98787,0.0645c-1.8799,1.07423 -0.25977,9.9355 2.65454,9.9355c3.24807,0 4.66667,-2.27585 4.66667,-2.5zM243.69689,17.02247l0.67829,-0.17632c0.95162,0.11895 1.86364,0.17632 2.82171,0.17632c0,0 1.25,-1.07693 1.25,-2.32693c0,-1.25 -1.17308,-1.25 -1.17308,-1.25c-0.85996,0 -1.65953,-0.0505 -2.51163,-0.15702l-0.98837,0.15702c0,0 -1.25,0 -1.25,1.25c0,1.25 1.17308,2.32693 1.17308,2.32693z" fill="#6b6b6b" stroke="#6b6b6b" stroke-width="2" stroke-linecap="butt"/><path d="M235.58151,11.93914c0,-5.52285 4.47715,-10 10,-10c5.52285,0 10,4.47715 10,10c0,3.24695 -2.36557,3.53791 -3.09842,5.39204c-0.59143,1.49633 -1.52069,2.69867 -2.68807,3.80592c-1.13579,1.07729 -2.64808,0.80204 -4.21352,0.80204c0,0 -2.75392,0.61842 -4.36104,-0.45866c-1.38941,-0.93117 -2.6043,-3.87524 -2.74343,-4.10955c-1.06606,-1.79528 -2.89553,0.09105 -2.89553,-5.43179zM236.24818,12.43914c0,1.38071 3.78595,2.16666 5.16667,2.16666c0.91756,0 1.71965,-0.49431 2.15453,-1.23116c1.8634,-1.0648 1.80634,-9.29448 -1.48787,-9.29448c0,0 -3.52884,2.11278 -3.65612,2.37067c-0.77473,1.56984 -2.17721,5.80467 -2.17721,5.98831zM254.24817,11.77247c0,-1.97693 -0.18387,-3.5113 -1.33723,-5.11692c-0.96464,-1.34289 -2.34266,-2.38308 -3.9961,-2.38308c-0.91756,0 -1.55299,-0.67236 -1.98787,0.0645c-1.8799,1.07423 -0.25977,9.9355 2.65454,9.9355c3.24807,0 4.66667,-2.27585 4.66667,-2.5zM243.69689,17.02247l0.67829,-0.17632c0.95162,0.11895 1.86364,0.17632 2.82171,0.17632c0,0 1.25,-1.07693 1.25,-2.32693c0,-1.25 -1.17308,-1.25 -1.17308,-1.25c-0.85996,0 -1.65953,-0.0505 -2.51163,-0.15702l-0.98837,0.15702c0,0 -1.25,0 -1.25,1.25c0,1.25 1.17308,2.32693 1.17308,2.32693z" fill="#6b6b6b" stroke="#6b6b6b" stroke-width="2" stroke-linecap="butt"/><path d="M235.58151,11.93914c0,-5.52285 4.47715,-10 10,-10c5.52285,0 10,4.47715 10,10c0,3.24695 -2.36557,3.53791 -3.09842,5.39204c-0.59143,1.49633 -1.52069,2.69867 -2.68807,3.80592c-1.13579,1.07729 -2.64808,0.80204 -4.21352,0.80204c0,0 -2.75392,0.61842 -4.36104,-0.45866c-1.38941,-0.93117 -2.6043,-3.87524 -2.74343,-4.10955c-1.06606,-1.79528 -2.89553,0.09105 -2.89553,-5.43179zM236.24818,12.43914c0,1.38071 3.78595,2.16666 5.16667,2.16666c0.91756,0 1.71965,-0.49431 2.15453,-1.23116c1.8634,-1.0648 1.80634,-9.29448 -1.48787,-9.29448c0,0 -3.52884,2.11278 -3.65612,2.37067c-0.77473,1.56984 -2.17721,5.80467 -2.17721,5.98831zM254.24817,11.77247c0,-1.97693 -0.18387,-3.5113 -1.33723,-5.11692c-0.96464,-1.34289 -2.34266,-2.38308 -3.9961,-2.38308c-0.91756,0 -1.55299,-0.67236 -1.98787,0.0645c-1.8799,1.07423 -0.25977,9.9355 2.65454,9.9355c3.24807,0 4.66667,-2.27585 4.66667,-2.5zM243.69689,17.02247l0.67829,-0.17632c0.95162,0.11895 1.86364,0.17632 2.82171,0.17632c0,0 1.25,-1.07693 1.25,-2.32693c0,-1.25 -1.17308,-1.25 -1.17308,-1.25c-0.85996,0 -1.65953,-0.0505 -2.51163,-0.15702l-0.98837,0.15702c0,0 -1.25,0 -1.25,1.25c0,1.25 1.17308,2.32693 1.17308,2.32693z" fill="#6b6b6b" stroke="#6b6b6b" stroke-width="2" stroke-linecap="butt"/><path d="M136.27295,-0.36327v28h-88v-28z" data-paper-data="{&quot;index&quot;:null}" fill="url(#color-28)" stroke="#6b6b6b" stroke-width="2" stroke-linecap="butt"/><path d="M64.77295,14.3034c0,-4.78647 3.8802,-8.66667 8.66667,-8.66667c4.78647,0 8.66667,3.8802 8.66667,8.66667c0,4.78647 -3.8802,8.66667 -8.66667,8.66667c-4.78647,0 -8.66667,-3.8802 -8.66667,-8.66667z" fill="#a7a095" stroke="#6b6b6b" stroke-width="2" stroke-linecap="butt"/><path d="M104.77295,14.63673c0,-4.78647 3.8802,-8.66667 8.66667,-8.66667c4.78647,0 8.66667,3.8802 8.66667,8.66667c0,4.78647 -3.8802,8.66667 -8.66667,8.66667c-4.78647,0 -8.66667,-3.8802 -8.66667,-8.66667z" fill="#a7a095" stroke="#6b6b6b" stroke-width="2" stroke-linecap="butt"/><path d="M135.27295,30.63673v-34h37v34z" fill="url(#color-29)" stroke="#6b6b6b" stroke-width="2" stroke-linecap="butt"/><path d="M144.43962,13.3034c0,-5.52285 4.47716,-10 10,-10c5.52284,0 10,4.47715 10,10c0,3.24695 -2.36557,3.53791 -3.09842,5.39204c-0.59142,1.49633 -1.52069,2.69867 -2.68806,3.80592c-1.13579,1.07729 -2.64808,0.80204 -4.21352,0.80204c0,0 -2.75393,0.61842 -4.36104,-0.45866c-1.38941,-0.93117 -2.60429,-3.87524 -2.74343,-4.10955c-1.06606,-1.79528 -2.89553,0.09105 -2.89553,-5.43179zM145.10629,13.8034c0,1.38071 3.78596,2.16666 5.16666,2.16666c0.91755,0 1.71966,-0.49431 2.15454,-1.23116c1.8634,-1.0648 1.80634,-9.29448 -1.48787,-9.29448c0,0 -3.52884,2.11278 -3.65612,2.37067c-0.77473,1.56984 -2.17721,5.80467 -2.17721,5.98831zM163.10628,13.13673c0,-1.97693 -0.18387,-3.5113 -1.33723,-5.11692c-0.96463,-1.34289 -2.34266,-2.38308 -3.99609,-2.38308c-0.91755,0 -1.553,-0.67236 -1.98788,0.0645c-1.8799,1.07423 -0.25977,9.9355 2.65454,9.9355c3.24807,0 4.66666,-2.27585 4.66666,-2.5zM152.555,18.38673l0.67829,-0.17632c0.95162,0.11895 1.86363,0.17632 2.82171,0.17632c0,0 1.25,-1.07693 1.25,-2.32693c0,-1.25 -1.17308,-1.25 -1.17308,-1.25c-0.85996,0 -1.65952,-0.0505 -2.51162,-0.15702l-0.98838,0.15702c0,0 -1.25,0 -1.25,1.25c0,1.25 1.17308,2.32693 1.17308,2.32693z" fill="#6b6b6b" stroke="#6b6b6b" stroke-width="2" stroke-linecap="butt"/><path d="M144.43962,13.3034c0,-5.52285 4.47716,-10 10,-10c5.52284,0 10,4.47715 10,10c0,3.24695 -2.36557,3.53791 -3.09842,5.39204c-0.59142,1.49633 -1.52069,2.69867 -2.68806,3.80592c-1.13579,1.07729 -2.64808,0.80204 -4.21352,0.80204c0,0 -2.75393,0.61842 -4.36104,-0.45866c-1.38941,-0.93117 -2.60429,-3.87524 -2.74343,-4.10955c-1.06606,-1.79528 -2.89553,0.09105 -2.89553,-5.43179zM145.10629,13.8034c0,1.38071 3.78596,2.16666 5.16666,2.16666c0.91755,0 1.71966,-0.49431 2.15454,-1.23116c1.8634,-1.0648 1.80634,-9.29448 -1.48787,-9.29448c0,0 -3.52884,2.11278 -3.65612,2.37067c-0.77473,1.56984 -2.17721,5.80467 -2.17721,5.98831zM163.10628,13.13673c0,-1.97693 -0.18387,-3.5113 -1.33723,-5.11692c-0.96463,-1.34289 -2.34266,-2.38308 -3.99609,-2.38308c-0.91755,0 -1.553,-0.67236 -1.98788,0.0645c-1.8799,1.07423 -0.25977,9.9355 2.65454,9.9355c3.24807,0 4.66666,-2.27585 4.66666,-2.5zM152.555,18.38673l0.67829,-0.17632c0.95162,0.11895 1.86363,0.17632 2.82171,0.17632c0,0 1.25,-1.07693 1.25,-2.32693c0,-1.25 -1.17308,-1.25 -1.17308,-1.25c-0.85996,0 -1.65952,-0.0505 -2.51162,-0.15702l-0.98838,0.15702c0,0 -1.25,0 -1.25,1.25c0,1.25 1.17308,2.32693 1.17308,2.32693z" fill="#6b6b6b" stroke="#6b6b6b" stroke-width="2" stroke-linecap="butt"/><path d="M144.43962,13.3034c0,-5.52285 4.47716,-10 10,-10c5.52284,0 10,4.47715 10,10c0,3.24695 -2.36557,3.53791 -3.09842,5.39204c-0.59142,1.49633 -1.52069,2.69867 -2.68806,3.80592c-1.13579,1.07729 -2.64808,0.80204 -4.21352,0.80204c0,0 -2.75393,0.61842 -4.36104,-0.45866c-1.38941,-0.93117 -2.60429,-3.87524 -2.74343,-4.10955c-1.06606,-1.79528 -2.89553,0.09105 -2.89553,-5.43179zM145.10629,13.8034c0,1.38071 3.78596,2.16666 5.16666,2.16666c0.91755,0 1.71966,-0.49431 2.15454,-1.23116c1.8634,-1.0648 1.80634,-9.29448 -1.48787,-9.29448c0,0 -3.52884,2.11278 -3.65612,2.37067c-0.77473,1.56984 -2.17721,5.80467 -2.17721,5.98831zM163.10628,13.13673c0,-1.97693 -0.18387,-3.5113 -1.33723,-5.11692c-0.96463,-1.34289 -2.34266,-2.38308 -3.99609,-2.38308c-0.91755,0 -1.553,-0.67236 -1.98788,0.0645c-1.8799,1.07423 -0.25977,9.9355 2.65454,9.9355c3.24807,0 4.66666,-2.27585 4.66666,-2.5zM152.555,18.38673l0.67829,-0.17632c0.95162,0.11895 1.86363,0.17632 2.82171,0.17632c0,0 1.25,-1.07693 1.25,-2.32693c0,-1.25 -1.17308,-1.25 -1.17308,-1.25c-0.85996,0 -1.65952,-0.0505 -2.51162,-0.15702l-0.98838,0.15702c0,0 -1.25,0 -1.25,1.25c0,1.25 1.17308,2.32693 1.17308,2.32693z" fill="#6b6b6b" stroke="#6b6b6b" stroke-width="2" stroke-linecap="butt"/><path d="M144.43962,13.3034c0,-5.52285 4.47716,-10 10,-10c5.52284,0 10,4.47715 10,10c0,3.24695 -2.36557,3.53791 -3.09842,5.39204c-0.59142,1.49633 -1.52069,2.69867 -2.68806,3.80592c-1.13579,1.07729 -2.64808,0.80204 -4.21352,0.80204c0,0 -2.75393,0.61842 -4.36104,-0.45866c-1.38941,-0.93117 -2.60429,-3.87524 -2.74343,-4.10955c-1.06606,-1.79528 -2.89553,0.09105 -2.89553,-5.43179zM145.10629,13.8034c0,1.38071 3.78596,2.16666 5.16666,2.16666c0.91755,0 1.71966,-0.49431 2.15454,-1.23116c1.8634,-1.0648 1.80634,-9.29448 -1.48787,-9.29448c0,0 -3.52884,2.11278 -3.65612,2.37067c-0.77473,1.56984 -2.17721,5.80467 -2.17721,5.98831zM163.10628,13.13673c0,-1.97693 -0.18387,-3.5113 -1.33723,-5.11692c-0.96463,-1.34289 -2.34266,-2.38308 -3.99609,-2.38308c-0.91755,0 -1.553,-0.67236 -1.98788,0.0645c-1.8799,1.07423 -0.25977,9.9355 2.65454,9.9355c3.24807,0 4.66666,-2.27585 4.66666,-2.5zM152.555,18.38673l0.67829,-0.17632c0.95162,0.11895 1.86363,0.17632 2.82171,0.17632c0,0 1.25,-1.07693 1.25,-2.32693c0,-1.25 -1.17308,-1.25 -1.17308,-1.25c-0.85996,0 -1.65952,-0.0505 -2.51162,-0.15702l-0.98838,0.15702c0,0 -1.25,0 -1.25,1.25c0,1.25 1.17308,2.32693 1.17308,2.32693z" fill="#6b6b6b" stroke="#6b6b6b" stroke-width="2" stroke-linecap="butt"/><path d="M14.27295,30.63673v-34h37v34z" fill="url(#color-30)" stroke="#6b6b6b" stroke-width="2" stroke-linecap="butt"/><path d="M23.43962,13.3034c0,-5.52285 4.47715,-10 10,-10c5.52285,0 10,4.47715 10,10c0,3.24695 -2.36557,3.53791 -3.09842,5.39204c-0.59143,1.49633 -1.52069,2.69867 -2.68807,3.80592c-1.13579,1.07729 -2.64808,0.80204 -4.21352,0.80204c0,0 -2.75392,0.61842 -4.36104,-0.45866c-1.38941,-0.93117 -2.6043,-3.87524 -2.74343,-4.10955c-1.06606,-1.79528 -2.89553,0.09105 -2.89553,-5.43179zM24.10629,13.8034c0,1.38071 3.78595,2.16666 5.16667,2.16666c0.91756,0 1.71965,-0.49431 2.15453,-1.23116c1.8634,-1.0648 1.80634,-9.29448 -1.48787,-9.29448c0,0 -3.52884,2.11278 -3.65612,2.37067c-0.77473,1.56984 -2.17721,5.80467 -2.17721,5.98831zM42.10628,13.13673c0,-1.97693 -0.18387,-3.5113 -1.33723,-5.11692c-0.96464,-1.34289 -2.34266,-2.38308 -3.9961,-2.38308c-0.91756,0 -1.55299,-0.67236 -1.98787,0.0645c-1.8799,1.07423 -0.25977,9.9355 2.65454,9.9355c3.24807,0 4.66667,-2.27585 4.66667,-2.5zM31.555,18.38673l0.67829,-0.17632c0.95162,0.11895 1.86364,0.17632 2.82171,0.17632c0,0 1.25,-1.07693 1.25,-2.32693c0,-1.25 -1.17308,-1.25 -1.17308,-1.25c-0.85996,0 -1.65953,-0.0505 -2.51163,-0.15702l-0.98837,0.15702c0,0 -1.25,0 -1.25,1.25c0,1.25 1.17308,2.32693 1.17308,2.32693z" fill="#6b6b6b" stroke="#6b6b6b" stroke-width="2" stroke-linecap="butt"/><path d="M23.43962,13.3034c0,-5.52285 4.47715,-10 10,-10c5.52285,0 10,4.47715 10,10c0,3.24695 -2.36557,3.53791 -3.09842,5.39204c-0.59143,1.49633 -1.52069,2.69867 -2.68807,3.80592c-1.13579,1.07729 -2.64808,0.80204 -4.21352,0.80204c0,0 -2.75392,0.61842 -4.36104,-0.45866c-1.38941,-0.93117 -2.6043,-3.87524 -2.74343,-4.10955c-1.06606,-1.79528 -2.89553,0.09105 -2.89553,-5.43179zM24.10629,13.8034c0,1.38071 3.78595,2.16666 5.16667,2.16666c0.91756,0 1.71965,-0.49431 2.15453,-1.23116c1.8634,-1.0648 1.80634,-9.29448 -1.48787,-9.29448c0,0 -3.52884,2.11278 -3.65612,2.37067c-0.77473,1.56984 -2.17721,5.80467 -2.17721,5.98831zM42.10628,13.13673c0,-1.97693 -0.18387,-3.5113 -1.33723,-5.11692c-0.96464,-1.34289 -2.34266,-2.38308 -3.9961,-2.38308c-0.91756,0 -1.55299,-0.67236 -1.98787,0.0645c-1.8799,1.07423 -0.25977,9.9355 2.65454,9.9355c3.24807,0 4.66667,-2.27585 4.66667,-2.5zM31.555,18.38673l0.67829,-0.17632c0.95162,0.11895 1.86364,0.17632 2.82171,0.17632c0,0 1.25,-1.07693 1.25,-2.32693c0,-1.25 -1.17308,-1.25 -1.17308,-1.25c-0.85996,0 -1.65953,-0.0505 -2.51163,-0.15702l-0.98837,0.15702c0,0 -1.25,0 -1.25,1.25c0,1.25 1.17308,2.32693 1.17308,2.32693z" fill="#6b6b6b" stroke="#6b6b6b" stroke-width="2" stroke-linecap="butt"/><path d="M23.43962,13.3034c0,-5.52285 4.47715,-10 10,-10c5.52285,0 10,4.47715 10,10c0,3.24695 -2.36557,3.53791 -3.09842,5.39204c-0.59143,1.49633 -1.52069,2.69867 -2.68807,3.80592c-1.13579,1.07729 -2.64808,0.80204 -4.21352,0.80204c0,0 -2.75392,0.61842 -4.36104,-0.45866c-1.38941,-0.93117 -2.6043,-3.87524 -2.74343,-4.10955c-1.06606,-1.79528 -2.89553,0.09105 -2.89553,-5.43179zM24.10629,13.8034c0,1.38071 3.78595,2.16666 5.16667,2.16666c0.91756,0 1.71965,-0.49431 2.15453,-1.23116c1.8634,-1.0648 1.80634,-9.29448 -1.48787,-9.29448c0,0 -3.52884,2.11278 -3.65612,2.37067c-0.77473,1.56984 -2.17721,5.80467 -2.17721,5.98831zM42.10628,13.13673c0,-1.97693 -0.18387,-3.5113 -1.33723,-5.11692c-0.96464,-1.34289 -2.34266,-2.38308 -3.9961,-2.38308c-0.91756,0 -1.55299,-0.67236 -1.98787,0.0645c-1.8799,1.07423 -0.25977,9.9355 2.65454,9.9355c3.24807,0 4.66667,-2.27585 4.66667,-2.5zM31.555,18.38673l0.67829,-0.17632c0.95162,0.11895 1.86364,0.17632 2.82171,0.17632c0,0 1.25,-1.07693 1.25,-2.32693c0,-1.25 -1.17308,-1.25 -1.17308,-1.25c-0.85996,0 -1.65953,-0.0505 -2.51163,-0.15702l-0.98837,0.15702c0,0 -1.25,0 -1.25,1.25c0,1.25 1.17308,2.32693 1.17308,2.32693z" fill="#6b6b6b" stroke="#6b6b6b" stroke-width="2" stroke-linecap="butt"/><path d="M23.43962,13.3034c0,-5.52285 4.47715,-10 10,-10c5.52285,0 10,4.47715 10,10c0,3.24695 -2.36557,3.53791 -3.09842,5.39204c-0.59143,1.49633 -1.52069,2.69867 -2.68807,3.80592c-1.13579,1.07729 -2.64808,0.80204 -4.21352,0.80204c0,0 -2.75392,0.61842 -4.36104,-0.45866c-1.38941,-0.93117 -2.6043,-3.87524 -2.74343,-4.10955c-1.06606,-1.79528 -2.89553,0.09105 -2.89553,-5.43179zM24.10629,13.8034c0,1.38071 3.78595,2.16666 5.16667,2.16666c0.91756,0 1.71965,-0.49431 2.15453,-1.23116c1.8634,-1.0648 1.80634,-9.29448 -1.48787,-9.29448c0,0 -3.52884,2.11278 -3.65612,2.37067c-0.77473,1.56984 -2.17721,5.80467 -2.17721,5.98831zM42.10628,13.13673c0,-1.97693 -0.18387,-3.5113 -1.33723,-5.11692c-0.96464,-1.34289 -2.34266,-2.38308 -3.9961,-2.38308c-0.91756,0 -1.55299,-0.67236 -1.98787,0.0645c-1.8799,1.07423 -0.25977,9.9355 2.65454,9.9355c3.24807,0 4.66667,-2.27585 4.66667,-2.5zM31.555,18.38673l0.67829,-0.17632c0.95162,0.11895 1.86364,0.17632 2.82171,0.17632c0,0 1.25,-1.07693 1.25,-2.32693c0,-1.25 -1.17308,-1.25 -1.17308,-1.25c-0.85996,0 -1.65953,-0.0505 -2.51163,-0.15702l-0.98837,0.15702c0,0 -1.25,0 -1.25,1.25c0,1.25 1.17308,2.32693 1.17308,2.32693z" fill="#6b6b6b" stroke="#6b6b6b" stroke-width="2" stroke-linecap="butt"/><path d="M556.03518,388.19651v-400.9636h90.18761v400.9636z" fill="url(#color-31)" stroke="#75491c" stroke-width="0" stroke-linecap="butt"/></g></g></svg>