<svg version="1.1" xmlns="http://www.w3.org/2000/svg" xmlns:xlink="http://www.w3.org/1999/xlink" width="490.72802" height="225.52856" viewBox="0,0,490.72802,225.52856"><defs><linearGradient x1="243.08041" y1="150.46368" x2="243.08041" y2="363.4893" gradientUnits="userSpaceOnUse" id="color-1"><stop offset="0" stop-color="#7c5831"/><stop offset="1" stop-color="#95693b"/></linearGradient><linearGradient x1="239.31764" y1="136.33904" x2="240.68236" y2="217.99429" gradientUnits="userSpaceOnUse" id="color-2"><stop offset="0" stop-color="#64e298"/><stop offset="1" stop-color="#60b483"/></linearGradient></defs><g transform="translate(2.66557,-138.96074)"><g data-paper-data="{&quot;isPaintingLayer&quot;:true}" fill-rule="nonzero" stroke-width="2" stroke-linejoin="miter" stroke-miterlimit="10" stroke-dasharray="" stroke-dashoffset="0" style="mix-blend-mode: normal"><path d="M-0.90164,150.46368h487.9641v213.02562h-487.9641z" fill="url(#color-1)" stroke="#763e13" stroke-linecap="butt"/><g fill="#b2b2b2" stroke="#7f7f7f" stroke-linecap="round"><path d="M50.9105,224.7037c-0.5354,-0.4558 2.3211,-0.1733 3.4706,-1.2569c1.0461,-0.9857 1.5919,-2.4037 2.2731,-3.6685c0.3374,-0.6266 0.0656,-1.9251 0.7737,-1.991c1.4161,-0.1318 2.9504,0.5676 3.9819,1.5473c1.1101,1.0539 2.0506,2.6067 2.0025,4.137c-0.0674,2.1327 -1.1077,4.218 -2.3209,5.973c-0.7809,1.1287 -2.0501,2.139 -3.4113,2.3159c-1.3337,0.1732 -2.7469,-0.5387 -3.7955,-1.3807c-1.5152,-1.2175 -3.7578,-2.6654 -3.6207,-4.5775z"/><path d="M44.6384,233.2158c-4.7128,-0.41 -6.8158,-5.7971 -8.3399,-9.8016c-1.6025,-4.2154 -1.5103,-9.4939 -0.2523,-13.9731c0.844,-2.9971 3.2074,-5.4086 5.8114,-6.8768c2.5937,-1.4613 6.2516,-2.1069 9.1582,-0.8676c4.377,1.659 10.2849,4.0586 11.1243,8.9372c0.8631,5.0366 -4.4426,9.31 -7.5731,13.3496c-2.7659,3.5687 -5.4936,9.0077 -9.9286,9.2323z"/><path d="M53.5901,231.44c1.4725,-0.9706 2.8734,-2.5364 4.6369,-2.5617c1.5193,-0.0221 4.2018,0.9606 3.8549,2.4397c-0.6834,2.918 -3.4565,5.1216 -5.9978,6.7103c-1.4691,0.9173 -3.8813,1.3592 -5.2949,0.2968c-1.0961,-1.0186 -0.4645,-3.1807 0.0957,-4.6088c0.4287,-1.0948 1.7224,-1.6284 2.1856,-2.0701z"/><path d="M64.1133,219.6474c0.3872,-0.5097 0.7728,-1.855 1.8129,-2.4034c1.3564,-0.7162 3.4345,-1.5856 4.5692,-0.6103c1.2137,1.2861 1.0443,3.7326 0.2969,5.295c-1.2947,2.7029 -3.1745,5.7049 -5.9978,6.7103c-1.431,0.5101 -2.7075,-2.0458 -2.8553,-3.5581c-0.172,-1.7552 1.2274,-3.3224 2.0273,-4.8941z"/></g><g fill="#b2b2b2" stroke="#7f7f7f" stroke-linecap="round"><path d="M171.2703,322.6029c0.6259,0.3205 -2.2191,0.7021 -3.0888,2.0209c-0.7915,1.1997 -0.9969,2.7052 -1.3691,4.0928c-0.1844,0.6873 0.3786,1.8886 -0.2954,2.1154c-1.3479,0.4538 -3.0019,0.1257 -4.231,-0.5907c-1.3226,-0.7705 -2.5947,-2.0656 -2.8997,-3.566c-0.4245,-2.0911 0.1087,-4.3596 0.8861,-6.3465c0.5006,-1.278 1.5036,-2.5529 2.7877,-3.0379c1.2582,-0.4751 2.7971,-0.1071 4.0112,0.4714c1.7544,0.8367 4.2698,1.7304 4.5758,3.6228z"/><path d="M175.4182,312.8771c4.6809,-0.6841 7.9657,4.0754 10.3693,7.6225c2.5285,3.7342 3.6519,8.8927 3.457,13.5411c-0.1326,3.1108 -1.8785,6.001 -4.0753,8.0284c-2.1884,2.0182 -5.6,3.4872 -8.7136,2.9491c-4.6412,-0.6086 -10.9425,-1.5862 -12.8806,-6.1413c-1.9976,-4.7034 2.184,-10.0818 4.3022,-14.7327c1.8717,-4.1088 3.2763,-10.0292 7.541,-11.2671z"/><path d="M167.1142,316.6628c-1.21,1.2831 -2.2135,3.1289 -3.9239,3.5587c-1.4736,0.3708 -4.3102,0.0309 -4.3125,-1.4884c-0.0055,-2.9968 2.1869,-5.7788 4.295,-7.909c1.219,-1.2305 3.465,-2.2149 5.085,-1.5059c1.3008,0.7394 1.1831,2.9889 0.9661,4.5074c-0.1656,1.1641 -1.3021,1.9808 -1.6514,2.5171z"/><path d="M159.583,330.5583c-0.2597,0.585 -0.3258,1.9829 -1.212,2.7556c-1.1555,1.0089 -2.9781,2.3326 -4.3066,1.6441c-1.4768,-0.9727 -1.8741,-3.3926 -1.5059,-5.085c0.6388,-2.9281 1.7784,-6.2818 4.295,-7.9091c1.2755,-0.8253 3.1052,1.3688 3.5966,2.8066c0.5709,1.6687 -0.4309,3.5155 -0.8482,5.2291z"/></g><g fill="#b2b2b2" stroke="#7f7f7f" stroke-linecap="round"><path d="M391.2716,267.3165c-0.6601,0.2423 0.9897,-2.1066 0.611,-3.6403c-0.3444,-1.3954 -1.3111,-2.5677 -2.0779,-3.7825c-0.3799,-0.6018 -1.6443,-1.0032 -1.3537,-1.6523c0.5811,-1.2981 1.9442,-2.2905 3.3044,-2.7075c1.4634,-0.4488 3.278,-0.5047 4.5871,0.2892c1.8243,1.1068 3.1291,3.0376 4.0613,4.9567c0.5992,1.2348 0.8554,2.8366 0.3405,4.109c-0.5047,1.2467 -1.8191,2.1276 -3.0678,2.627c-1.8049,0.7213 -4.1681,1.9628 -5.7659,0.9037z"/><path d="M395.5691,276.9249c-2.6732,3.9029 -8.3983,3.087 -12.6349,2.4464c-4.4588,-0.6761 -9.0106,-3.3504 -12.2933,-6.6474c-2.1953,-2.2079 -3.1341,-5.4514 -3.1331,-8.4407c0.002,-2.9771 1.2374,-6.48 3.7452,-8.4023c3.5959,-2.9967 8.5892,-6.9627 13.2505,-5.2961c4.8106,1.7235 5.9248,8.4444 7.9045,13.156c1.7486,4.1627 5.1451,9.2112 3.1611,13.1841z"/><path d="M398.4552,268.2933c-0.1217,-1.7594 -0.7969,-3.7489 0.0477,-5.2972c0.7274,-1.334 2.9016,-3.1873 4.0193,-2.1583c2.2053,2.0292 2.7617,5.5273 2.8964,8.5212c0.0769,1.7303 -0.7237,4.0483 -2.3437,4.7574c-1.4257,0.454 -2.9984,-1.1587 -3.9667,-2.3484c-0.7429,-0.9114 -0.5718,-2.3003 -0.7288,-2.9208z"/><path d="M393.3231,253.2959c-0.2536,-0.5877 -1.2357,-1.5847 -1.2022,-2.76c0.0429,-1.5333 0.307,-3.7703 1.7141,-4.2793c1.7165,-0.425 3.7638,0.9249 4.7573,2.3437c1.7177,2.4558 3.4084,5.5683 2.8964,8.5212c-0.259,1.497 -3.1123,1.3526 -4.5019,0.7381c-1.6133,-0.7127 -2.2904,-2.7016 -3.2661,-4.1708z"/></g><path d="M40.0475,291.8526c2.9725,-1.8154 7.557,10.5638 13.3351,11.4204c3.9824,0.5863 6.7514,-4.4362 9.2497,-7.517c1.5152,-1.8932 0.7359,-5.5608 2.3884,-5.9411c1.5711,-0.3596 3.0694,2.692 3.697,4.516c0.9785,2.2587 2.1041,5.0913 0.9228,7.2301c-3.2608,5.9007 -6.6916,13.3578 -13.106,15.4348c-5.2939,1.7144 -12.4827,-1.5073 -15.5338,-6.1605c-3.4705,-5.2926 -4.1717,-17.017 -2.1259,-20.0432z" fill="#b2b2b2" stroke="#7f7f7f" stroke-linecap="round"/><path d="M264.7565,259.8384c-1.2392,3.2552 -12.442,-3.7276 -17.5355,-0.868c-3.5081,1.9741 -2.6233,7.6406 -2.7131,11.6061c-0.0392,2.4245 2.822,4.8476 1.7481,6.1599c-1.0223,1.2461 -4.075,-0.2498 -5.6879,-1.3081c-2.1564,-1.1871 -4.7803,-2.738 -5.1554,-5.1524c-1.0333,-6.662 -2.8851,-14.6589 0.9158,-20.2277c3.1369,-4.5962 10.7935,-6.449 16.0545,-4.6371c5.9841,2.0609 13.7153,10.9028 13.9501,14.5481z" fill="#b2b2b2" stroke="#7f7f7f" stroke-linecap="round"/><path d="M433.9738,331.0967c-1.2031,-3.2687 11.831,-5.3599 13.7942,-10.8614c1.3491,-3.7926 -3.0395,-7.4848 -5.576,-10.5343c-1.5626,-1.8542 -5.3117,-1.8025 -5.3636,-3.4974c-0.0475,-1.611 3.2371,-2.4878 5.1484,-2.7489c2.4058,-0.5209 5.4031,-1.0745 7.2715,0.4999c5.1544,4.3455 11.8027,9.1601 12.5934,15.8558c0.6529,5.5262 -3.9045,11.9518 -9.0619,14.0404c-5.8662,2.3757 -17.5033,0.7849 -20.0743,-1.8099z" fill="#b2b2b2" stroke="#7f7f7f" stroke-linecap="round"/><path d="M338.62055,175.35172l-3.8497,13.06616l-7.78296,21.13301l-0.38435,-22.99679l-8.43468,-17.86154l0.11698,6.99902l-3.61575,27.0642l-0.28408,-16.99763l-7.25084,-7.87993l0.28408,16.99763l-8.88325,16.1507l-0.18382,-10.99846l-7.48478,-21.87798l-0.73266,17.01462l-5.93331,10.10056l-2.30084,-15.96378l-6.3845,-16.89567l0.36764,21.99693l-2.74941,18.04846l-5.33434,-14.91294l-4.35102,-16.92966l-2.74941,18.04846l-2.81626,14.04902l-4.38445,-18.92938l-2.33427,-17.9635l-0.7995,13.01518l-3.69931,22.0649l-3.25073,-11.94735l-6.58503,-28.89399l-1.64913,23.03077l-1.68254,21.03105l-3.38442,-19.94623l-5.36776,-16.91266l0.25066,14.99791l-6.83306,17.11658l-1.36765,-20.98008l-5.30092,-12.91322l0.35093,20.99707l-5.83304,16.09972l-0.33422,-19.99721l-4.40116,-19.92924l-4.76618,19.08231l-0.73265,17.01462l-4.3176,-14.92993l-0.36764,-21.99693l-5.83305,16.09972l-5.81634,17.09958l1.73268,-18.03147l-0.33422,-19.99721l-3.83299,14.06602l-3.79957,16.06574l-0.36764,-21.99693l-1.1337,-6.98203l-2.92767,7.38329l-1.30552,3.02224l-2.54418,10.04392l-7.78296,21.13301l-0.38435,-22.99679l-8.43468,-17.86154l0.11698,6.99902l-3.61576,27.0642l-0.28408,-16.99763l-7.25083,-7.87993l0.28408,16.99763l-8.88325,16.1507l-0.18382,-10.99846l-7.48478,-21.87798l-0.73266,17.01462l-5.9333,10.10056l-2.30084,-15.96378l-6.3845,-16.89567l0.36764,21.99693l-2.74941,18.04846l-5.33434,-14.91294l-4.35102,-16.92966l-2.74942,18.04847l-2.81625,14.04902l-4.38445,-18.92938l-2.33426,-17.9635l-0.7995,13.01518l-3.69931,22.0649l-3.25073,-11.94735l-6.58503,-28.89399l-1.64912,23.03077l-1.68255,21.03105l-3.38442,-19.94623l-5.36776,-16.91266l0.25066,14.99791l-6.83306,17.11658l-1.36765,-20.98008l-5.30092,-12.91322l0.35093,20.99707l-5.83304,16.09972l-0.33422,-19.99721l-4.40116,-19.92924l-4.76618,19.08231l-0.73265,17.01462l-4.3176,-14.92993l-0.36764,-21.99693l-5.83305,16.09972l-5.81634,17.09958l1.73267,-18.03147l-0.33422,-19.99721l-3.83299,14.06602l-3.79957,16.06574l-0.36764,-21.99693l-4.40116,-19.92924l-0.25066,-14.99791l482.04967,-1.05556l-0.00557,-0.33329l0.25066,14.99791l-3.09955,20.0546l0.36764,21.99693l-3.70114,-15.94038l-3.66771,-13.94066l0.33422,19.99721l2.01767,17.96879l-5.43472,-16.91154l-5.41802,-15.91168l0.36764,21.99693l-3.1831,15.05529l-1.14252,-16.98328l-4.60971,-18.92561l-3.09955,20.0546l0.33422,19.99721l-5.41802,-15.91168l-0.35093,-20.99707l-4.07497,13.06992l-0.50751,21.01141l-6.29317,-16.8972l-0.25066,-14.99791l-4.00813,17.06936l-2.24111,20.04025l-2.06782,-20.96837l-2.10123,-22.96809l-4.66604,29.08203l-2.3748,12.04137l-3.8014,-21.93954l-1.07568,-12.98384l-1.4161,18.02618l-3.11626,19.05474l-2.80928,-13.955l-2.87611,-17.95445l-3.14969,17.05502l-4.04154,15.06964l-2.87612,-17.95444l-0.36764,-21.99693l-4.86657,17.08371l-1.44951,16.02646l-5.31776,-9.91252l-1.14252,-16.98328l-5.64145,22.09736l0.18382,10.99846l-4.95149,-16.41955l-3.32593,-16.44672l-5.8754,8.09931l0.28408,16.99763l-3.88495,-26.93884l-4.02386,33.07186l-3.81028,-29.94051l-7.61585,31.13161l1.93217,-21.03523l-3.65101,-12.9408z" data-paper-data="{&quot;origPos&quot;:null,&quot;index&quot;:null,&quot;origRot&quot;:0}" fill="url(#color-2)" stroke="#20996f" stroke-linecap="round"/></g></g></svg>