<svg version="1.1" xmlns="http://www.w3.org/2000/svg" xmlns:xlink="http://www.w3.org/1999/xlink" width="460.96096" height="298.7988" viewBox="0,0,460.96096,298.7988"><defs><radialGradient cx="241.00444" cy="204.04512" r="18.73626" gradientUnits="userSpaceOnUse" id="color-1"><stop offset="0" stop-color="#257fff"/><stop offset="1" stop-color="#255fff"/></radialGradient><radialGradient cx="198.11504" cy="221.30012" r="18.73642" gradientUnits="userSpaceOnUse" id="color-2"><stop offset="0" stop-color="#257fff"/><stop offset="1" stop-color="#255fff"/></radialGradient><radialGradient cx="284.79679" cy="220.68309" r="18.73642" gradientUnits="userSpaceOnUse" id="color-3"><stop offset="0" stop-color="#257fff"/><stop offset="1" stop-color="#255fff"/></radialGradient></defs><g transform="translate(-9.51952,-30.6006)"><g data-paper-data="{&quot;isPaintingLayer&quot;:true}" fill-rule="nonzero" stroke-linejoin="miter" stroke-miterlimit="10" stroke-dasharray="" stroke-dashoffset="0" style="mix-blend-mode: normal"><g><path d="M200.30893,177.85129c0,0 -3.82561,2.51047 -3.11226,-1.52262c0.54978,-3.10827 -3.66676,-13.35121 0.37578,-11.23864c1.53048,0.7998 15.88503,17.4356 5.03337,17.71224c-3.13506,-0.58839 -2.29689,-4.95099 -2.29689,-4.95099z" data-paper-data="{&quot;origRot&quot;:0,&quot;index&quot;:null}" fill="#ffdebd" stroke="none" stroke-width="0" stroke-linecap="butt"/><g data-paper-data="{&quot;index&quot;:null}" stroke="none" stroke-width="0" stroke-linecap="butt"><path d="M207.0605,192.88109c0,2.91242 -1.5169,4.20172 -7.80441,4.21585c-5.0047,-0.07009 -7.45776,-0.63884 -7.6135,-3.68418c-0.10127,-1.98012 3.53742,-3.58874 7.70895,-3.58874c4.17153,0 7.70896,1.07506 7.70896,3.05707z" data-paper-data="{&quot;origPos&quot;:null}" fill="#725d4b"/><path d="M207.99098,190.8209c0,2.28281 -0.23219,4.48659 -8.83045,4.48659c-8.99701,0 -8.31574,-2.33669 -8.31574,-4.6195c0,-3.04642 2.21522,-5.45804 6.78854,-5.55349c4.57332,-0.09545 10.35765,2.16273 10.35765,5.6864z" data-paper-data="{&quot;origPos&quot;:null}" fill="#443629"/></g><g stroke="none" stroke-width="0" stroke-linecap="butt"><path d="M214.9118,135.46551c-0.15123,9.52186 -4.73884,16.83719 -26.38939,17.09716c-26.89794,0.32297 -30.71539,-3.13035 -30.94943,-16.81974c-0.09155,-5.35499 0.85158,-10.57483 4.25921,-14.09224c7.9829,-8.24011 15.11681,-9.21062 25.34634,-9.21062c15.31666,0 28.01686,5.16939 27.73326,23.02545z" data-paper-data="{&quot;origPos&quot;:null}" fill="#c0c4cc"/><path d="M203.10001,126.61794c0.23452,7.86102 -6.12447,12.42797 -13.07365,12.31093c-8.62083,-0.14519 -13.66103,-5.57335 -13.66103,-12.21723c0,-7.76841 6.21919,-11.62465 14.24841,-11.71613c8.22558,-0.09371 12.32087,6.07809 12.48628,11.62242z" fill="#9357b9"/><path d="M167.85714,132.34683c1.75384,8.43504 -8.19388,14.07762 -8.19388,14.07762c0,0 -2.57102,-3.8683 -2.3511,-12.76986c0.18685,-7.56305 3.54696,-10.88632 3.54696,-10.88632c0,0 5.24419,1.14352 6.99802,9.57856z" data-paper-data="{&quot;origRot&quot;:0}" fill="#9357b9"/><path d="M213.01795,124.23998c0,0 2.05647,1.79163 2.1636,9.45999c0.04716,3.3758 -1.20822,8.34726 -1.20822,8.34726c0,0 -4.78516,-2.18228 -4.85623,-9.85665c-0.06449,-8.43415 3.90086,-7.95061 3.90086,-7.95061z" fill="#9357b9"/></g><g stroke="none" stroke-width="0" stroke-linecap="butt"><path d="M202.71358,178.04532c0,6.45986 -6.02776,9.97853 -13.69885,9.97853c-7.67109,0 -14.08064,-3.51866 -14.08064,-9.97853c0,-4.30569 1.44238,-7.9069 4.47961,-10.95881c3.21348,-3.22901 4.81614,-3.75384 9.27722,-3.75384c0,0 6.45972,-0.90124 9.39456,2.75727c2.59137,3.23034 4.6281,5.49553 4.6281,11.9554z" data-paper-data="{&quot;origPos&quot;:null}" fill="#ffdebd"/><path d="M202.882,178.11758c-0.55477,6.436 -4.1574,10.92247 -13.25977,10.93303c-8.62612,0.01001 -15.15672,-4.10411 -14.97787,-10.93303c-0.13292,-1.38153 0.14351,-3.02131 0.14351,-3.02131c0,0 9.64715,0.09715 14.10823,0.09715l13.87696,-0.12585c0,0 0.24186,1.50804 0.10894,3.05001z" data-paper-data="{&quot;origPos&quot;:null}" fill="#c0c4cc"/></g><g stroke="none" stroke-width="0" stroke-linecap="butt"><path d="M184.0488,182.36883c-1.56709,0.71117 -10.25811,-1.15224 -10.25811,-1.15224c0,0 -1.10932,-4.89425 0.83028,-9.01154c2.8635,-6.07847 8.53563,-7.96783 8.53563,-7.96783c0,0 4.74,16.54105 0.89219,18.13161z" data-paper-data="{&quot;origPos&quot;:null}" fill="#9357b9"/><path d="M174.20016,182.61673l-0.74768,-2.35428c0,0 5.56026,0.73823 8.74789,0.95114c2.4009,0.16036 2.21073,-3.2056 1.73262,-9.22684c-0.43983,-5.53916 -2.10063,-8.6746 -2.10063,-8.6746h3.45583c0,0 3.67991,13.61032 0.91703,18.90443c-1.79604,3.4415 -12.00505,0.40015 -12.00505,0.40015z" data-paper-data="{&quot;origPos&quot;:null}" fill="#ffffff"/></g><path d="M177.4565,178.18462c0,0 0.83818,4.3626 -2.29689,4.95099c-10.85166,-0.27664 3.50288,-16.91244 5.03337,-17.71224c4.04254,-2.11256 -0.174,8.13037 0.37578,11.23865c0.71335,4.03309 -3.11226,1.52262 -3.11226,1.52262z" data-paper-data="{&quot;origRot&quot;:0,&quot;index&quot;:null}" fill="#ffdebd" stroke="none" stroke-width="0" stroke-linecap="butt"/><g data-paper-data="{&quot;index&quot;:null}" stroke="none" stroke-width="0" stroke-linecap="butt"><path d="M194.56001,163.37816c0,0 5.45479,2.00392 7.69032,8.08239c1.51425,4.11729 0.99684,7.94271 0.99684,7.94271c0,0 -3.95621,2.77956 -5.17964,2.06838c-3.69108,-6.8584 -3.50752,-18.09348 -3.50752,-18.09348z" data-paper-data="{&quot;origPos&quot;:null}" fill="#9357b9"/><path d="M192.54674,163.69394l2.4116,-0.09545c0,0 2.79288,15.28802 4.14243,15.9862c1.27634,0.6603 4.26169,-0.42936 4.26169,-0.42936l-0.48618,2.35427c0,0 -5.89738,1.96291 -6.92567,-0.82623c-0.8427,-2.28573 -3.40388,-16.98945 -3.40388,-16.98945z" data-paper-data="{&quot;origPos&quot;:null}" fill="#ffffff"/></g><g data-paper-data="{&quot;index&quot;:null}" stroke="none" stroke-width="0" stroke-linecap="butt"><path d="M171.92899,193.07199c0,-1.982 3.53743,-3.05707 7.70896,-3.05707c4.17153,0 7.81022,1.60863 7.70895,3.58874c-0.15573,3.04534 -2.60881,3.61409 -7.6135,3.68418c-6.28751,-0.01413 -7.8044,-1.30343 -7.8044,-4.21585z" data-paper-data="{&quot;origPos&quot;:null}" fill="#725d4b"/><path d="M181.35617,185.32539c4.57332,0.09545 6.78854,2.50708 6.78854,5.55349c0,2.28281 0.68128,4.6195 -8.31574,4.6195c-8.59826,0 -8.83045,-2.20377 -8.83045,-4.48658c0,-3.52367 5.78433,-5.78186 10.35765,-5.68641z" data-paper-data="{&quot;origPos&quot;:null}" fill="#443629"/></g><g><g><path d="M188.91483,165.9363c-6.83303,0.34269 -14.27737,-2.57044 -15.72425,-10.45399c-0.79806,-4.3483 -0.51035,-6.94519 -0.51035,-6.94519c0,0 3.0669,-2.81918 15.58638,-4.04072c9.92332,-0.96822 14.73608,3.44896 14.73608,3.44896c0,0 0.79734,3.91575 0.19188,7.0533c-0.60546,3.13755 -1.82119,10.31283 -14.27973,10.93764z" fill="#ffdebd" stroke="none" stroke-width="0" stroke-linecap="butt"/><path d="M191.24345,160.59185c0,0 -2.01926,0.65999 -3.70628,0.28934c-1.70983,-0.37565 -3.36642,-1.62001 -3.36642,-1.62001" fill="none" stroke="#564031" stroke-width="1.5" stroke-linecap="round"/><path d="M184.23805,157.34823c0,0 0.03462,1.00214 -0.34073,1.83708c-0.4383,0.97495 -1.34097,1.52224 -1.34097,1.52224" fill="none" stroke="#564031" stroke-width="1.5" stroke-linecap="round"/><g stroke="none" stroke-width="0" stroke-linecap="butt"><path d="M187.25565,147.43109c1.31882,0 1.75248,1.31732 1.75248,4.41143c0,2.87485 -0.55064,4.41142 -1.75248,4.41142c-1.20184,0 -1.75248,-1.42695 -1.75248,-4.41142c0,-3.0941 0.43366,-4.41142 1.75248,-4.41142z" fill="#000000"/><path d="M188.18508,149.47771c0,0.86244 -0.10196,1.31909 -0.7716,1.31909c-0.63202,0 -0.75278,-0.38143 -0.77158,-1.30029c-0.02072,-1.01267 0.34545,-1.24852 0.77158,-1.24852c0.42614,0 0.7716,0.21683 0.7716,1.22971z" fill="#ffffff"/></g><g stroke="none" stroke-width="0" stroke-linecap="butt"><path d="M195.01186,147.4222c1.31882,0 1.75248,1.31732 1.75248,4.41143c0,2.87485 -0.55064,4.41142 -1.75248,4.41142c-1.20184,0 -1.75247,-1.42695 -1.75247,-4.41142c0,-3.0941 0.43365,-4.41142 1.75247,-4.41142z" fill="#000000"/><path d="M195.94129,149.46882c0,0.86244 -0.10195,1.31909 -0.77159,1.31909c-0.63202,0 -0.75278,-0.38143 -0.77159,-1.30029c-0.02072,-1.01267 0.34546,-1.24852 0.77159,-1.24852c0.42613,0 0.77159,0.21684 0.77159,1.22971z" fill="#ffffff"/></g></g><path d="M188.988,148.02701c0,0 -1.00078,-0.06258 -1.79545,-0.51702c-0.92793,-0.53064 -1.38524,-1.48207 -1.38524,-1.48207" fill="none" stroke="#000000" stroke-width="1.5" stroke-linecap="round"/><path d="M196.98801,146.02793c0,0 -0.45731,0.95143 -1.38524,1.48207c-0.79467,0.45443 -1.79545,0.51701 -1.79545,0.51701" data-paper-data="{&quot;index&quot;:null}" fill="none" stroke="#000000" stroke-width="1.5" stroke-linecap="round"/></g></g><g><path d="M305.24226,180.40129c0,0 -3.82561,2.51047 -3.11226,-1.52262c0.54978,-3.10827 -3.66676,-13.35121 0.37578,-11.23864c1.53048,0.7998 15.88503,17.4356 5.03337,17.71224c-3.13506,-0.58839 -2.29689,-4.95099 -2.29689,-4.95099z" data-paper-data="{&quot;origRot&quot;:0,&quot;index&quot;:null}" fill="#ffdebd" stroke="none" stroke-width="0" stroke-linecap="butt"/><g data-paper-data="{&quot;index&quot;:null}" stroke="none" stroke-width="0" stroke-linecap="butt"><path d="M311.99383,195.43109c0,2.91242 -1.5169,4.20172 -7.80441,4.21585c-5.0047,-0.07009 -7.45776,-0.63884 -7.6135,-3.68418c-0.10127,-1.98012 3.53742,-3.58874 7.70895,-3.58874c4.17153,0 7.70896,1.07506 7.70896,3.05707z" data-paper-data="{&quot;origPos&quot;:null}" fill="#725d4b"/><path d="M312.92431,193.3709c0,2.28281 -0.23219,4.48659 -8.83045,4.48659c-8.99701,0 -8.31574,-2.33669 -8.31574,-4.6195c0,-3.04642 2.21522,-5.45804 6.78854,-5.55349c4.57332,-0.09545 10.35765,2.16273 10.35765,5.6864z" data-paper-data="{&quot;origPos&quot;:null}" fill="#443629"/></g><g stroke="none" stroke-width="0" stroke-linecap="butt"><path d="M319.84513,138.01551c-0.15123,9.52186 -4.73884,16.83719 -26.38939,17.09716c-26.89794,0.32297 -30.71539,-3.13035 -30.94943,-16.81974c-0.09155,-5.35499 0.85158,-10.57483 4.25921,-14.09224c7.9829,-8.24011 15.11681,-9.21062 25.34634,-9.21062c15.31666,0 28.01686,5.16939 27.73326,23.02545z" data-paper-data="{&quot;origPos&quot;:null}" fill="#c0c4cc"/><path d="M308.03334,129.16794c0.23452,7.86102 -6.12447,12.42797 -13.07365,12.31093c-8.62083,-0.14519 -13.66103,-5.57335 -13.66103,-12.21723c0,-7.76841 6.21919,-11.62465 14.24841,-11.71613c8.22558,-0.09371 12.32087,6.07809 12.48628,11.62242z" fill="#37a329"/><path d="M272.79047,134.89683c1.75384,8.43504 -8.19388,14.07762 -8.19388,14.07762c0,0 -2.57102,-3.8683 -2.3511,-12.76986c0.18685,-7.56305 3.54696,-10.88632 3.54696,-10.88632c0,0 5.24419,1.14352 6.99802,9.57856z" data-paper-data="{&quot;origRot&quot;:0}" fill="#37a329"/><path d="M317.95128,126.78998c0,0 2.05647,1.79163 2.1636,9.45999c0.04716,3.3758 -1.20822,8.34726 -1.20822,8.34726c0,0 -4.78516,-2.18228 -4.85623,-9.85665c-0.06449,-8.43415 3.90086,-7.95061 3.90086,-7.95061z" fill="#37a329"/></g><g stroke="none" stroke-width="0" stroke-linecap="butt"><path d="M307.64691,180.59532c0,6.45986 -6.02776,9.97853 -13.69885,9.97853c-7.67109,0 -14.08064,-3.51866 -14.08064,-9.97853c0,-4.30569 1.44238,-7.9069 4.47961,-10.95881c3.21348,-3.22901 4.81614,-3.75384 9.27722,-3.75384c0,0 6.45972,-0.90124 9.39456,2.75727c2.59137,3.23034 4.6281,5.49553 4.6281,11.9554z" data-paper-data="{&quot;origPos&quot;:null}" fill="#ffdebd"/><path d="M307.81533,180.66758c-0.55477,6.436 -4.1574,10.92247 -13.25977,10.93303c-8.62612,0.01001 -15.15672,-4.10411 -14.97787,-10.93303c-0.13292,-1.38153 0.14351,-3.02131 0.14351,-3.02131c0,0 9.64715,0.09715 14.10823,0.09715l13.87696,-0.12585c0,0 0.24186,1.50804 0.10894,3.05001z" data-paper-data="{&quot;origPos&quot;:null}" fill="#c0c4cc"/></g><g stroke="none" stroke-width="0" stroke-linecap="butt"><path d="M288.98213,184.91883c-1.56709,0.71117 -10.25811,-1.15224 -10.25811,-1.15224c0,0 -1.10932,-4.89425 0.83028,-9.01154c2.8635,-6.07847 8.53563,-7.96783 8.53563,-7.96783c0,0 4.74,16.54105 0.89219,18.13161z" data-paper-data="{&quot;origPos&quot;:null}" fill="#5242ad"/><path d="M279.13349,185.16673l-0.74768,-2.35428c0,0 5.56026,0.73823 8.74789,0.95114c2.4009,0.16036 2.21073,-3.2056 1.73262,-9.22684c-0.43983,-5.53916 -2.10063,-8.6746 -2.10063,-8.6746h3.45583c0,0 3.67991,13.61032 0.91703,18.90443c-1.79604,3.4415 -12.00505,0.40015 -12.00505,0.40015z" data-paper-data="{&quot;origPos&quot;:null}" fill="#ffef45"/></g><path d="M282.38983,180.73462c0,0 0.83818,4.3626 -2.29689,4.95099c-10.85166,-0.27664 3.50288,-16.91244 5.03337,-17.71224c4.04254,-2.11256 -0.17399,8.13037 0.37579,11.23865c0.71335,4.03309 -3.11227,1.52262 -3.11227,1.52262z" data-paper-data="{&quot;origRot&quot;:0,&quot;index&quot;:null}" fill="#ffdebd" stroke="none" stroke-width="0" stroke-linecap="butt"/><g data-paper-data="{&quot;index&quot;:null}" stroke="none" stroke-width="0" stroke-linecap="butt"><path d="M299.49334,165.92816c0,0 5.45479,2.00392 7.69032,8.08239c1.51425,4.11729 0.99684,7.94271 0.99684,7.94271c0,0 -3.95621,2.77956 -5.17964,2.06838c-3.69108,-6.8584 -3.50752,-18.09348 -3.50752,-18.09348z" data-paper-data="{&quot;origPos&quot;:null}" fill="#5242ad"/><path d="M297.48007,166.24394l2.4116,-0.09545c0,0 2.79288,15.28802 4.14243,15.9862c1.27634,0.6603 4.26169,-0.42936 4.26169,-0.42936l-0.48618,2.35427c0,0 -5.89738,1.96291 -6.92567,-0.82623c-0.8427,-2.28573 -3.40388,-16.98945 -3.40388,-16.98945z" data-paper-data="{&quot;origPos&quot;:null}" fill="#ffef45"/></g><g data-paper-data="{&quot;index&quot;:null}" stroke="none" stroke-width="0" stroke-linecap="butt"><path d="M276.86232,195.62199c0,-1.982 3.53743,-3.05707 7.70896,-3.05707c4.17153,0 7.81022,1.60863 7.70895,3.58874c-0.15573,3.04534 -2.60881,3.61409 -7.6135,3.68418c-6.28751,-0.01413 -7.8044,-1.30343 -7.8044,-4.21585z" data-paper-data="{&quot;origPos&quot;:null}" fill="#725d4b"/><path d="M286.2895,187.87539c4.57332,0.09545 6.78854,2.50708 6.78854,5.55349c0,2.28281 0.68128,4.6195 -8.31574,4.6195c-8.59826,0 -8.83045,-2.20377 -8.83045,-4.48658c0,-3.52367 5.78433,-5.78186 10.35765,-5.68641z" data-paper-data="{&quot;origPos&quot;:null}" fill="#443629"/></g><g><g><path d="M293.84816,168.4863c-6.83303,0.34269 -14.27737,-2.57044 -15.72425,-10.45399c-0.79806,-4.3483 -0.51035,-6.94519 -0.51035,-6.94519c0,0 3.0669,-2.81918 15.58638,-4.04072c9.92332,-0.96822 14.73608,3.44896 14.73608,3.44896c0,0 0.79734,3.91575 0.19188,7.0533c-0.60546,3.13755 -1.82119,10.31283 -14.27973,10.93764z" fill="#ffdebd" stroke="none" stroke-width="0" stroke-linecap="butt"/><path d="M296.17678,163.14185c0,0 -2.01926,0.65999 -3.70628,0.28934c-1.70983,-0.37565 -3.36642,-1.62001 -3.36642,-1.62001" fill="none" stroke="#564031" stroke-width="1.5" stroke-linecap="round"/><path d="M289.17138,159.89823c0,0 0.03462,1.00214 -0.34073,1.83708c-0.4383,0.97495 -1.34097,1.52224 -1.34097,1.52224" fill="none" stroke="#564031" stroke-width="1.5" stroke-linecap="round"/><g stroke="none" stroke-width="0" stroke-linecap="butt"><path d="M292.18898,149.98109c1.31882,0 1.75248,1.31732 1.75248,4.41143c0,2.87485 -0.55064,4.41142 -1.75248,4.41142c-1.20184,0 -1.75248,-1.42695 -1.75248,-4.41142c0,-3.0941 0.43366,-4.41142 1.75248,-4.41142z" fill="#000000"/><path d="M293.11841,152.02771c0,0.86244 -0.10196,1.31909 -0.7716,1.31909c-0.63202,0 -0.75278,-0.38143 -0.77158,-1.30029c-0.02072,-1.01267 0.34545,-1.24852 0.77158,-1.24852c0.42614,0 0.7716,0.21683 0.7716,1.22971z" fill="#ffffff"/></g><g stroke="none" stroke-width="0" stroke-linecap="butt"><path d="M299.94519,149.9722c1.31882,0 1.75248,1.31732 1.75248,4.41143c0,2.87485 -0.55064,4.41142 -1.75248,4.41142c-1.20184,0 -1.75247,-1.42695 -1.75247,-4.41142c0,-3.0941 0.43365,-4.41142 1.75247,-4.41142z" fill="#000000"/><path d="M300.87462,152.01882c0,0.86244 -0.10195,1.31909 -0.77159,1.31909c-0.63202,0 -0.75278,-0.38143 -0.77159,-1.30029c-0.02072,-1.01267 0.34546,-1.24852 0.77159,-1.24852c0.42613,0 0.77159,0.21684 0.77159,1.22971z" fill="#ffffff"/></g></g><path d="M293.92133,150.57701c0,0 -1.00078,-0.06258 -1.79545,-0.51702c-0.92793,-0.53064 -1.38524,-1.48207 -1.38524,-1.48207" fill="none" stroke="#000000" stroke-width="1.5" stroke-linecap="round"/><path d="M301.92134,148.57793c0,0 -0.45731,0.95143 -1.38524,1.48207c-0.79467,0.45443 -1.79545,0.51701 -1.79545,0.51701" data-paper-data="{&quot;index&quot;:null}" fill="none" stroke="#000000" stroke-width="1.5" stroke-linecap="round"/></g></g><path d="M240.24983,170.44137c9.85576,0 18.78737,1.53971 25.25353,4.02682c6.46743,2.48743 10.47037,5.92193 10.47037,9.71309c0,3.79117 -4.00294,7.22567 -10.47037,9.71277c-6.46616,2.48743 -15.39777,4.02714 -25.25353,4.02714c-9.85576,0 -18.78737,-1.53971 -25.25353,-4.02714c-6.46711,-2.48711 -10.47037,-5.92161 -10.47037,-9.71277c0,-3.79117 4.00325,-7.22567 10.47037,-9.71309c6.46616,-2.48711 15.39777,-4.02682 25.25353,-4.02682z" fill="#7f7f7f" stroke="none" stroke-width="0.31379" stroke-linecap="butt"/><path d="M240.00016,188.62528c24.94973,0 47.5582,2.88931 63.92947,7.55686c16.37096,4.66754 26.50441,11.11364 26.50441,18.22721c0,7.11357 -10.13345,13.55935 -26.50441,18.22689c-16.37128,4.66754 -38.97975,7.55686 -63.92947,7.55686c-24.94973,0 -47.55851,-2.88931 -63.92947,-7.55686c-16.37096,-4.66754 -26.50472,-11.11332 -26.50472,-18.22689c0,-7.11357 10.13377,-13.55967 26.50472,-18.22721c16.37096,-4.66754 38.97975,-7.55686 63.92947,-7.55686z" fill="#666666" stroke="#b2b2b2" stroke-width="4.05764" stroke-linecap="butt"/><path d="M241.0046,190.8047c5.16911,0 9.85257,1.48398 13.24536,3.88033c3.39151,2.39699 5.49074,5.70665 5.49074,9.35993c0,3.65359 -2.09923,6.96294 -5.49074,9.36025c-3.39278,2.39635 -8.07625,3.88033 -13.24536,3.88033c-5.16942,0 -9.85289,-1.48398 -13.24536,-3.88033c-3.39151,-2.3973 -5.49106,-5.70665 -5.49106,-9.36025c0,-3.65328 2.09955,-6.96294 5.49106,-9.35993c3.39246,-2.39635 8.07593,-3.88033 13.24536,-3.88033z" fill="url(#color-1)" stroke="none" stroke-width="0.31379" stroke-linecap="butt"/><path d="M198.11504,208.05986c5.16911,0 9.85289,1.48398 13.24536,3.88001c3.39151,2.3973 5.49106,5.70697 5.49106,9.36025c0,3.65328 -2.09955,6.96294 -5.49106,9.36025c-3.39246,2.39635 -8.07625,3.88001 -13.24536,3.88001c-5.16911,0 -9.85289,-1.48367 -13.24536,-3.88001c-3.39151,-2.3973 -5.49106,-5.70697 -5.49106,-9.36025c0,-3.65328 2.09955,-6.96294 5.49106,-9.36025c3.39246,-2.39603 8.07625,-3.88001 13.24536,-3.88001z" fill="url(#color-2)" stroke="none" stroke-width="0.31379" stroke-linecap="butt"/><path d="M284.79679,207.44266c5.16942,0 9.85289,1.48398 13.24536,3.88033c3.39151,2.3973 5.49106,5.70665 5.49106,9.35993c0,3.65359 -2.09955,6.96294 -5.49106,9.36025c-3.39246,2.39635 -8.07593,3.88033 -13.24536,3.88033c-5.16911,0 -9.85289,-1.48398 -13.24536,-3.88033c-3.39151,-2.3973 -5.49106,-5.70665 -5.49106,-9.36025c0,-3.65328 2.09955,-6.96263 5.49106,-9.35993c3.39246,-2.39635 8.07625,-3.88033 13.24536,-3.88033z" fill="url(#color-3)" stroke="none" stroke-width="0.31379" stroke-linecap="butt"/><path d="M9.51952,329.3994v-298.7988h460.96096v298.7988z" fill="none" stroke="none" stroke-width="0" stroke-linecap="butt"/></g></g></svg>