<svg version="1.1" xmlns="http://www.w3.org/2000/svg" xmlns:xlink="http://www.w3.org/1999/xlink" width="480" height="360" viewBox="0,0,480,360"><defs><linearGradient x1="156.95575" y1="168.555" x2="156.95575" y2="183.4605" gradientUnits="userSpaceOnUse" id="color-1"><stop offset="0" stop-color="#3988dd"/><stop offset="1" stop-color="#20f1ff"/></linearGradient><linearGradient x1="172.35395" y1="172.0265" x2="172.35395" y2="183.4605" gradientUnits="userSpaceOnUse" id="color-2"><stop offset="0" stop-color="#3988dd"/><stop offset="1" stop-color="#20f1ff"/></linearGradient><linearGradient x1="185.14005" y1="172.0148" x2="185.14005" y2="183.4605" gradientUnits="userSpaceOnUse" id="color-3"><stop offset="0" stop-color="#3988dd"/><stop offset="1" stop-color="#20f1ff"/></linearGradient><linearGradient x1="197.05505" y1="172.0148" x2="197.05505" y2="183.4605" gradientUnits="userSpaceOnUse" id="color-4"><stop offset="0" stop-color="#3988dd"/><stop offset="1" stop-color="#20f1ff"/></linearGradient><linearGradient x1="209.38295" y1="168.5662" x2="209.38295" y2="183.4605" gradientUnits="userSpaceOnUse" id="color-5"><stop offset="0" stop-color="#3988dd"/><stop offset="1" stop-color="#20f1ff"/></linearGradient><linearGradient x1="216.71545" y1="172.0148" x2="216.71545" y2="183.4605" gradientUnits="userSpaceOnUse" id="color-6"><stop offset="0" stop-color="#3988dd"/><stop offset="1" stop-color="#20f1ff"/></linearGradient><linearGradient x1="229.04285" y1="172.0148" x2="229.04285" y2="183.4605" gradientUnits="userSpaceOnUse" id="color-7"><stop offset="0" stop-color="#3988dd"/><stop offset="1" stop-color="#20f1ff"/></linearGradient><linearGradient x1="243.36405" y1="172.0377" x2="243.36405" y2="186.9091" gradientUnits="userSpaceOnUse" id="color-8"><stop offset="0" stop-color="#3988dd"/><stop offset="1" stop-color="#20f1ff"/></linearGradient><linearGradient x1="263.50555" y1="168.555" x2="263.50555" y2="183.4605" gradientUnits="userSpaceOnUse" id="color-9"><stop offset="0" stop-color="#3988dd"/><stop offset="1" stop-color="#20f1ff"/></linearGradient><linearGradient x1="280.82895" y1="172.0265" x2="280.82895" y2="183.4605" gradientUnits="userSpaceOnUse" id="color-10"><stop offset="0" stop-color="#3988dd"/><stop offset="1" stop-color="#20f1ff"/></linearGradient><linearGradient x1="294.11895" y1="172.0148" x2="294.11895" y2="183.4605" gradientUnits="userSpaceOnUse" id="color-11"><stop offset="0" stop-color="#3988dd"/><stop offset="1" stop-color="#20f1ff"/></linearGradient><linearGradient x1="306.44685" y1="172.0148" x2="306.44685" y2="183.4605" gradientUnits="userSpaceOnUse" id="color-12"><stop offset="0" stop-color="#3988dd"/><stop offset="1" stop-color="#20f1ff"/></linearGradient><linearGradient x1="128.84395" y1="193.5382" x2="128.84395" y2="209.7266" gradientUnits="userSpaceOnUse" id="color-13"><stop offset="0" stop-color="#ffffff"/><stop offset="1" stop-color="#e5e5e5"/></linearGradient><linearGradient x1="145.06755" y1="193.5265" x2="145.06755" y2="204.9722" gradientUnits="userSpaceOnUse" id="color-14"><stop offset="0" stop-color="#ffffff"/><stop offset="1" stop-color="#e5e5e5"/></linearGradient><linearGradient x1="156.98255" y1="193.5382" x2="156.98255" y2="204.9722" gradientUnits="userSpaceOnUse" id="color-15"><stop offset="0" stop-color="#ffffff"/><stop offset="1" stop-color="#e5e5e5"/></linearGradient><linearGradient x1="169.95225" y1="193.5265" x2="169.95225" y2="204.9722" gradientUnits="userSpaceOnUse" id="color-16"><stop offset="0" stop-color="#ffffff"/><stop offset="1" stop-color="#e5e5e5"/></linearGradient><linearGradient x1="185.02955" y1="190.055" x2="185.02955" y2="204.9722" gradientUnits="userSpaceOnUse" id="color-17"><stop offset="0" stop-color="#ffffff"/><stop offset="1" stop-color="#e5e5e5"/></linearGradient><linearGradient x1="199.92325" y1="190.0779" x2="199.92325" y2="204.9722" gradientUnits="userSpaceOnUse" id="color-18"><stop offset="0" stop-color="#ffffff"/><stop offset="1" stop-color="#e5e5e5"/></linearGradient><linearGradient x1="207.27865" y1="193.5494" x2="207.27865" y2="208.4208" gradientUnits="userSpaceOnUse" id="color-19"><stop offset="0" stop-color="#ffffff"/><stop offset="1" stop-color="#e5e5e5"/></linearGradient><linearGradient x1="227.42015" y1="193.5382" x2="227.42015" y2="209.7266" gradientUnits="userSpaceOnUse" id="color-20"><stop offset="0" stop-color="#ffffff"/><stop offset="1" stop-color="#e5e5e5"/></linearGradient><linearGradient x1="243.64365" y1="193.5265" x2="243.64365" y2="204.9722" gradientUnits="userSpaceOnUse" id="color-21"><stop offset="0" stop-color="#ffffff"/><stop offset="1" stop-color="#e5e5e5"/></linearGradient><linearGradient x1="255.55865" y1="193.5382" x2="255.55865" y2="204.9722" gradientUnits="userSpaceOnUse" id="color-22"><stop offset="0" stop-color="#ffffff"/><stop offset="1" stop-color="#e5e5e5"/></linearGradient><linearGradient x1="268.84865" y1="193.5265" x2="268.84865" y2="204.9722" gradientUnits="userSpaceOnUse" id="color-23"><stop offset="0" stop-color="#ffffff"/><stop offset="1" stop-color="#e5e5e5"/></linearGradient><linearGradient x1="282.87245" y1="193.5382" x2="282.87245" y2="204.9722" gradientUnits="userSpaceOnUse" id="color-24"><stop offset="0" stop-color="#ffffff"/><stop offset="1" stop-color="#e5e5e5"/></linearGradient><linearGradient x1="296.16245" y1="193.5265" x2="296.16245" y2="204.9722" gradientUnits="userSpaceOnUse" id="color-25"><stop offset="0" stop-color="#ffffff"/><stop offset="1" stop-color="#e5e5e5"/></linearGradient><linearGradient x1="311.28555" y1="190.0668" x2="311.28555" y2="204.9722" gradientUnits="userSpaceOnUse" id="color-26"><stop offset="0" stop-color="#ffffff"/><stop offset="1" stop-color="#e5e5e5"/></linearGradient><linearGradient x1="323.65925" y1="193.5265" x2="323.65925" y2="204.9722" gradientUnits="userSpaceOnUse" id="color-27"><stop offset="0" stop-color="#ffffff"/><stop offset="1" stop-color="#e5e5e5"/></linearGradient><linearGradient x1="228.90685" y1="150.2734" x2="228.90685" y2="162.1314" gradientUnits="userSpaceOnUse" id="color-28"><stop offset="0" stop-color="#ffffff"/><stop offset="1" stop-color="#e5e5e5"/></linearGradient><linearGradient x1="239.64385" y1="150.2734" x2="239.64385" y2="162.1314" gradientUnits="userSpaceOnUse" id="color-29"><stop offset="0" stop-color="#ffffff"/><stop offset="1" stop-color="#e5e5e5"/></linearGradient><linearGradient x1="250.70435" y1="153.0344" x2="250.70435" y2="162.1314" gradientUnits="userSpaceOnUse" id="color-30"><stop offset="0" stop-color="#ffffff"/><stop offset="1" stop-color="#e5e5e5"/></linearGradient></defs><g data-paper-data="{&quot;isPaintingLayer&quot;:true}" fill-rule="nonzero" stroke-linecap="butt" stroke-linejoin="miter" stroke-miterlimit="10" stroke-dasharray="" stroke-dashoffset="0" style="mix-blend-mode: normal"><path d="M0,0h480v360h-480z" data-paper-data="{&quot;origPos&quot;:null}" id="ID0.7428708053193986" fill="none" stroke="none" stroke-width="1"/><path d="M165.96065,168.555c2.75,1.3862 4.159,2.0854 4.2393,2.0854c0,0.1255 -0.5731,1.2254 -1.7187,3.3107h-0.0798c-0.0921,0 -1.4096,-0.6188 -3.9531,-1.8671l-1.2946,1.7299c2.1886,1.0541 4.8576,2.3945 7.9854,4.0328c-1.4202,2.5318 -2.4285,4.2048 -3.0245,5.0407l-6.4731,0.5731c-2.9559,-1.9933 -4.5139,-3.0245 -4.6858,-3.0931v-0.0804c0,-0.2176 0.5954,-1.1914 1.7985,-2.9447h0.149c0.4699,0.2868 1.9593,1.0998 4.457,2.4408l1.5122,-1.7187c-4.5942,-2.3376 -7.1377,-3.6551 -7.6304,-3.9643v-0.0686c1.4553,-2.8415 2.2572,-4.2851 2.3833,-4.3191c3.7918,-0.7679 5.9118,-1.1574 6.3353,-1.1574z" id="path825" fill="none" stroke="#000000" stroke-width="5"/><path d="M176.85665,172.0265c3.4481,0.6529 5.2472,1.0195 5.4073,1.111v0.1379c-0.7444,2.0965 -1.111,3.1735 -1.111,3.2538h-0.0686c-0.1948,0 -1.1116,-0.298 -2.7729,-0.8939c-0.928,1.5468 -1.3861,2.3833 -1.3861,2.486l2.2912,2.2232c1.7757,-1.6613 2.6696,-2.4978 2.7037,-2.4978c1.3867,1.8103 2.0742,2.8298 2.0742,3.0474c-0.7567,0.4353 -2.0742,1.2946 -3.9531,2.5664c-3.6316,-0.7907 -5.6026,-1.226 -5.8889,-1.3175l-1.7985,-5.8202z" id="path827" fill="none" stroke="#000000" stroke-width="5"/><path d="M193.36595,172.0148c1.5122,0.8482 2.4402,1.3978 2.784,1.6501c-1.2372,2.5775 -1.9018,3.8838 -1.9933,3.9296h-0.0804l-1.6383,-1.4319l-1.9364,2.3599l0.2176,4.2962c-0.1026,0.0921 -1.3632,0.3098 -3.7917,0.6418c-0.0921,-0.6529 -0.6875,-3.8727 -1.7874,-9.6584c0,-0.0915 1.5926,-0.332 4.789,-0.7103c0.0569,0.0575 0.1947,0.779 0.4353,2.1428c1.9134,-2.1428 2.9101,-3.2198 3.0016,-3.2198z" id="path829" fill="none" stroke="#000000" stroke-width="5"/><path d="M198.79665,172.0148c4.5368,0.6306 6.8051,1.0083 6.8051,1.1573c1.7874,1.5352 2.6814,2.3599 2.6814,2.4632c-0.7221,2.2683 -1.1345,3.6433 -1.2377,4.1361c0.7221,1.6155 1.1344,2.5781 1.2377,2.8872c0,0.0915 -1.1803,0.332 -3.5519,0.7333c-0.0346,-0.1262 -0.2522,-0.4242 -0.6529,-0.8711c-3.2656,0.6306 -5.0295,0.9397 -5.2817,0.9397l-1.7416,-4.7086l3.8381,-2.0279c0.6189,0.1026 1.5809,0.149 2.899,0.149c0,-0.1719 0.0229,-0.6764 0.0686,-1.524c-0.2176,0 -2.1997,0.149 -5.9346,0.4353l-0.0692,-0.149c0.5156,-2.4174 0.8365,-3.6205 0.9397,-3.6205zM201.17945,178.7519c0,0.0797 0.2411,0.9737 0.7332,2.6807h0.0692c0.9621,-0.63 1.4437,-1.0424 1.4437,-1.2371l0.1484,-1.226c-0.1831,0 -0.9849,-0.0686 -2.3945,-0.2176z" id="path831" fill="none" stroke="#000000" stroke-width="5"/><path d="M209.38305,168.5662c2.337,0.0463 4.0557,0.0692 5.1438,0.0692c0.1033,0 0.4013,4.6857 0.9052,14.069c-0.3895,0.1032 -1.7528,0.3549 -4.0787,0.7561c-0.1144,0 -0.4927,-2.8755 -1.1339,-8.6154c-0.0574,-0.1378 -0.3326,-2.2343 -0.8364,-6.2789z" id="path833" fill="none" stroke="#000000" stroke-width="5"/><path d="M218.45705,172.0148c4.5368,0.6306 6.8052,1.0083 6.8052,1.1573c1.7873,1.5352 2.6807,2.3599 2.6807,2.4632c-0.7215,2.2683 -1.1339,3.6433 -1.2371,4.1361c0.7221,1.6155 1.1345,2.5781 1.2371,2.8872c0,0.0915 -1.1796,0.332 -3.5512,0.7333c-0.0346,-0.1262 -0.2523,-0.4242 -0.6535,-0.8711c-3.265,0.6306 -5.0295,0.9397 -5.2812,0.9397l-1.7416,-4.7086l3.8381,-2.0279c0.6183,0.1026 1.5809,0.149 2.8984,0.149c0,-0.1719 0.0229,-0.6764 0.0687,-1.524c-0.2177,0 -2.1998,0.149 -5.9347,0.4353l-0.0686,-0.149c0.5156,-2.4174 0.8365,-3.6205 0.9397,-3.6205zM220.83985,178.7519c0,0.0797 0.2405,0.9737 0.7333,2.6807h0.0686c0.9626,-0.63 1.4436,-1.0424 1.4436,-1.2371l0.149,-1.226c-0.183,0 -0.9855,-0.0686 -2.3945,-0.2176z" data-paper-data="{&quot;origPos&quot;:null}" id="path835" fill="none" stroke="#000000" stroke-width="5"/><path d="M237.18895,172.0148h0.0457c2.0397,1.2031 3.1395,1.822 3.2997,1.8789v0.1032c-0.5268,0.6071 -1.5006,1.6501 -2.9102,3.1395c2.7729,1.0312 4.3309,1.6495 4.6747,1.8671l-2.5893,3.197c-1.7527,-1.5011 -2.8644,-2.4291 -3.3454,-2.8075c-1.1802,2.303 -1.9246,3.6663 -2.2114,4.0675h-0.0458c-2.188,-0.7679 -3.38,-1.226 -3.5747,-1.375v-0.0569l3.0251,-3.9531c-2.8069,-1.1568 -4.3197,-1.8443 -4.5145,-2.039c1.2377,-2.0965 1.9364,-3.2198 2.0854,-3.3571c0.0228,0.0575 1.3861,0.9855 4.0786,2.8069c0.9509,-1.7645 1.6155,-2.9213 1.9821,-3.4715z" id="path837" fill="none" stroke="#000000" stroke-width="5"/><path d="M248.61175,172.0377c0.1033,0.0117 0.1602,0.0692 0.1602,0.1607l-1.1914,6.5992c2.2801,-0.2634 3.414,-0.481 3.414,-0.6417c0.4241,-2.6468 0.7221,-4.1244 0.8822,-4.4453c2.8186,0.5843 4.3766,0.928 4.6858,1.0313c-1.6384,5.6483 -2.5429,8.5813 -2.7037,8.8218c-2.8755,2.0162 -4.4909,3.1278 -4.8464,3.3454c-0.1027,0 -1.9358,-0.447 -5.4877,-1.3521v-0.0798c0.9392,-2.0742 1.524,-3.1049 1.7528,-3.1049l3.4944,1.7528l1.6729,-2.8644c-1.5011,0.3784 -2.3833,0.5614 -2.6238,0.5614l-4.457,-2.3141c0.5385,-4.9838 0.8823,-7.4703 1.0313,-7.4703z" id="path839" fill="none" stroke="#000000" stroke-width="5"/><path d="M279.60295,168.555l0.0686,0.149c-0.1947,2.9213 -0.3437,4.3766 -0.447,4.3766h-0.0686c-3.1506,-0.2522 -4.9151,-0.4012 -5.27,-0.447v10.1623c0,0.1836 -0.7221,0.3097 -2.154,0.3666c0,0.0575 -0.8136,0.149 -2.4402,0.298l-0.0804,-0.149c0.3549,-6.0607 0.5731,-9.6466 0.6758,-10.7465c-1.2026,0.1948 -2.9899,0.4353 -5.3387,0.7333c-0.6992,-2.601 -1.0429,-3.9297 -1.0429,-3.9989c0,-0.1026 5.3621,-0.3437 16.0974,-0.7444z" id="path841" fill="none" stroke="#000000" stroke-width="5"/><path d="M287.32495,172.0265c3.4597,1.7756 5.3732,2.8186 5.7516,3.116c-0.4928,2.3259 -0.7908,3.5173 -0.8823,3.5865h-7.2409v0.1255l2.0278,2.5095l3.1853,-1.6272c0.3091,0.5385 0.7672,1.4893 1.3515,2.8414c-0.2745,0.0916 -2.2795,0.3895 -6.015,0.8823c-3.0931,-2.0396 -4.6511,-3.1049 -4.674,-3.1852c0.4927,-3.9637 0.7901,-5.9458 0.8822,-5.9458c3.2304,-1.375 5.0982,-2.1428 5.6138,-2.303zM286.57995,174.7988c-0.0569,0.149 -0.4693,0.7561 -1.2143,1.8219c0,0.3209 0.447,0.4811 1.3522,0.4811c0,0.0457 0.6528,0.1607 1.9592,0.3326c0.3549,-0.4928 0.5385,-0.7908 0.5385,-0.8711c-0.115,-0.6758 -0.3666,-1.0195 -0.745,-1.0195z" id="path843" fill="none" stroke="#000000" stroke-width="5"/><path d="M295.86055,172.0148c4.5367,0.6306 6.8051,1.0083 6.8051,1.1573c1.7874,1.5352 2.6813,2.3599 2.6813,2.4632c-0.7221,2.2683 -1.1344,3.6433 -1.2377,4.1361c0.7221,1.6155 1.1345,2.5781 1.2377,2.8872c0,0.0915 -1.1802,0.332 -3.5518,0.7333c-0.0346,-0.1262 -0.2522,-0.4242 -0.6529,-0.8711c-3.2656,0.6306 -5.0301,0.9397 -5.2817,0.9397l-1.7416,-4.7086l3.8381,-2.0279c0.6188,0.1026 1.5809,0.149 2.8984,0.149c0,-0.1719 0.0228,-0.6764 0.0686,-1.524c-0.2176,0 -2.1997,0.149 -5.9346,0.4353l-0.0687,-0.149c0.5157,-2.4174 0.8365,-3.6205 0.9398,-3.6205zM298.24325,178.7519c0,0.0797 0.2405,0.9737 0.7333,2.6807h0.0686c0.9626,-0.63 1.4436,-1.0424 1.4436,-1.2371l0.149,-1.226c-0.183,0 -0.9849,-0.0686 -2.3945,-0.2176z" id="path845" fill="none" stroke="#000000" stroke-width="5"/><path d="M319.17545,172.0148c1.8672,0.7678 3.4715,1.5011 4.823,2.1768c-0.3549,4.5485 -0.5725,7.0345 -0.6757,7.4586c-2.2455,0.5614 -3.5055,0.8365 -3.7695,0.8365c0,-0.9966 -0.0798,-2.9558 -0.2288,-5.8777c-0.8482,0.0804 -1.2717,0.1607 -1.2717,0.2176c0,0.2869 0.0457,1.9481 0.149,4.9726c0.0457,0 0.0686,0.0229 0.0686,0.0804c0,0.0915 -1.1802,0.3438 -3.5401,0.7561c-0.1033,-0.1261 -0.4013,-1.9821 -0.9051,-5.5797c-0.9509,0.2405 -1.4325,0.4241 -1.4325,0.5274l0.4581,4.674c-0.0915,0.1032 -1.3515,0.5044 -3.7689,1.2031c-1.4096,-4.9726 -2.2801,-8.3062 -2.635,-10.0132c2.6462,-0.6535 4.1355,-0.9855 4.4453,-0.9855c0.3549,1.3861 0.5267,2.1886 0.5267,2.4062h0.0804c1.2946,-1.192 2.188,-1.9939 2.7036,-2.4062h0.0804l2.4056,1.7298h0.0804c1.5011,-1.4547 2.303,-2.1768 2.4062,-2.1768z" id="path847" fill="none" stroke="#000000" stroke-width="5"/><path d="M134.59555,193.5383c0.2405,0.9737 0.4013,1.5808 0.4928,1.8102c3.38,-0.7679 5.1556,-1.1574 5.3503,-1.1574c2.303,3.3108 3.4486,5.0295 3.4486,5.1785l-2.635,5.5909l-5.6712,-0.9051v0.1718c0.447,3.4029 0.6646,5.2014 0.6646,5.4196c-0.0575,0 -0.0803,0.0229 -0.0803,0.0798c-0.5503,-0.0569 -0.9626,-0.0798 -1.2372,-0.0798h-0.9855c-0.5731,0 -1.4553,-0.0234 -2.635,-0.0803c-0.1032,-0.3209 -0.928,-5.2014 -2.4637,-14.631c0.264,-0.1026 2.1769,-0.5725 5.7516,-1.3972zM135.00795,198.224c0.149,1.7528 0.2869,2.635 0.4124,2.635c1.5697,0.5385 2.5206,0.8136 2.8761,0.8136l0.9051,-3.9413h-0.0804c-0.8934,0.0574 -2.2683,0.2176 -4.1132,0.4927z" id="path849" fill="none" stroke="#000000" stroke-width="5"/><path d="M153.29345,193.5265c1.5122,0.8477 2.4402,1.3979 2.784,1.6501c-1.2372,2.5775 -1.9018,3.8839 -1.9933,3.9296h-0.0804l-1.6383,-1.4324l-1.9364,2.3604l0.2176,4.2963c-0.1026,0.0915 -1.3632,0.3091 -3.7917,0.6417c-0.0921,-0.6529 -0.6875,-3.8727 -1.7874,-9.6583c0,-0.0915 1.5926,-0.332 4.789,-0.7104c0.0569,0.0575 0.1947,0.779 0.4352,2.1423c1.9135,-2.1423 2.9101,-3.2193 3.0017,-3.2193z" id="path851" fill="none" stroke="#000000" stroke-width="5"/><path d="M161.59965,193.5383c2.899,0.779 4.4452,1.2488 4.6171,1.4201c1.5926,2.2572 2.4977,3.5636 2.6925,3.9073c-1.0312,3.265 -1.6266,4.9034 -1.7756,4.9034c-3.4369,0.8019 -5.236,1.2031 -5.3962,1.2031c-2.8414,-1.6612 -4.3537,-2.5781 -4.5373,-2.7728c-0.1027,-3.082 -0.149,-4.789 -0.149,-5.1099c-0.0457,-0.0915 -0.0686,-0.1601 -0.0686,-0.2059c2.933,-2.2343 4.4452,-3.3453 4.5485,-3.3453zM161.38205,197.7313c-0.0458,0.3091 -0.1144,1.4207 -0.2059,3.3342l2.5546,0.5725c0.6071,-1.9135 0.9169,-2.933 0.9169,-3.0591c-2.0279,-0.6071 -3.1166,-0.9163 -3.2656,-0.9163z" id="path853" fill="none" stroke="#000000" stroke-width="5"/><path d="M176.13845,193.5265l0.0804,0.149l-1.5469,8.203h0.0804l3.9414,-1.1568v-4.64c0.0111,-0.1032 0.0686,-0.1607 0.149,-0.1607c2.967,0.2065 4.6171,0.3092 4.9491,0.3092c0,0.0574 0.0229,0.0803 0.0803,0.0803c0,1.3064 -0.4123,4.01 -1.2371,8.1232c0,0.2405 -1.1802,0.4124 -3.5518,0.5385c-0.1262,-0.149 -0.2294,-0.4581 -0.3092,-0.928c-3.0362,0.6183 -4.7661,0.928 -5.1902,0.928c-2.4174,-1.7991 -3.6316,-2.7271 -3.6316,-2.784c0.4123,-5.4196 0.6757,-8.2264 0.779,-8.4323h0.0686c1.9364,-0.0575 3.712,-0.1261 5.3386,-0.2294z" data-paper-data="{&quot;origPos&quot;:null}" id="path855" fill="none" stroke="#000000" stroke-width="5"/><path d="M191.96085,190.055h0.0686c3.4486,0.2863 5.1785,0.5156 5.1785,0.6758l1.524,13.4853c0,0.1027 -1.524,0.3549 -4.5714,0.7561l-0.0686,-0.149v-1.226c-2.6239,0.7104 -4.4341,1.1685 -5.4079,1.375c-2.3258,-3.2884 -3.5401,-5.0295 -3.6545,-5.2477c1.707,-3.1048 2.6233,-4.6857 2.7383,-4.7198l4.8001,0.2288c-0.1027,-0.5842 -0.298,-2.3141 -0.6071,-5.1785zM189.82965,198.2698c0.7679,2.3598 1.2489,3.6545 1.4437,3.8838l2.2801,-1.9821c-0.2405,-1.3632 -0.4124,-2.0507 -0.5268,-2.0507h-3.048c-0.1032,0.0117 -0.149,0.0686 -0.149,0.149z" id="path857" fill="none" stroke="#000000" stroke-width="5"/><path d="M199.92325,190.0779c2.3376,0.0458 4.0558,0.0686 5.1445,0.0686c0.1033,0 0.4007,4.6864 0.9051,14.0696c-0.3895,0.1027 -1.7527,0.3549 -4.0786,0.7561c-0.115,0 -0.4927,-2.8761 -1.1345,-8.6159c-0.0569,-0.1373 -0.332,-2.2338 -0.8365,-6.2784z" id="path859" fill="none" stroke="#000000" stroke-width="5"/><path d="M212.52635,193.5494c0.1033,0.0117 0.1602,0.0686 0.1602,0.1607l-1.1914,6.5993c2.2801,-0.264 3.414,-0.4816 3.414,-0.6418c0.4241,-2.6467 0.7221,-4.1244 0.8822,-4.4452c2.8186,0.5842 4.3766,0.928 4.6858,1.0306c-1.6384,5.6484 -2.5435,8.5814 -2.7037,8.8225c-2.8755,2.0161 -4.491,3.1277 -4.8464,3.3453c-0.1027,0 -1.9358,-0.4469 -5.4877,-1.3521v-0.0803c0.9392,-2.0737 1.524,-3.1049 1.7528,-3.1049l3.4944,1.7533l1.6729,-2.8643c-1.5011,0.3778 -2.3833,0.5614 -2.6238,0.5614l-4.457,-2.3148c0.5385,-4.9837 0.8822,-7.4697 1.0312,-7.4697z" id="path861" fill="none" stroke="#000000" stroke-width="5"/><path d="M233.17165,193.5383c0.2406,0.9737 0.4013,1.5808 0.4928,1.8102c3.38,-0.7679 5.1556,-1.1574 5.3504,-1.1574c2.3029,3.3108 3.4486,5.0295 3.4486,5.1785l-2.635,5.5909l-5.6713,-0.9051v0.1718c0.4464,3.4029 0.6647,5.2014 0.6647,5.4196c-0.0575,0 -0.0804,0.0229 -0.0804,0.0798c-0.5502,-0.0569 -0.9626,-0.0798 -1.2377,-0.0798h-0.9849c-0.5731,0 -1.4554,-0.0234 -2.635,-0.0803c-0.1033,-0.3209 -0.928,-5.2014 -2.4637,-14.631c0.2639,-0.1026 2.1768,-0.5725 5.7515,-1.3972zM233.58405,198.224c0.149,1.7528 0.2863,2.635 0.4124,2.635c1.5697,0.5385 2.5206,0.8136 2.8761,0.8136l0.9051,-3.9413h-0.0803c-0.894,0.0574 -2.2684,0.2176 -4.1133,0.4927z" id="path863" fill="none" stroke="#000000" stroke-width="5"/><path d="M251.86955,193.5265c1.5122,0.8477 2.4402,1.3979 2.784,1.6501c-1.2372,2.5775 -1.9018,3.8839 -1.9933,3.9296h-0.0804l-1.6383,-1.4324l-1.9364,2.3604l0.2176,4.2963c-0.1026,0.0915 -1.3632,0.3091 -3.7923,0.6417c-0.0915,-0.6529 -0.6869,-3.8727 -1.7868,-9.6583c0,-0.0915 1.592,-0.332 4.789,-0.7104c0.0569,0.0575 0.1947,0.779 0.4353,2.1423c1.9134,-2.1423 2.9101,-3.2193 3.0016,-3.2193z" id="path865" fill="none" stroke="#000000" stroke-width="5"/><path d="M262.05465,193.5383c3.4603,1.7756 5.3732,2.818 5.7516,3.116c-0.4928,2.3258 -0.7908,3.5172 -0.8823,3.5858h-7.2409v0.1262l2.0278,2.5094l3.1853,-1.6272c0.3091,0.5385 0.7678,1.4894 1.3521,2.8415c-0.2751,0.0915 -2.2801,0.3895 -6.015,0.8822c-3.0937,-2.0396 -4.6517,-3.1048 -4.6746,-3.1852c0.4927,-3.9642 0.7907,-5.9464 0.8822,-5.9464c3.231,-1.3744 5.0982,-2.1422 5.6138,-2.3023zM261.31025,196.3105c-0.0575,0.149 -0.4699,0.7561 -1.2149,1.822c0,0.3209 0.447,0.481 1.3522,0.481c0,0.0458 0.6528,0.1601 1.9592,0.332c0.3549,-0.4921 0.5385,-0.7901 0.5385,-0.8705c-0.1144,-0.6758 -0.3666,-1.0195 -0.745,-1.0195z" id="path867" fill="none" stroke="#000000" stroke-width="5"/><path d="M278.09455,193.5265c2.1998,1.409 3.414,2.2115 3.6434,2.4291c-0.7907,1.7639 -1.2489,2.6462 -1.3633,2.6462l-4.1707,-2.4174h-0.149c0,0.0804 -0.183,0.5045 -0.5379,1.2835c3.8375,2.0736 5.7628,3.1277 5.7628,3.1846c-1.077,2.4866 -1.6842,3.8041 -1.822,3.9414l-6.5189,0.3783c-2.5317,-1.6841 -3.8956,-2.5663 -4.0903,-2.6578v-0.0693c0,-0.1947 0.3783,-1.0541 1.1345,-2.5775l5.0869,2.6468l0.3778,-1.5129c-3.1506,-1.409 -5.0178,-2.2912 -5.6137,-2.6461v-0.1608c0,-0.2862 0.6071,-1.5808 1.8213,-3.861z" id="path869" fill="none" stroke="#000000" stroke-width="5"/><path d="M289.36845,193.5383c3.4597,1.7756 5.3732,2.818 5.7516,3.116c-0.4928,2.3258 -0.7908,3.5172 -0.8823,3.5858h-7.2409v0.1262l2.0278,2.5094l3.1853,-1.6272c0.3091,0.5385 0.7672,1.4894 1.3515,2.8415c-0.2751,0.0915 -2.2795,0.3895 -6.015,0.8822c-3.0931,-2.0396 -4.6511,-3.1048 -4.674,-3.1852c0.4921,-3.9642 0.7901,-5.9464 0.8816,-5.9464c3.231,-1.3744 5.0988,-2.1422 5.6144,-2.3023zM288.62345,196.3105c-0.0569,0.149 -0.4693,0.7561 -1.2143,1.822c0,0.3209 0.447,0.481 1.3521,0.481c0,0.0458 0.6529,0.1601 1.9587,0.332c0.3555,-0.4921 0.5385,-0.7901 0.5385,-0.8705c-0.1144,-0.6758 -0.3666,-1.0195 -0.7444,-1.0195z" id="path871" fill="none" stroke="#000000" stroke-width="5"/><path d="M306.33635,193.5265l3.8153,2.6239c-0.264,4.3537 -0.4588,6.8972 -0.562,7.6304c-0.4464,0.0569 -1.7868,0.1373 -4.044,0.2406l-0.0804,-0.1608l-0.4006,-6.1176l-0.1608,-0.0804c-1.4547,0.3092 -2.4631,0.5497 -3.0133,0.7104c0.149,2.6004 0.2294,4.491 0.2294,5.6484c-2.2802,0.63 -3.5173,0.9508 -3.7349,0.9508c-1.4782,-6.5188 -2.2226,-9.9675 -2.2226,-10.3341c3.2192,-0.4241 4.972,-0.6306 5.2471,-0.6306v0.0804c0.0575,0.0346 0.1378,0.8365 0.2405,2.3833c2.9559,-1.9592 4.5144,-2.9447 4.6863,-2.9447z" id="path873" fill="none" stroke="#000000" stroke-width="5"/><path d="M314.71125,190.0668l5.0412,0.8933l-0.4816,3.8264c0.9972,-0.0569 1.7305,-0.0797 2.1998,-0.0797h0.7332l0.1607,-0.0804l0.0804,0.1601c-0.1607,2.3259 -0.298,3.6323 -0.413,3.9185l-0.1601,-0.0915c-0.1144,0 -1.1456,-0.0575 -3.0931,-0.1607c-0.1033,1.7991 -0.1836,3.9413 -0.2411,6.4391l-0.1602,0.0803c-2.4631,-0.1607 -3.9296,-0.298 -4.3995,-0.4124l0.0804,-0.3208c0,-0.6646 0.1027,-2.7271 0.3209,-6.1869c-2.0625,-0.1144 -3.0937,-0.2522 -3.0937,-0.4124c0.1032,-2.5552 0.2405,-3.8269 0.4123,-3.8269l3.0134,0.5731v-0.9855c0,-0.8019 -0.0346,-1.89 -0.0915,-3.2539c0.0569,0 0.0915,-0.0228 0.0915,-0.0797z" id="path875" fill="none" stroke="#000000" stroke-width="5"/><path d="M332.90515,193.5265c2.1998,1.409 3.414,2.2115 3.6434,2.4291c-0.7907,1.7639 -1.2489,2.6462 -1.3638,2.6462l-4.1702,-2.4174h-0.149c0,0.0804 -0.1836,0.5045 -0.5385,1.2835c3.8381,2.0736 5.7628,3.1277 5.7628,3.1846c-1.077,2.4866 -1.6842,3.8041 -1.8214,3.9414l-6.5195,0.3783c-2.5317,-1.6841 -3.895,-2.5663 -4.0897,-2.6578v-0.0693c0,-0.1947 0.3777,-1.0541 1.1339,-2.5775l5.0869,2.6468l0.3784,-1.5129c-3.1506,-1.409 -5.0184,-2.2912 -5.6138,-2.6461v-0.1608c0,-0.2862 0.6072,-1.5808 1.8214,-3.861z" id="path877" fill="none" stroke="#000000" stroke-width="5"/><path d="M337.81975,201.4433c0.0574,0.0346 1.2488,0.1261 3.5747,0.2751l0.0457,0.0915c-0.3549,2.1082 -0.5842,3.1623 -0.6875,3.1623h-2.6578c-0.0915,0 -0.2177,-1.0541 -0.3667,-3.1623c-0.034,0 -0.0457,-0.0915 -0.0457,-0.2751c0.0915,-0.0341 0.1373,-0.0569 0.1373,-0.0915z" id="path879" fill="none" stroke="#000000" stroke-width="5"/><path d="M342.67795,201.4433c0.0569,0.0346 1.2488,0.1261 3.5741,0.2751l0.0463,0.0915c-0.3554,2.1082 -0.5848,3.1623 -0.6874,3.1623h-2.6585c-0.0915,0 -0.2176,-1.0541 -0.3666,-3.1623c-0.0341,0 -0.0458,-0.0915 -0.0458,-0.2751c0.0921,-0.0341 0.1379,-0.0569 0.1379,-0.0915z" id="path881" fill="none" stroke="#000000" stroke-width="5"/><path d="M347.53555,201.4433c0.0575,0.0346 1.2489,0.1261 3.5747,0.2751l0.0458,0.0915c-0.3555,2.1082 -0.5843,3.1623 -0.6875,3.1623h-2.6579c-0.0921,0 -0.2176,-1.0541 -0.3666,-3.1623c-0.0346,0 -0.0458,-0.0915 -0.0458,-0.2751c0.0915,-0.0341 0.1373,-0.0569 0.1373,-0.0915z" id="path883" fill="none" stroke="#000000" stroke-width="5"/><path d="M227.19385,150.2734l4.01,0.711l-0.383,3.044c0.796,-0.043 1.38,-0.064 1.75,-0.064h0.584l0.127,-0.064l0.064,0.128c-0.128,1.847 -0.237,2.886 -0.328,3.117l-0.128,-0.073c-0.091,0 -0.911,-0.042 -2.461,-0.127c-0.085,1.427 -0.149,3.135 -0.191,5.122l-0.128,0.064c-1.956,-0.128 -3.123,-0.237 -3.5,-0.328l0.064,-0.256c0,-0.528 0.085,-2.169 0.255,-4.921c-1.64,-0.092 -2.461,-0.201 -2.461,-0.329c0.085,-2.029 0.195,-3.044 0.329,-3.044l2.397,0.456v-0.784c0,-0.638 -0.025,-1.501 -0.073,-2.589c0.048,0 0.073,-0.021 0.073,-0.063z" data-paper-data="{&quot;origPos&quot;:null}" id="path3952" fill="none" stroke="#000000" stroke-width="5"/><path d="M238.39485,150.2734c0.037,0.054 0.207,1.719 0.511,4.994c2.345,-0.717 3.594,-1.075 3.746,-1.075l2.324,1.586c-0.377,3.463 -0.623,5.487 -0.738,6.07l-3.227,0.11c0,-0.037 -0.021,-0.055 -0.063,-0.055l0.063,-0.228c0,-0.492 0.073,-1.987 0.219,-4.484c-0.887,-0.037 -1.546,-0.055 -1.978,-0.055h-0.228c0.262,2.777 0.392,4.29 0.392,4.539l-3.062,0.456c-0.116,-0.389 -0.796,-4.02 -2.042,-10.892c0,-0.195 0.474,-0.347 1.422,-0.456c1.197,-0.34 2.084,-0.51 2.661,-0.51z" data-paper-data="{&quot;origPos&quot;:null}" id="path3954" fill="none" stroke="#000000" stroke-width="5"/><path d="M251.00085,153.0344c2.753,1.416 4.278,2.243 4.575,2.48c-0.394,1.847 -0.628,2.798 -0.701,2.852h-5.761v0.101l1.614,1.996l2.533,-1.295c0.25,0.432 0.608,1.185 1.076,2.261c-0.219,0.073 -1.814,0.307 -4.785,0.702c-2.461,-1.623 -3.701,-2.467 -3.719,-2.534c0.395,-3.154 0.629,-4.731 0.702,-4.731c2.57,-1.093 4.059,-1.704 4.466,-1.832zM250.40885,155.2404c-0.049,0.122 -0.371,0.605 -0.967,1.449c0,0.256 0.359,0.383 1.076,0.383c0,0.037 0.519,0.125 1.558,0.264c0.286,-0.395 0.429,-0.625 0.429,-0.692c-0.091,-0.541 -0.289,-0.811 -0.593,-0.811z" data-paper-data="{&quot;origPos&quot;:null}" id="path3956" fill="none" stroke="#000000" stroke-width="5"/><path d="M165.96065,168.555c2.75,1.3862 4.159,2.0854 4.2393,2.0854c0,0.1255 -0.5731,1.2254 -1.7187,3.3107h-0.0798c-0.0921,0 -1.4096,-0.6188 -3.9531,-1.8671l-1.2946,1.7299c2.1886,1.0541 4.8576,2.3945 7.9854,4.0328c-1.4202,2.5318 -2.4285,4.2048 -3.0245,5.0407l-6.4731,0.5731c-2.9559,-1.9933 -4.5139,-3.0245 -4.6858,-3.0931v-0.0804c0,-0.2176 0.5954,-1.1914 1.7985,-2.9447h0.149c0.4699,0.2868 1.9593,1.0998 4.457,2.4408l1.5122,-1.7187c-4.5942,-2.3376 -7.1377,-3.6551 -7.6304,-3.9643v-0.0686c1.4553,-2.8415 2.2572,-4.2851 2.3833,-4.3191c3.7918,-0.7679 5.9118,-1.1574 6.3353,-1.1574z" id="path825" fill="url(#color-1)" stroke="none" stroke-width="0.5866"/><path d="M176.85665,172.0265c3.4481,0.6529 5.2472,1.0195 5.4073,1.111v0.1379c-0.7444,2.0965 -1.111,3.1735 -1.111,3.2538h-0.0686c-0.1948,0 -1.1116,-0.298 -2.7729,-0.8939c-0.928,1.5468 -1.3861,2.3833 -1.3861,2.486l2.2912,2.2232c1.7757,-1.6613 2.6696,-2.4978 2.7037,-2.4978c1.3867,1.8103 2.0742,2.8298 2.0742,3.0474c-0.7567,0.4353 -2.0742,1.2946 -3.9531,2.5664c-3.6316,-0.7907 -5.6026,-1.226 -5.8889,-1.3175l-1.7985,-5.8202z" id="path827" fill="url(#color-2)" stroke="none" stroke-width="0.5866"/><path d="M193.36595,172.0148c1.5122,0.8482 2.4402,1.3978 2.784,1.6501c-1.2372,2.5775 -1.9018,3.8838 -1.9933,3.9296h-0.0804l-1.6383,-1.4319l-1.9364,2.3599l0.2176,4.2962c-0.1026,0.0921 -1.3632,0.3098 -3.7917,0.6418c-0.0921,-0.6529 -0.6875,-3.8727 -1.7874,-9.6584c0,-0.0915 1.5926,-0.332 4.789,-0.7103c0.0569,0.0575 0.1947,0.779 0.4353,2.1428c1.9134,-2.1428 2.9101,-3.2198 3.0016,-3.2198z" id="path829" fill="url(#color-3)" stroke="none" stroke-width="0.5866"/><path d="M198.79665,172.0148c4.5368,0.6306 6.8051,1.0083 6.8051,1.1573c1.7874,1.5352 2.6814,2.3599 2.6814,2.4632c-0.7221,2.2683 -1.1345,3.6433 -1.2377,4.1361c0.7221,1.6155 1.1344,2.5781 1.2377,2.8872c0,0.0915 -1.1803,0.332 -3.5519,0.7333c-0.0346,-0.1262 -0.2522,-0.4242 -0.6529,-0.8711c-3.2656,0.6306 -5.0295,0.9397 -5.2817,0.9397l-1.7416,-4.7086l3.8381,-2.0279c0.6189,0.1026 1.5809,0.149 2.899,0.149c0,-0.1719 0.0229,-0.6764 0.0686,-1.524c-0.2176,0 -2.1997,0.149 -5.9346,0.4353l-0.0692,-0.149c0.5156,-2.4174 0.8365,-3.6205 0.9397,-3.6205zM201.17945,178.7519c0,0.0797 0.2411,0.9737 0.7332,2.6807h0.0692c0.9621,-0.63 1.4437,-1.0424 1.4437,-1.2371l0.1484,-1.226c-0.1831,0 -0.9849,-0.0686 -2.3945,-0.2176z" id="path831" fill="url(#color-4)" stroke="none" stroke-width="0.5866"/><path d="M209.38305,168.5662c2.337,0.0463 4.0557,0.0692 5.1438,0.0692c0.1033,0 0.4013,4.6857 0.9052,14.069c-0.3895,0.1032 -1.7528,0.3549 -4.0787,0.7561c-0.1144,0 -0.4927,-2.8755 -1.1339,-8.6154c-0.0574,-0.1378 -0.3326,-2.2343 -0.8364,-6.2789z" id="path833" fill="url(#color-5)" stroke="none" stroke-width="0.5866"/><path d="M218.45705,172.0148c4.5368,0.6306 6.8052,1.0083 6.8052,1.1573c1.7873,1.5352 2.6807,2.3599 2.6807,2.4632c-0.7215,2.2683 -1.1339,3.6433 -1.2371,4.1361c0.7221,1.6155 1.1345,2.5781 1.2371,2.8872c0,0.0915 -1.1796,0.332 -3.5512,0.7333c-0.0346,-0.1262 -0.2523,-0.4242 -0.6535,-0.8711c-3.265,0.6306 -5.0295,0.9397 -5.2812,0.9397l-1.7416,-4.7086l3.8381,-2.0279c0.6183,0.1026 1.5809,0.149 2.8984,0.149c0,-0.1719 0.0229,-0.6764 0.0687,-1.524c-0.2177,0 -2.1998,0.149 -5.9347,0.4353l-0.0686,-0.149c0.5156,-2.4174 0.8365,-3.6205 0.9397,-3.6205zM220.83985,178.7519c0,0.0797 0.2405,0.9737 0.7333,2.6807h0.0686c0.9626,-0.63 1.4436,-1.0424 1.4436,-1.2371l0.149,-1.226c-0.183,0 -0.9855,-0.0686 -2.3945,-0.2176z" data-paper-data="{&quot;origPos&quot;:null}" id="path835" fill="url(#color-6)" stroke="none" stroke-width="0.5866"/><path d="M237.18895,172.0148h0.0457c2.0397,1.2031 3.1395,1.822 3.2997,1.8789v0.1032c-0.5268,0.6071 -1.5006,1.6501 -2.9102,3.1395c2.7729,1.0312 4.3309,1.6495 4.6747,1.8671l-2.5893,3.197c-1.7527,-1.5011 -2.8644,-2.4291 -3.3454,-2.8075c-1.1802,2.303 -1.9246,3.6663 -2.2114,4.0675h-0.0458c-2.188,-0.7679 -3.38,-1.226 -3.5747,-1.375v-0.0569l3.0251,-3.9531c-2.8069,-1.1568 -4.3197,-1.8443 -4.5145,-2.039c1.2377,-2.0965 1.9364,-3.2198 2.0854,-3.3571c0.0228,0.0575 1.3861,0.9855 4.0786,2.8069c0.9509,-1.7645 1.6155,-2.9213 1.9821,-3.4715z" id="path837" fill="url(#color-7)" stroke="none" stroke-width="0.5866"/><path d="M248.61175,172.0377c0.1033,0.0117 0.1602,0.0692 0.1602,0.1607l-1.1914,6.5992c2.2801,-0.2634 3.414,-0.481 3.414,-0.6417c0.4241,-2.6468 0.7221,-4.1244 0.8822,-4.4453c2.8186,0.5843 4.3766,0.928 4.6858,1.0313c-1.6384,5.6483 -2.5429,8.5813 -2.7037,8.8218c-2.8755,2.0162 -4.4909,3.1278 -4.8464,3.3454c-0.1027,0 -1.9358,-0.447 -5.4877,-1.3521v-0.0798c0.9392,-2.0742 1.524,-3.1049 1.7528,-3.1049l3.4944,1.7528l1.6729,-2.8644c-1.5011,0.3784 -2.3833,0.5614 -2.6238,0.5614l-4.457,-2.3141c0.5385,-4.9838 0.8823,-7.4703 1.0313,-7.4703z" id="path839" fill="url(#color-8)" stroke="none" stroke-width="0.5866"/><path d="M279.60295,168.555l0.0686,0.149c-0.1947,2.9213 -0.3437,4.3766 -0.447,4.3766h-0.0686c-3.1506,-0.2522 -4.9151,-0.4012 -5.27,-0.447v10.1623c0,0.1836 -0.7221,0.3097 -2.154,0.3666c0,0.0575 -0.8136,0.149 -2.4402,0.298l-0.0804,-0.149c0.3549,-6.0607 0.5731,-9.6466 0.6758,-10.7465c-1.2026,0.1948 -2.9899,0.4353 -5.3387,0.7333c-0.6992,-2.601 -1.0429,-3.9297 -1.0429,-3.9989c0,-0.1026 5.3621,-0.3437 16.0974,-0.7444z" id="path841" fill="url(#color-9)" stroke="none" stroke-width="0.5866"/><path d="M287.32495,172.0265c3.4597,1.7756 5.3732,2.8186 5.7516,3.116c-0.4928,2.3259 -0.7908,3.5173 -0.8823,3.5865h-7.2409v0.1255l2.0278,2.5095l3.1853,-1.6272c0.3091,0.5385 0.7672,1.4893 1.3515,2.8414c-0.2745,0.0916 -2.2795,0.3895 -6.015,0.8823c-3.0931,-2.0396 -4.6511,-3.1049 -4.674,-3.1852c0.4927,-3.9637 0.7901,-5.9458 0.8822,-5.9458c3.2304,-1.375 5.0982,-2.1428 5.6138,-2.303zM286.57995,174.7988c-0.0569,0.149 -0.4693,0.7561 -1.2143,1.8219c0,0.3209 0.447,0.4811 1.3522,0.4811c0,0.0457 0.6528,0.1607 1.9592,0.3326c0.3549,-0.4928 0.5385,-0.7908 0.5385,-0.8711c-0.115,-0.6758 -0.3666,-1.0195 -0.745,-1.0195z" id="path843" fill="url(#color-10)" stroke="none" stroke-width="0.5866"/><path d="M295.86055,172.0148c4.5367,0.6306 6.8051,1.0083 6.8051,1.1573c1.7874,1.5352 2.6813,2.3599 2.6813,2.4632c-0.7221,2.2683 -1.1344,3.6433 -1.2377,4.1361c0.7221,1.6155 1.1345,2.5781 1.2377,2.8872c0,0.0915 -1.1802,0.332 -3.5518,0.7333c-0.0346,-0.1262 -0.2522,-0.4242 -0.6529,-0.8711c-3.2656,0.6306 -5.0301,0.9397 -5.2817,0.9397l-1.7416,-4.7086l3.8381,-2.0279c0.6188,0.1026 1.5809,0.149 2.8984,0.149c0,-0.1719 0.0228,-0.6764 0.0686,-1.524c-0.2176,0 -2.1997,0.149 -5.9346,0.4353l-0.0687,-0.149c0.5157,-2.4174 0.8365,-3.6205 0.9398,-3.6205zM298.24325,178.7519c0,0.0797 0.2405,0.9737 0.7333,2.6807h0.0686c0.9626,-0.63 1.4436,-1.0424 1.4436,-1.2371l0.149,-1.226c-0.183,0 -0.9849,-0.0686 -2.3945,-0.2176z" id="path845" fill="url(#color-11)" stroke="none" stroke-width="0.5866"/><path d="M319.17545,172.0148c1.8672,0.7678 3.4715,1.5011 4.823,2.1768c-0.3549,4.5485 -0.5725,7.0345 -0.6757,7.4586c-2.2455,0.5614 -3.5055,0.8365 -3.7695,0.8365c0,-0.9966 -0.0798,-2.9558 -0.2288,-5.8777c-0.8482,0.0804 -1.2717,0.1607 -1.2717,0.2176c0,0.2869 0.0457,1.9481 0.149,4.9726c0.0457,0 0.0686,0.0229 0.0686,0.0804c0,0.0915 -1.1802,0.3438 -3.5401,0.7561c-0.1033,-0.1261 -0.4013,-1.9821 -0.9051,-5.5797c-0.9509,0.2405 -1.4325,0.4241 -1.4325,0.5274l0.4581,4.674c-0.0915,0.1032 -1.3515,0.5044 -3.7689,1.2031c-1.4096,-4.9726 -2.2801,-8.3062 -2.635,-10.0132c2.6462,-0.6535 4.1355,-0.9855 4.4453,-0.9855c0.3549,1.3861 0.5267,2.1886 0.5267,2.4062h0.0804c1.2946,-1.192 2.188,-1.9939 2.7036,-2.4062h0.0804l2.4056,1.7298h0.0804c1.5011,-1.4547 2.303,-2.1768 2.4062,-2.1768z" id="path847" fill="url(#color-12)" stroke="none" stroke-width="0.5866"/><path d="M134.59555,193.5383c0.2405,0.9737 0.4013,1.5808 0.4928,1.8102c3.38,-0.7679 5.1556,-1.1574 5.3503,-1.1574c2.303,3.3108 3.4486,5.0295 3.4486,5.1785l-2.635,5.5909l-5.6712,-0.9051v0.1718c0.447,3.4029 0.6646,5.2014 0.6646,5.4196c-0.0575,0 -0.0803,0.0229 -0.0803,0.0798c-0.5503,-0.0569 -0.9626,-0.0798 -1.2372,-0.0798h-0.9855c-0.5731,0 -1.4553,-0.0234 -2.635,-0.0803c-0.1032,-0.3209 -0.928,-5.2014 -2.4637,-14.631c0.264,-0.1026 2.1769,-0.5725 5.7516,-1.3972zM135.00795,198.224c0.149,1.7528 0.2869,2.635 0.4124,2.635c1.5697,0.5385 2.5206,0.8136 2.8761,0.8136l0.9051,-3.9413h-0.0804c-0.8934,0.0574 -2.2683,0.2176 -4.1132,0.4927z" id="path849" fill="url(#color-13)" stroke="none" stroke-width="0.5866"/><path d="M153.29345,193.5265c1.5122,0.8477 2.4402,1.3979 2.784,1.6501c-1.2372,2.5775 -1.9018,3.8839 -1.9933,3.9296h-0.0804l-1.6383,-1.4324l-1.9364,2.3604l0.2176,4.2963c-0.1026,0.0915 -1.3632,0.3091 -3.7917,0.6417c-0.0921,-0.6529 -0.6875,-3.8727 -1.7874,-9.6583c0,-0.0915 1.5926,-0.332 4.789,-0.7104c0.0569,0.0575 0.1947,0.779 0.4352,2.1423c1.9135,-2.1423 2.9101,-3.2193 3.0017,-3.2193z" id="path851" fill="url(#color-14)" stroke="none" stroke-width="0.5866"/><path d="M161.59965,193.5383c2.899,0.779 4.4452,1.2488 4.6171,1.4201c1.5926,2.2572 2.4977,3.5636 2.6925,3.9073c-1.0312,3.265 -1.6266,4.9034 -1.7756,4.9034c-3.4369,0.8019 -5.236,1.2031 -5.3962,1.2031c-2.8414,-1.6612 -4.3537,-2.5781 -4.5373,-2.7728c-0.1027,-3.082 -0.149,-4.789 -0.149,-5.1099c-0.0457,-0.0915 -0.0686,-0.1601 -0.0686,-0.2059c2.933,-2.2343 4.4452,-3.3453 4.5485,-3.3453zM161.38205,197.7313c-0.0458,0.3091 -0.1144,1.4207 -0.2059,3.3342l2.5546,0.5725c0.6071,-1.9135 0.9169,-2.933 0.9169,-3.0591c-2.0279,-0.6071 -3.1166,-0.9163 -3.2656,-0.9163z" id="path853" fill="url(#color-15)" stroke="none" stroke-width="0.5866"/><path d="M176.13845,193.5265l0.0804,0.149l-1.5469,8.203h0.0804l3.9414,-1.1568v-4.64c0.0111,-0.1032 0.0686,-0.1607 0.149,-0.1607c2.967,0.2065 4.6171,0.3092 4.9491,0.3092c0,0.0574 0.0229,0.0803 0.0803,0.0803c0,1.3064 -0.4123,4.01 -1.2371,8.1232c0,0.2405 -1.1802,0.4124 -3.5518,0.5385c-0.1262,-0.149 -0.2294,-0.4581 -0.3092,-0.928c-3.0362,0.6183 -4.7661,0.928 -5.1902,0.928c-2.4174,-1.7991 -3.6316,-2.7271 -3.6316,-2.784c0.4123,-5.4196 0.6757,-8.2264 0.779,-8.4323h0.0686c1.9364,-0.0575 3.712,-0.1261 5.3386,-0.2294z" data-paper-data="{&quot;origPos&quot;:null}" id="path855" fill="url(#color-16)" stroke="none" stroke-width="0.5866"/><path d="M191.96085,190.055h0.0686c3.4486,0.2863 5.1785,0.5156 5.1785,0.6758l1.524,13.4853c0,0.1027 -1.524,0.3549 -4.5714,0.7561l-0.0686,-0.149v-1.226c-2.6239,0.7104 -4.4341,1.1685 -5.4079,1.375c-2.3258,-3.2884 -3.5401,-5.0295 -3.6545,-5.2477c1.707,-3.1048 2.6233,-4.6857 2.7383,-4.7198l4.8001,0.2288c-0.1027,-0.5842 -0.298,-2.3141 -0.6071,-5.1785zM189.82965,198.2698c0.7679,2.3598 1.2489,3.6545 1.4437,3.8838l2.2801,-1.9821c-0.2405,-1.3632 -0.4124,-2.0507 -0.5268,-2.0507h-3.048c-0.1032,0.0117 -0.149,0.0686 -0.149,0.149z" id="path857" fill="url(#color-17)" stroke="none" stroke-width="0.5866"/><path d="M199.92325,190.0779c2.3376,0.0458 4.0558,0.0686 5.1445,0.0686c0.1033,0 0.4007,4.6864 0.9051,14.0696c-0.3895,0.1027 -1.7527,0.3549 -4.0786,0.7561c-0.115,0 -0.4927,-2.8761 -1.1345,-8.6159c-0.0569,-0.1373 -0.332,-2.2338 -0.8365,-6.2784z" id="path859" fill="url(#color-18)" stroke="none" stroke-width="0.5866"/><path d="M212.52635,193.5494c0.1033,0.0117 0.1602,0.0686 0.1602,0.1607l-1.1914,6.5993c2.2801,-0.264 3.414,-0.4816 3.414,-0.6418c0.4241,-2.6467 0.7221,-4.1244 0.8822,-4.4452c2.8186,0.5842 4.3766,0.928 4.6858,1.0306c-1.6384,5.6484 -2.5435,8.5814 -2.7037,8.8225c-2.8755,2.0161 -4.491,3.1277 -4.8464,3.3453c-0.1027,0 -1.9358,-0.4469 -5.4877,-1.3521v-0.0803c0.9392,-2.0737 1.524,-3.1049 1.7528,-3.1049l3.4944,1.7533l1.6729,-2.8643c-1.5011,0.3778 -2.3833,0.5614 -2.6238,0.5614l-4.457,-2.3148c0.5385,-4.9837 0.8822,-7.4697 1.0312,-7.4697z" id="path861" fill="url(#color-19)" stroke="none" stroke-width="0.5866"/><path d="M233.17165,193.5383c0.2406,0.9737 0.4013,1.5808 0.4928,1.8102c3.38,-0.7679 5.1556,-1.1574 5.3504,-1.1574c2.3029,3.3108 3.4486,5.0295 3.4486,5.1785l-2.635,5.5909l-5.6713,-0.9051v0.1718c0.4464,3.4029 0.6647,5.2014 0.6647,5.4196c-0.0575,0 -0.0804,0.0229 -0.0804,0.0798c-0.5502,-0.0569 -0.9626,-0.0798 -1.2377,-0.0798h-0.9849c-0.5731,0 -1.4554,-0.0234 -2.635,-0.0803c-0.1033,-0.3209 -0.928,-5.2014 -2.4637,-14.631c0.2639,-0.1026 2.1768,-0.5725 5.7515,-1.3972zM233.58405,198.224c0.149,1.7528 0.2863,2.635 0.4124,2.635c1.5697,0.5385 2.5206,0.8136 2.8761,0.8136l0.9051,-3.9413h-0.0803c-0.894,0.0574 -2.2684,0.2176 -4.1133,0.4927z" id="path863" fill="url(#color-20)" stroke="none" stroke-width="0.5866"/><path d="M251.86955,193.5265c1.5122,0.8477 2.4402,1.3979 2.784,1.6501c-1.2372,2.5775 -1.9018,3.8839 -1.9933,3.9296h-0.0804l-1.6383,-1.4324l-1.9364,2.3604l0.2176,4.2963c-0.1026,0.0915 -1.3632,0.3091 -3.7923,0.6417c-0.0915,-0.6529 -0.6869,-3.8727 -1.7868,-9.6583c0,-0.0915 1.592,-0.332 4.789,-0.7104c0.0569,0.0575 0.1947,0.779 0.4353,2.1423c1.9134,-2.1423 2.9101,-3.2193 3.0016,-3.2193z" id="path865" fill="url(#color-21)" stroke="none" stroke-width="0.5866"/><path d="M262.05465,193.5383c3.4603,1.7756 5.3732,2.818 5.7516,3.116c-0.4928,2.3258 -0.7908,3.5172 -0.8823,3.5858h-7.2409v0.1262l2.0278,2.5094l3.1853,-1.6272c0.3091,0.5385 0.7678,1.4894 1.3521,2.8415c-0.2751,0.0915 -2.2801,0.3895 -6.015,0.8822c-3.0937,-2.0396 -4.6517,-3.1048 -4.6746,-3.1852c0.4927,-3.9642 0.7907,-5.9464 0.8822,-5.9464c3.231,-1.3744 5.0982,-2.1422 5.6138,-2.3023zM261.31025,196.3105c-0.0575,0.149 -0.4699,0.7561 -1.2149,1.822c0,0.3209 0.447,0.481 1.3522,0.481c0,0.0458 0.6528,0.1601 1.9592,0.332c0.3549,-0.4921 0.5385,-0.7901 0.5385,-0.8705c-0.1144,-0.6758 -0.3666,-1.0195 -0.745,-1.0195z" id="path867" fill="url(#color-22)" stroke="none" stroke-width="0.5866"/><path d="M278.09455,193.5265c2.1998,1.409 3.414,2.2115 3.6434,2.4291c-0.7907,1.7639 -1.2489,2.6462 -1.3633,2.6462l-4.1707,-2.4174h-0.149c0,0.0804 -0.183,0.5045 -0.5379,1.2835c3.8375,2.0736 5.7628,3.1277 5.7628,3.1846c-1.077,2.4866 -1.6842,3.8041 -1.822,3.9414l-6.5189,0.3783c-2.5317,-1.6841 -3.8956,-2.5663 -4.0903,-2.6578v-0.0693c0,-0.1947 0.3783,-1.0541 1.1345,-2.5775l5.0869,2.6468l0.3778,-1.5129c-3.1506,-1.409 -5.0178,-2.2912 -5.6137,-2.6461v-0.1608c0,-0.2862 0.6071,-1.5808 1.8213,-3.861z" id="path869" fill="url(#color-23)" stroke="none" stroke-width="0.5866"/><path d="M289.36845,193.5383c3.4597,1.7756 5.3732,2.818 5.7516,3.116c-0.4928,2.3258 -0.7908,3.5172 -0.8823,3.5858h-7.2409v0.1262l2.0278,2.5094l3.1853,-1.6272c0.3091,0.5385 0.7672,1.4894 1.3515,2.8415c-0.2751,0.0915 -2.2795,0.3895 -6.015,0.8822c-3.0931,-2.0396 -4.6511,-3.1048 -4.674,-3.1852c0.4921,-3.9642 0.7901,-5.9464 0.8816,-5.9464c3.231,-1.3744 5.0988,-2.1422 5.6144,-2.3023zM288.62345,196.3105c-0.0569,0.149 -0.4693,0.7561 -1.2143,1.822c0,0.3209 0.447,0.481 1.3521,0.481c0,0.0458 0.6529,0.1601 1.9587,0.332c0.3555,-0.4921 0.5385,-0.7901 0.5385,-0.8705c-0.1144,-0.6758 -0.3666,-1.0195 -0.7444,-1.0195z" id="path871" fill="url(#color-24)" stroke="none" stroke-width="0.5866"/><path d="M306.33635,193.5265l3.8153,2.6239c-0.264,4.3537 -0.4588,6.8972 -0.562,7.6304c-0.4464,0.0569 -1.7868,0.1373 -4.044,0.2406l-0.0804,-0.1608l-0.4006,-6.1176l-0.1608,-0.0804c-1.4547,0.3092 -2.4631,0.5497 -3.0133,0.7104c0.149,2.6004 0.2294,4.491 0.2294,5.6484c-2.2802,0.63 -3.5173,0.9508 -3.7349,0.9508c-1.4782,-6.5188 -2.2226,-9.9675 -2.2226,-10.3341c3.2192,-0.4241 4.972,-0.6306 5.2471,-0.6306v0.0804c0.0575,0.0346 0.1378,0.8365 0.2405,2.3833c2.9559,-1.9592 4.5144,-2.9447 4.6863,-2.9447z" id="path873" fill="url(#color-25)" stroke="none" stroke-width="0.5866"/><path d="M314.71125,190.0668l5.0412,0.8933l-0.4816,3.8264c0.9972,-0.0569 1.7305,-0.0797 2.1998,-0.0797h0.7332l0.1607,-0.0804l0.0804,0.1601c-0.1607,2.3259 -0.298,3.6323 -0.413,3.9185l-0.1601,-0.0915c-0.1144,0 -1.1456,-0.0575 -3.0931,-0.1607c-0.1033,1.7991 -0.1836,3.9413 -0.2411,6.4391l-0.1602,0.0803c-2.4631,-0.1607 -3.9296,-0.298 -4.3995,-0.4124l0.0804,-0.3208c0,-0.6646 0.1027,-2.7271 0.3209,-6.1869c-2.0625,-0.1144 -3.0937,-0.2522 -3.0937,-0.4124c0.1032,-2.5552 0.2405,-3.8269 0.4123,-3.8269l3.0134,0.5731v-0.9855c0,-0.8019 -0.0346,-1.89 -0.0915,-3.2539c0.0569,0 0.0915,-0.0228 0.0915,-0.0797z" id="path875" fill="url(#color-26)" stroke="none" stroke-width="0.5866"/><path d="M332.90515,193.5265c2.1998,1.409 3.414,2.2115 3.6434,2.4291c-0.7907,1.7639 -1.2489,2.6462 -1.3638,2.6462l-4.1702,-2.4174h-0.149c0,0.0804 -0.1836,0.5045 -0.5385,1.2835c3.8381,2.0736 5.7628,3.1277 5.7628,3.1846c-1.077,2.4866 -1.6842,3.8041 -1.8214,3.9414l-6.5195,0.3783c-2.5317,-1.6841 -3.895,-2.5663 -4.0897,-2.6578v-0.0693c0,-0.1947 0.3777,-1.0541 1.1339,-2.5775l5.0869,2.6468l0.3784,-1.5129c-3.1506,-1.409 -5.0184,-2.2912 -5.6138,-2.6461v-0.1608c0,-0.2862 0.6072,-1.5808 1.8214,-3.861z" id="path877" fill="url(#color-27)" stroke="none" stroke-width="0.5866"/><path d="M337.81975,201.4433c0.0574,0.0346 1.2488,0.1261 3.5747,0.2751l0.0457,0.0915c-0.3549,2.1082 -0.5842,3.1623 -0.6875,3.1623h-2.6578c-0.0915,0 -0.2177,-1.0541 -0.3667,-3.1623c-0.034,0 -0.0457,-0.0915 -0.0457,-0.2751c0.0915,-0.0341 0.1373,-0.0569 0.1373,-0.0915z" id="path879" fill="#e5e5e5" stroke="none" stroke-width="0.5866"/><path d="M342.67795,201.4433c0.0569,0.0346 1.2488,0.1261 3.5741,0.2751l0.0463,0.0915c-0.3554,2.1082 -0.5848,3.1623 -0.6874,3.1623h-2.6585c-0.0915,0 -0.2176,-1.0541 -0.3666,-3.1623c-0.0341,0 -0.0458,-0.0915 -0.0458,-0.2751c0.0921,-0.0341 0.1379,-0.0569 0.1379,-0.0915z" id="path881" fill="#e5e5e5" stroke="none" stroke-width="0.5866"/><path d="M347.53555,201.4433c0.0575,0.0346 1.2489,0.1261 3.5747,0.2751l0.0458,0.0915c-0.3555,2.1082 -0.5843,3.1623 -0.6875,3.1623h-2.6579c-0.0921,0 -0.2176,-1.0541 -0.3666,-3.1623c-0.0346,0 -0.0458,-0.0915 -0.0458,-0.2751c0.0915,-0.0341 0.1373,-0.0569 0.1373,-0.0915z" id="path883" fill="#e5e5e5" stroke="none" stroke-width="0.5866"/><path d="M227.19385,150.2734l4.01,0.711l-0.383,3.044c0.796,-0.043 1.38,-0.064 1.75,-0.064h0.584l0.127,-0.064l0.064,0.128c-0.128,1.847 -0.237,2.886 -0.328,3.117l-0.128,-0.073c-0.091,0 -0.911,-0.042 -2.461,-0.127c-0.085,1.427 -0.149,3.135 -0.191,5.122l-0.128,0.064c-1.956,-0.128 -3.123,-0.237 -3.5,-0.328l0.064,-0.256c0,-0.528 0.085,-2.169 0.255,-4.921c-1.64,-0.092 -2.461,-0.201 -2.461,-0.329c0.085,-2.029 0.195,-3.044 0.329,-3.044l2.397,0.456v-0.784c0,-0.638 -0.025,-1.501 -0.073,-2.589c0.048,0 0.073,-0.021 0.073,-0.063z" data-paper-data="{&quot;origPos&quot;:null}" id="path3952" fill="url(#color-28)" stroke="none" stroke-width="1"/><path d="M238.39485,150.2734c0.037,0.054 0.207,1.719 0.511,4.994c2.345,-0.717 3.594,-1.075 3.746,-1.075l2.324,1.586c-0.377,3.463 -0.623,5.487 -0.738,6.07l-3.227,0.11c0,-0.037 -0.021,-0.055 -0.063,-0.055l0.063,-0.228c0,-0.492 0.073,-1.987 0.219,-4.484c-0.887,-0.037 -1.546,-0.055 -1.978,-0.055h-0.228c0.262,2.777 0.392,4.29 0.392,4.539l-3.062,0.456c-0.116,-0.389 -0.796,-4.02 -2.042,-10.892c0,-0.195 0.474,-0.347 1.422,-0.456c1.197,-0.34 2.084,-0.51 2.661,-0.51z" data-paper-data="{&quot;origPos&quot;:null}" id="path3954" fill="url(#color-29)" stroke="none" stroke-width="1"/><path d="M251.00085,153.0344c2.753,1.416 4.278,2.243 4.575,2.48c-0.394,1.847 -0.628,2.798 -0.701,2.852h-5.761v0.101l1.614,1.996l2.533,-1.295c0.25,0.432 0.608,1.185 1.076,2.261c-0.219,0.073 -1.814,0.307 -4.785,0.702c-2.461,-1.623 -3.701,-2.467 -3.719,-2.534c0.395,-3.154 0.629,-4.731 0.702,-4.731c2.57,-1.093 4.059,-1.704 4.466,-1.832zM250.40885,155.2404c-0.049,0.122 -0.371,0.605 -0.967,1.449c0,0.256 0.359,0.383 1.076,0.383c0,0.037 0.519,0.125 1.558,0.264c0.286,-0.395 0.429,-0.625 0.429,-0.692c-0.091,-0.541 -0.289,-0.811 -0.593,-0.811z" data-paper-data="{&quot;origPos&quot;:null}" id="path3956" fill="url(#color-30)" stroke="none" stroke-width="1"/></g></svg>