<svg version="1.1" xmlns="http://www.w3.org/2000/svg" xmlns:xlink="http://www.w3.org/1999/xlink" width="120.83063" height="190.99324" viewBox="0,0,120.83063,190.99324"><defs><linearGradient x1="273.42623" y1="232.62882" x2="262.01766" y2="250.2959" gradientUnits="userSpaceOnUse" id="color-1"><stop offset="0" stop-color="#008c4d"/><stop offset="1" stop-color="#006638"/></linearGradient><linearGradient x1="246.73185" y1="168.10033" x2="246.73185" y2="250.77834" gradientUnits="userSpaceOnUse" id="color-2"><stop offset="0" stop-color="#b100c6"/><stop offset="1" stop-color="#9900aa"/></linearGradient><linearGradient x1="232.7617" y1="249.22022" x2="225.03943" y2="268.78159" gradientUnits="userSpaceOnUse" id="color-3"><stop offset="0" stop-color="#008c4d"/><stop offset="1" stop-color="#006638"/></linearGradient><radialGradient cx="283.33333" cy="147.33333" r="20.52041" gradientUnits="userSpaceOnUse" id="color-4"><stop offset="0" stop-color="#fbc5fc"/><stop offset="1" stop-color="#f991fd"/></radialGradient></defs><g transform="translate(-186.24068,-83.16501)"><g data-paper-data="{&quot;isPaintingLayer&quot;:true}" fill="none" fill-rule="nonzero" stroke="none" stroke-width="none" stroke-linecap="none" stroke-linejoin="miter" stroke-miterlimit="10" stroke-dasharray="" stroke-dashoffset="0" font-family="none" font-weight="none" font-size="none" text-anchor="none" style="mix-blend-mode: normal"><g data-paper-data="{&quot;origPos&quot;:null,&quot;origRot&quot;:0}" stroke-width="0" stroke-linecap="round"><path d="M276.80226,234.84896c0.42499,0.27443 2.08066,2.13946 2.75449,3.19582c0.79161,1.24102 1.35782,3.08424 1.67794,3.75253c0.10671,0.22276 0.01876,3.12213 0.99344,3.69768c0.97468,0.57555 5.0965,0.90489 8.16716,2.09965c3.07066,1.19476 4.02789,0.74983 4.20036,2.71238c0.17249,1.96257 -1.59033,3.43155 -3.53488,4.8596c-1.94456,1.42806 -4.87755,3.57985 -8.54018,4.00817c-3.66263,0.42833 -5.54755,-0.35044 -8.62802,-2.00044c-3.08046,-1.65 -15.30665,-8.29079 -23.80198,-15.3702c-8.49534,-7.07941 -7.01731,-8.73623 -6.92042,-10.42076c0.0292,-0.50774 -0.1308,-3.43466 0.36496,-4.12905c1.21955,-1.7082 5.93327,-6.95487 10.19448,-5.95552c4.2612,0.99935 13.77336,7.5451 23.07268,13.55016z" data-paper-data="{&quot;origPos&quot;:null}" fill="url(#color-1)" stroke="#000000"/><path d="M255.38614,218.24188c0.21142,-3.53245 -0.4754,-1.8505 2.4613,-8.72721c2.93671,-6.87673 4.79665,-10.37417 6.83624,-13.04433c2.25586,-2.95329 25.25315,10.97429 28.90647,16.68247c3.65331,5.70819 -6.88326,12.80238 -8.56289,15.1037c-1.20855,1.65588 -3.50252,3.72156 -5.47748,4.79553c-1.97497,1.07398 -1.58388,1.39398 -5.53019,1.19037c-3.94631,-0.20361 -6.21624,0.09848 -9.82974,-1.98287c-3.6135,-2.08136 -5.89219,-5.70912 -7.23411,-7.84579c-1.34192,-2.13667 -1.78101,-2.63941 -1.56959,-6.17186z" data-paper-data="{&quot;origPos&quot;:null}" fill="#9900aa" stroke="#b100c6"/></g><g data-paper-data="{&quot;origPos&quot;:null,&quot;origRot&quot;:0}" stroke-width="0" stroke-linecap="butt"><g data-paper-data="{&quot;origPos&quot;:null}" stroke="none"><path d="M261.31467,205.63234c-8.96993,-5.44537 -15.25332,-6.34553 -12.31569,-11.18458c2.93762,-4.83905 6.69415,-18.41266 10.57919,-16.72517c3.24973,1.41153 26.08555,14.08328 27.68523,17.24467c1.2444,2.45928 -3.6007,6.72486 -9.74374,16.84405c-2.93762,4.83905 -7.23505,-0.73362 -16.205,-6.17898z" data-paper-data="{&quot;origRot&quot;:0,&quot;origPos&quot;:null}" fill="#ffdebd"/><path d="M270.25678,188.04572c-8.96994,-5.44536 -14.46591,-7.13925 -11.52829,-11.97829c2.93762,-4.83905 8.31327,-8.93224 12.19832,-7.24475c3.08719,0.30538 10.37349,-0.55848 11.97316,2.60291c5.83789,4.49638 9.40508,16.79213 3.26204,26.91131c-2.46899,3.41413 -6.93529,-4.84582 -15.90522,-10.29118z" data-paper-data="{&quot;origRot&quot;:0,&quot;origPos&quot;:null}" fill="#fff70c"/></g><g data-paper-data="{&quot;origPos&quot;:null}"><path d="M283.62325,205.23838c-5.87615,6.72307 -6.93818,12.1267 -15.52141,14.58776c-4.67764,1.34123 -13.54314,-5.70115 -17.20705,-8.9035c-6.54943,-5.72438 -4.89045,-11.47357 1.92429,-19.27051c6.81474,-7.79694 17.64854,-9.4771 24.19797,-3.75272c6.54943,5.72438 13.42093,9.54201 6.6062,17.33896z" data-paper-data="{&quot;origPos&quot;:null,&quot;origRot&quot;:0}" fill="#ffdebd" stroke="#ffdebd"/><g data-paper-data="{&quot;origPos&quot;:null,&quot;origRot&quot;:0}" fill="#ffffff" stroke="none"><path d="M300.96383,205.77467c12.01655,8.94689 3.84537,18.76639 -3.58667,30.40666c-6.81071,10.66713 -17.45785,5.80014 -24.64196,-0.68475c-9.90279,-8.93899 -2.38541,-15.67373 6.62932,-24.55674c9.01474,-8.88301 10.37907,-13.5192 21.59932,-5.16518z" data-paper-data="{&quot;origRot&quot;:0,&quot;origPos&quot;:null}"/><path d="M289.37039,195.57751c6.68822,6.36274 2.37313,6.06729 -10.25071,19.17128c-11.08146,11.50295 -12.53848,13.64636 -18.90793,8.15114c-5.69365,-4.91218 3.57632,-11.39172 10.52719,-18.25908c6.95085,-6.86736 14.726,-12.77873 18.63145,-9.06333z" data-paper-data="{&quot;origRot&quot;:0,&quot;origPos&quot;:null}"/></g></g></g><g data-paper-data="{&quot;origPos&quot;:null}"><path d="M229.67786,169.82957c15.39885,0 40.51731,-5.44824 52.39438,2.9966c15.94172,11.33491 16.91377,36.01156 16.91377,53.82034c0,16.41613 -22.9587,24.13183 -51.43391,24.13183c-28.47521,0 -53.79308,-8.23538 -53.05883,-42.43989c1.21973,-12.52806 6.70937,-38.50888 35.18458,-38.50888z" data-paper-data="{&quot;origPos&quot;:null,&quot;index&quot;:null}" fill="url(#color-2)" stroke="none" stroke-width="0" stroke-linecap="butt"/><path d="M235.17786,164.32957c15.39885,0 36.01731,-2.94824 47.89438,5.4966c8.04003,5.71663 15.97706,29.68937 15.97706,29.68937c0,0 -36.93426,-2.75059 -46.06329,1.13097c-4.09315,1.74035 -16.45869,7.13183 -21.9339,8.63183c-2.86947,0.78612 -34.29308,0.76462 -31.55883,-18.43989c1.21973,-12.52806 7.20937,-26.50888 35.68458,-26.50888z" data-paper-data="{&quot;origPos&quot;:null,&quot;index&quot;:null}" fill="#fff70c" stroke="none" stroke-width="0" stroke-linecap="butt"/><path d="M239.24094,205.29651l-1.5,-35.5" data-paper-data="{&quot;origPos&quot;:null}" fill="none" stroke="#b100c6" stroke-width="17" stroke-linecap="round"/><path d="M246.24094,205.29651c0,3.86599 -3.13401,7 -7,7c-3.86599,0 -7,-3.13401 -7,-7c0,-3.86599 3.13401,-7 7,-7c3.86599,0 7,3.13401 7,7z" data-paper-data="{&quot;origPos&quot;:null}" fill="#f3f3f3" stroke="none" stroke-width="0" stroke-linecap="butt"/><path d="M275.21758,167.54925l7.83813,11.27226l9.70859,23.72221" data-paper-data="{&quot;origPos&quot;:null,&quot;origRot&quot;:0}" fill="none" stroke="#b100c6" stroke-width="14" stroke-linecap="round"/><path d="M301.24091,200.29651c0,3.86599 -3.13401,7 -7,7c-3.86599,0 -7,-3.13401 -7,-7c0,-3.86599 3.13401,-7 7,-7c3.86599,0 7,3.13401 7,7z" data-paper-data="{&quot;origPos&quot;:null}" fill="#f3f3f3" stroke="none" stroke-width="0" stroke-linecap="butt"/></g><g data-paper-data="{&quot;origPos&quot;:null,&quot;origRot&quot;:0}" stroke-width="0" stroke-linecap="round"><path d="M236.50759,250.73516c0.47058,0.18577 2.45982,1.68988 3.32774,2.59358c1.01963,1.06167 1.93631,2.75804 2.38128,3.35058c0.14831,0.19751 0.63069,3.05782 1.69932,3.43105c1.06863,0.37322 5.175,-0.11219 8.42034,0.45717c3.24534,0.56936 4.09669,-0.05466 4.65072,1.83597c0.55403,1.89063 -0.88647,3.67678 -2.51321,5.45847c-1.62675,1.78169 -4.08077,4.46688 -7.58827,5.60519c-3.50751,1.1383 -5.50856,0.74432 -8.85278,-0.26952c-3.34423,-1.01385 -16.63535,-5.12795 -26.35409,-10.40384c-9.71873,-5.27589 -8.59434,-7.19039 -8.82968,-8.86122c-0.07094,-0.50361 -0.80185,-3.34229 -0.4519,-4.12044c0.86087,-1.9142 4.45411,-7.98341 8.82855,-7.83915c4.37445,0.14427 14.98561,4.69744 25.28201,8.76216z" data-paper-data="{&quot;origPos&quot;:null}" fill="url(#color-3)" stroke="#000000"/><path d="M212.25048,238.65059c-0.48546,-3.50531 -0.82909,-1.72133 0.70197,-9.04043c1.53106,-7.3191 2.66899,-11.11342 4.14533,-14.13171c1.63287,-3.33835 26.91496,5.80869 31.6168,10.68956c4.70183,4.88087 -4.23887,13.90368 -5.43455,16.48969c-0.86034,1.86073 -2.70465,4.33619 -4.43065,5.77662c-1.726,1.44044 -1.27973,1.67754 -5.18935,2.2518c-3.9096,0.57427 -6.07622,1.31566 -10.02773,-0.01661c-3.95151,-1.33228 -6.8974,-4.44272 -8.6323,-6.27473c-1.7349,-1.83201 -2.26405,-2.23888 -2.74951,-5.74419z" data-paper-data="{&quot;origPos&quot;:null}" fill="#9900aa" stroke="#b100c6"/></g><g data-paper-data="{&quot;origPos&quot;:null,&quot;origRot&quot;:0}" stroke-linecap="butt"><g data-paper-data="{&quot;origPos&quot;:null}" stroke="none" stroke-width="0"><path d="M216.76202,211.5135c-3.06921,4.75668 -7.21223,-0.93171 -16.02949,-6.62095c-8.81727,-5.68925 -15.07362,-6.76134 -12.00442,-11.51803c3.0692,-4.75668 7.19644,-18.22222 11.03376,-16.42884c3.20982,1.5001 25.68963,14.79317 27.20202,17.99723c1.1765,2.49248 -3.78371,6.62362 -10.20188,16.57058z" data-paper-data="{&quot;origRot&quot;:0,&quot;origPos&quot;:null}" fill="#ffdebd"/><path d="M225.77054,198.2811c-2.56168,3.34515 -6.79986,-5.03414 -15.61711,-10.72338c-8.81727,-5.68925 -14.26475,-7.53318 -11.19555,-12.28987c3.0692,-4.75668 8.55504,-8.70096 12.39237,-6.90759c3.07765,0.38991 10.38491,-0.27385 11.89728,2.9302c5.71242,4.65474 8.94116,17.04367 2.523,26.99063z" data-paper-data="{&quot;origRot&quot;:0,&quot;origPos&quot;:null}" fill="#fff70c"/></g><g data-paper-data="{&quot;origPos&quot;:null}"><path d="M223.04353,205.11037c-6.05826,6.55944 -7.26804,11.93192 -15.91552,14.15674c-4.71264,1.21248 -13.38176,-6.07032 -16.95647,-9.37191c-6.39004,-5.90179 -4.57404,-11.60334 2.4519,-19.21052c7.02595,-7.60717 17.90173,-8.98967 24.29178,-3.08787c6.39004,5.90179 13.15427,9.90638 6.12833,17.51355z" data-paper-data="{&quot;origPos&quot;:null,&quot;origRot&quot;:0}" fill="#ffdebd" stroke="#ffdebd" stroke-width="0"/><g data-paper-data="{&quot;origPos&quot;:null,&quot;origRot&quot;:0}" fill="#ffffff" stroke="none" stroke-width="0"><path d="M240.36288,206.12188c11.76673,9.27298 3.32941,18.86477 -4.41899,30.29691c-7.1006,10.47639 -17.61032,5.31933 -24.61393,-1.36011c-9.65399,-9.20714 -1.95479,-15.73323 7.30011,-24.36576c9.25489,-8.63251 10.74581,-13.22955 21.7328,-4.57105z" data-paper-data="{&quot;origRot&quot;:0,&quot;origPos&quot;:null}"/><path d="M229.05337,195.6107c6.51127,6.54372 2.2059,6.13008 -10.77247,18.88304c-11.39268,11.19479 -12.90791,13.29747 -19.12431,7.62969c-5.55683,-5.06642 3.8873,-11.28939 11.02385,-17.9636c7.13653,-6.6742 15.07082,-12.37018 18.87292,-8.54911z" data-paper-data="{&quot;origRot&quot;:0,&quot;origPos&quot;:null}"/></g><path d="M210.95626,227.70879c-1.31359,-1.50814 0.19454,-2.82173 0.19454,-2.82173l3.40183,0.13363c1.64679,0.59211 3.29357,1.18423 4.94035,1.77634c1.64679,0.59211 3.29357,1.18423 4.94035,1.77634c0.35305,0.12694 0.59525,0.53917 0.96892,0.57276c0.0575,0.00517 0.12172,-0.00313 0.18954,-0.0195c-0.12781,-0.4439 -0.32755,-0.8702 -0.57163,-1.29867c-1.22596,-2.15203 -2.12053,-3.50197 -1.85029,-6.08494c0.40516,-3.87264 3.85307,-2.8653 6.0585,-2.07232c0.80988,0.32851 2.9409,1.99705 3.62281,2.05832c0.19191,0.01724 0.45294,-0.11392 0.67542,-0.1954c-0.01782,-1.07757 -0.07729,-2.74833 -0.35037,-3.72263c-0.37473,-1.33698 -1.18819,-2.63983 -2.04704,-3.89027l-0.12629,0.07758l-1.66617,-2.71217c-0.13199,-0.21077 -0.22428,-0.44517 -0.27098,-0.69065c-0.13444,-0.58538 -0.09999,-1.43431 0.88945,-2.05801c0.01706,-0.01087 0.03426,-0.02148 0.05163,-0.03181c1.0037,-0.6044 1.77725,-0.25479 2.2402,0.12916c0.15743,0.12042 0.29418,0.26242 0.40745,0.42006l1.05689,1.42658l-0.11544,0.08553c2.07143,3.34413 3.84994,6.37202 3.90423,10.59608c0.03126,2.43275 -1.16319,4.85314 -4.17615,4.53793c-2.21343,-0.23158 -3.4695,-1.80331 -5.44904,-2.2662c-0.31368,-0.11278 -0.62734,-0.22556 -0.94102,-0.33835c-0.04051,0.4509 0.20363,0.88555 0.36827,1.30728c0.44213,1.13259 3.83648,4.5844 2.54284,6.22767c-3.3734,4.28508 -7.65075,1.38764 -11.70547,-0.07028c-1.64679,-0.59211 -3.29357,-1.18423 -4.94035,-1.77634c0,0 -0.92937,0.43215 -2.24296,-1.07598z" data-paper-data="{&quot;origPos&quot;:null}" fill="#0052ef" stroke="none" stroke-width="0.5"/></g></g><g data-paper-data="{&quot;origPos&quot;:null}"><path d="M272.5591,139.29737l-2.33333,5.33334l7.66667,27.66666l-42.33334,4.33334l-3.66666,-1.33334l-2.66666,-4.66666l-7.33334,-27.33334l33,-4z" data-paper-data="{&quot;origPos&quot;:null}" fill="#a10114" stroke="#a10114" stroke-width="0.5" stroke-linecap="round"/><path d="M225.94741,162.77772c-1.17041,-4.92546 4.12419,-10.40192 11.82582,-12.23201c7.70162,-1.83009 14.89384,0.67921 16.06424,5.60467c1.17041,4.92546 -4.12419,10.40192 -11.82582,12.23201c-7.70163,1.83009 -14.89385,-0.67921 -16.06425,-5.60467z" data-paper-data="{&quot;origPos&quot;:null,&quot;origRot&quot;:0}" fill="#f4c4f6" stroke="none" stroke-width="0" stroke-linecap="butt"/><g data-paper-data="{&quot;origPos&quot;:null}" stroke-linecap="round"><path d="M237.89243,174.96404l-4.66666,-10.33333l40,-5l6.66667,-0.33334l3,2.33334l1.33333,3l1,7.33333z" data-paper-data="{&quot;origPos&quot;:null}" fill="#ffffff" stroke="#000000" stroke-width="0"/><path d="M272.5591,160.29738l4.66667,10" data-paper-data="{&quot;origPos&quot;:null}" fill="none" stroke="#a5b5ff" stroke-width="1.5"/><path d="M261.15211,161.9145l2.81397,9.43241" data-paper-data="{&quot;origPos&quot;:null,&quot;origRot&quot;:0}" fill="none" stroke="#a5b5ff" stroke-width="1.5"/><path d="M248.96609,173.01357l-2.81397,-9.43242" data-paper-data="{&quot;origPos&quot;:null,&quot;origRot&quot;:0}" fill="none" stroke="#a5b5ff" stroke-width="1.5"/></g><g data-paper-data="{&quot;origPos&quot;:null}"><path d="M222.37302,139.72779c3.44949,0.6899 4.11556,5.38849 4.17233,5.67233c0.32137,1.60688 11.12385,24.14025 11.88456,25.4081c-2.99229,-1.44186 1.25964,1.27756 1.46254,1.32248c1.48977,0.32987 3.46888,0 5,0c5.88154,0 27.35455,-2.09488 29.64305,-2.64239c1.84283,-0.44089 8.47629,-0.81784 9.85696,-0.35761c5.12234,1.70745 4.47231,11.13352 3.6529,15.23058c-1.71763,1.75647 -3.25597,3.7083 -5.1529,5.26942c-0.64345,0.52955 -1.66667,0 -2.5,0c-2.70957,0 -5.00864,-0.20036 -7.57248,-1.21254c-0.65738,-0.25953 -1.15274,-0.82821 -1.78447,-1.14509c-0.18943,-0.09501 -0.55595,-0.14816 -0.85359,-0.20784c-0.9961,0.53477 -1.92051,1.20274 -2.9325,1.70784c-3.55238,1.77304 -21.65861,1.1468 -24.17895,0.53959c-7.12069,-1.71554 -13.07322,-6.37559 -17.42801,-12.18197c-4.90173,-6.74464 -6.71181,-14.16556 -8.55762,-22.12639c-0.65691,-2.83323 -0.59529,-11.35418 -0.59529,-11.35418c0,0 0.98058,-4.90291 5.88349,-3.92233z" data-paper-data="{&quot;origPos&quot;:null}" fill="#ffdebd" stroke="none" stroke-width="0.5" stroke-linecap="butt"/><path d="M271.89243,175.63071l1.66667,3.66666v2.66666v3l-2,2" data-paper-data="{&quot;origPos&quot;:null}" fill="none" stroke="#f6b09a" stroke-width="1.5" stroke-linecap="round"/></g></g><g data-paper-data="{&quot;origPos&quot;:null}"><path d="M295.8478,121.85391c-0.62813,3.79329 -13.15027,8.6 -23.00472,8.6c-7.94072,0 -5.97237,-6.75492 -5.97237,-10.4c0,-3.64508 15.56169,-2.85 23.50241,-2.85c7.94072,0 5.88126,2.19464 5.47468,4.65z" data-paper-data="{&quot;origPos&quot;:null}" fill="#b49416" stroke="none" stroke-width="0" stroke-linecap="butt"/><path d="M294.33333,119.33333l-1,4l-4.66667,3.33333l-11.33333,5.33334" data-paper-data="{&quot;origPos&quot;:null}" fill="none" stroke="#a5b5ff" stroke-width="4.5" stroke-linecap="round"/><path d="M208.96507,147.97212c2.84617,0.02051 4.30892,0.91673 6.62718,2.36565c4.2679,2.96956 8.49595,8.92257 7.5327,14.3374c-0.83154,4.67445 -7.32065,4.79843 -9.98889,1.68549c-0.03911,-0.06429 -0.41853,-2.25462 -0.52131,-2.43888c-1.03458,-1.85479 -4.32256,-1.62063 -5.85833,-3.62037c-1.4033,-1.82728 -0.44167,-7.3604 -0.44167,-9.57963c0,0 1.513,-3.00639 2.65032,-2.74964z" data-paper-data="{&quot;origPos&quot;:null}" fill="#8e4108" stroke="none" stroke-width="0.5" stroke-linecap="butt"/><path d="M221.41403,170.56751c0,0 -4.93662,-6.19855 -6.77345,-8.95379c-1.31741,-2.02672 -1.9145,-4.06694 -2.82683,-6.23492c-0.39392,-0.9361 -1.97438,-2.62329 -1.98933,-3.60571c-0.00376,-0.24674 -1.0817,-0.68223 -1.96398,-0.99097c-1.74453,-0.61048 -3.56382,-1.32355 -5.23299,-2.11453c-3.10064,-1.4693 -5.7193,-4.02549 -7.80575,-6.70806c-3.28551,-4.24205 -6.35949,-8.91018 -7.50152,-14.16106c-0.92605,-4.25785 0.18828,-7.58788 0.18828,-7.58788c0,0 12.88558,1.06561 13.3213,1.14831c2.05003,0.38909 8.50036,0.37565 12.82928,1.56112c2.10123,0.57542 3.98038,0.99151 5.67273,2.2931c0.64064,0.49271 1.88683,2.39597 2.19186,2.39016c2.70041,-0.05145 6.61193,-2.4474 9.10771,-3.44571c6.76039,-2.70416 41.91996,-6.00736 46.89214,-2.36908c0.71443,0.52277 0.87538,1.53933 1.28772,2.3227c1.50942,2.86766 6.86783,23.77318 7.4328,27.76682c0.29918,2.11479 -1.2611,4.35411 -2.47003,5.75161c-0.54733,0.6327 -6.93655,1.00233 -9.15664,1.00233c-10.69243,0 -21.34714,-0.11066 -32.0221,0.57805c-2.66168,0.16651 -6.17893,0.6634 -8.81707,0.16448c-0.34053,-0.0644 -1.48419,1.14666 -1.23755,1.48506c1.19458,1.63903 3.25747,9.90041 3.25747,9.90041z" data-paper-data="{&quot;origPos&quot;:null}" fill="#ffdebd" stroke="none" stroke-width="0.5" stroke-linecap="butt"/><path d="M258.56475,137.95023c0,0 -0.9935,-0.51493 -7.4,-0.51493c-6.40651,0 -11.68936,4.29531 -15.6,2.57466c-3.4,-1.49597 -4.60651,-13.07925 -2.6,-13.07925c4.64315,0 24.03794,-0.30883 24.03794,-0.30883l1.56206,11.32836z" data-paper-data="{&quot;origPos&quot;:null}" fill="#ffffff" stroke="#f6b09a" stroke-width="0" stroke-linecap="butt"/><path d="M263.99136,130.82176c0,0 1.7916,-4.46328 4.36206,-5.79988c2.67666,-1.39181 7.03794,-2.10012 7.03794,-2.10012c0,0 6.2,7.44741 2.8,8.9c-3.91064,1.67076 0.4065,1.5 -6,1.5c-6.4065,0 -8.2,-2.5 -8.2,-2.5z" data-paper-data="{&quot;index&quot;:null,&quot;origPos&quot;:null}" fill="#ffffff" stroke="#f6b09a" stroke-width="0" stroke-linecap="butt"/><path d="M234.37537,141.4229c-1.70114,0.41062 -2.11176,-1.29052 -2.11176,-1.29052l-0.58286,-0.68312c-2.35983,-3.77572 -2.266,-7.01579 -2.266,-11.3275c0,0 0,-1.75 1.75,-1.75c1.75,0 1.75,1.75 1.75,1.75c0,3.6974 -0.23865,6.31627 1.734,9.47251l1.01714,1.71687c0,0 0.41063,1.70114 -1.29052,2.11176z" data-paper-data="{&quot;origPos&quot;:null}" fill="#18c6ff" stroke="none" stroke-width="0.5" stroke-linecap="butt"/><path d="M219.43193,127.7154l-0.00648,-0.00039c-0.5388,-4.84921 2.7096,-5.35609 6.53929,-5.14325c1.25,0.06947 2.79474,-0.1181 3.63889,1.0213c2.31535,3.1252 0.31112,5.29268 0.31112,8.62869c-0.20415,3.88036 -1.44846,11.21088 -7.0102,8.0534c-0.00173,-0.00098 -0.77381,-2.32479 -0.78444,-2.35535c-1.09205,-3.13976 -2.08041,-6.20301 -2.67714,-9.485c0,0 -0.03988,-0.21932 -0.01289,-0.51565l-0.01534,0.00261c0,0 0,-0.08024 0.01718,-0.20636z" data-paper-data="{&quot;origPos&quot;:null}" fill="#8e4108" stroke="none" stroke-width="0.5" stroke-linecap="butt"/><path d="M280.52698,132.49278c-1.57528,0.77783 -2.33751,-0.82969 -2.33751,-0.82969l-0.08492,-1.64175c-0.57135,-1.74913 -1.4749,-2.87972 -2.6685,-4.30076c0,0 -1.13889,-1.35589 0.18981,-2.51808c1.3287,-1.16219 2.46758,0.1937 2.46758,0.1937c1.47893,1.76073 2.60309,3.26577 3.3315,5.49569l-0.08492,1.21555c0,0 0.76224,1.60752 -0.81304,2.38535z" data-paper-data="{&quot;origPos&quot;:null}" fill="#18c6ff" stroke="none" stroke-width="0.5" stroke-linecap="butt"/><path d="M280.24658,94.82856c2.65049,14.94461 -0.54433,15.79448 -9.42494,20.57884c-12.93978,6.97121 -29.86592,5.55994 -43.68752,10.97342c-3.62918,1.42143 -12.87913,-2.03217 -16.83418,-2.03217c-8.08923,0 -12.65358,-5.22725 -12.98785,-11.45342c-0.73732,-13.7335 6.74195,-13.78676 14.83118,-13.78676c0,0 8.90245,1.33414 11.97751,5.60456c0,0 12.38453,-18.21899 25.43957,-20.46979c16.8055,-2.89741 28.78283,-0.14688 30.68624,10.58532z" data-paper-data="{&quot;origPos&quot;:null}" fill="#fff70c" stroke="none" stroke-width="0" stroke-linecap="butt"/><path d="M275.9885,104.24664c0,5.24671 -5.95461,9.5 -13.3,9.5c-7.34538,0 -13.3,-4.25329 -13.3,-9.5c0,-5.24671 5.95462,-9.5 13.3,-9.5c7.34539,0 13.3,4.25329 13.3,9.5z" data-paper-data="{&quot;origPos&quot;:null}" fill="#ffffff" stroke="none" stroke-width="0" stroke-linecap="butt"/><path d="M247.09449,93.74067c0.0164,-2.22761 2.24401,-2.21121 2.24401,-2.21121l2.74023,2.62113c0.93742,1.70899 1.87483,3.41799 2.81225,5.12698c0.93742,1.70899 1.87484,3.41799 2.81225,5.12698c0.20097,0.36639 0.09896,0.88907 0.38603,1.19276c0.04417,0.04672 0.10388,0.08719 0.17255,0.12356c0.22082,-0.46473 0.36862,-0.96783 0.48103,-1.50545c0.56455,-2.70028 0.81392,-4.48674 2.94495,-6.44285c3.19504,-2.93281 5.32918,0.45142 6.58461,2.74017c0.43349,0.87162 0.9809,3.83612 1.50475,4.3903c0.14743,0.15597 0.46202,0.23907 0.70778,0.33522c0.78009,-0.91237 1.96303,-2.35049 2.45391,-3.365c0.67361,-1.39216 0.95593,-3.07949 1.16171,-4.75657l-0.16262,-0.02842l0.61043,-3.49248c0.04534,-0.27326 0.14126,-0.53695 0.28338,-0.77626c0.31966,-0.58768 0.97469,-1.27069 2.26049,-1.06123c0.02225,0.00351 0.04444,0.00736 0.06655,0.01154c1.28347,0.23608 1.67107,1.0985 1.77415,1.76044c0.04253,0.21663 0.05191,0.43601 0.03013,0.65112l-0.17046,1.97017l-0.15942,-0.01379c-0.73845,4.31881 -1.48803,8.15762 -4.55894,11.72264c-1.76862,2.05318 -4.55097,3.19181 -6.83272,0.70602c-1.67626,-1.82615 -1.56493,-4.06439 -2.87537,-5.91103c-0.17856,-0.32553 -0.35711,-0.65104 -0.53567,-0.97657c-0.36645,0.34639 -0.48336,0.88921 -0.6571,1.36259c-0.46658,1.27132 -0.1805,6.65594 -2.47233,7.07289c-5.9763,1.08724 -7.40821,-4.48618 -9.71632,-8.69407c-0.93742,-1.70899 -1.87484,-3.41799 -2.81226,-5.12698c0,0 -1.09436,-0.32498 -1.07796,-2.55259z" data-paper-data="{&quot;origPos&quot;:null,&quot;origRot&quot;:0}" fill="#0052ef" stroke="none" stroke-width="0.5" stroke-linecap="butt"/><path d="M296.29017,119.75391c-0.2212,0.85848 -43.51301,6.5 -55.63158,7.7c-5.88978,0.58322 -17.80653,0.15848 -17.58533,-0.7c0.81769,-3.1735 3.1022,-8.24498 8.73737,-9.9c6.8098,-2 30.18828,-7.38005 47.67076,-7.1384c7.14675,0.09879 17.62649,6.8649 16.80879,10.0384z" data-paper-data="{&quot;origPos&quot;:null}" fill="#ffd412" stroke="none" stroke-width="0" stroke-linecap="butt"/><path d="M197.00001,128.49286l6.66666,3.33333c0,0 4.69674,0.89519 7.33334,2.33333c2.63659,1.43814 2.61141,1.93989 3.66666,3.66667c1.05525,1.72678 0.80582,1.90922 0,2.33333c-0.80582,0.42412 -3.87963,1.49074 -6.33333,1c-2.4537,-0.49074 -3.66667,-3 -3.66667,-3l-1.03333,-6.26666" data-paper-data="{&quot;origPos&quot;:null}" fill="none" stroke="#f6b09a" stroke-width="3" stroke-linecap="round"/><path d="M227.25001,127.83334l31.41667,-6.16667l36,-2.33333" data-paper-data="{&quot;origPos&quot;:null}" fill="none" stroke="#ffffff" stroke-width="4.5" stroke-linecap="round"/><path d="M278.00001,125.75v-2.25l-5.5,0.5l-3.25,0.75l-3,3.5l-2.5,2.25h-6.75l-2.75,-1.25l-7,-2l-5.5,-0.25l-5.5,1l-11.25,3.25l-1,-10l8.5,-0.75l6,-0.25l5,0.75l6.5,1.5l4.25,2.5l4,0.5l4,-0.75l2.75,-1l4,-4.25l4.75,-2l4.25,-0.25l4,1l0.5,3.5z" data-paper-data="{&quot;origPos&quot;:null}" fill="#000001" stroke="#ff0000" stroke-width="0" stroke-linecap="round"/><path d="M264.74628,122.63835c0.29131,3.63097 -1.70285,6.79089 -4.45407,7.05788c-2.75122,0.26699 -5.21769,-2.46007 -5.50899,-6.09104c-0.2913,-3.63097 1.70286,-2.12422 4.45408,-2.39121c2.75122,-0.26699 5.21768,-2.2066 5.50899,1.42437z" data-paper-data="{&quot;origPos&quot;:null,&quot;origRot&quot;:0}" fill="#ffdebd" stroke="#f6b09a" stroke-width="2.5" stroke-linecap="butt"/><path d="M254.20001,122.33334l5.06667,-0.86667l5.8,-0.53333" data-paper-data="{&quot;origPos&quot;:null}" fill="none" stroke="#ffffff" stroke-width="4.5" stroke-linecap="round"/><g data-paper-data="{&quot;origPos&quot;:null,&quot;index&quot;:null}" stroke-linecap="round"><path d="M280.47387,151.79734l4.7519,8.68623l-40.73059,4.20301c0,0 -10.2946,0.364 -10.42056,0.28312c-0.37789,-0.24264 -1.20463,-2.38462 -1.20463,-2.38462l-3.39421,-7.35527l2.80023,-0.91065z" data-paper-data="{&quot;origPos&quot;:null}" fill="#ffffff" stroke="#000000" stroke-width="0"/><path d="M245.17402,164.12617l-4.75191,-8.40603" data-paper-data="{&quot;origPos&quot;:null}" fill="none" stroke="#a5b5ff" stroke-width="1.5"/><path d="M253.92399,154.83791l2.86537,7.92891" data-paper-data="{&quot;origPos&quot;:null,&quot;origRot&quot;:0}" fill="none" stroke="#a5b5ff" stroke-width="1.5"/><path d="M272.06332,161.36582l-2.86537,-7.92892" data-paper-data="{&quot;origPos&quot;:null,&quot;origRot&quot;:0}" fill="none" stroke="#a5b5ff" stroke-width="1.5"/></g><path d="M296.78848,153.94663l-2.8,7.6h-3.2l-1,-2.4l-0.6,2.6l-4,-0.2l-2.8,-3.8l-0.6,3.4l-2.4,1l-1.6,-0.6l-3,-4.6l-3,5l-2.6,-0.2l-3,-4.2l-3.2,5.2h-1.8l-5.4,-5h-1.4l-3.4,5.2l-1.8,0.4l-7.4,-5.4l-5.2,6.2l-2.6,0.4l-13.8,-17l2.2,-1l11,5.4l1.8,-4.8h2.4l12.4,6.6l4.2,-4.6l1.6,-0.2l5.8,5.2l3.8,-4.6l2.6,0.4l2,1.4l1.2,2.6l2.4,-2.8l2.8,-0.2l3,3.8l2.8,-2.4l3,1l1.8,2.6l2.2,-2.8l2.4,2.2l1,0.8z" data-paper-data="{&quot;origPos&quot;:null}" fill="#000001" stroke="#ff0000" stroke-width="0" stroke-linecap="round"/><path d="M262.20005,142.31174c0.25909,-1.7103 0.15839,-3.85084 0.65733,-5.19849c1.10219,-2.97706 4.41574,-4.36325 7.33013,-4.36325c9.77911,0 25,3.73774 25,15.75c-0.07332,3.54048 -0.74802,6.62555 -3.57153,9.07119c-1.38349,1.19834 -3.94465,1.2429 -5.67971,1.4164c-5.40098,0.5401 -11.62677,1.28631 -16.98905,0.21385c-4.69024,-1.24371 -9.228,-0.73967 -12.94511,-4.73735c-2.61286,-2.81008 -2.25315,-8.13494 -0.24308,-11.03529c0.97147,-1.40174 4.39887,-1.17881 5.92847,-1.17881c0,0 0.212,0 0.51254,0.06173z" data-paper-data="{&quot;origPos&quot;:null}" fill="url(#color-4)" stroke="none" stroke-width="0.5" stroke-linecap="butt"/><path d="M250.63332,131c0.8434,0 1.6067,0.28 2.16,0.733c0.5534,0.452 0.8956,1.077 0.8956,1.767c0,0.69 -0.3422,1.315 -0.8956,1.767c-0.5533,0.453 -1.3166,0.733 -2.16,0.733c-0.8433,0 -1.6066,-0.28 -2.16,-0.733c-0.5533,-0.452 -0.8955,-1.077 -0.8955,-1.767c0,-0.69 0.3422,-1.315 0.8955,-1.767c0.5534,-0.453 1.3167,-0.733 2.16,-0.733z" data-paper-data="{&quot;origPos&quot;:null}" id="ID0.651427554897964" fill="#000000" stroke="none" stroke-width="1.05702" stroke-linecap="butt"/><path d="M270.68332,127.45c0.8434,0 1.6067,0.28 2.16,0.733c0.5534,0.452 0.8956,1.077 0.8956,1.767c0,0.69 -0.3422,1.315 -0.8956,1.767c-0.5533,0.453 -1.3166,0.733 -2.16,0.733c-0.8433,0 -1.6066,-0.28 -2.16,-0.733c-0.5533,-0.452 -0.8955,-1.077 -0.8955,-1.767c0,-0.69 0.3422,-1.315 0.8955,-1.767c0.5534,-0.453 1.3167,-0.733 2.16,-0.733z" data-paper-data="{&quot;origPos&quot;:null}" id="ID0.651427554897964" fill="#000000" stroke="none" stroke-width="1.05702" stroke-linecap="butt"/></g></g></g></svg>