<svg version="1.1" xmlns="http://www.w3.org/2000/svg" xmlns:xlink="http://www.w3.org/1999/xlink" width="658.07785" height="369.46688" viewBox="0,0,658.07785,369.46688"><defs><linearGradient x1="318.7847" y1="-1" x2="318.7847" y2="360" gradientUnits="userSpaceOnUse" id="color-1"><stop offset="0" stop-color="#502100"/><stop offset="1" stop-color="#662900"/></linearGradient><linearGradient x1="249.50001" y1="135" x2="249.50001" y2="187" gradientUnits="userSpaceOnUse" id="color-2"><stop offset="0" stop-color="#51a1e9"/><stop offset="1" stop-color="#5155e8"/></linearGradient><linearGradient x1="378.50006" y1="136" x2="378.50006" y2="188" gradientUnits="userSpaceOnUse" id="color-3"><stop offset="0" stop-color="#51a1e9"/><stop offset="1" stop-color="#5155e8"/></linearGradient><linearGradient x1="320.00005" y1="76" x2="320.00005" y2="104" gradientUnits="userSpaceOnUse" id="color-4"><stop offset="0" stop-color="#a65c00"/><stop offset="1" stop-color="#723100"/></linearGradient><linearGradient x1="144.00003" y1="204" x2="174.00006" y2="204" gradientUnits="userSpaceOnUse" id="color-5"><stop offset="0" stop-color="#a65c00"/><stop offset="1" stop-color="#723100"/></linearGradient><linearGradient x1="455.00007" y1="204" x2="485.00007" y2="204" gradientUnits="userSpaceOnUse" id="color-6"><stop offset="0" stop-color="#a65c00"/><stop offset="1" stop-color="#723100"/></linearGradient><linearGradient x1="647.89951" y1="308.00442" x2="647.89951" y2="406.00442" gradientUnits="userSpaceOnUse" id="color-7"><stop offset="0" stop-color="#000000" stop-opacity="0"/><stop offset="1" stop-color="#000000"/></linearGradient></defs><g transform="translate(6.91044,1)"><g data-paper-data="{&quot;isPaintingLayer&quot;:true}" fill-rule="nonzero" stroke-linecap="butt" stroke-linejoin="miter" stroke-miterlimit="10" stroke-dasharray="" stroke-dashoffset="0" style="mix-blend-mode: normal"><path d="M80.00004,0h480v360h-480z" data-paper-data="{&quot;origPos&quot;:null}" fill="#ffffff" stroke="none" stroke-width="1"/><path d="M-5.26432,360v-361l648.09805,0v361z" data-paper-data="{&quot;origPos&quot;:null}" fill="url(#color-1)" stroke="none" stroke-width="0"/><path d="M269.8121,360v-24.15665h372.54889v24.15665z" data-paper-data="{&quot;origPos&quot;:null}" fill="#7d4a00" stroke="none" stroke-width="0"/><path d="M264.77949,335.84335v24.15665h-271.37155c0.0988,-8.05211 0.20027,-16.10436 0.29982,-24.15665z" data-paper-data="{&quot;origPos&quot;:null}" fill="#7d4a00" stroke="none" stroke-width="0"/><path d="M356.37344,331.81723v-24.15665h289.11566c0.08804,8.05264 0.16276,16.10491 0.21656,24.15665z" data-paper-data="{&quot;origPos&quot;:null}" fill="#7d4a00" stroke="none" stroke-width="0"/><path d="M351.34084,307.66058v24.15665h-357.58349c0.09876,-8.05223 0.19478,-16.10447 0.28346,-24.15665z" data-paper-data="{&quot;origPos&quot;:null}" fill="#7d4a00" stroke="none" stroke-width="0"/><path d="M454.00664,303.64099v-24.15665h189.52533c0.10829,8.05243 0.21187,16.10471 0.30309,24.15665z" data-paper-data="{&quot;origPos&quot;:null}" fill="#7d4a00" stroke="none" stroke-width="0"/><path d="M163.12015,303.63447v-24.15668h285.85381v24.15668z" data-paper-data="{&quot;origPos&quot;:null}" fill="#7d4a00" stroke="none" stroke-width="0"/><path d="M160.10059,279.47779v24.15668h-163.58539c0.08611,-8.05234 0.16408,-16.10461 0.22932,-24.15668z" data-paper-data="{&quot;origPos&quot;:null}" fill="#7d4a00" stroke="none" stroke-width="0"/><path d="M271.82518,274.44516v-24.15665h370.92842v24.15665z" data-paper-data="{&quot;origPos&quot;:null}" fill="#7d4a00" stroke="none" stroke-width="0"/><path d="M266.79255,250.28851v24.15665h-270.00891c0.05974,-8.05246 0.10574,-16.10471 0.13342,-24.15665z" data-paper-data="{&quot;origPos&quot;:null}" fill="#7d4a00" stroke="none" stroke-width="0"/><path d="M358.38652,246.2624v-24.15668h292.4878c0.08653,8.05202 0.18677,16.10431 0.29309,24.15668z" data-paper-data="{&quot;origPos&quot;:null}" fill="#7d4a00" stroke="none" stroke-width="0"/><path d="M353.35385,222.10572v24.15668h-358.04501c0.02144,-8.0526 0.02376,-16.10484 0.00234,-24.15668z" data-paper-data="{&quot;origPos&quot;:null}" fill="#7d4a00" stroke="none" stroke-width="0"/><path d="M456.0197,218.08615v-24.15665h190.5744c0.046,8.05183 0.11432,16.1041 0.1973,24.15665z" data-paper-data="{&quot;origPos&quot;:null}" fill="#7d4a00" stroke="none" stroke-width="0"/><path d="M165.13324,218.07963v-24.15668h285.85381v24.15668z" data-paper-data="{&quot;origPos&quot;:null}" fill="#7d4a00" stroke="none" stroke-width="0"/><path d="M162.11366,193.92296v24.15668h-166.81517c-0.02946,-8.05271 -0.08347,-16.10496 -0.16661,-24.15668z" data-paper-data="{&quot;origPos&quot;:null}" fill="#7d4a00" stroke="none" stroke-width="0"/><path d="M271.82518,188.89033v-24.15665h370.92842v24.15665z" data-paper-data="{&quot;origPos&quot;:null}" fill="#7d4a00" stroke="none" stroke-width="0"/><path d="M266.79255,164.73368v24.15665h-272.5267c-0.09551,-8.05283 -0.22115,-16.10508 -0.38155,-24.15665z" data-paper-data="{&quot;origPos&quot;:null}" fill="#7d4a00" stroke="none" stroke-width="0"/><path d="M358.38652,160.70756v-24.15668h291.61351c-0.10641,8.05141 -0.17204,16.10371 -0.20457,24.15668z" data-paper-data="{&quot;origPos&quot;:null}" fill="#7d4a00" stroke="none" stroke-width="0"/><path d="M353.35385,136.55089v24.15668h-357.93225c-0.17216,-8.05294 -0.37988,-16.10522 -0.62775,-24.15668z" data-paper-data="{&quot;origPos&quot;:null}" fill="#7d4a00" stroke="none" stroke-width="0"/><path d="M456.0197,132.53131v-24.15665h192.88489c-0.20788,8.05123 -0.36638,16.1035 -0.48313,24.15665z" data-paper-data="{&quot;origPos&quot;:null}" fill="#7d4a00" stroke="none" stroke-width="0"/><path d="M165.13324,132.5248v-24.15668h285.85381v24.15668z" data-paper-data="{&quot;origPos&quot;:null}" fill="#7d4a00" stroke="none" stroke-width="0"/><path d="M162.11366,108.36812v24.15668h-167.44711c-0.09903,-3.0502 -0.64221,-19.24424 -1.27678,-24.15668z" data-paper-data="{&quot;origPos&quot;:null}" fill="#7d4a00" stroke="none" stroke-width="0"/><path d="M229.00001,187v-52h41v52z" data-paper-data="{&quot;origPos&quot;:null}" fill="url(#color-2)" stroke="#673300" stroke-width="15"/><path d="M358.00006,188v-52h41v52z" data-paper-data="{&quot;origPos&quot;:null}" fill="url(#color-3)" stroke="#673300" stroke-width="15"/><path d="M-5.26432,104v-28l648.09805,0v28z" data-paper-data="{&quot;origPos&quot;:null}" fill="url(#color-4)" stroke="none" stroke-width="0"/><path d="M144.00003,365.95796v-365.95796h30v365.95796z" data-paper-data="{&quot;origPos&quot;:null}" fill="url(#color-5)" stroke="none" stroke-width="0"/><path d="M455.00007,365.95796v-365.95796h30v365.95796z" data-paper-data="{&quot;origPos&quot;:null}" fill="url(#color-6)" stroke="none" stroke-width="0"/><path d="M150.60005,88.6c0,-4.41828 3.58172,-8 8,-8c4.41828,0 8,3.58172 8,8c0,4.41828 -3.58172,8 -8,8c-4.41828,0 -8,-3.58172 -8,-8z" data-paper-data="{&quot;origPos&quot;:null}" fill="#616161" stroke="#262626" stroke-width="2.5"/><path d="M462.60007,88.6c0,-4.41828 3.58172,-8 8,-8c4.41828,0 8,3.58172 8,8c0,4.41828 -3.58172,8 -8,8c-4.41828,0 -8,-3.58172 -8,-8z" data-paper-data="{&quot;origPos&quot;:null}" fill="#616161" stroke="#262626" stroke-width="2.5"/><path d="M644.59878,366.96999l-651.50923,1.49689c0,-20.15415 0,-40.3083 0,-60.46246h648.8764c0.19361,6.68646 2.63283,58.96557 2.63283,58.96557z" data-paper-data="{&quot;origPos&quot;:null,&quot;index&quot;:null}" fill="url(#color-7)" stroke="none" stroke-width="1.22826"/></g></g></svg>