<svg version="1.1" xmlns="http://www.w3.org/2000/svg" xmlns:xlink="http://www.w3.org/1999/xlink" width="96.33916" height="175.20096" viewBox="0,0,96.33916,175.20096"><defs><linearGradient x1="242.23907" y1="242.28881" x2="278.19087" y2="242.28881" gradientUnits="userSpaceOnUse" id="color-1"><stop offset="0" stop-color="#8e4108"/><stop offset="1" stop-color="#be6d2f"/></linearGradient><linearGradient x1="192.33658" y1="240.4018" x2="228.72954" y2="240.4018" gradientUnits="userSpaceOnUse" id="color-2"><stop offset="0" stop-color="#8e4108"/><stop offset="1" stop-color="#be6d2f"/></linearGradient><linearGradient x1="237.98182" y1="170.90759" x2="237.98182" y2="221.27829" gradientUnits="userSpaceOnUse" id="color-3"><stop offset="0" stop-color="#0052ef"/><stop offset="1" stop-color="#004bd6"/></linearGradient><linearGradient x1="270.446" y1="117.63054" x2="270.446" y2="130.95389" gradientUnits="userSpaceOnUse" id="color-4"><stop offset="0" stop-color="#bc041a"/><stop offset="1" stop-color="#880010"/></linearGradient><linearGradient x1="250.71855" y1="110.20761" x2="250.71855" y2="128.22296" gradientUnits="userSpaceOnUse" id="color-5"><stop offset="0" stop-color="#bc041a"/><stop offset="1" stop-color="#a90216"/></linearGradient></defs><g transform="translate(-187.5488,-83.66499)"><g data-paper-data="{&quot;isPaintingLayer&quot;:true}" fill="none" fill-rule="nonzero" stroke="none" stroke-width="none" stroke-linecap="none" stroke-linejoin="miter" stroke-miterlimit="10" stroke-dasharray="" stroke-dashoffset="0" font-family="none" font-weight="none" font-size="none" text-anchor="none" style="mix-blend-mode: normal"><g data-paper-data="{&quot;origPos&quot;:null,&quot;index&quot;:null,&quot;origRot&quot;:0}" stroke="none" stroke-width="0" stroke-linecap="butt"><path d="M244.17231,177.60014c3.5665,3.94173 -0.0411,13.89543 -7.25906,20.42629c-7.21797,6.53086 -15.05447,11.66094 -15.05447,11.66094l-10.83847,-11.70601c0,0 10.03741,-11.59403 15.84289,-16.84685c7.21797,-6.53086 13.74262,-7.47607 17.30911,-3.53435z" data-paper-data="{&quot;origRot&quot;:0,&quot;origPos&quot;:null}" fill="#ff0021"/><g data-paper-data="{&quot;origPos&quot;:null}" fill="#ffffff"><path d="M212.18515,206.60703c6.61167,6.66604 14.42213,15.28051 7.00027,21.82734c-5.38429,4.74948 -19.48712,4.77204 -24.44871,-3.19872c-5.41422,-8.69792 -11.63399,-15.58596 -2.64407,-22.1207c8.39419,-6.10171 13.48083,-3.17395 20.09251,3.4921z" data-paper-data="{&quot;origRot&quot;:0,&quot;origPos&quot;:null}"/><path d="M218.63714,202.0077c5.09782,5.15329 11.91926,10.03858 7.65397,13.63407c-4.77156,4.02226 -5.83416,2.41989 -13.9567,-6.20718c-9.25308,-9.82782 -12.45651,-9.64532 -7.44112,-14.30839c2.92864,-2.72293 8.64601,1.72821 13.74385,6.88148z" data-paper-data="{&quot;origRot&quot;:0,&quot;origPos&quot;:null}"/></g></g><g data-paper-data="{&quot;origPos&quot;:null,&quot;origRot&quot;:0}" stroke="none" stroke-width="0" stroke-linecap="butt"><path d="M260.98154,224.73722c2.63799,3.73087 7.95893,2.50035 8.36806,3.45379c1.65531,3.8576 1.54098,7.38002 -3.24281,12.68872c-5.92579,6.576 -11.89223,9.65406 -20.74033,9.91809c-6.02633,0.17983 -3.55787,-4.48454 -4.91304,-10.35928c-0.48627,-2.10802 -1.46292,-4.65123 -3.91828,-9.50158c-3.06984,-6.06421 -6.54185,-18.44125 -6.54185,-18.44125c0,0 4.08441,-3.52292 8.49953,-6.38892c4.39669,-2.78845 9.92013,-3.73546 9.92013,-3.73546c0,0 6.47056,13.74155 12.56858,22.36591z" data-paper-data="{&quot;origPos&quot;:null}" fill="#004bd6"/><path d="M278.85409,239.72483c2.07319,3.30154 -0.3096,6.96672 -2.94284,9.84149c-1.72569,1.88396 -12.02931,7.94123 -18.89657,8.15329c-2.13198,0.06583 -4.69927,-1.21179 -4.69927,-1.21179c0,0 -3.86158,3.32171 -4.62402,2.08035c-0.60523,-0.98541 -1.67706,-2.63756 -1.04727,-3.74168c2.71091,-4.75267 12.38947,-10.82302 17.02311,-13.73269c6.36095,-3.99433 13.16033,-4.61619 15.18687,-1.38894z" data-paper-data="{&quot;origPos&quot;:null}" fill="#f9c869"/><path d="M277.84576,234.57543c1.26942,4.59119 -0.86376,9.78224 -8.0549,14.2979c-7.19114,4.51566 -17.50291,5.17539 -17.50291,5.17539c0,0 -5.03399,3.54322 -5.97806,2.27365c-1.95399,-2.62766 -4.83631,-7.1072 -3.88255,-7.91175c3.52099,-2.97017 3.12001,-1.98915 7.49311,-6.24108c2.83137,-2.75293 6.33823,-9.30055 9.68262,-11.40066c7.19114,-4.51566 16.15257,-3.75294 18.2427,3.80655z" data-paper-data="{&quot;origPos&quot;:null}" fill="url(#color-1)"/></g><g data-paper-data="{&quot;origPos&quot;:null,&quot;origRot&quot;:0}" stroke="none" stroke-width="0" stroke-linecap="butt"><path d="M227.23015,232.7795c-2.22572,3.99056 1.1821,8.25827 0.49885,9.03903c-2.76442,3.15899 -5.99078,4.5771 -12.84486,2.55512c-8.4903,-2.50467 -13.84326,-6.55669 -17.90266,-14.42306c-2.76481,-5.35769 2.50822,-5.14572 7.22159,-8.90514c1.69129,-1.34897 3.56331,-3.3282 6.8776,-7.63751c4.14373,-5.38776 14.57513,-13.67533 14.57513,-13.67533c0,0 6.44288,3.99831 10.1891,7.45454c2.95647,2.72761 6.98568,8.39079 6.98568,8.39079c0,0 -10.4554,7.97688 -15.60043,17.20153z" data-paper-data="{&quot;origPos&quot;:null}" fill="#004bd6"/><path d="M221.43098,255.37212c-2.08242,3.29573 -6.41724,2.72951 -10.14731,1.59603c-2.44449,-0.74283 -12.3576,-7.42004 -15.51464,-13.52228c-0.98012,-1.89449 -0.93652,-4.76177 -0.93652,-4.76177c0,0 -4.66368,-2.04833 -3.87333,-3.27212c0.6274,-0.97145 1.65463,-2.6517 2.92246,-2.56051c5.45736,0.39252 15.11233,6.50034 19.73781,9.42296c6.34975,4.0121 9.84709,9.87615 7.81153,13.09771z" data-paper-data="{&quot;origPos&quot;:null}" fill="#f9c869"/><path d="M225.63994,252.23878c-3.59273,3.12774 -9.19598,3.44564 -16.37446,-1.09011c-7.17848,-4.53575 -12.2269,-13.55135 -12.2269,-13.55135c0,0 -5.36981,-3.01011 -4.63246,-4.4099c1.52611,-2.8972 4.32156,-7.43144 5.45912,-6.91869c4.19952,1.89298 3.14153,1.95499 8.86512,4.06294c3.70575,1.36479 11.1258,1.70001 14.4643,3.80945c7.17848,4.53575 10.36077,12.94777 4.44528,18.09767z" data-paper-data="{&quot;origPos&quot;:null}" fill="url(#color-2)"/></g><g data-paper-data="{&quot;origPos&quot;:null}"><path d="M265.97766,194.07829c0.39163,21.17353 -13.11217,27.2 -28.3,27.2c-15.18783,0 -27.7,-10.03796 -27.7,-20.2c0,-11.02412 1.31852,-19.79986 9.82136,-26.81648c6.33487,-5.22759 15.46535,-2.78352 23.67864,-2.78352c15.18783,0 22.11612,1.84521 22.5,22.6z" data-paper-data="{&quot;origPos&quot;:null}" fill="url(#color-3)" stroke="none" stroke-width="0" stroke-linecap="butt"/><path d="M265.97766,193.47829c0,0 -17.24385,2 -29.4,2.4c-11.15011,0.36689 -22.4,-3.4 -22.4,-3.4c0,0 -0.98648,-13.79564 6.98462,-19.16002c5.21526,-3.50975 11.08038,-4.65914 18.61538,-4.83998c7.535,-0.18084 15.72889,2.13912 19.52206,5.21215c8.95988,7.25886 6.67794,19.78785 6.67794,19.78785z" data-paper-data="{&quot;origPos&quot;:null}" fill="#ff0021" stroke="none" stroke-width="0" stroke-linecap="butt"/><path d="M252.08548,172.3696c0,0 2.14029,6.84028 2.57206,10.95319c0.55457,5.28272 -0.57997,15.20846 -0.57997,15.20846" data-paper-data="{&quot;origPos&quot;:null,&quot;origRot&quot;:0}" fill="none" stroke="#0052ef" stroke-width="10" stroke-linecap="round"/><path d="M230.57766,172.87829c0,0 1.23985,7.05925 1.13735,11.19349c-0.13165,5.31011 -2.53735,15.00651 -2.53735,15.00651" data-paper-data="{&quot;origPos&quot;:null}" fill="none" stroke="#0052ef" stroke-width="10" stroke-linecap="round"/><path d="M225.77766,197.17829c0,-2.26436 1.83563,-4.1 4.1,-4.1c2.26436,0 4.1,1.83564 4.1,4.1c0,2.26436 -1.83563,4.1 -4.1,4.1c-2.26436,0 -4.1,-1.83563 -4.1,-4.1z" data-paper-data="{&quot;origPos&quot;:null}" fill="#ffe84f" stroke="none" stroke-width="0" stroke-linecap="butt"/><path d="M250.57766,197.17829c0,-2.26436 1.83563,-4.1 4.1,-4.1c2.26436,0 4.1,1.83564 4.1,4.1c0,2.26436 -1.83564,4.1 -4.1,4.1c-2.26436,0 -4.1,-1.83563 -4.1,-4.1z" data-paper-data="{&quot;origPos&quot;:null}" fill="#ffe84f" stroke="none" stroke-width="0" stroke-linecap="butt"/></g><g data-paper-data="{&quot;origPos&quot;:null,&quot;origRot&quot;:0}" stroke="none" stroke-width="0" stroke-linecap="butt"><path d="M232.60709,178.78795c3.86734,6.80733 9.76666,20.96251 9.76666,20.96251l-13.96047,7.72064c0,0 -5.83456,-7.32712 -10.64281,-15.79067c-4.80827,-8.46356 -5.11547,-19.0464 -0.49351,-21.67219c4.62194,-2.62579 10.52188,0.31616 15.33015,8.77972z" data-paper-data="{&quot;origRot&quot;:0,&quot;origPos&quot;:null}" fill="#ff0021"/><g data-paper-data="{&quot;origPos&quot;:null}" fill="#ffffff"><path d="M258.73988,210.55602c6.48977,9.02244 -1.57502,13.61485 -9.44188,20.1784c-7.20916,6.01484 -20.5948,1.57466 -24.21985,-4.62268c-4.99687,-8.54261 5.11941,-14.27612 13.48678,-18.53491c8.36738,-4.25878 14.11524,-5.44537 20.17494,2.97919z" data-paper-data="{&quot;origRot&quot;:0,&quot;origPos&quot;:null}"/><path d="M249.08684,198.95882c3.30181,5.99972 0.31684,4.82269 -11.54959,11.25645c-10.41659,5.64768 -11.92774,6.83644 -15.19878,1.52168c-2.92398,-4.75085 5.08465,-7.25288 11.54043,-10.54941c6.45577,-3.29653 13.27992,-5.73213 15.20794,-2.22871z" data-paper-data="{&quot;origRot&quot;:0,&quot;origPos&quot;:null}"/></g></g><g><path d="M283.39953,122.35389c-0.56793,3.79329 -11.88998,8.6 -20.8,8.6c-7.1797,0 -5.4,-6.75492 -5.4,-10.4c0,-3.64508 14.0703,-2.85 21.25,-2.85c7.1797,0 5.31761,2.19464 4.95,4.65z" data-paper-data="{&quot;origPos&quot;:null}" fill="url(#color-4)" stroke="none" stroke-width="0" stroke-linecap="butt"/><path d="M210.15925,163.26629c0,0 -1.70028,1.17057 -3.5833,-0.19744c-1.88302,-1.368 -3.24721,-4.53148 -0.52143,-6.04226c3.26031,-1.80704 2.41456,-7.88485 4.29758,-6.51685c0,0 7.23293,1.02169 7.79114,3.9154c0,0 3.0507,8.35652 1.80057,9.69315c0,0 -1.78179,1.32182 -6.42716,1.10231c-2.51693,-0.11893 -3.35741,-1.95431 -3.35741,-1.95431z" data-paper-data="{&quot;origRot&quot;:0,&quot;origPos&quot;:null}" fill="#5a2c0a" stroke="none" stroke-width="0" stroke-linecap="butt"/><path d="M214.98286,124.63722c4.31396,1.0071 37.24301,-2.16822 43.0368,-1.8462c8.57182,0.47642 6.20204,8.21361 6.80713,16.77732c0.69572,9.84642 7.56286,14.33038 4.11388,23.57918c-1.32977,3.56593 -4.32109,5.43206 -7.31062,7.78723c-1.69594,1.33607 -6.42898,2.63394 -17.21721,2.85583c-15.24981,0.31365 -19.57369,-2.15552 -25.86091,-6.94741c-3.99221,-3.04272 -2.2504,-7.36559 -5.42563,-12.17258c-0.97333,-1.47352 -2.12747,-2.25956 -2.322,-2.25956c-10.37042,0 -16.07143,-8.56649 -16.07143,-16.66666c0,-8.10018 3.70101,-14.66666 9.5,-14.66666c5.79899,0 9.25,3.20935 10.75,3.55952z" data-paper-data="{&quot;origPos&quot;:null}" fill="#ffdebd" stroke="none" stroke-width="0" stroke-linecap="butt"/><path d="M263.16619,129.84363c0.35235,4.88885 -1.81808,9.02906 -4.84779,9.24741c-3.02971,0.21836 -5.7714,-3.56782 -6.12375,-8.45666c-0.35235,-4.88885 1.81808,-9.02905 4.84779,-9.24741c3.02971,-0.21836 5.77141,3.56782 6.12376,8.45666z" data-paper-data="{&quot;origPos&quot;:null,&quot;origRot&quot;:0}" fill="#ffffff" stroke="none" stroke-width="0" stroke-linecap="butt"/><path d="M225.39286,132.4607c0,2.60849 3.05805,6.42393 0.71211,7.56446c-2.72909,1.32681 -4.12613,-0.50952 -4.12613,-0.50952c0,0 0.58226,1.57572 -3.0717,2.25935c-2.71433,0.50783 -3.65714,-5.18172 -3.65714,-9.6c0,-4.41828 -0.01669,-8.69821 2.74286,-8.8c11.61857,-0.42857 7.4,4.66744 7.4,9.08571z" data-paper-data="{&quot;origPos&quot;:null}" fill="#5a2c0a" stroke="none" stroke-width="0" stroke-linecap="butt"/><path d="M250.14298,134.84835c0.57094,4.86816 -1.41189,9.10142 -4.42877,9.45524c-3.01689,0.35383 -5.92541,-3.30577 -6.49635,-8.17393c-0.57094,-4.86816 1.41189,-9.10142 4.42877,-9.45524c3.01689,-0.35383 5.92541,3.30577 6.49635,8.17393z" data-paper-data="{&quot;origPos&quot;:null,&quot;origRot&quot;:0}" fill="#ffffff" stroke="none" stroke-width="0" stroke-linecap="butt"/><path d="M247.35,131.20001c0.952,0 1.814,0.695 2.439,1.817c0.624,1.122 1.011,2.672 1.011,4.383c0,1.711 -0.387,3.261 -1.011,4.383c-0.625,1.122 -1.487,1.817 -2.439,1.817c-0.952,0 -1.814,-0.695 -2.439,-1.817c-0.624,-1.122 -1.011,-2.672 -1.011,-4.383c0,-1.711 0.387,-3.261 1.011,-4.383c0.625,-1.122 1.487,-1.817 2.439,-1.817z" data-paper-data="{&quot;origPos&quot;:null}" id="ID0.2989244391210377" fill="#000000" stroke="none" stroke-width="1" stroke-linecap="butt"/><path d="M260.35,126.65001c0.952,0 1.814,0.695 2.439,1.817c0.624,1.122 0.775,2.904 1.011,4.383c0.083,0.539 0.233,1.323 -0.15,1.8c-0.483,0.577 -1.281,0.853 -2,1.1c-1.256,0.26 -2.748,1.037 -3.85,0.4c-0.966,-0.58 -0.89,-2.138 -0.9,-3.3c-0.013,-1.501 0.387,-3.261 1.011,-4.383c0.625,-1.122 1.487,-1.817 2.439,-1.817z" data-paper-data="{&quot;origPos&quot;:null}" id="ID0.2989244391210377" fill="#000000" stroke="none" stroke-width="1" stroke-linecap="round"/><path d="M269.29349,95.32854c2.39648,14.94461 -0.49216,15.79448 -8.52168,20.57884c-11.69967,6.97121 -27.00365,5.55994 -39.50062,10.97342c-3.28137,1.42143 -11.64483,-2.03217 -15.22084,-2.03217c-7.31398,0 -11.44089,-5.22725 -11.74313,-11.45342c-0.66666,-13.7335 6.09582,-13.78676 13.4098,-13.78676c0,0 8.04926,1.33414 10.82961,5.60456c0,0 11.19763,-18.21899 23.00151,-20.46979c15.1949,-2.89741 26.02436,-0.14688 27.74535,10.58532z" data-paper-data="{&quot;origPos&quot;:null}" fill="#ff0021" stroke="none" stroke-width="0" stroke-linecap="butt"/><path d="M266.39953,103.85389c0,5.46762 -1.46317,9.58116 -12.2,9.9c-11.33464,0.33659 -12.2,-4.43238 -12.2,-9.9c0,-5.46762 5.46212,-9.9 12.2,-9.9c6.73787,0 12.2,4.43238 12.2,9.9z" data-paper-data="{&quot;origPos&quot;:null}" fill="#ffffff" stroke="none" stroke-width="0" stroke-linecap="butt"/><path d="M283.79953,120.25389c-0.2,0.85848 -39.34284,6.5 -50.3,7.7c-5.32532,0.58322 -16.1,0.15848 -15.9,-0.7c0.73933,-3.1735 2.8049,-8.24498 7.9,-9.9c6.15716,-2 27.29511,-7.38005 43.10212,-7.1384c6.46182,0.09879 15.93721,6.8649 15.19788,10.0384z" data-paper-data="{&quot;origPos&quot;:null}" fill="url(#color-5)" stroke="none" stroke-width="0" stroke-linecap="butt"/><path d="M245.79953,109.57611l4.82784,-12.82222l4.40385,5.93838l2.72355,-5.30956l5.33279,10.08214l-3.65873,2.20988l-1.51788,-7.64078l-2.71476,4.66865l-3.5719,-4.6906l-1.52983,7.56411z" data-paper-data="{&quot;origPos&quot;:null}" fill="#ff0021" stroke="none" stroke-width="0" stroke-linecap="butt"/><path d="M268.30542,163.48899c-0.3711,2.54836 -2.29609,3.82599 -3.74172,4.218c-4.4121,1.19644 -10.83865,1.02213 -15.21565,-0.29692c-2.51556,-0.75809 -2.56024,-2.38549 -2.80313,-2.61298c-0.25663,-0.24036 -2.96973,1.56689 -6.23949,1.56689c-5.2467,0 -8.875,-3.69733 -8.875,-8.875c0,-5.67767 0.49272,-8.8327 1.34672,-8.99605c4.97377,-0.95139 6.45569,3.43243 10.27828,5.49605c0,0 12.7819,4.20754 18.75328,3.86744c0,0 9.6388,-4.51103 12.62642,-4.31325c1.48172,0.09809 1.49141,3.20314 1.02397,4.7714c0,0 0.15212,4.28337 -1.92128,5.42204c-4.90253,2.69238 -5.12499,-0.98512 -5.23239,-0.24762z" data-paper-data="{&quot;origPos&quot;:null}" fill="#38291e" stroke="none" stroke-width="0" stroke-linecap="butt"/><path d="M273.93042,147.48899c-0.5,6.61802 1.12741,11.125 -13.25,10.875c-6.62642,-0.11523 -13,-4.25698 -13,-10.125c0,-5.86802 6.3926,-13.11026 13,-13.625c9.62741,-0.75 14.04992,2.28715 13.25,12.875z" data-paper-data="{&quot;origPos&quot;:null}" fill="#ffdebd" stroke="none" stroke-width="0" stroke-linecap="butt"/><g data-paper-data="{&quot;origPos&quot;:null}" fill="none" stroke="#f6b09a" stroke-width="3.5" stroke-linecap="round"><path d="M201.10689,131.43213c0,0 2.96332,-1.72996 6.75499,1.19948c5.43788,4.2013 2.24501,11.37195 2.24501,11.37195" data-paper-data="{&quot;origPos&quot;:null}"/><path d="M203.82118,138.14644h6" data-paper-data="{&quot;origPos&quot;:null}"/><path d="M209.24974,144.14644h-1.28571" data-paper-data="{&quot;origPos&quot;:null}"/></g><path d="M240.51269,124.2013c-1.37576,0.41027 -1.31062,0.60464 -1.97844,1.87549c-0.68894,1.31106 -2.14657,2.99951 -2.14657,2.99951c0,0 -1.45833,-3.62706 -1.45833,-6.31945c0,-1.8281 0.99336,-5.0144 3.81107,-5.65344c9.53112,-0.32089 6.69401,8.65093 6.69401,8.65093c0,0 -3.4773,-2.0232 -4.92174,-1.55303z" data-paper-data="{&quot;origPos&quot;:null}" fill="#38291e" stroke="none" stroke-width="0" stroke-linecap="butt"/><path d="M257.77348,121.39526c-1.51641,0.08916 -4.01601,3.24146 -4.01601,3.24146c0,0 -5.91454,-7.31854 3.07681,-10.49674c2.85665,-0.43291 4.94393,2.17143 5.61082,3.87354c0.98219,2.50684 0.94752,6.41595 0.94752,6.41595c0,0 -1.97313,-1.04035 -3.09287,-2.00973c-1.0854,-0.93965 -1.09566,-1.14439 -2.52627,-1.02451z" data-paper-data="{&quot;origPos&quot;:null,&quot;index&quot;:null,&quot;origRot&quot;:0}" fill="#38291e" stroke="none" stroke-width="0" stroke-linecap="butt"/></g></g></g></svg>