<svg version="1.1" xmlns="http://www.w3.org/2000/svg" xmlns:xlink="http://www.w3.org/1999/xlink" width="500.94736" height="245.979" viewBox="0,0,500.94736,245.979"><defs><linearGradient x1="238.66376" y1="230.1" x2="238.66376" y2="311.1" gradientUnits="userSpaceOnUse" id="color-1"><stop offset="0" stop-color="#7c5831"/><stop offset="1" stop-color="#95693b"/></linearGradient><linearGradient x1="66.58002" y1="193.33333" x2="66.58002" y2="275" gradientUnits="userSpaceOnUse" id="color-2"><stop offset="0" stop-color="#64e298"/><stop offset="1" stop-color="#60b483"/></linearGradient><linearGradient x1="63.55" y1="161.29322" x2="63.55" y2="304.4217" gradientUnits="userSpaceOnUse" id="color-3"><stop offset="0" stop-color="#7c5831"/><stop offset="1" stop-color="#95693b"/></linearGradient><linearGradient x1="-104" y1="130.1863" x2="-104" y2="198.23993" gradientUnits="userSpaceOnUse" id="color-4"><stop offset="0" stop-color="#64e298"/><stop offset="1" stop-color="#60b483"/></linearGradient><linearGradient x1="240.3" y1="318" x2="240.3" y2="363" gradientUnits="userSpaceOnUse" id="color-5"><stop offset="0" stop-color="#7c5831"/><stop offset="1" stop-color="#95693b"/></linearGradient><linearGradient x1="239.31765" y1="291.33904" x2="240.68237" y2="372.99429" gradientUnits="userSpaceOnUse" id="color-6"><stop offset="0" stop-color="#64e298"/><stop offset="1" stop-color="#60b483"/></linearGradient></defs><g transform="translate(19.30005,-133.44812)"><g data-paper-data="{&quot;isPaintingLayer&quot;:true}" fill-rule="nonzero" stroke-linejoin="miter" stroke-miterlimit="10" stroke-dasharray="" stroke-dashoffset="0" style="mix-blend-mode: normal"><g data-paper-data="{&quot;origPos&quot;:null}" stroke-width="2"><path d="M307.53931,311.1h-137.75111v-81h137.75111z" fill="url(#color-1)" stroke="#663b00" stroke-linecap="butt"/><g fill="#b2b2b2" stroke="#7f7f7f" stroke-linecap="round"><path d="M265.02322,270.4705c-0.58171,-0.4341 2.43146,-0.2657 3.59394,-1.3942c1.05774,-1.0266 1.57183,-2.4652 2.23462,-3.7562c0.32818,-0.6395 -0.01178,-1.9261 0.72945,-2.0202c1.48235,-0.1881 3.12369,0.4496 4.24862,1.3874c1.21053,1.0088 2.26374,2.5229 2.27741,4.0539c0.01851,2.1337 -0.98718,4.2588 -2.18835,6.0607c-0.77319,1.159 -2.06437,2.219 -3.48721,2.45c-1.39413,0.2262 -2.90876,-0.4287 -4.04578,-1.2283c-1.64302,-1.1562 -4.06008,-2.5136 -3.99604,-4.4296z"/><path d="M258.78982,279.2258c-4.96892,-0.2219 -7.40438,-5.5209 -9.17349,-9.4615c-1.86038,-4.1482 -1.98477,-9.4262 -0.85059,-13.952c0.76121,-3.0283 3.14346,-5.5321 5.81783,-7.1029c2.66406,-1.5635 6.4803,-2.3543 9.58622,-1.2318c4.6684,1.4832 10.97645,3.6456 12.06279,8.4868c1.11789,4.9983 -4.27775,9.4797 -7.39766,13.6408c-2.7567,3.676 -5.39469,9.2195 -10.04511,9.6206z"/><path d="M268.12094,277.0947c1.50643,-1.0286 2.91275,-2.6489 4.76461,-2.7444c1.59539,-0.0827 4.45514,0.7924 4.15262,2.2841c-0.5959,2.9429 -3.41717,5.2553 -6.02067,6.9439c-1.50517,0.9752 -4.02118,1.5129 -5.55105,0.5076c-1.19433,-0.974 -0.62125,-3.1597 -0.09254,-4.6089c0.40453,-1.1111 1.74155,-1.6958 2.2097,-2.1556z"/><path d="M278.68361,264.8921c0.38539,-0.5247 0.73418,-1.8843 1.80401,-2.4737c1.39518,-0.7697 3.5422,-1.7212 4.77523,-0.7919c1.32925,1.2367 1.25364,3.688 0.53386,5.279c-1.24702,2.7523 -3.09646,5.8269 -6.02067,6.9439c-1.48224,0.5667 -2.93052,-1.9363 -3.14914,-3.4415c-0.25437,-1.7469 1.15027,-3.3686 1.92494,-4.971z"/></g><path d="M170.30044,234l-4.27713,13l-8.55426,21v-23l-0.7028,-1.47885c0.14672,-0.65147 0.24581,-1.31869 0.24581,-2.02115c0,-10.18951 0.81879,-20.24908 1.01133,-30.42531c3.42463,-3.21672 7.14784,-6.39284 11.16664,-8.33128c1.38333,-0.66724 2.86336,-1.39214 4.36365,-2.17357c0.36811,-0.12508 0.73382,-0.26039 1.0963,-0.40959c0.57991,-0.2387 1.45623,-0.41021 1.5773,-1c0.00302,-0.01471 0.00373,-0.02829 0.00231,-0.0408c0.23388,-0.13246 0.46714,-0.26629 0.69951,-0.40147c0.35768,0.0061 0.73508,0.02421 1.11365,0.04852v0.23351h3.15461c0.66452,0 1.30023,-0.11724 1.88555,-0.33115c0.18858,-0.06094 0.38273,-0.13308 0.57809,-0.2185l123.98029,1.7123c1.24188,0.62679 2.48866,1.23474 3.65884,1.9976c2.09065,1.36292 2.76954,2.77459 4.32523,4.61325c0.83723,0.98953 2.1296,1.64234 2.75999,2.76203c0.13916,0.24719 -0.68687,-0.72941 -0.74436,-0.4544c-0.30872,1.47668 1.17883,2.797 1.86256,4.15493c0.17282,0.3287 0.33846,0.66595 0.49646,1.0097v0.75422l-3.61122,20v22l-3.61123,-16l-3.61122,-14v20l1.80561,18l-5.41684,-17l-5.41685,-16v22l-3.61122,15l-0.90281,-17l-4.51404,-19l-3.61122,20v20l-5.41685,-16v-21l-4.51404,13l-0.90281,21l-6.31965,-17v-15l-4.51404,17l-2.70842,20l-1.80562,-21l-1.80561,-23l-5.41685,29l-2.70842,12l-3.61123,-22l-0.90281,-13l-1.80561,18l-3.61123,19l-2.70842,-14l-2.70843,-18l-3.61122,17l-4.51404,15l-2.70842,-18v-22l-5.41685,17l-1.80561,16l-5.41685,-10l-0.90281,-17l-6.31965,22v11l-4.91741,-16.5l-3.20784,-16.5l-6.31965,8v17l-3.61123,-27l-4.81177,33l-3.47997,-30l-8.55426,31l2.40109,-21l-3.61123,-13z" data-paper-data="{&quot;origPos&quot;:null,&quot;index&quot;:null}" fill="url(#color-2)" stroke="#20996f" stroke-linecap="butt"/></g><g data-paper-data="{&quot;origPos&quot;:null}"><path d="M129.05,304.4217h-131v-143.12848h131z" fill="url(#color-3)" stroke="#663b00" stroke-width="3.31555" stroke-linecap="butt"/><g fill="#b2b2b2" stroke="#7f7f7f" stroke-width="2" stroke-linecap="round"><path d="M37.4919,200.95252c0.3381,0.5139 -2.2306,-0.55382 -3.6907,-0.05117c-1.3284,0.45707 -2.3435,1.39929 -3.4305,2.18202c-0.5384,0.38774 -0.7468,1.47954 -1.4319,1.32071c-1.3703,-0.31766 -2.5549,-1.31755 -3.1699,-2.38652c-0.662,-1.15013 -0.9878,-2.63834 -0.3979,-3.81573c0.8225,-1.64062 2.5372,-2.95567 4.2959,-3.96214c1.1317,-0.64723 2.6774,-1.05722 4.0124,-0.79106c1.308,0.26099 2.375,1.23463 3.055,2.20152c0.9822,1.39763 2.5622,3.19066 1.7531,4.63887z"/><path d="M46.3842,196.18574c4.2578,1.71787 4.3045,6.53673 4.3026,10.10722c-0.0038,3.75806 -1.9698,7.84095 -4.7406,10.95544c-1.856,2.08327 -4.9232,3.25966 -7.8793,3.63023c-2.9441,0.36816 -6.592,-0.21466 -8.8667,-2.04228c-3.4993,-2.59076 -8.1653,-6.21258 -7.2122,-10.26054c0.9871,-4.17805 7.4669,-5.93108 11.8307,-8.14752c3.8555,-1.95803 8.3413,-5.38385 12.5655,-4.24255z"/><path d="M37.387,194.91194c-1.7216,0.31882 -3.5883,1.12239 -5.2451,0.61865c-1.4276,-0.43357 -3.5843,-1.99494 -2.7334,-3.04366c1.6778,-2.06936 5.0538,-2.96233 7.9942,-3.44524c1.6995,-0.27833 4.111,0.09341 5.0536,1.34021c0.6615,1.11847 -0.6988,2.61468 -1.7307,3.5604c-0.7906,0.72531 -2.1895,0.75681 -2.7796,0.96331z"/><path d="M23.3925,200.99827c-0.5432,0.28191 -1.3827,1.21505 -2.5498,1.33338c-1.5226,0.15525 -3.774,0.21549 -4.487,-0.88073c-0.6762,-1.36163 0.3535,-3.21633 1.6083,-4.21121c2.1723,-1.72045 4.998,-3.50015 7.9942,-3.44515c1.5189,0.0275 1.8014,2.39652 1.401,3.6179c-0.4643,1.41788 -2.3301,2.22285 -3.6374,3.20933z"/></g><path d="M35.25,253.90504c3.481,-0.1 1.389,10.76136 6,13.74961c3.18,2.05661 8.06,-0.45415 11.75,-1.66662c2.25,-0.75331 3.374,-3.73406 5,-3.33324c1.545,0.38249 1.35,3.21074 1,4.79153c-0.258,2.03994 -0.67,4.55654 -2.75,5.62484c-5.74,2.94658 -12.393,6.95314 -19,5.83317c-5.453,-0.92414 -10.13,-6.20649 -10.5,-10.83303c-0.421,-5.26235 4.731,-14.05794 8,-15.41623z" fill="#b2b2b2" stroke="#7f7f7f" stroke-width="2" stroke-linecap="round"/><path d="M110.4489,218.14429c-3.4704,0.24699 -2.0421,-10.68878 -6.8291,-13.47837c-3.301,-1.91953 -8.022,0.79423 -11.6334,2.16102c-2.2013,0.84748 -3.1424,3.87189 -4.7907,3.54032c-1.5663,-0.31674 -1.5437,-3.14958 -1.2903,-4.74312c0.1335,-2.04828 0.3918,-4.57904 2.4041,-5.73384c5.5533,-3.18541 11.9539,-7.46796 18.6205,-6.62865c5.5023,0.69256 10.4947,5.77042 11.1458,10.37538c0.7407,5.23777 -3.8693,14.23977 -7.0515,15.73447z" fill="#b2b2b2" stroke="#7f7f7f" stroke-width="2" stroke-linecap="round"/><path d="M-5.36287,164.07423l-4.06751,10.83303l-8.13502,17.49951v-19.16613l-0.66836,-1.23234c0.13953,-0.54288 0.23376,-1.09888 0.23376,-1.68424c0,-8.49102 0.77866,-16.87376 0.96177,-25.35371c3.25679,-2.68052 6.79753,-5.32722 10.61937,-6.94254c1.31553,-0.55602 2.72303,-1.16008 4.14979,-1.81126c0.35007,-0.10423 0.69786,-0.21699 1.04257,-0.34132c0.55149,-0.19891 1.38486,-0.34183 1.5,-0.83331c0.00287,-0.01226 0.00355,-0.02357 0.0022,-0.034c0.22242,-0.11038 0.44425,-0.2219 0.66523,-0.33455c0.34015,0.00508 0.69905,0.02017 1.05907,0.04043v0.19459h3c0.63195,0 1.23651,-0.0977 1.79314,-0.27595c0.17934,-0.05078 0.36397,-0.1109 0.54976,-0.18208l117.90408,1.42688c1.18102,0.52231 2.36669,1.02892 3.47952,1.66462c1.98819,1.13573 2.63381,2.31209 4.11325,3.84427c0.7962,0.82459 2.02523,1.36858 2.62472,2.30163c0.13234,0.20599 -0.65321,-0.60782 -0.70788,-0.37866c-0.29359,1.23053 1.12106,2.33077 1.77128,3.46234c0.16435,0.27391 0.32187,0.55494 0.47213,0.84139v0.6285l-3.43424,16.6662v18.33282l-3.43425,-13.33296l-3.43424,-11.66634v16.6662l1.71712,14.99958l-5.15136,-14.16627l-5.15137,-13.33296v18.33282l-3.43424,12.49965l-0.85856,-14.16627l-4.29281,-15.83289l-3.43424,16.6662v16.6662l-5.15137,-13.33296v-17.49951l-4.29281,10.83303l-0.85856,17.49951l-6.00993,-14.16627v-12.49965l-4.29281,14.16627l-2.57568,16.6662l-1.71713,-17.49951l-1.71712,-19.16613l-5.15137,24.16599l-2.57568,9.99972l-3.43425,-18.33282l-0.85856,-10.83303l-1.71712,14.99958l-3.43425,15.83289l-2.57568,-11.66634l-2.57569,-14.99958l-3.43424,14.16627l-4.29281,12.49965l-2.57568,-14.99958v-18.33282l-5.15137,14.16627l-1.71712,13.33296l-5.15137,-8.3331l-0.85856,-14.16627l-6.00993,18.33282v9.16641l-4.67641,-13.74961l-3.05063,-13.74961l-6.00993,6.66648v14.16627l-3.43425,-22.49937l-4.57595,27.49923l-3.30942,-24.9993l-8.13502,25.83261l2.28341,-17.49951l-3.43425,-10.83303z" data-paper-data="{&quot;origPos&quot;:null,&quot;index&quot;:null}" fill="url(#color-4)" stroke="#20996f" stroke-width="2" stroke-linecap="butt"/></g><g stroke-width="2"><path d="M480.3,363h-480v-45h480z" data-paper-data="{&quot;origPos&quot;:null}" fill="url(#color-5)" stroke="#763e13" stroke-linecap="butt"/><g data-paper-data="{&quot;origPos&quot;:null}" fill="#b2b2b2" stroke="#7f7f7f" stroke-linecap="round"><path d="M152.4816,346.2308c-0.0806,-0.6985 1.8153,1.4566 3.3951,1.4485c1.4373,-0.0072 2.8037,-0.6716 4.1646,-1.1318c0.6741,-0.228 1.3612,-1.3629 1.9239,-0.928c1.1254,0.8696 1.7701,2.4276 1.8561,3.8477c0.0927,1.5279 -0.2789,3.3048 -1.358,4.391c-1.5041,1.5135 -3.6872,2.3285 -5.7715,2.7841c-1.3411,0.2927 -2.9582,0.1656 -4.0742,-0.6336c-1.0934,-0.7832 -1.6411,-2.2677 -1.8334,-3.5987c-0.2774,-1.9238 -0.9295,-4.5124 0.4751,-5.817z"/><path d="M142.0888,348.1762c-3.1664,-3.5146 -1.0292,-8.8883 0.5881,-12.856c1.7039,-4.1755 5.3721,-7.9723 9.3475,-10.3893c2.6617,-1.6156 6.0348,-1.7667 8.9404,-1.064c2.8934,0.7009 6.0084,2.7241 7.2883,5.613c2.0688,4.1989 4.7517,9.9837 2.0374,14.1236c-2.8047,4.2715 -9.5994,3.7768 -14.644,4.595c-4.4569,0.7226 -10.1617,2.839 -13.5577,-0.0223z"/><path d="M149.8897,352.9607c1.7388,0.2947 3.8312,0.1054 5.1379,1.29c1.126,1.0202 2.4171,3.5687 1.1544,4.4136c-2.4902,1.6673 -6.0211,1.3869 -8.963,0.815c-1.7,-0.3314 -3.7652,-1.6538 -4.0742,-3.395c-0.1066,-1.4924 1.8302,-2.6426 3.214,-3.3046c1.0603,-0.5081 2.3703,-0.0157 3.0103,-0.0227z"/><path d="M165.5847,351.5401c0.6308,-0.1085 1.8304,-0.8291 2.965,-0.5206c1.4805,0.4016 3.593,1.1835 3.7573,2.6707c0.0102,1.7683 -1.7826,3.4416 -3.3949,4.0742c-2.7905,1.0932 -6.2129,2.0059 -8.9631,0.8151c-1.3943,-0.6033 -0.5841,-3.3429 0.3394,-4.5495c1.0716,-1.4008 3.1638,-1.592 4.821,-2.1956z"/></g><path d="M324.9547,341.2094c1.1554,-3.2859 12.5337,3.407 17.5521,0.4177c3.4562,-2.0635 2.4263,-7.7055 2.4143,-11.6719c-0.023,-2.4247 -2.9454,-4.7737 -1.9056,-6.1131c0.9899,-1.2719 4.0801,0.1452 5.7196,1.1617c2.1861,1.1314 4.849,2.6144 5.2859,5.0184c1.204,6.6333 3.2604,14.58 -0.3963,20.2445c-3.0179,4.6753 -10.6245,6.724 -15.9303,5.0476c-6.035,-1.9065 -13.9905,-10.5472 -14.3188,-14.1852z" data-paper-data="{&quot;origPos&quot;:null}" fill="#b2b2b2" stroke="#7f7f7f" stroke-linecap="round"/><path d="M338.62056,330.35172l-3.8497,13.06616l-7.78296,21.13301l-0.38435,-22.99679l-8.43468,-17.86154l0.11698,6.99902l-3.61575,27.0642l-0.28408,-16.99763l-7.25084,-7.87993l0.28408,16.99763l-8.88325,16.1507l-0.18382,-10.99846l-7.48478,-21.87798l-0.73266,17.01462l-5.93331,10.10056l-2.30084,-15.96378l-6.3845,-16.89567l0.36764,21.99693l-2.74941,18.04846l-5.33434,-14.91294l-4.35102,-16.92966l-2.74941,18.04846l-2.81626,14.04902l-4.38445,-18.92938l-2.33427,-17.9635l-0.7995,13.01518l-3.69931,22.0649l-3.25073,-11.94735l-6.58503,-28.89399l-1.64913,23.03077l-1.68254,21.03105l-3.38442,-19.94623l-5.36776,-16.91266l0.25066,14.99791l-6.83306,17.11658l-1.36765,-20.98008l-5.30092,-12.91322l0.35093,20.99707l-5.83304,16.09972l-0.33422,-19.99721l-4.40116,-19.92924l-4.76618,19.08231l-0.73265,17.01462l-4.3176,-14.92993l-0.36764,-21.99693l-5.83305,16.09972l-5.81634,17.09958l1.73268,-18.03147l-0.33422,-19.99721l-3.83299,14.06602l-3.79957,16.06574l-0.36764,-21.99693l-1.1337,-6.98203l-2.92767,7.38329l-1.30552,3.02224l-2.54418,10.04392l-7.78296,21.13301l-0.38435,-22.99679l-8.43468,-17.86154l0.11698,6.99902l-3.61576,27.0642l-0.28408,-16.99763l-7.25083,-7.87993l0.28408,16.99763l-8.88325,16.1507l-0.18382,-10.99846l-7.48478,-21.87798l-0.73266,17.01462l-5.9333,10.10056l-2.30084,-15.96378l-6.3845,-16.89567l0.36764,21.99693l-2.74941,18.04846l-5.33434,-14.91294l-4.35102,-16.92966l-2.74942,18.04847l-2.81625,14.04902l-4.38445,-18.92938l-2.33426,-17.9635l-0.7995,13.01518l-3.69931,22.0649l-3.25073,-11.94735l-6.58503,-28.89399l-1.64912,23.03077l-1.68255,21.03105l-3.38442,-19.94623l-5.36776,-16.91266l0.25066,14.99791l-6.83306,17.11658l-1.36765,-20.98008l-5.30092,-12.91322l0.35093,20.99707l-5.83304,16.09972l-0.33422,-19.99721l-4.40116,-19.92924l-4.76618,19.08231l-0.73265,17.01462l-4.3176,-14.92993l-0.36764,-21.99693l-5.83305,16.09972l-5.81634,17.09958l1.73267,-18.03147l-0.33422,-19.99721l-3.83299,14.06602l-3.79957,16.06574l-0.36764,-21.99693l-4.40116,-19.92924l-0.25066,-14.99791l482.04967,-1.05556l-0.00557,-0.33329l0.25066,14.99791l-3.09955,20.0546l0.36764,21.99693l-3.70114,-15.94038l-3.66771,-13.94066l0.33422,19.99721l2.01767,17.96879l-5.43472,-16.91154l-5.41802,-15.91168l0.36764,21.99693l-3.1831,15.05529l-1.14252,-16.98328l-4.60971,-18.92561l-3.09955,20.0546l0.33422,19.99721l-5.41802,-15.91168l-0.35093,-20.99707l-4.07497,13.06992l-0.50751,21.01141l-6.29317,-16.8972l-0.25066,-14.99791l-4.00813,17.06936l-2.24111,20.04025l-2.06782,-20.96837l-2.10123,-22.96809l-4.66604,29.08203l-2.3748,12.04137l-3.8014,-21.93954l-1.07568,-12.98384l-1.4161,18.02618l-3.11626,19.05474l-2.80928,-13.955l-2.87611,-17.95445l-3.14969,17.05502l-4.04154,15.06964l-2.87612,-17.95444l-0.36764,-21.99693l-4.86657,17.08371l-1.44951,16.02646l-5.31776,-9.91252l-1.14252,-16.98328l-5.64145,22.09736l0.18382,10.99846l-4.95149,-16.41955l-3.32593,-16.44672l-5.8754,8.09931l0.28408,16.99763l-3.88495,-26.93884l-4.02386,33.07186l-3.81028,-29.94051l-7.61585,31.13161l1.93217,-21.03523l-3.65101,-12.9408z" data-paper-data="{&quot;origPos&quot;:null,&quot;index&quot;:null,&quot;origRot&quot;:0}" fill="url(#color-6)" stroke="#20996f" stroke-linecap="round"/></g></g></g></svg>