<svg version="1.1" xmlns="http://www.w3.org/2000/svg" xmlns:xlink="http://www.w3.org/1999/xlink" width="1109.46835" height="374.59628" viewBox="0,0,1109.46835,374.59628"><defs><radialGradient cx="560.37236" cy="180.00013" r="180.93093" gradientUnits="userSpaceOnUse" id="color-1"><stop offset="0" stop-color="#ececec"/><stop offset="1" stop-color="#616161"/></radialGradient><linearGradient x1="578.01501" y1="180.00013" x2="542.72972" y2="180.00013" gradientUnits="userSpaceOnUse" id="color-2"><stop offset="0" stop-color="#ececec" stop-opacity="0"/><stop offset="1" stop-color="#ececec"/></linearGradient><linearGradient x1="9.985" y1="318.41615" x2="140.71601" y2="318.41615" gradientUnits="userSpaceOnUse" id="color-3"><stop offset="0" stop-color="#000000"/><stop offset="1" stop-color="#000000" stop-opacity="0"/></linearGradient></defs><g transform="translate(64.12381,0.93079)"><g data-paper-data="{&quot;isPaintingLayer&quot;:true}" fill-rule="nonzero" stroke="none" stroke-linecap="butt" stroke-linejoin="miter" stroke-miterlimit="10" stroke-dasharray="" stroke-dashoffset="0" style="mix-blend-mode: normal"><path d="M1032.84416,361.74389l-31.25094,-26.74938h43.75132v28.1953z" data-paper-data="{&quot;origPos&quot;:null,&quot;index&quot;:null}" fill="#cc1919" stroke-width="0"/><g data-paper-data="{&quot;index&quot;:null}" fill="#ffffff"><path d="M544.6036,189.45347h-216.42943l43.16667,-26h173.26276z" stroke-width="1"/><path d="M371.67417,214.95347h-43l-43,-25.33333h50.09084l7.33333,-5.66667h81.92016z" stroke-width="0.85398"/></g><path d="M552.24967,373.66549h-562.33617v-74h562.33617z" data-paper-data="{&quot;origPos&quot;:null,&quot;index&quot;:null}" fill="#ececec" stroke-width="1"/><path d="M-8.70777,300.46549l0.21649,-32h197.026l59.94455,32z" data-paper-data="{&quot;index&quot;:null}" fill="#ececec" stroke-width="0"/><path d="M162.32113,310.46549v-42l26.25369,-0.08067l16.5873,8.98067v33.1z" data-paper-data="{&quot;index&quot;:null}" fill="#616161" stroke-width="0"/><path d="M120.51424,360.96549v-50.5h41.60992v50.5z" data-paper-data="{&quot;index&quot;:null}" fill="#616161" stroke-width="0"/><path d="M204.48928,368.46549l0.49243,-59l42.34856,24v35z" data-paper-data="{&quot;index&quot;:null}" fill="#616161" stroke-width="0"/><path d="M77.74711,310.46549l0.321,-42.08067l42.51999,0.08067v42z" data-paper-data="{&quot;index&quot;:null}" fill="#616161" stroke-width="0"/><g data-paper-data="{&quot;index&quot;:null}" fill="#616161" stroke-width="0"><path d="M458.91794,368.58952v-34.5h42.84098v34.5z" data-paper-data="{&quot;index&quot;:null}"/><path d="M501.31382,334.55047v-34.5h42.84098v34.5z" data-paper-data="{&quot;index&quot;:null}"/></g><g data-paper-data="{&quot;index&quot;:null}" fill="#616161" stroke-width="0"><path d="M374.22082,368.58952v-34.5h42.84098v34.5z" data-paper-data="{&quot;index&quot;:null}"/><path d="M416.6167,334.55047v-34.5h42.84098v34.5z" data-paper-data="{&quot;index&quot;:null}"/></g><g data-paper-data="{&quot;index&quot;:null}" fill="#616161" stroke-width="0"><path d="M289.52371,368.58952v-34.5h42.84098v34.5z" data-paper-data="{&quot;index&quot;:null}"/><path d="M331.91959,334.55047v-34.5h42.84098v34.5z" data-paper-data="{&quot;index&quot;:null}"/></g><path d="M247.22248,334.55047v-34.5h42.84098v34.5z" data-paper-data="{&quot;index&quot;:null}" fill="#616161" stroke-width="0"/><path d="M542.72972,360.93107v-361.86186h35.28529v361.86186z" data-paper-data="{&quot;index&quot;:null}" fill="url(#color-1)" stroke-width="0"/><path d="M542.72972,360.93107v-361.86186h35.28529v361.86186z" data-paper-data="{&quot;index&quot;:null}" fill="url(#color-2)" stroke-width="0"/><path d="M499.81682,189.41083v-26h42.84098v26z" data-paper-data="{&quot;index&quot;:null}" fill="#616161" stroke-width="0"/><path d="M414.6197,189.66083v-26h42.84098v26z" data-paper-data="{&quot;index&quot;:null}" fill="#616161" stroke-width="0"/><path d="M371.78637,214.82749v-25.33333h42.84098z" data-paper-data="{&quot;index&quot;:null}" fill="#616161" stroke-width="0"/><path d="M328.45304,189.49416l42.84098,-26v26z" data-paper-data="{&quot;index&quot;:null}" fill="#616161" stroke-width="0"/><path d="M286.11969,189.66084h42.84098v25.33333z" data-paper-data="{&quot;index&quot;:null}" fill="#616161" stroke-width="0"/><path d="M77.74711,310.46549l-0.35877,50.68877l-47.52329,-0.09717v-50.5916z" data-paper-data="{&quot;index&quot;:null}" fill="#616161" stroke-width="0"/><path d="M-12.30917,310.46549l0.316,-42.18177l41.85822,0.08086v42.10091z" data-paper-data="{&quot;index&quot;:null}" fill="#616161" stroke-width="0"/><path d="M-64.12381,368.29068v-99.74907h204.83982v99.74907z" fill="url(#color-3)" stroke-width="0"/></g></g></svg>