<svg version="1.1" xmlns="http://www.w3.org/2000/svg" xmlns:xlink="http://www.w3.org/1999/xlink" width="34.4575" height="37.97384" viewBox="0,0,34.4575,37.97384"><defs><linearGradient x1="36.94305" y1="16.84778" x2="36.94305" y2="21.97006" gradientUnits="userSpaceOnUse" id="color-1"><stop offset="0" stop-color="#509b07"/><stop offset="1" stop-color="#346a00"/></linearGradient><linearGradient x1="29.35867" y1="13.99398" x2="29.35867" y2="20.92012" gradientUnits="userSpaceOnUse" id="color-2"><stop offset="0" stop-color="#509b07"/><stop offset="1" stop-color="#438504"/></linearGradient></defs><g transform="translate(-7.65343,-3.78946)"><g data-paper-data="{&quot;isPaintingLayer&quot;:true}" fill-rule="nonzero" stroke-linejoin="miter" stroke-miterlimit="10" stroke-dasharray="" stroke-dashoffset="0" style="mix-blend-mode: normal"><path d="M41.92313,18.66372c-0.21834,1.45836 -4.57119,3.30634 -7.99672,3.30634c-2.76029,0 -2.07606,-2.59698 -2.07606,-3.99835c0,-1.40138 5.40943,-1.0957 8.16973,-1.0957c2.76029,0 2.04439,0.84374 1.90306,1.78773z" fill="url(#color-1)" stroke="none" stroke-width="0" stroke-linecap="butt"/><path d="M14.37422,35.55454c0,0 -0.55104,0.57407 -1.1613,-0.09683c-0.61027,-0.67089 -1.05238,-2.22232 -0.16899,-2.96323c1.05662,-0.8862 0.78252,-3.86686 1.39279,-3.19597c0,0 2.34408,0.50106 2.52499,1.92018c0,0 0.98869,4.09818 0.58355,4.75368c0,0 -0.57745,0.64825 -2.08295,0.5406c-0.8157,-0.05833 -1.08809,-0.95843 -1.08809,-0.95843z" data-paper-data="{&quot;origRot&quot;:0}" fill="#5a2c0a" stroke="none" stroke-width="0" stroke-linecap="butt"/><path d="M15.61981,19.54156c1.65854,0.38719 14.31837,-0.8336 16.54583,-0.70979c3.2955,0.18316 2.38442,3.15779 2.61705,6.45018c0.26747,3.78553 -0.62049,8.1664 -0.33333,10.787c0.30799,2.81078 0.0496,4.28318 -2.20417,5.63369c-6.17674,0.36827 -5.08865,-1.02279 -7.92778,-1.9552c-2.40465,-0.88561 -4.10992,-1.60097 -6.69248,-3.78267c-1.96041,-1.65611 -1.49815,-3.02856 -2.71889,-4.87664c-0.3742,-0.56651 -0.81793,-0.8687 -0.89271,-0.8687c-3.98699,0 -6.17878,-3.29346 -6.17878,-6.40764c0,-3.11417 1.42288,-5.63871 3.65235,-5.63871c2.22946,0 3.55623,1.23387 4.13292,1.36849z" fill="#ffdebd" stroke="none" stroke-width="0" stroke-linecap="butt"/><path d="M34.14426,21.54321c0.13547,1.87956 -0.69897,3.47129 -1.86377,3.55523c-1.1648,0.08395 -2.21886,-1.37167 -2.35432,-3.25123c-0.13546,-1.87956 0.69898,-3.47128 1.86378,-3.55524c1.1648,-0.08395 2.21886,1.37168 2.35432,3.25123z" data-paper-data="{&quot;origRot&quot;:0}" fill="#ffffff" stroke="none" stroke-width="0" stroke-linecap="butt"/><path d="M18.74969,22.69474c0.1454,1.87518 1.75724,3.19667 0.85533,3.63516c-0.45946,0.22339 -2.22226,0.05605 -2.91265,-0.63575c-0.69039,-0.6918 -0.96985,-1.55599 -0.96985,-3.25463c0,-1.69864 -0.00642,-3.34409 1.05451,-3.38323c4.46684,-0.16477 1.84136,1.9449 1.97267,3.63846z" fill="#5a2c0a" stroke="none" stroke-width="0" stroke-linecap="butt"/><path d="M29.13739,23.46731c0.2195,1.8716 -0.54281,3.49911 -1.70267,3.63514c-1.15986,0.13603 -2.27807,-1.27092 -2.49757,-3.14253c-0.2195,-1.8716 0.54281,-3.49911 1.70267,-3.63514c1.15986,-0.13603 2.27807,1.27092 2.49757,3.14253z" data-paper-data="{&quot;origRot&quot;:0}" fill="#ffffff" stroke="none" stroke-width="0" stroke-linecap="butt"/><path d="M28.06361,22.06467c0.36601,0 0.6974,0.2672 0.93769,0.69856c0.23991,0.43136 0.38869,1.02727 0.38869,1.68508c0,0.65781 -0.14879,1.25372 -0.38869,1.68508c-0.24029,0.43136 -0.57169,0.69856 -0.93769,0.69856c-0.36601,0 -0.6974,-0.2672 -0.93769,-0.69856c-0.23991,-0.43136 -0.38868,-1.02727 -0.38868,-1.68508c0,-0.65781 0.14878,-1.25372 0.38868,-1.68508c0.24029,-0.43136 0.57169,-0.69856 0.93769,-0.69856z" fill="#000000" stroke="none" stroke-width="1" stroke-linecap="butt"/><path d="M33.06156,20.31539c0.36601,0 0.69741,0.2672 0.93769,0.69856c0.23991,0.43136 0.29796,1.11646 0.38869,1.68508c0.03191,0.20723 0.08957,0.50864 -0.05768,0.69203c-0.1857,0.22183 -0.49249,0.32795 -0.76891,0.42291c-0.48288,0.09996 -1.05649,0.39868 -1.48017,0.15378c-0.37139,-0.22299 -0.34216,-0.82198 -0.34601,-1.26872c-0.005,-0.57707 0.14878,-1.25372 0.38868,-1.68508c0.24029,-0.43136 0.57169,-0.69856 0.93769,-0.69856z" fill="#000000" stroke="none" stroke-width="1" stroke-linecap="round"/><path d="M36.49996,8.27361c0.92134,5.74557 -0.18922,6.07232 -3.27623,7.91169c-4.49802,2.68014 -10.38176,2.13757 -15.18631,4.21882c-1.26155,0.54648 -4.47695,-0.78129 -5.85177,-0.78129c-2.81192,0 -4.39853,-2.00966 -4.51473,-4.40336c-0.25631,-5.27995 2.34359,-5.30042 5.1555,-5.30042c0,0 3.0946,0.51291 4.16353,2.15471c0,0 4.30502,-7.00443 8.84311,-7.86977c5.8418,-1.11393 10.00527,-0.05647 10.66692,4.06961z" fill="#64ca00" stroke="none" stroke-width="0" stroke-linecap="butt"/><path d="M35.38735,11.55125c0,2.10208 -0.56253,3.68356 -4.69038,3.80613c-4.35769,0.1294 -4.69038,-1.70406 -4.69038,-3.80613c0,-2.10208 2.09996,-3.80612 4.69038,-3.80612c2.59043,0 4.69038,1.70406 4.69038,3.80613z" fill="#ffffff" stroke="none" stroke-width="0" stroke-linecap="butt"/><path d="M42.07692,17.85635c-0.0769,0.33005 -15.12566,2.49897 -19.33823,2.96032c-2.04736,0.22423 -6.18977,0.06093 -6.11288,-0.26912c0.28424,-1.22008 1.07836,-3.16985 3.03722,-3.80613c2.36717,-0.76891 10.49382,-2.83731 16.57095,-2.74441c2.4843,0.03799 6.12718,2.63926 5.84294,3.85934z" fill="url(#color-2)" stroke="none" stroke-width="0" stroke-linecap="butt"/><path d="M29.26166,13.94342l-0.83511,-4.73737l2.14163,-0.21592l-0.29567,3.64561l2.87656,-0.63081l-0.50614,1.42589z" fill="#64ca00" stroke="none" stroke-width="0" stroke-linecap="butt"/><path d="M34.11571,35.32238c-0.14267,0.97973 -1.09373,1.15445 -1.64952,1.30516c-1.69627,0.45998 -3.12295,0.17495 -6.16626,-0.9581c-0.98531,-0.36684 -1.83885,-6.2787 0.42909,-5.05435c0,0 4.59762,1.82862 6.89336,1.69786c0,0 3.70571,-1.73429 4.85432,-1.65826c0.56967,0.03771 0.57339,1.23147 0.39367,1.8344c0,0 0.05848,1.75227 -0.73866,2.19004c-1.14635,0.82411 -1.97034,0.46522 -2.01163,0.74875z" fill="#38291e" stroke="none" stroke-width="0" stroke-linecap="butt"/><path d="M38.28266,28.3271c-0.19223,2.54435 0.43344,4.2771 -5.09407,4.18098c-2.54758,-0.0443 -4.99795,-1.63664 -4.99795,-3.89263c0,-2.256 2.45769,-5.04034 4.99795,-5.23823c3.70133,-0.28834 5.4016,0.87931 5.09407,4.94989z" fill="#ffdebd" stroke="none" stroke-width="0" stroke-linecap="butt"/><g fill="none" stroke="#f6b09a" stroke-linecap="round"><path d="M10.28509,22.15392c0,0 1.13927,-0.66509 2.59701,0.46115c2.09064,1.61522 0.86311,4.37204 0.86311,4.37204" data-paper-data="{&quot;origPos&quot;:null}" stroke-width="1.5"/><path d="M11.32862,24.73528h2.30675" data-paper-data="{&quot;origPos&quot;:null}" stroke-width="1.5"/><path d="M13.41566,27.04203h-0.4943" data-paper-data="{&quot;origPos&quot;:null}" stroke-width="1"/></g><path d="M25.43495,19.37396c-0.52893,0.15772 -0.50388,0.23246 -0.76063,0.72105c-0.26487,0.50405 -0.82526,1.15319 -0.82526,1.15319c0,0 -0.56066,-1.39445 -0.56066,-2.42956c0,-0.70283 0.3819,-1.92783 1.4652,-2.1735c3.66431,-0.12336 2.57357,3.32592 2.57357,3.32592c0,0 -1.33688,-0.77783 -1.8922,-0.59708z" fill="#38291e" stroke="none" stroke-width="0" stroke-linecap="butt"/><path d="M32.071,18.29517c-0.583,0.03428 -1.54398,1.2462 -1.54398,1.2462c0,0 -2.27389,-2.81367 1.1829,-4.03556c1.09826,-0.16644 1.90074,0.83483 2.15712,1.48921c0.37761,0.96377 0.36428,2.46666 0.36428,2.46666c0,0 -0.75859,-0.39997 -1.18908,-0.77266c-0.41728,-0.36126 -0.42124,-0.43997 -0.97125,-0.39389z" data-paper-data="{&quot;index&quot;:null,&quot;origRot&quot;:0}" fill="#38291e" stroke="none" stroke-width="0" stroke-linecap="butt"/></g></g></svg>