<svg version="1.1" xmlns="http://www.w3.org/2000/svg" xmlns:xlink="http://www.w3.org/1999/xlink" width="130.38732" height="188.79977" viewBox="0,0,130.38732,188.79977"><defs><linearGradient x1="219.61526" y1="243.68656" x2="203.35308" y2="257.02159" gradientUnits="userSpaceOnUse" id="color-1"><stop offset="0" stop-color="#008c4d"/><stop offset="1" stop-color="#006638"/></linearGradient><linearGradient x1="246.73185" y1="168.10033" x2="246.73185" y2="250.77834" gradientUnits="userSpaceOnUse" id="color-2"><stop offset="0" stop-color="#b100c6"/><stop offset="1" stop-color="#9900aa"/></linearGradient><linearGradient x1="288.6824" y1="241.68005" x2="295.11834" y2="261.70151" gradientUnits="userSpaceOnUse" id="color-3"><stop offset="0" stop-color="#008c4d"/><stop offset="1" stop-color="#006638"/></linearGradient><radialGradient cx="283.33333" cy="147.33333" r="20.52041" gradientUnits="userSpaceOnUse" id="color-4"><stop offset="0" stop-color="#fbc5fc"/><stop offset="1" stop-color="#f991fd"/></radialGradient></defs><g transform="translate(-186.95232,-83.16501)"><g data-paper-data="{&quot;isPaintingLayer&quot;:true}" fill="none" fill-rule="nonzero" stroke="none" stroke-width="none" stroke-linecap="none" stroke-linejoin="miter" stroke-miterlimit="10" stroke-dasharray="" stroke-dashoffset="0" font-family="none" font-weight="none" font-size="none" text-anchor="none" style="mix-blend-mode: normal"><g data-paper-data="{&quot;origPos&quot;:null,&quot;origRot&quot;:0}" stroke-width="0" stroke-linecap="butt"><g data-paper-data="{&quot;origPos&quot;:null}" stroke="none"><path d="M249.76946,194.68342c-4.39196,-9.53008 -9.09801,-13.78969 -3.95678,-16.15905c5.14122,-2.36936 15.84524,-11.5224 18.12267,-7.95105c1.90501,2.98732 13.75219,26.26161 13.31075,29.77708c-0.3434,2.73471 -6.7454,3.56208 -17.49649,8.51676c-5.14122,2.36936 -5.58818,-4.65366 -9.98015,-14.18374z" data-paper-data="{&quot;origRot&quot;:0,&quot;origPos&quot;:null}" fill="#ffdebd"/><path d="M267.01655,185.1028c-4.39198,-9.53008 -8.0014,-14.00747 -2.86018,-16.37682c5.14123,-2.36936 11.8867,-2.75715 14.16413,0.8142c2.38875,1.97937 8.91262,5.33726 8.47119,8.85272c2.3259,6.99203 -1.59173,19.18066 -12.34283,24.13532c-3.95596,1.45004 -3.04034,-7.89535 -7.43231,-17.42542z" data-paper-data="{&quot;origRot&quot;:0,&quot;origPos&quot;:null}" fill="#fff70c"/></g><g data-paper-data="{&quot;origPos&quot;:null}"><path d="M268.48514,206.83051c-8.6309,2.2883 -12.53281,6.17444 -21.025,3.41558c-4.62804,-1.5035 -8.04046,-12.29922 -9.28752,-17.00284c-2.22919,-8.40799 2.36085,-12.24686 12.37036,-14.90066c10.00951,-2.6538 19.93095,2.01089 22.16014,10.41887c2.22919,8.40799 5.79153,15.41523 -4.21798,18.06904z" data-paper-data="{&quot;origPos&quot;:null,&quot;origRot&quot;:0}" fill="#ffdebd" stroke="#ffdebd"/><g data-paper-data="{&quot;origPos&quot;:null,&quot;origRot&quot;:0}" fill="#ffffff" stroke="none"><path d="M282.56183,216.97101c4.95997,14.13658 -7.30502,17.70878 -19.9753,23.20381c-11.61102,5.03564 -17.7169,-4.95273 -20.04704,-14.34611c-3.21194,-12.94814 6.78619,-14.32842 19.22692,-16.65252c12.44074,-2.32411 16.16416,-5.40498 20.79544,7.79483z" data-paper-data="{&quot;origRot&quot;:0,&quot;origPos&quot;:null}"/><path d="M278.65173,202.03444c1.98732,9.01484 -1.425,6.35714 -19.21807,10.16273c-15.61911,3.34062 -18.02555,4.30299 -20.23366,-3.81438c-1.97382,-7.25611 9.33463,-7.44487 18.93723,-9.25186c9.6026,-1.807 19.35404,-2.36052 20.5145,2.90351z" data-paper-data="{&quot;origRot&quot;:0,&quot;origPos&quot;:null}"/></g></g></g><g data-paper-data="{&quot;origPos&quot;:null,&quot;origRot&quot;:0}" stroke-width="0" stroke-linecap="round"><path d="M222.15123,246.83227c0.32079,0.39119 1.32723,2.673 1.64597,3.88475c0.37445,1.42358 0.35023,3.35164 0.45079,4.08579c0.03352,0.24472 -0.93633,2.97848 -0.18419,3.82437c0.75214,0.84589 4.5761,2.41921 7.13468,4.49527c2.55858,2.07606 3.606,1.94497 3.17042,3.86633c-0.43558,1.92138 -2.563,2.78132 -4.85096,3.54674c-2.28797,0.76542 -5.73826,1.91786 -9.35654,1.20631c-3.61828,-0.71155 -5.17501,-2.02913 -7.60381,-4.54165c-2.42879,-2.51252 -12.04039,-12.57217 -17.96561,-21.90922c-5.92522,-9.33705 -4.01155,-10.46288 -3.40447,-12.03719c0.18298,-0.47452 0.92517,-3.3103 1.60943,-3.81995c1.68327,-1.25375 7.77496,-4.80874 11.52685,-2.55488c3.75189,2.25386 10.80838,11.39355 17.82745,19.95337z" data-paper-data="{&quot;origPos&quot;:null}" fill="url(#color-1)" stroke="#000000"/><path d="M206.83533,224.47452c1.2809,-3.29881 0.1129,-1.90725 5.01077,-7.55741c4.89788,-5.65016 7.73774,-8.41182 10.4958,-10.33087c3.05052,-2.12253 20.69084,18.16715 22.4248,24.71875c1.73395,6.5516 -10.46662,10.08613 -12.76922,11.76401c-1.65679,1.20729 -4.47233,2.47304 -6.68103,2.89203c-2.20871,0.41899 -1.93413,0.84321 -5.62939,-0.55674c-3.69526,-1.39996 -5.9489,-1.80607 -8.7534,-4.8922c-2.8045,-3.08614 -3.86542,-7.23675 -4.49012,-9.68131c-0.6247,-2.44456 -0.88912,-3.05745 0.39178,-6.35626z" data-paper-data="{&quot;origPos&quot;:null}" fill="#9900aa" stroke="#b100c6"/></g><g data-paper-data="{&quot;origPos&quot;:null}"><path d="M229.67786,169.82957c15.39885,0 40.51731,-5.44824 52.39438,2.9966c15.94172,11.33491 16.91377,36.01156 16.91377,53.82034c0,16.41613 -22.9587,24.13183 -51.43391,24.13183c-28.47521,0 -53.79308,-8.23538 -53.05883,-42.43989c1.21973,-12.52806 6.70937,-38.50888 35.18458,-38.50888z" data-paper-data="{&quot;origPos&quot;:null,&quot;index&quot;:null}" fill="url(#color-2)" stroke="none" stroke-width="0" stroke-linecap="butt"/><path d="M235.17786,164.32957c15.39885,0 36.01731,-2.94824 47.89438,5.4966c8.04003,5.71663 15.97706,29.68937 15.97706,29.68937c0,0 -36.93426,-2.75059 -46.06329,1.13097c-4.09315,1.74035 -16.45869,7.13183 -21.9339,8.63183c-2.86947,0.78612 -34.29308,0.76462 -31.55883,-18.43989c1.21973,-12.52806 7.20937,-26.50888 35.68458,-26.50888z" data-paper-data="{&quot;origPos&quot;:null,&quot;index&quot;:null}" fill="#fff70c" stroke="none" stroke-width="0" stroke-linecap="butt"/><path d="M237.74094,169.79651l1.5,35.5" data-paper-data="{&quot;origPos&quot;:null}" fill="none" stroke="#b100c6" stroke-width="17" stroke-linecap="round"/><path d="M246.24094,205.29651c0,3.86599 -3.13401,7 -7,7c-3.86599,0 -7,-3.13401 -7,-7c0,-3.86599 3.13401,-7 7,-7c3.86599,0 7,3.13401 7,7z" data-paper-data="{&quot;origPos&quot;:null}" fill="#f3f3f3" stroke="none" stroke-width="0" stroke-linecap="butt"/><path d="M275.21758,167.54925l7.83813,11.27226l9.70859,23.72221" data-paper-data="{&quot;origPos&quot;:null,&quot;origRot&quot;:0}" fill="none" stroke="#b100c6" stroke-width="14" stroke-linecap="round"/><path d="M301.24091,200.29651c0,3.86599 -3.13401,7 -7,7c-3.86599,0 -7,-3.13401 -7,-7c0,-3.86599 3.13401,-7 7,-7c3.86599,0 7,3.13401 7,7z" data-paper-data="{&quot;origPos&quot;:null}" fill="#f3f3f3" stroke="none" stroke-width="0" stroke-linecap="butt"/></g><g data-paper-data="{&quot;origPos&quot;:null,&quot;origRot&quot;:0}" stroke-width="0" stroke-linecap="round"><path d="M292.53934,240.47557c0.48165,-0.15482 2.97357,-0.25356 4.21775,-0.10533c1.46167,0.17415 3.24628,0.9043 3.96611,1.08021c0.23994,0.05864 2.42698,1.96414 3.48989,1.57494c1.06291,-0.3892 3.92987,-3.36887 6.8001,-4.98696c2.87023,-1.61809 3.13267,-2.6405 4.76011,-1.53015c1.62743,1.11035 1.64655,3.40491 1.51884,5.81414c-0.12772,2.40923 -0.322,6.04169 -2.31187,9.14632c-1.98987,3.10463 -3.78684,4.06915 -7.01542,5.40631c-3.22859,1.33715 -16.11384,6.58596 -26.97396,8.67082c-10.86012,2.08486 -11.20502,-0.10844 -12.44667,-1.25098c-0.37425,-0.34437 -2.73973,-2.07553 -2.96269,-2.89909c-0.54847,-2.02594 -1.61962,-8.99726 1.85395,-11.66012c3.47358,-2.66286 14.56531,-5.87249 25.10389,-9.26014z" data-paper-data="{&quot;origPos&quot;:null}" fill="url(#color-3)" stroke="#000000"/><path d="M266.12068,246.51698c-2.5985,-2.40222 -1.73272,-0.805 -5.19098,-7.43477c-3.45826,-6.62977 -4.98492,-10.28505 -5.75779,-13.55496c-0.85483,-3.61665 24.49322,-12.57927 31.22402,-11.78768c6.73079,0.79159 5.54084,13.43798 6.25653,16.19568c0.51497,1.98427 0.65905,5.06787 0.23816,7.27622c-0.42088,2.20835 0.07452,2.10862 -2.58397,5.0322c-2.65848,2.92357 -3.86337,4.87091 -7.76343,6.34703c-3.90006,1.47611 -8.1504,0.93967 -10.65364,0.62358c-2.50324,-0.31609 -3.17041,-0.29506 -5.7689,-2.69729z" data-paper-data="{&quot;origPos&quot;:null}" fill="#9900aa" stroke="#b100c6"/></g><g data-paper-data="{&quot;origPos&quot;:null}"><path d="M272.5591,139.29737l-2.33333,5.33334l7.66667,27.66666l-42.33334,4.33334l-3.66666,-1.33334l-2.66666,-4.66666l-7.33334,-27.33334l33,-4z" data-paper-data="{&quot;origPos&quot;:null}" fill="#a10114" stroke="#a10114" stroke-width="0.5" stroke-linecap="round"/><path d="M225.94741,162.77772c-1.17041,-4.92546 4.12419,-10.40192 11.82582,-12.23201c7.70162,-1.83009 14.89384,0.67921 16.06424,5.60467c1.17041,4.92546 -4.12419,10.40192 -11.82582,12.23201c-7.70163,1.83009 -14.89385,-0.67921 -16.06425,-5.60467z" data-paper-data="{&quot;origPos&quot;:null,&quot;origRot&quot;:0}" fill="#f4c4f6" stroke="none" stroke-width="0" stroke-linecap="butt"/><g data-paper-data="{&quot;origPos&quot;:null}" stroke-linecap="round"><path d="M237.89243,174.96404l-4.66666,-10.33333l40,-5l6.66667,-0.33334l3,2.33334l1.33333,3l1,7.33333z" data-paper-data="{&quot;origPos&quot;:null}" fill="#ffffff" stroke="#000000" stroke-width="0"/><path d="M277.22577,170.29738l-4.66667,-10" data-paper-data="{&quot;origPos&quot;:null}" fill="none" stroke="#a5b5ff" stroke-width="1.5"/><path d="M261.15211,161.91449l2.81397,9.43241" data-paper-data="{&quot;origPos&quot;:null,&quot;origRot&quot;:0}" fill="none" stroke="#a5b5ff" stroke-width="1.5"/><path d="M248.96609,173.01357l-2.81397,-9.43242" data-paper-data="{&quot;origPos&quot;:null,&quot;origRot&quot;:0}" fill="none" stroke="#a5b5ff" stroke-width="1.5"/></g><g data-paper-data="{&quot;origPos&quot;:null}"><path d="M222.37302,139.72779c3.44949,0.6899 4.11556,5.38849 4.17233,5.67233c0.32137,1.60688 11.12385,24.14025 11.88456,25.4081c-2.99229,-1.44186 1.25964,1.27756 1.46254,1.32248c1.48977,0.32987 3.46888,0 5,0c5.88154,0 27.35455,-2.09488 29.64305,-2.64239c1.84283,-0.44089 8.47629,-0.81784 9.85696,-0.35761c5.12234,1.70745 4.47231,11.13352 3.6529,15.23058c-1.71763,1.75647 -3.25597,3.7083 -5.1529,5.26942c-0.64345,0.52955 -1.66667,0 -2.5,0c-2.70957,0 -5.00864,-0.20036 -7.57248,-1.21254c-0.65738,-0.25953 -1.15274,-0.82821 -1.78447,-1.14509c-0.18943,-0.09501 -0.55595,-0.14816 -0.85359,-0.20784c-0.9961,0.53477 -1.92051,1.20274 -2.9325,1.70784c-3.55238,1.77304 -21.65861,1.1468 -24.17895,0.53959c-7.12069,-1.71554 -13.07322,-6.37559 -17.42801,-12.18197c-4.90173,-6.74464 -6.71181,-14.16556 -8.55762,-22.12639c-0.65691,-2.83323 -0.59529,-11.35418 -0.59529,-11.35418c0,0 0.98058,-4.90291 5.88349,-3.92233z" data-paper-data="{&quot;origPos&quot;:null}" fill="#ffdebd" stroke="none" stroke-width="0.5" stroke-linecap="butt"/><path d="M271.89243,175.63071l1.66667,3.66666v2.66666v3l-2,2" data-paper-data="{&quot;origPos&quot;:null}" fill="none" stroke="#f6b09a" stroke-width="1.5" stroke-linecap="round"/></g></g><g data-paper-data="{&quot;origPos&quot;:null,&quot;origRot&quot;:0}" stroke-linecap="butt"><g data-paper-data="{&quot;origPos&quot;:null}" stroke="none" stroke-width="0"><path d="M233.9445,209.83521c-0.13993,5.65921 -6.64064,2.96416 -17.13083,2.7048c-10.49021,-0.25936 -16.38826,2.08675 -16.24835,-3.57244c0.13992,-5.6592 -3.35661,-19.3021 0.85298,-19.77178c3.52121,-0.39289 29.6346,-0.76578 32.59536,1.18029c2.3032,1.51388 0.22342,7.62488 -0.06917,19.45913z" data-paper-data="{&quot;origRot&quot;:0,&quot;origPos&quot;:null}" fill="#ffdebd"/><path d="M234.73522,193.84694c-0.44254,4.19004 -8.42706,-0.75184 -18.91726,-1.0112c-10.49021,-0.25936 -16.10028,1.00643 -15.96036,-4.65275c0.13992,-5.6592 2.76569,-11.88471 6.97529,-12.35439c2.82975,-1.27143 8.71985,-5.64673 11.68061,-3.70066c7.30128,0.99486 16.51431,9.88477 16.22172,21.71901z" data-paper-data="{&quot;origRot&quot;:0,&quot;origPos&quot;:null}" fill="#fff70c"/></g><g data-paper-data="{&quot;origPos&quot;:null}"><path d="M235.96764,201.09655c-1.75115,8.7557 0.01676,13.9712 -6.20343,20.3773c-3.38983,3.49115 -14.58422,1.79462 -19.35584,0.84029c-8.52957,-1.70592 -9.95164,-7.51825 -7.92078,-17.67249c2.03087,-10.15423 10.59176,-17.00296 19.12134,-15.29704c8.52957,1.70592 16.38958,1.5977 14.35873,11.75193z" data-paper-data="{&quot;origPos&quot;:null,&quot;origRot&quot;:0}" fill="#ffdebd" stroke="#ffdebd" stroke-width="0"/><g data-paper-data="{&quot;origPos&quot;:null,&quot;origRot&quot;:0}" fill="#ffffff" stroke="none" stroke-width="0"><path d="M251.2754,192.93225c14.87529,1.78038 12.67441,14.36399 12.02073,28.15905c-0.59903,12.64177 -12.2562,13.71875 -21.71474,11.669c-13.03793,-2.82543 -9.86901,-12.408 -6.4704,-24.59909c3.39862,-12.19109 2.27483,-16.89137 16.16441,-15.22896z" data-paper-data="{&quot;origRot&quot;:0,&quot;origPos&quot;:null}"/><path d="M236.1449,189.85686c8.96764,2.19055 5.07778,4.08168 0.64924,21.73002c-3.88747,15.49206 -4.0846,18.07631 -12.34401,16.47959c-7.38308,-1.42731 -2.567,-11.66071 0.04455,-21.07639c2.61155,-9.41567 6.41378,-18.41235 11.65023,-17.13321z" data-paper-data="{&quot;origRot&quot;:0,&quot;origPos&quot;:null}"/></g><path d="M237.43141,226.68263c-1.90714,-0.60236 -1.30478,-2.50949 -1.30478,-2.50949l2.97281,-1.65913c1.71402,-0.35306 3.42805,-0.7061 5.14205,-1.05916c1.71402,-0.35306 3.42804,-0.7061 5.14204,-1.05915c0.36746,-0.07568 0.78903,0.14988 1.12544,-0.01625c0.05176,-0.02556 0.10225,-0.06612 0.15159,-0.11544c-0.34045,-0.31221 -0.73312,-0.5719 -1.16476,-0.81033c-2.16798,-1.19755 -3.63505,-1.88333 -4.75078,-4.22852c-1.67281,-3.51614 1.79475,-4.45364 4.09022,-4.92646c0.86238,-0.14178 3.55074,0.17139 4.16463,-0.13176c0.17277,-0.08532 0.32716,-0.33331 0.47456,-0.51881c-0.57688,-0.91032 -1.4985,-2.30517 -2.2394,-2.99431c-1.01669,-0.94567 -2.38999,-1.63354 -3.77473,-2.25301l-0.06734,0.13204l-2.83561,-1.44612c-0.22251,-0.11108 -0.42344,-0.263 -0.59125,-0.44816c-0.41986,-0.4295 -0.83295,-1.17194 -0.31365,-2.21994c0.00888,-0.01817 0.01805,-0.03618 0.02748,-0.05406c0.54154,-1.03897 1.38392,-1.14382 1.97913,-1.05744c0.19712,0.02071 0.38784,0.07061 0.56668,0.1461l1.64554,0.66657l-0.05393,0.13317c3.51087,1.7742 6.60693,3.43121 8.85501,7.00777c1.29472,2.05984 1.53696,4.74803 -1.19863,6.04949c-2.00967,0.9561 -3.90085,0.26947 -5.83151,0.90625c-0.32648,0.06725 -0.65295,0.13449 -0.97943,0.20175c0.20045,0.40592 0.63537,0.6496 0.99569,0.92369c0.96767,0.73612 5.66367,1.91266 5.41619,3.98934c-0.64534,5.41529 -5.80595,5.17209 -10.02621,6.04138c-1.71402,0.35306 -3.42805,0.70611 -5.14205,1.05915c0,0 -0.56786,0.85322 -2.475,0.25086z" data-paper-data="{&quot;origPos&quot;:null}" fill="#0052ef" stroke="none" stroke-width="0.5"/></g></g><g data-paper-data="{&quot;origPos&quot;:null}"><path d="M295.8478,121.85391c-0.62813,3.79329 -13.15027,8.6 -23.00472,8.6c-7.94072,0 -5.97237,-6.75492 -5.97237,-10.4c0,-3.64508 15.56169,-2.85 23.50241,-2.85c7.94072,0 5.88126,2.19464 5.47468,4.65z" data-paper-data="{&quot;origPos&quot;:null}" fill="#b49416" stroke="none" stroke-width="0" stroke-linecap="butt"/><path d="M294.33333,119.33333l-1,4l-4.66667,3.33333l-11.33333,5.33334" data-paper-data="{&quot;origPos&quot;:null}" fill="none" stroke="#a5b5ff" stroke-width="4.5" stroke-linecap="round"/><path d="M208.96507,147.97212c2.84617,0.02051 4.30892,0.91673 6.62718,2.36565c4.2679,2.96956 8.49595,8.92257 7.5327,14.3374c-0.83154,4.67445 -7.32065,4.79843 -9.98889,1.68549c-0.03911,-0.06429 -0.41853,-2.25462 -0.52131,-2.43888c-1.03458,-1.85479 -4.32256,-1.62063 -5.85833,-3.62037c-1.4033,-1.82728 -0.44167,-7.3604 -0.44167,-9.57963c0,0 1.513,-3.00639 2.65032,-2.74964z" data-paper-data="{&quot;origPos&quot;:null}" fill="#8e4108" stroke="none" stroke-width="0.5" stroke-linecap="butt"/><path d="M221.41403,170.56751c0,0 -4.93662,-6.19855 -6.77345,-8.95379c-1.31741,-2.02672 -1.9145,-4.06694 -2.82683,-6.23492c-0.39392,-0.9361 -1.97438,-2.62329 -1.98933,-3.60571c-0.00376,-0.24674 -1.0817,-0.68223 -1.96398,-0.99097c-1.74453,-0.61048 -3.56382,-1.32355 -5.23299,-2.11453c-3.10064,-1.4693 -5.7193,-4.02549 -7.80575,-6.70806c-3.28551,-4.24205 -6.35949,-8.91018 -7.50152,-14.16106c-0.92605,-4.25785 0.18828,-7.58788 0.18828,-7.58788c0,0 12.88558,1.06561 13.3213,1.14831c2.05003,0.38909 8.50036,0.37565 12.82928,1.56112c2.10123,0.57542 3.98038,0.99151 5.67273,2.2931c0.64064,0.49271 1.88683,2.39597 2.19186,2.39016c2.70041,-0.05145 6.61193,-2.4474 9.10771,-3.44571c6.76039,-2.70416 41.91996,-6.00736 46.89214,-2.36908c0.71443,0.52277 0.87538,1.53933 1.28772,2.3227c1.50942,2.86766 6.86783,23.77318 7.4328,27.76682c0.29918,2.11479 -1.2611,4.35411 -2.47003,5.75161c-0.54733,0.6327 -6.93655,1.00233 -9.15664,1.00233c-10.69243,0 -21.34714,-0.11066 -32.0221,0.57805c-2.66168,0.16651 -6.17893,0.6634 -8.81707,0.16448c-0.34053,-0.0644 -1.48419,1.14666 -1.23755,1.48506c1.19458,1.63903 3.25747,9.90041 3.25747,9.90041z" data-paper-data="{&quot;origPos&quot;:null}" fill="#ffdebd" stroke="none" stroke-width="0.5" stroke-linecap="butt"/><path d="M258.56475,137.95023c0,0 -0.9935,-0.51493 -7.4,-0.51493c-6.40651,0 -11.68936,4.29531 -15.6,2.57466c-3.4,-1.49597 -4.60651,-13.07925 -2.6,-13.07925c4.64315,0 24.03794,-0.30883 24.03794,-0.30883l1.56206,11.32836z" data-paper-data="{&quot;origPos&quot;:null}" fill="#ffffff" stroke="#f6b09a" stroke-width="0" stroke-linecap="butt"/><path d="M263.99136,130.82176c0,0 1.7916,-4.46328 4.36206,-5.79988c2.67666,-1.39181 7.03794,-2.10012 7.03794,-2.10012c0,0 6.2,7.44741 2.8,8.9c-3.91064,1.67076 0.4065,1.5 -6,1.5c-6.4065,0 -8.2,-2.5 -8.2,-2.5z" data-paper-data="{&quot;index&quot;:null,&quot;origPos&quot;:null}" fill="#ffffff" stroke="#f6b09a" stroke-width="0" stroke-linecap="butt"/><path d="M234.37537,141.4229c-1.70114,0.41062 -2.11176,-1.29052 -2.11176,-1.29052l-0.58286,-0.68312c-2.35983,-3.77572 -2.266,-7.01579 -2.266,-11.3275c0,0 0,-1.75 1.75,-1.75c1.75,0 1.75,1.75 1.75,1.75c0,3.6974 -0.23865,6.31627 1.734,9.47251l1.01714,1.71687c0,0 0.41063,1.70114 -1.29052,2.11176z" data-paper-data="{&quot;origPos&quot;:null}" fill="#18c6ff" stroke="none" stroke-width="0.5" stroke-linecap="butt"/><path d="M219.43193,127.7154l-0.00648,-0.00039c-0.5388,-4.84921 2.7096,-5.35609 6.53929,-5.14325c1.25,0.06947 2.79474,-0.1181 3.63889,1.0213c2.31535,3.1252 0.31112,5.29268 0.31112,8.62869c-0.20415,3.88036 -1.44846,11.21088 -7.0102,8.0534c-0.00173,-0.00098 -0.77381,-2.32479 -0.78444,-2.35535c-1.09205,-3.13976 -2.08041,-6.20301 -2.67714,-9.485c0,0 -0.03988,-0.21932 -0.01289,-0.51565l-0.01534,0.00261c0,0 0,-0.08024 0.01718,-0.20636z" data-paper-data="{&quot;origPos&quot;:null}" fill="#8e4108" stroke="none" stroke-width="0.5" stroke-linecap="butt"/><path d="M280.52698,132.49278c-1.57528,0.77783 -2.33751,-0.82969 -2.33751,-0.82969l-0.08492,-1.64175c-0.57135,-1.74913 -1.4749,-2.87972 -2.6685,-4.30076c0,0 -1.13889,-1.35589 0.18981,-2.51808c1.3287,-1.16219 2.46758,0.1937 2.46758,0.1937c1.47893,1.76073 2.60309,3.26577 3.3315,5.49569l-0.08492,1.21555c0,0 0.76224,1.60752 -0.81304,2.38535z" data-paper-data="{&quot;origPos&quot;:null}" fill="#18c6ff" stroke="none" stroke-width="0.5" stroke-linecap="butt"/><path d="M280.24658,94.82856c2.65049,14.94461 -0.54433,15.79448 -9.42494,20.57884c-12.93978,6.97121 -29.86592,5.55994 -43.68752,10.97342c-3.62918,1.42143 -12.87913,-2.03217 -16.83418,-2.03217c-8.08923,0 -12.65358,-5.22725 -12.98785,-11.45342c-0.73732,-13.7335 6.74195,-13.78676 14.83118,-13.78676c0,0 8.90245,1.33414 11.97751,5.60456c0,0 12.38453,-18.21899 25.43957,-20.46979c16.8055,-2.89741 28.78283,-0.14688 30.68624,10.58532z" data-paper-data="{&quot;origPos&quot;:null}" fill="#fff70c" stroke="none" stroke-width="0" stroke-linecap="butt"/><path d="M275.9885,104.24664c0,5.24671 -5.95461,9.5 -13.3,9.5c-7.34538,0 -13.3,-4.25329 -13.3,-9.5c0,-5.24671 5.95462,-9.5 13.3,-9.5c7.34539,0 13.3,4.25329 13.3,9.5z" data-paper-data="{&quot;origPos&quot;:null}" fill="#ffffff" stroke="none" stroke-width="0" stroke-linecap="butt"/><path d="M247.09449,93.74067c0.0164,-2.22761 2.24401,-2.21121 2.24401,-2.21121l2.74023,2.62113c0.93742,1.70899 1.87483,3.41799 2.81225,5.12698c0.93742,1.70899 1.87484,3.41799 2.81225,5.12698c0.20097,0.36639 0.09896,0.88907 0.38603,1.19276c0.04417,0.04672 0.10388,0.08719 0.17255,0.12356c0.22082,-0.46473 0.36862,-0.96783 0.48103,-1.50545c0.56455,-2.70028 0.81392,-4.48674 2.94495,-6.44285c3.19504,-2.93281 5.32918,0.45142 6.58461,2.74017c0.43349,0.87162 0.9809,3.83612 1.50475,4.3903c0.14743,0.15597 0.46202,0.23907 0.70778,0.33522c0.78009,-0.91237 1.96303,-2.35049 2.45391,-3.365c0.67361,-1.39216 0.95593,-3.07949 1.16171,-4.75657l-0.16262,-0.02842l0.61043,-3.49248c0.04534,-0.27326 0.14126,-0.53695 0.28338,-0.77626c0.31966,-0.58768 0.97469,-1.27069 2.26049,-1.06123c0.02225,0.00351 0.04444,0.00736 0.06655,0.01154c1.28347,0.23608 1.67107,1.0985 1.77415,1.76044c0.04253,0.21663 0.05191,0.43601 0.03013,0.65112l-0.17046,1.97017l-0.15942,-0.01379c-0.73845,4.31881 -1.48803,8.15762 -4.55894,11.72264c-1.76862,2.05318 -4.55097,3.19181 -6.83272,0.70602c-1.67626,-1.82615 -1.56493,-4.06439 -2.87537,-5.91103c-0.17856,-0.32553 -0.35711,-0.65104 -0.53567,-0.97657c-0.36645,0.34639 -0.48336,0.88921 -0.6571,1.36259c-0.46658,1.27132 -0.1805,6.65594 -2.47233,7.07289c-5.9763,1.08724 -7.40821,-4.48618 -9.71632,-8.69407c-0.93742,-1.70899 -1.87484,-3.41799 -2.81226,-5.12698c0,0 -1.09436,-0.32498 -1.07796,-2.55259z" data-paper-data="{&quot;origPos&quot;:null,&quot;origRot&quot;:0}" fill="#0052ef" stroke="none" stroke-width="0.5" stroke-linecap="butt"/><path d="M296.29017,119.75391c-0.2212,0.85848 -43.51301,6.5 -55.63158,7.7c-5.88978,0.58322 -17.80653,0.15848 -17.58533,-0.7c0.81769,-3.1735 3.1022,-8.24498 8.73737,-9.9c6.8098,-2 30.18828,-7.38005 47.67076,-7.1384c7.14675,0.09879 17.62649,6.8649 16.80879,10.0384z" data-paper-data="{&quot;origPos&quot;:null}" fill="#ffd412" stroke="none" stroke-width="0" stroke-linecap="butt"/><path d="M197.00001,128.49286l6.66666,3.33333c0,0 4.69674,0.89519 7.33334,2.33333c2.63659,1.43814 2.61141,1.93989 3.66666,3.66667c1.05525,1.72678 0.80582,1.90922 0,2.33333c-0.80582,0.42412 -3.87963,1.49074 -6.33333,1c-2.4537,-0.49074 -3.66667,-3 -3.66667,-3l-1.03333,-6.26666" data-paper-data="{&quot;origPos&quot;:null}" fill="none" stroke="#f6b09a" stroke-width="3" stroke-linecap="round"/><path d="M227.25001,127.83334l31.41667,-6.16667l36,-2.33333" data-paper-data="{&quot;origPos&quot;:null}" fill="none" stroke="#ffffff" stroke-width="4.5" stroke-linecap="round"/><path d="M278.00001,125.75v-2.25l-5.5,0.5l-3.25,0.75l-3,3.5l-2.5,2.25h-6.75l-2.75,-1.25l-7,-2l-5.5,-0.25l-5.5,1l-11.25,3.25l-1,-10l8.5,-0.75l6,-0.25l5,0.75l6.5,1.5l4.25,2.5l4,0.5l4,-0.75l2.75,-1l4,-4.25l4.75,-2l4.25,-0.25l4,1l0.5,3.5z" data-paper-data="{&quot;origPos&quot;:null}" fill="#000001" stroke="#ff0000" stroke-width="0" stroke-linecap="round"/><path d="M264.74628,122.63835c0.29131,3.63097 -1.70285,6.79089 -4.45407,7.05788c-2.75122,0.26699 -5.21769,-2.46007 -5.50899,-6.09104c-0.2913,-3.63097 1.70286,-2.12422 4.45408,-2.39121c2.75122,-0.26699 5.21768,-2.2066 5.50899,1.42437z" data-paper-data="{&quot;origPos&quot;:null,&quot;origRot&quot;:0}" fill="#ffdebd" stroke="#f6b09a" stroke-width="2.5" stroke-linecap="butt"/><path d="M254.20001,122.33334l5.06667,-0.86667l5.8,-0.53333" data-paper-data="{&quot;origPos&quot;:null}" fill="none" stroke="#ffffff" stroke-width="4.5" stroke-linecap="round"/><g data-paper-data="{&quot;origPos&quot;:null,&quot;index&quot;:null}" stroke-linecap="round"><path d="M280.47387,151.79734l4.7519,8.68623l-40.73059,4.20301c0,0 -10.2946,0.364 -10.42056,0.28312c-0.37789,-0.24264 -1.20463,-2.38462 -1.20463,-2.38462l-3.39421,-7.35527l2.80023,-0.91065z" data-paper-data="{&quot;origPos&quot;:null}" fill="#ffffff" stroke="#000000" stroke-width="0"/><path d="M245.17402,164.12617l-4.75191,-8.40603" data-paper-data="{&quot;origPos&quot;:null}" fill="none" stroke="#a5b5ff" stroke-width="1.5"/><path d="M253.92399,154.83791l2.86537,7.92891" data-paper-data="{&quot;origPos&quot;:null,&quot;origRot&quot;:0}" fill="none" stroke="#a5b5ff" stroke-width="1.5"/><path d="M272.06332,161.36582l-2.86537,-7.92892" data-paper-data="{&quot;origPos&quot;:null,&quot;origRot&quot;:0}" fill="none" stroke="#a5b5ff" stroke-width="1.5"/></g><path d="M296.78848,153.94663l-2.8,7.6h-3.2l-1,-2.4l-0.6,2.6l-4,-0.2l-2.8,-3.8l-0.6,3.4l-2.4,1l-1.6,-0.6l-3,-4.6l-3,5l-2.6,-0.2l-3,-4.2l-3.2,5.2h-1.8l-5.4,-5h-1.4l-3.4,5.2l-1.8,0.4l-7.4,-5.4l-5.2,6.2l-2.6,0.4l-13.8,-17l2.2,-1l11,5.4l1.8,-4.8h2.4l12.4,6.6l4.2,-4.6l1.6,-0.2l5.8,5.2l3.8,-4.6l2.6,0.4l2,1.4l1.2,2.6l2.4,-2.8l2.8,-0.2l3,3.8l2.8,-2.4l3,1l1.8,2.6l2.2,-2.8l2.4,2.2l1,0.8z" data-paper-data="{&quot;origPos&quot;:null}" fill="#000001" stroke="#ff0000" stroke-width="0" stroke-linecap="round"/><path d="M262.20005,142.31174c0.25909,-1.7103 0.15839,-3.85084 0.65733,-5.19849c1.10219,-2.97706 4.41574,-4.36325 7.33013,-4.36325c9.77911,0 25,3.73774 25,15.75c-0.07332,3.54048 -0.74802,6.62555 -3.57153,9.07119c-1.38349,1.19834 -3.94465,1.2429 -5.67971,1.4164c-5.40098,0.5401 -11.62677,1.28631 -16.98905,0.21385c-4.69024,-1.24371 -9.228,-0.73967 -12.94511,-4.73735c-2.61286,-2.81008 -2.25315,-8.13494 -0.24308,-11.03529c0.97147,-1.40174 4.39887,-1.17881 5.92847,-1.17881c0,0 0.212,0 0.51254,0.06173z" data-paper-data="{&quot;origPos&quot;:null}" fill="url(#color-4)" stroke="none" stroke-width="0.5" stroke-linecap="butt"/><path d="M250.63332,131c0.8434,0 1.6067,0.28 2.16,0.733c0.5534,0.452 0.8956,1.077 0.8956,1.767c0,0.69 -0.3422,1.315 -0.8956,1.767c-0.5533,0.453 -1.3166,0.733 -2.16,0.733c-0.8433,0 -1.6066,-0.28 -2.16,-0.733c-0.5533,-0.452 -0.8955,-1.077 -0.8955,-1.767c0,-0.69 0.3422,-1.315 0.8955,-1.767c0.5534,-0.453 1.3167,-0.733 2.16,-0.733z" data-paper-data="{&quot;origPos&quot;:null}" id="ID0.651427554897964" fill="#000000" stroke="none" stroke-width="1.05702" stroke-linecap="butt"/><path d="M270.68332,127.45c0.8434,0 1.6067,0.28 2.16,0.733c0.5534,0.452 0.8956,1.077 0.8956,1.767c0,0.69 -0.3422,1.315 -0.8956,1.767c-0.5533,0.453 -1.3166,0.733 -2.16,0.733c-0.8433,0 -1.6066,-0.28 -2.16,-0.733c-0.5533,-0.452 -0.8955,-1.077 -0.8955,-1.767c0,-0.69 0.3422,-1.315 0.8955,-1.767c0.5534,-0.453 1.3167,-0.733 2.16,-0.733z" data-paper-data="{&quot;origPos&quot;:null}" id="ID0.651427554897964" fill="#000000" stroke="none" stroke-width="1.05702" stroke-linecap="butt"/></g></g></g></svg>