<svg version="1.1" xmlns="http://www.w3.org/2000/svg" xmlns:xlink="http://www.w3.org/1999/xlink" width="101.07227" height="148.15411" viewBox="0,0,101.07227,148.15411"><g transform="translate(-188.25371,-105.3809)"><g data-paper-data="{&quot;isPaintingLayer&quot;:true}" fill-rule="nonzero" stroke-linejoin="miter" stroke-miterlimit="10" stroke-dasharray="" stroke-dashoffset="0" style="mix-blend-mode: normal"><g><g data-paper-data="{&quot;index&quot;:null}" stroke="none" stroke-width="0" stroke-linecap="butt"><path d="M275.14341,245.84032c0,5.08542 -2.64867,7.33669 -13.6274,7.36136c-8.73878,-0.12239 -13.02213,-1.1155 -13.29406,-6.43301c-0.17682,-3.45752 6.17675,-6.26636 13.46073,-6.26636c7.28397,0 13.46074,1.87719 13.46074,5.338z" data-paper-data="{&quot;origPos&quot;:null}" fill="#f3c08d"/><path d="M276.76814,242.24298c0,3.98605 -0.40543,7.8341 -15.419,7.8341c-15.70983,0 -14.52024,-4.08013 -14.52024,-8.06619c0,-5.3194 3.86803,-9.53037 11.85358,-9.69704c7.98554,-0.16666 18.08567,3.77639 18.08567,9.92913z" data-paper-data="{&quot;origPos&quot;:null}" fill="#945a21"/></g><path d="M270.22367,222.2504c-4.51168,-3.16592 -17.57164,-25.10907 -9.64628,-24.32056c2.8853,0.28707 8.60463,7.63466 13.26121,10.58333c4.41786,2.79751 17.37374,0.55172 10.6231,9.96111c-3.2468,4.52555 -9.52999,-0.02323 -9.52999,-0.02323c0,0 1.14602,7.90725 -4.70805,3.79936z" data-paper-data="{&quot;origRot&quot;:0,&quot;index&quot;:null}" fill="#ffdebd" stroke="none" stroke-width="0" stroke-linecap="butt"/><g stroke="none" stroke-width="0" stroke-linecap="butt"><path d="M288.85269,145.58601c-0.26406,16.62627 -8.27456,29.3997 -46.07894,29.85363c-46.96694,0.56394 -53.63265,-5.46596 -54.04131,-29.36922c-0.15985,-9.35043 1.48696,-18.46488 7.43707,-24.6067c13.93907,-14.38819 26.39572,-16.08282 44.25767,-16.08282c26.74467,0 48.9207,9.02635 48.42551,40.20512z" data-paper-data="{&quot;origPos&quot;:null}" fill="#ffffff"/><path d="M268.22793,130.13714c0.4095,13.72626 -10.69405,21.70068 -22.82812,21.49632c-15.05298,-0.25351 -23.85375,-9.73172 -23.85375,-21.3327c0,-13.56455 10.85943,-20.298 24.87938,-20.45773c14.36282,-0.16363 21.51368,10.61305 21.8025,20.29409z" fill="#1f55f7"/><path d="M206.68978,140.14045c3.0624,14.72856 -14.30747,24.58117 -14.30747,24.58117c0,0 -4.4893,-6.7545 -4.1053,-22.29766c0.32626,-13.20596 6.19341,-19.00879 6.19341,-19.00879c0,0 9.15696,1.99672 12.21936,16.72528z" data-paper-data="{&quot;origRot&quot;:0}" fill="#1f55f7"/><path d="M285.54582,125.98494c0,0 3.59084,3.12839 3.7779,16.51825c0.08235,5.89455 -2.1097,14.5753 -2.1097,14.5753c0,0 -8.35544,-3.81052 -8.47955,-17.21086c-0.1126,-14.72701 6.81135,-13.88269 6.81135,-13.88269z" fill="#1f55f7"/></g><g stroke="none" stroke-width="0" stroke-linecap="butt"><path d="M267.55318,219.93534c0,11.27968 -10.52516,17.42368 -23.91978,17.42368c-13.39462,0 -24.58644,-6.14399 -24.58644,-17.42368c0,-7.51824 2.51856,-13.80637 7.82192,-19.13536c5.61111,-5.63823 8.40953,-6.55465 16.1991,-6.55465c0,0 11.27942,-1.57367 16.404,4.81451c4.52483,5.64056 8.0812,9.59583 8.0812,20.87552z" data-paper-data="{&quot;origPos&quot;:null}" fill="#ffdebd"/><path d="M267.84725,220.0615c-0.9687,11.238 -7.2593,19.0719 -23.15311,19.09035c-15.0622,0.01748 -26.46541,-7.16625 -26.15311,-19.09035c-0.23209,-2.41232 0.25058,-5.27556 0.25058,-5.27556c0,0 16.84505,0.16964 24.63462,0.16964l24.23079,-0.21975c0,0 0.42231,2.63322 0.19023,5.32567z" data-paper-data="{&quot;origPos&quot;:null}" fill="#ffffff"/></g><g stroke="none" stroke-width="0" stroke-linecap="butt"><path d="M234.96229,227.48468c-2.73632,1.24178 -17.91185,-2.01195 -17.91185,-2.01195c0,0 -1.937,-8.54594 1.44977,-15.7352c5,-10.61372 14.90421,-13.91277 14.90421,-13.91277c0,0 8.27659,28.88261 1.55786,31.65991z" data-paper-data="{&quot;origPos&quot;:null}" fill="#1f55f7"/><path d="M217.76542,227.91755l-1.30554,-4.11084c0,0 9.70886,1.28903 15.27483,1.66079c4.19226,0.28 3.86019,-5.59735 3.02535,-16.11114c-0.768,-9.67202 -3.66794,-15.14686 -3.66794,-15.14686h6.03427c0,0 6.42555,23.7652 1.60124,33.00934c-3.1361,6.00926 -20.96222,0.69871 -20.96222,0.69871z" data-paper-data="{&quot;origPos&quot;:null}" fill="#ffef45"/></g><path d="M214.1867,218.28438c0,0 -6.28319,4.54878 -9.52999,0.02323c-6.75065,-9.40938 6.20525,-7.1636 10.6231,-9.96111c4.65658,-2.94867 10.37591,-10.29626 13.26121,-10.58332c7.92536,-0.78851 -5.13459,21.15463 -9.64628,24.32055c-5.85407,4.10789 -4.70805,-3.79936 -4.70805,-3.79936z" data-paper-data="{&quot;origRot&quot;:0}" fill="#ffdebd" stroke="none" stroke-width="0" stroke-linecap="butt"/><g data-paper-data="{&quot;index&quot;:null}" stroke="none" stroke-width="0" stroke-linecap="butt"><path d="M253.31609,194.32477c0,0 9.52471,3.49908 13.4282,14.1128c2.64405,7.18926 1.7406,13.86889 1.7406,13.86889c0,0 -6.90801,4.85343 -9.04425,3.61164c-6.44506,-11.97557 -6.12455,-31.59332 -6.12455,-31.59332z" data-paper-data="{&quot;origPos&quot;:null}" fill="#1f55f7"/><path d="M249.8007,194.87616l4.21094,-0.16666c0,0 4.87669,26.69466 7.23317,27.91377c2.22863,1.15297 7.4414,-0.74971 7.4414,-0.74971l-0.84892,4.11084c0,0 -10.29751,3.42746 -12.09303,-1.44269c-1.47146,-3.99115 -5.94356,-29.66555 -5.94356,-29.66555z" data-paper-data="{&quot;origPos&quot;:null}" fill="#ffef45"/></g><g data-paper-data="{&quot;index&quot;:null}" stroke="none" stroke-width="0" stroke-linecap="butt"><path d="M213.7997,246.17364c0,-3.46081 6.17677,-5.338 13.46074,-5.338c7.28398,0 13.63755,2.80884 13.46073,6.26636c-0.27193,5.31751 -4.55528,6.31062 -13.29406,6.43301c-10.97873,-0.02467 -13.6274,-2.27594 -13.6274,-7.36136z" data-paper-data="{&quot;origPos&quot;:null}" fill="#f3c08d"/><path d="M230.26065,232.64718c7.98554,0.16667 11.85358,4.37764 11.85358,9.69704c0,3.98606 1.18959,8.06619 -14.52024,8.06619c-15.01357,0 -15.419,-3.84805 -15.419,-7.8341c0,-6.15274 10.10012,-10.0958 18.08566,-9.92913z" data-paper-data="{&quot;origPos&quot;:null}" fill="#945a21"/></g><g><path d="M243.45895,198.79156c-11.93126,0.59837 -24.92995,-4.48828 -27.45638,-18.25388c-1.3935,-7.59265 -0.89114,-12.12711 -0.89114,-12.12711c0,0 5.35517,-4.92262 27.21564,-7.05557c17.32727,-1.69063 25.73091,6.02229 25.73091,6.02229c0,0 1.39225,6.83735 0.33504,12.31588c-1.05721,5.47853 -3.18,18.0074 -24.93407,19.09839z" fill="#ffdebd" stroke="none" stroke-width="0" stroke-linecap="butt"/><path d="M247.525,189.45953c0,0 -3.52586,1.15242 -6.4716,0.50522c-2.98556,-0.65594 -5.87817,-2.82872 -5.87817,-2.82872" fill="none" stroke="#564031" stroke-width="2.5" stroke-linecap="round"/><path d="M235.29275,183.7958c0,0 0.06045,1.74986 -0.59496,3.20775c-0.76532,1.70238 -2.34149,2.658 -2.34149,2.658" fill="none" stroke="#564031" stroke-width="2.5" stroke-linecap="round"/><g stroke="none" stroke-width="0" stroke-linecap="butt"><path d="M240.56183,166.47932c2.30282,0 3.06004,2.3002 3.06004,7.70286c0,5.01982 -0.96149,7.70286 -3.06004,7.70286c-2.09856,0 -3.06003,-2.49162 -3.06003,-7.70285c0,-5.40266 0.75721,-7.70285 3.06003,-7.70285z" fill="#000000"/><path d="M242.18473,170.05295c0,1.50593 -0.17803,2.30328 -1.3473,2.30328c-1.10358,0 -1.31444,-0.66602 -1.34728,-2.27046c-0.03618,-1.76824 0.6032,-2.18006 1.34728,-2.18006c0.74409,0 1.3473,0.37862 1.3473,2.14722z" fill="#ffffff"/></g><g stroke="none" stroke-width="0" stroke-linecap="butt"><path d="M254.10509,166.46379c2.30282,0 3.06004,2.3002 3.06004,7.70286c0,5.01982 -0.96148,7.70286 -3.06004,7.70286c-2.09856,0 -3.06002,-2.49162 -3.06002,-7.70285c0,-5.40266 0.7572,-7.70285 3.06002,-7.70285z" fill="#000000"/><path d="M255.72797,170.03742c0,1.50593 -0.17803,2.30329 -1.34729,2.30329c-1.10358,0 -1.31444,-0.66602 -1.34728,-2.27046c-0.03618,-1.76824 0.6032,-2.18006 1.34728,-2.18006c0.74408,0 1.34729,0.37863 1.34729,2.14722z" fill="#ffffff"/></g></g></g></g></g></svg>