<svg version="1.1" xmlns="http://www.w3.org/2000/svg" xmlns:xlink="http://www.w3.org/1999/xlink" width="128.03624" height="26.56993" viewBox="0,0,128.03624,26.56993"><g transform="translate(-176.98188,-165.71504)"><g data-paper-data="{&quot;isPaintingLayer&quot;:true}" fill-rule="nonzero" stroke-linecap="butt" stroke-linejoin="miter" stroke-miterlimit="10" stroke-dasharray="" stroke-dashoffset="0" style="mix-blend-mode: normal"><path d="M179,168.10754h124v21.56993h-124z" fill="#ff4a4a" stroke="none" stroke-width="0"/><g fill="#ff8181" stroke="none" stroke-width="0"><path d="M182.00477,179.07385v-8.42223h8.42223v8.42223z"/><path d="M190.42374,187.49284v-8.42222h8.42222v8.42222z"/></g><g fill="#ff8181" stroke="none" stroke-width="0"><path d="M198.8533,179.07387v-8.42222h8.42222v8.42222z"/><path d="M207.27227,187.49284v-8.42222h8.42222v8.42222z"/></g><g fill="#ff8181" stroke="none" stroke-width="0"><path d="M215.70185,179.07385v-8.42223h8.42223v8.42223z"/><path d="M224.12081,187.49284v-8.42222h8.42222v8.42222z"/></g><g fill="#ff8181" stroke="none" stroke-width="0"><path d="M232.55037,179.07387v-8.42222h8.42222v8.42222z"/><path d="M240.96934,187.49284v-8.42222h8.42222v8.42222z"/></g><g fill="#ff8181" stroke="none" stroke-width="0"><path d="M249.39892,179.07387v-8.42222h8.42222v8.42222z"/><path d="M257.81788,187.49284v-8.42222h8.42222v8.42222z"/></g><g fill="#ff8181" stroke="none" stroke-width="0"><path d="M266.24747,179.07385v-8.42223h8.42223v8.42223z"/><path d="M274.66644,187.49284v-8.42222h8.42222v8.42222z"/></g><g fill="#ff8181" stroke="none" stroke-width="0"><path d="M283.096,179.07387v-8.42222h8.42223v8.42222z"/><path d="M291.51497,187.49284v-8.42222h8.42222v8.42222z"/></g><path d="M179.48188,168.21504h123.03624v21.56993h-123.03624z" fill="none" stroke="#d1263a" stroke-width="5"/></g></g></svg>