<svg version="1.1" xmlns="http://www.w3.org/2000/svg" xmlns:xlink="http://www.w3.org/1999/xlink" width="365.1791" height="104.86895" viewBox="0,0,365.1791,104.86895"><defs><linearGradient x1="487.37642" y1="290.96379" x2="487.53904" y2="372.16818" gradientUnits="userSpaceOnUse" id="color-1"><stop offset="0" stop-color="#935f0a"/><stop offset="1" stop-color="#de7b19"/></linearGradient><linearGradient x1="346.90765" y1="314.14098" x2="347.10671" y2="367.75748" gradientUnits="userSpaceOnUse" id="color-2"><stop offset="0" stop-color="#935f0a"/><stop offset="1" stop-color="#de7b19"/></linearGradient><linearGradient x1="217.90247" y1="312.45201" x2="217.90247" y2="355.45201" gradientUnits="userSpaceOnUse" id="color-3"><stop offset="0" stop-color="#ffc96b"/><stop offset="1" stop-color="#ffc96b" stop-opacity="0"/></linearGradient><linearGradient x1="397.90247" y1="288.72847" x2="397.90247" y2="331.72847" gradientUnits="userSpaceOnUse" id="color-4"><stop offset="0" stop-color="#ffc96b"/><stop offset="1" stop-color="#ffc96b" stop-opacity="0"/></linearGradient></defs><g transform="translate(-123.74119,-288.72847)"><g data-paper-data="{&quot;isPaintingLayer&quot;:true}" fill-rule="nonzero" stroke-linejoin="miter" stroke-miterlimit="10" stroke-dasharray="" stroke-dashoffset="0" style="mix-blend-mode: normal"><path d="M487.53904,372.16818l-178.3449,1.7346l-0.16269,-81.20439l178.34497,-1.7346z" fill="url(#color-1)" stroke="#372403" stroke-width="0" stroke-linecap="butt"/><path d="M347.10671,367.75748l-218.30189,1.1453l-0.19914,-53.6165l218.30198,-1.1453z" data-paper-data="{&quot;origPos&quot;:null}" fill="url(#color-2)" stroke="#372403" stroke-width="0" stroke-linecap="butt"/><g stroke-linecap="round"><g stroke-width="0.5"><g data-paper-data="{&quot;origPos&quot;:null,&quot;origRot&quot;:0}" stroke="#665415"><path d="M216.65992,368.83276l-4.01967,-3.20797l-1.80694,-5.10504l-0.42035,-3.63215l2.59223,-5.62348l2.09889,-6.38349l3.44464,-12.26914l1.3603,4.7486l4.62682,8.4544l3.85326,5.27296l2.34698,6.26863l0.37363,3.22857l-0.73272,4.17711l-2.47254,3.15492l-3.90582,1.27846l1.40115,12.10715l-6.35209,1.15767l0.95169,-12.7935z" data-paper-data="{&quot;origPos&quot;:null}" fill="#9fa827"/><path d="M220.10627,371.29014l-0.63277,-30.68793l4.67987,29.2292" data-paper-data="{&quot;origPos&quot;:null}" fill="none"/><path d="M227.66106,360.90925l-3.7482,4.04159" data-paper-data="{&quot;origPos&quot;:null}" fill="none"/><path d="M226.21552,356.82522l-2.82576,3.60562" data-paper-data="{&quot;origPos&quot;:null}" fill="none"/><path d="M224.88205,353.70976l-2.54318,3.24506" data-paper-data="{&quot;origPos&quot;:null}" fill="none"/><path d="M221.77842,352.11195l1.37551,-2.12565" data-paper-data="{&quot;origPos&quot;:null}" fill="none"/><path d="M221.99095,345.5417l-1.41287,1.8028l-3.4983,-2.20581" data-paper-data="{&quot;origPos&quot;:null}" fill="none"/><path d="M215.42864,361.69631l4.04243,4.10525" data-paper-data="{&quot;origPos&quot;:null}" fill="none"/><path d="M219.2679,361.24387l-2.97052,-3.2498" data-paper-data="{&quot;origPos&quot;:null}" fill="none"/><path d="M216.2437,354.72779l3.17836,2.24352" data-paper-data="{&quot;origPos&quot;:null}" fill="none"/><path d="M216.64306,349.77181l2.50113,1.99607" data-paper-data="{&quot;origPos&quot;:null}" fill="none"/></g><g data-paper-data="{&quot;origPos&quot;:null,&quot;origRot&quot;:0}" stroke="#665415"><path d="M265.60428,335.66311l-4.66158,2.14855l-5.32647,-0.70354l-3.39537,-1.27778l-3.77887,-4.89128l-4.67409,-4.79453l-9.25231,-8.68568l4.80852,0.94227l9.56598,-0.30289l6.4072,-1.058l6.59895,0.74877l3.0181,1.1358l3.35055,2.56185l1.656,3.65874l-0.65239,4.09098l11.31786,4.25922l-1.87379,6.23323l-10.85098,-6.68542z" data-paper-data="{&quot;origPos&quot;:null}" fill="#9fa827"/><path d="M269.34251,333.68744l-27.35712,-13.4175l27.91488,9.11746" data-paper-data="{&quot;origPos&quot;:null}" fill="none"/><path d="M265.48564,327.37914l-1.85672,-5.20868" data-paper-data="{&quot;origPos&quot;:null}" fill="none"/><path d="M261.26034,325.78904l-1.89258,-4.18141" data-paper-data="{&quot;origPos&quot;:null}" fill="none"/><path d="M256.01201,321.38552l1.70331,3.76327" data-paper-data="{&quot;origPos&quot;:null}" fill="none"/><path d="M253.18818,323.4451l-1.24809,-2.20428" data-paper-data="{&quot;origPos&quot;:null}" fill="none"/><path d="M247.48965,320.25983l0.94629,2.09071l-3.54,2.13699" data-paper-data="{&quot;origPos&quot;:null}" fill="none"/><path d="M264.21175,331.75659l-5.46341,1.76009" data-paper-data="{&quot;origPos&quot;:null}" fill="none"/><path d="M260.09895,329.86192l-4.22033,1.18713" data-paper-data="{&quot;origPos&quot;:null}" fill="none"/><path d="M252.9731,329.6087l3.42745,-1.83243" data-paper-data="{&quot;origPos&quot;:null}" fill="none"/><path d="M251.68415,325.65444l-2.90054,1.33689" data-paper-data="{&quot;origPos&quot;:null}" fill="none"/></g><g data-paper-data="{&quot;origPos&quot;:null,&quot;origRot&quot;:0}" stroke="#674116"><path d="M275.94822,368.1649l-4.89281,-1.53832l-3.50227,-4.11043l-1.6842,-3.23789l0.41937,-6.18766l-0.31141,-6.71836l-1.14869,-12.69927l2.95862,3.9395l7.32554,6.21527l5.47197,3.52599l4.42018,5.00088l1.49707,2.87812l0.80181,4.16417l-1.18567,3.84024l-3.19088,2.60793l5.61399,10.79295l-5.51708,3.38121l-3.66204,-12.28576z" fill="#a87927"/><path d="M280.03896,369.21031l-11.50552,-28.41399l14.76413,25.58661" fill="none"/><path d="M283.39817,356.78482l-2.06097,5.12986" fill="none"/><path d="M279.24131,357.88532l1.35504,-4.38884" fill="none"/><path d="M277.02412,355.02154l1.21954,-3.94996" fill="none"/><path d="M274.77853,350.70435l0.52781,-2.48223" fill="none"/><path d="M272.64002,344.49489l-0.67752,2.19442l-4.04976,-0.79178" fill="none"/><path d="M277.49394,364.3175l-5.23321,-2.36758" fill="none"/><path d="M271.75482,358.17972l3.92846,1.95735" fill="none"/><path d="M274.30752,356.09336l-3.76455,-0.94284" fill="none"/><path d="M272.19743,351.3373l-3.04442,-0.95718" fill="none"/></g><g data-paper-data="{&quot;origPos&quot;:null,&quot;origRot&quot;:0}" stroke="#661515"><path d="M239.49883,370.06605l-4.79501,-1.8252l-3.25741,-4.31057l-1.49317,-3.33197l0.7782,-6.1522l0.07949,-6.72522l-0.40883,-12.74539l2.72463,4.10778l6.95181,6.63804l5.25766,3.8437l4.122,5.25381l1.32726,2.96175l0.55845,4.20445l-1.40675,3.76346l-3.3369,2.41465l4.97721,11.10657l-5.70406,3.04893l-2.94187,-12.48129z" data-paper-data="{&quot;origPos&quot;:null}" fill="#a85a27"/><path d="M243.52177,371.3517l-9.83472,-29.04588l13.25201,26.41618" data-paper-data="{&quot;origPos&quot;:null}" fill="none"/><path d="M245.24169,364.14544l2.3555,-4.99909" data-paper-data="{&quot;origPos&quot;:null}" fill="none"/><path d="M244.99125,355.69789l-1.60773,4.30109" data-paper-data="{&quot;origPos&quot;:null}" fill="none"/><path d="M241.33657,357.00894l1.44694,-3.87101" data-paper-data="{&quot;origPos&quot;:null}" fill="none"/><path d="M239.34566,352.56631l0.67114,-2.44673" data-paper-data="{&quot;origPos&quot;:null}" fill="none"/><path d="M237.57166,346.24101l-0.80386,2.15056l-3.99678,-1.03004" data-paper-data="{&quot;origPos&quot;:null}" fill="none"/><path d="M241.26544,366.31672l-5.08663,-2.67315" data-paper-data="{&quot;origPos&quot;:null}" fill="none"/><path d="M239.70077,362.03634l-3.80796,-2.18644" data-paper-data="{&quot;origPos&quot;:null}" fill="none"/><path d="M234.85907,356.75422l3.70329,1.16397" data-paper-data="{&quot;origPos&quot;:null}" fill="none"/><path d="M233.74867,351.90979l2.98357,1.13566" data-paper-data="{&quot;origPos&quot;:null}" fill="none"/></g><g data-paper-data="{&quot;origPos&quot;:null,&quot;origRot&quot;:0}" stroke="#665415"><path d="M293.87604,356.02801l-3.87731,-3.38169l-1.58476,-5.17965l-0.26309,-3.64718l2.83261,-5.50414l2.37257,-6.28512l3.97121,-12.10601l1.15395,4.80391l4.25732,8.64984l3.62189,5.4374l2.07404,6.36588l0.23385,3.24193l-0.91241,4.14092l-2.60644,3.04318l-3.95733,1.10548l0.87698,12.15726l-6.39605,0.87723l1.50328,-12.73949z" data-paper-data="{&quot;origPos&quot;:null}" fill="#9fa827"/><path d="M297.21301,358.63461l0.69309,-30.6866l3.41317,29.40723" data-paper-data="{&quot;origPos&quot;:null}" fill="none"/><path d="M301.28975,352.46874l3.91918,-3.87292" data-paper-data="{&quot;origPos&quot;:null}" fill="none"/><path d="M303.9411,344.4521l-2.97878,3.47793" data-paper-data="{&quot;origPos&quot;:null}" fill="none"/><path d="M300.06256,344.4111l2.6809,-3.13013" data-paper-data="{&quot;origPos&quot;:null}" fill="none"/><path d="M299.71177,339.54818l1.46601,-2.06315" data-paper-data="{&quot;origPos&quot;:null}" fill="none"/><path d="M300.20784,332.99351l-1.48939,1.73896l-3.39971,-2.35755" data-paper-data="{&quot;origPos&quot;:null}" fill="none"/><path d="M296.81543,353.12332l-3.86131,-4.27912" data-paper-data="{&quot;origPos&quot;:null}" fill="none"/><path d="M293.98195,345.18367l2.82735,3.37734" data-paper-data="{&quot;origPos&quot;:null}" fill="none"/><path d="M294.06937,341.91813l3.07845,2.38116" data-paper-data="{&quot;origPos&quot;:null}" fill="none"/><path d="M297.09488,339.08859l-2.41255,-2.10416" data-paper-data="{&quot;origPos&quot;:null}" fill="none"/></g><g data-paper-data="{&quot;origPos&quot;:null,&quot;origRot&quot;:0}" stroke="#674116"><path d="M268.86478,382.22957l-4.3532,2.72895l-5.3719,-0.01477l-3.52875,-0.83197l-4.36421,-4.36702l-5.23999,-4.15624l-10.27112,-7.42873l4.8882,0.31799l9.45027,-1.5272l6.22201,-1.87108l6.63975,-0.10357l3.13666,0.73954l3.64601,2.1114l2.10334,3.4167l-0.13192,4.14148l11.76248,2.77327l-1.07363,6.42297l-11.60492,-5.23965z" fill="#a87927"/><path d="M272.32388,379.79054l-28.82504,-9.80039l28.83676,5.46367" fill="none"/><path d="M267.70385,374.02798l-2.49762,-4.92834" fill="none"/><path d="M263.31258,372.99264l-2.4038,-3.90481" fill="none"/><path d="M259.71565,372.8122l-2.16342,-3.51432" fill="none"/><path d="M255.0107,371.70289l-1.51558,-2.02635" fill="none"/><path d="M248.95722,369.27424l1.20191,1.9524l-3.24219,2.57364" fill="none"/><path d="M261.79409,380.97977l5.19746,-2.44645" fill="none"/><path d="M258.63692,378.90017l4.0366,-1.71874" fill="none"/><path d="M255.57353,377.8441l3.16889,-2.25711" fill="none"/><path d="M253.79706,374.08721l-2.70865,1.698" fill="none"/></g><g data-paper-data="{&quot;origPos&quot;:null,&quot;origRot&quot;:0}" stroke="#674116"><path d="M293.37346,343.982l2.76651,4.35327l0.06249,5.42055l-0.77371,3.5725l-4.26444,4.46628l-4.04301,5.34692l-7.21335,10.47038l0.2449,-4.93684l-1.64892,-9.51357l-1.94331,-6.25124l-0.19794,-6.69813l0.68775,-3.17557l2.03975,-3.7092l3.35529,-2.17136l4.1055,0.07364l2.57904,-11.90836l6.37968,0.99108l-5.02514,11.78479z" fill="#dea433"/><path d="M290.90706,340.52671l-9.29694,29.22567l4.99971,-29.17522" fill="none"/><path d="M285.26351,345.27111l-4.84744,2.5909" fill="none"/><path d="M284.30069,349.71689l-3.83459,2.48155" fill="none"/><path d="M284.17355,353.34881l-3.45114,2.23339" fill="none"/><path d="M283.14194,358.11216l-1.98607,1.55833" fill="none"/><path d="M280.82237,364.25507l1.9173,-1.24077l2.59667,3.23447" fill="none"/><path d="M289.73789,345.92517l2.49871,5.2092" fill="none"/><path d="M288.46036,350.30155l1.76097,4.04833" fill="none"/><path d="M286.93692,354.29098l2.28199,3.16506" fill="none"/><path d="M285.52187,359.30248l1.72139,2.70871" fill="none"/></g><g data-paper-data="{&quot;origPos&quot;:null,&quot;origRot&quot;:0}" stroke="#665415"><path d="M264.98319,364.37666l4.90612,-1.49457l5.18381,1.42196l3.19359,1.72815l3.09072,5.36084l3.99069,5.3868l8.0071,9.86542l-4.63868,-1.58802l-9.51908,-1.00163l-6.49005,0.17642l-6.43862,-1.63994l-2.83875,-1.53613l-2.9776,-2.9944l-1.15194,-3.85067l1.19312,-3.96483l-10.6453,-5.76047l2.68965,-5.9213l9.85846,8.10098z" data-paper-data="{&quot;origPos&quot;:null}" fill="#ded633"/><path d="M261.01509,365.82558l25.31422,17.01777l-26.4415,-12.83291" data-paper-data="{&quot;origPos&quot;:null}" fill="none"/><path d="M263.9937,372.60111l1.14371,5.41377" data-paper-data="{&quot;origPos&quot;:null}" fill="none"/><path d="M269.28445,379.15245l-1.31651,-4.40077" data-paper-data="{&quot;origPos&quot;:null}" fill="none"/><path d="M272.57986,379.82918l-1.18486,-3.96069" data-paper-data="{&quot;origPos&quot;:null}" fill="none"/><path d="M275.65314,378.17268l0.94213,2.35399" data-paper-data="{&quot;origPos&quot;:null}" fill="none"/><path d="M280.87397,382.10433l-0.65825,-2.20038l3.79324,-1.63574" data-paper-data="{&quot;origPos&quot;:null}" fill="none"/><path d="M271.48969,367.43647l-5.64872,1.00053" data-paper-data="{&quot;origPos&quot;:null}" fill="none"/><path d="M274.0034,370.27207l-4.34042,0.60197" data-paper-data="{&quot;origPos&quot;:null}" fill="none"/><path d="M276.68991,372.09466l-3.64102,1.34927" data-paper-data="{&quot;origPos&quot;:null}" fill="none"/><path d="M277.43866,376.18819l3.0527,-0.92995" data-paper-data="{&quot;origPos&quot;:null}" fill="none"/></g><g data-paper-data="{&quot;origPos&quot;:null,&quot;origRot&quot;:0}" stroke="#661515"><path d="M270.32455,347.4791l-0.52274,5.14457l-3.29693,4.27987l-2.81041,2.30853l-6.09296,0.8136l-6.46331,1.64173l-12.10597,3.65719l3.23885,-3.70827l4.58223,-8.47909l2.33828,-6.11196l3.97954,-5.3645l2.49814,-2.05203l3.88522,-1.61967l3.96516,0.41029l3.16638,2.63816l9.36803,-7.69508l4.37922,4.78535l-11.20539,6.06089z" data-paper-data="{&quot;origPos&quot;:null}" fill="#de7633"/><path d="M270.52781,343.22568l-25.31265,17.02014l21.9197,-19.68174" data-paper-data="{&quot;origPos&quot;:null}" fill="none"/><path d="M263.18428,343.39001l-5.39146,-1.01997" data-paper-data="{&quot;origPos&quot;:null}" fill="none"/><path d="M255.15529,345.79393l4.53161,0.46892" data-paper-data="{&quot;origPos&quot;:null}" fill="none"/><path d="M257.34564,349.02425l-4.07846,-0.42202" data-paper-data="{&quot;origPos&quot;:null}" fill="none"/><path d="M251.0828,352.07303l2.51562,0.02925" data-paper-data="{&quot;origPos&quot;:null}" fill="none"/><path d="M247.99208,355.45004l2.2658,0.23445l0.03496,4.16253" data-paper-data="{&quot;origPos&quot;:null}" fill="none"/><path d="M266.28094,346.71411l-1.26057,5.64584" data-paper-data="{&quot;origPos&quot;:null}" fill="none"/><path d="M261.45905,353.60881l1.12117,-4.27396" data-paper-data="{&quot;origPos&quot;:null}" fill="none"/><path d="M258.92593,351.49829l-0.16838,3.91045" data-paper-data="{&quot;origPos&quot;:null}" fill="none"/><path d="M254.40031,357.73048l0.32525,-3.20106" data-paper-data="{&quot;origPos&quot;:null}" fill="none"/></g><g data-paper-data="{&quot;origPos&quot;:null,&quot;origRot&quot;:0}" stroke="#674116"><path d="M267.97532,317.79186l4.67812,-2.11164l5.32085,0.74565l3.38534,1.30459l3.74077,4.92102l4.63671,4.83134l9.18457,8.75859l-4.80106,-0.98028l-9.56803,0.22724l-6.41522,1.00729l-6.59294,-0.80094l-3.00918,-1.15963l-3.33055,-2.58826l-1.62754,-3.67173l0.68414,-4.08569l-11.28443,-4.34861l1.92214,-6.2182l10.79871,6.77102z" fill="#dea433"/><path d="M264.22186,319.73789l27.25209,13.63345l-27.84322,-9.33794" fill="none"/><path d="M268.02959,326.07651l1.81621,5.2232" fill="none"/><path d="M274.10247,331.89623l-1.86003,-4.19625" fill="none"/><path d="M277.45638,332.14487l-1.67402,-3.77663" fill="none"/><path d="M280.29614,330.10768l1.23094,2.21409" fill="none"/><path d="M285.96975,333.33792l-0.93002,-2.09813l3.55649,-2.10893" fill="none"/><path d="M269.33747,321.70926l5.47691,-1.71682" fill="none"/><path d="M273.43541,323.63641l4.22941,-1.15373" fill="none"/><path d="M280.55908,323.94597l-3.44157,1.80527" fill="none"/><path d="M281.81728,327.9103l2.91083,-1.3139" fill="none"/></g><g data-paper-data="{&quot;origPos&quot;:null,&quot;origRot&quot;:0}" stroke="#674116"><path d="M205.69356,333.20771l4.27348,2.85437l2.22722,4.93304l0.72246,3.58342l-2.11293,5.82409l-1.55781,6.5394l-2.40681,12.51864l-1.75239,-4.61589l-5.31703,-8.03042l-4.28029,-4.92617l-2.8626,-6.0465l-0.64218,-3.18526l0.38094,-4.22459l2.20001,-3.35415l3.78506,-1.60636l-2.40818,-11.94473l6.23267,-1.69424l0.12111,12.82893z" fill="#a87927"/><path d="M202.05409,331.05245l3.19569,30.5247l-7.10645,-28.72667" fill="none"/><path d="M195.39395,342.03941l3.39702,-4.34623" fill="none"/><path d="M199.69003,342.15254l-2.51429,3.8333" fill="none"/><path d="M201.02773,345.52671l-2.26287,3.44997" fill="none"/><path d="M200.79807,352.53979l1.19293,-2.23518" fill="none"/><path d="M202.32842,356.86955l1.25714,-1.91665l3.67022,1.90017" fill="none"/><path d="M203.14582,336.46739l4.37118,3.74653" fill="none"/><path d="M203.72922,340.99156l3.23157,2.98535" fill="none"/><path d="M203.93276,345.26202l3.35457,1.96497" fill="none"/><path d="M204.6446,350.42323l2.65907,1.77606" fill="none"/></g><g data-paper-data="{&quot;origPos&quot;:null,&quot;origRot&quot;:0}" stroke="#665415"><path d="M192.18357,342.46509l2.78879,4.33877l0.0903,5.42014l-0.75539,3.5765l-4.24148,4.48848l-4.01554,5.36795l-7.15957,10.50791l0.21958,-4.93806l-1.69768,-9.50483l-1.97534,-6.24102l-0.2323,-6.69701l0.67146,-3.1791l2.0207,-3.7198l3.34411,-2.18884l4.10583,0.05219l2.51792,-11.92167l6.38469,0.95776l-4.96465,11.81086z" data-paper-data="{&quot;origPos&quot;:null}" fill="#9fa827"/><path d="M189.69947,339.02274l-9.14696,29.27381l4.85005,-29.20093" data-paper-data="{&quot;origPos&quot;:null}" fill="none"/><path d="M179.24625,346.4127l4.83408,-2.61618" data-paper-data="{&quot;origPos&quot;:null}" fill="none"/><path d="M179.31849,350.74881l3.82182,-2.50153" data-paper-data="{&quot;origPos&quot;:null}" fill="none"/><path d="M183.03179,351.87981l-3.43965,2.25138" data-paper-data="{&quot;origPos&quot;:null}" fill="none"/><path d="M182.02462,356.64849l-1.97806,1.56867" data-paper-data="{&quot;origPos&quot;:null}" fill="none"/><path d="M179.7366,362.80343l1.91092,-1.25077l2.61321,3.22086" data-paper-data="{&quot;origPos&quot;:null}" fill="none"/><path d="M188.55801,344.42722l2.5254,5.19608" data-paper-data="{&quot;origPos&quot;:null}" fill="none"/><path d="M187.30294,348.81022l1.78171,4.03908" data-paper-data="{&quot;origPos&quot;:null}" fill="none"/><path d="M188.09816,355.96065l-2.29818,-3.15311" data-paper-data="{&quot;origPos&quot;:null}" fill="none"/><path d="M186.14588,360.52605l-1.73526,-2.69968" data-paper-data="{&quot;origPos&quot;:null}" fill="none"/></g><g data-paper-data="{&quot;origPos&quot;:null,&quot;origRot&quot;:0}" stroke="#674116"><path d="M226.85181,323.25882l4.93471,-1.39544l5.15464,1.52612l3.15877,1.79213l2.98404,5.42205l3.88333,5.46612l7.81033,10.02477l-4.60635,-1.68117l-9.49736,-1.1932l-6.49224,0.04564l-6.40489,-1.76931l-2.80779,-1.59301l-2.91777,-3.05379l-1.07554,-3.87311l1.27132,-3.94l-10.52922,-5.9738l2.80625,-5.86592l9.69623,8.29796z" fill="#a87927"/><path d="M222.85584,324.62749l24.97251,17.52436l-26.18237,-13.36302" fill="none"/><path d="M226.73621,336.89742l-1.03638,-5.43573" fill="none"/><path d="M229.63072,333.69189l1.22918,4.42641" fill="none"/><path d="M234.14127,338.86129l-1.10626,-3.98377" fill="none"/><path d="M238.14208,339.63954l-0.89537,-2.3725" fill="none"/><path d="M242.38872,341.30308l-0.61459,-2.21321l3.82485,-1.55899" fill="none"/><path d="M227.6291,327.33561l5.66738,-0.88653" fill="none"/><path d="M231.40215,329.84917l4.35145,-0.51442" fill="none"/><path d="M238.40353,331.21111l-3.66697,1.27565" fill="none"/><path d="M239.07117,335.31891l3.07047,-0.86827" fill="none"/></g><g data-paper-data="{&quot;origPos&quot;:null,&quot;origRot&quot;:0}" stroke="#665415"><path d="M228.48848,340.05608l-4.87626,1.59096l-5.21033,-1.31954l-3.22643,-1.6649l-3.19386,-5.29892l-4.09417,-5.30714l-8.19645,-9.70576l4.66853,1.49631l9.53665,0.81388l6.48541,-0.30427l6.46912,1.51275l2.86792,1.4799l3.03498,2.93516l1.22623,3.82725l-1.11617,3.98759l10.75475,5.54962l-2.57455,5.97317l-10.01334,-7.90517z" data-paper-data="{&quot;origPos&quot;:null}" fill="#ded633"/><path d="M232.4278,338.52925l-25.63868,-16.51572l26.68478,12.30944" data-paper-data="{&quot;origPos&quot;:null}" fill="none"/><path d="M228.0704,326.42351l1.24825,5.3902" data-paper-data="{&quot;origPos&quot;:null}" fill="none"/><path d="M225.30355,329.74185l-1.4014,-4.37398" data-paper-data="{&quot;origPos&quot;:null}" fill="none"/><path d="M221.85552,328.69279l-1.26128,-3.93659" data-paper-data="{&quot;origPos&quot;:null}" fill="none"/><path d="M216.56613,324.13796l0.98749,2.33499" data-paper-data="{&quot;origPos&quot;:null}" fill="none"/><path d="M212.25773,322.64492l0.70071,2.187l-3.76087,1.71017" data-paper-data="{&quot;origPos&quot;:null}" fill="none"/><path d="M227.55231,336.01342l-5.62828,1.11165" data-paper-data="{&quot;origPos&quot;:null}" fill="none"/><path d="M219.35591,334.33954l4.32794,-0.68737" data-paper-data="{&quot;origPos&quot;:null}" fill="none"/><path d="M220.24886,331.14947l-3.61421,1.42077" data-paper-data="{&quot;origPos&quot;:null}" fill="none"/><path d="M215.80682,328.49223l-3.03413,0.98994" data-paper-data="{&quot;origPos&quot;:null}" fill="none"/></g><g data-paper-data="{&quot;origPos&quot;:null,&quot;origRot&quot;:0}" stroke="#661515"><path d="M213.26974,361.71155l-1.2169,-5.02364l1.68399,-5.14766l1.88066,-3.12581l5.4699,-2.82811l5.54365,-3.73362l10.18999,-7.54164l-1.8192,4.58949l-1.49961,9.53869l-0.17208,6.54932l-1.96671,6.40047l-1.67169,2.7785l-3.12214,2.84052l-3.87195,0.9551l-3.85967,-1.41405l-6.26886,10.41938l-5.71574,-3.02658l8.54287,-9.50148z" data-paper-data="{&quot;origPos&quot;:null}" fill="#de7633"/><path d="M214.49154,365.78751l18.19201,-24.59964l-14.11109,25.95912" data-paper-data="{&quot;origPos&quot;:null}" fill="none"/><path d="M221.35535,363.14794l5.41827,-0.86332" data-paper-data="{&quot;origPos&quot;:null}" fill="none"/><path d="M223.69573,359.25803l4.42508,-1.09154" data-paper-data="{&quot;origPos&quot;:null}" fill="none"/><path d="M224.98391,355.86429l3.98258,-0.9824" data-paper-data="{&quot;origPos&quot;:null}" fill="none"/><path d="M229.87118,350.87292l-2.37971,0.82362" data-paper-data="{&quot;origPos&quot;:null}" fill="none"/><path d="M231.66088,346.64562l-2.21255,0.54578l-1.41602,-3.90974" data-paper-data="{&quot;origPos&quot;:null}" fill="none"/><path d="M216.64508,355.31852l0.68835,5.74554" data-paper-data="{&quot;origPos&quot;:null}" fill="none"/><path d="M219.58529,352.93695l0.36384,4.4059" data-paper-data="{&quot;origPos&quot;:null}" fill="none"/><path d="M222.67304,354.06819l-1.14069,-3.74105" data-paper-data="{&quot;origPos&quot;:null}" fill="none"/><path d="M225.62309,349.79129l-0.75718,-3.12581" data-paper-data="{&quot;origPos&quot;:null}" fill="none"/></g><g data-paper-data="{&quot;origPos&quot;:null,&quot;origRot&quot;:0}" stroke="#674116"><path d="M239.56176,382.187l-5.0289,-0.99579l-3.92188,-3.70448l-2.02105,-3.03528l-0.24563,-6.19717l-1.02895,-6.64506l-2.50176,-12.49966l3.36313,3.59383l7.94815,5.38011l5.81748,2.90869l4.92978,4.48963l1.79647,2.69804l1.243,4.05236l-0.76754,3.94705l-2.89294,2.94057l6.73679,10.11763l-5.12274,3.96297l-4.95612,-11.81452z" fill="#dea433"/><path d="M243.74048,382.78025l-14.48061,-26.99308l17.4174,23.82694" fill="none"/><path d="M245.74951,370.06122l-1.4996,5.32456" fill="none"/><path d="M242.61201,367.09764l-0.87717,4.5109" fill="none"/><path d="M240.01345,364.94347l-0.78945,4.05981" fill="none"/><path d="M236.52929,364.95622l0.25894,-2.52524" fill="none"/><path d="M233.73842,359.01631l-0.43858,2.25545l-4.11082,-0.34557" fill="none"/><path d="M240.68647,378.19359l-5.45608,-1.78309" fill="none"/><path d="M234.32373,372.71752l4.11504,1.51754" fill="none"/><path d="M236.63806,370.36505l-3.84345,-0.52685" fill="none"/><path d="M230.90199,365.24729l3.12908,0.61962" fill="none"/></g><g data-paper-data="{&quot;origPos&quot;:null,&quot;origRot&quot;:0}" stroke="#674116"><path d="M209.89624,385.38985l-5.07611,0.71118l-4.90361,-2.21364l-2.89044,-2.20562l-2.23222,-5.77859l-3.11741,-5.94464l-6.39934,-10.99605l4.33962,2.29266l9.25116,2.47472l6.43904,0.83826l6.10995,2.62475l2.56927,1.96055l2.48302,3.42295l0.54814,3.9841l-1.78623,3.73101l9.63474,7.35207l-3.5645,5.43047l-8.49878,-9.54165z" fill="#dea433"/><path d="M214.0386,384.57745l-22.40256,-20.7626l24.15746,16.80392" fill="none"/><path d="M211.83337,371.89156l0.30051,5.52711" fill="none"/><path d="M208.53692,374.67392l-0.62644,-4.55325" fill="none"/><path d="M204.75836,368.93793l0.56379,4.09792" fill="none"/><path d="M201.46826,370.09502l-0.57015,-2.47268" fill="none"/><path d="M196.91258,365.39612l0.31321,2.27662l-3.99824,1.02426" fill="none"/><path d="M209.67083,381.24451l-5.73409,0.1072" fill="none"/><path d="M201.8877,378.15804l4.38046,0.08243" fill="none"/><path d="M203.31667,375.17322l-3.80394,0.76499" fill="none"/><path d="M196.24167,372.21957l3.15845,-0.4425" fill="none"/></g><g data-paper-data="{&quot;origPos&quot;:null,&quot;origRot&quot;:0}" stroke="#665415"><path d="M168.30098,337.35933l-4.56436,2.35151l-5.3518,-0.46864l-3.44733,-1.12725l-3.98651,-4.72046l-4.87671,-4.58442l-9.6186,-8.27054l4.84464,0.72992l9.54381,-0.72328l6.35542,-1.33875l6.62502,0.45786l3.06428,1.002l3.458,2.41206l1.81243,3.58244l-0.4751,4.11579l11.49104,3.75745l-1.60283,6.30971l-11.12937,-6.20189z" data-paper-data="{&quot;origPos&quot;:null}" fill="#9fa827"/><path d="M171.95034,335.22114l-27.91058,-12.2017l28.28211,7.88121" data-paper-data="{&quot;origPos&quot;:null}" fill="none"/><path d="M167.82474,329.08844l-2.0799,-5.12208" data-paper-data="{&quot;origPos&quot;:null}" fill="none"/><path d="M163.53476,327.68567l-2.07135,-4.09421" data-paper-data="{&quot;origPos&quot;:null}" fill="none"/><path d="M158.10125,323.51713l1.86422,3.6848" data-paper-data="{&quot;origPos&quot;:null}" fill="none"/><path d="M155.36905,325.69894l-1.34209,-2.14731" data-paper-data="{&quot;origPos&quot;:null}" fill="none"/><path d="M149.53837,322.7673l1.03567,2.0471l-3.44435,2.29064" data-paper-data="{&quot;origPos&quot;:null}" fill="none"/><path d="M161.35886,335.51643l5.38221,-1.99867" data-paper-data="{&quot;origPos&quot;:null}" fill="none"/><path d="M158.38531,333.17734l4.16505,-1.37159" data-paper-data="{&quot;origPos&quot;:null}" fill="none"/><path d="M158.76539,329.88472l-3.34506,1.98142" data-paper-data="{&quot;origPos&quot;:null}" fill="none"/><path d="M153.96185,327.97232l-2.84005,1.46317" data-paper-data="{&quot;origPos&quot;:null}" fill="none"/></g><g data-paper-data="{&quot;origPos&quot;:null,&quot;origRot&quot;:0}" stroke="#661515"><path d="M169.24668,359.46261l-3.30641,-3.95123l-0.76375,-5.36583l0.30455,-3.6439l3.64964,-4.99022l3.3161,-5.83412l5.79593,-11.33166l0.39637,4.92682l2.8665,9.21462l2.73598,5.94145l1.06345,6.61463l-0.27071,3.23901l-1.54203,3.94633l-3.04539,2.5951l-4.07986,0.46828l-1.01516,12.14632l-6.45332,-0.14149l3.45629,-12.3463z" data-paper-data="{&quot;origPos&quot;:null}" fill="#a85a27"/><path d="M172.13931,362.5631l5.43344,-30.20089l-1.17957,29.58432" data-paper-data="{&quot;origPos&quot;:null}" fill="none"/><path d="M177.12023,357.11533l4.47044,-3.20779" data-paper-data="{&quot;origPos&quot;:null}" fill="none"/><path d="M180.97968,349.61486l-3.48045,2.96583" data-paper-data="{&quot;origPos&quot;:null}" fill="none"/><path d="M180.28745,346.29389l-3.1324,2.66926" data-paper-data="{&quot;origPos&quot;:null}" fill="none"/><path d="M177.56113,344.10462l1.76729,-1.80681" data-paper-data="{&quot;origPos&quot;:null}" fill="none"/><path d="M179.06546,337.70854l-1.74023,1.48292l-2.99317,-2.8644" data-paper-data="{&quot;origPos&quot;:null}" fill="none"/><path d="M172.59951,357.05677l-3.15172,-4.83512" data-paper-data="{&quot;origPos&quot;:null}" fill="none"/><path d="M171.02945,348.76801l2.27001,3.78145" data-paper-data="{&quot;origPos&quot;:null}" fill="none"/><path d="M171.62114,345.5563l2.6722,2.83708" data-paper-data="{&quot;origPos&quot;:null}" fill="none"/><path d="M175.04745,343.23828l-2.05732,-2.45854" data-paper-data="{&quot;origPos&quot;:null}" fill="none"/></g><g data-paper-data="{&quot;origPos&quot;:null,&quot;origRot&quot;:0}" stroke="#661515"><path d="M139.85389,375.54954l-4.86929,-1.61259l-3.44047,-4.16323l-1.63564,-3.26315l0.51178,-6.18058l-0.21102,-6.72233l-0.95884,-12.7153l2.89943,3.98406l7.23187,6.32602l5.41867,3.60883l4.34497,5.06755l1.45391,2.90057l0.73948,4.1759l-1.24289,3.82175l-3.22946,2.5591l5.45212,10.87713l-5.56697,3.29688l-3.47809,-12.34006z" data-paper-data="{&quot;origPos&quot;:null}" fill="#a85a27"/><path d="M143.92854,376.65706l-11.07971,-28.58579l14.3802,25.80831" data-paper-data="{&quot;origPos&quot;:null}" fill="none"/><path d="M147.47298,364.28408l-2.13736,5.09793" data-paper-data="{&quot;origPos&quot;:null}" fill="none"/><path d="M144.72063,360.95349l-1.42045,4.36771" data-paper-data="{&quot;origPos&quot;:null}" fill="none"/><path d="M141.126,362.42402l1.2784,-3.93096" data-paper-data="{&quot;origPos&quot;:null}" fill="none"/><path d="M138.94517,358.07317l0.56484,-2.47392" data-paper-data="{&quot;origPos&quot;:null}" fill="none"/><path d="M136.89967,351.83188l-0.71022,2.18387l-4.03746,-0.8533" data-paper-data="{&quot;origPos&quot;:null}" fill="none"/><path d="M136.25968,369.27916l5.19724,2.44693" data-paper-data="{&quot;origPos&quot;:null}" fill="none"/><path d="M139.70889,367.51858l-3.89876,-2.0169" data-paper-data="{&quot;origPos&quot;:null}" fill="none"/><path d="M134.64366,362.4544l3.75004,1.00001" data-paper-data="{&quot;origPos&quot;:null}" fill="none"/><path d="M136.35489,358.66678l-3.02978,-1.00338" data-paper-data="{&quot;origPos&quot;:null}" fill="none"/></g><g data-paper-data="{&quot;origPos&quot;:null,&quot;origRot&quot;:0}" stroke="#674116"><path d="M173.56936,383.73817l-4.23122,2.9178l-5.36743,0.22148l-3.56133,-0.676l-4.54865,-4.17095l-5.4145,-3.92185l-10.58216,-6.96999l4.89729,0.10272l9.37535,-1.94133l6.13529,-2.14293l6.62897,-0.39545l3.16562,0.6009l3.73372,1.94905l2.24889,3.32096l0.04706,4.14335l11.87107,2.25337l-0.79523,6.46408l-11.82017,-4.72433z" fill="#a87927"/><path d="M176.91987,381.14933l-29.22089,-8.52347l29.04532,4.19036" fill="none"/><path d="M169.3473,370.7816l2.70807,4.81382" fill="none"/><path d="M165.05336,370.95879l2.57016,3.79539" fill="none"/><path d="M161.70913,371.31623l2.31312,3.41585" fill="none"/><path d="M159.27383,373.83074l-1.60164,-1.95778" fill="none"/><path d="M153.12122,371.6706l1.28508,1.89769l-3.12796,2.71377" fill="none"/><path d="M171.53827,380.12781l-5.08687,2.67269" fill="none"/><path d="M167.16598,378.96709l-3.95854,1.89462" fill="none"/><path d="M163.16976,377.54704l-3.0684,2.39432" fill="none"/><path d="M158.16434,376.26615l-2.63276,1.81551" fill="none"/></g><g data-paper-data="{&quot;origPos&quot;:null,&quot;origRot&quot;:0}" stroke="#674116"><path d="M207.79912,338.44913l2.95188,4.22747l0.29652,5.41264l-0.6187,3.60314l-4.06751,4.64957l-3.80826,5.51963l-6.75434,10.77765l0.03147,-4.94293l-2.05821,-9.43201l-2.21142,-6.15985l-0.48702,-6.68306l0.54995,-3.20279l1.87762,-3.79537l3.25833,-2.31685l4.10478,-0.10698l2.06232,-12.01047l6.41643,0.70959l-4.51144,11.99458z" fill="#dea433"/><path d="M205.18582,335.10559l-8.02599,29.60675l3.73502,-29.36737" fill="none"/><path d="M199.75254,340.09366l-4.73093,2.8016" fill="none"/><path d="M195.25881,347.22538l3.72379,-2.64783" fill="none"/><path d="M195.66103,350.59466l3.35141,-2.38304" fill="none"/><path d="M198.1875,353.01581l-1.9169,1.64418" fill="none"/><path d="M196.13545,359.25489l1.8619,-1.32391l2.73388,3.11719" fill="none"/><path d="M204.25092,340.55033l2.7213,5.09438" fill="none"/><path d="M203.1636,344.97874l1.93413,3.96704" fill="none"/><path d="M201.81389,349.03137l2.4165,3.06171" fill="none"/><path d="M200.61659,354.10034l1.83673,2.63043" fill="none"/></g><g data-paper-data="{&quot;origPos&quot;:null,&quot;origRot&quot;:0}" stroke="#665415"><path d="M168.92047,366.07292l4.83692,-1.70891l5.24028,1.19265l3.26519,1.58607l3.31929,5.21983l4.21952,5.20619l8.42553,9.50392l-4.70285,-1.38252l-9.55328,-0.58207l-6.47627,0.46166l-6.50331,-1.35523l-2.90239,-1.40983l-3.10409,-2.86061l-1.31714,-3.79636l1.02077,-4.01353l-10.88396,-5.28687l2.43137,-6.03395l10.19893,7.65975z" data-paper-data="{&quot;origPos&quot;:null}" fill="#ded633"/><path d="M165.01873,367.69496l26.02508,15.88837l-26.97057,-11.65792" data-paper-data="{&quot;origPos&quot;:null}" fill="none"/><path d="M168.28709,374.33306l1.37642,5.35833" data-paper-data="{&quot;origPos&quot;:null}" fill="none"/><path d="M173.85574,380.64551l-1.5053,-4.33869" data-paper-data="{&quot;origPos&quot;:null}" fill="none"/><path d="M175.82248,377.27186l1.35477,3.90483" data-paper-data="{&quot;origPos&quot;:null}" fill="none"/><path d="M181.21896,381.69693l-1.04288,-2.31033" data-paper-data="{&quot;origPos&quot;:null}" fill="none"/><path d="M185.56171,383.08492l-0.75265,-2.16934l3.719,-1.801" data-paper-data="{&quot;origPos&quot;:null}" fill="none"/><path d="M169.95278,370.09167l5.60014,-1.24798" data-paper-data="{&quot;origPos&quot;:null}" fill="none"/><path d="M178.18672,371.56605l-4.31031,0.79227" data-paper-data="{&quot;origPos&quot;:null}" fill="none"/><path d="M180.9494,373.26876l-3.57929,1.50811" data-paper-data="{&quot;origPos&quot;:null}" fill="none"/><path d="M181.87424,377.32548l3.00963,-1.06332" data-paper-data="{&quot;origPos&quot;:null}" fill="none"/></g><g data-paper-data="{&quot;origPos&quot;:null,&quot;origRot&quot;:0}" stroke="#661515"><path d="M174.90101,344.04284l2.74818,4.36507l0.03972,5.42076l-0.78872,3.56916l-4.28317,4.44799l-4.06544,5.32957l-7.25729,10.43943l0.26564,-4.93575l-1.60893,-9.52053l-1.91702,-6.2595l-0.1698,-6.69892l0.70108,-3.17259l2.05532,-3.70043l3.36436,-2.15698l4.10517,0.09119l2.62904,-11.89722l6.37547,1.01837l-5.07461,11.76319z" data-paper-data="{&quot;origPos&quot;:null}" fill="#de7633"/><path d="M172.44913,340.57704l-9.41966,29.18562l5.12225,-29.15356" data-paper-data="{&quot;origPos&quot;:null}" fill="none"/><path d="M161.92743,347.86737l4.85828,-2.57013" data-paper-data="{&quot;origPos&quot;:null}" fill="none"/><path d="M165.80419,349.73887l-3.84499,2.46511" data-paper-data="{&quot;origPos&quot;:null}" fill="none"/><path d="M162.2013,355.58882l3.4605,-2.21861" data-paper-data="{&quot;origPos&quot;:null}" fill="none"/><path d="M162.61758,359.67891l1.99261,-1.54981" data-paper-data="{&quot;origPos&quot;:null}" fill="none"/><path d="M162.26485,364.26204l1.92249,-1.23256l2.58305,3.24554" data-paper-data="{&quot;origPos&quot;:null}" fill="none"/><path d="M171.2573,345.97045l2.4768,5.21984" data-paper-data="{&quot;origPos&quot;:null}" fill="none"/><path d="M171.70536,354.39715l-1.74394,-4.05582" data-paper-data="{&quot;origPos&quot;:null}" fill="none"/><path d="M168.42122,354.3242l2.26866,3.1748" data-paper-data="{&quot;origPos&quot;:null}" fill="none"/><path d="M168.69508,362.04564l-1.70999,-2.71604" data-paper-data="{&quot;origPos&quot;:null}" fill="none"/></g><g data-paper-data="{&quot;origPos&quot;:null,&quot;origRot&quot;:0}" stroke="#665415"><path d="M139.47301,344.89879l3.55425,3.72567l1.10823,5.30429l-0.06888,3.65618l-3.32003,5.21936l-2.93277,6.03956l-5.05275,11.68832l-0.71331,-4.89033l-3.45476,-9.0068l-3.11343,-5.74916l-1.48784,-6.53075l0.06122,-3.24993l1.28423,-4.03924l2.87155,-2.78963l4.041,-0.73526l0.22956,-12.18724l6.44877,-0.28268l-2.65264,12.54713z" data-paper-data="{&quot;origPos&quot;:null}" fill="#ded633"/><path d="M136.38653,341.99487l-3.47395,30.49372l-0.73113,-29.59906" data-paper-data="{&quot;origPos&quot;:null}" fill="none"/><path d="M131.76754,347.75826l-4.25406,3.49461" data-paper-data="{&quot;origPos&quot;:null}" fill="none"/><path d="M131.68185,352.30815l-3.28177,3.18815" data-paper-data="{&quot;origPos&quot;:null}" fill="none"/><path d="M129.30503,358.76476l2.9536,-2.86933" data-paper-data="{&quot;origPos&quot;:null}" fill="none"/><path d="M132.1668,360.77033l-1.647,1.91906" data-paper-data="{&quot;origPos&quot;:null}" fill="none"/><path d="M131.07819,367.25164l1.64088,-1.59407l3.17157,2.66172" data-paper-data="{&quot;origPos&quot;:null}" fill="none"/><path d="M139.73936,352.13761l-3.45691,-4.61786" data-paper-data="{&quot;origPos&quot;:null}" fill="none"/><path d="M138.3838,355.68782l-2.5091,-3.62434" data-paper-data="{&quot;origPos&quot;:null}" fill="none"/><path d="M138.00052,358.93157l-2.84952,-2.65555" data-paper-data="{&quot;origPos&quot;:null}" fill="none"/><path d="M134.73099,361.46973l2.21155,2.3182" data-paper-data="{&quot;origPos&quot;:null}" fill="none"/></g><g data-paper-data="{&quot;origPos&quot;:null,&quot;origRot&quot;:0}" stroke="#674116"><path d="M169.89798,319.40079l4.58248,-2.31536l5.348,0.51096l3.43846,1.15446l3.94972,4.75185l4.84095,4.62286l9.55409,8.34637l-4.83884,-0.76822l-9.54913,0.64778l-6.36562,1.28844l-6.62126,-0.51024l-3.0564,-1.02619l-3.43916,-2.43934l-1.78455,-3.59667l0.50706,-4.11189l-11.46151,-3.84823l1.65178,-6.29683l11.08087,6.2897z" fill="#dea433"/><path d="M166.23215,321.51003l27.81496,12.42206l-28.22002,-8.10463" fill="none"/><path d="M172.35006,332.81355l-2.04005,-5.13837" fill="none"/><path d="M176.62844,333.2223l-2.03949,-4.11047" fill="none"/><path d="M179.98991,333.32321l-1.83553,-3.69942" fill="none"/><path d="M184.06436,333.32094l-1.32538,-2.15785" fill="none"/><path d="M188.54671,334.14075l-1.01974,-2.05523l3.46204,-2.26333" fill="none"/><path d="M176.82563,321.29852l-5.39757,1.95604" fill="none"/><path d="M179.78088,323.66104l-4.17556,1.33863" fill="none"/><path d="M179.37526,326.95057l3.36034,-1.9549" fill="none"/><path d="M187.01512,327.46025l-2.85131,1.44065" fill="none"/></g><g data-paper-data="{&quot;origPos&quot;:null,&quot;origRot&quot;:0}" stroke="#674116"><path d="M148.5773,355.56697l-4.9691,-1.26508l-3.7205,-3.9103l-1.85773,-3.13975l0.08229,-6.20157l-0.67624,-6.69098l-1.83749,-12.61653l3.16838,3.76975l7.65246,5.80028l5.65546,3.21769l4.68543,4.74859l1.6513,2.79089l1.02702,4.1135l-0.97508,3.90012l-3.04425,2.78067l6.1924,10.46585l-5.32492,3.68159l-4.32457,-12.06447z" fill="#dea433"/><path d="M152.71871,356.3843l-13.0332,-27.73409l16.13317,24.73054" fill="none"/><path d="M155.39721,343.79151l-1.77892,5.23627" fill="none"/><path d="M151.30646,345.12054l1.11436,-4.45727" fill="none"/><path d="M148.9369,342.38383l1.00292,-4.01153" fill="none"/><path d="M146.45993,338.1975l0.39203,-2.50772" fill="none"/><path d="M143.98701,332.11581l-0.55718,2.22863l-4.08671,-0.56634" fill="none"/><path d="M149.91148,351.63978l-5.35408,-2.07424" fill="none"/><path d="M143.84726,345.82903l4.02896,1.73687" fill="none"/><path d="M146.28265,343.60447l-3.81014,-0.73298" fill="none"/><path d="M143.91714,338.97241l-3.09188,-0.78716" fill="none"/></g></g><path d="M128.22046,313.45201l180.35497,-1l-0.99096,41l-180.35497,2z" data-paper-data="{&quot;origPos&quot;:null}" fill="url(#color-3)" stroke="#000000" stroke-width="0"/></g><g stroke-linecap="round"><g stroke-width="0.5"><g data-paper-data="{&quot;origPos&quot;:null,&quot;origRot&quot;:0}" stroke="#665415"><path d="M396.65992,345.10922l-4.01967,-3.20797l-1.80694,-5.10504l-0.42035,-3.63215l2.59223,-5.62348l2.09889,-6.38349l3.44464,-12.26914l1.3603,4.7486l4.62682,8.4544l3.85326,5.27296l2.34698,6.26863l0.37363,3.22857l-0.73272,4.17711l-2.47254,3.15492l-3.90582,1.27846l1.40115,12.10715l-6.35209,1.15767l0.95169,-12.7935z" data-paper-data="{&quot;origPos&quot;:null}" fill="#9fa827"/><path d="M400.10627,347.5666l-0.63277,-30.68793l4.67987,29.2292" data-paper-data="{&quot;origPos&quot;:null}" fill="none"/><path d="M403.91286,341.2273l3.7482,-4.04159" data-paper-data="{&quot;origPos&quot;:null}" fill="none"/><path d="M406.21552,333.10168l-2.82576,3.60562" data-paper-data="{&quot;origPos&quot;:null}" fill="none"/><path d="M404.88205,329.98622l-2.54318,3.24506" data-paper-data="{&quot;origPos&quot;:null}" fill="none"/><path d="M401.77842,328.38841l1.37551,-2.12565" data-paper-data="{&quot;origPos&quot;:null}" fill="none"/><path d="M401.99096,321.81816l-1.41287,1.8028l-3.4983,-2.20581" data-paper-data="{&quot;origPos&quot;:null}" fill="none"/><path d="M399.47108,342.07802l-4.04243,-4.10525" data-paper-data="{&quot;origPos&quot;:null}" fill="none"/><path d="M399.26791,337.52033l-2.97052,-3.2498" data-paper-data="{&quot;origPos&quot;:null}" fill="none"/><path d="M399.42207,333.24777l-3.17836,-2.24352" data-paper-data="{&quot;origPos&quot;:null}" fill="none"/><path d="M396.64306,326.04827l2.50113,1.99607" data-paper-data="{&quot;origPos&quot;:null}" fill="none"/></g><g data-paper-data="{&quot;origPos&quot;:null,&quot;origRot&quot;:0}" stroke="#665415"><path d="M445.60428,311.93957l-4.66158,2.14855l-5.32647,-0.70354l-3.39537,-1.27778l-3.77887,-4.89128l-4.67409,-4.79453l-9.25231,-8.68568l4.80852,0.94227l9.56598,-0.30289l6.4072,-1.058l6.59895,0.74877l3.0181,1.1358l3.35055,2.56185l1.656,3.65874l-0.65239,4.09098l11.31786,4.25922l-1.87379,6.23323l-10.85098,-6.68542z" data-paper-data="{&quot;origPos&quot;:null}" fill="#9fa827"/><path d="M449.34251,309.9639l-27.35712,-13.4175l27.91488,9.11746" data-paper-data="{&quot;origPos&quot;:null}" fill="none"/><path d="M445.48565,303.6556l-1.85672,-5.20868" data-paper-data="{&quot;origPos&quot;:null}" fill="none"/><path d="M439.36776,297.88409l1.89258,4.18141" data-paper-data="{&quot;origPos&quot;:null}" fill="none"/><path d="M436.01201,297.66198l1.70331,3.76327" data-paper-data="{&quot;origPos&quot;:null}" fill="none"/><path d="M431.9401,297.51728l1.24809,2.20428" data-paper-data="{&quot;origPos&quot;:null}" fill="none"/><path d="M427.48965,296.53629l0.94629,2.09071l-3.54,2.13699" data-paper-data="{&quot;origPos&quot;:null}" fill="none"/><path d="M438.74834,309.79314l5.46341,-1.76009" data-paper-data="{&quot;origPos&quot;:null}" fill="none"/><path d="M440.09895,306.13838l-4.22033,1.18713" data-paper-data="{&quot;origPos&quot;:null}" fill="none"/><path d="M436.40055,304.05273l-3.42745,1.83243" data-paper-data="{&quot;origPos&quot;:null}" fill="none"/><path d="M431.68415,301.9309l-2.90054,1.33689" data-paper-data="{&quot;origPos&quot;:null}" fill="none"/></g><g data-paper-data="{&quot;origPos&quot;:null,&quot;origRot&quot;:0}" stroke="#674116"><path d="M455.94822,344.44136l-4.89281,-1.53832l-3.50227,-4.11043l-1.6842,-3.23789l0.41937,-6.18766l-0.31141,-6.71836l-1.14869,-12.69927l2.95862,3.9395l7.32554,6.21527l5.47197,3.52599l4.42018,5.00088l1.49707,2.87812l0.80181,4.16417l-1.18567,3.84024l-3.19088,2.60793l5.61399,10.79295l-5.51708,3.38121l-3.66204,-12.28576z" fill="#a87927"/><path d="M460.03896,345.48677l-11.50552,-28.41399l14.76413,25.58661" fill="none"/><path d="M461.3372,338.19114l2.06097,-5.12986" fill="none"/><path d="M459.24131,334.16178l1.35504,-4.38884" fill="none"/><path d="M458.24366,327.34804l-1.21954,3.94996" fill="none"/><path d="M454.77853,326.98081l0.52781,-2.48223" fill="none"/><path d="M452.64002,320.77135l-0.67752,2.19442l-4.04976,-0.79178" fill="none"/><path d="M457.49394,340.59396l-5.23321,-2.36758" fill="none"/><path d="M455.68328,336.41353l-3.92846,-1.95735" fill="none"/><path d="M454.30752,332.36982l-3.76455,-0.94284" fill="none"/><path d="M452.19743,327.61376l-3.04442,-0.95718" fill="none"/></g><g data-paper-data="{&quot;origPos&quot;:null,&quot;origRot&quot;:0}" stroke="#661515"><path d="M419.49883,346.34251l-4.79501,-1.8252l-3.25741,-4.31057l-1.49317,-3.33197l0.7782,-6.1522l0.07949,-6.72522l-0.40883,-12.74539l2.72463,4.10778l6.95181,6.63804l5.25766,3.8437l4.122,5.25381l1.32726,2.96175l0.55845,4.20445l-1.40675,3.76346l-3.3369,2.41465l4.97721,11.10657l-5.70406,3.04893l-2.94187,-12.48129z" data-paper-data="{&quot;origPos&quot;:null}" fill="#a85a27"/><path d="M423.52177,347.62816l-9.83472,-29.04588l13.25201,26.41618" data-paper-data="{&quot;origPos&quot;:null}" fill="none"/><path d="M425.24169,340.4219l2.3555,-4.99909" data-paper-data="{&quot;origPos&quot;:null}" fill="none"/><path d="M424.99125,331.97435l-1.60773,4.30109" data-paper-data="{&quot;origPos&quot;:null}" fill="none"/><path d="M421.33657,333.2854l1.44694,-3.87101" data-paper-data="{&quot;origPos&quot;:null}" fill="none"/><path d="M419.34566,328.84277l0.67114,-2.44673" data-paper-data="{&quot;origPos&quot;:null}" fill="none"/><path d="M417.57166,322.51747l-0.80386,2.15056l-3.99678,-1.03004" data-paper-data="{&quot;origPos&quot;:null}" fill="none"/><path d="M416.17881,339.92003l5.08663,2.67315" data-paper-data="{&quot;origPos&quot;:null}" fill="none"/><path d="M415.89281,336.12636l3.80796,2.18644" data-paper-data="{&quot;origPos&quot;:null}" fill="none"/><path d="M418.56236,334.19465l-3.70329,-1.16397" data-paper-data="{&quot;origPos&quot;:null}" fill="none"/><path d="M413.74867,328.18625l2.98357,1.13566" data-paper-data="{&quot;origPos&quot;:null}" fill="none"/></g><g data-paper-data="{&quot;origPos&quot;:null,&quot;origRot&quot;:0}" stroke="#665415"><path d="M473.87604,332.30447l-3.87731,-3.38169l-1.58476,-5.17965l-0.26309,-3.64718l2.83261,-5.50414l2.37257,-6.28512l3.97121,-12.10601l1.15395,4.80391l4.25732,8.64984l3.62189,5.4374l2.07404,6.36588l0.23385,3.24193l-0.91241,4.14092l-2.60644,3.04318l-3.95733,1.10548l0.87698,12.15726l-6.39605,0.87723l1.50328,-12.73949z" data-paper-data="{&quot;origPos&quot;:null}" fill="#9fa827"/><path d="M477.213,334.91107l0.69309,-30.6866l3.41317,29.40723" data-paper-data="{&quot;origPos&quot;:null}" fill="none"/><path d="M485.20893,324.87228l-3.91918,3.87292" data-paper-data="{&quot;origPos&quot;:null}" fill="none"/><path d="M483.9411,320.72856l-2.97878,3.47793" data-paper-data="{&quot;origPos&quot;:null}" fill="none"/><path d="M482.74346,317.55743l-2.6809,3.13013" data-paper-data="{&quot;origPos&quot;:null}" fill="none"/><path d="M479.71177,315.82464l1.46601,-2.06315" data-paper-data="{&quot;origPos&quot;:null}" fill="none"/><path d="M480.20784,309.26997l-1.48939,1.73896l-3.39971,-2.35755" data-paper-data="{&quot;origPos&quot;:null}" fill="none"/><path d="M472.95413,325.12066l3.86131,4.27912" data-paper-data="{&quot;origPos&quot;:null}" fill="none"/><path d="M476.8093,324.83747l-2.82735,-3.37734" data-paper-data="{&quot;origPos&quot;:null}" fill="none"/><path d="M477.14782,320.57575l-3.07845,-2.38116" data-paper-data="{&quot;origPos&quot;:null}" fill="none"/><path d="M474.68233,313.26089l2.41255,2.10416" data-paper-data="{&quot;origPos&quot;:null}" fill="none"/></g><g data-paper-data="{&quot;origPos&quot;:null,&quot;origRot&quot;:0}" stroke="#674116"><path d="M448.86479,358.50603l-4.3532,2.72895l-5.3719,-0.01477l-3.52875,-0.83197l-4.36421,-4.36702l-5.23999,-4.15624l-10.27112,-7.42873l4.8882,0.31799l9.45027,-1.5272l6.22201,-1.87108l6.63975,-0.10357l3.13666,0.73954l3.64601,2.1114l2.10334,3.4167l-0.13192,4.14148l11.76248,2.77327l-1.07363,6.42297l-11.60492,-5.23965z" fill="#a87927"/><path d="M452.32388,356.067l-28.82504,-9.80039l28.83676,5.46367" fill="none"/><path d="M447.70386,350.30444l-2.49762,-4.92834" fill="none"/><path d="M440.90878,345.36429l2.4038,3.90481" fill="none"/><path d="M439.71566,349.08866l-2.16342,-3.51432" fill="none"/><path d="M435.0107,347.97935l-1.51558,-2.02635" fill="none"/><path d="M428.95722,345.5507l1.20191,1.9524l-3.24219,2.57364" fill="none"/><path d="M441.7941,357.25623l5.19746,-2.44645" fill="none"/><path d="M438.63692,355.17663l4.0366,-1.71874" fill="none"/><path d="M435.57353,354.12056l3.16889,-2.25711" fill="none"/><path d="M433.79707,350.36367l-2.70865,1.698" fill="none"/></g><g data-paper-data="{&quot;origPos&quot;:null,&quot;origRot&quot;:0}" stroke="#674116"><path d="M473.37346,320.25846l2.76651,4.35327l0.06249,5.42055l-0.77371,3.5725l-4.26444,4.46628l-4.04301,5.34692l-7.21335,10.47038l0.2449,-4.93684l-1.64892,-9.51357l-1.94331,-6.25124l-0.19794,-6.69813l0.68775,-3.17557l2.03975,-3.7092l3.35529,-2.17136l4.1055,0.07364l2.57904,-11.90836l6.37968,0.99108l-5.02514,11.78479z" fill="#dea433"/><path d="M470.90706,316.80317l-9.29694,29.22567l4.99971,-29.17522" fill="none"/><path d="M465.26352,321.54757l-4.84744,2.5909" fill="none"/><path d="M464.30069,325.99335l-3.83459,2.48155" fill="none"/><path d="M464.17355,329.62527l-3.45114,2.23339" fill="none"/><path d="M463.14194,334.38862l-1.98607,1.55833" fill="none"/><path d="M460.82237,340.53153l1.9173,-1.24077l2.59667,3.23447" fill="none"/><path d="M469.73789,322.20163l2.49871,5.2092" fill="none"/><path d="M470.22133,330.62634l-1.76097,-4.04833" fill="none"/><path d="M466.93692,330.56744l2.28199,3.16506" fill="none"/><path d="M465.52187,335.57894l1.72139,2.70871" fill="none"/></g><g data-paper-data="{&quot;origPos&quot;:null,&quot;origRot&quot;:0}" stroke="#665415"><path d="M444.98319,340.65312l4.90612,-1.49457l5.18381,1.42196l3.19359,1.72815l3.09072,5.36084l3.99069,5.3868l8.0071,9.86542l-4.63868,-1.58802l-9.51908,-1.00163l-6.49005,0.17642l-6.43862,-1.63994l-2.83875,-1.53613l-2.9776,-2.9944l-1.15194,-3.85067l1.19312,-3.96483l-10.6453,-5.76047l2.68965,-5.9213l9.85846,8.10098z" data-paper-data="{&quot;origPos&quot;:null}" fill="#ded633"/><path d="M441.0151,342.10204l25.31422,17.01777l-26.4415,-12.83291" data-paper-data="{&quot;origPos&quot;:null}" fill="none"/><path d="M445.13741,354.29134l-1.14371,-5.41377" data-paper-data="{&quot;origPos&quot;:null}" fill="none"/><path d="M449.28445,355.42891l-1.31651,-4.40077" data-paper-data="{&quot;origPos&quot;:null}" fill="none"/><path d="M451.39501,352.14495l1.18486,3.96069" data-paper-data="{&quot;origPos&quot;:null}" fill="none"/><path d="M455.65314,354.44914l0.94213,2.35399" data-paper-data="{&quot;origPos&quot;:null}" fill="none"/><path d="M460.87397,358.38079l-0.65825,-2.20038l3.79324,-1.63574" data-paper-data="{&quot;origPos&quot;:null}" fill="none"/><path d="M451.48969,343.71293l-5.64872,1.00053" data-paper-data="{&quot;origPos&quot;:null}" fill="none"/><path d="M449.66298,347.1505l4.34042,-0.60197" data-paper-data="{&quot;origPos&quot;:null}" fill="none"/><path d="M456.68991,348.37112l-3.64102,1.34927" data-paper-data="{&quot;origPos&quot;:null}" fill="none"/><path d="M460.49137,351.5347l-3.0527,0.92995" data-paper-data="{&quot;origPos&quot;:null}" fill="none"/></g><g data-paper-data="{&quot;origPos&quot;:null,&quot;origRot&quot;:0}" stroke="#661515"><path d="M450.32455,323.75556l-0.52274,5.14457l-3.29693,4.27987l-2.81041,2.30853l-6.09296,0.8136l-6.46331,1.64173l-12.10597,3.65719l3.23885,-3.70827l4.58223,-8.47909l2.33828,-6.11196l3.97954,-5.3645l2.49814,-2.05203l3.88522,-1.61967l3.96516,0.41029l3.16638,2.63816l9.36803,-7.69508l4.37922,4.78535l-11.20539,6.06089z" data-paper-data="{&quot;origPos&quot;:null}" fill="#de7633"/><path d="M450.52781,319.50214l-25.31265,17.02014l21.9197,-19.68174" data-paper-data="{&quot;origPos&quot;:null}" fill="none"/><path d="M443.18428,319.66647l-5.39146,-1.01997" data-paper-data="{&quot;origPos&quot;:null}" fill="none"/><path d="M439.6869,322.53931l-4.53161,-0.46892" data-paper-data="{&quot;origPos&quot;:null}" fill="none"/><path d="M433.26718,324.87869l4.07846,0.42202" data-paper-data="{&quot;origPos&quot;:null}" fill="none"/><path d="M433.59842,328.37874l-2.51562,-0.02925" data-paper-data="{&quot;origPos&quot;:null}" fill="none"/><path d="M427.99209,331.7265l2.2658,0.23445l0.03496,4.16253" data-paper-data="{&quot;origPos&quot;:null}" fill="none"/><path d="M446.28095,322.99057l-1.26057,5.64584" data-paper-data="{&quot;origPos&quot;:null}" fill="none"/><path d="M442.58022,325.61131l-1.12117,4.27396" data-paper-data="{&quot;origPos&quot;:null}" fill="none"/><path d="M438.92593,327.77475l-0.16838,3.91045" data-paper-data="{&quot;origPos&quot;:null}" fill="none"/><path d="M434.40031,334.00694l0.32525,-3.20106" data-paper-data="{&quot;origPos&quot;:null}" fill="none"/></g><g data-paper-data="{&quot;origPos&quot;:null,&quot;origRot&quot;:0}" stroke="#674116"><path d="M447.97532,294.06832l4.67812,-2.11164l5.32085,0.74565l3.38534,1.30459l3.74077,4.92102l4.63671,4.83134l9.18457,8.75859l-4.80106,-0.98028l-9.56803,0.22724l-6.41522,1.00729l-6.59294,-0.80094l-3.00918,-1.15963l-3.33055,-2.58826l-1.62754,-3.67173l0.68414,-4.08569l-11.28443,-4.34861l1.92214,-6.2182l10.79871,6.77102z" fill="#dea433"/><path d="M444.22187,296.01435l27.25209,13.63345l-27.84322,-9.33794" fill="none"/><path d="M449.84581,307.57617l-1.81621,-5.2232" fill="none"/><path d="M454.10247,308.17269l-1.86003,-4.19625" fill="none"/><path d="M455.78236,304.6447l1.67402,3.77663" fill="none"/><path d="M461.52708,308.59823l-1.23094,-2.21409" fill="none"/><path d="M465.96975,309.61438l-0.93002,-2.09813l3.55649,-2.10893" fill="none"/><path d="M449.33747,297.98572l5.47691,-1.71682" fill="none"/><path d="M457.66482,298.75914l-4.22941,1.15373" fill="none"/><path d="M460.55908,300.22243l-3.44157,1.80527" fill="none"/><path d="M464.72811,302.87286l-2.91083,1.3139" fill="none"/></g><g data-paper-data="{&quot;origPos&quot;:null,&quot;origRot&quot;:0}" stroke="#674116"><path d="M385.69356,309.48417l4.27348,2.85437l2.22722,4.93304l0.72246,3.58342l-2.11293,5.82409l-1.55781,6.5394l-2.40681,12.51864l-1.75239,-4.61589l-5.31703,-8.03042l-4.28029,-4.92617l-2.8626,-6.0465l-0.64218,-3.18526l0.38094,-4.22459l2.20001,-3.35415l3.78506,-1.60636l-2.40818,-11.94473l6.23267,-1.69424l0.12111,12.82893z" fill="#a87927"/><path d="M382.05409,307.32891l3.19569,30.5247l-7.10645,-28.72667" fill="none"/><path d="M375.39395,318.31587l3.39702,-4.34623" fill="none"/><path d="M377.17574,322.2623l2.51429,-3.8333" fill="none"/><path d="M378.76486,325.25314l2.26287,-3.44997" fill="none"/><path d="M381.991,326.58107l-1.19293,2.23518" fill="none"/><path d="M382.32842,333.14601l1.25714,-1.91665l3.67022,1.90017" fill="none"/><path d="M387.517,316.49038l-4.37118,-3.74653" fill="none"/><path d="M383.72922,317.26802l3.23157,2.98535" fill="none"/><path d="M383.93276,321.53848l3.35457,1.96497" fill="none"/><path d="M387.30367,328.47575l-2.65907,-1.77606" fill="none"/></g><g data-paper-data="{&quot;origPos&quot;:null,&quot;origRot&quot;:0}" stroke="#665415"><path d="M372.18357,318.74155l2.78879,4.33877l0.0903,5.42014l-0.75539,3.5765l-4.24148,4.48848l-4.01554,5.36795l-7.15957,10.50791l0.21958,-4.93806l-1.69768,-9.50483l-1.97534,-6.24102l-0.2323,-6.69701l0.67146,-3.1791l2.0207,-3.7198l3.34411,-2.18884l4.10583,0.05219l2.51792,-11.92167l6.38469,0.95776l-4.96465,11.81086z" data-paper-data="{&quot;origPos&quot;:null}" fill="#9fa827"/><path d="M369.69947,315.2992l-9.14696,29.27381l4.85005,-29.20093" data-paper-data="{&quot;origPos&quot;:null}" fill="none"/><path d="M364.08033,320.07298l-4.83408,2.61618" data-paper-data="{&quot;origPos&quot;:null}" fill="none"/><path d="M359.31849,327.02527l3.82182,-2.50153" data-paper-data="{&quot;origPos&quot;:null}" fill="none"/><path d="M363.03179,328.15627l-3.43965,2.25138" data-paper-data="{&quot;origPos&quot;:null}" fill="none"/><path d="M360.04656,334.49362l1.97806,-1.56867" data-paper-data="{&quot;origPos&quot;:null}" fill="none"/><path d="M359.7366,339.07989l1.91092,-1.25077l2.61321,3.22086" data-paper-data="{&quot;origPos&quot;:null}" fill="none"/><path d="M371.08341,325.89976l-2.5254,-5.19608" data-paper-data="{&quot;origPos&quot;:null}" fill="none"/><path d="M367.30294,325.08668l1.78171,4.03908" data-paper-data="{&quot;origPos&quot;:null}" fill="none"/><path d="M365.79998,329.084l2.29818,3.15311" data-paper-data="{&quot;origPos&quot;:null}" fill="none"/><path d="M364.41062,334.10283l1.73526,2.69968" data-paper-data="{&quot;origPos&quot;:null}" fill="none"/></g><g data-paper-data="{&quot;origPos&quot;:null,&quot;origRot&quot;:0}" stroke="#674116"><path d="M406.85181,299.53528l4.93471,-1.39544l5.15464,1.52612l3.15877,1.79213l2.98404,5.42205l3.88333,5.46612l7.81033,10.02477l-4.60635,-1.68117l-9.49736,-1.1932l-6.49224,0.04564l-6.40489,-1.76931l-2.80779,-1.59301l-2.91777,-3.05379l-1.07554,-3.87311l1.27132,-3.94l-10.52922,-5.9738l2.80625,-5.86592l9.69623,8.29796z" fill="#a87927"/><path d="M402.85584,300.90395l24.97251,17.52436l-26.18237,-13.36302" fill="none"/><path d="M406.73621,313.17388l-1.03638,-5.43573" fill="none"/><path d="M409.63073,309.96835l1.22918,4.42641" fill="none"/><path d="M413.03501,311.15398l1.10626,3.98377" fill="none"/><path d="M418.14208,315.916l-0.89537,-2.3725" fill="none"/><path d="M422.38872,317.57954l-0.61459,-2.21321l3.82485,-1.55899" fill="none"/><path d="M407.6291,303.61207l5.66738,-0.88653" fill="none"/><path d="M415.7536,305.61121l-4.35145,0.51442" fill="none"/><path d="M418.40353,307.48757l-3.66697,1.27565" fill="none"/><path d="M419.07117,311.59537l3.07047,-0.86827" fill="none"/></g><g data-paper-data="{&quot;origPos&quot;:null,&quot;origRot&quot;:0}" stroke="#665415"><path d="M408.48849,316.33254l-4.87626,1.59096l-5.21033,-1.31954l-3.22643,-1.6649l-3.19386,-5.29892l-4.09417,-5.30714l-8.19645,-9.70576l4.66853,1.49631l9.53665,0.81388l6.48541,-0.30427l6.46912,1.51275l2.86792,1.4799l3.03498,2.93516l1.22623,3.82725l-1.11617,3.98759l10.75475,5.54962l-2.57455,5.97317l-10.01334,-7.90517z" data-paper-data="{&quot;origPos&quot;:null}" fill="#ded633"/><path d="M412.4278,314.80571l-25.63868,-16.51572l26.68478,12.30944" data-paper-data="{&quot;origPos&quot;:null}" fill="none"/><path d="M409.31865,308.09017l-1.24825,-5.3902" data-paper-data="{&quot;origPos&quot;:null}" fill="none"/><path d="M405.30355,306.01831l-1.4014,-4.37398" data-paper-data="{&quot;origPos&quot;:null}" fill="none"/><path d="M401.85552,304.96925l-1.26128,-3.93659" data-paper-data="{&quot;origPos&quot;:null}" fill="none"/><path d="M397.55362,302.74941l-0.98749,-2.33499" data-paper-data="{&quot;origPos&quot;:null}" fill="none"/><path d="M392.25773,298.92138l0.70071,2.187l-3.76087,1.71017" data-paper-data="{&quot;origPos&quot;:null}" fill="none"/><path d="M407.55231,312.28988l-5.62828,1.11165" data-paper-data="{&quot;origPos&quot;:null}" fill="none"/><path d="M403.68386,309.92863l-4.32794,0.68737" data-paper-data="{&quot;origPos&quot;:null}" fill="none"/><path d="M400.24886,307.42593l-3.61421,1.42077" data-paper-data="{&quot;origPos&quot;:null}" fill="none"/><path d="M392.77269,305.75863l3.03413,-0.98994" data-paper-data="{&quot;origPos&quot;:null}" fill="none"/></g><g data-paper-data="{&quot;origPos&quot;:null,&quot;origRot&quot;:0}" stroke="#661515"><path d="M393.26974,337.98801l-1.2169,-5.02364l1.68399,-5.14766l1.88066,-3.12581l5.4699,-2.82811l5.54365,-3.73362l10.18999,-7.54164l-1.8192,4.58949l-1.49961,9.53869l-0.17208,6.54932l-1.96671,6.40047l-1.67169,2.7785l-3.12214,2.84052l-3.87195,0.9551l-3.85967,-1.41405l-6.26886,10.41938l-5.71574,-3.02658l8.54287,-9.50148z" data-paper-data="{&quot;origPos&quot;:null}" fill="#de7633"/><path d="M394.49155,342.06397l18.19201,-24.59964l-14.11109,25.95912" data-paper-data="{&quot;origPos&quot;:null}" fill="none"/><path d="M401.35535,339.4244l5.41827,-0.86332" data-paper-data="{&quot;origPos&quot;:null}" fill="none"/><path d="M408.12081,334.44295l-4.42508,1.09154" data-paper-data="{&quot;origPos&quot;:null}" fill="none"/><path d="M404.98391,332.14075l3.98258,-0.9824" data-paper-data="{&quot;origPos&quot;:null}" fill="none"/><path d="M407.49147,327.973l2.37971,-0.82362" data-paper-data="{&quot;origPos&quot;:null}" fill="none"/><path d="M411.66088,322.92208l-2.21255,0.54578l-1.41602,-3.90974" data-paper-data="{&quot;origPos&quot;:null}" fill="none"/><path d="M397.33343,337.34052l-0.68835,-5.74554" data-paper-data="{&quot;origPos&quot;:null}" fill="none"/><path d="M399.94914,333.61931l-0.36384,-4.4059" data-paper-data="{&quot;origPos&quot;:null}" fill="none"/><path d="M401.53235,326.6036l1.14069,3.74105" data-paper-data="{&quot;origPos&quot;:null}" fill="none"/><path d="M405.62309,326.06775l-0.75718,-3.12581" data-paper-data="{&quot;origPos&quot;:null}" fill="none"/></g><g data-paper-data="{&quot;origPos&quot;:null,&quot;origRot&quot;:0}" stroke="#674116"><path d="M419.56176,358.46346l-5.0289,-0.99579l-3.92188,-3.70448l-2.02105,-3.03528l-0.24563,-6.19717l-1.02895,-6.64506l-2.50176,-12.49966l3.36313,3.59383l7.94815,5.38011l5.81748,2.90869l4.92978,4.48963l1.79647,2.69804l1.243,4.05236l-0.76754,3.94705l-2.89294,2.94057l6.73679,10.11763l-5.12274,3.96297l-4.95612,-11.81452z" fill="#dea433"/><path d="M423.74048,359.05671l-14.48061,-26.99308l17.4174,23.82694" fill="none"/><path d="M424.24992,351.66224l1.4996,-5.32456" fill="none"/><path d="M422.61202,343.3741l-0.87717,4.5109" fill="none"/><path d="M420.01345,341.21993l-0.78945,4.05981" fill="none"/><path d="M416.78823,338.70744l-0.25894,2.52524" fill="none"/><path d="M413.73842,335.29277l-0.43858,2.25545l-4.11082,-0.34557" fill="none"/><path d="M420.68647,354.47005l-5.45608,-1.78309" fill="none"/><path d="M414.32373,348.99398l4.11504,1.51754" fill="none"/><path d="M412.79462,346.11466l3.84345,0.52685" fill="none"/><path d="M410.90199,341.52375l3.12908,0.61962" fill="none"/></g><g data-paper-data="{&quot;origPos&quot;:null,&quot;origRot&quot;:0}" stroke="#674116"><path d="M389.89624,361.66631l-5.07611,0.71118l-4.90361,-2.21364l-2.89044,-2.20562l-2.23222,-5.77859l-3.11741,-5.94464l-6.39934,-10.99605l4.33962,2.29266l9.25116,2.47472l6.43904,0.83826l6.10995,2.62475l2.56927,1.96055l2.48302,3.42295l0.54814,3.9841l-1.78623,3.73101l9.63474,7.35207l-3.5645,5.43047l-8.49878,-9.54165z" fill="#dea433"/><path d="M394.0386,360.85391l-22.40256,-20.7626l24.15746,16.80392" fill="none"/><path d="M391.83337,348.16802l0.30051,5.52711" fill="none"/><path d="M387.91048,346.39713l0.62644,4.55325" fill="none"/><path d="M385.32215,349.31231l-0.56379,-4.09792" fill="none"/><path d="M381.46826,346.37148l-0.57015,-2.47268" fill="none"/><path d="M376.91258,341.67258l0.31321,2.27662l-3.99824,1.02426" fill="none"/><path d="M389.67083,357.52097l-5.73409,0.1072" fill="none"/><path d="M386.26816,354.51693l-4.38046,-0.08243" fill="none"/><path d="M379.51273,352.21467l3.80394,-0.76499" fill="none"/><path d="M379.40012,348.05353l-3.15845,0.4425" fill="none"/></g><g data-paper-data="{&quot;origPos&quot;:null,&quot;origRot&quot;:0}" stroke="#665415"><path d="M348.30098,313.63579l-4.56436,2.35151l-5.3518,-0.46864l-3.44733,-1.12725l-3.98651,-4.72046l-4.87671,-4.58442l-9.6186,-8.27054l4.84464,0.72992l9.54381,-0.72328l6.35542,-1.33875l6.62502,0.45786l3.06428,1.002l3.458,2.41206l1.81243,3.58244l-0.4751,4.11579l11.49104,3.75745l-1.60283,6.30971l-11.12937,-6.20189z" data-paper-data="{&quot;origPos&quot;:null}" fill="#9fa827"/><path d="M351.95034,311.4976l-27.91058,-12.2017l28.28211,7.88121" data-paper-data="{&quot;origPos&quot;:null}" fill="none"/><path d="M347.82474,305.3649l-2.0799,-5.12208" data-paper-data="{&quot;origPos&quot;:null}" fill="none"/><path d="M341.46341,299.86792l2.07135,4.09421" data-paper-data="{&quot;origPos&quot;:null}" fill="none"/><path d="M338.10125,299.79359l1.86422,3.6848" data-paper-data="{&quot;origPos&quot;:null}" fill="none"/><path d="M334.02696,299.82809l1.34209,2.14731" data-paper-data="{&quot;origPos&quot;:null}" fill="none"/><path d="M329.53837,299.04376l1.03567,2.0471l-3.44435,2.29064" data-paper-data="{&quot;origPos&quot;:null}" fill="none"/><path d="M346.74107,309.79422l-5.38221,1.99867" data-paper-data="{&quot;origPos&quot;:null}" fill="none"/><path d="M338.38531,309.4538l4.16505,-1.37159" data-paper-data="{&quot;origPos&quot;:null}" fill="none"/><path d="M335.42033,308.1426l3.34506,-1.98142" data-paper-data="{&quot;origPos&quot;:null}" fill="none"/><path d="M333.96185,304.24878l-2.84005,1.46317" data-paper-data="{&quot;origPos&quot;:null}" fill="none"/></g><g data-paper-data="{&quot;origPos&quot;:null,&quot;origRot&quot;:0}" stroke="#661515"><path d="M349.24668,335.73907l-3.30641,-3.95123l-0.76375,-5.36583l0.30455,-3.6439l3.64964,-4.99022l3.3161,-5.83412l5.79593,-11.33166l0.39637,4.92682l2.8665,9.21462l2.73598,5.94145l1.06345,6.61463l-0.27071,3.23901l-1.54203,3.94633l-3.04539,2.5951l-4.07986,0.46828l-1.01516,12.14632l-6.45332,-0.14149l3.45629,-12.3463z" data-paper-data="{&quot;origPos&quot;:null}" fill="#a85a27"/><path d="M352.13931,338.83956l5.43344,-30.20089l-1.17957,29.58432" data-paper-data="{&quot;origPos&quot;:null}" fill="none"/><path d="M357.12023,333.39179l4.47044,-3.20779" data-paper-data="{&quot;origPos&quot;:null}" fill="none"/><path d="M357.49923,328.85715l3.48045,-2.96583" data-paper-data="{&quot;origPos&quot;:null}" fill="none"/><path d="M360.28745,322.57035l-3.1324,2.66926" data-paper-data="{&quot;origPos&quot;:null}" fill="none"/><path d="M359.32842,318.57427l-1.76729,1.80681" data-paper-data="{&quot;origPos&quot;:null}" fill="none"/><path d="M359.06546,313.985l-1.74023,1.48292l-2.99317,-2.8644" data-paper-data="{&quot;origPos&quot;:null}" fill="none"/><path d="M352.59951,333.33323l-3.15172,-4.83512" data-paper-data="{&quot;origPos&quot;:null}" fill="none"/><path d="M351.02945,325.04447l2.27001,3.78145" data-paper-data="{&quot;origPos&quot;:null}" fill="none"/><path d="M354.29334,324.66984l-2.6722,-2.83708" data-paper-data="{&quot;origPos&quot;:null}" fill="none"/><path d="M355.04745,319.51474l-2.05732,-2.45854" data-paper-data="{&quot;origPos&quot;:null}" fill="none"/></g><g data-paper-data="{&quot;origPos&quot;:null,&quot;origRot&quot;:0}" stroke="#661515"><path d="M319.85389,351.826l-4.86929,-1.61259l-3.44047,-4.16323l-1.63564,-3.26315l0.51178,-6.18058l-0.21102,-6.72233l-0.95884,-12.7153l2.89943,3.98406l7.23187,6.32602l5.41867,3.60883l4.34497,5.06755l1.45391,2.90057l0.73948,4.1759l-1.24289,3.82175l-3.22946,2.5591l5.45212,10.87713l-5.56697,3.29688l-3.47809,-12.34006z" data-paper-data="{&quot;origPos&quot;:null}" fill="#a85a27"/><path d="M323.92854,352.93352l-11.07971,-28.58579l14.3802,25.80831" data-paper-data="{&quot;origPos&quot;:null}" fill="none"/><path d="M325.33562,345.65847l2.13736,-5.09793" data-paper-data="{&quot;origPos&quot;:null}" fill="none"/><path d="M324.72063,337.22995l-1.42045,4.36771" data-paper-data="{&quot;origPos&quot;:null}" fill="none"/><path d="M321.126,338.70048l1.2784,-3.93096" data-paper-data="{&quot;origPos&quot;:null}" fill="none"/><path d="M319.51001,331.87571l-0.56484,2.47392" data-paper-data="{&quot;origPos&quot;:null}" fill="none"/><path d="M316.89967,328.10834l-0.71022,2.18387l-4.03746,-0.8533" data-paper-data="{&quot;origPos&quot;:null}" fill="none"/><path d="M321.45692,348.00255l-5.19724,-2.44693" data-paper-data="{&quot;origPos&quot;:null}" fill="none"/><path d="M319.70889,343.79504l-3.89876,-2.0169" data-paper-data="{&quot;origPos&quot;:null}" fill="none"/><path d="M318.3937,339.73087l-3.75004,-1.00001" data-paper-data="{&quot;origPos&quot;:null}" fill="none"/><path d="M316.35489,334.94324l-3.02978,-1.00338" data-paper-data="{&quot;origPos&quot;:null}" fill="none"/></g><g data-paper-data="{&quot;origPos&quot;:null,&quot;origRot&quot;:0}" stroke="#674116"><path d="M353.56936,360.01463l-4.23122,2.9178l-5.36743,0.22148l-3.56133,-0.676l-4.54865,-4.17095l-5.4145,-3.92185l-10.58216,-6.96999l4.89729,0.10272l9.37535,-1.94133l6.13529,-2.14293l6.62897,-0.39545l3.16562,0.6009l3.73372,1.94905l2.24889,3.32096l0.04706,4.14335l11.87107,2.25337l-0.79523,6.46408l-11.82017,-4.72433z" fill="#a87927"/><path d="M356.91987,357.42579l-29.22089,-8.52347l29.04532,4.19036" fill="none"/><path d="M349.3473,347.05806l2.70807,4.81382" fill="none"/><path d="M347.62352,351.03064l-2.57016,-3.79539" fill="none"/><path d="M341.70913,347.59269l2.31312,3.41585" fill="none"/><path d="M339.27383,350.1072l-1.60164,-1.95778" fill="none"/><path d="M333.12122,347.94706l1.28508,1.89769l-3.12796,2.71377" fill="none"/><path d="M346.4514,359.07696l5.08687,-2.67269" fill="none"/><path d="M343.20744,357.13817l3.95854,-1.89462" fill="none"/><path d="M343.16976,353.8235l-3.0684,2.39432" fill="none"/><path d="M335.53158,354.35812l2.63276,-1.81551" fill="none"/></g><g data-paper-data="{&quot;origPos&quot;:null,&quot;origRot&quot;:0}" stroke="#674116"><path d="M387.79912,314.72559l2.95188,4.22747l0.29652,5.41264l-0.6187,3.60314l-4.06751,4.64957l-3.80826,5.51963l-6.75434,10.77765l0.03147,-4.94293l-2.05821,-9.43201l-2.21142,-6.15985l-0.48702,-6.68306l0.54995,-3.20279l1.87762,-3.79537l3.25833,-2.31685l4.10478,-0.10698l2.06232,-12.01047l6.41643,0.70959l-4.51144,11.99458z" fill="#dea433"/><path d="M385.18582,311.38205l-8.02599,29.60675l3.73502,-29.36737" fill="none"/><path d="M379.75254,316.37012l-4.73093,2.8016" fill="none"/><path d="M378.9826,320.85401l-3.72379,2.64783" fill="none"/><path d="M375.66103,326.87112l3.35141,-2.38304" fill="none"/><path d="M378.1875,329.29227l-1.9169,1.64418" fill="none"/><path d="M376.13545,335.53135l1.8619,-1.32391l2.73388,3.11719" fill="none"/><path d="M386.97222,321.92117l-2.7213,-5.09438" fill="none"/><path d="M383.1636,321.2552l1.93413,3.96704" fill="none"/><path d="M384.23039,328.36954l-2.4165,-3.06171" fill="none"/><path d="M380.61659,330.3768l1.83673,2.63043" fill="none"/></g><g data-paper-data="{&quot;origPos&quot;:null,&quot;origRot&quot;:0}" stroke="#665415"><path d="M348.92047,342.34938l4.83692,-1.70891l5.24028,1.19265l3.26519,1.58607l3.31929,5.21983l4.21952,5.20619l8.42553,9.50392l-4.70285,-1.38252l-9.55328,-0.58207l-6.47627,0.46166l-6.50331,-1.35523l-2.90239,-1.40983l-3.10409,-2.86061l-1.31714,-3.79636l1.02077,-4.01353l-10.88396,-5.28687l2.43137,-6.03395l10.19893,7.65975z" data-paper-data="{&quot;origPos&quot;:null}" fill="#ded633"/><path d="M345.01873,343.97142l26.02508,15.88837l-26.97057,-11.65792" data-paper-data="{&quot;origPos&quot;:null}" fill="none"/><path d="M349.66351,355.96785l-1.37642,-5.35833" data-paper-data="{&quot;origPos&quot;:null}" fill="none"/><path d="M353.85574,356.92197l-1.5053,-4.33869" data-paper-data="{&quot;origPos&quot;:null}" fill="none"/><path d="M355.82248,353.54832l1.35477,3.90483" data-paper-data="{&quot;origPos&quot;:null}" fill="none"/><path d="M361.21896,357.97339l-1.04288,-2.31033" data-paper-data="{&quot;origPos&quot;:null}" fill="none"/><path d="M365.56171,359.36138l-0.75265,-2.16934l3.719,-1.801" data-paper-data="{&quot;origPos&quot;:null}" fill="none"/><path d="M349.95278,346.36813l5.60014,-1.24798" data-paper-data="{&quot;origPos&quot;:null}" fill="none"/><path d="M353.87641,348.63478l4.31031,-0.79227" data-paper-data="{&quot;origPos&quot;:null}" fill="none"/><path d="M360.9494,349.54522l-3.57929,1.50811" data-paper-data="{&quot;origPos&quot;:null}" fill="none"/><path d="M361.87424,353.60194l3.00963,-1.06332" data-paper-data="{&quot;origPos&quot;:null}" fill="none"/></g><g data-paper-data="{&quot;origPos&quot;:null,&quot;origRot&quot;:0}" stroke="#661515"><path d="M354.90101,320.3193l2.74818,4.36507l0.03972,5.42076l-0.78872,3.56916l-4.28317,4.44799l-4.06544,5.32957l-7.25729,10.43943l0.26564,-4.93575l-1.60893,-9.52053l-1.91702,-6.2595l-0.1698,-6.69892l0.70108,-3.17259l2.05532,-3.70043l3.36436,-2.15698l4.10517,0.09119l2.62904,-11.89722l6.37547,1.01837l-5.07461,11.76319z" data-paper-data="{&quot;origPos&quot;:null}" fill="#de7633"/><path d="M352.44913,316.8535l-9.41966,29.18562l5.12225,-29.15356" data-paper-data="{&quot;origPos&quot;:null}" fill="none"/><path d="M346.78571,321.5737l-4.85828,2.57013" data-paper-data="{&quot;origPos&quot;:null}" fill="none"/><path d="M345.80419,326.01533l-3.84499,2.46511" data-paper-data="{&quot;origPos&quot;:null}" fill="none"/><path d="M342.2013,331.86528l3.4605,-2.21861" data-paper-data="{&quot;origPos&quot;:null}" fill="none"/><path d="M342.61758,335.95537l1.99261,-1.54981" data-paper-data="{&quot;origPos&quot;:null}" fill="none"/><path d="M342.26485,340.5385l1.92249,-1.23256l2.58305,3.24554" data-paper-data="{&quot;origPos&quot;:null}" fill="none"/><path d="M351.2573,322.24691l2.4768,5.21984" data-paper-data="{&quot;origPos&quot;:null}" fill="none"/><path d="M351.70536,330.67361l-1.74394,-4.05582" data-paper-data="{&quot;origPos&quot;:null}" fill="none"/><path d="M348.42122,330.60066l2.26866,3.1748" data-paper-data="{&quot;origPos&quot;:null}" fill="none"/><path d="M346.98509,335.60606l1.70999,2.71604" data-paper-data="{&quot;origPos&quot;:null}" fill="none"/></g><g data-paper-data="{&quot;origPos&quot;:null,&quot;origRot&quot;:0}" stroke="#665415"><path d="M319.47301,321.17525l3.55425,3.72567l1.10823,5.30429l-0.06888,3.65618l-3.32003,5.21936l-2.93277,6.03956l-5.05275,11.68832l-0.71331,-4.89033l-3.45476,-9.0068l-3.11343,-5.74916l-1.48784,-6.53075l0.06122,-3.24993l1.28423,-4.03924l2.87155,-2.78963l4.041,-0.73526l0.22956,-12.18724l6.44877,-0.28268l-2.65264,12.54713z" data-paper-data="{&quot;origPos&quot;:null}" fill="#ded633"/><path d="M316.38653,318.27133l-3.47395,30.49372l-0.73113,-29.59906" data-paper-data="{&quot;origPos&quot;:null}" fill="none"/><path d="M311.76754,324.03472l-4.25406,3.49461" data-paper-data="{&quot;origPos&quot;:null}" fill="none"/><path d="M311.68186,328.58461l-3.28177,3.18815" data-paper-data="{&quot;origPos&quot;:null}" fill="none"/><path d="M312.25863,332.17189l-2.9536,2.86933" data-paper-data="{&quot;origPos&quot;:null}" fill="none"/><path d="M312.1668,337.04679l-1.647,1.91906" data-paper-data="{&quot;origPos&quot;:null}" fill="none"/><path d="M311.07819,343.5281l1.64088,-1.59407l3.17157,2.66172" data-paper-data="{&quot;origPos&quot;:null}" fill="none"/><path d="M319.73936,328.41407l-3.45691,-4.61786" data-paper-data="{&quot;origPos&quot;:null}" fill="none"/><path d="M315.8747,328.33994l2.5091,3.62434" data-paper-data="{&quot;origPos&quot;:null}" fill="none"/><path d="M315.151,332.55248l2.84952,2.65555" data-paper-data="{&quot;origPos&quot;:null}" fill="none"/><path d="M314.73099,337.74619l2.21155,2.3182" data-paper-data="{&quot;origPos&quot;:null}" fill="none"/></g><g data-paper-data="{&quot;origPos&quot;:null,&quot;origRot&quot;:0}" stroke="#674116"><path d="M349.89798,295.67725l4.58248,-2.31536l5.348,0.51096l3.43846,1.15446l3.94972,4.75185l4.84095,4.62286l9.55409,8.34637l-4.83884,-0.76822l-9.54913,0.64778l-6.36562,1.28844l-6.62126,-0.51024l-3.0564,-1.02619l-3.43916,-2.43934l-1.78455,-3.59667l0.50706,-4.11189l-11.46151,-3.84823l1.65178,-6.29683l11.08087,6.2897z" fill="#dea433"/><path d="M346.23215,297.78649l27.81496,12.42206l-28.22002,-8.10463" fill="none"/><path d="M350.31001,303.95164l2.04005,5.13837" fill="none"/><path d="M356.62844,309.49876l-2.03949,-4.11047" fill="none"/><path d="M358.15438,305.90025l1.83553,3.69942" fill="none"/><path d="M364.06436,309.5974l-1.32538,-2.15785" fill="none"/><path d="M368.54671,310.41721l-1.01974,-2.05523l3.46204,-2.26333" fill="none"/><path d="M351.42806,299.53102l5.39757,-1.95604" fill="none"/><path d="M359.78088,299.9375l-4.17556,1.33863" fill="none"/><path d="M359.37526,303.22703l3.36034,-1.9549" fill="none"/><path d="M367.01512,303.73671l-2.85131,1.44065" fill="none"/></g><g data-paper-data="{&quot;origPos&quot;:null,&quot;origRot&quot;:0}" stroke="#674116"><path d="M328.5773,331.84343l-4.9691,-1.26508l-3.7205,-3.9103l-1.85773,-3.13975l0.08229,-6.20157l-0.67624,-6.69098l-1.83749,-12.61653l3.16838,3.76975l7.65246,5.80028l5.65546,3.21769l4.68543,4.74859l1.6513,2.79089l1.02702,4.1135l-0.97508,3.90012l-3.04425,2.78067l6.1924,10.46585l-5.32492,3.68159l-4.32457,-12.06447z" fill="#dea433"/><path d="M332.71871,332.66076l-13.0332,-27.73409l16.13317,24.73054" fill="none"/><path d="M335.39721,320.06797l-1.77892,5.23627" fill="none"/><path d="M331.30646,321.397l1.11436,-4.45727" fill="none"/><path d="M328.9369,318.66029l1.00292,-4.01153" fill="none"/><path d="M326.85196,311.96624l-0.39203,2.50772" fill="none"/><path d="M323.98701,308.39227l-0.55718,2.22863l-4.08671,-0.56634" fill="none"/><path d="M329.91148,327.91624l-5.35408,-2.07424" fill="none"/><path d="M327.87622,323.84236l-4.02896,-1.73687" fill="none"/><path d="M326.28265,319.88093l-3.81014,-0.73298" fill="none"/><path d="M320.82526,314.46171l3.09188,0.78716" fill="none"/></g></g><path d="M308.22046,289.72847l180.35497,-1l-0.99096,41l-180.35497,2z" data-paper-data="{&quot;origPos&quot;:null}" fill="url(#color-4)" stroke="#000000" stroke-width="0"/></g></g></g></svg>