<svg version="1.1" xmlns="http://www.w3.org/2000/svg" xmlns:xlink="http://www.w3.org/1999/xlink" width="672.06611" height="430.43843" viewBox="0,0,672.06611,430.43843"><defs><linearGradient x1="159.34384" y1="112.43243" x2="159.34384" y2="149.96997" gradientUnits="userSpaceOnUse" id="color-1"><stop offset="0" stop-color="#af9141"/><stop offset="1" stop-color="#ddb747"/></linearGradient><linearGradient x1="117.54507" y1="45.86486" x2="117.54507" y2="61.89489" gradientUnits="userSpaceOnUse" id="color-2"><stop offset="0" stop-color="#af9141"/><stop offset="1" stop-color="#ddb747"/></linearGradient><linearGradient x1="67.94006" y1="-17.23596" x2="67.94006" y2="400.18145" gradientUnits="userSpaceOnUse" id="color-3"><stop offset="0" stop-color="#af9141"/><stop offset="1" stop-color="#ddb747"/></linearGradient><linearGradient x1="545.41755" y1="329.61088" x2="545.41755" y2="368.64992" gradientUnits="userSpaceOnUse" id="color-4"><stop offset="0" stop-color="#af9141"/><stop offset="1" stop-color="#ddb747"/></linearGradient><linearGradient x1="379.74186" y1="-28.25698" x2="379.74186" y2="16.78806" gradientUnits="userSpaceOnUse" id="color-5"><stop offset="0" stop-color="#af9141"/><stop offset="1" stop-color="#ddb747"/></linearGradient><linearGradient x1="306.4865" y1="187.50751" x2="306.4865" y2="223.54354" gradientUnits="userSpaceOnUse" id="color-6"><stop offset="0" stop-color="#af9141"/><stop offset="1" stop-color="#ddb747"/></linearGradient><linearGradient x1="379.9865" y1="242.5075" x2="379.9865" y2="264.54354" gradientUnits="userSpaceOnUse" id="color-7"><stop offset="0" stop-color="#af9141"/><stop offset="1" stop-color="#ddb747"/></linearGradient><linearGradient x1="416.9865" y1="282.5075" x2="416.9865" y2="304.54354" gradientUnits="userSpaceOnUse" id="color-8"><stop offset="0" stop-color="#af9141"/><stop offset="1" stop-color="#ddb747"/></linearGradient></defs><g transform="translate(7.60349,29.25698)"><g data-paper-data="{&quot;isPaintingLayer&quot;:true}" fill-rule="nonzero" stroke="#91773e" stroke-width="2" stroke-linecap="butt" stroke-linejoin="miter" stroke-miterlimit="10" stroke-dasharray="" stroke-dashoffset="0" style="mix-blend-mode: normal"><path d="M107.54655,149.96997v-37.53754h103.59459v37.53754z" fill="url(#color-1)"/><path d="M95.53453,61.89489v-16.03003h44.02102v16.03003z" fill="url(#color-2)"/><path d="M-6.60349,400.18145v-417.41742l118.08709,0v417.41742z" fill="url(#color-3)"/><path d="M500.37254,368.64992v-39.03904h163.09009v39.03904z" fill="url(#color-4)"/><path d="M186.04816,16.78806v-45.04504h460.38739v45.04504z" fill="url(#color-5)"/><path d="M254.68468,223.54354v-36.03604h103.6036v36.03604z" fill="url(#color-6)"/><path d="M364.6847,264.54354v-22.03604h30.6036v22.03604z" fill="url(#color-7)"/><path d="M401.6847,304.54354v-22.03604h30.6036v22.03604z" fill="url(#color-8)"/></g></g></svg>