<svg version="1.1" xmlns="http://www.w3.org/2000/svg" xmlns:xlink="http://www.w3.org/1999/xlink" width="535.81013" height="133.10235" viewBox="0,0,535.81013,133.10235"><defs><radialGradient cx="317.62476" cy="305.4751" r="938.01777" gradientUnits="userSpaceOnUse" id="color-1"><stop offset="0" stop-color="#6681bd"/><stop offset="1" stop-color="#45577f"/></radialGradient><radialGradient cx="131.1177" cy="244.0438" r="335.2474" gradientUnits="userSpaceOnUse" id="color-2"><stop offset="0" stop-color="#45577f"/><stop offset="1" stop-color="#1f283a"/></radialGradient><radialGradient cx="131.08914" cy="240.75587" r="329.14855" gradientUnits="userSpaceOnUse" id="color-3"><stop offset="0" stop-color="#45577f"/><stop offset="1" stop-color="#1f283a"/></radialGradient><radialGradient cx="372.08124" cy="244.48479" r="335.2474" gradientUnits="userSpaceOnUse" id="color-4"><stop offset="0" stop-color="#45577f"/><stop offset="1" stop-color="#1f283a"/></radialGradient><radialGradient cx="372.10979" cy="241.19686" r="329.14855" gradientUnits="userSpaceOnUse" id="color-5"><stop offset="0" stop-color="#45577f"/><stop offset="1" stop-color="#1f283a"/></radialGradient></defs><g transform="translate(16.30559,-235.98114)"><g data-paper-data="{&quot;isPaintingLayer&quot;:true}" fill-rule="nonzero" stroke-linejoin="miter" stroke-miterlimit="10" stroke-dasharray="" stroke-dashoffset="0" style="mix-blend-mode: normal"><path d="M-3.73401,258.1625l490.04396,3.6329l-2.7922,105.5732l-490.04396,-3.6329z" fill="url(#color-1)" stroke="#496087" stroke-width="3.4051" stroke-linecap="butt"/><path d="M123.6436,240.7604l137.7761,5.9296l-10.0094,19.8618l-38.3065,19.9666l-47.6358,-21.17l-44.188,28.3841l-46.0645,-30.6479l-45.5214,20.8657l-37.7324,-21.0314l-7.2032,-26.1034z" fill="url(#color-2)" stroke="url(#color-3)" stroke-width="1.60762" stroke-linecap="round"/><path d="M518.44044,237.25649l-7.2032,26.1034l-37.7324,21.0314l-45.5214,-20.8657l-46.0645,30.6479l-44.188,-28.3841l-47.6358,21.17l-38.3065,-19.9666l-10.0094,-19.8618l137.7761,-5.9296z" data-paper-data="{&quot;index&quot;:null}" fill="url(#color-4)" stroke="url(#color-5)" stroke-width="1.60762" stroke-linecap="round"/></g></g></svg>