<svg version="1.1" xmlns="http://www.w3.org/2000/svg" xmlns:xlink="http://www.w3.org/1999/xlink" width="556.28013" height="72.57273" viewBox="0,0,556.28013,72.57273"><defs><linearGradient x1="509.75288" y1="338.1848" x2="509.75288" y2="408.25432" gradientUnits="userSpaceOnUse" id="color-1"><stop offset="0" stop-color="#be5eff"/><stop offset="1" stop-color="#613187"/></linearGradient><linearGradient x1="509.75288" y1="338.1848" x2="509.75288" y2="408.25432" gradientUnits="userSpaceOnUse" id="color-2"><stop offset="0" stop-color="#603186"/><stop offset="1" stop-color="#3a1c4f"/></linearGradient></defs><g transform="translate(-231.70513,-336.93479)"><g data-paper-data="{&quot;isPaintingLayer&quot;:true}" fill-rule="nonzero" stroke-linecap="butt" stroke-linejoin="miter" stroke-miterlimit="10" stroke-dasharray="" stroke-dashoffset="0" style="mix-blend-mode: normal"><path d="M233.40092,408.25432l21.6616,-70.06952h531.0423l-29,69.07903z" fill="url(#color-1)" stroke="url(#color-2)" stroke-width="2.5"/><g fill="#ffffff" stroke="#522a73" stroke-width="7.5"><path d="M296.39331,378.76851h0.13834c0,0 13.81881,-4.68044 13.92641,-4.68044l-0.46114,11.57459c0,0.19984 -7.13998,0.87617 -21.41992,2.029c-0.3228,-1.61398 -1.83687,-11.20568 -4.54222,-28.77508c1.21434,-0.19984 5.12632,-0.61486 11.73599,-1.24509c0,0 0.40734,10.26025 0.62254,21.09702z"/><path d="M322.07879,364.68057c5.8411,1.56788 8.93841,2.5209 9.29195,2.85906c3.2126,4.54992 5.01874,7.17072 5.4184,7.86242c-2.07513,6.57893 -3.26641,9.86839 -3.57384,9.86839c-6.91708,1.61398 -10.53703,2.42097 -10.85983,2.42097c-5.71814,-3.33557 -8.76165,-5.1955 -9.13056,-5.57979c-0.19984,-6.21 -0.29975,-9.63781 -0.29975,-10.2834c-0.09223,-0.18445 -0.13834,-0.32278 -0.13834,-0.41501c5.90258,-4.48844 8.9538,-6.73265 9.15363,-6.73265zM321.6407,373.11941c-0.09223,0.61485 -0.23056,2.85138 -0.41502,6.70959l5.1417,1.15286c1.22971,-3.84284 1.84456,-5.89491 1.84456,-6.15623c-4.08877,-1.22971 -6.27918,-1.84456 -6.57124,-1.84456z"/><path d="M342.39198,364.65754c9.13056,1.26045 13.69584,2.0367 13.69584,2.32875c3.59689,3.08962 5.39533,4.74205 5.39533,4.95725c-1.46027,4.56528 -2.29032,7.3398 -2.49014,8.32355c1.46027,3.24335 2.29032,5.18015 2.49014,5.81038c0,0.18445 -2.38255,0.67633 -7.14765,1.47563c-0.06149,-0.26132 -0.49957,-0.84542 -1.31425,-1.75233c-6.57892,1.26045 -10.12202,1.89066 -10.62927,1.89066l-3.50465,-9.47639l7.72409,-4.08109c1.24508,0.19981 3.18953,0.29972 5.8334,0.29972c0,-0.33816 0.04611,-1.36035 0.13834,-3.06656c-0.44577,0 -4.42694,0.29205 -11.94351,0.87615l-0.13834,-0.29973c1.04525,-4.85734 1.67548,-7.286 1.89067,-7.286zM347.18783,378.21502c0,0.16907 0.49188,1.96751 1.47564,5.39531h0.13834c1.93678,-1.26045 2.90517,-2.09049 2.90517,-2.49014l0.29974,-2.4671c-0.36891,0 -1.97522,-0.14603 -4.81891,-0.43808z"/><path d="M388.18312,359.03161l3.06658,27.13807c0,0.19984 -3.06659,0.70708 -9.19974,1.52175l-0.13834,-0.29972v-2.46711c-5.28774,1.42953 -8.91536,2.3518 -10.88288,2.76684c-4.67287,-6.60964 -7.12461,-10.12968 -7.35518,-10.56007c3.44317,-6.25613 5.28005,-9.42263 5.51063,-9.49949l9.66087,0.46115c-0.19984,-1.1836 -1.22202,-10.42176 -1.22202,-10.42176c0,0 10.56008,1.03754 10.56008,1.36034zM373.33444,374.2031c1.5525,4.74973 2.52089,7.35518 2.90517,7.81632l4.58834,-3.98886c-0.47651,-2.75147 -0.83004,-4.1272 -1.06062,-4.1272h-6.13316c-0.19982,0.03079 -0.29973,0.1307 -0.29973,0.29974z"/><path d="M431.34578,360.34585c0.36891,0.27668 -3.18955,7.5089 -3.34326,7.63186c-0.38428,0 -2.88213,-0.87616 -7.49352,-2.62849c-2.67461,2.49017 -4.01191,3.88127 -4.01191,4.17331c-0.19982,4.6114 -0.29973,7.2937 -0.29973,8.0469c3.19723,1.47565 5.09558,2.3057 5.69507,2.49016c2.98204,-1.2912 4.69594,-2.07514 5.14171,-2.35182l-0.83004,-2.65155c-0.55336,0.30742 -2.22116,1.00681 -5.00337,2.09817l-0.13833,-0.27667v-1.1298c0,-0.96839 -0.04611,-2.44404 -0.13834,-4.42694c0.72246,-0.18445 4.9342,-0.64559 12.63521,-1.38341c0.18446,0.95303 0.50726,5.01874 0.96839,12.19714c-0.24593,0.27668 -4.8727,2.12892 -13.88029,5.55672c-7.67029,-2.79756 -11.55923,-4.37312 -11.66683,-4.72666c-2.39792,-8.33127 -3.59689,-12.71976 -3.59689,-13.16553c3.15112,-5.67202 4.95725,-8.73091 5.41839,-9.17668c0.38428,-0.18446 4.1272,-1.15285 11.22875,-2.90517c0,0 8.94608,2.35178 9.31499,2.62846z"/><path d="M454.01079,366.98629c3.59688,3.08962 5.39531,4.74205 5.39531,4.95725c-1.46026,4.56528 -2.2903,7.3398 -2.49014,8.32355c1.46027,3.24335 2.29032,5.18015 2.49014,5.81038c0,0.18445 -2.38255,0.67633 -7.14764,1.47563c-0.06143,-0.26132 -0.49951,-0.84542 -1.31425,-1.75233c-6.57893,1.26045 -10.12203,1.89066 -10.62929,1.89066l-3.50464,-9.47639l7.72409,-4.08109c1.24507,0.19981 3.18953,0.29972 5.83341,0.29972c0,-0.33816 0.04611,-1.36035 0.13832,-3.06656c-0.44578,0 -4.42696,0.29205 -11.94351,0.87615c0,0 1.53716,-7.58573 1.75235,-7.58573c0,0 13.69585,2.03671 13.69585,2.32876zM445.1108,378.21502c0,0.16907 0.49187,1.96751 1.47563,5.39531h0.13832c1.93678,-1.26045 2.90517,-2.09049 2.90517,-2.49014l0.29974,-2.4671c-0.36891,0 -1.97522,-0.14603 -4.81891,-0.43808z"/><path d="M496.9198,369.03835c-0.70708,9.14594 -1.16053,14.1493 -1.36037,15.01009c-4.51916,1.12212 -7.04774,1.68317 -7.58574,1.68317c0,-1.99827 -0.15371,-5.941 -0.46113,-11.82823c-1.7062,0.16909 -2.55932,0.31511 -2.55932,0.43808c0,0.58411 0.09992,3.91969 0.29972,10.00673c0.09222,0 0.13831,0.05384 0.13831,0.16152c0,0.18445 -2.37488,0.6917 -7.12462,1.52177c-0.19984,-0.24594 -0.807,-3.98887 -1.82149,-11.22875c-1.92142,0.49188 -2.88213,0.84542 -2.88213,1.06062l0.92228,9.40724c-0.18445,0.19984 -2.71303,1.00682 -7.58574,2.42098c-2.82831,-10.00673 -4.59601,-16.724 -5.30311,-20.15179c5.33386,-1.32193 8.31589,-1.98289 8.94611,-1.98289c0.70708,2.79759 1.06061,4.41157 1.06061,4.84196h0.16152c2.59776,-2.39793 4.43697,-4.89997 5.60297,-4.84196c0.26719,0.01329 5.00348,3.4816 5.00348,3.4816c3.02814,-2.92054 4.64211,-4.38081 4.84195,-4.38081c0.19984,0 6.98598,3.01263 9.7067,4.38067z"/><path d="M512.27576,364.68057c6.96321,3.58153 10.82141,5.67202 11.57461,6.2715c-0.99914,4.67289 -1.59096,7.07849 -1.7754,7.21682h-14.572v0.25363l4.08108,5.04948l6.40984,-3.27408c0.63023,1.09136 1.53714,2.99739 2.72072,5.71812c-0.55336,0.18445 -4.58834,0.77625 -12.10491,1.77538c-6.22537,-4.10414 -9.36112,-6.24075 -9.40724,-6.40984c0.99913,-7.9777 1.59093,-11.96655 1.77538,-11.96655c6.50207,-2.76684 10.26806,-4.31166 11.29793,-4.63446zM510.77705,370.26035c-0.123,0.30743 -0.93768,1.52945 -2.44404,3.66607c0,0.64559 0.90691,0.9684 2.72072,0.9684c0,0.09222 1.31425,0.31509 3.94275,0.66864c0.72246,-0.99913 1.08368,-1.58324 1.08368,-1.75233c-0.23058,-1.36805 -0.73014,-2.05208 -1.49872,-2.05208z"/></g><g fill="#ffffff" stroke="none" stroke-width="0.26459"><path d="M295.77078,357.67125c0,0.10768 0.04611,0.16152 0.13834,0.16152c0.1076,3.12037 0.269,10.09897 0.4842,20.93574h0.13834l13.76501,-4.84196c0,0.10768 0.0538,0.16152 0.1614,0.16152l-0.46114,11.57459c0,0.19984 -7.13998,0.87617 -21.41992,2.029c-0.3228,-1.61398 -1.83687,-11.20568 -4.54222,-28.77508c1.21434,-0.19984 5.12632,-0.61486 11.73599,-1.24509z"/><path d="M322.07879,364.68057c5.8411,1.56788 8.93841,2.5209 9.29195,2.85906c3.2126,4.54992 5.01874,7.17072 5.4184,7.86242c-2.07513,6.57893 -3.26641,9.86839 -3.57384,9.86839c-6.91708,1.61398 -10.53703,2.42097 -10.85983,2.42097c-5.71814,-3.33557 -8.76165,-5.1955 -9.13056,-5.57979c-0.19984,-6.21 -0.29975,-9.63781 -0.29975,-10.2834c-0.09223,-0.18445 -0.13834,-0.32278 -0.13834,-0.41501c5.90258,-4.48844 8.9538,-6.73265 9.15363,-6.73265zM321.6407,373.11941c-0.09223,0.61485 -0.23056,2.85138 -0.41502,6.70959l5.1417,1.15286c1.22971,-3.84284 1.84456,-5.89491 1.84456,-6.15623c-4.08877,-1.22971 -6.27918,-1.84456 -6.57124,-1.84456z"/><path d="M342.39198,364.65754c9.13056,1.26045 13.69584,2.0367 13.69584,2.32875c3.59689,3.08962 5.39533,4.74205 5.39533,4.95725c-1.46027,4.56528 -2.29032,7.3398 -2.49014,8.32355c1.46027,3.24335 2.29032,5.18015 2.49014,5.81038c0,0.18445 -2.38255,0.67633 -7.14765,1.47563c-0.06149,-0.26132 -0.49957,-0.84542 -1.31425,-1.75233c-6.57892,1.26045 -10.12202,1.89066 -10.62927,1.89066l-3.50465,-9.47639l7.72409,-4.08109c1.24508,0.19981 3.18953,0.29972 5.8334,0.29972c0,-0.33816 0.04611,-1.36035 0.13834,-3.06656c-0.44577,0 -4.42694,0.29205 -11.94351,0.87615l-0.13834,-0.29973c1.04525,-4.85734 1.67548,-7.286 1.89067,-7.286zM347.18783,378.21502c0,0.16907 0.49188,1.96751 1.47564,5.39531h0.13834c1.93678,-1.26045 2.90517,-2.09049 2.90517,-2.49014l0.29974,-2.4671c-0.36891,0 -1.97522,-0.14603 -4.81891,-0.43808z"/><path d="M377.62303,357.67125h0.13834c6.94783,0.58411 10.42175,1.03756 10.42175,1.36036l3.06658,27.13807c0,0.19984 -3.06659,0.70708 -9.19974,1.52175l-0.13834,-0.29972v-2.46711c-5.28774,1.42953 -8.91536,2.3518 -10.88288,2.76684c-4.67287,-6.60964 -7.12461,-10.12968 -7.35518,-10.56007c3.44317,-6.25613 5.28005,-9.42263 5.51063,-9.49949l9.66087,0.46115c-0.19984,-1.1836 -0.60718,-4.65751 -1.22202,-10.42176zM373.33444,374.2031c1.5525,4.74973 2.52089,7.35518 2.90517,7.81632l4.58834,-3.98886c-0.47651,-2.75147 -0.83004,-4.1272 -1.06062,-4.1272h-6.13316c-0.19982,0.03079 -0.29973,0.1307 -0.29973,0.29974z"/><path d="M431.34578,360.34585c-2.07513,4.96494 -3.18955,7.5089 -3.34326,7.63186c-0.38428,0 -2.88213,-0.87616 -7.49352,-2.62849c-2.67461,2.49017 -4.01191,3.88127 -4.01191,4.17331c-0.19982,4.6114 -0.29973,7.2937 -0.29973,8.0469c3.19723,1.47565 5.09558,2.3057 5.69507,2.49016c2.98204,-1.2912 4.69594,-2.07514 5.14171,-2.35182l-0.83004,-2.65155c-0.55336,0.30742 -2.22116,1.00681 -5.00337,2.09817l-0.13833,-0.27667v-1.1298c0,-0.96839 -0.04611,-2.44404 -0.13834,-4.42694c0.72246,-0.18445 4.9342,-0.64559 12.63521,-1.38341c0.18446,0.95303 0.50726,5.01874 0.96839,12.19714c-0.24593,0.27668 -4.8727,2.12892 -13.88029,5.55672c-7.67029,-2.79756 -11.55923,-4.37312 -11.66683,-4.72666c-2.39792,-8.33127 -3.59689,-12.71976 -3.59689,-13.16553c3.15112,-5.67202 4.95725,-8.73091 5.41839,-9.17668c0.38428,-0.18446 4.1272,-1.15285 11.22875,-2.90517c0,0 8.94608,2.35178 9.31499,2.62846z"/><path d="M440.31493,364.65754c9.13057,1.26045 13.69586,2.0367 13.69586,2.32875c3.59688,3.08962 5.39531,4.74205 5.39531,4.95725c-1.46026,4.56528 -2.2903,7.3398 -2.49014,8.32355c1.46027,3.24335 2.29032,5.18015 2.49014,5.81038c0,0.18445 -2.38255,0.67633 -7.14764,1.47563c-0.06143,-0.26132 -0.49951,-0.84542 -1.31425,-1.75233c-6.57893,1.26045 -10.12203,1.89066 -10.62929,1.89066l-3.50464,-9.47639l7.72409,-4.08109c1.24507,0.19981 3.18953,0.29972 5.83341,0.29972c0,-0.33816 0.04611,-1.36035 0.13832,-3.06656c-0.44578,0 -4.42696,0.29205 -11.94351,0.87615l-0.13831,-0.29973c1.04526,-4.85734 1.67547,-7.286 1.89066,-7.286zM445.1108,378.21502c0,0.16907 0.49187,1.96751 1.47563,5.39531h0.13832c1.93678,-1.26045 2.90517,-2.09049 2.90517,-2.49014l0.29974,-2.4671c-0.36891,0 -1.97522,-0.14603 -4.81891,-0.43808z"/><path d="M487.21282,364.65754c3.7506,1.5525 6.98626,3.01277 9.70698,4.38081c-0.70708,9.14594 -1.16053,14.1493 -1.36037,15.01009c-4.51916,1.12212 -7.04774,1.68317 -7.58574,1.68317c0,-1.99827 -0.15371,-5.941 -0.46113,-11.82823c-1.7062,0.16909 -2.55932,0.31511 -2.55932,0.43808c0,0.58411 0.09992,3.91969 0.29972,10.00673c0.09222,0 0.13831,0.05384 0.13831,0.16152c0,0.18445 -2.37488,0.6917 -7.12462,1.52177c-0.19984,-0.24594 -0.807,-3.98887 -1.82149,-11.22875c-1.92142,0.49188 -2.88213,0.84542 -2.88213,1.06062l0.92228,9.40724c-0.18445,0.19984 -2.71303,1.00682 -7.58574,2.42098c-2.82831,-10.00673 -4.59601,-16.724 -5.30311,-20.15179c5.33386,-1.32193 8.31589,-1.98289 8.94611,-1.98289c0.70708,2.79759 1.06061,4.41157 1.06061,4.84196h0.16152c2.59776,-2.39793 4.41157,-4.01192 5.44145,-4.84196h0.16152l4.84196,3.4816h0.16152c3.02814,-2.92054 4.64211,-4.38081 4.84195,-4.38081z"/><path d="M512.27576,364.68057c6.96321,3.58153 10.82141,5.67202 11.57461,6.2715c-0.99914,4.67289 -1.59096,7.07849 -1.7754,7.21682h-14.572v0.25363l4.08108,5.04948l6.40984,-3.27408c0.63023,1.09136 1.53714,2.99739 2.72072,5.71812c-0.55336,0.18445 -4.58834,0.77625 -12.10491,1.77538c-6.22537,-4.10414 -9.36112,-6.24075 -9.40724,-6.40984c0.99913,-7.9777 1.59093,-11.96655 1.77538,-11.96655c6.50207,-2.76684 10.26806,-4.31166 11.29793,-4.63446zM510.77705,370.26035c-0.123,0.30743 -0.93768,1.52945 -2.44404,3.66607c0,0.64559 0.90691,0.9684 2.72072,0.9684c0,0.09222 1.31425,0.31509 3.94275,0.66864c0.72246,-0.99913 1.08368,-1.58324 1.08368,-1.75233c-0.23058,-1.36805 -0.73014,-2.05208 -1.49872,-2.05208z"/></g></g></g></svg>