<svg version="1.1" xmlns="http://www.w3.org/2000/svg" xmlns:xlink="http://www.w3.org/1999/xlink" width="35.30526" height="35.30526" viewBox="0,0,35.30526,35.30526"><defs><linearGradient x1="240.08888" y1="163.06125" x2="240.08888" y2="197.11651" gradientUnits="userSpaceOnUse" id="color-1"><stop offset="0" stop-color="#3c94ed"/><stop offset="1" stop-color="#296ec6"/></linearGradient></defs><g transform="translate(-222.43625,-162.43625)"><g data-paper-data="{&quot;isPaintingLayer&quot;:true}" fill-rule="nonzero" stroke-linejoin="miter" stroke-miterlimit="10" stroke-dasharray="" stroke-dashoffset="0" style="mix-blend-mode: normal"><path d="M240.08888,163.06125c4.69771,0 8.95515,1.90752 12.0371,4.99053c3.08301,3.08195 4.99053,7.33939 4.99053,12.0371c0,4.69771 -1.90752,8.95515 -4.99053,12.0371c-3.08195,3.08301 -7.33939,4.99053 -12.0371,4.99053c-4.69771,0 -8.95515,-1.90752 -12.0371,-4.99053c-3.08301,-3.08195 -4.99053,-7.33939 -4.99053,-12.0371c0,-4.69771 1.90752,-8.95515 4.99053,-12.0371c3.08195,-3.08301 7.33939,-4.99053 12.0371,-4.99053z" data-paper-data="{&quot;origPos&quot;:null}" fill="url(#color-1)" stroke="#23568d" stroke-width="1.25" stroke-linecap="butt"/><path d="M249.4181,173.24749v16.17061h-18.83621v-18.83621h16.19286z" fill="#687a8c" stroke="#23578c" stroke-width="1.5" stroke-linecap="butt"/><path d="M246.48354,179.45221v9.76058h-12.97806v-9.76058z" fill="#ffffff" stroke="#23578c" stroke-width="1.5" stroke-linecap="butt"/><path d="M244.72648,170.68497v6.6938h-10.067v-6.6938z" fill="#ffffff" stroke="#23578c" stroke-width="1.5" stroke-linecap="butt"/><path d="M239.40066,171.43809v3.42477h-1.54114v-3.42477z" fill="#23578c" stroke="#23578c" stroke-width="1.5" stroke-linecap="butt"/><path d="M243.68384,185.88385h-7.27272" fill="none" stroke="#23578c" stroke-width="1.5" stroke-linecap="round"/><path d="M243.68384,182.79294h-7.27272" fill="none" stroke="#23578c" stroke-width="1.5" stroke-linecap="round"/></g></g></svg>