<svg version="1.1" xmlns="http://www.w3.org/2000/svg" xmlns:xlink="http://www.w3.org/1999/xlink" width="291.2704" height="469.72676" viewBox="0,0,291.2704,469.72676"><defs><linearGradient x1="-4.1583" y1="104.81952" x2="-4.1583" y2="118.81952" gradientUnits="userSpaceOnUse" id="color-1"><stop offset="0" stop-color="#b2b2b2"/><stop offset="1" stop-color="#666666"/></linearGradient><linearGradient x1="103.4435" y1="112.8614" x2="95.6993" y2="124.5244" gradientUnits="userSpaceOnUse" id="color-2"><stop offset="0" stop-color="#b2b2b2"/><stop offset="1" stop-color="#666666"/></linearGradient><linearGradient x1="233.1099" y1="173.56135" x2="240.5693" y2="185.40855" gradientUnits="userSpaceOnUse" id="color-3"><stop offset="0" stop-color="#b2b2b2"/><stop offset="1" stop-color="#666666"/></linearGradient><linearGradient x1="187.33806" y1="171.37036" x2="187.33806" y2="185.37036" gradientUnits="userSpaceOnUse" id="color-4"><stop offset="0" stop-color="#b2b2b2"/><stop offset="1" stop-color="#666666"/></linearGradient><linearGradient x1="39.5" y1="247.74629" x2="52.5" y2="247.74629" gradientUnits="userSpaceOnUse" id="color-5"><stop offset="0" stop-color="#cc7700"/><stop offset="1" stop-color="#995900"/></linearGradient><linearGradient x1="163.5" y1="322.74629" x2="176.5" y2="322.74629" gradientUnits="userSpaceOnUse" id="color-6"><stop offset="0" stop-color="#cc7700"/><stop offset="1" stop-color="#995900"/></linearGradient><linearGradient x1="-1.1583" y1="240" x2="-1.1583" y2="254" gradientUnits="userSpaceOnUse" id="color-7"><stop offset="0" stop-color="#b2b2b2"/><stop offset="1" stop-color="#666666"/></linearGradient><linearGradient x1="122.8417" y1="315" x2="122.8417" y2="329" gradientUnits="userSpaceOnUse" id="color-8"><stop offset="0" stop-color="#b2b2b2"/><stop offset="1" stop-color="#666666"/></linearGradient><linearGradient x1="1573.99811" y1="297.41786" x2="93.79282" y2="297.41786" gradientUnits="userSpaceOnUse" id="color-9"><stop offset="0" stop-color="#000000"/><stop offset="1" stop-color="#000000" stop-opacity="0"/></linearGradient></defs><g transform="translate(4.1583,-104.75147)"><g data-paper-data="{&quot;isPaintingLayer&quot;:true}" fill-rule="nonzero" stroke="none" stroke-linecap="butt" stroke-linejoin="miter" stroke-miterlimit="10" stroke-dasharray="" stroke-dashoffset="0" style="mix-blend-mode: normal"><path d="M-4.1583,104.81952h99.42461v14h-99.42461z" fill="url(#color-1)" stroke-width="1.16442"/><path d="M95.17998,104.75147l99.81842,68.90233l-7.7443,11.663l-99.17319,-67.93464z" fill="url(#color-2)" stroke-width="1.16442"/><path d="M233.1099,173.56135l46.5428,-29.3048l7.4594,11.8473l-46.5428,29.3047z" fill="url(#color-3)" stroke-width="0.8452"/><path d="M187.33806,171.37036h53.31944v14h-53.31944z" fill="url(#color-4)" stroke-width="0.8452"/><path d="M39.5,247.74629h13v251.73194h-13z" data-paper-data="{&quot;origPos&quot;:null}" fill="url(#color-5)" stroke-width="1.54554"/><path d="M163.5,322.74629h13v251.73194h-13z" data-paper-data="{&quot;origPos&quot;:null}" fill="url(#color-6)" stroke-width="1.54554"/><path d="M-1.1583,240h109.8999v14h-109.8999z" data-paper-data="{&quot;origPos&quot;:null}" fill="url(#color-7)" stroke-width="1.16442"/><path d="M122.8417,315h148.8999v14h-148.8999z" data-paper-data="{&quot;origPos&quot;:null}" fill="url(#color-8)" stroke-width="1.16442"/><path d="M93.79282,351.00072v-107.16572h13.68761v107.16572z" data-paper-data="{&quot;index&quot;:null}" fill="url(#color-9)" stroke-width="0"/></g></g></svg>