<svg version="1.1" xmlns="http://www.w3.org/2000/svg" xmlns:xlink="http://www.w3.org/1999/xlink" width="362.94383" height="301.34437" viewBox="0,0,362.94383,301.34437"><defs><linearGradient x1="38.95424" y1="119.84344" x2="159.96966" y2="119.84344" gradientUnits="userSpaceOnUse" id="color-1"><stop offset="0" stop-color="#ffcd42"/><stop offset="1" stop-color="#fff587"/></linearGradient><linearGradient x1="38.99355" y1="232.95586" x2="160.00897" y2="232.95586" gradientUnits="userSpaceOnUse" id="color-2"><stop offset="0" stop-color="#ffcd42"/><stop offset="1" stop-color="#fff587"/></linearGradient><linearGradient x1="280.84334" y1="163.67814" x2="401.85876" y2="163.67814" gradientUnits="userSpaceOnUse" id="color-3"><stop offset="0" stop-color="#ff8c52"/><stop offset="1" stop-color="#ffc782"/></linearGradient><linearGradient x1="280.88265" y1="266.29055" x2="401.89807" y2="266.29055" gradientUnits="userSpaceOnUse" id="color-4"><stop offset="0" stop-color="#ff8c52"/><stop offset="1" stop-color="#ffc782"/></linearGradient><linearGradient x1="364.67225" y1="213.65527" x2="381.83755" y2="213.65527" gradientUnits="userSpaceOnUse" id="color-5"><stop offset="0" stop-color="#ffd890"/><stop offset="1" stop-color="#ffc782"/></linearGradient><linearGradient x1="286.17399" y1="190.45622" x2="296.86929" y2="190.45622" gradientUnits="userSpaceOnUse" id="color-6"><stop offset="0" stop-color="#ffc580"/><stop offset="1" stop-color="#ffc782"/></linearGradient><linearGradient x1="331.84896" y1="131.82951" x2="343.92429" y2="131.82951" gradientUnits="userSpaceOnUse" id="color-7"><stop offset="0" stop-color="#ffcd84"/><stop offset="1" stop-color="#ffc782"/></linearGradient><linearGradient x1="300.17398" y1="272.45622" x2="312.24931" y2="272.45622" gradientUnits="userSpaceOnUse" id="color-8"><stop offset="0" stop-color="#ffc580"/><stop offset="1" stop-color="#ffc782"/></linearGradient><linearGradient x1="-89.40094" y1="308.0044" x2="-89.40094" y2="406.0044" gradientUnits="userSpaceOnUse" id="color-9"><stop offset="0" stop-color="#000000" stop-opacity="0"/><stop offset="1" stop-color="#000000"/></linearGradient><linearGradient x1="353.67225" y1="305.65527" x2="370.83755" y2="305.65527" gradientUnits="userSpaceOnUse" id="color-10"><stop offset="0" stop-color="#ffd890"/><stop offset="1" stop-color="#ffc782"/></linearGradient></defs><g transform="translate(-38.95424,-64.48532)"><g data-paper-data="{&quot;isPaintingLayer&quot;:true}" fill-rule="nonzero" stroke-linecap="butt" stroke-linejoin="miter" stroke-miterlimit="10" stroke-dasharray="" stroke-dashoffset="0" style="mix-blend-mode: normal"><path d="M99.46195,64.48532c16.6936,0 31.82053,6.20337 42.77389,16.22422c10.9537,10.02145 17.73382,23.86098 17.73382,39.1339c0,15.273 -6.78012,29.11253 -17.73382,39.13398c-10.95335,10.02085 -26.08028,16.22413 -42.77389,16.22413c-16.69369,0 -31.82062,-6.20328 -42.77389,-16.22413c-10.9537,-10.02145 -17.73382,-23.86098 -17.73382,-39.13398c0,-15.27292 6.78012,-29.11245 17.73382,-39.1339c10.95327,-10.02085 26.0802,-16.22422 42.77389,-16.22422z" data-paper-data="{&quot;origPos&quot;:null}" fill="url(#color-1)" stroke="none" stroke-width="0.55092"/><path d="M38.99355,122.91672h121.01542v220.07828h-121.01542z" data-paper-data="{&quot;origPos&quot;:null}" fill="url(#color-2)" stroke="none" stroke-width="1.16723"/><path d="M60.45018,183.77387c0,13.20448 -3.84258,23.90882 -8.58265,23.90882c-4.74007,0 -8.58265,-10.70435 -8.58265,-23.90882c0,-13.20448 3.84258,-23.90882 8.58265,-23.90882c4.74007,0 8.58265,10.70435 8.58265,23.90882z" data-paper-data="{&quot;origPos&quot;:null}" fill="#fff383" stroke="#000000" stroke-width="0"/><path d="M138.60079,135.83362c2.95343,0 5.34765,6.66962 5.34765,14.89703c0,8.2274 -2.39423,14.89703 -5.34765,14.89703c-2.95343,0 -5.34765,-6.66962 -5.34765,-14.89703c0,-8.2274 2.39423,-14.89703 5.34765,-14.89703z" fill="#fff6a6" stroke="#000000" stroke-width="0"/><path d="M115.79376,208.78617c3.69178,0 6.68457,6.66964 6.68457,14.89704c0,8.2274 -2.99279,14.89703 -6.68457,14.89703c-3.69178,0 -6.68456,-6.66963 -6.68456,-14.89703c0,-8.22741 2.99278,-14.89704 6.68456,-14.89704z" data-paper-data="{&quot;origPos&quot;:null}" fill="#fff59c" stroke="#000000" stroke-width="0"/><path d="M91.5458,70.60544c2.95343,0 5.34765,6.66963 5.34765,14.89704c0,8.22741 -2.39423,14.89703 -5.34765,14.89703c-2.95342,0 -5.34765,-6.66962 -5.34765,-14.89703c0,-8.22741 2.39423,-14.89704 5.34765,-14.89704z" data-paper-data="{&quot;origPos&quot;:null}" fill="#fff493" stroke="#000000" stroke-width="0"/><path d="M85.92841,112.37306c1.20078,3.55987 1.94336,7.72511 1.94336,13.15064c0,5.42552 -2.13081,-9.58761 -6.63011,-9.58761c-4.4993,0 -6.6301,15.01314 -6.6301,9.58761c0,-5.42552 0.74257,-9.84077 1.94336,-13.40064c1.19931,-3.55987 4.40065,-3.97566 4.40065,-3.97566c0,0 3.77353,0.66579 4.97284,4.22566z" data-paper-data="{&quot;origPos&quot;:null}" fill="#916f33" stroke="none" stroke-width="1"/><path d="M115.57228,107.86131c0,0 3.77353,0.66579 4.97284,4.22566c1.20078,3.55987 1.94336,7.72511 1.94336,13.15064c0,5.42552 -2.1308,-9.58762 -6.63011,-9.58762c-4.49931,0 -6.6301,15.01315 -6.6301,9.58762c0,-5.42552 0.74257,-9.59077 1.94336,-13.15064c1.19931,-3.55987 4.40065,-4.22566 4.40065,-4.22566z" data-paper-data="{&quot;origPos&quot;:null}" fill="#916f33" stroke="none" stroke-width="1"/><path d="M72.00004,297.5c0,12.4264 -3.35787,22.5 -7.5,22.5c-4.14213,0 -7.5,-10.0736 -7.5,-22.5c0,-12.4264 3.35787,-22.5 7.5,-22.5c4.14213,0 7.5,10.0736 7.5,22.5z" fill="#fff383" stroke="none" stroke-width="0"/><path d="M138.00001,326.5c0,10.21727 -15,10.21727 -15,0c0,-10.21727 3.35787,-18.5 7.5,-18.5c4.14213,0 7.5,8.28273 7.5,18.5z" fill="#fff6a6" stroke="none" stroke-width="0"/><path d="M341.35105,108.32002c16.6936,0 31.82053,6.20337 42.77389,16.22422c10.9537,10.02145 17.73382,23.86098 17.73382,39.1339c0,15.273 -6.78012,29.11253 -17.73382,39.13398c-10.95335,10.02085 -26.08028,16.22413 -42.77389,16.22413c-16.69369,0 -31.82062,-6.20328 -42.77389,-16.22413c-10.9537,-10.02145 -17.73382,-23.86098 -17.73382,-39.13398c0,-15.27292 6.78012,-29.11245 17.73382,-39.1339c10.95327,-10.02085 26.0802,-16.22422 42.77389,-16.22422z" data-paper-data="{&quot;origPos&quot;:null}" fill="url(#color-3)" stroke="none" stroke-width="0.55092"/><path d="M280.88265,166.75141h121.01542v199.07828h-121.01542z" data-paper-data="{&quot;origPos&quot;:null}" fill="url(#color-4)" stroke="none" stroke-width="1.16723"/><path d="M373.2549,198.66616c4.74007,0 8.58265,6.71085 8.58265,14.98911c0,8.27825 -3.84258,14.98911 -8.58265,14.98911c-4.74007,0 -8.58265,-6.71085 -8.58265,-14.98911c0,-8.27825 3.84258,-14.98911 8.58265,-14.98911z" data-paper-data="{&quot;origPos&quot;:null,&quot;index&quot;:null}" fill="url(#color-5)" stroke="#000000" stroke-width="0"/><path d="M296.86929,190.45622c0,7.39475 -2.39422,13.38937 -5.34765,13.38937c-2.95342,0 -5.34765,-5.99463 -5.34765,-13.38937c0,-7.39475 2.39422,-13.38937 5.34765,-13.38937c2.95342,0 5.34765,5.99463 5.34765,13.38937z" data-paper-data="{&quot;origPos&quot;:null,&quot;index&quot;:null}" fill="url(#color-6)" stroke="#000000" stroke-width="0"/><path d="M343.92429,131.82951c0,7.39475 -2.70316,13.38937 -6.03767,13.38937c-3.3345,0 -6.03767,-5.99462 -6.03767,-13.38937c0,-7.39475 2.70315,-13.38938 6.03767,-13.38938c3.3345,0 6.03767,5.99463 6.03767,13.38938z" data-paper-data="{&quot;origPos&quot;:null,&quot;index&quot;:null}" fill="url(#color-7)" stroke="#000000" stroke-width="0"/><path d="M312.24931,272.45622c0,7.39475 -2.70315,13.38937 -6.03767,13.38937c-3.3345,0 -6.03767,-5.99463 -6.03767,-13.38937c0,-7.39475 2.70315,-13.38937 6.03767,-13.38937c3.3345,0 6.03767,5.99463 6.03767,13.38937z" data-paper-data="{&quot;index&quot;:null}" fill="url(#color-8)" stroke="#000000" stroke-width="0"/><path d="" data-paper-data="{&quot;origPos&quot;:null}" fill="url(#color-9)" stroke="none" stroke-width="1.22826"/><path d="M327.72839,155.97306c1.20078,3.55987 1.94336,7.72511 1.94336,13.15064c0,5.42552 -2.13081,-9.58761 -6.63011,-9.58761c-4.4993,0 -6.6301,15.01314 -6.6301,9.58761c0,-5.42552 0.74257,-9.84077 1.94336,-13.40064c1.19931,-3.55987 4.40065,-3.97566 4.40065,-3.97566c0,0 3.77353,0.66579 4.97284,4.22566z" fill="#914a33" stroke="none" stroke-width="1"/><path d="M357.37228,151.46131c0,0 3.77353,0.66579 4.97284,4.22566c1.20078,3.55987 1.94336,7.72511 1.94336,13.15064c0,5.42552 -2.13081,-9.58762 -6.63011,-9.58762c-4.4993,0 -6.6301,15.01315 -6.6301,9.58762c0,-5.42552 0.74257,-9.59077 1.94336,-13.15064c1.19931,-3.55987 4.40065,-4.22566 4.40065,-4.22566z" fill="#914a33" stroke="none" stroke-width="1"/><path d="M362.2549,290.66616c4.74007,0 8.58265,6.71085 8.58265,14.98911c0,8.27825 -3.84258,14.98911 -8.58265,14.98911c-4.74007,0 -8.58265,-6.71085 -8.58265,-14.98911c0,-8.27825 3.84258,-14.98911 8.58265,-14.98911z" data-paper-data="{&quot;index&quot;:null}" fill="url(#color-10)" stroke="#000000" stroke-width="0"/></g></g></svg>