<svg version="1.1" xmlns="http://www.w3.org/2000/svg" xmlns:xlink="http://www.w3.org/1999/xlink" width="500" height="277.10673" viewBox="0,0,500,277.10673"><defs><linearGradient x1="247.43611" y1="230.1" x2="247.43611" y2="311.1" gradientUnits="userSpaceOnUse" id="color-1"><stop offset="0" stop-color="#7c5831"/><stop offset="1" stop-color="#95693b"/></linearGradient><linearGradient x1="69.46718" y1="188.33333" x2="69.46718" y2="270" gradientUnits="userSpaceOnUse" id="color-2"><stop offset="0" stop-color="#64e298"/><stop offset="1" stop-color="#60b483"/></linearGradient><linearGradient x1="83" y1="109.33334" x2="83" y2="191" gradientUnits="userSpaceOnUse" id="color-3"><stop offset="0" stop-color="#64e298"/><stop offset="1" stop-color="#60b483"/></linearGradient><linearGradient x1="419.8" y1="132.6627" x2="419.8" y2="304.4217" gradientUnits="userSpaceOnUse" id="color-4"><stop offset="0" stop-color="#7c5831"/><stop offset="1" stop-color="#95693b"/></linearGradient><linearGradient x1="255" y1="102.33334" x2="255" y2="184" gradientUnits="userSpaceOnUse" id="color-5"><stop offset="0" stop-color="#64e298"/><stop offset="1" stop-color="#60b483"/></linearGradient><linearGradient x1="240" y1="318" x2="240" y2="363" gradientUnits="userSpaceOnUse" id="color-6"><stop offset="0" stop-color="#7c5831"/><stop offset="1" stop-color="#95693b"/></linearGradient><linearGradient x1="239" y1="292.33333" x2="239" y2="374" gradientUnits="userSpaceOnUse" id="color-7"><stop offset="0" stop-color="#64e298"/><stop offset="1" stop-color="#60b483"/></linearGradient></defs><g transform="translate(3,-106.44718)"><g data-paper-data="{&quot;isPaintingLayer&quot;:true}" fill-rule="nonzero" stroke-linejoin="miter" stroke-miterlimit="10" stroke-dasharray="" stroke-dashoffset="0" style="mix-blend-mode: normal"><g stroke-width="2"><path d="M176.18327,230.1h142.50568v81h-142.50568z" fill="url(#color-1)" stroke="#663b00" stroke-linecap="butt"/><path d="M176.76758,229l-4.42476,13l-8.84952,21v-23l-0.72706,-1.47885c0.1518,-0.65147 0.25429,-1.31869 0.25429,-2.02115c0,-10.18952 0.84705,-20.24908 1.04625,-30.42531c3.54283,-3.21672 7.39455,-6.39284 11.55205,-8.33128c1.43106,-0.66723 2.96218,-1.39215 4.51425,-2.17358c0.38082,-0.12507 0.75915,-0.26038 1.13415,-0.40959c0.59992,-0.2387 1.50649,-0.41021 1.63174,-1c0.00312,-0.01472 0.00386,-0.02829 0.00239,-0.0408c0.24196,-0.13246 0.48327,-0.26629 0.72366,-0.40147c0.37003,0.0061 0.76045,0.02422 1.15209,0.04852v0.23351h3.26349c0.68745,0 1.34511,-0.11724 1.95062,-0.33115c0.19509,-0.06093 0.39594,-0.13308 0.59805,-0.2185l128.25955,1.7123c1.28475,0.62679 2.57456,1.23474 3.78513,1.9976c2.16281,1.36292 2.86514,2.77459 4.47452,4.61325c0.86613,0.98953 2.20311,1.64234 2.85525,2.76203c0.14397,0.24719 -0.71058,-0.7294 -0.77005,-0.4544c-0.31938,1.47668 1.21951,2.797 1.92685,4.15493c0.17878,0.3287 0.35014,0.66596 0.51361,1.00971v0.75423l-3.73587,20v22l-3.73588,-16l-3.73587,-14v20l1.86793,18l-5.6038,-17l-5.60381,-16v22l-3.73587,15l-0.93397,-17l-4.66985,-19l-3.73587,20v20l-5.60381,-16v-21l-4.66985,13l-0.93397,21l-6.53778,-17v-15l-4.66985,17l-2.8019,20l-1.86794,-21l-1.86793,-23l-5.60381,29l-2.80191,12l-3.73587,-22l-0.93397,-13l-1.86794,18l-3.73587,19l-2.80191,-14l-2.8019,-18l-3.73588,17l-4.66984,15l-2.80191,-18v-22l-5.60381,17l-1.86793,16l-5.60381,-10l-0.93397,-17l-6.53778,22v11l-5.08715,-16.5l-3.31857,-16.5l-6.53778,8v17l-3.73587,-27l-4.97785,33l-3.60009,-30l-8.84952,31l2.48396,-21l-3.73588,-13z" data-paper-data="{&quot;origPos&quot;:null,&quot;index&quot;:null}" fill="url(#color-2)" stroke="#20996f" stroke-linecap="butt"/><path d="M239.0437,259.7845c0.8058,3.3886 -12.3845,3.9145 -14.9883,9.1434c-1.7906,3.6051 2.1276,7.7932 4.2833,11.1227c1.3309,2.0269 5.0596,2.4216 4.9095,4.1106c-0.1446,1.6053 -3.5101,2.0851 -5.4389,2.117c-2.4507,0.231 -5.4925,0.4241 -7.1604,-1.3614c-4.6009,-4.9277 -10.6292,-10.499 -10.6178,-17.2413c0.0092,-5.5646 5.2985,-11.4024 10.6678,-12.8627c6.1072,-1.661 17.4724,1.3028 19.7164,4.1851z" fill="#b2b2b2" stroke="#7f7f7f" stroke-linecap="round"/></g><path d="" data-paper-data="{&quot;origPos&quot;:null,&quot;index&quot;:null}" fill="url(#color-3)" stroke="#20996f" stroke-width="2" stroke-linecap="butt"/><g data-paper-data="{&quot;origPos&quot;:null}"><path d="M354.3,132.6627h131v171.759h-131z" fill="url(#color-4)" stroke="#663b00" stroke-width="3.31555" stroke-linecap="butt"/><g fill="#b2b2b2" stroke="#7f7f7f" stroke-width="2" stroke-linecap="round"><path d="M385.0773,185.0018c0.2596,-0.6536 0.91,2.1422 2.3055,2.8827c1.2695,0.6738 2.7877,0.7351 4.2043,0.9737c0.7018,0.1182 1.8441,-0.5564 2.134,0.0929c0.5799,1.2987 0.4105,2.9763 -0.1857,4.268c-0.6414,1.3899 -1.8096,2.7794 -3.2743,3.2256c-2.0412,0.6214 -4.3501,0.3063 -6.4019,-0.2787c-1.3198,-0.3768 -2.6843,-1.254 -3.2892,-2.4862c-0.5926,-1.2073 -0.3726,-2.7743 0.0879,-4.0379c0.6661,-1.826 1.3166,-4.4149 3.1713,-4.8995z"/><path d="M375.0513,181.7973c-1.1261,-4.5946 3.2996,-8.317 6.602,-11.047c3.477,-2.8721 8.5052,-4.4809 13.1511,-4.7288c3.1093,-0.1637 6.1524,1.2995 8.3795,3.2936c2.2172,1.9866 4.0039,5.243 3.7642,8.3937c-0.1646,4.678 -0.5386,11.0437 -4.8888,13.4062c-4.4922,2.4357 -10.2438,-1.2156 -15.075,-2.8821c-4.2682,-1.4726 -10.2953,-2.3079 -11.933,-6.4356z"/><path d="M379.5593,189.7038c1.3923,1.0825 3.3252,1.906 3.9157,3.5678c0.5091,1.4316 0.4405,4.2877 -1.0717,4.4344c-2.9828,0.2904 -5.9606,-1.6275 -8.2815,-3.5235c-1.3408,-1.0965 -2.5343,-3.2388 -1.9825,-4.9189c0.6123,-1.3652 2.8628,-1.4618 4.3951,-1.3902c1.1745,0.0542 2.0955,1.1078 2.6626,1.4046z"/><path d="M394.1579,195.8798c0.607,0.2028 2.0048,0.1357 2.8584,0.9444c1.1141,1.0544 2.6051,2.7429 2.0461,4.1308c-0.8279,1.5627 -3.1991,2.1882 -4.9189,1.9825c-2.9755,-0.3575 -6.4224,-1.173 -8.2815,-3.5235c-0.9429,-1.1913 1.0673,-3.2213 2.4519,-3.8472c1.6068,-0.7269 3.5405,0.0947 5.286,0.3472z"/></g><path d="M417.6315,257.9436c0.3201,-3.4683 12.986,0.2512 17.1251,-3.8706c2.8494,-2.8433 0.4761,-8.0644 -0.5018,-11.9085c-0.613,-2.346 -4.0196,-3.9123 -3.3373,-5.4646c0.6502,-1.4748 3.9925,-0.8532 5.8302,-0.2667c2.3959,0.5648 5.3398,1.3545 6.3492,3.5796c2.7836,6.1402 6.714,13.3466 4.5472,19.7312c-1.788,5.2696 -8.6664,9.1095 -14.2207,8.7762c-6.3176,-0.379 -16.1384,-6.8213 -17.343,-10.2698z" fill="#b2b2b2" stroke="#7f7f7f" stroke-width="2" stroke-linecap="round"/><path d="M353.63713,143l-4.06751,13l-8.13502,21v-23l-0.66836,-1.47885c0.13953,-0.65147 0.23376,-1.31869 0.23376,-2.02115c0,-10.18951 0.77866,-20.24908 0.96177,-30.42531c3.25679,-3.21672 6.79753,-6.39284 10.61937,-8.33128c1.31552,-0.66724 2.72303,-1.39214 4.14979,-2.17357c0.35007,-0.12508 0.69786,-0.26039 1.04257,-0.40959c0.55149,-0.2387 1.38486,-0.41021 1.5,-1c0.00288,-0.01471 0.00355,-0.02829 0.0022,-0.0408c0.22242,-0.13246 0.44425,-0.26629 0.66523,-0.40147c0.34015,0.0061 0.69906,0.02421 1.05907,0.04852v0.23351h3c0.63195,0 1.23651,-0.11724 1.79314,-0.33115c0.17934,-0.06094 0.36397,-0.13308 0.54976,-0.2185l117.90408,1.7123c1.18102,0.62679 2.36669,1.23474 3.47952,1.9976c1.98819,1.36292 2.63381,2.77459 4.11325,4.61325c0.7962,0.98953 2.02523,1.64234 2.62472,2.76203c0.13234,0.24719 -0.65321,-0.72941 -0.70788,-0.4544c-0.29359,1.47668 1.12106,2.797 1.77128,4.15493c0.16435,0.3287 0.32187,0.66595 0.47213,1.0097v0.75422l-3.43424,20v22l-3.43425,-16l-3.43424,-14v20l1.71712,18l-5.15136,-17l-5.15137,-16v22l-3.43424,15l-0.85856,-17l-4.29281,-19l-3.43424,20v20l-5.15137,-16v-21l-4.29281,13l-0.85856,21l-6.00993,-17v-15l-4.29281,17l-2.57568,20l-1.71713,-21l-1.71712,-23l-5.15137,29l-2.57569,12l-3.43424,-22l-0.85856,-13l-1.71712,18l-3.43425,19l-2.57569,-14l-2.57569,-18l-3.43424,17l-4.29281,15l-2.57569,-18v-22l-5.15137,17l-1.71712,16l-5.15137,-10l-0.85856,-17l-6.00993,22v11l-4.67642,-16.5l-3.05063,-16.5l-6.00993,8v17l-3.43425,-27l-4.57595,33l-3.30942,-30l-8.13502,31l2.28341,-21l-3.43424,-13z" data-paper-data="{&quot;origPos&quot;:null,&quot;index&quot;:null}" fill="url(#color-5)" stroke="#20996f" stroke-width="2" stroke-linecap="butt"/></g><g stroke-width="2"><path d="M0,318h480v45h-480z" data-paper-data="{&quot;origPos&quot;:null}" fill="url(#color-6)" stroke="#763e13" stroke-linecap="butt"/><path d="M337.63711,333l-4.06751,13l-8.13502,21v-23l-8.13502,-18v7l-4.06751,27v-17l-7.11815,-8v17l-9.1519,16v-11l-7.11814,-22l-1.01688,17l-6.10127,10l-2.03375,-16l-6.10127,-17v22l-3.05063,18l-5.08439,-15l-4.06751,-17l-3.05063,18l-3.05064,14l-4.06751,-19l-2.03376,-18l-1.01688,13l-4.06751,22l-3.05063,-12l-6.10127,-29l-2.03376,23l-2.03375,21l-3.05063,-20l-5.08439,-17v15l-7.11814,17l-1.01687,-21l-5.08439,-13v21l-6.10126,16v-20l-4.06751,-20l-5.08439,19l-1.01687,17l-4.06751,-15v-22l-6.10127,16l-6.10127,17l2.03376,-18v-20l-4.06751,14l-4.06751,16v-22l-1.01687,-7l-3.05064,7.33334l-1.35584,3l-2.71167,10l-8.13502,21v-23l-8.13502,-18v7l-4.06752,27v-17l-7.11814,-8v17l-9.1519,16v-11l-7.11814,-22l-1.01688,17l-6.10126,10l-2.03375,-16l-6.10127,-17v22l-3.05063,18l-5.08439,-15l-4.06751,-17l-3.05064,18l-3.05063,14l-4.06751,-19l-2.03375,-18l-1.01688,13l-4.06751,22l-3.05063,-12l-6.10127,-29l-2.03375,23l-2.03376,21l-3.05063,-20l-5.08439,-17v15l-7.11814,17l-1.01687,-21l-5.08439,-13v21l-6.10126,16v-20l-4.06751,-20l-5.08439,19l-1.01687,17l-4.06751,-15v-22l-6.10127,16l-6.10127,17l2.03375,-18v-20l-4.06751,14l-4.06751,16v-22l-4.06751,-20v-15l482,7v-0.33334v15l-3.43424,20v22l-3.43425,-16l-3.43424,-14v20l1.71712,18l-5.15136,-17l-5.15137,-16v22l-3.43424,15l-0.85856,-17l-4.29281,-19l-3.43424,20v20l-5.15137,-16v-21l-4.29281,13l-0.85856,21l-6.00993,-17v-15l-4.29281,17l-2.57568,20l-1.71713,-21l-1.71712,-23l-5.15137,29l-2.57569,12l-3.43424,-22l-0.85856,-13l-1.71713,18l-3.43424,19l-2.57569,-14l-2.57568,-18l-3.43425,17l-4.2928,15l-2.57569,-18v-22l-5.15137,17l-1.71712,16l-5.15137,-10l-0.85856,-17l-6.00993,22v11l-4.67642,-16.5l-3.05063,-16.5l-6.00993,8v17l-3.43424,-27l-4.57595,33l-3.30942,-30l-8.13502,31l2.28341,-21l-3.43425,-13z" data-paper-data="{&quot;origPos&quot;:null,&quot;index&quot;:null}" fill="url(#color-7)" stroke="#20996f" stroke-linecap="round"/></g></g></g></svg>