<svg version="1.1" xmlns="http://www.w3.org/2000/svg" xmlns:xlink="http://www.w3.org/1999/xlink" width="106" height="137" viewBox="0,0,106,137"><defs><linearGradient x1="240.53926" y1="170.9524" x2="240.53926" y2="189.1643" gradientUnits="userSpaceOnUse" id="color-1"><stop offset="0" stop-color="#ffffff"/><stop offset="1" stop-color="#d1d1d1"/></linearGradient><linearGradient x1="240.53926" y1="170.9524" x2="240.53926" y2="189.1643" gradientUnits="userSpaceOnUse" id="color-2"><stop offset="0" stop-color="#343434"/><stop offset="1" stop-color="#090909"/></linearGradient><linearGradient x1="240.53926" y1="170.9524" x2="240.53926" y2="189.1643" gradientUnits="userSpaceOnUse" id="color-3"><stop offset="0" stop-color="#ffffff"/><stop offset="1" stop-color="#d1d1d1"/></linearGradient></defs><g transform="translate(-185,-111.5)"><g data-paper-data="{&quot;isPaintingLayer&quot;:true}" fill-rule="nonzero" stroke-linecap="butt" stroke-linejoin="miter" stroke-miterlimit="10" stroke-dasharray="" stroke-dashoffset="0" style="mix-blend-mode: normal"><path d="M238.93811,170.9524c4.1718,1.0783 6.296,1.6938 6.3732,1.8633c0,0.0922 1.016,1.9705 3.033,5.6032c-1.2784,4.1569 -1.9555,6.3268 -2.0785,6.512c0,0 -2.3243,3.4484 -2.5096,3.2174l-4.9104,1.016c-3.4641,-1.8932 -5.2958,-2.9557 -5.511,-3.2174c-0.1237,-1.3241 -0.3239,-5.0184 -0.6006,-11.0993c3.2631,-2.1399 5.3416,-3.4483 6.2039,-3.8952zM240.01551,176.0173l-2.6783,2.7098c0.231,2.817 0.3382,4.5408 0.3382,5.1571c0.0615,0 0.6471,0.4004 1.7245,1.1855c1.4314,-0.3082 2.1549,-0.5234 2.1549,-0.6621l1.6474,-5.511c-0.4462,-1.2935 -0.8158,-1.9398 -1.124,-1.9398z" data-paper-data="{&quot;origPos&quot;:null}" fill="url(#color-1)" stroke="url(#color-2)" stroke-width="2.5"/><path d="M185,248.5v-137h106v137z" fill="none" stroke="none" stroke-width="0"/><path d="M238.93811,170.9524c4.1718,1.0783 6.296,1.6938 6.3732,1.8633c0,0.0922 1.016,1.9705 3.033,5.6032c-1.2784,4.1569 -1.9555,6.3268 -2.0785,6.512c0,0 -2.3243,3.4484 -2.5096,3.2174l-4.9104,1.016c-3.4641,-1.8932 -5.2958,-2.9557 -5.511,-3.2174c-0.1237,-1.3241 -0.3239,-5.0184 -0.6006,-11.0993c3.2631,-2.1399 5.3416,-3.4483 6.2039,-3.8952zM240.01551,176.0173l-2.6783,2.7098c0.231,2.817 0.3382,4.5408 0.3382,5.1571c0.0615,0 0.6471,0.4004 1.7245,1.1855c1.4314,-0.3082 2.1549,-0.5234 2.1549,-0.6621l1.6474,-5.511c-0.4462,-1.2935 -0.8158,-1.9398 -1.124,-1.9398z" data-paper-data="{&quot;origPos&quot;:null}" fill="url(#color-3)" stroke="none" stroke-width="0"/></g></g></svg>