<svg version="1.1" xmlns="http://www.w3.org/2000/svg" xmlns:xlink="http://www.w3.org/1999/xlink" width="43.10989" height="43.70405" viewBox="0,0,43.10989,43.70405"><g transform="translate(-218.44505,-157.85089)"><g data-paper-data="{&quot;isPaintingLayer&quot;:true}" fill-rule="nonzero" stroke-linejoin="miter" stroke-miterlimit="10" stroke-dasharray="" stroke-dashoffset="0" style="mix-blend-mode: normal"><path d="M222.44505,180c0,-9.69533 7.85962,-17.55495 17.55495,-17.55495c9.69533,0 17.55495,7.85962 17.55495,17.55495c0,9.69533 -7.85962,17.55495 -17.55495,17.55495c-9.69533,0 -17.55495,-7.85962 -17.55495,-17.55495z" fill="none" stroke="#9966ff" stroke-width="8" stroke-linecap="butt"/><g fill="#ffdb26" stroke="none" stroke-width="1.5" stroke-linecap="butt"><path d="M237.50256,162.20119c0.15202,0.15545 0.22365,0.33089 0.17877,0.48957c-0.04488,0.15869 -0.1978,0.27059 -0.40873,0.32336c-0.21094,0.05278 -0.47986,0.04632 -0.75638,-0.03189c-0.27654,-0.07822 -0.50897,-0.21358 -0.66099,-0.36906c-0.15202,-0.15545 -0.22365,-0.33089 -0.17877,-0.48958c0.04488,-0.15869 0.1978,-0.27059 0.40873,-0.32335c0.21093,-0.05278 0.47986,-0.04631 0.75638,0.03191c0.27652,0.07822 0.50897,0.21359 0.66099,0.36904z"/><path d="M237.06713,162.74111c0.18697,0.11099 0.30141,0.26202 0.29896,0.42691c-0.00244,0.16489 -0.12132,0.31245 -0.3115,0.41783c-0.19019,0.10541 -0.45167,0.16851 -0.739,0.16424c-0.28733,-0.00425 -0.54684,-0.0751 -0.73381,-0.18608c-0.18697,-0.11099 -0.30142,-0.26201 -0.29897,-0.42688c0.00244,-0.1649 0.12131,-0.31247 0.3115,-0.41785c0.19018,-0.10541 0.45167,-0.16852 0.739,-0.16425c0.28733,0.00427 0.54684,0.0751 0.73382,0.18608z"/><path d="M236.94705,164.44264c-0.27652,0.07822 -0.54544,0.0847 -0.75638,0.03191c-0.21093,-0.05278 -0.36386,-0.1647 -0.40873,-0.32335c-0.04488,-0.15869 0.02674,-0.33412 0.17877,-0.48958c0.15201,-0.15546 0.38446,-0.29082 0.66099,-0.36906c0.27652,-0.07822 0.54542,-0.08469 0.75638,-0.03192c0.21093,0.05278 0.36384,0.1647 0.40872,0.32339c0.04488,0.15869 -0.02674,0.33409 -0.17877,0.48957c-0.15201,0.15545 -0.38447,0.2908 -0.66099,0.36904z"/></g><path d="M242.12798,160.18681l-4.30132,0.64166c0,0 0.10676,-1.37294 0.9931,-2.17706c0.90839,-0.82414 1.60195,-0.71979 1.60195,-0.71979c0,0 -0.09775,0.18 -0.04534,0.59843c0.05068,0.40462 0.15686,0.50894 0.15686,0.50894c0,0 -0.03523,-0.24969 0.07603,-0.6451c0.10014,-0.35587 0.28148,-0.52436 0.28148,-0.52436c0,0 0.16626,-0.02939 0.37572,-0.01435c0.23945,0.01718 0.40965,0.1405 0.40965,0.1405c0,0 -0.17041,0.16183 -0.26488,0.50926c-0.08108,0.29823 -0.05195,0.55512 -0.05195,0.55512c0,0 0.10219,-0.20709 0.25347,-0.54342c0.19448,-0.4324 0.38231,-0.53285 0.38231,-0.53285c0,0 0.27182,0.03537 0.53023,0.1133c0.28618,0.08631 0.49244,0.27562 0.49244,0.27562c0,0 -0.37503,0.11925 -0.7131,0.82225c-0.35588,0.74001 -0.17669,0.99182 -0.17669,0.99182z" fill="#ffdb26" stroke="none" stroke-width="1.5" stroke-linecap="round"/><g stroke="none" stroke-width="1.5" stroke-linecap="butt"><path d="M242.73224,160.34013c0.62196,0.59492 1.00702,1.4166 1.00702,2.32332c0,0.90672 -0.38505,1.72841 -1.00702,2.32333c-0.62196,0.59492 -1.481,0.91735 -2.42896,0.91735c-0.94796,0 -1.80699,-0.32243 -2.42896,-0.91735c-0.62196,-0.59492 -1.00703,-1.41659 -1.00703,-2.32333c0,-0.90672 0.38507,-1.7284 1.00703,-2.32332c0.62196,-0.59492 1.481,-0.96323 2.42896,-0.96323c0.94796,0 1.80699,0.36831 2.42896,0.96323z" fill="#ff1919"/><path d="M240.55463,164.36656c1.90372,-0.29846 2.6222,0.02789 2.6222,0.02789c0,0 -0.27637,1.15178 -2.05378,1.4619c-2.04501,0.35681 -2.95339,-0.60784 -2.95339,-0.60784c0,0 0.48315,-0.58379 2.38497,-0.88194z" fill="#ffffff"/></g><path d="M243.72264,160.35738c0.18696,0.26547 0.32321,0.64709 0.36416,1.0813c0.04095,0.4342 -0.02106,0.83979 -0.15427,1.14395c-0.13321,0.30435 -0.33774,0.50747 -0.5817,0.53693c-0.24396,0.02947 -0.48176,-0.12021 -0.66873,-0.38587c-0.18697,-0.26547 -0.32322,-0.64709 -0.36417,-1.0813c-0.04095,-0.4342 0.02106,-0.83979 0.1543,-1.14395c0.13321,-0.30435 0.33773,-0.50747 0.58169,-0.53693c0.24396,-0.02947 0.48176,0.12021 0.66873,0.38587z" fill="#ffffff" stroke="none" stroke-width="1.5" stroke-linecap="butt"/><path d="M242.45822,160.39797c0.21158,0.26547 0.3658,0.64709 0.41215,1.0813c0.04636,0.43421 -0.02382,0.83979 -0.17461,1.14395c-0.15076,0.30435 -0.38225,0.50747 -0.65835,0.53693c-0.27609,0.02947 -0.54524,-0.12021 -0.75685,-0.38587c-0.2116,-0.26547 -0.36582,-0.64709 -0.41216,-1.0813c-0.04636,-0.43421 0.02384,-0.83979 0.17462,-1.14395c0.15076,-0.30435 0.38224,-0.50747 0.65833,-0.53695c0.27609,-0.02947 0.54525,0.12021 0.75686,0.38587z" fill="#ffffff" stroke="none" stroke-width="1.5" stroke-linecap="butt"/><path d="M243.7063,162.82147c0.1682,0.19829 0.27225,0.47219 0.27225,0.77434c0,0.30215 -0.10405,0.57604 -0.27225,0.77433c-0.1682,0.19829 -0.4005,0.32096 -0.65674,0.32096c-0.25624,0 -0.48856,-0.12267 -0.65675,-0.32096c-0.16817,-0.19829 -0.27223,-0.4722 -0.27223,-0.77433c0,-0.30215 0.10406,-0.57604 0.27223,-0.77434c0.1682,-0.19829 0.40051,-0.32095 0.65675,-0.32095c0.25624,0 0.48856,0.12267 0.65674,0.32095z" fill="#ffadbc" stroke="none" stroke-width="1.5" stroke-linecap="round"/><path d="M243.53356,163.48075c0.01549,0.08005 0.00592,0.17671 -0.0325,0.27085c-0.03844,0.09411 -0.09856,0.16818 -0.16452,0.21179c-0.06602,0.04344 -0.13791,0.05657 -0.20004,0.02878c-0.06215,-0.02778 -0.10277,-0.09126 -0.11839,-0.17123c-0.01549,-0.08005 -0.00592,-0.17671 0.03251,-0.27084c0.03844,-0.09413 0.09856,-0.1682 0.16453,-0.21179c0.06601,-0.04345 0.13788,-0.0566 0.20004,-0.02879c0.06214,0.02779 0.10277,0.09126 0.11839,0.17123z" fill="#6d3f57" stroke="none" stroke-width="1.5" stroke-linecap="butt"/><path d="M243.52176,161.7921c0,0.26298 -0.12922,0.47617 -0.2886,0.47617c-0.1594,0 -0.2886,-0.21319 -0.2886,-0.47617c0,-0.26298 0.1292,-0.47618 0.2886,-0.47618c0.1594,0 0.2886,0.2132 0.2886,0.47618z" data-paper-data="{&quot;index&quot;:null}" fill="#000000" stroke="none" stroke-width="1.5" stroke-linecap="butt"/><path d="M239.62552,163.15777c-0.43114,0.65015 -0.69466,0.72902 -2.1553,0.40991c-0.99479,-0.29093 -1.89082,-0.8716 -1.81384,-1.27528c0.06154,-0.32276 1.15682,-0.23993 1.15682,-0.23993c0,0 -1.7316,-0.7284 -1.56729,-1.05479c0.16818,-0.3341 1.11562,-0.32271 1.11562,-0.32271c0,0 -1.35779,-0.67237 -1.18413,-0.95281c0.19539,-0.3155 1.0574,-0.24831 2.25615,0.22564c0.99744,0.39434 2.73095,1.64265 2.19197,3.20999z" fill="#ffffff" stroke="none" stroke-width="1.5" stroke-linecap="butt"/><path d="M242.62638,161.85605c0,0.26298 -0.1292,0.47617 -0.2886,0.47617c-0.1594,0 -0.2886,-0.21319 -0.2886,-0.47617c0,-0.26298 0.12922,-0.47618 0.2886,-0.47618c0.1594,0 0.2886,0.2132 0.2886,0.47618z" data-paper-data="{&quot;index&quot;:null}" fill="#000000" stroke="none" stroke-width="1.5" stroke-linecap="butt"/><text transform="translate(232.98204,177.67729) scale(0.20132,0.20132)" font-size="40" xml:space="preserve" fill="#9966ff" fill-rule="nonzero" stroke="none" stroke-width="1" stroke-linecap="butt" stroke-linejoin="miter" stroke-miterlimit="10" stroke-dasharray="" stroke-dashoffset="0" font-family="Sans Serif" font-weight="normal" text-anchor="start" style="mix-blend-mode: normal"><tspan x="0" dy="0">fish</tspan><tspan x="0" dy="46.15px">circ</tspan></text></g></g></svg>