<svg version="1.1" xmlns="http://www.w3.org/2000/svg" xmlns:xlink="http://www.w3.org/1999/xlink" width="197.28615" height="197" viewBox="0,0,197.28615,197"><defs><linearGradient x1="362.64312" y1="260" x2="362.64312" y2="435.00142" gradientUnits="userSpaceOnUse" id="color-1"><stop offset="0" stop-color="#bee061"/><stop offset="1" stop-color="#4ce01b"/></linearGradient></defs><g transform="translate(-264.00004,-259)"><g data-paper-data="{&quot;isPaintingLayer&quot;:true}" fill-rule="nonzero" stroke-linejoin="miter" stroke-miterlimit="10" stroke-dasharray="" stroke-dashoffset="0" style="mix-blend-mode: normal"><g stroke-width="2"><path d="M362.50005,262c0,0 50.749,10.813 68.218,28.282c17.469,17.469 28.282,41.594 28.282,68.218c0,26.624 -10.813,50.749 -28.282,68.218c-17.469,17.469 -41.594,28.282 -68.218,28.282c-26.624,0 -50.749,-10.813 -68.218,-28.282c-17.469,-17.469 -28.282,-41.594 -28.282,-68.218c0,-26.624 28.282,-68.218 28.282,-68.218z" fill="#c06520" stroke="#763e13" stroke-linecap="butt"/><path d="M361.50005,260c26.624,0 49.935,11.841 68.218,28.282c16.785,15.11 28.428,39.161 30.282,62.718c2.816,28.029 -16.058,83.682 -17,84c-0.948,0.32 7.295,-53.653 3,-80c-3.243,-18.886 -11.474,-38.105 -26,-51c-2.77511,-2.46227 -11.95906,-14.10512 -11.95906,-14.10512l-13.95058,3.92558l-18.09032,-15.64311l-18.00005,13.82266l-17.08442,-9.47323l-13.2311,14.14013l-15.18862,-4.04789l-5.49586,14.38099c0,0 -20.978,28.443 -23,46c-1.654,24.528 11.503,71.59 9.282,71.718c-2.22,0.126 -28.282,-41.594 -28.282,-68.218c0,-26.624 10.813,-50.749 28.282,-68.218c17.469,-17.469 41.594,-28.282 68.218,-28.282z" data-paper-data="{&quot;origPos&quot;:null}" fill="url(#color-1)" stroke="#006622" stroke-linecap="round"/></g><path d="M332.00004,303c0,-2.76142 2.23858,-5 5,-5c2.76142,0 5,2.23858 5,5c0,2.76142 -2.23858,5 -5,5c-2.76142,0 -5,-2.23858 -5,-5z" data-paper-data="{&quot;origPos&quot;:null}" fill="#e0bb60" stroke="none" stroke-width="0.5" stroke-linecap="butt"/><path d="M383.00004,301c0,-2.76142 5,-5 5,-5c0,0 5,2.23858 5,5c0,2.76142 -2.23858,5 -5,5c-2.76142,0 -5,-2.23858 -5,-5z" data-paper-data="{&quot;origPos&quot;:null}" fill="#e0bb60" stroke="none" stroke-width="0.5" stroke-linecap="butt"/><path d="M310.00005,339c0,-2.76142 2.23858,-5 5,-5c2.76142,0 5,2.23858 5,5c0,2.76142 -2.23858,5 -5,5c-2.76142,0 -5,-2.23858 -5,-5z" fill="#e0bb60" stroke="none" stroke-width="0.5" stroke-linecap="butt"/><path d="M357.00005,325c0,-2.76142 2.23858,-5 5,-5c2.76142,0 5,2.23858 5,5c0,2.76142 -2.23858,5 -5,5c-2.76142,0 -5,-2.23858 -5,-5z" fill="#e0bb60" stroke="none" stroke-width="0.5" stroke-linecap="butt"/><path d="M401.00005,345c0,-2.76142 2.23858,-5 5,-5c2.76142,0 5,2.23858 5,5c0,2.76142 -2.23858,5 -5,5c-2.76142,0 -5,-2.23858 -5,-5z" fill="#e0bb60" stroke="none" stroke-width="0.5" stroke-linecap="butt"/></g></g></svg>