<svg version="1.1" xmlns="http://www.w3.org/2000/svg" xmlns:xlink="http://www.w3.org/1999/xlink" width="549.04204" height="423.92192" viewBox="0,0,549.04204,423.92192"><defs><linearGradient x1="358.11336" y1="15.46073" x2="358.11336" y2="36.48175" gradientUnits="userSpaceOnUse" id="color-1"><stop offset="0" stop-color="#af9141"/><stop offset="1" stop-color="#ddb747"/></linearGradient><linearGradient x1="-14.21115" y1="382.45751" x2="-14.21115" y2="341.54262" gradientUnits="userSpaceOnUse" id="color-2"><stop offset="0" stop-color="#af9141"/><stop offset="1" stop-color="#ddb747"/></linearGradient><linearGradient x1="122.30538" y1="382.45751" x2="122.30538" y2="341.54262" gradientUnits="userSpaceOnUse" id="color-3"><stop offset="0" stop-color="#af9141"/><stop offset="1" stop-color="#ddb747"/></linearGradient><linearGradient x1="244.30539" y1="382.45751" x2="244.30539" y2="341.54262" gradientUnits="userSpaceOnUse" id="color-4"><stop offset="0" stop-color="#af9141"/><stop offset="1" stop-color="#ddb747"/></linearGradient><linearGradient x1="360.3054" y1="382.45751" x2="360.3054" y2="341.54262" gradientUnits="userSpaceOnUse" id="color-5"><stop offset="0" stop-color="#af9141"/><stop offset="1" stop-color="#ddb747"/></linearGradient><linearGradient x1="82.8431" y1="-16.56629" x2="82.8431" y2="35.98626" gradientUnits="userSpaceOnUse" id="color-6"><stop offset="0" stop-color="#af9141"/><stop offset="1" stop-color="#ddb747"/></linearGradient><linearGradient x1="478.48874" y1="-31.58131" x2="478.48874" y2="390.34061" gradientUnits="userSpaceOnUse" id="color-7"><stop offset="0" stop-color="#af9141"/><stop offset="1" stop-color="#ddb747"/></linearGradient><linearGradient x1="459.46472" y1="-14.56929" x2="459.46472" y2="37.98326" gradientUnits="userSpaceOnUse" id="color-8"><stop offset="0" stop-color="#af9141"/><stop offset="1" stop-color="#ddb747"/></linearGradient><linearGradient x1="166.17643" y1="234.18445" x2="166.17643" y2="250.70097" gradientUnits="userSpaceOnUse" id="color-9"><stop offset="0" stop-color="#af9141"/><stop offset="1" stop-color="#ddb747"/></linearGradient><linearGradient x1="266.77703" y1="196.64692" x2="266.77703" y2="211.66193" gradientUnits="userSpaceOnUse" id="color-10"><stop offset="0" stop-color="#af9141"/><stop offset="1" stop-color="#ddb747"/></linearGradient><linearGradient x1="356.86712" y1="142.59286" x2="356.86712" y2="159.10938" gradientUnits="userSpaceOnUse" id="color-11"><stop offset="0" stop-color="#af9141"/><stop offset="1" stop-color="#ddb747"/></linearGradient><linearGradient x1="228.48874" y1="87.03731" x2="228.48874" y2="108.05833" gradientUnits="userSpaceOnUse" id="color-12"><stop offset="0" stop-color="#af9141"/><stop offset="1" stop-color="#ddb747"/></linearGradient></defs><g transform="translate(20.25901,32.58131)"><g data-paper-data="{&quot;isPaintingLayer&quot;:true}" fill-rule="nonzero" stroke-width="2" stroke-linecap="butt" stroke-linejoin="miter" stroke-miterlimit="10" stroke-dasharray="" stroke-dashoffset="0" style="mix-blend-mode: normal"><path d="M320.57583,36.48175v-21.02102h75.07508v21.02102z" fill="url(#color-1)" stroke="#91773e"/><path d="M-14.21115,341.54262h136.84652v40.91489h-136.84652z" data-paper-data="{&quot;index&quot;:null}" fill="url(#color-2)" stroke="#91773e"/><path d="M122.30538,341.54262h120.33v40.91489h-120.33z" data-paper-data="{&quot;index&quot;:null}" fill="url(#color-3)" stroke="#91773e"/><path d="M244.30539,341.54262h120.33v40.91489h-120.33z" data-paper-data="{&quot;index&quot;:null}" fill="url(#color-4)" stroke="#91773e"/><path d="M360.3054,341.54262h133.33v40.91489h-133.33z" data-paper-data="{&quot;index&quot;:null}" fill="url(#color-5)" stroke="#91773e"/><path d="M-19.25901,35.98626v-52.55255h204.20421v52.55255z" fill="url(#color-6)" stroke="#91773e"/><path d="M446.20646,390.34061v-421.92192h64.56456v421.92192z" fill="url(#color-7)" stroke="#91773e"/><path d="M391.1464,37.98326v-52.55255h136.63664v52.55255z" fill="url(#color-8)" stroke="#91773e"/><path d="M135.39565,250.70097v-16.51652h61.56156v16.51652z" fill="url(#color-9)" stroke="#91773e"/><path d="M231.49174,211.66193v-15.01502h70.57057v15.01502z" fill="url(#color-10)" stroke="#91773e"/><path d="M326.08634,159.10938v-16.51652h61.56156v16.51652z" fill="url(#color-11)" stroke="#91773e"/><path d="M190.9512,108.05833v-21.02102h75.07508v21.02102z" fill="url(#color-12)" stroke="#91773e"/></g></g></svg>