<svg version="1.1" xmlns="http://www.w3.org/2000/svg" xmlns:xlink="http://www.w3.org/1999/xlink" width="639.5" height="446.5" viewBox="0,0,639.5,446.5"><g transform="translate(79.75,43.25)"><g data-paper-data="{&quot;isPaintingLayer&quot;:true}" fill="#8c7427" fill-rule="nonzero" stroke="#ab8f20" stroke-width="7.5" stroke-linecap="butt" stroke-linejoin="miter" stroke-miterlimit="10" stroke-dasharray="" stroke-dashoffset="0" style="mix-blend-mode: normal"><g data-paper-data="{&quot;origPos&quot;:null}"><g data-paper-data="{&quot;origPos&quot;:null}"><g><path d="M-20,293.5h110v50h-110z"/><path d="M96,293.5h110v50h-110z"/><path d="M212,293.5h110v50h-110z"/><path d="M328,293.5h110v50h-110z"/><path d="M444,293.5h110v50h-110z"/></g><g><path d="M-76,349.5h110v50h-110z"/><path d="M40,349.5h110v50h-110z"/><path d="M156,349.5h110v50h-110z"/><path d="M272,349.5h110v50h-110z"/><path d="M388,349.5h110v50h-110z"/></g></g><g data-paper-data="{&quot;origPos&quot;:null}"><g><path d="M-20,182.5h110v50h-110z"/><path d="M96,182.5h110v50h-110z"/><path d="M212,182.5h110v50h-110z"/><path d="M328,182.5h110v50h-110z"/><path d="M444,182.5h110v50h-110z"/></g><g><path d="M-76,238.5h110v50h-110z"/><path d="M40,238.5h110v50h-110z"/><path d="M156,238.5h110v50h-110z"/><path d="M272,238.5h110v50h-110z"/><path d="M388,238.5h110v50h-110z"/></g></g><g data-paper-data="{&quot;origPos&quot;:null}"><g><path d="M-19,71.5h110v50h-110z"/><path d="M97,71.5h110v50h-110z"/><path d="M213,71.5h110v50h-110z"/><path d="M329,71.5h110v50h-110z"/><path d="M445,71.5h110v50h-110z"/></g><g><path d="M-75,127.5h110v50h-110z"/><path d="M41,127.5h110v50h-110z"/><path d="M157,127.5h110v50h-110z"/><path d="M273,127.5h110v50h-110z"/><path d="M389,127.5h110v50h-110z"/></g></g><g data-paper-data="{&quot;origPos&quot;:null}"><g><path d="M-18,-39.5h110v50h-110z"/><path d="M98,-39.5h110v50h-110z"/><path d="M214,-39.5h110v50h-110z"/><path d="M330,-39.5h110v50h-110z"/><path d="M446,-39.5h110v50h-110z"/></g><g><path d="M-74,16.5h110v50h-110z"/><path d="M42,16.5h110v50h-110z"/><path d="M158,16.5h110v50h-110z"/><path d="M274,16.5h110v50h-110z"/><path d="M390,16.5h110v50h-110z"/></g></g></g></g></g></svg>