<svg version="1.1" xmlns="http://www.w3.org/2000/svg" xmlns:xlink="http://www.w3.org/1999/xlink" width="117.79009" height="115" viewBox="0,0,117.79009,115"><defs><linearGradient x1="240.98741" y1="128.18555" x2="240.98741" y2="227.9968" gradientUnits="userSpaceOnUse" id="color-1"><stop offset="0" stop-color="#7fb8ff"/><stop offset="1" stop-color="#a0ff7b"/></linearGradient><linearGradient x1="243.28503" y1="207.36447" x2="243.28503" y2="234.36423" gradientUnits="userSpaceOnUse" id="color-2"><stop offset="0" stop-color="#76cfff"/><stop offset="1" stop-color="#76cfff" stop-opacity="0"/></linearGradient><linearGradient x1="261.22541" y1="200.17298" x2="261.22541" y2="228.47612" gradientUnits="userSpaceOnUse" id="color-3"><stop offset="0" stop-color="#f5e862"/><stop offset="1" stop-color="#e0bc5c"/></linearGradient><linearGradient x1="187.1772" y1="185.95319" x2="187.1772" y2="191.12249" gradientUnits="userSpaceOnUse" id="color-4"><stop offset="0" stop-color="#70b562"/><stop offset="1" stop-color="#457d49"/></linearGradient><linearGradient x1="189.12479" y1="182.57879" x2="189.12479" y2="187.74809" gradientUnits="userSpaceOnUse" id="color-5"><stop offset="0" stop-color="#70b562"/><stop offset="1" stop-color="#457d49"/></linearGradient><linearGradient x1="193.62439" y1="180.56851" x2="193.62439" y2="185.73781" gradientUnits="userSpaceOnUse" id="color-6"><stop offset="0" stop-color="#70b562"/><stop offset="1" stop-color="#457d49"/></linearGradient><linearGradient x1="194.5646" y1="184.94805" x2="194.5646" y2="190.11736" gradientUnits="userSpaceOnUse" id="color-7"><stop offset="0" stop-color="#70b562"/><stop offset="1" stop-color="#457d49"/></linearGradient><linearGradient x1="191.40817" y1="185.95319" x2="191.40817" y2="191.12249" gradientUnits="userSpaceOnUse" id="color-8"><stop offset="0" stop-color="#70b562"/><stop offset="1" stop-color="#457d49"/></linearGradient><linearGradient x1="198.66125" y1="185.8814" x2="198.66125" y2="191.0507" gradientUnits="userSpaceOnUse" id="color-9"><stop offset="0" stop-color="#70b562"/><stop offset="1" stop-color="#457d49"/></linearGradient><linearGradient x1="198.92988" y1="182.14802" x2="198.92988" y2="187.31732" gradientUnits="userSpaceOnUse" id="color-10"><stop offset="0" stop-color="#70b562"/><stop offset="1" stop-color="#457d49"/></linearGradient><linearGradient x1="202.85864" y1="178.84541" x2="202.85864" y2="184.01471" gradientUnits="userSpaceOnUse" id="color-11"><stop offset="0" stop-color="#70b562"/><stop offset="1" stop-color="#457d49"/></linearGradient><linearGradient x1="206.35086" y1="181.50186" x2="206.35086" y2="186.67115" gradientUnits="userSpaceOnUse" id="color-12"><stop offset="0" stop-color="#70b562"/><stop offset="1" stop-color="#457d49"/></linearGradient><linearGradient x1="203.06011" y1="183.08136" x2="203.06011" y2="188.25066" gradientUnits="userSpaceOnUse" id="color-13"><stop offset="0" stop-color="#70b562"/><stop offset="1" stop-color="#457d49"/></linearGradient><linearGradient x1="215.11501" y1="179.49157" x2="215.11501" y2="184.66087" gradientUnits="userSpaceOnUse" id="color-14"><stop offset="0" stop-color="#70b562"/><stop offset="1" stop-color="#457d49"/></linearGradient><linearGradient x1="205.51139" y1="185.73781" x2="205.51139" y2="190.90711" gradientUnits="userSpaceOnUse" id="color-15"><stop offset="0" stop-color="#70b562"/><stop offset="1" stop-color="#457d49"/></linearGradient><linearGradient x1="210.68257" y1="183.15316" x2="210.68257" y2="188.32246" gradientUnits="userSpaceOnUse" id="color-16"><stop offset="0" stop-color="#70b562"/><stop offset="1" stop-color="#457d49"/></linearGradient><linearGradient x1="215.75301" y1="183.29675" x2="215.75301" y2="188.46605" gradientUnits="userSpaceOnUse" id="color-17"><stop offset="0" stop-color="#70b562"/><stop offset="1" stop-color="#457d49"/></linearGradient><linearGradient x1="214.30911" y1="185.45062" x2="214.30911" y2="190.61993" gradientUnits="userSpaceOnUse" id="color-18"><stop offset="0" stop-color="#70b562"/><stop offset="1" stop-color="#457d49"/></linearGradient><linearGradient x1="210.38036" y1="185.95319" x2="210.38036" y2="191.12249" gradientUnits="userSpaceOnUse" id="color-19"><stop offset="0" stop-color="#70b562"/><stop offset="1" stop-color="#457d49"/></linearGradient><linearGradient x1="202.52285" y1="186.95833" x2="202.52285" y2="192.12764" gradientUnits="userSpaceOnUse" id="color-20"><stop offset="0" stop-color="#70b562"/><stop offset="1" stop-color="#457d49"/></linearGradient><linearGradient x1="194.86681" y1="187.5327" x2="194.86681" y2="192.70201" gradientUnits="userSpaceOnUse" id="color-21"><stop offset="0" stop-color="#70b562"/><stop offset="1" stop-color="#457d49"/></linearGradient><linearGradient x1="216.42459" y1="187.46091" x2="216.42459" y2="192.63021" gradientUnits="userSpaceOnUse" id="color-22"><stop offset="0" stop-color="#70b562"/><stop offset="1" stop-color="#457d49"/></linearGradient><linearGradient x1="218.55056" y1="185.95319" x2="218.55056" y2="191.12249" gradientUnits="userSpaceOnUse" id="color-23"><stop offset="0" stop-color="#70b562"/><stop offset="1" stop-color="#457d49"/></linearGradient><linearGradient x1="220.49814" y1="182.57879" x2="220.49814" y2="187.74809" gradientUnits="userSpaceOnUse" id="color-24"><stop offset="0" stop-color="#70b562"/><stop offset="1" stop-color="#457d49"/></linearGradient><linearGradient x1="224.99774" y1="180.56851" x2="224.99774" y2="185.73781" gradientUnits="userSpaceOnUse" id="color-25"><stop offset="0" stop-color="#70b562"/><stop offset="1" stop-color="#457d49"/></linearGradient><linearGradient x1="225.93796" y1="184.94805" x2="225.93796" y2="190.11736" gradientUnits="userSpaceOnUse" id="color-26"><stop offset="0" stop-color="#70b562"/><stop offset="1" stop-color="#457d49"/></linearGradient><linearGradient x1="222.78152" y1="185.95319" x2="222.78152" y2="191.12249" gradientUnits="userSpaceOnUse" id="color-27"><stop offset="0" stop-color="#70b562"/><stop offset="1" stop-color="#457d49"/></linearGradient><linearGradient x1="230.03461" y1="185.8814" x2="230.03461" y2="191.0507" gradientUnits="userSpaceOnUse" id="color-28"><stop offset="0" stop-color="#70b562"/><stop offset="1" stop-color="#457d49"/></linearGradient><linearGradient x1="230.30324" y1="182.14802" x2="230.30324" y2="187.31732" gradientUnits="userSpaceOnUse" id="color-29"><stop offset="0" stop-color="#70b562"/><stop offset="1" stop-color="#457d49"/></linearGradient><linearGradient x1="234.23199" y1="178.84541" x2="234.23199" y2="184.01471" gradientUnits="userSpaceOnUse" id="color-30"><stop offset="0" stop-color="#70b562"/><stop offset="1" stop-color="#457d49"/></linearGradient><linearGradient x1="237.72422" y1="181.50186" x2="237.72422" y2="186.67115" gradientUnits="userSpaceOnUse" id="color-31"><stop offset="0" stop-color="#70b562"/><stop offset="1" stop-color="#457d49"/></linearGradient><linearGradient x1="234.43347" y1="183.08136" x2="234.43347" y2="188.25066" gradientUnits="userSpaceOnUse" id="color-32"><stop offset="0" stop-color="#70b562"/><stop offset="1" stop-color="#457d49"/></linearGradient><linearGradient x1="246.48836" y1="179.49157" x2="246.48836" y2="184.66087" gradientUnits="userSpaceOnUse" id="color-33"><stop offset="0" stop-color="#70b562"/><stop offset="1" stop-color="#457d49"/></linearGradient><linearGradient x1="236.88474" y1="185.73781" x2="236.88474" y2="190.90711" gradientUnits="userSpaceOnUse" id="color-34"><stop offset="0" stop-color="#70b562"/><stop offset="1" stop-color="#457d49"/></linearGradient><linearGradient x1="242.05592" y1="183.15316" x2="242.05592" y2="188.32246" gradientUnits="userSpaceOnUse" id="color-35"><stop offset="0" stop-color="#70b562"/><stop offset="1" stop-color="#457d49"/></linearGradient><linearGradient x1="247.12637" y1="183.29674" x2="247.12637" y2="188.46605" gradientUnits="userSpaceOnUse" id="color-36"><stop offset="0" stop-color="#70b562"/><stop offset="1" stop-color="#457d49"/></linearGradient><linearGradient x1="245.68246" y1="185.45062" x2="245.68246" y2="190.61993" gradientUnits="userSpaceOnUse" id="color-37"><stop offset="0" stop-color="#70b562"/><stop offset="1" stop-color="#457d49"/></linearGradient><linearGradient x1="241.75371" y1="185.95319" x2="241.75371" y2="191.12249" gradientUnits="userSpaceOnUse" id="color-38"><stop offset="0" stop-color="#70b562"/><stop offset="1" stop-color="#457d49"/></linearGradient><linearGradient x1="233.8962" y1="186.95833" x2="233.8962" y2="192.12764" gradientUnits="userSpaceOnUse" id="color-39"><stop offset="0" stop-color="#70b562"/><stop offset="1" stop-color="#457d49"/></linearGradient><linearGradient x1="226.24017" y1="187.5327" x2="226.24017" y2="192.70201" gradientUnits="userSpaceOnUse" id="color-40"><stop offset="0" stop-color="#70b562"/><stop offset="1" stop-color="#457d49"/></linearGradient><linearGradient x1="247.79795" y1="187.46091" x2="247.79795" y2="192.63021" gradientUnits="userSpaceOnUse" id="color-41"><stop offset="0" stop-color="#70b562"/><stop offset="1" stop-color="#457d49"/></linearGradient><linearGradient x1="216.84488" y1="209.88763" x2="216.84488" y2="228.56324" gradientUnits="userSpaceOnUse" id="color-42"><stop offset="0" stop-color="#82721f"/><stop offset="1" stop-color="#a28e42"/></linearGradient><linearGradient x1="216.8685" y1="206.87952" x2="216.8685" y2="213.65109" gradientUnits="userSpaceOnUse" id="color-43"><stop offset="0" stop-color="#8fe3a6"/><stop offset="1" stop-color="#47b54b"/></linearGradient><radialGradient cx="239.99999" cy="180" r="58.89504" gradientUnits="userSpaceOnUse" id="color-44"><stop offset="0" stop-color="#ff0000"/><stop offset="1" stop-color="#ff0000" stop-opacity="0.91373"/></radialGradient></defs><g transform="translate(-181.10496,-121.625)"><g data-paper-data="{&quot;isPaintingLayer&quot;:true}" fill-rule="nonzero" stroke-linejoin="miter" stroke-miterlimit="10" stroke-dasharray="" stroke-dashoffset="0" style="mix-blend-mode: normal"><path d="M187.15116,227.9968v-99.81125h107.6725v99.81125z" fill="url(#color-1)" stroke="none" stroke-width="0" stroke-linecap="butt"/><path d="M192.21116,227.38154v-20.01707h102.14775v20.01707z" data-paper-data="{&quot;origPos&quot;:null,&quot;index&quot;:null}" fill="url(#color-2)" stroke="none" stroke-width="NaN" stroke-linecap="butt"/><path d="M244.64288,200.1962c4.82711,0.68766 13.09882,4.78673 15.59469,5.23702c2.49586,0.45029 3.66156,-2.1432 6.28443,-2.21119c5.54473,-0.14371 3.0233,2.26994 13.61626,4.07324c3.37472,0.5745 -13.46087,3.06079 -14.31453,4.42238c-1.3496,2.15264 4.47776,2.04283 2.79307,3.02584c-2.44094,1.42426 -7.06526,1.66439 -10.54093,2.72285c-3.5848,1.09169 -4.66807,2.00825 -5.28652,3.91071c-0.61845,1.90246 3.99167,2.5002 2.6767,3.25859c-3.66468,2.11353 -9.89215,3.84049 -9.89215,3.84049c0,0 -7.6822,-29.24168 -0.93103,-28.27992z" fill="url(#color-3)" stroke="#e0bd5c" stroke-width="2" stroke-linecap="round"/><g data-paper-data="{&quot;index&quot;:null}" stroke="none" stroke-width="1" stroke-linecap="butt"><path d="M256.08336,159.48098c3.60178,0 6.86564,0.93894 9.22906,2.45581c2.36341,1.51687 3.82639,3.61169 3.82639,5.92343c0,2.31174 -1.46297,4.40654 -3.82639,5.92342c-2.36341,1.51687 -5.62727,2.45582 -9.22906,2.45582c-3.60178,0 -6.86563,-0.93894 -9.22905,-2.45582c-2.36342,-1.51687 -3.82639,-3.61168 -3.82639,-5.92342c0,-2.31174 1.46297,-4.40655 3.82639,-5.92343c2.36342,-1.51687 5.62727,-2.45581 9.22905,-2.45581z" fill="#ffffff"/><path d="M272.30759,155.75688c3.60178,0 6.86563,0.93893 9.22905,2.45581c2.36341,1.51687 3.82639,3.61169 3.82639,5.92343c0,2.31174 -1.46297,4.40654 -3.82639,5.92342c-2.36341,1.51687 -5.62727,2.45582 -9.22905,2.45582c-3.60178,0 -6.86564,-0.93894 -9.22906,-2.45582c-2.36341,-1.51687 -3.82639,-3.61168 -3.82639,-5.92342c0,-2.31174 1.46297,-4.40655 3.82639,-5.92343c2.36341,-1.51687 5.62727,-2.45581 9.22906,-2.45581z" fill="#ffffff"/><g fill="#4a4f54"><path d="M258.99865,163.08871c0.31485,0 0.60004,0.2544 0.80639,0.66521c0.20661,0.41082 0.33437,0.97805 0.33437,1.60416c0,0.62611 -0.12777,1.19334 -0.33437,1.60416c-0.20635,0.41082 -0.49154,0.66521 -0.80639,0.66521c-0.31485,0 -0.60004,-0.2544 -0.8064,-0.66521c-0.20661,-0.41082 -0.33437,-0.97805 -0.33437,-1.60416c0,-0.62611 0.12777,-1.19334 0.33437,-1.60416c0.20635,-0.41082 0.49155,-0.66521 0.8064,-0.66521z"/><path d="M264.32223,162.97233c0.31485,0 0.60004,0.2544 0.8064,0.66522c0.20661,0.41082 0.33437,0.97804 0.33437,1.60416c0,0.62611 -0.12776,1.19334 -0.33437,1.60416c-0.20635,0.41082 -0.49155,0.66522 -0.8064,0.66522c-0.31485,0 -0.60004,-0.2544 -0.8064,-0.66522c-0.20661,-0.41082 -0.33437,-0.97804 -0.33437,-1.60416c0,-0.62611 0.12776,-1.19334 0.33437,-1.60416c0.20635,-0.41082 0.49155,-0.66522 0.8064,-0.66522z"/></g></g><g data-paper-data="{&quot;index&quot;:null}" stroke="none" stroke-width="1" stroke-linecap="butt"><path d="M238.95885,143.08352c2.36342,1.51687 3.82638,3.61168 3.82638,5.92342c0,2.31174 -1.46296,4.40654 -3.82638,5.92342c-2.36342,1.51687 -5.62727,2.45582 -9.22905,2.45582c-3.60178,0 -6.86564,-0.93894 -9.22906,-2.45582c-2.36342,-1.51687 -3.82638,-3.61168 -3.82638,-5.92342c0,-2.31174 1.46296,-4.40654 3.82638,-5.92342c2.36342,-1.51687 5.62728,-2.45582 9.22906,-2.45582c3.60178,0 6.86564,0.93894 9.22905,2.45582z" fill="#ffffff"/><path d="M222.73461,139.35941c2.36342,1.51687 3.82638,3.61168 3.82638,5.92342c0,2.31174 -1.46297,4.40655 -3.82638,5.92342c-2.36342,1.51687 -5.62727,2.45582 -9.22905,2.45582c-3.60178,0 -6.86564,-0.93894 -9.22906,-2.45582c-2.36342,-1.51687 -3.82638,-3.61168 -3.82638,-5.92342c0,-2.31174 1.46297,-4.40654 3.82638,-5.92342c2.36342,-1.51687 5.62728,-2.45582 9.22906,-2.45582c3.60178,0 6.86563,0.93894 9.22905,2.45582z" fill="#ffffff"/><g fill="#4a4f54"><path d="M227.62089,144.90065c0.2066,0.41082 0.33437,0.97804 0.33437,1.60415c0,0.62611 -0.12777,1.19334 -0.33437,1.60416c-0.20635,0.41082 -0.49154,0.66522 -0.80639,0.66522c-0.31485,0 -0.60004,-0.2544 -0.8064,-0.66522c-0.2066,-0.41082 -0.33437,-0.97805 -0.33437,-1.60416c0,-0.62611 0.12777,-1.19334 0.33437,-1.60415c0.20635,-0.41082 0.49155,-0.66522 0.8064,-0.66522c0.31485,0 0.60003,0.2544 0.80639,0.66522z"/><path d="M222.29732,144.78427c0.2066,0.41082 0.33437,0.97805 0.33437,1.60416c0,0.62611 -0.12776,1.19334 -0.33437,1.60415c-0.20635,0.41082 -0.49155,0.66522 -0.8064,0.66522c-0.31485,0 -0.60004,-0.2544 -0.8064,-0.66522c-0.2066,-0.41082 -0.33437,-0.97804 -0.33437,-1.60415c0,-0.62611 0.12777,-1.19334 0.33437,-1.60416c0.20635,-0.41082 0.49155,-0.66522 0.8064,-0.66522c0.31485,0 0.60004,0.2544 0.8064,0.66522z"/></g></g><g stroke="#c0a968" stroke-width="1.5" stroke-linecap="round"><path d="M263.55808,205.39416l13.14827,0.0996" data-paper-data="{&quot;origPos&quot;:null}" fill="none"/><path d="M264.85299,204.39808h11.15611" data-paper-data="{&quot;origPos&quot;:null}" fill="none"/><path d="M265.74946,196.031l3.08785,-3.28707h3.28707l3.18746,3.18746l-0.09961,7.27139h-9.36316z" data-paper-data="{&quot;origPos&quot;:null}" fill="#995900"/><path d="M267.74162,203.50161v1.69334" data-paper-data="{&quot;origPos&quot;:null}" fill="none"/><path d="M273.02086,203.60122v1.59373" data-paper-data="{&quot;origPos&quot;:null}" fill="none"/><path d="M268.73771,192.84354l2.68942,3.08785l-0.09961,6.97257" data-paper-data="{&quot;origPos&quot;:null}" fill="none"/><path d="M275.11262,196.23021h-9.16395" data-paper-data="{&quot;origPos&quot;:null}" fill="none"/></g><g stroke-width="1.5" stroke-linecap="butt"><g><g data-paper-data="{&quot;origPos&quot;:null}" fill="#5d5a32" stroke="#5b5c37"><path d="M194.90585,208.05434v-17.8425h3.41614v17.8425z" data-paper-data="{&quot;origPos&quot;:null}"/><path d="M208.44618,207.4556v-17.8425h3.41614v17.8425z" data-paper-data="{&quot;origPos&quot;:null}"/><path d="M202.04868,207.69509v-17.8425h3.41614v17.8425z" data-paper-data="{&quot;origPos&quot;:null}"/><path d="M215.03,207.57535v-17.8425h3.41614v17.8425z" data-paper-data="{&quot;origPos&quot;:null}"/><path d="M221.11693,208.05434v-17.8425h7.92121v17.8425z" data-paper-data="{&quot;origPos&quot;:null}"/></g><path d="M234.23952,207.57535v-17.8425h3.41614v17.8425z" data-paper-data="{&quot;origPos&quot;:null}" fill="#5d5a32" stroke="#5b5c37"/><g data-paper-data="{&quot;origPos&quot;:null}" fill="#7f7a45" stroke="#737446"><path d="M198.33827,207.69303v-18.09374h4.98534v18.09374z" data-paper-data="{&quot;origPos&quot;:null}"/><path d="M218.09834,207.08585v-18.09374h4.98534v18.09374z" data-paper-data="{&quot;origPos&quot;:null}"/><path d="M208.76216,207.32872v-18.09374h7.1602v18.09374z" data-paper-data="{&quot;origPos&quot;:null}"/><path d="M227.70645,207.20729v-18.09374h4.98534v18.09374z" data-paper-data="{&quot;origPos&quot;:null}"/><path d="M236.58941,207.69303v-18.09374h4.98534v18.09374z" data-paper-data="{&quot;origPos&quot;:null}"/></g><g data-paper-data="{&quot;origPos&quot;:null}" fill="#9e9755" stroke="#787a49"><path d="M188.16144,207.81347v-17.94494h6.80474v17.94494z" data-paper-data="{&quot;origPos&quot;:null}"/><path d="M215.13296,207.21129v-17.94494h6.80474v17.94494z" data-paper-data="{&quot;origPos&quot;:null}"/><path d="M202.38954,207.45216v-17.94494h6.80474v17.94494z" data-paper-data="{&quot;origPos&quot;:null}"/><path d="M228.24755,207.33172v-17.94494h6.80474v17.94494z" data-paper-data="{&quot;origPos&quot;:null}"/><path d="M240.759,207.81347v-17.94494h6.80474v17.94494z" data-paper-data="{&quot;origPos&quot;:null}"/></g><g data-paper-data="{&quot;origPos&quot;:null}" stroke="#4a7b50"><g data-paper-data="{&quot;origPos&quot;:null}"><path d="M189.62216,186.71071c0.62612,0.46789 1.01369,1.11406 1.01369,1.82713c0,0.71308 -0.38757,1.35924 -1.01369,1.82713c-0.62612,0.46789 -1.49078,0.75752 -2.44496,0.75752c-0.95418,0 -1.81885,-0.28963 -2.44496,-0.75752c-0.62612,-0.46789 -1.01369,-1.11406 -1.01369,-1.82713c0,-0.71308 0.38757,-1.35924 1.01369,-1.82713c0.62612,-0.46789 1.49078,-0.75752 2.44496,-0.75752c0.95418,0 1.81884,0.28962 2.44496,0.75752z" data-paper-data="{&quot;origPos&quot;:null}" fill="url(#color-4)"/><path d="M191.56975,183.33631c0.62612,0.46789 1.01369,1.11406 1.01369,1.82713c0,0.71308 -0.38757,1.35924 -1.01369,1.82713c-0.62612,0.46789 -1.49078,0.75752 -2.44496,0.75752c-0.95418,0 -1.81885,-0.28962 -2.44496,-0.75752c-0.62612,-0.46789 -1.01369,-1.11406 -1.01369,-1.82713c0,-0.71308 0.38757,-1.35924 1.01369,-1.82713c0.62612,-0.46789 1.49078,-0.75752 2.44496,-0.75752c0.95418,0 1.81884,0.28963 2.44496,0.75752z" data-paper-data="{&quot;origPos&quot;:null}" fill="url(#color-5)"/><path d="M196.06935,181.32603c0.62612,0.46789 1.01369,1.11406 1.01369,1.82713c0,0.71308 -0.38757,1.35924 -1.01369,1.82713c-0.62612,0.46789 -1.49078,0.75752 -2.44496,0.75752c-0.95418,0 -1.81885,-0.28962 -2.44496,-0.75752c-0.62612,-0.46789 -1.01369,-1.11406 -1.01369,-1.82713c0,-0.71308 0.38757,-1.35924 1.01369,-1.82713c0.62612,-0.46789 1.49078,-0.75752 2.44496,-0.75752c0.95418,0 1.81885,0.28963 2.44496,0.75752z" data-paper-data="{&quot;origPos&quot;:null}" fill="url(#color-6)"/><path d="M197.00956,185.70557c0.62612,0.46789 1.01369,1.11406 1.01369,1.82713c0,0.71308 -0.38757,1.35924 -1.01369,1.82713c-0.62612,0.46789 -1.49078,0.75752 -2.44496,0.75752c-0.95418,0 -1.81884,-0.28962 -2.44496,-0.75752c-0.62612,-0.46789 -1.01369,-1.11406 -1.01369,-1.82713c0,-0.71308 0.38757,-1.35924 1.01369,-1.82713c0.62612,-0.46789 1.49078,-0.75752 2.44496,-0.75752c0.95418,0 1.81884,0.28963 2.44496,0.75752z" data-paper-data="{&quot;origPos&quot;:null}" fill="url(#color-7)"/><path d="M193.85313,186.71071c0.62612,0.46789 1.01369,1.11406 1.01369,1.82713c0,0.71308 -0.38757,1.35924 -1.01369,1.82713c-0.62612,0.46789 -1.49078,0.75752 -2.44496,0.75752c-0.95418,0 -1.81884,-0.28963 -2.44496,-0.75752c-0.62612,-0.46789 -1.01369,-1.11406 -1.01369,-1.82713c0,-0.71308 0.38757,-1.35924 1.01369,-1.82713c0.62612,-0.46789 1.49078,-0.75752 2.44496,-0.75752c0.95418,0 1.81885,0.28962 2.44496,0.75752z" data-paper-data="{&quot;origPos&quot;:null}" fill="url(#color-8)"/><path d="M201.10621,186.63891c0.62612,0.46789 1.01369,1.11406 1.01369,1.82713c0,0.71308 -0.38757,1.35924 -1.01369,1.82713c-0.62612,0.46789 -1.49078,0.75752 -2.44496,0.75752c-0.95418,0 -1.81884,-0.28962 -2.44496,-0.75752c-0.62612,-0.46789 -1.01369,-1.11406 -1.01369,-1.82713c0,-0.71308 0.38757,-1.35924 1.01369,-1.82713c0.62612,-0.46789 1.49078,-0.75752 2.44496,-0.75752c0.95418,0 1.81885,0.28962 2.44496,0.75752z" data-paper-data="{&quot;origPos&quot;:null}" fill="url(#color-9)"/><path d="M201.37485,182.90553c0.62612,0.46789 1.01369,1.11406 1.01369,1.82713c0,0.71308 -0.38757,1.35924 -1.01369,1.82713c-0.62612,0.46789 -1.49078,0.75752 -2.44496,0.75752c-0.95418,0 -1.81885,-0.28962 -2.44496,-0.75752c-0.62612,-0.46789 -1.01369,-1.11406 -1.01369,-1.82713c0,-0.71308 0.38757,-1.35924 1.01369,-1.82713c0.62612,-0.46789 1.49078,-0.75752 2.44496,-0.75752c0.95418,0 1.81884,0.28962 2.44496,0.75752z" data-paper-data="{&quot;origPos&quot;:null}" fill="url(#color-10)"/><path d="M205.3036,179.60293c0.62612,0.46789 1.01369,1.11406 1.01369,1.82713c0,0.71308 -0.38757,1.35924 -1.01369,1.82713c-0.62612,0.46789 -1.49078,0.75752 -2.44496,0.75752c-0.95418,0 -1.81885,-0.28962 -2.44496,-0.75752c-0.62612,-0.46789 -1.01369,-1.11406 -1.01369,-1.82713c0,-0.71308 0.38757,-1.35924 1.01369,-1.82713c0.62612,-0.46789 1.49078,-0.75752 2.44496,-0.75752c0.95418,0 1.81885,0.28963 2.44496,0.75752z" data-paper-data="{&quot;origPos&quot;:null}" fill="url(#color-11)"/><path d="M208.79583,182.25937c0.62612,0.46789 1.01369,1.11406 1.01369,1.82713c0,0.71308 -0.38757,1.35924 -1.01369,1.82713c-0.62612,0.46789 -1.49078,0.75752 -2.44496,0.75752c-0.95418,0 -1.81885,-0.28962 -2.44496,-0.75752c-0.62612,-0.46789 -1.01369,-1.11406 -1.01369,-1.82713c0,-0.71308 0.38757,-1.35924 1.01369,-1.82713c0.62612,-0.46789 1.49078,-0.75752 2.44496,-0.75752c0.95418,0 1.81885,0.28962 2.44496,0.75752z" data-paper-data="{&quot;origPos&quot;:null}" fill="url(#color-12)"/><path d="M205.50507,183.83888c0.62612,0.46789 1.01369,1.11406 1.01369,1.82713c0,0.71308 -0.38757,1.35924 -1.01369,1.82713c-0.62612,0.46789 -1.49078,0.75752 -2.44496,0.75752c-0.95418,0 -1.81884,-0.28963 -2.44496,-0.75752c-0.62612,-0.46789 -1.01369,-1.11406 -1.01369,-1.82713c0,-0.71308 0.38757,-1.35924 1.01369,-1.82713c0.62612,-0.46789 1.49078,-0.75752 2.44496,-0.75752c0.95418,0 1.81885,0.28962 2.44496,0.75752z" data-paper-data="{&quot;origPos&quot;:null}" fill="url(#color-13)"/><path d="M217.55997,180.24909c0.62612,0.46789 1.01369,1.11405 1.01369,1.82713c0,0.71308 -0.38757,1.35924 -1.01369,1.82713c-0.62612,0.46789 -1.49078,0.75752 -2.44496,0.75752c-0.95418,0 -1.81885,-0.28962 -2.44496,-0.75752c-0.62612,-0.46789 -1.01369,-1.11406 -1.01369,-1.82713c0,-0.71308 0.38757,-1.35924 1.01369,-1.82713c0.62612,-0.46789 1.49078,-0.75752 2.44496,-0.75752c0.95418,0 1.81885,0.28963 2.44496,0.75752z" data-paper-data="{&quot;origPos&quot;:null}" fill="url(#color-14)"/><path d="M207.95635,186.49532c0.62612,0.46789 1.01369,1.11406 1.01369,1.82713c0,0.71308 -0.38757,1.35924 -1.01369,1.82713c-0.62612,0.46789 -1.49078,0.75752 -2.44496,0.75752c-0.95418,0 -1.81885,-0.28963 -2.44496,-0.75752c-0.62612,-0.46789 -1.01369,-1.11406 -1.01369,-1.82713c0,-0.71308 0.38757,-1.35924 1.01369,-1.82713c0.62612,-0.46789 1.49078,-0.75752 2.44496,-0.75752c0.95418,0 1.81885,0.28962 2.44496,0.75752z" data-paper-data="{&quot;origPos&quot;:null}" fill="url(#color-15)"/><path d="M213.12753,183.91068c0.62612,0.46789 1.01369,1.11406 1.01369,1.82713c0,0.71308 -0.38757,1.35924 -1.01369,1.82713c-0.62612,0.46789 -1.49078,0.75752 -2.44496,0.75752c-0.95418,0 -1.81885,-0.28963 -2.44496,-0.75752c-0.62612,-0.46789 -1.01369,-1.11405 -1.01369,-1.82713c0,-0.71308 0.38757,-1.35924 1.01369,-1.82713c0.62612,-0.46789 1.49078,-0.75752 2.44496,-0.75752c0.95418,0 1.81884,0.28963 2.44496,0.75752z" data-paper-data="{&quot;origPos&quot;:null}" fill="url(#color-16)"/><path d="M218.19797,184.05427c0.62612,0.46789 1.01369,1.11406 1.01369,1.82713c0,0.71308 -0.38757,1.35924 -1.01369,1.82713c-0.62612,0.46789 -1.49078,0.75752 -2.44496,0.75752c-0.95418,0 -1.81885,-0.28963 -2.44496,-0.75752c-0.62612,-0.46789 -1.01369,-1.11406 -1.01369,-1.82713c0,-0.71308 0.38757,-1.35924 1.01369,-1.82713c0.62612,-0.46789 1.49078,-0.75752 2.44496,-0.75752c0.95418,0 1.81885,0.28962 2.44496,0.75752z" data-paper-data="{&quot;origPos&quot;:null}" fill="url(#color-17)"/><path d="M216.75407,186.20814c0.62612,0.46789 1.01369,1.11406 1.01369,1.82713c0,0.71308 -0.38757,1.35924 -1.01369,1.82713c-0.62612,0.46789 -1.49078,0.75752 -2.44496,0.75752c-0.95418,0 -1.81885,-0.28962 -2.44496,-0.75752c-0.62612,-0.46789 -1.01369,-1.11406 -1.01369,-1.82713c0,-0.71308 0.38757,-1.35924 1.01369,-1.82713c0.62612,-0.46789 1.49078,-0.75752 2.44496,-0.75752c0.95418,0 1.81885,0.28962 2.44496,0.75752z" data-paper-data="{&quot;origPos&quot;:null}" fill="url(#color-18)"/><path d="M212.82532,186.71071c0.62612,0.46789 1.01369,1.11406 1.01369,1.82713c0,0.71308 -0.38757,1.35924 -1.01369,1.82713c-0.62612,0.46789 -1.49078,0.75752 -2.44496,0.75752c-0.95418,0 -1.81885,-0.28963 -2.44496,-0.75752c-0.62612,-0.46789 -1.01369,-1.11406 -1.01369,-1.82713c0,-0.71308 0.38757,-1.35924 1.01369,-1.82713c0.62612,-0.46789 1.49078,-0.75752 2.44496,-0.75752c0.95418,0 1.81885,0.28962 2.44496,0.75752z" data-paper-data="{&quot;origPos&quot;:null}" fill="url(#color-19)"/><path d="M204.96781,187.71585c0.62612,0.46789 1.01369,1.11406 1.01369,1.82713c0,0.71308 -0.38757,1.35924 -1.01369,1.82713c-0.62612,0.46789 -1.49078,0.75752 -2.44496,0.75752c-0.95418,0 -1.81885,-0.28962 -2.44496,-0.75752c-0.62612,-0.46789 -1.01369,-1.11406 -1.01369,-1.82713c0,-0.71308 0.38757,-1.35924 1.01369,-1.82713c0.62612,-0.46789 1.49078,-0.75752 2.44496,-0.75752c0.95418,0 1.81885,0.28962 2.44496,0.75752z" data-paper-data="{&quot;origPos&quot;:null}" fill="url(#color-20)"/><path d="M197.31177,188.29022c0.62612,0.46789 1.01369,1.11406 1.01369,1.82713c0,0.71308 -0.38757,1.35924 -1.01369,1.82713c-0.62612,0.46789 -1.49078,0.75752 -2.44496,0.75752c-0.95418,0 -1.81885,-0.28962 -2.44496,-0.75752c-0.62612,-0.46789 -1.01369,-1.11406 -1.01369,-1.82713c0,-0.71308 0.38757,-1.35924 1.01369,-1.82713c0.62612,-0.46789 1.49078,-0.75752 2.44496,-0.75752c0.95418,0 1.81884,0.28963 2.44496,0.75752z" data-paper-data="{&quot;origPos&quot;:null}" fill="url(#color-21)"/><path d="M218.86956,188.21842c0.62612,0.46789 1.01369,1.11406 1.01369,1.82713c0,0.71308 -0.38757,1.35924 -1.01369,1.82713c-0.62612,0.46789 -1.49078,0.75752 -2.44496,0.75752c-0.95418,0 -1.81885,-0.28963 -2.44496,-0.75752c-0.62612,-0.46789 -1.01369,-1.11406 -1.01369,-1.82713c0,-0.71308 0.38757,-1.35924 1.01369,-1.82713c0.62612,-0.46789 1.49078,-0.75752 2.44496,-0.75752c0.95418,0 1.81885,0.28962 2.44496,0.75752z" data-paper-data="{&quot;origPos&quot;:null}" fill="url(#color-22)"/></g><g data-paper-data="{&quot;origPos&quot;:null}"><path d="M220.99552,186.71071c0.62612,0.46789 1.01369,1.11405 1.01369,1.82713c0,0.71308 -0.38757,1.35924 -1.01369,1.82713c-0.62612,0.46789 -1.49078,0.75752 -2.44496,0.75752c-0.95418,0 -1.81885,-0.28962 -2.44496,-0.75752c-0.62612,-0.46789 -1.01368,-1.11406 -1.01368,-1.82713c0,-0.71308 0.38757,-1.35924 1.01368,-1.82713c0.62612,-0.46789 1.49078,-0.75752 2.44496,-0.75752c0.95418,0 1.81885,0.28962 2.44496,0.75752z" data-paper-data="{&quot;origPos&quot;:null}" fill="url(#color-23)"/><path d="M222.9431,183.33631c0.62612,0.46789 1.01369,1.11406 1.01369,1.82713c0,0.71308 -0.38757,1.35924 -1.01369,1.82713c-0.62612,0.46789 -1.49078,0.75752 -2.44496,0.75752c-0.95418,0 -1.81885,-0.28963 -2.44496,-0.75752c-0.62612,-0.46789 -1.01369,-1.11406 -1.01369,-1.82713c0,-0.71308 0.38757,-1.35924 1.01369,-1.82713c0.62612,-0.46789 1.49078,-0.75752 2.44496,-0.75752c0.95418,0 1.81884,0.28963 2.44496,0.75752z" data-paper-data="{&quot;origPos&quot;:null}" fill="url(#color-24)"/><path d="M227.4427,181.32603c0.62612,0.46789 1.01369,1.11406 1.01369,1.82713c0,0.71308 -0.38757,1.35924 -1.01369,1.82713c-0.62612,0.46789 -1.49078,0.75752 -2.44496,0.75752c-0.95418,0 -1.81884,-0.28962 -2.44496,-0.75752c-0.62612,-0.46789 -1.01369,-1.11406 -1.01369,-1.82713c0,-0.71308 0.38757,-1.35924 1.01369,-1.82713c0.62612,-0.46789 1.49078,-0.75752 2.44496,-0.75752c0.95418,0 1.81885,0.28962 2.44496,0.75752z" data-paper-data="{&quot;origPos&quot;:null}" fill="url(#color-25)"/><path d="M228.38292,185.70557c0.62612,0.46789 1.01369,1.11406 1.01369,1.82713c0,0.71308 -0.38757,1.35924 -1.01369,1.82713c-0.62612,0.46789 -1.49078,0.75752 -2.44496,0.75752c-0.95418,0 -1.81885,-0.28962 -2.44496,-0.75752c-0.62612,-0.46789 -1.01369,-1.11406 -1.01369,-1.82713c0,-0.71308 0.38757,-1.35924 1.01369,-1.82713c0.62612,-0.46789 1.49078,-0.75752 2.44496,-0.75752c0.95418,0 1.81884,0.28963 2.44496,0.75752z" data-paper-data="{&quot;origPos&quot;:null}" fill="url(#color-26)"/><path d="M225.22648,186.71071c0.62612,0.46789 1.01369,1.11405 1.01369,1.82713c0,0.71308 -0.38757,1.35924 -1.01369,1.82713c-0.62612,0.46789 -1.49078,0.75752 -2.44496,0.75752c-0.95418,0 -1.81885,-0.28962 -2.44496,-0.75752c-0.62612,-0.46789 -1.01369,-1.11406 -1.01369,-1.82713c0,-0.71308 0.38757,-1.35924 1.01369,-1.82713c0.62612,-0.46789 1.49078,-0.75752 2.44496,-0.75752c0.95418,0 1.81884,0.28962 2.44496,0.75752z" data-paper-data="{&quot;origPos&quot;:null}" fill="url(#color-27)"/><path d="M232.47957,186.63891c0.62612,0.46789 1.01369,1.11406 1.01369,1.82713c0,0.71308 -0.38757,1.35924 -1.01369,1.82713c-0.62612,0.46789 -1.49078,0.75752 -2.44496,0.75752c-0.95418,0 -1.81885,-0.28962 -2.44496,-0.75752c-0.62612,-0.46789 -1.01369,-1.11406 -1.01369,-1.82713c0,-0.71308 0.38757,-1.35924 1.01369,-1.82713c0.62612,-0.46789 1.49078,-0.75752 2.44496,-0.75752c0.95418,0 1.81885,0.28962 2.44496,0.75752z" data-paper-data="{&quot;origPos&quot;:null}" fill="url(#color-28)"/><path d="M232.7482,182.90553c0.62612,0.46789 1.01369,1.11406 1.01369,1.82713c0,0.71308 -0.38757,1.35924 -1.01369,1.82713c-0.62612,0.46789 -1.49078,0.75752 -2.44496,0.75752c-0.95418,0 -1.81884,-0.28962 -2.44496,-0.75752c-0.62612,-0.46789 -1.01369,-1.11406 -1.01369,-1.82713c0,-0.71308 0.38757,-1.35924 1.01369,-1.82713c0.62612,-0.46789 1.49078,-0.75752 2.44496,-0.75752c0.95418,0 1.81885,0.28962 2.44496,0.75752z" data-paper-data="{&quot;origPos&quot;:null}" fill="url(#color-29)"/><path d="M236.67695,179.60293c0.62612,0.46789 1.01369,1.11406 1.01369,1.82713c0,0.71308 -0.38757,1.35924 -1.01369,1.82713c-0.62612,0.46789 -1.49078,0.75752 -2.44496,0.75752c-0.95418,0 -1.81885,-0.28963 -2.44496,-0.75752c-0.62612,-0.46789 -1.01369,-1.11406 -1.01369,-1.82713c0,-0.71308 0.38757,-1.35924 1.01369,-1.82713c0.62612,-0.46789 1.49078,-0.75752 2.44496,-0.75752c0.95418,0 1.81885,0.28963 2.44496,0.75752z" data-paper-data="{&quot;origPos&quot;:null}" fill="url(#color-30)"/><path d="M240.16918,182.25937c0.62612,0.46789 1.01369,1.11406 1.01369,1.82713c0,0.71308 -0.38757,1.35924 -1.01369,1.82713c-0.62612,0.46789 -1.49078,0.75752 -2.44496,0.75752c-0.95418,0 -1.81885,-0.28962 -2.44496,-0.75752c-0.62612,-0.46789 -1.01369,-1.11406 -1.01369,-1.82713c0,-0.71308 0.38757,-1.35924 1.01369,-1.82713c0.62612,-0.46789 1.49078,-0.75752 2.44496,-0.75752c0.95418,0 1.81884,0.28962 2.44496,0.75752z" data-paper-data="{&quot;origPos&quot;:null}" fill="url(#color-31)"/><path d="M236.87843,183.83888c0.62612,0.46789 1.01369,1.11406 1.01369,1.82713c0,0.71308 -0.38757,1.35924 -1.01369,1.82713c-0.62612,0.46789 -1.49078,0.75752 -2.44496,0.75752c-0.95418,0 -1.81885,-0.28962 -2.44496,-0.75752c-0.62612,-0.46789 -1.01369,-1.11406 -1.01369,-1.82713c0,-0.71308 0.38757,-1.35924 1.01369,-1.82713c0.62612,-0.46789 1.49078,-0.75752 2.44496,-0.75752c0.95418,0 1.81885,0.28962 2.44496,0.75752z" data-paper-data="{&quot;origPos&quot;:null}" fill="url(#color-32)"/><path d="M248.93332,180.24909c0.62612,0.46789 1.01369,1.11405 1.01369,1.82713c0,0.71308 -0.38757,1.35924 -1.01369,1.82713c-0.62612,0.46789 -1.49078,0.75752 -2.44496,0.75752c-0.95418,0 -1.81885,-0.28963 -2.44496,-0.75752c-0.62612,-0.46789 -1.01369,-1.11406 -1.01369,-1.82713c0,-0.71308 0.38757,-1.35924 1.01369,-1.82713c0.62612,-0.46789 1.49078,-0.75752 2.44496,-0.75752c0.95418,0 1.81884,0.28963 2.44496,0.75752z" data-paper-data="{&quot;origPos&quot;:null}" fill="url(#color-33)"/><path d="M239.3297,186.49532c0.62612,0.46789 1.01369,1.11406 1.01369,1.82713c0,0.71308 -0.38757,1.35924 -1.01369,1.82713c-0.62612,0.46789 -1.49078,0.75752 -2.44496,0.75752c-0.95418,0 -1.81885,-0.28962 -2.44496,-0.75752c-0.62612,-0.46789 -1.01369,-1.11406 -1.01369,-1.82713c0,-0.71308 0.38757,-1.35924 1.01369,-1.82713c0.62612,-0.46789 1.49078,-0.75752 2.44496,-0.75752c0.95418,0 1.81884,0.28962 2.44496,0.75752z" data-paper-data="{&quot;origPos&quot;:null}" fill="url(#color-34)"/><path d="M244.50088,183.91068c0.62612,0.46789 1.01369,1.11406 1.01369,1.82713c0,0.71308 -0.38757,1.35924 -1.01369,1.82713c-0.62612,0.46789 -1.49078,0.75752 -2.44496,0.75752c-0.95418,0 -1.81885,-0.28963 -2.44496,-0.75752c-0.62612,-0.46789 -1.01369,-1.11405 -1.01369,-1.82713c0,-0.71308 0.38757,-1.35924 1.01369,-1.82713c0.62612,-0.46789 1.49078,-0.75752 2.44496,-0.75752c0.95418,0 1.81884,0.28962 2.44496,0.75752z" data-paper-data="{&quot;origPos&quot;:null}" fill="url(#color-35)"/><path d="M249.57133,184.05427c0.62612,0.46789 1.01369,1.11406 1.01369,1.82713c0,0.71308 -0.38757,1.35924 -1.01369,1.82713c-0.62612,0.46789 -1.49078,0.75752 -2.44496,0.75752c-0.95418,0 -1.81884,-0.28963 -2.44496,-0.75752c-0.62612,-0.46789 -1.01369,-1.11406 -1.01369,-1.82713c0,-0.71308 0.38757,-1.35924 1.01369,-1.82713c0.62612,-0.46789 1.49078,-0.75752 2.44496,-0.75752c0.95418,0 1.81885,0.28963 2.44496,0.75752z" data-paper-data="{&quot;origPos&quot;:null}" fill="url(#color-36)"/><path d="M248.12743,186.20814c0.62612,0.46789 1.01369,1.11406 1.01369,1.82713c0,0.71308 -0.38757,1.35924 -1.01369,1.82713c-0.62612,0.46789 -1.49078,0.75752 -2.44496,0.75752c-0.95418,0 -1.81885,-0.28963 -2.44496,-0.75752c-0.62612,-0.46789 -1.01369,-1.11406 -1.01369,-1.82713c0,-0.71308 0.38757,-1.35924 1.01369,-1.82713c0.62612,-0.46789 1.49078,-0.75752 2.44496,-0.75752c0.95418,0 1.81885,0.28962 2.44496,0.75752z" data-paper-data="{&quot;origPos&quot;:null}" fill="url(#color-37)"/><path d="M244.19867,186.71071c0.62612,0.46789 1.01369,1.11405 1.01369,1.82713c0,0.71308 -0.38757,1.35924 -1.01369,1.82713c-0.62612,0.46789 -1.49078,0.75752 -2.44496,0.75752c-0.95418,0 -1.81885,-0.28962 -2.44496,-0.75752c-0.62612,-0.46789 -1.01369,-1.11406 -1.01369,-1.82713c0,-0.71308 0.38757,-1.35924 1.01369,-1.82713c0.62612,-0.46789 1.49078,-0.75752 2.44496,-0.75752c0.95418,0 1.81885,0.28962 2.44496,0.75752z" data-paper-data="{&quot;origPos&quot;:null}" fill="url(#color-38)"/><path d="M236.34116,187.71585c0.62612,0.46789 1.01369,1.11406 1.01369,1.82713c0,0.71308 -0.38757,1.35924 -1.01369,1.82713c-0.62612,0.46789 -1.49078,0.75752 -2.44496,0.75752c-0.95418,0 -1.81884,-0.28963 -2.44496,-0.75752c-0.62612,-0.46789 -1.01369,-1.11406 -1.01369,-1.82713c0,-0.71308 0.38757,-1.35924 1.01369,-1.82713c0.62612,-0.46789 1.49078,-0.75752 2.44496,-0.75752c0.95418,0 1.81884,0.28962 2.44496,0.75752z" data-paper-data="{&quot;origPos&quot;:null}" fill="url(#color-39)"/><path d="M228.68513,188.29022c0.62612,0.46789 1.01369,1.11406 1.01369,1.82713c0,0.71308 -0.38757,1.35924 -1.01369,1.82713c-0.62612,0.46789 -1.49078,0.75752 -2.44496,0.75752c-0.95418,0 -1.81885,-0.28962 -2.44496,-0.75752c-0.62612,-0.46789 -1.01369,-1.11406 -1.01369,-1.82713c0,-0.71308 0.38757,-1.35924 1.01369,-1.82713c0.62612,-0.46789 1.49078,-0.75752 2.44496,-0.75752c0.95418,0 1.81884,0.28963 2.44496,0.75752z" data-paper-data="{&quot;origPos&quot;:null}" fill="url(#color-40)"/><path d="M250.24291,188.21842c0.62612,0.46789 1.01369,1.11405 1.01369,1.82713c0,0.71308 -0.38757,1.35924 -1.01369,1.82713c-0.62612,0.46789 -1.49078,0.75752 -2.44496,0.75752c-0.95418,0 -1.81885,-0.28962 -2.44496,-0.75752c-0.62612,-0.46789 -1.01369,-1.11406 -1.01369,-1.82713c0,-0.71308 0.38757,-1.35924 1.01369,-1.82713c0.62612,-0.46789 1.49078,-0.75752 2.44496,-0.75752c0.95418,0 1.81885,0.28962 2.44496,0.75752z" data-paper-data="{&quot;origPos&quot;:null}" fill="url(#color-41)"/></g></g></g><g><path d="M187.39789,228.56324v-20.60392l59.00249,-0.1085l-1.36015,7.00344l4.91596,8.27784l-3.6643,5.43113z" data-paper-data="{&quot;origPos&quot;:null}" fill="#cfbf74" stroke="url(#color-42)"/><path d="M248.79146,210.74995c0,0.03848 -7.79529,-2.66277 -7.79529,-2.66277c0,0 -3.36524,-0.43462 -4.38413,0.03131c-1.32091,0.60404 -3.19737,2.05176 -3.19737,2.05176c0,0 -3.89681,-2.24111 -4.58841,-2.19497c-1.60425,0.10703 -5.24608,0.03905 -6.30975,0.59851c-0.81964,0.43111 -3.04346,1.80063 -3.04346,1.80063c0,0 -2.74834,-1.95729 -6.85338,-1.95729c-3.70401,0 -6.5479,0.85787 -8.02158,1.76849c-1.85193,1.14436 0.47866,-1.89778 -3.39613,-2.18462c-0.96758,-0.07163 -3.99058,0.11656 -6.46602,0.31843c-1.13338,0.09243 -2.23529,1.3218 -2.93137,1.691c-2.65066,1.40588 -8.61762,-1.90641 -2.41854,-2.5668c6.19907,-0.66039 15.71473,-0.34166 25.16195,-0.34166c9.44722,0 23.2594,-0.56123 29.45847,0.09916c0,0 1.8597,0.04967 2.5181,0.4317c1.41535,0.82124 2.26693,2.43021 2.26693,3.11711z" data-paper-data="{&quot;origPos&quot;:null}" fill="url(#color-43)" stroke="#65a96e"/></g></g><path d="M187.16799,126.125h106v106h-106z" data-paper-data="{&quot;origPos&quot;:null}" fill="none" stroke="#995900" stroke-width="9" stroke-linecap="butt"/><path d="M232.29232,204.63308c-0.08475,0.56758 -1.10047,7.49714 -1.22714,7.78763c-0.55726,1.27804 -1.69943,2.21087 -2.56091,3.30711c-1.52462,1.9401 -3.08046,3.85546 -4.62069,5.78319c-0.6262,0.78374 -4.80813,6.12441 -5.39606,6.35292c-1.44069,0.55996 -3.07553,-0.3126 -4.6133,-0.4689c-3.65217,-0.57164 -7.33255,-1.05933 -10.97009,-1.71705c-1.48625,-0.26874 -3.20948,-0.01964 -4.44236,-0.89208c-0.45155,-0.31954 -3.61032,-6.34607 -4.0319,-7.13528c-0.32576,-0.60984 -3.61738,-6.7121 -3.68138,-7.09986c-0.23323,-1.41316 0.38659,-2.83847 0.60234,-4.25441c0.52746,-3.46165 1.64111,-7.1743 1.7825,-10.66937c0.16848,-4.16445 -1.36867,-9.07053 -1.98184,-13.2022c-0.33469,-2.25524 0.08798,-4.73163 -0.91716,-6.77804c-0.46133,-0.93924 -1.50337,-1.45623 -2.23827,-2.20115c-2.38347,-2.41597 -3.11251,-3.26612 -5.48418,-5.85886c-0.40911,-3.85411 -0.78723,-7.71388 -1.0399,-11.58224c-0.09477,-1.451 -0.60901,-2.95282 -0.22866,-4.35629c0.34322,-1.26644 1.46477,-2.18062 2.27906,-3.20949c0.97811,-1.23586 1.67965,-2.87776 3.0921,-3.57708c0.96117,-0.47588 2.13134,0.25986 3.18304,0.47018c2.41957,0.48388 4.79177,1.18014 7.18766,1.7702c3.593,0.8849 7.19769,1.73391 10.78148,2.65531c1.36973,0.35216 2.88521,0.36812 4.09965,1.09288c1.21445,0.72477 1.94798,2.05099 2.9082,3.08933c2.14627,2.32086 4.2686,4.45753 6.07428,6.84514c1.63151,1.09937 3.35276,2.05552 5.29947,2.72836c1.75129,0.62462 3.4007,1.27056 4.97025,2.09102c0.24415,-1.29536 0.72174,-3.82927 0.9381,-4.97717c0.08285,-0.43958 1.38422,-7.40373 1.47449,-7.62652c0.50902,-1.25633 1.46876,-2.27876 2.2104,-3.41341c0.21393,-0.32729 4.14248,-6.28557 4.28186,-6.43224c2.44852,-2.57654 6.30964,-4.69535 9.18659,-6.79798c2.86378,-2.093 6.51359,-4.27202 10.2505,-4.40492c0.85852,-0.03053 1.61473,0.58926 2.40555,0.92483c1.26162,0.53534 2.66328,0.85124 3.7495,1.68694c3.54556,2.72783 3.70362,6.21195 4.21259,10.2746c0.11352,0.90609 -0.37921,2.01247 0.18113,2.73352c0.46499,0.59835 1.50575,0.19902 2.24084,0.38308c2.22921,0.55815 4.28355,2.02171 6.58137,2.05279c1.06433,0.01439 2.04161,-0.60322 3.06242,-0.90483c1.38049,-0.34396 2.72026,-1.09705 4.14146,-1.03187c1.4212,0.06518 2.70458,0.88864 4.02962,1.40662c1.42868,0.5585 3.21783,0.66498 4.22638,1.82078c0.97896,1.1219 0.79778,2.87009 1.13283,4.32087c0.30655,1.32736 0.79213,2.6473 0.79106,4.00959c-0.00101,1.28664 -0.67773,2.49561 -0.7972,3.77669c-0.2221,2.38153 0.164,4.78093 0.23538,7.17172c0.14697,4.92253 1.59579,9.39838 2.38077,14.23378c0.26094,1.60738 1.34754,3.39773 0.60604,4.84753c-0.7415,1.4498 -2.82912,1.61671 -4.28513,2.34595c-2.20623,1.105 -4.5012,2.02387 -6.77091,2.99179c-0.0841,0.03586 -0.16783,0.07327 -0.25128,0.11192c-0.00354,0.11324 -0.01627,0.23338 -0.03954,0.36081c-0.33254,1.82048 -2.15303,1.48795 -2.15303,1.48795l-0.47684,-0.0871c-0.36112,-0.06601 -0.72652,-0.14112 -1.09533,-0.22294c-1.29117,0.1116 -2.52646,-0.60336 -3.79001,-0.90033c0,0 -0.17013,-0.04477 -0.39167,-0.15916c-1.81641,-0.46823 -3.63693,-0.88702 -5.36769,-0.99771c-1.13334,-0.07248 -2.25449,0.2983 -3.38898,0.34953c-0.8877,0.04008 -1.97406,-0.63527 -2.66474,-0.07617c-0.65153,0.52741 -0.14982,1.67366 -0.32211,2.494c-0.47762,2.27411 -0.89896,4.57073 -1.07496,6.88778c-0.11593,1.52625 0.39523,3.29421 -0.45088,4.56974c-0.94486,1.4244 -2.91015,1.79379 -4.36523,2.69069c-2.67536,-0.1299 -5.2634,-0.22875 -7.92921,-0.45521c-1.46471,-0.12443 -3.06327,0.19964 -4.38824,-0.43699c-0.41742,-0.20057 -4.84897,-5.31694 -5.29558,-5.82623c-0.38837,-0.44288 -3.82387,-4.33577 -4.87194,-5.61901c-0.18756,0.15373 -0.38326,0.30329 -0.58743,0.44842c-1.16344,0.82701 -2.70461,0.91426 -4.06363,1.35085c-0.62094,0.19948 -1.2427,0.39832 -1.86515,0.59621c-0.16503,1.10521 -0.3209,2.14916 -0.45838,3.06985z" fill="url(#color-44)" stroke="none" stroke-width="0.5" stroke-linecap="butt"/><g fill="#ffed00" stroke="none" stroke-width="0.5" stroke-linecap="butt"><path d="M251.98487,155.01268l0.80714,-8.71707l0.37437,-1.06745l-0.00167,-0.1386l0.06384,-0.03866l0.08631,-0.24611l1.28489,-0.58433l1.20736,-0.73122l0.2519,0.06758l0.06794,-0.03089l0.11349,0.07957l1.09256,0.29313l1.35651,0.75362l4.62119,2.07157l1.24185,0.9766l0.01884,0.19212l0.16761,0.09577l0.38317,1.53268v2.45229l-0.09561,0.38245l-0.0044,0.39419l-1.79835,6.86642l-0.1181,0.2156l-0.04148,0.2423l-3.26266,7.41513c0.315,0.07757 0.63027,0.1541 0.94584,0.22938c7.15385,1.70656 12.97475,3.47575 20.22848,6.02184c2.1783,0.76459 2.52986,3.41636 1.99421,5.45542c-1.82087,6.93147 -7.77239,3.98284 -13.83241,3.10157c-3.92782,-0.5712 -8.09421,-1.27162 -12.11553,-1.9351c1.26655,3.9293 2.43874,7.88207 3.25541,11.85599c0.74417,3.62109 -3.54829,5.52169 -6.18931,6.45921c-1.08852,0.3864 -3.52135,1.66137 -4.77596,0.96319c-5.4409,-3.02784 -6.2707,-14.22715 -6.80329,-17.978c-1.03479,-7.28765 -1.70334,-14.68098 -3.66077,-21.77668c-0.08397,-0.27962 -0.12909,-0.57604 -0.12909,-0.88301c0,-1.02713 0.50518,-1.93628 1.28063,-2.49251c0.17849,-0.54967 -0.71049,-1.73049 -0.75405,-2.29671c-0.09236,-1.20062 0.23868,-2.13188 0.89049,-3.15614c0.42145,-0.66227 1.56565,-0.92794 2.31463,-1.04948c3.63012,-0.5891 5.28743,2.26691 6.88038,5.15184c0.8705,1.57653 1.37802,3.30246 1.78401,5.07028z"/><path d="M225.79609,177.55907c-0.34495,-0.53599 -0.76362,-1.01503 -1.23571,-1.44564l-12.22119,-3.37537c-0.27952,-0.00108 -0.55801,-0.00734 -0.83491,-0.02149c-0.00604,-0.00031 -0.0122,-0.00052 -0.01849,-0.00064c-0.01186,0.00376 -0.02374,0.00744 -0.03565,0.01106l3.42807,18.07528l-0.00288,0.05001l0.01954,0.04613l0.83535,5.32539l2.05345,-1.70143l6.5372,-6.84849l2.87509,-4.50016c-0.16383,-1.99652 -0.34694,-3.97855 -1.39988,-5.61465zM198.01108,166.03308c0,-0.25747 0.03175,-0.50752 0.09153,-0.74646v-0.08994l0.03315,-0.03177c0.08489,-0.288 0.21094,-0.55835 0.37133,-0.80426l-0.31153,-0.4217l1.2088,-2.8429l1.47742,-0.55963l2.77926,-0.32697l0.37702,0.04847l0.3776,-0.04373l15.04073,1.96183l0.50265,0.19767l0.52488,0.12742l9.68395,5.08011l0.01282,-0.00196l0.03569,0.02741l0.2402,0.126l0.47373,0.42233l0.50332,0.38658l0.16862,0.21246l0.03359,0.02994l0.00047,0.01297l7.95713,10.02599l0.04409,0.01726l0.29898,0.72531l0.3241,0.71443l-0.0176,0.04396l0.81404,5.53547l-0.05831,0.58729l0.09443,0.2128l-0.15249,0.37198l-0.03972,0.40005l-0.18318,0.14368l-0.22386,0.54608l-4.08715,5.55852l-0.20173,0.16711l-0.13869,0.22222l-9.4822,9.15523l-0.24632,0.14198l-0.19203,0.20966l-9.85705,6.51837l-0.00381,0.01048l-0.03623,0.01599l-0.23906,0.15809l-0.59387,0.2096l-0.57614,0.25433l-0.28244,0.04869l-0.03734,0.01318l-0.00996,-0.00503l-4.41136,0.76058l-1.38275,-0.10285l-0.09174,0.02039l-0.04594,-0.03063l-0.05506,-0.0041l-0.05982,-0.07249l-1.1537,-0.76913l-1.5411,-1.69521l-0.0397,-0.01084l-0.04429,-0.08154l-0.00977,-0.01075l-0.34845,-0.64883l-0.35149,-0.64719l-0.00363,-0.01407l-0.0439,-0.08175l0.0127,-0.03914l-1.27306,-4.93312l-0.00119,-0.15738l-0.06082,-0.14515l-2.12532,-13.89632l0.00125,-0.01339l-0.00509,-0.01245l-2.44044,-16.92039l-0.78685,-3.93423l-0.12912,-0.5165c-0.07053,-0.25806 -0.10819,-0.5297 -0.10819,-0.81014z"/><path d="M237.52583,184.75953c1.38236,-0.66197 2.04433,0.72038 2.04433,0.72038l0.26275,0.54868c0.82196,1.71644 1.65698,3.42794 2.48102,5.14432c0.02337,-0.01525 0.04741,-0.02999 0.07215,-0.04411c-0.19001,-0.40359 -0.17069,-0.80916 -0.17069,-0.80916c0.25535,-5.14756 -0.87195,-9.59433 -2.37811,-14.47187c-0.58331,-1.88899 -0.81731,-3.25974 -2.05251,-4.88035c-1.19359,-1.566 -2.81862,-2.75022 -4.21726,-4.13615c-1.47118,-1.45782 -3.35201,-2.87039 -5.3006,-3.6394c-2.72019,-1.07351 -5.84892,-1.62151 -8.66698,-2.40935c-3.08283,-0.86187 -5.23739,-1.63384 -8.44283,-1.38427c-5.15242,0.35977 -10.79273,0.01066 -15.67595,1.75397c0.9709,4.15556 0.80615,8.80229 1.23101,13.02383c0.83112,8.25837 2.0226,16.26587 3.85138,24.34559c0.87681,3.87385 1.68904,7.38351 3.30859,11.02295c0.31279,0.63929 0.72155,1.24 0.93837,1.91788c0.02125,0.06645 0.12497,3.28528 1.34473,3.47594c3.43125,0.53634 6.4091,-1.72106 9.38064,-2.91175c7.60095,-3.04567 15.20122,-8.19786 21.27275,-13.75682c1.28235,-1.17409 2.3612,-2.72074 3.50004,-4.12409c-1.09206,-2.25847 -2.15718,-4.53104 -3.24047,-6.7932l-0.26275,-0.54868c0,0 -0.66197,-1.38236 0.72038,-2.04433zM244.87488,196.71235c0.50778,0.57507 1.35129,0.7271 2.0176,1.10733c1.77492,1.01286 3.53662,2.04913 5.28645,3.10473c0.74725,0.45079 1.38756,1.13053 2.22288,1.38317c2.45554,0.74267 4.54474,-1.89447 5.92505,-3.31331c0.60577,-0.62267 1.4446,-1.06702 1.85065,-1.83501c0.80457,-1.52176 0.25349,-2.36644 -0.14775,-3.71879c-0.54915,-1.85088 -0.63589,-3.88479 -1.56764,-5.5757c-0.43864,-0.79603 -1.22645,-1.34168 -1.83968,-2.01252c0,0 -0.67613,-0.76065 -0.30665,-1.59325c-0.3076,-0.292 -0.55687,-0.76326 -0.34669,-1.4872c0.42733,-1.4719 1.89924,-1.04457 1.89924,-1.04457l2.12426,0.61673c4.65446,1.35266 9.41468,2.26337 14.14219,3.32766c1.6488,0.37119 5.17699,1.56732 6.40874,-0.5703c0.41386,-0.71823 0.41307,-1.60576 0.64004,-2.40301c0.55311,-1.9428 1.11668,-3.88342 1.60851,-5.84262c0.35138,-1.30017 1.31858,-3.26776 0.23016,-4.64836c-0.66107,-0.83853 -3.87042,-1.72157 -4.65237,-1.89699c-3.69518,-0.82895 -7.63081,-0.62167 -11.31809,-1.48705c-1.3603,-0.31925 -3.09666,-0.18945 -3.99916,-1.25615c-0.73008,-0.86291 -0.07953,-2.26964 0.06794,-3.39031c0.26825,-2.03854 0.99369,-3.99072 1.44618,-5.99642l1.34934,-5.9804c0.39789,-1.72692 1.12301,-3.27382 0.31366,-5.04872c-1.07947,-2.36728 -4.63613,-3.43586 -6.68997,-4.61099c-0.75338,-0.43105 -1.40163,-1.10447 -2.24072,-1.32654c-0.58103,-0.15377 -1.18938,0.17423 -1.78407,0.26135c-0.75724,0.00385 -1.65913,-0.43363 -2.27171,0.01154c-0.56319,0.40928 -0.3962,1.33731 -0.52566,2.02136c-0.30897,1.63256 -0.31893,3.30998 -0.58301,4.9504c-0.20987,1.30372 0.0895,2.87114 -0.7509,3.88971c-2.21208,2.68108 -4.71995,-0.27577 -6.15154,-1.37561c-2.97838,-2.28817 -5.75481,-3.41559 -9.48607,-1.65846c-1.04064,0.49006 -0.62201,2.67554 -0.61474,3.13056c0.07931,4.96182 0.52339,9.71435 1.35744,14.58738c0.6449,0.70107 1.2326,1.40567 1.74395,2.09047c1.56567,2.09677 1.79076,3.43762 2.53223,5.81698c1.62633,5.21884 2.76447,10.02004 2.51231,15.52598c0,0 -0.04482,0.94128 -0.80225,1.31256c0.33973,0.63829 0.01794,1.36233 0.01794,1.36233l-0.61529,1.34846c0.31412,0.7545 0.45943,1.61453 0.9972,2.22357zM263.14688,186.38538c0.5477,0.99394 0.65864,2.17206 0.97934,3.26065c0.85993,2.91894 2.24193,5.7975 0.80131,8.86745c-0.49933,1.06407 -1.57834,1.74237 -2.38408,2.59816c-2.28493,2.42687 -5.10165,5.07733 -8.85332,4.17756c-1.13908,-0.27319 -2.04751,-1.13866 -3.06356,-1.72156c-1.77259,-1.01692 -3.53546,-2.05105 -5.28645,-3.10473c-0.91312,-0.54948 -2.01256,-0.88147 -2.72232,-1.67642c-0.38989,-0.43669 -0.65512,-0.95859 -0.88741,-1.50269c-0.8977,1.14025 -1.81256,2.27563 -2.81735,3.21491c-6.26137,5.85315 -14.3304,11.20658 -22.23722,14.37346c-2.74411,1.09908 -4.8385,2.68781 -7.86123,2.84004c-1.21971,0.06143 -2.50224,0.50658 -3.66171,0.12304c-3.20334,-1.05964 -2.82826,-4.54781 -4.05523,-6.98733c-1.70746,-3.84629 -2.59806,-7.55936 -3.52384,-11.64958c-1.85619,-8.20085 -3.06733,-16.33451 -3.91155,-24.71488c-0.39613,-3.93224 -0.17974,-8.41173 -1.07521,-12.31238c-0.46386,0.02177 -1.1047,-0.12314 -1.43842,-0.97261c-0.56043,-1.42655 0.86612,-1.98698 0.86612,-1.98698l1.72452,-0.67749c5.39603,-2.08642 11.45769,-1.79241 17.20433,-2.19368c3.57949,-0.22573 6.0573,0.53267 9.48168,1.49003c2.94394,0.82304 6.20934,1.4098 9.04602,2.54267c1.77742,0.70984 3.64082,1.88539 5.3803,3.27117c-0.52156,-3.70859 -0.84367,-7.42931 -0.78559,-11.20667c0.03484,-2.26525 -0.26587,-4.24597 1.94773,-5.65237c2.92035,-1.85543 7.51358,-1.82751 10.50279,-0.27542c0.98959,0.51383 1.77342,1.35331 2.62924,2.06807c0.66704,0.5571 1.89934,2.57926 1.96577,1.71273c0.18535,-2.4176 -0.12262,-5.15619 0.62792,-7.50849c0.41131,-1.28908 0.5698,-2.87447 1.62699,-3.71902c1.00977,-0.80667 2.54981,-0.42409 3.82472,-0.63613c0.90626,-0.07234 1.83589,-0.43388 2.71879,-0.21702c1.14221,0.28056 2.08423,1.09078 3.11851,1.65081c2.8184,1.52606 6.55264,2.85351 7.99153,6.02131c1.4666,3.22882 -0.07328,6.81359 -0.78836,9.98288c-0.00663,0.02937 -1.35101,5.98804 -1.35454,6.00265c-0.23512,0.97342 -0.43333,1.95912 -0.75038,2.90902c-0.12399,0.37148 -0.88341,0.80316 -0.56446,1.03039c0.54371,0.38734 1.33713,-0.05731 2.00271,-0.00576c0.9998,0.07744 1.98851,0.2611 2.98273,0.39191c5.54064,0.72901 15.70575,0.37639 16.01034,8.05564c0.04552,1.14781 -0.5286,2.23579 -0.7929,3.35369c-0.50357,2.00381 -1.02893,4.00396 -1.64524,5.97601c-0.34254,1.09606 -0.40369,2.33651 -1.06251,3.27706c-1.49518,2.13457 -3.93506,2.57674 -6.33189,2.50552c-0.15633,-0.00465 -5.9441,-1.29153 -6.2456,-1.3582c-3.27569,-0.72435 -6.54299,-1.40909 -9.7769,-2.27828c0.1646,0.20867 0.31513,0.42716 0.44389,0.66085z"/></g></g></g></svg>