<svg version="1.1" xmlns="http://www.w3.org/2000/svg" xmlns:xlink="http://www.w3.org/1999/xlink" width="207.84618" height="175.42985" viewBox="0,0,207.84618,175.42985"><defs><linearGradient x1="177.29648" y1="213.11501" x2="156.35015" y2="211.23563" gradientUnits="userSpaceOnUse" id="color-1"><stop offset="0" stop-color="#008c4d"/><stop offset="1" stop-color="#006638"/></linearGradient><linearGradient x1="167.81839" y1="156.45986" x2="148.83609" y2="147.40703" gradientUnits="userSpaceOnUse" id="color-2"><stop offset="0" stop-color="#008c4d"/><stop offset="1" stop-color="#006638"/></linearGradient><linearGradient x1="256.08173" y1="170.37661" x2="176.8818" y2="194.10474" gradientUnits="userSpaceOnUse" id="color-3"><stop offset="0" stop-color="#b100c6"/><stop offset="1" stop-color="#9900aa"/></linearGradient><radialGradient cx="302.49718" cy="184.99404" r="20.52041" gradientUnits="userSpaceOnUse" id="color-4"><stop offset="0" stop-color="#fbc5fc"/><stop offset="1" stop-color="#f991fd"/></radialGradient></defs><g transform="translate(-142.20963,-78.62396)"><g data-paper-data="{&quot;isPaintingLayer&quot;:true}" fill="none" fill-rule="nonzero" stroke="none" stroke-width="none" stroke-linecap="none" stroke-linejoin="miter" stroke-miterlimit="10" stroke-dasharray="" stroke-dashoffset="0" font-family="none" font-weight="none" font-size="none" text-anchor="none" style="mix-blend-mode: normal"><g data-paper-data="{&quot;origPos&quot;:null,&quot;origRot&quot;:0}" stroke-width="0" stroke-linecap="round"><path d="M176.90189,217.13634c-0.04522,0.5039 -0.92585,2.83711 -1.54744,3.92504c-0.73024,1.2781 -2.09842,2.63682 -2.54104,3.23109c-0.14754,0.19809 -2.75494,1.46914 -2.81095,2.59968c-0.056,1.13054 1.57008,4.93234 1.94107,8.2063c0.37099,3.27395 1.21016,3.91424 -0.44683,4.98c-1.65699,1.06574 -3.77741,0.18873 -5.9462,-0.86819c-2.16878,-1.05692 -5.43804,-2.65206 -7.52116,-5.6949c-2.08312,-3.04284 -2.27072,-5.07368 -2.24329,-8.56809c0.02743,-3.49443 0.21773,-17.40642 2.53202,-28.21997c2.31429,-10.81356 4.46851,-10.27603 6.00473,-10.97396c0.46303,-0.21036 2.97945,-1.71371 3.82477,-1.59793c2.07946,0.28483 8.91673,2.01641 10.01457,6.25331c1.09784,4.2369 -0.27098,15.70226 -1.26023,26.72766z" data-paper-data="{&quot;origPos&quot;:null}" fill="url(#color-1)" stroke="#000000"/><path d="M181.63874,190.45289c3.22524,-1.45628 1.41686,-1.28175 8.87029,-1.88151c7.45343,-0.59976 11.41466,-0.58047 14.72715,-0.01729c3.66372,0.62289 2.03433,27.45937 -1.31883,33.34891c-3.35316,5.88951 -14.53485,-0.13687 -17.35335,-0.553c-2.02803,-0.29942 -4.92378,-1.36898 -6.79327,-2.61756c-1.8695,-1.24857 -1.9708,-0.75349 -3.62652,-4.34144c-1.65573,-3.58794 -2.97918,-5.45673 -2.81792,-9.62367c0.16126,-4.16694 2.31239,-7.87176 3.57943,-10.05367c1.26705,-2.18192 1.50779,-2.80447 4.73302,-4.26075z" data-paper-data="{&quot;origPos&quot;:null}" fill="#9900aa" stroke="#b100c6"/></g><g data-paper-data="{&quot;origPos&quot;:null,&quot;origRot&quot;:0}" stroke-width="0" stroke-linecap="round"><path d="M166.04874,160.09235c-0.21776,0.45663 -1.85548,2.33744 -2.81688,3.14097c-1.12947,0.94398 -2.88502,1.74151 -3.50682,2.14457c-0.20727,0.13435 -3.09403,0.41832 -3.54005,1.45866c-0.44603,1.04035 -0.24495,5.17041 -1.03675,8.36877c-0.79181,3.19834 -0.22798,4.09074 -2.1523,4.51306c-1.92434,0.42234 -3.60692,-1.13792 -5.27217,-2.88364c-1.66526,-1.74572 -4.17484,-4.3791 -5.06856,-7.95674c-0.89372,-3.57764 -0.36268,-5.54676 0.87935,-8.81312c1.24204,-3.26636 6.2629,-16.24213 12.19642,-25.57391c5.93352,-9.33178 7.76594,-8.07803 9.449,-8.19761c0.50729,-0.03605 3.38965,-0.56946 4.14178,-0.16667c1.85028,0.99083 7.65725,4.99404 7.21168,9.34811c-0.44557,4.35407 -5.71964,14.62599 -10.48472,24.61758z" data-paper-data="{&quot;origPos&quot;:null}" fill="url(#color-2)" stroke="#000000"/><path d="M179.77732,136.7263c3.53044,-0.24257 1.77439,-0.7084 8.97051,1.32373c7.19611,2.03213 10.90291,3.42901 13.81222,5.10996c3.21779,1.85919 -7.6509,26.45033 -12.84437,30.8044c-5.1935,4.35405 -13.57826,-5.18757 -16.07569,-6.55875c-1.79698,-0.9866 -4.13935,-2.99723 -5.45734,-4.81844c-1.31798,-1.82122 -1.58527,-1.39237 -1.88858,-5.33227c-0.3033,-3.9399 -0.89352,-6.15248 0.70807,-10.00271c1.6016,-3.85024 4.90779,-6.57463 6.85507,-8.17906c1.94728,-1.60443 2.38968,-2.10427 5.92012,-2.34684z" data-paper-data="{&quot;origPos&quot;:null}" fill="#9900aa" stroke="#b100c6"/></g><g data-paper-data="{&quot;origPos&quot;:null,&quot;origRot&quot;:0,&quot;index&quot;:null}" stroke-width="0" stroke-linecap="butt"><g data-paper-data="{&quot;origPos&quot;:null}" stroke="none"><path d="M304.16001,213.18302c-7.90118,6.9053 -11.17742,13.13336 -14.90265,8.87088c-7.79003,-8.91349 -13.29586,-12.28333 -12.49243,-14.91984c1.03282,-3.38919 21.35238,-19.79541 24.31131,-21.7442c3.5374,-2.32979 9.56982,10.39673 13.29505,14.65921c3.72523,4.26248 -2.31011,6.22865 -10.21128,13.13396z" data-paper-data="{&quot;origRot&quot;:0,&quot;origPos&quot;:null}" fill="#ffdebd"/><path d="M292.32972,197.39396c-7.90117,6.9053 -10.88214,15.80971 -13.90093,12.87046c-7.79005,-8.91348 -6.3881,-21.63924 -1.40939,-27.07163c1.03282,-3.3892 8.35918,-3.78986 11.34803,-4.62103c3.5374,-2.32979 9.5363,0.77912 13.26152,5.04159c3.72523,4.26247 -1.39805,6.87529 -9.29923,13.78059z" data-paper-data="{&quot;origRot&quot;:0,&quot;origPos&quot;:null}" fill="#fff70c"/></g><g data-paper-data="{&quot;origPos&quot;:null}"><path d="M282.11537,216.62719c-8.05282,-6.51039 -1.93928,-11.45168 3.52943,-18.21606c5.46872,-6.76436 16.43007,-6.97026 24.48291,-0.45988c8.05284,6.51038 10.67477,11.8891 5.20606,18.65347c-3.05933,3.78414 -10.58329,12.24479 -15.42178,11.72704c-8.8784,-0.95003 -10.85291,-6.09087 -17.79662,-11.70458z" data-paper-data="{&quot;origPos&quot;:null,&quot;origRot&quot;:0}" fill="#ffdebd" stroke="#ffdebd"/><g data-paper-data="{&quot;origPos&quot;:null,&quot;origRot&quot;:0}" fill="#ffffff" stroke="none"><path d="M265.12469,220.13434c9.61837,-10.15729 11.75885,-5.82441 22.16553,1.37797c10.40668,7.20237 18.96924,12.54563 10.74923,23.05288c-5.96331,7.62261 -15.61612,14.24626 -24.15802,4.90768c-9.32117,-10.19054 -19.05772,-18.4604 -8.75674,-29.33853z" data-paper-data="{&quot;origRot&quot;:0,&quot;origPos&quot;:null}"/><path d="M294.7055,213.82521c8.02724,5.57122 18.27248,10.36201 13.50732,16.17925c-5.33078,6.5077 -7.13433,4.64644 -20.02709,-4.78189c-14.68724,-10.7406 -18.88742,-9.70829 -13.39164,-17.12537c3.20915,-4.33105 11.88419,0.15678 19.91142,5.72802z" data-paper-data="{&quot;origRot&quot;:0,&quot;origPos&quot;:null}"/></g></g></g><g data-paper-data="{&quot;origPos&quot;:null,&quot;origRot&quot;:0}"><path d="M249.53084,154.53633c4.41939,14.75106 16.84729,37.24922 12.16636,51.05028c-6.28289,18.52415 -29.64248,26.53736 -46.70208,31.64838c-15.72554,4.71133 -29.70568,-15.06718 -37.8779,-42.3445c-8.17222,-27.27732 -7.54938,-53.89363 25.42695,-63.00677c12.35109,-2.42706 38.81445,-4.62472 46.98667,22.6526z" data-paper-data="{&quot;origPos&quot;:null,&quot;index&quot;:null}" fill="url(#color-3)" stroke="none" stroke-width="0" stroke-linecap="butt"/><path d="M256.37793,158.22648c4.41938,14.75106 13.16098,33.65601 8.48005,47.45707c-3.1687,9.34244 -23.85508,23.82563 -23.85508,23.82563c0,0 -7.96505,-36.16992 -14.3033,-43.80093c-2.84185,-3.42149 -11.55536,-13.71952 -14.56361,-18.53391c-1.57657,-2.52314 -10.57438,-32.63101 8.60695,-35.52337c12.35109,-2.42706 27.46276,-0.70181 35.63499,26.57551z" data-paper-data="{&quot;origPos&quot;:null,&quot;index&quot;:null}" fill="#fff70c" stroke="none" stroke-width="0" stroke-linecap="butt"/><path d="M218.30046,173.87592l33.57611,-11.6252" data-paper-data="{&quot;origPos&quot;:null}" fill="none" stroke="#b100c6" stroke-width="17" stroke-linecap="round"/><path d="M220.30943,180.58145c-3.70335,1.10952 -7.60497,-0.99321 -8.71449,-4.69656c-1.10952,-3.70335 0.99321,-7.60496 4.69657,-8.71448c3.70335,-1.10952 7.60496,0.99321 8.71448,4.69656c1.10952,3.70335 -0.99321,7.60496 -4.69656,8.71448z" data-paper-data="{&quot;origPos&quot;:null}" fill="#f3f3f3" stroke="none" stroke-width="0" stroke-linecap="butt"/><path d="M264.78487,197.50585l-8.54856,10.74347l-19.93796,16.10832" data-paper-data="{&quot;origPos&quot;:null,&quot;origRot&quot;:0}" fill="none" stroke="#b100c6" stroke-width="14" stroke-linecap="round"/><path d="M240.88378,231.83273c-3.70335,1.10952 -7.60497,-0.99322 -8.71449,-4.69657c-1.10952,-3.70335 0.99321,-7.60496 4.69656,-8.71448c3.70335,-1.10952 7.60496,0.99321 8.71448,4.69656c1.10952,3.70335 -0.9932,7.60497 -4.69656,8.71449z" data-paper-data="{&quot;origPos&quot;:null}" fill="#f3f3f3" stroke="none" stroke-width="0" stroke-linecap="butt"/></g><g data-paper-data="{&quot;origPos&quot;:null,&quot;origRot&quot;:0}" stroke-linecap="butt"><g data-paper-data="{&quot;origPos&quot;:null}" stroke="none" stroke-width="0"><path d="M231.37395,109.46009c3.04657,-4.77122 7.21659,0.89742 16.06078,6.5447c8.8442,5.64727 15.10558,6.68962 12.05902,11.46084c-3.04656,4.77122 -7.10976,18.25622 -10.95556,16.48109c-3.21691,-1.48483 -25.75964,-14.67092 -27.28724,-17.86775c-1.18832,-2.48686 3.75218,-6.64153 10.12302,-16.61887z" data-paper-data="{&quot;origRot&quot;:0,&quot;origPos&quot;:null}" fill="#ffdebd"/><path d="M222.42841,122.73516c2.54576,-3.35729 6.8237,5.00176 15.66789,10.64903c8.8442,5.64728 14.30039,7.46531 11.25383,12.23653c-3.04656,4.77122 -8.5136,8.74152 -12.35941,6.9664c-3.07948,-0.37527 -10.38349,0.32319 -11.91107,-2.87363c-5.73448,-4.62754 -9.02206,-17.00098 -2.65124,-26.97833z" data-paper-data="{&quot;origRot&quot;:0,&quot;origPos&quot;:null}" fill="#fff70c"/></g><g data-paper-data="{&quot;origPos&quot;:null}"><path d="M225.12294,115.89299c6.02702,-6.58817 7.21125,-11.96632 15.84806,-14.23222c4.70683,-1.23486 13.41046,6.00664 17.00082,9.29121c6.41803,5.87136 4.62913,11.58146 -2.36059,19.22195c-6.98971,7.64047 -17.8588,9.07465 -24.27682,3.20329c-6.41802,-5.87136 -13.2012,-9.84376 -6.2115,-17.48424z" data-paper-data="{&quot;origPos&quot;:null,&quot;origRot&quot;:0}" fill="#ffdebd" stroke="#ffdebd" stroke-width="0"/><g data-paper-data="{&quot;origPos&quot;:null,&quot;origRot&quot;:0}" fill="#ffffff" stroke="none" stroke-width="0"><path d="M207.79898,114.96381c-11.81066,-9.21696 -3.41902,-18.84874 4.27495,-30.31757c7.05074,-10.51002 17.58484,-5.40294 24.62012,1.24312c9.69763,9.16115 2.02954,15.72377 -7.18423,24.40018c-9.21375,8.67639 -10.68282,13.28047 -21.71084,4.67427z" data-paper-data="{&quot;origRot&quot;:0,&quot;origPos&quot;:null}"/><path d="M219.15832,125.42113c-6.54229,-6.5127 -2.23501,-6.11953 10.68261,-18.93402c11.33935,-11.24881 12.84456,-13.35867 19.08783,-7.72049c5.58084,5.03996 -3.83361,11.30774 -10.93834,18.01579c-7.10474,6.70804 -15.01186,12.44166 -18.83208,8.6387z" data-paper-data="{&quot;origRot&quot;:0,&quot;origPos&quot;:null}"/></g><path d="M237.10268,93.23738c1.32075,1.50189 -0.18114,2.82262 -0.18114,2.82262l-3.40242,-0.11747c-1.64958,-0.58427 -3.29916,-1.16857 -4.94873,-1.75285c-1.64958,-0.58427 -3.29916,-1.16856 -4.94873,-1.75284c-0.35365,-0.12526 -0.5978,-0.53634 -0.97163,-0.56814c-0.05752,-0.0049 -0.1217,0.00371 -0.18945,0.0204c0.12992,0.44329 0.33169,0.86863 0.57781,1.29593c1.23617,2.14619 2.13715,3.49186 1.87919,6.07608c-0.38675,3.87453 -3.83942,2.88358 -6.04858,2.1011c-0.81143,-0.32466 -2.95036,-1.98306 -3.63256,-2.04109c-0.19199,-0.01633 -0.45239,0.11607 -0.67449,0.19861c0.02294,1.07747 0.09035,2.74794 0.36805,3.72093c0.38108,1.33518 1.20072,2.63415 2.0655,3.8805l0.12593,-0.07818l1.67904,2.70422c0.13299,0.21014 0.22638,0.44409 0.27426,0.68935c0.13721,0.58473 0.10681,1.43382 -0.87966,2.06221c-0.01701,0.01095 -0.03417,0.02164 -0.05148,0.03206c-1.00082,0.60917 -1.77602,0.26325 -2.24078,-0.11851c-0.158,-0.11968 -0.29542,-0.26102 -0.40945,-0.41813l-1.06366,-1.42154l0.11503,-0.08607c-2.0873,-3.33424 -3.88019,-6.35365 -3.95455,-10.5774c-0.04282,-2.43258 1.14012,-4.85862 4.15454,-4.55773c2.21451,0.22106 3.47803,1.7868 5.45974,2.24029c0.31421,0.11129 0.62841,0.22258 0.94261,0.33387c0.03837,-0.45109 -0.20784,-0.88457 -0.37447,-1.30552c-0.44751,-1.13047 -3.85823,-4.56611 -2.57241,-6.21551c3.353,-4.30107 7.64407,-1.42398 11.70568,0.01465c1.64958,0.58427 3.29917,1.16856 4.94874,1.75283c0,0 0.9273,-0.43657 2.24805,1.06531z" data-paper-data="{&quot;origPos&quot;:null}" fill="#0052ef" stroke="none" stroke-width="0.5"/></g></g><g data-paper-data="{&quot;origPos&quot;:null,&quot;origRot&quot;:0}"><path d="M296.35888,175.62469l-5.7656,0.80431l-19.55788,21.01694l-25.85575,-33.79896l-0.7837,-3.82204l2.57982,-4.71523l19.44841,-20.55843l20.68527,26.02154z" data-paper-data="{&quot;origPos&quot;:null}" fill="#a10114" stroke="#a10114" stroke-width="0.5" stroke-linecap="round"/><path d="M251.95006,148.2051c3.58369,-3.57593 11.02159,-1.93219 16.61304,3.67139c5.59143,5.60358 7.21905,13.04504 3.63536,16.62096c-3.58369,3.57593 -11.02159,1.93218 -16.61304,-3.6714c-5.59143,-5.60358 -7.21906,-13.04504 -3.63537,-16.62096z" data-paper-data="{&quot;origPos&quot;:null,&quot;origRot&quot;:0}" fill="#f4c4f6" stroke="none" stroke-width="0" stroke-linecap="butt"/><g data-paper-data="{&quot;origPos&quot;:null}" stroke-linecap="round"><path d="M247.82127,164.76236l6.36068,-9.38601l25.20212,31.46193l3.77436,5.50543l-0.41733,3.77761l-1.85791,2.70664l-5.72439,4.69139z" data-paper-data="{&quot;origPos&quot;:null}" fill="#ffffff" stroke="#000000" stroke-width="0"/><path d="M272.39036,195.83083l6.07668,-9.2115" data-paper-data="{&quot;origPos&quot;:null}" fill="none" stroke="#a5b5ff" stroke-width="1.5"/><path d="M264.554,185.08315l6.56308,-7.33586" data-paper-data="{&quot;origPos&quot;:null,&quot;origRot&quot;:0}" fill="none" stroke="#a5b5ff" stroke-width="1.5"/><path d="M255.28072,173.17586l6.56309,-7.33586" data-paper-data="{&quot;origPos&quot;:null,&quot;origRot&quot;:0}" fill="none" stroke="#a5b5ff" stroke-width="1.5"/></g><g data-paper-data="{&quot;origPos&quot;:null}"><path d="M269.71704,133.09187c1.2182,3.30014 -2.43624,6.3276 -2.64835,6.52457c-1.2008,1.1151 -14.74337,22.11615 -15.4253,23.42807c-0.33818,-3.3043 -0.42899,1.74209 -0.36103,1.93847c0.49893,1.44197 1.81615,2.95546 2.61777,4.25996c3.0793,5.01102 16.1064,22.20908 17.77103,23.87222c1.34046,1.33925 5.13459,6.79355 5.46533,8.21083c1.22708,5.25814 -7.14418,9.63937 -11.06386,11.08627c-2.39576,-0.54379 -4.86411,-0.83256 -7.18732,-1.63141c-0.78805,-0.27096 -0.8726,-1.41999 -1.30888,-2.12999c-1.41861,-2.30854 -2.45159,-4.37222 -2.93153,-7.08653c-0.12306,-0.69596 0.10211,-1.41574 0.04134,-2.11988c-0.01822,-0.21114 -0.16484,-0.55123 -0.26983,-0.83607c-0.97713,-0.56868 -2.03022,-1.00656 -2.99038,-1.60433c-3.37048,-2.09832 -12.31651,-17.85256 -13.11871,-20.31778c-2.26644,-6.96494 -1.41258,-14.47625 1.25444,-21.22645c3.18006,-7.70742 8.55496,-13.13485 14.37114,-18.87539c2.06996,-2.04302 9.36201,-6.45171 9.36201,-6.45171c0,0 4.69062,-1.73149 6.42211,2.95914z" data-paper-data="{&quot;origPos&quot;:null}" fill="#ffdebd" stroke="none" stroke-width="0.5" stroke-linecap="butt"/><path d="M265.05412,194.07915l-2.25138,3.33969l-2.27197,1.39614l-2.55598,1.57067l-2.75108,-0.65688" data-paper-data="{&quot;origPos&quot;:null}" fill="none" stroke="#f6b09a" stroke-width="1.5" stroke-linecap="round"/></g></g><g data-paper-data="{&quot;origPos&quot;:null,&quot;origRot&quot;:0}"><path d="M330.76515,182.39891c-3.56493,1.44043 -14.1924,-6.74282 -19.32721,-15.15375c-4.13764,-6.77754 2.65344,-8.61727 5.76458,-10.5166c3.11114,-1.89933 10.54118,11.79712 14.67882,18.57466c4.13764,6.77754 1.19136,6.16331 -1.11619,7.09569z" data-paper-data="{&quot;origPos&quot;:null}" fill="#b49416" stroke="none" stroke-width="0" stroke-linecap="butt"/><path d="M332.12737,179.7929l-3.93513,1.23074l-5.27669,-2.2462l-10.4575,-6.89417" data-paper-data="{&quot;origPos&quot;:null}" fill="none" stroke="#a5b5ff" stroke-width="4.5" stroke-linecap="round"/><path d="M263.20124,121.85234c1.46553,2.43994 1.46278,4.15541 1.43408,6.88907c-0.31072,5.19006 -3.18862,11.90068 -8.31218,13.90001c-4.423,1.72596 -7.91008,-3.74801 -6.64346,-7.64743c0.0345,-0.06689 1.70627,-1.53203 1.80999,-1.71576c1.04401,-1.84949 -0.8691,-4.53384 0.03747,-6.88663c0.82841,-2.14987 6.05209,-4.21222 7.94623,-5.36858c0,0 3.35438,-0.27515 3.72786,0.82935z" data-paper-data="{&quot;origPos&quot;:null}" fill="#8e4108" stroke="none" stroke-width="0.5" stroke-linecap="butt"/><path d="M250.40241,144.2514c0,0 2.71826,-7.44334 4.1128,-10.44677c1.04338,-2.18049 2.47363,-3.7532 3.84865,-5.66155c0.59372,-0.82398 1.21024,-3.05207 2.04096,-3.57674c0.20864,-0.13178 0.01865,-1.27874 -0.17755,-2.19264c-0.38796,-1.80708 -0.72731,-3.73144 -0.92194,-5.56825c-0.36157,-3.41205 0.4557,-6.97906 1.65814,-10.15767c1.90869,-5.01463 4.29128,-10.07072 8.17792,-13.78151c3.15162,-3.00902 6.57449,-3.79308 6.57449,-3.79308c0,0 5.80471,11.55331 5.96117,11.9683c0.7361,1.95247 4.10863,7.45094 5.35245,11.76345c0.60374,2.09326 1.22777,3.91397 0.99866,6.03663c-0.08672,0.80354 -1.06184,2.8589 -0.89794,3.11622c1.451,2.27804 5.53415,4.36814 7.68668,5.97814c5.83065,4.36106 26.97042,32.64916 26.45592,38.78879c-0.07392,0.88217 -0.85771,1.54924 -1.31148,2.30936c-1.66109,2.78255 -16.71222,18.24919 -19.82647,20.81235c-1.64912,1.3573 -4.37342,1.19241 -6.19614,0.88876c-0.82521,-0.13748 -4.4699,-5.39819 -5.62671,-7.29306c-5.57146,-9.12616 -11.02881,-18.2778 -17.17898,-27.0302c-1.52903,-2.18503 -3.78585,-4.92815 -4.73466,-7.43981c-0.12247,-0.3242 -1.75205,-0.66929 -1.91237,-0.28245c-0.77649,1.87364 -6.75281,7.93906 -6.75281,7.93906z" data-paper-data="{&quot;origPos&quot;:null}" fill="#ffdebd" stroke="none" stroke-width="0.5" stroke-linecap="butt"/><path d="M297.59976,158.96444c0,0 -0.07817,-1.11628 -3.41639,-6.58434c-3.33821,-5.46806 -9.75703,-7.73893 -10.32614,-11.9733c-0.49478,-3.68145 8.76307,-10.74688 9.80859,-9.03428c2.41938,3.96301 12.78893,20.35587 12.78893,20.35587l-8.85501,7.23606z" data-paper-data="{&quot;origPos&quot;:null}" fill="#ffffff" stroke="#f6b09a" stroke-width="0" stroke-linecap="butt"/><path d="M306.51165,159.88174c0,0 4.74302,-0.7965 7.22321,0.70097c2.58265,1.55936 5.45972,4.91271 5.45972,4.91271c0,0 -3.12588,9.17239 -6.13731,7.02733c-3.46372,-2.46722 -1.06846,1.12856 -4.40667,-4.3395c-3.3382,-5.46805 -2.13894,-8.3015 -2.13894,-8.3015z" data-paper-data="{&quot;index&quot;:null,&quot;origPos&quot;:null}" fill="#ffffff" stroke="#f6b09a" stroke-width="0" stroke-linecap="butt"/><path d="M282.03153,140.12788c-1.23688,-1.23799 0.00111,-2.47487 0.00111,-2.47487l0.27935,-0.85343c1.99302,-3.98155 4.80736,-5.58975 8.48748,-7.83644c0,0 1.49365,-0.91187 2.40552,0.58179c0.91187,1.49365 -0.58179,2.40552 -0.58179,2.40552c-3.15579,1.92659 -5.51539,3.0875 -7.18142,6.41579l-0.93538,1.76274c0,0 -1.23798,1.23689 -2.47487,-0.00111z" data-paper-data="{&quot;origPos&quot;:null}" fill="#18c6ff" stroke="none" stroke-width="0.5" stroke-linecap="butt"/><path d="M285.9446,120.2309l-0.00304,-0.00573c3.85813,-2.98663 5.98339,-0.47818 7.79724,2.90142c0.59204,1.1031 1.55704,2.32382 1.02441,3.63802c-1.46097,3.60463 -4.35528,3.02338 -7.20261,4.76166c-3.41833,1.84768 -10.32342,4.60532 -10.52649,-1.78698c-0.00006,-0.00199 1.58104,-1.87183 1.60158,-1.89683c2.1108,-2.5681 4.21034,-5.00784 6.70064,-7.22729c0,0 0.16641,-0.14832 0.43341,-0.27969l-0.01023,-0.01173c0,0 0.06849,-0.04181 0.18508,-0.09286z" data-paper-data="{&quot;origPos&quot;:null}" fill="#8e4108" stroke="none" stroke-width="0.5" stroke-linecap="butt"/><path d="M313.70154,174.86587c-1.48472,-0.93923 -0.50984,-2.42743 -0.50984,-2.42743l1.35701,-0.92794c1.1952,-1.39907 1.68937,-2.75938 2.28031,-4.51858c0,0 0.56384,-1.67857 2.24813,-1.15008c1.68429,0.52849 1.12044,2.20705 1.12044,2.20705c-0.73219,2.17974 -1.43101,3.92346 -2.95473,5.7071l-1.08174,0.5609c0,0 -0.97486,1.48821 -2.45958,0.54898z" data-paper-data="{&quot;origPos&quot;:null}" fill="#18c6ff" stroke="none" stroke-width="0.5" stroke-linecap="butt"/><path d="M345.70248,155.00103c-11.3744,10.04935 -13.76448,7.76536 -22.4754,2.67858c-12.69252,-7.41187 -20.3076,-22.59397 -32.13005,-31.57016c-3.10425,-2.35691 -4.97638,-12.05145 -7.03722,-15.42715c-4.21501,-6.90429 -2.1318,-13.52378 3.00817,-17.05333c11.33758,-7.78537 15.28023,-1.42944 19.49525,5.47486c0,0 3.50005,8.29357 1.45748,13.14335c0,0 22.00336,1.07712 30.72698,11.047c11.22976,12.83404 15.1231,24.49009 6.95479,31.70686z" data-paper-data="{&quot;origPos&quot;:null}" fill="#fff70c" stroke="none" stroke-width="0" stroke-linecap="butt"/><path d="M335.44525,156.27412c-4.47815,2.73388 -11.21115,-0.13224 -15.03858,-6.40165c-3.82743,-6.26941 -3.29992,-13.56802 1.17824,-16.3019c4.47815,-2.73388 11.21116,0.13225 15.03858,6.40165c3.82742,6.26941 3.29992,13.56802 -1.17824,16.3019z" data-paper-data="{&quot;origPos&quot;:null}" fill="#ffffff" stroke="none" stroke-width="0" stroke-linecap="butt"/><path d="M329.3566,126.1383c1.90985,-1.14673 3.05658,0.76312 3.05658,0.76312l-0.80934,3.70461c-0.9702,1.6906 -1.9404,3.3812 -2.9106,5.0718c-0.9702,1.6906 -1.94039,3.3812 -2.9106,5.0718c-0.208,0.36244 -0.70727,0.54773 -0.81689,0.95099c-0.01686,0.06204 -0.0203,0.13409 -0.01555,0.21165c0.51172,-0.05368 1.01814,-0.18968 1.53557,-0.37387c2.5989,-0.92517 4.25361,-1.64319 7.03359,-0.84359c4.16803,1.19884 2.39156,4.78376 1.09223,7.04788c-0.51807,0.82416 -2.76307,2.83608 -2.96312,3.57196c-0.0563,0.20711 0.0367,0.51892 0.08269,0.77877c1.18521,0.19042 3.02905,0.45072 4.15073,0.34107c1.53923,-0.15047 3.1265,-0.78871 4.66513,-1.48694l-0.06048,-0.1536l3.29896,-1.2988c0.25686,-0.10369 0.5319,-0.15922 0.81021,-0.16261c0.66816,-0.03338 1.59243,0.1698 2.08364,1.37639c0.0086,0.02082 0.01687,0.04176 0.02483,0.06282c0.46728,1.21848 -0.06685,1.99867 -0.57812,2.43158c-0.16274,0.14918 -0.34509,0.27149 -0.54004,0.36499l-1.7704,0.8811l-0.0713,-0.14325c-4.07096,1.62011 -7.73802,2.98059 -12.38097,2.21713c-2.67399,-0.4397 -5.09561,-2.22119 -4.1629,-5.46396c0.68521,-2.38226 2.6536,-3.45351 3.54691,-5.5342c0.18481,-0.32202 0.3696,-0.64404 0.55441,-0.96606c-0.48659,-0.13228 -1.01082,0.05078 -1.50539,0.14915c-1.32821,0.2642 -5.77501,3.31412 -7.32507,1.57526c-4.04202,-4.53436 -0.03113,-8.66062 2.3577,-12.82322c0.9702,-1.6906 1.94039,-3.3812 2.91059,-5.07181c0,0 -0.29286,-1.10339 1.61699,-2.25012z" data-paper-data="{&quot;origPos&quot;:null,&quot;origRot&quot;:0}" fill="#0052ef" stroke="none" stroke-width="0.5" stroke-linecap="butt"/><path d="M332.78803,181.68224c-0.84799,0.25853 -28.22098,-33.75216 -35.55978,-43.47028c-3.56675,-4.72314 -9.41363,-15.11559 -8.56564,-15.37413c3.1347,-0.95568 8.65368,-1.64839 13.00256,2.29894c5.25539,4.77014 22.02907,21.92072 30.93232,36.96822c3.63961,6.15134 3.32525,18.62157 0.19053,19.57725z" data-paper-data="{&quot;origPos&quot;:null}" fill="#ffd412" stroke="none" stroke-width="0" stroke-linecap="butt"/><path d="M273.59252,101.48999l0.62871,7.42699c0,0 1.68325,4.47519 1.82961,7.47495c0.14636,2.99974 -0.29501,3.23969 -1.21899,5.04013c-0.92398,1.80044 -1.20967,1.68261 -1.99153,1.21582c-0.78188,-0.46678 -3.29392,-2.53456 -4.1536,-4.88454c-0.85968,-2.34998 0.64998,-4.69276 0.64998,-4.69276l4.81027,-4.1473" data-paper-data="{&quot;origPos&quot;:null}" fill="none" stroke="#f6b09a" stroke-width="3" stroke-linecap="round"/><path d="M289.91766,126.96522l21.6335,23.60142l20.74989,29.51078" data-paper-data="{&quot;origPos&quot;:null}" fill="none" stroke="#ffffff" stroke-width="4.5" stroke-linecap="round"/><path d="M318.1399,169.19564l1.92041,-1.17239l-3.29262,-4.43381l-2.3336,-2.38313l-4.55051,-0.73683l-3.22308,-0.9614l-3.51719,-5.76124l-0.36604,-2.99851l-1.94043,-7.01675l-2.65248,-4.82461l-3.71938,-4.17327l-8.63592,-7.9086l8.0141,-6.06417l5.06919,6.86409l3.33978,4.99083l1.96519,4.65838l2.10665,6.32946l0.08073,4.93011l1.65751,3.6746l2.7244,3.02327l2.28644,1.82611l5.7117,1.19954l4.18209,3.01208l2.42791,3.49718l1.23074,3.93513l-2.72678,2.25049z" data-paper-data="{&quot;origPos&quot;:null}" fill="#000001" stroke="#ff0000" stroke-width="0" stroke-linecap="round"/><path d="M313.88969,156.26198c-2.9473,2.14061 -6.68343,2.08508 -8.34488,-0.12401c-1.66145,-2.20909 -0.61905,-5.73525 2.32826,-7.87584c2.94731,-2.1406 2.70036,0.34656 4.3618,2.55566c1.66145,2.20909 4.60212,3.3036 1.65483,5.44421z" data-paper-data="{&quot;origPos&quot;:null,&quot;origRot&quot;:0}" fill="#ffdebd" stroke="#f6b09a" stroke-width="2.5" stroke-linecap="butt"/><path d="M308.65473,147.10163l3.37978,3.87289l3.47739,4.67249" data-paper-data="{&quot;origPos&quot;:null}" fill="none" stroke="#ffffff" stroke-width="4.5" stroke-linecap="round"/><g data-paper-data="{&quot;origPos&quot;:null,&quot;index&quot;:null}" stroke-linecap="round"><path d="M297.1971,184.87948l-4.93779,8.58192l-24.81065,-32.5742c0,0 -5.67484,-8.59694 -5.67144,-8.7466c0.01019,-0.44897 1.40762,-2.27071 1.40762,-2.27071l4.50924,-6.7296l2.23635,1.91553z" data-paper-data="{&quot;origPos&quot;:null}" fill="#ffffff" stroke="#000000" stroke-width="0"/><path d="M272.97934,152.73867l-4.69863,8.43593" data-paper-data="{&quot;origPos&quot;:null}" fill="none" stroke="#a5b5ff" stroke-width="1.5"/><path d="M275.49329,170.38017l5.27441,-6.57712" data-paper-data="{&quot;origPos&quot;:null,&quot;origRot&quot;:0}" fill="none" stroke="#a5b5ff" stroke-width="1.5"/><path d="M289.92222,176.10961l-5.27442,6.57713" data-paper-data="{&quot;origPos&quot;:null,&quot;origRot&quot;:0}" fill="none" stroke="#a5b5ff" stroke-width="1.5"/></g><path d="M303.86363,199.9242l-7.94571,1.57025l-1.66741,-2.73125l1.52737,-2.10407l-2.53179,0.84266l-1.91356,-3.51828l1.78438,-4.36989l-3.2146,1.25951l-2.10407,-1.52737l-0.3216,-1.67827l2.36298,-4.95745l-5.83078,0.04478l-1.18407,-2.32336l2.02157,-4.74903l-6.10569,-0.02172l-0.93792,-1.53633l1.45383,-7.21431l-0.7295,-1.19492l-6.20991,-0.19241l-1.27932,-1.32791l0.75311,-9.12978l-8.00134,-1.20767l-1.69617,-2.01072l7.31908,-20.63665l1.99986,1.35667l1.12273,12.20244l5.0348,-0.96479l1.25056,2.04844l0.828,14.02263l6.11466,1.18787l1.00441,1.26142l-1.41611,7.65994l5.90623,0.84646l1.01336,2.42757l-0.15279,2.43653l-1.59386,2.37899l3.64041,0.58946l1.62969,2.28563l-1.68017,4.5406l3.50742,1.13929l0.70968,3.08161l-1.28123,2.8911l3.53619,0.41875l-0.62718,3.19478l-0.16175,1.27037z" data-paper-data="{&quot;origPos&quot;:null}" fill="#000001" stroke="#ff0000" stroke-width="0" stroke-linecap="round"/><path d="M295.77136,164.33986c1.59477,-0.67004 3.36929,-1.87136 4.77951,-2.14771c3.11528,-0.6105 6.025,1.49537 7.54359,3.98285c5.09556,8.34663 9.83642,23.28553 -0.41626,29.5447c-3.06006,1.78225 -6.04478,2.8139 -9.60342,1.67832c-1.7437,-0.55642 -3.11625,-2.71919 -4.16842,-4.1097c-3.27525,-4.3284 -7.15619,-9.25339 -9.03493,-14.38901c-1.38239,-4.65126 -4.17707,-8.26167 -2.70184,-13.51734c1.03698,-3.69436 5.76927,-6.16194 9.29215,-5.95758c1.70261,0.09876 3.29824,3.14027 4.09526,4.44581c0,0 0.11047,0.18094 0.21438,0.46963z" data-paper-data="{&quot;origPos&quot;:null}" fill="url(#color-4)" stroke="none" stroke-width="0.5" stroke-linecap="butt"/><path d="M301.07599,152.56903c0.43946,0.71986 0.59821,1.51724 0.49987,2.22554c-0.09743,0.70786 -0.45258,1.3256 -1.0415,1.68513c-0.58893,0.35954 -1.30068,0.39312 -1.97482,0.15631c-0.67495,-0.2362 -1.31166,-0.7418 -1.75113,-1.46166c-0.43941,-0.71977 -0.59816,-1.51716 -0.49987,-2.22554c0.09749,-0.70777 0.45262,-1.32551 1.04155,-1.68505c0.58893,-0.35954 1.30068,-0.39312 1.97478,-0.1564c0.675,0.2363 1.31171,0.74189 1.75113,1.46166z" data-paper-data="{&quot;origPos&quot;:null}" id="ID0.651427554897964" fill="#000000" stroke="none" stroke-width="1.05702" stroke-linecap="butt"/><path d="M314.31605,167.59815c0.43946,0.71986 0.59821,1.51724 0.49987,2.22554c-0.09743,0.70786 -0.45258,1.3256 -1.0415,1.68513c-0.58893,0.35954 -1.30068,0.39312 -1.97482,0.15631c-0.67495,-0.2362 -1.31166,-0.7418 -1.75113,-1.46166c-0.43941,-0.71977 -0.59816,-1.51716 -0.49987,-2.22554c0.09749,-0.70777 0.45262,-1.32551 1.04155,-1.68505c0.58893,-0.35954 1.30068,-0.39312 1.97478,-0.1564c0.675,0.2363 1.31171,0.74189 1.75113,1.46166z" data-paper-data="{&quot;origPos&quot;:null}" id="ID0.651427554897964" fill="#000000" stroke="none" stroke-width="1.05702" stroke-linecap="butt"/></g></g></g></svg>