<svg version="1.1" xmlns="http://www.w3.org/2000/svg" xmlns:xlink="http://www.w3.org/1999/xlink" width="115" height="115" viewBox="0,0,115,115"><defs><linearGradient x1="240.55663" y1="128.125" x2="240.55663" y2="233.875" gradientUnits="userSpaceOnUse" id="color-1"><stop offset="0" stop-color="#38cfd9"/><stop offset="1" stop-color="#ff9c31"/></linearGradient><radialGradient cx="240" cy="195.59963" r="56.88579" gradientUnits="userSpaceOnUse" id="color-2"><stop offset="0" stop-color="#d6b600"/><stop offset="1" stop-color="#b06a00"/></radialGradient><linearGradient x1="240.93163" y1="212.625" x2="240.93163" y2="231.125" gradientUnits="userSpaceOnUse" id="color-3"><stop offset="0" stop-color="#ccb800"/><stop offset="1" stop-color="#cc9f0c"/></linearGradient></defs><g transform="translate(-182.30663,-121.625)"><g data-paper-data="{&quot;isPaintingLayer&quot;:true}" fill-rule="nonzero" stroke-linecap="butt" stroke-linejoin="miter" stroke-miterlimit="10" stroke-dasharray="" stroke-dashoffset="0" style="mix-blend-mode: normal"><path d="M186.80663,128.125h107.5v105.75h-107.5z" data-paper-data="{&quot;origPos&quot;:null}" fill="url(#color-1)" stroke="none" stroke-width="1"/><path d="M260.54621,188.39974c0,11.04569 -9.62588,20 -21.5,20c-11.87412,0 -21.5,-8.95431 -21.5,-20c0,-11.04569 9.62588,-20 21.5,-20c11.87412,0 21.5,8.95431 21.5,20z" data-paper-data="{&quot;origPos&quot;:null}" fill="#ffaa00" stroke="none" stroke-width="0"/><path d="M183.76824,181.36647c-0.47683,-0.46902 -0.84447,-1.2095 -0.5469,-2.33749c0.29425,-1.11544 0.96744,-1.58039 1.60719,-1.75767c4.28523,-4.90365 12.63897,-7.62004 19.0191,-5.04511c4.62735,1.86754 8.78382,5.31292 12.32654,8.7738c2.6997,2.6997 5.43478,6.05724 8.38502,8.39954c3.16545,2.51315 6.84456,4.20754 10.01324,6.84658c1.69067,1.40807 6.49247,5.5982 6.83109,5.52059c1.62455,-0.37232 3.33212,-0.09006 4.99818,-0.13509c5.22433,-0.1412 7.11395,-6.00877 11.00547,-8.92526c9.25515,-6.93626 19.39065,-2.44217 27.55725,3.79339c3.53132,2.73259 6.5103,5.94224 9.94135,8.74638l1,0.83333c0,0 1.32556,0.142 0.89341,2.23614c0.0043,0.15133 -0.00414,0.24409 -0.00414,0.24409c-0.11111,1.22222 0.14509,2.5365 -0.33334,3.66666c-2.30109,5.43572 -7.48668,5.92318 -12.6564,5.94033c-5.92063,0.01964 -12.59258,-0.79882 -18.42234,0.29932c-13.31548,2.21925 -27.58924,1.29293 -41.07766,1.36735c-9.48424,0 -18.73341,0.3481 -28.15695,-0.38189c-2.66316,-0.2063 -6.5973,0.69401 -8.50138,-1.99812c-0.70404,-0.99543 -1.05794,-2.19702 -1.58691,-3.29554c-2.87386,-10.53749 -2.92142,-22.29506 -2.92142,-33.15779z" data-paper-data="{&quot;origPos&quot;:null}" fill="url(#color-2)" stroke="none" stroke-width="0.5"/><path d="M190.05663,212.625h101.75v18.5h-101.75z" data-paper-data="{&quot;origPos&quot;:null}" fill="url(#color-3)" stroke="none" stroke-width="1"/><path d="M186.80663,126.125h106v106h-106z" data-paper-data="{&quot;origPos&quot;:null}" fill="none" stroke="#995900" stroke-width="9"/></g></g></svg>