<svg version="1.1" xmlns="http://www.w3.org/2000/svg" xmlns:xlink="http://www.w3.org/1999/xlink" width="507.54889" height="528.9776" viewBox="0,0,507.54889,528.9776"><defs><linearGradient x1="311.69173" y1="197.81129" x2="311.69173" y2="227.00445" gradientUnits="userSpaceOnUse" id="color-1"><stop offset="0" stop-color="#ca9230"/><stop offset="1" stop-color="#a16d32"/></linearGradient><linearGradient x1="165.75277" y1="218.89524" x2="165.75277" y2="218.89524" gradientUnits="userSpaceOnUse" id="color-2"><stop offset="0" stop-color="#ca9230"/><stop offset="1" stop-color="#a16d32"/></linearGradient><linearGradient x1="210.88892" y1="208.35326" x2="210.88892" y2="208.35326" gradientUnits="userSpaceOnUse" id="color-3"><stop offset="0" stop-color="#ca9230"/><stop offset="1" stop-color="#a16d32"/></linearGradient><linearGradient x1="257.83059" y1="217.2734" x2="257.83059" y2="218.08432" gradientUnits="userSpaceOnUse" id="color-4"><stop offset="0" stop-color="#ca9230"/><stop offset="1" stop-color="#a16d32"/></linearGradient><linearGradient x1="145.89286" y1="206.73142" x2="145.89286" y2="207.54233" gradientUnits="userSpaceOnUse" id="color-5"><stop offset="0" stop-color="#ca9230"/><stop offset="1" stop-color="#a16d32"/></linearGradient><linearGradient x1="370.80587" y1="218.89524" x2="370.80587" y2="218.89524" gradientUnits="userSpaceOnUse" id="color-6"><stop offset="0" stop-color="#ca9230"/><stop offset="1" stop-color="#a16d32"/></linearGradient><linearGradient x1="415.94204" y1="208.35326" x2="415.94204" y2="208.35326" gradientUnits="userSpaceOnUse" id="color-7"><stop offset="0" stop-color="#ca9230"/><stop offset="1" stop-color="#a16d32"/></linearGradient><linearGradient x1="462.8837" y1="217.2734" x2="462.8837" y2="218.08432" gradientUnits="userSpaceOnUse" id="color-8"><stop offset="0" stop-color="#ca9230"/><stop offset="1" stop-color="#a16d32"/></linearGradient><linearGradient x1="318.95773" y1="206.73142" x2="318.95773" y2="207.54233" gradientUnits="userSpaceOnUse" id="color-9"><stop offset="0" stop-color="#ca9230"/><stop offset="1" stop-color="#a16d32"/></linearGradient><linearGradient x1="172.57375" y1="226.81129" x2="172.57375" y2="256.00444" gradientUnits="userSpaceOnUse" id="color-10"><stop offset="0" stop-color="#ca9230"/><stop offset="1" stop-color="#a16d32"/></linearGradient><linearGradient x1="26.63478" y1="247.89524" x2="26.63478" y2="247.89524" gradientUnits="userSpaceOnUse" id="color-11"><stop offset="0" stop-color="#ca9230"/><stop offset="1" stop-color="#a16d32"/></linearGradient><linearGradient x1="71.77094" y1="237.35326" x2="71.77094" y2="237.35326" gradientUnits="userSpaceOnUse" id="color-12"><stop offset="0" stop-color="#ca9230"/><stop offset="1" stop-color="#a16d32"/></linearGradient><linearGradient x1="118.71261" y1="246.2734" x2="118.71261" y2="247.08432" gradientUnits="userSpaceOnUse" id="color-13"><stop offset="0" stop-color="#ca9230"/><stop offset="1" stop-color="#a16d32"/></linearGradient><linearGradient x1="6.77486" y1="235.73142" x2="6.77486" y2="236.54233" gradientUnits="userSpaceOnUse" id="color-14"><stop offset="0" stop-color="#ca9230"/><stop offset="1" stop-color="#a16d32"/></linearGradient><linearGradient x1="231.68789" y1="247.89524" x2="231.68789" y2="247.89524" gradientUnits="userSpaceOnUse" id="color-15"><stop offset="0" stop-color="#ca9230"/><stop offset="1" stop-color="#a16d32"/></linearGradient><linearGradient x1="276.82405" y1="237.35326" x2="276.82405" y2="237.35326" gradientUnits="userSpaceOnUse" id="color-16"><stop offset="0" stop-color="#ca9230"/><stop offset="1" stop-color="#a16d32"/></linearGradient><linearGradient x1="323.7657" y1="246.2734" x2="323.7657" y2="247.08432" gradientUnits="userSpaceOnUse" id="color-17"><stop offset="0" stop-color="#ca9230"/><stop offset="1" stop-color="#a16d32"/></linearGradient><linearGradient x1="179.83974" y1="235.73142" x2="179.83974" y2="236.54233" gradientUnits="userSpaceOnUse" id="color-18"><stop offset="0" stop-color="#ca9230"/><stop offset="1" stop-color="#a16d32"/></linearGradient><linearGradient x1="413.65299" y1="226.8113" x2="413.65299" y2="256.00444" gradientUnits="userSpaceOnUse" id="color-19"><stop offset="0" stop-color="#c48c30"/><stop offset="1" stop-color="#a87332"/></linearGradient><linearGradient x1="373.75277" y1="246.89524" x2="373.75277" y2="248.89524" gradientUnits="userSpaceOnUse" id="color-20"><stop offset="0" stop-color="#c48c30"/><stop offset="1" stop-color="#a87332"/></linearGradient><linearGradient x1="418.88894" y1="236.35326" x2="418.88894" y2="238.35326" gradientUnits="userSpaceOnUse" id="color-21"><stop offset="0" stop-color="#c48c30"/><stop offset="1" stop-color="#a87332"/></linearGradient><linearGradient x1="463.33056" y1="245.67886" x2="463.33056" y2="247.67886" gradientUnits="userSpaceOnUse" id="color-22"><stop offset="0" stop-color="#c48c30"/><stop offset="1" stop-color="#a87332"/></linearGradient><linearGradient x1="353.89284" y1="235.13687" x2="353.89284" y2="237.13687" gradientUnits="userSpaceOnUse" id="color-23"><stop offset="0" stop-color="#c48c30"/><stop offset="1" stop-color="#a87332"/></linearGradient><linearGradient x1="69.21649" y1="197.8113" x2="69.21649" y2="227.00445" gradientUnits="userSpaceOnUse" id="color-24"><stop offset="0" stop-color="#c78f30"/><stop offset="1" stop-color="#a57032"/></linearGradient><linearGradient x1="23.68789" y1="217.89524" x2="23.68789" y2="219.89524" gradientUnits="userSpaceOnUse" id="color-25"><stop offset="0" stop-color="#c78f30"/><stop offset="1" stop-color="#a57032"/></linearGradient><linearGradient x1="68.82405" y1="207.35326" x2="68.82405" y2="209.35326" gradientUnits="userSpaceOnUse" id="color-26"><stop offset="0" stop-color="#c78f30"/><stop offset="1" stop-color="#a57032"/></linearGradient><linearGradient x1="115.76566" y1="216.67886" x2="115.76566" y2="218.67886" gradientUnits="userSpaceOnUse" id="color-27"><stop offset="0" stop-color="#c78f30"/><stop offset="1" stop-color="#a57032"/></linearGradient><linearGradient x1="4.83968" y1="206.63687" x2="4.83968" y2="208.63687" gradientUnits="userSpaceOnUse" id="color-28"><stop offset="0" stop-color="#c78f30"/><stop offset="1" stop-color="#a57032"/></linearGradient><linearGradient x1="311.69173" y1="254.81129" x2="311.69173" y2="284.00444" gradientUnits="userSpaceOnUse" id="color-29"><stop offset="0" stop-color="#ca9230"/><stop offset="1" stop-color="#a16d32"/></linearGradient><linearGradient x1="165.75277" y1="275.8952" x2="165.75277" y2="275.8952" gradientUnits="userSpaceOnUse" id="color-30"><stop offset="0" stop-color="#ca9230"/><stop offset="1" stop-color="#a16d32"/></linearGradient><linearGradient x1="210.88892" y1="265.35321" x2="210.88892" y2="265.35321" gradientUnits="userSpaceOnUse" id="color-31"><stop offset="0" stop-color="#ca9230"/><stop offset="1" stop-color="#a16d32"/></linearGradient><linearGradient x1="257.83059" y1="274.27335" x2="257.83059" y2="275.0843" gradientUnits="userSpaceOnUse" id="color-32"><stop offset="0" stop-color="#ca9230"/><stop offset="1" stop-color="#a16d32"/></linearGradient><linearGradient x1="145.89286" y1="263.73141" x2="145.89286" y2="264.54231" gradientUnits="userSpaceOnUse" id="color-33"><stop offset="0" stop-color="#ca9230"/><stop offset="1" stop-color="#a16d32"/></linearGradient><linearGradient x1="370.80587" y1="275.8952" x2="370.80587" y2="275.8952" gradientUnits="userSpaceOnUse" id="color-34"><stop offset="0" stop-color="#ca9230"/><stop offset="1" stop-color="#a16d32"/></linearGradient><linearGradient x1="415.94204" y1="265.35321" x2="415.94204" y2="265.35321" gradientUnits="userSpaceOnUse" id="color-35"><stop offset="0" stop-color="#ca9230"/><stop offset="1" stop-color="#a16d32"/></linearGradient><linearGradient x1="462.8837" y1="274.27335" x2="462.8837" y2="275.0843" gradientUnits="userSpaceOnUse" id="color-36"><stop offset="0" stop-color="#ca9230"/><stop offset="1" stop-color="#a16d32"/></linearGradient><linearGradient x1="318.95773" y1="263.73141" x2="318.95773" y2="264.54231" gradientUnits="userSpaceOnUse" id="color-37"><stop offset="0" stop-color="#ca9230"/><stop offset="1" stop-color="#a16d32"/></linearGradient><linearGradient x1="172.57375" y1="283.81129" x2="172.57375" y2="313.00444" gradientUnits="userSpaceOnUse" id="color-38"><stop offset="0" stop-color="#ca9230"/><stop offset="1" stop-color="#a16d32"/></linearGradient><linearGradient x1="26.63478" y1="304.8952" x2="26.63478" y2="304.8952" gradientUnits="userSpaceOnUse" id="color-39"><stop offset="0" stop-color="#ca9230"/><stop offset="1" stop-color="#a16d32"/></linearGradient><linearGradient x1="71.77094" y1="294.35321" x2="71.77094" y2="294.35321" gradientUnits="userSpaceOnUse" id="color-40"><stop offset="0" stop-color="#ca9230"/><stop offset="1" stop-color="#a16d32"/></linearGradient><linearGradient x1="118.71261" y1="303.27335" x2="118.71261" y2="304.0843" gradientUnits="userSpaceOnUse" id="color-41"><stop offset="0" stop-color="#ca9230"/><stop offset="1" stop-color="#a16d32"/></linearGradient><linearGradient x1="6.77486" y1="292.73141" x2="6.77486" y2="293.54231" gradientUnits="userSpaceOnUse" id="color-42"><stop offset="0" stop-color="#ca9230"/><stop offset="1" stop-color="#a16d32"/></linearGradient><linearGradient x1="231.68789" y1="304.8952" x2="231.68789" y2="304.8952" gradientUnits="userSpaceOnUse" id="color-43"><stop offset="0" stop-color="#ca9230"/><stop offset="1" stop-color="#a16d32"/></linearGradient><linearGradient x1="276.82405" y1="294.35321" x2="276.82405" y2="294.35321" gradientUnits="userSpaceOnUse" id="color-44"><stop offset="0" stop-color="#ca9230"/><stop offset="1" stop-color="#a16d32"/></linearGradient><linearGradient x1="323.7657" y1="303.27335" x2="323.7657" y2="304.0843" gradientUnits="userSpaceOnUse" id="color-45"><stop offset="0" stop-color="#ca9230"/><stop offset="1" stop-color="#a16d32"/></linearGradient><linearGradient x1="179.83974" y1="292.73141" x2="179.83974" y2="293.54231" gradientUnits="userSpaceOnUse" id="color-46"><stop offset="0" stop-color="#ca9230"/><stop offset="1" stop-color="#a16d32"/></linearGradient><linearGradient x1="413.653" y1="283.81129" x2="413.653" y2="313.00444" gradientUnits="userSpaceOnUse" id="color-47"><stop offset="0" stop-color="#c48c30"/><stop offset="1" stop-color="#a87332"/></linearGradient><linearGradient x1="373.75277" y1="303.8952" x2="373.75277" y2="305.8952" gradientUnits="userSpaceOnUse" id="color-48"><stop offset="0" stop-color="#c48c30"/><stop offset="1" stop-color="#a87332"/></linearGradient><linearGradient x1="418.88894" y1="293.35321" x2="418.88894" y2="295.35321" gradientUnits="userSpaceOnUse" id="color-49"><stop offset="0" stop-color="#c48c30"/><stop offset="1" stop-color="#a87332"/></linearGradient><linearGradient x1="463.33056" y1="302.67886" x2="463.33056" y2="304.67886" gradientUnits="userSpaceOnUse" id="color-50"><stop offset="0" stop-color="#c48c30"/><stop offset="1" stop-color="#a87332"/></linearGradient><linearGradient x1="353.89284" y1="292.13687" x2="353.89284" y2="294.13687" gradientUnits="userSpaceOnUse" id="color-51"><stop offset="0" stop-color="#c48c30"/><stop offset="1" stop-color="#a87332"/></linearGradient><linearGradient x1="69.21649" y1="254.8113" x2="69.21649" y2="284.00444" gradientUnits="userSpaceOnUse" id="color-52"><stop offset="0" stop-color="#c78f30"/><stop offset="1" stop-color="#a57032"/></linearGradient><linearGradient x1="23.68789" y1="274.8952" x2="23.68789" y2="276.8952" gradientUnits="userSpaceOnUse" id="color-53"><stop offset="0" stop-color="#c78f30"/><stop offset="1" stop-color="#a57032"/></linearGradient><linearGradient x1="68.82405" y1="264.35321" x2="68.82405" y2="266.35321" gradientUnits="userSpaceOnUse" id="color-54"><stop offset="0" stop-color="#c78f30"/><stop offset="1" stop-color="#a57032"/></linearGradient><linearGradient x1="115.76566" y1="273.67886" x2="115.76566" y2="275.67886" gradientUnits="userSpaceOnUse" id="color-55"><stop offset="0" stop-color="#c78f30"/><stop offset="1" stop-color="#a57032"/></linearGradient><linearGradient x1="4.83968" y1="263.63687" x2="4.83968" y2="265.63687" gradientUnits="userSpaceOnUse" id="color-56"><stop offset="0" stop-color="#c78f30"/><stop offset="1" stop-color="#a57032"/></linearGradient><linearGradient x1="311.69173" y1="312.81129" x2="311.69173" y2="342.00446" gradientUnits="userSpaceOnUse" id="color-57"><stop offset="0" stop-color="#ca9230"/><stop offset="1" stop-color="#a16d32"/></linearGradient><linearGradient x1="165.75277" y1="333.8952" x2="165.75277" y2="333.8952" gradientUnits="userSpaceOnUse" id="color-58"><stop offset="0" stop-color="#ca9230"/><stop offset="1" stop-color="#a16d32"/></linearGradient><linearGradient x1="210.88892" y1="323.35321" x2="210.88892" y2="323.35321" gradientUnits="userSpaceOnUse" id="color-59"><stop offset="0" stop-color="#ca9230"/><stop offset="1" stop-color="#a16d32"/></linearGradient><linearGradient x1="257.83059" y1="332.27335" x2="257.83059" y2="333.0843" gradientUnits="userSpaceOnUse" id="color-60"><stop offset="0" stop-color="#ca9230"/><stop offset="1" stop-color="#a16d32"/></linearGradient><linearGradient x1="145.89286" y1="321.73141" x2="145.89286" y2="322.54231" gradientUnits="userSpaceOnUse" id="color-61"><stop offset="0" stop-color="#ca9230"/><stop offset="1" stop-color="#a16d32"/></linearGradient><linearGradient x1="370.80587" y1="333.8952" x2="370.80587" y2="333.8952" gradientUnits="userSpaceOnUse" id="color-62"><stop offset="0" stop-color="#ca9230"/><stop offset="1" stop-color="#a16d32"/></linearGradient><linearGradient x1="415.94204" y1="323.35321" x2="415.94204" y2="323.35321" gradientUnits="userSpaceOnUse" id="color-63"><stop offset="0" stop-color="#ca9230"/><stop offset="1" stop-color="#a16d32"/></linearGradient><linearGradient x1="462.8837" y1="332.27335" x2="462.8837" y2="333.0843" gradientUnits="userSpaceOnUse" id="color-64"><stop offset="0" stop-color="#ca9230"/><stop offset="1" stop-color="#a16d32"/></linearGradient><linearGradient x1="318.95773" y1="321.73141" x2="318.95773" y2="322.54231" gradientUnits="userSpaceOnUse" id="color-65"><stop offset="0" stop-color="#ca9230"/><stop offset="1" stop-color="#a16d32"/></linearGradient><linearGradient x1="69.21649" y1="312.81129" x2="69.21649" y2="342.00446" gradientUnits="userSpaceOnUse" id="color-66"><stop offset="0" stop-color="#c78f30"/><stop offset="1" stop-color="#a57032"/></linearGradient><linearGradient x1="23.68789" y1="332.8952" x2="23.68789" y2="334.8952" gradientUnits="userSpaceOnUse" id="color-67"><stop offset="0" stop-color="#c78f30"/><stop offset="1" stop-color="#a57032"/></linearGradient><linearGradient x1="68.82405" y1="322.35321" x2="68.82405" y2="324.35321" gradientUnits="userSpaceOnUse" id="color-68"><stop offset="0" stop-color="#c78f30"/><stop offset="1" stop-color="#a57032"/></linearGradient><linearGradient x1="115.76566" y1="331.67886" x2="115.76566" y2="333.67886" gradientUnits="userSpaceOnUse" id="color-69"><stop offset="0" stop-color="#c78f30"/><stop offset="1" stop-color="#a57032"/></linearGradient><linearGradient x1="4.83968" y1="321.63687" x2="4.83968" y2="323.63687" gradientUnits="userSpaceOnUse" id="color-70"><stop offset="0" stop-color="#c78f30"/><stop offset="1" stop-color="#a57032"/></linearGradient><linearGradient x1="70.32002" y1="111.81131" x2="70.32002" y2="141.00448" gradientUnits="userSpaceOnUse" id="color-71"><stop offset="0" stop-color="#c48c30"/><stop offset="1" stop-color="#a87332"/></linearGradient><linearGradient x1="111.39529" y1="131.89524" x2="111.39529" y2="133.89524" gradientUnits="userSpaceOnUse" id="color-72"><stop offset="0" stop-color="#c48c30"/><stop offset="1" stop-color="#a87332"/></linearGradient><linearGradient x1="64.92987" y1="121.35328" x2="64.92987" y2="123.35328" gradientUnits="userSpaceOnUse" id="color-73"><stop offset="0" stop-color="#c48c30"/><stop offset="1" stop-color="#a87332"/></linearGradient><linearGradient x1="19.17947" y1="130.67883" x2="19.17947" y2="132.67883" gradientUnits="userSpaceOnUse" id="color-74"><stop offset="0" stop-color="#c48c30"/><stop offset="1" stop-color="#a87332"/></linearGradient><linearGradient x1="131.84009" y1="120.13689" x2="131.84009" y2="122.13689" gradientUnits="userSpaceOnUse" id="color-75"><stop offset="0" stop-color="#c48c30"/><stop offset="1" stop-color="#a87332"/></linearGradient><linearGradient x1="70.32002" y1="168.81131" x2="70.32002" y2="198.00447" gradientUnits="userSpaceOnUse" id="color-76"><stop offset="0" stop-color="#c48c30"/><stop offset="1" stop-color="#a87332"/></linearGradient><linearGradient x1="111.39529" y1="188.89525" x2="111.39529" y2="190.89525" gradientUnits="userSpaceOnUse" id="color-77"><stop offset="0" stop-color="#c48c30"/><stop offset="1" stop-color="#a87332"/></linearGradient><linearGradient x1="64.92987" y1="178.35327" x2="64.92987" y2="180.35327" gradientUnits="userSpaceOnUse" id="color-78"><stop offset="0" stop-color="#c48c30"/><stop offset="1" stop-color="#a87332"/></linearGradient><linearGradient x1="19.17947" y1="187.67888" x2="19.17947" y2="189.67888" gradientUnits="userSpaceOnUse" id="color-79"><stop offset="0" stop-color="#c48c30"/><stop offset="1" stop-color="#a87332"/></linearGradient><linearGradient x1="131.84009" y1="177.13689" x2="131.84009" y2="179.13689" gradientUnits="userSpaceOnUse" id="color-80"><stop offset="0" stop-color="#c48c30"/><stop offset="1" stop-color="#a87332"/></linearGradient><linearGradient x1="70.32002" y1="82.81127" x2="70.32002" y2="112.00448" gradientUnits="userSpaceOnUse" id="color-81"><stop offset="0" stop-color="#c48c30"/><stop offset="1" stop-color="#a87332"/></linearGradient><linearGradient x1="111.39529" y1="102.89525" x2="111.39529" y2="104.89525" gradientUnits="userSpaceOnUse" id="color-82"><stop offset="0" stop-color="#c48c30"/><stop offset="1" stop-color="#a87332"/></linearGradient><linearGradient x1="64.92987" y1="92.35328" x2="64.92987" y2="94.35328" gradientUnits="userSpaceOnUse" id="color-83"><stop offset="0" stop-color="#c48c30"/><stop offset="1" stop-color="#a87332"/></linearGradient><linearGradient x1="19.17946" y1="101.67888" x2="19.17946" y2="103.67888" gradientUnits="userSpaceOnUse" id="color-84"><stop offset="0" stop-color="#c48c30"/><stop offset="1" stop-color="#a87332"/></linearGradient><linearGradient x1="131.84009" y1="91.13689" x2="131.84009" y2="93.13689" gradientUnits="userSpaceOnUse" id="color-85"><stop offset="0" stop-color="#c48c30"/><stop offset="1" stop-color="#a87332"/></linearGradient><linearGradient x1="70.32001" y1="139.81126" x2="70.32001" y2="169.00448" gradientUnits="userSpaceOnUse" id="color-86"><stop offset="0" stop-color="#c48c30"/><stop offset="1" stop-color="#a87332"/></linearGradient><linearGradient x1="111.39529" y1="159.89524" x2="111.39529" y2="161.89524" gradientUnits="userSpaceOnUse" id="color-87"><stop offset="0" stop-color="#c48c30"/><stop offset="1" stop-color="#a87332"/></linearGradient><linearGradient x1="64.92987" y1="149.35324" x2="64.92987" y2="151.35324" gradientUnits="userSpaceOnUse" id="color-88"><stop offset="0" stop-color="#c48c30"/><stop offset="1" stop-color="#a87332"/></linearGradient><linearGradient x1="19.17946" y1="158.67883" x2="19.17946" y2="160.67883" gradientUnits="userSpaceOnUse" id="color-89"><stop offset="0" stop-color="#c48c30"/><stop offset="1" stop-color="#a87332"/></linearGradient><linearGradient x1="131.84009" y1="148.13689" x2="131.84009" y2="150.13689" gradientUnits="userSpaceOnUse" id="color-90"><stop offset="0" stop-color="#c48c30"/><stop offset="1" stop-color="#a87332"/></linearGradient><linearGradient x1="70.32002" y1="53.81131" x2="70.32002" y2="83.00441" gradientUnits="userSpaceOnUse" id="color-91"><stop offset="0" stop-color="#c48c30"/><stop offset="1" stop-color="#a87332"/></linearGradient><linearGradient x1="111.39531" y1="73.89522" x2="111.39531" y2="75.89522" gradientUnits="userSpaceOnUse" id="color-92"><stop offset="0" stop-color="#c48c30"/><stop offset="1" stop-color="#a87332"/></linearGradient><linearGradient x1="64.92987" y1="63.35326" x2="64.92987" y2="65.35322" gradientUnits="userSpaceOnUse" id="color-93"><stop offset="0" stop-color="#c48c30"/><stop offset="1" stop-color="#a87332"/></linearGradient><linearGradient x1="19.17947" y1="72.67888" x2="19.17947" y2="74.67888" gradientUnits="userSpaceOnUse" id="color-94"><stop offset="0" stop-color="#c48c30"/><stop offset="1" stop-color="#a87332"/></linearGradient><linearGradient x1="131.8401" y1="62.13688" x2="131.8401" y2="64.13684" gradientUnits="userSpaceOnUse" id="color-95"><stop offset="0" stop-color="#c48c30"/><stop offset="1" stop-color="#a87332"/></linearGradient><linearGradient x1="260" y1="-153.54607" x2="260" y2="40.56772" gradientUnits="userSpaceOnUse" id="color-96"><stop offset="0" stop-color="#c48c30"/><stop offset="1" stop-color="#a87332"/></linearGradient><linearGradient x1="310" y1="245.99933" x2="310" y2="296.00073" gradientUnits="userSpaceOnUse" id="color-97"><stop offset="0" stop-color="#64b9e0"/><stop offset="1" stop-color="#badbee"/></linearGradient><linearGradient x1="374.00001" y1="245.99933" x2="374.00001" y2="296.00073" gradientUnits="userSpaceOnUse" id="color-98"><stop offset="0" stop-color="#64b9e0"/><stop offset="1" stop-color="#badbee"/></linearGradient><linearGradient x1="73" y1="106.72616" x2="73" y2="156.72756" gradientUnits="userSpaceOnUse" id="color-99"><stop offset="0" stop-color="#64b9e0"/><stop offset="1" stop-color="#badbee"/></linearGradient><linearGradient x1="379.96707" y1="30.56775" x2="379.96707" y2="43.43276" gradientUnits="userSpaceOnUse" id="color-100"><stop offset="0" stop-color="#c48c30"/><stop offset="1" stop-color="#a87332"/></linearGradient></defs><g transform="translate(2.97222,154.54608)"><g data-paper-data="{&quot;isPaintingLayer&quot;:true}" fill-rule="nonzero" stroke-linejoin="miter" stroke-miterlimit="10" stroke-dasharray="" stroke-dashoffset="0" style="mix-blend-mode: normal"><g stroke-linecap="butt"><path d="M66,348.50003c5.242,0 9.992,2.129 13.431,5.569c3.44,3.439 5.569,8.189 5.569,13.431c0,5.242 -38,5.242 -38,0c0,-5.242 2.129,-9.992 5.569,-13.431c3.439,-3.44 8.189,-5.569 13.431,-5.569z" fill="#000000" stroke="none" stroke-width="1"/><path d="M57,332.50003h14v21h-14z" fill="#b2b2b2" stroke="#666666" stroke-width="2"/></g><g stroke-linecap="butt"><path d="M243,351.50003c5.242,0 9.992,2.129 13.431,5.569c3.44,3.439 5.569,8.189 5.569,13.431c0,5.242 -38,5.242 -38,0c0,-5.242 2.129,-9.992 5.569,-13.431c3.439,-3.44 8.189,-5.569 13.431,-5.569z" fill="#000000" stroke="none" stroke-width="1"/><path d="M234,335.50003h14v21h-14z" fill="#b2b2b2" stroke="#666666" stroke-width="2"/></g><g stroke-linecap="butt"><path d="M402,350.50003c5.242,0 9.992,2.129 13.431,5.569c3.44,3.439 5.569,8.189 5.569,13.431c0,5.242 -38,5.242 -38,0c0,-5.242 2.129,-9.992 5.569,-13.431c3.439,-3.44 8.189,-5.569 13.431,-5.569z" fill="#000000" stroke="none" stroke-width="1"/><path d="M393,334.50003h14v21h-14z" fill="#b2b2b2" stroke="#666666" stroke-width="2"/></g><g stroke="#8c572c" stroke-width="2"><g><path d="M138.06926,227.00445v-29.19316h342.24497v29.19316z" fill="url(#color-1)" stroke-linecap="butt"/><path d="M140.47652,218.89524h50.5525" fill="url(#color-2)" stroke-linecap="round"/><path d="M252.41422,208.35326h-83.05056" fill="url(#color-3)" stroke-linecap="round"/><path d="M278.8941,218.08432l-42.12709,-0.81093" fill="url(#color-4)" stroke-linecap="round"/><path d="M153.71645,207.54233l-15.64722,-0.81092" fill="url(#color-5)" stroke-linecap="round"/><path d="M345.52962,218.89524h50.55251" fill="url(#color-6)" stroke-linecap="round"/><path d="M374.41676,208.35326h83.05057" fill="url(#color-7)" stroke-linecap="round"/><path d="M478.9472,218.08432l-37.12709,-0.81093" fill="url(#color-8)" stroke-linecap="round"/><path d="M279.14577,206.73141l79.62379,0.81092" fill="url(#color-9)" stroke-linecap="round"/></g><g><path d="M-1.04873,256.00444v-29.19316h347.24498v29.19316z" fill="url(#color-10)" stroke-linecap="butt"/><path d="M51.91104,247.89524h-50.55251" fill="url(#color-11)" stroke-linecap="round"/><path d="M113.29624,237.35326h-83.05057" fill="url(#color-12)" stroke-linecap="round"/><path d="M139.77611,247.08432l-42.1271,-0.81093" fill="url(#color-13)" stroke-linecap="round"/><path d="M14.59846,236.54234l-15.64722,-0.81092" fill="url(#color-14)" stroke-linecap="round"/><path d="M206.41163,247.89524h50.55251" fill="url(#color-15)" stroke-linecap="round"/><path d="M318.34933,237.35326h-83.05057" fill="url(#color-16)" stroke-linecap="round"/><path d="M344.82921,247.08432l-42.1271,-0.81093" fill="url(#color-17)" stroke-linecap="round"/><path d="M219.65157,236.54233l-79.62379,-0.81092" fill="url(#color-18)" stroke-linecap="round"/></g><g><path d="M481.23673,256.00444h-135.16746v-29.19316h135.16747" fill="url(#color-19)" stroke-linecap="butt"/><path d="M348.47652,247.89524h50.5525" fill="url(#color-20)" stroke-linecap="round"/><path d="M377.36366,237.35326h83.05056" fill="url(#color-21)" stroke-linecap="round"/><path d="M444.76701,246.2734l37.12709,0.81093" fill="url(#color-22)" stroke-linecap="round"/><path d="M346.06923,235.73141l15.64722,0.81092" fill="url(#color-23)" stroke-linecap="round"/></g><g><path d="M0.23673,197.8113h137.95952v29.19316h-137.02698" fill="url(#color-24)" stroke-linecap="butt"/><path d="M48.96414,218.89524h-50.55251" fill="url(#color-25)" stroke-linecap="round"/><path d="M110.34933,208.35326h-83.05057" fill="url(#color-26)" stroke-linecap="round"/><path d="M136.82921,218.08432l-42.1271,-0.81093" fill="url(#color-27)" stroke-linecap="round"/><path d="M-1.97222,207.73142l13.62379,-0.18908" fill="url(#color-28)" stroke-linecap="round"/></g><g><path d="M138.06926,284.00444v-29.19316h342.24497v29.19316z" fill="url(#color-29)" stroke-linecap="butt"/><path d="M191.02902,275.8952h-50.5525" fill="url(#color-30)" stroke-linecap="round"/><path d="M169.36366,265.35321h83.05056" fill="url(#color-31)" stroke-linecap="round"/><path d="M278.8941,275.0843l-42.12709,-0.81093" fill="url(#color-32)" stroke-linecap="round"/><path d="M138.06923,263.73141l15.64722,0.81092" fill="url(#color-33)" stroke-linecap="round"/><path d="M345.52962,275.8952h50.55251" fill="url(#color-34)" stroke-linecap="round"/><path d="M457.46733,265.35321h-83.05057" fill="url(#color-35)" stroke-linecap="round"/><path d="M441.82011,274.27335l37.12709,0.81093" fill="url(#color-36)" stroke-linecap="round"/><path d="M279.14577,263.73141l79.62379,0.81092" fill="url(#color-37)" stroke-linecap="round"/></g><g><path d="M-1.04873,313.00444v-29.19316h347.24498v29.19316z" fill="url(#color-38)" stroke-linecap="butt"/><path d="M1.35853,304.8952h50.55251" fill="url(#color-39)" stroke-linecap="round"/><path d="M30.24567,294.35321h83.05057" fill="url(#color-40)" stroke-linecap="round"/><path d="M139.77611,304.0843l-42.1271,-0.81093" fill="url(#color-41)" stroke-linecap="round"/><path d="M14.59846,293.54233l-15.64722,-0.81092" fill="url(#color-42)" stroke-linecap="round"/><path d="M206.41163,304.8952h50.55251" fill="url(#color-43)" stroke-linecap="round"/><path d="M235.29876,294.35321h83.05057" fill="url(#color-44)" stroke-linecap="round"/><path d="M302.70211,303.2734l42.1271,0.81093" fill="url(#color-45)" stroke-linecap="round"/><path d="M219.65157,293.54233l-79.62379,-0.81092" fill="url(#color-46)" stroke-linecap="round"/></g><g><path d="M481.23673,313.00444h-135.16746v-29.19316h135.16747" fill="url(#color-47)" stroke-linecap="butt"/><path d="M348.47652,304.8952h50.5525" fill="url(#color-48)" stroke-linecap="round"/><path d="M377.36366,294.35321h83.05056" fill="url(#color-49)" stroke-linecap="round"/><path d="M444.76701,303.27335l37.12709,0.81093" fill="url(#color-50)" stroke-linecap="round"/><path d="M361.71645,293.54233l-15.64722,-0.81092" fill="url(#color-51)" stroke-linecap="round"/></g><g><path d="M0.23673,254.8113h137.95952v29.19316h-137.02698" fill="url(#color-52)" stroke-linecap="butt"/><path d="M-1.58837,275.8952h50.55251" fill="url(#color-53)" stroke-linecap="round"/><path d="M110.34933,265.35321h-83.05057" fill="url(#color-54)" stroke-linecap="round"/><path d="M136.82921,275.0843l-42.1271,-0.81093" fill="url(#color-55)" stroke-linecap="round"/><path d="M-1.97222,264.73141l13.62379,-0.18908" fill="url(#color-56)" stroke-linecap="round"/></g><g><path d="M138.06926,342.00446v-29.19316h342.24497v29.19316z" fill="url(#color-57)" stroke-linecap="butt"/><path d="M191.02902,333.8952h-50.5525" fill="url(#color-58)" stroke-linecap="round"/><path d="M169.36366,323.35321h83.05056" fill="url(#color-59)" stroke-linecap="round"/><path d="M236.76701,332.27338l42.12709,0.81093" fill="url(#color-60)" stroke-linecap="round"/><path d="M138.06923,321.73141l15.64722,0.81092" fill="url(#color-61)" stroke-linecap="round"/><path d="M345.52962,333.8952h50.55251" fill="url(#color-62)" stroke-linecap="round"/><path d="M374.41676,323.35321h83.05057" fill="url(#color-63)" stroke-linecap="round"/><path d="M478.9472,333.0843l-37.12709,-0.81093" fill="url(#color-64)" stroke-linecap="round"/><path d="M279.14577,321.73141l79.62379,0.81092" fill="url(#color-65)" stroke-linecap="round"/></g><g><path d="M0.23673,312.81129h137.95952v29.19316h-137.02698" fill="url(#color-66)" stroke-linecap="butt"/><path d="M48.96414,333.8952h-50.55251" fill="url(#color-67)" stroke-linecap="round"/><path d="M27.29876,323.35321h83.05057" fill="url(#color-68)" stroke-linecap="round"/><path d="M136.82921,333.08428l-42.1271,-0.81093" fill="url(#color-69)" stroke-linecap="round"/><path d="M11.65157,322.54231l-13.62379,0.18908" fill="url(#color-70)" stroke-linecap="round"/></g></g><g data-paper-data="{&quot;index&quot;:null}" stroke="#8c572c" stroke-width="2"><path d="M0.74597,111.81131h139.1481v29.19316h-139.14809" fill="url(#color-71)" stroke-linecap="butt"/><path d="M137.41591,132.89524h-52.04126" fill="url(#color-72)" stroke-linecap="round"/><path d="M107.67806,122.35328h-85.49638" fill="url(#color-73)" stroke-linecap="round"/><path d="M38.28971,131.2734l-38.22047,0.81093" fill="url(#color-74)" stroke-linecap="round"/><path d="M123.78609,121.54235l16.10802,-0.81092" fill="url(#color-75)" stroke-linecap="round"/></g><g data-paper-data="{&quot;index&quot;:null}" stroke="#8c572c" stroke-width="2"><path d="M0.74597,168.81131h139.1481v29.19316h-139.14809" fill="url(#color-76)" stroke-linecap="butt"/><path d="M137.41592,189.89525h-52.04126" fill="url(#color-77)" stroke-linecap="round"/><path d="M107.67806,179.35327h-85.49638" fill="url(#color-78)" stroke-linecap="round"/><path d="M38.28971,188.2734l-38.22047,0.81093" fill="url(#color-79)" stroke-linecap="round"/><path d="M139.89411,177.73143l-16.10802,0.81092" fill="url(#color-80)" stroke-linecap="round"/></g><g data-paper-data="{&quot;index&quot;:null}" stroke="#8c572c" stroke-width="2"><path d="M0.74597,82.81127h139.1481v29.19316h-139.1481" fill="url(#color-81)" stroke-linecap="butt"/><path d="M137.41593,103.89525h-52.04125" fill="url(#color-82)" stroke-linecap="round"/><path d="M22.18168,93.35328h85.49638" fill="url(#color-83)" stroke-linecap="round"/><path d="M38.28971,102.27342l-38.22047,0.81093" fill="url(#color-84)" stroke-linecap="round"/><path d="M123.78608,92.54235l16.10803,-0.81092" fill="url(#color-85)" stroke-linecap="round"/></g><g data-paper-data="{&quot;index&quot;:null}" stroke="#8c572c" stroke-width="2"><path d="M0.74597,139.81131h139.1481v29.19316h-139.1481" fill="url(#color-86)" stroke-linecap="butt"/><path d="M85.37468,160.89524h52.04125" fill="url(#color-87)" stroke-linecap="round"/><path d="M22.18169,150.35324h85.49638" fill="url(#color-88)" stroke-linecap="round"/><path d="M38.28971,159.27342l-38.22047,0.81093" fill="url(#color-89)" stroke-linecap="round"/><path d="M139.89411,148.73143l-16.10803,0.81092" fill="url(#color-90)" stroke-linecap="round"/></g><g data-paper-data="{&quot;index&quot;:null}" stroke="#8c572c" stroke-width="2"><path d="M0.74597,53.81131h139.1481v29.19316h-139.1481" fill="url(#color-91)" stroke-linecap="butt"/><path d="M85.37467,74.89522h52.04125" fill="url(#color-92)" stroke-linecap="round"/><path d="M107.67807,64.35322h-85.49638" fill="url(#color-93)" stroke-linecap="round"/><path d="M0.06924,74.08428l38.22047,-0.81093" fill="url(#color-94)" stroke-linecap="round"/><path d="M123.78609,63.54234l16.10803,-0.81092" fill="url(#color-95)" stroke-linecap="round"/></g><path d="M256,-153.54607h8v194.11381h-8z" fill="url(#color-96)" stroke="#8c572c" stroke-width="2" stroke-linecap="butt"/><path d="M290.70174,255.10734c8.77729,-10.65813 24.53281,-12.18286 35.19094,-3.40558c10.65813,8.77728 12.18286,24.53281 3.40557,35.19093c-8.77729,10.65813 -24.53281,12.18286 -35.19094,3.40557c-10.65813,-8.77729 -12.18286,-24.5328 -3.40557,-35.19093z" data-paper-data="{&quot;origPos&quot;:null,&quot;origRot&quot;:0}" fill="url(#color-97)" stroke="#784a08" stroke-width="7" stroke-linecap="butt"/><path d="M354.70175,255.10734c8.77729,-10.65813 24.5328,-12.18286 35.19094,-3.40558c10.65813,8.77728 12.18286,24.53281 3.40557,35.19093c-8.77729,10.65813 -24.53281,12.18286 -35.19094,3.40557c-10.65813,-8.77729 -12.18286,-24.5328 -3.40557,-35.19093z" data-paper-data="{&quot;origPos&quot;:null,&quot;origRot&quot;:0}" fill="url(#color-98)" stroke="#784a08" stroke-width="7" stroke-linecap="butt"/><path d="M53.70174,115.83418c8.77729,-10.65813 24.53281,-12.18286 35.19094,-3.40558c10.65813,8.77729 12.18286,24.53281 3.40557,35.19094c-8.77729,10.65813 -24.53281,12.18286 -35.19094,3.40557c-10.65813,-8.77729 -12.18286,-24.5328 -3.40557,-35.19093z" data-paper-data="{&quot;origPos&quot;:null,&quot;origRot&quot;:0}" fill="url(#color-99)" stroke="#784a08" stroke-width="7" stroke-linecap="butt"/><path d="M256.2874,30.56775l247.35933,1v11.86502l-247.35933,-1z" fill="url(#color-100)" stroke="#8c572c" stroke-width="1.85989" stroke-linecap="butt"/></g></g></svg>