<svg version="1.1" xmlns="http://www.w3.org/2000/svg" xmlns:xlink="http://www.w3.org/1999/xlink" width="489.38931" height="223.33868" viewBox="0,0,489.38931,223.33868"><defs><linearGradient x1="115.835" y1="361.31352" x2="115.835" y2="320.39864" gradientUnits="userSpaceOnUse" id="color-1"><stop offset="0" stop-color="#af9141"/><stop offset="1" stop-color="#ddb747"/></linearGradient><linearGradient x1="-5.165" y1="361.31352" x2="-5.165" y2="320.39864" gradientUnits="userSpaceOnUse" id="color-2"><stop offset="0" stop-color="#af9141"/><stop offset="1" stop-color="#ddb747"/></linearGradient><linearGradient x1="236.835" y1="361.31352" x2="236.835" y2="320.39864" gradientUnits="userSpaceOnUse" id="color-3"><stop offset="0" stop-color="#af9141"/><stop offset="1" stop-color="#ddb747"/></linearGradient><linearGradient x1="357.89431" y1="361.25121" x2="357.89431" y2="320.33633" gradientUnits="userSpaceOnUse" id="color-4"><stop offset="0" stop-color="#af9141"/><stop offset="1" stop-color="#ddb747"/></linearGradient></defs><g transform="translate(6.165,-138.97484)"><g data-paper-data="{&quot;isPaintingLayer&quot;:true}" fill-rule="nonzero" stroke-linejoin="miter" stroke-miterlimit="10" stroke-dasharray="" stroke-dashoffset="0" style="mix-blend-mode: normal"><path d="" data-paper-data="{&quot;index&quot;:null}" fill="#ffe5ad" stroke="#8c7531" stroke-width="0" stroke-linecap="butt"/><path d="M115.835,320.39863h120.33v40.91489h-120.33z" data-paper-data="{&quot;index&quot;:null}" fill="url(#color-1)" stroke="#91773e" stroke-width="2" stroke-linecap="butt"/><path d="M-5.165,320.39863h120.33v40.91489h-120.33z" data-paper-data="{&quot;index&quot;:null}" fill="url(#color-2)" stroke="#91773e" stroke-width="2" stroke-linecap="butt"/><path d="M236.835,320.39863h120.33v40.91489h-120.33z" data-paper-data="{&quot;index&quot;:null}" fill="url(#color-3)" stroke="#91773e" stroke-width="2" stroke-linecap="butt"/><path d="M357.89431,320.33632h124.33v40.91489h-124.33z" data-paper-data="{&quot;index&quot;:null}" fill="url(#color-4)" stroke="#91773e" stroke-width="2" stroke-linecap="butt"/><g><path d="M331.66407,310.49161v-159.73698h38.47682v159.73698z" fill="#d5b146" stroke="none" stroke-width="0" stroke-linecap="butt"/><g fill="none" stroke="#d5b146" stroke-width="8" stroke-linecap="round"><path d="M378.56914,316.49597h-55.33333"/><path d="M329.58554,310.96268h42.63388"/></g><g data-paper-data="{&quot;index&quot;:null}" fill="none" stroke="#d5b146" stroke-width="8" stroke-linecap="round"><path d="M323.2358,142.97484h55.33333"/><path d="M329.58554,148.50815h42.63388"/></g><path d="M351.11526,304.71894v-148.36877" fill="none" stroke="#be9e3f" stroke-width="4" stroke-linecap="round"/><path d="M340.12188,304.71895v-148.36879" fill="none" stroke="#be9e3f" stroke-width="4" stroke-linecap="round"/><path d="M362.10864,156.35017v148.36879" fill="none" stroke="#be9e3f" stroke-width="4" stroke-linecap="round"/></g><g><path d="M180.8708,269.63353l118.44519,-49.38731l14.80776,35.51332l-118.44519,49.38731z" fill="#d5b146" stroke="none" stroke-width="0" stroke-linecap="butt"/><g fill="none" stroke="#d5b146" stroke-width="8" stroke-linecap="round"><path d="M172.09238,264.16223l21.29496,51.07154"/><path d="M197.58545,306.60373l-16.4076,-39.3502"/></g><g data-paper-data="{&quot;index&quot;:null}" fill="none" stroke="#d5b146" stroke-width="8" stroke-linecap="round"><path d="M326.22305,259.84613l-21.29496,-51.07154"/><path d="M300.72999,217.40465l16.4076,39.3502"/></g><path d="M194.03652,285.21825l108.667,-45.31016" fill="none" stroke="#be9e3f" stroke-width="4" stroke-linecap="round"/><path d="M298.47273,229.76142l-108.66701,45.31017" fill="none" stroke="#be9e3f" stroke-width="4" stroke-linecap="round"/><path d="M198.2673,295.36492l108.66701,-45.31017" fill="none" stroke="#be9e3f" stroke-width="4" stroke-linecap="round"/></g></g></g></svg>