<svg version="1.1" xmlns="http://www.w3.org/2000/svg" xmlns:xlink="http://www.w3.org/1999/xlink" width="543.03604" height="414.17222" viewBox="0,0,543.03604,414.17222"><defs><linearGradient x1="117.01563" y1="154.5" x2="117.01563" y2="171.5" gradientUnits="userSpaceOnUse" id="color-1"><stop offset="0" stop-color="#af9141"/><stop offset="1" stop-color="#ddb747"/></linearGradient><linearGradient x1="155.18018" y1="251.91945" x2="155.18018" y2="274.44798" gradientUnits="userSpaceOnUse" id="color-2"><stop offset="0" stop-color="#af9141"/><stop offset="1" stop-color="#ddb747"/></linearGradient><linearGradient x1="102.61261" y1="110.80834" x2="102.61261" y2="227.92545" gradientUnits="userSpaceOnUse" id="color-3"><stop offset="0" stop-color="#af9141"/><stop offset="1" stop-color="#ddb747"/></linearGradient><linearGradient x1="-14.21115" y1="382.45751" x2="-14.21115" y2="341.54262" gradientUnits="userSpaceOnUse" id="color-4"><stop offset="0" stop-color="#af9141"/><stop offset="1" stop-color="#ddb747"/></linearGradient><linearGradient x1="122.30538" y1="382.45751" x2="122.30538" y2="341.54262" gradientUnits="userSpaceOnUse" id="color-5"><stop offset="0" stop-color="#af9141"/><stop offset="1" stop-color="#ddb747"/></linearGradient><linearGradient x1="244.30539" y1="382.45751" x2="244.30539" y2="341.54262" gradientUnits="userSpaceOnUse" id="color-6"><stop offset="0" stop-color="#af9141"/><stop offset="1" stop-color="#ddb747"/></linearGradient><linearGradient x1="360.3054" y1="382.45751" x2="360.3054" y2="341.54262" gradientUnits="userSpaceOnUse" id="color-7"><stop offset="0" stop-color="#af9141"/><stop offset="1" stop-color="#ddb747"/></linearGradient><linearGradient x1="-16.00601" y1="-25.70571" x2="-16.00601" y2="32.85285" gradientUnits="userSpaceOnUse" id="color-8"><stop offset="0" stop-color="#af9141"/><stop offset="1" stop-color="#ddb747"/></linearGradient><linearGradient x1="-3.82074" y1="259.33439" x2="-3.82074" y2="218.4195" gradientUnits="userSpaceOnUse" id="color-9"><stop offset="0" stop-color="#af9141"/><stop offset="1" stop-color="#ddb747"/></linearGradient><linearGradient x1="-4.82675" y1="150.22028" x2="-4.82675" y2="109.30539" gradientUnits="userSpaceOnUse" id="color-10"><stop offset="0" stop-color="#af9141"/><stop offset="1" stop-color="#ddb747"/></linearGradient><linearGradient x1="339.59461" y1="-29.71471" x2="339.59461" y2="28.84385" gradientUnits="userSpaceOnUse" id="color-11"><stop offset="0" stop-color="#af9141"/><stop offset="1" stop-color="#ddb747"/></linearGradient></defs><g transform="translate(47.03604,30.71471)"><g data-paper-data="{&quot;isPaintingLayer&quot;:true}" fill-rule="nonzero" stroke="#91773e" stroke-width="2" stroke-linecap="butt" stroke-linejoin="miter" stroke-miterlimit="10" stroke-dasharray="" stroke-dashoffset="0" style="mix-blend-mode: normal"><path d="M108.51563,171.5v-17h17v17z" fill="url(#color-1)"/><path d="M92.11712,274.44798v-22.52853h126.12613v22.52853z" fill="url(#color-2)"/><path d="M89.0991,227.92545v-117.11712h27.02703v117.11712z" fill="url(#color-3)"/><path d="M-14.21115,341.54262h136.84652v40.91489h-136.84652z" data-paper-data="{&quot;index&quot;:null}" fill="url(#color-4)"/><path d="M122.30538,341.54262h120.33v40.91489h-120.33z" data-paper-data="{&quot;index&quot;:null}" fill="url(#color-5)"/><path d="M244.30539,341.54262h120.33v40.91489h-120.33z" data-paper-data="{&quot;index&quot;:null}" fill="url(#color-6)"/><path d="M360.3054,341.54262h133.33v40.91489h-133.33z" data-paper-data="{&quot;index&quot;:null}" fill="url(#color-7)"/><path d="M-46.03604,32.85285v-58.55856h60.06006v58.55856z" fill="url(#color-8)"/><path d="M-3.82074,218.4195h120.33v40.91489h-120.33z" data-paper-data="{&quot;index&quot;:null}" fill="url(#color-9)"/><path d="M-4.82675,109.30539h120.33v40.91489h-120.33z" data-paper-data="{&quot;index&quot;:null}" fill="url(#color-10)"/><path d="M184.18919,28.84385v-58.55856h310.81081v58.55856z" fill="url(#color-11)"/></g></g></svg>