<svg version="1.1" xmlns="http://www.w3.org/2000/svg" xmlns:xlink="http://www.w3.org/1999/xlink" width="44" height="44" viewBox="0,0,44,44"><g transform="translate(-217.5,-157.5)"><g data-paper-data="{&quot;isPaintingLayer&quot;:true}" fill-rule="nonzero" stroke="none" stroke-linecap="butt" stroke-linejoin="miter" stroke-miterlimit="10" stroke-dasharray="" stroke-dashoffset="0" style="mix-blend-mode: normal"><path d="M239.5,157.5c6.07,0 11.57,2.465 15.552,6.448c3.983,3.982 6.448,9.482 6.448,15.552c0,6.07 -2.465,11.57 -6.448,15.552c-3.982,3.983 -9.482,6.448 -15.552,6.448c-6.07,0 -11.57,-2.465 -15.552,-6.448c-3.983,-3.982 -6.448,-9.482 -6.448,-15.552c0,-6.07 2.465,-11.57 6.448,-15.552c3.982,-3.983 9.482,-6.448 15.552,-6.448z" fill="#ffffff" stroke-width="1"/><path d="M226.11667,190.5l13.56667,-26.95l12.46667,26.95c0,0 -7.83389,-4.76667 -13.2,-4.76667c-4.79373,0 -12.83333,4.76667 -12.83333,4.76667z" data-paper-data="{&quot;origPos&quot;:null}" fill="#000000" stroke-width="0"/></g></g></svg>