<svg version="1.1" xmlns="http://www.w3.org/2000/svg" xmlns:xlink="http://www.w3.org/1999/xlink" width="23.6176" height="23.0182" viewBox="0,0,23.6176,23.0182"><defs><radialGradient cx="240" cy="180" r="9.575" gradientUnits="userSpaceOnUse" id="color-1"><stop offset="0" stop-color="#00fff2"/><stop offset="1" stop-color="#00fff2" stop-opacity="0"/></radialGradient></defs><g transform="translate(-228.2162,-168.6909)"><g data-paper-data="{&quot;isPaintingLayer&quot;:true}" fill-rule="nonzero" stroke="none" stroke-linejoin="miter" stroke-miterlimit="10" stroke-dasharray="" stroke-dashoffset="0" style="mix-blend-mode: normal"><path d="M246.942,173.258c1.765,1.765 2.858,4.202 2.858,6.892c0,2.69 -1.093,5.127 -2.858,6.892c-1.765,1.765 -4.202,2.858 -6.892,2.858c-2.69,0 -5.127,-1.093 -6.892,-2.858c-1.765,-1.765 -2.858,-4.202 -2.858,-6.892c0,-2.69 1.093,-5.127 2.858,-6.892c1.765,-1.765 4.202,-2.858 6.892,-2.858c2.69,0 5.127,1.093 6.892,2.858z" data-paper-data="{&quot;index&quot;:null}" fill="#3b78ff" stroke-width="1" stroke-linecap="butt"/><path d="M245.7345,174.5071c1.4437,1.4436 2.3377,3.437 2.3377,5.6373c0,2.2002 -0.894,4.1936 -2.3377,5.6373c-1.4437,1.4436 -3.437,2.3377 -5.6373,2.3377c-2.2003,0 -4.1936,-0.8941 -5.6373,-2.3377c-1.4437,-1.4437 -2.3377,-3.4371 -2.3377,-5.6373c0,-2.2003 0.894,-4.1937 2.3377,-5.6373c1.4437,-1.4437 3.437,-2.3377 5.6373,-2.3377c2.2003,0 4.1936,0.894 5.6373,2.3377z" data-paper-data="{&quot;index&quot;:null}" fill="#4bbbff" stroke-width="0.81795" stroke-linecap="butt"/><path d="M244.016,176.2247c0.9866,0.9866 1.5976,2.3488 1.5976,3.8525c0,1.5036 -0.611,2.8658 -1.5976,3.8524c-0.9865,0.9866 -2.3488,1.5976 -3.8524,1.5976c-1.5036,0 -2.8659,-0.611 -3.8525,-1.5976c-0.9865,-0.9866 -1.5975,-2.3488 -1.5975,-3.8524c0,-1.5037 0.611,-2.8659 1.5975,-3.8525c0.9866,-0.9866 2.3489,-1.5975 3.8525,-1.5975c1.5036,0 2.8659,0.6109 3.8524,1.5975z" data-paper-data="{&quot;index&quot;:null}" fill="#a5e8ff" stroke-width="0.55897" stroke-linecap="butt"/><path d="M236.9,171.2909v-2.6l6.05,2.2455z" data-paper-data="{&quot;index&quot;:null}" fill="#3b78ff" stroke-width="0.82133" stroke-linecap="round"/><path d="M243.35,189.1091v2.6l-6.05,-2.2455z" data-paper-data="{&quot;index&quot;:null}" fill="#3b78ff" stroke-width="0.82133" stroke-linecap="round"/><path d="M230.8068,183.0179l-2.5906,-0.2205l2.7504,-5.8378z" data-paper-data="{&quot;index&quot;:null}" fill="#3b78ff" stroke-width="0.82133" stroke-linecap="round"/><path d="M249.2432,177.3321l2.5906,0.2205l-2.7504,5.8378z" data-paper-data="{&quot;index&quot;:null}" fill="#3b78ff" stroke-width="0.82133" stroke-linecap="round"/><path d="M231.5525,176.1943l-1.9191,-1.7542l5.7392,-2.9506z" data-paper-data="{&quot;index&quot;:null}" fill="#3b78ff" stroke-width="0.82133" stroke-linecap="round"/><path d="M243.123,171.1148l1.677,-1.9869l3.175,5.6181z" data-paper-data="{&quot;index&quot;:null}" fill="#3b78ff" stroke-width="0.82133" stroke-linecap="round"/><path d="M235.8042,188.8725l-1.9637,1.7041l-2.2694,-6.0411z" data-paper-data="{&quot;index&quot;:null}" fill="#3b78ff" stroke-width="0.82133" stroke-linecap="round"/><path d="M249.0744,184.0447l1.8053,1.8711l-5.9131,2.5847z" data-paper-data="{&quot;index&quot;:null}" fill="#3b78ff" stroke-width="0.82133" stroke-linecap="round"/><path d="M240,170.425c2.64165,0 5.03504,1.07327 6.76838,2.80661c1.73317,1.73334 2.80661,4.12656 2.80661,6.76838c0,2.64165 -1.07345,5.03486 -2.80661,6.7682c-1.73334,1.73334 -4.12674,2.80679 -6.76838,2.80679c-2.64165,0 -5.03504,-1.07345 -6.7682,-2.80679c-1.73334,-1.73334 -2.80679,-4.12656 -2.80679,-6.7682c0,-2.64182 1.07345,-5.03504 2.80679,-6.76838c1.73317,-1.73334 4.12656,-2.80661 6.7682,-2.80661z" data-paper-data="{&quot;origPos&quot;:null}" fill="url(#color-1)" stroke-width="0.55898" stroke-linecap="butt"/></g></g></svg>