<svg version="1.1" xmlns="http://www.w3.org/2000/svg" xmlns:xlink="http://www.w3.org/1999/xlink" width="47.17933" height="45.59112" viewBox="0,0,47.17933,45.59112"><defs><radialGradient cx="240" cy="179.55556" r="23.58967" gradientUnits="userSpaceOnUse" id="color-1"><stop offset="0" stop-color="#f1f1f1" stop-opacity="0.65882"/><stop offset="1" stop-color="#f1f1f1" stop-opacity="0"/></radialGradient><linearGradient x1="240" y1="156.75999" x2="240" y2="202.35111" gradientUnits="userSpaceOnUse" id="color-2"><stop offset="0" stop-color="#a0a2a8"/><stop offset="1" stop-color="#626371"/></linearGradient><linearGradient x1="240.00373" y1="162.83746" x2="240.00373" y2="197.19093" gradientUnits="userSpaceOnUse" id="color-3"><stop offset="0" stop-color="#e0e0e0"/><stop offset="1" stop-color="#999da6"/></linearGradient><linearGradient x1="240.00373" y1="162.83746" x2="240.00373" y2="197.19093" gradientUnits="userSpaceOnUse" id="color-4"><stop offset="0" stop-color="#a0a2a8"/><stop offset="1" stop-color="#626371"/></linearGradient></defs><g transform="translate(-216.41034,-156.75998)"><g data-paper-data="{&quot;isPaintingLayer&quot;:true}" fill-rule="nonzero" stroke-linecap="round" stroke-linejoin="miter" stroke-miterlimit="10" stroke-dasharray="" stroke-dashoffset="0" style="mix-blend-mode: normal"><path d="M243.54475,197.52461c-4.38495,-1.7114 -6.02152,-0.51618 -7.4375,0.0439c-1.41598,0.56008 -10.00151,5.42982 -10.89252,4.63863c-1.10976,-0.91887 0.84609,-7.36267 1.10626,-12.11343c0.26016,-4.75076 -1.23502,-4.86312 -2.01011,-5.909c-0.77509,-1.04588 -8.55283,-8.73117 -7.85648,-10.11641c0.62229,-1.79631 7.13971,-1.26206 11.64897,-2.53276c4.50926,-1.27071 4.68848,-2.96688 5.31965,-3.94453c0.63117,-0.97765 5.05515,-10.83103 6.49086,-10.83103c1.24146,0.01512 3.72139,6.71804 6.41785,10.86464c2.69647,4.1466 4.00951,3.59283 5.2723,3.92699c1.26279,0.33415 11.42266,1.01009 11.94644,2.51669c0.53023,1.32835 -4.44477,5.85761 -7.29892,9.6362c-2.85416,3.77859 -2.62954,4.91102 -2.59133,6.32338c0.03819,1.41235 2.10004,11.16828 0.95282,12.17928c-1.05734,0.9405 -6.68333,-2.97116 -11.06828,-4.68256z" data-paper-data="{&quot;index&quot;:null}" fill="url(#color-1)" stroke="url(#color-2)" stroke-width="0"/><path d="M242.67475,193.55411c-3.30412,-1.28957 -4.53729,-0.38894 -5.60425,0.03308c-1.06696,0.42203 -7.53625,4.09143 -8.20766,3.49527c-0.83622,-0.69237 0.63754,-5.54787 0.83358,-9.12762c0.19603,-3.57975 -0.9306,-3.66442 -1.51464,-4.45251c-0.58404,-0.78808 -6.44465,-6.57905 -5.91997,-7.62284c0.4689,-1.35355 5.37987,-0.95097 8.77765,-1.90847c3.39778,-0.95749 3.53283,-2.23558 4.00843,-2.97225c0.47559,-0.73668 3.80912,-8.16132 4.89094,-8.16132c0.93545,0.01141 2.80411,5.06212 4.83594,8.18665c2.03181,3.12452 3.02122,2.70725 3.97275,2.95904c0.95153,0.2518 8.60712,0.76111 9.00179,1.89636c0.39954,1.00093 -3.34919,4.41379 -5.49984,7.261c-2.15065,2.84721 -1.98138,3.70052 -1.9526,4.76474c0.02878,1.06423 1.5824,8.41543 0.71796,9.17724c-0.79672,0.70868 -5.03597,-2.23881 -8.34009,-3.52837z" data-paper-data="{&quot;index&quot;:null}" fill="url(#color-3)" stroke="url(#color-4)" stroke-width="1"/><path d="M243.35684,176.31042c0.50964,-0.01967 1.01752,0.40221 1.23148,0.92253c0.38814,0.9443 0.42987,2.07011 0.40085,3.1216c-0.01996,0.97057 -0.17412,1.97394 -0.54411,2.84181c-0.21221,0.50935 -0.59483,1.09735 -1.0882,1.09299c-0.47515,-0.00436 -0.87964,-0.37166 -1.14076,-1.03182c-0.33371,-0.83506 -0.4915,-1.83627 -0.4915,-3.0123c0,-1.17611 0.12149,-2.13788 0.4915,-3.01229c0.24299,-0.57713 0.70733,-0.94219 1.14076,-0.92253z" fill="#2a2c3e" stroke="none" stroke-width="2.7674"/><path d="M236.64351,176.27413c0.50964,-0.01967 1.01752,0.40221 1.23149,0.92253c0.38814,0.9443 0.42989,2.07011 0.40086,3.1216c-0.01996,0.97057 -0.17412,1.97393 -0.54411,2.84181c-0.21221,0.50935 -0.59483,1.09736 -1.08822,1.093c-0.47515,-0.00436 -0.87964,-0.37166 -1.14077,-1.03182c-0.33371,-0.83506 -0.49149,-1.83626 -0.49149,-3.0123c0,-1.17611 0.12148,-2.13789 0.49149,-3.0123c0.24299,-0.57713 0.70734,-0.94218 1.14077,-0.92253z" fill="#2a2c3e" stroke="none" stroke-width="2.7674"/></g></g></svg>