<svg version="1.1" xmlns="http://www.w3.org/2000/svg" xmlns:xlink="http://www.w3.org/1999/xlink" width="514.88889" height="366.52687" viewBox="0,0,514.88889,366.52687"><defs><linearGradient x1="461.72072" y1="211.10974" x2="497.00601" y2="211.10974" gradientUnits="userSpaceOnUse" id="color-1"><stop offset="0" stop-color="#ececec"/><stop offset="1" stop-color="#616161"/></linearGradient><radialGradient cx="-0.24024" cy="180.00013" r="180.93093" gradientUnits="userSpaceOnUse" id="color-2"><stop offset="0" stop-color="#ececec"/><stop offset="1" stop-color="#616161"/></radialGradient><linearGradient x1="-17.88288" y1="180.00013" x2="17.40241" y2="180.00013" gradientUnits="userSpaceOnUse" id="color-3"><stop offset="0" stop-color="#ececec" stop-opacity="0"/><stop offset="1" stop-color="#ececec"/></linearGradient></defs><g transform="translate(17.88288,0.93079)"><g data-paper-data="{&quot;isPaintingLayer&quot;:true}" fill-rule="nonzero" stroke="none" stroke-linecap="butt" stroke-linejoin="miter" stroke-miterlimit="10" stroke-dasharray="" stroke-dashoffset="0" style="mix-blend-mode: normal"><path d="M377.79518,365.59608v-7.948h86.51444v7.948z" fill="#66c0ff" stroke-width="0"/><path d="" data-paper-data="{&quot;index&quot;:null}" fill="#cc1919" stroke-width="1"/><path d="M469.60061,236.00005h-127l53,-26h74z" data-paper-data="{&quot;index&quot;:null}" fill="#ececec" stroke-width="1"/><path d="M-6.37839,334.99449h384.8979v30.1398h-384.89789z" data-paper-data="{&quot;origPos&quot;:null,&quot;index&quot;:null}" fill="#cc1919" stroke-width="1"/><g data-paper-data="{&quot;index&quot;:null}" fill="url(#color-1)" stroke-width="0"><path d="M461.72072,360.93108v-299.64268h35.28529v299.64268z"/></g><path d="M-17.88288,-0.93079h35.28529v139.51613c-11.67335,0 -23.47785,0 -35.28529,0z" fill="url(#color-2)" stroke-width="0"/><path d="M-17.88288,-0.93079h35.28529v139.51613c-11.67335,0 -23.47785,0 -35.28529,0z" fill="url(#color-3)" stroke-width="0"/><path d="M324.12613,160.00001h-325.15616l-0.07105,-26h282.1748z" data-paper-data="{&quot;index&quot;:null}" fill="#ececec" stroke-width="1.17703"/><path d="M-2.97549,160.31392v-26.2571h42.29294v26.2571z" data-paper-data="{&quot;origPos&quot;:null,&quot;index&quot;:null}" fill="#616161" stroke-width="0"/><path d="M81.60747,160.20994v-26.2571h42.29294v26.2571z" data-paper-data="{&quot;origPos&quot;:null,&quot;index&quot;:null}" fill="#616161" stroke-width="0"/><path d="M166.67949,160.10594v-26.2571h42.29294v26.2571z" data-paper-data="{&quot;origPos&quot;:null,&quot;index&quot;:null}" fill="#616161" stroke-width="0"/><path d="M251.26537,160.20994v-26.2571h30.35747l11.93547,7.59597v18.66112z" data-paper-data="{&quot;origPos&quot;:null,&quot;index&quot;:null}" fill="#616161" stroke-width="0"/><path d="M379.67949,236.20994v-18.66112l11.93547,-7.59598h30.35747v26.2571z" data-paper-data="{&quot;index&quot;:null}" fill="#616161" stroke-width="0"/></g></g></svg>