<svg version="1.1" xmlns="http://www.w3.org/2000/svg" xmlns:xlink="http://www.w3.org/1999/xlink" width="115.01722" height="112.44984" viewBox="0,0,115.01722,112.44984"><g transform="translate(-182.49139,-123.77508)"><g data-paper-data="{&quot;isPaintingLayer&quot;:true}" fill-rule="nonzero" stroke="none" stroke-linecap="butt" stroke-linejoin="miter" stroke-miterlimit="10" stroke-dasharray="" stroke-dashoffset="0" style="mix-blend-mode: normal"><path d="M266.79413,130.71006l-5.55025,8.24064l-10.88455,-12.98767z" fill="#e0e0e0" stroke-width="0"/><path d="M256.63092,141.56229l-5.55026,8.24064l-10.88455,-12.98767z" fill="#e0e0e0" stroke-width="0"/><path d="M220.61482,152.49811l-5.40975,-8.33355l16.21238,-4.9307z" fill="#e0e0e0" stroke-width="0"/><path d="M211.18573,139.17456l-5.40975,-8.33355l16.21238,-4.9307z" fill="#e0e0e0" stroke-width="0"/><path d="M233.05337,236.22492l1.38987,-36.89029h10.00705l2.22379,36.76818z" fill="#2b9d00" stroke-width="0"/><path d="M191.29956,203.61112c5.05161,-1.08606 11.83253,-1.22766 19.1362,-0.16687c7.30392,1.06065 13.76423,3.12529 18.29817,5.60345c4.53404,2.47839 7.14187,5.37055 6.74738,8.08702c-0.39473,2.71658 -3.71726,4.74726 -8.76899,5.83366c-5.05184,1.08619 -11.83251,1.22767 -19.1362,0.16687c-7.30392,-1.06065 -13.76423,-3.12529 -18.29829,-5.60368c-4.53395,-2.47818 -7.14175,-5.37031 -6.74725,-8.08678c0.39449,-2.71647 3.71715,-4.74749 8.76899,-5.83366z" fill="#30b300" stroke-width="1.07474"/><path d="M297.46942,210.55668c0.39451,2.71647 -2.21332,5.60862 -6.74726,8.0868c-4.53406,2.47839 -10.99437,4.54303 -18.29829,5.60368c-7.30369,1.06078 -14.08436,0.9193 -19.13622,-0.16687c-5.05172,-1.08642 -8.37427,-3.11707 -8.769,-5.83368c-0.39451,-2.71647 2.21332,-5.60864 6.74738,-8.08701c4.53395,-2.47816 10.99426,-4.5428 18.29817,-5.60345c7.30369,-1.06077 14.08461,-0.91918 19.13622,0.16689c5.05184,1.08617 8.37448,3.11719 8.76899,5.83366z" fill="#30b300" stroke-width="1.07474"/><path d="M199.97452,143.00962l16.75456,0.06739l15.94978,24.90857l45.70841,-28.84319c0,0 7.99762,16.6961 2.01085,31.47576c-17.53828,43.29717 -69.54651,36.06582 -82.33284,-0.68741c-5.87594,-16.8899 1.90923,-26.92111 1.90923,-26.92111z" fill="#ff2f04" stroke-width="0"/><path d="M207.43328,182.49527c-2.92455,-3.56593 -3.41586,-8.96529 -1.09737,-12.0598c2.31848,-3.09451 6.56878,-2.71234 9.49333,0.85358c2.92455,3.56593 3.41586,8.96529 1.09737,12.0598c-2.31848,3.09451 -6.56878,2.71234 -9.49333,-0.85358z" fill="#ffffff" stroke-width="0"/><path d="M256.74256,189.00357c0,3.74435 -4.37454,6.77973 -9.77079,6.77973c-5.39627,0 -9.77079,-3.0354 -9.77079,-6.77973c0,-3.74435 4.37454,-6.77973 9.77079,-6.77973c5.39627,0 9.77079,3.0354 9.77079,6.77973z" fill="#ffffff" stroke-width="0"/><path d="M271.36553,169.86078c0,2.78991 -2.55925,5.05156 -5.71626,5.05156c-3.15699,0 -5.71626,-2.26167 -5.71626,-5.05156c0,-2.78991 2.55925,-5.05156 5.71626,-5.05156c3.15699,0 5.71626,2.26167 5.71626,5.05156z" fill="#ffffff" stroke-width="0"/><path d="M276.52045,178.05431c-2.25844,3.82482 -4.90926,6.44127 -5.92078,5.844c-1.01152,-0.59727 -0.0007,-4.18208 2.25774,-8.0069c2.25844,-3.82482 4.90926,-6.44127 5.92078,-5.844c1.01152,0.59727 0.0007,4.18208 -2.25774,8.0069z" fill="#ffffff" stroke-width="0"/><path d="M199.29705,147.43596c0.83866,0.09751 1.19888,2.92561 0.80457,6.31672c-0.39433,3.39111 -1.39385,6.06111 -2.23251,5.96358c-0.83866,-0.09751 -1.19888,-2.92561 -0.80457,-6.31672c0.39433,-3.39111 1.39385,-6.06111 2.23251,-5.96358z" fill="#ffffff" stroke-width="0"/><path d="M281.60161,154.17434c0,4.47854 -1.78553,8.1091 -3.98809,8.1091c-2.20256,0 -3.98809,-3.63056 -3.98809,-8.1091c0,-4.47854 1.78553,-8.1091 3.98809,-8.1091c2.20256,0 3.98809,3.63056 3.98809,8.1091z" fill="#ffffff" stroke-width="0"/><path d="M218.47328,167.94589l-26.76552,-31.63721c0,0 -3.23092,-7.99607 4.94001,-10.44661c8.98185,-2.69374 11.76086,4.51016 11.76086,4.51016l24.03574,36.35032l34.28795,-40.25002c0,0 4.00572,-4.5524 14.17582,-1.82913c4.83112,1.29363 8.84165,5.99956 7.44418,7.29558c-3.07189,2.84891 -44.28236,39.6867 -45.3014,40.72227c-11.15867,11.33954 -24.57765,-4.71537 -24.57765,-4.71537z" fill="#ffffff" stroke-width="0"/></g></g></svg>