<svg version="1.1" xmlns="http://www.w3.org/2000/svg" xmlns:xlink="http://www.w3.org/1999/xlink" width="106" height="137" viewBox="0,0,106,137"><defs><linearGradient x1="239.8699" y1="170.5014" x2="239.8699" y2="190.0524" gradientUnits="userSpaceOnUse" id="color-1"><stop offset="0" stop-color="#ffffff"/><stop offset="1" stop-color="#d1d1d1"/></linearGradient><linearGradient x1="239.8699" y1="170.5014" x2="239.8699" y2="190.0524" gradientUnits="userSpaceOnUse" id="color-2"><stop offset="0" stop-color="#343434"/><stop offset="1" stop-color="#090909"/></linearGradient><linearGradient x1="239.8699" y1="170.5014" x2="239.8699" y2="190.0524" gradientUnits="userSpaceOnUse" id="color-3"><stop offset="0" stop-color="#ffffff"/><stop offset="1" stop-color="#d1d1d1"/></linearGradient></defs><g transform="translate(-185,-111.5)"><g data-paper-data="{&quot;isPaintingLayer&quot;:true}" fill-rule="nonzero" stroke-linecap="butt" stroke-linejoin="miter" stroke-miterlimit="10" stroke-dasharray="" stroke-dashoffset="0" style="mix-blend-mode: normal"><path d="M236.4598,170.5014l7.5587,1.0625l3.8488,4.0639l-2.0935,7.8512l-5.8964,6.5734l-4.2491,-3.0171l4.8032,-4.5258l-6.3733,-0.2467l-2.1857,-6.2653zM238.2766,179.2921l3.71,-0.0623l0.5541,-3.8944l-2.817,-0.6156c0,0 0.5691,-0.3082 -2.8793,1.7088z" data-paper-data="{&quot;origPos&quot;:null}" fill="url(#color-1)" stroke="url(#color-2)" stroke-width="2.5"/><path d="M236.4598,170.5014l7.5587,1.0625l3.8488,4.0639l-2.0935,7.8512l-5.8964,6.5734l-4.2491,-3.0171l4.8032,-4.5258l-6.3733,-0.2467l-2.1857,-6.2653zM238.2766,179.2921l3.71,-0.0623l0.5541,-3.8944l-2.817,-0.6156c0,0 0.5691,-0.3082 -2.8793,1.7088z" data-paper-data="{&quot;origPos&quot;:null}" fill="url(#color-3)" stroke="none" stroke-width="0"/><path d="M185,248.5v-137h106v137z" fill="none" stroke="none" stroke-width="0"/></g></g></svg>