<svg version="1.1" xmlns="http://www.w3.org/2000/svg" xmlns:xlink="http://www.w3.org/1999/xlink" width="693.72442" height="135.58427" viewBox="0,0,693.72442,135.58427"><defs><linearGradient x1="-26.86221" y1="327.60697" x2="80.23192" y2="327.60697" gradientUnits="userSpaceOnUse" id="color-1"><stop offset="0" stop-color="#afafaf"/><stop offset="1" stop-color="#6a6a6a"/></linearGradient><linearGradient x1="559.76807" y1="327.60698" x2="666.86221" y2="327.60698" gradientUnits="userSpaceOnUse" id="color-2"><stop offset="0" stop-color="#6a6a6a"/><stop offset="1" stop-color="#afafaf"/></linearGradient></defs><g transform="translate(26.86221,-268.38479)"><g data-paper-data="{&quot;isPaintingLayer&quot;:true}" fill-rule="nonzero" stroke="none" stroke-linecap="butt" stroke-linejoin="miter" stroke-miterlimit="10" stroke-dasharray="" stroke-dashoffset="0" style="mix-blend-mode: normal"><path d="M211,300.46546l60.86667,-32h96.4l60.73334,32z" data-paper-data="{&quot;index&quot;:null}" fill="#ececec" stroke-width="0"/><path d="M76,299.66546h487v74h-487z" data-paper-data="{&quot;origPos&quot;:null,&quot;index&quot;:null}" fill="#ececec" stroke-width="1"/><path d="M168.7,334.16546v-34.5h43.5v34.5z" data-paper-data="{&quot;origPos&quot;:null,&quot;index&quot;:null}" fill="#616161" stroke-width="0"/><path d="M427.8,334.16546v-34.5h43.5v34.5z" data-paper-data="{&quot;index&quot;:null}" fill="#616161" stroke-width="0"/><path d="M255.5,310.46546v-33.1l16.84246,-8.98067l26.65755,0.08067v42z" data-paper-data="{&quot;index&quot;:null}" fill="#616161" stroke-width="0"/><path d="M299,360.96546v-50.5h42.25v50.5z" data-paper-data="{&quot;index&quot;:null}" fill="#616161" stroke-width="0"/><path d="M79.69069,311.59789l0.51839,-36.47748l44.58161,24v35z" data-paper-data="{&quot;index&quot;:null}" fill="#616161" stroke-width="0"/><path d="M212.16667,369.46546v-35l43,-24l0.5,59z" data-paper-data="{&quot;origPos&quot;:null,&quot;index&quot;:null}" fill="#616161" stroke-width="0"/><path d="M384.5,369.96546l0.5,-59l43,24v35z" data-paper-data="{&quot;origPos&quot;:null,&quot;index&quot;:null}" fill="#616161" stroke-width="0"/><path d="M471.25721,368.69399v-34.5h43.5v34.5z" data-paper-data="{&quot;index&quot;:null}" fill="#616161" stroke-width="0"/><path d="M125.00135,368.58949v-34.5h43.5v34.5z" data-paper-data="{&quot;index&quot;:null}" fill="#616161" stroke-width="0"/><path d="M514.79219,334.23633v-35l45.37241,-24l0.52758,36.47748z" data-paper-data="{&quot;index&quot;:null}" fill="#616161" stroke-width="0"/><path d="M341.375,310.46546v-42l26.65755,-0.08067l16.84246,8.98067v33.1z" data-paper-data="{&quot;index&quot;:null}" fill="#616161" stroke-width="0"/><path d="M79.69069,381.33062l0.51839,-36.47748l44.58161,24v35z" data-paper-data="{&quot;index&quot;:null}" fill="#616161" stroke-width="0"/><path d="M514.79219,403.96906v-35l45.37241,-24l0.52758,36.47748z" data-paper-data="{&quot;index&quot;:null}" fill="#616161" stroke-width="0"/><path d="M-26.86221,379.44872v-103.68349h107.09413v103.68349z" fill="url(#color-1)" stroke-width="0"/><path d="M559.76807,379.44872v-103.68349h107.09414v103.6835z" fill="url(#color-2)" stroke-width="0"/></g></g></svg>