<svg version="1.1" xmlns="http://www.w3.org/2000/svg" xmlns:xlink="http://www.w3.org/1999/xlink" width="143.95513" height="209.6796" viewBox="0,0,143.95513,209.6796"><defs><linearGradient x1="256.94959" y1="209.04998" x2="267.50322" y2="262.03277" gradientUnits="userSpaceOnUse" id="color-1"><stop offset="0" stop-color="#6a17af"/><stop offset="1" stop-color="#6215a2"/></linearGradient><linearGradient x1="253.2611" y1="261.37671" x2="291.17882" y2="253.14944" gradientUnits="userSpaceOnUse" id="color-2"><stop offset="0" stop-color="#8d6431"/><stop offset="1" stop-color="#ac793c"/></linearGradient><linearGradient x1="223.58489" y1="208.28828" x2="208.71193" y2="260.25788" gradientUnits="userSpaceOnUse" id="color-3"><stop offset="0" stop-color="#6a17af"/><stop offset="1" stop-color="#6215a2"/></linearGradient><linearGradient x1="195.41405" y1="252.63386" x2="232.71656" y2="263.30931" gradientUnits="userSpaceOnUse" id="color-4"><stop offset="0" stop-color="#8d6431"/><stop offset="1" stop-color="#ac793c"/></linearGradient><linearGradient x1="243.93624" y1="151.58184" x2="240.83411" y2="220.70858" gradientUnits="userSpaceOnUse" id="color-5"><stop offset="0" stop-color="#6f18b4"/><stop offset="1" stop-color="#6a17af"/></linearGradient><linearGradient x1="256.54095" y1="154.03229" x2="255.02042" y2="187.91507" gradientUnits="userSpaceOnUse" id="color-6"><stop offset="0" stop-color="#8328ce"/><stop offset="1" stop-color="#6a17af"/></linearGradient><linearGradient x1="234.85837" y1="153.74076" x2="233.33562" y2="187.6732" gradientUnits="userSpaceOnUse" id="color-7"><stop offset="0" stop-color="#8328ce"/><stop offset="1" stop-color="#6a17af"/></linearGradient><linearGradient x1="221.76346" y1="100.04867" x2="288.00699" y2="100.04867" gradientUnits="userSpaceOnUse" id="color-8"><stop offset="0" stop-color="#de5112"/><stop offset="1" stop-color="#b7430f"/></linearGradient></defs><g transform="translate(-167.30499,-64.49836)"><g data-paper-data="{&quot;isPaintingLayer&quot;:true}" fill-rule="nonzero" stroke-linejoin="miter" stroke-miterlimit="10" stroke-dasharray="" stroke-dashoffset="0" style="mix-blend-mode: normal"><g data-paper-data="{&quot;origRot&quot;:0}" stroke="none" stroke-width="0" stroke-linecap="butt"><path d="M277.26755,257.78447c-7.51337,4.68059 -10.01918,5.99161 -18.59518,3.79823c-5.841,-1.49389 -3.33544,-4.08905 -3.60668,-12.84577c0.0731,-1.36454 0.12675,-13.65356 -0.72263,-24.88471c-0.4953,-6.54934 -1.96323,-14.03764 -1.96323,-14.03764l12.03281,-1.96306l5.21909,23.83968c0,0 1.59132,7.7699 5.94143,12.90973c4.35012,5.13982 7.75981,9.40501 1.69438,13.18356z" data-paper-data="{&quot;origPos&quot;:null}" fill="url(#color-1)"/><path d="M290.81776,260.0048c0,0 -2.22431,6.60934 -5.54991,8.6437c-2.17942,1.33319 -13.75641,4.3045 -20.41444,2.60898c-2.06703,-0.5264 -4.18082,-2.46421 -4.18082,-2.46421c0,0 -4.62966,2.12414 -5.01902,0.72033c-0.30908,-1.11438 -0.88217,-2.99853 0.02842,-3.88538c3.91961,-3.81752 14.89955,-6.97424 20.15718,-8.4889c7.21754,-2.07927 14.97862,2.86548 14.97862,2.86548z" data-paper-data="{&quot;origPos&quot;:null}" fill="#f8dca0"/><path d="M291.27293,254.7774c0,0 -3.53556,9.16178 -11.69509,11.51243c-8.15954,2.35064 -18.25154,0.1327 -18.25154,0.1327c0,0 -5.81759,2.01275 -6.37371,0.5316c-1.15104,-3.06558 -2.68202,-8.16756 -1.54294,-8.67695c4.20513,-1.8805 3.54844,-1.04865 8.92693,-3.92526c3.4823,-1.86245 8.66327,-7.1848 12.45804,-8.278c8.15953,-2.35065 16.47835,8.70346 16.47835,8.70346z" data-paper-data="{&quot;origPos&quot;:null}" fill="url(#color-2)"/></g><g data-paper-data="{&quot;origRot&quot;:0}" stroke="none" stroke-width="0" stroke-linecap="butt"><path d="M219.22332,261.10874c-8.83349,0.57264 -15.2545,-1.3879 -21.77476,-7.37496c-4.44087,-4.07772 2.58697,-3.24886 6.48763,-11.09351c0.70949,-1.16789 7.24957,-11.76341 11.81056,-22.06184c2.6597,-6.00544 5.95777,-12.82829 5.95777,-12.82829l11.53134,3.95857l-7.72254,23.00503c0,0 -2.95416,7.39092 -1.55065,13.97662c1.40351,6.5857 2.39179,11.9561 -4.73935,12.41837z" data-paper-data="{&quot;origPos&quot;:null}" fill="url(#color-3)"/><path d="M229.15755,269.17957c0,0 -5.08459,4.77263 -8.97683,4.99315c-2.55077,0.14451 -14.15707,-2.7101 -19.2226,-7.35173c-1.57262,-1.44103 -2.5192,-4.14793 -2.5192,-4.14793c0,0 -5.08382,-0.31683 -4.7633,-1.73796c0.25445,-1.1281 0.64017,-3.05933 1.86182,-3.41036c5.25867,-1.51102 16.42652,0.89793 21.77557,2.04873c7.34307,1.57979 11.84452,9.6061 11.84452,9.6061z" data-paper-data="{&quot;origPos&quot;:null}" fill="#f8dca0"/><path d="M232.02987,264.78836c0,0 -7.4467,6.40197 -15.74814,4.61599c-8.30144,-1.78597 -16.14599,-8.51134 -16.14599,-8.51134c0,0 -6.07798,-0.97657 -5.86784,-2.54468c0.43493,-3.24554 1.49775,-8.46516 2.74233,-8.37555c4.59455,0.33084 3.62264,0.75343 9.72206,0.76119c3.94908,0.00503 11.03063,-2.23575 14.89138,-1.40515c8.30144,1.78597 10.40623,15.45952 10.40623,15.45952z" data-paper-data="{&quot;origPos&quot;:null}" fill="url(#color-4)"/></g><g stroke="none" stroke-linecap="butt"><g data-paper-data="{&quot;origPos&quot;:null,&quot;index&quot;:null,&quot;origRot&quot;:0}" stroke-width="0"><path d="M258.4244,156.59268c2.79313,-1.64415 5.28486,-2.58161 11.29616,3.01495c3.84782,3.58235 11.62518,19.86291 11.62518,19.86291l10.36896,13.51111l-13.65436,8.24995l-8.14405,-14.61672c0,0 -7.6753,-9.89877 -9.31209,-12.67938c-4.93788,-8.3886 -6.7608,-14.64624 -2.17981,-17.34282z" data-paper-data="{&quot;origRot&quot;:0,&quot;origPos&quot;:null}" fill="#ff5e15"/><g data-paper-data="{&quot;origPos&quot;:null}" fill="#ffffff"><path d="M286.74347,201.83345c7.86438,-5.12856 17.53265,-9.89608 22.79152,-2.44602c0.36616,0.51872 2.86534,6.90737 1.1011,11.738c-2.3348,6.39289 -7.06652,12.64162 -7.06652,12.64162c0,0 -9.46955,2.2154 -15.65169,1.72873c-4.50927,-0.35497 -8.4625,-4.41535 -8.65388,-4.68969c-4.94519,-7.0884 -0.38489,-13.84407 7.47947,-18.97265z" data-paper-data="{&quot;origRot&quot;:0,&quot;origPos&quot;:null}"/><path d="M283.54252,194.58528c6.07695,-3.95156 12.23969,-9.64532 14.8993,-4.74157c2.97529,5.4858 1.19127,6.20274 -8.89892,12.41482c-11.49461,7.0767 -11.96307,10.25095 -15.51669,4.39688c-2.07508,-3.41837 3.43937,-8.11856 9.51631,-12.07013z" data-paper-data="{&quot;origRot&quot;:0,&quot;origPos&quot;:null}"/></g></g><path d="M300.91583,218.81211l-6.74518,-3.52459l-8.43168,1.63641l4.5619,-7.03472l-1.47028,-8.01933l6.77252,4.4384l7.51417,-1.95604l-3.41837,7.01237z" data-paper-data="{&quot;origRot&quot;:0,&quot;index&quot;:null}" fill="#6f18b4" stroke-width="NaN"/></g><g><path d="M266.84064,182.65534c-0.86189,27.43869 2.13927,39.56027 -28.3996,37.94354c-6.93918,-0.4019 -10.91855,0.28505 -14.02267,-2.84191c-3.77153,-3.79928 -3.11524,-9.65626 -3.80013,-16.02059c-0.42809,-3.97798 -2.83687,-8.45915 -2.68607,-11.81945c0.64073,-14.27769 0.28832,-26.0057 8.70153,-34.74179c6.26809,-6.50864 12.60399,-3.05894 20.33679,-2.71954c14.2993,0.6276 20.71501,3.30369 19.87016,30.19973z" fill="url(#color-5)" stroke="none" stroke-width="0" stroke-linecap="butt"/><path d="M267.11089,181.88859c0,0 -16.35128,1.87769 -27.8195,1.89342c-10.51913,0.01442 -20.89192,-5.32907 -20.89192,-5.32907c0,0 -0.12697,-17.90793 7.68959,-24.52612c5.11414,-4.33008 10.70294,-5.57633 17.80763,-5.49918c7.10469,0.07716 14.68437,3.4204 18.07703,7.55713c8.01381,9.77143 5.13718,25.90382 5.13718,25.90382z" fill="#ff5e15" stroke="none" stroke-width="0" stroke-linecap="butt"/><path d="M251.61019,154.60708c0,0 3.49831,8.47758 4.61254,14.02061c1.11423,5.54303 0.9076,21.35798 0.9076,21.35798" data-paper-data="{&quot;origRot&quot;:0}" fill="none" stroke="url(#color-6)" stroke-width="10" stroke-linecap="round"/><path d="M232.06303,155.99165c0,0 2.02505,7.71931 2.91726,12.67565c0.89221,4.95634 0.69982,20.69119 0.69982,20.69119" fill="none" stroke="url(#color-7)" stroke-width="10" stroke-linecap="round"/><path d="M258.03463,193.00552l-2.03458,-3.5681l-4.30592,-1.71664l4.12357,-1.86344l1.6718,-4.07022l1.78041,3.99101l3.98256,1.30385l-3.59781,2.18689z" data-paper-data="{&quot;origRot&quot;:0,&quot;index&quot;:null}" fill="#ffe84f" stroke="none" stroke-width="NaN" stroke-linecap="butt"/><path d="M234.76422,193.23174l-1.61203,-3.77785l-4.08069,-2.19904l4.31005,-1.37833l2.12746,-3.8517l1.31105,4.16884l3.80679,1.75191l-3.82483,1.75993z" data-paper-data="{&quot;origRot&quot;:0,&quot;index&quot;:null}" fill="#ffe84f" stroke="none" stroke-width="NaN" stroke-linecap="butt"/></g><g stroke="none" stroke-linecap="butt"><g data-paper-data="{&quot;origPos&quot;:null}" stroke-width="0"><path d="M201.01687,202.52113l-15.41688,-10.2118l12.80079,-12.5383c0,0 5.23944,-7.91828 6.56248,-9.98525c5.24762,-8.19839 16.47933,-15.04627 20.95645,-12.18053c3.15595,2.02007 -0.30046,13.37524 -1.849,15.79454l-13.5447,14.76622z" data-paper-data="{&quot;origRot&quot;:0,&quot;origPos&quot;:null}" fill="#ff5e15"/><g data-paper-data="{&quot;origPos&quot;:null}" fill="#ffffff"><path d="M199.08324,222.03705c-4.9585,9.94659 -25.98187,1.71409 -25.98187,1.71409c0,0 -3.5371,-5.47074 -5.08263,-10.75667c-1.58298,-5.41404 -0.30544,-10.40711 1.61424,-13.4913c5.22967,-8.40211 15.01692,-2.12336 22.68431,3.29523c7.66741,5.4186 11.39587,9.95119 6.76594,19.23864z" data-paper-data="{&quot;origRot&quot;:0,&quot;origPos&quot;:null}"/><path d="M204.84569,208.09179c-3.76971,5.71733 -4.11934,2.52779 -15.34172,-4.97311c-9.85123,-6.58444 -11.60724,-7.36751 -8.42922,-12.73839c2.84084,-4.80104 8.78669,1.11883 14.71189,5.2945c5.92518,4.17567 11.26032,9.07849 9.05906,12.417z" data-paper-data="{&quot;origRot&quot;:0,&quot;origPos&quot;:null}"/></g></g><path d="M178.8064,211.54367l-2.92728,-7.23116l7.36161,2.46893l7.06214,-3.96141l-2.01912,7.89903l4.06657,7.3322l-8.29896,-2.21324l-6.97192,3.05164z" data-paper-data="{&quot;origRot&quot;:0}" fill="#6f18b4" stroke-width="NaN"/></g><g><path d="M273.46016,76.16191c2.39648,14.94461 -0.49216,15.79448 -8.52168,20.57884c-11.69967,6.97121 -27.00365,6.10539 -39.50062,11.51887c-3.28137,1.42143 -11.64483,-2.57762 -15.22084,-2.57762c-7.31398,0 -11.44089,-5.22725 -11.74313,-11.45342c-0.66666,-13.7335 6.09582,-13.78676 13.4098,-13.78676c0,0 8.04926,1.33414 10.82961,5.60456c0,0 11.19763,-18.21899 23.00151,-20.46979c15.1949,-2.89741 26.02437,-0.14688 27.74535,10.58532z" fill="#ff5e15" stroke="none" stroke-width="0" stroke-linecap="butt"/><path d="M231.10186,153.05523c-1.67042,0.95629 -3.5316,1.48998 -5.49366,1.48998c-7.22573,0 -13.08333,-7.23806 -13.08333,-16.16667c0,-2.83492 0.59052,-5.49942 1.62786,-7.81591c2.22976,-4.97932 21.43042,19.92712 16.94913,22.4926z" fill="#e7be7a" stroke="none" stroke-width="0" stroke-linecap="butt"/><path d="M287.5662,103.18728c-0.56793,3.79329 -11.88999,8.6 -20.8,8.6c-7.1797,0 -5.39999,-6.75492 -5.39999,-10.4c0,-3.64508 14.0703,-2.85 21.25,-2.85c7.1797,0 5.31761,2.19464 4.95,4.65z" fill="#b7430f" stroke="none" stroke-width="0" stroke-linecap="butt"/><g data-paper-data="{&quot;index&quot;:null}"><path d="M268.32527,132.59357l-0.16667,11.66667c0,0 -11.55678,1.66666 -16.5,1.66666c-5.05432,0 -15.33334,-0.83333 -15.33334,-0.83333v-11.16667z" fill="#ffffff" stroke="none" stroke-width="0" stroke-linecap="butt"/><path d="M261.49192,135.0936v9.33333" fill="none" stroke="#a5b5ff" stroke-width="2" stroke-linecap="round"/><path d="M253.82526,135.09358v9.83333" fill="none" stroke="#a5b5ff" stroke-width="2" stroke-linecap="round"/><path d="M245.6586,144.92693v-9.5" fill="none" stroke="#a5b5ff" stroke-width="2" stroke-linecap="round"/></g><g><path d="M236.99193,154.92693v-11.16667c0,0 10.27902,-0.83333 15.33333,-0.83333c4.94322,0 14.66666,0.83333 14.66666,0.83333l-0.16667,8.66667z" fill="#ffffff" stroke="none" stroke-width="0" stroke-linecap="butt"/><path d="M262.1586,153.76027v-9.33333" fill="none" stroke="#a5b5ff" stroke-width="2" stroke-linecap="round"/><path d="M254.49193,153.76027v-9.83333" fill="none" stroke="#a5b5ff" stroke-width="2" stroke-linecap="round"/><path d="M246.32527,153.42693v-9.5" fill="none" stroke="#a5b5ff" stroke-width="2" stroke-linecap="round"/></g><path d="M214.50001,104.46005c5.58919,1.38715 7,3.8 7,3.8l24,-5l21.6,-0.2c0,0 0.106,10.59409 0.39999,16.3c0.06657,1.29206 0.81399,0.91075 1.70767,2.14466c0.8937,1.23391 1.65037,2.7708 2.00281,2.87831c4.96717,1.51529 5.86057,3.64265 5.8895,5.27703c0.11336,6.40216 -6.2,8.6 -6.2,8.6l-29.6,1.4l-3.4,3.4l-0.4,11.2c0,0 3.34533,-1.68801 6.02422,-1.91864c5.36655,-0.46202 24.17578,-0.68136 24.17578,-0.68136c0,0 0.08012,4.86496 -4,5.8c-4.93431,1.13079 -28.20667,1.41553 -33.8,-1.6c-2.9973,-1.61594 -4.46924,-2.4986 -6.19375,-5.90182c-1.1358,-2.24142 -0.09879,-3.01586 -0.89737,-5.46851c-0.6598,-2.02643 -2.766,-4.09575 -3.63374,-6.08819c-1.28142,-2.94229 -1.27893,-5.68075 -1.47514,-5.74148c-0.99168,-0.30692 -3.85974,-0.50017 -4.74021,-0.92387c-4.25236,-2.04631 -8.31456,-7.45172 -10.82724,-11.93544c-2.76256,-4.92962 -3.77735,-9.10004 -4.03255,-14.74069c-0.03149,-0.69599 10.51135,-1.34829 16.4,-0.6z" fill="#ffdebd" stroke="#000000" stroke-width="0" stroke-linecap="round"/><path d="M254.7978,117.14042c-0.30542,5.55549 -1.8547,6.24676 -7.72748,6.15422c-4.11393,-0.06482 -6.93598,-2.71232 -7.17222,-6.15422c-0.37017,-5.39343 3.3354,-6.24676 7.44984,-6.24676c4.11444,0 7.75814,0.63923 7.44986,6.24676z" fill="#ffffff" stroke="none" stroke-width="0" stroke-linecap="butt"/><path d="M267.29132,112.40685c-0.02255,2.50201 0.16865,6.11405 -3.47042,5.98286c-4.06241,-0.14645 -4.62237,-0.40593 -6.33932,-4.28693c-2.96143,-6.15049 3.15771,-5.90213 4.67351,-6.07708c3.76625,-0.43468 5.15877,1.87914 5.13623,4.38115z" data-paper-data="{&quot;index&quot;:null}" fill="#ffffff" stroke="none" stroke-width="0" stroke-linecap="butt"/><path d="M243.61193,122.40365c0,0 -4.66399,0.17083 -4.07742,-7.16927c0.38019,-4.75751 6.47036,-4.12118 6.47036,-4.12118" fill="none" stroke="#18c6ff" stroke-width="2" stroke-linecap="round"/><path d="M261.19047,108.28042c0,0 4.22083,-0.72559 5.52589,1.56669c2.44252,4.29008 -0.11057,7.51039 -0.11057,7.51039" fill="none" stroke="#18c6ff" stroke-width="2" stroke-linecap="round"/><path d="M252.30169,115.53277c0.63366,0 1.20715,0.25671 1.62286,0.67204c0.41579,0.4144 0.67288,0.98742 0.67288,1.62c0,0.63259 -0.25711,1.20562 -0.67288,1.62001c-0.4157,0.41532 -0.9892,0.67204 -1.62286,0.67204c-0.63358,0 -1.20709,-0.25671 -1.62286,-0.67204c-0.4157,-0.4144 -0.67281,-0.98743 -0.67281,-1.62001c0,-0.63259 0.25711,-1.20561 0.67281,-1.62c0.41579,-0.41532 0.98928,-0.67204 1.62286,-0.67204z" data-paper-data="{&quot;index&quot;:null}" fill="#000000" stroke="none" stroke-width="1.05702" stroke-linecap="butt"/><path d="M264.22604,113.41882c0.54842,0 1.04476,0.22217 1.40456,0.58165c0.35986,0.35865 0.58237,0.8546 0.58237,1.40209c0,0.54751 -0.22251,1.04343 -0.58237,1.40208c-0.35978,0.35947 -0.85613,0.58166 -1.40456,0.58166c-0.54837,0 -1.04473,-0.22218 -1.40458,-0.58166c-0.35977,-0.35865 -0.58232,-0.85459 -0.58232,-1.40208c0,-0.54751 0.22251,-1.04344 0.58232,-1.40209c0.35986,-0.35947 0.8562,-0.58165 1.40458,-0.58165z" data-paper-data="{&quot;index&quot;:null}" fill="#000000" stroke="none" stroke-width="1.05702" stroke-linecap="butt"/><path d="M229.3582,120.37854c-0.64374,0.86538 -2.0893,-0.29799 -3.47379,-2.54087c-0.40721,-0.65969 -0.99152,-1.86997 -1.61462,-3.25262c-0.69344,-0.28197 -1.86875,-0.98405 -2.42213,-2.49166c-0.78363,-2.13487 -0.45914,-4.12394 -0.45914,-4.12394l6.80302,-2.75757c0,0 0.46053,3.93362 0.88758,7.80899c0.37228,3.37832 0.75911,6.71238 0.27909,7.35767z" fill="#e7be7a" stroke="#000000" stroke-width="0" stroke-linecap="round"/><path d="M232.02486,142.04522c-0.61285,-0.41328 3.5,-3.33333 3.5,-3.33333c0,0 4.69323,-0.58958 7.18802,-1.61469c3.05813,-1.25658 4.98736,-2.83337 8.81198,-2.88531c3.2991,-0.04481 22.5,2.16666 22.5,2.16666c0,0 0.91607,4.51818 -1.83333,4.83333c-3.03617,0.34802 -6.49762,0.55102 -10.34276,0.38428c-3.45928,-0.15 -7.29264,-0.82948 -10.31765,-0.71661c-5.67436,0.21171 -9.19948,1.18213 -12.65789,1.49728c-3.12588,0.28485 -6.44134,-0.05713 -6.84835,-0.33162z" fill="#e7be7a" stroke="#000000" stroke-width="0" stroke-linecap="round"/><path d="M203.99192,110.59361c14.81513,-0.88784 18.2554,19.68672 7.16667,14.66667" fill="none" stroke="#f6b09a" stroke-width="3.5" stroke-linecap="round"/><path d="M216.15859,120.42694c-2.25365,0.81103 -7.66666,-0.5 -7.66666,-0.5" fill="none" stroke="#f6b09a" stroke-width="3" stroke-linecap="round"/><path d="M270.5662,84.68728c0,5.46762 -1.46317,9.58116 -12.2,9.9c-11.33464,0.33659 -12.2,-4.43238 -12.2,-9.9c0,-5.46762 5.46212,-9.9 12.2,-9.9c6.73787,0 12.2,4.43238 12.2,9.9z" fill="#ffffff" stroke="none" stroke-width="0" stroke-linecap="butt"/><path d="M287.9662,101.08728c-0.10146,0.43553 -10.22592,0.3521 -21.60818,2.04523c-5.57466,0.82924 -10.95104,0.85997 -14.59937,3.5017c-4.19793,3.0397 -30.53694,2.13845 -30.35609,1.36215c0.73933,-3.1735 3.16854,-8.15407 8.26364,-9.80909c6.15716,-2 27.29511,-7.38005 43.10212,-7.1384c6.46182,0.09879 15.93722,6.8649 15.19789,10.0384z" fill="url(#color-8)" stroke="none" stroke-width="0" stroke-linecap="butt"/><path d="M263.56842,79.77899c0.6657,1.62584 -3.86912,5.71927 -4.8184,6.84002c-0.16406,0.1937 -0.67201,0.28073 -0.56926,0.51069c0.2127,0.47603 9.77976,-1.41007 5.63926,2.60271c-1.30541,1.26515 -8.46884,0.94671 -9.18272,-1.4299c-0.97165,-3.23481 5.4425,-5.57134 5.12489,-7.52626c-0.06628,-0.40801 -2.92366,0.7255 -4.50708,1.33739c-0.26353,0.22259 -0.60807,0.35741 -0.9851,0.35741c-0.82843,0 -1.5,-0.65086 -1.5,-1.45373c0,-0.18693 0.03641,-0.36561 0.10271,-0.52976c1.03092,-2.81351 9.45143,-3.74746 10.69569,-0.70856z" fill="#6f18b4" stroke="none" stroke-width="0.5" stroke-linecap="butt"/><g stroke="none" stroke-width="0" stroke-linecap="butt"><path d="M277.24886,129.36238c-0.49003,4.03597 1.10495,8.94318 -12.98598,8.69816c-5.45105,-0.0948 -16.57196,-0.9685 -16.46865,-5.46171c0.07504,-3.26312 3.72767,-2.96341 3.72767,-4.46155c0,-5.7511 3.325,-9.17375 9.80075,-9.67824c3.31011,-0.73506 16.71019,4.93678 15.92621,10.90333z" data-paper-data="{&quot;origPos&quot;:null}" fill="#f991fd"/><path d="M274.09087,128.3984c-0.55534,1.94368 -3.49341,2.80852 -6.56237,1.93167c-3.06896,-0.87685 -5.10666,-3.16333 -4.55132,-5.10701c0.55534,-1.94367 3.49341,-2.80851 6.56238,-1.93167c3.06896,0.87685 5.10666,3.16333 4.55132,5.10701z" data-paper-data="{&quot;origRot&quot;:0,&quot;origPos&quot;:null}" fill="#faaefc"/></g><path d="M267.75379,104.01127c0,0 -3.21813,0.2802 -4.9663,1.09601c-2.40287,1.12134 -8.12217,5.01194 -8.12217,5.01194c0,0 -4.1011,-1.31319 -6.60282,-1.95193c-1.86578,-0.47637 -7.06735,-1.53833 -7.06735,-1.53833" fill="none" stroke="#000000" stroke-width="3" stroke-linecap="round"/></g></g></g></svg>