<svg version="1.1" xmlns="http://www.w3.org/2000/svg" xmlns:xlink="http://www.w3.org/1999/xlink" width="481" height="138.75" viewBox="0,0,481,138.75"><defs><linearGradient x1="320.5" y1="221" x2="320.5" y2="359" gradientUnits="userSpaceOnUse" id="color-1"><stop offset="0" stop-color="#93aa61"/><stop offset="1" stop-color="#b8cf85"/></linearGradient><linearGradient x1="505" y1="324" x2="505" y2="347" gradientUnits="userSpaceOnUse" id="color-2"><stop offset="0" stop-color="#ffffff"/><stop offset="1" stop-color="#b9b9b9"/></linearGradient></defs><g transform="translate(-80,-220.25)"><g data-paper-data="{&quot;isPaintingLayer&quot;:true}" fill-rule="nonzero" stroke-linecap="butt" stroke-linejoin="miter" stroke-miterlimit="10" stroke-dasharray="" stroke-dashoffset="0" style="mix-blend-mode: normal"><path d="M80,359v-138h481v138z" data-paper-data="{&quot;origPos&quot;:null}" fill="url(#color-1)" stroke="none" stroke-width="NaN"/><path d="M84,355v-104h472v104z" data-paper-data="{&quot;origPos&quot;:null}" fill="#ffffff" stroke="none" stroke-width="0"/><text transform="translate(85,242) scale(0.5,0.5)" font-size="40" xml:space="preserve" data-paper-data="{&quot;origPos&quot;:null}" fill="#ffffff" fill-rule="nonzero" stroke="none" stroke-width="1" stroke-linecap="butt" stroke-linejoin="miter" stroke-miterlimit="10" stroke-dasharray="" stroke-dashoffset="0" font-family="Sans Serif" font-weight="normal" text-anchor="start" style="mix-blend-mode: normal"><tspan x="0" dy="0">Internet Explorer</tspan></text><text transform="translate(170,290) scale(0.5,0.5)" font-size="40" xml:space="preserve" data-paper-data="{&quot;origPos&quot;:null}" fill="#000000" fill-rule="nonzero" stroke="none" stroke-width="1" stroke-linecap="butt" stroke-linejoin="miter" stroke-miterlimit="10" stroke-dasharray="" stroke-dashoffset="0" font-family="Sans Serif" font-weight="normal" text-anchor="start" style="mix-blend-mode: normal"><tspan x="0" dy="0">Happy New Year 2002!</tspan></text><path d="M462,347v-23h86v23z" data-paper-data="{&quot;origPos&quot;:null}" fill="url(#color-2)" stroke="#000000" stroke-width="1.5"/><text transform="translate(489,343) scale(0.5,0.5)" font-size="40" xml:space="preserve" data-paper-data="{&quot;origPos&quot;:null,&quot;index&quot;:null}" fill="#000000" fill-rule="nonzero" stroke="none" stroke-width="1" stroke-linecap="butt" stroke-linejoin="miter" stroke-miterlimit="10" stroke-dasharray="" stroke-dashoffset="0" font-family="Sans Serif" font-weight="normal" text-anchor="start" style="mix-blend-mode: normal"><tspan x="0" dy="0">Yes</tspan></text><path d="M151.88412,269.16848h-0.8549c0.74044,-3.33488 0.40063,-5.99738 -1.21273,-7.54584c-2.64086,-2.53406 -8.11908,-1.54125 -14.54323,2.06492c9.152,2.88738 15.72171,10.76401 15.72171,20.03497c0,1.02615 -0.08517,2.03518 -0.24065,3.02257h-30.35372v0.72736c0,3.98834 3.23303,7.22137 7.22092,7.22137c3.18481,0 5.88246,-2.06447 6.84237,-4.92616h15.56037c-2.59129,7.90412 -10.12947,13.87986 -19.36664,14.98443c-1.01263,0.12123 -2.04509,0.18567 -3.09468,0.18567c-1.46465,0 -2.89504,-0.12754 -4.28532,-0.36008c-8.42958,5.20647 -16.04709,6.75494 -19.68886,3.25962c-3.39527,-3.25872 -2.54983,-10.15156 1.51287,-18.06784c2.63771,-5.13932 6.62695,-10.70857 11.70498,-15.99931c2.00859,-2.09331 4.06855,-4.01853 6.13573,-5.75808c-6.43947,1.85537 -13.52249,7.66031 -18.80242,16.04258c-0.00226,-0.11132 -0.00946,-0.22082 -0.00946,-0.33214c0,-11.71715 10.49136,-21.21615 23.43249,-21.21615c0.90763,0 1.80174,0.05183 2.68277,0.14241c8.5756,-5.38808 16.36164,-7.03164 20.0566,-3.4854c2.16677,2.0798 2.60211,5.64271 1.58181,10.00509zM107.11651,294.0841c-2.47142,5.63279 -2.82834,10.26422 -0.47364,12.52383c2.70846,2.59895 8.39894,1.48988 15.03581,-2.34523c-6.24614,-1.46239 -11.4783,-5.20106 -14.56216,-10.17859zM120.40916,280.02757h14.42471c-0.08968,-3.90947 -3.2808,-7.05327 -7.21236,-7.05327c-3.9311,0 -7.12222,3.1438 -7.21236,7.05327" fill="#4ec1ff" stroke="none" stroke-width="1"/></g></g></svg>