<svg version="1.1" xmlns="http://www.w3.org/2000/svg" xmlns:xlink="http://www.w3.org/1999/xlink" width="619.5" height="509.26513" viewBox="0,0,619.5,509.26513"><defs><linearGradient x1="-18.88586" y1="-42.37488" x2="-18.88586" y2="369.5145" gradientUnits="userSpaceOnUse" id="color-1"><stop offset="0" stop-color="#2b3f57"/><stop offset="1" stop-color="#1b7058"/></linearGradient><linearGradient x1="80.32889" y1="167.33485" x2="80.32889" y2="255.03325" gradientUnits="userSpaceOnUse" id="color-2"><stop offset="0" stop-color="#46815d"/><stop offset="1" stop-color="#255842"/></linearGradient><linearGradient x1="-0.20784" y1="201.43978" x2="-0.20784" y2="289.13818" gradientUnits="userSpaceOnUse" id="color-3"><stop offset="0" stop-color="#46815d"/><stop offset="1" stop-color="#255842"/></linearGradient><linearGradient x1="175.29011" y1="194.13157" x2="175.29011" y2="281.82998" gradientUnits="userSpaceOnUse" id="color-4"><stop offset="0" stop-color="#46815d"/><stop offset="1" stop-color="#255842"/></linearGradient><linearGradient x1="258.85345" y1="169.00463" x2="258.85345" y2="256.70304" gradientUnits="userSpaceOnUse" id="color-5"><stop offset="0" stop-color="#46815d"/><stop offset="1" stop-color="#255842"/></linearGradient><linearGradient x1="345.64018" y1="182.06562" x2="345.64018" y2="269.76402" gradientUnits="userSpaceOnUse" id="color-6"><stop offset="0" stop-color="#46815d"/><stop offset="1" stop-color="#255842"/></linearGradient><linearGradient x1="457.25627" y1="164.51566" x2="457.25627" y2="252.21405" gradientUnits="userSpaceOnUse" id="color-7"><stop offset="0" stop-color="#46815d"/><stop offset="1" stop-color="#255842"/></linearGradient><linearGradient x1="100.46845" y1="222.87258" x2="100.46845" y2="310.57099" gradientUnits="userSpaceOnUse" id="color-8"><stop offset="0" stop-color="#46815d"/><stop offset="1" stop-color="#255842"/></linearGradient><linearGradient x1="249.21561" y1="209.96601" x2="249.21561" y2="297.66442" gradientUnits="userSpaceOnUse" id="color-9"><stop offset="0" stop-color="#46815d"/><stop offset="1" stop-color="#255842"/></linearGradient><linearGradient x1="385.64723" y1="211.18405" x2="385.64723" y2="298.88245" gradientUnits="userSpaceOnUse" id="color-10"><stop offset="0" stop-color="#46815d"/><stop offset="1" stop-color="#255842"/></linearGradient><linearGradient x1="476.40131" y1="213.62012" x2="476.40131" y2="301.31851" gradientUnits="userSpaceOnUse" id="color-11"><stop offset="0" stop-color="#46815d"/><stop offset="1" stop-color="#255842"/></linearGradient><linearGradient x1="21.89925" y1="248.75438" x2="21.89925" y2="336.45277" gradientUnits="userSpaceOnUse" id="color-12"><stop offset="0" stop-color="#46815d"/><stop offset="1" stop-color="#255842"/></linearGradient><linearGradient x1="170.48194" y1="257.46932" x2="170.48194" y2="345.16771" gradientUnits="userSpaceOnUse" id="color-13"><stop offset="0" stop-color="#46815d"/><stop offset="1" stop-color="#255842"/></linearGradient><linearGradient x1="301.91938" y1="246.20394" x2="301.91938" y2="333.90234" gradientUnits="userSpaceOnUse" id="color-14"><stop offset="0" stop-color="#46815d"/><stop offset="1" stop-color="#255842"/></linearGradient><linearGradient x1="-1.95712" y1="278.5533" x2="-1.95712" y2="366.2517" gradientUnits="userSpaceOnUse" id="color-15"><stop offset="0" stop-color="#46815d"/><stop offset="1" stop-color="#255842"/></linearGradient><linearGradient x1="363.68309" y1="276.34598" x2="363.68309" y2="364.04437" gradientUnits="userSpaceOnUse" id="color-16"><stop offset="0" stop-color="#46815d"/><stop offset="1" stop-color="#255842"/></linearGradient><linearGradient x1="238.49562" y1="279.0508" x2="238.49562" y2="366.74921" gradientUnits="userSpaceOnUse" id="color-17"><stop offset="0" stop-color="#46815d"/><stop offset="1" stop-color="#255842"/></linearGradient><linearGradient x1="115.81061" y1="293.20973" x2="115.81061" y2="380.90813" gradientUnits="userSpaceOnUse" id="color-18"><stop offset="0" stop-color="#46815d"/><stop offset="1" stop-color="#255842"/></linearGradient><linearGradient x1="488.42171" y1="284.26605" x2="488.42171" y2="371.96445" gradientUnits="userSpaceOnUse" id="color-19"><stop offset="0" stop-color="#46815d"/><stop offset="1" stop-color="#255842"/></linearGradient><linearGradient x1="83.63988" y1="252.31698" x2="83.63988" y2="340.01538" gradientUnits="userSpaceOnUse" id="color-20"><stop offset="0" stop-color="#46815d"/><stop offset="1" stop-color="#255842"/></linearGradient><linearGradient x1="3.10315" y1="286.42191" x2="3.10315" y2="374.12031" gradientUnits="userSpaceOnUse" id="color-21"><stop offset="0" stop-color="#46815d"/><stop offset="1" stop-color="#255842"/></linearGradient><linearGradient x1="178.6011" y1="279.11371" x2="178.6011" y2="366.81211" gradientUnits="userSpaceOnUse" id="color-22"><stop offset="0" stop-color="#46815d"/><stop offset="1" stop-color="#255842"/></linearGradient><linearGradient x1="262.16444" y1="253.98677" x2="262.16444" y2="341.68517" gradientUnits="userSpaceOnUse" id="color-23"><stop offset="0" stop-color="#46815d"/><stop offset="1" stop-color="#255842"/></linearGradient><linearGradient x1="348.95117" y1="267.04775" x2="348.95117" y2="354.74615" gradientUnits="userSpaceOnUse" id="color-24"><stop offset="0" stop-color="#46815d"/><stop offset="1" stop-color="#255842"/></linearGradient><linearGradient x1="460.56726" y1="249.49778" x2="460.56726" y2="337.19617" gradientUnits="userSpaceOnUse" id="color-25"><stop offset="0" stop-color="#46815d"/><stop offset="1" stop-color="#255842"/></linearGradient><linearGradient x1="103.77944" y1="307.85472" x2="103.77944" y2="395.55312" gradientUnits="userSpaceOnUse" id="color-26"><stop offset="0" stop-color="#46815d"/><stop offset="1" stop-color="#255842"/></linearGradient><linearGradient x1="252.5266" y1="294.94814" x2="252.5266" y2="382.64654" gradientUnits="userSpaceOnUse" id="color-27"><stop offset="0" stop-color="#46815d"/><stop offset="1" stop-color="#255842"/></linearGradient><linearGradient x1="388.95822" y1="296.16618" x2="388.95822" y2="383.86458" gradientUnits="userSpaceOnUse" id="color-28"><stop offset="0" stop-color="#46815d"/><stop offset="1" stop-color="#255842"/></linearGradient><linearGradient x1="479.7123" y1="298.60224" x2="479.7123" y2="386.30064" gradientUnits="userSpaceOnUse" id="color-29"><stop offset="0" stop-color="#46815d"/><stop offset="1" stop-color="#255842"/></linearGradient><linearGradient x1="25.21025" y1="333.7365" x2="25.21025" y2="421.4349" gradientUnits="userSpaceOnUse" id="color-30"><stop offset="0" stop-color="#46815d"/><stop offset="1" stop-color="#255842"/></linearGradient><linearGradient x1="173.79293" y1="342.45144" x2="173.79293" y2="430.14984" gradientUnits="userSpaceOnUse" id="color-31"><stop offset="0" stop-color="#46815d"/><stop offset="1" stop-color="#255842"/></linearGradient><linearGradient x1="305.23037" y1="331.18607" x2="305.23037" y2="418.88447" gradientUnits="userSpaceOnUse" id="color-32"><stop offset="0" stop-color="#46815d"/><stop offset="1" stop-color="#255842"/></linearGradient><linearGradient x1="1.35388" y1="363.53543" x2="1.35388" y2="451.23383" gradientUnits="userSpaceOnUse" id="color-33"><stop offset="0" stop-color="#46815d"/><stop offset="1" stop-color="#255842"/></linearGradient><linearGradient x1="366.99408" y1="361.3281" x2="366.99408" y2="449.0265" gradientUnits="userSpaceOnUse" id="color-34"><stop offset="0" stop-color="#46815d"/><stop offset="1" stop-color="#255842"/></linearGradient><linearGradient x1="241.80661" y1="364.03294" x2="241.80661" y2="451.73134" gradientUnits="userSpaceOnUse" id="color-35"><stop offset="0" stop-color="#46815d"/><stop offset="1" stop-color="#255842"/></linearGradient><linearGradient x1="119.12158" y1="378.19186" x2="119.12158" y2="465.89026" gradientUnits="userSpaceOnUse" id="color-36"><stop offset="0" stop-color="#46815d"/><stop offset="1" stop-color="#255842"/></linearGradient><linearGradient x1="491.7327" y1="369.24818" x2="491.7327" y2="456.94658" gradientUnits="userSpaceOnUse" id="color-37"><stop offset="0" stop-color="#46815d"/><stop offset="1" stop-color="#255842"/></linearGradient></defs><g transform="translate(64.8622,42.37488)"><g data-paper-data="{&quot;isPaintingLayer&quot;:true}" fill-rule="nonzero" stroke-linejoin="miter" stroke-miterlimit="10" stroke-dasharray="" stroke-dashoffset="0" style="mix-blend-mode: normal"><path d="M-12.81774,369.32206v-400.63003h531.96604v400.63003z" fill="#ffffff" stroke="none" stroke-width="0" stroke-linecap="butt"/><path d="M-18.88586,-42.37488h549.18584v411.88939h-549.18584z" fill="url(#color-1)" stroke="none" stroke-width="1" stroke-linecap="butt"/><g stroke="none" stroke-width="1" stroke-linecap="butt"><g data-paper-data="{&quot;origPos&quot;:null}"><path d="M351.44487,32.66029c16.2559,0 30.98666,4.61545 41.65345,12.07179c10.66679,7.45634 17.26962,17.75358 17.26962,29.11715c0,11.36357 -6.60282,21.6608 -17.26962,29.11714c-10.66679,7.45634 -25.39755,12.0718 -41.65345,12.0718c-16.2559,0 -30.98667,-4.61546 -41.65346,-12.0718c-10.66679,-7.45634 -17.2696,-17.75357 -17.2696,-29.11714c0,-11.36357 6.60281,-21.66081 17.2696,-29.11715c10.66679,-7.45634 25.39756,-12.07179 41.65346,-12.07179z" data-paper-data="{&quot;origPos&quot;:null}" fill="#87959e"/><path d="M424.66965,14.3541c16.2559,0 30.98666,4.61545 41.65345,12.07179c10.66679,7.45634 17.26962,17.75358 17.26962,29.11715c0,11.36357 -6.60282,21.6608 -17.26962,29.11714c-10.66679,7.45634 -25.39755,12.07179 -41.65345,12.07179c-16.2559,0 -30.98667,-4.61545 -41.65346,-12.07179c-10.66679,-7.45634 -17.2696,-17.75357 -17.2696,-29.11714c0,-11.36357 6.60281,-21.66081 17.2696,-29.11715c10.66679,-7.45634 25.39756,-12.07179 41.65346,-12.07179z" data-paper-data="{&quot;origPos&quot;:null}" fill="#87959e"/><path d="M376.97469,62.81799c1.42102,0 2.70818,1.25055 3.63951,3.26995c0.93246,2.0194 1.50912,4.80766 1.50912,7.88539c0,3.07773 -0.57665,5.866 -1.50912,7.88539c-0.93133,2.01941 -2.21849,3.26995 -3.63951,3.26995c-1.42102,0 -2.70817,-1.25055 -3.6395,-3.26995c-0.93246,-2.01941 -1.50912,-4.80766 -1.50912,-7.88539c0,-3.07772 0.57665,-5.866 1.50912,-7.88539c0.93133,-2.01941 2.21847,-3.26995 3.6395,-3.26995z" data-paper-data="{&quot;origPos&quot;:null}" fill="#1e3341"/><path d="M401.00159,62.24598c1.42102,0 2.70818,1.25055 3.63951,3.26995c0.93246,2.0194 1.50912,4.80766 1.50912,7.88539c0,3.07773 -0.57665,5.866 -1.50912,7.88539c-0.93133,2.0194 -2.21849,3.26995 -3.63951,3.26995c-1.42102,0 -2.70817,-1.25055 -3.6395,-3.26995c-0.93246,-2.01941 -1.50912,-4.80766 -1.50912,-7.88539c0,-3.07772 0.57665,-5.866 1.50912,-7.88539c0.93133,-2.01941 2.21847,-3.26995 3.6395,-3.26995z" data-paper-data="{&quot;origPos&quot;:null}" fill="#1e3341"/></g><g data-paper-data="{&quot;origPos&quot;:null}"><path d="M184.86474,0.52477c16.2559,0 30.98667,4.61545 41.65346,12.07179c10.66679,7.45634 17.2696,17.75357 17.2696,29.11715c0,11.36357 -6.60281,21.6608 -17.2696,29.11714c-10.66679,7.45634 -25.39756,12.07179 -41.65346,12.07179c-16.2559,0 -30.98666,-4.61545 -41.65345,-12.07179c-10.6668,-7.45634 -17.26962,-17.75357 -17.26962,-29.11715c0,-11.36358 6.60282,-21.66081 17.26962,-29.11715c10.66679,-7.45634 25.39755,-12.07179 41.65345,-12.07179z" data-paper-data="{&quot;origPos&quot;:null}" fill="#87959e"/><path d="M111.63996,-17.78137c16.2559,0 30.98667,4.61545 41.65346,12.07179c10.66679,7.45633 17.2696,17.75357 17.2696,29.11714c0,11.36358 -6.60281,21.66081 -17.2696,29.11715c-10.66679,7.45634 -25.39756,12.07179 -41.65346,12.07179c-16.2559,0 -30.98667,-4.61545 -41.65346,-12.07179c-10.66679,-7.45634 -17.2696,-17.75357 -17.2696,-29.11715c0,-11.36358 6.60281,-21.66081 17.2696,-29.11715c10.66679,-7.45634 25.39756,-12.07179 41.65346,-12.07179z" data-paper-data="{&quot;origPos&quot;:null}" fill="#87959e"/><path d="M149.96239,28.15087c0.93247,2.01941 1.50912,4.80766 1.50912,7.88539c0,3.07773 -0.57664,5.866 -1.50912,7.88539c-0.93133,2.01941 -2.21849,3.26995 -3.6395,3.26995c-1.42101,0 -2.70817,-1.25055 -3.6395,-3.26995c-0.93247,-2.0194 -1.50912,-4.80766 -1.50912,-7.88539c0,-3.07773 0.57664,-5.86599 1.50912,-7.88539c0.93133,-2.01941 2.21849,-3.26995 3.6395,-3.26995c1.42101,0 2.70817,1.25054 3.6395,3.26995z" data-paper-data="{&quot;origPos&quot;:null}" fill="#1e3341"/><path d="M125.93551,27.5788c0.93247,2.01941 1.50912,4.80767 1.50912,7.8854c0,3.07773 -0.57664,5.866 -1.50912,7.88539c-0.93133,2.0194 -2.21849,3.26994 -3.6395,3.26994c-1.42101,0 -2.70817,-1.25054 -3.6395,-3.26994c-0.93247,-2.0194 -1.50912,-4.80766 -1.50912,-7.88539c0,-3.07773 0.57664,-5.866 1.50912,-7.8854c0.93133,-2.0194 2.21849,-3.26994 3.6395,-3.26994c1.42101,0 2.70817,1.25053 3.6395,3.26994z" data-paper-data="{&quot;origPos&quot;:null}" fill="#1e3341"/></g></g><g><g data-paper-data="{&quot;origPos&quot;:null}" stroke="#3c634f" stroke-width="2" stroke-linecap="butt"><path d="M124.09037,180.18633c11.20663,7.93793 18.14361,18.90022 18.14361,30.99773c0,12.0975 -6.93698,23.05981 -18.14361,30.99773c-11.20663,7.93793 -26.6829,12.85147 -43.76149,12.85147c-17.07859,0 -32.55486,-4.91355 -43.76149,-12.85147c-11.20663,-7.93793 -18.14361,-18.90022 -18.14361,-30.99773c0,-12.0975 6.93698,-23.05981 18.14361,-30.99773c11.20663,-7.93793 26.6829,-12.85147 43.76149,-12.85147c17.07859,0 32.55486,4.91355 43.76149,12.85147z" data-paper-data="{&quot;origPos&quot;:null}" fill="url(#color-2)"/><path d="M43.55364,214.29124c11.20663,7.93793 18.14361,18.90022 18.14361,30.99773c0,12.0975 -6.93698,23.05981 -18.14361,30.99773c-11.20663,7.93793 -26.6829,12.85147 -43.76149,12.85147c-17.07859,0 -32.55486,-4.91355 -43.76149,-12.85147c-11.20663,-7.93793 -18.14361,-18.90022 -18.14361,-30.99773c0,-12.0975 6.93698,-23.05981 18.14361,-30.99773c11.20663,-7.93793 26.6829,-12.85147 43.76149,-12.85147c17.07859,0 32.55486,4.91355 43.76149,12.85147z" data-paper-data="{&quot;origPos&quot;:null}" fill="url(#color-3)"/><path d="M219.0516,206.98306c11.20663,7.93793 18.14361,18.90022 18.14361,30.99773c0,12.0975 -6.93698,23.05981 -18.14361,30.99773c-11.20663,7.93793 -26.6829,12.85147 -43.76149,12.85147c-17.07859,0 -32.55486,-4.91355 -43.76149,-12.85147c-11.20663,-7.93793 -18.14361,-18.90022 -18.14361,-30.99773c0,-12.0975 6.93698,-23.05981 18.14361,-30.99773c11.20663,-7.93793 26.6829,-12.85147 43.76149,-12.85147c17.07859,0 32.55486,4.91355 43.76149,12.85147z" data-paper-data="{&quot;origPos&quot;:null}" fill="url(#color-4)"/><path d="M302.61494,181.85611c11.20663,7.93793 18.14361,18.90022 18.14361,30.99773c0,12.0975 -6.93698,23.05981 -18.14361,30.99773c-11.20663,7.93793 -26.6829,12.85147 -43.76149,12.85147c-17.07859,0 -32.55486,-4.91355 -43.76149,-12.85147c-11.20663,-7.93793 -18.14361,-18.90022 -18.14361,-30.99773c0,-12.0975 6.93698,-23.05981 18.14361,-30.99773c11.20663,-7.93793 26.6829,-12.85147 43.76149,-12.85147c17.07859,0 32.55486,4.91355 43.76149,12.85147z" data-paper-data="{&quot;origPos&quot;:null}" fill="url(#color-5)"/><path d="M389.40167,194.91709c11.20663,7.93793 18.14361,18.90022 18.14361,30.99773c0,12.0975 -6.93698,23.05981 -18.14361,30.99773c-11.20663,7.93793 -26.6829,12.85147 -43.76149,12.85147c-17.07859,0 -32.55486,-4.91355 -43.76149,-12.85147c-11.20663,-7.93793 -18.14361,-18.90022 -18.14361,-30.99773c0,-12.0975 6.93698,-23.05981 18.14361,-30.99773c11.20663,-7.93793 26.6829,-12.85147 43.76149,-12.85147c17.07859,0 32.55486,4.91355 43.76149,12.85147z" data-paper-data="{&quot;origPos&quot;:null}" fill="url(#color-6)"/><path d="M501.01776,177.36712c11.20663,7.93793 18.14361,18.90022 18.14361,30.99773c0,12.0975 -6.93698,23.05981 -18.14361,30.99773c-11.20663,7.93793 -26.6829,12.85147 -43.76149,12.85147c-17.07859,0 -32.55486,-4.91355 -43.76149,-12.85147c-11.20663,-7.93793 -18.14361,-18.90022 -18.14361,-30.99773c0,-12.0975 6.93698,-23.05981 18.14361,-30.99773c11.20663,-7.93793 26.6829,-12.85147 43.76149,-12.85147c17.07859,0 32.55486,4.91355 43.76149,12.85147z" data-paper-data="{&quot;origPos&quot;:null}" fill="url(#color-7)"/><path d="M144.22994,235.72407c11.20663,7.93793 18.14361,18.90022 18.14361,30.99773c0,12.0975 -6.93698,23.05981 -18.14361,30.99773c-11.20663,7.93793 -26.6829,12.85147 -43.76149,12.85147c-17.07859,0 -32.55486,-4.91355 -43.76149,-12.85147c-11.20663,-7.93793 -18.14361,-18.90022 -18.14361,-30.99773c0,-12.0975 6.93698,-23.05981 18.14361,-30.99773c11.20663,-7.93793 26.6829,-12.85147 43.76149,-12.85147c17.07859,0 32.55486,4.91355 43.76149,12.85147z" data-paper-data="{&quot;origPos&quot;:null}" fill="url(#color-8)"/><path d="M292.97709,222.81749c11.20663,7.93793 18.14361,18.90022 18.14361,30.99773c0,12.0975 -6.93698,23.05981 -18.14361,30.99773c-11.20663,7.93793 -26.6829,12.85147 -43.76149,12.85147c-17.07859,0 -32.55486,-4.91355 -43.76149,-12.85147c-11.20663,-7.93793 -18.14361,-18.90022 -18.14361,-30.99773c0,-12.0975 6.93698,-23.05981 18.14361,-30.99773c11.20663,-7.93793 26.6829,-12.85147 43.76149,-12.85147c17.07859,0 32.55486,4.91355 43.76149,12.85147z" data-paper-data="{&quot;origPos&quot;:null}" fill="url(#color-9)"/><path d="M429.40872,224.03553c11.20663,7.93793 18.14361,18.90022 18.14361,30.99773c0,12.0975 -6.93698,23.05981 -18.14361,30.99773c-11.20663,7.93793 -26.6829,12.85147 -43.76149,12.85147c-17.07859,0 -32.55486,-4.91355 -43.76149,-12.85147c-11.20663,-7.93793 -18.14361,-18.90022 -18.14361,-30.99773c0,-12.0975 6.93698,-23.05981 18.14361,-30.99773c11.20663,-7.93793 26.6829,-12.85147 43.76149,-12.85147c17.07859,0 32.55486,4.91355 43.76149,12.85147z" data-paper-data="{&quot;origPos&quot;:null}" fill="url(#color-10)"/><path d="M520.1628,226.47159c11.20663,7.93793 18.14361,18.90022 18.14361,30.99773c0,12.0975 -6.93698,23.05981 -18.14361,30.99773c-11.20663,7.93793 -26.6829,12.85147 -43.76149,12.85147c-17.07859,0 -32.55486,-4.91355 -43.76149,-12.85147c-11.20663,-7.93793 -18.14361,-18.90022 -18.14361,-30.99773c0,-12.0975 6.93698,-23.05981 18.14361,-30.99773c11.20663,-7.93793 26.6829,-12.85147 43.76149,-12.85147c17.07859,0 32.55486,4.91355 43.76149,12.85147z" data-paper-data="{&quot;origPos&quot;:null}" fill="url(#color-11)"/><path d="M65.66072,261.60585c11.20663,7.93793 18.14361,18.90022 18.14361,30.99773c0,12.0975 -6.93698,23.05981 -18.14361,30.99773c-11.20663,7.93793 -26.6829,12.85147 -43.76149,12.85147c-17.07859,0 -32.55486,-4.91355 -43.76149,-12.85147c-11.20663,-7.93793 -18.14361,-18.90022 -18.14361,-30.99773c0,-12.0975 6.93698,-23.05981 18.14361,-30.99773c11.20663,-7.93793 26.6829,-12.85147 43.76149,-12.85147c17.07859,0 32.55486,4.91355 43.76149,12.85147z" data-paper-data="{&quot;origPos&quot;:null}" fill="url(#color-12)"/><path d="M214.24343,270.32079c11.20663,7.93793 18.14361,18.90022 18.14361,30.99773c0,12.0975 -6.93698,23.05981 -18.14361,30.99773c-11.20663,7.93793 -26.6829,12.85147 -43.76149,12.85147c-17.07859,0 -32.55486,-4.91355 -43.76149,-12.85147c-11.20663,-7.93793 -18.14361,-18.90022 -18.14361,-30.99773c0,-12.0975 6.93698,-23.05981 18.14361,-30.99773c11.20663,-7.93793 26.6829,-12.85147 43.76149,-12.85147c17.07859,0 32.55486,4.91355 43.76149,12.85147z" data-paper-data="{&quot;origPos&quot;:null}" fill="url(#color-13)"/><path d="M345.68089,259.05541c11.20663,7.93793 18.14361,18.90022 18.14361,30.99773c0,12.0975 -6.93698,23.05981 -18.14361,30.99773c-11.20663,7.93793 -26.6829,12.85147 -43.76149,12.85147c-17.07859,0 -32.55486,-4.91355 -43.76149,-12.85147c-11.20663,-7.93793 -18.14361,-18.90022 -18.14361,-30.99773c0,-12.0975 6.93698,-23.05981 18.14361,-30.99773c11.20663,-7.93793 26.6829,-12.85147 43.76149,-12.85147c17.07859,0 32.55486,4.91355 43.76149,12.85147z" data-paper-data="{&quot;origPos&quot;:null}" fill="url(#color-14)"/><path d="M41.80439,291.40478c11.20663,7.93793 18.14361,18.90022 18.14361,30.99773c0,12.0975 -6.93698,23.05981 -18.14361,30.99773c-11.20663,7.93793 -26.6829,12.85147 -43.76149,12.85147c-17.07859,0 -32.55486,-4.91355 -43.76149,-12.85147c-11.20663,-7.93793 -18.14361,-18.90022 -18.14361,-30.99773c0,-12.0975 6.93698,-23.05981 18.14361,-30.99773c11.20663,-7.93793 26.6829,-12.85147 43.76149,-12.85147c17.07859,0 32.55486,4.91355 43.76149,12.85147z" data-paper-data="{&quot;origPos&quot;:null}" fill="url(#color-15)"/><path d="M407.44458,289.19745c11.20663,7.93793 18.14361,18.90022 18.14361,30.99773c0,12.0975 -6.93698,23.05981 -18.14361,30.99773c-11.20663,7.93793 -26.6829,12.85147 -43.76149,12.85147c-17.07859,0 -32.55486,-4.91355 -43.76149,-12.85147c-11.20663,-7.93793 -18.14361,-18.90022 -18.14361,-30.99773c0,-12.0975 6.93698,-23.05981 18.14361,-30.99773c11.20663,-7.93793 26.6829,-12.85147 43.76149,-12.85147c17.07859,0 32.55486,4.91355 43.76149,12.85147z" data-paper-data="{&quot;origPos&quot;:null}" fill="url(#color-16)"/><path d="M282.25709,291.90229c11.20663,7.93793 18.14361,18.90022 18.14361,30.99773c0,12.0975 -6.93698,23.05981 -18.14361,30.99773c-11.20663,7.93793 -26.6829,12.85147 -43.76149,12.85147c-17.07859,0 -32.55486,-4.91355 -43.76149,-12.85147c-11.20663,-7.93793 -18.14361,-18.90022 -18.14361,-30.99773c0,-12.0975 6.93698,-23.05981 18.14361,-30.99773c11.20663,-7.93793 26.6829,-12.85147 43.76149,-12.85147c17.07859,0 32.55486,4.91355 43.76149,12.85147z" data-paper-data="{&quot;origPos&quot;:null}" fill="url(#color-17)"/><path d="M159.5721,306.0612c11.20663,7.93793 18.14361,18.90022 18.14361,30.99773c0,12.0975 -6.93698,23.05981 -18.14361,30.99773c-11.20663,7.93793 -26.6829,12.85147 -43.76149,12.85147c-17.07859,0 -32.55486,-4.91355 -43.76149,-12.85147c-11.20663,-7.93793 -18.14361,-18.90022 -18.14361,-30.99773c0,-12.0975 6.93698,-23.05981 18.14361,-30.99773c11.20663,-7.93793 26.6829,-12.85147 43.76149,-12.85147c17.07859,0 32.55486,4.91355 43.76149,12.85147z" data-paper-data="{&quot;origPos&quot;:null}" fill="url(#color-18)"/><path d="M532.1832,297.11753c11.20663,7.93793 18.14361,18.90022 18.14361,30.99773c0,12.0975 -6.93698,23.05981 -18.14361,30.99773c-11.20663,7.93793 -26.6829,12.85147 -43.76149,12.85147c-17.07859,0 -32.55486,-4.91355 -43.76149,-12.85147c-11.20663,-7.93793 -18.14361,-18.90022 -18.14361,-30.99773c0,-12.0975 6.93698,-23.05981 18.14361,-30.99773c11.20663,-7.93793 26.6829,-12.85147 43.76149,-12.85147c17.07859,0 32.55486,4.91355 43.76149,12.85147z" data-paper-data="{&quot;origPos&quot;:null}" fill="url(#color-19)"/></g><g data-paper-data="{&quot;origPos&quot;:null}"><path d="M303.3706,352.4588h-124.7828v-169.44517h124.7828z" data-paper-data="{&quot;origPos&quot;:null}" fill="#817250" stroke="#585240" stroke-width="2.22445" stroke-linecap="butt"/><path d="M-19.98955,99.84061h131.57577v255.77896h-131.57577z" data-paper-data="{&quot;origPos&quot;:null}" fill="#817250" stroke="#585240" stroke-width="2" stroke-linecap="butt"/><path d="M433.12927,154.11129h94.96338v195.98993h-94.96338z" data-paper-data="{&quot;origPos&quot;:null}" fill="#817250" stroke="#585240" stroke-width="2" stroke-linecap="butt"/><path d="M435.41754,169.51156c-3.42211,0.40502 -6.03533,0.07093 -8.00897,-1.14414c-3.21274,-1.97707 -7.1909,-4.32712 -8.00896,-8.00896c-1.65557,-7.44833 -1.26885,-15.64492 1.14414,-22.88274c0.97137,-2.91411 5.40376,-2.94844 8.00896,-4.57655c3.4942,-2.18416 5.04679,-6.70122 10.29724,-6.86482c20.99949,-0.65674 41.98067,2.94387 62.92754,4.57655c8.3911,0.6533 16.87946,0.84665 25.17102,2.28827c2.07318,0.3604 1.00454,1.44848 1.14414,2.28827c0.25056,1.5034 -0.4794,1.40843 0,4.57654c1.91986,12.67247 8.49179,28.80367 5.72069,38.50023c-0.80433,4.1761 -7.31447,-9.62333 -12.87154,-10.75489c-5.31565,-1.06749 -10.32813,5.70809 -15.73189,4.29052c-3.68069,-0.96337 -2.25051,-9.24348 -6.00672,-9.72517c-7.152,-0.46681 -13.15186,7.39228 -20.30843,7.4369c-9.19085,0.05606 -17.71468,-6.1463 -26.88722,-6.29276c-6.26301,0.14646 -11.66906,5.20697 -17.73413,6.29276z" data-paper-data="{&quot;origPos&quot;:null}" fill="#577c53" stroke="#416143" stroke-width="2" stroke-linecap="round"/><path d="M-26.81388,81.41294c0,-1.81575 3.87748,0.6144 5.72069,0c2.04457,-0.6819 2.64868,-3.61318 4.57655,-4.57654c3.55827,-1.77913 7.66801,-2.17501 11.44138,-3.43242c0.94391,-0.31464 1.05718,-0.98053 2.28827,-1.14414c4.92436,-0.65674 9.90709,-1.0423 14.87379,-1.14414c13.71363,-0.28032 27.47645,-0.32608 41.18894,0c3.42784,0.08123 4.55824,0.91302 6.86482,1.14414c9.13021,0.91303 18.34395,1.23682 27.45929,2.28828c2.27912,0.26316 1.45305,0.97708 2.28827,1.14414c3.01252,0.60295 6.15432,0.47825 9.1531,1.14414c3.88321,0.86268 8.13139,1.22651 11.44136,3.43242c3.81685,2.54456 6.36599,6.65315 9.15309,10.29723c2.18301,2.85463 4.11317,5.93808 5.72068,9.15309c0.40159,0.80318 0,1.52627 0,2.28827c0,1.90499 0.56063,3.90036 0,5.72069c-1.00226,3.25735 -2.24593,6.66689 -4.57654,9.15309c-3.54454,3.78023 -7.86023,7.02615 -12.58551,9.15309c-3.14638,1.41529 -6.87855,1.6098 -10.29723,1.14415c-5.13488,-0.70021 -10.09815,-2.56516 -14.87378,-4.57655c-2.53198,-1.06634 -4.15207,-4.14291 -6.86482,-4.57654c-7.14858,-1.14414 -14.64038,-1.41987 -21.7386,0c-4.68067,0.9359 -7.98379,5.59484 -12.58551,6.86482c-6.65201,1.83519 -13.71935,2.87751 -20.59447,2.28827c-6.72639,-0.57664 -12.83035,-4.39692 -19.45033,-5.72069c-2.98848,-0.59725 -6.17033,-0.62813 -9.15309,0c-4.36373,0.91875 -8.7149,6.18978 -12.58551,4.57654c-2.99421,-1.24711 -1.04803,-6.84881 -1.14414,-10.29724c-0.28604,-10.28351 1.63841,-20.73633 0,-30.8917c-0.4096,-2.53885 -5.72069,-3.90494 -5.72069,-4.57654z" data-paper-data="{&quot;origPos&quot;:null}" fill="#577c53" stroke="#416143" stroke-width="2" stroke-linecap="round"/><path d="M301.8672,189.0387c-7.9696,-0.93877 -15.0732,-5.31383 -23.30287,-5.44048c-12.05281,0.12666 -23.25321,5.48889 -35.33004,5.44048c-9.40389,-0.03856 -17.28768,-6.83324 -26.68551,-6.4297c-4.9357,0.41647 -3.05644,7.5751 -7.89283,8.40803c-7.10063,1.2256 -13.68709,-4.63227 -20.67192,-3.7094c-7.302,0.97823 -15.85636,12.90872 -16.91332,9.29828c-3.64122,-8.38332 4.99439,-22.32966 7.5171,-33.28581c0.62985,-2.73906 -0.32928,-2.65692 0,-3.95666c0.18341,-0.72607 -1.2208,-1.66678 1.50339,-1.97832c10.89516,-1.24642 22.04889,-1.41358 33.07494,-1.97845c27.5244,-1.41152 55.09387,-4.52449 82.68737,-3.95666c6.89915,0.14141 8.93926,4.04671 13.53069,5.9351c3.42326,1.40752 9.24748,1.43727 10.52388,3.95665c3.17063,6.25752 3.67885,13.34395 1.5034,19.7835c-1.07491,3.18311 -6.30237,5.21498 -10.52389,6.92421c-2.59342,1.05054 -6.0272,1.33933 -10.52389,0.98921z" data-paper-data="{&quot;origPos&quot;:null}" fill="#577c53" stroke="#416143" stroke-width="2.22445" stroke-linecap="round"/></g><g data-paper-data="{&quot;origPos&quot;:null}" stroke="#3c634f" stroke-width="2" stroke-linecap="butt"><path d="M127.40136,265.16845c11.20663,7.93793 18.14361,18.90022 18.14361,30.99773c0,12.0975 -6.93698,23.05981 -18.14361,30.99773c-11.20663,7.93793 -26.6829,12.85147 -43.76149,12.85147c-17.07859,0 -32.55486,-4.91355 -43.76149,-12.85147c-11.20663,-7.93793 -18.14361,-18.90022 -18.14361,-30.99773c0,-12.0975 6.93698,-23.05981 18.14361,-30.99773c11.20663,-7.93793 26.6829,-12.85147 43.76149,-12.85147c17.07859,0 32.55486,4.91355 43.76149,12.85147z" data-paper-data="{&quot;origPos&quot;:null}" fill="url(#color-20)"/><path d="M46.86462,299.27337c11.20663,7.93793 18.14361,18.90022 18.14361,30.99773c0,12.0975 -6.93698,23.05981 -18.14361,30.99773c-11.20663,7.93793 -26.6829,12.85147 -43.76149,12.85147c-17.07859,0 -32.55486,-4.91355 -43.76149,-12.85147c-11.20663,-7.93793 -18.14361,-18.90022 -18.14361,-30.99773c0,-12.0975 6.93698,-23.05981 18.14361,-30.99773c11.20663,-7.93793 26.6829,-12.85147 43.76149,-12.85147c17.07859,0 32.55486,4.91355 43.76149,12.85147z" data-paper-data="{&quot;origPos&quot;:null}" fill="url(#color-21)"/><path d="M222.36259,291.96518c11.20663,7.93793 18.14361,18.90022 18.14361,30.99773c0,12.0975 -6.93698,23.05981 -18.14361,30.99773c-11.20663,7.93793 -26.6829,12.85147 -43.76149,12.85147c-17.07859,0 -32.55486,-4.91355 -43.76149,-12.85147c-11.20663,-7.93793 -18.14361,-18.90022 -18.14361,-30.99773c0,-12.0975 6.93698,-23.05981 18.14361,-30.99773c11.20663,-7.93793 26.6829,-12.85147 43.76149,-12.85147c17.07859,0 32.55486,4.91355 43.76149,12.85147z" data-paper-data="{&quot;origPos&quot;:null}" fill="url(#color-22)"/><path d="M305.92593,266.83824c11.20663,7.93793 18.14361,18.90022 18.14361,30.99773c0,12.0975 -6.93698,23.05981 -18.14361,30.99773c-11.20663,7.93793 -26.6829,12.85147 -43.76149,12.85147c-17.07859,0 -32.55486,-4.91355 -43.76149,-12.85147c-11.20663,-7.93793 -18.14361,-18.90022 -18.14361,-30.99773c0,-12.0975 6.93698,-23.05981 18.14361,-30.99773c11.20663,-7.93793 26.6829,-12.85147 43.76149,-12.85147c17.07859,0 32.55486,4.91355 43.76149,12.85147z" data-paper-data="{&quot;origPos&quot;:null}" fill="url(#color-23)"/><path d="M392.71266,279.89922c11.20663,7.93793 18.14361,18.90022 18.14361,30.99773c0,12.0975 -6.93698,23.05981 -18.14361,30.99773c-11.20663,7.93793 -26.6829,12.85147 -43.76149,12.85147c-17.07859,0 -32.55486,-4.91355 -43.76149,-12.85147c-11.20663,-7.93793 -18.14361,-18.90022 -18.14361,-30.99773c0,-12.0975 6.93698,-23.05981 18.14361,-30.99773c11.20663,-7.93793 26.6829,-12.85147 43.76149,-12.85147c17.07859,0 32.55486,4.91355 43.76149,12.85147z" data-paper-data="{&quot;origPos&quot;:null}" fill="url(#color-24)"/><path d="M504.32875,262.34925c11.20663,7.93793 18.14361,18.90022 18.14361,30.99773c0,12.0975 -6.93698,23.05981 -18.14361,30.99773c-11.20663,7.93793 -26.6829,12.85147 -43.76149,12.85147c-17.07859,0 -32.55486,-4.91355 -43.76149,-12.85147c-11.20663,-7.93793 -18.14361,-18.90022 -18.14361,-30.99773c0,-12.0975 6.93698,-23.05981 18.14361,-30.99773c11.20663,-7.93793 26.6829,-12.85147 43.76149,-12.85147c17.07859,0 32.55486,4.91355 43.76149,12.85147z" data-paper-data="{&quot;origPos&quot;:null}" fill="url(#color-25)"/><path d="M147.54094,320.70619c11.20663,7.93793 18.14361,18.90022 18.14361,30.99773c0,12.0975 -6.93698,23.05981 -18.14361,30.99773c-11.20663,7.93793 -26.6829,12.85147 -43.76149,12.85147c-17.07859,0 -32.55486,-4.91355 -43.76149,-12.85147c-11.20663,-7.93793 -18.14361,-18.90022 -18.14361,-30.99773c0,-12.0975 6.93698,-23.05981 18.14361,-30.99773c11.20663,-7.93793 26.6829,-12.85147 43.76149,-12.85147c17.07859,0 32.55486,4.91355 43.76149,12.85147z" data-paper-data="{&quot;origPos&quot;:null}" fill="url(#color-26)"/><path d="M296.28808,307.79962c11.20663,7.93793 18.14361,18.90022 18.14361,30.99773c0,12.0975 -6.93698,23.05981 -18.14361,30.99773c-11.20663,7.93793 -26.6829,12.85147 -43.76149,12.85147c-17.07859,0 -32.55486,-4.91355 -43.76149,-12.85147c-11.20663,-7.93793 -18.14361,-18.90022 -18.14361,-30.99773c0,-12.0975 6.93698,-23.05981 18.14361,-30.99773c11.20663,-7.93793 26.6829,-12.85147 43.76149,-12.85147c17.07859,0 32.55486,4.91355 43.76149,12.85147z" data-paper-data="{&quot;origPos&quot;:null}" fill="url(#color-27)"/><path d="M432.71971,309.01765c11.20663,7.93793 18.14361,18.90022 18.14361,30.99773c0,12.0975 -6.93698,23.05981 -18.14361,30.99773c-11.20663,7.93793 -26.6829,12.85147 -43.76149,12.85147c-17.07859,0 -32.55486,-4.91355 -43.76149,-12.85147c-11.20663,-7.93793 -18.14361,-18.90022 -18.14361,-30.99773c0,-12.0975 6.93698,-23.05981 18.14361,-30.99773c11.20663,-7.93793 26.6829,-12.85147 43.76149,-12.85147c17.07859,0 32.55486,4.91355 43.76149,12.85147z" data-paper-data="{&quot;origPos&quot;:null}" fill="url(#color-28)"/><path d="M523.47379,311.45371c11.20663,7.93793 18.14361,18.90022 18.14361,30.99773c0,12.0975 -6.93698,23.05981 -18.14361,30.99773c-11.20663,7.93793 -26.6829,12.85147 -43.76149,12.85147c-17.07859,0 -32.55486,-4.91355 -43.76149,-12.85147c-11.20663,-7.93793 -18.14361,-18.90022 -18.14361,-30.99773c0,-12.0975 6.93698,-23.05981 18.14361,-30.99773c11.20663,-7.93793 26.6829,-12.85147 43.76149,-12.85147c17.07859,0 32.55486,4.91355 43.76149,12.85147z" data-paper-data="{&quot;origPos&quot;:null}" fill="url(#color-29)"/><path d="M68.97171,346.58797c11.20663,7.93793 18.14361,18.90022 18.14361,30.99773c0,12.0975 -6.93698,23.05981 -18.14361,30.99773c-11.20663,7.93793 -26.6829,12.85147 -43.76149,12.85147c-17.07859,0 -32.55486,-4.91355 -43.76149,-12.85147c-11.20663,-7.93793 -18.14361,-18.90022 -18.14361,-30.99773c0,-12.0975 6.93698,-23.05981 18.14361,-30.99773c11.20663,-7.93793 26.6829,-12.85147 43.76149,-12.85147c17.07859,0 32.55486,4.91355 43.76149,12.85147z" data-paper-data="{&quot;origPos&quot;:null}" fill="url(#color-30)"/><path d="M217.55442,355.30291c11.20663,7.93793 18.14361,18.90022 18.14361,30.99773c0,12.0975 -6.93698,23.05981 -18.14361,30.99773c-11.20663,7.93793 -26.6829,12.85147 -43.76149,12.85147c-17.07859,0 -32.55486,-4.91355 -43.76149,-12.85147c-11.20663,-7.93793 -18.14361,-18.90022 -18.14361,-30.99773c0,-12.0975 6.93698,-23.05981 18.14361,-30.99773c11.20663,-7.93793 26.6829,-12.85147 43.76149,-12.85147c17.07859,0 32.55486,4.91355 43.76149,12.85147z" data-paper-data="{&quot;origPos&quot;:null}" fill="url(#color-31)"/><path d="M348.99188,344.03754c11.20663,7.93793 18.14361,18.90022 18.14361,30.99773c0,12.0975 -6.93698,23.05981 -18.14361,30.99773c-11.20663,7.93793 -26.6829,12.85147 -43.76149,12.85147c-17.07859,0 -32.55486,-4.91355 -43.76149,-12.85147c-11.20663,-7.93793 -18.14361,-18.90022 -18.14361,-30.99773c0,-12.0975 6.93698,-23.05981 18.14361,-30.99773c11.20663,-7.93793 26.6829,-12.85147 43.76149,-12.85147c17.07859,0 32.55486,4.91355 43.76149,12.85147z" data-paper-data="{&quot;origPos&quot;:null}" fill="url(#color-32)"/><path d="M45.11538,376.3869c11.20663,7.93793 18.14361,18.90022 18.14361,30.99773c0,12.0975 -6.93698,23.05981 -18.14361,30.99773c-11.20663,7.93793 -26.6829,12.85147 -43.76149,12.85147c-17.07859,0 -32.55486,-4.91355 -43.76149,-12.85147c-11.20663,-7.93793 -18.14361,-18.90022 -18.14361,-30.99773c0,-12.0975 6.93698,-23.05981 18.14361,-30.99773c11.20663,-7.93793 26.6829,-12.85147 43.76149,-12.85147c17.07859,0 32.55486,4.91355 43.76149,12.85147z" data-paper-data="{&quot;origPos&quot;:null}" fill="url(#color-33)"/><path d="M410.75557,374.17957c11.20663,7.93793 18.14361,18.90022 18.14361,30.99773c0,12.0975 -6.93698,23.05981 -18.14361,30.99773c-11.20663,7.93793 -26.6829,12.85147 -43.76149,12.85147c-17.07859,0 -32.55486,-4.91355 -43.76149,-12.85147c-11.20663,-7.93793 -18.14361,-18.90022 -18.14361,-30.99773c0,-12.0975 6.93698,-23.05981 18.14361,-30.99773c11.20663,-7.93793 26.6829,-12.85147 43.76149,-12.85147c17.07859,0 32.55486,4.91355 43.76149,12.85147z" data-paper-data="{&quot;origPos&quot;:null}" fill="url(#color-34)"/><path d="M285.56808,376.88441c11.20663,7.93793 18.14361,18.90022 18.14361,30.99773c0,12.0975 -6.93698,23.05981 -18.14361,30.99773c-11.20663,7.93793 -26.6829,12.85147 -43.76149,12.85147c-17.07859,0 -32.55486,-4.91355 -43.76149,-12.85147c-11.20663,-7.93793 -18.14361,-18.90022 -18.14361,-30.99773c0,-12.0975 6.93698,-23.05981 18.14361,-30.99773c11.20663,-7.93793 26.6829,-12.85147 43.76149,-12.85147c17.07859,0 32.55486,4.91355 43.76149,12.85147z" data-paper-data="{&quot;origPos&quot;:null}" fill="url(#color-35)"/><path d="M162.88309,391.04333c11.20663,7.93793 18.14361,18.90022 18.14361,30.99773c0,12.0975 -6.93698,23.05981 -18.14361,30.99773c-11.20663,7.93793 -26.6829,12.85147 -43.76149,12.85147c-17.07859,0 -32.55486,-4.91355 -43.76149,-12.85147c-11.20663,-7.93793 -18.14361,-18.90022 -18.14361,-30.99773c0,-12.0975 6.93698,-23.05981 18.14361,-30.99773c11.20663,-7.93793 26.6829,-12.85147 43.76149,-12.85147c17.07859,0 32.55486,4.91355 43.76149,12.85147z" data-paper-data="{&quot;origPos&quot;:null}" fill="url(#color-36)"/><path d="M535.49419,382.09965c11.20663,7.93793 18.14361,18.90022 18.14361,30.99773c0,12.0975 -6.93698,23.05981 -18.14361,30.99773c-11.20663,7.93793 -26.6829,12.85147 -43.76149,12.85147c-17.07859,0 -32.55486,-4.91355 -43.76149,-12.85147c-11.20663,-7.93793 -18.14361,-18.90022 -18.14361,-30.99773c0,-12.0975 6.93698,-23.05981 18.14361,-30.99773c11.20663,-7.93793 26.6829,-12.85147 43.76149,-12.85147c17.07859,0 32.55486,4.91355 43.76149,12.85147z" data-paper-data="{&quot;origPos&quot;:null}" fill="url(#color-37)"/></g></g></g></g></svg>