<svg version="1.1" xmlns="http://www.w3.org/2000/svg" xmlns:xlink="http://www.w3.org/1999/xlink" width="597.7672" height="532.04781" viewBox="0,0,597.7672,532.04781"><defs><linearGradient x1="216.44411" y1="214.01304" x2="216.44411" y2="258.31757" gradientUnits="userSpaceOnUse" id="color-1"><stop offset="0" stop-color="#cfa63e"/><stop offset="1" stop-color="#daac3a"/></linearGradient><linearGradient x1="189.97754" y1="242.82561" x2="283.36188" y2="242.82561" gradientUnits="userSpaceOnUse" id="color-2"><stop offset="0" stop-color="#8fe3a6"/><stop offset="1" stop-color="#dde38f"/></linearGradient><linearGradient x1="236.42572" y1="67.48129" x2="305.90919" y2="67.48129" gradientUnits="userSpaceOnUse" id="color-3"><stop offset="0" stop-color="#8fe3a6"/><stop offset="1" stop-color="#68913c"/></linearGradient><linearGradient x1="148.5422" y1="97.78246" x2="236.04971" y2="97.78246" gradientUnits="userSpaceOnUse" id="color-4"><stop offset="0" stop-color="#8fe3a6"/><stop offset="1" stop-color="#68913c"/></linearGradient><linearGradient x1="239.08137" y1="89.84966" x2="325.33313" y2="89.84966" gradientUnits="userSpaceOnUse" id="color-5"><stop offset="0" stop-color="#8fe3a6"/><stop offset="1" stop-color="#68913c"/></linearGradient><linearGradient x1="225.988" y1="169.89353" x2="247.98818" y2="169.89353" gradientUnits="userSpaceOnUse" id="color-6"><stop offset="0" stop-color="#916f3b"/><stop offset="1" stop-color="#ad8a56"/></linearGradient><linearGradient x1="224.69577" y1="104.47052" x2="251.15223" y2="100.20821" gradientUnits="userSpaceOnUse" id="color-7"><stop offset="0" stop-color="#93713d"/><stop offset="1" stop-color="#ac8a56"/></linearGradient><linearGradient x1="237.30549" y1="132.05556" x2="244.02973" y2="132.05556" gradientUnits="userSpaceOnUse" id="color-8"><stop offset="0" stop-color="#9c7a46"/><stop offset="1" stop-color="#a17f4b"/></linearGradient></defs><g transform="translate(211.28123,168.42698)"><g data-paper-data="{&quot;isPaintingLayer&quot;:true}" fill-rule="nonzero" stroke-linejoin="miter" stroke-miterlimit="10" stroke-dasharray="" stroke-dashoffset="0" style="mix-blend-mode: normal"><path d="M78.07624,355.63449h308.40973v7.98634h-308.40973z" fill="#cfbf74" stroke="none" stroke-width="1.54554" stroke-linecap="butt"/><path d="M88.30788,273.41858l-0.61273,88.36561l-289.17907,-3.56169v-85.94493z" data-paper-data="{&quot;origPos&quot;:null,&quot;index&quot;:null}" fill="#cfbf74" stroke="#8d763a" stroke-width="2" stroke-linecap="butt"/><path d="M86.76392,300.74846c-20.33397,6.52085 -42.32602,16.39523 -71.35709,17.53296c-42.31314,1.65826 -45.49067,-22.43186 -79.49934,-21.49347c-34.00867,0.93838 -31.97745,22.8559 -70.19392,22.15938c-28.74259,-0.52384 -51.55291,-0.28146 -65.01867,-13.28432" data-paper-data="{&quot;origPos&quot;:null,&quot;origRot&quot;:0,&quot;index&quot;:null}" fill="none" stroke="#bba15f" stroke-width="9" stroke-linecap="round"/><path d="M86.53291,332.33581c-20.26958,6.52129 -42.20492,16.32534 -71.12608,17.45876c-42.31314,1.65826 -45.49067,-22.43186 -79.49934,-21.49347c-34.00867,0.93838 -33.79533,22.8559 -72.0118,22.15938c-28.74259,-0.52384 -51.55291,-0.28146 -65.01867,-13.28432" data-paper-data="{&quot;origPos&quot;:null,&quot;origRot&quot;:0,&quot;index&quot;:null}" fill="none" stroke="#b49851" stroke-width="9" stroke-linecap="round"/><path d="M92.30788,-166.28202l-0.61273,251.0662l-289.17907,-3.56169v-248.64552z" data-paper-data="{&quot;origPos&quot;:null,&quot;index&quot;:null}" fill="#cfbf74" stroke="#8d763a" stroke-width="2" stroke-linecap="butt"/><path d="M90.76392,23.74845c-20.33397,6.52085 -42.32602,16.39523 -71.35709,17.53296c-42.31314,1.65827 -45.49067,-22.43184 -79.49934,-21.49346c-34.00867,0.93838 -32.88639,19.22014 -71.10286,18.52362c-28.74259,-0.52384 -51.55291,-0.28145 -65.01867,-13.28431" data-paper-data="{&quot;origPos&quot;:null,&quot;origRot&quot;:0,&quot;index&quot;:null}" fill="none" stroke="#bba15f" stroke-width="9" stroke-linecap="round"/><path d="M90.53291,55.3358c-20.26958,6.52128 -42.20492,16.32534 -71.12608,17.45876c-42.31314,1.65826 -45.49067,-22.43185 -79.49934,-21.49347c-34.00867,0.93838 -32.88639,19.22014 -71.10286,18.52361c-28.74259,-0.52384 -51.55291,-0.28146 -65.01867,-13.28432" data-paper-data="{&quot;origPos&quot;:null,&quot;origRot&quot;:0,&quot;index&quot;:null}" fill="none" stroke="#b49851" stroke-width="9" stroke-linecap="round"/><g><path d="M285.50001,246.04775c1.70866,1.03945 11.66666,4.33333 11.66666,6.33333c0,0.16666 1.66667,2.83333 1.5,2.83333c-3,0 -23.33333,1.33333 -26.33333,1.33333c-11.33333,0 -84.4403,1.70024 -90.10204,-0.72699c-0.02149,-0.0377 -0.04304,-0.07538 -0.06463,-0.11303c0,-2.66444 1.33333,-9.32664 10.33333,-10.99332c1.96657,-0.36418 86.66667,-2.51949 93,1.33333z" data-paper-data="{&quot;origPos&quot;:null}" fill="url(#color-1)" stroke="#aa8730" stroke-width="2" stroke-linecap="butt"/><path d="M214.44747,235.71579c4.19978,0.05139 37.22779,-0.44301 41.40387,0.00546c12.52824,1.34539 38.7529,11.78122 22.17881,12.2688c-16.20207,0.96075 -49.15966,2.36744 -65.28458,2.09528c-12.44937,-0.21175 -8.40678,0.92316 -20.04556,-3.36097c-11.63878,-4.28414 17.54769,-11.05996 21.74746,-11.00856z" data-paper-data="{&quot;origPos&quot;:null}" fill="url(#color-2)" stroke="#65a96e" stroke-width="2" stroke-linecap="round"/><path d="M237.20552,95.81918l-0.7798,-12.64935l1.5988,-13.68638l4.65556,-9.16112l9.45634,-8.19782l6.50124,-5.636l13.68061,-5.70973l11.34558,-1.63538l9.58703,0.91415l12.65831,6.45184l-10.14901,1.6231l-13.69513,4.69729l-10.68194,6.18523l-7.09226,6.14836l-8.86531,7.68547l-11.17132,13.78468z" data-paper-data="{&quot;origPos&quot;:null,&quot;origRot&quot;:0,&quot;index&quot;:null}" fill="url(#color-3)" stroke="#335e2d" stroke-width="2" stroke-linecap="round"/><path d="M211.057,98.79617c2.52118,-4.48701 7.94073,-5.92218 12.10492,-3.20555c4.16418,2.71663 5.49611,8.55634 2.97493,13.04335c-2.52118,4.48701 -7.94073,5.92218 -12.10492,3.20555c-4.16418,-2.71663 -5.4961,-8.55633 -2.97492,-13.04335z" data-paper-data="{&quot;origPos&quot;:null,&quot;origRot&quot;:0}" fill="#795d34" stroke="#573b00" stroke-width="2" stroke-linecap="butt"/><path d="M219.5136,120.5826c0,-5.24531 3.94624,-9.49748 8.81418,-9.49748c4.86794,0 8.81418,4.25217 8.81418,9.49748c0,5.24531 -3.94624,9.49749 -8.81418,9.49749c-4.86794,0 -8.81418,-4.25218 -8.81418,-9.49749z" data-paper-data="{&quot;origPos&quot;:null}" fill="#795d34" stroke="#573b00" stroke-width="2" stroke-linecap="butt"/><path d="M223.123,96.40283l-19.74705,-0.55715l-12.55735,1.98983l-10.04588,1.59187l-12.18801,4.696l-12.53272,8.43688l-7.50979,7.64096l1.25574,-15.86558l4.75209,-9.0471l8.22383,-8.67566l13.493,-7.66748l9.20873,-1.45921l13.39451,-2.12249l11.49859,2.78576l14.03469,8.83485l11.64633,10.13487z" data-paper-data="{&quot;origPos&quot;:null,&quot;origRot&quot;:0}" fill="url(#color-4)" stroke="#335e2d" stroke-width="2" stroke-linecap="round"/><path d="M247.01382,104.62682c0,-5.24532 3.94624,-9.49748 8.81418,-9.49748c4.86794,0 8.81418,4.25217 8.81418,9.49748c0,5.24531 -3.94624,9.49749 -8.81418,9.49749c-4.86794,0 -8.81418,-4.25218 -8.81418,-9.49749z" data-paper-data="{&quot;origPos&quot;:null}" fill="#795d34" stroke="#573b00" stroke-width="2" stroke-linecap="butt"/><path d="M242.78301,84.56814c0,-5.24532 3.94624,-9.49748 8.81418,-9.49748c4.86794,0 8.81418,4.25217 8.81418,9.49748c0,5.24532 -3.94624,9.49749 -8.81418,9.49749c-4.86794,0 -8.81418,-4.25218 -8.81418,-9.49749z" data-paper-data="{&quot;origPos&quot;:null}" fill="#795d34" stroke="#573b00" stroke-width="2" stroke-linecap="butt"/><path d="M239.08137,97.11917l11.64633,-10.13487l14.03469,-8.83485l11.49859,-2.78576l13.39451,2.12249l9.20872,1.45921l13.493,7.66748l8.22383,8.67566l4.75209,9.0471l-24.97479,-5.90826l-28.60323,-2.5817l-19.74704,0.55715z" data-paper-data="{&quot;origPos&quot;:null,&quot;origRot&quot;:0,&quot;index&quot;:null}" fill="url(#color-5)" stroke="#335e2d" stroke-width="2" stroke-linecap="round"/><g data-paper-data="{&quot;origPos&quot;:null}" stroke="#5c482a"><path d="M234.44961,173.54057c2.42888,-27.66735 3.38464,-71.11716 3.38464,-71.11716c0,0 7.22548,25.23063 9.30777,44.67617c2.08229,19.44554 0.99307,34.47503 0.84616,50.14672c-0.14691,15.67169 -1.69232,40.11737 -1.69232,40.11737h-20.30785c0,0 6.03273,-36.15575 8.46161,-63.82309z" data-paper-data="{&quot;origPos&quot;:null}" fill="url(#color-6)" stroke-width="2" stroke-linecap="round"/><path d="M251.15223,100.20821c1.57611,11.35867 -8.83568,21.59495 -6.93559,30.20005c0.56285,2.54903 -6.86921,2.56377 -7.52189,0.03974c-3.07495,-11.89154 -10.49704,-15.15332 -11.99898,-25.97748c-1.50194,-10.82417 3.20296,-20.55303 10.50871,-21.73003c7.30575,-1.177 14.4458,6.64356 15.94774,17.46772z" data-paper-data="{&quot;origPos&quot;:null,&quot;origRot&quot;:0}" fill="url(#color-7)" stroke-width="2" stroke-linecap="butt"/><path d="M238.17003,135.67832l-0.86455,-6.31395l5.85969,-0.93157l0.86455,6.31395z" data-paper-data="{&quot;origPos&quot;:null,&quot;origRot&quot;:0}" fill="url(#color-8)" stroke-width="0" stroke-linecap="butt"/></g><path d="M241.51377,117.39144c0,-5.24531 3.94624,-9.49748 8.81418,-9.49748c4.86794,0 8.81418,4.25217 8.81418,9.49748c0,5.24531 -3.94624,9.49749 -8.81418,9.49749c-4.86794,0 -8.81418,-4.25218 -8.81418,-9.49749z" data-paper-data="{&quot;origPos&quot;:null}" fill="#795d34" stroke="#573b00" stroke-width="2" stroke-linecap="butt"/><path d="M224.3085,111.31305c0,-5.24532 3.94624,-9.49748 8.81417,-9.49748c4.86794,0 8.81418,4.25217 8.81418,9.49748c0,5.24531 -3.94624,9.49749 -8.81418,9.49749c-4.86794,0 -8.81417,-4.25218 -8.81417,-9.49749z" data-paper-data="{&quot;origPos&quot;:null}" fill="#795d34" stroke="#573b00" stroke-width="2" stroke-linecap="butt"/><path d="M234.88551,99.15627c0,-5.24532 3.94624,-9.49748 8.81417,-9.49748c4.86794,0 8.81418,4.25217 8.81418,9.49748c0,5.24532 -3.94624,9.49749 -8.81418,9.49749c-4.86794,0 -8.81417,-4.25218 -8.81417,-9.49749z" data-paper-data="{&quot;origPos&quot;:null}" fill="#795d34" stroke="#573b00" stroke-width="2" stroke-linecap="butt"/><path d="M232.62909,126.50903c0,-5.24531 3.94624,-9.49748 8.81418,-9.49748c4.86794,0 8.81418,4.25217 8.81418,9.49748c0,5.24531 -3.94624,9.49749 -8.81418,9.49749c-4.86794,0 -8.81418,-4.25218 -8.81418,-9.49749z" data-paper-data="{&quot;origPos&quot;:null}" fill="#795d34" stroke="#573b00" stroke-width="2" stroke-linecap="butt"/></g><path d="M32.8965,253.66274c15.88934,-0.14273 31.79423,-0.94632 47.70551,-1.47239c0.1929,0.15296 8.01847,2.50119 9.0094,2.75951c1.74075,0.45378 6.46018,8.76666 6.46018,8.76666l1.17908,18.5104c0,0 -39.52049,22.19049 -61.2889,22.58927c-29.04237,0.52794 -53.58084,-26.12589 -82.76217,-27.98962c-30.88766,-0.97867 -59.78392,20.19306 -90.58984,19.78673c-24.92265,-0.33298 -49.51937,-9.6931 -71.86924,-19.78673c-0.30121,-0.13651 -0.64355,-0.2904 -1.02175,-0.46013c0,-4.23606 0.10066,-9.48667 3.40621,-15.43499c3.30554,-5.94832 7.84473,-2.29845 7.84473,-4.8111c80.78866,-5.76699 151.08588,-1.39223 231.92682,-2.4576z" data-paper-data="{&quot;index&quot;:null}" fill="#8fe3a6" stroke="#65a96e" stroke-width="2" stroke-linecap="butt"/><path d="M92.12815,-44.87584c-20.33397,6.52085 -42.32602,16.39523 -71.35709,17.53296c-42.31314,1.65827 -45.49067,-22.43184 -79.49934,-21.49346c-34.00867,0.93838 -32.88639,19.22014 -71.10286,18.52362c-28.74259,-0.52384 -51.55291,-0.28145 -65.01867,-13.28431" data-paper-data="{&quot;origRot&quot;:0,&quot;index&quot;:null}" fill="none" stroke="#bba15f" stroke-width="9" stroke-linecap="round"/><path d="M91.89714,-13.28849c-20.26958,6.52128 -42.20492,16.32534 -71.12608,17.45876c-42.31314,1.65826 -45.49067,-22.43185 -79.49934,-21.49347c-34.00867,0.93838 -32.88639,19.22014 -71.10286,18.52361c-28.74259,-0.52384 -51.55291,-0.28146 -65.01867,-13.28432" data-paper-data="{&quot;origRot&quot;:0,&quot;index&quot;:null}" fill="none" stroke="#b49851" stroke-width="9" stroke-linecap="round"/><path d="M93.26137,-84.6396c-20.26958,6.52128 -42.20492,16.32534 -71.12608,17.45876c-42.31314,1.65826 -45.49067,-22.43185 -79.49934,-21.49347c-34.00867,0.93838 -32.88639,19.22014 -71.10286,18.52361c-28.74259,-0.52384 -51.55291,-0.28146 -65.01867,-13.28432" data-paper-data="{&quot;origRot&quot;:0,&quot;index&quot;:null}" fill="none" stroke="#b49851" stroke-width="9" stroke-linecap="round"/></g></g></svg>