<svg version="1.1" xmlns="http://www.w3.org/2000/svg" xmlns:xlink="http://www.w3.org/1999/xlink" width="212" height="158" viewBox="0,0,212,158"><defs><linearGradient x1="241.35655" y1="167.8762" x2="241.35655" y2="192.2262" gradientUnits="userSpaceOnUse" id="color-1"><stop offset="0" stop-color="#be8202"/><stop offset="1" stop-color="#9b6002"/></linearGradient><linearGradient x1="238.64352" y1="167.7738" x2="238.64352" y2="192.1238" gradientUnits="userSpaceOnUse" id="color-2"><stop offset="0" stop-color="#ffff00"/><stop offset="1" stop-color="#ffc700"/></linearGradient><linearGradient x1="238.6781" y1="170.4572" x2="238.6781" y2="188.8758" gradientUnits="userSpaceOnUse" id="color-3"><stop offset="0" stop-color="#df9902"/><stop offset="1" stop-color="#be7602"/></linearGradient></defs><g transform="translate(-134,-101)"><g data-paper-data="{&quot;isPaintingLayer&quot;:true}" fill-rule="nonzero" stroke-linecap="butt" stroke-linejoin="miter" stroke-miterlimit="10" stroke-dasharray="" stroke-dashoffset="0" style="mix-blend-mode: normal"><path d="M134,259v-158h212v158z" fill="none" stroke="#000000" stroke-width="0"/><path d="M241.35655,167.8762c2.7728,0 5.2851,1.3645 7.1044,3.5685c1.8193,2.2039 2.9456,5.2474 2.9456,8.6065c0,3.359 -1.1263,6.4026 -2.9456,8.6065c-1.8193,2.204 -4.3316,3.5685 -7.1044,3.5685c-2.7728,0 -5.2851,-1.3645 -7.1044,-3.5685c-1.8193,-2.2039 -2.9456,-5.2475 -2.9456,-8.6065c0,-3.3591 1.1263,-6.4026 2.9456,-8.6065c1.8193,-2.204 4.3316,-3.5685 7.1044,-3.5685z" data-paper-data="{&quot;origPos&quot;:null}" fill="url(#color-1)" stroke="none" stroke-width="0.44036"/><path d="M238.64352,167.7738c2.7728,0 5.2851,1.3645 7.1044,3.5685c1.8193,2.2039 2.9456,5.2474 2.9456,8.6065c0,3.359 -1.1263,6.4026 -2.9456,8.6065c-1.8193,2.204 -4.3316,3.5685 -7.1044,3.5685c-2.7728,0 -5.2851,-1.3645 -7.1044,-3.5685c-1.8193,-2.2039 -2.9456,-5.2475 -2.9456,-8.6065c0,-3.3591 1.1263,-6.4026 2.9456,-8.6065c1.8193,-2.204 4.3316,-3.5685 7.1044,-3.5685z" data-paper-data="{&quot;origPos&quot;:null}" fill="url(#color-2)" stroke="none" stroke-width="0.44036"/><path d="M236.93599,170.4572h3.48422v18.4186h-3.48422z" data-paper-data="{&quot;origPos&quot;:null}" fill="url(#color-3)" stroke="none" stroke-width="0.59798"/></g></g></svg>