<svg version="1.1" xmlns="http://www.w3.org/2000/svg" xmlns:xlink="http://www.w3.org/1999/xlink" width="109.94809" height="103.23369" viewBox="0,0,109.94809,103.23369"><defs><radialGradient cx="241.10465" cy="179.99995" r="66.3464" gradientUnits="userSpaceOnUse" id="color-1"><stop offset="0" stop-color="#6fc9ff" stop-opacity="0"/><stop offset="1" stop-color="#6fc9ff"/></radialGradient><linearGradient x1="291.61685" y1="131.74035" x2="291.61685" y2="228.25965" gradientUnits="userSpaceOnUse" id="color-2"><stop offset="0" stop-color="#6fc9ff"/><stop offset="1" stop-color="#4395ff"/></linearGradient></defs><g transform="translate(-185.02596,-128.38315)"><g data-paper-data="{&quot;isPaintingLayer&quot;:true}" fill-rule="nonzero" stroke-linejoin="miter" stroke-miterlimit="10" stroke-dasharray="" stroke-dashoffset="0" style="mix-blend-mode: normal"><g stroke="none"><g fill="#ffdb26" stroke-width="0.83998" stroke-linecap="butt"><path d="M219.09556,183.02526c1.49336,1.52699 2.19691,3.25035 1.75603,4.80905c-0.44088,1.55871 -1.943,2.65803 -4.01496,3.17638c-2.07212,0.51851 -4.71355,0.45491 -7.42978,-0.31336c-2.71637,-0.76843 -4.99969,-2.09808 -6.4929,-3.62524c-1.49336,-1.52699 -2.19691,-3.25035 -1.75603,-4.80905c0.44088,-1.55871 1.943,-2.65803 4.01496,-3.17638c2.07196,-0.51851 4.71357,-0.45491 7.4298,0.31353c2.71623,0.76843 4.99968,2.09808 6.49288,3.62507z"/><path d="M214.8184,188.3289c1.83668,1.09025 2.96089,2.57371 2.93683,4.19347c-0.02391,1.61959 -1.19179,3.06913 -3.05988,4.10438c-1.86825,1.03542 -4.43671,1.65529 -7.25924,1.61337c-2.82252,-0.04176 -5.37157,-0.73768 -7.20825,-1.82791c-1.83668,-1.09025 -2.96088,-2.57372 -2.93681,-4.19333c0.02391,-1.61976 1.19163,-3.06928 3.05988,-4.10453c1.86809,-1.03542 4.43671,-1.6553 7.25924,-1.61338c2.82252,0.04192 5.37154,0.73768 7.20824,1.82791z"/><path d="M213.63874,205.04304c-2.71623,0.76843 -5.35785,0.83204 -7.4298,0.31353c-2.07196,-0.51851 -3.57407,-1.61785 -4.01495,-3.17638c-0.44088,-1.55871 0.26267,-3.28206 1.75603,-4.80905c1.49319,-1.52716 3.7765,-2.8568 6.49288,-3.62523c2.71623,-0.76843 5.35768,-0.8319 7.4298,-0.31355c2.07196,0.51851 3.57408,1.61785 4.01496,3.17655c0.44088,1.55871 -0.26267,3.28192 -1.75603,4.80905c-1.49319,1.52699 -3.77667,2.85663 -6.4929,3.62507z"/></g><path d="M264.53104,163.23798l-42.25192,6.30305c0,0 1.04873,-13.48647 9.75529,-21.38541c8.92319,-8.09545 15.73604,-7.07047 15.73604,-7.07047c0,0 -0.96022,1.76816 -0.44537,5.8785c0.49784,3.97456 1.54079,4.99924 1.54079,4.99924c0,0 -0.34602,-2.4527 0.74697,-6.33671c0.9837,-3.49567 2.76491,-5.15069 2.76491,-5.15069c0,0 1.6331,-0.28864 3.69067,-0.14099c2.35211,0.1688 4.02405,1.38018 4.02405,1.38018c0,0 -1.67387,1.58963 -2.60174,5.00242c-0.79649,2.92958 -0.51034,5.45291 -0.51034,5.45291c0,0 1.00382,-2.03428 2.4898,-5.33795c1.91048,-4.24744 3.7555,-5.2342 3.7555,-5.2342c0,0 2.67006,0.34754 5.20844,1.11303c2.81118,0.84774 4.83726,2.70749 4.83726,2.70749c0,0 -3.68386,1.17145 -7.00477,8.07692c-3.49577,7.26908 -1.73558,9.7427 -1.73558,9.7427z" fill="#ffdb26" stroke-width="0.88955" stroke-linecap="round"/><g stroke-linecap="butt"><path d="M270.46674,164.744c6.10954,5.84386 9.89196,13.91517 9.89196,22.822c0,8.90683 -3.78242,16.97814 -9.89196,22.822c-6.10954,5.84386 -14.54782,9.01107 -23.85958,9.01107c-9.31176,0 -17.75003,-3.16721 -23.85957,-9.01107c-6.10954,-5.84386 -9.89196,-13.91519 -9.89196,-22.822c0,-8.90683 3.78241,-16.97812 9.89196,-22.822c6.10954,-5.84386 14.54781,-9.46178 23.85957,-9.46178c9.31176,0 17.75004,3.61791 23.85958,9.46178z" fill="#ff1919" stroke-width="1"/><path d="M249.07606,204.29555c18.70033,-2.93178 25.75785,0.27398 25.75785,0.27398c0,0 -2.71483,11.31394 -20.17435,14.36018c-20.08809,3.50487 -29.01106,-5.97077 -29.01106,-5.97077c0,0 4.74601,-5.73457 23.42756,-8.66339z" fill="#ffffff" stroke-width="0"/></g><path d="M280.19542,164.9135c1.83642,2.60774 3.17489,6.35643 3.57719,10.62164c0.40229,4.2652 -0.2068,8.2492 -1.51546,11.2369c-1.30849,2.98955 -3.31767,4.98483 -5.71404,5.27435c-2.39636,0.28952 -4.73229,-1.18081 -6.5689,-3.79037c-1.83658,-2.60773 -3.17504,-6.35641 -3.57734,-10.6216c-0.40229,-4.2652 0.20679,-8.24918 1.51559,-11.23693c1.30849,-2.98955 3.31755,-4.98483 5.71391,-5.27435c2.39636,-0.28952 4.73244,1.18078 6.56904,3.79034z" fill="#ffffff" stroke-width="0.9259" stroke-linecap="butt"/><path d="M267.77503,165.31222c2.07842,2.60774 3.59324,6.35643 4.04855,10.62164c0.45531,4.26522 -0.23405,8.24919 -1.71516,11.23689c-1.48091,2.98955 -3.75484,4.98484 -6.46698,5.27436c-2.71214,0.28952 -5.35588,-1.18081 -7.4345,-3.79037c-2.07859,-2.60773 -3.59341,-6.35641 -4.04872,-10.6216c-0.45531,-4.2652 0.23405,-8.24918 1.71531,-11.23693c1.48091,-2.98955 3.75468,-4.98484 6.46683,-5.27436c2.71214,-0.28952 5.35604,1.18079 7.43465,3.79037z" fill="#ffffff" stroke-width="0.9259" stroke-linecap="butt"/><path d="M280.03495,189.11823c1.6521,1.94779 2.67414,4.63834 2.67414,7.60624c0,2.96791 -1.02204,5.65846 -2.67414,7.60625c-1.6521,1.94779 -3.93413,3.15279 -6.45111,3.15279c-2.51698,0 -4.79919,-1.205 -6.45129,-3.15279c-1.65194,-1.94779 -2.67397,-4.63836 -2.67397,-7.60625c0,-2.96791 1.02203,-5.65845 2.67397,-7.60624c1.6521,-1.94779 3.93431,-3.1528 6.45129,-3.1528c2.51698,0 4.79901,1.20501 6.45111,3.1528z" fill="#ffadbc" stroke-width="0.99783" stroke-linecap="round"/><path d="M278.33821,195.59431c0.1521,0.7863 0.05812,1.73595 -0.31935,2.66062c-0.37747,0.92451 -0.96811,1.65197 -1.61596,2.08043c-0.64851,0.42681 -1.35467,0.55575 -1.96506,0.28266c-0.61055,-0.27291 -1.00955,-0.89643 -1.16302,-1.68196c-0.1521,-0.7863 -0.05811,-1.73595 0.31938,-2.66046c0.37749,-0.92467 0.96811,-1.65213 1.61609,-2.08043c0.64838,-0.42695 1.35452,-0.5559 1.96507,-0.28282c0.61041,0.2731 1.0094,0.89643 1.16287,1.68196z" fill="#6d3f57" stroke-width="0.73984" stroke-linecap="butt"/><g fill="#000000" stroke-width="0" stroke-linecap="butt"><path d="M278.22216,179.00666c0,2.58327 -1.26925,4.67748 -2.83495,4.67748c-1.5657,0 -2.83492,-2.09419 -2.83492,-4.67748c0,-2.58327 1.26923,-4.67746 2.83492,-4.67746c1.56568,0 2.83495,2.09418 2.83495,4.67746z" data-paper-data="{&quot;index&quot;:null}"/></g><path d="M239.94943,192.42164c-4.23508,6.3865 -6.82363,7.16122 -21.17141,4.02656c-9.77182,-2.85784 -18.57358,-8.56177 -17.81744,-12.52711c0.60455,-3.17039 11.3635,-2.3569 11.3635,-2.3569c0,0 -17.00937,-7.15501 -15.39542,-10.36122c1.65204,-3.28184 10.95867,-3.16999 10.95867,-3.16999c0,0 -13.33777,-6.60469 -11.63179,-9.35954c1.91921,-3.09917 10.38677,-2.43906 22.16218,2.2165c9.7978,3.87369 26.82611,16.1358 21.53172,31.53171z" fill="#ffffff" stroke-width="0.5" stroke-linecap="butt"/><g fill="#000000" stroke-width="0" stroke-linecap="butt"><path d="M269.42684,179.6349c0,2.58327 -1.26923,4.67748 -2.83494,4.67748c-1.5657,0 -2.83494,-2.09419 -2.83494,-4.67748c0,-2.58327 1.26924,-4.67746 2.83494,-4.67746c1.56568,0 2.83494,2.09418 2.83494,4.67746z" data-paper-data="{&quot;index&quot;:null}"/></g></g><path d="M291.61685,228.25965h-103.2337v-96.5193h103.2337z" data-paper-data="{&quot;origPos&quot;:null,&quot;index&quot;:null}" fill="url(#color-1)" stroke="url(#color-2)" stroke-width="6.71439" stroke-linecap="round"/></g></g></svg>