<svg version="1.1" xmlns="http://www.w3.org/2000/svg" xmlns:xlink="http://www.w3.org/1999/xlink" width="51.14218" height="34.08536" viewBox="0,0,51.14218,34.08536"><defs><linearGradient x1="228.33288" y1="172.68594" x2="228.33288" y2="182.61769" gradientUnits="userSpaceOnUse" id="color-1"><stop offset="0" stop-color="#cb903d"/><stop offset="1" stop-color="#b47a2a"/></linearGradient><linearGradient x1="228.33288" y1="158.23232" x2="228.33288" y2="172.42769" gradientUnits="userSpaceOnUse" id="color-2"><stop offset="0" stop-color="#cb903d"/><stop offset="1" stop-color="#b47a2a"/></linearGradient><linearGradient x1="243.58208" y1="163.45732" x2="243.58208" y2="180.24462" gradientUnits="userSpaceOnUse" id="color-3"><stop offset="0" stop-color="#cb903d"/><stop offset="1" stop-color="#b47a2a"/></linearGradient><linearGradient x1="243.53813" y1="172.68594" x2="243.53813" y2="182.61769" gradientUnits="userSpaceOnUse" id="color-4"><stop offset="0" stop-color="#cb903d"/><stop offset="1" stop-color="#b47a2a"/></linearGradient><radialGradient cx="243.04707" cy="188.84608" r="7.77062" gradientUnits="userSpaceOnUse" id="color-5"><stop offset="0" stop-color="#ffff00"/><stop offset="1" stop-color="#ff9400"/></radialGradient><radialGradient cx="244.53536" cy="189.32154" r="5.31826" gradientUnits="userSpaceOnUse" id="color-6"><stop offset="0" stop-color="#bda501"/><stop offset="1" stop-color="#c07801"/></radialGradient><radialGradient cx="247.68175" cy="190.04337" r="7.77062" gradientUnits="userSpaceOnUse" id="color-7"><stop offset="0" stop-color="#ffff00"/><stop offset="1" stop-color="#ff9400"/></radialGradient><radialGradient cx="249.16998" cy="190.51888" r="5.31826" gradientUnits="userSpaceOnUse" id="color-8"><stop offset="0" stop-color="#bda501"/><stop offset="1" stop-color="#c07801"/></radialGradient><radialGradient cx="249.03354" cy="184.6556" r="7.77062" gradientUnits="userSpaceOnUse" id="color-9"><stop offset="0" stop-color="#ffff00"/><stop offset="1" stop-color="#ff9400"/></radialGradient><radialGradient cx="250.52177" cy="185.13106" r="5.31826" gradientUnits="userSpaceOnUse" id="color-10"><stop offset="0" stop-color="#bda501"/><stop offset="1" stop-color="#c07801"/></radialGradient><radialGradient cx="253.3978" cy="186.29701" r="7.77062" gradientUnits="userSpaceOnUse" id="color-11"><stop offset="0" stop-color="#ffff00"/><stop offset="1" stop-color="#ff9400"/></radialGradient><radialGradient cx="254.86676" cy="186.77253" r="5.31826" gradientUnits="userSpaceOnUse" id="color-12"><stop offset="0" stop-color="#bda501"/><stop offset="1" stop-color="#c07801"/></radialGradient><radialGradient cx="255.19372" cy="188.84608" r="7.77062" gradientUnits="userSpaceOnUse" id="color-13"><stop offset="0" stop-color="#ffff00"/><stop offset="1" stop-color="#ff9400"/></radialGradient><radialGradient cx="256.68201" cy="189.32154" r="5.31826" gradientUnits="userSpaceOnUse" id="color-14"><stop offset="0" stop-color="#bda501"/><stop offset="1" stop-color="#c07801"/></radialGradient><radialGradient cx="257.43384" cy="184.26936" r="7.77062" gradientUnits="userSpaceOnUse" id="color-15"><stop offset="0" stop-color="#ffff00"/><stop offset="1" stop-color="#ff9400"/></radialGradient><radialGradient cx="258.92207" cy="184.74482" r="5.31826" gradientUnits="userSpaceOnUse" id="color-16"><stop offset="0" stop-color="#bda501"/><stop offset="1" stop-color="#c07801"/></radialGradient><radialGradient cx="245.88583" cy="186.3743" r="7.77062" gradientUnits="userSpaceOnUse" id="color-17"><stop offset="0" stop-color="#ffff00"/><stop offset="1" stop-color="#ff9400"/></radialGradient><radialGradient cx="247.37406" cy="186.84976" r="5.31826" gradientUnits="userSpaceOnUse" id="color-18"><stop offset="0" stop-color="#bda501"/><stop offset="1" stop-color="#c07801"/></radialGradient><radialGradient cx="245.59614" cy="182.24171" r="7.77062" gradientUnits="userSpaceOnUse" id="color-19"><stop offset="0" stop-color="#ffff00"/><stop offset="1" stop-color="#ff9400"/></radialGradient><radialGradient cx="247.08437" cy="182.71717" r="5.31826" gradientUnits="userSpaceOnUse" id="color-20"><stop offset="0" stop-color="#bda501"/><stop offset="1" stop-color="#c07801"/></radialGradient><radialGradient cx="250.23082" cy="183.45831" r="7.77062" gradientUnits="userSpaceOnUse" id="color-21"><stop offset="0" stop-color="#ffff00"/><stop offset="1" stop-color="#ff9400"/></radialGradient><radialGradient cx="251.71905" cy="183.91445" r="5.31826" gradientUnits="userSpaceOnUse" id="color-22"><stop offset="0" stop-color="#bda501"/><stop offset="1" stop-color="#c07801"/></radialGradient><radialGradient cx="251.58255" cy="178.05122" r="7.77062" gradientUnits="userSpaceOnUse" id="color-23"><stop offset="0" stop-color="#ffff00"/><stop offset="1" stop-color="#ff9400"/></radialGradient><radialGradient cx="253.07084" cy="178.50736" r="5.31826" gradientUnits="userSpaceOnUse" id="color-24"><stop offset="0" stop-color="#bda501"/><stop offset="1" stop-color="#c07801"/></radialGradient><radialGradient cx="255.94687" cy="179.69264" r="7.77062" gradientUnits="userSpaceOnUse" id="color-25"><stop offset="0" stop-color="#ffff00"/><stop offset="1" stop-color="#ff9400"/></radialGradient><radialGradient cx="257.41583" cy="180.1681" r="5.31826" gradientUnits="userSpaceOnUse" id="color-26"><stop offset="0" stop-color="#bda501"/><stop offset="1" stop-color="#c07801"/></radialGradient><radialGradient cx="257.74279" cy="182.24171" r="7.77062" gradientUnits="userSpaceOnUse" id="color-27"><stop offset="0" stop-color="#ffff00"/><stop offset="1" stop-color="#ff9400"/></radialGradient><radialGradient cx="259.23108" cy="182.71717" r="5.31826" gradientUnits="userSpaceOnUse" id="color-28"><stop offset="0" stop-color="#bda501"/><stop offset="1" stop-color="#c07801"/></radialGradient><radialGradient cx="248.4349" cy="179.76986" r="7.77062" gradientUnits="userSpaceOnUse" id="color-29"><stop offset="0" stop-color="#ffff00"/><stop offset="1" stop-color="#ff9400"/></radialGradient><radialGradient cx="249.92313" cy="180.24538" r="5.31826" gradientUnits="userSpaceOnUse" id="color-30"><stop offset="0" stop-color="#bda501"/><stop offset="1" stop-color="#c07801"/></radialGradient><radialGradient cx="242.29398" cy="187.12738" r="7.77062" gradientUnits="userSpaceOnUse" id="color-31"><stop offset="0" stop-color="#ffff00"/><stop offset="1" stop-color="#ff9400"/></radialGradient><radialGradient cx="243.78221" cy="187.6029" r="5.31826" gradientUnits="userSpaceOnUse" id="color-32"><stop offset="0" stop-color="#bda501"/><stop offset="1" stop-color="#c07801"/></radialGradient><radialGradient cx="246.94793" cy="188.32467" r="7.77062" gradientUnits="userSpaceOnUse" id="color-33"><stop offset="0" stop-color="#ffff00"/><stop offset="1" stop-color="#ff9400"/></radialGradient><radialGradient cx="248.41684" cy="188.80018" r="5.31826" gradientUnits="userSpaceOnUse" id="color-34"><stop offset="0" stop-color="#bda501"/><stop offset="1" stop-color="#c07801"/></radialGradient><radialGradient cx="248.29971" cy="182.91757" r="7.77062" gradientUnits="userSpaceOnUse" id="color-35"><stop offset="0" stop-color="#ffff00"/><stop offset="1" stop-color="#ff9400"/></radialGradient><radialGradient cx="249.76862" cy="183.39309" r="5.31826" gradientUnits="userSpaceOnUse" id="color-36"><stop offset="0" stop-color="#bda501"/><stop offset="1" stop-color="#c07801"/></radialGradient><radialGradient cx="252.64471" cy="184.57831" r="7.77062" gradientUnits="userSpaceOnUse" id="color-37"><stop offset="0" stop-color="#ffff00"/><stop offset="1" stop-color="#ff9400"/></radialGradient><radialGradient cx="254.13294" cy="185.05383" r="5.31826" gradientUnits="userSpaceOnUse" id="color-38"><stop offset="0" stop-color="#bda501"/><stop offset="1" stop-color="#c07801"/></radialGradient><radialGradient cx="254.44063" cy="187.12738" r="7.77062" gradientUnits="userSpaceOnUse" id="color-39"><stop offset="0" stop-color="#ffff00"/><stop offset="1" stop-color="#ff9400"/></radialGradient><radialGradient cx="255.92886" cy="187.6029" r="5.31826" gradientUnits="userSpaceOnUse" id="color-40"><stop offset="0" stop-color="#bda501"/><stop offset="1" stop-color="#c07801"/></radialGradient><radialGradient cx="259.98291" cy="185.17696" r="7.77062" gradientUnits="userSpaceOnUse" id="color-41"><stop offset="0" stop-color="#ffff00"/><stop offset="1" stop-color="#ff9400"/></radialGradient><radialGradient cx="261.47114" cy="185.65247" r="5.31826" gradientUnits="userSpaceOnUse" id="color-42"><stop offset="0" stop-color="#bda501"/><stop offset="1" stop-color="#c07801"/></radialGradient><radialGradient cx="256.68069" cy="182.55066" r="7.77062" gradientUnits="userSpaceOnUse" id="color-43"><stop offset="0" stop-color="#ffff00"/><stop offset="1" stop-color="#ff9400"/></radialGradient><radialGradient cx="258.16892" cy="183.00686" r="5.31826" gradientUnits="userSpaceOnUse" id="color-44"><stop offset="0" stop-color="#bda501"/><stop offset="1" stop-color="#c07801"/></radialGradient><radialGradient cx="245.13268" cy="184.6556" r="7.77062" gradientUnits="userSpaceOnUse" id="color-45"><stop offset="0" stop-color="#ffff00"/><stop offset="1" stop-color="#ff9400"/></radialGradient><radialGradient cx="246.62091" cy="185.13106" r="5.31826" gradientUnits="userSpaceOnUse" id="color-46"><stop offset="0" stop-color="#bda501"/><stop offset="1" stop-color="#c07801"/></radialGradient><radialGradient cx="216.89584" cy="188.46042" r="7.77062" gradientUnits="userSpaceOnUse" id="color-47"><stop offset="0" stop-color="#ffff00"/><stop offset="1" stop-color="#ff9400"/></radialGradient><radialGradient cx="218.38407" cy="188.93588" r="5.31826" gradientUnits="userSpaceOnUse" id="color-48"><stop offset="0" stop-color="#bda501"/><stop offset="1" stop-color="#c07801"/></radialGradient><radialGradient cx="221.53053" cy="189.65771" r="7.77062" gradientUnits="userSpaceOnUse" id="color-49"><stop offset="0" stop-color="#ffff00"/><stop offset="1" stop-color="#ff9400"/></radialGradient><radialGradient cx="223.01876" cy="190.13317" r="5.31826" gradientUnits="userSpaceOnUse" id="color-50"><stop offset="0" stop-color="#bda501"/><stop offset="1" stop-color="#c07801"/></radialGradient><radialGradient cx="222.88226" cy="184.26993" r="7.77062" gradientUnits="userSpaceOnUse" id="color-51"><stop offset="0" stop-color="#ffff00"/><stop offset="1" stop-color="#ff9400"/></radialGradient><radialGradient cx="224.37054" cy="184.74539" r="5.31826" gradientUnits="userSpaceOnUse" id="color-52"><stop offset="0" stop-color="#bda501"/><stop offset="1" stop-color="#c07801"/></radialGradient><radialGradient cx="227.24657" cy="185.91135" r="7.77062" gradientUnits="userSpaceOnUse" id="color-53"><stop offset="0" stop-color="#ffff00"/><stop offset="1" stop-color="#ff9400"/></radialGradient><radialGradient cx="228.71554" cy="186.38681" r="5.31826" gradientUnits="userSpaceOnUse" id="color-54"><stop offset="0" stop-color="#bda501"/><stop offset="1" stop-color="#c07801"/></radialGradient><radialGradient cx="229.04249" cy="188.46042" r="7.77062" gradientUnits="userSpaceOnUse" id="color-55"><stop offset="0" stop-color="#ffff00"/><stop offset="1" stop-color="#ff9400"/></radialGradient><radialGradient cx="230.53078" cy="188.93588" r="5.31826" gradientUnits="userSpaceOnUse" id="color-56"><stop offset="0" stop-color="#bda501"/><stop offset="1" stop-color="#c07801"/></radialGradient><radialGradient cx="234.58477" cy="186.50999" r="7.77062" gradientUnits="userSpaceOnUse" id="color-57"><stop offset="0" stop-color="#ffff00"/><stop offset="1" stop-color="#ff9400"/></radialGradient><radialGradient cx="236.073" cy="186.98545" r="5.31826" gradientUnits="userSpaceOnUse" id="color-58"><stop offset="0" stop-color="#bda501"/><stop offset="1" stop-color="#c07801"/></radialGradient><radialGradient cx="239.23872" cy="183.8837" r="7.77062" gradientUnits="userSpaceOnUse" id="color-59"><stop offset="0" stop-color="#ffff00"/><stop offset="1" stop-color="#ff9400"/></radialGradient><radialGradient cx="240.70768" cy="184.35916" r="5.31826" gradientUnits="userSpaceOnUse" id="color-60"><stop offset="0" stop-color="#bda501"/><stop offset="1" stop-color="#c07801"/></radialGradient><radialGradient cx="238.77526" cy="187.41759" r="7.77062" gradientUnits="userSpaceOnUse" id="color-61"><stop offset="0" stop-color="#ffff00"/><stop offset="1" stop-color="#ff9400"/></radialGradient><radialGradient cx="240.26355" cy="187.89311" r="5.31826" gradientUnits="userSpaceOnUse" id="color-62"><stop offset="0" stop-color="#bda501"/><stop offset="1" stop-color="#c07801"/></radialGradient><radialGradient cx="235.78205" cy="190.5653" r="7.77062" gradientUnits="userSpaceOnUse" id="color-63"><stop offset="0" stop-color="#ffff00"/><stop offset="1" stop-color="#ff9400"/></radialGradient><radialGradient cx="237.27034" cy="191.04082" r="5.31826" gradientUnits="userSpaceOnUse" id="color-64"><stop offset="0" stop-color="#bda501"/><stop offset="1" stop-color="#c07801"/></radialGradient><radialGradient cx="231.28261" cy="183.8837" r="7.77062" gradientUnits="userSpaceOnUse" id="color-65"><stop offset="0" stop-color="#ffff00"/><stop offset="1" stop-color="#ff9400"/></radialGradient><radialGradient cx="232.77084" cy="184.35916" r="5.31826" gradientUnits="userSpaceOnUse" id="color-66"><stop offset="0" stop-color="#bda501"/><stop offset="1" stop-color="#c07801"/></radialGradient><radialGradient cx="219.73455" cy="185.98858" r="7.77062" gradientUnits="userSpaceOnUse" id="color-67"><stop offset="0" stop-color="#ffff00"/><stop offset="1" stop-color="#ff9400"/></radialGradient><radialGradient cx="221.22283" cy="186.46409" r="5.31826" gradientUnits="userSpaceOnUse" id="color-68"><stop offset="0" stop-color="#bda501"/><stop offset="1" stop-color="#c07801"/></radialGradient><radialGradient cx="219.44491" cy="181.85605" r="7.77062" gradientUnits="userSpaceOnUse" id="color-69"><stop offset="0" stop-color="#ffff00"/><stop offset="1" stop-color="#ff9400"/></radialGradient><radialGradient cx="220.93314" cy="182.33151" r="5.31826" gradientUnits="userSpaceOnUse" id="color-70"><stop offset="0" stop-color="#bda501"/><stop offset="1" stop-color="#c07801"/></radialGradient><radialGradient cx="224.07954" cy="183.07259" r="7.77062" gradientUnits="userSpaceOnUse" id="color-71"><stop offset="0" stop-color="#ffff00"/><stop offset="1" stop-color="#ff9400"/></radialGradient><radialGradient cx="225.56783" cy="183.52879" r="5.31826" gradientUnits="userSpaceOnUse" id="color-72"><stop offset="0" stop-color="#bda501"/><stop offset="1" stop-color="#c07801"/></radialGradient><radialGradient cx="225.43133" cy="177.6655" r="7.77062" gradientUnits="userSpaceOnUse" id="color-73"><stop offset="0" stop-color="#ffff00"/><stop offset="1" stop-color="#ff9400"/></radialGradient><radialGradient cx="226.91961" cy="178.1217" r="5.31826" gradientUnits="userSpaceOnUse" id="color-74"><stop offset="0" stop-color="#bda501"/><stop offset="1" stop-color="#c07801"/></radialGradient><radialGradient cx="229.79564" cy="179.30698" r="7.77062" gradientUnits="userSpaceOnUse" id="color-75"><stop offset="0" stop-color="#ffff00"/><stop offset="1" stop-color="#ff9400"/></radialGradient><radialGradient cx="231.26455" cy="179.78244" r="5.31826" gradientUnits="userSpaceOnUse" id="color-76"><stop offset="0" stop-color="#bda501"/><stop offset="1" stop-color="#c07801"/></radialGradient><radialGradient cx="231.59156" cy="181.85605" r="7.77062" gradientUnits="userSpaceOnUse" id="color-77"><stop offset="0" stop-color="#ffff00"/><stop offset="1" stop-color="#ff9400"/></radialGradient><radialGradient cx="233.07979" cy="182.33151" r="5.31826" gradientUnits="userSpaceOnUse" id="color-78"><stop offset="0" stop-color="#bda501"/><stop offset="1" stop-color="#c07801"/></radialGradient><radialGradient cx="237.13384" cy="179.92494" r="7.77062" gradientUnits="userSpaceOnUse" id="color-79"><stop offset="0" stop-color="#ffff00"/><stop offset="1" stop-color="#ff9400"/></radialGradient><radialGradient cx="238.62207" cy="180.38108" r="5.31826" gradientUnits="userSpaceOnUse" id="color-80"><stop offset="0" stop-color="#bda501"/><stop offset="1" stop-color="#c07801"/></radialGradient><radialGradient cx="241.78779" cy="177.29859" r="7.77062" gradientUnits="userSpaceOnUse" id="color-81"><stop offset="0" stop-color="#ffff00"/><stop offset="1" stop-color="#ff9400"/></radialGradient><radialGradient cx="243.25675" cy="177.75479" r="5.31826" gradientUnits="userSpaceOnUse" id="color-82"><stop offset="0" stop-color="#bda501"/><stop offset="1" stop-color="#c07801"/></radialGradient><radialGradient cx="241.32433" cy="180.81321" r="7.77062" gradientUnits="userSpaceOnUse" id="color-83"><stop offset="0" stop-color="#ffff00"/><stop offset="1" stop-color="#ff9400"/></radialGradient><radialGradient cx="242.81262" cy="181.26941" r="5.31826" gradientUnits="userSpaceOnUse" id="color-84"><stop offset="0" stop-color="#bda501"/><stop offset="1" stop-color="#c07801"/></radialGradient><radialGradient cx="238.33112" cy="183.96092" r="7.77062" gradientUnits="userSpaceOnUse" id="color-85"><stop offset="0" stop-color="#ffff00"/><stop offset="1" stop-color="#ff9400"/></radialGradient><radialGradient cx="239.81935" cy="184.43644" r="5.31826" gradientUnits="userSpaceOnUse" id="color-86"><stop offset="0" stop-color="#bda501"/><stop offset="1" stop-color="#c07801"/></radialGradient><radialGradient cx="233.83162" cy="177.29859" r="7.77062" gradientUnits="userSpaceOnUse" id="color-87"><stop offset="0" stop-color="#ffff00"/><stop offset="1" stop-color="#ff9400"/></radialGradient><radialGradient cx="235.31991" cy="177.75479" r="5.31826" gradientUnits="userSpaceOnUse" id="color-88"><stop offset="0" stop-color="#bda501"/><stop offset="1" stop-color="#c07801"/></radialGradient><radialGradient cx="222.28362" cy="179.3842" r="7.77062" gradientUnits="userSpaceOnUse" id="color-89"><stop offset="0" stop-color="#ffff00"/><stop offset="1" stop-color="#ff9400"/></radialGradient><radialGradient cx="223.7719" cy="179.85972" r="5.31826" gradientUnits="userSpaceOnUse" id="color-90"><stop offset="0" stop-color="#bda501"/><stop offset="1" stop-color="#c07801"/></radialGradient><radialGradient cx="216.1427" cy="186.74172" r="7.77062" gradientUnits="userSpaceOnUse" id="color-91"><stop offset="0" stop-color="#ffff00"/><stop offset="1" stop-color="#ff9400"/></radialGradient><radialGradient cx="217.63098" cy="187.21718" r="5.31826" gradientUnits="userSpaceOnUse" id="color-92"><stop offset="0" stop-color="#bda501"/><stop offset="1" stop-color="#c07801"/></radialGradient><radialGradient cx="220.7967" cy="187.93901" r="7.77062" gradientUnits="userSpaceOnUse" id="color-93"><stop offset="0" stop-color="#ffff00"/><stop offset="1" stop-color="#ff9400"/></radialGradient><radialGradient cx="222.26561" cy="188.41452" r="5.31826" gradientUnits="userSpaceOnUse" id="color-94"><stop offset="0" stop-color="#bda501"/><stop offset="1" stop-color="#c07801"/></radialGradient><radialGradient cx="222.14843" cy="182.53191" r="7.77062" gradientUnits="userSpaceOnUse" id="color-95"><stop offset="0" stop-color="#ffff00"/><stop offset="1" stop-color="#ff9400"/></radialGradient><radialGradient cx="223.6174" cy="183.00737" r="5.31826" gradientUnits="userSpaceOnUse" id="color-96"><stop offset="0" stop-color="#bda501"/><stop offset="1" stop-color="#c07801"/></radialGradient><radialGradient cx="226.49342" cy="184.19265" r="7.77062" gradientUnits="userSpaceOnUse" id="color-97"><stop offset="0" stop-color="#ffff00"/><stop offset="1" stop-color="#ff9400"/></radialGradient><radialGradient cx="227.98171" cy="184.66817" r="5.31826" gradientUnits="userSpaceOnUse" id="color-98"><stop offset="0" stop-color="#bda501"/><stop offset="1" stop-color="#c07801"/></radialGradient><radialGradient cx="228.28935" cy="186.74172" r="7.77062" gradientUnits="userSpaceOnUse" id="color-99"><stop offset="0" stop-color="#ffff00"/><stop offset="1" stop-color="#ff9400"/></radialGradient><radialGradient cx="229.77763" cy="187.21718" r="5.31826" gradientUnits="userSpaceOnUse" id="color-100"><stop offset="0" stop-color="#bda501"/><stop offset="1" stop-color="#c07801"/></radialGradient><radialGradient cx="233.83162" cy="184.79129" r="7.77062" gradientUnits="userSpaceOnUse" id="color-101"><stop offset="0" stop-color="#ffff00"/><stop offset="1" stop-color="#ff9400"/></radialGradient><radialGradient cx="235.31991" cy="185.26681" r="5.31826" gradientUnits="userSpaceOnUse" id="color-102"><stop offset="0" stop-color="#bda501"/><stop offset="1" stop-color="#c07801"/></radialGradient><radialGradient cx="238.48563" cy="182.165" r="7.77062" gradientUnits="userSpaceOnUse" id="color-103"><stop offset="0" stop-color="#ffff00"/><stop offset="1" stop-color="#ff9400"/></radialGradient><radialGradient cx="239.97386" cy="182.6212" r="5.31826" gradientUnits="userSpaceOnUse" id="color-104"><stop offset="0" stop-color="#bda501"/><stop offset="1" stop-color="#c07801"/></radialGradient><radialGradient cx="238.04143" cy="185.67962" r="7.77062" gradientUnits="userSpaceOnUse" id="color-105"><stop offset="0" stop-color="#ffff00"/><stop offset="1" stop-color="#ff9400"/></radialGradient><radialGradient cx="239.5104" cy="186.17441" r="5.31826" gradientUnits="userSpaceOnUse" id="color-106"><stop offset="0" stop-color="#bda501"/><stop offset="1" stop-color="#c07801"/></radialGradient><radialGradient cx="235.02891" cy="188.84666" r="7.77062" gradientUnits="userSpaceOnUse" id="color-107"><stop offset="0" stop-color="#ffff00"/><stop offset="1" stop-color="#ff9400"/></radialGradient><radialGradient cx="236.51719" cy="189.32212" r="5.31826" gradientUnits="userSpaceOnUse" id="color-108"><stop offset="0" stop-color="#bda501"/><stop offset="1" stop-color="#c07801"/></radialGradient><radialGradient cx="230.52947" cy="182.165" r="7.77062" gradientUnits="userSpaceOnUse" id="color-109"><stop offset="0" stop-color="#ffff00"/><stop offset="1" stop-color="#ff9400"/></radialGradient><radialGradient cx="232.0177" cy="182.6212" r="5.31826" gradientUnits="userSpaceOnUse" id="color-110"><stop offset="0" stop-color="#bda501"/><stop offset="1" stop-color="#c07801"/></radialGradient><radialGradient cx="218.98146" cy="184.26993" r="7.77062" gradientUnits="userSpaceOnUse" id="color-111"><stop offset="0" stop-color="#ffff00"/><stop offset="1" stop-color="#ff9400"/></radialGradient><radialGradient cx="220.46969" cy="184.74539" r="5.31826" gradientUnits="userSpaceOnUse" id="color-112"><stop offset="0" stop-color="#bda501"/><stop offset="1" stop-color="#c07801"/></radialGradient></defs><g transform="translate(-214.42891,-162.45732)"><g data-paper-data="{&quot;isPaintingLayer&quot;:true}" fill-rule="nonzero" stroke-linejoin="miter" stroke-miterlimit="10" stroke-dasharray="" stroke-dashoffset="0" style="mix-blend-mode: normal"><g><path d="M218.97242,182.61769v-9.93175h18.72091v9.93175z" fill="url(#color-1)" stroke="#996115" stroke-width="1" stroke-linecap="butt"/><path d="M219.14821,175.93844h18.36935" fill="none" stroke="#996115" stroke-width="1" stroke-linecap="round"/><path d="M219.14821,179.42327h18.36935" data-paper-data="{&quot;index&quot;:null}" fill="none" stroke="#996115" stroke-width="1" stroke-linecap="round"/><path d="M218.97242,172.42769c-0.17072,-8.80364 5.44928,-8.88248 5.44928,-8.88248h18.72091c0,0 -5.84347,0.24462 -5.44928,8.88248c0.00737,0.16141 -18.7194,0.07809 -18.72091,0z" fill="url(#color-2)" stroke="#996115" stroke-width="1" stroke-linecap="butt"/><path d="M220.29079,166.18247h18.36935" fill="none" stroke="#996115" stroke-width="1" stroke-linecap="round"/><path d="M219.32399,169.6673h18.36935" data-paper-data="{&quot;index&quot;:null}" fill="none" stroke="#996115" stroke-width="1" stroke-linecap="round"/><path d="M237.78123,171.85097c0,-4.63568 2.59712,-8.39365 5.80085,-8.39365c3.20372,0 5.80085,3.75796 5.80085,8.39365c0,4.63568 -2.59712,8.39365 -5.80085,8.39365c-3.20372,0 -5.80085,-3.75796 -5.80085,-8.39365z" fill="url(#color-3)" stroke="#996115" stroke-width="1" stroke-linecap="butt"/><path d="M237.78123,182.61769v-9.93175h11.5138v9.93175z" fill="url(#color-4)" stroke="#996115" stroke-width="1" stroke-linecap="butt"/><path d="M237.88934,175.93844h11.29758" fill="none" stroke="#996115" stroke-width="1" stroke-linecap="round"/><path d="M249.18692,179.42327h-11.29758" data-paper-data="{&quot;index&quot;:null}" fill="none" stroke="#996115" stroke-width="1" stroke-linecap="round"/><path d="M218.97242,182.61769v-9.93175h18.72091v9.93175z" fill="none" stroke="#ffce00" stroke-width="2" stroke-linecap="butt"/><path d="M218.97242,172.42769c-0.17072,-8.80364 5.44928,-8.88248 5.44928,-8.88248h18.72091c0,0 -5.84347,0.24462 -5.44928,8.88248c0.00737,0.1614 -18.7194,0.07809 -18.72091,0z" fill="none" stroke="#ffce00" stroke-width="2" stroke-linecap="butt"/><path d="M237.78123,171.85097c0,-4.63568 2.59712,-8.39365 5.80085,-8.39365c3.20372,0 5.80085,3.75796 5.80085,8.39365c0,1.13498 -2.87302,0.90225 -5.75965,0.91318c-2.91409,0.01103 -5.84205,0.02402 -5.84205,-0.91318z" fill="none" stroke="#ffce00" stroke-width="2" stroke-linecap="butt"/><path d="M237.78123,182.61769v-9.93175h11.5138v9.93175z" fill="none" stroke="#ffce00" stroke-width="2" stroke-linecap="butt"/><path d="M226.55674,176.76985v-4.2481h3.36918v4.2481z" fill="#ffce00" stroke="#ffce00" stroke-width="2" stroke-linecap="butt"/></g><g stroke="none" stroke-linecap="butt"><g><g><path d="M244.9843,187.52151c1.00728,0 1.91996,0.40915 2.58091,1.0701c0.66089,0.66089 1.0701,1.57357 1.0701,2.58091c0,1.00728 -0.40921,1.91996 -1.0701,2.58085c-0.66095,0.66095 -1.57363,1.0701 -2.58091,1.0701c-1.00728,0 -1.91996,-0.40915 -2.58091,-1.0701c-0.66089,-0.66089 -1.0701,-1.57357 -1.0701,-2.58085c0,-1.00734 0.40921,-1.92002 1.0701,-2.58091c0.66095,-0.66095 1.57363,-1.0701 2.58091,-1.0701z" fill="url(#color-5)" stroke-width="0.25197"/><path d="M244.2224,188.37154h1.44021v5.5233h-1.44021z" fill="url(#color-6)" stroke-width="0.31371"/></g><g><path d="M249.61898,188.71879c1.00728,0 1.91996,0.40915 2.58085,1.0701c0.66095,0.66089 1.0701,1.57357 1.0701,2.58091c0,1.00728 -0.40915,1.91996 -1.0701,2.58085c-0.66089,0.66095 -1.57357,1.0701 -2.58085,1.0701c-1.00734,0 -1.92002,-0.40915 -2.58091,-1.0701c-0.66095,-0.66089 -1.0701,-1.57357 -1.0701,-2.58085c0,-1.00734 0.40915,-1.92002 1.0701,-2.58091c0.66089,-0.66095 1.57357,-1.0701 2.58091,-1.0701z" fill="url(#color-7)" stroke-width="0.25197"/><path d="M248.85703,189.56888h1.44021v5.52324h-1.44021z" fill="url(#color-8)" stroke-width="0.31371"/></g><g><path d="M250.97071,183.33102c1.00734,0 1.92002,0.40915 2.58091,1.0701c0.66095,0.66089 1.0701,1.57357 1.0701,2.58085c0,1.00734 -0.40915,1.92002 -1.0701,2.58091c-0.66089,0.66095 -1.57357,1.0701 -2.58091,1.0701c-1.00728,0 -1.91996,-0.40915 -2.58085,-1.0701c-0.66095,-0.66089 -1.0701,-1.57357 -1.0701,-2.58091c0,-1.00728 0.40915,-1.91996 1.0701,-2.58085c0.66089,-0.66095 1.57357,-1.0701 2.58085,-1.0701z" fill="url(#color-9)" stroke-width="0.25197"/><path d="M250.20882,184.18105h1.44021v5.5233h-1.44021z" fill="url(#color-10)" stroke-width="0.31371"/></g><g><path d="M255.33502,184.97244c1.00728,0 1.91996,0.40915 2.58091,1.0701c0.66089,0.66095 1.0701,1.57357 1.0701,2.58091c0,1.00728 -0.40921,1.91996 -1.0701,2.58091c-0.66095,0.66089 -1.57363,1.07004 -2.58091,1.07004c-1.00728,0 -1.91996,-0.40915 -2.58091,-1.07004c-0.66089,-0.66095 -1.07004,-1.57363 -1.07004,-2.58091c0,-1.00734 0.40915,-1.91996 1.07004,-2.58091c0.66095,-0.66095 1.57363,-1.0701 2.58091,-1.0701z" fill="url(#color-11)" stroke-width="0.25197"/><path d="M254.55381,185.82253h1.44021v5.52324h-1.44021z" fill="url(#color-12)" stroke-width="0.31371"/></g><g><path d="M257.13095,187.52151c1.00734,0 1.91996,0.40915 2.58091,1.0701c0.66095,0.66089 1.0701,1.57357 1.0701,2.58091c0,1.00728 -0.40915,1.91996 -1.0701,2.58085c-0.66095,0.66095 -1.57357,1.0701 -2.58091,1.0701c-1.00728,0 -1.91996,-0.40915 -2.58091,-1.0701c-0.66089,-0.66089 -1.07004,-1.57357 -1.07004,-2.58085c0,-1.00734 0.40915,-1.92002 1.07004,-2.58091c0.66095,-0.66095 1.57363,-1.0701 2.58091,-1.0701z" fill="url(#color-13)" stroke-width="0.25197"/><path d="M256.36905,188.37154h1.44021v5.5233h-1.44021z" fill="url(#color-14)" stroke-width="0.31371"/></g><g fill="none" stroke-width="1" font-family="sans-serif" font-weight="normal" font-size="12" text-anchor="start"/><g fill="none" stroke-width="1" font-family="sans-serif" font-weight="normal" font-size="12" text-anchor="start"/><g fill="none" stroke-width="1" font-family="sans-serif" font-weight="normal" font-size="12" text-anchor="start"/><g fill="none" stroke-width="1" font-family="sans-serif" font-weight="normal" font-size="12" text-anchor="start"/><g><path d="M259.37106,182.94478c1.00728,0 1.91996,0.40915 2.58085,1.0701c0.66095,0.66089 1.0701,1.57357 1.0701,2.58091c0,1.00728 -0.40915,1.91996 -1.0701,2.58085c-0.66089,0.66095 -1.57357,1.0701 -2.58085,1.0701c-1.00734,0 -1.92002,-0.40915 -2.58091,-1.0701c-0.66095,-0.66089 -1.0701,-1.57357 -1.0701,-2.58085c0,-1.00734 0.40915,-1.92002 1.0701,-2.58091c0.66089,-0.66095 1.57357,-1.0701 2.58091,-1.0701z" fill="url(#color-15)" stroke-width="0.25197"/><path d="M258.60911,183.79482h1.44021v5.5233h-1.44021z" fill="url(#color-16)" stroke-width="0.31371"/></g><g><path d="M247.82305,185.04972c1.00728,0 1.91996,0.40915 2.58085,1.07004c0.66095,0.66095 1.0701,1.57363 1.0701,2.58091c0,1.00728 -0.40915,1.91996 -1.0701,2.58091c-0.66089,0.66089 -1.57357,1.0701 -2.58085,1.0701c-1.00734,0 -1.92002,-0.40921 -2.58091,-1.0701c-0.66095,-0.66095 -1.0701,-1.57363 -1.0701,-2.58091c0,-1.00728 0.40915,-1.91996 1.0701,-2.58091c0.66089,-0.66089 1.57357,-1.07004 2.58091,-1.07004z" fill="url(#color-17)" stroke-width="0.25197"/><path d="M247.06111,185.89975h1.44021v5.5233h-1.44021z" fill="url(#color-18)" stroke-width="0.31371"/></g></g><g><g><path d="M247.53336,180.91713c1.00728,0 1.91996,0.40915 2.58091,1.0701c0.66089,0.66089 1.0701,1.57357 1.0701,2.58085c0,1.00734 -0.40921,1.92002 -1.0701,2.58091c-0.66095,0.66095 -1.57363,1.0701 -2.58091,1.0701c-1.00728,0 -1.91996,-0.40915 -2.58091,-1.0701c-0.66089,-0.66089 -1.0701,-1.57357 -1.0701,-2.58091c0,-1.00728 0.40921,-1.91996 1.0701,-2.58085c0.66095,-0.66095 1.57363,-1.0701 2.58091,-1.0701z" fill="url(#color-19)" stroke-width="0.25197"/><path d="M246.77142,181.76716h1.44027v5.5233h-1.44027z" fill="url(#color-20)" stroke-width="0.31371"/></g><g><path d="M252.16799,182.13373c1.00734,0 1.92002,0.40915 2.58091,1.0701c0.66095,0.66089 1.0701,1.57357 1.0701,2.58085c0,1.00734 -0.40915,1.92002 -1.0701,2.58091c-0.66089,0.66095 -1.57357,1.0701 -2.58091,1.0701c-1.00728,0 -1.91996,-0.40915 -2.58085,-1.0701c-0.66095,-0.66089 -1.0701,-1.57357 -1.0701,-2.58091c0,-1.00728 0.40915,-1.91996 1.0701,-2.58085c0.66089,-0.66095 1.57357,-1.0701 2.58085,-1.0701z" fill="url(#color-21)" stroke-width="0.25197"/><path d="M251.4061,182.96445h1.44021v5.5233h-1.44021z" fill="url(#color-22)" stroke-width="0.31371"/></g><g><path d="M253.51978,176.72664c1.00734,0 1.91996,0.40915 2.58091,1.0701c0.66095,0.66089 1.0701,1.57357 1.0701,2.58085c0,1.00734 -0.40915,1.91996 -1.0701,2.58091c-0.66095,0.66095 -1.57357,1.0701 -2.58091,1.0701c-1.00728,0 -1.91996,-0.40915 -2.58091,-1.0701c-0.66089,-0.66095 -1.07004,-1.57357 -1.07004,-2.58091c0,-1.00728 0.40915,-1.91996 1.07004,-2.58085c0.66095,-0.66095 1.57363,-1.0701 2.58091,-1.0701z" fill="url(#color-23)" stroke-width="0.25197"/><path d="M252.75789,177.55735h1.44021v5.5233h-1.44021z" fill="url(#color-24)" stroke-width="0.31371"/></g><g><path d="M257.88409,178.36806c1.00728,0 1.91996,0.40915 2.58091,1.0701c0.66089,0.66089 1.0701,1.57357 1.0701,2.58091c0,1.00728 -0.40921,1.91996 -1.0701,2.58085c-0.66095,0.66095 -1.57363,1.0701 -2.58091,1.0701c-1.00728,0 -1.91996,-0.40915 -2.58091,-1.0701c-0.66089,-0.66089 -1.0701,-1.57357 -1.0701,-2.58085c0,-1.00734 0.40921,-1.92002 1.0701,-2.58091c0.66095,-0.66095 1.57363,-1.0701 2.58091,-1.0701z" fill="url(#color-25)" stroke-width="0.25197"/><path d="M257.10288,179.21815h1.44021v5.52324h-1.44021z" fill="url(#color-26)" stroke-width="0.31371"/></g><g><path d="M259.68002,180.91713c1.00728,0 1.91996,0.40915 2.58091,1.0701c0.66089,0.66089 1.0701,1.57357 1.0701,2.58085c0,1.00734 -0.40921,1.92002 -1.0701,2.58091c-0.66095,0.66095 -1.57363,1.0701 -2.58091,1.0701c-1.00728,0 -1.91996,-0.40915 -2.58091,-1.0701c-0.66089,-0.66089 -1.0701,-1.57357 -1.0701,-2.58091c0,-1.00728 0.40921,-1.91996 1.0701,-2.58085c0.66095,-0.66095 1.57363,-1.0701 2.58091,-1.0701z" fill="url(#color-27)" stroke-width="0.25197"/><path d="M258.91807,181.76716h1.44027v5.5233h-1.44027z" fill="url(#color-28)" stroke-width="0.31371"/></g><g fill="none" stroke-width="1" font-family="sans-serif" font-weight="normal" font-size="12" text-anchor="start"/><g fill="none" stroke-width="1" font-family="sans-serif" font-weight="normal" font-size="12" text-anchor="start"/><g fill="none" stroke-width="1" font-family="sans-serif" font-weight="normal" font-size="12" text-anchor="start"/><g fill="none" stroke-width="1" font-family="sans-serif" font-weight="normal" font-size="12" text-anchor="start"/><g fill="none" stroke-width="1" font-family="sans-serif" font-weight="normal" font-size="12" text-anchor="start"/><g><path d="M250.37207,178.44528c1.00734,0 1.92002,0.40921 2.58091,1.0701c0.66095,0.66095 1.0701,1.57363 1.0701,2.58091c0,1.00728 -0.40915,1.91996 -1.0701,2.58091c-0.66089,0.66089 -1.57357,1.0701 -2.58091,1.0701c-1.00728,0 -1.91996,-0.40921 -2.58085,-1.0701c-0.66095,-0.66095 -1.0701,-1.57363 -1.0701,-2.58091c0,-1.00728 0.40915,-1.91996 1.0701,-2.58091c0.66089,-0.66089 1.57357,-1.0701 2.58085,-1.0701z" fill="url(#color-29)" stroke-width="0.25197"/><path d="M249.61018,179.29537h1.44021v5.5233h-1.44021z" fill="url(#color-30)" stroke-width="0.31371"/></g></g><g><g><path d="M244.23115,185.80281c1.00734,0 1.92002,0.40921 2.58091,1.0701c0.66095,0.66095 1.0701,1.57363 1.0701,2.58091c0,1.00728 -0.40915,1.91996 -1.0701,2.58091c-0.66089,0.66089 -1.57357,1.07004 -2.58091,1.07004c-1.00728,0 -1.91996,-0.40915 -2.58085,-1.07004c-0.66095,-0.66095 -1.0701,-1.57363 -1.0701,-2.58091c0,-1.00728 0.40915,-1.91996 1.0701,-2.58091c0.66089,-0.66089 1.57357,-1.0701 2.58085,-1.0701z" fill="url(#color-31)" stroke-width="0.25197"/><path d="M243.46926,186.6529h1.44021v5.5233h-1.44021z" fill="url(#color-32)" stroke-width="0.31371"/></g><g><path d="M248.88515,187.00009c1.00728,0 1.91996,0.40921 2.58085,1.0701c0.66095,0.66095 1.0701,1.57363 1.0701,2.58091c0,1.00728 -0.40915,1.91996 -1.0701,2.58091c-0.66089,0.66089 -1.57357,1.0701 -2.58085,1.0701c-1.00734,0 -1.91996,-0.40921 -2.58091,-1.0701c-0.66095,-0.66095 -1.0701,-1.57363 -1.0701,-2.58091c0,-1.00728 0.40915,-1.91996 1.0701,-2.58091c0.66095,-0.66089 1.57357,-1.0701 2.58091,-1.0701z" fill="url(#color-33)" stroke-width="0.25197"/><path d="M248.10388,187.85018h1.44027v5.5233h-1.44027z" fill="url(#color-34)" stroke-width="0.31371"/></g><g><path d="M250.23688,181.593c1.00734,0 1.92002,0.40921 2.58091,1.0701c0.66095,0.66095 1.0701,1.57363 1.0701,2.58091c0,1.00728 -0.40915,1.91996 -1.0701,2.58091c-0.66089,0.66089 -1.57357,1.07004 -2.58091,1.07004c-1.00728,0 -1.91996,-0.40915 -2.58085,-1.07004c-0.66095,-0.66095 -1.0701,-1.57363 -1.0701,-2.58091c0,-1.00728 0.40915,-1.91996 1.0701,-2.58091c0.66089,-0.66089 1.57357,-1.0701 2.58085,-1.0701z" fill="url(#color-35)" stroke-width="0.25197"/><path d="M249.45567,182.44309h1.44021v5.5233h-1.44021z" fill="url(#color-36)" stroke-width="0.31371"/></g><g><path d="M254.58188,183.25374c1.00734,0 1.92002,0.40921 2.58091,1.0701c0.66095,0.66095 1.0701,1.57363 1.0701,2.58091c0,1.00728 -0.40915,1.91996 -1.0701,2.58091c-0.66089,0.66089 -1.57357,1.0701 -2.58091,1.0701c-1.00728,0 -1.91996,-0.40921 -2.58085,-1.0701c-0.66095,-0.66095 -1.0701,-1.57363 -1.0701,-2.58091c0,-1.00728 0.40915,-1.91996 1.0701,-2.58091c0.66089,-0.66089 1.57357,-1.0701 2.58085,-1.0701z" fill="url(#color-37)" stroke-width="0.25197"/><path d="M253.81998,184.10383h1.44021v5.5233h-1.44021z" fill="url(#color-38)" stroke-width="0.31371"/></g><g><path d="M256.3778,185.80281c1.00734,0 1.92002,0.40921 2.58091,1.0701c0.66095,0.66095 1.0701,1.57363 1.0701,2.58091c0,1.00728 -0.40915,1.91996 -1.0701,2.58091c-0.66089,0.66089 -1.57357,1.07004 -2.58091,1.07004c-1.00728,0 -1.91996,-0.40915 -2.58085,-1.07004c-0.66095,-0.66095 -1.0701,-1.57363 -1.0701,-2.58091c0,-1.00728 0.40915,-1.91996 1.0701,-2.58091c0.66089,-0.66089 1.57357,-1.0701 2.58085,-1.0701z" fill="url(#color-39)" stroke-width="0.25197"/><path d="M255.61591,186.6529h1.44021v5.5233h-1.44021z" fill="url(#color-40)" stroke-width="0.31371"/></g><g><path d="M261.92008,183.85238c1.00734,0 1.92002,0.40921 2.58091,1.0701c0.66095,0.66095 1.0701,1.57363 1.0701,2.58091c0,1.00728 -0.40915,1.91996 -1.0701,2.58091c-0.66089,0.66089 -1.57357,1.0701 -2.58091,1.0701c-1.00728,0 -1.91996,-0.40921 -2.58085,-1.0701c-0.66095,-0.66095 -1.0701,-1.57363 -1.0701,-2.58091c0,-1.00728 0.40915,-1.91996 1.0701,-2.58091c0.66089,-0.66089 1.57357,-1.0701 2.58085,-1.0701z" fill="url(#color-41)" stroke-width="0.25197"/><path d="M261.15818,184.70247h1.44021v5.5233h-1.44021z" fill="url(#color-42)" stroke-width="0.31371"/></g><g fill="none" stroke-width="1" font-family="sans-serif" font-weight="normal" font-size="12" text-anchor="start"/><g fill="none" stroke-width="1" font-family="sans-serif" font-weight="normal" font-size="12" text-anchor="start"/><g fill="none" stroke-width="1" font-family="sans-serif" font-weight="normal" font-size="12" text-anchor="start"/><g><path d="M258.61792,181.22608c1.00728,0 1.91996,0.40921 2.58091,1.0701c0.66089,0.66095 1.07004,1.57363 1.07004,2.58091c0,1.00728 -0.40915,1.91996 -1.07004,2.58091c-0.66095,0.66089 -1.57363,1.0701 -2.58091,1.0701c-1.00728,0 -1.91996,-0.40921 -2.58091,-1.0701c-0.66089,-0.66095 -1.0701,-1.57363 -1.0701,-2.58091c0,-1.00728 0.40921,-1.91996 1.0701,-2.58091c0.66095,-0.66089 1.57363,-1.0701 2.58091,-1.0701z" fill="url(#color-43)" stroke-width="0.25197"/><path d="M257.85597,182.05685h1.44027v5.5233h-1.44027z" fill="url(#color-44)" stroke-width="0.31371"/></g><g><path d="M247.06991,183.33102c1.00728,0 1.91996,0.40915 2.58091,1.0701c0.66089,0.66089 1.07004,1.57357 1.07004,2.58085c0,1.00734 -0.40915,1.92002 -1.07004,2.58091c-0.66095,0.66095 -1.57363,1.0701 -2.58091,1.0701c-1.00734,0 -1.91996,-0.40915 -2.58091,-1.0701c-0.66095,-0.66089 -1.0701,-1.57357 -1.0701,-2.58091c0,-1.00728 0.40915,-1.91996 1.0701,-2.58085c0.66095,-0.66095 1.57357,-1.0701 2.58091,-1.0701z" fill="url(#color-45)" stroke-width="0.25197"/><path d="M246.30796,184.18105h1.44021v5.5233h-1.44021z" fill="url(#color-46)" stroke-width="0.31371"/></g></g></g><g stroke="none" stroke-linecap="butt"><g><g><path d="M218.83307,187.13584c1.00728,0 1.91996,0.40915 2.58091,1.0701c0.66089,0.66089 1.07004,1.57357 1.07004,2.58085c0,1.00734 -0.40915,1.92002 -1.07004,2.58091c-0.66095,0.66095 -1.57363,1.0701 -2.58091,1.0701c-1.00728,0 -1.91996,-0.40915 -2.58091,-1.0701c-0.66089,-0.66089 -1.0701,-1.57357 -1.0701,-2.58091c0,-1.00728 0.40921,-1.91996 1.0701,-2.58085c0.66095,-0.66095 1.57363,-1.0701 2.58091,-1.0701z" fill="url(#color-47)" stroke-width="0.25197"/><path d="M218.07112,187.98588h1.44027v5.5233h-1.44027z" fill="url(#color-48)" stroke-width="0.31371"/></g><g><path d="M223.46769,188.33313c1.00734,0 1.92002,0.40915 2.58091,1.0701c0.66095,0.66089 1.0701,1.57357 1.0701,2.58085c0,1.00734 -0.40915,1.92002 -1.0701,2.58091c-0.66089,0.66095 -1.57357,1.0701 -2.58091,1.0701c-1.00728,0 -1.91996,-0.40915 -2.58085,-1.0701c-0.66095,-0.66089 -1.0701,-1.57357 -1.0701,-2.58091c0,-1.00728 0.40915,-1.91996 1.0701,-2.58085c0.66089,-0.66095 1.57357,-1.0701 2.58085,-1.0701z" fill="url(#color-49)" stroke-width="0.25197"/><path d="M222.7058,189.18316h1.44021v5.5233h-1.44021z" fill="url(#color-50)" stroke-width="0.31371"/></g><g><path d="M224.81948,182.94535c1.00728,0 1.91996,0.40915 2.58091,1.07004c0.66089,0.66095 1.0701,1.57363 1.0701,2.58091c0,1.00728 -0.40921,1.91996 -1.0701,2.58091c-0.66095,0.66089 -1.57363,1.0701 -2.58091,1.0701c-1.00728,0 -1.91996,-0.40921 -2.58091,-1.0701c-0.66089,-0.66095 -1.07004,-1.57363 -1.07004,-2.58091c0,-1.00728 0.40915,-1.91996 1.07004,-2.58091c0.66095,-0.66089 1.57363,-1.07004 2.58091,-1.07004z" fill="url(#color-51)" stroke-width="0.25197"/><path d="M224.05759,183.79539h1.44021v5.5233h-1.44021z" fill="url(#color-52)" stroke-width="0.31371"/></g><g><path d="M229.1838,184.58677c1.00728,0 1.91996,0.40915 2.58091,1.0701c0.66089,0.66089 1.07004,1.57357 1.07004,2.58091c0,1.00728 -0.40915,1.91996 -1.07004,2.58085c-0.66095,0.66095 -1.57363,1.0701 -2.58091,1.0701c-1.00728,0 -1.91996,-0.40915 -2.58091,-1.0701c-0.66089,-0.66089 -1.0701,-1.57357 -1.0701,-2.58085c0,-1.00734 0.40921,-1.92002 1.0701,-2.58091c0.66095,-0.66095 1.57363,-1.0701 2.58091,-1.0701z" fill="url(#color-53)" stroke-width="0.25197"/><path d="M228.40253,185.43681h1.44027v5.5233h-1.44027z" fill="url(#color-54)" stroke-width="0.31371"/></g><g><path d="M230.97972,187.13584c1.00728,0 1.91996,0.40915 2.58091,1.0701c0.66089,0.66089 1.0701,1.57357 1.0701,2.58085c0,1.00734 -0.40921,1.92002 -1.0701,2.58091c-0.66095,0.66095 -1.57363,1.0701 -2.58091,1.0701c-1.00728,0 -1.91996,-0.40915 -2.58091,-1.0701c-0.66089,-0.66089 -1.0701,-1.57357 -1.0701,-2.58091c0,-1.00728 0.40921,-1.91996 1.0701,-2.58085c0.66095,-0.66095 1.57363,-1.0701 2.58091,-1.0701z" fill="url(#color-55)" stroke-width="0.25197"/><path d="M230.21777,187.98588h1.44027v5.5233h-1.44027z" fill="url(#color-56)" stroke-width="0.31371"/></g><g><path d="M236.522,185.18542c1.00728,0 1.91996,0.40915 2.58091,1.0701c0.66089,0.66089 1.0701,1.57357 1.0701,2.58091c0,1.00728 -0.40921,1.91996 -1.0701,2.58085c-0.66095,0.66095 -1.57363,1.0701 -2.58091,1.0701c-1.00728,0 -1.91996,-0.40915 -2.58091,-1.0701c-0.66089,-0.66089 -1.0701,-1.57357 -1.0701,-2.58085c0,-1.00734 0.40921,-1.92002 1.0701,-2.58091c0.66095,-0.66095 1.57363,-1.0701 2.58091,-1.0701z" fill="url(#color-57)" stroke-width="0.25197"/><path d="M235.76005,186.03545h1.44027v5.5233h-1.44027z" fill="url(#color-58)" stroke-width="0.31371"/></g><g><path d="M241.17594,182.55912c1.00734,0 1.91996,0.40915 2.58091,1.0701c0.66095,0.66089 1.0701,1.57357 1.0701,2.58085c0,1.00734 -0.40915,1.92002 -1.0701,2.58091c-0.66095,0.66095 -1.57357,1.0701 -2.58091,1.0701c-1.00728,0 -1.91996,-0.40915 -2.58085,-1.0701c-0.66095,-0.66089 -1.0701,-1.57357 -1.0701,-2.58091c0,-1.00728 0.40915,-1.91996 1.0701,-2.58085c0.66089,-0.66095 1.57357,-1.0701 2.58085,-1.0701z" fill="url(#color-59)" stroke-width="0.25197"/><path d="M240.39473,183.40915h1.44021v5.5233h-1.44021z" fill="url(#color-60)" stroke-width="0.31371"/></g><g><path d="M240.71248,186.09301c1.00728,0 1.91996,0.40921 2.58091,1.0701c0.66089,0.66095 1.0701,1.57363 1.0701,2.58091c0,1.00728 -0.40921,1.91996 -1.0701,2.58091c-0.66095,0.66089 -1.57363,1.0701 -2.58091,1.0701c-1.00728,0 -1.91996,-0.40921 -2.58091,-1.0701c-0.66089,-0.66095 -1.07004,-1.57363 -1.07004,-2.58091c0,-1.00728 0.40915,-1.91996 1.07004,-2.58091c0.66095,-0.66089 1.57363,-1.0701 2.58091,-1.0701z" fill="url(#color-61)" stroke-width="0.25197"/><path d="M239.95059,186.9431h1.44021v5.5233h-1.44021z" fill="url(#color-62)" stroke-width="0.31371"/></g><g><path d="M237.71928,189.24072c1.00728,0 1.91996,0.40921 2.58091,1.0701c0.66089,0.66095 1.0701,1.57363 1.0701,2.58091c0,1.00728 -0.40921,1.91996 -1.0701,2.58091c-0.66095,0.66089 -1.57363,1.07004 -2.58091,1.07004c-1.00728,0 -1.91996,-0.40915 -2.58091,-1.07004c-0.66089,-0.66095 -1.0701,-1.57363 -1.0701,-2.58091c0,-1.00728 0.40921,-1.91996 1.0701,-2.58091c0.66095,-0.66089 1.57363,-1.0701 2.58091,-1.0701z" fill="url(#color-63)" stroke-width="0.25197"/><path d="M236.95733,190.09081h1.44027v5.5233h-1.44027z" fill="url(#color-64)" stroke-width="0.31371"/></g><g><path d="M233.21978,182.55912c1.00734,0 1.92002,0.40915 2.58091,1.0701c0.66095,0.66089 1.0701,1.57357 1.0701,2.58085c0,1.00734 -0.40915,1.92002 -1.0701,2.58091c-0.66089,0.66095 -1.57357,1.0701 -2.58091,1.0701c-1.00728,0 -1.91996,-0.40915 -2.58085,-1.0701c-0.66095,-0.66089 -1.0701,-1.57357 -1.0701,-2.58091c0,-1.00728 0.40915,-1.91996 1.0701,-2.58085c0.66089,-0.66095 1.57357,-1.0701 2.58085,-1.0701z" fill="url(#color-65)" stroke-width="0.25197"/><path d="M232.45789,183.40915h1.44021v5.5233h-1.44021z" fill="url(#color-66)" stroke-width="0.31371"/></g><g><path d="M221.67177,184.664c1.00734,0 1.91996,0.40921 2.58091,1.0701c0.66095,0.66095 1.0701,1.57363 1.0701,2.58091c0,1.00728 -0.40915,1.91996 -1.0701,2.58091c-0.66095,0.66089 -1.57357,1.07004 -2.58091,1.07004c-1.00728,0 -1.91996,-0.40915 -2.58085,-1.07004c-0.66095,-0.66095 -1.0701,-1.57363 -1.0701,-2.58091c0,-1.00728 0.40915,-1.91996 1.0701,-2.58091c0.66089,-0.66089 1.57357,-1.0701 2.58085,-1.0701z" fill="url(#color-67)" stroke-width="0.25197"/><path d="M220.90988,185.51409h1.44021v5.5233h-1.44021z" fill="url(#color-68)" stroke-width="0.31371"/></g></g><g><g><path d="M221.38214,180.53147c1.00728,0 1.91996,0.40915 2.58085,1.07004c0.66095,0.66095 1.0701,1.57363 1.0701,2.58091c0,1.00728 -0.40915,1.91996 -1.0701,2.58091c-0.66089,0.66095 -1.57357,1.0701 -2.58085,1.0701c-1.00734,0 -1.92002,-0.40915 -2.58091,-1.0701c-0.66095,-0.66095 -1.0701,-1.57363 -1.0701,-2.58091c0,-1.00728 0.40915,-1.91996 1.0701,-2.58091c0.66089,-0.66089 1.57357,-1.07004 2.58091,-1.07004z" fill="url(#color-69)" stroke-width="0.25197"/><path d="M220.62019,181.3815h1.44021v5.5233h-1.44021z" fill="url(#color-70)" stroke-width="0.31371"/></g><g><path d="M226.01676,181.74801c1.00728,0 1.91996,0.40921 2.58091,1.0701c0.66095,0.66095 1.0701,1.57363 1.0701,2.58091c0,1.00728 -0.40915,1.91996 -1.0701,2.58091c-0.66095,0.66089 -1.57363,1.0701 -2.58091,1.0701c-1.00728,0 -1.91996,-0.40921 -2.58091,-1.0701c-0.66089,-0.66095 -1.07004,-1.57363 -1.07004,-2.58091c0,-1.00728 0.40915,-1.91996 1.07004,-2.58091c0.66095,-0.66089 1.57363,-1.0701 2.58091,-1.0701z" fill="url(#color-71)" stroke-width="0.25197"/><path d="M225.25487,182.57878h1.44021v5.5233h-1.44021z" fill="url(#color-72)" stroke-width="0.31371"/></g><g><path d="M227.36855,176.34092c1.00728,0 1.91996,0.40921 2.58091,1.0701c0.66089,0.66095 1.0701,1.57363 1.0701,2.58091c0,1.00728 -0.40921,1.91996 -1.0701,2.58091c-0.66095,0.66089 -1.57363,1.0701 -2.58091,1.0701c-1.00728,0 -1.91996,-0.40921 -2.58091,-1.0701c-0.66089,-0.66095 -1.0701,-1.57363 -1.0701,-2.58091c0,-1.00728 0.40921,-1.91996 1.0701,-2.58091c0.66095,-0.66089 1.57363,-1.0701 2.58091,-1.0701z" fill="url(#color-73)" stroke-width="0.25197"/><path d="M226.6066,177.17169h1.44027v5.5233h-1.44027z" fill="url(#color-74)" stroke-width="0.31371"/></g><g><path d="M231.73286,177.9824c1.00728,0 1.91996,0.40915 2.58085,1.0701c0.66095,0.66089 1.0701,1.57357 1.0701,2.58085c0,1.00734 -0.40915,1.92002 -1.0701,2.58091c-0.66089,0.66095 -1.57357,1.0701 -2.58085,1.0701c-1.00734,0 -1.91996,-0.40915 -2.58091,-1.0701c-0.66095,-0.66089 -1.0701,-1.57357 -1.0701,-2.58091c0,-1.00728 0.40915,-1.91996 1.0701,-2.58085c0.66095,-0.66095 1.57357,-1.0701 2.58091,-1.0701z" fill="url(#color-75)" stroke-width="0.25197"/><path d="M230.9516,178.83243h1.44027v5.5233h-1.44027z" fill="url(#color-76)" stroke-width="0.31371"/></g><g><path d="M233.52879,180.53147c1.00728,0 1.91996,0.40915 2.58091,1.07004c0.66089,0.66095 1.07004,1.57363 1.07004,2.58091c0,1.00728 -0.40915,1.91996 -1.07004,2.58091c-0.66095,0.66095 -1.57363,1.0701 -2.58091,1.0701c-1.00728,0 -1.91996,-0.40915 -2.58091,-1.0701c-0.66095,-0.66095 -1.0701,-1.57363 -1.0701,-2.58091c0,-1.00728 0.40915,-1.91996 1.0701,-2.58091c0.66095,-0.66089 1.57363,-1.07004 2.58091,-1.07004z" fill="url(#color-77)" stroke-width="0.25197"/><path d="M232.76684,181.3815h1.44021v5.5233h-1.44021z" fill="url(#color-78)" stroke-width="0.31371"/></g><g><path d="M239.07107,178.60036c1.00728,0 1.91996,0.40915 2.58091,1.07004c0.66089,0.66095 1.07004,1.57363 1.07004,2.58091c0,1.00734 -0.40915,1.91996 -1.07004,2.58091c-0.66095,0.66095 -1.57363,1.0701 -2.58091,1.0701c-1.00734,0 -1.91996,-0.40915 -2.58091,-1.0701c-0.66095,-0.66095 -1.0701,-1.57357 -1.0701,-2.58091c0,-1.00728 0.40915,-1.91996 1.0701,-2.58091c0.66095,-0.66089 1.57357,-1.07004 2.58091,-1.07004z" fill="url(#color-79)" stroke-width="0.25197"/><path d="M238.30912,179.43107h1.44021v5.5233h-1.44021z" fill="url(#color-80)" stroke-width="0.31371"/></g><g><path d="M243.72501,175.97401c1.00728,0 1.91996,0.40921 2.58091,1.0701c0.66089,0.66095 1.0701,1.57363 1.0701,2.58091c0,1.00728 -0.40921,1.91996 -1.0701,2.58091c-0.66095,0.66089 -1.57363,1.0701 -2.58091,1.0701c-1.00728,0 -1.91996,-0.40921 -2.58091,-1.0701c-0.66089,-0.66095 -1.07004,-1.57363 -1.07004,-2.58091c0,-1.00728 0.40915,-1.91996 1.07004,-2.58091c0.66095,-0.66089 1.57363,-1.0701 2.58091,-1.0701z" fill="url(#color-81)" stroke-width="0.25197"/><path d="M242.9438,176.80478h1.44021v5.5233h-1.44021z" fill="url(#color-82)" stroke-width="0.31371"/></g><g><path d="M243.26155,179.48863c1.00728,0 1.91996,0.40921 2.58091,1.0701c0.66089,0.66095 1.0701,1.57363 1.0701,2.58091c0,1.00728 -0.40921,1.91996 -1.0701,2.58091c-0.66095,0.66089 -1.57363,1.07004 -2.58091,1.07004c-1.00728,0 -1.91996,-0.40915 -2.58091,-1.07004c-0.66089,-0.66095 -1.0701,-1.57363 -1.0701,-2.58091c0,-1.00728 0.40921,-1.91996 1.0701,-2.58091c0.66095,-0.66089 1.57363,-1.0701 2.58091,-1.0701z" fill="url(#color-83)" stroke-width="0.25197"/><path d="M242.49961,180.3194h1.44027v5.5233h-1.44027z" fill="url(#color-84)" stroke-width="0.31371"/></g><g><path d="M240.26835,182.63635c1.00728,0 1.91996,0.40915 2.58091,1.0701c0.66089,0.66095 1.07004,1.57357 1.07004,2.58091c0,1.00728 -0.40915,1.91996 -1.07004,2.58085c-0.66095,0.66095 -1.57363,1.0701 -2.58091,1.0701c-1.00728,0 -1.91996,-0.40915 -2.58091,-1.0701c-0.66095,-0.66089 -1.0701,-1.57357 -1.0701,-2.58085c0,-1.00734 0.40915,-1.91996 1.0701,-2.58091c0.66095,-0.66095 1.57363,-1.0701 2.58091,-1.0701z" fill="url(#color-85)" stroke-width="0.25197"/><path d="M239.5064,183.48644h1.44027v5.52324h-1.44027z" fill="url(#color-86)" stroke-width="0.31371"/></g><g><path d="M235.76885,175.97401c1.00728,0 1.91996,0.40921 2.58091,1.0701c0.66095,0.66095 1.0701,1.57363 1.0701,2.58091c0,1.00728 -0.40915,1.91996 -1.0701,2.58091c-0.66095,0.66089 -1.57363,1.0701 -2.58091,1.0701c-1.00728,0 -1.91996,-0.40921 -2.58091,-1.0701c-0.66089,-0.66095 -1.07004,-1.57363 -1.07004,-2.58091c0,-1.00728 0.40915,-1.91996 1.07004,-2.58091c0.66095,-0.66089 1.57363,-1.0701 2.58091,-1.0701z" fill="url(#color-87)" stroke-width="0.25197"/><path d="M235.00696,176.80478h1.44021v5.5233h-1.44021z" fill="url(#color-88)" stroke-width="0.31371"/></g><g><path d="M224.22084,178.05962c1.00728,0 1.91996,0.40915 2.58091,1.0701c0.66089,0.66095 1.0701,1.57357 1.0701,2.58091c0,1.00728 -0.40921,1.91996 -1.0701,2.58085c-0.66095,0.66095 -1.57363,1.0701 -2.58091,1.0701c-1.00728,0 -1.91996,-0.40915 -2.58091,-1.0701c-0.66089,-0.66089 -1.0701,-1.57357 -1.0701,-2.58085c0,-1.00734 0.40921,-1.91996 1.0701,-2.58091c0.66095,-0.66095 1.57363,-1.0701 2.58091,-1.0701z" fill="url(#color-89)" stroke-width="0.25197"/><path d="M223.45895,178.90971h1.44021v5.52324h-1.44021z" fill="url(#color-90)" stroke-width="0.31371"/></g></g><g><g><path d="M218.07992,185.41714c1.00728,0 1.91996,0.40915 2.58091,1.0701c0.66089,0.66089 1.0701,1.57357 1.0701,2.58091c0,1.00728 -0.40921,1.91996 -1.0701,2.58085c-0.66095,0.66095 -1.57363,1.0701 -2.58091,1.0701c-1.00728,0 -1.91996,-0.40915 -2.58091,-1.0701c-0.66089,-0.66089 -1.0701,-1.57357 -1.0701,-2.58085c0,-1.00734 0.40921,-1.92002 1.0701,-2.58091c0.66095,-0.66095 1.57363,-1.0701 2.58091,-1.0701z" fill="url(#color-91)" stroke-width="0.25197"/><path d="M217.31803,186.26718h1.44021v5.5233h-1.44021z" fill="url(#color-92)" stroke-width="0.31371"/></g><g><path d="M222.73387,186.61443c1.00734,0 1.92002,0.40915 2.58091,1.0701c0.66095,0.66095 1.0701,1.57357 1.0701,2.58091c0,1.00728 -0.40915,1.91996 -1.0701,2.58085c-0.66089,0.66095 -1.57357,1.0701 -2.58091,1.0701c-1.00728,0 -1.91996,-0.40915 -2.58085,-1.0701c-0.66095,-0.66089 -1.0701,-1.57357 -1.0701,-2.58085c0,-1.00734 0.40915,-1.91996 1.0701,-2.58091c0.66089,-0.66095 1.57357,-1.0701 2.58085,-1.0701z" fill="url(#color-93)" stroke-width="0.25197"/><path d="M221.95266,187.46452h1.44021v5.52324h-1.44021z" fill="url(#color-94)" stroke-width="0.31371"/></g><g><path d="M224.08566,181.20733c1.00734,0 1.91996,0.40915 2.58091,1.0701c0.66095,0.66089 1.0701,1.57357 1.0701,2.58091c0,1.00728 -0.40915,1.91996 -1.0701,2.58085c-0.66095,0.66095 -1.57357,1.0701 -2.58091,1.0701c-1.00728,0 -1.91996,-0.40915 -2.58091,-1.0701c-0.66089,-0.66089 -1.07004,-1.57357 -1.07004,-2.58085c0,-1.00734 0.40915,-1.92002 1.07004,-2.58091c0.66095,-0.66095 1.57363,-1.0701 2.58091,-1.0701z" fill="url(#color-95)" stroke-width="0.25197"/><path d="M223.30444,182.05737h1.44021v5.5233h-1.44021z" fill="url(#color-96)" stroke-width="0.31371"/></g><g><path d="M228.43065,182.86807c1.00728,0 1.91996,0.40915 2.58091,1.0701c0.66089,0.66095 1.0701,1.57363 1.0701,2.58091c0,1.00728 -0.40921,1.91996 -1.0701,2.58091c-0.66095,0.66089 -1.57363,1.07004 -2.58091,1.07004c-1.00728,0 -1.91996,-0.40915 -2.58091,-1.07004c-0.66089,-0.66095 -1.07004,-1.57363 -1.07004,-2.58091c0,-1.00728 0.40915,-1.91996 1.07004,-2.58091c0.66095,-0.66095 1.57363,-1.0701 2.58091,-1.0701z" fill="url(#color-97)" stroke-width="0.25197"/><path d="M227.66876,183.71816h1.44021v5.52324h-1.44021z" fill="url(#color-98)" stroke-width="0.31371"/></g><g><path d="M230.22657,185.41714c1.00734,0 1.91996,0.40915 2.58091,1.0701c0.66095,0.66089 1.0701,1.57357 1.0701,2.58091c0,1.00728 -0.40915,1.91996 -1.0701,2.58085c-0.66095,0.66095 -1.57357,1.0701 -2.58091,1.0701c-1.00728,0 -1.91996,-0.40915 -2.58091,-1.0701c-0.66089,-0.66089 -1.07004,-1.57357 -1.07004,-2.58085c0,-1.00734 0.40915,-1.92002 1.07004,-2.58091c0.66095,-0.66095 1.57363,-1.0701 2.58091,-1.0701z" fill="url(#color-99)" stroke-width="0.25197"/><path d="M229.46468,186.26718h1.44021v5.5233h-1.44021z" fill="url(#color-100)" stroke-width="0.31371"/></g><g><path d="M235.76885,183.46671c1.00728,0 1.91996,0.40915 2.58091,1.0701c0.66095,0.66095 1.0701,1.57363 1.0701,2.58091c0,1.00728 -0.40915,1.91996 -1.0701,2.58091c-0.66095,0.66089 -1.57363,1.07004 -2.58091,1.07004c-1.00728,0 -1.91996,-0.40915 -2.58091,-1.07004c-0.66089,-0.66095 -1.07004,-1.57363 -1.07004,-2.58091c0,-1.00728 0.40915,-1.91996 1.07004,-2.58091c0.66095,-0.66095 1.57363,-1.0701 2.58091,-1.0701z" fill="url(#color-101)" stroke-width="0.25197"/><path d="M235.00696,184.31681h1.44021v5.52324h-1.44021z" fill="url(#color-102)" stroke-width="0.31371"/></g><g><path d="M240.42285,180.84042c1.00728,0 1.91996,0.40915 2.58085,1.0701c0.66095,0.66089 1.0701,1.57357 1.0701,2.58091c0,1.00728 -0.40915,1.91996 -1.0701,2.58085c-0.66089,0.66095 -1.57357,1.0701 -2.58085,1.0701c-1.00734,0 -1.92002,-0.40915 -2.58091,-1.0701c-0.66095,-0.66089 -1.0701,-1.57357 -1.0701,-2.58085c0,-1.00734 0.40915,-1.92002 1.0701,-2.58091c0.66089,-0.66095 1.57357,-1.0701 2.58091,-1.0701z" fill="url(#color-103)" stroke-width="0.25197"/><path d="M239.6609,181.67119h1.44021v5.52324h-1.44021z" fill="url(#color-104)" stroke-width="0.31371"/></g><g><path d="M239.97866,184.35505c1.00734,0 1.91996,0.40915 2.58091,1.0701c0.66095,0.66089 1.0701,1.57357 1.0701,2.58085c0,1.00734 -0.40915,1.92002 -1.0701,2.58091c-0.66095,0.66095 -1.57357,1.0701 -2.58091,1.0701c-1.00728,0 -1.91996,-0.40915 -2.58091,-1.0701c-0.66089,-0.66089 -1.07004,-1.57357 -1.07004,-2.58091c0,-1.00728 0.40915,-1.91996 1.07004,-2.58085c0.66095,-0.66095 1.57363,-1.0701 2.58091,-1.0701z" fill="url(#color-105)" stroke-width="0.25197"/><path d="M239.19745,185.2244h1.44021v5.5233h-1.44021z" fill="url(#color-106)" stroke-width="0.31371"/></g><g><path d="M236.96613,187.52208c1.00734,0 1.91996,0.40915 2.58091,1.07004c0.66095,0.66095 1.0701,1.57363 1.0701,2.58091c0,1.00728 -0.40915,1.91996 -1.0701,2.58091c-0.66095,0.66089 -1.57357,1.0701 -2.58091,1.0701c-1.00728,0 -1.91996,-0.40921 -2.58091,-1.0701c-0.66089,-0.66095 -1.07004,-1.57363 -1.07004,-2.58091c0,-1.00728 0.40915,-1.91996 1.07004,-2.58091c0.66095,-0.66089 1.57363,-1.07004 2.58091,-1.07004z" fill="url(#color-107)" stroke-width="0.25197"/><path d="M236.20424,188.37211h1.44021v5.5233h-1.44021z" fill="url(#color-108)" stroke-width="0.31371"/></g><g><path d="M232.46669,180.84042c1.00728,0 1.91996,0.40915 2.58085,1.0701c0.66095,0.66089 1.0701,1.57357 1.0701,2.58091c0,1.00728 -0.40915,1.91996 -1.0701,2.58085c-0.66089,0.66095 -1.57357,1.0701 -2.58085,1.0701c-1.00734,0 -1.92002,-0.40915 -2.58091,-1.0701c-0.66095,-0.66089 -1.0701,-1.57357 -1.0701,-2.58085c0,-1.00734 0.40915,-1.92002 1.0701,-2.58091c0.66089,-0.66095 1.57357,-1.0701 2.58091,-1.0701z" fill="url(#color-109)" stroke-width="0.25197"/><path d="M231.70474,181.67119h1.44021v5.52324h-1.44021z" fill="url(#color-110)" stroke-width="0.31371"/></g><g><path d="M220.91868,182.94535c1.00728,0 1.91996,0.40915 2.58085,1.07004c0.66095,0.66095 1.0701,1.57363 1.0701,2.58091c0,1.00728 -0.40915,1.91996 -1.0701,2.58091c-0.66089,0.66089 -1.57357,1.0701 -2.58085,1.0701c-1.00734,0 -1.92002,-0.40921 -2.58091,-1.0701c-0.66095,-0.66095 -1.0701,-1.57363 -1.0701,-2.58091c0,-1.00728 0.40915,-1.91996 1.0701,-2.58091c0.66089,-0.66089 1.57357,-1.07004 2.58091,-1.07004z" fill="url(#color-111)" stroke-width="0.25197"/><path d="M220.15673,183.79539h1.44021v5.5233h-1.44021z" fill="url(#color-112)" stroke-width="0.31371"/></g></g></g></g></g></svg>