<svg version="1.1" xmlns="http://www.w3.org/2000/svg" xmlns:xlink="http://www.w3.org/1999/xlink" width="39.96445" height="39.96452" viewBox="0,0,39.96445,39.96452"><g transform="translate(-220.0178,-160.01774)"><g data-paper-data="{&quot;isPaintingLayer&quot;:true}" fill-rule="nonzero" stroke-width="2.5" stroke-linejoin="miter" stroke-miterlimit="10" stroke-dasharray="" stroke-dashoffset="0" style="mix-blend-mode: normal"><path d="M221.26781,161.26774h37.46445v37.46452h-37.46445z" fill="#e0933a" stroke="#8f5225" stroke-linecap="butt"/><path d="M230.21308,176.00672c0.78627,0.33697 0.87203,1.83083 1.38159,2.4536c2.19453,2.68208 4.74759,5.16699 7.29476,7.54166c0.38139,0.35557 4.78032,3.35999 4.59447,4.24278c0.06158,0.19098 0.09484,0.39466 0.09484,0.60611c0,0.92833 -0.64104,1.70695 -1.50462,1.9173c-1.11757,0.61683 -3.37103,-0.41775 -4.36119,-0.47022c-2.45702,-0.1302 -4.93083,-0.00568 -7.37616,-0.27821c-1.08552,-0.12098 -2.78428,0.35542 -3.21167,-0.64973c-0.35874,-0.27287 -0.62122,-0.66575 -0.72758,-1.1188c-0.99994,-2.62872 -0.04317,-7.97448 0.07936,-10.40873c0.04217,-0.83766 -0.15333,-3.51498 0.74291,-3.8313l1.49349,-0.68354c0.24697,0.17228 0.5525,0.30052 0.84714,0.43703c0.20132,0.06052 0.41809,0.1415 0.65267,0.24204z" fill="#b46f2f" stroke="none" stroke-linecap="butt"/><path d="M246.1579,167.30293c0.81677,-0.02064 1.63158,-0.09008 2.44768,-0.12882c0.07694,-0.00366 2.53285,-0.22454 2.81541,0.26995l0.06659,0.11652c0.44368,0.29347 0.81941,0.84394 1.0099,1.65434c0.99961,4.25246 0.30834,8.72576 0.17384,13.10353c0.06924,0.26514 0.07428,0.51731 -0.00314,0.74957c-0.00642,0.01926 -0.01286,0.03834 -0.01932,0.05727c-0.08506,1.01138 -0.9329,1.80571 -1.96627,1.80571c-0.38433,0 -0.74299,-0.10987 -1.0463,-0.29991c-0.01882,-0.00612 -0.03776,-0.01236 -0.05682,-0.01872c-0.7091,-0.23637 -1.59767,-2.04594 -2.14175,-2.49871c-3.20235,-2.66488 -5.33645,-6.37769 -8.53653,-9.06754c-1.28637,-1.08127 -2.57581,-2.03372 -4.05958,-2.80434c-0.11696,-0.03598 -0.22931,-0.08253 -0.3359,-0.13854c-0.62816,-0.33014 -1.05656,-0.98898 -1.05656,-1.74788c0,-0.87086 0.56412,-1.60995 1.34688,-1.87179c0.0732,-0.03546 0.15169,-0.06206 0.23641,-0.07823c0.97965,-0.18689 2.00779,0.24656 2.95955,0.87631c2.29946,-0.89616 7.0569,0.04932 8.16589,0.02129z" fill="#b46f2f" stroke="none" stroke-linecap="butt"/><path d="M226.96101,173.33515l19.56394,19.21515" data-paper-data="{&quot;origPos&quot;:null}" fill="none" stroke="#8f5225" stroke-linecap="round"/><path d="M252.10342,186.34297l-19.56395,-19.21515" data-paper-data="{&quot;origPos&quot;:null}" fill="none" stroke="#8f5225" stroke-linecap="round"/><path d="M226.77929,167.1281h25.4647v25.4647h-25.4647z" data-paper-data="{&quot;origPos&quot;:null}" fill="none" stroke="#8f5225" stroke-linecap="butt"/></g></g></svg>