<svg version="1.1" xmlns="http://www.w3.org/2000/svg" xmlns:xlink="http://www.w3.org/1999/xlink" width="725.31309" height="374.0479" viewBox="0,0,725.31309,374.0479"><defs><linearGradient x1="325.32493" y1="-0.67224" x2="325.32493" y2="359.40956" gradientUnits="userSpaceOnUse" id="color-1"><stop offset="0" stop-color="#05234d"/><stop offset="1" stop-color="#357abe"/></linearGradient><linearGradient x1="320.4969" y1="-0.67224" x2="320.4969" y2="359.40956" gradientUnits="userSpaceOnUse" id="color-2"><stop offset="0" stop-color="#05234d"/><stop offset="1" stop-color="#357abe"/></linearGradient><linearGradient x1="320.4969" y1="-0.67224" x2="320.4969" y2="359.40956" gradientUnits="userSpaceOnUse" id="color-3"><stop offset="0" stop-color="#05234d"/><stop offset="1" stop-color="#357abe"/></linearGradient><linearGradient x1="320.4969" y1="-0.67224" x2="320.4969" y2="359.40956" gradientUnits="userSpaceOnUse" id="color-4"><stop offset="0" stop-color="#05234d"/><stop offset="1" stop-color="#357abe"/></linearGradient><linearGradient x1="320.4969" y1="-0.67224" x2="320.4969" y2="359.40956" gradientUnits="userSpaceOnUse" id="color-5"><stop offset="0" stop-color="#05234d"/><stop offset="1" stop-color="#357abe"/></linearGradient><linearGradient x1="-185.27933" y1="169.4021" x2="-185.27933" y2="363.44617" gradientUnits="userSpaceOnUse" id="color-6"><stop offset="0" stop-color="#69bdff" stop-opacity="0"/><stop offset="1" stop-color="#69bdff"/></linearGradient><linearGradient x1="-65.59087" y1="169.4021" x2="-65.59087" y2="363.44617" gradientUnits="userSpaceOnUse" id="color-7"><stop offset="0" stop-color="#69bdff" stop-opacity="0"/><stop offset="1" stop-color="#69bdff"/></linearGradient><linearGradient x1="-65.59087" y1="169.4021" x2="-65.59087" y2="363.44617" gradientUnits="userSpaceOnUse" id="color-8"><stop offset="0" stop-color="#69bdff" stop-opacity="0"/><stop offset="1" stop-color="#69bdff"/></linearGradient><linearGradient x1="-65.59087" y1="169.4021" x2="-65.59087" y2="363.44617" gradientUnits="userSpaceOnUse" id="color-9"><stop offset="0" stop-color="#69bdff" stop-opacity="0"/><stop offset="1" stop-color="#69bdff"/></linearGradient><linearGradient x1="-65.59087" y1="169.4021" x2="-65.59087" y2="363.44617" gradientUnits="userSpaceOnUse" id="color-10"><stop offset="0" stop-color="#69bdff" stop-opacity="0"/><stop offset="1" stop-color="#69bdff"/></linearGradient><linearGradient x1="-70.1634" y1="216.42397" x2="-70.1634" y2="453.76539" gradientUnits="userSpaceOnUse" id="color-11"><stop offset="0" stop-color="#1a98ea"/><stop offset="1" stop-color="#226394"/></linearGradient><radialGradient cx="330.05134" cy="217.04107" r="1011.35517" gradientUnits="userSpaceOnUse" id="color-12"><stop offset="0" stop-color="#bce7f7"/><stop offset="1" stop-color="#1bafe5"/></radialGradient><linearGradient x1="-70.1634" y1="216.42397" x2="-70.1634" y2="453.76539" gradientUnits="userSpaceOnUse" id="color-13"><stop offset="0" stop-color="#1bd2f2"/><stop offset="1" stop-color="#1d557f"/></linearGradient><radialGradient cx="330.05134" cy="217.04107" r="1011.35517" gradientUnits="userSpaceOnUse" id="color-14"><stop offset="0" stop-color="#bce7f7"/><stop offset="1" stop-color="#1bafe5"/></radialGradient><linearGradient x1="-70.1634" y1="216.42397" x2="-70.1634" y2="453.76539" gradientUnits="userSpaceOnUse" id="color-15"><stop offset="0" stop-color="#1bd2f2"/><stop offset="1" stop-color="#1d557f"/></linearGradient><radialGradient cx="330.05134" cy="217.04107" r="1011.35517" gradientUnits="userSpaceOnUse" id="color-16"><stop offset="0" stop-color="#bce7f7"/><stop offset="1" stop-color="#1bafe5"/></radialGradient><linearGradient x1="-70.1634" y1="216.42397" x2="-70.1634" y2="453.76539" gradientUnits="userSpaceOnUse" id="color-17"><stop offset="0" stop-color="#1bd2f2"/><stop offset="1" stop-color="#1d557f"/></linearGradient><radialGradient cx="330.05134" cy="217.04107" r="1011.35517" gradientUnits="userSpaceOnUse" id="color-18"><stop offset="0" stop-color="#bce7f7"/><stop offset="1" stop-color="#1bafe5"/></radialGradient><radialGradient cx="342.48923" cy="238.38206" r="117.77056" gradientUnits="userSpaceOnUse" id="color-19"><stop offset="0" stop-color="#d0edff"/><stop offset="1" stop-color="#d0edff" stop-opacity="0"/></radialGradient><linearGradient x1="179.30965" y1="180" x2="460.69038" y2="180" gradientUnits="userSpaceOnUse" id="color-20"><stop offset="0" stop-color="#c0cdd6"/><stop offset="1" stop-color="#f5faff"/></linearGradient><radialGradient cx="57.95791" cy="279.62736" r="125.7396" gradientUnits="userSpaceOnUse" id="color-21"><stop offset="0" stop-color="#d0edff"/><stop offset="1" stop-color="#d0edff" stop-opacity="0"/></radialGradient><radialGradient cx="584.30278" cy="300.51008" r="101.09459" gradientUnits="userSpaceOnUse" id="color-22"><stop offset="0" stop-color="#d0edff"/><stop offset="1" stop-color="#d0edff" stop-opacity="0"/></radialGradient></defs><g transform="translate(36.288,7.02395)"><g data-paper-data="{&quot;isPaintingLayer&quot;:true}" fill-rule="nonzero" stroke-linejoin="miter" stroke-miterlimit="10" stroke-dasharray="" stroke-dashoffset="0" style="mix-blend-mode: normal"><path d="M-5.88235,359.40956c3.66698,-10.49167 1.89004,-358.38768 1.80504,-360.0818h651.79066c0.05525,1.0573 -1.3664,360.0818 -1.3664,360.0818z" fill="url(#color-1)" stroke="none" stroke-width="1" stroke-linecap="butt"/><path d="" fill="url(#color-2)" stroke="none" stroke-width="1" stroke-linecap="butt"/><path d="" fill="url(#color-3)" stroke="none" stroke-width="1" stroke-linecap="butt"/><path d="" fill="url(#color-4)" stroke="none" stroke-width="1" stroke-linecap="butt"/><path d="" fill="url(#color-5)" stroke="none" stroke-width="1" stroke-linecap="butt"/><path d="" fill="#8ecad1" stroke="none" stroke-width="0.5" stroke-linecap="butt"/><path d="" fill="#8ecad1" stroke="none" stroke-width="0.5" stroke-linecap="butt"/><path d="" fill="#8ecad1" stroke="none" stroke-width="0.5" stroke-linecap="butt"/><path d="" fill="#8ecad1" stroke="none" stroke-width="0.5" stroke-linecap="butt"/><path d="" fill="#8ecad1" stroke="none" stroke-width="0.5" stroke-linecap="butt"/><path d="" fill="#8ecad1" stroke="none" stroke-width="0.5" stroke-linecap="butt"/><path d="" fill="#8ecad1" stroke="none" stroke-width="0.5" stroke-linecap="butt"/><path d="M144.50478,54.14022c0,-0.2762 0.22391,-0.50012 0.50012,-0.50012c0.27621,0 0.50011,0.22391 0.50011,0.50012c0,0.2762 -0.22391,0.50012 -0.50011,0.50012c-0.27621,0 -0.50012,-0.22391 -0.50012,-0.50012z" fill="#c6e9ed" stroke="none" stroke-width="0.5" stroke-linecap="butt"/><path d="M219.52186,101.15089c0,-0.27621 0.22391,-0.50011 0.50011,-0.50011c0.27621,0 0.50012,0.22391 0.50012,0.50011c0,0.27621 -0.22392,0.50012 -0.50012,0.50012c-0.27621,0 -0.50011,-0.22391 -0.50011,-0.50012z" fill="#c6e9ed" stroke="none" stroke-width="0.5" stroke-linecap="butt"/><path d="M171.511,109.15271c0,-0.27621 0.22391,-0.50012 0.50011,-0.50012c0.27621,0 0.50012,0.22391 0.50012,0.50012c0,0.27621 -0.22391,0.50011 -0.50012,0.50011c-0.27621,0 -0.50011,-0.22391 -0.50011,-0.50011z" fill="#c6e9ed" stroke="none" stroke-width="0.5" stroke-linecap="butt"/><path d="M275.53463,43.13772c0,-0.2762 0.22391,-0.50012 0.50011,-0.50012c0.27621,0 0.50011,0.22391 0.50011,0.50012c0,0.2762 -0.22391,0.50012 -0.50011,0.50012c-0.27621,0 -0.50011,-0.22391 -0.50011,-0.50012z" fill="#c6e9ed" stroke="none" stroke-width="0.5" stroke-linecap="butt"/><path d="" fill="#8ecad1" stroke="none" stroke-width="0.5" stroke-linecap="butt"/><path d="M192.51577,36.13611c0,-0.2762 0.22391,-0.50012 0.50012,-0.50012c0.27621,0 0.50011,0.22392 0.50011,0.50012c0,0.2762 -0.22391,0.50012 -0.50011,0.50012c-0.27621,0 -0.50012,-0.22391 -0.50012,-0.50012z" fill="#c6e9ed" stroke="none" stroke-width="0.5" stroke-linecap="butt"/><path d="M320.54486,112.15339c0,-0.27621 0.22391,-0.50011 0.50011,-0.50011c0.27621,0 0.50012,0.22391 0.50012,0.50011c0,0.27621 -0.22391,0.50012 -0.50012,0.50012c-0.27621,0 -0.50011,-0.22391 -0.50011,-0.50012z" fill="#c6e9ed" stroke="none" stroke-width="0.5" stroke-linecap="butt"/><path d="M282.53623,142.16019c0,-0.27621 0.22391,-0.50011 0.50012,-0.50011c0.27621,0 0.50012,0.22391 0.50012,0.50011c0,0.27621 -0.22391,0.50011 -0.50012,0.50011c-0.27621,0 -0.50012,-0.22391 -0.50012,-0.50011z" fill="#c6e9ed" stroke="none" stroke-width="0.5" stroke-linecap="butt"/><path d="M383.55916,148.16158c0,-0.27621 0.22391,-0.50011 0.50011,-0.50011c0.27621,0 0.50011,0.22391 0.50011,0.50011c0,0.27621 -0.22391,0.50011 -0.50011,0.50011c-0.27621,0 -0.50011,-0.22391 -0.50011,-0.50011z" fill="#c6e9ed" stroke="none" stroke-width="0.5" stroke-linecap="butt"/><path d="M352.55212,61.1418c0,-0.2762 0.22391,-0.50011 0.50011,-0.50011c0.27621,0 0.50011,0.22391 0.50011,0.50011c0,0.2762 -0.22391,0.50012 -0.50011,0.50012c-0.27621,0 -0.50011,-0.22392 -0.50011,-0.50012z" fill="#c6e9ed" stroke="none" stroke-width="0.5" stroke-linecap="butt"/><path d="M420.5676,49.13908c0,-0.2762 0.22391,-0.50012 0.50012,-0.50012c0.27621,0 0.50011,0.22391 0.50011,0.50012c0,0.2762 -0.22391,0.50012 -0.50011,0.50012c-0.27621,0 -0.50012,-0.22391 -0.50012,-0.50012z" fill="#c6e9ed" stroke="none" stroke-width="0.5" stroke-linecap="butt"/><path d="M456.57578,90.1484c0,-0.27621 0.22391,-0.50012 0.50011,-0.50012c0.27621,0 0.50011,0.22391 0.50011,0.50012c0,0.27621 -0.22391,0.50011 -0.50011,0.50011c-0.27621,0 -0.50011,-0.22391 -0.50011,-0.50011z" fill="#c6e9ed" stroke="none" stroke-width="0.5" stroke-linecap="butt"/><path d="M446.57352,175.16772c0,-0.27621 0.22391,-0.50012 0.50011,-0.50012c0.27621,0 0.50011,0.22392 0.50011,0.50012c0,0.27621 -0.22391,0.50011 -0.50011,0.50011c-0.27621,0 -0.50011,-0.22391 -0.50011,-0.50011z" fill="#c6e9ed" stroke="none" stroke-width="0.5" stroke-linecap="butt"/><path d="M542.59531,157.16359c0,-0.27621 0.22391,-0.50011 0.50011,-0.50011c0.27621,0 0.50011,0.22391 0.50011,0.50011c0,0.27621 -0.22391,0.50012 -0.50011,0.50012c-0.27621,0 -0.50011,-0.22391 -0.50011,-0.50012z" fill="#c6e9ed" stroke="none" stroke-width="0.5" stroke-linecap="butt"/><path d="M500.58577,129.15724c0,-0.27621 0.22391,-0.50011 0.50012,-0.50011c0.27621,0 0.50011,0.22391 0.50011,0.50011c0,0.27621 -0.22391,0.50011 -0.50011,0.50011c-0.27621,0 -0.50012,-0.22391 -0.50012,-0.50011z" fill="#c6e9ed" stroke="none" stroke-width="0.5" stroke-linecap="butt"/><path d="M538.59441,65.14272c0,-0.27621 0.22391,-0.50012 0.50011,-0.50012c0.27621,0 0.50011,0.22391 0.50011,0.50012c0,0.27621 -0.22391,0.50011 -0.50011,0.50011c-0.27621,0 -0.50011,-0.22391 -0.50011,-0.50011z" fill="#c6e9ed" stroke="none" stroke-width="0.5" stroke-linecap="butt"/><path d="M486.58259,36.13611c0,-0.2762 0.22391,-0.50012 0.50011,-0.50012c0.27621,0 0.50011,0.22392 0.50011,0.50012c0,0.2762 -0.22391,0.50012 -0.50011,0.50012c-0.27621,0 -0.50011,-0.22391 -0.50011,-0.50012z" fill="#c6e9ed" stroke="none" stroke-width="0.5" stroke-linecap="butt"/><path d="M360.55392,24.1334c0,-0.27621 0.22391,-0.50012 0.50011,-0.50012c0.27621,0 0.50011,0.22391 0.50011,0.50012c0,0.27621 -0.22391,0.50011 -0.50011,0.50011c-0.27621,0 -0.50011,-0.22391 -0.50011,-0.50011z" fill="#c6e9ed" stroke="none" stroke-width="0.5" stroke-linecap="butt"/><path d="M175.51191,210.17567c0,-0.27621 0.22391,-0.50011 0.50011,-0.50011c0.27621,0 0.50012,0.22391 0.50012,0.50011c0,0.27621 -0.22391,0.50011 -0.50012,0.50011c-0.27621,0 -0.50011,-0.22391 -0.50011,-0.50011z" fill="#c6e9ed" stroke="none" stroke-width="0.5" stroke-linecap="butt"/><path d="M123.50009,150.16203c0,-0.27621 0.22391,-0.50012 0.50012,-0.50012c0.2762,0 0.50012,0.22391 0.50012,0.50012c0,0.27621 -0.22391,0.50011 -0.50012,0.50011c-0.2762,0 -0.50012,-0.22391 -0.50012,-0.50011z" fill="#c6e9ed" stroke="none" stroke-width="0.5" stroke-linecap="butt"/><path d="M532.59304,222.17839c0,-0.27621 0.22391,-0.50011 0.50011,-0.50011c0.27621,0 0.50012,0.22391 0.50012,0.50011c0,0.27621 -0.22391,0.50011 -0.50012,0.50011c-0.27621,0 -0.50011,-0.22391 -0.50011,-0.50011z" fill="#c6e9ed" stroke="none" stroke-width="0.5" stroke-linecap="butt"/><path d="M100.49483,30.13476c0,-0.27621 0.22391,-0.50012 0.50012,-0.50012c0.27621,0 0.50012,0.22391 0.50012,0.50012c0,0.27621 -0.22391,0.50012 -0.50012,0.50012c-0.27621,0 -0.50012,-0.22391 -0.50012,-0.50012z" fill="#c6e9ed" stroke="none" stroke-width="0.5" stroke-linecap="butt"/><path d="M208.51935,186.17022c0,-0.27621 0.22391,-0.50011 0.50011,-0.50011c0.27621,0 0.50011,0.22391 0.50011,0.50011c0,0.27621 -0.22391,0.50011 -0.50011,0.50011c-0.27621,0 -0.50011,-0.22391 -0.50011,-0.50011z" fill="#c6e9ed" stroke="none" stroke-width="0.5" stroke-linecap="butt"/><path d="M338.54894,169.16635c0,-0.27621 0.22391,-0.50011 0.50011,-0.50011c0.27621,0 0.50012,0.22391 0.50012,0.50011c0,0.27621 -0.22391,0.50011 -0.50012,0.50011c-0.27621,0 -0.50011,-0.22391 -0.50011,-0.50011z" fill="#c6e9ed" stroke="none" stroke-width="0.5" stroke-linecap="butt"/><path d="M221.02221,148.66169c-0.50011,0 -0.50011,-0.50011 -0.50011,-0.50011c0,-0.1667 0,-0.83352 0,-1.00023c0,0 0,-0.50011 0.50011,-0.50011c0.50011,0 0.50011,0.50011 0.50011,0.50011c0,0.1667 0,0.33342 0,0.50011v0.50011c0,0 0,0.50011 -0.50011,0.50011z" fill="#c6e9ed" stroke="none" stroke-width="0.5" stroke-linecap="butt"/><path d="M432.57033,129.15724c0,-0.27621 0.22391,-0.50011 0.50011,-0.50011c0.27621,0 0.50011,0.22391 0.50011,0.50011c0,0.27621 -0.22391,0.50011 -0.50011,0.50011c-0.27621,0 -0.50011,-0.22391 -0.50011,-0.50011z" fill="#c6e9ed" stroke="none" stroke-width="0.5" stroke-linecap="butt"/><path d="M182.76356,68.14338c0,-0.69052 0.55976,-1.25029 1.25028,-1.25029c0.69052,0 1.25028,0.55976 1.25028,1.25029c0,0.69052 -0.55976,1.25028 -1.25028,1.25028c-0.69052,0 -1.25028,-0.55976 -1.25028,-1.25028z" fill="#c6e9ed" stroke="none" stroke-width="0.5" stroke-linecap="butt"/><path d="M271.78378,110.15293c0,-0.69052 0.55976,-1.25029 1.25028,-1.25029c0.69052,0 1.25028,0.55976 1.25028,1.25029c0,0.69052 -0.55976,1.25028 -1.25028,1.25028c-0.69052,0 -1.25028,-0.55976 -1.25028,-1.25028z" fill="#c6e9ed" stroke="none" stroke-width="0.5" stroke-linecap="butt"/><path d="M320.79492,39.1368c0,-0.69052 0.55976,-1.25029 1.25028,-1.25029c0.69052,0 1.25028,0.55977 1.25028,1.25029c0,0.69052 -0.55976,1.25028 -1.25028,1.25028c-0.69052,0 -1.25028,-0.55976 -1.25028,-1.25028z" fill="#c6e9ed" stroke="none" stroke-width="0.5" stroke-linecap="butt"/><path d="M390.81076,105.1518c0,-0.69052 0.55977,-1.25029 1.25029,-1.25029c0.69052,0 1.25028,0.55976 1.25028,1.25029c0,0.69052 -0.55976,1.25029 -1.25028,1.25029c-0.69052,0 -1.25029,-0.55976 -1.25029,-1.25029z" fill="#c6e9ed" stroke="none" stroke-width="0.5" stroke-linecap="butt"/><path d="M505.83697,92.14884c0,-0.69052 0.55976,-1.25028 1.25028,-1.25028c0.69052,0 1.25029,0.55976 1.25029,1.25028c0,0.69052 -0.55977,1.25029 -1.25029,1.25029c-0.69052,0 -1.25028,-0.55976 -1.25028,-1.25029z" fill="#c6e9ed" stroke="none" stroke-width="0.5" stroke-linecap="butt"/><path d="M439.82198,26.13385c0,-0.69052 0.55977,-1.25028 1.25029,-1.25028c0.69052,0 1.25028,0.55976 1.25028,1.25028c0,0.69052 -0.55976,1.25028 -1.25028,1.25028c-0.69052,0 -1.25029,-0.55976 -1.25029,-1.25028z" fill="#c6e9ed" stroke="none" stroke-width="0.5" stroke-linecap="butt"/><path d="M500.83582,188.17066c0,-0.69052 0.55977,-1.25028 1.25029,-1.25028c0.69052,0 1.25028,0.55976 1.25028,1.25028c0,0.69052 -0.55976,1.25028 -1.25028,1.25028c-0.69052,0 -1.25029,-0.55976 -1.25029,-1.25028z" fill="#c6e9ed" stroke="none" stroke-width="0.5" stroke-linecap="butt"/><path d="M383.80919,188.17066c0,-0.69052 0.55976,-1.25028 1.25028,-1.25028c0.69052,0 1.25028,0.55976 1.25028,1.25028c0,0.69052 -0.55976,1.25028 -1.25028,1.25028c-0.69052,0 -1.25028,-0.55976 -1.25028,-1.25028z" fill="#c6e9ed" stroke="none" stroke-width="0.5" stroke-linecap="butt"/><path d="M275.7847,188.17066c0,-0.69052 0.55976,-1.25028 1.25028,-1.25028c0.69052,0 1.25028,0.55976 1.25028,1.25028c0,0.69052 -0.55976,1.25028 -1.25028,1.25028c-0.69052,0 -1.25028,-0.55976 -1.25028,-1.25028z" fill="#c6e9ed" stroke="none" stroke-width="0.5" stroke-linecap="butt"/><path d="M166.75992,155.16314c0,-0.69052 0.55976,-1.25029 1.25029,-1.25029c0.69052,0 1.25028,0.55977 1.25028,1.25029c0,0.69052 -0.55976,1.25028 -1.25028,1.25028c-0.69052,0 -1.25029,-0.55976 -1.25029,-1.25028z" fill="#c6e9ed" stroke="none" stroke-width="0.5" stroke-linecap="butt"/><path d="M117.74875,207.17498c0,-0.69052 0.55976,-1.25029 1.25028,-1.25029c0.69052,0 1.25028,0.55977 1.25028,1.25029c0,0.69052 -0.55976,1.25028 -1.25028,1.25028c-0.69052,0 -1.25028,-0.55976 -1.25028,-1.25028z" fill="#c6e9ed" stroke="none" stroke-width="0.5" stroke-linecap="butt"/><path d="M105.74607,110.15293c0,-0.69052 0.55976,-1.25029 1.25028,-1.25029c0.69052,0 1.25029,0.55976 1.25029,1.25029c0,0.69052 -0.55977,1.25028 -1.25029,1.25028c-0.69052,0 -1.25028,-0.55976 -1.25028,-1.25028z" fill="#c6e9ed" stroke="none" stroke-width="0.5" stroke-linecap="butt"/><path d="M144.75487,32.13521c0,-0.69052 0.55976,-1.25029 1.25028,-1.25029c0.69052,0 1.25029,0.55977 1.25029,1.25029c0,0.69052 -0.55976,1.25028 -1.25029,1.25028c-0.69052,0 -1.25028,-0.55976 -1.25028,-1.25028z" fill="#c6e9ed" stroke="none" stroke-width="0.5" stroke-linecap="butt"/><path d="M241.77687,66.14293c0,-0.69052 0.55976,-1.25028 1.25028,-1.25028c0.69052,0 1.25029,0.55976 1.25029,1.25028c0,0.69052 -0.55977,1.25028 -1.25029,1.25028c-0.69052,0 -1.25028,-0.55976 -1.25028,-1.25028z" fill="#c6e9ed" stroke="none" stroke-width="0.5" stroke-linecap="butt"/><path d="M433.82062,84.14703c0,-0.69052 0.55977,-1.25028 1.25029,-1.25028c0.69052,0 1.25029,0.55976 1.25029,1.25028c0,0.69052 -0.55977,1.25029 -1.25029,1.25029c-0.69052,0 -1.25029,-0.55976 -1.25029,-1.25029z" fill="#c6e9ed" stroke="none" stroke-width="0.5" stroke-linecap="butt"/><path d="M375.80738,42.13749c0,-0.69052 0.55977,-1.25028 1.25029,-1.25028c0.69052,0 1.25029,0.55976 1.25029,1.25028c0,0.69052 -0.55977,1.25028 -1.25029,1.25028c-0.69052,0 -1.25029,-0.55976 -1.25029,-1.25028z" fill="#c6e9ed" stroke="none" stroke-width="0.5" stroke-linecap="butt"/><path d="M472.82947,58.14112c0,-0.69052 0.55977,-1.25028 1.25029,-1.25028c0.69052,0 1.25028,0.55976 1.25028,1.25028c0,0.69052 -0.55976,1.25028 -1.25028,1.25028c-0.69052,0 -1.25029,-0.55976 -1.25029,-1.25028z" fill="#c6e9ed" stroke="none" stroke-width="0.5" stroke-linecap="butt"/><path d="M455.82561,143.16043c0,-0.69052 0.55976,-1.25028 1.25028,-1.25028c0.69052,0 1.25028,0.55976 1.25028,1.25028c0,0.69052 -0.55976,1.25028 -1.25028,1.25028c-0.69052,0 -1.25028,-0.55976 -1.25028,-1.25028z" fill="#c6e9ed" stroke="none" stroke-width="0.5" stroke-linecap="butt"/><path d="M529.84241,216.17702c0,-0.69052 0.55976,-1.25028 1.25028,-1.25028c0.69052,0 1.25028,0.55976 1.25028,1.25028c0,0.69052 -0.55976,1.25028 -1.25028,1.25028c-0.69052,0 -1.25028,-0.55976 -1.25028,-1.25028z" fill="#c6e9ed" stroke="none" stroke-width="0.5" stroke-linecap="butt"/><path d="M152.75672,189.17088c0,-0.69052 0.55976,-1.25028 1.25028,-1.25028c0.69052,0 1.25029,0.55976 1.25029,1.25028c0,0.69052 -0.55976,1.25029 -1.25029,1.25029c-0.69052,0 -1.25028,-0.55977 -1.25028,-1.25029z" fill="#c6e9ed" stroke="none" stroke-width="0.5" stroke-linecap="butt"/><path d="M128.75128,100.15066c0,-0.69052 0.55976,-1.25028 1.25028,-1.25028c0.69052,0 1.25028,0.55976 1.25028,1.25028c0,0.69052 -0.55976,1.25029 -1.25028,1.25029c-0.69052,0 -1.25028,-0.55976 -1.25028,-1.25029z" fill="#c6e9ed" stroke="none" stroke-width="0.5" stroke-linecap="butt"/><path d="M93.74332,172.16702c0,-0.69052 0.55977,-1.25028 1.25028,-1.25028c0.69052,0 1.25029,0.55976 1.25029,1.25028c0,0.69052 -0.55977,1.25028 -1.25029,1.25028c-0.69052,0 -1.25028,-0.55976 -1.25028,-1.25028z" fill="#c6e9ed" stroke="none" stroke-width="0.5" stroke-linecap="butt"/><path d="M347.80104,138.15929c0,-0.69052 0.55976,-1.25028 1.25028,-1.25028c0.69052,0 1.25028,0.55976 1.25028,1.25028c0,0.69052 -0.55976,1.25028 -1.25028,1.25028c-0.69052,0 -1.25028,-0.55976 -1.25028,-1.25028z" fill="#c6e9ed" stroke="none" stroke-width="0.5" stroke-linecap="butt"/><path d="M312.7931,80.14611c0,-0.69052 0.55977,-1.25029 1.25029,-1.25029c0.69052,0 1.25028,0.55976 1.25028,1.25029c0,0.69052 -0.55976,1.25029 -1.25028,1.25029c-0.69052,0 -1.25029,-0.55976 -1.25029,-1.25029z" fill="#c6e9ed" stroke="none" stroke-width="0.5" stroke-linecap="butt"/><path d="M536.84401,29.13452c0,-0.69052 0.55977,-1.25028 1.25029,-1.25028c0.69052,0 1.25029,0.55976 1.25029,1.25028c0,0.69052 -0.55977,1.25029 -1.25029,1.25029c-0.69052,0 -1.25029,-0.55977 -1.25029,-1.25029z" fill="#c6e9ed" stroke="none" stroke-width="0.5" stroke-linecap="butt"/><path d="M532.84311,132.15793c0,-0.69052 0.55976,-1.25028 1.25028,-1.25028c0.69052,0 1.25028,0.55976 1.25028,1.25028c0,0.69052 -0.55976,1.25029 -1.25028,1.25029c-0.69052,0 -1.25028,-0.55977 -1.25028,-1.25029z" fill="#c6e9ed" stroke="none" stroke-width="0.5" stroke-linecap="butt"/><path d="M198.01702,132.15793c0,-1.10482 0.89563,-2.00045 2.00045,-2.00045c1.10482,0 2.00046,0.89563 2.00046,2.00045c0,1.10482 -0.89563,2.00046 -2.00046,2.00046c-1.10482,0 -2.00045,-0.89564 -2.00045,-2.00046z" fill="#8ecad1" stroke="none" stroke-width="0.5" stroke-linecap="butt"/><path d="M104.99589,60.14157c0,-1.10482 0.89563,-2.00045 2.00045,-2.00045c1.10482,0 2.00046,0.89563 2.00046,2.00045c0,1.10482 -0.89564,2.00045 -2.00046,2.00045c-1.10482,0 -2.00045,-0.89563 -2.00045,-2.00045z" fill="#8ecad1" stroke="none" stroke-width="0.5" stroke-linecap="butt"/><path d="M173.01134,16.13155c0,-1.10482 0.89563,-2.00046 2.00046,-2.00046c1.10482,0 2.00045,0.89564 2.00045,2.00046c0,1.10482 -0.89563,2.00045 -2.00045,2.00045c-1.10482,0 -2.00046,-0.89563 -2.00046,-2.00045z" fill="#8ecad1" stroke="none" stroke-width="0.5" stroke-linecap="butt"/><path d="M252.02928,128.15702c0,-1.10482 0.89563,-2.00045 2.00045,-2.00045c1.10482,0 2.00045,0.89563 2.00045,2.00045c0,1.10482 -0.89563,2.00046 -2.00045,2.00046c-1.10482,0 -2.00045,-0.89564 -2.00045,-2.00046z" fill="#8ecad1" stroke="none" stroke-width="0.5" stroke-linecap="butt"/><path d="M247.02811,23.13317c0,-1.10482 0.89563,-2.00045 2.00045,-2.00045c1.10482,0 2.00045,0.89563 2.00045,2.00045c0,1.10482 -0.89563,2.00045 -2.00045,2.00045c-1.10482,0 -2.00045,-0.89563 -2.00045,-2.00045z" fill="#8ecad1" stroke="none" stroke-width="0.5" stroke-linecap="butt"/><path d="M303.04088,157.16359c0,-1.10482 0.89564,-2.00045 2.00046,-2.00045c1.10482,0 2.00045,0.89563 2.00045,2.00045c0,1.10482 -0.89563,2.00045 -2.00045,2.00045c-1.10482,0 -2.00046,-0.89563 -2.00046,-2.00045z" fill="#8ecad1" stroke="none" stroke-width="0.5" stroke-linecap="butt"/><path d="M359.05356,99.15043c0,-1.10482 0.89564,-2.00045 2.00046,-2.00045c1.10482,0 2.00045,0.89563 2.00045,2.00045c0,1.10482 -0.89563,2.00045 -2.00045,2.00045c-1.10482,0 -2.00046,-0.89563 -2.00046,-2.00045z" fill="#8ecad1" stroke="none" stroke-width="0.5" stroke-linecap="butt"/><path d="M297.03953,26.13385c0,-1.10482 0.89563,-2.00045 2.00045,-2.00045c1.10482,0 2.00045,0.89563 2.00045,2.00045c0,1.10482 -0.89563,2.00045 -2.00045,2.00045c-1.10482,0 -2.00045,-0.89563 -2.00045,-2.00045z" fill="#8ecad1" stroke="none" stroke-width="0.5" stroke-linecap="butt"/><path d="M275.03452,82.14658c0,-1.10482 0.89563,-2.00046 2.00045,-2.00046c1.10482,0 2.00045,0.89563 2.00045,2.00046c0,1.10482 -0.89563,2.00045 -2.00045,2.00045c-1.10482,0 -2.00045,-0.89563 -2.00045,-2.00045z" fill="#8ecad1" stroke="none" stroke-width="0.5" stroke-linecap="butt"/><path d="M414.06607,160.16429c0,-1.10482 0.89563,-2.00045 2.00045,-2.00045c1.10482,0 2.00045,0.89563 2.00045,2.00045c0,1.10482 -0.89563,2.00045 -2.00045,2.00045c-1.10482,0 -2.00045,-0.89563 -2.00045,-2.00045z" fill="#8ecad1" stroke="none" stroke-width="0.5" stroke-linecap="butt"/><path d="M467.07816,120.1552c0,-1.10482 0.89564,-2.00045 2.00046,-2.00045c1.10482,0 2.00045,0.89563 2.00045,2.00045c0,1.10482 -0.89563,2.00045 -2.00045,2.00045c-1.10482,0 -2.00046,-0.89563 -2.00046,-2.00045z" fill="#8ecad1" stroke="none" stroke-width="0.5" stroke-linecap="butt"/><path d="M390.06058,72.14427c0,-1.10482 0.89564,-2.00045 2.00046,-2.00045c1.10482,0 2.00045,0.89563 2.00045,2.00045c0,1.10482 -0.89563,2.00045 -2.00045,2.00045c-1.10482,0 -2.00046,-0.89563 -2.00046,-2.00045z" fill="#8ecad1" stroke="none" stroke-width="0.5" stroke-linecap="butt"/><path d="M407.06445,23.13317c0,-1.10482 0.89563,-2.00045 2.00045,-2.00045c1.10482,0 2.00045,0.89563 2.00045,2.00045c0,1.10482 -0.89563,2.00045 -2.00045,2.00045c-1.10482,0 -2.00045,-0.89563 -2.00045,-2.00045z" fill="#8ecad1" stroke="none" stroke-width="0.5" stroke-linecap="butt"/><path d="M491.08362,21.13271c0,-1.10482 0.89563,-2.00045 2.00045,-2.00045c1.10482,0 2.00045,0.89563 2.00045,2.00045c0,1.10482 -0.89563,2.00045 -2.00045,2.00045c-1.10482,0 -2.00045,-0.89563 -2.00045,-2.00045z" fill="#8ecad1" stroke="none" stroke-width="0.5" stroke-linecap="butt"/><path d="M539.09452,93.14907c0,-1.10482 0.89563,-2.00046 2.00045,-2.00046c1.10482,0 2.00045,0.89563 2.00045,2.00046c0,1.10482 -0.89563,2.00045 -2.00045,2.00045c-1.10482,0 -2.00045,-0.89563 -2.00045,-2.00045z" fill="#8ecad1" stroke="none" stroke-width="0.5" stroke-linecap="butt"/><path d="M403.06355,129.15723c0,-1.10482 0.89563,-2.00046 2.00045,-2.00046c1.10482,0 2.00045,0.89564 2.00045,2.00046c0,1.10482 -0.89563,2.00045 -2.00045,2.00045c-1.10482,0 -2.00045,-0.89563 -2.00045,-2.00045z" fill="#8ecad1" stroke="none" stroke-width="0.5" stroke-linecap="butt"/><path d="M461.0768,196.17248c0,-1.10482 0.89563,-2.00046 2.00045,-2.00046c1.10482,0 2.00045,0.89564 2.00045,2.00046c0,1.10482 -0.89563,2.00045 -2.00045,2.00045c-1.10482,0 -2.00045,-0.89563 -2.00045,-2.00045z" fill="#8ecad1" stroke="none" stroke-width="0.5" stroke-linecap="butt"/><path d="M497.08498,152.16247c0,-1.10482 0.89563,-2.00045 2.00045,-2.00045c1.10482,0 2.00046,0.89563 2.00046,2.00045c0,1.10482 -0.89564,2.00045 -2.00046,2.00045c-1.10482,0 -2.00045,-0.89563 -2.00045,-2.00045z" fill="#8ecad1" stroke="none" stroke-width="0.5" stroke-linecap="butt"/><path d="M542.09521,188.17066c0,-1.10482 0.89563,-2.00045 2.00045,-2.00045c1.10482,0 2.00045,0.89563 2.00045,2.00045c0,1.10482 -0.89563,2.00045 -2.00045,2.00045c-1.10482,0 -2.00045,-0.89563 -2.00045,-2.00045z" fill="#8ecad1" stroke="none" stroke-width="0.5" stroke-linecap="butt"/><path d="M327.04634,199.17316c0,-1.10482 0.89563,-2.00045 2.00045,-2.00045c1.10482,0 2.00045,0.89563 2.00045,2.00045c0,1.10482 -0.89563,2.00045 -2.00045,2.00045c-1.10482,0 -2.00045,-0.89563 -2.00045,-2.00045z" fill="#8ecad1" stroke="none" stroke-width="0.5" stroke-linecap="butt"/><path d="M142.0043,129.15723c0,-1.10482 0.89563,-2.00046 2.00045,-2.00046c1.10482,0 2.00045,0.89564 2.00045,2.00046c0,1.10482 -0.89563,2.00045 -2.00045,2.00045c-1.10482,0 -2.00045,-0.89563 -2.00045,-2.00045z" fill="#8ecad1" stroke="none" stroke-width="0.5" stroke-linecap="butt"/><path d="M243.02715,204.17429c0,-1.10482 0.89563,-2.00045 2.00045,-2.00045c1.10482,0 2.00046,0.89563 2.00046,2.00045c0,1.10482 -0.89564,2.00045 -2.00046,2.00045c-1.10482,0 -2.00045,-0.89563 -2.00045,-2.00045z" fill="#8ecad1" stroke="none" stroke-width="0.5" stroke-linecap="butt"/><path d="M254.02976,160.16429c0,-1.10482 0.89563,-2.00045 2.00045,-2.00045c1.10482,0 2.00045,0.89563 2.00045,2.00045c0,1.10482 -0.89563,2.00045 -2.00045,2.00045c-1.10482,0 -2.00045,-0.89563 -2.00045,-2.00045z" fill="#8ecad1" stroke="none" stroke-width="0.5" stroke-linecap="butt"/><path d="M424.0684,204.17429c0,-1.10482 0.89563,-2.00045 2.00045,-2.00045c1.10482,0 2.00045,0.89563 2.00045,2.00045c0,1.10482 -0.89563,2.00045 -2.00045,2.00045c-1.10482,0 -2.00045,-0.89563 -2.00045,-2.00045z" fill="#8ecad1" stroke="none" stroke-width="0.5" stroke-linecap="butt"/><path d="M180.01293,180.16884c0,-1.10482 0.89563,-2.00046 2.00045,-2.00046c1.10482,0 2.00045,0.89564 2.00045,2.00046c0,1.10482 -0.89563,2.00045 -2.00045,2.00045c-1.10482,0 -2.00045,-0.89563 -2.00045,-2.00045z" fill="#8ecad1" stroke="none" stroke-width="0.5" stroke-linecap="butt"/><path d="M120.99946,175.16771c0,-1.10482 0.89563,-2.00046 2.00045,-2.00046c1.10482,0 2.00046,0.89564 2.00046,2.00046c0,1.10482 -0.89564,2.00045 -2.00046,2.00045c-1.10482,0 -2.00045,-0.89563 -2.00045,-2.00045z" fill="#8ecad1" stroke="none" stroke-width="0.5" stroke-linecap="butt"/><path d="M89.99242,230.1802c0,-1.10482 0.89563,-2.00045 2.00045,-2.00045c1.10482,0 2.00045,0.89563 2.00045,2.00045c0,1.10482 -0.89563,2.00046 -2.00045,2.00046c-1.10482,0 -2.00045,-0.89564 -2.00045,-2.00046z" fill="#8ecad1" stroke="none" stroke-width="0.5" stroke-linecap="butt"/><path d="M507.08725,56.14066c0,-1.10482 0.89563,-2.00045 2.00045,-2.00045c1.10482,0 2.00045,0.89563 2.00045,2.00045c0,1.10482 -0.89563,2.00045 -2.00045,2.00045c-1.10482,0 -2.00045,-0.89563 -2.00045,-2.00045z" fill="#8ecad1" stroke="none" stroke-width="0.5" stroke-linecap="butt"/><path d="M223.02266,46.13839c0,-1.10482 0.89563,-2.00046 2.00045,-2.00046c1.10482,0 2.00046,0.89564 2.00046,2.00046c0,1.10482 -0.89564,2.00045 -2.00046,2.00045c-1.10482,0 -2.00045,-0.89563 -2.00045,-2.00045z" fill="#8ecad1" stroke="none" stroke-width="0.5" stroke-linecap="butt"/><path d="M298.03975,57.14089c0,-1.10482 0.89564,-2.00046 2.00046,-2.00046c1.10482,0 2.00045,0.89564 2.00045,2.00046c0,1.10482 -0.89563,2.00045 -2.00045,2.00045c-1.10482,0 -2.00046,-0.89563 -2.00046,-2.00045z" fill="#8ecad1" stroke="none" stroke-width="0.5" stroke-linecap="butt"/><path d="M301.04043,124.15612c0,-1.10482 0.89563,-2.00045 2.00045,-2.00045c1.10482,0 2.00046,0.89563 2.00046,2.00045c0,1.10482 -0.89564,2.00045 -2.00046,2.00045c-1.10482,0 -2.00045,-0.89563 -2.00045,-2.00045z" fill="#8ecad1" stroke="none" stroke-width="0.5" stroke-linecap="butt"/><path d="M192.01566,93.14907c0,-1.10482 0.89563,-2.00046 2.00045,-2.00046c1.10482,0 2.00046,0.89563 2.00046,2.00046c0,1.10482 -0.89563,2.00045 -2.00046,2.00045c-1.10482,0 -2.00045,-0.89563 -2.00045,-2.00045z" fill="#8ecad1" stroke="none" stroke-width="0.5" stroke-linecap="butt"/><path d="M147.00543,82.14658c0,-1.10482 0.89563,-2.00046 2.00045,-2.00046c1.10482,0 2.00046,0.89563 2.00046,2.00046c0,1.10482 -0.89563,2.00045 -2.00046,2.00045c-1.10482,0 -2.00045,-0.89563 -2.00045,-2.00045z" fill="#8ecad1" stroke="none" stroke-width="0.5" stroke-linecap="butt"/><path d="M88.99219,133.15813c0,-1.10482 0.89563,-2.00045 2.00045,-2.00045c1.10482,0 2.00046,0.89563 2.00046,2.00045c0,1.10482 -0.89564,2.00045 -2.00046,2.00045c-1.10482,0 -2.00045,-0.89563 -2.00045,-2.00045z" fill="#8ecad1" stroke="none" stroke-width="0.5" stroke-linecap="butt"/><path d="M-8.97732,363.44617c0,0 3.6458,-161.37442 1.62356,-194.04407h654.74588l-2.09511,194.04408z" fill="url(#color-6)" stroke="none" stroke-width="1.28528" stroke-linecap="butt"/><path d="" fill="url(#color-7)" stroke="none" stroke-width="1.28528" stroke-linecap="butt"/><path d="" fill="url(#color-8)" stroke="none" stroke-width="1.28528" stroke-linecap="butt"/><path d="" fill="url(#color-9)" stroke="none" stroke-width="1.28528" stroke-linecap="butt"/><path d="" fill="url(#color-10)" stroke="none" stroke-width="1.28528" stroke-linecap="butt"/><path d="M78.98989,361.20997v-107.02431h484.10998v107.02432z" fill="#69bdff" stroke="none" stroke-width="0" stroke-linecap="butt"/><path d="M116.99861,17.1318c0,-1.10482 0.89564,-2.00045 2.00046,-2.00045c1.10482,0 2.00045,0.89563 2.00045,2.00045c0,1.10482 -0.89563,2.00045 -2.00045,2.00045c-1.10482,0 -2.00046,-0.89563 -2.00046,-2.00045z" fill="#8ecad1" stroke="none" stroke-width="0.5" stroke-linecap="butt"/><path d="M334.79809,17.1318c0,-0.69052 0.55976,-1.25028 1.25028,-1.25028c0.69052,0 1.25029,0.55977 1.25029,1.25028c0,0.69052 -0.55977,1.25029 -1.25029,1.25029c-0.69052,0 -1.25028,-0.55977 -1.25028,-1.25029z" fill="#c6e9ed" stroke="none" stroke-width="0.5" stroke-linecap="butt"/><path d="M381.80873,11.13044c0,-0.69052 0.55977,-1.25028 1.25029,-1.25028c0.69052,0 1.25028,0.55977 1.25028,1.25028c0,0.69052 -0.55976,1.25028 -1.25028,1.25028c-0.69052,0 -1.25029,-0.55976 -1.25029,-1.25028z" fill="#c6e9ed" stroke="none" stroke-width="0.5" stroke-linecap="butt"/><path d="M442.82266,60.14157c0,-0.69052 0.55977,-1.25029 1.25029,-1.25029c0.69052,0 1.25028,0.55977 1.25028,1.25029c0,0.69052 -0.55976,1.25028 -1.25028,1.25028c-0.69052,0 -1.25029,-0.55976 -1.25029,-1.25028z" fill="#c6e9ed" stroke="none" stroke-width="0.5" stroke-linecap="butt"/><path d="M211.77007,13.13089c0,-0.69052 0.55977,-1.25028 1.25029,-1.25028c0.69052,0 1.25028,0.55977 1.25028,1.25028c0,0.69052 -0.55976,1.25028 -1.25028,1.25028c-0.69052,0 -1.25029,-0.55977 -1.25029,-1.25028z" fill="#c6e9ed" stroke="none" stroke-width="0.5" stroke-linecap="butt"/><path d="M83.48252,216.61499l-0.30007,-0.30008" fill="none" stroke="#ffffff" stroke-width="2" stroke-linecap="round"/><path d="M-9.76595,365.61021c0,0 -25.04565,-73.88894 -25.13659,-75.68222c75.56627,-65.40641 261.55187,-73.50402 354.73594,-73.50402h0.00001c94.79035,0 249.0972,8.81911 338.30213,56.9208c-0.02177,0.41528 1.16406,90.06294 1.16406,90.06294z" fill="url(#color-11)" stroke="url(#color-12)" stroke-width="2.70748" stroke-linecap="butt"/><path d="" fill="url(#color-13)" stroke="url(#color-14)" stroke-width="2.70748" stroke-linecap="butt"/><path d="" fill="url(#color-15)" stroke="url(#color-16)" stroke-width="2.70748" stroke-linecap="butt"/><path d="" fill="url(#color-17)" stroke="url(#color-18)" stroke-width="2.70748" stroke-linecap="butt"/><path d="M341.00148,223.37866c27.7333,0 52.86401,2.24151 71.06115,5.86333c18.19813,3.62082 29.46169,8.62196 29.46169,14.14122c0,5.51925 -11.26355,10.52039 -29.46169,14.14122c-18.19713,3.62182 -43.32785,5.86334 -71.06115,5.86334c-27.7333,0 -52.86401,-2.24151 -71.06115,-5.86334c-18.19813,-3.62082 -29.4617,-8.62195 -29.4617,-14.14122c0,-5.51925 11.26356,-10.52039 29.4617,-14.14122c18.19713,-3.62182 43.32785,-5.86333 71.06115,-5.86333z" fill="url(#color-19)" stroke="none" stroke-width="1" stroke-linecap="butt"/><path d="" fill="#8ecad1" stroke="none" stroke-width="0.5" stroke-linecap="butt"/><path d="" fill="#8ecad1" stroke="none" stroke-width="0.5" stroke-linecap="butt"/><path d="" fill="#8ecad1" stroke="none" stroke-width="0.5" stroke-linecap="butt"/><path d="" fill="#8ecad1" stroke="none" stroke-width="0.5" stroke-linecap="butt"/><path d="" fill="#8ecad1" stroke="none" stroke-width="0.5" stroke-linecap="butt"/><path d="" fill="#8ecad1" stroke="none" stroke-width="0.5" stroke-linecap="butt"/><path d="" fill="#8ecad1" stroke="none" stroke-width="0.5" stroke-linecap="butt"/><path d="" fill="#8ecad1" stroke="none" stroke-width="0.5" stroke-linecap="butt"/><path d="" fill="#8ecad1" stroke="none" stroke-width="0.5" stroke-linecap="butt"/><path d="" fill="#8ecad1" stroke="none" stroke-width="0.5" stroke-linecap="butt"/><path d="" fill="#8ecad1" stroke="none" stroke-width="0.5" stroke-linecap="butt"/><path d="" fill="#8ecad1" stroke="none" stroke-width="0.5" stroke-linecap="butt"/><path d="" fill="#8ecad1" stroke="none" stroke-width="0.5" stroke-linecap="butt"/><path d="" fill="#8ecad1" stroke="none" stroke-width="0.5" stroke-linecap="butt"/><path d="" fill="#8ecad1" stroke="none" stroke-width="0.5" stroke-linecap="butt"/><path d="" fill="#8ecad1" stroke="none" stroke-width="0.5" stroke-linecap="butt"/><path d="" fill="#8ecad1" stroke="none" stroke-width="0.5" stroke-linecap="butt"/><path d="" fill="#8ecad1" stroke="none" stroke-width="0.5" stroke-linecap="butt"/><path d="" fill="#8ecad1" stroke="none" stroke-width="0.5" stroke-linecap="butt"/><path d="" fill="#8ecad1" stroke="none" stroke-width="0.5" stroke-linecap="butt"/><path d="" fill="#8ecad1" stroke="none" stroke-width="0.5" stroke-linecap="butt"/><path d="" fill="#8ecad1" stroke="none" stroke-width="0.5" stroke-linecap="butt"/><path d="" fill="#8ecad1" stroke="none" stroke-width="0.5" stroke-linecap="butt"/><path d="" fill="#8ecad1" stroke="none" stroke-width="0.5" stroke-linecap="butt"/><path d="M87.13296,87.34775c0,-0.27621 0.22391,-0.50011 0.50011,-0.50011c0.27621,0 0.50012,0.22391 0.50012,0.50011c0,0.27621 -0.22391,0.50012 -0.50012,0.50012c-0.27621,0 -0.50011,-0.22391 -0.50011,-0.50012z" fill="#8ecad1" stroke="none" stroke-width="0.5" stroke-linecap="butt"/><path d="" fill="#8ecad1" stroke="none" stroke-width="0.5" stroke-linecap="butt"/><path d="M80.13132,153.36273c0,-0.27621 0.22391,-0.50012 0.50012,-0.50012c0.2762,0 0.50012,0.22391 0.50012,0.50012c0,0.27621 -0.22392,0.50011 -0.50012,0.50011c-0.2762,0 -0.50011,-0.22391 -0.50011,-0.50011z" fill="#8ecad1" stroke="none" stroke-width="0.5" stroke-linecap="butt"/><path d="" fill="#8ecad1" stroke="none" stroke-width="0.5" stroke-linecap="butt"/><path d="" fill="#8ecad1" stroke="none" stroke-width="0.5" stroke-linecap="butt"/><path d="" fill="#8ecad1" stroke="none" stroke-width="0.5" stroke-linecap="butt"/><path d="" fill="#8ecad1" stroke="none" stroke-width="0.5" stroke-linecap="butt"/><path d="" fill="#8ecad1" stroke="none" stroke-width="0.5" stroke-linecap="butt"/><path d="" fill="#8ecad1" stroke="none" stroke-width="0.5" stroke-linecap="butt"/><path d="" fill="#8ecad1" stroke="none" stroke-width="0.5" stroke-linecap="butt"/><path d="" fill="#8ecad1" stroke="none" stroke-width="0.5" stroke-linecap="butt"/><path d="" fill="#8ecad1" stroke="none" stroke-width="0.5" stroke-linecap="butt"/><path d="" fill="#8ecad1" stroke="none" stroke-width="0.5" stroke-linecap="butt"/><path d="" fill="#8ecad1" stroke="none" stroke-width="0.5" stroke-linecap="butt"/><path d="" fill="#8ecad1" stroke="none" stroke-width="0.5" stroke-linecap="butt"/><path d="" fill="#8ecad1" stroke="none" stroke-width="0.5" stroke-linecap="butt"/><path d="" fill="#8ecad1" stroke="none" stroke-width="0.5" stroke-linecap="butt"/><path d="M179.30965,-7.02395h281.38073v374.0479h-281.38073z" fill="url(#color-20)" stroke="none" stroke-width="1.11058" stroke-linecap="butt"/><path d="M64.80232,261.30301c28.66132,-7.43484 55.23383,-11.85541 75.01077,-12.99076c19.77774,-1.13663 32.75892,1.01231 34.23854,6.71622c1.47963,5.70391 -8.82012,13.89198 -26.6565,22.51257c-17.83508,8.62133 -43.20575,17.67494 -71.86705,25.10982c-28.66129,7.43485 -55.23383,11.85541 -75.01078,12.99079c-19.77774,1.13663 -32.75889,-1.0123 -34.23851,-6.7162c-1.47964,-5.70395 8.8201,-13.89195 26.65649,-22.51254c17.83508,-8.62133 43.20575,-17.67501 71.86707,-25.10985z" data-paper-data="{&quot;origRot&quot;:0}" fill="url(#color-21)" stroke="none" stroke-width="1" stroke-linecap="butt"/><path d="M590.04391,279.93102c28.71169,7.23779 54.14395,16.11698 72.03779,24.61567c17.89514,8.49795 28.2509,16.61499 26.81049,22.32898c-1.44042,5.71396 -14.40651,7.95198 -34.19159,6.95116c-19.7843,-0.99949 -46.38659,-5.23748 -75.09822,-12.47528c-28.71169,-7.23779 -54.14395,-16.11698 -72.03776,-24.61568c-17.89514,-8.49795 -28.25094,-16.61502 -26.81049,-22.32898c1.44042,-5.71396 14.40651,-7.95198 34.19159,-6.95116c19.78431,0.99953 46.38659,5.23748 75.09823,12.47532z" data-paper-data="{&quot;origRot&quot;:0}" fill="url(#color-22)" stroke="none" stroke-width="1" stroke-linecap="butt"/></g></g></svg>