<svg version="1.1" xmlns="http://www.w3.org/2000/svg" xmlns:xlink="http://www.w3.org/1999/xlink" width="648.16333" height="392.87619" viewBox="0,0,648.16333,392.87619"><defs><linearGradient x1="240" y1="180.00001" x2="240" y2="180.00001" gradientUnits="userSpaceOnUse" id="color-1"><stop offset="0" stop-color="#ff4040"/><stop offset="1" stop-color="#c33131"/></linearGradient><linearGradient x1="484.18159" y1="115.86649" x2="565.9601" y2="115.86649" gradientUnits="userSpaceOnUse" id="color-2"><stop offset="0" stop-color="#1f2649"/><stop offset="1" stop-color="#101726"/></linearGradient><linearGradient x1="-82.20323" y1="176.17124" x2="-3.78014" y2="176.17124" gradientUnits="userSpaceOnUse" id="color-3"><stop offset="0" stop-color="#101726"/><stop offset="1" stop-color="#1f2649"/></linearGradient></defs><g transform="translate(82.20323,8.58856)"><g data-paper-data="{&quot;isPaintingLayer&quot;:true}" fill-rule="nonzero" stroke="none" stroke-linecap="butt" stroke-linejoin="miter" stroke-miterlimit="10" stroke-dasharray="" stroke-dashoffset="0" style="mix-blend-mode: normal"><g fill="#cc1919" stroke-width="0"><path d="M137.37406,356.8662v-49.30332h205.25188v49.30332z"/><path d="M300.02144,281.92233v26.79529h-120.04288v-26.79529z"/></g><path d="" fill="url(#color-1)" stroke-width="1.06271"/><path d="M476.4925,365.13429h-473.48648v-30.1398h473.48649z" data-paper-data="{&quot;origPos&quot;:null,&quot;index&quot;:null}" fill="#ececec" stroke-width="1"/><path d="M430.79668,384.28763v-49.0987h42.29294v49.0987z" data-paper-data="{&quot;origPos&quot;:null,&quot;index&quot;:null}" fill="#616161" stroke-width="0"/><path d="M346.21371,384.09319v-49.0987h42.29294v49.0987z" data-paper-data="{&quot;origPos&quot;:null,&quot;index&quot;:null}" fill="#616161" stroke-width="0"/><path d="M90.51156,384.09319v-49.0987h42.29294v49.0987z" data-paper-data="{&quot;origPos&quot;:null,&quot;index&quot;:null}" fill="#616161" stroke-width="0"/><path d="M6.89502,384.09319v-49.0987h42.29294v49.0987z" data-paper-data="{&quot;origPos&quot;:null,&quot;index&quot;:null}" fill="#616161" stroke-width="0"/><path d="M461.85317,361.74387l-31.25094,-26.74938h133.79981v28.1953z" data-paper-data="{&quot;origPos&quot;:null,&quot;index&quot;:null}" fill="#cc1919" stroke-width="0"/><path d="M-7.82277,363.18979v-28.1953h55.45367l-30.55648,26.74938z" data-paper-data="{&quot;origPos&quot;:null,&quot;index&quot;:null}" fill="#cc1919" stroke-width="0"/><path d="M261.1417,383.89874v-49.0987h42.29294v49.0987z" data-paper-data="{&quot;origPos&quot;:null,&quot;index&quot;:null}" fill="#616161" stroke-width="0"/><path d="M176.55582,384.09319v-49.0987h42.29294v49.0987z" data-paper-data="{&quot;origPos&quot;:null,&quot;index&quot;:null}" fill="#616161" stroke-width="0"/><path d="M484.18159,239.36433v-246.99568h81.77851v246.99568z" fill="url(#color-2)" stroke-width="0"/><path d="M-82.20323,360.93105v-369.51961h78.42309v369.51961z" fill="url(#color-3)" stroke-width="0"/></g></g></svg>