<svg version="1.1" xmlns="http://www.w3.org/2000/svg" xmlns:xlink="http://www.w3.org/1999/xlink" width="114.38652" height="41.98038" viewBox="0,0,114.38652,41.98038"><defs><linearGradient x1="276.20873" y1="159.00981" x2="276.20873" y2="200.97887" gradientUnits="userSpaceOnUse" id="color-1"><stop offset="0" stop-color="#9d3bed"/><stop offset="1" stop-color="#7c31be"/></linearGradient><linearGradient x1="203.79127" y1="159.00981" x2="203.79127" y2="200.97887" gradientUnits="userSpaceOnUse" id="color-2"><stop offset="0" stop-color="#9d3bed"/><stop offset="1" stop-color="#7c31be"/></linearGradient><linearGradient x1="239.62989" y1="159.02711" x2="239.62989" y2="200.99019" gradientUnits="userSpaceOnUse" id="color-3"><stop offset="0" stop-color="#9d3bed"/><stop offset="1" stop-color="#7c31be"/></linearGradient><linearGradient x1="275.43576" y1="162.97237" x2="275.43576" y2="197.02763" gradientUnits="userSpaceOnUse" id="color-4"><stop offset="0" stop-color="#9d3bed"/><stop offset="1" stop-color="#7c31be"/></linearGradient></defs><g transform="translate(-182.80674,-159.00981)"><g data-paper-data="{&quot;isPaintingLayer&quot;:true}" fill-rule="nonzero" stroke-linejoin="miter" stroke-miterlimit="10" stroke-dasharray="" stroke-dashoffset="0" style="mix-blend-mode: normal"><g data-paper-data="{&quot;index&quot;:null}" stroke="#000000" stroke-width="0" stroke-linecap="butt"><path d="M276.20873,200.97887c-11.58944,0 -20.98453,-9.39509 -20.98453,-20.98453c0,-11.58944 9.39509,-20.98453 20.98453,-20.98453c11.58944,0 20.98453,9.39509 20.98453,20.98453c0,11.58944 -9.39509,20.98453 -20.98453,20.98453z" data-paper-data="{&quot;origPos&quot;:null,&quot;index&quot;:null}" fill="url(#color-1)"/><path d="M203.79127,200.97887c-11.58944,0 -20.98453,-9.3951 -20.98453,-20.98453c0,-11.58944 9.3951,-20.98453 20.98453,-20.98453c11.58944,0 20.98453,9.3951 20.98453,20.98453c0,11.58944 -9.3951,20.98453 -20.98453,20.98453z" data-paper-data="{&quot;origPos&quot;:null,&quot;index&quot;:null}" fill="url(#color-2)"/><path d="M203.55285,200.99019v-41.96308h72.15408v41.96308z" data-paper-data="{&quot;origPos&quot;:null,&quot;index&quot;:null}" fill="url(#color-3)"/></g><g><path d="M275.43576,162.97237c4.69771,0 8.95515,1.90752 12.0371,4.99053c3.08301,3.08195 4.99053,7.33939 4.99053,12.0371c0,4.69771 -1.90752,8.95515 -4.99053,12.0371c-3.08195,3.08301 -7.33939,4.99053 -12.0371,4.99053c-4.69771,0 -8.95515,-1.90752 -12.0371,-4.99053c-3.08301,-3.08195 -4.99053,-7.33939 -4.99053,-12.0371c0,-4.69771 1.90752,-8.95515 4.99053,-12.0371c3.08195,-3.08301 7.33939,-4.99053 12.0371,-4.99053z" data-paper-data="{&quot;origPos&quot;:null}" fill="url(#color-4)" stroke="#5f238c" stroke-width="1.25" stroke-linecap="butt"/><g stroke="#5f238c" stroke-linecap="round"><g fill="none" stroke-width="4.5"><g><path d="M270.26806,185.77645l-6.61562,-0.04926v-12.46621v-0.12466l16.73987,0.12466v2.70368"/></g></g><path d="M271.61106,189.49722l11.54196,-11.54197" fill="none" stroke-width="4.5"/><path d="M283.72923,174.98172l-0.0216,-3.46717" fill="none" stroke-width="3.5"/><path d="M285.41746,175.91945l2.71346,-2.59013" fill="none" stroke-width="3.5"/><path d="M267.71517,177.00998l0.74004,-1.97342l0.86337,1.97342l2.52845,0.06167l-2.15843,1.35673l0.74004,2.15843l-1.91176,-1.35673l-1.72675,1.4184l0.55503,-1.97343l-2.03509,-1.54174z" fill="#ffffff" stroke-width="2.5"/><path d="M274.94448,176.93668l0.51663,-1.37768l0.60273,1.37768l1.76515,0.04305l-1.50683,0.94716l0.51663,1.50683l-1.33462,-0.94715l-1.20546,0.99021l0.38746,-1.37767l-1.42073,-1.07631z" fill="#ffffff" stroke-width="2.5"/><path d="M271.60307,181.24824l0.61805,-1.64813l0.72106,1.64813l2.11168,0.0515l-1.80265,1.13309l0.61805,1.80265l-1.59664,-1.13309l-1.44212,1.1846l0.46354,-1.64814l-1.69964,-1.2876z" fill="#ffffff" stroke-width="2.5"/><path d="M285.98502,177.64983l3.46681,0.05375" fill="none" stroke-width="3.5"/></g><g stroke-linecap="round"><g fill="none" stroke="#ffffff" stroke-width="2"><g><path d="M270.26806,185.77645l-6.61562,-0.04927v-12.46621v-0.12466l16.73987,0.12466v2.70368"/></g></g><path d="M271.61106,189.49721l11.54197,-11.54197" fill="none" stroke="#ffffff" stroke-width="2"/><path d="M283.72923,174.98172l-0.0216,-3.46717" fill="none" stroke="#ffffff" stroke-width="1"/><path d="M285.41746,175.91944l2.71346,-2.59012" fill="none" stroke="#ffffff" stroke-width="1"/><path d="M267.71517,177.00998l0.74004,-1.97343l0.86337,1.97343l2.52845,0.06167l-2.15844,1.35673l0.74004,2.15844l-1.91176,-1.35673l-1.72675,1.4184l0.55502,-1.97343l-2.03509,-1.54174z" fill="#ffffff" stroke="#7f7f7f" stroke-width="0"/><path d="M274.94448,176.93668l0.51663,-1.37768l0.60273,1.37768l1.76515,0.04305l-1.50683,0.94716l0.51663,1.50683l-1.33462,-0.94715l-1.20546,0.9902l0.38747,-1.37767l-1.42073,-1.07631z" fill="#ffffff" stroke="#7f7f7f" stroke-width="0"/><path d="M271.60306,181.24824l0.61805,-1.64814l0.72106,1.64814l2.11167,0.0515l-1.80265,1.1331l0.61805,1.80265l-1.59663,-1.1331l-1.44212,1.1846l0.46354,-1.64814l-1.69964,-1.28761z" fill="#ffffff" stroke="#7f7f7f" stroke-width="0"/><path d="M285.98502,177.64983l3.46682,0.05375" fill="none" stroke="#ffffff" stroke-width="1"/></g></g><text transform="translate(207.32973,188.56733) scale(0.65491,0.65491)" font-size="40" xml:space="preserve" data-paper-data="{&quot;origPos&quot;:null,&quot;index&quot;:null}" fill="#f7f7f7" fill-rule="nonzero" stroke="none" stroke-width="1" stroke-linecap="butt" stroke-linejoin="miter" stroke-miterlimit="10" stroke-dasharray="" stroke-dashoffset="0" font-family="&quot;Microsoft YaHei&quot;, &quot;微软雅黑&quot;, STXihei, &quot;华文细黑&quot;" font-weight="normal" text-anchor="start" style="mix-blend-mode: normal"><tspan x="0" dy="0">On</tspan></text></g></g></svg>