<svg version="1.1" xmlns="http://www.w3.org/2000/svg" xmlns:xlink="http://www.w3.org/1999/xlink" width="486.92683" height="411.86439" viewBox="0,0,486.92683,411.86439"><defs><radialGradient cx="240.00005" cy="180.00005" r="240.83784" gradientUnits="userSpaceOnUse" id="color-1"><stop offset="0" stop-color="#433b68"/><stop offset="1" stop-color="#28253e"/></radialGradient><radialGradient cx="239.10481" cy="276.1539" r="243.46342" gradientUnits="userSpaceOnUse" id="color-2"><stop offset="0" stop-color="#302820"/><stop offset="1" stop-color="#403428"/></radialGradient><radialGradient cx="227.87576" cy="79.87759" r="19.99232" gradientUnits="userSpaceOnUse" id="color-3"><stop offset="0" stop-color="#732310"/><stop offset="1" stop-color="#c93d1d"/></radialGradient><linearGradient x1="-2.12272" y1="-35.16765" x2="-2.12272" y2="371.46282" gradientUnits="userSpaceOnUse" id="color-4"><stop offset="0" stop-color="#26002e" stop-opacity="0"/><stop offset="1" stop-color="#26002e" stop-opacity="0.25098"/></linearGradient><linearGradient x1="-2.12272" y1="359.26769" x2="-2.12272" y2="-35.16758" gradientUnits="userSpaceOnUse" id="color-5"><stop offset="0" stop-color="#27002f" stop-opacity="0"/><stop offset="1" stop-color="#27002f" stop-opacity="0.72549"/></linearGradient></defs><g transform="translate(4.35861,35.16765)"><g data-paper-data="{&quot;isPaintingLayer&quot;:true}" fill-rule="nonzero" stroke="none" stroke-linejoin="miter" stroke-miterlimit="10" stroke-dasharray="" stroke-dashoffset="0" style="mix-blend-mode: normal"><path d="M-0.83783,376.69674v-393.39339h481.67568v393.39339z" fill="url(#color-1)" stroke-width="NaN" stroke-linecap="butt"/><path d="M-3.82708,363.70088v-83.90177h484.92565v83.90177z" fill="#081010" stroke-width="0" stroke-linecap="butt"/><g fill="#304048" stroke-width="0" stroke-linecap="butt"><path d="M0.05982,319.67607v-40.06586h40.06587v40.06586z"/><path d="M79.91692,319.67607v42.12592h-40.06587v-42.12592z"/></g><g fill="#304048" stroke-width="0" stroke-linecap="butt"><path d="M79.93814,319.67607v-40.06586h40.06587v40.06586z"/><path d="M159.79527,319.67607v42.12592h-40.06586v-42.12592z"/></g><g fill="#304048" stroke-width="0" stroke-linecap="butt"><path d="M159.74504,319.67607v-40.06586h40.06587v40.06586z"/><path d="M239.60221,319.67607v42.12592h-40.06587v-42.12592z"/></g><g fill="#304048" stroke-width="0" stroke-linecap="butt"><path d="M239.58352,319.67607v-40.06586h40.06587v40.06586z"/><path d="M319.44066,319.67607v42.12592h-40.06586v-42.12592z"/></g><g fill="#304048" stroke-width="0" stroke-linecap="butt"><path d="M319.3413,319.67607v-40.06586h40.06586v40.06586z"/><path d="M399.19843,319.67607v42.12592h-40.06586v-42.12592z"/></g><g fill="#304048" stroke-width="0" stroke-linecap="butt"><path d="M399.1482,319.67607v-40.06586h40.06586v40.06586z"/><path d="M479.00536,319.67607v42.12592h-40.06586v-42.12592z"/></g><path d="M-4.35861,286.00379v-19.69981h486.92683v19.69981z" fill="url(#color-2)" stroke-width="0" stroke-linecap="butt"/><path d="M173.37929,126.02038l-4.72317,-113.13474l113.13474,-4.72317l4.72317,113.13474z" fill="#302820" stroke-width="0" stroke-linecap="butt"/><path d="M190.39293,110.33845l-7.23414,-79.43331l84.45455,-7.63546l5.72064,82.65327z" fill="#b9b9b3" stroke-width="0" stroke-linecap="butt"/><g><g data-paper-data="{&quot;index&quot;:null}"><path d="M251.70878,85.58346l-44.25672,4.6239l-1.94289,-18.59595l44.25672,-4.6239z" fill="#ffffff" stroke-width="1" stroke-linecap="round"/><path d="M249.31895,57.79892c1.41703,-0.14805 2.69967,0.32705 3.77983,1.04826c1.16357,0.77323 2.80825,1.7277 3.08352,3.16016c0.02679,1.45844 -1.3851,2.73224 -2.36372,3.72928c-0.90775,0.9289 -2.06449,1.65887 -3.48152,1.80692c-1.41703,0.14805 -2.75789,-0.26351 -3.77983,-1.04826c-1.02202,-0.78556 -1.72503,-1.94349 -1.86544,-3.28743c-0.14042,-1.34395 0.30806,-2.62217 1.14564,-3.60202c0.83766,-0.97903 2.06449,-1.65887 3.48152,-1.80692z" fill="#ffffff" stroke-width="1" stroke-linecap="round"/><path d="M241.5244,45.52628c4.57495,3.70867 7.73623,9.1609 8.39571,15.47297c0.65948,6.31206 -1.30654,12.29998 -5.0161,16.87422c-3.70867,4.57495 -9.1609,7.73623 -15.47297,8.39571c-6.31206,0.65948 -12.29998,-1.30654 -16.87422,-5.0161c-4.57496,-3.70868 -7.73623,-9.1609 -8.39571,-15.47297c-0.65948,-6.31206 1.30654,-12.29998 5.0161,-16.87422c3.70868,-4.57496 9.1609,-7.73623 15.47297,-8.39571c6.31206,-0.65948 12.29998,1.30654 16.87422,5.0161z" fill="#ffffff" stroke-width="1" stroke-linecap="butt"/><path d="M231.86201,69.26857c3.4892,-0.51559 6.72413,-2.47489 10.29304,-2.84038c0.8918,-0.09153 0.70019,0.88733 0.64843,1.492c-0.2062,2.4186 -0.52267,4.99158 -1.45016,7.3345c-0.81375,1.95425 -2.02788,3.83212 -3.67299,5.30925c-1.28688,1.15813 -2.91554,2.09338 -4.74323,2.13739c-1.91875,0.04449 -3.81856,-0.86113 -5.37044,-1.90164c-1.66168,-1.08569 -2.8943,-2.70052 -4.06087,-4.29599c-1.24562,-1.70788 -2.2679,-3.6509 -3.25427,-5.61162c-0.18037,-0.46139 -1.12479,-1.35275 -0.15696,-1.5023c3.87213,-0.59829 7.85238,0.3568 11.76745,-0.12121z" fill="url(#color-3)" stroke-width="1" stroke-linecap="round"/><path d="M210.11044,64.61097c1.02202,0.78556 1.72503,1.94349 1.86544,3.28743c0.14042,1.34395 -0.30806,2.62217 -1.14564,3.60202c-0.83766,0.97903 -2.06449,1.65887 -3.48152,1.80692c-1.41703,0.14805 -2.69969,-0.32705 -3.77983,-1.04826c-1.16357,-0.77323 -2.80825,-1.7277 -3.08352,-3.16016c-0.02677,-1.45844 1.3851,-2.73224 2.36372,-3.72928c0.90774,-0.92888 2.06449,-1.65887 3.48152,-1.80692c1.41703,-0.14805 2.75789,0.26351 3.77983,1.04826z" fill="#ffffff" stroke-width="1" stroke-linecap="round"/><path d="M240.7251,52.26247c1.20176,1.12305 2.04418,2.75895 2.24076,4.64047c0.19658,1.88152 -0.2895,3.65623 -1.23318,5.00344c-0.94449,1.34728 -2.34663,2.26626 -3.98211,2.43713c-1.63546,0.17087 -3.19728,-0.43842 -4.39986,-1.56139c-1.20176,-1.12305 -2.04419,-2.75897 -2.24077,-4.64048c-0.19658,-1.88152 0.2895,-3.65622 1.23318,-5.00342c0.94447,-1.34728 2.34662,-2.26626 3.9821,-2.43713c1.63548,-0.17087 3.1973,0.43842 4.39987,1.56139z" fill="#000000" stroke-width="1" stroke-linecap="butt"/><path d="M227.30688,53.86963c1.20176,1.12305 2.04418,2.75895 2.24076,4.64047c0.19658,1.88152 -0.2895,3.65623 -1.23318,5.00344c-0.94447,1.34728 -2.34662,2.26626 -3.9821,2.43713c-1.63546,0.17087 -3.1973,-0.43842 -4.39987,-1.56139c-1.20176,-1.12305 -2.04419,-2.75897 -2.24077,-4.64048c-0.19658,-1.88152 0.2895,-3.65622 1.23318,-5.00342c0.94449,-1.34728 2.34663,-2.26626 3.98211,-2.43713c1.63546,-0.17087 3.19728,0.43842 4.39986,1.56139z" fill="#000000" stroke-width="1" stroke-linecap="butt"/><path d="M240.85609,55.1975c0.54667,0.60454 0.9366,1.47666 1.04079,2.47385c0.10419,0.99719 -0.09706,1.93106 -0.50696,2.63556c-0.40919,0.70358 -1.02624,1.17769 -1.75465,1.25379c-0.72842,0.07611 -1.43013,-0.26022 -1.97592,-0.86403c-0.54668,-0.60454 -0.93662,-1.47666 -1.0408,-2.47385c-0.10419,-0.99719 0.09707,-1.93106 0.50698,-2.63556c0.40919,-0.70358 1.02624,-1.17769 1.75465,-1.25379c0.72841,-0.0761 1.43013,0.26022 1.97592,0.86403z" fill="#ffffff" stroke-width="1" stroke-linecap="butt"/><path d="M227.6536,56.90525c0.54667,0.60454 0.9366,1.47666 1.04079,2.47385c0.10419,0.99719 -0.09706,1.93106 -0.50696,2.63556c-0.40919,0.70358 -1.02624,1.17769 -1.75465,1.25379c-0.72842,0.07611 -1.43013,-0.26022 -1.97592,-0.86403c-0.54667,-0.60454 -0.9366,-1.47666 -1.04079,-2.47385c-0.10419,-0.99719 0.09706,-1.93106 0.50696,-2.63556c0.40919,-0.70358 1.02624,-1.17769 1.75465,-1.25379c0.72841,-0.0761 1.43013,0.26022 1.97592,0.86403z" fill="#ffffff" stroke-width="1" stroke-linecap="butt"/><path d="M232.10045,82.34329c5.69528,-0.82481 11.55237,-1.29835 17.27715,-0.42564c1.43123,0.21815 2.26439,2.00894 2.3185,3.45557c0.05478,1.67691 -0.94423,3.50734 -2.15444,4.53949c-1.22549,1.0258 -2.93696,1.07738 -4.53517,1.11153c-1.2513,0.01916 -2.4609,-1.45795 -3.66146,-1.141c-1.59549,0.42314 -2.63635,2.31033 -4.16851,3.01655c-1.37182,0.52801 -2.88057,0.81501 -4.37269,0.61357c-1.53957,-0.21085 -2.85049,-2.20508 -4.35317,-2.05028c-1.31907,0.13734 -2.02491,2.07152 -3.26151,2.60066c-1.05248,0.44958 -2.29698,0.7025 -3.44937,0.38994c-1.34126,-0.42235 -2.30361,-2.63497 -3.6944,-2.49353c-1.46634,0.14983 -1.94313,2.68701 -3.28159,3.32844c-1.15603,0.55225 -2.55698,0.72842 -3.78301,0.32145c-1.08714,-0.36453 -2.44236,-1.13423 -2.86862,-2.41851c-0.55647,-1.67883 -1.57917,-4.57267 0.27481,-5.44469c7.49037,-3.35401 15.71611,-4.24471 23.71347,-5.40355z" fill="#ffffff" stroke-width="1.0945" stroke-linecap="round"/><path d="M230.67788,72.4707l-6.69942,0.69995l-0.49633,-4.7505l6.69942,-0.69995z" fill="#ffffff" stroke-width="1" stroke-linecap="butt"/><path d="M239.56134,71.46046l-6.69942,0.69995l-0.49633,-4.75049l6.69942,-0.69995z" fill="#ffffff" stroke-width="1" stroke-linecap="round"/></g><path d="M237.49375,74.54885c1.27302,0.7027 2.12705,1.76766 2.25873,3.02797c0.13168,1.26031 -0.48378,2.47882 -1.58406,3.42946c-1.10011,0.95143 -2.68588,1.6343 -4.49479,1.82329c-1.809,0.189 -3.50165,-0.15132 -4.77467,-0.85482c-1.27302,-0.7027 -2.12705,-1.76766 -2.25873,-3.02797c-0.13168,-1.26031 0.48378,-2.47882 1.58406,-3.42946c1.10011,-0.95143 2.68586,-1.6343 4.49487,-1.8233c1.80893,-0.189 3.50158,0.15133 4.7746,0.85483z" data-paper-data="{&quot;index&quot;:null}" fill="#ff71d2" stroke-width="0.9712" stroke-linecap="butt"/></g><g stroke-width="1.22826" stroke-linecap="butt"><path d="M-2.12272,-35.16765h483.40498v406.6304h-483.40498z" fill="url(#color-4)"/><path d="M-2.12272,-35.16758h483.40498v394.43528h-483.40498z" data-paper-data="{&quot;index&quot;:null}" fill="url(#color-5)"/></g></g></g></svg>