<svg version="1.1" xmlns="http://www.w3.org/2000/svg" xmlns:xlink="http://www.w3.org/1999/xlink" width="95.84949" height="108.65584" viewBox="0,0,95.84949,108.65584"><g transform="translate(-192.0387,-125.60067)"><g data-paper-data="{&quot;isPaintingLayer&quot;:true}" fill-rule="nonzero" stroke-linejoin="miter" stroke-miterlimit="10" stroke-dasharray="" stroke-dashoffset="0" style="mix-blend-mode: normal"><g stroke-linecap="butt"><path d="M257.44885,160.66185c0,-8.19848 6.64619,-14.84467 14.84467,-14.84467c8.19849,0 14.84467,6.64619 14.84467,14.84467c0,8.19848 -6.64619,14.84467 -14.84467,14.84467c-8.19849,0 -14.84467,-6.64619 -14.84467,-14.84467z" fill="#ffffff" stroke="#ffe008" stroke-width="1.5"/><path d="M274.61758,150.77488c3.54252,1.79151 5.36481,2.68726 5.46198,2.68726c0,0.15711 -0.73701,1.5793 -2.21428,4.26656h-0.10367c-0.11824,0 -1.81581,-0.8018 -5.09267,-2.40541l-1.6684,2.22886c2.82494,1.3574 6.25407,3.09059 10.29062,5.19634c-1.832,3.25905 -3.13109,5.42311 -3.89887,6.49704l-8.34038,0.73701c-3.80978,-2.56901 -5.82158,-3.89725 -6.03863,-3.98634v-0.10205c0,-0.27538 0.77264,-1.54043 2.31794,-3.7952h0.19115c0.61066,0.36446 2.52528,1.41247 5.74383,3.14566l1.94863,-2.21589c-5.91552,-3.01121 -9.19239,-4.71364 -9.83222,-5.10724v-0.08909c1.87898,-3.66077 2.90269,-5.51706 3.07115,-5.56566c4.8918,-0.99457 7.61309,-1.49184 8.16382,-1.49184z" fill="#ffe008" stroke="none" stroke-width="1"/></g><g data-paper-data="{&quot;index&quot;:null}"><path d="M192.86186,199.32365c0,-8.19848 6.64619,-14.84467 14.84467,-14.84467c8.19849,0 14.84467,6.64619 14.84467,14.84467c0,8.19848 -6.64619,14.84467 -14.84467,14.84467c-8.19849,0 -14.84467,-6.64619 -14.84467,-14.84467z" fill="#ffffff" stroke="#0052ef" stroke-width="1.5" stroke-linecap="butt"/><path d="M194.52047,195.01123l3.23432,-1.57569l4.64414,6.80035l5.3076,-7.96139l5.63932,8.04432l4.72706,-6.88328l2.81966,1.57569l-7.13208,12.85434l-6.05397,-8.95656l-5.88811,9.0395z" fill="#0052ef" stroke="#000000" stroke-width="0" stroke-linecap="round"/></g><g><path d="M192.78871,160.61449c0,-8.19849 6.64619,-14.84467 14.84467,-14.84467c8.19848,0 14.84467,6.6462 14.84467,14.84467c0,8.19849 -6.64619,14.84467 -14.84467,14.84467c-8.19848,0 -14.84467,-6.64619 -14.84467,-14.84467z" fill="#ffffff" stroke="#ff0021" stroke-width="1.5" stroke-linecap="butt"/><path d="M207.63338,156.46792l5.63932,-6.55157l6.88328,14.51295l-4.47828,3.81483l-3.7319,-10.69812l-4.31242,5.14173l-4.31242,-5.22467l-3.81483,10.69812l-4.39535,-3.64896l6.88328,-14.43002z" fill="#ff0021" stroke="#000000" stroke-width="0" stroke-linecap="round"/></g><g data-paper-data="{&quot;index&quot;:null}" stroke-linecap="butt"><path d="M257.44106,199.26678c0,-8.19849 6.64619,-14.84467 14.84467,-14.84467c8.19849,0 14.84467,6.64619 14.84467,14.84467c0,8.19848 -6.64619,14.84467 -14.84467,14.84467c-8.19849,0 -14.84467,-6.64619 -14.84467,-14.84467z" fill="#ffffff" stroke="#6f18b4" stroke-width="1.5"/><path d="M281.77691,192.64069l-1.47685,4.26163v0.08562c-0.61496,0.37832 -6.87233,3.64619 -12.55799,6.5404l4.98074,0.49817c3.09348,-1.66584 4.9337,-2.67313 5.52063,-3.02343h0.18371c1.48524,2.16715 2.22786,3.38306 2.22786,3.64772v0.09808c-0.20863,0.08563 -2.14224,1.36226 -5.80398,3.83143l-12.05646,-1.48532l0.29281,-5.46762c0,0 10.05033,-5.24368 12.7655,-6.54834l-4.47831,-0.58833c-3.14953,1.54129 -4.78112,2.31194 -4.89476,2.31194h-0.09964c-1.41985,-2.58283 -2.12824,-3.94975 -2.12824,-4.10077c0.09342,0 1.84488,-0.86094 5.24974,-2.58283c0.52933,0 12.27524,2.52161 12.27524,2.52161z" data-paper-data="{&quot;index&quot;:null}" fill="#6f18b4" stroke="none" stroke-width="1"/></g><g stroke="#7100f3"><path d="M225.14757,218.66185c0,-8.19848 6.64619,-14.84467 14.84467,-14.84467c8.19849,0 14.84467,6.64619 14.84467,14.84467c0,8.19848 -6.64619,14.84467 -14.84467,14.84467c-8.19849,0 -14.84467,-6.64619 -14.84467,-14.84467z" fill="#ffffff" stroke-width="1.5" stroke-linecap="butt"/><path d="M248.1195,209.20769v5.63932h-7.79553v14.76175h-6.30277v-20.40107z" fill="#ffe008" stroke-width="2" stroke-linecap="round"/></g><g><path d="M225.16316,141.19534c0,-8.19849 6.64619,-14.84467 14.84467,-14.84467c8.19849,0 14.84467,6.64619 14.84467,14.84467c0,8.19848 -6.64619,14.84467 -14.84467,14.84467c-8.19849,0 -14.84467,-6.64619 -14.84467,-14.84467z" fill="#ffffff" stroke="#64ca00" stroke-width="1.5" stroke-linecap="butt"/><path d="M237.68576,131.24361l-0.41466,14.51295l9.37122,-0.58051l0.16586,4.72707l-13.35192,0.08293l-0.49758,-18.65951z" fill="#64ca00" stroke="#000000" stroke-width="0" stroke-linecap="round"/></g><g><path d="M225.15537,180.00004c0,-8.19848 6.64619,-14.84467 14.84467,-14.84467c8.19849,0 14.84467,6.64619 14.84467,14.84467c0,8.19848 -6.64619,14.84467 -14.84467,14.84467c-8.19849,0 -14.84467,-6.64619 -14.84467,-14.84467z" fill="#fffaca" stroke="#a7a7a7" stroke-width="1.5" stroke-linecap="butt"/><g><g stroke="none" stroke-width="0" stroke-linecap="butt"><path d="M250.32834,178.85185c-0.05445,3.42867 -1.70638,6.06282 -9.50242,6.15643c-9.68554,0.1163 -11.06015,-1.1272 -11.14442,-6.05653c-0.03296,-1.92825 0.30664,-3.80784 1.53367,-5.07441c2.87453,-2.96714 5.44334,-3.31661 9.12684,-3.31661c5.5153,0 10.08845,1.86142 9.98633,8.29112z" data-paper-data="{&quot;origPos&quot;:null}" fill="#ffffff"/><path d="M246.07509,175.66598c0.08445,2.83064 -2.20534,4.47512 -4.70763,4.43297c-3.10423,-0.05228 -4.91913,-2.00688 -4.91913,-4.39924c0,-2.79729 2.23943,-4.18586 5.13063,-4.2188c2.96191,-0.03375 4.43657,2.18863 4.49613,4.18506z" fill="#ff1919"/><path d="M233.38467,177.72887c0.63153,3.03733 -2.95049,5.06914 -2.95049,5.06914c0,0 -0.92579,-1.39292 -0.8466,-4.59824c0.06728,-2.72334 1.27721,-3.92 1.27721,-3.92c0,0 1.88835,0.41177 2.51988,3.4491z" data-paper-data="{&quot;origRot&quot;:0}" fill="#ff1919"/><path d="M249.6464,174.80971c0,0 0.7405,0.64515 0.77908,3.40641c0.01698,1.21558 -0.43506,3.00572 -0.43506,3.00572c0,0 -1.72306,-0.7858 -1.74866,-3.54923c-0.02322,-3.03701 1.40464,-2.8629 1.40464,-2.8629z" fill="#ff1919"/></g><g><path d="M240.96722,189.82392c-2.46047,0.12339 -5.14107,-0.92557 -5.66207,-3.76432c-0.28737,-1.56576 -0.18377,-2.50086 -0.18377,-2.50086c0,0 1.10434,-1.01514 5.61242,-1.455c3.57324,-0.34864 5.30625,1.24192 5.30625,1.24192c0,0 0.2871,1.41 0.06909,2.53978c-0.21802,1.12978 -0.65578,3.71349 -5.14191,3.93848z" fill="#ffdebd" stroke="none" stroke-width="0" stroke-linecap="butt"/><path d="M241.80573,187.89947c0,0 -0.7271,0.23765 -1.33458,0.10419c-0.61569,-0.13527 -1.2122,-0.55669 -1.2122,-0.55669" fill="none" stroke="#564031" stroke-width="0.75" stroke-linecap="round"/><path d="M239.28318,186.73149c0,0 0.01247,0.36086 -0.12269,0.66151c-0.15783,0.35107 -0.48287,0.54814 -0.48287,0.54814" fill="none" stroke="#564031" stroke-width="0.75" stroke-linecap="round"/><g stroke="none" stroke-width="0" stroke-linecap="butt"><path d="M240.36977,183.16048c0.47489,0 0.63105,0.47434 0.63105,1.58848c0,1.03519 -0.19828,1.58849 -0.63105,1.58849c-0.43276,0 -0.63104,-0.51382 -0.63104,-1.58848c0,-1.11414 0.15615,-1.58849 0.63104,-1.58849z" fill="#000000"/><path d="M240.70445,183.89744c0,0.31055 -0.03671,0.47499 -0.27784,0.47499c-0.22758,0 -0.27106,-0.13735 -0.27784,-0.46822c-0.00746,-0.36464 0.12439,-0.44957 0.27784,-0.44957c0.15345,0 0.27784,0.07808 0.27784,0.4428z" fill="#ffffff"/></g><g stroke="none" stroke-width="0" stroke-linecap="butt"><path d="M243.16267,183.15728c0.47489,0 0.63104,0.47435 0.63104,1.58849c0,1.03519 -0.19828,1.58848 -0.63104,1.58848c-0.43276,0 -0.63104,-0.51382 -0.63104,-1.58848c0,-1.11414 0.15615,-1.58848 0.63104,-1.58848z" fill="#000000"/><path d="M243.49735,183.89423c0,0.31055 -0.03671,0.47499 -0.27784,0.47499c-0.22758,0 -0.27106,-0.13735 -0.27784,-0.46822c-0.00746,-0.36464 0.12439,-0.44957 0.27784,-0.44957c0.15345,0 0.27784,0.07808 0.27784,0.4428z" fill="#ffffff"/></g></g><path d="M229.47775,178.73513c-0.02246,-1.10631 0.23043,-1.71458 0.23043,-1.71458c0,0 7.93465,-3.06932 12.651,-3.21492c3.29499,-0.10172 7.98015,2.84754 7.98015,2.84754c0,0 0.15315,0.34934 0.11257,1.44329c-0.04058,1.09395 -0.15138,1.38503 -0.15138,1.38503c0,0 -5.12776,-2.50661 -7.95829,-2.41835c-5.21664,0.16266 -12.70456,3.25892 -12.70456,3.25892c0,0 -0.1412,-0.66451 -0.15992,-1.58692z" fill="#f3c640" stroke="none" stroke-width="0" stroke-linecap="butt"/><g stroke="none" stroke-width="0" stroke-linecap="butt"><path d="M247.00809,175.47893c-0.10196,2.88213 -2.36765,4.41401 -4.28216,4.41401c-1.85667,0 -4.6304,-2.45576 -4.6304,-2.45576c0,0 -0.4563,-0.37163 -0.54015,-1.51578c-0.07904,-1.07844 0.42217,-1.65416 0.42217,-1.65416c0,0 2.83388,-3.37542 4.74838,-3.37542c1.91449,0 4.39019,1.53325 4.28216,4.58711z" data-paper-data="{&quot;origPos&quot;:null}" fill="#92999e"/><path d="M246.39635,175.3924c0,2.10319 -1.36942,3.80816 -3.05868,3.80816c-1.68926,0 -3.05868,-1.70497 -3.05868,-3.80816c0,-2.10319 1.36942,-3.80817 3.05868,-3.80817c1.68926,0 3.05868,1.70497 3.05868,3.80817z" data-paper-data="{&quot;origPos&quot;:null}" fill="#e6c985"/><path d="M245.78802,175.37041c0,1.43809 -0.91647,2.60389 -2.04699,2.60389c-1.13053,0 -2.04699,-1.1658 -2.04699,-2.60389c0,-1.43809 0.91647,-2.60389 2.04699,-2.60389c1.13053,0 2.04699,1.16581 2.04699,2.60389z" fill="#fff9c5"/></g></g></g></g></g></svg>