<svg version="1.1" xmlns="http://www.w3.org/2000/svg" xmlns:xlink="http://www.w3.org/1999/xlink" width="39.07291" height="40.78065" viewBox="0,0,39.07291,40.78065"><g transform="translate(-220.45528,-159.16132)"><g data-paper-data="{&quot;isPaintingLayer&quot;:true}" fill-rule="nonzero" stroke="none" stroke-linejoin="miter" stroke-miterlimit="10" stroke-dasharray="" stroke-dashoffset="0" style="mix-blend-mode: normal"><path d="M221.80839,177.51069h36.37549v22.01906h-36.37549z" data-paper-data="{&quot;index&quot;:null}" fill="#ff000c" stroke-width="1.00121" stroke-linecap="butt"/><path d="M239.99156,159.16133c5.01806,0 9.56517,2.03808 12.85781,5.33073c3.29264,3.29255 5.33073,7.83975 5.33073,12.85772c0,5.01806 -2.03808,9.56517 -5.33073,12.85772c-3.29264,3.29264 -7.83975,5.33081 -12.85781,5.33081c-5.01797,0 -9.56508,-2.03817 -12.85772,-5.33081c-3.29264,-3.29255 -5.33073,-7.83967 -5.33073,-12.85772c0,-5.01797 2.03808,-9.56517 5.33073,-12.85772c3.29264,-3.29264 7.83975,-5.33073 12.85772,-5.33073z" data-paper-data="{&quot;index&quot;:null}" fill="#ff000c" stroke-width="0.81624" stroke-linecap="round"/><path d="M220.45529,192.315h39.07291v7.62698h-39.07291z" data-paper-data="{&quot;index&quot;:null}" fill="#b2b2b2" stroke-width="0.81624" stroke-linecap="butt"/><path d="M236.96439,185.24391h6.00305v4.64898h-6.00305z" data-paper-data="{&quot;index&quot;:null}" fill="#ffffff" stroke-width="0.72044" stroke-linecap="butt"/><path d="M236.96439,164.70717h6.00305v17.51265h-6.00305z" data-paper-data="{&quot;index&quot;:null}" fill="#ffffff" stroke-width="0.72044" stroke-linecap="butt"/></g></g></svg>