<svg version="1.1" xmlns="http://www.w3.org/2000/svg" xmlns:xlink="http://www.w3.org/1999/xlink" width="134.2" height="542.59092" viewBox="0,0,134.2,542.59092"><defs><linearGradient x1="227.60239" y1="-7805.73052" x2="227.60239" y2="19900.1973" gradientUnits="userSpaceOnUse" id="color-1"><stop offset="0" stop-color="#519dff"/><stop offset="1" stop-color="#519dff" stop-opacity="0"/></linearGradient></defs><g transform="translate(-172.9,216.09092)"><g data-paper-data="{&quot;isPaintingLayer&quot;:true}" fill-rule="nonzero" stroke-linejoin="miter" stroke-miterlimit="10" stroke-dasharray="" stroke-dashoffset="0" style="mix-blend-mode: normal"><path d="M185.12013,-214.3052l110.23071,-0.28187l-0.02906,520.41557c0,0 -109.19116,-0.41508 -110.06518,1.5387z" data-paper-data="{&quot;origPos&quot;:null}" fill="url(#color-1)" stroke="#55b2f0" stroke-width="3" stroke-linecap="butt"/><path d="M281.8514,239.73771v-42.36335" data-paper-data="{&quot;origPos&quot;:null}" fill="none" stroke="#8bdfff" stroke-width="3" stroke-linecap="round"/><path d="M283.64026,303.16092l0.0849,-38.5212" data-paper-data="{&quot;origPos&quot;:null}" fill="none" stroke="#8bdfff" stroke-width="3" stroke-linecap="round"/><path d="M264.05065,276.50861v-46.29757" data-paper-data="{&quot;origPos&quot;:null}" fill="none" stroke="#8bdfff" stroke-width="3" stroke-linecap="round"/><path d="M244.24767,302.00469l-1.81066,-46.36522" data-paper-data="{&quot;origPos&quot;:null}" fill="none" stroke="#8bdfff" stroke-width="3" stroke-linecap="round"/><path d="M203.17512,191.35592l0.9369,107.45144" data-paper-data="{&quot;origPos&quot;:null}" fill="none" stroke="#8bdfff" stroke-width="3" stroke-linecap="round"/><path d="M221.8692,301.0664l-0.9151,-65.50281" data-paper-data="{&quot;origPos&quot;:null}" fill="none" stroke="#8bdfff" stroke-width="3" stroke-linecap="round"/><path d="M267.79817,-17.36752l0.93688,38.01838" data-paper-data="{&quot;origPos&quot;:null}" fill="none" stroke="#8bdfff" stroke-width="3" stroke-linecap="round"/><path d="M261.43604,-50.25989v-42.36335" data-paper-data="{&quot;origPos&quot;:null}" fill="none" stroke="#8bdfff" stroke-width="3" stroke-linecap="round"/><path d="M243.43925,225.04661l-2.81064,-105.36522" data-paper-data="{&quot;origPos&quot;:null}" fill="none" stroke="#8bdfff" stroke-width="3" stroke-linecap="round"/><path d="M266.92663,186.5657l-0.93688,-38.01836" data-paper-data="{&quot;origPos&quot;:null}" fill="none" stroke="#8bdfff" stroke-width="3" stroke-linecap="round"/><path d="M221.89098,138.96693l0.95866,61.91564" data-paper-data="{&quot;origPos&quot;:null}" fill="none" stroke="#8bdfff" stroke-width="3" stroke-linecap="round"/><path d="M205.94222,140.45941v-45.90719" data-paper-data="{&quot;origPos&quot;:null}" fill="none" stroke="#8bdfff" stroke-width="3" stroke-linecap="round"/><path d="M226.51003,-16.67278l0.9369,-94.50283" data-paper-data="{&quot;origPos&quot;:null}" fill="none" stroke="#8bdfff" stroke-width="3" stroke-linecap="round"/><path d="M204.09024,-56.52587l0.93686,121.65882" data-paper-data="{&quot;origPos&quot;:null}" fill="none" stroke="#8bdfff" stroke-width="3" stroke-linecap="round"/><path d="M227.53406,101.67357l-0.9151,-80.38169" data-paper-data="{&quot;origPos&quot;:null}" fill="none" stroke="#8bdfff" stroke-width="3" stroke-linecap="round"/><path d="M244.37613,44.67289v-87.98539" data-paper-data="{&quot;origPos&quot;:null}" fill="none" stroke="#8bdfff" stroke-width="3" stroke-linecap="round"/><path d="M288.2353,63.56694l-0.93688,97.76154" data-paper-data="{&quot;origPos&quot;:null}" fill="none" stroke="#8bdfff" stroke-width="3" stroke-linecap="round"/><path d="M283.72516,34.71823v-145.55606" data-paper-data="{&quot;origPos&quot;:null}" fill="none" stroke="#8bdfff" stroke-width="3" stroke-linecap="round"/><path d="M263.65859,43.51565l0.9151,80.38169" data-paper-data="{&quot;origPos&quot;:null}" fill="none" stroke="#8bdfff" stroke-width="3" stroke-linecap="round"/><g data-paper-data="{&quot;origPos&quot;:null,&quot;index&quot;:null}" fill="#8bdfff" stroke="none" stroke-linecap="butt"><path d="M212.5,305.84551c0,11.40716 -8.86476,20.65449 -19.8,20.65449c-10.93524,0 -19.8,-9.24732 -19.8,-20.65449c0,-11.40716 8.86476,-20.65449 19.8,-20.65449c10.93524,0 19.8,9.24732 19.8,20.65449z" data-paper-data="{&quot;origPos&quot;:null}" stroke-width="3"/><path d="M290.05,286.30751c9.41645,0 17.05,7.49783 17.05,16.74688c0,9.24905 -7.63355,16.74688 -17.05,16.74688c-9.41645,0 -17.05,-7.49783 -17.05,-16.74688c0,-9.24905 7.63355,-16.74688 17.05,-16.74688z" data-paper-data="{&quot;origPos&quot;:null}" stroke-width="0"/><path d="M234.5,301.37971c0,7.09093 -6.40233,12.83928 -14.3,12.83928c-7.89767,0 -14.3,-5.74834 -14.3,-12.83928c0,-7.09093 6.40233,-12.83928 14.3,-12.83928c7.89767,0 14.3,5.74834 14.3,12.83928z" data-paper-data="{&quot;origPos&quot;:null}" stroke-width="0"/><path d="M264.75,300.82147c6.37889,0 11.55,5.24848 11.55,11.72282c0,6.47433 -5.17111,11.72282 -11.55,11.72282c-6.37889,0 -11.55,-5.24848 -11.55,-11.72282c0,-6.47433 5.17111,-11.72282 11.55,-11.72282z" data-paper-data="{&quot;origPos&quot;:null}" stroke-width="0"/><path d="M259.8,299.70502c0,9.24905 -7.3873,16.74688 -16.5,16.74688c-9.1127,0 -16.5,-7.49783 -16.5,-16.74688c0,-9.24905 7.3873,-16.74688 16.5,-16.74688c9.1127,0 16.5,7.49783 16.5,16.74688z" data-paper-data="{&quot;origPos&quot;:null}" stroke-width="0"/><path d="M268.6,281.84166c7.89767,0 14.3,6.24819 14.3,13.95574c0,7.70754 -6.40233,13.95574 -14.3,13.95574c-7.89767,0 -14.3,-6.24819 -14.3,-13.95574c0,-7.70754 6.40233,-13.95574 14.3,-13.95574z" data-paper-data="{&quot;origPos&quot;:null}" stroke-width="0"/><path d="M246.6,309.19491c0,7.09093 -5.6636,12.83928 -12.65,12.83928c-6.9864,0 -12.65,-5.74834 -12.65,-12.83928c0,-7.09093 5.6636,-12.83928 12.65,-12.83928c6.9864,0 12.65,5.74834 12.65,12.83928z" data-paper-data="{&quot;origPos&quot;:null}" stroke-width="0"/></g></g></g></svg>