<svg version="1.1" xmlns="http://www.w3.org/2000/svg" xmlns:xlink="http://www.w3.org/1999/xlink" width="29.125" height="29.125" viewBox="0,0,29.125,29.125"><defs><radialGradient cx="240" cy="180" r="14.5625" gradientUnits="userSpaceOnUse" id="color-1"><stop offset="0" stop-color="#fff4b0"/><stop offset="1" stop-color="#fff4b0" stop-opacity="0"/></radialGradient><linearGradient x1="240.08072" y1="171.0733" x2="240.08072" y2="189.5469" gradientUnits="userSpaceOnUse" id="color-2"><stop offset="0" stop-color="#ffffff"/><stop offset="1" stop-color="#d1d1d1"/></linearGradient><linearGradient x1="240.08072" y1="171.0733" x2="240.08072" y2="189.5469" gradientUnits="userSpaceOnUse" id="color-3"><stop offset="0" stop-color="#ffc400"/><stop offset="1" stop-color="#ffea00"/></linearGradient><radialGradient cx="234.1778" cy="174.50788" r="5.71417" gradientUnits="userSpaceOnUse" id="color-4"><stop offset="0" stop-color="#ffec6d"/><stop offset="1" stop-color="#ffec6d" stop-opacity="0"/></radialGradient><radialGradient cx="246.26458" cy="184.5625" r="6.96417" gradientUnits="userSpaceOnUse" id="color-5"><stop offset="0" stop-color="#ffec6d"/><stop offset="1" stop-color="#ffec6d" stop-opacity="0"/></radialGradient><radialGradient cx="234.1778" cy="174.50788" r="5.71417" gradientUnits="userSpaceOnUse" id="color-6"><stop offset="0" stop-color="#ffffff"/><stop offset="1" stop-color="#ffffff" stop-opacity="0"/></radialGradient><radialGradient cx="246.26458" cy="184.5625" r="6.96417" gradientUnits="userSpaceOnUse" id="color-7"><stop offset="0" stop-color="#ffffff"/><stop offset="1" stop-color="#ffffff" stop-opacity="0"/></radialGradient></defs><g transform="translate(-225.4375,-165.4375)"><g data-paper-data="{&quot;isPaintingLayer&quot;:true}" fill-rule="nonzero" stroke-linecap="butt" stroke-linejoin="miter" stroke-miterlimit="10" stroke-dasharray="" stroke-dashoffset="0" style="mix-blend-mode: normal"><path d="M225.4375,180c0,-8.04265 6.51985,-14.5625 14.5625,-14.5625c8.04265,0 14.5625,6.51985 14.5625,14.5625c0,8.04265 -6.51985,14.5625 -14.5625,14.5625c-8.04265,0 -14.5625,-6.51985 -14.5625,-14.5625z" fill="url(#color-1)" stroke="none" stroke-width="0"/><path d="M234.16932,171.0733c6.4812,0.0772 10.3449,0.1387 11.5761,0.1852l0.0622,0.123c-0.2932,2.9864 -0.4469,4.5415 -0.4926,4.6795l-0.1237,0.0622l-6.0959,-0.7393c-0.1694,0.9852 -0.2924,1.6166 -0.3696,1.909c0.1387,0 0.2309,0.015 0.3082,0.0615c1.9397,-0.5699 2.9864,-0.8623 3.1401,-0.8623c3.0944,2.2322 4.8182,3.4948 5.1729,3.818c-0.5856,4.4801 -0.9088,6.7122 -0.9853,6.7122c-4.2026,1.6781 -6.3275,2.5246 -6.404,2.5246c-4.6337,-1.801 -7.0204,-2.7713 -7.1433,-2.8943c0.5083,-0.9852 1.2469,-2.5245 2.2171,-4.618h0.0615c0.0922,0 1.7545,0.8773 4.9877,2.6476h0.0614l1.8476,-1.8475c-0.0923,-0.1695 -0.7086,-0.8308 -1.8476,-1.9705h-0.0614c-1.6008,1.0625 -2.4481,1.6008 -2.5246,1.6008c-2.7862,-2.1242 -4.2026,-3.2324 -4.2491,-3.3246c0.4154,-4.819 0.6778,-7.4972 0.8008,-8.0671z" data-paper-data="{&quot;origPos&quot;:null}" fill="url(#color-2)" stroke="#ffffff" stroke-width="2.5"/><path d="M234.16932,171.0733c6.4812,0.0772 10.3449,0.1387 11.5761,0.1852l0.0622,0.123c-0.2932,2.9864 -0.4469,4.5415 -0.4926,4.6795l-0.1237,0.0622l-6.0959,-0.7393c-0.1694,0.9852 -0.2924,1.6166 -0.3696,1.909c0.1387,0 0.2309,0.015 0.3082,0.0615c1.9397,-0.5699 2.9864,-0.8623 3.1401,-0.8623c3.0944,2.2322 4.8182,3.4948 5.1729,3.818c-0.5856,4.4801 -0.9088,6.7122 -0.9853,6.7122c-4.2026,1.6781 -6.3275,2.5246 -6.404,2.5246c-4.6337,-1.801 -7.0204,-2.7713 -7.1433,-2.8943c0.5083,-0.9852 1.2469,-2.5245 2.2171,-4.618h0.0615c0.0922,0 1.7545,0.8773 4.9877,2.6476h0.0614l1.8476,-1.8475c-0.0923,-0.1695 -0.7086,-0.8308 -1.8476,-1.9705h-0.0614c-1.6008,1.0625 -2.4481,1.6008 -2.5246,1.6008c-2.7862,-2.1242 -4.2026,-3.2324 -4.2491,-3.3246c0.4154,-4.819 0.6778,-7.4972 0.8008,-8.0671z" data-paper-data="{&quot;origPos&quot;:null}" fill="url(#color-3)" stroke="none" stroke-width="0"/><path d="M228.46363,174.46505c0,0 3.17061,-0.63572 4.11837,-1.58348c0.94267,-0.94267 1.55298,-4.08787 1.55298,-4.08787c0,0 0.69964,3.16782 1.65538,4.12356c0.9632,0.9632 4.10163,1.63345 4.10163,1.63345c0,0 -3.17632,0.67479 -4.10454,1.603c-0.96108,0.96108 -1.5668,4.06834 -1.5668,4.06834c0,0 -0.69819,-3.13302 -1.66681,-4.10163c-0.95004,-0.95004 -4.0902,-1.65538 -4.0902,-1.65538z" fill="url(#color-4)" stroke="none" stroke-width="0"/><path d="M239.30041,184.5103c0,0 3.8642,-0.77479 5.01928,-1.92987c1.14888,-1.14888 1.89269,-4.98211 1.89269,-4.98211c0,0 0.85269,3.8608 2.0175,5.02561c1.17391,1.17391 4.99888,1.99077 4.99888,1.99077c0,0 -3.87116,0.82241 -5.00242,1.95367c-1.17132,1.17132 -1.90955,4.9583 -1.90955,4.9583c0,0 -0.85092,-3.81838 -2.03142,-4.99888c-1.15786,-1.15786 -4.98496,-2.0175 -4.98496,-2.0175z" fill="url(#color-5)" stroke="none" stroke-width="0"/><path d="M228.46363,174.46505c0,0 3.17061,-0.63572 4.11837,-1.58348c0.94267,-0.94267 1.55298,-4.08787 1.55298,-4.08787c0,0 0.69964,3.16782 1.65538,4.12356c0.9632,0.9632 4.10163,1.63345 4.10163,1.63345c0,0 -3.17632,0.67479 -4.10454,1.603c-0.96108,0.96108 -1.5668,4.06834 -1.5668,4.06834c0,0 -0.69819,-3.13302 -1.66681,-4.10163c-0.95004,-0.95004 -4.0902,-1.65538 -4.0902,-1.65538z" fill="url(#color-6)" stroke="none" stroke-width="0"/><path d="M239.30041,184.5103c0,0 3.8642,-0.77479 5.01928,-1.92987c1.14888,-1.14888 1.89269,-4.98211 1.89269,-4.98211c0,0 0.85269,3.8608 2.0175,5.02561c1.17391,1.17391 4.99888,1.99077 4.99888,1.99077c0,0 -3.87116,0.82241 -5.00242,1.95367c-1.17132,1.17132 -1.90955,4.9583 -1.90955,4.9583c0,0 -0.85092,-3.81838 -2.03142,-4.99888c-1.15786,-1.15786 -4.98496,-2.0175 -4.98496,-2.0175z" fill="url(#color-7)" stroke="none" stroke-width="0"/></g></g></svg>