<svg version="1.1" xmlns="http://www.w3.org/2000/svg" xmlns:xlink="http://www.w3.org/1999/xlink" width="580.25141" height="164.50964" viewBox="0,0,580.25141,164.50964"><defs><linearGradient x1="270.22608" y1="344.33244" x2="270.22608" y2="365.33244" gradientUnits="userSpaceOnUse" id="color-1"><stop offset="0" stop-color="#f2c17c"/><stop offset="1" stop-color="#a47353"/></linearGradient><linearGradient x1="476.16136" y1="234.2694" x2="476.16136" y2="276.34389" gradientUnits="userSpaceOnUse" id="color-2"><stop offset="0" stop-color="#b08b2e"/><stop offset="1" stop-color="#8a6632"/></linearGradient><linearGradient x1="460.07533" y1="264.65652" x2="460.07533" y2="264.65652" gradientUnits="userSpaceOnUse" id="color-3"><stop offset="0" stop-color="#b08b2e"/><stop offset="1" stop-color="#8a6632"/></linearGradient><linearGradient x1="477.06761" y1="249.46295" x2="477.06761" y2="249.46295" gradientUnits="userSpaceOnUse" id="color-4"><stop offset="0" stop-color="#b08b2e"/><stop offset="1" stop-color="#8a6632"/></linearGradient><linearGradient x1="494.73959" y1="262.31906" x2="494.73959" y2="263.48781" gradientUnits="userSpaceOnUse" id="color-5"><stop offset="0" stop-color="#b08b2e"/><stop offset="1" stop-color="#8a6632"/></linearGradient><linearGradient x1="452.59874" y1="247.12549" x2="452.59874" y2="248.29423" gradientUnits="userSpaceOnUse" id="color-6"><stop offset="0" stop-color="#b08b2e"/><stop offset="1" stop-color="#8a6632"/></linearGradient><linearGradient x1="476.16136" y1="321.56829" x2="476.16136" y2="363.64277" gradientUnits="userSpaceOnUse" id="color-7"><stop offset="0" stop-color="#b08b2e"/><stop offset="1" stop-color="#8a6632"/></linearGradient><linearGradient x1="460.07533" y1="351.95541" x2="460.07533" y2="351.95541" gradientUnits="userSpaceOnUse" id="color-8"><stop offset="0" stop-color="#b08b2e"/><stop offset="1" stop-color="#8a6632"/></linearGradient><linearGradient x1="477.06761" y1="336.76184" x2="477.06761" y2="336.76184" gradientUnits="userSpaceOnUse" id="color-9"><stop offset="0" stop-color="#b08b2e"/><stop offset="1" stop-color="#8a6632"/></linearGradient><linearGradient x1="494.73959" y1="349.61794" x2="494.73959" y2="350.78669" gradientUnits="userSpaceOnUse" id="color-10"><stop offset="0" stop-color="#b08b2e"/><stop offset="1" stop-color="#8a6632"/></linearGradient><linearGradient x1="452.59874" y1="334.42438" x2="452.59874" y2="335.59311" gradientUnits="userSpaceOnUse" id="color-11"><stop offset="0" stop-color="#b08b2e"/><stop offset="1" stop-color="#8a6632"/></linearGradient><linearGradient x1="476.16136" y1="277.36073" x2="476.16136" y2="319.43521" gradientUnits="userSpaceOnUse" id="color-12"><stop offset="0" stop-color="#b08b2e"/><stop offset="1" stop-color="#8a6632"/></linearGradient><linearGradient x1="460.07533" y1="307.74785" x2="460.07533" y2="307.74785" gradientUnits="userSpaceOnUse" id="color-13"><stop offset="0" stop-color="#b08b2e"/><stop offset="1" stop-color="#8a6632"/></linearGradient><linearGradient x1="477.06761" y1="292.55428" x2="477.06761" y2="292.55428" gradientUnits="userSpaceOnUse" id="color-14"><stop offset="0" stop-color="#b08b2e"/><stop offset="1" stop-color="#8a6632"/></linearGradient><linearGradient x1="494.73959" y1="305.41038" x2="494.73959" y2="306.57913" gradientUnits="userSpaceOnUse" id="color-15"><stop offset="0" stop-color="#b08b2e"/><stop offset="1" stop-color="#8a6632"/></linearGradient><linearGradient x1="452.59874" y1="290.21682" x2="452.59874" y2="291.38555" gradientUnits="userSpaceOnUse" id="color-16"><stop offset="0" stop-color="#b08b2e"/><stop offset="1" stop-color="#8a6632"/></linearGradient><linearGradient x1="422.1651" y1="299.30991" x2="450.1647" y2="299.53402" gradientUnits="userSpaceOnUse" id="color-17"><stop offset="0" stop-color="#adadad"/><stop offset="1" stop-color="#9e8c72"/></linearGradient><linearGradient x1="529.1576" y1="300.4265" x2="501.158" y2="300.20753" gradientUnits="userSpaceOnUse" id="color-18"><stop offset="0" stop-color="#adadad"/><stop offset="1" stop-color="#9e8c72"/></linearGradient><linearGradient x1="477.66135" y1="205.61949" x2="477.66135" y2="233.61949" gradientUnits="userSpaceOnUse" id="color-19"><stop offset="0" stop-color="#adadad"/><stop offset="1" stop-color="#9e8c72"/></linearGradient><linearGradient x1="515.16135" y1="202.61949" x2="515.16135" y2="236.61949" gradientUnits="userSpaceOnUse" id="color-20"><stop offset="0" stop-color="#b9b9b9"/><stop offset="1" stop-color="#a8a8a8"/></linearGradient><linearGradient x1="437.16135" y1="202.61949" x2="437.16135" y2="236.61949" gradientUnits="userSpaceOnUse" id="color-21"><stop offset="0" stop-color="#b9b9b9"/><stop offset="1" stop-color="#a8a8a8"/></linearGradient><linearGradient x1="33.32409" y1="243.33045" x2="33.32409" y2="286.88319" gradientUnits="userSpaceOnUse" id="color-22"><stop offset="0" stop-color="#b08b2e"/><stop offset="1" stop-color="#8a6632"/></linearGradient><linearGradient x1="5.95948" y1="274.7852" x2="5.95948" y2="274.7852" gradientUnits="userSpaceOnUse" id="color-23"><stop offset="0" stop-color="#b08b2e"/><stop offset="1" stop-color="#8a6632"/></linearGradient><linearGradient x1="34.86576" y1="259.05782" x2="34.86576" y2="259.05782" gradientUnits="userSpaceOnUse" id="color-24"><stop offset="0" stop-color="#b08b2e"/><stop offset="1" stop-color="#8a6632"/></linearGradient><linearGradient x1="64.92832" y1="272.36561" x2="64.92832" y2="273.57542" gradientUnits="userSpaceOnUse" id="color-25"><stop offset="0" stop-color="#b08b2e"/><stop offset="1" stop-color="#8a6632"/></linearGradient><linearGradient x1="-6.75929" y1="256.63823" x2="-6.75929" y2="257.84803" gradientUnits="userSpaceOnUse" id="color-26"><stop offset="0" stop-color="#b08b2e"/><stop offset="1" stop-color="#8a6632"/></linearGradient><linearGradient x1="33.32409" y1="288.97089" x2="33.32409" y2="332.52363" gradientUnits="userSpaceOnUse" id="color-27"><stop offset="0" stop-color="#b08b2e"/><stop offset="1" stop-color="#8a6632"/></linearGradient><linearGradient x1="5.95948" y1="320.42564" x2="5.95948" y2="320.42564" gradientUnits="userSpaceOnUse" id="color-28"><stop offset="0" stop-color="#b08b2e"/><stop offset="1" stop-color="#8a6632"/></linearGradient><linearGradient x1="34.86576" y1="304.69826" x2="34.86576" y2="304.69826" gradientUnits="userSpaceOnUse" id="color-29"><stop offset="0" stop-color="#b08b2e"/><stop offset="1" stop-color="#8a6632"/></linearGradient><linearGradient x1="64.92832" y1="318.00605" x2="64.92832" y2="319.21586" gradientUnits="userSpaceOnUse" id="color-30"><stop offset="0" stop-color="#b08b2e"/><stop offset="1" stop-color="#8a6632"/></linearGradient><linearGradient x1="-6.75928" y1="302.27867" x2="-6.75928" y2="303.48846" gradientUnits="userSpaceOnUse" id="color-31"><stop offset="0" stop-color="#b08b2e"/><stop offset="1" stop-color="#8a6632"/></linearGradient><linearGradient x1="34.40994" y1="214.00035" x2="34.40994" y2="242.00035" gradientUnits="userSpaceOnUse" id="color-32"><stop offset="0" stop-color="#adadad"/><stop offset="1" stop-color="#9e8c72"/></linearGradient><linearGradient x1="33.40994" y1="362.00035" x2="33.40994" y2="334.00035" gradientUnits="userSpaceOnUse" id="color-33"><stop offset="0" stop-color="#adadad"/><stop offset="1" stop-color="#9e8c72"/></linearGradient><linearGradient x1="-40.08631" y1="287.08306" x2="-12.08671" y2="287.23675" gradientUnits="userSpaceOnUse" id="color-34"><stop offset="0" stop-color="#adadad"/><stop offset="1" stop-color="#9e8c72"/></linearGradient><linearGradient x1="107.90619" y1="288.91764" x2="79.90659" y2="288.76396" gradientUnits="userSpaceOnUse" id="color-35"><stop offset="0" stop-color="#adadad"/><stop offset="1" stop-color="#9e8c72"/></linearGradient><linearGradient x1="-25.09006" y1="211.00035" x2="-25.09006" y2="245.00035" gradientUnits="userSpaceOnUse" id="color-36"><stop offset="0" stop-color="#b9b9b9"/><stop offset="1" stop-color="#a8a8a8"/></linearGradient><linearGradient x1="93.90994" y1="211.00035" x2="93.90994" y2="245.00035" gradientUnits="userSpaceOnUse" id="color-37"><stop offset="0" stop-color="#b9b9b9"/><stop offset="1" stop-color="#a8a8a8"/></linearGradient><linearGradient x1="94.90994" y1="331.00035" x2="94.90994" y2="365.00035" gradientUnits="userSpaceOnUse" id="color-38"><stop offset="0" stop-color="#b9b9b9"/><stop offset="1" stop-color="#a8a8a8"/></linearGradient><linearGradient x1="-26.09006" y1="331.00035" x2="-26.09006" y2="365.00035" gradientUnits="userSpaceOnUse" id="color-39"><stop offset="0" stop-color="#b9b9b9"/><stop offset="1" stop-color="#a8a8a8"/></linearGradient></defs><g transform="translate(45.59006,-201.61949)"><g data-paper-data="{&quot;isPaintingLayer&quot;:true}" fill-rule="nonzero" stroke-width="2" stroke-linejoin="miter" stroke-miterlimit="10" stroke-dasharray="" stroke-dashoffset="0" style="mix-blend-mode: normal"><path d="M104.02908,365.33244v-21h332.39399v21z" fill="url(#color-1)" stroke="none" stroke-linecap="butt"/><g><g data-paper-data="{&quot;origPos&quot;:null,&quot;index&quot;:null}" stroke="#75491c"><path d="M449.65341,276.34389v-42.07447h53.0159v42.07447z" data-paper-data="{&quot;origPos&quot;:null}" fill="url(#color-2)" stroke-linecap="butt"/><path d="M450.55966,264.65652h19.03135" data-paper-data="{&quot;origPos&quot;:null}" fill="url(#color-3)" stroke-linecap="round"/><path d="M492.70051,249.46295h-31.26579" data-paper-data="{&quot;origPos&quot;:null}" fill="url(#color-4)" stroke-linecap="round"/><path d="M486.80985,262.31906l15.85946,1.16875" data-paper-data="{&quot;origPos&quot;:null}" fill="url(#color-5)" stroke-linecap="round"/><path d="M455.54406,248.29423l-5.89066,-1.16874" data-paper-data="{&quot;origPos&quot;:null}" fill="url(#color-6)" stroke-linecap="round"/></g><g data-paper-data="{&quot;origPos&quot;:null,&quot;index&quot;:null}" stroke="#75491c"><path d="M449.65341,363.64277v-42.07447h53.0159v42.07447z" data-paper-data="{&quot;origPos&quot;:null}" fill="url(#color-7)" stroke-linecap="butt"/><path d="M469.59101,351.95541h-19.03135" data-paper-data="{&quot;origPos&quot;:null}" fill="url(#color-8)" stroke-linecap="round"/><path d="M461.43472,336.76184h31.26579" data-paper-data="{&quot;origPos&quot;:null}" fill="url(#color-9)" stroke-linecap="round"/><path d="M502.66931,350.78669l-15.85946,-1.16875" data-paper-data="{&quot;origPos&quot;:null}" fill="url(#color-10)" stroke-linecap="round"/><path d="M449.6534,334.42438l5.89066,1.16873" data-paper-data="{&quot;origPos&quot;:null}" fill="url(#color-11)" stroke-linecap="round"/></g><g data-paper-data="{&quot;origPos&quot;:null,&quot;index&quot;:null}" stroke="#75491c"><path d="M449.65341,319.43521v-42.07446h53.0159v42.07446z" data-paper-data="{&quot;origPos&quot;:null}" fill="url(#color-12)" stroke-linecap="butt"/><path d="M450.55966,307.74785h19.03135" data-paper-data="{&quot;origPos&quot;:null}" fill="url(#color-13)" stroke-linecap="round"/><path d="M492.70051,292.55428h-31.26579" data-paper-data="{&quot;origPos&quot;:null}" fill="url(#color-14)" stroke-linecap="round"/><path d="M486.80985,305.41038l15.85946,1.16875" data-paper-data="{&quot;origPos&quot;:null}" fill="url(#color-15)" stroke-linecap="round"/><path d="M455.54406,291.38555l-5.89066,-1.16873" data-paper-data="{&quot;origPos&quot;:null}" fill="url(#color-16)" stroke-linecap="round"/></g><g data-paper-data="{&quot;origPos&quot;:null}" stroke="#6b6b6b" stroke-linecap="butt"><g data-paper-data="{&quot;origPos&quot;:null}"><path d="M449.92846,365.12112l-27.9996,-0.22409l0.47247,-131.17419l27.9996,0.22409z" data-paper-data="{&quot;origPos&quot;:null}" fill="url(#color-17)"/><path d="M501.39424,236.11788l27.9996,0.21898l-0.47248,128.17931l-27.99959,-0.21898z" data-paper-data="{&quot;origPos&quot;:null,&quot;index&quot;:null}" fill="url(#color-18)"/><path d="M436.67398,351.53815c-4.78647,0.00681 -8.67217,-3.86787 -8.67898,-8.65434c-0.0068,-4.78646 3.86786,-8.67217 8.65433,-8.67897c4.78647,-0.00681 8.67219,3.86787 8.67899,8.65433c0.0068,4.78646 -3.86787,8.67218 -8.65434,8.67898z" data-paper-data="{&quot;origPos&quot;:null,&quot;origRot&quot;:0}" fill="#a7a095"/><path d="M515.67338,351.03416c-4.78647,0.0068 -8.67219,-3.86787 -8.67899,-8.65434c-0.0068,-4.78646 3.86787,-8.67218 8.65434,-8.67899c4.78647,-0.00681 8.67219,3.86787 8.67899,8.65434c0.00681,4.78647 -3.86787,8.67218 -8.65434,8.67899z" data-paper-data="{&quot;origPos&quot;:null,&quot;origRot&quot;:0}" fill="#a7a095"/><path d="M515.8401,252.14471c4.78647,0.002 8.66504,3.88383 8.66304,8.6703c-0.002,4.78647 -3.88383,8.66503 -8.6703,8.66303c-4.78647,-0.002 -8.66504,-3.88383 -8.66304,-8.6703c0.002,-4.78647 3.88383,-8.66504 8.6703,-8.66303z" data-paper-data="{&quot;origPos&quot;:null}" fill="#a7a095"/><path d="M515.49,292.14456c4.78647,0.002 8.66504,3.88383 8.66303,8.6703c-0.002,4.78647 -3.88382,8.66504 -8.67029,8.66303c-4.78647,-0.002 -8.66504,-3.88383 -8.66304,-8.6703c0.002,-4.78647 3.88383,-8.66504 8.6703,-8.66304z" data-paper-data="{&quot;origPos&quot;:null}" fill="#a7a095"/><path d="M436.83997,252.42776c4.78647,0.002 8.66504,3.88383 8.66304,8.6703c-0.00201,4.78647 -3.88383,8.66504 -8.6703,8.66303c-4.78647,-0.002 -8.66504,-3.88383 -8.66304,-8.6703c0.00201,-4.78647 3.88383,-8.66504 8.6703,-8.66304z" data-paper-data="{&quot;origPos&quot;:null}" fill="#a7a095"/><path d="M436.48987,292.42762c4.78647,0.002 8.66504,3.88383 8.66304,8.6703c-0.00201,4.78647 -3.88383,8.66503 -8.6703,8.66303c-4.78647,-0.002 -8.66504,-3.88383 -8.66304,-8.6703c0.00201,-4.78647 3.88383,-8.66504 8.6703,-8.66303z" data-paper-data="{&quot;origPos&quot;:null}" fill="#a7a095"/><path d="M452.66135,233.61949v-28h50v28z" data-paper-data="{&quot;origPos&quot;:null}" fill="url(#color-19)"/><path d="M467.82802,220.28616c0,-4.78647 3.8802,-8.66666 8.66667,-8.66666c4.78647,0 8.66667,3.88019 8.66667,8.66666c0,4.78647 -3.8802,8.66667 -8.66667,8.66667c-4.78647,0 -8.66667,-3.8802 -8.66667,-8.66667z" data-paper-data="{&quot;origPos&quot;:null}" fill="#a7a095"/></g><g data-paper-data="{&quot;origPos&quot;:null}"><path d="M496.66135,236.61949v-34h37v34z" data-paper-data="{&quot;origPos&quot;:null}" fill="url(#color-20)"/><path d="M505.82802,219.28616c0,-5.52284 4.47716,-10 10,-10c5.52284,0 10,4.47716 10,10c0,3.24695 -2.36557,3.53791 -3.09842,5.39204c-0.59142,1.49633 -1.52069,2.69867 -2.68806,3.80592c-1.13579,1.07729 -2.64808,0.80204 -4.21352,0.80204c0,0 -2.75393,0.61842 -4.36104,-0.45866c-1.38941,-0.93117 -2.60429,-3.87524 -2.74343,-4.10955c-1.06606,-1.79528 -2.89553,0.09105 -2.89553,-5.43179zM506.49469,219.78616c0,1.38071 3.78596,2.16666 5.16666,2.16666c0.91755,0 1.71966,-0.49431 2.15454,-1.23116c1.8634,-1.0648 1.80634,-9.29448 -1.48787,-9.29448c0,0 -3.52884,2.11278 -3.65612,2.37067c-0.77473,1.56984 -2.17721,5.80467 -2.17721,5.9883zM524.49468,219.11949c0,-1.97693 -0.18387,-3.5113 -1.33723,-5.11692c-0.96463,-1.34288 -2.34266,-2.38308 -3.99609,-2.38308c-0.91755,0 -1.553,-0.67236 -1.98788,0.06449c-1.8799,1.07423 -0.25977,9.93551 2.65454,9.93551c3.24807,0 4.66666,-2.27586 4.66666,-2.5zM513.9434,224.36949l0.67829,-0.17632c0.95162,0.11895 1.86363,0.17632 2.82171,0.17632c0,0 1.25,-1.07692 1.25,-2.32692c0,-1.25 -1.17308,-1.25 -1.17308,-1.25c-0.85996,0 -1.65952,-0.05051 -2.51162,-0.15702l-0.98838,0.15702c0,0 -1.25,0 -1.25,1.25c0,1.25 1.17308,2.32692 1.17308,2.32692z" data-paper-data="{&quot;origPos&quot;:null}" fill="#6b6b6b"/></g><g data-paper-data="{&quot;origPos&quot;:null}"><path d="M418.66135,236.61949v-34h37v34z" data-paper-data="{&quot;origPos&quot;:null}" fill="url(#color-21)"/><path d="M427.82802,219.28616c0,-5.52284 4.47715,-10 10,-10c5.52285,0 10,4.47716 10,10c0,3.24695 -2.36557,3.53791 -3.09842,5.39204c-0.59143,1.49633 -1.52069,2.69867 -2.68807,3.80592c-1.13579,1.07729 -2.64808,0.80204 -4.21352,0.80204c0,0 -2.75392,0.61842 -4.36104,-0.45866c-1.38941,-0.93117 -2.6043,-3.87524 -2.74343,-4.10955c-1.06606,-1.79528 -2.89553,0.09105 -2.89553,-5.43179zM428.49469,219.78616c0,1.38071 3.78595,2.16666 5.16667,2.16666c0.91756,0 1.71965,-0.49431 2.15453,-1.23116c1.8634,-1.0648 1.80634,-9.29448 -1.48787,-9.29448c0,0 -3.52884,2.11278 -3.65612,2.37067c-0.77473,1.56984 -2.17721,5.80467 -2.17721,5.9883zM446.49468,219.11949c0,-1.97693 -0.18387,-3.5113 -1.33723,-5.11692c-0.96464,-1.34288 -2.34266,-2.38308 -3.9961,-2.38308c-0.91756,0 -1.55299,-0.67236 -1.98787,0.06449c-1.8799,1.07423 -0.25977,9.93551 2.65454,9.93551c3.24807,0 4.66667,-2.27586 4.66667,-2.5zM435.9434,224.36949l0.67829,-0.17632c0.95162,0.11895 1.86364,0.17632 2.82171,0.17632c0,0 1.25,-1.07692 1.25,-2.32692c0,-1.25 -1.17308,-1.25 -1.17308,-1.25c-0.85996,0 -1.65953,-0.05051 -2.51163,-0.15702l-0.98837,0.15702c0,0 -1.25,0 -1.25,1.25c0,1.25 1.17308,2.32692 1.17308,2.32692z" data-paper-data="{&quot;origPos&quot;:null}" fill="#6b6b6b"/></g></g></g><g><g data-paper-data="{&quot;origPos&quot;:null,&quot;index&quot;:null}" stroke="#75491c"><path d="M-11.7697,286.88319v-43.55272h90.18761v43.55272z" data-paper-data="{&quot;origPos&quot;:null}" fill="url(#color-22)" stroke-linecap="butt"/><path d="M-10.22804,274.7852h32.37504" data-paper-data="{&quot;origPos&quot;:null}" fill="url(#color-23)" stroke-linecap="round"/><path d="M61.45955,259.05782h-53.18757" data-paper-data="{&quot;origPos&quot;:null}" fill="url(#color-24)" stroke-linecap="round"/><path d="M78.41789,273.57542l-26.9792,-1.20981" data-paper-data="{&quot;origPos&quot;:null}" fill="url(#color-25)" stroke-linecap="round"/><path d="M-11.76972,256.63823l10.02085,1.2098" data-paper-data="{&quot;origPos&quot;:null}" fill="url(#color-26)" stroke-linecap="round"/></g><g data-paper-data="{&quot;origPos&quot;:null,&quot;index&quot;:null}" stroke="#75491c"><path d="M-11.76971,332.52363v-43.55272h90.18761v43.55272z" data-paper-data="{&quot;origPos&quot;:null}" fill="url(#color-27)" stroke-linecap="butt"/><path d="M-10.22804,320.42564h32.37504" data-paper-data="{&quot;origPos&quot;:null}" fill="url(#color-28)" stroke-linecap="round"/><path d="M61.45955,304.69826h-53.18757" data-paper-data="{&quot;origPos&quot;:null}" fill="url(#color-29)" stroke-linecap="round"/><path d="M78.41789,319.21586l-26.9792,-1.20981" data-paper-data="{&quot;origPos&quot;:null}" fill="url(#color-30)" stroke-linecap="round"/><path d="M-11.76972,302.27867l10.02085,1.20979" data-paper-data="{&quot;origPos&quot;:null}" fill="url(#color-31)" stroke-linecap="round"/></g><g data-paper-data="{&quot;origPos&quot;:null}" stroke="#6b6b6b" stroke-linecap="butt"><g data-paper-data="{&quot;origPos&quot;:null}"><path d="M-9.59006,242.00035v-28h88v28z" data-paper-data="{&quot;origPos&quot;:null}" fill="url(#color-32)"/><path d="M77.40994,334.00035v28h-88v-28z" data-paper-data="{&quot;origPos&quot;:null,&quot;index&quot;:null}" fill="url(#color-33)"/></g><g data-paper-data="{&quot;origPos&quot;:null,&quot;origRot&quot;:0}"><path d="M-12.32295,332.21613l-27.9996,-0.15368l0.47247,-89.95876l27.9996,0.15368z" data-paper-data="{&quot;origPos&quot;:null}" fill="url(#color-34)"/><path d="M80.14283,243.78458l27.9996,0.15368l-0.47248,89.95876l-27.99959,-0.15368z" data-paper-data="{&quot;origPos&quot;:null,&quot;index&quot;:null}" fill="url(#color-35)"/></g></g><g data-paper-data="{&quot;origPos&quot;:null}" fill="#a7a095" stroke="#6b6b6b" stroke-linecap="butt"><g data-paper-data="{&quot;origPos&quot;:null}"><path d="M5.57661,228.66702c0,-4.78647 3.8802,-8.66666 8.66667,-8.66666c4.78647,0 8.66667,3.88019 8.66667,8.66666c0,4.78647 -3.8802,8.66667 -8.66667,8.66667c-4.78647,0 -8.66667,-3.8802 -8.66667,-8.66667z" data-paper-data="{&quot;origPos&quot;:null}"/><path d="M45.57661,229.00035c0,-4.78647 3.8802,-8.66666 8.66667,-8.66666c4.78647,0 8.66666,3.88019 8.66666,8.66666c0,4.78647 -3.8802,8.66667 -8.66666,8.66667c-4.78647,0 -8.66667,-3.8802 -8.66667,-8.66667z" data-paper-data="{&quot;origPos&quot;:null}"/><path d="M5.90994,348.66702c0,-4.78647 3.8802,-8.66667 8.66667,-8.66667c4.78647,0 8.66667,3.8802 8.66667,8.66667c0,4.78647 -3.8802,8.66667 -8.66667,8.66667c-4.78647,0 -8.66667,-3.8802 -8.66667,-8.66667z" data-paper-data="{&quot;origPos&quot;:null}"/><path d="M45.90994,349.00035c0,-4.78647 3.8802,-8.66667 8.66667,-8.66667c4.78647,0 8.66667,3.8802 8.66667,8.66667c0,4.78647 -3.8802,8.66667 -8.66667,8.66667c-4.78647,0 -8.66667,-3.8802 -8.66667,-8.66667z" data-paper-data="{&quot;origPos&quot;:null}"/></g><g data-paper-data="{&quot;origPos&quot;:null,&quot;origRot&quot;:0}"><path d="M94.58869,260.52557c4.78647,0.002 8.66504,3.88383 8.66304,8.6703c-0.002,4.78647 -3.88383,8.66503 -8.6703,8.66303c-4.78647,-0.002 -8.66504,-3.88383 -8.66304,-8.6703c0.002,-4.78647 3.88383,-8.66504 8.6703,-8.66303z" data-paper-data="{&quot;origPos&quot;:null}"/><path d="M94.23859,300.52542c4.78647,0.002 8.66504,3.88383 8.66303,8.6703c-0.002,4.78647 -3.88382,8.66504 -8.67029,8.66303c-4.78647,-0.002 -8.66504,-3.88383 -8.66304,-8.6703c0.002,-4.78647 3.88383,-8.66504 8.6703,-8.66304z" data-paper-data="{&quot;origPos&quot;:null}"/><path d="M-25.41144,260.80862c4.78647,0.002 8.66504,3.88383 8.66304,8.6703c-0.00201,4.78647 -3.88383,8.66504 -8.6703,8.66303c-4.78647,-0.002 -8.66504,-3.88383 -8.66304,-8.6703c0.00201,-4.78647 3.88383,-8.66504 8.6703,-8.66304z" data-paper-data="{&quot;origPos&quot;:null}"/><path d="M-25.76154,300.80848c4.78647,0.002 8.66504,3.88383 8.66304,8.6703c-0.00201,4.78647 -3.88383,8.66503 -8.6703,8.66303c-4.78647,-0.002 -8.66504,-3.88383 -8.66304,-8.6703c0.00201,-4.78647 3.88383,-8.66504 8.6703,-8.66303z" data-paper-data="{&quot;origPos&quot;:null}"/></g></g><g data-paper-data="{&quot;origPos&quot;:null}" stroke="#6b6b6b" stroke-linecap="butt"><path d="M-43.59006,245.00035v-34h37v34z" data-paper-data="{&quot;origPos&quot;:null}" fill="url(#color-36)"/><path d="M-34.42339,227.66702c0,-5.52284 4.47715,-10 10,-10c5.52285,0 10,4.47716 10,10c0,3.24695 -2.36557,3.53791 -3.09842,5.39204c-0.59143,1.49633 -1.52069,2.69867 -2.68807,3.80592c-1.13579,1.07729 -2.64808,0.80204 -4.21352,0.80204c0,0 -2.75392,0.61842 -4.36104,-0.45866c-1.38941,-0.93117 -2.6043,-3.87524 -2.74343,-4.10955c-1.06606,-1.79528 -2.89553,0.09105 -2.89553,-5.43179zM-33.75672,228.16702c0,1.38071 3.78595,2.16666 5.16667,2.16666c0.91756,0 1.71965,-0.49431 2.15453,-1.23116c1.8634,-1.0648 1.80634,-9.29448 -1.48787,-9.29448c0,0 -3.52884,2.11278 -3.65612,2.37067c-0.77473,1.56984 -2.17721,5.80467 -2.17721,5.9883zM-15.75673,227.50035c0,-1.97693 -0.18387,-3.5113 -1.33723,-5.11692c-0.96464,-1.34288 -2.34266,-2.38308 -3.9961,-2.38308c-0.91756,0 -1.55299,-0.67236 -1.98787,0.06449c-1.8799,1.07423 -0.25977,9.93551 2.65454,9.93551c3.24807,0 4.66667,-2.27586 4.66667,-2.5zM-26.30801,232.75035l0.67829,-0.17632c0.95162,0.11895 1.86364,0.17632 2.82171,0.17632c0,0 1.25,-1.07692 1.25,-2.32692c0,-1.25 -1.17308,-1.25 -1.17308,-1.25c-0.85996,0 -1.65953,-0.05051 -2.51163,-0.15702l-0.98837,0.15702c0,0 -1.25,0 -1.25,1.25c0,1.25 1.17308,2.32692 1.17308,2.32692z" data-paper-data="{&quot;origPos&quot;:null}" fill="#6b6b6b"/></g><g data-paper-data="{&quot;origPos&quot;:null}" stroke="#6b6b6b" stroke-linecap="butt"><path d="M75.40994,245.00035v-34h37v34z" data-paper-data="{&quot;origPos&quot;:null}" fill="url(#color-37)"/><path d="M84.57661,227.66702c0,-5.52284 4.47716,-10 10,-10c5.52284,0 10,4.47716 10,10c0,3.24695 -2.36557,3.53791 -3.09842,5.39204c-0.59142,1.49633 -1.52069,2.69867 -2.68806,3.80592c-1.13579,1.07729 -2.64808,0.80204 -4.21352,0.80204c0,0 -2.75393,0.61842 -4.36104,-0.45866c-1.38941,-0.93117 -2.60429,-3.87524 -2.74343,-4.10955c-1.06606,-1.79528 -2.89553,0.09105 -2.89553,-5.43179zM85.24328,228.16702c0,1.38071 3.78596,2.16666 5.16666,2.16666c0.91755,0 1.71966,-0.49431 2.15454,-1.23116c1.8634,-1.0648 1.80634,-9.29448 -1.48787,-9.29448c0,0 -3.52884,2.11278 -3.65612,2.37067c-0.77473,1.56984 -2.17721,5.80467 -2.17721,5.9883zM103.24327,227.50035c0,-1.97693 -0.18387,-3.5113 -1.33723,-5.11692c-0.96463,-1.34288 -2.34266,-2.38308 -3.99609,-2.38308c-0.91755,0 -1.553,-0.67236 -1.98788,0.06449c-1.8799,1.07423 -0.25977,9.93551 2.65454,9.93551c3.24807,0 4.66666,-2.27586 4.66666,-2.5zM92.69199,232.75035l0.67829,-0.17632c0.95162,0.11895 1.86363,0.17632 2.82171,0.17632c0,0 1.25,-1.07692 1.25,-2.32692c0,-1.25 -1.17308,-1.25 -1.17308,-1.25c-0.85996,0 -1.65952,-0.05051 -2.51162,-0.15702l-0.98838,0.15702c0,0 -1.25,0 -1.25,1.25c0,1.25 1.17308,2.32692 1.17308,2.32692z" data-paper-data="{&quot;origPos&quot;:null}" fill="#6b6b6b"/></g><g data-paper-data="{&quot;origPos&quot;:null}" stroke="#6b6b6b" stroke-linecap="butt"><path d="M76.40994,365.00035v-34h37v34z" data-paper-data="{&quot;origPos&quot;:null}" fill="url(#color-38)"/><path d="M85.57661,347.66702c0,-5.52285 4.47716,-10 10,-10c5.52284,0 10,4.47715 10,10c0,3.24695 -2.36557,3.53791 -3.09842,5.39204c-0.59142,1.49633 -1.52069,2.69867 -2.68806,3.80592c-1.13579,1.07729 -2.64808,0.80204 -4.21352,0.80204c0,0 -2.75393,0.61842 -4.36104,-0.45866c-1.38941,-0.93117 -2.60429,-3.87524 -2.74343,-4.10955c-1.06606,-1.79528 -2.89553,0.09105 -2.89553,-5.43179zM86.24328,348.16702c0,1.38071 3.78596,2.16666 5.16666,2.16666c0.91755,0 1.71966,-0.49431 2.15454,-1.23116c1.8634,-1.0648 1.80634,-9.29448 -1.48787,-9.29448c0,0 -3.52884,2.11278 -3.65612,2.37067c-0.77473,1.56984 -2.17721,5.80467 -2.17721,5.98831zM104.24327,347.50035c0,-1.97693 -0.18387,-3.5113 -1.33723,-5.11692c-0.96463,-1.34289 -2.34266,-2.38308 -3.99609,-2.38308c-0.91755,0 -1.553,-0.67236 -1.98788,0.0645c-1.8799,1.07423 -0.25977,9.9355 2.65454,9.9355c3.24807,0 4.66666,-2.27585 4.66666,-2.5zM93.69199,352.75035l0.67829,-0.17632c0.95162,0.11895 1.86363,0.17632 2.82171,0.17632c0,0 1.25,-1.07693 1.25,-2.32693c0,-1.25 -1.17308,-1.25 -1.17308,-1.25c-0.85996,0 -1.65952,-0.0505 -2.51162,-0.15702l-0.98838,0.15702c0,0 -1.25,0 -1.25,1.25c0,1.25 1.17308,2.32693 1.17308,2.32693z" data-paper-data="{&quot;origPos&quot;:null}" fill="#6b6b6b"/></g><g data-paper-data="{&quot;origPos&quot;:null}" stroke="#6b6b6b" stroke-linecap="butt"><path d="M-44.59006,365.00035v-34h37v34z" data-paper-data="{&quot;origPos&quot;:null}" fill="url(#color-39)"/><path d="M-35.42339,347.66702c0,-5.52285 4.47715,-10 10,-10c5.52285,0 10,4.47715 10,10c0,3.24695 -2.36557,3.53791 -3.09842,5.39204c-0.59143,1.49633 -1.52069,2.69867 -2.68807,3.80592c-1.13579,1.07729 -2.64808,0.80204 -4.21352,0.80204c0,0 -2.75392,0.61842 -4.36104,-0.45866c-1.38941,-0.93117 -2.6043,-3.87524 -2.74343,-4.10955c-1.06606,-1.79528 -2.89553,0.09105 -2.89553,-5.43179zM-34.75672,348.16702c0,1.38071 3.78595,2.16666 5.16667,2.16666c0.91756,0 1.71965,-0.49431 2.15453,-1.23116c1.8634,-1.0648 1.80634,-9.29448 -1.48787,-9.29448c0,0 -3.52884,2.11278 -3.65612,2.37067c-0.77473,1.56984 -2.17721,5.80467 -2.17721,5.98831zM-16.75673,347.50035c0,-1.97693 -0.18387,-3.5113 -1.33723,-5.11692c-0.96464,-1.34289 -2.34266,-2.38308 -3.9961,-2.38308c-0.91756,0 -1.55299,-0.67236 -1.98787,0.0645c-1.8799,1.07423 -0.25977,9.9355 2.65454,9.9355c3.24807,0 4.66667,-2.27585 4.66667,-2.5zM-27.30801,352.75035l0.67829,-0.17632c0.95162,0.11895 1.86364,0.17632 2.82171,0.17632c0,0 1.25,-1.07693 1.25,-2.32693c0,-1.25 -1.17308,-1.25 -1.17308,-1.25c-0.85996,0 -1.65953,-0.0505 -2.51163,-0.15702l-0.98837,0.15702c0,0 -1.25,0 -1.25,1.25c0,1.25 1.17308,2.32693 1.17308,2.32693z" data-paper-data="{&quot;origPos&quot;:null}" fill="#6b6b6b"/></g></g></g></g></svg>