<svg version="1.1" xmlns="http://www.w3.org/2000/svg" xmlns:xlink="http://www.w3.org/1999/xlink" width="115" height="115" viewBox="0,0,115,115"><defs><linearGradient x1="240.5" y1="127.25" x2="240.5" y2="210.18374" gradientUnits="userSpaceOnUse" id="color-1"><stop offset="0" stop-color="#0f1eb5"/><stop offset="1" stop-color="#00e0ff"/></linearGradient><linearGradient x1="239.24947" y1="115.91797" x2="239.24947" y2="210.74788" gradientUnits="userSpaceOnUse" id="color-2"><stop offset="0" stop-color="#000000"/><stop offset="1" stop-color="#000000" stop-opacity="0"/></linearGradient><linearGradient x1="239.81361" y1="90.04666" x2="239.81361" y2="211.11038" gradientUnits="userSpaceOnUse" id="color-3"><stop offset="0" stop-color="#020b30"/><stop offset="1" stop-color="#020b30" stop-opacity="0"/></linearGradient><linearGradient x1="240" y1="205.90946" x2="240" y2="230.50832" gradientUnits="userSpaceOnUse" id="color-4"><stop offset="0" stop-color="#0b1a3c" stop-opacity="0"/><stop offset="1" stop-color="#0b1a3c"/></linearGradient></defs><g transform="translate(-182.375,-121.25)"><g data-paper-data="{&quot;isPaintingLayer&quot;:true}" fill-rule="nonzero" stroke-linejoin="miter" stroke-miterlimit="10" stroke-dasharray="" stroke-dashoffset="0" style="mix-blend-mode: normal"><path d="M188.875,127.25h103.25v82.93374h-103.25z" data-paper-data="{&quot;origPos&quot;:null}" fill="url(#color-1)" stroke="none" stroke-width="1" stroke-linecap="butt"/><path d="M187.62447,126.2011h103.25v84.54677h-103.25z" fill="url(#color-2)" stroke="none" stroke-width="1" stroke-linecap="butt"/><g fill="#ffffff" stroke="none" stroke-width="0" stroke-linecap="butt"><path d="M196.14547,190.98883c0,-0.55678 0.45137,-1.00815 1.00815,-1.00815c0.55678,0 1.00815,0.45137 1.00815,1.00815c0,0.55678 -0.45137,1.00815 -1.00815,1.00815c-0.55678,0 -1.00815,-0.45137 -1.00815,-1.00815z"/><path d="M209.61393,182.27799c0,-0.55678 0.45137,-1.00815 1.00815,-1.00815c0.55678,0 1.00815,0.45137 1.00815,1.00815c0,0.55678 -0.45137,1.00815 -1.00815,1.00815c-0.55678,0 -1.00815,-0.45137 -1.00815,-1.00815z"/><path d="M196.06396,146.14546c0,-0.55678 0.45137,-1.00815 1.00815,-1.00815c0.55678,0 1.00815,0.45137 1.00815,1.00815c0,0.55678 -0.45137,1.00815 -1.00815,1.00815c-0.55678,0 -1.00815,-0.45137 -1.00815,-1.00815z"/><path d="M207.51612,138.64439c0,-0.55678 0.45137,-1.00815 1.00815,-1.00815c0.55678,0 1.00815,0.45137 1.00815,1.00815c0,0.55678 -0.45137,1.00815 -1.00815,1.00815c-0.55678,0 -1.00815,-0.45137 -1.00815,-1.00815z"/><path d="M229.45305,190.22093c0,-0.55678 0.45137,-1.00815 1.00815,-1.00815c0.55678,0 1.00815,0.45137 1.00815,1.00815c0,0.55678 -0.45137,1.00815 -1.00815,1.00815c-0.55678,0 -1.00815,-0.45137 -1.00815,-1.00815z"/><path d="M220.13731,148.44276c0,-0.55678 0.45137,-1.00815 1.00815,-1.00815c0.55678,0 1.00815,0.45137 1.00815,1.00815c0,0.55678 -0.45136,1.00816 -1.00815,1.00816c-0.55678,0 -1.00815,-0.45137 -1.00815,-1.00816z"/><path d="M281.79536,138.52214c0,-0.55678 0.45137,-1.00815 1.00815,-1.00815c0.55678,0 1.00815,0.45137 1.00815,1.00815c0,0.55678 -0.45137,1.00815 -1.00815,1.00815c-0.55678,0 -1.00815,-0.45137 -1.00815,-1.00815z"/><path d="M263.56927,145.09655c0,-0.55678 0.45137,-1.00815 1.00815,-1.00815c0.55678,0 1.00815,0.45137 1.00815,1.00815c0,0.55678 -0.45137,1.00815 -1.00815,1.00815c-0.55678,0 -1.00815,-0.45137 -1.00815,-1.00815z"/><path d="M281.27196,157.35523c0,-0.55678 0.45137,-1.00815 1.00815,-1.00815c0.55678,0 1.00815,0.45137 1.00815,1.00815c0,0.55678 -0.45137,1.00815 -1.00815,1.00815c-0.55678,0 -1.00815,-0.45137 -1.00815,-1.00815z"/><path d="M255.98671,159.89492c0,-0.55678 0.45137,-1.00815 1.00815,-1.00815c0.55678,0 1.00815,0.45137 1.00815,1.00815c0,0.55678 -0.45137,1.00815 -1.00815,1.00815c-0.55678,0 -1.00815,-0.45137 -1.00815,-1.00815z"/><path d="M243.52639,148.84602c0,-0.55678 0.45137,-1.00815 1.00815,-1.00815c0.55678,0 1.00815,0.45137 1.00815,1.00815c0,0.55678 -0.45137,1.00816 -1.00815,1.00816c-0.55678,0 -1.00815,-0.45137 -1.00815,-1.00816z"/><path d="M233.96828,137.2716c0,-0.55678 0.45137,-1.00815 1.00815,-1.00815c0.55678,0 1.00815,0.45137 1.00815,1.00815c0,0.55678 -0.45137,1.00815 -1.00815,1.00815c-0.55678,0 -1.00815,-0.45137 -1.00815,-1.00815z"/><path d="M258.12313,191.06607c0,-0.55678 0.45137,-1.00815 1.00815,-1.00815c0.55678,0 1.00815,0.45137 1.00815,1.00815c0,0.55678 -0.45137,1.00816 -1.00815,1.00816c-0.55678,0 -1.00815,-0.45137 -1.00815,-1.00816z"/></g><path d="M188.18861,125.55546h103.25v85.55493h-103.25z" fill="url(#color-3)" stroke="none" stroke-width="1" stroke-linecap="butt"/><g fill="#204fb3" stroke="none" stroke-width="1" stroke-linecap="butt"><path d="M198.625,201.75c2.897,0 5.522,1.177 7.423,3.077c1.9,1.901 3.077,4.526 3.077,7.423c0,2.897 -1.177,5.522 -3.077,7.423c-1.901,1.9 -4.526,3.077 -7.423,3.077c-2.897,0 -5.522,-1.177 -7.423,-3.077c-1.9,-1.901 -3.077,-4.526 -3.077,-7.423c0,-2.897 1.177,-5.522 3.077,-7.423c1.901,-1.9 4.526,-3.077 7.423,-3.077z" data-paper-data="{&quot;origPos&quot;:null}"/><path d="M211.875,194.5c2.897,0 5.522,1.177 7.423,3.077c1.9,1.901 3.077,4.526 3.077,7.423c0,2.897 -1.177,5.522 -3.077,7.423c-1.901,1.9 -4.526,3.077 -7.423,3.077c-2.897,0 -5.522,-1.177 -7.423,-3.077c-1.9,-1.901 -3.077,-4.526 -3.077,-7.423c0,-2.897 1.177,-5.522 3.077,-7.423c1.901,-1.9 4.526,-3.077 7.423,-3.077z" data-paper-data="{&quot;origPos&quot;:null}"/><path d="M228.125,196.5c2.897,0 5.522,1.177 7.423,3.077c1.9,1.901 3.077,4.526 3.077,7.423c0,2.897 -1.177,5.522 -3.077,7.423c-1.901,1.9 -4.526,3.077 -7.423,3.077c-2.897,0 -5.522,-1.177 -7.423,-3.077c-1.9,-1.901 -3.077,-4.526 -3.077,-7.423c0,-2.897 1.177,-5.522 3.077,-7.423c1.901,-1.9 4.526,-3.077 7.423,-3.077z" data-paper-data="{&quot;origPos&quot;:null}"/><path d="M245.625,187.75c2.897,0 5.522,1.177 7.423,3.077c1.9,1.901 3.077,4.526 3.077,7.423c0,2.897 -1.177,5.522 -3.077,7.423c-1.901,1.9 -4.526,3.077 -7.423,3.077c-2.897,0 -5.522,-1.177 -7.423,-3.077c-1.9,-1.901 -3.077,-4.526 -3.077,-7.423c0,-2.897 1.177,-5.522 3.077,-7.423c1.901,-1.9 4.526,-3.077 7.423,-3.077z" data-paper-data="{&quot;origPos&quot;:null}"/><path d="M260.125,197.75c2.897,0 5.522,1.177 7.423,3.077c1.9,1.901 3.077,4.526 3.077,7.423c0,2.897 -1.177,5.522 -3.077,7.423c-1.901,1.9 -4.526,3.077 -7.423,3.077c-2.897,0 -5.522,-1.177 -7.423,-3.077c-1.9,-1.901 -3.077,-4.526 -3.077,-7.423c0,-2.897 1.177,-5.522 3.077,-7.423c1.901,-1.9 4.526,-3.077 7.423,-3.077z" data-paper-data="{&quot;origPos&quot;:null}"/><path d="M275.375,203c2.897,0 5.522,1.177 7.423,3.077c1.9,1.901 3.077,4.526 3.077,7.423c0,2.897 -1.177,5.522 -3.077,7.423c-1.901,1.9 -4.526,3.077 -7.423,3.077c-2.897,0 -5.522,-1.177 -7.423,-3.077c-1.9,-1.901 -3.077,-4.526 -3.077,-7.423c0,-2.897 1.177,-5.522 3.077,-7.423c1.901,-1.9 4.526,-3.077 7.423,-3.077z" data-paper-data="{&quot;origPos&quot;:null}"/><path d="M283.125,193c2.897,0 5.522,1.177 7.423,3.077c1.9,1.901 3.077,4.526 3.077,7.423c0,2.897 -1.177,5.522 -3.077,7.423c-1.901,1.9 -4.526,3.077 -7.423,3.077c-2.897,0 -5.522,-1.177 -7.423,-3.077c-1.9,-1.901 -3.077,-4.526 -3.077,-7.423c0,-2.897 1.177,-5.522 3.077,-7.423c1.901,-1.9 4.526,-3.077 7.423,-3.077z" data-paper-data="{&quot;origPos&quot;:null}"/><path d="M193.125,205.5h99.75v28.75h-99.75z" data-paper-data="{&quot;origPos&quot;:null}"/><path d="M186.375,211.25h14.25v22.5h-14.25z" data-paper-data="{&quot;origPos&quot;:null}"/></g><path d="M187.27375,230.50832v-24.59886h105.45251v24.59886z" fill="url(#color-4)" stroke="none" stroke-width="0" stroke-linecap="butt"/><path d="M188.375,206.75h25.75v25h-25.75z" data-paper-data="{&quot;origPos&quot;:null}" fill="#6c737f" stroke="none" stroke-width="1" stroke-linecap="butt"/><path d="M187.125,202h27.5v7.75h-27.5z" data-paper-data="{&quot;origPos&quot;:null}" fill="#45c96e" stroke="none" stroke-width="1" stroke-linecap="butt"/><path d="M235.125,207.75h-12.75" data-paper-data="{&quot;origPos&quot;:null}" fill="none" stroke="#00a8ff" stroke-width="2" stroke-linecap="round"/><path d="M264.375,194h12.75" data-paper-data="{&quot;origPos&quot;:null}" fill="none" stroke="#00a8ff" stroke-width="2" stroke-linecap="round"/><path d="M268.375,218.5h10.25" data-paper-data="{&quot;origPos&quot;:null}" fill="none" stroke="#00a8ff" stroke-width="2" stroke-linecap="round"/><path d="M243.875,212.75h11.5" data-paper-data="{&quot;origPos&quot;:null}" fill="none" stroke="#ff4646" stroke-width="2" stroke-linecap="round"/><path d="M249.125,196.75h-14.5" data-paper-data="{&quot;origPos&quot;:null}" fill="none" stroke="#ff4646" stroke-width="2" stroke-linecap="round"/><path d="M186.875,125.75h106v106h-106z" data-paper-data="{&quot;origPos&quot;:null}" fill="none" stroke="#995900" stroke-width="9" stroke-linecap="butt"/><g stroke-linecap="butt"><path d="M199.7549,152.84849l84.61239,19.00374l-3.30572,14.71841l-84.61239,-19.00374z" fill="#ff4a4a" stroke="none" stroke-width="0"/><g fill="#ff8181" stroke="none" stroke-width="0"><path d="M200.12458,160.79194l1.29076,-5.74697l5.74697,1.29076l-1.29076,5.74697z"/><path d="M204.57907,167.82696l1.29075,-5.74697l5.74697,1.29076l-1.29075,5.74697z"/></g><g fill="#ff8181" stroke="none" stroke-width="0"><path d="M211.62131,163.37409l1.29076,-5.74697l5.74697,1.29075l-1.29076,5.74697z"/><path d="M216.0758,170.4091l1.29075,-5.74697l5.74697,1.29076l-1.29075,5.74697z"/></g><g fill="#ff8181" stroke="none" stroke-width="0"><path d="M223.11805,165.95622l1.29076,-5.74697l5.74698,1.29076l-1.29076,5.74697z"/><path d="M227.57253,172.99123l1.29075,-5.74697l5.74697,1.29076l-1.29075,5.74697z"/></g><g fill="#ff8181" stroke="none" stroke-width="0"><path d="M234.61477,168.53837l1.29076,-5.74697l5.74697,1.29075l-1.29076,5.74697z"/><path d="M239.06926,175.57337l1.29075,-5.74697l5.74697,1.29076l-1.29075,5.74697z"/></g><g fill="#ff8181" stroke="none" stroke-width="0"><path d="M246.11151,171.12051l1.29076,-5.74697l5.74697,1.29076l-1.29076,5.74697z"/><path d="M250.566,178.15551l1.29075,-5.74697l5.74697,1.29075l-1.29075,5.74697z"/></g><g fill="#ff8181" stroke="none" stroke-width="0"><path d="M257.60826,173.70264l1.29076,-5.74697l5.74697,1.29076l-1.29076,5.74697z"/><path d="M262.06275,180.73765l1.29075,-5.74697l5.74697,1.29076l-1.29075,5.74697z"/></g><g fill="#ff8181" stroke="none" stroke-width="0"><path d="M269.10499,176.28479l1.29076,-5.74697l5.74697,1.29076l-1.29076,5.74697z"/><path d="M273.55948,183.31979l1.29075,-5.74697l5.74697,1.29076l-1.29075,5.74697z"/></g><path d="M200.06724,152.9957l83.95477,18.85604l-3.30572,14.71841l-83.95477,-18.85604z" fill="none" stroke="#d12634" stroke-width="3.5"/></g></g></g></svg>