<svg version="1.1" xmlns="http://www.w3.org/2000/svg" xmlns:xlink="http://www.w3.org/1999/xlink" width="146.858" height="104.97905" viewBox="0,0,146.858,104.97905"><defs><linearGradient x1="168.22089" y1="130.26047" x2="168.22089" y2="218.75655" gradientUnits="userSpaceOnUse" id="color-1"><stop offset="0" stop-color="#b2b2b2"/><stop offset="1" stop-color="#7f7f7f"/></linearGradient></defs><g transform="translate(-166.57596,-128.76047)"><g data-paper-data="{&quot;isPaintingLayer&quot;:true}" fill-rule="nonzero" stroke-linejoin="miter" stroke-miterlimit="10" stroke-dasharray="" stroke-dashoffset="0" style="mix-blend-mode: normal"><path d="M168.22089,130.26047h143.55822l-7.5557,76.78476l-11.71133,11.71133h-105.40196l-11.80577,-11.80577z" fill="url(#color-1)" stroke="#969696" stroke-width="3" stroke-linecap="round"/><path d="M271.24353,211.7454c2.48206,0 4.73204,1.00767 6.35957,2.63758c1.62993,1.62753 2.63758,3.87734 2.63758,6.3594c0,2.48206 -1.00767,4.73204 -2.63758,6.35957c-1.62753,1.62993 -3.87751,2.63758 -6.35957,2.63758c-2.48206,0 -4.73187,-1.00767 -6.3594,-2.63758c-1.62993,-1.62753 -2.63758,-3.87751 -2.63758,-6.35957c0,-2.48206 1.00767,-4.73187 2.63758,-6.3594c1.62753,-1.62993 3.87734,-2.63758 6.3594,-2.63758z" fill="#969696" stroke="#000000" stroke-width="8" stroke-linecap="butt"/><path d="M207.71594,211.43219c2.48206,0 4.73204,1.00765 6.35957,2.63758c1.62993,1.62753 2.63758,3.87734 2.63758,6.3594c0,2.48206 -1.00765,4.73204 -2.63758,6.35957c-1.62753,1.62993 -3.87751,2.63758 -6.35957,2.63758c-2.48206,0 -4.73187,-1.00765 -6.3594,-2.63758c-1.62993,-1.62753 -2.63758,-3.87751 -2.63758,-6.35957c0,-2.48206 1.00765,-4.73187 2.63758,-6.3594c1.62753,-1.62993 3.87734,-2.63758 6.3594,-2.63758z" fill="#969696" stroke="#000000" stroke-width="8" stroke-linecap="butt"/><path d="M218.37199,171.29142c0,-12.26298 9.94111,-22.20408 22.20408,-22.20408c12.26297,0 22.20407,9.94111 22.20407,22.20408c0,12.26298 -9.94111,22.20407 -22.20407,22.20407c-12.26297,0 -22.20408,-9.94111 -22.20408,-22.20407z" fill="#ffffff" stroke="#b0b0b0" stroke-width="2" stroke-linecap="butt"/><path d="M237.7542,154.60528l-0.68714,24.04955l15.52914,-0.96197l0.27484,7.83328l-22.1256,0.13742l-0.82455,-30.92086z" fill="#b0b0b0" stroke="#000000" stroke-width="0" stroke-linecap="round"/></g></g></svg>