<svg version="1.1" xmlns="http://www.w3.org/2000/svg" xmlns:xlink="http://www.w3.org/1999/xlink" width="500.7188" height="397.26182" viewBox="0,0,500.7188,397.26182"><defs><linearGradient x1="243.83545" y1="-20.61398" x2="243.83545" y2="71.6444" gradientUnits="userSpaceOnUse" id="color-1"><stop offset="0" stop-color="#ead69e"/><stop offset="1" stop-color="#ccbb8a"/></linearGradient><linearGradient x1="285.99005" y1="279.47452" x2="285.99005" y2="341.33422" gradientUnits="userSpaceOnUse" id="color-2"><stop offset="0" stop-color="#ead69e"/><stop offset="1" stop-color="#ccbb8a"/></linearGradient><linearGradient x1="391.22895" y1="318.75582" x2="391.22895" y2="373.75592" gradientUnits="userSpaceOnUse" id="color-3"><stop offset="0" stop-color="#c7a645"/><stop offset="1" stop-color="#ffd559"/></linearGradient><linearGradient x1="244.13095" y1="38.88601" x2="244.13095" y2="131.14442" gradientUnits="userSpaceOnUse" id="color-4"><stop offset="0" stop-color="#ead69e"/><stop offset="1" stop-color="#ccbb8a"/></linearGradient><linearGradient x1="99.09061" y1="85.26267" x2="99.09061" y2="135.03284" gradientUnits="userSpaceOnUse" id="color-5"><stop offset="0" stop-color="#ebcd5b"/><stop offset="1" stop-color="#ebcd5b" stop-opacity="0"/></linearGradient><linearGradient x1="376.81064" y1="33.8858" x2="376.81064" y2="74.7925" gradientUnits="userSpaceOnUse" id="color-6"><stop offset="0" stop-color="#ebcd5b"/><stop offset="1" stop-color="#ebcd5b" stop-opacity="0"/></linearGradient><linearGradient x1="392.19141" y1="275.17547" x2="392.19141" y2="314.29951" gradientUnits="userSpaceOnUse" id="color-7"><stop offset="0" stop-color="#ebcd5b"/><stop offset="1" stop-color="#ebcd5b" stop-opacity="0"/></linearGradient><radialGradient cx="78.60152" cy="205.5812" r="111.7647" gradientUnits="userSpaceOnUse" id="color-8"><stop offset="0" stop-color="#e3dbc6"/><stop offset="1" stop-color="#e5e5e5"/></radialGradient></defs><g transform="translate(-5.05228,22.5059)"><g data-paper-data="{&quot;isPaintingLayer&quot;:true}" fill-rule="nonzero" stroke-linejoin="miter" stroke-miterlimit="10" stroke-dasharray="" stroke-dashoffset="0" style="mix-blend-mode: normal"><path d="M243.83545,-20.61398h29.6889v92.2584h-29.6889z" data-paper-data="{&quot;origPos&quot;:null}" fill="url(#color-1)" stroke="#b7a47c" stroke-width="3.78384" stroke-linecap="butt"/><path d="M285.99005,279.47452h210.7914v61.8597h-210.7914z" data-paper-data="{&quot;origPos&quot;:null}" fill="url(#color-2)" stroke="#b7a47c" stroke-width="3.78384" stroke-linecap="butt"/><path d="M284.22895,318.75582h214v55.0001h-214z" data-paper-data="{&quot;origPos&quot;:null}" fill="url(#color-3)" stroke="#8c7531" stroke-width="2" stroke-linecap="butt"/><path d="M244.13095,38.88601h237.5114v92.2584h-237.5114z" data-paper-data="{&quot;origPos&quot;:null}" fill="url(#color-4)" stroke="#b7a47c" stroke-width="3.78384" stroke-linecap="butt"/><path d="M121.21913,135.0018c-30.67311,0.632 -61.86955,-8.466 -88.48805,-20.501c-10.44787,-4.729 -44.38555,-24.007 -17.61231,-26c59.04583,-4.39582 118.48784,-3.58426 178.01019,-1.83458c0,2.79879 -0.00001,5.59757 -0.00004,8.39636c-0.00004,3.66653 -0.00521,7.33305 -0.00914,10.99957c0.03593,3.64596 -1.24885,7.26691 -1.24885,10.93865c0,0.24491 0,0.48983 0,0.73474c-23.31118,6.17823 -46.07944,16.75393 -70.6518,17.26626z" data-paper-data="{&quot;origPos&quot;:null}" fill="url(#color-5)" stroke="#8c7531" stroke-width="0" stroke-linecap="butt"/><path d="M458.08563,36.79252c7.63248,0.05282 15.26815,0.09274 22.90671,0.12151c-0.25393,1.62618 -0.12717,3.27627 -0.73254,4.87849c-0.05826,0.1542 -0.27736,-0.56866 -0.40604,-0.42536c-1.35092,1.50444 -1.47298,4.69209 -1.60979,5.92536c-0.31029,2.79695 0.71531,5.72598 0,8.5c-0.04013,0.15561 -0.27736,-0.56866 -0.40604,-0.42536c-0.7854,0.87466 -0.90707,1.86624 -1.58326,2.76308c-0.74272,1.10533 -2.11889,2.88957 -3.23361,4.49027c-2.41427,1.19634 -4.74808,2.43375 -7.01212,3.69998c-0.36434,-0.0944 -2.17622,0.83015 -2.97847,1.15152c-2.50597,1.00384 -4.55071,2.27534 -7.10394,3.24944c-0.68588,0.26168 -1.51283,0.41116 -2.30664,0.58844c0.68323,-0.18586 1.52239,-0.44955 1.11486,-0.5042c-2.05124,-0.27508 -4.03167,0.66667 -6.0475,1c-4.03167,0.66667 -8.06333,1.33333 -12.095,2c-1.89953,0.3141 -3.79906,0.6282 -5.69859,0.9423c0.12899,-0.40096 -2.0712,0.04453 -3.04553,0.04453c-1.00792,0 -2.01583,0 -3.02375,0c-4.03167,0 -8.06333,0 -12.095,0c-12.76695,0 -25.53389,0 -38.30084,0c-1.90402,0 -3.80804,0 -5.71206,0c0.28675,-0.48533 -1.993,-0.40208 -3.03207,-0.48683c-1.06671,-0.087 -2.13784,-0.15943 -3.21162,-0.22228c-1.38428,-0.36158 -2.76882,-0.72262 -4.15392,-1.08227c-1.37124,-0.70725 -3.10188,-1.11386 -5.07428,-1.30903c-24.04384,-6.15441 -48.36845,-11.58259 -74.56816,-11.89958c-2.02288,-0.07749 -4.03854,-0.12441 -6.0475,-0.14274c0,-8.45242 0,-16.90483 0,-25.35726c0,-0.13364 0.02721,-0.26992 0.05983,-0.40673c61.82602,1.25937 123.67088,2.61554 185.39685,2.90673z" data-paper-data="{&quot;origPos&quot;:null}" fill="url(#color-6)" stroke="#8c7531" stroke-width="0" stroke-linecap="butt"/><path d="M494.11249,279.1786c34.53112,1.75748 -17.4892,14.30951 -29.38263,17.34066c-35.70643,9.06743 -75.00244,17.47592 -114.81917,17.77505c-21.59258,0.16015 -42.59791,-3.4109 -63.5423,-7.39573c-0.2277,-0.15294 -0.45323,-0.30272 -0.67589,-0.44919c-2.14273,-1.40943 -6.263,-3.83138 -6.25796,-4.0016c0.00717,-0.24211 0.12006,-3.70073 -0.82281,-5.78901c0.00967,-0.04649 0.01905,-0.093 0.02812,-0.13952c0.0101,-0.05182 0.02612,-0.1144 0.04548,-0.18386c1.0825,-0.88934 1.09139,-11.90314 2.15038,-14.08605c0.03018,0.01111 1.77507,-2.05469 1.79953,-2.07009c0.07337,-0.0462 1.17096,-1.48901 1.82201,-2.00771c1.87616,-1.49479 6.75629,-1.37592 6.75629,-1.37592l10.97381,-0.47701l17.37853,-1.14314c0,0 112.26552,0.83332 174.54662,4.00311z" data-paper-data="{&quot;origPos&quot;:null}" fill="url(#color-7)" stroke="#8c7531" stroke-width="0" stroke-linecap="butt"/><g stroke-width="3.78384"><path d="M119.34263,181.8524c9.6509,-0.4426 23.4791,5.2452 28.3367,14.1509c4.8576,8.9056 3.1841,20.2868 -3.444,31.4857c-6.6271,11.1943 -19.9984,22.9088 -33.1656,30.3647c-13.0657,7.4005 -27.244,12.8541 -42.4324,13.1342c-9.4406,-0.0193 -19.5396,-6.0456 -27.8461,-12.3917c-4.8483,-3.7174 -12.3522,-12.0377 -9.4938,-16.4775c8.8912,-13.7735 24.988,-19.4891 37.995,-28.6922c10.1108,-5.519 21.6477,-8.5595 31.2403,-15.4058c6.6862,-4.7584 9.6669,-15.7534 18.8099,-16.1683z" data-paper-data="{&quot;origPos&quot;:null}" fill="#e3d7b5" stroke="none" stroke-linecap="round"/><path d="M134.04623,173.908c6.271,2.6798 12.1071,7.9259 16.0165,15.0933c3.9095,7.1673 5.1605,14.9143 4.0185,21.6376c-1.1402,6.7265 -4.6703,12.4275 -10.3167,15.5073c-5.6463,3.0798 -12.3507,2.9613 -18.6234,0.2782c-6.271,-2.6798 -12.1071,-7.9259 -16.0165,-15.0932c-3.9095,-7.1674 -5.1605,-14.9144 -4.0185,-21.6377c1.1402,-6.7265 4.6703,-12.4275 10.3167,-15.5073c5.6463,-3.0798 12.3507,-2.9613 18.6234,-0.2782z" data-paper-data="{&quot;origPos&quot;:null}" fill="#e3d7b5" stroke="#e3d7b5" stroke-linecap="butt"/><path d="M133.84213,184.8251c3.6221,1.7263 7.0477,4.9652 9.4164,9.3078c2.3687,4.3426 3.2372,8.9764 2.7277,12.9562c-0.5145,3.9785 -2.4057,7.2982 -5.5547,9.0159c-3.1491,1.7177 -6.9641,1.5104 -10.5876,-0.211c-3.622,-1.7263 -7.0476,-4.9653 -9.4163,-9.3078c-2.3687,-4.3426 -3.2373,-8.9764 -2.7277,-12.9563c0.5145,-3.9784 2.4056,-7.2981 5.5547,-9.0158c3.1491,-1.7177 6.9641,-1.5104 10.5875,0.211z" data-paper-data="{&quot;origPos&quot;:null}" fill="#c6b86f" stroke="none" stroke-linecap="butt"/><path d="M97.01443,207.9372c5.9822,1.5846 8.9508,6.7341 11.4396,11.3777c1.8907,3.5269 2.3752,8.4552 1.0026,12.5642c-1.3785,4.1084 -4.3592,7.9559 -8.5978,10.1233c-4.5449,2.3232 -10.409,2.7327 -14.2205,1.4514c-4.8492,-1.7093 -6.5376,-4.7643 -8.6978,-7.8661c-2.098,-3.0282 -5.6304,-5.8785 -4.2961,-9.8962c1.4943,-4.5425 6.9618,-8.7191 11.6227,-12.2739c3.308,-2.5202 8.3335,-6.2851 11.7473,-5.4804z" data-paper-data="{&quot;origPos&quot;:null}" fill="#c6b86f" stroke="none" stroke-linecap="butt"/><path d="M99.29553,149.2573c14.0446,2.6521 29.5683,11.7927 32.6515,22.4658c2.2435,7.7936 -16.2815,8.1935 -22.9007,14.7624c-12.0432,12.1421 -19.1452,30.2074 -32.6063,40.8914c-11.2208,8.9049 -25.4229,12.5043 -39.0873,16.1856c-3.4185,0.9206 -6.7251,1.014 -7.9237,-2.9851c-4.8106,-16.0267 -12.6007,-33.9634 -8.2122,-49.0398c4.8782,-15.9676 19.3224,-26.9587 33.1379,-34.4667c13.287,-7.2198 30.8918,-10.4673 44.9408,-7.8136z" data-paper-data="{&quot;origPos&quot;:null}" fill="#e3d7b5" stroke="none" stroke-linecap="round"/><path d="M48.24543,185.0449l-2.3761,36.8443l5.8831,9.662l-6.3698,-9.8051l-9.2612,14.8579" data-paper-data="{&quot;origPos&quot;:null}" fill="none" stroke="#d0be8c" stroke-linecap="round"/><path d="M115.10753,183.8935l-17.5061,-0.2576l4.7952,10.6639l-4.9383,-10.1772l-21.2707,-15.7741" data-paper-data="{&quot;origPos&quot;:null}" fill="none" stroke="#d0be8c" stroke-linecap="round"/><path d="M126.69733,185.7556c-15.2191,14.9411 -23.511,37.9164 -40.4694,50.0634c-15.4807,11.0836 -34.9938,17.4531 -54.2806,18.1668c-5.189,0.199 -8.0355,-11.8589 -4.5619,-15.2859c6.6205,-6.9821 18.6156,-4.7685 27.2787,-8.1373c9.9009,-3.8478 20.8247,-7.2811 28.5378,-14.136c10.4024,-9.2901 15.2751,-24.1284 25.426,-33.6858c6.1623,-5.8007 14.0526,-9.3404 22.0234,-11.1956c4.3055,-1.0573 9.2725,0.6627 13.0841,2.874c1.2364,0.723 1.5968,3.4397 0.2889,4.337c-5.1377,3.5051 -12.7951,2.5499 -17.327,6.9994z" data-paper-data="{&quot;origPos&quot;:null}" fill="url(#color-8)" stroke="none" stroke-linecap="round"/><path d="M86.48863,149.9093l-11.1936,19.1808l-25.9084,16.1748l-22.7021,-1.918" data-paper-data="{&quot;origPos&quot;:null}" fill="none" stroke="#d0be8c" stroke-linecap="round"/></g></g></g></svg>