<svg version="1.1" xmlns="http://www.w3.org/2000/svg" xmlns:xlink="http://www.w3.org/1999/xlink" width="648.6089" height="415.05405" viewBox="0,0,648.6089,415.05405"><g transform="translate(84.30446,53.05255)"><g data-paper-data="{&quot;isPaintingLayer&quot;:true}" fill="#000000" fill-rule="nonzero" stroke="none" stroke-width="0" stroke-linecap="butt" stroke-linejoin="miter" stroke-miterlimit="10" stroke-dasharray="" stroke-dashoffset="0" style="mix-blend-mode: normal"><path d="M-84.30446,362.0015v-415.05405c0,0 23.54396,34.53453 63.6438,34.53453c18.29619,0 40.03897,-34.53453 64.56456,-34.53453c18.52433,0 38.94602,34.53453 63.06306,34.53453c24.24945,0 41.69136,-34.53453 63.06306,-34.53453c21.52881,0 46.18302,34.53453 70.57057,34.53453c25.02618,0 49.77156,-34.53453 70.57057,-34.53453c25.9078,0 50.7696,34.53453 66.06607,34.53453c23.13264,0 42.62955,-34.53453 61.56156,-34.53453c19.66165,0 43.20679,34.53453 64.56456,34.53453c33.0969,0 60.94107,-34.53453 60.94107,-34.53453v415.05405z" data-paper-data="{&quot;index&quot;:null}"/></g></g></svg>