<svg version="1.1" xmlns="http://www.w3.org/2000/svg" xmlns:xlink="http://www.w3.org/1999/xlink" width="480" height="414.14983" viewBox="0,0,480,414.14983"><g transform="translate(0,-11.60471)"><g data-paper-data="{&quot;isPaintingLayer&quot;:true}" fill="#000000" fill-rule="nonzero" stroke="none" stroke-linecap="butt" stroke-linejoin="miter" stroke-miterlimit="10" stroke-dasharray="" stroke-dashoffset="0" style="mix-blend-mode: normal"><path d="M0,337h480v23h-480z" data-paper-data="{&quot;origPos&quot;:null}" stroke-width="1"/><path d="M42.06786,341.36095l85.34664,-87.11548l85.87979,84.13604l-85.34663,87.11548z" data-paper-data="{&quot;origRot&quot;:0,&quot;origPos&quot;:null}" stroke-width="0"/><path d="M241.51751,340.61849l62.02308,-87.11548l62.49698,84.13605l-62.02307,87.11548z" data-paper-data="{&quot;origRot&quot;:0,&quot;origPos&quot;:null}" stroke-width="0"/><path d="M394.51751,341.61849l35.12583,-87.11548l35.39422,84.13605l-35.12583,87.11548z" data-paper-data="{&quot;origRot&quot;:0,&quot;origPos&quot;:null}" stroke-width="0"/><path d="M144.06786,113.36095l85.34664,-87.11548l68.8798,84.13604l-68.34663,87.11548z" data-paper-data="{&quot;origRot&quot;:0,&quot;origPos&quot;:null}" stroke-width="0"/><path d="M107.26288,178.72613c0,-1.38071 1.11929,-2.5 2.5,-2.5c1.38071,0 2.5,1.11929 2.5,2.5c0,1.38071 -1.11929,2.5 -2.5,2.5c-1.38071,0 -2.5,-1.11929 -2.5,-2.5z" stroke-width="0.5"/><path d="M348.50776,158.26228v-42.97408h129.60437v42.97408z" stroke-width="0"/><path d="M431.04528,43.66473v-32.06003h33.42428v32.06003z" stroke-width="0"/></g></g></svg>