<svg version="1.1" xmlns="http://www.w3.org/2000/svg" xmlns:xlink="http://www.w3.org/1999/xlink" width="284.92188" height="235.7025"><defs><linearGradient x1="240.36643" y1="127.4375" x2="240.36643" y2="233.4375" gradientUnits="userSpaceOnUse" id="color-1"><stop offset="0" stop-color="#4f94d2"/><stop offset="1" stop-color="#67d7e5"/></linearGradient></defs><g transform="translate(-85.5,-1.36)"><g data-paper-data="{&quot;isPaintingLayer&quot;:true}" fill="none" fill-rule="nonzero" stroke="none" stroke-width="none" stroke-linecap="none" stroke-linejoin="miter" stroke-miterlimit="10" stroke-dasharray="" stroke-dashoffset="0" font-family="none" font-weight="none" font-size="none" text-anchor="none" style="mix-blend-mode: normal"><path d="M187.36643,127.4375h106v106h-106z" data-paper-data="{&quot;origPos&quot;:null}" id="ID0.5801267544738948" fill="url(#color-1)" stroke="#995900" stroke-width="0" stroke-linecap="butt"/><text transform="translate(207,25.86)" font-size="22" xml:space="preserve" id="ID0.02884628064930439" fill="#ff0000" fill-rule="nonzero" stroke="none" stroke-width="1" stroke-linecap="butt" stroke-linejoin="miter" stroke-miterlimit="10" stroke-dasharray="" stroke-dashoffset="0" font-family="Sans Serif" font-weight="400" text-anchor="start" style="mix-blend-mode: normal"><tspan x="0" dy="0">WIP</tspan></text><text transform="translate(86,55.01)" font-size="22" xml:space="preserve" data-paper-data="{&quot;origPos&quot;:null}" id="ID0.826193920802325" fill="#ff0000" fill-rule="nonzero" stroke="none" stroke-width="1" stroke-linecap="butt" stroke-linejoin="miter" stroke-miterlimit="10" stroke-dasharray="" stroke-dashoffset="0" font-family="Sans Serif" font-weight="400" text-anchor="start" style="mix-blend-mode: normal"><tspan x="0" dy="0">This level is unfinished and</tspan><tspan x="0" dy="24.86px">selecting a star here may</tspan><tspan x="0" dy="24.86px">cause errors.</tspan></text><text transform="translate(86,55.01)" font-size="22" xml:space="preserve" data-paper-data="{&quot;origPos&quot;:null}" id="ID0.826193920802325" fill="#ff0000" fill-rule="nonzero" stroke="none" stroke-width="1" stroke-linecap="butt" stroke-linejoin="miter" stroke-miterlimit="10" stroke-dasharray="" stroke-dashoffset="0" font-family="Sans Serif" font-weight="400" text-anchor="start" style="mix-blend-mode: normal"><tspan x="0" dy="0">This level is unfinished and</tspan><tspan x="0" dy="24.86px">selecting a star here may</tspan><tspan x="0" dy="24.86px">cause errors.</tspan></text><g data-paper-data="{&quot;origPos&quot;:null}" stroke="none" stroke-linecap="butt"><path d="M201.0276,154.83894c0,-6.63099 5.37548,-12.00647 12.00647,-12.00647c6.63099,0 12.00647,5.37548 12.00647,12.00647c0,6.63099 -5.37548,12.00647 -12.00647,12.00647c-6.63099,0 -12.00647,-5.37548 -12.00647,-12.00647z" data-paper-data="{&quot;origPos&quot;:null}" fill="#66c9ff" stroke-width="NaN"/><path d="M201.0276,214.39105v-57.63108h24.01295v57.63108z" data-paper-data="{&quot;origPos&quot;:null}" fill="#66c9ff" stroke-width="0"/><path d="M224.63478,153.48638c-1.21656,0.36497 -2.13284,0.17225 -2.80932,-0.23023c-0.37062,1.59496 -1.80079,2.78343 -3.50854,2.78343c-1.51475,0 -2.81111,-0.93501 -3.34341,-2.25937l-0.2359,-0.55043c-0.14324,0.19822 -0.3249,0.33331 -0.554,0.3866l-0.68769,1.60461c-0.5323,1.32435 -1.82866,2.25937 -3.34341,2.25937c-1.9893,0 -3.60194,-1.61264 -3.60194,-3.60194v-2.08801c-0.00282,-0.05313 -0.00815,-0.10719 -0.0157,-0.16205c-0.02596,-0.00092 -0.05221,-0.00277 -0.07877,-0.00558l-1.44078,1.44078c-0.65182,0.65182 -1.55231,1.05498 -2.54696,1.05498c-1.9893,0 -3.60194,-1.61264 -3.60194,-3.60194c0,-0.47451 0.09175,-0.92758 0.25849,-1.34245l1.41163,-3.76434l0.34317,0.12869c3.5055,-5.22664 9.37869,-8.24557 15.97452,-6.97726c0.72984,0.14034 1.46633,0.40453 2.19717,0.7385c0.22839,-0.04541 0.46456,-0.06922 0.70629,-0.06922c1.19341,0 2.25127,0.58039 2.90671,1.47431l0.87228,1.16304c0.13793,0.08173 0.27443,0.16141 0.40937,0.23852c0,0 2.06661,1.18092 1.87993,3.30277l1.22381,3.59218c0,0 1.03501,3.45003 -2.41502,4.48505z" data-paper-data="{&quot;origPos&quot;:null}" fill="#e9fbff" stroke-width="0.5"/></g><g data-paper-data="{&quot;origPos&quot;:null}" stroke="none" stroke-linecap="butt"><path d="M252.0276,168.83894c0,-6.631 5.37548,-12.00647 12.00647,-12.00647c6.631,0 12.00647,5.37548 12.00647,12.00647c0,6.631 -5.37548,12.00647 -12.00647,12.00647c-6.63099,0 -12.00647,-5.37548 -12.00647,-12.00647z" data-paper-data="{&quot;origPos&quot;:null}" fill="#66c9ff" stroke-width="NaN"/><path d="M252.0276,228.39105v-57.63108h24.01295v57.63108z" data-paper-data="{&quot;origPos&quot;:null}" fill="#66c9ff" stroke-width="0"/><path d="M275.63478,167.48639c-1.21657,0.36497 -2.13283,0.17225 -2.80932,-0.23023c-0.37062,1.59497 -1.80079,2.78342 -3.50853,2.78342c-1.51475,0 -2.81111,-0.93501 -3.34341,-2.25936l-0.2359,-0.55043c-0.14324,0.19823 -0.32489,0.33331 -0.554,0.3866l-0.68768,1.6046c-0.5323,1.32435 -1.82867,2.25937 -3.34341,2.25937c-1.9893,0 -3.60194,-1.61264 -3.60194,-3.60195v-2.08801c-0.00281,-0.05312 -0.00816,-0.10719 -0.0157,-0.16205c-0.02596,-0.00092 -0.05222,-0.00277 -0.07877,-0.00557l-1.44078,1.44078c-0.65183,0.65183 -1.55231,1.05498 -2.54696,1.05498c-1.9893,0 -3.60194,-1.61264 -3.60194,-3.60194c0,-0.4745 0.09175,-0.92758 0.25849,-1.34245l1.41163,-3.76435l0.34317,0.12869c3.5055,-5.22664 9.37869,-8.24557 15.97452,-6.97726c0.72984,0.14034 1.46633,0.40453 2.19717,0.7385c0.22839,-0.0454 0.46456,-0.06922 0.70629,-0.06922c1.19341,0 2.25127,0.58039 2.9067,1.47431l0.87228,1.16304c0.13794,0.08174 0.27443,0.16142 0.40938,0.23853c0,0 2.06661,1.18092 1.87993,3.30276l1.22381,3.59217c0,0 1.03501,3.45004 -2.41503,4.48505z" data-paper-data="{&quot;origPos&quot;:null}" fill="#e9fbff" stroke-width="0.5"/></g><path d="M186.30024,222.65874c0,-6.96632 -1.52129,-17.37012 2.6968,-23.39802c11.2492,-16.07575 27.1952,-18.82322 49.63653,-18.82322c29.63928,0 55.33333,27.09604 55.33333,41.11742c0,14.02137 -25.69405,11.31419 -55.33333,11.31419c-29.63928,0 -52.33333,3.81101 -52.33333,-10.21036z" data-paper-data="{&quot;origPos&quot;:null,&quot;index&quot;:null}" fill="#66faff" stroke="#cbe5e8" stroke-width="0" stroke-linecap="butt"/><path d="M248.36643,227.77083l24.33333,-30.33333" data-paper-data="{&quot;origPos&quot;:null}" fill="none" stroke="#c8f8ff" stroke-width="3.5" stroke-linecap="round"/><path d="M234.69976,223.10416l26,-33.33333" data-paper-data="{&quot;origPos&quot;:null}" fill="none" stroke="#c8f8ff" stroke-width="3.5" stroke-linecap="round"/><path d="M197.36643,221.10416l28.66667,-36.33333" data-paper-data="{&quot;origPos&quot;:null}" fill="none" stroke="#c8f8ff" stroke-width="3.5" stroke-linecap="round"/><g data-paper-data="{&quot;origPos&quot;:null}" fill="#e9ffff"><path d="M237.19976,209.10416c-9.66498,0 -17.5,-7.76039 -17.5,-17.33333c0,-9.57293 7.83502,-17.33333 17.5,-17.33333c9.66498,0 17.5,7.76039 17.5,17.33333c0,9.57293 -7.83502,17.33333 -17.5,17.33333z" data-paper-data="{&quot;origPos&quot;:null}" stroke="none" stroke-width="0" stroke-linecap="butt"/><path d="M237.71899,182.10417c-6.43271,0 -11.64744,-5.16507 -11.64744,-11.53651c0,-6.37144 5.21474,-11.53651 11.64744,-11.53651c6.43271,0 11.64744,5.16507 11.64744,11.53651c0,6.37144 -5.21474,11.53651 -11.64744,11.53651z" data-paper-data="{&quot;origPos&quot;:null}" stroke="none" stroke-width="0" stroke-linecap="butt"/><path d="M241.0331,170.9375v-3.33334" data-paper-data="{&quot;origPos&quot;:null}" stroke="#3e3e3e" stroke-width="3" stroke-linecap="round"/><path d="M234.36643,170.93751v-3.33334" data-paper-data="{&quot;origPos&quot;:null}" stroke="#3e3e3e" stroke-width="3" stroke-linecap="round"/></g><path d="M187.53443,126.5625h106v106h-106z" data-paper-data="{&quot;origPos&quot;:null}" id="ID0.5801267544738948" fill="none" stroke="#995900" stroke-width="9" stroke-linecap="butt"/></g></g></svg>