<svg version="1.1" xmlns="http://www.w3.org/2000/svg" xmlns:xlink="http://www.w3.org/1999/xlink" width="537.43406" height="306.84678" viewBox="0,0,537.43406,306.84678"><g transform="translate(50.16572,-58.21013)"><g data-paper-data="{&quot;isPaintingLayer&quot;:true}" fill-rule="nonzero" stroke-width="2" stroke-linecap="butt" stroke-linejoin="miter" stroke-miterlimit="10" stroke-dasharray="" stroke-dashoffset="0" style="mix-blend-mode: normal"><path d="M-30.80923,173.81561c77.73791,-54.49243 216.46283,-110.47141 216.46283,-110.47141l126.20682,-2.22464l0.23437,82.02601l-191.15,1.24482l-1.63595,196.40295l361.01135,-0.93747l5.68515,24.1975l-534.5802,-1.49399c0,0 -5.61366,-172.35545 17.76563,-188.74378z" data-paper-data="{&quot;origPos&quot;:null,&quot;origRot&quot;:0}" fill="#cfbf74" stroke="#82721f"/><path d="M-42.60756,179.19183c4.10409,-8.66098 10.92652,-12.34043 10.92652,-12.34043l95.52868,-52.81354c0.08642,0.34446 0.18233,7.68618 0.29373,8.02345c0.33231,1.00606 1.25825,3.27613 1.98705,4.03753c0.11656,0.12179 0.1392,-0.64616 0.16659,-0.47982c0.07676,0.46601 -0.11967,1.14796 -0.19336,1.70963c-2.60395,0.59542 -14.76991,12.1823 -14.76991,12.1823l0.66235,1.34584l3.19392,15.05585l-0.01943,0.98603l-0.7156,1.32874l-1.55313,0.30228l-18.30801,3.1119l-1.38386,16.51385l-1.66464,9.92581l-14.4295,-8.39903l-7.21905,17.08587l-16.68527,-3.89992l1.35058,11.64015l-15.78324,-4.35522l-0.90476,13.89871l-21.65073,-20.01454c0,0 -2.1324,-7.87401 1.17108,-14.84544z" data-paper-data="{&quot;origPos&quot;:null,&quot;origRot&quot;:0}" fill="#8fe3a6" stroke="#65a96e"/><path d="M268.60246,109.3203l-9.21474,-12.91661l-11.02115,10.10081l-9.19609,-10.9167l-11.03979,8.1009c0,0 -4.14364,-13.62042 -3.88533,-14.37365c1.28978,-3.76102 -13.05255,-2.49511 -13.05255,-2.49511c0,0 3.80074,-14.43683 3.04769,-15.12412c-2.63276,-2.40283 -10.30771,-4.34846 -10.30771,-4.34846c0,0 -3.3787,-8.14438 -2.05221,-8.13723c0.98009,0.00527 1.53124,0.00869 2.51131,0.01439c2.94021,0.0171 77.6801,0.45948 77.6801,0.45948l7.349,16.1347l-8.93527,3.26466l3.94604,18.82133l-12.08025,-3.8649z" data-paper-data="{&quot;origPos&quot;:null,&quot;origRot&quot;:0}" fill="#8fe3a6" stroke="#65a96e"/></g></g></svg>