<svg version="1.1" xmlns="http://www.w3.org/2000/svg" xmlns:xlink="http://www.w3.org/1999/xlink" width="37.12076" height="37.12076" viewBox="0,0,37.12076,37.12076"><defs><linearGradient x1="240" y1="162.06462" x2="240" y2="197.93538" gradientUnits="userSpaceOnUse" id="color-1"><stop offset="0" stop-color="#0d51ff"/><stop offset="1" stop-color="#0426a2"/></linearGradient></defs><g transform="translate(-221.43962,-161.43962)"><g data-paper-data="{&quot;isPaintingLayer&quot;:true}" fill-rule="nonzero" stroke-linejoin="miter" stroke-miterlimit="10" stroke-dasharray="" stroke-dashoffset="0" style="mix-blend-mode: normal"><path d="M240,162.06462c4.94815,0 9.43255,2.00922 12.6788,5.25658c3.24737,3.24625 5.25658,7.73065 5.25658,12.6788c0,4.94815 -2.00922,9.43255 -5.25658,12.6788c-3.24625,3.24737 -7.73065,5.25658 -12.6788,5.25658c-4.94815,0 -9.43255,-2.00922 -12.6788,-5.25658c-3.24737,-3.24625 -5.25658,-7.73065 -5.25658,-12.6788c0,-4.94815 2.00922,-9.43255 5.25658,-12.6788c3.24625,-3.24737 7.73065,-5.25658 12.6788,-5.25658z" fill="url(#color-1)" stroke="#000174" stroke-width="1.25" stroke-linecap="butt"/><g fill="#ffffff"><g stroke="#000174" stroke-width="2.5"><path d="M238.85509,170.14948l-0.35256,16.33156l-8.16827,-7.42184z" data-paper-data="{&quot;origPos&quot;:null}" stroke-linecap="round"/><path d="M243.58831,183.52797c-2.14657,-2.41634 -5.4474,-1.50595 -5.4474,-1.50595l0.08039,-7.6796c0,0 7.8365,2.35351 9.15134,8.2812c1.31485,5.92769 -3.87826,7.22351 -3.87826,7.22351c0,0 2.59362,-3.50531 0.09392,-6.31916z" stroke-linecap="butt"/></g><g stroke="none"><path d="M238.85509,170.14948l-0.35256,16.33156l-8.16827,-7.42184z" data-paper-data="{&quot;origPos&quot;:null}" stroke-width="1.1379" stroke-linecap="round"/><path d="M243.58831,183.52797c-2.14657,-2.41634 -5.4474,-1.50595 -5.4474,-1.50595l0.08039,-7.6796c0,0 7.8365,2.35351 9.15134,8.2812c1.31485,5.92769 -3.87826,7.22351 -3.87826,7.22351c0,0 2.59362,-3.50531 0.09392,-6.31916z" stroke-width="NaN" stroke-linecap="butt"/></g></g></g></g></svg>