<svg version="1.1" xmlns="http://www.w3.org/2000/svg" xmlns:xlink="http://www.w3.org/1999/xlink" width="124.83784" height="82.94596"><defs><linearGradient x1="177.08109" y1="176.14864" x2="246.62163" y2="176.14864" gradientUnits="userSpaceOnUse" id="color-1"><stop offset="0" stop-color="#2154ad"/><stop offset="1" stop-color="#308bff"/></linearGradient></defs><g transform="translate(-177.08109,-138.02702)"><g data-paper-data="{&quot;isPaintingLayer&quot;:true}" fill="none" fill-rule="nonzero" stroke="none" stroke-width="0" stroke-linecap="none" stroke-linejoin="miter" stroke-miterlimit="10" stroke-dasharray="" stroke-dashoffset="0" font-family="none" font-weight="none" font-size="none" text-anchor="none" style="mix-blend-mode: normal"><path d="M249.35177,201.92483c4.53946,-3.11556 21.84798,-5.16096 21.84798,-5.16096c9.33163,0 16.8964,2.54229 16.8964,7.4009c0,3.80519 -0.45265,5.50444 -3.76331,7.38035c-3.95635,2.24177 -8.58576,2.81334 -13.13309,2.81334c-9.33163,0 -21.36487,-0.30806 -21.36487,-5.16667c0,0 -2.60014,-5.81398 -0.4831,-7.26696z" data-paper-data="{&quot;origPos&quot;:null,&quot;index&quot;:null}" fill="#ffffff" stroke="none" stroke-linecap="butt"/><path d="M219.25226,174.61261c0,-20.20566 17.31771,-36.58559 38.68018,-36.58559c21.36247,0 38.68018,16.37992 38.68018,36.58559c0,20.20566 -17.31771,36.58559 -38.68018,36.58559c-21.36247,0 -38.68018,-16.37992 -38.68018,-36.58559z" data-paper-data="{&quot;origPos&quot;:null}" fill="#308bff" stroke="#000000" stroke-linecap="butt"/><path d="M264.49551,215.80631c0,4.85861 -12.03324,5.16667 -21.36487,5.16667c-4.54733,0 -9.17674,-0.57157 -13.13309,-2.81334c-3.31066,-1.87591 -3.76331,-3.57516 -3.76331,-7.38035c0,-4.85861 7.56477,-7.4009 16.8964,-7.4009c0,0 17.30851,2.04541 21.84797,5.16097c2.11704,1.45298 -0.48311,7.26695 -0.48311,7.26695z" data-paper-data="{&quot;origPos&quot;:null}" fill="#ffffff" stroke="none" stroke-linecap="butt"/><path d="M301.91893,189.55406c0,5.9383 -9.46997,12.70721 -15.63964,12.70721c-6.16967,0 -11.45045,-9.5617 -11.45045,-15.5c0,-5.9383 4.16367,-11.03153 10.33333,-11.03153c6.16967,0 16.75676,7.88602 16.75676,13.82432z" data-paper-data="{&quot;origPos&quot;:null}" fill="#ffffff" stroke="none" stroke-linecap="butt"/><path d="M247.7001,165.68047c-1.63319,7.83635 -8.4536,12.92435 -15.23382,11.36436c-3.06075,-0.70422 -8.02954,-0.71689 -9.95899,-3.19506c-3.21207,-4.12557 -0.4273,-8.69996 0.63947,-13.81853c1.63319,-7.83635 8.4536,-12.92434 15.23382,-11.36435c6.78022,1.55999 10.95271,9.17723 9.31952,17.01358z" data-paper-data="{&quot;origPos&quot;:null,&quot;origRot&quot;:0}" fill="#000000" stroke="none" stroke-linecap="butt"/><path d="M214.50451,199.46846l-37.42342,-22.06306l39.37838,-24.57658l-4.74775,16.1982l33.51351,1.11712l1.3964,3.90991l-0.27928,5.02703l-1.3964,5.58559l-33.79279,-0.83784z" data-paper-data="{&quot;origPos&quot;:null}" fill="url(#color-1)" stroke="#000000" stroke-linecap="round"/><path d="M267.83524,167.66245c-1.63319,7.83635 -8.45361,12.92435 -15.23383,11.36436c-6.78022,-1.55999 -10.95271,-9.17723 -9.31952,-17.01358c1.63319,-7.83635 8.45361,-12.92435 15.23383,-11.36436c6.78022,1.55999 10.95271,9.17723 9.31952,17.01358z" data-paper-data="{&quot;origPos&quot;:null,&quot;origRot&quot;:0}" fill="#000000" stroke="none" stroke-linecap="butt"/><path d="M253.78575,167.73347c-0.53457,2.17168 -2.42488,3.57354 -4.22213,3.13114c-1.79725,-0.4424 -2.82086,-2.56153 -2.28629,-4.73321c0.53457,-2.17168 2.42488,-3.57354 4.22213,-3.13114c1.79725,0.4424 2.82086,2.56153 2.28629,4.73321z" data-paper-data="{&quot;origRot&quot;:0}" fill="#ffffff" stroke="none" stroke-linecap="butt"/><path d="M242.86275,166.31005c-0.53456,2.17168 -2.42488,3.57353 -4.22213,3.13114c-1.79725,-0.4424 -2.82085,-2.56153 -2.28629,-4.73321c0.53456,-2.17168 2.42488,-3.57353 4.22213,-3.13114c1.79725,0.4424 2.82085,2.56153 2.28629,4.73321z" data-paper-data="{&quot;origRot&quot;:0,&quot;origPos&quot;:null}" fill="#ffffff" stroke="none" stroke-linecap="butt"/></g></g></svg>