<svg version="1.1" xmlns="http://www.w3.org/2000/svg" xmlns:xlink="http://www.w3.org/1999/xlink" width="724.89597" height="427.80218" viewBox="0,0,724.89597,427.80218"><defs><linearGradient x1="130.41219" y1="-2.03155" x2="131.59198" y2="127.80618" gradientUnits="userSpaceOnUse" id="color-1"><stop offset="0" stop-color="#ea742e"/><stop offset="1" stop-color="#c37f10"/></linearGradient><linearGradient x1="362.10728" y1="231.81459" x2="361.5407" y2="360.18809" gradientUnits="userSpaceOnUse" id="color-2"><stop offset="0" stop-color="#935f0a"/><stop offset="1" stop-color="#de7b19"/></linearGradient><linearGradient x1="-131.67347" y1="292.8145" x2="-132.24007" y2="421.18802" gradientUnits="userSpaceOnUse" id="color-3"><stop offset="0" stop-color="#935f0a"/><stop offset="1" stop-color="#de7b19"/></linearGradient><linearGradient x1="-6.83089" y1="304.60817" x2="175.50488" y2="279.21942" gradientUnits="userSpaceOnUse" id="color-4"><stop offset="0" stop-color="#ea742e"/><stop offset="1" stop-color="#c37f10"/></linearGradient><linearGradient x1="41.69293" y1="280.00002" x2="41.69293" y2="323.00002" gradientUnits="userSpaceOnUse" id="color-5"><stop offset="0" stop-color="#ffc96b"/><stop offset="1" stop-color="#ffc96b" stop-opacity="0"/></linearGradient><linearGradient x1="433.74279" y1="117.01892" x2="400.49486" y2="241.57263" gradientUnits="userSpaceOnUse" id="color-6"><stop offset="0" stop-color="#ea742e"/><stop offset="1" stop-color="#c37f10"/></linearGradient><linearGradient x1="330.03595" y1="104.92608" x2="509.00481" y2="148.06614" gradientUnits="userSpaceOnUse" id="color-7"><stop offset="0" stop-color="#ea742e"/><stop offset="1" stop-color="#c37f10"/></linearGradient><linearGradient x1="218.37016" y1="230.73844" x2="397.33902" y2="273.87851" gradientUnits="userSpaceOnUse" id="color-8"><stop offset="0" stop-color="#ea742e"/><stop offset="1" stop-color="#c37f10"/></linearGradient><linearGradient x1="85.13644" y1="110.63815" x2="191.96599" y2="109.52758" gradientUnits="userSpaceOnUse" id="color-9"><stop offset="0" stop-color="#ea742e"/><stop offset="1" stop-color="#c37f10"/></linearGradient></defs><g transform="translate(134.30222,3.40682)"><g data-paper-data="{&quot;isPaintingLayer&quot;:true}" fill="none" fill-rule="nonzero" stroke="none" stroke-width="none" stroke-linecap="none" stroke-linejoin="miter" stroke-miterlimit="10" stroke-dasharray="" stroke-dashoffset="0" font-family="none" font-weight="none" font-size="none" text-anchor="none" style="mix-blend-mode: normal"><path d="M133.47417,155.68404l-47.64037,0.28644l-3.06198,-157.71559l47.64037,-0.28643z" data-paper-data="{&quot;origPos&quot;:null,&quot;index&quot;:null,&quot;origRot&quot;:0}" id="ID0.17253359453752637" fill="url(#color-1)" stroke="#964f17" stroke-width="2.73437" stroke-linecap="butt"/><path d="M590.59375,336.65441c-0.01057,0.01391 -0.02107,0.02787 -0.0315,0.04186c-0.08366,-0.06772 -0.15541,-0.14281 -0.20301,-0.23171c-0.06026,-0.11256 0.0698,0.02863 0.23451,0.18985z" data-paper-data="{&quot;origPos&quot;:null,&quot;index&quot;:null}" id="ID0.29126935824751854" fill="url(#color-2)" stroke="#372403" stroke-width="0" stroke-linecap="butt"/><path d="M-131.67347,292.81451l259.4716,1.1452l-0.5667,128.3735l-259.4715,-1.1452z" data-paper-data="{&quot;origPos&quot;:null,&quot;index&quot;:null}" id="ID0.29126935824751854" fill="url(#color-3)" stroke="#372403" stroke-width="4.10622" stroke-linecap="butt"/><path d="M214.44165,272.15325l6.63523,47.1775l-221.27254,32.45491l-6.63523,-47.1775z" data-paper-data="{&quot;origPos&quot;:null,&quot;index&quot;:null,&quot;origRot&quot;:0}" id="ID0.17253359453752637" fill="url(#color-4)" stroke="#964f17" stroke-width="2.73437" stroke-linecap="butt"/><g data-paper-data="{&quot;origPos&quot;:null,&quot;index&quot;:null}" stroke-linecap="round"><g stroke-width="0.5"><g data-paper-data="{&quot;origPos&quot;:null,&quot;origRot&quot;:0}" stroke="#665415"><path d="M40.43905,336.38076l-4.05633,-3.20797l-1.82342,-5.10504l-0.42418,-3.63215l2.61587,-5.62348l2.11803,-6.38349l3.47606,-12.26914l1.37271,4.7486l4.66902,8.4544l3.88841,5.27296l2.36839,6.26863l0.37704,3.22857l-0.7394,4.17711l-2.49509,3.15492l-3.94145,1.27846l1.41393,12.10715l-6.41003,1.15767l0.96037,-12.7935z" data-paper-data="{&quot;origPos&quot;:null}" fill="#9fa827"/><path d="M43.91683,338.83814l-0.63854,-30.68793l4.72256,29.2292" data-paper-data="{&quot;origPos&quot;:null}" fill="none"/><path d="M51.54052,328.45726l-3.78239,4.04159" data-paper-data="{&quot;origPos&quot;:null}" fill="none"/><path d="M50.0818,324.37322l-2.85153,3.60562" data-paper-data="{&quot;origPos&quot;:null}" fill="none"/><path d="M46.1698,324.50282l2.56638,-3.24506" data-paper-data="{&quot;origPos&quot;:null}" fill="none"/><path d="M46.99229,317.53431l-1.38806,2.12565" data-paper-data="{&quot;origPos&quot;:null}" fill="none"/><path d="M45.81871,313.08968l-1.42576,1.8028l-3.53021,-2.20581" data-paper-data="{&quot;origPos&quot;:null}" fill="none"/><path d="M39.19655,329.24429l4.0793,4.10525" data-paper-data="{&quot;origPos&quot;:null}" fill="none"/><path d="M40.07321,325.54206l2.99761,3.2498" data-paper-data="{&quot;origPos&quot;:null}" fill="none"/><path d="M40.01904,322.2758l3.20735,2.24352" data-paper-data="{&quot;origPos&quot;:null}" fill="none"/><path d="M40.42203,317.3198l2.52394,1.99607" data-paper-data="{&quot;origPos&quot;:null}" fill="none"/></g><g data-paper-data="{&quot;origPos&quot;:null,&quot;origRot&quot;:0}" stroke="#665415"><path d="M89.82984,303.2111l-4.7041,2.14855l-5.37505,-0.70354l-3.42634,-1.27778l-3.81334,-4.89128l-4.71672,-4.79453l-9.3367,-8.68568l4.85238,0.94227l9.65323,-0.30289l6.46564,-1.058l6.65914,0.74877l3.04563,1.1358l3.38111,2.56185l1.6711,3.65874l-0.65834,4.09098l11.42109,4.25922l-1.89088,6.23323l-10.94995,-6.68542z" data-paper-data="{&quot;origPos&quot;:null}" fill="#9fa827"/><path d="M93.60216,301.23545l-27.60665,-13.4175l28.16949,9.11746" data-paper-data="{&quot;origPos&quot;:null}" fill="none"/><path d="M87.83648,289.71846l1.87366,5.20868" data-paper-data="{&quot;origPos&quot;:null}" fill="none"/><path d="M85.44627,293.33705l-1.90984,-4.18141" data-paper-data="{&quot;origPos&quot;:null}" fill="none"/><path d="M81.86893,292.69678l-1.71885,-3.76327" data-paper-data="{&quot;origPos&quot;:null}" fill="none"/><path d="M76.04102,288.78882l1.25947,2.20428" data-paper-data="{&quot;origPos&quot;:null}" fill="none"/><path d="M71.54998,287.80782l0.95492,2.09071l-3.57229,2.13699" data-paper-data="{&quot;origPos&quot;:null}" fill="none"/><path d="M82.91136,301.06468l5.51324,-1.76009" data-paper-data="{&quot;origPos&quot;:null}" fill="none"/><path d="M84.2743,297.40992l-4.25882,1.18713" data-paper-data="{&quot;origPos&quot;:null}" fill="none"/><path d="M77.08344,297.1567l3.45871,-1.83243" data-paper-data="{&quot;origPos&quot;:null}" fill="none"/><path d="M72.85573,294.53933l2.927,-1.33689" data-paper-data="{&quot;origPos&quot;:null}" fill="none"/></g><g data-paper-data="{&quot;origPos&quot;:null,&quot;origRot&quot;:0}" stroke="#674116"><path d="M100.26813,335.7129l-4.93744,-1.53832l-3.53421,-4.11043l-1.69956,-3.23789l0.4232,-6.18766l-0.31425,-6.71836l-1.15917,-12.69927l2.98561,3.9395l7.39236,6.21527l5.52188,3.52599l4.4605,5.00088l1.51072,2.87812l0.80912,4.16417l-1.19648,3.84024l-3.21998,2.60793l5.6652,10.79295l-5.5674,3.38121l-3.69544,-12.28576z" fill="#a87927"/><path d="M104.39619,336.75832l-11.61046,-28.41399l14.89879,25.58661" fill="none"/><path d="M107.78603,324.33283l-2.07977,5.12986" fill="none"/><path d="M104.95866,321.04448l-1.3674,4.38884" fill="none"/><path d="M102.5845,318.61958l-1.23066,3.94996" fill="none"/><path d="M99.08777,318.25236l0.53262,-2.48223" fill="none"/><path d="M96.92976,312.0429l-0.6837,2.19442l-4.0867,-0.79178" fill="none"/><path d="M96.54701,329.49791l5.28094,2.36758" fill="none"/><path d="M100.00077,327.68508l-3.96429,-1.95735" fill="none"/><path d="M98.61246,323.64135l-3.79889,-0.94284" fill="none"/><path d="M93.41094,317.92813l3.07219,0.95718" fill="none"/></g><g data-paper-data="{&quot;origPos&quot;:null,&quot;origRot&quot;:0}" stroke="#661515"><path d="M63.48627,337.61405l-4.83875,-1.8252l-3.28712,-4.31057l-1.50679,-3.33197l0.7853,-6.1522l0.08022,-6.72522l-0.41256,-12.74539l2.74948,4.10778l7.01522,6.63804l5.30562,3.8437l4.1596,5.25381l1.33937,2.96175l0.56354,4.20445l-1.41958,3.76346l-3.36734,2.41465l5.02261,11.10657l-5.75609,3.04893l-2.9687,-12.48129z" data-paper-data="{&quot;origPos&quot;:null}" fill="#a85a27"/><path d="M67.54591,338.89971l-9.92442,-29.04588l13.37288,26.41618" data-paper-data="{&quot;origPos&quot;:null}" fill="none"/><path d="M71.6585,326.69435l-2.37698,4.99909" data-paper-data="{&quot;origPos&quot;:null}" fill="none"/><path d="M67.40641,327.54697l1.62239,-4.30109" data-paper-data="{&quot;origPos&quot;:null}" fill="none"/><path d="M66.80091,320.68593l-1.46014,3.87101" data-paper-data="{&quot;origPos&quot;:null}" fill="none"/><path d="M63.33171,320.11431l0.67726,-2.44673" data-paper-data="{&quot;origPos&quot;:null}" fill="none"/><path d="M61.54152,313.789l-0.81119,2.15056l-4.03324,-1.03004" data-paper-data="{&quot;origPos&quot;:null}" fill="none"/><path d="M60.13597,331.19157l5.13303,2.67315" data-paper-data="{&quot;origPos&quot;:null}" fill="none"/><path d="M59.84736,327.39788l3.84269,2.18644" data-paper-data="{&quot;origPos&quot;:null}" fill="none"/><path d="M62.54126,325.4662l-3.73707,-1.16397" data-paper-data="{&quot;origPos&quot;:null}" fill="none"/><path d="M60.69445,320.59345l-3.01078,-1.13566" data-paper-data="{&quot;origPos&quot;:null}" fill="none"/></g><g data-paper-data="{&quot;origPos&quot;:null,&quot;origRot&quot;:0}" stroke="#665415"><path d="M118.35947,323.57601l-3.91268,-3.38169l-1.59921,-5.17965l-0.26549,-3.64718l2.85845,-5.50414l2.39421,-6.28512l4.00743,-12.10601l1.16448,4.80391l4.29615,8.64984l3.65493,5.4374l2.09296,6.36588l0.23598,3.24193l-0.92073,4.14092l-2.63021,3.04318l-3.99343,1.10548l0.88498,12.15726l-6.45439,0.87723l1.51699,-12.73949z" data-paper-data="{&quot;origPos&quot;:null}" fill="#9fa827"/><path d="M121.72686,326.18261l0.69941,-30.6866l3.4443,29.40723" data-paper-data="{&quot;origPos&quot;:null}" fill="none"/><path d="M129.79573,316.14382l-3.95493,3.87292" data-paper-data="{&quot;origPos&quot;:null}" fill="none"/><path d="M128.51634,312.00011l-3.00595,3.47793" data-paper-data="{&quot;origPos&quot;:null}" fill="none"/><path d="M127.30775,308.82898l-2.70535,3.13013" data-paper-data="{&quot;origPos&quot;:null}" fill="none"/><path d="M125.72781,305.03303l-1.47938,2.06315" data-paper-data="{&quot;origPos&quot;:null}" fill="none"/><path d="M124.74903,300.5415l-1.50297,1.73896l-3.43072,-2.35755" data-paper-data="{&quot;origPos&quot;:null}" fill="none"/><path d="M121.32568,320.67133l-3.89653,-4.27912" data-paper-data="{&quot;origPos&quot;:null}" fill="none"/><path d="M121.31948,316.10901l-2.85314,-3.37734" data-paper-data="{&quot;origPos&quot;:null}" fill="none"/><path d="M121.66108,311.84729l-3.10653,-2.38116" data-paper-data="{&quot;origPos&quot;:null}" fill="none"/><path d="M119.17312,304.53243l2.43456,2.10416" data-paper-data="{&quot;origPos&quot;:null}" fill="none"/></g><g data-paper-data="{&quot;origPos&quot;:null,&quot;origRot&quot;:0}" stroke="#674116"><path d="M93.12008,349.77758l-4.39291,2.72895l-5.4209,-0.01477l-3.56094,-0.83197l-4.40402,-4.36702l-5.28778,-4.15624l-10.3648,-7.42873l4.93279,0.31799l9.53647,-1.5272l6.27876,-1.87108l6.70031,-0.10357l3.16527,0.73954l3.67927,2.1114l2.12252,3.4167l-0.13312,4.14148l11.86977,2.77327l-1.08342,6.42297l-11.71077,-5.23965z" fill="#a87927"/><path d="M96.61073,347.33855l-29.08796,-9.80039l29.09978,5.46367" fill="none"/><path d="M91.94858,341.57598l-2.5204,-4.92834" fill="none"/><path d="M87.51723,340.54063l-2.42573,-3.90481" fill="none"/><path d="M83.88752,340.3602l-2.18315,-3.51432" fill="none"/><path d="M77.61022,337.22455l1.5294,2.02635" fill="none"/><path d="M73.03094,336.82224l1.21287,1.9524l-3.27176,2.57364" fill="none"/><path d="M85.9849,348.52777l5.24487,-2.44645" fill="none"/><path d="M86.87235,344.72944l-4.07342,1.71874" fill="none"/><path d="M82.9054,343.135l-3.19779,2.25711" fill="none"/><path d="M77.91493,341.63522l-2.73336,1.698" fill="none"/></g><g data-paper-data="{&quot;origPos&quot;:null,&quot;origRot&quot;:0}" stroke="#674116"><path d="M117.85231,311.53001l2.79174,4.35327l0.06306,5.42055l-0.78077,3.5725l-4.30334,4.46628l-4.07989,5.34692l-7.27914,10.47038l0.24713,-4.93684l-1.66396,-9.51357l-1.96104,-6.25124l-0.19975,-6.69813l0.69402,-3.17557l2.05835,-3.7092l3.38589,-2.17136l4.14295,0.07364l2.60256,-11.90836l6.43787,0.99108l-5.07097,11.78479z" fill="#dea433"/><path d="M115.36341,308.07471l-9.38174,29.22567l5.04531,-29.17522" fill="none"/><path d="M109.6684,312.8191l-4.89165,2.5909" fill="none"/><path d="M108.69678,317.2649l-3.86957,2.48155" fill="none"/><path d="M105.08585,323.1302l3.48262,-2.23339" fill="none"/><path d="M107.52746,325.66015l-2.00419,1.55833" fill="none"/><path d="M105.18676,331.80307l1.93479,-1.24077l2.62035,3.23447" fill="none"/><path d="M114.18359,313.47318l2.5215,5.2092" fill="none"/><path d="M114.67144,321.89788l-1.77703,-4.04833" fill="none"/><path d="M111.35706,321.83896l2.3028,3.16506" fill="none"/><path d="M109.9291,326.85049l1.73709,2.70871" fill="none"/></g><g data-paper-data="{&quot;origPos&quot;:null,&quot;origRot&quot;:0}" stroke="#665415"><path d="M89.20308,331.92465l4.95087,-1.49457l5.23109,1.42196l3.22272,1.72815l3.11891,5.36084l4.02709,5.3868l8.08013,9.86542l-4.68099,-1.58802l-9.6059,-1.00163l-6.54925,0.17642l-6.49735,-1.63994l-2.86464,-1.53613l-3.00476,-2.9944l-1.16245,-3.85067l1.204,-3.96483l-10.7424,-5.76047l2.71418,-5.9213l9.94838,8.10098z" data-paper-data="{&quot;origPos&quot;:null}" fill="#ded633"/><path d="M85.19879,333.37359l25.54511,17.01777l-26.68268,-12.83291" data-paper-data="{&quot;origPos&quot;:null}" fill="none"/><path d="M88.20457,340.14911l1.15414,5.41377" data-paper-data="{&quot;origPos&quot;:null}" fill="none"/><path d="M93.54359,346.70046l-1.32852,-4.40077" data-paper-data="{&quot;origPos&quot;:null}" fill="none"/><path d="M95.67339,343.4165l1.19567,3.96069" data-paper-data="{&quot;origPos&quot;:null}" fill="none"/><path d="M99.97036,345.72069l0.95072,2.35399" data-paper-data="{&quot;origPos&quot;:null}" fill="none"/><path d="M105.2388,349.65233l-0.66425,-2.20038l3.82784,-1.63574" data-paper-data="{&quot;origPos&quot;:null}" fill="none"/><path d="M90.06868,335.98501l5.70024,-1.00053" data-paper-data="{&quot;origPos&quot;:null}" fill="none"/><path d="M98.30557,337.82008l-4.38001,0.60197" data-paper-data="{&quot;origPos&quot;:null}" fill="none"/><path d="M101.01659,339.64267l-3.67423,1.34927" data-paper-data="{&quot;origPos&quot;:null}" fill="none"/><path d="M101.77218,343.7362l3.08054,-0.92995" data-paper-data="{&quot;origPos&quot;:null}" fill="none"/></g><g data-paper-data="{&quot;origPos&quot;:null,&quot;origRot&quot;:0}" stroke="#661515"><path d="M94.59317,315.02711l-0.52751,5.14457l-3.327,4.27987l-2.83604,2.30853l-6.14853,0.8136l-6.52226,1.64173l-12.21639,3.65719l3.26839,-3.70827l4.62402,-8.47909l2.35961,-6.11196l4.01584,-5.3645l2.52093,-2.05203l3.92066,-1.61967l4.00133,0.41029l3.19526,2.63816l9.45348,-7.69508l4.41916,4.78535l-11.3076,6.06089z" data-paper-data="{&quot;origPos&quot;:null}" fill="#de7633"/><path d="M94.79827,310.77367l-25.54353,17.02014l22.11963,-19.68174" data-paper-data="{&quot;origPos&quot;:null}" fill="none"/><path d="M81.94713,309.91803l5.44064,1.01997" data-paper-data="{&quot;origPos&quot;:null}" fill="none"/><path d="M83.85848,313.81084l-4.57294,-0.46892" data-paper-data="{&quot;origPos&quot;:null}" fill="none"/><path d="M81.49587,316.57223l-4.11566,-0.42202" data-paper-data="{&quot;origPos&quot;:null}" fill="none"/><path d="M75.17591,319.62102l2.53857,0.02925" data-paper-data="{&quot;origPos&quot;:null}" fill="none"/><path d="M72.05701,322.99805l2.28647,0.23445l0.03528,4.16253" data-paper-data="{&quot;origPos&quot;:null}" fill="none"/><path d="M89.24062,319.90796l1.27207,-5.64584" data-paper-data="{&quot;origPos&quot;:null}" fill="none"/><path d="M86.7782,316.88285l-1.1314,4.27396" data-paper-data="{&quot;origPos&quot;:null}" fill="none"/><path d="M82.92066,322.95674l0.16992,-3.91045" data-paper-data="{&quot;origPos&quot;:null}" fill="none"/><path d="M78.52368,325.27849l0.32822,-3.20106" data-paper-data="{&quot;origPos&quot;:null}" fill="none"/></g><g data-paper-data="{&quot;origPos&quot;:null,&quot;origRot&quot;:0}" stroke="#674116"><path d="M92.2225,285.33986l4.72079,-2.11164l5.36938,0.74565l3.41622,1.30459l3.77489,4.92102l4.679,4.83134l9.26834,8.75859l-4.84485,-0.98028l-9.6553,0.22724l-6.47373,1.00729l-6.65307,-0.80094l-3.03663,-1.15963l-3.36093,-2.58826l-1.64238,-3.67173l0.69038,-4.08569l-11.38736,-4.34861l1.93967,-6.2182l10.89721,6.77102z" fill="#dea433"/><path d="M88.43481,287.2859l27.50066,13.63345l-28.09718,-9.33794" fill="none"/><path d="M92.27727,293.62452l1.83278,5.2232" fill="none"/><path d="M96.52855,295.24799l1.877,4.19625" fill="none"/><path d="M101.79005,299.69286l-1.68929,-3.77663" fill="none"/><path d="M104.65571,297.65567l1.24217,2.21409" fill="none"/><path d="M110.38108,300.88593l-0.9385,-2.09813l3.58893,-2.10893" fill="none"/><path d="M99.12395,287.54045l-5.52687,1.71682" fill="none"/><path d="M97.7324,291.18441l4.26799,-1.15373" fill="none"/><path d="M101.44809,293.29923l3.47296,-1.80527" fill="none"/><path d="M109.12811,294.14439l-2.93738,1.3139" fill="none"/></g><g data-paper-data="{&quot;origPos&quot;:null,&quot;origRot&quot;:0}" stroke="#674116"><path d="M29.37266,300.7557l4.31246,2.85437l2.24753,4.93304l0.72905,3.58342l-2.1322,5.82409l-1.57202,6.5394l-2.42876,12.51864l-1.76837,-4.61589l-5.36553,-8.03042l-4.31933,-4.92617l-2.88871,-6.0465l-0.64804,-3.18526l0.38441,-4.22459l2.22008,-3.35415l3.81958,-1.60636l-2.43015,-11.94473l6.28952,-1.69424l0.12221,12.82893z" fill="#a87927"/><path d="M25.7,298.60044l3.22484,30.5247l-7.17127,-28.72667" fill="none"/><path d="M18.97911,309.58741l3.428,-4.34623" fill="none"/><path d="M23.31437,309.70054l-2.53722,3.8333" fill="none"/><path d="M22.38076,316.52468l2.28351,-3.44997" fill="none"/><path d="M24.43252,320.0878l1.20381,-2.23518" fill="none"/><path d="M25.97683,324.41755l1.26861,-1.91665l3.7037,1.90017" fill="none"/><path d="M26.80168,304.01538l4.41105,3.74653" fill="none"/><path d="M30.65145,311.5249l-3.26105,-2.98535" fill="none"/><path d="M30.98097,314.775l-3.38517,-1.96497" fill="none"/><path d="M30.99746,319.74728l-2.68332,-1.77606" fill="none"/></g><g data-paper-data="{&quot;origPos&quot;:null,&quot;origRot&quot;:0}" stroke="#665415"><path d="M15.73946,310.0131l2.81423,4.33877l0.09112,5.42014l-0.76228,3.5765l-4.28017,4.48848l-4.05217,5.36795l-7.22487,10.50791l0.22158,-4.93806l-1.71316,-9.50483l-1.99336,-6.24102l-0.23442,-6.69701l0.67758,-3.1791l2.03913,-3.7198l3.37461,-2.18884l4.14328,0.05219l2.54089,-11.92167l6.44293,0.95776l-5.00993,11.81086z" data-paper-data="{&quot;origPos&quot;:null}" fill="#9fa827"/><path d="M13.23269,306.57073l-9.23039,29.27381l4.89429,-29.20093" data-paper-data="{&quot;origPos&quot;:null}" fill="none"/><path d="M2.68413,313.9607l4.87817,-2.61618" data-paper-data="{&quot;origPos&quot;:null}" fill="none"/><path d="M6.61371,315.79526l-3.85668,2.50153" data-paper-data="{&quot;origPos&quot;:null}" fill="none"/><path d="M3.03318,321.67919l3.47102,-2.25138" data-paper-data="{&quot;origPos&quot;:null}" fill="none"/><path d="M5.48785,324.1965l-1.9961,1.56867" data-paper-data="{&quot;origPos&quot;:null}" fill="none"/><path d="M3.17896,330.35143l1.92835,-1.25077l2.63705,3.22086" data-paper-data="{&quot;origPos&quot;:null}" fill="none"/><path d="M14.62925,317.17131l-2.54843,-5.19608" data-paper-data="{&quot;origPos&quot;:null}" fill="none"/><path d="M12.61226,320.3973l-1.79796,-4.03908" data-paper-data="{&quot;origPos&quot;:null}" fill="none"/><path d="M11.61677,323.50864l-2.31914,-3.15311" data-paper-data="{&quot;origPos&quot;:null}" fill="none"/><path d="M7.89559,325.37435l1.75109,2.69968" data-paper-data="{&quot;origPos&quot;:null}" fill="none"/></g><g data-paper-data="{&quot;origPos&quot;:null,&quot;origRot&quot;:0}" stroke="#674116"><path d="M50.7239,290.80683l4.97972,-1.39544l5.20166,1.52612l3.18758,1.79213l3.01126,5.42205l3.91875,5.46612l7.88157,10.02477l-4.64836,-1.68117l-9.58399,-1.1932l-6.55146,0.04564l-6.46331,-1.76931l-2.8334,-1.59301l-2.94438,-3.05379l-1.08535,-3.87311l1.28292,-3.94l-10.62526,-5.9738l2.83185,-5.86592l9.78467,8.29796z" fill="#a87927"/><path d="M46.69149,292.17548l25.20029,17.52436l-26.42118,-13.36302" fill="none"/><path d="M50.60724,304.44543l-1.04583,-5.43573" fill="none"/><path d="M54.76856,305.66631l-1.24039,-4.42641" fill="none"/><path d="M56.96351,302.42552l1.11635,3.98377" fill="none"/><path d="M62.11715,307.18754l-0.90354,-2.3725" fill="none"/><path d="M66.40252,308.85107l-0.6202,-2.21321l3.85974,-1.55899" fill="none"/><path d="M51.50828,294.88362l5.71907,-0.88653" fill="none"/><path d="M59.70688,296.88276l-4.39114,0.51442" fill="none"/><path d="M62.38099,298.75911l-3.70042,1.27565" fill="none"/><path d="M66.15319,301.99863l-3.09848,0.86827" fill="none"/></g><g data-paper-data="{&quot;origPos&quot;:null,&quot;origRot&quot;:0}" stroke="#665415"><path d="M52.37551,307.60408l-4.92074,1.59096l-5.25785,-1.31954l-3.25586,-1.6649l-3.22299,-5.29892l-4.13151,-5.30714l-8.27121,-9.70577l4.71111,1.49632l9.62363,0.81388l6.54456,-0.30427l6.52813,1.51275l2.89408,1.4799l3.06266,2.93516l1.23741,3.82725l-1.12635,3.98759l10.85284,5.54962l-2.59803,5.97317l-10.10467,-7.90517z" data-paper-data="{&quot;origPos&quot;:null}" fill="#ded633"/><path d="M56.35075,306.07723l-25.87253,-16.51572l26.92817,12.30944" data-paper-data="{&quot;origPos&quot;:null}" fill="none"/><path d="M53.21324,299.3617l-1.25964,-5.3902" data-paper-data="{&quot;origPos&quot;:null}" fill="none"/><path d="M47.74733,292.91588l1.41418,4.37398" data-paper-data="{&quot;origPos&quot;:null}" fill="none"/><path d="M44.40926,292.30419l1.27278,3.93659" data-paper-data="{&quot;origPos&quot;:null}" fill="none"/><path d="M40.3444,291.68595l0.9965,2.33499" data-paper-data="{&quot;origPos&quot;:null}" fill="none"/><path d="M35.9967,290.19292l0.7071,2.187l-3.79517,1.71017" data-paper-data="{&quot;origPos&quot;:null}" fill="none"/><path d="M45.75117,304.67305l5.67962,-1.11165" data-paper-data="{&quot;origPos&quot;:null}" fill="none"/><path d="M47.52705,301.20017l-4.36742,0.68737" data-paper-data="{&quot;origPos&quot;:null}" fill="none"/><path d="M44.06072,298.69747l-3.64718,1.42077" data-paper-data="{&quot;origPos&quot;:null}" fill="none"/><path d="M36.51637,297.03016l3.0618,-0.98994" data-paper-data="{&quot;origPos&quot;:null}" fill="none"/></g><g data-paper-data="{&quot;origPos&quot;:null,&quot;origRot&quot;:0}" stroke="#661515"><path d="M37.01794,329.25954l-1.228,-5.02364l1.69935,-5.14766l1.89781,-3.12581l5.51979,-2.82811l5.59421,-3.73362l10.28293,-7.54164l-1.83579,4.58949l-1.51329,9.53869l-0.17365,6.54932l-1.98465,6.40047l-1.68694,2.7785l-3.15062,2.84052l-3.90727,0.9551l-3.89487,-1.41405l-6.32604,10.41938l-5.76787,-3.02658l8.62079,-9.50148z" data-paper-data="{&quot;origPos&quot;:null}" fill="#de7633"/><path d="M38.2509,333.33552l18.35794,-24.59964l-14.2398,25.95912" data-paper-data="{&quot;origPos&quot;:null}" fill="none"/><path d="M45.1773,330.69594l5.46769,-0.86332" data-paper-data="{&quot;origPos&quot;:null}" fill="none"/><path d="M47.53902,326.80602l4.46544,-1.09154" data-paper-data="{&quot;origPos&quot;:null}" fill="none"/><path d="M48.83896,323.41228l4.01891,-0.9824" data-paper-data="{&quot;origPos&quot;:null}" fill="none"/><path d="M53.77081,318.42093l-2.40142,0.82362" data-paper-data="{&quot;origPos&quot;:null}" fill="none"/><path d="M55.57683,314.19363l-2.23273,0.54578l-1.42894,-3.90974" data-paper-data="{&quot;origPos&quot;:null}" fill="none"/><path d="M40.42407,322.86652l0.69463,5.74554" data-paper-data="{&quot;origPos&quot;:null}" fill="none"/><path d="M43.75827,324.89086l-0.36716,-4.4059" data-paper-data="{&quot;origPos&quot;:null}" fill="none"/><path d="M46.507,321.61618l-1.15109,-3.74105" data-paper-data="{&quot;origPos&quot;:null}" fill="none"/><path d="M48.71987,314.21348l0.76409,3.12581" data-paper-data="{&quot;origPos&quot;:null}" fill="none"/></g><g data-paper-data="{&quot;origPos&quot;:null,&quot;origRot&quot;:0}" stroke="#674116"><path d="M63.54978,349.73501l-5.07477,-0.99579l-3.95765,-3.70448l-2.03948,-3.03528l-0.24787,-6.19717l-1.03834,-6.64506l-2.52458,-12.49966l3.39381,3.59383l8.02065,5.38011l5.87054,2.90869l4.97474,4.48963l1.81286,2.69804l1.25434,4.05236l-0.77454,3.94705l-2.91933,2.94057l6.79824,10.11763l-5.16946,3.96297l-5.00133,-11.81452z" fill="#dea433"/><path d="M67.76661,350.32826l-14.61269,-26.99308l17.57627,23.82694" fill="none"/><path d="M68.2807,342.93378l1.51328,-5.32456" fill="none"/><path d="M66.62786,334.64564l-0.88517,4.5109" fill="none"/><path d="M63.20894,336.55128l0.79665,-4.05981" fill="none"/><path d="M60.48965,332.50423l0.2613,-2.52524" fill="none"/><path d="M57.67332,326.56432l-0.44258,2.25545l-4.14832,-0.34557" fill="none"/><path d="M59.17889,343.9585l5.50585,1.78309" fill="none"/><path d="M58.26397,340.26553l4.15257,1.51754" fill="none"/><path d="M56.72091,337.38619l3.87851,0.52685" fill="none"/><path d="M54.81102,332.79528l3.15762,0.61962" fill="none"/></g><g data-paper-data="{&quot;origPos&quot;:null,&quot;origRot&quot;:0}" stroke="#674116"><path d="M33.61368,352.93785l-5.12241,0.71118l-4.94834,-2.21364l-2.9168,-2.20562l-2.25258,-5.77859l-3.14584,-5.94464l-6.45771,-10.99605l4.3792,2.29266l9.33554,2.47472l6.49777,0.83826l6.16568,2.62475l2.5927,1.96055l2.50567,3.42295l0.55314,3.9841l-1.80252,3.73101l9.72262,7.35207l-3.59701,5.43047l-8.5763,-9.54165z" fill="#dea433"/><path d="M37.79382,352.12546l-22.6069,-20.7626l24.3778,16.80392" fill="none"/><path d="M35.56847,339.43957l0.30325,5.52711" fill="none"/><path d="M32.24195,342.22192l-0.63215,-4.55325" fill="none"/><path d="M28.42894,336.48592l0.56893,4.09792" fill="none"/><path d="M25.10882,337.64303l-0.57535,-2.47268" fill="none"/><path d="M20.51159,332.94412l0.31607,2.27662l-4.03471,1.02426" fill="none"/><path d="M33.38623,348.79252l-5.78639,0.1072" fill="none"/><path d="M25.5321,345.70605l4.42041,0.08243" fill="none"/><path d="M26.97409,342.72122l-3.83864,0.76499" fill="none"/><path d="M19.83457,339.76758l3.18726,-0.4425" fill="none"/></g><g data-paper-data="{&quot;origPos&quot;:null,&quot;origRot&quot;:0}" stroke="#665415"><path d="M-8.36097,304.90733l-4.60599,2.35151l-5.40061,-0.46864l-3.47877,-1.12725l-4.02287,-4.72046l-4.92119,-4.58442l-9.70633,-8.27054l4.88883,0.72992l9.63086,-0.72328l6.41339,-1.33875l6.68545,0.45786l3.09223,1.002l3.48954,2.41206l1.82896,3.58244l-0.47943,4.11579l11.59585,3.75745l-1.61745,6.30971l-11.23088,-6.20189z" data-paper-data="{&quot;origPos&quot;:null}" fill="#9fa827"/><path d="M-4.67832,302.76914l-28.16515,-12.2017l28.54007,7.88121" data-paper-data="{&quot;origPos&quot;:null}" fill="none"/><path d="M-8.84155,296.63642l-2.09887,-5.12208" data-paper-data="{&quot;origPos&quot;:null}" fill="none"/><path d="M-15.26091,291.13946l2.09024,4.09421" data-paper-data="{&quot;origPos&quot;:null}" fill="none"/><path d="M-16.77251,294.74993l-1.88122,-3.6848" data-paper-data="{&quot;origPos&quot;:null}" fill="none"/><path d="M-22.76518,291.09963l1.35433,2.14731" data-paper-data="{&quot;origPos&quot;:null}" fill="none"/><path d="M-27.29471,290.31531l1.04512,2.0471l-3.47577,2.29064" data-paper-data="{&quot;origPos&quot;:null}" fill="none"/><path d="M-9.93511,301.06576l-5.4313,1.99867" data-paper-data="{&quot;origPos&quot;:null}" fill="none"/><path d="M-14.16404,299.35375l-4.20304,1.37159" data-paper-data="{&quot;origPos&quot;:null}" fill="none"/><path d="M-17.98353,297.43273l-3.37557,1.98142" data-paper-data="{&quot;origPos&quot;:null}" fill="none"/><path d="M-25.69684,296.98348l2.86595,-1.46317" data-paper-data="{&quot;origPos&quot;:null}" fill="none"/></g><g data-paper-data="{&quot;origPos&quot;:null,&quot;origRot&quot;:0}" stroke="#661515"><path d="M-7.40664,327.01061l-3.33657,-3.95123l-0.77072,-5.36583l0.30733,-3.6439l3.68293,-4.99022l3.34635,-5.83412l5.8488,-11.33166l0.39999,4.92682l2.89265,9.21462l2.76094,5.94145l1.07315,6.61463l-0.27318,3.23901l-1.5561,3.94633l-3.07317,2.5951l-4.11707,0.46828l-1.02442,12.14632l-6.51218,-0.14149l3.48782,-12.3463z" data-paper-data="{&quot;origPos&quot;:null}" fill="#a85a27"/><path d="M-4.48764,330.11109l5.483,-30.20089l-1.19033,29.58432" data-paper-data="{&quot;origPos&quot;:null}" fill="none"/><path d="M0.53871,324.66334l4.51122,-3.20779" data-paper-data="{&quot;origPos&quot;:null}" fill="none"/><path d="M0.92116,320.12869l3.5122,-2.96583" data-paper-data="{&quot;origPos&quot;:null}" fill="none"/><path d="M3.73482,313.8419l-3.16097,2.66926" data-paper-data="{&quot;origPos&quot;:null}" fill="none"/><path d="M2.76704,309.84582l-1.78341,1.80681" data-paper-data="{&quot;origPos&quot;:null}" fill="none"/><path d="M2.50168,305.25655l-1.7561,1.48292l-3.02047,-2.8644" data-paper-data="{&quot;origPos&quot;:null}" fill="none"/><path d="M-7.2037,319.76966l3.18047,4.83512" data-paper-data="{&quot;origPos&quot;:null}" fill="none"/><path d="M-3.3169,320.09746l-2.29071,-3.78145" data-paper-data="{&quot;origPos&quot;:null}" fill="none"/><path d="M-2.31395,315.94137l-2.69657,-2.83708" data-paper-data="{&quot;origPos&quot;:null}" fill="none"/><path d="M-1.55296,310.78629l-2.07608,-2.45854" data-paper-data="{&quot;origPos&quot;:null}" fill="none"/></g><g data-paper-data="{&quot;origPos&quot;:null,&quot;origRot&quot;:0}" stroke="#661515"><path d="M-37.06753,343.09755l-4.9137,-1.61259l-3.47185,-4.16323l-1.65056,-3.26315l0.51645,-6.18058l-0.21294,-6.72233l-0.96759,-12.7153l2.92588,3.98406l7.29783,6.32602l5.46809,3.60883l4.3846,5.06755l1.46717,2.90057l0.74622,4.1759l-1.25423,3.82175l-3.25892,2.5591l5.50185,10.87713l-5.61775,3.29688l-3.50981,-12.34006z" data-paper-data="{&quot;origPos&quot;:null}" fill="#a85a27"/><path d="M-32.95571,344.20506l-11.18077,-28.58579l14.51136,25.80831" data-paper-data="{&quot;origPos&quot;:null}" fill="none"/><path d="M-29.37894,331.83208l-2.15686,5.09793" data-paper-data="{&quot;origPos&quot;:null}" fill="none"/><path d="M-33.58981,332.86921l1.43341,-4.36771" data-paper-data="{&quot;origPos&quot;:null}" fill="none"/><path d="M-35.78381,329.97202l1.29006,-3.93096" data-paper-data="{&quot;origPos&quot;:null}" fill="none"/><path d="M-37.41455,323.14725l-0.56999,2.47392" data-paper-data="{&quot;origPos&quot;:null}" fill="none"/><path d="M-40.04869,319.37988l-0.7167,2.18387l-4.07429,-0.8533" data-paper-data="{&quot;origPos&quot;:null}" fill="none"/><path d="M-35.44988,339.2741l-5.24464,-2.44693" data-paper-data="{&quot;origPos&quot;:null}" fill="none"/><path d="M-37.21385,335.06657l-3.93432,-2.0169" data-paper-data="{&quot;origPos&quot;:null}" fill="none"/><path d="M-42.32528,330.00238l3.78424,1.00001" data-paper-data="{&quot;origPos&quot;:null}" fill="none"/><path d="M-43.65585,325.21141l3.05741,1.00338" data-paper-data="{&quot;origPos&quot;:null}" fill="none"/></g><g data-paper-data="{&quot;origPos&quot;:null,&quot;origRot&quot;:0}" stroke="#674116"><path d="M-3.04454,351.28617l-4.26981,2.9178l-5.41639,0.22148l-3.59381,-0.676l-4.59014,-4.17095l-5.46389,-3.92185l-10.67868,-6.96999l4.94196,0.10272l9.46086,-1.94133l6.19125,-2.14293l6.68943,-0.39545l3.19449,0.6009l3.76778,1.94905l2.2694,3.32096l0.04749,4.14335l11.97935,2.25337l-0.80248,6.46408l-11.92798,-4.72433z" fill="#a87927"/><path d="M0.33652,348.69734l-29.48742,-8.52347l29.31024,4.19036" fill="none"/><path d="M-7.3051,338.32959l2.73277,4.81382" fill="none"/><path d="M-9.0446,342.30218l-2.5936,-3.79539" fill="none"/><path d="M-12.67873,342.28007l-2.33422,-3.41585" fill="none"/><path d="M-17.47047,341.37875l-1.61625,-1.95778" fill="none"/><path d="M-23.67918,339.21861l1.2968,1.89769l-3.15649,2.71377" fill="none"/><path d="M-5.09414,347.67581l-5.13327,2.67269" fill="none"/><path d="M-9.50632,346.5151l-3.99465,1.89462" fill="none"/><path d="M-13.53899,345.09505l-3.09639,2.39432" fill="none"/><path d="M-18.59007,343.81416l-2.65677,1.81551" fill="none"/></g><g data-paper-data="{&quot;origPos&quot;:null,&quot;origRot&quot;:0}" stroke="#674116"><path d="M31.49743,305.99714l2.9788,4.22747l0.29922,5.41264l-0.62434,3.60314l-4.10461,4.64957l-3.843,5.51963l-6.81595,10.77765l0.03176,-4.94293l-2.07698,-9.43201l-2.23159,-6.15985l-0.49146,-6.68306l0.55497,-3.20279l1.89475,-3.79537l3.28805,-2.31685l4.14222,-0.10698l2.08113,-12.01047l6.47495,0.70959l-4.55259,11.99458z" fill="#dea433"/><path d="M28.86029,302.65359l-8.0992,29.60675l3.76909,-29.36737" fill="none"/><path d="M23.37746,307.64167l-4.77408,2.8016" fill="none"/><path d="M22.6005,312.12556l-3.75776,2.64783" fill="none"/><path d="M22.6306,315.75963l-3.38198,2.38304" fill="none"/><path d="M19.86376,322.20797l1.93438,-1.64418" fill="none"/><path d="M19.72737,326.80289l1.87888,-1.32391l2.75882,3.11719" fill="none"/><path d="M27.91686,308.09834l2.74612,5.09438" fill="none"/><path d="M28.7714,316.49377l-1.95177,-3.96704" fill="none"/><path d="M25.45761,316.57938l2.43854,3.06171" fill="none"/><path d="M24.24937,321.64833l1.85348,2.63043" fill="none"/></g><g data-paper-data="{&quot;origPos&quot;:null,&quot;origRot&quot;:0}" stroke="#665415"><path d="M-7.73582,333.62093l4.88104,-1.70891l5.28808,1.19265l3.29497,1.58607l3.34957,5.21983l4.25801,5.20619l8.50238,9.50392l-4.74575,-1.38252l-9.64042,-0.58207l-6.53534,0.46166l-6.56263,-1.35523l-2.92886,-1.40983l-3.1324,-2.86061l-1.32915,-3.79636l1.03008,-4.01353l-10.98323,-5.28687l2.45355,-6.03395l10.29196,7.65975z" data-paper-data="{&quot;origPos&quot;:null}" fill="#ded633"/><path d="M-11.67317,335.24297l26.26246,15.88837l-27.21657,-11.65792" data-paper-data="{&quot;origPos&quot;:null}" fill="none"/><path d="M-6.986,347.23939l-1.38897,-5.35833" data-paper-data="{&quot;origPos&quot;:null}" fill="none"/><path d="M-2.75554,348.19351l-1.51903,-4.33869" data-paper-data="{&quot;origPos&quot;:null}" fill="none"/><path d="M0.59626,348.72469l-1.36713,-3.90483" data-paper-data="{&quot;origPos&quot;:null}" fill="none"/><path d="M3.62244,346.93461l1.05239,2.31033" data-paper-data="{&quot;origPos&quot;:null}" fill="none"/><path d="M9.0572,350.63293l-0.75952,-2.16934l3.75292,-1.801" data-paper-data="{&quot;origPos&quot;:null}" fill="none"/><path d="M-6.6941,337.63968l5.65122,-1.24798" data-paper-data="{&quot;origPos&quot;:null}" fill="none"/><path d="M1.61494,339.11405l-4.34962,0.79227" data-paper-data="{&quot;origPos&quot;:null}" fill="none"/><path d="M0.79088,342.32488l3.61194,-1.50811" data-paper-data="{&quot;origPos&quot;:null}" fill="none"/><path d="M8.37316,343.81015l-3.03708,1.06332" data-paper-data="{&quot;origPos&quot;:null}" fill="none"/></g><g data-paper-data="{&quot;origPos&quot;:null,&quot;origRot&quot;:0}" stroke="#661515"><path d="M-1.70075,311.59083l2.77325,4.36507l0.04008,5.42076l-0.79591,3.56916l-4.32224,4.44799l-4.10252,5.32957l-7.32348,10.43943l0.26806,-4.93575l-1.62361,-9.52053l-1.93451,-6.2595l-0.17135,-6.69892l0.70747,-3.17259l2.07407,-3.70043l3.39505,-2.15698l4.14261,0.09119l2.65302,-11.89722l6.43362,1.01837l-5.1209,11.76319z" data-paper-data="{&quot;origPos&quot;:null}" fill="#de7633"/><path d="M-4.17499,308.12505l-9.50558,29.18562l5.16897,-29.15356" data-paper-data="{&quot;origPos&quot;:null}" fill="none"/><path d="M-9.89006,312.84523l-4.90259,2.57013" data-paper-data="{&quot;origPos&quot;:null}" fill="none"/><path d="M-14.76058,319.75198l3.88006,-2.46511" data-paper-data="{&quot;origPos&quot;:null}" fill="none"/><path d="M-11.02422,320.9182l-3.49206,2.21861" data-paper-data="{&quot;origPos&quot;:null}" fill="none"/><path d="M-14.09621,327.22692l2.01078,-1.54981" data-paper-data="{&quot;origPos&quot;:null}" fill="none"/><path d="M-14.45216,331.81004l1.94003,-1.23256l2.60661,3.24554" data-paper-data="{&quot;origPos&quot;:null}" fill="none"/><path d="M-5.37768,313.51845l2.49939,5.21984" data-paper-data="{&quot;origPos&quot;:null}" fill="none"/><path d="M-4.92555,321.94516l-1.75985,-4.05582" data-paper-data="{&quot;origPos&quot;:null}" fill="none"/><path d="M-8.23963,321.87219l2.28935,3.1748" data-paper-data="{&quot;origPos&quot;:null}" fill="none"/><path d="M-7.96327,329.59362l-1.72559,-2.71604" data-paper-data="{&quot;origPos&quot;:null}" fill="none"/></g><g data-paper-data="{&quot;origPos&quot;:null,&quot;origRot&quot;:0}" stroke="#665415"><path d="M-37.45188,312.4468l3.58667,3.72567l1.11834,5.30429l-0.06951,3.65618l-3.35031,5.21936l-2.95952,6.03956l-5.09884,11.68832l-0.71982,-4.89033l-3.48627,-9.0068l-3.14183,-5.74916l-1.50141,-6.53075l0.06178,-3.24993l1.29594,-4.03924l2.89774,-2.78963l4.07786,-0.73526l0.23165,-12.18724l6.50759,-0.28268l-2.67683,12.54713z" data-paper-data="{&quot;origPos&quot;:null}" fill="#ded633"/><path d="M-40.56651,309.54287l-3.50564,30.49372l-0.7378,-29.59906" data-paper-data="{&quot;origPos&quot;:null}" fill="none"/><path d="M-45.22762,315.30627l-4.29286,3.49461" data-paper-data="{&quot;origPos&quot;:null}" fill="none"/><path d="M-45.31409,319.85615l-3.3117,3.18815" data-paper-data="{&quot;origPos&quot;:null}" fill="none"/><path d="M-44.73206,323.44344l-2.98054,2.86933" data-paper-data="{&quot;origPos&quot;:null}" fill="none"/><path d="M-44.82473,328.31834l-1.66202,1.91906" data-paper-data="{&quot;origPos&quot;:null}" fill="none"/><path d="M-45.92327,334.79964l1.65585,-1.59407l3.2005,2.66172" data-paper-data="{&quot;origPos&quot;:null}" fill="none"/><path d="M-40.67154,315.06775l3.48844,4.61786" data-paper-data="{&quot;origPos&quot;:null}" fill="none"/><path d="M-41.08301,319.61149l2.53199,3.62434" data-paper-data="{&quot;origPos&quot;:null}" fill="none"/><path d="M-41.81331,323.82401l2.87551,2.65555" data-paper-data="{&quot;origPos&quot;:null}" fill="none"/><path d="M-42.23715,329.01774l2.23172,2.3182" data-paper-data="{&quot;origPos&quot;:null}" fill="none"/></g><g data-paper-data="{&quot;origPos&quot;:null,&quot;origRot&quot;:0}" stroke="#674116"><path d="M-6.74939,286.9488l4.62428,-2.31536l5.39678,0.51096l3.46982,1.15446l3.98575,4.75185l4.8851,4.62286l9.64123,8.34637l-4.88298,-0.76822l-9.63623,0.64778l-6.42368,1.28844l-6.68165,-0.51024l-3.08428,-1.02619l-3.47053,-2.43934l-1.80083,-3.59667l0.51168,-4.11189l-11.56605,-3.84823l1.66685,-6.29683l11.18194,6.2897z" fill="#dea433"/><path d="M-10.44866,289.05804l28.06866,12.42206l-28.47742,-8.10463" fill="none"/><path d="M-4.27497,300.36154l-2.05866,-5.13837" fill="none"/><path d="M0.04244,300.7703l-2.05809,-4.11047" fill="none"/><path d="M3.43458,300.8712l-1.85227,-3.69942" fill="none"/><path d="M7.54618,300.86894l-1.33747,-2.15785" fill="none"/><path d="M12.06942,301.68876l-1.02904,-2.05523l3.49362,-2.26333" fill="none"/><path d="M0.24142,288.84653l-5.4468,1.95604" fill="none"/><path d="M-0.99001,292.54768l4.21365,-1.33863" fill="none"/><path d="M2.81431,294.49858l3.39099,-1.9549" fill="none"/><path d="M7.64654,296.44891l2.87732,-1.44065" fill="none"/></g><g data-paper-data="{&quot;origPos&quot;:null,&quot;origRot&quot;:0}" stroke="#674116"><path d="M-28.26454,323.11498l-5.01442,-1.26508l-3.75444,-3.9103l-1.87467,-3.13975l0.08304,-6.20157l-0.68241,-6.69098l-1.85425,-12.61653l3.19728,3.76975l7.72226,5.80028l5.70704,3.21769l4.72817,4.74859l1.66636,2.79089l1.03639,4.1135l-0.98397,3.90012l-3.07202,2.78067l6.24888,10.46585l-5.37349,3.68159l-4.36401,-12.06447z" fill="#dea433"/><path d="M-24.08537,323.9323l-13.15208,-27.73409l16.28032,24.73054" fill="none"/><path d="M-23.17759,316.57578l1.79515,-5.23627" fill="none"/><path d="M-25.51051,312.66854l1.12452,-4.45727" fill="none"/><path d="M-26.88961,305.92028l-1.01207,4.01153" fill="none"/><path d="M-30.40124,305.74548l0.39561,-2.50772" fill="none"/><path d="M-32.89671,299.66381l-0.56226,2.22863l-4.12399,-0.56634" fill="none"/><path d="M-26.91819,319.18779l-5.40292,-2.07424" fill="none"/><path d="M-28.97202,315.1139l-4.06571,-1.73687" fill="none"/><path d="M-30.58013,311.15245l-3.84489,-0.73298" fill="none"/><path d="M-32.96722,306.52039l-3.12008,-0.78716" fill="none"/></g></g><path d="M-48.80707,281.00002l182,-1l-1,41l-182,2z" data-paper-data="{&quot;origPos&quot;:null}" fill="url(#color-5)" stroke="#000000" stroke-width="0"/></g><g data-paper-data="{&quot;origPos&quot;:null}" stroke="#964f17" stroke-width="2.73437" stroke-linecap="butt"><path d="M433.74279,117.01892l42.46776,12.49157l-33.24793,124.55372l-42.46776,-12.49158z" data-paper-data="{&quot;origPos&quot;:null,&quot;index&quot;:null,&quot;origRot&quot;:0}" id="ID0.17253359453752637" fill="url(#color-6)"/><path d="M330.03595,104.92608l11.22788,-46.29987l217.02544,53.989l-11.22788,46.29987z" data-paper-data="{&quot;origPos&quot;:null,&quot;index&quot;:null,&quot;origRot&quot;:0}" id="ID0.17253359453752637" fill="url(#color-7)"/><path d="M305.61206,250.95852l12.76526,-43.53645l128.24617,31.00551l-11.22788,46.29987z" data-paper-data="{&quot;origPos&quot;:null,&quot;index&quot;:null,&quot;origRot&quot;:0}" id="ID0.17253359453752637" fill="url(#color-8)"/></g><path d="M214.90475,107.66026l0.2048,47.64051l-129.76831,2.97789l-0.2048,-47.64051z" data-paper-data="{&quot;origPos&quot;:null,&quot;index&quot;:null,&quot;origRot&quot;:0}" id="ID0.17253359453752637" fill="url(#color-9)" stroke="#964f17" stroke-width="2.73437" stroke-linecap="butt"/></g></g></svg>