<svg version="1.1" xmlns="http://www.w3.org/2000/svg" xmlns:xlink="http://www.w3.org/1999/xlink" width="658.38652" height="435.49423" viewBox="0,0,658.38652,435.49423"><defs><linearGradient x1="57.00006" y1="53.00001" x2="57.00006" y2="98.00001" gradientUnits="userSpaceOnUse" id="color-1"><stop offset="0" stop-color="#ffe21d" stop-opacity="0"/><stop offset="1" stop-color="#ffe21d"/></linearGradient><linearGradient x1="155.33966" y1="102.56051" x2="155.33966" y2="145.26212" gradientUnits="userSpaceOnUse" id="color-2"><stop offset="0" stop-color="#ffe21d" stop-opacity="0"/><stop offset="1" stop-color="#ffe21d"/></linearGradient><linearGradient x1="271.13561" y1="32.24409" x2="271.13561" y2="74.06429" gradientUnits="userSpaceOnUse" id="color-3"><stop offset="0" stop-color="#ffe21d" stop-opacity="0"/><stop offset="1" stop-color="#ffe21d"/></linearGradient><linearGradient x1="386.07497" y1="115.14381" x2="386.07497" y2="160.81811" gradientUnits="userSpaceOnUse" id="color-4"><stop offset="0" stop-color="#ffe21d" stop-opacity="0"/><stop offset="1" stop-color="#ffe21d"/></linearGradient><linearGradient x1="411.72433" y1="24.27697" x2="411.72433" y2="68.31067" gradientUnits="userSpaceOnUse" id="color-5"><stop offset="0" stop-color="#ffe21d" stop-opacity="0"/><stop offset="1" stop-color="#ffe21d"/></linearGradient><linearGradient x1="154.35551" y1="4.33101" x2="154.35551" y2="46.05211" gradientUnits="userSpaceOnUse" id="color-6"><stop offset="0" stop-color="#ffe21d" stop-opacity="0"/><stop offset="1" stop-color="#ffe21d"/></linearGradient><linearGradient x1="525.10885" y1="14.65725" x2="514.09965" y2="57.29249" gradientUnits="userSpaceOnUse" id="color-7"><stop offset="0" stop-color="#ffe21d" stop-opacity="0"/><stop offset="1" stop-color="#ffe21d"/></linearGradient></defs><g transform="translate(86.45401,26.39926)"><g data-paper-data="{&quot;isPaintingLayer&quot;:true}" fill-rule="nonzero" stroke="none" stroke-linejoin="miter" stroke-miterlimit="10" stroke-dasharray="" stroke-dashoffset="0" style="mix-blend-mode: normal"><path d="M-86.45401,382.98468v-409.38393h69.41839v409.38393z" fill="#272727" stroke-width="0" stroke-linecap="butt"/><path d="M0.00005,-4.69043h571.93246v364.69043h-571.93246z" data-paper-data="{&quot;origPos&quot;:null}" fill="#195490" stroke-width="1" stroke-linecap="butt"/><path d="M36.00003,72.50001l17.5,-2l5,-17.5l5,14.5l14.5,-8l-11.5,16l8.5,17.5l-14,-10l-8,15l-1,-19z" data-paper-data="{&quot;origPos&quot;:null}" fill="url(#color-1)" stroke-width="0" stroke-linecap="round"/><path d="M140.24904,102.56051l13.1942,11.6689l16.352,-7.9915l-7.4321,13.4169l15.6467,5.425l-19.5856,2.1569l-7.3203,18.0254l-1.9337,-17.0957l-16.5008,4.0892l13.4527,-13.4545z" data-paper-data="{&quot;origPos&quot;:null}" fill="url(#color-2)" stroke-width="0" stroke-linecap="round"/><path d="M290.8198,72.18069l-15.1347,-9.0105l-14.5798,10.8941l4.8062,-14.5654l-16.3828,-2.4194l18.8425,-5.7629l3.839,-19.0725l5.0804,16.4374l15.452,-7.0876l-10.7147,15.7223z" fill="url(#color-3)" stroke-width="0" stroke-linecap="round"/><path d="M364.45097,151.56792l12.3977,-12.5118l-7.052,-16.7785l12.9742,8.1804l6.3029,-15.3142l1.0436,19.6764l17.5816,8.3299l-17.1777,0.9619l3.1476,16.7061l-12.6706,-14.1936z" data-paper-data="{&quot;origPos&quot;:null}" fill="url(#color-4)" stroke-width="0" stroke-linecap="round"/><path d="M404.53072,24.27697l9.4077,14.8911l17.9337,-3.1035l-10.8854,10.8055l13.5073,9.5814l-19.4081,-3.4023l-12.0659,15.2615l2.9208,-16.9549l-16.9862,-0.6849l16.6767,-9.1591z" fill="url(#color-5)" stroke-width="0" stroke-linecap="round"/><path d="M134.87286,5.95351l15.055,9.1431l14.6749,-10.7656l-4.934,14.5226l16.3609,2.5633l-18.8923,5.5971l-4.0065,19.0381l-4.9358,-16.4815l-15.5137,6.9516l10.8525,-15.6276z" data-paper-data="{&quot;origPos&quot;:null}" fill="url(#color-6)" stroke-width="0" stroke-linecap="round"/><g data-paper-data="{&quot;origPos&quot;:null}" fill="#2172c3" stroke-width="1" stroke-linecap="butt"><path d="M46.76858,85.00001c12.28638,0 23.41959,4.99002 31.48121,13.05164c8.06162,8.06162 13.05165,19.19484 13.05165,31.48122c0,12.28638 -4.99003,23.41959 -13.05165,31.48121c-8.06162,8.06162 -19.19483,13.05164 -31.48121,13.05164c-12.28638,0 -23.41959,-4.99002 -31.48121,-13.05164c-8.06162,-8.06162 -13.05164,-19.19483 -13.05164,-31.48121c0,-12.28638 4.99002,-23.41959 13.05164,-31.48122c8.06162,-8.06162 19.19483,-13.05164 31.48121,-13.05164z"/><path d="M127.6309,86.17192c12.28638,0 23.41959,4.99002 31.48121,13.05164c8.06162,8.06162 13.05165,19.19483 13.05165,31.48121c0,12.28638 -4.99003,23.41959 -13.05165,31.48121c-8.06162,8.06162 -19.19483,13.05164 -31.48121,13.05164c-12.28638,0 -23.41959,-4.99002 -31.48121,-13.05164c-8.06162,-8.06162 -13.05164,-19.19483 -13.05164,-31.48121c0,-12.28638 4.99002,-23.41959 13.05164,-31.48121c8.06162,-8.06162 19.19483,-13.05164 31.48121,-13.05164z"/><path d="M200.28977,86.17192c12.28638,0 23.4196,4.99002 31.48122,13.05164c8.06162,8.06162 13.05164,19.19483 13.05164,31.48121c0,12.28638 -4.99002,23.41959 -13.05164,31.48121c-8.06162,8.06162 -19.19484,13.05164 -31.48122,13.05164c-12.28638,0 -23.41959,-4.99002 -31.48121,-13.05164c-8.06162,-8.06162 -13.05165,-19.19483 -13.05165,-31.48121c0,-12.28638 4.99003,-23.41959 13.05165,-31.48121c8.06162,-8.06162 19.19483,-13.05164 31.48121,-13.05164z"/><path d="M269.43289,87.34384c12.28638,0 23.41959,4.99002 31.48121,13.05164c8.06162,8.06162 13.05165,19.19484 13.05165,31.48122c0,12.28638 -4.99003,23.41959 -13.05165,31.48121c-8.06162,8.06162 -19.19483,13.05165 -31.48121,13.05165c-12.28638,0 -23.4196,-4.99003 -31.48122,-13.05165c-8.06162,-8.06162 -13.05164,-19.19483 -13.05164,-31.48121c0,-12.28638 4.99002,-23.41959 13.05164,-31.48122c8.06162,-8.06162 19.19484,-13.05164 31.48122,-13.05164z"/><path d="M342.09177,88.51576c12.28638,0 23.41959,4.99003 31.48121,13.05165c8.06162,8.06162 13.05165,19.19483 13.05165,31.48121c0,12.28638 -4.99003,23.41959 -13.05165,31.48121c-8.06162,8.06162 -19.19483,13.05164 -31.48121,13.05164c-12.28638,0 -23.41959,-4.99002 -31.48121,-13.05164c-8.06162,-8.06162 -13.05164,-19.19483 -13.05164,-31.48121c0,-12.28638 4.99002,-23.41959 13.05164,-31.48121c8.06162,-8.06162 19.19483,-13.05165 31.48121,-13.05165z"/><path d="M403.03146,88.51576c12.28638,0 23.41959,4.99003 31.48121,13.05165c8.06162,8.06162 13.05165,19.19483 13.05165,31.48121c0,12.28638 -4.99003,23.41959 -13.05165,31.48121c-8.06162,8.06162 -19.19483,13.05164 -31.48121,13.05164c-12.28638,0 -23.4196,-4.99002 -31.48122,-13.05164c-8.06162,-8.06162 -13.05164,-19.19483 -13.05164,-31.48121c0,-12.28638 4.99002,-23.41959 13.05164,-31.48121c8.06162,-8.06162 19.19484,-13.05165 31.48122,-13.05165z"/><path d="M463.97115,90.85959c12.28638,0 23.4196,4.99003 31.48122,13.05165c8.06162,8.06162 13.05164,19.19483 13.05164,31.48121c0,12.28638 -4.99002,23.41959 -13.05164,31.48121c-8.06162,8.06162 -19.19484,13.05164 -31.48122,13.05164c-12.28638,0 -23.41959,-4.99002 -31.48121,-13.05164c-8.06162,-8.06162 -13.05164,-19.19483 -13.05164,-31.48121c0,-12.28638 4.99002,-23.41959 13.05164,-31.48121c8.06162,-8.06162 19.19483,-13.05165 31.48121,-13.05165z"/><path d="M526.08277,92.03151c12.28638,0 23.41959,4.99002 31.48121,13.05164c6.42381,6.42381 10.89731,14.79794 12.44985,24.15174c0,4.88682 0,9.7758 0,14.65895c-1.55255,9.35381 -6.02604,17.72793 -12.44985,24.15174c-8.06162,8.06162 -19.19483,13.05164 -31.48121,13.05164c-12.28638,0 -23.4196,-4.99002 -31.48122,-13.05164c-8.06162,-8.06162 -13.05164,-19.19483 -13.05164,-31.48121c0,-12.28638 4.99002,-23.41959 13.05164,-31.48122c8.06162,-8.06162 19.19484,-13.05164 31.48122,-13.05164z"/><path d="M548.50973,166.87366c-8.06162,-8.06162 -13.05164,-19.19483 -13.05164,-31.48121c0,-12.28638 4.99002,-23.41959 13.05164,-31.48121c5.81141,-5.8114 13.21898,-10.02664 21.50408,-11.92702c0,28.70289 0,58.2 0,86.81645c-8.28511,-1.90038 -15.69267,-6.1156 -21.50408,-11.92701z"/><path d=""/><path d="M1.06384,126.01711h562.52028v109.38247h-562.52027z"/></g><g fill="#2889ea" stroke-linecap="butt"><path d="M11.61109,175.23764c12.28638,0 23.41959,4.99003 31.48121,13.05165c8.06162,8.06162 13.05164,19.19483 13.05164,31.48121c0,12.28638 -4.99002,23.41959 -13.05164,31.48121c-8.06162,8.06162 -19.19483,13.05164 -31.48121,13.05164c-5.733,0 -11.21491,-1.08648 -16.25084,-3.0645c-0.04496,-0.58123 3.34008,-77.92956 3.33545,-84.09526c4.08867,-1.23941 8.42502,-1.90594 12.9154,-1.90594z" stroke-width="1"/><path d="M92.47337,176.40956c12.28638,0 23.41959,4.99002 31.48121,13.05164c8.06162,8.06162 13.05165,19.19484 13.05165,31.48122c0,12.28638 -4.99003,23.41959 -13.05165,31.48121c-8.06162,8.06162 -19.19483,13.05164 -31.48121,13.05164c-12.28638,0 -23.4196,-4.99003 -31.48122,-13.05164c-8.06162,-8.06162 -13.05164,-19.19483 -13.05164,-31.48121c0,-12.28638 4.99002,-23.4196 13.05164,-31.48122c8.06162,-8.06162 19.19484,-13.05164 31.48122,-13.05164z" stroke-width="1"/><path d="M165.13221,176.40956c12.28638,0 23.41959,4.99002 31.48121,13.05164c8.06162,8.06162 13.05165,19.19484 13.05165,31.48122c0,12.28638 -4.99003,23.41959 -13.05165,31.48121c-8.06162,8.06162 -19.19483,13.05164 -31.48121,13.05164c-12.28638,0 -23.41959,-4.99003 -31.48121,-13.05164c-8.06162,-8.06162 -13.05164,-19.19483 -13.05164,-31.48121c0,-12.28638 4.99002,-23.4196 13.05164,-31.48122c8.06162,-8.06162 19.19483,-13.05164 31.48121,-13.05164z" stroke-width="1"/><path d="M234.27538,177.58148c12.28638,0 23.41959,4.99002 31.48121,13.05164c8.06162,8.06162 13.05164,19.19483 13.05164,31.48121c0,12.28638 -4.99002,23.4196 -13.05164,31.48122c-8.06162,8.06162 -19.19483,13.05164 -31.48121,13.05164c-12.28638,0 -23.41959,-4.99002 -31.48121,-13.05164c-8.06162,-8.06162 -13.05165,-19.19484 -13.05165,-31.48122c0,-12.28638 4.99003,-23.41959 13.05165,-31.48121c8.06162,-8.06162 19.19483,-13.05164 31.48121,-13.05164z" stroke-width="1"/><path d="M306.93424,178.7534c12.28638,0 23.4196,4.99002 31.48122,13.05164c8.06162,8.06162 13.05164,19.19483 13.05164,31.48121c0,12.28638 -4.99002,23.41959 -13.05164,31.48121c-8.06162,8.06162 -19.19484,13.05165 -31.48122,13.05165c-12.28638,0 -23.41959,-4.99003 -31.48121,-13.05165c-8.06162,-8.06162 -13.05165,-19.19483 -13.05165,-31.48121c0,-12.28638 4.99003,-23.41959 13.05165,-31.48121c8.06162,-8.06162 19.19483,-13.05164 31.48121,-13.05164z" stroke-width="1"/><path d="M367.87393,178.7534c12.28638,0 23.4196,4.99002 31.48122,13.05164c8.06162,8.06162 13.05164,19.19483 13.05164,31.48121c0,12.28638 -4.99002,23.41959 -13.05164,31.48121c-8.06162,8.06162 -19.19484,13.05165 -31.48122,13.05165c-12.28638,0 -23.41959,-4.99003 -31.48121,-13.05165c-8.06162,-8.06162 -13.05165,-19.19483 -13.05165,-31.48121c0,-12.28638 4.99003,-23.41959 13.05165,-31.48121c8.06162,-8.06162 19.19483,-13.05164 31.48121,-13.05164z" stroke-width="1"/><path d="M428.81364,181.09722c12.28638,0 23.41959,4.99002 31.48121,13.05164c8.06162,8.06162 13.05165,19.19483 13.05165,31.48121c0,12.28638 -4.99003,23.41959 -13.05165,31.48121c-8.06162,8.06162 -19.19483,13.05165 -31.48121,13.05165c-12.28638,0 -23.41959,-4.99003 -31.48121,-13.05165c-8.06162,-8.06162 -13.05164,-19.19483 -13.05164,-31.48121c0,-12.28638 4.99002,-23.41959 13.05164,-31.48121c8.06162,-8.06162 19.19483,-13.05164 31.48121,-13.05164z" stroke-width="1"/><path d="M490.92525,182.26914c12.28638,0 23.4196,4.99003 31.48122,13.05165c8.06162,8.06162 13.05164,19.19483 13.05164,31.48121c0,12.28638 -4.99002,23.4196 -13.05164,31.48122c-8.06162,8.06162 -19.19484,13.05164 -31.48122,13.05164c-12.28638,0 -23.41959,-4.99002 -31.48121,-13.05164c-8.06162,-8.06162 -13.05165,-19.19484 -13.05165,-31.48122c0,-12.28638 4.99003,-23.41959 13.05165,-31.48121c8.06162,-8.06162 19.19483,-13.05165 31.48121,-13.05165z" stroke-width="1"/><path d="M544.83345,181.09722c9.32912,0 17.99339,2.87697 25.15297,7.79109c-0.16182,22.86007 -0.95221,45.87289 0.03193,68.66471c0.06738,1.56042 0.11755,3.12309 0.15912,4.68697c-7.19625,4.99448 -15.93175,7.92295 -25.34402,7.92295c-12.28638,0 -23.4196,-4.99003 -31.48122,-13.05165c-8.06162,-8.06162 -13.05164,-19.19483 -13.05164,-31.48121c0,-12.28638 4.99002,-23.41959 13.05164,-31.48121c8.06162,-8.06162 19.19484,-13.05164 31.48122,-13.05164z" stroke-width="1"/><path d="M3.40238,409.09498l-12,-187.33484l578.03603,1v186.33484z" stroke-width="0"/></g><g fill="#4fa7ff" stroke-linecap="butt"><path d="M31.53369,276.02252c12.28638,0 23.4196,4.99002 31.48122,13.05164c8.06162,8.06162 13.05164,19.19483 13.05164,31.48121c0,12.28638 -4.99002,23.41959 -13.05164,31.48121c-8.06162,8.06162 -19.19484,13.05165 -31.48122,13.05165c-12.28638,0 -23.41959,-4.99003 -31.48121,-13.05165c-8.06162,-8.06162 -13.05165,-19.19483 -13.05165,-31.48121c0,-12.28638 4.99003,-23.41959 13.05165,-31.48121c8.06162,-8.06162 19.19483,-13.05164 31.48121,-13.05164z" stroke-width="1"/><path d="M112.39599,277.19444c12.28638,0 23.41959,4.99003 31.48121,13.05165c8.06162,8.06162 13.05165,19.19483 13.05165,31.48121c0,12.28638 -4.99003,23.4196 -13.05165,31.48122c-8.06162,8.06162 -19.19483,13.05164 -31.48121,13.05164c-12.28638,0 -23.41959,-4.99002 -31.48121,-13.05164c-8.06162,-8.06162 -13.05164,-19.19484 -13.05164,-31.48122c0,-12.28638 4.99002,-23.41959 13.05164,-31.48121c8.06162,-8.06162 19.19483,-13.05165 31.48121,-13.05165z" stroke-width="1"/><path d="M185.05481,277.19444c12.28638,0 23.41959,4.99003 31.48121,13.05165c8.06162,8.06162 13.05164,19.19483 13.05164,31.48121c0,12.28638 -4.99002,23.4196 -13.05164,31.48122c-8.06162,8.06162 -19.19483,13.05164 -31.48121,13.05164c-12.28638,0 -23.41959,-4.99002 -31.48121,-13.05164c-8.06162,-8.06162 -13.05165,-19.19484 -13.05165,-31.48122c0,-12.28638 4.99003,-23.41959 13.05165,-31.48121c8.06162,-8.06162 19.19483,-13.05165 31.48121,-13.05165z" stroke-width="1"/><path d="M254.19797,278.36636c12.28638,0 23.41959,4.99002 31.48121,13.05164c8.06162,8.06162 13.05164,19.19484 13.05164,31.48122c0,12.28638 -4.99002,23.41959 -13.05164,31.48121c-8.06162,8.06162 -19.19483,13.05164 -31.48121,13.05164c-12.28638,0 -23.4196,-4.99002 -31.48122,-13.05164c-8.06162,-8.06162 -13.05164,-19.19483 -13.05164,-31.48121c0,-12.28638 4.99002,-23.4196 13.05164,-31.48122c8.06162,-8.06162 19.19484,-13.05164 31.48122,-13.05164z" stroke-width="1"/><path d="M326.85684,279.53828c12.28638,0 23.41959,4.99002 31.48121,13.05164c8.06162,8.06162 13.05165,19.19483 13.05165,31.48121c0,12.28638 -4.99003,23.4196 -13.05165,31.48122c-8.06162,8.06162 -19.19483,13.05164 -31.48121,13.05164c-12.28638,0 -23.4196,-4.99002 -31.48122,-13.05164c-8.06162,-8.06162 -13.05164,-19.19484 -13.05164,-31.48122c0,-12.28638 4.99002,-23.41959 13.05164,-31.48121c8.06162,-8.06162 19.19484,-13.05164 31.48122,-13.05164z" stroke-width="1"/><path d="M387.79654,279.53828c12.28638,0 23.4196,4.99002 31.48122,13.05164c8.06162,8.06162 13.05164,19.19483 13.05164,31.48121c0,12.28638 -4.99002,23.4196 -13.05164,31.48122c-8.06162,8.06162 -19.19484,13.05164 -31.48122,13.05164c-12.28638,0 -23.41959,-4.99002 -31.48121,-13.05164c-8.06162,-8.06162 -13.05164,-19.19484 -13.05164,-31.48122c0,-12.28638 4.99002,-23.41959 13.05164,-31.48121c8.06162,-8.06162 19.19483,-13.05164 31.48121,-13.05164z" stroke-width="1"/><path d="M448.73623,281.8821c12.28638,0 23.4196,4.99003 31.48122,13.05165c8.06162,8.06162 13.05164,19.19483 13.05164,31.48121c0,12.28638 -4.99002,23.41959 -13.05164,31.48121c-8.06162,8.06162 -19.19484,13.05164 -31.48122,13.05164c-12.28638,0 -23.41959,-4.99002 -31.48121,-13.05164c-8.06162,-8.06162 -13.05165,-19.19483 -13.05165,-31.48121c0,-12.28638 4.99003,-23.41959 13.05165,-31.48121c8.06162,-8.06162 19.19483,-13.05165 31.48121,-13.05165z" stroke-width="1"/><path d="M510.84785,283.05402c12.28638,0 23.41959,4.99002 31.48121,13.05164c8.06162,8.06162 13.05165,19.19484 13.05165,31.48122c0,12.28638 -4.99003,23.41959 -13.05165,31.48121c-8.06162,8.06162 -19.19483,13.05165 -31.48121,13.05165c-12.28638,0 -23.4196,-4.99003 -31.48122,-13.05165c-8.06162,-8.06162 -13.05164,-19.19483 -13.05164,-31.48121c0,-12.28638 4.99002,-23.4196 13.05164,-31.48122c8.06162,-8.06162 19.19484,-13.05164 31.48122,-13.05164z" stroke-width="1"/><path d="M564.75604,281.8821c1.78046,0 3.53671,0.10479 5.2629,0.30853c-0.01067,7.91616 -0.00512,15.88905 -0.00512,19.0281c0,21.99156 0,46.92617 0,69.42115c-1.72455,0.20335 -3.47908,0.30793 -5.25779,0.30793c-12.28638,0 -23.41959,-4.99002 -31.48121,-13.05164c-8.06162,-8.06162 -13.05165,-19.19483 -13.05165,-31.48121c0,-12.28638 4.99003,-23.41959 13.05165,-31.48121c8.06162,-8.06162 19.19483,-13.05165 31.48121,-13.05165z" stroke-width="1"/><path d="M-13.00445,406.75115v-82.0342h580.09903v82.0342z" stroke-width="0"/></g><path d="M518.1437,12.85872l5.38589,16.77027l18.14008,1.4788l-13.24126,7.74079l10.68281,12.65417l-17.94109,-8.14661l-15.49834,11.76013l7.06706,-15.68618l-16.2755,-4.90999l18.43701,-4.69875z" fill="url(#color-7)" stroke-width="0" stroke-linecap="round"/></g></g></svg>