<svg version="1.1" xmlns="http://www.w3.org/2000/svg" xmlns:xlink="http://www.w3.org/1999/xlink" width="483" height="365" viewBox="0,0,483,365"><g transform="translate(1.5,2.5)"><g data-paper-data="{&quot;isPaintingLayer&quot;:true}" fill-rule="nonzero" stroke-linejoin="miter" stroke-miterlimit="10" stroke-dasharray="" stroke-dashoffset="0" style="mix-blend-mode: normal"><path d="M-1.5,362.5v-365h483v365z" fill-opacity="0.84706" fill="#d5d8e0" stroke="none" stroke-width="0" stroke-linecap="butt"/><path d="M240.45142,179.02007l29.36755,-5.485l-13.4931,-8.64785l31.25467,-13.92765l-26.31719,-7.03032l36.95735,-30.10774l-47.58382,10.5765l5.06831,-19.45559l-25.92537,19.14442l-5.97436,-18.93344l-11.51414,19.86598z" data-paper-data="{&quot;index&quot;:null}" fill="#ffc30d" stroke="#000000" stroke-width="2.5" stroke-linecap="round"/><path d="M238.26297,184.82675c-3.96987,-0.96698 -12.503,-4.78699 -12.503,-4.78699c0,0 -5.23079,8.70954 -7.66577,11.74314c-5.57719,6.94831 -11.11573,9.48312 -12.01189,8.81902c-1.1106,-0.82297 -3.17887,-8.43409 -4.21536,-16.18492c-0.82885,-6.19813 -1.05045,-10.89081 -1.05045,-10.89081c-4.5994,-1.6156 -7.98725,-1.91681 -11.69627,-3.43953c-7.58947,-3.1158 -12.37702,-8.85663 -12.34073,-10.43459c0.04965,-2.15983 9.26205,-7.4558 23.0755,-12.48049l0.77755,-0.61974c0.24584,-15.16046 2.68219,-26.81967 4.92129,-27.55992c2.08917,-0.64992 11.06014,7.14859 20.39588,19.04559l0.85428,0.25165c14.2539,-4.22438 25.01826,-5.51406 26.37704,-3.89557c0.80954,0.96425 0.35156,8.96728 -4.74945,17.02245c-1.79699,2.83768 -4.47985,4.93226 -6.65037,8.14771c0,0 3.07337,4.29736 6.43739,10.36405c3.79541,6.84472 6.31463,13.76368 5.55506,14.90732c-0.65158,0.98104 -7.24384,2.00533 -15.51066,-0.00833z" data-paper-data="{&quot;index&quot;:null}" fill="#ffc30d" stroke="#000000" stroke-width="2.5" stroke-linecap="round"/><path d="M222.41869,145.51836c1.0684,-0.39952 2.44304,0.13978 3.26263,1.09445c1.48712,1.7327 2.36607,4.09402 3.04262,6.34721c0.639,2.07499 1.01603,4.31381 0.83962,6.41647c-0.01194,0.15809 -0.02897,0.32088 -0.05176,0.48531c-0.67538,0.12065 -1.3504,0.29073 -2.02078,0.51237c-0.82251,0.27192 -1.60437,0.61032 -2.34159,1.0073c-0.09271,-0.09757 -0.18478,-0.20103 -0.27606,-0.31028c-1.29486,-1.53896 -2.33277,-3.55419 -3.15837,-6.05145c-0.82565,-2.49742 -1.24287,-4.62503 -1.07103,-6.74155c0.11081,-1.39609 0.84056,-2.49726 1.77475,-2.7598z" fill="#000000" stroke="none" stroke-width="2.7674" stroke-linecap="round"/><path d="M208.13766,150.15425c1.0684,-0.39952 2.44305,0.13977 3.26264,1.09444c1.48712,1.7327 2.36611,4.09399 3.04262,6.34721c0.639,2.07499 1.01602,4.31382 0.83963,6.41649c-0.01579,0.20887 -0.0404,0.42603 -0.07557,0.64424c-0.80695,0.12127 -1.61459,0.31248 -2.4156,0.5773c-0.66688,0.22047 -1.30705,0.48465 -1.91834,0.78834c-0.09429,-0.099 -0.18789,-0.20406 -0.28067,-0.31516c-1.29486,-1.53896 -2.33273,-3.55419 -3.15834,-6.05146c-0.82565,-2.49742 -1.24288,-4.62507 -1.07105,-6.74156c0.11081,-1.39609 0.84056,-2.49726 1.77475,-2.7598z" fill="#000000" stroke="none" stroke-width="2.7674" stroke-linecap="round"/><text transform="translate(87.53832,242.21507) scale(0.59645,0.59645)" font-size="40" xml:space="preserve" fill="#000000" fill-rule="nonzero" stroke="none" stroke-width="1" stroke-linecap="butt" stroke-linejoin="miter" stroke-miterlimit="10" stroke-dasharray="" stroke-dashoffset="0" font-family="&quot;Microsoft YaHei&quot;, &quot;微软雅黑&quot;, STXihei, &quot;华文细黑&quot;" font-weight="normal" text-anchor="start" style="mix-blend-mode: normal"><tspan x="0" dy="0">Prankster Comet detected!</tspan></text></g></g></svg>