<svg version="1.1" xmlns="http://www.w3.org/2000/svg" xmlns:xlink="http://www.w3.org/1999/xlink" width="61.40205" height="85.26589" viewBox="0,0,61.40205,85.26589"><g transform="translate(-203.66875,-138.65122)"><g data-paper-data="{&quot;isPaintingLayer&quot;:true}" fill-rule="nonzero" stroke-linejoin="miter" stroke-miterlimit="10" stroke-dasharray="" stroke-dashoffset="0" style="mix-blend-mode: normal"><path d="M224.37436,204.4905c-1.80743,0.30124 -5.52692,-0.67647 -5.52692,-0.67647c0,0 3.70818,-2.11335 5.27738,-3.45838c1.26337,-1.0829 3.42079,-3.9972 3.42079,-3.9972l1.95265,5.68044c0,0 -3.38361,2.16156 -5.1239,2.45161z" fill="#d2a31f" stroke="#000000" stroke-width="0" stroke-linecap="round"/><g data-paper-data="{&quot;index&quot;:null}"><path d="M244.04658,179.48305c2.00386,0.25813 3.62527,4.8716 3.62527,4.8716l4.12363,4.98867l1.46279,-0.72769l1.89475,0.23377l2.52222,1.75569l2.45293,3.01287l-0.01015,1.35742l-1.34451,0.92822l-0.67086,1.61204l-2.08744,1.5016l-0.98965,1.52979l-1.89983,0.44492l-1.93083,-0.75308l-2.66128,-4.51169l-0.12614,-1.81761l-3.28904,-4.37853l-2.36497,-4.96987c0,0 -0.71073,-5.33626 1.29313,-5.07814z" data-paper-data="{&quot;origPos&quot;:null}" fill="#d2a31f" stroke="#000000" stroke-width="0" stroke-linecap="round"/><path d="M256.08617,198.73742c-0.38252,0.62811 -1.00987,0.28266 -1.00987,0.28266l-0.06221,-0.13713c-0.70006,-0.16163 -1.13,-0.40478 -1.67451,-0.82908c0,0 -0.56143,-0.43752 -0.08741,-1.00535c0.47402,-0.56786 1.03545,-0.13035 1.03545,-0.13035c0.45031,0.35092 0.6112,0.45021 1.12488,0.56879l0.42885,0.27688c0,0 0.62735,0.34546 0.24482,0.97357z" data-paper-data="{&quot;origPos&quot;:null}" fill="#996c1c" stroke="none" stroke-width="0.5" stroke-linecap="butt"/><path d="M258.34517,195.92299c-0.38924,0.61675 -1.00468,0.2915 -1.00468,0.2915l-0.05931,-0.13221c-0.69048,-0.14541 -1.11214,-0.37451 -1.64423,-0.77775c0,0 -0.54862,-0.41578 -0.06979,-0.97548c0.4788,-0.5597 1.02744,-0.14392 1.02744,-0.14392c0.44003,0.33349 0.59767,0.42729 1.10436,0.53399l0.42002,0.26189c0,0 0.61542,0.32524 0.22616,0.94198z" data-paper-data="{&quot;origPos&quot;:null}" fill="#996c1c" stroke="none" stroke-width="0.5" stroke-linecap="butt"/></g><g data-paper-data="{&quot;index&quot;:null}" stroke-linecap="butt"><g fill="#bba983" stroke="none" stroke-width="0"><path d="M247.77078,219.59722c-0.23977,2.41128 -4.07557,2.56421 -7.78652,2.19521c-1.62939,-0.16202 -3.04423,-0.14337 -4.03885,-0.87535c-1.27064,-0.9351 -1.88905,-2.75733 -1.75458,-4.10987c0.1009,-1.01464 0.76467,-2.43155 1.68431,-3.08879c1.26587,-0.90467 3.06404,-0.84824 4.97738,-0.65799c3.30332,0.32846 7.15805,4.12554 6.91829,6.53681z"/><path d="M241.82499,216.35597c0.01597,-3.46064 3.31636,-6.2428 7.37163,-6.21415c4.05527,0.02865 7.32978,2.85731 7.31378,6.31794c-0.01598,3.46064 -3.31637,6.24282 -7.37162,6.21416c-4.05527,-0.02865 -7.32977,-2.85732 -7.3138,-6.31796z"/></g><g><path d="M248.04167,217.75832c-0.24757,2.4898 -4.2083,2.6477 -8.04011,2.26669c-1.68246,-0.16729 -3.14337,-0.14805 -4.17037,-0.90386c-1.312,-0.96555 -1.95059,-2.84714 -1.81173,-4.24372c0.10417,-1.04768 0.78959,-2.51076 1.73915,-3.18939c1.30709,-0.93412 3.16383,-0.87585 5.13945,-0.67941c3.41091,0.33915 7.39117,4.25988 7.1436,6.74968z" fill="#2b9638" stroke="none" stroke-width="0"/><path d="M245.42479,210.43669c-0.12631,1.2703 -2.37067,2.08712 -5.01289,1.82439c-2.64223,-0.26272 -4.6818,-1.50549 -4.55549,-2.7758c0.12631,-1.2703 2.37066,-2.08712 5.0129,-1.8244c2.64223,0.26272 4.68179,1.50551 4.55549,2.77582z" fill="#1c6225" stroke="#2b9638" stroke-width="1.5"/><path d="M241.90223,214.41152c0.0165,-3.57336 3.42436,-6.44614 7.61169,-6.41652c4.18733,0.02961 7.56848,2.95037 7.55197,6.52371c-0.01649,3.57336 -3.42437,6.44613 -7.61169,6.41652c-4.18734,-0.02961 -7.56846,-2.95035 -7.55198,-6.52371z" fill="#2b9638" stroke="none" stroke-width="0"/></g><path d="M237.23316,210.56697l1.50775,-15.16343l6.22074,0.61855l-1.44643,14.54677c0,0 -0.6652,1.12087 -3.05422,0.98324c-1.8392,-0.14154 -3.22783,-0.98514 -3.22783,-0.98514z" fill="#fcdc48" stroke="none" stroke-width="0"/></g><g data-paper-data="{&quot;index&quot;:null}" stroke-linecap="butt"><g fill="#bba983" stroke="none" stroke-width="0"><path d="M227.96004,218.70669c-1.73728,1.68927 -4.76887,-0.66582 -7.36865,-3.33948c-1.1415,-1.17395 -2.23536,-2.07149 -2.52416,-3.27217c-0.36895,-1.53388 0.3325,-3.32581 1.30696,-4.27335c0.73103,-0.71082 2.15172,-1.3665 3.27847,-1.27636c1.55095,0.12403 2.88956,1.32602 4.22997,2.70455c2.31418,2.37998 2.81466,7.76757 1.07738,9.45684z"/><path d="M225.50245,212.39651c2.24242,-2.63587 6.55901,-2.6363 9.64139,-0.00097c3.08237,2.63532 3.76328,6.9085 1.52086,9.54438c-2.24242,2.63587 -6.55902,2.63631 -9.64141,0.00098c-3.08237,-2.63532 -3.76328,-6.90852 -1.52085,-9.54438z"/></g><g><path d="M229.35222,217.47512c-1.79385,1.74427 -4.92417,-0.6875 -7.60861,-3.44823c-1.17868,-1.21219 -2.30815,-2.13895 -2.60636,-3.37874c-0.38096,-1.58383 0.34334,-3.43411 1.34955,-4.4125c0.75484,-0.73397 2.2218,-1.411 3.38524,-1.31794c1.60146,0.12808 2.98366,1.36922 4.36771,2.79261c2.38957,2.45749 2.90633,8.02054 1.11248,9.76482z" fill="#36c651" stroke="none" stroke-width="0"/><path d="M232.06966,210.19022c-0.91524,0.88993 -3.15776,0.06814 -5.00882,-1.83555c-1.85107,-1.90369 -2.6097,-4.16838 -1.69446,-5.0583c0.91524,-0.88993 3.15776,-0.06814 5.00882,1.83556c1.85107,1.90369 2.60971,4.16837 1.69447,5.05829z" fill="#1c6225" stroke="#36c651" stroke-width="1.5"/><path d="M226.81459,210.95943c2.31547,-2.72171 6.77264,-2.72218 9.95539,-0.001c3.18276,2.72117 3.88584,7.13349 1.57039,9.85521c-2.31545,2.72173 -6.77263,2.72217 -9.95538,0.00101c-3.18276,-2.72117 -3.88584,-7.13349 -1.57038,-9.85521z" fill="#36c651" stroke="none" stroke-width="0"/></g><path d="M236.64703,194.38779l4.35804,4.48193l-10.48069,10.19097c0,0 -1.00865,0.52642 -2.86853,-1.22403c-1.73807,-1.82097 -1.8481,-2.91879 -1.8481,-2.91879z" fill="#fcdc48" stroke="none" stroke-width="0"/></g><g><path d="M226.13799,189.14003c1.34951,-8.14049 7.85331,-13.84282 14.52661,-12.73652c6.67331,1.1063 10.39461,8.70071 9.0646,16.84443c-1.9334,11.83844 -7.27836,13.74122 -13.95166,12.63491c-6.67331,-1.1063 -10.98907,-8.6023 -9.63954,-16.7428z" fill="#fcdda0" stroke="#00beff" stroke-width="0" stroke-linecap="butt"/><path d="M249.11927,186.54456c0,0 -3.82582,1.08557 -6.32144,0.6159c-2.81642,-0.53005 -9.73129,-3.63698 -9.73129,-3.63698" fill="none" stroke="#c5ab79" stroke-width="2" stroke-linecap="round"/><path d="M247.79628,177.35832c-0.2839,1.9347 -3.20272,3.10852 -6.51934,2.62182c-3.31661,-0.48671 -5.7751,-2.44963 -5.4912,-4.38434c0.2839,-1.9347 3.20272,-3.10852 6.51934,-2.62182c3.31661,0.48671 5.7751,2.44962 5.4912,4.38433z" fill="#a28650" stroke="#fcdda0" stroke-width="4.5" stroke-linecap="butt"/><path d="M248.93402,193.97575c0,0 -4.90462,0.9335 -7.11663,0.51721c-2.93286,-0.55196 -8.9361,-3.53828 -8.9361,-3.53828" fill="none" stroke="#c5ab79" stroke-width="2" stroke-linecap="round"/><path d="M238.61427,176.78159l1.05417,-5.26167l5.20271,0.92296l-1.05417,5.26167c0,0 -1.64619,0.06625 -2.45679,-0.07754c-0.91172,-0.16173 -2.74593,-0.84542 -2.74593,-0.84542z" fill="#d2a31f" stroke="none" stroke-width="0" stroke-linecap="butt"/><path d="M230.27705,184.72544c-0.20596,-3.21814 1.58369,-5.95216 3.99728,-6.10663c2.4136,-0.15447 4.53717,2.3291 4.74313,5.54724c0.20596,3.21813 -1.58368,5.95216 -3.99728,6.10664c-2.4136,0.15446 -4.53717,-2.32912 -4.74313,-5.54726z" fill="#a28650" stroke="none" stroke-width="NaN" stroke-linecap="butt"/><path d="M246.40581,201.38659c0,0 -3.80564,1.31943 -6.46432,0.81908c-2.69182,-0.5066 -9.90784,-3.7837 -9.90784,-3.7837" fill="none" stroke="#c5ab79" stroke-width="2" stroke-linecap="round"/><path d="M233.55508,188.55746c-1.31155,7.33067 -2.63288,12.6316 -7.35,11.78765c-4.71712,-0.84395 -7.4779,-7.47079 -6.16635,-14.80146c1.31155,-7.33066 7.82738,-12.5941 12.54451,-11.75016c4.71712,0.84395 2.28341,7.43329 0.97185,14.76395z" fill="#3ddf5b" stroke="#000000" stroke-width="0" stroke-linecap="butt"/><g fill="none" stroke="#2b9638" stroke-width="1.5" stroke-linecap="round"><path d="M223.1627,178.5211l1.97741,3.6071l-2.51178,8.91627l-2.16991,1.28661" data-paper-data="{&quot;origPos&quot;:null}"/><path d="M226.57754,195.16035l-3.74406,-3.99361l2.27666,-9.09226l4.08173,-0.12978" data-paper-data="{&quot;origPos&quot;:null}"/></g><path d="M233.51425,188.47024c-1.23539,6.90505 -1.27606,14.72587 -5.07197,15.07417c-0.39167,0.03593 -3.01182,-1.45574 -3.26831,-2.7835c-0.25648,-1.32775 0.53149,-2.30866 1.67408,-5.46964c0.76118,-2.10584 0.74482,-4.80797 1.28973,-7.85369c0.80367,-4.49201 0.42852,-5.75372 1.68775,-9.16614c1.25923,-3.41243 2.07074,-4.85493 3.39857,-4.61737c4.71712,0.84395 6.17984,1.39094 4.63767,3.08804c-0.64972,0.71501 -2.04143,1.90664 -2.63772,3.44731c-1.37762,3.55946 -1.70981,8.28081 -1.70981,8.28081z" fill="#ffffff" stroke="none" stroke-width="0" stroke-linecap="butt"/></g><g><g stroke-width="0"><path d="M260.03506,160.69098c0.51778,8.09003 -5.72946,15.07498 -13.95357,15.60133c-8.22411,0.52634 -15.31081,-5.60522 -15.82859,-13.69524c-0.51777,-8.09003 5.72947,-15.07497 13.95358,-15.60131c8.22412,-0.52634 15.3108,5.60521 15.82857,13.69523z" fill="#fcdc48" stroke="none" stroke-linecap="butt"/><path d="M245.76005,146.4974c0.37828,5.91063 -2.29792,7.58246 -5.7172,7.8013c-3.41926,0.21883 -6.279,-0.97681 -6.66505,-7.00883c-0.26175,-4.0897 2.58119,-7.6006 6.85021,-7.87382c4.14763,-0.26544 5.27029,2.99165 5.53204,7.08136z" fill="#ffdd32" stroke="#ff0000" stroke-linecap="butt"/><path d="M253.81914,145.63427c0.37828,5.91063 -0.67933,7.47888 -4.09859,7.69772c-1.71089,0.1095 -8.09077,-3.89144 -8.28364,-6.90525c-0.26175,-4.0897 0.80072,-7.48665 5.06976,-7.75987c4.14763,-0.26544 7.05075,2.87769 7.31249,6.9674z" fill="#ffdd32" stroke="#ff0000" stroke-linecap="butt"/><path d="M240.86489,160.80753c0.36901,5.76582 -2.5066,10.29077 -6.39518,10.53964c-3.88858,0.24887 -7.39618,-5.1008 -7.7652,-10.86662c-0.36901,-5.76582 2.5403,-9.76438 6.42888,-10.01325c3.88858,-0.24887 7.36248,4.57441 7.7315,10.34023z" fill="#fcdc48" stroke="#d2a31f" stroke-linecap="butt"/><path d="M246.45211,147.48836c0.11585,3.51986 -2.07317,5.62013 -4.82545,5.68939c-2.75227,0.06926 -5.02557,-1.91874 -5.14141,-5.4386c-0.11585,-3.51986 2.28296,-7.42129 5.03524,-7.49055c2.75227,-0.06926 4.81579,3.7199 4.93165,7.23978z" fill="#ffffff" stroke="none" stroke-linecap="butt"/><path d="M253.61765,146.33981c0.11585,3.51986 -2.07318,5.62011 -4.82546,5.68938c-2.75227,0.06926 -5.02556,-1.91873 -5.14141,-5.43859c-0.11585,-3.51986 1.64587,-7.218 4.39814,-7.28726c2.75227,-0.06926 5.45287,3.51661 5.56872,7.03648z" fill="#ffffff" stroke="none" stroke-linecap="butt"/><path d="M244.9444,147.29916c0.09566,1.9778 -0.44708,3.63368 -1.21224,3.69848c-0.76516,0.06481 -1.46299,-1.48601 -1.55865,-3.46381c-0.09566,-1.9778 0.4471,-3.63368 1.21224,-3.69847c0.76516,-0.06481 1.46299,1.486 1.55865,3.46381z" fill="#000000" stroke="none" stroke-linecap="butt"/><path d="M250.70246,146.47421c0.09566,1.9778 -0.44708,3.63367 -1.21224,3.69846c-0.76516,0.06481 -1.46299,-1.486 -1.55865,-3.46381c-0.09566,-1.9778 0.44709,-3.63368 1.21224,-3.69848c0.76516,-0.06481 1.46298,1.48602 1.55864,3.46382z" fill="#000000" stroke="none" stroke-linecap="butt"/><path d="M240.35819,169.57394l2.67373,-3.93235l15.62175,2.48283l-2.39424,3.15461c0,0 -5.74317,-1.16347 -8.37264,-1.24403c-2.76115,-0.08461 -7.75281,0.38912 -7.75281,0.38912z" fill="#d2a31f" stroke="#d2a31f" stroke-linecap="round"/></g><g stroke-linecap="round"><path d="M247.13181,152.74122c0,0 6.45702,-3.93554 10.71814,-1.66109c13.79179,7.36157 3.58655,23.82377 3.58655,23.82377c0,0 -5.54397,-4.53638 -9.12749,-5.68572c-3.29136,-1.05564 -10.71621,-1.00786 -10.71621,-1.00786" fill="#fcdc48" stroke="#d2a31f" stroke-width="0"/><path d="M251.29193,154.66839c0,0 1.20799,0.80138 1.72799,1.28512c0.51522,0.47929 1.3778,1.60405 1.3778,1.60405" fill="none" stroke="#996c1c" stroke-width="1.5"/><path d="M259.41641,157.25072l1.1486,-2.97927" data-paper-data="{&quot;index&quot;:null}" fill="none" stroke="#996c1c" stroke-width="1.5"/><path d="M237.26863,156.24216c0,0 3.98879,0.68482 4.37271,6.992c0.42355,6.95833 -3.02347,8.17258 -3.02347,8.17258" fill="none" stroke="#d2a31f" stroke-width="2"/></g></g><g data-paper-data="{&quot;origRot&quot;:0}" stroke-linecap="round"><path d="M223.22152,186.08094c-0.9022,-0.04446 -3.37329,0.30624 -7.82249,-0.97889c-4.44917,-1.28515 -6.46849,-2.15029 -7.69675,-3.37208c-1.22825,-1.2218 -2.62642,-5.40795 -2.86954,-6.54965c-0.24313,-1.14167 -0.78949,-3.46348 -1.03674,-5.71787c-0.24724,-2.2544 -0.10118,-1.41982 0.15636,-2.30927c0.25754,-0.88945 0.38406,-0.75533 0.82509,-1.08005c0.44104,-0.32472 0.48141,-0.17363 0.81666,-0.1287c0.33525,0.04492 0.87476,0.14371 1.3555,0.4198c0.48075,0.27604 0.57095,0.43542 0.80824,0.82268c0.25769,0.42053 0.53161,1.36394 0.53161,1.36394c0,0 0.75502,-1.69191 1.38318,-2.7062c0.62816,-1.01427 1.44367,-1.05176 1.77565,-0.97754c0.33199,0.07421 1.08568,0.06307 1.36595,0.41986c0.28027,0.3568 0.46145,0.79394 0.62496,1.44838c0.16351,0.65446 0.6703,2.23296 0.6703,2.23296c0,0 0.35777,-0.91532 0.73582,-1.62454c0.37808,-0.70924 1.09861,-1.41208 1.53794,-1.29333c0.43935,0.11879 1.18705,0.00081 1.84576,0.54956c0.65871,0.54874 0.67876,0.93836 0.93693,1.63936c0.25817,0.70102 0.54897,2.08004 0.92127,3.40618c0.37231,1.32613 1.5695,3.4073 2.48383,5.23929c0.91433,1.832 1.8945,1.98341 2.34034,2.55096c0.44586,0.56754 0.55702,0.95094 0.6651,1.63695c0.10809,0.68599 -0.04704,0.99551 -0.15036,1.62972c-0.10333,0.6342 -0.00943,1.26298 -0.42458,1.89916c-0.41513,0.63616 -0.87788,1.52382 -1.78009,1.47937z" data-paper-data="{&quot;origPos&quot;:null}" fill="#ffffff" stroke="#000000" stroke-width="0"/><path d="M214.10829,180.36269c-0.57416,0.05546 -1.4411,-1.78492 -2.04586,-2.747c-0.60477,-0.96209 -0.6139,-2.51756 -1.00336,-3.58466" data-paper-data="{&quot;origPos&quot;:null}" fill="none" stroke="#e5e5e5" stroke-width="1"/><path d="M217.33393,179.16797c-0.57417,0.05544 -1.4411,-1.78492 -2.04586,-2.747c-0.60477,-0.96209 -0.61392,-2.51754 -1.00336,-3.58466" data-paper-data="{&quot;origPos&quot;:null}" fill="none" stroke="#e6e6e6" stroke-width="1"/><path d="M220.62061,178.16199c-0.57417,0.05544 -1.4411,-1.78492 -2.04586,-2.747c-0.60477,-0.96209 -0.6139,-2.51756 -1.00336,-3.58466" data-paper-data="{&quot;origPos&quot;:null}" fill="none" stroke="#e4e4e4" stroke-width="1"/></g><g><path d="M235.64121,179.94384c1.31237,1.53617 -0.58175,6.04455 -0.58175,6.04455l-0.2908,6.46582l1.5728,0.44219l1.24782,1.4449l0.69164,2.99427l-0.20346,3.87981l-0.91851,0.99953l-1.6197,-0.21417l-1.5792,0.74488l-2.55528,-0.28765l-1.76036,0.46995l-1.70705,-0.94513l-0.92605,-1.85408l1.05483,-5.13077l1.12628,-1.43216l0.50007,-5.45336l1.582,-5.27161c0,0 3.05428,-4.43307 4.36664,-2.89691z" data-paper-data="{&quot;origPos&quot;:null}" fill="#fcdc48" stroke="#000000" stroke-width="0" stroke-linecap="round"/><path d="M231.64521,202.29814c-0.70511,0.20893 -0.93837,-0.46819 -0.93837,-0.46819l0.0459,-0.14342c-0.41053,-0.58964 -0.56609,-1.05844 -0.68502,-1.73843c0,0 -0.1226,-0.70111 0.60991,-0.804c0.73252,-0.10286 0.85513,0.59826 0.85513,0.59826c0.09834,0.56236 0.15097,0.74395 0.45222,1.17661l0.13211,0.49307c0,0 0.23326,0.67713 -0.47187,0.88607z" data-paper-data="{&quot;origPos&quot;:null}" fill="#d2a31f" stroke="none" stroke-width="0.5" stroke-linecap="butt"/><path d="M235.20879,201.72766c-0.70247,0.19602 -0.94047,-0.45815 -0.94047,-0.45815l0.04475,-0.13781c-0.41431,-0.5712 -0.57316,-1.02403 -0.69701,-1.68004c0,0 -0.12771,-0.67642 0.60289,-0.77004c0.7306,-0.09361 0.85829,0.58281 0.85829,0.58281c0.10241,0.54256 0.15635,0.71787 0.46037,1.13701l0.13562,0.47607c0,0 0.23799,0.65413 -0.4645,0.85013z" data-paper-data="{&quot;origPos&quot;:null}" fill="#d2a31f" stroke="none" stroke-width="0.5" stroke-linecap="butt"/></g></g></g></svg>