<svg version="1.1" xmlns="http://www.w3.org/2000/svg" xmlns:xlink="http://www.w3.org/1999/xlink" width="130.04376" height="97.41237" viewBox="0,0,130.04376,97.41237"><defs><linearGradient x1="318.70621" y1="181.15316" x2="249.16567" y2="181.15316" gradientUnits="userSpaceOnUse" id="color-1"><stop offset="0" stop-color="#2154ad"/><stop offset="1" stop-color="#308bff"/></linearGradient><radialGradient cx="254.34634" cy="180.00001" r="78.67225" gradientUnits="userSpaceOnUse" id="color-2"><stop offset="0" stop-color="#6fc9ff" stop-opacity="0"/><stop offset="1" stop-color="#6fc9ff"/></radialGradient><linearGradient x1="314.24274" y1="134.46171" x2="314.24274" y2="225.53831" gradientUnits="userSpaceOnUse" id="color-3"><stop offset="0" stop-color="#6fc9ff"/><stop offset="1" stop-color="#4395ff"/></linearGradient></defs><g transform="translate(-188.66245,-131.29382)"><g data-paper-data="{&quot;isPaintingLayer&quot;:true}" fill-rule="nonzero" stroke-linejoin="miter" stroke-miterlimit="10" stroke-dasharray="" stroke-dashoffset="0" style="mix-blend-mode: normal"><path d="M237.85486,211.69821c-21.36247,0 -38.68018,-16.37993 -38.68018,-36.58559c0,-20.20567 17.31771,-36.58559 38.68018,-36.58559c21.36247,0 38.68018,16.37993 38.68018,36.58559c0,20.20567 -17.31771,36.58559 -38.68018,36.58559z" data-paper-data="{&quot;index&quot;:null}" fill="#308bff" stroke="#000000" stroke-width="0" stroke-linecap="butt"/><path d="M231.29182,216.30633c0,0 -2.60015,-5.81397 -0.48311,-7.26695c4.53946,-3.11556 21.84797,-5.16097 21.84797,-5.16097c9.33163,0 16.8964,2.54229 16.8964,7.4009c0,3.80519 -0.45265,5.50444 -3.76331,7.38035c-3.95635,2.24177 -8.58576,2.81334 -13.13309,2.81334c-9.33163,0 -21.36487,-0.30806 -21.36487,-5.16667z" data-paper-data="{&quot;index&quot;:null}" fill="#ffffff" stroke="none" stroke-width="0" stroke-linecap="butt"/><path d="M243.33552,209.01235c2.11704,1.45298 -0.4831,7.26696 -0.4831,7.26696c0,4.85861 -12.03324,5.16667 -21.36487,5.16667c-4.54733,0 -9.17674,-0.57157 -13.13309,-2.81334c-3.31066,-1.87591 -3.76331,-3.57516 -3.76331,-7.38035c0,-4.85861 7.56477,-7.4009 16.8964,-7.4009c0,0 17.30852,2.0454 21.84798,5.16096z" data-paper-data="{&quot;index&quot;:null}" fill="#ffffff" stroke="none" stroke-width="0" stroke-linecap="butt"/><path d="M209.12363,171.72524c6.16966,0 10.33333,5.09323 10.33333,11.03153c0,5.9383 -5.28078,15.5 -11.45045,15.5c-6.16967,0 -15.63964,-6.76891 -15.63964,-12.70721c0,-5.9383 10.58709,-13.82432 16.75676,-13.82432z" data-paper-data="{&quot;index&quot;:null}" fill="#ffffff" stroke="none" stroke-width="0" stroke-linecap="butt"/><path d="M257.40672,152.1699c6.78022,-1.55999 13.60063,3.528 15.23382,11.36435c1.06677,5.11857 3.85154,9.69296 0.63947,13.81853c-1.92945,2.47817 -6.89824,2.49084 -9.95899,3.19506c-6.78022,1.55999 -13.60063,-3.52801 -15.23382,-11.36436c-1.63319,-7.83635 2.5393,-15.45359 9.31952,-17.01358z" data-paper-data="{&quot;origRot&quot;:0,&quot;index&quot;:null}" fill="#000000" stroke="none" stroke-width="0" stroke-linecap="butt"/><path d="M284.63414,188.83335l-33.79279,0.83784l-1.3964,-5.58559l-0.27928,-5.02703l1.3964,-3.90991l33.51351,-1.11712l-4.74775,-16.1982l39.37838,24.57658l-37.42342,22.06306z" data-paper-data="{&quot;index&quot;:null}" fill="url(#color-1)" stroke="#000000" stroke-width="0" stroke-linecap="round"/><path d="M237.27158,154.15189c6.78022,-1.55999 13.60064,3.52801 15.23383,11.36436c1.63319,7.83635 -2.5393,15.45359 -9.31952,17.01358c-6.78022,1.55999 -13.60064,-3.52801 -15.23383,-11.36436c-1.63319,-7.83635 2.5393,-15.45359 9.31952,-17.01358z" data-paper-data="{&quot;origRot&quot;:0,&quot;index&quot;:null}" fill="#000000" stroke="none" stroke-width="0" stroke-linecap="butt"/><path d="M245.03784,167.25327c1.79725,-0.4424 3.68756,0.95946 4.22213,3.13114c0.53457,2.17168 -0.48904,4.29081 -2.28629,4.73321c-1.79725,0.4424 -3.68756,-0.95946 -4.22213,-3.13114c-0.53457,-2.17168 0.48904,-4.29081 2.28629,-4.73321z" data-paper-data="{&quot;origRot&quot;:0,&quot;index&quot;:null}" fill="#ffffff" stroke="none" stroke-width="0" stroke-linecap="butt"/><path d="M254.46084,158.82986c1.79725,-0.44239 3.68757,0.95946 4.22213,3.13114c0.53456,2.17168 -0.48904,4.29081 -2.28629,4.73321c-1.79725,0.44239 -3.68757,-0.95946 -4.22213,-3.13114c-0.53456,-2.17168 0.48904,-4.29081 2.28629,-4.73321z" data-paper-data="{&quot;origRot&quot;:0,&quot;index&quot;:null}" fill="#ffffff" stroke="none" stroke-width="0" stroke-linecap="butt"/><path d="M314.24274,225.53831h-122.4124v-91.0766h122.4124z" data-paper-data="{&quot;origPos&quot;:null,&quot;index&quot;:null}" fill="url(#color-2)" stroke="url(#color-3)" stroke-width="6.33577" stroke-linecap="round"/></g></g></svg>