<svg version="1.1" xmlns="http://www.w3.org/2000/svg" xmlns:xlink="http://www.w3.org/1999/xlink" width="517.95685" height="452.49836" viewBox="0,0,517.95685,452.49836"><defs><linearGradient x1="-4.20631" y1="-8.42707" x2="-4.20631" y2="349.76534" gradientUnits="userSpaceOnUse" id="color-1"><stop offset="0" stop-color="#4b6d96"/><stop offset="1" stop-color="#355428"/></linearGradient><linearGradient x1="70.8991" y1="207.33531" x2="70.8991" y2="235.28353" gradientUnits="userSpaceOnUse" id="color-2"><stop offset="0" stop-color="#70b562"/><stop offset="1" stop-color="#457d49"/></linearGradient><linearGradient x1="82.00822" y1="189.09136" x2="82.00822" y2="217.03955" gradientUnits="userSpaceOnUse" id="color-3"><stop offset="0" stop-color="#70b562"/><stop offset="1" stop-color="#457d49"/></linearGradient><linearGradient x1="107.67412" y1="178.2226" x2="107.67412" y2="206.1708" gradientUnits="userSpaceOnUse" id="color-4"><stop offset="0" stop-color="#70b562"/><stop offset="1" stop-color="#457d49"/></linearGradient><linearGradient x1="113.03714" y1="201.90094" x2="113.03714" y2="229.84915" gradientUnits="userSpaceOnUse" id="color-5"><stop offset="0" stop-color="#70b562"/><stop offset="1" stop-color="#457d49"/></linearGradient><linearGradient x1="95.03271" y1="207.33531" x2="95.03271" y2="235.28353" gradientUnits="userSpaceOnUse" id="color-6"><stop offset="0" stop-color="#70b562"/><stop offset="1" stop-color="#457d49"/></linearGradient><linearGradient x1="136.40459" y1="206.94713" x2="136.40459" y2="234.89536" gradientUnits="userSpaceOnUse" id="color-7"><stop offset="0" stop-color="#70b562"/><stop offset="1" stop-color="#457d49"/></linearGradient><linearGradient x1="137.93687" y1="186.76232" x2="137.93687" y2="214.71051" gradientUnits="userSpaceOnUse" id="color-8"><stop offset="0" stop-color="#70b562"/><stop offset="1" stop-color="#457d49"/></linearGradient><linearGradient x1="160.34666" y1="168.90653" x2="160.34666" y2="196.85473" gradientUnits="userSpaceOnUse" id="color-9"><stop offset="0" stop-color="#70b562"/><stop offset="1" stop-color="#457d49"/></linearGradient><linearGradient x1="180.26645" y1="183.26881" x2="180.26645" y2="211.21701" gradientUnits="userSpaceOnUse" id="color-10"><stop offset="0" stop-color="#70b562"/><stop offset="1" stop-color="#457d49"/></linearGradient><linearGradient x1="161.49587" y1="191.80853" x2="161.49587" y2="219.75674" gradientUnits="userSpaceOnUse" id="color-11"><stop offset="0" stop-color="#70b562"/><stop offset="1" stop-color="#457d49"/></linearGradient><linearGradient x1="230.25748" y1="172.40005" x2="230.25748" y2="200.34827" gradientUnits="userSpaceOnUse" id="color-12"><stop offset="0" stop-color="#70b562"/><stop offset="1" stop-color="#457d49"/></linearGradient><linearGradient x1="175.47803" y1="206.1708" x2="175.47803" y2="234.11903" gradientUnits="userSpaceOnUse" id="color-13"><stop offset="0" stop-color="#70b562"/><stop offset="1" stop-color="#457d49"/></linearGradient><linearGradient x1="204.97467" y1="192.19669" x2="204.97467" y2="220.14489" gradientUnits="userSpaceOnUse" id="color-14"><stop offset="0" stop-color="#70b562"/><stop offset="1" stop-color="#457d49"/></linearGradient><linearGradient x1="233.89669" y1="192.97305" x2="233.89669" y2="220.92123" gradientUnits="userSpaceOnUse" id="color-15"><stop offset="0" stop-color="#70b562"/><stop offset="1" stop-color="#457d49"/></linearGradient><linearGradient x1="225.6606" y1="204.6181" x2="225.6606" y2="232.56632" gradientUnits="userSpaceOnUse" id="color-16"><stop offset="0" stop-color="#70b562"/><stop offset="1" stop-color="#457d49"/></linearGradient><linearGradient x1="203.25084" y1="207.33531" x2="203.25084" y2="235.28353" gradientUnits="userSpaceOnUse" id="color-17"><stop offset="0" stop-color="#70b562"/><stop offset="1" stop-color="#457d49"/></linearGradient><linearGradient x1="158.43129" y1="212.76966" x2="158.43129" y2="240.71791" gradientUnits="userSpaceOnUse" id="color-18"><stop offset="0" stop-color="#70b562"/><stop offset="1" stop-color="#457d49"/></linearGradient><linearGradient x1="114.76097" y1="215.87505" x2="114.76097" y2="243.82325" gradientUnits="userSpaceOnUse" id="color-19"><stop offset="0" stop-color="#70b562"/><stop offset="1" stop-color="#457d49"/></linearGradient><linearGradient x1="237.7274" y1="215.48687" x2="237.7274" y2="243.4351" gradientUnits="userSpaceOnUse" id="color-20"><stop offset="0" stop-color="#70b562"/><stop offset="1" stop-color="#457d49"/></linearGradient><linearGradient x1="249.854" y1="207.33531" x2="249.854" y2="235.28353" gradientUnits="userSpaceOnUse" id="color-21"><stop offset="0" stop-color="#70b562"/><stop offset="1" stop-color="#457d49"/></linearGradient><linearGradient x1="260.96311" y1="189.09135" x2="260.96311" y2="217.03955" gradientUnits="userSpaceOnUse" id="color-22"><stop offset="0" stop-color="#70b562"/><stop offset="1" stop-color="#457d49"/></linearGradient><linearGradient x1="286.62901" y1="178.2226" x2="286.62901" y2="206.1708" gradientUnits="userSpaceOnUse" id="color-23"><stop offset="0" stop-color="#70b562"/><stop offset="1" stop-color="#457d49"/></linearGradient><linearGradient x1="291.99204" y1="201.90094" x2="291.99204" y2="229.84915" gradientUnits="userSpaceOnUse" id="color-24"><stop offset="0" stop-color="#70b562"/><stop offset="1" stop-color="#457d49"/></linearGradient><linearGradient x1="273.9876" y1="207.33531" x2="273.9876" y2="235.28353" gradientUnits="userSpaceOnUse" id="color-25"><stop offset="0" stop-color="#70b562"/><stop offset="1" stop-color="#457d49"/></linearGradient><linearGradient x1="315.35949" y1="206.94713" x2="315.35949" y2="234.89536" gradientUnits="userSpaceOnUse" id="color-26"><stop offset="0" stop-color="#70b562"/><stop offset="1" stop-color="#457d49"/></linearGradient><linearGradient x1="316.89178" y1="186.76232" x2="316.89178" y2="214.71051" gradientUnits="userSpaceOnUse" id="color-27"><stop offset="0" stop-color="#70b562"/><stop offset="1" stop-color="#457d49"/></linearGradient><linearGradient x1="339.30156" y1="168.90653" x2="339.30156" y2="196.85473" gradientUnits="userSpaceOnUse" id="color-28"><stop offset="0" stop-color="#70b562"/><stop offset="1" stop-color="#457d49"/></linearGradient><linearGradient x1="359.22135" y1="183.26881" x2="359.22135" y2="211.21701" gradientUnits="userSpaceOnUse" id="color-29"><stop offset="0" stop-color="#70b562"/><stop offset="1" stop-color="#457d49"/></linearGradient><linearGradient x1="340.45078" y1="191.80853" x2="340.45078" y2="219.75674" gradientUnits="userSpaceOnUse" id="color-30"><stop offset="0" stop-color="#70b562"/><stop offset="1" stop-color="#457d49"/></linearGradient><linearGradient x1="409.21239" y1="172.40005" x2="409.21239" y2="200.34828" gradientUnits="userSpaceOnUse" id="color-31"><stop offset="0" stop-color="#70b562"/><stop offset="1" stop-color="#457d49"/></linearGradient><linearGradient x1="354.43294" y1="206.1708" x2="354.43294" y2="234.11903" gradientUnits="userSpaceOnUse" id="color-32"><stop offset="0" stop-color="#70b562"/><stop offset="1" stop-color="#457d49"/></linearGradient><linearGradient x1="383.92957" y1="192.1967" x2="383.92957" y2="220.14489" gradientUnits="userSpaceOnUse" id="color-33"><stop offset="0" stop-color="#70b562"/><stop offset="1" stop-color="#457d49"/></linearGradient><linearGradient x1="412.85158" y1="192.97305" x2="412.85158" y2="220.92123" gradientUnits="userSpaceOnUse" id="color-34"><stop offset="0" stop-color="#70b562"/><stop offset="1" stop-color="#457d49"/></linearGradient><linearGradient x1="404.61551" y1="204.6181" x2="404.61551" y2="232.56632" gradientUnits="userSpaceOnUse" id="color-35"><stop offset="0" stop-color="#70b562"/><stop offset="1" stop-color="#457d49"/></linearGradient><linearGradient x1="382.20574" y1="207.33531" x2="382.20574" y2="235.28353" gradientUnits="userSpaceOnUse" id="color-36"><stop offset="0" stop-color="#70b562"/><stop offset="1" stop-color="#457d49"/></linearGradient><linearGradient x1="337.38619" y1="212.76966" x2="337.38619" y2="240.71791" gradientUnits="userSpaceOnUse" id="color-37"><stop offset="0" stop-color="#70b562"/><stop offset="1" stop-color="#457d49"/></linearGradient><linearGradient x1="293.71585" y1="215.87505" x2="293.71585" y2="243.82325" gradientUnits="userSpaceOnUse" id="color-38"><stop offset="0" stop-color="#70b562"/><stop offset="1" stop-color="#457d49"/></linearGradient><linearGradient x1="416.68231" y1="215.48687" x2="416.68231" y2="243.4351" gradientUnits="userSpaceOnUse" id="color-39"><stop offset="0" stop-color="#70b562"/><stop offset="1" stop-color="#457d49"/></linearGradient><linearGradient x1="68.83818" y1="250.16597" x2="68.83818" y2="278.1142" gradientUnits="userSpaceOnUse" id="color-40"><stop offset="0" stop-color="#70b562"/><stop offset="1" stop-color="#457d49"/></linearGradient><linearGradient x1="79.94731" y1="231.92201" x2="79.94731" y2="259.87021" gradientUnits="userSpaceOnUse" id="color-41"><stop offset="0" stop-color="#70b562"/><stop offset="1" stop-color="#457d49"/></linearGradient><linearGradient x1="105.61321" y1="221.05325" x2="105.61321" y2="249.00146" gradientUnits="userSpaceOnUse" id="color-42"><stop offset="0" stop-color="#70b562"/><stop offset="1" stop-color="#457d49"/></linearGradient><linearGradient x1="110.97623" y1="244.7316" x2="110.97623" y2="272.67981" gradientUnits="userSpaceOnUse" id="color-43"><stop offset="0" stop-color="#70b562"/><stop offset="1" stop-color="#457d49"/></linearGradient><linearGradient x1="92.97179" y1="250.16597" x2="92.97179" y2="278.1142" gradientUnits="userSpaceOnUse" id="color-44"><stop offset="0" stop-color="#70b562"/><stop offset="1" stop-color="#457d49"/></linearGradient><linearGradient x1="134.34366" y1="249.7778" x2="134.34366" y2="277.72603" gradientUnits="userSpaceOnUse" id="color-45"><stop offset="0" stop-color="#70b562"/><stop offset="1" stop-color="#457d49"/></linearGradient><linearGradient x1="135.87597" y1="229.59298" x2="135.87597" y2="257.54121" gradientUnits="userSpaceOnUse" id="color-46"><stop offset="0" stop-color="#70b562"/><stop offset="1" stop-color="#457d49"/></linearGradient><linearGradient x1="158.28573" y1="211.73716" x2="158.28573" y2="239.68539" gradientUnits="userSpaceOnUse" id="color-47"><stop offset="0" stop-color="#70b562"/><stop offset="1" stop-color="#457d49"/></linearGradient><linearGradient x1="178.20555" y1="226.09944" x2="178.20555" y2="254.04767" gradientUnits="userSpaceOnUse" id="color-48"><stop offset="0" stop-color="#70b562"/><stop offset="1" stop-color="#457d49"/></linearGradient><linearGradient x1="159.43496" y1="234.63919" x2="159.43496" y2="262.58741" gradientUnits="userSpaceOnUse" id="color-49"><stop offset="0" stop-color="#70b562"/><stop offset="1" stop-color="#457d49"/></linearGradient><linearGradient x1="228.19657" y1="215.23069" x2="228.19657" y2="243.17892" gradientUnits="userSpaceOnUse" id="color-50"><stop offset="0" stop-color="#70b562"/><stop offset="1" stop-color="#457d49"/></linearGradient><linearGradient x1="173.41713" y1="249.00146" x2="173.41713" y2="276.94969" gradientUnits="userSpaceOnUse" id="color-51"><stop offset="0" stop-color="#70b562"/><stop offset="1" stop-color="#457d49"/></linearGradient><linearGradient x1="202.91375" y1="235.02736" x2="202.91375" y2="262.97556" gradientUnits="userSpaceOnUse" id="color-52"><stop offset="0" stop-color="#70b562"/><stop offset="1" stop-color="#457d49"/></linearGradient><linearGradient x1="231.83578" y1="235.80371" x2="231.83578" y2="263.75193" gradientUnits="userSpaceOnUse" id="color-53"><stop offset="0" stop-color="#70b562"/><stop offset="1" stop-color="#457d49"/></linearGradient><linearGradient x1="223.5997" y1="247.44875" x2="223.5997" y2="275.397" gradientUnits="userSpaceOnUse" id="color-54"><stop offset="0" stop-color="#70b562"/><stop offset="1" stop-color="#457d49"/></linearGradient><linearGradient x1="201.18993" y1="250.16597" x2="201.18993" y2="278.1142" gradientUnits="userSpaceOnUse" id="color-55"><stop offset="0" stop-color="#70b562"/><stop offset="1" stop-color="#457d49"/></linearGradient><linearGradient x1="156.37038" y1="255.60033" x2="156.37038" y2="283.54857" gradientUnits="userSpaceOnUse" id="color-56"><stop offset="0" stop-color="#70b562"/><stop offset="1" stop-color="#457d49"/></linearGradient><linearGradient x1="112.70006" y1="258.70572" x2="112.70006" y2="286.65394" gradientUnits="userSpaceOnUse" id="color-57"><stop offset="0" stop-color="#70b562"/><stop offset="1" stop-color="#457d49"/></linearGradient><linearGradient x1="235.6665" y1="258.31755" x2="235.6665" y2="286.26576" gradientUnits="userSpaceOnUse" id="color-58"><stop offset="0" stop-color="#70b562"/><stop offset="1" stop-color="#457d49"/></linearGradient><linearGradient x1="247.79309" y1="250.16597" x2="247.79309" y2="278.1142" gradientUnits="userSpaceOnUse" id="color-59"><stop offset="0" stop-color="#70b562"/><stop offset="1" stop-color="#457d49"/></linearGradient><linearGradient x1="258.9022" y1="231.92201" x2="258.9022" y2="259.87021" gradientUnits="userSpaceOnUse" id="color-60"><stop offset="0" stop-color="#70b562"/><stop offset="1" stop-color="#457d49"/></linearGradient><linearGradient x1="284.56811" y1="221.05325" x2="284.56811" y2="249.00146" gradientUnits="userSpaceOnUse" id="color-61"><stop offset="0" stop-color="#70b562"/><stop offset="1" stop-color="#457d49"/></linearGradient><linearGradient x1="289.93113" y1="244.7316" x2="289.93113" y2="272.67981" gradientUnits="userSpaceOnUse" id="color-62"><stop offset="0" stop-color="#70b562"/><stop offset="1" stop-color="#457d49"/></linearGradient><linearGradient x1="271.92668" y1="250.16597" x2="271.92668" y2="278.1142" gradientUnits="userSpaceOnUse" id="color-63"><stop offset="0" stop-color="#70b562"/><stop offset="1" stop-color="#457d49"/></linearGradient><linearGradient x1="313.29857" y1="249.7778" x2="313.29857" y2="277.72603" gradientUnits="userSpaceOnUse" id="color-64"><stop offset="0" stop-color="#70b562"/><stop offset="1" stop-color="#457d49"/></linearGradient><linearGradient x1="314.83086" y1="229.59298" x2="314.83086" y2="257.54121" gradientUnits="userSpaceOnUse" id="color-65"><stop offset="0" stop-color="#70b562"/><stop offset="1" stop-color="#457d49"/></linearGradient><linearGradient x1="337.24064" y1="211.73716" x2="337.24064" y2="239.68539" gradientUnits="userSpaceOnUse" id="color-66"><stop offset="0" stop-color="#70b562"/><stop offset="1" stop-color="#457d49"/></linearGradient><linearGradient x1="357.16045" y1="226.09944" x2="357.16045" y2="254.04767" gradientUnits="userSpaceOnUse" id="color-67"><stop offset="0" stop-color="#70b562"/><stop offset="1" stop-color="#457d49"/></linearGradient><linearGradient x1="338.38986" y1="234.63919" x2="338.38986" y2="262.58741" gradientUnits="userSpaceOnUse" id="color-68"><stop offset="0" stop-color="#70b562"/><stop offset="1" stop-color="#457d49"/></linearGradient><linearGradient x1="407.15148" y1="215.23069" x2="407.15148" y2="243.17894" gradientUnits="userSpaceOnUse" id="color-69"><stop offset="0" stop-color="#70b562"/><stop offset="1" stop-color="#457d49"/></linearGradient><linearGradient x1="352.37203" y1="249.00146" x2="352.37203" y2="276.94969" gradientUnits="userSpaceOnUse" id="color-70"><stop offset="0" stop-color="#70b562"/><stop offset="1" stop-color="#457d49"/></linearGradient><linearGradient x1="381.86865" y1="235.02736" x2="381.86865" y2="262.97556" gradientUnits="userSpaceOnUse" id="color-71"><stop offset="0" stop-color="#70b562"/><stop offset="1" stop-color="#457d49"/></linearGradient><linearGradient x1="410.79067" y1="235.80369" x2="410.79067" y2="263.75193" gradientUnits="userSpaceOnUse" id="color-72"><stop offset="0" stop-color="#70b562"/><stop offset="1" stop-color="#457d49"/></linearGradient><linearGradient x1="402.5546" y1="247.44875" x2="402.5546" y2="275.397" gradientUnits="userSpaceOnUse" id="color-73"><stop offset="0" stop-color="#70b562"/><stop offset="1" stop-color="#457d49"/></linearGradient><linearGradient x1="380.14483" y1="250.16597" x2="380.14483" y2="278.1142" gradientUnits="userSpaceOnUse" id="color-74"><stop offset="0" stop-color="#70b562"/><stop offset="1" stop-color="#457d49"/></linearGradient><linearGradient x1="335.32527" y1="255.60033" x2="335.32527" y2="283.54858" gradientUnits="userSpaceOnUse" id="color-75"><stop offset="0" stop-color="#70b562"/><stop offset="1" stop-color="#457d49"/></linearGradient><linearGradient x1="291.65495" y1="258.70572" x2="291.65495" y2="286.65394" gradientUnits="userSpaceOnUse" id="color-76"><stop offset="0" stop-color="#70b562"/><stop offset="1" stop-color="#457d49"/></linearGradient><linearGradient x1="414.6214" y1="258.31755" x2="414.6214" y2="286.26576" gradientUnits="userSpaceOnUse" id="color-77"><stop offset="0" stop-color="#70b562"/><stop offset="1" stop-color="#457d49"/></linearGradient><linearGradient x1="-1" y1="106" x2="-1" y2="152" gradientUnits="userSpaceOnUse" id="color-78"><stop offset="0" stop-color="#001966"/><stop offset="1" stop-color="#007493"/></linearGradient><linearGradient x1="435.00001" y1="221.9" x2="435.00001" y2="252.9" gradientUnits="userSpaceOnUse" id="color-79"><stop offset="0" stop-color="#007493" stop-opacity="0"/><stop offset="1" stop-color="#007493"/></linearGradient><linearGradient x1="-7.64008" y1="268.89095" x2="-7.64008" y2="424.89095" gradientUnits="userSpaceOnUse" id="color-80"><stop offset="0" stop-color="#000000" stop-opacity="0"/><stop offset="1" stop-color="#000000"/></linearGradient><linearGradient x1="240" y1="81.41584" x2="240" y2="278.58414" gradientUnits="userSpaceOnUse" id="color-81"><stop offset="0" stop-color="#009450"/><stop offset="1" stop-color="#009450" stop-opacity="0"/></linearGradient><linearGradient x1="-17.00001" y1="-26" x2="-17.00001" y2="369.00001" gradientUnits="userSpaceOnUse" id="color-82"><stop offset="0" stop-color="#cfbf74"/><stop offset="1" stop-color="#584430"/></linearGradient><linearGradient x1="111.83266" y1="10.05207" x2="111.83266" y2="77.80006" gradientUnits="userSpaceOnUse" id="color-83"><stop offset="0" stop-color="#8fe3a6"/><stop offset="1" stop-color="#47b54b"/></linearGradient><linearGradient x1="458.82674" y1="156.28448" x2="458.82674" y2="372.25447" gradientUnits="userSpaceOnUse" id="color-84"><stop offset="0" stop-color="#968454"/><stop offset="1" stop-color="#594530"/></linearGradient></defs><g transform="translate(18.53036,27.60741)"><g data-paper-data="{&quot;isPaintingLayer&quot;:true}" fill-rule="nonzero" stroke-linejoin="miter" stroke-miterlimit="10" stroke-dasharray="" stroke-dashoffset="0" style="mix-blend-mode: normal"><path d="M-4.20631,-8.42707h497.60239v358.19242h-497.60239z" fill="url(#color-1)" stroke="none" stroke-width="1" stroke-linecap="butt"/><g stroke="#4a7b50" stroke-width="2" stroke-linecap="butt"><g data-paper-data="{&quot;origPos&quot;:null}"><g data-paper-data="{&quot;origPos&quot;:null}"><path d="M84.84526,211.4309c3.57139,2.5297 5.7821,6.02324 5.7821,9.87853c0,3.8553 -2.21071,7.34883 -5.7821,9.87852c-3.57139,2.5297 -8.50345,4.09558 -13.94616,4.09558c-5.4427,0 -10.37477,-1.56589 -13.94616,-4.09558c-3.57139,-2.5297 -5.7821,-6.02323 -5.7821,-9.87852c0,-3.8553 2.21071,-7.34884 5.7821,-9.87853c3.57139,-2.5297 8.50346,-4.09557 13.94616,-4.09557c5.4427,0 10.37477,1.56588 13.94616,4.09557z" data-paper-data="{&quot;origPos&quot;:null}" fill="url(#color-2)"/><path d="M95.95438,193.18692c3.57139,2.5297 5.78211,6.02323 5.78211,9.87852c0,3.8553 -2.21072,7.34884 -5.78211,9.87853c-3.57139,2.5297 -8.50345,4.09557 -13.94615,4.09557c-5.4427,0 -10.37477,-1.56588 -13.94616,-4.09557c-3.57139,-2.5297 -5.78211,-6.02323 -5.78211,-9.87853c0,-3.8553 2.21072,-7.34883 5.78211,-9.87852c3.57139,-2.5297 8.50346,-4.09558 13.94616,-4.09558c5.4427,0 10.37476,1.56589 13.94616,4.09558z" data-paper-data="{&quot;origPos&quot;:null}" fill="url(#color-3)"/><path d="M121.62028,182.31817c3.57139,2.5297 5.78211,6.02323 5.78211,9.87852c0,3.8553 -2.21072,7.34884 -5.78211,9.87853c-3.57139,2.5297 -8.50346,4.09558 -13.94616,4.09558c-5.4427,0 -10.37477,-1.56588 -13.94616,-4.09558c-3.57139,-2.5297 -5.78211,-6.02323 -5.78211,-9.87853c0,-3.8553 2.21072,-7.34883 5.78211,-9.87852c3.57139,-2.5297 8.50346,-4.09557 13.94616,-4.09557c5.4427,0 10.37477,1.56588 13.94616,4.09557z" data-paper-data="{&quot;origPos&quot;:null}" fill="url(#color-4)"/><path d="M126.98329,205.99652c3.57139,2.5297 5.78211,6.02323 5.78211,9.87853c0,3.8553 -2.21072,7.34883 -5.78211,9.87853c-3.57139,2.5297 -8.50345,4.09558 -13.94615,4.09558c-5.4427,0 -10.37476,-1.56588 -13.94615,-4.09558c-3.57139,-2.5297 -5.78212,-6.02323 -5.78212,-9.87853c0,-3.8553 2.21073,-7.34883 5.78212,-9.87853c3.57139,-2.5297 8.50345,-4.09558 13.94615,-4.09558c5.4427,0 10.37476,1.56588 13.94615,4.09558z" data-paper-data="{&quot;origPos&quot;:null}" fill="url(#color-5)"/><path d="M108.97886,211.4309c3.57139,2.5297 5.78211,6.02324 5.78211,9.87853c0,3.8553 -2.21072,7.34883 -5.78211,9.87852c-3.57139,2.5297 -8.50346,4.09558 -13.94616,4.09558c-5.4427,0 -10.37476,-1.56589 -13.94616,-4.09558c-3.57139,-2.5297 -5.78211,-6.02323 -5.78211,-9.87852c0,-3.8553 2.21072,-7.34884 5.78211,-9.87853c3.57139,-2.5297 8.50346,-4.09557 13.94616,-4.09557c5.4427,0 10.37477,1.56588 13.94616,4.09557z" data-paper-data="{&quot;origPos&quot;:null}" fill="url(#color-6)"/><path d="M150.35073,211.04269c3.57139,2.5297 5.78211,6.02324 5.78211,9.87853c0,3.8553 -2.21071,7.34883 -5.78211,9.87853c-3.57139,2.5297 -8.50346,4.09558 -13.94616,4.09558c-5.4427,0 -10.37476,-1.56588 -13.94615,-4.09558c-3.57139,-2.5297 -5.78211,-6.02323 -5.78211,-9.87853c0,-3.8553 2.21072,-7.34884 5.78211,-9.87853c3.57139,-2.5297 8.50346,-4.09557 13.94615,-4.09557c5.4427,0 10.37477,1.56588 13.94616,4.09557z" data-paper-data="{&quot;origPos&quot;:null}" fill="url(#color-7)"/><path d="M151.88304,190.85791c3.57139,2.5297 5.78211,6.02323 5.78211,9.87853c0,3.8553 -2.21071,7.34884 -5.78211,9.87853c-3.57139,2.5297 -8.50346,4.09557 -13.94615,4.09557c-5.4427,0 -10.37477,-1.56588 -13.94616,-4.09557c-3.57139,-2.5297 -5.78211,-6.02323 -5.78211,-9.87853c0,-3.8553 2.21072,-7.34883 5.78211,-9.87853c3.57139,-2.5297 8.50346,-4.09558 13.94616,-4.09558c5.4427,0 10.37476,1.56588 13.94615,4.09558z" data-paper-data="{&quot;origPos&quot;:null}" fill="url(#color-8)"/><path d="M174.29281,173.00211c3.57139,2.5297 5.78211,6.02324 5.78211,9.87853c0,3.8553 -2.21071,7.34884 -5.78211,9.87853c-3.57139,2.5297 -8.50346,4.09557 -13.94616,4.09557c-5.4427,0 -10.37476,-1.56588 -13.94616,-4.09557c-3.57139,-2.5297 -5.78211,-6.02323 -5.78211,-9.87853c0,-3.8553 2.21071,-7.34884 5.78211,-9.87853c3.57139,-2.5297 8.50346,-4.09557 13.94616,-4.09557c5.4427,0 10.37477,1.56588 13.94616,4.09557z" data-paper-data="{&quot;origPos&quot;:null}" fill="url(#color-9)"/><path d="M194.21262,187.36439c3.57139,2.5297 5.78211,6.02322 5.78211,9.87852c0,3.8553 -2.21071,7.34884 -5.78211,9.87853c-3.57139,2.5297 -8.50346,4.09557 -13.94616,4.09557c-5.4427,0 -10.37476,-1.56588 -13.94616,-4.09557c-3.57139,-2.5297 -5.78211,-6.02323 -5.78211,-9.87853c0,-3.8553 2.21071,-7.34883 5.78211,-9.87852c3.57139,-2.5297 8.50346,-4.09558 13.94616,-4.09558c5.4427,0 10.37477,1.56588 13.94616,4.09558z" data-paper-data="{&quot;origPos&quot;:null}" fill="url(#color-10)"/><path d="M175.44203,195.90412c3.57139,2.5297 5.78211,6.02323 5.78211,9.87853c0,3.8553 -2.21072,7.34883 -5.78211,9.87853c-3.57139,2.5297 -8.50346,4.09557 -13.94615,4.09557c-5.4427,0 -10.37476,-1.56588 -13.94616,-4.09557c-3.57139,-2.5297 -5.7821,-6.02323 -5.7821,-9.87853c0,-3.8553 2.21071,-7.34883 5.7821,-9.87853c3.57139,-2.5297 8.50346,-4.09557 13.94616,-4.09557c5.4427,0 10.37477,1.56588 13.94615,4.09557z" data-paper-data="{&quot;origPos&quot;:null}" fill="url(#color-11)"/><path d="M244.20364,176.49564c3.57139,2.5297 5.78211,6.02323 5.78211,9.87853c0,3.8553 -2.21071,7.34884 -5.78211,9.87853c-3.57139,2.5297 -8.50346,4.09557 -13.94616,4.09557c-5.4427,0 -10.37477,-1.56588 -13.94616,-4.09557c-3.57139,-2.5297 -5.78211,-6.02323 -5.78211,-9.87853c0,-3.8553 2.21071,-7.34883 5.78211,-9.87853c3.57139,-2.5297 8.50346,-4.09557 13.94616,-4.09557c5.4427,0 10.37476,1.56588 13.94616,4.09557z" data-paper-data="{&quot;origPos&quot;:null}" fill="url(#color-12)"/><path d="M189.4242,210.26635c3.57139,2.5297 5.78211,6.02323 5.78211,9.87853c0,3.8553 -2.21071,7.34884 -5.78211,9.87853c-3.57139,2.5297 -8.50346,4.09557 -13.94616,4.09557c-5.4427,0 -10.37476,-1.56588 -13.94615,-4.09557c-3.57139,-2.5297 -5.78211,-6.02323 -5.78211,-9.87853c0,-3.8553 2.21071,-7.34883 5.78211,-9.87853c3.57139,-2.5297 8.50346,-4.09558 13.94616,-4.09558c5.4427,0 10.37476,1.56588 13.94616,4.09558z" data-paper-data="{&quot;origPos&quot;:null}" fill="url(#color-13)"/><path d="M218.92081,196.29229c3.57139,2.5297 5.78211,6.02323 5.78211,9.87852c0,3.8553 -2.21072,7.34883 -5.78211,9.87852c-3.57139,2.5297 -8.50345,4.09558 -13.94615,4.09558c-5.4427,0 -10.37477,-1.56589 -13.94616,-4.09558c-3.57139,-2.5297 -5.78211,-6.02322 -5.78211,-9.87852c0,-3.8553 2.21072,-7.34883 5.78211,-9.87852c3.57139,-2.5297 8.50346,-4.09558 13.94616,-4.09558c5.4427,0 10.37476,1.56589 13.94615,4.09558z" data-paper-data="{&quot;origPos&quot;:null}" fill="url(#color-14)"/><path d="M247.84283,197.06862c3.57139,2.5297 5.78211,6.02323 5.78211,9.87853c0,3.8553 -2.21071,7.34883 -5.78211,9.87853c-3.57139,2.5297 -8.50346,4.09558 -13.94616,4.09558c-5.4427,0 -10.37477,-1.56588 -13.94616,-4.09558c-3.57139,-2.5297 -5.78211,-6.02323 -5.78211,-9.87853c0,-3.8553 2.21071,-7.34883 5.78211,-9.87853c3.57139,-2.5297 8.50346,-4.09558 13.94616,-4.09558c5.4427,0 10.37476,1.56588 13.94616,4.09558z" data-paper-data="{&quot;origPos&quot;:null}" fill="url(#color-15)"/><path d="M239.60677,208.71371c3.57139,2.5297 5.78211,6.02324 5.78211,9.87853c0,3.8553 -2.21071,7.34883 -5.78211,9.87852c-3.57139,2.5297 -8.50346,4.09557 -13.94616,4.09557c-5.4427,0 -10.37477,-1.56588 -13.94616,-4.09557c-3.57139,-2.5297 -5.78211,-6.02323 -5.78211,-9.87852c0,-3.8553 2.21071,-7.34884 5.78211,-9.87853c3.57139,-2.5297 8.50346,-4.09558 13.94616,-4.09558c5.4427,0 10.37477,1.56588 13.94616,4.09558z" data-paper-data="{&quot;origPos&quot;:null}" fill="url(#color-16)"/><path d="M217.197,211.4309c3.57139,2.5297 5.78211,6.02324 5.78211,9.87853c0,3.8553 -2.21071,7.34883 -5.78211,9.87852c-3.57139,2.5297 -8.50346,4.09558 -13.94616,4.09558c-5.4427,0 -10.37477,-1.56589 -13.94616,-4.09558c-3.57139,-2.5297 -5.78211,-6.02323 -5.78211,-9.87852c0,-3.8553 2.21071,-7.34884 5.78211,-9.87853c3.57139,-2.5297 8.50346,-4.09557 13.94616,-4.09557c5.4427,0 10.37476,1.56588 13.94616,4.09557z" data-paper-data="{&quot;origPos&quot;:null}" fill="url(#color-17)"/><path d="M172.37745,216.86528c3.57139,2.5297 5.78211,6.02323 5.78211,9.87853c0,3.8553 -2.21071,7.34884 -5.78211,9.87853c-3.57139,2.5297 -8.50346,4.09557 -13.94615,4.09557c-5.4427,0 -10.37476,-1.56588 -13.94615,-4.09557c-3.57139,-2.5297 -5.78211,-6.02323 -5.78211,-9.87853c0,-3.8553 2.21071,-7.34883 5.78211,-9.87853c3.57139,-2.5297 8.50345,-4.09558 13.94615,-4.09558c5.4427,0 10.37477,1.56588 13.94615,4.09558z" data-paper-data="{&quot;origPos&quot;:null}" fill="url(#color-18)"/><path d="M128.70711,219.97061c3.57139,2.5297 5.78212,6.02322 5.78212,9.87852c0,3.8553 -2.21071,7.34884 -5.78211,9.87853c-3.57139,2.5297 -8.50346,4.09557 -13.94616,4.09557c-5.4427,0 -10.37477,-1.56588 -13.94616,-4.09557c-3.57139,-2.5297 -5.7821,-6.02323 -5.7821,-9.87853c0,-3.8553 2.21071,-7.34883 5.7821,-9.87852c3.57139,-2.5297 8.50346,-4.09558 13.94616,-4.09558c5.4427,0 10.37477,1.56589 13.94616,4.09559z" data-paper-data="{&quot;origPos&quot;:null}" fill="url(#color-19)"/><path d="M251.67357,219.58246c3.57139,2.5297 5.78211,6.02324 5.78211,9.87853c0,3.8553 -2.21072,7.34883 -5.78211,9.87852c-3.57139,2.5297 -8.50346,4.09558 -13.94616,4.09558c-5.4427,0 -10.37477,-1.56588 -13.94616,-4.09558c-3.57139,-2.5297 -5.78211,-6.02323 -5.78211,-9.87852c0,-3.8553 2.21071,-7.34884 5.78211,-9.87853c3.57139,-2.5297 8.50346,-4.09557 13.94616,-4.09557c5.4427,0 10.37476,1.56588 13.94616,4.09557z" data-paper-data="{&quot;origPos&quot;:null}" fill="url(#color-20)"/></g><g data-paper-data="{&quot;origPos&quot;:null}"><path d="M263.80015,211.4309c3.57139,2.5297 5.78211,6.02323 5.78211,9.87853c0,3.8553 -2.21071,7.34884 -5.78211,9.87853c-3.57139,2.5297 -8.50346,4.09557 -13.94616,4.09557c-5.4427,0 -10.37477,-1.56588 -13.94616,-4.09557c-3.57139,-2.5297 -5.78209,-6.02323 -5.78209,-9.87853c0,-3.8553 2.2107,-7.34883 5.78209,-9.87853c3.57139,-2.5297 8.50346,-4.09557 13.94616,-4.09557c5.4427,0 10.37477,1.56588 13.94616,4.09557z" data-paper-data="{&quot;origPos&quot;:null}" fill="url(#color-21)"/><path d="M274.90927,193.18692c3.57139,2.5297 5.78211,6.02323 5.78211,9.87852c0,3.8553 -2.21072,7.34884 -5.78211,9.87853c-3.57139,2.5297 -8.50345,4.09557 -13.94615,4.09557c-5.4427,0 -10.37476,-1.56588 -13.94616,-4.09557c-3.57139,-2.5297 -5.78211,-6.02323 -5.78211,-9.87853c0,-3.8553 2.21071,-7.34883 5.78211,-9.87852c3.57139,-2.5297 8.50346,-4.09558 13.94616,-4.09558c5.4427,0 10.37476,1.56589 13.94615,4.09558z" data-paper-data="{&quot;origPos&quot;:null}" fill="url(#color-22)"/><path d="M300.57518,182.31817c3.57139,2.5297 5.78211,6.02324 5.78211,9.87853c0,3.8553 -2.21071,7.34883 -5.78211,9.87852c-3.57139,2.5297 -8.50346,4.09558 -13.94616,4.09558c-5.4427,0 -10.37476,-1.56588 -13.94615,-4.09558c-3.57139,-2.5297 -5.78211,-6.02323 -5.78211,-9.87852c0,-3.8553 2.21071,-7.34884 5.78211,-9.87853c3.57139,-2.5297 8.50345,-4.09557 13.94615,-4.09557c5.4427,0 10.37477,1.56588 13.94616,4.09557z" data-paper-data="{&quot;origPos&quot;:null}" fill="url(#color-23)"/><path d="M305.93818,205.99652c3.57139,2.5297 5.78211,6.02323 5.78211,9.87853c0,3.8553 -2.21071,7.34883 -5.78211,9.87853c-3.57139,2.5297 -8.50345,4.09558 -13.94615,4.09558c-5.4427,0 -10.37476,-1.56588 -13.94615,-4.09558c-3.57139,-2.5297 -5.78211,-6.02323 -5.78211,-9.87853c0,-3.8553 2.21071,-7.34883 5.78211,-9.87853c3.57139,-2.5297 8.50345,-4.09558 13.94615,-4.09558c5.4427,0 10.37476,1.56588 13.94615,4.09558z" data-paper-data="{&quot;origPos&quot;:null}" fill="url(#color-24)"/><path d="M287.93375,211.4309c3.57139,2.5297 5.78211,6.02323 5.78211,9.87853c0,3.8553 -2.21071,7.34884 -5.78211,9.87853c-3.57139,2.5297 -8.50345,4.09557 -13.94615,4.09557c-5.4427,0 -10.37477,-1.56588 -13.94616,-4.09557c-3.57139,-2.5297 -5.78211,-6.02323 -5.78211,-9.87853c0,-3.8553 2.21072,-7.34883 5.78211,-9.87853c3.57139,-2.5297 8.50346,-4.09557 13.94616,-4.09557c5.4427,0 10.37476,1.56588 13.94615,4.09557z" data-paper-data="{&quot;origPos&quot;:null}" fill="url(#color-25)"/><path d="M329.30564,211.04269c3.57139,2.5297 5.78211,6.02324 5.78211,9.87853c0,3.8553 -2.21071,7.34883 -5.78211,9.87853c-3.57139,2.5297 -8.50345,4.09558 -13.94615,4.09558c-5.4427,0 -10.37477,-1.56588 -13.94616,-4.09558c-3.57139,-2.5297 -5.78211,-6.02323 -5.78211,-9.87853c0,-3.8553 2.21071,-7.34884 5.78211,-9.87853c3.57139,-2.5297 8.50346,-4.09557 13.94616,-4.09557c5.4427,0 10.37476,1.56588 13.94615,4.09557z" data-paper-data="{&quot;origPos&quot;:null}" fill="url(#color-26)"/><path d="M330.83793,190.85791c3.57139,2.5297 5.78211,6.02324 5.78211,9.87853c0,3.8553 -2.21071,7.34883 -5.78211,9.87853c-3.57139,2.5297 -8.50346,4.09557 -13.94616,4.09557c-5.4427,0 -10.37476,-1.56588 -13.94615,-4.09557c-3.57139,-2.5297 -5.78211,-6.02323 -5.78211,-9.87853c0,-3.8553 2.21071,-7.34884 5.78211,-9.87853c3.57139,-2.5297 8.50345,-4.09558 13.94615,-4.09558c5.4427,0 10.37477,1.56588 13.94616,4.09558z" data-paper-data="{&quot;origPos&quot;:null}" fill="url(#color-27)"/><path d="M353.24772,173.00211c3.57139,2.5297 5.7821,6.02324 5.7821,9.87853c0,3.8553 -2.21071,7.34883 -5.7821,9.87852c-3.57139,2.5297 -8.50346,4.09558 -13.94616,4.09558c-5.4427,0 -10.37477,-1.56588 -13.94616,-4.09558c-3.57139,-2.5297 -5.78211,-6.02322 -5.78211,-9.87852c0,-3.8553 2.21071,-7.34884 5.78211,-9.87853c3.57139,-2.5297 8.50346,-4.09557 13.94616,-4.09557c5.4427,0 10.37477,1.56588 13.94616,4.09557z" data-paper-data="{&quot;origPos&quot;:null}" fill="url(#color-28)"/><path d="M373.16751,187.36439c3.57139,2.5297 5.78211,6.02322 5.78211,9.87852c0,3.8553 -2.21071,7.34884 -5.78211,9.87853c-3.57139,2.5297 -8.50345,4.09557 -13.94615,4.09557c-5.4427,0 -10.37477,-1.56588 -13.94616,-4.09557c-3.57139,-2.5297 -5.78211,-6.02323 -5.78211,-9.87853c0,-3.8553 2.21071,-7.34883 5.78211,-9.87852c3.57139,-2.5297 8.50346,-4.09558 13.94616,-4.09558c5.4427,0 10.37476,1.56588 13.94615,4.09558z" data-paper-data="{&quot;origPos&quot;:null}" fill="url(#color-29)"/><path d="M354.39694,195.90412c3.57139,2.5297 5.78211,6.02323 5.78211,9.87853c0,3.8553 -2.21071,7.34884 -5.78211,9.87853c-3.57139,2.5297 -8.50346,4.09558 -13.94616,4.09558c-5.4427,0 -10.37477,-1.56588 -13.94616,-4.09558c-3.57139,-2.5297 -5.78211,-6.02323 -5.78211,-9.87853c0,-3.8553 2.21071,-7.34883 5.78211,-9.87853c3.57139,-2.5297 8.50346,-4.09557 13.94616,-4.09557c5.4427,0 10.37477,1.56588 13.94616,4.09557z" data-paper-data="{&quot;origPos&quot;:null}" fill="url(#color-30)"/><path d="M423.15854,176.49564c3.57139,2.5297 5.78211,6.02323 5.78211,9.87853c0,3.8553 -2.21072,7.34883 -5.78211,9.87852c-3.57139,2.5297 -8.50345,4.09559 -13.94615,4.09559c-5.4427,0 -10.37477,-1.56589 -13.94616,-4.09558c-3.57139,-2.5297 -5.78211,-6.02323 -5.78211,-9.87852c0,-3.8553 2.21071,-7.34883 5.78211,-9.87853c3.57139,-2.5297 8.50346,-4.09557 13.94616,-4.09557c5.4427,0 10.37476,1.56588 13.94615,4.09557z" data-paper-data="{&quot;origPos&quot;:null}" fill="url(#color-31)"/><path d="M368.3791,210.26635c3.57139,2.5297 5.78211,6.02323 5.78211,9.87853c0,3.8553 -2.21071,7.34884 -5.78211,9.87853c-3.57139,2.5297 -8.50345,4.09557 -13.94615,4.09557c-5.4427,0 -10.37477,-1.56588 -13.94616,-4.09557c-3.57139,-2.5297 -5.78211,-6.02323 -5.78211,-9.87853c0,-3.8553 2.21071,-7.34883 5.78211,-9.87853c3.57139,-2.5297 8.50346,-4.09558 13.94616,-4.09558c5.4427,0 10.37476,1.56588 13.94615,4.09558z" data-paper-data="{&quot;origPos&quot;:null}" fill="url(#color-32)"/><path d="M397.87572,196.29229c3.57139,2.5297 5.78211,6.02323 5.78211,9.87852c0,3.8553 -2.21071,7.34883 -5.78211,9.87852c-3.57139,2.5297 -8.50345,4.09558 -13.94615,4.09558c-5.4427,0 -10.37476,-1.56589 -13.94615,-4.09558c-3.57139,-2.5297 -5.78211,-6.02322 -5.78211,-9.87852c0,-3.8553 2.21071,-7.34883 5.78211,-9.87852c3.57139,-2.5297 8.50345,-4.09558 13.94615,-4.09558c5.4427,0 10.37476,1.56588 13.94615,4.09558z" data-paper-data="{&quot;origPos&quot;:null}" fill="url(#color-33)"/><path d="M426.79774,197.06863c3.57139,2.5297 5.78211,6.02324 5.78211,9.87853c0,3.8553 -2.21072,7.34883 -5.78211,9.87852c-3.57139,2.5297 -8.50346,4.09558 -13.94616,4.09558c-5.4427,0 -10.37476,-1.56588 -13.94615,-4.09558c-3.57139,-2.5297 -5.78211,-6.02322 -5.78211,-9.87852c0,-3.8553 2.21071,-7.34884 5.78211,-9.87853c3.57139,-2.5297 8.50345,-4.09558 13.94615,-4.09558c5.4427,0 10.37477,1.56588 13.94616,4.09558z" data-paper-data="{&quot;origPos&quot;:null}" fill="url(#color-34)"/><path d="M418.56167,208.71371c3.57139,2.5297 5.78211,6.02323 5.78211,9.87852c0,3.8553 -2.21071,7.34884 -5.78211,9.87853c-3.57139,2.5297 -8.50346,4.09557 -13.94616,4.09557c-5.4427,0 -10.37477,-1.56588 -13.94616,-4.09557c-3.57139,-2.5297 -5.78211,-6.02323 -5.78211,-9.87853c0,-3.8553 2.21071,-7.34883 5.78211,-9.87852c3.57139,-2.5297 8.50346,-4.09558 13.94616,-4.09558c5.4427,0 10.37477,1.56588 13.94616,4.09558z" data-paper-data="{&quot;origPos&quot;:null}" fill="url(#color-35)"/><path d="M396.15189,211.4309c3.57139,2.5297 5.78211,6.02323 5.78211,9.87853c0,3.8553 -2.21071,7.34884 -5.78211,9.87853c-3.57139,2.5297 -8.50346,4.09557 -13.94616,4.09557c-5.4427,0 -10.37477,-1.56588 -13.94616,-4.09557c-3.57139,-2.5297 -5.78211,-6.02323 -5.78211,-9.87853c0,-3.8553 2.21071,-7.34883 5.78211,-9.87853c3.57139,-2.5297 8.50346,-4.09557 13.94616,-4.09557c5.4427,0 10.37477,1.56588 13.94616,4.09557z" data-paper-data="{&quot;origPos&quot;:null}" fill="url(#color-36)"/><path d="M351.33235,216.86528c3.57139,2.5297 5.78211,6.02323 5.78211,9.87852c0,3.8553 -2.21072,7.34883 -5.78211,9.87852c-3.57139,2.5297 -8.50345,4.09559 -13.94615,4.09559c-5.4427,0 -10.37476,-1.56589 -13.94615,-4.09558c-3.57139,-2.5297 -5.78211,-6.02322 -5.78211,-9.87852c0,-3.8553 2.21071,-7.34883 5.78211,-9.87852c3.57139,-2.5297 8.50345,-4.09558 13.94615,-4.09558c5.4427,0 10.37476,1.56588 13.94615,4.09558z" data-paper-data="{&quot;origPos&quot;:null}" fill="url(#color-37)"/><path d="M307.66202,219.97061c3.57139,2.5297 5.78211,6.02322 5.78211,9.87852c0,3.8553 -2.21072,7.34884 -5.78211,9.87853c-3.57139,2.5297 -8.50345,4.09557 -13.94615,4.09557c-5.4427,0 -10.37477,-1.56588 -13.94616,-4.09557c-3.57139,-2.5297 -5.78211,-6.02323 -5.78211,-9.87853c0,-3.8553 2.21071,-7.34883 5.78211,-9.87852c3.57139,-2.5297 8.50346,-4.09558 13.94616,-4.09558c5.4427,0 10.37476,1.56589 13.94615,4.09559z" data-paper-data="{&quot;origPos&quot;:null}" fill="url(#color-38)"/><path d="M430.62847,219.58246c3.57139,2.5297 5.78211,6.02323 5.78211,9.87853c0,3.8553 -2.21071,7.34883 -5.78211,9.87853c-3.57139,2.5297 -8.50346,4.09558 -13.94616,4.09558c-5.4427,0 -10.37476,-1.56588 -13.94615,-4.09558c-3.57139,-2.5297 -5.78211,-6.02323 -5.78211,-9.87853c0,-3.8553 2.21071,-7.34883 5.78211,-9.87853c3.57139,-2.5297 8.50345,-4.09557 13.94615,-4.09557c5.4427,0 10.37477,1.56588 13.94616,4.09557z" data-paper-data="{&quot;origPos&quot;:null}" fill="url(#color-39)"/></g></g><g data-paper-data="{&quot;origPos&quot;:null}"><g data-paper-data="{&quot;origPos&quot;:null}"><path d="M82.78435,254.26156c3.57139,2.5297 5.78211,6.02324 5.78211,9.87853c0,3.8553 -2.21072,7.34883 -5.78211,9.87852c-3.57139,2.5297 -8.50345,4.09558 -13.94615,4.09558c-5.4427,0 -10.37477,-1.56588 -13.94616,-4.09558c-3.57139,-2.5297 -5.78211,-6.02323 -5.78211,-9.87852c0,-3.8553 2.21072,-7.34884 5.78211,-9.87853c3.57139,-2.5297 8.50346,-4.09558 13.94616,-4.09558c5.4427,0 10.37476,1.56588 13.94616,4.09558z" data-paper-data="{&quot;origPos&quot;:null}" fill="url(#color-40)"/><path d="M93.89347,236.01759c3.57139,2.5297 5.78211,6.02323 5.78211,9.87852c0,3.8553 -2.21072,7.34884 -5.78211,9.87853c-3.57139,2.5297 -8.50346,4.09558 -13.94616,4.09558c-5.4427,0 -10.37477,-1.56588 -13.94616,-4.09558c-3.57139,-2.5297 -5.7821,-6.02323 -5.7821,-9.87853c0,-3.8553 2.21071,-7.34883 5.7821,-9.87852c3.57139,-2.5297 8.50346,-4.09558 13.94616,-4.09558c5.4427,0 10.37476,1.56588 13.94616,4.09558z" data-paper-data="{&quot;origPos&quot;:null}" fill="url(#color-41)"/><path d="M119.55935,225.14883c3.57139,2.5297 5.78211,6.02323 5.78211,9.87852c0,3.8553 -2.21072,7.34884 -5.78211,9.87853c-3.57139,2.5297 -8.50346,4.09557 -13.94616,4.09557c-5.4427,0 -10.37477,-1.56588 -13.94616,-4.09557c-3.57139,-2.5297 -5.78211,-6.02323 -5.78211,-9.87853c0,-3.8553 2.21072,-7.34883 5.78211,-9.87852c3.57139,-2.5297 8.50346,-4.09558 13.94616,-4.09558c5.4427,0 10.37477,1.56589 13.94616,4.09558z" data-paper-data="{&quot;origPos&quot;:null}" fill="url(#color-42)"/><path d="M124.92237,248.82718c3.57139,2.5297 5.78211,6.02323 5.78211,9.87853c0,3.8553 -2.21071,7.34883 -5.78211,9.87853c-3.57139,2.5297 -8.50346,4.09558 -13.94616,4.09558c-5.4427,0 -10.37476,-1.56588 -13.94615,-4.09558c-3.57139,-2.5297 -5.7821,-6.02323 -5.7821,-9.87853c0,-3.8553 2.21071,-7.34883 5.78211,-9.87853c3.57139,-2.5297 8.50346,-4.09557 13.94616,-4.09557c5.4427,0 10.37476,1.56588 13.94615,4.09557z" data-paper-data="{&quot;origPos&quot;:null}" fill="url(#color-43)"/><path d="M106.91795,254.26156c3.57139,2.5297 5.78211,6.02324 5.78211,9.87853c0,3.8553 -2.21072,7.34883 -5.78211,9.87852c-3.57139,2.5297 -8.50346,4.09558 -13.94616,4.09558c-5.4427,0 -10.37476,-1.56588 -13.94616,-4.09558c-3.57139,-2.5297 -5.78211,-6.02323 -5.78211,-9.87852c0,-3.8553 2.21072,-7.34884 5.78211,-9.87853c3.57139,-2.5297 8.50346,-4.09558 13.94616,-4.09558c5.4427,0 10.37477,1.56588 13.94616,4.09558z" data-paper-data="{&quot;origPos&quot;:null}" fill="url(#color-44)"/><path d="M148.28983,253.87335c3.57139,2.5297 5.78211,6.02324 5.78211,9.87854c0,3.8553 -2.21071,7.34883 -5.78211,9.87853c-3.57139,2.5297 -8.50346,4.09557 -13.94616,4.09557c-5.4427,0 -10.37477,-1.56588 -13.94616,-4.09557c-3.57139,-2.5297 -5.78211,-6.02323 -5.78211,-9.87853c0,-3.8553 2.21072,-7.34884 5.78211,-9.87854c3.57139,-2.5297 8.50346,-4.09557 13.94616,-4.09557c5.4427,0 10.37476,1.56588 13.94616,4.09557z" data-paper-data="{&quot;origPos&quot;:null}" fill="url(#color-45)"/><path d="M149.82213,233.68853c3.57139,2.5297 5.78211,6.02323 5.78211,9.87853c0,3.8553 -2.21071,7.34884 -5.78211,9.87853c-3.57139,2.5297 -8.50346,4.09558 -13.94615,4.09558c-5.4427,0 -10.37477,-1.56588 -13.94616,-4.09558c-3.57139,-2.5297 -5.78211,-6.02323 -5.78211,-9.87853c0,-3.8553 2.21072,-7.34883 5.78211,-9.87853c3.57139,-2.5297 8.50346,-4.09558 13.94616,-4.09558c5.4427,0 10.37476,1.56588 13.94615,4.09558z" data-paper-data="{&quot;origPos&quot;:null}" fill="url(#color-46)"/><path d="M172.23189,215.83277c3.57139,2.5297 5.78211,6.02324 5.78211,9.87853c0,3.8553 -2.21071,7.34884 -5.78211,9.87853c-3.57139,2.5297 -8.50346,4.09557 -13.94616,4.09557c-5.4427,0 -10.37477,-1.56588 -13.94616,-4.09557c-3.57139,-2.5297 -5.78211,-6.02323 -5.78211,-9.87853c0,-3.8553 2.21071,-7.34884 5.78211,-9.87853c3.57139,-2.5297 8.50346,-4.09557 13.94616,-4.09557c5.4427,0 10.37476,1.56588 13.94616,4.09557z" data-paper-data="{&quot;origPos&quot;:null}" fill="url(#color-47)"/><path d="M192.1517,230.19502c3.57139,2.5297 5.78211,6.02323 5.78211,9.87853c0,3.8553 -2.21071,7.34884 -5.78211,9.87853c-3.57139,2.5297 -8.50346,4.09557 -13.94616,4.09557c-5.4427,0 -10.37477,-1.56588 -13.94616,-4.09557c-3.57139,-2.5297 -5.78211,-6.02323 -5.78211,-9.87853c0,-3.8553 2.21071,-7.34883 5.78211,-9.87853c3.57139,-2.5297 8.50346,-4.09557 13.94616,-4.09557c5.4427,0 10.37476,1.56588 13.94616,4.09557z" data-paper-data="{&quot;origPos&quot;:null}" fill="url(#color-48)"/><path d="M173.38112,238.73477c3.57139,2.5297 5.78212,6.02323 5.78212,9.87852c0,3.8553 -2.21072,7.34883 -5.78212,9.87852c-3.57139,2.5297 -8.50346,4.09558 -13.94615,4.09558c-5.4427,0 -10.37476,-1.56589 -13.94615,-4.09558c-3.57139,-2.5297 -5.78211,-6.02323 -5.78211,-9.87852c0,-3.8553 2.21071,-7.34883 5.78211,-9.87852c3.57139,-2.5297 8.50346,-4.09558 13.94615,-4.09558c5.4427,0 10.37476,1.56588 13.94615,4.09558z" data-paper-data="{&quot;origPos&quot;:null}" fill="url(#color-49)"/><path d="M242.14273,219.32629c3.57139,2.5297 5.78211,6.02322 5.78211,9.87852c0,3.8553 -2.21071,7.34884 -5.78211,9.87853c-3.57139,2.5297 -8.50346,4.09558 -13.94616,4.09558c-5.4427,0 -10.37476,-1.56588 -13.94616,-4.09558c-3.57139,-2.5297 -5.78211,-6.02323 -5.78211,-9.87853c0,-3.8553 2.21071,-7.34883 5.78211,-9.87852c3.57139,-2.5297 8.50346,-4.09557 13.94616,-4.09557c5.4427,0 10.37477,1.56588 13.94616,4.09557z" data-paper-data="{&quot;origPos&quot;:null}" fill="url(#color-50)"/><path d="M187.36329,253.09702c3.57139,2.5297 5.78211,6.02323 5.78211,9.87853c0,3.8553 -2.21071,7.34883 -5.78211,9.87853c-3.57139,2.5297 -8.50345,4.09557 -13.94615,4.09557c-5.4427,0 -10.37477,-1.56588 -13.94616,-4.09557c-3.57139,-2.5297 -5.78211,-6.02323 -5.78211,-9.87853c0,-3.8553 2.21071,-7.34883 5.78211,-9.87853c3.57139,-2.5297 8.50346,-4.09558 13.94616,-4.09558c5.4427,0 10.37477,1.56588 13.94616,4.09558z" data-paper-data="{&quot;origPos&quot;:null}" fill="url(#color-51)"/><path d="M216.85991,239.12292c3.57139,2.5297 5.78212,6.02323 5.78212,9.87852c0,3.8553 -2.21072,7.34883 -5.78212,9.87853c-3.57139,2.5297 -8.50345,4.09557 -13.94615,4.09557c-5.4427,0 -10.37477,-1.56588 -13.94616,-4.09557c-3.57139,-2.5297 -5.78211,-6.02323 -5.78211,-9.87853c0,-3.8553 2.21072,-7.34883 5.78211,-9.87852c3.57139,-2.5297 8.50346,-4.09557 13.94616,-4.09557c5.4427,0 10.37476,1.56588 13.94615,4.09557z" data-paper-data="{&quot;origPos&quot;:null}" fill="url(#color-52)"/><path d="M245.78193,239.89928c3.57139,2.5297 5.78211,6.02323 5.78211,9.87853c0,3.8553 -2.21071,7.34883 -5.78211,9.87853c-3.57139,2.5297 -8.50346,4.09557 -13.94616,4.09557c-5.4427,0 -10.37476,-1.56588 -13.94616,-4.09557c-3.57139,-2.5297 -5.78211,-6.02323 -5.78211,-9.87853c0,-3.8553 2.21071,-7.34883 5.78211,-9.87853c3.57139,-2.5297 8.50346,-4.09558 13.94616,-4.09558c5.4427,0 10.37477,1.56588 13.94616,4.09558z" data-paper-data="{&quot;origPos&quot;:null}" fill="url(#color-53)"/><path d="M237.54586,251.54437c3.57139,2.5297 5.7821,6.02324 5.7821,9.87854c0,3.8553 -2.21071,7.34883 -5.7821,9.87852c-3.57139,2.5297 -8.50346,4.09557 -13.94616,4.09557c-5.4427,0 -10.37476,-1.56588 -13.94616,-4.09557c-3.57139,-2.5297 -5.78211,-6.02323 -5.78211,-9.87852c0,-3.8553 2.21071,-7.34884 5.78211,-9.87854c3.57139,-2.5297 8.50346,-4.09558 13.94616,-4.09558c5.4427,0 10.37477,1.56588 13.94616,4.09558z" data-paper-data="{&quot;origPos&quot;:null}" fill="url(#color-54)"/><path d="M215.13608,254.26156c3.57139,2.5297 5.78211,6.02324 5.78211,9.87853c0,3.8553 -2.21071,7.34883 -5.78211,9.87852c-3.57139,2.5297 -8.50346,4.09558 -13.94616,4.09558c-5.4427,0 -10.37477,-1.56588 -13.94616,-4.09558c-3.57139,-2.5297 -5.78211,-6.02323 -5.78211,-9.87852c0,-3.8553 2.21071,-7.34884 5.78211,-9.87853c3.57139,-2.5297 8.50346,-4.09558 13.94616,-4.09558c5.4427,0 10.37477,1.56588 13.94616,4.09558z" data-paper-data="{&quot;origPos&quot;:null}" fill="url(#color-55)"/><path d="M170.31654,259.69593c3.57139,2.5297 5.78211,6.02323 5.78211,9.87853c0,3.8553 -2.21071,7.34884 -5.78211,9.87853c-3.57139,2.5297 -8.50346,4.09557 -13.94615,4.09557c-5.4427,0 -10.37477,-1.56588 -13.94616,-4.09557c-3.57139,-2.5297 -5.78211,-6.02323 -5.78211,-9.87853c0,-3.8553 2.21071,-7.34883 5.78211,-9.87853c3.57139,-2.5297 8.50346,-4.09558 13.94616,-4.09558c5.4427,0 10.37476,1.56588 13.94615,4.09558z" data-paper-data="{&quot;origPos&quot;:null}" fill="url(#color-56)"/><path d="M126.6462,262.8013c3.57139,2.5297 5.78211,6.02322 5.78211,9.87852c0,3.8553 -2.21072,7.34884 -5.78211,9.87853c-3.57139,2.5297 -8.50345,4.09558 -13.94615,4.09558c-5.4427,0 -10.37477,-1.56588 -13.94616,-4.09558c-3.57139,-2.5297 -5.78211,-6.02323 -5.78211,-9.87853c0,-3.8553 2.21072,-7.34882 5.78211,-9.87852c3.57139,-2.5297 8.50346,-4.09559 13.94616,-4.09559c5.4427,0 10.37476,1.56589 13.94615,4.09559z" data-paper-data="{&quot;origPos&quot;:null}" fill="url(#color-57)"/><path d="M249.61266,262.41312c3.57139,2.5297 5.78211,6.02323 5.78211,9.87853c0,3.8553 -2.21071,7.34883 -5.78211,9.87853c-3.57139,2.5297 -8.50346,4.09558 -13.94616,4.09558c-5.4427,0 -10.37477,-1.56588 -13.94616,-4.09558c-3.57139,-2.5297 -5.78211,-6.02323 -5.78211,-9.87853c0,-3.8553 2.21071,-7.34883 5.78211,-9.87853c3.57139,-2.5297 8.50346,-4.09557 13.94616,-4.09557c5.4427,0 10.37477,1.56588 13.94616,4.09557z" data-paper-data="{&quot;origPos&quot;:null}" fill="url(#color-58)"/></g><g data-paper-data="{&quot;origPos&quot;:null}"><path d="M261.73925,254.26156c3.57139,2.5297 5.78211,6.02323 5.78211,9.87853c0,3.8553 -2.21071,7.34884 -5.78211,9.87853c-3.57139,2.5297 -8.50346,4.09557 -13.94616,4.09557c-5.4427,0 -10.37476,-1.56588 -13.94615,-4.09557c-3.57139,-2.5297 -5.7821,-6.02323 -5.7821,-9.87853c0,-3.8553 2.21071,-7.34883 5.7821,-9.87853c3.57139,-2.5297 8.50345,-4.09558 13.94615,-4.09558c5.4427,0 10.37477,1.56588 13.94616,4.09558z" data-paper-data="{&quot;origPos&quot;:null}" fill="url(#color-59)"/><path d="M272.84837,236.01759c3.57139,2.5297 5.78211,6.02323 5.78211,9.87852c0,3.8553 -2.21072,7.34884 -5.78211,9.87853c-3.57139,2.5297 -8.50345,4.09558 -13.94615,4.09558c-5.4427,0 -10.37477,-1.56588 -13.94616,-4.09558c-3.57139,-2.5297 -5.78211,-6.02323 -5.78211,-9.87853c0,-3.8553 2.21071,-7.34883 5.78211,-9.87852c3.57139,-2.5297 8.50346,-4.09558 13.94616,-4.09558c5.4427,0 10.37476,1.56588 13.94615,4.09558z" data-paper-data="{&quot;origPos&quot;:null}" fill="url(#color-60)"/><path d="M298.51426,225.14883c3.57139,2.5297 5.78211,6.02323 5.78211,9.87853c0,3.8553 -2.21071,7.34884 -5.78211,9.87853c-3.57139,2.5297 -8.50345,4.09557 -13.94615,4.09557c-5.4427,0 -10.37476,-1.56588 -13.94615,-4.09557c-3.57139,-2.5297 -5.78211,-6.02323 -5.78211,-9.87853c0,-3.8553 2.21071,-7.34883 5.78211,-9.87853c3.57139,-2.5297 8.50345,-4.09558 13.94615,-4.09558c5.4427,0 10.37476,1.56588 13.94615,4.09558z" data-paper-data="{&quot;origPos&quot;:null}" fill="url(#color-61)"/><path d="M303.87728,248.82718c3.57139,2.5297 5.78211,6.02323 5.78211,9.87853c0,3.8553 -2.21071,7.34883 -5.78211,9.87853c-3.57139,2.5297 -8.50345,4.09558 -13.94615,4.09558c-5.4427,0 -10.37477,-1.56588 -13.94616,-4.09558c-3.57139,-2.5297 -5.78211,-6.02323 -5.78211,-9.87853c0,-3.8553 2.21071,-7.34883 5.78211,-9.87853c3.57139,-2.5297 8.50346,-4.09557 13.94616,-4.09557c5.4427,0 10.37476,1.56588 13.94615,4.09557z" data-paper-data="{&quot;origPos&quot;:null}" fill="url(#color-62)"/><path d="M285.87285,254.26156c3.57139,2.5297 5.78211,6.02323 5.78211,9.87853c0,3.8553 -2.21071,7.34884 -5.78211,9.87853c-3.57139,2.5297 -8.50345,4.09557 -13.94615,4.09557c-5.4427,0 -10.37477,-1.56588 -13.94616,-4.09557c-3.57139,-2.5297 -5.78211,-6.02323 -5.78211,-9.87853c0,-3.8553 2.21071,-7.34883 5.78211,-9.87853c3.57139,-2.5297 8.50346,-4.09558 13.94616,-4.09558c5.4427,0 10.37476,1.56588 13.94615,4.09558z" data-paper-data="{&quot;origPos&quot;:null}" fill="url(#color-63)"/><path d="M327.24474,253.87335c3.57139,2.5297 5.78211,6.02324 5.78211,9.87854c0,3.8553 -2.21071,7.34883 -5.78211,9.87853c-3.57139,2.5297 -8.50346,4.09557 -13.94616,4.09557c-5.4427,0 -10.37477,-1.56588 -13.94616,-4.09557c-3.57139,-2.5297 -5.78211,-6.02323 -5.78211,-9.87853c0,-3.8553 2.21071,-7.34884 5.78211,-9.87854c3.57139,-2.5297 8.50346,-4.09557 13.94616,-4.09557c5.4427,0 10.37477,1.56588 13.94616,4.09557z" data-paper-data="{&quot;origPos&quot;:null}" fill="url(#color-64)"/><path d="M328.77702,233.68853c3.57139,2.5297 5.78211,6.02324 5.78211,9.87854c0,3.8553 -2.21071,7.34883 -5.78211,9.87852c-3.57139,2.5297 -8.50346,4.09558 -13.94616,4.09558c-5.4427,0 -10.37476,-1.56588 -13.94615,-4.09558c-3.57139,-2.5297 -5.78211,-6.02323 -5.78211,-9.87852c0,-3.8553 2.21071,-7.34884 5.78211,-9.87854c3.57139,-2.5297 8.50345,-4.09558 13.94615,-4.09558c5.4427,0 10.37477,1.56588 13.94616,4.09558z" data-paper-data="{&quot;origPos&quot;:null}" fill="url(#color-65)"/><path d="M351.18679,215.83277c3.57139,2.5297 5.78211,6.02324 5.78211,9.87853c0,3.8553 -2.21071,7.34883 -5.78211,9.87852c-3.57139,2.5297 -8.50346,4.09558 -13.94616,4.09558c-5.4427,0 -10.37477,-1.56589 -13.94616,-4.09558c-3.57139,-2.5297 -5.78211,-6.02322 -5.78211,-9.87852c0,-3.8553 2.21071,-7.34884 5.78211,-9.87853c3.57139,-2.5297 8.50346,-4.09557 13.94616,-4.09557c5.4427,0 10.37477,1.56588 13.94616,4.09557z" data-paper-data="{&quot;origPos&quot;:null}" fill="url(#color-66)"/><path d="M371.1066,230.19502c3.57139,2.5297 5.78211,6.02323 5.78211,9.87853c0,3.8553 -2.21071,7.34884 -5.78211,9.87853c-3.57139,2.5297 -8.50345,4.09557 -13.94615,4.09557c-5.4427,0 -10.37477,-1.56588 -13.94616,-4.09557c-3.57139,-2.5297 -5.78211,-6.02323 -5.78211,-9.87853c0,-3.8553 2.21071,-7.34883 5.78211,-9.87853c3.57139,-2.5297 8.50346,-4.09557 13.94616,-4.09557c5.4427,0 10.37476,1.56588 13.94615,4.09557z" data-paper-data="{&quot;origPos&quot;:null}" fill="url(#color-67)"/><path d="M352.33602,238.73477c3.57139,2.5297 5.78211,6.02322 5.78211,9.87852c0,3.8553 -2.21071,7.34884 -5.78211,9.87854c-3.57139,2.5297 -8.50346,4.09557 -13.94616,4.09557c-5.4427,0 -10.37477,-1.56588 -13.94616,-4.09557c-3.57139,-2.5297 -5.78211,-6.02324 -5.78211,-9.87854c0,-3.8553 2.21071,-7.34883 5.78211,-9.87852c3.57139,-2.5297 8.50346,-4.09558 13.94616,-4.09558c5.4427,0 10.37477,1.56588 13.94616,4.09558z" data-paper-data="{&quot;origPos&quot;:null}" fill="url(#color-68)"/><path d="M421.09763,219.32629c3.57139,2.5297 5.78211,6.02322 5.78211,9.87852c0,3.8553 -2.21071,7.34884 -5.78211,9.87853c-3.57139,2.5297 -8.50345,4.09559 -13.94615,4.09559c-5.4427,0 -10.37477,-1.56589 -13.94616,-4.09558c-3.57139,-2.5297 -5.78211,-6.02323 -5.78211,-9.87853c0,-3.8553 2.21071,-7.34883 5.78211,-9.87852c3.57139,-2.5297 8.50346,-4.09557 13.94616,-4.09557c5.4427,0 10.37476,1.56588 13.94615,4.09557z" data-paper-data="{&quot;origPos&quot;:null}" fill="url(#color-69)"/><path d="M366.31818,253.09702c3.57139,2.5297 5.78211,6.02323 5.78211,9.87853c0,3.8553 -2.21071,7.34883 -5.78211,9.87853c-3.57139,2.5297 -8.50345,4.09557 -13.94615,4.09557c-5.4427,0 -10.37477,-1.56588 -13.94616,-4.09557c-3.57139,-2.5297 -5.78211,-6.02323 -5.78211,-9.87853c0,-3.8553 2.21071,-7.34883 5.78211,-9.87853c3.57139,-2.5297 8.50346,-4.09558 13.94616,-4.09558c5.4427,0 10.37476,1.56588 13.94615,4.09558z" data-paper-data="{&quot;origPos&quot;:null}" fill="url(#color-70)"/><path d="M395.81481,239.12292c3.57139,2.5297 5.78211,6.02323 5.78211,9.87852c0,3.8553 -2.21071,7.34883 -5.78211,9.87853c-3.57139,2.5297 -8.50345,4.09557 -13.94615,4.09557c-5.4427,0 -10.37477,-1.56588 -13.94616,-4.09557c-3.57139,-2.5297 -5.78211,-6.02323 -5.78211,-9.87853c0,-3.8553 2.21071,-7.34883 5.78211,-9.87852c3.57139,-2.5297 8.50346,-4.09557 13.94616,-4.09557c5.4427,0 10.37476,1.56588 13.94615,4.09557z" data-paper-data="{&quot;origPos&quot;:null}" fill="url(#color-71)"/><path d="M424.73682,239.89928c3.57139,2.5297 5.78211,6.02323 5.78211,9.87852c0,3.8553 -2.21072,7.34883 -5.78211,9.87852c-3.57139,2.5297 -8.50346,4.09558 -13.94616,4.09558c-5.4427,0 -10.37476,-1.56588 -13.94615,-4.09558c-3.57139,-2.5297 -5.78211,-6.02322 -5.78211,-9.87852c0,-3.8553 2.21071,-7.34883 5.78211,-9.87852c3.57139,-2.5297 8.50345,-4.09558 13.94615,-4.09558c5.4427,0 10.37477,1.56589 13.94616,4.09559z" data-paper-data="{&quot;origPos&quot;:null}" fill="url(#color-72)"/><path d="M416.50075,251.54437c3.57139,2.5297 5.78211,6.02323 5.78211,9.87852c0,3.8553 -2.21071,7.34884 -5.78211,9.87853c-3.57139,2.5297 -8.50346,4.09557 -13.94616,4.09557c-5.4427,0 -10.37477,-1.56588 -13.94616,-4.09557c-3.57139,-2.5297 -5.78211,-6.02323 -5.78211,-9.87853c0,-3.8553 2.21071,-7.34883 5.78211,-9.87852c3.57139,-2.5297 8.50346,-4.09558 13.94616,-4.09558c5.4427,0 10.37477,1.56588 13.94616,4.09558z" data-paper-data="{&quot;origPos&quot;:null}" fill="url(#color-73)"/><path d="M394.09098,254.26156c3.57139,2.5297 5.7821,6.02323 5.7821,9.87853c0,3.8553 -2.21071,7.34884 -5.7821,9.87853c-3.57139,2.5297 -8.50346,4.09557 -13.94616,4.09557c-5.4427,0 -10.37477,-1.56588 -13.94616,-4.09557c-3.57139,-2.5297 -5.78211,-6.02323 -5.78211,-9.87853c0,-3.8553 2.21071,-7.34883 5.78211,-9.87853c3.57139,-2.5297 8.50346,-4.09558 13.94616,-4.09558c5.4427,0 10.37477,1.56588 13.94616,4.09558z" data-paper-data="{&quot;origPos&quot;:null}" fill="url(#color-74)"/><path d="M349.27144,259.69593c3.57139,2.5297 5.78211,6.02323 5.78211,9.87853c0,3.8553 -2.21072,7.34883 -5.78211,9.87853c-3.57139,2.5297 -8.50345,4.09558 -13.94615,4.09558c-5.4427,0 -10.37476,-1.56588 -13.94615,-4.09558c-3.57139,-2.5297 -5.78211,-6.02323 -5.78211,-9.87853c0,-3.8553 2.21071,-7.34883 5.78211,-9.87853c3.57139,-2.5297 8.50345,-4.09558 13.94615,-4.09558c5.4427,0 10.37476,1.56588 13.94615,4.09558z" data-paper-data="{&quot;origPos&quot;:null}" fill="url(#color-75)"/><path d="M305.6011,262.8013c3.57139,2.5297 5.78211,6.02322 5.78211,9.87852c0,3.8553 -2.21072,7.34884 -5.78211,9.87853c-3.57139,2.5297 -8.50345,4.09558 -13.94615,4.09558c-5.4427,0 -10.37477,-1.56588 -13.94616,-4.09558c-3.57139,-2.5297 -5.78211,-6.02323 -5.78211,-9.87853c0,-3.8553 2.21071,-7.34882 5.78211,-9.87852c3.57139,-2.5297 8.50346,-4.09559 13.94616,-4.09559c5.4427,0 10.37476,1.56589 13.94615,4.09559z" data-paper-data="{&quot;origPos&quot;:null}" fill="url(#color-76)"/><path d="M428.56756,262.41312c3.57139,2.5297 5.78211,6.02323 5.78211,9.87853c0,3.8553 -2.21071,7.34884 -5.78211,9.87853c-3.57139,2.5297 -8.50345,4.09558 -13.94615,4.09558c-5.4427,0 -10.37477,-1.56588 -13.94616,-4.09558c-3.57139,-2.5297 -5.78211,-6.02323 -5.78211,-9.87853c0,-3.8553 2.21071,-7.34883 5.78211,-9.87853c3.57139,-2.5297 8.50346,-4.09557 13.94616,-4.09557c5.4427,0 10.37476,1.56588 13.94615,4.09557z" data-paper-data="{&quot;origPos&quot;:null}" fill="url(#color-77)"/></g></g></g><path d="M-1,152v0v-46v0z" fill="url(#color-78)" stroke="none" stroke-width="1.00312" stroke-linecap="butt"/><path d="M435.00001,221.9v31" fill="url(#color-79)" stroke="#242739" stroke-width="0.5" stroke-linecap="round"/><path d="M-7.64008,268.89095h500v156h-500z" fill="url(#color-80)" stroke="none" stroke-width="1.22826" stroke-linecap="butt"/><path d="M139.32941,103.32345l70.80968,20.33786l112.79677,-42.24545l26.97884,85.05084l80.47267,-15.93797l-25.03724,87.36991l25.03724,38.59908l-127.27265,-39.6423l-19.82115,41.72874l-95.9761,-32.33977l-77.19816,31.29656l-60.50667,-43.81518l65.72277,-57.37702l40.65627,-15.82238z" fill="url(#color-81)" stroke="#0e6e56" stroke-width="0" stroke-linecap="round"/><path d="M318.00001,84l-108.01882,47.01308l-64.26599,-21.95769l19.34347,57.54648l-43.16701,9.66862l-63.56448,56.26366l57.57347,40.75798l73.0192,-29.26155l92.68427,29.53645l18.56704,-38.56823l123.43138,38.13391l-25.64161,-38.76362l24.60228,-75.35616l75.09322,212.75681l-506.44574,-2.6731l-6.90495,-395.45316l510.68808,0.35653v395l-72.70809,-210l-77.17892,16.06843z" data-paper-data="{&quot;origPos&quot;:null}" fill="url(#color-82)" stroke="#735d3f" stroke-width="2.5" stroke-linecap="butt"/><path d="M188.65514,40.9287c0,0 -23.82883,-20.37542 -26.72625,-19.91378c-6.7209,1.0708 -5.60701,39.272 -10.06316,44.86925c-1.82045,2.28662 -15.93291,-32.7757 -41.46719,-44.86227c-22.62985,-10.71177 -17.00915,102.55367 -24.63627,101.20532c-1.11365,-0.19688 -9.56906,-67.55576 -15.0542,-76.74083c-5.85645,-9.80686 -42.94818,20.83449 -42.94818,20.83449c0,0 0.78816,-54.51787 -1.14661,-54.14107c-1.50505,0.29312 -23.8559,25.99192 -33.11471,24.38486c-14.27936,-2.47848 -15.28527,-33.23169 0.46971,-37.2398c25.97058,-6.60701 82.20684,-8.1931 121.7853,-8.1931c39.57846,0 115.17895,-5.61494 141.14954,0.99206c0,0 230.16488,1.86122 232.9232,5.68335c5.92949,8.21633 -33.47694,40.68474 -33.47694,47.55702c0,0 -17.81452,-32.84344 -30.20244,-32.94498c-9.88094,-0.08099 -19.19965,59.10071 -19.19965,59.10071c0,0 -29.55399,-54.59977 -40.34066,-55.26518c-16.08234,-0.99208 -15.72048,12.26129 -32.88577,14.33225c-12.47129,1.50463 -60.50886,-20.21914 -73.56347,-18.84579c-45.29824,4.7654 -71.50223,29.18751 -71.50223,29.18751z" fill="url(#color-83)" stroke="#65a96e" stroke-width="2" stroke-linecap="butt"/><path d="M418.63381,372.25447c0,0 8.4031,-63.106 8.64599,-96.48294c0.24682,-33.91587 -7.17666,-105.4214 -7.17666,-105.4214l3.33064,-12.86819l-2.56096,0.43689l2.69026,-5.06341l75.45658,3.42906v215.96999z" fill="url(#color-84)" stroke="#735d3f" stroke-width="0" stroke-linecap="butt"/></g></g></svg>