<svg version="1.1" xmlns="http://www.w3.org/2000/svg" xmlns:xlink="http://www.w3.org/1999/xlink" width="929.13133" height="280" viewBox="0,0,929.13133,280"><defs><linearGradient x1="240.5" y1="80" x2="240.5" y2="360" gradientUnits="userSpaceOnUse" id="color-1"><stop offset="0" stop-color="#aab0c1"/><stop offset="1" stop-color="#ffffff"/></linearGradient><linearGradient x1="464.5" y1="84" x2="464.5" y2="106" gradientUnits="userSpaceOnUse" id="color-2"><stop offset="0" stop-color="#ff5a00"/><stop offset="1" stop-color="#ff0000"/></linearGradient><linearGradient x1="143" y1="336.68312" x2="469" y2="336.68312" gradientUnits="userSpaceOnUse" id="color-3"><stop offset="0" stop-color="#c83908"/><stop offset="1" stop-color="#fef3e4"/></linearGradient><linearGradient x1="143" y1="302.47013" x2="469" y2="302.47013" gradientUnits="userSpaceOnUse" id="color-4"><stop offset="0" stop-color="#c83908"/><stop offset="1" stop-color="#fef3e4"/></linearGradient><linearGradient x1="143" y1="268.25714" x2="469" y2="268.25714" gradientUnits="userSpaceOnUse" id="color-5"><stop offset="0" stop-color="#c83908"/><stop offset="1" stop-color="#fef3e4"/></linearGradient><radialGradient cx="334.66819" cy="335.87905" r="5.29416" gradientUnits="userSpaceOnUse" id="color-6"><stop offset="0" stop-color="#e18e6c"/><stop offset="1" stop-color="#943a19"/></radialGradient><radialGradient cx="393.84741" cy="302.66607" r="5.29416" gradientUnits="userSpaceOnUse" id="color-7"><stop offset="0" stop-color="#e18e6c"/><stop offset="1" stop-color="#943a19"/></radialGradient><radialGradient cx="393.84741" cy="268.45308" r="5.29416" gradientUnits="userSpaceOnUse" id="color-8"><stop offset="0" stop-color="#e18e6c"/><stop offset="1" stop-color="#943a19"/></radialGradient><linearGradient x1="-114.50375" y1="96.58689" x2="-114.50375" y2="194.07129" gradientUnits="userSpaceOnUse" id="color-9"><stop offset="0" stop-color="#aab0c1"/><stop offset="1" stop-color="#ffffff"/></linearGradient><linearGradient x1="-22.50375" y1="101.07129" x2="-22.50375" y2="123.07129" gradientUnits="userSpaceOnUse" id="color-10"><stop offset="0" stop-color="#ff5a00"/><stop offset="1" stop-color="#ff0000"/></linearGradient><linearGradient x1="595.62758" y1="89.0822" x2="595.62758" y2="186.5666" gradientUnits="userSpaceOnUse" id="color-11"><stop offset="0" stop-color="#aab0c1"/><stop offset="1" stop-color="#ffffff"/></linearGradient></defs><g transform="translate(224.00375,-80)"><g data-paper-data="{&quot;isPaintingLayer&quot;:true}" fill-rule="nonzero" stroke-linejoin="miter" stroke-miterlimit="10" stroke-dasharray="" stroke-dashoffset="0" style="mix-blend-mode: normal"><path d="M0,360v-280h481v280z" data-paper-data="{&quot;origPos&quot;:null}" fill="url(#color-1)" stroke="none" stroke-width="NaN" stroke-linecap="butt"/><path d="M4,357v-247h472v247z" data-paper-data="{&quot;origPos&quot;:null}" fill="#ffffff" stroke="none" stroke-width="0" stroke-linecap="butt"/><path d="M4,171v-61h472v61z" data-paper-data="{&quot;origPos&quot;:null}" fill="#0057f0" stroke="none" stroke-width="0" stroke-linecap="butt"/><g data-paper-data="{&quot;origPos&quot;:null}" stroke="#ffffff"><path d="M453,106v-22h23v22z" data-paper-data="{&quot;origPos&quot;:null}" fill="url(#color-2)" stroke-width="1" stroke-linecap="butt"/><path d="M470.5,89.5l-12,11.5" data-paper-data="{&quot;origPos&quot;:null}" fill="none" stroke-width="1.5" stroke-linecap="round"/><path d="M471,101l-12,-11.5" data-paper-data="{&quot;origPos&quot;:null,&quot;index&quot;:null}" fill="none" stroke-width="1.5" stroke-linecap="round"/></g><text transform="translate(5,102) scale(0.5,0.5)" font-size="40" xml:space="preserve" data-paper-data="{&quot;origPos&quot;:null}" fill="#ffffff" fill-rule="nonzero" stroke="none" stroke-width="1" stroke-linecap="butt" stroke-linejoin="miter" stroke-miterlimit="10" stroke-dasharray="" stroke-dashoffset="0" font-family="Sans Serif" font-weight="normal" text-anchor="start" style="mix-blend-mode: normal"><tspan x="0" dy="0">Windows Security Center</tspan></text><text transform="translate(320,139) scale(0.5,0.5)" font-size="40" xml:space="preserve" data-paper-data="{&quot;origPos&quot;:null}" fill="#ffffff" fill-rule="nonzero" stroke="none" stroke-width="1" stroke-linecap="butt" stroke-linejoin="miter" stroke-miterlimit="10" stroke-dasharray="" stroke-dashoffset="0" font-family="Sans Serif" font-weight="normal" text-anchor="start" style="mix-blend-mode: normal"><tspan x="0" dy="0">Security Center</tspan></text><text transform="translate(343.14841,156.25) scale(0.30499,0.30499)" font-size="40" xml:space="preserve" data-paper-data="{&quot;origPos&quot;:null}" fill="#ffffff" fill-rule="nonzero" stroke="none" stroke-width="1" stroke-linecap="butt" stroke-linejoin="miter" stroke-miterlimit="10" stroke-dasharray="" stroke-dashoffset="0" font-family="Sans Serif" font-weight="normal" text-anchor="start" style="mix-blend-mode: normal"><tspan x="0" dy="0">Help protect your PC</tspan></text><g data-paper-data="{&quot;origPos&quot;:null}"><text transform="translate(142.12142,205.32338) scale(0.42863,0.44975)" font-size="40" xml:space="preserve" data-paper-data="{&quot;origPos&quot;:null}" fill="#000000" fill-rule="nonzero" stroke="none" stroke-width="1" stroke-linecap="butt" stroke-linejoin="miter" stroke-miterlimit="10" stroke-dasharray="" stroke-dashoffset="0" font-family="Sans Serif" font-weight="normal" text-anchor="start" style="mix-blend-mode: normal"><tspan x="0" dy="0">Security Essentials</tspan></text><text transform="translate(142.12142,219.29136) scale(0.1766,0.1853)" font-size="40" xml:space="preserve" data-paper-data="{&quot;origPos&quot;:null}" fill="#000000" fill-rule="nonzero" stroke="none" stroke-width="1" stroke-linecap="butt" stroke-linejoin="miter" stroke-miterlimit="10" stroke-dasharray="" stroke-dashoffset="0" font-family="Sans Serif" font-weight="normal" text-anchor="start" style="mix-blend-mode: normal"><tspan x="0" dy="0">Security Center helps you manage your Windows security settings. To help protect your computer,</tspan><tspan x="0" dy="46.15px">make sure the three security essentials are marked ON. If the settings are not ON, follow the</tspan><tspan x="0" dy="46.15px">recommendations. To return to the Security Center later, open Control Panel.</tspan></text><path d="M143,351.94026v-30.51429h326v30.51429z" data-paper-data="{&quot;origPos&quot;:null}" fill="url(#color-3)" stroke="none" stroke-width="0" stroke-linecap="butt"/><path d="M143,317.72728v-30.51429h326v30.51429z" data-paper-data="{&quot;origPos&quot;:null}" fill="url(#color-4)" stroke="none" stroke-width="0" stroke-linecap="butt"/><path d="M143,283.51428v-30.51428h326v30.51428z" data-paper-data="{&quot;origPos&quot;:null}" fill="url(#color-5)" stroke="none" stroke-width="0" stroke-linecap="butt"/><g data-paper-data="{&quot;origPos&quot;:null}" stroke="none" stroke-linecap="butt"><path d="M329.37403,335.87905c0,-2.92388 2.37027,-5.29416 5.29416,-5.29416c2.92388,0 5.29416,2.37028 5.29416,5.29416c0,2.92388 -2.37028,5.29416 -5.29416,5.29416c-2.92388,0 -5.29416,-2.37027 -5.29416,-5.29416z" data-paper-data="{&quot;origPos&quot;:null}" fill="url(#color-6)" stroke-width="0"/><text transform="translate(343.2712,340.51144) scale(0.33089,0.33089)" font-size="40" xml:space="preserve" data-paper-data="{&quot;origPos&quot;:null}" fill="#963c1b" fill-rule="nonzero" stroke="none" stroke-width="1" stroke-linecap="butt" stroke-linejoin="miter" stroke-miterlimit="10" stroke-dasharray="" stroke-dashoffset="0" font-family="Sans Serif" font-weight="normal" text-anchor="start" style="mix-blend-mode: normal"><tspan x="0" dy="0">OUT OF DATE</tspan></text></g><path d="M438.48572,348.24156v-23.11688" data-paper-data="{&quot;origPos&quot;:null}" fill="none" stroke="#ebb398" stroke-width="1.5" stroke-linecap="round"/><g data-paper-data="{&quot;origPos&quot;:null}" stroke="#c7c7c7" stroke-width="1.5"><path d="M445.9987,336.68312c0,-4.34082 3.51892,-7.85974 7.85974,-7.85974c4.34082,0 7.85974,3.51892 7.85974,7.85974c0,4.34082 -3.51893,7.85974 -7.85974,7.85974c-4.34082,0 -7.85974,-3.51892 -7.85974,-7.85974z" data-paper-data="{&quot;origPos&quot;:null}" fill="#e9e9e9" stroke-linecap="butt"/><g data-paper-data="{&quot;origPos&quot;:null}" fill="none" stroke-linecap="round"><path d="M449.95813,340.72858l3.87032,-3.58005l4.25736,3.48329" data-paper-data="{&quot;origPos&quot;:null}"/><path d="M449.81299,335.79391l3.87033,-3.58006l4.25736,3.48329" data-paper-data="{&quot;origPos&quot;:null}"/></g></g><text transform="translate(150.47273,341.84034) scale(0.41098,0.41098)" font-size="40" xml:space="preserve" data-paper-data="{&quot;origPos&quot;:null}" fill="#ffffff" fill-rule="nonzero" stroke="none" stroke-width="1" stroke-linecap="butt" stroke-linejoin="miter" stroke-miterlimit="10" stroke-dasharray="" stroke-dashoffset="0" font-family="Sans Serif" font-weight="normal" text-anchor="start" style="mix-blend-mode: normal"><tspan x="0" dy="0">Virus Protection</tspan></text><g data-paper-data="{&quot;origPos&quot;:null}" stroke="none" stroke-linecap="butt"><path d="M388.55325,302.66607c0,-2.92388 2.37027,-5.29416 5.29416,-5.29416c2.92388,0 5.29416,2.37027 5.29416,5.29416c0,2.92388 -2.37028,5.29416 -5.29416,5.29416c-2.92388,0 -5.29416,-2.37027 -5.29416,-5.29416z" data-paper-data="{&quot;origPos&quot;:null}" fill="url(#color-7)" stroke-width="0"/><text transform="translate(402.45042,307.29845) scale(0.33089,0.33089)" font-size="40" xml:space="preserve" data-paper-data="{&quot;origPos&quot;:null}" fill="#963c1b" fill-rule="nonzero" stroke="none" stroke-width="1" stroke-linecap="butt" stroke-linejoin="miter" stroke-miterlimit="10" stroke-dasharray="" stroke-dashoffset="0" font-family="Sans Serif" font-weight="normal" text-anchor="start" style="mix-blend-mode: normal"><tspan x="0" dy="0">OFF</tspan></text></g><path d="M438.48572,290.91169v23.11688" data-paper-data="{&quot;origPos&quot;:null}" fill="none" stroke="#ebb398" stroke-width="1.5" stroke-linecap="round"/><g data-paper-data="{&quot;origPos&quot;:null}" stroke="#c7c7c7" stroke-width="1.5"><path d="M445.9987,302.47013c0,-4.34082 3.51892,-7.85974 7.85974,-7.85974c4.34082,0 7.85974,3.51892 7.85974,7.85974c0,4.34082 -3.51893,7.85974 -7.85974,7.85974c-4.34082,0 -7.85974,-3.51893 -7.85974,-7.85974z" data-paper-data="{&quot;origPos&quot;:null}" fill="#e9e9e9" stroke-linecap="butt"/><g data-paper-data="{&quot;origPos&quot;:null}" fill="none" stroke-linecap="round"><path d="M449.95813,306.51559l3.87032,-3.58005l4.25736,3.48329" data-paper-data="{&quot;origPos&quot;:null}"/><path d="M449.81298,301.58093l3.87033,-3.58006l4.25736,3.48329" data-paper-data="{&quot;origPos&quot;:null}"/></g></g><text transform="translate(150.47273,307.62736) scale(0.41097,0.41097)" font-size="40" xml:space="preserve" data-paper-data="{&quot;origPos&quot;:null}" fill="#ffffff" fill-rule="nonzero" stroke="none" stroke-width="1" stroke-linecap="butt" stroke-linejoin="miter" stroke-miterlimit="10" stroke-dasharray="" stroke-dashoffset="0" font-family="Sans Serif" font-weight="normal" text-anchor="start" style="mix-blend-mode: normal"><tspan x="0" dy="0">Automatic Updates</tspan></text><g data-paper-data="{&quot;origPos&quot;:null}" stroke="none" stroke-linecap="butt"><path d="M388.55325,268.45308c0,-2.92388 2.37027,-5.29416 5.29416,-5.29416c2.92388,0 5.29416,2.37028 5.29416,5.29416c0,2.92388 -2.37028,5.29415 -5.29416,5.29415c-2.92388,0 -5.29416,-2.37027 -5.29416,-5.29415z" data-paper-data="{&quot;origPos&quot;:null}" fill="url(#color-8)" stroke-width="0"/><text transform="translate(402.45042,273.08547) scale(0.33089,0.33089)" font-size="40" xml:space="preserve" data-paper-data="{&quot;origPos&quot;:null}" fill="#963c1b" fill-rule="nonzero" stroke="none" stroke-width="1" stroke-linecap="butt" stroke-linejoin="miter" stroke-miterlimit="10" stroke-dasharray="" stroke-dashoffset="0" font-family="Sans Serif" font-weight="normal" text-anchor="start" style="mix-blend-mode: normal"><tspan x="0" dy="0">OFF</tspan></text></g><path d="M438.48572,279.81558v-23.11688" data-paper-data="{&quot;origPos&quot;:null}" fill="none" stroke="#ebb398" stroke-width="1.5" stroke-linecap="round"/><g data-paper-data="{&quot;origPos&quot;:null}" stroke="#c7c7c7" stroke-width="1.5"><path d="M445.9987,268.25714c0,-4.34082 3.51892,-7.85974 7.85974,-7.85974c4.34082,0 7.85974,3.51892 7.85974,7.85974c0,4.34082 -3.51893,7.85974 -7.85974,7.85974c-4.34082,0 -7.85974,-3.51893 -7.85974,-7.85974z" data-paper-data="{&quot;origPos&quot;:null}" fill="#e9e9e9" stroke-linecap="butt"/><g data-paper-data="{&quot;origPos&quot;:null}" fill="none" stroke-linecap="round"><path d="M449.95813,272.3026l3.87032,-3.58005l4.25736,3.48329" data-paper-data="{&quot;origPos&quot;:null}"/><path d="M449.81298,267.36794l3.87033,-3.58006l4.25736,3.48329" data-paper-data="{&quot;origPos&quot;:null}"/></g></g><text transform="translate(150.47273,273.41436) scale(0.41097,0.41097)" font-size="40" xml:space="preserve" data-paper-data="{&quot;origPos&quot;:null}" fill="#ffffff" fill-rule="nonzero" stroke="none" stroke-width="1" stroke-linecap="butt" stroke-linejoin="miter" stroke-miterlimit="10" stroke-dasharray="" stroke-dashoffset="0" font-family="Sans Serif" font-weight="normal" text-anchor="start" style="mix-blend-mode: normal"><tspan x="0" dy="0">Firewall</tspan></text><path d="M10,351v-162.33333h127v162.33334z" data-paper-data="{&quot;origPos&quot;:null}" fill="#f0f3ff" stroke="#b1bad3" stroke-width="1" stroke-linecap="butt"/><path d="M10.66667,208l3.66667,-25h123.33334v25z" data-paper-data="{&quot;origPos&quot;:null}" fill="#a2b4ff" stroke="#768fd4" stroke-width="1" stroke-linecap="butt"/><text transform="translate(36,200.59753) scale(0.3719,0.3719)" font-size="40" xml:space="preserve" data-paper-data="{&quot;origPos&quot;:null}" fill="#4156ad" fill-rule="nonzero" stroke="none" stroke-width="1" stroke-linecap="butt" stroke-linejoin="miter" stroke-miterlimit="10" stroke-dasharray="" stroke-dashoffset="0" font-family="Sans Serif" font-weight="normal" text-anchor="start" style="mix-blend-mode: normal"><tspan x="0" dy="0">Resources</tspan></text><text transform="translate(15,222.75) scale(0.17497,0.17497)" font-size="40" xml:space="preserve" data-paper-data="{&quot;origPos&quot;:null}" fill="#4156ad" fill-rule="nonzero" stroke="none" stroke-width="1" stroke-linecap="butt" stroke-linejoin="miter" stroke-miterlimit="10" stroke-dasharray="" stroke-dashoffset="0" font-family="Sans Serif" font-weight="normal" text-anchor="start" style="mix-blend-mode: normal"><tspan x="0" dy="0">- Get the latest security and virus</tspan><tspan x="0" dy="46.15px">  information from Microsoft</tspan><tspan x="0" dy="46.15px"> </tspan><tspan x="0" dy="46.15px">- Check for the latest updates from</tspan><tspan x="0" dy="46.15px">  Windows Update</tspan><tspan x="0" dy="46.15px"> </tspan><tspan x="0" dy="46.15px">- Get support for security-related</tspan><tspan x="0" dy="46.15px">  issues</tspan><tspan x="0" dy="46.15px"> </tspan><tspan x="0" dy="46.15px">- Get help about Security Center</tspan><tspan x="0" dy="46.15px"> </tspan><tspan x="0" dy="46.15px">- Change the way Security Center</tspan><tspan x="0" dy="46.15px">  alerts me</tspan></text><g data-paper-data="{&quot;origPos&quot;:null}" stroke="#c7c7c7" stroke-width="1.5"><path d="M117.9987,195.25715c0,-4.34082 3.51892,-7.85974 7.85974,-7.85974c4.34082,0 7.85974,3.51892 7.85974,7.85974c0,4.34082 -3.51893,7.85974 -7.85974,7.85974c-4.34082,0 -7.85974,-3.51893 -7.85974,-7.85974z" data-paper-data="{&quot;origPos&quot;:null}" fill="#e9e9e9" stroke-linecap="butt"/><g data-paper-data="{&quot;origPos&quot;:null}" fill="none" stroke-linecap="round"><path d="M121.95813,199.3026l3.87032,-3.58005l4.25736,3.48329" data-paper-data="{&quot;origPos&quot;:null}"/><path d="M121.81298,194.36794l3.87033,-3.58006l4.25736,3.48329" data-paper-data="{&quot;origPos&quot;:null}"/></g></g><g data-paper-data="{&quot;origPos&quot;:null}" stroke="none" stroke-linecap="butt"><path d="M34.14778,195.79617c0,8.17171 -6.51854,14.79618 -14.55959,14.79618c-8.04104,0 -14.55959,-6.62448 -14.55959,-14.79618c0,-5.28314 1.54849,-8.51352 5.71875,-11.75705c2.93336,-2.28149 5.12468,-3.03912 8.84084,-3.03912c8.04105,0 14.55959,6.62446 14.55959,14.79617z" data-paper-data="{&quot;origPos&quot;:null}" fill="#2f9aeb" stroke-width="0"/><text transform="translate(14.53691,204.89626) scale(0.59867,0.64809)" font-size="40" xml:space="preserve" data-paper-data="{&quot;origPos&quot;:null}" fill="#ffffff" fill-rule="nonzero" stroke="none" stroke-width="1" stroke-linecap="butt" stroke-linejoin="miter" stroke-miterlimit="10" stroke-dasharray="" stroke-dashoffset="0" font-family="Sans Serif" font-weight="normal" text-anchor="start" style="mix-blend-mode: normal"><tspan x="0" dy="0">?</tspan></text></g></g><g><path d="M-224.00375,194.07129v-97.4844h219v97.4844z" data-paper-data="{&quot;origPos&quot;:null}" fill="url(#color-9)" stroke="none" stroke-width="NaN" stroke-linecap="butt"/><path d="M-220.00375,189.07129v-60.89407h210v60.89407z" data-paper-data="{&quot;origPos&quot;:null}" fill="#ffffff" stroke="none" stroke-width="0" stroke-linecap="butt"/><g data-paper-data="{&quot;origPos&quot;:null}" stroke="#ffffff"><path d="M-34.00375,123.07129v-22h23v22z" data-paper-data="{&quot;origPos&quot;:null}" fill="url(#color-10)" stroke-width="1" stroke-linecap="butt"/><path d="M-16.50375,106.57129l-12,11.5" data-paper-data="{&quot;origPos&quot;:null}" fill="none" stroke-width="1.5" stroke-linecap="round"/><path d="M-28.00375,106.57129l12,11.5" data-paper-data="{&quot;origPos&quot;:null,&quot;index&quot;:null}" fill="none" stroke-width="1.5" stroke-linecap="round"/></g><text transform="translate(-219.00375,118.07129) scale(0.5,0.5)" font-size="40" xml:space="preserve" data-paper-data="{&quot;origPos&quot;:null}" fill="#ffffff" fill-rule="nonzero" stroke="none" stroke-width="1" stroke-linecap="butt" stroke-linejoin="miter" stroke-miterlimit="10" stroke-dasharray="" stroke-dashoffset="0" font-family="Sans Serif" font-weight="normal" text-anchor="start" style="mix-blend-mode: normal"><tspan x="0" dy="0">Control Panel</tspan></text><text transform="translate(-210.00375,153.56106) scale(0.48526,0.48526)" font-size="40" xml:space="preserve" data-paper-data="{&quot;origPos&quot;:null}" fill="#000000" fill-rule="nonzero" stroke="none" stroke-width="1" stroke-linecap="butt" stroke-linejoin="miter" stroke-miterlimit="10" stroke-dasharray="" stroke-dashoffset="0" font-family="Sans Serif" font-weight="normal" text-anchor="start" style="mix-blend-mode: normal"><tspan x="0" dy="0">Visual Style</tspan><tspan x="0" dy="46.15px">successfully applied.</tspan></text></g><g stroke="none" stroke-linecap="butt"><path d="M486.12758,186.5666v-97.4844h219v97.4844z" data-paper-data="{&quot;origPos&quot;:null}" fill="url(#color-11)" stroke-width="NaN"/><path d="M490.12758,181.5666v-60.89407h210v60.89407z" data-paper-data="{&quot;origPos&quot;:null}" fill="#ffffff" stroke-width="0"/><g data-paper-data="{&quot;origPos&quot;:null}" fill="none" stroke-width="1" font-family="sans-serif" font-weight="normal" font-size="12" text-anchor="start"/><text transform="translate(491.12758,110.5666) scale(0.5,0.5)" font-size="40" xml:space="preserve" data-paper-data="{&quot;origPos&quot;:null}" fill="#ffffff" fill-rule="nonzero" stroke="none" stroke-width="1" stroke-linecap="butt" stroke-linejoin="miter" stroke-miterlimit="10" stroke-dasharray="" stroke-dashoffset="0" font-family="Sans Serif" font-weight="normal" text-anchor="start" style="mix-blend-mode: normal"><tspan x="0" dy="0">Error</tspan></text><text transform="translate(500.12758,146.05637) scale(0.48526,0.48526)" font-size="40" xml:space="preserve" data-paper-data="{&quot;origPos&quot;:null}" fill="#000000" fill-rule="nonzero" stroke="none" stroke-width="1" stroke-linecap="butt" stroke-linejoin="miter" stroke-miterlimit="10" stroke-dasharray="" stroke-dashoffset="0" font-family="Sans Serif" font-weight="normal" text-anchor="start" style="mix-blend-mode: normal"><tspan x="0" dy="0">Visual Style</tspan><tspan x="0" dy="46.15px">successfully applied.</tspan></text></g></g></g></svg>