<svg version="1.1" xmlns="http://www.w3.org/2000/svg" xmlns:xlink="http://www.w3.org/1999/xlink" width="661.17472" height="880.25578" viewBox="0,0,661.17472,880.25578"><defs><linearGradient x1="137.56758" y1="346.54407" x2="137.56758" y2="498.19572" gradientUnits="userSpaceOnUse" id="color-1"><stop offset="0" stop-color="#af9141"/><stop offset="1" stop-color="#ddb747"/></linearGradient><linearGradient x1="548.18217" y1="349.93994" x2="548.18217" y2="839.03656" gradientUnits="userSpaceOnUse" id="color-2"><stop offset="0" stop-color="#af9141"/><stop offset="1" stop-color="#ddb747"/></linearGradient><linearGradient x1="301.23123" y1="-39.21922" x2="301.23123" y2="37.35736" gradientUnits="userSpaceOnUse" id="color-3"><stop offset="0" stop-color="#af9141"/><stop offset="1" stop-color="#ddb747"/></linearGradient><linearGradient x1="118.56926" y1="284.94187" x2="118.56926" y2="296.95388" gradientUnits="userSpaceOnUse" id="color-4"><stop offset="0" stop-color="#af9141"/><stop offset="1" stop-color="#ddb747"/></linearGradient><linearGradient x1="210.9116" y1="232.38932" x2="210.9116" y2="250.40733" gradientUnits="userSpaceOnUse" id="color-5"><stop offset="0" stop-color="#af9141"/><stop offset="1" stop-color="#ddb747"/></linearGradient><linearGradient x1="366.31701" y1="218.8758" x2="366.31701" y2="233.89082" gradientUnits="userSpaceOnUse" id="color-6"><stop offset="0" stop-color="#af9141"/><stop offset="1" stop-color="#ddb747"/></linearGradient><linearGradient x1="520.97166" y1="270.30373" x2="520.97166" y2="275.55899" gradientUnits="userSpaceOnUse" id="color-7"><stop offset="0" stop-color="#af9141"/><stop offset="1" stop-color="#ddb747"/></linearGradient></defs><g transform="translate(11.51951,40.21922)"><g data-paper-data="{&quot;isPaintingLayer&quot;:true}" fill-rule="nonzero" stroke="#91773e" stroke-width="2" stroke-linecap="butt" stroke-linejoin="miter" stroke-miterlimit="10" stroke-dasharray="" stroke-dashoffset="0" style="mix-blend-mode: normal"><path d="M-10.51951,498.19572v-151.65165h235.17417v151.65165z" data-paper-data="{&quot;index&quot;:null}" fill="url(#color-1)"/><path d="M512.85083,839.03656v-489.09663h135.66269l-65,489.09663z" data-paper-data="{&quot;index&quot;:null}" fill="url(#color-2)"/><path d="M-5.05105,37.35736v-76.57658h651.56456v76.57658z" fill="url(#color-3)"/><path d="M88.53923,296.95388v-12.01201h60.06006v12.01201z" fill="url(#color-4)"/><path d="M195.14584,250.40733v-18.01802h31.53153v18.01802z" fill="url(#color-5)"/><path d="M261.2119,233.89082v-15.01502h210.21021v15.01502z" fill="url(#color-6)"/><path d="M505.95665,275.55899v-5.25526h30.03003v5.25526z" fill="url(#color-7)"/></g></g></svg>