<svg version="1.1" xmlns="http://www.w3.org/2000/svg" xmlns:xlink="http://www.w3.org/1999/xlink" width="693.72442" height="277.42498" viewBox="0,0,693.72442,277.42498"><g transform="translate(26.86221,-126.54408)"><g data-paper-data="{&quot;isPaintingLayer&quot;:true}" fill-rule="nonzero" stroke="none" stroke-linecap="butt" stroke-linejoin="miter" stroke-miterlimit="10" stroke-dasharray="" stroke-dashoffset="0" style="mix-blend-mode: normal"><path d="M211.57697,300.11928l60.52049,-31.53843l95.47685,-0.11539l60.96413,31.65382z" data-paper-data="{&quot;index&quot;:null}" fill="#ececec" stroke-width="0"/><path d="M76,299.66546h487v74h-487z" data-paper-data="{&quot;origPos&quot;:null,&quot;index&quot;:null}" fill="#ececec" stroke-width="1"/><path d="M168.7,334.16546v-34.5h43.5v34.5z" data-paper-data="{&quot;origPos&quot;:null,&quot;index&quot;:null}" fill="#616161" stroke-width="0"/><path d="M427.8,334.16546v-34.5h43.5v34.5z" data-paper-data="{&quot;index&quot;:null}" fill="#616161" stroke-width="0"/><path d="M255.5,310.46546v-33.1l16.84246,-8.98067l26.65755,0.08067v42z" data-paper-data="{&quot;index&quot;:null}" fill="#616161" stroke-width="0"/><path d="M299,360.96546v-50.5h42.25v50.5z" data-paper-data="{&quot;index&quot;:null}" fill="#616161" stroke-width="0"/><path d="M79.69069,311.59789l0.51839,-36.47748l44.58161,24v35z" data-paper-data="{&quot;index&quot;:null}" fill="#616161" stroke-width="0"/><path d="M212.16667,369.46546v-35l43,-24l0.5,59z" data-paper-data="{&quot;origPos&quot;:null,&quot;index&quot;:null}" fill="#616161" stroke-width="0"/><path d="M384.5,369.96546l0.5,-59l43,24v35z" data-paper-data="{&quot;origPos&quot;:null,&quot;index&quot;:null}" fill="#616161" stroke-width="0"/><path d="M471.25721,368.69399v-34.5h43.5v34.5z" data-paper-data="{&quot;index&quot;:null}" fill="#616161" stroke-width="0"/><path d="M125.00135,368.58949v-34.5h43.5v34.5z" data-paper-data="{&quot;index&quot;:null}" fill="#616161" stroke-width="0"/><path d="M514.79219,334.23633v-35l45.37241,-24l0.52758,36.47748z" data-paper-data="{&quot;index&quot;:null}" fill="#616161" stroke-width="0"/><path d="M341.375,310.46546v-42l26.65755,-0.08067l16.84246,8.98067v33.1z" data-paper-data="{&quot;index&quot;:null}" fill="#616161" stroke-width="0"/><path d="M79.69069,381.33062l0.51839,-36.47748l44.58161,24v35z" data-paper-data="{&quot;index&quot;:null}" fill="#616161" stroke-width="0"/><path d="M514.79219,403.96906v-35l45.37241,-24l0.52758,36.47748z" data-paper-data="{&quot;index&quot;:null}" fill="#616161" stroke-width="0"/><path d="M-26.86221,379.44872v-103.68349h107.09413v103.68349z" fill="#ececec" stroke-width="0"/><path d="M559.76807,379.44872v-103.68349h107.09414v103.6835z" fill="#ececec" stroke-width="0"/><path d="M284.39972,143.15716v-16.61308h22.50804v16.61308z" fill="none" stroke-width="0"/><path d="M38.04312,345.10327v-33.46178h42.29294v33.46178z" data-paper-data="{&quot;index&quot;:null}" fill="#616161" stroke-width="0"/><path d="M-3.56671,311.67899v-35.93271h42.29294v35.93271z" data-paper-data="{&quot;index&quot;:null}" fill="#616161" stroke-width="0"/><path d="M-3.56671,344.9214v34.98444h42.29294v-34.98444z" data-paper-data="{&quot;index&quot;:null}" fill="#616161" stroke-width="0"/><path d="M560.00851,345.10327v-33.46178h42.29294v33.46178z" data-paper-data="{&quot;index&quot;:null}" fill="#616161" stroke-width="0"/><path d="M601.61834,311.67899v-35.93271h42.29294v35.93271z" data-paper-data="{&quot;index&quot;:null}" fill="#616161" stroke-width="0"/><path d="M643.91128,344.9214v34.98444h-42.29294v-34.98444z" data-paper-data="{&quot;index&quot;:null}" fill="#616161" stroke-width="0"/></g></g></svg>