<svg version="1.1" xmlns="http://www.w3.org/2000/svg" xmlns:xlink="http://www.w3.org/1999/xlink" width="568.06607" height="422.71449" viewBox="0,0,568.06607,422.71449"><defs><linearGradient x1="2.30536" y1="382.45751" x2="2.30536" y2="341.54262" gradientUnits="userSpaceOnUse" id="color-1"><stop offset="0" stop-color="#af9141"/><stop offset="1" stop-color="#ddb747"/></linearGradient><linearGradient x1="122.30538" y1="382.45751" x2="122.30538" y2="341.54262" gradientUnits="userSpaceOnUse" id="color-2"><stop offset="0" stop-color="#af9141"/><stop offset="1" stop-color="#ddb747"/></linearGradient><linearGradient x1="244.30539" y1="382.45751" x2="244.30539" y2="341.54262" gradientUnits="userSpaceOnUse" id="color-3"><stop offset="0" stop-color="#af9141"/><stop offset="1" stop-color="#ddb747"/></linearGradient><linearGradient x1="360.3054" y1="382.45751" x2="360.3054" y2="341.54262" gradientUnits="userSpaceOnUse" id="color-4"><stop offset="0" stop-color="#af9141"/><stop offset="1" stop-color="#ddb747"/></linearGradient><linearGradient x1="-12.05995" y1="-17.23596" x2="-12.05995" y2="271.05233" gradientUnits="userSpaceOnUse" id="color-5"><stop offset="0" stop-color="#af9141"/><stop offset="1" stop-color="#ddb747"/></linearGradient><linearGradient x1="465.41752" y1="-38.25698" x2="465.41752" y2="275.55683" gradientUnits="userSpaceOnUse" id="color-6"><stop offset="0" stop-color="#af9141"/><stop offset="1" stop-color="#ddb747"/></linearGradient><linearGradient x1="122.49475" y1="231.1304" x2="122.49475" y2="250.1304" gradientUnits="userSpaceOnUse" id="color-7"><stop offset="0" stop-color="#af9141"/><stop offset="1" stop-color="#ddb747"/></linearGradient><linearGradient x1="60.99475" y1="144.1304" x2="60.99475" y2="163.1304" gradientUnits="userSpaceOnUse" id="color-8"><stop offset="0" stop-color="#af9141"/><stop offset="1" stop-color="#ddb747"/></linearGradient><linearGradient x1="221.99475" y1="104.1304" x2="221.99475" y2="135.1304" gradientUnits="userSpaceOnUse" id="color-9"><stop offset="0" stop-color="#af9141"/><stop offset="1" stop-color="#ddb747"/></linearGradient><linearGradient x1="352.99475" y1="73.1304" x2="352.99475" y2="101.1304" gradientUnits="userSpaceOnUse" id="color-10"><stop offset="0" stop-color="#af9141"/><stop offset="1" stop-color="#ddb747"/></linearGradient></defs><g transform="translate(56.6035,39.25698)"><g data-paper-data="{&quot;isPaintingLayer&quot;:true}" fill-rule="nonzero" stroke="#91773e" stroke-width="2" stroke-linecap="butt" stroke-linejoin="miter" stroke-miterlimit="10" stroke-dasharray="" stroke-dashoffset="0" style="mix-blend-mode: normal"><path d="M2.30536,341.54262h120.33v40.91489h-120.33z" data-paper-data="{&quot;index&quot;:null}" fill="url(#color-1)"/><path d="M122.30538,341.54262h120.33v40.91489h-120.33z" data-paper-data="{&quot;index&quot;:null}" fill="url(#color-2)"/><path d="M244.30539,341.54262h120.33v40.91489h-120.33z" data-paper-data="{&quot;index&quot;:null}" fill="url(#color-3)"/><path d="M360.3054,341.54262h133.33v40.91489h-133.33z" data-paper-data="{&quot;index&quot;:null}" fill="url(#color-4)"/><path d="M-55.6035,271.05233v-288.28829h87.08709v288.28829z" fill="url(#color-5)"/><path d="M420.37248,275.55683v-313.81381h90.09009v313.81381z" fill="url(#color-6)"/><path d="M71.99475,250.1304v-19h101v19z" fill="url(#color-7)"/><path d="M32.99475,163.1304v-19h56v19z" fill="url(#color-8)"/><path d="M177.99475,135.1304v-31h88v31z" fill="url(#color-9)"/><path d="M293.99475,101.1304v-28h118v28z" fill="url(#color-10)"/></g></g></svg>