<svg version="1.1" xmlns="http://www.w3.org/2000/svg" xmlns:xlink="http://www.w3.org/1999/xlink" width="141.62069" height="181.96432" viewBox="0,0,141.62069,181.96432"><defs><linearGradient x1="238.77798" y1="249.03041" x2="277.15283" y2="249.03041" gradientUnits="userSpaceOnUse" id="color-1"><stop offset="0" stop-color="#643a19"/><stop offset="1" stop-color="#9b663d"/></linearGradient><linearGradient x1="197.37795" y1="242.82527" x2="234.43081" y2="242.82527" gradientUnits="userSpaceOnUse" id="color-2"><stop offset="0" stop-color="#643a19"/><stop offset="1" stop-color="#9b663d"/></linearGradient><linearGradient x1="237.72749" y1="166.56258" x2="237.72749" y2="222.09464" gradientUnits="userSpaceOnUse" id="color-3"><stop offset="0" stop-color="#2a2a84"/><stop offset="1" stop-color="#262675"/></linearGradient><linearGradient x1="286.56349" y1="120.3051" x2="286.56349" y2="134.75838" gradientUnits="userSpaceOnUse" id="color-4"><stop offset="0" stop-color="#509b07"/><stop offset="1" stop-color="#346a00"/></linearGradient><linearGradient x1="267.78995" y1="108.15276" x2="267.78995" y2="129.81482" gradientUnits="userSpaceOnUse" id="color-5"><stop offset="0" stop-color="#509b07"/><stop offset="1" stop-color="#468904"/></linearGradient></defs><g transform="translate(-165.48261,-82.34503)"><g data-paper-data="{&quot;isPaintingLayer&quot;:true}" fill="none" fill-rule="nonzero" stroke="none" stroke-width="none" stroke-linecap="none" stroke-linejoin="miter" stroke-miterlimit="10" stroke-dasharray="" stroke-dashoffset="0" font-family="none" font-weight="none" font-size="none" text-anchor="none" style="mix-blend-mode: normal"><g data-paper-data="{&quot;origPos&quot;:null,&quot;index&quot;:null,&quot;origRot&quot;:0}" stroke="none" stroke-width="0" stroke-linecap="butt"><path d="M241.14984,191.54735c-1.65885,-5.05028 5.67939,-12.68184 14.92731,-15.71948c9.24791,-3.03764 18.49233,-4.54405 18.49233,-4.54405l5.15198,15.09836c0,0 -13.88027,6.51994 -21.31845,8.96316c-9.2479,3.03763 -15.59432,1.25229 -17.25319,-3.79797z" data-paper-data="{&quot;origRot&quot;:0,&quot;origPos&quot;:null}" fill="#64ca00"/><g data-paper-data="{&quot;origPos&quot;:null}" fill="#ffffff"><path d="M282.15917,178.02654c-3.33561,-8.77634 -6.97563,-19.82001 2.4651,-22.78947c6.84889,-2.15423 19.74612,3.55121 21.04401,12.84992c1.41629,10.147 4.30364,18.96711 -6.56517,21.28886c-10.14857,2.16789 -13.60833,-2.57296 -16.94394,-11.34931z" data-paper-data="{&quot;origRot&quot;:0,&quot;origPos&quot;:null}"/><path d="M274.3955,179.61005c-2.56637,-6.77922 -6.81668,-14.01338 -1.45894,-15.56736c5.99368,-1.73843 6.31414,0.15737 10.23426,11.33924c4.46573,12.73824 7.46734,13.87213 0.99065,16.09717c-3.78194,1.29928 -7.19958,-5.08983 -9.76597,-11.86907z" data-paper-data="{&quot;origRot&quot;:0,&quot;origPos&quot;:null}"/></g></g><g data-paper-data="{&quot;origPos&quot;:null,&quot;origRot&quot;:0}" stroke="none" stroke-width="0" stroke-linecap="butt"><path d="M264.01169,233.40237c1.39678,4.35057 6.84174,4.77357 6.9459,5.80583c0.42137,4.17655 -0.74476,7.50232 -6.90118,11.13073c-7.62609,4.49459 -14.24126,5.64027 -22.76078,3.23684c-5.80253,-1.63694 -2.04808,-5.34556 -1.5778,-11.35621c0.16876,-2.15679 0.00032,-4.87587 -0.88628,-10.23951c-1.10849,-6.70596 -0.70616,-19.55446 -0.70616,-19.55446c0,0 4.95337,-2.13481 10.02507,-3.54376c5.03086,-1.3405 10.5839,-0.58629 10.5839,-0.58629c0,0 2.04852,15.04998 5.27734,25.10682z" data-paper-data="{&quot;origPos&quot;:null}" fill="#262675"/><path d="M276.56274,253.06269c0.98686,3.77153 -2.38602,6.5527 -5.7606,8.50474c-2.21152,1.27924 -13.858,3.96526 -20.47238,2.10668c-2.05347,-0.57701 -4.11902,-2.56619 -4.11902,-2.56619c0,0 -4.68043,2.00977 -5.03519,0.59682c-0.28162,-1.12163 -0.80824,-3.01928 0.12386,-3.88351c4.01222,-3.72006 15.06639,-6.60613 20.35963,-7.99115c7.26644,-1.90133 13.93905,-0.45404 14.9037,3.23262z" data-paper-data="{&quot;origPos&quot;:null}" fill="#dbbb7b"/><path d="M277.1462,247.84803c-0.16689,4.76053 -3.75957,9.07216 -11.97439,11.22164c-8.21482,2.14948 -18.24929,-0.31573 -18.24929,-0.31573c0,0 -5.86528,1.86923 -6.38485,0.37487c-1.07538,-3.09294 -2.48056,-8.23098 -1.32932,-8.71223c4.25005,-1.77663 3.57314,-0.96117 9.02068,-3.70477c3.52701,-1.77635 8.83715,-6.9698 12.65763,-7.96946c8.21482,-2.14948 16.53434,1.26739 16.25955,9.10568z" data-paper-data="{&quot;origPos&quot;:null}" fill="url(#color-1)"/></g><g data-paper-data="{&quot;origPos&quot;:null,&quot;origRot&quot;:0}" stroke="none" stroke-width="0" stroke-linecap="butt"><path d="M232.17461,234.12399c-1.99215,4.11214 1.65584,8.17647 1.0187,8.99529c-2.57786,3.31297 -5.71718,4.91459 -12.67635,3.29078c-8.62048,-2.01144 -14.19796,-5.74838 -18.70376,-13.36785c-3.06883,-5.18953 2.20765,-5.28166 6.69664,-9.30634c1.61077,-1.44416 3.36566,-3.52793 6.42622,-8.021c3.8265,-5.61751 13.76318,-14.4922 13.76318,-14.4922c0,0 6.6625,3.62054 10.60159,6.85524c3.10867,2.55278 7.45742,7.97447 7.45742,7.97447c0,0 -9.97854,8.56591 -14.58364,18.07161z" data-paper-data="{&quot;origPos&quot;:null}" fill="#262675"/><path d="M227.68648,257.01316c-1.88912,3.41021 -6.24935,3.09462 -10.03852,2.17789c-2.48322,-0.60078 -12.76451,-6.69588 -16.26781,-12.60613c-1.08762,-1.83487 -1.20927,-4.69993 -1.20927,-4.69993c0,0 -4.77394,-1.77629 -4.05538,-3.04357c0.57039,-1.00598 1.49914,-2.74259 2.77012,-2.72459c5.47091,0.0775 15.46167,5.61902 20.24782,8.27035c6.57031,3.63967 10.39964,9.29252 8.55304,12.62599z" data-paper-data="{&quot;origPos&quot;:null}" fill="#dbbb7b"/><path d="M231.70795,253.64256c-3.40659,3.3295 -8.98223,3.96964 -16.41006,-0.14507c-7.42784,-4.11471 -12.9872,-12.82455 -12.9872,-12.82455c0,0 -5.53427,-2.69578 -4.87879,-4.13573c1.35668,-2.9803 3.8863,-7.66805 5.05151,-7.22166c4.30159,1.64792 3.24893,1.77078 9.08444,3.54553c3.77821,1.14907 11.20526,1.05629 14.65972,2.96992c7.42784,4.11471 11.08941,12.32947 5.48039,17.81156z" data-paper-data="{&quot;origPos&quot;:null}" fill="url(#color-2)"/></g><g data-paper-data="{&quot;origPos&quot;:null,&quot;origRot&quot;:0}"><path d="M261.65993,191.81306c0.58893,23.36295 -10.9039,30.1391 -23.91117,30.28024c-13.00727,0.14114 -23.8432,-10.82024 -23.96489,-22.03482c-0.13201,-12.16595 0.89212,-21.8629 8.09016,-29.68528c5.36275,-5.82791 13.2116,-3.21553 20.24568,-3.29186c13.00727,-0.14114 18.96293,1.83082 19.54021,24.73173z" data-paper-data="{&quot;origPos&quot;:null}" fill="url(#color-3)" stroke="none" stroke-width="0" stroke-linecap="butt"/><path d="M261.65273,191.15092c0,0 -14.74413,2.3674 -25.15019,2.92179c-9.54486,0.5085 -19.22466,-3.544 -19.22466,-3.544c0,0 -1.01004,-15.21537 5.75238,-21.20944c4.42446,-3.92174 9.43375,-5.24468 15.88475,-5.51427c6.451,-0.26959 13.49626,2.21452 16.78162,5.57059c7.7604,7.92744 5.95611,21.77533 5.95611,21.77533z" data-paper-data="{&quot;origPos&quot;:null}" fill="#64ca00" stroke="none" stroke-width="0" stroke-linecap="butt"/><path d="M249.50234,167.98498c0,0 1.91491,7.52888 2.33394,12.06377c0.53821,5.82473 -0.31459,16.78907 -0.31459,16.78907" data-paper-data="{&quot;origPos&quot;:null,&quot;origRot&quot;:0}" fill="none" stroke="#2a2a84" stroke-width="10" stroke-linecap="round"/><path d="M231.08857,168.74622c0,0 1.14638,7.7789 1.10809,12.34229c-0.04915,5.86133 -1.99335,16.5844 -1.99335,16.5844" data-paper-data="{&quot;origPos&quot;:null}" fill="none" stroke="#2a2a84" stroke-width="10" stroke-linecap="round"/><path d="M227.2687,195.60771c-0.02712,-2.4989 1.84954,-4.54527 4.19167,-4.57068c2.3421,-0.0254 4.26276,1.97976 4.28987,4.47865c0.02712,2.4989 -1.84956,4.54526 -4.19168,4.57067c-2.3421,0.0254 -4.26275,-1.97974 -4.28986,-4.47864z" data-paper-data="{&quot;origPos&quot;:null}" fill="#ffe84f" stroke="none" stroke-width="0" stroke-linecap="butt"/><path d="M247.63276,195.38675c-0.02712,-2.4989 1.78424,-4.54455 4.04579,-4.56909c2.26153,-0.02454 4.11687,1.98134 4.14398,4.48023c0.02711,2.49889 -1.78426,4.54454 -4.04579,4.56908c-2.26153,0.02454 -4.11687,-1.98132 -4.14398,-4.48022z" data-paper-data="{&quot;origPos&quot;:null}" fill="#ffe84f" stroke="none" stroke-width="0" stroke-linecap="butt"/></g><g data-paper-data="{&quot;origPos&quot;:null,&quot;origRot&quot;:0}" stroke="none" stroke-width="0" stroke-linecap="butt"><path d="M210.81009,179.71002c-6.87201,-3.7512 -19.34028,-12.67944 -19.34028,-12.67944l7.80378,-13.91418c0,0 8.81815,3.15735 17.36212,7.82122c8.54398,4.66387 14.37712,13.49933 11.83018,18.16517c-2.54693,4.66586 -9.11185,5.27108 -17.65582,0.60722z" data-paper-data="{&quot;origRot&quot;:0,&quot;origPos&quot;:null}" fill="#64ca00"/><g data-paper-data="{&quot;origPos&quot;:null}" fill="#ffffff"><path d="M171.86661,166.46095c-10.2678,-4.25368 -5.82932,-12.40418 -2.59693,-22.12629c2.96213,-8.90933 16.67999,-12.1821 23.02487,-8.82193c8.74596,4.63176 3.16415,14.83254 -1.70725,22.85872c-4.8714,8.0262 -9.1333,12.06129 -18.72068,8.08949z" data-paper-data="{&quot;origRot&quot;:0,&quot;origPos&quot;:null}"/><path d="M186.17937,171.23812c-5.96601,-3.36234 -2.80856,-3.93327 3.89247,-15.65084c5.88231,-10.28592 6.54116,-12.09221 12.12036,-9.29599c4.98724,2.49954 -0.50411,8.84329 -4.25696,15.04492c-3.75285,6.20163 -8.27215,11.86529 -11.75587,9.90191z" data-paper-data="{&quot;origRot&quot;:0,&quot;origPos&quot;:null}"/></g></g><g data-paper-data="{&quot;origPos&quot;:null,&quot;origRot&quot;:0}"><path d="M299.05507,131.61915c-1.76474,3.40548 -14.03301,4.29027 -22.46373,1.40733c-6.79348,-2.32307 -2.9239,-8.13878 -1.74449,-11.58779c1.1794,-3.449 14.23557,1.8559 21.02905,4.17896c6.79348,2.32307 4.32146,3.79715 3.17917,6.00149z" data-paper-data="{&quot;origPos&quot;:null}" fill="url(#color-4)" stroke="none" stroke-width="0" stroke-linecap="butt"/><path d="M217.03775,150.00478c0,0 -1.83931,0.9491 -2.77663,-1.21566c-0.93732,-2.16476 -0.71976,-6.35512 2.07794,-7.43515c3.34633,-1.29181 5.18027,-8.85834 6.11759,-6.69359c0,0 5.34746,3.20596 4.59836,6.85088c0,0 -1.01572,10.91831 -2.56452,12.19062c0,0 -1.96677,1.10944 -5.58141,-0.42254c-1.95847,-0.83004 -1.87133,-3.27458 -1.87133,-3.27458z" data-paper-data="{&quot;origRot&quot;:0,&quot;origPos&quot;:null}" fill="#5a2c0a" stroke="none" stroke-width="0" stroke-linecap="butt"/><path d="M233.57991,111.64275c3.75605,2.34875 35.94117,9.99876 41.3191,12.17809c7.95657,3.2243 3.21082,9.77852 1.01249,18.07735c-2.52762,9.54186 -8.39997,19.57652 -9.89874,26.26788c-1.60753,7.17697 -3.48263,10.58328 -10.16609,12.01032c-15.51184,-4.29198 -11.66314,-6.79985 -17.86595,-11.48405c-5.17287,-4.20337 -8.76775,-7.39916 -13.2877,-14.94213c-3.43108,-5.72583 -1.13833,-8.71457 -2.58741,-14.29036c-0.4442,-1.70919 -1.28192,-2.82637 -1.46599,-2.88932c-9.81257,-3.35546 -12.43513,-13.30575 -9.81424,-20.97019c2.6209,-7.66445 8.24747,-12.68021 13.73452,-10.80388c5.48705,1.87632 7.714,6.02964 9.02001,6.84632z" data-paper-data="{&quot;origPos&quot;:null}" fill="#ffdebd" stroke="none" stroke-width="0" stroke-linecap="butt"/><path d="M277.48676,132.1593c-1.24844,4.73987 -4.64173,7.9551 -7.57911,7.18141c-2.93739,-0.77367 -4.30654,-5.24329 -3.0581,-9.98316c1.24844,-4.73987 4.64173,-7.95509 7.57911,-7.18141c2.93739,0.77367 4.30654,5.24329 3.05811,9.98316z" data-paper-data="{&quot;origPos&quot;:null,&quot;origRot&quot;:0}" fill="#ffffff" stroke="none" stroke-width="0" stroke-linecap="butt"/><path d="M238.62927,122.03732c-1.22033,4.73746 1.63452,9.34637 -0.95426,9.6665c-1.3188,0.1631 -5.51647,-1.73233 -6.63341,-4.01597c-1.11695,-2.28365 -1.07743,-4.64574 0.35215,-8.82636c1.42958,-4.18061 2.7986,-8.23572 5.44264,-7.43915c11.13226,3.35379 2.89502,6.33638 1.79289,10.61498z" data-paper-data="{&quot;origPos&quot;:null}" fill="#5a2c0a" stroke="none" stroke-width="0" stroke-linecap="butt"/><path d="M263.54477,132.68101c-1.03492,4.79102 -4.28079,8.15501 -7.24988,7.51365c-2.96909,-0.64135 -4.53706,-5.04517 -3.50214,-9.8362c1.03492,-4.79102 4.2808,-8.155 7.24987,-7.51364c2.96909,0.64135 4.53706,5.04517 3.50214,9.83619z" data-paper-data="{&quot;origPos&quot;:null,&quot;origRot&quot;:0}" fill="#ffffff" stroke="none" stroke-width="0" stroke-linecap="butt"/><path d="M262.08249,128.32523c0.90079,0.30802 1.49154,1.24455 1.71989,2.50842c0.2274,1.26356 0.09207,2.85539 -0.46155,4.47434c-0.55361,1.61896 -1.4213,2.96037 -2.37478,3.82011c-0.95442,0.85942 -1.99492,1.23812 -2.8957,0.9301c-0.90079,-0.30802 -1.49154,-1.24455 -1.7199,-2.50842c-0.2274,-1.26356 -0.09207,-2.85539 0.46155,-4.47434c0.55361,-1.61896 1.4213,-2.96037 2.37478,-3.82011c0.95442,-0.85942 1.99492,-1.23812 2.89571,-0.93009z" data-paper-data="{&quot;origPos&quot;:null}" id="ID0.2989244391210377" fill="#000000" stroke="none" stroke-width="1" stroke-linecap="butt"/><path d="M275.85538,128.22627c0.90079,0.30802 1.49154,1.24455 1.7199,2.50842c0.2274,1.26356 -0.2063,2.99855 -0.46155,4.47435c-0.09587,0.53686 -0.20761,1.32722 -0.72435,1.65464c-0.64371,0.38968 -1.48809,0.39263 -2.24833,0.39371c-1.27255,-0.16038 -2.93571,0.09208 -3.77233,-0.86723c-0.72637,-0.86137 -0.15035,-2.31095 0.21617,-3.41369c0.47337,-1.42446 1.4213,-2.96037 2.37478,-3.82011c0.95442,-0.85942 1.99492,-1.23812 2.8957,-0.9301z" data-paper-data="{&quot;origPos&quot;:null}" id="ID0.2989244391210377" fill="#000000" stroke="none" stroke-width="1" stroke-linecap="round"/><path d="M294.45216,101.48341c-2.56791,14.91611 -5.57615,14.78561 -14.72178,16.71458c-13.32593,2.81067 -27.35004,-3.47645 -40.92635,-2.39769c-3.56478,0.28325 -10.36089,-5.69066 -13.74454,-6.84772c-6.92054,-2.36652 -9.13413,-8.64788 -7.40557,-14.63692c3.81282,-13.21045 10.22875,-11.07278 17.1493,-8.70627c0,0 7.18459,3.8668 8.43365,8.80711c0,0 16.49022,-13.61584 28.38741,-11.9263c15.31502,2.17491 24.67197,8.28147 22.82788,18.9932z" data-paper-data="{&quot;origPos&quot;:null}" fill="#64ca00" stroke="none" stroke-width="0" stroke-linecap="butt"/><path d="M288.95541,108.61379c-1.7691,5.1735 -4.48455,8.59234 -14.74698,5.42002c-10.83383,-3.34895 -10.10959,-8.14138 -8.34049,-13.31489c1.7691,-5.1735 8.37154,-7.60013 14.74698,-5.42002c6.37542,2.18011 10.10959,8.14138 8.34049,13.31489z" data-paper-data="{&quot;origPos&quot;:null}" fill="#ffffff" stroke="none" stroke-width="0" stroke-linecap="butt"/><path d="M300.11303,129.76154c-0.46701,0.74759 -39.32964,-6.57942 -50.08566,-8.98927c-5.22757,-1.17121 -15.28521,-5.05936 -14.8182,-5.80695c1.72637,-2.76357 5.32176,-6.89391 10.67829,-6.81134c6.47307,0.09979 28.21473,1.84855 43.09326,7.19172c6.08226,2.18426 12.8587,11.65227 11.13233,14.41584z" data-paper-data="{&quot;origPos&quot;:null}" fill="url(#color-5)" stroke="none" stroke-width="0" stroke-linecap="butt"/><path d="M271.8659,109.34591l1.93167,-12.3622l5.45258,1.27099l-3.79583,8.72353l7.61053,0.8684l-2.4457,3.08336z" data-paper-data="{&quot;origPos&quot;:null}" fill="#64ca00" stroke="none" stroke-width="0" stroke-linecap="butt"/><path d="M265.81989,166.04785c-1.17568,2.29121 -3.66343,1.92078 -5.15814,1.82395c-4.56188,-0.2955 -7.83328,-2.1977 -14.36973,-7.54756c-2.11627,-1.7321 0.75845,-17.00039 5.30979,-12.07839c0,0 9.77646,8.36985 15.53667,9.98014c0,0 10.5799,-1.14964 13.34282,0.00418c1.37027,0.57224 0.37477,3.5134 -0.57495,4.84605c0,0 -1.33077,4.36181 -3.66107,4.76836c-3.51494,1.0635 -5.24084,-0.51328 -5.58108,0.1498z" data-paper-data="{&quot;origPos&quot;:null}" fill="#38291e" stroke="none" stroke-width="0" stroke-linecap="butt"/><path d="M281.96262,152.33836c-2.61443,6.10024 -2.53284,10.89134 -16.05598,6.00284c-6.23269,-2.25307 -10.92331,-8.23427 -9.02465,-13.78664c1.89866,-5.55236 10.29067,-10.33664 16.7092,-8.6858c9.3522,2.40539 12.55412,6.71011 8.37142,16.46959z" data-paper-data="{&quot;origPos&quot;:null}" fill="#ffdebd" stroke="none" stroke-width="0" stroke-linecap="butt"/><g data-paper-data="{&quot;origPos&quot;:null}" fill="none" stroke="#f6b09a" stroke-width="3.5" stroke-linecap="round"><path d="M218.25179,113.58245c0,0 3.36366,-0.67809 6.00352,3.3206c3.78599,5.73479 -1.55526,11.48663 -1.55526,11.48663" data-paper-data="{&quot;origPos&quot;:null}"/><path d="M224.32484,122.75517l-5.67724,-1.94137" data-paper-data="{&quot;origPos&quot;:null}"/><path d="M221.84278,128.24751l-1.21655,-0.41601" data-paper-data="{&quot;origPos&quot;:null}"/></g><path d="M257.87748,119.49071c-1.4345,-0.05693 -1.43576,0.14805 -2.47885,1.13446c-1.07609,1.01762 -3.00162,2.14361 -3.00162,2.14361c0,0 -0.2063,-3.9038 0.66485,-6.45137c0.5915,-1.72976 2.56239,-4.42325 5.43529,-4.11622c9.12224,2.78027 3.53483,10.35149 3.53483,10.35149c0,0 -2.63562,-3.03948 -4.15449,-3.06197z" data-paper-data="{&quot;origPos&quot;:null}" fill="#38291e" stroke="none" stroke-width="0" stroke-linecap="butt"/><path d="M275.11769,122.42052c-1.46369,-0.40629 -4.84879,1.76768 -4.84879,1.76768c0,0 -3.22839,-8.83857 6.30763,-8.93656c2.84305,0.51468 3.9754,3.65428 4.05567,5.48061c0.11824,2.68979 -1.17939,6.3774 -1.17939,6.3774c0,0 -1.53038,-1.62281 -2.27623,-2.90235c-0.72298,-1.2403 -0.66645,-1.43734 -2.05889,-1.78681z" data-paper-data="{&quot;origPos&quot;:null,&quot;index&quot;:null,&quot;origRot&quot;:0}" fill="#38291e" stroke="none" stroke-width="0" stroke-linecap="butt"/></g></g></g></svg>