<svg version="1.1" xmlns="http://www.w3.org/2000/svg" xmlns:xlink="http://www.w3.org/1999/xlink" width="65.10633" height="38.70928" viewBox="0,0,65.10633,38.70928"><defs><linearGradient x1="100.57559" y1="322.85296" x2="100.57559" y2="359.85003" gradientUnits="userSpaceOnUse" id="color-1"><stop offset="0" stop-color="#155a8e"/><stop offset="1" stop-color="#00295b"/></linearGradient><linearGradient x1="4.27872" y1="333.6252" x2="26.11804" y2="341.58164" gradientUnits="userSpaceOnUse" id="color-2"><stop offset="0" stop-color="#2154ad"/><stop offset="1" stop-color="#308bff"/></linearGradient></defs><g transform="translate(1.87997,-322.35297)"><g data-paper-data="{&quot;isPaintingLayer&quot;:true}" fill-rule="nonzero" stroke-linejoin="miter" stroke-miterlimit="10" stroke-dasharray="" stroke-dashoffset="0" style="mix-blend-mode: normal"><path d="M-1.37997,359.85003v-36.99706h44.51282l19.27173,37.70019z" data-paper-data="{&quot;origPos&quot;:null}" fill="url(#color-1)" stroke="#000000" stroke-width="1" stroke-linecap="butt"/><path d="M17.69839,337.9678c2.31182,-6.34562 9.62457,-9.50837 16.33349,-7.0642c6.70892,2.44417 10.27348,9.56971 7.96166,15.91533c-2.31182,6.34562 -9.62457,9.50837 -16.33349,7.0642c-6.70892,-2.44417 -10.27348,-9.56971 -7.96166,-15.91533z" fill="#308bff" stroke="#000000" stroke-width="0" stroke-linecap="butt"/><path d="M27.65445,338.41749c-1.4095,2.27416 -4.1336,3.0917 -6.08445,1.82603c-0.88066,-0.57136 -2.43967,-1.14384 -2.76208,-2.14287c-0.53673,-1.66315 0.86121,-2.78113 1.78187,-4.26657c1.4095,-2.27416 4.1336,-3.0917 6.08445,-1.82602c1.95085,1.26567 2.38971,4.13527 0.98021,6.40943z" data-paper-data="{&quot;origRot&quot;:0}" fill="#000000" stroke="none" stroke-width="0" stroke-linecap="butt"/><path d="M13.36349,345.23061l-9.22855,-11.21072l15.17876,-3.21286l-3.34435,4.54386l10.39716,4.18526l-0.00881,1.38768l-0.66287,1.54679l-1.07761,1.5944l-10.51682,-4.12951z" fill="url(#color-2)" stroke="#000000" stroke-width="0" stroke-linecap="round"/><path d="M33.75115,341.34368c-1.4095,2.27416 -4.1336,3.0917 -6.08446,1.82603c-1.95085,-1.26567 -2.38971,-4.13527 -0.98021,-6.40943c1.4095,-2.27416 4.1336,-3.0917 6.08446,-1.82603c1.95085,1.26567 2.38971,4.13527 0.98021,6.40943z" data-paper-data="{&quot;origRot&quot;:0}" fill="#000000" stroke="none" stroke-width="0" stroke-linecap="butt"/><path d="M29.33076,339.75852c-0.41635,0.62086 -1.1704,0.84483 -1.68421,0.50027c-0.51381,-0.34457 -0.59282,-1.1272 -0.17647,-1.74806c0.41635,-0.62086 1.1704,-0.84483 1.68421,-0.50027c0.51381,0.34457 0.59282,1.1272 0.17647,1.74806z" data-paper-data="{&quot;origRot&quot;:0}" fill="#ffffff" stroke="none" stroke-width="0" stroke-linecap="butt"/><path d="M26.06324,338.06175c-0.41635,0.62086 -1.1704,0.84483 -1.68421,0.50027c-0.51381,-0.34457 -0.59282,-1.1272 -0.17647,-1.74806c0.41635,-0.62086 1.1704,-0.84483 1.68421,-0.50027c0.51381,0.34457 0.59282,1.1272 0.17647,1.74806z" data-paper-data="{&quot;origRot&quot;:0}" fill="#ffffff" stroke="none" stroke-width="0" stroke-linecap="butt"/></g></g></svg>