<svg version="1.1" xmlns="http://www.w3.org/2000/svg" xmlns:xlink="http://www.w3.org/1999/xlink" width="104.89036" height="147.22517" viewBox="0,0,104.89036,147.22517"><g transform="translate(-190.28843,-105.00928)"><g data-paper-data="{&quot;isPaintingLayer&quot;:true}" fill-rule="nonzero" stroke-linejoin="miter" stroke-miterlimit="10" stroke-dasharray="" stroke-dashoffset="0" style="mix-blend-mode: normal"><g stroke="none" stroke-width="0" stroke-linecap="butt"><path d="M240.19533,218.39354c-4.65984,9.83049 -18.48863,13.0352 -30.88744,7.15792c-12.39881,-5.87728 -22.52311,-12.97344 -17.86326,-22.80393c4.65984,-9.83049 22.33925,-18.67271 34.73806,-12.79543c12.39881,5.87728 18.6725,18.61095 14.01264,28.44144z" data-paper-data="{&quot;origPos&quot;:null}" fill="#a35e25"/><path d="M233.66474,186.49419l-6.26112,13.19269l-19.94312,-9.18281c0,0 -6.365,-2.03972 -2.8195,-9.51937c3.19078,-6.73131 9.05254,-3.62995 9.05254,-3.62995z" data-paper-data="{&quot;origPos&quot;:null}" fill="#c3b086"/></g><g data-paper-data="{&quot;index&quot;:null}" stroke="none" stroke-width="0" stroke-linecap="butt"><path d="M259.48451,242.47017c0.72932,5.03285 -1.5691,7.64071 -12.43081,9.23963c-8.666,1.13213 -13.04749,0.76359 -14.07922,-4.45996c-0.67085,-3.39642 5.21421,-7.08742 12.4229,-8.13205c7.20867,-1.04462 13.5908,-0.07268 14.08714,3.35236z" data-paper-data="{&quot;origPos&quot;:null}" fill="#f3c08d"/><path d="M260.57653,238.67701c0.57166,3.94484 0.72228,7.81126 -14.13609,9.96441c-15.54744,2.25301 -14.95529,-1.95555 -15.52695,-5.90041c-0.76288,-5.26442 2.46126,-9.98658 10.34035,-11.29677c7.87908,-1.31018 18.44031,1.14362 19.32269,7.23275z" data-paper-data="{&quot;origPos&quot;:null}" fill="#ff1919"/></g><path d="M264.59118,222.79268c-5.32744,-1.41305 -25.16186,-17.49597 -17.45179,-19.49296c2.80692,-0.72701 10.71183,4.19338 16.10022,5.3525c5.11216,1.09971 16.49537,-5.48216 13.40955,5.67963c-1.48416,5.36838 -8.9517,3.26934 -8.9517,3.26934c0,0 3.80624,7.02499 -3.1063,5.1915z" data-paper-data="{&quot;origRot&quot;:0,&quot;index&quot;:null}" fill="#ffdebd" stroke="none" stroke-width="0" stroke-linecap="butt"/><path d="M254.45484,224.62393c-3.56078,10.70289 -12.24626,16.14075 -28.51229,10.56302c-16.07557,-5.51242 -21.07436,-15.17262 -17.51358,-25.87553c2.37337,-7.1338 6.74818,-12.30532 13.46262,-15.68765c7.10407,-3.5786 10.04869,-3.56475 17.43994,-1.10572c0,0 11.19943,2.0675 14.04534,9.74675c2.51284,6.78053 4.63874,11.65624 1.07796,22.35914z" fill="#f9faaf" stroke="none" stroke-width="0" stroke-linecap="butt"/><path d="M253.89347,213.51931c0,0 -1.90944,6.29558 -6.61538,4.80072c-4.70713,-1.49524 -2.39421,-8.85271 -2.39421,-8.85271c0,0 1.97335,1.28381 4.79254,2.45802c2.81918,1.17421 4.21706,1.59396 4.21706,1.59396z" data-paper-data="{&quot;index&quot;:null}" fill="#f9faaf" stroke="#d6d496" stroke-width="2.5" stroke-linecap="butt"/><path d="M221.61229,209.97103c-5.3074,-1.83652 -3.10873,-8.816 -3.10873,-8.816c0,0 1.77654,0.93427 5.01146,1.78289c3.35792,0.88088 6.17951,1.28262 6.17951,1.28262c0,0 -2.77351,7.58746 -8.08224,5.75049z" fill="#f9faaf" stroke="#d6d496" stroke-width="2.5" stroke-linecap="butt"/><path d="M252.70241,202.98227c-1.46384,4.39998 -17.0116,8.54429 -17.0116,8.54429c0,0 -3.52002,-7.35639 -6.38307,-10.84856c-2.10784,-2.57102 -7.02959,-4.14269 -5.92878,-7.45145c1.46384,-4.39998 7.73378,-3.17089 16.12044,-0.38071c8.38665,2.79019 14.66687,5.73647 13.20303,10.13644z" fill="#ff1919" stroke="none" stroke-width="0" stroke-linecap="butt"/><path d="M207.54117,218.59206c0,0 -0.59427,-1.34988 -0.50362,-2.95427c0.08871,-1.57033 0.40957,-2.928 0.40957,-2.928c0,0 13.31795,6.11702 25.02629,10.0123c6.71348,2.23353 20.78912,5.23018 20.78912,5.23018c0,0 -0.24013,0.76206 -1.16871,2.45228c-0.95722,1.74233 -2.10207,2.31053 -2.10207,2.31053c0,0 -9.74379,-1.62204 -19.11291,-4.88329c-10.93316,-3.80568 -23.33765,-9.23973 -23.33765,-9.23973z" fill="#ba782e" stroke="none" stroke-width="0" stroke-linecap="butt"/><path d="M224.06646,226.28184c0,0 -0.34846,-1.15276 0.31475,-3.36964c0.60964,-2.03781 1.93973,-3.09004 1.93973,-3.09004c0,0 2.41291,0.31902 6.94211,1.67726c4.8622,1.45809 6.08051,2.5499 6.08051,2.5499c0,0 -0.02232,1.82645 -0.51627,3.45242c-0.78641,2.58872 -1.58019,2.84905 -1.58019,2.84905c0,0 -2.31927,0.10049 -6.3327,-1.15835c-4.50761,-1.41384 -6.84796,-2.9106 -6.84796,-2.9106z" fill="#f8c537" stroke="none" stroke-width="0" stroke-linecap="butt"/><path d="M215.81873,222.78825c0,0 -0.28297,-1.23785 0.44086,-3.22578c0.70207,-1.92815 1.61107,-2.94184 1.61107,-2.94184" fill="none" stroke="#d6d496" stroke-width="2.5" stroke-linecap="round"/><path d="M248.08108,226.36485c0,0 0.12054,1.35622 -0.47243,3.32066c-0.61136,2.02535 -1.5795,2.84696 -1.5795,2.84696" data-paper-data="{&quot;index&quot;:null}" fill="none" stroke="#d6d496" stroke-width="2.5" stroke-linecap="round"/><path d="M239.84414,210.38094c0,0 2.8123,7.47857 -3.78549,4.71921c-5.08487,-2.12661 -22.53979,-20.76499 -14.62938,-21.6915c2.87986,-0.3373 10.03962,5.61549 15.21951,7.49887c4.91433,1.78683 17.08905,-3.18059 12.50936,7.45587c-2.20265,5.11572 -9.314,2.01757 -9.314,2.01757z" data-paper-data="{&quot;origRot&quot;:0,&quot;index&quot;:null}" fill="#ffdebd" stroke="none" stroke-width="0" stroke-linecap="butt"/><g data-paper-data="{&quot;index&quot;:null}" stroke="none" stroke-width="0" stroke-linecap="butt"><path d="M201.22229,239.31921c-0.48701,-3.42637 5.36413,-6.15408 12.57562,-7.1791c7.2115,-1.02501 13.89711,0.86179 14.2086,4.30978c0.47906,5.30286 -3.62191,6.88885 -12.25651,8.23976c-10.87295,1.52053 -13.81207,-0.33562 -14.5277,-5.37044z" data-paper-data="{&quot;origPos&quot;:null}" fill="#f3c08d"/><path d="M215.61596,223.61094c7.92953,-0.95873 12.35166,2.66603 13.10021,7.93249c0.56092,3.9464 2.31284,7.81852 -13.24067,10.02924c-14.86417,2.11273 -15.80707,-1.63997 -16.368,-5.58636c-0.86583,-6.09151 8.57892,-11.41664 16.50845,-12.37537z" data-paper-data="{&quot;origPos&quot;:null}" fill="#ff1919"/></g><g stroke="none" stroke-width="0" stroke-linecap="butt"><path d="M293.83337,151.59176c-1.95299,16.51328 -11.22058,28.40615 -48.87524,25.01439c-46.78093,-4.21382 -52.79908,-10.89014 -50.77552,-34.7111c0.79158,-9.31824 3.35647,-18.21804 9.90016,-23.72312c15.32961,-12.89654 27.894,-13.31601 45.6634,-11.50008c26.60611,2.71896 47.74957,13.95305 44.08721,44.91993z" data-paper-data="{&quot;origPos&quot;:null}" fill="#ffffff"/><path d="M274.88607,134.12614c-0.98809,13.69677 -12.84482,20.50105 -24.89524,19.06415c-14.94922,-1.78254 -22.7408,-12.10636 -21.56139,-23.64724c1.37902,-13.49427 12.86673,-19.08882 26.83029,-17.8224c14.30503,1.2974 20.32325,12.74522 19.62636,22.40547z" fill="#ff1919"/><path d="M212.64978,137.82141c1.54917,14.96358 -16.73236,22.99926 -16.73236,22.99926c0,0 -3.77935,-7.1759 -1.81716,-22.59949c1.66714,-13.10437 8.09383,-18.28065 8.09383,-18.28065c0,0 8.90652,2.9173 10.45569,17.88089z" data-paper-data="{&quot;origRot&quot;:0}" fill="#ff1919"/><path d="M292.53637,131.75605c0,0 3.25419,3.47725 2.07901,16.81674c-0.51734,5.87238 -3.58054,14.2853 -3.58054,14.2853c0,0 -7.92476,-4.64023 -6.68589,-17.98376c1.38519,-14.66215 8.18743,-13.1183 8.18743,-13.1183z" fill="#ff1919"/></g><path d="M193.30654,140.74965c0.43709,-5.34801 1.95689,-8.15764 1.95689,-8.15764c0,0 39.79035,-10.89488 62.61403,-9.27219c15.94536,1.13367 37.0929,17.67081 37.0929,17.67081c0,0 0.56657,1.76073 -0.1685,7.01799c-0.73506,5.25725 -1.41308,6.60684 -1.41308,6.60684c0,0 -23.50086,-14.61993 -37.19902,-15.5896c-25.24557,-1.78708 -62.8941,9.45801 -62.8941,9.45801c0,0 -0.35353,-3.27524 0.0109,-7.73422z" fill="#f3c640" stroke="none" stroke-width="0" stroke-linecap="butt"/><g stroke="none" stroke-width="0" stroke-linecap="butt"><path d="M279.13196,124.12297c1.58837,13.89422 -8.17228,22.87302 -17.35292,24.2529c-8.90333,1.33819 -23.97421,-8.43877 -23.97421,-8.43877c0,0 -2.45598,-1.45321 -3.68273,-6.87935c-1.15628,-5.11447 0.83221,-8.23649 0.83221,-8.23649c0,0 11.15657,-18.22869 20.33719,-19.60856c9.18062,-1.37987 22.15743,4.1882 23.84043,18.91026z" data-paper-data="{&quot;origPos&quot;:null}" fill="#92999e"/><path d="M276.1361,124.14885c1.51587,10.08546 -3.82206,19.24834 -11.92262,20.46587c-8.10055,1.21752 -15.89618,-5.97135 -17.41205,-16.0568c-1.51587,-10.08546 3.82206,-19.24835 11.9226,-20.46588c8.10055,-1.21752 15.89619,5.97135 17.41206,16.05681z" data-paper-data="{&quot;origPos&quot;:null}" fill="#e6c985"/><path d="M273.20313,124.4819c1.0365,6.89611 -2.51802,13.14703 -7.93924,13.96186c-5.42121,0.81482 -10.65622,-4.11501 -11.69273,-11.01113c-1.0365,-6.89611 2.51802,-13.14702 7.93923,-13.96184c5.42121,-0.81482 10.65623,4.11503 11.69273,11.01111z" fill="#fff9c5"/></g><g stroke="none" stroke-width="0" stroke-linecap="butt"><path d="M243.26576,199.90675c-11.93028,-0.61771 -24.3445,-6.9995 -25.45836,-20.95063c-0.61439,-7.69499 0.34637,-12.15488 0.34637,-12.15488c0,0 5.82788,-4.35269 27.79193,-4.25217c17.40937,0.07969 24.98534,8.60699 24.98534,8.60699c0,0 0.68993,6.94347 -0.91878,12.28613c-1.60871,5.34266 -4.99422,17.59081 -26.7465,16.46454z" fill="#ffdebd"/><g><path d="M243.66864,167.46739c2.29089,0.23411 2.81033,2.59938 2.26108,7.97405c-0.51033,4.99381 -1.73961,7.5652 -3.8273,7.35185c-2.08769,-0.21335 -2.79087,-2.78981 -2.26107,-7.97404c0.54926,-5.37466 1.53638,-7.58595 3.82728,-7.35184z" fill="#000000"/><path d="M244.91982,171.18749c-0.1531,1.49813 -0.41127,2.27325 -1.57447,2.15438c-1.09786,-0.1122 -1.23992,-0.79621 -1.10948,-2.39567c0.14378,-1.76276 0.82171,-2.10744 1.56193,-2.0318c0.74023,0.07564 1.30183,0.51363 1.12202,2.27307z" fill="#ffffff"/></g><g><path d="M257.14331,168.8288c2.29089,0.23411 2.81033,2.59938 2.26108,7.97405c-0.51033,4.99381 -1.7396,7.5652 -3.8273,7.35185c-2.08769,-0.21335 -2.79086,-2.78981 -2.26106,-7.97403c0.54926,-5.37466 1.53637,-7.58596 3.82727,-7.35184z" fill="#000000"/><path d="M258.39448,172.5489c-0.1531,1.49813 -0.41126,2.27326 -1.57446,2.15439c-1.09786,-0.1122 -1.23992,-0.79621 -1.10948,-2.39567c0.14378,-1.76276 0.82171,-2.10744 1.56193,-2.0318c0.74022,0.07564 1.30181,0.51364 1.12201,2.27307z" fill="#ffffff"/></g><g><path d="M240.4533,191.1452c-0.4204,2.51235 -3.8287,2.10669 -5.90789,1.75876c-2.07918,-0.34793 -3.42389,-2.66664 -3.00347,-5.17897c0.4204,-2.51235 2.44673,-4.26696 4.52591,-3.91904c2.07918,0.34793 4.80586,4.82691 4.38546,7.33926z" fill="#564031"/><path d="M238.6789,193.0138c0,0 -2.71733,0.56906 -4.86853,-0.29538c-2.25138,-0.90469 -1.99998,-2.75527 -1.99998,-2.75527c0,0 2.37008,-0.51221 3.97008,-0.03761c1.6,0.4746 2.89843,3.08826 2.89843,3.08826z" fill="#a9606a"/></g></g></g></g></svg>