<svg version="1.1" xmlns="http://www.w3.org/2000/svg" xmlns:xlink="http://www.w3.org/1999/xlink" width="544.25" height="196.33685"><defs><linearGradient x1="485.5" y1="180.17672" x2="485.5" y2="241" gradientUnits="userSpaceOnUse" id="color-1"><stop offset="0" stop-color="#134eff"/><stop offset="1" stop-color="#4876ff"/></linearGradient></defs><g transform="translate(9.25,-180.17672)"><g data-paper-data="{&quot;isPaintingLayer&quot;:true}" fill="none" fill-rule="nonzero" stroke="none" stroke-width="none" stroke-linecap="butt" stroke-linejoin="miter" stroke-miterlimit="10" stroke-dasharray="" stroke-dashoffset="0" font-family="none" font-weight="none" font-size="none" text-anchor="none" style="mix-blend-mode: normal"><path d="M122.5,229.5c0,-14.125 7.76785,-14.125 7.76785,-14.125c28.48216,0 60.07143,0 88.55358,0c45.05357,0 90.10715,0 135.16072,0c0,0 7.76785,0 7.76785,14.125c0,14.125 -7.76785,14.125 -7.76785,14.125c-45.05357,0 -90.10714,0 -135.16072,0c-28.48215,0 -56.96427,0 -85.44643,0h-3.10715c0,0 -7.76785,0 -7.76785,-14.125z" data-paper-data="{&quot;origPos&quot;:null}" fill="#d8d8d8" stroke="#8f8f8f" stroke-width="3"/><g data-paper-data="{&quot;origPos&quot;:null}"><path d="M-8,375.26357v-68.26357h119v68.26357z" data-paper-data="{&quot;origPos&quot;:null}" fill="#d8d8d8" stroke="#8f8f8f" stroke-width="2.5"/><text transform="translate(1,328) scale(0.5,0.5)" font-size="40" xml:space="preserve" data-paper-data="{&quot;origPos&quot;:null}" fill="#8f8f8f" fill-rule="nonzero" stroke="none" stroke-width="1" stroke-linecap="butt" stroke-linejoin="miter" stroke-miterlimit="10" stroke-dasharray="" stroke-dashoffset="0" font-family="Sans Serif" font-weight="normal" text-anchor="start" style="mix-blend-mode: normal"><tspan x="0" dy="0">Mushroom</tspan><tspan x="0" dy="46.150000000000006px">Kingdom</tspan></text></g><path d="M436,241v-60.82328h99v60.82328z" data-paper-data="{&quot;origPos&quot;:null}" fill="url(#color-1)" stroke="none" stroke-width="NaN"/></g></g></svg>