<svg version="1.1" xmlns="http://www.w3.org/2000/svg" xmlns:xlink="http://www.w3.org/1999/xlink" width="143.7336" height="143.73361" viewBox="0,0,143.7336,143.73361"><defs><linearGradient x1="240" y1="110.13321" x2="240" y2="249.86682" gradientUnits="userSpaceOnUse" id="color-1"><stop offset="0" stop-color="#3c94ed"/><stop offset="1" stop-color="#337fcc"/></linearGradient><linearGradient x1="298.09357" y1="156.86191" x2="232.05959" y2="178.66558" gradientUnits="userSpaceOnUse" id="color-2"><stop offset="0" stop-color="#2154ad"/><stop offset="1" stop-color="#2c7de7"/></linearGradient></defs><g transform="translate(-168.1332,-108.1332)"><g data-paper-data="{&quot;isPaintingLayer&quot;:true}" fill-rule="nonzero" stroke-linejoin="miter" stroke-miterlimit="10" stroke-dasharray="" stroke-dashoffset="0" style="mix-blend-mode: normal"><path d="M240,110.13321c19.2752,0 36.74421,7.8268 49.3899,20.47689c12.64989,12.64569 20.4769,30.11449 20.4769,49.38991c0,19.27542 -7.82701,36.74421 -20.4769,49.38991c-12.64569,12.65009 -30.1147,20.4769 -49.3899,20.4769c-19.27542,0 -36.74442,-7.8268 -49.39012,-20.4769c-12.64989,-12.64569 -20.47668,-30.11449 -20.47668,-49.38991c0,-19.27542 7.82679,-36.74421 20.47668,-49.38991c12.64569,-12.6501 30.11471,-20.47689 49.39012,-20.47689z" data-paper-data="{&quot;origPos&quot;:null}" id="ID0.4039921844378114" fill="url(#color-1)" stroke="#23568d" stroke-width="4" stroke-linecap="butt"/><g><path d="M230.89123,216.99152c0,0 -4.29194,-4.70555 -2.73722,-6.74904c3.33371,-4.38176 19.12813,-11.75092 19.12813,-11.75092c8.86109,-2.92583 16.84151,-2.88358 18.36488,1.73003c1.19308,3.61331 1.29603,5.3688 -1.25952,8.18814c-3.05397,3.3692 -7.27073,5.36345 -11.58877,6.78921c-8.86109,2.92583 -20.38414,6.40619 -21.90751,1.79258z" data-paper-data="{&quot;origPos&quot;:null,&quot;index&quot;:null}" fill="#ffffff" stroke="none" stroke-width="0" stroke-linecap="butt"/><path d="M232.30853,215.49416c-20.28527,6.69797 -41.86549,-3.42623 -48.20075,-22.61303c-6.33527,-19.18681 4.97346,-40.17055 25.25873,-46.86852c20.28527,-6.69797 41.86549,3.42623 48.20075,22.61303c6.33527,19.18681 -4.97346,40.17055 -25.25873,46.86852z" data-paper-data="{&quot;origPos&quot;:null,&quot;index&quot;:null}" fill="#2c7de7" stroke="#000000" stroke-width="0" stroke-linecap="butt"/><path d="M239.85056,211.0577c2.46585,0.71594 1.81974,7.052 1.81974,7.052c1.52336,4.61362 -9.80652,8.67903 -18.6676,11.60486c-4.31803,1.42577 -8.89322,2.33452 -13.35295,1.44626c-3.73189,-0.7433 -4.6945,-2.21494 -5.88757,-5.82825c-1.52336,-4.61362 4.86285,-9.39956 13.72393,-12.32539c0,0 17.07706,-3.48464 22.36446,-1.94947z" data-paper-data="{&quot;origPos&quot;:null,&quot;index&quot;:null}" fill="#ffffff" stroke="none" stroke-width="0" stroke-linecap="butt"/><path d="M195.3311,190.35177c5.85856,-1.93443 11.4092,1.5965 13.27109,7.23537c1.86189,5.63886 -0.15464,16.37415 -6.01321,18.30858c-5.85857,1.93443 -16.97333,-1.52395 -18.83522,-7.16282c-1.86189,-5.63886 5.71878,-16.4467 11.57734,-18.38113z" data-paper-data="{&quot;origPos&quot;:null,&quot;index&quot;:null}" fill="#ffffff" stroke="none" stroke-width="0" stroke-linecap="butt"/><path d="M231.26849,149.9857c5.94921,-3.60719 14.02099,-0.91423 18.02883,6.01491c2.61785,4.52599 6.69645,7.99659 4.93987,12.92124c-1.05516,2.95817 -5.76942,4.52811 -8.45504,6.15648c-5.94921,3.60719 -14.02099,0.91422 -18.02883,-6.01492c-4.00784,-6.92914 -2.43405,-15.47052 3.51516,-19.07771z" data-paper-data="{&quot;origPos&quot;:null,&quot;origRot&quot;:0,&quot;index&quot;:null}" fill="#000000" stroke="none" stroke-width="0" stroke-linecap="butt"/><g data-paper-data="{&quot;origPos&quot;:null}" fill="none" stroke="#ffffff" stroke-width="2" stroke-linecap="round"><path d="M238,164.77779l-2.44445,7.11112" data-paper-data="{&quot;origPos&quot;:null}"/><path d="M233.33333,166.44446l7.33334,4" data-paper-data="{&quot;origPos&quot;:null}"/></g><path d="M268.14761,174.83775l-31.8261,11.39095l-3.07729,-4.86611l-1.84137,-4.68598l0.10008,-4.15058l31.47334,-11.56858l-9.58711,-13.89281l45.09845,10.99066l-28.61873,32.68424z" data-paper-data="{&quot;origPos&quot;:null,&quot;index&quot;:null}" fill="url(#color-2)" stroke="#000000" stroke-width="0" stroke-linecap="round"/><path d="M212.77008,158.18088c5.94921,-3.60719 14.021,-0.91422 18.02884,6.01492c4.00784,6.92914 2.43405,15.47052 -3.51516,19.07771c-5.94921,3.60719 -14.021,0.91422 -18.02884,-6.01492c-4.00784,-6.92914 -2.43405,-15.47052 3.51516,-19.07771z" data-paper-data="{&quot;origPos&quot;:null,&quot;origRot&quot;:0,&quot;index&quot;:null}" fill="#000000" stroke="none" stroke-width="0" stroke-linecap="butt"/><g data-paper-data="{&quot;origPos&quot;:null}" fill="none" stroke="#ffffff" stroke-width="2" stroke-linecap="round"><path d="M227.66667,168.66668l-2.44444,7.11111" data-paper-data="{&quot;origPos&quot;:null}"/><path d="M230.33333,174.33334l-7.33333,-4" data-paper-data="{&quot;origPos&quot;:null}"/></g></g></g></g></svg>