<svg version="1.1" xmlns="http://www.w3.org/2000/svg" xmlns:xlink="http://www.w3.org/1999/xlink" width="815.53148" height="377.98799" viewBox="0,0,815.53148,377.98799"><defs><linearGradient x1="462.00966" y1="181.8998" x2="497.29496" y2="181.8998" gradientUnits="userSpaceOnUse" id="color-1"><stop offset="0" stop-color="#ececec"/><stop offset="1" stop-color="#616161"/></linearGradient><linearGradient x1="17.29496" y1="181.8998" x2="-17.99034" y2="181.8998" gradientUnits="userSpaceOnUse" id="color-2"><stop offset="0" stop-color="#ececec"/><stop offset="1" stop-color="#616161"/></linearGradient></defs><g transform="translate(166.29587,3.5)"><g data-paper-data="{&quot;isPaintingLayer&quot;:true}" fill-rule="nonzero" stroke-linecap="butt" stroke-linejoin="miter" stroke-miterlimit="10" stroke-dasharray="" stroke-dashoffset="0" style="mix-blend-mode: normal"><g fill="#cfaf77" stroke="#e6cd95" stroke-width="7"><g><path d="M-160.79587,0h110v50h-110z"/><path d="M-44.79587,0h110v50h-110z"/><path d="M71.20414,0h110v50h-110z"/></g><g><path d="M-100.79586,56h110v50h-110z"/><path d="M15.20413,56h110v50h-110z"/><path d="M131.20412,56h110v50h-110z"/></g></g><g fill="#cfaf77" stroke="#e6cd95" stroke-width="7"><g><path d="M-161.79587,111h110v50h-110z"/><path d="M-45.79587,111h110v50h-110z"/><path d="M70.20414,111h110v50h-110z"/></g><g><path d="M-101.79586,167h110v50h-110z"/><path d="M14.20413,167h110v50h-110z"/><path d="M130.20412,167h110v50h-110z"/></g></g><g fill="#cfaf77" stroke="#e6cd95" stroke-width="7"><g><path d="M-162.79587,222h110v50h-110z"/><path d="M-46.79587,222h110v50h-110z"/><path d="M69.20414,222h110v50h-110z"/></g><g><path d="M-102.79586,278h110v50h-110z"/><path d="M13.20413,278h110v50h-110z"/><path d="M129.20412,278h110v50h-110z"/></g></g><g><g fill="#cfaf77" stroke="#e6cd95" stroke-width="7"><path d="M-162.79587,333h110v37.98799h-110z"/><path d="M-46.79587,333h110v37.98799h-110z"/><path d="M69.20414,333h110v37.98799h-110z"/></g><g fill="none" stroke="none" stroke-width="1" font-family="sans-serif" font-weight="normal" font-size="12" text-anchor="start"/></g><g fill="#cfaf77" stroke="#e6cd95" stroke-width="7"><g><path d="M187.7356,0h110v50h-110z"/><path d="M303.7356,0h110v50h-110z"/><path d="M419.73561,0h110v50h-110z"/><path d="M535.73561,0h110v50h-110z"/></g><g><path d="M247.7356,56h110v50h-110z"/><path d="M363.73561,56h110v50h-110z"/><path d="M479.73561,56h110v50h-110z"/></g></g><g fill="#cfaf77" stroke="#e6cd95" stroke-width="7"><g><path d="M186.7356,111h110v50h-110z"/><path d="M302.7356,111h110v50h-110z"/><path d="M418.73561,111h110v50h-110z"/><path d="M534.73561,111h110v50h-110z"/></g><g><path d="M246.7356,167h110v50h-110z"/><path d="M362.73561,167h110v50h-110z"/><path d="M478.73561,167h110v50h-110z"/></g></g><g fill="#cfaf77" stroke="#e6cd95" stroke-width="7"><g><path d="M185.7356,222h110v50h-110z"/><path d="M301.7356,222h110v50h-110z"/><path d="M417.73561,222h110v50h-110z"/><path d="M533.73561,222h110v50h-110z"/></g><g><path d="M245.7356,278h110v50h-110z"/><path d="M361.73561,278h110v50h-110z"/><path d="M477.73561,278h110v50h-110z"/></g></g><g><g fill="#cfaf77" stroke="#e6cd95" stroke-width="7"><path d="M185.7356,333h110v37.98799h-110z"/><path d="M301.7356,333h110v37.98799h-110z"/><path d="M417.73561,333h110v37.98799h-110z"/><path d="M533.73561,333h110v37.98799h-110z"/></g><g fill="none" stroke="none" stroke-width="1" font-family="sans-serif" font-weight="normal" font-size="12" text-anchor="start"/></g><path d="M497.29496,-2.77963v369.35885h-35.28529v-369.35885z" fill="url(#color-1)" stroke="none" stroke-width="0"/><path d="M17.29496,-2.77963v369.35885h-35.28529v-369.35885z" data-paper-data="{&quot;index&quot;:null}" fill="url(#color-2)" stroke="none" stroke-width="0"/></g></g></svg>