<svg version="1.1" xmlns="http://www.w3.org/2000/svg" xmlns:xlink="http://www.w3.org/1999/xlink" width="158.95112" height="212.16215" viewBox="0,0,158.95112,212.16215"><g transform="translate(-160.52444,-73.91893)"><g data-paper-data="{&quot;isPaintingLayer&quot;:true}" fill-rule="nonzero" stroke-linejoin="miter" stroke-miterlimit="10" stroke-dasharray="" stroke-dashoffset="0" style="mix-blend-mode: normal"><path d="M291.63942,119.17774c-0.66435,4.43745 -13.90909,10.0604 -24.33212,10.0604c-8.39889,0 -6.317,-7.90202 -6.317,-12.16609c0,-4.26407 16.45962,-3.33397 24.85857,-3.33397c8.39889,0 6.22061,2.56733 5.79061,5.43966z" fill="#880010" stroke="none" stroke-width="0" stroke-linecap="butt"/><g stroke="none" stroke-width="0" stroke-linecap="butt"><path d="M264.004,251.5712c0.29247,5.33718 6.32935,7.42833 6.14156,8.6274c-0.75989,4.85144 -3.06445,8.26994 -11.10625,10.5532c-9.96152,2.82833 -17.78722,2.16599 -26.71719,-3.0768c-6.0821,-3.57082 -0.73488,-6.65614 1.57723,-13.31922c0.82963,-2.39091 1.4442,-5.51798 2.02913,-11.85062c0.73129,-7.91747 4.99135,-22.3392 4.99135,-22.3392c0,0 6.23795,-0.94921 12.3949,-1.04189c6.09044,-0.02732 12.15155,2.47063 12.15155,2.47063c0,0 -2.13831,17.63892 -1.46227,29.9765z" data-paper-data="{&quot;origPos&quot;:null}" fill="#0052ef"/><path d="M272.38628,277.53781c0,4.5605 -4.6407,6.70927 -9.03781,7.91912c-2.88164,0.79287 -16.85749,0.38387 -23.79271,-3.67817c-2.15309,-1.26109 -3.90163,-4.12393 -3.90163,-4.12393c0,0 -5.89205,0.88848 -5.87514,-0.81563c0.01345,-1.35273 -0.02063,-3.65632 1.29018,-4.35834c5.64231,-3.02197 19.00705,-3.01473 25.40766,-3.01473c8.7866,0 15.90949,3.61384 15.90949,8.07174z" data-paper-data="{&quot;origPos&quot;:null}" fill="#f9c869"/><path d="M274.59079,271.80915c-1.59859,5.33816 -6.94125,9.15379 -16.87459,9.15379c-9.93334,0 -20.55951,-5.76134 -20.55951,-5.76134c0,0 -7.19136,0.37858 -7.33686,-1.46647c-0.30111,-3.81874 -0.36987,-10.04969 1.07548,-10.25337c5.33597,-0.7521 4.3284,-0.02964 11.30591,-1.52148c4.51759,-0.96588 12.06507,-5.27091 16.68478,-5.27091c9.93334,0 18.33686,6.33051 15.70478,15.11985z" data-paper-data="{&quot;origPos&quot;:null}" fill="#8e4108"/></g><g stroke="none" stroke-width="0" stroke-linecap="butt"><path d="M237.68321,251.86373c0.29247,5.33718 6.32935,7.42833 6.14156,8.6274c-0.75989,4.85144 -3.06445,8.26994 -11.10625,10.5532c-9.96152,2.82833 -17.78722,2.16599 -26.71719,-3.0768c-6.0821,-3.57082 -0.73488,-6.65614 1.57723,-13.31922c0.82963,-2.39091 1.4442,-5.51798 2.02913,-11.85062c0.73129,-7.91747 5.86869,-22.63166 5.86869,-22.63166c0,0 8.87003,-0.07181 14.73452,1.00532c4.62817,0.85008 12.15155,3.9329 12.15155,3.9329c0,0 -5.35532,14.42191 -4.67928,26.75949z" data-paper-data="{&quot;origPos&quot;:null}" fill="#0052ef"/><path d="M246.06549,277.83034c0,4.5605 -4.6407,6.70927 -9.03781,7.91912c-2.88164,0.79287 -16.85749,0.38387 -23.79271,-3.67817c-2.15309,-1.26109 -3.90163,-4.12393 -3.90163,-4.12393c0,0 -5.89205,0.88848 -5.87514,-0.81563c0.01345,-1.35273 -0.02063,-3.65632 1.29018,-4.35834c5.64231,-3.02197 19.00705,-3.01473 25.40766,-3.01473c8.7866,0 15.90949,3.61384 15.90949,8.07174z" data-paper-data="{&quot;origPos&quot;:null}" fill="#f9c869"/><path d="M248.27001,272.10138c-1.59859,5.33816 -6.94125,9.15379 -16.87459,9.15379c-9.93334,0 -20.55951,-5.76134 -20.55951,-5.76134c0,0 -7.19136,0.37858 -7.33686,-1.46647c-0.30111,-3.81874 -0.36987,-10.04969 1.07548,-10.25337c5.33597,-0.7521 4.3284,-0.02964 11.30591,-1.52148c4.51759,-0.96588 12.06507,-5.27091 16.68478,-5.27091c9.93334,0 18.33686,6.33051 15.70478,15.11985z" data-paper-data="{&quot;origPos&quot;:null}" fill="#8e4108"/></g><g><path d="M271.25907,203.08203c0.45811,24.76912 -15.3388,31.81899 -33.10576,31.81899c-17.76696,0 -32.40386,-11.74254 -32.40386,-23.63029c0,-12.89616 1.54242,-23.16219 11.48915,-31.37031c7.41062,-6.11533 18.09162,-3.2562 27.69963,-3.2562c17.76696,0 25.87174,2.15857 26.32085,26.43781z" data-paper-data="{&quot;origPos&quot;:null}" fill="#0052ef" stroke="none" stroke-width="2" stroke-linecap="butt"/><path d="M271.25907,202.38014c0,0 -20.17211,2.33961 -34.39253,2.80758c-13.04355,0.42921 -26.20382,-3.97739 -26.20382,-3.97739c0,0 -1.15398,-16.13837 8.17069,-22.41368c6.10091,-4.10573 12.96201,-5.45031 21.77654,-5.6619c8.81453,-0.21153 18.3999,2.5024 22.83717,6.09726c10.4814,8.49151 7.81195,23.14814 7.81195,23.14814z" data-paper-data="{&quot;origPos&quot;:null}" fill="#ff0021" stroke="none" stroke-width="2" stroke-linecap="butt"/><path d="M255.00782,177.6869c0,0 2.50374,8.00188 3.00883,12.81322c0.64877,6.17977 -0.67847,17.79105 -0.67847,17.79105" data-paper-data="{&quot;origPos&quot;:null,&quot;origRot&quot;:0}" fill="none" stroke="#0052ef" stroke-width="12" stroke-linecap="round"/><path d="M229.84759,178.28194c0,0 1.45041,8.25802 1.33046,13.09431c-0.15402,6.21184 -2.96824,17.55482 -2.96824,17.55482" data-paper-data="{&quot;origPos&quot;:null}" fill="none" stroke="#0052ef" stroke-width="12" stroke-linecap="round"/><path d="M224.23248,206.70841c0,-2.64887 2.14737,-4.79625 4.79625,-4.79625c2.64887,0 4.79625,2.14737 4.79625,4.79625c0,2.64887 -2.14737,4.79625 -4.79625,4.79625c-2.64887,0 -4.79625,-2.14737 -4.79625,-4.79625z" data-paper-data="{&quot;origPos&quot;:null}" fill="#ffe84f" stroke="none" stroke-width="2" stroke-linecap="butt"/><path d="M253.24395,206.70841c0,-2.64887 2.14737,-4.79625 4.79625,-4.79625c2.64887,0 4.79625,2.14737 4.79625,4.79625c0,2.64887 -2.14737,4.79625 -4.79625,4.79625c-2.64887,0 -4.79625,-2.14737 -4.79625,-4.79625z" data-paper-data="{&quot;origPos&quot;:null}" fill="#ffe84f" stroke="none" stroke-width="2" stroke-linecap="butt"/></g><path d="M205.96189,167.03749c0,0 -1.98903,1.36935 -4.19178,-0.23094c-2.20281,-1.60029 -3.79866,-5.30097 -0.61001,-7.06831c3.81393,-2.1139 2.82456,-9.22384 5.02737,-7.62349c0,0 8.46121,1.19518 9.11418,4.58027c0,0 3.56875,9.77561 2.10636,11.3392c0,0 -2.08439,1.54631 -7.51857,1.28951c-2.94432,-0.13911 -3.92755,-2.28618 -3.92755,-2.28618z" data-paper-data="{&quot;origRot&quot;:0}" fill="#5a2c0a" stroke="none" stroke-width="0" stroke-linecap="butt"/><path d="M211.60462,121.84877c5.04654,1.17814 43.56744,-2.53642 50.34511,-2.15973c10.02742,0.55731 7.25526,9.60838 7.96305,19.62637c0.81387,11.51848 8.84715,16.76389 4.8125,27.58327c-1.55556,4.17145 -5.05488,6.35449 -8.55206,9.10961c-1.98392,1.56293 -7.5207,3.08125 -20.14095,3.34079c-17.83943,0.36689 -22.8976,-2.52157 -30.25247,-8.12718c-4.67016,-3.55944 -2.63257,-8.61639 -6.347,-14.23965c-1.13859,-1.72376 -2.48877,-2.64328 -2.7163,-2.64328c-12.13147,0 -18.80057,-10.02121 -18.80057,-19.49693c0,-9.47571 4.32949,-17.15726 11.11325,-17.15726c6.78375,0 10.82078,3.75436 12.57552,4.16397z" fill="#ffdebd" stroke="none" stroke-width="0" stroke-linecap="butt"/><path d="M267.97013,127.93927c0.41217,5.71904 -2.1268,10.56233 -5.67103,10.81774c-3.54423,0.25547 -6.75144,-4.17371 -7.16367,-9.89275c-0.41217,-5.71904 2.1268,-10.56233 5.67103,-10.81774c3.54423,-0.25547 6.7515,4.17371 7.16367,9.89275z" data-paper-data="{&quot;origRot&quot;:0}" fill="#ffffff" stroke="none" stroke-width="0" stroke-linecap="butt"/><path d="M223.78234,131.00092c0,3.05143 3.57733,7.5148 0.83304,8.84903c-3.19255,1.55209 -4.8268,-0.59607 -4.8268,-0.59607c0,0 0.68114,1.84328 -3.59334,2.64303c-3.17527,0.59406 -4.27819,-6.06166 -4.27819,-11.23021c0,-5.16855 -0.01953,-10.1753 3.20861,-10.29439c13.59155,-0.50132 8.65661,5.46005 8.65661,10.6286z" fill="#5a2c0a" stroke="none" stroke-width="0" stroke-linecap="butt"/><path d="M252.73545,133.79402c0.66788,5.69482 -1.65165,10.64698 -5.18085,11.06085c-3.5292,0.41393 -6.93163,-3.86712 -7.59951,-9.56201c-0.66788,-5.69482 1.65165,-10.64698 5.18085,-11.06085c3.5292,-0.41393 6.93163,3.86712 7.59951,9.56201z" data-paper-data="{&quot;origRot&quot;:0}" fill="#ffffff" stroke="none" stroke-width="0" stroke-linecap="butt"/><path d="M275.138,87.56316c2.80344,17.4824 -0.57574,18.47664 -9.96876,24.07343c-13.68642,8.15505 -31.58926,6.50413 -46.2084,12.83689c-3.83858,1.66279 -13.62228,-2.37728 -17.80554,-2.37728c-8.55602,0 -13.38373,-6.1149 -13.73729,-13.39839c-0.77985,-16.06565 7.13099,-16.12796 15.68701,-16.12796c0,0 9.41614,1.56067 12.66863,6.55628c0,0 13.09917,-21.31283 26.90748,-23.94588c17.77523,-3.38941 30.44368,-0.17179 32.45693,12.38286z" fill="#ff0021" stroke="none" stroke-width="0" stroke-linecap="butt"/><path d="M271.7526,97.536c0,6.39611 -1.71165,11.20818 -14.27172,11.58116c-13.2594,0.39373 -14.27172,-5.18505 -14.27172,-11.58116c0,-6.39611 6.38966,-11.58116 14.27172,-11.58116c7.88206,0 14.27172,5.18505 14.27172,11.58116z" fill="#ffffff" stroke="none" stroke-width="0" stroke-linecap="butt"/><path d="M247.6544,104.23005l5.64766,-14.9996l5.1517,6.94678l3.18604,-6.21117l6.23838,11.79421l-4.28002,2.58516l-1.77561,-8.93831l-3.17575,5.46145l-4.17845,-5.48713l-1.78961,8.84861z" fill="#ff0021" stroke="none" stroke-width="0" stroke-linecap="butt"/><path d="M292.10727,116.72117c-0.23399,1.00428 -46.02383,7.60377 -58.84167,9.00756c-6.22961,0.68224 -18.83404,0.18536 -18.60005,-0.81886c0.86486,-3.71243 3.28121,-9.64507 9.24155,-11.58116c7.20274,-2.33961 31.93023,-8.63331 50.42148,-8.35064c7.55916,0.11556 18.64357,8.03066 17.7787,11.74309z" fill="#bc041a" stroke="none" stroke-width="0" stroke-linecap="butt"/><path d="M273.98212,167.29837c-0.43414,2.98108 -2.686,4.47573 -4.37714,4.93426c-5.16131,1.39959 -12.67922,1.19573 -17.79951,-0.34736c-2.94274,-0.88683 -2.99501,-2.7906 -3.27914,-3.05672c-0.3002,-0.28115 -3.47406,1.833 -7.29907,1.833c-6.13766,0 -10.38208,-4.32517 -10.38208,-10.38208c0,-6.64184 0.57641,-10.33261 1.5754,-10.52369c5.81842,-1.11297 7.55198,4.0153 12.02369,6.42934c0,0 14.95244,4.92203 21.93786,4.52417c0,0 11.27561,-5.27706 14.7706,-5.04569c1.73332,0.11477 1.7447,3.74705 1.19786,5.58164c0,0 0.17794,5.01076 -2.24754,6.3428c-5.73505,3.14959 -5.99526,-1.1524 -6.12093,-0.28967z" fill="#38291e" stroke="none" stroke-width="0" stroke-linecap="butt"/><g fill="none" stroke="#f6b09a" stroke-width="4" stroke-linecap="round"><path d="M195.37224,129.7977c0,0 3.46652,-2.02372 7.90208,1.40318c6.3613,4.91473 2.62624,13.3031 2.62624,13.3031" data-paper-data="{&quot;origPos&quot;:null}"/><path d="M205.56634,137.65207h-7.0189" data-paper-data="{&quot;origPos&quot;:null}"/><path d="M203.39389,144.67085h1.50402" data-paper-data="{&quot;origPos&quot;:null}"/></g><path d="M263.40963,197.18322c-5.13016,-3.54459 -3.68054,-15.87895 2.81014,-25.27305c6.49074,-9.39411 14.06347,-17.35467 14.06347,-17.35467l15.51717,10.46034c0,0 -8.35222,15.93238 -13.57274,23.48819c-6.49074,9.39411 -13.688,12.22378 -18.8181,8.67925z" data-paper-data="{&quot;origRot&quot;:0}" fill="#ff0021" stroke="none" stroke-width="0" stroke-linecap="butt"/><g data-paper-data="{&quot;origRot&quot;:0}" fill="#ffffff" stroke="none" stroke-width="0" stroke-linecap="butt"><path d="M292.1565,155.47812c-9.33837,-5.83875 -20.56839,-13.5809 -13.84914,-23.04803c4.87457,-6.86804 20.97326,-10.6768 28.7773,-2.9055c8.51598,8.48026 17.4664,14.67762 8.95328,24.55156c-7.949,9.21958 -14.54307,7.24071 -23.88143,1.40197z" data-paper-data="{&quot;origRot&quot;:0,&quot;origPos&quot;:null}"/><path d="M286.02237,162.46111c-7.20389,-4.51735 -16.30414,-8.26629 -12.39783,-13.51633c4.36996,-5.87325 6.01322,-4.3284 17.60301,3.34444c13.20293,8.74084 16.81215,7.67308 12.33563,14.34347c-2.61394,3.89505 -10.33693,0.34571 -17.54082,-4.17158z" data-paper-data="{&quot;origRot&quot;:0,&quot;origPos&quot;:null}"/></g><path d="M201.21354,188.81956c-5.83765,-7.08985 -15.50055,-22.26307 -15.50055,-22.26307l14.58214,-11.72867c0,0 8.21566,7.29512 15.47365,16.10995c7.25805,8.81483 9.74013,20.98354 4.92635,24.94712c-4.81371,3.96357 -12.2236,1.74951 -19.48153,-7.06533z" data-paper-data="{&quot;origRot&quot;:0}" fill="#ff0021" stroke="none" stroke-width="0" stroke-linecap="butt"/><g data-paper-data="{&quot;origRot&quot;:0}" fill="#ffffff" stroke="none" stroke-width="0" stroke-linecap="butt"><path d="M164.62684,157.35816c-9.3136,-9.1227 -0.91629,-16.0511 6.85605,-25.21774c7.12259,-8.40029 23.48472,-5.9593 28.91976,0.4743c7.49186,8.86826 -3.04698,17.52774 -11.86109,24.13136c-8.8141,6.60363 -15.21831,9.13024 -23.91472,0.61207z" data-paper-data="{&quot;origRot&quot;:0,&quot;origPos&quot;:null}"/><path d="M178.11378,168.82053c-5.02177,-6.27014 -1.33551,-5.50983 11.08519,-15.33034c10.90318,-8.62065 12.41067,-10.29822 17.25925,-4.81347c4.33412,4.9028 -4.41852,9.40403 -11.21682,14.51136c-6.7983,5.10734 -14.19528,9.29382 -17.12762,5.63245z" data-paper-data="{&quot;origRot&quot;:0,&quot;origPos&quot;:null}"/></g><path d="M245.27651,134.54715c0,-1.03234 0.83687,-1.86915 1.86915,-1.86915c1.03234,0 1.86915,0.83681 1.86915,1.86915c0,1.03234 -0.83687,1.86921 -1.86915,1.86921c-1.03234,0 -1.86915,-0.83687 -1.86915,-1.86921z" fill="#000000" stroke="none" stroke-width="0.5" stroke-linecap="butt"/><path d="M259.76134,129.92495c0,-1.03234 0.83687,-1.86915 1.86915,-1.86915c1.03234,0 1.86915,0.83681 1.86915,1.86915c0,1.03234 -0.83687,1.86921 -1.86915,1.86921c-1.03234,0 -1.86915,-0.83687 -1.86915,-1.86921z" fill="#000000" stroke="none" stroke-width="0.5" stroke-linecap="butt"/><path d="M280.56226,148.58111c-0.58493,7.74185 1.31884,13.01416 -15.50007,12.72175c-7.75171,-0.13479 -15.2076,-4.97991 -15.2076,-11.84435c0,-6.86451 7.47817,-15.33655 15.2076,-15.9387c11.26228,-0.87734 16.43583,2.67553 15.50007,15.06137z" fill="#ffdebd" stroke="none" stroke-width="0" stroke-linecap="butt"/></g></g></svg>