<svg version="1.1" xmlns="http://www.w3.org/2000/svg" xmlns:xlink="http://www.w3.org/1999/xlink" width="61.69944" height="120.52153" viewBox="0,0,61.69944,120.52153"><defs><linearGradient x1="239.31233" y1="129.04231" x2="239.31233" y2="222.58687" gradientUnits="userSpaceOnUse" id="color-1"><stop offset="0" stop-color="#ffa829"/><stop offset="1" stop-color="#f2a027"/></linearGradient><linearGradient x1="224.18322" y1="110.99688" x2="224.18322" y2="137.19572" gradientUnits="userSpaceOnUse" id="color-2"><stop offset="0" stop-color="#d48b22"/><stop offset="1" stop-color="#e39524"/></linearGradient><linearGradient x1="254.56842" y1="110.55609" x2="254.56842" y2="137.45338" gradientUnits="userSpaceOnUse" id="color-3"><stop offset="0" stop-color="#d48b22"/><stop offset="1" stop-color="#e39524"/></linearGradient><linearGradient x1="224.02696" y1="198.06949" x2="224.02696" y2="217.80332" gradientUnits="userSpaceOnUse" id="color-4"><stop offset="0" stop-color="#d48b22"/><stop offset="1" stop-color="#e39524"/></linearGradient><linearGradient x1="224.17931" y1="170.35605" x2="224.17931" y2="191.56509" gradientUnits="userSpaceOnUse" id="color-5"><stop offset="0" stop-color="#d48b22"/><stop offset="1" stop-color="#e39524"/></linearGradient><linearGradient x1="254.45034" y1="197.99817" x2="254.45034" y2="217.73199" gradientUnits="userSpaceOnUse" id="color-6"><stop offset="0" stop-color="#d48b22"/><stop offset="1" stop-color="#e39524"/></linearGradient><linearGradient x1="254.60269" y1="170.28473" x2="254.60269" y2="191.49377" gradientUnits="userSpaceOnUse" id="color-7"><stop offset="0" stop-color="#d48b22"/><stop offset="1" stop-color="#e39524"/></linearGradient><linearGradient x1="224.02673" y1="143.11476" x2="224.02673" y2="164.32378" gradientUnits="userSpaceOnUse" id="color-8"><stop offset="0" stop-color="#d48b22"/><stop offset="1" stop-color="#e39524"/></linearGradient><linearGradient x1="254.45011" y1="143.04343" x2="254.45011" y2="164.25246" gradientUnits="userSpaceOnUse" id="color-9"><stop offset="0" stop-color="#d48b22"/><stop offset="1" stop-color="#e39524"/></linearGradient></defs><g transform="translate(-208.45797,-102.15281)"><g data-paper-data="{&quot;isPaintingLayer&quot;:true}" fill-rule="nonzero" stroke-linejoin="miter" stroke-miterlimit="10" stroke-dasharray="" stroke-dashoffset="0" style="mix-blend-mode: normal"><path d="M210.46722,131.93543h57.6902v88.72268h-57.6902z" fill="none" stroke="#cd8521" stroke-width="4" stroke-linecap="butt"/><path d="M209.45798,132.48594c0,-16.20024 13.35953,-29.33313 29.83933,-29.33313c16.47982,0 29.83933,13.1329 29.83933,29.33313c0,16.20024 -13.35953,29.33313 -29.83933,29.33313c-16.47982,0 -29.83933,-13.1329 -29.83933,-29.33313z" fill="#fca72b" stroke="#cd8521" stroke-width="2" stroke-linecap="butt"/><path d="M210.46722,129.04231h57.69019v93.54456h-57.69019z" fill="url(#color-1)" stroke="none" stroke-width="1.53692" stroke-linecap="butt"/><path d="M238.01828,103.81489h2.78597v118.85946h-2.78597z" fill="#c4851f" stroke="#cd8521" stroke-width="0" stroke-linecap="butt"/><path d="M224.52405,114.05049c3.57916,-3.08944 8.12555,-3.05359 8.12555,-3.05359l0.05078,26.19882h-17.01283c0,0 -0.11889,0.00775 0.20313,-3.43958c0.32203,-3.44734 0.01679,-6.16936 1.52354,-9.60852c1.50676,-3.43916 3.53066,-7.0077 7.10985,-10.09715z" fill="url(#color-2)" stroke="#cd8521" stroke-width="1.5" stroke-linecap="round"/><path d="M261.33164,123.70683c1.96117,4.47636 1.16636,5.78502 1.52354,9.60853c0.35718,3.82349 0.20313,4.13803 0.20313,4.13803h-17.01284l0.05079,-26.89727c0,0 5.5014,0.78853 8.12555,3.05359c2.62413,2.26505 5.14867,5.62077 7.10984,10.09715z" fill="url(#color-3)" stroke="#cd8521" stroke-width="1.5" stroke-linecap="round"/><g stroke="#cd8521" stroke-width="1.5" stroke-linecap="butt"><path d="M215.52055,198.06949h17.01283v19.73383h-17.01283z" fill="url(#color-4)"/><path d="M215.6729,170.35605h17.01283v21.20903h-17.01283z" fill="url(#color-5)"/></g><g stroke="#cd8521" stroke-width="1.5" stroke-linecap="butt"><path d="M245.94393,197.99817h17.01283v19.73382h-17.01283z" fill="url(#color-6)"/><path d="M246.09628,170.28473h17.01283v21.20903h-17.01283z" fill="url(#color-7)"/></g><path d="M215.52032,143.11476h17.01283v21.20903h-17.01283z" fill="url(#color-8)" stroke="#cd8521" stroke-width="1.5" stroke-linecap="butt"/><path d="M245.9437,143.04343h17.01283v21.20903h-17.01283z" fill="url(#color-9)" stroke="#cd8521" stroke-width="1.5" stroke-linecap="butt"/></g></g></svg>