<svg version="1.1" xmlns="http://www.w3.org/2000/svg" xmlns:xlink="http://www.w3.org/1999/xlink" width="101.74745" height="149.57373" viewBox="0,0,101.74745,149.57373"><g transform="translate(-187.44479,-105.01875)"><g data-paper-data="{&quot;isPaintingLayer&quot;:true}" fill-rule="nonzero" stroke-linejoin="miter" stroke-miterlimit="10" stroke-dasharray="" stroke-dashoffset="0" style="mix-blend-mode: normal"><g stroke="none" stroke-width="0" stroke-linecap="butt"><path d="M257.42042,216.01171c0,10.879 -11.12329,19.69818 -24.84455,19.69818c-13.72126,0 -25.90931,-2.07566 -25.90931,-12.95466c0,-10.879 12.18805,-26.4417 25.90931,-26.4417c13.72126,0 24.84455,8.81918 24.84455,19.69818z" data-paper-data="{&quot;origPos&quot;:null}" fill="#a35e25"/><path d="M237.85566,189.9841l-0.00681,14.60304l-21.95432,0.24454c0,0 -6.62522,0.88322 -6.62522,-7.39421c0,-7.44927 6.62522,-7.1576 6.62522,-7.1576z" data-paper-data="{&quot;origPos&quot;:null}" fill="#c3b086"/></g><g data-paper-data="{&quot;index&quot;:null}" stroke="none" stroke-width="0" stroke-linecap="butt"><path d="M274.61766,243.90843c-0.3905,5.07041 -3.20422,7.11165 -14.15243,6.29321c-8.70358,-0.79306 -12.89803,-2.11216 -12.76083,-7.43484c0.0892,-3.46089 6.63969,-5.77356 13.90217,-5.21423c7.26246,0.55932 13.27685,2.90527 13.01111,6.35587z" data-paper-data="{&quot;origPos&quot;:null}" fill="#f3c08d"/><path d="M276.51382,240.44647c-0.30608,3.97428 -1.0058,7.77984 -15.97504,6.62697c-15.66344,-1.20633 -14.16406,-5.18307 -13.85798,-9.15736c0.40846,-5.30369 4.58843,-9.20521 12.5632,-8.7582c7.97476,0.44703 17.74229,5.154 17.26983,11.28858z" data-paper-data="{&quot;origPos&quot;:null}" fill="#ff1919"/></g><path d="M265.33956,221.55322c-4.03182,-3.75802 -13.93997,-27.29295 -6.19915,-25.41871c2.81812,0.68234 7.4692,8.74864 11.6745,12.31148c3.98972,3.38019 17.13153,2.94307 9.14745,11.33129c-3.84004,4.03441 -9.43567,-1.33762 -9.43567,-1.33762c0,0 0.0443,7.98974 -5.18715,3.11358z" data-paper-data="{&quot;origRot&quot;:0,&quot;index&quot;:null}" fill="#ffdebd" stroke="none" stroke-width="0" stroke-linecap="butt"/><path d="M267.26036,219.05402c0,11.27968 -6.52472,19.18132 -23.71978,19.02368c-16.99372,-0.15579 -24.78644,-7.74399 -24.78644,-19.02368c0,-7.51824 2.51856,-13.80637 7.82192,-19.13536c5.61111,-5.63823 8.40953,-6.55465 16.1991,-6.55465c0,0 11.27942,-1.57367 16.404,4.81451c4.52483,5.64056 8.0812,9.59583 8.0812,20.87552z" data-paper-data="{&quot;origPos&quot;:null}" fill="#f9faaf" stroke="none" stroke-width="0" stroke-linecap="butt"/><path d="M263.22217,208.69444c0,0 0.1756,6.57643 -4.7616,6.64359c-4.93846,0.06717 -5.06642,-7.64422 -5.06642,-7.64422c0,0 2.27772,0.59522 5.32342,0.81942c3.0457,0.2242 4.5046,0.18121 4.5046,0.18121z" data-paper-data="{&quot;index&quot;:null}" fill="#f9faaf" stroke="#d6d496" stroke-width="2.5" stroke-linecap="butt"/><path d="M231.47156,215.51817c-5.61576,-0.06716 -5.73281,-7.38383 -5.73281,-7.38383c0,0 1.98063,0.32568 5.31803,0.1097c3.46429,-0.2242 6.26842,-0.73372 6.26842,-0.73372c0,0 -0.23646,8.07502 -5.85364,8.00785z" fill="#f9faaf" stroke="#d6d496" stroke-width="2.5" stroke-linecap="butt"/><path d="M258.76567,199.07221c0,4.63709 -13.44445,13.47763 -13.44445,13.47763c0,0 -5.6623,-5.86902 -9.48136,-8.27881c-2.81169,-1.77415 -7.9779,-1.71175 -7.9779,-5.19881c0,-4.63709 6.33733,-5.45016 15.17595,-5.45016c8.83861,0 15.72778,0.81308 15.72778,5.45016z" fill="#ff1919" stroke="none" stroke-width="0" stroke-linecap="butt"/><g data-paper-data="{&quot;index&quot;:null}" stroke="none" stroke-width="0" stroke-linecap="butt"><path d="M213.56322,248.72042c-0.49289,-3.42553 5.35357,-6.16328 12.56329,-7.20067c7.20973,-1.03739 13.89857,0.83794 14.21597,4.2854c0.48816,5.30203 -3.61008,6.89506 -12.24235,8.26078c-10.87033,1.53918 -13.81263,-0.31192 -14.53689,-5.3455z" data-paper-data="{&quot;origPos&quot;:null}" fill="#f3c08d"/><path d="M227.92993,232.98748c7.92787,-0.97233 12.35621,2.64482 13.1138,7.91c0.5677,3.94543 2.32625,7.81454 -13.22344,10.05194c-14.86053,2.13824 -15.80986,-1.61284 -16.37756,-5.55826c-0.87628,-6.09002 8.55931,-11.43135 16.48719,-12.40368z" data-paper-data="{&quot;origPos&quot;:null}" fill="#ff1919"/></g><path d="M220.84146,228.14035c0,0 -0.99001,-1.09325 -1.41048,-2.64422c-0.41155,-1.51803 -0.53569,-2.90757 -0.53569,-2.90757c0,0 14.56797,1.6 26.90727,1.6c7.07527,0 21.37715,-1.6 21.37715,-1.6c0,0 0.01272,0.7989 -0.33481,2.69582c-0.35825,1.95542 -1.26519,2.85597 -1.26519,2.85597c0,0 -9.75759,1.53684 -19.67714,1.4c-11.57548,-0.15968 -25.0611,-1.4 -25.0611,-1.4z" fill="#ba782e" stroke="none" stroke-width="0" stroke-linecap="butt"/><path d="M238.94925,230.22019c0,0 -0.69455,-0.98381 -0.76508,-3.29669c-0.06483,-2.12606 0.86508,-3.54437 0.86508,-3.54437c0,0 2.39024,-0.459 7.11661,-0.6c5.07387,-0.15137 6.57454,0.5 6.57454,0.5c0,0 0.5554,1.7401 0.6,3.43886c0.07101,2.70461 -0.6,3.2022 -0.6,3.2022c0,0 -2.16895,0.8275 -6.37454,0.9c-4.72344,0.08142 -7.41661,-0.6 -7.41661,-0.6z" fill="#f8c537" stroke="none" stroke-width="0" stroke-linecap="butt"/><path d="M230.0204,229.5089c0,0 -0.65927,-1.08522 -0.6,-3.2c0.05749,-2.05118 0.6,-3.3 0.6,-3.3" fill="none" stroke="#d6d496" stroke-width="2.5" stroke-linecap="round"/><path d="M261.76209,222.71799c0,0 0.54251,1.24882 0.6,3.3c0.05927,2.11478 -0.6,3.2 -0.6,3.2" data-paper-data="{&quot;index&quot;:null}" fill="none" stroke="#d6d496" stroke-width="2.5" stroke-linecap="round"/><path d="M218.12178,221.03136c0,0 -5.06745,5.87289 -9.26875,2.21619c-8.73521,-7.60288 4.38974,-8.39956 8.04504,-12.13884c3.85283,-3.94133 7.72735,-12.40809 10.46909,-13.35157c7.53106,-2.59157 -0.12742,21.76846 -3.78924,25.88786c-4.75134,5.34506 -5.45616,-2.61366 -5.45616,-2.61366z" data-paper-data="{&quot;origRot&quot;:0}" fill="#ffdebd" stroke="none" stroke-width="0" stroke-linecap="butt"/><g stroke="none" stroke-width="0" stroke-linecap="butt"><path d="M288.55987,145.22386c-0.26406,16.62627 -8.27456,29.3997 -46.07894,29.85363c-46.96694,0.56394 -53.63265,-5.46596 -54.04131,-29.36922c-0.15985,-9.35043 1.48696,-18.46488 7.43707,-24.6067c13.93907,-14.38819 26.39572,-16.08282 44.25767,-16.08282c26.74467,0 48.9207,9.02635 48.42551,40.20512z" data-paper-data="{&quot;origPos&quot;:null}" fill="#ffffff"/><path d="M267.9351,129.77499c0.4095,13.72626 -10.69405,21.70068 -22.82812,21.49632c-15.05298,-0.25351 -23.85375,-9.73172 -23.85375,-21.3327c0,-13.56455 10.85943,-20.298 24.87938,-20.45773c14.36282,-0.16363 21.51368,10.61305 21.8025,20.29409z" fill="#ff1919"/><path d="M206.39696,139.7783c3.0624,14.72856 -14.30747,24.58117 -14.30747,24.58117c0,0 -4.4893,-6.7545 -4.1053,-22.29766c0.32626,-13.20596 6.19341,-19.00879 6.19341,-19.00879c0,0 9.15696,1.99672 12.21936,16.72528z" data-paper-data="{&quot;origRot&quot;:0}" fill="#ff1919"/><path d="M285.253,125.62279c0,0 3.59084,3.12839 3.7779,16.51825c0.08235,5.89455 -2.1097,14.5753 -2.1097,14.5753c0,0 -8.35544,-3.81052 -8.47955,-17.21086c-0.1126,-14.72701 6.81135,-13.88269 6.81135,-13.88269z" fill="#ff1919"/></g><g><path d="M243.16614,198.42941c-11.93126,0.59837 -24.92995,-4.48828 -27.45638,-18.25388c-1.3935,-7.59265 -0.89114,-12.12711 -0.89114,-12.12711c0,0 5.35517,-4.92262 27.21564,-7.05557c17.32727,-1.69063 25.73091,6.02229 25.73091,6.02229c0,0 1.39225,6.83735 0.33504,12.31588c-1.05721,5.47853 -3.18,18.0074 -24.93407,19.09839z" fill="#ffdebd" stroke="none" stroke-width="0" stroke-linecap="butt"/><path d="M247.23219,189.09738c0,0 -3.52586,1.15242 -6.4716,0.50522c-2.98556,-0.65594 -5.87817,-2.69949 -5.87817,-2.69949" fill="none" stroke="#564031" stroke-width="2.5" stroke-linecap="round"/><path d="M234.99994,183.43365c0,0 0.06045,1.74986 -0.59496,3.20775c-0.76532,1.70238 -2.34149,2.658 -2.34149,2.658" fill="none" stroke="#564031" stroke-width="2.5" stroke-linecap="round"/><g stroke="none" stroke-width="0" stroke-linecap="butt"><path d="M240.26902,166.11717c2.30282,0 3.06004,2.3002 3.06004,7.70286c0,5.01982 -0.96149,7.70286 -3.06004,7.70286c-2.09856,0 -3.06003,-2.49162 -3.06003,-7.70285c0,-5.40266 0.75721,-7.70285 3.06003,-7.70285z" fill="#000000"/><path d="M241.89192,169.6908c0,1.50593 -0.17803,2.30328 -1.3473,2.30328c-1.10358,0 -1.31444,-0.66602 -1.34728,-2.27046c-0.03618,-1.76824 0.6032,-2.18006 1.34728,-2.18006c0.74409,0 1.3473,0.37862 1.3473,2.14722z" fill="#ffffff"/></g><g stroke="none" stroke-width="0" stroke-linecap="butt"><path d="M253.81228,166.10164c2.30282,0 3.06004,2.3002 3.06004,7.70286c0,5.01982 -0.96148,7.70286 -3.06004,7.70286c-2.09856,0 -3.06002,-2.49162 -3.06002,-7.70285c0,-5.40266 0.7572,-7.70285 3.06002,-7.70285z" fill="#000000"/><path d="M255.43517,169.67527c0,1.50593 -0.17803,2.30329 -1.34729,2.30329c-1.10358,0 -1.31444,-0.66602 -1.34728,-2.27046c-0.03618,-1.76824 0.6032,-2.18006 1.34728,-2.18006c0.74408,0 1.34729,0.37863 1.34729,2.14722z" fill="#ffffff"/></g></g><path d="M187.45163,144.65787c-0.10888,-5.36473 1.11741,-8.31432 1.11741,-8.31432c0,0 38.47657,-14.88368 61.34697,-15.58974c15.978,-0.49327 38.69719,13.80824 38.69719,13.80824c0,0 0.74263,1.69401 0.54585,6.99876c-0.19678,5.30475 -0.73408,6.71627 -0.73408,6.71627c0,0 -24.86541,-12.15499 -38.59118,-11.72702c-25.29645,0.78875 -61.6067,15.80307 -61.6067,15.80307c0,0 -0.68468,-3.22233 -0.77546,-7.69525z" data-paper-data="{&quot;origPos&quot;:null}" fill="#f3c640" stroke="none" stroke-width="0" stroke-linecap="butt"/><g stroke="none" stroke-width="0" stroke-linecap="butt"><path d="M272.45937,128.86803c-0.49441,13.97598 -11.48118,21.4043 -20.76494,21.4043c-9.00334,0 -22.45363,-11.90838 -22.45363,-11.90838c0,0 -2.21271,-1.8021 -2.61932,-7.35031c-0.38326,-5.22953 2.04719,-8.0213 2.04719,-8.0213c0,0 13.74202,-16.36799 23.02577,-16.36799c9.28374,0 21.2888,7.435 20.76494,22.24369z" data-paper-data="{&quot;origPos&quot;:null}" fill="#92999e"/><path d="M269.49294,128.44834c0,10.19874 -6.64055,18.46645 -14.83209,18.46645c-8.19153,0 -14.83208,-8.26772 -14.83208,-18.46645c0,-10.19874 6.64055,-18.46646 14.83208,-18.46646c8.19153,0 14.83209,8.26772 14.83209,18.46646z" data-paper-data="{&quot;origPos&quot;:null}" fill="#e6c985"/><path d="M266.54303,128.34175c0,6.97356 -4.44412,12.62674 -9.92624,12.62674c-5.48211,0 -9.92623,-5.65318 -9.92623,-12.62674c0,-6.97356 4.44413,-12.62673 9.92623,-12.62673c5.48211,0 9.92624,5.65319 9.92624,12.62673z" fill="#fff9c5"/></g></g></g></svg>