<svg version="1.1" xmlns="http://www.w3.org/2000/svg" xmlns:xlink="http://www.w3.org/1999/xlink" width="81.50619" height="88.24215" viewBox="0,0,81.50619,88.24215"><g transform="translate(-217.5,-211.39639)"><g data-paper-data="{&quot;isPaintingLayer&quot;:true}" fill="none" fill-rule="nonzero" stroke="#57350f" stroke-width="4" stroke-linecap="none" stroke-linejoin="miter" stroke-miterlimit="10" stroke-dasharray="" stroke-dashoffset="0" font-family="none" font-weight="none" font-size="none" text-anchor="none" style="mix-blend-mode: normal"><path d="M265.44988,238.14856c-8.54585,-2.38461 -8.05083,5.04444 -12.69897,3.00841c-3.0373,-1.33043 -1.79072,-1.71658 -3.67678,-4.44385c-3.5944,-5.19754 4.4951,-11.47721 6.14004,-13.39379c0.54832,-0.63886 0.84709,-1.00754 1.33424,-1.69418c4.47394,-6.30615 9.47935,-13.69521 18.44724,-2.23877c7.57444,9.67632 26.13885,19.00407 21.18077,24.93712c-17.76548,21.25891 -18.89036,-2.87221 -30.72654,-6.17494z" data-paper-data="{&quot;origPos&quot;:null,&quot;origRot&quot;:0}" fill="#7a4300" stroke-linecap="butt"/><path d="M257,265.48333c0,0 -2.79274,-14.15811 -1.7,-22.9c0.85858,-6.86863 6.7,-17.1 6.7,-17.1" data-paper-data="{&quot;origPos&quot;:null}" fill="none" stroke-linecap="round"/><path d="M249.5,237.48333c0,0 -12.55476,7.97432 -18.67029,6.03774c-5.59235,-1.77091 -11.32971,-15.53774 -11.32971,-15.53774" data-paper-data="{&quot;origPos&quot;:null}" fill="none" stroke-linecap="round"/><path d="M223.43353,293.68362c-5.00188,-27.24949 14.27955,-12.69604 24.38296,-19.69063c7.29478,-5.05017 1.26374,-9.41623 5.7999,-11.69084c2.96412,-1.48633 2.46466,-0.28067 5.7677,0.0111c6.29483,0.55605 5.95658,10.79127 6.37985,13.28124c0.14109,0.82999 0.23378,1.29539 0.45071,2.10886c1.9923,7.4709 4.47803,16.04256 -10.06484,15.62087c-12.28317,-0.35618 -31.32034,7.96432 -32.71629,0.35939z" data-paper-data="{&quot;origPos&quot;:null,&quot;origRot&quot;:0}" fill="#7a4300" stroke-linecap="butt"/></g></g></svg>