<svg version="1.1" xmlns="http://www.w3.org/2000/svg" xmlns:xlink="http://www.w3.org/1999/xlink" width="267.39674" height="47.237" viewBox="0,0,267.39674,47.237"><defs><linearGradient x1="240.00005" y1="180" x2="240.00005" y2="180" gradientUnits="userSpaceOnUse" id="color-1"><stop offset="0" stop-color="#2b5cac"/><stop offset="1" stop-color="#336aca"/></linearGradient><linearGradient x1="240.00005" y1="180" x2="240.00005" y2="180" gradientUnits="userSpaceOnUse" id="color-2"><stop offset="0" stop-color="#3672d9"/><stop offset="1" stop-color="#3d85f3"/></linearGradient><linearGradient x1="240.00005" y1="180" x2="240.00005" y2="180" gradientUnits="userSpaceOnUse" id="color-3"><stop offset="0" stop-color="#2b5cac"/><stop offset="1" stop-color="#336aca"/></linearGradient></defs><g transform="translate(-56.54021,-8.13029)"><g data-paper-data="{&quot;isPaintingLayer&quot;:true}" fill-rule="nonzero" stroke-linejoin="miter" stroke-miterlimit="10" stroke-dasharray="" stroke-dashoffset="0" style="mix-blend-mode: normal"><g><path d="" fill="url(#color-1)" stroke="none" stroke-width="1.00627" stroke-linecap="butt"/><path d="" fill="url(#color-2)" stroke="#000000" stroke-width="0" stroke-linecap="round"/></g><path d="" fill="url(#color-3)" stroke="none" stroke-width="1.00627" stroke-linecap="butt"/><g fill="#2c6eb0" stroke-linecap="butt"><g stroke="#2c6eb0" stroke-width="7.5"><path d=""/><path d=""/><path d=""/><path d=""/><path d=""/><path d=""/><path d=""/><path d=""/><path d=""/><path d=""/></g><g stroke="none"><path d="" stroke-width="0.13229"/><path d="" stroke-width="0.26458"/><path d="" stroke-width="0.26458"/><path d="" stroke-width="0.26458"/><path d="" stroke-width="0.26458"/><path d="" stroke-width="0.26458"/><path d="" stroke-width="0.26458"/><path d="" stroke-width="0.26458"/><path d="" stroke-width="0.26458"/><path d="" stroke-width="0.26458"/></g></g><g fill="#ffffff" stroke-linecap="butt"><g stroke="#224a8c" stroke-width="7.5"><path d=""/><path d=""/><path d=""/><path d=""/><path d=""/><path d=""/><path d=""/><path d=""/><path d=""/><path d=""/></g><g stroke="none" stroke-width="0.26458"><path d=""/><path d=""/><path d=""/><path d=""/><path d=""/><path d=""/><path d=""/><path d=""/><path d=""/><path d=""/></g></g><g fill="#2c6eb0" stroke="#2c6eb0" stroke-width="7.5" stroke-linecap="butt"><path d="M81.45609,15.87957c5.37289,2.71658 7.56433,3.94829 7.71335,3.94829c0,0.23778 -1.11906,2.39421 -3.35707,6.46908h-0.15765c-0.17906,0 -2.75379,-1.21643 -7.72272,-3.64941l-2.53035,3.38149c4.28408,2.05884 9.48518,4.68668 15.60466,7.88037c-2.77676,4.94025 -4.74696,8.2228 -5.91027,9.85046l-12.64884,1.11895c-5.77694,-3.8957 -8.82889,-5.91027 -9.15698,-6.04497v-0.15609c0,-0.4184 1.17206,-2.33549 3.51472,-5.75419h0.29078c0.92566,0.55309 3.82846,2.14209 8.70855,4.76837l2.95593,-3.35707c-8.97075,-4.56768 -13.93969,-7.14956 -14.90971,-7.74703v-0.13334c2.84981,-5.55204 4.40295,-8.36612 4.65653,-8.44052c7.41759,-1.50732 11.54414,-2.26098 12.37947,-2.26098z"/><path d="M100.07298,15.75299l9.85046,1.74655l-0.93989,7.47632c1.9544,-0.10454 3.38721,-0.1562 4.29842,-0.1562h1.4328l0.31228,-0.15609l0.15765,0.31228c-0.31375,4.53764 -0.58312,7.08952 -0.80666,7.65695l-0.31375,-0.17917c-0.22354,0 -2.23812,-0.10454 -6.04363,-0.31375c-0.20909,3.50744 -0.36529,7.70132 -0.46995,12.58285l-0.31375,0.15609c-4.80557,-0.31375 -7.67117,-0.58166 -8.59684,-0.80666l0.1562,-0.62604c0,-1.29812 0.2092,-5.32862 0.6276,-12.09004c-4.0305,-0.22343 -6.04497,-0.49146 -6.04497,-0.8052c0.2092,-4.98474 0.47711,-7.47777 0.8052,-7.47777l5.88877,1.11906v-1.92427c0,-1.56749 -0.06017,-3.68661 -0.17906,-6.3587c0.11888,0 0.17906,-0.05165 0.17906,-0.1562z"/><path d="M126.57981,22.5358c5.67093,1.52311 8.67841,2.44866 9.0223,2.77676c3.11918,4.4173 4.87291,6.962 5.26116,7.63397c-2.01592,6.38739 -3.17219,9.5811 -3.47024,9.5811c-6.71693,1.56749 -10.23156,2.35118 -10.5453,2.35118c-5.55216,-3.23807 -8.50652,-5.04479 -8.86474,-5.41736c-0.19486,-6.03062 -0.29089,-9.359 -0.29089,-9.98515c-0.0902,-0.17906 -0.13469,-0.31375 -0.13469,-0.4026c5.73122,-4.35859 8.6942,-6.53788 8.88772,-6.53788zM126.01956,30.73004c-0.08886,0.59746 -0.22354,2.76813 -0.4026,6.51491l4.99179,1.11895c1.19504,-3.73097 1.79103,-5.72393 1.79103,-5.97762c-3.96887,-1.19346 -6.09651,-1.79093 -6.38023,-1.79093z"/><path d="M158.97385,22.5143c2.95593,1.65634 4.76837,2.73093 5.44033,3.22384c-2.41706,5.02911 -3.71665,7.58803 -3.8957,7.67835h-0.1562l-3.20087,-2.79827l-3.7841,4.61216l0.42557,8.39481c-0.19486,0.17906 -2.66493,0.59746 -7.41042,1.25363c-0.17906,-1.28378 -1.34395,-7.57368 -3.4931,-18.87276c0,-0.17906 3.12064,-0.64194 9.359,-1.38844c0.10454,0.12045 0.38826,1.51596 0.84969,4.18669c3.73233,-4.19377 5.68674,-6.29002 5.8658,-6.29002z"/><path d="M176.48126,22.55879c0.2092,0.03003 0.31375,0.13469 0.31375,0.31375l-2.32832,12.89513c4.44744,-0.52294 6.67112,-0.94135 6.67112,-1.25363c0.83535,-5.16524 1.40995,-8.05954 1.72369,-8.68703c5.50768,1.13475 8.55952,1.80673 9.15698,2.01447c-3.2095,11.0297 -4.97039,16.77661 -5.28414,17.23938c-5.61088,3.94019 -8.76872,6.11814 -9.46938,6.53643c-0.2092,0 -3.78398,-0.87972 -10.72447,-2.64207v-0.15609c1.83686,-4.04484 2.97878,-6.06648 3.42587,-6.06648l6.82865,3.4243l3.26821,-5.59642c-2.94012,0.73069 -4.64947,1.09744 -5.12659,1.09744l-8.70855,-4.5233c1.05888,-9.73012 1.73086,-14.59586 2.01457,-14.59586z"/><path d="M215.56939,15.73002c4.2239,0.29951 6.33585,0.56743 6.33585,0.80666c1.62767,4.37294 2.61909,7.16402 2.97732,8.37183h0.13469c0.38826,-0.83535 1.87272,-3.13353 4.45462,-6.89455h0.13469c4.04472,0.25358 6.06782,0.53012 6.06782,0.82807l3.64796,24.9622c0,0.14902 -3.19369,0.50725 -9.5811,1.07457l-0.13469,-0.26926c-0.35823,-7.58097 -0.5374,-12.21611 -0.5374,-13.90248h-0.13469l-5.52908,4.85857h-0.13469c-0.17917,-0.0902 -1.43998,-2.06747 -3.78264,-5.93314h-0.13469c-2.88131,8.38897 -4.45595,12.84359 -4.72388,13.36508h-0.26937c-5.1481,-2.32832 -8.07388,-3.72236 -8.77589,-4.18513v-0.13469c6.38885,-15.01437 9.71723,-22.66402 9.98515,-22.94774z"/><path d="M250.42643,22.5358c5.67251,1.52311 8.67997,2.44866 9.02239,2.77676c3.11918,4.4173 4.87291,6.962 5.26116,7.63397c-2.01447,6.38739 -3.17072,9.5811 -3.47024,9.5811c-6.71548,1.56749 -10.23009,2.35118 -10.54395,2.35118c-5.55204,-3.23807 -8.50786,-5.04479 -8.8661,-5.41736c-0.1934,-6.03062 -0.29089,-9.359 -0.29089,-9.98515c-0.08886,-0.17906 -0.13469,-0.31375 -0.13469,-0.4026c5.73122,-4.35859 8.6942,-6.53788 8.88906,-6.53788zM249.86774,30.73004c-0.09031,0.59746 -0.22501,2.76813 -0.40406,6.51491l4.99325,1.11895c1.19358,-3.73097 1.79103,-5.72393 1.79103,-5.97762c-3.97032,-1.19346 -6.09663,-1.79093 -6.38023,-1.79093z"/><path d="M280.42635,15.73002c6.74562,0.56743 10.11849,1.00723 10.11849,1.3211l2.97878,26.35053c0,0.1934 -2.97878,0.68633 -8.93354,1.47719l-0.13469,-0.29078v-2.39567c-5.13376,1.38844 -8.65555,2.28384 -10.56692,2.68644c-4.53618,-6.41742 -6.91751,-9.83612 -7.14106,-10.25307c3.34273,-6.075 5.12659,-9.14981 5.35013,-9.22433l9.38052,0.44843c-0.1934,-1.14909 -0.58894,-4.5233 -1.1864,-10.11984zM278.94918,39.37126l4.45451,-3.87295c-0.46276,-2.67064 -0.80666,-4.00753 -1.03009,-4.00753h-5.95476c-0.1934,0.03014 -0.29089,0.12752 -0.29089,0.29089c0,0 2.44721,7.14251 2.82123,7.58959z"/><path d="M319.78382,28.6253c-0.96992,4.53764 -1.54598,6.87302 -1.72504,7.00772h-14.14888v0.24651l3.96316,4.90305l6.22403,-3.17946c0.61181,1.05888 1.49298,2.9101 2.64207,5.55216c-0.53728,0.17906 -4.45595,0.75366 -11.75467,1.72358c-6.04351,-3.98455 -9.08818,-6.0592 -9.134,-6.22403c0.97138,-7.74569 1.54598,-11.61852 1.72504,-11.61852c6.31289,-2.68656 9.96934,-4.18669 10.96954,-4.50044c0,0 10.5066,5.50767 11.23875,6.08943zM307.08925,27.95319c-0.11888,0.29951 -0.90974,1.4858 -2.3727,3.56056c0,0.62614 0.88117,0.93989 2.64207,0.93989c0,0.09031 1.27526,0.30669 3.82846,0.64912c0.70066,-0.97003 1.0516,-1.53747 1.0516,-1.70072c-0.22343,-1.32826 -0.70917,-1.99307 -1.45566,-1.99307z"/></g><g fill="#ffffff" stroke="#184980" stroke-width="7.5" stroke-linecap="butt"><path d="M78.45609,13.13274c5.37289,2.71658 7.56433,3.69513 7.71335,3.69513c0,0.23778 -1.11906,2.39421 -3.35707,6.46908h-0.15765c-0.17906,0 -2.75379,-1.21643 -7.72272,-3.64941l-2.53035,3.38149c4.28408,2.05884 9.48518,4.68668 15.60466,7.88037c-2.77676,4.94025 -4.74696,8.2228 -5.91027,9.85046l-12.64884,1.11895c-5.77694,-3.8957 -8.82889,-5.91027 -9.15698,-6.04497v-0.15609c0,-0.4184 1.17206,-2.33549 3.51472,-5.75419h0.29078c0.92566,0.55309 3.82846,2.14209 8.70855,4.76837l2.95593,-3.35707c-8.97075,-4.56768 -13.93969,-7.14956 -14.90971,-7.74703v-0.13334c2.84981,-5.55204 4.40295,-8.36612 4.65653,-8.44052c7.41759,-1.50732 11.54414,-2.26098 12.37947,-2.26098z"/><path d="M97.07298,12.75299l9.85046,1.74655l-0.93989,7.47632c1.9544,-0.10454 3.38721,-0.1562 4.29842,-0.1562h1.4328l0.31228,-0.15609l0.15765,0.31228c-0.31375,4.53764 -0.58312,7.08952 -0.80666,7.65695l-0.31375,-0.17917c-0.22354,0 -2.23812,-0.10454 -6.04363,-0.31375c-0.20909,3.50744 -0.36529,7.70132 -0.46995,12.58285l-0.31375,0.15609c-4.80557,-0.31375 -7.67117,-0.58166 -8.59684,-0.80666l0.1562,-0.62604c0,-1.29812 0.2092,-5.32862 0.6276,-12.09004c-4.0305,-0.22343 -6.04497,-0.49146 -6.04497,-0.8052c0.2092,-4.98474 0.47711,-7.47777 0.8052,-7.47777l5.88877,1.11906v-1.92427c0,-1.56749 -0.06017,-3.68661 -0.17906,-6.3587c0.11888,0 0.17906,-0.05165 0.17906,-0.1562z"/><path d="M123.57981,19.5358c5.67093,1.52311 8.67841,2.44866 9.0223,2.77676c3.11918,4.4173 4.87291,6.962 5.26116,7.63397c-2.01592,6.38739 -3.17219,9.5811 -3.47024,9.5811c-6.71693,1.56749 -10.23156,2.35118 -10.5453,2.35118c-5.55216,-3.23807 -8.50652,-5.04479 -8.86474,-5.41736c-0.19486,-6.03062 -0.29089,-9.359 -0.29089,-9.98515c-0.0902,-0.17906 -0.13469,-0.31375 -0.13469,-0.4026c5.73122,-4.35859 8.6942,-6.53788 8.88772,-6.53788zM123.01956,27.73004c-0.08886,0.59746 -0.22354,2.76813 -0.4026,6.51491l4.99179,1.11895c1.19504,-3.73097 1.79103,-5.72393 1.79103,-5.97762c-3.96887,-1.19346 -6.09651,-1.79093 -6.38023,-1.79093z"/><path d="M155.97385,19.5143c2.95593,1.65634 4.76837,2.73093 5.44033,3.22384c-2.41706,5.02911 -3.71665,7.58803 -3.8957,7.67835h-0.1562l-3.20087,-2.79827l-3.7841,4.61216l0.42557,8.39481c-0.19486,0.17906 -2.66493,0.59746 -7.41042,1.25363c-0.17906,-1.28378 -1.34395,-7.57368 -3.4931,-18.87276c0,-0.17906 3.12064,-0.64194 9.359,-1.38844c0.10454,0.12045 0.38826,1.51596 0.84969,4.18669c3.73233,-4.19377 5.68674,-6.29002 5.8658,-6.29002z"/><path d="M173.48126,19.55879c0.2092,0.03003 0.31375,0.13469 0.31375,0.31375l-2.32832,12.89513c4.44744,-0.52294 6.67112,-0.94135 6.67112,-1.25363c0.83535,-5.16524 1.40995,-8.05954 1.72369,-8.68703c5.50768,1.13475 8.55952,1.80673 9.15698,2.01447c-3.2095,11.0297 -4.97039,16.77661 -5.28414,17.23938c-5.61088,3.94019 -8.76872,6.11814 -9.46938,6.53643c-0.2092,0 -3.78398,-0.87972 -10.72447,-2.64207v-0.15609c1.83686,-4.04484 2.97878,-6.06648 3.42587,-6.06648l6.82865,3.4243l3.26821,-5.59642c-2.94012,0.73069 -4.64947,1.09744 -5.12659,1.09744l-8.70855,-4.5233c1.05888,-9.73012 1.73086,-14.59586 2.01457,-14.59586z"/><path d="M212.56939,12.73002c4.2239,0.29951 6.33585,0.56743 6.33585,0.80666c1.62767,4.37294 2.61909,7.16402 2.97732,8.37183h0.13469c0.38826,-0.83535 1.87272,-3.13353 4.45462,-6.89455h0.13469c4.04472,0.25358 6.06782,0.53012 6.06782,0.82807l3.64796,24.9622c0,0.14902 -3.19369,0.50725 -9.5811,1.07457l-0.13469,-0.26926c-0.35823,-7.58097 -0.5374,-12.21611 -0.5374,-13.90248h-0.13469l-5.52908,4.85857h-0.13469c-0.17917,-0.0902 -1.43998,-2.06747 -3.78264,-5.93314h-0.13469c-2.88131,8.38897 -4.45595,12.84359 -4.72388,13.36508h-0.26937c-5.1481,-2.32832 -8.07388,-3.72236 -8.77589,-4.18513v-0.13469c6.38885,-15.01437 9.71723,-22.66402 9.98515,-22.94774z"/><path d="M247.42643,19.5358c5.67251,1.52311 8.67997,2.44866 9.02239,2.77676c3.11918,4.4173 4.87291,6.962 5.26116,7.63397c-2.01447,6.38739 -3.17072,9.5811 -3.47024,9.5811c-6.71548,1.56749 -10.23009,2.35118 -10.54395,2.35118c-5.55204,-3.23807 -8.50786,-5.04479 -8.8661,-5.41736c-0.1934,-6.03062 -0.29089,-9.359 -0.29089,-9.98515c-0.08886,-0.17906 -0.13469,-0.31375 -0.13469,-0.4026c5.73122,-4.35859 8.6942,-6.53788 8.88906,-6.53788zM246.86774,27.73004c-0.09031,0.59746 -0.22501,2.76813 -0.40406,6.51491l4.99325,1.11895c1.19358,-3.73097 1.79103,-5.72393 1.79103,-5.97762c-3.97032,-1.19346 -6.09663,-1.79093 -6.38023,-1.79093z"/><path d="M277.42635,12.73002c6.74562,0.56743 10.11849,1.00723 10.11849,1.3211l2.97878,26.35053c0,0.1934 -2.97878,0.68633 -8.93354,1.47719l-0.13469,-0.29078v-2.39567c-5.13376,1.38844 -8.65555,2.28384 -10.56692,2.68644c-4.53618,-6.41742 -6.91751,-9.83612 -7.14106,-10.25307c1.53107,-2.78254 3.61638,-9.12907 5.37853,-9.18169c0.47404,-0.01415 9.37157,0.80628 9.50594,0.22542c0.21504,-0.92958 -1.054,-7.25841 -1.34022,-9.93947zM275.94918,36.37124l4.45451,-3.87295c-0.46276,-2.67064 -0.80666,-4.00753 -1.03009,-4.00753l-6.32977,0.05357c-0.1934,0.03014 2.53133,7.37983 2.90535,7.82691z"/><path d="M316.78382,25.6253c-0.96992,4.53764 -1.54598,6.87302 -1.72504,7.00772h-14.14888v0.24651l3.96316,4.90305l6.22403,-3.17946c0.61181,1.05888 1.49298,2.9101 2.64207,5.55216c-0.53728,0.17906 -4.45595,0.75366 -11.75467,1.72358c-6.04351,-3.98455 -9.08818,-6.0592 -9.134,-6.22403c0.97138,-7.74569 1.54598,-11.61852 1.72504,-11.61852c6.31289,-2.68656 9.96934,-4.18669 10.96954,-4.50044c0,0 10.5066,5.50767 11.23875,6.08943zM304.08925,24.95319c-0.11888,0.29951 -0.90974,1.4858 -2.3727,3.56056c0,0.62614 0.88117,0.93989 2.64207,0.93989c0,0.09031 1.27526,0.30669 3.82846,0.64912c0.70066,-0.97003 1.0516,-1.53747 1.0516,-1.70072c-0.22343,-1.32826 -0.70917,-1.99307 -1.45566,-1.99307z"/></g><g fill="#ffffff" stroke="none" stroke-width="1.27869" stroke-linecap="butt"><path d="M77.88647,12.75299c5.37289,2.71658 8.13395,4.07487 8.28297,4.07487c0,0.23778 -1.11906,2.39421 -3.35707,6.46908h-0.15765c-0.17906,0 -2.75379,-1.21643 -7.72272,-3.64941l-2.53035,3.38149c4.28408,2.05884 9.48518,4.68668 15.60466,7.88037c-2.77676,4.94025 -4.74696,8.2228 -5.91027,9.85046l-12.64884,1.11895c-5.77694,-3.8957 -8.82889,-5.91027 -9.15698,-6.04497v-0.15609c0,-0.4184 1.17206,-2.33549 3.51472,-5.75419h0.29078c0.92566,0.55309 3.82846,2.14209 8.70855,4.76837l2.95593,-3.35707c-8.97075,-4.56768 -13.93969,-7.14956 -14.90971,-7.74703v-0.13334c2.84981,-5.55204 4.40295,-8.36612 4.65653,-8.44052c7.41759,-1.50732 11.54414,-2.26098 12.37947,-2.26098z"/><path d="M97.07298,12.75299l9.85046,1.74655l-0.93989,7.47632c1.9544,-0.10454 3.38721,-0.1562 4.29842,-0.1562h1.4328l0.31228,-0.15609l0.15765,0.31228c-0.31375,4.53764 -0.58312,7.08952 -0.80666,7.65695l-0.31375,-0.17917c-0.22354,0 -2.23812,-0.10454 -6.04363,-0.31375c-0.20909,3.50744 -0.36529,7.70132 -0.46995,12.58285l-0.31375,0.15609c-4.80557,-0.31375 -7.67117,-0.58166 -8.59684,-0.80666l0.1562,-0.62604c0,-1.29812 0.2092,-5.32862 0.6276,-12.09004c-4.0305,-0.22343 -6.04497,-0.49146 -6.04497,-0.8052c0.2092,-4.98474 0.47711,-7.47777 0.8052,-7.47777l5.88877,1.11906v-1.92427c0,-1.56749 -0.06017,-3.68661 -0.17906,-6.3587c0.11888,0 0.17906,-0.05165 0.17906,-0.1562z"/><path d="M123.57981,19.5358c5.67093,1.52311 8.67841,2.44866 9.0223,2.77676c3.11918,4.4173 4.87291,6.962 5.26116,7.63397c-2.01592,6.38739 -3.17219,9.5811 -3.47024,9.5811c-6.71693,1.56749 -10.23156,2.35118 -10.5453,2.35118c-5.55216,-3.23807 -8.50652,-5.04479 -8.86474,-5.41736c-0.19486,-6.03062 -0.29089,-9.359 -0.29089,-9.98515c-0.0902,-0.17906 -0.13469,-0.31375 -0.13469,-0.4026c5.73122,-4.35859 8.6942,-6.53788 8.88772,-6.53788zM123.01956,27.73004c-0.08886,0.59746 -0.22354,2.76813 -0.4026,6.51491l4.99179,1.11895c1.19504,-3.73097 1.79103,-5.72393 1.79103,-5.97762c-3.96887,-1.19346 -6.09651,-1.79093 -6.38023,-1.79093z"/><path d="M155.97385,19.5143c2.95593,1.65634 4.76837,2.73093 5.44033,3.22384c-2.41706,5.02911 -3.71665,7.58803 -3.8957,7.67835h-0.1562l-3.20087,-2.79827l-3.7841,4.61216l0.42557,8.39481c-0.19486,0.17906 -2.66493,0.59746 -7.41042,1.25363c-0.17906,-1.28378 -1.34395,-7.57368 -3.4931,-18.87276c0,-0.17906 3.12064,-0.64194 9.359,-1.38844c0.10454,0.12045 0.38826,1.51596 0.84969,4.18669c3.73233,-4.19377 5.68674,-6.29002 5.8658,-6.29002z"/><path d="M173.48126,19.55879c0.2092,0.03003 0.31375,0.13469 0.31375,0.31375l-2.32832,12.89513c4.44744,-0.52294 6.67112,-0.94135 6.67112,-1.25363c0.83535,-5.16524 1.40995,-8.05954 1.72369,-8.68703c5.50768,1.13475 8.55952,1.80673 9.15698,2.01447c-3.2095,11.0297 -4.97039,16.77661 -5.28414,17.23938c-5.61088,3.94019 -8.76872,6.11814 -9.46938,6.53643c-0.2092,0 -3.78398,-0.87972 -10.72447,-2.64207v-0.15609c1.83686,-4.04484 2.97878,-6.06648 3.42587,-6.06648l6.82865,3.4243l3.26821,-5.59642c-2.94012,0.73069 -4.64947,1.09744 -5.12659,1.09744l-8.70855,-4.5233c1.05888,-9.73012 1.73086,-14.59586 2.01457,-14.59586z"/><path d="M212.56939,12.73002c4.2239,0.29951 6.33585,0.56743 6.33585,0.80666c1.62767,4.37294 2.61909,7.16402 2.97732,8.37183h0.13469c0.38826,-0.83535 1.87272,-3.13353 4.45462,-6.89455h0.13469c4.04472,0.25358 6.06782,0.53012 6.06782,0.82807l3.64796,24.9622c0,0.14902 -3.19369,0.50725 -9.5811,1.07457l-0.13469,-0.26926c-0.35823,-7.58097 -0.5374,-12.21611 -0.5374,-13.90248h-0.13469l-5.52908,4.85857h-0.13469c-0.17917,-0.0902 -1.43998,-2.06747 -3.78264,-5.93314h-0.13469c-2.88131,8.38897 -4.45595,12.84359 -4.72388,13.36508h-0.26937c-5.1481,-2.32832 -8.07388,-3.72236 -8.77589,-4.18513v-0.13469c6.38885,-15.01437 9.71723,-22.66402 9.98515,-22.94774z"/><path d="M247.42643,19.5358c5.67251,1.52311 8.67997,2.44866 9.02239,2.77676c3.11918,4.4173 4.87291,6.962 5.26116,7.63397c-2.01447,6.38739 -3.17072,9.5811 -3.47024,9.5811c-6.71548,1.56749 -10.23009,2.35118 -10.54395,2.35118c-5.55204,-3.23807 -8.50786,-5.04479 -8.8661,-5.41736c-0.1934,-6.03062 -0.29089,-9.359 -0.29089,-9.98515c-0.08886,-0.17906 -0.13469,-0.31375 -0.13469,-0.4026c5.73122,-4.35859 8.6942,-6.53788 8.88906,-6.53788zM246.86774,27.73004c-0.09031,0.59746 -0.22501,2.76813 -0.40406,6.51491l4.99325,1.11895c1.19358,-3.73097 1.79103,-5.72393 1.79103,-5.97762c-3.97032,-1.19346 -6.09663,-1.79093 -6.38023,-1.79093z"/><path d="M277.29167,12.73002h0.13469c6.74562,0.56743 10.11849,1.00723 10.11849,1.3211l2.97878,26.35053c0,0.1934 -2.97878,0.68633 -8.93354,1.47719l-0.13469,-0.29078v-2.39567c-5.13376,1.38844 -8.65555,2.28384 -10.56692,2.68644c-4.53618,-6.41742 -6.91751,-9.83612 -7.14106,-10.25307c3.34273,-6.075 5.12659,-9.14981 5.35013,-9.22433l9.38052,0.44843c-0.1934,-1.14909 -0.58894,-4.5233 -1.1864,-10.11984zM273.12793,28.78164c1.50732,4.61216 2.44721,7.14252 2.82123,7.5896l4.45451,-3.87295c-0.46276,-2.67064 -0.80666,-4.00753 -1.03009,-4.00753h-5.95476c-0.1934,0.03014 -0.29089,0.12752 -0.29089,0.29089z"/><path d="M305.54505,19.5358c6.76131,3.47741 10.50664,5.50768 11.23879,6.08944c-0.96992,4.53764 -1.54598,6.87302 -1.72504,7.00772h-14.14888v0.24651l3.96316,4.90305l6.22403,-3.17946c0.61181,1.05888 1.49298,2.9101 2.64207,5.55216c-0.53728,0.17906 -4.45595,0.75366 -11.75467,1.72358c-6.04351,-3.98455 -9.08818,-6.0592 -9.134,-6.22403c0.97138,-7.74569 1.54598,-11.61852 1.72504,-11.61852c6.31289,-2.68656 9.96934,-4.18669 10.96954,-4.50044zM304.08925,24.95319c-0.11888,0.29951 -0.90974,1.4858 -2.3727,3.56056c0,0.62614 0.88117,0.93989 2.64207,0.93989c0,0.09031 1.27526,0.30669 3.82846,0.64912c0.70066,-0.97003 1.0516,-1.53747 1.0516,-1.70072c-0.22343,-1.32826 -0.70917,-1.99307 -1.45566,-1.99307z"/></g></g></g></svg>