<svg version="1.1" xmlns="http://www.w3.org/2000/svg" xmlns:xlink="http://www.w3.org/1999/xlink" width="65.10633" height="38.70928" viewBox="0,0,65.10633,38.70928"><defs><linearGradient x1="100.57559" y1="322.85296" x2="100.57559" y2="359.85003" gradientUnits="userSpaceOnUse" id="color-1"><stop offset="0" stop-color="#155a8e"/><stop offset="1" stop-color="#00295b"/></linearGradient></defs><g transform="translate(1.87997,-322.35297)"><g data-paper-data="{&quot;isPaintingLayer&quot;:true}" fill-rule="nonzero" stroke-linejoin="miter" stroke-miterlimit="10" stroke-dasharray="" stroke-dashoffset="0" style="mix-blend-mode: normal"><g fill="url(#color-1)" stroke="#000000" stroke-width="1" stroke-linecap="butt"><path d="M-1.37997,359.85003v-36.99706h44.51282l19.27173,37.70019z" data-paper-data="{&quot;origPos&quot;:null}"/></g><g stroke-width="0"><path d="M17.36152,338.42939c2.06598,-6.70614 9.48843,-10.37184 16.57852,-8.18758c7.09009,2.18426 11.16292,9.39137 9.09693,16.09749c-2.06598,6.70614 -9.48843,10.37184 -16.57851,8.18758c-7.09008,-2.18426 -11.16292,-9.39136 -9.09693,-16.09749z" data-paper-data="{&quot;origPos&quot;:null,&quot;origRot&quot;:0}" fill="#308bff" stroke="#000000" stroke-linecap="butt"/><path d="M27.71648,338.37358c-1.34329,2.43385 -4.12719,3.42516 -6.218,2.21414c-0.94384,-0.54668 -2.59166,-1.05894 -2.97865,-2.0787c-0.64424,-1.69768 0.74773,-2.93116 1.62515,-4.52091c1.34329,-2.43385 4.12719,-3.42516 6.21799,-2.21414c2.09081,1.21101 2.69679,4.16575 1.3535,6.59961z" data-paper-data="{&quot;origPos&quot;:null,&quot;origRot&quot;:0}" fill="#000000" stroke="none" stroke-linecap="butt"/><path d="M34.19656,341.09017c-1.34329,2.43385 -4.12719,3.42516 -6.218,2.21414c-2.09081,-1.21101 -2.69679,-4.16575 -1.3535,-6.59961c1.34329,-2.43385 4.12719,-3.42516 6.218,-2.21414c2.09081,1.21101 2.69679,4.16575 1.3535,6.59961z" data-paper-data="{&quot;origPos&quot;:null,&quot;origRot&quot;:0}" fill="#000000" stroke="none" stroke-linecap="butt"/><path d="M29.52635,339.6772c-0.39948,0.66611 -1.17018,0.93809 -1.72145,0.6075c-0.55126,-0.33061 -0.67431,-1.13858 -0.27485,-1.80469c0.39948,-0.66611 1.17019,-0.9381 1.72145,-0.6075c0.55126,0.33059 0.67431,1.13858 0.27485,1.80469z" data-paper-data="{&quot;origRot&quot;:0,&quot;origPos&quot;:null}" fill="#ffffff" stroke="none" stroke-linecap="butt"/><path d="M26.32604,338.17401c-0.39947,0.66611 -1.17018,0.93809 -1.72145,0.6075c-0.55126,-0.33061 -0.67431,-1.13858 -0.27485,-1.80469c0.39947,-0.66611 1.17019,-0.93809 1.72145,-0.6075c0.55126,0.33061 0.67431,1.13858 0.27485,1.80469z" data-paper-data="{&quot;origRot&quot;:0,&quot;origPos&quot;:null}" fill="#ffffff" stroke="none" stroke-linecap="butt"/><path d="M13.24431,346.19345l-10.16471,-11.14906l15.58235,-4.13048l-3.23198,4.89065l11.00871,3.79744l0.06367,1.44045l-0.60669,1.63988l-1.03457,1.71105l-11.12996,-3.73331z" data-paper-data="{&quot;origPos&quot;:null,&quot;origRot&quot;:0}" fill="#2d74f3" stroke="#000000" stroke-linecap="round"/></g></g></g></svg>