<svg version="1.1" xmlns="http://www.w3.org/2000/svg" xmlns:xlink="http://www.w3.org/1999/xlink" width="75.85321" height="75.05" viewBox="0,0,75.85321,75.05"><g transform="translate(-202.07329,-142.475)"><g data-paper-data="{&quot;isPaintingLayer&quot;:true}" fill="#ffffff" fill-rule="evenodd" stroke="#000000" stroke-width="0.25" stroke-linecap="round" stroke-linejoin="miter" stroke-miterlimit="10" stroke-dasharray="" stroke-dashoffset="0" style="mix-blend-mode: normal"><path d="M218.4015,217.1c-0.8,0.2 -1.5,0.3 -2.2,0.3c-4.574,0 -7.307,-3.599 -7.739,-7.198c-0.04027,-0.33249 -0.06064,-0.66708 -0.061,-1.002c0,-2.6 1.3,-5 4.1,-5.5c2.52299,-0.47335 5.02405,-1.05691 7.496,-1.749c21.071,-5.903 38.005,-19.202 44.904,-35.151c0.10868,-0.24215 0.23536,-0.47581 0.379,-0.699c0.95542,-1.43983 2.59458,-2.27478 4.321,-2.201c1.371,0 2.819,0.403 4.111,1.13c2.43871,1.252 4.00477,3.72998 4.089,6.47c0,0.653 -0.106,1.342 -0.317,2.065c-0.15623,0.52534 -0.35109,1.03841 -0.583,1.535c-10.5,21.9 -37.2,37 -58.5,42zM232.1315,173.744c0.9691,0.96653 1.50029,2.28764 1.47,3.656c0,2.024 -0.992,4.217 -2.509,5.826c-1.23732,1.42659 -3.00471,2.28445 -4.891,2.374c-0.11749,-0.0001 -0.23493,-0.0051 -0.352,-0.015c-0.444,-0.037 -0.904,-0.144 -1.359,-0.319c-0.38264,-0.14821 -0.74783,-0.33801 -1.089,-0.566c-0.50903,-0.30445 -1.02208,-0.60214 -1.539,-0.893c-3.875,-2.185 -10.186,-5.374 -14.136,-6.903c-0.56716,-0.22307 -1.14257,-0.42454 -1.725,-0.604c-0.40623,-0.12361 -0.79759,-0.29163 -1.167,-0.501c-1.69055,-0.99652 -2.70077,-2.83777 -2.633,-4.799c0.00085,-0.39915 0.03228,-0.79765 0.094,-1.192c0.518,-3.354 3.153,-6.708 6.906,-6.708c0.36584,0.00131 0.73076,0.03679 1.09,0.106c0.27288,0.052 0.54317,0.11674 0.81,0.194c3.97,1.173 13.474,5.764 18.6,8.707c0.50516,0.28892 1.00523,0.58663 1.5,0.893c0.33498,0.21506 0.64666,0.4644 0.93,0.744zM244.3015,154.9c0.01439,0.01127 0.02872,0.0226 0.043,0.034c0.439,0.352 0.788,0.733 1.059,1.135c0.53606,0.80869 0.8143,1.76091 0.798,2.731c0,0.18095 -0.00834,0.36181 -0.025,0.542c-0.118,1.272 -0.639,2.544 -1.426,3.65c-1.33556,2.00956 -3.53992,3.27237 -5.949,3.408c-0.13913,-0.00007 -0.27822,-0.00507 -0.417,-0.015c-0.701,-0.049 -1.431,-0.231 -2.142,-0.618c-0.29749,-0.16222 -0.57906,-0.35206 -0.841,-0.567c-0.49761,-0.37498 -1.00066,-0.74269 -1.509,-1.103c-4.203,-2.989 -11.452,-7.598 -14.891,-9.097c-0.38817,-0.16441 -0.75569,-0.37384 -1.095,-0.624c-1.2417,-0.93839 -1.95172,-2.42029 -1.905,-3.976c0.00169,-0.46013 0.05061,-0.91887 0.146,-1.369c0.097,-0.465 0.24,-0.929 0.426,-1.384c1.06823,-2.89167 3.75018,-4.87407 6.828,-5.047c0.8,0 1.6,0.2 2.5,0.5c0.07696,0.03027 0.15363,0.06127 0.23,0.093c4.413,1.843 14.043,8.464 18.17,11.707z"/></g></g></svg>