<svg version="1.1" xmlns="http://www.w3.org/2000/svg" xmlns:xlink="http://www.w3.org/1999/xlink" width="185.83333" height="205.83333" viewBox="0,0,185.83333,205.83333"><g transform="translate(-145.83336,-77.25779)"><g data-paper-data="{&quot;isPaintingLayer&quot;:true}" fill-rule="nonzero" stroke-linejoin="miter" stroke-miterlimit="10" stroke-dasharray="" stroke-dashoffset="0" style="mix-blend-mode: normal"><g data-paper-data="{&quot;index&quot;:null}" stroke-linecap="butt"><g fill="#bba983" stroke="none" stroke-width="0"><path d="M246.89554,225.06721c-0.51311,2.60712 -4.71618,2.37411 -8.72852,1.58444c-1.76173,-0.34674 -3.30809,-0.47391 -4.31748,-1.37661c-1.28952,-1.15322 -1.77461,-3.20682 -1.4868,-4.66921c0.21591,-1.09705 1.08823,-2.57453 2.16062,-3.19605c1.47613,-0.85555 3.4331,-0.60648 5.50184,-0.19931c3.57159,0.70295 7.38348,5.24964 6.87037,7.85677z"/><path d="M240.74313,220.90918c0.37823,-3.77592 4.27095,-6.46879 8.69464,-6.01471c4.42367,0.45407 7.70316,3.88318 7.32493,7.6591c-0.37823,3.77592 -4.27093,6.4688 -8.69464,6.01474c-4.42367,-0.45407 -7.70317,-3.88319 -7.32492,-7.65913z"/></g><g><path d="M247.38292,223.08811c-0.52983,2.69201 -4.86977,2.45143 -9.01279,1.63604c-1.8191,-0.35802 -3.41581,-0.48934 -4.45809,-1.42145c-1.3315,-1.19077 -1.83238,-3.31125 -1.53518,-4.82128c0.22293,-1.13277 1.12365,-2.65837 2.23096,-3.30016c1.5242,-0.88341 3.5449,-0.62621 5.68098,-0.2058c3.68793,0.72583 7.62394,5.42061 7.09412,8.11263z" fill="#36c651" stroke="none" stroke-width="0"/><path d="M245.28972,214.82311c-0.27033,1.37347 -2.80537,2.0311 -5.66221,1.46884c-2.85684,-0.56227 -4.95362,-2.13151 -4.6833,-3.50499c0.27033,-1.37347 2.80537,-2.0311 5.66221,-1.46883c2.85684,0.56227 4.95363,2.1315 4.68331,3.50499z" fill="#1c6225" stroke="#36c651" stroke-width="1.5"/><path d="M241.03018,218.79467c0.39057,-3.89891 4.41005,-6.6795 8.9778,-6.2106c4.56776,0.46888 7.95403,4.00966 7.56348,7.90854c-0.39054,3.89889 -4.41004,6.67948 -8.97778,6.2106c-4.56776,-0.46888 -7.95404,-4.00965 -7.56347,-7.90854z" fill="#36c651" stroke="none" stroke-width="0"/></g><path d="M239.56108,197.71629l6.72597,1.32376l-3.09555,15.72823c0,0 -0.58131,1.1039 -3.35052,0.68534c-2.70333,-0.55814 -3.48734,-1.47962 -3.48734,-1.47962z" fill="#fcdc48" stroke="none" stroke-width="0"/></g><path d="M145.83336,283.09112v-205.83333h185.83333v205.83333z" fill="none" stroke="#000000" stroke-width="0" stroke-linecap="butt"/><g data-paper-data="{&quot;index&quot;:null}" stroke-linecap="butt"><g fill="#bba983" stroke="none" stroke-width="0"><path d="M274.15891,217.17826c1.45471,2.22354 -1.7147,4.99387 -5.13671,7.23268c-1.50254,0.98302 -2.69756,1.97261 -4.05042,2.0322c-1.72828,0.07614 -3.51028,-1.05392 -4.32626,-2.30116c-0.61214,-0.93565 -1.02056,-2.60208 -0.68777,-3.79606c0.4581,-1.64349 2.03205,-2.83279 3.79641,-3.98712c3.04612,-1.99289 8.95007,-1.40409 10.40478,0.81944z"/><path d="M266.85234,218.50301c-2.36795,-2.96537 -1.46503,-7.61183 2.01672,-10.37816c3.48173,-2.76634 8.22386,-2.60497 10.5918,0.36041c2.36794,2.96538 1.46502,7.61183 -2.01669,10.37818c-3.48173,2.76634 -8.22388,2.60497 -10.59182,-0.36042z"/></g><g><path d="M273.12462,215.42197c1.5021,2.29594 -1.77055,5.15647 -5.30401,7.46823c-1.55146,1.01504 -2.78542,2.03684 -4.18232,2.09836c-1.78456,0.07861 -3.62461,-1.08826 -4.46718,-2.37609c-0.63208,-0.9661 -1.05381,-2.68685 -0.71017,-3.91968c0.47301,-1.697 2.09824,-2.92503 3.92005,-4.11695c3.14533,-2.05781 9.24153,-1.44983 10.74363,0.84611z" fill="#2b9638" stroke="none" stroke-width="0"/><path d="M265.85191,210.97232c0.76638,1.1714 -0.58752,3.41326 -3.02403,5.00733c-2.43651,1.59407 -5.03297,1.93672 -5.79934,0.76531c-0.76638,-1.1714 0.58751,-3.41327 3.02402,-5.00736c2.43651,-1.59407 5.03297,-1.9367 5.79936,-0.76531z" fill="#1c6225" stroke="#2b9638" stroke-width="1.5"/><path d="M265.58009,216.78986c-2.44506,-3.06196 -1.51275,-7.85975 2.08239,-10.71615c3.59515,-2.8564 8.49169,-2.6898 10.93676,0.37215c2.44506,3.06195 1.51275,7.85974 -2.08239,10.71615c-3.59515,2.85641 -8.49168,2.6898 -10.93677,-0.37215z" fill="#2b9638" stroke="none" stroke-width="0"/></g><path d="M258.94831,216.72092l-9.14815,-13.98279l5.73637,-3.75299l8.77614,13.41414c0,0 0.20349,1.41468 -1.93076,2.94128c-1.66754,1.14488 -3.4336,1.38034 -3.4336,1.38034z" fill="#fcdc48" stroke="none" stroke-width="0"/></g><path d="M234.44788,212.12764c-1.69211,1.0835 -5.86358,1.70265 -5.86358,1.70265c0,0 2.82642,-3.73038 3.82803,-5.76335c0.80639,-1.63676 1.72391,-5.5055 1.72391,-5.5055l4.41932,4.884c0,0 -2.47843,3.63894 -4.10767,4.6822z" fill="#d2a31f" stroke="#000000" stroke-width="0" stroke-linecap="round"/><g data-paper-data="{&quot;index&quot;:null}"><path d="M250.18335,178.07963l4.67225,-3.82031l5.31158,-2.80125l0.97624,-1.74315l4.75149,-3.22726l2.26714,0.15747l1.67541,1.33081l0.26491,1.98027l1.36659,2.46639l-0.08971,1.91254l0.89845,1.54998l-0.6256,1.35068l-3.84304,1.8387l-3.32303,0.55972l-1.98817,-0.65548l-1.10964,-1.40653l-6.42482,3.01542c0,0 -3.76809,3.81514 -5.87586,3.13272c-2.10776,-0.68242 1.09582,-5.64068 1.09582,-5.64068z" data-paper-data="{&quot;origPos&quot;:null}" fill="#d2a31f" stroke="#000000" stroke-width="0" stroke-linecap="round"/><path d="M270.04165,170.26688c0.08516,0.80193 -0.69864,0.85069 -0.69864,0.85069l-0.55488,0.0737c-0.56487,-0.12296 -0.7709,-0.09986 -1.38171,0.03722c0,0 -0.76156,0.17089 -0.96564,-0.61412c-0.2041,-0.785 0.55746,-0.95591 0.55746,-0.95591c0.7386,-0.16573 1.27877,-0.20549 2.04858,-0.03792l0.1259,-0.10684c0,0 0.7838,-0.04875 0.86896,0.75317z" data-paper-data="{&quot;origPos&quot;:null}" fill="#996c1c" stroke="none" stroke-width="0.5" stroke-linecap="butt"/><path d="M270.9636,174.11535c0.09714,0.7938 -0.66536,0.8281 -0.66536,0.8281l-0.5391,0.06298c-0.55236,-0.13148 -0.75259,-0.11229 -1.34507,0.01231c0,0 -0.7387,0.15535 -0.95134,-0.62384c-0.21268,-0.7792 0.52601,-0.93454 0.52601,-0.93454c0.7164,-0.15067 1.24178,-0.18037 1.99451,-0.00121l0.12072,-0.10332c0,0 0.76254,-0.03429 0.85967,0.7595z" data-paper-data="{&quot;origPos&quot;:null}" fill="#996c1c" stroke="none" stroke-width="0.5" stroke-linecap="butt"/></g><g><path d="M229.60285,195.89179c-2.15179,-8.78872 1.94444,-17.34335 9.14914,-19.1073c7.20471,-1.76395 14.23281,4.28644 16.40565,13.07001c3.15865,12.76856 -1.40866,16.99286 -8.61337,18.7568c-7.20471,1.76395 -14.78963,-3.93075 -16.9414,-12.71949z" fill="#fcdda0" stroke="#00beff" stroke-width="0" stroke-linecap="butt"/><path d="M251.65054,183.35998c0,0 -3.38846,2.74503 -6.10695,3.3483c-3.06794,0.68081 -11.37934,0.53213 -11.37934,0.53213" fill="none" stroke="#c5ab79" stroke-width="2" stroke-linecap="round"/><path d="M246.35338,174.6701c0.54853,2.07287 -1.8875,4.51554 -5.44099,5.45586c-3.55349,0.94031 -6.8788,0.0222 -7.42735,-2.05068c-0.54853,-2.07287 1.8875,-4.51554 5.44099,-5.45586c3.55349,-0.94031 6.8788,-0.02221 7.42734,2.05067z" fill="#a28650" stroke="#fcdda0" stroke-width="4.5" stroke-linecap="butt"/><path d="M254.66999,190.9313c0,0 -4.54161,3.05718 -6.95116,3.5919c-3.19478,0.70896 -10.53513,0.28855 -10.53513,0.28855" fill="none" stroke="#c5ab79" stroke-width="2" stroke-linecap="round"/><path d="M236.84817,178.05027l-1.20745,-5.75914l5.6431,-1.31428l1.20745,5.75914c0,0 -1.63094,0.77704 -2.51015,0.98182c-0.98889,0.23033 -3.13294,0.33247 -3.13294,0.33247z" fill="#d2a31f" stroke="none" stroke-width="0" stroke-linecap="butt"/><path d="M231.87074,189.65561c-1.59611,-3.15536 -0.97155,-6.6837 1.39496,-7.88076c2.36651,-1.19708 5.57884,0.3904 7.17495,3.54577c1.5961,3.15535 0.97156,6.68368 -1.39495,7.88077c-2.36652,1.19707 -5.57885,-0.39042 -7.17496,-3.54578z" fill="#a28650" stroke="none" stroke-width="NaN" stroke-linecap="butt"/><path d="M255.31874,199.49303c0,0 -3.26722,2.97208 -6.16332,3.61477c-2.93221,0.65068 -11.62063,0.4604 -11.62063,0.4604" fill="none" stroke="#c5ab79" stroke-width="2" stroke-linecap="round"/><path d="M236.82868,192.10439c1.84066,7.95596 2.79572,13.86994 -2.32376,15.05437c-5.11948,1.18443 -10.7618,-4.30497 -12.60246,-12.26094c-1.84065,-7.95595 2.45706,-16.07332 7.57655,-17.25776c5.11948,-1.18443 5.50903,6.50835 7.34968,14.46431z" fill="#3ddf5b" stroke="#000000" stroke-width="0" stroke-linecap="butt"/><g fill="none" stroke="#2b9638" stroke-width="1.5" stroke-linecap="round"><path d="M222.02184,186.47052l3.54973,2.78318l1.31482,10.07225l-1.63238,2.23325" data-paper-data="{&quot;origPos&quot;:null}"/><path d="M232.64341,201.77129l-5.49746,-2.41059l-1.62777,-10.14823l4.05881,-1.89191" data-paper-data="{&quot;origPos&quot;:null}"/></g><path d="M236.74988,192.0341c1.7338,7.49403 5.06712,15.39579 1.39071,17.38466c-0.37935,0.20521 -3.66431,-0.16808 -4.49575,-1.39594c-0.83142,-1.22785 -0.46028,-2.55669 -0.67225,-6.23625c-0.14122,-2.45132 -1.32356,-5.16829 -2.08832,-8.4738c-1.12791,-4.87517 -2.05047,-5.98524 -2.25333,-9.96862c-0.20287,-3.98339 -0.00715,-5.78771 1.43393,-6.12112c5.11948,-1.18443 6.83006,-1.26409 6.0076,1.11214c-0.3465,1.00113 -1.23535,2.80287 -1.17175,4.6133c0.14695,4.18269 1.84911,9.08563 1.84911,9.08563z" fill="#ffffff" stroke="none" stroke-width="0" stroke-linecap="butt"/></g><g><path d="M238.90155,187.1093c-1.6225,1.50863 -6.64913,-0.35867 -6.64913,-0.35867l-7.09725,-0.02049l-0.41194,1.74353l-1.52547,1.43371l-3.24858,0.8958l-4.26003,-0.04402l-1.13742,-0.96022l0.15996,-1.78439l-0.8889,-1.6958l0.19734,-2.81277l-0.59603,-1.90695l0.95676,-1.91379l1.98861,-1.10004l5.66982,0.91909l1.62098,1.16791l5.99766,0.29643l5.84843,1.49017c0,0 4.99763,3.14182 3.37513,4.65045z" data-paper-data="{&quot;origPos&quot;:null}" fill="#fcdc48" stroke="#000000" stroke-width="0" stroke-linecap="round"/><path d="M214.22633,183.76201c-0.26142,-0.76287 0.46967,-1.04966 0.46967,-1.04966l0.15924,0.04366c0.62707,-0.47695 1.13351,-0.669 1.87301,-0.83064c0,0 0.76247,-0.16664 0.90896,0.63113c0.14645,0.7978 -0.61602,0.96445 -0.61602,0.96445c-0.61158,0.13367 -0.80809,0.19972 -1.26823,0.5497l-0.53411,0.16747c0,0 -0.7311,0.28678 -0.99252,-0.47611z" data-paper-data="{&quot;origPos&quot;:null}" fill="#d2a31f" stroke="none" stroke-width="0.5" stroke-linecap="butt"/><path d="M215.01565,187.63989c-0.24716,-0.76057 0.45857,-1.05148 0.45857,-1.05148l0.15304,0.04268c0.60669,-0.48025 1.09548,-0.67515 1.80849,-0.84108c0,0 0.73519,-0.1711 0.87144,0.62503c0.13623,0.79612 -0.59894,0.9672 -0.59894,0.9672c-0.58969,0.13722 -0.77928,0.20439 -1.22447,0.5568l-0.51531,0.17052c0,0 -0.70567,0.29089 -0.95279,-0.4697z" data-paper-data="{&quot;origPos&quot;:null}" fill="#d2a31f" stroke="none" stroke-width="0.5" stroke-linecap="butt"/></g><g><g stroke-width="0"><path d="M256.29688,157.99677c1.34778,8.78653 -4.8006,17.0201 -13.73275,18.3902c-8.93215,1.37009 -17.26568,-4.64209 -18.61345,-13.42861c-1.34777,-8.78653 4.80061,-17.02009 13.73276,-18.39018c8.93216,-1.37009 17.26566,4.64208 18.61343,13.4286z" fill="#fcdc48" stroke="none" stroke-linecap="butt"/><path d="M239.33217,143.87364c0.98468,6.4195 -1.77684,8.50436 -5.49049,9.07401c-3.71364,0.56963 -6.95288,-0.45984 -7.95779,-7.01118c-0.68133,-4.4418 2.08449,-8.55157 6.72105,-9.26277c4.50471,-0.69097 6.0459,2.75814 6.72723,7.19995z" fill="#ffdd32" stroke="#ff0000" stroke-linecap="butt"/><path d="M248.0515,142.15165c0.98468,6.4195 -0.01889,8.23473 -3.73253,8.80437c-1.85819,0.28503 -9.21366,-3.46826 -9.71573,-6.74154c-0.68133,-4.4418 0.15074,-8.25495 4.78731,-8.96615c4.50471,-0.69097 7.97964,2.46152 8.66097,6.90332z" fill="#ffdd32" stroke="#ff0000" stroke-linecap="butt"/><path d="M235.36889,159.97761c0.96055,6.26222 -1.74291,11.48278 -5.96627,12.1306c-4.22336,0.64782 -8.5719,-4.85638 -9.53247,-11.1186c-0.96055,-6.26222 1.83061,-10.91107 6.05398,-11.55889c4.22336,-0.64782 8.4842,4.28467 9.44476,10.54689z" fill="#fcdc48" stroke="#d2a31f" stroke-linecap="butt"/><path d="M240.18388,144.88913c0.46687,3.83348 -1.72108,6.33922 -4.72065,6.68098c-2.99956,0.34177 -5.67486,-1.60989 -6.14172,-5.44336c-0.46687,-3.83348 1.77608,-8.32687 4.77565,-8.66864c2.99956,-0.34177 5.61987,3.59754 6.08676,7.43104z" fill="#ffffff" stroke="none" stroke-linecap="butt"/><path d="M247.89961,142.94177c0.46687,3.83348 -1.72109,6.3392 -4.72066,6.68097c-2.99956,0.34177 -5.67485,-1.60988 -6.14172,-5.44335c-0.46687,-3.83348 1.09985,-8.04322 4.09941,-8.38499c2.99956,-0.34177 6.29609,3.3139 6.76296,7.14738z" fill="#ffffff" stroke="none" stroke-linecap="butt"/><path d="M238.85211,145.49489c0.29572,2.15106 -0.137,4.01223 -0.96651,4.15699c-0.8295,0.14477 -1.74168,-1.48169 -2.0374,-3.63275c-0.29572,-2.15106 0.13702,-4.01223 0.96651,-4.15698c0.8295,-0.14477 1.74168,1.48168 2.0374,3.63275z" fill="#000000" stroke="none" stroke-linecap="butt"/><path d="M245.56172,143.87042c0.29572,2.15106 -0.137,4.01222 -0.96651,4.15697c-0.8295,0.14477 -1.74168,-1.48168 -2.0374,-3.63275c-0.29572,-2.15106 0.13701,-4.01223 0.96651,-4.15699c0.8295,-0.14477 1.74167,1.4817 2.03739,3.63276z" fill="#000000" stroke="none" stroke-linecap="butt"/><path d="M235.66306,169.60205l2.54025,-4.55375l17.30341,1.2015l-2.31017,3.67722c0,0 -6.38565,-0.71554 -9.26556,-0.54929c-3.02413,0.17455 -8.43063,1.17464 -8.43063,1.17464z" fill="#d2a31f" stroke="#d2a31f" stroke-linecap="round"/></g><g stroke-linecap="round"><path d="M241.43419,150.56105c0,0 6.67236,-4.92304 11.54662,-2.8507c15.7763,6.70739 6.22102,25.67548 6.22102,25.67548c0,0 -6.49419,-4.41896 -10.51953,-5.32788c-3.69716,-0.83482 -11.80257,-0.06473 -11.80257,-0.06473" fill="#fcdc48" stroke="#d2a31f" stroke-width="0"/><path d="M246.16458,152.26377c0,0 1.39695,0.75853 2.01171,1.23664c0.60911,0.4737 1.66004,1.61886 1.66004,1.61886" fill="none" stroke="#996c1c" stroke-width="1.5"/><path d="M255.28849,154.29889l0.96653,-3.36526" data-paper-data="{&quot;index&quot;:null}" fill="none" stroke="#996c1c" stroke-width="1.5"/><path d="M230.99933,155.33872c0,0 4.4231,0.36234 5.45228,7.21444c1.13543,7.5595 -2.51228,9.21909 -2.51228,9.21909" fill="none" stroke="#d2a31f" stroke-width="2"/></g></g></g></g></svg>