<svg version="1.1" xmlns="http://www.w3.org/2000/svg" xmlns:xlink="http://www.w3.org/1999/xlink" width="815.53146" height="377.98799" viewBox="0,0,815.53146,377.98799"><defs><radialGradient cx="563.73876" cy="131.21439" r="232.20752" gradientUnits="userSpaceOnUse" id="color-1"><stop offset="0" stop-color="#ececec"/><stop offset="1" stop-color="#616161"/></radialGradient><linearGradient x1="586.38141" y1="127.25927" x2="541.09612" y2="127.25927" gradientUnits="userSpaceOnUse" id="color-2"><stop offset="0" stop-color="#ececec" stop-opacity="0"/><stop offset="1" stop-color="#ececec"/></linearGradient></defs><g transform="translate(86.29586,3.5)"><g data-paper-data="{&quot;isPaintingLayer&quot;:true}" fill-rule="nonzero" stroke-linecap="butt" stroke-linejoin="miter" stroke-miterlimit="10" stroke-dasharray="" stroke-dashoffset="0" style="mix-blend-mode: normal"><g fill="#a18a67" stroke="#8b8064" stroke-width="7"><g><path d="M-80.79585,0h110v50h-110z"/><path d="M35.20414,0h110v50h-110z"/><path d="M151.20413,0h110v50h-110z"/></g><g><path d="M-20.79585,56h110v50h-110z"/><path d="M95.20415,56h110v50h-110z"/><path d="M211.20414,56h110v50h-110z"/></g></g><g fill="#a18a67" stroke="#8b8064" stroke-width="7"><g><path d="M-81.79585,111h110v50h-110z"/><path d="M34.20414,111h110v50h-110z"/><path d="M150.20413,111h110v50h-110z"/></g><g><path d="M-21.79585,167h110v50h-110z"/><path d="M94.20415,167h110v50h-110z"/><path d="M210.20414,167h110v50h-110z"/></g></g><g fill="#a18a67" stroke="#8b8064" stroke-width="7"><g><path d="M-82.79585,222h110v50h-110z"/><path d="M33.20414,222h110v50h-110z"/><path d="M149.20413,222h110v50h-110z"/></g><g><path d="M-22.79585,278h110v50h-110z"/><path d="M93.20415,278h110v50h-110z"/><path d="M209.20414,278h110v50h-110z"/></g></g><g><g fill="#a18a67" stroke="#8b8064" stroke-width="7"><path d="M-82.79585,333h110v37.98799h-110z"/><path d="M33.20414,333h110v37.98799h-110z"/><path d="M149.20413,333h110v37.98799h-110z"/></g><g fill="none" stroke="none" stroke-width="1" font-family="sans-serif" font-weight="normal" font-size="12" text-anchor="start"/></g><g fill="#a18a67" stroke="#8b8064" stroke-width="7"><g><path d="M267.73561,0h110v50h-110z"/><path d="M383.73561,0h110v50h-110z"/><path d="M499.73561,0h110v50h-110z"/><path d="M615.73561,0h110v50h-110z"/></g><g><path d="M327.73561,56h110v50h-110z"/><path d="M443.73561,56h110v50h-110z"/><path d="M559.73561,56h110v50h-110z"/></g></g><g fill="#a18a67" stroke="#8b8064" stroke-width="7"><g><path d="M266.73561,111h110v50h-110z"/><path d="M382.73561,111h110v50h-110z"/><path d="M498.73561,111h110v50h-110z"/><path d="M614.73561,111h110v50h-110z"/></g><g><path d="M326.73561,167h110v50h-110z"/><path d="M442.73561,167h110v50h-110z"/><path d="M558.73561,167h110v50h-110z"/></g></g><g fill="#a18a67" stroke="#8b8064" stroke-width="7"><g><path d="M265.73561,222h110v50h-110z"/><path d="M381.73561,222h110v50h-110z"/><path d="M497.73561,222h110v50h-110z"/><path d="M613.73561,222h110v50h-110z"/></g><g><path d="M325.73561,278h110v50h-110z"/><path d="M441.73561,278h110v50h-110z"/><path d="M557.73561,278h110v50h-110z"/></g></g><g><g fill="#a18a67" stroke="#8b8064" stroke-width="7"><path d="M265.73561,333h110v37.98799h-110z"/><path d="M381.73561,333h110v37.98799h-110z"/><path d="M497.73561,333h110v37.98799h-110z"/><path d="M613.73561,333h110v37.98799h-110z"/></g><g fill="none" stroke="none" stroke-width="1" font-family="sans-serif" font-weight="normal" font-size="12" text-anchor="start"/></g><g data-paper-data="{&quot;index&quot;:null}" stroke="none" stroke-width="0"><path d="M541.09612,218.0739v-180.86186h45.28529v180.86186z" fill="url(#color-1)"/><path d="M541.09612,217.3065v-180.09446h45.28529v180.09446z" fill="url(#color-2)"/></g></g></g></svg>