<svg version="1.1" xmlns="http://www.w3.org/2000/svg" xmlns:xlink="http://www.w3.org/1999/xlink" width="686.86316" height="469.25353" viewBox="0,0,686.86316,469.25353"><defs><linearGradient x1="238.95079" y1="-60.21624" x2="238.95079" y2="48.89185" gradientUnits="userSpaceOnUse" id="color-1"><stop offset="0" stop-color="#000000"/><stop offset="1" stop-color="#000000" stop-opacity="0"/></linearGradient><radialGradient cx="-1.39986" cy="205.70981" r="180.93093" gradientUnits="userSpaceOnUse" id="color-2"><stop offset="0" stop-color="#ececec"/><stop offset="1" stop-color="#616161"/></radialGradient><linearGradient x1="-1.39987" y1="50.48857" x2="-1.39987" y2="360.93108" gradientUnits="userSpaceOnUse" id="color-3"><stop offset="0" stop-color="#232323"/><stop offset="1" stop-color="#0c0c0c"/></linearGradient><linearGradient x1="239.72224" y1="-15.07141" x2="239.72224" y2="289.38975" gradientUnits="userSpaceOnUse" id="color-4"><stop offset="0" stop-color="#ff4040"/><stop offset="1" stop-color="#c33131"/></linearGradient><linearGradient x1="-50.66825" y1="-17.74166" x2="-50.66825" y2="374.37842" gradientUnits="userSpaceOnUse" id="color-5"><stop offset="0" stop-color="#805c39"/><stop offset="1" stop-color="#674521"/></linearGradient><linearGradient x1="-49.16308" y1="-26.39923" x2="-49.16308" y2="382.9847" gradientUnits="userSpaceOnUse" id="color-6"><stop offset="0" stop-color="#000000" stop-opacity="0.2"/><stop offset="1" stop-color="#000000" stop-opacity="0.8"/></linearGradient></defs><g transform="translate(88.79921,75.07497)"><g data-paper-data="{&quot;isPaintingLayer&quot;:true}" fill-rule="nonzero" stroke-linecap="butt" stroke-linejoin="miter" stroke-miterlimit="10" stroke-dasharray="" stroke-dashoffset="0" style="mix-blend-mode: normal"><path d="M454.12945,390.67856v-25.91042h114.34136v25.91041z" fill="#805c39" stroke="#674521" stroke-width="7"/><path d="M464.26735,358.21607v-25.91041h130.29661v25.91041z" fill="#674521" stroke="#4b3318" stroke-width="7"/><path d="M407.26735,358.21607v-25.91041h130.29661v25.91041z" fill="#674521" stroke="#4b3318" stroke-width="7"/><path d="M-16.00593,51.05116v-126.12613h512.01201l-40.92769,68.82736l-65.72157,57.29877l-85.45593,71.5h-129l-84.54407,-71.5z" fill="#1b1b1b" stroke="none" stroke-width="NaN"/><path d="M-4.29246,48.89185v-109.10811h573.48649v109.10811z" fill="url(#color-1)" stroke="none" stroke-width="0"/><path d="M305.50005,72.17727v50.5h-43.5v-50.5z" data-paper-data="{&quot;index&quot;:null}" fill="#616161" stroke="none" stroke-width="0"/><path d="M131.8602,36.21327v50.5l-43.5,-37.53754v-50.5z" data-paper-data="{&quot;origPos&quot;:null,&quot;index&quot;:null}" fill="#616161" stroke="none" stroke-width="0"/><path d="M391.85722,-1.32424v50.5l-43.5,37.53754v-50.5z" data-paper-data="{&quot;origPos&quot;:null,&quot;index&quot;:null}" fill="#616161" stroke="none" stroke-width="0"/><path d="M174.89925,22.6908v50.5l-43.5,-37.53754v-50.5z" data-paper-data="{&quot;index&quot;:null}" fill="#616161" stroke="none" stroke-width="0"/><path d="M348.85722,-15.32423v50.5l-43.5,37.53754v-50.5z" data-paper-data="{&quot;index&quot;:null}" fill="#616161" stroke="none" stroke-width="0"/><path d="M218.00007,72.17727v50.5h-43.5v-50.5z" data-paper-data="{&quot;index&quot;:null}" fill="#616161" stroke="none" stroke-width="0"/><path d="M262.00005,21.67729v50.5h-43.5v-50.5z" data-paper-data="{&quot;index&quot;:null}" fill="#616161" stroke="none" stroke-width="0"/><path d="M305.50005,-27.82272v50.5h-43.5v-50.5z" data-paper-data="{&quot;index&quot;:null}" fill="#616161" stroke="none" stroke-width="0"/><path d="M218.00007,-27.82272v50.5h-43.5v-50.5z" data-paper-data="{&quot;index&quot;:null}" fill="#616161" stroke="none" stroke-width="0"/><path d="M46.23581,-1.80172v52.0015h-28.48497l-18.01803,-52.0015z" data-paper-data="{&quot;index&quot;:null}" fill="#616161" stroke="none" stroke-width="0"/><path d="M13.40193,330.12307v-36c0,0 142.66964,21 217,21c74.99702,0 -217,15 -217,15z" data-paper-data="{&quot;index&quot;:null}" fill="#674521" stroke="#674521" stroke-width="7"/><g data-paper-data="{&quot;index&quot;:null}"><path d="M277.35826,358.21607v-25.91041h130.29661v25.91041z" fill="#674521" stroke="#4b3318" stroke-width="7"/><path d="M238.79046,390.67856v-25.91042h130.29661v25.91041z" fill="#805c39" stroke="#674521" stroke-width="7"/><path d="M370.12945,390.67856v-25.91042h114.34136v25.91041z" fill="#805c39" stroke="#674521" stroke-width="7"/><path d="M145.2261,358.21607v-25.91041h130.29661v25.91041z" fill="#674521" stroke="#4b3318" stroke-width="7"/><path d="M106.65833,390.67856v-25.91042h130.29661v25.91041z" fill="#805c39" stroke="#674521" stroke-width="7"/><path d="M13.09398,358.21607v-25.91041h130.29661v25.91041z" fill="#674521" stroke="#4b3318" stroke-width="7"/><path d="M-14.221,390.67856v-25.91042h119.0438v25.91041z" fill="#805c39" stroke="#674521" stroke-width="7"/><g fill="none" stroke="none" stroke-width="1" font-family="sans-serif" font-weight="normal" font-size="12" text-anchor="start"><g><g/><g/><g/><g/></g></g><g data-paper-data="{&quot;index&quot;:null}"><path d="M-12.72708,293.58886v-25.91041h134.05656v25.91041z" fill="#674521" stroke="#4b3318" stroke-width="7"/><path d="M29.60068,326.05127v-25.91041h130.29661v25.91041z" fill="#805c39" stroke="#674521" stroke-width="7"/><g stroke="none"><g fill="none" stroke-width="1" font-family="sans-serif" font-weight="normal" font-size="12" text-anchor="start"/><g fill="#cc1919" stroke-width="NaN"><path d="M149.34053,326.4395v-10.28539h11.9965v10.28539z" stroke-width="NaN"/></g><g fill="#cc1919"><path d="M137.00532,315.68009v-10.28539h11.9965v10.28539z" stroke-width="NaN"/><path d="M124.79462,305.39466v-10.28539h11.9965v10.28539z" stroke-width="NaN"/><path d="M112.45941,295.1135v-10.28539h11.9965v10.28539z" stroke-width="NaN"/><path d="M100.24869,284.82806v-10.28539h11.9965v10.28539z" stroke-width="NaN"/></g><g fill="#cc1919" stroke-width="NaN"><path d="M87.91348,274.5469v-10.28539h11.99649v10.28539z" stroke-width="NaN"/></g></g><path d="M162.19402,326.81819l-112.19337,-93.94925h37.54054l112.4231,94.03035z" fill="#cc1919" stroke="none" stroke-width="0"/><path d="M-12.81918,233.03316h99.73574v31h-99.73573z" data-paper-data="{&quot;index&quot;:null}" fill="#cc1919" stroke="none" stroke-width="1"/></g><path d="M568.86452,337.13074h-406.8815v-31h406.88151z" data-paper-data="{&quot;index&quot;:null}" fill="#cc1919" stroke="none" stroke-width="1"/></g><path d="M439.29083,175.3119v0h22.52252v0z" data-paper-data="{&quot;index&quot;:null}" fill="#ececec" stroke="none" stroke-width="0"/><g data-paper-data="{&quot;index&quot;:null}" stroke="none" stroke-width="0"><path d="M-19.04253,360.93108v-310.44251h35.28529v310.44251z" fill="url(#color-2)"/><path d="M-19.04253,360.93108v-310.44251h35.28529v310.44251z" fill="url(#color-3)"/></g><path d="" data-paper-data="{&quot;index&quot;:null}" fill="url(#color-4)" stroke="none" stroke-width="1.06271"/><path d="M-88.7992,374.37842v-392.12007h76.26188v392.12007z" fill="url(#color-5)" stroke="none" stroke-width="0"/><path d="M-86.29058,382.9847v-409.38393h74.25499v409.38393z" fill="url(#color-6)" stroke="none" stroke-width="0"/></g></g></svg>