<svg version="1.1" xmlns="http://www.w3.org/2000/svg" xmlns:xlink="http://www.w3.org/1999/xlink" width="143.7336" height="143.73361" viewBox="0,0,143.7336,143.73361"><defs><linearGradient x1="240" y1="110.13323" x2="240" y2="249.86683" gradientUnits="userSpaceOnUse" id="color-1"><stop offset="0" stop-color="#3c94ed"/><stop offset="1" stop-color="#337fcc"/></linearGradient><radialGradient cx="226.31145" cy="155.50962" r="46.36169" gradientUnits="userSpaceOnUse" id="color-2"><stop offset="0" stop-color="#fff343"/><stop offset="1" stop-color="#fff343" stop-opacity="0"/></radialGradient><linearGradient x1="222.92255" y1="125.73842" x2="229.85156" y2="186.60996" gradientUnits="userSpaceOnUse" id="color-3"><stop offset="0" stop-color="#ffef10"/><stop offset="1" stop-color="#ffa30a"/></linearGradient><linearGradient x1="222.92259" y1="125.73845" x2="229.7778" y2="185.96174" gradientUnits="userSpaceOnUse" id="color-4"><stop offset="0" stop-color="#e6b609"/><stop offset="1" stop-color="#c37808"/></linearGradient><radialGradient cx="256.37153" cy="195.23389" r="46.36169" gradientUnits="userSpaceOnUse" id="color-5"><stop offset="0" stop-color="#fff343"/><stop offset="1" stop-color="#fff343" stop-opacity="0"/></radialGradient><linearGradient x1="259.47141" y1="165.43121" x2="253.13316" y2="226.3671" gradientUnits="userSpaceOnUse" id="color-6"><stop offset="0" stop-color="#ffef10"/><stop offset="1" stop-color="#ffa30a"/></linearGradient><linearGradient x1="259.47145" y1="165.43125" x2="253.20068" y2="225.7182" gradientUnits="userSpaceOnUse" id="color-7"><stop offset="0" stop-color="#e6b609"/><stop offset="1" stop-color="#c37808"/></linearGradient></defs><g transform="translate(-168.1332,-108.13322)"><g data-paper-data="{&quot;isPaintingLayer&quot;:true}" fill-rule="nonzero" stroke-linejoin="miter" stroke-miterlimit="10" stroke-dasharray="" stroke-dashoffset="0" style="mix-blend-mode: normal"><path d="M240,110.13323c19.2752,0 36.74421,7.8268 49.3899,20.47689c12.64989,12.64569 20.4769,30.11449 20.4769,49.38991c0,19.27542 -7.82701,36.74421 -20.4769,49.38991c-12.64569,12.65009 -30.1147,20.4769 -49.3899,20.4769c-19.27542,0 -36.74442,-7.8268 -49.39012,-20.4769c-12.64989,-12.64569 -20.47668,-30.11449 -20.47668,-49.38991c0,-19.27542 7.82679,-36.74421 20.47668,-49.38991c12.64569,-12.6501 30.11471,-20.47689 49.39012,-20.47689z" data-paper-data="{&quot;origPos&quot;:null}" fill="url(#color-1)" stroke="#23568d" stroke-width="4" stroke-linecap="butt"/><g><path d="M239.54692,188.18014c-3.52064,-1.67846 -10.65683,-6.11133 -10.65683,-6.11133c0,0 -6.67901,6.3148 -9.54636,8.67404c-4.78606,3.72116 -11.55099,4.05537 -12.25874,3.25988c-0.87707,-0.98576 -2.94514,-6.85508 -2.40067,-14.29966c0.43543,-5.95324 1.1444,-10.38124 1.1444,-10.38124c-3.98224,-2.40741 -7.08901,-3.35017 -10.25743,-5.49697c-5.25467,-3.71059 -7.19948,-11.32047 -6.85756,-12.78782c0.46798,-2.0084 6.19966,-8.49515 20.08757,-10.49374l0.84748,-0.4273c3.18906,-14.11767 10.23051,-20.00305 12.4672,-20.25765c2.07896,-0.19946 9.7332,4.26035 16.13406,17.19907l0.74909,0.40187c14.14323,-1.16481 21.78745,2.99434 22.74116,4.77188c0.5682,1.05901 1.79393,8.57471 -4.54476,15.1056c-2.23302,2.3007 -5.23711,4.40187 -7.89286,6.98265c0,0 2.03283,4.61532 3.9919,10.9406c2.21024,7.13647 0.70301,12.25969 -0.22992,13.18002c-0.80033,0.7895 -7.09034,2.51613 -13.51767,-0.25988z" data-paper-data="{&quot;index&quot;:null}" fill="url(#color-2)" stroke="#3f2803" stroke-width="0" stroke-linecap="round"/><path d="M237.10978,182.84988c-2.8661,-1.3664 -8.74995,-5.62819 -8.74995,-5.62819c0,0 -5.36294,5.79384 -7.69723,7.71447c-5.34657,4.39909 -9.84099,3.62468 -10.41714,2.9771c-0.71401,-0.80249 -2.10315,-5.81748 -1.65987,-11.87801c0.35448,-4.84645 0.93164,-8.45124 0.93164,-8.45124c-3.24188,-1.95985 -5.77106,-2.72734 -8.35043,-4.47502c-5.27794,-3.57616 -6.98204,-9.80706 -6.70369,-11.00161c0.381,-1.63503 5.93133,-7.06183 17.2373,-8.68884l0.68994,-0.34786c2.59618,-11.49302 8.60106,-17.1124 10.42192,-17.31966c1.69245,-0.16238 8.26155,4.28813 13.47238,14.82137l0.60984,0.32717c11.51381,-0.94825 18.92246,2.6885 19.69884,4.13556c0.46256,0.86211 0.28875,8.0277 -4.8715,13.34444c-1.81786,1.87297 -4.19149,3.03992 -6.3535,5.1409c0,0 1.65491,3.75726 3.24975,8.90659c1.79935,5.80971 1.1698,10.32238 0.41029,11.07161c-0.65153,0.64272 -5.95024,2.19668 -11.91857,-0.64874z" data-paper-data="{&quot;index&quot;:null}" fill="url(#color-3)" stroke="url(#color-4)" stroke-width="1" stroke-linecap="round"/><g stroke="none" stroke-width="2.7674"><path d="M231.22963,148.99252c0.84502,-0.12936 1.77085,0.47697 2.22581,1.30294c0.82543,1.49907 1.10836,3.36609 1.25935,5.12278c0.15076,1.62019 0.08424,3.32046 -0.36742,4.83597c-0.03298,0.11414 -0.07044,0.23096 -0.11236,0.3481c-0.51397,-0.01499 -1.03525,0.00632 -1.56101,0.06617c-0.64509,0.07343 -1.27054,0.20187 -1.87222,0.38011c-0.05307,-0.08579 -0.10475,-0.17579 -0.15497,-0.26993c-0.71408,-1.32747 -1.16664,-2.96497 -1.38959,-4.92355c-0.22296,-1.95872 -0.20297,-3.58352 0.24748,-5.10991c0.29527,-1.00723 0.99939,-1.70324 1.72498,-1.75266z" fill="#3f2803" stroke-linecap="round"/><path d="M231.47882,150.00709c0.43803,-0.04986 0.8581,0.11989 1.18441,0.43305c0.32632,0.31325 0.5589,0.76995 0.61898,1.29779c0.06008,0.52783 -0.0639,1.02509 -0.31149,1.40357c-0.24758,0.37858 -0.61875,0.63842 -1.05677,0.68828c-0.43791,0.04985 -0.85807,-0.1199 -1.1844,-0.43317c-0.32631,-0.31314 -0.55877,-0.76979 -0.61886,-1.29767c-0.06008,-0.52783 0.06381,-1.02507 0.31136,-1.40369c0.24758,-0.37847 0.61887,-0.63832 1.05677,-0.68816z" fill="#ffffff" stroke-linecap="butt"/></g><g stroke="none" stroke-width="2.7674"><path d="M220.04221,150.20479c0.84502,-0.12936 1.77087,0.47696 2.22583,1.30293c0.82543,1.49907 1.10837,3.36609 1.25935,5.12278c0.15076,1.62019 0.08423,3.32046 -0.36742,4.83597c-0.0436,0.15082 -0.09494,0.30635 -0.15418,0.46105c-0.61058,-0.03471 -1.23239,-0.01821 -1.86062,0.0533c-0.52302,0.05954 -1.03316,0.15523 -1.52817,0.28433c-0.054,-0.08708 -0.10657,-0.17851 -0.15761,-0.27421c-0.71408,-1.32747 -1.16663,-2.96497 -1.38958,-4.92355c-0.22296,-1.95872 -0.20296,-3.58353 0.24747,-5.10992c0.29527,-1.00723 0.99939,-1.70323 1.72498,-1.75266z" fill="#3f2803" stroke-linecap="round"/><path d="M220.34498,151.15202c0.43803,-0.04986 0.85807,0.1199 1.18439,0.43305c0.32632,0.31325 0.5589,0.76993 0.61899,1.29776c0.06008,0.52783 -0.06391,1.02508 -0.3115,1.40357c-0.24758,0.37858 -0.61873,0.63842 -1.05675,0.68828c-0.43791,0.04985 -0.85808,-0.1199 -1.18442,-0.43317c-0.32631,-0.31314 -0.55877,-0.76979 -0.61886,-1.29767c-0.06008,-0.52783 0.06381,-1.02507 0.31137,-1.40367c0.24758,-0.37847 0.61887,-0.63831 1.05678,-0.68816z" fill="#ffffff" stroke-linecap="butt"/></g></g><g><path d="M262.26314,229.98774c-3.07673,-2.39704 -9.09126,-8.2623 -9.09126,-8.2623c0,0 -7.88188,4.72883 -11.1899,6.41545c-5.47494,2.60353 -12.1532,1.47351 -12.67309,0.54431c-0.64429,-1.15147 -1.40028,-7.32838 0.73414,-14.48118c1.70686,-5.7199 3.3525,-9.89144 3.3525,-9.89144c-3.37058,-3.20828 -6.20153,-4.79778 -8.83348,-7.57636c-4.33262,-4.75484 -4.59352,-12.60496 -3.94373,-13.9643c0.88939,-1.86055 7.88318,-6.96124 21.8757,-5.9231l0.9196,-0.23484c6.15362,-13.10006 14.29699,-17.33151 16.53604,-17.09861c2.07315,0.25279 8.58778,6.25587 12.05302,20.2692l0.645,0.55372c14.06235,1.90734 20.63192,7.61465 21.18059,9.55584c0.32689,1.15651 -0.09416,8.75986 -7.69022,13.77298c-2.67597,1.76602 -6.06197,3.17117 -9.21105,5.11969c0,0 0.99155,4.94474 1.54294,11.54345c0.62203,7.44496 -1.95281,12.12356 -3.062,12.82146c-0.95153,0.59868 -7.46576,0.93068 -13.14475,-3.16396z" data-paper-data="{&quot;index&quot;:null}" fill="url(#color-5)" stroke="#3f2803" stroke-width="0" stroke-linecap="round"/><path d="M261.03068,224.25778c-2.50473,-1.95139 -7.33311,-7.37995 -7.33311,-7.37995c0,0 -6.48452,4.50342 -9.17755,5.87647c-6.16826,3.1449 -10.39057,1.42106 -10.81379,0.66463c-0.52451,-0.93739 -0.80141,-6.13385 0.93622,-11.95683c1.38954,-4.6565 2.72923,-8.0525 2.72923,-8.0525c-2.74394,-2.61182 -5.04857,-3.90581 -7.19121,-6.16781c-4.38428,-4.62857 -4.707,-11.08023 -4.178,-12.18684c0.72406,-1.51467 7.31257,-5.61931 18.70369,-4.77416l0.74865,-0.19116c5.00959,-10.6646 12.08343,-14.85944 13.90622,-14.66985c1.68772,0.20579 7.14465,5.96618 9.96563,17.37424l0.52511,0.45078c11.44797,1.55275 17.89995,6.6992 18.34659,8.27947c0.26612,0.94148 -1.44626,7.90163 -7.63013,11.98276c-2.17845,1.43769 -4.74766,2.06626 -7.31128,3.65252c0,0 0.80722,4.02544 1.25608,9.39737c0.50641,6.06085 -1.07988,10.33217 -1.98289,10.90032c-0.77463,0.48738 -6.28363,0.86417 -11.49943,-3.19942z" data-paper-data="{&quot;index&quot;:null}" fill="url(#color-6)" stroke="url(#color-7)" stroke-width="1" stroke-linecap="round"/><g stroke="none" stroke-width="2.7674"><path d="M262.57742,189.92843c0.85306,0.0556 1.62664,0.84703 1.89311,1.75158c0.48334,1.64162 0.35771,3.52577 0.12697,5.27378c-0.20158,1.61465 -0.63259,3.26073 -1.39993,4.64347c-0.05678,0.10436 -0.1185,0.21038 -0.18466,0.31575c-0.49869,-0.12529 -1.01233,-0.21669 -1.53866,-0.27144c-0.64578,-0.06717 -1.28421,-0.07641 -1.91015,-0.03188c-0.03335,-0.0952 -0.06445,-0.19421 -0.09322,-0.29696c-0.41154,-1.45007 -0.50098,-3.14662 -0.29704,-5.10727c0.20395,-1.96078 0.57327,-3.54318 1.34177,-4.9368c0.50518,-0.92004 1.34264,-1.44814 2.06185,-1.3402z" fill="#3f2803" stroke-linecap="round"/><path d="M262.60234,190.97285c0.43849,0.04561 0.81216,0.30181 1.06341,0.67788c0.25124,0.37616 0.38003,0.87221 0.32507,1.40061c-0.05496,0.52838 -0.28309,0.9873 -0.60635,1.3036c-0.32328,0.31641 -0.74168,0.49025 -1.18017,0.44464c-0.43837,-0.0456 -0.81214,-0.30182 -1.06338,-0.678c-0.25125,-0.37606 -0.37994,-0.87204 -0.32498,-1.40047c0.05496,-0.52838 0.28299,-0.9873 0.60625,-1.30374c0.32326,-0.31629 0.74178,-0.49012 1.18014,-0.44452z" fill="#ffffff" stroke-linecap="butt"/></g><g stroke="none" stroke-width="2.7674"><path d="M251.39135,188.70378c0.85306,0.0556 1.62665,0.84702 1.89313,1.75157c0.48335,1.64162 0.35772,3.52578 0.12697,5.27378c-0.20158,1.61465 -0.6326,3.26073 -1.39993,4.64347c-0.07504,0.13789 -0.15867,0.27873 -0.24982,0.41706c-0.58879,-0.16534 -1.19957,-0.28311 -1.82846,-0.34852c-0.52357,-0.05446 -1.04236,-0.07083 -1.55355,-0.05133c-0.03399,-0.09667 -0.06564,-0.19727 -0.09488,-0.30172c-0.41154,-1.45007 -0.50096,-3.1466 -0.29702,-5.10726c0.20395,-1.96078 0.57327,-3.5432 1.34176,-4.93682c0.50519,-0.92004 1.34264,-1.44813 2.06185,-1.3402z" fill="#3f2803" stroke-linecap="round"/><path d="M251.4831,189.69397c0.43849,0.04561 0.81214,0.30181 1.06338,0.67788c0.25124,0.37616 0.38004,0.87221 0.32509,1.40059c-0.05496,0.52838 -0.2831,0.98728 -0.60636,1.3036c-0.32327,0.31641 -0.74167,0.49025 -1.18015,0.44464c-0.43837,-0.0456 -0.81215,-0.30182 -1.06339,-0.678c-0.25125,-0.37606 -0.37994,-0.87203 -0.32498,-1.40047c0.05496,-0.52838 0.283,-0.9873 0.60626,-1.30372c0.32326,-0.31629 0.74178,-0.49012 1.18015,-0.44451z" fill="#ffffff" stroke-linecap="butt"/></g></g></g></g></svg>