<svg version="1.1" xmlns="http://www.w3.org/2000/svg" xmlns:xlink="http://www.w3.org/1999/xlink" width="55.87503" height="56.08092" viewBox="0,0,55.87503,56.08092"><g transform="translate(-212.06248,-151.95954)"><g data-paper-data="{&quot;isPaintingLayer&quot;:true}" fill-rule="nonzero" stroke="none" stroke-linejoin="miter" stroke-miterlimit="10" stroke-dasharray="" stroke-dashoffset="0" style="mix-blend-mode: normal"><path d="M264.04848,197.76628c-5.50068,6.22054 -22.91922,19.62076 -42.68022,0.00302c-18.6956,-18.56006 -4.20423,-37.44083 0.3674,-41.27786c4.57163,-3.83703 13.94421,-6.61042 30.57092,9.83237c16.82344,17.46827 16.72195,25.81073 11.74192,31.44249z" data-paper-data="{&quot;index&quot;:null}" fill="#ff1919" stroke-width="0.93172" stroke-linecap="round"/><path d="M265.51514,179.69874c-3.22503,3.32212 -8.71333,5.54497 -20.04601,-5.64233c-9.80993,-9.83478 -9.11538,-15.5431 -5.36837,-19.09437c2.70072,-2.55962 6.41405,-7.25063 18.69505,5.43847c12.27858,12.68661 9.57975,16.35173 6.71934,19.29825z" data-paper-data="{&quot;index&quot;:null}" fill="#ffdea8" stroke-width="1" stroke-linecap="butt"/><path d="M251.81189,175.08417c-1.1255,-1.12804 -0.36884,-2.62319 2.27767,-5.26374c2.45896,-2.45344 3.3583,-2.41091 4.38397,-1.38293c1.02567,1.02799 1.15995,1.83385 -1.39278,4.38085c-2.6465,2.64055 -4.14334,3.39384 -5.26885,2.26581z" data-paper-data="{&quot;index&quot;:null}" fill="#000000" stroke-width="0" stroke-linecap="butt"/><path d="M244.90237,168.11978c-1.12551,-1.12804 -0.36885,-2.62319 2.27766,-5.26374c2.45896,-2.45344 3.35831,-2.41091 4.38398,-1.38293c1.02567,1.02798 1.15993,1.83385 -1.3928,4.38085c-2.64651,2.64056 -4.14334,3.39386 -5.26884,2.26582z" data-paper-data="{&quot;index&quot;:null}" fill="#000000" stroke-width="0" stroke-linecap="butt"/><path d="M233.57798,179.91254l-1.0883,9.88907l-6.54804,-5.7248l-9.81685,3.57252l3.69982,-9.70441l-5.79593,-6.64587l9.81765,-1.14006l5.65495,-8.66625l1.79109,10.93349l10.9839,1.87028z" data-paper-data="{&quot;index&quot;:null}" fill="#ffe428" stroke-width="1" stroke-linecap="round"/><path d="M247.90397,189.34422l-0.58399,5.30653l-3.51372,-3.07195l-5.26778,1.91703l1.98534,-5.20746l-3.11013,-3.56621l5.26821,-0.61176l3.03448,-4.65037l0.96111,5.86698l5.89404,1.00361z" data-paper-data="{&quot;index&quot;:null}" fill="#ffe428" stroke-width="1" stroke-linecap="round"/><path d="M238.61129,206.29285l0.0162,1.58863c0,0 -4.59727,-1.0345 -7.02197,-2.17059c-3.35794,-1.57336 -6.96819,-4.68915 -6.96819,-4.68915l-2.2414,-2.53619l7.91397,-0.51277l4.22232,-6.79241l1.91134,8.94396l8.98613,1.97805z" data-paper-data="{&quot;index&quot;:null}" fill="#ffe428" stroke-width="1" stroke-linecap="round"/><path d="M267.13596,193.16185c0,0 -0.71165,2.44556 -2.39615,4.55565c-1.68451,2.11007 -5.03723,4.74463 -5.03723,4.74463l-1.14982,-0.93814l-7.29789,3.18247l3.26826,-7.22203l-3.76632,-4.42981l7.14777,-1.42973l4.61333,-6.59508l0.61376,7.76749z" data-paper-data="{&quot;index&quot;:null}" fill="#ffe428" stroke-width="1" stroke-linecap="round"/><path d="M226.02112,157.93578l-1.32768,6.04856l-3.57049,-3.01533l-4.85231,2.21819c0.21427,-0.39834 2.50413,-4.31533 5.23923,-6.62283c2.65081,-2.2364 5.75268,-2.87151 5.75268,-2.87151l4.39701,0.2606z" data-paper-data="{&quot;index&quot;:null}" fill="#ffe428" stroke-width="1" stroke-linecap="round"/><path d="" data-paper-data="{&quot;origPos&quot;:null}" fill="#000000" stroke-width="1" stroke-linecap="butt"/></g></g></svg>