<svg version="1.1" xmlns="http://www.w3.org/2000/svg" xmlns:xlink="http://www.w3.org/1999/xlink" width="251.75" height="330" viewBox="0,0,251.75,330"><defs><linearGradient x1="133.125" y1="189.5" x2="153.125" y2="189.5" gradientUnits="userSpaceOnUse" id="color-1"><stop offset="0" stop-color="#ebd316"/><stop offset="1" stop-color="#fff13d"/></linearGradient><radialGradient cx="147.125" cy="34" r="23" gradientUnits="userSpaceOnUse" id="color-2"><stop offset="0" stop-color="#fff13d"/><stop offset="1" stop-color="#ebd316"/></radialGradient><linearGradient x1="114.125" y1="331" x2="173.125" y2="331" gradientUnits="userSpaceOnUse" id="color-3"><stop offset="0" stop-color="#aaadb3"/><stop offset="1" stop-color="#d1dcd6"/></linearGradient></defs><g transform="translate(-114.125,-15)"><g data-paper-data="{&quot;isPaintingLayer&quot;:true}" fill-rule="nonzero" stroke-linejoin="miter" stroke-miterlimit="10" stroke-dasharray="" stroke-dashoffset="0" style="mix-blend-mode: normal"><path d="M142.375,192.5v-135h223.5l-34.5,33l34.5,34.5l-34.5,33l34.5,34.5z" data-paper-data="{&quot;origPos&quot;:null}" fill="#64ca00" stroke="#000000" stroke-width="0" stroke-linecap="butt"/><path d="M195.625,125c0,-30.09951 24.40049,-54.5 54.5,-54.5c30.09951,0 54.5,24.40049 54.5,54.5c0,30.09951 -24.40049,54.5 -54.5,54.5c-30.09951,0 -54.5,-24.40049 -54.5,-54.5z" data-paper-data="{&quot;origPos&quot;:null}" fill="#ffffff" stroke="none" stroke-width="0" stroke-linecap="butt"/><path d="M241.59986,88.46367l-1.52235,53.28213l34.40503,-2.13128l0.60893,17.35475l-49.01956,0.30447l-1.82681,-68.50559z" data-paper-data="{&quot;origPos&quot;:null}" fill="#64ca00" stroke="#000000" stroke-width="0" stroke-linecap="round"/><g data-paper-data="{&quot;origPos&quot;:null}" stroke="none" stroke-linecap="butt"><path d="M133.125,324v-269h20v269z" data-paper-data="{&quot;origPos&quot;:null}" fill="url(#color-1)" stroke-width="NaN"/><path d="M144.125,61c-12.70255,0 -23,-10.29745 -23,-23c0,-12.70255 10.29745,-23 23,-23c12.70255,0 23,10.29745 23,23c0,12.70255 -10.29745,23 -23,23z" data-paper-data="{&quot;origPos&quot;:null,&quot;index&quot;:null}" fill="url(#color-2)" stroke-width="0"/><path d="M114.125,345v-28h59v28z" data-paper-data="{&quot;origPos&quot;:null}" fill="url(#color-3)" stroke-width="0"/></g></g></g></svg>