<svg version="1.1" xmlns="http://www.w3.org/2000/svg" xmlns:xlink="http://www.w3.org/1999/xlink" width="49.25" height="49.25" viewBox="0,0,49.25,49.25"><g transform="translate(-215.375,-155.375)"><g data-paper-data="{&quot;isPaintingLayer&quot;:true}" fill-rule="nonzero" stroke-linecap="butt" stroke-linejoin="miter" stroke-miterlimit="10" stroke-dasharray="" stroke-dashoffset="0" style="mix-blend-mode: normal"><path d="M215.375,180c0,-13.60001 11.02499,-24.625 24.625,-24.625c13.60001,0 24.625,11.02499 24.625,24.625c0,13.60001 -11.02499,24.625 -24.625,24.625c-13.60001,0 -24.625,-11.02499 -24.625,-24.625z" fill="#66caff" stroke="none" stroke-width="0"/><g stroke-width="1.5"><g data-paper-data="{&quot;index&quot;:null}" fill="#f1f1f1" stroke="#727272"><path d="M237.56439,191.39761l-8.91979,-8.91979l2.47733,-2.47733l8.91979,8.91979z"/><path d="M240.04173,171.0797l-8.91979,8.91979l-2.47733,-2.47733l8.91979,-8.91979z" data-paper-data="{&quot;index&quot;:null}"/></g><path d="M226.28006,179.99999c0,-1.77193 1.43643,-3.20836 3.20836,-3.20836c1.77193,0 3.20836,1.43643 3.20836,3.20836c0,1.77193 -1.43643,3.20836 -3.20836,3.20836c-1.77193,0 -3.20836,-1.43643 -3.20836,-3.20836z" fill="#ff9400" stroke="#cc5000"/></g><g stroke-width="1.5"><g fill="#f1f1f1" stroke="#727272"><path d="M239.95828,188.92027l8.91979,-8.91979l2.47733,2.47733l-8.91979,8.91979z"/><path d="M242.4356,168.60238l8.91979,8.91979l-2.47733,2.47733l-8.91979,-8.91979z" data-paper-data="{&quot;index&quot;:null}"/></g><path d="M247.30323,180c0,-1.77193 1.43643,-3.20836 3.20836,-3.20836c1.77193,0 3.20836,1.43643 3.20836,3.20836c0,1.77193 -1.43643,3.20836 -3.20836,3.20836c-1.77193,0 -3.20836,-1.43643 -3.20836,-3.20836z" fill="#ff9400" stroke="#cc5000"/></g><path d="M226.32228,166.08107h27.35545v5.29494h-27.35545z" fill="#ff9400" stroke="#cc5000" stroke-width="1.5"/><path d="M226.32228,188.62399h27.35545v5.29494h-27.35545z" fill="#ff9400" stroke="#cc5000" stroke-width="1.5"/></g></g></svg>