<svg version="1.1" xmlns="http://www.w3.org/2000/svg" xmlns:xlink="http://www.w3.org/1999/xlink" width="494.17677" height="342.47668" viewBox="0,0,494.17677,342.47668"><defs><linearGradient x1="240.00006" y1="177.00004" x2="240.00006" y2="361.00003" gradientUnits="userSpaceOnUse" id="color-1"><stop offset="0" stop-color="#a69675"/><stop offset="1" stop-color="#ccb995"/></linearGradient><linearGradient x1="108.75004" y1="164.01394" x2="108.75004" y2="359.01395" gradientUnits="userSpaceOnUse" id="color-2"><stop offset="0" stop-color="#dedac5"/><stop offset="1" stop-color="#b2b2b2"/></linearGradient><linearGradient x1="270.25004" y1="94.04442" x2="270.25004" y2="364.04445" gradientUnits="userSpaceOnUse" id="color-3"><stop offset="0" stop-color="#dedac5"/><stop offset="1" stop-color="#b2b2b2"/></linearGradient><linearGradient x1="395.75004" y1="234.62694" x2="395.75004" y2="362.62695" gradientUnits="userSpaceOnUse" id="color-4"><stop offset="0" stop-color="#dedac5"/><stop offset="1" stop-color="#b2b2b2"/></linearGradient><radialGradient cx="37.97784" cy="200.45324" r="21.8111" gradientUnits="userSpaceOnUse" id="color-5"><stop offset="0" stop-color="#ffff99"/><stop offset="1" stop-color="#ffff00"/></radialGradient><radialGradient cx="46.00844" cy="199.63814" r="21.4005" gradientUnits="userSpaceOnUse" id="color-6"><stop offset="0" stop-color="#ffff99"/><stop offset="1" stop-color="#ffff00"/></radialGradient><radialGradient cx="45.08766" cy="191.89432" r="21.3777" gradientUnits="userSpaceOnUse" id="color-7"><stop offset="0" stop-color="#ffff99"/><stop offset="1" stop-color="#ffff00"/></radialGradient><radialGradient cx="37.13453" cy="190.81604" r="20.4549" gradientUnits="userSpaceOnUse" id="color-8"><stop offset="0" stop-color="#ffff99"/><stop offset="1" stop-color="#ffff00"/></radialGradient><radialGradient cx="99.57784" cy="200.95324" r="21.8111" gradientUnits="userSpaceOnUse" id="color-9"><stop offset="0" stop-color="#ffff99"/><stop offset="1" stop-color="#ffff00"/></radialGradient><radialGradient cx="107.60845" cy="200.13814" r="21.4005" gradientUnits="userSpaceOnUse" id="color-10"><stop offset="0" stop-color="#ffff99"/><stop offset="1" stop-color="#ffff00"/></radialGradient><radialGradient cx="106.68766" cy="192.39432" r="21.3777" gradientUnits="userSpaceOnUse" id="color-11"><stop offset="0" stop-color="#ffff99"/><stop offset="1" stop-color="#ffff00"/></radialGradient><radialGradient cx="98.73454" cy="191.31604" r="20.4549" gradientUnits="userSpaceOnUse" id="color-12"><stop offset="0" stop-color="#ffff99"/><stop offset="1" stop-color="#ffff00"/></radialGradient><radialGradient cx="165.57782" cy="201.55324" r="21.8111" gradientUnits="userSpaceOnUse" id="color-13"><stop offset="0" stop-color="#ffff99"/><stop offset="1" stop-color="#ffff00"/></radialGradient><radialGradient cx="173.60844" cy="200.73814" r="21.4005" gradientUnits="userSpaceOnUse" id="color-14"><stop offset="0" stop-color="#ffff99"/><stop offset="1" stop-color="#ffff00"/></radialGradient><radialGradient cx="172.68766" cy="192.94434" r="21.3777" gradientUnits="userSpaceOnUse" id="color-15"><stop offset="0" stop-color="#ffff99"/><stop offset="1" stop-color="#ffff00"/></radialGradient><radialGradient cx="164.73466" cy="191.86603" r="20.4549" gradientUnits="userSpaceOnUse" id="color-16"><stop offset="0" stop-color="#ffff99"/><stop offset="1" stop-color="#ffff00"/></radialGradient><radialGradient cx="264.57785" cy="171.45324" r="21.8111" gradientUnits="userSpaceOnUse" id="color-17"><stop offset="0" stop-color="#ffff99"/><stop offset="1" stop-color="#ffff00"/></radialGradient><radialGradient cx="272.60842" cy="170.63814" r="21.4005" gradientUnits="userSpaceOnUse" id="color-18"><stop offset="0" stop-color="#ffff99"/><stop offset="1" stop-color="#ffff00"/></radialGradient><radialGradient cx="271.68754" cy="162.84434" r="21.3777" gradientUnits="userSpaceOnUse" id="color-19"><stop offset="0" stop-color="#ffff99"/><stop offset="1" stop-color="#ffff00"/></radialGradient><radialGradient cx="263.73464" cy="161.76602" r="20.4549" gradientUnits="userSpaceOnUse" id="color-20"><stop offset="0" stop-color="#ffff99"/><stop offset="1" stop-color="#ffff00"/></radialGradient><linearGradient x1="8.00004" y1="90.00002" x2="8.00004" y2="166" gradientUnits="userSpaceOnUse" id="color-21"><stop offset="0" stop-color="#cc7700"/><stop offset="1" stop-color="#995900"/></linearGradient><linearGradient x1="5.00004" y1="225.50004" x2="5.00004" y2="239.50004" gradientUnits="userSpaceOnUse" id="color-22"><stop offset="0" stop-color="#cc7700"/><stop offset="1" stop-color="#995900"/></linearGradient><linearGradient x1="220.91766" y1="27.21612" x2="220.91766" y2="93.92783" gradientUnits="userSpaceOnUse" id="color-23"><stop offset="0" stop-color="#990000"/><stop offset="1" stop-color="#660000"/></linearGradient><linearGradient x1="329.99253" y1="160.10002" x2="329.99253" y2="234.10004" gradientUnits="userSpaceOnUse" id="color-24"><stop offset="0" stop-color="#6898c9"/><stop offset="1" stop-color="#3e76ae"/></linearGradient><radialGradient cx="7.92244" cy="198.94874" r="15.5131" gradientUnits="userSpaceOnUse" id="color-25"><stop offset="0" stop-color="#fff343"/><stop offset="1" stop-color="#fff343" stop-opacity="0"/></radialGradient><radialGradient cx="32.62242" cy="198.84874" r="15.5131" gradientUnits="userSpaceOnUse" id="color-26"><stop offset="0" stop-color="#fff343"/><stop offset="1" stop-color="#fff343" stop-opacity="0"/></radialGradient><radialGradient cx="20.92244" cy="183.94874" r="15.5131" gradientUnits="userSpaceOnUse" id="color-27"><stop offset="0" stop-color="#fff343"/><stop offset="1" stop-color="#fff343" stop-opacity="0"/></radialGradient><radialGradient cx="201.37246" cy="199.19874" r="15.5131" gradientUnits="userSpaceOnUse" id="color-28"><stop offset="0" stop-color="#fff343"/><stop offset="1" stop-color="#fff343" stop-opacity="0"/></radialGradient><radialGradient cx="226.07244" cy="199.09874" r="15.5131" gradientUnits="userSpaceOnUse" id="color-29"><stop offset="0" stop-color="#fff343"/><stop offset="1" stop-color="#fff343" stop-opacity="0"/></radialGradient><radialGradient cx="214.37246" cy="184.19874" r="15.5131" gradientUnits="userSpaceOnUse" id="color-30"><stop offset="0" stop-color="#fff343"/><stop offset="1" stop-color="#fff343" stop-opacity="0"/></radialGradient><radialGradient cx="315.57241" cy="201.19874" r="15.5131" gradientUnits="userSpaceOnUse" id="color-31"><stop offset="0" stop-color="#fff343"/><stop offset="1" stop-color="#fff343" stop-opacity="0"/></radialGradient><radialGradient cx="340.27246" cy="201.09874" r="15.5131" gradientUnits="userSpaceOnUse" id="color-32"><stop offset="0" stop-color="#fff343"/><stop offset="1" stop-color="#fff343" stop-opacity="0"/></radialGradient><radialGradient cx="328.57241" cy="186.19874" r="15.5131" gradientUnits="userSpaceOnUse" id="color-33"><stop offset="0" stop-color="#fff343"/><stop offset="1" stop-color="#fff343" stop-opacity="0"/></radialGradient><radialGradient cx="450.57246" cy="204.44874" r="15.5131" gradientUnits="userSpaceOnUse" id="color-34"><stop offset="0" stop-color="#fff343"/><stop offset="1" stop-color="#fff343" stop-opacity="0"/></radialGradient><radialGradient cx="475.27246" cy="204.34874" r="15.5131" gradientUnits="userSpaceOnUse" id="color-35"><stop offset="0" stop-color="#fff343"/><stop offset="1" stop-color="#fff343" stop-opacity="0"/></radialGradient><radialGradient cx="463.57246" cy="189.44874" r="15.5131" gradientUnits="userSpaceOnUse" id="color-36"><stop offset="0" stop-color="#fff343"/><stop offset="1" stop-color="#fff343" stop-opacity="0"/></radialGradient><linearGradient x1="567.89948" y1="308.00442" x2="567.89948" y2="406.00442" gradientUnits="userSpaceOnUse" id="color-37"><stop offset="0" stop-color="#000000" stop-opacity="0"/><stop offset="1" stop-color="#000000"/></linearGradient></defs><g transform="translate(7.50751,-25.9902)"><g data-paper-data="{&quot;isPaintingLayer&quot;:true}" fill-rule="nonzero" stroke-linejoin="miter" stroke-miterlimit="10" stroke-dasharray="" stroke-dashoffset="0" style="mix-blend-mode: normal"><path d="M291.30003,233.30003l-0.3,-0.3" fill="none" stroke="#cccccc" stroke-width="2" stroke-linecap="round"/><path d="M168.30006,182.30004l-0.3,-0.3" fill="none" stroke="#cccccc" stroke-width="2" stroke-linecap="round"/><path d="M35.00002,151l0.3,0.3" fill="none" stroke="#cccccc" stroke-width="2" stroke-linecap="round"/><path d="M96.30005,141.3l-0.3,-0.3" fill="none" stroke="#cccccc" stroke-width="2" stroke-linecap="round"/><path d="M42.00005,331.00002l0.3,0.3" fill="none" stroke="#cccccc" stroke-width="2" stroke-linecap="round"/><path d="M108.00004,243.00005l0.3,0.3" fill="none" stroke="#cccccc" stroke-width="2" stroke-linecap="round"/><path d="M163.00004,308.00003l0.3,0.3" fill="none" stroke="#cccccc" stroke-width="2" stroke-linecap="round"/><path d="M233.00006,273.00004l0.3,0.3" fill="none" stroke="#cccccc" stroke-width="2" stroke-linecap="round"/><path d="M309.00003,312.00003l0.3,0.3" fill="none" stroke="#cccccc" stroke-width="2" stroke-linecap="round"/><path d="M385.30006,291.30003l-0.3,-0.3" fill="none" stroke="#cccccc" stroke-width="2" stroke-linecap="round"/><path d="M451.00004,299.00003l0.3,0.3" fill="none" stroke="#cccccc" stroke-width="2" stroke-linecap="round"/><path d="M422.30005,210.30004l-0.3,-0.3" fill="none" stroke="#cccccc" stroke-width="2" stroke-linecap="round"/><path d="M360.00005,208.00004l0.3,0.3" fill="none" stroke="#cccccc" stroke-width="2" stroke-linecap="round"/><path d="M304.30002,161.30003l-0.3,-0.3" fill="none" stroke="#cccccc" stroke-width="2" stroke-linecap="round"/><path d="M214.30004,187.30003l-0.3,-0.3" fill="none" stroke="#cccccc" stroke-width="2" stroke-linecap="round"/><path d="M90.30006,215.30003l-0.3,-0.3" fill="none" stroke="#cccccc" stroke-width="2" stroke-linecap="round"/><path d="M60.00005,249.00004l0.3,0.3" fill="none" stroke="#cccccc" stroke-width="2" stroke-linecap="round"/><path d="M167.00005,262.00005l0.3,0.3" fill="none" stroke="#cccccc" stroke-width="2" stroke-linecap="round"/><path d="M376.00004,250.00005l0.3,0.3" fill="none" stroke="#cccccc" stroke-width="2" stroke-linecap="round"/><g stroke="none" stroke-width="1" stroke-linecap="butt"><path d="M0.00004,177.00004h480v184h-480z" data-paper-data="{&quot;origPos&quot;:null}" fill="url(#color-1)"/><g data-paper-data="{&quot;origPos&quot;:null}" fill="#a79776"><g data-paper-data="{&quot;origPos&quot;:null}"><path d="M359.23306,161.41653h23.23363v16.76882h-23.23363z" data-paper-data="{&quot;origPos&quot;:null}"/><path d="M456.91643,161.31006h23.23363v16.76882h-23.23363z" data-paper-data="{&quot;origPos&quot;:null}"/><path d="M423.82766,161.15034h23.23363v16.76881h-23.23363z" data-paper-data="{&quot;origPos&quot;:null}"/><path d="M391.2495,160.99067h23.23363v16.76881h-23.23363z" data-paper-data="{&quot;origPos&quot;:null}"/></g><g data-paper-data="{&quot;origPos&quot;:null}"><path d="M228.51197,161.41653h23.23363v16.76882h-23.23363z" data-paper-data="{&quot;origPos&quot;:null}"/><path d="M326.19533,161.31006h23.23363v16.76882h-23.23363z" data-paper-data="{&quot;origPos&quot;:null}"/><path d="M293.10653,161.15034h23.23363v16.76881h-23.23363z" data-paper-data="{&quot;origPos&quot;:null}"/><path d="M260.52842,160.99067h23.23363v16.76881h-23.23363z" data-paper-data="{&quot;origPos&quot;:null}"/></g><path d="M130.47115,162.4812h23.23363v16.76881h-23.23363z" data-paper-data="{&quot;origPos&quot;:null}"/><path d="M195.06573,162.21506h23.23363v16.76881h-23.23363z" data-paper-data="{&quot;origPos&quot;:null}"/><path d="M162.48756,162.05534h23.23363v16.76882h-23.23363z" data-paper-data="{&quot;origPos&quot;:null}"/><g data-paper-data="{&quot;origPos&quot;:null}"><path d="M-0.24996,162.4812h23.23363v16.76881h-23.23363z" data-paper-data="{&quot;origPos&quot;:null}"/><path d="M97.43342,162.37473h23.23363v16.76881h-23.23363z" data-paper-data="{&quot;origPos&quot;:null}"/><path d="M64.34466,162.21506h23.23363v16.76881h-23.23363z" data-paper-data="{&quot;origPos&quot;:null}"/><path d="M31.76651,162.05534h23.23363v16.76882h-23.23363z" data-paper-data="{&quot;origPos&quot;:null}"/></g></g></g><path d="M480.00004,243.00005v0v30v0z" fill="#990000" stroke="none" stroke-width="1" stroke-linecap="butt"/><path d="M8.00004,164.01394h201.5v195h-201.5z" fill="url(#color-2)" stroke="none" stroke-width="1.06895" stroke-linecap="butt"/><path d="M222.00006,94.04442h96.5v270h-96.5z" data-paper-data="{&quot;origPos&quot;:null}" fill="url(#color-3)" stroke="none" stroke-width="1.05702" stroke-linecap="butt"/><path d="M332.00004,234.62694h127.5v128h-127.5z" data-paper-data="{&quot;origPos&quot;:null}" fill="url(#color-4)" stroke="none" stroke-width="1.12134" stroke-linecap="butt"/><g><path d="M82.00003,267.10004l10,-14l12,-10l11.5,10.5l7.5,13.5v54.5h-41z" fill="#663b00" stroke="#ffff00" stroke-width="2" stroke-linecap="round"/><path d="M112.75004,291.60004c1.035,0 1.972,0.42 2.651,1.099c0.679,0.679 1.099,1.616 1.099,2.651c0,1.035 -0.42,1.972 -1.099,2.651c-0.679,0.679 -1.616,1.099 -2.651,1.099c-1.035,0 -1.972,-0.42 -2.651,-1.099c-0.679,-0.679 -1.099,-1.616 -1.099,-2.651c0,-1.035 0.42,-1.972 1.099,-2.651c0.679,-0.679 1.616,-1.099 2.651,-1.099z" fill="#000000" stroke="none" stroke-width="1" stroke-linecap="butt"/></g><g data-paper-data="{&quot;origPos&quot;:null}"><path d="M248.00006,267.20005l10,-14l12,-10l11.5,10.5l7.5,13.5v54.5h-41z" fill="#663b00" stroke="#ffff00" stroke-width="2" stroke-linecap="round"/><path d="M278.75004,291.70005c1.035,0 1.972,0.42 2.651,1.099c0.679,0.679 1.099,1.616 1.099,2.651c0,1.035 -0.42,1.972 -1.099,2.651c-0.679,0.679 -1.616,1.099 -2.651,1.099c-1.035,0 -1.972,-0.42 -2.651,-1.099c-0.679,-0.679 -1.099,-1.616 -1.099,-2.651c0,-1.035 0.42,-1.972 1.099,-2.651c0.679,-0.679 1.616,-1.099 2.651,-1.099z" fill="#000000" stroke="none" stroke-width="1" stroke-linecap="butt"/></g><g data-paper-data="{&quot;origPos&quot;:null}"><path d="M372.50004,271.40002l10,-14l12,-10l11.5,10.5l7.5,13.5v54.5h-41z" fill="#663b00" stroke="#ffff00" stroke-width="2" stroke-linecap="round"/><path d="M403.25004,295.90002c1.035,0 1.972,0.42 2.651,1.099c0.679,0.679 1.099,1.616 1.099,2.651c0,1.035 -0.42,1.972 -1.099,2.651c-0.679,0.679 -1.616,1.099 -2.651,1.099c-1.035,0 -1.972,-0.42 -2.651,-1.099c-0.679,-0.679 -1.099,-1.616 -1.099,-2.651c0,-1.035 0.42,-1.972 1.099,-2.651c0.679,-0.679 1.616,-1.099 2.651,-1.099z" fill="#000000" stroke="none" stroke-width="1" stroke-linecap="butt"/></g><g data-paper-data="{&quot;origPos&quot;:null}" stroke="#995900" stroke-width="2"><path d="M21.20004,196.60004h19.5v19.5h-19.5z" fill="url(#color-5)" stroke-linecap="butt"/><path d="M42.20004,196.60004h19.5v19.5h-19.5z" fill="url(#color-6)" stroke-linecap="butt"/><path d="M41.95004,175.45002l8.65,1.6l5.65,3.9l3.7,6.25l1.5,7.75h-19.5z" fill="url(#color-7)" stroke-linecap="round"/><path d="M40.90004,194.95002h-19.5l1.5,-7.75l3.7,-6.25l5.65,-3.9l8.65,-1.6z" fill="url(#color-8)" stroke-linecap="round"/></g><g data-paper-data="{&quot;origPos&quot;:null}" stroke="#995900" stroke-width="2"><path d="M82.80004,197.10004h19.5v19.5h-19.5z" fill="url(#color-9)" stroke-linecap="butt"/><path d="M103.80006,197.10004h19.5v19.5h-19.5z" fill="url(#color-10)" stroke-linecap="butt"/><path d="M103.55006,175.95002l8.65,1.6l5.65,3.9l3.7,6.25l1.5,7.75h-19.5z" fill="url(#color-11)" stroke-linecap="round"/><path d="M102.50004,195.45002h-19.5l1.5,-7.75l3.7,-6.25l5.65,-3.9l8.65,-1.6z" fill="url(#color-12)" stroke-linecap="round"/></g><g data-paper-data="{&quot;origPos&quot;:null}" stroke="#995900" stroke-width="2"><path d="M148.80004,197.70002h19.5v19.5h-19.5z" fill="url(#color-13)" stroke-linecap="butt"/><path d="M169.80004,197.70002h19.5v19.5h-19.5z" fill="url(#color-14)" stroke-linecap="butt"/><path d="M169.55004,176.50004l8.65,1.6l5.65,3.9l3.7,6.25l1.5,7.75h-19.5z" fill="url(#color-15)" stroke-linecap="round"/><path d="M168.50006,196.00004h-19.5l1.5,-7.75l3.7,-6.25l5.65,-3.9l8.65,-1.6z" fill="url(#color-16)" stroke-linecap="round"/></g><g data-paper-data="{&quot;origPos&quot;:null}" stroke="#995900" stroke-width="2"><path d="M247.80004,167.60002h19.5v19.5h-19.5z" fill="url(#color-17)" stroke-linecap="butt"/><path d="M268.80002,167.60002h19.5v19.5h-19.5z" fill="url(#color-18)" stroke-linecap="butt"/><path d="M268.55002,146.40004l8.65,1.6l5.65,3.9l3.7,6.25l1.5,7.75h-19.5z" fill="url(#color-19)" stroke-linecap="round"/><path d="M267.50004,165.90004h-19.5l1.5,-7.75l3.7,-6.25l5.65,-3.9l8.65,-1.6z" fill="url(#color-20)" stroke-linecap="round"/></g><path d="M24.00004,90.00002h170.5l16,76h-202.5z" fill="url(#color-21)" stroke="#ffff00" stroke-width="2" stroke-linecap="round"/><path d="M8.00004,226.00004l202,-0.5l3,14h-208z" fill="url(#color-22)" stroke="#ffff00" stroke-width="2" stroke-linecap="round"/><path d="M268.41345,27.21612l50.3963,66.7117h-97.8921z" data-paper-data="{&quot;origPos&quot;:null}" fill="url(#color-23)" stroke="#ffff00" stroke-width="1.45025" stroke-linecap="round"/><path d="M348.30026,190.60004h21.2604l22.4416,-30.5l25.3945,30.5l21.2604,0.5l21.8511,43h-130.5157z" data-paper-data="{&quot;origPos&quot;:null}" fill="url(#color-24)" stroke="#ffff00" stroke-width="2.18865" stroke-linecap="round"/><g stroke-linecap="round"><path d="M20.25004,327.95002v-132" fill="none" stroke="#000000" stroke-width="9"/><g stroke="none"><path d="M-3.83426,196.70734l-0.4179,-0.5394l0.3622,-1.1073l0.6408,-0.2839h6.6034l2.8976,-6.672l0.6409,-0.5394l0.6408,0.0284l0.7801,0.5962l3.1206,6.5016l6.6869,-0.1135l0.6687,0.3975l0.5294,0.653l-0.5294,1.164l-3.8171,4.5142l1.1145,6.8424l0.0557,1.0788l-0.6965,0.3691l-1.226,-0.2271l-6.4083,-4.5426l-5.461,5.1104l-1.2259,0.2271l-0.8916,-0.4826l-0.3065,-1.3344l0.6409,-6.3597z" fill="url(#color-25)" stroke-width="0.56256"/><path d="M-2.53788,197.06194l-0.3743,-0.4741l0.3244,-0.9731l0.5739,-0.2496h5.9135l2.595,-5.8636l0.5739,-0.4741l0.5739,0.025l0.6986,0.524l2.7946,5.7139l5.9884,-0.0998l0.5988,0.3493l0.4741,0.5739l-0.4741,1.023l-3.4184,3.9673l0.9981,6.0133l0.0499,0.9482l-0.6238,0.3244l-1.0979,-0.1996l-5.7388,-3.9923l-4.8905,4.4913l-1.0979,0.1996l-0.7985,-0.4242l-0.2744,-1.1727l0.5739,-5.5891z" fill="#ffff99" stroke-width="0.49903"/></g><g stroke="none"><path d="M20.86574,196.60734l-0.4179,-0.5394l0.3622,-1.1073l0.6408,-0.2839h6.6034l2.8976,-6.672l0.6409,-0.5394l0.6408,0.0284l0.7801,0.5962l3.1206,6.5016l6.6869,-0.1135l0.6687,0.3975l0.5294,0.653l-0.5294,1.164l-3.8171,4.5142l1.1145,6.8424l0.0557,1.0788l-0.6965,0.3691l-1.226,-0.2271l-6.4083,-4.5426l-5.461,5.1104l-1.2259,0.2271l-0.8916,-0.4826l-0.3065,-1.3344l0.6409,-6.3597z" fill="url(#color-26)" stroke-width="0.56256"/><path d="M22.16214,196.96193l-0.3743,-0.4741l0.3244,-0.9731l0.5739,-0.2496h5.9135l2.595,-5.8636l0.5739,-0.4741l0.5739,0.025l0.6986,0.524l2.7946,5.7139l5.9884,-0.0998l0.5988,0.3493l0.4741,0.5739l-0.4741,1.023l-3.4184,3.9673l0.9981,6.0133l0.0499,0.9482l-0.6238,0.3244l-1.0979,-0.1996l-5.7388,-3.9923l-4.8905,4.4913l-1.0979,0.1996l-0.7985,-0.4242l-0.2744,-1.1727l0.5739,-5.5891z" fill="#ffff99" stroke-width="0.49903"/></g><g stroke="none"><path d="M9.16574,181.70734l-0.4179,-0.5394l0.3622,-1.1073l0.6408,-0.2839h6.6034l2.8976,-6.672l0.6409,-0.5394l0.6408,0.0284l0.7801,0.5962l3.1206,6.5016l6.6869,-0.1135l0.6687,0.3975l0.5294,0.653l-0.5294,1.164l-3.8171,4.5142l1.1145,6.8424l0.0557,1.0788l-0.6965,0.3691l-1.226,-0.2271l-6.4083,-4.5426l-5.461,5.1104l-1.2259,0.2271l-0.8916,-0.4826l-0.3065,-1.3344l0.6409,-6.3597z" fill="url(#color-27)" stroke-width="0.56256"/><path d="M10.46214,182.06194l-0.3743,-0.4741l0.3244,-0.9731l0.5739,-0.2496h5.9135l2.595,-5.8636l0.5739,-0.4741l0.5739,0.025l0.6986,0.524l2.7946,5.7139l5.9884,-0.0998l0.5988,0.3493l0.4741,0.5739l-0.4741,1.023l-3.4184,3.9673l0.9981,6.0133l0.0499,0.9482l-0.6238,0.3244l-1.0979,-0.1996l-5.7388,-3.9923l-4.8905,4.4913l-1.0979,0.1996l-0.7985,-0.4242l-0.2744,-1.1727l0.5739,-5.5891z" fill="#ffff99" stroke-width="0.49903"/></g></g><g stroke-linecap="round"><path d="M213.70004,328.20005v-132" fill="none" stroke="#000000" stroke-width="9"/><g stroke="none"><path d="M189.61576,196.95734l-0.4179,-0.5394l0.3622,-1.1073l0.6408,-0.2839h6.6034l2.8976,-6.672l0.6409,-0.5394l0.6408,0.0284l0.7801,0.5962l3.1206,6.5016l6.6869,-0.1135l0.6687,0.3975l0.5294,0.653l-0.5294,1.164l-3.8171,4.5142l1.1145,6.8424l0.0557,1.0788l-0.6965,0.3691l-1.226,-0.2271l-6.4083,-4.5426l-5.461,5.1104l-1.2259,0.2271l-0.8916,-0.4826l-0.3065,-1.3344l0.6409,-6.3597z" fill="url(#color-28)" stroke-width="0.56256"/><path d="M190.91215,197.31194l-0.3743,-0.4741l0.3244,-0.9731l0.5739,-0.2496h5.9135l2.595,-5.8636l0.5739,-0.4741l0.5739,0.025l0.6986,0.524l2.7946,5.7139l5.9884,-0.0998l0.5988,0.3493l0.4741,0.5739l-0.4741,1.023l-3.4184,3.9673l0.9981,6.0133l0.0499,0.9482l-0.6238,0.3244l-1.0979,-0.1996l-5.7388,-3.9923l-4.8905,4.4913l-1.0979,0.1996l-0.7985,-0.4242l-0.2744,-1.1727l0.5739,-5.5891z" fill="#ffff99" stroke-width="0.49903"/></g><g stroke="none"><path d="M214.31576,196.85734l-0.4179,-0.5394l0.3622,-1.1073l0.6408,-0.2839h6.6034l2.8976,-6.672l0.6409,-0.5394l0.6408,0.0284l0.7801,0.5962l3.1206,6.5016l6.6869,-0.1135l0.6687,0.3975l0.5294,0.653l-0.5294,1.164l-3.8171,4.5142l1.1145,6.8424l0.0557,1.0788l-0.6965,0.3691l-1.226,-0.2271l-6.4083,-4.5426l-5.461,5.1104l-1.2259,0.2271l-0.8916,-0.4826l-0.3065,-1.3344l0.6409,-6.3597z" fill="url(#color-29)" stroke-width="0.56256"/><path d="M215.61216,197.21193l-0.3743,-0.4741l0.3244,-0.9731l0.5739,-0.2496h5.9135l2.595,-5.8636l0.5739,-0.4741l0.5739,0.025l0.6986,0.524l2.7946,5.7139l5.9884,-0.0998l0.5988,0.3493l0.4741,0.5739l-0.4741,1.023l-3.4184,3.9673l0.9981,6.0133l0.0499,0.9482l-0.6238,0.3244l-1.0979,-0.1996l-5.7388,-3.9923l-4.8905,4.4913l-1.0979,0.1996l-0.7985,-0.4242l-0.2744,-1.1727l0.5739,-5.5891z" fill="#ffff99" stroke-width="0.49903"/></g><g stroke="none"><path d="M202.61576,181.95734l-0.4179,-0.5394l0.3622,-1.1073l0.6408,-0.2839h6.6034l2.8976,-6.672l0.6409,-0.5394l0.6408,0.0284l0.7801,0.5962l3.1206,6.5016l6.6869,-0.1135l0.6687,0.3975l0.5294,0.653l-0.5294,1.164l-3.8171,4.5142l1.1145,6.8424l0.0557,1.0788l-0.6965,0.3691l-1.226,-0.2271l-6.4083,-4.5426l-5.461,5.1104l-1.2259,0.2271l-0.8916,-0.4826l-0.3065,-1.3344l0.6409,-6.3597z" fill="url(#color-30)" stroke-width="0.56256"/><path d="M203.91215,182.31194l-0.3743,-0.4741l0.3244,-0.9731l0.5739,-0.2496h5.9135l2.595,-5.8636l0.5739,-0.4741l0.5739,0.025l0.6986,0.524l2.7946,5.7139l5.9884,-0.0998l0.5988,0.3493l0.4741,0.5739l-0.4741,1.023l-3.4184,3.9673l0.9981,6.0133l0.0499,0.9482l-0.6238,0.3244l-1.0979,-0.1996l-5.7388,-3.9923l-4.8905,4.4913l-1.0979,0.1996l-0.7985,-0.4242l-0.2744,-1.1727l0.5739,-5.5891z" fill="#ffff99" stroke-width="0.49903"/></g></g><g stroke-linecap="round"><path d="M327.90004,330.20002v-132" fill="none" stroke="#000000" stroke-width="9"/><g stroke="none"><path d="M303.81575,198.95734l-0.4179,-0.5394l0.3622,-1.1073l0.6408,-0.2839h6.6034l2.8976,-6.672l0.6409,-0.5394l0.6408,0.0284l0.7801,0.5962l3.1206,6.5016l6.6869,-0.1135l0.6687,0.3975l0.5294,0.653l-0.5294,1.164l-3.8171,4.5142l1.1145,6.8424l0.0557,1.0788l-0.6965,0.3691l-1.226,-0.2271l-6.4083,-4.5426l-5.461,5.1104l-1.2259,0.2271l-0.8916,-0.4826l-0.3065,-1.3344l0.6409,-6.3597z" fill="url(#color-31)" stroke-width="0.56256"/><path d="M305.11213,199.31194l-0.3743,-0.4741l0.3244,-0.9731l0.5739,-0.2496h5.9135l2.595,-5.8636l0.5739,-0.4741l0.5739,0.025l0.6986,0.524l2.7946,5.7139l5.9884,-0.0998l0.5988,0.3493l0.4741,0.5739l-0.4741,1.023l-3.4184,3.9673l0.9981,6.0133l0.0499,0.9482l-0.6238,0.3244l-1.0979,-0.1996l-5.7388,-3.9923l-4.8905,4.4913l-1.0979,0.1996l-0.7985,-0.4242l-0.2744,-1.1727l0.5739,-5.5891z" fill="#ffff99" stroke-width="0.49903"/></g><g stroke="none"><path d="M328.51572,198.85734l-0.4179,-0.5394l0.3622,-1.1073l0.6408,-0.2839h6.6034l2.8976,-6.672l0.6409,-0.5394l0.6408,0.0284l0.7801,0.5962l3.1206,6.5016l6.6869,-0.1135l0.6687,0.3975l0.5294,0.653l-0.5294,1.164l-3.8171,4.5142l1.1145,6.8424l0.0557,1.0788l-0.6965,0.3691l-1.226,-0.2271l-6.4083,-4.5426l-5.461,5.1104l-1.2259,0.2271l-0.8916,-0.4826l-0.3065,-1.3344l0.6409,-6.3597z" fill="url(#color-32)" stroke-width="0.56256"/><path d="M329.81213,199.21193l-0.3743,-0.4741l0.3244,-0.9731l0.5739,-0.2496h5.9135l2.595,-5.8636l0.5739,-0.4741l0.5739,0.025l0.6986,0.524l2.7946,5.7139l5.9884,-0.0998l0.5988,0.3493l0.4741,0.5739l-0.4741,1.023l-3.4184,3.9673l0.9981,6.0133l0.0499,0.9482l-0.6238,0.3244l-1.0979,-0.1996l-5.7388,-3.9923l-4.8905,4.4913l-1.0979,0.1996l-0.7985,-0.4242l-0.2744,-1.1727l0.5739,-5.5891z" fill="#ffff99" stroke-width="0.49903"/></g><g stroke="none"><path d="M316.81575,183.95734l-0.4179,-0.5394l0.3622,-1.1073l0.6408,-0.2839h6.6034l2.8976,-6.672l0.6409,-0.5394l0.6408,0.0284l0.7801,0.5962l3.1206,6.5016l6.6869,-0.1135l0.6687,0.3975l0.5294,0.653l-0.5294,1.164l-3.8171,4.5142l1.1145,6.8424l0.0557,1.0788l-0.6965,0.3691l-1.226,-0.2271l-6.4083,-4.5426l-5.461,5.1104l-1.2259,0.2271l-0.8916,-0.4826l-0.3065,-1.3344l0.6409,-6.3597z" fill="url(#color-33)" stroke-width="0.56256"/><path d="M318.11213,184.31194l-0.3743,-0.4741l0.3244,-0.9731l0.5739,-0.2496h5.9135l2.595,-5.8636l0.5739,-0.4741l0.5739,0.025l0.6986,0.524l2.7946,5.7139l5.9884,-0.0998l0.5988,0.3493l0.4741,0.5739l-0.4741,1.023l-3.4184,3.9673l0.9981,6.0133l0.0499,0.9482l-0.6238,0.3244l-1.0979,-0.1996l-5.7388,-3.9923l-4.8905,4.4913l-1.0979,0.1996l-0.7985,-0.4242l-0.2744,-1.1727l0.5739,-5.5891z" fill="#ffff99" stroke-width="0.49903"/></g></g><g stroke-linecap="round"><path d="M462.90006,333.45004v-132" fill="none" stroke="#000000" stroke-width="9"/><g stroke="none"><path d="M438.81576,202.20734l-0.4179,-0.5394l0.3622,-1.1073l0.6408,-0.2839h6.6034l2.8976,-6.672l0.6409,-0.5394l0.6408,0.0284l0.7801,0.5962l3.1206,6.5016l6.6869,-0.1135l0.6687,0.3975l0.5294,0.653l-0.5294,1.164l-3.8171,4.5142l1.1145,6.8424l0.0557,1.0788l-0.6965,0.3691l-1.226,-0.2271l-6.4083,-4.5426l-5.461,5.1104l-1.2259,0.2271l-0.8916,-0.4826l-0.3065,-1.3344l0.6409,-6.3597z" fill="url(#color-34)" stroke-width="0.56256"/><path d="M440.11214,202.56194l-0.3743,-0.4741l0.3244,-0.9731l0.5739,-0.2496h5.9135l2.595,-5.8636l0.5739,-0.4741l0.5739,0.025l0.6986,0.524l2.7946,5.7139l5.9884,-0.0998l0.5988,0.3493l0.4741,0.5739l-0.4741,1.023l-3.4184,3.9673l0.9981,6.0133l0.0499,0.9482l-0.6238,0.3244l-1.0979,-0.1996l-5.7388,-3.9923l-4.8905,4.4913l-1.0979,0.1996l-0.7985,-0.4242l-0.2744,-1.1727l0.5739,-5.5891z" fill="#ffff99" stroke-width="0.49903"/></g><g stroke="none"><path d="M463.51576,202.10734l-0.4179,-0.5394l0.3622,-1.1073l0.6408,-0.2839h6.6034l2.8976,-6.672l0.6409,-0.5394l0.6408,0.0284l0.7801,0.5962l3.1206,6.5016l6.6869,-0.1135l0.6687,0.3975l0.5294,0.653l-0.5294,1.164l-3.8171,4.5142l1.1145,6.8424l0.0557,1.0788l-0.6965,0.3691l-1.226,-0.2271l-6.4083,-4.5426l-5.461,5.1104l-1.2259,0.2271l-0.8916,-0.4826l-0.3065,-1.3344l0.6409,-6.3597z" fill="url(#color-35)" stroke-width="0.56256"/><path d="M464.81215,202.46193l-0.3743,-0.4741l0.3244,-0.9731l0.5739,-0.2496h5.9135l2.595,-5.8636l0.5739,-0.4741l0.5739,0.025l0.6986,0.524l2.7946,5.7139l5.9884,-0.0998l0.5988,0.3493l0.4741,0.5739l-0.4741,1.023l-3.4184,3.9673l0.9981,6.0133l0.0499,0.9482l-0.6238,0.3244l-1.0979,-0.1996l-5.7388,-3.9923l-4.8905,4.4913l-1.0979,0.1996l-0.7985,-0.4242l-0.2744,-1.1727l0.5739,-5.5891z" fill="#ffff99" stroke-width="0.49903"/></g><g stroke="none"><path d="M451.81576,187.20734l-0.4179,-0.5394l0.3622,-1.1073l0.6408,-0.2839h6.6034l2.8976,-6.672l0.6409,-0.5394l0.6408,0.0284l0.7801,0.5962l3.1206,6.5016l6.6869,-0.1135l0.6687,0.3975l0.5294,0.653l-0.5294,1.164l-3.8171,4.5142l1.1145,6.8424l0.0557,1.0788l-0.6965,0.3691l-1.226,-0.2271l-6.4083,-4.5426l-5.461,5.1104l-1.2259,0.2271l-0.8916,-0.4826l-0.3065,-1.3344l0.6409,-6.3597z" fill="url(#color-36)" stroke-width="0.56256"/><path d="M453.11214,187.56194l-0.3743,-0.4741l0.3244,-0.9731l0.5739,-0.2496h5.9135l2.595,-5.8636l0.5739,-0.4741l0.5739,0.025l0.6986,0.524l2.7946,5.7139l5.9884,-0.0998l0.5988,0.3493l0.4741,0.5739l-0.4741,1.023l-3.4184,3.9673l0.9981,6.0133l0.0499,0.9482l-0.6238,0.3244l-1.0979,-0.1996l-5.7388,-3.9923l-4.8905,4.4913l-1.0979,0.1996l-0.7985,-0.4242l-0.2744,-1.1727l0.5739,-5.5891z" fill="#ffff99" stroke-width="0.49903"/></g></g><path d="M486.00601,366.96999l-493.51352,1.49689c0,-20.15415 0,-40.3083 0,-60.46246h490.88069c0.19361,6.68646 2.63283,58.96557 2.63283,58.96557z" data-paper-data="{&quot;origPos&quot;:null,&quot;index&quot;:null}" fill="url(#color-37)" stroke="none" stroke-width="1.22826" stroke-linecap="butt"/></g></g></svg>