<svg version="1.1" xmlns="http://www.w3.org/2000/svg" xmlns:xlink="http://www.w3.org/1999/xlink" width="85.40517" height="27.6277" viewBox="0,0,85.40517,27.6277"><g transform="translate(-197.29742,-166.35405)"><g data-paper-data="{&quot;isPaintingLayer&quot;:true}" fill="#ffffff" fill-rule="nonzero" stroke-linecap="butt" stroke-linejoin="miter" stroke-miterlimit="10" stroke-dasharray="" stroke-dashoffset="0" style="mix-blend-mode: normal"><g stroke="#224a8c" stroke-width="5"><path d="M221.66064,169.96865c0.20577,0.14861 -0.601,20.60538 -0.89167,20.74862c-0.70979,0.34979 -3.98896,0.26532 -6.17315,0.44583c-0.14861,-0.44583 -0.22292,-1.41754 -0.22292,-2.9151v-2.46926l-0.12004,-0.66876c0,-0.08002 0.04002,-0.12004 0.12004,-0.12004l-0.12004,-0.77164v-2.02342c-2.00055,0 -3.97825,0.07431 -5.93308,0.22292l0.44584,7.63069c-0.58302,0.14861 -2.60072,0.52014 -6.05311,1.11459c-0.17148,0 -0.73163,-4.25832 -1.68047,-12.77497c-0.08002,-0.19434 -0.69304,-3.27657 -1.23462,-9.31115c-0.02186,-0.24359 6.00738,0.12004 7.63069,0.12004c0.17148,0 0.35438,2.68646 0.54873,8.05938h6.17314v-1.11459c0,-0.27436 -0.04002,-0.6116 -0.12004,-1.01171c0,-0.06859 0.04002,-0.10288 0.12004,-0.10288l-0.12004,-0.56587v-2.57214c0,-0.64018 -0.22585,-1.65565 -0.10288,-3.03513c0.06147,-0.68959 7.52781,0.96598 7.73358,1.11459z"/><path d="M236.20182,175.76454c2.67503,2.29778 4.01254,3.52669 4.01254,3.68674c-1.08601,3.39523 -1.70333,5.45866 -1.85195,6.19029c1.08601,2.4121 1.70333,3.85249 1.85195,4.3212c0,0.13718 -1.77192,0.503 -5.31576,1.09745c-0.04573,-0.19434 -0.37153,-0.62875 -0.97741,-1.30322c-4.89278,0.9374 -7.5278,1.40611 -7.90505,1.40611l-2.60644,-7.04767l5.74445,-3.03513c0.92597,0.14861 2.37208,0.22292 4.33834,0.22292c0,-0.2515 0.03429,-1.01171 0.10288,-2.28063c-0.33152,0 -3.29234,0.2172 -8.88246,0.65161l-0.10288,-0.22292c0.77736,-3.61243 1.24606,-5.41864 1.40611,-5.41864c0.16005,0 10.18568,1.51469 10.18568,1.73189zM229.58284,184.11543c0,0.12575 0.36582,1.46327 1.09745,4.01254h0.10288c1.4404,-0.9374 2.1606,-1.55472 2.1606,-1.85195l0.22292,-1.83479c-0.27436,0 -1.46898,-0.1086 -3.58385,-0.32581z"/><path d="M254.15536,174.03263c2.26349,1.26892 3.65244,2.09201 4.16687,2.46926c-1.85194,3.8525 -2.8465,5.81304 -2.98368,5.88163h-0.12004l-2.45211,-2.14345l-2.89795,3.53241l0.32581,6.43036c-0.14861,0.13718 -2.04056,0.45727 -5.67586,0.96026c-0.13718,-0.98313 -1.02886,-5.80161 -2.67503,-14.45544c0,-0.13718 2.38923,-0.49157 7.1677,-1.06315c0.08002,0.09145 0.29723,1.16032 0.65161,3.2066c2.85794,-3.21232 4.35549,-4.81848 4.49267,-4.81848z"/><path d="M277.92195,169.84862l2.28064,20.18274c0,0.14861 -2.28064,0.52586 -6.8419,1.13174l-0.10288,-0.22292v-1.8348c-3.93252,1.06315 -6.63041,1.74906 -8.09367,2.05771c-3.47525,-4.91565 -5.29861,-7.53352 -5.47009,-7.85361c2.56071,-4.65272 3.9268,-7.00766 4.09828,-7.06482l7.18485,0.34295c-0.14861,-0.88024 -0.6626,-3.44654 -0.90882,-7.75072c-0.03273,-0.57219 7.85359,0.77166 7.85359,1.01173zM266.87889,181.13175c1.1546,3.53241 1.8748,5.47009 2.1606,5.81304l3.41237,-2.96654c-0.35438,-2.04628 -0.61731,-3.06942 -0.78879,-3.06942h-4.56126c-0.14861,0.02286 -0.22292,0.09717 -0.22292,0.22292z"/></g><g stroke="none" stroke-width="0.26458"><path d="M213.92707,168.85406c4.94994,0.59445 7.5278,0.96598 7.73357,1.11459v0.12004l-0.89167,20.62858c0,0 -3.40666,0.2172 -6.17315,0.44583c-0.14861,-0.44583 -0.34296,-8.96822 -0.34296,-8.96822c-2.00055,0 -3.97825,0.07431 -5.93308,0.22292l0.44584,7.63069c-0.58302,0.14861 -2.60072,0.52014 -6.05311,1.11459c-0.17148,0 -0.73163,-4.25832 -1.68047,-12.77497c-0.08002,-0.19434 -0.49157,-3.29805 -1.23462,-9.31115c3.46382,0.08002 6.00738,0.12004 7.63069,0.12004c0.17148,0 0.35438,2.68646 0.54873,8.05938h6.17314c0,0 -0.15433,-7.01907 -0.22292,-8.40232z"/><path d="M226.01615,174.03263c6.79045,0.9374 10.18568,1.51471 10.18568,1.73191c2.67503,2.29778 4.01254,3.52669 4.01254,3.68674c-1.08601,3.39523 -1.70333,5.45866 -1.85195,6.19029c1.08601,2.4121 1.70333,3.85249 1.85195,4.3212c0,0.13718 -1.77192,0.503 -5.31576,1.09745c-0.04573,-0.19434 -0.37153,-0.62875 -0.97741,-1.30322c-4.89278,0.9374 -7.5278,1.40611 -7.90505,1.40611l-2.60644,-7.04767l5.74445,-3.03513c0.92597,0.14861 2.37208,0.22292 4.33834,0.22292c0,-0.2515 0.03429,-1.01171 0.10288,-2.28063c-0.33152,0 -3.29234,0.2172 -8.88246,0.65161l-0.10288,-0.22292c0.77736,-3.61243 1.24606,-5.41864 1.40611,-5.41864zM229.58285,184.11543c0,0.12575 0.36582,1.46327 1.09745,4.01254h0.10288c1.4404,-0.9374 2.1606,-1.55472 2.1606,-1.85195l0.22292,-1.83479c-0.27436,0 -1.46898,-0.1086 -3.58385,-0.32581z"/><path d="M254.15538,174.03263c2.26349,1.26892 3.65244,2.09201 4.16687,2.46926c-1.85194,3.8525 -2.8465,5.81304 -2.98368,5.88163h-0.12004l-2.45211,-2.14345l-2.89795,3.53241l0.32581,6.43036c-0.14861,0.13718 -2.04056,0.45727 -5.67586,0.96026c-0.13718,-0.98313 -1.02886,-5.80161 -2.67503,-14.45544c0,-0.13718 2.38923,-0.49157 7.1677,-1.06315c0.08002,0.09145 0.29723,1.16032 0.65161,3.2066c2.85794,-3.21232 4.35549,-4.81848 4.49267,-4.81848z"/><path d="M270.06836,168.83691h0.10288c5.16715,0.43441 7.75072,0.77164 7.75072,1.01171l2.28064,20.18274c0,0.14861 -2.28064,0.52586 -6.8419,1.13174l-0.10288,-0.22292v-1.8348c-3.93252,1.06315 -6.63041,1.74906 -8.09367,2.05771c-3.47525,-4.91565 -5.29861,-7.53352 -5.47009,-7.85361c2.56071,-4.65272 3.9268,-7.00766 4.09828,-7.06482l7.18485,0.34295c-0.14861,-0.88024 -0.45155,-3.46382 -0.90882,-7.75072zM266.8789,181.13175c1.1546,3.53241 1.8748,5.47009 2.1606,5.81304l3.41237,-2.96654c-0.35438,-2.04628 -0.61731,-3.06942 -0.78879,-3.06942h-4.56126c-0.14861,0.02286 -0.22292,0.09717 -0.22292,0.22292z"/></g></g></g></svg>