<svg version="1.1" xmlns="http://www.w3.org/2000/svg" xmlns:xlink="http://www.w3.org/1999/xlink" width="423.23592" height="102.90287" viewBox="0,0,423.23592,102.90287"><defs><linearGradient x1="196.83521" y1="-1263.56504" x2="196.83521" y2="4250.87578" gradientUnits="userSpaceOnUse" id="color-1"><stop offset="0" stop-color="#519dff"/><stop offset="1" stop-color="#519dff" stop-opacity="0"/></linearGradient></defs><g transform="translate(-38.11602,-249.44637)"><g data-paper-data="{&quot;isPaintingLayer&quot;:true}" fill="url(#color-1)" fill-rule="nonzero" stroke="#3e7ac6" stroke-width="2" stroke-linecap="butt" stroke-linejoin="miter" stroke-miterlimit="10" stroke-dasharray="" stroke-dashoffset="0" style="mix-blend-mode: normal"><path d="M39.12013,252.88795c0,0 12.12422,-2.77633 19.88435,-2.78662c18.25525,-0.02421 28.61532,1.09667 46.77631,2.7982c16.31384,4.73306 36.63157,10.68993 74.22859,10.49786c37.02505,1.64639 29.07688,-10.08431 86.01678,-12.95121c51.2552,-1.01984 54.68268,14.86416 74.96827,14.9026c37.8171,0.07166 53.05017,-7.05948 71.04278,-10.58931c22.99754,-3.01315 48.31363,-3.23617 48.31363,-3.23617l-0.10787,99.39339c0,0 -417.37138,-0.08262 -420.61617,0.30625z" data-paper-data="{&quot;origPos&quot;:null}"/></g></g></svg>