<svg version="1.1" xmlns="http://www.w3.org/2000/svg" xmlns:xlink="http://www.w3.org/1999/xlink" width="536" height="422.125" viewBox="0,0,536,422.125"><defs><linearGradient x1="-6.875" y1="-12.625" x2="-6.875" y2="133.625" gradientUnits="userSpaceOnUse" id="color-1"><stop offset="0" stop-color="#454545"/><stop offset="1" stop-color="#2c2c2c"/></linearGradient><linearGradient x1="194.625" y1="32.375" x2="194.625" y2="264.625" gradientUnits="userSpaceOnUse" id="color-2"><stop offset="0" stop-color="#454545"/><stop offset="1" stop-color="#2c2c2c"/></linearGradient><linearGradient x1="404.125" y1="320.375" x2="404.125" y2="346.625" gradientUnits="userSpaceOnUse" id="color-3"><stop offset="0" stop-color="#d8d8d8"/><stop offset="1" stop-color="#bcbcbc"/></linearGradient><linearGradient x1="51.625" y1="323.375" x2="51.625" y2="349.625" gradientUnits="userSpaceOnUse" id="color-4"><stop offset="0" stop-color="#454545"/><stop offset="1" stop-color="#2c2c2c"/></linearGradient><linearGradient x1="166" y1="253" x2="166" y2="406" gradientUnits="userSpaceOnUse" id="color-5"><stop offset="0" stop-color="#93aa61"/><stop offset="1" stop-color="#b8cf85"/></linearGradient><linearGradient x1="253.5" y1="257" x2="253.5" y2="279" gradientUnits="userSpaceOnUse" id="color-6"><stop offset="0" stop-color="#ff5a00"/><stop offset="1" stop-color="#ff0000"/></linearGradient><linearGradient x1="437" y1="137" x2="437" y2="228" gradientUnits="userSpaceOnUse" id="color-7"><stop offset="0" stop-color="#93aa61"/><stop offset="1" stop-color="#b8cf85"/></linearGradient></defs><g transform="translate(37,14.125)"><g data-paper-data="{&quot;isPaintingLayer&quot;:true}" fill-rule="nonzero" stroke-linejoin="miter" stroke-miterlimit="10" stroke-dasharray="" stroke-dashoffset="0" style="mix-blend-mode: normal"><path d="M-35.5,60.5c0,-73.125 1.85877,-73.125 1.85877,-73.125c6.81548,0 14.37445,0 21.18993,0c10.78084,0 21.56169,0 32.34253,0c0,0 1.85877,0 1.85877,73.125c0,73.125 -1.85877,73.125 -1.85877,73.125c-10.78084,0 -21.56169,0 -32.34253,0c-6.81548,0 -13.63095,0 -20.44643,0h-0.7435c0,0 -1.85877,0 -1.85877,-73.125z" data-paper-data="{&quot;origPos&quot;:null}" fill="url(#color-1)" stroke="#1f1f1f" stroke-width="3" stroke-linecap="butt"/><path d="M159.5,148.5c0,-116.125 2.28084,-116.125 2.28084,-116.125c8.3631,0 17.63852,0 26.00162,0c13.22889,0 26.45779,0 39.68668,0c0,0 2.28084,0 2.28084,116.125c0,116.125 -2.28084,116.125 -2.28084,116.125c-13.22889,0 -26.45779,0 -39.68668,0c-8.3631,0 -16.72618,0 -25.08929,0h-0.91234c0,0 -2.28084,0 -2.28084,-116.125z" data-paper-data="{&quot;origPos&quot;:null}" fill="url(#color-2)" stroke="#1f1f1f" stroke-width="3" stroke-linecap="butt"/><path d="M323.5,333.5c0,-13.125 5.23539,-13.125 5.23539,-13.125c19.19644,0 40.487,0 59.68344,0c30.36525,0 60.73052,0 91.09578,0c0,0 5.23539,0 5.23539,13.125c0,13.125 -5.23539,13.125 -5.23539,13.125c-30.36525,0 -60.73052,0 -91.09578,0c-19.19644,0 -38.39286,0 -57.58929,0h-2.09415c0,0 -5.23539,0 -5.23539,-13.125z" data-paper-data="{&quot;origPos&quot;:null}" fill="url(#color-3)" stroke="#8f8f8f" stroke-width="3" stroke-linecap="butt"/><path d="M-26.5,336.5c0,-13.125 5.07305,-13.125 5.07305,-13.125c18.6012,0 39.23159,0 57.83279,0c29.4237,0 58.8474,0 88.2711,0c0,0 5.07306,0 5.07306,13.125c0,13.125 -5.07306,13.125 -5.07306,13.125c-29.4237,0 -58.8474,0 -88.2711,0c-18.6012,0 -37.20237,0 -55.80357,0h-2.02922c0,0 -5.07305,0 -5.07305,-13.125z" data-paper-data="{&quot;origPos&quot;:null}" fill="url(#color-4)" stroke="#1f1f1f" stroke-width="3" stroke-linecap="butt"/><path d="M62,406v-153h208v153z" data-paper-data="{&quot;origPos&quot;:null}" fill="url(#color-5)" stroke="none" stroke-width="NaN" stroke-linecap="butt"/><path d="M66,408v-125h200v125z" data-paper-data="{&quot;origPos&quot;:null}" fill="#ffffff" stroke="none" stroke-width="0" stroke-linecap="butt"/><g stroke="#ffffff"><path d="M242,279v-22h23v22z" data-paper-data="{&quot;origPos&quot;:null}" fill="url(#color-6)" stroke-width="1" stroke-linecap="butt"/><path d="M259.5,262.5l-12,11.5" data-paper-data="{&quot;origPos&quot;:null}" fill="none" stroke-width="1.5" stroke-linecap="round"/><path d="M260,274l-12,-11.5" data-paper-data="{&quot;origPos&quot;:null,&quot;index&quot;:null}" fill="none" stroke-width="1.5" stroke-linecap="round"/></g><text transform="translate(72,304) scale(0.5,0.5)" font-size="40" xml:space="preserve" data-paper-data="{&quot;origPos&quot;:null}" fill="#000000" fill-rule="nonzero" stroke="none" stroke-width="1" stroke-linecap="butt" stroke-linejoin="miter" stroke-miterlimit="10" stroke-dasharray="" stroke-dashoffset="0" font-family="Sans Serif" font-weight="normal" text-anchor="start" style="mix-blend-mode: normal"><tspan x="0" dy="0">You can stand here.</tspan><tspan x="0" dy="46.150000000000006px"> </tspan><tspan x="0" dy="46.150000000000006px">                     Unless...</tspan></text><g stroke="none" stroke-linecap="butt"><path d="M375,228v-91h124v91z" data-paper-data="{&quot;origPos&quot;:null}" fill="url(#color-7)" stroke-width="NaN"/><path d="M381.15385,223v-51h109.84615v51z" data-paper-data="{&quot;origPos&quot;:null}" fill="#ffffff" stroke-width="0"/><text transform="translate(380,162) scale(0.5,0.5)" font-size="40" xml:space="preserve" data-paper-data="{&quot;origPos&quot;:null}" fill="#ffffff" fill-rule="nonzero" stroke="none" stroke-width="1" stroke-linecap="butt" stroke-linejoin="miter" stroke-miterlimit="10" stroke-dasharray="" stroke-dashoffset="0" font-family="Sans Serif" font-weight="normal" text-anchor="start" style="mix-blend-mode: normal"><tspan x="0" dy="0">Smol</tspan></text><text transform="translate(393,204) scale(0.5,0.5)" font-size="40" xml:space="preserve" data-paper-data="{&quot;origPos&quot;:null}" fill="#000000" fill-rule="nonzero" stroke="none" stroke-width="1" stroke-linecap="butt" stroke-linejoin="miter" stroke-miterlimit="10" stroke-dasharray="" stroke-dashoffset="0" font-family="Sans Serif" font-weight="normal" text-anchor="start" style="mix-blend-mode: normal"><tspan x="0" dy="0">Platform</tspan></text></g><text transform="translate(67,276.64607) scale(0.47212,0.49017)" font-size="40" xml:space="preserve" data-paper-data="{&quot;origPos&quot;:null}" fill="#ffffff" fill-rule="nonzero" stroke="none" stroke-width="1" stroke-linecap="butt" stroke-linejoin="miter" stroke-miterlimit="10" stroke-dasharray="" stroke-dashoffset="0" font-family="Sans Serif" font-weight="normal" text-anchor="start" style="mix-blend-mode: normal"><tspan x="0" dy="0">Windows Platform</tspan></text></g></g></svg>