<svg version="1.1" xmlns="http://www.w3.org/2000/svg" xmlns:xlink="http://www.w3.org/1999/xlink" width="146.95279" height="56.0085" viewBox="0,0,146.95279,56.0085"><g transform="translate(-116.02255,-147.90598)"><g data-paper-data="{&quot;isPaintingLayer&quot;:true}" fill-rule="nonzero" stroke-linejoin="miter" stroke-miterlimit="10" stroke-dasharray="" stroke-dashoffset="0" style="mix-blend-mode: normal"><path d="M237.15593,177.73324h5.65882l-1.33333,25.50316h-2.99215z" fill="#24c060" stroke="none" stroke-width="0.97987" stroke-linecap="butt"/><g stroke="none" stroke-width="0" stroke-linecap="butt"><path d="M262.68982,157.80295c0,0 0.00993,30.74436 -22.26492,30.79234c-21.75797,0.04688 -23.11472,-31.29032 -23.11472,-31.29032l11.56199,3.61109l11.04285,-10.00194l10.42099,9.84775z" fill="#35b2ff"/><path d="M240.33056,185.44138c-15.73696,-0.13545 -18.83199,-20.73276 -18.83199,-20.73276l8.61703,2.837l9.64833,-7.83372l10.20333,8.50539l9.55395,-3.51599c0,0 -3.3915,20.54281 -19.19065,20.74007z" fill="#85e0ff"/><path d="M240.23066,183.31042c-9.71461,-0.21477 -13.25825,-10.76229 -13.25825,-10.76229l5.5688,2.3599l7.29518,-5.59533l8.29915,5.64429l5.91184,-2.41298c0,0 -3.90437,10.51674 -13.81671,10.76642z" fill="#d0f8ff"/></g><g stroke="none" stroke-width="0" stroke-linecap="butt"><path d="M245.18411,169.1256c1.68411,0 2.23788,1.68218 2.23788,5.63328c0,3.8111 -0.70315,5.63328 -2.23788,5.63328c-1.53472,0 -2.23788,-1.96218 -2.23788,-5.63329c0,-3.95109 0.55378,-5.63328 2.23788,-5.63328z" fill="#000000"/><path d="M244.16513,171.73905c0,-1.29342 0.44115,-1.57031 0.98531,-1.57031c0.54416,0 1.01175,0.30117 0.98529,1.59433c-0.02401,1.17337 -0.17822,1.66044 -0.98529,1.66044c-0.85512,0 -0.98531,-0.58313 -0.98531,-1.68444z" fill="#ffffff"/></g><g stroke="none" stroke-width="0" stroke-linecap="butt"><path d="M234.81591,169.15493c1.68411,0 2.23786,1.68219 2.23786,5.63328c0,3.8111 -0.70314,5.63328 -2.23786,5.63328c-1.53472,0 -2.23788,-1.96217 -2.23788,-5.63328c0,-3.95109 0.55377,-5.63329 2.23788,-5.63329z" fill="#000000"/><path d="M233.96479,171.76838c0,-1.29341 0.44115,-1.57031 0.98531,-1.57031c0.54416,0 1.01175,0.30116 0.98529,1.59432c-0.02401,1.17337 -0.17822,1.66044 -0.98529,1.66044c-0.8551,0 -0.98531,-0.58313 -0.98531,-1.68444z" fill="#ffffff"/></g><g data-paper-data="{&quot;index&quot;:null}"><path d="M239.79948,203.17799l10.20382,-11.59437l12.97204,0.9721l-9.55059,10.88879z" fill="#24c060" stroke="none" stroke-width="0" stroke-linecap="butt"/><path d="M240.57761,202.56623l11.19675,-7.47552l9.96972,-2.07273" fill="none" stroke="#1a8752" stroke-width="1.5" stroke-linecap="round"/></g><g><path d="M240.20053,203.34796l-12.22527,0.56652l-10.95059,-11.18879l12.97204,-0.9721z" fill="#24c060" stroke="none" stroke-width="0" stroke-linecap="butt"/><path d="M218.55594,193.18794l9.66972,2.07273l11.39675,7.47553" fill="none" stroke="#1a8752" stroke-width="1.5" stroke-linecap="round"/></g><g data-paper-data="{&quot;index&quot;:null}"><path d="M138.82193,200.12273c0,0 3.80809,-8.67045 10.21482,-11.60687c6.40674,-2.93642 12.98604,0.97315 12.98604,0.97315c0,0 -4.55567,8.26443 -10.96241,11.20085c-6.40673,2.93642 -12.23844,-0.56712 -12.23844,-0.56712z" fill="#61b120" stroke="none" stroke-width="0" stroke-linecap="butt"/><path d="M142.6041,198.10881c0,0 3.36944,-4.10992 8.20559,-6.08205c4.22499,-1.72293 7.27754,-1.57441 7.27754,-1.57441" fill="none" stroke="#448618" stroke-width="1.5" stroke-linecap="round"/></g><path d="M136.62045,174.65057h4.77505v25.53065h-4.77505z" fill="#61b120" stroke="none" stroke-width="0.97987" stroke-linecap="butt"/><g><path d="M139.22341,200.29287c0,0 -5.83171,3.50354 -12.23844,0.56712c-6.40673,-2.93642 -10.96242,-11.20086 -10.96242,-11.20086c0,0 6.57932,-3.90957 12.98606,-0.97315c6.40673,2.93642 10.21481,11.60687 10.21481,11.60687z" fill="#61b120" stroke="none" stroke-width="0" stroke-linecap="butt"/><path d="M119.95804,190.62245c0,0 3.05255,-0.1485 7.27754,1.57444c4.83614,1.97217 8.20562,6.08209 8.20562,6.08209" fill="none" stroke="#448618" stroke-width="1.5" stroke-linecap="round"/></g><g stroke="none" stroke-width="0" stroke-linecap="butt"><path d="M161.73695,154.78516c0,0 0.00997,30.70113 -22.28892,30.74902c-21.78144,0.04681 -23.13964,-31.24632 -23.13964,-31.24632l11.57448,3.606l11.05474,-9.98788l10.43221,9.83391z" fill="#ff401c"/><path d="M139.35356,182.38473c-15.75391,-0.13526 -18.85226,-20.70359 -18.85226,-20.70359l8.62635,2.83304l9.65872,-7.82271l10.21431,8.49341l9.56428,-3.51103c0,0 -3.39515,20.51389 -19.21135,20.71088z" fill="#ff991c"/><path d="M139.25355,180.25678c-9.72507,-0.21446 -13.27253,-10.74714 -13.27253,-10.74714l5.57481,2.35657l7.30305,-5.58745l8.30808,5.63635l5.91819,-2.40963c0,0 -3.90859,10.50196 -13.8316,10.75128z" fill="#ffc51c"/></g><path d="M145.63402,167.03363c0.59501,0.80886 0.81861,2.36359 0.81861,4.81087c0,3.71695 -0.70394,5.49414 -2.24029,5.49414c-1.53638,0 -2.24028,-1.91374 -2.24028,-5.49413c0,-1.55721 0.39475,-1.13887 0.39475,-1.13887c0,0 2.9253,-4.13679 3.26722,-3.67202z" fill="#000000" stroke="none" stroke-width="0" stroke-linecap="butt"/><path d="M136.07323,171.87309c0,3.71695 -0.70388,5.49414 -2.24026,5.49414c-1.53638,0 -2.24029,-1.91374 -2.24029,-5.49413c0,-2.25611 0.19001,-3.75367 0.68588,-4.60757c0.3511,-0.6046 3.79469,3.12392 3.79469,4.60757z" fill="#000000" stroke="none" stroke-width="0" stroke-linecap="butt"/><path d="M129.48138,165.02696c0,0 2.26299,1.67396 3.27373,2.68855c0.85092,0.85422 2.39411,3.00105 2.39411,3.00105" fill="none" stroke="#000000" stroke-width="1.5" stroke-linecap="round"/><path d="M142.75263,170.71652c0,0 1.54315,-2.14682 2.39409,-3.00105c1.01071,-1.01456 3.27373,-2.68854 3.27373,-2.68854" data-paper-data="{&quot;index&quot;:null}" fill="none" stroke="#000000" stroke-width="1.5" stroke-linecap="round"/></g></g></svg>