<svg version="1.1" xmlns="http://www.w3.org/2000/svg" xmlns:xlink="http://www.w3.org/1999/xlink" width="580.02726" height="506.12045" viewBox="0,0,580.02726,506.12045"><defs><linearGradient x1="453.86066" y1="95.39302" x2="474" y2="95.39302" gradientUnits="userSpaceOnUse" id="color-1"><stop offset="0" stop-color="#a3822e"/><stop offset="1" stop-color="#e4b234"/></linearGradient><linearGradient x1="74.87202" y1="179.67734" x2="-3.55545" y2="179.67734" gradientUnits="userSpaceOnUse" id="color-2"><stop offset="0" stop-color="#a26c29"/><stop offset="1" stop-color="#75491c"/></linearGradient><linearGradient x1="36.17938" y1="63.30608" x2="36.59512" y2="99.22457" gradientUnits="userSpaceOnUse" id="color-3"><stop offset="0" stop-color="#aaf073"/><stop offset="1" stop-color="#8bab52"/></linearGradient><linearGradient x1="421.53532" y1="90.69073" x2="499.96279" y2="90.69073" gradientUnits="userSpaceOnUse" id="color-4"><stop offset="0" stop-color="#a26c29"/><stop offset="1" stop-color="#75491c"/></linearGradient><linearGradient x1="444.2805" y1="180.08783" x2="443.86476" y2="216.00632" gradientUnits="userSpaceOnUse" id="color-5"><stop offset="0" stop-color="#aaf073"/><stop offset="1" stop-color="#8bab52"/></linearGradient></defs><g transform="translate(40.44689,101.82084)"><g data-paper-data="{&quot;isPaintingLayer&quot;:true}" fill-rule="nonzero" stroke-linejoin="miter" stroke-miterlimit="10" stroke-dasharray="" stroke-dashoffset="0" style="mix-blend-mode: normal"><path d="M40.63575,356.18332h187.62933v18.01583h-187.62931z" data-paper-data="{&quot;origPos&quot;:null}" fill="#53abc6" stroke="none" stroke-width="1.16442" stroke-linecap="butt"/><path d="M453.86066,-10.10698h20.13934v211h-20.13934z" data-paper-data="{&quot;origPos&quot;:null}" fill="url(#color-1)" stroke="none" stroke-width="1.54554" stroke-linecap="butt"/><path d="M527.85733,294.88833l10.60587,89.99048l-309.26332,18.3664l-8.42944,-73.95375z" fill="#cfbf74" stroke="#8d763a" stroke-width="2" stroke-linecap="butt"/><path d="M274.7033,303.01121c84.52718,-8.02804 169.31155,-20.69097 254.20021,-24.775c0.59724,5.65295 1.19448,11.30588 1.79172,16.95883c-0.37999,0.1839 -0.72392,0.35058 -1.02643,0.49817c-22.44968,10.92098 -47.31093,21.47548 -73.31149,24.5045c-32.13874,3.73965 -64.19256,-10.80595 -96.36603,-6.57788c-30.31299,4.78115 -53.58299,29.81504 -83.96249,32.57752c-22.77093,2.06802 -66.01119,-12.15861 -66.01119,-12.15861l-0.40666,-15.63506c0,0 4.19347,-7.48392 5.97141,-8.05611c1.0121,-0.32572 8.97757,-3.1562 9.1655,-3.30561c16.66481,-1.31508 33.3475,-2.397 49.95548,-4.03076z" fill="#8fe3a6" stroke="#65a96e" stroke-width="2" stroke-linecap="butt"/><path d="M527.7233,324.17209c-12.24051,12.30645 -34.94603,14.50002 -63.48318,17.95869c-37.94331,4.5987 -55.94118,-12.06362 -89.84467,-9.27647c-33.90348,2.78715 -34.93152,23.29972 -77.15722,26.35639c-28.97107,2.09719 -51.71526,-3.86331 -72.51376,-7.18899" data-paper-data="{&quot;origRot&quot;:0}" fill="none" stroke="#bba15f" stroke-width="9" stroke-linecap="round"/><path d="M530.51212,350.5686c-12.24051,12.30645 -34.94603,14.50002 -63.48318,17.95869c-37.94331,4.5987 -55.94118,-12.06361 -89.84467,-9.27647c-33.90348,2.78715 -34.93152,23.29972 -77.15722,26.35639c-28.86139,2.08925 -51.54296,-3.8183 -72.27747,-7.15111" data-paper-data="{&quot;origRot&quot;:0}" fill="none" stroke="#b49851" stroke-width="9" stroke-linecap="round"/><g stroke-width="2" stroke-linecap="round"><path d="M-3.55545,371.18892l7.90354,-169.22095l1.8239,-60.72266l-1.8239,-49.96168l-1.82389,-19.21603h67.4841l-6.68762,91.46831l4.25576,81.47598l7.29558,126.17705z" data-paper-data="{&quot;index&quot;:null}" fill="url(#color-2)" stroke="#75491c"/><path d="M325.00102,79.29099l0.07276,6.28573l-7.18194,9.98119l-7.28589,1.00157l-4.11584,-5.33021l-5.62291,4.57039l-9.48716,-11.60301l-8.59808,2.84713l-11.36836,6.58847l-11.88441,-7.85748l-7.69936,9.75946l-9.96926,-10.72597l-8.02318,8.94805l-10.69676,-10.24188l-4.11902,11.05817l-15.6027,-2.93878l-8.77989,-6.63771l-10.41709,9.20813c0,0 -11.68489,-7.13688 -16.22401,-7.15427c-6.1853,-0.0237 -9.11052,8.20565 -9.11052,8.20565l-12.65622,-11.96194c0,0 -6.04872,11.7927 -8.66777,11.66065c-6.62997,-0.33428 -14.94989,-8.14217 -14.94989,-8.14217l-7.19725,9.39308l-7.05015,-7.35859l-8.6017,9.4468c0,0 -2.61295,-7.26463 -8.28412,-7.26167c-6.95427,0.00362 -11.54405,4.88302 -11.54405,4.88302l-4.09506,-3.53428l-6.41282,6.37783l-5.67487,0.08058l-7.33785,-3.48824l-3.33633,-8.03561l-3.97033,7.24125l-8.10697,0.11512l-6.49597,-0.80586l-8.14854,-3.47673l-5.60212,6.36632l-6.46479,1.88802l-8.95924,-3.46521l-4.00152,4.54737l-6.48557,0.0921l-5.68527,-0.81739l-9.0216,-8.85298l-4.833,2.76296l-6.48557,0.0921l-4.89536,-2.62482l-3.30514,-5.34172l-0.06236,-5.38778l7.14037,-13.57304l4.84339,-1.865l335.46027,-0.12199l13.02956,9.04864z" data-paper-data="{&quot;origRot&quot;:0,&quot;index&quot;:null}" fill="url(#color-3)" stroke="#316600"/></g><path d="M499.96279,-100.82084l-7.90354,169.22096l-1.82389,60.72266l1.82389,49.96168l1.82389,19.21603h-67.48409l6.68761,-91.46831l-4.25576,-81.47598l-7.29558,-126.17704z" data-paper-data="{&quot;index&quot;:null}" fill="url(#color-4)" stroke="#75491c" stroke-width="2" stroke-linecap="round"/><path d="M196.98386,183.46621l310.93632,-2.47466l4.84339,1.865l7.14037,13.57304l-0.06236,5.38778l-3.30515,5.34172l-4.89536,2.62482l-6.48557,-0.0921l-4.833,-2.76296l-9.0216,8.85298l-5.68527,0.81739l-6.48557,-0.0921l-4.00152,-4.54737l-8.95925,3.46521l-6.46479,-1.88802l-5.60213,-6.36632l-8.14854,3.47673l-6.49597,0.80586l-8.10697,-0.11513l-3.97033,-7.24125l-3.33633,8.03561l-7.33785,3.48824l-5.67487,-0.08059l-6.41282,-6.37783l-4.09506,3.53428c0,0 -4.58978,-4.87939 -11.54406,-4.88302c-5.67117,-0.00295 -8.28412,7.26167 -8.28412,7.26167l-8.6017,-9.4468l-7.05015,7.35859l-7.19725,-9.39309c0,0 -8.31992,7.8079 -14.94989,8.14218c-2.61905,0.13205 -8.66777,-11.66064 -8.66777,-11.66064l-12.65622,11.96194c0,0 -2.92522,-8.22935 -9.11052,-8.20566c-4.53911,0.01739 -16.22401,7.15427 -16.22401,7.15427l-10.4171,-9.20813l-8.77989,6.63771l-15.6027,2.93877l-4.11903,-11.05817l-10.69676,10.24189l-8.02318,-8.94806l-9.96926,10.72597l-7.69936,-9.75946l-11.8844,7.85748l-11.36836,-6.58847l-8.59808,-2.84713z" data-paper-data="{&quot;origRot&quot;:0,&quot;index&quot;:null}" fill="url(#color-5)" stroke="#316600" stroke-width="2" stroke-linecap="round"/></g></g></svg>