<svg version="1.1" xmlns="http://www.w3.org/2000/svg" xmlns:xlink="http://www.w3.org/1999/xlink" width="30.775" height="30.775" viewBox="0,0,30.775,30.775"><defs><radialGradient cx="240.32511" cy="179.62306" r="19.19378" gradientUnits="userSpaceOnUse" id="color-1"><stop offset="0" stop-color="#d4ff99"/><stop offset="1" stop-color="#d4ff99" stop-opacity="0"/></radialGradient></defs><g transform="translate(-224.6125,-164.6125)"><g data-paper-data="{&quot;isPaintingLayer&quot;:true}" fill-rule="nonzero" stroke-linejoin="miter" stroke-miterlimit="10" stroke-dasharray="" stroke-dashoffset="0" style="mix-blend-mode: normal"><path d="M240,165.6125c3.96924,0 7.56587,1.612 10.17118,4.21632c2.60431,2.60532 4.21632,6.20194 4.21632,10.17118c0,3.96924 -1.612,7.56587 -4.21632,10.17118c-2.60532,2.60431 -6.20194,4.21632 -10.17118,4.21632c-3.96924,0 -7.56587,-1.612 -10.17118,-4.21632c-2.60431,-2.60532 -4.21632,-6.20194 -4.21632,-10.17118c0,-3.96924 1.612,-7.56587 4.21632,-10.17118c2.60532,-2.60431 6.20194,-4.21632 10.17118,-4.21632z" data-paper-data="{&quot;origPos&quot;:null}" fill="url(#color-1)" stroke="#299a0f" stroke-width="2" stroke-linecap="butt"/><g data-paper-data="{&quot;index&quot;:null}"><path d="M239.90738,190.36447c0,0 0.28622,-0.65168 0.8193,-1.48639c0.11396,-0.17844 0.72033,-0.76619 0.85647,-0.95678c0.69823,-0.9775 1.20199,-1.65364 2.42167,-2.21266c0.90063,-0.41278 2.4611,-0.5108 3.27496,-0.25564c1.50846,0.47294 2.05438,2.04927 2.05438,2.04927c0,0 -0.37208,-0.42126 -0.72552,-0.45709c-0.21448,-0.02174 -0.39676,0.19976 -0.55763,0.45234c-0.70365,1.10475 -1.76641,2.42158 -3.23445,3.09444c-2.56992,1.17787 -4.90917,-0.22747 -4.90917,-0.22747z" fill="#9fc225" stroke="none" stroke-width="0" stroke-linecap="butt"/><path d="M241.42452,189.55664c0,0 0.29939,-0.18509 1.06831,-0.90468c0.44792,-0.41918 1.12649,-1.27172 1.82222,-1.65528c0.69573,-0.38356 1.31817,-0.43833 1.91226,-0.50738c0.97641,-0.11349 1.72866,-0.00389 1.72866,-0.00389" fill="none" stroke="#5a911c" stroke-width="0.7" stroke-linecap="round"/></g><path d="M238.75701,180.14688l2.53909,0.04455c0,0 -0.49827,5.15343 -0.49827,7.04408c0,1.26081 0.21081,3.15242 0.21081,3.15242h-2.05998c0,0 0.11499,-2.0081 0.11499,-3.46871c0,-1.85698 -0.30663,-6.77233 -0.30663,-6.77233z" fill="#9fc225" stroke="none" stroke-width="0.97987" stroke-linecap="butt"/><g><path d="M240.06841,190.43273c0,0 -2.33925,1.40536 -4.90916,0.22748c-1.2415,-0.56902 -2.29872,-2.04676 -3.08233,-2.98961c-0.74653,-0.89824 -1.315,0.58149 -1.315,0.58149c0,0 0.19036,-1.35827 0.87352,-1.99148c1.00748,-0.9338 2.80407,-1.18567 4.33553,-0.48374c0.80561,0.36923 1.66916,1.5258 2.25496,2.16909c0.43195,0.47435 0.6397,0.4135 0.93803,0.86872c0.5877,0.8968 0.90446,1.61802 0.90446,1.61802z" fill="#9fc225" stroke="none" stroke-width="0" stroke-linecap="butt"/><path d="M231.81936,186.71402c0,0 0.89927,-0.27545 1.4744,-0.19669c0.57513,0.07876 1.0266,0.09012 2.2467,0.58766c0.62142,0.25341 1.15366,1.04407 1.5901,1.40228c0.92602,0.76002 1.42072,1.1176 1.42072,1.1176" fill="none" stroke="#5a911c" stroke-width="0.7" stroke-linecap="round"/></g><g stroke-linecap="butt"><g stroke="none" stroke-width="0"><path d="M249.0992,172.3324c0,0 0.00401,12.18207 -8.94069,12.2013c-8.73713,0.01878 -9.28195,-12.40079 -9.28195,-12.40079c0,0 0.36061,-1.0439 1.4455,-0.60543c1.22546,0.4953 3.19735,1.91892 3.19735,1.91892c0,0 2.1243,-3.19148 4.5026,-3.20853c2.37831,-0.01705 4.1164,3.14674 4.1164,3.14674c0,0 2.54419,-1.83128 3.6372,-2.01946c1.1669,-0.2009 1.32359,0.96723 1.32359,0.96723z" fill="#11ac1e"/><path d="M240.12063,183.27036c-6.31933,-0.05425 -7.56218,-8.30479 -7.56218,-8.30479c0,0 0.10542,-0.48585 0.79795,-0.33637c0.77643,0.16758 2.6623,1.47278 2.6623,1.47278c0,0 2.13117,-3.14211 3.87439,-3.0714c1.81138,0.07345 4.09725,3.34045 4.09725,3.34045c0,0 2.00015,-1.39238 2.91079,-1.72481c0.80221,-0.29286 0.92568,0.31644 0.92568,0.31644c0,0 -1.36189,8.2287 -7.70621,8.3077z" fill="#53ce1b"/><path d="M240.08052,182.41677c-3.90099,-0.08603 -5.32397,-4.31097 -5.32397,-4.31097c0,0 0.0256,-0.32003 0.58837,-0.24873c0.517,0.0655 1.64783,1.19403 1.64783,1.19403c0,0 1.61077,-2.23939 2.92945,-2.24128c1.24721,-0.00179 3.33261,2.2609 3.33261,2.2609c0,0 1.21169,-1.01057 1.79605,-1.23541c0.53909,-0.20741 0.57792,0.26884 0.57792,0.26884c0,0 -1.56786,4.21264 -5.54825,4.31264z" fill="#96f018"/></g><path d="M244.25348,175.37569c0,-0.65183 0.54237,-1.18023 1.21143,-1.18023c0.66906,0 1.21144,0.52841 1.21144,1.18023c0,0.65183 -0.54238,1.18022 -1.21144,1.18022c-0.66906,0 -1.21143,-0.52839 -1.21143,-1.18022z" fill="none" stroke="#53ce1b" stroke-width="0.7"/><path d="M238.8959,176.40631c0,-0.76199 0.63405,-1.3797 1.41619,-1.3797c0.78214,0 1.41618,0.61771 1.41618,1.3797c0,0.76199 -0.63404,1.37971 -1.41618,1.37971c-0.78214,0 -1.41619,-0.61771 -1.41619,-1.37971z" fill="none" stroke="#96f018" stroke-width="0.7"/><path d="M235.03981,179.89714c0,-0.44986 0.37432,-0.81452 0.83607,-0.81452c0.46175,0 0.83606,0.36466 0.83606,0.81452c0,0.44986 -0.37431,0.81452 -0.83606,0.81452c-0.46175,0 -0.83607,-0.36466 -0.83607,-0.81452z" fill="none" stroke="#96f018" stroke-width="0.7"/><path d="M237.66741,172.94873c0,-0.70692 0.5882,-1.27996 1.31379,-1.27996c0.72559,0 1.31381,0.57306 1.31381,1.27996c0,0.70692 -0.58822,1.27996 -1.31381,1.27996c-0.72559,0 -1.31379,-0.57307 -1.31379,-1.27996z" fill="none" stroke="#53ce1b" stroke-width="0.7"/><path d="M234.83505,175.8245c0,-0.45904 0.38195,-0.83114 0.85312,-0.83114c0.47117,0 0.85312,0.37212 0.85312,0.83114c0,0.45904 -0.38196,0.83115 -0.85312,0.83115c-0.47117,0 -0.85312,-0.37212 -0.85312,-0.83115z" fill="none" stroke="#53ce1b" stroke-width="0.7"/></g><path d="M242.06962,176.83853c0.67627,0 0.89863,0.65811 0.89863,2.20385c0,1.49096 -0.28234,1.33026 -0.89863,1.33026c-0.61628,0 -0.89865,0.10594 -0.89865,-1.33026c0,-1.54573 0.22237,-2.20385 0.89865,-2.20385z" fill="#000000" stroke="none" stroke-width="0" stroke-linecap="butt"/><path d="M237.90618,176.85002c0.67627,0 0.89864,0.6581 0.89864,2.20385c0,1.49096 -0.28235,1.33024 -0.89864,1.33024c-0.61628,0 -0.89863,0.10594 -0.89863,-1.33025c0,-1.54573 0.22237,-2.20385 0.89863,-2.20385z" fill="#000000" stroke="none" stroke-width="0" stroke-linecap="butt"/></g></g></svg>