<svg version="1.1" xmlns="http://www.w3.org/2000/svg" xmlns:xlink="http://www.w3.org/1999/xlink" width="481.8763" height="256.87763" viewBox="0,0,481.8763,256.87763"><defs><linearGradient x1="244.0099" y1="212.42155" x2="244.0099" y2="353.17191" gradientUnits="userSpaceOnUse" id="color-1"><stop offset="0" stop-color="#7be3b4"/><stop offset="1" stop-color="#30ae82"/></linearGradient><linearGradient x1="-89.40089" y1="308.00443" x2="-89.40089" y2="406.00443" gradientUnits="userSpaceOnUse" id="color-2"><stop offset="0" stop-color="#000000" stop-opacity="0"/><stop offset="1" stop-color="#000000"/></linearGradient><linearGradient x1="110.1326" y1="179.30657" x2="110.1326" y2="182.12612" gradientUnits="userSpaceOnUse" id="color-3"><stop offset="0" stop-color="#297b40"/><stop offset="1" stop-color="#297b40" stop-opacity="0"/></linearGradient><linearGradient x1="88.87284" y1="157.26952" x2="88.87284" y2="160.08909" gradientUnits="userSpaceOnUse" id="color-4"><stop offset="0" stop-color="#297b40"/><stop offset="1" stop-color="#297b40" stop-opacity="0"/></linearGradient><linearGradient x1="75.9932" y1="242.22468" x2="75.9932" y2="383.22468" gradientUnits="userSpaceOnUse" id="color-5"><stop offset="0" stop-color="#7be3b4"/><stop offset="1" stop-color="#30ae82"/></linearGradient></defs><g transform="translate(79.50685,-126.84705)"><g data-paper-data="{&quot;isPaintingLayer&quot;:true}" fill-rule="nonzero" stroke-linecap="butt" stroke-linejoin="miter" stroke-miterlimit="10" stroke-dasharray="" stroke-dashoffset="0" style="mix-blend-mode: normal"><path d="M387.99323,274.70292c0,11.55 -6.64477,54.16895 -18.22421,63.44119c-22.90526,18.34139 -186.14831,14.74181 -234.43496,14.74181c-72.69731,0 -10.60108,-43.78595 -10.60108,-78.18299c0,-34.39705 58.93281,-62.28137 131.63012,-62.28137c48.14029,0 90.24469,12.22759 113.1971,30.47682c11.70834,9.30918 18.43302,20.18529 18.43302,31.80455z" fill="url(#color-1)" stroke="#40ac84" stroke-width="1"/><path d="" data-paper-data="{&quot;origPos&quot;:null}" fill="url(#color-2)" stroke="none" stroke-width="1.22826"/><path d="M108.75889,207.63382c3.46284,0 6.27004,6.25604 6.27004,13.97323c0,7.71719 -2.8072,13.97322 -6.27004,13.97322c-3.46284,0 -6.27003,-6.25603 -6.27003,-13.97322c0,-7.7172 2.80719,-13.97323 6.27003,-13.97323z" fill="#fff59c" stroke="#000000" stroke-width="0"/><g stroke-width="1"><path d="M33.81853,192.2328h27.2255v18.27973h-27.2255z" fill="#b85832" stroke="#88451b"/><path d="M32.73723,188.41947c0.2452,-0.44158 1.00003,-0.80822 1.74654,-0.80931c10.38176,-0.01521 23.10339,-0.03454 26.14476,-0.03899c1.0138,-0.00149 1.79035,0.49645 1.97422,0.80269c0.24009,0.39988 0.62348,1.22616 0.62348,2.52716c0,2.2557 0,3.52426 0,5.77996c0,0.24171 -0.12429,2.31137 -0.1235,2.55284l-3.76517,-3.48401l-2.53659,3.61645l-2.73383,-2.69643l-2.08514,3.73085l-3.71028,-4.28021l-4.09204,4.18978l-3.34489,-4.10194l-3.25173,3.82228l-2.54754,-3.46762l-3.06062,3.41806c0,0 0.06214,-5.53496 0.10189,-9.0776c0.01442,-1.28415 0.45453,-2.11318 0.66042,-2.48397z" data-paper-data="{&quot;origRot&quot;:0}" fill="#67db7a" stroke="#39a75c"/><path d="M39.23322,202.85191c0,-0.98392 0.79763,-1.78155 1.78155,-1.78155c0.98392,0 1.78154,0.79763 1.78154,1.78155c0,0.98392 -0.79763,1.78155 -1.78154,1.78155c-0.98392,0 -1.78155,-0.79763 -1.78155,-1.78155z" fill="#d6954b" stroke="none"/><path d="M50.63514,204.8116c0,-0.98392 0.79763,-1.78155 1.78154,-1.78155c0.98392,0 1.78154,0.79763 1.78154,1.78155c0,0.98392 -0.79763,1.78155 -1.78154,1.78155c-0.98392,0 -1.78154,-0.79763 -1.78154,-1.78155z" fill="#d6954b" stroke="none"/></g><g stroke="none" stroke-width="1"><path d="M100.44366,172.97279c2.07527,0 16.2897,0 19.54424,0c0.41769,0 0.86155,0.43003 0.86155,0.75305c0,0.73406 0,3.57467 0,4.88606c0,0.39962 -0.46558,0.70489 -0.86155,0.70489c-1.83865,0 -15.69323,0 -19.54424,0c-0.6284,0 -0.83282,-0.16308 -0.83282,-0.65234c0,-1.33312 0,-4.12782 0,-4.88606c0,-0.40995 0.34444,-0.8056 0.83282,-0.8056z" fill="#52b846"/><path d="M101.50403,172.97279h2.22305v6.344h-2.22305z" fill="#71ff5e"/><path d="M101.20762,178.94902h17.7846v58.0077h-17.7846z" fill="#52b846"/><path d="M103.05194,180.85278h2.34658v56.10393h-2.34658z" fill="#71ff5e"/><path d="M101.21423,182.12612v-2.81956h17.83675v2.81956z" fill="url(#color-3)"/></g><g stroke="none" stroke-width="1"><path d="M79.18385,150.93576c2.07527,0 16.28971,0 19.54425,0c0.41769,0 0.86154,0.43003 0.86154,0.75305c0,0.73406 0,3.57467 0,4.88606c0,0.39962 -0.46557,0.70489 -0.86154,0.70489c-1.83865,0 -15.69324,0 -19.54425,0c-0.6284,0 -0.83282,-0.16309 -0.83282,-0.65235c0,-1.33312 0,-4.12783 0,-4.88606c0,-0.40995 0.34444,-0.80559 0.83282,-0.80559z" fill="#52b846"/><path d="M80.24427,150.93576h2.22305v6.344h-2.22305z" fill="#71ff5e"/><path d="M79.94782,156.91198h17.7846v91.85703h-17.7846z" fill="#52b846"/><path d="M81.79215,158.81572h2.34658v89.95326h-2.34658z" fill="#71ff5e"/><path d="M79.95445,160.08909v-2.81956h17.83675v2.81956z" fill="url(#color-4)"/></g><path d="M-4.88852,215.14455l125.0149,0.06623c-0.01492,19.58445 -0.01371,39.16919 0.03719,58.74921h-125.05208z" fill="#b85832" stroke="#88451b" stroke-width="1"/><path d="M-5.40821,212.36081c0,0 1.92622,-4.0691 3.17197,-4.0705c14.59828,-0.01637 114.40068,-0.12065 119.99828,-0.12692c2.02509,-0.00227 3.90274,2.87328 3.89735,4.488c-0.01506,4.51797 -0.02208,7.0588 -0.01512,11.5768l-5.84402,-3.57816l-4.1568,2.88742l-3.31687,-3.53918l-4.34289,5.01991l-4.77625,-3.167l-2.89166,4.29147l-5.1472,-3.87695l-5.09838,3.24111l-2.23387,-4.97494l-3.99907,2.8795l-4.05064,-3.89019l-5.81042,5.03052l-6.24923,-4.58691l-3.6254,3.94575l-4.77897,-3.52859l-5.09022,3.60003l-2.22845,-4.61601l-5.0875,3.95634l-6.24109,-3.51801l-1.78963,5.00141l-8.07143,-3.86107l-2.89436,3.94046l-3.32772,-4.96438l-5.0848,4.31263l-4.78169,-3.8849l-1.43225,3.92987l-7.29012,-4.86083l-4.12605,7.2233l-3.52611,-1.9559z" data-paper-data="{&quot;origRot&quot;:0}" fill="#67db7a" stroke="#39a75c" stroke-width="1"/><g stroke-width="1"><path d="M337.91753,179.85082l62.64737,-2.9263l0.13457,17.75262l-62.29103,0.07582z" data-paper-data="{&quot;origPos&quot;:null,&quot;origRot&quot;:0}" fill="#b85832" stroke="#88451b"/><path d="M347.48602,191.22389c-0.24755,-0.95226 0.32373,-1.92492 1.27599,-2.17247c0.95226,-0.24755 1.92492,0.32373 2.17247,1.27599c0.24755,0.95226 -0.32374,1.92492 -1.276,2.17247c-0.95226,0.24755 -1.92491,-0.32373 -2.17246,-1.27599z" data-paper-data="{&quot;origRot&quot;:0}" fill="#d6954b" stroke="none"/><path d="M364.96258,188.96928c-0.24755,-0.95226 0.32373,-1.92492 1.27599,-2.17247c0.95226,-0.24755 1.92492,0.32373 2.17247,1.27599c0.24755,0.95226 -0.32373,1.92492 -1.27599,2.17247c-0.95226,0.24755 -1.92492,-0.32373 -2.17247,-1.27599z" data-paper-data="{&quot;origRot&quot;:0}" fill="#d6954b" stroke="none"/><path d="M385.01178,192.13584c-0.24755,-0.95226 0.32374,-1.92492 1.276,-2.17247c0.95226,-0.24755 1.92493,0.32373 2.17247,1.27599c0.24755,0.95226 -0.32374,1.92492 -1.276,2.17247c-0.95226,0.24755 -1.92493,-0.32373 -2.17247,-1.27599z" data-paper-data="{&quot;origRot&quot;:0}" fill="#d6954b" stroke="none"/><path d="M401.79575,184.20219l-6.50282,-2.14264l-1.56104,4.27546l-5.06136,-3.56398l-3.97656,3.20608l-4.33833,-3.92018l-5.06109,3.56219l-3.62069,-4.27637l-4.33266,4.27496l-5.06675,-4.27663l-5.06111,2.84957l-3.25378,-3.56367l-4.33264,4.98758l-4.69984,-3.20233l-2.89195,4.2699l-5.06139,-3.91501l-0.05678,0.0359c0.02724,-3.6328 -0.10192,-5.50691 -0.07469,-9.13973c0.00802,-1.06999 0.5615,-2.84185 1.25861,-3.65361c0.50227,-0.58489 2.07119,-1.295 4.08693,-1.28217c4.98882,0.03174 56.05537,0.1439 56.05537,0.1439c0,0 2.08105,0.37704 2.85007,1.43477c0.76903,1.05773 0.7762,3.55285 0.7762,3.55285z" data-paper-data="{&quot;origPos&quot;:null,&quot;origRot&quot;:0}" fill="#67db7a" stroke="#39a75c"/></g><g stroke-width="1"><path d="M254.42886,165.78101l62.64737,-2.9263l0.13457,17.75262l-62.29103,0.07582z" data-paper-data="{&quot;origPos&quot;:null,&quot;origRot&quot;:0}" fill="#b85832" stroke="#88451b"/><path d="M267.28022,173.40214c-0.24755,-0.95226 0.32373,-1.92492 1.27599,-2.17247c0.95226,-0.24755 1.92492,0.32373 2.17247,1.27599c0.24755,0.95226 -0.32374,1.92492 -1.276,2.17247c-0.95226,0.24755 -1.92491,-0.32373 -2.17246,-1.27599z" data-paper-data="{&quot;origPos&quot;:null,&quot;origRot&quot;:0}" fill="#d6954b" stroke="none"/><path d="M288.03981,175.36847c-0.24755,-0.95226 0.32373,-1.92492 1.27599,-2.17247c0.95226,-0.24755 1.92492,0.32373 2.17247,1.27599c0.24755,0.95226 -0.32373,1.92492 -1.27599,2.17247c-0.95226,0.24755 -1.92492,-0.32373 -2.17247,-1.27599z" data-paper-data="{&quot;origPos&quot;:null,&quot;origRot&quot;:0}" fill="#d6954b" stroke="none"/><path d="M309.49593,174.31409c-0.24755,-0.95226 0.32374,-1.92492 1.276,-2.17247c0.95226,-0.24755 1.92493,0.32373 2.17247,1.27599c0.24755,0.95226 -0.32374,1.92492 -1.276,2.17247c-0.95226,0.24755 -1.92493,-0.32373 -2.17247,-1.27599z" data-paper-data="{&quot;origRot&quot;:0}" fill="#d6954b" stroke="none"/><path d="M318.30712,170.13239l-6.50282,-2.14264l-1.56104,4.27546l-5.06136,-3.56398l-3.97656,3.20608l-4.33833,-3.92018l-5.06109,3.56219l-3.62069,-4.27637l-4.33266,4.27496l-5.06675,-4.27663l-5.06111,2.84957l-3.25378,-3.56367l-4.33264,4.98758l-4.69984,-3.20233l-2.89195,4.2699l-5.06139,-3.91501l-0.05678,0.0359c0.02724,-3.6328 -0.10192,-5.50691 -0.07469,-9.13973c0.00802,-1.06999 0.5615,-2.84185 1.25861,-3.65361c0.50227,-0.58489 2.07119,-1.295 4.08693,-1.28217c4.98882,0.03174 56.05537,0.1439 56.05537,0.1439c0,0 2.08105,0.37704 2.85007,1.43477c0.76903,1.05773 0.7762,3.55285 0.7762,3.55285z" data-paper-data="{&quot;origPos&quot;:null,&quot;origRot&quot;:0}" fill="#67db7a" stroke="#39a75c"/></g><path d="M358.02104,127.14203h8.48237l1.5958,1.66333v8.03315l-1.83363,1.70267h-7.9803l-1.4204,-1.49128v-8.40309z" fill="#65341b" stroke="none" stroke-width="1"/><path d="M359.89358,131.12034h5.20325v3.41716h-5.20325z" fill="#c36124" stroke="none" stroke-width="0.92671"/><path d="M356.57849,131.14299h2.71261v3.38521h-2.71261z" fill="#c36124" stroke="none" stroke-width="0.71585"/><path d="M357.02772,127.24617c0.37458,-0.40023 1.33684,-0.34352 1.33684,-0.34352h3.81977v3.64796h-5.63227v-2.06235c0,0 0.03651,-0.7729 0.47565,-1.24209z" fill="#c36124" stroke="none" stroke-width="0.95559"/><path d="M365.67823,131.13386h2.71261v3.38522h-2.71261z" fill="#c36124" stroke="none" stroke-width="0.71585"/><path d="M368.39416,128.43543v2.06235h-5.57942v-3.64796h3.78393c0,0 0.95323,-0.05671 1.3243,0.34352c0.43501,0.4692 0.47118,1.24208 0.47118,1.24208z" data-paper-data="{&quot;index&quot;:null}" fill="#c36124" stroke="none" stroke-width="0.95559"/><path d="M367.89657,138.44887c-0.37107,0.40023 -1.3243,0.34353 -1.3243,0.34353h-3.78393v-3.64796h5.57942v2.06235c0,0 -0.03618,0.77289 -0.47118,1.24209z" data-paper-data="{&quot;index&quot;:null}" fill="#c36124" stroke="none" stroke-width="0.95559"/><path d="M356.57849,137.2068v-2.06235h5.57941v3.64796h-3.78393c0,0 -0.95323,0.05671 -1.3243,-0.34353c-0.43501,-0.4692 -0.47118,-1.24209 -0.47118,-1.24209z" data-paper-data="{&quot;index&quot;:null}" fill="#c36124" stroke="none" stroke-width="0.95559"/><path d="M370.01169,127.14203h8.48237l1.5958,1.66333v8.03315l-1.83363,1.70267h-7.9803l-1.4204,-1.49128v-8.40309z" fill="#65341b" stroke="none" stroke-width="1"/><path d="M371.88423,131.12034h5.20325v3.41716h-5.20325z" fill="#c36124" stroke="none" stroke-width="0.92671"/><path d="M368.56912,131.14299h2.71261v3.38521h-2.71261z" fill="#c36124" stroke="none" stroke-width="0.71585"/><path d="M369.01835,127.24617c0.37458,-0.40023 1.33684,-0.34352 1.33684,-0.34352h3.81977v3.64796h-5.63227v-2.06235c0,0 0.03651,-0.7729 0.47565,-1.24209z" fill="#c36124" stroke="none" stroke-width="0.95559"/><path d="M377.6689,131.13386h2.71261v3.38522h-2.71261z" fill="#c36124" stroke="none" stroke-width="0.71585"/><path d="M380.38483,128.43543v2.06235h-5.57942v-3.64796h3.78393c0,0 0.95323,-0.05671 1.3243,0.34352c0.43501,0.4692 0.47118,1.24208 0.47118,1.24208z" data-paper-data="{&quot;index&quot;:null}" fill="#c36124" stroke="none" stroke-width="0.95559"/><path d="M379.88722,138.44887c-0.37107,0.40023 -1.3243,0.34353 -1.3243,0.34353h-3.78393v-3.64796h5.57942v2.06235c0,0 -0.03618,0.77289 -0.47118,1.24209z" data-paper-data="{&quot;index&quot;:null}" fill="#c36124" stroke="none" stroke-width="0.95559"/><path d="M368.56912,137.2068v-2.06235h5.57941v3.64796h-3.78393c0,0 -0.95323,0.05671 -1.3243,-0.34353c-0.43501,-0.4692 -0.47118,-1.24209 -0.47118,-1.24209z" data-paper-data="{&quot;index&quot;:null}" fill="#c36124" stroke="none" stroke-width="0.95559"/><g stroke-width="0.75"><g data-paper-data="{&quot;index&quot;:null}" fill="#f1f1f1" stroke="#727272"><path d="M71.39835,206.25916l-3.50095,-3.50095l0.97233,-0.97233l3.50095,3.50095z"/><path d="M72.37068,198.28454l-3.50095,3.50095l-0.97234,-0.97233l3.50095,-3.50095z" data-paper-data="{&quot;index&quot;:null}"/></g><path d="M66.96931,201.78568c0,-0.69547 0.56379,-1.25925 1.25926,-1.25925c0.69547,0 1.25926,0.56379 1.25926,1.25925c0,0.69547 -0.56379,1.25926 -1.25926,1.25926c-0.69547,0 -1.25926,-0.56379 -1.25926,-1.25926z" fill="#ff9400" stroke="#cc5000"/></g><g stroke-width="0.75"><g fill="#f1f1f1" stroke="#727272"><path d="M72.33791,205.28682l3.50095,-3.50095l0.97233,0.97233l-3.50095,3.50095z"/><path d="M73.31024,197.31221l3.50095,3.50095l-0.97233,0.97233l-3.50095,-3.50095z" data-paper-data="{&quot;index&quot;:null}"/></g><path d="M75.22079,201.78568c0,-0.69547 0.56379,-1.25926 1.25926,-1.25926c0.69547,0 1.25926,0.56379 1.25926,1.25926c0,0.69547 -0.56379,1.25926 -1.25926,1.25926c-0.69547,0 -1.25926,-0.56379 -1.25926,-1.25926z" fill="#ff9400" stroke="#cc5000"/></g><path d="M66.98592,196.32261h10.7368v2.07822h-10.7368z" fill="#ff9400" stroke="#cc5000" stroke-width="0.75"/><path d="M66.98592,205.17053h10.7368v2.07822h-10.7368z" fill="#ff9400" stroke="#cc5000" stroke-width="0.75"/><path d="M230.99316,312.72468c0,38.93608 -69.39587,70.5 -155,70.5c-85.60413,0 -155,-31.56392 -155,-70.5c0,-38.93608 69.39587,-70.5 155,-70.5c85.60413,0 155,31.56392 155,70.5z" fill="url(#color-5)" stroke="#40ac84" stroke-width="1"/><path d="M5.03981,234.36847c-0.24755,-0.95226 0.32373,-1.92492 1.27599,-2.17247c0.95226,-0.24755 1.92492,0.32373 2.17247,1.27599c0.24755,0.95226 -0.32373,1.92492 -1.27599,2.17247c-0.95226,0.24755 -1.92492,-0.32373 -2.17247,-1.27599z" data-paper-data="{&quot;origRot&quot;:0}" fill="#d6954b" stroke="none" stroke-width="1"/><path d="M50.03981,231.36847c-0.24755,-0.95226 0.32373,-1.92492 1.27599,-2.17247c0.95226,-0.24755 1.92492,0.32373 2.17247,1.27599c0.24755,0.95226 -0.32373,1.92492 -1.27599,2.17247c-0.95226,0.24755 -1.92492,-0.32373 -2.17247,-1.27599z" data-paper-data="{&quot;origRot&quot;:0}" fill="#d6954b" stroke="none" stroke-width="1"/><path d="M72.03978,230.36847c-0.24755,-0.95226 0.32373,-1.92492 1.27599,-2.17247c0.95226,-0.24755 1.92492,0.32373 2.17247,1.27599c0.24755,0.95226 -0.32373,1.92492 -1.27599,2.17247c-0.95226,0.24755 -1.92492,-0.32373 -2.17247,-1.27599z" data-paper-data="{&quot;origRot&quot;:0}" fill="#d6954b" stroke="none" stroke-width="1"/><path d="M88.03981,240.36847c-0.24755,-0.95226 0.32373,-1.92492 1.27599,-2.17247c0.95226,-0.24755 1.92492,0.32373 2.17247,1.27599c0.24755,0.95226 -0.32373,1.92492 -1.27599,2.17247c-0.95226,0.24755 -1.92492,-0.32373 -2.17247,-1.27599z" data-paper-data="{&quot;origRot&quot;:0}" fill="#d6954b" stroke="none" stroke-width="1"/><path d="M108.03981,231.36847c-0.24755,-0.95226 0.32373,-1.92492 1.27599,-2.17247c0.95226,-0.24755 1.92492,0.32373 2.17247,1.27599c0.24755,0.95226 -0.32373,1.92492 -1.27599,2.17247c-0.95226,0.24755 -1.92492,-0.32373 -2.17247,-1.27599z" data-paper-data="{&quot;origRot&quot;:0}" fill="#d6954b" stroke="none" stroke-width="1"/><path d="M37.03981,238.86847c-0.24755,-0.95226 0.32373,-1.92492 1.27599,-2.17247c0.95226,-0.24755 1.92492,0.32373 2.17247,1.27599c0.24755,0.95226 -0.32373,1.92492 -1.27599,2.17247c-0.95226,0.24755 -1.92492,-0.32373 -2.17247,-1.27599z" data-paper-data="{&quot;origRot&quot;:0}" fill="#d6954b" stroke="none" stroke-width="1"/><path d="M17.03977,230.86847c-0.24755,-0.95226 0.32373,-1.92492 1.27599,-2.17247c0.95226,-0.24755 1.92492,0.32373 2.17247,1.27599c0.24755,0.95226 -0.32373,1.92492 -1.27599,2.17247c-0.95226,0.24755 -1.92492,-0.32373 -2.17247,-1.27599z" data-paper-data="{&quot;origRot&quot;:0}" fill="#d6954b" stroke="none" stroke-width="1"/><path d="M13.0398,240.11847c-0.24755,-0.95226 0.32373,-1.92492 1.27599,-2.17247c0.95226,-0.24755 1.92492,0.32373 2.17247,1.27599c0.24755,0.95226 -0.32373,1.92492 -1.27599,2.17247c-0.95226,0.24755 -1.92492,-0.32373 -2.17247,-1.27599z" data-paper-data="{&quot;origRot&quot;:0}" fill="#d6954b" stroke="none" stroke-width="1"/><path d="M58.7898,242.61847c-0.24755,-0.95226 0.32373,-1.92492 1.27599,-2.17247c0.95226,-0.24755 1.92492,0.32373 2.17247,1.27599c0.24755,0.95226 -0.32373,1.92492 -1.27599,2.17247c-0.95226,0.24755 -1.92492,-0.32373 -2.17247,-1.27599z" data-paper-data="{&quot;origRot&quot;:0}" fill="#d6954b" stroke="none" stroke-width="1"/><path d="M4.28981,251.61847c-0.24755,-0.95226 0.32373,-1.92492 1.27599,-2.17247c0.95226,-0.24755 1.92492,0.32373 2.17247,1.27599c0.24755,0.95226 -0.32373,1.92492 -1.27599,2.17247c-0.95226,0.24755 -1.92492,-0.32373 -2.17247,-1.27599z" data-paper-data="{&quot;origRot&quot;:0}" fill="#d6954b" stroke="none" stroke-width="1"/></g></g></svg>