<svg version="1.1" xmlns="http://www.w3.org/2000/svg" xmlns:xlink="http://www.w3.org/1999/xlink" width="575.77182" height="367.35705" viewBox="0,0,575.77182,367.35705"><defs><linearGradient x1="79.29095" y1="-0.28645" x2="79.29095" y2="360.76726" gradientUnits="userSpaceOnUse" id="color-1"><stop offset="0" stop-color="#001d66"/><stop offset="1" stop-color="#006666"/></linearGradient><linearGradient x1="408.18016" y1="114.179" x2="408.18016" y2="335.47454" gradientUnits="userSpaceOnUse" id="color-2"><stop offset="0" stop-color="#906b49"/><stop offset="1" stop-color="#725235"/></linearGradient><linearGradient x1="539.03" y1="95.43682" x2="539.03" y2="115.60457" gradientUnits="userSpaceOnUse" id="color-3"><stop offset="0" stop-color="#c19872"/><stop offset="1" stop-color="#906b49"/></linearGradient><linearGradient x1="636.71336" y1="95.30877" x2="636.71336" y2="115.47652" gradientUnits="userSpaceOnUse" id="color-4"><stop offset="0" stop-color="#c19872"/><stop offset="1" stop-color="#906b49"/></linearGradient><linearGradient x1="603.6246" y1="95.11668" x2="603.6246" y2="115.28441" gradientUnits="userSpaceOnUse" id="color-5"><stop offset="0" stop-color="#c19872"/><stop offset="1" stop-color="#906b49"/></linearGradient><linearGradient x1="571.04644" y1="94.92464" x2="571.04644" y2="115.09238" gradientUnits="userSpaceOnUse" id="color-6"><stop offset="0" stop-color="#c19872"/><stop offset="1" stop-color="#906b49"/></linearGradient><linearGradient x1="408.30891" y1="95.43682" x2="408.30891" y2="115.60457" gradientUnits="userSpaceOnUse" id="color-7"><stop offset="0" stop-color="#c19872"/><stop offset="1" stop-color="#906b49"/></linearGradient><linearGradient x1="505.99227" y1="95.30877" x2="505.99227" y2="115.47652" gradientUnits="userSpaceOnUse" id="color-8"><stop offset="0" stop-color="#c19872"/><stop offset="1" stop-color="#906b49"/></linearGradient><linearGradient x1="472.90347" y1="95.11668" x2="472.90347" y2="115.28441" gradientUnits="userSpaceOnUse" id="color-9"><stop offset="0" stop-color="#c19872"/><stop offset="1" stop-color="#906b49"/></linearGradient><linearGradient x1="440.32535" y1="94.92464" x2="440.32535" y2="115.09238" gradientUnits="userSpaceOnUse" id="color-10"><stop offset="0" stop-color="#c19872"/><stop offset="1" stop-color="#906b49"/></linearGradient><linearGradient x1="310.26809" y1="96.71729" x2="310.26809" y2="116.88503" gradientUnits="userSpaceOnUse" id="color-11"><stop offset="0" stop-color="#c19872"/><stop offset="1" stop-color="#906b49"/></linearGradient><linearGradient x1="374.86267" y1="96.39721" x2="374.86267" y2="116.56494" gradientUnits="userSpaceOnUse" id="color-12"><stop offset="0" stop-color="#c19872"/><stop offset="1" stop-color="#906b49"/></linearGradient><linearGradient x1="342.2845" y1="96.20511" x2="342.2845" y2="116.37286" gradientUnits="userSpaceOnUse" id="color-13"><stop offset="0" stop-color="#c19872"/><stop offset="1" stop-color="#906b49"/></linearGradient><linearGradient x1="179.54698" y1="96.71729" x2="179.54698" y2="116.88503" gradientUnits="userSpaceOnUse" id="color-14"><stop offset="0" stop-color="#c19872"/><stop offset="1" stop-color="#906b49"/></linearGradient><linearGradient x1="277.23035" y1="96.58924" x2="277.23035" y2="116.75697" gradientUnits="userSpaceOnUse" id="color-15"><stop offset="0" stop-color="#c19872"/><stop offset="1" stop-color="#906b49"/></linearGradient><linearGradient x1="244.1416" y1="96.39721" x2="244.1416" y2="116.56494" gradientUnits="userSpaceOnUse" id="color-16"><stop offset="0" stop-color="#c19872"/><stop offset="1" stop-color="#906b49"/></linearGradient><linearGradient x1="211.56345" y1="96.20511" x2="211.56345" y2="116.37286" gradientUnits="userSpaceOnUse" id="color-17"><stop offset="0" stop-color="#c19872"/><stop offset="1" stop-color="#906b49"/></linearGradient><linearGradient x1="268.63664" y1="185.64809" x2="268.63664" y2="335.39405" gradientUnits="userSpaceOnUse" id="color-18"><stop offset="0" stop-color="#8a4c2b"/><stop offset="1" stop-color="#aa5e35"/></linearGradient><linearGradient x1="439.11413" y1="186.58608" x2="439.11413" y2="339.13979" gradientUnits="userSpaceOnUse" id="color-19"><stop offset="0" stop-color="#8a4c2b"/><stop offset="1" stop-color="#aa5e35"/></linearGradient><linearGradient x1="268.63664" y1="150.9655" x2="268.63664" y2="230.9655" gradientUnits="userSpaceOnUse" id="color-20"><stop offset="0" stop-color="#42d642"/><stop offset="1" stop-color="#2f982f"/></linearGradient><linearGradient x1="268.63664" y1="112.96548" x2="268.63664" y2="178.96548" gradientUnits="userSpaceOnUse" id="color-21"><stop offset="0" stop-color="#42d642"/><stop offset="1" stop-color="#2f982f"/></linearGradient><linearGradient x1="269.13664" y1="86.9655" x2="269.13664" y2="125.9655" gradientUnits="userSpaceOnUse" id="color-22"><stop offset="0" stop-color="#42d642"/><stop offset="1" stop-color="#2f982f"/></linearGradient><linearGradient x1="439.11413" y1="151.9655" x2="439.11413" y2="231.9655" gradientUnits="userSpaceOnUse" id="color-23"><stop offset="0" stop-color="#42d642"/><stop offset="1" stop-color="#2f982f"/></linearGradient><linearGradient x1="439.11413" y1="113.96548" x2="439.11413" y2="179.96548" gradientUnits="userSpaceOnUse" id="color-24"><stop offset="0" stop-color="#42d642"/><stop offset="1" stop-color="#2f982f"/></linearGradient><linearGradient x1="439.61413" y1="87.9655" x2="439.61413" y2="126.9655" gradientUnits="userSpaceOnUse" id="color-25"><stop offset="0" stop-color="#42d642"/><stop offset="1" stop-color="#2f982f"/></linearGradient><linearGradient x1="72.55836" y1="172.11823" x2="174.67538" y2="172.11823" gradientUnits="userSpaceOnUse" id="color-26"><stop offset="0" stop-color="#737a81"/><stop offset="1" stop-color="#e8edf2"/></linearGradient><linearGradient x1="607.25694" y1="186.58608" x2="607.25694" y2="339.1398" gradientUnits="userSpaceOnUse" id="color-27"><stop offset="0" stop-color="#8a4c2b"/><stop offset="1" stop-color="#aa5e35"/></linearGradient><linearGradient x1="607.25694" y1="151.96551" x2="607.25694" y2="231.96551" gradientUnits="userSpaceOnUse" id="color-28"><stop offset="0" stop-color="#42d642"/><stop offset="1" stop-color="#2f982f"/></linearGradient><linearGradient x1="607.25694" y1="113.96548" x2="607.25694" y2="179.96548" gradientUnits="userSpaceOnUse" id="color-29"><stop offset="0" stop-color="#42d642"/><stop offset="1" stop-color="#2f982f"/></linearGradient><linearGradient x1="607.75694" y1="87.9655" x2="607.75694" y2="126.9655" gradientUnits="userSpaceOnUse" id="color-30"><stop offset="0" stop-color="#42d642"/><stop offset="1" stop-color="#2f982f"/></linearGradient></defs><g transform="translate(-72.55836,6.58984)"><g data-paper-data="{&quot;isPaintingLayer&quot;:true}" fill-rule="nonzero" stroke-linejoin="miter" stroke-miterlimit="10" stroke-dasharray="" stroke-dashoffset="0" style="mix-blend-mode: normal"><path d="M79.29095,-0.28645h566.61025v361.05367h-566.61025z" fill="url(#color-1)" stroke="#000000" stroke-width="0" stroke-linecap="butt"/><path d="M159.30001,71.30005l-0.3,-0.3" fill="none" stroke="#cccccc" stroke-width="2" stroke-linecap="round"/><path d="M289.91894,15.45651l0.3,0.3" fill="none" stroke="#cccccc" stroke-width="2" stroke-linecap="round"/><path d="M237.78951,22.78952l-0.3,-0.3" fill="none" stroke="#cccccc" stroke-width="2" stroke-linecap="round"/><path d="M215.73546,55.76852l-0.3,-0.3" fill="none" stroke="#cccccc" stroke-width="2" stroke-linecap="round"/><path d="M259.91594,68.03908l0.3,0.3" fill="none" stroke="#cccccc" stroke-width="2" stroke-linecap="round"/><path d="M535.30002,41.30004l-0.3,-0.3" fill="none" stroke="#cccccc" stroke-width="2" stroke-linecap="round"/><path d="M485.83455,29.27603l-0.3,-0.3" fill="none" stroke="#cccccc" stroke-width="2" stroke-linecap="round"/><path d="M485.33305,77.28503l-0.3,-0.3" fill="none" stroke="#cccccc" stroke-width="2" stroke-linecap="round"/><g stroke="none" stroke-width="1" stroke-linecap="butt"><path d="M344.04356,26.98502c14.208,0 27.083,4.034 36.406,10.551c9.323,6.517 15.094,15.517 15.094,25.449c0,9.932 -5.771,18.932 -15.094,25.449c-9.323,6.517 -22.198,10.551 -36.406,10.551c-14.208,0 -27.083,-4.034 -36.406,-10.551c-9.323,-6.517 -15.094,-15.517 -15.094,-25.449c0,-9.932 5.771,-18.932 15.094,-25.449c9.323,-6.517 22.198,-10.551 36.406,-10.551z" fill="#718399"/><path d="M408.04356,10.98503c14.208,0 27.083,4.034 36.406,10.551c9.323,6.517 15.094,15.517 15.094,25.449c0,9.932 -5.771,18.932 -15.094,25.449c-9.323,6.517 -22.198,10.551 -36.406,10.551c-14.208,0 -27.083,-4.034 -36.406,-10.551c-9.323,-6.517 -15.094,-15.517 -15.094,-25.449c0,-9.932 5.771,-18.932 15.094,-25.449c9.323,-6.517 22.198,-10.551 36.406,-10.551z" fill="#718399"/><path d="M355.54356,42.48504c1.242,0 2.367,1.093 3.181,2.858c0.815,1.765 1.319,4.202 1.319,6.892c0,2.69 -0.504,5.127 -1.319,6.892c-0.814,1.765 -1.939,2.858 -3.181,2.858c-1.242,0 -2.367,-1.093 -3.181,-2.858c-0.815,-1.765 -1.319,-4.202 -1.319,-6.892c0,-2.69 0.504,-5.127 1.319,-6.892c0.814,-1.765 1.939,-2.858 3.181,-2.858z" fill="#000000"/><path d="M376.54356,41.98504c1.242,0 2.367,1.093 3.181,2.858c0.815,1.765 1.319,4.202 1.319,6.892c0,2.69 -0.504,5.127 -1.319,6.892c-0.814,1.765 -1.939,2.858 -3.181,2.858c-1.242,0 -2.367,-1.093 -3.181,-2.858c-0.815,-1.765 -1.319,-4.202 -1.319,-6.892c0,-2.69 0.504,-5.127 1.319,-6.892c0.814,-1.765 1.939,-2.858 3.181,-2.858z" fill="#000000"/></g><g stroke="none" stroke-width="1" stroke-linecap="butt"><path d="M168.18016,114.179h480v221.29555h-480z" data-paper-data="{&quot;origPos&quot;:null}" fill="url(#color-2)"/><g data-paper-data="{&quot;origPos&quot;:null}"><g data-paper-data="{&quot;origPos&quot;:null}"><path d="M527.41318,95.43682h23.23363v20.16774h-23.23363z" data-paper-data="{&quot;origPos&quot;:null}" fill="url(#color-3)"/><path d="M625.09655,95.30877h23.23363v20.16775h-23.23363z" data-paper-data="{&quot;origPos&quot;:null}" fill="url(#color-4)"/><path d="M592.00778,95.11668h23.23363v20.16773h-23.23363z" data-paper-data="{&quot;origPos&quot;:null}" fill="url(#color-5)"/><path d="M559.42962,94.92464h23.23363v20.16774h-23.23363z" data-paper-data="{&quot;origPos&quot;:null}" fill="url(#color-6)"/></g><g data-paper-data="{&quot;origPos&quot;:null}"><path d="M396.69209,95.43682h23.23363v20.16774h-23.23363z" data-paper-data="{&quot;origPos&quot;:null}" fill="url(#color-7)"/><path d="M494.37545,95.30877h23.23363v20.16775h-23.23363z" data-paper-data="{&quot;origPos&quot;:null}" fill="url(#color-8)"/><path d="M461.28665,95.11668h23.23363v20.16773h-23.23363z" data-paper-data="{&quot;origPos&quot;:null}" fill="url(#color-9)"/><path d="M428.70854,94.92464h23.23363v20.16774h-23.23363z" data-paper-data="{&quot;origPos&quot;:null}" fill="url(#color-10)"/></g><path d="M298.65127,96.71729h23.23363v20.16773h-23.23363z" data-paper-data="{&quot;origPos&quot;:null}" fill="url(#color-11)"/><path d="M363.24585,96.39721h23.23363v20.16773h-23.23363z" data-paper-data="{&quot;origPos&quot;:null}" fill="url(#color-12)"/><path d="M330.66767,96.20511h23.23363v20.16774h-23.23363z" data-paper-data="{&quot;origPos&quot;:null}" fill="url(#color-13)"/><g data-paper-data="{&quot;origPos&quot;:null}"><path d="M167.93016,96.71729h23.23363v20.16773h-23.23363z" data-paper-data="{&quot;origPos&quot;:null}" fill="url(#color-14)"/><path d="M265.61354,96.58924h23.23363v20.16773h-23.23363z" data-paper-data="{&quot;origPos&quot;:null}" fill="url(#color-15)"/><path d="M232.52478,96.39721h23.23363v20.16773h-23.23363z" data-paper-data="{&quot;origPos&quot;:null}" fill="url(#color-16)"/><path d="M199.94663,96.20511h23.23363v20.16774h-23.23363z" data-paper-data="{&quot;origPos&quot;:null}" fill="url(#color-17)"/></g></g></g><path d="M254.63664,185.64809h28v149.74598h-28z" fill="url(#color-18)" stroke="none" stroke-width="1.78564" stroke-linecap="butt"/><path d="M425.11413,186.58608h28v152.55372h-28z" fill="url(#color-19)" stroke="none" stroke-width="1.81391" stroke-linecap="butt"/><path d="M268.63664,150.9655c11.036,0 21.036,4.482 28.277,11.723c7.241,7.241 11.723,17.241 11.723,28.277c0,11.036 -4.482,21.036 -11.723,28.277c-7.241,7.241 -17.241,11.723 -28.277,11.723c-11.036,0 -21.036,-4.482 -28.277,-11.723c-7.241,-7.241 -11.723,-17.241 -11.723,-28.277c0,-11.036 4.482,-21.036 11.723,-28.277c7.241,-7.241 17.241,-11.723 28.277,-11.723z" fill="url(#color-20)" stroke="none" stroke-width="1" stroke-linecap="butt"/><path d="M268.63664,112.96548c9.104,0 17.354,3.698 23.328,9.672c5.974,5.974 9.672,14.224 9.672,23.328c0,9.104 -3.698,17.354 -9.672,23.328c-5.974,5.974 -14.224,9.672 -23.328,9.672c-9.104,0 -17.354,-3.698 -23.328,-9.672c-5.974,-5.974 -9.672,-14.224 -9.672,-23.328c0,-9.104 3.698,-17.354 9.672,-23.328c5.974,-5.974 14.224,-9.672 23.328,-9.672z" fill="url(#color-21)" stroke="none" stroke-width="1" stroke-linecap="butt"/><path d="M269.13664,86.9655c5.38,0 10.255,2.185 13.785,5.715c3.53,3.53 5.715,8.405 5.715,13.785c0,5.38 -2.185,10.255 -5.715,13.785c-3.53,3.53 -8.405,5.715 -13.785,5.715c-5.38,0 -10.255,-2.185 -13.785,-5.715c-3.53,-3.53 -5.715,-8.405 -5.715,-13.785c0,-5.38 2.185,-10.255 5.715,-13.785c3.53,-3.53 8.405,-5.715 13.785,-5.715z" fill="url(#color-22)" stroke="none" stroke-width="1" stroke-linecap="butt"/><path d="M439.11413,151.9655c11.036,0 21.036,4.482 28.277,11.723c7.241,7.241 11.723,17.241 11.723,28.277c0,11.036 -4.482,21.036 -11.723,28.277c-7.241,7.241 -17.241,11.723 -28.277,11.723c-11.036,0 -21.036,-4.482 -28.277,-11.723c-7.241,-7.241 -11.723,-17.241 -11.723,-28.277c0,-11.036 4.482,-21.036 11.723,-28.277c7.241,-7.241 17.241,-11.723 28.277,-11.723z" fill="url(#color-23)" stroke="none" stroke-width="1" stroke-linecap="butt"/><path d="M439.11413,113.96548c9.104,0 17.354,3.698 23.328,9.672c5.974,5.974 9.672,14.224 9.672,23.328c0,9.104 -3.698,17.354 -9.672,23.328c-5.974,5.974 -14.224,9.672 -23.328,9.672c-9.104,0 -17.354,-3.698 -23.328,-9.672c-5.974,-5.974 -9.672,-14.224 -9.672,-23.328c0,-9.104 3.698,-17.354 9.672,-23.328c5.974,-5.974 14.224,-9.672 23.328,-9.672z" fill="url(#color-24)" stroke="none" stroke-width="1" stroke-linecap="butt"/><path d="M439.61413,87.9655c5.38,0 10.255,2.185 13.785,5.715c3.53,3.53 5.715,8.405 5.715,13.785c0,5.38 -2.185,10.255 -5.715,13.785c-3.53,3.53 -8.405,5.715 -13.785,5.715c-5.38,0 -10.255,-2.185 -13.785,-5.715c-3.53,-3.53 -5.715,-8.405 -5.715,-13.785c0,-5.38 2.185,-10.255 5.715,-13.785c3.53,-3.53 8.405,-5.715 13.785,-5.715z" fill="url(#color-25)" stroke="none" stroke-width="1" stroke-linecap="butt"/><path d="M72.55836,-6.58983h102.11702v357.41613h-102.11702z" fill="url(#color-26)" stroke="none" stroke-width="1.11058" stroke-linecap="butt"/><path d="M581.91072,16.00423l-0.3,-0.3" fill="none" stroke="#cccccc" stroke-width="2" stroke-linecap="round"/><path d="M589.12365,58.70476l-0.3,-0.3" fill="none" stroke="#cccccc" stroke-width="2" stroke-linecap="round"/><path d="M622.58014,32.72675l0.3,0.3" fill="none" stroke="#cccccc" stroke-width="2" stroke-linecap="round"/><path d="M593.25694,186.58608h28v152.55372h-28z" fill="url(#color-27)" stroke="none" stroke-width="1.81391" stroke-linecap="butt"/><path d="M607.25694,151.96551c11.036,0 21.036,4.482 28.277,11.723c7.241,7.241 11.723,17.241 11.723,28.277c0,11.036 -4.482,21.036 -11.723,28.277c-7.241,7.241 -17.241,11.723 -28.277,11.723c-11.036,0 -21.036,-4.482 -28.277,-11.723c-7.241,-7.241 -11.723,-17.241 -11.723,-28.277c0,-11.036 4.482,-21.036 11.723,-28.277c7.241,-7.241 17.241,-11.723 28.277,-11.723z" fill="url(#color-28)" stroke="none" stroke-width="1" stroke-linecap="butt"/><path d="M607.25694,113.96548c9.104,0 17.354,3.698 23.328,9.672c5.974,5.974 9.672,14.224 9.672,23.328c0,9.104 -3.698,17.354 -9.672,23.328c-5.974,5.974 -14.224,9.672 -23.328,9.672c-9.104,0 -17.354,-3.698 -23.328,-9.672c-5.974,-5.974 -9.672,-14.224 -9.672,-23.328c0,-9.104 3.698,-17.354 9.672,-23.328c5.974,-5.974 14.224,-9.672 23.328,-9.672z" fill="url(#color-29)" stroke="none" stroke-width="1" stroke-linecap="butt"/><path d="M607.75694,87.9655c5.38,0 10.255,2.185 13.785,5.715c3.53,3.53 5.715,8.405 5.715,13.785c0,5.38 -2.185,10.255 -5.715,13.785c-3.53,3.53 -8.405,5.715 -13.785,5.715c-5.38,0 -10.255,-2.185 -13.785,-5.715c-3.53,-3.53 -5.715,-8.405 -5.715,-13.785c0,-5.38 2.185,-10.255 5.715,-13.785c3.53,-3.53 8.405,-5.715 13.785,-5.715z" fill="url(#color-30)" stroke="none" stroke-width="1" stroke-linecap="butt"/></g></g></svg>