<svg version="1.1" xmlns="http://www.w3.org/2000/svg" xmlns:xlink="http://www.w3.org/1999/xlink" width="33.72791" height="30.51022" viewBox="0,0,33.72791,30.51022"><g transform="translate(-221.74222,-95.88577)"><g data-paper-data="{&quot;isPaintingLayer&quot;:true}" fill-rule="nonzero" stroke="none" stroke-linejoin="miter" stroke-miterlimit="10" stroke-dasharray="" stroke-dashoffset="0" style="mix-blend-mode: normal"><g fill="#ffdb26" stroke-width="0.83998" stroke-linecap="butt"><path d="M230.57497,112.30313c0.57373,0.58665 0.84403,1.24874 0.67465,1.84758c-0.16938,0.59884 -0.74648,1.02118 -1.5425,1.22032c-0.79608,0.1992 -1.81089,0.17477 -2.85443,-0.12039c-1.04359,-0.29522 -1.92081,-0.80606 -2.49448,-1.39277c-0.57373,-0.58665 -0.84403,-1.24874 -0.67465,-1.84757c0.16938,-0.59884 0.74647,-1.02118 1.54249,-1.22033c0.79602,-0.1992 1.81089,-0.17477 2.85443,0.12046c1.04354,0.29522 1.92081,0.80606 2.49448,1.39271z"/><path d="M228.93174,114.34073c0.70563,0.41886 1.13753,0.98879 1.12829,1.61108c-0.00919,0.62222 -0.45787,1.17912 -1.17556,1.57685c-0.71776,0.39779 -1.70453,0.63594 -2.78891,0.61984c-1.08438,-0.01604 -2.06368,-0.28341 -2.76931,-0.70226c-0.70563,-0.41886 -1.13753,-0.98879 -1.12829,-1.61102c0.00919,-0.62229 0.45781,-1.17918 1.17556,-1.57691c0.71769,-0.39779 1.70453,-0.63594 2.78891,-0.61984c1.08438,0.0161 2.06368,0.28341 2.76931,0.70226z"/><path d="M228.47853,120.76208c-1.04354,0.29522 -2.05841,0.31966 -2.85443,0.12046c-0.79602,-0.1992 -1.37311,-0.62156 -1.54249,-1.22033c-0.16938,-0.59884 0.10092,-1.26092 0.67465,-1.84757c0.57366,-0.58671 1.45088,-1.09755 2.49448,-1.39277c1.04354,-0.29522 2.05835,-0.3196 2.85443,-0.12046c0.79602,0.1992 1.37311,0.62155 1.54249,1.22039c0.16938,0.59884 -0.10092,1.26087 -0.67465,1.84757c-0.57366,0.58665 -1.45094,1.09748 -2.49448,1.39271z"/></g><path d="M248.03067,104.70113l-16.23263,2.42155c0,0 0.40291,-5.18132 3.74785,-8.21599c3.42817,-3.11017 6.04558,-2.71638 6.04558,-2.71638c0,0 -0.3689,0.67931 -0.1711,2.25844c0.19127,1.52698 0.59195,1.92064 0.59195,1.92064c0,0 -0.13294,-0.94229 0.28697,-2.43448c0.37792,-1.34299 1.06224,-1.97883 1.06224,-1.97883c0,0 0.62742,-0.11089 1.41791,-0.05416c0.90365,0.06485 1.54598,0.53024 1.54598,0.53024c0,0 -0.64308,0.61071 -0.99956,1.92187c-0.306,1.12551 -0.19606,2.09493 -0.19606,2.09493c0,0 0.38565,-0.78154 0.95655,-2.05077c0.73398,-1.63181 1.44282,-2.01091 1.44282,-2.01091c0,0 1.0258,0.13352 2.00101,0.42761c1.08002,0.32569 1.85841,1.04018 1.85841,1.04018c0,0 -1.41529,0.45005 -2.69114,3.10304c-1.34303,2.79269 -0.66679,3.74301 -0.66679,3.74301z" fill="#ffdb26" stroke-width="0.88955" stroke-linecap="round"/><g stroke-linecap="butt"><path d="M250.31109,105.27972c2.3472,2.24513 3.80036,5.34603 3.80036,8.76791c0,3.42188 -1.45315,6.52277 -3.80036,8.76791c-2.3472,2.24513 -5.58908,3.46194 -9.16654,3.46194c-3.57746,0 -6.81932,-1.2168 -9.16653,-3.46194c-2.34721,-2.24513 -3.80036,-5.34603 -3.80036,-8.76791c0,-3.42188 1.45315,-6.52277 3.80036,-8.76791c2.34721,-2.24513 5.58908,-3.63509 9.16653,-3.63509c3.57746,0 6.81933,1.38996 9.16654,3.63509z" fill="#ff1919" stroke-width="1"/><path d="M242.09308,120.4749c7.18442,-1.12635 9.89583,0.10526 9.89583,0.10526c0,0 -1.043,4.34666 -7.75072,5.51699c-7.71758,1.34652 -11.14567,-2.29389 -11.14567,-2.29389c0,0 1.82336,-2.20314 9.00056,-3.32836z" fill="#ffffff" stroke-width="0"/></g><path d="M254.04872,105.34484c0.70553,1.00186 1.21975,2.44205 1.37431,4.0807c0.15456,1.63863 -0.07945,3.16923 -0.58222,4.31707c-0.5027,1.14854 -1.27461,1.91511 -2.19526,2.02634c-0.92065,0.11123 -1.81809,-0.45365 -2.52368,-1.45621c-0.70559,-1.00186 -1.21981,-2.44205 -1.37436,-4.08068c-0.15456,-1.63863 0.07945,-3.16923 0.58227,-4.31708c0.5027,-1.14854 1.27456,-1.9151 2.19521,-2.02633c0.92065,-0.11123 1.81814,0.45364 2.52374,1.4562z" fill="#ffffff" stroke-width="0.9259" stroke-linecap="butt"/><path d="M249.27697,105.49802c0.7985,1.00186 1.38047,2.44205 1.5554,4.0807c0.17493,1.63864 -0.08992,3.16923 -0.65894,4.31707c-0.56894,1.14854 -1.44256,1.91511 -2.48453,2.02634c-1.04197,0.11123 -2.05766,-0.45365 -2.85623,-1.45621c-0.79856,-1.00186 -1.38054,-2.44205 -1.55547,-4.08068c-0.17493,-1.63864 0.08992,-3.16923 0.659,-4.31708c0.56894,-1.14854 1.4425,-1.9151 2.48447,-2.02634c1.04197,-0.11123 2.05772,0.45364 2.8563,1.45621z" fill="#ffffff" stroke-width="0.9259" stroke-linecap="butt"/><path d="M253.98707,114.64397c0.63472,0.74831 1.02737,1.78199 1.02737,2.92222c0,1.14023 -0.39265,2.17391 -1.02737,2.92222c-0.63472,0.74831 -1.51144,1.21126 -2.47843,1.21126c-0.96699,0 -1.84378,-0.46295 -2.4785,-1.21126c-0.63466,-0.74831 -1.02731,-1.78199 -1.02731,-2.92222c0,-1.14023 0.39265,-2.1739 1.02731,-2.92222c0.63472,-0.74831 1.5115,-1.21126 2.4785,-1.21126c0.96699,0 1.84372,0.46295 2.47843,1.21126z" fill="#ffadbc" stroke-width="0.99783" stroke-linecap="round"/><path d="M253.33521,117.132c0.05844,0.30209 0.02233,0.66693 -0.12269,1.02217c-0.14502,0.35518 -0.37193,0.63467 -0.62083,0.79928c-0.24915,0.16398 -0.52045,0.21351 -0.75495,0.1086c-0.23456,-0.10485 -0.38786,-0.34439 -0.44682,-0.64618c-0.05844,-0.30209 -0.02233,-0.66693 0.1227,-1.02212c0.14502,-0.35525 0.37193,-0.63472 0.62088,-0.79928c0.2491,-0.16403 0.52039,-0.21357 0.75496,-0.10865c0.23451,0.10492 0.3878,0.34439 0.44676,0.64618z" fill="#6d3f57" stroke-width="0.73984" stroke-linecap="butt"/><g fill="#000000" stroke-width="0" stroke-linecap="butt"><path d="M253.29062,110.75925c0,0.99246 -0.48763,1.79702 -1.08915,1.79702c-0.60152,0 -1.08914,-0.80456 -1.08914,-1.79702c0,-0.99246 0.48762,-1.79702 1.08914,-1.79702c0.60152,0 1.08915,0.80456 1.08915,1.79702z" data-paper-data="{&quot;index&quot;:null}"/></g><path d="M238.58674,115.9131c-1.62706,2.45361 -2.62155,2.75125 -8.13377,1.54695c-3.75421,-1.09794 -7.13573,-3.28932 -6.84523,-4.81275c0.23226,-1.21802 4.36571,-0.90549 4.36571,-0.90549c0,0 -6.53478,-2.74886 -5.91472,-3.98064c0.63469,-1.26084 4.21018,-1.21787 4.21018,-1.21787c0,0 -5.12419,-2.53743 -4.46878,-3.59581c0.73734,-1.19066 3.99046,-0.93705 8.51442,0.85155c3.76418,1.48822 10.30624,6.19916 8.2722,12.11406z" fill="#ffffff" stroke-width="0.5" stroke-linecap="butt"/><g fill="#000000" stroke-width="0" stroke-linecap="butt"><path d="M249.91157,111.00061c0,0.99246 -0.48762,1.79702 -1.08915,1.79702c-0.60152,0 -1.08914,-0.80456 -1.08914,-1.79702c0,-0.99246 0.48762,-1.79702 1.08914,-1.79702c0.60152,0 1.08915,0.80456 1.08915,1.79702z" data-paper-data="{&quot;index&quot;:null}"/></g></g></g></svg>