<svg version="1.1" xmlns="http://www.w3.org/2000/svg" xmlns:xlink="http://www.w3.org/1999/xlink" width="99.40262" height="103.34997" viewBox="0,0,99.40262,103.34997"><defs><linearGradient x1="246.70196" y1="138.11996" x2="246.70196" y2="174.00955" gradientUnits="userSpaceOnUse" id="color-1"><stop offset="0" stop-color="#e73a0f"/><stop offset="1" stop-color="#921d13"/></linearGradient><linearGradient x1="233.24337" y1="170.48468" x2="225.71296" y2="170.48468" gradientUnits="userSpaceOnUse" id="color-2"><stop offset="0" stop-color="#921d13"/><stop offset="1" stop-color="#a82317"/></linearGradient><radialGradient cx="213.00942" cy="146.14" r="4.44012" gradientUnits="userSpaceOnUse" id="color-3"><stop offset="0" stop-color="#ffffff"/><stop offset="1" stop-color="#a08e90"/></radialGradient><radialGradient cx="219.2886" cy="144.12765" r="6.93432" gradientUnits="userSpaceOnUse" id="color-4"><stop offset="0" stop-color="#ffffff"/><stop offset="1" stop-color="#a08e90"/></radialGradient></defs><g transform="translate(-204.28881,-120.48769)"><g data-paper-data="{&quot;isPaintingLayer&quot;:true}" fill-rule="nonzero" stroke-linejoin="miter" stroke-miterlimit="10" stroke-dasharray="" stroke-dashoffset="0" style="mix-blend-mode: normal"><g stroke="none" stroke-linecap="round"><path d="M296.68836,198.91778c2.00945,-0.33521 4.17994,0.97035 5.53971,2.46679c1.19882,1.25219 1.62483,3.28209 1.40994,4.99834c-0.31729,2.544 -1.66776,4.88644 -2.79892,7.19541c-1.59868,3.2645 -2.49604,7.28078 -5.3521,9.52016c-1.53414,1.23299 -4.63251,0.86709 -5.82709,-0.67852c-1.94021,-2.51024 -2.17123,-6.20699 -1.996,-9.41665c0.219,-3.39865 1.30742,-6.86565 3.14048,-9.77252c1.29593,-2.05417 3.4879,-3.91306 5.88399,-4.31301z" data-paper-data="{&quot;index&quot;:null}" fill="#d8b199" stroke-width="0.47213"/><path d="M300.02224,182.98896c1.33676,3.23536 -6.24108,6.95801 -6.05489,10.77584c0.20225,4.04465 7.80865,4.35906 7.36004,8.61371c-0.46362,4.34374 -5.19504,9.93629 -9.7705,10.74864c-6.18099,1.09226 -11.69815,-2.70814 -15.54486,-6.63715c-2.9382,-3.00481 -4.40874,-8.17525 -2.95497,-12.80104c2.19991,-6.99367 5.82589,-16.08602 12.70098,-18.7739c6.02255,-2.43027 12.18389,3.03536 14.2642,8.07392z" data-paper-data="{&quot;index&quot;:null}" fill="#814719" stroke-width="0.43026"/></g><g stroke="none" stroke-linecap="round"><path d="M243.45877,143.35587c4.40545,7.27896 4.54569,16.57066 6.08077,24.98771c1.37831,7.55344 3.76409,15.39154 2.97441,23.00554c-0.54713,4.01489 -2.97729,9.06399 -6.73449,9.70188c-4.23807,0.71958 -9.40901,-2.56335 -11.93373,-6.51141c-3.75413,-6.26025 -3.68048,-14.32303 -5.31379,-21.53198c-1.93383,-8.53473 -5.92485,-17.18744 -5.01603,-25.79677c0.52623,-3.87516 5.25273,-6.21302 8.77614,-6.91063c3.7264,-0.73794 9.01439,-0.32864 11.16673,3.05568z" data-paper-data="{&quot;index&quot;:null}" fill="#814719" stroke-width="0.40022"/><path d="M249.38742,194.17963c2.63341,2.13933 1.96601,7.34722 4.98859,8.89566c2.02538,1.03599 3.83789,-3.7864 6.13031,-3.33368c1.77603,0.38129 3.34,3.57556 2.23795,5.04984c-2.76685,3.70177 -7.195,6.46019 -11.69033,7.47901c-3.57613,0.81118 -8.21725,-0.02836 -10.70399,-2.58804c-2.97114,-3.06567 -4.47715,-7.9712 -3.96128,-12.19691c0.31791,-2.38944 3.70289,-3.42904 6.0034,-4.00172c2.27103,-0.56557 5.15599,-0.74503 6.99534,0.69584z" data-paper-data="{&quot;index&quot;:null}" fill="#d8b199" stroke-width="0.47213"/></g><path d="M251.73589,141.07889c7.02709,2.10604 15.63298,6.51641 24.14783,12.73143c8.51485,6.21519 15.33861,13.06702 19.48663,19.11756c4.14766,6.0491 6.8288,11.58735 3.4243,14.3025c-5.71405,4.54857 -16.23831,5.16559 -25.03118,2.42364c-13.09707,-4.08504 -25.28381,-13.40513 -36.77814,-21.90108c-5.39682,-3.98643 -13.4879,-9.21374 -13.57481,-14.85168c0.12578,-6.1191 8.24368,-8.43045 13.65975,-10.72364c4.17735,-1.77242 7.64015,-3.20495 14.66562,-1.09873z" data-paper-data="{&quot;index&quot;:null}" fill="#96521e" stroke="none" stroke-width="0.5448" stroke-linecap="round"/><g data-paper-data="{&quot;index&quot;:null}" stroke="none" stroke-width="1"><path d="M246.38152,144.36856l-0.96132,7.37018l-2.56354,9.13262l-5.9282,8.17129l-4.16576,4.96686l-2.72376,-0.64088l6.24863,-9.61328l4.32599,-7.37018l1.76243,-5.60775l0.80111,-6.56907v-6.08841l3.52487,0.32044z" fill="url(#color-1)" stroke-linecap="round"/><g><path d="M235.48646,202.68918l-7.85085,9.61328l-4.64641,-11.21549l5.12708,-23.07189l3.68509,0.32045z" fill="#ed0000" stroke-linecap="round"/><path d="M231.9616,178.49575l-4.16577,0.16022l-2.08287,-6.56908l2.2431,-1.44199l3.52486,-0.16022l1.76244,2.2431z" fill="url(#color-2)" stroke-linecap="round"/><text transform="translate(233.48177,204.01943) rotate(-180) scale(0.28142,-0.38042)" font-size="22" xml:space="preserve" fill="#ffff00" fill-rule="nonzero" stroke="none" stroke-width="1" stroke-linecap="butt" stroke-linejoin="miter" stroke-miterlimit="10" stroke-dasharray="" stroke-dashoffset="0" font-family="Sans Serif" font-weight="400" text-anchor="start" style="mix-blend-mode: normal"><tspan x="0" dy="0">DK</tspan></text><text transform="translate(233.06296,203.58469) rotate(-180) scale(0.25043,-0.33853)" font-size="22" xml:space="preserve" fill="#ff0000" fill-rule="nonzero" stroke="none" stroke-width="1" stroke-linecap="butt" stroke-linejoin="miter" stroke-miterlimit="10" stroke-dasharray="" stroke-dashoffset="0" font-family="Sans Serif" font-weight="400" text-anchor="start" style="mix-blend-mode: normal"><tspan x="0" dy="0">DK</tspan></text><text transform="translate(232.63997,203.35884) rotate(-180) scale(0.22165,-0.29962)" font-size="22" xml:space="preserve" fill="#ffff00" fill-rule="nonzero" stroke="none" stroke-width="1" stroke-linecap="butt" stroke-linejoin="miter" stroke-miterlimit="10" stroke-dasharray="" stroke-dashoffset="0" font-family="Sans Serif" font-weight="400" text-anchor="start" style="mix-blend-mode: normal"><tspan x="0" dy="0">DK</tspan></text></g></g><g data-paper-data="{&quot;index&quot;:null}"><path d="M241.07819,133.1531c2.30078,3.76136 2.60425,8.68945 2.2431,13.05804c-0.32269,3.90331 -1.66053,8.13092 -4.34359,10.92999c-2.68275,2.79874 -6.68444,4.78293 -10.47688,4.53137c-4.72108,-0.31243 -9.54214,-2.70839 -13.05804,-5.9282c-1.9531,-1.87139 -1.57337,-4.56983 -1.92266,-6.88951c-0.24418,-1.83357 0.31723,-3.63863 0.16022,-5.44753c-0.1128,-1.32599 -1.41187,-2.64333 -1.12155,-4.00554c0.88986,-3.30121 3.10958,-6.12943 4.4862,-9.29284c0.47521,-1.08533 1.04241,-2.19823 0.96133,-3.36464c-0.02276,-0.81617 -0.54059,-2.13639 -1.28177,-2.08288c-0.97831,0.06281 -1.97649,2.80707 -2.2431,2.40332c-0.3025,-0.48772 -0.23457,-3.44669 0.80111,-4.64642c1.35644,-1.31478 3.51269,-1.80793 5.44753,-1.92265c1.58107,-0.09261 2.90353,1.63586 4.4862,1.60221c1.08886,-0.02467 1.68264,-1.74032 2.72376,-1.60221c0.79118,0.11023 0.70402,1.35579 1.12156,1.92265c0.49156,0.82354 0.75657,1.49903 1.60221,2.24311c3.35984,2.9548 8.01811,4.58425 10.41438,8.49173z" fill="#814719" stroke="none" stroke-width="1" stroke-linecap="round"/><path d="M215.73693,145.2312c0.36275,0.38421 0.58705,0.91486 0.58705,1.50063c0,0.58578 -0.2243,1.11643 -0.58705,1.50064c-0.36242,0.38453 -0.86327,0.6223 -1.41571,0.6223c-0.55244,0 -1.0533,-0.23776 -1.41572,-0.6223c-0.36275,-0.38421 -0.58705,-0.91486 -0.58705,-1.50064c0,-0.58578 0.2243,-1.11642 0.58705,-1.50063c0.36242,-0.38453 0.86328,-0.6223 1.41572,-0.6223c0.55244,0 1.05329,0.23776 1.41571,0.6223z" fill="url(#color-3)" stroke="none" stroke-width="1" stroke-linecap="butt"/><path d="M223.59483,142.87339c0.754,0.6598 1.22088,1.57112 1.22088,2.57667c0,1.00555 -0.46688,1.91688 -1.22088,2.57667c-0.754,0.6598 -1.79543,1.06836 -2.94487,1.06836c-1.14943,0 -2.19087,-0.40857 -2.94487,-1.06836c-0.754,-0.6598 -1.22089,-1.57112 -1.22089,-2.57667c0,-1.00555 0.46689,-1.91688 1.22089,-2.57667c0.754,-0.6598 1.79544,-1.06836 2.94487,-1.06836c1.14943,0 2.19087,0.40856 2.94487,1.06836z" fill="url(#color-4)" stroke="none" stroke-width="1" stroke-linecap="butt"/><path d="M230.34336,132.67243c1.01772,1.86049 1.37886,4.25163 0.72099,6.24863c-1.08053,3.58319 -3.44348,6.69885 -5.68786,9.69339c-0.5611,0.74856 -1.42533,0.70786 -1.60222,0.24033c-0.32364,-0.8636 0.26437,-2.07935 0.64089,-3.04421c0.73413,-1.88068 2.06589,-3.47424 2.72376,-5.36741c0.25955,-0.74599 0.38325,-2.26521 -0.08011,-2.32321c-0.57327,-0.07145 -1.07862,1.69194 -1.92266,2.16299c-2.48023,1.37855 -5.06331,2.54527 -7.77074,3.28454c-1.72526,0.50405 -3.55243,0.69248 -5.36741,0.40056c-0.59955,-0.0987 -0.93473,-0.86937 -0.96133,-1.52211c-0.05672,-1.28305 -0.11248,-2.90578 0.88122,-3.76521c0.86807,-0.74951 2.39051,0.56206 3.44476,0.08011c2.58822,-1.21416 4.61822,-3.44187 7.04973,-4.96686c1.46507,-0.91935 2.88527,-2.07165 4.64642,-2.32321c1.15295,-0.16439 2.72569,0.18008 3.28454,1.20166z" fill="#edc2a8" stroke="none" stroke-width="1" stroke-linecap="round"/><path d="M243.48151,138.60062c1.06419,1.41123 1.51603,3.41048 1.20166,5.12709c-0.29192,1.83486 -1.47468,3.53126 -2.88398,4.72652c-1.38656,1.17603 -3.27076,2.09346 -5.04697,2.08289c-1.24331,-0.00706 -2.70742,-0.92448 -3.04421,-2.16299c-0.36626,-1.35259 0.99947,-2.62474 1.52211,-3.92542c0.60019,-1.49263 0.80687,-3.14771 1.76243,-4.40608c0.77835,-1.02606 1.92523,-1.99892 3.20443,-2.32321c1.10265,-0.20508 2.60263,-0.02308 3.28453,0.88121z" fill="#edc2a8" stroke="none" stroke-width="1" stroke-linecap="round"/><path d="M238.03399,145.16968c0,0 0.19804,-0.54123 0.32044,-0.80111c0.09165,-0.19451 0.21373,-0.37395 0.32044,-0.56077c0.1067,-0.18681 0.18939,-0.39031 0.32045,-0.56078c0.13812,-0.17944 0.28583,-0.36562 0.48066,-0.48066c0.4012,-0.23712 0.83988,-0.41338 1.28177,-0.56078c0.20412,-0.06794 0.42683,-0.0596 0.64089,-0.08011c0.34639,-0.033 1.04143,-0.08011 1.04143,-0.08011" fill="none" stroke="#8f4d28" stroke-width="2" stroke-linecap="round"/><g fill="#000000" stroke="none" stroke-width="1.0037" stroke-linecap="butt"><path d="M214.54454,145.46579c0.2031,0.23956 0.32871,0.56994 0.32871,0.93457c0,0.36463 -0.12561,0.69501 -0.32871,0.93457c-0.2031,0.23922 -0.48342,0.38725 -0.79284,0.38725c-0.30939,0 -0.58972,-0.14804 -0.79284,-0.38725c-0.2031,-0.23956 -0.32871,-0.56994 -0.32871,-0.93457c0,-0.36463 0.12561,-0.69501 0.32871,-0.93457c0.20313,-0.23922 0.48346,-0.38726 0.79284,-0.38726c0.30942,0 0.58974,0.14804 0.79284,0.38726z"/></g><g fill="#000000" stroke="none" stroke-width="1" stroke-linecap="butt"><path d="M219.75625,144.70153c0.30474,0.30442 0.49316,0.72517 0.49316,1.18917c0,0.464 -0.18842,0.88475 -0.49316,1.18917c-0.30442,0.30474 -0.72517,0.49317 -1.18917,0.49317c-0.464,0 -0.88475,-0.18842 -1.18916,-0.49317c-0.30474,-0.30442 -0.49316,-0.72517 -0.49316,-1.18917c0,-0.464 0.18842,-0.88475 0.49316,-1.18917c0.30442,-0.30474 0.72516,-0.49316 1.18916,-0.49316c0.464,0 0.88475,0.18841 1.18917,0.49316z"/></g><path d="M231.00274,153.37178c1.99828,-1.44423 3.29127,-5.22835 5.76797,-4.64642c3.07432,0.72837 6.24736,4.56695 5.60775,7.69063c-1.23819,6.04196 -6.01086,11.0229 -10.57461,15.22102c-2.25912,1.94861 -5.77855,2.28188 -8.81218,2.2431c-3.25282,-0.04069 -6.96035,-0.34032 -9.61329,-2.2431c-3.48193,-2.69845 -8.78621,-7.38748 -7.69062,-10.73482c1.05041,-3.17078 8.19949,-1.72494 12.17683,-2.56354c2.28283,-0.48291 4.75888,-0.40088 6.88951,-1.28177c2.32033,-0.80175 4.31221,-2.28764 6.24864,-3.68509z" fill="#edc2a8" stroke="none" stroke-width="1" stroke-linecap="round"/><g fill="#edc2a8" stroke="none" stroke-width="1" stroke-linecap="round"><path d="M237.63344,149.41556c0.83058,0.27878 0.1458,1.17666 -0.96133,1.84255c-4.16159,2.59719 -8.38343,5.42734 -13.13816,6.88952c-4.19684,1.29074 -8.74712,0.36915 -13.13815,1.12155c-1.83646,0.31596 -3.23777,1.95439 -5.12709,2.2431c-0.47682,0.07307 -1.09527,-0.47137 -0.96132,-1.04144c0.40055,-1.52819 1.68136,-2.65391 2.56354,-4.00554c1.30849,-1.8182 2.1311,-4.27927 3.47484,-6.10417c0.65505,-0.88961 1.43395,-1.62804 2.45335,-2.06712c4.41089,-1.8999 9.6277,-0.58769 14.41992,-0.32044c3.50661,0.10735 7.09526,0.3291 10.4144,1.44199z"/></g></g><path d="M211.63081,152.20799c0.17059,0.30626 0.08799,2.26871 -0.04103,2.53142c-0.11444,0.23338 -0.55404,-0.96107 -0.54684,-1.55866c0.00522,-0.44752 0.48782,-1.43719 0.57815,-1.18077z" data-paper-data="{&quot;index&quot;:null}" fill="none" stroke="#b1695f" stroke-width="0.81869" stroke-linecap="round"/><path d="M216.13543,152.75403c0.17059,0.30626 0.08799,2.26871 -0.04103,2.53143c-0.11444,0.23338 -0.55404,-0.96107 -0.54684,-1.55866c0.00522,-0.44752 0.48782,-1.4372 0.57815,-1.18078z" data-paper-data="{&quot;index&quot;:null}" fill="none" stroke="#b1695f" stroke-width="0.8187" stroke-linecap="round"/><g stroke="none" stroke-linecap="round"><path d="M274.12953,198.63483c0.46828,1.98266 -0.68983,4.23528 -2.09242,5.69168c-1.16959,1.27955 -3.16663,1.83979 -4.89335,1.73966c-2.55949,-0.14718 -4.98665,-1.33867 -7.36583,-2.31356c-3.3637,-1.37775 -7.43084,-2.00566 -9.85543,-4.70626c-1.33242,-1.44865 -1.17364,-4.56449 0.28898,-5.85935c2.37548,-2.10306 6.04862,-2.57973 9.26284,-2.61864c3.40569,-0.00782 6.93747,0.84732 9.95995,2.48275c2.13591,1.15626 4.13662,3.21958 4.69527,5.58372z" data-paper-data="{&quot;index&quot;:null}" fill="#edc2a8" stroke-width="0.47213"/><path d="M291.4281,197.26584c-3.13915,1.54923 -7.35819,-5.76389 -11.15513,-5.32387c-4.0222,0.47114 -3.82941,8.08159 -8.10448,7.9173c-4.36497,-0.17335 -10.26015,-4.52183 -11.37541,-9.03303c-1.50144,-6.09453 1.92313,-11.85252 5.58728,-15.95232c2.80247,-3.13178 7.86352,-4.94337 12.57586,-3.80086c7.12465,1.72931 16.43826,4.74176 19.57801,11.42262c2.82592,5.84735 -2.21727,12.35898 -7.10612,14.7702z" data-paper-data="{&quot;index&quot;:null}" fill="#c06832" stroke-width="0.43026"/></g><g stroke="none" stroke-linecap="round"><path d="M266.32887,164.1021c-2.96387,7.9754 -10.15554,13.86057 -15.79503,20.29478c-5.06045,5.77462 -9.71765,12.5154 -16.17306,16.62931c-3.4852,2.06687 -8.95099,3.30146 -11.78602,0.75465c-3.1979,-2.8727 -3.84019,-8.964 -2.31666,-13.39574c2.57068,-6.83197 8.93259,-11.78574 13.56466,-17.54602c5.48386,-6.81974 9.78148,-15.32431 17.09063,-19.96358c3.36276,-1.99639 8.13195,0.25309 10.86845,2.57961c2.89424,2.46046 5.86042,6.85732 4.54703,10.64697z" data-paper-data="{&quot;index&quot;:null}" fill="#c06832" stroke-width="0.40022"/><path d="M230.93249,198.85745c0.07577,3.16077 -4.25249,5.53921 -3.48576,8.6655c0.51495,2.09395 5.28445,0.78863 6.40675,2.76069c0.84658,1.54476 -0.5501,4.48572 -2.35749,4.47313c-4.53807,-0.03125 -9.42844,-1.8317 -13.05794,-4.64466c-2.88793,-2.23726 -5.21786,-6.18709 -4.88513,-9.47004c0.4031,-3.92661 3.119,-7.77005 6.61463,-9.71929c1.9933,-1.08248 4.93048,0.88502 6.82642,2.29604c1.87172,1.39303 3.84555,3.4605 3.9385,5.63864z" data-paper-data="{&quot;index&quot;:null}" fill="#edc2a8" stroke-width="0.45259"/></g></g></g></svg>