<svg version="1.1" xmlns="http://www.w3.org/2000/svg" xmlns:xlink="http://www.w3.org/1999/xlink" width="494.09479" height="390.12843" viewBox="0,0,494.09479,390.12843"><defs><linearGradient x1="0.00002" y1="0.00002" x2="0.00002" y2="360.00001" gradientUnits="userSpaceOnUse" id="color-1"><stop offset="0" stop-color="#7fb8ff"/><stop offset="1" stop-color="#ff923e"/></linearGradient><linearGradient x1="335.50002" y1="-17.27218" x2="335.50002" y2="359.35002" gradientUnits="userSpaceOnUse" id="color-2"><stop offset="0" stop-color="#794f25"/><stop offset="1" stop-color="#ab6f34"/></linearGradient><linearGradient x1="164.5" y1="-20.27469" x2="164.5" y2="359.35091" gradientUnits="userSpaceOnUse" id="color-3"><stop offset="0" stop-color="#794f25"/><stop offset="1" stop-color="#ab6f34"/></linearGradient><linearGradient x1="567.89951" y1="308.00442" x2="567.89951" y2="406.00442" gradientUnits="userSpaceOnUse" id="color-4"><stop offset="0" stop-color="#000000" stop-opacity="0"/><stop offset="1" stop-color="#000000"/></linearGradient></defs><g transform="translate(7.50746,21.66155)"><g data-paper-data="{&quot;isPaintingLayer&quot;:true}" fill-rule="nonzero" stroke-linejoin="miter" stroke-miterlimit="10" stroke-dasharray="" stroke-dashoffset="0" style="mix-blend-mode: normal"><path d="M0.00003,0.00002h480v360h-480z" data-paper-data="{&quot;origPos&quot;:null}" fill="#ffffff" stroke="none" stroke-width="1" stroke-linecap="butt"/><path d="M0.00002,0.00002h480v360h-480z" data-paper-data="{&quot;origPos&quot;:null}" fill="url(#color-1)" stroke="none" stroke-width="1" stroke-linecap="butt"/><g stroke-width="2.22445"><path d="M283.58821,361.49162h-109.0628v-107.2055h109.0628z" fill="#a87c50" stroke="#705235" stroke-linecap="butt"/><path d="M282.27422,262.06722c-6.9656,-0.8205 -13.1743,-4.6444 -20.3672,-4.7551c-10.5344,0.1107 -20.3238,4.7974 -30.8792,4.7551c-8.2192,-0.0337 -15.1098,-5.9724 -23.3237,-5.6197c-4.3139,0.364 -2.6714,6.6208 -6.8985,7.3488c-6.2061,1.0712 -11.9628,-4.0487 -18.0677,-3.2421c-6.3821,0.855 -13.8588,11.2825 -14.7826,8.1269c-3.1825,-7.3272 4.3652,-19.5166 6.5701,-29.0925c0.5505,-2.394 -0.2878,-2.3222 0,-3.4582c0.1603,-0.6346 -1.067,-1.4568 1.314,-1.7291c9.5226,-1.0894 19.2712,-1.2355 28.9082,-1.7292c24.0569,-1.2337 48.1532,-3.9545 72.2705,-3.4582c6.03,0.1236 7.8131,3.5369 11.8261,5.1874c2.992,1.2302 8.0825,1.2562 9.1981,3.4582c2.7712,5.4692 3.2154,11.6629 1.314,17.2912c-0.9395,2.7821 -5.5084,4.558 -9.1981,6.0519c-2.2667,0.9182 -5.2679,1.1706 -9.1981,0.8646z" fill="#b49379" stroke="#876f5b" stroke-linecap="round"/></g><g data-paper-data="{&quot;origPos&quot;:null}" stroke="none" stroke-width="1" stroke-linecap="butt"><path d="M87.50002,48.00002c14.208,0 27.083,4.034 36.406,10.551c9.323,6.517 15.094,15.517 15.094,25.449c0,9.932 -5.771,18.932 -15.094,25.449c-9.323,6.517 -22.198,10.551 -36.406,10.551c-14.208,0 -27.083,-4.034 -36.406,-10.551c-9.323,-6.517 -15.094,-15.517 -15.094,-25.449c0,-9.932 5.771,-18.932 15.094,-25.449c9.323,-6.517 22.198,-10.551 36.406,-10.551z" fill="#ecdcd6"/><path d="M151.5,32.00002c14.208,0 27.083,4.034 36.406,10.551c9.323,6.517 15.094,15.517 15.094,25.449c0,9.932 -5.771,18.932 -15.094,25.449c-9.323,6.517 -22.198,10.551 -36.406,10.551c-14.208,0 -27.083,-4.034 -36.406,-10.551c-9.323,-6.517 -15.094,-15.517 -15.094,-25.449c0,-9.932 5.771,-18.932 15.094,-25.449c9.323,-6.517 22.198,-10.551 36.406,-10.551z" fill="#ecdcd6"/><path d="M99.00002,63.50002c1.242,0 2.367,1.093 3.181,2.858c0.815,1.765 1.319,4.202 1.319,6.892c0,2.69 -0.504,5.127 -1.319,6.892c-0.814,1.765 -1.939,2.858 -3.181,2.858c-1.242,0 -2.367,-1.093 -3.181,-2.858c-0.815,-1.765 -1.319,-4.202 -1.319,-6.892c0,-2.69 0.504,-5.127 1.319,-6.892c0.814,-1.765 1.939,-2.858 3.181,-2.858z" fill="#6b3d2c"/><path d="M120.00002,63.00002c1.242,0 2.367,1.093 3.181,2.858c0.815,1.765 1.319,4.202 1.319,6.892c0,2.69 -0.504,5.127 -1.319,6.892c-0.814,1.765 -1.939,2.858 -3.181,2.858c-1.242,0 -2.367,-1.093 -3.181,-2.858c-0.815,-1.765 -1.319,-4.202 -1.319,-6.892c0,-2.69 0.504,-5.127 1.319,-6.892c0.814,-1.765 1.939,-2.858 3.181,-2.858z" fill="#6b3d2c"/></g><path d="M0.00002,187.00002h115v173h-115z" fill="#a87c50" stroke="#705235" stroke-width="2" stroke-linecap="butt"/><path d="M-4.99998,168.00002c0,-1.587 3.389,0.537 5,0c1.787,-0.596 2.315,-3.158 4,-4c3.11,-1.555 6.702,-1.901 10,-3c0.825,-0.275 0.924,-0.857 2,-1c4.304,-0.574 8.659,-0.911 13,-1c11.986,-0.245 24.015,-0.285 36,0c2.996,0.071 3.984,0.798 6,1c7.98,0.798 16.033,1.081 24,2c1.992,0.23 1.27,0.854 2,1c2.633,0.527 5.379,0.418 8,1c3.394,0.754 7.107,1.072 10,3c3.336,2.224 5.564,5.815 8,9c1.908,2.495 3.595,5.19 5,8c0.351,0.702 0,1.334 0,2c0,1.665 0.49,3.409 0,5c-0.876,2.847 -1.963,5.827 -4,8c-3.098,3.304 -6.87,6.141 -11,8c-2.75,1.237 -6.012,1.407 -9,1c-4.488,-0.612 -8.826,-2.242 -13,-4c-2.213,-0.932 -3.629,-3.621 -6,-4c-6.248,-1 -12.796,-1.241 -19,0c-4.091,0.818 -6.978,4.89 -11,6c-5.814,1.604 -11.991,2.515 -18,2c-5.879,-0.504 -11.214,-3.843 -17,-5c-2.612,-0.522 -5.393,-0.549 -8,0c-3.814,0.803 -7.617,5.41 -11,4c-2.617,-1.09 -0.916,-5.986 -1,-9c-0.25,-8.988 1.432,-18.124 0,-27c-0.358,-2.219 -5,-3.413 -5,-4z" fill="#b49379" stroke="#876f5b" stroke-width="2" stroke-linecap="round"/><g stroke-width="2"><path d="M397.00002,236.00002h83v124h-83z" fill="#a87c50" stroke="#705235" stroke-linecap="butt"/><path d="M399.00002,245.00002c-2.991,0.354 -5.275,0.062 -7,-1c-2.808,-1.728 -6.285,-3.782 -7,-7c-1.447,-6.51 -1.109,-13.674 1,-20c0.849,-2.547 4.723,-2.577 7,-4c3.054,-1.909 4.411,-5.857 9,-6c18.354,-0.574 36.692,2.573 55,4c7.334,0.571 14.753,0.74 22,2c1.812,0.315 0.878,1.266 1,2c0.219,1.314 -0.419,1.231 0,4c1.678,11.076 7.422,25.175 5,33.65c-0.703,3.65 -6.393,-8.411 -11.25,-9.4c-4.646,-0.933 -9.027,4.989 -13.75,3.75c-3.217,-0.842 -1.967,-8.079 -5.25,-8.5c-6.251,-0.408 -11.495,6.461 -17.75,6.5c-8.033,0.049 -15.483,-5.372 -23.5,-5.5c-5.474,0.128 -10.199,4.551 -15.5,5.5z" fill="#b49379" stroke="#876f5b" stroke-linecap="round"/></g><g data-paper-data="{&quot;origPos&quot;:null}" stroke="none" stroke-width="1" stroke-linecap="butt"><path d="M374.90602,105.55102c9.323,6.517 15.094,15.517 15.094,25.449c0,9.932 -5.771,18.932 -15.094,25.449c-9.323,6.517 -22.198,10.551 -36.406,10.551c-14.208,0 -27.083,-4.034 -36.406,-10.551c-9.323,-6.517 -15.094,-15.517 -15.094,-25.449c0,-9.932 5.771,-18.932 15.094,-25.449c9.323,-6.517 22.198,-10.551 36.406,-10.551c14.208,0 27.083,4.034 36.406,10.551z" data-paper-data="{&quot;origPos&quot;:null}" fill="#ecdcd6"/><path d="M310.90602,89.55102c9.323,6.517 15.094,15.517 15.094,25.449c0,9.932 -5.771,18.932 -15.094,25.449c-9.323,6.517 -22.198,10.551 -36.406,10.551c-14.208,0 -27.083,-4.034 -36.406,-10.551c-9.323,-6.517 -15.094,-15.517 -15.094,-25.449c0,-9.932 5.771,-18.932 15.094,-25.449c9.323,-6.517 22.198,-10.551 36.406,-10.551c14.208,0 27.083,4.034 36.406,10.551z" data-paper-data="{&quot;origPos&quot;:null}" fill="#ecdcd6"/><path d="M297.18101,120.35801c0.815,1.765 1.319,4.202 1.319,6.892c0,2.69 -0.504,5.127 -1.319,6.892c-0.814,1.765 -1.939,2.858 -3.181,2.858c-1.242,0 -2.367,-1.093 -3.181,-2.858c-0.815,-1.765 -1.319,-4.202 -1.319,-6.892c0,-2.69 0.504,-5.127 1.319,-6.892c0.814,-1.765 1.939,-2.858 3.181,-2.858c1.242,0 2.367,1.093 3.181,2.858z" data-paper-data="{&quot;origPos&quot;:null}" fill="#6b3d2c"/><path d="M276.18101,119.85801c0.815,1.765 1.319,4.202 1.319,6.892c0,2.69 -0.504,5.127 -1.319,6.892c-0.814,1.765 -1.939,2.858 -3.181,2.858c-1.242,0 -2.367,-1.093 -3.181,-2.858c-0.815,-1.765 -1.319,-4.202 -1.319,-6.892c0,-2.69 0.504,-5.127 1.319,-6.892c0.814,-1.765 1.939,-2.858 3.181,-2.858c1.242,0 2.367,1.093 3.181,2.858z" data-paper-data="{&quot;origPos&quot;:null}" fill="#6b3d2c"/></g><path d="M305.00002,-17.27218h61v376.6222h-61z" data-paper-data="{&quot;origPos&quot;:null,&quot;index&quot;:null}" fill="url(#color-2)" stroke="#663b00" stroke-width="2.77573" stroke-linecap="butt"/><path d="M135,-20.27469h59v379.6256h-59z" data-paper-data="{&quot;origPos&quot;:null}" fill="url(#color-3)" stroke="#663b00" stroke-width="2.77371" stroke-linecap="butt"/><path d="M486.00607,366.96999l-493.51352,1.49689c0,-20.15415 0,-40.3083 0,-60.46246h490.88069c0.19361,6.68646 2.63283,58.96557 2.63283,58.96557z" data-paper-data="{&quot;origPos&quot;:null,&quot;index&quot;:null}" fill="url(#color-4)" stroke="none" stroke-width="1.22826" stroke-linecap="butt"/></g></g></svg>