<svg version="1.1" xmlns="http://www.w3.org/2000/svg" xmlns:xlink="http://www.w3.org/1999/xlink" width="484.67868" height="232.50964" viewBox="0,0,484.67868,232.50964"><defs><linearGradient x1="52.14635" y1="240.83601" x2="52.14635" y2="282.9105" gradientUnits="userSpaceOnUse" id="color-1"><stop offset="0" stop-color="#b08b2e"/><stop offset="1" stop-color="#8a6632"/></linearGradient><linearGradient x1="36.06032" y1="271.22313" x2="36.06032" y2="271.22313" gradientUnits="userSpaceOnUse" id="color-2"><stop offset="0" stop-color="#b08b2e"/><stop offset="1" stop-color="#8a6632"/></linearGradient><linearGradient x1="53.0526" y1="256.02956" x2="53.0526" y2="256.02956" gradientUnits="userSpaceOnUse" id="color-3"><stop offset="0" stop-color="#b08b2e"/><stop offset="1" stop-color="#8a6632"/></linearGradient><linearGradient x1="70.72458" y1="268.88567" x2="70.72458" y2="270.05442" gradientUnits="userSpaceOnUse" id="color-4"><stop offset="0" stop-color="#b08b2e"/><stop offset="1" stop-color="#8a6632"/></linearGradient><linearGradient x1="28.58373" y1="253.6921" x2="28.58373" y2="254.86084" gradientUnits="userSpaceOnUse" id="color-5"><stop offset="0" stop-color="#b08b2e"/><stop offset="1" stop-color="#8a6632"/></linearGradient><linearGradient x1="52.14635" y1="328.1349" x2="52.14635" y2="370.20938" gradientUnits="userSpaceOnUse" id="color-6"><stop offset="0" stop-color="#b08b2e"/><stop offset="1" stop-color="#8a6632"/></linearGradient><linearGradient x1="36.06032" y1="358.52202" x2="36.06032" y2="358.52202" gradientUnits="userSpaceOnUse" id="color-7"><stop offset="0" stop-color="#b08b2e"/><stop offset="1" stop-color="#8a6632"/></linearGradient><linearGradient x1="53.0526" y1="343.32845" x2="53.0526" y2="343.32845" gradientUnits="userSpaceOnUse" id="color-8"><stop offset="0" stop-color="#b08b2e"/><stop offset="1" stop-color="#8a6632"/></linearGradient><linearGradient x1="70.72458" y1="356.18455" x2="70.72458" y2="357.3533" gradientUnits="userSpaceOnUse" id="color-9"><stop offset="0" stop-color="#b08b2e"/><stop offset="1" stop-color="#8a6632"/></linearGradient><linearGradient x1="28.58373" y1="340.99099" x2="28.58373" y2="342.15972" gradientUnits="userSpaceOnUse" id="color-10"><stop offset="0" stop-color="#b08b2e"/><stop offset="1" stop-color="#8a6632"/></linearGradient><linearGradient x1="52.14635" y1="283.92734" x2="52.14635" y2="326.00182" gradientUnits="userSpaceOnUse" id="color-11"><stop offset="0" stop-color="#b08b2e"/><stop offset="1" stop-color="#8a6632"/></linearGradient><linearGradient x1="36.06032" y1="314.31446" x2="36.06032" y2="314.31446" gradientUnits="userSpaceOnUse" id="color-12"><stop offset="0" stop-color="#b08b2e"/><stop offset="1" stop-color="#8a6632"/></linearGradient><linearGradient x1="53.0526" y1="299.12089" x2="53.0526" y2="299.12089" gradientUnits="userSpaceOnUse" id="color-13"><stop offset="0" stop-color="#b08b2e"/><stop offset="1" stop-color="#8a6632"/></linearGradient><linearGradient x1="70.72458" y1="311.97699" x2="70.72458" y2="313.14574" gradientUnits="userSpaceOnUse" id="color-14"><stop offset="0" stop-color="#b08b2e"/><stop offset="1" stop-color="#8a6632"/></linearGradient><linearGradient x1="28.58373" y1="296.78343" x2="28.58373" y2="297.95216" gradientUnits="userSpaceOnUse" id="color-15"><stop offset="0" stop-color="#b08b2e"/><stop offset="1" stop-color="#8a6632"/></linearGradient><linearGradient x1="-1.84991" y1="305.87652" x2="26.14969" y2="306.10063" gradientUnits="userSpaceOnUse" id="color-16"><stop offset="0" stop-color="#adadad"/><stop offset="1" stop-color="#9e8c72"/></linearGradient><linearGradient x1="105.14259" y1="306.99311" x2="77.14299" y2="306.77414" gradientUnits="userSpaceOnUse" id="color-17"><stop offset="0" stop-color="#adadad"/><stop offset="1" stop-color="#9e8c72"/></linearGradient><linearGradient x1="53.64634" y1="212.1861" x2="53.64634" y2="240.1861" gradientUnits="userSpaceOnUse" id="color-18"><stop offset="0" stop-color="#adadad"/><stop offset="1" stop-color="#9e8c72"/></linearGradient><linearGradient x1="91.14634" y1="209.1861" x2="91.14634" y2="243.1861" gradientUnits="userSpaceOnUse" id="color-19"><stop offset="0" stop-color="#b9b9b9"/><stop offset="1" stop-color="#a8a8a8"/></linearGradient><linearGradient x1="13.14634" y1="209.1861" x2="13.14634" y2="243.1861" gradientUnits="userSpaceOnUse" id="color-20"><stop offset="0" stop-color="#b9b9b9"/><stop offset="1" stop-color="#a8a8a8"/></linearGradient><linearGradient x1="165.14635" y1="308.83601" x2="165.14635" y2="350.9105" gradientUnits="userSpaceOnUse" id="color-21"><stop offset="0" stop-color="#b08b2e"/><stop offset="1" stop-color="#8a6632"/></linearGradient><linearGradient x1="149.06032" y1="339.22313" x2="149.06032" y2="339.22313" gradientUnits="userSpaceOnUse" id="color-22"><stop offset="0" stop-color="#b08b2e"/><stop offset="1" stop-color="#8a6632"/></linearGradient><linearGradient x1="166.0526" y1="324.02956" x2="166.0526" y2="324.02956" gradientUnits="userSpaceOnUse" id="color-23"><stop offset="0" stop-color="#b08b2e"/><stop offset="1" stop-color="#8a6632"/></linearGradient><linearGradient x1="183.72459" y1="336.88567" x2="183.72459" y2="338.05442" gradientUnits="userSpaceOnUse" id="color-24"><stop offset="0" stop-color="#b08b2e"/><stop offset="1" stop-color="#8a6632"/></linearGradient><linearGradient x1="141.58373" y1="321.6921" x2="141.58373" y2="322.86084" gradientUnits="userSpaceOnUse" id="color-25"><stop offset="0" stop-color="#b08b2e"/><stop offset="1" stop-color="#8a6632"/></linearGradient><linearGradient x1="165.14635" y1="396.1349" x2="165.14635" y2="438.20938" gradientUnits="userSpaceOnUse" id="color-26"><stop offset="0" stop-color="#b08b2e"/><stop offset="1" stop-color="#8a6632"/></linearGradient><linearGradient x1="149.06032" y1="426.52202" x2="149.06032" y2="426.52202" gradientUnits="userSpaceOnUse" id="color-27"><stop offset="0" stop-color="#b08b2e"/><stop offset="1" stop-color="#8a6632"/></linearGradient><linearGradient x1="166.0526" y1="411.32845" x2="166.0526" y2="411.32845" gradientUnits="userSpaceOnUse" id="color-28"><stop offset="0" stop-color="#b08b2e"/><stop offset="1" stop-color="#8a6632"/></linearGradient><linearGradient x1="183.72459" y1="424.18455" x2="183.72459" y2="425.3533" gradientUnits="userSpaceOnUse" id="color-29"><stop offset="0" stop-color="#b08b2e"/><stop offset="1" stop-color="#8a6632"/></linearGradient><linearGradient x1="141.58373" y1="408.99099" x2="141.58373" y2="410.15972" gradientUnits="userSpaceOnUse" id="color-30"><stop offset="0" stop-color="#b08b2e"/><stop offset="1" stop-color="#8a6632"/></linearGradient><linearGradient x1="165.14635" y1="351.92734" x2="165.14635" y2="394.00182" gradientUnits="userSpaceOnUse" id="color-31"><stop offset="0" stop-color="#b08b2e"/><stop offset="1" stop-color="#8a6632"/></linearGradient><linearGradient x1="149.06032" y1="382.31446" x2="149.06032" y2="382.31446" gradientUnits="userSpaceOnUse" id="color-32"><stop offset="0" stop-color="#b08b2e"/><stop offset="1" stop-color="#8a6632"/></linearGradient><linearGradient x1="166.0526" y1="367.12089" x2="166.0526" y2="367.12089" gradientUnits="userSpaceOnUse" id="color-33"><stop offset="0" stop-color="#b08b2e"/><stop offset="1" stop-color="#8a6632"/></linearGradient><linearGradient x1="183.72459" y1="379.97699" x2="183.72459" y2="381.14574" gradientUnits="userSpaceOnUse" id="color-34"><stop offset="0" stop-color="#b08b2e"/><stop offset="1" stop-color="#8a6632"/></linearGradient><linearGradient x1="141.58373" y1="364.78343" x2="141.58373" y2="365.95216" gradientUnits="userSpaceOnUse" id="color-35"><stop offset="0" stop-color="#b08b2e"/><stop offset="1" stop-color="#8a6632"/></linearGradient><linearGradient x1="111.1501" y1="373.87652" x2="139.1497" y2="374.10063" gradientUnits="userSpaceOnUse" id="color-36"><stop offset="0" stop-color="#adadad"/><stop offset="1" stop-color="#9e8c72"/></linearGradient><linearGradient x1="218.1426" y1="374.99311" x2="190.143" y2="374.77414" gradientUnits="userSpaceOnUse" id="color-37"><stop offset="0" stop-color="#adadad"/><stop offset="1" stop-color="#9e8c72"/></linearGradient><linearGradient x1="166.64635" y1="280.1861" x2="166.64635" y2="308.1861" gradientUnits="userSpaceOnUse" id="color-38"><stop offset="0" stop-color="#adadad"/><stop offset="1" stop-color="#9e8c72"/></linearGradient><linearGradient x1="204.14635" y1="277.1861" x2="204.14635" y2="311.1861" gradientUnits="userSpaceOnUse" id="color-39"><stop offset="0" stop-color="#b9b9b9"/><stop offset="1" stop-color="#a8a8a8"/></linearGradient><linearGradient x1="126.14635" y1="277.1861" x2="126.14635" y2="311.1861" gradientUnits="userSpaceOnUse" id="color-40"><stop offset="0" stop-color="#b9b9b9"/><stop offset="1" stop-color="#a8a8a8"/></linearGradient></defs><g transform="translate(6.35366,-208.1861)"><g data-paper-data="{&quot;isPaintingLayer&quot;:true}" fill-rule="nonzero" stroke-width="2" stroke-linejoin="miter" stroke-miterlimit="10" stroke-dasharray="" stroke-dashoffset="0" style="mix-blend-mode: normal"><g data-paper-data="{&quot;origPos&quot;:null,&quot;index&quot;:null}" stroke="#75491c"><path d="M25.6384,282.9105v-42.07447h53.0159v42.07447z" data-paper-data="{&quot;origPos&quot;:null}" fill="url(#color-1)" stroke-linecap="butt"/><path d="M45.576,271.22313h-19.03135" data-paper-data="{&quot;origPos&quot;:null}" fill="url(#color-2)" stroke-linecap="round"/><path d="M37.41971,256.02956h31.26579" data-paper-data="{&quot;origPos&quot;:null}" fill="url(#color-3)" stroke-linecap="round"/><path d="M78.6543,270.05442l-15.85946,-1.16875" data-paper-data="{&quot;origPos&quot;:null}" fill="url(#color-4)" stroke-linecap="round"/><path d="M25.63839,253.6921l5.89066,1.16874" data-paper-data="{&quot;origPos&quot;:null}" fill="url(#color-5)" stroke-linecap="round"/></g><g data-paper-data="{&quot;origPos&quot;:null,&quot;index&quot;:null}" stroke="#75491c"><path d="M25.6384,370.20938v-42.07447h53.0159v42.07447z" data-paper-data="{&quot;origPos&quot;:null}" fill="url(#color-6)" stroke-linecap="butt"/><path d="M26.54465,358.52202h19.03135" data-paper-data="{&quot;origPos&quot;:null}" fill="url(#color-7)" stroke-linecap="round"/><path d="M37.41971,343.32845h31.26579" data-paper-data="{&quot;origPos&quot;:null}" fill="url(#color-8)" stroke-linecap="round"/><path d="M78.6543,357.3533l-15.85946,-1.16875" data-paper-data="{&quot;origPos&quot;:null}" fill="url(#color-9)" stroke-linecap="round"/><path d="M31.52905,342.15972l-5.89066,-1.16873" data-paper-data="{&quot;origPos&quot;:null}" fill="url(#color-10)" stroke-linecap="round"/></g><g data-paper-data="{&quot;origPos&quot;:null,&quot;index&quot;:null}" stroke="#75491c"><path d="M25.6384,326.00182v-42.07446h53.0159v42.07446z" data-paper-data="{&quot;origPos&quot;:null}" fill="url(#color-11)" stroke-linecap="butt"/><path d="M26.54465,314.31446h19.03135" data-paper-data="{&quot;origPos&quot;:null}" fill="url(#color-12)" stroke-linecap="round"/><path d="M37.41971,299.12089h31.26579" data-paper-data="{&quot;origPos&quot;:null}" fill="url(#color-13)" stroke-linecap="round"/><path d="M62.79484,311.97699l15.85946,1.16875" data-paper-data="{&quot;origPos&quot;:null}" fill="url(#color-14)" stroke-linecap="round"/><path d="M25.63839,296.78343l5.89066,1.16873" data-paper-data="{&quot;origPos&quot;:null}" fill="url(#color-15)" stroke-linecap="round"/></g><g data-paper-data="{&quot;origPos&quot;:null}" stroke="#6b6b6b" stroke-linecap="butt"><g data-paper-data="{&quot;origPos&quot;:null}"><path d="M25.91345,371.68773l-27.9996,-0.22409l0.47247,-131.17419l27.9996,0.22409z" data-paper-data="{&quot;origPos&quot;:null}" fill="url(#color-16)"/><path d="M77.37923,242.68449l27.9996,0.21898l-0.47248,128.17931l-27.99959,-0.21898z" data-paper-data="{&quot;origPos&quot;:null,&quot;index&quot;:null}" fill="url(#color-17)"/><path d="M12.65897,358.10476c-4.78647,0.00681 -8.67217,-3.86787 -8.67898,-8.65434c-0.0068,-4.78646 3.86786,-8.67217 8.65433,-8.67897c4.78647,-0.00681 8.67219,3.86787 8.67899,8.65433c0.0068,4.78646 -3.86787,8.67218 -8.65434,8.67898z" data-paper-data="{&quot;origPos&quot;:null,&quot;origRot&quot;:0}" fill="#a7a095"/><path d="M91.65837,357.60077c-4.78647,0.0068 -8.67219,-3.86787 -8.67899,-8.65434c-0.0068,-4.78646 3.86787,-8.67218 8.65434,-8.67899c4.78647,-0.00681 8.67219,3.86787 8.67899,8.65434c0.00681,4.78647 -3.86787,8.67218 -8.65434,8.67899z" data-paper-data="{&quot;origPos&quot;:null,&quot;origRot&quot;:0}" fill="#a7a095"/><path d="M91.82509,258.71132c4.78647,0.002 8.66504,3.88383 8.66304,8.6703c-0.002,4.78647 -3.88383,8.66503 -8.6703,8.66303c-4.78647,-0.002 -8.66504,-3.88383 -8.66304,-8.6703c0.002,-4.78647 3.88383,-8.66504 8.6703,-8.66303z" data-paper-data="{&quot;origPos&quot;:null}" fill="#a7a095"/><path d="M91.47499,298.71117c4.78647,0.002 8.66504,3.88383 8.66303,8.6703c-0.002,4.78647 -3.88382,8.66504 -8.67029,8.66303c-4.78647,-0.002 -8.66504,-3.88383 -8.66304,-8.6703c0.002,-4.78647 3.88383,-8.66504 8.6703,-8.66304z" data-paper-data="{&quot;origPos&quot;:null}" fill="#a7a095"/><path d="M12.82496,258.99437c4.78647,0.002 8.66504,3.88383 8.66304,8.6703c-0.00201,4.78647 -3.88383,8.66504 -8.6703,8.66303c-4.78647,-0.002 -8.66504,-3.88383 -8.66304,-8.6703c0.00201,-4.78647 3.88383,-8.66504 8.6703,-8.66304z" data-paper-data="{&quot;origPos&quot;:null}" fill="#a7a095"/><path d="M12.47486,298.99423c4.78647,0.002 8.66504,3.88383 8.66304,8.6703c-0.00201,4.78647 -3.88383,8.66503 -8.6703,8.66303c-4.78647,-0.002 -8.66504,-3.88383 -8.66304,-8.6703c0.00201,-4.78647 3.88383,-8.66504 8.6703,-8.66303z" data-paper-data="{&quot;origPos&quot;:null}" fill="#a7a095"/><path d="M28.64634,240.1861v-28h50v28z" data-paper-data="{&quot;origPos&quot;:null}" fill="url(#color-18)"/><path d="M43.81301,226.85277c0,-4.78647 3.8802,-8.66666 8.66667,-8.66666c4.78647,0 8.66667,3.88019 8.66667,8.66666c0,4.78647 -3.8802,8.66667 -8.66667,8.66667c-4.78647,0 -8.66667,-3.8802 -8.66667,-8.66667z" data-paper-data="{&quot;origPos&quot;:null}" fill="#a7a095"/></g><g data-paper-data="{&quot;origPos&quot;:null}"><path d="M72.64634,243.1861v-34h37v34z" data-paper-data="{&quot;origPos&quot;:null}" fill="url(#color-19)"/><path d="M81.81301,225.85277c0,-5.52284 4.47716,-10 10,-10c5.52284,0 10,4.47716 10,10c0,3.24695 -2.36557,3.53791 -3.09842,5.39204c-0.59142,1.49633 -1.52069,2.69867 -2.68806,3.80592c-1.13579,1.07729 -2.64808,0.80204 -4.21352,0.80204c0,0 -2.75393,0.61842 -4.36104,-0.45866c-1.38941,-0.93117 -2.60429,-3.87524 -2.74343,-4.10955c-1.06606,-1.79528 -2.89553,0.09105 -2.89553,-5.43179zM82.47968,226.35277c0,1.38071 3.78596,2.16666 5.16666,2.16666c0.91755,0 1.71966,-0.49431 2.15454,-1.23116c1.8634,-1.0648 1.80634,-9.29448 -1.48787,-9.29448c0,0 -3.52884,2.11278 -3.65612,2.37067c-0.77473,1.56984 -2.17721,5.80467 -2.17721,5.9883zM100.47967,225.6861c0,-1.97693 -0.18387,-3.5113 -1.33723,-5.11692c-0.96463,-1.34288 -2.34266,-2.38308 -3.99609,-2.38308c-0.91755,0 -1.553,-0.67236 -1.98788,0.06449c-1.8799,1.07423 -0.25977,9.93551 2.65454,9.93551c3.24807,0 4.66666,-2.27586 4.66666,-2.5zM89.92839,230.9361l0.67829,-0.17632c0.95162,0.11895 1.86363,0.17632 2.82171,0.17632c0,0 1.25,-1.07692 1.25,-2.32692c0,-1.25 -1.17308,-1.25 -1.17308,-1.25c-0.85996,0 -1.65952,-0.05051 -2.51162,-0.15702l-0.98838,0.15702c0,0 -1.25,0 -1.25,1.25c0,1.25 1.17308,2.32692 1.17308,2.32692z" data-paper-data="{&quot;origPos&quot;:null}" fill="#6b6b6b"/></g><g data-paper-data="{&quot;origPos&quot;:null}"><path d="M-5.35366,243.1861v-34h37v34z" data-paper-data="{&quot;origPos&quot;:null}" fill="url(#color-20)"/><path d="M3.81301,225.85277c0,-5.52284 4.47715,-10 10,-10c5.52285,0 10,4.47716 10,10c0,3.24695 -2.36557,3.53791 -3.09842,5.39204c-0.59143,1.49633 -1.52069,2.69867 -2.68807,3.80592c-1.13579,1.07729 -2.64808,0.80204 -4.21352,0.80204c0,0 -2.75392,0.61842 -4.36104,-0.45866c-1.38941,-0.93117 -2.6043,-3.87524 -2.74343,-4.10955c-1.06606,-1.79528 -2.89553,0.09105 -2.89553,-5.43179zM4.47968,226.35277c0,1.38071 3.78595,2.16666 5.16667,2.16666c0.91756,0 1.71965,-0.49431 2.15453,-1.23116c1.8634,-1.0648 1.80634,-9.29448 -1.48787,-9.29448c0,0 -3.52884,2.11278 -3.65612,2.37067c-0.77473,1.56984 -2.17721,5.80467 -2.17721,5.9883zM22.47967,225.6861c0,-1.97693 -0.18387,-3.5113 -1.33723,-5.11692c-0.96464,-1.34288 -2.34266,-2.38308 -3.9961,-2.38308c-0.91756,0 -1.55299,-0.67236 -1.98787,0.06449c-1.8799,1.07423 -0.25977,9.93551 2.65454,9.93551c3.24807,0 4.66667,-2.27586 4.66667,-2.5zM11.92839,230.9361l0.67829,-0.17632c0.95162,0.11895 1.86364,0.17632 2.82171,0.17632c0,0 1.25,-1.07692 1.25,-2.32692c0,-1.25 -1.17308,-1.25 -1.17308,-1.25c-0.85996,0 -1.65953,-0.05051 -2.51163,-0.15702l-0.98837,0.15702c0,0 -1.25,0 -1.25,1.25c0,1.25 1.17308,2.32692 1.17308,2.32692z" data-paper-data="{&quot;origPos&quot;:null}" fill="#6b6b6b"/></g></g><g data-paper-data="{&quot;index&quot;:null}" stroke="#75491c"><path d="M138.6384,350.9105v-42.07447h307.69458v42.07447z" data-paper-data="{&quot;origPos&quot;:null}" fill="url(#color-21)" stroke-linecap="butt"/><path d="M158.57601,339.22313h-19.03135" data-paper-data="{&quot;origPos&quot;:null}" fill="url(#color-22)" stroke-linecap="round"/><path d="M150.41972,324.02956h285.94447" data-paper-data="{&quot;origPos&quot;:null}" fill="url(#color-23)" stroke-linecap="round"/><path d="M446.33298,338.05442l-270.53814,-1.16875" data-paper-data="{&quot;origPos&quot;:null}" fill="url(#color-24)" stroke-linecap="round"/><path d="M138.6384,321.6921l5.89066,1.16874" data-paper-data="{&quot;origPos&quot;:null}" fill="url(#color-25)" stroke-linecap="round"/></g><g data-paper-data="{&quot;index&quot;:null}" stroke="#75491c"><path d="M138.6384,438.20938v-42.07447h307.69458v42.07447z" data-paper-data="{&quot;origPos&quot;:null}" fill="url(#color-26)" stroke-linecap="butt"/><path d="M139.54465,426.52202h19.03135" data-paper-data="{&quot;origPos&quot;:null}" fill="url(#color-27)" stroke-linecap="round"/><path d="M150.41972,411.32845h285.94447" data-paper-data="{&quot;origPos&quot;:null}" fill="url(#color-28)" stroke-linecap="round"/><path d="M446.33298,425.3533l-270.53814,-1.16875" data-paper-data="{&quot;origPos&quot;:null}" fill="url(#color-29)" stroke-linecap="round"/><path d="M144.52905,410.15972l-5.89066,-1.16873" data-paper-data="{&quot;origPos&quot;:null}" fill="url(#color-30)" stroke-linecap="round"/></g><g data-paper-data="{&quot;index&quot;:null}" stroke="#75491c"><path d="M138.6384,394.00182v-42.07446h307.69458v42.07446z" data-paper-data="{&quot;origPos&quot;:null}" fill="url(#color-31)" stroke-linecap="butt"/><path d="M139.54465,382.31446h19.03135" data-paper-data="{&quot;origPos&quot;:null}" fill="url(#color-32)" stroke-linecap="round"/><path d="M150.41972,367.12089h285.94447" data-paper-data="{&quot;origPos&quot;:null}" fill="url(#color-33)" stroke-linecap="round"/><path d="M175.79485,379.97699l270.53814,1.16875" data-paper-data="{&quot;origPos&quot;:null}" fill="url(#color-34)" stroke-linecap="round"/><path d="M138.6384,364.78343l5.89066,1.16873" data-paper-data="{&quot;origPos&quot;:null}" fill="url(#color-35)" stroke-linecap="round"/></g><g stroke="#6b6b6b" stroke-linecap="butt"><g data-paper-data="{&quot;origPos&quot;:null}"><path d="M138.91346,439.68773l-27.9996,-0.22409l0.47247,-131.17419l27.9996,0.22409z" data-paper-data="{&quot;origPos&quot;:null}" fill="url(#color-36)"/><path d="M445.05791,310.68449l27.9996,0.21898l-0.47248,128.17931l-27.99959,-0.21898z" data-paper-data="{&quot;origPos&quot;:null,&quot;index&quot;:null}" fill="url(#color-37)"/><path d="M125.65898,426.10476c-4.78647,0.00681 -8.67217,-3.86787 -8.67898,-8.65434c-0.0068,-4.78646 3.86786,-8.67217 8.65433,-8.67897c4.78647,-0.00681 8.67219,3.86787 8.67899,8.65433c0.0068,4.78646 -3.86787,8.67218 -8.65434,8.67898z" data-paper-data="{&quot;origPos&quot;:null,&quot;origRot&quot;:0}" fill="#a7a095"/><path d="M459.33705,425.60077c-4.78647,0.0068 -8.67219,-3.86787 -8.67899,-8.65434c-0.0068,-4.78646 3.86787,-8.67218 8.65434,-8.67899c4.78647,-0.00681 8.67219,3.86787 8.67899,8.65434c0.00681,4.78647 -3.86787,8.67218 -8.65434,8.67899z" data-paper-data="{&quot;origPos&quot;:null,&quot;origRot&quot;:0}" fill="#a7a095"/><path d="M459.50377,326.71132c4.78647,0.002 8.66504,3.88383 8.66304,8.6703c-0.002,4.78647 -3.88383,8.66503 -8.6703,8.66303c-4.78647,-0.002 -8.66504,-3.88383 -8.66304,-8.6703c0.002,-4.78647 3.88383,-8.66504 8.6703,-8.66303z" data-paper-data="{&quot;origPos&quot;:null}" fill="#a7a095"/><path d="M459.15367,366.71117c4.78647,0.002 8.66504,3.88383 8.66303,8.6703c-0.002,4.78647 -3.88382,8.66504 -8.67029,8.66303c-4.78647,-0.002 -8.66504,-3.88383 -8.66304,-8.6703c0.002,-4.78647 3.88383,-8.66504 8.6703,-8.66304z" data-paper-data="{&quot;origPos&quot;:null}" fill="#a7a095"/><path d="M125.82497,326.99437c4.78647,0.002 8.66504,3.88383 8.66304,8.6703c-0.00201,4.78647 -3.88383,8.66504 -8.6703,8.66303c-4.78647,-0.002 -8.66504,-3.88383 -8.66304,-8.6703c0.00201,-4.78647 3.88383,-8.66504 8.6703,-8.66304z" data-paper-data="{&quot;origPos&quot;:null}" fill="#a7a095"/><path d="M125.47487,366.99423c4.78647,0.002 8.66504,3.88383 8.66304,8.6703c-0.00201,4.78647 -3.88383,8.66503 -8.6703,8.66303c-4.78647,-0.002 -8.66504,-3.88383 -8.66304,-8.6703c0.00201,-4.78647 3.88383,-8.66504 8.6703,-8.66303z" data-paper-data="{&quot;origPos&quot;:null}" fill="#a7a095"/><path d="M141.64635,308.1861v-28h304.67868v28z" data-paper-data="{&quot;origPos&quot;:null}" fill="url(#color-38)"/></g><g data-paper-data="{&quot;origPos&quot;:null}"><path d="M440.32502,311.1861v-34h37v34z" data-paper-data="{&quot;origPos&quot;:null}" fill="url(#color-39)"/><path d="M449.49169,293.85277c0,-5.52284 4.47716,-10 10,-10c5.52284,0 10,4.47716 10,10c0,3.24695 -2.36557,3.53791 -3.09842,5.39204c-0.59142,1.49633 -1.52069,2.69867 -2.68806,3.80592c-1.13579,1.07729 -2.64808,0.80204 -4.21352,0.80204c0,0 -2.75393,0.61842 -4.36104,-0.45866c-1.38941,-0.93117 -2.60429,-3.87524 -2.74343,-4.10955c-1.06606,-1.79528 -2.89553,0.09105 -2.89553,-5.43179zM450.15836,294.35277c0,1.38071 3.78596,2.16666 5.16666,2.16666c0.91755,0 1.71966,-0.49431 2.15454,-1.23116c1.8634,-1.0648 1.80634,-9.29448 -1.48787,-9.29448c0,0 -3.52884,2.11278 -3.65612,2.37067c-0.77473,1.56984 -2.17721,5.80467 -2.17721,5.9883zM468.15835,293.6861c0,-1.97693 -0.18387,-3.5113 -1.33723,-5.11692c-0.96463,-1.34288 -2.34266,-2.38308 -3.99609,-2.38308c-0.91755,0 -1.553,-0.67236 -1.98788,0.06449c-1.8799,1.07423 -0.25977,9.93551 2.65454,9.93551c3.24807,0 4.66666,-2.27586 4.66666,-2.5zM457.60707,298.9361l0.67829,-0.17632c0.95162,0.11895 1.86363,0.17632 2.82171,0.17632c0,0 1.25,-1.07692 1.25,-2.32692c0,-1.25 -1.17308,-1.25 -1.17308,-1.25c-0.85996,0 -1.65952,-0.05051 -2.51162,-0.15702l-0.98838,0.15702c0,0 -1.25,0 -1.25,1.25c0,1.25 1.17308,2.32692 1.17308,2.32692z" data-paper-data="{&quot;origPos&quot;:null}" fill="#6b6b6b"/></g><g data-paper-data="{&quot;origPos&quot;:null}"><path d="M107.64635,311.1861v-34h37v34z" data-paper-data="{&quot;origPos&quot;:null}" fill="url(#color-40)"/><path d="M116.81302,293.85277c0,-5.52284 4.47715,-10 10,-10c5.52285,0 10,4.47716 10,10c0,3.24695 -2.36557,3.53791 -3.09842,5.39204c-0.59143,1.49633 -1.52069,2.69867 -2.68807,3.80592c-1.13579,1.07729 -2.64808,0.80204 -4.21352,0.80204c0,0 -2.75392,0.61842 -4.36104,-0.45866c-1.38941,-0.93117 -2.6043,-3.87524 -2.74343,-4.10955c-1.06606,-1.79528 -2.89553,0.09105 -2.89553,-5.43179zM117.47969,294.35277c0,1.38071 3.78595,2.16666 5.16667,2.16666c0.91756,0 1.71965,-0.49431 2.15453,-1.23116c1.8634,-1.0648 1.80634,-9.29448 -1.48787,-9.29448c0,0 -3.52884,2.11278 -3.65612,2.37067c-0.77473,1.56984 -2.17721,5.80467 -2.17721,5.9883zM135.47967,293.6861c0,-1.97693 -0.18387,-3.5113 -1.33723,-5.11692c-0.96464,-1.34288 -2.34266,-2.38308 -3.9961,-2.38308c-0.91756,0 -1.55299,-0.67236 -1.98787,0.06449c-1.8799,1.07423 -0.25977,9.93551 2.65454,9.93551c3.24807,0 4.66667,-2.27586 4.66667,-2.5zM124.9284,298.9361l0.67829,-0.17632c0.95162,0.11895 1.86364,0.17632 2.82171,0.17632c0,0 1.25,-1.07692 1.25,-2.32692c0,-1.25 -1.17308,-1.25 -1.17308,-1.25c-0.85996,0 -1.65953,-0.05051 -2.51163,-0.15702l-0.98837,0.15702c0,0 -1.25,0 -1.25,1.25c0,1.25 1.17308,2.32692 1.17308,2.32692z" data-paper-data="{&quot;origPos&quot;:null}" fill="#6b6b6b"/></g></g></g></g></svg>