<svg version="1.1" xmlns="http://www.w3.org/2000/svg" xmlns:xlink="http://www.w3.org/1999/xlink" width="184.57775" height="200.60788" viewBox="0,0,184.57775,200.60788"><defs><linearGradient x1="201.89086" y1="246.19735" x2="183.21259" y2="255.86185" gradientUnits="userSpaceOnUse" id="color-1"><stop offset="0" stop-color="#008c4d"/><stop offset="1" stop-color="#006638"/></linearGradient><linearGradient x1="245.58325" y1="167.35002" x2="248.62272" y2="249.97215" gradientUnits="userSpaceOnUse" id="color-2"><stop offset="0" stop-color="#b100c6"/><stop offset="1" stop-color="#9900aa"/></linearGradient><linearGradient x1="309.58524" y1="221.97126" x2="328.66407" y2="230.81884" gradientUnits="userSpaceOnUse" id="color-3"><stop offset="0" stop-color="#008c4d"/><stop offset="1" stop-color="#006638"/></linearGradient><radialGradient cx="274.54229" cy="135.19645" r="20.52042" gradientUnits="userSpaceOnUse" id="color-4"><stop offset="0" stop-color="#fbc5fc"/><stop offset="1" stop-color="#f991fd"/></radialGradient></defs><g transform="translate(-150.51628,-74.18053)"><g data-paper-data="{&quot;isPaintingLayer&quot;:true}" fill="none" fill-rule="nonzero" stroke="none" stroke-width="none" stroke-linecap="none" stroke-linejoin="miter" stroke-miterlimit="10" stroke-dasharray="" stroke-dashoffset="0" font-family="none" font-weight="none" font-size="none" text-anchor="none" style="mix-blend-mode: normal"><g data-paper-data="{&quot;origPos&quot;:null,&quot;origRot&quot;:0}" stroke-width="0" stroke-linecap="butt"><g data-paper-data="{&quot;origPos&quot;:null}" stroke="none"><path d="M240.7364,166.48505c3.42893,-9.91737 2.98228,-16.24917 8.33245,-14.39936c5.35016,1.84981 19.4109,2.65604 18.58164,6.80978c-0.69365,3.47448 -8.25877,28.47082 -11.01118,30.70187c-2.14114,1.73554 -7.33345,-2.09982 -18.52146,-5.96806c-5.35017,-1.84981 -0.81035,-7.22685 2.61856,-17.14423z" data-paper-data="{&quot;origRot&quot;:0,&quot;origPos&quot;:null}" fill="#ffdebd"/><path d="M259.81447,171.51278c3.42892,-9.91738 3.92433,-15.64707 9.27449,-13.79726c5.35016,1.84981 10.486,6.24015 9.65674,10.39389c0.35326,3.08208 2.73589,10.02177 -0.01653,12.25281c-3.16255,6.65557 -14.42807,12.73821 -25.61608,8.86994c-3.85843,-1.69256 3.27245,-7.80201 6.70137,-17.71938z" data-paper-data="{&quot;origRot&quot;:0,&quot;origPos&quot;:null}" fill="#fff70c"/></g><g data-paper-data="{&quot;origPos&quot;:null}"><path d="M245.8312,188.20764c-7.81209,-4.32434 -13.31813,-4.22165 -17.5358,-12.09184c-2.29853,-4.28904 2.71346,-14.4415 5.07011,-18.69889c4.21266,-7.61032 10.1825,-7.20249 19.24241,-2.18741c9.05992,5.01508 12.9894,15.24997 8.77675,22.8603c-4.21266,7.61032 -6.49356,15.1329 -15.55348,10.11784z" data-paper-data="{&quot;origPos&quot;:null,&quot;origRot&quot;:0}" fill="#ffdebd" stroke="#ffdebd"/><g data-paper-data="{&quot;origPos&quot;:null,&quot;origRot&quot;:0}" fill="#ffffff" stroke="none"><path d="M248.96788,205.27059c-6.20833,13.63454 -17.53159,7.7206 -30.47854,2.91353c-11.86455,-4.40518 -9.35505,-15.83985 -4.53301,-24.23111c6.64686,-11.56677 14.81686,-5.64064 25.40281,1.29556c10.58596,6.93619 15.40568,7.291 9.60874,20.02203z" data-paper-data="{&quot;origRot&quot;:0,&quot;origPos&quot;:null}"/><path d="M256.48764,191.78567c-4.80733,7.88075 -5.42953,3.60056 -20.90326,-5.97228c-13.58317,-8.40323 -15.98587,-9.37489 -11.95921,-16.76092c3.59945,-6.60235 11.88998,1.09073 20.07,6.43511c8.18003,5.34437 15.59961,11.69628 12.79247,16.29809z" data-paper-data="{&quot;origRot&quot;:0,&quot;origPos&quot;:null}"/></g></g></g><g data-paper-data="{&quot;origPos&quot;:null,&quot;origRot&quot;:0}" stroke-width="0" stroke-linecap="round"><path d="M203.71779,249.80139c0.2325,0.44934 0.74277,2.89045 0.80274,4.142c0.07046,1.47032 -0.3539,3.35125 -0.4081,4.09027c-0.01807,0.24633 -1.53484,2.71889 -0.9749,3.70261c0.55994,0.98373 3.97347,3.31734 6.04478,5.87977c2.07131,2.56243 3.12306,2.65184 2.29773,4.44076c-0.82534,1.78893 -3.08501,2.18797 -5.4821,2.46124c-2.39709,0.27326 -6.01152,0.68354 -9.40295,-0.76439c-3.39143,-1.44793 -4.64039,-3.06025 -6.49403,-6.02264c-1.85364,-2.9624 -9.16494,-14.79981 -13.02049,-25.16435c-3.85555,-10.36454 -1.7497,-11.06809 -0.8287,-12.4819c0.2776,-0.42613 1.59287,-3.04577 2.36811,-3.40211c1.90706,-0.87658 8.60452,-3.08807 11.80613,-0.10374c3.20161,2.98433 8.20476,13.3909 13.2918,23.22248z" data-paper-data="{&quot;origPos&quot;:null}" fill="url(#color-1)" stroke="#000000"/><path d="M193.38237,224.74898c1.93846,-2.96062 0.50677,-1.84216 6.47186,-6.35115c5.96509,-4.50899 9.31688,-6.62022 12.41354,-7.92422c3.425,-1.44227 16.46385,22.07028 16.79849,28.8392c0.33462,6.7689 -12.33412,7.69089 -14.93511,8.85363c-1.87151,0.83664 -4.88861,1.48968 -7.13617,1.44052c-2.24757,-0.04915 -2.06713,0.42288 -5.39079,-1.71442c-3.32367,-2.13729 -5.44373,-3.00287 -7.54567,-6.60444c-2.10195,-3.60156 -2.27718,-7.88202 -2.38024,-10.40304c-0.10306,-2.52103 -0.23435,-3.17547 1.7041,-6.13608z" data-paper-data="{&quot;origPos&quot;:null}" fill="#9900aa" stroke="#b100c6"/></g><g data-paper-data="{&quot;origPos&quot;:null,&quot;origRot&quot;:0}"><path d="M228.60436,169.70506c15.38844,-0.5661 40.28963,-6.93409 52.46913,1.06841c16.34765,10.74119 18.22623,35.36542 18.88092,53.16216c0.6035,16.40503 -22.05603,24.95954 -50.51199,26.00637c-28.45596,1.04683 -54.05947,-6.25223 -54.58317,-40.46061c0.75834,-12.56443 5.28914,-38.7295 33.7451,-39.77633z" data-paper-data="{&quot;origPos&quot;:null,&quot;index&quot;:null}" fill="url(#color-2)" stroke="none" stroke-width="0" stroke-linecap="butt"/><path d="M233.89844,164.00658c15.38844,-0.5661 35.88458,-4.27034 48.06408,3.73216c8.24475,5.41719 17.05773,29.08194 17.05773,29.08194c0,0 -37.01042,-1.39092 -45.99058,2.82362c-4.02641,1.88965 -16.18537,7.73208 -21.60174,9.43234c-2.83863,0.89108 -34.24179,2.02481 -32.2154,-17.26723c0.75834,-12.56443 6.22995,-26.756 34.68591,-27.80283z" data-paper-data="{&quot;origPos&quot;:null,&quot;index&quot;:null}" fill="#fff70c" stroke="none" stroke-width="0" stroke-linecap="butt"/><path d="M236.66078,169.3756l2.80406,35.42086" data-paper-data="{&quot;origPos&quot;:null}" fill="none" stroke="#b100c6" stroke-width="17" stroke-linecap="round"/><path d="M246.4601,204.53912c0.14212,3.86337 -2.87455,7.11048 -6.73793,7.2526c-3.86337,0.14212 -7.11049,-2.87455 -7.25261,-6.73792c-0.14212,-3.86337 2.87456,-7.11049 6.73793,-7.25261c3.86337,-0.14212 7.11048,2.87456 7.25261,6.73793z" data-paper-data="{&quot;origPos&quot;:null}" fill="#f3f3f3" stroke="none" stroke-width="0" stroke-linecap="butt"/><path d="M274.02946,165.75212l8.24723,10.97649l10.57413,23.34926" data-paper-data="{&quot;origPos&quot;:null,&quot;origRot&quot;:0}" fill="none" stroke="#b100c6" stroke-width="14" stroke-linecap="round"/><path d="M301.23909,197.52054c0.14213,3.86337 -2.87455,7.11048 -6.73793,7.25261c-3.86338,0.14212 -7.11048,-2.87455 -7.25261,-6.73793c-0.14213,-3.86337 2.87455,-7.11049 6.73792,-7.25261c3.86338,-0.14212 7.11048,2.87456 7.25261,6.73793z" data-paper-data="{&quot;origPos&quot;:null}" fill="#f3f3f3" stroke="none" stroke-width="0" stroke-linecap="butt"/></g><g data-paper-data="{&quot;origPos&quot;:null,&quot;origRot&quot;:0}" stroke-linecap="butt"><g data-paper-data="{&quot;origPos&quot;:null}" stroke="none" stroke-width="0"><path d="M180.30723,185.56063c-5.05776,-2.54269 0.15474,-7.27052 4.86798,-16.64585c4.71325,-9.37534 5.10982,-15.71049 10.16757,-13.16782c5.05775,2.54267 18.88757,5.20558 17.51503,9.21274c-1.14807,3.35189 -11.95977,27.12488 -14.98362,28.97137c-2.35229,1.43641 -6.99042,-3.05333 -17.56695,-8.37046z" data-paper-data="{&quot;origRot&quot;:0,&quot;origPos&quot;:null}" fill="#ffdebd"/><path d="M194.42749,193.10174c-3.60002,-2.18909 4.27774,-7.29942 8.99098,-16.67476c4.71325,-9.37534 5.96378,-14.98884 11.02153,-12.44616c5.05775,2.54267 9.56631,7.57504 8.19378,11.58221c-0.05839,3.10171 1.38335,10.296 -1.6405,12.14249c-4.01686,6.17765 -15.98924,10.71332 -26.56577,5.39621z" data-paper-data="{&quot;origRot&quot;:0,&quot;origPos&quot;:null}" fill="#fff70c"/></g><g data-paper-data="{&quot;origPos&quot;:null}"><path d="M187.34565,191.12102c-7.16996,-5.3217 -12.64103,-5.94973 -15.77828,-14.30956c-1.70971,-4.55587 4.60377,-13.95441 7.50396,-17.86183c5.18426,-6.98479 11.04736,-5.78921 19.36258,0.38252c8.3152,6.17174 10.85335,16.83719 5.66909,23.82198c-5.18426,6.98479 -8.44216,14.13864 -16.75737,7.96691z" data-paper-data="{&quot;origPos&quot;:null,&quot;origRot&quot;:0}" fill="#ffdebd" stroke="#ffdebd" stroke-width="0"/><g data-paper-data="{&quot;origPos&quot;:null,&quot;origRot&quot;:0}" fill="#ffffff" stroke="none" stroke-width="0"><path d="M188.19293,208.44918c-7.96085,12.69129 -18.40028,5.32861 -30.5958,-1.1522c-11.17595,-5.939 -7.1729,-16.94013 -1.28111,-24.61816c8.12142,-10.58363 15.43379,-3.62685 25.00694,4.65135c9.57313,8.27819 14.30331,9.26872 6.86998,21.11901z" data-paper-data="{&quot;origRot&quot;:0,&quot;origPos&quot;:null}"/><path d="M197.43379,196.08001c-5.80953,7.17399 -5.85889,2.8491 -19.92718,-8.69036c-12.34942,-10.12957 -14.60215,-11.41114 -9.63198,-18.19825c4.44283,-6.06698 11.64048,2.65716 19.03992,9.03867c7.39943,6.38151 13.91159,13.66085 10.51923,17.84994z" data-paper-data="{&quot;origRot&quot;:0,&quot;origPos&quot;:null}"/></g><path d="M163.58372,181.52091c1.35895,-1.46741 2.82635,-0.10846 2.82635,-0.10846l0.23109,3.3966c-0.41252,1.70068 -0.82506,3.40137 -1.23758,5.10204c-0.41252,1.70068 -0.82506,3.40136 -1.23758,5.10203c-0.08844,0.36461 -0.47239,0.64953 -0.4658,1.02465c0.00101,0.05772 0.01613,0.12068 0.03966,0.18636c0.42768,-0.17457 0.83016,-0.41878 1.23005,-0.7073c2.00851,-1.44916 3.255,-2.48303 5.85206,-2.49069c3.89377,-0.01149 3.26108,3.52441 2.70862,5.80201c-0.23997,0.84038 -1.67095,3.13769 -1.65891,3.82224c0.00339,0.19266 0.16173,0.43815 0.26654,0.65064c1.06948,-0.13301 2.72429,-0.3709 3.66378,-0.74664c1.28922,-0.51562 2.49756,-1.4638 3.64893,-2.4515l-0.09065,-0.11727l2.51834,-1.94678c0.19544,-0.15378 0.41861,-0.27062 0.65769,-0.34332c0.56763,-0.19629 1.41538,-0.25287 2.14136,0.66416c0.01263,0.01579 0.02502,0.03177 0.03716,0.04792c0.70832,0.93328 0.44348,1.7398 0.11125,2.24116c-0.10289,0.16941 -0.22943,0.32056 -0.37405,0.45005l-1.30531,1.20345l-0.09739,-0.10563c-3.10331,2.41733 -5.92355,4.50958 -10.11755,5.01548c-2.41545,0.29136 -4.94973,-0.63729 -4.95868,-3.66667c-0.00655,-2.2255 1.42176,-3.6425 1.67021,-5.66021c0.07858,-0.32395 0.15715,-0.64789 0.23572,-0.97182c-0.45264,0.00796 -0.85867,0.29721 -1.26038,0.50602c-1.07878,0.56077 -4.14763,4.30494 -5.91987,3.19452c-4.62141,-2.89559 -2.19822,-7.45837 -1.18248,-11.6458c0.41252,-1.70068 0.82505,-3.40137 1.23757,-5.10205c0,0 -0.52911,-0.87779 0.82984,-2.3452z" data-paper-data="{&quot;origPos&quot;:null}" fill="#0052ef" stroke="none" stroke-width="0.5"/></g></g><g data-paper-data="{&quot;origPos&quot;:null,&quot;origRot&quot;:0}"><path d="M262.33768,127.74244l-1.60785,5.59497l11.2566,26.41044l-41.38903,9.8913l-3.81074,-0.83695l-3.26013,-4.27321l-10.88215,-26.1241l32.18167,-8.32713z" data-paper-data="{&quot;origPos&quot;:null}" fill="#a10114" stroke="#a10114" stroke-width="0.5" stroke-linecap="round"/><path d="M219.23885,157.17826c-1.81123,-4.72753 2.71299,-10.85581 10.10512,-13.68791c7.39212,-2.8321 14.85293,-1.29555 16.66414,3.43197c1.81123,4.72753 -2.71299,10.85581 -10.10512,13.68791c-7.39212,2.8321 -14.85294,1.29556 -16.66415,-3.43197z" data-paper-data="{&quot;origPos&quot;:null,&quot;origRot&quot;:0}" fill="#f4c4f6" stroke="none" stroke-width="0" stroke-linecap="butt"/><g data-paper-data="{&quot;origPos&quot;:null}" stroke-linecap="round"><path d="M232.68994,167.67864l-5.99165,-9.62578l38.98805,-10.24367l6.5641,-1.21167l3.28212,1.9163l1.71819,2.79742l1.9606,7.13679z" data-paper-data="{&quot;origPos&quot;:null}" fill="#ffffff" stroke="#000000" stroke-width="0"/><path d="M271.06124,157.85351l-5.9476,-9.29536" data-paper-data="{&quot;origPos&quot;:null}" fill="none" stroke="#a5b5ff" stroke-width="1.5"/><path d="M254.0205,151.66896l4.03614,8.97766" data-paper-data="{&quot;origPos&quot;:null,&quot;origRot&quot;:0}" fill="none" stroke="#a5b5ff" stroke-width="1.5"/><path d="M243.40859,164.28148l-4.03613,-8.97768" data-paper-data="{&quot;origPos&quot;:null,&quot;origRot&quot;:0}" fill="none" stroke="#a5b5ff" stroke-width="1.5"/></g><g data-paper-data="{&quot;origPos&quot;:null}"><path d="M212.64889,134.8031c3.51042,0.22787 4.79174,4.79718 4.88554,5.07102c0.53097,1.5503 14.21729,22.45796 15.13893,23.61413c-3.15663,-1.03365 1.41747,1.09984 1.62453,1.11755c1.5203,0.13004 3.43844,-0.45855 4.95612,-0.66094c5.82992,-0.77748 26.83758,-5.69245 29.03363,-6.53768c1.76838,-0.68062 8.2938,-1.93113 9.72319,-1.65744c5.30309,1.01535 5.90479,10.44464 5.63414,14.61406c-1.47037,1.96811 -2.73719,4.10616 -4.41112,5.90433c-0.56781,0.60996 -1.65205,0.22032 -2.47807,0.33047c-2.68579,0.35817 -4.99117,0.46349 -7.66631,-0.20091c-0.68592,-0.17035 -1.25209,-0.66857 -1.92018,-0.89916c-0.20033,-0.06914 -0.57065,-0.07337 -0.87357,-0.09319c-0.91666,0.66175 -1.74468,1.44606 -2.68102,2.0805c-3.28683,2.22706 -21.31695,3.99974 -23.89544,3.73102c-7.28497,-0.75921 -13.80128,-4.5915 -18.88539,-9.77127c-5.75028,-6.0375 -8.52543,-13.15403 -11.40738,-20.80101c-1.02567,-2.72153 -2.09096,-11.17585 -2.09096,-11.17585c0,0 0.32386,-4.9895 5.31337,-4.66563z" data-paper-data="{&quot;origPos&quot;:null}" fill="#ffdebd" stroke="none" stroke-width="0.5" stroke-linecap="butt"/><path d="M266.47971,163.84505l2.13673,3.41417l0.35251,2.64326l0.39656,2.97368l-1.71807,2.24682" data-paper-data="{&quot;origPos&quot;:null}" fill="none" stroke="#f6b09a" stroke-width="1.5" stroke-linecap="round"/></g></g><g data-paper-data="{&quot;origPos&quot;:null,&quot;origRot&quot;:0}" stroke-width="0" stroke-linecap="round"><path d="M311.31561,218.3199c0.21283,-0.45896 1.83017,-2.35732 2.78284,-3.17117c1.11922,-0.95611 2.86607,-1.77252 3.48349,-2.18226c0.2058,-0.13658 3.08935,-0.45166 3.52412,-1.49675c0.43478,-1.0451 0.18917,-5.17275 0.94643,-8.37946c0.75727,-3.2067 0.18386,-4.09297 2.10351,-4.53601c1.91967,-0.44306 3.61898,1.09895 5.30296,2.82662c1.68399,1.72767 4.22183,4.33382 5.15408,7.90161c0.93225,3.56779 0.42247,5.54253 -0.78426,8.82209c-1.20674,3.27956 -6.08737,16.30872 -11.9199,25.70395c-5.83254,9.39523 -7.67837,8.16132 -9.36005,8.29904c-0.50688,0.04151 -3.38331,0.60598 -4.13975,0.21133c-1.86086,-0.97081 -7.71067,-4.91117 -7.31208,-9.26979c0.3986,-4.35862 5.56158,-14.68683 10.21862,-24.72923z" data-paper-data="{&quot;origPos&quot;:null}" fill="url(#color-3)" stroke="#000000"/><path d="M297.83983,241.83264c-3.52762,0.28062 -1.76665,0.7275 -8.98426,-1.22691c-7.21761,-1.95441 -10.93925,-3.31123 -13.86652,-4.9607c-3.23766,-1.82438 7.3652,-26.53131 12.51142,-30.94112c5.14624,-4.40981 13.63342,5.04083 16.14549,6.385c1.80752,0.96716 4.17143,2.95242 5.50898,4.75931c1.33755,1.8069 1.60021,1.37521 1.94598,5.3116c0.34577,3.9364 0.95981,6.14248 -0.60016,10.00976c-1.55998,3.86729 -4.8366,6.62717 -6.76647,8.25251c-1.92987,1.62534 -2.36685,2.12993 -5.89447,2.41055z" data-paper-data="{&quot;origPos&quot;:null}" fill="#9900aa" stroke="#b100c6"/></g><g data-paper-data="{&quot;origPos&quot;:null}"><path d="M283.58236,108.28753c-0.12169,3.84302 -11.89939,10.26129 -21.66753,11.56266c-7.87117,1.04865 -6.81211,-5.90705 -7.29348,-9.52021c-0.48137,-3.61316 15.04902,-4.88009 22.9202,-5.92874c7.87117,-1.04865 6.11957,1.39874 6.04081,3.88629z" data-paper-data="{&quot;origPos&quot;:null}" fill="#b49416" stroke="none" stroke-width="0" stroke-linecap="butt"/><path d="M281.74829,105.98903l-0.46301,4.09703l-4.1856,3.92041l-10.52975,6.7833" data-paper-data="{&quot;origPos&quot;:null}" fill="none" stroke="#a5b5ff" stroke-width="4.5" stroke-linecap="round"/><path d="M200.90972,145.65066c2.82395,-0.35554 4.39224,0.33967 6.88154,1.46975c4.62268,2.37993 9.59984,7.72245 9.36011,13.21707c-0.20695,4.74332 -6.62285,5.72316 -9.67881,2.98985c-0.04726,-0.05856 -0.7126,-2.1796 -0.83882,-2.34867c-1.27047,-1.70192 -4.49873,-1.03561 -6.28513,-2.81502c-1.63232,-1.62596 -1.40981,-7.23761 -1.70288,-9.4374c0,0 1.10273,-3.17987 2.26399,-3.07556z" data-paper-data="{&quot;origPos&quot;:null}" fill="#8e4108" stroke="none" stroke-width="0.5" stroke-linecap="butt"/><path d="M216.23358,166.40416c0,0 -5.71196,-5.49233 -7.89656,-7.98087c-1.57352,-1.83499 -2.43481,-3.77849 -3.62545,-5.80701c-0.51409,-0.87588 -2.30352,-2.33958 -2.44807,-3.31142c-0.03631,-0.24409 -1.16233,-0.53341 -2.07765,-0.72293c-1.80987,-0.37475 -3.70739,-0.84132 -5.4664,-1.40495c-3.26752,-1.04697 -6.20081,-3.23494 -8.62324,-5.61848c-3.81694,-3.77102 -7.48047,-7.99231 -9.30592,-13.04639c-1.48023,-4.09826 -0.81542,-7.54628 -0.81542,-7.54628c0,0 12.91345,-0.64538 13.35627,-0.62095c2.08346,0.11496 8.47552,-0.75019 12.92308,-0.14678c2.15882,0.2929 4.07646,0.45718 5.92588,1.52388c0.7001,0.4038 2.18671,2.12582 2.4883,2.07977c2.66996,-0.40762 6.23082,-3.29913 8.57291,-4.61829c6.34407,-3.57325 40.75949,-11.49066 46.16859,-8.54087c0.77721,0.42385 1.071,1.41025 1.58318,2.13231c1.87491,2.64321 9.94714,22.65801 11.03456,26.54206c0.57584,2.05676 -0.67505,4.48252 -1.68884,6.02742c-0.45898,0.69944 -6.74343,1.90959 -8.94408,2.20277c-10.59879,1.41203 -21.17478,2.7094 -31.6653,4.8018c-2.61638,0.51655 -6.03721,1.47357 -8.71813,1.32741c-0.34605,-0.01887 -1.31976,1.33262 -1.0306,1.63548c1.40057,1.46692 4.53638,9.38353 4.53638,9.38353z" data-paper-data="{&quot;origPos&quot;:null}" fill="#ffdebd" stroke="none" stroke-width="0.5" stroke-linecap="butt"/><path d="M248.75151,129.16645c0,0 -1.0528,-0.37922 -7.40319,0.46682c-6.3504,0.84604 -11.01975,5.80138 -15.12337,4.61223c-3.56778,-1.03386 -6.2934,-12.35636 -4.30446,-12.62134c4.60249,-0.61317 23.78662,-3.48056 23.78662,-3.48056l3.0444,11.02286z" data-paper-data="{&quot;origPos&quot;:null}" fill="#ffffff" stroke="#f6b09a" stroke-width="0" stroke-linecap="butt"/><path d="M253.18921,121.38378c0,0 1.1865,-4.66079 3.55793,-6.32513c2.46942,-1.7331 6.69896,-3.01116 6.69896,-3.01116c0,0 7.1292,6.56342 3.95081,8.45229c-3.65575,2.17257 0.60103,1.43317 -5.74936,2.27921c-6.35039,0.84604 -8.45833,-1.39521 -8.45833,-1.39521z" data-paper-data="{&quot;index&quot;:null,&quot;origPos&quot;:null}" fill="#ffffff" stroke="#f6b09a" stroke-width="0" stroke-linecap="butt"/><path d="M225.23259,135.80314c-1.63201,0.63168 -2.2637,-1.00034 -2.2637,-1.00034l-0.66796,-0.60017c-2.83778,-3.43101 -3.17265,-6.6551 -3.74205,-10.92905c0,0 -0.2311,-1.73467 1.50357,-1.96577c1.73467,-0.2311 1.96578,1.50357 1.96578,1.50357c0.48828,3.66501 0.59756,6.29246 2.96974,9.16055l1.23496,1.56751c0,0 0.63169,1.63202 -1.00034,2.26369z" data-paper-data="{&quot;origPos&quot;:null}" fill="#18c6ff" stroke="none" stroke-width="0.5" stroke-linecap="butt"/><path d="M208.60982,124.18911l-0.00648,0.00047c-1.17446,-4.73559 1.97854,-5.66701 5.8028,-5.96178c1.24822,-0.09622 2.75466,-0.48613 3.74189,0.53181c2.70778,2.79206 1.00734,5.20524 1.4479,8.51203c0.31008,3.87333 0.04473,11.30397 -5.88528,8.90863c-0.00185,-0.00074 -1.07405,-2.20224 -1.08862,-2.23113c-1.49712,-2.96804 -2.88135,-5.87394 -3.90627,-9.04839c0,0 -0.06849,-0.21213 -0.08087,-0.50943l-0.01486,0.00462c0,0 -0.01059,-0.07954 -0.01022,-0.20683z" data-paper-data="{&quot;origPos&quot;:null}" fill="#8e4108" stroke="none" stroke-width="0.5" stroke-linecap="butt"/><path d="M269.80069,120.85648c-1.45877,0.97904 -2.4266,-0.51374 -2.4266,-0.51374l-0.30099,-1.61615c-0.79733,-1.65836 -1.84227,-2.65973 -3.21308,-3.9107c0,0 -1.30797,-1.19362 -0.14439,-2.5211c1.16359,-1.32748 2.47155,-0.13386 2.47155,-0.13386c1.6985,1.55 3.01157,2.89341 4.02808,5.0076l0.07635,1.21612c0,0 0.96785,1.49278 -0.49092,2.47183z" data-paper-data="{&quot;origPos&quot;:null}" fill="#18c6ff" stroke="none" stroke-width="0.5" stroke-linecap="butt"/><path d="M264.54883,83.55916c4.60085,14.4637 1.54624,15.72803 -6.62477,21.64325c-11.90583,8.61898 -28.8701,9.45531 -41.85575,16.64665c-3.40968,1.88825 -13.0347,-0.31356 -16.95511,0.20874c-8.01838,1.06826 -13.23307,-3.51045 -14.38663,-9.63795c-2.5445,-13.51585 4.86223,-14.55635 12.88061,-15.62461c0,0 9.00067,0.1468 12.61275,3.97373c0,0 9.87007,-19.69492 22.51353,-23.65005c16.27569,-5.09135 28.51135,-3.94663 31.81537,6.44022z" data-paper-data="{&quot;origPos&quot;:null}" fill="#fff70c" stroke="none" stroke-width="0" stroke-linecap="butt"/><path d="M261.57179,93.45707c0.69288,5.20076 -4.6479,10.20316 -11.92896,11.17319c-7.28105,0.97003 -13.7452,-2.45965 -14.43808,-7.66041c-0.69287,-5.20076 4.64791,-10.20316 11.92896,-11.17319c7.28106,-0.97003 13.7452,2.45965 14.43808,7.66041z" data-paper-data="{&quot;origPos&quot;:null}" fill="#ffffff" stroke="none" stroke-width="0" stroke-linecap="butt"/><path d="M231.54343,86.85884c-0.27792,-2.21027 1.93234,-2.48819 1.93234,-2.48819l3.06238,2.2363c1.1549,1.57022 2.30978,3.14047 3.46468,4.7107c1.1549,1.57022 2.3098,3.14046 3.46469,4.71069c0.24759,0.33665 0.21551,0.86822 0.54017,1.13134c0.04996,0.04048 0.11449,0.07271 0.18736,0.09969c0.15751,-0.48982 0.23758,-1.00804 0.27801,-1.55579c0.20301,-2.75119 0.21427,-4.55493 2.06832,-6.77533c2.77975,-3.32906 5.34212,-0.2563 6.8888,1.84661c0.5448,0.80674 1.4789,3.67299 2.07135,4.15313c0.16673,0.13514 0.48954,0.17596 0.74585,0.23882c0.65277,-1.0074 1.63544,-2.58915 1.98804,-3.65959c0.48386,-1.46892 0.54088,-3.17876 0.52339,-4.86832l-0.16495,-0.0067l0.14387,-3.5425c0.00886,-0.27685 0.06912,-0.55091 0.17838,-0.80689c0.23925,-0.62475 0.79834,-1.38827 2.10055,-1.35045c0.02252,0.00054 0.04502,0.00142 0.06749,0.00265c1.30341,0.06452 1.8015,0.8682 1.99109,1.51073c0.07076,0.20912 0.10903,0.42533 0.11585,0.64144l0.09121,1.97543l-0.15985,0.00738c-0.16165,4.37851 -0.39771,8.28268 -2.97093,12.22202c-1.48199,2.26876 -4.0896,3.76485 -6.67964,1.60216c-1.90274,-1.58879 -2.08796,-3.82213 -3.63079,-5.47954c-0.21999,-0.2991 -0.43995,-0.59818 -0.65994,-0.89728c-0.3175,0.39175 -0.36171,0.94525 -0.47141,1.43743c-0.2946,1.3218 0.70006,6.62148 -1.51664,7.33743c-5.78038,1.86695 -7.93577,-3.46856 -10.77935,-7.33479c-1.1549,-1.57022 -2.3098,-3.14047 -3.4647,-4.71069c0,0 -1.1277,-0.17762 -1.40562,-2.38788z" data-paper-data="{&quot;origPos&quot;:null,&quot;origRot&quot;:0}" fill="#0052ef" stroke="none" stroke-width="0.5" stroke-linecap="butt"/><path d="M283.74353,106.1475c-0.10589,0.88017 -42.27353,12.18937 -54.12749,14.97923c-5.76118,1.35591 -17.62964,2.50861 -17.52375,1.62844c0.39144,-3.25369 1.9862,-8.58244 7.35345,-10.96714c6.48604,-2.88178 28.94928,-11.30206 46.31056,-13.37125c7.0972,-0.84587 18.37869,4.47703 17.98724,7.73072z" data-paper-data="{&quot;origPos&quot;:null}" fill="#ffd412" stroke="none" stroke-width="0" stroke-linecap="butt"/><path d="M186.47703,127.9221l7.04847,2.42374c0,0 4.77382,0.2671 7.57725,1.34446c2.80342,1.07736 2.84472,1.57804 4.11877,3.15034c1.27405,1.5723 1.05089,1.78608 0.30814,2.31289c-0.74275,0.52682 -3.64879,1.99003 -6.1458,1.82762c-2.49702,-0.16241 -4.03073,-2.48951 -4.03073,-2.48951l-1.85186,-6.07532" data-paper-data="{&quot;origPos&quot;:null}" fill="none" stroke="#f6b09a" stroke-width="3" stroke-linecap="round"/><path d="M216.375,123.27357l30.32715,-10.26153l35.37657,-7.06703" data-paper-data="{&quot;origPos&quot;:null}" fill="none" stroke="#ffffff" stroke-width="4.5" stroke-linecap="round"/><path d="M266.4054,114.50646l-0.29713,-2.23029l-5.3858,1.22195l-3.1225,1.17262l-2.51151,3.86553l-2.18097,2.56044l-6.69089,0.8914l-2.89099,-0.87589l-7.20281,-1.05806l-5.48484,0.47851l-5.31977,1.71757l-10.72227,4.7072l-2.31184,-9.78035l8.32651,-1.86594l5.91444,-1.04016l5.05525,0.08313l6.64116,0.62847l4.54292,1.91685l4.03099,-0.03261l3.86593,-1.27167l2.59385,-1.3544l3.40372,-4.74102l4.44428,-2.60976l4.17976,-0.80906l4.09703,0.463l0.95783,3.40332z" data-paper-data="{&quot;origPos&quot;:null}" fill="#000001" stroke="#ff0000" stroke-width="0" stroke-linecap="round"/><path d="M252.85683,113.17235c0.76826,3.5607 -0.79113,6.95629 -3.483,7.58426c-2.69187,0.62798 -5.49687,-1.74948 -6.26512,-5.31018c-0.76825,-3.5607 1.40743,-2.33049 4.09929,-2.95847c2.69187,-0.62798 4.88058,-2.87632 5.64884,0.68438z" data-paper-data="{&quot;origPos&quot;:null,&quot;origRot&quot;:0}" fill="#ffdebd" stroke="#f6b09a" stroke-width="2.5" stroke-linecap="butt"/><path d="M242.36264,114.26274l4.90785,-1.52818l5.67878,-1.2946" data-paper-data="{&quot;origPos&quot;:null}" fill="none" stroke="#ffffff" stroke-width="4.5" stroke-linecap="round"/><g data-paper-data="{&quot;origPos&quot;:null,&quot;index&quot;:null}" stroke-linecap="round"><path d="M272.29739,139.99898l5.85738,7.98262l-39.81882,9.54505c0,0 -10.15637,1.72031 -10.29191,1.65678c-0.40662,-0.19062 -1.50899,-2.20465 -1.50899,-2.20465l-4.33582,-6.84262l2.65545,-1.27247z" data-paper-data="{&quot;origPos&quot;:null}" fill="#ffffff" stroke="#000000" stroke-width="0"/><path d="M238.93483,156.88151l-5.82038,-7.70488" data-paper-data="{&quot;origPos&quot;:null}" fill="none" stroke="#a5b5ff" stroke-width="1.5"/><path d="M246.38157,146.51907l3.88736,7.48107" data-paper-data="{&quot;origPos&quot;:null,&quot;origRot&quot;:0}" fill="none" stroke="#a5b5ff" stroke-width="1.5"/><path d="M265.22411,150.59435l-3.88736,-7.48108" data-paper-data="{&quot;origPos&quot;:null,&quot;origRot&quot;:0}" fill="none" stroke="#a5b5ff" stroke-width="1.5"/></g><path d="M288.75295,139.97495l-1.77183,7.9032l-3.17197,0.42259l-1.30819,-2.24693l-0.25139,2.65647l-3.99138,0.32999l-3.2773,-3.39695l-0.14574,3.44946l-2.24693,1.30819l-1.66522,-0.38345l-3.5812,-4.16353l-2.31343,5.35238l-2.60364,0.14511l-3.52837,-3.76704l-2.48527,5.57705l-1.78423,0.23771l-6.013,-4.24309l-1.38774,0.18488l-2.68351,5.60346l-1.73141,0.63421l-8.04831,-4.37547l-4.33569,6.83241l-2.52441,0.73985l-15.92414,-15.02869l2.04867,-1.28177l11.61678,3.90005l1.15035,-4.99566l2.37898,-0.31694l13.16299,4.90466l3.55574,-5.11436l1.55957,-0.40955l6.43591,4.38852l3.15925,-5.06154l2.63005,0.05315l2.16737,1.12362l1.53285,2.41876l2.00921,-3.09242l2.74906,-0.56801l3.47556,3.37054l2.45853,-2.74875l3.10578,0.59507l2.12759,2.33952l1.81097,-3.066l2.66951,1.86379l1.09688,0.66093z" data-paper-data="{&quot;origPos&quot;:null}" fill="#000001" stroke="#ff0000" stroke-width="0" stroke-linecap="round"/><path d="M252.93095,133.00968c0.03096,-1.72953 -0.35153,-3.83803 -0.03493,-5.23977c0.69939,-3.09655 3.80086,-4.90817 6.68972,-5.29304c9.69347,-1.29143 25.27465,0.40352 26.86097,12.31057c0.39488,3.51916 0.1335,6.66631 -2.34231,9.4634c-1.21312,1.37055 -3.74597,1.75295 -5.44292,2.15405c-5.28235,1.24862 -11.35507,2.81047 -16.81201,2.45554c-4.8134,-0.61343 -9.24486,0.48545 -13.45735,-2.98634c-2.96107,-2.44042 -3.30771,-7.76614 -1.69827,-10.90654c0.77785,-1.51775 4.20467,-1.74939 5.72088,-1.95139c0,0 0.21014,-0.028 0.5162,-0.0065z" data-paper-data="{&quot;origPos&quot;:null}" fill="url(#color-4)" stroke="none" stroke-width="0.5" stroke-linecap="butt"/><path d="M240.30431,121.40383c0.83602,-0.11138 1.6296,0.06537 2.23788,0.44133c0.60825,0.37495 1.02999,0.9493 1.12111,1.63325c0.09112,0.68395 -0.16555,1.34868 -0.6544,1.86979c-0.48863,0.5221 -1.20827,0.90045 -2.04428,1.01183c-0.83591,0.11137 -1.62951,-0.06538 -2.23789,-0.44133c-0.60815,-0.37498 -1.02989,-0.94931 -1.121,-1.63326c-0.09112,-0.68395 0.16554,-1.34867 0.65431,-1.86978c0.48873,-0.52211 1.20837,-0.90046 2.04428,-1.01183z" data-paper-data="{&quot;origPos&quot;:null}" id="ID0.651427554897964" fill="#000000" stroke="none" stroke-width="1.05702" stroke-linecap="butt"/><path d="M261.39991,114.35968c0.83601,-0.11138 1.6296,0.06537 2.23788,0.44134c0.60825,0.37495 1.02999,0.94929 1.12111,1.63325c0.09112,0.68395 -0.16555,1.34868 -0.65441,1.8698c-0.48863,0.5221 -1.20827,0.90045 -2.04429,1.01183c-0.83591,0.11137 -1.6295,-0.06537 -2.23788,-0.44133c-0.60814,-0.37498 -1.02988,-0.94931 -1.121,-1.63327c-0.09112,-0.68395 0.16554,-1.34868 0.6543,-1.86979c0.48873,-0.52211 1.20837,-0.90046 2.04429,-1.01183z" data-paper-data="{&quot;origPos&quot;:null}" id="ID0.651427554897964" fill="#000000" stroke="none" stroke-width="1.05702" stroke-linecap="butt"/></g></g></g></svg>