<svg version="1.1" xmlns="http://www.w3.org/2000/svg" xmlns:xlink="http://www.w3.org/1999/xlink" width="84.25" height="87.316" viewBox="0,0,84.25,87.316"><g transform="translate(-197.875,-136.2835)"><g data-paper-data="{&quot;isPaintingLayer&quot;:true}" fill="#ffffff" fill-rule="evenodd" stroke="#000000" stroke-width="0.25" stroke-linecap="round" stroke-linejoin="miter" stroke-miterlimit="10" stroke-dasharray="" stroke-dashoffset="0" style="mix-blend-mode: normal"><path d="M249.8,196.9995c1.3,7.3 2.3,14.3 3.1,20.6v0.5c-0.01784,1.40071 -0.67448,2.71656 -1.783,3.573c-1.499,1.252 -3.726,1.927 -5.817,1.927c-1.11391,0.01254 -2.2202,-0.1849 -3.261,-0.582c-1.5773,-0.50602 -2.72168,-1.87583 -2.939,-3.518c-0.05071,-0.39808 -0.10204,-0.79608 -0.154,-1.194c-0.785,-6.031 -1.833,-12.981 -3.146,-20.106c-6.29,0.454 -12.644,0.843 -18.79,1.149c-4.53474,0.22846 -9.07163,0.41214 -13.61,0.551h-0.2c-0.02233,0.00014 -0.04467,0.00014 -0.067,0c-3.357,-0.043 -5.133,-3.321 -5.133,-6.5c0,-2.237 0.831,-4.475 2.528,-5.652c0.78757,-0.53995 1.7172,-0.83499 2.672,-0.848c3.52477,-0.08425 7.04837,-0.21193 10.57,-0.383c6.51512,-0.31878 13.0257,-0.72448 19.53,-1.217c-0.16249,-0.7747 -0.32516,-1.54937 -0.488,-2.324c-1.0932,-5.30884 -2.26399,-10.60141 -3.512,-15.876c-2.17046,0.12191 -4.34017,0.25691 -6.509,0.405c-2.11,0.144 -4.15,0.298 -6.091,0.463c-2.16952,0.18024 -4.3364,0.39093 -6.5,0.632h-0.6c-3.6,0 -5.7,-3.9 -5.7,-7.4c-0.002,-0.5677 0.05497,-1.13407 0.17,-1.69c0.419,-1.981 1.631,-3.574 3.83,-3.81c0.66592,-0.07798 1.33226,-0.15232 1.999,-0.223c4.709,-0.502 10.264,-0.927 16.201,-1.277c-0.7,-2.6 -1.4,-5.1 -2.1,-7.3c-0.1,-0.4 -0.2,-0.8 -0.2,-1.2c0,-3.3 4.3,-5.7 8.2,-5.7c0.73216,-0.0045 1.46153,0.09071 2.168,0.283c1.69254,0.38184 3.04475,1.65175 3.532,3.317c0.05654,0.1947 0.11321,0.38937 0.17,0.584c0.513,1.758 1.053,3.581 1.586,5.488c0.36601,1.30448 0.71404,2.61394 1.044,3.928c4.8,-0.2 9.6,-0.3 13.9,-0.3c1.52521,0.00122 3.05034,0.02222 4.575,0.063c1.37528,0.03692 2.7503,0.08259 4.125,0.137c1.48605,0.08903 2.84249,0.87552 3.658,2.121c0.90502,1.39044 1.37246,3.02025 1.342,4.679c0.00112,0.67096 -0.07573,1.33978 -0.229,1.993c-0.335,1.414 -1.042,2.672 -2.132,3.436c-0.74479,0.51638 -1.63284,0.78605 -2.539,0.771h-0.2c-1.3,-0.05 -2.725,-0.1 -4.225,-0.137c-1.55801,-0.04042 -3.11647,-0.06142 -4.675,-0.063c-0.83703,0.00061 -1.67405,0.00661 -2.511,0.018c-2.63008,0.04137 -5.25981,0.10204 -7.889,0.182c1.3,5.7 2.5,11.6 3.7,17.6c1.44256,-0.13934 2.88457,-0.28434 4.326,-0.435c4.287,-0.449 8.445,-0.935 12.35,-1.438c2.94564,-0.37741 5.88714,-0.78643 8.824,-1.227c0.00267,0.00002 0.00533,0.00002 0.008,0c0.162,-0.002 0.386,-0.066 0.57,-0.09c0.04041,-0.00597 0.08116,-0.00931 0.122,-0.01c1.10812,0.00771 2.1761,0.41579 3.007,1.149c1.397,1.184 2.302,3.128 2.534,5.073c0.03897,0.32455 0.05867,0.65112 0.059,0.978c0.09711,1.96951 -0.81672,3.8526 -2.424,4.995c-0.6601,0.41949 -1.40182,0.69388 -2.176,0.805c-7.1,1.1 -15.7,2.2 -24.8,3.1zM281.9,147.9995c0.072,0.216 0.092,0.432 0.098,0.61c0.0017,0.06332 0.00237,0.12666 0.002,0.19c-0.00209,0.76743 -0.32605,1.49878 -0.893,2.016c-0.797,0.762 -2.02,1.184 -3.207,1.184c-0.34713,0.0017 -0.69291,-0.04337 -1.028,-0.134c-0.85403,-0.18354 -1.5362,-0.8249 -1.772,-1.666c-0.09659,-0.3766 -0.19793,-0.75196 -0.304,-1.126c-0.697,-2.45 -1.48,-4.393 -2.563,-6.97c-0.21079,-0.50142 -0.42179,-1.00275 -0.633,-1.504c-0.00508,-0.01029 -0.01008,-0.02063 -0.015,-0.031c-0.185,-0.385 -0.185,-0.679 -0.185,-1.069c0,-1.714 1.814,-2.975 3.628,-3.091c0.09055,-0.0059 0.18126,-0.0089 0.272,-0.009c0.56591,-0.00748 1.12564,0.11824 1.634,0.367c0.53873,0.27107 0.9808,0.70162 1.266,1.233c0.05898,0.11551 0.11765,0.23117 0.176,0.347c2.067,4.095 2.843,6.638 3.524,9.653zM271.5,149.1995c0.072,0.216 0.092,0.432 0.098,0.61c0.0017,0.06332 0.00237,0.12666 0.002,0.19c-0.00209,0.76743 -0.32605,1.49878 -0.893,2.016c-0.797,0.762 -2.02,1.184 -3.207,1.184c-0.34713,0.0017 -0.69291,-0.04337 -1.028,-0.134c-0.85403,-0.18354 -1.5362,-0.8249 -1.772,-1.666c-0.09659,-0.3766 -0.19793,-0.75196 -0.304,-1.126c-0.697,-2.45 -1.48,-4.393 -2.563,-6.97c-0.21079,-0.50142 -0.42179,-1.00275 -0.633,-1.504c-0.00508,-0.01029 -0.01008,-0.02063 -0.015,-0.031c-0.185,-0.385 -0.185,-0.679 -0.185,-1.069c0,-1.714 1.814,-2.975 3.628,-3.091c0.09055,-0.0059 0.18126,-0.0089 0.272,-0.009c0.56591,-0.00748 1.12564,0.11824 1.634,0.367c0.53873,0.27107 0.9808,0.70162 1.266,1.233c0.05898,0.11551 0.11765,0.23117 0.176,0.347c2.067,4.095 2.843,6.638 3.524,9.653z"/></g></g></svg>