<svg version="1.1" xmlns="http://www.w3.org/2000/svg" xmlns:xlink="http://www.w3.org/1999/xlink" width="150.37131" height="174.1211" viewBox="0,0,150.37131,174.1211"><defs><linearGradient x1="297.91986" y1="227.61046" x2="317.41553" y2="235.49712" gradientUnits="userSpaceOnUse" id="color-1"><stop offset="0" stop-color="#008c4d"/><stop offset="1" stop-color="#006638"/></linearGradient><linearGradient x1="246.73184" y1="168.10032" x2="246.73184" y2="250.77833" gradientUnits="userSpaceOnUse" id="color-2"><stop offset="0" stop-color="#b100c6"/><stop offset="1" stop-color="#9900aa"/></linearGradient><linearGradient x1="246.52064" y1="232.51015" x2="263.88659" y2="244.37207" gradientUnits="userSpaceOnUse" id="color-3"><stop offset="0" stop-color="#008c4d"/><stop offset="1" stop-color="#006638"/></linearGradient><radialGradient cx="288.7554" cy="158.22683" r="20.52041" gradientUnits="userSpaceOnUse" id="color-4"><stop offset="0" stop-color="#fbc5fc"/><stop offset="1" stop-color="#f991fd"/></radialGradient></defs><g transform="translate(-172.57229,-88.79969)"><g data-paper-data="{&quot;isPaintingLayer&quot;:true}" fill="none" fill-rule="nonzero" stroke="none" stroke-width="none" stroke-linecap="none" stroke-linejoin="miter" stroke-miterlimit="10" stroke-dasharray="" stroke-dashoffset="0" font-family="none" font-weight="none" font-size="none" text-anchor="none" style="mix-blend-mode: normal"><g data-paper-data="{&quot;origPos&quot;:null,&quot;origRot&quot;:0}" stroke-width="0" stroke-linecap="round"><path d="M299.46628,223.87745c0.18973,-0.469 1.71053,-2.4455 2.62151,-3.30578c1.07022,-1.01066 2.77425,-1.91303 3.3705,-2.35299c0.19875,-0.14665 3.06303,-0.60493 3.44523,-1.67038c0.3822,-1.06545 -0.06862,-5.17576 0.52804,-8.41619c0.59666,-3.24043 -0.02017,-4.097 1.87506,-4.6351c1.89523,-0.53809 3.66918,0.91739 5.43712,2.55907c1.76793,1.64168 4.43237,4.11822 5.5411,7.63518c1.10873,3.51696 0.69793,5.51464 -0.34403,8.85021c-1.04197,3.33558 -5.26782,16.59159 -10.62534,26.26557c-5.35752,9.67398 -7.26249,8.53349 -8.93524,8.75477c-0.50419,0.06669 -3.34893,0.77369 -4.1241,0.4172c-1.90689,-0.87696 -7.94563,-4.52116 -7.76454,-8.89423c0.18109,-4.37307 4.82343,-14.94553 8.97469,-25.20735z" data-paper-data="{&quot;origPos&quot;:null}" fill="url(#color-1)" stroke="#000000"/><path d="M287.17793,248.03196c-3.50928,0.45593 -1.72825,0.81457 -9.0342,-0.77804c-7.30595,-1.59261 -11.09055,-2.76246 -14.09632,-4.26416c-3.32448,-1.66092 6.03507,-26.8651 10.95535,-31.52569c4.92028,-4.66057 13.8675,4.35577 16.44336,5.57318c1.85343,0.87597 4.31327,2.74106 5.73912,4.47913c1.42586,1.73807 1.6667,1.29381 2.20803,5.20811c0.54134,3.9143 1.26446,6.08708 -0.10104,10.02724c-1.3655,3.94016 -4.50062,6.85975 -6.34717,8.57917c-1.84656,1.71942 -2.25786,2.24512 -5.76713,2.70105z" data-paper-data="{&quot;origPos&quot;:null}" fill="#9900aa" stroke="#b100c6"/></g><g data-paper-data="{&quot;origPos&quot;:null,&quot;origRot&quot;:0}" stroke-width="0" stroke-linecap="butt"><g data-paper-data="{&quot;origPos&quot;:null}" stroke="none"><path d="M259.40263,200.20551c-9.4458,-4.57041 -15.78622,-4.8708 -13.32061,-9.96657c2.46561,-5.09576 4.91832,-18.96438 8.94585,-17.65283c3.36891,1.09707 27.30326,11.54672 29.19546,14.5422c1.47195,2.33023 -2.94691,7.03594 -8.10289,17.69196c-2.46561,5.09577 -7.27201,-0.04437 -16.71782,-4.61477z" data-paper-data="{&quot;origRot&quot;:0,&quot;origPos&quot;:null}" fill="#ffdebd"/><path d="M266.6371,181.85032c-9.44581,-4.5704 -15.07761,-5.73559 -12.612,-10.83135c2.46561,-5.09576 7.42898,-9.68018 11.45651,-8.36863c3.10224,0.01131 10.27381,-1.53945 12.166,1.45604c6.23789,3.92264 10.95476,15.8248 5.79876,26.48082c-2.13418,3.63284 -7.36347,-4.16647 -16.80927,-8.73687z" data-paper-data="{&quot;origRot&quot;:0,&quot;origPos&quot;:null}" fill="#fff70c"/></g><g data-paper-data="{&quot;origPos&quot;:null}"><path d="M281.57337,197.69828c-5.21227,7.2499 -5.75721,12.72987 -14.06844,15.99362c-4.5294,1.77867 -14.02266,-4.39146 -17.97367,-7.23201c-7.06265,-5.07765 -5.95621,-10.95822 0.08862,-19.36614c6.04483,-8.40792 16.67052,-11.10764 23.73317,-6.03c7.06265,5.07765 14.26514,8.22661 8.22032,16.63454z" data-paper-data="{&quot;origPos&quot;:null,&quot;origRot&quot;:0}" fill="#ffdebd" stroke="#ffdebd"/><g data-paper-data="{&quot;origPos&quot;:null,&quot;origRot&quot;:0}" fill="#ffffff" stroke="none"><path d="M298.88668,196.58812c12.81066,7.76731 5.60726,18.31728 -0.6877,30.60975c-5.76869,11.26479 -16.82931,7.42917 -24.59588,1.6546c-10.70568,-7.95985 -3.86067,-15.37697 4.27127,-25.07464c8.13194,-9.69768 9.05058,-14.44232 21.01232,-7.18971z" data-paper-data="{&quot;origRot&quot;:0,&quot;origPos&quot;:null}"/><path d="M286.37869,187.53605c7.26133,5.69998 2.93768,5.81497 -8.38693,20.05677c-9.94097,12.50175 -11.1882,14.77365 -18.04996,9.90706c-6.13371,-4.35025 2.48018,-11.67947 8.74865,-19.1749c6.26846,-7.49543 13.44813,-14.11732 17.68824,-10.78893z" data-paper-data="{&quot;origRot&quot;:0,&quot;origPos&quot;:null}"/></g></g></g><g data-paper-data="{&quot;origPos&quot;:null}"><path d="M229.67785,169.82956c15.39885,0 40.51731,-5.44824 52.39438,2.9966c15.94172,11.33491 16.91377,36.01156 16.91377,53.82034c0,16.41613 -22.9587,24.13183 -51.43391,24.13183c-28.47521,0 -53.79308,-8.23538 -53.05883,-42.43989c1.21973,-12.52806 6.70937,-38.50888 35.18458,-38.50888z" data-paper-data="{&quot;origPos&quot;:null,&quot;index&quot;:null}" fill="url(#color-2)" stroke="none" stroke-width="0" stroke-linecap="butt"/><path d="M235.17785,164.32956c15.39885,0 36.01731,-2.94824 47.89438,5.4966c8.04003,5.71663 15.97706,29.68937 15.97706,29.68937c0,0 -36.93426,-2.75059 -46.06329,1.13097c-4.09315,1.74035 -16.45869,7.13183 -21.9339,8.63183c-2.86947,0.78612 -34.29308,0.76462 -31.55883,-18.43989c1.21973,-12.52806 7.20937,-26.50888 35.68458,-26.50888z" data-paper-data="{&quot;origPos&quot;:null,&quot;index&quot;:null}" fill="#fff70c" stroke="none" stroke-width="0" stroke-linecap="butt"/><path d="M239.24093,205.2965l-1.5,-35.5" data-paper-data="{&quot;origPos&quot;:null}" fill="none" stroke="#b100c6" stroke-width="17" stroke-linecap="round"/><path d="M246.24093,205.2965c0,3.86599 -3.13401,7 -7,7c-3.86599,0 -7,-3.13401 -7,-7c0,-3.86599 3.13401,-7 7,-7c3.86599,0 7,3.13401 7,7z" data-paper-data="{&quot;origPos&quot;:null}" fill="#f3f3f3" stroke="none" stroke-width="0" stroke-linecap="butt"/><path d="M275.21757,167.54925l7.83813,11.27226l9.70859,23.72221" data-paper-data="{&quot;origPos&quot;:null,&quot;origRot&quot;:0}" fill="none" stroke="#b100c6" stroke-width="14" stroke-linecap="round"/><path d="M301.24091,200.2965c0,3.86599 -3.13401,7 -7,7c-3.86599,0 -7,-3.13401 -7,-7c0,-3.86599 3.13401,-7 7,-7c3.86599,0 7,3.13401 7,7z" data-paper-data="{&quot;origPos&quot;:null}" fill="#f3f3f3" stroke="none" stroke-width="0" stroke-linecap="butt"/></g><g data-paper-data="{&quot;origPos&quot;:null,&quot;origRot&quot;:0}" stroke-linecap="butt"><g data-paper-data="{&quot;origPos&quot;:null}" stroke="none" stroke-width="0"><path d="M195.03146,197.38554c-5.64951,0.35941 -3.53793,-6.35354 -4.20416,-16.82577c-0.66624,-10.47224 -3.52308,-16.14056 2.12642,-16.49998c5.6495,-0.35942 18.93114,-5.0448 19.77001,-0.89299c0.70171,3.47287 3.37475,29.45176 1.69722,32.57252c-1.30498,2.42767 -7.57552,0.89461 -19.38949,1.6462z" data-paper-data="{&quot;origRot&quot;:0,&quot;origPos&quot;:null}" fill="#ffdebd"/><path d="M211.0272,196.76401c-4.21274,-0.07152 0.00616,-8.46053 -0.66008,-18.93276c-0.66624,-10.47224 -2.42158,-15.94892 3.22792,-16.30833c5.6495,-0.35942 12.08223,1.70743 12.92111,5.85924c1.51591,2.70666 6.3933,8.18822 4.71577,11.30897c-0.34747,7.36055 -8.39075,17.32127 -20.20472,18.07287z" data-paper-data="{&quot;origRot&quot;:0,&quot;origPos&quot;:null}" fill="#fff70c"/></g><g data-paper-data="{&quot;origPos&quot;:null}"><path d="M203.91443,198.6306c-8.87597,-0.97261 -13.91536,1.2481 -20.84477,-4.38326c-3.77634,-3.06893 -3.07307,-14.36929 -2.54301,-19.20645c0.94749,-8.64674 6.61186,-10.57556 16.90559,-9.44759c10.29371,1.12798 17.87033,9.05193 16.92284,17.69867c-0.94749,8.64674 -0.14693,16.46662 -10.44064,15.33865z" data-paper-data="{&quot;origPos&quot;:null,&quot;origRot&quot;:0}" fill="#ffdebd" stroke="#ffdebd" stroke-width="0"/><g data-paper-data="{&quot;origPos&quot;:null,&quot;origRot&quot;:0}" fill="#ffffff" stroke="none" stroke-width="0"><path d="M213.39615,213.15919c-0.46237,14.97432 -13.19098,13.8911 -26.98998,14.45584c-12.64538,0.51753 -14.7456,-10.99935 -13.5375,-20.60173c1.66529,-13.23622 11.48987,-10.92423 23.93308,-8.61334c12.44319,2.31089 17.02614,0.77719 16.5944,14.75923z" data-paper-data="{&quot;origRot&quot;:0,&quot;origPos&quot;:null}"/><path d="M215.126,197.81652c-1.39164,9.1258 -3.61824,5.41777 -21.58822,2.56196c-15.77441,-2.5069 -18.36597,-2.47547 -17.50344,-10.84347c0.77102,-7.48014 11.38907,-3.58477 20.99829,-1.81328c9.60921,1.77149 18.90599,4.76598 18.09336,10.09479z" data-paper-data="{&quot;origRot&quot;:0,&quot;origPos&quot;:null}"/></g><path d="M178.55693,202.3438c0.43193,-1.95281 2.38473,-1.52087 2.38473,-1.52087l1.91468,2.81501c0.50276,1.67622 1.00549,3.35246 1.50824,5.02868c0.50276,1.67622 1.00549,3.35246 1.50824,5.02868c0.10779,0.35936 -0.07974,0.79917 0.11538,1.11962c0.03002,0.04931 0.07487,0.09602 0.12835,0.14083c0.28099,-0.36665 0.50506,-0.78068 0.70452,-1.23165c1.00181,-2.26508 1.5556,-3.78689 3.79333,-5.10497c3.35502,-1.9762 4.5945,1.39523 5.2678,3.64008c0.21725,0.84654 0.14223,3.55203 0.49831,4.13681c0.10021,0.16458 0.36085,0.29651 0.55862,0.42699c0.85593,-0.65487 2.16412,-1.69585 2.78528,-2.49459c0.85238,-1.09608 1.41652,-2.52467 1.91154,-3.95861l-0.13746,-0.05544l1.19057,-2.95204c0.09103,-0.23143 0.22466,-0.44497 0.3943,-0.62845c0.39082,-0.45607 1.09396,-0.933 2.18366,-0.50809c0.01888,0.00725 0.03764,0.01479 0.05627,0.0226c1.08266,0.44785 1.26135,1.27772 1.22777,1.87823c-0.00326,0.19818 -0.03615,0.39255 -0.09559,0.57735l-0.51893,1.69789l-0.1374,-0.04199c-1.45785,3.65358 -2.83553,6.88364 -6.20003,9.4382c-1.93771,1.47124 -4.59408,1.94946 -6.13159,-0.66077c-1.1295,-1.91759 -0.61224,-3.86192 -1.4167,-5.72893c-0.09577,-0.31929 -0.19153,-0.63856 -0.28729,-0.95784c-0.38667,0.23545 -0.59106,0.69015 -0.83234,1.07323c-0.64795,1.02878 -1.40602,5.8102 -3.49644,5.74672c-5.45109,-0.16554 -5.66369,-5.32748 -6.90156,-9.45471c-0.50276,-1.67622 -1.0055,-3.35246 -1.50825,-5.02868c0,0 -0.89996,-0.49046 -0.46803,-2.44327z" data-paper-data="{&quot;origPos&quot;:null}" fill="#0052ef" stroke="none" stroke-width="0.5"/></g></g><g data-paper-data="{&quot;origPos&quot;:null,&quot;origRot&quot;:0}"><path d="M280.33816,147.2225l-3.55481,4.61002l0.74244,28.69967l-42.12349,-6.04162l-3.23493,-2.18115l-1.45788,-5.17334l-0.4997,-28.29558l32.98698,4.10605z" data-paper-data="{&quot;origPos&quot;:null}" fill="#a10114" stroke="#a10114" stroke-width="0.5" stroke-linecap="round"/><path d="M229.42929,158.72309c0.05652,-5.0623 6.51919,-9.09445 14.43478,-9.00607c7.91558,0.08838 14.28662,4.26383 14.23009,9.32612c-0.05652,5.0623 -6.51919,9.09445 -14.43478,9.00607c-7.91558,-0.08838 -14.28663,-4.26383 -14.2301,-9.32612z" data-paper-data="{&quot;origPos&quot;:null,&quot;origRot&quot;:0}" fill="#f4c4f6" stroke="none" stroke-width="0" stroke-linecap="butt"/><g data-paper-data="{&quot;origPos&quot;:null}" stroke-linecap="round"><path d="M238.06965,173.43819l-2.02688,-11.15559l40.02088,4.83003l6.54913,1.29013l2.34606,2.99007l0.56758,3.23351l-0.80465,7.35733z" data-paper-data="{&quot;origPos&quot;:null}" fill="#ffffff" stroke="#000000" stroke-width="0"/><path d="M277.36302,178.43029l-2.10757,-10.83217" data-paper-data="{&quot;origPos&quot;:null}" fill="none" stroke="#a5b5ff" stroke-width="1.5"/><path d="M263.7962,166.40628l0.44734,9.83304" data-paper-data="{&quot;origPos&quot;:null,&quot;origRot&quot;:0}" fill="none" stroke="#a5b5ff" stroke-width="1.5"/><path d="M249.28615,174.22591l-0.44733,-9.83305" data-paper-data="{&quot;origPos&quot;:null,&quot;origRot&quot;:0}" fill="none" stroke="#a5b5ff" stroke-width="1.5"/></g><g data-paper-data="{&quot;origPos&quot;:null}"><path d="M231.54005,135.49337c3.17995,1.50429 2.689,6.22439 2.67538,6.51353c-0.0771,1.63689 4.95034,26.11485 5.38157,27.52913c-2.55435,-2.12322 0.91298,1.54446 1.09897,1.63715c1.36563,0.68063 3.36575,0.83958 4.85134,1.21017c5.70666,1.42353 27.04826,4.58814 29.40124,4.6108c1.89475,0.01825 8.42222,1.25803 9.65044,2.03875c4.55678,2.89647 1.64464,11.88495 -0.14204,15.66187c-2.09168,1.28852 -4.05669,2.80999 -6.27507,3.86557c-0.75249,0.35807 -1.61712,-0.40339 -2.42567,-0.60509c-2.62901,-0.65581 -4.81123,-1.40666 -7.05386,-3.00929c-0.57502,-0.41092 -0.918,-1.08259 -1.45426,-1.54295c-0.1608,-0.13804 -0.50356,-0.27831 -0.77791,-0.40826c-1.09591,0.27778 -2.15452,0.70215 -3.25867,0.94729c-3.8759,0.86052 -21.29221,-4.12943 -23.59065,-5.32859c-6.49375,-3.38798 -11.14141,-9.35019 -13.96138,-16.03794c-3.12356,-7.73049 -3.0837,-15.36888 -2.94784,-23.53976c0.04836,-2.90798 2.17051,-11.16067 2.17051,-11.16067c0,0 2.13809,-4.5198 6.65789,-2.3817z" data-paper-data="{&quot;origPos&quot;:null}" fill="#ffdebd" stroke="none" stroke-width="0.5" stroke-linecap="butt"/><path d="M270.89741,182.3142l0.72966,3.96103l-0.64542,2.58738l-0.72611,2.91081l-2.4246,1.45646" data-paper-data="{&quot;origPos&quot;:null}" fill="none" stroke="#f6b09a" stroke-width="1.5" stroke-linecap="round"/></g></g><g data-paper-data="{&quot;origPos&quot;:null,&quot;origRot&quot;:0}" stroke-width="0" stroke-linecap="round"><path d="M248.8274,229.1927c0.28534,-0.41775 2.19259,-2.0246 3.26603,-2.67087c1.2611,-0.75923 3.11834,-1.27755 3.79469,-1.58028c0.22545,-0.10091 3.12157,0.06204 3.72214,-0.89742c0.60058,-0.95946 1.03646,-5.07138 2.31028,-8.1101c1.27382,-3.03871 0.85381,-4.00714 2.82017,-4.12877c1.96638,-0.12165 3.38925,1.6786 4.7665,3.65946c1.37726,1.98086 3.45243,4.96855 3.78584,8.64103c0.33341,3.67248 -0.49388,5.53662 -2.22303,8.57336c-1.72916,3.03673 -8.6841,15.08698 -15.98097,23.39628c-7.29687,8.3093 -8.9149,6.78889 -10.59635,6.64845c-0.50681,-0.04233 -3.43689,0.04188 -4.11821,-0.47168c-1.67607,-1.26335 -6.79901,-6.11126 -5.68973,-10.34517c1.10928,-4.23391 7.89898,-13.57351 14.14266,-22.71431z" data-paper-data="{&quot;origPos&quot;:null}" fill="url(#color-3)" stroke="#000000"/><path d="M231.6717,250.17192c-3.52579,-0.30276 -1.86217,0.42736 -8.6606,-2.68631c-6.79843,-3.11367 -10.24658,-5.0635 -12.86307,-7.1715c-2.89392,-2.33152 11.62409,-24.96071 17.42489,-28.4651c5.80082,-3.50438 12.61997,7.21224 14.87706,8.95086c1.62405,1.25099 3.62968,3.59765 4.65219,5.59974c1.02251,2.0021 1.35252,1.61942 1.04686,5.55913c-0.30566,3.93972 -0.06241,6.21671 -2.23656,9.77514c-2.17416,3.55844 -5.85969,5.74249 -8.03037,7.02867c-2.17068,1.28618 -2.68462,1.71212 -6.21041,1.40936z" data-paper-data="{&quot;origPos&quot;:null}" fill="#9900aa" stroke="#b100c6"/></g><g><path d="M307.05552,136.52618c-1.52607,3.52912 -14.8386,5.16775 -24.40106,2.78668c-7.70544,-1.91867 -4.16325,-7.99784 -3.28251,-11.53492c0.88074,-3.53708 15.78922,0.99453 23.49466,2.9132c7.70544,1.91867 5.17672,3.55067 4.18891,5.83504z" data-paper-data="{&quot;origPos&quot;:null}" fill="#b49416" stroke="none" stroke-width="0" stroke-linecap="butt"/><path d="M306.19496,133.71435l-1.93687,3.63985l-5.33381,2.10698l-12.28619,2.4369" data-paper-data="{&quot;origPos&quot;:null}" fill="none" stroke="#a5b5ff" stroke-width="4.5" stroke-linecap="round"/><path d="M216.43634,140.8775c2.75688,0.70761 3.95974,1.93071 5.85922,3.89684c3.42392,3.9128 6.0883,10.71102 3.84524,15.73267c-1.93636,4.33502 -8.26316,2.8874 -10.10017,-0.77801c-0.02242,-0.07184 0.13864,-2.28894 0.08343,-2.49258c-0.55576,-2.04981 -3.8029,-2.61705 -4.80998,-4.92861c-0.9202,-2.11221 1.34987,-7.24903 1.88609,-9.4025c0,0 2.19459,-2.55173 3.23617,-2.02779z" data-paper-data="{&quot;origPos&quot;:null}" fill="#8e4108" stroke="none" stroke-width="0.5" stroke-linecap="butt"/><path d="M223.05683,165.81136c0,0 -3.29263,-7.20769 -4.4093,-10.32512c-0.78867,-2.28499 -0.8751,-4.40903 -1.23656,-6.73321c-0.15606,-1.00354 -1.28203,-3.02262 -1.05916,-3.97954c0.05597,-0.24034 -0.88481,-0.92338 -1.66634,-1.43615c-1.54533,-1.01391 -3.13842,-2.14544 -4.56701,-3.31629c-2.65375,-2.17495 -4.57718,-5.28814 -5.95363,-8.39536c-2.16318,-4.91022 -4.01814,-10.18278 -3.85759,-15.55402c0.13019,-4.35545 2.01612,-7.31756 2.01612,-7.31756c0,0 12.2463,4.14751 12.64913,4.33304c1.89527,0.8729 8.15773,2.41841 12.07194,4.61473c1.89993,1.06608 3.62287,1.92389 4.95058,3.59583c0.50261,0.63291 1.252,2.78088 1.54939,2.84895c2.63283,0.60256 7.00737,-0.77728 9.67041,-1.14297c7.21347,-0.99056 42.12939,4.29953 46.07515,9.03141c0.56695,0.6799 0.4775,1.70523 0.68834,2.56502c0.7718,3.1474 0.92015,24.72821 0.50342,28.74003c-0.22067,2.12442 -2.27579,3.92038 -3.78657,4.98437c-0.68399,0.4817 -6.97321,-0.70341 -9.12751,-1.23984c-10.37561,-2.58355 -20.68788,-5.26537 -31.21295,-7.1764c-2.62305,-0.48155 -6.15614,-0.84924 -8.59556,-1.97081c-0.31488,-0.14477 -1.71727,0.75407 -1.55971,1.14204c0.76315,1.87911 0.76877,10.39414 0.76877,10.39414z" data-paper-data="{&quot;origPos&quot;:null}" fill="#ffdebd" stroke="none" stroke-width="0.5" stroke-linecap="butt"/><path d="M266.98791,143.13706c0,0 -0.83964,-0.73973 -7.05632,-2.28769c-6.21668,-1.54797 -12.38085,1.3436 -15.75987,-1.27097c-2.93779,-2.27317 -1.30975,-13.80476 0.63731,-13.31993c4.50557,1.1219 23.40031,5.50848 23.40031,5.50848l-1.22143,11.37013z" data-paper-data="{&quot;origPos&quot;:null}" fill="#ffffff" stroke="#f6b09a" stroke-width="0" stroke-linecap="butt"/><path d="M273.97614,137.53101c0,0 2.81695,-3.89814 5.6342,-4.57405c2.93365,-0.70382 7.33685,-0.33735 7.33685,-0.33735c0,0 4.21682,8.72481 0.56658,9.31284c-4.19846,0.67635 0.03202,1.55378 -6.18466,0.00581c-6.21667,-1.54797 -7.35297,-4.40725 -7.35297,-4.40725z" data-paper-data="{&quot;index&quot;:null,&quot;origPos&quot;:null}" fill="#ffffff" stroke="#f6b09a" stroke-width="0" stroke-linecap="butt"/><path d="M242.67618,140.66209c-1.74995,-0.01258 -1.73737,-1.76253 -1.73737,-1.76253l-0.40053,-0.80371c-1.3776,-4.23404 -0.50367,-7.35543 0.53814,-11.53939c0,0 0.42284,-1.69815 2.12099,-1.2753c1.69815,0.42284 1.2753,2.12099 1.2753,2.12099c-0.89338,3.58785 -1.75774,6.07145 -0.60617,9.61081l0.57216,1.91176c0,0 -0.01257,1.74995 -1.76253,1.73737z" data-paper-data="{&quot;origPos&quot;:null}" fill="#18c6ff" stroke="none" stroke-width="0.5" stroke-linecap="butt"/><path d="M231.48758,123.75004l-0.00619,-0.00194c0.64885,-4.83571 3.92348,-4.54268 7.58826,-3.4108c1.19618,0.36944 2.74047,0.56068 3.2843,1.87028c1.49162,3.59205 -0.97694,5.21103 -1.783,8.44819c-1.13569,3.71606 -4.11437,10.52872 -8.74839,6.12094c-0.00144,-0.00137 -0.18916,-2.44288 -0.19209,-2.4751c-0.30105,-3.31059 -0.51997,-6.52189 -0.30601,-9.85082c0,0 0.01429,-0.22246 0.11209,-0.50349l-0.01552,-0.00117c0,0 0.01939,-0.07786 0.06653,-0.19609z" data-paper-data="{&quot;origPos&quot;:null}" fill="#8e4108" stroke="none" stroke-width="0.5" stroke-linecap="butt"/><path d="M289.61804,143.14793c-1.71655,0.37416 -2.06778,-1.36991 -2.06778,-1.36991l0.31428,-1.61362c-0.13179,-1.83536 -0.73539,-3.15077 -1.55026,-4.8181c0,0 -0.77753,-1.5909 0.79262,-2.39761c1.57014,-0.80671 2.34766,0.78419 2.34766,0.78419c1.00967,2.0659 1.73687,3.79797 1.90489,6.13782l-0.37611,1.15901c0,0 0.35124,1.74406 -1.36531,2.11822z" data-paper-data="{&quot;origPos&quot;:null}" fill="#18c6ff" stroke="none" stroke-width="0.5" stroke-linecap="butt"/><path d="M298.44655,106.53196c-1.03903,15.14222 -4.34453,15.19496 -14.11803,17.69179c-14.24079,3.63808 -30.32441,-1.82114 -45.0445,0.0923c-3.8651,0.50241 -12.0065,-5.08387 -15.84436,-6.03951c-7.84954,-1.95456 -11.01562,-8.12978 -9.83559,-14.25224c2.60288,-13.50473 9.8734,-11.74924 17.72295,-9.79468c0,0 8.31631,3.44566 10.26842,8.33256c0,0 16.41973,-14.68675 29.63179,-13.71644c17.00764,1.24906 27.96548,6.81211 27.21933,17.68622z" data-paper-data="{&quot;origPos&quot;:null}" fill="#fff70c" stroke="none" stroke-width="0" stroke-linecap="butt"/><path d="M292.039,114.64212c-1.26773,5.09125 -8.07361,7.77973 -15.20135,6.00491c-7.12774,-1.77482 -11.87822,-7.34087 -10.61049,-12.43212c1.26773,-5.09125 8.07362,-7.77973 15.20135,-6.00491c7.12774,1.77483 11.87822,7.34087 10.61049,12.43212z" data-paper-data="{&quot;origPos&quot;:null}" fill="#ffffff" stroke="none" stroke-width="0" stroke-linecap="butt"/><path d="M266.53962,97.46594c0.55416,-2.15764 2.7118,-1.60348 2.7118,-1.60348l2.02571,3.20557c0.49671,1.88486 0.99341,3.76972 1.49012,5.65458c0.49671,1.88486 0.99342,3.76972 1.49012,5.65458c0.10649,0.40409 -0.11879,0.88664 0.08639,1.25069c0.03157,0.05601 0.07973,0.10971 0.13758,0.16159c0.32657,-0.3976 0.59155,-0.85009 0.83053,-1.34461c1.20028,-2.48386 1.87391,-4.15713 4.41444,-5.54038c3.80901,-2.07391 5.0622,1.7257 5.72741,4.24998c0.21004,0.95054 0.02494,3.95946 0.39936,4.6238c0.10538,0.18697 0.39057,0.34362 0.60581,0.4963c0.97743,-0.69685 2.4728,-1.80653 3.19427,-2.67237c0.99003,-1.18815 1.67169,-2.75727 2.27659,-4.33493l-0.15093,-0.06687l1.43621,-3.2415c0.11002,-0.25421 0.26681,-0.48691 0.46255,-0.68479c0.45219,-0.49303 1.25284,-0.99753 2.44993,-0.4836c0.02074,0.00878 0.04134,0.01788 0.06179,0.02728c1.1884,0.5392 1.35613,1.46972 1.29622,2.13696c-0.01107,0.22049 -0.05498,0.43563 -0.12809,0.63911l-0.64145,1.87061l-0.15136,-0.0519c-1.7601,4.01242 -3.41502,7.55636 -7.25633,10.27374c-2.21231,1.565 -5.18734,1.99761 -6.80086,-0.96585c-1.18535,-2.17707 -0.5365,-4.32209 -1.36192,-6.43064c-0.09461,-0.35903 -0.18922,-0.71804 -0.28383,-1.07707c-0.43929,0.24758 -0.68389,0.74607 -0.96687,1.16344c-0.75994,1.12091 -1.78339,6.41511 -4.10806,6.26594c-6.06193,-0.389 -6.10473,-6.14326 -7.32772,-10.78416c-0.49671,-1.88486 -0.99342,-3.76972 -1.49013,-5.65458c0,0 -0.98341,-0.57977 -0.42925,-2.73742z" data-paper-data="{&quot;origPos&quot;:null,&quot;origRot&quot;:0}" fill="#0052ef" stroke="none" stroke-width="0.5" stroke-linecap="butt"/><path d="M307.99219,134.59529c-0.42208,0.7796 -43.79427,-4.20641 -55.84372,-5.9701c-5.85619,-0.85718 -17.31721,-4.14871 -16.89514,-4.92831c1.56026,-2.88189 5.00247,-7.25111 10.87056,-7.4955c7.09127,-0.29533 31.077,0.13285 47.98308,4.59154c6.91112,1.82269 15.44549,10.92048 13.88522,13.80238z" data-paper-data="{&quot;origPos&quot;:null}" fill="#ffd412" stroke="none" stroke-width="0" stroke-linecap="butt"/><path d="M209.53247,119.08437l5.66371,4.84539c0,0 4.34127,2.00351 6.55226,4.03611c2.21098,2.03259 2.06531,2.51339 2.67206,4.44398c0.60675,1.93059 0.32063,2.04736 -0.56379,2.26419c-0.88442,0.21685 -4.12488,0.50916 -6.3873,-0.55992c-2.26242,-1.06907 -2.83315,-3.79707 -2.83315,-3.79707l0.51147,-6.33066" data-paper-data="{&quot;origPos&quot;:null}" fill="none" stroke="#f6b09a" stroke-width="3" stroke-linecap="round"/><path d="M239.04551,125.75353l31.97581,1.60709l35.4971,6.43429" data-paper-data="{&quot;origPos&quot;:null}" fill="none" stroke="#ffffff" stroke-width="4.5" stroke-linecap="round"/><path d="M288.79517,135.99436l0.54366,-2.18333l-5.45785,-0.84375l-3.33492,-0.0575l-3.7568,2.67142l-2.96958,1.57927l-6.55,-1.63097l-2.36649,-1.87743l-6.30934,-3.63211l-5.27663,-1.57153l-5.57866,-0.35856l-11.70194,0.43543l1.44588,-9.94532l8.42936,1.32603l5.88263,1.20715l4.67063,1.9359l5.94497,3.02611l3.52001,3.45283l3.76067,1.45168l4.0627,0.23872l2.91014,-0.3059l4.90838,-3.15757l5.09251,-0.79302l4.18448,0.78431l3.63985,1.93687l-0.3605,3.51711z" data-paper-data="{&quot;origPos&quot;:null}" fill="#000001" stroke="#ff0000" stroke-width="0" stroke-linecap="round"/><path d="M276.686,129.77248c-0.59465,3.59377 -3.29324,6.17822 -6.02745,5.77254c-2.73421,-0.40568 -4.46868,-3.6479 -3.87401,-7.24167c0.59466,-3.59377 2.16567,-1.64983 4.89988,-1.24414c2.73421,0.40568 5.59625,-0.8805 5.0016,2.71327z" data-paper-data="{&quot;origPos&quot;:null,&quot;origRot&quot;:0}" fill="#ffdebd" stroke="#f6b09a" stroke-width="2.5" stroke-linecap="butt"/><path d="M266.52592,126.92827l5.12595,0.38324l5.75701,0.88389" data-paper-data="{&quot;origPos&quot;:null}" fill="none" stroke="#ffffff" stroke-width="4.5" stroke-linecap="round"/><g data-paper-data="{&quot;origPos&quot;:null,&quot;index&quot;:null}" stroke-linecap="round"><path d="M284.90205,161.86766l2.51229,9.57703l-40.53929,-5.76303c0,0 -10.07752,-2.13421 -10.18021,-2.24313c-0.30807,-0.32676 -0.59275,-2.60503 -0.59275,-2.60503l-1.51643,-7.95746l2.93729,-0.20706z" data-paper-data="{&quot;origPos&quot;:null}" fill="#ffffff" stroke="#000000" stroke-width="0"/><path d="M247.6692,165.30188l-2.58001,-9.30514" data-paper-data="{&quot;origPos&quot;:null}" fill="none" stroke="#a5b5ff" stroke-width="1.5"/><path d="M258.40417,158.40304l0.86465,8.38632" data-paper-data="{&quot;origPos&quot;:null,&quot;origRot&quot;:0}" fill="none" stroke="#a5b5ff" stroke-width="1.5"/><path d="M274.42873,169.12043l-0.86465,-8.38633" data-paper-data="{&quot;origPos&quot;:null,&quot;origRot&quot;:0}" fill="none" stroke="#a5b5ff" stroke-width="1.5"/></g><path d="M300.21394,167.89527l-4.55338,6.69826l-3.10518,-0.7732l-0.39047,-2.57051l-1.21045,2.37799l-3.83315,-1.16057l-1.79886,-4.36395l-1.40375,3.15428l-2.57051,0.39047l-1.40762,-0.96882l-1.79964,-5.18857l-4.11923,4.12698l-2.47464,-0.8223l-1.89629,-4.80043l-4.36163,4.27272l-1.74667,-0.43492l-4.03187,-6.15662l-1.35852,-0.33827l-4.5557,4.2244l-1.84332,-0.04678l-5.87596,-7.02802l-6.54399,4.75985l-2.61961,-0.24008l-9.28349,-19.83071l2.37644,-0.4388l9.3693,7.89787l2.90646,-4.22285l2.32889,0.5799l10.43786,9.40058l5.18703,-3.44888l1.60092,0.19253l4.3717,6.44735l4.79888,-3.54553l2.42631,1.01637l1.60247,1.84177l0.53622,2.81291l3.00544,-2.13714l2.76536,0.48247l1.99294,4.41228l3.29693,-1.65234l2.66948,1.69524l1.11844,2.95789l2.81136,-2.18546l1.79731,2.71471l0.77707,1.01792z" data-paper-data="{&quot;origPos&quot;:null}" fill="#000001" stroke="#ff0000" stroke-width="0" stroke-linecap="round"/><path d="M269.46164,148.24772c0.66466,-1.59702 1.08415,-3.69847 1.89394,-4.88563c1.78886,-2.62253 5.33917,-3.16702 8.16721,-2.46283c9.48935,2.36287 23.35612,9.6676 20.45366,21.32394c-0.92661,3.41786 -2.32675,6.24849 -5.65753,7.93944c-1.63205,0.82855 -4.12808,0.25295 -5.85366,0.00207c-5.37145,-0.78091 -11.59307,-1.56112 -16.53733,-3.89746c-4.25076,-2.34014 -8.77585,-2.94746 -11.41688,-7.72484c-1.85646,-3.35815 -0.22079,-8.43832 2.43052,-10.76705c1.28138,-1.12548 4.55336,-0.08101 6.03764,0.28858c0,0 0.20572,0.05122 0.48244,0.18374z" data-paper-data="{&quot;origPos&quot;:null}" fill="url(#color-4)" stroke="none" stroke-width="0.5" stroke-linecap="butt"/><path d="M264.97083,136.14301c0.81841,0.20379 1.49144,0.65992 1.91889,1.23319c0.42779,0.57232 0.60883,1.26149 0.44211,1.93104c-0.16672,0.66956 -0.6498,1.19335 -1.29601,1.49824c-0.64636,0.30589 -1.4547,0.39316 -2.27311,0.18937c-0.81831,-0.20376 -1.49134,-0.6599 -1.91889,-1.23319c-0.42769,-0.5723 -0.60874,-1.26146 -0.44202,-1.93102c0.16672,-0.66956 0.6498,-1.19335 1.29592,-1.49827c0.64646,-0.30586 1.4548,-0.39313 2.27311,-0.18937z" data-paper-data="{&quot;origPos&quot;:null}" id="ID0.651427554897964" fill="#000000" stroke="none" stroke-width="1.05702" stroke-linecap="butt"/><path d="M284.95118,137.54277c0.81841,0.20379 1.49144,0.65992 1.91889,1.23319c0.42779,0.57232 0.60883,1.26149 0.44211,1.93104c-0.16672,0.66956 -0.6498,1.19335 -1.29601,1.49824c-0.64636,0.30589 -1.4547,0.39316 -2.27311,0.18937c-0.81831,-0.20376 -1.49134,-0.6599 -1.91889,-1.23319c-0.42769,-0.5723 -0.60874,-1.26146 -0.44202,-1.93102c0.16672,-0.66956 0.6498,-1.19335 1.29592,-1.49827c0.64646,-0.30586 1.4548,-0.39313 2.27311,-0.18937z" data-paper-data="{&quot;origPos&quot;:null}" id="ID0.651427554897964" fill="#000000" stroke="none" stroke-width="1.05702" stroke-linecap="butt"/></g></g></g></svg>