<svg version="1.1" xmlns="http://www.w3.org/2000/svg" xmlns:xlink="http://www.w3.org/1999/xlink" width="48.58205" height="44.47171" viewBox="0,0,48.58205,44.47171"><defs><linearGradient x1="239.98449" y1="199.04378" x2="239.98449" y2="202.23585" gradientUnits="userSpaceOnUse" id="color-1"><stop offset="0" stop-color="#f69635"/><stop offset="1" stop-color="#ff0000"/></linearGradient><linearGradient x1="240.01551" y1="190.30962" x2="240.01551" y2="192.79233" gradientUnits="userSpaceOnUse" id="color-2"><stop offset="0" stop-color="#ffffff"/><stop offset="1" stop-color="#ff0000"/></linearGradient></defs><g transform="translate(-215.70897,-157.76414)"><g data-paper-data="{&quot;isPaintingLayer&quot;:true}" fill-rule="nonzero" stroke="none" stroke-linecap="butt" stroke-linejoin="miter" stroke-miterlimit="10" stroke-dasharray="" stroke-dashoffset="0" style="mix-blend-mode: normal"><path d="M261.23276,199.17647c0.70015,-0.44017 1.18947,-1.44554 1.18947,-2.61541c0,-1.57551 -0.88748,-2.85271 -1.98226,-2.85271c-1.09478,0 -1.98226,1.2772 -1.98226,2.85271c0,1.16986 0.48933,2.17525 1.18948,2.61541h-6.3009c0.70016,-0.44017 1.18947,-1.44554 1.18947,-2.61541c0,-1.57551 -0.88748,-2.85271 -1.98226,-2.85271c-1.09477,0 -1.98226,1.2772 -1.98226,2.85271c0,1.16986 0.48932,2.17525 1.18947,2.61541h-6.65386c0.60143,-0.48983 1.00735,-1.41891 1.00735,-2.48442c0,-1.57551 -0.88748,-2.85271 -1.98226,-2.85271c-1.09477,0 -1.98226,1.2772 -1.98226,2.85271c0,1.06551 0.40592,1.99458 1.00734,2.48442h-6.34516c0.60143,-0.48983 1.00735,-1.41891 1.00735,-2.48442c0,-1.57551 -0.88748,-2.85271 -1.98226,-2.85271c-1.09477,0 -1.98226,1.2772 -1.98226,2.85271c0,1.06551 0.40592,1.99458 1.00734,2.48442h-5.97921c0.60143,-0.48983 1.00735,-1.41891 1.00735,-2.48442c0,-1.57551 -0.88748,-2.85271 -1.98226,-2.85271c-1.09477,0 -1.98226,1.2772 -1.98226,2.85271c0,1.06551 0.40592,1.99458 1.00734,2.48442h-5.30174c0.4956,-0.51857 0.81781,-1.35957 0.81781,-2.30886c0,-1.57551 -0.88748,-2.85271 -1.98226,-2.85271c-1.09477,0 -1.98226,1.2772 -1.98226,2.85271c0,0.94931 0.3222,1.79029 0.81781,2.30886h-3.56244v-6.56147h48.55104v6.56147z" data-paper-data="{&quot;index&quot;:null}" fill="#f69635" stroke-width="NaN"/><path d="M215.70898,202.23585v-3.19207h3.47614c0.34558,0.42201 0.79302,0.67654 1.28175,0.67654c0.48873,0 0.93615,-0.25455 1.28175,-0.67654h5.03698c0.3191,0.31601 0.70572,0.50099 1.12235,0.50099c0.41663,0 0.80325,-0.18499 1.12235,-0.50099h5.68434c0.3191,0.31601 0.70571,0.50099 1.12235,0.50099c0.41663,0 0.80325,-0.18499 1.12235,-0.50099h6.05029c0.3191,0.31601 0.70571,0.50099 1.12235,0.50099c0.41663,0 0.80326,-0.18499 1.12235,-0.50099h6.3222c0.28835,0.23551 0.62176,0.36998 0.977,0.36998c0.35523,0 0.68864,-0.13448 0.97699,-0.36998h5.93247c0.28835,0.23551 0.62176,0.36998 0.977,0.36998c0.35523,0 0.68864,-0.13448 0.97699,-0.36998h2.84301v3.19207z" data-paper-data="{&quot;index&quot;:null}" fill="url(#color-1)" stroke-width="NaN"/><path d="M215.73998,192.79233v-2.48272h48.55104v2.48272z" data-paper-data="{&quot;index&quot;:null}" fill="url(#color-2)" stroke-width="NaN"/><path d="M257.72902,197.27041c0,-1.20264 0.51992,-2.23052 1.25392,-2.64355c-0.32603,0.5084 -0.5252,1.18782 -0.5252,1.93418c0,1.57551 0.88748,2.85272 1.98226,2.85272c0.23823,0 0.46666,-0.06048 0.67825,-0.17136c-0.35849,0.5336 -0.86113,0.86539 -1.41761,0.86539c-1.0889,0 -1.97161,-1.27034 -1.97161,-2.83739z" data-paper-data="{&quot;index&quot;:null}" fill="#ff0000" stroke-width="0"/><path d="M251.12465,194.58381c-0.34269,0.51278 -0.55337,1.20959 -0.55337,1.97723c0,1.57551 0.88748,2.85272 1.98226,2.85272c0.23845,0 0.46707,-0.06059 0.67882,-0.17166c-0.35622,0.50758 -0.84626,0.82104 -1.38716,0.82104c-1.0889,0 -1.97161,-1.27033 -1.97161,-2.83739c0,-1.20108 0.51856,-2.22787 1.25106,-2.64194z" data-paper-data="{&quot;index&quot;:null}" fill="#ff0000" stroke-width="0"/><path d="M241.49422,197.22576c0,-1.24811 0.55996,-2.30799 1.33808,-2.68773c-0.41818,0.52302 -0.68259,1.29408 -0.68259,2.15402c0,1.57551 0.88749,2.85271 1.98226,2.85271c0.20377,0 0.40035,-0.04425 0.58537,-0.12644c-0.34043,0.40292 -0.77635,0.64482 -1.25153,0.64482c-1.0889,0 -1.97161,-1.27033 -1.97161,-2.83739z" data-paper-data="{&quot;index&quot;:null}" fill="#ff0000" stroke-width="0"/><path d="M234.32731,194.84328c-0.29471,0.49793 -0.47257,1.14346 -0.47257,1.84879c0,1.57551 0.88748,2.85271 1.98226,2.85271c0.31179,0 0.60677,-0.1036 0.86924,-0.28818c-0.36088,0.5767 -0.88378,0.93927 -1.46552,0.93927c-1.0889,0 -1.97161,-1.27033 -1.97161,-2.83739c0,-1.09269 0.42919,-2.04112 1.05821,-2.51519z" data-paper-data="{&quot;index&quot;:null}" fill="#ff0000" stroke-width="0"/><path d="M225.38263,197.35845c0,-1.04659 0.39377,-1.96086 0.9797,-2.45269c-0.27317,0.48889 -0.43663,1.11012 -0.43663,1.78629c0,1.57551 0.88748,2.8527 1.98226,2.8527c0.34298,0 0.66564,-0.12535 0.94701,-0.34598c-0.36163,0.61017 -0.89978,0.99707 -1.50071,0.99707c-1.0889,0 -1.97162,-1.27033 -1.97162,-2.83739z" data-paper-data="{&quot;index&quot;:null}" fill="#ff0000" stroke-width="0"/><path d="M217.52719,197.31382c0,-1.50967 0.81927,-2.74396 1.85287,-2.83232c-0.53933,0.50979 -0.89546,1.38811 -0.89546,2.38612c0,1.57551 0.88749,2.85271 1.98227,2.85271c0.02661,0 0.05309,-0.00075 0.07944,-0.00225c-0.3035,0.27443 -0.66262,0.43314 -1.04751,0.43314c-1.0889,0 -1.97161,-1.27033 -1.97161,-2.83739z" data-paper-data="{&quot;index&quot;:null}" fill="#ff0000" stroke-width="0"/><path d="M238.08963,186.95235c-0.50531,-0.41555 -0.83915,-1.09712 -1.05354,-1.93949c-0.73552,-2.8899 -0.06519,-7.67219 -0.08979,-10.0971c-0.01989,-1.96068 -0.20163,-3.92367 -0.11312,-5.88042c0.05576,-1.23275 0.88055,-2.98249 0.18027,-3.697c-0.06186,-0.06312 -1.95744,5.70485 -3.11543,2.67124c-0.48711,-1.27612 0.30025,-2.35423 0.73686,-3.31769c0.92483,-2.04078 1.72206,-5.52506 3.2953,-6.73012c1.8479,-1.41546 4.26066,5.18874 4.89149,6.58534c0.41934,0.92836 1.44356,2.52558 0.31515,3.57636c-2.21803,2.06543 -3.66179,-8.94987 -3.90727,-3.62418c-0.24603,5.3373 -0.14584,10.6887 -0.11237,16.04081c0.00727,1.16242 0.04535,2.42003 0.05475,3.58241c0.00012,0.01469 0.09055,1.86534 -0.14684,2.06058z" fill="#9966ff" stroke-width="0.5"/></g></g></svg>