<svg version="1.1" xmlns="http://www.w3.org/2000/svg" xmlns:xlink="http://www.w3.org/1999/xlink" width="770.65482" height="411.86159" viewBox="0,0,770.65482,411.86159"><defs><linearGradient x1="245.85828" y1="-21.41802" x2="245.85828" y2="361.58198" gradientUnits="userSpaceOnUse" id="color-1"><stop offset="0" stop-color="#05234d"/><stop offset="1" stop-color="#357abe"/></linearGradient><radialGradient cx="425.94322" cy="259.91125" r="376.66667" gradientUnits="userSpaceOnUse" id="color-2"><stop offset="0" stop-color="#144071"/><stop offset="1" stop-color="#144071" stop-opacity="0"/></radialGradient><radialGradient cx="245.82115" cy="1057.41924" r="995.58616" gradientUnits="userSpaceOnUse" id="color-3"><stop offset="0" stop-color="#4d8fc9"/><stop offset="1" stop-color="#4d8fc9" stop-opacity="0"/></radialGradient><radialGradient cx="244.01812" cy="1057.41406" r="899.32964" gradientUnits="userSpaceOnUse" id="color-4"><stop offset="0" stop-color="#69beff"/><stop offset="1" stop-color="#69beff" stop-opacity="0"/></radialGradient><radialGradient cx="244.01812" cy="1057.41406" r="899.32964" gradientUnits="userSpaceOnUse" id="color-5"><stop offset="0" stop-color="#69beff"/><stop offset="1" stop-color="#69beff" stop-opacity="0"/></radialGradient><radialGradient cx="244.01812" cy="1057.41406" r="899.32964" gradientUnits="userSpaceOnUse" id="color-6"><stop offset="0" stop-color="#69beff"/><stop offset="1" stop-color="#69beff" stop-opacity="0"/></radialGradient><radialGradient cx="244.01812" cy="1057.41406" r="899.32964" gradientUnits="userSpaceOnUse" id="color-7"><stop offset="0" stop-color="#69beff"/><stop offset="1" stop-color="#69beff" stop-opacity="0"/></radialGradient><radialGradient cx="244.01812" cy="1057.41406" r="899.32964" gradientUnits="userSpaceOnUse" id="color-8"><stop offset="0" stop-color="#69beff"/><stop offset="1" stop-color="#69beff" stop-opacity="0"/></radialGradient><radialGradient cx="244.01812" cy="1057.41406" r="899.32964" gradientUnits="userSpaceOnUse" id="color-9"><stop offset="0" stop-color="#69beff"/><stop offset="1" stop-color="#69beff" stop-opacity="0"/></radialGradient><radialGradient cx="245.82119" cy="1057.41946" r="805.60297" gradientUnits="userSpaceOnUse" id="color-10"><stop offset="0" stop-color="#2a437d"/><stop offset="1" stop-color="#61d4dd"/></radialGradient><radialGradient cx="245.82124" cy="1057.41946" r="805.60297" gradientUnits="userSpaceOnUse" id="color-11"><stop offset="0" stop-color="#2a437d"/><stop offset="1" stop-color="#2a437d" stop-opacity="0"/></radialGradient><radialGradient cx="245.82124" cy="1057.41946" r="805.60297" gradientUnits="userSpaceOnUse" id="color-12"><stop offset="0" stop-color="#2a437d"/><stop offset="1" stop-color="#2a437d" stop-opacity="0"/></radialGradient><radialGradient cx="245.82128" cy="1057.41941" r="805.60297" gradientUnits="userSpaceOnUse" id="color-13"><stop offset="0" stop-color="#2a437d"/><stop offset="1" stop-color="#2a437d" stop-opacity="0"/></radialGradient><radialGradient cx="245.82128" cy="1057.41946" r="805.60297" gradientUnits="userSpaceOnUse" id="color-14"><stop offset="0" stop-color="#2a437d"/><stop offset="1" stop-color="#2a437d" stop-opacity="0"/></radialGradient><radialGradient cx="245.82128" cy="1057.41946" r="805.60297" gradientUnits="userSpaceOnUse" id="color-15"><stop offset="0" stop-color="#2a437d"/><stop offset="1" stop-color="#2a437d" stop-opacity="0"/></radialGradient><radialGradient cx="181.10266" cy="1027.09389" r="956.0872" gradientUnits="userSpaceOnUse" id="color-16"><stop offset="0" stop-color="#4d8fc9"/><stop offset="1" stop-color="#4d8fc9" stop-opacity="0"/></radialGradient><radialGradient cx="253.39952" cy="289.88615" r="161.83506" gradientUnits="userSpaceOnUse" id="color-17"><stop offset="0" stop-color="#d0edff"/><stop offset="1" stop-color="#d0edff" stop-opacity="0"/></radialGradient><radialGradient cx="550.34831" cy="389.51885" r="130.11533" gradientUnits="userSpaceOnUse" id="color-18"><stop offset="0" stop-color="#d0edff"/><stop offset="1" stop-color="#d0edff" stop-opacity="0"/></radialGradient><radialGradient cx="32.09244" cy="408.28668" r="161.83506" gradientUnits="userSpaceOnUse" id="color-19"><stop offset="0" stop-color="#d0edff"/><stop offset="1" stop-color="#d0edff" stop-opacity="0"/></radialGradient></defs><g transform="translate(145.23009,30.09168)"><g data-paper-data="{&quot;isPaintingLayer&quot;:true}" fill-rule="nonzero" stroke-linecap="butt" stroke-linejoin="miter" stroke-miterlimit="10" stroke-dasharray="" stroke-dashoffset="0" style="mix-blend-mode: normal"><g><path d="M-127.71462,-21.41802h747.14579v383h-747.14579z" fill="url(#color-1)" stroke="none" stroke-width="1"/><path d="M-130.42168,-20.38567h753.33333v381.96765h-753.33333z" data-paper-data="{&quot;index&quot;:null}" fill="url(#color-2)" stroke="none" stroke-width="1"/><path d="M35.17962,373.02117l0.52428,-27.61285l-7.62783,0.7628h-20.24669l-0.49853,0.0831l-0.79039,0.26346l-6.46035,1.4588l-6.33293,1.93867l-10.23139,2.04627l-0.80422,0.40209l-5.61208,2.13795l-0.44663,0.27569l-4.80264,1.72404l-4.76841,1.81651l-0.51853,0.08137l-3.45343,1.23969l-0.91776,0.61182l-5.84891,3.10721l-5.59968,3.53662l-5.69367,2.84683l-0.7412,0.49416l-9.25966,6.9447l-2.53544,1.53305l-2.28952,1.88069l-0.14753,0.09835c-24.92726,-0.95144 -49.84114,-2.64558 -74.75622,-3.89225c0.68584,-6.78557 1.40539,-13.56621 2.19801,-20.33587c1.93602,-16.53512 5.16315,-32.96178 7.4939,-49.44566c3.76651,-26.63807 6.97866,-53.6026 9.08825,-80.43227c0.66742,-8.48819 0.01242,-17.02879 0.01242,-25.54318c0,-11.81791 0,-23.63582 0,-35.45373l1.70718,-0.85359l5.61209,-2.13795l0.44662,-0.2757l4.80264,-1.72403l4.76841,-1.81656l0.51854,-0.08132l5.65234,-2.02905l0.28181,-0.07047l1.16707,-0.58352l5.61204,-2.13795l0.44662,-0.2757l4.80261,-1.72403l4.76841,-1.81651l0.51852,-0.08137l5.65235,-2.02904l11.62474,-2.90615l2.51438,-0.36795l2.42985,-0.74383l8.02853,-1.60572l2.42766,-0.80921l8.12868,-1.83553l8.04282,-2.18111l17.43714,-2.90619l8.76759,-0.5749l8.74283,-0.8743h15.43401l4.97917,-1.12436l0.37111,-0.0051l0.35367,-0.11251l16.64246,-1.66428h26.30702l2.61305,-0.66363l4.23064,0.66363h1.72355l16.64246,1.66428l7.54215,2.39976l7.81912,1.22652l6.76149,2.57578l4.50477,1.12619l3.30618,1.1868l2.03436,0.20348l7.54215,2.39976l7.81913,1.22652l15.62976,5.95419l1.54158,0.77079l4.08077,1.29842l3.08959,2.66827l2.70009,1.70533l5.8489,3.10722l0.76026,0.50684l3.98186,1.78495l3.70565,1.41171l21.36967,7.12322l9.45377,4.23787l1.17582,0.33804l2.27836,1.21037l2.3542,1.05531l0.98872,0.72063l1.90707,1.01314l3.05487,0.76374l15.74188,5.65096l1.28521,0.79332l1.45156,0.41731l6.89364,3.66222l1.76246,0.6327l6.9331,1.99991l5.45132,2.18052l4.9418,0.98833l9.31188,2.85059l9.35692,2.69911l2.67616,1.07049l28.04699,4.00668l1.20698,0.29738l1.2404,0.08136l15.29387,2.54897l14.51349,1.81419h132.8658l6.59015,0.65903l6.62098,0.16349l16.66951,2.08372h10.80597l7.51612,0.7516l7.54687,0.3189l20.34333,2.90619l1.20697,0.29734l1.24041,0.08136l16.21564,2.70263l19.11743,2.73105l2.87688,0.7088l2.94877,0.28909l14.53094,2.90619l2.42989,0.74383l2.51437,0.36795l6.97036,1.7426c-0.07308,1.69792 -0.16724,3.39071 -0.28637,5.07709c-0.38958,5.51447 -1.27563,10.99293 -1.5015,16.51652c-0.82024,20.05858 -0.01027,40.37581 -0.01027,60.45315c0,13.33333 -0.00822,26.66667 0,40c0.00305,4.93707 -0.23547,9.883 -0.19271,14.81877c-1.52513,-0.25333 -2.64976,-0.15961 -2.64976,-0.15961c-14.59637,1.21642 -29.03919,2.58669 -43.53789,4.50403c-3.6969,0.48888 -7.45812,-0.03407 -11.18721,-0.03407c-7.50751,0 -15.01501,0 -22.52252,0c-18.01799,0 -36.03607,-0.01682 -54.05406,0c-8.15146,0.00761 -16.26779,1.07674 -24.40778,1.50887c-12.77147,0.678 -267.66646,-0.00736 -281.83846,-0.00736c-16.69624,0 -32.20336,-0.20124 -48.84264,-1.47205c-6.2577,-0.47793 -12.566,-0.49813 -18.77445,-1.41598c-5.86889,-0.86765 -68.13805,2.05595 -78.85067,3.67586z" fill="url(#color-3)" stroke="none" stroke-width="0.5"/><path d="M-142.48173,356.46407c1.93602,-16.53512 5.16315,-32.96178 7.4939,-49.44566c3.23866,-22.90493 6.06745,-46.05123 8.13786,-69.14562c113.07566,-51.25132 238.63928,-79.78836 370.86809,-79.78836c135.73088,0 264.43883,30.06867 379.8261,83.90822c-0.38508,3.55216 -0.80644,7.10128 -0.95234,10.66924c-0.82024,20.05858 -0.01027,40.37581 -0.01027,60.45315c0,13.33333 -0.00822,26.66667 0,40c0.00305,4.93707 -0.23547,9.883 -0.19271,14.81877c-1.52513,-0.25333 -2.64976,-0.15961 -2.64976,-0.15961c-14.59637,1.21642 -29.03919,2.58669 -43.53789,4.50403c-3.6969,0.48888 -7.45812,-0.03407 -11.18721,-0.03407c-7.50751,0 -15.01501,0 -22.52252,0c-18.01799,0 -36.03607,-0.01682 -54.05406,0c-8.15146,0.00761 -16.26779,1.07674 -24.40778,1.50887c-12.77147,0.678 -267.66646,-0.00736 -281.83846,-0.00736c-16.69624,0 -32.20336,-0.20124 -48.84264,-1.47205c-6.2577,-0.47793 -12.566,-0.49813 -18.77445,-1.41598c-5.86889,-0.86765 -89.62513,5.03508 -111.4684,7.57499c-8.08589,0.94022 -16.11723,2.6628 -24.25573,2.83729c-41.31736,0.88588 -82.57191,-2.40555 -123.82972,-4.46997c0.68584,-6.78557 1.40539,-13.56621 2.19801,-20.33587z" fill="url(#color-4)" stroke="#c0e7f0" stroke-width="0"/><path d="M-142.48173,356.46407c1.93602,-16.53512 5.16315,-32.96178 7.4939,-49.44566c3.23866,-22.90493 6.06745,-46.05123 8.13786,-69.14562c113.07566,-51.25132 238.63928,-79.78836 370.86809,-79.78836c135.73088,0 264.43883,30.06867 379.8261,83.90822c-0.38508,3.55216 -0.80644,7.10128 -0.95234,10.66924c-0.82024,20.05858 -0.01027,40.37581 -0.01027,60.45315c0,13.33333 -0.00822,26.66667 0,40c0.00305,4.93707 -0.23547,9.883 -0.19271,14.81877c-1.52513,-0.25333 -2.64976,-0.15961 -2.64976,-0.15961c-14.59637,1.21642 -29.03919,2.58669 -43.53789,4.50403c-3.6969,0.48888 -7.45812,-0.03407 -11.18721,-0.03407c-7.50751,0 -15.01501,0 -22.52252,0c-18.01799,0 -36.03607,-0.01682 -54.05406,0c-8.15146,0.00761 -16.26779,1.07674 -24.40778,1.50887c-12.77147,0.678 -267.66646,-0.00736 -281.83846,-0.00736c-16.69624,0 -32.20336,-0.20124 -48.84264,-1.47205c-6.2577,-0.47793 -12.566,-0.49813 -18.77445,-1.41598c-2.05112,-0.30323 -13.61577,0.2205 -28.72606,1.13862c-28.12474,1.70889 -68.53311,4.78414 -82.74234,6.43637c-8.08589,0.94022 -16.11723,2.6628 -24.25573,2.83729c-41.31736,0.88588 -82.57191,-2.40555 -123.82972,-4.46997c0.68584,-6.78557 1.40539,-13.56621 2.19801,-20.33587z" fill="url(#color-5)" stroke="#c0e7f0" stroke-width="0"/><path d="M-142.48173,356.46407c1.93602,-16.53512 5.16315,-32.96178 7.4939,-49.44566c3.23866,-22.90493 6.06745,-46.05123 8.13786,-69.14562c113.07566,-51.25132 238.63928,-79.78836 370.86809,-79.78836c135.73088,0 264.43883,30.06867 379.8261,83.90822c-0.38508,3.55216 -0.80644,7.10128 -0.95234,10.66924c-0.82024,20.05858 -0.01027,40.37581 -0.01027,60.45315c0,13.33333 -0.00822,26.66667 0,40c0.00305,4.93707 -0.23547,9.883 -0.19271,14.81877c-1.52513,-0.25333 -2.64976,-0.15961 -2.64976,-0.15961c-14.59637,1.21642 -29.03919,2.58669 -43.53789,4.50403c-3.6969,0.48888 -7.45812,-0.03407 -11.18721,-0.03407c-7.50751,0 -15.01501,0 -22.52252,0c-18.01799,0 -36.03607,-0.01682 -54.05406,0c-8.15146,0.00761 -16.26779,1.07674 -24.40778,1.50887c-12.77147,0.678 -267.66646,-0.00736 -281.83846,-0.00736c-16.69624,0 -32.20336,-0.20124 -48.84264,-1.47205c-6.2577,-0.47793 -12.566,-0.49813 -18.77445,-1.41598c-5.86889,-0.86765 -89.62513,5.03508 -111.4684,7.57499c-8.08589,0.94022 -16.11723,2.6628 -24.25573,2.83729c-41.31736,0.88588 -82.57191,-2.40555 -123.82972,-4.46997c0.68584,-6.78557 1.40539,-13.56621 2.19801,-20.33587z" fill="url(#color-6)" stroke="#c0e7f0" stroke-width="0"/><path d="M-142.48173,356.46407c1.93602,-16.53512 5.16315,-32.96178 7.4939,-49.44566c3.23866,-22.90493 6.06745,-46.05123 8.13786,-69.14562c113.07566,-51.25132 238.63928,-79.78836 370.86809,-79.78836c135.73088,0 264.43883,30.06867 379.8261,83.90822c-0.38508,3.55216 -0.80644,7.10128 -0.95234,10.66924c-0.82024,20.05858 -0.01027,40.37581 -0.01027,60.45315c0,13.33333 -0.00822,26.66667 0,40c0.00305,4.93707 -0.23547,9.883 -0.19271,14.81877c-1.52513,-0.25333 -2.64976,-0.15961 -2.64976,-0.15961c-14.59637,1.21642 -29.03919,2.58669 -43.53789,4.50403c-3.6969,0.48888 -7.45812,-0.03407 -11.18721,-0.03407c-7.50751,0 -15.01501,0 -22.52252,0c-18.01799,0 -36.03607,-0.01682 -54.05406,0c-8.15146,0.00761 -16.26779,1.07674 -24.40778,1.50887c-12.77147,0.678 -267.66646,-0.00736 -281.83846,-0.00736c-16.69624,0 -32.20336,-0.20124 -48.84264,-1.47205c-6.2577,-0.47793 -12.566,-0.49813 -18.77445,-1.41598c-5.86889,-0.86765 -89.62513,5.03508 -111.4684,7.57499c-8.08589,0.94022 -16.11723,2.6628 -24.25573,2.83729c-41.31736,0.88588 -82.57191,-2.40555 -123.82972,-4.46997c0.68584,-6.78557 1.40539,-13.56621 2.19801,-20.33587z" fill="url(#color-7)" stroke="#c0e7f0" stroke-width="0"/><path d="M-142.48173,356.46407c1.93602,-16.53512 5.16315,-32.96178 7.4939,-49.44566c3.23866,-22.90493 6.06745,-46.05123 8.13786,-69.14562c113.07566,-51.25132 238.63928,-79.78836 370.86809,-79.78836c135.73088,0 264.43883,30.06867 379.8261,83.90822c-0.38508,3.55216 -0.80644,7.10128 -0.95234,10.66924c-0.82024,20.05858 -0.01027,40.37581 -0.01027,60.45315c0,13.33333 -0.00822,26.66667 0,40c0.00305,4.93707 -0.23547,9.883 -0.19271,14.81877c-1.52513,-0.25333 -2.64976,-0.15961 -2.64976,-0.15961c-14.59637,1.21642 -29.03919,2.58669 -43.53789,4.50403c-3.6969,0.48888 -7.45812,-0.03407 -11.18721,-0.03407c-7.50751,0 -15.01501,0 -22.52252,0c-18.01799,0 -36.03607,-0.01682 -54.05406,0c-8.15146,0.00761 -16.26779,1.07674 -24.40778,1.50887c-12.77147,0.678 -267.66646,-0.00736 -281.83846,-0.00736c-16.69624,0 -32.20336,-0.20124 -48.84264,-1.47205c-6.2577,-0.47793 -12.566,-0.49813 -18.77445,-1.41598c-5.86889,-0.86765 -89.62513,5.03508 -111.4684,7.57499c-8.08589,0.94022 -16.11723,2.6628 -24.25573,2.83729c-41.31736,0.88588 -82.57191,-2.40555 -123.82972,-4.46997c0.68584,-6.78557 1.40539,-13.56621 2.19801,-20.33587z" fill="url(#color-8)" stroke="#c0e7f0" stroke-width="0"/><path d="M-142.48173,356.46407c1.93602,-16.53512 5.16315,-32.96178 7.4939,-49.44566c3.23866,-22.90493 6.06745,-46.05123 8.13786,-69.14562c113.07566,-51.25132 238.63928,-79.78836 370.86809,-79.78836c135.73088,0 264.43883,30.06867 379.8261,83.90822c-0.38508,3.55216 -0.80644,7.10128 -0.95234,10.66924c-0.82024,20.05858 -0.01027,40.37581 -0.01027,60.45315c0,13.33333 -0.00822,26.66667 0,40c0.00305,4.93707 -0.23547,9.883 -0.19271,14.81877c-1.52513,-0.25333 -2.64976,-0.15961 -2.64976,-0.15961c-14.59637,1.21642 -29.03919,2.58669 -43.53789,4.50403c-3.6969,0.48888 -7.45812,-0.03407 -11.18721,-0.03407c-7.50751,0 -15.01501,0 -22.52252,0c-18.01799,0 -36.03607,-0.01682 -54.05406,0c-8.15146,0.00761 -16.26779,1.07674 -24.40778,1.50887c-12.77147,0.678 -267.66646,-0.00736 -281.83846,-0.00736c-16.69624,0 -32.20336,-0.20124 -48.84264,-1.47205c-6.2577,-0.47793 -12.566,-0.49813 -18.77445,-1.41598c-5.86889,-0.86765 -89.62513,5.03508 -111.4684,7.57499c-8.08589,0.94022 -16.11723,2.6628 -24.25573,2.83729c-41.31736,0.88588 -82.57191,-2.40555 -123.82972,-4.46997c0.68584,-6.78557 1.40539,-13.56621 2.19801,-20.33587z" fill="url(#color-9)" stroke="#c0e7f0" stroke-width="0"/><path d="M-142.48173,356.46407c0.21225,-1.81282 0.44002,-3.62433 0.68043,-5.43476c115.00054,-63.23942 247.11049,-99.21282 387.62249,-99.21282c136.22834,0 264.55912,33.81346 377.05729,93.50533c0.00054,2.59774 0.00152,5.19547 0.00312,7.79321c0.00305,4.93707 -0.23547,9.883 -0.19271,14.81877c-1.52513,-0.25333 -2.64976,-0.15961 -2.64976,-0.15961c-14.59637,1.21642 -29.03919,2.58669 -43.53789,4.50403c-3.6969,0.48888 -7.45812,-0.03407 -11.18721,-0.03407c-7.50751,0 -15.01501,0 -22.52252,0c-18.01799,0 -36.03607,-0.01682 -54.05406,0c-8.15146,0.00761 -16.26779,1.07674 -24.40778,1.50887c-12.77147,0.678 -267.66646,-0.00736 -281.83846,-0.00736c-16.69624,0 -32.20336,-0.20124 -48.84264,-1.47205c-6.2577,-0.47793 -12.566,-0.49813 -18.77445,-1.41598c-5.86889,-0.86765 -89.62513,5.03508 -111.4684,7.57499c-8.08589,0.94022 -16.11723,2.6628 -24.25573,2.83729c-41.31736,0.88588 -82.57191,-2.40555 -123.82972,-4.46997c0.68584,-6.78557 1.40539,-13.56621 2.19801,-20.33587z" fill="url(#color-10)" stroke="#c0e7f0" stroke-width="1"/><path d="M-142.48173,356.46407c0.21225,-1.81282 0.44002,-3.62433 0.68043,-5.43476c115.00054,-63.23942 247.11049,-99.21282 387.62249,-99.21282c136.22834,0 264.55912,33.81346 377.05729,93.50533c0.00054,2.59774 0.00152,5.19547 0.00312,7.79321c0.00305,4.93707 -0.23547,9.883 -0.19271,14.81877c-1.52513,-0.25333 -2.64976,-0.15961 -2.64976,-0.15961c-14.59637,1.21642 -29.03919,2.58669 -43.53789,4.50403c-3.6969,0.48888 -7.45812,-0.03407 -11.18721,-0.03407c-7.50751,0 -15.01501,0 -22.52252,0c-18.01799,0 -36.03607,-0.01682 -54.05406,0c-8.15146,0.00761 -16.26779,1.07674 -24.40778,1.50887c-12.77147,0.678 -267.66646,-0.00736 -281.83846,-0.00736c-16.69624,0 -32.20336,-0.20124 -48.84264,-1.47205c-6.2577,-0.47793 -12.566,-0.49813 -18.77445,-1.41598c-5.86889,-0.86765 -89.62513,5.03508 -111.4684,7.57499c-8.08589,0.94022 -16.11723,2.6628 -24.25573,2.83729c-41.31736,0.88588 -82.57191,-2.40555 -123.82972,-4.46997c0.68584,-6.78557 1.40539,-13.56621 2.19801,-20.33587z" fill="url(#color-11)" stroke="#c0e7f0" stroke-width="0"/><path d="M-142.48173,356.46407c0.21225,-1.81282 0.44002,-3.62433 0.68043,-5.43476c115.00054,-63.23942 247.11049,-99.21282 387.62249,-99.21282c136.22834,0 264.55912,33.81346 377.05729,93.50533c0.00054,2.59774 0.00152,5.19547 0.00312,7.79321c0.00305,4.93707 -0.23547,9.883 -0.19271,14.81877c-1.52513,-0.25333 -2.64976,-0.15961 -2.64976,-0.15961c-14.59637,1.21642 -29.03919,2.58669 -43.53789,4.50403c-3.6969,0.48888 -7.45812,-0.03407 -11.18721,-0.03407c-7.50751,0 -15.01501,0 -22.52252,0c-18.01799,0 -36.03607,-0.01682 -54.05406,0c-8.15146,0.00761 -16.26779,1.07674 -24.40778,1.50887c-12.77147,0.678 -267.66646,-0.00736 -281.83846,-0.00736c-16.69624,0 -32.20336,-0.20124 -48.84264,-1.47205c-6.2577,-0.47793 -12.566,-0.49813 -18.77445,-1.41598c-5.86889,-0.86765 -89.62513,5.03508 -111.4684,7.57499c-8.08589,0.94022 -16.11723,2.6628 -24.25573,2.83729c-41.31736,0.88588 -82.57191,-2.40555 -123.82972,-4.46997c0.68584,-6.78557 1.40539,-13.56621 2.19801,-20.33587z" fill="url(#color-12)" stroke="#c0e7f0" stroke-width="0"/><path d="M-142.48173,356.46407c0.21225,-1.81282 0.44002,-3.62435 0.68043,-5.43478c115.00055,-63.23944 247.11052,-99.21284 387.62253,-99.21284c136.22833,0 264.55909,33.81346 377.05725,93.50531c0.00054,2.59776 0.00152,5.19552 0.00312,7.79327c0.00305,4.93707 -0.23547,9.883 -0.19271,14.81877c-1.52513,-0.25333 -2.64976,-0.15961 -2.64976,-0.15961c-14.59637,1.21642 -29.03919,2.58669 -43.53789,4.50403c-3.6969,0.48888 -7.45812,-0.03407 -11.18721,-0.03407c-7.50751,0 -15.01501,0 -22.52252,0c-18.01799,0 -36.03607,-0.01682 -54.05406,0c-8.15146,0.00761 -16.26779,1.07674 -24.40778,1.50887c-12.77147,0.678 -267.66646,-0.00736 -281.83846,-0.00736c-16.69624,0 -32.20336,-0.20124 -48.84264,-1.47205c-6.2577,-0.47793 -12.566,-0.49813 -18.77445,-1.41598c-5.86889,-0.86765 -89.62513,5.03508 -111.4684,7.57499c-8.08589,0.94022 -16.11723,2.6628 -24.25573,2.83729c-41.31736,0.88588 -82.57191,-2.40555 -123.82972,-4.46997c0.68584,-6.78557 1.40539,-13.56621 2.19801,-20.33587z" fill="url(#color-13)" stroke="#c0e7f0" stroke-width="0"/><path d="M-142.48173,356.46407c0.21225,-1.81281 0.44002,-3.62431 0.68043,-5.43473c115.00055,-63.23944 247.11052,-99.21285 387.62254,-99.21285c136.22833,0 264.55909,33.81346 377.05725,93.50531c0.00054,2.59774 0.00152,5.19549 0.00312,7.79323c0.00305,4.93707 -0.23547,9.883 -0.19271,14.81877c-1.52513,-0.25333 -2.64976,-0.15961 -2.64976,-0.15961c-14.59637,1.21642 -29.03919,2.58669 -43.53789,4.50403c-3.6969,0.48888 -7.45812,-0.03407 -11.18721,-0.03407c-7.50751,0 -15.01501,0 -22.52252,0c-18.01799,0 -36.03607,-0.01682 -54.05406,0c-8.15146,0.00761 -16.26779,1.07674 -24.40778,1.50887c-12.77147,0.678 -267.66646,-0.00736 -281.83846,-0.00736c-16.69624,0 -32.20336,-0.20124 -48.84264,-1.47205c-6.2577,-0.47793 -12.566,-0.49813 -18.77445,-1.41598c-2.58245,-0.38178 -20.24551,0.54731 -41.07851,1.92397c-26.51219,1.75194 -58.15817,4.22873 -70.38989,5.65102c-8.08589,0.94022 -16.11723,2.6628 -24.25573,2.83729c-41.31736,0.88588 -82.57191,-2.40555 -123.82972,-4.46997c0.68584,-6.78557 1.40539,-13.56621 2.19801,-20.33587z" fill="url(#color-14)" stroke="#c0e7f0" stroke-width="0"/><path d="M-142.48173,356.46407c0.21225,-1.81281 0.44002,-3.62431 0.68043,-5.43473c115.00055,-63.23944 247.11052,-99.21285 387.62254,-99.21285c136.22833,0 264.55909,33.81346 377.05725,93.50531c0.00054,2.59774 0.00152,5.19549 0.00312,7.79323c0.00305,4.93707 -0.23547,9.883 -0.19271,14.81877c-1.52513,-0.25333 -2.64976,-0.15961 -2.64976,-0.15961c-14.59637,1.21642 -29.03919,2.58669 -43.53789,4.50403c-3.6969,0.48888 -7.45812,-0.03407 -11.18721,-0.03407c-7.50751,0 -15.01501,0 -22.52252,0c-18.01799,0 -36.03607,-0.01682 -54.05406,0c-8.15146,0.00761 -16.26779,1.07674 -24.40778,1.50887c-12.77147,0.678 -267.66646,-0.00736 -281.83846,-0.00736c-16.69624,0 -32.20336,-0.20124 -48.84264,-1.47205c-6.2577,-0.47793 -12.566,-0.49813 -18.77445,-1.41598c-5.86889,-0.86765 -89.62513,5.03508 -111.4684,7.57499c-8.08589,0.94022 -16.11723,2.6628 -24.25573,2.83729c-41.31736,0.88588 -82.57191,-2.40555 -123.82972,-4.46997c0.68584,-6.78557 1.40539,-13.56621 2.19801,-20.33587z" fill="url(#color-15)" stroke="#c0e7f0" stroke-width="0"/><path d="M-142.48173,356.46407c1.93602,-16.53512 5.16315,-32.96178 7.4939,-49.44566c3.76651,-26.63807 6.97866,-53.6026 9.08825,-80.43227c0.06136,-0.78035 0.11154,-1.56115 0.15208,-2.34233l11.02329,-6.88846l15.49439,-10.1909l2.52103,-1.31922l2.30585,-1.667l12.30511,-7.1484l2.22164,-1.00979l2.04341,-1.33404l6.58791,-3.41884l10.93237,-6.83164l4.93834,-2.43966l0.33781,-0.25748l4.57984,-2.17201l4.54445,-2.24511l0.41145,-0.10529l4.9768,-2.36026l35.92204,-12.8352l4.05207,-2.10282l5.35791,-2.13398l0.42489,-0.27117l4.58667,-1.72485l4.55244,-1.81321l0.49674,-0.0856l5.39817,-2.03003l12.06163,-3.20902l6.27866,-1.01559l4.46948,-1.0717l3.12765,-0.97525l1.06112,-0.50443l2.40927,-0.57771l2.36521,-0.73749l1.16975,-0.11011l9.67491,-2.31992l4.16981,-0.56919l5.64627,-0.9133l6.18493,-1.48307l9.9702,-1.36105l10.07249,-0.36286l10.07178,-0.38236l15.7576,0.97383l9.94805,1.6196l9.95119,1.60031l9.72677,2.57834l9.31563,3.49355l1.1473,0.25332l2.09452,0.94973l1.00863,0.39097l1.47307,0.5524l0.07435,0.04736l7.06137,2.737l10.98989,3.32855l5.75129,3.16042l6.95586,2.69611l1.14819,1.12249l17.38353,-0.50317l4.63028,0.32804l4.63853,-0.17612l39.39394,2.43457l3.88166,0.63193l3.92983,0.15265l50.96865,7.1043l4.33048,1.0513l0.06173,0.00197l5.60664,1.37412l5.60963,1.36185l0.0557,0.02669l4.32817,1.06081l23.18591,8.20229l23.16161,6.13958l35.02199,7.76999l9.52504,3.13529l9.53424,3.10718l36.57214,16.10072l0.2586,0.14613l0.28185,0.09368l30.78478,13.76582l0.37464,0.21459l0.40851,0.13956l24.99744,11.43096l3.07316,1.79468l3.27977,1.38157l18.7011,10.1764l8.82807,1.53703l48.38175,1.74667c-0.25675,16.51605 0.2882,33.14584 0.2882,49.61421c0,13.33333 -0.00822,26.66667 0,40c0.00305,4.93707 -0.23547,9.883 -0.19271,14.81877c-1.52513,-0.25333 -2.64976,-0.15961 -2.64976,-0.15961c-14.59637,1.21642 -29.03919,2.58669 -43.53789,4.50403c-3.6969,0.48888 -7.45812,-0.03407 -11.18721,-0.03407c-7.50751,0 -15.01501,0 -22.52252,0c-18.01799,0 -36.03607,-0.01682 -54.05406,0c-8.15146,0.00761 -16.26779,1.07674 -24.40778,1.50887c-12.77147,0.678 -267.66646,-0.00736 -281.83846,-0.00736c-16.69624,0 -32.20336,-0.20124 -48.84264,-1.47205c-6.2577,-0.47793 -12.566,-0.49813 -18.77445,-1.41598c-5.86889,-0.86765 -11.57306,-2.61737 -17.3596,-3.92606c0,0 -26.49716,-1.21609 -29.78541,-0.02643c-20.86216,7.54771 -42.48012,8.98757 -64.32339,11.52748c-8.08589,0.94022 -16.11723,2.6628 -24.25573,2.83729c-41.31736,0.88588 -82.57191,-2.40555 -123.82972,-4.46997c0.68584,-6.78557 1.40539,-13.56621 2.19801,-20.33587z" fill="url(#color-16)" stroke="none" stroke-width="0.5"/><path d="M-141.65748,349.95742c114.54367,-62.5768 245.95581,-98.14566 385.67551,-98.14566c136.95682,0 265.93139,34.17606 378.86069,94.46515" fill="none" stroke="#c0e7f0" stroke-width="1"/><path d="M251.35513,269.2692c38.10989,0 72.64334,3.08022 97.64908,8.05714c25.00707,4.97555 40.48492,11.8479 40.48492,19.43221c0,7.58432 -15.47789,14.45666 -40.48492,19.43221c-25.00569,4.97692 -59.53919,8.05715 -97.64908,8.05715c-38.10989,0 -72.64335,-3.08022 -97.64908,-8.05715c-25.00703,-4.97559 -40.48496,-11.84789 -40.48496,-19.43221c0,-7.58432 15.47789,-14.45662 40.48496,-19.43221c25.00569,-4.97692 59.53919,-8.05714 97.64908,-8.05714z" fill="url(#color-17)" stroke="none" stroke-width="1"/><path d="M563.09362,365.15304c4.74368,2.33148 9.39948,4.6858 13.95455,7.05311c-0.18229,0.02393 -0.3646,0.04796 -0.54692,0.07207c-3.6969,0.48888 -7.45812,-0.03407 -11.18721,-0.03407c-7.50751,0 -15.01501,0 -22.52252,0c-18.01799,0 -36.03607,-0.01682 -54.05406,0c-7.0319,0.00657 -14.03766,0.80309 -21.05502,1.29917c-4.64236,-3.19482 -8.96163,-6.32158 -12.92175,-9.35268c-20.24809,-15.49596 -31.10762,-28.4908 -27.76216,-35.29741c3.34542,-6.8066 20.26753,-6.14705 44.90506,0.41815c24.6369,6.56336 56.98806,19.03156 91.19007,35.8417z" data-paper-data="{&quot;origRot&quot;:0}" fill="url(#color-18)" stroke="none" stroke-width="1"/><path d="M132.88025,357.63598c25.18083,-4.00436 42.08139,-2.92538 44.71128,4.18838c1.16071,3.13968 -0.55459,7.1947 -4.70152,11.89222c-13.15525,-0.08929 -25.83063,-0.41875 -39.24144,-1.44298c-6.2577,-0.47793 -12.566,-0.49813 -18.77445,-1.41598c-5.86889,-0.86765 -11.57306,-2.61737 -17.3596,-3.92606l-2.02233,-1.1803c13.71739,-3.62853 26.34842,-6.36041 37.38806,-8.11528z" data-paper-data="{&quot;origRot&quot;:0}" fill="url(#color-19)" stroke="none" stroke-width="1"/><path d="M27.10509,-20.55614c0,-0.50137 0.40649,-0.90787 0.90787,-0.90787c0.50137,0 0.90786,0.40649 0.90786,0.90787c0,0.50137 -0.40648,0.90786 -0.90786,0.90786c-0.50137,0 -0.90787,-0.40648 -0.90787,-0.90786z" fill="#c6e9ed" stroke="none" stroke-width="0.5"/><path d="M297.65152,-15.10816c0,-0.50137 0.40648,-0.90786 0.90786,-0.90786c0.50137,0 0.90787,0.40649 0.90787,0.90786c0,0.50137 -0.40649,0.90786 -0.90787,0.90786c-0.50137,0 -0.90786,-0.40648 -0.90786,-0.90786z" fill="#c6e9ed" stroke="none" stroke-width="0.5"/><path d="M228.69778,39.36008c0,-0.50138 0.40649,-0.90786 0.90787,-0.90786c0.50137,0 0.90786,0.40648 0.90786,0.90786c0,0.50138 -0.40649,0.90787 -0.90786,0.90787c-0.50137,0 -0.90787,-0.40649 -0.90787,-0.90787z" fill="#c6e9ed" stroke="none" stroke-width="0.5"/><path d="M412.05334,50.25604c0,-0.50138 0.40649,-0.90786 0.90786,-0.90786c0.50137,0 0.90786,0.40648 0.90786,0.90786c0,0.50138 -0.40649,0.90787 -0.90786,0.90787c-0.50137,0 -0.90786,-0.40649 -0.90786,-0.90787z" fill="#c6e9ed" stroke="none" stroke-width="0.5"/><path d="M526.45517,99.28209c0,-0.50137 0.40648,-0.90786 0.90786,-0.90786c0.50138,0 0.90787,0.40649 0.90787,0.90786c0,0.50137 -0.40649,0.90787 -0.90787,0.90787c-0.50138,0 -0.90786,-0.40649 -0.90786,-0.90787z" fill="#c6e9ed" stroke="none" stroke-width="0.5"/><path d="M34.39995,162.83057c0,-0.50137 0.40648,-0.90787 0.90786,-0.90787c0.50138,0 0.90787,0.40649 0.90787,0.90787c0,0.50137 -0.40649,0.90786 -0.90787,0.90786c-0.50138,0 -0.90786,-0.40649 -0.90786,-0.90786z" fill="#c6e9ed" stroke="none" stroke-width="0.5"/><path d="M-60.02788,53.8861c0,-0.50138 0.40649,-0.90787 0.90787,-0.90787c0.50138,0 0.90786,0.40649 0.90786,0.90787c0,0.50138 -0.40648,0.90786 -0.90786,0.90786c-0.50138,0 -0.90787,-0.40648 -0.90787,-0.90786z" fill="#c6e9ed" stroke="none" stroke-width="0.5"/><path d="M94.32196,119.2532c0,-0.50137 0.40649,-0.90786 0.90786,-0.90786c0.50137,0 0.90786,0.40649 0.90786,0.90786c0,0.50137 -0.40649,0.90786 -0.90786,0.90786c-0.50137,0 -0.90786,-0.40649 -0.90786,-0.90786z" fill="#c6e9ed" stroke="none" stroke-width="0.5"/><path d="M330.36256,88.38613c0,-0.50137 0.40649,-0.90787 0.90787,-0.90787c0.50137,0 0.90786,0.40649 0.90786,0.90787c0,0.50137 -0.40649,0.90786 -0.90786,0.90786c-0.50137,0 -0.90787,-0.40649 -0.90787,-0.90786z" fill="#c6e9ed" stroke="none" stroke-width="0.5"/><path d="M117.01706,51.16501c-0.90786,0 -0.90787,-0.90787 -0.90787,-0.90787v-1.81573c0,0 0.00001,-0.90786 0.90787,-0.90786c0.90786,0 0.90786,0.90786 0.90786,0.90786v0.90787v0.90786c0,0 0,0.90787 -0.90786,0.90787z" fill="#c6e9ed" stroke="none" stroke-width="0.5"/><path d="M501.03897,15.75602c0,-0.50137 0.40648,-0.90786 0.90786,-0.90786c0.50137,0 0.90787,0.40649 0.90787,0.90786c0,0.50138 -0.40649,0.90786 -0.90787,0.90786c-0.50137,0 -0.90786,-0.40649 -0.90786,-0.90786z" fill="#c6e9ed" stroke="none" stroke-width="0.5"/><path d="M209.12905,-18.74401c0,-1.2535 1.01612,-2.26963 2.26962,-2.26963c1.2535,0 2.26962,1.01613 2.26962,2.26963c0,1.2535 -1.01612,2.26963 -2.26962,2.26963c-1.2535,0 -2.26962,-1.01613 -2.26962,-2.26963z" fill="#c6e9ed" stroke="none" stroke-width="0.5"/><path d="M425.25355,-27.82204c0,-1.2535 1.01612,-2.26963 2.26962,-2.26963c1.2535,0 2.26963,1.01613 2.26963,2.26963c0,1.2535 -1.01613,2.26962 -2.26963,2.26962c-1.2535,0 -2.26962,-1.01612 -2.26962,-2.26962z" fill="#c6e9ed" stroke="none" stroke-width="0.5"/><path d="M412.51651,122.88441c0,-1.2535 1.01613,-2.26963 2.26963,-2.26963c1.2535,0 2.26962,1.01613 2.26962,2.26963c0,1.2535 -1.01612,2.26962 -2.26962,2.26962c-1.2535,0 -2.26963,-1.01612 -2.26963,-2.26962z" fill="#c6e9ed" stroke="none" stroke-width="0.5"/><path d="M216.4239,122.88441c0,-1.2535 1.01613,-2.26963 2.26963,-2.26963c1.2535,0 2.26962,1.01613 2.26962,2.26963c0,1.2535 -1.01612,2.26962 -2.26962,2.26962c-1.2535,0 -2.26963,-1.01612 -2.26963,-2.26962z" fill="#c6e9ed" stroke="none" stroke-width="0.5"/><path d="M18.47864,62.96414c0,-1.2535 1.01613,-2.26962 2.26963,-2.26962c1.2535,0 2.26963,1.01612 2.26963,2.26962c0,1.2535 -1.01613,2.26963 -2.26963,2.26963c-1.2535,0 -2.26963,-1.01613 -2.26963,-2.26963z" fill="#c6e9ed" stroke="none" stroke-width="0.5"/><path d="M-70.44909,157.38328c0,-1.2535 1.01613,-2.26962 2.26963,-2.26962c1.2535,0 2.26962,1.01612 2.26962,2.26962c0,1.2535 -1.01612,2.26962 -2.26962,2.26962c-1.2535,0 -2.26963,-1.01612 -2.26963,-2.26962z" fill="#c6e9ed" stroke="none" stroke-width="0.5"/><path d="M-92.27576,-18.74401c0,-1.2535 1.01613,-2.26963 2.26963,-2.26963c1.2535,0 2.26963,1.01613 2.26963,2.26963c0,1.2535 -1.01613,2.26963 -2.26963,2.26963c-1.2535,0 -2.26963,-1.01613 -2.26963,-2.26963z" fill="#c6e9ed" stroke="none" stroke-width="0.5"/><path d="M543.24491,41.178c0,-1.2535 1.01612,-2.26962 2.26963,-2.26962c1.2535,0 2.26963,1.01612 2.26963,2.26962c0,1.2535 -1.01613,2.26963 -2.26963,2.26963c-1.2535,0 -2.26963,-1.01613 -2.26963,-2.26963z" fill="#c6e9ed" stroke="none" stroke-width="0.5"/><path d="M-6.93755,124.7006c0,-1.2535 1.01612,-2.26963 2.26962,-2.26963c1.2535,0 2.26963,1.01613 2.26963,2.26963c0,1.2535 -1.01613,2.26963 -2.26962,2.26963c-1.2535,0 -2.26962,-1.01613 -2.26962,-2.26963z" fill="#c6e9ed" stroke="none" stroke-width="0.5"/><path d="M-114.04453,93.83411c0,-1.2535 1.01612,-2.26962 2.26962,-2.26962c1.2535,0 2.26963,1.01612 2.26963,2.26962c0,1.2535 -1.01613,2.26963 -2.26963,2.26963c-1.2535,0 -2.26962,-1.01613 -2.26962,-2.26963z" fill="#c6e9ed" stroke="none" stroke-width="0.5"/><path d="M347.15231,32.09996c0,-1.2535 1.01612,-2.26963 2.26962,-2.26963c1.2535,0 2.26963,1.01613 2.26963,2.26963c0,1.2535 -1.01613,2.26962 -2.26963,2.26962c-1.2535,0 -2.26962,-1.01612 -2.26962,-2.26962z" fill="#c6e9ed" stroke="none" stroke-width="0.5"/><path d="M75.27428,21.204c0,-2.00562 1.62583,-3.63145 3.63145,-3.63145c2.00562,0 3.63144,1.62583 3.63144,3.63145c0,2.00562 -1.62583,3.63144 -3.63144,3.63144c-2.00562,0 -3.63145,-1.62582 -3.63145,-3.63144z" fill="#8ecad1" stroke="none" stroke-width="0.5"/><path d="M173.29164,13.94388c0,-2.00562 1.62582,-3.63144 3.63144,-3.63144c2.00562,0 3.63145,1.62582 3.63145,3.63144c0,2.00562 -1.62583,3.63145 -3.63145,3.63145c-2.00562,0 -3.63144,-1.62583 -3.63144,-3.63145z" fill="#8ecad1" stroke="none" stroke-width="0.5"/><path d="M265.92469,66.59999c0,-2.00562 1.62583,-3.63145 3.63145,-3.63145c2.00562,0 3.63144,1.62583 3.63144,3.63145c0,2.00562 -1.62582,3.63145 -3.63144,3.63145c-2.00562,0 -3.63145,-1.62583 -3.63145,-3.63145z" fill="#8ecad1" stroke="none" stroke-width="0.5"/><path d="M467.45949,72.04218c0,-2.00562 1.62583,-3.63145 3.63145,-3.63145c2.00562,0 3.63144,1.62583 3.63144,3.63145c0,2.00562 -1.62582,3.63144 -3.63144,3.63144c-2.00562,0 -3.63145,-1.62583 -3.63145,-3.63144z" fill="#8ecad1" stroke="none" stroke-width="0.5"/><path d="M563.68208,-0.58214c0,-2.00562 1.62582,-3.63144 3.63144,-3.63144c2.00562,0 3.63145,1.62583 3.63145,3.63145c0,2.00562 -1.62583,3.63145 -3.63145,3.63145c-2.00562,0 -3.63144,-1.62583 -3.63144,-3.63145z" fill="#8ecad1" stroke="none" stroke-width="0.5"/><path d="M447.48549,15.75602c0,-2.00562 1.62583,-3.63144 3.63145,-3.63144c2.00562,0 3.63145,1.62582 3.63145,3.63144c0,2.00562 -1.62583,3.63145 -3.63145,3.63145c-2.00562,0 -3.63145,-1.62583 -3.63145,-3.63145z" fill="#8ecad1" stroke="none" stroke-width="0.5"/><path d="M552.79769,137.41043c0,-2.00562 1.62583,-3.63144 3.63145,-3.63144c2.00562,0 3.63144,1.62582 3.63144,3.63144c0,2.00562 -1.62582,3.63145 -3.63144,3.63145c-2.00562,0 -3.63145,-1.62583 -3.63145,-3.63145z" fill="#8ecad1" stroke="none" stroke-width="0.5"/><path d="M618.16184,57.51616c0,-2.00562 1.62582,-3.63144 3.63144,-3.63144c2.00562,0 3.63145,1.62582 3.63145,3.63144c0,2.00562 -1.62583,3.63145 -3.63145,3.63145c-2.00562,0 -3.63144,-1.62583 -3.63144,-3.63145z" fill="#8ecad1" stroke="none" stroke-width="0.5"/><path d="M309.46223,142.85784c0,-2.00562 1.62583,-3.63145 3.63145,-3.63145c2.00562,0 3.63145,1.62583 3.63145,3.63145c0,2.00562 -1.62583,3.63145 -3.63145,3.63145c-2.00562,0 -3.63145,-1.62583 -3.63145,-3.63145z" fill="#8ecad1" stroke="none" stroke-width="0.5"/><path d="M-26.44839,15.75602c0,-2.00562 1.62583,-3.63144 3.63145,-3.63144c2.00562,0 3.63144,1.62582 3.63144,3.63144c0,2.00562 -1.62582,3.63145 -3.63144,3.63145c-2.00562,0 -3.63145,-1.62583 -3.63145,-3.63145z" fill="#8ecad1" stroke="none" stroke-width="0.5"/><path d="M156.96506,151.93646c0,-2.00562 1.62583,-3.63145 3.63145,-3.63145c2.00562,0 3.63145,1.62583 3.63145,3.63145c0,2.00562 -1.62583,3.63145 -3.63145,3.63145c-2.00562,0 -3.63145,-1.62583 -3.63145,-3.63145z" fill="#8ecad1" stroke="none" stroke-width="0.5"/><path d="M176.93906,72.04218c0,-2.00562 1.62583,-3.63145 3.63145,-3.63145c2.00562,0 3.63144,1.62583 3.63144,3.63145c0,2.00562 -1.62582,3.63144 -3.63144,3.63144c-2.00562,0 -3.63145,-1.62583 -3.63145,-3.63144z" fill="#8ecad1" stroke="none" stroke-width="0.5"/><path d="M485.58083,151.93646c0,-2.00562 1.62582,-3.63145 3.63144,-3.63145c2.00562,0 3.63145,1.62583 3.63145,3.63145c0,2.00562 -1.62583,3.63145 -3.63145,3.63145c-2.00562,0 -3.63144,-1.62583 -3.63144,-3.63145z" fill="#8ecad1" stroke="none" stroke-width="0.5"/><path d="M42.56324,108.35897c0,-2.00562 1.62582,-3.63145 3.63144,-3.63145c2.00562,0 3.63145,1.62583 3.63145,3.63145c0,2.00562 -1.62583,3.63144 -3.63145,3.63144c-2.00562,0 -3.63144,-1.62583 -3.63144,-3.63144z" fill="#8ecad1" stroke="none" stroke-width="0.5"/><path d="M-64.54374,99.28209c0,-2.00562 1.62583,-3.63144 3.63145,-3.63144c2.00562,0 3.63144,1.62583 3.63144,3.63144c0,2.00562 -1.62582,3.63145 -3.63144,3.63145c-2.00562,0 -3.63145,-1.62583 -3.63145,-3.63145z" fill="#8ecad1" stroke="none" stroke-width="0.5"/><path d="M-120.87621,199.14516c0,-2.00562 1.62583,-3.63145 3.63144,-3.63145c2.00562,0 3.63144,1.62583 3.63144,3.63145c0,2.00562 -1.62583,3.63145 -3.63144,3.63145c-2.00562,0 -3.63144,-1.62583 -3.63144,-3.63145z" fill="#8ecad1" stroke="none" stroke-width="0.5"/><path d="M262.27727,6.67798c0,-2.00562 1.62583,-3.63144 3.63145,-3.63144c2.00562,0 3.63145,1.62582 3.63145,3.63145c0,2.00562 -1.62583,3.63145 -3.63145,3.63145c-2.00562,0 -3.63145,-1.62583 -3.63145,-3.63145z" fill="#8ecad1" stroke="none" stroke-width="0.5"/><path d="M-122.67098,23.02192c0,-2.00562 1.62583,-3.63145 3.63145,-3.63145c2.00562,0 3.63144,1.62583 3.63144,3.63145c0,2.00562 -1.62583,3.63145 -3.63144,3.63145c-2.00562,0 -3.63145,-1.62583 -3.63145,-3.63145z" fill="#8ecad1" stroke="none" stroke-width="0.5"/><path d="M362.95782,-7.66857c0,-0.50138 0.40648,-0.90786 0.90786,-0.90786c0.50137,0 0.90787,0.40649 0.90787,0.90786c0,0.50138 -0.40649,0.90787 -0.90787,0.90787c-0.50137,0 -0.90786,-0.40649 -0.90786,-0.90787z" fill="#8ecad1" stroke="none" stroke-width="0.5"/><path d="M-21.87464,284.84926c0,-0.50137 0.40649,-0.90787 0.90787,-0.90787c0.50137,0 0.90786,0.40649 0.90786,0.90787c0,0.50137 -0.40648,0.90786 -0.90786,0.90786c-0.50137,0 -0.90787,-0.40648 -0.90787,-0.90786z" fill="#c6e9ed" stroke="none" stroke-width="0.5"/><path d="M65.25833,252.16716c0,-0.50137 0.40649,-0.90786 0.90787,-0.90786c0.50137,0 0.90786,0.40649 0.90786,0.90786c0,0.50137 -0.40649,0.90786 -0.90786,0.90786c-0.50137,0 -0.90787,-0.40649 -0.90787,-0.90786z" fill="#c6e9ed" stroke="none" stroke-width="0.5"/><path d="M599.05633,252.16716c0,-0.50137 0.40648,-0.90786 0.90786,-0.90786c0.50138,0 0.90786,0.40649 0.90786,0.90786c0,0.50137 -0.40648,0.90786 -0.90786,0.90786c-0.50138,0 -0.90786,-0.40649 -0.90786,-0.90786z" fill="#c6e9ed" stroke="none" stroke-width="0.5"/><path d="M370.31057,230.37523c0,-0.50137 0.40649,-0.90786 0.90786,-0.90786c0.50137,0 0.90786,0.40649 0.90786,0.90786c0,0.50137 -0.40648,0.90787 -0.90786,0.90787c-0.50137,0 -0.90786,-0.40649 -0.90786,-0.90787z" fill="#c6e9ed" stroke="none" stroke-width="0.5"/><path d="M-101.77065,241.2712c0,-0.50137 0.40649,-0.90787 0.90786,-0.90787c0.50137,0 0.90787,0.40649 0.90787,0.90787c0,0.50137 -0.40649,0.90786 -0.90787,0.90786c-0.50137,0 -0.90786,-0.40649 -0.90786,-0.90786z" fill="#c6e9ed" stroke="none" stroke-width="0.5"/><path d="M514.18129,234.00529c0,-1.2535 1.01612,-2.26962 2.26963,-2.26962c1.2535,0 2.26963,1.01612 2.26963,2.26962c0,1.2535 -1.01612,2.26962 -2.26963,2.26962c-1.2535,0 -2.26963,-1.01612 -2.26963,-2.26962z" fill="#c6e9ed" stroke="none" stroke-width="0.5"/><path d="M-21.46937,244.90125c0,-1.2535 1.01613,-2.26962 2.26963,-2.26962c1.2535,0 2.26962,1.01612 2.26962,2.26962c0,1.2535 -1.01612,2.26963 -2.26962,2.26963c-1.2535,0 -2.26963,-1.01613 -2.26963,-2.26963z" fill="#c6e9ed" stroke="none" stroke-width="0.5"/><path d="M400.24263,260.78782c0.41569,0 0.80527,0.11174 1.14037,0.30685c-0.70685,-0.02883 -1.41404,-0.05692 -2.12153,-0.08442c0.29694,-0.14259 0.62973,-0.22243 0.98116,-0.22243z" fill="#c6e9ed" stroke="none" stroke-width="0.5"/><path d="M-93.60736,295.73943c0,-2.00562 1.62583,-3.63145 3.63144,-3.63145c2.00562,0 3.63145,1.62583 3.63145,3.63145c0,2.00562 -1.62583,3.63145 -3.63145,3.63145c-2.00562,0 -3.63144,-1.62583 -3.63144,-3.63145z" fill="#8ecad1" stroke="none" stroke-width="0.5"/><path d="M29.82619,215.84979c0,-2.00562 1.62583,-3.63145 3.63145,-3.63145c2.00562,0 3.63144,1.62583 3.63144,3.63145c0,2.00562 -1.62582,3.63144 -3.63144,3.63144c-2.00562,0 -3.63145,-1.62582 -3.63145,-3.63144z" fill="#8ecad1" stroke="none" stroke-width="0.5"/><path d="M454.72244,228.55731c0,-2.00562 1.62583,-3.63145 3.63145,-3.63145c2.00562,0 3.63145,1.62583 3.63145,3.63145c0,2.00562 -1.62583,3.63145 -3.63145,3.63145c-2.00562,0 -3.63145,-1.62583 -3.63145,-3.63145z" fill="#8ecad1" stroke="none" stroke-width="0.5"/><path d="M607.27751,224.92725c0,-2.00562 1.62582,-3.63145 3.63144,-3.63145c2.00562,0 3.63144,1.62583 3.63144,3.63145c0,2.00562 -1.62582,3.63145 -3.63144,3.63145c-2.00562,0 -3.63144,-1.62583 -3.63144,-3.63145z" fill="#8ecad1" stroke="none" stroke-width="0.5"/><path d="M-71.83859,217.6654c0,-2.00562 1.62583,-3.63144 3.63145,-3.63144c2.00562,0 3.63144,1.62582 3.63144,3.63144c0,2.00562 -1.62583,3.63145 -3.63144,3.63145c-2.00562,0 -3.63145,-1.62583 -3.63145,-3.63145z" fill="#8ecad1" stroke="none" stroke-width="0.5"/><path d="M323.53087,217.6654c0,-1.2535 1.01613,-2.26962 2.26963,-2.26962c1.2535,0 2.26963,1.01612 2.26963,2.26962c0,1.2535 -1.01613,2.26963 -2.26963,2.26963c-1.2535,0 -2.26963,-1.01613 -2.26963,-2.26963z" fill="#c6e9ed" stroke="none" stroke-width="0.5"/><path d="M408.86908,206.77117c0,-1.2535 1.01613,-2.26963 2.26963,-2.26963c1.2535,0 2.26962,1.01613 2.26962,2.26963c0,1.2535 -1.01612,2.26962 -2.26962,2.26962c-1.2535,0 -2.26963,-1.01612 -2.26963,-2.26962z" fill="#c6e9ed" stroke="none" stroke-width="0.5"/><path d="M100.22731,210.40297c0,-1.2535 1.01612,-2.26962 2.26962,-2.26962c1.2535,0 2.26963,1.01612 2.26963,2.26962c0,1.2535 -1.01613,2.26963 -2.26963,2.26963c-1.2535,0 -2.26962,-1.01613 -2.26962,-2.26963z" fill="#c6e9ed" stroke="none" stroke-width="0.5"/></g></g></g></svg>