<svg version="1.1" xmlns="http://www.w3.org/2000/svg" xmlns:xlink="http://www.w3.org/1999/xlink" width="576.51032" height="167.25703" viewBox="0,0,576.51032,167.25703"><defs><linearGradient x1="206.90525" y1="228.94782" x2="206.90525" y2="249.94782" gradientUnits="userSpaceOnUse" id="color-1"><stop offset="0" stop-color="#f2c17c"/><stop offset="1" stop-color="#a47353"/></linearGradient><linearGradient x1="69.90946" y1="255.52557" x2="69.90946" y2="299.07831" gradientUnits="userSpaceOnUse" id="color-2"><stop offset="0" stop-color="#b08b2e"/><stop offset="1" stop-color="#8a6632"/></linearGradient><linearGradient x1="42.54485" y1="286.98032" x2="42.54485" y2="286.98032" gradientUnits="userSpaceOnUse" id="color-3"><stop offset="0" stop-color="#b08b2e"/><stop offset="1" stop-color="#8a6632"/></linearGradient><linearGradient x1="71.45113" y1="271.25294" x2="71.45113" y2="271.25294" gradientUnits="userSpaceOnUse" id="color-4"><stop offset="0" stop-color="#b08b2e"/><stop offset="1" stop-color="#8a6632"/></linearGradient><linearGradient x1="101.51369" y1="284.56073" x2="101.51369" y2="285.77054" gradientUnits="userSpaceOnUse" id="color-5"><stop offset="0" stop-color="#b08b2e"/><stop offset="1" stop-color="#8a6632"/></linearGradient><linearGradient x1="29.82608" y1="268.83335" x2="29.82608" y2="270.04315" gradientUnits="userSpaceOnUse" id="color-6"><stop offset="0" stop-color="#b08b2e"/><stop offset="1" stop-color="#8a6632"/></linearGradient><linearGradient x1="69.90946" y1="301.16601" x2="69.90946" y2="344.71875" gradientUnits="userSpaceOnUse" id="color-7"><stop offset="0" stop-color="#b08b2e"/><stop offset="1" stop-color="#8a6632"/></linearGradient><linearGradient x1="42.54485" y1="332.62076" x2="42.54485" y2="332.62076" gradientUnits="userSpaceOnUse" id="color-8"><stop offset="0" stop-color="#b08b2e"/><stop offset="1" stop-color="#8a6632"/></linearGradient><linearGradient x1="71.45113" y1="316.89338" x2="71.45113" y2="316.89338" gradientUnits="userSpaceOnUse" id="color-9"><stop offset="0" stop-color="#b08b2e"/><stop offset="1" stop-color="#8a6632"/></linearGradient><linearGradient x1="101.51369" y1="330.20117" x2="101.51369" y2="331.41098" gradientUnits="userSpaceOnUse" id="color-10"><stop offset="0" stop-color="#b08b2e"/><stop offset="1" stop-color="#8a6632"/></linearGradient><linearGradient x1="29.82609" y1="314.47379" x2="29.82609" y2="315.68358" gradientUnits="userSpaceOnUse" id="color-11"><stop offset="0" stop-color="#b08b2e"/><stop offset="1" stop-color="#8a6632"/></linearGradient><linearGradient x1="70.99531" y1="226.19547" x2="70.99531" y2="254.19547" gradientUnits="userSpaceOnUse" id="color-12"><stop offset="0" stop-color="#adadad"/><stop offset="1" stop-color="#9e8c72"/></linearGradient><linearGradient x1="69.99531" y1="374.19547" x2="69.99531" y2="346.19547" gradientUnits="userSpaceOnUse" id="color-13"><stop offset="0" stop-color="#adadad"/><stop offset="1" stop-color="#9e8c72"/></linearGradient><linearGradient x1="-3.50094" y1="299.27818" x2="24.49866" y2="299.43187" gradientUnits="userSpaceOnUse" id="color-14"><stop offset="0" stop-color="#adadad"/><stop offset="1" stop-color="#9e8c72"/></linearGradient><linearGradient x1="144.49156" y1="301.11276" x2="116.49196" y2="300.95908" gradientUnits="userSpaceOnUse" id="color-15"><stop offset="0" stop-color="#adadad"/><stop offset="1" stop-color="#9e8c72"/></linearGradient><linearGradient x1="11.49531" y1="223.19547" x2="11.49531" y2="257.19547" gradientUnits="userSpaceOnUse" id="color-16"><stop offset="0" stop-color="#b9b9b9"/><stop offset="1" stop-color="#a8a8a8"/></linearGradient><linearGradient x1="130.49531" y1="223.19547" x2="130.49531" y2="257.19547" gradientUnits="userSpaceOnUse" id="color-17"><stop offset="0" stop-color="#b9b9b9"/><stop offset="1" stop-color="#a8a8a8"/></linearGradient><linearGradient x1="131.49531" y1="343.19547" x2="131.49531" y2="377.19547" gradientUnits="userSpaceOnUse" id="color-18"><stop offset="0" stop-color="#b9b9b9"/><stop offset="1" stop-color="#a8a8a8"/></linearGradient><linearGradient x1="10.49531" y1="343.19547" x2="10.49531" y2="377.19547" gradientUnits="userSpaceOnUse" id="color-19"><stop offset="0" stop-color="#b9b9b9"/><stop offset="1" stop-color="#a8a8a8"/></linearGradient><linearGradient x1="486.41978" y1="244.26854" x2="486.41978" y2="287.82128" gradientUnits="userSpaceOnUse" id="color-20"><stop offset="0" stop-color="#b08b2e"/><stop offset="1" stop-color="#8a6632"/></linearGradient><linearGradient x1="459.05517" y1="275.72329" x2="459.05517" y2="275.72329" gradientUnits="userSpaceOnUse" id="color-21"><stop offset="0" stop-color="#b08b2e"/><stop offset="1" stop-color="#8a6632"/></linearGradient><linearGradient x1="487.96145" y1="259.99591" x2="487.96145" y2="259.99591" gradientUnits="userSpaceOnUse" id="color-22"><stop offset="0" stop-color="#b08b2e"/><stop offset="1" stop-color="#8a6632"/></linearGradient><linearGradient x1="518.02401" y1="273.3037" x2="518.02401" y2="274.51351" gradientUnits="userSpaceOnUse" id="color-23"><stop offset="0" stop-color="#b08b2e"/><stop offset="1" stop-color="#8a6632"/></linearGradient><linearGradient x1="446.3364" y1="257.57632" x2="446.3364" y2="258.78612" gradientUnits="userSpaceOnUse" id="color-24"><stop offset="0" stop-color="#b08b2e"/><stop offset="1" stop-color="#8a6632"/></linearGradient><linearGradient x1="486.41978" y1="289.90898" x2="486.41978" y2="333.46172" gradientUnits="userSpaceOnUse" id="color-25"><stop offset="0" stop-color="#b08b2e"/><stop offset="1" stop-color="#8a6632"/></linearGradient><linearGradient x1="459.05517" y1="321.36372" x2="459.05517" y2="321.36372" gradientUnits="userSpaceOnUse" id="color-26"><stop offset="0" stop-color="#b08b2e"/><stop offset="1" stop-color="#8a6632"/></linearGradient><linearGradient x1="487.96145" y1="305.63635" x2="487.96145" y2="305.63635" gradientUnits="userSpaceOnUse" id="color-27"><stop offset="0" stop-color="#b08b2e"/><stop offset="1" stop-color="#8a6632"/></linearGradient><linearGradient x1="518.02401" y1="318.94414" x2="518.02401" y2="320.15395" gradientUnits="userSpaceOnUse" id="color-28"><stop offset="0" stop-color="#b08b2e"/><stop offset="1" stop-color="#8a6632"/></linearGradient><linearGradient x1="446.33641" y1="303.21676" x2="446.33641" y2="304.42655" gradientUnits="userSpaceOnUse" id="color-29"><stop offset="0" stop-color="#b08b2e"/><stop offset="1" stop-color="#8a6632"/></linearGradient><linearGradient x1="487.50563" y1="214.93844" x2="487.50563" y2="242.93844" gradientUnits="userSpaceOnUse" id="color-30"><stop offset="0" stop-color="#adadad"/><stop offset="1" stop-color="#9e8c72"/></linearGradient><linearGradient x1="486.50563" y1="362.93844" x2="486.50563" y2="334.93844" gradientUnits="userSpaceOnUse" id="color-31"><stop offset="0" stop-color="#adadad"/><stop offset="1" stop-color="#9e8c72"/></linearGradient><linearGradient x1="413.00938" y1="288.02114" x2="441.00898" y2="288.17484" gradientUnits="userSpaceOnUse" id="color-32"><stop offset="0" stop-color="#adadad"/><stop offset="1" stop-color="#9e8c72"/></linearGradient><linearGradient x1="561.00188" y1="289.85573" x2="533.00228" y2="289.70205" gradientUnits="userSpaceOnUse" id="color-33"><stop offset="0" stop-color="#adadad"/><stop offset="1" stop-color="#9e8c72"/></linearGradient><linearGradient x1="428.00563" y1="211.93844" x2="428.00563" y2="245.93844" gradientUnits="userSpaceOnUse" id="color-34"><stop offset="0" stop-color="#b9b9b9"/><stop offset="1" stop-color="#a8a8a8"/></linearGradient><linearGradient x1="547.00563" y1="211.93844" x2="547.00563" y2="245.93844" gradientUnits="userSpaceOnUse" id="color-35"><stop offset="0" stop-color="#b9b9b9"/><stop offset="1" stop-color="#a8a8a8"/></linearGradient><linearGradient x1="548.00563" y1="331.93844" x2="548.00563" y2="365.93844" gradientUnits="userSpaceOnUse" id="color-36"><stop offset="0" stop-color="#b9b9b9"/><stop offset="1" stop-color="#a8a8a8"/></linearGradient><linearGradient x1="427.00563" y1="331.93844" x2="427.00563" y2="365.93844" gradientUnits="userSpaceOnUse" id="color-37"><stop offset="0" stop-color="#b9b9b9"/><stop offset="1" stop-color="#a8a8a8"/></linearGradient></defs><g transform="translate(9.00469,-210.93844)"><g data-paper-data="{&quot;isPaintingLayer&quot;:true}" fill-rule="nonzero" stroke-width="2" stroke-linejoin="miter" stroke-miterlimit="10" stroke-dasharray="" stroke-dashoffset="0" style="mix-blend-mode: normal"><path d="M116.2242,249.94782v-21h181.3621v21z" fill="url(#color-1)" stroke="none" stroke-linecap="butt"/><g><g data-paper-data="{&quot;origPos&quot;:null,&quot;index&quot;:null}" stroke="#75491c"><path d="M24.81567,299.07831v-43.55272h90.18761v43.55272z" data-paper-data="{&quot;origPos&quot;:null}" fill="url(#color-2)" stroke-linecap="butt"/><path d="M58.73237,286.98032h-32.37504" data-paper-data="{&quot;origPos&quot;:null}" fill="url(#color-3)" stroke-linecap="round"/><path d="M98.04492,271.25294h-53.18757" data-paper-data="{&quot;origPos&quot;:null}" fill="url(#color-4)" stroke-linecap="round"/><path d="M115.00326,285.77054l-26.9792,-1.20981" data-paper-data="{&quot;origPos&quot;:null}" fill="url(#color-5)" stroke-linecap="round"/><path d="M34.8365,270.04315l-10.02085,-1.2098" data-paper-data="{&quot;origPos&quot;:null}" fill="url(#color-6)" stroke-linecap="round"/></g><g data-paper-data="{&quot;origPos&quot;:null,&quot;index&quot;:null}" stroke="#75491c"><path d="M24.81566,344.71875v-43.55272h90.18761v43.55272z" data-paper-data="{&quot;origPos&quot;:null}" fill="url(#color-7)" stroke-linecap="butt"/><path d="M58.73237,332.62076h-32.37504" data-paper-data="{&quot;origPos&quot;:null}" fill="url(#color-8)" stroke-linecap="round"/><path d="M44.85735,316.89338h53.18757" data-paper-data="{&quot;origPos&quot;:null}" fill="url(#color-9)" stroke-linecap="round"/><path d="M115.00326,331.41098l-26.9792,-1.20981" data-paper-data="{&quot;origPos&quot;:null}" fill="url(#color-10)" stroke-linecap="round"/><path d="M24.81565,314.47379l10.02085,1.20979" data-paper-data="{&quot;origPos&quot;:null}" fill="url(#color-11)" stroke-linecap="round"/></g><g data-paper-data="{&quot;origPos&quot;:null}" stroke="#6b6b6b" stroke-linecap="butt"><g data-paper-data="{&quot;origPos&quot;:null}"><path d="M26.99531,254.19547v-28h88v28z" data-paper-data="{&quot;origPos&quot;:null}" fill="url(#color-12)"/><path d="M113.99531,346.19547v28h-88v-28z" data-paper-data="{&quot;origPos&quot;:null,&quot;index&quot;:null}" fill="url(#color-13)"/></g><g data-paper-data="{&quot;origPos&quot;:null,&quot;origRot&quot;:0}"><path d="M24.26242,344.41125l-27.9996,-0.15368l0.47247,-89.95876l27.9996,0.15368z" data-paper-data="{&quot;origPos&quot;:null}" fill="url(#color-14)"/><path d="M116.7282,255.9797l27.9996,0.15368l-0.47248,89.95876l-27.99959,-0.15368z" data-paper-data="{&quot;origPos&quot;:null,&quot;index&quot;:null}" fill="url(#color-15)"/></g></g><g data-paper-data="{&quot;origPos&quot;:null}" fill="#a7a095" stroke="#6b6b6b" stroke-linecap="butt"><g data-paper-data="{&quot;origPos&quot;:null}"><path d="M42.16198,240.86214c0,-4.78647 3.8802,-8.66666 8.66667,-8.66666c4.78647,0 8.66667,3.88019 8.66667,8.66666c0,4.78647 -3.8802,8.66667 -8.66667,8.66667c-4.78647,0 -8.66667,-3.8802 -8.66667,-8.66667z" data-paper-data="{&quot;origPos&quot;:null}"/><path d="M82.16198,241.19547c0,-4.78647 3.8802,-8.66666 8.66667,-8.66666c4.78647,0 8.66666,3.88019 8.66666,8.66666c0,4.78647 -3.8802,8.66667 -8.66666,8.66667c-4.78647,0 -8.66667,-3.8802 -8.66667,-8.66667z" data-paper-data="{&quot;origPos&quot;:null}"/><path d="M42.49531,360.86214c0,-4.78647 3.8802,-8.66667 8.66667,-8.66667c4.78647,0 8.66667,3.8802 8.66667,8.66667c0,4.78647 -3.8802,8.66667 -8.66667,8.66667c-4.78647,0 -8.66667,-3.8802 -8.66667,-8.66667z" data-paper-data="{&quot;origPos&quot;:null}"/><path d="M82.49531,361.19547c0,-4.78647 3.8802,-8.66667 8.66667,-8.66667c4.78647,0 8.66667,3.8802 8.66667,8.66667c0,4.78647 -3.8802,8.66667 -8.66667,8.66667c-4.78647,0 -8.66667,-3.8802 -8.66667,-8.66667z" data-paper-data="{&quot;origPos&quot;:null}"/></g><g data-paper-data="{&quot;origPos&quot;:null,&quot;origRot&quot;:0}"><path d="M131.17406,272.72069c4.78647,0.002 8.66504,3.88383 8.66304,8.6703c-0.002,4.78647 -3.88383,8.66503 -8.6703,8.66303c-4.78647,-0.002 -8.66504,-3.88383 -8.66304,-8.6703c0.002,-4.78647 3.88383,-8.66504 8.6703,-8.66303z" data-paper-data="{&quot;origPos&quot;:null}"/><path d="M130.82396,312.72054c4.78647,0.002 8.66504,3.88383 8.66303,8.6703c-0.002,4.78647 -3.88382,8.66504 -8.67029,8.66303c-4.78647,-0.002 -8.66504,-3.88383 -8.66304,-8.6703c0.002,-4.78647 3.88383,-8.66504 8.6703,-8.66304z" data-paper-data="{&quot;origPos&quot;:null}"/><path d="M11.17393,273.00374c4.78647,0.002 8.66504,3.88383 8.66304,8.6703c-0.00201,4.78647 -3.88383,8.66504 -8.6703,8.66303c-4.78647,-0.002 -8.66504,-3.88383 -8.66304,-8.6703c0.00201,-4.78647 3.88383,-8.66504 8.6703,-8.66304z" data-paper-data="{&quot;origPos&quot;:null}"/><path d="M10.82383,313.0036c4.78647,0.002 8.66504,3.88383 8.66304,8.6703c-0.00201,4.78647 -3.88383,8.66503 -8.6703,8.66303c-4.78647,-0.002 -8.66504,-3.88383 -8.66304,-8.6703c0.00201,-4.78647 3.88383,-8.66504 8.6703,-8.66303z" data-paper-data="{&quot;origPos&quot;:null}"/></g></g><g data-paper-data="{&quot;origPos&quot;:null}" stroke="#6b6b6b" stroke-linecap="butt"><path d="M-7.00469,257.19547v-34h37v34z" data-paper-data="{&quot;origPos&quot;:null}" fill="url(#color-16)"/><path d="M2.16198,239.86214c0,-5.52284 4.47715,-10 10,-10c5.52285,0 10,4.47716 10,10c0,3.24695 -2.36557,3.53791 -3.09842,5.39204c-0.59143,1.49633 -1.52069,2.69867 -2.68807,3.80592c-1.13579,1.07729 -2.64808,0.80204 -4.21352,0.80204c0,0 -2.75392,0.61842 -4.36104,-0.45866c-1.38941,-0.93117 -2.6043,-3.87524 -2.74343,-4.10955c-1.06606,-1.79528 -2.89553,0.09105 -2.89553,-5.43179zM2.82865,240.36214c0,1.38071 3.78595,2.16666 5.16667,2.16666c0.91756,0 1.71965,-0.49431 2.15453,-1.23116c1.8634,-1.0648 1.80634,-9.29448 -1.48787,-9.29448c0,0 -3.52884,2.11278 -3.65612,2.37067c-0.77473,1.56984 -2.17721,5.80467 -2.17721,5.9883zM20.82864,239.69547c0,-1.97693 -0.18387,-3.5113 -1.33723,-5.11692c-0.96464,-1.34288 -2.34266,-2.38308 -3.9961,-2.38308c-0.91756,0 -1.55299,-0.67236 -1.98787,0.06449c-1.8799,1.07423 -0.25977,9.93551 2.65454,9.93551c3.24807,0 4.66667,-2.27586 4.66667,-2.5zM10.27736,244.94547l0.67829,-0.17632c0.95162,0.11895 1.86364,0.17632 2.82171,0.17632c0,0 1.25,-1.07692 1.25,-2.32692c0,-1.25 -1.17308,-1.25 -1.17308,-1.25c-0.85996,0 -1.65953,-0.05051 -2.51163,-0.15702l-0.98837,0.15702c0,0 -1.25,0 -1.25,1.25c0,1.25 1.17308,2.32692 1.17308,2.32692z" data-paper-data="{&quot;origPos&quot;:null}" fill="#6b6b6b"/></g><g data-paper-data="{&quot;origPos&quot;:null}" stroke="#6b6b6b" stroke-linecap="butt"><path d="M111.99531,257.19547v-34h37v34z" data-paper-data="{&quot;origPos&quot;:null}" fill="url(#color-17)"/><path d="M121.16198,239.86214c0,-5.52284 4.47716,-10 10,-10c5.52284,0 10,4.47716 10,10c0,3.24695 -2.36557,3.53791 -3.09842,5.39204c-0.59142,1.49633 -1.52069,2.69867 -2.68806,3.80592c-1.13579,1.07729 -2.64808,0.80204 -4.21352,0.80204c0,0 -2.75393,0.61842 -4.36104,-0.45866c-1.38941,-0.93117 -2.60429,-3.87524 -2.74343,-4.10955c-1.06606,-1.79528 -2.89553,0.09105 -2.89553,-5.43179zM121.82865,240.36214c0,1.38071 3.78596,2.16666 5.16666,2.16666c0.91755,0 1.71966,-0.49431 2.15454,-1.23116c1.8634,-1.0648 1.80634,-9.29448 -1.48787,-9.29448c0,0 -3.52884,2.11278 -3.65612,2.37067c-0.77473,1.56984 -2.17721,5.80467 -2.17721,5.9883zM139.82864,239.69547c0,-1.97693 -0.18387,-3.5113 -1.33723,-5.11692c-0.96463,-1.34288 -2.34266,-2.38308 -3.99609,-2.38308c-0.91755,0 -1.553,-0.67236 -1.98788,0.06449c-1.8799,1.07423 -0.25977,9.93551 2.65454,9.93551c3.24807,0 4.66666,-2.27586 4.66666,-2.5zM129.27736,244.94547l0.67829,-0.17632c0.95162,0.11895 1.86363,0.17632 2.82171,0.17632c0,0 1.25,-1.07692 1.25,-2.32692c0,-1.25 -1.17308,-1.25 -1.17308,-1.25c-0.85996,0 -1.65952,-0.05051 -2.51162,-0.15702l-0.98838,0.15702c0,0 -1.25,0 -1.25,1.25c0,1.25 1.17308,2.32692 1.17308,2.32692z" data-paper-data="{&quot;origPos&quot;:null}" fill="#6b6b6b"/></g><g data-paper-data="{&quot;origPos&quot;:null}" stroke="#6b6b6b" stroke-linecap="butt"><path d="M112.99531,377.19547v-34h37v34z" data-paper-data="{&quot;origPos&quot;:null}" fill="url(#color-18)"/><path d="M122.16198,359.86214c0,-5.52285 4.47716,-10 10,-10c5.52284,0 10,4.47715 10,10c0,3.24695 -2.36557,3.53791 -3.09842,5.39204c-0.59142,1.49633 -1.52069,2.69867 -2.68806,3.80592c-1.13579,1.07729 -2.64808,0.80204 -4.21352,0.80204c0,0 -2.75393,0.61842 -4.36104,-0.45866c-1.38941,-0.93117 -2.60429,-3.87524 -2.74343,-4.10955c-1.06606,-1.79528 -2.89553,0.09105 -2.89553,-5.43179zM122.82865,360.36214c0,1.38071 3.78596,2.16666 5.16666,2.16666c0.91755,0 1.71966,-0.49431 2.15454,-1.23116c1.8634,-1.0648 1.80634,-9.29448 -1.48787,-9.29448c0,0 -3.52884,2.11278 -3.65612,2.37067c-0.77473,1.56984 -2.17721,5.80467 -2.17721,5.98831zM140.82864,359.69547c0,-1.97693 -0.18387,-3.5113 -1.33723,-5.11692c-0.96463,-1.34289 -2.34266,-2.38308 -3.99609,-2.38308c-0.91755,0 -1.553,-0.67236 -1.98788,0.0645c-1.8799,1.07423 -0.25977,9.9355 2.65454,9.9355c3.24807,0 4.66666,-2.27585 4.66666,-2.5zM130.27736,364.94547l0.67829,-0.17632c0.95162,0.11895 1.86363,0.17632 2.82171,0.17632c0,0 1.25,-1.07693 1.25,-2.32693c0,-1.25 -1.17308,-1.25 -1.17308,-1.25c-0.85996,0 -1.65952,-0.0505 -2.51162,-0.15702l-0.98838,0.15702c0,0 -1.25,0 -1.25,1.25c0,1.25 1.17308,2.32693 1.17308,2.32693z" data-paper-data="{&quot;origPos&quot;:null}" fill="#6b6b6b"/></g><g data-paper-data="{&quot;origPos&quot;:null}" stroke="#6b6b6b" stroke-linecap="butt"><path d="M-8.00469,377.19547v-34h37v34z" data-paper-data="{&quot;origPos&quot;:null}" fill="url(#color-19)"/><path d="M1.16198,359.86214c0,-5.52285 4.47715,-10 10,-10c5.52285,0 10,4.47715 10,10c0,3.24695 -2.36557,3.53791 -3.09842,5.39204c-0.59143,1.49633 -1.52069,2.69867 -2.68807,3.80592c-1.13579,1.07729 -2.64808,0.80204 -4.21352,0.80204c0,0 -2.75392,0.61842 -4.36104,-0.45866c-1.38941,-0.93117 -2.6043,-3.87524 -2.74343,-4.10955c-1.06606,-1.79528 -2.89553,0.09105 -2.89553,-5.43179zM1.82865,360.36214c0,1.38071 3.78595,2.16666 5.16667,2.16666c0.91756,0 1.71965,-0.49431 2.15453,-1.23116c1.8634,-1.0648 1.80634,-9.29448 -1.48787,-9.29448c0,0 -3.52884,2.11278 -3.65612,2.37067c-0.77473,1.56984 -2.17721,5.80467 -2.17721,5.98831zM19.82864,359.69547c0,-1.97693 -0.18387,-3.5113 -1.33723,-5.11692c-0.96464,-1.34289 -2.34266,-2.38308 -3.9961,-2.38308c-0.91756,0 -1.55299,-0.67236 -1.98787,0.0645c-1.8799,1.07423 -0.25977,9.9355 2.65454,9.9355c3.24807,0 4.66667,-2.27585 4.66667,-2.5zM9.27736,364.94547l0.67829,-0.17632c0.95162,0.11895 1.86364,0.17632 2.82171,0.17632c0,0 1.25,-1.07693 1.25,-2.32693c0,-1.25 -1.17308,-1.25 -1.17308,-1.25c-0.85996,0 -1.65953,-0.0505 -2.51163,-0.15702l-0.98837,0.15702c0,0 -1.25,0 -1.25,1.25c0,1.25 1.17308,2.32693 1.17308,2.32693z" data-paper-data="{&quot;origPos&quot;:null}" fill="#6b6b6b"/></g></g><g><g data-paper-data="{&quot;origPos&quot;:null,&quot;index&quot;:null}" stroke="#75491c"><path d="M441.32599,287.82128v-43.55272h90.18761v43.55272z" data-paper-data="{&quot;origPos&quot;:null}" fill="url(#color-20)" stroke-linecap="butt"/><path d="M442.86765,275.72329h32.37504" data-paper-data="{&quot;origPos&quot;:null}" fill="url(#color-21)" stroke-linecap="round"/><path d="M461.36767,259.99591h53.18757" data-paper-data="{&quot;origPos&quot;:null}" fill="url(#color-22)" stroke-linecap="round"/><path d="M504.53438,273.3037l26.9792,1.20981" data-paper-data="{&quot;origPos&quot;:null}" fill="url(#color-23)" stroke-linecap="round"/><path d="M441.32597,257.57632l10.02085,1.2098" data-paper-data="{&quot;origPos&quot;:null}" fill="url(#color-24)" stroke-linecap="round"/></g><g data-paper-data="{&quot;origPos&quot;:null,&quot;index&quot;:null}" stroke="#75491c"><path d="M441.32598,333.46172v-43.55272h90.18761v43.55272z" data-paper-data="{&quot;origPos&quot;:null}" fill="url(#color-25)" stroke-linecap="butt"/><path d="M475.24269,321.36372h-32.37504" data-paper-data="{&quot;origPos&quot;:null}" fill="url(#color-26)" stroke-linecap="round"/><path d="M514.55524,305.63635h-53.18757" data-paper-data="{&quot;origPos&quot;:null}" fill="url(#color-27)" stroke-linecap="round"/><path d="M531.51358,320.15395l-26.9792,-1.20981" data-paper-data="{&quot;origPos&quot;:null}" fill="url(#color-28)" stroke-linecap="round"/><path d="M441.32597,303.21676l10.02085,1.20979" data-paper-data="{&quot;origPos&quot;:null}" fill="url(#color-29)" stroke-linecap="round"/></g><g data-paper-data="{&quot;origPos&quot;:null}" stroke="#6b6b6b" stroke-linecap="butt"><g data-paper-data="{&quot;origPos&quot;:null}"><path d="M443.50563,242.93844v-28h88v28z" data-paper-data="{&quot;origPos&quot;:null}" fill="url(#color-30)"/><path d="M530.50563,334.93844v28h-88v-28z" data-paper-data="{&quot;origPos&quot;:null,&quot;index&quot;:null}" fill="url(#color-31)"/></g><g data-paper-data="{&quot;origPos&quot;:null,&quot;origRot&quot;:0}"><path d="M440.77274,333.15422l-27.9996,-0.15368l0.47247,-89.95876l27.9996,0.15368z" data-paper-data="{&quot;origPos&quot;:null}" fill="url(#color-32)"/><path d="M533.23852,244.72267l27.9996,0.15368l-0.47248,89.95876l-27.99959,-0.15368z" data-paper-data="{&quot;origPos&quot;:null,&quot;index&quot;:null}" fill="url(#color-33)"/></g></g><g data-paper-data="{&quot;origPos&quot;:null}" fill="#a7a095" stroke="#6b6b6b" stroke-linecap="butt"><g data-paper-data="{&quot;origPos&quot;:null}"><path d="M458.6723,229.60511c0,-4.78647 3.8802,-8.66666 8.66667,-8.66666c4.78647,0 8.66667,3.88019 8.66667,8.66666c0,4.78647 -3.8802,8.66667 -8.66667,8.66667c-4.78647,0 -8.66667,-3.8802 -8.66667,-8.66667z" data-paper-data="{&quot;origPos&quot;:null}"/><path d="M498.6723,229.93844c0,-4.78647 3.8802,-8.66666 8.66667,-8.66666c4.78647,0 8.66666,3.88019 8.66666,8.66666c0,4.78647 -3.8802,8.66667 -8.66666,8.66667c-4.78647,0 -8.66667,-3.8802 -8.66667,-8.66667z" data-paper-data="{&quot;origPos&quot;:null}"/><path d="M459.00563,349.60511c0,-4.78647 3.8802,-8.66667 8.66667,-8.66667c4.78647,0 8.66667,3.8802 8.66667,8.66667c0,4.78647 -3.8802,8.66667 -8.66667,8.66667c-4.78647,0 -8.66667,-3.8802 -8.66667,-8.66667z" data-paper-data="{&quot;origPos&quot;:null}"/><path d="M499.00563,349.93844c0,-4.78647 3.8802,-8.66667 8.66667,-8.66667c4.78647,0 8.66667,3.8802 8.66667,8.66667c0,4.78647 -3.8802,8.66667 -8.66667,8.66667c-4.78647,0 -8.66667,-3.8802 -8.66667,-8.66667z" data-paper-data="{&quot;origPos&quot;:null}"/></g><g data-paper-data="{&quot;origPos&quot;:null,&quot;origRot&quot;:0}"><path d="M547.68438,261.46366c4.78647,0.002 8.66504,3.88383 8.66304,8.6703c-0.002,4.78647 -3.88383,8.66503 -8.6703,8.66303c-4.78647,-0.002 -8.66504,-3.88383 -8.66304,-8.6703c0.002,-4.78647 3.88383,-8.66504 8.6703,-8.66303z" data-paper-data="{&quot;origPos&quot;:null}"/><path d="M547.33428,301.46351c4.78647,0.002 8.66504,3.88383 8.66303,8.6703c-0.002,4.78647 -3.88382,8.66504 -8.67029,8.66303c-4.78647,-0.002 -8.66504,-3.88383 -8.66304,-8.6703c0.002,-4.78647 3.88383,-8.66504 8.6703,-8.66304z" data-paper-data="{&quot;origPos&quot;:null}"/><path d="M427.68425,261.74671c4.78647,0.002 8.66504,3.88383 8.66304,8.6703c-0.00201,4.78647 -3.88383,8.66504 -8.6703,8.66303c-4.78647,-0.002 -8.66504,-3.88383 -8.66304,-8.6703c0.00201,-4.78647 3.88383,-8.66504 8.6703,-8.66304z" data-paper-data="{&quot;origPos&quot;:null}"/><path d="M427.33415,301.74657c4.78647,0.002 8.66504,3.88383 8.66304,8.6703c-0.00201,4.78647 -3.88383,8.66503 -8.6703,8.66303c-4.78647,-0.002 -8.66504,-3.88383 -8.66304,-8.6703c0.00201,-4.78647 3.88383,-8.66504 8.6703,-8.66303z" data-paper-data="{&quot;origPos&quot;:null}"/></g></g><g data-paper-data="{&quot;origPos&quot;:null}" stroke="#6b6b6b" stroke-linecap="butt"><path d="M409.50563,245.93844v-34h37v34z" data-paper-data="{&quot;origPos&quot;:null}" fill="url(#color-34)"/><path d="M418.6723,228.60511c0,-5.52284 4.47715,-10 10,-10c5.52285,0 10,4.47716 10,10c0,3.24695 -2.36557,3.53791 -3.09842,5.39204c-0.59143,1.49633 -1.52069,2.69867 -2.68807,3.80592c-1.13579,1.07729 -2.64808,0.80204 -4.21352,0.80204c0,0 -2.75392,0.61842 -4.36104,-0.45866c-1.38941,-0.93117 -2.6043,-3.87524 -2.74343,-4.10955c-1.06606,-1.79528 -2.89553,0.09105 -2.89553,-5.43179zM419.33897,229.10511c0,1.38071 3.78595,2.16666 5.16667,2.16666c0.91756,0 1.71965,-0.49431 2.15453,-1.23116c1.8634,-1.0648 1.80634,-9.29448 -1.48787,-9.29448c0,0 -3.52884,2.11278 -3.65612,2.37067c-0.77473,1.56984 -2.17721,5.80467 -2.17721,5.9883zM437.33896,228.43844c0,-1.97693 -0.18387,-3.5113 -1.33723,-5.11692c-0.96464,-1.34288 -2.34266,-2.38308 -3.9961,-2.38308c-0.91756,0 -1.55299,-0.67236 -1.98787,0.06449c-1.8799,1.07423 -0.25977,9.93551 2.65454,9.93551c3.24807,0 4.66667,-2.27586 4.66667,-2.5zM426.78768,233.68844l0.67829,-0.17632c0.95162,0.11895 1.86364,0.17632 2.82171,0.17632c0,0 1.25,-1.07692 1.25,-2.32692c0,-1.25 -1.17308,-1.25 -1.17308,-1.25c-0.85996,0 -1.65953,-0.05051 -2.51163,-0.15702l-0.98837,0.15702c0,0 -1.25,0 -1.25,1.25c0,1.25 1.17308,2.32692 1.17308,2.32692z" data-paper-data="{&quot;origPos&quot;:null}" fill="#6b6b6b"/></g><g data-paper-data="{&quot;origPos&quot;:null}" stroke="#6b6b6b" stroke-linecap="butt"><path d="M528.50563,245.93844v-34h37v34z" data-paper-data="{&quot;origPos&quot;:null}" fill="url(#color-35)"/><path d="M537.6723,228.60511c0,-5.52284 4.47716,-10 10,-10c5.52284,0 10,4.47716 10,10c0,3.24695 -2.36557,3.53791 -3.09842,5.39204c-0.59142,1.49633 -1.52069,2.69867 -2.68806,3.80592c-1.13579,1.07729 -2.64808,0.80204 -4.21352,0.80204c0,0 -2.75393,0.61842 -4.36104,-0.45866c-1.38941,-0.93117 -2.60429,-3.87524 -2.74343,-4.10955c-1.06606,-1.79528 -2.89553,0.09105 -2.89553,-5.43179zM538.33897,229.10511c0,1.38071 3.78596,2.16666 5.16666,2.16666c0.91755,0 1.71966,-0.49431 2.15454,-1.23116c1.8634,-1.0648 1.80634,-9.29448 -1.48787,-9.29448c0,0 -3.52884,2.11278 -3.65612,2.37067c-0.77473,1.56984 -2.17721,5.80467 -2.17721,5.9883zM556.33896,228.43844c0,-1.97693 -0.18387,-3.5113 -1.33723,-5.11692c-0.96463,-1.34288 -2.34266,-2.38308 -3.99609,-2.38308c-0.91755,0 -1.553,-0.67236 -1.98788,0.06449c-1.8799,1.07423 -0.25977,9.93551 2.65454,9.93551c3.24807,0 4.66666,-2.27586 4.66666,-2.5zM545.78768,233.68844l0.67829,-0.17632c0.95162,0.11895 1.86363,0.17632 2.82171,0.17632c0,0 1.25,-1.07692 1.25,-2.32692c0,-1.25 -1.17308,-1.25 -1.17308,-1.25c-0.85996,0 -1.65952,-0.05051 -2.51162,-0.15702l-0.98838,0.15702c0,0 -1.25,0 -1.25,1.25c0,1.25 1.17308,2.32692 1.17308,2.32692z" data-paper-data="{&quot;origPos&quot;:null}" fill="#6b6b6b"/></g><g data-paper-data="{&quot;origPos&quot;:null}" stroke="#6b6b6b" stroke-linecap="butt"><path d="M529.50563,365.93844v-34h37v34z" data-paper-data="{&quot;origPos&quot;:null}" fill="url(#color-36)"/><path d="M538.6723,348.60511c0,-5.52285 4.47716,-10 10,-10c5.52284,0 10,4.47715 10,10c0,3.24695 -2.36557,3.53791 -3.09842,5.39204c-0.59142,1.49633 -1.52069,2.69867 -2.68806,3.80592c-1.13579,1.07729 -2.64808,0.80204 -4.21352,0.80204c0,0 -2.75393,0.61842 -4.36104,-0.45866c-1.38941,-0.93117 -2.60429,-3.87524 -2.74343,-4.10955c-1.06606,-1.79528 -2.89553,0.09105 -2.89553,-5.43179zM539.33897,349.10511c0,1.38071 3.78596,2.16666 5.16666,2.16666c0.91755,0 1.71966,-0.49431 2.15454,-1.23116c1.8634,-1.0648 1.80634,-9.29448 -1.48787,-9.29448c0,0 -3.52884,2.11278 -3.65612,2.37067c-0.77473,1.56984 -2.17721,5.80467 -2.17721,5.98831zM557.33896,348.43844c0,-1.97693 -0.18387,-3.5113 -1.33723,-5.11692c-0.96463,-1.34289 -2.34266,-2.38308 -3.99609,-2.38308c-0.91755,0 -1.553,-0.67236 -1.98788,0.0645c-1.8799,1.07423 -0.25977,9.9355 2.65454,9.9355c3.24807,0 4.66666,-2.27585 4.66666,-2.5zM546.78768,353.68844l0.67829,-0.17632c0.95162,0.11895 1.86363,0.17632 2.82171,0.17632c0,0 1.25,-1.07693 1.25,-2.32693c0,-1.25 -1.17308,-1.25 -1.17308,-1.25c-0.85996,0 -1.65952,-0.0505 -2.51162,-0.15702l-0.98838,0.15702c0,0 -1.25,0 -1.25,1.25c0,1.25 1.17308,2.32693 1.17308,2.32693z" data-paper-data="{&quot;origPos&quot;:null}" fill="#6b6b6b"/></g><g data-paper-data="{&quot;origPos&quot;:null}" stroke="#6b6b6b" stroke-linecap="butt"><path d="M408.50563,365.93844v-34h37v34z" data-paper-data="{&quot;origPos&quot;:null}" fill="url(#color-37)"/><path d="M417.6723,348.60511c0,-5.52285 4.47715,-10 10,-10c5.52285,0 10,4.47715 10,10c0,3.24695 -2.36557,3.53791 -3.09842,5.39204c-0.59143,1.49633 -1.52069,2.69867 -2.68807,3.80592c-1.13579,1.07729 -2.64808,0.80204 -4.21352,0.80204c0,0 -2.75392,0.61842 -4.36104,-0.45866c-1.38941,-0.93117 -2.6043,-3.87524 -2.74343,-4.10955c-1.06606,-1.79528 -2.89553,0.09105 -2.89553,-5.43179zM418.33897,349.10511c0,1.38071 3.78595,2.16666 5.16667,2.16666c0.91756,0 1.71965,-0.49431 2.15453,-1.23116c1.8634,-1.0648 1.80634,-9.29448 -1.48787,-9.29448c0,0 -3.52884,2.11278 -3.65612,2.37067c-0.77473,1.56984 -2.17721,5.80467 -2.17721,5.98831zM436.33896,348.43844c0,-1.97693 -0.18387,-3.5113 -1.33723,-5.11692c-0.96464,-1.34289 -2.34266,-2.38308 -3.9961,-2.38308c-0.91756,0 -1.55299,-0.67236 -1.98787,0.0645c-1.8799,1.07423 -0.25977,9.9355 2.65454,9.9355c3.24807,0 4.66667,-2.27585 4.66667,-2.5zM425.78768,353.68844l0.67829,-0.17632c0.95162,0.11895 1.86364,0.17632 2.82171,0.17632c0,0 1.25,-1.07693 1.25,-2.32693c0,-1.25 -1.17308,-1.25 -1.17308,-1.25c-0.85996,0 -1.65953,-0.0505 -2.51163,-0.15702l-0.98837,0.15702c0,0 -1.25,0 -1.25,1.25c0,1.25 1.17308,2.32693 1.17308,2.32693z" data-paper-data="{&quot;origPos&quot;:null}" fill="#6b6b6b"/></g></g></g></g></svg>