<svg version="1.1" xmlns="http://www.w3.org/2000/svg" xmlns:xlink="http://www.w3.org/1999/xlink" width="683.40458" height="418.95794" viewBox="0,0,683.40458,418.95794"><defs><linearGradient x1="-21.20229" y1="180" x2="49.15706" y2="180" gradientUnits="userSpaceOnUse" id="color-1"><stop offset="0" stop-color="#296cdb" stop-opacity="0"/><stop offset="1" stop-color="#296cdb"/></linearGradient><linearGradient x1="590.77689" y1="180" x2="662.20229" y2="180" gradientUnits="userSpaceOnUse" id="color-2"><stop offset="0" stop-color="#296cdb"/><stop offset="1" stop-color="#296cdb" stop-opacity="0"/></linearGradient><radialGradient cx="515.31992" cy="346.4055" r="77.14154" gradientUnits="userSpaceOnUse" id="color-3"><stop offset="0" stop-color="#296cdb"/><stop offset="1" stop-color="#296cdb" stop-opacity="0"/></radialGradient><linearGradient x1="320.37562" y1="19.00242" x2="320.37562" y2="-63.06776" gradientUnits="userSpaceOnUse" id="color-4"><stop offset="0" stop-color="#296cdb"/><stop offset="1" stop-color="#296cdb" stop-opacity="0"/></linearGradient><radialGradient cx="515.31992" cy="13.59453" r="77.14154" gradientUnits="userSpaceOnUse" id="color-5"><stop offset="0" stop-color="#296cdb"/><stop offset="1" stop-color="#296cdb" stop-opacity="0"/></radialGradient><linearGradient x1="470.36424" y1="313.10736" x2="509.26796" y2="313.10736" gradientUnits="userSpaceOnUse" id="color-6"><stop offset="0" stop-color="#8e4108"/><stop offset="1" stop-color="#be6d2f"/></linearGradient><linearGradient x1="437.76825" y1="319.9172" x2="474.18138" y2="319.9172" gradientUnits="userSpaceOnUse" id="color-7"><stop offset="0" stop-color="#8e4108"/><stop offset="1" stop-color="#be6d2f"/></linearGradient><linearGradient x1="487.83174" y1="243.89533" x2="487.83174" y2="294.26603" gradientUnits="userSpaceOnUse" id="color-8"><stop offset="0" stop-color="#0052ef"/><stop offset="1" stop-color="#004bd6"/></linearGradient><linearGradient x1="516.16525" y1="181.85675" x2="516.16525" y2="197.83828" gradientUnits="userSpaceOnUse" id="color-9"><stop offset="0" stop-color="#bc041a"/><stop offset="1" stop-color="#880010"/></linearGradient><linearGradient x1="497.12263" y1="176.18449" x2="497.12263" y2="201.42565" gradientUnits="userSpaceOnUse" id="color-10"><stop offset="0" stop-color="#bc041a"/><stop offset="1" stop-color="#a90216"/></linearGradient></defs><g transform="translate(21.20229,29.47897)"><g data-paper-data="{&quot;isPaintingLayer&quot;:true}" fill-rule="nonzero" stroke-linejoin="miter" stroke-miterlimit="10" stroke-dasharray="" stroke-dashoffset="0" style="mix-blend-mode: normal"><g stroke="none" stroke-width="0" stroke-linecap="butt"><path d="M48.15706,389.47897v-418.95794h542.61983v418.95794z" fill="#296cdb"/><path d="M-21.20229,389.47897v-418.95794h70.35935v418.95794z" fill="url(#color-1)"/><path d="M590.77689,389.47897v-418.95794h71.4254v418.95794z" fill="url(#color-2)"/></g><g stroke="none" stroke-linecap="butt"><g><g><g><path d="M511.73194,344.61151h84.3175z" data-paper-data="{&quot;index&quot;:null}" fill="url(#color-3)" stroke-width="0"/><path d="" data-paper-data="{&quot;index&quot;:null,&quot;origRot&quot;:0}" fill="url(#color-4)" stroke-width="1.89892"/><path d="" data-paper-data="{&quot;index&quot;:null}" fill="url(#color-5)" stroke-width="0"/></g></g></g><text transform="translate(94.00365,61.0802) scale(0.50924,0.50924)" font-size="22" xml:space="preserve" fill="#a1f4fa" fill-rule="nonzero" stroke="none" stroke-width="1" stroke-linecap="butt" stroke-linejoin="miter" stroke-miterlimit="10" stroke-dasharray="" stroke-dashoffset="0" font-family="&quot;Microsoft YaHei&quot;, &quot;微软雅黑&quot;, STXihei, &quot;华文细黑&quot;" font-weight="400" text-anchor="start" style="mix-blend-mode: normal"><tspan x="0" dy="0">Page 2</tspan></text><text transform="translate(92.54471,87.21422) scale(1.03413,1.03413)" font-size="22" xml:space="preserve" fill="#a1f3f9" fill-rule="nonzero" stroke="none" stroke-width="1" stroke-linecap="butt" stroke-linejoin="miter" stroke-miterlimit="10" stroke-dasharray="" stroke-dashoffset="0" font-family="&quot;Microsoft YaHei&quot;, &quot;微软雅黑&quot;, STXihei, &quot;华文细黑&quot;" font-weight="400" text-anchor="start" style="mix-blend-mode: normal"><tspan x="0" dy="0">Movement</tspan></text><text transform="translate(362.69408,31.82308) scale(0.63022,0.63021)" font-size="22" xml:space="preserve" fill="#a1f3f9" fill-rule="nonzero" stroke="none" stroke-width="1" stroke-linecap="butt" stroke-linejoin="miter" stroke-miterlimit="10" stroke-dasharray="" stroke-dashoffset="0" font-family="Sans Serif" font-weight="400" text-anchor="start" style="mix-blend-mode: normal"><tspan x="0" dy="0">Use the arrow keys</tspan><tspan x="0" dy="24.86px">or tap to navigate</tspan></text><path d="M111.18761,13.16804c6.80525,1.71922 10.42277,2.74001 10.85258,3.06237c-2.41766,5.78446 -3.71602,8.74832 -3.89511,8.89159c-0.44772,0 -3.35786,-1.02078 -8.73042,-3.06236c-3.11609,2.90118 -4.67413,4.52191 -4.67413,4.86217c-0.23281,5.37257 -0.34922,8.49761 -0.34922,9.37513c3.72498,1.71922 5.93668,2.68628 6.63512,2.90118c3.47426,-1.50432 5.47106,-2.41765 5.99041,-2.74001l-0.96706,-3.08922c-0.64471,0.35817 -2.58779,1.17301 -5.82923,2.44452l-0.16118,-0.32236v-1.31627c0,-1.12824 -0.05373,-2.84746 -0.16118,-5.15767c0.8417,-0.21491 5.74865,-0.75216 14.72083,-1.61177c0.21491,1.11033 0.59098,5.84714 1.12824,14.21043c-0.28654,0.32236 -5.67701,2.48034 -16.17142,6.47394c-8.93636,-3.25935 -13.46722,-5.09499 -13.59258,-5.50688c-2.79373,-9.70643 -4.1906,-14.81932 -4.1906,-15.33867c3.67126,-6.60825 5.77551,-10.17205 6.31276,-10.6914c0.44771,-0.21491 4.80845,-1.34314 13.0822,-3.38472z" fill="#ffffff" stroke-width="0.26459"/><path d="M142.9126,21.25376l0.18803,0.34922l-3.62648,19.23378h0.18803l9.24081,-2.71315v-10.87944c0.03583,-0.25072 0.15223,-0.37608 0.34922,-0.37608c6.94852,0.48353 10.81676,0.7253 11.60474,0.7253c0,0.12537 0.06268,0.18805 0.18805,0.18805c0,3.06236 -0.96706,9.41094 -2.90118,19.04574c0,0.55517 -2.77583,0.97601 -8.32748,1.26255c-0.28654,-0.34026 -0.5283,-1.06556 -0.72529,-2.17589c-7.10969,1.4506 -11.16598,2.17589 -12.16886,2.17589c-5.67701,-4.22642 -8.51552,-6.4023 -8.51552,-6.52766c0.96706,-12.69716 1.57595,-19.28751 1.82667,-19.77104h0.16119c4.53086,-0.12535 8.70356,-0.30444 12.51808,-0.53726z" fill="#ffffff" stroke-width="0.26459"/><path d="M167.43836,10.48175l10.55709,1.6655c-1.32523,5.06812 -2.1938,7.60218 -2.60569,7.60218c-5.55165,-0.37608 -8.32747,-0.74321 -8.32747,-1.10138v-7.79021c0.05372,-0.25072 0.17907,-0.37608 0.37608,-0.37608zM164.48345,23.26846h0.16118c8.1663,1.48641 12.24944,2.35497 12.24944,2.60569c-2.34602,13.28814 -3.76975,20.69333 -4.27119,22.21556h-8.51551c-0.25072,0 -0.37608,-0.12536 -0.37608,-0.37608z" fill="#ffffff" stroke-width="0.26459"/><path d="M195.0802,13.11432h0.16119c8.09467,0.68052 12.14199,1.20883 12.14199,1.58491l3.57276,31.61754c0,0.23281 -3.57276,0.82379 -10.71827,1.77295l-0.16119,-0.34922v-2.87432c-6.16054,1.6655 -10.38695,2.74001 -12.67925,3.22354c-5.4442,-7.70068 -8.30061,-11.80173 -8.56924,-12.30317c4.01152,-7.28878 6.15158,-10.97794 6.42021,-11.06749l11.25552,0.53725c-0.23281,-1.37896 -0.70738,-5.42629 -1.42373,-12.14199zM190.08371,32.37492c1.80876,5.53374 2.937,8.56924 3.38472,9.1065l5.34571,-4.64727c-0.55517,-3.20563 -0.96706,-4.80845 -1.23569,-4.80845h-7.14552c-0.23281,0.03583 -0.34922,0.15223 -0.34922,0.34922z" fill="#ffffff" stroke-width="0.26459"/><path d="M229.00794,21.2806c8.11257,4.17269 12.60762,6.60825 13.48514,7.30669c-1.16405,5.4442 -1.85354,8.24689 -2.06844,8.40806h-16.9773v0.29549l4.75472,5.88296l7.46786,-3.81452c0.73425,1.2715 1.79085,3.49217 3.16982,6.66199c-0.64471,0.2149 -5.3457,0.90438 -14.10298,2.06844c-7.25296,-4.78158 -10.90631,-7.27087 -10.96004,-7.46787c1.16405,-9.29453 1.85354,-13.9418 2.06844,-13.9418c7.57531,-3.22354 11.96291,-5.02334 13.16278,-5.39943zM227.26186,27.78143c-0.14327,0.35817 -1.09242,1.78189 -2.84746,4.27118c0,0.75216 1.0566,1.12824 3.16982,1.12824c0,0.10746 1.53118,0.36713 4.59354,0.77902c0.8417,-1.16405 1.26255,-1.84458 1.26255,-2.04157c-0.26863,-1.59386 -0.85065,-2.39079 -1.74608,-2.39079z" fill="#ffffff" stroke-width="0.26459"/></g><text transform="translate(92.99527,123.78356) scale(0.66931,0.66931)" font-size="22" xml:space="preserve" fill="#a1f3f9" fill-rule="nonzero" stroke="none" stroke-width="1" stroke-linecap="butt" stroke-linejoin="miter" stroke-miterlimit="10" stroke-dasharray="" stroke-dashoffset="0" font-family="&quot;Microsoft YaHei&quot;, &quot;微软雅黑&quot;, STXihei, &quot;华文细黑&quot;" font-weight="400" text-anchor="start" style="mix-blend-mode: normal"><tspan x="0" dy="0">Welcome to the guide! </tspan><tspan x="0" dy="24.86px"> </tspan><tspan x="0" dy="24.86px">To walk, press the A/D keys or the arrow keys.</tspan><tspan x="0" dy="24.86px"> </tspan><tspan x="0" dy="24.86px">Jump with the up key, space or the W key.</tspan><tspan x="0" dy="24.86px"> </tspan><tspan x="0" dy="24.86px">If you press the down key or the S key </tspan><tspan x="0" dy="24.86px">whilst mid-air, you can perform a </tspan><tspan x="0" dy="24.86px">special move...</tspan><tspan x="0" dy="24.86px"> </tspan><tspan x="0" dy="24.86px">Each character can either dive, </tspan><tspan x="0" dy="24.86px">ground-pound or gain extra height.</tspan></text><g><g data-paper-data="{&quot;origPos&quot;:null,&quot;index&quot;:null,&quot;origRot&quot;:0}" stroke="none" stroke-width="0" stroke-linecap="butt"><path d="M506.80699,253.11131c-5.01142,-1.77278 -6.65261,-8.15799 -3.40636,-17.33475c2.61099,-7.38096 9.44354,-21.11004 9.44354,-21.11004l14.97783,5.49251c0,0 -1.71533,9.20794 -4.96158,18.38471c-3.24626,9.17676 -11.04202,16.34035 -16.05344,14.56757z" data-paper-data="{&quot;origRot&quot;:0,&quot;origPos&quot;:null}" fill="#ff0021"/><g data-paper-data="{&quot;origPos&quot;:null}" fill="#ffffff"><path d="M510.29009,195.22206c2.56724,-10.81345 11.31971,-7.72715 21.43205,-6.08148c9.26693,1.5081 14.6789,14.5312 12.37015,21.32956c-3.18245,9.37108 -14.14087,5.48194 -22.83944,1.94848c-8.69856,-3.53347 -13.35988,-7.09967 -10.96276,-17.19656z" data-paper-data="{&quot;origRot&quot;:0,&quot;origPos&quot;:null}"/><path d="M507.84908,210.11225c2.37112,-6.42465 3.43676,-3.39814 16.07062,1.35486c11.09026,4.17228 12.97831,4.53559 11.10461,10.48837c-1.6749,5.32118 -8.81096,0.90817 -15.53034,-1.81103c-6.71938,-2.71921 -13.02947,-6.28064 -11.64489,-10.0322z" data-paper-data="{&quot;origRot&quot;:0,&quot;origPos&quot;:null}"/></g></g><g data-paper-data="{&quot;origPos&quot;:null,&quot;origRot&quot;:0}" stroke="none" stroke-width="0" stroke-linecap="butt"><path d="M500.65629,298.64742c-0.01799,4.56925 5.02885,6.65636 4.80847,7.67019c-0.89169,4.10196 -3.02969,6.90365 -10.00671,8.44897c-8.64259,1.91422 -15.28759,0.95671 -22.64528,-3.96499c-5.01123,-3.3521 -0.29346,-5.71695 2.01364,-11.28708c0.82786,-1.99871 1.50907,-4.63646 2.32566,-10.0112c1.02096,-6.71983 5.37932,-18.81326 5.37932,-18.81326c0,0 5.37085,-0.4973 10.62961,-0.26774c5.19874,0.28202 10.24587,2.71751 10.24587,2.71751c0,0 -2.709,14.94523 -2.75059,25.50759z" data-paper-data="{&quot;origPos&quot;:null}" fill="#004bd6"/><path d="M506.50776,321.22655c-0.22862,3.89179 -4.29655,5.49279 -8.10954,6.30481c-2.49883,0.53215 -14.40484,-0.5175 -20.11949,-4.33157c-1.77414,-1.18411 -3.1228,-3.7148 -3.1228,-3.7148c0,0 -5.07261,0.46284 -4.97275,-0.99054c0.07927,-1.15372 0.1657,-3.12119 1.31948,-3.65458c4.96642,-2.29597 16.3711,-1.61984 21.83313,-1.29897c7.49815,0.44048 13.39543,3.88147 13.17195,7.68568z" data-paper-data="{&quot;origPos&quot;:null}" fill="#f9c869"/><path d="M508.67618,316.44836c-1.63177,4.47525 -6.38229,7.46356 -14.85906,6.9656c-8.47677,-0.49796 -17.25593,-5.94718 -17.25593,-5.94718c0,0 -6.15582,-0.03743 -6.18748,-1.61922c-0.06554,-3.2739 0.18814,-8.59459 1.4318,-8.69598c4.59121,-0.37432 3.69519,0.19167 9.72433,-0.73163c3.90357,-0.59779 10.56014,-3.89321 14.50243,-3.66162c8.47677,0.49796 15.33067,6.32147 12.64393,13.69005z" data-paper-data="{&quot;origPos&quot;:null}" fill="url(#color-6)"/></g><g data-paper-data="{&quot;origPos&quot;:null,&quot;origRot&quot;:0}" stroke="none" stroke-width="0" stroke-linecap="butt"><path d="M472.66062,312.26383c-2.21912,3.99423 1.19573,8.25631 0.51378,9.03821c-2.7592,3.16354 -5.98322,4.58699 -12.84063,2.57633c-8.49443,-2.49064 -13.85407,-6.5338 -17.92647,-14.39346c-2.77365,-5.35311 2.49972,-5.14986 7.20687,-8.91706c1.68906,-1.35177 3.5578,-3.33409 6.86497,-7.64886c4.13483,-5.3946 14.55252,-13.69939 14.55252,-13.69939c0,0 6.44947,3.98766 10.2014,7.4377c2.96097,2.72273 6.99954,8.37924 6.99954,8.37924c0,0 -10.4422,7.99415 -15.57198,17.22728z" data-paper-data="{&quot;origPos&quot;:null}" fill="#004bd6"/><path d="M466.89879,334.866c-2.07697,3.29917 -6.41272,2.7401 -10.14466,1.61279c-2.44571,-0.73879 -12.36985,-7.39961 -15.53697,-13.49663c-0.98324,-1.89286 -0.94439,-4.76023 -0.94439,-4.76023c0,0 -4.66706,-2.04062 -3.87873,-3.26571c0.62579,-0.97249 1.65026,-2.65442 2.91823,-2.56533c5.458,0.3835 15.12304,6.47536 19.75334,9.39033c6.35637,4.00161 9.86339,9.85986 7.83316,13.08479z" data-paper-data="{&quot;origPos&quot;:null}" fill="#f9c869"/><path d="M471.10256,331.72574c-3.58755,3.13368 -9.19028,3.46083 -16.37624,-1.06305c-7.18596,-4.52388 -12.24927,-13.53114 -12.24927,-13.53114c0,0 -5.37477,-3.00123 -4.63974,-4.40224c1.52131,-2.89971 4.30927,-7.43857 5.44767,-6.9277c4.20264,1.88603 3.14475,1.94979 8.87183,4.04829c3.708,1.35867 11.1286,1.68162 14.47058,3.78554c7.18596,4.52388 10.38215,12.93064 4.47518,18.0903z" data-paper-data="{&quot;origPos&quot;:null}" fill="url(#color-7)"/></g><g data-paper-data="{&quot;origPos&quot;:null}"><path d="M515.82759,267.06602c0.39163,21.17353 -13.11217,27.2 -28.3,27.2c-15.18783,0 -27.7,-10.03796 -27.7,-20.2c0,-11.02412 1.31852,-19.79986 9.82136,-26.81648c6.33487,-5.22759 15.46535,-2.78352 23.67864,-2.78352c15.18783,0 22.11612,1.84521 22.5,22.6z" data-paper-data="{&quot;origPos&quot;:null}" fill="url(#color-8)" stroke="none" stroke-width="0" stroke-linecap="butt"/><path d="M515.82759,266.46601c0,0 -17.24385,2 -29.4,2.4c-11.15011,0.36689 -22.4,-3.4 -22.4,-3.4c0,0 -0.98648,-13.79564 6.98462,-19.16002c5.21526,-3.50975 11.08038,-4.65914 18.61538,-4.83998c7.535,-0.18084 15.72889,2.13912 19.52206,5.21215c8.95988,7.25886 6.67794,19.78785 6.67794,19.78785z" data-paper-data="{&quot;origPos&quot;:null}" fill="#ff0021" stroke="none" stroke-width="0" stroke-linecap="butt"/><path d="M501.93541,245.35732c0,0 2.14029,6.84028 2.57206,10.95319c0.55457,5.28272 -0.57997,15.20846 -0.57997,15.20846" data-paper-data="{&quot;origPos&quot;:null,&quot;origRot&quot;:0}" fill="none" stroke="#0052ef" stroke-width="10" stroke-linecap="round"/><path d="M480.42759,245.86601c0,0 1.23985,7.05925 1.13735,11.19349c-0.13165,5.31011 -2.53735,15.00651 -2.53735,15.00651" data-paper-data="{&quot;origPos&quot;:null}" fill="none" stroke="#0052ef" stroke-width="10" stroke-linecap="round"/><path d="M475.62759,270.16603c0,-2.26436 1.83563,-4.1 4.1,-4.1c2.26436,0 4.1,1.83564 4.1,4.1c0,2.26436 -1.83563,4.1 -4.1,4.1c-2.26436,0 -4.1,-1.83563 -4.1,-4.1z" data-paper-data="{&quot;origPos&quot;:null}" fill="#ffe84f" stroke="none" stroke-width="0" stroke-linecap="butt"/><path d="M500.42759,270.16603c0,-2.26436 1.83563,-4.1 4.1,-4.1c2.26436,0 4.1,1.83564 4.1,4.1c0,2.26436 -1.83564,4.1 -4.1,4.1c-2.26436,0 -4.1,-1.83563 -4.1,-4.1z" data-paper-data="{&quot;origPos&quot;:null}" fill="#ffe84f" stroke="none" stroke-width="0" stroke-linecap="butt"/></g><g data-paper-data="{&quot;origPos&quot;:null,&quot;origRot&quot;:0}" stroke="none" stroke-width="0" stroke-linecap="butt"><path d="M471.5814,261.01964c-6.29077,4.66072 -19.63039,12.22547 -19.63039,12.22547l-9.34925,-12.92651c0,0 6.56931,-6.67629 14.39062,-12.47096c7.82132,-5.79468 18.2897,-7.37701 21.45416,-3.10579c3.16447,4.27121 0.95617,10.48312 -6.86515,16.2778z" data-paper-data="{&quot;origRot&quot;:0,&quot;origPos&quot;:null}" fill="#ff0021"/><g data-paper-data="{&quot;origPos&quot;:null}" fill="#ffffff"><path d="M443.19989,290.79585c-8.17314,7.53135 -13.70541,0.07984 -21.17053,-6.93726c-6.84102,-6.43045 -4.04899,-20.25416 1.6655,-24.60075c7.87702,-5.99146 14.78967,3.35882 20.02728,11.15098c5.23761,7.79216 7.1093,13.35476 -0.52224,20.38703z" data-paper-data="{&quot;origRot&quot;:0,&quot;origPos&quot;:null}"/><path d="M453.54716,279.81359c-5.55732,4.00185 -4.74919,0.89663 -12.56821,-10.10646c-6.8637,-9.65874 -8.22616,-11.01537 -3.34508,-14.90399c4.36319,-3.47603 7.81357,4.17204 11.86523,10.18272c4.05165,6.01067 7.29314,12.49094 4.04806,14.82773z" data-paper-data="{&quot;origRot&quot;:0,&quot;origPos&quot;:null}"/></g></g><path d="M529.19417,185.95278c0.03548,3.8354 -10.39014,10.36228 -19.18936,11.76302c-7.09043,1.12871 -6.39479,-5.822 -6.96783,-9.42175c-0.57304,-3.59976 13.44729,-5.02654 20.53772,-6.15526c7.09042,-1.12871 5.59651,1.33137 5.61947,3.81399z" data-paper-data="{&quot;origPos&quot;:null}" fill="url(#color-9)" stroke="none" stroke-width="0" stroke-linecap="butt"/><path d="M463.29642,237.87052c0,0 -1.49511,1.42331 -3.56978,0.36834c-2.07467,-1.05496 -3.91922,-3.96464 -1.46484,-5.88515c2.93569,-2.29712 1.14496,-8.16639 3.21963,-7.11143c0,0 7.30361,-0.1281 8.3098,2.64187c0,0 4.32649,7.77301 3.30203,9.28955c0,0 -1.55183,1.5855 -6.17395,2.09901c-2.50433,0.27823 -3.6229,-1.40219 -3.6229,-1.40219z" data-paper-data="{&quot;origRot&quot;:0,&quot;origPos&quot;:null}" fill="#5a2c0a" stroke="none" stroke-width="0" stroke-linecap="butt"/><path d="M461.9872,198.96347c4.41864,0.31638 36.43904,-7.99621 42.21141,-8.58903c8.54013,-0.87708 7.41618,7.13646 9.36004,15.49855c2.23502,9.61461 9.72168,12.96323 7.76959,22.63924c-0.75263,3.73064 -3.41339,6.04383 -5.99549,8.8397c-1.46481,1.58607 -5.93496,3.61188 -16.55416,5.52702c-15.01087,2.70716 -19.66916,0.94845 -26.63153,-2.79545c-4.42091,-2.37727 -3.38036,-6.92022 -7.2718,-11.16826c-1.19288,-1.30218 -2.45624,-1.897 -2.64835,-1.86642c-10.24147,1.63032 -17.21832,-5.93339 -18.49174,-13.93284c-1.27343,-7.99946 1.34925,-15.06612 7.07613,-15.97777c5.72688,-0.91165 9.63952,1.71526 11.17592,1.82526z" data-paper-data="{&quot;origPos&quot;:null}" fill="#ffdebd" stroke="none" stroke-width="0" stroke-linecap="butt"/><path d="M510.38988,196.53027c1.11654,4.77266 -0.37602,9.20261 -3.33373,9.89454c-2.95771,0.69195 -6.26053,-2.61614 -7.37706,-7.3888c-1.11654,-4.77267 0.37602,-9.2026 3.33373,-9.89454c2.95771,-0.69195 6.26054,2.61614 7.37708,7.3888z" data-paper-data="{&quot;origPos&quot;:null,&quot;origRot&quot;:0}" fill="#ffffff" stroke="none" stroke-width="0" stroke-linecap="butt"/><path d="M473.49768,205.05313c0.41008,2.57605 4.02992,5.8633 1.89246,7.35845c-2.48657,1.73935 -4.15492,0.14548 -4.15492,0.14548c0,0 0.82274,1.4646 -2.67831,2.71416c-2.60074,0.92824 -4.42628,-4.54236 -5.12088,-8.9057c-0.69459,-4.36334 -1.38393,-8.58742 1.32531,-9.12177c11.40672,-2.24979 8.04175,3.44605 8.73634,7.80938z" data-paper-data="{&quot;origPos&quot;:null}" fill="#5a2c0a" stroke="none" stroke-width="0" stroke-linecap="butt"/><path d="M498.3154,203.52012c1.32916,4.71787 0.0365,9.21021 -2.88725,10.03391c-2.92375,0.82371 -6.37143,-2.33313 -7.70059,-7.05101c-1.32916,-4.71787 -0.03649,-9.21021 2.88725,-10.03391c2.92375,-0.82372 6.37143,2.33313 7.70059,7.051z" data-paper-data="{&quot;origPos&quot;:null,&quot;origRot&quot;:0}" fill="#ffffff" stroke="none" stroke-width="0" stroke-linecap="butt"/><path d="M493.4836,196.85624c0.94016,-0.14966 1.90071,0.40119 2.69432,1.41098c0.79263,1.00995 1.41849,2.47983 1.68748,4.16956c0.26898,1.68973 0.13047,3.28129 -0.30938,4.48744c-0.44084,1.2063 -1.18286,2.02818 -2.12302,2.17784c-0.94016,0.14966 -1.90071,-0.40118 -2.69432,-1.41097c-0.79263,-1.00995 -1.41849,-2.47984 -1.68748,-4.16956c-0.26898,-1.68973 -0.13047,-3.28129 0.30938,-4.48744c0.44084,-1.2063 1.18286,-2.02818 2.12302,-2.17784z" data-paper-data="{&quot;origPos&quot;:null}" fill="#000000" stroke="none" stroke-width="1" stroke-linecap="butt"/><path d="M511.0149,161.48108c4.71612,14.38203 1.997,15.67545 -5.18053,21.66264c-10.45825,8.72383 -25.79379,9.73603 -37.28431,17.04684c-3.0171,1.91962 -11.8195,-0.17622 -15.35105,0.38596c-7.22304,1.14982 -12.1204,-3.36364 -13.39769,-9.46487c-2.81741,-13.45793 3.85261,-14.57365 11.07565,-15.72347c0,0 8.15891,0.05213 11.57603,3.83235c0,0 8.1942,-19.75281 19.49745,-23.8313c14.55046,-5.25016 25.67766,-4.23633 29.06445,6.09186z" data-paper-data="{&quot;origPos&quot;:null}" fill="#ff0021" stroke="none" stroke-width="0" stroke-linecap="butt"/><path d="M509.49718,170.3554c0.85956,5.39963 0.06128,9.69205 -10.49192,11.69485c-11.14078,2.11432 -12.74511,-2.45932 -13.60467,-7.85895c-0.85956,-5.39963 3.83783,-10.63559 10.49192,-11.69485c6.65409,-1.05925 12.7451,2.45932 13.60466,7.85895z" data-paper-data="{&quot;origPos&quot;:null}" fill="#ffffff" stroke="none" stroke-width="0" stroke-linecap="butt"/><path d="M529.25906,183.81602c-0.06255,0.87924 -37.83176,12.60424 -48.46402,15.51188c-5.16742,1.41316 -15.87489,2.68757 -15.81234,1.80833c0.23123,-3.25027 1.47383,-8.58341 6.24539,-11.01885c5.76618,-2.94309 25.79549,-11.57932 41.44393,-13.82569c6.397,-0.9183 16.81827,4.27406 16.58703,7.52433z" data-paper-data="{&quot;origPos&quot;:null}" fill="url(#color-10)" stroke="none" stroke-width="0" stroke-linecap="butt"/><path d="M490.05293,179.24495l2.75204,-13.42176l5.28265,5.17221l1.85497,-5.6717l6.85148,9.11841l-3.26582,2.75758l-2.70021,-7.30714l-1.94705,5.03739l-4.26489,-4.07074l-0.32166,7.71056z" data-paper-data="{&quot;origPos&quot;:null}" fill="#ff0021" stroke="none" stroke-width="0" stroke-linecap="butt"/><path d="M520.75458,228.94933c0.03414,2.57501 -1.66606,4.13939 -3.03208,4.75379c-4.16915,1.87518 -10.54319,2.71336 -15.07313,2.09882c-2.60346,-0.35319 -2.90342,-1.95334 -3.17906,-2.13981c-0.29122,-0.19702 -2.68648,2.01427 -5.91557,2.52831c-5.18146,0.82483 -9.3459,-2.25613 -10.15987,-7.36941c-0.89258,-5.60707 -0.90199,-8.80033 -0.08429,-9.0959c4.76236,-1.72149 6.91503,2.37485 11.01451,3.81187c0,0 13.28442,2.14578 19.12808,0.87115c0,0 8.80977,-5.97024 11.79133,-6.2446c1.47872,-0.13607 1.97643,2.92884 1.76135,4.55109c0,0 0.82361,4.2062 -1.045,5.65667c-4.4183,3.42962 -5.21613,-0.16718 -5.20625,0.57804z" data-paper-data="{&quot;origPos&quot;:null}" fill="#38291e" stroke="none" stroke-width="0" stroke-linecap="butt"/><path d="M523.79428,212.26398c0.54663,6.61433 2.86235,10.80943 -11.37559,12.8228c-6.56214,0.92794 -13.50759,-2.16033 -14.43009,-7.95538c-0.92251,-5.79505 4.25206,-13.95221 10.69637,-15.49929c9.38979,-2.25419 14.23478,0.04992 15.10931,10.63187z" data-paper-data="{&quot;origPos&quot;:null}" fill="#ffdebd" stroke="none" stroke-width="0" stroke-linecap="butt"/><g data-paper-data="{&quot;origPos&quot;:null}" fill="none" stroke="#f6b09a" stroke-width="3.5" stroke-linecap="round"><path d="M449.352,207.85533c0,0 2.65451,-2.17431 6.85957,0.12261c6.03074,3.29417 4.00487,10.87761 4.00487,10.87761" data-paper-data="{&quot;origPos&quot;:null}"/><path d="M453.08809,214.05943l5.92539,-0.94325" data-paper-data="{&quot;origPos&quot;:null}"/><path d="M458.12268,219.33352l1.26972,-0.20212" data-paper-data="{&quot;origPos&quot;:null}"/></g><path d="M487.13105,194.51944c-1.29415,0.62145 -1.19927,0.80317 -1.659,2.1632c-0.47426,1.40306 -1.64832,3.29967 -1.64832,3.29967c0,0 -2.0104,-3.3527 -2.43367,-6.01161c-0.2874,-1.80537 0.1927,-5.10821 2.87491,-6.18227c9.36216,-1.81528 7.97078,7.49099 7.97078,7.49099c0,0 -3.75213,-1.45138 -5.10469,-0.75997z" data-paper-data="{&quot;origPos&quot;:null}" fill="#38291e" stroke="none" stroke-width="0" stroke-linecap="butt"/><path d="M503.73607,189.03474c-1.48353,0.32645 -3.45648,3.83251 -3.45648,3.83251c0,0 -6.99154,-6.29771 1.38836,-10.84992c2.75307,-0.87662 5.22383,1.3672 6.15001,2.9433c1.36408,2.32126 1.94439,6.18721 1.94439,6.18721c0,0 -2.11215,-0.71722 -3.37036,-1.49851c-1.21963,-0.75733 -1.26194,-0.95791 -2.65592,-0.61462z" data-paper-data="{&quot;origPos&quot;:null,&quot;index&quot;:null,&quot;origRot&quot;:0}" fill="#38291e" stroke="none" stroke-width="0" stroke-linecap="butt"/><path d="M506.31693,191.52289c0.94016,-0.14966 1.90071,0.40118 2.69432,1.41098c0.79263,1.00995 1.36437,2.48934 1.68748,4.16956c0.35989,1.87154 -0.21847,4.03289 -0.21847,4.03289c0,0 -1.41013,0.43727 -2.35029,0.58693c-0.94016,0.14967 -2.28523,0.90721 -2.28523,0.90721c0,0 -1.41849,-1.84347 -1.9602,-4.44229c-0.34915,-1.675 -0.13047,-3.28129 0.30938,-4.48744c0.44084,-1.2063 1.18286,-2.02818 2.12302,-2.17784z" data-paper-data="{&quot;origPos&quot;:null}" fill="#000000" stroke="none" stroke-width="1" stroke-linecap="butt"/></g></g></g></svg>