<svg version="1.1" xmlns="http://www.w3.org/2000/svg" xmlns:xlink="http://www.w3.org/1999/xlink" width="56.85577" height="80.05353" viewBox="0,0,56.85577,80.05353"><g transform="translate(-211.572,-139.97308)"><g data-paper-data="{&quot;isPaintingLayer&quot;:true}" fill="#ffffff" fill-rule="evenodd" stroke="#000000" stroke-width="0.25" stroke-linecap="round" stroke-linejoin="miter" stroke-miterlimit="10" stroke-dasharray="" stroke-dashoffset="0" style="mix-blend-mode: normal"><path d="M266.288,180.238c1.34236,1.08227 2.08853,2.73952 2.009,4.462c-0.00092,0.40095 -0.03066,0.80132 -0.089,1.198c-0.287,1.982 -1.252,3.963 -2.581,5.292c-0.88355,0.97169 -2.11798,1.55112 -3.43,1.61c-0.3,0 -0.625,-0.05 -0.95,-0.138c-0.32787,-0.08893 -0.64609,-0.21019 -0.95,-0.362c-8.06477,-4.14172 -16.52786,-7.45693 -25.26,-9.895c-2.45951,-0.6832 -4.94085,-1.28519 -7.44,-1.805c0,9.744 -0.228,19.544 -0.728,27.377c-0.14173,2.31145 -0.33244,4.61963 -0.572,6.923c-0.00099,0.007 -0.00199,0.014 -0.003,0.021c-0.221,1.822 -1.248,3.125 -2.678,3.94c-1.32709,0.71007 -2.81416,1.0678 -4.319,1.039c-0.09468,0.00004 -0.18936,-0.00129 -0.284,-0.004c-3.508,-0.102 -7.016,-2.091 -7.016,-5.596v-0.6c0.16176,-1.5548 0.29978,-3.11198 0.414,-4.671c0.524,-7.057 0.786,-15.862 0.786,-24.929c0,-10.945 -0.351,-22.124 -0.92,-30.624c-0.15057,-2.32869 -0.34394,-4.65442 -0.58,-6.976v-0.7c0,-1.856 0.858,-3.258 2.156,-4.207c1.48566,-1.00905 3.24847,-1.53083 5.044,-1.493c1.10521,-0.00509 2.20289,0.18203 3.244,0.553c2.12929,0.6461 3.7037,2.44991 4.056,4.647c0.02798,0.2032 0.05498,0.40654 0.081,0.61c0.396,3.11 0.691,7.125 0.904,11.701c0.14197,3.12832 0.24698,6.2582 0.315,9.389c12.4,2.5 25.2,6.3 37.9,12.7c0.31442,0.14875 0.61295,0.32901 0.891,0.538z"/></g></g></svg>