<svg version="1.1" xmlns="http://www.w3.org/2000/svg" xmlns:xlink="http://www.w3.org/1999/xlink" width="89.62626" height="139.1169" viewBox="0,0,89.62626,139.1169"><defs><linearGradient x1="237.70124" y1="111.20292" x2="237.70124" y2="164.57721" gradientUnits="userSpaceOnUse" id="color-1"><stop offset="0" stop-color="#4f6af7"/><stop offset="1" stop-color="#4758dd"/></linearGradient><linearGradient x1="267.67759" y1="59.42587" x2="267.67759" y2="72.74921" gradientUnits="userSpaceOnUse" id="color-2"><stop offset="0" stop-color="#349fc7"/><stop offset="1" stop-color="#297299"/></linearGradient><linearGradient x1="247.95015" y1="52.00294" x2="247.95015" y2="70.01828" gradientUnits="userSpaceOnUse" id="color-3"><stop offset="0" stop-color="#349fc7"/><stop offset="1" stop-color="#308fb6"/></linearGradient><linearGradient x1="237.61103" y1="58.89033" x2="237.61103" y2="70.87163" gradientUnits="userSpaceOnUse" id="color-4"><stop offset="0" stop-color="#38291e"/><stop offset="1" stop-color="#381e32"/></linearGradient><linearGradient x1="254.85213" y1="55.8875" x2="254.85213" y2="66.43205" gradientUnits="userSpaceOnUse" id="color-5"><stop offset="0" stop-color="#38291e"/><stop offset="1" stop-color="#381e32"/></linearGradient></defs><g transform="translate(-191.4933,-25.46031)"><g data-paper-data="{&quot;isPaintingLayer&quot;:true}" fill-rule="nonzero" stroke-linejoin="miter" stroke-miterlimit="10" stroke-dasharray="" stroke-dashoffset="0" style="mix-blend-mode: normal"><g data-paper-data="{&quot;index&quot;:null,&quot;origRot&quot;:0}" stroke="none" stroke-width="0" stroke-linecap="butt"><path d="M250.49299,111.07067c5.09771,-1.50677 12.50595,6.05688 15.26511,15.39167c2.75914,9.33479 3.98785,18.6202 3.98785,18.6202l-15.24596,4.69722c0,0 -6.10108,-14.0694 -8.32029,-21.57746c-2.75914,-9.33479 -0.78442,-15.62485 4.31329,-17.13163z" data-paper-data="{&quot;origRot&quot;:0,&quot;origPos&quot;:null}" fill="#41c3ff"/><g data-paper-data="{&quot;origPos&quot;:null}" fill="#ffffff" font-family="&quot;Helvetica Neue&quot;, Helvetica, Arial, sans-serif" font-weight="400" font-size="16" text-anchor="start"/></g><g><path d="M263.45926,134.37362c0.39163,21.17353 -7.36176,30.41297 -28.3,30.2c-21.9365,-0.22312 -23.2,-12.78796 -23.2,-22.95c0,-11.02412 -0.93148,-20.04986 7.57136,-27.06648c6.33487,-5.22759 13.21535,-2.78352 21.42864,-2.78352c15.18783,0 22.11612,1.84521 22.5,22.6z" data-paper-data="{&quot;origPos&quot;:null}" fill="url(#color-1)" stroke="none" stroke-width="0" stroke-linecap="butt"/><path d="M263.70926,133.77362c0,0 -17.24385,2 -29.4,2.4c-11.15011,0.36689 -22.4,-3.4 -22.4,-3.4c0,0 -0.98648,-13.79564 6.98462,-19.16002c5.21526,-3.50975 11.08038,-4.65914 18.61538,-4.83998c7.535,-0.18084 15.72889,2.13912 19.52206,5.21215c8.95988,7.25886 6.67794,19.78785 6.67794,19.78785z" data-paper-data="{&quot;origPos&quot;:null}" fill="#41c3ff" stroke="none" stroke-width="0" stroke-linecap="butt"/><path d="M249.81707,112.66493c0,0 2.14029,6.84028 2.57206,10.95319c0.55457,5.28272 -0.57997,15.20846 -0.57997,15.20846" data-paper-data="{&quot;origPos&quot;:null,&quot;origRot&quot;:0}" fill="none" stroke="#5063f7" stroke-width="10" stroke-linecap="round"/><path d="M228.30926,113.17362c0,0 1.23985,7.05925 1.13735,11.19349c-0.13165,5.31011 -2.53735,15.00651 -2.53735,15.00651" data-paper-data="{&quot;origPos&quot;:null}" fill="none" stroke="#5063f7" stroke-width="10" stroke-linecap="round"/><path d="M224.69273,142.98762l0.47856,-4.16533l-2.74233,-2.63761l3.91676,0.14425l1.59649,-3.58172l1.50128,3.65183l4.5202,0.16603l-3.61311,2.58175l0.46103,4.045l-3.09091,-2.61517z" data-paper-data="{&quot;origPos&quot;:null,&quot;origRot&quot;:0}" fill="#ffe008" stroke="none" stroke-width="NaN" stroke-linecap="butt"/><path d="M250.08567,142.74572l-0.09884,-4.19156l-3.07901,-2.23539l3.89937,-0.39579l1.08873,-3.76726l1.98925,3.41067l4.50007,-0.45721l-3.2237,3.05412l1.01296,3.94315l-3.4212,-2.16523z" data-paper-data="{&quot;origPos&quot;:null,&quot;origRot&quot;:0}" fill="#ffe008" stroke="none" stroke-width="NaN" stroke-linecap="butt"/></g><g stroke="none" stroke-width="0" stroke-linecap="butt"><path d="M218.44605,128.43401c-1.981,7.57441 -7.6347,21.82947 -7.6347,21.82947l-15.3867,-4.21339c0,0 0.93484,-9.31959 3.39782,-18.73685c2.46298,-9.41727 9.62865,-17.21111 14.77141,-15.86607c5.14276,1.34503 7.31515,7.56959 4.85217,16.98686z" data-paper-data="{&quot;origRot&quot;:0,&quot;origPos&quot;:null}" fill="#41c3ff"/><g data-paper-data="{&quot;origPos&quot;:null}" fill="#ffffff" font-family="&quot;Helvetica Neue&quot;, Helvetica, Arial, sans-serif" font-weight="400" font-size="16" text-anchor="start"/></g><g><path d="M280.63113,64.14922c-0.56793,3.79329 -11.88998,8.6 -20.8,8.6c-7.1797,0 -5.4,-6.75492 -5.4,-10.4c0,-3.64508 14.0703,-2.85 21.25,-2.85c7.1797,0 5.31761,2.19464 4.95,4.65z" data-paper-data="{&quot;origPos&quot;:null}" fill="url(#color-2)" stroke="none" stroke-width="0" stroke-linecap="butt"/><path d="M205.47422,105.53084c-1.88302,-1.368 -2.34219,-3.637 -0.85476,-6.37559c1.72578,-3.17745 1.08123,-8.21818 2.96425,-6.85018c0,0 7.23293,1.02169 7.79114,3.9154c0,0 3.0507,8.35652 1.80057,9.69315c0,0 -1.78179,1.32182 -6.42716,1.10231c-2.51693,-0.11893 -3.39102,-0.11707 -5.27403,-1.48508z" data-paper-data="{&quot;origRot&quot;:0,&quot;origPos&quot;:null}" fill="#e7be7a" stroke="none" stroke-width="0" stroke-linecap="butt"/><path d="M212.21446,66.43255c4.31396,1.0071 37.24301,-2.16822 43.0368,-1.8462c8.57182,0.47642 6.20204,8.21361 6.80713,16.77732c0.69572,9.84642 7.56286,14.33038 4.11388,23.57918c-1.32977,3.56593 -5.57109,6.18206 -8.56062,8.53723c-1.69594,1.33607 -4.01231,5.30061 -14.80054,5.5225c-18.91647,-3.76969 -24.18277,-8.72429 -27.36091,-12.69741c-3.28722,-3.79189 -1.91707,-5.03225 -5.0923,-9.83925c-0.97333,-1.47352 -2.12747,-2.25956 -2.322,-2.25956c-10.37042,0 -16.07143,-8.56649 -16.07143,-16.66666c0,-8.10018 3.70101,-14.66666 9.5,-14.66666c5.79899,0 9.25,3.20935 10.75,3.55952z" data-paper-data="{&quot;origPos&quot;:null}" fill="#ffdebd" stroke="none" stroke-width="0" stroke-linecap="butt"/><path d="M260.39779,71.63896c0.35235,4.88885 -1.81808,9.02906 -4.84779,9.24741c-3.02971,0.21836 -5.7714,-3.56782 -6.12375,-8.45666c-0.35235,-4.88885 1.81808,-9.02905 4.84779,-9.24741c3.02971,-0.21836 5.77141,3.56782 6.12376,8.45666z" data-paper-data="{&quot;origPos&quot;:null,&quot;origRot&quot;:0}" fill="#ffffff" stroke="none" stroke-width="0" stroke-linecap="butt"/><path d="M222.62446,74.25601c0,2.60849 3.85805,10.02393 1.51211,11.16446c-2.72909,1.32681 -3.54387,-2.9338 -7.19783,-2.25017c-2.71433,0.50783 -4.45714,-4.78172 -4.45714,-9.2c0,-4.41828 -0.01669,-8.69821 2.74286,-8.8c11.61857,-0.42857 7.4,4.66744 7.4,9.08571z" data-paper-data="{&quot;origPos&quot;:null}" fill="#e7be7a" stroke="none" stroke-width="0" stroke-linecap="butt"/><path d="M247.37458,76.64368c0.57094,4.86816 -1.41189,9.10142 -4.42877,9.45524c-3.01689,0.35383 -5.92541,-3.30577 -6.49635,-8.17393c-0.57094,-4.86816 1.41189,-9.10142 4.42877,-9.45524c3.01689,-0.35383 5.92541,3.30577 6.49635,8.17393z" data-paper-data="{&quot;origPos&quot;:null,&quot;origRot&quot;:0}" fill="#ffffff" stroke="none" stroke-width="0" stroke-linecap="butt"/><path d="M244.5816,72.99534c0.952,0 1.814,0.695 2.439,1.817c0.624,1.122 1.011,2.672 1.011,4.383c0,1.711 -0.387,3.261 -1.011,4.383c-0.625,1.122 -1.487,1.817 -2.439,1.817c-0.952,0 -1.814,-0.695 -2.439,-1.817c-0.624,-1.122 -1.011,-2.672 -1.011,-4.383c0,-1.711 0.387,-3.261 1.011,-4.383c0.625,-1.122 1.487,-1.817 2.439,-1.817z" data-paper-data="{&quot;origPos&quot;:null}" fill="#000000" stroke="#ffe008" stroke-width="2" stroke-linecap="butt"/><path d="M257.58159,68.44534c0.952,0 1.814,0.695 2.439,1.817c0.624,1.122 0.775,2.904 1.011,4.383c0.083,0.539 0.233,1.323 -0.15,1.8c-0.483,0.577 -1.281,0.853 -2,1.1c-1.256,0.26 -2.748,1.037 -3.85,0.4c-0.966,-0.58 -0.89,-2.138 -0.9,-3.3c-0.013,-1.501 0.387,-3.261 1.011,-4.383c0.625,-1.122 1.487,-1.817 2.439,-1.817z" data-paper-data="{&quot;origPos&quot;:null}" fill="#000000" stroke="#ffe008" stroke-width="2" stroke-linecap="round"/><path d="M266.52508,37.12387c2.39648,14.94461 -0.49216,15.79448 -8.52168,20.57884c-11.69967,6.97121 -27.00365,5.55994 -39.50062,10.97342c-3.28137,1.42143 -11.64483,-2.03217 -15.22084,-2.03217c-7.31398,0 -11.44089,-5.22725 -11.74313,-11.45342c-0.66666,-13.7335 6.09582,-13.78676 13.4098,-13.78676c0,0 8.04926,1.33414 10.82961,5.60456c0,0 11.19763,-18.21899 23.00151,-20.46979c15.1949,-2.89741 26.02436,-0.14688 27.74535,10.58532z" data-paper-data="{&quot;origPos&quot;:null}" fill="#41c3ff" stroke="none" stroke-width="0" stroke-linecap="butt"/><path d="M263.63113,45.64922c0,5.46762 -1.46317,9.58116 -12.2,9.9c-11.33464,0.33659 -12.2,-4.43238 -12.2,-9.9c0,-5.46762 5.46212,-9.9 12.2,-9.9c6.73787,0 12.2,4.43238 12.2,9.9z" data-paper-data="{&quot;origPos&quot;:null}" fill="#ffffff" stroke="none" stroke-width="0" stroke-linecap="butt"/><path d="M281.03113,62.04922c-0.2,0.85848 -39.34284,6.5 -50.3,7.7c-5.32532,0.58322 -16.1,0.15848 -15.9,-0.7c0.73933,-3.1735 2.8049,-8.24498 7.9,-9.9c6.15716,-2 27.29511,-7.38005 43.10212,-7.1384c6.46182,0.09879 15.93721,6.8649 15.19788,10.0384z" data-paper-data="{&quot;origPos&quot;:null}" fill="url(#color-3)" stroke="none" stroke-width="0" stroke-linecap="butt"/><path d="M246.935,51.8895l0.18849,-3.45889l5.09724,-0.74498l-1.45114,-1.76959l-3.62565,-0.45434l-1.99342,-3.01392l1.9556,-2.81852l7.89963,-1.24007l1.73259,3.27111l-7.32518,0.57178l4.13196,1.53006l3.06427,2.53879l0.28922,2.58669l-2.24917,1.64784z" data-paper-data="{&quot;origPos&quot;:null,&quot;origRot&quot;:0}" fill="#ffe008" stroke="none" stroke-width="0" stroke-linecap="butt"/><path d="M260.96197,109.83566c-3.21733,0.20214 -7.84599,-0.72468 -15.34899,-1.96359c-9.7284,-1.60637 -11.10928,-8.44609 -11.10928,-8.44609c0,0 -3.6461,-1.33232 -5.675,-2.475c-1.58811,-0.89443 0.32605,-6.49937 1.18005,-6.66272c4.97377,-0.95139 6.45569,3.43243 10.27828,5.49605c0,0 12.7819,4.20754 18.75328,3.86744c0,0 9.6388,-4.51103 12.62642,-4.31325c1.48172,0.09809 1.49141,3.20314 1.02397,4.7714c0,0 -1.29607,4.20023 -3.42128,5.67204c-2.1252,1.47181 -5.09013,3.85158 -8.30745,4.05371z" data-paper-data="{&quot;origPos&quot;:null}" fill="#e7be7a" stroke="none" stroke-width="0" stroke-linecap="butt"/><path d="M271.16202,89.28431c-0.5,6.61802 1.12741,11.125 -13.25,10.875c-6.62642,-0.11523 -13,-4.25698 -13,-10.125c0,-5.86802 6.3926,-13.11026 13,-13.625c9.62741,-0.75 14.04992,2.28715 13.25,12.875z" data-paper-data="{&quot;origPos&quot;:null}" fill="#ffdebd" stroke="none" stroke-width="0" stroke-linecap="butt"/><g data-paper-data="{&quot;origPos&quot;:null}" fill="none" stroke="#f6b09a" stroke-width="3.5" stroke-linecap="round"><path d="M198.33849,73.22745c0,0 2.96332,-1.72996 6.75499,1.19948c5.43788,4.2013 2.24501,11.37195 2.24501,11.37195" data-paper-data="{&quot;origPos&quot;:null}"/><path d="M201.05278,79.94177h6" data-paper-data="{&quot;origPos&quot;:null}"/><path d="M205.19563,85.94177h1.28571" data-paper-data="{&quot;origPos&quot;:null}"/></g><path d="M237.74429,65.99663c-1.37576,0.41027 -1.31062,0.60464 -1.97844,1.87549c-0.68894,1.31106 -2.14657,2.99951 -2.14657,2.99951c0,0 -1.45833,-3.62706 -1.45833,-6.31945c0,-1.8281 0.99336,-5.0144 3.81107,-5.65344c9.53112,-0.32089 6.69401,8.65093 6.69401,8.65093c0,0 -3.4773,-2.0232 -4.92174,-1.55303z" data-paper-data="{&quot;origPos&quot;:null}" fill="url(#color-4)" stroke="none" stroke-width="0" stroke-linecap="butt"/><path d="M255.00508,63.19059c-1.51641,0.08916 -4.01601,3.24146 -4.01601,3.24146c0,0 -5.91454,-7.31854 3.07681,-10.49674c2.85665,-0.43291 4.94393,2.17143 5.61082,3.87354c0.98219,2.50684 0.94752,6.41595 0.94752,6.41595c0,0 -1.97313,-1.04035 -3.09287,-2.00973c-1.0854,-0.93965 -1.09566,-1.14439 -2.52627,-1.02451z" data-paper-data="{&quot;origPos&quot;:null,&quot;index&quot;:null,&quot;origRot&quot;:0}" fill="url(#color-5)" stroke="none" stroke-width="0" stroke-linecap="butt"/></g></g></g></svg>