<svg version="1.1" xmlns="http://www.w3.org/2000/svg" xmlns:xlink="http://www.w3.org/1999/xlink" width="561.95" height="441.51132" viewBox="0,0,561.95,441.51132"><defs><linearGradient x1="-11.22077" y1="-54.40659" x2="-11.22077" y2="362.84341" gradientUnits="userSpaceOnUse" id="color-1"><stop offset="0" stop-color="#1d3277"/><stop offset="1" stop-color="#4b79a7"/></linearGradient><linearGradient x1="-45.95847" y1="250.92701" x2="-45.95847" y2="363.87701" gradientUnits="userSpaceOnUse" id="color-2"><stop offset="0" stop-color="#c2b972" stop-opacity="0"/><stop offset="1" stop-color="#c2b972"/></linearGradient><radialGradient cx="177.20573" cy="253.49278" r="212.0047" gradientUnits="userSpaceOnUse" id="color-3"><stop offset="0" stop-color="#e9d085"/><stop offset="1" stop-color="#88753c"/></radialGradient><radialGradient cx="381.49613" cy="243.61318" r="192.935" gradientUnits="userSpaceOnUse" id="color-4"><stop offset="0" stop-color="#e9d085"/><stop offset="1" stop-color="#88753c"/></radialGradient><radialGradient cx="257.57516" cy="111.46655" r="203.34593" gradientUnits="userSpaceOnUse" id="color-5"><stop offset="0" stop-color="#d8e6f5"/><stop offset="1" stop-color="#d8e6f5" stop-opacity="0"/></radialGradient><radialGradient cx="258.55783" cy="106.18721" r="117.7488" gradientUnits="userSpaceOnUse" id="color-6"><stop offset="0" stop-color="#e7edff"/><stop offset="1" stop-color="#91a8af"/></radialGradient></defs><g transform="translate(45.95847,76.73911)"><g data-paper-data="{&quot;isPaintingLayer&quot;:true}" fill-rule="nonzero" stroke="none" stroke-linejoin="miter" stroke-miterlimit="10" stroke-dasharray="" stroke-dashoffset="0" style="mix-blend-mode: normal"><path d="M13.22924,2.77221h480v360h-480z" fill="#ffffff" stroke-width="1" stroke-linecap="butt"/><path d="M-11.22077,-54.40659h504.45v417.25h-504.45z" fill="url(#color-1)" stroke-width="1.1091" stroke-linecap="butt"/><path d="M-45.95847,250.92701h561.95v112.95h-561.95z" fill="url(#color-2)" stroke-width="1.96691" stroke-linecap="round"/><path d="M121.22923,167.46825c22.73622,16.15367 20.69331,41.08132 36.49828,62.58741c17.43795,23.72812 33.81806,32.95992 52.34201,55.95719c23.82998,29.58463 56.15971,78.75936 56.15971,78.75936h-271c0,0 39.90029,-78.72537 68.63877,-123.72708c20.43464,-31.9987 27.07957,-95.09144 57.36123,-73.57687z" fill="url(#color-3)" stroke-width="1" stroke-linecap="round"/><path d="M382.40373,204.74056c29.16027,-9.96356 72.31319,26.53511 88.81143,51.12748c28.33048,42.22956 28.36577,108.31741 28.36577,108.31741h-219c0,0 18.74949,-39.3639 33.31032,-62.16479c0,0 13.20506,-33.5383 23.88773,-53.97694c11.08243,-21.2035 12.84815,-32.44563 44.62475,-43.30315z" fill="url(#color-4)" stroke-width="0.80812" stroke-linecap="round"/><path d="M420.61883,123.11622c0,-1.38071 1.11929,-2.5 2.5,-2.5c1.38071,0 2.5,1.11929 2.5,2.5c0,1.38071 -1.11929,2.5 -2.5,2.5c-1.38071,0 -2.5,-1.11929 -2.5,-2.5z" fill="#98a7d5" stroke-width="0.5" stroke-linecap="butt"/><path d="M453.61883,67.11622c0,-1.38071 1.11929,-2.5 2.5,-2.5c1.38071,0 2.5,1.11929 2.5,2.5c0,1.38071 -1.11929,2.5 -2.5,2.5c-1.38071,0 -2.5,-1.11929 -2.5,-2.5z" fill="#98a7d5" stroke-width="0.5" stroke-linecap="butt"/><path d="M399.61883,34.11622c0,-1.38071 1.11929,-2.5 2.5,-2.5c1.38071,0 2.5,1.11929 2.5,2.5c0,1.38071 -1.11929,2.5 -2.5,2.5c-1.38071,0 -2.5,-1.11929 -2.5,-2.5z" fill="#98a7d5" stroke-width="0.5" stroke-linecap="butt"/><path d="M470.61883,163.11622c0,-1.38071 1.11929,-2.5 2.5,-2.5c1.38071,0 2.5,1.11929 2.5,2.5c0,1.38071 -1.11929,2.5 -2.5,2.5c-1.38071,0 -2.5,-1.11929 -2.5,-2.5z" fill="#98a7d5" stroke-width="0.5" stroke-linecap="butt"/><path d="M386.61883,175.11622c0,-1.38071 1.11929,-2.5 2.5,-2.5c1.38071,0 2.5,1.11929 2.5,2.5c0,1.38071 -1.11929,2.5 -2.5,2.5c-1.38071,0 -2.5,-1.11929 -2.5,-2.5z" fill="#98a7d5" stroke-width="0.5" stroke-linecap="butt"/><path d="M470.61883,23.11622c0,-1.38071 1.11929,-2.5 2.5,-2.5c1.38071,0 2.5,1.11929 2.5,2.5c0,1.38071 -1.11929,2.5 -2.5,2.5c-1.38071,0 -2.5,-1.11929 -2.5,-2.5z" fill="#98a7d5" stroke-width="0.5" stroke-linecap="butt"/><path d="M312.61883,233.11622c0,-1.38071 1.11929,-2.5 2.5,-2.5c1.38071,0 2.5,1.11929 2.5,2.5c0,1.38071 -1.11929,2.5 -2.5,2.5c-1.38071,0 -2.5,-1.11929 -2.5,-2.5z" fill="#98a7d5" stroke-width="0.5" stroke-linecap="butt"/><path d="M279.61883,282.11622c0,-1.38071 1.11929,-2.5 2.5,-2.5c1.38071,0 2.5,1.11929 2.5,2.5c0,1.38071 -1.11929,2.5 -2.5,2.5c-1.38071,0 -2.5,-1.11929 -2.5,-2.5z" fill="#98a7d5" stroke-width="0.5" stroke-linecap="butt"/><path d="M216.61883,245.11622c0,-1.38071 1.11929,-2.5 2.5,-2.5c1.38071,0 2.5,1.11929 2.5,2.5c0,1.38071 -1.11929,2.5 -2.5,2.5c-1.38071,0 -2.5,-1.11929 -2.5,-2.5z" fill="#98a7d5" stroke-width="0.5" stroke-linecap="butt"/><path d="M163.61883,167.11622c0,-1.38071 1.11929,-2.5 2.5,-2.5c1.38071,0 2.5,1.11929 2.5,2.5c0,1.38071 -1.11929,2.5 -2.5,2.5c-1.38071,0 -2.5,-1.11929 -2.5,-2.5z" fill="#98a7d5" stroke-width="0.5" stroke-linecap="butt"/><path d="M464.61883,217.11622c0,-1.38071 1.11929,-2.5 2.5,-2.5c1.38071,0 2.5,1.11929 2.5,2.5c0,1.38071 -1.11929,2.5 -2.5,2.5c-1.38071,0 -2.5,-1.11929 -2.5,-2.5z" fill="#98a7d5" stroke-width="0.5" stroke-linecap="butt"/><path d="M170.61883,213.11622c0,-1.38071 1.11929,-2.5 2.5,-2.5c1.38071,0 2.5,1.11929 2.5,2.5c0,1.38071 -1.11929,2.5 -2.5,2.5c-1.38071,0 -2.5,-1.11929 -2.5,-2.5z" fill="#98a7d5" stroke-width="0.5" stroke-linecap="butt"/><path d="M102.61883,115.11622c0,-1.38071 1.11929,-2.5 2.5,-2.5c1.38071,0 2.5,1.11929 2.5,2.5c0,1.38071 -1.11929,2.5 -2.5,2.5c-1.38071,0 -2.5,-1.11929 -2.5,-2.5z" fill="#98a7d5" stroke-width="0.5" stroke-linecap="butt"/><path d="M142.61883,63.11622c0,-1.38071 1.11929,-2.5 2.5,-2.5c1.38071,0 2.5,1.11929 2.5,2.5c0,1.38071 -1.11929,2.5 -2.5,2.5c-1.38071,0 -2.5,-1.11929 -2.5,-2.5z" fill="#98a7d5" stroke-width="0.5" stroke-linecap="butt"/><path d="M368.61883,93.11622c0,-1.38071 1.11929,-2.5 2.5,-2.5c1.38071,0 2.5,1.11929 2.5,2.5c0,1.38071 -1.11929,2.5 -2.5,2.5c-1.38071,0 -2.5,-1.11929 -2.5,-2.5z" fill="#98a7d5" stroke-width="0.5" stroke-linecap="butt"/><path d="M339.61883,16.11622c0,-1.38071 1.11929,-2.5 2.5,-2.5c1.38071,0 2.5,1.11929 2.5,2.5c0,1.38071 -1.11929,2.5 -2.5,2.5c-1.38071,0 -2.5,-1.11929 -2.5,-2.5z" fill="#98a7d5" stroke-width="0.5" stroke-linecap="butt"/><path d="M119.61883,16.11622c0,-1.38071 1.11929,-2.5 2.5,-2.5c1.38071,0 2.5,1.11929 2.5,2.5c0,1.38071 -1.11929,2.5 -2.5,2.5c-1.38071,0 -2.5,-1.11929 -2.5,-2.5z" fill="#98a7d5" stroke-width="0.5" stroke-linecap="butt"/><path d="M194.61883,13.11622c0,-1.38071 1.11929,-2.5 2.5,-2.5c1.38071,0 2.5,1.11929 2.5,2.5c0,1.38071 -1.11929,2.5 -2.5,2.5c-1.38071,0 -2.5,-1.11929 -2.5,-2.5z" fill="#98a7d5" stroke-width="0.5" stroke-linecap="butt"/><path d="M73.61883,55.11622c0,-1.38071 1.11929,-2.5 2.5,-2.5c1.38071,0 2.5,1.11929 2.5,2.5c0,1.38071 -1.11929,2.5 -2.5,2.5c-1.38071,0 -2.5,-1.11929 -2.5,-2.5z" fill="#98a7d5" stroke-width="0.5" stroke-linecap="butt"/><path d="M24.61883,31.11622c0,-1.38071 1.11929,-2.5 2.5,-2.5c1.38071,0 2.5,1.11929 2.5,2.5c0,1.38071 -1.11929,2.5 -2.5,2.5c-1.38071,0 -2.5,-1.11929 -2.5,-2.5z" fill="#98a7d5" stroke-width="0.5" stroke-linecap="butt"/><path d="M47.61883,106.11622c0,-1.38071 1.11929,-2.5 2.5,-2.5c1.38071,0 2.5,1.11929 2.5,2.5c0,1.38071 -1.11929,2.5 -2.5,2.5c-1.38071,0 -2.5,-1.11929 -2.5,-2.5z" fill="#98a7d5" stroke-width="0.5" stroke-linecap="butt"/><path d="M19.61883,172.11622c0,-1.38071 1.11929,-2.5 2.5,-2.5c1.38071,0 2.5,1.11929 2.5,2.5c0,1.38071 -1.11929,2.5 -2.5,2.5c-1.38071,0 -2.5,-1.11929 -2.5,-2.5z" fill="#98a7d5" stroke-width="0.5" stroke-linecap="butt"/><path d="M30.61883,229.11622c0,-1.38071 1.11929,-2.5 2.5,-2.5c1.38071,0 2.5,1.11929 2.5,2.5c0,1.38071 -1.11929,2.5 -2.5,2.5c-1.38071,0 -2.5,-1.11929 -2.5,-2.5z" fill="#98a7d5" stroke-width="0.5" stroke-linecap="butt"/><path d="M460.92109,-76.73911v376.41131h-406.69185v-376.4113z" data-paper-data="{&quot;index&quot;:null}" fill="url(#color-5)" stroke-width="0" stroke-linecap="butt"/><path d="M257.18083,26.76321c23.4503,0 44.7003,9.5242 60.0881,24.912c15.3878,15.3877 24.9119,36.6377 24.9119,60.088c0,23.4502 -9.5241,44.7002 -24.9119,60.088c-15.3878,15.3878 -36.6378,24.912 -60.0881,24.912c-23.4502,0 -44.7002,-9.5242 -60.088,-24.912c-15.3878,-15.3878 -24.912,-36.6378 -24.912,-60.088c0,-23.4503 9.5242,-44.7003 24.912,-60.088c15.3878,-15.3878 36.6378,-24.912 60.088,-24.912z" fill="url(#color-6)" stroke-width="1.39344" stroke-linecap="butt"/></g></g></svg>