<svg version="1.1" xmlns="http://www.w3.org/2000/svg" xmlns:xlink="http://www.w3.org/1999/xlink" width="47.5787" height="47.11088" viewBox="0,0,47.5787,47.11088"><g transform="translate(-216.21066,-156.44456)"><g data-paper-data="{&quot;isPaintingLayer&quot;:true}" fill-rule="nonzero" stroke-linejoin="miter" stroke-miterlimit="10" stroke-dasharray="" stroke-dashoffset="0" style="mix-blend-mode: normal"><path d="M250.43142,185.3522l6.34136,8.0903l-10.11059,-2.32566c0,0 -0.79604,-0.97781 0.801,-3.4286c1.50043,-2.30254 2.96823,-2.33603 2.96823,-2.33603z" data-paper-data="{&quot;index&quot;:null,&quot;origRot&quot;:0}" fill="#fd7e0b" stroke="#000000" stroke-width="0" stroke-linecap="round"/><path d="M250.76278,173.40105l10.27022,-0.43403l-7.78501,6.85758c0,0 -1.25855,0.07651 -2.31828,-2.65001c-0.99563,-2.56159 -0.16693,-3.77354 -0.16693,-3.77354z" data-paper-data="{&quot;index&quot;:null,&quot;origRot&quot;:0}" fill="#fd7e0b" stroke="#000000" stroke-width="0" stroke-linecap="round"/><path d="M237.42071,195.47617l-7.82007,6.67176l1.90392,-10.19842c0,0 0.94392,-0.83594 3.4589,0.65797c2.36285,1.40355 2.45725,2.8687 2.45725,2.8687z" data-paper-data="{&quot;index&quot;:null,&quot;origRot&quot;:0}" fill="#fd7e0b" stroke="#000000" stroke-width="0" stroke-linecap="round"/><path d="M230.6098,172.38741l-3.02272,-9.82492l8.6067,5.79287c0,0 0.39297,1.19807 -1.97595,2.9142c-2.22563,1.61233 -3.60803,1.11783 -3.60803,1.11783z" data-paper-data="{&quot;index&quot;:null,&quot;origRot&quot;:0}" fill="#fd7e0b" stroke="#000000" stroke-width="0" stroke-linecap="round"/><path d="M226.12766,183.05614l-9.917,-4.20938l10.45966,-2.93381l25.63892,-1.14801l11.48012,3.06136l-8.41875,4.08182z" data-paper-data="{&quot;index&quot;:null}" fill="#ffa902" stroke="#000000" stroke-width="0" stroke-linecap="round"/><path d="M248.02114,193.42536l-3.01331,10.13008l-4.17007,-10.03106l-4.22222,-25.31492l1.65892,-11.7649l5.06439,7.86693z" data-paper-data="{&quot;origRot&quot;:0,&quot;index&quot;:null}" fill="#ffa902" stroke="#000000" stroke-width="0" stroke-linecap="round"/><path d="M233.7543,193.40851l-9.44602,4.7404l4.45511,-9.90776l15.55812,-20.4112l9.71006,-6.84689l-2.26555,9.07766z" data-paper-data="{&quot;origRot&quot;:0,&quot;index&quot;:null}" fill="#ffa902" stroke="#000000" stroke-width="0" stroke-linecap="round"/><path d="M255.00124,182.63986l6.73241,9.25292l-10.37152,-3.23159l-22.13368,-12.99125l-7.96465,-8.81643l10.39758,1.89998z" data-paper-data="{&quot;origRot&quot;:0,&quot;index&quot;:null}" fill="#ffa902" stroke="#000000" stroke-width="0" stroke-linecap="round"/><g stroke="none" stroke-width="0" stroke-linecap="butt"><path d="M240.44646,195.68426c-8.31283,0 -15.05171,-6.73888 -15.05171,-15.0517c0,-8.31283 6.73888,-15.05171 15.05171,-15.05171c8.31283,0 15.05171,6.73888 15.05171,15.05171c0,8.31283 -6.73888,15.05171 -15.05171,15.05171z" data-paper-data="{&quot;index&quot;:null}" fill="#9457aa"/><path d="M234.90444,174.02723c-4.70426,3.86749 -5.62075,8.59274 -7.03901,7.43528c-2.01933,-1.64799 0.66921,-8.92921 3.58498,-11.41893c3.07665,-2.6271 9.22883,-3.59906 11.0472,-2.16526c1.26348,0.99626 -2.7118,2.1358 -7.59317,6.1489z" fill="#b469cd"/></g><path d="M241.06718,168.48671l5.16624,-8.88683l1.58447,10.25291c0,0 -0.61345,1.10159 -3.48144,0.52585c-2.69452,-0.54091 -3.26927,-1.89193 -3.26927,-1.89193z" data-paper-data="{&quot;index&quot;:null,&quot;origRot&quot;:0}" fill="#fcd305" stroke="#000000" stroke-width="0" stroke-linecap="round"/><path d="M234.23732,178.95013c-0.20264,-3.31901 1.54885,-6.12656 3.91207,-6.27084c2.36322,-0.14428 4.44325,2.42934 4.64589,5.74835c0.20264,3.31901 -1.54885,6.12656 -3.91208,6.27083c-2.36321,0.14428 -4.44324,-2.42934 -4.64588,-5.74836z" data-paper-data="{&quot;index&quot;:null}" fill="#ffffff" stroke="none" stroke-width="0" stroke-linecap="butt"/><path d="M250.66812,170.38321l10.20293,-1.25142l-7.21353,7.45639c0,0 -1.24845,0.1766 -2.52217,-2.45675c-1.19667,-2.47406 -0.46724,-3.74822 -0.46724,-3.74822z" data-paper-data="{&quot;index&quot;:null,&quot;origRot&quot;:0}" fill="#fcd305" stroke="#000000" stroke-width="0" stroke-linecap="round"/><path d="M240.24506,193.39784l-4.2007,9.3819l-2.6564,-10.02877c0,0 0.4939,-1.16011 3.40662,-0.8899c2.73652,0.25387 3.45048,1.53677 3.45048,1.53677z" data-paper-data="{&quot;index&quot;:null,&quot;origRot&quot;:0}" fill="#fcd305" stroke="#000000" stroke-width="0" stroke-linecap="round"/><path d="M231.78784,189.65919l-10.21101,1.1837l7.26284,-7.40837c0,0 1.24959,-0.16831 2.50581,2.47343c1.18023,2.48194 0.44236,3.75124 0.44236,3.75124z" data-paper-data="{&quot;index&quot;:null,&quot;origRot&quot;:0}" fill="#fcd305" stroke="#000000" stroke-width="0" stroke-linecap="round"/><path d="M227.94589,179.1987l-7.54409,-6.9823l10.35145,0.69286c0,0 0.94103,0.83921 -0.24714,3.51224c-1.1163,2.51135 -2.56022,2.77718 -2.56022,2.77718z" data-paper-data="{&quot;index&quot;:null,&quot;origRot&quot;:0}" fill="#fcd305" stroke="#000000" stroke-width="0" stroke-linecap="round"/><path d="M251.19562,190.79355l2.07957,10.06684l-8.01999,-6.58121c0,0 -0.27785,-1.22988 2.24281,-2.71418c2.36819,-1.39452 3.69761,-0.77145 3.69761,-0.77145z" data-paper-data="{&quot;index&quot;:null,&quot;origRot&quot;:0}" fill="#fcd305" stroke="#000000" stroke-width="0" stroke-linecap="round"/><path d="M241.52815,178.55573c-0.18652,-3.31901 1.42566,-6.12656 3.6009,-6.27085c2.17524,-0.14428 4.08983,2.42934 4.27635,5.74835c0.18652,3.31901 -1.42566,6.12655 -3.6009,6.27083c-2.17524,0.14428 -4.08982,-2.42934 -4.27634,-5.74836z" data-paper-data="{&quot;index&quot;:null}" fill="#ffffff" stroke="none" stroke-width="0" stroke-linecap="butt"/><path d="M241.8416,179.49116c0,1.18037 -0.57995,2.13725 -1.29536,2.13725c-0.71541,0 -1.29535,-0.95689 -1.29535,-2.13725c0,-1.18037 0.57995,-2.13725 1.29535,-2.13725c0.71541,0 1.29536,0.95689 1.29536,2.13725z" data-paper-data="{&quot;index&quot;:null}" fill="#000000" stroke="none" stroke-width="0" stroke-linecap="butt"/><path d="M248.0132,179.30084c0,1.18037 -0.57995,2.13725 -1.29536,2.13725c-0.71541,0 -1.29535,-0.95689 -1.29535,-2.13725c0,-1.18037 0.57995,-2.13725 1.29535,-2.13725c0.71541,0 1.29536,0.95689 1.29536,2.13725z" data-paper-data="{&quot;index&quot;:null}" fill="#000000" stroke="none" stroke-width="0" stroke-linecap="butt"/><path d="M232.71324,170.78888l-0.99584,-10.23104l7.27364,7.39777c0,0 0.14532,1.25247 -2.51907,2.45993c-2.50322,1.13442 -3.75874,0.37334 -3.75874,0.37334z" data-paper-data="{&quot;index&quot;:null,&quot;origRot&quot;:0}" fill="#fcd305" stroke="#000000" stroke-width="0" stroke-linecap="round"/><g stroke="none"><path d="M245.17207,183.9913c0.48897,0.57648 0.79146,1.37279 0.79146,2.25117c0,0.87839 -0.30249,1.6747 -0.79146,2.25118c-0.48897,0.57648 -1.16437,0.93312 -1.9093,0.93312c-0.74494,0 -1.42038,-0.35664 -1.90934,-0.93312c-0.48892,-0.57648 -0.7914,-1.37279 -0.7914,-2.25118c0,-0.87839 0.30248,-1.6747 0.7914,-2.25117c0.48897,-0.57648 1.16442,-0.93312 1.90934,-0.93312c0.74494,0 1.42034,0.35664 1.9093,0.93312z" data-paper-data="{&quot;index&quot;:null}" fill="#ffadbc" stroke-width="0.99783" stroke-linecap="round"/><path d="M244.21607,185.39353c0.17901,0.04729 0.3141,0.18997 0.3882,0.38198c0.07377,0.19226 0.08646,0.43414 0.02015,0.67966c-0.06632,0.24548 -0.19927,0.4489 -0.36012,0.57918c-0.16108,0.12989 -0.35012,0.18697 -0.52915,0.13967c-0.17904,-0.04725 -0.31413,-0.18996 -0.38824,-0.38197c-0.07377,-0.19226 -0.08646,-0.43415 -0.02014,-0.67962c0.06631,-0.24552 0.19927,-0.44893 0.36015,-0.57919c0.16104,-0.12992 0.35009,-0.187 0.52914,-0.1397z" data-paper-data="{&quot;index&quot;:null}" fill="#6d3f57" stroke-width="0.73984" stroke-linecap="butt"/></g></g></g></svg>