<svg version="1.1" xmlns="http://www.w3.org/2000/svg" xmlns:xlink="http://www.w3.org/1999/xlink" width="49.25" height="49.25" viewBox="0,0,49.25,49.25"><defs><radialGradient cx="240.00166" cy="179.82717" r="23.44889" gradientUnits="userSpaceOnUse" id="color-1"><stop offset="0" stop-color="#fff343"/><stop offset="1" stop-color="#fff343" stop-opacity="0"/></radialGradient><linearGradient x1="240.00164" y1="164.67221" x2="240.00164" y2="195.65873" gradientUnits="userSpaceOnUse" id="color-2"><stop offset="0" stop-color="#ffef10"/><stop offset="1" stop-color="#ffa30a"/></linearGradient><linearGradient x1="240.00166" y1="164.67222" x2="240.00166" y2="195.32876" gradientUnits="userSpaceOnUse" id="color-3"><stop offset="0" stop-color="#e6b609"/><stop offset="1" stop-color="#c37808"/></linearGradient></defs><g transform="translate(-215.375,-155.375)"><g data-paper-data="{&quot;isPaintingLayer&quot;:true}" fill-rule="nonzero" stroke-linejoin="miter" stroke-miterlimit="10" stroke-dasharray="" stroke-dashoffset="0" style="mix-blend-mode: normal"><path d="M215.375,180c0,-13.60001 11.02499,-24.625 24.625,-24.625c13.60001,0 24.625,11.02499 24.625,24.625c0,13.60001 -11.02499,24.625 -24.625,24.625c-13.60001,0 -24.625,-11.02499 -24.625,-24.625z" fill="#66caff" stroke="none" stroke-width="0" stroke-linecap="butt"/><path d="M244.94935,196.09352c-1.67324,-1.04488 -5.00586,-4.17654 -5.00586,-4.17654c0,0 -3.71768,3.28712 -5.29358,4.30869c-3.60955,2.33987 -6.53253,2.6166 -6.84269,2.17636c-0.38437,-0.54555 -0.17901,-4.43967 0.52046,-8.14969c0.55936,-2.96681 1.16895,-5.15149 1.16895,-5.15149c-1.86351,-1.43761 -3.37083,-2.0891 -4.84028,-3.3492c-3.00679,-2.57843 -3.87932,-5.93553 -3.62356,-6.65336c0.35007,-0.98252 4.92354,-2.01407 12.01704,-2.22399l0.45033,-0.16625c2.4102,-6.91222 5.29393,-11.28482 6.43251,-11.28482c1.05616,0.01869 3.98657,4.35029 6.46309,11.21861l0.35346,0.24481c7.17411,0.22368 11.85184,1.26381 12.22944,2.21164c0.22496,0.56469 -0.74576,4.16384 -4.30478,7.08326c-1.25378,1.02845 -2.80101,1.58201 -4.28326,2.72702c0,0 0.75756,2.43565 1.38023,5.7264c0.7025,3.71277 0.80876,7.35793 0.28728,7.76706c-0.44735,0.35097 -3.62446,-0.13266 -7.10876,-2.30851z" data-paper-data="{&quot;index&quot;:null}" fill="url(#color-1)" stroke="#3f2803" stroke-width="0" stroke-linecap="round"/><path d="M244.0295,193.27546c-1.36215,-0.85062 -4.07521,-3.3289 -4.07521,-3.3289c0,0 -3.02651,2.60484 -4.30944,3.43649c-2.93849,1.90486 -5.31805,2.16749 -5.57054,1.8091c-0.31292,-0.44412 -0.14574,-3.53957 0.4237,-6.55985c0.45537,-2.41524 0.95162,-4.19376 0.95162,-4.19376c-1.51706,-1.17034 -2.74415,-1.70071 -3.9404,-2.72654c-2.44779,-2.09906 -3.52612,-4.83204 -3.3179,-5.41642c0.28499,-0.79987 4.37619,-1.63963 10.15092,-1.81052l0.36662,-0.13534c1.96212,-5.62715 4.30972,-9.67749 5.23662,-9.67749c0.8598,0.01521 3.24542,4.03218 5.26152,9.6236l0.28775,0.1993c5.84035,0.1821 10.01644,1.02885 10.32383,1.80046c0.18314,0.45971 -0.97512,3.38973 -3.87247,5.76639c-1.02068,0.83725 -2.28027,1.2879 -3.48694,2.22004c0,0 0.61673,1.98283 1.12363,4.66179c0.5719,3.02252 0.6584,5.91529 0.23386,6.24836c-0.36419,0.28571 -2.95062,-0.14535 -5.78715,-1.91669z" data-paper-data="{&quot;index&quot;:null}" fill="url(#color-2)" stroke="url(#color-3)" stroke-width="1" stroke-linecap="round"/><g stroke="none" stroke-width="2.7674"><path d="M242.99169,176.67964c0.4542,-0.01753 0.90685,0.35846 1.09752,0.82218c0.34592,0.84158 0.38312,1.84492 0.35724,2.78204c-0.01779,0.86499 -0.15517,1.75922 -0.48492,2.53269c-0.18913,0.45394 -0.53013,0.97799 -0.96983,0.97411c-0.42347,-0.00388 -0.78395,-0.33123 -1.01667,-0.91958c-0.29741,-0.74423 -0.43803,-1.63652 -0.43803,-2.68462c0,-1.04817 0.10827,-1.90533 0.43803,-2.68462c0.21656,-0.51435 0.63039,-0.8397 1.01667,-0.82218z" fill="#3f2803" stroke-linecap="round"/><path d="M243.06232,177.2306c0.23441,0 0.44611,0.11494 0.59967,0.3c0.15355,0.18511 0.24896,0.44036 0.24896,0.72282c0,0.28246 -0.0954,0.53771 -0.24896,0.72276c-0.15355,0.18511 -0.36526,0.30006 -0.59967,0.30006c-0.23434,0 -0.4461,-0.11494 -0.59966,-0.30006c-0.15355,-0.18506 -0.2489,-0.44028 -0.2489,-0.72276c0,-0.28246 0.09535,-0.5377 0.2489,-0.72282c0.15355,-0.18506 0.36533,-0.3 0.59966,-0.3z" fill="#ffffff" stroke-linecap="butt"/></g><g stroke="none" stroke-width="2.7674"><path d="M237.00861,176.6473c0.4542,-0.01753 0.90685,0.35846 1.09753,0.82218c0.34592,0.84158 0.38312,1.84492 0.35725,2.78204c-0.01779,0.86499 -0.15518,1.75922 -0.48492,2.53269c-0.18913,0.45394 -0.53013,0.97799 -0.96984,0.97411c-0.42347,-0.00388 -0.78395,-0.33123 -1.01667,-0.91958c-0.29741,-0.74423 -0.43803,-1.63651 -0.43803,-2.68462c0,-1.04817 0.10827,-1.90534 0.43803,-2.68463c0.21656,-0.51435 0.63039,-0.8397 1.01667,-0.82218z" fill="#3f2803" stroke-linecap="round"/><path d="M237.1116,177.16592c0.23441,0 0.4461,0.11494 0.59966,0.3c0.15355,0.18511 0.24896,0.44035 0.24896,0.72282c0,0.28246 -0.09541,0.5377 -0.24896,0.72275c-0.15355,0.18511 -0.36526,0.30006 -0.59966,0.30006c-0.23434,0 -0.44611,-0.11495 -0.59967,-0.30006c-0.15355,-0.18506 -0.2489,-0.44028 -0.2489,-0.72275c0,-0.28246 0.09535,-0.5377 0.2489,-0.72282c0.15355,-0.18506 0.36533,-0.3 0.59967,-0.3z" fill="#ffffff" stroke-linecap="butt"/></g></g></g></svg>