<svg version="1.1" xmlns="http://www.w3.org/2000/svg" xmlns:xlink="http://www.w3.org/1999/xlink" width="137.13387" height="96.99779" viewBox="0,0,137.13387,96.99779"><g transform="translate(-171.50347,-131.67501)"><g data-paper-data="{&quot;isPaintingLayer&quot;:true}" fill-rule="nonzero" stroke-linecap="butt" stroke-linejoin="miter" stroke-miterlimit="10" stroke-dasharray="" stroke-dashoffset="0" style="mix-blend-mode: normal"><g><path d="M244.42203,186.57998c-2.52492,-3.05855 -2.38299,-9.30956 -2.38299,-9.30956l2.6026,-33.94657c0,0 0.49651,-5.93823 3.92152,-9.06415c3.26757,-2.98222 10.67663,-2.56471 10.67663,-2.56471l32.98316,2.52874c0,0 6.1643,0.69781 8.85922,3.62849c3.51725,3.82493 3.01274,8.7891 3.01274,8.7891l-2.80635,36.60415c0,0 -0.53983,5.04989 -4.0145,8.12389c-3.47219,3.07181 -9.16221,2.24683 -9.16221,2.24683l-34.92866,-2.6779c0,0 -5.57455,-0.49818 -8.76117,-4.35829z" fill="#ffdb29" stroke="none" stroke-width="0"/><path d="M250.36073,138.65868c0.10784,-1.40665 1.3356,-2.45955 2.74226,-2.35171c1.40665,0.10784 2.45956,1.33559 2.35172,2.74224c-0.10784,1.40665 -1.3356,2.45956 -2.74226,2.35172c-1.40665,-0.10784 -2.45956,-1.33559 -2.35172,-2.74226z" fill="#a88801" stroke="none" stroke-width="0"/><path d="M246.95013,182.89809c0.10784,-1.40665 1.3356,-2.45956 2.74227,-2.35172c1.40665,0.10784 2.45956,1.33559 2.35171,2.74226c-0.10784,1.40665 -1.33561,2.45956 -2.74226,2.35172c-1.40665,-0.10784 -2.45956,-1.33559 -2.35172,-2.74226z" fill="#a88801" stroke="none" stroke-width="0"/><path d="M294.36339,141.57099c0.10784,-1.40665 1.33561,-2.45956 2.74226,-2.35171c1.40665,0.10784 2.45955,1.33559 2.3517,2.74226c-0.10784,1.40665 -1.33559,2.45956 -2.74224,2.35172c-1.40665,-0.10784 -2.45956,-1.3356 -2.35172,-2.74227z" fill="#a88801" stroke="none" stroke-width="0"/><path d="M291.10815,186.41214c0.10784,-1.40665 1.3356,-2.45956 2.74226,-2.35172c1.40665,0.10784 2.45955,1.33561 2.3517,2.74226c-0.10784,1.40665 -1.3356,2.45956 -2.74225,2.35172c-1.40665,-0.10784 -2.45956,-1.3356 -2.35172,-2.74226z" fill="#a88801" stroke="none" stroke-width="0"/><path d="M276.65268,141.74126c10.59193,1.07751 14.76844,5.25066 15.0523,10.46146c0.26448,4.85477 -0.68275,8.77258 -5.68412,10.53571c-4.13084,1.45624 -6.7757,1.67799 -8.13917,4.96057c-1.36349,3.28258 0.24768,5.5494 -6.1134,5.27841c-6.60095,-0.28119 -5.36888,-5.25121 -4.321,-9.05934c0.81504,-2.96192 2.88959,-5.13449 6.36066,-6.1702c2.07594,-0.61943 3.82022,-0.21334 5.45911,-1.79634c0.96848,-0.93545 2.38611,-3.10444 -4.87099,-3.7185c-5.48521,-0.46413 -7.5616,0.84213 -7.67654,2.34132c-0.2552,3.32867 -3.32882,4.47626 -6.59373,4.22594c-3.00529,-0.23041 -4.70243,-2.1281 -4.72488,-5.12122c-0.03367,-4.48944 1.40203,-13.45954 21.25175,-11.93782z" fill="#ffffff" stroke="#a88801" stroke-width="2.5"/><path d="M264.87075,178.29662c0.23107,-3.01385 2.17959,-5.32201 6.71779,-4.97408c5.14343,0.39434 6.1121,2.92617 5.88103,5.94c-0.23107,3.01385 -2.03149,5.26735 -6.71779,4.97407c-4.40166,-0.27544 -6.1121,-2.92616 -5.88103,-5.94z" fill="#ffffff" stroke="#a88801" stroke-width="2.5"/></g><text transform="translate(175.02285,181.94314) scale(1.40775,1.40775)" font-size="22" xml:space="preserve" data-paper-data="{&quot;origPos&quot;:null}" fill-opacity="0" fill="#000000" fill-rule="nonzero" stroke="#ffffff" stroke-width="5" stroke-linecap="butt" stroke-linejoin="miter" stroke-miterlimit="10" stroke-dasharray="" stroke-dashoffset="0" font-family="Sans Serif" font-weight="400" text-anchor="start" style="mix-blend-mode: normal"><tspan x="0" dy="0">Solid</tspan></text><text transform="translate(175.02285,181.94314) scale(1.40775,1.40775)" font-size="22" xml:space="preserve" data-paper-data="{&quot;origPos&quot;:null}" fill="#000000" fill-rule="nonzero" stroke="#000000" stroke-width="1" stroke-linecap="butt" stroke-linejoin="miter" stroke-miterlimit="10" stroke-dasharray="" stroke-dashoffset="0" font-family="Sans Serif" font-weight="400" text-anchor="start" style="mix-blend-mode: normal"><tspan x="0" dy="0">Solid</tspan></text><path d="M215.10397,195.1728c-0.03453,0 -0.05554,0 -0.05554,0c0,0 0.02101,0 0.05554,0c0.03303,0 0.08107,0 0.13211,0c0.05104,0 0.09907,0 0.1321,0c0.03453,0 0.05554,0 0.05554,0c0,0 -0.02102,0 -0.05554,0c-0.03303,0 -0.08106,0 -0.1321,0c-0.05104,0 -0.09908,0 -0.13211,0z" data-paper-data="{&quot;origPos&quot;:null}" fill="#b2b2b2" stroke="none" stroke-width="1"/><text transform="translate(192.02285,215.44314) scale(1.40775,1.40775)" font-size="22" xml:space="preserve" data-paper-data="{&quot;origPos&quot;:null}" fill-opacity="0" fill="#000000" fill-rule="nonzero" stroke="#ffffff" stroke-width="5" stroke-linecap="butt" stroke-linejoin="miter" stroke-miterlimit="10" stroke-dasharray="" stroke-dashoffset="0" font-family="Sans Serif" font-weight="400" text-anchor="start" style="mix-blend-mode: normal"><tspan x="0" dy="0">Objects</tspan></text><text transform="translate(192.02285,215.44314) scale(1.40775,1.40775)" font-size="22" xml:space="preserve" data-paper-data="{&quot;origPos&quot;:null}" fill="#000000" fill-rule="nonzero" stroke="#000000" stroke-width="1" stroke-linecap="butt" stroke-linejoin="miter" stroke-miterlimit="10" stroke-dasharray="" stroke-dashoffset="0" font-family="Sans Serif" font-weight="400" text-anchor="start" style="mix-blend-mode: normal"><tspan x="0" dy="0">Objects</tspan></text><path d="M232.23607,228.6728c0.05104,0 0.09907,0 0.1321,0c0.03452,0 0.05554,0 0.05554,0c0,0 -0.02101,0 -0.05554,0c-0.03302,0 -0.08106,0 -0.1321,0c-0.05104,0 -0.09907,0 -0.1321,0c-0.03452,0 -0.05554,0 -0.05554,0c0,0 0.02101,0 0.05554,0c0.03302,0 0.08106,0 0.1321,0z" data-paper-data="{&quot;origPos&quot;:null}" fill="#b2b2b2" stroke="none" stroke-width="1"/></g></g></svg>