<svg version="1.1" xmlns="http://www.w3.org/2000/svg" xmlns:xlink="http://www.w3.org/1999/xlink" width="143.7336" height="143.73361" viewBox="0,0,143.7336,143.73361"><defs><linearGradient x1="240" y1="110.13321" x2="240" y2="249.86681" gradientUnits="userSpaceOnUse" id="color-1"><stop offset="0" stop-color="#3c94ed"/><stop offset="1" stop-color="#337fcc"/></linearGradient><linearGradient x1="270.02776" y1="135.73926" x2="270.02776" y2="178.73623" gradientUnits="userSpaceOnUse" id="color-2"><stop offset="0" stop-color="#ffae82"/><stop offset="1" stop-color="#db8b67"/></linearGradient></defs><g transform="translate(-168.1332,-108.1332)"><g data-paper-data="{&quot;isPaintingLayer&quot;:true}" fill-rule="nonzero" stroke-linejoin="miter" stroke-miterlimit="10" stroke-dasharray="" stroke-dashoffset="0" style="mix-blend-mode: normal"><path d="M240,110.13321c19.2752,0 36.74421,7.8268 49.3899,20.47689c12.64989,12.64569 20.4769,30.11449 20.4769,49.38991c0,19.27542 -7.82701,36.74421 -20.4769,49.38991c-12.64569,12.65009 -30.1147,20.4769 -49.3899,20.4769c-19.27542,0 -36.74442,-7.8268 -49.39012,-20.4769c-12.64989,-12.64569 -20.47668,-30.11449 -20.47668,-49.38991c0,-19.27542 7.82679,-36.74421 20.47668,-49.38991c12.64569,-12.6501 30.11471,-20.47689 49.39012,-20.47689z" data-paper-data="{&quot;origPos&quot;:null}" id="ID0.4039921844378114" fill="url(#color-1)" stroke="#23568d" stroke-width="4" stroke-linecap="butt"/><g data-paper-data="{&quot;origPos&quot;:null,&quot;origRot&quot;:0}"><path d="M225.56597,220.5367l2.07989,-1.0967l6.60253,-0.96696l8.01872,0.11109l9.60601,1.21388l2.71278,0.5668l3.00347,2.18084l1.56052,2.49627l-1.1336,5.42555l-1.9088,1.12144l-4.30614,1.99758l-3.10443,-0.27408l-15.5943,-2.07949l-2.78494,-1.27591l-3.00347,-2.18084l-1.12144,-1.9088l-0.65559,-2.7148z" data-paper-data="{&quot;origPos&quot;:null,&quot;index&quot;:null}" fill="#5a2c0a" stroke="#000000" stroke-width="0" stroke-linecap="round"/><path d="M247.29819,210.66524c-1.48541,10.27608 -10.92423,17.41617 -21.0822,15.94783c-10.15796,-1.46834 -17.18846,-10.98907 -15.70305,-21.26515c1.48541,-10.27608 10.92423,-17.41617 21.0822,-15.94783c10.15796,1.46834 17.18846,10.98907 15.70305,21.26515z" data-paper-data="{&quot;origPos&quot;:null}" fill="#fcdda0" stroke="none" stroke-width="0" stroke-linecap="butt"/><path d="M229.2518,224.03886l-1.39754,2.41802l-1.61607,1.51309l-3.49811,1.24104l-3.03226,0.43503l-15.54484,-2.42168l-3.05496,-0.61626l-3.56419,-3.13524l-1.51309,-1.61607l0.44923,-5.52448l2.20355,-1.95218l3.49811,-1.24104l2.76224,0.22461l9.55654,1.55607l7.72194,2.16422l6.05844,2.79711l1.68418,1.6408z" data-paper-data="{&quot;origPos&quot;:null}" fill="#5a2c0a" stroke="#000000" stroke-width="0" stroke-linecap="round"/><g><path d="M242.89367,158.61755c1.90526,0.68815 2.57484,1.23653 3.29721,1.9613c0.72237,0.72477 1.23381,1.28736 1.86045,2.23396c0.62664,0.9466 2.73944,3.94033 4.05335,6.69933c1.3139,2.759 1.07832,4.20017 2.31149,6.66588c1.23317,2.46571 2.81462,4.40607 4.63312,7.21981c1.81851,2.81374 1.94344,2.33612 2.68247,4.09947c0.73903,1.76335 0.64875,2.42799 0.72674,4.03511c0.07799,1.60711 -0.0153,2.39312 -0.3426,3.88053c-0.3273,1.48741 -0.51313,3.13079 -1.56651,4.7953c-1.05338,1.66451 -1.74236,2.03066 -3.244,2.80613c-1.50164,0.77547 -2.0161,0.68118 -3.36259,0.60562c-1.34649,-0.07556 -5.56822,-0.354 -8.98244,-1.29841c-3.41422,-0.94442 -2.5301,-1.47954 -4.24391,-2.36015c-1.71381,-0.88061 -1.31272,-0.80688 -2.2598,-0.98166c-0.94708,-0.17479 -8.56516,-1.62065 -14.11527,-2.04037c-5.55011,-0.41972 -2.87831,0.29757 -4.89058,0.60308c-2.01226,0.30552 -1.4913,0.59737 -2.4762,0.51541c-0.9849,-0.08196 -7.31694,-0.37757 -11.76273,-1.7003c-4.44578,-1.32273 -3.1521,-1.40052 -4.60981,-2.84971c-1.45771,-1.4492 -1.62313,-2.05673 -2.07178,-3.79286c-0.44864,-1.73613 0.05183,-3.70203 0.22401,-6.08104c0.17218,-2.37901 -0.04711,-1.91288 0.4328,-2.99415c0.47992,-1.08127 1.32362,-2.32649 2.48127,-3.57139c1.15765,-1.2449 2.68366,-2.46793 4.49883,-3.93476c1.81516,-1.46683 10.69008,-8.41955 17.50321,-13.84514c0.94296,-0.75092 2.44018,-0.97038 2.90588,-1.37525c0.46569,-0.40487 1.37932,-0.89256 2.87362,-0.84603c1.51335,0.04713 3.23091,-0.56903 6.99834,-0.08007c3.76743,0.48896 4.54017,0.94222 6.44543,1.63036z" data-paper-data="{&quot;origPos&quot;:null}" fill="#8e4108" stroke="#000000" stroke-width="0" stroke-linecap="butt"/><path d="M226.74448,184.62325c-2.30561,-0.33328 -5.27045,0.20877 -6.76533,-1.53195c-1.49488,-1.74072 -1.03567,-4.68842 -0.64383,-7.39915c0.68295,-4.72463 4.06102,-8.14644 7.54514,-7.64281c3.48412,0.50363 5.75493,4.74199 5.07198,9.46661c-0.68295,4.72463 -1.72384,7.61093 -5.20796,7.1073z" data-paper-data="{&quot;origPos&quot;:null}" fill="#ffffff" stroke="#ffffff" stroke-width="0" stroke-linecap="butt"/><path d="M247.99253,179.83455c-0.68295,4.72463 -1.67218,7.6184 -4.86175,7.15734c-2.11069,-0.3051 -4.83651,0.27149 -6.18675,-1.44832c-1.35024,-1.71981 -0.89379,-4.66791 -0.50195,-7.37865c0.68295,-4.72463 3.82224,-8.18095 7.01181,-7.7199c3.18957,0.46105 5.22159,4.66489 4.53864,9.38952c-0.68295,4.72463 0.68295,-4.72463 0.00001,0z" data-paper-data="{&quot;origPos&quot;:null}" fill="#ffffff" stroke="#ffffff" stroke-width="0" stroke-linecap="butt"/><path d="M247.4558,178.85916c0.40994,0.9885 0.56461,2.29293 0.36416,3.67964c-0.20045,1.38672 -0.71745,2.59493 -1.39127,3.4259c-0.67382,0.83097 -1.50299,1.28664 -2.32938,1.16719c-0.82638,-0.11945 -1.49355,-0.79056 -1.9035,-1.77905c-0.40994,-0.9885 -0.56461,-2.29293 -0.36416,-3.67964c0.20045,-1.38672 0.71745,-2.59493 1.39127,-3.4259c0.67382,-0.83097 1.50299,-1.28664 2.32938,-1.16719c0.82638,0.11945 1.49355,0.79056 1.9035,1.77905z" data-paper-data="{&quot;origPos&quot;:null}" id="ID0.3548079067841172" fill="#000000" stroke="none" stroke-width="1" stroke-linecap="butt"/><path d="M230.93852,176.82093c0.40994,0.9885 0.56461,2.29293 0.36416,3.67964c-0.20045,1.38672 -0.71745,2.59493 -1.39127,3.4259c-0.67382,0.83097 -1.50299,1.28664 -2.32938,1.16719c-0.82638,-0.11945 -1.49355,-0.79056 -1.9035,-1.77905c-0.40994,-0.9885 -0.56461,-2.29293 -0.36416,-3.67964c0.20045,-1.38672 0.71745,-2.59493 1.39127,-3.4259c0.67382,-0.83097 1.50299,-1.28664 2.32938,-1.16719c0.82638,0.11945 1.49355,0.79056 1.9035,1.77905z" data-paper-data="{&quot;origPos&quot;:null}" id="ID0.3548079067841172" fill="#000000" stroke="none" stroke-width="1" stroke-linecap="butt"/><path d="M230.12545,173.54014c-1.0066,-1.07512 -0.79137,-3.19293 -2.16199,-4.67924c-1.37062,-1.48632 -2.2768,-1.27765 -3.878,-1.87058c-1.6012,-0.59293 -2.91836,-0.91706 -4.82621,-1.35264c-1.90786,-0.43558 -1.81285,-0.38093 -2.99415,-0.4328c-1.1813,-0.05188 -2.17599,-0.16051 -3.51463,0.14697c-1.33864,0.30748 -2.60114,2.64533 -3.48625,1.46109c-0.88511,-1.18424 0.74787,-2.35042 1.83967,-3.66413c1.0918,-1.31372 1.82725,-1.60713 3.18217,-2.37839c1.35492,-0.77126 1.88481,-1.14879 3.24147,-1.27814c1.35665,-0.12935 3.05899,0.04182 4.94987,0.49717c1.89088,0.45535 2.70082,0.68006 4.12278,1.68763c1.42196,1.00757 2.44256,2.92303 4.39341,4.34679c1.95085,1.42376 3.22449,2.47285 5.67915,3.00429c2.45466,0.53144 2.13849,-0.30137 3.42442,-1.03335c1.28593,-0.73199 2.97166,-2.5866 5.14043,-3.84202c2.16877,-1.25542 2.32286,-1.03379 3.91398,-1.39926c1.59112,-0.36547 1.87917,-0.31003 3.08689,-0.2088c1.20772,0.10123 4.83784,0.09768 7.69924,1.11293c2.8614,1.01525 2.61765,1.40296 3.72343,2.93992c1.10578,1.53697 2.70253,3.36291 1.18539,3.88307c-1.51714,0.52016 -6.16069,-0.74889 -10.14453,-0.81138c-3.98384,-0.0625 -3.12228,0.20212 -5.10445,0.57217c-1.98216,0.37005 -3.39708,0.60347 -5.44197,1.39673c-2.04489,0.79325 -2.13405,1.3565 -3.57899,2.10269c-1.44495,0.74619 -1.75777,1.09305 -3.0276,1.30905c-1.26983,0.216 -2.41091,0.17644 -3.91145,-0.12873c-1.50054,-0.30517 -2.50549,-0.3059 -3.51209,-1.38102z" data-paper-data="{&quot;origPos&quot;:null}" fill="#000000" stroke="#000000" stroke-width="0" stroke-linecap="round"/><g data-paper-data="{&quot;origPos&quot;:null}" stroke="none" stroke-linecap="butt"><path d="M233.78541,173.34145c-0.79264,-1.64008 -0.85122,-4.81716 0.98927,-6.84377c1.84049,-2.02661 3.73064,-1.17151 4.61954,0.66776c0.88891,1.83926 0.85649,4.81135 -0.98927,6.84377c-1.84576,2.03242 -3.82691,0.97232 -4.61954,-0.66776z" data-paper-data="{&quot;origPos&quot;:null}" fill="#8e4108" stroke-width="0"/><path d="M242.22025,168.0971c-0.03548,0.14301 -0.08013,0.2708 -0.13213,0.38494c-0.052,0.11414 0.21882,-0.92466 0.09104,-0.04067c-0.12778,0.88398 -0.25556,1.76798 -0.38334,2.65196c-0.12778,0.88398 -4.71803,7.26559 -8.84521,4.39817c-2.69805,-1.87451 -1.23601,-7.15796 -0.86398,-9.73169c0.37203,-2.57374 0.24732,-1.71094 1.95826,-1.46362c1.71094,0.24732 1.69418,0.36328 1.46362,1.95826c-0.23056,1.59498 -0.94583,3.71111 -0.76668,5.30392c0.17915,1.59281 0.47292,1.19688 0.80842,1.6859c0.3355,0.48902 -0.01243,-0.12168 0.02028,-0.16876c0.03271,-0.04708 1.49032,0.15911 2.13854,-0.14121c0.64821,-0.30033 0.59983,-1.60471 0.66485,-2.3356c0.06502,-0.73088 0.25556,-1.76798 0.38334,-2.65196c0.12778,-0.88398 1.02812,-1.99476 2.20146,-1.9438c1.17335,0.05095 1.67784,0.41634 1.26151,2.09418c-0.41633,1.67785 0.03549,-0.14302 0.00001,-0.00001z" data-paper-data="{&quot;origPos&quot;:null}" fill="#5a2c0a" stroke-width="0.5"/></g><path d="M213.18621,190.15967l-1.68872,-7.23087c0,0 1.35064,0.29935 2.19928,0.60045c0.84287,0.29906 2.13501,0.93739 2.13501,0.93739c0,0 1.46655,0.74383 2.35771,1.54845c0.38294,0.34575 0.90704,1.39921 0.90704,1.39921l0.89397,1.90629z" data-paper-data="{&quot;origPos&quot;:null}" fill="#ffffff" stroke="#ffffff" stroke-width="0" stroke-linecap="round"/><path d="M246.65939,189.86145c0,0 0.72355,-0.6934 1.17082,-1.0277c0.50597,-0.37816 1.27173,-0.79791 1.27173,-0.79791c0,0 0.86174,-0.25015 1.50698,-0.28492c0.42592,-0.02296 1.23773,0.13701 1.23773,0.13701l-0.9286,8.30812l-6.32195,-3.36484c0,0 0.5108,-0.73522 0.97891,-1.40899c0.33711,-0.48522 1.08437,-1.56077 1.08437,-1.56077z" data-paper-data="{&quot;origPos&quot;:null}" fill="#ffffff" stroke="#ffffff" stroke-width="0" stroke-linecap="round"/><path d="M209.1593,191.70679c0.229,-1.71349 1.25275,-1.49012 1.72275,-1.49457c0.47,-0.00444 3.00714,-1.06226 4.57616,-1.34485c1.56902,-0.28259 8.07927,-1.36896 9.76474,-1.53941c1.68547,-0.17045 6.36269,0.82758 7.42999,0.73506c1.06729,-0.09252 11.68592,3.6781 13.54506,4.29002c1.85913,0.61192 2.54018,1.30973 5.71625,3.51636c3.17607,2.20662 1.41971,0.98637 0.43335,2.40607c-0.98637,1.41971 0.17118,2.22392 -2.40607,0.43335c-2.57725,-1.79058 -4.74834,-3.41279 -7.66125,-4.74597c-2.91291,-1.33317 -10.48156,-4.29853 -16.10168,-3.14288c-5.62011,1.15564 -7.73819,0.59815 -9.20737,1.08517c-1.46918,0.48702 -3.76655,1.80917 -6.32743,1.74415c-2.56088,-0.06502 -1.71349,-0.229 -1.48449,-1.9425z" data-paper-data="{&quot;origPos&quot;:null}" fill="#5a2c0a" stroke="none" stroke-width="0.5" stroke-linecap="butt"/></g></g><path d="M256.26908,135.73926c15.08487,0.17969 24.07756,0.32282 26.94315,0.43105l0.14477,0.28628c-0.68242,6.95079 -1.04015,10.57026 -1.14652,10.89145l-0.28791,0.14477l-14.18809,-1.72071c-0.39428,2.29303 -0.68056,3.76261 -0.86024,4.44316c0.32282,0 0.53741,0.03491 0.71733,0.14314c4.51462,-1.32643 6.95079,-2.00699 7.30852,-2.00699c7.20216,5.1954 11.21427,8.13408 12.03983,8.88632c-1.36297,10.42735 -2.11522,15.62252 -2.29327,15.62252c-9.78148,3.90574 -14.72714,5.87596 -14.90519,5.87596c-10.78485,-4.19179 -16.33985,-6.45015 -16.62589,-6.73643c1.18306,-2.29303 2.90213,-5.87573 5.16026,-10.74831h0.14314c0.21459,0 4.08357,2.0419 11.60878,6.16224h0.14291l4.30025,-4.30002c-0.21482,-0.39451 -1.64925,-1.93367 -4.30025,-4.5863h-0.14291c-3.72583,2.47295 -5.69791,3.72583 -5.87596,3.72583c-6.48483,-4.94403 -9.78148,-7.52335 -9.8897,-7.73795c0.96684,-11.21614 1.57756,-17.44959 1.86385,-18.77602z" data-paper-data="{&quot;origPos&quot;:null}" id="path4546" fill="url(#color-2)" stroke="#ab7356" stroke-width="2.5" stroke-linecap="butt"/></g></g></svg>