<svg version="1.1" xmlns="http://www.w3.org/2000/svg" xmlns:xlink="http://www.w3.org/1999/xlink" width="28.24028" height="28.24028" viewBox="0,0,28.24028,28.24028"><defs><radialGradient cx="240" cy="180" r="14.12014" gradientUnits="userSpaceOnUse" id="color-1"><stop offset="0" stop-color="#fff4b0"/><stop offset="1" stop-color="#fff4b0" stop-opacity="0"/></radialGradient><linearGradient x1="240.2811" y1="171.1309" x2="240.2811" y2="189.3578" gradientUnits="userSpaceOnUse" id="color-2"><stop offset="0" stop-color="#ffffff"/><stop offset="1" stop-color="#d1d1d1"/></linearGradient><linearGradient x1="240.2811" y1="171.1309" x2="240.2811" y2="189.3578" gradientUnits="userSpaceOnUse" id="color-3"><stop offset="0" stop-color="#999da6"/><stop offset="1" stop-color="#ccd0d6"/></linearGradient></defs><g transform="translate(-225.87986,-165.87986)"><g data-paper-data="{&quot;isPaintingLayer&quot;:true}" fill-rule="nonzero" stroke-linecap="butt" stroke-linejoin="miter" stroke-miterlimit="10" stroke-dasharray="" stroke-dashoffset="0" style="mix-blend-mode: normal"><path d="M225.87986,180c0,-7.79834 6.3218,-14.12014 14.12014,-14.12014c7.79834,0 14.12014,6.3218 14.12014,14.12014c0,7.79834 -6.3218,14.12014 -14.12014,14.12014c-7.79834,0 -14.12014,-6.3218 -14.12014,-14.12014z" fill="url(#color-1)" stroke="none" stroke-width="0"/><path d="M239.1725,171.1309h0.1237c3.048,1.8625 4.6953,2.8785 4.9262,3.0787l-5.8499,7.4507v0.1853l2.7705,-0.2468c0.0465,-1.693 0.0614,-2.7397 0.0614,-3.1401c0.0465,0 0.0615,-0.0158 0.0615,-0.0615c1.3092,-0.0465 2.2637,-0.0615 2.8942,-0.0615h0.6779c0.2002,0 0.5076,-0.0157 0.9237,-0.0614l0.0615,0.1229c-0.0772,1.4621 -0.1237,2.2937 -0.1237,2.5246c-0.0457,0 -0.0615,0.0158 -0.0615,0.0615l0.1237,0.0615h2.4631c0.0765,0.0157 0.123,0.0465 0.123,0.1229l-0.3082,4.3106l-0.1229,0.0615h-2.5246c-0.0465,0.4469 -0.108,1.7088 -0.1852,3.7565c-0.0765,0.0465 -0.138,0.0615 -0.1845,0.0615c-3.0637,-0.0773 -4.6952,-0.123 -4.9262,-0.123l-0.0614,-0.1229v-3.018l-6.0959,0.3082c-1.1547,-2.925 -1.7245,-4.4178 -1.7245,-4.4951z" data-paper-data="{&quot;origPos&quot;:null}" fill="url(#color-2)" stroke="#ffffff" stroke-width="2.5"/><path d="M239.1725,171.1309h0.1237c3.048,1.8625 4.6953,2.8785 4.9262,3.0787l-5.8499,7.4507v0.1853l2.7705,-0.2468c0.0465,-1.693 0.0614,-2.7397 0.0614,-3.1401c0.0465,0 0.0615,-0.0158 0.0615,-0.0615c1.3092,-0.0465 2.2637,-0.0615 2.8942,-0.0615h0.6779c0.2002,0 0.5076,-0.0157 0.9237,-0.0614l0.0615,0.1229c-0.0772,1.4621 -0.1237,2.2937 -0.1237,2.5246c-0.0457,0 -0.0615,0.0158 -0.0615,0.0615l0.1237,0.0615h2.4631c0.0765,0.0157 0.123,0.0465 0.123,0.1229l-0.3082,4.3106l-0.1229,0.0615h-2.5246c-0.0465,0.4469 -0.108,1.7088 -0.1852,3.7565c-0.0765,0.0465 -0.138,0.0615 -0.1845,0.0615c-3.0637,-0.0773 -4.6952,-0.123 -4.9262,-0.123l-0.0614,-0.1229v-3.018l-6.0959,0.3082c-1.1547,-2.925 -1.7245,-4.4178 -1.7245,-4.4951z" data-paper-data="{&quot;origPos&quot;:null}" fill="url(#color-3)" stroke="none" stroke-width="0"/></g></g></svg>