<svg version="1.1" xmlns="http://www.w3.org/2000/svg" xmlns:xlink="http://www.w3.org/1999/xlink" width="571.96468" height="204.53997" viewBox="0,0,571.96468,204.53997"><defs><linearGradient x1="69.98679" y1="225.22465" x2="69.98679" y2="382.87142" gradientUnits="userSpaceOnUse" id="color-1"><stop offset="0" stop-color="#7be39f"/><stop offset="1" stop-color="#29a66e"/></linearGradient><linearGradient x1="-89.40089" y1="308.00446" x2="-89.40089" y2="406.00448" gradientUnits="userSpaceOnUse" id="color-2"><stop offset="0" stop-color="#000000" stop-opacity="0"/><stop offset="1" stop-color="#000000"/></linearGradient><linearGradient x1="416.59308" y1="247.10055" x2="416.59308" y2="250.10652" gradientUnits="userSpaceOnUse" id="color-3"><stop offset="0" stop-color="#297b40"/><stop offset="1" stop-color="#297b40" stop-opacity="0"/></linearGradient><linearGradient x1="439.59309" y1="226.10055" x2="439.59309" y2="229.10652" gradientUnits="userSpaceOnUse" id="color-4"><stop offset="0" stop-color="#297b40"/><stop offset="1" stop-color="#297b40" stop-opacity="0"/></linearGradient><linearGradient x1="158.59304" y1="206.10055" x2="158.59304" y2="209.10652" gradientUnits="userSpaceOnUse" id="color-5"><stop offset="0" stop-color="#297b40"/><stop offset="1" stop-color="#297b40" stop-opacity="0"/></linearGradient></defs><g transform="translate(87.76966,-179.08612)"><g data-paper-data="{&quot;isPaintingLayer&quot;:true}" fill-rule="nonzero" stroke-linejoin="miter" stroke-miterlimit="10" stroke-dasharray="" stroke-dashoffset="0" style="mix-blend-mode: normal"><path d="M226.99324,303.22465c0,26.90337 -23.12722,79.64677 -23.12722,79.64677c0,0 -155.64717,-1.4799 -206.78657,-1.96614c-30.15785,-0.28674 -71.91374,-0.68376 -71.91374,-0.68376c0,0 -12.18537,-62.37623 -12.18537,-76.99686c0,-30.11192 34.34639,-56.23854 84.63829,-69.2384c21.65585,-5.59778 46.26829,-8.7616 72.36817,-8.7616c86.71227,0 157.00645,34.92179 157.00645,78z" fill="url(#color-1)" stroke="#33b97b" stroke-width="1.5" stroke-linecap="butt"/><g stroke-linecap="butt"><path d="M160.38002,238.61264c0,0 84.44263,3.72525 123.0272,0.14693c37.75384,-3.50128 106.04226,-21.39076 106.04226,-21.39076l26.66672,144.06943l-256.46417,0.1883z" data-paper-data="{&quot;origRot&quot;:0}" fill="#b85e32" stroke="#88451b" stroke-width="1.5"/><path d="M210.2938,258.37104c0.40455,-0.96782 1.51708,-1.42444 2.48489,-1.01988c0.96782,0.40455 1.42444,1.51707 1.01989,2.48489c-0.40455,0.96782 -1.51708,1.42445 -2.4849,1.01989c-0.96782,-0.40455 -1.42444,-1.51708 -1.01988,-2.4849z" data-paper-data="{&quot;origRot&quot;:0}" fill="#d6954b" stroke="none" stroke-width="1"/><path d="M225.85101,249.39998c0.40455,-0.96782 1.51708,-1.42444 2.4849,-1.01988c0.96782,0.40455 1.42443,1.51707 1.01988,2.48489c-0.40455,0.96782 -1.51708,1.42444 -2.48489,1.01989c-0.96782,-0.40455 -1.42444,-1.51708 -1.01988,-2.4849z" data-paper-data="{&quot;origRot&quot;:0}" fill="#d6954b" stroke="none" stroke-width="1"/><path d="M240.78072,251.11176c0.40455,-0.96782 1.51708,-1.42444 2.4849,-1.01988c0.96782,0.40455 1.42444,1.51707 1.01988,2.48489c-0.40455,0.96782 -1.51708,1.42444 -2.48489,1.01988c-0.96782,-0.40455 -1.42444,-1.51707 -1.01989,-2.48489z" data-paper-data="{&quot;origRot&quot;:0}" fill="#d6954b" stroke="none" stroke-width="1"/><path d="M159.93127,230.75981c0,0 81.88557,-0.58941 86.5565,-0.62298c1.55698,-0.01119 3.05235,-0.04882 3.74168,0.8592c0.76585,1.0088 1.15413,2.39976 1.16103,3.53978c0.0259,4.27997 0.02729,4.50811 0.0532,8.78807l-3.38434,5.2553l-2.38744,-5.28949l-4.19792,3.09533l-4.29596,-4.12145l-6.09387,5.40008l-6.61858,-4.85019l-3.79705,4.22968l-5.06157,-3.73131l-5.34375,3.87045l-2.37938,-4.90688l-5.33858,4.25029l-6.6031,-3.7107l-1.85466,5.3434l-8.53518,-4.06476l-3.02629,4.21937l-3.54068,-5.27126l-5.33342,4.63012l-5.06674,-4.11115l-1.48476,4.19875l-4.68135,-4.1163l-2.63574,4.59404z" data-paper-data="{&quot;origRot&quot;:0}" fill="#67db68" stroke="#39a75c" stroke-width="1.5"/><path d="M174.18931,250.15972c0.40455,-0.96782 1.51708,-1.42444 2.4849,-1.01988c0.96782,0.40455 1.42444,1.51708 1.01988,2.4849c-0.40455,0.96782 -1.51708,1.42444 -2.4849,1.01989c-0.96782,-0.40455 -1.42444,-1.51708 -1.01988,-2.4849z" data-paper-data="{&quot;origRot&quot;:0}" fill="#d6954b" stroke="none" stroke-width="1"/></g><path d="" data-paper-data="{&quot;origPos&quot;:null}" fill="url(#color-2)" stroke="none" stroke-width="1.22826" stroke-linecap="butt"/><g data-paper-data="{&quot;origRot&quot;:0,&quot;index&quot;:null}" stroke-linecap="butt"><path d="M326.59106,248.65251c-0.52745,-0.90672 -0.22001,-2.06934 0.6867,-2.59679c0.90672,-0.52745 2.06934,-0.22002 2.59679,0.6867c0.52745,0.90672 0.22001,2.06934 -0.6867,2.59679c-0.90672,0.52745 -2.06934,0.22001 -2.59679,-0.6867z" fill="#d6954b" stroke="none" stroke-width="1"/><path d="M349.97046,243.21398c-0.52745,-0.90672 -0.22001,-2.06934 0.68671,-2.59679c0.90672,-0.52746 2.06934,-0.22002 2.59679,0.6867c0.52745,0.90672 0.22002,2.06934 -0.6867,2.59679c-0.90672,0.52745 -2.06934,0.22002 -2.5968,-0.6867z" fill="#d6954b" stroke="none" stroke-width="1"/><path d="M373.95297,245.18489c-0.52745,-0.90672 -0.22001,-2.06934 0.68671,-2.59679c0.90672,-0.52745 2.06934,-0.22002 2.59679,0.6867c0.52745,0.90672 0.22002,2.06934 -0.68669,2.5968c-0.90672,0.52745 -2.06934,0.22001 -2.5968,-0.6867z" fill="#d6954b" stroke="none" stroke-width="1"/><path d="M387.92509,208.5058c0,0 3.15518,1.41855 3.54861,2.82946c0.7957,2.85352 2.10748,12.93703 2.10748,12.93703l-4.159,-1.99361l-2.38264,5.79274l-5.41276,-3.61545l-2.21596,4.95738l-4.34207,-3.12569l-3.37253,6.06922l-6.44283,-2.53893l-0.37586,4.83785l-6.21959,-2.20687l-3.16291,4.43305l-5.57943,-2.78009l-4.17427,5.10994l-4.9448,-3.35176l-3.2218,5.63272l-6.42964,-2.93704l-4.3788,4.37825l-4.36354,-2.72528l-3.01727,6.36442l-5.74461,-1.93929l-1.74398,5.2141l-6.32035,-2.56729l-0.048,0.05315c-1.01457,-3.73784 -1.68501,-5.62504 -2.69958,-9.36289c-0.29883,-1.10092 -0.239,-3.07904 0.24381,-4.11258c0.34787,-0.74468 1.75498,-1.92404 3.82835,-2.48934c6.22011,-1.6959 81.02397,-22.8632 81.02397,-22.8632z" data-paper-data="{&quot;origPos&quot;:null,&quot;origRot&quot;:0}" fill="#67db68" stroke="#39a75c" stroke-width="1.5"/></g><g stroke="none" stroke-width="1" stroke-linecap="butt"><path d="M406.26357,240.34803c2.21247,0 17.36667,0 20.83637,0c0.44531,0 0.9185,0.45845 0.9185,0.80284c0,0.78259 0,3.811 0,5.20909c0,0.42604 -0.49635,0.75149 -0.9185,0.75149c-1.96021,0 -16.73076,0 -20.83637,0c-0.66994,0 -0.88788,-0.17386 -0.88788,-0.69547c0,-1.42125 0,-4.40073 0,-5.20909c0,-0.43705 0.36721,-0.85885 0.88788,-0.85885z" fill="#52b846"/><path d="M407.39405,240.34803h2.37002v6.76342h-2.37002z" fill="#71ff5e"/><path d="M407.07804,246.71935h18.96039v114.92996h-18.96039z" fill="#52b846"/><path d="M409.04429,248.74898h2.50173v112.90033h-2.50173z" fill="#71ff5e"/><path d="M407.08507,250.10652v-3.00597h19.01599v3.00597z" fill="url(#color-3)"/></g><g stroke="none" stroke-width="1" stroke-linecap="butt"><path d="M429.26357,219.34803c2.21247,0 17.36667,0 20.83637,0c0.44531,0 0.9185,0.45846 0.9185,0.80284c0,0.78259 0,3.811 0,5.20909c0,0.42604 -0.49635,0.75149 -0.9185,0.75149c-1.96021,0 -16.73076,0 -20.83637,0c-0.66994,0 -0.88788,-0.17387 -0.88788,-0.69548c0,-1.42126 0,-4.40073 0,-5.20909c0,-0.43705 0.36721,-0.85885 0.88788,-0.85885z" fill="#52b846"/><path d="M430.39406,219.34803h2.37002v6.76342h-2.37002z" fill="#71ff5e"/><path d="M430.07805,225.71936h18.96039v46.01329h-18.96039z" fill="#52b846"/><path d="M432.04428,227.74898h2.50173v43.98366l-2.50173,0.25z" fill="#71ff5e"/><path d="M430.08507,229.10652v-3.00597h19.01599v3.00597z" fill="url(#color-4)"/></g><g><path d="M282.53238,213.68614c10.11354,0 19.27779,4.10748 25.91366,10.74335c6.63587,6.63586 10.74335,15.80012 10.74335,25.91366c0,10.11354 -4.10748,19.27779 -10.74335,25.91366c-6.63587,6.63587 -15.80012,10.74335 -25.91366,10.74335c-10.11354,0 -19.27779,-4.10748 -25.91366,-10.74335c-6.63586,-6.63587 -10.74335,-15.80012 -10.74335,-25.91366c0,-10.11354 4.10748,-19.27779 10.74335,-25.91366c6.63587,-6.63586 15.80012,-10.74335 25.91366,-10.74335z" fill="#b85e32" stroke="#763e13" stroke-width="1" stroke-linecap="butt"/><path d="M298.78536,260.78945c-1.04897,0 -1.89932,-0.85036 -1.89932,-1.89933c0,-1.04897 0.85035,-1.89932 1.89932,-1.89932c1.04897,0 1.89933,0.85035 1.89933,1.89932c0,1.04897 -0.85036,1.89933 -1.89933,1.89933z" data-paper-data="{&quot;index&quot;:null}" fill="#d6954b" stroke="none" stroke-width="1" stroke-linecap="butt"/><path d="M297.64577,237.61765c-1.04897,0 -1.89933,-0.85036 -1.89933,-1.89933c0,-1.04897 0.85036,-1.89933 1.89933,-1.89933c1.04897,0 1.89932,0.85036 1.89932,1.89933c0,1.04897 -0.85035,1.89933 -1.89932,1.89933z" data-paper-data="{&quot;index&quot;:null}" fill="#d6954b" stroke="none" stroke-width="1" stroke-linecap="butt"/><path d="M283.9706,245.9747c-1.04897,0 -1.89933,-0.85036 -1.89933,-1.89933c0,-1.04897 0.85036,-1.89932 1.89933,-1.89932c1.04897,0 1.89933,0.85035 1.89933,1.89932c0,1.04897 -0.85036,1.89933 -1.89933,1.89933z" data-paper-data="{&quot;index&quot;:null}" fill="#d6954b" stroke="none" stroke-width="1" stroke-linecap="butt"/><path d="M271.81489,257.7505c-1.04897,0 -1.89933,-0.85036 -1.89933,-1.89933c0,-1.04897 0.85036,-1.89933 1.89933,-1.89933c1.04897,0 1.89932,0.85036 1.89932,1.89933c0,1.04897 -0.85035,1.89933 -1.89932,1.89933z" data-paper-data="{&quot;index&quot;:null}" fill="#d6954b" stroke="none" stroke-width="1" stroke-linecap="butt"/><path d="M263.17868,243.81561c-1.04897,0 -1.89932,-0.85036 -1.89932,-1.89933c0,-1.04897 0.85035,-1.89933 1.89932,-1.89933c1.04897,0 1.89933,0.85036 1.89933,1.89933c0,1.04897 -0.85036,1.89933 -1.89933,1.89933z" data-paper-data="{&quot;index&quot;:null}" fill="#d6954b" stroke="none" stroke-width="1" stroke-linecap="butt"/><path d="M274.47398,231.91967c-1.04897,0 -1.89933,-0.85036 -1.89933,-1.89933c0,-1.04897 0.85036,-1.89933 1.89933,-1.89933c1.04897,0 1.89932,0.85036 1.89932,1.89933c0,1.04897 -0.85035,1.89933 -1.89932,1.89933z" data-paper-data="{&quot;index&quot;:null}" fill="#d6954b" stroke="none" stroke-width="1" stroke-linecap="butt"/><path d="M282.16153,212.54654c10.11354,0 18.96857,4.49799 25.91366,10.74335c6.37604,5.73977 10.79881,14.87591 11.50308,23.8244c1.0697,10.64724 -6.09988,31.78789 -6.45771,31.90868c-0.36012,0.12156 2.77112,-20.38092 1.13959,-30.38923c-1.2319,-7.17414 -4.35858,-14.47477 -9.8765,-19.37314c-1.05417,-0.93533 -4.54283,-5.35804 -4.54283,-5.35804l-5.29935,1.49119l-6.87188,-5.94227l-6.8376,5.25074l-6.48978,-3.59855l-5.02604,5.37134l-5.76963,-1.53765l-2.08769,5.46283c0,0 -7.96881,10.80451 -8.7369,17.47381c-0.6283,9.31734 4.36959,27.19456 3.52591,27.24318c-6.91005,0.3922 -6.40613,-4.81122 -8.8246,-11.29609c-1.46496,-3.92811 -1.91874,-10.42518 -1.91874,-14.61757c0,-10.11354 4.10748,-19.27779 10.74335,-25.91366c6.63587,-6.63586 15.80012,-10.74335 25.91366,-10.74335z" fill="#67db68" stroke="#39a75c" stroke-width="1.5" stroke-linecap="round"/></g><g stroke="none" stroke-width="1" stroke-linecap="butt"><path d="M148.26353,199.34803c2.21247,0 17.36667,0 20.83638,0c0.4453,0 0.91851,0.45846 0.91851,0.80284c0,0.78259 0,3.811 0,5.20909c0,0.42604 -0.49636,0.75149 -0.91851,0.75149c-1.96021,0 -16.73076,0 -20.83638,0c-0.66994,0 -0.88787,-0.17387 -0.88787,-0.69548c0,-1.42126 0,-4.40073 0,-5.20909c0,-0.43705 0.3672,-0.85885 0.88787,-0.85885z" fill="#52b846"/><path d="M149.39399,199.34803h2.37002v6.76342h-2.37002z" fill="#71ff5e"/><path d="M149.078,205.71936h18.96039v157.92996h-18.96039z" fill="#52b846"/><path d="M151.04424,207.74898h2.50173v155.90033h-2.50173z" fill="#71ff5e"/><path d="M149.08506,209.10652v-3.00597h19.016v3.00597z" fill="url(#color-5)"/></g><path d="M270.77932,310.40373l-3.90938,-3.57337l-3.20574,5.34623l-2.6927,-3.54731l-3.5744,5.45866l-6.48996,-2.78634l-1.76757,6.09904l-4.1673,-3.09758l-5.59932,5.07925l-4.68651,-3.13367l-5.15974,5.54503l-6.37923,-2.42298l-0.77236,5.39837l-6.2685,-2.05961l-3.68513,5.0953l-4.9046,-2.87272l-4.1483,5.70156c-0.87578,-5.69824 -5.49453,-7.34193 -8.08627,-7.81606c-2.36728,-1.91963 -4.31922,-3.46878 -7.04957,-4.98577c18.77596,-5.85332 77.08415,-24.03049 77.08415,-24.03049z" data-paper-data="{&quot;origRot&quot;:0}" fill="#67db68" stroke="#39a75c" stroke-width="1.5" stroke-linecap="butt"/><path d="M191.7938,255.87104c0.40455,-0.96782 1.51708,-1.42444 2.48489,-1.01988c0.96782,0.40455 1.42444,1.51707 1.01989,2.48489c-0.40455,0.96782 -1.51708,1.42445 -2.4849,1.01989c-0.96782,-0.40455 -1.42444,-1.51708 -1.01988,-2.4849z" data-paper-data="{&quot;origRot&quot;:0}" fill="#d6954b" stroke="none" stroke-width="1" stroke-linecap="butt"/><path d="M213.7938,280.87104c0.40455,-0.96782 1.51708,-1.42444 2.48489,-1.01988c0.96782,0.40455 1.42444,1.51707 1.01989,2.48489c-0.40455,0.96782 -1.51708,1.42445 -2.4849,1.01989c-0.96782,-0.40455 -1.42444,-1.51708 -1.01988,-2.4849z" data-paper-data="{&quot;origRot&quot;:0}" fill="#d6954b" stroke="none" stroke-width="1" stroke-linecap="butt"/><path d="M175.2938,266.87104c0.40455,-0.96782 1.51708,-1.42444 2.48489,-1.01988c0.96782,0.40455 1.42444,1.51707 1.01989,2.48489c-0.40455,0.96782 -1.51708,1.42445 -2.4849,1.01989c-0.96782,-0.40455 -1.42444,-1.51708 -1.01988,-2.4849z" data-paper-data="{&quot;origRot&quot;:0}" fill="#d6954b" stroke="none" stroke-width="1" stroke-linecap="butt"/><path d="M287.29378,268.37104c0.40455,-0.96782 1.51707,-1.42444 2.48489,-1.01988c0.96782,0.40455 1.42444,1.51707 1.01989,2.48489c-0.40455,0.96782 -1.51708,1.42445 -2.4849,1.01989c-0.96782,-0.40455 -1.42444,-1.51708 -1.01988,-2.4849z" data-paper-data="{&quot;origRot&quot;:0}" fill="#d6954b" stroke="none" stroke-width="1" stroke-linecap="butt"/><path d="M330.29378,260.37104c0.40455,-0.96782 1.51707,-1.42444 2.48489,-1.01988c0.96782,0.40455 1.42444,1.51707 1.01989,2.48489c-0.40455,0.96782 -1.51708,1.42445 -2.4849,1.01989c-0.96782,-0.40455 -1.42444,-1.51708 -1.01988,-2.4849z" data-paper-data="{&quot;origRot&quot;:0}" fill="#d6954b" stroke="none" stroke-width="1" stroke-linecap="butt"/><path d="M342.29381,251.87104c0.40455,-0.96782 1.51707,-1.42444 2.48489,-1.01988c0.96782,0.40455 1.42444,1.51707 1.01989,2.48489c-0.40455,0.96782 -1.51708,1.42445 -2.4849,1.01989c-0.96782,-0.40455 -1.42444,-1.51708 -1.01988,-2.4849z" data-paper-data="{&quot;origRot&quot;:0}" fill="#d6954b" stroke="none" stroke-width="1" stroke-linecap="butt"/><path d="M242.2938,286.37104c0.40455,-0.96782 1.51708,-1.42444 2.48489,-1.01988c0.96782,0.40455 1.42444,1.51707 1.01989,2.48489c-0.40455,0.96782 -1.51708,1.42445 -2.4849,1.01989c-0.96782,-0.40455 -1.42444,-1.51708 -1.01988,-2.4849z" data-paper-data="{&quot;origRot&quot;:0}" fill="#d6954b" stroke="none" stroke-width="1" stroke-linecap="butt"/><path d="M185.2938,281.87104c0.40455,-0.96782 1.51708,-1.42444 2.48489,-1.01988c0.96782,0.40455 1.42444,1.51707 1.01989,2.48489c-0.40455,0.96782 -1.51708,1.42445 -2.4849,1.01989c-0.96782,-0.40455 -1.42444,-1.51708 -1.01988,-2.4849z" data-paper-data="{&quot;origRot&quot;:0}" fill="#d6954b" stroke="none" stroke-width="1" stroke-linecap="butt"/><path d="M197.2938,294.37104c0.40455,-0.96782 1.51708,-1.42444 2.48489,-1.01988c0.96782,0.40455 1.42444,1.51707 1.01989,2.48489c-0.40455,0.96782 -1.51708,1.42445 -2.4849,1.01989c-0.96782,-0.40455 -1.42444,-1.51708 -1.01988,-2.4849z" data-paper-data="{&quot;origRot&quot;:0}" fill="#d6954b" stroke="none" stroke-width="1" stroke-linecap="butt"/><path d="M197.2938,269.37104c0.40455,-0.96782 1.51708,-1.42444 2.48489,-1.01988c0.96782,0.40455 1.42444,1.51707 1.01989,2.48489c-0.40455,0.96782 -1.51708,1.42445 -2.4849,1.01989c-0.96782,-0.40455 -1.42444,-1.51708 -1.01988,-2.4849z" data-paper-data="{&quot;origRot&quot;:0}" fill="#d6954b" stroke="none" stroke-width="1" stroke-linecap="butt"/><path d="M177.7938,294.37104c0.40455,-0.96782 1.51708,-1.42444 2.48489,-1.01988c0.96782,0.40455 1.42444,1.51707 1.01989,2.48489c-0.40455,0.96782 -1.51708,1.42445 -2.4849,1.01989c-0.96782,-0.40455 -1.42444,-1.51708 -1.01988,-2.4849z" data-paper-data="{&quot;origRot&quot;:0}" fill="#d6954b" stroke="none" stroke-width="1" stroke-linecap="butt"/><path d="M234.2938,269.37104c0.40455,-0.96782 1.51708,-1.42444 2.48489,-1.01988c0.96782,0.40455 1.42444,1.51707 1.01989,2.48489c-0.40455,0.96782 -1.51708,1.42445 -2.4849,1.01989c-0.96782,-0.40455 -1.42444,-1.51708 -1.01988,-2.4849z" data-paper-data="{&quot;origRot&quot;:0}" fill="#d6954b" stroke="none" stroke-width="1" stroke-linecap="butt"/><path d="M216.2938,299.87104c0.40455,-0.96782 1.51708,-1.42444 2.48489,-1.01988c0.96782,0.40455 1.42444,1.51707 1.01989,2.48489c-0.40455,0.96782 -1.51708,1.42445 -2.4849,1.01989c-0.96782,-0.40455 -1.42444,-1.51708 -1.01988,-2.4849z" data-paper-data="{&quot;origRot&quot;:0}" fill="#d6954b" stroke="none" stroke-width="1" stroke-linecap="butt"/><path d="M360.79381,256.37104c0.40455,-0.96782 1.51707,-1.42444 2.48489,-1.01988c0.96782,0.40455 1.42444,1.51707 1.01989,2.48489c-0.40455,0.96782 -1.51708,1.42445 -2.4849,1.01989c-0.96782,-0.40455 -1.42444,-1.51708 -1.01988,-2.4849z" data-paper-data="{&quot;origRot&quot;:0}" fill="#d6954b" stroke="none" stroke-width="1" stroke-linecap="butt"/><path d="M382.29381,233.87105c0.40455,-0.96782 1.51707,-1.42444 2.48489,-1.01989c0.96782,0.40455 1.42444,1.51708 1.01989,2.4849c-0.40455,0.96782 -1.51708,1.42444 -2.4849,1.01989c-0.96782,-0.40455 -1.42444,-1.51708 -1.01988,-2.4849z" data-paper-data="{&quot;origRot&quot;:0}" fill="#d6954b" stroke="none" stroke-width="1" stroke-linecap="butt"/><path d="M384.79381,257.37104c0.40455,-0.96782 1.51707,-1.42444 2.48489,-1.01988c0.96782,0.40455 1.42444,1.51707 1.01989,2.48489c-0.40455,0.96782 -1.51708,1.42445 -2.4849,1.01989c-0.96782,-0.40455 -1.42444,-1.51708 -1.01988,-2.4849z" data-paper-data="{&quot;origRot&quot;:0}" fill="#d6954b" stroke="none" stroke-width="1" stroke-linecap="butt"/><path d="M228.2938,325.87104c0.40455,-0.96782 1.51708,-1.42444 2.48489,-1.01988c0.96782,0.40455 1.42444,1.51707 1.01989,2.48489c-0.40455,0.96782 -1.51708,1.42445 -2.4849,1.01989c-0.96782,-0.40455 -1.42444,-1.51708 -1.01988,-2.4849z" data-paper-data="{&quot;origRot&quot;:0}" fill="#d6954b" stroke="none" stroke-width="1" stroke-linecap="butt"/><path d="M176.5438,310.62104c0.40455,-0.96782 1.51708,-1.42444 2.48489,-1.01988c0.96782,0.40455 1.42444,1.51707 1.01989,2.48489c-0.40455,0.96782 -1.51708,1.42445 -2.4849,1.01989c-0.96782,-0.40455 -1.42444,-1.51708 -1.01988,-2.4849z" data-paper-data="{&quot;origRot&quot;:0}" fill="#d6954b" stroke="none" stroke-width="1" stroke-linecap="butt"/><path d="M169.0438,322.37104c0.40455,-0.96782 1.51708,-1.42444 2.48489,-1.01988c0.96782,0.40455 1.42444,1.51707 1.01989,2.48489c-0.40455,0.96782 -1.51708,1.42445 -2.4849,1.01989c-0.96782,-0.40455 -1.42444,-1.51708 -1.01988,-2.4849z" data-paper-data="{&quot;origRot&quot;:0}" fill="#d6954b" stroke="none" stroke-width="1" stroke-linecap="butt"/><path d="M278.29378,308.12104c0.40455,-0.96782 1.51708,-1.42444 2.48489,-1.01988c0.96782,0.40455 1.42444,1.51707 1.01989,2.48489c-0.40455,0.96782 -1.51708,1.42445 -2.4849,1.01989c-0.96782,-0.40455 -1.42444,-1.51708 -1.01988,-2.4849z" data-paper-data="{&quot;origRot&quot;:0}" fill="#d6954b" stroke="none" stroke-width="1" stroke-linecap="butt"/><path d="M184.0438,328.87104c0.40455,-0.96782 1.51708,-1.42444 2.48489,-1.01988c0.96782,0.40455 1.42444,1.51707 1.01989,2.48489c-0.40455,0.96782 -1.51708,1.42445 -2.4849,1.01989c-0.96782,-0.40455 -1.42444,-1.51708 -1.01988,-2.4849z" data-paper-data="{&quot;origRot&quot;:0}" fill="#d6954b" stroke="none" stroke-width="1" stroke-linecap="butt"/><path d="M173.0438,340.37106c0.40455,-0.96782 1.51708,-1.42444 2.48489,-1.01988c0.96782,0.40455 1.42444,1.51707 1.01989,2.48489c-0.40455,0.96782 -1.51708,1.42445 -2.4849,1.01989c-0.96782,-0.40455 -1.42444,-1.51708 -1.01988,-2.4849z" data-paper-data="{&quot;origRot&quot;:0}" fill="#d6954b" stroke="none" stroke-width="1" stroke-linecap="butt"/><path d="M195.7938,340.87106c0.40455,-0.96782 1.51708,-1.42444 2.48489,-1.01988c0.96782,0.40455 1.42444,1.51707 1.01989,2.48489c-0.40455,0.96782 -1.51708,1.42445 -2.4849,1.01989c-0.96782,-0.40455 -1.42444,-1.51708 -1.01988,-2.4849z" data-paper-data="{&quot;origRot&quot;:0}" fill="#d6954b" stroke="none" stroke-width="1" stroke-linecap="butt"/><path d="M218.5438,334.12104c0.40455,-0.96782 1.51708,-1.42444 2.48489,-1.01988c0.96782,0.40455 1.42444,1.51707 1.01989,2.48489c-0.40455,0.96782 -1.51708,1.42445 -2.4849,1.01989c-0.96782,-0.40455 -1.42444,-1.51708 -1.01988,-2.4849z" data-paper-data="{&quot;origRot&quot;:0}" fill="#d6954b" stroke="none" stroke-width="1" stroke-linecap="butt"/><path d="" data-paper-data="{&quot;origRot&quot;:0}" fill="#d6954b" stroke="none" stroke-width="1" stroke-linecap="butt"/><path d="" data-paper-data="{&quot;origRot&quot;:0}" fill="#d6954b" stroke="none" stroke-width="1" stroke-linecap="butt"/><path d="M240.5438,338.62106c0.40455,-0.96782 1.51708,-1.42444 2.48489,-1.01988c0.96782,0.40455 1.42444,1.51707 1.01989,2.48489c-0.40455,0.96782 -1.51708,1.42445 -2.4849,1.01989c-0.96782,-0.40455 -1.42444,-1.51708 -1.01988,-2.4849z" data-paper-data="{&quot;origRot&quot;:0}" fill="#d6954b" stroke="none" stroke-width="1" stroke-linecap="butt"/><path d="" data-paper-data="{&quot;origRot&quot;:0}" fill="#d6954b" stroke="none" stroke-width="1" stroke-linecap="butt"/><path d="M267.29378,324.62104c0.40455,-0.96782 1.51708,-1.42444 2.48489,-1.01988c0.96782,0.40455 1.42444,1.51707 1.01989,2.48489c-0.40455,0.96782 -1.51708,1.42445 -2.4849,1.01989c-0.96782,-0.40455 -1.42444,-1.51708 -1.01988,-2.4849z" data-paper-data="{&quot;origRot&quot;:0}" fill="#d6954b" stroke="none" stroke-width="1" stroke-linecap="butt"/><path d="M249.7938,324.62104c0.40455,-0.96782 1.51708,-1.42444 2.48489,-1.01988c0.96782,0.40455 1.42444,1.51707 1.01989,2.48489c-0.40455,0.96782 -1.51708,1.42445 -2.4849,1.01989c-0.96782,-0.40455 -1.42444,-1.51708 -1.01988,-2.4849z" data-paper-data="{&quot;origRot&quot;:0}" fill="#d6954b" stroke="none" stroke-width="1" stroke-linecap="butt"/><path d="M271.29378,340.62106c0.40455,-0.96782 1.51708,-1.42444 2.48489,-1.01988c0.96782,0.40455 1.42444,1.51707 1.01989,2.48489c-0.40455,0.96782 -1.51708,1.42445 -2.4849,1.01989c-0.96782,-0.40455 -1.42444,-1.51708 -1.01988,-2.4849z" data-paper-data="{&quot;origRot&quot;:0}" fill="#d6954b" stroke="none" stroke-width="1" stroke-linecap="butt"/><path d="M286.79378,327.62104c0.40455,-0.96782 1.51708,-1.42444 2.48489,-1.01988c0.96782,0.40455 1.42444,1.51707 1.01989,2.48489c-0.40455,0.96782 -1.51708,1.42445 -2.4849,1.01989c-0.96782,-0.40455 -1.42444,-1.51708 -1.01988,-2.4849z" data-paper-data="{&quot;origRot&quot;:0}" fill="#d6954b" stroke="none" stroke-width="1" stroke-linecap="butt"/><path d="M304.29378,336.62106c0.40455,-0.96782 1.51708,-1.42444 2.48489,-1.01988c0.96782,0.40455 1.42444,1.51707 1.01989,2.48489c-0.40455,0.96782 -1.51708,1.42445 -2.4849,1.01989c-0.96782,-0.40455 -1.42444,-1.51708 -1.01988,-2.4849z" data-paper-data="{&quot;origRot&quot;:0}" fill="#d6954b" stroke="none" stroke-width="1" stroke-linecap="butt"/><path d="M220.82998,179.44316h10.26639l1.93143,2.01316v9.72269l-2.21928,2.06078h-9.65873l-1.71914,-1.80493v-10.17045z" fill="#65341b" stroke="none" stroke-width="1" stroke-linecap="butt"/><path d="M223.09635,184.2582h6.29761v4.13587h-6.29761z" fill="#c36124" stroke="none" stroke-width="0.92671" stroke-linecap="butt"/><path d="M219.08403,184.28559h3.28314v4.0972h-3.28314z" fill="#c36124" stroke="none" stroke-width="0.71585" stroke-linecap="butt"/><path d="M219.62771,179.5692c0.45336,-0.4844 1.61801,-0.41577 1.61801,-0.41577h4.62315v4.4152h-6.81686v-2.4961c0,0 0.04419,-0.93545 0.57569,-1.50333z" fill="#c36124" stroke="none" stroke-width="0.95559" stroke-linecap="butt"/><path d="M230.09763,184.27452h3.28314v4.0972h-3.28314z" fill="#c36124" stroke="none" stroke-width="0.71585" stroke-linecap="butt"/><path d="M233.38478,181.00857v2.4961h-6.75289v-4.4152h4.57978c0,0 1.15372,-0.06863 1.60283,0.41577c0.5265,0.56788 0.57029,1.50332 0.57029,1.50332z" data-paper-data="{&quot;index&quot;:null}" fill="#c36124" stroke="none" stroke-width="0.95559" stroke-linecap="butt"/><path d="M232.78252,193.12806c-0.44911,0.4844 -1.60283,0.41578 -1.60283,0.41578h-4.57978v-4.41521h6.75289v2.4961c0,0 -0.04379,0.93544 -0.57029,1.50332z" data-paper-data="{&quot;index&quot;:null}" fill="#c36124" stroke="none" stroke-width="0.95559" stroke-linecap="butt"/><path d="M219.08403,191.62473v-2.4961h6.75289v4.41521h-4.57978c0,0 -1.15371,0.06863 -1.60283,-0.41578c-0.5265,-0.56788 -0.57029,-1.50332 -0.57029,-1.50332z" data-paper-data="{&quot;index&quot;:null}" fill="#c36124" stroke="none" stroke-width="0.95559" stroke-linecap="butt"/><path d="M205.3769,192.6273c-0.66476,-0.69019 -0.74602,-2.19873 -0.74602,-2.19873v-8.22605c0,0 0.00993,-1.43973 0.77731,-2.25604c0.7321,-0.77879 2.52471,-0.81505 2.52471,-0.81505h7.99259c0,0 1.49791,0.05426 2.20127,0.71051c0.91797,0.85649 0.88812,2.06171 0.88812,2.06171v8.87004c0,0 -0.03678,1.22653 -0.81708,2.03126c-0.77974,0.80415 -2.16575,0.71051 -2.16575,0.71051h-8.46403c0,0 -1.35215,-0.01706 -2.19113,-0.88813z" fill="#ffde38" stroke="none" stroke-width="0" stroke-linecap="butt"/><path d="M205.92247,180.97303c0,-0.34087 0.27633,-0.6172 0.6172,-0.6172c0.34087,0 0.6172,0.27633 0.6172,0.6172c0,0.34087 -0.27633,0.6172 -0.6172,0.6172c-0.34087,0 -0.6172,-0.27633 -0.6172,-0.6172z" fill="#a08408" stroke="none" stroke-width="0" stroke-linecap="butt"/><path d="M205.91794,191.69362c0,-0.34087 0.27633,-0.6172 0.6172,-0.6172c0.34087,0 0.6172,0.27633 0.6172,0.6172c0,0.34087 -0.27633,0.6172 -0.6172,0.6172c-0.34087,0 -0.6172,-0.27633 -0.6172,-0.6172z" fill="#a08408" stroke="none" stroke-width="0" stroke-linecap="butt"/><path d="M216.57683,180.8619c0,-0.34087 0.27633,-0.6172 0.6172,-0.6172c0.34087,0 0.61719,0.27633 0.61719,0.6172c0,0.34087 -0.27632,0.6172 -0.61719,0.6172c-0.34087,0 -0.6172,-0.27633 -0.6172,-0.6172z" fill="#a08408" stroke="none" stroke-width="0" stroke-linecap="butt"/><path d="M216.62082,191.72456c0,-0.34087 0.27633,-0.6172 0.6172,-0.6172c0.34087,0 0.6172,0.27633 0.6172,0.6172c0,0.34087 -0.27633,0.6172 -0.6172,0.6172c-0.34087,0 -0.6172,-0.27633 -0.6172,-0.6172z" fill="#a08408" stroke="none" stroke-width="0" stroke-linecap="butt"/><path d="M212.31336,181.23002c2.57158,0.06395 3.6548,0.99215 3.81943,2.24223c0.15338,1.16466 -0.00245,2.12599 -1.17475,2.64311c-0.96825,0.42712 -1.60133,0.52938 -1.86916,1.34537c-0.26785,0.81598 0.16217,1.33231 -1.37527,1.38452c-1.59541,0.05418 -1.3904,-1.1659 -1.20828,-2.10265c0.14164,-0.7286 0.60129,-1.2903 1.41837,-1.60392c0.48867,-0.18756 0.91638,-0.12195 1.28196,-0.53358c0.21604,-0.24325 0.51749,-0.79195 -1.24214,-0.80585c-1.33,-0.0105 -1.80609,0.34254 -1.80609,0.70582c0,0.80662 -0.71926,1.13985 -1.51042,1.13985c-0.72825,0 -1.17215,-0.42581 -1.23285,-1.14647c-0.09103,-1.08091 0.08916,-3.2684 4.89922,-3.26842z" fill="#ffffff" stroke="#a08408" stroke-width="0.75" stroke-linecap="butt"/><path d="M210.15016,190.2541c0,-0.73032 0.42678,-1.32237 1.5265,-1.32237c1.24637,0 1.5265,0.59204 1.5265,1.32237c0,0.73032 -0.39211,1.30646 -1.5265,1.32237c-1.06548,0.01494 -1.5265,-0.59204 -1.5265,-1.32237z" fill="#ffffff" stroke="#a08408" stroke-width="0.75" stroke-linecap="butt"/><path d="M191.99695,179.44318h10.26639l1.93143,2.01316v9.72269l-2.21928,2.06078h-9.65873l-1.71914,-1.80493v-10.17045z" fill="#65341b" stroke="none" stroke-width="1" stroke-linecap="butt"/><path d="M194.26334,184.25821h6.29761v4.13587h-6.29761z" fill="#c36124" stroke="none" stroke-width="0.92671" stroke-linecap="butt"/><path d="M190.251,184.28559h3.28314v4.0972h-3.28314z" fill="#c36124" stroke="none" stroke-width="0.71585" stroke-linecap="butt"/><path d="M190.79472,179.56921c0.45336,-0.4844 1.61801,-0.41577 1.61801,-0.41577h4.62315v4.4152h-6.81686v-2.4961c0,0 0.04419,-0.93545 0.57569,-1.50333z" fill="#c36124" stroke="none" stroke-width="0.95559" stroke-linecap="butt"/><path d="M201.26464,184.27452h3.28314v4.0972h-3.28314z" fill="#c36124" stroke="none" stroke-width="0.71585" stroke-linecap="butt"/><path d="M204.55179,181.00858v2.4961h-6.75289v-4.4152h4.57978c0,0 1.15372,-0.06863 1.60283,0.41577c0.5265,0.56788 0.57029,1.50332 0.57029,1.50332z" data-paper-data="{&quot;index&quot;:null}" fill="#c36124" stroke="none" stroke-width="0.95559" stroke-linecap="butt"/><path d="M203.94953,193.12808c-0.44911,0.4844 -1.60283,0.41578 -1.60283,0.41578h-4.57978v-4.41521h6.75289v2.4961c0,0 -0.04379,0.93544 -0.57029,1.50332z" data-paper-data="{&quot;index&quot;:null}" fill="#c36124" stroke="none" stroke-width="0.95559" stroke-linecap="butt"/><path d="M190.251,191.62473v-2.4961h6.75289v4.41521h-4.57978c0,0 -1.15371,0.06863 -1.60283,-0.41578c-0.5265,-0.56788 -0.57029,-1.50332 -0.57029,-1.50332z" data-paper-data="{&quot;index&quot;:null}" fill="#c36124" stroke="none" stroke-width="0.95559" stroke-linecap="butt"/><path d="" fill="#a08408" stroke="none" stroke-width="0" stroke-linecap="butt"/><path d="" fill="#a08408" stroke="none" stroke-width="0" stroke-linecap="butt"/><g data-paper-data="{&quot;index&quot;:null}"><path d="" fill="#b85e32" stroke="#763e13" stroke-width="1" stroke-linecap="butt"/><path d="" data-paper-data="{&quot;index&quot;:null}" fill="#d6954b" stroke="none" stroke-width="1" stroke-linecap="butt"/><path d="" data-paper-data="{&quot;index&quot;:null}" fill="#d6954b" stroke="none" stroke-width="1" stroke-linecap="butt"/><path d="" data-paper-data="{&quot;index&quot;:null}" fill="#d6954b" stroke="none" stroke-width="1" stroke-linecap="butt"/><path d="" data-paper-data="{&quot;index&quot;:null}" fill="#d6954b" stroke="none" stroke-width="1" stroke-linecap="butt"/><path d="" data-paper-data="{&quot;index&quot;:null}" fill="#d6954b" stroke="none" stroke-width="1" stroke-linecap="butt"/><path d="" data-paper-data="{&quot;index&quot;:null}" fill="#d6954b" stroke="none" stroke-width="1" stroke-linecap="butt"/><path d="" fill="#67db68" stroke="#39a75c" stroke-width="1.5" stroke-linecap="round"/></g><g stroke-linecap="butt"><path d="M412.17624,276.25014l69.2494,-0.11675l-0.28059,27.16729l-69.24301,0.06128z" data-paper-data="{&quot;origRot&quot;:0}" fill="#b85e32" stroke="#88451b" stroke-width="1.5"/><path d="M462.29382,297.87104c0.40455,-0.96782 1.51708,-1.42444 2.48489,-1.01988c0.96782,0.40455 1.42444,1.51707 1.01989,2.48489c-0.40455,0.96782 -1.51708,1.42445 -2.4849,1.01989c-0.96782,-0.40455 -1.42444,-1.51708 -1.01988,-2.4849z" data-paper-data="{&quot;origRot&quot;:0}" fill="#d6954b" stroke="none" stroke-width="1"/><path d="M453.85101,292.39998c0.40455,-0.96782 1.51708,-1.42444 2.4849,-1.01988c0.96782,0.40455 1.42443,1.51707 1.01988,2.48489c-0.40455,0.96782 -1.51708,1.42444 -2.48489,1.01989c-0.96782,-0.40455 -1.42444,-1.51708 -1.01988,-2.4849z" data-paper-data="{&quot;origRot&quot;:0}" fill="#d6954b" stroke="none" stroke-width="1"/><path d="M415.68127,271.00981c0,0 58.13557,0.16059 62.8065,0.12702c1.55698,-0.01119 2.80235,0.20118 3.49168,1.1092c0.76585,1.0088 1.40413,2.14976 1.41103,3.28978c0.0259,4.27997 0.02729,4.50811 0.0532,8.78807l-3.38434,5.2553l-2.63744,-5.28949l-3.94792,3.09533l-4.29596,-4.12145l-6.09387,5.40008l-6.61858,-4.85019l-3.79705,4.22968l-5.72638,-4.22815l-1.85466,5.3434l-8.53518,-4.06476l-3.02629,4.21937l-3.54068,-5.27126l-5.33342,4.63012l-5.06674,-4.11115l-1.48476,4.19875l-4.68135,-4.1163l-2.63574,4.59404c0,0 0.08883,-9.94421 0.11551,-13.23044c0.00678,-0.83486 0.606,-2.51756 1.74876,-3.52277c1.24116,-1.09177 3.03369,-1.47418 3.03369,-1.47418z" data-paper-data="{&quot;origRot&quot;:0}" fill="#67db68" stroke="#39a75c" stroke-width="1.5"/><path d="M427.43932,291.40972c0.40455,-0.96782 1.51708,-1.42444 2.4849,-1.01988c0.96782,0.40455 1.42444,1.51708 1.01988,2.4849c-0.40455,0.96782 -1.51708,1.42444 -2.4849,1.01989c-0.96782,-0.40455 -1.42444,-1.51708 -1.01988,-2.4849z" data-paper-data="{&quot;origRot&quot;:0}" fill="#d6954b" stroke="none" stroke-width="1"/><path d="M442.79382,296.87104c0.40455,-0.96782 1.51708,-1.42444 2.48489,-1.01988c0.96782,0.40455 1.42444,1.51707 1.01989,2.48489c-0.40455,0.96782 -1.51708,1.42445 -2.4849,1.01989c-0.96782,-0.40455 -1.42444,-1.51708 -1.01988,-2.4849z" data-paper-data="{&quot;origRot&quot;:0}" fill="#d6954b" stroke="none" stroke-width="1"/><path d="M472.79382,291.37104c0.40455,-0.96782 1.51708,-1.42444 2.48489,-1.01988c0.96782,0.40455 1.42444,1.51707 1.01989,2.48489c-0.40455,0.96782 -1.51708,1.42445 -2.4849,1.01989c-0.96782,-0.40455 -1.42444,-1.51708 -1.01988,-2.4849z" data-paper-data="{&quot;origRot&quot;:0}" fill="#d6954b" stroke="none" stroke-width="1"/><path d="M416.68932,295.65972c0.40455,-0.96782 1.51708,-1.42444 2.4849,-1.01988c0.96782,0.40455 1.42444,1.51708 1.01988,2.4849c-0.40455,0.96782 -1.51708,1.42444 -2.4849,1.01989c-0.96782,-0.40455 -1.42444,-1.51708 -1.01988,-2.4849z" data-paper-data="{&quot;origRot&quot;:0}" fill="#d6954b" stroke="none" stroke-width="1"/></g></g></g></svg>