<svg version="1.1" xmlns="http://www.w3.org/2000/svg" xmlns:xlink="http://www.w3.org/1999/xlink" width="815.53149" height="377.98798" viewBox="0,0,815.53149,377.98798"><defs><linearGradient x1="-105.79584" y1="0.00002" x2="-105.79584" y2="50.00002" gradientUnits="userSpaceOnUse" id="color-1"><stop offset="0" stop-color="#946946"/><stop offset="1" stop-color="#8a603e"/></linearGradient><linearGradient x1="10.20418" y1="0.00002" x2="10.20418" y2="50.00002" gradientUnits="userSpaceOnUse" id="color-2"><stop offset="0" stop-color="#946946"/><stop offset="1" stop-color="#8a603e"/></linearGradient><linearGradient x1="126.20418" y1="0.00002" x2="126.20418" y2="50.00002" gradientUnits="userSpaceOnUse" id="color-3"><stop offset="0" stop-color="#946946"/><stop offset="1" stop-color="#8a603e"/></linearGradient><linearGradient x1="-45.7958" y1="56.00002" x2="-45.7958" y2="106.00003" gradientUnits="userSpaceOnUse" id="color-4"><stop offset="0" stop-color="#946946"/><stop offset="1" stop-color="#8a603e"/></linearGradient><linearGradient x1="70.20418" y1="56.00002" x2="70.20418" y2="106.00003" gradientUnits="userSpaceOnUse" id="color-5"><stop offset="0" stop-color="#946946"/><stop offset="1" stop-color="#8a603e"/></linearGradient><linearGradient x1="186.20419" y1="56.00002" x2="186.20419" y2="106.00003" gradientUnits="userSpaceOnUse" id="color-6"><stop offset="0" stop-color="#946946"/><stop offset="1" stop-color="#8a603e"/></linearGradient><linearGradient x1="-106.79584" y1="111.00003" x2="-106.79584" y2="161.00003" gradientUnits="userSpaceOnUse" id="color-7"><stop offset="0" stop-color="#946946"/><stop offset="1" stop-color="#8a603e"/></linearGradient><linearGradient x1="9.20418" y1="111.00003" x2="9.20418" y2="161.00003" gradientUnits="userSpaceOnUse" id="color-8"><stop offset="0" stop-color="#946946"/><stop offset="1" stop-color="#8a603e"/></linearGradient><linearGradient x1="125.20418" y1="111.00003" x2="125.20418" y2="161.00003" gradientUnits="userSpaceOnUse" id="color-9"><stop offset="0" stop-color="#946946"/><stop offset="1" stop-color="#8a603e"/></linearGradient><linearGradient x1="-46.7958" y1="167" x2="-46.7958" y2="217.00001" gradientUnits="userSpaceOnUse" id="color-10"><stop offset="0" stop-color="#946946"/><stop offset="1" stop-color="#8a603e"/></linearGradient><linearGradient x1="69.20418" y1="167" x2="69.20418" y2="217.00001" gradientUnits="userSpaceOnUse" id="color-11"><stop offset="0" stop-color="#946946"/><stop offset="1" stop-color="#8a603e"/></linearGradient><linearGradient x1="185.20419" y1="167" x2="185.20419" y2="217.00001" gradientUnits="userSpaceOnUse" id="color-12"><stop offset="0" stop-color="#946946"/><stop offset="1" stop-color="#8a603e"/></linearGradient><linearGradient x1="-107.79584" y1="222.00004" x2="-107.79584" y2="272.00004" gradientUnits="userSpaceOnUse" id="color-13"><stop offset="0" stop-color="#946946"/><stop offset="1" stop-color="#8a603e"/></linearGradient><linearGradient x1="8.20418" y1="222.00004" x2="8.20418" y2="272.00004" gradientUnits="userSpaceOnUse" id="color-14"><stop offset="0" stop-color="#946946"/><stop offset="1" stop-color="#8a603e"/></linearGradient><linearGradient x1="124.20418" y1="222.00004" x2="124.20418" y2="272.00004" gradientUnits="userSpaceOnUse" id="color-15"><stop offset="0" stop-color="#946946"/><stop offset="1" stop-color="#8a603e"/></linearGradient><linearGradient x1="-47.7958" y1="278.00001" x2="-47.7958" y2="328.00001" gradientUnits="userSpaceOnUse" id="color-16"><stop offset="0" stop-color="#946946"/><stop offset="1" stop-color="#8a603e"/></linearGradient><linearGradient x1="68.20418" y1="278.00001" x2="68.20418" y2="328.00001" gradientUnits="userSpaceOnUse" id="color-17"><stop offset="0" stop-color="#946946"/><stop offset="1" stop-color="#8a603e"/></linearGradient><linearGradient x1="184.20419" y1="278.00001" x2="184.20419" y2="328.00001" gradientUnits="userSpaceOnUse" id="color-18"><stop offset="0" stop-color="#946946"/><stop offset="1" stop-color="#8a603e"/></linearGradient><linearGradient x1="-107.79584" y1="333.00001" x2="-107.79584" y2="370.98801" gradientUnits="userSpaceOnUse" id="color-19"><stop offset="0" stop-color="#946946"/><stop offset="1" stop-color="#8a603e"/></linearGradient><linearGradient x1="8.20418" y1="333.00001" x2="8.20418" y2="370.98801" gradientUnits="userSpaceOnUse" id="color-20"><stop offset="0" stop-color="#946946"/><stop offset="1" stop-color="#8a603e"/></linearGradient><linearGradient x1="124.20418" y1="333.00001" x2="124.20418" y2="370.98801" gradientUnits="userSpaceOnUse" id="color-21"><stop offset="0" stop-color="#946946"/><stop offset="1" stop-color="#8a603e"/></linearGradient><linearGradient x1="242.73564" y1="0.00002" x2="242.73564" y2="50.00002" gradientUnits="userSpaceOnUse" id="color-22"><stop offset="0" stop-color="#946946"/><stop offset="1" stop-color="#8a603e"/></linearGradient><linearGradient x1="358.73567" y1="0.00002" x2="358.73567" y2="50.00002" gradientUnits="userSpaceOnUse" id="color-23"><stop offset="0" stop-color="#946946"/><stop offset="1" stop-color="#8a603e"/></linearGradient><linearGradient x1="474.73568" y1="0.00002" x2="474.73568" y2="50.00002" gradientUnits="userSpaceOnUse" id="color-24"><stop offset="0" stop-color="#946946"/><stop offset="1" stop-color="#8a603e"/></linearGradient><linearGradient x1="590.73565" y1="0.00002" x2="590.73565" y2="50.00002" gradientUnits="userSpaceOnUse" id="color-25"><stop offset="0" stop-color="#946946"/><stop offset="1" stop-color="#8a603e"/></linearGradient><linearGradient x1="302.73564" y1="56.00002" x2="302.73564" y2="106.00003" gradientUnits="userSpaceOnUse" id="color-26"><stop offset="0" stop-color="#946946"/><stop offset="1" stop-color="#8a603e"/></linearGradient><linearGradient x1="418.73568" y1="56.00002" x2="418.73568" y2="106.00003" gradientUnits="userSpaceOnUse" id="color-27"><stop offset="0" stop-color="#946946"/><stop offset="1" stop-color="#8a603e"/></linearGradient><linearGradient x1="534.73567" y1="56.00002" x2="534.73567" y2="106.00003" gradientUnits="userSpaceOnUse" id="color-28"><stop offset="0" stop-color="#946946"/><stop offset="1" stop-color="#8a603e"/></linearGradient><linearGradient x1="241.73564" y1="111.00003" x2="241.73564" y2="161.00003" gradientUnits="userSpaceOnUse" id="color-29"><stop offset="0" stop-color="#946946"/><stop offset="1" stop-color="#8a603e"/></linearGradient><linearGradient x1="357.73567" y1="111.00003" x2="357.73567" y2="161.00003" gradientUnits="userSpaceOnUse" id="color-30"><stop offset="0" stop-color="#946946"/><stop offset="1" stop-color="#8a603e"/></linearGradient><linearGradient x1="473.73568" y1="111.00003" x2="473.73568" y2="161.00003" gradientUnits="userSpaceOnUse" id="color-31"><stop offset="0" stop-color="#946946"/><stop offset="1" stop-color="#8a603e"/></linearGradient><linearGradient x1="589.73565" y1="111.00003" x2="589.73565" y2="161.00003" gradientUnits="userSpaceOnUse" id="color-32"><stop offset="0" stop-color="#946946"/><stop offset="1" stop-color="#8a603e"/></linearGradient><linearGradient x1="301.73564" y1="167" x2="301.73564" y2="217.00001" gradientUnits="userSpaceOnUse" id="color-33"><stop offset="0" stop-color="#946946"/><stop offset="1" stop-color="#8a603e"/></linearGradient><linearGradient x1="417.73568" y1="167" x2="417.73568" y2="217.00001" gradientUnits="userSpaceOnUse" id="color-34"><stop offset="0" stop-color="#946946"/><stop offset="1" stop-color="#8a603e"/></linearGradient><linearGradient x1="533.73567" y1="167" x2="533.73567" y2="217.00001" gradientUnits="userSpaceOnUse" id="color-35"><stop offset="0" stop-color="#946946"/><stop offset="1" stop-color="#8a603e"/></linearGradient><linearGradient x1="240.73564" y1="222.00004" x2="240.73564" y2="272.00004" gradientUnits="userSpaceOnUse" id="color-36"><stop offset="0" stop-color="#946946"/><stop offset="1" stop-color="#8a603e"/></linearGradient><linearGradient x1="356.73567" y1="222.00004" x2="356.73567" y2="272.00004" gradientUnits="userSpaceOnUse" id="color-37"><stop offset="0" stop-color="#946946"/><stop offset="1" stop-color="#8a603e"/></linearGradient><linearGradient x1="472.73568" y1="222.00004" x2="472.73568" y2="272.00004" gradientUnits="userSpaceOnUse" id="color-38"><stop offset="0" stop-color="#946946"/><stop offset="1" stop-color="#8a603e"/></linearGradient><linearGradient x1="588.73565" y1="222.00004" x2="588.73565" y2="272.00004" gradientUnits="userSpaceOnUse" id="color-39"><stop offset="0" stop-color="#946946"/><stop offset="1" stop-color="#8a603e"/></linearGradient><linearGradient x1="300.73564" y1="278.00001" x2="300.73564" y2="328.00001" gradientUnits="userSpaceOnUse" id="color-40"><stop offset="0" stop-color="#946946"/><stop offset="1" stop-color="#8a603e"/></linearGradient><linearGradient x1="416.73568" y1="278.00001" x2="416.73568" y2="328.00001" gradientUnits="userSpaceOnUse" id="color-41"><stop offset="0" stop-color="#946946"/><stop offset="1" stop-color="#8a603e"/></linearGradient><linearGradient x1="532.73567" y1="278.00001" x2="532.73567" y2="328.00001" gradientUnits="userSpaceOnUse" id="color-42"><stop offset="0" stop-color="#946946"/><stop offset="1" stop-color="#8a603e"/></linearGradient><linearGradient x1="240.73564" y1="333.00001" x2="240.73564" y2="370.98801" gradientUnits="userSpaceOnUse" id="color-43"><stop offset="0" stop-color="#946946"/><stop offset="1" stop-color="#8a603e"/></linearGradient><linearGradient x1="356.73567" y1="333.00001" x2="356.73567" y2="370.98801" gradientUnits="userSpaceOnUse" id="color-44"><stop offset="0" stop-color="#946946"/><stop offset="1" stop-color="#8a603e"/></linearGradient><linearGradient x1="472.73568" y1="333.00001" x2="472.73568" y2="370.98801" gradientUnits="userSpaceOnUse" id="color-45"><stop offset="0" stop-color="#946946"/><stop offset="1" stop-color="#8a603e"/></linearGradient><linearGradient x1="588.73565" y1="333.00001" x2="588.73565" y2="370.98801" gradientUnits="userSpaceOnUse" id="color-46"><stop offset="0" stop-color="#946946"/><stop offset="1" stop-color="#8a603e"/></linearGradient></defs><g transform="translate(166.29584,3.49998)"><g data-paper-data="{&quot;isPaintingLayer&quot;:true}" fill-rule="nonzero" stroke-linecap="butt" stroke-linejoin="miter" stroke-miterlimit="10" stroke-dasharray="" stroke-dashoffset="0" style="mix-blend-mode: normal"><g stroke="#784b32" stroke-width="7"><g><path d="M-160.79584,0.00002h110v50h-110z" fill="url(#color-1)"/><path d="M-44.79582,0.00002h110v50h-110z" fill="url(#color-2)"/><path d="M71.20418,0.00002h110v50h-110z" fill="url(#color-3)"/></g><g><path d="M-100.7958,56.00002h110v50h-110z" fill="url(#color-4)"/><path d="M15.20418,56.00002h110v50h-110z" fill="url(#color-5)"/><path d="M131.20419,56.00002h110v50h-110z" fill="url(#color-6)"/></g></g><g stroke="#784b32" stroke-width="7"><g><path d="M-161.79584,111.00003h110v50h-110z" fill="url(#color-7)"/><path d="M-45.79582,111.00003h110v50h-110z" fill="url(#color-8)"/><path d="M70.20418,111.00003h110v50h-110z" fill="url(#color-9)"/></g><g><path d="M-101.7958,167h110v50h-110z" fill="url(#color-10)"/><path d="M14.20418,167h110v50h-110z" fill="url(#color-11)"/><path d="M130.20419,167h110v50h-110z" fill="url(#color-12)"/></g></g><g stroke="#784b32" stroke-width="7"><g><path d="M-162.79584,222.00004h110v50h-110z" fill="url(#color-13)"/><path d="M-46.79582,222.00004h110v50h-110z" fill="url(#color-14)"/><path d="M69.20418,222.00004h110v50h-110z" fill="url(#color-15)"/></g><g><path d="M-102.7958,278.00001h110v50h-110z" fill="url(#color-16)"/><path d="M13.20418,278.00001h110v50h-110z" fill="url(#color-17)"/><path d="M129.20419,278.00001h110v50h-110z" fill="url(#color-18)"/></g></g><g><g stroke="#784b32" stroke-width="7"><path d="M-162.79584,333.00001h110v37.98799h-110z" fill="url(#color-19)"/><path d="M-46.79582,333.00001h110v37.98799h-110z" fill="url(#color-20)"/><path d="M69.20418,333.00001h110v37.98799h-110z" fill="url(#color-21)"/></g><g fill="none" stroke="none" stroke-width="1" font-family="sans-serif" font-weight="normal" font-size="12" text-anchor="start"/></g><g stroke="#784b32" stroke-width="7"><g><path d="M187.73564,0.00002h110v50h-110z" fill="url(#color-22)"/><path d="M303.73567,0.00002h110v50h-110z" fill="url(#color-23)"/><path d="M419.73568,0.00002h110v50h-110z" fill="url(#color-24)"/><path d="M535.73565,0.00002h110v50h-110z" fill="url(#color-25)"/></g><g><path d="M247.73564,56.00002h110v50h-110z" fill="url(#color-26)"/><path d="M363.73568,56.00002h110v50h-110z" fill="url(#color-27)"/><path d="M479.73567,56.00002h110v50h-110z" fill="url(#color-28)"/></g></g><g stroke="#784b32" stroke-width="7"><g><path d="M186.73564,111.00003h110v50h-110z" fill="url(#color-29)"/><path d="M302.73567,111.00003h110v50h-110z" fill="url(#color-30)"/><path d="M418.73568,111.00003h110v50h-110z" fill="url(#color-31)"/><path d="M534.73565,111.00003h110v50h-110z" fill="url(#color-32)"/></g><g><path d="M246.73564,167h110v50h-110z" fill="url(#color-33)"/><path d="M362.73568,167h110v50h-110z" fill="url(#color-34)"/><path d="M478.73567,167h110v50h-110z" fill="url(#color-35)"/></g></g><g stroke="#784b32" stroke-width="7"><g><path d="M185.73564,222.00004h110v50h-110z" fill="url(#color-36)"/><path d="M301.73567,222.00004h110v50h-110z" fill="url(#color-37)"/><path d="M417.73568,222.00004h110v50h-110z" fill="url(#color-38)"/><path d="M533.73565,222.00004h110v50h-110z" fill="url(#color-39)"/></g><g><path d="M245.73564,278.00001h110v50h-110z" fill="url(#color-40)"/><path d="M361.73568,278.00001h110v50h-110z" fill="url(#color-41)"/><path d="M477.73567,278.00001h110v50h-110z" fill="url(#color-42)"/></g></g><g><g stroke="#784b32" stroke-width="7"><path d="M185.73564,333.00001h110v37.98799h-110z" fill="url(#color-43)"/><path d="M301.73567,333.00001h110v37.98799h-110z" fill="url(#color-44)"/><path d="M417.73568,333.00001h110v37.98799h-110z" fill="url(#color-45)"/><path d="M533.73565,333.00001h110v37.98799h-110z" fill="url(#color-46)"/></g><g fill="none" stroke="none" stroke-width="1" font-family="sans-serif" font-weight="normal" font-size="12" text-anchor="start"/></g></g></g></svg>