<svg version="1.1" xmlns="http://www.w3.org/2000/svg" xmlns:xlink="http://www.w3.org/1999/xlink" width="98.81875" height="31.4951" viewBox="0,0,98.81875,31.4951"><defs><linearGradient x1="276.5318" y1="166.76325" x2="276.5318" y2="193.05723" gradientUnits="userSpaceOnUse" id="color-1"><stop offset="0" stop-color="#e6a902"/><stop offset="1" stop-color="#c78602"/></linearGradient><linearGradient x1="273.60218" y1="166.65267" x2="273.60218" y2="192.94665" gradientUnits="userSpaceOnUse" id="color-2"><stop offset="0" stop-color="#fff300"/><stop offset="1" stop-color="#ffbb00"/></linearGradient><linearGradient x1="273.63952" y1="169.55031" x2="273.63952" y2="189.43935" gradientUnits="userSpaceOnUse" id="color-3"><stop offset="0" stop-color="#e6a902"/><stop offset="1" stop-color="#c78602"/></linearGradient></defs><g transform="translate(-191.06539,-164.14845)"><g data-paper-data="{&quot;isPaintingLayer&quot;:true}" fill-rule="nonzero" stroke-linecap="butt" stroke-linejoin="miter" stroke-miterlimit="10" stroke-dasharray="" stroke-dashoffset="0" style="mix-blend-mode: normal"><g fill="none" stroke="#ffffff" stroke-width="5"><path d="M276.5318,166.76325c2.99417,0 5.70703,1.47343 7.67158,3.85339c1.96454,2.37985 3.18076,5.66632 3.18076,9.2936c0,3.62716 -1.21622,6.91375 -3.18076,9.2936c-1.96454,2.37996 -4.67741,3.85339 -7.67158,3.85339c-2.99417,0 -5.70703,-1.47343 -7.67158,-3.85339c-1.96454,-2.37985 -3.18076,-5.66643 -3.18076,-9.2936c0,-3.62727 1.21622,-6.91375 3.18076,-9.2936c1.96454,-2.37996 4.67741,-3.85339 7.67158,-3.85339z" data-paper-data="{&quot;origPos&quot;:null}"/><path d="M273.60218,166.65267c2.99417,0 5.70703,1.47343 7.67158,3.85339c1.96454,2.37985 3.18076,5.66632 3.18076,9.2936c0,3.62716 -1.21622,6.91375 -3.18076,9.2936c-1.96454,2.37996 -4.67741,3.85339 -7.67158,3.85339c-2.99417,0 -5.70703,-1.47343 -7.67158,-3.85339c-1.96454,-2.37985 -3.18076,-5.66643 -3.18076,-9.2936c0,-3.62727 1.21622,-6.91375 3.18076,-9.2936c1.96454,-2.37996 4.67741,-3.85339 7.67158,-3.85339z" data-paper-data="{&quot;origPos&quot;:null}"/></g><g stroke="none"><path d="M276.5318,166.76325c2.99417,0 5.70703,1.47343 7.67158,3.85339c1.96454,2.37985 3.18076,5.66632 3.18076,9.2936c0,3.62716 -1.21622,6.91375 -3.18076,9.2936c-1.96454,2.37996 -4.67741,3.85339 -7.67158,3.85339c-2.99417,0 -5.70703,-1.47343 -7.67158,-3.85339c-1.96454,-2.37985 -3.18076,-5.66643 -3.18076,-9.2936c0,-3.62727 1.21622,-6.91375 3.18076,-9.2936c1.96454,-2.37996 4.67741,-3.85339 7.67158,-3.85339z" data-paper-data="{&quot;origPos&quot;:null}" fill="url(#color-1)" stroke-width="0.44036"/><path d="M273.60218,166.65267c2.99417,0 5.70703,1.47343 7.67158,3.85339c1.96454,2.37985 3.18076,5.66632 3.18076,9.2936c0,3.62716 -1.21622,6.91375 -3.18076,9.2936c-1.96454,2.37996 -4.67741,3.85339 -7.67158,3.85339c-2.99417,0 -5.70703,-1.47343 -7.67158,-3.85339c-1.96454,-2.37985 -3.18076,-5.66643 -3.18076,-9.2936c0,-3.62727 1.21622,-6.91375 3.18076,-9.2936c1.96454,-2.37996 4.67741,-3.85339 7.67158,-3.85339z" data-paper-data="{&quot;origPos&quot;:null}" fill="url(#color-2)" stroke-width="0.44036"/><path d="M271.75833,169.55031h3.76238v19.88904h-3.76238z" data-paper-data="{&quot;origPos&quot;:null}" fill="url(#color-3)" stroke-width="0.59798"/></g><path d="M243.61025,166.87006l8.97607,2.66951l4.25487,8.03178l-4.25487,13.47183l-9.09648,1.95066l-7.79089,-4.62017l-0.84319,-15.92371zM245.17623,173.79444l-3.75753,3.89739l0.48184,7.41009l2.43249,1.6864l3.03088,-0.96367l2.30808,-7.89187l-1.56592,-2.8133z" fill="#f41a51" stroke="#ffffff" stroke-width="5"/><path d="M209.26944,185.35348l-14.5941,0.54597l-0.94494,-6.08962l0.12598,-0.12597l10.81434,-0.14689h2.30986l2.70883,-0.12597l-0.41997,5.94247z" fill="#de315c" stroke="#ffffff" stroke-width="5"/><path d="M232.05305,176.34501l-3.35979,3.2758l3.35979,5.1236l-4.03175,7.30755h-10.07938l-5.71165,-5.79564l5.79564,-4.78771l3.52778,5.54367h0.08399l2.77183,-2.43585l-3.1918,-3.77978l2.93982,-4.03175l-2.09987,-3.10779l-3.94776,5.20767l-6.5516,-4.36772l6.88758,-7.39155l9.82741,1.76398z" fill="#de315c" stroke="#ffffff" stroke-width="5"/><g fill="#f41a51" stroke-width="0"><path d="M209.68942,184.28255v0.67197l-0.41997,0.39898l-14.5941,0.54597l-0.94494,-6.08962l0.12598,-0.12597l10.81434,-0.14689h2.30986l2.70883,-0.12597l0.00001,4.87153z" stroke="#000000"/><path d="M218.44588,167.10558l9.8274,1.76389l3.77977,7.47553l-3.35979,3.2758l3.35979,5.03969v0.08391l-4.03175,7.30755h-10.07938l-5.71165,-5.79564l5.79564,-4.78771l3.52778,5.54367h0.08399l2.77183,-2.43585l-3.1918,-3.77978l2.93982,-4.03175l-2.09987,-3.10779l-3.94776,5.20767l-6.5516,-4.36772l6.88758,-7.39155z" stroke="#000000"/><path d="M243.61026,166.87006l8.97607,2.66951l4.25487,8.03178l-4.25487,13.47183l-9.09648,1.95065l-7.7909,-4.62017l-0.84319,-15.92371zM245.17623,173.79444l-3.75752,3.89739l0.48183,7.41009l2.4325,1.6864l3.03087,-0.96367l2.30809,-7.89187l-1.56593,-2.8133z" stroke="none"/></g></g></g></svg>