<svg version="1.1" xmlns="http://www.w3.org/2000/svg" xmlns:xlink="http://www.w3.org/1999/xlink" width="447.62739" height="283.90774" viewBox="0,0,447.62739,283.90774"><defs><linearGradient x1="299.48294" y1="207.80566" x2="299.48294" y2="215.71889" gradientUnits="userSpaceOnUse" id="color-1"><stop offset="0" stop-color="#297b40"/><stop offset="1" stop-color="#297b40" stop-opacity="0"/></linearGradient><linearGradient x1="239.81627" y1="109.47233" x2="239.81627" y2="117.38557" gradientUnits="userSpaceOnUse" id="color-2"><stop offset="0" stop-color="#297b40"/><stop offset="1" stop-color="#297b40" stop-opacity="0"/></linearGradient><linearGradient x1="221.66056" y1="235.3949" x2="221.90666" y2="277.64581" gradientUnits="userSpaceOnUse" id="color-3"><stop offset="0" stop-color="#c3e060"/><stop offset="1" stop-color="#6de01b"/></linearGradient><linearGradient x1="242.33362" y1="292.99825" x2="242.76023" y2="348.99677" gradientUnits="userSpaceOnUse" id="color-4"><stop offset="0" stop-color="#c3e060"/><stop offset="1" stop-color="#6de01b"/></linearGradient><linearGradient x1="413.48295" y1="252.80566" x2="413.48295" y2="260.71889" gradientUnits="userSpaceOnUse" id="color-5"><stop offset="0" stop-color="#297b40"/><stop offset="1" stop-color="#297b40" stop-opacity="0"/></linearGradient></defs><g transform="translate(4.06702,-91.69621)"><g data-paper-data="{&quot;isPaintingLayer&quot;:true}" fill-rule="nonzero" stroke-linecap="butt" stroke-linejoin="miter" stroke-miterlimit="10" stroke-dasharray="" stroke-dashoffset="0" style="mix-blend-mode: normal"><path d="M221.00006,207.50005c0,-2.76142 2.23858,-5 5,-5c2.76142,0 5,2.23858 5,5c0,2.76142 -2.23858,5 -5,5c-2.76142,0 -5,-2.23858 -5,-5z" fill="#e0bb60" stroke="none" stroke-width="0.5"/><path d="M238.50006,176.50005c0,-2.76142 2.23858,-5 5,-5c2.76142,0 5,2.23858 5,5c0,2.76142 -2.23858,5 -5,5c-2.76142,0 -5,-2.23858 -5,-5z" fill="#e0bb60" stroke="none" stroke-width="0.5"/><g stroke="none"><path d="M272.2904,190.02955c5.82435,0 45.71797,0 54.852,0c1.17227,0 2.41797,1.20688 2.41797,2.11348c0,2.06017 0,10.03251 0,13.713c0,1.12155 -1.30665,1.97831 -2.41797,1.97831c-5.16027,0 -44.04392,0 -54.852,0c-1.76363,0 -2.33734,-0.45771 -2.33734,-1.83085c0,-3.74147 0,-11.58497 0,-13.713c0,-1.15054 0.96668,-2.26093 2.33734,-2.26093z" fill="#5cb745" stroke-width="1.07722"/><path d="M275.26639,190.02955h6.23911v17.80478h-6.23911z" fill="#71ff5e" stroke-width="1.18415"/><path d="M274.43449,206.80217h49.91346v162.80178h-49.91346z" fill="#5cb745" stroke-width="1.18415"/><path d="M279.61068,212.14517h6.58581v157.45875h-6.58581z" fill="#71ff5e" stroke-width="1.18415"/><path d="M274.45303,215.71889v-7.91323h50.05983v7.91323z" fill="url(#color-1)" stroke-width="0"/></g><g stroke="none"><path d="M212.62373,91.69622c5.82435,0 45.71797,0 54.852,0c1.17227,0 2.41797,1.20688 2.41797,2.11348c0,2.06017 0,10.03251 0,13.713c0,1.12155 -1.30665,1.97831 -2.41797,1.97831c-5.16027,0 -44.04392,0 -54.852,0c-1.76363,0 -2.33734,-0.45771 -2.33734,-1.83085c0,-3.74147 0,-11.58497 0,-13.713c0,-1.15054 0.96668,-2.26093 2.33734,-2.26093z" fill="#5cb745" stroke-width="1.07722"/><path d="M215.59972,91.69622h6.23911v17.80478h-6.23911z" fill="#71ff5e" stroke-width="1.18415"/><path d="M214.76782,108.46885h49.91346v257.80178h-49.91346z" fill="#5cb745" stroke-width="1.18415"/><path d="M219.94401,113.81183h6.58581v252.45874h-6.58581z" fill="#71ff5e" stroke-width="1.18415"/><path d="M214.78636,117.38557v-7.91323h50.05983v7.91323z" fill="url(#color-2)" stroke-width="0"/></g><path d="M85.30338,249.69696h76.40987v51.30308h-76.40987z" data-paper-data="{&quot;origPos&quot;:null}" fill="#c06520" stroke="#663b00" stroke-width="2"/><path d="M82.26863,238.99464c0.68815,-1.23931 2.80667,-2.2683 4.90176,-2.27138c29.137,-0.04271 64.84094,-0.09693 73.37671,-0.10944c2.84526,-0.00417 5.02473,1.39332 5.54076,2.25282c0.67382,1.1223 1.74984,3.44127 1.74984,7.09262c0,6.33076 0,9.89102 0,16.22178c0,0.67835 -0.34883,6.48697 -0.34659,7.16468l-10.56716,-9.77805l-7.11906,10.14975l-7.67266,-7.56767l-5.85205,10.47083l-10.41309,-12.01263l-11.48454,11.75883l-9.38763,-11.51231l-9.12617,10.72744l-7.14981,-9.73205l-8.58979,9.59298c0,0 0.17437,-15.53416 0.28597,-25.4768c0.04045,-3.60404 1.27566,-5.93075 1.8535,-6.9714z" data-paper-data="{&quot;origPos&quot;:null,&quot;origRot&quot;:0}" fill="url(#color-3)" stroke="#0f6600" stroke-width="2"/><path d="M-0.87767,314.00003l328.40871,0.05631c-0.04188,16.64908 -0.03849,33.2984 0.10438,49.94369h-328.51309z" data-paper-data="{&quot;origPos&quot;:null}" fill="#c06520" stroke="#763e13" stroke-width="2"/><path d="M-2.3362,294.7693c0,0 306.18099,-0.34316 323.2316,-0.36226c5.68353,-0.00637 10.95324,8.06402 10.93814,12.59581c-0.04227,12.67995 -0.06196,19.81091 -0.04243,32.49092l-13.76663,-10.04229l-14.30122,8.10373l-9.309,-9.93289l-12.18855,14.08866l-13.4048,-8.88837l-8.1156,12.04423l-14.44592,-10.88089l-14.30888,9.09634l-6.2695,-13.96245l-11.22362,8.08146l-11.36835,-10.91802l-16.30726,14.11843l-17.53881,-12.87341l-10.17489,11.07396l-13.41246,-9.90319l-14.28599,10.10368l-6.25426,-12.95508l-14.27836,11.10365l-17.51595,-9.87349l-5.02271,14.03674l-22.65291,-10.83633l-8.12316,11.0591l-9.33945,-13.93279l-14.27076,12.10363l-13.4201,-10.90317l-4.01968,11.0294l-12.39423,-10.91059l-7.08967,12.05165z" data-paper-data="{&quot;origPos&quot;:null,&quot;origRot&quot;:0}" fill="url(#color-4)" stroke="#0f6600" stroke-width="2"/><path d="M25.00004,354.00006c0,-2.76142 2.23858,-5 5,-5c2.76142,0 5,2.23858 5,5c0,2.76142 -2.23858,5 -5,5c-2.76142,0 -5,-2.23858 -5,-5z" data-paper-data="{&quot;origPos&quot;:null}" fill="#e0bb60" stroke="none" stroke-width="0.5"/><path d="M82.00006,346.00006c0,-2.76142 2.23858,-5 5,-5c2.76142,0 5,2.23858 5,5c0,2.76142 -2.23858,5 -5,5c-2.76142,0 -5,-2.23858 -5,-5z" fill="#e0bb60" stroke="none" stroke-width="0.5"/><path d="M154.00006,345.00006c0,-2.76142 2.23858,-5 5,-5c2.76142,0 5,2.23858 5,5c0,2.76142 -2.23858,5 -5,5c-2.76142,0 -5,-2.23858 -5,-5z" fill="#e0bb60" stroke="none" stroke-width="0.5"/><path d="" data-paper-data="{&quot;origPos&quot;:null}" fill="#e0bb60" stroke="none" stroke-width="0.5"/><path d="M100.50006,279.50005c0,-2.76142 2.23858,-5 5,-5c2.76142,0 5,2.23858 5,5c0,2.76142 -2.23858,5 -5,5c-2.76142,0 -5,-2.23858 -5,-5z" fill="#e0bb60" stroke="none" stroke-width="0.5"/><path d="M132.50006,285.00005c0,-2.76142 2.23858,-5 5,-5c2.76142,0 5,2.23858 5,5c0,2.76142 -2.23858,5 -5,5c-2.76142,0 -5,-2.23858 -5,-5z" fill="#e0bb60" stroke="none" stroke-width="0.5"/><path d="M211.00006,352.00006c0,-2.76142 2.23858,-5 5,-5c2.76142,0 5,2.23858 5,5c0,2.76142 -2.23858,5 -5,5c-2.76142,0 -5,-2.23858 -5,-5z" fill="#e0bb60" stroke="none" stroke-width="0.5"/><path d="M269.50006,347.00006c0,-2.76142 2.23858,-5 5,-5c2.76142,0 5,2.23858 5,5c0,2.76142 -2.23858,5 -5,5c-2.76142,0 -5,-2.23858 -5,-5z" fill="#e0bb60" stroke="none" stroke-width="0.5"/><g stroke="none"><path d="M386.29041,235.02955c5.82435,0 45.71797,0 54.852,0c1.17227,0 2.41797,1.20688 2.41797,2.11348c0,2.06017 0,10.03251 0,13.713c0,1.12155 -1.30665,1.97831 -2.41797,1.97831c-5.16027,0 -44.04392,0 -54.852,0c-1.76363,0 -2.33734,-0.45771 -2.33734,-1.83085c0,-3.74147 0,-11.58497 0,-13.713c0,-1.15054 0.96668,-2.26093 2.33734,-2.26093z" fill="#5cb745" stroke-width="1.07722"/><path d="M389.2664,235.02955h6.23911v17.80478h-6.23911z" fill="#71ff5e" stroke-width="1.18415"/><path d="M388.4345,251.80218h49.91346v123.80178h-49.91346z" fill="#5cb745" stroke-width="1.18415"/><path d="M393.61069,257.14517h6.58581v118.45875h-6.58581z" fill="#71ff5e" stroke-width="1.18415"/><path d="M388.45304,260.71889v-7.91323h50.05983v7.91323z" fill="url(#color-5)" stroke-width="0"/></g></g></g></svg>