<svg version="1.1" xmlns="http://www.w3.org/2000/svg" xmlns:xlink="http://www.w3.org/1999/xlink" width="608.00718" height="450.04707" viewBox="0,0,608.00718,450.04707"><defs><linearGradient x1="244.51565" y1="-13.49998" x2="244.51565" y2="9.50002" gradientUnits="userSpaceOnUse" id="color-1"><stop offset="0" stop-color="#af9141"/><stop offset="1" stop-color="#ddb747"/></linearGradient><linearGradient x1="-4.69464" y1="274.7897" x2="-4.69464" y2="242.87593" gradientUnits="userSpaceOnUse" id="color-2"><stop offset="0" stop-color="#af9141"/><stop offset="1" stop-color="#ddb747"/></linearGradient><linearGradient x1="406.6387" y1="152.78968" x2="406.6387" y2="66.87592" gradientUnits="userSpaceOnUse" id="color-3"><stop offset="0" stop-color="#af9141"/><stop offset="1" stop-color="#ddb747"/></linearGradient><linearGradient x1="218.30538" y1="273.45636" x2="218.30538" y2="236.54259" gradientUnits="userSpaceOnUse" id="color-4"><stop offset="0" stop-color="#af9141"/><stop offset="1" stop-color="#ddb747"/></linearGradient><linearGradient x1="343.6387" y1="274.12301" x2="343.6387" y2="242.20925" gradientUnits="userSpaceOnUse" id="color-5"><stop offset="0" stop-color="#af9141"/><stop offset="1" stop-color="#ddb747"/></linearGradient><linearGradient x1="249.30537" y1="171.45635" x2="249.30537" y2="134.54258" gradientUnits="userSpaceOnUse" id="color-6"><stop offset="0" stop-color="#af9141"/><stop offset="1" stop-color="#ddb747"/></linearGradient><linearGradient x1="164.30534" y1="166.45635" x2="164.30534" y2="134.54258" gradientUnits="userSpaceOnUse" id="color-7"><stop offset="0" stop-color="#af9141"/><stop offset="1" stop-color="#ddb747"/></linearGradient><linearGradient x1="-2.69463" y1="377.45751" x2="-2.69463" y2="336.54263" gradientUnits="userSpaceOnUse" id="color-8"><stop offset="0" stop-color="#af9141"/><stop offset="1" stop-color="#ddb747"/></linearGradient><linearGradient x1="117.30537" y1="377.45751" x2="117.30537" y2="336.54263" gradientUnits="userSpaceOnUse" id="color-9"><stop offset="0" stop-color="#af9141"/><stop offset="1" stop-color="#ddb747"/></linearGradient><linearGradient x1="239.30537" y1="377.45751" x2="239.30537" y2="336.54263" gradientUnits="userSpaceOnUse" id="color-10"><stop offset="0" stop-color="#af9141"/><stop offset="1" stop-color="#ddb747"/></linearGradient><linearGradient x1="355.30537" y1="377.45751" x2="355.30537" y2="336.54263" gradientUnits="userSpaceOnUse" id="color-11"><stop offset="0" stop-color="#af9141"/><stop offset="1" stop-color="#ddb747"/></linearGradient><linearGradient x1="-109.69463" y1="337.45751" x2="-109.69463" y2="296.54259" gradientUnits="userSpaceOnUse" id="color-12"><stop offset="0" stop-color="#af9141"/><stop offset="1" stop-color="#ddb747"/></linearGradient><linearGradient x1="-109.69914" y1="295.91094" x2="-109.69914" y2="254.99603" gradientUnits="userSpaceOnUse" id="color-13"><stop offset="0" stop-color="#af9141"/><stop offset="1" stop-color="#ddb747"/></linearGradient><linearGradient x1="-109.70064" y1="256.8719" x2="-109.70064" y2="215.95699" gradientUnits="userSpaceOnUse" id="color-14"><stop offset="0" stop-color="#af9141"/><stop offset="1" stop-color="#ddb747"/></linearGradient><linearGradient x1="-109.70515" y1="215.32534" x2="-109.70515" y2="174.41045" gradientUnits="userSpaceOnUse" id="color-15"><stop offset="0" stop-color="#af9141"/><stop offset="1" stop-color="#ddb747"/></linearGradient><linearGradient x1="-109.70514" y1="173.32534" x2="-109.70514" y2="132.41045" gradientUnits="userSpaceOnUse" id="color-16"><stop offset="0" stop-color="#af9141"/><stop offset="1" stop-color="#ddb747"/></linearGradient><linearGradient x1="-109.69463" y1="134.45746" x2="-109.69463" y2="93.54259" gradientUnits="userSpaceOnUse" id="color-17"><stop offset="0" stop-color="#af9141"/><stop offset="1" stop-color="#ddb747"/></linearGradient><linearGradient x1="-109.69914" y1="92.91092" x2="-109.69914" y2="51.99604" gradientUnits="userSpaceOnUse" id="color-18"><stop offset="0" stop-color="#af9141"/><stop offset="1" stop-color="#ddb747"/></linearGradient><linearGradient x1="-109.70064" y1="53.87188" x2="-109.70064" y2="12.957" gradientUnits="userSpaceOnUse" id="color-19"><stop offset="0" stop-color="#af9141"/><stop offset="1" stop-color="#ddb747"/></linearGradient><linearGradient x1="-109.70514" y1="12.32533" x2="-109.70514" y2="-28.58955" gradientUnits="userSpaceOnUse" id="color-20"><stop offset="0" stop-color="#af9141"/><stop offset="1" stop-color="#ddb747"/></linearGradient><linearGradient x1="-109.20514" y1="-29.67467" x2="-109.20514" y2="-70.58955" gradientUnits="userSpaceOnUse" id="color-21"><stop offset="0" stop-color="#af9141"/><stop offset="1" stop-color="#ddb747"/></linearGradient><linearGradient x1="55.30537" y1="177.45635" x2="55.30537" y2="145.54258" gradientUnits="userSpaceOnUse" id="color-22"><stop offset="0" stop-color="#af9141"/><stop offset="1" stop-color="#ddb747"/></linearGradient><linearGradient x1="11.6387" y1="81.12301" x2="11.6387" y2="49.20925" gradientUnits="userSpaceOnUse" id="color-23"><stop offset="0" stop-color="#af9141"/><stop offset="1" stop-color="#ddb747"/></linearGradient><linearGradient x1="143.6387" y1="272.7897" x2="143.6387" y2="-2.12405" gradientUnits="userSpaceOnUse" id="color-24"><stop offset="0" stop-color="#af9141"/><stop offset="1" stop-color="#ddb747"/></linearGradient><linearGradient x1="231.6387" y1="336.7897" x2="231.6387" y2="90.87595" gradientUnits="userSpaceOnUse" id="color-25"><stop offset="0" stop-color="#af9141"/><stop offset="1" stop-color="#ddb747"/></linearGradient><linearGradient x1="307.30537" y1="269.45635" x2="307.30537" y2="232.54258" gradientUnits="userSpaceOnUse" id="color-26"><stop offset="0" stop-color="#af9141"/><stop offset="1" stop-color="#ddb747"/></linearGradient><linearGradient x1="316.6387" y1="273.7897" x2="316.6387" y2="-16.12407" gradientUnits="userSpaceOnUse" id="color-27"><stop offset="0" stop-color="#af9141"/><stop offset="1" stop-color="#ddb747"/></linearGradient><linearGradient x1="406.6387" y1="79.6215" x2="406.6387" y2="67.22726" gradientUnits="userSpaceOnUse" id="color-28"><stop offset="0" stop-color="#af9141"/><stop offset="1" stop-color="#ddb747"/></linearGradient><linearGradient x1="393.63869" y1="178.12301" x2="393.63869" y2="146.20924" gradientUnits="userSpaceOnUse" id="color-29"><stop offset="0" stop-color="#af9141"/><stop offset="1" stop-color="#ddb747"/></linearGradient></defs><g transform="translate(110.70515,71.58956)"><g data-paper-data="{&quot;isPaintingLayer&quot;:true}" fill-rule="nonzero" stroke="#91773e" stroke-width="2" stroke-linecap="butt" stroke-linejoin="miter" stroke-miterlimit="10" stroke-dasharray="" stroke-dashoffset="0" style="mix-blend-mode: normal"><path d="M171.51565,9.50002v-23h146v23z" fill="url(#color-1)"/><path d="M-4.69464,242.87591h76.99667v31.91377h-76.99667z" data-paper-data="{&quot;index&quot;:null}" fill="url(#color-2)"/><path d="M406.6387,66.87591h29.66333v85.91377h-29.66333z" data-paper-data="{&quot;index&quot;:null}" fill="url(#color-3)"/><path d="M218.30538,236.54259h20.66333v36.91377h-20.66333z" data-paper-data="{&quot;index&quot;:null}" fill="url(#color-4)"/><path d="M343.6387,242.20924h148.66333v31.91377h-148.66333z" data-paper-data="{&quot;index&quot;:null}" fill="url(#color-5)"/><path d="M249.30537,134.54258h20.66333v36.91377h-20.66333z" data-paper-data="{&quot;index&quot;:null}" fill="url(#color-6)"/><path d="M164.30534,134.54258h20.66333v31.91377h-20.66333z" data-paper-data="{&quot;index&quot;:null}" fill="url(#color-7)"/><path d="M-2.69463,336.54262h120.33v40.91489h-120.33z" data-paper-data="{&quot;index&quot;:null}" fill="url(#color-8)"/><path d="M117.30537,336.54262h120.33v40.91489h-120.33z" data-paper-data="{&quot;index&quot;:null}" fill="url(#color-9)"/><path d="M239.30537,336.54262h120.33v40.91489h-120.33z" data-paper-data="{&quot;index&quot;:null}" fill="url(#color-10)"/><path d="M355.30537,336.54262h133.33v40.91489h-133.33z" data-paper-data="{&quot;index&quot;:null}" fill="url(#color-11)"/><path d="M-109.69463,296.54258h120.33v40.91489h-120.33z" data-paper-data="{&quot;index&quot;:null}" fill="url(#color-12)"/><path d="M-109.69914,254.99603h120.33v40.91489h-120.33z" data-paper-data="{&quot;index&quot;:null}" fill="url(#color-13)"/><path d="M-109.70064,215.95699h120.33v40.91489h-120.33z" data-paper-data="{&quot;index&quot;:null}" fill="url(#color-14)"/><path d="M-109.70515,174.41043h120.33v40.91489h-120.33z" data-paper-data="{&quot;index&quot;:null}" fill="url(#color-15)"/><path d="M-109.70514,132.41043h120.33v40.91489h-120.33z" data-paper-data="{&quot;index&quot;:null}" fill="url(#color-16)"/><path d="M-109.69463,93.54258h120.33v40.91489h-120.33z" data-paper-data="{&quot;index&quot;:null}" fill="url(#color-17)"/><path d="M-109.69914,51.99603h120.33v40.91489h-120.33z" data-paper-data="{&quot;index&quot;:null}" fill="url(#color-18)"/><path d="M-109.70064,12.95699h120.33v40.91489h-120.33z" data-paper-data="{&quot;index&quot;:null}" fill="url(#color-19)"/><path d="M-109.70514,-28.58956h120.33v40.91489h-120.33z" data-paper-data="{&quot;index&quot;:null}" fill="url(#color-20)"/><path d="M-109.20514,-70.58956h120.33v40.91489h-120.33z" data-paper-data="{&quot;index&quot;:null}" fill="url(#color-21)"/><path d="M55.30537,145.54258h89.66333v31.91377h-89.66333z" data-paper-data="{&quot;index&quot;:null}" fill="url(#color-22)"/><path d="M11.6387,49.20924h89.66333v31.91377h-89.66333z" data-paper-data="{&quot;index&quot;:null}" fill="url(#color-23)"/><path d="M143.6387,-2.12409h29.66333v274.91377h-29.66333z" data-paper-data="{&quot;index&quot;:null}" fill="url(#color-24)"/><path d="M231.6387,90.87591h29.66333v245.91377h-29.66333z" data-paper-data="{&quot;index&quot;:null}" fill="url(#color-25)"/><path d="M307.30537,232.54258h20.66333v36.91377h-20.66333z" data-paper-data="{&quot;index&quot;:null}" fill="url(#color-26)"/><path d="M316.6387,-16.12409h29.66333v289.91377h-29.66333z" data-paper-data="{&quot;index&quot;:null}" fill="url(#color-27)"/><path d="M406.6387,67.22725h89.66333v12.39425h-89.66333z" data-paper-data="{&quot;index&quot;:null}" fill="url(#color-28)"/><path d="M393.63869,146.20924h101.66333v31.91377h-101.66333z" data-paper-data="{&quot;index&quot;:null}" fill="url(#color-29)"/></g></g></svg>