<svg version="1.1" xmlns="http://www.w3.org/2000/svg" xmlns:xlink="http://www.w3.org/1999/xlink" width="143.7336" height="143.73361" viewBox="0,0,143.7336,143.73361"><defs><linearGradient x1="240" y1="110.13321" x2="240" y2="249.86681" gradientUnits="userSpaceOnUse" id="color-1"><stop offset="0" stop-color="#3c94ed"/><stop offset="1" stop-color="#337fcc"/></linearGradient><radialGradient cx="293.93151" cy="182.58793" r="15.33282" gradientUnits="userSpaceOnUse" id="color-2"><stop offset="0" stop-color="#ffff00"/><stop offset="1" stop-color="#ff9400"/></radialGradient><radialGradient cx="290.99486" cy="183.52609" r="10.49389" gradientUnits="userSpaceOnUse" id="color-3"><stop offset="0" stop-color="#bda501"/><stop offset="1" stop-color="#c07801"/></radialGradient><radialGradient cx="284.78645" cy="184.95038" r="15.33282" gradientUnits="userSpaceOnUse" id="color-4"><stop offset="0" stop-color="#ffff00"/><stop offset="1" stop-color="#ff9400"/></radialGradient><radialGradient cx="281.84991" cy="185.88866" r="10.49389" gradientUnits="userSpaceOnUse" id="color-5"><stop offset="0" stop-color="#bda501"/><stop offset="1" stop-color="#c07801"/></radialGradient><radialGradient cx="282.11913" cy="174.31934" r="15.33282" gradientUnits="userSpaceOnUse" id="color-6"><stop offset="0" stop-color="#ffff00"/><stop offset="1" stop-color="#ff9400"/></radialGradient><radialGradient cx="279.18259" cy="175.2575" r="10.49389" gradientUnits="userSpaceOnUse" id="color-7"><stop offset="0" stop-color="#bda501"/><stop offset="1" stop-color="#c07801"/></radialGradient><radialGradient cx="273.50767" cy="177.55815" r="15.33282" gradientUnits="userSpaceOnUse" id="color-8"><stop offset="0" stop-color="#ffff00"/><stop offset="1" stop-color="#ff9400"/></radialGradient><radialGradient cx="270.60914" cy="178.49644" r="10.49389" gradientUnits="userSpaceOnUse" id="color-9"><stop offset="0" stop-color="#bda501"/><stop offset="1" stop-color="#c07801"/></radialGradient><radialGradient cx="269.96399" cy="182.58793" r="15.33282" gradientUnits="userSpaceOnUse" id="color-10"><stop offset="0" stop-color="#ffff00"/><stop offset="1" stop-color="#ff9400"/></radialGradient><radialGradient cx="267.02734" cy="183.52609" r="10.49389" gradientUnits="userSpaceOnUse" id="color-11"><stop offset="0" stop-color="#bda501"/><stop offset="1" stop-color="#c07801"/></radialGradient><radialGradient cx="259.02809" cy="178.73938" r="15.33282" gradientUnits="userSpaceOnUse" id="color-12"><stop offset="0" stop-color="#ffff00"/><stop offset="1" stop-color="#ff9400"/></radialGradient><radialGradient cx="256.09143" cy="179.67766" r="10.49389" gradientUnits="userSpaceOnUse" id="color-13"><stop offset="0" stop-color="#bda501"/><stop offset="1" stop-color="#c07801"/></radialGradient><radialGradient cx="249.84491" cy="173.55723" r="15.33282" gradientUnits="userSpaceOnUse" id="color-14"><stop offset="0" stop-color="#ffff00"/><stop offset="1" stop-color="#ff9400"/></radialGradient><radialGradient cx="246.94649" cy="174.49539" r="10.49389" gradientUnits="userSpaceOnUse" id="color-15"><stop offset="0" stop-color="#bda501"/><stop offset="1" stop-color="#c07801"/></radialGradient><radialGradient cx="250.75939" cy="180.53033" r="15.33282" gradientUnits="userSpaceOnUse" id="color-16"><stop offset="0" stop-color="#ffff00"/><stop offset="1" stop-color="#ff9400"/></radialGradient><radialGradient cx="247.82285" cy="181.46851" r="10.49389" gradientUnits="userSpaceOnUse" id="color-17"><stop offset="0" stop-color="#bda501"/><stop offset="1" stop-color="#c07801"/></radialGradient><radialGradient cx="256.66564" cy="186.74134" r="15.33282" gradientUnits="userSpaceOnUse" id="color-18"><stop offset="0" stop-color="#ffff00"/><stop offset="1" stop-color="#ff9400"/></radialGradient><radialGradient cx="253.72898" cy="187.67949" r="10.49389" gradientUnits="userSpaceOnUse" id="color-19"><stop offset="0" stop-color="#bda501"/><stop offset="1" stop-color="#c07801"/></radialGradient><radialGradient cx="265.54384" cy="173.55723" r="15.33282" gradientUnits="userSpaceOnUse" id="color-20"><stop offset="0" stop-color="#ffff00"/><stop offset="1" stop-color="#ff9400"/></radialGradient><radialGradient cx="262.6073" cy="174.49539" r="10.49389" gradientUnits="userSpaceOnUse" id="color-21"><stop offset="0" stop-color="#bda501"/><stop offset="1" stop-color="#c07801"/></radialGradient><radialGradient cx="288.33013" cy="177.71064" r="15.33282" gradientUnits="userSpaceOnUse" id="color-22"><stop offset="0" stop-color="#ffff00"/><stop offset="1" stop-color="#ff9400"/></radialGradient><radialGradient cx="285.39359" cy="178.64881" r="10.49389" gradientUnits="userSpaceOnUse" id="color-23"><stop offset="0" stop-color="#bda501"/><stop offset="1" stop-color="#c07801"/></radialGradient><radialGradient cx="288.90174" cy="169.55631" r="15.33282" gradientUnits="userSpaceOnUse" id="color-24"><stop offset="0" stop-color="#ffff00"/><stop offset="1" stop-color="#ff9400"/></radialGradient><radialGradient cx="285.9652" cy="170.49448" r="10.49389" gradientUnits="userSpaceOnUse" id="color-25"><stop offset="0" stop-color="#bda501"/><stop offset="1" stop-color="#c07801"/></radialGradient><radialGradient cx="279.75668" cy="171.95689" r="15.33282" gradientUnits="userSpaceOnUse" id="color-26"><stop offset="0" stop-color="#ffff00"/><stop offset="1" stop-color="#ff9400"/></radialGradient><radialGradient cx="276.82014" cy="172.85693" r="10.49389" gradientUnits="userSpaceOnUse" id="color-27"><stop offset="0" stop-color="#bda501"/><stop offset="1" stop-color="#c07801"/></radialGradient><radialGradient cx="277.08947" cy="161.28773" r="15.33282" gradientUnits="userSpaceOnUse" id="color-28"><stop offset="0" stop-color="#ffff00"/><stop offset="1" stop-color="#ff9400"/></radialGradient><radialGradient cx="274.15282" cy="162.18777" r="10.49389" gradientUnits="userSpaceOnUse" id="color-29"><stop offset="0" stop-color="#bda501"/><stop offset="1" stop-color="#c07801"/></radialGradient><radialGradient cx="268.4779" cy="164.52654" r="15.33282" gradientUnits="userSpaceOnUse" id="color-30"><stop offset="0" stop-color="#ffff00"/><stop offset="1" stop-color="#ff9400"/></radialGradient><radialGradient cx="265.57937" cy="165.4647" r="10.49389" gradientUnits="userSpaceOnUse" id="color-31"><stop offset="0" stop-color="#bda501"/><stop offset="1" stop-color="#c07801"/></radialGradient><radialGradient cx="264.93422" cy="169.55631" r="15.33282" gradientUnits="userSpaceOnUse" id="color-32"><stop offset="0" stop-color="#ffff00"/><stop offset="1" stop-color="#ff9400"/></radialGradient><radialGradient cx="261.99757" cy="170.49448" r="10.49389" gradientUnits="userSpaceOnUse" id="color-33"><stop offset="0" stop-color="#bda501"/><stop offset="1" stop-color="#c07801"/></radialGradient><radialGradient cx="253.99832" cy="165.74588" r="15.33282" gradientUnits="userSpaceOnUse" id="color-34"><stop offset="0" stop-color="#ffff00"/><stop offset="1" stop-color="#ff9400"/></radialGradient><radialGradient cx="251.06166" cy="166.64605" r="10.49389" gradientUnits="userSpaceOnUse" id="color-35"><stop offset="0" stop-color="#bda501"/><stop offset="1" stop-color="#c07801"/></radialGradient><radialGradient cx="244.81514" cy="160.56374" r="15.33282" gradientUnits="userSpaceOnUse" id="color-36"><stop offset="0" stop-color="#ffff00"/><stop offset="1" stop-color="#ff9400"/></radialGradient><radialGradient cx="241.91672" cy="161.46379" r="10.49389" gradientUnits="userSpaceOnUse" id="color-37"><stop offset="0" stop-color="#bda501"/><stop offset="1" stop-color="#c07801"/></radialGradient><radialGradient cx="245.72973" cy="167.49872" r="15.33282" gradientUnits="userSpaceOnUse" id="color-38"><stop offset="0" stop-color="#ffff00"/><stop offset="1" stop-color="#ff9400"/></radialGradient><radialGradient cx="242.79308" cy="168.39877" r="10.49389" gradientUnits="userSpaceOnUse" id="color-39"><stop offset="0" stop-color="#bda501"/><stop offset="1" stop-color="#c07801"/></radialGradient><radialGradient cx="251.63587" cy="173.70961" r="15.33282" gradientUnits="userSpaceOnUse" id="color-40"><stop offset="0" stop-color="#ffff00"/><stop offset="1" stop-color="#ff9400"/></radialGradient><radialGradient cx="248.69921" cy="174.64788" r="10.49389" gradientUnits="userSpaceOnUse" id="color-41"><stop offset="0" stop-color="#bda501"/><stop offset="1" stop-color="#c07801"/></radialGradient><radialGradient cx="260.51407" cy="160.56374" r="15.33282" gradientUnits="userSpaceOnUse" id="color-42"><stop offset="0" stop-color="#ffff00"/><stop offset="1" stop-color="#ff9400"/></radialGradient><radialGradient cx="257.57753" cy="161.46379" r="10.49389" gradientUnits="userSpaceOnUse" id="color-43"><stop offset="0" stop-color="#bda501"/><stop offset="1" stop-color="#c07801"/></radialGradient><radialGradient cx="283.30036" cy="164.6789" r="15.33282" gradientUnits="userSpaceOnUse" id="color-44"><stop offset="0" stop-color="#ffff00"/><stop offset="1" stop-color="#ff9400"/></radialGradient><radialGradient cx="280.36382" cy="165.61719" r="10.49389" gradientUnits="userSpaceOnUse" id="color-45"><stop offset="0" stop-color="#bda501"/><stop offset="1" stop-color="#c07801"/></radialGradient><radialGradient cx="295.41749" cy="179.19662" r="15.33282" gradientUnits="userSpaceOnUse" id="color-46"><stop offset="0" stop-color="#ffff00"/><stop offset="1" stop-color="#ff9400"/></radialGradient><radialGradient cx="292.48095" cy="180.1349" r="10.49389" gradientUnits="userSpaceOnUse" id="color-47"><stop offset="0" stop-color="#bda501"/><stop offset="1" stop-color="#c07801"/></radialGradient><radialGradient cx="286.23442" cy="181.55908" r="15.33282" gradientUnits="userSpaceOnUse" id="color-48"><stop offset="0" stop-color="#ffff00"/><stop offset="1" stop-color="#ff9400"/></radialGradient><radialGradient cx="283.336" cy="182.49736" r="10.49389" gradientUnits="userSpaceOnUse" id="color-49"><stop offset="0" stop-color="#bda501"/><stop offset="1" stop-color="#c07801"/></radialGradient><radialGradient cx="283.5671" cy="170.88991" r="15.33282" gradientUnits="userSpaceOnUse" id="color-50"><stop offset="0" stop-color="#ffff00"/><stop offset="1" stop-color="#ff9400"/></radialGradient><radialGradient cx="280.66868" cy="171.8282" r="10.49389" gradientUnits="userSpaceOnUse" id="color-51"><stop offset="0" stop-color="#bda501"/><stop offset="1" stop-color="#c07801"/></radialGradient><radialGradient cx="274.99365" cy="174.16685" r="15.33282" gradientUnits="userSpaceOnUse" id="color-52"><stop offset="0" stop-color="#ffff00"/><stop offset="1" stop-color="#ff9400"/></radialGradient><radialGradient cx="272.05711" cy="175.10513" r="10.49389" gradientUnits="userSpaceOnUse" id="color-53"><stop offset="0" stop-color="#bda501"/><stop offset="1" stop-color="#c07801"/></radialGradient><radialGradient cx="271.44997" cy="179.19662" r="15.33282" gradientUnits="userSpaceOnUse" id="color-54"><stop offset="0" stop-color="#ffff00"/><stop offset="1" stop-color="#ff9400"/></radialGradient><radialGradient cx="268.51343" cy="180.1349" r="10.49389" gradientUnits="userSpaceOnUse" id="color-55"><stop offset="0" stop-color="#bda501"/><stop offset="1" stop-color="#c07801"/></radialGradient><radialGradient cx="260.51407" cy="175.34808" r="15.33282" gradientUnits="userSpaceOnUse" id="color-56"><stop offset="0" stop-color="#ffff00"/><stop offset="1" stop-color="#ff9400"/></radialGradient><radialGradient cx="257.57753" cy="176.28636" r="10.49389" gradientUnits="userSpaceOnUse" id="color-57"><stop offset="0" stop-color="#bda501"/><stop offset="1" stop-color="#c07801"/></radialGradient><radialGradient cx="251.331" cy="170.16593" r="15.33282" gradientUnits="userSpaceOnUse" id="color-58"><stop offset="0" stop-color="#ffff00"/><stop offset="1" stop-color="#ff9400"/></radialGradient><radialGradient cx="248.39446" cy="171.06609" r="10.49389" gradientUnits="userSpaceOnUse" id="color-59"><stop offset="0" stop-color="#bda501"/><stop offset="1" stop-color="#c07801"/></radialGradient><radialGradient cx="252.20736" cy="177.10091" r="15.33282" gradientUnits="userSpaceOnUse" id="color-60"><stop offset="0" stop-color="#ffff00"/><stop offset="1" stop-color="#ff9400"/></radialGradient><radialGradient cx="249.30894" cy="178.0772" r="10.49389" gradientUnits="userSpaceOnUse" id="color-61"><stop offset="0" stop-color="#bda501"/><stop offset="1" stop-color="#c07801"/></radialGradient><radialGradient cx="258.15162" cy="183.35003" r="15.33282" gradientUnits="userSpaceOnUse" id="color-62"><stop offset="0" stop-color="#ffff00"/><stop offset="1" stop-color="#ff9400"/></radialGradient><radialGradient cx="255.21507" cy="184.28819" r="10.49389" gradientUnits="userSpaceOnUse" id="color-63"><stop offset="0" stop-color="#bda501"/><stop offset="1" stop-color="#c07801"/></radialGradient><radialGradient cx="267.02993" cy="170.16593" r="15.33282" gradientUnits="userSpaceOnUse" id="color-64"><stop offset="0" stop-color="#ffff00"/><stop offset="1" stop-color="#ff9400"/></radialGradient><radialGradient cx="264.09339" cy="171.06609" r="10.49389" gradientUnits="userSpaceOnUse" id="color-65"><stop offset="0" stop-color="#bda501"/><stop offset="1" stop-color="#c07801"/></radialGradient><radialGradient cx="289.81622" cy="174.31934" r="15.33282" gradientUnits="userSpaceOnUse" id="color-66"><stop offset="0" stop-color="#ffff00"/><stop offset="1" stop-color="#ff9400"/></radialGradient><radialGradient cx="286.87968" cy="175.2575" r="10.49389" gradientUnits="userSpaceOnUse" id="color-67"><stop offset="0" stop-color="#bda501"/><stop offset="1" stop-color="#c07801"/></radialGradient><radialGradient cx="186.0686" cy="186.10217" r="15.33282" gradientUnits="userSpaceOnUse" id="color-68"><stop offset="0" stop-color="#ffff00"/><stop offset="1" stop-color="#ff9400"/></radialGradient><radialGradient cx="189.00514" cy="187.04034" r="10.49389" gradientUnits="userSpaceOnUse" id="color-69"><stop offset="0" stop-color="#bda501"/><stop offset="1" stop-color="#c07801"/></radialGradient><radialGradient cx="195.21366" cy="188.46461" r="15.33282" gradientUnits="userSpaceOnUse" id="color-70"><stop offset="0" stop-color="#ffff00"/><stop offset="1" stop-color="#ff9400"/></radialGradient><radialGradient cx="198.1502" cy="189.40279" r="10.49389" gradientUnits="userSpaceOnUse" id="color-71"><stop offset="0" stop-color="#bda501"/><stop offset="1" stop-color="#c07801"/></radialGradient><radialGradient cx="197.88087" cy="177.83358" r="15.33282" gradientUnits="userSpaceOnUse" id="color-72"><stop offset="0" stop-color="#ffff00"/><stop offset="1" stop-color="#ff9400"/></radialGradient><radialGradient cx="200.81752" cy="178.77175" r="10.49389" gradientUnits="userSpaceOnUse" id="color-73"><stop offset="0" stop-color="#bda501"/><stop offset="1" stop-color="#c07801"/></radialGradient><radialGradient cx="206.49244" cy="181.0724" r="15.33282" gradientUnits="userSpaceOnUse" id="color-74"><stop offset="0" stop-color="#ffff00"/><stop offset="1" stop-color="#ff9400"/></radialGradient><radialGradient cx="209.39097" cy="182.01057" r="10.49389" gradientUnits="userSpaceOnUse" id="color-75"><stop offset="0" stop-color="#bda501"/><stop offset="1" stop-color="#c07801"/></radialGradient><radialGradient cx="210.03612" cy="186.10217" r="15.33282" gradientUnits="userSpaceOnUse" id="color-76"><stop offset="0" stop-color="#ffff00"/><stop offset="1" stop-color="#ff9400"/></radialGradient><radialGradient cx="212.97277" cy="187.04034" r="10.49389" gradientUnits="userSpaceOnUse" id="color-77"><stop offset="0" stop-color="#bda501"/><stop offset="1" stop-color="#c07801"/></radialGradient><radialGradient cx="220.97202" cy="182.25362" r="15.33282" gradientUnits="userSpaceOnUse" id="color-78"><stop offset="0" stop-color="#ffff00"/><stop offset="1" stop-color="#ff9400"/></radialGradient><radialGradient cx="223.90857" cy="183.19179" r="10.49389" gradientUnits="userSpaceOnUse" id="color-79"><stop offset="0" stop-color="#bda501"/><stop offset="1" stop-color="#c07801"/></radialGradient><radialGradient cx="230.15509" cy="177.07148" r="15.33282" gradientUnits="userSpaceOnUse" id="color-80"><stop offset="0" stop-color="#ffff00"/><stop offset="1" stop-color="#ff9400"/></radialGradient><radialGradient cx="233.05363" cy="178.00964" r="10.49389" gradientUnits="userSpaceOnUse" id="color-81"><stop offset="0" stop-color="#bda501"/><stop offset="1" stop-color="#c07801"/></radialGradient><radialGradient cx="229.24061" cy="184.04447" r="15.33282" gradientUnits="userSpaceOnUse" id="color-82"><stop offset="0" stop-color="#ffff00"/><stop offset="1" stop-color="#ff9400"/></radialGradient><radialGradient cx="232.17726" cy="184.98275" r="10.49389" gradientUnits="userSpaceOnUse" id="color-83"><stop offset="0" stop-color="#bda501"/><stop offset="1" stop-color="#c07801"/></radialGradient><radialGradient cx="223.33448" cy="190.25547" r="15.33282" gradientUnits="userSpaceOnUse" id="color-84"><stop offset="0" stop-color="#ffff00"/><stop offset="1" stop-color="#ff9400"/></radialGradient><radialGradient cx="226.27113" cy="191.19374" r="10.49389" gradientUnits="userSpaceOnUse" id="color-85"><stop offset="0" stop-color="#bda501"/><stop offset="1" stop-color="#c07801"/></radialGradient><radialGradient cx="214.45627" cy="177.07148" r="15.33282" gradientUnits="userSpaceOnUse" id="color-86"><stop offset="0" stop-color="#ffff00"/><stop offset="1" stop-color="#ff9400"/></radialGradient><radialGradient cx="217.39282" cy="178.00964" r="10.49389" gradientUnits="userSpaceOnUse" id="color-87"><stop offset="0" stop-color="#bda501"/><stop offset="1" stop-color="#c07801"/></radialGradient><radialGradient cx="191.66987" cy="181.22477" r="15.33282" gradientUnits="userSpaceOnUse" id="color-88"><stop offset="0" stop-color="#ffff00"/><stop offset="1" stop-color="#ff9400"/></radialGradient><radialGradient cx="194.60652" cy="182.16305" r="10.49389" gradientUnits="userSpaceOnUse" id="color-89"><stop offset="0" stop-color="#bda501"/><stop offset="1" stop-color="#c07801"/></radialGradient><radialGradient cx="191.09837" cy="173.07055" r="15.33282" gradientUnits="userSpaceOnUse" id="color-90"><stop offset="0" stop-color="#ffff00"/><stop offset="1" stop-color="#ff9400"/></radialGradient><radialGradient cx="194.03492" cy="174.00872" r="10.49389" gradientUnits="userSpaceOnUse" id="color-91"><stop offset="0" stop-color="#bda501"/><stop offset="1" stop-color="#c07801"/></radialGradient><radialGradient cx="200.24332" cy="175.47102" r="15.33282" gradientUnits="userSpaceOnUse" id="color-92"><stop offset="0" stop-color="#ffff00"/><stop offset="1" stop-color="#ff9400"/></radialGradient><radialGradient cx="203.17998" cy="176.37118" r="10.49389" gradientUnits="userSpaceOnUse" id="color-93"><stop offset="0" stop-color="#bda501"/><stop offset="1" stop-color="#c07801"/></radialGradient><radialGradient cx="202.91064" cy="164.80185" r="15.33282" gradientUnits="userSpaceOnUse" id="color-94"><stop offset="0" stop-color="#ffff00"/><stop offset="1" stop-color="#ff9400"/></radialGradient><radialGradient cx="205.84729" cy="165.702" r="10.49389" gradientUnits="userSpaceOnUse" id="color-95"><stop offset="0" stop-color="#bda501"/><stop offset="1" stop-color="#c07801"/></radialGradient><radialGradient cx="211.52221" cy="168.04078" r="15.33282" gradientUnits="userSpaceOnUse" id="color-96"><stop offset="0" stop-color="#ffff00"/><stop offset="1" stop-color="#ff9400"/></radialGradient><radialGradient cx="214.42063" cy="168.97895" r="10.49389" gradientUnits="userSpaceOnUse" id="color-97"><stop offset="0" stop-color="#bda501"/><stop offset="1" stop-color="#c07801"/></radialGradient><radialGradient cx="215.06589" cy="173.07055" r="15.33282" gradientUnits="userSpaceOnUse" id="color-98"><stop offset="0" stop-color="#ffff00"/><stop offset="1" stop-color="#ff9400"/></radialGradient><radialGradient cx="218.00243" cy="174.00872" r="10.49389" gradientUnits="userSpaceOnUse" id="color-99"><stop offset="0" stop-color="#bda501"/><stop offset="1" stop-color="#c07801"/></radialGradient><radialGradient cx="226.00179" cy="169.26013" r="15.33282" gradientUnits="userSpaceOnUse" id="color-100"><stop offset="0" stop-color="#ffff00"/><stop offset="1" stop-color="#ff9400"/></radialGradient><radialGradient cx="228.93834" cy="170.16017" r="10.49389" gradientUnits="userSpaceOnUse" id="color-101"><stop offset="0" stop-color="#bda501"/><stop offset="1" stop-color="#c07801"/></radialGradient><radialGradient cx="235.18486" cy="164.07786" r="15.33282" gradientUnits="userSpaceOnUse" id="color-102"><stop offset="0" stop-color="#ffff00"/><stop offset="1" stop-color="#ff9400"/></radialGradient><radialGradient cx="238.0834" cy="164.97803" r="10.49389" gradientUnits="userSpaceOnUse" id="color-103"><stop offset="0" stop-color="#bda501"/><stop offset="1" stop-color="#c07801"/></radialGradient><radialGradient cx="234.27038" cy="171.01285" r="15.33282" gradientUnits="userSpaceOnUse" id="color-104"><stop offset="0" stop-color="#ffff00"/><stop offset="1" stop-color="#ff9400"/></radialGradient><radialGradient cx="237.20704" cy="171.91301" r="10.49389" gradientUnits="userSpaceOnUse" id="color-105"><stop offset="0" stop-color="#bda501"/><stop offset="1" stop-color="#c07801"/></radialGradient><radialGradient cx="228.36425" cy="177.22385" r="15.33282" gradientUnits="userSpaceOnUse" id="color-106"><stop offset="0" stop-color="#ffff00"/><stop offset="1" stop-color="#ff9400"/></radialGradient><radialGradient cx="231.30079" cy="178.16213" r="10.49389" gradientUnits="userSpaceOnUse" id="color-107"><stop offset="0" stop-color="#bda501"/><stop offset="1" stop-color="#c07801"/></radialGradient><radialGradient cx="219.48593" cy="164.07786" r="15.33282" gradientUnits="userSpaceOnUse" id="color-108"><stop offset="0" stop-color="#ffff00"/><stop offset="1" stop-color="#ff9400"/></radialGradient><radialGradient cx="222.42259" cy="164.97803" r="10.49389" gradientUnits="userSpaceOnUse" id="color-109"><stop offset="0" stop-color="#bda501"/><stop offset="1" stop-color="#c07801"/></radialGradient><radialGradient cx="196.69964" cy="168.19316" r="15.33282" gradientUnits="userSpaceOnUse" id="color-110"><stop offset="0" stop-color="#ffff00"/><stop offset="1" stop-color="#ff9400"/></radialGradient><radialGradient cx="199.6363" cy="169.13144" r="10.49389" gradientUnits="userSpaceOnUse" id="color-111"><stop offset="0" stop-color="#bda501"/><stop offset="1" stop-color="#c07801"/></radialGradient><radialGradient cx="184.58251" cy="182.71085" r="15.33282" gradientUnits="userSpaceOnUse" id="color-112"><stop offset="0" stop-color="#ffff00"/><stop offset="1" stop-color="#ff9400"/></radialGradient><radialGradient cx="187.51916" cy="183.64903" r="10.49389" gradientUnits="userSpaceOnUse" id="color-113"><stop offset="0" stop-color="#bda501"/><stop offset="1" stop-color="#c07801"/></radialGradient><radialGradient cx="193.76569" cy="185.07331" r="15.33282" gradientUnits="userSpaceOnUse" id="color-114"><stop offset="0" stop-color="#ffff00"/><stop offset="1" stop-color="#ff9400"/></radialGradient><radialGradient cx="196.66411" cy="186.0116" r="10.49389" gradientUnits="userSpaceOnUse" id="color-115"><stop offset="0" stop-color="#bda501"/><stop offset="1" stop-color="#c07801"/></radialGradient><radialGradient cx="196.4329" cy="174.40416" r="15.33282" gradientUnits="userSpaceOnUse" id="color-116"><stop offset="0" stop-color="#ffff00"/><stop offset="1" stop-color="#ff9400"/></radialGradient><radialGradient cx="199.33143" cy="175.34233" r="10.49389" gradientUnits="userSpaceOnUse" id="color-117"><stop offset="0" stop-color="#bda501"/><stop offset="1" stop-color="#c07801"/></radialGradient><radialGradient cx="205.00635" cy="177.68109" r="15.33282" gradientUnits="userSpaceOnUse" id="color-118"><stop offset="0" stop-color="#ffff00"/><stop offset="1" stop-color="#ff9400"/></radialGradient><radialGradient cx="207.943" cy="178.61937" r="10.49389" gradientUnits="userSpaceOnUse" id="color-119"><stop offset="0" stop-color="#bda501"/><stop offset="1" stop-color="#c07801"/></radialGradient><radialGradient cx="208.55003" cy="182.71085" r="15.33282" gradientUnits="userSpaceOnUse" id="color-120"><stop offset="0" stop-color="#ffff00"/><stop offset="1" stop-color="#ff9400"/></radialGradient><radialGradient cx="211.48668" cy="183.64903" r="10.49389" gradientUnits="userSpaceOnUse" id="color-121"><stop offset="0" stop-color="#bda501"/><stop offset="1" stop-color="#c07801"/></radialGradient><radialGradient cx="219.48593" cy="178.86232" r="15.33282" gradientUnits="userSpaceOnUse" id="color-122"><stop offset="0" stop-color="#ffff00"/><stop offset="1" stop-color="#ff9400"/></radialGradient><radialGradient cx="222.42259" cy="179.8006" r="10.49389" gradientUnits="userSpaceOnUse" id="color-123"><stop offset="0" stop-color="#bda501"/><stop offset="1" stop-color="#c07801"/></radialGradient><radialGradient cx="228.66911" cy="173.68017" r="15.33282" gradientUnits="userSpaceOnUse" id="color-124"><stop offset="0" stop-color="#ffff00"/><stop offset="1" stop-color="#ff9400"/></radialGradient><radialGradient cx="231.60566" cy="174.58033" r="10.49389" gradientUnits="userSpaceOnUse" id="color-125"><stop offset="0" stop-color="#bda501"/><stop offset="1" stop-color="#c07801"/></radialGradient><radialGradient cx="227.79264" cy="180.61515" r="15.33282" gradientUnits="userSpaceOnUse" id="color-126"><stop offset="0" stop-color="#ffff00"/><stop offset="1" stop-color="#ff9400"/></radialGradient><radialGradient cx="230.69117" cy="181.59145" r="10.49389" gradientUnits="userSpaceOnUse" id="color-127"><stop offset="0" stop-color="#bda501"/><stop offset="1" stop-color="#c07801"/></radialGradient><radialGradient cx="221.84838" cy="186.86427" r="15.33282" gradientUnits="userSpaceOnUse" id="color-128"><stop offset="0" stop-color="#ffff00"/><stop offset="1" stop-color="#ff9400"/></radialGradient><radialGradient cx="224.78504" cy="187.80244" r="10.49389" gradientUnits="userSpaceOnUse" id="color-129"><stop offset="0" stop-color="#bda501"/><stop offset="1" stop-color="#c07801"/></radialGradient><radialGradient cx="212.97018" cy="173.68017" r="15.33282" gradientUnits="userSpaceOnUse" id="color-130"><stop offset="0" stop-color="#ffff00"/><stop offset="1" stop-color="#ff9400"/></radialGradient><radialGradient cx="215.90672" cy="174.58033" r="10.49389" gradientUnits="userSpaceOnUse" id="color-131"><stop offset="0" stop-color="#bda501"/><stop offset="1" stop-color="#c07801"/></radialGradient><radialGradient cx="190.18389" cy="177.83358" r="15.33282" gradientUnits="userSpaceOnUse" id="color-132"><stop offset="0" stop-color="#ffff00"/><stop offset="1" stop-color="#ff9400"/></radialGradient><radialGradient cx="193.12043" cy="178.77175" r="10.49389" gradientUnits="userSpaceOnUse" id="color-133"><stop offset="0" stop-color="#bda501"/><stop offset="1" stop-color="#c07801"/></radialGradient></defs><g transform="translate(-168.1332,-108.1332)"><g data-paper-data="{&quot;isPaintingLayer&quot;:true}" fill-rule="nonzero" stroke-linecap="butt" stroke-linejoin="miter" stroke-miterlimit="10" stroke-dasharray="" stroke-dashoffset="0" style="mix-blend-mode: normal"><path d="M240,110.13321c19.2752,0 36.74421,7.8268 49.3899,20.47689c12.64989,12.64569 20.4769,30.11449 20.4769,49.38991c0,19.27542 -7.82701,36.74421 -20.4769,49.38991c-12.64569,12.65009 -30.1147,20.4769 -49.3899,20.4769c-19.27542,0 -36.74442,-7.8268 -49.39012,-20.4769c-12.64989,-12.64569 -20.47668,-30.11449 -20.47668,-49.38991c0,-19.27542 7.82679,-36.74421 20.47668,-49.38991c12.64569,-12.6501 30.11471,-20.47689 49.39012,-20.47689z" data-paper-data="{&quot;origPos&quot;:null}" id="ID0.4039921844378114" fill="url(#color-1)" stroke="#23568d" stroke-width="4"/><g data-paper-data="{&quot;origPos&quot;:null,&quot;index&quot;:null}" id="ID0.02617399161681533" stroke="none"><g id="ID0.7518231826834381"><g id="ID0.45640741009265184"><path d="M295.20161,182.08579c1.30405,1.30405 2.1115,3.10494 2.1115,5.09259c0,1.98755 -0.80745,3.78843 -2.1115,5.09248c-1.30417,1.30417 -3.10505,2.1115 -5.09259,2.1115c-1.98755,0 -3.78843,-0.80733 -5.09259,-2.1115c-1.30405,-1.30405 -2.1115,-3.10494 -2.1115,-5.09248c0,-1.98766 0.80745,-3.78854 2.1115,-5.09259c1.30417,-1.30417 3.10505,-2.1115 5.09259,-2.1115c1.98755,0 3.78843,0.80733 5.09259,2.1115z" id="ID0.7142658131197095" fill="url(#color-2)" stroke-width="0.25197"/><path d="M291.61237,192.55001h-2.8418v-10.89846h2.8418z" id="ID0.06001657713204622" fill="url(#color-3)" stroke-width="0.31371"/></g><g id="ID0.45640741009265184"><path d="M286.05656,184.44825c1.30417,1.30405 2.1115,3.10494 2.1115,5.09259c0,1.98755 -0.80733,3.78843 -2.1115,5.09248c-1.30405,1.30417 -3.10494,2.1115 -5.09259,2.1115c-1.98755,0 -3.78843,-0.80733 -5.09248,-2.1115c-1.30417,-1.30405 -2.1115,-3.10494 -2.1115,-5.09248c0,-1.98766 0.80733,-3.78854 2.1115,-5.09259c1.30405,-1.30417 3.10494,-2.1115 5.09248,-2.1115c1.98766,0 3.78854,0.80733 5.09259,2.1115z" id="ID0.7142658131197095" fill="url(#color-4)" stroke-width="0.25197"/><path d="M282.46742,194.91247h-2.8418v-10.89835h2.8418z" id="ID0.06001657713204622" fill="url(#color-5)" stroke-width="0.31371"/></g><g id="ID0.45640741009265184"><path d="M283.38924,173.81721c1.30417,1.30405 2.1115,3.10494 2.1115,5.09248c0,1.98766 -0.80733,3.78854 -2.1115,5.09259c-1.30405,1.30417 -3.10494,2.1115 -5.09248,2.1115c-1.98766,0 -3.78854,-0.80733 -5.09259,-2.1115c-1.30417,-1.30405 -2.1115,-3.10494 -2.1115,-5.09259c0,-1.98755 0.80733,-3.78843 2.1115,-5.09248c1.30405,-1.30417 3.10494,-2.1115 5.09259,-2.1115c1.98755,0 3.78843,0.80733 5.09248,2.1115z" id="ID0.7142658131197095" fill="url(#color-6)" stroke-width="0.25197"/><path d="M279.8001,184.28143h-2.8418v-10.89846h2.8418z" id="ID0.06001657713204622" fill="url(#color-7)" stroke-width="0.31371"/></g><g id="ID0.45640741009265184"><path d="M274.77778,177.05602c1.30405,1.30417 2.11139,3.10494 2.11139,5.09259c0,1.98755 -0.80733,3.78843 -2.11139,5.09259c-1.30417,1.30405 -3.10505,2.11139 -5.09259,2.11139c-1.98755,0 -3.78843,-0.80733 -5.09259,-2.11139c-1.30405,-1.30417 -2.1115,-3.10505 -2.1115,-5.09259c0,-1.98766 0.80745,-3.78843 2.1115,-5.09259c1.30417,-1.30417 3.10505,-2.1115 5.09259,-2.1115c1.98755,0 3.78843,0.80733 5.09259,2.1115z" id="ID0.7142658131197095" fill="url(#color-8)" stroke-width="0.25197"/><path d="M271.22665,187.52025h-2.8418v-10.89835h2.8418z" id="ID0.06001657713204622" fill="url(#color-9)" stroke-width="0.31371"/></g><g id="ID0.45640741009265184"><path d="M271.2341,182.08579c1.30405,1.30405 2.11139,3.10494 2.11139,5.09259c0,1.98755 -0.80733,3.78843 -2.11139,5.09248c-1.30417,1.30417 -3.10505,2.1115 -5.09259,2.1115c-1.98766,0 -3.78843,-0.80733 -5.09259,-2.1115c-1.30417,-1.30405 -2.1115,-3.10494 -2.1115,-5.09248c0,-1.98766 0.80733,-3.78854 2.1115,-5.09259c1.30417,-1.30417 3.10494,-2.1115 5.09259,-2.1115c1.98755,0 3.78843,0.80733 5.09259,2.1115z" id="ID0.7142658131197095" fill="url(#color-10)" stroke-width="0.25197"/><path d="M267.64485,192.55001h-2.8418v-10.89846h2.8418z" id="ID0.06001657713204622" fill="url(#color-11)" stroke-width="0.31371"/></g><g id="ID0.45640741009265184"><path d="M260.29819,178.23725c1.30405,1.30417 2.11139,3.10505 2.11139,5.09259c0,1.98755 -0.80733,3.78843 -2.11139,5.09259c-1.30417,1.30405 -3.10505,2.11139 -5.09259,2.11139c-1.98755,0 -3.78843,-0.80733 -5.09259,-2.11139c-1.30417,-1.30417 -2.1115,-3.10505 -2.1115,-5.09259c0,-1.98755 0.80733,-3.78843 2.1115,-5.09259c1.30417,-1.30417 3.10505,-2.1115 5.09259,-2.1115c1.98755,0 3.78843,0.80733 5.09259,2.1115z" id="ID0.7142658131197095" fill="url(#color-12)" stroke-width="0.25197"/><path d="M256.70895,188.70148h-2.8418v-10.89835h2.8418z" id="ID0.06001657713204622" fill="url(#color-13)" stroke-width="0.31371"/></g><g id="ID0.45640741009265184"><path d="M251.11501,173.0551c1.30417,1.30405 2.1115,3.10494 2.1115,5.09259c0,1.98755 -0.80733,3.78843 -2.1115,5.09248c-1.30405,1.30417 -3.10494,2.1115 -5.09259,2.1115c-1.98755,0 -3.78843,-0.80733 -5.09248,-2.1115c-1.30417,-1.30405 -2.1115,-3.10494 -2.1115,-5.09248c0,-1.98766 0.80733,-3.78854 2.1115,-5.09259c1.30405,-1.30417 3.10494,-2.1115 5.09248,-2.1115c1.98766,0 3.78854,0.80733 5.09259,2.1115z" id="ID0.7142658131197095" fill="url(#color-14)" stroke-width="0.25197"/><path d="M247.564,183.51932h-2.8418v-10.89846h2.8418z" id="ID0.06001657713204622" fill="url(#color-15)" stroke-width="0.31371"/></g><g id="ID0.45640741009265184"><path d="M252.02949,180.02821c1.30417,1.30405 2.1115,3.10494 2.1115,5.09248c0,1.98766 -0.80733,3.78843 -2.1115,5.09259c-1.30405,1.30417 -3.10494,2.1115 -5.09248,2.1115c-1.98766,0 -3.78854,-0.80733 -5.09259,-2.1115c-1.30417,-1.30417 -2.1115,-3.10494 -2.1115,-5.09259c0,-1.98755 0.80733,-3.78843 2.1115,-5.09248c1.30405,-1.30417 3.10494,-2.1115 5.09259,-2.1115c1.98755,0 3.78843,0.80733 5.09248,2.1115z" id="ID0.7142658131197095" fill="url(#color-16)" stroke-width="0.25197"/><path d="M248.44036,190.49243h-2.8418v-10.89846h2.8418z" id="ID0.06001657713204622" fill="url(#color-17)" stroke-width="0.31371"/></g><g id="ID0.45640741009265184"><path d="M257.93574,186.23909c1.30405,1.30417 2.11139,3.10505 2.11139,5.09259c0,1.98755 -0.80733,3.78843 -2.11139,5.09259c-1.30417,1.30405 -3.10505,2.1115 -5.09259,2.1115c-1.98766,0 -3.78843,-0.80745 -5.09259,-2.1115c-1.30417,-1.30417 -2.1115,-3.10505 -2.1115,-5.09259c0,-1.98755 0.80733,-3.78843 2.1115,-5.09259c1.30417,-1.30405 3.10494,-2.11139 5.09259,-2.11139c1.98755,0 3.78843,0.80733 5.09259,2.11139z" id="ID0.7142658131197095" fill="url(#color-18)" stroke-width="0.25197"/><path d="M254.34649,196.70343h-2.8418v-10.89846h2.8418z" id="ID0.06001657713204622" fill="url(#color-19)" stroke-width="0.31371"/></g><g id="ID0.45640741009265184"><path d="M266.81394,173.0551c1.30417,1.30405 2.1115,3.10494 2.1115,5.09259c0,1.98755 -0.80733,3.78843 -2.1115,5.09248c-1.30405,1.30417 -3.10494,2.1115 -5.09259,2.1115c-1.98755,0 -3.78843,-0.80733 -5.09248,-2.1115c-1.30417,-1.30405 -2.1115,-3.10494 -2.1115,-5.09248c0,-1.98766 0.80733,-3.78854 2.1115,-5.09259c1.30405,-1.30417 3.10494,-2.1115 5.09248,-2.1115c1.98766,0 3.78854,0.80733 5.09259,2.1115z" id="ID0.7142658131197095" fill="url(#color-20)" stroke-width="0.25197"/><path d="M263.22481,183.51932h-2.8418v-10.89846h2.8418z" id="ID0.06001657713204622" fill="url(#color-21)" stroke-width="0.31371"/></g><g id="ID0.45640741009265184"><path d="M289.60023,177.2084c1.30417,1.30417 2.1115,3.10505 2.1115,5.09259c0,1.98755 -0.80733,3.78843 -2.1115,5.09259c-1.30405,1.30405 -3.10494,2.1115 -5.09259,2.1115c-1.98755,0 -3.78843,-0.80745 -5.09248,-2.1115c-1.30417,-1.30417 -2.1115,-3.10505 -2.1115,-5.09259c0,-1.98755 0.80733,-3.78843 2.1115,-5.09259c1.30405,-1.30405 3.10494,-2.11139 5.09248,-2.11139c1.98766,0 3.78854,0.80733 5.09259,2.11139z" id="ID0.7142658131197095" fill="url(#color-22)" stroke-width="0.25197"/><path d="M286.0111,187.67274h-2.8418v-10.89846h2.8418z" id="ID0.06001657713204622" fill="url(#color-23)" stroke-width="0.31371"/></g></g><g id="ID0.7518231826834381"><g id="ID0.45640741009265184"><path d="M290.17184,169.05418c1.30405,1.30405 2.1115,3.10494 2.1115,5.09248c0,1.98766 -0.80745,3.78854 -2.1115,5.09259c-1.30417,1.30417 -3.10505,2.1115 -5.09259,2.1115c-1.98755,0 -3.78843,-0.80733 -5.09259,-2.1115c-1.30405,-1.30405 -2.1115,-3.10494 -2.1115,-5.09259c0,-1.98755 0.80745,-3.78843 2.1115,-5.09248c1.30417,-1.30417 3.10505,-2.1115 5.09259,-2.1115c1.98755,0 3.78843,0.80733 5.09259,2.1115z" id="ID0.7142658131197095" fill="url(#color-24)" stroke-width="0.25197"/><path d="M286.58271,179.51841h-2.84191v-10.89846h2.84191z" id="ID0.06001657713204622" fill="url(#color-25)" stroke-width="0.31371"/></g><g id="ID0.45640741009265184"><path d="M281.02678,171.45475c1.30417,1.30405 2.1115,3.10494 2.1115,5.09248c0,1.98766 -0.80733,3.78854 -2.1115,5.09259c-1.30405,1.30417 -3.10494,2.1115 -5.09248,2.1115c-1.98766,0 -3.78854,-0.80733 -5.09259,-2.1115c-1.30417,-1.30405 -2.1115,-3.10494 -2.1115,-5.09259c0,-1.98755 0.80733,-3.78843 2.1115,-5.09248c1.30405,-1.30417 3.10494,-2.1115 5.09259,-2.1115c1.98755,0 3.78843,0.80733 5.09248,2.1115z" id="ID0.7142658131197095" fill="url(#color-26)" stroke-width="0.25197"/><path d="M277.43765,181.88086h-2.8418v-10.89846h2.8418z" id="ID0.06001657713204622" fill="url(#color-27)" stroke-width="0.31371"/></g><g id="ID0.45640741009265184"><path d="M278.35958,160.7856c1.30405,1.30405 2.11139,3.10494 2.11139,5.09248c0,1.98766 -0.80733,3.78843 -2.11139,5.09259c-1.30417,1.30417 -3.10505,2.1115 -5.09259,2.1115c-1.98766,0 -3.78843,-0.80733 -5.09259,-2.1115c-1.30417,-1.30417 -2.1115,-3.10494 -2.1115,-5.09259c0,-1.98755 0.80733,-3.78843 2.1115,-5.09248c1.30417,-1.30417 3.10494,-2.1115 5.09259,-2.1115c1.98755,0 3.78843,0.80733 5.09259,2.1115z" id="ID0.7142658131197095" fill="url(#color-28)" stroke-width="0.25197"/><path d="M274.77033,171.2117h-2.8418v-10.89846h2.8418z" id="ID0.06001657713204622" fill="url(#color-29)" stroke-width="0.31371"/></g><g id="ID0.45640741009265184"><path d="M269.748,164.02441c1.30405,1.30405 2.1115,3.10494 2.1115,5.09259c0,1.98755 -0.80745,3.78843 -2.1115,5.09248c-1.30417,1.30417 -3.10505,2.1115 -5.09259,2.1115c-1.98755,0 -3.78843,-0.80733 -5.09259,-2.1115c-1.30405,-1.30405 -2.1115,-3.10494 -2.1115,-5.09248c0,-1.98766 0.80745,-3.78854 2.1115,-5.09259c1.30417,-1.30417 3.10505,-2.1115 5.09259,-2.1115c1.98755,0 3.78843,0.80733 5.09259,2.1115z" id="ID0.7142658131197095" fill="url(#color-30)" stroke-width="0.25197"/><path d="M266.19688,174.48863h-2.8418v-10.89835h2.8418z" id="ID0.06001657713204622" fill="url(#color-31)" stroke-width="0.31371"/></g><g id="ID0.45640741009265184"><path d="M266.20433,169.05418c1.30405,1.30405 2.1115,3.10494 2.1115,5.09248c0,1.98766 -0.80745,3.78854 -2.1115,5.09259c-1.30417,1.30417 -3.10505,2.1115 -5.09259,2.1115c-1.98755,0 -3.78843,-0.80733 -5.09259,-2.1115c-1.30405,-1.30405 -2.1115,-3.10494 -2.1115,-5.09259c0,-1.98755 0.80745,-3.78843 2.1115,-5.09248c1.30417,-1.30417 3.10505,-2.1115 5.09259,-2.1115c1.98755,0 3.78843,0.80733 5.09259,2.1115z" id="ID0.7142658131197095" fill="url(#color-32)" stroke-width="0.25197"/><path d="M262.61519,179.51841h-2.84191v-10.89846h2.84191z" id="ID0.06001657713204622" fill="url(#color-33)" stroke-width="0.31371"/></g><g id="ID0.45640741009265184"><path d="M255.26842,165.24374c1.30405,1.30405 2.1115,3.10494 2.1115,5.09259c0,1.98755 -0.80745,3.78843 -2.1115,5.09248c-1.30417,1.30417 -3.10505,2.1115 -5.09259,2.1115c-1.98755,0 -3.78843,-0.80733 -5.09259,-2.1115c-1.30405,-1.30405 -2.1115,-3.10494 -2.1115,-5.09248c0,-1.98766 0.80745,-3.78854 2.1115,-5.09259c1.30417,-1.30417 3.10505,-2.1115 5.09259,-2.1115c1.98755,0 3.78843,0.80733 5.09259,2.1115z" id="ID0.7142658131197095" fill="url(#color-34)" stroke-width="0.25197"/><path d="M251.67929,175.66986h-2.84191v-10.89835h2.84191z" id="ID0.06001657713204622" fill="url(#color-35)" stroke-width="0.31371"/></g><g id="ID0.45640741009265184"><path d="M246.08524,160.0616c1.30417,1.30405 2.1115,3.10494 2.1115,5.09248c0,1.98766 -0.80733,3.78843 -2.1115,5.09259c-1.30405,1.30417 -3.10494,2.1115 -5.09248,2.1115c-1.98766,0 -3.78854,-0.80733 -5.09259,-2.1115c-1.30417,-1.30417 -2.1115,-3.10494 -2.1115,-5.09259c0,-1.98755 0.80733,-3.78843 2.1115,-5.09248c1.30405,-1.30417 3.10494,-2.1115 5.09259,-2.1115c1.98755,0 3.78843,0.80733 5.09248,2.1115z" id="ID0.7142658131197095" fill="url(#color-36)" stroke-width="0.25197"/><path d="M242.53423,170.48771h-2.8418v-10.89846h2.8418z" id="ID0.06001657713204622" fill="url(#color-37)" stroke-width="0.31371"/></g><g id="ID0.45640741009265184"><path d="M246.99984,166.99647c1.30405,1.30417 2.11139,3.10505 2.11139,5.09259c0,1.98755 -0.80733,3.78843 -2.11139,5.09259c-1.30417,1.30405 -3.10505,2.1115 -5.09259,2.1115c-1.98766,0 -3.78843,-0.80745 -5.09259,-2.1115c-1.30417,-1.30417 -2.1115,-3.10505 -2.1115,-5.09259c0,-1.98755 0.80733,-3.78843 2.1115,-5.09259c1.30417,-1.30405 3.10494,-2.11139 5.09259,-2.11139c1.98755,0 3.78843,0.80733 5.09259,2.11139z" id="ID0.7142658131197095" fill="url(#color-38)" stroke-width="0.25197"/><path d="M243.41059,177.42269h-2.8418v-10.89846h2.8418z" id="ID0.06001657713204622" fill="url(#color-39)" stroke-width="0.31371"/></g><g id="ID0.45640741009265184"><path d="M252.90597,173.20748c1.30405,1.30417 2.1115,3.10505 2.1115,5.09259c0,1.98755 -0.80745,3.78843 -2.1115,5.09259c-1.30417,1.30405 -3.10505,2.1115 -5.09259,2.1115c-1.98755,0 -3.78843,-0.80745 -5.09259,-2.1115c-1.30405,-1.30417 -2.1115,-3.10505 -2.1115,-5.09259c0,-1.98755 0.80745,-3.78843 2.1115,-5.09259c1.30417,-1.30405 3.10505,-2.1115 5.09259,-2.1115c1.98755,0 3.78843,0.80745 5.09259,2.1115z" id="ID0.7142658131197095" fill="url(#color-40)" stroke-width="0.25197"/><path d="M249.31684,183.67181h-2.84191v-10.89846h2.84191z" id="ID0.06001657713204622" fill="url(#color-41)" stroke-width="0.31371"/></g><g id="ID0.45640741009265184"><path d="M261.78417,160.0616c1.30417,1.30405 2.1115,3.10494 2.1115,5.09248c0,1.98766 -0.80733,3.78843 -2.1115,5.09259c-1.30405,1.30417 -3.10494,2.1115 -5.09248,2.1115c-1.98766,0 -3.78854,-0.80733 -5.09259,-2.1115c-1.30417,-1.30417 -2.1115,-3.10494 -2.1115,-5.09259c0,-1.98755 0.80733,-3.78843 2.1115,-5.09248c1.30405,-1.30417 3.10494,-2.1115 5.09259,-2.1115c1.98755,0 3.78843,0.80733 5.09248,2.1115z" id="ID0.7142658131197095" fill="url(#color-42)" stroke-width="0.25197"/><path d="M258.19504,170.48771h-2.8418v-10.89846h2.8418z" id="ID0.06001657713204622" fill="url(#color-43)" stroke-width="0.31371"/></g><g id="ID0.45640741009265184"><path d="M284.57046,164.17679c1.30417,1.30417 2.1115,3.10505 2.1115,5.09259c0,1.98755 -0.80733,3.78843 -2.1115,5.09259c-1.30405,1.30405 -3.10494,2.1115 -5.09248,2.1115c-1.98766,0 -3.78854,-0.80745 -5.09259,-2.1115c-1.30417,-1.30417 -2.1115,-3.10505 -2.1115,-5.09259c0,-1.98755 0.80733,-3.78843 2.1115,-5.09259c1.30405,-1.30405 3.10494,-2.1115 5.09259,-2.1115c1.98755,0 3.78843,0.80745 5.09248,2.1115z" id="ID0.7142658131197095" fill="url(#color-44)" stroke-width="0.25197"/><path d="M280.98133,174.64112h-2.8418v-10.89846h2.8418z" id="ID0.06001657713204622" fill="url(#color-45)" stroke-width="0.31371"/></g></g><g id="ID0.7518231826834381"><g id="ID0.45640741009265184"><path d="M296.68759,178.69449c1.30417,1.30417 2.1115,3.10505 2.1115,5.09259c0,1.98755 -0.80733,3.78843 -2.1115,5.09259c-1.30405,1.30405 -3.10494,2.11139 -5.09248,2.11139c-1.98766,0 -3.78854,-0.80733 -5.09259,-2.11139c-1.30417,-1.30417 -2.1115,-3.10505 -2.1115,-5.09259c0,-1.98755 0.80733,-3.78843 2.1115,-5.09259c1.30405,-1.30405 3.10494,-2.1115 5.09259,-2.1115c1.98755,0 3.78843,0.80745 5.09248,2.1115z" id="ID0.7142658131197095" fill="url(#color-46)" stroke-width="0.25197"/><path d="M293.09846,189.15882h-2.8418v-10.89846h2.8418z" id="ID0.06001657713204622" fill="url(#color-47)" stroke-width="0.31371"/></g><g id="ID0.45640741009265184"><path d="M287.50452,181.05694c1.30417,1.30417 2.1115,3.10505 2.1115,5.09259c0,1.98755 -0.80733,3.78843 -2.1115,5.09259c-1.30417,1.30405 -3.10494,2.1115 -5.09259,2.1115c-1.98755,0 -3.78843,-0.80745 -5.09248,-2.1115c-1.30417,-1.30417 -2.1115,-3.10505 -2.1115,-5.09259c0,-1.98755 0.80733,-3.78843 2.1115,-5.09259c1.30405,-1.30405 3.10494,-2.1115 5.09248,-2.1115c1.98766,0 3.78843,0.80745 5.09259,2.1115z" id="ID0.7142658131197095" fill="url(#color-48)" stroke-width="0.25197"/><path d="M283.95351,191.52128h-2.84191v-10.89846h2.84191z" id="ID0.06001657713204622" fill="url(#color-49)" stroke-width="0.31371"/></g><g id="ID0.45640741009265184"><path d="M284.83721,170.38777c1.30417,1.30417 2.1115,3.10505 2.1115,5.09259c0,1.98755 -0.80733,3.78843 -2.1115,5.09259c-1.30405,1.30405 -3.10494,2.11139 -5.09248,2.11139c-1.98766,0 -3.78854,-0.80733 -5.09259,-2.11139c-1.30417,-1.30417 -2.1115,-3.10505 -2.1115,-5.09259c0,-1.98755 0.80733,-3.78843 2.1115,-5.09259c1.30405,-1.30405 3.10494,-2.1115 5.09259,-2.1115c1.98755,0 3.78843,0.80745 5.09248,2.1115z" id="ID0.7142658131197095" fill="url(#color-50)" stroke-width="0.25197"/><path d="M281.2862,180.85212h-2.8418v-10.89846h2.8418z" id="ID0.06001657713204622" fill="url(#color-51)" stroke-width="0.31371"/></g><g id="ID0.45640741009265184"><path d="M276.26376,173.66472c1.30417,1.30417 2.1115,3.10505 2.1115,5.09259c0,1.98755 -0.80733,3.78843 -2.1115,5.09259c-1.30405,1.30405 -3.10494,2.1115 -5.09248,2.1115c-1.98766,0 -3.78854,-0.80745 -5.09259,-2.1115c-1.30417,-1.30417 -2.1115,-3.10505 -2.1115,-5.09259c0,-1.98755 0.80733,-3.78843 2.1115,-5.09259c1.30405,-1.30405 3.10494,-2.1115 5.09259,-2.1115c1.98755,0 3.78843,0.80745 5.09248,2.1115z" id="ID0.7142658131197095" fill="url(#color-52)" stroke-width="0.25197"/><path d="M272.67462,184.12906h-2.8418v-10.89846h2.8418z" id="ID0.06001657713204622" fill="url(#color-53)" stroke-width="0.31371"/></g><g id="ID0.45640741009265184"><path d="M272.72008,178.69449c1.30417,1.30417 2.1115,3.10505 2.1115,5.09259c0,1.98755 -0.80733,3.78843 -2.1115,5.09259c-1.30405,1.30405 -3.10494,2.11139 -5.09248,2.11139c-1.98766,0 -3.78854,-0.80733 -5.09259,-2.11139c-1.30417,-1.30417 -2.1115,-3.10505 -2.1115,-5.09259c0,-1.98755 0.80733,-3.78843 2.1115,-5.09259c1.30405,-1.30405 3.10494,-2.1115 5.09259,-2.1115c1.98755,0 3.78843,0.80745 5.09248,2.1115z" id="ID0.7142658131197095" fill="url(#color-54)" stroke-width="0.25197"/><path d="M269.13094,189.15882h-2.8418v-10.89846h2.8418z" id="ID0.06001657713204622" fill="url(#color-55)" stroke-width="0.31371"/></g><g id="ID0.45640741009265184"><path d="M261.78417,174.84595c1.30417,1.30417 2.1115,3.10505 2.1115,5.09259c0,1.98755 -0.80733,3.78843 -2.1115,5.09259c-1.30405,1.30405 -3.10494,2.1115 -5.09248,2.1115c-1.98766,0 -3.78854,-0.80745 -5.09259,-2.1115c-1.30417,-1.30417 -2.1115,-3.10505 -2.1115,-5.09259c0,-1.98755 0.80733,-3.78843 2.1115,-5.09259c1.30405,-1.30405 3.10494,-2.1115 5.09259,-2.1115c1.98755,0 3.78843,0.80745 5.09248,2.1115z" id="ID0.7142658131197095" fill="url(#color-56)" stroke-width="0.25197"/><path d="M258.19504,185.31028h-2.8418v-10.89846h2.8418z" id="ID0.06001657713204622" fill="url(#color-57)" stroke-width="0.31371"/></g><g id="ID0.45640741009265184"><path d="M252.6011,169.6638c1.30417,1.30417 2.1115,3.10505 2.1115,5.09259c0,1.98755 -0.80733,3.78843 -2.1115,5.09259c-1.30417,1.30405 -3.10505,2.1115 -5.09259,2.1115c-1.98755,0 -3.78843,-0.80745 -5.09259,-2.1115c-1.30405,-1.30417 -2.11139,-3.10505 -2.11139,-5.09259c0,-1.98755 0.80733,-3.78843 2.11139,-5.09259c1.30417,-1.30405 3.10505,-2.1115 5.09259,-2.1115c1.98755,0 3.78843,0.80745 5.09259,2.1115z" id="ID0.7142658131197095" fill="url(#color-58)" stroke-width="0.25197"/><path d="M249.01197,180.09001h-2.84191v-10.89846h2.84191z" id="ID0.06001657713204622" fill="url(#color-59)" stroke-width="0.31371"/></g><g id="ID0.45640741009265184"><path d="M253.47746,176.59878c1.30417,1.30417 2.1115,3.10494 2.1115,5.09259c0,1.98755 -0.80733,3.78843 -2.1115,5.09248c-1.30405,1.30417 -3.10494,2.1115 -5.09248,2.1115c-1.98766,0 -3.78854,-0.80733 -5.09259,-2.1115c-1.30417,-1.30405 -2.1115,-3.10494 -2.1115,-5.09248c0,-1.98766 0.80733,-3.78843 2.1115,-5.09259c1.30405,-1.30417 3.10494,-2.1115 5.09259,-2.1115c1.98755,0 3.78843,0.80733 5.09248,2.1115z" id="ID0.7142658131197095" fill="url(#color-60)" stroke-width="0.25197"/><path d="M249.92645,187.10113h-2.8418v-10.89846h2.8418z" id="ID0.06001657713204622" fill="url(#color-61)" stroke-width="0.31371"/></g><g id="ID0.45640741009265184"><path d="M259.42172,182.8479c1.30417,1.30405 2.1115,3.10494 2.1115,5.09248c0,1.98766 -0.80733,3.78854 -2.1115,5.09259c-1.30405,1.30417 -3.10494,2.1115 -5.09259,2.1115c-1.98755,0 -3.78843,-0.80733 -5.09248,-2.1115c-1.30417,-1.30405 -2.1115,-3.10494 -2.1115,-5.09259c0,-1.98755 0.80733,-3.78843 2.1115,-5.09248c1.30405,-1.30417 3.10494,-2.1115 5.09248,-2.1115c1.98766,0 3.78854,0.80733 5.09259,2.1115z" id="ID0.7142658131197095" fill="url(#color-62)" stroke-width="0.25197"/><path d="M255.83259,193.31212h-2.8418v-10.89846h2.8418z" id="ID0.06001657713204622" fill="url(#color-63)" stroke-width="0.31371"/></g><g id="ID0.45640741009265184"><path d="M268.30004,169.6638c1.30405,1.30417 2.1115,3.10505 2.1115,5.09259c0,1.98755 -0.80745,3.78843 -2.1115,5.09259c-1.30417,1.30405 -3.10505,2.1115 -5.09259,2.1115c-1.98755,0 -3.78843,-0.80745 -5.09259,-2.1115c-1.30405,-1.30417 -2.11139,-3.10505 -2.11139,-5.09259c0,-1.98755 0.80733,-3.78843 2.11139,-5.09259c1.30417,-1.30405 3.10505,-2.1115 5.09259,-2.1115c1.98755,0 3.78843,0.80745 5.09259,2.1115z" id="ID0.7142658131197095" fill="url(#color-64)" stroke-width="0.25197"/><path d="M264.7109,180.09001h-2.84191v-10.89846h2.84191z" id="ID0.06001657713204622" fill="url(#color-65)" stroke-width="0.31371"/></g><g id="ID0.45640741009265184"><path d="M291.08633,173.81721c1.30417,1.30405 2.1115,3.10494 2.1115,5.09248c0,1.98766 -0.80733,3.78854 -2.1115,5.09259c-1.30417,1.30417 -3.10494,2.1115 -5.09259,2.1115c-1.98755,0 -3.78843,-0.80733 -5.09259,-2.1115c-1.30405,-1.30405 -2.11139,-3.10494 -2.11139,-5.09259c0,-1.98755 0.80733,-3.78843 2.11139,-5.09248c1.30417,-1.30417 3.10505,-2.1115 5.09259,-2.1115c1.98766,0 3.78843,0.80733 5.09259,2.1115z" id="ID0.7142658131197095" fill="url(#color-66)" stroke-width="0.25197"/><path d="M287.49719,184.28143h-2.8418v-10.89846h2.8418z" id="ID0.06001657713204622" fill="url(#color-67)" stroke-width="0.31371"/></g></g></g><g data-paper-data="{&quot;origPos&quot;:null}" id="ID0.02617399161681533" stroke="none"><g id="ID0.7518231826834381"><g id="ID0.45640741009265184"><path d="M189.89109,183.48854c1.98755,0 3.78843,0.80733 5.09259,2.1115c1.30405,1.30405 2.11139,3.10494 2.11139,5.09248c0,1.98766 -0.80733,3.78854 -2.11139,5.09259c-1.30417,1.30417 -3.10505,2.1115 -5.09259,2.1115c-1.98755,0 -3.78843,-0.80733 -5.09259,-2.1115c-1.30405,-1.30405 -2.1115,-3.10494 -2.1115,-5.09259c0,-1.98755 0.80745,-3.78843 2.1115,-5.09248c1.30417,-1.30417 3.10505,-2.1115 5.09259,-2.1115z" id="ID0.7142658131197095" fill="url(#color-68)" stroke-width="0.25197"/><path d="M188.38763,185.1658h2.84191v10.89846h-2.84191z" id="ID0.06001657713204622" fill="url(#color-69)" stroke-width="0.31371"/></g><g id="ID0.45640741009265184"><path d="M199.03604,185.85098c1.98766,0 3.78854,0.80733 5.09259,2.1115c1.30417,1.30405 2.1115,3.10494 2.1115,5.09248c0,1.98766 -0.80733,3.78854 -2.1115,5.09259c-1.30405,1.30417 -3.10494,2.1115 -5.09259,2.1115c-1.98755,0 -3.78843,-0.80733 -5.09248,-2.1115c-1.30417,-1.30405 -2.1115,-3.10494 -2.1115,-5.09259c0,-1.98755 0.80733,-3.78843 2.1115,-5.09248c1.30405,-1.30417 3.10494,-2.1115 5.09248,-2.1115z" id="ID0.7142658131197095" fill="url(#color-70)" stroke-width="0.25197"/><path d="M197.53269,187.52826h2.8418v10.89846h-2.8418z" id="ID0.06001657713204622" fill="url(#color-71)" stroke-width="0.31371"/></g><g id="ID0.45640741009265184"><path d="M201.70336,175.21995c1.98755,0 3.78843,0.80733 5.09259,2.11139c1.30405,1.30417 2.1115,3.10505 2.1115,5.09259c0,1.98755 -0.80745,3.78843 -2.1115,5.09259c-1.30417,1.30405 -3.10505,2.1115 -5.09259,2.1115c-1.98755,0 -3.78843,-0.80745 -5.09259,-2.1115c-1.30405,-1.30417 -2.11139,-3.10505 -2.11139,-5.09259c0,-1.98755 0.80733,-3.78843 2.11139,-5.09259c1.30417,-1.30405 3.10505,-2.11139 5.09259,-2.11139z" id="ID0.7142658131197095" fill="url(#color-72)" stroke-width="0.25197"/><path d="M200.20001,176.89722h2.8418v10.89846h-2.8418z" id="ID0.06001657713204622" fill="url(#color-73)" stroke-width="0.31371"/></g><g id="ID0.45640741009265184"><path d="M210.31493,178.45876c1.98755,0 3.78843,0.80733 5.09259,2.1115c1.30405,1.30405 2.11139,3.10494 2.11139,5.09259c0,1.98755 -0.80733,3.78843 -2.11139,5.09248c-1.30417,1.30417 -3.10505,2.1115 -5.09259,2.1115c-1.98755,0 -3.78843,-0.80733 -5.09259,-2.1115c-1.30405,-1.30405 -2.1115,-3.10494 -2.1115,-5.09248c0,-1.98766 0.80745,-3.78854 2.1115,-5.09259c1.30417,-1.30417 3.10505,-2.1115 5.09259,-2.1115z" id="ID0.7142658131197095" fill="url(#color-74)" stroke-width="0.25197"/><path d="M208.77335,180.13603h2.84191v10.89846h-2.84191z" id="ID0.06001657713204622" fill="url(#color-75)" stroke-width="0.31371"/></g><g id="ID0.45640741009265184"><path d="M213.85861,183.48854c1.98755,0 3.78843,0.80733 5.09259,2.1115c1.30405,1.30405 2.1115,3.10494 2.1115,5.09248c0,1.98766 -0.80745,3.78854 -2.1115,5.09259c-1.30417,1.30417 -3.10505,2.1115 -5.09259,2.1115c-1.98755,0 -3.78843,-0.80733 -5.09259,-2.1115c-1.30405,-1.30405 -2.1115,-3.10494 -2.1115,-5.09259c0,-1.98755 0.80745,-3.78843 2.1115,-5.09248c1.30417,-1.30417 3.10505,-2.1115 5.09259,-2.1115z" id="ID0.7142658131197095" fill="url(#color-76)" stroke-width="0.25197"/><path d="M212.35515,185.1658h2.84191v10.89846h-2.84191z" id="ID0.06001657713204622" fill="url(#color-77)" stroke-width="0.31371"/></g><g id="ID0.45640741009265184"><path d="M224.79451,179.63999c1.98755,0 3.78843,0.80733 5.09259,2.1115c1.30405,1.30405 2.1115,3.10494 2.1115,5.09259c0,1.98755 -0.80745,3.78843 -2.1115,5.09248c-1.30417,1.30417 -3.10505,2.1115 -5.09259,2.1115c-1.98755,0 -3.78843,-0.80733 -5.09259,-2.1115c-1.30405,-1.30405 -2.1115,-3.10494 -2.1115,-5.09248c0,-1.98766 0.80745,-3.78854 2.1115,-5.09259c1.30417,-1.30417 3.10505,-2.1115 5.09259,-2.1115z" id="ID0.7142658131197095" fill="url(#color-78)" stroke-width="0.25197"/><path d="M223.29105,181.31726h2.84191v10.89846h-2.84191z" id="ID0.06001657713204622" fill="url(#color-79)" stroke-width="0.31371"/></g><g id="ID0.45640741009265184"><path d="M233.97758,174.45784c1.98766,0 3.78843,0.80733 5.09259,2.1115c1.30417,1.30405 2.1115,3.10494 2.1115,5.09248c0,1.98766 -0.80733,3.78854 -2.1115,5.09259c-1.30417,1.30417 -3.10494,2.1115 -5.09259,2.1115c-1.98755,0 -3.78843,-0.80733 -5.09248,-2.1115c-1.30417,-1.30405 -2.1115,-3.10494 -2.1115,-5.09259c0,-1.98755 0.80733,-3.78843 2.1115,-5.09248c1.30405,-1.30417 3.10494,-2.1115 5.09248,-2.1115z" id="ID0.7142658131197095" fill="url(#color-80)" stroke-width="0.25197"/><path d="M232.43611,176.13511h2.8418v10.89846h-2.8418z" id="ID0.06001657713204622" fill="url(#color-81)" stroke-width="0.31371"/></g><g id="ID0.45640741009265184"><path d="M233.0631,181.43084c1.98755,0 3.78843,0.80745 5.09259,2.1115c1.30405,1.30417 2.1115,3.10505 2.1115,5.09259c0,1.98755 -0.80745,3.78843 -2.1115,5.09259c-1.30417,1.30405 -3.10505,2.1115 -5.09259,2.1115c-1.98755,0 -3.78843,-0.80745 -5.09259,-2.1115c-1.30405,-1.30417 -2.11139,-3.10505 -2.11139,-5.09259c0,-1.98755 0.80733,-3.78843 2.11139,-5.09259c1.30417,-1.30405 3.10505,-2.1115 5.09259,-2.1115z" id="ID0.7142658131197095" fill="url(#color-82)" stroke-width="0.25197"/><path d="M231.55975,183.10822h2.8418v10.89846h-2.8418z" id="ID0.06001657713204622" fill="url(#color-83)" stroke-width="0.31371"/></g><g id="ID0.45640741009265184"><path d="M227.15697,187.64183c1.98755,0 3.78843,0.80745 5.09259,2.1115c1.30405,1.30417 2.1115,3.10505 2.1115,5.09259c0,1.98755 -0.80745,3.78843 -2.1115,5.09259c-1.30417,1.30405 -3.10505,2.11139 -5.09259,2.11139c-1.98755,0 -3.78843,-0.80733 -5.09259,-2.11139c-1.30405,-1.30417 -2.1115,-3.10505 -2.1115,-5.09259c0,-1.98755 0.80745,-3.78843 2.1115,-5.09259c1.30417,-1.30405 3.10505,-2.1115 5.09259,-2.1115z" id="ID0.7142658131197095" fill="url(#color-84)" stroke-width="0.25197"/><path d="M225.65351,189.31921h2.84191v10.89846h-2.84191z" id="ID0.06001657713204622" fill="url(#color-85)" stroke-width="0.31371"/></g><g id="ID0.45640741009265184"><path d="M218.27865,174.45784c1.98766,0 3.78854,0.80733 5.09259,2.1115c1.30417,1.30405 2.1115,3.10494 2.1115,5.09248c0,1.98766 -0.80733,3.78854 -2.1115,5.09259c-1.30405,1.30417 -3.10494,2.1115 -5.09259,2.1115c-1.98755,0 -3.78843,-0.80733 -5.09248,-2.1115c-1.30417,-1.30405 -2.1115,-3.10494 -2.1115,-5.09259c0,-1.98755 0.80733,-3.78843 2.1115,-5.09248c1.30405,-1.30417 3.10494,-2.1115 5.09248,-2.1115z" id="ID0.7142658131197095" fill="url(#color-86)" stroke-width="0.25197"/><path d="M216.7753,176.13511h2.8418v10.89846h-2.8418z" id="ID0.06001657713204622" fill="url(#color-87)" stroke-width="0.31371"/></g><g id="ID0.45640741009265184"><path d="M195.49236,178.61114c1.98766,0 3.78843,0.80745 5.09259,2.1115c1.30417,1.30417 2.1115,3.10505 2.1115,5.09259c0,1.98755 -0.80733,3.78843 -2.1115,5.09259c-1.30417,1.30405 -3.10494,2.11139 -5.09259,2.11139c-1.98755,0 -3.78843,-0.80733 -5.09248,-2.11139c-1.30417,-1.30417 -2.1115,-3.10505 -2.1115,-5.09259c0,-1.98755 0.80733,-3.78843 2.1115,-5.09259c1.30405,-1.30405 3.10494,-2.1115 5.09248,-2.1115z" id="ID0.7142658131197095" fill="url(#color-88)" stroke-width="0.25197"/><path d="M193.98901,180.28852h2.8418v10.89846h-2.8418z" id="ID0.06001657713204622" fill="url(#color-89)" stroke-width="0.31371"/></g></g><g id="ID0.7518231826834381"><g id="ID0.45640741009265184"><path d="M194.92086,170.45691c1.98755,0 3.78843,0.80733 5.09248,2.11139c1.30417,1.30417 2.1115,3.10505 2.1115,5.09259c0,1.98755 -0.80733,3.78843 -2.1115,5.09259c-1.30405,1.30417 -3.10494,2.1115 -5.09248,2.1115c-1.98766,0 -3.78854,-0.80733 -5.09259,-2.1115c-1.30417,-1.30417 -2.1115,-3.10505 -2.1115,-5.09259c0,-1.98755 0.80733,-3.78843 2.1115,-5.09259c1.30405,-1.30405 3.10494,-2.11139 5.09259,-2.11139z" id="ID0.7142658131197095" fill="url(#color-90)" stroke-width="0.25197"/><path d="M193.4174,172.13419h2.8418v10.89846h-2.8418z" id="ID0.06001657713204622" fill="url(#color-91)" stroke-width="0.31371"/></g><g id="ID0.45640741009265184"><path d="M204.06581,172.85738c1.98755,0 3.78843,0.80745 5.09259,2.1115c1.30417,1.30417 2.1115,3.10505 2.1115,5.09259c0,1.98755 -0.80733,3.78843 -2.1115,5.09259c-1.30417,1.30405 -3.10505,2.1115 -5.09259,2.1115c-1.98755,0 -3.78843,-0.80745 -5.09259,-2.1115c-1.30405,-1.30417 -2.11139,-3.10505 -2.11139,-5.09259c0,-1.98755 0.80733,-3.78843 2.11139,-5.09259c1.30417,-1.30405 3.10505,-2.1115 5.09259,-2.1115z" id="ID0.7142658131197095" fill="url(#color-92)" stroke-width="0.25197"/><path d="M202.56246,174.49664h2.8418v10.89846h-2.8418z" id="ID0.06001657713204622" fill="url(#color-93)" stroke-width="0.31371"/></g><g id="ID0.45640741009265184"><path d="M206.73313,162.18822c1.98755,0 3.78843,0.80745 5.09259,2.1115c1.30405,1.30417 2.1115,3.10505 2.1115,5.09259c0,1.98755 -0.80745,3.78843 -2.1115,5.09259c-1.30417,1.30405 -3.10505,2.1115 -5.09259,2.1115c-1.98755,0 -3.78843,-0.80745 -5.09259,-2.1115c-1.30405,-1.30417 -2.1115,-3.10505 -2.1115,-5.09259c0,-1.98755 0.80745,-3.78843 2.1115,-5.09259c1.30417,-1.30405 3.10505,-2.1115 5.09259,-2.1115z" id="ID0.7142658131197095" fill="url(#color-94)" stroke-width="0.25197"/><path d="M205.22967,163.82747h2.84191v10.89846h-2.84191z" id="ID0.06001657713204622" fill="url(#color-95)" stroke-width="0.31371"/></g><g id="ID0.45640741009265184"><path d="M215.3447,165.42715c1.98755,0 3.78843,0.80733 5.09248,2.1115c1.30417,1.30405 2.1115,3.10494 2.1115,5.09248c0,1.98766 -0.80733,3.78854 -2.1115,5.09259c-1.30405,1.30417 -3.10494,2.1115 -5.09248,2.1115c-1.98766,0 -3.78843,-0.80733 -5.09259,-2.1115c-1.30417,-1.30405 -2.1115,-3.10494 -2.1115,-5.09259c0,-1.98755 0.80733,-3.78843 2.1115,-5.09248c1.30417,-1.30417 3.10494,-2.1115 5.09259,-2.1115z" id="ID0.7142658131197095" fill="url(#color-96)" stroke-width="0.25197"/><path d="M213.80312,167.10442h2.84191v10.89846h-2.84191z" id="ID0.06001657713204622" fill="url(#color-97)" stroke-width="0.31371"/></g><g id="ID0.45640741009265184"><path d="M218.88838,170.45691c1.98755,0 3.78843,0.80733 5.09259,2.11139c1.30405,1.30417 2.11139,3.10505 2.11139,5.09259c0,1.98755 -0.80733,3.78843 -2.11139,5.09259c-1.30417,1.30417 -3.10505,2.1115 -5.09259,2.1115c-1.98755,0 -3.78843,-0.80733 -5.09259,-2.1115c-1.30417,-1.30417 -2.1115,-3.10505 -2.1115,-5.09259c0,-1.98755 0.80733,-3.78843 2.1115,-5.09259c1.30417,-1.30405 3.10505,-2.11139 5.09259,-2.11139z" id="ID0.7142658131197095" fill="url(#color-98)" stroke-width="0.25197"/><path d="M217.38492,172.13419h2.8418v10.89846h-2.8418z" id="ID0.06001657713204622" fill="url(#color-99)" stroke-width="0.31371"/></g><g id="ID0.45640741009265184"><path d="M229.82429,166.6465c1.98755,0 3.78843,0.80733 5.09259,2.11139c1.30405,1.30417 2.11139,3.10505 2.11139,5.09259c0,1.98766 -0.80733,3.78843 -2.11139,5.09259c-1.30417,1.30417 -3.10505,2.1115 -5.09259,2.1115c-1.98766,0 -3.78843,-0.80733 -5.09259,-2.1115c-1.30417,-1.30417 -2.1115,-3.10494 -2.1115,-5.09259c0,-1.98755 0.80733,-3.78843 2.1115,-5.09259c1.30417,-1.30405 3.10494,-2.11139 5.09259,-2.11139z" id="ID0.7142658131197095" fill="url(#color-100)" stroke-width="0.25197"/><path d="M228.32082,168.28564h2.8418v10.89846h-2.8418z" id="ID0.06001657713204622" fill="url(#color-101)" stroke-width="0.31371"/></g><g id="ID0.45640741009265184"><path d="M239.00735,161.46423c1.98755,0 3.78843,0.80745 5.09259,2.1115c1.30405,1.30417 2.1115,3.10505 2.1115,5.09259c0,1.98755 -0.80745,3.78843 -2.1115,5.09259c-1.30417,1.30405 -3.10505,2.1115 -5.09259,2.1115c-1.98755,0 -3.78843,-0.80745 -5.09259,-2.1115c-1.30405,-1.30417 -2.11139,-3.10505 -2.11139,-5.09259c0,-1.98755 0.80733,-3.78843 2.11139,-5.09259c1.30417,-1.30405 3.10505,-2.1115 5.09259,-2.1115z" id="ID0.7142658131197095" fill="url(#color-102)" stroke-width="0.25197"/><path d="M237.46588,163.1035h2.8418v10.89846h-2.8418z" id="ID0.06001657713204622" fill="url(#color-103)" stroke-width="0.31371"/></g><g id="ID0.45640741009265184"><path d="M238.09287,168.39922c1.98755,0 3.78843,0.80745 5.09259,2.1115c1.30405,1.30417 2.1115,3.10505 2.1115,5.09259c0,1.98755 -0.80745,3.78843 -2.1115,5.09259c-1.30417,1.30405 -3.10505,2.11139 -5.09259,2.11139c-1.98755,0 -3.78843,-0.80733 -5.09259,-2.11139c-1.30405,-1.30417 -2.1115,-3.10505 -2.1115,-5.09259c0,-1.98755 0.80745,-3.78843 2.1115,-5.09259c1.30417,-1.30405 3.10505,-2.1115 5.09259,-2.1115z" id="ID0.7142658131197095" fill="url(#color-104)" stroke-width="0.25197"/><path d="M236.58941,170.03848h2.84191v10.89846h-2.84191z" id="ID0.06001657713204622" fill="url(#color-105)" stroke-width="0.31371"/></g><g id="ID0.45640741009265184"><path d="M232.18674,174.61022c1.98755,0 3.78843,0.80733 5.09259,2.1115c1.30405,1.30417 2.11139,3.10494 2.11139,5.09259c0,1.98755 -0.80733,3.78843 -2.11139,5.09248c-1.30417,1.30417 -3.10505,2.1115 -5.09259,2.1115c-1.98755,0 -3.78843,-0.80733 -5.09259,-2.1115c-1.30417,-1.30405 -2.1115,-3.10494 -2.1115,-5.09248c0,-1.98766 0.80733,-3.78843 2.1115,-5.09259c1.30417,-1.30417 3.10505,-2.1115 5.09259,-2.1115z" id="ID0.7142658131197095" fill="url(#color-106)" stroke-width="0.25197"/><path d="M230.68328,176.2876h2.84191v10.89835h-2.84191z" id="ID0.06001657713204622" fill="url(#color-107)" stroke-width="0.31371"/></g><g id="ID0.45640741009265184"><path d="M223.30842,161.46423c1.98755,0 3.78843,0.80745 5.09259,2.1115c1.30417,1.30417 2.1115,3.10505 2.1115,5.09259c0,1.98755 -0.80733,3.78843 -2.1115,5.09259c-1.30417,1.30405 -3.10505,2.1115 -5.09259,2.1115c-1.98755,0 -3.78843,-0.80745 -5.09259,-2.1115c-1.30405,-1.30417 -2.11139,-3.10505 -2.11139,-5.09259c0,-1.98755 0.80733,-3.78843 2.11139,-5.09259c1.30417,-1.30405 3.10505,-2.1115 5.09259,-2.1115z" id="ID0.7142658131197095" fill="url(#color-108)" stroke-width="0.25197"/><path d="M221.80507,163.1035h2.8418v10.89846h-2.8418z" id="ID0.06001657713204622" fill="url(#color-109)" stroke-width="0.31371"/></g><g id="ID0.45640741009265184"><path d="M200.52213,165.57952c1.98755,0 3.78843,0.80733 5.09259,2.1115c1.30405,1.30417 2.1115,3.10494 2.1115,5.09259c0,1.98755 -0.80745,3.78843 -2.1115,5.09248c-1.30417,1.30417 -3.10505,2.1115 -5.09259,2.1115c-1.98755,0 -3.78843,-0.80733 -5.09259,-2.1115c-1.30405,-1.30405 -2.1115,-3.10494 -2.1115,-5.09248c0,-1.98766 0.80745,-3.78843 2.1115,-5.09259c1.30417,-1.30417 3.10505,-2.1115 5.09259,-2.1115z" id="ID0.7142658131197095" fill="url(#color-110)" stroke-width="0.25197"/><path d="M199.01878,167.25689h2.8418v10.89835h-2.8418z" id="ID0.06001657713204622" fill="url(#color-111)" stroke-width="0.31371"/></g></g><g id="ID0.7518231826834381"><g id="ID0.45640741009265184"><path d="M188.405,180.09722c1.98755,0 3.78843,0.80733 5.09259,2.1115c1.30405,1.30405 2.1115,3.10494 2.1115,5.09259c0,1.98755 -0.80745,3.78843 -2.1115,5.09248c-1.30417,1.30417 -3.10505,2.1115 -5.09259,2.1115c-1.98755,0 -3.78843,-0.80733 -5.09259,-2.1115c-1.30405,-1.30405 -2.1115,-3.10494 -2.1115,-5.09248c0,-1.98766 0.80745,-3.78854 2.1115,-5.09259c1.30417,-1.30417 3.10505,-2.1115 5.09259,-2.1115z" id="ID0.7142658131197095" fill="url(#color-112)" stroke-width="0.25197"/><path d="M186.90165,181.7745h2.8418v10.89846h-2.8418z" id="ID0.06001657713204622" fill="url(#color-113)" stroke-width="0.31371"/></g><g id="ID0.45640741009265184"><path d="M197.58807,182.45968c1.98766,0 3.78854,0.80733 5.09259,2.1115c1.30417,1.30417 2.1115,3.10494 2.1115,5.09259c0,1.98755 -0.80733,3.78843 -2.1115,5.09248c-1.30405,1.30417 -3.10494,2.1115 -5.09259,2.1115c-1.98755,0 -3.78843,-0.80733 -5.09248,-2.1115c-1.30417,-1.30405 -2.1115,-3.10494 -2.1115,-5.09248c0,-1.98766 0.80733,-3.78843 2.1115,-5.09259c1.30405,-1.30417 3.10494,-2.1115 5.09248,-2.1115z" id="ID0.7142658131197095" fill="url(#color-114)" stroke-width="0.25197"/><path d="M196.0466,184.13707h2.8418v10.89835h-2.8418z" id="ID0.06001657713204622" fill="url(#color-115)" stroke-width="0.31371"/></g><g id="ID0.45640741009265184"><path d="M200.25539,171.79053c1.98766,0 3.78843,0.80733 5.09259,2.1115c1.30417,1.30405 2.1115,3.10494 2.1115,5.09259c0,1.98755 -0.80733,3.78843 -2.1115,5.09248c-1.30417,1.30417 -3.10494,2.1115 -5.09259,2.1115c-1.98755,0 -3.78843,-0.80733 -5.09259,-2.1115c-1.30405,-1.30405 -2.11139,-3.10494 -2.11139,-5.09248c0,-1.98766 0.80733,-3.78854 2.11139,-5.09259c1.30417,-1.30417 3.10505,-2.1115 5.09259,-2.1115z" id="ID0.7142658131197095" fill="url(#color-116)" stroke-width="0.25197"/><path d="M198.71392,173.46779h2.8418v10.89846h-2.8418z" id="ID0.06001657713204622" fill="url(#color-117)" stroke-width="0.31371"/></g><g id="ID0.45640741009265184"><path d="M208.82884,175.06746c1.98755,0 3.78843,0.80733 5.09259,2.1115c1.30405,1.30417 2.1115,3.10505 2.1115,5.09259c0,1.98755 -0.80745,3.78843 -2.1115,5.09259c-1.30417,1.30405 -3.10505,2.11139 -5.09259,2.11139c-1.98755,0 -3.78843,-0.80733 -5.09259,-2.11139c-1.30405,-1.30417 -2.11139,-3.10505 -2.11139,-5.09259c0,-1.98755 0.80733,-3.78843 2.11139,-5.09259c1.30417,-1.30417 3.10505,-2.1115 5.09259,-2.1115z" id="ID0.7142658131197095" fill="url(#color-118)" stroke-width="0.25197"/><path d="M207.32549,176.74484h2.8418v10.89835h-2.8418z" id="ID0.06001657713204622" fill="url(#color-119)" stroke-width="0.31371"/></g><g id="ID0.45640741009265184"><path d="M212.37252,180.09722c1.98766,0 3.78843,0.80733 5.09259,2.1115c1.30417,1.30405 2.1115,3.10494 2.1115,5.09259c0,1.98755 -0.80733,3.78843 -2.1115,5.09248c-1.30417,1.30417 -3.10494,2.1115 -5.09259,2.1115c-1.98755,0 -3.78843,-0.80733 -5.09259,-2.1115c-1.30405,-1.30405 -2.11139,-3.10494 -2.11139,-5.09248c0,-1.98766 0.80733,-3.78854 2.11139,-5.09259c1.30417,-1.30417 3.10505,-2.1115 5.09259,-2.1115z" id="ID0.7142658131197095" fill="url(#color-120)" stroke-width="0.25197"/><path d="M210.86917,181.7745h2.8418v10.89846h-2.8418z" id="ID0.06001657713204622" fill="url(#color-121)" stroke-width="0.31371"/></g><g id="ID0.45640741009265184"><path d="M223.30842,176.24869c1.98755,0 3.78843,0.80733 5.09259,2.1115c1.30417,1.30417 2.1115,3.10505 2.1115,5.09259c0,1.98755 -0.80733,3.78843 -2.1115,5.09259c-1.30417,1.30405 -3.10505,2.11139 -5.09259,2.11139c-1.98755,0 -3.78843,-0.80733 -5.09259,-2.11139c-1.30405,-1.30417 -2.11139,-3.10505 -2.11139,-5.09259c0,-1.98755 0.80733,-3.78843 2.11139,-5.09259c1.30417,-1.30417 3.10505,-2.1115 5.09259,-2.1115z" id="ID0.7142658131197095" fill="url(#color-122)" stroke-width="0.25197"/><path d="M221.80507,177.92607h2.8418v10.89835h-2.8418z" id="ID0.06001657713204622" fill="url(#color-123)" stroke-width="0.31371"/></g><g id="ID0.45640741009265184"><path d="M232.4916,171.06654c1.98755,0 3.78843,0.80733 5.09248,2.1115c1.30417,1.30405 2.1115,3.10494 2.1115,5.09259c0,1.98755 -0.80733,3.78843 -2.1115,5.09248c-1.30405,1.30417 -3.10494,2.1115 -5.09248,2.1115c-1.98766,0 -3.78854,-0.80733 -5.09259,-2.1115c-1.30417,-1.30405 -2.1115,-3.10494 -2.1115,-5.09248c0,-1.98766 0.80733,-3.78854 2.1115,-5.09259c1.30405,-1.30417 3.10494,-2.1115 5.09259,-2.1115z" id="ID0.7142658131197095" fill="url(#color-124)" stroke-width="0.25197"/><path d="M230.98814,172.7058h2.8418v10.89835h-2.8418z" id="ID0.06001657713204622" fill="url(#color-125)" stroke-width="0.31371"/></g><g id="ID0.45640741009265184"><path d="M231.61513,178.00152c1.98766,0 3.78843,0.80733 5.09259,2.1115c1.30417,1.30405 2.1115,3.10494 2.1115,5.09248c0,1.98766 -0.80733,3.78854 -2.1115,5.09259c-1.30417,1.30417 -3.10494,2.1115 -5.09259,2.1115c-1.98755,0 -3.78843,-0.80733 -5.09259,-2.1115c-1.30405,-1.30405 -2.11139,-3.10494 -2.11139,-5.09259c0,-1.98755 0.80733,-3.78843 2.11139,-5.09248c1.30417,-1.30417 3.10505,-2.1115 5.09259,-2.1115z" id="ID0.7142658131197095" fill="url(#color-126)" stroke-width="0.25197"/><path d="M230.07366,179.71691h2.8418v10.89846h-2.8418z" id="ID0.06001657713204622" fill="url(#color-127)" stroke-width="0.31371"/></g><g id="ID0.45640741009265184"><path d="M225.67088,184.25064c1.98766,0 3.78843,0.80733 5.09259,2.11139c1.30417,1.30417 2.1115,3.10505 2.1115,5.09259c0,1.98755 -0.80733,3.78843 -2.1115,5.09259c-1.30417,1.30405 -3.10494,2.1115 -5.09259,2.1115c-1.98755,0 -3.78843,-0.80745 -5.09259,-2.1115c-1.30405,-1.30417 -2.11139,-3.10505 -2.11139,-5.09259c0,-1.98755 0.80733,-3.78843 2.11139,-5.09259c1.30417,-1.30405 3.10505,-2.11139 5.09259,-2.11139z" id="ID0.7142658131197095" fill="url(#color-128)" stroke-width="0.25197"/><path d="M224.16753,185.92791h2.8418v10.89846h-2.8418z" id="ID0.06001657713204622" fill="url(#color-129)" stroke-width="0.31371"/></g><g id="ID0.45640741009265184"><path d="M216.79267,171.06654c1.98755,0 3.78843,0.80733 5.09248,2.1115c1.30417,1.30405 2.1115,3.10494 2.1115,5.09259c0,1.98755 -0.80733,3.78843 -2.1115,5.09248c-1.30405,1.30417 -3.10494,2.1115 -5.09248,2.1115c-1.98766,0 -3.78854,-0.80733 -5.09259,-2.1115c-1.30417,-1.30405 -2.1115,-3.10494 -2.1115,-5.09248c0,-1.98766 0.80733,-3.78854 2.1115,-5.09259c1.30405,-1.30417 3.10494,-2.1115 5.09259,-2.1115z" id="ID0.7142658131197095" fill="url(#color-130)" stroke-width="0.25197"/><path d="M215.28921,172.7058h2.8418v10.89835h-2.8418z" id="ID0.06001657713204622" fill="url(#color-131)" stroke-width="0.31371"/></g><g id="ID0.45640741009265184"><path d="M194.00638,175.21995c1.98755,0 3.78843,0.80733 5.09248,2.11139c1.30417,1.30417 2.1115,3.10505 2.1115,5.09259c0,1.98755 -0.80733,3.78843 -2.1115,5.09259c-1.30405,1.30405 -3.10494,2.1115 -5.09248,2.1115c-1.98766,0 -3.78854,-0.80745 -5.09259,-2.1115c-1.30417,-1.30417 -2.1115,-3.10505 -2.1115,-5.09259c0,-1.98755 0.80733,-3.78843 2.1115,-5.09259c1.30405,-1.30405 3.10494,-2.11139 5.09259,-2.11139z" id="ID0.7142658131197095" fill="url(#color-132)" stroke-width="0.25197"/><path d="M192.50292,176.89722h2.8418v10.89846h-2.8418z" id="ID0.06001657713204622" fill="url(#color-133)" stroke-width="0.31371"/></g></g></g></g></g></svg>