<svg version="1.1" xmlns="http://www.w3.org/2000/svg" xmlns:xlink="http://www.w3.org/1999/xlink" width="117.54269" height="168.99144"><g transform="translate(-175,-63.55125)"><g data-paper-data="{&quot;isPaintingLayer&quot;:true}" fill="none" fill-rule="nonzero" stroke="none" stroke-width="none" stroke-linecap="none" stroke-linejoin="miter" stroke-miterlimit="10" stroke-dasharray="" stroke-dashoffset="0" font-family="none" font-weight="none" font-size="none" text-anchor="none" style="mix-blend-mode: normal"><path d="M182.45731,191.5c0,-13.83069 11.212,-25.04269 25.04269,-25.04269c13.83069,0 25.04269,11.212 25.04269,25.04269c0,13.83069 -11.212,25.04269 -25.04269,25.04269c-13.83069,0 -25.04269,-11.212 -25.04269,-25.04269z" data-paper-data="{&quot;origPos&quot;:null}" fill="#fff059" stroke="#e6cd00" stroke-width="3" stroke-linecap="butt"/><path d="M188.95731,180c0,-28.1901 22.85259,-51.04269 51.04269,-51.04269c28.1901,0 51.04269,22.85259 51.04269,51.04269c0,28.1901 -22.85259,51.04269 -51.04269,51.04269c-28.1901,0 -51.04269,-22.85259 -51.04269,-51.04269z" data-paper-data="{&quot;origPos&quot;:null}" fill="#fff059" stroke="#e6cd00" stroke-width="3" stroke-linecap="butt"/><path d="M210.75668,93.73828c0,0 19.2699,4.54273 24.25288,10.7173c6.47105,8.01847 5.09666,25.65062 5.09666,25.65062" data-paper-data="{&quot;origPos&quot;:null}" fill="none" stroke="#84eb36" stroke-width="3" stroke-linecap="round"/><path d="M281.38242,125.97378c-1.52882,6.56861 -1.1527,6.28268 -16.3438,4.2359c-15.1911,-2.04678 -27.12448,-6.53702 -26.65396,-10.02923c0.47053,-3.4922 13.16678,-4.66395 28.35788,-2.61717c15.1911,2.04678 16.30648,1.24993 14.63988,8.4105z" data-paper-data="{&quot;origPos&quot;:null,&quot;origRot&quot;:0}" fill="#84eb36" stroke="none" stroke-width="0" stroke-linecap="butt"/><path d="M210.73588,107.8885c15.1911,-2.04678 27.88735,-0.87503 28.35788,2.61718c0.47053,3.4922 -11.46286,7.98244 -26.65396,10.02922c-15.1911,2.04678 -14.81497,2.33271 -16.3438,-4.2359c-1.6666,-7.16057 -0.55122,-6.36372 14.63988,-8.4105z" data-paper-data="{&quot;origPos&quot;:null,&quot;origRot&quot;:0,&quot;index&quot;:null}" fill="#84eb36" stroke="none" stroke-width="0" stroke-linecap="butt"/><path d="M215.07919,74.92231c-0.79194,6.64815 -3.72295,13.87422 -7.77528,13.87422c-4.05232,0 -7.12946,-7.26736 -8.21318,-13.87422c-1.31368,-8.00883 4.16085,-10.37106 8.21318,-10.37106c4.05232,0 8.65107,3.01907 7.77528,10.37106z" data-paper-data="{&quot;origPos&quot;:null}" fill="#fff7d7" stroke="#e6e2bf" stroke-width="2" stroke-linecap="butt"/><path d="M207.48708,122.69753c-4.05232,0 -9.52686,-2.36223 -8.21318,-10.37106c1.08372,-6.60686 4.16085,-13.87422 8.21318,-13.87422c4.05232,0 6.98334,7.22607 7.77528,13.87422c0.87579,7.35199 -3.72296,10.37106 -7.77528,10.37106z" data-paper-data="{&quot;origPos&quot;:null,&quot;index&quot;:null}" fill="#fff7d7" stroke="#e6e2bf" stroke-width="2" stroke-linecap="butt"/><path d="M234.70377,107.01689c-1.5391,3.74867 -5.80358,7.91578 -12.71333,3.65874c-5.70018,-3.51184 -11.25425,-9.11857 -9.71515,-12.86724c1.5391,-3.74867 9.33691,-3.71554 15.78767,-1.92314c7.13371,1.98217 8.17991,7.38297 6.64082,11.13164z" data-paper-data="{&quot;origPos&quot;:null,&quot;index&quot;:null,&quot;origRot&quot;:0}" fill="#fff7d7" stroke="#e6e2bf" stroke-width="2" stroke-linecap="butt"/><path d="M231.40926,78.63193c2.31099,3.32876 3.4926,9.17294 -3.83539,12.66116c-6.04521,2.87759 -13.76979,4.49438 -16.08078,1.16562c-2.31099,-3.32876 1.95331,-9.85736 6.96276,-14.29926c5.53981,-4.91216 10.64241,-2.85628 12.9534,0.47248z" data-paper-data="{&quot;origPos&quot;:null,&quot;index&quot;:null,&quot;origRot&quot;:0}" fill="#fff7d7" stroke="#e6e2bf" stroke-width="2" stroke-linecap="butt"/><path d="M196.41358,77.46682c5.00945,4.4419 9.27376,10.97049 6.96277,14.29925c-2.31099,3.32877 -10.03557,1.71198 -16.08078,-1.16561c-7.32799,-3.48822 -6.14638,-9.33239 -3.83539,-12.66116c2.31099,-3.32877 7.41359,-5.38464 12.9534,-0.47248z" data-paper-data="{&quot;origPos&quot;:null,&quot;index&quot;:null,&quot;origRot&quot;:0}" fill="#fff7d7" stroke="#e6e2bf" stroke-width="2" stroke-linecap="butt"/><path d="M182.54861,108.36276c-2.31099,-3.32877 -3.4926,-9.17294 3.83539,-12.66116c6.04521,-2.87759 13.76979,-4.49438 16.08078,-1.16561c2.31099,3.32877 -1.95332,9.85736 -6.96277,14.29925c-5.53981,4.91216 -10.64241,2.85628 -12.9534,-0.47248z" data-paper-data="{&quot;origPos&quot;:null,&quot;index&quot;:null,&quot;origRot&quot;:0}" fill="#fff7d7" stroke="#e6e2bf" stroke-width="2" stroke-linecap="butt"/><path d="M213.94684,93.41926c0,4.05232 -2.71374,7.33739 -6.06132,7.33739c-3.34758,0 -6.06132,-3.28506 -6.06132,-7.33739c0,-4.05232 2.71375,-7.33739 6.06132,-7.33739c3.34758,0 6.06132,3.28507 6.06132,7.33739z" data-paper-data="{&quot;origPos&quot;:null}" fill="#977f23" stroke="none" stroke-width="0" stroke-linecap="butt"/><path d="M234,165.45c0,6.90356 -2.29454,12.5 -5.125,12.5c-2.83046,0 -5.125,-5.59644 -5.125,-12.5c0,-6.90356 2.29454,-12.5 5.125,-12.5c2.83046,0 5.125,5.59644 5.125,12.5z" fill="#554813" stroke="none" stroke-width="0" stroke-linecap="butt"/><path d="M208.75,165.45c0,6.90356 -2.29454,12.5 -5.125,12.5c-2.83046,0 -5.125,-5.59644 -5.125,-12.5c0,-6.90356 2.29454,-12.5 5.125,-12.5c2.83046,0 5.125,5.59644 5.125,12.5z" data-paper-data="{&quot;origPos&quot;:null}" fill="#554813" stroke="none" stroke-width="0" stroke-linecap="butt"/><path d="M190.25,194.45c0,0 12.45532,6.83394 19.9361,7.04767c9.59323,0.27409 23.8139,-5.79767 23.8139,-5.79767" data-paper-data="{&quot;origPos&quot;:null}" fill="none" stroke="#554813" stroke-width="3" stroke-linecap="round"/><path d="M234.20731,194.75c0,-13.8307 11.21199,-25.04269 25.04269,-25.04269c13.8307,0 25.04269,11.21199 25.04269,25.04269c0,13.8307 -11.21199,25.04269 -25.04269,25.04269c-13.8307,0 -25.04269,-11.21199 -25.04269,-25.04269z" data-paper-data="{&quot;origPos&quot;:null}" fill="#fff059" stroke="#e6cd00" stroke-width="3" stroke-linecap="butt"/><path d="M176.5,185.075c0,4.43692 0.57906,6.11117 4.73368,7.66855c3.77773,1.4161 8.85689,1.70645 12.89132,1.70645c9.73402,0 17.625,-4.19733 17.625,-9.375c0,-5.17767 -7.89098,-9.375 -17.625,-9.375c0,0 -7.34984,-1.16227 -11.45483,0.63803c-3.65307,1.6021 -6.17017,3.5593 -6.17017,8.73697z" data-paper-data="{&quot;origPos&quot;:null}" fill="#645416" stroke="#554813" stroke-width="3" stroke-linecap="butt"/></g></g></svg>