<svg version="1.1" xmlns="http://www.w3.org/2000/svg" xmlns:xlink="http://www.w3.org/1999/xlink" width="619.76591" height="410.89026" viewBox="0,0,619.76591,410.89026"><defs><linearGradient x1="108.59626" y1="177.41542" x2="108.59626" y2="206.60859" gradientUnits="userSpaceOnUse" id="color-1"><stop offset="0" stop-color="#b08b2e"/><stop offset="1" stop-color="#8a6632"/></linearGradient><linearGradient x1="139.85322" y1="198.49937" x2="139.85322" y2="198.49937" gradientUnits="userSpaceOnUse" id="color-2"><stop offset="0" stop-color="#b08b2e"/><stop offset="1" stop-color="#8a6632"/></linearGradient><linearGradient x1="106.83531" y1="187.95739" x2="106.83531" y2="187.95739" gradientUnits="userSpaceOnUse" id="color-3"><stop offset="0" stop-color="#b08b2e"/><stop offset="1" stop-color="#8a6632"/></linearGradient><linearGradient x1="72.49665" y1="196.87753" x2="72.49665" y2="197.68844" gradientUnits="userSpaceOnUse" id="color-4"><stop offset="0" stop-color="#b08b2e"/><stop offset="1" stop-color="#8a6632"/></linearGradient><linearGradient x1="154.38109" y1="186.33555" x2="154.38109" y2="187.14646" gradientUnits="userSpaceOnUse" id="color-5"><stop offset="0" stop-color="#b08b2e"/><stop offset="1" stop-color="#8a6632"/></linearGradient><linearGradient x1="373.45014" y1="177.41542" x2="373.45014" y2="206.60859" gradientUnits="userSpaceOnUse" id="color-6"><stop offset="0" stop-color="#b08b2e"/><stop offset="1" stop-color="#8a6632"/></linearGradient><linearGradient x1="404.7071" y1="198.49937" x2="404.7071" y2="198.49937" gradientUnits="userSpaceOnUse" id="color-7"><stop offset="0" stop-color="#b08b2e"/><stop offset="1" stop-color="#8a6632"/></linearGradient><linearGradient x1="371.6892" y1="187.95739" x2="371.6892" y2="187.95739" gradientUnits="userSpaceOnUse" id="color-8"><stop offset="0" stop-color="#b08b2e"/><stop offset="1" stop-color="#8a6632"/></linearGradient><linearGradient x1="337.35054" y1="196.87753" x2="337.35054" y2="197.68844" gradientUnits="userSpaceOnUse" id="color-9"><stop offset="0" stop-color="#b08b2e"/><stop offset="1" stop-color="#8a6632"/></linearGradient><linearGradient x1="419.23499" y1="186.33555" x2="419.23499" y2="187.14646" gradientUnits="userSpaceOnUse" id="color-10"><stop offset="0" stop-color="#b08b2e"/><stop offset="1" stop-color="#8a6632"/></linearGradient><linearGradient x1="0.30461" y1="84.23973" x2="0.30461" y2="42.16524" gradientUnits="userSpaceOnUse" id="color-11"><stop offset="0" stop-color="#b08b2e"/><stop offset="1" stop-color="#8a6632"/></linearGradient><linearGradient x1="-15.78142" y1="53.85261" x2="-15.78142" y2="53.85261" gradientUnits="userSpaceOnUse" id="color-12"><stop offset="0" stop-color="#b08b2e"/><stop offset="1" stop-color="#8a6632"/></linearGradient><linearGradient x1="1.21086" y1="69.04618" x2="1.21086" y2="69.04618" gradientUnits="userSpaceOnUse" id="color-13"><stop offset="0" stop-color="#b08b2e"/><stop offset="1" stop-color="#8a6632"/></linearGradient><linearGradient x1="18.88284" y1="56.19007" x2="18.88284" y2="55.02132" gradientUnits="userSpaceOnUse" id="color-14"><stop offset="0" stop-color="#b08b2e"/><stop offset="1" stop-color="#8a6632"/></linearGradient><linearGradient x1="-23.25801" y1="71.38364" x2="-23.25801" y2="70.2149" gradientUnits="userSpaceOnUse" id="color-15"><stop offset="0" stop-color="#b08b2e"/><stop offset="1" stop-color="#8a6632"/></linearGradient><linearGradient x1="0.30461" y1="-3.05916" x2="0.30461" y2="-45.13364" gradientUnits="userSpaceOnUse" id="color-16"><stop offset="0" stop-color="#b08b2e"/><stop offset="1" stop-color="#8a6632"/></linearGradient><linearGradient x1="-15.78142" y1="-33.44628" x2="-15.78142" y2="-33.44628" gradientUnits="userSpaceOnUse" id="color-17"><stop offset="0" stop-color="#b08b2e"/><stop offset="1" stop-color="#8a6632"/></linearGradient><linearGradient x1="1.21086" y1="-18.25271" x2="1.21086" y2="-18.25271" gradientUnits="userSpaceOnUse" id="color-18"><stop offset="0" stop-color="#b08b2e"/><stop offset="1" stop-color="#8a6632"/></linearGradient><linearGradient x1="18.88284" y1="-31.10881" x2="18.88284" y2="-32.27756" gradientUnits="userSpaceOnUse" id="color-19"><stop offset="0" stop-color="#b08b2e"/><stop offset="1" stop-color="#8a6632"/></linearGradient><linearGradient x1="-23.25801" y1="-15.91525" x2="-23.25801" y2="-17.08398" gradientUnits="userSpaceOnUse" id="color-20"><stop offset="0" stop-color="#b08b2e"/><stop offset="1" stop-color="#8a6632"/></linearGradient><linearGradient x1="0.30461" y1="41.1484" x2="0.30461" y2="-0.92608" gradientUnits="userSpaceOnUse" id="color-21"><stop offset="0" stop-color="#b08b2e"/><stop offset="1" stop-color="#8a6632"/></linearGradient><linearGradient x1="-15.78142" y1="10.76128" x2="-15.78142" y2="10.76128" gradientUnits="userSpaceOnUse" id="color-22"><stop offset="0" stop-color="#b08b2e"/><stop offset="1" stop-color="#8a6632"/></linearGradient><linearGradient x1="1.21086" y1="25.95485" x2="1.21086" y2="25.95485" gradientUnits="userSpaceOnUse" id="color-23"><stop offset="0" stop-color="#b08b2e"/><stop offset="1" stop-color="#8a6632"/></linearGradient><linearGradient x1="18.88284" y1="13.09875" x2="18.88284" y2="11.93" gradientUnits="userSpaceOnUse" id="color-24"><stop offset="0" stop-color="#b08b2e"/><stop offset="1" stop-color="#8a6632"/></linearGradient><linearGradient x1="-23.25801" y1="28.29231" x2="-23.25801" y2="27.12358" gradientUnits="userSpaceOnUse" id="color-25"><stop offset="0" stop-color="#b08b2e"/><stop offset="1" stop-color="#8a6632"/></linearGradient><linearGradient x1="-53.69165" y1="19.19922" x2="-25.69205" y2="18.97511" gradientUnits="userSpaceOnUse" id="color-26"><stop offset="0" stop-color="#adadad"/><stop offset="1" stop-color="#9e8c72"/></linearGradient><linearGradient x1="53.30085" y1="18.08263" x2="25.30125" y2="18.3016" gradientUnits="userSpaceOnUse" id="color-27"><stop offset="0" stop-color="#adadad"/><stop offset="1" stop-color="#9e8c72"/></linearGradient><linearGradient x1="1.8046" y1="112.88964" x2="1.8046" y2="84.88964" gradientUnits="userSpaceOnUse" id="color-28"><stop offset="0" stop-color="#adadad"/><stop offset="1" stop-color="#9e8c72"/></linearGradient><linearGradient x1="39.3046" y1="115.88964" x2="39.3046" y2="81.88964" gradientUnits="userSpaceOnUse" id="color-29"><stop offset="0" stop-color="#b9b9b9"/><stop offset="1" stop-color="#a8a8a8"/></linearGradient><linearGradient x1="-38.6954" y1="115.88964" x2="-38.6954" y2="81.88964" gradientUnits="userSpaceOnUse" id="color-30"><stop offset="0" stop-color="#b9b9b9"/><stop offset="1" stop-color="#a8a8a8"/></linearGradient><linearGradient x1="479.84076" y1="82.87548" x2="479.84076" y2="40.80099" gradientUnits="userSpaceOnUse" id="color-31"><stop offset="0" stop-color="#b08b2e"/><stop offset="1" stop-color="#8a6632"/></linearGradient><linearGradient x1="463.75473" y1="52.48836" x2="463.75473" y2="52.48836" gradientUnits="userSpaceOnUse" id="color-32"><stop offset="0" stop-color="#b08b2e"/><stop offset="1" stop-color="#8a6632"/></linearGradient><linearGradient x1="480.74701" y1="67.68193" x2="480.74701" y2="67.68193" gradientUnits="userSpaceOnUse" id="color-33"><stop offset="0" stop-color="#b08b2e"/><stop offset="1" stop-color="#8a6632"/></linearGradient><linearGradient x1="498.41898" y1="54.82582" x2="498.41898" y2="53.65707" gradientUnits="userSpaceOnUse" id="color-34"><stop offset="0" stop-color="#b08b2e"/><stop offset="1" stop-color="#8a6632"/></linearGradient><linearGradient x1="456.27813" y1="70.01939" x2="456.27813" y2="68.85065" gradientUnits="userSpaceOnUse" id="color-35"><stop offset="0" stop-color="#b08b2e"/><stop offset="1" stop-color="#8a6632"/></linearGradient><linearGradient x1="479.84076" y1="-4.42341" x2="479.84076" y2="-46.49789" gradientUnits="userSpaceOnUse" id="color-36"><stop offset="0" stop-color="#b08b2e"/><stop offset="1" stop-color="#8a6632"/></linearGradient><linearGradient x1="463.75473" y1="-34.81053" x2="463.75473" y2="-34.81053" gradientUnits="userSpaceOnUse" id="color-37"><stop offset="0" stop-color="#b08b2e"/><stop offset="1" stop-color="#8a6632"/></linearGradient><linearGradient x1="480.74701" y1="-19.61696" x2="480.74701" y2="-19.61696" gradientUnits="userSpaceOnUse" id="color-38"><stop offset="0" stop-color="#b08b2e"/><stop offset="1" stop-color="#8a6632"/></linearGradient><linearGradient x1="498.41898" y1="-32.47306" x2="498.41898" y2="-33.64181" gradientUnits="userSpaceOnUse" id="color-39"><stop offset="0" stop-color="#b08b2e"/><stop offset="1" stop-color="#8a6632"/></linearGradient><linearGradient x1="456.27813" y1="-17.2795" x2="456.27813" y2="-18.44823" gradientUnits="userSpaceOnUse" id="color-40"><stop offset="0" stop-color="#b08b2e"/><stop offset="1" stop-color="#8a6632"/></linearGradient><linearGradient x1="479.84076" y1="39.78415" x2="479.84076" y2="-2.29033" gradientUnits="userSpaceOnUse" id="color-41"><stop offset="0" stop-color="#b08b2e"/><stop offset="1" stop-color="#8a6632"/></linearGradient><linearGradient x1="463.75473" y1="9.39703" x2="463.75473" y2="9.39703" gradientUnits="userSpaceOnUse" id="color-42"><stop offset="0" stop-color="#b08b2e"/><stop offset="1" stop-color="#8a6632"/></linearGradient><linearGradient x1="480.74701" y1="24.5906" x2="480.74701" y2="24.5906" gradientUnits="userSpaceOnUse" id="color-43"><stop offset="0" stop-color="#b08b2e"/><stop offset="1" stop-color="#8a6632"/></linearGradient><linearGradient x1="498.41898" y1="11.7345" x2="498.41898" y2="10.56575" gradientUnits="userSpaceOnUse" id="color-44"><stop offset="0" stop-color="#b08b2e"/><stop offset="1" stop-color="#8a6632"/></linearGradient><linearGradient x1="456.27813" y1="26.92806" x2="456.27813" y2="25.75933" gradientUnits="userSpaceOnUse" id="color-45"><stop offset="0" stop-color="#b08b2e"/><stop offset="1" stop-color="#8a6632"/></linearGradient><linearGradient x1="425.8445" y1="17.83497" x2="453.8441" y2="17.61086" gradientUnits="userSpaceOnUse" id="color-46"><stop offset="0" stop-color="#adadad"/><stop offset="1" stop-color="#9e8c72"/></linearGradient><linearGradient x1="532.837" y1="16.71838" x2="504.8374" y2="16.93735" gradientUnits="userSpaceOnUse" id="color-47"><stop offset="0" stop-color="#adadad"/><stop offset="1" stop-color="#9e8c72"/></linearGradient><linearGradient x1="481.34075" y1="111.52539" x2="481.34075" y2="83.52539" gradientUnits="userSpaceOnUse" id="color-48"><stop offset="0" stop-color="#adadad"/><stop offset="1" stop-color="#9e8c72"/></linearGradient><linearGradient x1="518.84075" y1="114.52539" x2="518.84075" y2="80.52539" gradientUnits="userSpaceOnUse" id="color-49"><stop offset="0" stop-color="#b9b9b9"/><stop offset="1" stop-color="#a8a8a8"/></linearGradient><linearGradient x1="440.84075" y1="114.52539" x2="440.84075" y2="80.52539" gradientUnits="userSpaceOnUse" id="color-50"><stop offset="0" stop-color="#b9b9b9"/><stop offset="1" stop-color="#a8a8a8"/></linearGradient><linearGradient x1="282.97376" y1="331.7088" x2="282.97376" y2="360.90198" gradientUnits="userSpaceOnUse" id="color-51"><stop offset="0" stop-color="#b08b2e"/><stop offset="1" stop-color="#8a6632"/></linearGradient><linearGradient x1="251.71681" y1="352.79277" x2="251.71681" y2="352.79277" gradientUnits="userSpaceOnUse" id="color-52"><stop offset="0" stop-color="#b08b2e"/><stop offset="1" stop-color="#8a6632"/></linearGradient><linearGradient x1="284.7347" y1="342.25079" x2="284.7347" y2="342.25079" gradientUnits="userSpaceOnUse" id="color-53"><stop offset="0" stop-color="#b08b2e"/><stop offset="1" stop-color="#8a6632"/></linearGradient><linearGradient x1="319.07336" y1="351.17093" x2="319.07336" y2="351.98185" gradientUnits="userSpaceOnUse" id="color-54"><stop offset="0" stop-color="#b08b2e"/><stop offset="1" stop-color="#8a6632"/></linearGradient><linearGradient x1="237.18893" y1="340.62894" x2="237.18893" y2="341.43987" gradientUnits="userSpaceOnUse" id="color-55"><stop offset="0" stop-color="#b08b2e"/><stop offset="1" stop-color="#8a6632"/></linearGradient><linearGradient x1="-25.52626" y1="331.7088" x2="-25.52626" y2="360.90198" gradientUnits="userSpaceOnUse" id="color-56"><stop offset="0" stop-color="#b08b2e"/><stop offset="1" stop-color="#8a6632"/></linearGradient><linearGradient x1="5.7307" y1="352.79277" x2="5.7307" y2="352.79277" gradientUnits="userSpaceOnUse" id="color-57"><stop offset="0" stop-color="#b08b2e"/><stop offset="1" stop-color="#8a6632"/></linearGradient><linearGradient x1="-27.28721" y1="342.25079" x2="-27.28721" y2="342.25079" gradientUnits="userSpaceOnUse" id="color-58"><stop offset="0" stop-color="#b08b2e"/><stop offset="1" stop-color="#8a6632"/></linearGradient><linearGradient x1="20.25858" y1="340.62894" x2="20.25858" y2="341.43987" gradientUnits="userSpaceOnUse" id="color-59"><stop offset="0" stop-color="#b08b2e"/><stop offset="1" stop-color="#8a6632"/></linearGradient><linearGradient x1="76.72375" y1="331.7088" x2="76.72375" y2="360.90198" gradientUnits="userSpaceOnUse" id="color-60"><stop offset="0" stop-color="#b08b2e"/><stop offset="1" stop-color="#8a6632"/></linearGradient><linearGradient x1="74.96279" y1="342.25079" x2="74.96279" y2="342.25079" gradientUnits="userSpaceOnUse" id="color-61"><stop offset="0" stop-color="#b08b2e"/><stop offset="1" stop-color="#8a6632"/></linearGradient><linearGradient x1="40.62413" y1="351.17093" x2="40.62413" y2="351.98185" gradientUnits="userSpaceOnUse" id="color-62"><stop offset="0" stop-color="#b08b2e"/><stop offset="1" stop-color="#8a6632"/></linearGradient><linearGradient x1="179.22376" y1="331.7088" x2="179.22376" y2="360.90198" gradientUnits="userSpaceOnUse" id="color-63"><stop offset="0" stop-color="#b08b2e"/><stop offset="1" stop-color="#8a6632"/></linearGradient><linearGradient x1="180.98472" y1="342.25079" x2="180.98472" y2="342.25079" gradientUnits="userSpaceOnUse" id="color-64"><stop offset="0" stop-color="#b08b2e"/><stop offset="1" stop-color="#8a6632"/></linearGradient><linearGradient x1="215.32336" y1="351.17093" x2="215.32336" y2="351.98185" gradientUnits="userSpaceOnUse" id="color-65"><stop offset="0" stop-color="#b08b2e"/><stop offset="1" stop-color="#8a6632"/></linearGradient><linearGradient x1="103.25858" y1="354.78328" x2="103.25858" y2="355.59421" gradientUnits="userSpaceOnUse" id="color-66"><stop offset="0" stop-color="#b08b2e"/><stop offset="1" stop-color="#8a6632"/></linearGradient><linearGradient x1="161.2586" y1="354.78328" x2="161.2586" y2="355.59421" gradientUnits="userSpaceOnUse" id="color-67"><stop offset="0" stop-color="#b08b2e"/><stop offset="1" stop-color="#8a6632"/></linearGradient><linearGradient x1="386.72376" y1="331.7088" x2="386.72376" y2="360.90198" gradientUnits="userSpaceOnUse" id="color-68"><stop offset="0" stop-color="#b08b2e"/><stop offset="1" stop-color="#8a6632"/></linearGradient><linearGradient x1="384.96281" y1="342.25079" x2="384.96281" y2="342.25079" gradientUnits="userSpaceOnUse" id="color-69"><stop offset="0" stop-color="#b08b2e"/><stop offset="1" stop-color="#8a6632"/></linearGradient><linearGradient x1="350.62415" y1="351.17093" x2="350.62415" y2="351.98185" gradientUnits="userSpaceOnUse" id="color-70"><stop offset="0" stop-color="#b08b2e"/><stop offset="1" stop-color="#8a6632"/></linearGradient><linearGradient x1="489.22376" y1="331.7088" x2="489.22376" y2="360.90198" gradientUnits="userSpaceOnUse" id="color-71"><stop offset="0" stop-color="#b08b2e"/><stop offset="1" stop-color="#8a6632"/></linearGradient><linearGradient x1="490.9847" y1="342.25079" x2="490.9847" y2="342.25079" gradientUnits="userSpaceOnUse" id="color-72"><stop offset="0" stop-color="#b08b2e"/><stop offset="1" stop-color="#8a6632"/></linearGradient><linearGradient x1="525.32337" y1="351.17093" x2="525.32337" y2="351.98185" gradientUnits="userSpaceOnUse" id="color-73"><stop offset="0" stop-color="#b08b2e"/><stop offset="1" stop-color="#8a6632"/></linearGradient><linearGradient x1="413.25859" y1="354.78328" x2="413.25859" y2="355.59421" gradientUnits="userSpaceOnUse" id="color-74"><stop offset="0" stop-color="#b08b2e"/><stop offset="1" stop-color="#8a6632"/></linearGradient><linearGradient x1="471.25861" y1="354.78328" x2="471.25861" y2="355.59421" gradientUnits="userSpaceOnUse" id="color-75"><stop offset="0" stop-color="#b08b2e"/><stop offset="1" stop-color="#8a6632"/></linearGradient></defs><g transform="translate(78.03421,48.98424)"><g data-paper-data="{&quot;isPaintingLayer&quot;:true}" fill-rule="nonzero" stroke-linejoin="miter" stroke-miterlimit="10" stroke-dasharray="" stroke-dashoffset="0" style="mix-blend-mode: normal"><g data-paper-data="{&quot;index&quot;:null}" stroke="#75491c" stroke-width="2"><path d="M57.08831,206.60859v-29.19316h103.01589v29.19316z" data-paper-data="{&quot;origPos&quot;:null}" fill="url(#color-1)" stroke-linecap="butt"/><path d="M158.34326,198.49937h-36.98007" data-paper-data="{&quot;origPos&quot;:null}" fill="url(#color-2)" stroke-linecap="round"/><path d="M76.45882,187.95739h60.75296" data-paper-data="{&quot;origPos&quot;:null}" fill="url(#color-3)" stroke-linecap="round"/><path d="M87.90502,196.87753l-30.81672,0.81093" data-paper-data="{&quot;origPos&quot;:null}" fill="url(#color-4)" stroke-linecap="round"/><path d="M148.65801,187.14647l11.44621,-0.81092" data-paper-data="{&quot;origPos&quot;:null}" fill="url(#color-5)" stroke-linecap="round"/></g><g data-paper-data="{&quot;index&quot;:null}" stroke="#75491c" stroke-width="2"><path d="M321.94221,206.60859v-29.19316h103.01589v29.19316z" data-paper-data="{&quot;origPos&quot;:null}" fill="url(#color-6)" stroke-linecap="butt"/><path d="M386.21707,198.49937h36.98007" data-paper-data="{&quot;origPos&quot;:null}" fill="url(#color-7)" stroke-linecap="round"/><path d="M341.31272,187.95739h60.75296" data-paper-data="{&quot;origPos&quot;:null}" fill="url(#color-8)" stroke-linecap="round"/><path d="M352.75893,196.87752l-30.81672,0.81093" data-paper-data="{&quot;origPos&quot;:null}" fill="url(#color-9)" stroke-linecap="round"/><path d="M424.95809,186.33555l-11.44621,0.81092" data-paper-data="{&quot;origPos&quot;:null}" fill="url(#color-10)" stroke-linecap="round"/></g><path d="M26.81256,42.16524v42.07447h-53.0159v-42.07447z" data-paper-data="{&quot;origPos&quot;:null}" fill="url(#color-11)" stroke="#75491c" stroke-width="2" stroke-linecap="butt"/><path d="M-25.29709,53.85261h19.03135" data-paper-data="{&quot;origPos&quot;:null}" fill="url(#color-12)" stroke="#75491c" stroke-width="2" stroke-linecap="round"/><path d="M16.84376,69.04618h-31.26579" data-paper-data="{&quot;origPos&quot;:null}" fill="url(#color-13)" stroke="#75491c" stroke-width="2" stroke-linecap="round"/><path d="M26.81256,55.02132l-15.85946,1.16875" data-paper-data="{&quot;origPos&quot;:null}" fill="url(#color-14)" stroke="#75491c" stroke-width="2" stroke-linecap="round"/><path d="M-20.31269,70.2149l-5.89066,1.16874" data-paper-data="{&quot;origPos&quot;:null}" fill="url(#color-15)" stroke="#75491c" stroke-width="2" stroke-linecap="round"/><path d="M26.81256,-45.13364v42.07447h-53.0159v-42.07447z" data-paper-data="{&quot;origPos&quot;:null}" fill="url(#color-16)" stroke="#75491c" stroke-width="2" stroke-linecap="butt"/><path d="M-6.26574,-33.44628h-19.03135" data-paper-data="{&quot;origPos&quot;:null}" fill="url(#color-17)" stroke="#75491c" stroke-width="2" stroke-linecap="round"/><path d="M-14.42203,-18.25271h31.26579" data-paper-data="{&quot;origPos&quot;:null}" fill="url(#color-18)" stroke="#75491c" stroke-width="2" stroke-linecap="round"/><path d="M26.81256,-32.27756l-15.85946,1.16875" data-paper-data="{&quot;origPos&quot;:null}" fill="url(#color-19)" stroke="#75491c" stroke-width="2" stroke-linecap="round"/><path d="M-20.31269,-17.08398l-5.89066,1.16873" data-paper-data="{&quot;origPos&quot;:null}" fill="url(#color-20)" stroke="#75491c" stroke-width="2" stroke-linecap="round"/><path d="M26.81256,-0.92608v42.07446h-53.0159v-42.07446z" data-paper-data="{&quot;origPos&quot;:null}" fill="url(#color-21)" stroke="#75491c" stroke-width="2" stroke-linecap="butt"/><path d="M-25.29709,10.76128h19.03135" data-paper-data="{&quot;origPos&quot;:null}" fill="url(#color-22)" stroke="#75491c" stroke-width="2" stroke-linecap="round"/><path d="M-14.42203,25.95485h31.26579" data-paper-data="{&quot;origPos&quot;:null}" fill="url(#color-23)" stroke="#75491c" stroke-width="2" stroke-linecap="round"/><path d="M10.9531,13.09875l15.85946,-1.16875" data-paper-data="{&quot;origPos&quot;:null}" fill="url(#color-24)" stroke="#75491c" stroke-width="2" stroke-linecap="round"/><path d="M-26.20335,28.29231l5.89066,-1.16873" data-paper-data="{&quot;origPos&quot;:null}" fill="url(#color-25)" stroke="#75491c" stroke-width="2" stroke-linecap="round"/><path d="M-25.45582,84.5622l-27.9996,0.22409l-0.47247,-131.17419l27.9996,-0.22409z" data-paper-data="{&quot;origPos&quot;:null}" fill="url(#color-26)" stroke="#6b6b6b" stroke-width="2" stroke-linecap="butt"/><path d="M25.06502,-45.78806l27.99959,-0.21898l0.47248,128.17931l-27.9996,0.21898z" data-paper-data="{&quot;origPos&quot;:null,&quot;index&quot;:null}" fill="url(#color-27)" stroke="#6b6b6b" stroke-width="2" stroke-linecap="butt"/><path d="M-30.52843,-24.35004c-0.0068,4.78646 -3.89252,8.66114 -8.67899,8.65433c-4.78647,-0.0068 -8.66113,-3.89251 -8.65433,-8.67897c0.00681,-4.78647 3.89251,-8.66115 8.67898,-8.65434c4.78647,0.0068 8.66114,3.89252 8.65434,8.67898z" data-paper-data="{&quot;origPos&quot;:null,&quot;origRot&quot;:0}" fill="#a7a095" stroke="#6b6b6b" stroke-width="2" stroke-linecap="butt"/><path d="M48.47097,-23.84604c-0.0068,4.78647 -3.89252,8.66115 -8.67899,8.65434c-4.78647,-0.00681 -8.66114,-3.89253 -8.65434,-8.67899c0.0068,-4.78647 3.89252,-8.66114 8.67899,-8.65434c4.78647,0.00681 8.66115,3.89252 8.65434,8.67899z" data-paper-data="{&quot;origPos&quot;:null,&quot;origRot&quot;:0}" fill="#a7a095" stroke="#6b6b6b" stroke-width="2" stroke-linecap="butt"/><path d="M31.31305,57.70139c-0.002,-4.78647 3.87657,-8.6683 8.66304,-8.6703c4.78647,-0.002 8.6683,3.87656 8.6703,8.66303c0.002,4.78647 -3.87657,8.6683 -8.66304,8.6703c-4.78647,0.00201 -8.6683,-3.87656 -8.6703,-8.66303z" data-paper-data="{&quot;origPos&quot;:null}" fill="#a7a095" stroke="#6b6b6b" stroke-width="2" stroke-linecap="butt"/><path d="M39.63325,26.36458c-4.78647,0.002 -8.6683,-3.87657 -8.6703,-8.66304c-0.002,-4.78647 3.87657,-8.6683 8.66304,-8.6703c4.78647,-0.00201 8.66829,3.87656 8.67029,8.66303c0.00201,4.78647 -3.87656,8.6683 -8.66303,8.6703z" data-paper-data="{&quot;origPos&quot;:null}" fill="#a7a095" stroke="#6b6b6b" stroke-width="2" stroke-linecap="butt"/><path d="M-39.01678,66.08138c-4.78647,0.002 -8.66829,-3.87657 -8.6703,-8.66304c-0.002,-4.78647 3.87657,-8.6683 8.66304,-8.6703c4.78647,-0.00201 8.66829,3.87656 8.6703,8.66303c0.002,4.78647 -3.87657,8.6683 -8.66304,8.6703z" data-paper-data="{&quot;origPos&quot;:null}" fill="#a7a095" stroke="#6b6b6b" stroke-width="2" stroke-linecap="butt"/><path d="M-48.03718,17.41848c-0.002,-4.78647 3.87657,-8.6683 8.66304,-8.6703c4.78647,-0.002 8.66829,3.87656 8.6703,8.66303c0.002,4.78647 -3.87657,8.6683 -8.66304,8.6703c-4.78647,0.00201 -8.66829,-3.87656 -8.6703,-8.66303z" data-paper-data="{&quot;origPos&quot;:null}" fill="#a7a095" stroke="#6b6b6b" stroke-width="2" stroke-linecap="butt"/><path d="M26.8046,84.88964v28h-50v-28z" data-paper-data="{&quot;origPos&quot;:null}" fill="url(#color-28)" stroke="#6b6b6b" stroke-width="2" stroke-linecap="butt"/><path d="M0.63794,89.5563c4.78647,0 8.66667,3.8802 8.66667,8.66667c0,4.78647 -3.8802,8.66666 -8.66667,8.66666c-4.78647,0 -8.66667,-3.88019 -8.66667,-8.66666c0,-4.78647 3.8802,-8.66667 8.66667,-8.66667z" data-paper-data="{&quot;origPos&quot;:null}" fill="#a7a095" stroke="#6b6b6b" stroke-width="2" stroke-linecap="butt"/><path d="M57.8046,81.88964v34h-37v-34z" data-paper-data="{&quot;origPos&quot;:null}" fill="url(#color-29)" stroke="#6b6b6b" stroke-width="2" stroke-linecap="butt"/><path d="M29.97127,99.04628c0,-5.52284 4.47716,-10 10,-10c5.52284,0 10,4.47716 10,10c0,3.24695 -2.36557,3.53791 -3.09842,5.39204c-0.59142,1.49633 -1.52069,2.69867 -2.68806,3.80592c-1.13579,1.07729 -2.64808,0.80204 -4.21352,0.80204c0,0 -2.75393,0.61842 -4.36104,-0.45866c-1.38941,-0.93117 -2.60429,-3.87524 -2.74343,-4.10955c-1.06606,-1.79528 -2.89553,0.09105 -2.89553,-5.43179zM30.63794,99.54628c0,1.38071 3.78596,2.16666 5.16666,2.16666c0.91755,0 1.71966,-0.49431 2.15454,-1.23116c1.8634,-1.0648 1.80634,-9.29448 -1.48787,-9.29448c0,0 -3.52884,2.11278 -3.65612,2.37067c-0.77473,1.56984 -2.17721,5.80467 -2.17721,5.9883zM48.63793,98.87961c0,-1.97693 -0.18387,-3.5113 -1.33723,-5.11692c-0.96463,-1.34288 -2.34266,-2.38308 -3.99609,-2.38308c-0.91755,0 -1.553,-0.67236 -1.98788,0.06449c-1.8799,1.07423 -0.25977,9.93551 2.65454,9.93551c3.24807,0 4.66666,-2.27586 4.66666,-2.5zM38.08665,104.12961l0.67829,-0.17632c0.95162,0.11895 1.86363,0.17632 2.82171,0.17632c0,0 1.25,-1.07692 1.25,-2.32692c0,-1.25 -1.17308,-1.25 -1.17308,-1.25c-0.85996,0 -1.65952,-0.05051 -2.51162,-0.15702l-0.98838,0.15702c0,0 -1.25,0 -1.25,1.25c0,1.25 1.17308,2.32692 1.17308,2.32692z" data-paper-data="{&quot;origPos&quot;:null,&quot;index&quot;:null}" fill="#6b6b6b" stroke="#6b6b6b" stroke-width="2" stroke-linecap="butt"/><path d="M-20.1954,81.88964v34h-37v-34z" data-paper-data="{&quot;origPos&quot;:null}" fill="url(#color-30)" stroke="#6b6b6b" stroke-width="2" stroke-linecap="butt"/><path d="M-48.02873,99.04628c0,-5.52284 4.47715,-10 10,-10c5.52285,0 10,4.47716 10,10c0,3.24695 -2.36557,3.53791 -3.09842,5.39204c-0.59143,1.49633 -1.52069,2.69867 -2.68807,3.80592c-1.13579,1.07729 -2.64808,0.80204 -4.21352,0.80204c0,0 -2.75392,0.61842 -4.36104,-0.45866c-1.38941,-0.93117 -2.6043,-3.87524 -2.74343,-4.10955c-1.06606,-1.79528 -2.89553,0.09105 -2.89553,-5.43179zM-47.36206,99.54628c0,1.38071 3.78595,2.16666 5.16667,2.16666c0.91756,0 1.71965,-0.49431 2.15453,-1.23116c1.8634,-1.0648 1.80634,-9.29448 -1.48787,-9.29448c0,0 -3.52884,2.11278 -3.65612,2.37067c-0.77473,1.56984 -2.17721,5.80467 -2.17721,5.9883zM-29.36207,98.87961c0,-1.97693 -0.18387,-3.5113 -1.33723,-5.11692c-0.96464,-1.34288 -2.34266,-2.38308 -3.9961,-2.38308c-0.91756,0 -1.55299,-0.67236 -1.98787,0.06449c-1.8799,1.07423 -0.25977,9.93551 2.65454,9.93551c3.24807,0 4.66667,-2.27586 4.66667,-2.5zM-39.91335,104.12961l0.67829,-0.17632c0.95162,0.11895 1.86364,0.17632 2.82171,0.17632c0,0 1.25,-1.07692 1.25,-2.32692c0,-1.25 -1.17308,-1.25 -1.17308,-1.25c-0.85996,0 -1.65953,-0.05051 -2.51163,-0.15702l-0.98837,0.15702c0,0 -1.25,0 -1.25,1.25c0,1.25 1.17308,2.32692 1.17308,2.32692z" data-paper-data="{&quot;origPos&quot;:null,&quot;index&quot;:null}" fill="#6b6b6b" stroke="#6b6b6b" stroke-width="2" stroke-linecap="butt"/><path d="M506.34871,40.80099v42.07447h-53.0159v-42.07447z" fill="url(#color-31)" stroke="#75491c" stroke-width="2" stroke-linecap="butt"/><path d="M473.27041,52.48836h-19.03135" fill="url(#color-32)" stroke="#75491c" stroke-width="2" stroke-linecap="round"/><path d="M465.11412,67.68193h31.26579" fill="url(#color-33)" stroke="#75491c" stroke-width="2" stroke-linecap="round"/><path d="M506.34871,53.65707l-15.85946,1.16875" fill="url(#color-34)" stroke="#75491c" stroke-width="2" stroke-linecap="round"/><path d="M459.22345,68.85065l-5.89066,1.16874" fill="url(#color-35)" stroke="#75491c" stroke-width="2" stroke-linecap="round"/><path d="M506.34871,-46.49789v42.07447h-53.0159v-42.07447z" fill="url(#color-36)" stroke="#75491c" stroke-width="2" stroke-linecap="butt"/><path d="M454.23906,-34.81053h19.03135" fill="url(#color-37)" stroke="#75491c" stroke-width="2" stroke-linecap="round"/><path d="M465.11412,-19.61696h31.26579" fill="url(#color-38)" stroke="#75491c" stroke-width="2" stroke-linecap="round"/><path d="M490.48925,-32.47306l15.85946,-1.16875" fill="url(#color-39)" stroke="#75491c" stroke-width="2" stroke-linecap="round"/><path d="M459.22345,-18.44823l-5.89066,1.16873" fill="url(#color-40)" stroke="#75491c" stroke-width="2" stroke-linecap="round"/><path d="M506.34871,-2.29033v42.07446h-53.0159v-42.07446z" fill="url(#color-41)" stroke="#75491c" stroke-width="2" stroke-linecap="butt"/><path d="M454.23906,9.39703h19.03135" fill="url(#color-42)" stroke="#75491c" stroke-width="2" stroke-linecap="round"/><path d="M496.3799,24.5906h-31.26579" fill="url(#color-43)" stroke="#75491c" stroke-width="2" stroke-linecap="round"/><path d="M490.48925,11.7345l15.85946,-1.16875" fill="url(#color-44)" stroke="#75491c" stroke-width="2" stroke-linecap="round"/><path d="M459.22345,25.75933l-5.89066,1.16873" fill="url(#color-45)" stroke="#75491c" stroke-width="2" stroke-linecap="round"/><path d="M454.08033,83.19795l-27.9996,0.22409l-0.47247,-131.17419l27.9996,-0.22409z" fill="url(#color-46)" stroke="#6b6b6b" stroke-width="2" stroke-linecap="butt"/><path d="M504.60116,-47.15231l27.99959,-0.21898l0.47248,128.17931l-27.9996,0.21898z" data-paper-data="{&quot;index&quot;:null}" fill="url(#color-47)" stroke="#6b6b6b" stroke-width="2" stroke-linecap="butt"/><path d="M449.00771,-25.71429c-0.0068,4.78646 -3.89252,8.66114 -8.67899,8.65433c-4.78647,-0.0068 -8.66113,-3.89251 -8.65433,-8.67897c0.00681,-4.78647 3.89251,-8.66115 8.67898,-8.65434c4.78647,0.0068 8.66114,3.89252 8.65434,8.67898z" data-paper-data="{&quot;origRot&quot;:0}" fill="#a7a095" stroke="#6b6b6b" stroke-width="2" stroke-linecap="butt"/><path d="M528.00712,-25.21029c-0.0068,4.78647 -3.89252,8.66115 -8.67899,8.65434c-4.78647,-0.00681 -8.66114,-3.89253 -8.65434,-8.67899c0.0068,-4.78647 3.89252,-8.66114 8.67899,-8.65434c4.78647,0.00681 8.66115,3.89252 8.65434,8.67899z" data-paper-data="{&quot;origRot&quot;:0}" fill="#a7a095" stroke="#6b6b6b" stroke-width="2" stroke-linecap="butt"/><path d="M510.8492,56.33714c-0.002,-4.78647 3.87657,-8.6683 8.66304,-8.6703c4.78647,-0.002 8.6683,3.87656 8.6703,8.66303c0.002,4.78647 -3.87657,8.6683 -8.66304,8.6703c-4.78647,0.00201 -8.6683,-3.87656 -8.6703,-8.66303z" fill="#a7a095" stroke="#6b6b6b" stroke-width="2" stroke-linecap="butt"/><path d="M519.1694,25.00033c-4.78647,0.002 -8.6683,-3.87657 -8.6703,-8.66304c-0.002,-4.78647 3.87657,-8.6683 8.66304,-8.6703c4.78647,-0.00201 8.66829,3.87656 8.67029,8.66303c0.00201,4.78647 -3.87656,8.6683 -8.66303,8.6703z" fill="#a7a095" stroke="#6b6b6b" stroke-width="2" stroke-linecap="butt"/><path d="M440.51937,64.71713c-4.78647,0.002 -8.66829,-3.87657 -8.6703,-8.66304c-0.002,-4.78647 3.87657,-8.6683 8.66304,-8.6703c4.78647,-0.00201 8.66829,3.87656 8.6703,8.66303c0.002,4.78647 -3.87657,8.6683 -8.66304,8.6703z" fill="#a7a095" stroke="#6b6b6b" stroke-width="2" stroke-linecap="butt"/><path d="M431.49897,16.05423c-0.002,-4.78647 3.87657,-8.6683 8.66304,-8.6703c4.78647,-0.002 8.66829,3.87656 8.6703,8.66303c0.002,4.78647 -3.87657,8.6683 -8.66304,8.6703c-4.78647,0.00201 -8.66829,-3.87656 -8.6703,-8.66303z" fill="#a7a095" stroke="#6b6b6b" stroke-width="2" stroke-linecap="butt"/><path d="M506.34075,83.52539v28h-50v-28z" fill="url(#color-48)" stroke="#6b6b6b" stroke-width="2" stroke-linecap="butt"/><path d="M480.17409,88.19205c4.78647,0 8.66667,3.8802 8.66667,8.66667c0,4.78647 -3.8802,8.66666 -8.66667,8.66666c-4.78647,0 -8.66667,-3.88019 -8.66667,-8.66666c0,-4.78647 3.8802,-8.66667 8.66667,-8.66667z" fill="#a7a095" stroke="#6b6b6b" stroke-width="2" stroke-linecap="butt"/><path d="M537.34075,80.52539v34h-37v-34z" fill="url(#color-49)" stroke="#6b6b6b" stroke-width="2" stroke-linecap="butt"/><path d="M509.50741,97.68202c0,-5.52284 4.47716,-10 10,-10c5.52284,0 10,4.47716 10,10c0,3.24695 -2.36557,3.53791 -3.09842,5.39204c-0.59142,1.49633 -1.52069,2.69867 -2.68806,3.80592c-1.13579,1.07729 -2.64808,0.80204 -4.21352,0.80204c0,0 -2.75393,0.61842 -4.36104,-0.45866c-1.38941,-0.93117 -2.60429,-3.87524 -2.74343,-4.10955c-1.06606,-1.79528 -2.89553,0.09105 -2.89553,-5.43179zM510.17409,98.18202c0,1.38071 3.78596,2.16666 5.16666,2.16666c0.91755,0 1.71966,-0.49431 2.15454,-1.23116c1.8634,-1.0648 1.80634,-9.29448 -1.48787,-9.29448c0,0 -3.52884,2.11278 -3.65612,2.37067c-0.77473,1.56984 -2.17721,5.80467 -2.17721,5.9883zM528.17408,97.51535c0,-1.97693 -0.18387,-3.5113 -1.33723,-5.11692c-0.96463,-1.34288 -2.34266,-2.38308 -3.99609,-2.38308c-0.91755,0 -1.553,-0.67236 -1.98788,0.06449c-1.8799,1.07423 -0.25977,9.93551 2.65454,9.93551c3.24807,0 4.66666,-2.27586 4.66666,-2.5zM517.6228,102.76535l0.67829,-0.17632c0.95162,0.11895 1.86363,0.17632 2.82171,0.17632c0,0 1.25,-1.07692 1.25,-2.32692c0,-1.25 -1.17308,-1.25 -1.17308,-1.25c-0.85996,0 -1.65952,-0.05051 -2.51162,-0.15702l-0.98838,0.15702c0,0 -1.25,0 -1.25,1.25c0,1.25 1.17308,2.32692 1.17308,2.32692z" data-paper-data="{&quot;index&quot;:null}" fill="#6b6b6b" stroke="#6b6b6b" stroke-width="2" stroke-linecap="butt"/><path d="M459.34075,80.52539v34h-37v-34z" fill="url(#color-50)" stroke="#6b6b6b" stroke-width="2" stroke-linecap="butt"/><path d="M431.50742,97.68202c0,-5.52284 4.47715,-10 10,-10c5.52285,0 10,4.47716 10,10c0,3.24695 -2.36557,3.53791 -3.09842,5.39204c-0.59143,1.49633 -1.52069,2.69867 -2.68807,3.80592c-1.13579,1.07729 -2.64808,0.80204 -4.21352,0.80204c0,0 -2.75392,0.61842 -4.36104,-0.45866c-1.38941,-0.93117 -2.6043,-3.87524 -2.74343,-4.10955c-1.06606,-1.79528 -2.89553,0.09105 -2.89553,-5.43179zM432.17409,98.18202c0,1.38071 3.78595,2.16666 5.16667,2.16666c0.91756,0 1.71965,-0.49431 2.15453,-1.23116c1.8634,-1.0648 1.80634,-9.29448 -1.48787,-9.29448c0,0 -3.52884,2.11278 -3.65612,2.37067c-0.77473,1.56984 -2.17721,5.80467 -2.17721,5.9883zM450.17408,97.51535c0,-1.97693 -0.18387,-3.5113 -1.33723,-5.11692c-0.96464,-1.34288 -2.34266,-2.38308 -3.9961,-2.38308c-0.91756,0 -1.55299,-0.67236 -1.98787,0.06449c-1.8799,1.07423 -0.25977,9.93551 2.65454,9.93551c3.24807,0 4.66667,-2.27586 4.66667,-2.5zM439.6228,102.76535l0.67829,-0.17632c0.95162,0.11895 1.86364,0.17632 2.82171,0.17632c0,0 1.25,-1.07692 1.25,-2.32692c0,-1.25 -1.17308,-1.25 -1.17308,-1.25c-0.85996,0 -1.65953,-0.05051 -2.51163,-0.15702l-0.98837,0.15702c0,0 -1.25,0 -1.25,1.25c0,1.25 1.17308,2.32692 1.17308,2.32692z" data-paper-data="{&quot;index&quot;:null}" fill="#6b6b6b" stroke="#6b6b6b" stroke-width="2" stroke-linecap="butt"/><path d="M231.46582,360.90198v-29.19316h103.01589v29.19316z" data-paper-data="{&quot;origPos&quot;:null}" fill="url(#color-51)" stroke="#75491c" stroke-width="2" stroke-linecap="butt"/><path d="M233.22676,352.79277h36.98007" data-paper-data="{&quot;origPos&quot;:null}" fill="url(#color-52)" stroke="#75491c" stroke-width="2" stroke-linecap="round"/><path d="M254.35823,342.25079h60.75297" data-paper-data="{&quot;origPos&quot;:null}" fill="url(#color-53)" stroke="#75491c" stroke-width="2" stroke-linecap="round"/><path d="M303.66499,351.17093l30.81672,0.81093" data-paper-data="{&quot;origPos&quot;:null}" fill="url(#color-54)" stroke="#75491c" stroke-width="2" stroke-linecap="round"/><path d="M231.46581,340.62895l11.44621,0.81092" data-paper-data="{&quot;origPos&quot;:null}" fill="url(#color-55)" stroke="#75491c" stroke-width="2" stroke-linecap="round"/><path d="M-77.03421,360.90198v-29.19316h103.01589v29.19316z" data-paper-data="{&quot;origPos&quot;:null}" fill="url(#color-56)" stroke="#75491c" stroke-width="2" stroke-linecap="butt"/><path d="M24.22073,352.79277h-36.98006" data-paper-data="{&quot;origPos&quot;:null}" fill="url(#color-57)" stroke="#75491c" stroke-width="2" stroke-linecap="round"/><path d="M3.08927,342.25079h-60.75296" data-paper-data="{&quot;origPos&quot;:null}" fill="url(#color-58)" stroke="#75491c" stroke-width="2" stroke-linecap="round"/><path d="M14.53548,341.43988l11.44621,-0.81092" data-paper-data="{&quot;origPos&quot;:null}" fill="url(#color-59)" stroke="#75491c" stroke-width="2" stroke-linecap="round"/><g data-paper-data="{&quot;origPos&quot;:null}" stroke="#75491c" stroke-width="2"><path d="M25.2158,360.90199v-29.19316h95.34922l-12.33334,7.85642l4.41896,12.03333l-7.08562,9.3034z" data-paper-data="{&quot;origPos&quot;:null}" fill="url(#color-60)" stroke-linecap="butt"/><path d="M105.33927,342.25079h-60.75297" data-paper-data="{&quot;origPos&quot;:null}" fill="url(#color-61)" stroke-linecap="round"/><path d="M56.03252,351.17092l-30.81672,0.81093" data-paper-data="{&quot;origPos&quot;:null}" fill="url(#color-62)" stroke-linecap="round"/><path d="M147.04915,360.56498l11.40356,-8.092l-9.75106,-6.40401l6.68083,-7.17775l-13,-7.51941l88.34922,0.33701v29.19316z" data-paper-data="{&quot;origPos&quot;:null}" fill="url(#color-63)" stroke-linecap="butt"/><path d="M211.3612,342.25079h-59.41963" data-paper-data="{&quot;origPos&quot;:null}" fill="url(#color-64)" stroke-linecap="round"/><path d="M199.91499,351.17093l30.81672,0.81093" data-paper-data="{&quot;origPos&quot;:null}" fill="url(#color-65)" stroke-linecap="round"/><path d="M97.53549,355.59421l11.44621,-0.81092" data-paper-data="{&quot;origPos&quot;:null}" fill="url(#color-66)" stroke-linecap="round"/><path d="M166.9817,355.59422l-11.44621,-0.81092" data-paper-data="{&quot;origPos&quot;:null,&quot;index&quot;:null}" fill="url(#color-67)" stroke-linecap="round"/></g><g data-paper-data="{&quot;origPos&quot;:null}" stroke="#75491c" stroke-width="2"><path d="M335.21581,360.90199v-29.19316h95.34922l-12.33334,7.85642l4.41895,12.03333l-7.08562,9.3034z" data-paper-data="{&quot;origPos&quot;:null}" fill="url(#color-68)" stroke-linecap="butt"/><path d="M354.58631,342.25079h60.75297" data-paper-data="{&quot;origPos&quot;:null}" fill="url(#color-69)" stroke-linecap="round"/><path d="M366.03253,351.17093l-30.81672,0.81093" data-paper-data="{&quot;origPos&quot;:null}" fill="url(#color-70)" stroke-linecap="round"/><path d="M457.04916,360.56498l11.40356,-8.092l-9.75106,-6.40401l6.68083,-7.17775l-13,-7.51941l88.34922,0.33701v29.19316z" data-paper-data="{&quot;origPos&quot;:null}" fill="url(#color-71)" stroke-linecap="butt"/><path d="M521.36121,342.25079h-59.41963" data-paper-data="{&quot;origPos&quot;:null}" fill="url(#color-72)" stroke-linecap="round"/><path d="M509.91499,351.17093l30.81672,0.81093" data-paper-data="{&quot;origPos&quot;:null}" fill="url(#color-73)" stroke-linecap="round"/><path d="M407.53549,355.59422l11.44621,-0.81092" data-paper-data="{&quot;origPos&quot;:null}" fill="url(#color-74)" stroke-linecap="round"/><path d="M465.53549,354.7833l11.44621,0.81092" data-paper-data="{&quot;origPos&quot;:null,&quot;index&quot;:null}" fill="url(#color-75)" stroke-linecap="round"/></g><text transform="translate(82.08731,35.84646) scale(0.5,0.5)" font-size="40" xml:space="preserve" fill="#b08b2e" fill-rule="nonzero" stroke="none" stroke-width="1" stroke-linecap="butt" stroke-linejoin="miter" stroke-miterlimit="10" stroke-dasharray="" stroke-dashoffset="0" font-family="Sans Serif" font-weight="normal" text-anchor="start" style="mix-blend-mode: normal"><tspan x="0" dy="0">boss arena</tspan></text></g></g></svg>