<svg version="1.1" xmlns="http://www.w3.org/2000/svg" xmlns:xlink="http://www.w3.org/1999/xlink" width="481.55979" height="485.60718" viewBox="0,0,481.55979,485.60718"><defs><linearGradient x1="242.05523" y1="-114.26313" x2="242.05523" y2="371.34407" gradientUnits="userSpaceOnUse" id="color-1"><stop offset="0" stop-color="#2c4250"/><stop offset="1" stop-color="#4b667b"/></linearGradient><linearGradient x1="321.67625" y1="168.595" x2="321.67625" y2="241.75839" gradientUnits="userSpaceOnUse" id="color-2"><stop offset="0" stop-color="#76878a"/><stop offset="1" stop-color="#4b5c62"/></linearGradient><linearGradient x1="112.80088" y1="283.68647" x2="112.80088" y2="351.38369" gradientUnits="userSpaceOnUse" id="color-3"><stop offset="0" stop-color="#7b8d8f"/><stop offset="1" stop-color="#56686f"/></linearGradient><linearGradient x1="326.4385" y1="-0.23483" x2="326.4385" y2="49.5981" gradientUnits="userSpaceOnUse" id="color-4"><stop offset="0" stop-color="#7b8d8f"/><stop offset="1" stop-color="#56686f"/></linearGradient><linearGradient x1="145.19178" y1="97.68515" x2="145.19178" y2="182.68515" gradientUnits="userSpaceOnUse" id="color-5"><stop offset="0" stop-color="#7b8d8f"/><stop offset="1" stop-color="#56686f"/></linearGradient><linearGradient x1="105.67625" y1="-78.405" x2="105.67625" y2="-5.2416" gradientUnits="userSpaceOnUse" id="color-6"><stop offset="0" stop-color="#7b8d8f"/><stop offset="1" stop-color="#56686f"/></linearGradient><linearGradient x1="426.0799" y1="289.76517" x2="426.0799" y2="329.59809" gradientUnits="userSpaceOnUse" id="color-7"><stop offset="0" stop-color="#7b8d8f"/><stop offset="1" stop-color="#56686f"/></linearGradient><linearGradient x1="434.38449" y1="-75.03697" x2="434.38449" y2="-41.50576" gradientUnits="userSpaceOnUse" id="color-8"><stop offset="0" stop-color="#7b8d8f"/><stop offset="1" stop-color="#56686f"/></linearGradient></defs><g transform="translate(-1.27534,114.26314)"><g data-paper-data="{&quot;isPaintingLayer&quot;:true}" fill-rule="nonzero" stroke-linejoin="miter" stroke-miterlimit="10" stroke-dasharray="" stroke-dashoffset="0" style="mix-blend-mode: normal"><path d="M1.27534,-114.26313h481.55979v485.60718h-481.55979z" data-paper-data="{&quot;origPos&quot;:null}" fill="url(#color-1)" stroke="#714a23" stroke-width="0" stroke-linecap="butt"/><path d="M281.7423,207.19369l31.08937,-38.59869l48.77854,16.16862l-8.16217,34.64951l-33.89036,22.34526z" fill="url(#color-2)" stroke="#29374a" stroke-width="2" stroke-linecap="butt"/><path d="M74.24862,328.82272l9.50275,-44.93844l45.18646,-0.19781l22.41532,40.32667l-37.02127,27.37055z" fill="url(#color-3)" stroke="#29374a" stroke-width="2" stroke-linecap="butt"/><path d="M298.32575,36.57764l13.92022,-31.31295l35.59695,-5.49953l6.70833,31.08666l-29.09553,18.74627z" fill="url(#color-4)" stroke="#29374a" stroke-width="2" stroke-linecap="butt"/><path d="M240.00001,160v0v-46v0z" fill="none" stroke="#29374a" stroke-width="1.5" stroke-linecap="butt"/><path d="M444.00001,98.9v-38" data-paper-data="{&quot;origPos&quot;:null}" fill="none" stroke="#29374a" stroke-width="1.5" stroke-linecap="round"/><path d="M125.00001,43.9v33" data-paper-data="{&quot;origPos&quot;:null}" fill="none" stroke="#29374a" stroke-width="1.5" stroke-linecap="round"/><path d="M62.00001,122.9v38" data-paper-data="{&quot;origPos&quot;:null}" fill="none" stroke="#29374a" stroke-width="1.5" stroke-linecap="round"/><path d="M206.00001,319.90001v-26" fill="none" stroke="#29374a" stroke-width="1.5" stroke-linecap="round"/><path d="M435.00001,221.90001v31" fill="none" stroke="#29374a" stroke-width="1.5" stroke-linecap="round"/><path d="M339.00001,261.90001v-13" data-paper-data="{&quot;origPos&quot;:null}" fill="none" stroke="#29374a" stroke-width="1.5" stroke-linecap="round"/><path d="M18.00001,206.90001v-23" data-paper-data="{&quot;origPos&quot;:null}" fill="none" stroke="#29374a" stroke-width="1.5" stroke-linecap="round"/><path d="M268.00001,36.89999v-19" data-paper-data="{&quot;origPos&quot;:null}" fill="none" stroke="#29374a" stroke-width="1.5" stroke-linecap="round"/><path d="M18.00001,98.9v-38" data-paper-data="{&quot;origPos&quot;:null,&quot;index&quot;:null}" fill="none" stroke="#29374a" stroke-width="1.5" stroke-linecap="round"/><path d="M347.00001,73.9v33" data-paper-data="{&quot;origPos&quot;:null,&quot;index&quot;:null}" fill="none" stroke="#29374a" stroke-width="1.5" stroke-linecap="round"/><path d="M428.00001,169.90001v-38" data-paper-data="{&quot;origPos&quot;:null,&quot;index&quot;:null}" fill="none" stroke="#29374a" stroke-width="1.5" stroke-linecap="round"/><path d="M256.00001,290.90001v-26" data-paper-data="{&quot;origPos&quot;:null,&quot;index&quot;:null}" fill="none" stroke="#29374a" stroke-width="1.5" stroke-linecap="round"/><path d="M49.00001,247.90001v31" data-paper-data="{&quot;origPos&quot;:null,&quot;index&quot;:null}" fill="none" stroke="#29374a" stroke-width="1.5" stroke-linecap="round"/><path d="M123.00001,248.90001v13" data-paper-data="{&quot;origPos&quot;:null,&quot;index&quot;:null}" fill="none" stroke="#29374a" stroke-width="1.5" stroke-linecap="round"/><path d="M458.00001,255.90001v23" data-paper-data="{&quot;origPos&quot;:null,&quot;index&quot;:null}" fill="none" stroke="#29374a" stroke-width="1.5" stroke-linecap="round"/><path d="M93.91755,161.68515l36,-64l64,2l2.54847,44.28258l-32.54847,38.71742z" fill="url(#color-5)" stroke="#29374a" stroke-width="2" stroke-linecap="butt"/><path d="M65.74231,-39.80631l31.08936,-38.59869l48.77853,16.16862l-8.16216,34.64952l-33.89037,22.34526z" fill="url(#color-6)" stroke="#29374a" stroke-width="2" stroke-linecap="butt"/><path d="M426.86546,329.59809l-23.25691,-14.98444l5.36217,-24.84848l28.45369,4.39594l11.12684,25.02936z" data-paper-data="{&quot;index&quot;:null}" fill="url(#color-7)" stroke="#29374a" stroke-width="2" stroke-linecap="butt"/><path d="M196.00001,-44.1v26" fill="none" stroke="#29374a" stroke-width="1.5" stroke-linecap="round"/><path d="M329.00001,-47.1v-13" fill="none" stroke="#29374a" stroke-width="1.5" stroke-linecap="round"/><path d="M246.00001,-18.1v-26" data-paper-data="{&quot;index&quot;:null}" fill="none" stroke="#29374a" stroke-width="1.5" stroke-linecap="round"/><path d="M290.00001,157.89999v-26" fill="none" stroke="#29374a" stroke-width="1.5" stroke-linecap="round"/><path d="M201.00001,221.90001v-26" fill="none" stroke="#29374a" stroke-width="1.5" stroke-linecap="round"/><path d="M37.00001,-25.1v-38" data-paper-data="{&quot;index&quot;:null}" fill="none" stroke="#29374a" stroke-width="1.5" stroke-linecap="round"/><path d="M319.00001,342.90001v-38" data-paper-data="{&quot;index&quot;:null}" fill="none" stroke="#29374a" stroke-width="1.5" stroke-linecap="round"/><path d="M435.9203,-41.50576l-21.28202,-11.50636l3.01,-22.02485l25.10348,1.92592l11.37895,21.0775z" data-paper-data="{&quot;index&quot;:null}" fill="url(#color-8)" stroke="#29374a" stroke-width="2" stroke-linecap="butt"/></g></g></svg>