<svg version="1.1" xmlns="http://www.w3.org/2000/svg" xmlns:xlink="http://www.w3.org/1999/xlink" width="46.32224" height="52.11012" viewBox="0,0,46.32224,52.11012"><g transform="translate(-217.04482,-152.94494)"><g data-paper-data="{&quot;isPaintingLayer&quot;:true}" fill-rule="nonzero" stroke-linejoin="miter" stroke-miterlimit="10" stroke-dasharray="" stroke-dashoffset="0" style="mix-blend-mode: normal"><g data-paper-data="{&quot;index&quot;:null}"><path d="M239.85509,203.14417c0,0 0.71387,-1.62539 2.04348,-3.7073c0.28424,-0.44507 1.79662,-1.911 2.13619,-2.38637c1.7415,-2.43804 2.99796,-4.12446 6.04004,-5.51875c2.24632,-1.02955 6.1384,-1.27403 8.1683,-0.63762c3.76236,1.17958 5.12397,5.11123 5.12397,5.11123c0,0 -0.92804,-1.05068 -1.80957,-1.14005c-0.53494,-0.05423 -0.98958,0.49823 -1.39083,1.12822c-1.75503,2.75543 -4.40572,6.03983 -8.06725,7.71804c-6.4098,2.9378 -12.24427,-0.56736 -12.24427,-0.56736z" fill="#9fc225" stroke="none" stroke-width="0" stroke-linecap="butt"/><path d="M243.6391,201.1293c0,0 0.74673,-0.46165 2.66455,-2.25642c1.11718,-1.0455 2.80966,-3.17187 4.54493,-4.12854c1.73527,-0.95666 3.28774,-1.09327 4.76949,-1.2655c2.43532,-0.28307 4.31157,-0.0097 4.31157,-0.0097" fill="none" stroke="#5a911c" stroke-width="1.5" stroke-linecap="round"/></g><path d="M236.98588,177.65981l6.33291,0.11111c0,0 -1.24278,12.85351 -1.24278,17.56909c0,3.14468 0.52579,7.86265 0.52579,7.86265h-5.13794c0,0 0.2868,-5.00853 0.2868,-8.65154c0,-4.63162 -0.76478,-16.89131 -0.76478,-16.89131z" fill="#9fc225" stroke="none" stroke-width="0.97987" stroke-linecap="butt"/><g><path d="M240.25674,203.31442c0,0 -5.83447,3.5052 -12.24425,0.56738c-3.0965,-1.41922 -5.7334,-5.10496 -7.68784,-7.45657c-1.86197,-2.24035 -3.27982,1.45033 -3.27982,1.45033c0,0 0.4748,-3.38775 2.17871,-4.96707c2.51281,-2.32906 6.99381,-2.95725 10.81353,-1.20654c2.00933,0.92093 4.16316,3.8056 5.62424,5.41008c1.07736,1.1831 1.59553,1.03133 2.33959,2.16672c1.46583,2.23678 2.25587,4.0356 2.25587,4.0356z" fill="#9fc225" stroke="none" stroke-width="0" stroke-linecap="butt"/><path d="M219.68223,194.03934c0,0 2.24292,-0.68702 3.6774,-0.49057c1.43448,0.19645 2.56051,0.22477 5.60363,1.46572c1.54992,0.63205 2.87743,2.60409 3.96598,3.49751c2.30964,1.89561 3.54352,2.78747 3.54352,2.78747" fill="none" stroke="#5a911c" stroke-width="1.5" stroke-linecap="round"/></g><g stroke-linecap="butt"><g stroke="none" stroke-width="0"><path d="M262.78102,158.16921c0,0 0.00999,30.38411 -22.29956,30.43206c-21.79185,0.04683 -23.15071,-30.92961 -23.15071,-30.92961c0,0 0.89943,-2.60366 3.60532,-1.51005c3.05651,1.23535 7.97471,4.7861 7.97471,4.7861c0,0 5.29835,-7.96007 11.23024,-8.0026c5.93191,-0.04253 10.26699,7.8485 10.26699,7.8485c0,0 6.34562,-4.56752 9.07177,-5.03687c2.91045,-0.50108 3.30126,2.41242 3.30126,2.41242z" fill="#11ac1e"/><path d="M240.38697,185.45029c-15.76145,-0.1353 -18.86133,-20.71352 -18.86133,-20.71352c0,0 0.26293,-1.2118 1.99022,-0.83897c1.93655,0.41798 6.64022,3.67336 6.64022,3.67336c0,0 5.31549,-7.83694 9.66336,-7.66059c4.51789,0.1832 10.21922,8.33164 10.21922,8.33164c0,0 4.9887,-3.47282 7.25998,-4.30197c2.00085,-0.73043 2.3088,0.78925 2.3088,0.78925c0,0 -3.39677,20.52373 -19.22056,20.72077z" fill="#53ce1b"/><path d="M240.28693,183.3213c-9.72972,-0.21457 -13.27887,-10.75228 -13.27887,-10.75228c0,0 0.06385,-0.7982 1.46748,-0.62038c1.28948,0.16337 4.10997,2.9781 4.10997,2.9781c0,0 4.01753,-5.58542 7.30654,-5.59012c3.11076,-0.00446 8.31209,5.63907 8.31209,5.63907c0,0 3.02216,-2.52054 4.47965,-3.08131c1.34457,-0.51731 1.44142,0.67053 1.44142,0.67053c0,0 -3.91049,10.50701 -13.83825,10.75645z" fill="#96f018"/></g><path d="M250.69499,165.75967c0,-1.62578 1.35276,-2.94369 3.0215,-2.94369c1.66874,0 3.02153,1.31793 3.02153,2.94369c0,1.62578 -1.35279,2.94367 -3.02153,2.94367c-1.66874,0 -3.0215,-1.31788 -3.0215,-2.94367z" fill="none" stroke="#53ce1b" stroke-width="1.5"/><path d="M237.3323,168.33022c0,-1.90054 1.58143,-3.4412 3.5322,-3.4412c1.95078,0 3.53218,1.54066 3.53218,3.4412c0,1.90054 -1.58141,3.44123 -3.53218,3.44123c-1.95078,0 -3.5322,-1.54068 -3.5322,-3.44123z" fill="none" stroke="#96f018" stroke-width="1.5"/><path d="M227.71457,177.03693c0,-1.12202 0.93361,-2.03156 2.0853,-2.03156c1.15167,0 2.08528,0.90952 2.08528,2.03156c0,1.12202 -0.9336,2.03156 -2.08528,2.03156c-1.15167,0 -2.0853,-0.90952 -2.0853,-2.03156z" fill="none" stroke="#96f018" stroke-width="1.5"/><path d="M234.26824,159.70644c0,-1.76317 1.46708,-3.19243 3.27682,-3.19243c1.80974,0 3.27687,1.42931 3.27687,3.19243c0,1.76317 -1.46712,3.19244 -3.27687,3.19244c-1.80974,0 -3.27682,-1.42932 -3.27682,-3.19244z" fill="none" stroke="#53ce1b" stroke-width="1.5"/><path d="M227.20387,166.87908c0,-1.14491 0.95265,-2.07301 2.12782,-2.07301c1.17517,0 2.12782,0.92812 2.12782,2.07301c0,1.14491 -0.95267,2.07303 -2.12782,2.07303c-1.17517,0 -2.12782,-0.92814 -2.12782,-2.07303z" fill="none" stroke="#53ce1b" stroke-width="1.5"/></g><path d="M245.24809,169.40823c1.68672,0 2.24134,1.64143 2.24134,5.49677c0,3.71871 -0.70421,3.31788 -2.24134,3.31788c-1.5371,0 -2.24138,0.26424 -2.24138,-3.31788c0,-3.85531 0.55463,-5.49677 2.24138,-5.49677z" fill="#000000" stroke="none" stroke-width="0" stroke-linecap="butt"/><path d="M234.86377,169.43689c1.68672,0 2.24135,1.64142 2.24135,5.49676c0,3.71871 -0.70422,3.31784 -2.24135,3.31784c-1.5371,0 -2.24134,0.26424 -2.24134,-3.31786c0,-3.85531 0.55462,-5.49676 2.24134,-5.49676z" fill="#000000" stroke="none" stroke-width="0" stroke-linecap="butt"/></g></g></svg>