<svg version="1.1" xmlns="http://www.w3.org/2000/svg" xmlns:xlink="http://www.w3.org/1999/xlink" width="117.98184" height="95.57218" viewBox="0,0,117.98184,95.57218"><defs><linearGradient x1="200.92751" y1="146.42992" x2="213.76026" y2="144.1344" gradientUnits="userSpaceOnUse" id="color-1"><stop offset="0" stop-color="#d91c1c"/><stop offset="1" stop-color="#d92d1c"/></linearGradient></defs><g transform="translate(-170.76224,-135.56314)"><g data-paper-data="{&quot;isPaintingLayer&quot;:true}" fill-rule="nonzero" stroke-linecap="butt" stroke-linejoin="miter" stroke-miterlimit="10" stroke-dasharray="" stroke-dashoffset="0" style="mix-blend-mode: normal"><g data-paper-data="{&quot;index&quot;:null}"><path d="M201.21162,213.89315l-8.2038,-17.73562l9.12066,-3.12347l8.65089,16.04091z" fill="#a48a5c" stroke="none" stroke-width="0"/><g fill="none" stroke="#a48a5c" stroke-width="7.5"><path d="M187.93111,208.54355c-5.39055,2.02048 -11.39838,-0.71151 -13.41887,-6.10206c-2.02048,-5.39055 0.71151,-11.39838 6.10206,-13.41886c5.39055,-2.02048 11.39838,0.71151 13.41887,6.10206c2.02048,5.39055 -0.7115,11.39838 -6.10205,13.41887z"/><path d="M196.13892,226.67035c-5.39055,2.02047 -11.27706,-0.3878 -13.14787,-5.37906c-1.8708,-4.99126 0.98249,-10.67539 6.37306,-12.69587c5.39056,-2.02047 11.27706,0.3878 13.14787,5.37906c1.8708,4.99126 -0.98249,10.67538 -6.37305,12.69587z"/></g></g><path d="M248.5825,220.40715c-18.35303,7.03803 -38.59448,-1.32586 -45.21056,-18.68128c-6.61608,-17.35542 2.89859,-37.13024 21.2516,-44.16828c18.35303,-7.03803 38.59449,1.32585 45.21057,18.68128c6.61608,17.35542 -2.89859,37.13024 -21.2516,44.16829z" data-paper-data="{&quot;index&quot;:null}" fill="#a1160a" stroke="#303546" stroke-width="0"/><path d="M284.96763,198.4149c0,0 -6.95977,13.53295 -17.39687,9.18122c-9.29578,-5.95292 3.59931,-36.43844 14.6335,-31.82746c12.87839,5.38164 2.7634,22.64624 2.7634,22.64624z" data-paper-data="{&quot;index&quot;:null}" fill="#ffd412" stroke="none" stroke-width="0"/><g data-paper-data="{&quot;index&quot;:null}" stroke="none" stroke-width="0"><g fill="#000000" font-family="&quot;Helvetica Neue&quot;, Helvetica, Arial, sans-serif" font-weight="400" font-size="16" text-anchor="start"/><path d="M231.93276,169.75374c-14.51582,5.03944 -17.05604,1.28938 -17.05604,1.28938l-4.2014,-11.69685c0,0 2.19571,-6.81296 12.91032,-10.21443c12.04164,-3.82276 18.14065,-1.89686 18.14065,-1.89686l4.01157,12.37114c0,0 -3.52413,6.57838 -13.80509,10.14762z" fill="#a4ddf0"/><path d="M236.49298,150.62674c0,0 -0.50467,3.30086 -8.85315,6.71547c-8.87878,3.63152 -11.54495,2.65805 -11.54495,2.65805l-0.96991,-2.21743c0,0 2.08883,-2.92433 9.42251,-6.40889c7.19399,-3.41818 11.07041,-2.54082 11.07041,-2.54082z" fill="#7ebdd2"/><path d="M220.40376,156.60881c0,0 -3.85986,-5.74714 -10.69184,-2.40011c2.19195,-2.44792 -6.60371,-10.45265 -6.60371,-10.45265c0,0 6.76702,-3.86019 13.14158,-4.10254c11.2449,-0.42751 14.51451,12.00007 14.51451,12.00007z" fill="#ffffff"/></g><path d="M214.50725,148.83074c0.35662,8.0428 -8.14143,7.40962 -11.91621,3.02836c-2.07768,-2.41149 -2.65208,-13.54918 0.1056,-15.60522c1.62386,-1.21069 4.11695,-0.7519 5.25102,0.7692c0.61488,0.49668 6.38179,7.79783 6.55959,11.80765z" fill="url(#color-1)" stroke="none" stroke-width="0.5"/><path d="M232.45258,219.45669c-1.97481,-7.06871 14.39434,-11.40752 14.39434,-11.40752c0,0 16.99379,-7.44719 19.87781,4.1587c3.36604,13.54565 -16.52376,15.73064 -16.52376,15.73064c0,0 -14.40444,3.48762 -17.74838,-8.48182z" data-paper-data="{&quot;index&quot;:null}" fill="#f2c911" stroke="none" stroke-width="0"/><path d="M242.45829,190.80112c-1.36279,0.06381 -3.88334,-1.1915 -5.12779,-1.62551c-1.22602,-0.42759 -2.49802,-0.7571 -3.73219,-1.15618c-1.96409,-0.6351 -11.08827,-1.8073 -11.27039,-5.0855c-0.11373,-2.04716 2.31717,-2.62655 3.87909,-2.23607c5.14374,1.28593 12.24411,2.28739 16.79171,5.18132c0.00256,0.00072 0.00512,0.00145 0.00768,0.00218c0.422,0.09377 0.78655,0.32285 1.07717,0.63368c0.39331,0.3921 0.65673,0.9144 0.72015,1.49678c0.21589,1.29301 -0.41898,2.6991 -2.34543,2.7893z" fill="#ffffff" stroke="none" stroke-width="0.5"/><path d="M253.93544,187.39184c-1.70362,-0.9735 -2.2492,-2.28062 -2.16556,-3.74998c0.16241,-2.8529 2.69689,-6.31735 3.73289,-9.13876c0.44207,-1.2039 1.31319,-5.49015 2.64778,-5.93502c2.23607,-0.74535 3.16776,-0.27952 3.91312,1.95655c0.44045,1.32134 -3.97858,11.10578 -4.43336,12.1185c-0.14151,0.31512 -1.24388,3.34813 -1.54034,3.51754z" fill="#ffffff" stroke="none" stroke-width="0.5"/></g></g></svg>