<svg version="1.1" xmlns="http://www.w3.org/2000/svg" xmlns:xlink="http://www.w3.org/1999/xlink" width="486" height="349.5" viewBox="0,0,486,349.5"><defs><linearGradient x1="-89.40098" y1="308.0044" x2="-89.40098" y2="406.0044" gradientUnits="userSpaceOnUse" id="color-1"><stop offset="0" stop-color="#000000" stop-opacity="0"/><stop offset="1" stop-color="#000000"/></linearGradient></defs><g transform="translate(4.5,-11)"><g data-paper-data="{&quot;isPaintingLayer&quot;:true}" fill-rule="nonzero" stroke-linecap="butt" stroke-linejoin="miter" stroke-miterlimit="10" stroke-dasharray="" stroke-dashoffset="0" style="mix-blend-mode: normal"><g data-paper-data="{&quot;origRot&quot;:0,&quot;origPos&quot;:null}" fill="#00c7c9" stroke="#4bca88" stroke-width="0"><g data-paper-data="{&quot;origPos&quot;:null}"><path d="M150.22601,231.73415c0.36156,23.85704 -40.13842,43.81522 -90.45925,44.57786c-23.99485,0.36365 -45.89,-3.70292 -62.27126,-10.64401c0,-21.21946 0,-42.43892 0,-63.65838c16.06033,-7.18363 37.43803,-11.73506 60.96193,-12.09158c50.32083,-0.76264 91.40703,17.95907 91.76859,41.81611z" data-paper-data="{&quot;origPos&quot;:null}"/><path d="M260.94064,228.46421c0.36156,23.85704 -40.13842,43.81522 -90.45925,44.57786c-50.32083,0.76264 -91.40703,-17.95907 -91.76859,-41.81611c-0.36156,-23.85704 40.13842,-43.81522 90.45925,-44.57786c50.32083,-0.76264 91.40703,17.95907 91.76859,41.81611z" data-paper-data="{&quot;origPos&quot;:null}"/></g><g data-paper-data="{&quot;origPos&quot;:null}"><path d="M407.2872,233.80864c0.36156,23.85704 -40.13842,43.81522 -90.45925,44.57786c-50.32083,0.76264 -91.40702,-17.95907 -91.76859,-41.81611c-0.36156,-23.85704 40.13842,-43.81522 90.45925,-44.57786c50.32083,-0.76264 91.40703,17.95907 91.76859,41.8161z" data-paper-data="{&quot;origPos&quot;:null}"/><path d="M426.53957,281.11656c-50.32083,0.76264 -91.40703,-17.95907 -91.76859,-41.81611c-0.36156,-23.85704 40.13842,-43.81522 90.45925,-44.57786c20.49852,-0.31067 39.46465,2.61189 54.76977,7.79772c0,20.78803 0,41.57605 0,62.36408c0,2.1162 0,4.65183 0,7.16353c-14.95965,5.42073 -33.43216,8.7651 -53.46043,9.06864z" data-paper-data="{&quot;origPos&quot;:null}"/></g></g><path d="" data-paper-data="{&quot;origPos&quot;:null}" fill="url(#color-1)" stroke="none" stroke-width="1.22826"/><path d="M-4.5,360.5v-109h486v109z" fill="#00c7c9" stroke="none" stroke-width="0"/><g stroke="none" stroke-width="1"><path d="M238.00852,88.63528c5.67229,3.96506 9.18348,9.44084 9.18348,15.48366c0,6.04282 -3.51119,11.51858 -9.18348,15.48365c-5.67228,3.96506 -13.50569,6.41943 -22.1501,6.41943c-8.64441,0 -16.47781,-2.45437 -22.1501,-6.41943c-5.67229,-3.96506 -9.18347,-9.44084 -9.18347,-15.48365c0,-6.04282 3.51119,-11.51859 9.18347,-15.48366c5.67229,-3.96506 13.50569,-6.41942 22.1501,-6.41942c8.64441,0 16.47782,2.45436 22.1501,6.41942z" data-paper-data="{&quot;origPos&quot;:null}" fill="#ffffff"/><path d="M199.06971,78.90058c5.67228,3.96506 9.18348,9.44084 9.18348,15.48365c0,6.04282 -3.51119,11.51859 -9.18348,15.48366c-5.67228,3.96506 -13.50569,6.41942 -22.1501,6.41942c-8.64441,0 -16.47781,-2.45436 -22.1501,-6.41942c-5.67229,-3.96506 -9.18348,-9.44084 -9.18348,-15.48366c0,-6.04282 3.51119,-11.51858 9.18348,-15.48365c5.67229,-3.96506 13.50569,-6.41943 22.1501,-6.41943c8.64441,0 16.47782,2.45437 22.1501,6.41943z" data-paper-data="{&quot;origPos&quot;:null}" fill="#ffffff"/><path d="M191.18985,97.64414c0.49586,1.07387 0.8025,2.55657 0.8025,4.19323c0,1.63665 -0.30665,3.11936 -0.8025,4.19322c-0.49525,1.07387 -1.17972,1.73886 -1.93537,1.73886c-0.75566,0 -1.44013,-0.665 -1.93538,-1.73886c-0.49586,-1.07387 -0.8025,-2.55657 -0.8025,-4.19322c0,-1.63665 0.30665,-3.11936 0.8025,-4.19323c0.26661,-0.57809 3.64211,-0.49578 3.87076,0z" data-paper-data="{&quot;origPos&quot;:null}" fill="#555b60"/><path d="M177.94237,96.86924c0.49586,1.07387 0.8025,2.55657 0.8025,4.19323c0,1.63665 -0.30665,3.11936 -0.8025,4.19322c-0.49525,1.07387 -1.17973,1.73886 -1.93538,1.73886c-0.75566,0 -1.44012,-0.665 -1.93537,-1.73886c-0.49586,-1.07387 -0.80251,-2.55657 -0.80251,-4.19322c0,-1.63665 0.30665,-3.11936 0.80251,-4.19323c0.27582,-0.59806 3.65132,-0.4758 3.87076,0z" data-paper-data="{&quot;origPos&quot;:null}" fill="#555b60"/></g><g stroke="none" stroke-width="1"><path d="M100.99802,32.65185c7.34405,0 13.99908,2.08516 18.8181,5.45377c4.81901,3.36861 7.80203,8.02066 7.80203,13.15447c0,5.13381 -2.98301,9.78585 -7.80203,13.15447c-4.81901,3.36861 -11.47405,5.45377 -18.8181,5.45377c-7.34405,0 -13.99909,-2.08517 -18.8181,-5.45377c-4.81901,-3.36861 -7.80203,-8.02066 -7.80203,-13.15447c0,-5.1338 2.983,-9.78587 7.80203,-13.15447c4.81901,-3.36861 11.47405,-5.45377 18.8181,-5.45377z" fill="#ffffff"/><path d="M57.09079,20.73471c8.45864,0 16.12371,2.40162 21.6741,6.28148c5.55039,3.87986 8.98612,9.23795 8.98612,15.15091c0,5.91296 -3.43573,11.27107 -8.98612,15.15092c-5.55039,3.87986 -13.21545,6.28148 -21.6741,6.28148c-8.45864,0 -16.12371,-2.40162 -21.6741,-6.28148c-5.55038,-3.87985 -8.98613,-9.23796 -8.98613,-15.15092c0,-5.91296 3.43573,-11.27105 8.98613,-15.15091c5.55039,-3.87986 13.21546,-6.28148 21.67411,-6.28148z" fill="#ffffff"/><path d="M86.87725,11c7.34405,0 13.99908,2.08517 18.8181,5.45377c4.81901,3.3686 7.80203,8.02066 7.80203,13.15447c0,5.13381 -2.98301,9.78585 -7.80203,13.15447c-4.81901,3.36861 -11.47405,5.45377 -18.8181,5.45377c-7.34405,0 -13.99909,-2.08517 -18.8181,-5.45377c-4.81901,-3.36861 -7.80203,-8.02066 -7.80203,-13.15447c0,-5.1338 2.983,-9.78587 7.80203,-13.15447c4.81901,-3.3686 11.47405,-5.45377 18.8181,-5.45377z" fill="#ffffff"/><path d="M63.41425,34.87212c0.75566,0 1.44013,0.665 1.93538,1.73887c0.49586,1.07387 0.8025,2.55657 0.8025,4.19323c0,1.63664 -0.30665,3.11936 -0.8025,4.19323c-0.49525,1.07387 -1.17972,1.73886 -1.93538,1.73886c-0.75566,0 -1.44012,-0.66499 -1.93537,-1.73886c-0.49586,-1.07387 -0.80251,-2.55657 -0.80251,-4.19323c0,-1.63664 0.30665,-3.11936 0.80251,-4.19323c0.49525,-1.07387 1.17972,-1.73887 1.93537,-1.73887z" data-paper-data="{&quot;origPos&quot;:null}" fill="#555b60"/><path d="M76.19105,34.09722c0.75566,0 1.44012,0.66499 1.93537,1.73886c0.49586,1.07387 0.8025,2.55657 0.8025,4.19323c0,1.63664 -0.30665,3.11936 -0.8025,4.19323c-0.49525,1.07387 -1.17972,1.73886 -1.93537,1.73886c-0.75566,0 -1.44013,-0.665 -1.93538,-1.73886c-0.49586,-1.07387 -0.8025,-2.55657 -0.8025,-4.19323c0,-1.63664 0.30665,-3.11936 0.8025,-4.19323c0.49525,-1.07387 1.17973,-1.73886 1.93538,-1.73886z" data-paper-data="{&quot;origPos&quot;:null}" fill="#555b60"/></g><g stroke="none" stroke-width="1"><path d="M263.04959,21.67609c8.64441,0 16.47781,2.45436 22.1501,6.41943c5.67229,3.96506 9.18348,9.44084 9.18348,15.48366c0,6.04281 -3.51119,11.51858 -9.18348,15.48366c-5.67229,3.96506 -13.50569,6.41943 -22.1501,6.41943c-8.64441,0 -16.47781,-2.45436 -22.1501,-6.41943c-5.67229,-3.96506 -9.18348,-9.44084 -9.18348,-15.48366c0,-6.04281 3.51119,-11.51858 9.18348,-15.48366c5.67229,-3.96506 13.50569,-6.41943 22.1501,-6.41943z" data-paper-data="{&quot;origPos&quot;:null}" fill="#ffffff"/><path d="M297.94829,11.94138c7.52982,0 14.35318,2.13789 19.2941,5.59172c4.94091,3.45382 7.99938,8.22355 7.99938,13.48722c0,5.26367 -3.05846,10.0334 -7.99938,13.48722c-4.94091,3.45381 -11.76429,5.59172 -19.2941,5.59172c-7.52982,0 -14.35319,-2.13789 -19.2941,-5.59172c-4.94091,-3.45381 -7.99938,-8.22355 -7.99938,-13.48722c0,-5.26367 3.05846,-10.03339 7.99938,-13.48722c4.94091,-3.45381 11.76429,-5.59172 19.2941,-5.59172z" data-paper-data="{&quot;origPos&quot;:null}" fill="#ffffff"/><path d="M270.0464,31.10658c0.75566,0 1.44013,0.665 1.93538,1.73886c0.49586,1.07386 0.8025,2.55657 0.8025,4.19323c0,1.63664 -0.30665,3.11936 -0.8025,4.19323c-0.49525,1.07386 -3.37551,1.07386 -3.87077,0c-0.49586,-1.07386 -0.8025,-2.55657 -0.8025,-4.19323c0,-1.63664 0.30665,-3.11936 0.8025,-4.19323c0.49525,-1.07386 1.17972,-1.73886 1.93538,-1.73886z" data-paper-data="{&quot;origPos&quot;:null}" fill="#555b60"/><path d="M282.35251,31.27307c0.75566,0 1.44013,0.665 1.93538,1.73886c0.49586,1.07386 0.8025,2.55657 0.8025,4.19323c0,1.63664 -0.30665,3.11936 -0.8025,4.19323c-0.49525,1.07386 -3.37551,1.07386 -3.87077,0c-0.49586,-1.07386 -0.8025,-2.55657 -0.8025,-4.19323c0,-1.63664 0.30665,-3.11936 0.8025,-4.19323c0.49525,-1.07386 1.17972,-1.73886 1.93538,-1.73886z" data-paper-data="{&quot;origPos&quot;:null}" fill="#555b60"/></g><g stroke="none" stroke-width="1"><path d="M434.21933,34.28777c5.24624,3.66725 8.49371,8.73174 8.49371,14.32069c0,5.58893 -3.24747,10.65342 -8.49371,14.32068c-5.24624,3.66725 -12.49128,5.93728 -20.48641,5.93728c-7.99513,0 -15.24017,-2.27002 -20.48641,-5.93728c-5.24624,-3.66725 -8.49371,-8.73173 -8.49371,-14.32068c0,-5.58893 3.24746,-10.65343 8.49371,-14.32069c5.24624,-3.66725 12.49128,-5.93727 20.48641,-5.93727c7.99513,0 15.24017,2.27001 20.48641,5.93727z" fill="#ffffff"/><path d="M450.81652,55.33513c5.67229,3.96506 9.18348,9.44084 9.18348,15.48366c0,6.04281 -3.51119,11.51858 -9.18348,15.48366c-5.67229,3.96506 -13.50569,6.41943 -22.1501,6.41943c-8.64441,0 -16.47781,-2.45436 -22.1501,-6.41943c-5.67229,-3.96506 -9.18348,-9.44084 -9.18348,-15.48366c0,-6.04281 3.51119,-11.51858 9.18348,-15.48366c5.67229,-3.96506 13.50569,-6.41943 22.1501,-6.41943c8.64441,0 16.47781,2.45436 22.1501,6.41943z" data-paper-data="{&quot;origPos&quot;:null}" fill="#ffffff"/><path d="M403.03997,51.77829c4.735,3.30987 7.66599,7.88082 7.66599,12.92512c0,5.04429 -2.93099,9.61524 -7.66599,12.92512c-4.735,3.30987 -11.27398,5.35868 -18.48998,5.35868c-7.216,0 -13.75498,-2.0488 -18.48998,-5.35867c-4.735,-3.30987 -7.66599,-7.88082 -7.66599,-12.92511c0,-5.04429 2.93099,-9.61523 7.66599,-12.92511c4.735,-3.30987 11.27398,-5.35867 18.48998,-5.35867c7.216,0 13.75498,2.04879 18.48998,5.35868z" data-paper-data="{&quot;origPos&quot;:null}" fill="#ffffff"/><path d="M400.89709,55.11189c0.75566,0 1.44013,0.665 1.93538,1.73887c0.49586,1.07387 0.8025,2.55657 0.8025,4.19323c0,1.63664 -0.30665,3.11936 -0.8025,4.19323c-0.49525,1.07387 -1.17972,1.73886 -1.93538,1.73886c-0.75566,0 -1.44012,-0.66499 -1.93537,-1.73886c-0.49586,-1.07387 -0.80251,-2.55657 -0.80251,-4.19323c0,-1.63664 0.30665,-3.11936 0.80251,-4.19323c0.49525,-1.07387 1.17972,-1.73887 1.93537,-1.73887z" fill="#555b60"/><path d="M412.26181,50.57145c0.75566,0 1.44012,0.66499 1.93537,1.73886c0.49586,1.07387 0.8025,2.55657 0.8025,4.19323c0,1.63664 -0.30665,3.11936 -0.8025,4.19323c-0.49525,1.07387 -1.17972,1.73886 -1.93537,1.73886c-0.75566,0 -1.44013,-0.665 -1.93538,-1.73886c-0.49586,-1.07387 -0.8025,-2.55657 -0.8025,-4.19323c0,-1.63664 0.30665,-3.11936 0.8025,-4.19323c0.49525,-1.07387 1.17973,-1.73886 1.93538,-1.73886z" fill="#555b60"/></g></g></g></svg>