<svg version="1.1" xmlns="http://www.w3.org/2000/svg" xmlns:xlink="http://www.w3.org/1999/xlink" width="510.35736" height="385.52897" viewBox="0,0,510.35736,385.52897"><defs><linearGradient x1="240.00001" y1="0" x2="240.00001" y2="360" gradientUnits="userSpaceOnUse" id="color-1"><stop offset="0" stop-color="#9bb3fd"/><stop offset="1" stop-color="#fdf360"/></linearGradient><radialGradient cx="240" cy="282.30156" r="344.5" gradientUnits="userSpaceOnUse" id="color-2"><stop offset="0" stop-color="#ffbc3b"/><stop offset="1" stop-color="#ffbc3b" stop-opacity="0"/></radialGradient><linearGradient x1="-59.1877" y1="248.1548" x2="-59.1877" y2="361.1048" gradientUnits="userSpaceOnUse" id="color-3"><stop offset="0" stop-color="#ffa31d" stop-opacity="0"/><stop offset="1" stop-color="#ffa31d"/></linearGradient><radialGradient cx="254.3286" cy="305.415" r="117.7488" gradientUnits="userSpaceOnUse" id="color-4"><stop offset="0" stop-color="#ffe21d"/><stop offset="1" stop-color="#ff721d"/></radialGradient><radialGradient cx="163.9765" cy="250.72057" r="212.0047" gradientUnits="userSpaceOnUse" id="color-5"><stop offset="0" stop-color="#fdd970"/><stop offset="1" stop-color="#c0a555"/></radialGradient><radialGradient cx="368.2669" cy="240.84097" r="192.935" gradientUnits="userSpaceOnUse" id="color-6"><stop offset="0" stop-color="#fdd970"/><stop offset="1" stop-color="#c0a555"/></radialGradient><linearGradient x1="567.89951" y1="308.00443" x2="567.89951" y2="406.00443" gradientUnits="userSpaceOnUse" id="color-7"><stop offset="0" stop-color="#000000" stop-opacity="0"/><stop offset="1" stop-color="#000000"/></linearGradient></defs><g transform="translate(18,3.79999)"><g data-paper-data="{&quot;isPaintingLayer&quot;:true}" fill-rule="nonzero" stroke="none" stroke-linejoin="miter" stroke-miterlimit="10" stroke-dasharray="" stroke-dashoffset="0" style="mix-blend-mode: normal"><path d="M0.00001,0h480v360h-480z" data-paper-data="{&quot;origPos&quot;:null}" fill="url(#color-1)" stroke-width="1" stroke-linecap="butt"/><path d="M492.35736,-3.79999v365.92821h-498.3093v-365.92821z" data-paper-data="{&quot;origPos&quot;:null,&quot;index&quot;:null}" fill="url(#color-2)" stroke-width="0" stroke-linecap="butt"/><path d="M-5.13364,248.1548h494.38243v112.95h-494.38243z" data-paper-data="{&quot;origPos&quot;:null}" fill="url(#color-3)" stroke-width="1.96691" stroke-linecap="round"/><path d="M252.9516,225.991c23.4503,0 44.7003,9.5242 60.0881,24.912c15.3878,15.3877 24.9119,36.6377 24.9119,60.088c0,23.4502 -9.5241,44.7002 -24.9119,60.088c-15.3878,15.3878 -107.21572,12.96038 -120.1761,0c-15.3878,-15.3878 -24.912,-36.6378 -24.912,-60.088c0,-23.4503 9.5242,-44.7003 24.912,-60.088c15.3878,-15.3878 36.6378,-24.912 60.088,-24.912z" data-paper-data="{&quot;origPos&quot;:null}" fill="url(#color-4)" stroke-width="1.39344" stroke-linecap="butt"/><path d="M108,164.69604c22.73622,16.15367 20.69331,41.08132 36.49828,62.58741c17.43795,23.72812 33.81806,32.95992 52.34201,55.95719c23.82998,29.58463 56.15971,78.75936 56.15971,78.75936h-271c0,0 39.90029,-78.72537 68.63877,-123.72708c20.43464,-31.9987 27.07957,-95.09144 57.36123,-73.57687z" data-paper-data="{&quot;origPos&quot;:null}" fill="url(#color-5)" stroke-width="1" stroke-linecap="round"/><path d="M369.1745,201.96835c29.16027,-9.96356 72.31319,26.53511 88.81143,51.12748c28.33048,42.22956 28.36577,108.31741 28.36577,108.31741h-219c0,0 18.74949,-39.3639 33.31032,-62.16479c0,0 13.20506,-33.5383 23.88773,-53.97694c11.08243,-21.2035 12.84815,-32.44563 44.62475,-43.30315z" data-paper-data="{&quot;origPos&quot;:null}" fill="url(#color-6)" stroke-width="0.80812" stroke-linecap="round"/><path d="M486.00609,366.97l-493.51352,1.49689c0,-20.15415 0,-40.3083 0,-60.46246h490.88069c0.19361,6.68646 2.63283,58.96557 2.63283,58.96557z" data-paper-data="{&quot;origPos&quot;:null,&quot;index&quot;:null}" fill="url(#color-7)" stroke-width="1.22826" stroke-linecap="butt"/></g></g></svg>