<svg version="1.1" xmlns="http://www.w3.org/2000/svg" xmlns:xlink="http://www.w3.org/1999/xlink" width="114.38653" height="41.9804" viewBox="0,0,114.38653,41.9804"><defs><linearGradient x1="277.7455" y1="158.40299" x2="277.7455" y2="200.37205" gradientUnits="userSpaceOnUse" id="color-1"><stop offset="0" stop-color="#d558ee"/><stop offset="1" stop-color="#8933af"/></linearGradient><linearGradient x1="205.32803" y1="158.40299" x2="205.32803" y2="200.37205" gradientUnits="userSpaceOnUse" id="color-2"><stop offset="0" stop-color="#d558ee"/><stop offset="1" stop-color="#8933af"/></linearGradient><linearGradient x1="241.16665" y1="158.42031" x2="241.16665" y2="200.38339" gradientUnits="userSpaceOnUse" id="color-3"><stop offset="0" stop-color="#d558ee"/><stop offset="1" stop-color="#8933af"/></linearGradient><linearGradient x1="276.23061" y1="162.29056" x2="276.23061" y2="196.34582" gradientUnits="userSpaceOnUse" id="color-4"><stop offset="0" stop-color="#d558ee"/><stop offset="1" stop-color="#8933af"/></linearGradient></defs><g transform="translate(-184.3435,-158.40298)"><g data-paper-data="{&quot;isPaintingLayer&quot;:true}" fill-rule="nonzero" stroke-linejoin="miter" stroke-miterlimit="10" stroke-dasharray="" stroke-dashoffset="0" style="mix-blend-mode: normal"><g stroke="#000000" stroke-width="0" stroke-linecap="butt"><path d="M277.7455,200.37205c-11.58944,0 -20.98453,-9.39509 -20.98453,-20.98453c0,-11.58944 9.39509,-20.98453 20.98453,-20.98453c11.58944,0 20.98453,9.39509 20.98453,20.98453c0,11.58944 -9.39509,20.98453 -20.98453,20.98453z" data-paper-data="{&quot;origPos&quot;:null,&quot;index&quot;:null}" fill="url(#color-1)"/><path d="M205.32803,200.37205c-11.58944,0 -20.98453,-9.3951 -20.98453,-20.98453c0,-11.58944 9.3951,-20.98453 20.98453,-20.98453c11.58944,0 20.98453,9.3951 20.98453,20.98453c0,11.58944 -9.3951,20.98453 -20.98453,20.98453z" data-paper-data="{&quot;origPos&quot;:null,&quot;index&quot;:null}" fill="url(#color-2)"/><path d="M205.08961,200.38339v-41.96308h72.15408v41.96308z" data-paper-data="{&quot;origPos&quot;:null,&quot;index&quot;:null}" fill="url(#color-3)"/></g><text transform="translate(207.32973,188.56732) scale(0.65491,0.65491)" font-size="40" xml:space="preserve" data-paper-data="{&quot;origPos&quot;:null,&quot;index&quot;:null}" fill="#f7f7f7" fill-rule="nonzero" stroke="none" stroke-width="1" stroke-linecap="butt" stroke-linejoin="miter" stroke-miterlimit="10" stroke-dasharray="" stroke-dashoffset="0" font-family="&quot;Microsoft YaHei&quot;, &quot;微软雅黑&quot;, STXihei, &quot;华文细黑&quot;" font-weight="normal" text-anchor="start" style="mix-blend-mode: normal"><tspan x="0" dy="0">On</tspan></text><g><path d="M276.23061,162.29056c4.69771,0 8.95515,1.90752 12.0371,4.99053c3.08301,3.08195 4.99053,7.33939 4.99053,12.0371c0,4.69771 -1.90752,8.95515 -4.99053,12.0371c-3.08195,3.08301 -7.33939,4.99053 -12.0371,4.99053c-4.69771,0 -8.95515,-1.90752 -12.0371,-4.99053c-3.08301,-3.08195 -4.99053,-7.33939 -4.99053,-12.0371c0,-4.69771 1.90752,-8.95515 4.99053,-12.0371c3.08195,-3.08301 7.33939,-4.99053 12.0371,-4.99053z" data-paper-data="{&quot;origPos&quot;:null}" fill="url(#color-4)" stroke="#64238c" stroke-width="1.25" stroke-linecap="butt"/><path d="M273.64178,183.80666c1.117,0 2.13,0.454 2.863,1.187c0.733,0.733 1.187,1.746 1.187,2.863c0,1.117 -0.454,2.13 -1.187,2.863c-0.733,0.733 -1.746,1.187 -2.863,1.187c-1.117,0 -2.13,-0.454 -2.863,-1.187c-0.733,-0.733 -1.187,-1.746 -1.187,-2.863c0,-1.117 0.454,-2.13 1.187,-2.863c0.733,-0.733 1.746,-1.187 2.863,-1.187z" data-paper-data="{&quot;origPos&quot;:null}" fill="#ffffff" stroke="#64238c" stroke-width="2.5" stroke-linecap="butt"/><path d="M276.39178,188.90666l1.5,-17.25l3.4,5.75" data-paper-data="{&quot;origPos&quot;:null}" fill="none" stroke="#64238c" stroke-width="4.5" stroke-linecap="round"/><g data-paper-data="{&quot;origPos&quot;:null}"><path d="M273.64178,183.80666c1.117,0 2.13,0.454 2.863,1.187c0.733,0.733 1.187,1.746 1.187,2.863c0,1.117 -0.454,2.13 -1.187,2.863c-0.733,0.733 -1.746,1.187 -2.863,1.187c-1.117,0 -2.13,-0.454 -2.863,-1.187c-0.733,-0.733 -1.187,-1.746 -1.187,-2.863c0,-1.117 0.454,-2.13 1.187,-2.863c0.733,-0.733 1.746,-1.187 2.863,-1.187z" fill="#ffffff" stroke="none" stroke-width="1" stroke-linecap="butt"/><path d="M276.39178,188.90666l1.5,-17.25l3.4,5.75" fill="none" stroke="#ffffff" stroke-width="2" stroke-linecap="round"/></g></g></g></g></svg>