<svg version="1.1" xmlns="http://www.w3.org/2000/svg" xmlns:xlink="http://www.w3.org/1999/xlink" width="120.46651" height="120.46651" viewBox="0,0,120.46651,120.46651"><g transform="translate(-179.76679,-119.76678)"><g data-paper-data="{&quot;isPaintingLayer&quot;:true}" fill-rule="nonzero" stroke-miterlimit="10" stroke-dasharray="" stroke-dashoffset="0" style="mix-blend-mode: normal"><path d="M225.63785,165.63786h28.72436v28.72436h-28.72436z" fill="#fdd8b9" stroke="#fdd8b9" stroke-width="11" stroke-linecap="round" stroke-linejoin="round"/><path d="M179.76679,240.23329v-120.46651h120.46651v120.46651z" fill="none" stroke="none" stroke-width="0" stroke-linecap="butt" stroke-linejoin="miter"/><g fill="#000000" stroke="none" stroke-linecap="butt" stroke-linejoin="miter"><path d="M244.08905,181.53351c-2.59787,14.43057 -8.72872,13.3797 -8.72872,13.3797c0,0 3.67978,-6.30984 4.66856,-14.11213c0.63247,-4.99067 -1.98979,-9.4917 -1.98979,-9.4917l4.05817,-1.50366c0,0 3.30209,6.64695 1.99178,11.72779z" data-paper-data="{&quot;index&quot;:null}" stroke-width="1.05369"/><path d="M245.64054,180.54627c0,0 2.56326,-6.36418 0.95763,-8.978c-1.14636,-1.86616 -7.01959,2.98757 -7.01959,2.98757l-2.76008,-5.86367c0,0 13.32702,-8.68954 14.83753,0.22179c1.10568,6.4026 -6.01549,11.6323 -6.01549,11.6323z" stroke-width="0.5"/><path d="M234.66229,183.88625c2.64953,0.19846 5.647,1.5834 5.74211,5.74211c0.09056,3.95961 -2.85001,5.50431 -5.14761,5.62321c-3.71934,0.19248 -7.52875,-1.78159 -7.40662,-6.21771c0.1189,-4.3189 4.2784,-5.3374 6.81213,-5.14761z" stroke-width="1.05369"/></g></g></g></svg>