<svg version="1.1" xmlns="http://www.w3.org/2000/svg" xmlns:xlink="http://www.w3.org/1999/xlink" width="40.27398" height="41.98133" viewBox="0,0,40.27398,41.98133"><defs><linearGradient x1="239.81503" y1="170.21882" x2="239.81503" y2="175.20885" gradientUnits="userSpaceOnUse" id="color-1"><stop offset="0" stop-color="#297b40"/><stop offset="1" stop-color="#297b40" stop-opacity="0"/></linearGradient></defs><g transform="translate(-219.86301,-159.00933)"><g data-paper-data="{&quot;isPaintingLayer&quot;:true}" fill-rule="nonzero" stroke="none" stroke-linecap="butt" stroke-linejoin="miter" stroke-miterlimit="10" stroke-dasharray="" stroke-dashoffset="0" style="mix-blend-mode: normal"><path d="M222.89091,169.58603h33.72428v31.40464h-33.72428z" fill="#5cb745" stroke-width="1.18415"/><path d="M221.44225,159.00934c3.93525,0 30.88957,0 37.06103,0c0.79205,0 1.63372,0.76105 1.63372,1.33275c0,1.29913 0,6.32643 0,8.64731c0,0.70724 -0.88285,1.24751 -1.63372,1.24751c-3.48656,0 -29.75849,0 -37.06103,0c-1.19161,0 -1.57924,-0.28863 -1.57924,-1.15452c0,-2.35934 0,-7.3054 0,-8.64732c0,-0.72552 0.65314,-1.42572 1.57924,-1.42572z" fill="#5cb745" stroke-width="1.07722"/><path d="M223.45299,159.00934h4.21549v11.22756h-4.21549z" fill="#71ff5e" stroke-width="1.18415"/><path d="M226.38823,170.2369h4.44974v30.75376h-4.44974z" fill="#71ff5e" stroke-width="1.18415"/><path d="M222.90344,175.20885v-4.99003h33.82317v4.99003z" fill="url(#color-1)" stroke-width="0"/></g></g></svg>