<svg version="1.1" xmlns="http://www.w3.org/2000/svg" xmlns:xlink="http://www.w3.org/1999/xlink" width="48.24871" height="38.76092" viewBox="0,0,48.24871,38.76092"><defs><linearGradient x1="239.98459" y1="169.35371" x2="239.98459" y2="172.54578" gradientUnits="userSpaceOnUse" id="color-1"><stop offset="0" stop-color="#f69635"/><stop offset="1" stop-color="#ff0000"/></linearGradient><linearGradient x1="240.0154" y1="160.61955" x2="240.0154" y2="163.10226" gradientUnits="userSpaceOnUse" id="color-2"><stop offset="0" stop-color="#ffffff"/><stop offset="1" stop-color="#ff0000"/></linearGradient></defs><g transform="translate(-215.87565,-160.61954)"><g data-paper-data="{&quot;isPaintingLayer&quot;:true}" fill-rule="nonzero" stroke="none" stroke-linecap="butt" stroke-linejoin="miter" stroke-miterlimit="10" stroke-dasharray="" stroke-dashoffset="0" style="mix-blend-mode: normal"><path d="M261.08708,169.4864c0.69535,-0.44017 1.18132,-1.44554 1.18132,-2.61541c0,-1.57551 -0.88139,-2.85271 -1.96866,-2.85271c-1.08726,0 -1.96866,1.2772 -1.96866,2.85271c0,1.16986 0.48596,2.17525 1.18132,2.61541h-6.25767c0.69536,-0.44017 1.18132,-1.44554 1.18132,-2.61541c0,-1.57551 -0.8814,-2.85271 -1.96866,-2.85271c-1.08726,0 -1.96866,1.2772 -1.96866,2.85271c0,1.16986 0.48596,2.17525 1.18132,2.61541h-6.60821c0.5973,-0.48983 1.00044,-1.41891 1.00044,-2.48442c0,-1.57551 -0.88139,-2.85271 -1.96866,-2.85271c-1.08726,0 -1.96866,1.2772 -1.96866,2.85271c0,1.06551 0.40314,1.99458 1.00043,2.48442h-6.30162c0.5973,-0.48983 1.00043,-1.41891 1.00043,-2.48442c0,-1.57551 -0.8814,-2.85271 -1.96866,-2.85271c-1.08726,0 -1.96866,1.2772 -1.96866,2.85271c0,1.06551 0.40314,1.99458 1.00043,2.48442h-5.93818c0.5973,-0.48983 1.00043,-1.41891 1.00043,-2.48442c0,-1.57551 -0.8814,-2.85271 -1.96866,-2.85271c-1.08726,0 -1.96866,1.2772 -1.96866,2.85271c0,1.06551 0.40314,1.99458 1.00043,2.48442h-5.26536c0.4922,-0.51857 0.8122,-1.35957 0.8122,-2.30886c0,-1.57551 -0.88139,-2.85271 -1.96866,-2.85271c-1.08726,0 -1.96866,1.2772 -1.96866,2.85271c0,0.94931 0.31999,1.79029 0.8122,2.30886h-3.538v-6.56147h48.21793v6.56147z" data-paper-data="{&quot;index&quot;:null}" fill="#f69635" stroke-width="NaN"/><path d="M215.87565,172.54578v-3.19207h3.45229c0.34322,0.42201 0.78757,0.67654 1.27295,0.67654c0.48538,0 0.92973,-0.25455 1.27295,-0.67654h5.00243c0.31691,0.31601 0.70087,0.50099 1.11465,0.50099c0.41377,0 0.79774,-0.18499 1.11465,-0.50099h5.64533c0.31691,0.31601 0.70087,0.50099 1.11465,0.50099c0.41377,0 0.79774,-0.18499 1.11465,-0.50099h6.00879c0.31691,0.31601 0.70087,0.50099 1.11465,0.50099c0.41377,0 0.79774,-0.18499 1.11465,-0.50099h6.27883c0.28637,0.23551 0.6175,0.36998 0.9703,0.36998c0.35279,0 0.68392,-0.13448 0.9703,-0.36998h5.89176c0.28637,0.23551 0.6175,0.36998 0.9703,0.36998c0.35279,0 0.68392,-0.13448 0.97029,-0.36998h2.8235v3.19207z" data-paper-data="{&quot;index&quot;:null}" fill="url(#color-1)" stroke-width="NaN"/><path d="M215.90643,163.10226v-2.48272h48.21793v2.48272z" data-paper-data="{&quot;index&quot;:null}" fill="url(#color-2)" stroke-width="NaN"/><path d="M257.60739,167.58033c0,-1.20264 0.51635,-2.23052 1.24531,-2.64355c-0.3238,0.5084 -0.5216,1.18782 -0.5216,1.93418c0,1.57551 0.8814,2.85272 1.96866,2.85272c0.2366,0 0.46345,-0.06048 0.67359,-0.17136c-0.35603,0.5336 -0.85522,0.86539 -1.40788,0.86539c-1.08142,0 -1.95809,-1.27034 -1.95809,-2.83739z" data-paper-data="{&quot;index&quot;:null}" fill="#ff0000" stroke-width="0"/><path d="M251.04832,164.89374c-0.34033,0.51278 -0.54958,1.20959 -0.54958,1.97723c0,1.57551 0.88139,2.85272 1.96865,2.85272c0.23682,0 0.46387,-0.06059 0.67416,-0.17166c-0.35377,0.50758 -0.84045,0.82104 -1.37764,0.82104c-1.08142,0 -1.95809,-1.27033 -1.95809,-2.83739c0,-1.20108 0.51501,-2.22787 1.24248,-2.64194z" data-paper-data="{&quot;index&quot;:null}" fill="#ff0000" stroke-width="0"/><path d="M241.48397,167.53568c0,-1.24811 0.55613,-2.30799 1.3289,-2.68773c-0.41532,0.52302 -0.6779,1.29408 -0.6779,2.15402c0,1.57551 0.8814,2.85271 1.96866,2.85271c0.20237,0 0.3976,-0.04425 0.58136,-0.12644c-0.33809,0.40292 -0.77102,0.64482 -1.24294,0.64482c-1.08143,0 -1.95809,-1.27033 -1.95809,-2.83739z" data-paper-data="{&quot;index&quot;:null}" fill="#ff0000" stroke-width="0"/><path d="M234.36623,165.15321c-0.29269,0.49793 -0.46932,1.14346 -0.46932,1.84879c0,1.57551 0.8814,2.85271 1.96866,2.85271c0.30966,0 0.60261,-0.1036 0.86327,-0.28818c-0.35841,0.5767 -0.87771,0.93927 -1.45546,0.93927c-1.08143,0 -1.95809,-1.27033 -1.95809,-2.83739c0,-1.09269 0.42625,-2.04112 1.05095,-2.51519z" data-paper-data="{&quot;index&quot;:null}" fill="#ff0000" stroke-width="0"/><path d="M225.48292,167.66838c0,-1.04659 0.39106,-1.96086 0.97298,-2.45269c-0.27129,0.48889 -0.43364,1.11012 -0.43364,1.78629c0,1.57551 0.8814,2.8527 1.96866,2.8527c0.34063,0 0.66107,-0.12535 0.94051,-0.34598c-0.35914,0.61017 -0.89361,0.99707 -1.49042,0.99707c-1.08143,0 -1.95809,-1.27033 -1.95809,-2.83739z" data-paper-data="{&quot;index&quot;:null}" fill="#ff0000" stroke-width="0"/><path d="M217.68138,167.62374c0,-1.50967 0.81364,-2.74396 1.84016,-2.83232c-0.53564,0.50979 -0.88931,1.38811 -0.88931,2.38612c0,1.57551 0.8814,2.85271 1.96866,2.85271c0.02643,0 0.05272,-0.00075 0.07891,-0.00225c-0.30142,0.27443 -0.65807,0.43314 -1.04032,0.43314c-1.08143,0 -1.95809,-1.27033 -1.95809,-2.83739z" data-paper-data="{&quot;index&quot;:null}" fill="#ff0000" stroke-width="0"/><path d="M239.43325,176.53203c0.44659,1.42138 -0.07451,3.12201 -0.13968,4.68091c-0.09769,2.33669 -0.17618,4.67538 -0.22782,7.01515c-0.00215,0.09743 -0.06826,6.61415 0.215,6.65566c2.93504,0.4301 2.83246,-10.08079 5.25711,-8.44117c1.53044,1.03492 -0.23425,4.41855 -1.03635,6.91184c-0.84158,2.61601 -3.29156,6.23712 -5.37276,6.01641c-2.10959,-0.22371 -5.73076,-7.73696 -5.15774,-10.20124c0.05986,-0.25741 0.36033,-0.15055 0.54252,-0.21442c1.19583,-0.41921 1.66675,1.60248 2.31912,2.75318c0.20715,0.36539 0.48135,0.71222 0.69201,1.07979c0.17401,0.30361 0.38492,1.26544 0.51524,0.91889c0.34456,-0.91628 -0.12767,-1.39925 -0.13015,-2.09994c-0.01489,-4.19941 0.01374,-5.69789 0.23719,-10.59964c0.07212,-1.58212 -0.57105,-4.05023 0.4216,-4.71732c0.19537,-0.39814 0.51633,-0.65786 0.87913,-0.65786c0.38417,0 0.72139,0.29119 0.9123,0.72957c0.02883,0.05115 0.05354,0.10749 0.07325,0.17019z" fill="#9966ff" stroke-width="0.5"/></g></g></svg>