<svg version="1.1" xmlns="http://www.w3.org/2000/svg" xmlns:xlink="http://www.w3.org/1999/xlink" width="691.36299" height="288.20633" viewBox="0,0,691.36299,288.20633"><defs><linearGradient x1="429.75562" y1="255.81124" x2="429.75562" y2="285.00441" gradientUnits="userSpaceOnUse" id="color-1"><stop offset="0" stop-color="#ca9230"/><stop offset="1" stop-color="#a16d32"/></linearGradient><linearGradient x1="304.4592" y1="110.81124" x2="304.4592" y2="140.00441" gradientUnits="userSpaceOnUse" id="color-2"><stop offset="0" stop-color="#ca9230"/><stop offset="1" stop-color="#a16d32"/></linearGradient><linearGradient x1="208.20916" y1="131.89519" x2="208.20916" y2="131.89519" gradientUnits="userSpaceOnUse" id="color-3"><stop offset="0" stop-color="#ca9230"/><stop offset="1" stop-color="#a16d32"/></linearGradient><linearGradient x1="237.97748" y1="121.35321" x2="237.97748" y2="121.35321" gradientUnits="userSpaceOnUse" id="color-4"><stop offset="0" stop-color="#ca9230"/><stop offset="1" stop-color="#a16d32"/></linearGradient><linearGradient x1="268.93656" y1="130.27335" x2="268.93656" y2="131.08428" gradientUnits="userSpaceOnUse" id="color-5"><stop offset="0" stop-color="#ca9230"/><stop offset="1" stop-color="#a16d32"/></linearGradient><linearGradient x1="195.1111" y1="119.73137" x2="195.1111" y2="120.54229" gradientUnits="userSpaceOnUse" id="color-6"><stop offset="0" stop-color="#ca9230"/><stop offset="1" stop-color="#a16d32"/></linearGradient><linearGradient x1="343.4463" y1="131.89519" x2="343.4463" y2="131.89519" gradientUnits="userSpaceOnUse" id="color-7"><stop offset="0" stop-color="#ca9230"/><stop offset="1" stop-color="#a16d32"/></linearGradient><linearGradient x1="373.21462" y1="121.35321" x2="373.21462" y2="121.35321" gradientUnits="userSpaceOnUse" id="color-8"><stop offset="0" stop-color="#ca9230"/><stop offset="1" stop-color="#a16d32"/></linearGradient><linearGradient x1="404.1737" y1="130.27335" x2="404.1737" y2="131.08428" gradientUnits="userSpaceOnUse" id="color-9"><stop offset="0" stop-color="#ca9230"/><stop offset="1" stop-color="#a16d32"/></linearGradient><linearGradient x1="309.25128" y1="119.73137" x2="309.25128" y2="120.54229" gradientUnits="userSpaceOnUse" id="color-10"><stop offset="0" stop-color="#ca9230"/><stop offset="1" stop-color="#a16d32"/></linearGradient><linearGradient x1="78.57375" y1="197.81124" x2="78.57375" y2="227.00441" gradientUnits="userSpaceOnUse" id="color-11"><stop offset="0" stop-color="#ca9230"/><stop offset="1" stop-color="#a16d32"/></linearGradient><linearGradient x1="-67.36522" y1="218.89519" x2="-67.36522" y2="218.89519" gradientUnits="userSpaceOnUse" id="color-12"><stop offset="0" stop-color="#ca9230"/><stop offset="1" stop-color="#a16d32"/></linearGradient><linearGradient x1="-22.22906" y1="208.35321" x2="-22.22906" y2="208.35321" gradientUnits="userSpaceOnUse" id="color-13"><stop offset="0" stop-color="#ca9230"/><stop offset="1" stop-color="#a16d32"/></linearGradient><linearGradient x1="24.71261" y1="217.27335" x2="24.71261" y2="218.08428" gradientUnits="userSpaceOnUse" id="color-14"><stop offset="0" stop-color="#ca9230"/><stop offset="1" stop-color="#a16d32"/></linearGradient><linearGradient x1="-87.22514" y1="206.73137" x2="-87.22514" y2="207.54229" gradientUnits="userSpaceOnUse" id="color-15"><stop offset="0" stop-color="#ca9230"/><stop offset="1" stop-color="#a16d32"/></linearGradient><linearGradient x1="137.68789" y1="218.89519" x2="137.68789" y2="218.89519" gradientUnits="userSpaceOnUse" id="color-16"><stop offset="0" stop-color="#ca9230"/><stop offset="1" stop-color="#a16d32"/></linearGradient><linearGradient x1="182.82405" y1="208.35321" x2="182.82405" y2="208.35321" gradientUnits="userSpaceOnUse" id="color-17"><stop offset="0" stop-color="#ca9230"/><stop offset="1" stop-color="#a16d32"/></linearGradient><linearGradient x1="229.7657" y1="217.27335" x2="229.7657" y2="218.08428" gradientUnits="userSpaceOnUse" id="color-18"><stop offset="0" stop-color="#ca9230"/><stop offset="1" stop-color="#a16d32"/></linearGradient><linearGradient x1="85.83974" y1="206.73137" x2="85.83974" y2="207.54229" gradientUnits="userSpaceOnUse" id="color-19"><stop offset="0" stop-color="#ca9230"/><stop offset="1" stop-color="#a16d32"/></linearGradient><linearGradient x1="425.69173" y1="197.81124" x2="425.69173" y2="227.00441" gradientUnits="userSpaceOnUse" id="color-20"><stop offset="0" stop-color="#ca9230"/><stop offset="1" stop-color="#a16d32"/></linearGradient><linearGradient x1="279.75277" y1="218.89519" x2="279.75277" y2="218.89519" gradientUnits="userSpaceOnUse" id="color-21"><stop offset="0" stop-color="#ca9230"/><stop offset="1" stop-color="#a16d32"/></linearGradient><linearGradient x1="324.88892" y1="208.35321" x2="324.88892" y2="208.35321" gradientUnits="userSpaceOnUse" id="color-22"><stop offset="0" stop-color="#ca9230"/><stop offset="1" stop-color="#a16d32"/></linearGradient><linearGradient x1="371.83059" y1="217.27335" x2="371.83059" y2="218.08428" gradientUnits="userSpaceOnUse" id="color-23"><stop offset="0" stop-color="#ca9230"/><stop offset="1" stop-color="#a16d32"/></linearGradient><linearGradient x1="259.89286" y1="206.73137" x2="259.89286" y2="207.54229" gradientUnits="userSpaceOnUse" id="color-24"><stop offset="0" stop-color="#ca9230"/><stop offset="1" stop-color="#a16d32"/></linearGradient><linearGradient x1="484.80587" y1="218.89519" x2="484.80587" y2="218.89519" gradientUnits="userSpaceOnUse" id="color-25"><stop offset="0" stop-color="#ca9230"/><stop offset="1" stop-color="#a16d32"/></linearGradient><linearGradient x1="529.94204" y1="208.35321" x2="529.94204" y2="208.35321" gradientUnits="userSpaceOnUse" id="color-26"><stop offset="0" stop-color="#ca9230"/><stop offset="1" stop-color="#a16d32"/></linearGradient><linearGradient x1="576.8837" y1="217.27335" x2="576.8837" y2="218.08428" gradientUnits="userSpaceOnUse" id="color-27"><stop offset="0" stop-color="#ca9230"/><stop offset="1" stop-color="#a16d32"/></linearGradient><linearGradient x1="432.95773" y1="206.73137" x2="432.95773" y2="207.54229" gradientUnits="userSpaceOnUse" id="color-28"><stop offset="0" stop-color="#ca9230"/><stop offset="1" stop-color="#a16d32"/></linearGradient><linearGradient x1="78.57375" y1="226.81124" x2="78.57375" y2="256.00441" gradientUnits="userSpaceOnUse" id="color-29"><stop offset="0" stop-color="#ca9230"/><stop offset="1" stop-color="#a16d32"/></linearGradient><linearGradient x1="-67.36522" y1="247.89519" x2="-67.36522" y2="247.89519" gradientUnits="userSpaceOnUse" id="color-30"><stop offset="0" stop-color="#ca9230"/><stop offset="1" stop-color="#a16d32"/></linearGradient><linearGradient x1="-22.22905" y1="237.35321" x2="-22.22905" y2="237.35321" gradientUnits="userSpaceOnUse" id="color-31"><stop offset="0" stop-color="#ca9230"/><stop offset="1" stop-color="#a16d32"/></linearGradient><linearGradient x1="24.71261" y1="246.27335" x2="24.71261" y2="247.08428" gradientUnits="userSpaceOnUse" id="color-32"><stop offset="0" stop-color="#ca9230"/><stop offset="1" stop-color="#a16d32"/></linearGradient><linearGradient x1="-87.22513" y1="235.73137" x2="-87.22513" y2="236.54229" gradientUnits="userSpaceOnUse" id="color-33"><stop offset="0" stop-color="#ca9230"/><stop offset="1" stop-color="#a16d32"/></linearGradient><linearGradient x1="137.68789" y1="247.89519" x2="137.68789" y2="247.89519" gradientUnits="userSpaceOnUse" id="color-34"><stop offset="0" stop-color="#ca9230"/><stop offset="1" stop-color="#a16d32"/></linearGradient><linearGradient x1="182.82405" y1="237.35321" x2="182.82405" y2="237.35321" gradientUnits="userSpaceOnUse" id="color-35"><stop offset="0" stop-color="#ca9230"/><stop offset="1" stop-color="#a16d32"/></linearGradient><linearGradient x1="229.7657" y1="246.27335" x2="229.7657" y2="247.08428" gradientUnits="userSpaceOnUse" id="color-36"><stop offset="0" stop-color="#ca9230"/><stop offset="1" stop-color="#a16d32"/></linearGradient><linearGradient x1="85.83974" y1="235.73137" x2="85.83974" y2="236.54229" gradientUnits="userSpaceOnUse" id="color-37"><stop offset="0" stop-color="#ca9230"/><stop offset="1" stop-color="#a16d32"/></linearGradient><linearGradient x1="425.69174" y1="226.81124" x2="425.69174" y2="256.00441" gradientUnits="userSpaceOnUse" id="color-38"><stop offset="0" stop-color="#ca9230"/><stop offset="1" stop-color="#a16d32"/></linearGradient><linearGradient x1="279.75278" y1="247.89519" x2="279.75278" y2="247.89519" gradientUnits="userSpaceOnUse" id="color-39"><stop offset="0" stop-color="#ca9230"/><stop offset="1" stop-color="#a16d32"/></linearGradient><linearGradient x1="324.88894" y1="237.35321" x2="324.88894" y2="237.35321" gradientUnits="userSpaceOnUse" id="color-40"><stop offset="0" stop-color="#ca9230"/><stop offset="1" stop-color="#a16d32"/></linearGradient><linearGradient x1="371.8306" y1="246.27335" x2="371.8306" y2="247.08428" gradientUnits="userSpaceOnUse" id="color-41"><stop offset="0" stop-color="#ca9230"/><stop offset="1" stop-color="#a16d32"/></linearGradient><linearGradient x1="259.89286" y1="235.73137" x2="259.89286" y2="236.54229" gradientUnits="userSpaceOnUse" id="color-42"><stop offset="0" stop-color="#ca9230"/><stop offset="1" stop-color="#a16d32"/></linearGradient><linearGradient x1="484.80587" y1="247.89519" x2="484.80587" y2="247.89519" gradientUnits="userSpaceOnUse" id="color-43"><stop offset="0" stop-color="#ca9230"/><stop offset="1" stop-color="#a16d32"/></linearGradient><linearGradient x1="529.94204" y1="237.35321" x2="529.94204" y2="237.35321" gradientUnits="userSpaceOnUse" id="color-44"><stop offset="0" stop-color="#ca9230"/><stop offset="1" stop-color="#a16d32"/></linearGradient><linearGradient x1="576.8837" y1="246.27335" x2="576.8837" y2="247.08428" gradientUnits="userSpaceOnUse" id="color-45"><stop offset="0" stop-color="#ca9230"/><stop offset="1" stop-color="#a16d32"/></linearGradient><linearGradient x1="576.8837" y1="246.27335" x2="576.8837" y2="247.08428" gradientUnits="userSpaceOnUse" id="color-46"><stop offset="0" stop-color="#ca9230"/><stop offset="1" stop-color="#a16d32"/></linearGradient><linearGradient x1="576.8837" y1="246.27335" x2="576.8837" y2="247.08428" gradientUnits="userSpaceOnUse" id="color-47"><stop offset="0" stop-color="#ca9230"/><stop offset="1" stop-color="#a16d32"/></linearGradient><linearGradient x1="432.95773" y1="235.73137" x2="432.95773" y2="236.54229" gradientUnits="userSpaceOnUse" id="color-48"><stop offset="0" stop-color="#ca9230"/><stop offset="1" stop-color="#a16d32"/></linearGradient><linearGradient x1="125.57375" y1="255.81124" x2="125.57375" y2="285.00441" gradientUnits="userSpaceOnUse" id="color-49"><stop offset="0" stop-color="#ca9230"/><stop offset="1" stop-color="#a16d32"/></linearGradient><linearGradient x1="24.77095" y1="266.35321" x2="24.77095" y2="266.35321" gradientUnits="userSpaceOnUse" id="color-50"><stop offset="0" stop-color="#ca9230"/><stop offset="1" stop-color="#a16d32"/></linearGradient><linearGradient x1="71.71261" y1="275.27335" x2="71.71261" y2="276.08428" gradientUnits="userSpaceOnUse" id="color-51"><stop offset="0" stop-color="#ca9230"/><stop offset="1" stop-color="#a16d32"/></linearGradient><linearGradient x1="184.68789" y1="276.89519" x2="184.68789" y2="276.89519" gradientUnits="userSpaceOnUse" id="color-52"><stop offset="0" stop-color="#ca9230"/><stop offset="1" stop-color="#a16d32"/></linearGradient><linearGradient x1="229.82405" y1="266.35321" x2="229.82405" y2="266.35321" gradientUnits="userSpaceOnUse" id="color-53"><stop offset="0" stop-color="#ca9230"/><stop offset="1" stop-color="#a16d32"/></linearGradient><linearGradient x1="276.7657" y1="275.27335" x2="276.7657" y2="276.08428" gradientUnits="userSpaceOnUse" id="color-54"><stop offset="0" stop-color="#ca9230"/><stop offset="1" stop-color="#a16d32"/></linearGradient><linearGradient x1="132.83973" y1="264.73137" x2="132.83973" y2="265.54229" gradientUnits="userSpaceOnUse" id="color-55"><stop offset="0" stop-color="#ca9230"/><stop offset="1" stop-color="#a16d32"/></linearGradient><linearGradient x1="326.75278" y1="276.89519" x2="326.75278" y2="276.89519" gradientUnits="userSpaceOnUse" id="color-56"><stop offset="0" stop-color="#ca9230"/><stop offset="1" stop-color="#a16d32"/></linearGradient><linearGradient x1="371.88894" y1="266.35321" x2="371.88894" y2="266.35321" gradientUnits="userSpaceOnUse" id="color-57"><stop offset="0" stop-color="#ca9230"/><stop offset="1" stop-color="#a16d32"/></linearGradient><linearGradient x1="418.8306" y1="275.27335" x2="418.8306" y2="276.08428" gradientUnits="userSpaceOnUse" id="color-58"><stop offset="0" stop-color="#ca9230"/><stop offset="1" stop-color="#a16d32"/></linearGradient><linearGradient x1="306.89286" y1="264.73137" x2="306.89286" y2="265.54229" gradientUnits="userSpaceOnUse" id="color-59"><stop offset="0" stop-color="#ca9230"/><stop offset="1" stop-color="#a16d32"/></linearGradient><linearGradient x1="531.80587" y1="284.39519" x2="531.80587" y2="284.39519" gradientUnits="userSpaceOnUse" id="color-60"><stop offset="0" stop-color="#b08b2e"/><stop offset="1" stop-color="#8a6632"/></linearGradient><linearGradient x1="531.80587" y1="276.89519" x2="531.80587" y2="276.89519" gradientUnits="userSpaceOnUse" id="color-61"><stop offset="0" stop-color="#ca9230"/><stop offset="1" stop-color="#a16d32"/></linearGradient><linearGradient x1="479.95773" y1="264.73137" x2="479.95773" y2="265.54229" gradientUnits="userSpaceOnUse" id="color-62"><stop offset="0" stop-color="#ca9230"/><stop offset="1" stop-color="#a16d32"/></linearGradient><linearGradient x1="172.57375" y1="284.81124" x2="172.57375" y2="314.00441" gradientUnits="userSpaceOnUse" id="color-63"><stop offset="0" stop-color="#ca9230"/><stop offset="1" stop-color="#a16d32"/></linearGradient><linearGradient x1="231.68789" y1="305.89519" x2="231.68789" y2="305.89519" gradientUnits="userSpaceOnUse" id="color-64"><stop offset="0" stop-color="#ca9230"/><stop offset="1" stop-color="#a16d32"/></linearGradient><linearGradient x1="276.82405" y1="295.35321" x2="276.82405" y2="295.35321" gradientUnits="userSpaceOnUse" id="color-65"><stop offset="0" stop-color="#ca9230"/><stop offset="1" stop-color="#a16d32"/></linearGradient><linearGradient x1="323.7657" y1="304.27335" x2="323.7657" y2="305.08428" gradientUnits="userSpaceOnUse" id="color-66"><stop offset="0" stop-color="#ca9230"/><stop offset="1" stop-color="#a16d32"/></linearGradient><linearGradient x1="179.83974" y1="293.73137" x2="179.83974" y2="294.54229" gradientUnits="userSpaceOnUse" id="color-67"><stop offset="0" stop-color="#ca9230"/><stop offset="1" stop-color="#a16d32"/></linearGradient><linearGradient x1="438.12787" y1="284.81124" x2="438.12787" y2="314.00441" gradientUnits="userSpaceOnUse" id="color-68"><stop offset="0" stop-color="#ca9230"/><stop offset="1" stop-color="#a16d32"/></linearGradient><linearGradient x1="373.75278" y1="305.89519" x2="373.75278" y2="305.89519" gradientUnits="userSpaceOnUse" id="color-69"><stop offset="0" stop-color="#ca9230"/><stop offset="1" stop-color="#a16d32"/></linearGradient><linearGradient x1="418.88894" y1="295.35321" x2="418.88894" y2="295.35321" gradientUnits="userSpaceOnUse" id="color-70"><stop offset="0" stop-color="#ca9230"/><stop offset="1" stop-color="#a16d32"/></linearGradient><linearGradient x1="465.8306" y1="304.27335" x2="465.8306" y2="305.08428" gradientUnits="userSpaceOnUse" id="color-71"><stop offset="0" stop-color="#ca9230"/><stop offset="1" stop-color="#a16d32"/></linearGradient><linearGradient x1="353.89286" y1="293.73137" x2="353.89286" y2="294.54229" gradientUnits="userSpaceOnUse" id="color-72"><stop offset="0" stop-color="#ca9230"/><stop offset="1" stop-color="#a16d32"/></linearGradient><linearGradient x1="578.80587" y1="313.39519" x2="578.80587" y2="313.39519" gradientUnits="userSpaceOnUse" id="color-73"><stop offset="0" stop-color="#b08b2e"/><stop offset="1" stop-color="#8a6632"/></linearGradient><linearGradient x1="526.95773" y1="293.73137" x2="526.95773" y2="294.54229" gradientUnits="userSpaceOnUse" id="color-74"><stop offset="0" stop-color="#ca9230"/><stop offset="1" stop-color="#a16d32"/></linearGradient><linearGradient x1="566.69174" y1="313.81124" x2="566.69174" y2="343.00441" gradientUnits="userSpaceOnUse" id="color-75"><stop offset="0" stop-color="#ca9230"/><stop offset="1" stop-color="#a16d32"/></linearGradient><linearGradient x1="393.75278" y1="334.89519" x2="393.75278" y2="334.89519" gradientUnits="userSpaceOnUse" id="color-76"><stop offset="0" stop-color="#ca9230"/><stop offset="1" stop-color="#a16d32"/></linearGradient><linearGradient x1="427.88894" y1="323.85321" x2="427.88894" y2="323.85321" gradientUnits="userSpaceOnUse" id="color-77"><stop offset="0" stop-color="#ca9230"/><stop offset="1" stop-color="#a16d32"/></linearGradient><linearGradient x1="479.3306" y1="341.27335" x2="479.3306" y2="342.08428" gradientUnits="userSpaceOnUse" id="color-78"><stop offset="0" stop-color="#b08b2e"/><stop offset="1" stop-color="#8a6632"/></linearGradient><linearGradient x1="479.3306" y1="333.77335" x2="479.3306" y2="334.58428" gradientUnits="userSpaceOnUse" id="color-79"><stop offset="0" stop-color="#ca9230"/><stop offset="1" stop-color="#a16d32"/></linearGradient><linearGradient x1="332.39286" y1="324.73137" x2="332.39286" y2="325.54229" gradientUnits="userSpaceOnUse" id="color-80"><stop offset="0" stop-color="#ca9230"/><stop offset="1" stop-color="#a16d32"/></linearGradient><linearGradient x1="625.80587" y1="342.39519" x2="625.80587" y2="342.39519" gradientUnits="userSpaceOnUse" id="color-81"><stop offset="0" stop-color="#b08b2e"/><stop offset="1" stop-color="#8a6632"/></linearGradient><linearGradient x1="670.94204" y1="331.85321" x2="670.94204" y2="331.85321" gradientUnits="userSpaceOnUse" id="color-82"><stop offset="0" stop-color="#b08b2e"/><stop offset="1" stop-color="#8a6632"/></linearGradient><linearGradient x1="717.8837" y1="340.77335" x2="717.8837" y2="341.58428" gradientUnits="userSpaceOnUse" id="color-83"><stop offset="0" stop-color="#b08b2e"/><stop offset="1" stop-color="#8a6632"/></linearGradient><linearGradient x1="573.95773" y1="322.73137" x2="573.95773" y2="323.54229" gradientUnits="userSpaceOnUse" id="color-84"><stop offset="0" stop-color="#ca9230"/><stop offset="1" stop-color="#a16d32"/></linearGradient><linearGradient x1="304.4592" y1="139.81124" x2="304.4592" y2="169.00441" gradientUnits="userSpaceOnUse" id="color-85"><stop offset="0" stop-color="#ca9230"/><stop offset="1" stop-color="#a16d32"/></linearGradient><linearGradient x1="208.20916" y1="160.89519" x2="208.20916" y2="160.89519" gradientUnits="userSpaceOnUse" id="color-86"><stop offset="0" stop-color="#ca9230"/><stop offset="1" stop-color="#a16d32"/></linearGradient><linearGradient x1="237.97748" y1="150.35321" x2="237.97748" y2="150.35321" gradientUnits="userSpaceOnUse" id="color-87"><stop offset="0" stop-color="#ca9230"/><stop offset="1" stop-color="#a16d32"/></linearGradient><linearGradient x1="268.93656" y1="159.27335" x2="268.93656" y2="160.08428" gradientUnits="userSpaceOnUse" id="color-88"><stop offset="0" stop-color="#ca9230"/><stop offset="1" stop-color="#a16d32"/></linearGradient><linearGradient x1="195.1111" y1="148.73137" x2="195.1111" y2="149.54229" gradientUnits="userSpaceOnUse" id="color-89"><stop offset="0" stop-color="#ca9230"/><stop offset="1" stop-color="#a16d32"/></linearGradient><linearGradient x1="343.4463" y1="160.89519" x2="343.4463" y2="160.89519" gradientUnits="userSpaceOnUse" id="color-90"><stop offset="0" stop-color="#ca9230"/><stop offset="1" stop-color="#a16d32"/></linearGradient><linearGradient x1="373.21462" y1="150.35321" x2="373.21462" y2="150.35321" gradientUnits="userSpaceOnUse" id="color-91"><stop offset="0" stop-color="#ca9230"/><stop offset="1" stop-color="#a16d32"/></linearGradient><linearGradient x1="404.1737" y1="159.27335" x2="404.1737" y2="160.08428" gradientUnits="userSpaceOnUse" id="color-92"><stop offset="0" stop-color="#ca9230"/><stop offset="1" stop-color="#a16d32"/></linearGradient><linearGradient x1="309.25128" y1="148.73137" x2="309.25128" y2="149.54229" gradientUnits="userSpaceOnUse" id="color-93"><stop offset="0" stop-color="#ca9230"/><stop offset="1" stop-color="#a16d32"/></linearGradient><linearGradient x1="304.4592" y1="168.81124" x2="304.4592" y2="198.00441" gradientUnits="userSpaceOnUse" id="color-94"><stop offset="0" stop-color="#ca9230"/><stop offset="1" stop-color="#a16d32"/></linearGradient><linearGradient x1="208.20916" y1="189.89519" x2="208.20916" y2="189.89519" gradientUnits="userSpaceOnUse" id="color-95"><stop offset="0" stop-color="#ca9230"/><stop offset="1" stop-color="#a16d32"/></linearGradient><linearGradient x1="237.97748" y1="179.35321" x2="237.97748" y2="179.35321" gradientUnits="userSpaceOnUse" id="color-96"><stop offset="0" stop-color="#ca9230"/><stop offset="1" stop-color="#a16d32"/></linearGradient><linearGradient x1="268.93656" y1="188.27335" x2="268.93656" y2="189.08428" gradientUnits="userSpaceOnUse" id="color-97"><stop offset="0" stop-color="#ca9230"/><stop offset="1" stop-color="#a16d32"/></linearGradient><linearGradient x1="195.1111" y1="177.73137" x2="195.1111" y2="178.54229" gradientUnits="userSpaceOnUse" id="color-98"><stop offset="0" stop-color="#ca9230"/><stop offset="1" stop-color="#a16d32"/></linearGradient><linearGradient x1="343.4463" y1="189.89519" x2="343.4463" y2="189.89519" gradientUnits="userSpaceOnUse" id="color-99"><stop offset="0" stop-color="#ca9230"/><stop offset="1" stop-color="#a16d32"/></linearGradient><linearGradient x1="373.21462" y1="179.35321" x2="373.21462" y2="179.35321" gradientUnits="userSpaceOnUse" id="color-100"><stop offset="0" stop-color="#ca9230"/><stop offset="1" stop-color="#a16d32"/></linearGradient><linearGradient x1="404.1737" y1="188.27335" x2="404.1737" y2="189.08428" gradientUnits="userSpaceOnUse" id="color-101"><stop offset="0" stop-color="#ca9230"/><stop offset="1" stop-color="#a16d32"/></linearGradient><linearGradient x1="309.25128" y1="177.73137" x2="309.25128" y2="178.54229" gradientUnits="userSpaceOnUse" id="color-102"><stop offset="0" stop-color="#ca9230"/><stop offset="1" stop-color="#a16d32"/></linearGradient><linearGradient x1="421" y1="237.49929" x2="421" y2="287.50069" gradientUnits="userSpaceOnUse" id="color-103"><stop offset="0" stop-color="#64b9e0"/><stop offset="1" stop-color="#badbee"/></linearGradient><linearGradient x1="273.99999" y1="131.49929" x2="273.99999" y2="181.50069" gradientUnits="userSpaceOnUse" id="color-104"><stop offset="0" stop-color="#64b9e0"/><stop offset="1" stop-color="#badbee"/></linearGradient><linearGradient x1="338.00001" y1="131.49929" x2="338.00001" y2="181.50069" gradientUnits="userSpaceOnUse" id="color-105"><stop offset="0" stop-color="#64b9e0"/><stop offset="1" stop-color="#badbee"/></linearGradient></defs><g transform="translate(96.04876,-109.81125)"><g data-paper-data="{&quot;isPaintingLayer&quot;:true}" fill-rule="nonzero" stroke-linejoin="miter" stroke-miterlimit="10" stroke-dasharray="" stroke-dashoffset="0" style="mix-blend-mode: normal"><g><g stroke="none"><path d="M268.8721,323.4418c4.0604,4.3246 5.9832,9.892 5.8098,15.3934c-0.1733,5.5014 -2.7589,11.1744 -6.7675,14.9971c-4.5937,4.3815 -11.3636,8.0026 -18.323,8.9732c-5.8216,0.2686 -12.8941,-1.0345 -17.513,-5.5041c-4.0347,-3.7698 -4.2167,-10.4752 -3.0215,-16.3667c1.2394,-6.7328 4.2113,-13.4406 9.4247,-18.4507c3.9485,-3.8005 9.892,-5.9832 15.3934,-5.8098c5.5014,0.1734 10.9367,2.443 14.9971,6.7676z" fill="#000000" stroke-width="1" stroke-linecap="round"/><path d="M242.6101,346.6903c3.8715,4.1235 6.6446,8.5497 7.9964,12.3708c1.3525,3.8204 1.2844,7.0351 -0.5258,8.7346c-1.8102,1.6996 -5.0227,1.5652 -8.7504,-0.0252c-3.7284,-1.5897 -7.9712,-4.636 -11.8428,-8.7595c-3.8715,-4.1235 -6.6446,-8.5498 -7.9964,-12.3709c-1.3525,-3.8204 -1.2844,-7.035 0.5258,-8.7346c1.8102,-1.6995 5.0227,-1.5651 8.7504,0.0253c3.7284,1.5897 7.9712,4.636 11.8428,8.7595z" fill="#252525" stroke-width="0.95659" stroke-linecap="butt"/></g><path d="M245.1,300h17v27h-17z" fill="#b2b2b2" stroke="#666666" stroke-width="2" stroke-linecap="butt"/></g><g><g stroke="none"><path d="M437.6721,352.4418c4.0604,4.3246 5.9832,9.892 5.8098,15.3934c-0.1733,5.5014 -2.7589,11.1744 -6.7675,14.9971c-4.5937,4.3815 -11.3636,8.0026 -18.323,8.9732c-5.8216,0.2686 -12.8941,-1.0345 -17.513,-5.5041c-4.0347,-3.7698 -4.2167,-10.4752 -3.0215,-16.3667c1.2394,-6.7328 4.2113,-13.4406 9.4247,-18.4507c3.9485,-3.8005 9.892,-5.9832 15.3934,-5.8098c5.5014,0.1734 10.9367,2.443 14.9971,6.7676z" fill="#000000" stroke-width="1" stroke-linecap="round"/><path d="M411.4101,375.6903c3.8715,4.1235 6.6446,8.5497 7.9964,12.3708c1.3525,3.8204 1.2844,7.0351 -0.5258,8.7346c-1.8102,1.6996 -5.0227,1.5652 -8.7504,-0.0252c-3.7284,-1.5897 -7.9712,-4.636 -11.8428,-8.7595c-3.8715,-4.1235 -6.6446,-8.5498 -7.9964,-12.3709c-1.3525,-3.8204 -1.2844,-7.035 0.5258,-8.7346c1.8102,-1.6995 5.0227,-1.5651 8.7504,0.0253c3.7284,1.5897 7.9712,4.636 11.8428,8.7595z" fill="#252525" stroke-width="0.95659" stroke-linecap="butt"/></g><path d="M413.9,329h17v27h-17z" fill="#b2b2b2" stroke="#666666" stroke-width="2" stroke-linecap="butt"/></g><g><g stroke="none"><path d="M113.8139,296.35074c4.0604,4.3246 5.9832,9.892 5.8098,15.3934c-0.1733,5.5014 -2.7589,11.1744 -6.7675,14.9971c-4.5937,4.3815 -11.3636,8.0026 -18.323,8.9732c-5.8216,0.2686 -12.8941,-1.0345 -17.513,-5.5041c-4.0347,-3.7698 -4.2167,-10.4752 -3.0215,-16.3667c1.2394,-6.7328 4.2113,-13.4406 9.4247,-18.4507c3.9485,-3.8005 9.892,-5.9832 15.3934,-5.8098c5.5014,0.1734 10.9367,2.443 14.9971,6.7676z" fill="#000000" stroke-width="1" stroke-linecap="round"/><path d="M87.5519,319.59924c3.8715,4.1235 6.6446,8.5497 7.9964,12.3708c1.3525,3.8204 1.2844,7.0351 -0.5258,8.7346c-1.8102,1.6996 -5.0227,1.5652 -8.7504,-0.0252c-3.7284,-1.5897 -7.9712,-4.636 -11.8428,-8.7595c-3.8715,-4.1235 -6.6446,-8.5498 -7.9964,-12.3709c-1.3525,-3.8204 -1.2844,-7.035 0.5258,-8.7346c1.8102,-1.6995 5.0227,-1.5651 8.7504,0.0253c3.7284,1.5897 7.9712,4.636 11.8428,8.7595z" fill="#252525" stroke-width="0.95659" stroke-linecap="butt"/></g><path d="M90.0418,272.90894h17v27h-17z" fill="#b2b2b2" stroke="#666666" stroke-width="2" stroke-linecap="butt"/></g><path d="M298.06926,285.00441v-29.19316h264.37273l-22.5,29.19316z" fill="url(#color-1)" stroke="#8c572c" stroke-width="2" stroke-linecap="butt"/><g stroke="#8c572c" stroke-width="2"><path d="M189.95126,140.00441v-29.19316h229.01589v29.19316z" fill="url(#color-2)" stroke-linecap="butt"/><path d="M191.5389,131.89519h33.34052" fill="url(#color-3)" stroke-linecap="round"/><path d="M265.36434,121.35321h-54.77372" fill="url(#color-4)" stroke-linecap="round"/><path d="M282.82842,131.08428l-27.78377,-0.81093" fill="url(#color-5)" stroke-linecap="round"/><path d="M200.27094,120.54229l-10.31969,-0.81092" fill="url(#color-6)" stroke-linecap="round"/><path d="M326.77603,131.89519h33.34052" fill="url(#color-7)" stroke-linecap="round"/><path d="M400.60149,121.35321h-54.77372" fill="url(#color-8)" stroke-linecap="round"/><path d="M390.28179,130.27335l27.78377,0.81093" fill="url(#color-9)" stroke-linecap="round"/><path d="M282.9944,119.73137l52.51368,0.81092" fill="url(#color-10)" stroke-linecap="round"/></g><g stroke="#8c572c" stroke-width="2"><path d="M-95.04873,227.00441v-29.19316h347.24498v29.19316z" fill="url(#color-11)" stroke-linecap="butt"/><path d="M-42.08896,218.89519h-50.55251" fill="url(#color-12)" stroke-linecap="round"/><path d="M-63.75433,208.35321h83.05057" fill="url(#color-13)" stroke-linecap="round"/><path d="M45.77611,218.08428l-42.1271,-0.81093" fill="url(#color-14)" stroke-linecap="round"/><path d="M-95.04876,206.73137l15.64722,0.81092" fill="url(#color-15)" stroke-linecap="round"/><path d="M162.96414,218.89519h-50.55251" fill="url(#color-16)" stroke-linecap="round"/><path d="M224.34933,208.35321h-83.05057" fill="url(#color-17)" stroke-linecap="round"/><path d="M208.70211,217.27335l42.1271,0.81093" fill="url(#color-18)" stroke-linecap="round"/><path d="M46.02778,206.73137l79.62379,0.81092" fill="url(#color-19)" stroke-linecap="round"/></g><g stroke="#8c572c" stroke-width="2"><path d="M252.06926,227.00441v-29.19316h342.24497v29.19316z" fill="url(#color-20)" stroke-linecap="butt"/><path d="M254.47652,218.89519h50.5525" fill="url(#color-21)" stroke-linecap="round"/><path d="M283.36366,208.35321h83.05056" fill="url(#color-22)" stroke-linecap="round"/><path d="M350.76701,217.27335l42.12709,0.81093" fill="url(#color-23)" stroke-linecap="round"/><path d="M267.71645,207.54229l-15.64722,-0.81092" fill="url(#color-24)" stroke-linecap="round"/><path d="M459.52962,218.89519h50.55251" fill="url(#color-25)" stroke-linecap="round"/><path d="M488.41676,208.35321h83.05057" fill="url(#color-26)" stroke-linecap="round"/><path d="M555.82011,217.27335l37.12709,0.81093" fill="url(#color-27)" stroke-linecap="round"/><path d="M393.14577,206.73137l79.62379,0.81092" fill="url(#color-28)" stroke-linecap="round"/></g><g stroke="#8c572c" stroke-width="2"><path d="M-95.04873,256.00441v-29.19316h347.24498v29.19316z" fill="url(#color-29)" stroke-linecap="butt"/><path d="M-92.64147,247.89519h50.55251" fill="url(#color-30)" stroke-linecap="round"/><path d="M-63.75433,237.35321h83.05057" fill="url(#color-31)" stroke-linecap="round"/><path d="M3.64902,246.27335l42.12709,0.81093" fill="url(#color-32)" stroke-linecap="round"/><path d="M-95.04875,235.73137l15.64722,0.81092" fill="url(#color-33)" stroke-linecap="round"/><path d="M162.96414,247.89519h-50.55251" fill="url(#color-34)" stroke-linecap="round"/><path d="M141.29876,237.35321h83.05057" fill="url(#color-35)" stroke-linecap="round"/><path d="M208.70212,246.27335l42.1271,0.81093" fill="url(#color-36)" stroke-linecap="round"/><path d="M125.65157,236.54229l-79.62379,-0.81092" fill="url(#color-37)" stroke-linecap="round"/></g><g stroke="#8c572c" stroke-width="2"><path d="M252.06927,256.00441v-29.19316h337.74497l-22.5,29.19316z" fill="url(#color-38)" stroke-linecap="butt"/><path d="M254.47652,247.89519h50.5525" fill="url(#color-39)" stroke-linecap="round"/><path d="M283.36366,237.35321h83.05057" fill="url(#color-40)" stroke-linecap="round"/><path d="M350.76701,246.27335l42.12709,0.81093" fill="url(#color-41)" stroke-linecap="round"/><path d="M252.06924,235.73137l15.64722,0.81092" fill="url(#color-42)" stroke-linecap="round"/><path d="M459.52962,247.89519h50.55251" fill="url(#color-43)" stroke-linecap="round"/><path d="M571.46732,237.35321h-83.05057" fill="url(#color-44)" stroke-linecap="round"/><path d="" fill="url(#color-45)" stroke-linecap="round"/><path d="M555.82011,246.27335l18.26516,0.39895" fill="url(#color-46)" stroke-linecap="round"/><path d="" fill="url(#color-47)" stroke-linecap="round"/><path d="M393.14577,235.73137l79.62379,0.81092" fill="url(#color-48)" stroke-linecap="round"/></g><g stroke="#8c572c" stroke-width="2"><path d="M68.95127,285.00441l-117,-29.19316h347.24498v29.19316z" fill="url(#color-49)" stroke-linecap="butt"/><path d="M-6.75433,266.35321h73.05057" fill="url(#color-50)" stroke-linecap="round"/><path d="M50.64902,275.27335l42.12709,0.81093" fill="url(#color-51)" stroke-linecap="round"/><path d="M159.41162,276.89519h50.55251" fill="url(#color-52)" stroke-linecap="round"/><path d="M271.34933,266.35321h-83.05057" fill="url(#color-53)" stroke-linecap="round"/><path d="M255.70212,275.27335l42.1271,0.81093" fill="url(#color-54)" stroke-linecap="round"/><path d="M172.65157,265.54229l-79.62379,-0.81092" fill="url(#color-55)" stroke-linecap="round"/></g><path d="M301.47652,276.89519h50.5525" fill="url(#color-56)" stroke="#8c572c" stroke-width="2" stroke-linecap="round"/><path d="M330.36366,266.35321h83.05057" fill="url(#color-57)" stroke="#8c572c" stroke-width="2" stroke-linecap="round"/><path d="M397.76701,275.27335l42.12709,0.81093" fill="url(#color-58)" stroke="#8c572c" stroke-width="2" stroke-linecap="round"/><path d="M314.71646,265.54229l-15.64722,-0.81092" fill="url(#color-59)" stroke="#8c572c" stroke-width="2" stroke-linecap="round"/><path d="" fill="url(#color-60)" stroke="#75491c" stroke-width="2" stroke-linecap="round"/><path d="M506.52962,276.89519h39.01086" fill="url(#color-61)" stroke="#8c572c" stroke-width="2" stroke-linecap="round"/><path d="M440.14577,264.73137l79.62379,0.81092" fill="url(#color-62)" stroke="#8c572c" stroke-width="2" stroke-linecap="round"/><g stroke="#8c572c" stroke-width="2"><path d="M228.95127,314.00441l-117,-29.19316h234.24498v29.19316z" fill="url(#color-63)" stroke-linecap="butt"/><path d="M256.96414,305.89519h-50.55251" fill="url(#color-64)" stroke-linecap="round"/><path d="M318.34933,295.35321h-83.05057" fill="url(#color-65)" stroke-linecap="round"/><path d="M302.70212,304.27335l42.1271,0.81093" fill="url(#color-66)" stroke-linecap="round"/><path d="M145.02778,293.73137l74.62379,0.81092" fill="url(#color-67)" stroke-linecap="round"/></g><path d="M338.94152,314.00441v-29.19316h193.87273l-22.5,29.19316z" fill="url(#color-68)" stroke="#8c572c" stroke-width="2" stroke-linecap="butt"/><path d="M348.47652,305.89519h50.5525" fill="url(#color-69)" stroke="#8c572c" stroke-width="2" stroke-linecap="round"/><path d="M377.36366,295.35321h83.05057" fill="url(#color-70)" stroke="#8c572c" stroke-width="2" stroke-linecap="round"/><path d="M444.76701,304.27335l42.12709,0.81093" fill="url(#color-71)" stroke="#8c572c" stroke-width="2" stroke-linecap="round"/><path d="M346.06924,293.73137l15.64722,0.81092" fill="url(#color-72)" stroke="#8c572c" stroke-width="2" stroke-linecap="round"/><path d="" fill="url(#color-73)" stroke="#75491c" stroke-width="2" stroke-linecap="round"/><path d="M487.14577,293.73137l38.65847,0.01083" fill="url(#color-74)" stroke="#8c572c" stroke-width="2" stroke-linecap="round"/><path d="M393.06927,343.00441l-114,-29.19316h223.24497l-22.5,29.19316z" fill="url(#color-75)" stroke="#8c572c" stroke-width="2" stroke-linecap="butt"/><path d="M368.47652,334.89519h50.5525" fill="url(#color-76)" stroke="#8c572c" stroke-width="2" stroke-linecap="round"/><path d="M386.36366,323.85321h83.05057" fill="url(#color-77)" stroke="#8c572c" stroke-width="2" stroke-linecap="round"/><path d="" fill="url(#color-78)" stroke="#75491c" stroke-width="2" stroke-linecap="round"/><path d="M485.30022,334.29373l-27.03321,-0.52038" fill="url(#color-79)" stroke="#8c572c" stroke-width="2" stroke-linecap="round"/><path d="M340.21646,325.54229l-15.64722,-0.81092" fill="url(#color-80)" stroke="#8c572c" stroke-width="2" stroke-linecap="round"/><path d="" fill="url(#color-81)" stroke="#75491c" stroke-width="2" stroke-linecap="round"/><path d="" fill="url(#color-82)" stroke="#75491c" stroke-width="2" stroke-linecap="round"/><path d="" fill="url(#color-83)" stroke="#75491c" stroke-width="2" stroke-linecap="round"/><path d="M534.14577,322.73137" fill="url(#color-84)" stroke="#8c572c" stroke-width="2" stroke-linecap="round"/><g stroke="#8c572c" stroke-width="2"><path d="M189.95126,169.00441v-29.19316h229.01589v29.19316z" fill="url(#color-85)" stroke-linecap="butt"/><path d="M191.5389,160.89519h33.34052" fill="url(#color-86)" stroke-linecap="round"/><path d="M265.36434,150.35321h-54.77372" fill="url(#color-87)" stroke-linecap="round"/><path d="M282.82842,160.08428l-27.78377,-0.81093" fill="url(#color-88)" stroke-linecap="round"/><path d="M189.95125,148.73137l10.31969,0.81092" fill="url(#color-89)" stroke-linecap="round"/><path d="M326.77603,160.89519h33.34052" fill="url(#color-90)" stroke-linecap="round"/><path d="M400.60149,150.35321h-54.77372" fill="url(#color-91)" stroke-linecap="round"/><path d="M390.28179,159.27335l27.78377,0.81093" fill="url(#color-92)" stroke-linecap="round"/><path d="M282.9944,148.73137l52.51368,0.81092" fill="url(#color-93)" stroke-linecap="round"/></g><g stroke="#8c572c" stroke-width="2"><path d="M189.95126,198.00441v-29.19316h229.01589v29.19316z" fill="url(#color-94)" stroke-linecap="butt"/><path d="M191.5389,189.89519h33.34052" fill="url(#color-95)" stroke-linecap="round"/><path d="M265.36434,179.35321h-54.77372" fill="url(#color-96)" stroke-linecap="round"/><path d="M282.82842,189.08428l-27.78377,-0.81093" fill="url(#color-97)" stroke-linecap="round"/><path d="M200.27094,178.54229l-10.31969,-0.81092" fill="url(#color-98)" stroke-linecap="round"/><path d="M326.77603,189.89519h33.34052" fill="url(#color-99)" stroke-linecap="round"/><path d="M400.60149,179.35321h-54.77372" fill="url(#color-100)" stroke-linecap="round"/><path d="M390.28179,188.27335l27.78377,0.81093" fill="url(#color-101)" stroke-linecap="round"/><path d="M282.9944,177.73137l52.51368,0.81092" fill="url(#color-102)" stroke-linecap="round"/></g><path d="M401.70174,246.60732c8.77729,-10.65813 24.53281,-12.18286 35.19094,-3.40558c10.65813,8.77728 12.18286,24.53281 3.40557,35.19093c-8.77729,10.65813 -24.53281,12.18286 -35.19094,3.40557c-10.65813,-8.77729 -12.18286,-24.5328 -3.40557,-35.19093z" data-paper-data="{&quot;origPos&quot;:null,&quot;origRot&quot;:0}" fill="url(#color-103)" stroke="#784a08" stroke-width="7" stroke-linecap="butt"/><path d="M254.70174,140.60732c8.77729,-10.65813 24.53281,-12.18286 35.19094,-3.40558c10.65813,8.77728 12.18286,24.53281 3.40557,35.19093c-8.77729,10.65813 -24.53281,12.18286 -35.19094,3.40557c-10.65813,-8.77729 -12.18286,-24.5328 -3.40557,-35.19093z" data-paper-data="{&quot;origPos&quot;:null,&quot;origRot&quot;:0}" fill="url(#color-104)" stroke="#784a08" stroke-width="7" stroke-linecap="butt"/><path d="M318.70175,140.60732c8.77729,-10.65813 24.5328,-12.18286 35.19094,-3.40558c10.65813,8.77728 12.18286,24.53281 3.40557,35.19093c-8.77729,10.65813 -24.53281,12.18286 -35.19094,3.40557c-10.65813,-8.77729 -12.18286,-24.5328 -3.40557,-35.19093z" data-paper-data="{&quot;origPos&quot;:null,&quot;origRot&quot;:0}" fill="url(#color-105)" stroke="#784a08" stroke-width="7" stroke-linecap="butt"/></g></g></svg>