<svg version="1.1" xmlns="http://www.w3.org/2000/svg" xmlns:xlink="http://www.w3.org/1999/xlink" width="381.91058" height="215.59106" viewBox="0,0,381.91058,215.59106"><defs><linearGradient x1="25.04471" y1="169" x2="25.04471" y2="364" gradientUnits="userSpaceOnUse" id="color-1"><stop offset="0" stop-color="#7c5831"/><stop offset="1" stop-color="#95693b"/></linearGradient></defs><g transform="translate(23.91058,-153.90894)"><g data-paper-data="{&quot;isPaintingLayer&quot;:true}" fill-rule="nonzero" stroke-width="2" stroke-linejoin="miter" stroke-miterlimit="10" stroke-dasharray="" stroke-dashoffset="0" style="mix-blend-mode: normal"><path d="M-22.91058,169h95.91058v195h-95.91058z" fill="url(#color-1)" stroke="#663b00" stroke-linecap="butt"/><path d="M-22.91058,154.90894h95.91058v23.63577h-95.91058z" fill="#8d5827" stroke="#704d00" stroke-linecap="butt"/><path d="M189,237.5h167.11399v131h-167.11399z" fill="#95693b" stroke="#663b00" stroke-linecap="butt"/><path d="M189,223h168v16h-168z" fill="#8d5827" stroke="#704d00" stroke-linecap="butt"/><g fill="#b2b2b2" stroke="#7f7f7f" stroke-linecap="round"><path d="M31.0417,210.5017c0.7028,-0.0245 -1.597,1.6931 -1.7152,3.2685c-0.1076,1.4332 0.4455,2.8484 0.7954,4.2417c0.1734,0.6902 1.2498,1.4658 0.7714,1.9919c-0.9569,1.0523 -2.5614,1.5705 -3.9838,1.5427c-1.5304,-0.0297 -3.272,-0.5421 -4.2684,-1.7045c-1.3884,-1.6203 -2.0264,-3.8616 -2.314,-5.9756c-0.1846,-1.3601 0.0713,-2.962 0.9572,-4.0105c0.868,-1.0273 2.3915,-1.4546 3.7337,-1.54c1.9398,-0.1227 4.5722,-0.5659 5.7604,0.9385z"/><path d="M29.9054,200.0079c3.7565,-2.8754 8.9422,-0.3156 12.768,1.6136c4.026,2.0321 7.5175,5.992 9.609,10.1479c1.3978,2.7822 1.2789,6.1567 0.3462,8.9968c-0.9298,2.8281 -3.1955,5.7715 -6.1775,6.8164c-4.3508,1.7266 -10.3315,3.9386 -14.2412,0.9023c-4.0337,-3.1371 -2.9976,-9.8706 -3.4101,-14.9645c-0.3641,-4.5003 -2.0178,-10.356 1.1056,-13.5125z"/><path d="M24.5177,207.357c-0.4327,1.7098 -0.4113,3.8106 -1.6964,5.0184c-1.107,1.0409 -3.7505,2.1243 -4.4918,0.7981c-1.463,-2.6155 -0.9013,-6.1127 -0.0961,-8.9995c0.4662,-1.6681 1.9494,-3.621 3.7097,-3.7899c1.4962,0.0131 2.4879,2.0356 3.0372,3.4678c0.4218,1.0975 -0.1737,2.364 -0.2179,3.0025z"/><path d="M24.7662,222.9998c0.0578,0.6374 0.6803,1.8908 0.2821,2.9971c-0.5186,1.4437 -1.4668,3.4869 -2.9624,3.5319c-1.7635,-0.1312 -3.2882,-2.052 -3.7899,-3.7097c-0.8667,-2.8689 -1.503,-6.3533 -0.0962,-8.9995c0.7127,-1.3417 3.3788,-0.3151 4.5078,0.7019c1.3107,1.18 1.3341,3.2809 1.8033,4.981z"/></g><g fill="#b2b2b2" stroke="#7f7f7f" stroke-linecap="round"><path d="M215.8844,343.7854c-0.5672,-0.4156 2.3022,-0.3418 3.3699,-1.5062c0.9714,-1.0593 1.4126,-2.5133 1.9999,-3.8243c0.2909,-0.6495 -0.0748,-1.9248 0.6266,-2.0421c1.4028,-0.2345 2.9839,0.3513 4.0841,1.2533c1.1838,0.9703 2.2349,2.4505 2.2984,3.9802c0.088,2.1319 -0.7977,4.2874 -1.8799,6.1261c-0.6966,1.1826 -1.8888,2.2826 -3.2335,2.5581c-1.3177,0.2699 -2.7789,-0.3372 -3.886,-1.1006c-1.5998,-1.1039 -3.942,-2.3847 -3.9444,-4.3017z"/><path d="M210.3078,352.7826c-4.7301,-0.0657 -7.2198,-5.2853 -9.0315,-9.1682c-1.9051,-4.0876 -2.1976,-9.3588 -1.269,-13.9177c0.6235,-3.0506 2.805,-5.6278 5.2952,-7.2817c2.4804,-1.6463 6.0815,-2.5565 9.0707,-1.5322c4.4862,1.3359 10.5531,3.299 11.7455,8.1035c1.2276,4.9604 -3.7529,9.6088 -6.5809,13.8656c-2.4987,3.7606 -4.8231,9.3838 -9.23,9.9307z"/><path d="M219.0977,350.3305c1.3979,-1.0753 2.6811,-2.7389 4.438,-2.8925c1.5137,-0.1327 4.2607,0.6521 4.0224,2.1525c-0.4692,2.96 -3.0744,5.3597 -5.4932,7.1291c-1.3984,1.0219 -3.7721,1.6383 -5.2593,0.6817c-1.1674,-0.9361 -0.6949,-3.1385 -0.2402,-4.6035c0.3479,-1.1232 1.5993,-1.7496 2.0291,-2.2238z"/><path d="M228.561,337.9147c0.349,-0.5365 0.6356,-1.9063 1.633,-2.5289c1.3007,-0.8132 3.3099,-1.8315 4.5126,-0.9414c1.3042,1.1942 1.3133,3.6466 0.6817,5.2593c-1.0944,2.79 -2.7507,5.9209 -5.4932,7.1291c-1.3901,0.613 -2.8493,-1.8432 -3.1068,-3.3407c-0.2995,-1.738 0.9821,-3.4029 1.6655,-5.0287z"/></g><g fill="#b2b2b2" stroke="#7f7f7f" stroke-linecap="round"><path d="M328.4137,271.7934c0.3478,0.6111 -2.241,-0.6289 -3.6913,-0.0024c-1.3195,0.5697 -2.3163,1.7165 -3.3881,2.673c-0.5309,0.4739 -0.7184,1.7873 -1.4064,1.6077c-1.3762,-0.3592 -2.5798,-1.54 -3.2153,-2.8129c-0.684,-1.3693 -1.0383,-3.1498 -0.4711,-4.5719c0.7908,-1.9818 2.4801,-3.5871 4.2192,-4.823c1.1191,-0.7946 2.6568,-1.3113 3.9967,-1.0133c1.3128,0.2922 2.3984,1.4434 3.0969,2.5927c1.0089,1.6613 2.6231,3.7874 1.8419,5.538z"/><path d="M337.2025,265.8957c4.2902,1.9931 4.4294,7.7744 4.4961,12.0586c0.0683,4.5092 -1.8189,9.4397 -4.5295,13.2211c-1.8158,2.5293 -4.8601,3.99 -7.8087,4.4819c-2.9366,0.4888 -6.5953,-0.1521 -8.9048,-2.3086c-3.5485,-3.0526 -8.2835,-7.3237 -7.4083,-12.196c0.9068,-5.0289 7.352,-7.236 11.6727,-9.9654c3.8174,-2.4111 8.2369,-6.5934 12.4825,-5.2916z"/><path d="M328.213,264.5074c-1.7153,0.4101 -3.5663,1.4041 -5.2326,0.8262c-1.4357,-0.4974 -3.6221,-2.3363 -2.7914,-3.6083c1.6378,-2.5098 4.9962,-3.6353 7.927,-4.2617c1.6939,-0.3612 4.1122,0.0463 5.0786,1.5272c0.6829,1.3313 -0.6484,3.1484 -1.6621,4.2996c-0.7765,0.883 -2.1746,0.9432 -2.7607,1.2004z"/><path d="M314.2921,272.0383c-0.5378,0.347 -1.3592,1.48 -2.524,1.6407c-1.5194,0.2106 -3.7693,0.3189 -4.5033,-0.985c-0.7022,-1.6229 0.2917,-3.8648 1.5272,-5.0786c2.1391,-2.0992 4.9302,-4.2798 7.9271,-4.2617c1.5192,0.0086 1.8472,2.8466 1.4702,4.3186c-0.437,1.7087 -2.287,2.7044 -3.5752,3.909z"/></g><path d="M40.0464,296.9426c3.0035,1.7638 -5.7465,11.648 -3.7747,17.1464c1.3627,3.7877 7.0975,3.8584 10.9927,4.607c2.3841,0.4423 5.2497,-1.9757 6.3649,-0.6984c1.0586,1.2154 -0.9246,3.9766 -2.2365,5.3908c-1.5295,1.9287 -3.4955,4.2579 -5.9386,4.2259c-6.7411,-0.0899 -14.9347,0.405 -19.7931,-4.2698c-4.01,-3.8581 -4.5626,-11.7164 -1.9002,-16.6024c3.0281,-5.5576 13.0335,-11.7092 16.667,-11.334z" fill="#b2b2b2" stroke="#7f7f7f" stroke-linecap="round"/><path d="M229.7983,280.6176c1.6289,-3.0787 11.8913,5.2245 17.2969,3.0109c3.7236,-1.5293 3.54,-7.2615 4.1152,-11.1861c0.3361,-2.4014 -2.2065,-5.157 -0.9798,-6.3277c1.1672,-1.1114 4.0136,0.7474 5.4846,1.9953c1.9946,1.4425 4.4086,3.3033 4.4849,5.7455c0.2091,6.7385 1.0667,14.902 -3.3882,19.9629c-3.6765,4.1771 -11.5026,5.0775 -16.5018,2.6343c-5.6864,-2.7788 -12.2755,-12.5017 -12.0616,-16.1483z" fill="#b2b2b2" stroke="#7f7f7f" stroke-linecap="round"/><path d="M298.4686,360.2189c-2.3953,-2.5287 8.7559,-9.5934 8.389,-15.4232c-0.2569,-4.0171 -5.7464,-5.678 -9.2804,-7.4792c-2.1674,-1.0871 -5.5919,0.4398 -6.3084,-1.0971c-0.6793,-1.4616 1.9928,-3.5633 3.6459,-4.5574c2.0051,-1.4279 4.5407,-3.1193 6.8788,-2.4099c6.4508,1.9588 14.4594,3.7594 17.8281,9.5998c2.7805,4.8201 1.1285,12.5226 -2.7863,16.4768c-4.4527,4.4978 -15.7731,7.628 -19.1594,6.2583z" fill="#b2b2b2" stroke="#7f7f7f" stroke-linecap="round"/></g></g></svg>