<svg xmlns="http://www.w3.org/2000/svg" xmlns:xlink="http://www.w3.org/1999/xlink" version="1.1" width="45.36381276489363" height="48.924714406739334" viewBox="-0.3416071635537641 0.26589282333321407 45.36381276489363 48.924714406739334">
  <!-- Exported by Scratch - http://scratch.mit.edu/ -->
  <path id="ID0.5125035038217902" fill="#FF9400" stroke="none" d="M 1.984 21.6 L 43.284 21.6 L 43.284 46.6 L 1.984 46.6 L 1.984 21.6 Z " stroke-width="1.0012143457041773"/>
  <path id="ID0.28936788300052285" fill="#FF9400" stroke="none" stroke-linecap="round" d="M 22.6288 0.7665 C 28.3262 0.7665 33.4889 3.0805 37.2273 6.8189 C 40.9657 10.5572 43.2797 15.72 43.2797 21.4173 C 43.2797 27.1147 40.9657 32.2774 37.2273 36.0157 C 33.4889 39.7541 28.3262 42.0682 22.6288 42.0682 C 16.9315 42.0682 11.7688 39.7541 8.0304 36.0157 C 4.292 32.2774 1.978 27.1147 1.978 21.4173 C 1.978 15.72 4.292 10.5572 8.0304 6.8189 C 11.7688 3.0805 16.9315 0.7665 22.6288 0.7665 Z " stroke-width="0.8162392973899841"/>
  <path id="ID0.90278196381405" fill="#B2B2B2" stroke="none" d="M 0.159 38.8951 L 44.5216 38.8951 L 44.5216 48.69 L 0.159 48.69 L 0.159 38.8951 Z " stroke-width="0.8162392973899841"/>
  <path id="ID0.8400339637883008" fill="#FFFFFF" stroke="none" d="M 10.85 17.3203 L 10.85 9.1235 L 12.7 7.31 L 32.4 7.3826 L 35.2 9.7763 L 35.55 18.8073 L 33.1 20.7658 L 26.95 20.8383 L 25.25 22.6881 L 25.3 26.3875 L 18.65 26.3875 L 18.75 19.2788 L 21.2 16.885 L 28.35 16.7762 L 28.25 12.2063 L 17.25 12.1338 L 16.85 17.3203 L 10.85 17.3203 Z " stroke-width="0.8735486058306358"/>
  <path id="ID0.8400339637883008" fill="#FFFFFF" stroke="none" d="M 18.8 29.7875 L 25.45 29.7875 L 25.45 34.9375 L 18.8 34.9375 L 18.8 29.7875 Z " stroke-width="0.7204354753810319"/>
</svg>