<svg version="1.1" xmlns="http://www.w3.org/2000/svg" xmlns:xlink="http://www.w3.org/1999/xlink" width="134.2" height="542.59093" viewBox="0,0,134.2,542.59093"><defs><linearGradient x1="227.60239" y1="-7805.73052" x2="227.60239" y2="19900.1973" gradientUnits="userSpaceOnUse" id="color-1"><stop offset="0" stop-color="#519dff"/><stop offset="1" stop-color="#519dff" stop-opacity="0"/></linearGradient></defs><g transform="translate(-172.9,216.09092)"><g data-paper-data="{&quot;isPaintingLayer&quot;:true}" fill-rule="nonzero" stroke-linejoin="miter" stroke-miterlimit="10" stroke-dasharray="" stroke-dashoffset="0" style="mix-blend-mode: normal"><path d="M185.12013,-214.3052l110.23071,-0.28187l-0.02906,520.41557c0,0 -109.19116,-0.41508 -110.06518,1.5387z" data-paper-data="{&quot;origPos&quot;:null}" fill="url(#color-1)" stroke="#55b2f0" stroke-width="3" stroke-linecap="butt"/><path d="M281.8514,62.73771v-42.36335" data-paper-data="{&quot;origPos&quot;:null}" fill="none" stroke="#8bdfff" stroke-width="3" stroke-linecap="round"/><path d="M284.64026,152.16091l-0.9151,-64.5212" data-paper-data="{&quot;origPos&quot;:null}" fill="none" stroke="#8bdfff" stroke-width="3" stroke-linecap="round"/><path d="M264.05065,53.21103v46.29757" data-paper-data="{&quot;origPos&quot;:null}" fill="none" stroke="#8bdfff" stroke-width="3" stroke-linecap="round"/><path d="M242.43701,78.63946l2.81066,105.36522" data-paper-data="{&quot;origPos&quot;:null}" fill="none" stroke="#8bdfff" stroke-width="3" stroke-linecap="round"/><path d="M268.73505,304.7942l-0.93688,-38.01838" data-paper-data="{&quot;origPos&quot;:null}" fill="none" stroke="#8bdfff" stroke-width="3" stroke-linecap="round"/><path d="M261.43604,191.52011v42.36333" data-paper-data="{&quot;origPos&quot;:null}" fill="none" stroke="#8bdfff" stroke-width="3" stroke-linecap="round"/><path d="M227.44693,172.96774l-0.9369,94.50281" data-paper-data="{&quot;origPos&quot;:null}" fill="none" stroke="#8bdfff" stroke-width="3" stroke-linecap="round"/><path d="M205.0271,303.27628l-0.93686,-75.65882" data-paper-data="{&quot;origPos&quot;:null}" fill="none" stroke="#8bdfff" stroke-width="3" stroke-linecap="round"/><path d="M244.37613,308.81622v-67.98539" data-paper-data="{&quot;origPos&quot;:null}" fill="none" stroke="#8bdfff" stroke-width="3" stroke-linecap="round"/><path d="M283.72516,307.86157v-134.55606" data-paper-data="{&quot;origPos&quot;:null}" fill="none" stroke="#8bdfff" stroke-width="3" stroke-linecap="round"/><path d="M203.17512,14.3559l0.9369,106.45144" data-paper-data="{&quot;origPos&quot;:null}" fill="none" stroke="#8bdfff" stroke-width="3" stroke-linecap="round"/><path d="M221.8692,153.0664l-0.9151,-94.50281" data-paper-data="{&quot;origPos&quot;:null}" fill="none" stroke="#8bdfff" stroke-width="3" stroke-linecap="round"/><path d="M194.76472,160.03641v42.36333" data-paper-data="{&quot;origPos&quot;:null}" fill="none" stroke="#8bdfff" stroke-width="3" stroke-linecap="round"/><path d="M240.62861,-57.31862l2.81064,105.36522" data-paper-data="{&quot;origPos&quot;:null}" fill="none" stroke="#8bdfff" stroke-width="3" stroke-linecap="round"/><path d="M266.92663,9.5657l-0.93688,-38.01836" data-paper-data="{&quot;origPos&quot;:null}" fill="none" stroke="#8bdfff" stroke-width="3" stroke-linecap="round"/><path d="M222.84964,23.88257l-0.95866,-61.91564" data-paper-data="{&quot;origPos&quot;:null}" fill="none" stroke="#8bdfff" stroke-width="3" stroke-linecap="round"/><path d="M205.94222,-82.44782v45.90719" data-paper-data="{&quot;origPos&quot;:null}" fill="none" stroke="#8bdfff" stroke-width="3" stroke-linecap="round"/><path d="M227.53406,-75.32645l-0.9151,-80.38169" data-paper-data="{&quot;origPos&quot;:null}" fill="none" stroke="#8bdfff" stroke-width="3" stroke-linecap="round"/><path d="M288.2353,-113.43307l-0.93688,97.76154" data-paper-data="{&quot;origPos&quot;:null}" fill="none" stroke="#8bdfff" stroke-width="3" stroke-linecap="round"/><path d="M263.65859,-133.48436l0.9151,80.38169" data-paper-data="{&quot;origPos&quot;:null}" fill="none" stroke="#8bdfff" stroke-width="3" stroke-linecap="round"/><g data-paper-data="{&quot;origPos&quot;:null,&quot;index&quot;:null}" fill="#8bdfff" stroke="none" stroke-linecap="butt"><path d="M192.7,323.15065c-10.93524,0 -19.8,-9.24733 -19.8,-20.65449c0,-11.40717 8.86476,-20.65449 19.8,-20.65449c10.93524,0 19.8,9.24733 19.8,20.65449c0,11.40717 -8.86476,20.65449 -19.8,20.65449z" data-paper-data="{&quot;origPos&quot;:null}" stroke-width="3"/><path d="M273,305.28729c0,-9.24905 7.63355,-16.74688 17.05,-16.74688c9.41645,0 17.05,7.49783 17.05,16.74688c0,9.24905 -7.63355,16.74688 -17.05,16.74688c-9.41645,0 -17.05,-7.49783 -17.05,-16.74688z" data-paper-data="{&quot;origPos&quot;:null}" stroke-width="0"/><path d="M220.2,319.80124c-7.89767,0 -14.3,-5.74835 -14.3,-12.83928c0,-7.09094 6.40233,-12.83928 14.3,-12.83928c7.89767,0 14.3,5.74835 14.3,12.83928c0,7.09094 -6.40233,12.83928 -14.3,12.83928z" data-paper-data="{&quot;origPos&quot;:null}" stroke-width="0"/><path d="M253.2,295.79737c0,-6.47434 5.17111,-11.72282 11.55,-11.72282c6.37889,0 11.55,5.24849 11.55,11.72282c0,6.47434 -5.17111,11.72282 -11.55,11.72282c-6.37889,0 -11.55,-5.24849 -11.55,-11.72282z" data-paper-data="{&quot;origPos&quot;:null}" stroke-width="0"/><path d="M243.3,325.38354c-9.1127,0 -16.5,-7.49783 -16.5,-16.74688c0,-9.24905 7.3873,-16.74688 16.5,-16.74688c9.1127,0 16.5,7.49783 16.5,16.74688c0,9.24905 -7.3873,16.74688 -16.5,16.74688z" data-paper-data="{&quot;origPos&quot;:null}" stroke-width="0"/><path d="M254.3,312.54427c0,-7.70755 6.40233,-13.95574 14.3,-13.95574c7.89767,0 14.3,6.2482 14.3,13.95574c0,7.70755 -6.40233,13.95574 -14.3,13.95574c-7.89767,0 -14.3,-6.2482 -14.3,-13.95574z" data-paper-data="{&quot;origPos&quot;:null}" stroke-width="0"/><path d="M233.95,311.98605c-6.9864,0 -12.65,-5.74835 -12.65,-12.83928c0,-7.09094 5.6636,-12.83928 12.65,-12.83928c6.9864,0 12.65,5.74835 12.65,12.83928c0,7.09094 -5.6636,12.83928 -12.65,12.83928z" data-paper-data="{&quot;origPos&quot;:null}" stroke-width="0"/></g></g></g></svg>