<svg version="1.1" xmlns="http://www.w3.org/2000/svg" xmlns:xlink="http://www.w3.org/1999/xlink" width="608.5" height="456.12487" viewBox="0,0,608.5,456.12487"><defs><linearGradient x1="-4.61037" y1="-32.43744" x2="-4.61037" y2="340.76435" gradientUnits="userSpaceOnUse" id="color-1"><stop offset="0" stop-color="#2b3f57"/><stop offset="1" stop-color="#1b7058"/></linearGradient><linearGradient x1="41.4542" y1="128.78087" x2="162.46962" y2="128.78087" gradientUnits="userSpaceOnUse" id="color-2"><stop offset="0" stop-color="#aa933d"/><stop offset="1" stop-color="#ccc958"/></linearGradient><linearGradient x1="41.49351" y1="216.39329" x2="162.50893" y2="216.39329" gradientUnits="userSpaceOnUse" id="color-3"><stop offset="0" stop-color="#aa933d"/><stop offset="1" stop-color="#ccc958"/></linearGradient><linearGradient x1="283.3433" y1="172.61557" x2="404.35872" y2="172.61557" gradientUnits="userSpaceOnUse" id="color-4"><stop offset="0" stop-color="#c97f42"/><stop offset="1" stop-color="#e3bd76"/></linearGradient><linearGradient x1="283.38261" y1="260.22798" x2="404.39803" y2="260.22798" gradientUnits="userSpaceOnUse" id="color-5"><stop offset="0" stop-color="#c97f42"/><stop offset="1" stop-color="#e3bd76"/></linearGradient><linearGradient x1="112" y1="245.15045" x2="112" y2="422.93743" gradientUnits="userSpaceOnUse" id="color-6"><stop offset="0" stop-color="#5eaa6d"/><stop offset="1" stop-color="#25743e"/></linearGradient><linearGradient x1="344" y1="241.93743" x2="344" y2="419.72441" gradientUnits="userSpaceOnUse" id="color-7"><stop offset="0" stop-color="#5eaa6d"/><stop offset="1" stop-color="#25743e"/></linearGradient></defs><g transform="translate(76.25,32.43744)"><g data-paper-data="{&quot;isPaintingLayer&quot;:true}" fill-rule="nonzero" stroke-linecap="butt" stroke-linejoin="miter" stroke-miterlimit="10" stroke-dasharray="" stroke-dashoffset="0" style="mix-blend-mode: normal"><path d="M2.5,-21.06257h480v360h-480z" fill="#ffffff" stroke="none" stroke-width="1"/><path d="M-4.61037,-32.43744h497.60239v373.2018h-497.60239z" fill="url(#color-1)" stroke="none" stroke-width="1"/><path d="M74.5,306.43743c0,12.4264 -3.35787,22.5 -7.5,22.5c-4.14213,0 -7.5,-10.0736 -7.5,-22.5c0,-12.4264 3.35787,-22.5 7.5,-22.5c4.14213,0 7.5,10.0736 7.5,22.5z" fill="#ffefb3" stroke="none" stroke-width="0"/><g fill="#233c3e" stroke="#4bca88" stroke-width="0"><path d="M150.72601,233.17158c0.36156,23.85704 -40.13842,43.81522 -90.45925,44.57786c-50.32083,0.76264 -91.40703,-17.95907 -91.76859,-41.81611c-0.36156,-23.85704 40.13842,-43.81522 90.45925,-44.57786c50.32083,-0.76264 91.40703,17.95907 91.76859,41.81611z" data-paper-data="{&quot;origPos&quot;:null}"/><path d="M263.44064,229.90164c0.36156,23.85704 -40.13842,43.81522 -90.45925,44.57786c-50.32083,0.76264 -91.40703,-17.95907 -91.76859,-41.81611c-0.36156,-23.85704 40.13842,-43.81522 90.45925,-44.57786c50.32083,-0.76264 91.40703,17.95907 91.76859,41.81611z" data-paper-data="{&quot;origPos&quot;:null}"/></g><g fill="#233c3e" stroke="#4bca88" stroke-width="0"><path d="M409.7872,235.24607c0.36156,23.85704 -40.13842,43.81522 -90.45925,44.57786c-50.32083,0.76264 -91.40702,-17.95907 -91.76859,-41.81611c-0.36156,-23.85704 40.13842,-43.81522 90.45925,-44.57786c50.32083,-0.76264 91.40703,17.95907 91.76859,41.8161z" data-paper-data="{&quot;origPos&quot;:null}"/><path d="M522.50182,231.97613c0.36156,23.85704 -40.13842,43.81522 -90.45925,44.57786c-50.32083,0.76264 -91.40703,-17.95907 -91.76859,-41.81611c-0.36156,-23.85704 40.13842,-43.81522 90.45925,-44.57786c50.32083,-0.76264 91.40702,17.95907 91.76859,41.81611z" data-paper-data="{&quot;origPos&quot;:null}"/></g><path d="M101.96191,73.42275c16.6936,0 31.82053,6.20337 42.77389,16.22422c10.9537,10.02145 17.73382,23.86098 17.73382,39.1339c0,15.273 -6.78012,29.11253 -17.73382,39.13398c-10.95335,10.02085 -26.08028,16.22413 -42.77389,16.22413c-16.69369,0 -31.82062,-6.20328 -42.77389,-16.22413c-10.9537,-10.02145 -17.73382,-23.86098 -17.73382,-39.13398c0,-15.27292 6.78012,-29.11245 17.73382,-39.1339c10.95327,-10.02085 26.0802,-16.22422 42.77389,-16.22422z" fill="url(#color-2)" stroke="none" stroke-width="0.55092"/><path d="M41.49351,131.85414h121.01542v169.07828h-121.01542z" fill="url(#color-3)" stroke="none" stroke-width="1.16723"/><path d="M62.95014,192.7113c0,13.20448 -3.84258,23.90882 -8.58265,23.90882c-4.74007,0 -8.58265,-10.70435 -8.58265,-23.90882c0,-13.20448 3.84258,-23.90882 8.58265,-23.90882c4.74007,0 8.58265,10.70435 8.58265,23.90882z" fill="#c6b165" stroke="#000000" stroke-width="0"/><path d="M136.10076,144.77105c2.95343,0 5.34765,6.66962 5.34765,14.89703c0,8.2274 -2.39423,14.89703 -5.34765,14.89703c-2.95343,0 -5.34765,-6.66962 -5.34765,-14.89703c0,-8.2274 2.39423,-14.89703 5.34765,-14.89703z" fill="#e2ca74" stroke="#000000" stroke-width="0"/><path d="M119.79372,217.7236c2.95343,0 5.34765,6.66964 5.34765,14.89704c0,8.2274 -2.39423,14.89703 -5.34765,14.89703c-2.95343,0 -5.34765,-6.66963 -5.34765,-14.89703c0,-8.22741 2.39423,-14.89704 5.34765,-14.89704z" fill="#e2ca74" stroke="#000000" stroke-width="0"/><path d="M94.04576,79.54287c2.95343,0 5.34765,6.66963 5.34765,14.89704c0,8.22741 -2.39423,14.89703 -5.34765,14.89703c-2.95342,0 -5.34765,-6.66962 -5.34765,-14.89703c0,-8.22741 2.39423,-14.89704 5.34765,-14.89704z" fill="#cbb567" stroke="#000000" stroke-width="0"/><path d="M83.45554,117.08483c1.82991,0 3.77352,-0.08421 4.97283,3.47566c1.20078,3.55987 1.94336,8.47511 1.94336,13.90064c0,5.42552 -0.74257,10.34077 -1.94336,13.90064c-1.19931,3.55987 -2.85684,3.76175 -4.68675,3.76175c-1.82991,0 -3.48743,-0.20188 -4.68674,-3.76175c-1.20078,-3.55987 -1.94336,-8.47511 -1.94336,-13.90064c0,-5.42552 0.74257,-10.34077 1.94336,-13.90064c1.19931,-3.55987 2.57075,-3.47566 4.40065,-3.47566z" fill="#31353b" stroke="none" stroke-width="1"/><path d="M118.07224,116.79873c1.82991,0 3.77353,-0.08421 4.97284,3.47566c1.20078,3.55987 1.94336,8.47511 1.94336,13.90064c0,5.42552 -0.74257,10.34077 -1.94336,13.90064c-1.19931,3.55987 -2.85684,3.76174 -4.68675,3.76174c-1.82991,0 -3.48743,-0.20187 -4.68674,-3.76174c-1.20078,-3.55987 -1.94336,-8.47511 -1.94336,-13.90064c0,-5.42552 0.74257,-10.34077 1.94336,-13.90064c1.19931,-3.55987 2.57075,-3.47566 4.40065,-3.47566z" fill="#31353b" stroke="none" stroke-width="1"/><path d="M151.5,335.43743c0,10.21727 -3.35787,18.5 -7.5,18.5c-4.14213,0 -7.5,-8.28273 -7.5,-18.5c0,-10.21727 3.35787,-18.5 7.5,-18.5c4.14213,0 7.5,8.28273 7.5,18.5z" fill="#ffefb3" stroke="none" stroke-width="0"/><path d="M343.85101,117.25744c16.6936,0 31.82053,6.20337 42.77389,16.22422c10.9537,10.02145 17.73382,23.86098 17.73382,39.1339c0,15.273 -6.78012,29.11253 -17.73382,39.13398c-10.95335,10.02085 -26.08028,16.22413 -42.77389,16.22413c-16.69369,0 -31.82062,-6.20328 -42.77389,-16.22413c-10.9537,-10.02145 -17.73382,-23.86098 -17.73382,-39.13398c0,-15.27292 6.78012,-29.11245 17.73382,-39.1339c10.95327,-10.02085 26.0802,-16.22422 42.77389,-16.22422z" fill="url(#color-4)" stroke="none" stroke-width="0.55092"/><path d="M283.38261,175.68884h121.01542v169.07828h-121.01542z" fill="url(#color-5)" stroke="none" stroke-width="1.16723"/><path d="M375.75486,207.60359c4.74007,0 8.58265,6.71085 8.58265,14.98911c0,8.27825 -3.84258,14.98911 -8.58265,14.98911c-4.74007,0 -8.58265,-6.71085 -8.58265,-14.98911c0,-8.27825 3.84258,-14.98911 8.58265,-14.98911z" data-paper-data="{&quot;index&quot;:null}" fill="#ffbc86" stroke="#000000" stroke-width="0"/><path d="M299.36925,199.39365c0,7.39475 -2.39422,13.38937 -5.34765,13.38937c-2.95342,0 -5.34765,-5.99463 -5.34765,-13.38937c0,-7.39475 2.39422,-13.38937 5.34765,-13.38937c2.95342,0 5.34765,5.99463 5.34765,13.38937z" data-paper-data="{&quot;index&quot;:null}" fill="#cc986c" stroke="#000000" stroke-width="0"/><path d="M341.42425,140.76694c0,7.39475 -2.39423,13.38937 -5.34765,13.38937c-2.95342,0 -5.34765,-5.99462 -5.34765,-13.38937c0,-7.39475 2.39422,-13.38938 5.34765,-13.38938c2.95342,0 5.34765,5.99463 5.34765,13.38938z" data-paper-data="{&quot;index&quot;:null}" fill="#e6aa7a" stroke="#000000" stroke-width="0"/><path d="M325.34464,160.91953c1.82991,0 3.77352,-0.08421 4.97283,3.47566c1.20078,3.55987 1.94336,8.47511 1.94336,13.90064c0,5.42552 -0.74257,10.34077 -1.94336,13.90064c-1.19931,3.55987 -2.85684,3.76175 -4.68675,3.76175c-1.82991,0 -3.48743,-0.20188 -4.68674,-3.76175c-1.20078,-3.55987 -1.94336,-8.47511 -1.94336,-13.90064c0,-5.42552 0.74257,-10.34077 1.94336,-13.90064c1.19931,-3.55987 2.57075,-3.47566 4.40065,-3.47566z" fill="#31353b" stroke="none" stroke-width="1"/><path d="M359.96134,160.63343c1.82991,0 3.77353,-0.08421 4.97284,3.47566c1.20078,3.55987 1.94336,8.47511 1.94336,13.90064c0,5.42552 -0.74257,10.34077 -1.94336,13.90064c-1.19931,3.55987 -2.85684,3.76174 -4.68675,3.76174c-1.82991,0 -3.48743,-0.20187 -4.68674,-3.76174c-1.20078,-3.55987 -1.94336,-8.47511 -1.94336,-13.90064c0,-5.42552 0.74257,-10.34077 1.94336,-13.90064c1.19931,-3.55987 2.57075,-3.47566 4.40065,-3.47566z" fill="#31353b" stroke="none" stroke-width="1"/><path d="M299.5,334.04394c0,49.09452 -83.94661,88.89349 -187.5,88.89349c-103.55339,0 -187.5,-39.79897 -187.5,-88.89349c0,-49.09452 83.94661,-88.89349 187.5,-88.89349c103.55339,0 187.5,39.79897 187.5,88.89349z" fill="url(#color-6)" stroke="#32885c" stroke-width="1.5"/><path d="M531.5,330.83092c0,49.09452 -83.94661,88.89349 -187.5,88.89349c-103.55339,0 -187.5,-39.79897 -187.5,-88.89349c0,-49.09452 83.94661,-88.89349 187.5,-88.89349c103.55339,0 187.5,39.79897 187.5,88.89349z" fill="url(#color-7)" stroke="#32885c" stroke-width="1.5"/><path d="M23.75,1.93743c0,-0.9665 0.7835,-1.75 1.75,-1.75c0.9665,0 1.75,0.7835 1.75,1.75c0,0.9665 -0.7835,1.75 -1.75,1.75c-0.9665,0 -1.75,-0.7835 -1.75,-1.75z" fill="#729a9d" stroke="none" stroke-width="0.5"/><path d="M53.75,29.93743c0,-0.9665 0.7835,-1.75 1.75,-1.75c0.9665,0 1.75,0.7835 1.75,1.75c0,0.9665 -0.7835,1.75 -1.75,1.75c-0.9665,0 -1.75,-0.7835 -1.75,-1.75z" fill="#729a9d" stroke="none" stroke-width="0.5"/><path d="M100.75,0.93743c0,-0.9665 0.7835,-1.75 1.75,-1.75c0.9665,0 1.75,0.7835 1.75,1.75c0,0.9665 -0.7835,1.75 -1.75,1.75c-0.9665,0 -1.75,-0.7835 -1.75,-1.75z" fill="#729a9d" stroke="none" stroke-width="0.5"/><path d="M130.75,30.93743c0,-0.9665 0.7835,-1.75 1.75,-1.75c0.9665,0 1.75,0.7835 1.75,1.75c0,0.9665 -0.7835,1.75 -1.75,1.75c-0.9665,0 -1.75,-0.7835 -1.75,-1.75z" fill="#729a9d" stroke="none" stroke-width="0.5"/><path d="M196.75,30.93743c0,-0.9665 0.7835,-1.75 1.75,-1.75c0.9665,0 1.75,0.7835 1.75,1.75c0,0.9665 -0.7835,1.75 -1.75,1.75c-0.9665,0 -1.75,-0.7835 -1.75,-1.75z" fill="#729a9d" stroke="none" stroke-width="0.5"/><path d="M160.75,-4.06257c0,-0.9665 0.7835,-1.75 1.75,-1.75c0.9665,0 1.75,0.7835 1.75,1.75c0,0.9665 -0.7835,1.75 -1.75,1.75c-0.9665,0 -1.75,-0.7835 -1.75,-1.75z" fill="#729a9d" stroke="none" stroke-width="0.5"/><path d="M237.75,2.93743c0,-0.9665 0.7835,-1.75 1.75,-1.75c0.9665,0 1.75,0.7835 1.75,1.75c0,0.9665 -0.7835,1.75 -1.75,1.75c-0.9665,0 -1.75,-0.7835 -1.75,-1.75z" fill="#729a9d" stroke="none" stroke-width="0.5"/><path d="M253.75,44.93743c0,-0.9665 0.7835,-1.75 1.75,-1.75c0.9665,0 1.75,0.7835 1.75,1.75c0,0.9665 -0.7835,1.75 -1.75,1.75c-0.9665,0 -1.75,-0.7835 -1.75,-1.75z" fill="#729a9d" stroke="none" stroke-width="0.5"/><path d="M295.75,33.93743c0,-0.9665 0.7835,-1.75 1.75,-1.75c0.9665,0 1.75,0.7835 1.75,1.75c0,0.9665 -0.7835,1.75 -1.75,1.75c-0.9665,0 -1.75,-0.7835 -1.75,-1.75z" fill="#729a9d" stroke="none" stroke-width="0.5"/><path d="M277.75,-4.06257c0,-0.9665 0.7835,-1.75 1.75,-1.75c0.9665,0 1.75,0.7835 1.75,1.75c0,0.9665 -0.7835,1.75 -1.75,1.75c-0.9665,0 -1.75,-0.7835 -1.75,-1.75z" fill="#729a9d" stroke="none" stroke-width="0.5"/><path d="M356.75,24.93743c0,-0.9665 0.7835,-1.75 1.75,-1.75c0.9665,0 1.75,0.7835 1.75,1.75c0,0.9665 -0.7835,1.75 -1.75,1.75c-0.9665,0 -1.75,-0.7835 -1.75,-1.75z" fill="#729a9d" stroke="none" stroke-width="0.5"/><path d="M323.75,0.93743c0,-0.9665 0.7835,-1.75 1.75,-1.75c0.9665,0 1.75,0.7835 1.75,1.75c0,0.9665 -0.7835,1.75 -1.75,1.75c-0.9665,0 -1.75,-0.7835 -1.75,-1.75z" fill="#729a9d" stroke="none" stroke-width="0.5"/><path d="M331.75,76.93743c0,-0.9665 0.7835,-1.75 1.75,-1.75c0.9665,0 1.75,0.7835 1.75,1.75c0,0.9665 -0.7835,1.75 -1.75,1.75c-0.9665,0 -1.75,-0.7835 -1.75,-1.75z" fill="#729a9d" stroke="none" stroke-width="0.5"/><path d="M265.75,75.93743c0,-0.9665 0.7835,-1.75 1.75,-1.75c0.9665,0 1.75,0.7835 1.75,1.75c0,0.9665 -0.7835,1.75 -1.75,1.75c-0.9665,0 -1.75,-0.7835 -1.75,-1.75z" fill="#729a9d" stroke="none" stroke-width="0.5"/><path d="M200.75,77.93743c0,-0.9665 0.7835,-1.75 1.75,-1.75c0.9665,0 1.75,0.7835 1.75,1.75c0,0.9665 -0.7835,1.75 -1.75,1.75c-0.9665,0 -1.75,-0.7835 -1.75,-1.75z" fill="#729a9d" stroke="none" stroke-width="0.5"/><path d="M165.75,47.93743c0,-0.9665 0.7835,-1.75 1.75,-1.75c0.9665,0 1.75,0.7835 1.75,1.75c0,0.9665 -0.7835,1.75 -1.75,1.75c-0.9665,0 -1.75,-0.7835 -1.75,-1.75z" fill="#729a9d" stroke="none" stroke-width="0.5"/><path d="M196.75,-5.06257c0,-0.9665 0.7835,-1.75 1.75,-1.75c0.9665,0 1.75,0.7835 1.75,1.75c0,0.9665 -0.7835,1.75 -1.75,1.75c-0.9665,0 -1.75,-0.7835 -1.75,-1.75z" fill="#729a9d" stroke="none" stroke-width="0.5"/><path d="M369.75,61.93743c0,-0.9665 0.7835,-1.75 1.75,-1.75c0.9665,0 1.75,0.7835 1.75,1.75c0,0.9665 -0.7835,1.75 -1.75,1.75c-0.9665,0 -1.75,-0.7835 -1.75,-1.75z" fill="#729a9d" stroke="none" stroke-width="0.5"/><path d="M434.75,37.93743c0,-0.9665 0.7835,-1.75 1.75,-1.75c0.9665,0 1.75,0.7835 1.75,1.75c0,0.9665 -0.7835,1.75 -1.75,1.75c-0.9665,0 -1.75,-0.7835 -1.75,-1.75z" fill="#729a9d" stroke="none" stroke-width="0.5"/><path d="M392.75,21.93743c0,-0.9665 0.7835,-1.75 1.75,-1.75c0.9665,0 1.75,0.7835 1.75,1.75c0,0.9665 -0.7835,1.75 -1.75,1.75c-0.9665,0 -1.75,-0.7835 -1.75,-1.75z" fill="#729a9d" stroke="none" stroke-width="0.5"/><path d="M367.75,-8.06257c0,-0.9665 0.7835,-1.75 1.75,-1.75c0.9665,0 1.75,0.7835 1.75,1.75c0,0.9665 -0.7835,1.75 -1.75,1.75c-0.9665,0 -1.75,-0.7835 -1.75,-1.75z" fill="#729a9d" stroke="none" stroke-width="0.5"/><path d="M433.75,-0.06257c0,-0.9665 0.7835,-1.75 1.75,-1.75c0.9665,0 1.75,0.7835 1.75,1.75c0,0.9665 -0.7835,1.75 -1.75,1.75c-0.9665,0 -1.75,-0.7835 -1.75,-1.75z" fill="#729a9d" stroke="none" stroke-width="0.5"/><path d="M473.75,48.93743c0,-0.9665 0.7835,-1.75 1.75,-1.75c0.9665,0 1.75,0.7835 1.75,1.75c0,0.9665 -0.7835,1.75 -1.75,1.75c-0.9665,0 -1.75,-0.7835 -1.75,-1.75z" fill="#729a9d" stroke="none" stroke-width="0.5"/><path d="M439.75,97.93743c0,-0.9665 0.7835,-1.75 1.75,-1.75c0.9665,0 1.75,0.7835 1.75,1.75c0,0.9665 -0.7835,1.75 -1.75,1.75c-0.9665,0 -1.75,-0.7835 -1.75,-1.75z" fill="#729a9d" stroke="none" stroke-width="0.5"/><path d="M90.75,40.93743c0,-0.9665 0.7835,-1.75 1.75,-1.75c0.9665,0 1.75,0.7835 1.75,1.75c0,0.9665 -0.7835,1.75 -1.75,1.75c-0.9665,0 -1.75,-0.7835 -1.75,-1.75z" fill="#729a9d" stroke="none" stroke-width="0.5"/><path d="M56.75,-8.06257c0,-0.9665 0.7835,-1.75 1.75,-1.75c0.9665,0 1.75,0.7835 1.75,1.75c0,0.9665 -0.7835,1.75 -1.75,1.75c-0.9665,0 -1.75,-0.7835 -1.75,-1.75z" fill="#729a9d" stroke="none" stroke-width="0.5"/><path d="M468.75,-2.06257c0,-0.9665 0.7835,-1.75 1.75,-1.75c0.9665,0 1.75,0.7835 1.75,1.75c0,0.9665 -0.7835,1.75 -1.75,1.75c-0.9665,0 -1.75,-0.7835 -1.75,-1.75z" fill="#729a9d" stroke="none" stroke-width="0.5"/><path d="M409.75,73.93743c0,-0.9665 0.7835,-1.75 1.75,-1.75c0.9665,0 1.75,0.7835 1.75,1.75c0,0.9665 -0.7835,1.75 -1.75,1.75c-0.9665,0 -1.75,-0.7835 -1.75,-1.75z" fill="#729a9d" stroke="none" stroke-width="0.5"/><path d="M429.75,156.93743c0,-0.9665 0.7835,-1.75 1.75,-1.75c0.9665,0 1.75,0.7835 1.75,1.75c0,0.9665 -0.7835,1.75 -1.75,1.75c-0.9665,0 -1.75,-0.7835 -1.75,-1.75z" fill="#729a9d" stroke="none" stroke-width="0.5"/><path d="M466.75,132.93742c0,-0.9665 0.7835,-1.75 1.75,-1.75c0.9665,0 1.75,0.7835 1.75,1.75c0,0.9665 -0.7835,1.75 -1.75,1.75c-0.9665,0 -1.75,-0.7835 -1.75,-1.75z" fill="#729a9d" stroke="none" stroke-width="0.5"/><path d="M461.75,74.93743c0,-0.9665 0.7835,-1.75 1.75,-1.75c0.9665,0 1.75,0.7835 1.75,1.75c0,0.9665 -0.7835,1.75 -1.75,1.75c-0.9665,0 -1.75,-0.7835 -1.75,-1.75z" fill="#729a9d" stroke="none" stroke-width="0.5"/><path d="M402.75,111.93742c0,-0.9665 0.7835,-1.75 1.75,-1.75c0.9665,0 1.75,0.7835 1.75,1.75c0,0.9665 -0.7835,1.75 -1.75,1.75c-0.9665,0 -1.75,-0.7835 -1.75,-1.75z" fill="#729a9d" stroke="none" stroke-width="0.5"/><path d="M468.75,175.93743c0,-0.9665 0.7835,-1.75 1.75,-1.75c0.9665,0 1.75,0.7835 1.75,1.75c0,0.9665 -0.7835,1.75 -1.75,1.75c-0.9665,0 -1.75,-0.7835 -1.75,-1.75z" fill="#729a9d" stroke="none" stroke-width="0.5"/><path d="M358.75,108.93742c0,-0.9665 0.7835,-1.75 1.75,-1.75c0.9665,0 1.75,0.7835 1.75,1.75c0,0.9665 -0.7835,1.75 -1.75,1.75c-0.9665,0 -1.75,-0.7835 -1.75,-1.75z" fill="#729a9d" stroke="none" stroke-width="0.5"/><path d="M292.75,105.93743c0,-0.9665 0.7835,-1.75 1.75,-1.75c0.9665,0 1.75,0.7835 1.75,1.75c0,0.9665 -0.7835,1.75 -1.75,1.75c-0.9665,0 -1.75,-0.7835 -1.75,-1.75z" fill="#729a9d" stroke="none" stroke-width="0.5"/><path d="M312.75,53.93743c0,-0.9665 0.7835,-1.75 1.75,-1.75c0.9665,0 1.75,0.7835 1.75,1.75c0,0.9665 -0.7835,1.75 -1.75,1.75c-0.9665,0 -1.75,-0.7835 -1.75,-1.75z" fill="#729a9d" stroke="none" stroke-width="0.5"/><path d="M216.75,54.93743c0,-0.9665 0.7835,-1.75 1.75,-1.75c0.9665,0 1.75,0.7835 1.75,1.75c0,0.9665 -0.7835,1.75 -1.75,1.75c-0.9665,0 -1.75,-0.7835 -1.75,-1.75z" fill="#729a9d" stroke="none" stroke-width="0.5"/><path d="M245.75,105.93743c0,-0.9665 0.7835,-1.75 1.75,-1.75c0.9665,0 1.75,0.7835 1.75,1.75c0,0.9665 -0.7835,1.75 -1.75,1.75c-0.9665,0 -1.75,-0.7835 -1.75,-1.75z" fill="#729a9d" stroke="none" stroke-width="0.5"/><path d="M221.75,139.93742c0,-0.9665 0.7835,-1.75 1.75,-1.75c0.9665,0 1.75,0.7835 1.75,1.75c0,0.9665 -0.7835,1.75 -1.75,1.75c-0.9665,0 -1.75,-0.7835 -1.75,-1.75z" fill="#729a9d" stroke="none" stroke-width="0.5"/><path d="M261.75,145.93742c0,-0.9665 0.7835,-1.75 1.75,-1.75c0.9665,0 1.75,0.7835 1.75,1.75c0,0.9665 -0.7835,1.75 -1.75,1.75c-0.9665,0 -1.75,-0.7835 -1.75,-1.75z" fill="#729a9d" stroke="none" stroke-width="0.5"/><path d="M230.75,176.93743c0,-0.9665 0.7835,-1.75 1.75,-1.75c0.9665,0 1.75,0.7835 1.75,1.75c0,0.9665 -0.7835,1.75 -1.75,1.75c-0.9665,0 -1.75,-0.7835 -1.75,-1.75z" fill="#729a9d" stroke="none" stroke-width="0.5"/><path d="M179.75,162.93743c0,-0.9665 0.7835,-1.75 1.75,-1.75c0.9665,0 1.75,0.7835 1.75,1.75c0,0.9665 -0.7835,1.75 -1.75,1.75c-0.9665,0 -1.75,-0.7835 -1.75,-1.75z" fill="#729a9d" stroke="none" stroke-width="0.5"/><path d="M191.75,110.93742c0,-0.9665 0.7835,-1.75 1.75,-1.75c0.9665,0 1.75,0.7835 1.75,1.75c0,0.9665 -0.7835,1.75 -1.75,1.75c-0.9665,0 -1.75,-0.7835 -1.75,-1.75z" fill="#729a9d" stroke="none" stroke-width="0.5"/><path d="M152.75,80.93743c0,-0.9665 0.7835,-1.75 1.75,-1.75c0.9665,0 1.75,0.7835 1.75,1.75c0,0.9665 -0.7835,1.75 -1.75,1.75c-0.9665,0 -1.75,-0.7835 -1.75,-1.75z" fill="#729a9d" stroke="none" stroke-width="0.5"/><path d="M48.75,69.93743c0,-0.9665 0.7835,-1.75 1.75,-1.75c0.9665,0 1.75,0.7835 1.75,1.75c0,0.9665 -0.7835,1.75 -1.75,1.75c-0.9665,0 -1.75,-0.7835 -1.75,-1.75z" fill="#729a9d" stroke="none" stroke-width="0.5"/><path d="M16.75,46.93743c0,-0.9665 0.7835,-1.75 1.75,-1.75c0.9665,0 1.75,0.7835 1.75,1.75c0,0.9665 -0.7835,1.75 -1.75,1.75c-0.9665,0 -1.75,-0.7835 -1.75,-1.75z" fill="#729a9d" stroke="none" stroke-width="0.5"/><path d="M9.75,113.93742c0,-0.9665 0.7835,-1.75 1.75,-1.75c0.9665,0 1.75,0.7835 1.75,1.75c0,0.9665 -0.7835,1.75 -1.75,1.75c-0.9665,0 -1.75,-0.7835 -1.75,-1.75z" fill="#729a9d" stroke="none" stroke-width="0.5"/><path d="M10.75,80.93743c0,-0.9665 0.7835,-1.75 1.75,-1.75c0.9665,0 1.75,0.7835 1.75,1.75c0,0.9665 -0.7835,1.75 -1.75,1.75c-0.9665,0 -1.75,-0.7835 -1.75,-1.75z" fill="#729a9d" stroke="none" stroke-width="0.5"/><path d="M30.75,144.93742c0,-0.9665 0.7835,-1.75 1.75,-1.75c0.9665,0 1.75,0.7835 1.75,1.75c0,0.9665 -0.7835,1.75 -1.75,1.75c-0.9665,0 -1.75,-0.7835 -1.75,-1.75z" fill="#729a9d" stroke="none" stroke-width="0.5"/><path d="M6.75,178.93743c0,-0.9665 0.7835,-1.75 1.75,-1.75c0.9665,0 1.75,0.7835 1.75,1.75c0,0.9665 -0.7835,1.75 -1.75,1.75c-0.9665,0 -1.75,-0.7835 -1.75,-1.75z" fill="#729a9d" stroke="none" stroke-width="0.5"/></g></g></svg>