<svg version="1.1" xmlns="http://www.w3.org/2000/svg" xmlns:xlink="http://www.w3.org/1999/xlink" width="157.13652" height="41.98038" viewBox="0,0,157.13652,41.98038"><defs><linearGradient x1="319.08373" y1="159.00981" x2="319.08373" y2="200.97887" gradientUnits="userSpaceOnUse" id="color-1"><stop offset="0" stop-color="#8741c4"/><stop offset="1" stop-color="#3b3bed"/></linearGradient><linearGradient x1="203.91627" y1="159.00981" x2="203.91627" y2="200.97887" gradientUnits="userSpaceOnUse" id="color-2"><stop offset="0" stop-color="#8741c4"/><stop offset="1" stop-color="#3b3bed"/></linearGradient><linearGradient x1="261.12989" y1="159.02711" x2="261.12989" y2="200.99019" gradientUnits="userSpaceOnUse" id="color-3"><stop offset="0" stop-color="#8741c4"/><stop offset="1" stop-color="#3b3bed"/></linearGradient><linearGradient x1="318.39109" y1="163.03375" x2="318.39109" y2="197.08901" gradientUnits="userSpaceOnUse" id="color-4"><stop offset="0" stop-color="#8741c4"/><stop offset="1" stop-color="#3b3bed"/></linearGradient></defs><g transform="translate(-182.93174,-159.00981)"><g data-paper-data="{&quot;isPaintingLayer&quot;:true}" fill-rule="nonzero" stroke-linecap="butt" stroke-linejoin="miter" stroke-miterlimit="10" stroke-dasharray="" stroke-dashoffset="0" style="mix-blend-mode: normal"><g data-paper-data="{&quot;index&quot;:null}" stroke="#000000" stroke-width="0"><path d="M319.08373,200.97887c-11.58944,0 -20.98453,-9.39509 -20.98453,-20.98453c0,-11.58944 9.39509,-20.98453 20.98453,-20.98453c11.58944,0 20.98453,9.39509 20.98453,20.98453c0,11.58944 -9.39509,20.98453 -20.98453,20.98453z" data-paper-data="{&quot;origPos&quot;:null,&quot;index&quot;:null}" fill="url(#color-1)"/><path d="M203.91627,200.97887c-11.58944,0 -20.98453,-9.3951 -20.98453,-20.98453c0,-11.58944 9.3951,-20.98453 20.98453,-20.98453c11.58944,0 20.98453,9.3951 20.98453,20.98453c0,11.58944 -9.3951,20.98453 -20.98453,20.98453z" data-paper-data="{&quot;origPos&quot;:null,&quot;index&quot;:null}" fill="url(#color-2)"/><path d="M203.67785,200.99019v-41.96308h114.90408v41.96308z" data-paper-data="{&quot;origPos&quot;:null,&quot;index&quot;:null}" fill="url(#color-3)"/></g><g><path d="M318.39109,163.03375c4.69771,0 8.95515,1.90752 12.0371,4.99053c3.08301,3.08195 4.99053,7.33939 4.99053,12.0371c0,4.69771 -1.90752,8.95515 -4.99053,12.0371c-3.08195,3.08301 -7.33939,4.99053 -12.0371,4.99053c-4.69771,0 -8.95515,-1.90752 -12.0371,-4.99053c-3.08301,-3.08195 -4.99053,-7.33939 -4.99053,-12.0371c0,-4.69771 1.90752,-8.95515 4.99053,-12.0371c3.08195,-3.08301 7.33939,-4.99053 12.0371,-4.99053z" data-paper-data="{&quot;origPos&quot;:null}" fill="url(#color-4)" stroke="#2c2470" stroke-width="1.25"/><g data-paper-data="{&quot;origPos&quot;:null}" fill="none" stroke="none" stroke-width="1" font-family="sans-serif" font-weight="normal" font-size="12" text-anchor="start"/><g fill="none" stroke="none" stroke-width="1" font-family="sans-serif" font-weight="normal" font-size="12" text-anchor="start"/></g><text transform="translate(204.3495,188.04448) scale(0.58704,0.58704)" font-size="40" xml:space="preserve" data-paper-data="{&quot;index&quot;:null}" fill="#f7f7f7" fill-rule="nonzero" stroke="none" stroke-width="1" stroke-linecap="butt" stroke-linejoin="miter" stroke-miterlimit="10" stroke-dasharray="" stroke-dashoffset="0" font-family="&quot;Microsoft YaHei&quot;, &quot;微软雅黑&quot;, STXihei, &quot;华文细黑&quot;" font-weight="normal" text-anchor="start" style="mix-blend-mode: normal"><tspan x="0" dy="0">Credits</tspan></text><g fill="#ededed" stroke="#2b2866" stroke-width="1.25"><path d="M330.5,184.37354c0,2.79465 -1.031,4.2851 -1.031,4.2851l-5.52987,-0.03387c0,0 -1.01179,-1.8519 -1.01179,-4.25123c0,-3.45037 1.6952,-6.24745 3.78633,-6.24745c2.09114,0 3.78633,2.79708 3.78633,6.24745z"/><path d="M323.6846,174.52907c0,-1.67291 1.35616,-3.02907 3.02907,-3.02907c1.67291,0 3.02907,1.35616 3.02907,3.02907c0,1.67291 -1.35616,3.02907 -3.02907,3.02907c-1.67291,0 -3.02907,-1.35616 -3.02907,-3.02907z"/></g><g fill="#ededed" stroke="#2b2866" stroke-width="1.25"><path d="M314.5,184.37354c0,2.79465 -1.031,4.2851 -1.031,4.2851l-5.52987,-0.03387c0,0 -1.0118,-1.8519 -1.0118,-4.25123c0,-3.45038 1.6952,-6.24746 3.78634,-6.24746c2.09114,0 3.78634,2.79708 3.78634,6.24746z"/><path d="M307.6846,174.52908c0,-1.67291 1.35616,-3.02907 3.02907,-3.02907c1.67291,0 3.02907,1.35616 3.02907,3.02907c0,1.67291 -1.35616,3.02907 -3.02907,3.02907c-1.67291,0 -3.02907,-1.35616 -3.02907,-3.02907z"/></g><g fill="#ededed" stroke="#2b2866" stroke-width="1.25"><path d="M323.5,186c0,3.69045 -1.36148,5.65864 -1.36148,5.65864l-7.30241,-0.04473c0,0 -1.33611,-2.4455 -1.33611,-5.61392c0,-4.55635 2.23857,-8.25 5,-8.25c2.76143,0 5,3.69365 5,8.25z"/><path d="M314.5,173c0,-2.20914 1.79086,-4 4,-4c2.20914,0 4,1.79086 4,4c0,2.20914 -1.79086,4 -4,4c-2.20914,0 -4,-1.79086 -4,-4z"/></g></g></g></svg>