<svg version="1.1" xmlns="http://www.w3.org/2000/svg" xmlns:xlink="http://www.w3.org/1999/xlink" width="127.64723" height="150.05" viewBox="0,0,127.64723,150.05"><defs><linearGradient x1="215.4448" y1="121.69791" x2="215.4448" y2="144.68491" gradientUnits="userSpaceOnUse" id="color-1"><stop offset="0" stop-color="#000000"/><stop offset="1" stop-color="#000000" stop-opacity="0"/></linearGradient></defs><g transform="translate(-211.1388,-120.85)"><g data-paper-data="{&quot;isPaintingLayer&quot;:true}" fill-rule="nonzero" stroke="none" stroke-linecap="butt" stroke-linejoin="miter" stroke-miterlimit="10" stroke-dasharray="" stroke-dashoffset="0" style="mix-blend-mode: normal"><path d="M214.78602,208.90001c0,-1.50252 22.5045,-2.40645 48.33903,-2.65874c0.34913,-0.00341 1.81149,10.32065 14.32806,10.65129c12.88041,0.34026 13.49123,-10.67488 13.99479,-10.67061c25.55341,0.21646 47.33813,1.09192 47.33813,2.67806c0,34.24166 -27.75835,62 -62,62c-34.24166,0 -62,-27.75834 -62,-62z" fill="#848484" stroke-width="0"/><path d="M215.4806,137.10001h48.3582v74.25h-48.3582z" fill="#848484" stroke-width="1.18415"/><path d="M220.4955,138.63887h6.3806v72.71114c0,0 -1.58963,18 -2.75675,18c-0.8734,0 -3.62385,-18 -3.62385,-18z" fill="#c2c2c2" stroke-width="1.18415"/><path d="M215.4448,121.69791h48.3582v22.987h-48.3582z" fill="url(#color-1)" stroke-width="2.30239"/><path d="M211.1388,120.85001h57.75v17.25h-57.75z" fill="#848484" stroke-width="1.07722"/><path d="M216.2866,120.85001h6.0447v17.25h-6.0447z" fill="#c2c2c2" stroke-width="1.18415"/></g></g></svg>