<svg version="1.1" xmlns="http://www.w3.org/2000/svg" xmlns:xlink="http://www.w3.org/1999/xlink" width="40.98061" height="40.98982" viewBox="0,0,40.98061,40.98982"><g transform="translate(-219.50976,-159.47635)"><g data-paper-data="{&quot;isPaintingLayer&quot;:true}" fill-rule="nonzero" stroke-linecap="butt" stroke-linejoin="miter" stroke-miterlimit="10" stroke-dasharray="" stroke-dashoffset="0" style="mix-blend-mode: normal"><path d="M221.63521,197.92636c-1.89392,-1.96637 -2.12544,-6.26422 -2.12544,-6.26422v-23.43616c0,0 0.0283,-4.10183 2.21457,-6.42753c2.08577,-2.21879 7.19294,-2.3221 7.19294,-2.3221h22.77104c0,0 4.26759,0.15457 6.27146,2.02423c2.61533,2.44016 2.53028,5.87386 2.53028,5.87386v25.27091c0,0 -0.10478,3.4944 -2.32786,5.78707c-2.2215,2.29104 -6.17025,2.02423 -6.17025,2.02423h-24.11418c0,0 -3.8523,-0.04859 -6.24256,-2.53029z" fill="#797979" stroke="none" stroke-width="0"/><path d="M225.625,180c0,-7.93909 6.43591,-14.375 14.375,-14.375c7.93909,0 14.375,6.43591 14.375,14.375c0,7.93909 -6.43591,14.375 -14.375,14.375c-7.93909,0 -14.375,-6.43591 -14.375,-14.375z" fill="#171717" stroke="#9c9c9c" stroke-width="9.5"/></g></g></svg>