<svg version="1.1" xmlns="http://www.w3.org/2000/svg" xmlns:xlink="http://www.w3.org/1999/xlink" width="243.75" height="335" viewBox="0,0,243.75,335"><defs><linearGradient x1="230.125" y1="25.5" x2="250.125" y2="25.5" gradientUnits="userSpaceOnUse" id="color-1"><stop offset="0" stop-color="#fff838"/><stop offset="1" stop-color="#e38100"/></linearGradient><radialGradient cx="235.60001" cy="-134.10001" r="23" gradientUnits="userSpaceOnUse" id="color-2"><stop offset="0" stop-color="#fff838"/><stop offset="1" stop-color="#e38100"/></radialGradient></defs><g transform="translate(-211.125,154)"><g data-paper-data="{&quot;isPaintingLayer&quot;:true}" fill-rule="nonzero" stroke-linejoin="miter" stroke-miterlimit="10" stroke-dasharray="" stroke-dashoffset="0" style="mix-blend-mode: normal"><path d="M238.375,69.5v-184l216.5,92z" fill="#ff0021" stroke="#000000" stroke-width="0" stroke-linecap="butt"/><path d="M280.625,-23.5c0,-22.64367 18.35633,-41 41,-41c22.64367,0 41,18.35633 41,41c0,22.64367 -18.35633,41 -41,41c-22.64367,0 -41,-18.35633 -41,-41z" fill="#ffffff" stroke="none" stroke-width="0" stroke-linecap="butt"/><path d="M322.62501,-34.95253l15.57543,-18.09497l19.01118,40.0838l-12.36872,10.53631l-10.30727,-29.54748l-11.91062,14.20111l-11.91061,-14.43017l-10.53632,29.54749l-12.13967,-10.07821l19.01117,-39.85474z" fill="#ff0021" stroke="#000000" stroke-width="0" stroke-linecap="round"/><g data-paper-data="{&quot;origPos&quot;:null}" stroke="none" stroke-linecap="butt"><path d="M230.125,160v-274h20v274z" data-paper-data="{&quot;origPos&quot;:null}" fill="url(#color-1)" stroke-width="NaN"/><path d="M241.125,-108c-12.70255,0 -23,-10.29745 -23,-23c0,-12.70255 10.29745,-23 23,-23c12.70255,0 23,10.29745 23,23c0,12.70255 -10.29745,23 -23,23z" data-paper-data="{&quot;origPos&quot;:null,&quot;index&quot;:null}" fill="url(#color-2)" stroke-width="0"/><path d="M211.125,181v-28h59v28z" data-paper-data="{&quot;origPos&quot;:null}" fill="#aaafb7" stroke-width="0"/></g></g></g></svg>