<svg version="1.1" xmlns="http://www.w3.org/2000/svg" xmlns:xlink="http://www.w3.org/1999/xlink" width="62.92138" height="94.89022" viewBox="0,0,62.92138,94.89022"><defs><radialGradient cx="230.37166" cy="179.99994" r="51.53287" gradientUnits="userSpaceOnUse" id="color-1"><stop offset="0" stop-color="#6fc9ff" stop-opacity="0"/><stop offset="1" stop-color="#6fc9ff"/></radialGradient><linearGradient x1="201.6363" y1="134.65188" x2="201.6363" y2="225.34812" gradientUnits="userSpaceOnUse" id="color-2"><stop offset="0" stop-color="#6fc9ff"/><stop offset="1" stop-color="#4395ff"/></linearGradient></defs><g transform="translate(-199.53931,-132.55489)"><g data-paper-data="{&quot;isPaintingLayer&quot;:true}" fill="none" fill-rule="nonzero" stroke="none" stroke-width="none" stroke-linecap="none" stroke-linejoin="miter" stroke-miterlimit="10" stroke-dasharray="" stroke-dashoffset="0" font-family="none" font-weight="none" font-size="none" text-anchor="none" style="mix-blend-mode: normal"><g data-paper-data="{&quot;origPos&quot;:null}" stroke-linecap="round"><path d="M241.3982,182.42964c-0.92205,-0.03725 -3.4433,0.34336 -8.00006,-0.92925c-4.55676,-1.27261 -6.62746,-2.13816 -7.89325,-3.37519c-1.2658,-1.23703 -2.73199,-5.50084 -2.99069,-6.66495c-0.2587,-1.1641 -0.83785,-3.53104 -1.11082,-5.83181c-0.27297,-2.30078 -0.11621,-1.44954 0.13885,-2.3605c0.25506,-0.91096 0.3855,-0.7751 0.83311,-1.11081c0.44761,-0.33571 0.49022,-0.18172 0.83311,-0.13886c0.34289,0.04285 0.89493,0.1389 1.38854,0.41657c0.49361,0.27765 0.5872,0.43965 0.83311,0.83311c0.26706,0.42728 0.55542,1.38854 0.55542,1.38854c0,0 0.75599,-1.73524 1.38853,-2.77707c0.63254,-1.04182 1.46528,-1.08751 1.80509,-1.01469c0.33981,0.07282 1.10965,0.05461 1.39921,0.41655c0.28956,0.36196 0.47859,0.80689 0.65154,1.47397c0.17296,0.66709 0.70495,2.27506 0.70495,2.27506c0,0 0.35718,-0.93828 0.73698,-1.66623c0.3798,-0.72795 1.10953,-1.45249 1.55942,-1.33513c0.44991,0.11737 1.21266,-0.00991 1.89054,0.54472c0.67787,0.55463 0.70189,0.95245 0.97197,1.66624c0.27008,0.71379 0.57962,2.11994 0.97196,3.47131c0.39234,1.35137 1.63418,3.46659 2.58481,5.32982c0.95063,1.86323 1.95331,2.00905 2.4139,2.58481c0.46059,0.57574 0.57763,0.96641 0.69426,1.66624c0.11663,0.69982 -0.03904,1.0174 -0.13885,1.66623c-0.09981,0.64882 0.00177,1.29032 -0.41657,1.94395c-0.41833,0.65363 -0.88303,1.56463 -1.80508,1.52738z" data-paper-data="{&quot;origPos&quot;:null}" fill="#ffffff" stroke="#000000" stroke-width="0"/><path d="M232.03668,176.67049c-0.58605,0.06185 -1.48833,-1.81038 -2.11484,-2.78774c-0.62651,-0.97736 -0.64993,-2.56629 -1.05741,-3.6529" data-paper-data="{&quot;origPos&quot;:null}" fill="none" stroke="#e5e5e5" stroke-width="1"/><path d="M235.32108,175.42081c-0.58606,0.06185 -1.48833,-1.81038 -2.11484,-2.78774c-0.62651,-0.97736 -0.64993,-2.56629 -1.05741,-3.6529" data-paper-data="{&quot;origPos&quot;:null}" fill="none" stroke="#e6e6e6" stroke-width="1"/><path d="M238.66957,174.3634c-0.58606,0.06185 -1.48833,-1.81038 -2.11484,-2.78774c-0.62651,-0.97736 -0.64993,-2.56629 -1.05741,-3.6529" data-paper-data="{&quot;origPos&quot;:null}" fill="none" stroke="#e4e4e4" stroke-width="1"/></g><g data-paper-data="{&quot;origPos&quot;:null}" stroke-width="0"><path d="M240.24399,214.87783v-16.48011h6.5608v16.48011z" data-paper-data="{&quot;origPos&quot;:null}" fill="#fff12e" stroke="none" stroke-linecap="butt"/><path d="M248.17273,210.88011c0.41166,0.14944 0.71655,0.61519 0.3749,1.24968c-0.34165,0.63449 -1.03215,0.55812 -1.15595,1.21843c-0.12382,0.66032 0.01431,0.52916 0.43739,0.65608c0.42308,0.12692 0.49472,-0.61969 0.87477,-0.99974c0.38005,-0.38005 0.32182,-0.40068 1.09347,-0.5936c0.77165,-0.19291 1.63849,-0.10272 2.53059,0.06248c0.89211,0.16521 1.31059,0.80092 1.68706,1.03098c0.37648,0.23007 0.42648,0.47444 0.62484,0.93726c0.19836,0.46282 0.24824,0.70417 0.31242,1.24968c0.06418,0.54551 0.06237,0.84458 0,1.40589c-0.06237,0.5613 -0.05135,0.85113 -0.31242,1.40589c-0.26107,0.55476 -0.15596,0.46839 -0.93726,1.24968c-0.7813,0.78129 -0.31442,0.51093 -3.71779,0.78105c-3.40337,0.27012 -5.33286,0.05812 -6.12341,0c-0.79056,-0.05812 -2.45701,-0.55056 -2.96798,-1.09347c-0.51097,-0.54291 -1.30013,-1.42654 -1.40589,-2.34314c-0.10576,-0.9166 0.10551,-3.26828 0.31242,-4.06145c0.20691,-0.79317 -0.81408,-0.96356 -0.43739,-1.43713c0.3767,-0.47356 1.86617,-1.10805 2.62432,-1.31216c0.75815,-0.20411 1.51594,-0.25461 3.18667,-0.06248c1.67073,0.19213 2.58757,0.50664 2.99922,0.65608z" data-paper-data="{&quot;origPos&quot;:null}" fill="#f34135" stroke="#000000" stroke-linecap="round"/><path d="M242.82145,221.20431v-0.87477h9.99741v0.87477z" data-paper-data="{&quot;origPos&quot;:null}" fill="#ede3a3" stroke="none" stroke-linecap="butt"/></g><g data-paper-data="{&quot;origPos&quot;:null}" stroke-width="0"><path d="M230.48089,214.95593v-16.48011h6.5608v16.48011z" data-paper-data="{&quot;origPos&quot;:null}" fill="#fff12e" stroke="none" stroke-linecap="butt"/><path d="M238.73768,210.88011c0.41166,0.14944 0.71655,0.61519 0.3749,1.24968c-0.34165,0.63449 -1.03215,0.55812 -1.15595,1.21843c-0.12381,0.66032 0.01431,0.52916 0.43739,0.65608c0.42308,0.12692 0.49472,-0.61969 0.87477,-0.99974c0.38005,-0.38005 0.32182,-0.40068 1.09347,-0.5936c0.77165,-0.19291 1.63849,-0.10272 2.53059,0.06248c0.89211,0.16521 1.3106,0.80092 1.68706,1.03098c0.37646,0.23007 0.42648,0.47444 0.62484,0.93726c0.19836,0.46282 0.24824,0.70417 0.31242,1.24968c0.06418,0.54551 0.06236,0.84458 0,1.40589c-0.06236,0.5613 -0.05136,0.85113 -0.31242,1.40589c-0.26106,0.55476 -0.15597,0.46839 -0.93726,1.24968c-0.78129,0.78129 -0.31442,0.51093 -3.71779,0.78105c-3.40337,0.27012 -5.33286,0.05812 -6.12341,0c-0.79056,-0.05812 -2.45701,-0.55056 -2.96798,-1.09347c-0.51097,-0.54291 -1.30013,-1.42654 -1.40589,-2.34314c-0.10576,-0.9166 0.10551,-3.26828 0.31242,-4.06145c0.20691,-0.79317 -0.81408,-0.96356 -0.43739,-1.43713c0.3767,-0.47356 1.86617,-1.10805 2.62432,-1.31216c0.75815,-0.20411 1.51594,-0.25461 3.18667,-0.06248c1.67073,0.19213 2.58757,0.50664 2.99922,0.65608z" data-paper-data="{&quot;origPos&quot;:null}" fill="#f34135" stroke="#000000" stroke-linecap="round"/><path d="M233.38639,221.20431v-0.87477h9.99741v0.87477z" data-paper-data="{&quot;origPos&quot;:null}" fill="#ede3a3" stroke="none" stroke-linecap="butt"/></g><g data-paper-data="{&quot;origPos&quot;:null}"><path d="M246.85305,181.50694l1.44937,0.78l1.16562,1.57284l2.43132,4.85977l1.23997,-0.1793l1.32409,0.6246l1.4162,1.88361l1.06429,2.7827l-0.33289,0.98631l-1.20188,0.35373l-0.87519,1.01334l-1.88051,0.59325l-1.08767,0.87697l-1.49051,-0.13145l-1.22582,-1.01151l-0.85668,-3.9244l0.34395,-1.35419l-2.20778,-5.09131l-0.56005,-2.98414l0.22663,-1.05449z" data-paper-data="{&quot;origPos&quot;:null}" fill="#fff12e" stroke="#000000" stroke-width="0" stroke-linecap="round"/><path d="M252.77222,196.59097c-0.42924,0.36579 -0.80337,-0.03627 -0.80337,-0.03627l-0.01243,-0.1148c-0.47117,-0.28559 -0.72602,-0.56579 -1.02091,-1.00541c0,0 -0.30405,-0.45328 0.17738,-0.75325c0.48144,-0.29997 0.78548,0.15332 0.78548,0.15332c0.24387,0.36357 0.33724,0.47448 0.68297,0.68404l0.24599,0.3045c0,0 0.37413,0.40206 -0.05511,0.76785z" data-paper-data="{&quot;origPos&quot;:null}" fill="#98901b" stroke="none" stroke-width="0.5" stroke-linecap="butt"/><path d="M255.09249,195.08259c-0.4314,0.35591 -0.8017,-0.02856 -0.8017,-0.02856l-0.0115,-0.11053c-0.46808,-0.27147 -0.72029,-0.53946 -1.01116,-0.96075c0,0 -0.29992,-0.4344 0.18307,-0.72727c0.48297,-0.29287 0.7829,0.14153 0.7829,0.14153c0.24055,0.34842 0.33289,0.45453 0.67636,0.65374l0.24315,0.29149c0,0 0.37029,0.38448 -0.06111,0.74036z" data-paper-data="{&quot;origPos&quot;:null}" fill="#98901b" stroke="none" stroke-width="0.5" stroke-linecap="butt"/></g><g data-paper-data="{&quot;origPos&quot;:null}"><path d="M247.20445,176.46449c0,2.41562 -3.35699,4.37387 -7.49806,4.37387c-4.14106,0 -7.49806,-1.95824 -7.49806,-4.37387c0,-2.41562 3.35699,-4.37387 7.49806,-4.37387c4.14106,0 7.49806,1.95824 7.49806,4.37387z" data-paper-data="{&quot;origPos&quot;:null}" fill="#ede3a3" stroke="none" stroke-width="0" stroke-linecap="butt"/><path d="M225.60291,191.7284c0,-8.47932 5.63495,-15.35316 12.58601,-15.35316c6.95107,0 12.58603,6.87384 12.58603,15.35316c0,8.47932 -5.63495,15.35317 -12.58603,15.35317c-6.95107,0 -12.58601,-6.87384 -12.58601,-15.35317z" data-paper-data="{&quot;origPos&quot;:null}" fill="#ede3a3" stroke="#00beff" stroke-width="0" stroke-linecap="butt"/><path d="M248.2756,185.3015l-16.78136,-0.36481" data-paper-data="{&quot;origPos&quot;:null}" fill="none" stroke="#e1c69b" stroke-width="1" stroke-linecap="round"/><path d="M249.52528,192.79955l-16.78136,-0.36481" data-paper-data="{&quot;origPos&quot;:null}" fill="none" stroke="#e1c69b" stroke-width="1" stroke-linecap="round"/><path d="M230.12555,200.6469l16.78136,0.36481" data-paper-data="{&quot;origPos&quot;:null}" fill="none" stroke="#e1c69b" stroke-width="1" stroke-linecap="round"/><path d="M240.28708,188.92501c-3.44791,-0.36156 -4.03617,-5.64058 -1.38748,-7.42022c4.44112,-2.31555 7.3173,4.89767 2.79258,6.95346c0,0 -0.29861,0.13568 -0.6228,0.06986l0.10951,0.29039c0,0 -0.44755,0.30071 -0.89182,0.10651zM240.52115,187.07436c0.16682,-0.21876 0.39565,-0.32272 0.39565,-0.32272c1.72045,-0.78167 1.82756,-2.85037 0.11008,-4.04142c-0.31149,-0.21602 -1.13023,-0.02547 -1.08186,0.35051c-1.94313,1.30557 -0.20507,3.93848 0.57221,4.00325z" data-paper-data="{&quot;origPos&quot;:null,&quot;origRot&quot;:0}" fill="#bdaa82" stroke="none" stroke-width="0.5" stroke-linecap="butt"/></g><g data-paper-data="{&quot;origPos&quot;:null}"><path d="M240.72378,182.33046l1.24968,1.07116l0.80335,1.78525l1.33894,5.2665l1.24968,0.08926l1.16041,0.89262l0.9819,2.14231l0.44632,2.94567l-0.53557,0.89262l-1.24968,0.08926l-1.07116,0.80337l-1.96378,0.17853l-1.24968,0.62484l-1.42819,-0.44631l-0.9819,-1.24968v-4.01681l0.62484,-1.24968l-1.07116,-5.44503l0.08926,-3.03493l0.44631,-0.9819z" data-paper-data="{&quot;origPos&quot;:null}" fill="#fff12e" stroke="#000000" stroke-width="0" stroke-linecap="round"/><path d="M243.28977,198.32984c-0.49738,0.26583 -0.77715,-0.20676 -0.77715,-0.20676l0.01233,-0.11481c-0.39941,-0.3795 -0.58866,-0.70762 -0.783,-1.20001c0,0 -0.20037,-0.50771 0.33395,-0.69809c0.53434,-0.19039 0.73471,0.31732 0.73471,0.31732c0.16072,0.40722 0.22829,0.53549 0.52138,0.81396l0.17538,0.34996c0,0 0.27978,0.47259 -0.21761,0.73842z" data-paper-data="{&quot;origPos&quot;:null}" fill="#98901b" stroke="none" stroke-width="0.5" stroke-linecap="butt"/><path d="M245.87838,197.35103c-0.49738,0.25571 -0.77716,-0.19889 -0.77716,-0.19889l0.01233,-0.11043c-0.39941,-0.36506 -0.58866,-0.68066 -0.783,-1.1543c0,0 -0.20037,-0.48837 0.33396,-0.6715c0.53432,-0.18314 0.7347,0.30523 0.7347,0.30523c0.16071,0.39171 0.22829,0.51508 0.52138,0.78296l0.17538,0.33664c0,0 0.27978,0.45459 -0.21761,0.71029z" data-paper-data="{&quot;origPos&quot;:null}" fill="#98901b" stroke="none" stroke-width="0.5" stroke-linecap="butt"/></g><g data-paper-data="{&quot;origPos&quot;:null}"><path d="M239.64688,173.16177c3.45089,0 6.24838,0.83925 6.24838,1.87451c0,1.03527 -2.79749,1.87451 -6.24838,1.87451c-3.45089,0 -6.24838,-0.83925 -6.24838,-1.87451c0,-1.03527 2.79749,-1.87451 6.24838,-1.87451z" data-paper-data="{&quot;origPos&quot;:null}" fill="#fff12e" stroke="none" stroke-width="0" stroke-linecap="butt"/><path d="M235.4813,173.78662v-6.04011h7.91462v6.04011z" data-paper-data="{&quot;origPos&quot;:null}" fill="#fff12e" stroke="none" stroke-width="0" stroke-linecap="butt"/><path d="M238.18893,173.57834c-6.32662,0 -11.45536,-5.31525 -11.45536,-11.87192c0,-6.55668 5.12873,-11.87192 11.45536,-11.87192c6.32662,0 11.45537,5.31525 11.45537,11.87192c0,6.55668 -5.12875,11.87192 -11.45537,11.87192z" data-paper-data="{&quot;origPos&quot;:null}" fill="#fff12e" stroke="none" stroke-width="0" stroke-linecap="butt"/><path d="M244.22904,150.87589c7.59195,0 12.28848,6.26339 12.28848,12.70505c0,6.44166 1.76013,9.99741 -5.83181,9.99741c-3.03533,0 -4.76108,-2.58925 -7.73058,-3.21797c-2.29464,-0.48582 -6.1856,-0.13886 -6.57592,-2.45166c-0.05135,-0.30425 0.2579,-17.03282 7.84984,-17.03282z" data-paper-data="{&quot;origPos&quot;:null}" fill="#fff12e" stroke="#9966ff" stroke-width="0" stroke-linecap="butt"/><path d="M236.5227,168.99619l7.96435,1.04141l2.65479,1.24968l2.0859,1.87451" data-paper-data="{&quot;origPos&quot;:null}" fill="none" stroke="#98901b" stroke-width="1.5" stroke-linecap="round"/><path d="M249.41695,157.17199c-0.88853,-0.05134 -1.06444,-0.70678 -1.06444,-0.70678l-0.15698,-0.2287c-0.10751,-0.52047 -0.21504,-1.04096 -0.32255,-1.56142c0,0 -0.13477,-0.65239 0.76093,-0.5709c0.89569,0.08149 1.03046,0.73388 1.03046,0.73388c0.10751,0.52047 0.21504,1.04096 0.32255,1.56142l0.14264,0.16838c0,0 0.17592,0.65546 -0.7126,0.60412z" data-paper-data="{&quot;origPos&quot;:null,&quot;origRot&quot;:0}" fill="#98901b" stroke="#98901b" stroke-width="0" stroke-linecap="butt"/><path d="M244.83481,157.70757c-0.88853,-0.05134 -1.06444,-0.70678 -1.06444,-0.70678l-0.15698,-0.2287c-0.10751,-0.52047 -0.21504,-1.04096 -0.32255,-1.56143c0,0 -0.13477,-0.65239 0.76093,-0.57089c0.89569,0.08149 1.03045,0.73388 1.03045,0.73388c0.10751,0.52047 0.21504,1.04096 0.32255,1.56143l0.14265,0.16837c0,0 0.17592,0.65546 -0.7126,0.60412z" data-paper-data="{&quot;origPos&quot;:null,&quot;origRot&quot;:0}" fill="#98901b" stroke="#98901b" stroke-width="0" stroke-linecap="butt"/><path d="M231.88505,162.67164l1.24968,0.99974l1.49961,1.74955l0.83311,2.08279l0.33325,1.83285l-0.16662,1.24968l-0.41657,0.6665" data-paper-data="{&quot;origPos&quot;:null}" fill="none" stroke="#eade2c" stroke-width="1" stroke-linecap="round"/><g data-paper-data="{&quot;origPos&quot;:null}" stroke="none" stroke-width="0" stroke-linecap="butt"><path d="M246.49143,145.87718c0,3.91101 0.31898,7.0815 -2.55126,7.0815c-1.14994,0 -5.59702,0.75627 -6.51035,-0.01377c-1.92441,-1.62249 -1.33243,-4.3974 -1.33243,-7.06773c0,-3.91101 2.32678,-7.08149 5.19703,-7.08149c2.87024,0 5.19703,3.17049 5.19703,7.08149z" data-paper-data="{&quot;origPos&quot;:null}" fill="#fff12e"/><path d="M247.35322,146.50202c0,3.33586 -2.33125,6.04011 -5.20699,6.04011c-2.87574,0 -5.20699,-2.70425 -5.20699,-6.04011c0,-3.33586 2.33125,-6.0401 5.20699,-6.0401c2.87574,0 5.20699,2.70424 5.20699,6.0401z" data-paper-data="{&quot;origPos&quot;:null}" fill="#ffffff"/><path d="M246.93667,147.54342c0,1.26532 -0.69937,2.29108 -1.5621,2.29108c-0.86273,0 -1.5621,-1.02576 -1.5621,-2.29108c0,-1.26532 0.69937,-2.29108 1.5621,-2.29108c0.86273,0 1.5621,1.02576 1.5621,2.29108z" data-paper-data="{&quot;origPos&quot;:null}" fill="#000000"/><path d="M239.40993,146.08546c0,3.91101 0.31897,7.0815 -2.55128,7.0815c-1.14994,0 -5.59702,0.75627 -6.51035,-0.01377c-1.92441,-1.62249 -1.33243,-4.3974 -1.33243,-7.06773c0,-3.91101 2.32678,-7.08149 5.19702,-7.08149c2.87024,0 5.19704,3.17049 5.19704,7.08149z" data-paper-data="{&quot;origPos&quot;:null}" fill="#fff12e"/><path d="M240.27173,146.7103c0,3.33586 -2.33126,6.04011 -5.20699,6.04011c-2.87574,0 -5.20698,-2.70425 -5.20698,-6.04011c0,-3.33586 2.33125,-6.0401 5.20698,-6.0401c2.87574,0 5.20699,2.70424 5.20699,6.0401z" data-paper-data="{&quot;origPos&quot;:null}" fill="#ffffff"/><path d="M239.85516,147.75169c0,1.26532 -0.69937,2.29108 -1.5621,2.29108c-0.86273,0 -1.5621,-1.02576 -1.5621,-2.29108c0,-1.26532 0.69937,-2.29108 1.5621,-2.29108c0.86273,0 1.5621,1.02576 1.5621,2.29108z" data-paper-data="{&quot;origPos&quot;:null}" fill="#000000"/></g></g><g data-paper-data="{&quot;origPos&quot;:null}"><path d="M239.24598,192.49648c0,8.81893 -0.43474,15.27382 -6.10953,15.27382c-5.67479,0 -10.27511,-7.14916 -10.27511,-15.96809c0,-8.81893 4.60032,-15.96809 10.27511,-15.96809c5.67479,0 6.10953,7.84342 6.10953,16.66235z" data-paper-data="{&quot;origPos&quot;:null}" fill="#f34135" stroke="#000000" stroke-width="0" stroke-linecap="butt"/><g data-paper-data="{&quot;origPos&quot;:null}" fill="none" stroke="#bb3228" stroke-width="0.75" stroke-linecap="round"><path d="M224.83947,183.05447l3.53877,2.91592l0.2722,10.96937l-4.0832,2.77707" data-paper-data="{&quot;origPos&quot;:null}"/><path d="M233.00583,199.43912l-4.3554,-2.49935l-0.13611,-11.10823l4.89983,-3.05476" data-paper-data="{&quot;origPos&quot;:null}"/></g><path d="M239.24598,192.59306c0,9.16401 -0.43474,15.8715 -6.10953,15.8715c-5.67479,0 -0.55541,-6.70749 -0.55541,-15.8715c0,-5.40397 -1.56959,-8.42434 -2.07506,-13.80462c-0.19464,-2.0718 0.54953,-3.50973 2.63047,-3.50973c5.67479,0 6.10953,8.15034 6.10953,17.31436z" data-paper-data="{&quot;origPos&quot;:null}" fill="#ffffff" stroke="none" stroke-width="0" stroke-linecap="butt"/></g><g data-paper-data="{&quot;origPos&quot;:null}" stroke-linecap="round"><path d="M224.52757,188.05318c-0.92205,-0.03725 -3.4433,0.34336 -8.00006,-0.92925c-4.55676,-1.27261 -6.62746,-2.13816 -7.89325,-3.37519c-1.2658,-1.23703 -2.73199,-5.50084 -2.99069,-6.66495c-0.2587,-1.1641 -0.83785,-3.53104 -1.11082,-5.83181c-0.27297,-2.30078 -0.11621,-1.44954 0.13885,-2.3605c0.25506,-0.91096 0.3855,-0.7751 0.83311,-1.11081c0.44761,-0.33571 0.49022,-0.18172 0.83311,-0.13886c0.34289,0.04285 0.89493,0.1389 1.38854,0.41657c0.49361,0.27765 0.5872,0.43965 0.83311,0.83311c0.26706,0.42728 0.55542,1.38854 0.55542,1.38854c0,0 0.75599,-1.73524 1.38853,-2.77707c0.63254,-1.04182 1.46528,-1.08751 1.80509,-1.01469c0.33981,0.07282 1.10965,0.05461 1.39921,0.41655c0.28956,0.36196 0.47859,0.80689 0.65154,1.47397c0.17296,0.66709 0.70495,2.27506 0.70495,2.27506c0,0 0.35718,-0.93828 0.73698,-1.66623c0.3798,-0.72795 1.10953,-1.45249 1.55942,-1.33513c0.44991,0.11737 1.21266,-0.00991 1.89054,0.54472c0.67787,0.55463 0.70189,0.95245 0.97197,1.66624c0.27008,0.71379 0.57962,2.11994 0.97196,3.47131c0.39234,1.35137 1.63418,3.46659 2.58481,5.32982c0.95063,1.86323 1.95331,2.00905 2.4139,2.58481c0.46059,0.57574 0.57763,0.96641 0.69426,1.66624c0.11663,0.69982 -0.03904,1.0174 -0.13885,1.66623c-0.09981,0.64882 0.00177,1.29032 -0.41657,1.94395c-0.41833,0.65363 -0.88303,1.56463 -1.80508,1.52738z" data-paper-data="{&quot;origPos&quot;:null}" fill="#ffffff" stroke="#000000" stroke-width="0"/><path d="M215.16605,182.29403c-0.58605,0.06185 -1.48833,-1.81038 -2.11484,-2.78774c-0.62651,-0.97736 -0.64993,-2.56629 -1.05741,-3.6529" data-paper-data="{&quot;origPos&quot;:null}" fill="none" stroke="#e5e5e5" stroke-width="1"/><path d="M218.45045,181.04436c-0.58606,0.06185 -1.48833,-1.81038 -2.11484,-2.78774c-0.62651,-0.97736 -0.64993,-2.56629 -1.05741,-3.6529" data-paper-data="{&quot;origPos&quot;:null}" fill="none" stroke="#e6e6e6" stroke-width="1"/><path d="M221.79894,179.98694c-0.58606,0.06185 -1.48833,-1.81038 -2.11484,-2.78774c-0.62651,-0.97736 -0.64993,-2.56629 -1.05741,-3.6529" data-paper-data="{&quot;origPos&quot;:null}" fill="none" stroke="#e4e4e4" stroke-width="1"/></g><path d="M201.6363,134.65188h58.7274v90.69624h-58.7274z" data-paper-data="{&quot;origPos&quot;:null}" id="ID0.6911031012423337" fill="url(#color-1)" stroke="url(#color-2)" stroke-width="4.19398" stroke-linecap="round"/></g></g></svg>