<svg version="1.1" xmlns="http://www.w3.org/2000/svg" xmlns:xlink="http://www.w3.org/1999/xlink" width="492.51059" height="215.7001" viewBox="0,0,492.51059,215.7001"><defs><linearGradient x1="295" y1="226.08708" x2="315.13935" y2="226.08708" gradientUnits="userSpaceOnUse" id="color-1"><stop offset="0" stop-color="#a3822e"/><stop offset="1" stop-color="#e4b234"/></linearGradient><linearGradient x1="404.86066" y1="226.08708" x2="425" y2="226.08708" gradientUnits="userSpaceOnUse" id="color-2"><stop offset="0" stop-color="#a3822e"/><stop offset="1" stop-color="#e4b234"/></linearGradient><linearGradient x1="359.98307" y1="150.55968" x2="359.98307" y2="164.55968" gradientUnits="userSpaceOnUse" id="color-3"><stop offset="0" stop-color="#e4b234"/><stop offset="1" stop-color="#a3822e"/></linearGradient><linearGradient x1="105" y1="279.08708" x2="125.13935" y2="279.08708" gradientUnits="userSpaceOnUse" id="color-4"><stop offset="0" stop-color="#a3822e"/><stop offset="1" stop-color="#e4b234"/></linearGradient><linearGradient x1="214.86066" y1="279.08708" x2="235" y2="279.08708" gradientUnits="userSpaceOnUse" id="color-5"><stop offset="0" stop-color="#a3822e"/><stop offset="1" stop-color="#e4b234"/></linearGradient><linearGradient x1="169.98307" y1="203.55968" x2="169.98307" y2="217.55968" gradientUnits="userSpaceOnUse" id="color-6"><stop offset="0" stop-color="#e4b234"/><stop offset="1" stop-color="#a3822e"/></linearGradient><radialGradient cx="235.56701" cy="280.73301" r="396.8415" gradientUnits="userSpaceOnUse" id="color-7"><stop offset="0" stop-color="#7cd78e"/><stop offset="1" stop-color="#94d955"/></radialGradient></defs><g transform="translate(5.73949,-150.55968)"><g data-paper-data="{&quot;isPaintingLayer&quot;:true}" fill-rule="nonzero" stroke-linejoin="miter" stroke-miterlimit="10" stroke-dasharray="" stroke-dashoffset="0" style="mix-blend-mode: normal"><g stroke="none" stroke-linecap="butt"><path d="M295,163.58708h20.13934v125h-20.13934z" data-paper-data="{&quot;origPos&quot;:null}" fill="url(#color-1)" stroke-width="1.54554"/><path d="M404.86066,163.58708h20.13934v125h-20.13934z" data-paper-data="{&quot;origPos&quot;:null}" fill="url(#color-2)" stroke-width="1.54554"/><path d="M284.3417,150.55968h151.28274v14h-151.28273z" data-paper-data="{&quot;origPos&quot;:null}" fill="url(#color-3)" stroke-width="1.16442"/></g><g stroke="none" stroke-linecap="butt"><path d="M105,216.58708h20.13934v125h-20.13934z" data-paper-data="{&quot;origPos&quot;:null}" fill="url(#color-4)" stroke-width="1.54554"/><path d="M214.86066,216.58708h20.13934v125h-20.13934z" data-paper-data="{&quot;origPos&quot;:null}" fill="url(#color-5)" stroke-width="1.54554"/><path d="M94.3417,203.55968h151.28274v14h-151.28273z" data-paper-data="{&quot;origPos&quot;:null}" fill="url(#color-6)" stroke-width="1.16442"/></g><g><path d="M-0.1785,292.86761l479.83545,-12.5673l1.89534,72.36633l-479.83545,12.5673z" data-paper-data="{&quot;origPos&quot;:null}" fill="#cfbf74" stroke="#8d763a" stroke-width="2" stroke-linecap="butt"/><path d="M242.4631,276.00182c79.11604,-1.17445 158.80403,-6.94766 237.97261,-4.16196c0.14883,5.68246 0.29766,11.36491 0.44649,17.04737c-0.36628,0.1526 -0.69782,0.29095 -0.98951,0.41362c-21.64391,9.07162 -45.50224,17.58319 -69.87853,18.50219c-30.1307,1.13152 -58.86891,-15.9548 -89.06696,-14.33928c-28.50911,2.31703 -51.92908,25.38855 -80.35498,25.68822c-30.32112,0.31596 -56.2217,-22.32178 -86.60906,-22.12851c-28.83646,-1.05336 -54.18782,18.2856 -83.17468,19.66365c-24.36019,1.15197 -49.34334,-5.59246 -70.75124,-14.81898c-0.58937,-0.2543 -1.27208,-0.56437 -2.02483,-0.92187c-0.18314,-6.9927 -0.36629,-13.98541 -0.54943,-20.97811c81.06374,-7.09904 163.31232,-2.45904 244.98013,-3.96635z" data-paper-data="{&quot;origPos&quot;:null}" fill="url(#color-7)" stroke="#65a96e" stroke-width="2" stroke-linecap="round"/><path d="M481.57614,315.38255c-13.17439,11.30107 -35.98224,11.6942 -64.70342,12.88781c-38.18801,1.58706 -54.81343,-16.4449 -88.83113,-16.34462c-34.01771,0.10028 -36.66289,20.46755 -78.99809,20.17912c-42.3352,-0.28843 -70.13154,-16.59571 -99.21854,-16.96571c-29.087,-0.36998 -58.11853,20.83628 -85.48949,20.91696c-23.89985,0.07046 -45.31812,-11.84155 -65.57495,-7.30979" data-paper-data="{&quot;origPos&quot;:null,&quot;origRot&quot;:0}" fill="none" stroke="#bba15f" stroke-width="9" stroke-linecap="round"/><path d="M482.2711,341.91687c-13.17439,11.30107 -35.98224,11.6942 -64.70342,12.88781c-38.18801,1.58706 -54.81343,-16.4449 -88.83113,-16.34462c-34.01771,0.10028 -36.66289,20.46755 -78.99809,20.17912c-42.3352,-0.28843 -70.13154,-16.59571 -99.21854,-16.96571c-29.087,-0.36998 -58.11853,20.83628 -85.48949,20.91696c-23.89985,0.07046 -45.31812,-11.84155 -65.57495,-7.30979" data-paper-data="{&quot;origRot&quot;:0}" fill="none" stroke="#b49851" stroke-width="9" stroke-linecap="round"/></g></g></g></svg>