<svg version="1.1" xmlns="http://www.w3.org/2000/svg" xmlns:xlink="http://www.w3.org/1999/xlink" width="86.5569" height="32.47047" viewBox="0,0,86.5569,32.47047"><g transform="translate(-196.95674,-163.76478)"><g data-paper-data="{&quot;isPaintingLayer&quot;:true}" fill="#ffffff" fill-rule="nonzero" stroke="#224a8c" stroke-linecap="butt" stroke-linejoin="miter" stroke-miterlimit="10" stroke-dasharray="" stroke-dashoffset="0" style="mix-blend-mode: normal"><g stroke-width="5"><path d="M219.73153,168.5111l-1.64617,6.01881c-5.35005,-1.41754 -8.22514,-2.20633 -8.62525,-2.36637c0,0.10289 -0.58874,1.40039 -1.76621,3.89251h0.12004c2.38923,-0.14861 4.98424,-0.38296 7.78502,-0.70305l0.12004,0.24007c-0.4687,2.65216 -0.82309,4.45838 -1.06315,5.41864l-6.60183,-0.94312c0.06859,1.30322 0.10288,2.28635 0.10288,2.94939v0.60017l0.12004,0.24007c1.46326,-0.16005 4.41837,-0.40012 8.86532,-0.7202c0.14861,0.70877 0.42298,2.48069 0.82309,5.31576c-0.08002,0 -0.12004,0.04002 -0.12004,0.12004c-10.36859,-0.54872 -15.63862,-0.90311 -15.8101,-1.06315l-2.48641,-7.08196c1.88624,-8.79101 2.6282,-13.75502 3.18946,-14.16393c0.24007,-0.1749 16.99327,2.08628 16.99327,2.24632z"/><path d="M223.82981,171.44336c6.79045,0.9374 10.18568,1.51471 10.18568,1.73191c2.67503,2.29778 4.01254,3.52669 4.01254,3.68674c-1.08601,3.39523 -1.70333,5.45866 -1.85194,6.19029c1.08601,2.4121 1.70333,3.85249 1.85194,4.3212c0,0.13718 -1.77192,0.503 -5.31576,1.09745c-0.04573,-0.19434 -0.37153,-0.62875 -0.97742,-1.30322c-4.89278,0.9374 -7.5278,1.40611 -7.90505,1.40611l-2.60643,-7.04767l5.74445,-3.03513c0.92597,0.14861 2.37209,0.22292 4.33835,0.22292c0,-0.2515 0.03429,-1.01171 0.10288,-2.28063c-0.33152,0 -3.29234,0.2172 -8.88246,0.65161l-0.10288,-0.22292c0.77736,-3.61243 1.24606,-5.41864 1.40611,-5.41864zM227.39652,181.52615c0,0.12575 0.36581,1.46326 1.09745,4.01254h0.10288c1.4404,-0.9374 2.1606,-1.55472 2.1606,-1.85194l0.22292,-1.8348c-0.27436,0 -1.46898,-0.1086 -3.58385,-0.32581z"/><path d="M253.49518,171.44336c3.29234,2.10344 5.10999,3.3152 5.45294,3.63529c-1.1889,2.64073 -1.86909,3.9611 -2.04057,3.9611l-6.24173,-3.61814h-0.22292c0,0.11431 -0.26865,0.75449 -0.80594,1.92053c5.75016,3.098 8.62525,4.68702 8.62525,4.76704c-1.61188,3.72675 -2.5207,5.69301 -2.72647,5.89878l-9.75699,0.56587c-3.79534,-2.51498 -5.8359,-3.84106 -6.1217,-3.97825v-0.10288c0,-0.2858 0.56587,-1.57186 1.69761,-3.85821l7.61354,3.9611l0.56587,-2.26349c-4.70987,-2.11488 -7.51065,-3.43524 -8.40233,-3.9611v-0.24007c0,-0.43441 0.90883,-2.36065 2.72647,-5.77875z"/><path d="M268.55078,171.47765c0.16005,0.02286 0.24007,0.10288 0.24007,0.24007l-1.78335,9.87703c3.40666,-0.40011 5.10999,-0.7202 5.10999,-0.96027c0.64018,-3.95538 1.0803,-6.17314 1.32036,-6.65327c4.21831,0.86881 6.5561,1.38324 7.01337,1.54328c-2.45782,8.44806 -3.80677,12.84928 -4.04684,13.20366c-4.29833,3.01798 -6.71615,4.68701 -7.25344,5.0071c-0.16005,0 -2.89794,-0.67447 -8.2137,-2.02341v-0.12004c1.4061,-3.098 2.28063,-4.64701 2.62359,-4.64701l5.23002,2.62359l2.50355,-4.2869c-2.25205,0.56016 -3.56099,0.84023 -3.9268,0.84023l-6.67042,-3.46382c0.81165,-7.45349 1.32608,-11.18024 1.54328,-11.18024z"/></g><g stroke-width="0.26458"><path d="M202.73825,166.26477c11.32886,1.33751 16.99328,2.08629 16.99328,2.24633l-1.64617,6.01881c-5.35005,-1.41754 -8.22514,-2.20633 -8.62525,-2.36637c0,0.10289 -0.58874,1.40039 -1.76621,3.89251h0.12004c2.38923,-0.14861 4.98424,-0.38296 7.78502,-0.70305l0.12004,0.24007c-0.4687,2.65216 -0.82309,4.45838 -1.06315,5.41864l-6.60183,-0.94312c0.06859,1.30322 0.10288,2.28635 0.10288,2.94939v0.60017l0.12004,0.24007c1.46326,-0.16005 4.41837,-0.40012 8.86532,-0.7202c0.14861,0.70877 0.42298,2.48069 0.82309,5.31576c-0.08002,0 -0.12004,0.04002 -0.12004,0.12004c-10.36859,-0.54872 -15.63862,-0.90311 -15.8101,-1.06315l-2.48641,-7.08196c1.88624,-8.79101 2.94939,-13.51232 3.18946,-14.16393z"/><path d="M223.82981,171.44336c6.79045,0.9374 10.18568,1.51471 10.18568,1.73191c2.67503,2.29778 4.01254,3.52669 4.01254,3.68674c-1.08601,3.39523 -1.70333,5.45866 -1.85194,6.19029c1.08601,2.4121 1.70333,3.85249 1.85194,4.3212c0,0.13718 -1.77192,0.503 -5.31576,1.09745c-0.04573,-0.19434 -0.37153,-0.62875 -0.97742,-1.30322c-4.89278,0.9374 -7.5278,1.40611 -7.90505,1.40611l-2.60643,-7.04767l5.74445,-3.03513c0.92597,0.14861 2.37209,0.22292 4.33835,0.22292c0,-0.2515 0.03429,-1.01171 0.10288,-2.28063c-0.33152,0 -3.29234,0.2172 -8.88246,0.65161l-0.10288,-0.22292c0.77736,-3.61243 1.24606,-5.41864 1.40611,-5.41864zM227.39652,181.52615c0,0.12575 0.36581,1.46326 1.09745,4.01254h0.10288c1.4404,-0.9374 2.1606,-1.55472 2.1606,-1.85194l0.22292,-1.8348c-0.27436,0 -1.46898,-0.1086 -3.58385,-0.32581z"/><path d="M253.49518,171.44336c3.29234,2.10344 5.10999,3.3152 5.45294,3.63529c-1.1889,2.64073 -1.86909,3.9611 -2.04057,3.9611l-6.24173,-3.61814h-0.22292c0,0.11431 -0.26865,0.75449 -0.80594,1.92053c5.75016,3.098 8.62525,4.68702 8.62525,4.76704c-1.61188,3.72675 -2.5207,5.69301 -2.72647,5.89878l-9.75699,0.56587c-3.79534,-2.51498 -5.8359,-3.84106 -6.1217,-3.97825v-0.10288c0,-0.2858 0.56587,-1.57186 1.69761,-3.85821l7.61354,3.9611l0.56587,-2.26349c-4.70987,-2.11488 -7.51065,-3.43524 -8.40233,-3.9611v-0.24007c0,-0.43441 0.90883,-2.36065 2.72647,-5.77875z"/><path d="M268.55078,171.47765c0.16005,0.02286 0.24007,0.10288 0.24007,0.24007l-1.78335,9.87703c3.40666,-0.40011 5.10999,-0.7202 5.10999,-0.96027c0.64018,-3.95538 1.0803,-6.17314 1.32036,-6.65327c4.21831,0.86881 6.5561,1.38324 7.01337,1.54328c-2.45782,8.44806 -3.80677,12.84928 -4.04684,13.20366c-4.29833,3.01798 -6.71615,4.68701 -7.25344,5.0071c-0.16005,0 -2.89794,-0.67447 -8.2137,-2.02341v-0.12004c1.4061,-3.098 2.28063,-4.64701 2.62359,-4.64701l5.23002,2.62359l2.50355,-4.2869c-2.25205,0.56016 -3.56099,0.84023 -3.9268,0.84023l-6.67042,-3.46382c0.81165,-7.45349 1.32608,-11.18024 1.54328,-11.18024z"/></g></g></g></svg>