<svg version="1.1" xmlns="http://www.w3.org/2000/svg" xmlns:xlink="http://www.w3.org/1999/xlink" width="496.51502" height="374.3239" viewBox="0,0,496.51502,374.3239"><defs><linearGradient x1="239.97419" y1="0" x2="239.97419" y2="360" gradientUnits="userSpaceOnUse" id="color-1"><stop offset="0" stop-color="#74beff"/><stop offset="1" stop-color="#c2efff"/></linearGradient><linearGradient x1="544.80363" y1="250.58202" x2="544.80363" y2="428.369" gradientUnits="userSpaceOnUse" id="color-2"><stop offset="0" stop-color="#80e794"/><stop offset="1" stop-color="#39b360"/></linearGradient><linearGradient x1="-47.45378" y1="248.35143" x2="-47.45378" y2="426.13841" gradientUnits="userSpaceOnUse" id="color-3"><stop offset="0" stop-color="#80e794"/><stop offset="1" stop-color="#39b360"/></linearGradient><linearGradient x1="38.9542" y1="149.84344" x2="159.96962" y2="149.84344" gradientUnits="userSpaceOnUse" id="color-4"><stop offset="0" stop-color="#ffda52"/><stop offset="1" stop-color="#f2ff88"/></linearGradient><linearGradient x1="38.99351" y1="237.45586" x2="160.00893" y2="237.45586" gradientUnits="userSpaceOnUse" id="color-5"><stop offset="0" stop-color="#ffda52"/><stop offset="1" stop-color="#f2ff88"/></linearGradient><linearGradient x1="280.8433" y1="193.67813" x2="401.85872" y2="193.67813" gradientUnits="userSpaceOnUse" id="color-6"><stop offset="0" stop-color="#ff9e52"/><stop offset="1" stop-color="#ffe787"/></linearGradient><linearGradient x1="280.88261" y1="281.29055" x2="401.89803" y2="281.29055" gradientUnits="userSpaceOnUse" id="color-7"><stop offset="0" stop-color="#ff9e52"/><stop offset="1" stop-color="#ffe686"/></linearGradient><linearGradient x1="109.5" y1="266.21302" x2="109.5" y2="444" gradientUnits="userSpaceOnUse" id="color-8"><stop offset="0" stop-color="#80e794"/><stop offset="1" stop-color="#39b360"/></linearGradient><linearGradient x1="341.5" y1="263" x2="341.5" y2="440.78698" gradientUnits="userSpaceOnUse" id="color-9"><stop offset="0" stop-color="#80e794"/><stop offset="1" stop-color="#39b360"/></linearGradient><linearGradient x1="-89.40098" y1="308.0044" x2="-89.40098" y2="406.0044" gradientUnits="userSpaceOnUse" id="color-10"><stop offset="0" stop-color="#000000" stop-opacity="0"/><stop offset="1" stop-color="#000000"/></linearGradient><linearGradient x1="-89.40098" y1="308.0044" x2="-89.40098" y2="406.0044" gradientUnits="userSpaceOnUse" id="color-11"><stop offset="0" stop-color="#000000" stop-opacity="0"/><stop offset="1" stop-color="#000000"/></linearGradient></defs><g transform="translate(9.75901,0)"><g data-paper-data="{&quot;isPaintingLayer&quot;:true}" fill-rule="nonzero" stroke-linecap="butt" stroke-linejoin="miter" stroke-miterlimit="10" stroke-dasharray="" stroke-dashoffset="0" style="mix-blend-mode: normal"><path d="M0.02646,0h479.89547v360h-479.89546z" data-paper-data="{&quot;origPos&quot;:null}" fill="url(#color-1)" stroke="none" stroke-width="1"/><path d="M72,327.5c0,12.4264 -3.35787,22.5 -7.5,22.5c-4.14213,0 -7.5,-10.0736 -7.5,-22.5c0,-12.4264 3.35787,-22.5 7.5,-22.5c4.14213,0 7.5,10.0736 7.5,22.5z" fill="#ffefb3" stroke="none" stroke-width="0"/><g data-paper-data="{&quot;origRot&quot;:0,&quot;origPos&quot;:null}" fill="#75beff" stroke="#4bca88" stroke-width="0"><g data-paper-data="{&quot;origPos&quot;:null}"><path d="M148.22601,254.23415c0.36156,23.85704 -40.13842,43.81522 -90.45925,44.57786c-23.99485,0.36365 -45.89,-3.70292 -62.27126,-10.64401c0,-21.21946 0,-42.43892 0,-63.65838c16.06033,-7.18363 37.43803,-11.73506 60.96193,-12.09158c50.32083,-0.76264 91.40703,17.95907 91.76859,41.81611z" data-paper-data="{&quot;origPos&quot;:null}"/><path d="M260.94064,250.96421c0.36156,23.85704 -40.13842,43.81522 -90.45925,44.57786c-50.32083,0.76264 -91.40703,-17.95907 -91.76859,-41.81611c-0.36156,-23.85704 40.13842,-43.81522 90.45925,-44.57786c50.32083,-0.76264 91.40703,17.95907 91.76859,41.81611z" data-paper-data="{&quot;origPos&quot;:null}"/></g><g data-paper-data="{&quot;origPos&quot;:null}"><path d="M407.2872,256.30864c0.36156,23.85704 -40.13842,43.81522 -90.45925,44.57786c-50.32083,0.76264 -91.40702,-17.95907 -91.76859,-41.81611c-0.36156,-23.85704 40.13842,-43.81522 90.45925,-44.57786c50.32083,-0.76264 91.40703,17.95907 91.76859,41.8161z" data-paper-data="{&quot;origPos&quot;:null}"/><path d="M429.54257,297.61656c-50.32083,0.76264 -91.40703,-17.95907 -91.76859,-41.81611c-0.36156,-23.85704 40.13842,-43.81522 90.45925,-44.57786c20.49852,-0.31067 39.46465,2.61189 54.76977,7.79772c0,20.78803 0,41.57605 0,62.36408c0,2.1162 0,4.65183 0,7.16353c-14.95965,5.42073 -33.43216,8.7651 -53.46043,9.06864z" data-paper-data="{&quot;origPos&quot;:null}"/></g></g><path d="M481.5015,255.77562c0,21.68726 0,43.37453 0,65.06178c-0.6386,0.16404 -99.7879,4.60104 -121.87341,4.60104c10.82187,-32.34274 58.43633,-58.87762 121.87341,-69.66282z" data-paper-data="{&quot;origPos&quot;:null}" fill="url(#color-2)" stroke="#4bca88" stroke-width="1.5"/><path d="M-3.003,250.86436c64.84153,7.47372 116.49256,30.9304 135.34062,61.0718c-0.39894,-0.00642 -0.79779,-0.01037 -1.19647,-0.01123c-17.51732,-0.0377 -126.96696,1.5015 -134.14414,1.5015c0,-20.85402 0,-41.70804 0,-62.56207z" fill="url(#color-3)" stroke="#4bca88" stroke-width="1.5"/><g data-paper-data="{&quot;origPos&quot;:null}"><path d="M99.46191,94.48532c16.6936,0 31.82053,6.20337 42.77389,16.22422c10.9537,10.02145 17.73382,23.86098 17.73382,39.1339c0,15.273 -6.78012,29.11253 -17.73382,39.13398c-10.95335,10.02085 -26.08028,16.22413 -42.77389,16.22413c-16.69369,0 -31.82062,-6.20328 -42.77389,-16.22413c-10.9537,-10.02145 -17.73382,-23.86098 -17.73382,-39.13398c0,-15.27292 6.78012,-29.11245 17.73382,-39.1339c10.95327,-10.02085 26.0802,-16.22422 42.77389,-16.22422z" data-paper-data="{&quot;origPos&quot;:null}" fill="url(#color-4)" stroke="none" stroke-width="0.55092"/><path d="M38.99351,152.91672h121.01542v169.07828h-121.01542z" data-paper-data="{&quot;origPos&quot;:null}" fill="url(#color-5)" stroke="none" stroke-width="1.16723"/><path d="M60.45014,213.77387c0,13.20448 -3.84258,23.90882 -8.58265,23.90882c-4.74007,0 -8.58265,-10.70435 -8.58265,-23.90882c0,-13.20448 3.84258,-23.90882 8.58265,-23.90882c4.74007,0 8.58265,10.70435 8.58265,23.90882z" data-paper-data="{&quot;origPos&quot;:null}" fill="#fdffb3" stroke="#000000" stroke-width="0"/><path d="M133.60076,165.83362c2.95343,0 5.34765,6.66962 5.34765,14.89703c0,8.2274 -2.39423,14.89703 -5.34765,14.89703c-2.95343,0 -5.34765,-6.66962 -5.34765,-14.89703c0,-8.2274 2.39423,-14.89703 5.34765,-14.89703z" data-paper-data="{&quot;origPos&quot;:null}" fill="#fdffb3" stroke="#000000" stroke-width="0"/><path d="M117.29372,238.78617c2.95343,0 5.34765,6.66964 5.34765,14.89704c0,8.2274 -2.39423,14.89703 -5.34765,14.89703c-2.95343,0 -5.34765,-6.66963 -5.34765,-14.89703c0,-8.22741 2.39423,-14.89704 5.34765,-14.89704z" data-paper-data="{&quot;origPos&quot;:null}" fill="#fdffb3" stroke="#000000" stroke-width="0"/><path d="M91.54576,100.60544c2.95343,0 5.34765,6.66963 5.34765,14.89704c0,8.22741 -2.39423,14.89703 -5.34765,14.89703c-2.95342,0 -5.34765,-6.66962 -5.34765,-14.89703c0,-8.22741 2.39423,-14.89704 5.34765,-14.89704z" data-paper-data="{&quot;origPos&quot;:null}" fill="#fdffb3" stroke="#000000" stroke-width="0"/><path d="M80.95554,138.1474c1.82991,0 3.77352,-0.08421 4.97283,3.47566c1.20078,3.55987 1.94336,8.47511 1.94336,13.90064c0,5.42552 -0.74257,10.34077 -1.94336,13.90064c-1.19931,3.55987 -2.85684,3.76175 -4.68675,3.76175c-1.82991,0 -3.48743,-0.20188 -4.68674,-3.76175c-1.20078,-3.55987 -1.94336,-8.47511 -1.94336,-13.90064c0,-5.42552 0.74257,-10.34077 1.94336,-13.90064c1.19931,-3.55987 2.57075,-3.47566 4.40065,-3.47566z" data-paper-data="{&quot;origPos&quot;:null}" fill="#31353b" stroke="none" stroke-width="1"/><path d="M115.57224,137.86131c1.82991,0 3.77353,-0.08421 4.97284,3.47566c1.20078,3.55987 1.94336,8.47511 1.94336,13.90064c0,5.42552 -0.74257,10.34077 -1.94336,13.90064c-1.19931,3.55987 -2.85684,3.76174 -4.68675,3.76174c-1.82991,0 -3.48743,-0.20187 -4.68674,-3.76174c-1.20078,-3.55987 -1.94336,-8.47511 -1.94336,-13.90064c0,-5.42552 0.74257,-10.34077 1.94336,-13.90064c1.19931,-3.55987 2.57075,-3.47566 4.40065,-3.47566z" data-paper-data="{&quot;origPos&quot;:null}" fill="#31353b" stroke="none" stroke-width="1"/></g><path d="M149,356.5c0,10.21727 -15,10.21727 -15,0c0,-10.21727 3.35787,-18.5 7.5,-18.5c4.14213,0 7.5,8.28273 7.5,18.5z" fill="#ffefb3" stroke="none" stroke-width="0"/><g data-paper-data="{&quot;origPos&quot;:null}"><path d="M341.35101,138.32002c16.6936,0 31.82053,6.20337 42.77389,16.22422c10.9537,10.02145 17.73382,23.86098 17.73382,39.1339c0,15.273 -6.78012,29.11253 -17.73382,39.13398c-10.95335,10.02085 -26.08028,16.22413 -42.77389,16.22413c-16.69369,0 -31.82062,-6.20328 -42.77389,-16.22413c-10.9537,-10.02145 -17.73382,-23.86098 -17.73382,-39.13398c0,-15.27292 6.78012,-29.11245 17.73382,-39.1339c10.95327,-10.02085 26.0802,-16.22422 42.77389,-16.22422z" data-paper-data="{&quot;origPos&quot;:null}" fill="url(#color-6)" stroke="none" stroke-width="0.55092"/><path d="M280.88261,196.75141h121.01542v169.07828h-121.01542z" data-paper-data="{&quot;origPos&quot;:null}" fill="url(#color-7)" stroke="none" stroke-width="1.16723"/><path d="M373.25486,228.66616c4.74007,0 8.58265,6.71085 8.58265,14.98911c0,8.27825 -3.84258,14.98911 -8.58265,14.98911c-4.74007,0 -8.58265,-6.71085 -8.58265,-14.98911c0,-8.27825 3.84258,-14.98911 8.58265,-14.98911z" data-paper-data="{&quot;origPos&quot;:null,&quot;index&quot;:null}" fill="#fff3b3" stroke="#000000" stroke-width="0"/><path d="M296.86925,220.45622c0,7.39475 -2.39422,13.38937 -5.34765,13.38937c-2.95342,0 -5.34765,-5.99463 -5.34765,-13.38937c0,-7.39475 2.39422,-13.38937 5.34765,-13.38937c2.95342,0 5.34765,5.99463 5.34765,13.38937z" data-paper-data="{&quot;origPos&quot;:null,&quot;index&quot;:null}" fill="#ffeab3" stroke="#000000" stroke-width="0"/><path d="M338.92425,161.82951c0,7.39475 -2.39423,13.38937 -5.34765,13.38937c-2.95342,0 -5.34765,-5.99462 -5.34765,-13.38937c0,-7.39475 2.39422,-13.38938 5.34765,-13.38938c2.95342,0 5.34765,5.99463 5.34765,13.38938z" data-paper-data="{&quot;origPos&quot;:null,&quot;index&quot;:null}" fill="#ffeab3" stroke="#000000" stroke-width="0"/><path d="M322.84464,181.9821c1.82991,0 3.77352,-0.08421 4.97283,3.47566c1.20078,3.55987 1.94336,8.47511 1.94336,13.90064c0,5.42552 -0.74257,10.34077 -1.94336,13.90064c-1.19931,3.55987 -2.85684,3.76175 -4.68675,3.76175c-1.82991,0 -3.48743,-0.20188 -4.68674,-3.76175c-1.20078,-3.55987 -1.94336,-8.47511 -1.94336,-13.90064c0,-5.42552 0.74257,-10.34077 1.94336,-13.90064c1.19931,-3.55987 2.57075,-3.47566 4.40065,-3.47566z" data-paper-data="{&quot;origPos&quot;:null}" fill="#31353b" stroke="none" stroke-width="1"/><path d="M357.46134,181.696c1.82991,0 3.77353,-0.08421 4.97284,3.47566c1.20078,3.55987 1.94336,8.47511 1.94336,13.90064c0,5.42552 -0.74257,10.34077 -1.94336,13.90064c-1.19931,3.55987 -2.85684,3.76174 -4.68675,3.76174c-1.82991,0 -3.48743,-0.20187 -4.68674,-3.76174c-1.20078,-3.55987 -1.94336,-8.47511 -1.94336,-13.90064c0,-5.42552 0.74257,-10.34077 1.94336,-13.90064c1.19931,-3.55987 2.57075,-3.47566 4.40065,-3.47566z" data-paper-data="{&quot;origPos&quot;:null}" fill="#31353b" stroke="none" stroke-width="1"/></g><g data-paper-data="{&quot;origPos&quot;:null}" stroke="#4bca88" stroke-width="1.5"><path d="M297,355.10651c0,4.64245 -0.75064,11.20179 -2.19752,15.65221c-4.02799,-0.05809 -277.61856,2.72777 -303.30098,2.72777c0,0 -0.18725,0 -0.51051,0.02562c0,-12.86415 0,-26.09695 0,-38.07367c0,-9.78647 -0.50415,-19.77984 -0.01242,-29.5319c0.34067,-6.75624 1.24427,-13.48912 1.46491,-20.24637c32.07978,-12.16974 72.77556,-19.44716 117.05652,-19.44716c103.55339,0 187.5,39.79897 187.5,88.89349z" data-paper-data="{&quot;origPos&quot;:null}" fill="url(#color-8)"/><path d="M159.57007,373.48649c-3.63852,-6.91281 -5.57007,-14.14596 -5.57007,-21.593c0,-49.09452 83.94661,-88.89349 187.5,-88.89349c58.14832,0 110.1143,12.54924 144.50601,32.24681c0,25.40922 0,50.81845 0,76.22767c0,0.6778 -0.00312,1.34799 -0.00566,2.01201c-11.1793,0 -283.35403,0 -326.43027,0z" data-paper-data="{&quot;origPos&quot;:null}" fill="url(#color-9)"/></g><path d="M-4.87468,308.0044h490.88069c0,20.15416 0,40.30831 0,60.46246l-493.51352,-1.49689c0,0 2.43922,-52.27911 2.63283,-58.96557z" data-paper-data="{&quot;origPos&quot;:null}" fill="url(#color-10)" stroke="none" stroke-width="1.22826"/><path d="" data-paper-data="{&quot;origPos&quot;:null}" fill="url(#color-11)" stroke="none" stroke-width="1.22826"/><g data-paper-data="{&quot;origPos&quot;:null}" stroke="none" stroke-width="1"><path d="M269.28457,22.34084c9.18266,0 17.5038,2.60718 23.52928,6.81914c6.02548,4.21195 9.75529,10.02867 9.75529,16.44775c0,6.41907 -3.72981,12.23579 -9.75529,16.44775c-6.02548,4.21195 -14.34662,6.81914 -23.52928,6.81914c-9.18266,0 -17.5038,-2.60718 -23.52928,-6.81914c-6.02548,-4.21195 -9.75529,-10.02867 -9.75529,-16.44775c0,-6.41907 3.72981,-12.23579 9.75529,-16.44775c6.02548,-4.21195 14.34662,-6.81914 23.52928,-6.81914z" data-paper-data="{&quot;origPos&quot;:null}" fill="#ffffff"/><path d="M310.64791,12c9.18266,0 17.5038,2.60718 23.52928,6.81914c6.02548,4.21195 9.75529,10.02867 9.75529,16.44775c0,6.41907 -3.72981,12.23579 -9.75529,16.44775c-6.02548,4.21195 -14.34662,6.81914 -23.52928,6.81914c-9.18266,0 -17.5038,-2.60718 -23.52928,-6.81914c-6.02548,-4.21195 -9.75529,-10.02867 -9.75529,-16.44775c0,-6.41907 3.72981,-12.23579 9.75529,-16.44775c6.02548,-4.21195 14.34662,-6.81914 23.52928,-6.81914z" data-paper-data="{&quot;origPos&quot;:null}" fill="#ffffff"/><path d="M276.71704,32.35852c0.80271,0 1.5298,0.70641 2.05589,1.84713c0.52674,1.14072 0.85247,2.71576 0.85247,4.45432c0,1.73855 -0.32574,3.31359 -0.85247,4.45432c-0.52609,1.14072 -1.25318,1.84713 -2.05589,1.84713c-0.80271,0 -1.5298,-0.70641 -2.05589,-1.84713c-0.52674,-1.14072 -0.85247,-2.71576 -0.85247,-4.45432c0,-1.73855 0.32574,-3.31359 0.85247,-4.45432c0.52609,-1.14072 1.25318,-1.84713 2.05589,-1.84713z" data-paper-data="{&quot;origPos&quot;:null}" fill="#4a4f54"/><path d="M290.28939,32.03537c0.80271,0 1.5298,0.70641 2.05589,1.84713c0.52674,1.14072 0.85247,2.71576 0.85247,4.45432c0,1.73855 -0.32574,3.31359 -0.85247,4.45432c-0.52609,1.14072 -1.25318,1.84713 -2.05589,1.84713c-0.80271,0 -1.5298,-0.70641 -2.05589,-1.84713c-0.52674,-1.14072 -0.85247,-2.71576 -0.85247,-4.45432c0,-1.73855 0.32574,-3.31359 0.85247,-4.45432c0.52609,-1.14072 1.25318,-1.84713 2.05589,-1.84713z" data-paper-data="{&quot;origPos&quot;:null}" fill="#4a4f54"/></g><g data-paper-data="{&quot;origPos&quot;:null}" stroke="none" stroke-width="1"><path d="M460.24471,58.09566c6.02548,4.21195 9.75529,10.02867 9.75529,16.44775c0,6.41907 -3.72981,12.23579 -9.75529,16.44775c-6.02548,4.21195 -14.34662,6.81914 -23.52928,6.81914c-9.18266,0 -17.5038,-2.60718 -23.52928,-6.81914c-6.02548,-4.21195 -9.75529,-10.02867 -9.75529,-16.44775c0,-6.41907 3.72981,-12.23579 9.75529,-16.44775c6.02548,-4.21195 14.34662,-6.81914 23.52928,-6.81914c9.18266,0 17.5038,2.60718 23.52928,6.81914z" data-paper-data="{&quot;origPos&quot;:null}" fill="#ffffff"/><path d="M418.88137,47.75483c6.02548,4.21195 9.75529,10.02867 9.75529,16.44775c0,6.41907 -3.72981,12.23579 -9.75529,16.44775c-6.02548,4.21195 -14.34662,6.81914 -23.52928,6.81914c-9.18266,0 -17.5038,-2.60718 -23.52928,-6.81914c-6.02548,-4.21195 -9.75529,-10.02867 -9.75529,-16.44775c0,-6.41907 3.72981,-12.23579 9.75529,-16.44775c6.02548,-4.21195 14.34662,-6.81914 23.52928,-6.81914c9.18266,0 17.5038,2.60718 23.52928,6.81914z" data-paper-data="{&quot;origPos&quot;:null}" fill="#ffffff"/><path d="M410.01087,67.66546c0.52674,1.14072 0.85247,2.71576 0.85247,4.45432c0,1.73855 -0.32574,3.31359 -0.85247,4.45432c-0.52609,1.14072 -1.25318,1.84713 -2.05589,1.84713c-0.80271,0 -1.5298,-0.70641 -2.05589,-1.84713c-0.52674,-1.14072 -0.85247,-2.71576 -0.85247,-4.45432c0,-1.73855 0.32574,-3.31359 0.85247,-4.45432c0.52609,-1.14072 1.25318,-1.84713 2.05589,-1.84713c0.80271,0 1.5298,0.70641 2.05589,1.84713z" data-paper-data="{&quot;origPos&quot;:null}" fill="#4a4f54"/><path d="M396.43852,67.34231c0.52674,1.14072 0.85247,2.71576 0.85247,4.45432c0,1.73855 -0.32574,3.31359 -0.85247,4.45432c-0.52609,1.14072 -1.25318,1.84713 -2.05589,1.84713c-0.80271,0 -1.5298,-0.70641 -2.05589,-1.84713c-0.52674,-1.14072 -0.85247,-2.71576 -0.85247,-4.45432c0,-1.73855 0.32574,-3.31359 0.85247,-4.45432c0.52609,-1.14072 1.25318,-1.84713 2.05589,-1.84713c0.80271,0 1.5298,0.70641 2.05589,1.84713z" data-paper-data="{&quot;origPos&quot;:null}" fill="#4a4f54"/></g><g data-paper-data="{&quot;origPos&quot;:null}" stroke="none" stroke-width="1"><path d="M58.28457,26.34084c9.18266,0 17.50381,2.60719 23.52928,6.81914c6.02548,4.21195 9.75528,10.02867 9.75528,16.44774c0,6.41908 -3.72981,12.2358 -9.75528,16.44775c-6.02548,4.21195 -14.34662,6.81914 -23.52928,6.81914c-9.18266,0 -17.5038,-2.60719 -23.52928,-6.81914c-6.02547,-4.21195 -9.75529,-10.02867 -9.75529,-16.44775c0,-6.41907 3.72981,-12.23579 9.75529,-16.44774c6.02547,-4.21195 14.34662,-6.81914 23.52928,-6.81914z" data-paper-data="{&quot;origPos&quot;:null}" fill="#ffffff"/><path d="M99.64791,16c9.18266,0 17.5038,2.60719 23.52928,6.81914c6.02548,4.21195 9.75529,10.02867 9.75529,16.44774c0,6.41908 -3.72981,12.23579 -9.75529,16.44774c-6.02548,4.21195 -14.34662,6.81914 -23.52928,6.81914c-9.18266,0 -17.50381,-2.60719 -23.52928,-6.81914c-6.02547,-4.21195 -9.75529,-10.02867 -9.75529,-16.44774c0,-6.41907 3.72981,-12.2358 9.75529,-16.44774c6.02547,-4.21195 14.34662,-6.81914 23.52928,-6.81914z" data-paper-data="{&quot;origPos&quot;:null}" fill="#ffffff"/><path d="M65.71704,36.35852c0.80271,0 1.5298,0.70641 2.05589,1.84714c0.52673,1.14073 0.85247,2.71576 0.85247,4.45432c0,1.73855 -0.32574,3.31359 -0.85247,4.45432c-0.52609,1.14073 -1.25318,1.84713 -2.05589,1.84713c-0.80271,0 -1.52979,-0.7064 -2.05588,-1.84713c-0.52673,-1.14073 -0.85248,-2.71576 -0.85248,-4.45432c0,-1.73855 0.32574,-3.31359 0.85248,-4.45432c0.52609,-1.14073 1.25318,-1.84714 2.05588,-1.84714z" data-paper-data="{&quot;origPos&quot;:null}" fill="#4a4f54"/><path d="M79.28939,36.03537c0.80271,0 1.52979,0.7064 2.05588,1.84713c0.52673,1.14073 0.85247,2.71576 0.85247,4.45432c0,1.73855 -0.32574,3.31359 -0.85247,4.45432c-0.52609,1.14073 -1.25318,1.84713 -2.05588,1.84713c-0.80271,0 -1.5298,-0.70641 -2.05589,-1.84713c-0.52673,-1.14073 -0.85247,-2.71576 -0.85247,-4.45432c0,-1.73855 0.32574,-3.31359 0.85247,-4.45432c0.52609,-1.14073 1.25319,-1.84713 2.05589,-1.84713z" data-paper-data="{&quot;origPos&quot;:null}" fill="#4a4f54"/></g><g data-paper-data="{&quot;origPos&quot;:null}" stroke="none" stroke-width="1"><path d="M252.24471,87.09566c6.02548,4.21195 9.75529,10.02867 9.75529,16.44775c0,6.41908 -3.72981,12.23579 -9.75529,16.44774c-6.02547,4.21195 -14.34662,6.81914 -23.52928,6.81914c-9.18266,0 -17.5038,-2.60719 -23.52928,-6.81914c-6.02548,-4.21195 -9.75528,-10.02867 -9.75528,-16.44774c0,-6.41908 3.72981,-12.2358 9.75528,-16.44775c6.02548,-4.21195 14.34662,-6.81913 23.52928,-6.81913c9.18266,0 17.50381,2.60718 23.52928,6.81913z" data-paper-data="{&quot;origPos&quot;:null}" fill="#ffffff"/><path d="M210.88137,76.75483c6.02547,4.21195 9.75529,10.02867 9.75529,16.44774c0,6.41908 -3.72981,12.2358 -9.75529,16.44775c-6.02547,4.21195 -14.34662,6.81913 -23.52928,6.81913c-9.18266,0 -17.5038,-2.60718 -23.52928,-6.81913c-6.02548,-4.21195 -9.75529,-10.02867 -9.75529,-16.44775c0,-6.41908 3.72981,-12.23579 9.75529,-16.44774c6.02548,-4.21195 14.34662,-6.81914 23.52928,-6.81914c9.18266,0 17.50381,2.60719 23.52928,6.81914z" data-paper-data="{&quot;origPos&quot;:null}" fill="#ffffff"/><path d="M202.01087,96.66546c0.52673,1.14073 0.85247,2.71576 0.85247,4.45432c0,1.73856 -0.32574,3.31359 -0.85247,4.45431c-0.52609,1.14073 -1.25318,1.84713 -2.05588,1.84713c-0.80271,0 -1.5298,-0.70641 -2.05589,-1.84713c-0.52673,-1.14073 -0.85247,-2.71576 -0.85247,-4.45431c0,-1.73856 0.32574,-3.31359 0.85247,-4.45432c0.52609,-1.14073 1.25319,-1.84713 2.05589,-1.84713c0.80271,0 1.52979,0.7064 2.05588,1.84713z" data-paper-data="{&quot;origPos&quot;:null}" fill="#4a4f54"/><path d="M188.43853,96.34231c0.52673,1.14073 0.85247,2.71576 0.85247,4.45432c0,1.73856 -0.32574,3.31359 -0.85247,4.45431c-0.52609,1.14073 -1.25319,1.84713 -2.05589,1.84713c-0.80271,0 -1.52979,-0.70641 -2.05588,-1.84713c-0.52673,-1.14073 -0.85248,-2.71576 -0.85248,-4.45431c0,-1.73856 0.32574,-3.31359 0.85248,-4.45432c0.52609,-1.14073 1.25318,-1.84713 2.05588,-1.84713c0.80271,0 1.5298,0.70641 2.05589,1.84713z" data-paper-data="{&quot;origPos&quot;:null}" fill="#4a4f54"/></g></g></g></svg>