<svg version="1.1" xmlns="http://www.w3.org/2000/svg" xmlns:xlink="http://www.w3.org/1999/xlink" width="117.54269" height="139.49145"><defs><linearGradient x1="207.03973" y1="94.05126" x2="207.03973" y2="107.61334" gradientUnits="userSpaceOnUse" id="color-1"><stop offset="0" stop-color="#fff7d7"/><stop offset="1" stop-color="#b98a74"/></linearGradient><linearGradient x1="207.2229" y1="113.01446" x2="207.2229" y2="126.57654" gradientUnits="userSpaceOnUse" id="color-2"><stop offset="0" stop-color="#fff7d7"/><stop offset="1" stop-color="#b98a74"/></linearGradient><linearGradient x1="223.66698" y1="110.91957" x2="223.66698" y2="120.85624" gradientUnits="userSpaceOnUse" id="color-3"><stop offset="0" stop-color="#fff7d7"/><stop offset="1" stop-color="#b98a74"/></linearGradient><linearGradient x1="222.01258" y1="100.02743" x2="222.01258" y2="110.70048" gradientUnits="userSpaceOnUse" id="color-4"><stop offset="0" stop-color="#fff7d7"/><stop offset="1" stop-color="#b98a74"/></linearGradient><linearGradient x1="192.85686" y1="99.63999" x2="192.85686" y2="110.31305" gradientUnits="userSpaceOnUse" id="color-5"><stop offset="0" stop-color="#fff7d7"/><stop offset="1" stop-color="#b98a74"/></linearGradient><linearGradient x1="191.94529" y1="109.78519" x2="191.94529" y2="120.45824" gradientUnits="userSpaceOnUse" id="color-6"><stop offset="0" stop-color="#fff7d7"/><stop offset="1" stop-color="#b98a74"/></linearGradient></defs><g transform="translate(-175,-93.05125)"><g data-paper-data="{&quot;isPaintingLayer&quot;:true}" fill="none" fill-rule="nonzero" stroke="none" stroke-width="none" stroke-linecap="none" stroke-linejoin="miter" stroke-miterlimit="10" stroke-dasharray="" stroke-dashoffset="0" font-family="none" font-weight="none" font-size="none" text-anchor="none" style="mix-blend-mode: normal"><path d="M182.45731,191.50002c0,-13.83069 11.212,-25.04269 25.04269,-25.04269c13.83069,0 25.04269,11.212 25.04269,25.04269c0,13.83069 -11.212,25.04269 -25.04269,25.04269c-13.83069,0 -25.04269,-11.212 -25.04269,-25.04269z" data-paper-data="{&quot;origPos&quot;:null}" fill="#fb0000" stroke="#e60000" stroke-width="3" stroke-linecap="butt"/><path d="M188.95731,180.00002c0,-28.1901 22.85259,-51.04269 51.04269,-51.04269c28.1901,0 51.04269,22.85259 51.04269,51.04269c0,28.1901 -22.85259,51.04269 -51.04269,51.04269c-28.1901,0 -51.04269,-22.85259 -51.04269,-51.04269z" data-paper-data="{&quot;origPos&quot;:null}" fill="#fb0000" stroke="#e60000" stroke-width="3" stroke-linecap="butt"/><path d="M234,165.45c0,6.90356 -2.29454,12.5 -5.125,12.5c-2.83046,0 -5.125,-5.59644 -5.125,-12.5c0,-6.90356 -0.03879,-3.5 5.125,-6.5c2.44741,-1.42187 5.125,-0.40356 5.125,6.5z" data-paper-data="{&quot;origPos&quot;:null}" fill="#554813" stroke="none" stroke-width="0" stroke-linecap="butt"/><path d="M208.75,165.45c0,6.90356 -2.29454,12.5 -5.125,12.5c-2.83046,0 -5.125,-5.59644 -5.125,-12.5c0,-6.90356 3.03112,-8.40452 5.125,-6.5c5.49713,5 5.125,-0.40356 5.125,6.5z" data-paper-data="{&quot;origPos&quot;:null}" fill="#554813" stroke="none" stroke-width="0" stroke-linecap="butt"/><path d="M190.25,201.50668c0,0 12.45532,-6.83394 19.9361,-7.04767c9.59323,-0.27409 23.8139,5.79767 23.8139,5.79767" data-paper-data="{&quot;origPos&quot;:null,&quot;index&quot;:null}" fill="none" stroke="#554813" stroke-width="3" stroke-linecap="round"/><path d="M234.20731,194.75002c0,-13.8307 11.21199,-25.04269 25.04269,-25.04269c13.8307,0 25.04269,11.21199 25.04269,25.04269c0,13.8307 -11.21199,25.04269 -25.04269,25.04269c-13.8307,0 -25.04269,-11.21199 -25.04269,-25.04269z" data-paper-data="{&quot;origPos&quot;:null}" fill="#fb0000" stroke="#e60000" stroke-width="3" stroke-linecap="butt"/><path d="M182.67017,176.33804c4.10499,-1.8003 11.45483,-0.63803 11.45483,-0.63803c9.73402,0 17.625,4.19733 17.625,9.375c0,5.17767 -7.89098,9.375 -17.625,9.375c-4.03443,0 -9.11359,-0.29035 -12.89132,-1.70645c-4.15462,-1.55738 -4.73368,-3.23163 -4.73368,-7.66855c0,-5.17767 2.5171,-7.13487 6.17017,-8.73697z" data-paper-data="{&quot;origPos&quot;:null}" fill="#645416" stroke="#554813" stroke-width="3" stroke-linecap="butt"/><path d="M210.75668,110.37761c0,0 19.2699,2.54107 24.25288,5.99494c6.47105,4.48529 5.09666,14.34819 5.09666,14.34819" data-paper-data="{&quot;origPos&quot;:null}" fill="none" stroke="#84eb36" stroke-width="3" stroke-linecap="round"/><path d="M281.38242,128.40918c-1.52882,3.67428 -1.1527,3.51434 -16.3438,2.36944c-15.1911,-1.14491 -27.12448,-3.65661 -26.65396,-5.61005c0.47053,-1.95343 13.16678,-2.60887 28.35788,-1.46397c15.1911,1.14491 16.30648,0.69917 14.63988,4.70458z" data-paper-data="{&quot;origPos&quot;:null,&quot;origRot&quot;:0}" fill="#84eb36" stroke="none" stroke-width="0" stroke-linecap="butt"/><path d="M210.73588,118.29282c15.1911,-1.14491 27.88735,-0.48947 28.35788,1.46397c0.47053,1.95343 -11.46286,4.46514 -26.65396,5.61005c-15.1911,1.14491 -14.81497,1.30485 -16.3438,-2.36944c-1.6666,-4.00541 -0.55122,-3.55967 14.63988,-4.70458z" data-paper-data="{&quot;origPos&quot;:null,&quot;origRot&quot;:0,&quot;index&quot;:null}" fill="#84eb36" stroke="none" stroke-width="0" stroke-linecap="butt"/><path d="M215.07919,99.85252c-0.79194,3.71878 -3.72295,7.76082 -7.77528,7.76082c-4.05232,0 -7.12946,-4.06514 -8.21318,-7.76082c-1.31368,-4.4799 4.16085,-5.80126 8.21318,-5.80126c4.05232,0 8.65107,1.68878 7.77528,5.80126z" data-paper-data="{&quot;origPos&quot;:null}" fill="url(#color-1)" stroke="#e6e2bf" stroke-width="2" stroke-linecap="butt"/><path d="M207.48708,126.57654c-4.05232,0 -9.52686,-1.32136 -8.21318,-5.80126c1.08372,-3.69568 4.16085,-7.76082 8.21318,-7.76082c4.05232,0 6.98334,4.04205 7.77528,7.76082c0.87579,4.11248 -3.72296,5.80126 -7.77528,5.80126z" data-paper-data="{&quot;origPos&quot;:null,&quot;index&quot;:null}" fill="url(#color-2)" stroke="#e6e2bf" stroke-width="2" stroke-linecap="butt"/><path d="M234.70377,117.80526c-1.5391,2.09689 -5.80358,4.42785 -12.71333,2.04659c-5.70018,-1.96442 -11.25425,-5.10066 -9.71515,-7.19755c1.5391,-2.09689 9.33691,-2.07836 15.78767,-1.07575c7.13371,1.10877 8.17991,4.12981 6.64082,6.22671z" data-paper-data="{&quot;origPos&quot;:null,&quot;index&quot;:null,&quot;origRot&quot;:0}" fill="url(#color-3)" stroke="#e6e2bf" stroke-width="2" stroke-linecap="butt"/><path d="M231.40926,101.92757c2.31099,1.86201 3.4926,5.13107 -3.83539,7.08227c-6.04521,1.60964 -13.76979,2.51402 -16.08078,0.65201c-2.31099,-1.86201 1.95331,-5.51391 6.96276,-7.99858c5.53981,-2.74772 10.64241,-1.59772 12.9534,0.26429z" data-paper-data="{&quot;origPos&quot;:null,&quot;index&quot;:null,&quot;origRot&quot;:0}" fill="url(#color-4)" stroke="#e6e2bf" stroke-width="2" stroke-linecap="butt"/><path d="M196.41358,101.27584c5.00945,2.48467 9.27376,6.13656 6.96277,7.99857c-2.31099,1.86201 -10.03557,0.95763 -16.08078,-0.65201c-7.32799,-1.95121 -6.14638,-5.22026 -3.83539,-7.08227c2.31099,-1.86201 7.41359,-3.01201 12.9534,-0.26429z" data-paper-data="{&quot;origPos&quot;:null,&quot;index&quot;:null,&quot;origRot&quot;:0}" fill="url(#color-5)" stroke="#e6e2bf" stroke-width="2" stroke-linecap="butt"/><path d="M182.54861,118.5581c-2.31099,-1.86201 -3.4926,-5.13107 3.83539,-7.08227c6.04521,-1.60964 13.76979,-2.51402 16.08078,-0.65201c2.31099,1.86201 -1.95332,5.51391 -6.96277,7.99857c-5.53981,2.74772 -10.64241,1.59772 -12.9534,-0.26429z" data-paper-data="{&quot;origPos&quot;:null,&quot;index&quot;:null,&quot;origRot&quot;:0}" fill="url(#color-6)" stroke="#e6e2bf" stroke-width="2" stroke-linecap="butt"/><path d="M213.94684,110.19916c0,2.26675 -2.71374,4.10432 -6.06132,4.10432c-3.34758,0 -6.06132,-1.83756 -6.06132,-4.10432c0,-2.26675 2.71375,-4.10432 6.06132,-4.10432c3.34758,0 6.06132,1.83757 6.06132,4.10432z" data-paper-data="{&quot;origPos&quot;:null}" fill="#977f23" stroke="none" stroke-width="0" stroke-linecap="butt"/></g></g></svg>