<svg version="1.1" xmlns="http://www.w3.org/2000/svg" xmlns:xlink="http://www.w3.org/1999/xlink" width="465.53084" height="72.86587" viewBox="0,0,465.53084,72.86587"><defs><linearGradient x1="118.98678" y1="320.81661" x2="121.98701" y2="351.82883" gradientUnits="userSpaceOnUse" id="color-1"><stop offset="0" stop-color="#3affff"/><stop offset="1" stop-color="#3affff" stop-opacity="0"/></linearGradient><linearGradient x1="117.66604" y1="311.31285" x2="118.97383" y2="324.831" gradientUnits="userSpaceOnUse" id="color-2"><stop offset="0" stop-color="#b2b2b2"/><stop offset="1" stop-color="#666666"/></linearGradient><linearGradient x1="117.28102" y1="307.33304" x2="118.58881" y2="320.85118" gradientUnits="userSpaceOnUse" id="color-3"><stop offset="0" stop-color="#777777"/><stop offset="1" stop-color="#434343"/></linearGradient><radialGradient cx="93.85591" cy="317.88158" r="3.29278" gradientUnits="userSpaceOnUse" id="color-4"><stop offset="0" stop-color="#ffffff"/><stop offset="1" stop-color="#c3c3c3"/></radialGradient><radialGradient cx="142.54989" cy="313.17076" r="3.29278" gradientUnits="userSpaceOnUse" id="color-5"><stop offset="0" stop-color="#ffffff"/><stop offset="1" stop-color="#c3c3c3"/></radialGradient><radialGradient cx="126.63071" cy="314.71084" r="3.29278" gradientUnits="userSpaceOnUse" id="color-6"><stop offset="0" stop-color="#ffffff"/><stop offset="1" stop-color="#c3c3c3"/></radialGradient><radialGradient cx="110.24331" cy="316.29621" r="3.29278" gradientUnits="userSpaceOnUse" id="color-7"><stop offset="0" stop-color="#ffffff"/><stop offset="1" stop-color="#c3c3c3"/></radialGradient><radialGradient cx="454.6858" cy="335.5332" r="269.8654" gradientUnits="userSpaceOnUse" id="color-8"><stop offset="0" stop-color="#6681bd"/><stop offset="1" stop-color="#45577f"/></radialGradient><radialGradient cx="419.7281" cy="298.3784" r="335.2474" gradientUnits="userSpaceOnUse" id="color-9"><stop offset="0" stop-color="#45577f"/><stop offset="1" stop-color="#1f283a"/></radialGradient><radialGradient cx="419.72811" cy="296.43883" r="329.25269" gradientUnits="userSpaceOnUse" id="color-10"><stop offset="0" stop-color="#45577f"/><stop offset="1" stop-color="#1f283a"/></radialGradient><linearGradient x1="231.49064" y1="318.75333" x2="231.49064" y2="349.91034" gradientUnits="userSpaceOnUse" id="color-11"><stop offset="0" stop-color="#3affff"/><stop offset="1" stop-color="#3affff" stop-opacity="0"/></linearGradient><linearGradient x1="231.09119" y1="309.16655" x2="231.09119" y2="322.74782" gradientUnits="userSpaceOnUse" id="color-12"><stop offset="0" stop-color="#b2b2b2"/><stop offset="1" stop-color="#666666"/></linearGradient><linearGradient x1="231.09119" y1="305.16816" x2="231.09119" y2="318.74942" gradientUnits="userSpaceOnUse" id="color-13"><stop offset="0" stop-color="#777777"/><stop offset="1" stop-color="#434343"/></linearGradient><radialGradient cx="206.75917" cy="313.41199" r="3.29278" gradientUnits="userSpaceOnUse" id="color-14"><stop offset="0" stop-color="#ffffff"/><stop offset="1" stop-color="#c3c3c3"/></radialGradient><radialGradient cx="255.68049" cy="313.41199" r="3.29278" gradientUnits="userSpaceOnUse" id="color-15"><stop offset="0" stop-color="#ffffff"/><stop offset="1" stop-color="#c3c3c3"/></radialGradient><radialGradient cx="239.68699" cy="313.41199" r="3.29278" gradientUnits="userSpaceOnUse" id="color-16"><stop offset="0" stop-color="#ffffff"/><stop offset="1" stop-color="#c3c3c3"/></radialGradient><radialGradient cx="223.22308" cy="313.41199" r="3.29278" gradientUnits="userSpaceOnUse" id="color-17"><stop offset="0" stop-color="#ffffff"/><stop offset="1" stop-color="#c3c3c3"/></radialGradient></defs><g transform="translate(-85.79069,-294.3955)"><g data-paper-data="{&quot;isPaintingLayer&quot;:true}" fill-rule="nonzero" stroke-linejoin="miter" stroke-miterlimit="10" stroke-dasharray="" stroke-dashoffset="0" style="mix-blend-mode: normal"><g stroke="none" stroke-width="0" stroke-linecap="butt"><path d="M86.35842,355.27566l12.24887,-32.48747l40.11204,-3.88057l19.20239,29.44477z" fill="url(#color-1)"/><path d="M87.16642,327.90816l-1.30779,-13.51816l63.61482,-6.15431l1.30779,13.51816z" fill="url(#color-2)"/><path d="M92.39994,323.38478l-6.0872,-4.30087l-0.52205,-5.39625l63.61482,-6.15431l0.5447,5.63035l-4.2361,5.06328z" fill="url(#color-3)"/><path d="M90.57843,318.19865c-0.17512,-1.8101 1.1503,-3.41944 2.9604,-3.59455c1.8101,-0.17512 3.41944,1.1503 3.59455,2.9604c0.17512,1.8101 -1.1503,3.41944 -2.9604,3.59455c-1.8101,0.17512 -3.41944,-1.1503 -3.59455,-2.9604z" fill="url(#color-4)"/><path d="M139.27242,313.48783c-0.17512,-1.81011 1.1503,-3.41945 2.9604,-3.59456c1.81011,-0.17512 3.41944,1.1503 3.59455,2.96041c0.17512,1.81011 -1.15029,3.41944 -2.9604,3.59455c-1.81011,0.17512 -3.41944,-1.15029 -3.59455,-2.9604z" fill="url(#color-5)"/><path d="M123.35323,315.02791c-0.17512,-1.81011 1.1503,-3.41945 2.9604,-3.59456c1.81011,-0.17512 3.41944,1.1503 3.59455,2.96041c0.17512,1.81011 -1.15029,3.41944 -2.9604,3.59455c-1.81011,0.17512 -3.41944,-1.15029 -3.59455,-2.9604z" fill="url(#color-6)"/><path d="M106.96584,316.61328c-0.17512,-1.81011 1.1503,-3.41945 2.9604,-3.59456c1.81011,-0.17512 3.41944,1.1503 3.59455,2.96041c0.17512,1.81011 -1.15029,3.41944 -2.9604,3.59455c-1.81011,0.17512 -3.41944,-1.15029 -3.59455,-2.9604z" fill="url(#color-7)"/></g><path d="M283.9,312.7191h259.4741v53.6171h-259.4741z" fill="url(#color-8)" stroke="#496087" stroke-width="1.85033" stroke-linecap="butt"/><path d="M412.2087,295.2l137.8456,4l-9.7302,20l-38.0233,20.501l-47.9275,-20.501l-43.7863,29l-46.4891,-30l-45.2247,21.501l-68.94786,-27.77894l28.76875,-8.80889z" fill="url(#color-9)" stroke="url(#color-10)" stroke-width="1.60762" stroke-linecap="round"/><g stroke="none" stroke-width="0" stroke-linecap="butt"><path d="M195.6957,349.91034l15.32029,-31.15701h40.29931l16.27781,31.15701z" fill="url(#color-11)"/><path d="M199.13527,322.74782v-13.58127h63.91182v13.58127z" fill="url(#color-12)"/><path d="M204.78004,318.74942l-5.64477,-4.86704v-5.42144h63.91182v5.65664l-4.70398,4.63184z" fill="url(#color-13)"/><path d="M203.46639,313.41199c0,-1.81855 1.47423,-3.29278 3.29278,-3.29278c1.81855,0 3.29278,1.47423 3.29278,3.29278c0,1.81855 -1.47423,3.29278 -3.29278,3.29278c-1.81855,0 -3.29278,-1.47423 -3.29278,-3.29278z" fill="url(#color-14)"/><path d="M252.38772,313.41199c0,-1.81856 1.47423,-3.29279 3.29278,-3.29279c1.81856,0 3.29278,1.47423 3.29278,3.29279c0,1.81856 -1.47422,3.29278 -3.29278,3.29278c-1.81856,0 -3.29278,-1.47422 -3.29278,-3.29278z" fill="url(#color-15)"/><path d="M236.39421,313.41199c0,-1.81856 1.47423,-3.29279 3.29278,-3.29279c1.81856,0 3.29278,1.47423 3.29278,3.29279c0,1.81856 -1.47422,3.29278 -3.29278,3.29278c-1.81856,0 -3.29278,-1.47422 -3.29278,-3.29278z" fill="url(#color-16)"/><path d="M219.9303,313.41199c0,-1.81856 1.47423,-3.29279 3.29278,-3.29279c1.81856,0 3.29278,1.47423 3.29278,3.29279c0,1.81856 -1.47422,3.29278 -3.29278,3.29278c-1.81856,0 -3.29278,-1.47422 -3.29278,-3.29278z" fill="url(#color-17)"/></g></g></g></svg>