<svg version="1.1" xmlns="http://www.w3.org/2000/svg" xmlns:xlink="http://www.w3.org/1999/xlink" width="101.07227" height="149.99511" viewBox="0,0,101.07227,149.99511"><g transform="translate(-188.25371,-105.38092)"><g data-paper-data="{&quot;isPaintingLayer&quot;:true}" fill-rule="nonzero" stroke-linejoin="miter" stroke-miterlimit="10" stroke-dasharray="" stroke-dashoffset="0" style="mix-blend-mode: normal"><g data-paper-data="{&quot;index&quot;:null}" stroke="none" stroke-width="0" stroke-linecap="butt"><path d="M271.29726,251.66791c-2.35226,4.5087 -5.74187,5.27952 -15.48696,0.22319c-7.69113,-4.15063 -11.02936,-7.01237 -8.81084,-11.85262c1.44251,-3.1472 8.37477,-2.69866 14.8327,0.67054c6.45792,3.36919 11.06591,7.89056 9.46512,10.95889z" data-paper-data="{&quot;origPos&quot;:null}" fill="#f3c08d"/><path d="M274.40168,249.23005c-1.84374,3.53401 -3.98311,6.75813 -17.29404,-0.18638c-13.92823,-7.26657 -10.98629,-10.33374 -9.14254,-13.86776c2.46048,-4.71615 7.83764,-6.66041 14.99467,-3.11447c7.15702,3.54595 14.28787,11.71364 11.44193,17.16862z" data-paper-data="{&quot;origPos&quot;:null}" fill="#945a21"/></g><path d="M280.5236,208.39378c-5.41118,1.0476 -30.26948,-4.79441 -24.19819,-9.94927c2.21031,-1.87667 11.46896,-0.88914 16.82445,-2.19187c5.08094,-1.23594 12.46255,-12.11759 14.54466,-0.72581c1.00141,5.479 -6.63503,6.84088 -6.63503,6.84088c0,0 6.4853,4.66678 -0.5359,6.02608z" data-paper-data="{&quot;origRot&quot;:0,&quot;index&quot;:null}" fill="#ffdebd" stroke="none" stroke-width="0" stroke-linecap="butt"/><g stroke="none" stroke-width="0" stroke-linecap="butt"><path d="M288.85269,145.58603c-0.26406,16.62627 -8.27456,29.3997 -46.07894,29.85363c-46.96694,0.56394 -53.63265,-5.46596 -54.04131,-29.36922c-0.15985,-9.35043 1.48696,-18.46488 7.43707,-24.6067c13.93907,-14.38819 26.39572,-16.08282 44.25767,-16.08282c26.74467,0 48.9207,9.02635 48.42551,40.20512z" data-paper-data="{&quot;origPos&quot;:null}" fill="#ffffff"/><path d="M268.22793,130.13716c0.4095,13.72626 -10.69405,21.70068 -22.82812,21.49632c-15.05298,-0.25351 -23.85375,-9.73172 -23.85375,-21.3327c0,-13.56455 10.85943,-20.298 24.87938,-20.45773c14.36282,-0.16363 21.51368,10.61305 21.8025,20.29409z" fill="#ffdd45"/><path d="M206.68978,140.14047c3.0624,14.72856 -14.30747,24.58117 -14.30747,24.58117c0,0 -4.4893,-6.7545 -4.1053,-22.29766c0.32626,-13.20596 6.19341,-19.00879 6.19341,-19.00879c0,0 9.15696,1.99672 12.21936,16.72528z" data-paper-data="{&quot;origRot&quot;:0}" fill="#ffdd45"/><path d="M285.54582,125.98496c0,0 3.59084,3.12839 3.7779,16.51825c0.08235,5.89455 -2.1097,14.5753 -2.1097,14.5753c0,0 -8.35544,-3.81052 -8.47955,-17.21086c-0.1126,-14.72701 6.81135,-13.88269 6.81135,-13.88269z" fill="#ffdd45"/></g><g stroke="none" stroke-width="0" stroke-linecap="butt"><path d="M267.55318,219.93537c0,11.27968 -10.52516,17.42368 -23.91978,17.42368c-13.39462,0 -24.58644,-6.14399 -24.58644,-17.42368c0,-7.51824 2.51856,-13.80637 7.82192,-19.13536c5.61111,-5.63823 8.40953,-6.55465 16.1991,-6.55465c0,0 11.27942,-1.57367 16.404,4.81451c4.52483,5.64056 8.0812,9.59583 8.0812,20.87552z" data-paper-data="{&quot;origPos&quot;:null}" fill="#ffdebd"/><path d="M267.84725,220.06153c-0.9687,11.238 -7.2593,19.0719 -23.15311,19.09035c-15.0622,0.01748 -26.46541,-7.16625 -26.15311,-19.09035c-0.23209,-2.41232 0.25058,-5.27556 0.25058,-5.27556c0,0 16.84505,0.16964 24.63462,0.16964l24.23079,-0.21975c0,0 0.42231,2.63322 0.19023,5.32567z" data-paper-data="{&quot;origPos&quot;:null}" fill="#ffffff"/></g><g stroke="none" stroke-width="0" stroke-linecap="butt"><path d="M234.96229,227.48471c-2.73632,1.24178 -17.91185,-2.01195 -17.91185,-2.01195c0,0 -1.937,-8.54594 1.44977,-15.7352c5,-10.61372 14.90421,-13.91277 14.90421,-13.91277c0,0 8.27659,28.88261 1.55786,31.65991z" data-paper-data="{&quot;origPos&quot;:null}" fill="#ffdd45"/><path d="M217.76542,227.91758l-1.30554,-4.11084c0,0 9.70886,1.28903 15.27483,1.66079c4.19226,0.28 3.86019,-5.59735 3.02535,-16.11114c-0.768,-9.67202 -3.66794,-15.14686 -3.66794,-15.14686h6.03427c0,0 6.42555,23.7652 1.60124,33.00934c-3.1361,6.00926 -20.96222,0.69871 -20.96222,0.69871z" data-paper-data="{&quot;origPos&quot;:null}" fill="#fff959"/></g><path d="M205.34895,205.31417c0,0 -7.74337,-0.45836 -7.39039,-6.01693c0.73391,-11.55721 9.3389,-1.61472 14.5296,-0.98221c5.47119,0.66669 14.55052,-1.39814 16.96536,0.20682c6.63311,4.40851 -17.37015,13.12099 -22.86677,12.71419c-7.13206,-0.52784 -1.2378,-5.92188 -1.2378,-5.92188z" data-paper-data="{&quot;origRot&quot;:0}" fill="#ffdebd" stroke="none" stroke-width="0" stroke-linecap="butt"/><g data-paper-data="{&quot;index&quot;:null}" stroke="none" stroke-width="0" stroke-linecap="butt"><path d="M253.31609,194.3248c0,0 9.52471,3.49908 13.4282,14.1128c2.64405,7.18926 1.7406,13.86889 1.7406,13.86889c0,0 -6.90801,4.85343 -9.04425,3.61164c-6.44506,-11.97557 -6.12455,-31.59332 -6.12455,-31.59332z" data-paper-data="{&quot;origPos&quot;:null}" fill="#ffdd45"/><path d="M249.8007,194.87619l4.21094,-0.16666c0,0 4.87669,26.69466 7.23317,27.91377c2.22863,1.15297 7.4414,-0.74971 7.4414,-0.74971l-0.84892,4.11084c0,0 -10.29751,3.42746 -12.09303,-1.44269c-1.47146,-3.99115 -5.94356,-29.66555 -5.94356,-29.66555z" data-paper-data="{&quot;origPos&quot;:null}" fill="#fff959"/></g><g data-paper-data="{&quot;index&quot;:null}" stroke="none" stroke-width="0" stroke-linecap="butt"><path d="M219.88055,251.11878c-1.74169,-2.99061 2.65116,-7.72128 8.94549,-11.38701c6.29434,-3.66574 13.19826,-4.43602 14.7855,-1.35927c2.44111,4.7319 -0.76049,7.74572 -8.25038,12.24936c-9.49952,5.50384 -12.9213,4.89141 -15.48059,0.49693z" data-paper-data="{&quot;origPos&quot;:null}" fill="#f3c08d"/><path d="M227.2977,231.14596c6.98446,-3.87478 12.44618,-2.18257 15.12323,2.41411c2.00603,3.44449 5.08736,6.3716 -8.48805,14.27774c-12.97375,7.55574 -15.26067,4.43454 -17.26669,0.99006c-3.09643,-5.3168 3.64705,-13.80712 10.63151,-17.6819z" data-paper-data="{&quot;origPos&quot;:null}" fill="#945a21"/></g><g><path d="M243.45895,198.79159c-11.93126,0.59837 -24.92995,-4.48828 -27.45638,-18.25388c-1.3935,-7.59265 -0.89114,-12.12711 -0.89114,-12.12711c0,0 5.35517,-4.92262 27.21564,-7.05557c17.32727,-1.69063 25.73091,6.02229 25.73091,6.02229c0,0 1.39225,6.83735 0.33504,12.31588c-1.05721,5.47853 -3.18,18.0074 -24.93407,19.09839z" fill="#ffdebd" stroke="none" stroke-width="0" stroke-linecap="butt"/><path d="M247.525,189.45956c0,0 -3.52586,1.15242 -6.4716,0.50522c-2.98556,-0.65594 -5.87817,-2.82872 -5.87817,-2.82872" fill="none" stroke="#564031" stroke-width="2.5" stroke-linecap="round"/><path d="M235.29275,183.79582c0,0 0.06045,1.74986 -0.59496,3.20775c-0.76532,1.70238 -2.34149,2.658 -2.34149,2.658" fill="none" stroke="#564031" stroke-width="2.5" stroke-linecap="round"/><g stroke="none" stroke-width="0" stroke-linecap="butt"><path d="M240.56183,166.47934c2.30282,0 3.06004,2.3002 3.06004,7.70286c0,5.01982 -0.96149,7.70286 -3.06004,7.70286c-2.09856,0 -3.06003,-2.49162 -3.06003,-7.70285c0,-5.40266 0.75721,-7.70285 3.06003,-7.70285z" fill="#000000"/><path d="M242.18473,170.05297c0,1.50593 -0.17803,2.30328 -1.3473,2.30328c-1.10358,0 -1.31444,-0.66602 -1.34728,-2.27046c-0.03618,-1.76824 0.6032,-2.18006 1.34728,-2.18006c0.74409,0 1.3473,0.37862 1.3473,2.14722z" fill="#ffffff"/></g><g stroke="none" stroke-width="0" stroke-linecap="butt"><path d="M254.10509,166.4638c2.30282,0 3.06004,2.3002 3.06004,7.70286c0,5.01982 -0.96148,7.70286 -3.06004,7.70286c-2.09856,0 -3.06002,-2.49162 -3.06002,-7.70285c0,-5.40266 0.7572,-7.70285 3.06002,-7.70285z" fill="#000000"/><path d="M255.72797,170.03745c0,1.50593 -0.17803,2.30329 -1.34729,2.30329c-1.10358,0 -1.31444,-0.66602 -1.34728,-2.27046c-0.03618,-1.76824 0.6032,-2.18006 1.34728,-2.18006c0.74408,0 1.34729,0.37863 1.34729,2.14722z" fill="#ffffff"/></g></g></g></g></svg>