<svg version="1.1" xmlns="http://www.w3.org/2000/svg" xmlns:xlink="http://www.w3.org/1999/xlink" width="574.41369" height="211.11886" viewBox="0,0,574.41369,211.11886"><defs><radialGradient cx="90.25358" cy="238.55856" r="134.49794" gradientUnits="userSpaceOnUse" id="color-1"><stop offset="0" stop-color="#fcda74"/><stop offset="1" stop-color="#dac37c"/></radialGradient><radialGradient cx="368.80346" cy="226.093" r="150.18938" gradientUnits="userSpaceOnUse" id="color-2"><stop offset="0" stop-color="#fcda74"/><stop offset="1" stop-color="#dac37c"/></radialGradient></defs><g transform="translate(53.52009,-176.63104)"><g data-paper-data="{&quot;isPaintingLayer&quot;:true}" fill-rule="nonzero" stroke="none" stroke-width="0" stroke-linecap="butt" stroke-linejoin="miter" stroke-miterlimit="10" stroke-dasharray="" stroke-dashoffset="0" style="mix-blend-mode: normal"><path d="M202.4066,360.34476c-23.82147,22.22483 -67.63866,21.60719 -109.06112,21.60719c-45.343,0 -97.78352,10.32757 -125.73832,-17.4927c-17.84091,-17.75506 -21.12725,-77.52238 -21.12725,-92.86766c0,-39.38968 71.03846,-77.32733 145.31962,-77.32733c74.28116,0 132.95199,46.94666 132.95199,86.33634c0,17.42425 -3.44835,62.11413 -22.34492,79.74416z" fill="url(#color-1)"/><path d="M518.99282,273.03994c0,23.13796 10.766,87.05453 -18.94626,105.43877c-26.77061,16.56412 -321.16303,8.96489 -323.30208,-7.34361c-1.45592,-11.10021 31.51171,-88.76234 31.51171,-108.15521c0,-43.98514 79.32628,-86.34885 162.27358,-86.34885c82.9473,0 148.46306,52.42377 148.46306,96.40891z" fill="url(#color-2)"/></g></g></svg>