<svg version="1.1" xmlns="http://www.w3.org/2000/svg" xmlns:xlink="http://www.w3.org/1999/xlink" width="111.36401" height="212.86854" viewBox="0,0,111.36401,212.86854"><defs><linearGradient x1="253.75991" y1="196.38052" x2="253.75991" y2="250.40416" gradientUnits="userSpaceOnUse" id="color-1"><stop offset="0" stop-color="#6a17af"/><stop offset="1" stop-color="#6215a2"/></linearGradient><linearGradient x1="239.92035" y1="246.97852" x2="278.71474" y2="246.31706" gradientUnits="userSpaceOnUse" id="color-2"><stop offset="0" stop-color="#8d6431"/><stop offset="1" stop-color="#ac793c"/></linearGradient><linearGradient x1="225.8941" y1="197.4676" x2="225.8941" y2="251.52353" gradientUnits="userSpaceOnUse" id="color-3"><stop offset="0" stop-color="#6a17af"/><stop offset="1" stop-color="#6215a2"/></linearGradient><linearGradient x1="211.01179" y1="247.85256" x2="249.81182" y2="247.85256" gradientUnits="userSpaceOnUse" id="color-4"><stop offset="0" stop-color="#8d6431"/><stop offset="1" stop-color="#ac793c"/></linearGradient><linearGradient x1="244.43624" y1="136.58184" x2="241.33411" y2="205.70859" gradientUnits="userSpaceOnUse" id="color-5"><stop offset="0" stop-color="#6f18b4"/><stop offset="1" stop-color="#6a17af"/></linearGradient><linearGradient x1="257.04095" y1="139.0323" x2="255.52042" y2="172.91508" gradientUnits="userSpaceOnUse" id="color-6"><stop offset="0" stop-color="#8328ce"/><stop offset="1" stop-color="#6a17af"/></linearGradient><linearGradient x1="235.35837" y1="138.74077" x2="233.83562" y2="172.67321" gradientUnits="userSpaceOnUse" id="color-7"><stop offset="0" stop-color="#8328ce"/><stop offset="1" stop-color="#6a17af"/></linearGradient><linearGradient x1="222.26346" y1="85.04867" x2="288.50699" y2="85.04867" gradientUnits="userSpaceOnUse" id="color-8"><stop offset="0" stop-color="#de5112"/><stop offset="1" stop-color="#b7430f"/></linearGradient></defs><g transform="translate(-186.97204,-49.49836)"><g data-paper-data="{&quot;isPaintingLayer&quot;:true}" fill-rule="nonzero" stroke-linejoin="miter" stroke-miterlimit="10" stroke-dasharray="" stroke-dashoffset="0" style="mix-blend-mode: normal"><g data-paper-data="{&quot;origRot&quot;:0}" stroke="none" stroke-width="0" stroke-linecap="butt"><path d="M264.16602,248.1452c-8.28297,3.12265 -10.99661,3.9189 -18.9789,0.09244c-5.43663,-2.60616 -2.47238,-4.66185 -1.02775,-13.30285c0.33826,-1.32398 2.79155,-13.36574 4.15257,-24.54643c0.79367,-6.51991 0.81688,-14.1507 0.81688,-14.1507l12.18447,0.42539l0.46141,24.39992c0,0 0.04279,7.93107 3.30502,13.82167c3.26223,5.8906 5.77301,10.7397 -0.9137,13.26056z" data-paper-data="{&quot;origPos&quot;:null}" fill="url(#color-1)"/><path d="M277.02141,252.96979c0,0 -3.4726,6.04748 -7.13155,7.39298c-2.39787,0.88175 -14.33225,1.53423 -20.53079,-1.42928c-1.92437,-0.92005 -3.61888,-3.23347 -3.61888,-3.23347c0,0 -4.95541,1.17881 -5.06304,-0.27402c-0.08543,-1.15328 -0.2794,-3.11308 0.78689,-3.80497c4.58986,-2.97826 15.97492,-3.92922 21.42713,-4.3876c7.48468,-0.62925 14.13025,5.73638 14.13025,5.73638z" data-paper-data="{&quot;origPos&quot;:null}" fill="#f8dca0"/><path d="M278.489,247.93205c0,0 -5.25721,8.29459 -13.71874,9.00597c-8.46153,0.71137 -17.92581,-3.43533 -17.92581,-3.43533c0,0 -6.0987,0.8375 -6.35477,-0.72376c-0.53,-3.23138 -1.0348,-8.53413 0.18185,-8.81119c4.49147,-1.02279 3.68494,-0.33525 9.52175,-2.10574c3.77904,-1.1463 9.89992,-5.35399 13.83513,-5.68482c8.46153,-0.71138 14.46062,11.75486 14.46062,11.75486z" data-paper-data="{&quot;origPos&quot;:null}" fill="url(#color-2)"/></g><g data-paper-data="{&quot;origRot&quot;:0}" stroke="none" stroke-width="0" stroke-linecap="butt"><path d="M236.2339,249.44945c-8.335,2.98099 -15.0476,2.86279 -22.96349,-1.0992c-5.39141,-2.69847 1.59323,-3.83525 3.18496,-12.45036c0.36077,-1.31803 3.73318,-13.30404 5.28462,-24.4599c0.90471,-6.50544 2.19825,-13.97239 2.19825,-13.97239l12.17544,0.63305l-1.09487,24.24191c0,0 -0.80661,7.91847 2.35473,13.86383c3.16134,5.94536 5.58908,10.83656 -1.13964,13.24306z" data-paper-data="{&quot;origPos&quot;:null}" fill="url(#color-3)"/><path d="M248.00532,254.47548c0,0 -3.5752,5.9874 -7.25655,7.27032c-2.41256,0.84075 -14.35632,1.28968 -20.50344,-1.77907c-1.90841,-0.95272 -3.56323,-3.2947 -3.56323,-3.2947c0,0 -4.97478,1.09416 -5.05763,-0.3603c-0.06576,-1.15457 -0.22629,-3.11739 0.85164,-3.791c4.63996,-2.89958 16.03958,-3.65632 21.49881,-4.02168c7.49432,-0.50156 14.0304,5.97644 14.0304,5.97644z" data-paper-data="{&quot;origPos&quot;:null}" fill="#f8dca0"/><path d="M249.55858,249.46344c0,0 -5.39785,8.20376 -13.87028,8.77078c-8.47243,0.56702 -17.86464,-3.74042 -17.86464,-3.74042c0,0 -6.11209,0.73341 -6.3415,-0.83199c-0.47483,-3.23994 -0.88916,-8.55053 0.33203,-8.80681c4.50825,-0.94607 3.69012,-0.27238 9.55627,-1.94311c3.79804,-1.08171 9.98975,-5.18444 13.93003,-5.44814c8.47243,-0.56702 14.25812,11.99968 14.25812,11.99968z" data-paper-data="{&quot;origPos&quot;:null}" fill="url(#color-4)"/></g><g stroke="none" stroke-linecap="butt"><g data-paper-data="{&quot;origPos&quot;:null,&quot;index&quot;:null,&quot;origRot&quot;:0}" stroke-width="0"><path d="M258.80646,143.38744c3.10818,-0.9187 5.75278,-1.22475 10.22961,5.66112c2.86561,4.40763 6.46825,22.08714 6.46825,22.08714l6.78784,15.6202l-15.24596,4.69722l-4.3614,-16.15401c0,0 -5.04929,-11.46301 -5.96388,-14.55726c-2.75914,-9.33479 -3.01218,-15.84763 2.08553,-17.35441z" data-paper-data="{&quot;origRot&quot;:0,&quot;origPos&quot;:null}" fill="#ff5e15"/><g data-paper-data="{&quot;origPos&quot;:null}" fill="#ffffff"><path d="M275.32504,194.14012c8.87236,-3.07111 19.40747,-5.35502 22.70536,3.14692c0.22962,0.59196 1.10706,7.3957 -1.77463,11.65521c-3.81365,5.63706 -9.91793,10.55372 -9.91793,10.55372c0,0 -9.72418,-0.14409 -15.60438,-2.11359c-4.28904,-1.43655 -7.14114,-6.33351 -7.26038,-6.64603c-3.08114,-8.07508 2.97961,-13.5251 11.85196,-16.59623z" data-paper-data="{&quot;origRot&quot;:0,&quot;origPos&quot;:null}"/><path d="M273.9749,186.33248c6.85309,-2.36207 14.21136,-6.39368 15.6041,-0.99178c1.55804,6.04308 -0.3465,6.30659 -11.64084,9.88986c-12.86635,4.082 -14.08967,7.04828 -16.11963,0.50782c-1.18536,-3.81918 5.30329,-7.04382 12.15637,-9.4059z" data-paper-data="{&quot;origRot&quot;:0,&quot;origPos&quot;:null}"/></g></g><path d="M284.9632,214.04581l-5.6907,-5.05333l-8.57698,-0.45447l6.12989,-5.72037l0.51578,-8.13667l5.4959,5.94656l7.7642,-0.07787l-5.01499,5.97566z" data-paper-data="{&quot;origRot&quot;:0,&quot;index&quot;:null}" fill="#6f18b4" stroke-width="NaN"/></g><g><path d="M267.34064,167.65535c-0.86189,27.43869 2.13927,39.56027 -28.3996,37.94354c-6.93918,-0.4019 -10.91855,0.28505 -14.02267,-2.84191c-3.77153,-3.79928 -3.11524,-9.65626 -3.80013,-16.02059c-0.42809,-3.97798 -2.83687,-8.45915 -2.68607,-11.81945c0.64073,-14.27769 0.28832,-26.0057 8.70153,-34.74179c6.26809,-6.50864 12.60399,-3.05894 20.33679,-2.71954c14.2993,0.6276 20.71501,3.30369 19.87016,30.19973z" fill="url(#color-5)" stroke="none" stroke-width="0" stroke-linecap="butt"/><path d="M267.61089,166.8886c0,0 -16.35128,1.87769 -27.8195,1.89342c-10.51913,0.01442 -20.89192,-5.32907 -20.89192,-5.32907c0,0 -0.12697,-17.90793 7.68959,-24.52612c5.11414,-4.33008 10.70294,-5.57633 17.80763,-5.49918c7.10469,0.07716 14.68437,3.4204 18.07703,7.55713c8.01381,9.77143 5.13718,25.90382 5.13718,25.90382z" fill="#ff5e15" stroke="none" stroke-width="0" stroke-linecap="butt"/><path d="M252.11019,139.60709c0,0 3.49831,8.47758 4.61254,14.02061c1.11423,5.54303 0.9076,21.35798 0.9076,21.35798" data-paper-data="{&quot;origRot&quot;:0}" fill="none" stroke="url(#color-6)" stroke-width="10" stroke-linecap="round"/><path d="M232.56303,140.99166c0,0 2.02505,7.71931 2.91726,12.67565c0.89221,4.95634 0.69982,20.69119 0.69982,20.69119" fill="none" stroke="url(#color-7)" stroke-width="10" stroke-linecap="round"/><path d="M258.53463,178.00553l-2.03458,-3.5681l-4.30592,-1.71664l4.12357,-1.86344l1.6718,-4.07022l1.78041,3.99101l3.98256,1.30385l-3.59781,2.18689z" data-paper-data="{&quot;origRot&quot;:0,&quot;index&quot;:null}" fill="#ffe84f" stroke="none" stroke-width="NaN" stroke-linecap="butt"/><path d="M235.26422,178.23175l-1.61203,-3.77785l-4.08069,-2.19904l4.31005,-1.37833l2.12746,-3.8517l1.31105,4.16884l3.80679,1.75191l-3.82483,1.75993z" data-paper-data="{&quot;origRot&quot;:0,&quot;index&quot;:null}" fill="#ffe84f" stroke="none" stroke-width="NaN" stroke-linecap="butt"/></g><g stroke="none" stroke-linecap="butt"><g data-paper-data="{&quot;origPos&quot;:null}" stroke-width="0"><path d="M217.84084,192.8305l-17.96231,-4.39501l7.80508,-16.12915c0,0 2.2522,-9.22379 2.79808,-11.61646c2.16515,-9.49017 10.41845,-19.73359 15.60102,-18.55119c5.18257,1.18239 5.76773,5.99878 3.60258,15.48895l-7.75154,18.47739z" data-paper-data="{&quot;origRot&quot;:0,&quot;origPos&quot;:null}" fill="#ff5e15"/><g data-paper-data="{&quot;origPos&quot;:null}" fill="#ffffff"><path d="M222.62257,211.8501c-1.30173,11.03752 -23.87054,10.40158 -23.87054,10.40158c0,0 -5.17912,-3.95182 -8.42154,-8.40338c-3.321,-4.55946 -3.80769,-9.69034 -3.04442,-13.24208c2.07934,-9.67581 13.41348,-7.07776 22.46179,-4.57211c9.04832,2.50565 14.09017,5.50989 12.8747,15.81599z" data-paper-data="{&quot;origRot&quot;:0,&quot;origPos&quot;:null}"/><path d="M223.32829,196.77767c-1.61358,6.65544 -3.02149,3.77218 -16.11958,0.50946c-11.49777,-2.86408 -13.41515,-3.007 -12.24119,-9.13628c1.0494,-5.47896 8.64721,-1.91927 15.63558,0.00603c6.98836,1.92531 13.66742,4.73448 12.72519,8.62079z" data-paper-data="{&quot;origRot&quot;:0,&quot;origPos&quot;:null}"/></g></g><path d="M199.99152,208.83402l-5.20071,-5.81474l7.7628,-0.16671l5.30588,-6.11671l0.77179,8.11639l6.30702,5.52446l-8.55841,0.72439l-5.52872,5.23005z" data-paper-data="{&quot;origRot&quot;:0}" fill="#6f18b4" stroke-width="NaN"/></g><g><path d="M273.96016,61.16192c2.39648,14.94461 -0.49216,15.79448 -8.52168,20.57884c-11.69967,6.97121 -27.00365,6.10539 -39.50062,11.51887c-3.28137,1.42143 -11.64483,-2.57762 -15.22084,-2.57762c-7.31398,0 -11.44089,-5.22725 -11.74313,-11.45342c-0.66666,-13.7335 6.09582,-13.78676 13.4098,-13.78676c0,0 8.04926,1.33414 10.82961,5.60456c0,0 11.19763,-18.21899 23.00151,-20.46979c15.1949,-2.89741 26.02437,-0.14688 27.74535,10.58532z" fill="#ff5e15" stroke="none" stroke-width="0" stroke-linecap="butt"/><path d="M231.60186,138.05523c-1.67042,0.95629 -3.5316,1.48998 -5.49366,1.48998c-7.22573,0 -13.08333,-7.23806 -13.08333,-16.16667c0,-2.83492 0.59052,-5.49942 1.62786,-7.81591c2.22976,-4.97932 21.43042,19.92712 16.94913,22.4926z" fill="#e7be7a" stroke="none" stroke-width="0" stroke-linecap="butt"/><path d="M288.0662,88.18728c-0.56793,3.79329 -11.88999,8.6 -20.8,8.6c-7.1797,0 -5.39999,-6.75492 -5.39999,-10.4c0,-3.64508 14.0703,-2.85 21.25,-2.85c7.1797,0 5.31761,2.19464 4.95,4.65z" fill="#b7430f" stroke="none" stroke-width="0" stroke-linecap="butt"/><g data-paper-data="{&quot;index&quot;:null}"><path d="M268.82527,117.59357l-0.16667,11.66667c0,0 -11.55678,1.66666 -16.5,1.66666c-5.05432,0 -15.33334,-0.83333 -15.33334,-0.83333v-11.16667z" fill="#ffffff" stroke="none" stroke-width="0" stroke-linecap="butt"/><path d="M261.99192,120.0936v9.33333" fill="none" stroke="#a5b5ff" stroke-width="2" stroke-linecap="round"/><path d="M254.32526,120.09358v9.83333" fill="none" stroke="#a5b5ff" stroke-width="2" stroke-linecap="round"/><path d="M246.1586,129.92693v-9.5" fill="none" stroke="#a5b5ff" stroke-width="2" stroke-linecap="round"/></g><g><path d="M237.49193,139.92693v-11.16667c0,0 10.27902,-0.83333 15.33333,-0.83333c4.94322,0 14.66666,0.83333 14.66666,0.83333l-0.16667,8.66667z" fill="#ffffff" stroke="none" stroke-width="0" stroke-linecap="butt"/><path d="M262.6586,138.76027v-9.33333" fill="none" stroke="#a5b5ff" stroke-width="2" stroke-linecap="round"/><path d="M254.99193,138.76027v-9.83333" fill="none" stroke="#a5b5ff" stroke-width="2" stroke-linecap="round"/><path d="M246.82527,138.42693v-9.5" fill="none" stroke="#a5b5ff" stroke-width="2" stroke-linecap="round"/></g><path d="M215.00001,89.46005c5.58919,1.38715 7,3.8 7,3.8l24,-5l21.6,-0.2c0,0 0.106,10.59409 0.39999,16.3c0.06657,1.29206 0.81399,0.91075 1.70767,2.14466c0.8937,1.23391 1.65037,2.7708 2.00281,2.87831c4.96717,1.51529 5.86057,3.64265 5.8895,5.27703c0.11336,6.40216 -6.2,8.6 -6.2,8.6l-29.6,1.4l-3.4,3.4l-0.4,11.2c0,0 3.34533,-1.68801 6.02422,-1.91864c5.36655,-0.46202 24.17578,-0.68136 24.17578,-0.68136c0,0 0.08012,4.86496 -4,5.8c-4.93431,1.13079 -28.20667,1.41553 -33.8,-1.6c-2.9973,-1.61594 -4.46924,-2.4986 -6.19375,-5.90182c-1.1358,-2.24142 -0.09879,-3.01586 -0.89737,-5.46851c-0.6598,-2.02643 -2.766,-4.09575 -3.63374,-6.08819c-1.28142,-2.94229 -1.27893,-5.68075 -1.47514,-5.74148c-0.99168,-0.30692 -3.85974,-0.50017 -4.74021,-0.92387c-4.25236,-2.04631 -8.31456,-7.45172 -10.82724,-11.93544c-2.76256,-4.92962 -3.77735,-9.10004 -4.03255,-14.74069c-0.03149,-0.69599 10.51135,-1.34829 16.4,-0.6z" fill="#ffdebd" stroke="#000000" stroke-width="0" stroke-linecap="round"/><path d="M255.2978,102.14042c-0.30542,5.55549 -1.8547,6.24676 -7.72748,6.15422c-4.11393,-0.06482 -6.93598,-2.71232 -7.17222,-6.15422c-0.37017,-5.39343 3.3354,-6.24676 7.44984,-6.24676c4.11444,0 7.75814,0.63923 7.44986,6.24676z" fill="#ffffff" stroke="none" stroke-width="0" stroke-linecap="butt"/><path d="M267.79132,97.40685c-0.02255,2.50201 0.16865,6.11405 -3.47042,5.98286c-4.06241,-0.14645 -4.62237,-0.40593 -6.33932,-4.28693c-2.96143,-6.15049 3.15771,-5.90213 4.67351,-6.07708c3.76625,-0.43468 5.15877,1.87914 5.13623,4.38115z" data-paper-data="{&quot;index&quot;:null}" fill="#ffffff" stroke="none" stroke-width="0" stroke-linecap="butt"/><path d="M244.11193,107.40365c0,0 -4.66399,0.17083 -4.07742,-7.16927c0.38019,-4.75751 6.47036,-4.12118 6.47036,-4.12118" fill="none" stroke="#18c6ff" stroke-width="2" stroke-linecap="round"/><path d="M261.69047,93.28042c0,0 4.22083,-0.72559 5.52589,1.56669c2.44252,4.29008 -0.11057,7.51039 -0.11057,7.51039" fill="none" stroke="#18c6ff" stroke-width="2" stroke-linecap="round"/><path d="M252.80169,100.53277c0.63366,0 1.20715,0.25671 1.62286,0.67204c0.41579,0.4144 0.67288,0.98742 0.67288,1.62c0,0.63259 -0.25711,1.20562 -0.67288,1.62001c-0.4157,0.41532 -0.9892,0.67204 -1.62286,0.67204c-0.63358,0 -1.20709,-0.25671 -1.62286,-0.67204c-0.4157,-0.4144 -0.67281,-0.98743 -0.67281,-1.62001c0,-0.63259 0.25711,-1.20561 0.67281,-1.62c0.41579,-0.41532 0.98928,-0.67204 1.62286,-0.67204z" data-paper-data="{&quot;index&quot;:null}" fill="#000000" stroke="none" stroke-width="1.05702" stroke-linecap="butt"/><path d="M264.72604,98.41882c0.54842,0 1.04476,0.22217 1.40456,0.58165c0.35986,0.35865 0.58237,0.8546 0.58237,1.40209c0,0.54751 -0.22251,1.04343 -0.58237,1.40208c-0.35978,0.35947 -0.85613,0.58166 -1.40456,0.58166c-0.54837,0 -1.04473,-0.22218 -1.40458,-0.58166c-0.35977,-0.35865 -0.58232,-0.85459 -0.58232,-1.40208c0,-0.54751 0.22251,-1.04344 0.58232,-1.40209c0.35986,-0.35947 0.8562,-0.58165 1.40458,-0.58165z" data-paper-data="{&quot;index&quot;:null}" fill="#000000" stroke="none" stroke-width="1.05702" stroke-linecap="butt"/><path d="M229.8582,105.37854c-0.64374,0.86538 -2.0893,-0.29799 -3.47379,-2.54087c-0.40721,-0.65969 -0.99152,-1.86997 -1.61462,-3.25262c-0.69344,-0.28197 -1.86875,-0.98405 -2.42213,-2.49166c-0.78363,-2.13487 -0.45914,-4.12394 -0.45914,-4.12394l6.80302,-2.75757c0,0 0.46053,3.93362 0.88758,7.80899c0.37228,3.37832 0.75911,6.71238 0.27909,7.35767z" fill="#e7be7a" stroke="#000000" stroke-width="0" stroke-linecap="round"/><path d="M232.52486,127.04521c-0.61285,-0.41328 3.5,-3.33333 3.5,-3.33333c0,0 4.69323,-0.58958 7.18802,-1.61469c3.05813,-1.25658 4.98736,-2.83337 8.81198,-2.88531c3.2991,-0.04481 22.5,2.16666 22.5,2.16666c0,0 0.91607,4.51818 -1.83333,4.83333c-3.03617,0.34802 -6.49762,0.55102 -10.34276,0.38428c-3.45928,-0.15 -7.29264,-0.82948 -10.31765,-0.71661c-5.67436,0.21171 -9.19948,1.18213 -12.65789,1.49728c-3.12588,0.28485 -6.44134,-0.05713 -6.84835,-0.33162z" fill="#e7be7a" stroke="#000000" stroke-width="0" stroke-linecap="round"/><path d="M204.49192,95.59361c14.81513,-0.88784 18.2554,19.68672 7.16667,14.66667" fill="none" stroke="#f6b09a" stroke-width="3.5" stroke-linecap="round"/><path d="M216.65859,105.42694c-2.25365,0.81103 -7.66666,-0.5 -7.66666,-0.5" fill="none" stroke="#f6b09a" stroke-width="3" stroke-linecap="round"/><path d="M271.0662,69.68728c0,5.46762 -1.46317,9.58116 -12.2,9.9c-11.33464,0.33659 -12.2,-4.43238 -12.2,-9.9c0,-5.46762 5.46212,-9.9 12.2,-9.9c6.73787,0 12.2,4.43238 12.2,9.9z" fill="#ffffff" stroke="none" stroke-width="0" stroke-linecap="butt"/><path d="M288.4662,86.08728c-0.10146,0.43553 -10.22592,0.3521 -21.60818,2.04523c-5.57466,0.82924 -10.95104,0.85997 -14.59937,3.5017c-4.19793,3.0397 -30.53694,2.13845 -30.35609,1.36215c0.73933,-3.1735 3.16854,-8.15407 8.26364,-9.80909c6.15716,-2 27.29511,-7.38005 43.10212,-7.1384c6.46182,0.09879 15.93722,6.8649 15.19789,10.0384z" fill="url(#color-8)" stroke="none" stroke-width="0" stroke-linecap="butt"/><path d="M264.06842,64.779c0.6657,1.62584 -3.86912,5.71927 -4.8184,6.84002c-0.16406,0.1937 -0.67201,0.28073 -0.56926,0.51069c0.2127,0.47603 9.77976,-1.41007 5.63926,2.60271c-1.30541,1.26515 -8.46884,0.94671 -9.18272,-1.4299c-0.97165,-3.23481 5.4425,-5.57134 5.12489,-7.52626c-0.06628,-0.40801 -2.92366,0.7255 -4.50708,1.33739c-0.26353,0.22259 -0.60807,0.35741 -0.9851,0.35741c-0.82843,0 -1.5,-0.65086 -1.5,-1.45373c0,-0.18693 0.03641,-0.36561 0.10271,-0.52976c1.03092,-2.81351 9.45143,-3.74746 10.69569,-0.70856z" fill="#6f18b4" stroke="none" stroke-width="0.5" stroke-linecap="butt"/><g stroke="none" stroke-width="0" stroke-linecap="butt"><path d="M277.74886,114.36239c-0.49003,4.03597 1.10495,8.94318 -12.98598,8.69816c-5.45105,-0.0948 -16.57196,-0.9685 -16.46865,-5.46171c0.07504,-3.26312 3.72767,-2.96341 3.72767,-4.46155c0,-5.7511 3.325,-9.17375 9.80075,-9.67824c3.31011,-0.73506 16.71019,4.93678 15.92621,10.90333z" data-paper-data="{&quot;origPos&quot;:null}" fill="#f991fd"/><path d="M274.59087,113.3984c-0.55534,1.94368 -3.49341,2.80852 -6.56237,1.93167c-3.06896,-0.87685 -5.10666,-3.16333 -4.55132,-5.10701c0.55534,-1.94367 3.49341,-2.80851 6.56238,-1.93167c3.06896,0.87685 5.10666,3.16333 4.55132,5.10701z" data-paper-data="{&quot;origRot&quot;:0,&quot;origPos&quot;:null}" fill="#faaefc"/></g><path d="M268.25379,89.01127c0,0 -3.21813,0.2802 -4.9663,1.09601c-2.40287,1.12134 -8.12217,5.01194 -8.12217,5.01194c0,0 -4.1011,-1.31319 -6.60282,-1.95193c-1.86578,-0.47637 -7.06735,-1.53833 -7.06735,-1.53833" fill="none" stroke="#000000" stroke-width="3" stroke-linecap="round"/></g></g></g></svg>