<svg version="1.1" xmlns="http://www.w3.org/2000/svg" xmlns:xlink="http://www.w3.org/1999/xlink" width="522.86733" height="321.09598" viewBox="0,0,522.86733,321.09598"><defs><radialGradient cx="163.9765" cy="160.72057" r="212.0047" gradientUnits="userSpaceOnUse" id="color-1"><stop offset="0" stop-color="#fdd970"/><stop offset="1" stop-color="#c0a555"/></radialGradient><radialGradient cx="368.2669" cy="150.84097" r="192.935" gradientUnits="userSpaceOnUse" id="color-2"><stop offset="0" stop-color="#fdd970"/><stop offset="1" stop-color="#c0a555"/></radialGradient></defs><g transform="translate(29.51563,-70.31727)"><g data-paper-data="{&quot;isPaintingLayer&quot;:true}" fill-rule="nonzero" stroke="none" stroke-linecap="round" stroke-linejoin="miter" stroke-miterlimit="10" stroke-dasharray="" stroke-dashoffset="0" style="mix-blend-mode: normal"><path d="M108,74.69604c22.73622,16.15367 20.69331,41.08132 36.49828,62.58741c17.43795,23.72812 33.81806,32.95992 52.34201,55.95719c23.82998,29.58463 57.15971,172.75936 57.15971,172.75936l-283.51562,-5c0,0 51.41592,-167.72537 80.15439,-212.72708c20.43464,-31.9987 27.07957,-95.09144 57.36123,-73.57687z" data-paper-data="{&quot;origPos&quot;:null}" fill="url(#color-1)" stroke-width="1"/><path d="M369.1745,111.96835c29.16027,-9.96356 72.31319,26.53511 88.81143,51.12748c28.33048,42.22956 35.36577,228.31741 35.36577,228.31741l-217,-25c0,0 9.74949,-134.3639 24.31032,-157.16479c0,0 13.20506,-33.5383 23.88773,-53.97694c11.08243,-21.2035 12.84815,-32.44563 44.62475,-43.30315z" data-paper-data="{&quot;origPos&quot;:null}" fill="url(#color-2)" stroke-width="0.80812"/></g></g></svg>