<svg version="1.1" xmlns="http://www.w3.org/2000/svg" xmlns:xlink="http://www.w3.org/1999/xlink" width="171.2568" height="189.61336" viewBox="0,0,171.2568,189.61336"><defs><linearGradient x1="215.6831" y1="231.80816" x2="196.39716" y2="223.42163" gradientUnits="userSpaceOnUse" id="color-1"><stop offset="0" stop-color="#008c4d"/><stop offset="1" stop-color="#006638"/></linearGradient><linearGradient x1="246.73186" y1="168.10033" x2="246.73186" y2="250.77834" gradientUnits="userSpaceOnUse" id="color-2"><stop offset="0" stop-color="#b100c6"/><stop offset="1" stop-color="#9900aa"/></linearGradient><linearGradient x1="263.00784" y1="251.728" x2="263.17868" y2="272.75777" gradientUnits="userSpaceOnUse" id="color-3"><stop offset="0" stop-color="#008c4d"/><stop offset="1" stop-color="#006638"/></linearGradient><radialGradient cx="283.33333" cy="147.33333" r="20.52041" gradientUnits="userSpaceOnUse" id="color-4"><stop offset="0" stop-color="#fbc5fc"/><stop offset="1" stop-color="#f991fd"/></radialGradient></defs><g transform="translate(-161.61702,-83.16501)"><g data-paper-data="{&quot;isPaintingLayer&quot;:true}" fill="none" fill-rule="nonzero" stroke="none" stroke-width="none" stroke-linecap="none" stroke-linejoin="miter" stroke-miterlimit="10" stroke-dasharray="" stroke-dashoffset="0" font-family="none" font-weight="none" font-size="none" text-anchor="none" style="mix-blend-mode: normal"><g data-paper-data="{&quot;origPos&quot;:null,&quot;origRot&quot;:0}" stroke-width="0" stroke-linecap="round"><path d="M214.04098,235.50005c-0.20174,0.46393 -1.77298,2.40062 -2.70582,3.23713c-1.09591,0.98273 -2.82265,1.84089 -3.43005,2.26534c-0.20246,0.14148 -3.0776,0.52578 -3.48713,1.58102c-0.40954,1.05524 -0.06481,5.17581 -0.74479,8.39978c-0.67998,3.22397 -0.08543,4.0962 -1.99389,4.58525c-1.90847,0.48906 -3.64434,-1.01166 -5.36936,-2.69835c-1.72502,-1.6867 -4.32476,-4.2311 -5.34248,-7.77547c-1.01772,-3.54437 -0.55556,-5.53078 0.57202,-8.8384c1.12758,-3.30761 5.69369,-16.45031 11.29875,-25.98299c5.60506,-9.53268 7.48001,-8.34349 9.1579,-8.52158c0.50573,-0.05369 3.36777,-0.68711 4.13348,-0.31076c1.88365,0.92581 7.82646,4.72445 7.53273,9.0914c-0.29373,4.36695 -5.20702,14.81625 -9.62139,24.96767z" data-paper-data="{&quot;origPos&quot;:null}" fill="url(#color-1)" stroke="#000000"/><path d="M226.94781,211.67025c3.51986,-0.36532 1.74867,-0.76975 9.01116,1.01064c7.2625,1.78039 11.01567,3.04737 13.98173,4.62602c3.28056,1.74605 -6.72546,26.70065 -11.76423,31.23287c-5.03877,4.53221 -13.75063,-4.71174 -16.29427,-5.99514c-1.83023,-0.92345 -4.24118,-2.85132 -5.62176,-4.62554c-1.38059,-1.77424 -1.6328,-1.33635 -2.07307,-5.2633c-0.44027,-3.92695 -1.10715,-6.11765 0.35943,-10.0213c1.4666,-3.90365 4.67593,-6.74149 6.56618,-8.41273c1.89025,-1.67125 2.31498,-2.18619 5.83484,-2.55151z" data-paper-data="{&quot;origPos&quot;:null}" fill="#9900aa" stroke="#b100c6"/></g><g data-paper-data="{&quot;origPos&quot;:null,&quot;origRot&quot;:0}" stroke-width="0" stroke-linecap="butt"><g data-paper-data="{&quot;origPos&quot;:null}" stroke="none"><path d="M285.3493,219.07265c-10.19092,2.50134 -15.26707,6.31239 -16.61649,0.81465c-1.34942,-5.49774 -8.30208,-17.74579 -4.36309,-19.30321c3.29485,-1.30274 28.39607,-8.51225 31.76363,-7.41094c2.61966,0.85672 2.21563,7.2993 5.03746,18.79592c1.34942,5.49774 -5.6306,4.60224 -15.82153,7.10359z" data-paper-data="{&quot;origRot&quot;:0,&quot;origPos&quot;:null}" fill="#ffdebd"/><path d="M279.21997,200.31947c-10.19093,2.50135 -15.27252,5.19438 -16.62194,-0.30335c-1.34942,-5.49774 -0.44856,-12.19403 3.49043,-13.75145c2.39715,-1.96918 6.93335,-7.73626 10.30092,-6.63496c7.30658,-0.95512 18.52888,5.20689 21.3507,16.70351c0.67203,4.1594 -8.32918,1.48492 -18.5201,3.98627z" data-paper-data="{&quot;origRot&quot;:0,&quot;origPos&quot;:null}" fill="#fff70c"/></g><g data-paper-data="{&quot;origPos&quot;:null}"><path d="M300.83092,203.0057c0.60682,8.90846 3.68087,13.47763 -0.64117,21.29098c-2.35539,4.25809 -13.60282,5.55727 -18.45769,5.88797c-8.67837,0.59115 -11.57525,-4.64464 -12.279,-14.97603c-0.70375,-10.33139 5.76096,-19.18587 14.43932,-19.77702c8.67837,-0.59115 16.23479,-2.7573 16.93855,7.5741z" data-paper-data="{&quot;origPos&quot;:null,&quot;origRot&quot;:0}" fill="#ffdebd" stroke="#ffdebd"/><g data-paper-data="{&quot;origPos&quot;:null,&quot;origRot&quot;:0}" fill="#ffffff" stroke="none"><path d="M313.46118,191.112c14.82144,-2.18381 15.99834,10.53647 18.98605,24.01997c2.73793,12.35626 -8.22856,16.45324 -17.89356,16.95628c-13.32254,0.69341 -12.77812,-9.38486 -12.69628,-22.04055c0.08184,-12.6557 -2.23549,-16.89664 11.60379,-18.93572z" data-paper-data="{&quot;origRot&quot;:0,&quot;origPos&quot;:null}"/><path d="M298.05377,192.11307c9.22821,-0.23839 5.97061,2.60683 6.32637,20.79885c0.3123,15.96931 0.79992,18.51477 -7.58911,19.14043c-7.49896,0.55927 -5.53577,-10.57907 -5.48545,-20.35008c0.05032,-9.77101 1.35957,-19.45 6.7482,-19.5892z" data-paper-data="{&quot;origRot&quot;:0,&quot;origPos&quot;:null}"/></g></g></g><g data-paper-data="{&quot;origPos&quot;:null}"><path d="M229.67787,169.82957c15.39885,0 40.51731,-5.44824 52.39438,2.9966c15.94172,11.33491 16.91377,36.01156 16.91377,53.82034c0,16.41613 -22.9587,24.13183 -51.43391,24.13183c-28.47521,0 -53.79308,-8.23538 -53.05883,-42.43989c1.21973,-12.52806 6.70937,-38.50888 35.18458,-38.50888z" data-paper-data="{&quot;origPos&quot;:null,&quot;index&quot;:null}" fill="url(#color-2)" stroke="none" stroke-width="0" stroke-linecap="butt"/><path d="M235.17787,164.32957c15.39885,0 36.01731,-2.94824 47.89438,5.4966c8.04003,5.71663 15.97706,29.68937 15.97706,29.68937c0,0 -36.93426,-2.75059 -46.06329,1.13097c-4.09315,1.74035 -16.45869,7.13183 -21.9339,8.63183c-2.86947,0.78612 -34.29308,0.76462 -31.55883,-18.43989c1.21973,-12.52806 7.20937,-26.50888 35.68458,-26.50888z" data-paper-data="{&quot;origPos&quot;:null,&quot;index&quot;:null}" fill="#fff70c" stroke="none" stroke-width="0" stroke-linecap="butt"/><path d="M239.24095,205.29651l-1.5,-35.5" data-paper-data="{&quot;origPos&quot;:null}" fill="none" stroke="#b100c6" stroke-width="17" stroke-linecap="round"/><path d="M246.24095,205.29651c0,3.86599 -3.13401,7 -7,7c-3.86599,0 -7,-3.13401 -7,-7c0,-3.86599 3.13401,-7 7,-7c3.86599,0 7,3.13401 7,7z" data-paper-data="{&quot;origPos&quot;:null}" fill="#f3f3f3" stroke="none" stroke-width="0" stroke-linecap="butt"/><path d="M275.21759,167.54925l7.83813,11.27226l9.70859,23.72221" data-paper-data="{&quot;origPos&quot;:null,&quot;origRot&quot;:0}" fill="none" stroke="#b100c6" stroke-width="14" stroke-linecap="round"/><path d="M301.24091,200.29651c0,3.86599 -3.13401,7 -7,7c-3.86599,0 -7,-3.13401 -7,-7c0,-3.86599 3.13401,-7 7,-7c3.86599,0 7,3.13401 7,7z" data-paper-data="{&quot;origPos&quot;:null}" fill="#f3f3f3" stroke="none" stroke-width="0" stroke-linecap="butt"/></g><g data-paper-data="{&quot;origPos&quot;:null,&quot;origRot&quot;:0}" stroke-width="0" stroke-linecap="round"><path d="M267.0485,251.72882c0.5059,-0.00411 2.91384,0.64495 4.05716,1.15756c1.34319,0.60222 2.82876,1.83146 3.46335,2.21407c0.21152,0.12754 1.73062,2.59866 2.86124,2.54423c1.13061,-0.05443 4.75585,-2.04328 7.97807,-2.73156c3.22222,-0.68829 3.77768,-1.58587 4.99983,-0.04062c1.22215,1.54525 0.55596,3.74105 -0.28457,6.00251c-0.84054,2.26146 -2.10949,5.6706 -4.93484,8.04035c-2.82536,2.36975 -4.82823,2.75435 -8.30869,3.06759c-3.48047,0.31324 -17.34478,1.47962 -28.33239,0.23016c-10.98762,-1.24946 -10.66259,-3.44581 -11.50691,-4.9067c-0.25449,-0.44033 -1.99591,-2.79826 -1.96306,-3.65084c0.08082,-2.09732 1.13786,-9.07079 5.2476,-10.57631c4.10975,-1.50552 15.65393,-1.26053 26.72324,-1.35046z" data-paper-data="{&quot;origPos&quot;:null}" fill="url(#color-3)" stroke="#000000"/><path d="M240.03044,249.6149c-1.76365,-3.06796 -1.41372,-1.2852 -2.73698,-8.64471c-1.32325,-7.35951 -1.69011,-11.30376 -1.45243,-14.65536c0.26288,-3.70699 27.13042,-4.70065 33.31869,-1.93739c6.18826,2.76325 1.28026,14.47899 1.14078,17.32464c-0.10036,2.04755 -0.88263,5.03375 -1.94307,7.01602c-1.06045,1.98227 -0.55785,2.03486 -3.96737,4.03236c-3.40951,1.9975 -5.14042,3.49678 -9.30324,3.74236c-4.16282,0.24559 -8.05965,-1.53426 -10.35466,-2.58264c-2.29501,-1.04838 -2.93806,-1.22731 -4.70172,-4.29527z" data-paper-data="{&quot;origPos&quot;:null}" fill="#9900aa" stroke="#b100c6"/></g><g data-paper-data="{&quot;origPos&quot;:null,&quot;origRot&quot;:0}" stroke-linecap="butt"><g data-paper-data="{&quot;origPos&quot;:null}" stroke="none" stroke-width="0"><path d="M186.36826,205.67027c-5.63681,-0.52196 -2.50873,-6.82574 -1.54121,-17.27444c0.96751,-10.44872 -0.97475,-16.4918 4.66206,-15.96985c5.63681,0.52195 19.48478,-2.04483 19.66896,2.18687c0.15408,3.5397 -1.23816,29.61862 -3.37982,32.44113c-1.66602,2.19566 -7.62256,-0.29225 -19.40999,-1.38372z" data-paper-data="{&quot;origRot&quot;:0,&quot;origPos&quot;:null}" fill="#ffdebd"/><path d="M202.26657,207.5394c-4.15056,-0.72463 1.31948,-8.35701 2.28699,-18.80571c0.96751,-10.44872 0.08363,-16.13149 5.72044,-15.60953c5.63681,0.52195 11.67071,3.56233 11.8549,7.79404c1.07735,2.90917 5.04468,9.08144 2.90303,11.90394c-1.48588,7.21738 -10.97794,15.80873 -22.76536,14.71726z" data-paper-data="{&quot;origRot&quot;:0,&quot;origPos&quot;:null}" fill="#fff70c"/></g><g data-paper-data="{&quot;origPos&quot;:null}"><path d="M194.95027,208.27921c-8.61738,-2.33871 -13.94042,-0.92721 -19.91162,-7.566c-3.25415,-3.61795 -0.80517,-14.67214 0.46936,-19.36838c2.2783,-8.39482 8.17343,-9.42096 18.16726,-6.7087c9.99382,2.71228 16.2485,11.71633 13.9702,20.11117c-2.2783,8.39482 -2.70138,16.2442 -12.6952,13.53193z" data-paper-data="{&quot;origPos&quot;:null,&quot;origRot&quot;:0}" fill="#ffdebd" stroke="#ffdebd" stroke-width="0"/><g data-paper-data="{&quot;origPos&quot;:null,&quot;origRot&quot;:0}" fill="#ffffff" stroke="none" stroke-width="0"><path d="M202.06167,224.10358c-2.78133,14.72102 -15.18748,11.67498 -28.90687,10.09075c-12.57242,-1.45177 -12.85934,-13.15506 -10.17524,-22.4535c3.69986,-12.81725 13.04643,-9.00814 24.98005,-4.79363c11.93361,4.21452 16.69909,3.41085 14.10206,17.15637z" data-paper-data="{&quot;origRot&quot;:0,&quot;origPos&quot;:null}"/><path d="M206.15229,209.21545c-2.79143,8.79914 -4.41541,4.7904 -21.72422,-0.82039c-15.19402,-4.92527 -17.75905,-5.29654 -15.60794,-13.4292c1.92286,-7.26978 11.8075,-1.77331 21.02523,1.46841c9.21771,3.24171 17.93694,7.64312 16.30693,12.78118z" data-paper-data="{&quot;origRot&quot;:0,&quot;origPos&quot;:null}"/></g><path d="M169.32374,208.01097c0.72984,-1.86208 2.59192,-1.13224 2.59192,-1.13224l1.45448,3.07811c0.23645,1.73395 0.47288,3.46791 0.70932,5.20185c0.23645,1.73395 0.47289,3.46791 0.70933,5.20186c0.05069,0.37174 -0.20284,0.7771 -0.05983,1.12396c0.022,0.05337 0.05906,0.10648 0.10493,0.15904c0.3345,-0.31859 0.62013,-0.69281 0.88718,-1.10735c1.34129,-2.08211 2.12461,-3.4995 4.53983,-4.45422c3.62112,-1.43142 4.32222,2.09154 4.63887,4.41371c0.0832,0.87 -0.4109,3.53105 -0.14992,4.16401c0.07345,0.17813 0.31044,0.34894 0.48556,0.50853c0.94721,-0.51406 2.40115,-1.33934 3.13877,-2.03197c1.0122,-0.95048 1.79127,-2.27416 2.50289,-3.61388l-0.12718,-0.07611l1.6344,-2.73143c0.12586,-0.21449 0.29102,-0.4047 0.48709,-0.55962c0.45688,-0.38987 1.22554,-0.75187 2.23606,-0.16295c0.01753,0.0101 0.03489,0.02045 0.05208,0.03106c1.00001,0.61049 1.0477,1.45804 0.92131,2.04606c-0.03399,0.19527 -0.09665,0.38218 -0.18406,0.55551l-0.77622,1.59675l-0.12921,-0.06281c-2.00735,3.38298 -3.86975,6.36001 -7.59003,8.3613c-2.14262,1.15259 -4.84101,1.21267 -5.95468,-1.6046c-0.81814,-2.06968 -0.00531,-3.91016 -0.51019,-5.87941c-0.04504,-0.33028 -0.09007,-0.66055 -0.13511,-0.99083c-0.41854,0.17257 -0.69104,0.59002 -0.98886,0.931c-0.7998,0.91573 -2.29093,5.5215 -4.34615,5.13429c-5.35931,-1.00974 -4.76802,-6.14212 -5.35018,-10.41147c-0.23645,-1.73395 -0.47289,-3.46791 -0.70933,-5.20185c0,0 -0.81291,-0.62422 -0.08307,-2.4863z" data-paper-data="{&quot;origPos&quot;:null}" fill="#0052ef" stroke="none" stroke-width="0.5"/></g></g><g data-paper-data="{&quot;origPos&quot;:null}"><path d="M272.55911,139.29737l-2.33333,5.33334l7.66667,27.66666l-42.33334,4.33334l-3.66666,-1.33334l-2.66666,-4.66666l-7.33334,-27.33334l33,-4z" data-paper-data="{&quot;origPos&quot;:null}" fill="#a10114" stroke="#a10114" stroke-width="0.5" stroke-linecap="round"/><path d="M225.94742,162.77772c-1.17041,-4.92546 4.12419,-10.40192 11.82582,-12.23201c7.70162,-1.83009 14.89384,0.67921 16.06424,5.60467c1.17041,4.92546 -4.12419,10.40192 -11.82582,12.23201c-7.70163,1.83009 -14.89385,-0.67921 -16.06425,-5.60467z" data-paper-data="{&quot;origPos&quot;:null,&quot;origRot&quot;:0}" fill="#f4c4f6" stroke="none" stroke-width="0" stroke-linecap="butt"/><g data-paper-data="{&quot;origPos&quot;:null}" stroke-linecap="round"><path d="M237.89244,174.96404l-4.66666,-10.33333l40,-5l6.66667,-0.33334l3,2.33334l1.33333,3l1,7.33333z" data-paper-data="{&quot;origPos&quot;:null}" fill="#ffffff" stroke="#000000" stroke-width="0"/><path d="M272.55911,160.29738l4.66667,10" data-paper-data="{&quot;origPos&quot;:null}" fill="none" stroke="#a5b5ff" stroke-width="1.5"/><path d="M261.15211,161.9145l2.81397,9.43241" data-paper-data="{&quot;origPos&quot;:null,&quot;origRot&quot;:0}" fill="none" stroke="#a5b5ff" stroke-width="1.5"/><path d="M248.9661,173.01357l-2.81397,-9.43242" data-paper-data="{&quot;origPos&quot;:null,&quot;origRot&quot;:0}" fill="none" stroke="#a5b5ff" stroke-width="1.5"/></g><g data-paper-data="{&quot;origPos&quot;:null}"><path d="M222.37303,139.72779c3.44949,0.6899 4.11556,5.38849 4.17233,5.67233c0.32137,1.60688 11.12385,24.14025 11.88456,25.4081c-2.99229,-1.44186 1.25964,1.27756 1.46254,1.32248c1.48977,0.32987 3.46888,0 5,0c5.88154,0 27.35455,-2.09488 29.64305,-2.64239c1.84283,-0.44089 8.47629,-0.81784 9.85696,-0.35761c5.12234,1.70745 4.47231,11.13352 3.6529,15.23058c-1.71763,1.75647 -3.25597,3.7083 -5.1529,5.26942c-0.64345,0.52955 -1.66667,0 -2.5,0c-2.70957,0 -5.00864,-0.20036 -7.57248,-1.21254c-0.65738,-0.25953 -1.15274,-0.82821 -1.78447,-1.14509c-0.18943,-0.09501 -0.55595,-0.14816 -0.85359,-0.20784c-0.9961,0.53477 -1.92051,1.20274 -2.9325,1.70784c-3.55238,1.77304 -21.65861,1.1468 -24.17895,0.53959c-7.12069,-1.71554 -13.07322,-6.37559 -17.42801,-12.18197c-4.90173,-6.74464 -6.71181,-14.16556 -8.55762,-22.12639c-0.65691,-2.83323 -0.59529,-11.35418 -0.59529,-11.35418c0,0 0.98058,-4.90291 5.88349,-3.92233z" data-paper-data="{&quot;origPos&quot;:null}" fill="#ffdebd" stroke="none" stroke-width="0.5" stroke-linecap="butt"/><path d="M271.89243,175.63071l1.66667,3.66666v2.66666v3l-2,2" data-paper-data="{&quot;origPos&quot;:null}" fill="none" stroke="#f6b09a" stroke-width="1.5" stroke-linecap="round"/></g></g><g data-paper-data="{&quot;origPos&quot;:null}"><path d="M295.8478,121.85391c-0.62813,3.79329 -13.15027,8.6 -23.00472,8.6c-7.94072,0 -5.97237,-6.75492 -5.97237,-10.4c0,-3.64508 15.56169,-2.85 23.50241,-2.85c7.94072,0 5.88126,2.19464 5.47468,4.65z" data-paper-data="{&quot;origPos&quot;:null}" fill="#b49416" stroke="none" stroke-width="0" stroke-linecap="butt"/><path d="M294.33333,119.33333l-1,4l-4.66667,3.33333l-11.33333,5.33334" data-paper-data="{&quot;origPos&quot;:null}" fill="none" stroke="#a5b5ff" stroke-width="4.5" stroke-linecap="round"/><path d="M208.96507,147.97212c2.84617,0.02051 4.30892,0.91673 6.62718,2.36565c4.2679,2.96956 8.49595,8.92257 7.5327,14.3374c-0.83154,4.67445 -7.32065,4.79843 -9.98889,1.68549c-0.03911,-0.06429 -0.41853,-2.25462 -0.52131,-2.43888c-1.03458,-1.85479 -4.32256,-1.62063 -5.85833,-3.62037c-1.4033,-1.82728 -0.44167,-7.3604 -0.44167,-9.57963c0,0 1.513,-3.00639 2.65032,-2.74964z" data-paper-data="{&quot;origPos&quot;:null}" fill="#8e4108" stroke="none" stroke-width="0.5" stroke-linecap="butt"/><path d="M221.41403,170.56751c0,0 -4.93662,-6.19855 -6.77345,-8.95379c-1.31741,-2.02672 -1.9145,-4.06694 -2.82683,-6.23492c-0.39392,-0.9361 -1.97438,-2.62329 -1.98933,-3.60571c-0.00376,-0.24674 -1.0817,-0.68223 -1.96398,-0.99097c-1.74453,-0.61048 -3.56382,-1.32355 -5.23299,-2.11453c-3.10064,-1.4693 -5.7193,-4.02549 -7.80575,-6.70806c-3.28551,-4.24205 -6.35949,-8.91018 -7.50152,-14.16106c-0.92605,-4.25785 0.18828,-7.58788 0.18828,-7.58788c0,0 12.88558,1.06561 13.3213,1.14831c2.05003,0.38909 8.50036,0.37565 12.82928,1.56112c2.10123,0.57542 3.98038,0.99151 5.67273,2.2931c0.64064,0.49271 1.88683,2.39597 2.19186,2.39016c2.70041,-0.05145 6.61193,-2.4474 9.10771,-3.44571c6.76039,-2.70416 41.91996,-6.00736 46.89214,-2.36908c0.71443,0.52277 0.87538,1.53933 1.28772,2.3227c1.50942,2.86766 6.86783,23.77318 7.4328,27.76682c0.29918,2.11479 -1.2611,4.35411 -2.47003,5.75161c-0.54733,0.6327 -6.93655,1.00233 -9.15664,1.00233c-10.69243,0 -21.34714,-0.11066 -32.0221,0.57805c-2.66168,0.16651 -6.17893,0.6634 -8.81707,0.16448c-0.34053,-0.0644 -1.48419,1.14666 -1.23755,1.48506c1.19458,1.63903 3.25747,9.90041 3.25747,9.90041z" data-paper-data="{&quot;origPos&quot;:null}" fill="#ffdebd" stroke="none" stroke-width="0.5" stroke-linecap="butt"/><path d="M258.56475,137.95023c0,0 -0.9935,-0.51493 -7.4,-0.51493c-6.40651,0 -11.68936,4.29531 -15.6,2.57466c-3.4,-1.49597 -4.60651,-13.07925 -2.6,-13.07925c4.64315,0 24.03794,-0.30883 24.03794,-0.30883l1.56206,11.32836z" data-paper-data="{&quot;origPos&quot;:null}" fill="#ffffff" stroke="#f6b09a" stroke-width="0" stroke-linecap="butt"/><path d="M263.99136,130.82176c0,0 1.7916,-4.46328 4.36206,-5.79988c2.67666,-1.39181 7.03794,-2.10012 7.03794,-2.10012c0,0 6.2,7.44741 2.8,8.9c-3.91064,1.67076 0.4065,1.5 -6,1.5c-6.4065,0 -8.2,-2.5 -8.2,-2.5z" data-paper-data="{&quot;index&quot;:null,&quot;origPos&quot;:null}" fill="#ffffff" stroke="#f6b09a" stroke-width="0" stroke-linecap="butt"/><path d="M234.37537,141.4229c-1.70114,0.41062 -2.11176,-1.29052 -2.11176,-1.29052l-0.58286,-0.68312c-2.35983,-3.77572 -2.266,-7.01579 -2.266,-11.3275c0,0 0,-1.75 1.75,-1.75c1.75,0 1.75,1.75 1.75,1.75c0,3.6974 -0.23865,6.31627 1.734,9.47251l1.01714,1.71687c0,0 0.41063,1.70114 -1.29052,2.11176z" data-paper-data="{&quot;origPos&quot;:null}" fill="#18c6ff" stroke="none" stroke-width="0.5" stroke-linecap="butt"/><path d="M219.43193,127.7154l-0.00648,-0.00039c-0.5388,-4.84921 2.7096,-5.35609 6.53929,-5.14325c1.25,0.06947 2.79474,-0.1181 3.63889,1.0213c2.31535,3.1252 0.31112,5.29268 0.31112,8.62869c-0.20415,3.88036 -1.44846,11.21088 -7.0102,8.0534c-0.00173,-0.00098 -0.77381,-2.32479 -0.78444,-2.35535c-1.09205,-3.13976 -2.08041,-6.20301 -2.67714,-9.485c0,0 -0.03988,-0.21932 -0.01289,-0.51565l-0.01534,0.00261c0,0 0,-0.08024 0.01718,-0.20636z" data-paper-data="{&quot;origPos&quot;:null}" fill="#8e4108" stroke="none" stroke-width="0.5" stroke-linecap="butt"/><path d="M280.52698,132.49278c-1.57528,0.77783 -2.33751,-0.82969 -2.33751,-0.82969l-0.08492,-1.64175c-0.57135,-1.74913 -1.4749,-2.87972 -2.6685,-4.30076c0,0 -1.13889,-1.35589 0.18981,-2.51808c1.3287,-1.16219 2.46758,0.1937 2.46758,0.1937c1.47893,1.76073 2.60309,3.26577 3.3315,5.49569l-0.08492,1.21555c0,0 0.76224,1.60752 -0.81304,2.38535z" data-paper-data="{&quot;origPos&quot;:null}" fill="#18c6ff" stroke="none" stroke-width="0.5" stroke-linecap="butt"/><path d="M280.24658,94.82856c2.65049,14.94461 -0.54433,15.79448 -9.42494,20.57884c-12.93978,6.97121 -29.86592,5.55994 -43.68752,10.97342c-3.62918,1.42143 -12.87913,-2.03217 -16.83418,-2.03217c-8.08923,0 -12.65358,-5.22725 -12.98785,-11.45342c-0.73732,-13.7335 6.74195,-13.78676 14.83118,-13.78676c0,0 8.90245,1.33414 11.97751,5.60456c0,0 12.38453,-18.21899 25.43957,-20.46979c16.8055,-2.89741 28.78283,-0.14688 30.68624,10.58532z" data-paper-data="{&quot;origPos&quot;:null}" fill="#fff70c" stroke="none" stroke-width="0" stroke-linecap="butt"/><path d="M275.9885,104.24664c0,5.24671 -5.95461,9.5 -13.3,9.5c-7.34538,0 -13.3,-4.25329 -13.3,-9.5c0,-5.24671 5.95462,-9.5 13.3,-9.5c7.34539,0 13.3,4.25329 13.3,9.5z" data-paper-data="{&quot;origPos&quot;:null}" fill="#ffffff" stroke="none" stroke-width="0" stroke-linecap="butt"/><path d="M247.09449,93.74067c0.0164,-2.22761 2.24401,-2.21121 2.24401,-2.21121l2.74023,2.62113c0.93742,1.70899 1.87483,3.41799 2.81225,5.12698c0.93742,1.70899 1.87484,3.41799 2.81225,5.12698c0.20097,0.36639 0.09896,0.88907 0.38603,1.19276c0.04417,0.04672 0.10388,0.08719 0.17255,0.12356c0.22082,-0.46473 0.36862,-0.96783 0.48103,-1.50545c0.56455,-2.70028 0.81392,-4.48674 2.94495,-6.44285c3.19504,-2.93281 5.32918,0.45142 6.58461,2.74017c0.43349,0.87162 0.9809,3.83612 1.50475,4.3903c0.14743,0.15597 0.46202,0.23907 0.70778,0.33522c0.78009,-0.91237 1.96303,-2.35049 2.45391,-3.365c0.67361,-1.39216 0.95593,-3.07949 1.16171,-4.75657l-0.16262,-0.02842l0.61043,-3.49248c0.04534,-0.27326 0.14126,-0.53695 0.28338,-0.77626c0.31966,-0.58768 0.97469,-1.27069 2.26049,-1.06123c0.02225,0.00351 0.04444,0.00736 0.06655,0.01154c1.28347,0.23608 1.67107,1.0985 1.77415,1.76044c0.04253,0.21663 0.05191,0.43601 0.03013,0.65112l-0.17046,1.97017l-0.15942,-0.01379c-0.73845,4.31881 -1.48803,8.15762 -4.55894,11.72264c-1.76862,2.05318 -4.55097,3.19181 -6.83272,0.70602c-1.67626,-1.82615 -1.56493,-4.06439 -2.87537,-5.91103c-0.17856,-0.32553 -0.35711,-0.65104 -0.53567,-0.97657c-0.36645,0.34639 -0.48336,0.88921 -0.6571,1.36259c-0.46658,1.27132 -0.1805,6.65594 -2.47233,7.07289c-5.9763,1.08724 -7.40821,-4.48618 -9.71632,-8.69407c-0.93742,-1.70899 -1.87484,-3.41799 -2.81226,-5.12698c0,0 -1.09436,-0.32498 -1.07796,-2.55259z" data-paper-data="{&quot;origPos&quot;:null,&quot;origRot&quot;:0}" fill="#0052ef" stroke="none" stroke-width="0.5" stroke-linecap="butt"/><path d="M296.29017,119.75391c-0.2212,0.85848 -43.51301,6.5 -55.63158,7.7c-5.88978,0.58322 -17.80653,0.15848 -17.58533,-0.7c0.81769,-3.1735 3.1022,-8.24498 8.73737,-9.9c6.8098,-2 30.18828,-7.38005 47.67076,-7.1384c7.14675,0.09879 17.62649,6.8649 16.80879,10.0384z" data-paper-data="{&quot;origPos&quot;:null}" fill="#ffd412" stroke="none" stroke-width="0" stroke-linecap="butt"/><path d="M197.00001,128.49286l6.66666,3.33333c0,0 4.69674,0.89519 7.33334,2.33333c2.63659,1.43814 2.61141,1.93989 3.66666,3.66667c1.05525,1.72678 0.80582,1.90922 0,2.33333c-0.80582,0.42412 -3.87963,1.49074 -6.33333,1c-2.4537,-0.49074 -3.66667,-3 -3.66667,-3l-1.03333,-6.26666" data-paper-data="{&quot;origPos&quot;:null}" fill="none" stroke="#f6b09a" stroke-width="3" stroke-linecap="round"/><path d="M227.25001,127.83334l31.41667,-6.16667l36,-2.33333" data-paper-data="{&quot;origPos&quot;:null}" fill="none" stroke="#ffffff" stroke-width="4.5" stroke-linecap="round"/><path d="M278.00001,125.75v-2.25l-5.5,0.5l-3.25,0.75l-3,3.5l-2.5,2.25h-6.75l-2.75,-1.25l-7,-2l-5.5,-0.25l-5.5,1l-11.25,3.25l-1,-10l8.5,-0.75l6,-0.25l5,0.75l6.5,1.5l4.25,2.5l4,0.5l4,-0.75l2.75,-1l4,-4.25l4.75,-2l4.25,-0.25l4,1l0.5,3.5z" data-paper-data="{&quot;origPos&quot;:null}" fill="#000001" stroke="#ff0000" stroke-width="0" stroke-linecap="round"/><path d="M264.74628,122.63835c0.29131,3.63097 -1.70285,6.79089 -4.45407,7.05788c-2.75122,0.26699 -5.21769,-2.46007 -5.50899,-6.09104c-0.2913,-3.63097 1.70286,-2.12422 4.45408,-2.39121c2.75122,-0.26699 5.21768,-2.2066 5.50899,1.42437z" data-paper-data="{&quot;origPos&quot;:null,&quot;origRot&quot;:0}" fill="#ffdebd" stroke="#f6b09a" stroke-width="2.5" stroke-linecap="butt"/><path d="M254.20001,122.33334l5.06667,-0.86667l5.8,-0.53333" data-paper-data="{&quot;origPos&quot;:null}" fill="none" stroke="#ffffff" stroke-width="4.5" stroke-linecap="round"/><g data-paper-data="{&quot;origPos&quot;:null,&quot;index&quot;:null}" stroke-linecap="round"><path d="M280.47387,151.79734l4.7519,8.68623l-40.73059,4.20301c0,0 -10.2946,0.364 -10.42056,0.28312c-0.37789,-0.24264 -1.20463,-2.38462 -1.20463,-2.38462l-3.39421,-7.35527l2.80023,-0.91065z" data-paper-data="{&quot;origPos&quot;:null}" fill="#ffffff" stroke="#000000" stroke-width="0"/><path d="M245.17402,164.12617l-4.75191,-8.40603" data-paper-data="{&quot;origPos&quot;:null}" fill="none" stroke="#a5b5ff" stroke-width="1.5"/><path d="M256.78936,162.76682l-2.86537,-7.92891" data-paper-data="{&quot;origPos&quot;:null,&quot;origRot&quot;:0}" fill="none" stroke="#a5b5ff" stroke-width="1.5"/><path d="M269.19795,153.4369l2.86537,7.92892" data-paper-data="{&quot;origPos&quot;:null,&quot;origRot&quot;:0}" fill="none" stroke="#a5b5ff" stroke-width="1.5"/></g><path d="M296.78848,153.94663l-2.8,7.6h-3.2l-1,-2.4l-0.6,2.6l-4,-0.2l-2.8,-3.8l-0.6,3.4l-2.4,1l-1.6,-0.6l-3,-4.6l-3,5l-2.6,-0.2l-3,-4.2l-3.2,5.2h-1.8l-5.4,-5h-1.4l-3.4,5.2l-1.8,0.4l-7.4,-5.4l-5.2,6.2l-2.6,0.4l-13.8,-17l2.2,-1l11,5.4l1.8,-4.8h2.4l12.4,6.6l4.2,-4.6l1.6,-0.2l5.8,5.2l3.8,-4.6l2.6,0.4l2,1.4l1.2,2.6l2.4,-2.8l2.8,-0.2l3,3.8l2.8,-2.4l3,1l1.8,2.6l2.2,-2.8l2.4,2.2l1,0.8z" data-paper-data="{&quot;origPos&quot;:null}" fill="#000001" stroke="#ff0000" stroke-width="0" stroke-linecap="round"/><path d="M262.20005,142.31174c0.25909,-1.7103 0.15839,-3.85084 0.65733,-5.19849c1.10219,-2.97706 4.41574,-4.36325 7.33013,-4.36325c9.77911,0 25,3.73774 25,15.75c-0.07332,3.54048 -0.74802,6.62555 -3.57153,9.07119c-1.38349,1.19834 -3.94465,1.2429 -5.67971,1.4164c-5.40098,0.5401 -11.62677,1.28631 -16.98905,0.21385c-4.69024,-1.24371 -9.228,-0.73967 -12.94511,-4.73735c-2.61286,-2.81008 -2.25315,-8.13494 -0.24308,-11.03529c0.97147,-1.40174 4.39887,-1.17881 5.92847,-1.17881c0,0 0.212,0 0.51254,0.06173z" data-paper-data="{&quot;origPos&quot;:null}" fill="url(#color-4)" stroke="none" stroke-width="0.5" stroke-linecap="butt"/><path d="M250.63332,131c0.8434,0 1.6067,0.28 2.16,0.733c0.5534,0.452 0.8956,1.077 0.8956,1.767c0,0.69 -0.3422,1.315 -0.8956,1.767c-0.5533,0.453 -1.3166,0.733 -2.16,0.733c-0.8433,0 -1.6066,-0.28 -2.16,-0.733c-0.5533,-0.452 -0.8955,-1.077 -0.8955,-1.767c0,-0.69 0.3422,-1.315 0.8955,-1.767c0.5534,-0.453 1.3167,-0.733 2.16,-0.733z" data-paper-data="{&quot;origPos&quot;:null}" id="ID0.651427554897964" fill="#000000" stroke="none" stroke-width="1.05702" stroke-linecap="butt"/><path d="M270.68332,127.45c0.8434,0 1.6067,0.28 2.16,0.733c0.5534,0.452 0.8956,1.077 0.8956,1.767c0,0.69 -0.3422,1.315 -0.8956,1.767c-0.5533,0.453 -1.3166,0.733 -2.16,0.733c-0.8433,0 -1.6066,-0.28 -2.16,-0.733c-0.5533,-0.452 -0.8955,-1.077 -0.8955,-1.767c0,-0.69 0.3422,-1.315 0.8955,-1.767c0.5534,-0.453 1.3167,-0.733 2.16,-0.733z" data-paper-data="{&quot;origPos&quot;:null}" id="ID0.651427554897964" fill="#000000" stroke="none" stroke-width="1.05702" stroke-linecap="butt"/></g></g></g></svg>