<svg version="1.1" xmlns="http://www.w3.org/2000/svg" xmlns:xlink="http://www.w3.org/1999/xlink" width="58.18144" height="58.94069" viewBox="0,0,58.18144,58.94069"><g transform="translate(-209.37141,-151.65725)"><g data-paper-data="{&quot;isPaintingLayer&quot;:true}" fill-rule="nonzero" stroke-linejoin="miter" stroke-miterlimit="10" stroke-dasharray="" stroke-dashoffset="0" style="mix-blend-mode: normal"><path d="" data-paper-data="{&quot;origPos&quot;:null}" fill="#000000" stroke="none" stroke-width="1" stroke-linecap="butt"/><g><g data-paper-data="{&quot;index&quot;:null}"><path d="M255.81882,160.01267c0,0 -8.27976,4.43248 -15.07591,2.80045c-6.79614,-1.63203 -9.53508,-8.71056 -9.53508,-8.71056c0,0 8.61437,-3.65799 15.41052,-2.02595c6.79614,1.63203 9.20047,7.93606 9.20047,7.93606z" fill="#24c060" stroke="none" stroke-width="0" stroke-linecap="butt"/><path d="M251.63504,159.26797c0,0 -5.14515,1.14321 -10.12558,-0.27942c-4.35105,-1.24284 -6.64155,-3.22778 -6.64155,-3.22778" fill="none" stroke="#1a8752" stroke-width="1.5" stroke-linecap="round"/></g><path d="M241.93963,181.23254l-3.72524,-2.92379l15.63246,-19.91752l3.72524,2.92379z" fill="#24c060" stroke="none" stroke-width="0.97987" stroke-linecap="butt"/><g><path d="M255.60979,159.6341c0,0 6.69479,0.8375 9.89497,7.05118c3.20019,6.21369 1.69392,15.45054 1.69392,15.45054c0,0 -7.52661,-0.97849 -10.7268,-7.19217c-3.20019,-6.21369 -0.8621,-15.30955 -0.8621,-15.30955z" fill="#24c060" stroke="none" stroke-width="0" stroke-linecap="butt"/><path d="M264.71826,178.9746c0,0 -2.47236,-1.75323 -4.7135,-5.68433c-2.56534,-4.49975 -2.67745,-9.76918 -2.67745,-9.76918" fill="none" stroke="#1a8752" stroke-width="1.5" stroke-linecap="round"/></g><g stroke="none" stroke-width="0" stroke-linecap="butt"><path d="M209.37141,182.38375c0,0 19.28747,-24.59039 36.71386,-10.97512c17.02201,13.29933 -1.58568,39.18931 -1.58568,39.18931l-6.76338,-9.97462l-14.90152,1.22908l-1.95814,-14.26228z" fill="#35b2ff"/><path d="M244.17954,173.98844c12.20529,9.75446 1.69554,28.12195 1.69554,28.12195l-4.94925,-7.55048l-12.45163,0.35007l-2.63062,-13.05547l-9.66811,-3.04469c0,0 15.54141,-14.3479 28.00408,-4.82137z" fill="#85e0ff"/><path d="M242.92017,175.75367c7.45215,6.12643 3.60003,16.73271 3.60003,16.73271l-2.86806,-5.30053l-9.20905,0.00256l-2.93912,-9.60043l-6.13144,-1.69422c0,0 9.64958,-6.01633 17.54764,-0.1401z" fill="#d0f8ff"/></g><g stroke="none" stroke-width="0" stroke-linecap="butt"><path d="M230.31163,183.85311c-1.31526,-1.0323 -0.71663,-2.68549 1.70524,-5.77123c2.33606,-2.9764 4.00213,-3.96849 5.20073,-3.02776c1.19859,0.94072 0.545,2.90417 -1.70525,5.77123c-2.42187,3.08573 -3.88547,4.06005 -5.20073,3.02776z" fill="#000000"/><path d="M232.70938,182.43665c-0.79282,1.01014 -1.30707,0.95598 -1.73205,0.62243c-0.42498,-0.33355 -0.60556,-0.85537 0.20776,-1.84909c0.73798,-0.90166 1.15698,-1.18753 1.78728,-0.69283c0.66783,0.52415 0.41208,1.05937 -0.26299,1.91948z" fill="#ffffff"/></g><g stroke="none" stroke-width="0" stroke-linecap="butt"><path d="M238.42699,190.18552c-1.31526,-1.0323 -0.71661,-2.68548 1.70526,-5.77121c2.33606,-2.9764 4.00213,-3.96849 5.20071,-3.02777c1.19859,0.94072 0.54501,2.90416 -1.70524,5.77123c-2.42187,3.08573 -3.88547,4.06006 -5.20073,3.02777z" fill="#000000"/><path d="M240.69364,188.66616c-0.79281,1.01013 -1.30707,0.95598 -1.73205,0.62243c-0.42498,-0.33355 -0.60556,-0.85536 0.20776,-1.84908c0.73798,-0.90166 1.15698,-1.18753 1.78728,-0.69283c0.66782,0.52415 0.41208,1.05937 -0.26299,1.91948z" fill="#ffffff"/></g></g></g></g></svg>