<svg version="1.1" xmlns="http://www.w3.org/2000/svg" xmlns:xlink="http://www.w3.org/1999/xlink" width="115.01722" height="173.17294" viewBox="0,0,115.01722,173.17294"><g transform="translate(-183.5632,-58.76688)"><g data-paper-data="{&quot;isPaintingLayer&quot;:true}" fill-rule="nonzero" stroke="none" stroke-linecap="butt" stroke-linejoin="miter" stroke-miterlimit="10" stroke-dasharray="" stroke-dashoffset="0" style="mix-blend-mode: normal"><path d="M234.12518,231.93983l1.38987,-91.55696h10.00705l2.22379,91.25388z" fill="#2b9d00" stroke-width="0"/><path d="M192.37137,189.65936c5.05161,-1.08606 11.83253,-1.22766 19.1362,-0.16687c7.30392,1.06065 13.76423,3.12529 18.29817,5.60345c4.53404,2.47839 7.14187,5.37055 6.74738,8.08702c-0.39473,2.71658 -3.71726,4.74726 -8.76899,5.83366c-5.05184,1.08619 -11.83251,1.22767 -19.1362,0.16687c-7.30392,-1.06065 -13.76423,-3.12529 -18.29829,-5.60368c-4.53395,-2.47818 -7.14175,-5.37031 -6.74725,-8.08678c0.39449,-2.71647 3.71715,-4.74749 8.76899,-5.83366z" fill="#30b300" stroke-width="1.07474"/><path d="M298.54123,196.60492c0.39451,2.71647 -2.21332,5.60862 -6.74726,8.0868c-4.53406,2.47839 -10.99437,4.54303 -18.29829,5.60368c-7.30369,1.06078 -14.08436,0.9193 -19.13622,-0.16687c-5.05172,-1.08642 -8.37427,-3.11707 -8.769,-5.83368c-0.39451,-2.71647 2.21332,-5.60864 6.74738,-8.08701c4.53395,-2.47816 10.99426,-4.5428 18.29817,-5.60345c7.30369,-1.06077 14.08461,-0.91918 19.13622,0.16689c5.05184,1.08617 8.37448,3.11719 8.76899,5.83366z" fill="#30b300" stroke-width="1.07474"/><path d="M219.63772,84.35485l14.11295,24.67897l19.83779,-40.75994c0,0 40.62289,0.42768 27.88147,43.39251c-17.53828,43.29717 -69.54651,36.06582 -82.33284,-0.68741c-9.02625,-32.64147 19.611,-43.57278 19.611,-43.57278z" fill="#ff2f04" stroke-width="0"/><path d="M208.50509,123.54351c-2.92455,-3.56593 -3.41586,-8.96529 -1.09737,-12.0598c2.31848,-3.09451 6.56878,-2.71234 9.49333,0.85358c2.92455,3.56593 3.41586,8.96529 1.09737,12.0598c-2.31848,3.09451 -6.56878,2.71234 -9.49333,-0.85358z" fill="#ffffff" stroke-width="0"/><path d="M257.81437,130.05181c0,3.74435 -4.37454,6.77973 -9.77079,6.77973c-5.39627,0 -9.77079,-3.0354 -9.77079,-6.77973c0,-3.74435 4.37454,-6.77973 9.77079,-6.77973c5.39627,0 9.77079,3.0354 9.77079,6.77973z" fill="#ffffff" stroke-width="0"/><path d="M272.43734,110.90902c0,2.78991 -2.55925,5.05156 -5.71626,5.05156c-3.15699,0 -5.71626,-2.26167 -5.71626,-5.05156c0,-2.78991 2.55925,-5.05156 5.71626,-5.05156c3.15699,0 5.71626,2.26167 5.71626,5.05156z" fill="#ffffff" stroke-width="0"/><path d="M277.59226,119.10255c-2.25844,3.82482 -4.90926,6.44127 -5.92078,5.844c-1.01152,-0.59727 -0.0007,-4.18208 2.25774,-8.0069c2.25844,-3.82482 4.90926,-6.44127 5.92078,-5.844c1.01152,0.59727 0.0007,4.18208 -2.25774,8.0069z" fill="#ffffff" stroke-width="0"/><path d="M200.36886,88.4842c0.83866,0.09751 1.19888,2.92561 0.80457,6.31672c-0.39433,3.39111 -1.39385,6.06111 -2.23251,5.96358c-0.83866,-0.09751 -1.19888,-2.92561 -0.80457,-6.31672c0.39433,-3.39111 1.39385,-6.06111 2.23251,-5.96358z" fill="#ffffff" stroke-width="0"/><path d="M282.67342,95.22258c0,4.47854 -1.78553,8.1091 -3.98809,8.1091c-2.20256,0 -3.98809,-3.63056 -3.98809,-8.1091c0,-4.47854 1.78553,-8.1091 3.98809,-8.1091c2.20256,0 3.98809,3.63056 3.98809,8.1091z" fill="#ffffff" stroke-width="0"/><path d="M217.42595,71.57038c0,0 -1.24548,-8.43728 4.94001,-10.44661c9.09215,-2.36283 11.76086,4.51016 11.76086,4.51016l-0.61064,42.13686l2.99777,-44.32203c0,0 1.13787,-6.75844 11.30796,-4.03517c6.70626,0.85242 7.77508,7.18528 7.77508,7.18528c0,0 -10.08933,45.52621 -11.10836,46.56178c-11.15867,11.33954 -20.36982,-1.60524 -20.36982,-1.60524z" fill="#ffffff" stroke-width="0"/><path d="M266.16895,72.2273c0.45595,-0.71061 3.15488,0.20791 6.02821,2.05158c2.87332,1.84369 4.83299,3.91434 4.37702,4.62494c-0.45595,0.71061 -3.15488,-0.20791 -6.02821,-2.05158c-2.87332,-1.84369 -4.83299,-3.91434 -4.37702,-4.62494z" fill="#ffffff" stroke-width="0"/><path d="M208.50509,123.54351c-2.92455,-3.56593 -3.41586,-8.96529 -1.09737,-12.0598c2.31848,-3.09451 6.56878,-2.71234 9.49333,0.85358c2.92455,3.56593 3.41586,8.96529 1.09737,12.0598c-2.31848,3.09451 -6.56878,2.71234 -9.49333,-0.85358z" fill="#ffffff" stroke-width="0"/><path d="M207.53352,76.60357c1.38238,-2.7714 4.09837,-4.51089 6.06632,-3.88525c1.96794,0.62563 2.44262,3.37946 1.06024,6.15086c-1.38238,2.7714 -4.09837,4.51089 -6.06631,3.88525c-1.96794,-0.62563 -2.44263,-3.37946 -1.06025,-6.15086z" fill="#ffffff" stroke-width="0"/><path d="M263.52481,82.6517c-0.50254,3.66919 -3.1223,6.6972 -5.8514,6.76327c-2.72911,0.06607 -4.53411,-2.85482 -4.03157,-6.52401c0.50253,-3.66919 3.1223,-6.6972 5.8514,-6.76327c2.72911,-0.06607 4.53411,2.85482 4.03157,6.52401z" fill="#ffffff" stroke-width="0"/></g></g></svg>