<svg version="1.1" xmlns="http://www.w3.org/2000/svg" xmlns:xlink="http://www.w3.org/1999/xlink" width="646.11085" height="296.94547" viewBox="0,0,646.11085,296.94547"><defs><radialGradient cx="381.59273" cy="272.80885" r="234.4663" gradientUnits="userSpaceOnUse" id="color-1"><stop offset="0" stop-color="#6681bd"/><stop offset="1" stop-color="#45577f"/></radialGradient><radialGradient cx="349.68503" cy="233.33924" r="335.2474" gradientUnits="userSpaceOnUse" id="color-2"><stop offset="0" stop-color="#45577f"/><stop offset="1" stop-color="#1f283a"/></radialGradient><radialGradient cx="349.68504" cy="231.32302" r="329.25269" gradientUnits="userSpaceOnUse" id="color-3"><stop offset="0" stop-color="#45577f"/><stop offset="1" stop-color="#1f283a"/></radialGradient><radialGradient cx="64.13997" cy="332.92713" r="179.7959" gradientUnits="userSpaceOnUse" id="color-4"><stop offset="0" stop-color="#6681bd"/><stop offset="1" stop-color="#45577f"/></radialGradient><radialGradient cx="37.49904" cy="296.44992" r="257.07792" gradientUnits="userSpaceOnUse" id="color-5"><stop offset="0" stop-color="#45577f"/><stop offset="1" stop-color="#1f283a"/></radialGradient><radialGradient cx="37.38591" cy="294.51366" r="252.48099" gradientUnits="userSpaceOnUse" id="color-6"><stop offset="0" stop-color="#45577f"/><stop offset="1" stop-color="#1f283a"/></radialGradient><radialGradient cx="424.48678" cy="200.83869" r="179.87888" gradientUnits="userSpaceOnUse" id="color-7"><stop offset="0" stop-color="#6681bd"/><stop offset="1" stop-color="#45577f"/></radialGradient><radialGradient cx="490.5495" cy="134.05993" r="202.02898" gradientUnits="userSpaceOnUse" id="color-8"><stop offset="0" stop-color="#45577f"/><stop offset="1" stop-color="#1f283a"/></radialGradient><radialGradient cx="490.5495" cy="132.12036" r="198.41641" gradientUnits="userSpaceOnUse" id="color-9"><stop offset="0" stop-color="#45577f"/><stop offset="1" stop-color="#1f283a"/></radialGradient></defs><g transform="translate(75.96469,-128.05453)"><g data-paper-data="{&quot;isPaintingLayer&quot;:true}" fill-rule="nonzero" stroke-linejoin="miter" stroke-miterlimit="10" stroke-dasharray="" stroke-dashoffset="0" style="mix-blend-mode: normal"><g stroke-width="1.60762"><path d="M210.80693,252.90465h259.4741v46.77836h-259.4741z" fill="url(#color-1)" stroke="#496087" stroke-linecap="butt"/><path d="M342.16563,230.03523l137.8456,4.15808l-9.7302,20.79038l-38.0233,21.31118l-47.9275,-21.31118l-43.7863,30.14606l-46.4891,-31.18558l-45.2247,22.3507l-38.0232,-21.31118l-7.568,-27.0275z" fill="url(#color-2)" stroke="url(#color-3)" stroke-linecap="round"/></g><g stroke-width="1.60762"><path d="M-67.71769,321.45155l198.63384,-11.60639l5.35175,56.73962l-201.36067,-0.20985z" fill="url(#color-4)" stroke="#496087" stroke-linecap="butt"/><path d="M31.55735,293.61328l105.75754,-2.17271l-6.28208,20.40118l-27.91192,22.16689l-37.88554,-18.32227l-31.82788,30.9092l-37.3385,-27.86944l-33.36644,23.48731l-30.30356,-18.7653l-7.31011,-25.61721z" fill="url(#color-5)" stroke="url(#color-6)" stroke-linecap="round"/></g><path d="M249,146v0v-0.5v0z" fill="#009999" stroke="none" stroke-width="1" stroke-linecap="butt"/><path d="M408.99285,140.72847h153.86232v283.27153h-153.86232z" fill="url(#color-7)" stroke="#496087" stroke-width="2" stroke-linecap="butt"/><path d="M486.0181,130.88153l83.06942,4l-5.86368,20l-22.91385,20.501l-28.88238,-20.501l-26.38678,29l-28.01556,-30l-27.25361,21.501l-22.91379,-20.501l-4.56068,-26z" fill="url(#color-8)" stroke="url(#color-9)" stroke-width="1.60762" stroke-linecap="round"/></g></g></svg>