<svg version="1.1" xmlns="http://www.w3.org/2000/svg" xmlns:xlink="http://www.w3.org/1999/xlink" width="35.30526" height="35.30526" viewBox="0,0,35.30526,35.30526"><defs><linearGradient x1="240.08888" y1="163.06125" x2="240.08888" y2="197.11651" gradientUnits="userSpaceOnUse" id="color-1"><stop offset="0" stop-color="#3c94ed"/><stop offset="1" stop-color="#296ec6"/></linearGradient></defs><g transform="translate(-222.43625,-162.43625)"><g data-paper-data="{&quot;isPaintingLayer&quot;:true}" fill-rule="nonzero" stroke-linejoin="miter" stroke-miterlimit="10" stroke-dasharray="" stroke-dashoffset="0" style="mix-blend-mode: normal"><path d="M240.08888,163.06125c4.69771,0 8.95515,1.90752 12.0371,4.99053c3.08301,3.08195 4.99053,7.33939 4.99053,12.0371c0,4.69771 -1.90752,8.95515 -4.99053,12.0371c-3.08195,3.08301 -7.33939,4.99053 -12.0371,4.99053c-4.69771,0 -8.95515,-1.90752 -12.0371,-4.99053c-3.08301,-3.08195 -4.99053,-7.33939 -4.99053,-12.0371c0,-4.69771 1.90752,-8.95515 4.99053,-12.0371c3.08195,-3.08301 7.33939,-4.99053 12.0371,-4.99053z" data-paper-data="{&quot;origPos&quot;:null}" id="ID0.4039921844378114" fill="url(#color-1)" stroke="#23568d" stroke-width="1.25" stroke-linecap="butt"/><path d="M237.5,184.78837c1.117,0 2.13,0.454 2.863,1.187c0.733,0.733 1.187,1.746 1.187,2.863c0,1.117 -0.454,2.13 -1.187,2.863c-0.733,0.733 -1.746,1.187 -2.863,1.187c-1.117,0 -2.13,-0.454 -2.863,-1.187c-0.733,-0.733 -1.187,-1.746 -1.187,-2.863c0,-1.117 0.454,-2.13 1.187,-2.863c0.733,-0.733 1.746,-1.187 2.863,-1.187z" data-paper-data="{&quot;origPos&quot;:null}" id="ID0.9558458868414164" fill="#ffffff" stroke="#23578c" stroke-width="2.5" stroke-linecap="butt"/><path d="M240.25,189.88837l1.5,-17.25l3.4,5.75" data-paper-data="{&quot;origPos&quot;:null}" id="ID0.17868627235293388" fill="none" stroke="#23578c" stroke-width="4.5" stroke-linecap="round"/><path d="M230.19448,173.25553l19.2,15.35" data-paper-data="{&quot;origPos&quot;:null}" id="ID0.18140455661341548" fill="none" stroke="#23578c" stroke-width="4.5" stroke-linecap="round"/><g data-paper-data="{&quot;origPos&quot;:null}" id="ID0.11683987826108932"><path d="M237.5,184.78837c1.117,0 2.13,0.454 2.863,1.187c0.733,0.733 1.187,1.746 1.187,2.863c0,1.117 -0.454,2.13 -1.187,2.863c-0.733,0.733 -1.746,1.187 -2.863,1.187c-1.117,0 -2.13,-0.454 -2.863,-1.187c-0.733,-0.733 -1.187,-1.746 -1.187,-2.863c0,-1.117 0.454,-2.13 1.187,-2.863c0.733,-0.733 1.746,-1.187 2.863,-1.187z" id="ID0.9558458868414164" fill="#ffffff" stroke="none" stroke-width="1" stroke-linecap="butt"/><path d="M240.25,189.88837l1.5,-17.25l3.4,5.75" id="ID0.17868627235293388" fill="none" stroke="#ffffff" stroke-width="2" stroke-linecap="round"/></g><path d="M230.19448,173.25553l19.2,15.35" data-paper-data="{&quot;origPos&quot;:null}" id="ID0.18140455661341548" fill="none" stroke="#ffffff" stroke-width="2" stroke-linecap="round"/></g></g></svg>