<svg version="1.1" xmlns="http://www.w3.org/2000/svg" xmlns:xlink="http://www.w3.org/1999/xlink" width="431.30985" height="493.19216" viewBox="0,0,431.30985,493.19216"><defs><linearGradient x1="334.69714" y1="195.24712" x2="334.13057" y2="323.62062" gradientUnits="userSpaceOnUse" id="color-1"><stop offset="0" stop-color="#935f0a"/><stop offset="1" stop-color="#de7b19"/></linearGradient><linearGradient x1="211.66463" y1="-10.43689" x2="211.66463" y2="370.43991" gradientUnits="userSpaceOnUse" id="color-2"><stop offset="0" stop-color="#4fb75b"/><stop offset="1" stop-color="#1c8e2a"/></linearGradient><linearGradient x1="458.45726" y1="-16.7808" x2="458.45726" y2="365.52461" gradientUnits="userSpaceOnUse" id="color-3"><stop offset="0" stop-color="#4fb75b"/><stop offset="1" stop-color="#1c8e2a"/></linearGradient></defs><g transform="translate(-131.87377,117.75225)"><g data-paper-data="{&quot;isPaintingLayer&quot;:true}" fill-rule="nonzero" stroke-linecap="butt" stroke-linejoin="miter" stroke-miterlimit="10" stroke-dasharray="" stroke-dashoffset="0" style="mix-blend-mode: normal"><path d="M383.87708,35.51673c-3.30698,-2.36133 -5.69411,-5.43046 -7.36269,-8.87519c-2.02783,-3.61287 -3.18418,-7.78067 -3.18418,-12.21856c0,-0.09059 0.00048,-0.18107 0.00144,-0.27143c-0.10749,-1.32377 -0.15721,-2.64805 -0.15721,-3.95954c0,-2.34316 1.05429,-4.7985 1.09385,-7.02439c0.17227,-9.69259 -0.11478,-19.38891 0,-29.08235c0.17859,-15.08245 5.99766,-36.39434 21.70891,-41.81858c1.2457,-0.43007 1.60227,-2.09786 2.49898,-3.06359c3.76697,-4.05694 4.07329,-4.21282 7.72878,-7.17635c7.92985,-6.42879 21.0957,-9.79516 30.7744,-8.34246c0.68469,0.10277 3.80529,-1.97369 4.57951,-2.2974c3.19739,-1.33686 9.10013,-3.5327 12.57788,-2.79508c4.45845,0.94562 9.8858,0.78719 13.05558,4.06201c0.4462,0.46099 2.76179,0.52572 3.19705,0.99713c-1.25407,5.2212 -0.21205,13.18792 -0.16805,17.89736c0.15693,16.79467 0.04368,33.40294 -0.40885,50.14659c-0.21936,8.11631 1.0789,12.73742 0.21619,20.23977c-0.25128,0.84489 -0.39391,1.73655 -0.41169,2.65879c-0.40505,0.62319 -0.839,1.22877 -1.30383,1.81495c-1.57552,1.98686 -2.72567,4.45802 -4.82356,5.88236c-13.52396,9.18199 -26.03985,1.73742 -39.8745,-0.64098c-0.2373,-0.0408 -0.35792,0.06468 -0.40971,0.25919c0.05132,0.514 0.08708,1.03258 0.10679,1.55527c0.01199,0.31809 0.01804,0.6377 0.01804,0.95873c0,4.16768 -1.01982,8.09717 -2.82353,11.55253c-4.1718,7.99191 -12.53703,13.44747 -22.17647,13.44747c-3.13655,0 -6.13819,-0.57762 -8.90435,-1.63228c-1.99787,-0.44467 -3.89822,-1.0954 -5.54877,-2.27397z" fill="#4fb75b" stroke="none" stroke-width="0.5"/><path d="M563.18362,300.08694c-0.01057,0.01391 -0.02107,0.02787 -0.0315,0.04186c-0.08366,-0.06772 -0.15541,-0.14281 -0.20301,-0.23171c-0.06026,-0.11256 0.0698,0.02863 0.23451,0.18985z" data-paper-data="{&quot;origPos&quot;:null,&quot;index&quot;:null}" fill="url(#color-1)" stroke="#372403" stroke-width="0"/><path d="M465.06217,-10.43689v380.8768h-328.18558c0.00154,-2.72895 1.42096,-5.54458 2.15778,-8.12096c1.48444,-5.19055 2.86153,-10.95446 6.03345,-15.45018c1.17263,-1.66202 2.87697,-2.8948 4.09652,-4.52271c0.8143,-1.08696 0.7386,-2.75087 1.71321,-3.69675c0.59242,-0.57496 1.4768,-0.7384 2.21519,-1.1076c3.03218,-1.65169 6.58029,-2.0359 9.8208,-3.25435c2.2944,-0.86271 4.52396,-2.43192 6.83298,-3.10416c2.54113,-0.73982 6.19893,-0.87556 8.84913,-1.1383c5.43282,-0.5386 9.18859,0.48106 13.68603,-3.84063c0.39932,-0.38371 0,-1.1076 0,-1.6614c0,-2.12628 -0.08894,-4.18919 0.23007,-6.29153c0.42015,-6.14126 5.10981,-10.89393 9.7383,-14.19901c1.06229,-0.75855 1.60148,-2.18524 2.76899,-2.76899c0.99066,-0.49533 2.21519,0 3.32279,0c2.95359,0 5.90718,0 8.86077,0c3.93996,0 13.84496,1.41881 13.84496,-4.43039c0,-4.43039 0,-8.86077 0,-13.29116c0,-1.1076 0.27898,-2.2509 0,-3.32279c-0.04044,-0.15538 -0.51938,0.02565 -0.46505,-0.12543c1.28491,-3.57316 4.80422,-6.90193 7.40721,-9.54636c0.61855,-0.62839 2.93816,-2.91493 3.02621,-3.61937l1.64461,-2.19282c0.35788,-0.46656 0.57058,-1.05033 0.57058,-1.68377c0,-1.52927 -1.23972,-2.76899 -2.76899,-2.76899h-2.21519c-4.92092,0 -7.54624,-0.77716 -12.05283,-3.03046c-1.07274,-0.53637 -2.4328,-0.5196 -3.36478,-1.27449c-3.00668,-2.43538 -4.60258,-7.47069 -5.76883,-10.96944c-1.75532,-3.29744 -3.05672,-5.05358 -7.17506,-5.68727c-0.75295,-0.11586 -2.88964,0.89716 -3.75881,1.02492c-2.45927,0.3615 -5.27301,0 -7.75318,0c-1.25538,0 -5.00594,-0.64524 -6.09178,0c-0.24746,0.14705 0.56692,0.90988 0.29658,0.81102c-2.81898,-1.03086 -4.973,-5.83334 -6.12689,-8.14113c-1.00148,-2.00296 -1.92286,-2.70885 -1.92286,-4.85345c0,-7.56239 -0.67717,-16.35322 2.85774,-23.38496c0.70712,-1.40662 1.83612,-2.57395 2.53815,-3.98312c0.33934,-0.68115 0.00642,-1.61413 0.43867,-2.24045c3.01609,-4.37013 7.94605,-5.98379 5.88395,-12.35471c-0.20496,-0.63324 -0.7384,-1.1076 -1.1076,-1.6614c-1.84982,-2.03294 -1.75014,-5.27889 -1.75014,-7.87861c0,-7.32441 -0.22516,-14.33023 3.96534,-20.61597c0.3692,-0.5538 0.88628,-1.03368 1.1076,-1.6614c0.07253,-0.20573 -0.48786,-0.43029 -0.32071,-0.57046c1.54349,-1.29432 3.91739,-1.28878 5.51273,-2.88412c-0.3184,-0.67537 1.43369,-0.49232 2.0364,-0.93305c1.57658,-1.15287 3.13412,-2.46027 4.17051,-4.11575c0.30976,-0.49479 -0.36783,-1.10806 -0.5538,-1.6614c-0.55166,-1.64141 -1.30438,-3.50146 -1.5193,-5.21615c-0.37955,-3.02824 0.62434,-4.83765 1.1076,-7.75318c0.33712,-2.03391 -0.20824,-4.21355 0.64255,-6.21722c1.42246,-3.35003 5.72094,-6.09173 9.09386,-7.21604c3.06225,-1.1564 5.10625,-2.26338 6.87749,-5.37853c0.20573,-0.36182 -0.10218,-2.35828 -0.03221,-2.90465c0.29823,-2.32861 0.70513,-5.61736 1.78241,-7.76031c0.70712,-1.40662 1.83612,-2.57395 2.53815,-3.98312c0.33934,-0.68115 0.00642,-1.61413 0.43867,-2.24045c1.67294,-2.42399 4.55814,-4.55814 6.64558,-6.64558c1.92291,-1.92291 3.69318,-4.61491 6.11704,-5.42286c2.63721,-1.38177 6.30545,-0.05416 8.97496,0.61322c3.63951,0.90988 5.02817,2.18155 8.29402,4.22073c3.40763,2.1277 7.39774,3.53211 10.01036,6.81248c1.66179,2.08652 3.86523,4.24356 5.36526,6.34795l0.24386,0.48771c0.23299,0.64212 0.29759,1.41282 0.86374,1.72748l1.08077,2.16154c0.44399,0.9366 1.3981,1.58432 2.50349,1.58432c1.2456,0 2.29911,-0.82246 2.64709,-1.95393l1.08741,-3.26222l-0.05687,-0.01896c0.85186,-3.13182 1.68287,-7.0096 3.95012,-8.5211c0.15502,-0.79408 1.53155,-0.64255 2.34063,-0.64255c2.95359,0 5.90718,0 8.86077,0c6.57408,0 18.24877,8.66493 21.59814,-0.5538c0.55669,-1.53223 0,-4.42205 0,-6.09178c-0.17384,-2.08126 0.81993,-4.03614 1.1076,-6.09178c0.30101,-2.15097 -0.08826,-3.70147 1.40417,-5.7952c1.01431,-1.42298 2.55125,-2.40134 3.66876,-3.7448c0.42564,-0.5117 0.91821,-1.02333 1.1076,-1.6614c0.06632,-0.22344 -0.65414,-0.40358 -0.45753,-0.52875c3.81254,-2.42712 10.81332,-2.01433 15.15376,-2.55689c1.71815,-0.21477 3.42565,-0.52878 5.15177,-0.66552c0.05845,-0.00463 0.11852,-0.00414 0.1797,0c0.51671,0.03496 1.11275,0.33026 1.4817,0h1.6614c1.52927,0 2.76899,-1.23972 2.76899,-2.76899c0,-0.76464 -0.30993,-1.45688 -0.81102,-1.95797v0l-2.06407,-2.06407c-0.5225,-1.37262 -0.4477,-3.78892 -0.4477,-4.28493c0,-4.79959 0,-9.59917 0,-14.39876c-0.18256,-2.43256 0.7092,-3.6882 1.1076,-6.09178c0.10064,-0.60717 -0.67331,-1.20768 -0.46505,-1.78683c1.27779,-3.55335 4.79393,-6.93308 7.40721,-9.54636c1.04378,-1.04378 3.61035,-4.33958 4.68761,-4.72696c1.531,-0.55055 3.31083,0.03597 4.85875,-0.46505c2.5791,-0.83479 4.55582,-3.5697 4.55582,-6.18053c0,-5.31953 -0.42023,-10.33539 1.02492,-15.38857c0.20928,-0.73178 0.56543,-1.45416 0.5538,-2.21519c-0.00425,-0.27797 -0.74473,-0.34761 -0.59656,-0.58283c0.81998,-1.30172 4.07467,-1.79022 4.75263,-3.34331z" fill="url(#color-2)" stroke="#166d20" stroke-width="10"/><path d="M447.1107,365.52461v-382.30541l22.67731,0c-0.00338,0.65966 0.00267,1.29664 0.01581,1.91496l0,17.71239c-0.12383,0.62868 -0.18874,1.2785 -0.18874,1.94349c0,0.57276 0.04815,1.13427 0.14063,1.68071c-0.02769,0.35998 -0.00998,0.70857 0.04811,1.04595v358.00792z" fill="url(#color-3)" stroke="#166d20" stroke-width="0"/><path d="M374.31516,-5.04094v-11.01735h79.93436v11.01735z" fill="#4fb75b" stroke="none" stroke-width="0"/><path d="M466.91786,-81.24625c-1.5817,-0.90383 -3.76084,-1.21422 -4.98226,-2.4759c-0.0444,-0.04587 -0.08754,-0.09299 -0.12934,-0.14145c-3.66306,-0.3605 -7.70734,-1.5549 -10.70103,-0.34894c-4.96961,2.00193 -9.45462,5.07307 -14.80929,5.98055c-5.63154,0.9544 -12.12857,-0.04276 -17.47201,1.66235c-3.1815,1.01523 -6.42317,4.11058 -9.20633,5.89498c-6.76469,4.33712 -13.87134,6.77834 -18.75183,13.27312c-10.50336,13.97752 -3.42412,30.41263 -8.63908,46.18015c-1.00928,3.05158 -1.47522,5.93964 -2.10623,9.06614c0,0.39731 -0.03707,0.78595 -0.10795,1.16267c-0.54487,2.8962 -3.08758,5.08733 -6.14205,5.08733c-2.03393,0 -3.84094,-0.97156 -4.98226,-2.4759c-0.18628,-0.19242 -0.35028,-0.40696 -0.48649,-0.6491c-1.25537,-2.23174 -0.77612,-5.02594 -0.31243,-7.34441c1.3485,-6.74252 4.21203,-12.7468 4.45382,-19.69058c0.19617,-5.63364 -1.69184,-12.78055 -0.46882,-18.28411c2.23,-10.03499 7.13323,-21.02625 15.19205,-27.86058c4.07093,-3.45238 10.026,-5.71063 14.68593,-8.4149c7.08746,-4.11301 11.96432,-8.58876 20.27705,-8.88685c4.38911,-0.15739 10.06558,0.17431 14.17537,-1.64852c6.85723,-3.0414 14.50276,-8.05927 22.32279,-6.32148c0.85213,0.18936 1.70513,0.35985 2.53693,0.54243c0.56665,-3.86749 1.26485,-7.65347 1.27894,-10.0753c0.00456,-0.78431 -0.36608,-6.46539 0.78125,-7.61273c1.4846,-1.4846 3.3692,-3.125 5.46875,-3.125c2.09955,0 3.98415,1.6404 5.46875,3.125c1.17616,1.17616 0.77623,7.3368 0.78125,7.96852c0.0406,5.11097 -0.92036,10.93538 -1.74405,16.01115c-0.26114,1.60921 0.4654,5.48887 -0.99507,6.32343z" fill="#166d20" stroke="none" stroke-width="0.5"/></g></g></svg>