<svg version="1.1" xmlns="http://www.w3.org/2000/svg" xmlns:xlink="http://www.w3.org/1999/xlink" width="609.90251" height="382.67394" viewBox="0,0,609.90251,382.67394"><defs><linearGradient x1="206.12208" y1="-0.64162" x2="206.12208" y2="59.64171" gradientUnits="userSpaceOnUse" id="color-1"><stop offset="0" stop-color="#3672d9"/><stop offset="1" stop-color="#3d85f3"/></linearGradient><linearGradient x1="240.00001" y1="180" x2="240.00001" y2="180" gradientUnits="userSpaceOnUse" id="color-2"><stop offset="0" stop-color="#2b5cac"/><stop offset="1" stop-color="#336aca"/></linearGradient><linearGradient x1="240.00001" y1="180" x2="240.00001" y2="180" gradientUnits="userSpaceOnUse" id="color-3"><stop offset="0" stop-color="#3672d9"/><stop offset="1" stop-color="#3d85f3"/></linearGradient><linearGradient x1="240.00001" y1="180" x2="240.00001" y2="180" gradientUnits="userSpaceOnUse" id="color-4"><stop offset="0" stop-color="#2b5cac"/><stop offset="1" stop-color="#336aca"/></linearGradient></defs><g transform="translate(87.50142,11.33697)"><g data-paper-data="{&quot;isPaintingLayer&quot;:true}" fill-rule="nonzero" stroke-linejoin="miter" stroke-miterlimit="10" stroke-dasharray="" stroke-dashoffset="0" style="mix-blend-mode: normal"><text transform="translate(117.36111,171.25403) scale(0.5,0.5)" font-size="40" xml:space="preserve" fill="#ffffff" fill-rule="nonzero" stroke="none" stroke-width="1" stroke-linecap="butt" stroke-linejoin="miter" stroke-miterlimit="10" stroke-dasharray="" stroke-dashoffset="0" font-family="&quot;Microsoft YaHei&quot;, &quot;微软雅黑&quot;, STXihei, &quot;华文细黑&quot;" font-weight="normal" text-anchor="start" style="mix-blend-mode: normal"><tspan x="0" dy="0">Screen effects</tspan></text><path d="M405.22007,-0.64162l-22.35669,60.28323h-470.3648l1.4985,-60.1323z" fill="url(#color-1)" stroke="#000000" stroke-width="0" stroke-linecap="round"/><path d="M-42.40109,371.33697v-382.67394h564.80218v382.67394z" fill="none" stroke="none" stroke-width="0" stroke-linecap="butt"/><g><path d="" fill="url(#color-2)" stroke="none" stroke-width="1.00627" stroke-linecap="butt"/><path d="" fill="url(#color-3)" stroke="#000000" stroke-width="0" stroke-linecap="round"/></g><path d="" fill="url(#color-4)" stroke="none" stroke-width="1.00627" stroke-linecap="butt"/><g fill="#2c6eb0" stroke-linecap="butt"><g stroke="#2c6eb0" stroke-width="7.5"><path d=""/><path d=""/><path d=""/><path d=""/><path d=""/><path d=""/><path d=""/><path d=""/><path d=""/><path d=""/></g><g stroke="none"><path d="" stroke-width="0.13229"/><path d="" stroke-width="0.26458"/><path d="" stroke-width="0.26458"/><path d="" stroke-width="0.26458"/><path d="" stroke-width="0.26458"/><path d="" stroke-width="0.26458"/><path d="" stroke-width="0.26458"/><path d="" stroke-width="0.26458"/><path d="" stroke-width="0.26458"/><path d="" stroke-width="0.26458"/></g></g><g fill="#ffffff" stroke-linecap="butt"><g stroke="#224a8c" stroke-width="7.5"><path d=""/><path d=""/><path d=""/><path d=""/><path d=""/><path d=""/><path d=""/><path d=""/><path d=""/><path d=""/></g><g stroke="none" stroke-width="0.26458"><path d=""/><path d=""/><path d=""/><path d=""/><path d=""/><path d=""/><path d=""/><path d=""/><path d=""/><path d=""/></g></g><g fill="#ffffff" stroke="#2c6eb0" stroke-width="7.5" stroke-linecap="butt"><path d="M106.86603,15.91393c6.79535,1.78418 10.26286,2.81591 10.4025,3.09516c0,0.15514 1.64454,3.25806 4.93362,9.30873c-2.90121,9.71209 -4.54575,14.91723 -4.93362,15.61538l-10.54212,2.25736c-5.6628,-3.13395 -8.67263,-4.91813 -9.02948,-5.35252c-0.18618,-2.18755 -0.51199,-8.33907 -0.97741,-18.45454c5.35252,-3.56833 8.73469,-5.72486 10.14649,-6.46954zM108.68124,23.94269l-4.35182,4.51472c0.37234,4.68539 0.55851,7.54782 0.55851,8.58729c0.10858,0 1.04721,0.6516 2.81591,1.95482c2.34269,-0.51199 3.51402,-0.88433 3.51402,-1.11706l2.67625,-9.1458c-0.71365,-2.17202 -1.31872,-3.25805 -1.81521,-3.25805z"/><path d="M137.23572,26.64222c6.85742,-1.56695 10.48006,-2.35045 10.86794,-2.35045c4.66986,6.7178 7.0048,10.22408 7.0048,10.51883l-5.35252,11.35664l-11.51953,-1.83845v0.34911c0.89987,6.90398 1.34974,10.57313 1.34974,11.00753c-0.10858,0 -0.16288,0.05431 -0.16288,0.16288c-1.11706,-0.10858 -1.95481,-0.16288 -2.51338,-0.16288h-2.00138c-1.16358,0 -2.94777,-0.05431 -5.35252,-0.16288c-0.2172,-0.6516 -1.88502,-10.55765 -5.00343,-29.71808c0.52748,-0.2172 4.42163,-1.16358 11.68247,-2.83915c0,0 0.8145,3.21142 1.00067,3.67689zM137.07284,32.48347c0.31028,3.56833 0.58953,5.35252 0.83781,5.35252c3.18046,1.10153 5.12753,1.65229 5.84122,1.65229l1.83845,-8.0055h-0.16289c-1.81521,0.10858 -4.60006,0.44214 -8.35455,1.0007z"/><path d="M174.70331,17.72917l-0.9774,7.77277c2.03241,-0.10858 3.52181,-0.16289 4.4682,-0.16289h1.4894l0.32583,-0.16288l0.16289,0.32583c-0.32583,4.71643 -0.60508,7.36941 -0.83781,7.95894l-0.32583,-0.18617c-0.23269,0 -2.32716,-0.10862 -6.28336,-0.32583c-0.2172,3.64592 -0.38013,8.0055 -0.48871,13.07873l-0.32583,0.16289c-4.99567,-0.32583 -7.97448,-0.60507 -8.93635,-0.83776l0.16289,-0.6516c0,-1.34974 0.2172,-5.53869 0.6516,-12.56677c-4.18895,-0.23269 -6.28337,-0.51199 -6.28337,-0.83781c0.2172,-5.18185 0.4965,-7.77277 0.83781,-7.77277l6.12048,1.16358v-2.00138c0,-1.62901 -0.06206,-3.83209 -0.18618,-6.60918c0.1241,0 0.18618,-0.05431 0.18618,-0.16288z" data-paper-data="{&quot;origPos&quot;:null}"/><path d="M185.85051,13.60997l9.14579,1.44283c-1.14808,4.3906 -1.90052,6.58591 -2.25736,6.58591c-4.80951,-0.32583 -7.21427,-0.64385 -7.21427,-0.95414v-6.74884c0.04653,-0.2172 0.15514,-0.32583 0.32583,-0.32583zM183.29062,24.68742h0.13966c7.07461,1.28768 10.61196,2.04016 10.61196,2.25736c-2.03241,11.51178 -3.2658,17.92705 -3.70019,19.24577h-7.37714c-0.2172,0 -0.32583,-0.10862 -0.32583,-0.32583z"/><path d="M205.14284,22.96525c5.89553,1.58248 9.02169,2.54441 9.37853,2.88571c3.24251,4.5923 5.06547,7.23755 5.46889,7.93571c-2.09447,6.64021 -3.29682,9.96032 -3.60711,9.96032c-6.98152,1.62905 -10.63519,2.44352 -10.96102,2.44352c-5.77143,-3.36667 -8.84331,-5.2439 -9.21564,-5.63178c-0.2017,-6.26787 -0.30254,-9.72763 -0.30254,-10.37922c-0.09309,-0.18618 -0.13964,-0.32583 -0.13964,-0.4189c5.95759,-4.53025 9.03723,-6.79535 9.23889,-6.79535zM204.70066,31.4828c-0.09309,0.62057 -0.23273,2.87797 -0.4189,6.77207l5.18959,1.16358c1.24118,-3.87862 1.86174,-5.9498 1.86174,-6.21357c-4.12689,-1.24118 -6.33768,-1.86174 -6.63247,-1.86174z"/><path d="M242.77333,22.94197l7.74948,5.32924c-0.54302,8.84326 -0.9231,14.00961 -1.14031,15.49901c-0.89986,0.10858 -3.63818,0.27151 -8.21495,0.4887l-0.16289,-0.32583l-0.81453,-12.42714l-0.32581,-0.16288c-2.96326,0.63611 -5.00342,1.11706 -6.12048,1.44283c0.31028,5.29047 0.46542,9.11476 0.46542,11.473c-4.62333,1.28768 -7.1522,1.93154 -7.5866,1.93154c-3.00982,-13.2494 -4.51472,-20.24647 -4.51472,-20.99115c6.54713,-0.8533 10.09997,-1.27995 10.65847,-1.27995v0.16289c0.10857,0.07759 0.27151,1.6911 0.48871,4.84053c6.00411,-3.98723 9.17683,-5.98084 9.51818,-5.98084z"/><path d="M271.60711,22.94197c4.4682,2.85468 6.93501,4.49922 7.40043,4.93362c-1.61351,3.58387 -2.53661,5.3758 -2.76934,5.3758l-8.47092,-4.91034h-0.30253c0,0.15514 -0.36461,1.02397 -1.09378,2.60645c7.80379,4.20444 11.70574,6.36097 11.70574,6.46958c-2.18755,5.05773 -3.42093,7.72624 -3.70024,8.0055l-13.24166,0.76796c-5.15082,-3.41319 -7.92016,-5.21287 -8.30804,-5.39904v-0.13966c0,-0.38787 0.76796,-2.13325 2.30392,-5.23615l10.33267,5.3758l0.76795,-3.07188c-6.392,-2.87018 -10.19305,-4.6621 -11.40319,-5.37579v-0.32583c0,-0.58953 1.23343,-3.20374 3.70024,-7.84262z"/></g><g fill="#ffffff" stroke="#224a8c" stroke-width="7.5" stroke-linecap="butt"><path d="M104.11305,13.16093c6.79535,1.78418 10.26286,2.81591 10.4025,3.09516c0,0.15514 1.64454,3.25806 4.93362,9.30873c-2.90121,9.71209 -4.54575,14.91723 -4.93362,15.61538l-10.54212,2.25736c-5.6628,-3.13395 -8.67263,-4.91813 -9.02948,-5.35252c-0.18618,-2.18755 -0.51199,-8.33907 -0.97741,-18.45454c5.35252,-3.56833 8.73469,-5.72486 10.14649,-6.46954zM105.92825,21.18969l-4.35182,4.51472c0.37234,4.68539 0.55851,7.54782 0.55851,8.58729c0.10858,0 1.04721,0.6516 2.81591,1.95482c2.34269,-0.51199 3.51402,-0.88433 3.51402,-1.11706l2.67625,-9.1458c-0.71365,-2.17202 -1.31872,-3.25805 -1.81521,-3.25805z"/><path d="M134.48271,23.88923c6.85742,-1.56695 10.48006,-2.35045 10.86794,-2.35045c4.66986,6.7178 7.0048,10.22408 7.0048,10.51883l-5.35252,11.35664l-11.51953,-1.83845v0.34911c0.89987,6.90398 1.34974,10.57313 1.34974,11.00753c-0.10858,0 -0.16288,0.05431 -0.16288,0.16288c-1.11706,-0.10858 -1.95481,-0.16288 -2.51338,-0.16288h-2.00138c-1.16358,0 -2.94777,-0.05431 -5.35252,-0.16288c-0.2172,-0.6516 -1.88502,-10.55765 -5.00343,-29.71808c0.52748,-0.2172 4.42163,-1.16358 11.68247,-2.83915c0,0 0.8145,3.21142 1.00067,3.67689zM134.31983,29.73047c0.31028,3.56833 0.58953,5.35252 0.83781,5.35252c3.18046,1.10153 5.12753,1.65229 5.84122,1.65229l1.83845,-8.0055h-0.16289c-1.81521,0.10858 -4.60006,0.44214 -8.35455,1.0007z"/><path d="M171.95034,14.97615l-0.9774,7.77277c2.03241,-0.10858 3.52181,-0.16289 4.4682,-0.16289h1.4894l0.32583,-0.16288l0.16289,0.32583c-0.32583,4.71643 -0.60508,7.36941 -0.83781,7.95894l-0.32583,-0.18617c-0.23269,0 -2.32716,-0.10862 -6.28336,-0.32583c-0.2172,3.64592 -0.38013,8.0055 -0.48871,13.07873l-0.32583,0.16289c-4.99567,-0.32583 -7.97448,-0.60507 -8.93635,-0.83776l0.16289,-0.6516c0,-1.34974 0.2172,-5.53869 0.6516,-12.56677c-4.18895,-0.23269 -6.28337,-0.51199 -6.28337,-0.83781c0.2172,-5.18185 0.4965,-7.77277 0.83781,-7.77277l6.12048,1.16358v-2.00138c0,-1.62901 -0.06206,-3.83209 -0.18618,-6.60918c0.1241,0 0.18618,-0.05431 0.18618,-0.16288z" data-paper-data="{&quot;origPos&quot;:null}"/><path d="M183.09754,10.85702l9.14579,1.44283c-1.14808,4.3906 -1.90052,6.58591 -2.25736,6.58591c-4.80951,-0.32583 -7.21427,-0.64385 -7.21427,-0.95414v-6.74884c0.04653,-0.2172 0.15514,-0.32583 0.32583,-0.32583zM180.53765,21.93443h0.13966c7.07461,1.28768 10.61196,2.04016 10.61196,2.25736c-2.03241,11.51178 -3.2658,17.92705 -3.70019,19.24577h-7.37714c-0.2172,0 -0.32583,-0.10862 -0.32583,-0.32583z"/><path d="M202.38987,20.21229c5.89553,1.58248 9.02169,2.54441 9.37853,2.88571c3.24251,4.5923 5.06547,7.23755 5.46889,7.93571c-2.09447,6.64021 -3.29682,9.96032 -3.60711,9.96032c-6.98152,1.62905 -10.63519,2.44352 -10.96102,2.44352c-5.77143,-3.36667 -8.84331,-5.2439 -9.21564,-5.63178c-0.2017,-6.26787 -0.30254,-9.72763 -0.30254,-10.37922c-0.09309,-0.18618 -0.13964,-0.32583 -0.13964,-0.4189c5.95759,-4.53025 9.03723,-6.79535 9.23889,-6.79535zM201.94768,28.7298c-0.09309,0.62057 -0.23273,2.87797 -0.4189,6.77207l5.18959,1.16358c1.24118,-3.87862 1.86174,-5.9498 1.86174,-6.21357c-4.12689,-1.24118 -6.33768,-1.86174 -6.63247,-1.86174z"/><path d="M240.02036,20.18902l7.74948,5.32924c-0.54302,8.84326 -0.9231,14.00961 -1.14031,15.49901c-0.89986,0.10858 -3.63818,0.27151 -8.21495,0.4887l-0.16289,-0.32583l-0.81453,-12.42714l-0.32581,-0.16288c-2.96326,0.63611 -5.00342,1.11706 -6.12048,1.44283c0.31028,5.29047 0.46542,9.11476 0.46542,11.473c-4.62333,1.28768 -7.1522,1.93154 -7.5866,1.93154c-3.00982,-13.2494 -4.51472,-20.24647 -4.51472,-20.99115c6.54713,-0.8533 10.09997,-1.27995 10.65847,-1.27995v0.16289c0.10857,0.07759 0.27151,1.6911 0.48871,4.84053c6.00411,-3.98723 9.17683,-5.98084 9.51818,-5.98084z"/><path d="M268.85411,20.18902c4.4682,2.85468 6.93501,4.49922 7.40043,4.93362c-1.61351,3.58387 -2.53661,5.3758 -2.76934,5.3758l-8.47092,-4.91034h-0.30253c0,0.15514 -0.36461,1.02397 -1.09378,2.60645c7.80379,4.20444 11.70574,6.36097 11.70574,6.46958c-2.18755,5.05773 -3.42093,7.72624 -3.70024,8.0055l-13.24166,0.76796c-5.15082,-3.41319 -7.92016,-5.21287 -8.30804,-5.39904v-0.13966c0,-0.38787 0.76796,-2.13325 2.30392,-5.23615l10.33267,5.3758l0.76795,-3.07188c-6.392,-2.87018 -10.19305,-4.6621 -11.40319,-5.37579v-0.32583c0,-0.58953 1.23343,-3.20374 3.70024,-7.84262z"/></g><g fill="#ffffff" stroke="none" stroke-width="0.26458" stroke-linecap="butt"><path d="M104.11305,13.16093c6.79535,1.78418 10.26286,2.81591 10.4025,3.09517c0,0.15514 1.64454,3.25805 4.93362,9.30873c-2.90121,9.7121 -4.54575,14.91723 -4.93362,15.61538l-10.54211,2.25736c-5.6628,-3.13395 -8.67263,-4.91813 -9.02948,-5.35252c-0.18617,-2.18755 -0.51199,-8.33907 -0.97741,-18.45453c5.35252,-3.56833 8.73469,-5.72486 10.14649,-6.46954zM105.92825,21.18969l-4.35183,4.51472c0.37234,4.68539 0.55851,7.54782 0.55851,8.58729c0.10858,0 1.04721,0.6516 2.81591,1.95482c2.34269,-0.51199 3.51402,-0.88433 3.51402,-1.11706l2.67626,-9.1458c-0.71365,-2.17202 -1.31872,-3.25805 -1.81522,-3.25805z"/><path d="M133.48204,20.21229c0.48097,1.98585 0.81453,3.21149 1.00069,3.67695c6.85742,-1.56695 10.48006,-2.35045 10.86793,-2.35045c4.66986,6.71781 7.00481,10.22409 7.00481,10.51883l-5.35252,11.35663l-11.51953,-1.83845v0.3491c0.89987,6.90398 1.34974,10.57314 1.34974,11.00753c-0.10858,0 -0.16289,0.05431 -0.16289,0.16289c-1.11706,-0.10858 -1.95482,-0.16289 -2.51338,-0.16289h-2.00138c-1.16358,0 -2.94777,-0.05431 -5.35252,-0.16289c-0.2172,-0.6516 -1.88502,-10.55765 -5.00343,-29.71808c0.52748,-0.2172 4.42163,-1.16358 11.68246,-2.83915zM134.31983,29.73047c0.31028,3.56833 0.58953,5.35252 0.83781,5.35252c3.18045,1.10152 5.12753,1.65228 5.84123,1.65228l1.83845,-8.0055h-0.16289c-1.81522,0.10858 -4.60006,0.44214 -8.35455,1.00069z"/><path d="M161.71075,13.16093l10.23957,1.81522l-0.97741,7.77277c2.03241,-0.10858 3.52181,-0.16289 4.4682,-0.16289h1.4894l0.32583,-0.16289l0.16289,0.32583c-0.32583,4.71643 -0.60507,7.36941 -0.83781,7.95894l-0.32583,-0.18617c-0.23269,0 -2.32716,-0.10862 -6.28337,-0.32583c-0.2172,3.64593 -0.38013,8.0055 -0.4887,13.07872l-0.32583,0.16289c-4.99567,-0.32583 -7.97448,-0.60507 -8.93635,-0.83776l0.16289,-0.6516c0,-1.34974 0.2172,-5.5387 0.6516,-12.56678c-4.18895,-0.23269 -6.28337,-0.51199 -6.28337,-0.83781c0.2172,-5.18184 0.4965,-7.77277 0.83781,-7.77277l6.12048,1.16358v-2.00138c0,-1.62901 -0.06206,-3.83209 -0.18617,-6.60918c0.12411,0 0.18617,-0.05431 0.18617,-0.16289z"/><path d="M183.09754,10.85702l9.1458,1.44284c-1.1481,4.3906 -1.90052,6.58591 -2.25736,6.58591c-4.80951,-0.32583 -7.21427,-0.64384 -7.21427,-0.95413v-6.74884c0.04653,-0.2172 0.15514,-0.32583 0.32583,-0.32583zM180.53765,21.93443h0.13964c7.07461,1.2877 10.61196,2.04016 10.61196,2.25736c-2.03241,11.51177 -3.2658,17.92705 -3.70019,19.24577h-7.37714c-0.2172,0 -0.32583,-0.10862 -0.32583,-0.32583z"/><path d="M202.38987,20.21229c5.89554,1.58248 9.02169,2.5444 9.37853,2.88572c3.24251,4.5923 5.06548,7.23754 5.46889,7.93571c-2.09447,6.64021 -3.29682,9.96033 -3.60711,9.96033c-6.98152,1.62904 -10.63519,2.44352 -10.96102,2.44352c-5.77143,-3.36667 -8.84331,-5.2439 -9.21565,-5.63178c-0.2017,-6.26787 -0.30253,-9.72763 -0.30253,-10.37923c-0.09309,-0.18617 -0.13964,-0.32583 -0.13964,-0.4189c5.95759,-4.53025 9.03722,-6.79535 9.23889,-6.79535zM201.94768,28.7298c-0.09309,0.62057 -0.23274,2.87797 -0.4189,6.77207l5.18959,1.16358c1.24118,-3.87862 1.86174,-5.9498 1.86174,-6.21357c-4.12688,-1.24118 -6.33768,-1.86174 -6.63247,-1.86174z"/><path d="M240.02036,20.18901l7.74948,5.32924c-0.54301,8.84326 -0.9231,14.00961 -1.1403,15.49901c-0.89987,0.10858 -3.63818,0.27151 -8.21495,0.4887l-0.16289,-0.32583l-0.81453,-12.42713l-0.32583,-0.16289c-2.96326,0.63611 -5.00343,1.11706 -6.12048,1.44284c0.31028,5.29046 0.46543,9.11476 0.46543,11.473c-4.62333,1.2877 -7.15221,1.93154 -7.5866,1.93154c-3.00982,-13.2494 -4.51472,-20.24646 -4.51472,-20.99113c6.54714,-0.8533 10.09997,-1.27995 10.65847,-1.27995v0.16289c0.10858,0.0776 0.27151,1.6911 0.4887,4.84053c6.00411,-3.98723 9.17683,-5.98084 9.51819,-5.98084z"/><path d="M268.85411,20.18901c4.4682,2.85468 6.935,4.49923 7.40043,4.93362c-1.61351,3.58387 -2.53661,5.3758 -2.76935,5.3758l-8.47092,-4.91034h-0.30253c0,0.15514 -0.3646,1.02397 -1.09378,2.60645c7.80379,4.20444 11.70574,6.36096 11.70574,6.46957c-2.18755,5.05773 -3.42094,7.72625 -3.70024,8.0055l-13.24166,0.76796c-5.15082,-3.41319 -7.92016,-5.21287 -8.30804,-5.39904v-0.13964c0,-0.38788 0.76796,-2.13324 2.30392,-5.23615l10.33266,5.3758l0.76796,-3.07188c-6.392,-2.87018 -10.19305,-4.66212 -11.4032,-5.3758v-0.32583c0,-0.58953 1.23343,-3.20374 3.70024,-7.84262z"/></g><path d="M467.36115,275.73199h-456.11111" fill="none" stroke="#ffffff" stroke-width="0.5" stroke-linecap="round"/><text transform="translate(17.91666,98.75) scale(0.5,0.5)" font-size="40" xml:space="preserve" fill="#ffffff" fill-rule="nonzero" stroke="none" stroke-width="1" stroke-linecap="butt" stroke-linejoin="miter" stroke-miterlimit="10" stroke-dasharray="" stroke-dashoffset="0" font-family="&quot;Microsoft YaHei&quot;, &quot;微软雅黑&quot;, STXihei, &quot;华文细黑&quot;" font-weight="normal" text-anchor="start" style="mix-blend-mode: normal"><tspan x="0" dy="0">Settings</tspan></text><text transform="translate(17.91666,305.92994) scale(0.5,0.5)" font-size="40" xml:space="preserve" fill="#ffffff" fill-rule="nonzero" stroke="none" stroke-width="1" stroke-linecap="butt" stroke-linejoin="miter" stroke-miterlimit="10" stroke-dasharray="" stroke-dashoffset="0" font-family="&quot;Microsoft YaHei&quot;, &quot;微软雅黑&quot;, STXihei, &quot;华文细黑&quot;" font-weight="normal" text-anchor="start" style="mix-blend-mode: normal"><tspan x="0" dy="0">⚠ Danger</tspan></text><text transform="translate(117.36111,132.08334) scale(0.5,0.5)" font-size="40" xml:space="preserve" fill="#ffffff" fill-rule="nonzero" stroke="none" stroke-width="1" stroke-linecap="butt" stroke-linejoin="miter" stroke-miterlimit="10" stroke-dasharray="" stroke-dashoffset="0" font-family="&quot;Microsoft YaHei&quot;, &quot;微软雅黑&quot;, STXihei, &quot;华文细黑&quot;" font-weight="normal" text-anchor="start" style="mix-blend-mode: normal"><tspan x="0" dy="0">Music</tspan></text><text transform="translate(117.36111,210.85175) scale(0.5,0.5)" font-size="40" xml:space="preserve" fill="#ffffff" fill-rule="nonzero" stroke="none" stroke-width="1" stroke-linecap="butt" stroke-linejoin="miter" stroke-miterlimit="10" stroke-dasharray="" stroke-dashoffset="0" font-family="&quot;Microsoft YaHei&quot;, &quot;微软雅黑&quot;, STXihei, &quot;华文细黑&quot;" font-weight="normal" text-anchor="start" style="mix-blend-mode: normal"><tspan x="0" dy="0">Control type</tspan></text><text transform="translate(117.36111,340.89727) scale(0.5,0.5)" font-size="40" xml:space="preserve" fill="#ffffff" fill-rule="nonzero" stroke="none" stroke-width="1" stroke-linecap="butt" stroke-linejoin="miter" stroke-miterlimit="10" stroke-dasharray="" stroke-dashoffset="0" font-family="&quot;Microsoft YaHei&quot;, &quot;微软雅黑&quot;, STXihei, &quot;华文细黑&quot;" font-weight="normal" text-anchor="start" style="mix-blend-mode: normal"><tspan x="0" dy="0">Reset save data</tspan></text><text transform="translate(296.30415,98.75) scale(0.5,0.5)" font-size="40" xml:space="preserve" fill="#ffffff" fill-rule="nonzero" stroke="none" stroke-width="1" stroke-linecap="butt" stroke-linejoin="miter" stroke-miterlimit="10" stroke-dasharray="" stroke-dashoffset="0" font-family="&quot;Microsoft YaHei&quot;, &quot;微软雅黑&quot;, STXihei, &quot;华文细黑&quot;" font-weight="normal" text-anchor="start" style="mix-blend-mode: normal"><tspan x="0" dy="0">Information</tspan></text><text transform="translate(117.36112,251.1345) scale(0.5,0.5)" font-size="40" xml:space="preserve" fill="#ffffff" fill-rule="nonzero" stroke="none" stroke-width="1" stroke-linecap="butt" stroke-linejoin="miter" stroke-miterlimit="10" stroke-dasharray="" stroke-dashoffset="0" font-family="&quot;Microsoft YaHei&quot;, &quot;微软雅黑&quot;, STXihei, &quot;华文细黑&quot;" font-weight="normal" text-anchor="start" style="mix-blend-mode: normal"><tspan x="0" dy="0">Framerate mode</tspan></text></g></g></svg>