<svg version="1.1" xmlns="http://www.w3.org/2000/svg" xmlns:xlink="http://www.w3.org/1999/xlink" width="251.75" height="330" viewBox="0,0,251.75,330"><defs><linearGradient x1="133.125" y1="189.5" x2="153.125" y2="189.5" gradientUnits="userSpaceOnUse" id="color-1"><stop offset="0" stop-color="#ebd316"/><stop offset="1" stop-color="#fff13d"/></linearGradient><radialGradient cx="147.125" cy="34" r="23" gradientUnits="userSpaceOnUse" id="color-2"><stop offset="0" stop-color="#fff13d"/><stop offset="1" stop-color="#ebd316"/></radialGradient><linearGradient x1="114.125" y1="331" x2="173.125" y2="331" gradientUnits="userSpaceOnUse" id="color-3"><stop offset="0" stop-color="#aaadb3"/><stop offset="1" stop-color="#d1dcd6"/></linearGradient></defs><g transform="translate(-114.125,-15)"><g data-paper-data="{&quot;isPaintingLayer&quot;:true}" fill-rule="nonzero" stroke-linecap="butt" stroke-linejoin="miter" stroke-miterlimit="10" stroke-dasharray="" stroke-dashoffset="0" style="mix-blend-mode: normal"><path d="M142.375,192.5v-135h223.5l-34.5,33l34.5,34.5l-34.5,33l34.5,34.5z" data-paper-data="{&quot;origPos&quot;:null}" fill="#ff5e15" stroke="#000000" stroke-width="0"/><path d="M195.625,125c0,-30.09951 24.40049,-54.5 54.5,-54.5c30.09951,0 54.5,24.40049 54.5,54.5c0,30.09951 -24.40049,54.5 -54.5,54.5c-30.09951,0 -54.5,-24.40049 -54.5,-54.5z" data-paper-data="{&quot;origPos&quot;:null}" fill="#ffffff" stroke="none" stroke-width="0"/><path d="M284.9704,100.67327l-5.42204,15.64597v0.31437c-2.25773,1.38893 -25.23071,13.38645 -46.10477,24.01209l18.28603,1.82898c11.35727,-6.11589 18.11333,-9.81401 20.26818,-11.10006h0.67446c5.45286,7.95638 8.17929,12.4204 8.17929,13.39208v0.3601c-0.76592,0.31437 -7.86492,5.00132 -21.30846,14.06655l-44.26351,-5.45316l1.07502,-20.07354c0,0 36.89826,-19.25139 46.86659,-24.04122l-16.44145,-2.15996c-11.56304,5.65863 -17.55318,8.48794 -17.97043,8.48794h-0.36581c-5.2128,-9.48249 -7.81348,-14.50095 -7.81348,-15.05538c0.34295,0 6.77321,-3.16082 19.27363,-9.48249c1.94337,0 45.06673,9.25772 45.06673,9.25772z" data-paper-data="{&quot;origPos&quot;:null,&quot;index&quot;:null}" id="path3117" fill="#6f18b4" stroke="none" stroke-width="1"/><g data-paper-data="{&quot;origPos&quot;:null}" stroke="none"><path d="M133.125,324v-269h20v269z" data-paper-data="{&quot;origPos&quot;:null}" fill="url(#color-1)" stroke-width="NaN"/><path d="M144.125,61c-12.70255,0 -23,-10.29745 -23,-23c0,-12.70255 10.29745,-23 23,-23c12.70255,0 23,10.29745 23,23c0,12.70255 -10.29745,23 -23,23z" data-paper-data="{&quot;origPos&quot;:null,&quot;index&quot;:null}" fill="url(#color-2)" stroke-width="0"/><path d="M114.125,345v-28h59v28z" data-paper-data="{&quot;origPos&quot;:null}" fill="url(#color-3)" stroke-width="0"/></g></g></g></svg>