<svg version="1.1" xmlns="http://www.w3.org/2000/svg" xmlns:xlink="http://www.w3.org/1999/xlink" width="35.30526" height="35.30526" viewBox="0,0,35.30526,35.30526"><defs><linearGradient x1="240.08888" y1="163.06125" x2="240.08888" y2="197.11651" gradientUnits="userSpaceOnUse" id="color-1"><stop offset="0" stop-color="#3c94ed"/><stop offset="1" stop-color="#296ec6"/></linearGradient><linearGradient x1="240.11149" y1="168.22434" x2="240.11149" y2="190.46905" gradientUnits="userSpaceOnUse" id="color-2"><stop offset="0" stop-color="#ffef10"/><stop offset="1" stop-color="#ffa30a"/></linearGradient><linearGradient x1="240.11151" y1="168.22436" x2="240.11151" y2="190.23218" gradientUnits="userSpaceOnUse" id="color-3"><stop offset="0" stop-color="#e6b609"/><stop offset="1" stop-color="#c37808"/></linearGradient></defs><g transform="translate(-222.43625,-162.43625)"><g data-paper-data="{&quot;isPaintingLayer&quot;:true}" fill-rule="nonzero" stroke-linejoin="miter" stroke-miterlimit="10" stroke-dasharray="" stroke-dashoffset="0" style="mix-blend-mode: normal"><path d="M240.08888,163.06125c4.69771,0 8.95515,1.90752 12.0371,4.99053c3.08301,3.08195 4.99053,7.33939 4.99053,12.0371c0,4.69771 -1.90752,8.95515 -4.99053,12.0371c-3.08195,3.08301 -7.33939,4.99053 -12.0371,4.99053c-4.69771,0 -8.95515,-1.90752 -12.0371,-4.99053c-3.08301,-3.08195 -4.99053,-7.33939 -4.99053,-12.0371c0,-4.69771 1.90752,-8.95515 4.99053,-12.0371c3.08195,-3.08301 7.33939,-4.99053 12.0371,-4.99053z" data-paper-data="{&quot;origPos&quot;:null}" fill="url(#color-1)" stroke="#23568d" stroke-width="1.25" stroke-linecap="butt"/><g><path d="M243.66336,191.2458c-1.20119,-0.7501 -3.52726,-2.73277 -3.52726,-2.73277c0,0 -2.93435,2.0279 -4.06567,2.76128c-2.59124,1.67976 -4.4241,1.34744 -4.64676,1.03139c-0.27593,-0.39164 -0.52675,-2.98804 -0.02461,-5.65141c0.40156,-2.12983 0.70642,-3.63179 0.70642,-3.63179c-1.33778,-1.03204 -2.28712,-1.56611 -3.34201,-2.47071c-2.15852,-1.85101 -2.38666,-4.26102 -2.20306,-4.77634c0.25131,-0.70534 3.13629,-2.04323 8.22859,-2.19393l0.32328,-0.11935c1.73024,-4.96217 4.13229,-7.5702 4.94966,-7.5702c0.7582,0.01341 3.12738,2.72476 4.90524,7.65541l0.25374,0.17575c5.15018,0.16058 8.11,1.30551 8.38107,1.98594c0.1615,0.40538 -0.13712,3.1219 -2.69208,5.2177c-0.90007,0.73831 -1.74531,1.1357 -2.80938,1.95769c0,0 0.27835,1.5494 0.72535,3.91177c0.50431,2.66533 0.18236,5.08301 -0.192,5.37672c-0.32115,0.25196 -2.4692,0.63487 -4.97053,-0.92714z" data-paper-data="{&quot;index&quot;:null}" fill="#23568d" stroke="#3f2803" stroke-width="0" stroke-linecap="round"/><path d="M243.00302,188.75814c-0.97787,-0.61065 -2.92553,-2.38976 -2.92553,-2.38976c0,0 -2.17268,1.86997 -3.09368,2.467c-2.1095,1.36747 -3.81774,1.556 -3.999,1.29872c-0.22464,-0.31883 -0.10462,-2.541 0.30417,-4.70921c0.32691,-1.73387 0.68315,-3.01063 0.68315,-3.01063c-1.08907,-0.84017 -1.96998,-1.22091 -2.82875,-1.95734c-1.75723,-1.50689 -2.53135,-3.46885 -2.38187,-3.88836c0.2046,-0.57421 3.14159,-1.17706 7.28718,-1.29975l0.26319,-0.09716c1.40857,-4.03964 3.09388,-6.94731 3.75929,-6.94731c0.61724,0.01092 2.32983,2.89463 3.77715,6.90862l0.20657,0.14308c4.19269,0.13073 7.19063,0.73859 7.4113,1.29252c0.13147,0.33001 -0.70002,2.43343 -2.77997,4.1396c-0.73272,0.60104 -1.63697,0.92456 -2.50322,1.59373c0,0 0.44274,1.42345 0.80664,3.34662c0.41055,2.16982 0.47266,4.2465 0.16789,4.4856c-0.26145,0.20511 -2.1182,-0.10435 -4.15451,-1.37596z" data-paper-data="{&quot;index&quot;:null}" fill="url(#color-2)" stroke="url(#color-3)" stroke-width="1" stroke-linecap="round"/><g stroke="none" stroke-width="2.7674"><path d="M242.258,176.84428c0.32606,-0.01258 0.651,0.25734 0.78789,0.59023c0.24832,0.60415 0.27503,1.32444 0.25645,1.99718c-0.01277,0.62096 -0.1114,1.26292 -0.34812,1.81817c-0.13577,0.32587 -0.38057,0.70208 -0.69623,0.6993c-0.30399,-0.00278 -0.56279,-0.23778 -0.72985,-0.66015c-0.21351,-0.53427 -0.31445,-1.17483 -0.31445,-1.92724c0,-0.75247 0.07773,-1.36781 0.31445,-1.92724c0.15546,-0.36925 0.45254,-0.6028 0.72985,-0.59022z" fill="#3f2803" stroke-linecap="round"/><path d="M242.3087,177.2398c0.16828,0 0.32026,0.08252 0.43049,0.21537c0.11023,0.13289 0.17872,0.31613 0.17872,0.5189c0,0.20278 -0.06849,0.38601 -0.17872,0.51886c-0.11023,0.13289 -0.26222,0.2154 -0.43049,0.2154c-0.16823,0 -0.32025,-0.08251 -0.43049,-0.2154c-0.11023,-0.13285 -0.17867,-0.31607 -0.17867,-0.51886c0,-0.20278 0.06845,-0.386 0.17867,-0.5189c0.11023,-0.13285 0.26226,-0.21537 0.43049,-0.21537z" fill="#ffffff" stroke-linecap="butt"/></g><g stroke="none" stroke-width="2.7674"><path d="M237.96285,176.82106c0.32606,-0.01258 0.65101,0.25734 0.7879,0.59023c0.24832,0.60415 0.27504,1.32444 0.25646,1.99718c-0.01277,0.62096 -0.1114,1.26291 -0.34812,1.81817c-0.13577,0.32587 -0.38057,0.70209 -0.69624,0.6993c-0.30399,-0.00278 -0.56279,-0.23778 -0.72985,-0.66015c-0.21351,-0.53427 -0.31446,-1.17482 -0.31446,-1.92724c0,-0.75247 0.07773,-1.36781 0.31446,-1.92726c0.15546,-0.36925 0.45254,-0.60281 0.72985,-0.59023z" fill="#3f2803" stroke-linecap="round"/><path d="M238.03678,177.19337c0.16828,0 0.32025,0.08252 0.43049,0.21536c0.11023,0.13289 0.17873,0.31612 0.17873,0.5189c0,0.20278 -0.06849,0.38601 -0.17873,0.51886c-0.11023,0.13289 -0.26221,0.21541 -0.43049,0.21541c-0.16823,0 -0.32026,-0.08252 -0.43049,-0.21541c-0.11023,-0.13285 -0.17868,-0.31608 -0.17868,-0.51886c0,-0.20278 0.06846,-0.386 0.17868,-0.5189c0.11023,-0.13285 0.26226,-0.21536 0.43049,-0.21536z" fill="#ffffff" stroke-linecap="butt"/></g></g></g></g></svg>