<svg version="1.1" xmlns="http://www.w3.org/2000/svg" xmlns:xlink="http://www.w3.org/1999/xlink" width="115" height="115" viewBox="0,0,115,115"><defs><linearGradient x1="240.98741" y1="128.18555" x2="240.98741" y2="227.9968" gradientUnits="userSpaceOnUse" id="color-1"><stop offset="0" stop-color="#7fb8ff"/><stop offset="1" stop-color="#a0ff7b"/></linearGradient><linearGradient x1="243.28503" y1="207.36447" x2="243.28503" y2="234.36423" gradientUnits="userSpaceOnUse" id="color-2"><stop offset="0" stop-color="#76cfff"/><stop offset="1" stop-color="#76cfff" stop-opacity="0"/></linearGradient><linearGradient x1="261.22541" y1="200.17298" x2="261.22541" y2="228.47612" gradientUnits="userSpaceOnUse" id="color-3"><stop offset="0" stop-color="#f5e862"/><stop offset="1" stop-color="#e0bc5c"/></linearGradient><linearGradient x1="187.1772" y1="185.95319" x2="187.1772" y2="191.12249" gradientUnits="userSpaceOnUse" id="color-4"><stop offset="0" stop-color="#70b562"/><stop offset="1" stop-color="#457d49"/></linearGradient><linearGradient x1="189.12479" y1="182.57879" x2="189.12479" y2="187.74809" gradientUnits="userSpaceOnUse" id="color-5"><stop offset="0" stop-color="#70b562"/><stop offset="1" stop-color="#457d49"/></linearGradient><linearGradient x1="193.62439" y1="180.56851" x2="193.62439" y2="185.73781" gradientUnits="userSpaceOnUse" id="color-6"><stop offset="0" stop-color="#70b562"/><stop offset="1" stop-color="#457d49"/></linearGradient><linearGradient x1="194.5646" y1="184.94805" x2="194.5646" y2="190.11736" gradientUnits="userSpaceOnUse" id="color-7"><stop offset="0" stop-color="#70b562"/><stop offset="1" stop-color="#457d49"/></linearGradient><linearGradient x1="191.40817" y1="185.95319" x2="191.40817" y2="191.12249" gradientUnits="userSpaceOnUse" id="color-8"><stop offset="0" stop-color="#70b562"/><stop offset="1" stop-color="#457d49"/></linearGradient><linearGradient x1="198.66125" y1="185.8814" x2="198.66125" y2="191.0507" gradientUnits="userSpaceOnUse" id="color-9"><stop offset="0" stop-color="#70b562"/><stop offset="1" stop-color="#457d49"/></linearGradient><linearGradient x1="198.92988" y1="182.14802" x2="198.92988" y2="187.31732" gradientUnits="userSpaceOnUse" id="color-10"><stop offset="0" stop-color="#70b562"/><stop offset="1" stop-color="#457d49"/></linearGradient><linearGradient x1="202.85864" y1="178.84541" x2="202.85864" y2="184.01471" gradientUnits="userSpaceOnUse" id="color-11"><stop offset="0" stop-color="#70b562"/><stop offset="1" stop-color="#457d49"/></linearGradient><linearGradient x1="206.35086" y1="181.50186" x2="206.35086" y2="186.67115" gradientUnits="userSpaceOnUse" id="color-12"><stop offset="0" stop-color="#70b562"/><stop offset="1" stop-color="#457d49"/></linearGradient><linearGradient x1="203.06011" y1="183.08136" x2="203.06011" y2="188.25066" gradientUnits="userSpaceOnUse" id="color-13"><stop offset="0" stop-color="#70b562"/><stop offset="1" stop-color="#457d49"/></linearGradient><linearGradient x1="215.11501" y1="179.49157" x2="215.11501" y2="184.66087" gradientUnits="userSpaceOnUse" id="color-14"><stop offset="0" stop-color="#70b562"/><stop offset="1" stop-color="#457d49"/></linearGradient><linearGradient x1="205.51139" y1="185.73781" x2="205.51139" y2="190.90711" gradientUnits="userSpaceOnUse" id="color-15"><stop offset="0" stop-color="#70b562"/><stop offset="1" stop-color="#457d49"/></linearGradient><linearGradient x1="210.68257" y1="183.15316" x2="210.68257" y2="188.32246" gradientUnits="userSpaceOnUse" id="color-16"><stop offset="0" stop-color="#70b562"/><stop offset="1" stop-color="#457d49"/></linearGradient><linearGradient x1="215.75301" y1="183.29675" x2="215.75301" y2="188.46605" gradientUnits="userSpaceOnUse" id="color-17"><stop offset="0" stop-color="#70b562"/><stop offset="1" stop-color="#457d49"/></linearGradient><linearGradient x1="214.30911" y1="185.45062" x2="214.30911" y2="190.61993" gradientUnits="userSpaceOnUse" id="color-18"><stop offset="0" stop-color="#70b562"/><stop offset="1" stop-color="#457d49"/></linearGradient><linearGradient x1="210.38036" y1="185.95319" x2="210.38036" y2="191.12249" gradientUnits="userSpaceOnUse" id="color-19"><stop offset="0" stop-color="#70b562"/><stop offset="1" stop-color="#457d49"/></linearGradient><linearGradient x1="202.52285" y1="186.95833" x2="202.52285" y2="192.12764" gradientUnits="userSpaceOnUse" id="color-20"><stop offset="0" stop-color="#70b562"/><stop offset="1" stop-color="#457d49"/></linearGradient><linearGradient x1="194.86681" y1="187.5327" x2="194.86681" y2="192.70201" gradientUnits="userSpaceOnUse" id="color-21"><stop offset="0" stop-color="#70b562"/><stop offset="1" stop-color="#457d49"/></linearGradient><linearGradient x1="216.42459" y1="187.46091" x2="216.42459" y2="192.63021" gradientUnits="userSpaceOnUse" id="color-22"><stop offset="0" stop-color="#70b562"/><stop offset="1" stop-color="#457d49"/></linearGradient><linearGradient x1="218.55056" y1="185.95319" x2="218.55056" y2="191.12249" gradientUnits="userSpaceOnUse" id="color-23"><stop offset="0" stop-color="#70b562"/><stop offset="1" stop-color="#457d49"/></linearGradient><linearGradient x1="220.49814" y1="182.57879" x2="220.49814" y2="187.74809" gradientUnits="userSpaceOnUse" id="color-24"><stop offset="0" stop-color="#70b562"/><stop offset="1" stop-color="#457d49"/></linearGradient><linearGradient x1="224.99774" y1="180.56851" x2="224.99774" y2="185.73781" gradientUnits="userSpaceOnUse" id="color-25"><stop offset="0" stop-color="#70b562"/><stop offset="1" stop-color="#457d49"/></linearGradient><linearGradient x1="225.93796" y1="184.94805" x2="225.93796" y2="190.11736" gradientUnits="userSpaceOnUse" id="color-26"><stop offset="0" stop-color="#70b562"/><stop offset="1" stop-color="#457d49"/></linearGradient><linearGradient x1="222.78152" y1="185.95319" x2="222.78152" y2="191.12249" gradientUnits="userSpaceOnUse" id="color-27"><stop offset="0" stop-color="#70b562"/><stop offset="1" stop-color="#457d49"/></linearGradient><linearGradient x1="230.03461" y1="185.8814" x2="230.03461" y2="191.0507" gradientUnits="userSpaceOnUse" id="color-28"><stop offset="0" stop-color="#70b562"/><stop offset="1" stop-color="#457d49"/></linearGradient><linearGradient x1="230.30324" y1="182.14802" x2="230.30324" y2="187.31732" gradientUnits="userSpaceOnUse" id="color-29"><stop offset="0" stop-color="#70b562"/><stop offset="1" stop-color="#457d49"/></linearGradient><linearGradient x1="234.23199" y1="178.84541" x2="234.23199" y2="184.01471" gradientUnits="userSpaceOnUse" id="color-30"><stop offset="0" stop-color="#70b562"/><stop offset="1" stop-color="#457d49"/></linearGradient><linearGradient x1="237.72422" y1="181.50186" x2="237.72422" y2="186.67115" gradientUnits="userSpaceOnUse" id="color-31"><stop offset="0" stop-color="#70b562"/><stop offset="1" stop-color="#457d49"/></linearGradient><linearGradient x1="234.43347" y1="183.08136" x2="234.43347" y2="188.25066" gradientUnits="userSpaceOnUse" id="color-32"><stop offset="0" stop-color="#70b562"/><stop offset="1" stop-color="#457d49"/></linearGradient><linearGradient x1="246.48836" y1="179.49157" x2="246.48836" y2="184.66087" gradientUnits="userSpaceOnUse" id="color-33"><stop offset="0" stop-color="#70b562"/><stop offset="1" stop-color="#457d49"/></linearGradient><linearGradient x1="236.88474" y1="185.73781" x2="236.88474" y2="190.90711" gradientUnits="userSpaceOnUse" id="color-34"><stop offset="0" stop-color="#70b562"/><stop offset="1" stop-color="#457d49"/></linearGradient><linearGradient x1="242.05592" y1="183.15316" x2="242.05592" y2="188.32246" gradientUnits="userSpaceOnUse" id="color-35"><stop offset="0" stop-color="#70b562"/><stop offset="1" stop-color="#457d49"/></linearGradient><linearGradient x1="247.12637" y1="183.29674" x2="247.12637" y2="188.46605" gradientUnits="userSpaceOnUse" id="color-36"><stop offset="0" stop-color="#70b562"/><stop offset="1" stop-color="#457d49"/></linearGradient><linearGradient x1="245.68246" y1="185.45062" x2="245.68246" y2="190.61993" gradientUnits="userSpaceOnUse" id="color-37"><stop offset="0" stop-color="#70b562"/><stop offset="1" stop-color="#457d49"/></linearGradient><linearGradient x1="241.75371" y1="185.95319" x2="241.75371" y2="191.12249" gradientUnits="userSpaceOnUse" id="color-38"><stop offset="0" stop-color="#70b562"/><stop offset="1" stop-color="#457d49"/></linearGradient><linearGradient x1="233.8962" y1="186.95833" x2="233.8962" y2="192.12764" gradientUnits="userSpaceOnUse" id="color-39"><stop offset="0" stop-color="#70b562"/><stop offset="1" stop-color="#457d49"/></linearGradient><linearGradient x1="226.24017" y1="187.5327" x2="226.24017" y2="192.70201" gradientUnits="userSpaceOnUse" id="color-40"><stop offset="0" stop-color="#70b562"/><stop offset="1" stop-color="#457d49"/></linearGradient><linearGradient x1="247.79795" y1="187.46091" x2="247.79795" y2="192.63021" gradientUnits="userSpaceOnUse" id="color-41"><stop offset="0" stop-color="#70b562"/><stop offset="1" stop-color="#457d49"/></linearGradient><linearGradient x1="216.84488" y1="209.88763" x2="216.84488" y2="228.56324" gradientUnits="userSpaceOnUse" id="color-42"><stop offset="0" stop-color="#82721f"/><stop offset="1" stop-color="#a28e42"/></linearGradient><linearGradient x1="216.8685" y1="206.87952" x2="216.8685" y2="213.65109" gradientUnits="userSpaceOnUse" id="color-43"><stop offset="0" stop-color="#8fe3a6"/><stop offset="1" stop-color="#47b54b"/></linearGradient></defs><g transform="translate(-182.66799,-121.625)"><g data-paper-data="{&quot;isPaintingLayer&quot;:true}" fill-rule="nonzero" stroke-linejoin="miter" stroke-miterlimit="10" stroke-dasharray="" stroke-dashoffset="0" style="mix-blend-mode: normal"><path d="M187.15116,227.9968v-99.81125h107.6725v99.81125z" fill="url(#color-1)" stroke="none" stroke-width="0" stroke-linecap="butt"/><path d="M192.21116,227.38154v-20.01707h102.14775v20.01707z" data-paper-data="{&quot;origPos&quot;:null,&quot;index&quot;:null}" fill="url(#color-2)" stroke="none" stroke-width="NaN" stroke-linecap="butt"/><path d="M244.64288,200.1962c4.82711,0.68766 13.09882,4.78673 15.59469,5.23702c2.49586,0.45029 3.66156,-2.1432 6.28443,-2.21119c5.54473,-0.14371 3.0233,2.26994 13.61626,4.07324c3.37472,0.5745 -13.46087,3.06079 -14.31453,4.42238c-1.3496,2.15264 4.47776,2.04283 2.79307,3.02584c-2.44094,1.42426 -7.06526,1.66439 -10.54093,2.72285c-3.5848,1.09169 -4.66807,2.00825 -5.28652,3.91071c-0.61845,1.90246 3.99167,2.5002 2.6767,3.25859c-3.66468,2.11353 -9.89215,3.84049 -9.89215,3.84049c0,0 -7.6822,-29.24168 -0.93103,-28.27992z" fill="url(#color-3)" stroke="#e0bd5c" stroke-width="2" stroke-linecap="round"/><g data-paper-data="{&quot;index&quot;:null}" stroke="none" stroke-width="1" stroke-linecap="butt"><path d="M256.08336,159.48098c3.60178,0 6.86564,0.93894 9.22906,2.45581c2.36341,1.51687 3.82639,3.61169 3.82639,5.92343c0,2.31174 -1.46297,4.40654 -3.82639,5.92342c-2.36341,1.51687 -5.62727,2.45582 -9.22906,2.45582c-3.60178,0 -6.86563,-0.93894 -9.22905,-2.45582c-2.36342,-1.51687 -3.82639,-3.61168 -3.82639,-5.92342c0,-2.31174 1.46297,-4.40655 3.82639,-5.92343c2.36342,-1.51687 5.62727,-2.45581 9.22905,-2.45581z" fill="#ffffff"/><path d="M272.30759,155.75688c3.60178,0 6.86563,0.93893 9.22905,2.45581c2.36341,1.51687 3.82639,3.61169 3.82639,5.92343c0,2.31174 -1.46297,4.40654 -3.82639,5.92342c-2.36341,1.51687 -5.62727,2.45582 -9.22905,2.45582c-3.60178,0 -6.86564,-0.93894 -9.22906,-2.45582c-2.36341,-1.51687 -3.82639,-3.61168 -3.82639,-5.92342c0,-2.31174 1.46297,-4.40655 3.82639,-5.92343c2.36341,-1.51687 5.62727,-2.45581 9.22906,-2.45581z" fill="#ffffff"/><g fill="#4a4f54"><path d="M258.99865,163.08871c0.31485,0 0.60004,0.2544 0.80639,0.66521c0.20661,0.41082 0.33437,0.97805 0.33437,1.60416c0,0.62611 -0.12777,1.19334 -0.33437,1.60416c-0.20635,0.41082 -0.49154,0.66521 -0.80639,0.66521c-0.31485,0 -0.60004,-0.2544 -0.8064,-0.66521c-0.20661,-0.41082 -0.33437,-0.97805 -0.33437,-1.60416c0,-0.62611 0.12777,-1.19334 0.33437,-1.60416c0.20635,-0.41082 0.49155,-0.66521 0.8064,-0.66521z"/><path d="M264.32223,162.97233c0.31485,0 0.60004,0.2544 0.8064,0.66522c0.20661,0.41082 0.33437,0.97804 0.33437,1.60416c0,0.62611 -0.12776,1.19334 -0.33437,1.60416c-0.20635,0.41082 -0.49155,0.66522 -0.8064,0.66522c-0.31485,0 -0.60004,-0.2544 -0.8064,-0.66522c-0.20661,-0.41082 -0.33437,-0.97804 -0.33437,-1.60416c0,-0.62611 0.12776,-1.19334 0.33437,-1.60416c0.20635,-0.41082 0.49155,-0.66522 0.8064,-0.66522z"/></g></g><g data-paper-data="{&quot;index&quot;:null}" stroke="none" stroke-width="1" stroke-linecap="butt"><path d="M238.95885,143.08352c2.36342,1.51687 3.82638,3.61168 3.82638,5.92342c0,2.31174 -1.46296,4.40654 -3.82638,5.92342c-2.36342,1.51687 -5.62727,2.45582 -9.22905,2.45582c-3.60178,0 -6.86564,-0.93894 -9.22906,-2.45582c-2.36342,-1.51687 -3.82638,-3.61168 -3.82638,-5.92342c0,-2.31174 1.46296,-4.40654 3.82638,-5.92342c2.36342,-1.51687 5.62728,-2.45582 9.22906,-2.45582c3.60178,0 6.86564,0.93894 9.22905,2.45582z" fill="#ffffff"/><path d="M222.73461,139.35941c2.36342,1.51687 3.82638,3.61168 3.82638,5.92342c0,2.31174 -1.46297,4.40655 -3.82638,5.92342c-2.36342,1.51687 -5.62727,2.45582 -9.22905,2.45582c-3.60178,0 -6.86564,-0.93894 -9.22906,-2.45582c-2.36342,-1.51687 -3.82638,-3.61168 -3.82638,-5.92342c0,-2.31174 1.46297,-4.40654 3.82638,-5.92342c2.36342,-1.51687 5.62728,-2.45582 9.22906,-2.45582c3.60178,0 6.86563,0.93894 9.22905,2.45582z" fill="#ffffff"/><g fill="#4a4f54"><path d="M227.62089,144.90065c0.2066,0.41082 0.33437,0.97804 0.33437,1.60415c0,0.62611 -0.12777,1.19334 -0.33437,1.60416c-0.20635,0.41082 -0.49154,0.66522 -0.80639,0.66522c-0.31485,0 -0.60004,-0.2544 -0.8064,-0.66522c-0.2066,-0.41082 -0.33437,-0.97805 -0.33437,-1.60416c0,-0.62611 0.12777,-1.19334 0.33437,-1.60415c0.20635,-0.41082 0.49155,-0.66522 0.8064,-0.66522c0.31485,0 0.60003,0.2544 0.80639,0.66522z"/><path d="M222.29732,144.78427c0.2066,0.41082 0.33437,0.97805 0.33437,1.60416c0,0.62611 -0.12776,1.19334 -0.33437,1.60415c-0.20635,0.41082 -0.49155,0.66522 -0.8064,0.66522c-0.31485,0 -0.60004,-0.2544 -0.8064,-0.66522c-0.2066,-0.41082 -0.33437,-0.97804 -0.33437,-1.60415c0,-0.62611 0.12777,-1.19334 0.33437,-1.60416c0.20635,-0.41082 0.49155,-0.66522 0.8064,-0.66522c0.31485,0 0.60004,0.2544 0.8064,0.66522z"/></g></g><g stroke="#c0a968" stroke-width="2" stroke-linecap="round"><path d="M263.55808,205.39416l13.14827,0.0996" data-paper-data="{&quot;origPos&quot;:null}" fill="none"/><path d="M264.85299,204.39808h11.15611" data-paper-data="{&quot;origPos&quot;:null}" fill="none"/><path d="M265.74946,196.031l3.08785,-3.28707h3.28707l3.18746,3.18746l-0.09961,7.27139h-9.36316z" data-paper-data="{&quot;origPos&quot;:null}" fill="#995900"/><path d="M267.74162,203.50161v1.69334" data-paper-data="{&quot;origPos&quot;:null}" fill="none"/><path d="M273.02086,203.60122v1.59373" data-paper-data="{&quot;origPos&quot;:null}" fill="none"/><path d="M268.73771,192.84354l2.68942,3.08785l-0.09961,6.97257" data-paper-data="{&quot;origPos&quot;:null}" fill="none"/><path d="M275.11262,196.23021h-9.16395" data-paper-data="{&quot;origPos&quot;:null}" fill="none"/></g><g stroke-width="2" stroke-linecap="butt"><g><g data-paper-data="{&quot;origPos&quot;:null}" fill="#5d5a32" stroke="#5b5c37"><path d="M194.90585,208.05434v-17.8425h3.41614v17.8425z" data-paper-data="{&quot;origPos&quot;:null}"/><path d="M208.44618,207.4556v-17.8425h3.41614v17.8425z" data-paper-data="{&quot;origPos&quot;:null}"/><path d="M202.04868,207.69509v-17.8425h3.41614v17.8425z" data-paper-data="{&quot;origPos&quot;:null}"/><path d="M215.03,207.57535v-17.8425h3.41614v17.8425z" data-paper-data="{&quot;origPos&quot;:null}"/><path d="M221.11693,208.05434v-17.8425h7.92121v17.8425z" data-paper-data="{&quot;origPos&quot;:null}"/></g><path d="M234.23952,207.57535v-17.8425h3.41614v17.8425z" data-paper-data="{&quot;origPos&quot;:null}" fill="#5d5a32" stroke="#5b5c37"/><g data-paper-data="{&quot;origPos&quot;:null}" fill="#7f7a45" stroke="#737446"><path d="M198.33827,207.69303v-18.09374h4.98534v18.09374z" data-paper-data="{&quot;origPos&quot;:null}"/><path d="M218.09834,207.08585v-18.09374h4.98534v18.09374z" data-paper-data="{&quot;origPos&quot;:null}"/><path d="M208.76216,207.32872v-18.09374h7.1602v18.09374z" data-paper-data="{&quot;origPos&quot;:null}"/><path d="M227.70645,207.20729v-18.09374h4.98534v18.09374z" data-paper-data="{&quot;origPos&quot;:null}"/><path d="M236.58941,207.69303v-18.09374h4.98534v18.09374z" data-paper-data="{&quot;origPos&quot;:null}"/></g><g data-paper-data="{&quot;origPos&quot;:null}" fill="#9e9755" stroke="#787a49"><path d="M188.16144,207.81347v-17.94494h6.80474v17.94494z" data-paper-data="{&quot;origPos&quot;:null}"/><path d="M215.13296,207.21129v-17.94494h6.80474v17.94494z" data-paper-data="{&quot;origPos&quot;:null}"/><path d="M202.38954,207.45216v-17.94494h6.80474v17.94494z" data-paper-data="{&quot;origPos&quot;:null}"/><path d="M228.24755,207.33172v-17.94494h6.80474v17.94494z" data-paper-data="{&quot;origPos&quot;:null}"/><path d="M240.759,207.81347v-17.94494h6.80474v17.94494z" data-paper-data="{&quot;origPos&quot;:null}"/></g><g data-paper-data="{&quot;origPos&quot;:null}" stroke="#4a7b50"><g data-paper-data="{&quot;origPos&quot;:null}"><path d="M189.62216,186.71071c0.62612,0.46789 1.01369,1.11406 1.01369,1.82713c0,0.71308 -0.38757,1.35924 -1.01369,1.82713c-0.62612,0.46789 -1.49078,0.75752 -2.44496,0.75752c-0.95418,0 -1.81885,-0.28963 -2.44496,-0.75752c-0.62612,-0.46789 -1.01369,-1.11406 -1.01369,-1.82713c0,-0.71308 0.38757,-1.35924 1.01369,-1.82713c0.62612,-0.46789 1.49078,-0.75752 2.44496,-0.75752c0.95418,0 1.81884,0.28962 2.44496,0.75752z" data-paper-data="{&quot;origPos&quot;:null}" fill="url(#color-4)"/><path d="M191.56975,183.33631c0.62612,0.46789 1.01369,1.11406 1.01369,1.82713c0,0.71308 -0.38757,1.35924 -1.01369,1.82713c-0.62612,0.46789 -1.49078,0.75752 -2.44496,0.75752c-0.95418,0 -1.81885,-0.28962 -2.44496,-0.75752c-0.62612,-0.46789 -1.01369,-1.11406 -1.01369,-1.82713c0,-0.71308 0.38757,-1.35924 1.01369,-1.82713c0.62612,-0.46789 1.49078,-0.75752 2.44496,-0.75752c0.95418,0 1.81884,0.28963 2.44496,0.75752z" data-paper-data="{&quot;origPos&quot;:null}" fill="url(#color-5)"/><path d="M196.06935,181.32603c0.62612,0.46789 1.01369,1.11406 1.01369,1.82713c0,0.71308 -0.38757,1.35924 -1.01369,1.82713c-0.62612,0.46789 -1.49078,0.75752 -2.44496,0.75752c-0.95418,0 -1.81885,-0.28962 -2.44496,-0.75752c-0.62612,-0.46789 -1.01369,-1.11406 -1.01369,-1.82713c0,-0.71308 0.38757,-1.35924 1.01369,-1.82713c0.62612,-0.46789 1.49078,-0.75752 2.44496,-0.75752c0.95418,0 1.81885,0.28963 2.44496,0.75752z" data-paper-data="{&quot;origPos&quot;:null}" fill="url(#color-6)"/><path d="M197.00956,185.70557c0.62612,0.46789 1.01369,1.11406 1.01369,1.82713c0,0.71308 -0.38757,1.35924 -1.01369,1.82713c-0.62612,0.46789 -1.49078,0.75752 -2.44496,0.75752c-0.95418,0 -1.81884,-0.28962 -2.44496,-0.75752c-0.62612,-0.46789 -1.01369,-1.11406 -1.01369,-1.82713c0,-0.71308 0.38757,-1.35924 1.01369,-1.82713c0.62612,-0.46789 1.49078,-0.75752 2.44496,-0.75752c0.95418,0 1.81884,0.28963 2.44496,0.75752z" data-paper-data="{&quot;origPos&quot;:null}" fill="url(#color-7)"/><path d="M193.85313,186.71071c0.62612,0.46789 1.01369,1.11406 1.01369,1.82713c0,0.71308 -0.38757,1.35924 -1.01369,1.82713c-0.62612,0.46789 -1.49078,0.75752 -2.44496,0.75752c-0.95418,0 -1.81884,-0.28963 -2.44496,-0.75752c-0.62612,-0.46789 -1.01369,-1.11406 -1.01369,-1.82713c0,-0.71308 0.38757,-1.35924 1.01369,-1.82713c0.62612,-0.46789 1.49078,-0.75752 2.44496,-0.75752c0.95418,0 1.81885,0.28962 2.44496,0.75752z" data-paper-data="{&quot;origPos&quot;:null}" fill="url(#color-8)"/><path d="M201.10621,186.63891c0.62612,0.46789 1.01369,1.11406 1.01369,1.82713c0,0.71308 -0.38757,1.35924 -1.01369,1.82713c-0.62612,0.46789 -1.49078,0.75752 -2.44496,0.75752c-0.95418,0 -1.81884,-0.28962 -2.44496,-0.75752c-0.62612,-0.46789 -1.01369,-1.11406 -1.01369,-1.82713c0,-0.71308 0.38757,-1.35924 1.01369,-1.82713c0.62612,-0.46789 1.49078,-0.75752 2.44496,-0.75752c0.95418,0 1.81885,0.28962 2.44496,0.75752z" data-paper-data="{&quot;origPos&quot;:null}" fill="url(#color-9)"/><path d="M201.37485,182.90553c0.62612,0.46789 1.01369,1.11406 1.01369,1.82713c0,0.71308 -0.38757,1.35924 -1.01369,1.82713c-0.62612,0.46789 -1.49078,0.75752 -2.44496,0.75752c-0.95418,0 -1.81885,-0.28962 -2.44496,-0.75752c-0.62612,-0.46789 -1.01369,-1.11406 -1.01369,-1.82713c0,-0.71308 0.38757,-1.35924 1.01369,-1.82713c0.62612,-0.46789 1.49078,-0.75752 2.44496,-0.75752c0.95418,0 1.81884,0.28962 2.44496,0.75752z" data-paper-data="{&quot;origPos&quot;:null}" fill="url(#color-10)"/><path d="M205.3036,179.60293c0.62612,0.46789 1.01369,1.11406 1.01369,1.82713c0,0.71308 -0.38757,1.35924 -1.01369,1.82713c-0.62612,0.46789 -1.49078,0.75752 -2.44496,0.75752c-0.95418,0 -1.81885,-0.28962 -2.44496,-0.75752c-0.62612,-0.46789 -1.01369,-1.11406 -1.01369,-1.82713c0,-0.71308 0.38757,-1.35924 1.01369,-1.82713c0.62612,-0.46789 1.49078,-0.75752 2.44496,-0.75752c0.95418,0 1.81885,0.28963 2.44496,0.75752z" data-paper-data="{&quot;origPos&quot;:null}" fill="url(#color-11)"/><path d="M208.79583,182.25937c0.62612,0.46789 1.01369,1.11406 1.01369,1.82713c0,0.71308 -0.38757,1.35924 -1.01369,1.82713c-0.62612,0.46789 -1.49078,0.75752 -2.44496,0.75752c-0.95418,0 -1.81885,-0.28962 -2.44496,-0.75752c-0.62612,-0.46789 -1.01369,-1.11406 -1.01369,-1.82713c0,-0.71308 0.38757,-1.35924 1.01369,-1.82713c0.62612,-0.46789 1.49078,-0.75752 2.44496,-0.75752c0.95418,0 1.81885,0.28962 2.44496,0.75752z" data-paper-data="{&quot;origPos&quot;:null}" fill="url(#color-12)"/><path d="M205.50507,183.83888c0.62612,0.46789 1.01369,1.11406 1.01369,1.82713c0,0.71308 -0.38757,1.35924 -1.01369,1.82713c-0.62612,0.46789 -1.49078,0.75752 -2.44496,0.75752c-0.95418,0 -1.81884,-0.28963 -2.44496,-0.75752c-0.62612,-0.46789 -1.01369,-1.11406 -1.01369,-1.82713c0,-0.71308 0.38757,-1.35924 1.01369,-1.82713c0.62612,-0.46789 1.49078,-0.75752 2.44496,-0.75752c0.95418,0 1.81885,0.28962 2.44496,0.75752z" data-paper-data="{&quot;origPos&quot;:null}" fill="url(#color-13)"/><path d="M217.55997,180.24909c0.62612,0.46789 1.01369,1.11405 1.01369,1.82713c0,0.71308 -0.38757,1.35924 -1.01369,1.82713c-0.62612,0.46789 -1.49078,0.75752 -2.44496,0.75752c-0.95418,0 -1.81885,-0.28962 -2.44496,-0.75752c-0.62612,-0.46789 -1.01369,-1.11406 -1.01369,-1.82713c0,-0.71308 0.38757,-1.35924 1.01369,-1.82713c0.62612,-0.46789 1.49078,-0.75752 2.44496,-0.75752c0.95418,0 1.81885,0.28963 2.44496,0.75752z" data-paper-data="{&quot;origPos&quot;:null}" fill="url(#color-14)"/><path d="M207.95635,186.49532c0.62612,0.46789 1.01369,1.11406 1.01369,1.82713c0,0.71308 -0.38757,1.35924 -1.01369,1.82713c-0.62612,0.46789 -1.49078,0.75752 -2.44496,0.75752c-0.95418,0 -1.81885,-0.28963 -2.44496,-0.75752c-0.62612,-0.46789 -1.01369,-1.11406 -1.01369,-1.82713c0,-0.71308 0.38757,-1.35924 1.01369,-1.82713c0.62612,-0.46789 1.49078,-0.75752 2.44496,-0.75752c0.95418,0 1.81885,0.28962 2.44496,0.75752z" data-paper-data="{&quot;origPos&quot;:null}" fill="url(#color-15)"/><path d="M213.12753,183.91068c0.62612,0.46789 1.01369,1.11406 1.01369,1.82713c0,0.71308 -0.38757,1.35924 -1.01369,1.82713c-0.62612,0.46789 -1.49078,0.75752 -2.44496,0.75752c-0.95418,0 -1.81885,-0.28963 -2.44496,-0.75752c-0.62612,-0.46789 -1.01369,-1.11405 -1.01369,-1.82713c0,-0.71308 0.38757,-1.35924 1.01369,-1.82713c0.62612,-0.46789 1.49078,-0.75752 2.44496,-0.75752c0.95418,0 1.81884,0.28963 2.44496,0.75752z" data-paper-data="{&quot;origPos&quot;:null}" fill="url(#color-16)"/><path d="M218.19797,184.05427c0.62612,0.46789 1.01369,1.11406 1.01369,1.82713c0,0.71308 -0.38757,1.35924 -1.01369,1.82713c-0.62612,0.46789 -1.49078,0.75752 -2.44496,0.75752c-0.95418,0 -1.81885,-0.28963 -2.44496,-0.75752c-0.62612,-0.46789 -1.01369,-1.11406 -1.01369,-1.82713c0,-0.71308 0.38757,-1.35924 1.01369,-1.82713c0.62612,-0.46789 1.49078,-0.75752 2.44496,-0.75752c0.95418,0 1.81885,0.28962 2.44496,0.75752z" data-paper-data="{&quot;origPos&quot;:null}" fill="url(#color-17)"/><path d="M216.75407,186.20814c0.62612,0.46789 1.01369,1.11406 1.01369,1.82713c0,0.71308 -0.38757,1.35924 -1.01369,1.82713c-0.62612,0.46789 -1.49078,0.75752 -2.44496,0.75752c-0.95418,0 -1.81885,-0.28962 -2.44496,-0.75752c-0.62612,-0.46789 -1.01369,-1.11406 -1.01369,-1.82713c0,-0.71308 0.38757,-1.35924 1.01369,-1.82713c0.62612,-0.46789 1.49078,-0.75752 2.44496,-0.75752c0.95418,0 1.81885,0.28962 2.44496,0.75752z" data-paper-data="{&quot;origPos&quot;:null}" fill="url(#color-18)"/><path d="M212.82532,186.71071c0.62612,0.46789 1.01369,1.11406 1.01369,1.82713c0,0.71308 -0.38757,1.35924 -1.01369,1.82713c-0.62612,0.46789 -1.49078,0.75752 -2.44496,0.75752c-0.95418,0 -1.81885,-0.28963 -2.44496,-0.75752c-0.62612,-0.46789 -1.01369,-1.11406 -1.01369,-1.82713c0,-0.71308 0.38757,-1.35924 1.01369,-1.82713c0.62612,-0.46789 1.49078,-0.75752 2.44496,-0.75752c0.95418,0 1.81885,0.28962 2.44496,0.75752z" data-paper-data="{&quot;origPos&quot;:null}" fill="url(#color-19)"/><path d="M204.96781,187.71585c0.62612,0.46789 1.01369,1.11406 1.01369,1.82713c0,0.71308 -0.38757,1.35924 -1.01369,1.82713c-0.62612,0.46789 -1.49078,0.75752 -2.44496,0.75752c-0.95418,0 -1.81885,-0.28962 -2.44496,-0.75752c-0.62612,-0.46789 -1.01369,-1.11406 -1.01369,-1.82713c0,-0.71308 0.38757,-1.35924 1.01369,-1.82713c0.62612,-0.46789 1.49078,-0.75752 2.44496,-0.75752c0.95418,0 1.81885,0.28962 2.44496,0.75752z" data-paper-data="{&quot;origPos&quot;:null}" fill="url(#color-20)"/><path d="M197.31177,188.29022c0.62612,0.46789 1.01369,1.11406 1.01369,1.82713c0,0.71308 -0.38757,1.35924 -1.01369,1.82713c-0.62612,0.46789 -1.49078,0.75752 -2.44496,0.75752c-0.95418,0 -1.81885,-0.28962 -2.44496,-0.75752c-0.62612,-0.46789 -1.01369,-1.11406 -1.01369,-1.82713c0,-0.71308 0.38757,-1.35924 1.01369,-1.82713c0.62612,-0.46789 1.49078,-0.75752 2.44496,-0.75752c0.95418,0 1.81884,0.28963 2.44496,0.75752z" data-paper-data="{&quot;origPos&quot;:null}" fill="url(#color-21)"/><path d="M218.86956,188.21842c0.62612,0.46789 1.01369,1.11406 1.01369,1.82713c0,0.71308 -0.38757,1.35924 -1.01369,1.82713c-0.62612,0.46789 -1.49078,0.75752 -2.44496,0.75752c-0.95418,0 -1.81885,-0.28963 -2.44496,-0.75752c-0.62612,-0.46789 -1.01369,-1.11406 -1.01369,-1.82713c0,-0.71308 0.38757,-1.35924 1.01369,-1.82713c0.62612,-0.46789 1.49078,-0.75752 2.44496,-0.75752c0.95418,0 1.81885,0.28962 2.44496,0.75752z" data-paper-data="{&quot;origPos&quot;:null}" fill="url(#color-22)"/></g><g data-paper-data="{&quot;origPos&quot;:null}"><path d="M220.99552,186.71071c0.62612,0.46789 1.01369,1.11405 1.01369,1.82713c0,0.71308 -0.38757,1.35924 -1.01369,1.82713c-0.62612,0.46789 -1.49078,0.75752 -2.44496,0.75752c-0.95418,0 -1.81885,-0.28962 -2.44496,-0.75752c-0.62612,-0.46789 -1.01368,-1.11406 -1.01368,-1.82713c0,-0.71308 0.38757,-1.35924 1.01368,-1.82713c0.62612,-0.46789 1.49078,-0.75752 2.44496,-0.75752c0.95418,0 1.81885,0.28962 2.44496,0.75752z" data-paper-data="{&quot;origPos&quot;:null}" fill="url(#color-23)"/><path d="M222.9431,183.33631c0.62612,0.46789 1.01369,1.11406 1.01369,1.82713c0,0.71308 -0.38757,1.35924 -1.01369,1.82713c-0.62612,0.46789 -1.49078,0.75752 -2.44496,0.75752c-0.95418,0 -1.81885,-0.28963 -2.44496,-0.75752c-0.62612,-0.46789 -1.01369,-1.11406 -1.01369,-1.82713c0,-0.71308 0.38757,-1.35924 1.01369,-1.82713c0.62612,-0.46789 1.49078,-0.75752 2.44496,-0.75752c0.95418,0 1.81884,0.28963 2.44496,0.75752z" data-paper-data="{&quot;origPos&quot;:null}" fill="url(#color-24)"/><path d="M227.4427,181.32603c0.62612,0.46789 1.01369,1.11406 1.01369,1.82713c0,0.71308 -0.38757,1.35924 -1.01369,1.82713c-0.62612,0.46789 -1.49078,0.75752 -2.44496,0.75752c-0.95418,0 -1.81884,-0.28962 -2.44496,-0.75752c-0.62612,-0.46789 -1.01369,-1.11406 -1.01369,-1.82713c0,-0.71308 0.38757,-1.35924 1.01369,-1.82713c0.62612,-0.46789 1.49078,-0.75752 2.44496,-0.75752c0.95418,0 1.81885,0.28962 2.44496,0.75752z" data-paper-data="{&quot;origPos&quot;:null}" fill="url(#color-25)"/><path d="M228.38292,185.70557c0.62612,0.46789 1.01369,1.11406 1.01369,1.82713c0,0.71308 -0.38757,1.35924 -1.01369,1.82713c-0.62612,0.46789 -1.49078,0.75752 -2.44496,0.75752c-0.95418,0 -1.81885,-0.28962 -2.44496,-0.75752c-0.62612,-0.46789 -1.01369,-1.11406 -1.01369,-1.82713c0,-0.71308 0.38757,-1.35924 1.01369,-1.82713c0.62612,-0.46789 1.49078,-0.75752 2.44496,-0.75752c0.95418,0 1.81884,0.28963 2.44496,0.75752z" data-paper-data="{&quot;origPos&quot;:null}" fill="url(#color-26)"/><path d="M225.22648,186.71071c0.62612,0.46789 1.01369,1.11405 1.01369,1.82713c0,0.71308 -0.38757,1.35924 -1.01369,1.82713c-0.62612,0.46789 -1.49078,0.75752 -2.44496,0.75752c-0.95418,0 -1.81885,-0.28962 -2.44496,-0.75752c-0.62612,-0.46789 -1.01369,-1.11406 -1.01369,-1.82713c0,-0.71308 0.38757,-1.35924 1.01369,-1.82713c0.62612,-0.46789 1.49078,-0.75752 2.44496,-0.75752c0.95418,0 1.81884,0.28962 2.44496,0.75752z" data-paper-data="{&quot;origPos&quot;:null}" fill="url(#color-27)"/><path d="M232.47957,186.63891c0.62612,0.46789 1.01369,1.11406 1.01369,1.82713c0,0.71308 -0.38757,1.35924 -1.01369,1.82713c-0.62612,0.46789 -1.49078,0.75752 -2.44496,0.75752c-0.95418,0 -1.81885,-0.28962 -2.44496,-0.75752c-0.62612,-0.46789 -1.01369,-1.11406 -1.01369,-1.82713c0,-0.71308 0.38757,-1.35924 1.01369,-1.82713c0.62612,-0.46789 1.49078,-0.75752 2.44496,-0.75752c0.95418,0 1.81885,0.28962 2.44496,0.75752z" data-paper-data="{&quot;origPos&quot;:null}" fill="url(#color-28)"/><path d="M232.7482,182.90553c0.62612,0.46789 1.01369,1.11406 1.01369,1.82713c0,0.71308 -0.38757,1.35924 -1.01369,1.82713c-0.62612,0.46789 -1.49078,0.75752 -2.44496,0.75752c-0.95418,0 -1.81884,-0.28962 -2.44496,-0.75752c-0.62612,-0.46789 -1.01369,-1.11406 -1.01369,-1.82713c0,-0.71308 0.38757,-1.35924 1.01369,-1.82713c0.62612,-0.46789 1.49078,-0.75752 2.44496,-0.75752c0.95418,0 1.81885,0.28962 2.44496,0.75752z" data-paper-data="{&quot;origPos&quot;:null}" fill="url(#color-29)"/><path d="M236.67695,179.60293c0.62612,0.46789 1.01369,1.11406 1.01369,1.82713c0,0.71308 -0.38757,1.35924 -1.01369,1.82713c-0.62612,0.46789 -1.49078,0.75752 -2.44496,0.75752c-0.95418,0 -1.81885,-0.28963 -2.44496,-0.75752c-0.62612,-0.46789 -1.01369,-1.11406 -1.01369,-1.82713c0,-0.71308 0.38757,-1.35924 1.01369,-1.82713c0.62612,-0.46789 1.49078,-0.75752 2.44496,-0.75752c0.95418,0 1.81885,0.28963 2.44496,0.75752z" data-paper-data="{&quot;origPos&quot;:null}" fill="url(#color-30)"/><path d="M240.16918,182.25937c0.62612,0.46789 1.01369,1.11406 1.01369,1.82713c0,0.71308 -0.38757,1.35924 -1.01369,1.82713c-0.62612,0.46789 -1.49078,0.75752 -2.44496,0.75752c-0.95418,0 -1.81885,-0.28962 -2.44496,-0.75752c-0.62612,-0.46789 -1.01369,-1.11406 -1.01369,-1.82713c0,-0.71308 0.38757,-1.35924 1.01369,-1.82713c0.62612,-0.46789 1.49078,-0.75752 2.44496,-0.75752c0.95418,0 1.81884,0.28962 2.44496,0.75752z" data-paper-data="{&quot;origPos&quot;:null}" fill="url(#color-31)"/><path d="M236.87843,183.83888c0.62612,0.46789 1.01369,1.11406 1.01369,1.82713c0,0.71308 -0.38757,1.35924 -1.01369,1.82713c-0.62612,0.46789 -1.49078,0.75752 -2.44496,0.75752c-0.95418,0 -1.81885,-0.28962 -2.44496,-0.75752c-0.62612,-0.46789 -1.01369,-1.11406 -1.01369,-1.82713c0,-0.71308 0.38757,-1.35924 1.01369,-1.82713c0.62612,-0.46789 1.49078,-0.75752 2.44496,-0.75752c0.95418,0 1.81885,0.28962 2.44496,0.75752z" data-paper-data="{&quot;origPos&quot;:null}" fill="url(#color-32)"/><path d="M248.93332,180.24909c0.62612,0.46789 1.01369,1.11405 1.01369,1.82713c0,0.71308 -0.38757,1.35924 -1.01369,1.82713c-0.62612,0.46789 -1.49078,0.75752 -2.44496,0.75752c-0.95418,0 -1.81885,-0.28963 -2.44496,-0.75752c-0.62612,-0.46789 -1.01369,-1.11406 -1.01369,-1.82713c0,-0.71308 0.38757,-1.35924 1.01369,-1.82713c0.62612,-0.46789 1.49078,-0.75752 2.44496,-0.75752c0.95418,0 1.81884,0.28963 2.44496,0.75752z" data-paper-data="{&quot;origPos&quot;:null}" fill="url(#color-33)"/><path d="M239.3297,186.49532c0.62612,0.46789 1.01369,1.11406 1.01369,1.82713c0,0.71308 -0.38757,1.35924 -1.01369,1.82713c-0.62612,0.46789 -1.49078,0.75752 -2.44496,0.75752c-0.95418,0 -1.81885,-0.28962 -2.44496,-0.75752c-0.62612,-0.46789 -1.01369,-1.11406 -1.01369,-1.82713c0,-0.71308 0.38757,-1.35924 1.01369,-1.82713c0.62612,-0.46789 1.49078,-0.75752 2.44496,-0.75752c0.95418,0 1.81884,0.28962 2.44496,0.75752z" data-paper-data="{&quot;origPos&quot;:null}" fill="url(#color-34)"/><path d="M244.50088,183.91068c0.62612,0.46789 1.01369,1.11406 1.01369,1.82713c0,0.71308 -0.38757,1.35924 -1.01369,1.82713c-0.62612,0.46789 -1.49078,0.75752 -2.44496,0.75752c-0.95418,0 -1.81885,-0.28963 -2.44496,-0.75752c-0.62612,-0.46789 -1.01369,-1.11405 -1.01369,-1.82713c0,-0.71308 0.38757,-1.35924 1.01369,-1.82713c0.62612,-0.46789 1.49078,-0.75752 2.44496,-0.75752c0.95418,0 1.81884,0.28962 2.44496,0.75752z" data-paper-data="{&quot;origPos&quot;:null}" fill="url(#color-35)"/><path d="M249.57133,184.05427c0.62612,0.46789 1.01369,1.11406 1.01369,1.82713c0,0.71308 -0.38757,1.35924 -1.01369,1.82713c-0.62612,0.46789 -1.49078,0.75752 -2.44496,0.75752c-0.95418,0 -1.81884,-0.28963 -2.44496,-0.75752c-0.62612,-0.46789 -1.01369,-1.11406 -1.01369,-1.82713c0,-0.71308 0.38757,-1.35924 1.01369,-1.82713c0.62612,-0.46789 1.49078,-0.75752 2.44496,-0.75752c0.95418,0 1.81885,0.28963 2.44496,0.75752z" data-paper-data="{&quot;origPos&quot;:null}" fill="url(#color-36)"/><path d="M248.12743,186.20814c0.62612,0.46789 1.01369,1.11406 1.01369,1.82713c0,0.71308 -0.38757,1.35924 -1.01369,1.82713c-0.62612,0.46789 -1.49078,0.75752 -2.44496,0.75752c-0.95418,0 -1.81885,-0.28963 -2.44496,-0.75752c-0.62612,-0.46789 -1.01369,-1.11406 -1.01369,-1.82713c0,-0.71308 0.38757,-1.35924 1.01369,-1.82713c0.62612,-0.46789 1.49078,-0.75752 2.44496,-0.75752c0.95418,0 1.81885,0.28962 2.44496,0.75752z" data-paper-data="{&quot;origPos&quot;:null}" fill="url(#color-37)"/><path d="M244.19867,186.71071c0.62612,0.46789 1.01369,1.11405 1.01369,1.82713c0,0.71308 -0.38757,1.35924 -1.01369,1.82713c-0.62612,0.46789 -1.49078,0.75752 -2.44496,0.75752c-0.95418,0 -1.81885,-0.28962 -2.44496,-0.75752c-0.62612,-0.46789 -1.01369,-1.11406 -1.01369,-1.82713c0,-0.71308 0.38757,-1.35924 1.01369,-1.82713c0.62612,-0.46789 1.49078,-0.75752 2.44496,-0.75752c0.95418,0 1.81885,0.28962 2.44496,0.75752z" data-paper-data="{&quot;origPos&quot;:null}" fill="url(#color-38)"/><path d="M236.34116,187.71585c0.62612,0.46789 1.01369,1.11406 1.01369,1.82713c0,0.71308 -0.38757,1.35924 -1.01369,1.82713c-0.62612,0.46789 -1.49078,0.75752 -2.44496,0.75752c-0.95418,0 -1.81884,-0.28963 -2.44496,-0.75752c-0.62612,-0.46789 -1.01369,-1.11406 -1.01369,-1.82713c0,-0.71308 0.38757,-1.35924 1.01369,-1.82713c0.62612,-0.46789 1.49078,-0.75752 2.44496,-0.75752c0.95418,0 1.81884,0.28962 2.44496,0.75752z" data-paper-data="{&quot;origPos&quot;:null}" fill="url(#color-39)"/><path d="M228.68513,188.29022c0.62612,0.46789 1.01369,1.11406 1.01369,1.82713c0,0.71308 -0.38757,1.35924 -1.01369,1.82713c-0.62612,0.46789 -1.49078,0.75752 -2.44496,0.75752c-0.95418,0 -1.81885,-0.28962 -2.44496,-0.75752c-0.62612,-0.46789 -1.01369,-1.11406 -1.01369,-1.82713c0,-0.71308 0.38757,-1.35924 1.01369,-1.82713c0.62612,-0.46789 1.49078,-0.75752 2.44496,-0.75752c0.95418,0 1.81884,0.28963 2.44496,0.75752z" data-paper-data="{&quot;origPos&quot;:null}" fill="url(#color-40)"/><path d="M250.24291,188.21842c0.62612,0.46789 1.01369,1.11405 1.01369,1.82713c0,0.71308 -0.38757,1.35924 -1.01369,1.82713c-0.62612,0.46789 -1.49078,0.75752 -2.44496,0.75752c-0.95418,0 -1.81885,-0.28962 -2.44496,-0.75752c-0.62612,-0.46789 -1.01369,-1.11406 -1.01369,-1.82713c0,-0.71308 0.38757,-1.35924 1.01369,-1.82713c0.62612,-0.46789 1.49078,-0.75752 2.44496,-0.75752c0.95418,0 1.81885,0.28962 2.44496,0.75752z" data-paper-data="{&quot;origPos&quot;:null}" fill="url(#color-41)"/></g></g></g><g><path d="M187.39789,228.56324v-20.60392l59.00249,-0.1085l-1.36015,7.00344l4.91596,8.27784l-3.6643,5.43113z" data-paper-data="{&quot;origPos&quot;:null}" fill="#cfbf74" stroke="url(#color-42)"/><path d="M248.79146,210.74995c0,0.03848 -7.79529,-2.66277 -7.79529,-2.66277c0,0 -3.36524,-0.43462 -4.38413,0.03131c-1.32091,0.60404 -3.19737,2.05176 -3.19737,2.05176c0,0 -3.89681,-2.24111 -4.58841,-2.19497c-1.60425,0.10703 -5.24608,0.03905 -6.30975,0.59851c-0.81964,0.43111 -3.04346,1.80063 -3.04346,1.80063c0,0 -2.74834,-1.95729 -6.85338,-1.95729c-3.70401,0 -6.5479,0.85787 -8.02158,1.76849c-1.85193,1.14436 0.47866,-1.89778 -3.39613,-2.18462c-0.96758,-0.07163 -3.99058,0.11656 -6.46602,0.31843c-1.13338,0.09243 -2.23529,1.3218 -2.93137,1.691c-2.65066,1.40588 -8.61762,-1.90641 -2.41854,-2.5668c6.19907,-0.66039 15.71473,-0.34166 25.16195,-0.34166c9.44722,0 23.2594,-0.56123 29.45847,0.09916c0,0 1.8597,0.04967 2.5181,0.4317c1.41535,0.82124 2.26693,2.43021 2.26693,3.11711z" data-paper-data="{&quot;origPos&quot;:null}" fill="url(#color-43)" stroke="#65a96e"/></g></g><path d="M187.16799,126.125h106v106h-106z" data-paper-data="{&quot;origPos&quot;:null}" fill="none" stroke="#995900" stroke-width="9" stroke-linecap="butt"/></g></g></svg>