<svg version="1.1" xmlns="http://www.w3.org/2000/svg" xmlns:xlink="http://www.w3.org/1999/xlink" width="568.72913" height="247.05754" viewBox="0,0,568.72913,247.05754"><defs><radialGradient cx="243.786" cy="278.2995" r="319.7451" gradientUnits="userSpaceOnUse" id="color-1"><stop offset="0" stop-color="#6681bd"/><stop offset="1" stop-color="#45577f"/></radialGradient><radialGradient cx="323.4262" cy="237.981" r="325.9308" gradientUnits="userSpaceOnUse" id="color-2"><stop offset="0" stop-color="#45577f"/><stop offset="1" stop-color="#1f283a"/></radialGradient><radialGradient cx="323.87478" cy="235.43613" r="247.9517" gradientUnits="userSpaceOnUse" id="color-3"><stop offset="0" stop-color="#45577f"/><stop offset="1" stop-color="#1f283a"/></radialGradient><radialGradient cx="67.9489" cy="203.513" r="232.3917" gradientUnits="userSpaceOnUse" id="color-4"><stop offset="0" stop-color="#6681bd"/><stop offset="1" stop-color="#45577f"/></radialGradient><radialGradient cx="96.2853" cy="166.4886" r="330.5297" gradientUnits="userSpaceOnUse" id="color-5"><stop offset="0" stop-color="#45577f"/><stop offset="1" stop-color="#1f283a"/></radialGradient><radialGradient cx="97.23368" cy="164.13079" r="247.05451" gradientUnits="userSpaceOnUse" id="color-6"><stop offset="0" stop-color="#45577f"/><stop offset="1" stop-color="#1f283a"/></radialGradient><radialGradient cx="437.7932" cy="206.5672" r="322.6688" gradientUnits="userSpaceOnUse" id="color-7"><stop offset="0" stop-color="#6681bd"/><stop offset="1" stop-color="#45577f"/></radialGradient><radialGradient cx="462.0857" cy="135.0845" r="339.6235" gradientUnits="userSpaceOnUse" id="color-8"><stop offset="0" stop-color="#45577f"/><stop offset="1" stop-color="#1f283a"/></radialGradient><radialGradient cx="462.52347" cy="133.28756" r="224.88217" gradientUnits="userSpaceOnUse" id="color-9"><stop offset="0" stop-color="#45577f"/><stop offset="1" stop-color="#1f283a"/></radialGradient></defs><g transform="translate(69.41681,-132.89741)"><g data-paper-data="{&quot;isPaintingLayer&quot;:true}" fill-rule="nonzero" stroke-linejoin="miter" stroke-miterlimit="10" stroke-dasharray="" stroke-dashoffset="0" style="mix-blend-mode: normal"><g stroke-width="1.5215"><path d="M234.1755,257.233l190.4745,1.9801l-0.4678,44.9976l-190.4745,-1.9802z" fill="url(#color-1)" stroke="#496087" stroke-linecap="butt"/><path d="M330.8319,236.2366l101.148,5.0517l-7.3507,19.9247l-28.1251,20.2097l-34.9696,-20.8656l-32.444,28.6643l-33.8148,-30.3532l-33.4221,21.1547l-27.6989,-20.79l-5.2852,-26.0564z" fill="url(#color-2)" stroke="url(#color-3)" stroke-linecap="round"/></g><g data-paper-data="{&quot;origPos&quot;:null}" stroke-width="1.5215"><path d="M-63.1745,185.733l190.4745,1.9801l-0.4678,44.9976l-190.4745,-1.9802z" fill="url(#color-4)" stroke="#496087" stroke-linecap="butt"/><path d="M33.4819,164.7366l101.148,5.0517l-7.3507,19.9247l-28.1251,20.2097l-34.9696,-20.8656l-32.444,28.6643l-33.8148,-30.3532l-33.4221,21.1547l-27.6989,-20.79l-5.2852,-26.0564z" fill="url(#color-5)" stroke="url(#color-6)" stroke-linecap="round"/></g><path d="M249,145.5v0v0.5v0z" fill="#009999" stroke="none" stroke-width="1" stroke-linecap="butt"/><path d="M410,148h88.31231v230.95495h-88.31231z" fill="url(#color-7)" stroke="#496087" stroke-width="2" stroke-linecap="butt"/><path d="M493.7196,136.7366l-1.5053,52.9848l-29.2296,-30.3532l-28.8901,21.1547l-23.9431,-20.79l-4.5685,-26.0564z" fill="url(#color-8)" stroke="url(#color-9)" stroke-width="1.49508" stroke-linecap="round"/></g></g></svg>