<svg version="1.1" xmlns="http://www.w3.org/2000/svg" xmlns:xlink="http://www.w3.org/1999/xlink" width="567.50588" height="374.24265" viewBox="0,0,567.50588,374.24265"><defs><linearGradient x1="13.46681" y1="278.125" x2="61.82501" y2="278.125" gradientUnits="userSpaceOnUse" id="color-1"><stop offset="0" stop-color="#5ebd47"/><stop offset="1" stop-color="#56ac41"/></linearGradient><linearGradient x1="293.3694" y1="299.71115" x2="294.29798" y2="355.70604" gradientUnits="userSpaceOnUse" id="color-2"><stop offset="0" stop-color="#c3e060"/><stop offset="1" stop-color="#6de01b"/></linearGradient><linearGradient x1="13.43101" y1="238.5979" x2="13.43101" y2="261.5849" gradientUnits="userSpaceOnUse" id="color-3"><stop offset="0" stop-color="#000000"/><stop offset="1" stop-color="#000000" stop-opacity="0"/></linearGradient><linearGradient x1="9.12501" y1="246.375" x2="66.87501" y2="246.375" gradientUnits="userSpaceOnUse" id="color-4"><stop offset="0" stop-color="#5ebd47"/><stop offset="1" stop-color="#56ac41"/></linearGradient><linearGradient x1="251.16878" y1="121.42347" x2="251.57274" y2="161.61014" gradientUnits="userSpaceOnUse" id="color-5"><stop offset="0" stop-color="#c3e060"/><stop offset="1" stop-color="#6de01b"/></linearGradient><linearGradient x1="582.75095" y1="76.99825" x2="583.22777" y2="132.99672" gradientUnits="userSpaceOnUse" id="color-6"><stop offset="0" stop-color="#c3e060"/><stop offset="1" stop-color="#6de01b"/></linearGradient><linearGradient x1="691.13737" y1="317.78427" x2="684.03225" y2="373.33692" gradientUnits="userSpaceOnUse" id="color-7"><stop offset="0" stop-color="#c3e060"/><stop offset="1" stop-color="#6de01b"/></linearGradient></defs><g transform="translate(0.1185,-77.50419)"><g data-paper-data="{&quot;isPaintingLayer&quot;:true}" fill-rule="nonzero" stroke-linecap="butt" stroke-linejoin="miter" stroke-miterlimit="10" stroke-dasharray="" stroke-dashoffset="0" style="mix-blend-mode: normal"><path d="M13.46681,254h48.3582v48.25h-48.3582z" fill="url(#color-1)" stroke="none" stroke-width="1.18415"/><g data-paper-data="{&quot;origPos&quot;:null}"><path d="M3.28334,330.87622h273.93674v45.068h-273.93674z" fill="#c06520" stroke="#763e13" stroke-width="1.61017"/><path d="M124.77619,353.00002c0,-2.76142 2.73215,-5 6.10241,-5c3.37027,0 6.10241,2.23858 6.10241,5c0,2.76142 -2.73215,5 -6.10241,5c-3.37027,0 -6.10241,-2.23858 -6.10241,-5z" data-paper-data="{&quot;origPos&quot;:null}" fill="#e0bb60" stroke="none" stroke-width="0.5"/><path d="M3.39022,305.94669c1.99173,-2.5883 5.89906,-3.04718 5.89906,-3.04718c0,0 253.42525,-1.51367 266.86799,-1.59282c5.00248,-0.02946 9.80698,-0.12852 12.02179,2.26185c2.46061,2.65568 3.70817,6.31739 3.73034,9.31851c0.08322,11.26705 0.08767,11.86763 0.1709,23.13469l-10.87368,13.83466l-7.67068,-13.92466l-13.48763,8.14849l-13.80267,-10.84977l-19.57919,14.21579l-21.26509,-12.7682l-12.19966,11.13467l-16.26252,-9.82272l-17.16909,10.18901l-7.64481,-12.91741l-17.1525,11.18892l-21.21534,-9.76846l-5.95891,14.06655l-27.42295,-10.70053l-9.72327,11.10752l-11.37601,-13.87663l-17.13592,12.18883l-16.2791,-10.82264l-4.77043,11.05327l-11.70756,-10.8362l-8.46847,12.09386l0.36839,-35.65246c0,0 0.11529,-4.76864 2.10701,-7.35694z" data-paper-data="{&quot;origPos&quot;:null,&quot;origRot&quot;:0}" fill="url(#color-2)" stroke="#0f6600" stroke-width="2"/></g><path d="M17.48171,255h6.3806v47.25h-6.3806z" fill="#5dd24d" stroke="none" stroke-width="1.18415"/><path d="M13.43101,238.5979h48.3582v22.987h-48.3582z" fill="url(#color-3)" stroke="none" stroke-width="2.30239"/><path d="M9.12501,237.75h57.75v17.25h-57.75z" fill="url(#color-4)" stroke="none" stroke-width="1.07722"/><path d="M13.27281,237.75h6.0447v17.25h-6.0447z" fill="#5dd24d" stroke="none" stroke-width="1.18415"/><g><path d="M5.15116,131.99771l182.3701,1.421l-0.4479,32.29201l-182.3701,-1.42107z" fill="#c06520" stroke="#763e13" stroke-width="1.5215"/><path d="M19.48575,122.69443c0,0 143.91573,-0.12224 159.60967,-0.13557c5.23131,-0.00444 9.57478,-0.47439 11.01096,1.42389c2.19387,2.89976 2.39363,5.23182 2.39363,8.56537c0,6.50659 0,13.01319 0,19.51978l-10.54229,-5.86436l-9.63482,7.9471l-12.70056,-7.10691l-13.52771,7.25079l-5.92229,-9.29706l-13.52049,7.96841l-16.58623,-7.0856l-4.7561,10.07331l-21.45052,-7.77657l-7.69199,7.93644l-8.84374,-9.99871l-13.51328,8.68603l-12.70778,-7.82453l-3.80632,7.91512l-11.73635,-7.82986l-6.71335,8.64873l-7.90224,-5.49026l-9.71602,4.00859l0.92323,-21.68364c0,0 2.3931,-6.49354 6.06967,-8.58278c3.08847,-1.75505 11.26491,-1.26772 11.26491,-1.26772z" data-paper-data="{&quot;origPos&quot;:null,&quot;origRot&quot;:0}" fill="url(#color-5)" stroke="#0f6600" stroke-width="2"/><path d="M81.50001,157.50001c0,-2.76142 2.23858,-5 5,-5c2.76142,0 5,2.23858 5,5c0,2.76142 -2.23858,5 -5,5c-2.76142,0 -5,-2.23858 -5,-5z" fill="#e0bb60" stroke="none" stroke-width="0.5"/><path d="M153,157.00001c0,-2.76142 2.23858,-5 5,-5c2.76142,0 5,2.23858 5,5c0,2.76142 -2.23858,5 -5,5c-2.76142,0 -5,-2.23858 -5,-5z" fill="#e0bb60" stroke="none" stroke-width="0.5"/></g><g><path d="M292.3588,91.73301l215.26444,1.9801l-0.52868,44.9976l-215.26444,-1.9802z" fill="#c06520" stroke="#763e13" stroke-width="1.5215"/><path d="M309.27894,78.76927c0,0 169.87401,-0.17033 188.39868,-0.18891c6.17489,-0.00619 11.3018,-0.66104 12.99702,1.98413c2.58958,4.0407 2.82537,7.29033 2.82537,11.9355c0,9.06667 0,18.13335 0,27.20002l-12.44381,-8.17174l-11.37266,11.07396l-14.99137,-9.90319l-15.96772,10.10368l-6.9905,-12.95508l-15.9592,11.10365l-19.57791,-9.87349l-5.61397,14.03674l-25.31958,-10.83633l-9.07941,11.0591l-10.4389,-13.93279l-15.95069,12.10363l-14.99989,-10.90317l-4.49287,11.0294l-13.85326,-10.91059l-7.92425,12.05165l-9.32758,-7.65045l-11.46851,5.58581l1.08976,-30.21527c0,0 2.82475,-9.04849 7.16446,-11.95975c3.64554,-2.44559 13.29678,-1.76651 13.29678,-1.76651z" data-paper-data="{&quot;origPos&quot;:null,&quot;origRot&quot;:0}" fill="url(#color-6)" stroke="#0f6600" stroke-width="2"/><path d="M458.00001,130.00001c0,-2.76142 2.23858,-5 5,-5c2.76142,0 5,2.23858 5,5c0,2.76142 -2.23858,5 -5,5c-2.76142,0 -5,-2.23858 -5,-5z" fill="#e0bb60" stroke="none" stroke-width="0.5"/><path d="M415.00001,125.50001c0,-2.76142 2.23858,-5 5,-5c2.76142,0 5,2.23858 5,5c0,2.76142 -2.23858,5 -5,5c-2.76142,0 -5,-2.23858 -5,-5z" fill="#e0bb60" stroke="none" stroke-width="0.5"/><path d="M362.00001,129.50001c0,-2.76142 2.23858,-5 5,-5c2.76142,0 5,2.23858 5,5c0,2.76142 -2.23858,5 -5,5c-2.76142,0 -5,-2.23858 -5,-5z" fill="#e0bb60" stroke="none" stroke-width="0.5"/><path d="M333.50001,127.50001c0,-2.76142 2.23858,-5 5,-5c2.76142,0 5,2.23858 5,5c0,2.76142 -2.23858,5 -5,5c-2.76142,0 -5,-2.23858 -5,-5z" fill="#e0bb60" stroke="none" stroke-width="0.5"/></g><g><path d="M374.32001,303.74781l179.25661,25.51762l-16.77278,121.34989l-179.25661,-25.51762z" fill="#c06520" stroke="#763e13" stroke-width="2"/><path d="M372.03379,277.17828c1.79704,-1.40334 6.82367,-2.06536 11.61059,-1.38804c66.5732,9.41968 148.15112,20.95991 167.65393,23.71943c6.50093,0.91984 11.2265,3.46345 12.24944,4.75973c1.33572,1.69264 3.37314,5.08722 2.71053,9.8812c-1.14885,8.31186 -1.79494,12.98625 -2.94379,21.29811c-0.1231,0.89062 -1.97413,8.40352 -2.09199,9.29403l-11.03483,-13.99197l-16.8904,10.83165l-12.83745,-15.1154l-16.93513,11.22929l-18.7659,-14.86681l-8.54128,12.96265l-21.38814,-16.34733l-16.53676,11.17365l-10.40073,-15.55408l-17.79943,9.69209l-16.19335,-13.31846l-6.80766,10.17172l-14.84035,-13.13335l-10.99354,10.60842c0,0 3.21736,-20.3386 5.27665,-33.35633c0.74645,-4.71871 3.9906,-7.37181 5.49957,-8.5502z" data-paper-data="{&quot;origRot&quot;:0}" fill="url(#color-7)" stroke="#0f6600" stroke-width="2"/><path d="M399.59679,332.77559c0.38412,-2.73457 2.91233,-4.64 5.64691,-4.25588c2.73457,0.38412 4.64,2.91233 4.25588,5.64691c-0.38412,2.73457 -2.91233,4.64 -5.64691,4.25588c-2.73457,-0.38412 -4.64,-2.91233 -4.25588,-5.64691z" fill="#e0bb60" stroke="none" stroke-width="0.5"/><path d="M444.2752,388.53255c0.38412,-2.73457 2.91233,-4.64 5.64691,-4.25588c2.73457,0.38412 4.64,2.91233 4.25588,5.64691c-0.38412,2.73457 -2.91233,4.64 -5.64691,4.25588c-2.73457,-0.38412 -4.64,-2.91233 -4.25588,-5.64691z" fill="#e0bb60" stroke="none" stroke-width="0.5"/><path d="M397.71558,374.92368c0.38412,-2.73457 2.91233,-4.64 5.64691,-4.25588c2.73457,0.38412 4.64,2.91233 4.25588,5.64691c-0.38412,2.73457 -2.91233,4.64 -5.64691,4.25588c-2.73457,-0.38412 -4.64,-2.91233 -4.25588,-5.64691z" fill="#e0bb60" stroke="none" stroke-width="0.5"/><path d="M485.48932,353.92913c0.38412,-2.73457 2.91233,-4.64 5.64691,-4.25588c2.73457,0.38412 4.64,2.91233 4.25588,5.64691c-0.38412,2.73457 -2.91233,4.64 -5.64691,4.25588c-2.73457,-0.38412 -4.64,-2.91233 -4.25588,-5.64691z" fill="#e0bb60" stroke="none" stroke-width="0.5"/></g></g></g></svg>