<svg version="1.1" xmlns="http://www.w3.org/2000/svg" xmlns:xlink="http://www.w3.org/1999/xlink" width="30.35" height="30.2"><defs><radialGradient cx="240.2725" cy="180.424" r="19.1737" gradientUnits="userSpaceOnUse" id="color-1"><stop offset="0" stop-color="#2eea2e"/><stop offset="1" stop-color="#2eea2e" stop-opacity="0"/></radialGradient></defs><g transform="translate(-225.075,-164.775)"><g data-paper-data="{&quot;isPaintingLayer&quot;:true}" fill="none" fill-rule="nonzero" stroke="none" stroke-width="none" stroke-linecap="none" stroke-linejoin="miter" stroke-miterlimit="10" stroke-dasharray="" stroke-dashoffset="0" font-family="none" font-weight="none" font-size="none" text-anchor="none" style="mix-blend-mode: normal"><g data-paper-data="{&quot;origPos&quot;:null}" id="ID0.35333530604839325"><path d="M239.9,165.675c3.952,0 7.533,1.605 10.127,4.198c2.593,2.594 4.198,6.175 4.198,10.127c0,3.952 -1.605,7.533 -4.198,10.127c-2.594,2.593 -6.175,4.198 -10.127,4.198c-3.952,0 -7.533,-1.605 -10.127,-4.198c-2.593,-2.594 -4.198,-6.175 -4.198,-10.127c0,-3.952 1.605,-7.533 4.198,-10.127c2.594,-2.593 6.175,-4.198 10.127,-4.198z" id="ID0.5567860365845263" fill="url(#color-1)" stroke="none" stroke-width="1" stroke-linecap="butt"/><path d="M243.875,165.925c0,0 2.132,0.746 3.1,1.3c1.119,0.64 2.126,1.365 3.15,2.25c0.876,0.796 1.677,1.736 2.25,2.75c0.763,1.351 1.8,4.3 1.8,4.3" id="ID0.861272606998682" fill="none" stroke="#ffffff" stroke-width="2" stroke-linecap="round"/><path d="M226.075,176.375c0,0 1.037,-2.949 1.8,-4.3c0.573,-1.014 1.374,-1.954 2.25,-2.75c1.024,-0.885 2.031,-1.61 3.15,-2.25c0.968,-0.554 3.1,-1.3 3.1,-1.3" id="ID0.861272606998682" fill="none" stroke="#31c01b" stroke-width="2" stroke-linecap="round"/><path d="M254.425,183.275c0,0 -1.037,2.949 -1.8,4.3c-0.573,1.014 -1.374,1.954 -2.25,2.75c-1.024,0.885 -2.031,1.61 -3.15,2.25c-0.968,0.554 -3.1,1.3 -3.1,1.3" id="ID0.861272606998682" fill="none" stroke="#31c01b" stroke-width="2" stroke-linecap="round"/><path d="M236.525,193.975c0,0 -2.132,-0.746 -3.1,-1.3c-1.119,-0.64 -2.126,-1.365 -3.15,-2.25c-0.876,-0.796 -1.677,-1.736 -2.25,-2.75c-0.763,-1.351 -1.8,-4.3 -1.8,-4.3" id="ID0.861272606998682" fill="none" stroke="#31c01b" stroke-width="2" stroke-linecap="round"/><g id="ID0.733029002789408" fill="#ffffff" stroke="none" stroke-width="1.26647" stroke-linecap="butt"><path d="M238.8652,174.2289c1.4697,1.2626 2.7958,3.1225 3.626,5.2801c0.8301,2.1576 1.0081,4.2072 0.6277,5.7756c-0.3819,1.5687 -1.3253,2.6567 -2.7367,2.8899c-1.4113,0.2333 -3.029,-0.4313 -4.5002,-1.6937c-1.4696,-1.2626 -2.7957,-3.1224 -3.6259,-5.28c-0.8301,-2.1577 -1.0081,-4.2073 -0.6277,-5.7757c0.3819,-1.5686 1.3253,-2.6566 2.7366,-2.8899c1.4114,-0.2333 3.0291,0.4314 4.5002,1.6937z" id="ID0.841910011600703"/><path d="M245.585,172.6352c1.4113,0.2333 2.3547,1.3213 2.7366,2.8899c0.3804,1.5684 0.2024,3.618 -0.6277,5.7757c-0.8302,2.1576 -2.1563,4.0174 -3.6259,5.28c-1.4712,1.2624 -3.0889,1.927 -4.5002,1.6937c-1.4114,-0.2332 -2.3548,-1.3212 -2.7367,-2.8899c-0.3804,-1.5684 -0.2024,-3.618 0.6277,-5.7756c0.8302,-2.1576 2.1563,-4.0175 3.626,-5.2801c1.4711,-1.2623 3.0888,-1.927 4.5002,-1.6937z" id="ID0.841910011600703"/></g></g><path d="M238.1583,175.9956c2.5496,0.4179 3.9085,0.6621 4.0768,0.7316c0.9575,1.8582 1.4806,2.8917 1.5675,3.101c0,0.0403 -0.4646,0.493 -1.3937,1.3582c0.0585,0.1051 0.523,0.8019 1.3937,2.0905c0,0.0119 0,0.0237 0,0.0348c-0.0348,0.1509 -0.5926,1.1614 -1.6726,3.0315h-4.1803c-0.1106,-0.0814 -0.8999,-0.8825 -2.3694,-2.4042c0.2907,-0.267 1.0918,-0.9291 2.4042,-1.9855c0.1106,0.1099 0.598,0.8762 1.4632,2.2992c0.0118,0 0.0229,0 0.0347,0c0.3832,-0.3366 0.7664,-0.674 1.1496,-1.0105c-0.0988,-0.1454 -0.5396,-0.6677 -1.3234,-1.5676c0.4061,-0.5577 0.813,-1.1148 1.2191,-1.6725c-0.2899,-0.4298 -0.5807,-0.8597 -0.8707,-1.2887c-1.0626,1.4396 -1.6085,2.1601 -1.6378,2.1601c-1.5675,-1.0105 -2.4737,-1.6149 -2.7178,-1.8124c1.6259,-1.7651 2.5788,-2.7866 2.8569,-3.0655z" data-paper-data="{&quot;origPos&quot;:null}" id="path1229" fill="#30c11a" stroke="none" stroke-width="0.20904" stroke-linecap="butt"/></g></g></svg>