<svg version="1.1" xmlns="http://www.w3.org/2000/svg" xmlns:xlink="http://www.w3.org/1999/xlink" width="92.80002" height="313.00003"><defs><radialGradient cx="387.2995" cy="118.50001" r="156.50002" gradientUnits="userSpaceOnUse" id="color-1"><stop offset="0" stop-color="#6d6d6d"/><stop offset="1" stop-color="#525252"/></radialGradient><radialGradient cx="379.6435" cy="127.9839" r="167.6051" gradientUnits="userSpaceOnUse" id="color-2"><stop offset="0" stop-color="#6d6d6d"/><stop offset="1" stop-color="#525252"/></radialGradient><radialGradient cx="379.6435" cy="127.9839" r="167.6051" gradientUnits="userSpaceOnUse" id="color-3"><stop offset="0" stop-color="#6d6d6d"/><stop offset="1" stop-color="#525252"/></radialGradient><radialGradient cx="379.6435" cy="127.9839" r="167.6051" gradientUnits="userSpaceOnUse" id="color-4"><stop offset="0" stop-color="#6d6d6d"/><stop offset="1" stop-color="#525252"/></radialGradient><radialGradient cx="379.6435" cy="127.9839" r="167.6051" gradientUnits="userSpaceOnUse" id="color-5"><stop offset="0" stop-color="#6d6d6d"/><stop offset="1" stop-color="#525252"/></radialGradient></defs><g transform="translate(-340.89949,38)"><g data-paper-data="{&quot;isPaintingLayer&quot;:true}" fill="none" fill-rule="nonzero" stroke="none" stroke-width="none" stroke-linecap="butt" stroke-linejoin="miter" stroke-miterlimit="10" stroke-dasharray="" stroke-dashoffset="0" font-family="none" font-weight="none" font-size="none" text-anchor="none" style="mix-blend-mode: normal"><path d="M340.8995,-38h92.8v48.54726c-0.64465,-0.12825 -1.2993,-0.09992 -1.87797,0.13155c-3.24546,1.29819 -9.42949,3.8001 -10.30759,7.70316c-0.47498,2.11123 -1.3712,3.74038 0.23607,5.11803c0.86059,0.73765 1.7362,1.49311 2.75,2c0.74536,0.37268 1.66667,0 2.5,0c2.30421,0 4.4876,-0.40851 6.6995,-0.70333v48.93737c-1.31466,-0.31693 -3.04229,-0.64009 -3.6105,0.04998l-1.45946,0.24325c-1.20504,0.179 -2.12954,1.21791 -2.12954,2.47274c0,0.82832 0.40283,1.56253 1.02328,2.01745c0.66667,0.5 3.31006,2.48255 3.97672,2.98255c0,0 1.0503,0.78772 2.1995,0.46036v65.32477c-1.07414,0.62976 -1.99189,1.44415 -2.6995,2.71487c-0.31014,0.55694 -0.53779,1.15595 -0.78749,1.74275c-0.25831,-0.2321 -0.80616,0.26604 -1.2028,0.3058c-0.33081,0.03316 -1.89299,-0.22635 -2.00971,-0.04855c-0.91836,1.39898 -1.45718,3.04506 -1.82119,4.67847c-0.22258,0.99877 2.17527,2.93851 2.32119,3.07153c1.92933,1.75859 3.90103,3.42577 6,5c0.06926,0.05194 0.13571,0.10316 0.1995,0.15376v81.87086l-1.6793,-1.25947c-0.42124,-0.32311 -0.94829,-0.51515 -1.5202,-0.51515c-1.38071,0 -2.5,1.11929 -2.5,2.5c0,0.18573 0.02025,0.36673 0.05867,0.54091l0.23988,1.19938c-0.02118,0.03062 -0.03766,0.06235 -0.05003,0.09503c-0.74644,0.43247 -1.24852,1.23994 -1.24852,2.16468c0,0.32934 0.06369,0.64381 0.17941,0.93176l0.72976,1.94606c-0.37302,0.95031 1.95946,4.6053 2.29296,5.60699c1.27883,3.84107 2.6615,8.10708 3.49737,12.14292v2.87228h-18.45195l-1.00726,-0.20145c-0.88133,-0.13 -1.76756,-0.33589 -2.65688,-0.57587c0.52186,-0.98032 0.57613,-2.11086 -0.18968,-3.25892c-0.15852,-0.23764 -1.51794,-2.55452 -2.39373,-2.71376c-1.47808,-0.26874 -3.01279,-0.46246 -4.5,-0.25c-0.11017,0.01574 -1.09715,1.53751 -1.26776,1.73224c-1.21096,1.38208 -1.86995,1.72867 -3.60753,2.42528c-0.30248,0.11308 -0.57721,0.28307 -0.81113,0.49694c-0.51751,0.43801 -1.06151,1.19604 -0.77451,2.34555h-6.56464c-0.10116,-1.08405 -2.25173,-1.81383 -3.35639,-2.48607c-0.39011,-0.23741 -0.79261,-0.4466 -1.20352,-0.63696c-0.04917,-0.04785 -0.0981,-0.09609 -0.14675,-0.14474c-0.62804,-0.59681 -3.20353,-1.91019 -3.44657,-2.16071c-0.93593,-0.96474 -0.66671,-3.34099 -1.92746,-4.10777c-1.38125,-0.84006 -2.85926,-1.65968 -4.45547,-1.91593c-0.67917,-0.10903 -3.56512,2.9638 -4.0379,3.39614c-2.91941,2.66966 -6.0227,5.21576 -8.77802,8.05603h-23.22284v-15.07558c0.38796,-0.27681 0.75728,-0.58121 1.1005,-0.92442c0.75462,-0.75462 2.05975,-1.43448 2,-2.5c-0.18548,-3.30804 -1.56797,-4.71642 -3.1005,-6.15295v-39.58361c0.31413,-0.16188 0.59096,-0.42237 0.88674,-0.61971c1.3616,-0.9084 2.72074,-2.48341 4.21376,-3.14373c0.40188,-0.17774 4.28875,-0.23129 4.42847,-1.17881c0.24748,-1.67827 -0.02418,-3.42365 -0.42847,-5.07119c-0.30392,-1.23851 -3.97548,-1.4381 -3.60627,-2.78624c-0.41087,-0.68478 -0.78629,-1.39673 -1.07254,-2.14223c-0.16086,-0.41895 -0.05604,-1.18454 -0.5,-1.25c-0.36019,-0.05311 -0.72346,-0.08232 -1.08819,-0.09143c-0.80124,-2.75687 -1.63691,-5.54479 -2.03155,-8.22039l-0.24092,-1.20459c-0.00281,-0.01568 -0.00578,-0.03131 -0.00889,-0.04689c0.00497,-0.03809 0.09635,-0.80868 -0.55215,-1.38682v-33.99576c1.7541,0.15759 3.63985,0.47966 4.8505,-0.12566c1.34371,-0.67185 2.6877,-1.4377 3.75,-2.5c1.16285,-1.16286 -0.45691,-3.37638 -1.38196,-4.73607c-0.23079,-0.33922 -2.09933,-0.92561 -2.5563,-1.2161c-1.31556,-0.8363 -2.5319,-2.02552 -3.75,-3c-0.12009,0.48082 -0.11389,1.01246 -0.36029,1.44246c-0.21126,0.36868 0.23617,-0.8253 0.25,-1.25c0.01472,-0.45182 0.27906,-0.87734 0.54855,-1.24029c1.54591,-2.08201 2.96099,-4.21062 2.46598,-6.911c-0.58553,-3.19423 -2.0066,-5.4286 -3.81648,-7.36122v-28.65979c0.06503,-0.04139 0.1005,-0.06799 0.1005,-0.06799c0.96934,-0.72701 1.59631,-1.50647 1.90548,-2.33785c0.01556,-0.0167 0.03101,-0.03347 0.04636,-0.0503l1.97664,-0.79066l-0.52229,-1.30572l0.73754,-1.22923c0.26366,-0.33935 1.693,-1.1646 1.62403,-1.51848c-0.32153,-1.64969 -1.16721,-3.18374 -2.08929,-4.58895c-0.16721,-0.25482 -0.53086,-0.25473 -0.85091,-0.32312c-0.01046,-0.02742 -0.021,-0.0548 -0.03161,-0.08214c-0.00124,-0.07179 -0.00299,-0.1428 -0.00527,-0.21307c0.06671,-0.01923 0.1125,-0.04808 0.10305,-0.09672c-0.0237,-0.12195 -0.06797,-0.23601 -0.12491,-0.34522c-0.05786,-0.86204 -0.20033,-1.60326 -0.41726,-2.24744l0.07691,-0.19229l-0.17071,-0.06829c-0.49676,-1.29389 -1.3139,-2.17671 -2.35827,-2.86698v-25.94573c0.68909,0.01863 1.31691,-0.06978 1.70405,-0.57294c0.11504,-0.14951 0.22272,-0.30347 0.32418,-0.4612l0.14379,0.05752c-0.01771,-0.0685 -0.03441,-0.13746 -0.05026,-0.20681c0.8305,-1.36077 1.2359,-2.97855 1.90721,-4.43557l-1.25,-0.5c-0.93953,-0.29276 -1.86,-0.4646 -2.77898,-0.56401v-10.15838c0.99705,-0.06423 2.07466,-0.21852 2.39107,-0.58471c1.12089,-1.29724 2.12193,-2.7611 2.70943,-4.37171c0.14278,-0.39144 -0.48971,-0.67464 -0.75,-1c-1.15854,-1.44817 -2.18551,-2.23039 -3.16772,-3.44305l0.41772,-0.55695l-1.6005,-1.20038zM378.35279,1.4237c-0.47845,0.0394 -0.95354,0.08981 -1.35279,0.0763c-2.28147,-0.07722 -3.80264,0.86833 -4.76922,2.35218c-0.64233,0.48443 -1.24219,1.01807 -1.73078,1.64782c-0.613,0.79009 0,2 0,3c0,4.02541 -0.28679,5.35347 4.5,7.5c0.76038,0.34098 1.33333,-1 2,-1.5c2.85811,-2.14358 5.09084,-3.5915 6.73607,-6.88196c0,0 0.48674,-0.97347 0.1756,-1.95695c0.05759,-0.21058 0.08833,-0.43224 0.08833,-0.66108c0,-1.1246 -0.74256,-2.07576 -1.76412,-2.38994l-0.02473,-0.00824" data-paper-data="{&quot;origPos&quot;:null}" id="ID0.01748740393668413" fill="url(#color-1)" stroke-width="1.0806"/><path d="" id="ID0.01748740393668413" fill="url(#color-2)" stroke-width="1.0806"/><path d="M425,19.5c0.09704,0.04852 0.17558,0.13424 0.24412,0.23748c-0.23107,-0.19728 -0.41558,-0.32322 -0.24412,-0.23748z" id="ID0.01748740393668413" fill="url(#color-3)" stroke-width="1.0806"/><path d="" id="ID0.01748740393668413" fill="url(#color-4)" stroke-width="1.0806"/><path d="" id="ID0.01748740393668413" fill="url(#color-5)" stroke-width="1.0806"/><path d="M347.68214,199.28841c2.1961,-1.63152 4.47881,-3.12714 7.19983,-4.02449c0.35556,-0.11726 2.53673,-0.26888 4.12838,-0.73201c-0.13887,-0.535 -0.0939,-1.18785 0.40208,-1.90999c0.0436,-0.21282 0.08758,-0.42578 0.08758,-0.62193c0,-2.25 0,-4.5 0,-6.75c0,-0.86602 -0.44284,-3.57178 0,-4.25c1.90267,-2.91397 3.40895,-3.24563 6.39645,-3.72487c1.56338,-0.25079 3.05117,-0.11952 4.60355,-0.27513c0.17713,-0.01775 0.44191,-0.06926 0.72546,-0.13255c-0.0163,-0.01328 -0.03186,-0.02853 -0.04665,-0.04592c-0.29073,-0.34186 0.43124,-0.80653 0.5,-1.25c0.3527,-2.27472 -0.19349,-2.53786 0.92746,-5.10777l0.75,-1.25c0,0 1.98558,-2.24576 3.83065,-0.55883c1.84507,1.68693 0.45681,3.13131 0.45681,3.13131l-0.75,1.25c-0.71781,-0.06607 -0.51308,4.04812 -0.57254,4.39223c-0.24966,1.44488 -2.0915,3.39878 -2.8309,4.02298c-1.12558,0.95021 -3.75858,0.40632 -5.13674,0.52343c-0.97831,0.08313 -1.97164,0.11187 -2.92508,0.34632c-0.29779,0.07323 -0.6518,0.45131 -0.92847,0.56625c0,0.78752 0,1.57504 0,2.36256c0,2.53641 0.28826,5.41901 -0.00586,8.11344c0.98751,1.04453 1.85321,2.1824 2.95803,3.07482c0.16206,0.13091 1.98532,0.58207 3.34543,0.88273c0.33679,-0.68428 1.06574,-1.52528 2.58254,-1.29193c1.08749,0.1673 1.62273,0.73961 1.88117,1.328c1.75367,-0.50956 3.20617,-1.5479 5.31021,-2.17826c0.95954,-0.28747 2.03522,-1.06385 2.93818,-0.63026c1.32096,0.63431 2.47544,1.59088 3.57042,2.5647c0.5819,0.51752 1.59196,2.65572 1.90594,3.26872c0.25,0.5 0.38333,1.07803 0.75,1.5c0.15425,0.17751 -0.28942,-0.66366 -0.05759,-0.70316c0.44239,-0.07537 0.80124,0.5 1.25,0.5c0.26213,0 -0.74872,-0.27953 -0.60695,-0.5c0.24273,-0.37746 0.83333,-0.33334 1.25,-0.5l3.09567,-0.08813c0,0 2.40933,0.6672 1.74213,3.07653c-0.6672,2.40932 -3.07653,1.74212 -3.07653,1.74212l0.09567,-0.08813c-3.69317,1.47727 -6.98209,1.16175 -8.91454,-2.70316c-0.45806,-0.94941 -1.89208,-1.72015 -1.59406,-2.73128c0.01627,-0.05519 0.04144,-0.10053 0.074,-0.1378c-0.99784,0.20568 -1.93875,0.56079 -2.87583,0.98712c-1.94085,0.88299 -3.57237,1.4698 -5.34392,1.7028c-0.67948,2.86005 -1.60292,5.55787 -2.68329,8.43894c-0.26009,0.6936 -0.55356,1.38045 -0.89342,2.04181c0.98736,0.6813 2.1546,2.21638 2.80259,3.08038l0.99926,3.06096c0,0 -0.06095,2.49926 -2.56021,2.4383c-2.41001,-0.05878 -2.43939,-2.38483 -2.43842,-2.55088l-0.00063,0.05162c-1.74854,-2.33138 -3.3164,-2.52117 -4.5,-6.5c-0.2203,-0.74057 0.92581,-0.8991 1.15918,-1.37781c0.312,-0.64 0.5,-1.33334 0.75,-2c0.90161,-2.40423 1.67451,-4.60152 2.27495,-6.91359c-2.90317,-0.64129 -4.8587,-2.20064 -6.89535,-3.92549c-1.39029,1.26621 -4.19662,0.95369 -5.67073,1.45297c-2.55588,0.86568 -4.64214,2.20891 -6.64467,3.68993M383.77165,199.5722c0.2615,-0.00379 0.52886,-0.011 0.71864,-0.12074c0.25615,-0.14813 -0.24777,-0.0051 -0.71864,0.12074z" fill="#3f3434" stroke-width="NaN"/><path d="M384.81461,146.7141c-1.21411,-2.18539 0.97129,-3.3995 0.97129,-3.3995l-0.78589,0.18539c3.17235,-4.22979 7.61717,-5.36276 12.21801,-6.95328c-2.57194,-0.6195 -5.37416,-1.1904 -7.14649,-2.72553c-0.9131,-0.7909 -2.11055,-2.32434 -2.71526,-3.53495c-0.24705,-0.49459 -0.43642,-1.01587 -0.64484,-1.52808c-0.25871,0.22926 -0.80522,-0.27136 -1.20172,-0.30671c-1.62118,-0.14452 -3.37369,0.04855 -5.00971,0.04855l-2.30115,0.63471c0,0 -2.13471,-1.30116 -0.83355,-3.43587c1.30115,-2.13471 3.43586,-0.83356 3.43586,-0.83356l-0.30115,-1.36529c3.71518,0 7.22529,-0.54202 10.32119,2.07152c0.10756,0.0908 1.55105,3.28168 1.57254,3.39224c0.0326,0.16771 -0.59154,0.09998 -0.46526,0.21505c1.78969,1.63073 6.15426,2.48915 8.39533,3.20826c2.97748,0.9554 5.00315,2.42039 7.66654,3.94232c2.08261,1.38633 3.42585,2.21891 4.43501,4.56427c1.06505,2.47527 0.7079,6.03532 2.86088,7.96261c2.68685,2.40517 6.55128,4.44782 10.42882,5.86544c-0.21576,0.64309 -0.39009,1.30096 -0.53625,1.95678c-0.22258,0.99877 2.17527,2.93851 2.32119,3.07153c0.47093,0.42925 0.94437,0.85305 1.42158,1.27139l-0.33258,-0.05543l0.02065,-0.12387c-6.28503,-1.56915 -13.57314,-4.91918 -17.56182,-9.53037c-2.54273,-2.93957 -1.73568,-9.37641 -5.53817,-10.64113c-0.86691,-0.49538 -1.73973,-1.14691 -2.62389,-1.75594c-0.40353,0.98501 -1.45729,1.40652 -1.45729,1.40652c-4.44307,1.77723 -9.47686,2.24332 -12.42847,6.17881l-0.78589,1.18539c0,0 -2.1854,1.2141 -3.3995,-0.97129z" fill="#3f3434" stroke-width="0.5"/><path d="" fill="#3f3434" stroke-width="0.5"/><path d="M391.55689,228.42701c1.57299,-1.94311 3.5161,-0.37011 3.5161,-0.37011l-0.57299,-0.55689c1.35642,0 2.36853,-0.05796 3.78624,0.35627c4.15371,1.21364 4.83274,6.22719 7.48152,8.87597c0,0 1.76776,1.76776 0,3.53553c-0.13339,0.13339 -0.26677,0.24665 -0.3994,0.34206c0.86172,0.4977 1.70949,0.89018 2.63164,0.89018c0.23837,0.88376 3.5355,-1.94572 4.18826,-2.45217c2.26565,-1.75782 4.62149,-3.08361 7.56174,-3.04783c5.80393,0.07062 9.57806,4.12104 11.50611,9.11636c-0.23854,-0.07559 -0.49256,-0.11638 -0.75611,-0.11638c-1.38071,0 -2.5,1.11929 -2.5,2.5c0,0.18573 0.02025,0.36673 0.05867,0.54091l0.23988,1.19938c-0.02118,0.03062 -0.03766,0.06235 -0.05003,0.09503c-0.30581,0.17718 -0.5706,0.4173 -0.77666,0.70264l-0.27014,-1.6208c-0.11945,-0.58823 -0.27594,-1.16618 -0.5229,-1.73868c-0.83641,-1.93895 -2.93428,-4.80287 -4.63098,-6.11674c-0.17761,-0.13753 0.42218,0.56077 0.21188,0.63971c-0.89108,0.33452 -3.21837,-0.43886 -4.25971,-0.20145c-1.16557,0.26574 -2.90942,2.20368 -3.93826,2.95217c-2.25497,1.64051 -3.21337,2.13354 -6.06174,2.54783c-3.25995,0 -5.42416,-2.46189 -8.4848,-3.20213c-1.03915,-0.25133 -3.30518,0.20213 -4.5152,0.20213c-1,0 -2.10557,-0.44721 -3,0c-0.33333,0.16666 -0.23647,0.73648 -0.5,1c-2.42989,2.42989 -5.23737,4.79145 -7.93826,6.95217l-2.06174,1.04783c0,0 -2.5,0 -2.5,-2.5c0,-2.19007 1.91857,-2.46158 2.39426,-2.49524l-0.956,0.04307c3.80975,-3.04781 6.89856,-7.18256 11.56174,-9.04783c1.71137,-0.68455 6.64107,-0.30259 8.91478,0.09083c-1.23664,-1.95138 -1.94266,-4.18875 -3.55851,-5.8046c-0.79185,-0.79185 -1.8732,-0.28624 -2.85627,-0.28624l-2.57299,-0.55689c0,0 -1.94311,-1.57299 -0.37011,-3.5161z" fill="#3f3434" stroke-width="0.5"/><path d="M348.00001,82.5c2.25587,-0.44627 5.41543,-2.28033 7.54813,-3.3117c2.57308,-1.24434 5.12454,-3.5086 8.0234,-4.0095c5.60039,-0.9677 8.59441,2.87883 13.54141,4.145c1.68996,0.50699 3.57462,1.48286 5.29991,1.84881c1.30058,0.27586 3.85365,-0.66762 5.17615,-0.8886c5.4989,-0.91884 10.5171,-3.33618 16,-4.25l1.15033,-0.02039c0,0 2.48637,-0.26067 2.74704,2.22571c0.26067,2.48637 -2.22571,2.74704 -2.22571,2.74704l-0.84967,-0.02039c-7.1374,1.18957 -14.2538,5.40866 -21.661,5.03402c-1.33587,-0.06757 -2.55088,-0.38409 -3.75511,-0.77487c0.17253,0.24866 0.26108,0.59646 0.50511,0.77487c1.15974,0.84788 5.40493,0.65526 6.92848,2.17881c2.05611,2.05611 2.44844,3.61702 2.57152,6.32119c0.01374,0.3019 0.39814,5.76231 0.5,3.25l1,0.75c0,0 1.99767,2.51605 -0.00919,4.00686c-2.00686,1.49081 -2.99081,-0.00686 -2.99081,-0.00686l-1,-0.75c-1.93558,-2.30283 -2.2622,-2.89403 -2.5,-5.75c-0.05751,-0.69069 0.29916,-1.38898 0.17881,-2.07152c-0.07793,-0.44195 -0.65001,-0.82705 -0.5,-1.25c0.10073,-0.28402 1.1058,0.3558 0.89272,0.14272c-0.66763,-0.66763 -3.00816,-1.1636 -3.86209,-1.44948c-3.37832,-1.131 -5.99183,-2.21891 -7.20943,-5.87171c-0.25224,-0.75673 -0.0216,-1.59181 -0.00139,-2.39275c-2.65326,-1.46548 -5.66631,-3.65877 -8.07014,-3.28606c-2.83985,0.44032 -5.46434,2.76664 -7.9766,3.9905c-3.18857,1.55333 -6.21508,2.67935 -9.45187,3.25438v0.43392h-1.87743c0.36419,-0.28212 0.6784,-0.56182 0.64518,-0.73224c-0.29719,-1.52486 -1.04223,-2.95092 -1.88148,-4.26776zM378.5,85.5c0.04117,0.12352 0.06549,-0.21038 0.13327,-0.39435c-0.07779,-0.02611 -0.15557,-0.05246 -0.23339,-0.079c0.01712,0.16042 0.04851,0.31852 0.10012,0.47335z" fill="#3f3434" stroke-width="NaN"/><path d="" fill="#3f3434" stroke-width="NaN"/><path d="M372.8645,60.29987c-1.29987,-2.1355 0.83563,-3.43536 0.83563,-3.43536c6.68828,-4.07113 14.82884,-9.02625 21.6926,-13.20419c0.15096,-0.67977 0.38773,-1.33354 0.73556,-1.95088c0.60838,-1.07978 1.20477,-2.20477 2.08114,-3.08114c0.7113,-0.7113 1.62117,-0.31497 2.40382,-0.70842c0.13287,-0.0668 0.26178,-0.183 0.38799,-0.31481c-1.80256,-1.37458 -3.50123,-2.55578 -3.50123,-5.10506c0,-5.59177 1.79349,-9.94861 8.29057,-8.87171c0.78107,0.12946 1.42868,0.74036 2.20943,0.87171c0.49307,0.08295 1.07016,-0.25542 1.5,0c0.22342,0.13276 -0.51184,0.82149 -0.26777,0.73223c1.86224,-0.68099 3.37314,-3.82026 5,-5c1.26859,-0.91993 2.01449,-1.35447 2.76777,-1.55831v-0.17393h1.54334c0.06774,-0.00107 0.13712,-0.00179 0.20834,-0.00224l0.74832,-0.99776l1.75,1.3125c0.625,0.3125 1.25,0.9375 1.25,2.1875c0,1.48852 -0.88627,2.09076 -1.60343,2.33442c-0.27831,0.10696 -0.58059,0.16558 -0.89657,0.16558h-3c-0.25455,0.09309 0.8166,0.00116 0.76777,0.26777c-0.08494,0.46369 -0.66667,0.66667 -1,1c-1.02487,1.02487 -2.67591,3.46257 -4,4c-0.86756,0.35213 -3.44515,0.95146 -4.76777,0.73223c-1.80743,-0.29958 -4.07658,-1.70337 -6,-1c-0.25455,0.09309 0.8166,0.00116 0.76777,0.26777c-0.08494,0.46369 -0.8381,0.55727 -1,1c-0.08926,0.24408 0.59947,-0.49118 0.73223,-0.26777c0.51085,0.85967 0,2 0,3c0,0.5 -0.33875,1.13224 0,1.5c0.25909,0.28128 0.00467,-1.0639 0.38675,-1.08013c0.50658,-0.02151 3.95915,2.79371 3.88102,3.31236c-0.25822,1.714 -1.01343,3.3473 -1.88102,4.84789c-0.97502,1.68641 -3.80071,1.12391 -5.02914,2.22805c0.02225,0.0268 0.04433,0.05438 0.06624,0.08277c0.28899,-0.09782 0.85622,-0.3241 0.94786,-0.10038c0.15946,0.38932 -0.19854,0.78172 -0.39396,1.18856c0.14352,0.53777 0.07214,1.00485 -0.09051,1.39093c0.04765,0.37628 0.11277,0.75395 0.11277,1.12993c0,3.14011 1,5.80415 1,9l-0.32579,3.23401c0,0 -1.23401,2.17421 -3.40823,0.9402c-2.17421,-1.23401 -0.9402,-3.40823 -0.9402,-3.40823l-0.32579,-0.76599c0,-1.96629 -0.57431,-4.26066 -0.96765,-6.57123c-5.86248,3.56847 -11.72497,7.13694 -17.58745,10.7054l-1.64504,1.00133c0,0 -2.1355,1.29987 -3.43536,-0.83563z" fill="#3f3434" stroke-width="0.5"/></g></g></svg>