<svg version="1.1" xmlns="http://www.w3.org/2000/svg" xmlns:xlink="http://www.w3.org/1999/xlink" width="682.24214" height="371.15328" viewBox="0,0,682.24214,371.15328"><defs><linearGradient x1="74.76465" y1="0.4191" x2="74.76465" y2="359.58095" gradientUnits="userSpaceOnUse" id="color-1"><stop offset="0" stop-color="#001d66"/><stop offset="1" stop-color="#006666"/></linearGradient><linearGradient x1="326.34369" y1="114.28477" x2="326.34369" y2="334.42077" gradientUnits="userSpaceOnUse" id="color-2"><stop offset="0" stop-color="#906b49"/><stop offset="1" stop-color="#725235"/></linearGradient><linearGradient x1="456.50789" y1="95.6408" x2="456.50789" y2="115.70287" gradientUnits="userSpaceOnUse" id="color-3"><stop offset="0" stop-color="#c19872"/><stop offset="1" stop-color="#906b49"/></linearGradient><linearGradient x1="553.67941" y1="95.51342" x2="553.67941" y2="115.57549" gradientUnits="userSpaceOnUse" id="color-4"><stop offset="0" stop-color="#c19872"/><stop offset="1" stop-color="#906b49"/></linearGradient><linearGradient x1="520.76404" y1="95.32233" x2="520.76404" y2="115.38439" gradientUnits="userSpaceOnUse" id="color-5"><stop offset="0" stop-color="#c19872"/><stop offset="1" stop-color="#906b49"/></linearGradient><linearGradient x1="488.35658" y1="95.1313" x2="488.35658" y2="115.19336" gradientUnits="userSpaceOnUse" id="color-6"><stop offset="0" stop-color="#c19872"/><stop offset="1" stop-color="#906b49"/></linearGradient><linearGradient x1="326.47176" y1="95.6408" x2="326.47176" y2="115.70287" gradientUnits="userSpaceOnUse" id="color-7"><stop offset="0" stop-color="#c19872"/><stop offset="1" stop-color="#906b49"/></linearGradient><linearGradient x1="423.64326" y1="95.51342" x2="423.64326" y2="115.57549" gradientUnits="userSpaceOnUse" id="color-8"><stop offset="0" stop-color="#c19872"/><stop offset="1" stop-color="#906b49"/></linearGradient><linearGradient x1="390.72785" y1="95.32233" x2="390.72785" y2="115.38439" gradientUnits="userSpaceOnUse" id="color-9"><stop offset="0" stop-color="#c19872"/><stop offset="1" stop-color="#906b49"/></linearGradient><linearGradient x1="358.32043" y1="95.1313" x2="358.32043" y2="115.19336" gradientUnits="userSpaceOnUse" id="color-10"><stop offset="0" stop-color="#c19872"/><stop offset="1" stop-color="#906b49"/></linearGradient><linearGradient x1="228.94465" y1="96.91455" x2="228.94465" y2="116.97662" gradientUnits="userSpaceOnUse" id="color-11"><stop offset="0" stop-color="#c19872"/><stop offset="1" stop-color="#906b49"/></linearGradient><linearGradient x1="293.20078" y1="96.59615" x2="293.20078" y2="116.65821" gradientUnits="userSpaceOnUse" id="color-12"><stop offset="0" stop-color="#c19872"/><stop offset="1" stop-color="#906b49"/></linearGradient><linearGradient x1="260.79331" y1="96.40506" x2="260.79331" y2="116.46713" gradientUnits="userSpaceOnUse" id="color-13"><stop offset="0" stop-color="#c19872"/><stop offset="1" stop-color="#906b49"/></linearGradient><linearGradient x1="98.90852" y1="96.91455" x2="98.90852" y2="116.97662" gradientUnits="userSpaceOnUse" id="color-14"><stop offset="0" stop-color="#c19872"/><stop offset="1" stop-color="#906b49"/></linearGradient><linearGradient x1="196.08004" y1="96.78717" x2="196.08004" y2="116.84923" gradientUnits="userSpaceOnUse" id="color-15"><stop offset="0" stop-color="#c19872"/><stop offset="1" stop-color="#906b49"/></linearGradient><linearGradient x1="163.16467" y1="96.59615" x2="163.16467" y2="116.65821" gradientUnits="userSpaceOnUse" id="color-16"><stop offset="0" stop-color="#c19872"/><stop offset="1" stop-color="#906b49"/></linearGradient><linearGradient x1="130.75722" y1="96.40506" x2="130.75722" y2="116.46713" gradientUnits="userSpaceOnUse" id="color-17"><stop offset="0" stop-color="#c19872"/><stop offset="1" stop-color="#906b49"/></linearGradient><linearGradient x1="187.53136" y1="185.37937" x2="187.53136" y2="334.34069" gradientUnits="userSpaceOnUse" id="color-18"><stop offset="0" stop-color="#8a4c2b"/><stop offset="1" stop-color="#aa5e35"/></linearGradient><linearGradient x1="357.11555" y1="186.31245" x2="357.11555" y2="338.06681" gradientUnits="userSpaceOnUse" id="color-19"><stop offset="0" stop-color="#8a4c2b"/><stop offset="1" stop-color="#aa5e35"/></linearGradient><linearGradient x1="187.53136" y1="150.87851" x2="187.53136" y2="230.45933" gradientUnits="userSpaceOnUse" id="color-20"><stop offset="0" stop-color="#42d642"/><stop offset="1" stop-color="#2f982f"/></linearGradient><linearGradient x1="187.53136" y1="113.07761" x2="187.53136" y2="178.73178" gradientUnits="userSpaceOnUse" id="color-21"><stop offset="0" stop-color="#42d642"/><stop offset="1" stop-color="#2f982f"/></linearGradient><linearGradient x1="188.02874" y1="87.21386" x2="188.02874" y2="126.00951" gradientUnits="userSpaceOnUse" id="color-22"><stop offset="0" stop-color="#42d642"/><stop offset="1" stop-color="#2f982f"/></linearGradient><linearGradient x1="357.11555" y1="151.87327" x2="357.11555" y2="231.45409" gradientUnits="userSpaceOnUse" id="color-23"><stop offset="0" stop-color="#42d642"/><stop offset="1" stop-color="#2f982f"/></linearGradient><linearGradient x1="357.11555" y1="114.07237" x2="357.11555" y2="179.72654" gradientUnits="userSpaceOnUse" id="color-24"><stop offset="0" stop-color="#42d642"/><stop offset="1" stop-color="#2f982f"/></linearGradient><linearGradient x1="357.61294" y1="88.20862" x2="357.61294" y2="127.00427" gradientUnits="userSpaceOnUse" id="color-25"><stop offset="0" stop-color="#42d642"/><stop offset="1" stop-color="#2f982f"/></linearGradient><linearGradient x1="524.37732" y1="186.31245" x2="524.37732" y2="338.06682" gradientUnits="userSpaceOnUse" id="color-26"><stop offset="0" stop-color="#8a4c2b"/><stop offset="1" stop-color="#aa5e35"/></linearGradient><linearGradient x1="524.37732" y1="151.87328" x2="524.37732" y2="231.4541" gradientUnits="userSpaceOnUse" id="color-27"><stop offset="0" stop-color="#42d642"/><stop offset="1" stop-color="#2f982f"/></linearGradient><linearGradient x1="524.37732" y1="114.07237" x2="524.37732" y2="179.72654" gradientUnits="userSpaceOnUse" id="color-28"><stop offset="0" stop-color="#42d642"/><stop offset="1" stop-color="#2f982f"/></linearGradient><linearGradient x1="524.87472" y1="88.20862" x2="524.87472" y2="127.00427" gradientUnits="userSpaceOnUse" id="color-29"><stop offset="0" stop-color="#42d642"/><stop offset="1" stop-color="#2f982f"/></linearGradient><linearGradient x1="309.01167" y1="81.41588" x2="309.01167" y2="278.58418" gradientUnits="userSpaceOnUse" id="color-30"><stop offset="0" stop-color="#03005b" stop-opacity="0.60392"/><stop offset="1" stop-color="#5e0080" stop-opacity="0.75686"/></linearGradient></defs><g transform="translate(16.90671,5.09477)"><g data-paper-data="{&quot;isPaintingLayer&quot;:true}" fill-rule="nonzero" stroke-linejoin="miter" stroke-miterlimit="10" stroke-dasharray="" stroke-dashoffset="0" style="mix-blend-mode: normal"><g><path d="M74.76465,0.4191h488.05446v359.1618h-488.05446z" fill="url(#color-1)" stroke="#000000" stroke-width="0" stroke-linecap="butt"/><path d="M78.76764,71.6305l-0.29843,-0.29843" fill="none" stroke="#cccccc" stroke-width="2" stroke-linecap="round"/><path d="M209.00057,16.378l-0.29843,-0.29843" fill="none" stroke="#cccccc" stroke-width="2" stroke-linecap="round"/><path d="M156.84586,23.37416l-0.29843,-0.29843" fill="none" stroke="#cccccc" stroke-width="2" stroke-linecap="round"/><path d="M134.90737,56.18035l-0.29843,-0.29843" fill="none" stroke="#cccccc" stroke-width="2" stroke-linecap="round"/><path d="M179.15479,68.68505l-0.29843,-0.29843" fill="none" stroke="#cccccc" stroke-width="2" stroke-linecap="round"/><path d="M452.49904,41.48923l0.29843,0.29843" fill="none" stroke="#cccccc" stroke-width="2" stroke-linecap="round"/><path d="M403.59119,29.82668l-0.29843,-0.29843" fill="none" stroke="#cccccc" stroke-width="2" stroke-linecap="round"/><path d="M402.79387,77.28567l0.29843,0.29843" fill="none" stroke="#cccccc" stroke-width="2" stroke-linecap="round"/><g stroke="none" stroke-width="1" stroke-linecap="butt"><path d="M262.54316,27.54767c14.13355,0 26.94109,4.01286 36.21524,10.49571c9.27415,6.48285 15.01491,15.43569 15.01491,25.31565c0,9.87996 -5.74076,18.8328 -15.01491,25.31566c-9.27415,6.48285 -22.08169,10.49571 -36.21524,10.49571c-14.13355,0 -26.94109,-4.01286 -36.21524,-10.49571c-9.27415,-6.48285 -15.01491,-15.43569 -15.01491,-25.31566c0,-9.87996 5.74076,-18.8328 15.01491,-25.31565c9.27415,-6.48285 22.08169,-10.49571 36.21524,-10.49571z" fill="#718399"/><path d="M326.20781,11.63152c14.13355,0 26.94109,4.01286 36.21524,10.49571c9.27415,6.48285 15.01491,15.43569 15.01491,25.31565c0,9.87996 -5.74076,18.8328 -15.01491,25.31566c-9.27415,6.48285 -22.08169,10.49571 -36.21524,10.49571c-14.13355,0 -26.94109,-4.01286 -36.21524,-10.49571c-9.27415,-6.48285 -15.01491,-15.43569 -15.01491,-25.31566c0,-9.87996 5.74076,-18.8328 15.01491,-25.31565c9.27415,-6.48285 22.08169,-10.49571 36.21524,-10.49571z" fill="#718399"/><path d="M273.9829,42.96647c1.23549,0 2.3546,1.08727 3.16433,2.84302c0.81073,1.75575 1.31209,4.17998 1.31209,6.85589c0,2.67591 -0.50136,5.10014 -1.31209,6.85589c-0.80973,1.75575 -1.92884,2.84302 -3.16433,2.84302c-1.23549,0 -2.3546,-1.08727 -3.16433,-2.84302c-0.81073,-1.75575 -1.31209,-4.17998 -1.31209,-6.85589c0,-2.67591 0.50136,-5.10014 1.31209,-6.85589c0.80973,-1.75575 1.92884,-2.84302 3.16433,-2.84302z" fill="#000000"/><path d="M294.87286,42.46909c1.23549,0 2.3546,1.08727 3.16433,2.84302c0.81073,1.75575 1.31209,4.17998 1.31209,6.85589c0,2.67591 -0.50136,5.10014 -1.31209,6.85589c-0.80973,1.75575 -1.92884,2.84302 -3.16433,2.84302c-1.23549,0 -2.3546,-1.08727 -3.16433,-2.84302c-0.81073,-1.75575 -1.31209,-4.17998 -1.31209,-6.85589c0,-2.67591 0.50136,-5.10014 1.31209,-6.85589c0.80973,-1.75575 1.92884,-2.84302 3.16433,-2.84302z" fill="#000000"/></g><g stroke="none" stroke-width="1" stroke-linecap="butt"><path d="M87.60126,114.28477h477.48487v220.136h-477.48487z" data-paper-data="{&quot;origPos&quot;:null}" fill="url(#color-2)"/><g data-paper-data="{&quot;origPos&quot;:null}"><g data-paper-data="{&quot;origPos&quot;:null}"><path d="M444.95195,95.6408h23.11189v20.06206h-23.11189z" data-paper-data="{&quot;origPos&quot;:null}" fill="url(#color-3)"/><path d="M542.12348,95.51342h23.11189v20.06207h-23.11189z" data-paper-data="{&quot;origPos&quot;:null}" fill="url(#color-4)"/><path d="M509.20809,95.32233h23.11189v20.06206h-23.11189z" data-paper-data="{&quot;origPos&quot;:null}" fill="url(#color-5)"/><path d="M476.80063,95.1313h23.11189v20.06206h-23.11189z" data-paper-data="{&quot;origPos&quot;:null}" fill="url(#color-6)"/></g><g data-paper-data="{&quot;origPos&quot;:null}"><path d="M314.91582,95.6408h23.11189v20.06206h-23.11189z" data-paper-data="{&quot;origPos&quot;:null}" fill="url(#color-7)"/><path d="M412.08732,95.51342h23.11189v20.06207h-23.11189z" data-paper-data="{&quot;origPos&quot;:null}" fill="url(#color-8)"/><path d="M379.17192,95.32233h23.11189v20.06206h-23.11189z" data-paper-data="{&quot;origPos&quot;:null}" fill="url(#color-9)"/><path d="M346.76451,95.1313h23.11189v20.06206h-23.11189z" data-paper-data="{&quot;origPos&quot;:null}" fill="url(#color-10)"/></g><path d="M217.38871,96.91455h23.11189v20.06206h-23.11189z" data-paper-data="{&quot;origPos&quot;:null}" fill="url(#color-11)"/><path d="M281.64483,96.59615h23.11189v20.06206h-23.11189z" data-paper-data="{&quot;origPos&quot;:null}" fill="url(#color-12)"/><path d="M249.23736,96.40506h23.11189v20.06207h-23.11189z" data-paper-data="{&quot;origPos&quot;:null}" fill="url(#color-13)"/><g data-paper-data="{&quot;origPos&quot;:null}"><path d="M87.35257,96.91455h23.11189v20.06206h-23.11189z" data-paper-data="{&quot;origPos&quot;:null}" fill="url(#color-14)"/><path d="M184.5241,96.78717h23.11189v20.06206h-23.11189z" data-paper-data="{&quot;origPos&quot;:null}" fill="url(#color-15)"/><path d="M151.60872,96.59615h23.11189v20.06206h-23.11189z" data-paper-data="{&quot;origPos&quot;:null}" fill="url(#color-16)"/><path d="M119.20127,96.40506h23.11189v20.06207h-23.11189z" data-paper-data="{&quot;origPos&quot;:null}" fill="url(#color-17)"/></g></g></g><path d="M173.60471,185.37937h27.85329v148.96133h-27.85329z" fill="url(#color-18)" stroke="none" stroke-width="1.78564" stroke-linecap="butt"/><path d="M343.18891,186.31245h27.85329v151.75436h-27.85329z" fill="url(#color-19)" stroke="none" stroke-width="1.81391" stroke-linecap="butt"/><path d="M187.53136,150.87851c10.97818,0 20.92578,4.45852 28.12883,11.66157c7.20306,7.20306 11.66157,17.15066 11.66157,28.12883c0,10.97818 -4.45852,20.92578 -11.66157,28.12883c-7.20306,7.20306 -17.15066,11.66157 -28.12883,11.66157c-10.97818,0 -20.92578,-4.45852 -28.12883,-11.66157c-7.20306,-7.20306 -11.66157,-17.15066 -11.66157,-28.12883c0,-10.97818 4.45851,-20.92578 11.66157,-28.12883c7.20306,-7.20306 17.15066,-11.66157 28.12883,-11.66157z" fill="url(#color-20)" stroke="none" stroke-width="1" stroke-linecap="butt"/><path d="M187.53136,113.07761c9.0563,0 17.26307,3.67862 23.20577,9.62132c5.94269,5.94269 9.62132,14.14947 9.62132,23.20577c0,9.0563 -3.67862,17.26307 -9.62132,23.20576c-5.94269,5.94269 -14.14947,9.62132 -23.20577,9.62132c-9.0563,0 -17.26307,-3.67862 -23.20576,-9.62132c-5.94269,-5.94269 -9.62132,-14.14947 -9.62132,-23.20576c0,-9.0563 3.67862,-17.26307 9.62132,-23.20577c5.94269,-5.94269 14.14947,-9.62132 23.20576,-9.62132z" fill="url(#color-21)" stroke="none" stroke-width="1" stroke-linecap="butt"/><path d="M188.02874,87.21386c5.35181,0 10.20126,2.17355 13.71277,5.68506c3.51151,3.51151 5.68506,8.36096 5.68506,13.71277c0,5.35181 -2.17355,10.20126 -5.68506,13.71277c-3.51151,3.51151 -8.36096,5.68506 -13.71277,5.68506c-5.35181,0 -10.20126,-2.17355 -13.71277,-5.68506c-3.51151,-3.51151 -5.68506,-8.36096 -5.68506,-13.71277c0,-5.35181 2.17355,-10.20126 5.68506,-13.71277c3.51151,-3.51151 8.36096,-5.68506 13.71277,-5.68506z" fill="url(#color-22)" stroke="none" stroke-width="1" stroke-linecap="butt"/><path d="M357.11555,151.87327c10.97818,0 20.92578,4.45852 28.12883,11.66157c7.20306,7.20306 11.66157,17.15066 11.66157,28.12883c0,10.97818 -4.45852,20.92578 -11.66157,28.12883c-7.20306,7.20306 -17.15066,11.66157 -28.12883,11.66157c-10.97818,0 -20.92578,-4.45852 -28.12883,-11.66157c-7.20306,-7.20306 -11.66157,-17.15066 -11.66157,-28.12883c0,-10.97818 4.45852,-20.92578 11.66157,-28.12883c7.20306,-7.20306 17.15066,-11.66157 28.12883,-11.66157z" fill="url(#color-23)" stroke="none" stroke-width="1" stroke-linecap="butt"/><path d="M357.11555,114.07237c9.0563,0 17.26307,3.67862 23.20576,9.62132c5.94269,5.94269 9.62132,14.14947 9.62132,23.20577c0,9.0563 -3.67863,17.26307 -9.62132,23.20576c-5.94269,5.94269 -14.14947,9.62132 -23.20576,9.62132c-9.0563,0 -17.26307,-3.67862 -23.20576,-9.62132c-5.94269,-5.94269 -9.62132,-14.14947 -9.62132,-23.20576c0,-9.0563 3.67863,-17.26307 9.62132,-23.20577c5.94269,-5.94269 14.14947,-9.62132 23.20576,-9.62132z" fill="url(#color-24)" stroke="none" stroke-width="1" stroke-linecap="butt"/><path d="M357.61294,88.20862c5.35181,0 10.20126,2.17355 13.71277,5.68506c3.51151,3.51151 5.68506,8.36096 5.68506,13.71277c0,5.35181 -2.17355,10.20126 -5.68506,13.71277c-3.51151,3.51151 -8.36096,5.68506 -13.71277,5.68506c-5.35181,0 -10.20126,-2.17355 -13.71277,-5.68506c-3.51151,-3.51151 -5.68506,-8.36096 -5.68506,-13.71277c0,-5.35181 2.17355,-10.20126 5.68506,-13.71277c3.51151,-3.51151 8.36096,-5.68506 13.71277,-5.68506z" fill="url(#color-25)" stroke="none" stroke-width="1" stroke-linecap="butt"/><path d="M498.8655,16.32599l0.29843,0.29843" fill="none" stroke="#cccccc" stroke-width="2" stroke-linecap="round"/><path d="M506.04063,58.80277l0.29843,0.29843" fill="none" stroke="#cccccc" stroke-width="2" stroke-linecap="round"/><path d="M539.91868,33.55773l-0.29843,-0.29843" fill="none" stroke="#cccccc" stroke-width="2" stroke-linecap="round"/><path d="M510.4507,186.31245h27.85329v151.75436h-27.85329z" fill="url(#color-26)" stroke="none" stroke-width="1.81391" stroke-linecap="butt"/><path d="M524.37732,151.87328c10.97818,0 20.92578,4.45852 28.12883,11.66157c7.20306,7.20306 11.66157,17.15066 11.66157,28.12883c0,10.97818 -4.45852,20.92578 -11.66157,28.12883c-7.20306,7.20306 -17.15066,11.66157 -28.12883,11.66157c-10.97818,0 -20.92578,-4.45852 -28.12883,-11.66157c-7.20306,-7.20306 -11.66157,-17.15066 -11.66157,-28.12883c0,-10.97818 4.45852,-20.92578 11.66157,-28.12883c7.20306,-7.20306 17.15066,-11.66157 28.12883,-11.66157z" fill="url(#color-27)" stroke="none" stroke-width="1" stroke-linecap="butt"/><path d="M524.37732,114.07237c9.0563,0 17.26307,3.67862 23.20577,9.62132c5.94269,5.94269 9.62132,14.14947 9.62132,23.20577c0,9.0563 -3.67862,17.26307 -9.62132,23.20576c-5.94269,5.94269 -14.14947,9.62132 -23.20577,9.62132c-9.0563,0 -17.26307,-3.67862 -23.20576,-9.62132c-5.94269,-5.94269 -9.62132,-14.14947 -9.62132,-23.20576c0,-9.0563 3.67863,-17.26307 9.62132,-23.20577c5.94269,-5.94269 14.14947,-9.62132 23.20576,-9.62132z" fill="url(#color-28)" stroke="none" stroke-width="1" stroke-linecap="butt"/><path d="M524.87472,88.20862c5.35181,0 10.20126,2.17355 13.71277,5.68506c3.51151,3.51151 5.68506,8.36096 5.68506,13.71277c0,5.35181 -2.17355,10.20126 -5.68506,13.71277c-3.51151,3.51151 -8.36096,5.68506 -13.71277,5.68506c-5.35181,0 -10.20126,-2.17355 -13.71277,-5.68506c-3.51151,-3.51151 -5.68506,-8.36096 -5.68506,-13.71277c0,-5.35181 2.17355,-10.20126 5.68506,-13.71277c3.51151,-3.51151 8.36096,-5.68506 13.71277,-5.68506z" fill="url(#color-29)" stroke="none" stroke-width="1" stroke-linecap="butt"/></g><path d="M129.42934,30.52265l402.88067,-5.76844l7.65377,226.55662l-411.73147,0.81741z" fill="url(#color-30)" stroke="#0e6e56" stroke-width="0" stroke-linecap="round"/><path d="M429.05925,256.16036v-66.09093h144.00458v66.09092z" fill="#b1b1b1" stroke="none" stroke-width="0" stroke-linecap="butt"/><path d="M193.04288,188.62965v56.69215h-68.13731v-56.69215z" fill="#5067a6" stroke="none" stroke-width="0" stroke-linecap="butt"/><path d="M525.23933,256.16035v-126.80034h138.81887v126.80034z" fill="#b1b1b1" stroke="none" stroke-width="0" stroke-linecap="butt"/><path d="M132.33348,124.5096v131.04413h-145.48784v-131.04413z" fill="#b1b1b1" stroke="none" stroke-width="0" stroke-linecap="butt"/><path d="M-15.96862,304.59146v-60.6339h336.56949v60.63391z" fill="#5067a6" stroke="none" stroke-width="0" stroke-linecap="butt"/><path d="M315.21936,301.18081v-57.22326h169.09229v57.22326z" fill="#b1b1b1" stroke="none" stroke-width="0" stroke-linecap="butt"/><path d="M320.60087,-5.09476v42.36746h-330.00289v-42.36747z" fill="#5067a6" stroke="none" stroke-width="0" stroke-linecap="butt"/><path d="M186.22161,301.18081v64.8777h-203.12832v-64.8777z" fill="#b1b1b1" stroke="none" stroke-width="0" stroke-linecap="butt"/><path d="M375.24663,301.18081v64.8777h-189.02504v-64.8777z" fill="#5067a6" stroke="none" stroke-width="0" stroke-linecap="butt"/><path d="M482.26526,297.77017v68.28834h-107.01862v-68.28834z" fill="#b1b1b1" stroke="none" stroke-width="0" stroke-linecap="butt"/><path d="M126.26983,124.5096v-88.60115h65.4088v88.60116z" fill="#5067a6" stroke="none" stroke-width="0" stroke-linecap="butt"/><path d="M661.24394,33.78654v97.42532h-136.00461v-97.42531z" fill="#5067a6" stroke="none" stroke-width="0" stroke-linecap="butt"/><path d="M-12.21628,127.23811v-90.64754h144.54975v90.64755z" fill="#b1b1b1" stroke="none" stroke-width="0" stroke-linecap="butt"/><path d="M659.36776,-5.09477v42.36747h-338.76691v-42.36746z" fill="#b1b1b1" stroke="none" stroke-width="0" stroke-linecap="butt"/><path d="M481.58313,364.61874v-120.66119h183.7523v120.66119z" fill="#5067a6" stroke="none" stroke-width="0" stroke-linecap="butt"/></g></g></svg>