<svg version="1.1" xmlns="http://www.w3.org/2000/svg" xmlns:xlink="http://www.w3.org/1999/xlink" width="655.72233" height="410.89026" viewBox="0,0,655.72233,410.89026"><defs><linearGradient x1="606.55441" y1="36.21811" x2="651.58255" y2="36.21811" gradientUnits="userSpaceOnUse" id="color-1"><stop offset="0" stop-color="#aa852f"/><stop offset="1" stop-color="#8a6632"/></linearGradient><linearGradient x1="-4.13977" y1="37.62524" x2="40.88837" y2="37.62524" gradientUnits="userSpaceOnUse" id="color-2"><stop offset="0" stop-color="#8a6632"/><stop offset="1" stop-color="#aa852f"/></linearGradient><linearGradient x1="188.59627" y1="177.41542" x2="188.59627" y2="206.60859" gradientUnits="userSpaceOnUse" id="color-3"><stop offset="0" stop-color="#b08b2e"/><stop offset="1" stop-color="#8a6632"/></linearGradient><linearGradient x1="219.85323" y1="198.49937" x2="219.85323" y2="198.49937" gradientUnits="userSpaceOnUse" id="color-4"><stop offset="0" stop-color="#b08b2e"/><stop offset="1" stop-color="#8a6632"/></linearGradient><linearGradient x1="186.83532" y1="187.95739" x2="186.83532" y2="187.95739" gradientUnits="userSpaceOnUse" id="color-5"><stop offset="0" stop-color="#b08b2e"/><stop offset="1" stop-color="#8a6632"/></linearGradient><linearGradient x1="152.49666" y1="196.87753" x2="152.49666" y2="197.68844" gradientUnits="userSpaceOnUse" id="color-6"><stop offset="0" stop-color="#b08b2e"/><stop offset="1" stop-color="#8a6632"/></linearGradient><linearGradient x1="234.3811" y1="186.33555" x2="234.3811" y2="187.14646" gradientUnits="userSpaceOnUse" id="color-7"><stop offset="0" stop-color="#b08b2e"/><stop offset="1" stop-color="#8a6632"/></linearGradient><linearGradient x1="453.45015" y1="177.41542" x2="453.45015" y2="206.60859" gradientUnits="userSpaceOnUse" id="color-8"><stop offset="0" stop-color="#b08b2e"/><stop offset="1" stop-color="#8a6632"/></linearGradient><linearGradient x1="484.70711" y1="198.49937" x2="484.70711" y2="198.49937" gradientUnits="userSpaceOnUse" id="color-9"><stop offset="0" stop-color="#b08b2e"/><stop offset="1" stop-color="#8a6632"/></linearGradient><linearGradient x1="451.68922" y1="187.95739" x2="451.68922" y2="187.95739" gradientUnits="userSpaceOnUse" id="color-10"><stop offset="0" stop-color="#b08b2e"/><stop offset="1" stop-color="#8a6632"/></linearGradient><linearGradient x1="417.35056" y1="196.87753" x2="417.35056" y2="197.68844" gradientUnits="userSpaceOnUse" id="color-11"><stop offset="0" stop-color="#b08b2e"/><stop offset="1" stop-color="#8a6632"/></linearGradient><linearGradient x1="499.235" y1="186.33555" x2="499.235" y2="187.14646" gradientUnits="userSpaceOnUse" id="color-12"><stop offset="0" stop-color="#b08b2e"/><stop offset="1" stop-color="#8a6632"/></linearGradient><linearGradient x1="80.30462" y1="84.23973" x2="80.30462" y2="42.16524" gradientUnits="userSpaceOnUse" id="color-13"><stop offset="0" stop-color="#b08b2e"/><stop offset="1" stop-color="#8a6632"/></linearGradient><linearGradient x1="64.21859" y1="53.85261" x2="64.21859" y2="53.85261" gradientUnits="userSpaceOnUse" id="color-14"><stop offset="0" stop-color="#b08b2e"/><stop offset="1" stop-color="#8a6632"/></linearGradient><linearGradient x1="81.21087" y1="69.04618" x2="81.21087" y2="69.04618" gradientUnits="userSpaceOnUse" id="color-15"><stop offset="0" stop-color="#b08b2e"/><stop offset="1" stop-color="#8a6632"/></linearGradient><linearGradient x1="98.88285" y1="56.19007" x2="98.88285" y2="55.02132" gradientUnits="userSpaceOnUse" id="color-16"><stop offset="0" stop-color="#b08b2e"/><stop offset="1" stop-color="#8a6632"/></linearGradient><linearGradient x1="56.742" y1="71.38364" x2="56.742" y2="70.2149" gradientUnits="userSpaceOnUse" id="color-17"><stop offset="0" stop-color="#b08b2e"/><stop offset="1" stop-color="#8a6632"/></linearGradient><linearGradient x1="80.30462" y1="-3.05916" x2="80.30462" y2="-45.13364" gradientUnits="userSpaceOnUse" id="color-18"><stop offset="0" stop-color="#b08b2e"/><stop offset="1" stop-color="#8a6632"/></linearGradient><linearGradient x1="64.21859" y1="-33.44628" x2="64.21859" y2="-33.44628" gradientUnits="userSpaceOnUse" id="color-19"><stop offset="0" stop-color="#b08b2e"/><stop offset="1" stop-color="#8a6632"/></linearGradient><linearGradient x1="81.21087" y1="-18.25271" x2="81.21087" y2="-18.25271" gradientUnits="userSpaceOnUse" id="color-20"><stop offset="0" stop-color="#b08b2e"/><stop offset="1" stop-color="#8a6632"/></linearGradient><linearGradient x1="98.88285" y1="-31.10881" x2="98.88285" y2="-32.27756" gradientUnits="userSpaceOnUse" id="color-21"><stop offset="0" stop-color="#b08b2e"/><stop offset="1" stop-color="#8a6632"/></linearGradient><linearGradient x1="56.742" y1="-15.91525" x2="56.742" y2="-17.08398" gradientUnits="userSpaceOnUse" id="color-22"><stop offset="0" stop-color="#b08b2e"/><stop offset="1" stop-color="#8a6632"/></linearGradient><linearGradient x1="80.30462" y1="41.1484" x2="80.30462" y2="-0.92608" gradientUnits="userSpaceOnUse" id="color-23"><stop offset="0" stop-color="#b08b2e"/><stop offset="1" stop-color="#8a6632"/></linearGradient><linearGradient x1="64.21859" y1="10.76128" x2="64.21859" y2="10.76128" gradientUnits="userSpaceOnUse" id="color-24"><stop offset="0" stop-color="#b08b2e"/><stop offset="1" stop-color="#8a6632"/></linearGradient><linearGradient x1="81.21087" y1="25.95485" x2="81.21087" y2="25.95485" gradientUnits="userSpaceOnUse" id="color-25"><stop offset="0" stop-color="#b08b2e"/><stop offset="1" stop-color="#8a6632"/></linearGradient><linearGradient x1="98.88285" y1="13.09875" x2="98.88285" y2="11.93" gradientUnits="userSpaceOnUse" id="color-26"><stop offset="0" stop-color="#b08b2e"/><stop offset="1" stop-color="#8a6632"/></linearGradient><linearGradient x1="56.742" y1="28.29231" x2="56.742" y2="27.12358" gradientUnits="userSpaceOnUse" id="color-27"><stop offset="0" stop-color="#b08b2e"/><stop offset="1" stop-color="#8a6632"/></linearGradient><linearGradient x1="26.30836" y1="19.19922" x2="54.30796" y2="18.97511" gradientUnits="userSpaceOnUse" id="color-28"><stop offset="0" stop-color="#adadad"/><stop offset="1" stop-color="#9e8c72"/></linearGradient><linearGradient x1="133.30086" y1="18.08263" x2="105.30126" y2="18.3016" gradientUnits="userSpaceOnUse" id="color-29"><stop offset="0" stop-color="#adadad"/><stop offset="1" stop-color="#9e8c72"/></linearGradient><linearGradient x1="81.8046" y1="112.88964" x2="81.8046" y2="84.88964" gradientUnits="userSpaceOnUse" id="color-30"><stop offset="0" stop-color="#adadad"/><stop offset="1" stop-color="#9e8c72"/></linearGradient><linearGradient x1="119.30461" y1="115.88964" x2="119.30461" y2="81.88964" gradientUnits="userSpaceOnUse" id="color-31"><stop offset="0" stop-color="#b9b9b9"/><stop offset="1" stop-color="#a8a8a8"/></linearGradient><linearGradient x1="41.30461" y1="115.88964" x2="41.30461" y2="81.88964" gradientUnits="userSpaceOnUse" id="color-32"><stop offset="0" stop-color="#b9b9b9"/><stop offset="1" stop-color="#a8a8a8"/></linearGradient><linearGradient x1="559.84077" y1="82.87548" x2="559.84077" y2="40.80099" gradientUnits="userSpaceOnUse" id="color-33"><stop offset="0" stop-color="#b08b2e"/><stop offset="1" stop-color="#8a6632"/></linearGradient><linearGradient x1="543.75474" y1="52.48836" x2="543.75474" y2="52.48836" gradientUnits="userSpaceOnUse" id="color-34"><stop offset="0" stop-color="#b08b2e"/><stop offset="1" stop-color="#8a6632"/></linearGradient><linearGradient x1="560.74702" y1="67.68193" x2="560.74702" y2="67.68193" gradientUnits="userSpaceOnUse" id="color-35"><stop offset="0" stop-color="#b08b2e"/><stop offset="1" stop-color="#8a6632"/></linearGradient><linearGradient x1="578.41899" y1="54.82582" x2="578.41899" y2="53.65707" gradientUnits="userSpaceOnUse" id="color-36"><stop offset="0" stop-color="#b08b2e"/><stop offset="1" stop-color="#8a6632"/></linearGradient><linearGradient x1="536.27814" y1="70.01939" x2="536.27814" y2="68.85065" gradientUnits="userSpaceOnUse" id="color-37"><stop offset="0" stop-color="#b08b2e"/><stop offset="1" stop-color="#8a6632"/></linearGradient><linearGradient x1="559.84077" y1="-4.42341" x2="559.84077" y2="-46.49789" gradientUnits="userSpaceOnUse" id="color-38"><stop offset="0" stop-color="#b08b2e"/><stop offset="1" stop-color="#8a6632"/></linearGradient><linearGradient x1="543.75474" y1="-34.81053" x2="543.75474" y2="-34.81053" gradientUnits="userSpaceOnUse" id="color-39"><stop offset="0" stop-color="#b08b2e"/><stop offset="1" stop-color="#8a6632"/></linearGradient><linearGradient x1="560.74702" y1="-19.61696" x2="560.74702" y2="-19.61696" gradientUnits="userSpaceOnUse" id="color-40"><stop offset="0" stop-color="#b08b2e"/><stop offset="1" stop-color="#8a6632"/></linearGradient><linearGradient x1="578.41899" y1="-32.47306" x2="578.41899" y2="-33.64181" gradientUnits="userSpaceOnUse" id="color-41"><stop offset="0" stop-color="#b08b2e"/><stop offset="1" stop-color="#8a6632"/></linearGradient><linearGradient x1="536.27814" y1="-17.2795" x2="536.27814" y2="-18.44823" gradientUnits="userSpaceOnUse" id="color-42"><stop offset="0" stop-color="#b08b2e"/><stop offset="1" stop-color="#8a6632"/></linearGradient><linearGradient x1="559.84077" y1="39.78415" x2="559.84077" y2="-2.29033" gradientUnits="userSpaceOnUse" id="color-43"><stop offset="0" stop-color="#b08b2e"/><stop offset="1" stop-color="#8a6632"/></linearGradient><linearGradient x1="543.75474" y1="9.39703" x2="543.75474" y2="9.39703" gradientUnits="userSpaceOnUse" id="color-44"><stop offset="0" stop-color="#b08b2e"/><stop offset="1" stop-color="#8a6632"/></linearGradient><linearGradient x1="560.74702" y1="24.5906" x2="560.74702" y2="24.5906" gradientUnits="userSpaceOnUse" id="color-45"><stop offset="0" stop-color="#b08b2e"/><stop offset="1" stop-color="#8a6632"/></linearGradient><linearGradient x1="578.41899" y1="11.7345" x2="578.41899" y2="10.56575" gradientUnits="userSpaceOnUse" id="color-46"><stop offset="0" stop-color="#b08b2e"/><stop offset="1" stop-color="#8a6632"/></linearGradient><linearGradient x1="536.27814" y1="26.92806" x2="536.27814" y2="25.75933" gradientUnits="userSpaceOnUse" id="color-47"><stop offset="0" stop-color="#b08b2e"/><stop offset="1" stop-color="#8a6632"/></linearGradient><linearGradient x1="505.84451" y1="17.83497" x2="533.84412" y2="17.61086" gradientUnits="userSpaceOnUse" id="color-48"><stop offset="0" stop-color="#adadad"/><stop offset="1" stop-color="#9e8c72"/></linearGradient><linearGradient x1="612.83701" y1="16.71838" x2="584.83742" y2="16.93735" gradientUnits="userSpaceOnUse" id="color-49"><stop offset="0" stop-color="#adadad"/><stop offset="1" stop-color="#9e8c72"/></linearGradient><linearGradient x1="561.34075" y1="111.52539" x2="561.34075" y2="83.52539" gradientUnits="userSpaceOnUse" id="color-50"><stop offset="0" stop-color="#adadad"/><stop offset="1" stop-color="#9e8c72"/></linearGradient><linearGradient x1="598.84075" y1="114.52539" x2="598.84075" y2="80.52539" gradientUnits="userSpaceOnUse" id="color-51"><stop offset="0" stop-color="#b9b9b9"/><stop offset="1" stop-color="#a8a8a8"/></linearGradient><linearGradient x1="520.84075" y1="114.52539" x2="520.84075" y2="80.52539" gradientUnits="userSpaceOnUse" id="color-52"><stop offset="0" stop-color="#b9b9b9"/><stop offset="1" stop-color="#a8a8a8"/></linearGradient><linearGradient x1="362.97377" y1="331.7088" x2="362.97377" y2="360.90198" gradientUnits="userSpaceOnUse" id="color-53"><stop offset="0" stop-color="#b08b2e"/><stop offset="1" stop-color="#8a6632"/></linearGradient><linearGradient x1="331.71682" y1="352.79277" x2="331.71682" y2="352.79277" gradientUnits="userSpaceOnUse" id="color-54"><stop offset="0" stop-color="#b08b2e"/><stop offset="1" stop-color="#8a6632"/></linearGradient><linearGradient x1="364.73471" y1="342.25079" x2="364.73471" y2="342.25079" gradientUnits="userSpaceOnUse" id="color-55"><stop offset="0" stop-color="#b08b2e"/><stop offset="1" stop-color="#8a6632"/></linearGradient><linearGradient x1="399.07338" y1="351.17093" x2="399.07338" y2="351.98185" gradientUnits="userSpaceOnUse" id="color-56"><stop offset="0" stop-color="#b08b2e"/><stop offset="1" stop-color="#8a6632"/></linearGradient><linearGradient x1="317.18894" y1="340.62894" x2="317.18894" y2="341.43987" gradientUnits="userSpaceOnUse" id="color-57"><stop offset="0" stop-color="#b08b2e"/><stop offset="1" stop-color="#8a6632"/></linearGradient><linearGradient x1="52.12854" y1="331.7088" x2="52.12854" y2="360.90198" gradientUnits="userSpaceOnUse" id="color-58"><stop offset="0" stop-color="#b08b2e"/><stop offset="1" stop-color="#8a6632"/></linearGradient><linearGradient x1="85.73071" y1="352.79277" x2="85.73071" y2="352.79277" gradientUnits="userSpaceOnUse" id="color-59"><stop offset="0" stop-color="#b08b2e"/><stop offset="1" stop-color="#8a6632"/></linearGradient><linearGradient x1="52.7128" y1="342.25079" x2="52.7128" y2="342.25079" gradientUnits="userSpaceOnUse" id="color-60"><stop offset="0" stop-color="#b08b2e"/><stop offset="1" stop-color="#8a6632"/></linearGradient><linearGradient x1="100.25859" y1="340.62894" x2="100.25859" y2="341.43987" gradientUnits="userSpaceOnUse" id="color-61"><stop offset="0" stop-color="#b08b2e"/><stop offset="1" stop-color="#8a6632"/></linearGradient><linearGradient x1="156.72376" y1="331.7088" x2="156.72376" y2="360.90198" gradientUnits="userSpaceOnUse" id="color-62"><stop offset="0" stop-color="#b08b2e"/><stop offset="1" stop-color="#8a6632"/></linearGradient><linearGradient x1="154.9628" y1="342.25079" x2="154.9628" y2="342.25079" gradientUnits="userSpaceOnUse" id="color-63"><stop offset="0" stop-color="#b08b2e"/><stop offset="1" stop-color="#8a6632"/></linearGradient><linearGradient x1="120.62414" y1="351.17093" x2="120.62414" y2="351.98185" gradientUnits="userSpaceOnUse" id="color-64"><stop offset="0" stop-color="#b08b2e"/><stop offset="1" stop-color="#8a6632"/></linearGradient><linearGradient x1="259.22377" y1="331.7088" x2="259.22377" y2="360.90198" gradientUnits="userSpaceOnUse" id="color-65"><stop offset="0" stop-color="#b08b2e"/><stop offset="1" stop-color="#8a6632"/></linearGradient><linearGradient x1="260.98473" y1="342.25079" x2="260.98473" y2="342.25079" gradientUnits="userSpaceOnUse" id="color-66"><stop offset="0" stop-color="#b08b2e"/><stop offset="1" stop-color="#8a6632"/></linearGradient><linearGradient x1="295.32337" y1="351.17093" x2="295.32337" y2="351.98185" gradientUnits="userSpaceOnUse" id="color-67"><stop offset="0" stop-color="#b08b2e"/><stop offset="1" stop-color="#8a6632"/></linearGradient><linearGradient x1="183.25859" y1="354.78328" x2="183.25859" y2="355.59421" gradientUnits="userSpaceOnUse" id="color-68"><stop offset="0" stop-color="#b08b2e"/><stop offset="1" stop-color="#8a6632"/></linearGradient><linearGradient x1="241.25861" y1="354.78328" x2="241.25861" y2="355.59421" gradientUnits="userSpaceOnUse" id="color-69"><stop offset="0" stop-color="#b08b2e"/><stop offset="1" stop-color="#8a6632"/></linearGradient><linearGradient x1="466.72377" y1="331.7088" x2="466.72377" y2="360.90198" gradientUnits="userSpaceOnUse" id="color-70"><stop offset="0" stop-color="#b08b2e"/><stop offset="1" stop-color="#8a6632"/></linearGradient><linearGradient x1="464.96283" y1="342.25079" x2="464.96283" y2="342.25079" gradientUnits="userSpaceOnUse" id="color-71"><stop offset="0" stop-color="#b08b2e"/><stop offset="1" stop-color="#8a6632"/></linearGradient><linearGradient x1="430.62417" y1="351.17093" x2="430.62417" y2="351.98185" gradientUnits="userSpaceOnUse" id="color-72"><stop offset="0" stop-color="#b08b2e"/><stop offset="1" stop-color="#8a6632"/></linearGradient><linearGradient x1="593.61402" y1="331.7088" x2="593.61402" y2="360.90198" gradientUnits="userSpaceOnUse" id="color-73"><stop offset="0" stop-color="#b08b2e"/><stop offset="1" stop-color="#8a6632"/></linearGradient><linearGradient x1="595.37496" y1="342.25079" x2="595.37496" y2="342.25079" gradientUnits="userSpaceOnUse" id="color-74"><stop offset="0" stop-color="#b08b2e"/><stop offset="1" stop-color="#8a6632"/></linearGradient><linearGradient x1="629.71363" y1="351.17093" x2="629.71363" y2="351.98185" gradientUnits="userSpaceOnUse" id="color-75"><stop offset="0" stop-color="#b08b2e"/><stop offset="1" stop-color="#8a6632"/></linearGradient><linearGradient x1="493.25861" y1="354.78328" x2="493.25861" y2="355.59421" gradientUnits="userSpaceOnUse" id="color-76"><stop offset="0" stop-color="#b08b2e"/><stop offset="1" stop-color="#8a6632"/></linearGradient><linearGradient x1="575.64887" y1="354.78328" x2="575.64887" y2="355.59421" gradientUnits="userSpaceOnUse" id="color-77"><stop offset="0" stop-color="#b08b2e"/><stop offset="1" stop-color="#8a6632"/></linearGradient></defs><g transform="translate(4.13978,48.98425)"><g data-paper-data="{&quot;isPaintingLayer&quot;:true}" fill-rule="nonzero" stroke-linejoin="miter" stroke-miterlimit="10" stroke-dasharray="" stroke-dashoffset="0" style="mix-blend-mode: normal"><path d="M606.55441,110.32692v-148.21763h45.02814v148.21763z" fill="url(#color-1)" stroke="none" stroke-width="2" stroke-linecap="butt"/><path d="M-4.13977,112.2031v-149.15572h45.02815v149.15572z" fill="url(#color-2)" stroke="none" stroke-width="2" stroke-linecap="butt"/><g data-paper-data="{&quot;index&quot;:null}" stroke="#75491c" stroke-width="2"><path d="M137.08832,206.60859v-29.19316h103.01589v29.19316z" data-paper-data="{&quot;origPos&quot;:null}" fill="url(#color-3)" stroke-linecap="butt"/><path d="M238.34327,198.49937h-36.98007" data-paper-data="{&quot;origPos&quot;:null}" fill="url(#color-4)" stroke-linecap="round"/><path d="M156.45882,187.95739h60.75296" data-paper-data="{&quot;origPos&quot;:null}" fill="url(#color-5)" stroke-linecap="round"/><path d="M167.90503,196.87753l-30.81672,0.81093" data-paper-data="{&quot;origPos&quot;:null}" fill="url(#color-6)" stroke-linecap="round"/><path d="M240.10423,186.33555l-11.44621,0.81092" data-paper-data="{&quot;origPos&quot;:null}" fill="url(#color-7)" stroke-linecap="round"/></g><g data-paper-data="{&quot;index&quot;:null}" stroke="#75491c" stroke-width="2"><path d="M401.94222,206.60859v-29.19316h103.01589v29.19316z" data-paper-data="{&quot;origPos&quot;:null}" fill="url(#color-8)" stroke-linecap="butt"/><path d="M466.21708,198.49937h36.98007" data-paper-data="{&quot;origPos&quot;:null}" fill="url(#color-9)" stroke-linecap="round"/><path d="M421.31274,187.95739h60.75296" data-paper-data="{&quot;origPos&quot;:null}" fill="url(#color-10)" stroke-linecap="round"/><path d="M432.75895,196.87752l-30.81672,0.81093" data-paper-data="{&quot;origPos&quot;:null}" fill="url(#color-11)" stroke-linecap="round"/><path d="M504.9581,186.33555l-11.44621,0.81092" data-paper-data="{&quot;origPos&quot;:null}" fill="url(#color-12)" stroke-linecap="round"/></g><path d="M106.81257,42.16524v42.07447h-53.0159v-42.07447z" data-paper-data="{&quot;origPos&quot;:null}" fill="url(#color-13)" stroke="#75491c" stroke-width="2" stroke-linecap="butt"/><path d="M54.70292,53.85261h19.03135" data-paper-data="{&quot;origPos&quot;:null}" fill="url(#color-14)" stroke="#75491c" stroke-width="2" stroke-linecap="round"/><path d="M65.57797,69.04618h31.26579" data-paper-data="{&quot;origPos&quot;:null}" fill="url(#color-15)" stroke="#75491c" stroke-width="2" stroke-linecap="round"/><path d="M106.81257,55.02132l-15.85946,1.16875" data-paper-data="{&quot;origPos&quot;:null}" fill="url(#color-16)" stroke="#75491c" stroke-width="2" stroke-linecap="round"/><path d="M59.68732,70.2149l-5.89066,1.16874" data-paper-data="{&quot;origPos&quot;:null}" fill="url(#color-17)" stroke="#75491c" stroke-width="2" stroke-linecap="round"/><path d="M106.81257,-45.13364v42.07447h-53.0159v-42.07447z" data-paper-data="{&quot;origPos&quot;:null}" fill="url(#color-18)" stroke="#75491c" stroke-width="2" stroke-linecap="butt"/><path d="M73.73426,-33.44628h-19.03135" data-paper-data="{&quot;origPos&quot;:null}" fill="url(#color-19)" stroke="#75491c" stroke-width="2" stroke-linecap="round"/><path d="M96.84377,-18.25271h-31.26579" data-paper-data="{&quot;origPos&quot;:null}" fill="url(#color-20)" stroke="#75491c" stroke-width="2" stroke-linecap="round"/><path d="M106.81257,-32.27756l-15.85946,1.16875" data-paper-data="{&quot;origPos&quot;:null}" fill="url(#color-21)" stroke="#75491c" stroke-width="2" stroke-linecap="round"/><path d="M53.79666,-15.91525l5.89066,-1.16873" data-paper-data="{&quot;origPos&quot;:null}" fill="url(#color-22)" stroke="#75491c" stroke-width="2" stroke-linecap="round"/><path d="M106.81257,-0.92608v42.07446h-53.0159v-42.07446z" data-paper-data="{&quot;origPos&quot;:null}" fill="url(#color-23)" stroke="#75491c" stroke-width="2" stroke-linecap="butt"/><path d="M54.70292,10.76128h19.03135" data-paper-data="{&quot;origPos&quot;:null}" fill="url(#color-24)" stroke="#75491c" stroke-width="2" stroke-linecap="round"/><path d="M96.84377,25.95485h-31.26579" data-paper-data="{&quot;origPos&quot;:null}" fill="url(#color-25)" stroke="#75491c" stroke-width="2" stroke-linecap="round"/><path d="M106.81257,11.93l-15.85946,1.16875" data-paper-data="{&quot;origPos&quot;:null}" fill="url(#color-26)" stroke="#75491c" stroke-width="2" stroke-linecap="round"/><path d="M53.79666,28.29231l5.89066,-1.16873" data-paper-data="{&quot;origPos&quot;:null}" fill="url(#color-27)" stroke="#75491c" stroke-width="2" stroke-linecap="round"/><path d="M54.54419,84.5622l-27.9996,0.22409l-0.47247,-131.17419l27.9996,-0.22409z" data-paper-data="{&quot;origPos&quot;:null}" fill="url(#color-28)" stroke="#6b6b6b" stroke-width="2" stroke-linecap="butt"/><path d="M105.06503,-45.78806l27.99959,-0.21898l0.47248,128.17931l-27.9996,0.21898z" data-paper-data="{&quot;origPos&quot;:null,&quot;index&quot;:null}" fill="url(#color-29)" stroke="#6b6b6b" stroke-width="2" stroke-linecap="butt"/><path d="M49.47158,-24.35004c-0.0068,4.78646 -3.89252,8.66114 -8.67899,8.65433c-4.78647,-0.0068 -8.66113,-3.89251 -8.65433,-8.67897c0.00681,-4.78647 3.89251,-8.66115 8.67898,-8.65434c4.78647,0.0068 8.66114,3.89252 8.65434,8.67898z" data-paper-data="{&quot;origPos&quot;:null,&quot;origRot&quot;:0}" fill="#a7a095" stroke="#6b6b6b" stroke-width="2" stroke-linecap="butt"/><path d="M128.47098,-23.84604c-0.0068,4.78647 -3.89252,8.66115 -8.67899,8.65434c-4.78647,-0.00681 -8.66114,-3.89253 -8.65434,-8.67899c0.0068,-4.78647 3.89252,-8.66114 8.67899,-8.65434c4.78647,0.00681 8.66115,3.89252 8.65434,8.67899z" data-paper-data="{&quot;origPos&quot;:null,&quot;origRot&quot;:0}" fill="#a7a095" stroke="#6b6b6b" stroke-width="2" stroke-linecap="butt"/><path d="M111.31306,57.70139c-0.002,-4.78647 3.87657,-8.6683 8.66304,-8.6703c4.78647,-0.002 8.6683,3.87656 8.6703,8.66303c0.002,4.78647 -3.87657,8.6683 -8.66304,8.6703c-4.78647,0.00201 -8.6683,-3.87656 -8.6703,-8.66303z" data-paper-data="{&quot;origPos&quot;:null}" fill="#a7a095" stroke="#6b6b6b" stroke-width="2" stroke-linecap="butt"/><path d="M119.63326,26.36458c-4.78647,0.002 -8.6683,-3.87657 -8.6703,-8.66304c-0.002,-4.78647 3.87657,-8.6683 8.66304,-8.6703c4.78647,-0.00201 8.66829,3.87656 8.67029,8.66303c0.00201,4.78647 -3.87656,8.6683 -8.66303,8.6703z" data-paper-data="{&quot;origPos&quot;:null}" fill="#a7a095" stroke="#6b6b6b" stroke-width="2" stroke-linecap="butt"/><path d="M40.98322,66.08138c-4.78647,0.002 -8.66829,-3.87657 -8.6703,-8.66304c-0.002,-4.78647 3.87657,-8.6683 8.66304,-8.6703c4.78647,-0.00201 8.66829,3.87656 8.6703,8.66303c0.002,4.78647 -3.87657,8.6683 -8.66304,8.6703z" data-paper-data="{&quot;origPos&quot;:null}" fill="#a7a095" stroke="#6b6b6b" stroke-width="2" stroke-linecap="butt"/><path d="M31.96283,17.41848c-0.002,-4.78647 3.87657,-8.6683 8.66304,-8.6703c4.78647,-0.002 8.66829,3.87656 8.6703,8.66303c0.002,4.78647 -3.87657,8.6683 -8.66304,8.6703c-4.78647,0.00201 -8.66829,-3.87656 -8.6703,-8.66303z" data-paper-data="{&quot;origPos&quot;:null}" fill="#a7a095" stroke="#6b6b6b" stroke-width="2" stroke-linecap="butt"/><path d="M106.80461,84.88964v28h-50v-28z" data-paper-data="{&quot;origPos&quot;:null}" fill="url(#color-30)" stroke="#6b6b6b" stroke-width="2" stroke-linecap="butt"/><path d="M80.63795,89.5563c4.78647,0 8.66667,3.8802 8.66667,8.66667c0,4.78647 -3.8802,8.66666 -8.66667,8.66666c-4.78647,0 -8.66667,-3.88019 -8.66667,-8.66666c0,-4.78647 3.8802,-8.66667 8.66667,-8.66667z" data-paper-data="{&quot;origPos&quot;:null}" fill="#a7a095" stroke="#6b6b6b" stroke-width="2" stroke-linecap="butt"/><path d="M137.80461,81.88964v34h-37v-34z" data-paper-data="{&quot;origPos&quot;:null}" fill="url(#color-31)" stroke="#6b6b6b" stroke-width="2" stroke-linecap="butt"/><path d="M109.97128,99.04628c0,-5.52284 4.47716,-10 10,-10c5.52284,0 10,4.47716 10,10c0,3.24695 -2.36557,3.53791 -3.09842,5.39204c-0.59142,1.49633 -1.52069,2.69867 -2.68806,3.80592c-1.13579,1.07729 -2.64808,0.80204 -4.21352,0.80204c0,0 -2.75393,0.61842 -4.36104,-0.45866c-1.38941,-0.93117 -2.60429,-3.87524 -2.74343,-4.10955c-1.06606,-1.79528 -2.89553,0.09105 -2.89553,-5.43179zM110.63795,99.54628c0,1.38071 3.78596,2.16666 5.16666,2.16666c0.91755,0 1.71966,-0.49431 2.15454,-1.23116c1.8634,-1.0648 1.80634,-9.29448 -1.48787,-9.29448c0,0 -3.52884,2.11278 -3.65612,2.37067c-0.77473,1.56984 -2.17721,5.80467 -2.17721,5.9883zM128.63794,98.87961c0,-1.97693 -0.18387,-3.5113 -1.33723,-5.11692c-0.96463,-1.34288 -2.34266,-2.38308 -3.99609,-2.38308c-0.91755,0 -1.553,-0.67236 -1.98788,0.06449c-1.8799,1.07423 -0.25977,9.93551 2.65454,9.93551c3.24807,0 4.66666,-2.27586 4.66666,-2.5zM118.08666,104.12961l0.67829,-0.17632c0.95162,0.11895 1.86363,0.17632 2.82171,0.17632c0,0 1.25,-1.07692 1.25,-2.32692c0,-1.25 -1.17308,-1.25 -1.17308,-1.25c-0.85996,0 -1.65952,-0.05051 -2.51162,-0.15702l-0.98838,0.15702c0,0 -1.25,0 -1.25,1.25c0,1.25 1.17308,2.32692 1.17308,2.32692z" data-paper-data="{&quot;origPos&quot;:null,&quot;index&quot;:null}" fill="#6b6b6b" stroke="#6b6b6b" stroke-width="2" stroke-linecap="butt"/><path d="M59.80461,81.88964v34h-37v-34z" data-paper-data="{&quot;origPos&quot;:null}" fill="url(#color-32)" stroke="#6b6b6b" stroke-width="2" stroke-linecap="butt"/><path d="M31.97128,99.04628c0,-5.52284 4.47715,-10 10,-10c5.52285,0 10,4.47716 10,10c0,3.24695 -2.36557,3.53791 -3.09842,5.39204c-0.59143,1.49633 -1.52069,2.69867 -2.68807,3.80592c-1.13579,1.07729 -2.64808,0.80204 -4.21352,0.80204c0,0 -2.75392,0.61842 -4.36104,-0.45866c-1.38941,-0.93117 -2.6043,-3.87524 -2.74343,-4.10955c-1.06606,-1.79528 -2.89553,0.09105 -2.89553,-5.43179zM32.63795,99.54628c0,1.38071 3.78595,2.16666 5.16667,2.16666c0.91756,0 1.71965,-0.49431 2.15453,-1.23116c1.8634,-1.0648 1.80634,-9.29448 -1.48787,-9.29448c0,0 -3.52884,2.11278 -3.65612,2.37067c-0.77473,1.56984 -2.17721,5.80467 -2.17721,5.9883zM50.63794,98.87961c0,-1.97693 -0.18387,-3.5113 -1.33723,-5.11692c-0.96464,-1.34288 -2.34266,-2.38308 -3.9961,-2.38308c-0.91756,0 -1.55299,-0.67236 -1.98787,0.06449c-1.8799,1.07423 -0.25977,9.93551 2.65454,9.93551c3.24807,0 4.66667,-2.27586 4.66667,-2.5zM40.08666,104.12961l0.67829,-0.17632c0.95162,0.11895 1.86364,0.17632 2.82171,0.17632c0,0 1.25,-1.07692 1.25,-2.32692c0,-1.25 -1.17308,-1.25 -1.17308,-1.25c-0.85996,0 -1.65953,-0.05051 -2.51163,-0.15702l-0.98837,0.15702c0,0 -1.25,0 -1.25,1.25c0,1.25 1.17308,2.32692 1.17308,2.32692z" data-paper-data="{&quot;origPos&quot;:null,&quot;index&quot;:null}" fill="#6b6b6b" stroke="#6b6b6b" stroke-width="2" stroke-linecap="butt"/><path d="M586.34872,40.80099v42.07447h-53.0159v-42.07447z" fill="url(#color-33)" stroke="#75491c" stroke-width="2" stroke-linecap="butt"/><path d="M534.23907,52.48836h19.03135" fill="url(#color-34)" stroke="#75491c" stroke-width="2" stroke-linecap="round"/><path d="M545.11412,67.68193h31.26579" fill="url(#color-35)" stroke="#75491c" stroke-width="2" stroke-linecap="round"/><path d="M586.34872,53.65707l-15.85946,1.16875" fill="url(#color-36)" stroke="#75491c" stroke-width="2" stroke-linecap="round"/><path d="M533.3328,70.01939l5.89066,-1.16874" fill="url(#color-37)" stroke="#75491c" stroke-width="2" stroke-linecap="round"/><path d="M586.34872,-46.49789v42.07447h-53.0159v-42.07447z" fill="url(#color-38)" stroke="#75491c" stroke-width="2" stroke-linecap="butt"/><path d="M553.27043,-34.81053h-19.03135" fill="url(#color-39)" stroke="#75491c" stroke-width="2" stroke-linecap="round"/><path d="M545.11412,-19.61696h31.26579" fill="url(#color-40)" stroke="#75491c" stroke-width="2" stroke-linecap="round"/><path d="M570.48925,-32.47306l15.85946,-1.16875" fill="url(#color-41)" stroke="#75491c" stroke-width="2" stroke-linecap="round"/><path d="M533.3328,-17.2795l5.89066,-1.16873" fill="url(#color-42)" stroke="#75491c" stroke-width="2" stroke-linecap="round"/><path d="M586.34872,-2.29033v42.07446h-53.0159v-42.07446z" fill="url(#color-43)" stroke="#75491c" stroke-width="2" stroke-linecap="butt"/><path d="M553.27041,9.39703h-19.03135" fill="url(#color-44)" stroke="#75491c" stroke-width="2" stroke-linecap="round"/><path d="M545.11412,24.5906h31.26579" fill="url(#color-45)" stroke="#75491c" stroke-width="2" stroke-linecap="round"/><path d="M570.48927,11.7345l15.85946,-1.16875" fill="url(#color-46)" stroke="#75491c" stroke-width="2" stroke-linecap="round"/><path d="M539.22345,25.75933l-5.89066,1.16873" fill="url(#color-47)" stroke="#75491c" stroke-width="2" stroke-linecap="round"/><path d="M534.08035,83.19795l-27.9996,0.22409l-0.47247,-131.17419l27.9996,-0.22409z" fill="url(#color-48)" stroke="#6b6b6b" stroke-width="2" stroke-linecap="butt"/><path d="M584.60117,-47.15231l27.99959,-0.21898l0.47248,128.17931l-27.9996,0.21898z" data-paper-data="{&quot;index&quot;:null}" fill="url(#color-49)" stroke="#6b6b6b" stroke-width="2" stroke-linecap="butt"/><path d="M529.00771,-25.71429c-0.0068,4.78646 -3.89252,8.66114 -8.67899,8.65433c-4.78647,-0.0068 -8.66113,-3.89251 -8.65433,-8.67897c0.00681,-4.78647 3.89251,-8.66115 8.67898,-8.65434c4.78647,0.0068 8.66114,3.89252 8.65434,8.67898z" data-paper-data="{&quot;origRot&quot;:0}" fill="#a7a095" stroke="#6b6b6b" stroke-width="2" stroke-linecap="butt"/><path d="M608.00713,-25.21029c-0.0068,4.78647 -3.89252,8.66115 -8.67899,8.65434c-4.78647,-0.00681 -8.66114,-3.89253 -8.65434,-8.67899c0.0068,-4.78647 3.89252,-8.66114 8.67899,-8.65434c4.78647,0.00681 8.66115,3.89252 8.65434,8.67899z" data-paper-data="{&quot;origRot&quot;:0}" fill="#a7a095" stroke="#6b6b6b" stroke-width="2" stroke-linecap="butt"/><path d="M590.84921,56.33714c-0.002,-4.78647 3.87657,-8.6683 8.66304,-8.6703c4.78647,-0.002 8.6683,3.87656 8.6703,8.66303c0.002,4.78647 -3.87657,8.6683 -8.66304,8.6703c-4.78647,0.00201 -8.6683,-3.87656 -8.6703,-8.66303z" fill="#a7a095" stroke="#6b6b6b" stroke-width="2" stroke-linecap="butt"/><path d="M599.16941,25.00033c-4.78647,0.002 -8.6683,-3.87657 -8.6703,-8.66304c-0.002,-4.78647 3.87657,-8.6683 8.66304,-8.6703c4.78647,-0.00201 8.66829,3.87656 8.67029,8.66303c0.00201,4.78647 -3.87656,8.6683 -8.66303,8.6703z" fill="#a7a095" stroke="#6b6b6b" stroke-width="2" stroke-linecap="butt"/><path d="M520.51939,64.71713c-4.78647,0.002 -8.66829,-3.87657 -8.6703,-8.66304c-0.002,-4.78647 3.87657,-8.6683 8.66304,-8.6703c4.78647,-0.00201 8.66829,3.87656 8.6703,8.66303c0.002,4.78647 -3.87657,8.6683 -8.66304,8.6703z" fill="#a7a095" stroke="#6b6b6b" stroke-width="2" stroke-linecap="butt"/><path d="M511.49899,16.05423c-0.002,-4.78647 3.87657,-8.6683 8.66304,-8.6703c4.78647,-0.002 8.66829,3.87656 8.6703,8.66303c0.002,4.78647 -3.87657,8.6683 -8.66304,8.6703c-4.78647,0.00201 -8.66829,-3.87656 -8.6703,-8.66303z" fill="#a7a095" stroke="#6b6b6b" stroke-width="2" stroke-linecap="butt"/><path d="M586.34075,83.52539v28h-50v-28z" fill="url(#color-50)" stroke="#6b6b6b" stroke-width="2" stroke-linecap="butt"/><path d="M560.17411,88.19205c4.78647,0 8.66667,3.8802 8.66667,8.66667c0,4.78647 -3.8802,8.66666 -8.66667,8.66666c-4.78647,0 -8.66667,-3.88019 -8.66667,-8.66666c0,-4.78647 3.8802,-8.66667 8.66667,-8.66667z" fill="#a7a095" stroke="#6b6b6b" stroke-width="2" stroke-linecap="butt"/><path d="M617.34075,80.52539v34h-37v-34z" fill="url(#color-51)" stroke="#6b6b6b" stroke-width="2" stroke-linecap="butt"/><path d="M589.50742,97.68202c0,-5.52284 4.47716,-10 10,-10c5.52284,0 10,4.47716 10,10c0,3.24695 -2.36557,3.53791 -3.09842,5.39204c-0.59142,1.49633 -1.52069,2.69867 -2.68806,3.80592c-1.13579,1.07729 -2.64808,0.80204 -4.21352,0.80204c0,0 -2.75393,0.61842 -4.36104,-0.45866c-1.38941,-0.93117 -2.60429,-3.87524 -2.74343,-4.10955c-1.06606,-1.79528 -2.89553,0.09105 -2.89553,-5.43179zM590.17411,98.18202c0,1.38071 3.78596,2.16666 5.16666,2.16666c0.91755,0 1.71966,-0.49431 2.15454,-1.23116c1.8634,-1.0648 1.80634,-9.29448 -1.48787,-9.29448c0,0 -3.52884,2.11278 -3.65612,2.37067c-0.77473,1.56984 -2.17721,5.80467 -2.17721,5.9883zM608.1741,97.51535c0,-1.97693 -0.18387,-3.5113 -1.33723,-5.11692c-0.96463,-1.34288 -2.34266,-2.38308 -3.99609,-2.38308c-0.91755,0 -1.553,-0.67236 -1.98788,0.06449c-1.8799,1.07423 -0.25977,9.93551 2.65454,9.93551c3.24807,0 4.66666,-2.27586 4.66666,-2.5zM597.62281,102.76535l0.67829,-0.17632c0.95162,0.11895 1.86363,0.17632 2.82171,0.17632c0,0 1.25,-1.07692 1.25,-2.32692c0,-1.25 -1.17308,-1.25 -1.17308,-1.25c-0.85996,0 -1.65952,-0.05051 -2.51162,-0.15702l-0.98838,0.15702c0,0 -1.25,0 -1.25,1.25c0,1.25 1.17308,2.32692 1.17308,2.32692z" data-paper-data="{&quot;index&quot;:null}" fill="#6b6b6b" stroke="#6b6b6b" stroke-width="2" stroke-linecap="butt"/><path d="M539.34075,80.52539v34h-37v-34z" fill="url(#color-52)" stroke="#6b6b6b" stroke-width="2" stroke-linecap="butt"/><path d="M511.50744,97.68202c0,-5.52284 4.47715,-10 10,-10c5.52285,0 10,4.47716 10,10c0,3.24695 -2.36557,3.53791 -3.09842,5.39204c-0.59143,1.49633 -1.52069,2.69867 -2.68807,3.80592c-1.13579,1.07729 -2.64808,0.80204 -4.21352,0.80204c0,0 -2.75392,0.61842 -4.36104,-0.45866c-1.38941,-0.93117 -2.6043,-3.87524 -2.74343,-4.10955c-1.06606,-1.79528 -2.89553,0.09105 -2.89553,-5.43179zM512.17411,98.18202c0,1.38071 3.78595,2.16666 5.16667,2.16666c0.91756,0 1.71965,-0.49431 2.15453,-1.23116c1.8634,-1.0648 1.80634,-9.29448 -1.48787,-9.29448c0,0 -3.52884,2.11278 -3.65612,2.37067c-0.77473,1.56984 -2.17721,5.80467 -2.17721,5.9883zM530.1741,97.51535c0,-1.97693 -0.18387,-3.5113 -1.33723,-5.11692c-0.96464,-1.34288 -2.34266,-2.38308 -3.9961,-2.38308c-0.91756,0 -1.55299,-0.67236 -1.98787,0.06449c-1.8799,1.07423 -0.25977,9.93551 2.65454,9.93551c3.24807,0 4.66667,-2.27586 4.66667,-2.5zM519.62281,102.76535l0.67829,-0.17632c0.95162,0.11895 1.86364,0.17632 2.82171,0.17632c0,0 1.25,-1.07692 1.25,-2.32692c0,-1.25 -1.17308,-1.25 -1.17308,-1.25c-0.85996,0 -1.65953,-0.05051 -2.51163,-0.15702l-0.98837,0.15702c0,0 -1.25,0 -1.25,1.25c0,1.25 1.17308,2.32692 1.17308,2.32692z" data-paper-data="{&quot;index&quot;:null}" fill="#6b6b6b" stroke="#6b6b6b" stroke-width="2" stroke-linecap="butt"/><path d="M311.46584,360.90198v-29.19316h103.01589v29.19316z" data-paper-data="{&quot;origPos&quot;:null}" fill="url(#color-53)" stroke="#75491c" stroke-width="2" stroke-linecap="butt"/><path d="M313.22677,352.79277h36.98007" data-paper-data="{&quot;origPos&quot;:null}" fill="url(#color-54)" stroke="#75491c" stroke-width="2" stroke-linecap="round"/><path d="M334.35823,342.25079h60.75297" data-paper-data="{&quot;origPos&quot;:null}" fill="url(#color-55)" stroke="#75491c" stroke-width="2" stroke-linecap="round"/><path d="M383.66501,351.17093l30.81672,0.81093" data-paper-data="{&quot;origPos&quot;:null}" fill="url(#color-56)" stroke="#75491c" stroke-width="2" stroke-linecap="round"/><path d="M322.91203,341.43987l-11.44621,-0.81092" data-paper-data="{&quot;origPos&quot;:null}" fill="url(#color-57)" stroke="#75491c" stroke-width="2" stroke-linecap="round"/><path d="M-1.72463,360.90198v-29.19316h107.70632v29.19316z" data-paper-data="{&quot;origPos&quot;:null}" fill="url(#color-58)" stroke="#75491c" stroke-width="2" stroke-linecap="butt"/><path d="M104.22074,352.79277h-36.98006" data-paper-data="{&quot;origPos&quot;:null}" fill="url(#color-59)" stroke="#75491c" stroke-width="2" stroke-linecap="round"/><path d="M83.08928,342.25079h-60.75296" data-paper-data="{&quot;origPos&quot;:null}" fill="url(#color-60)" stroke="#75491c" stroke-width="2" stroke-linecap="round"/><path d="M105.9817,340.62896l-11.44621,0.81092" data-paper-data="{&quot;origPos&quot;:null}" fill="url(#color-61)" stroke="#75491c" stroke-width="2" stroke-linecap="round"/><g data-paper-data="{&quot;origPos&quot;:null}" stroke="#75491c" stroke-width="2"><path d="M105.21581,360.90199v-29.19316h95.34922l-12.33334,7.85642l4.41896,12.03333l-7.08562,9.3034z" data-paper-data="{&quot;origPos&quot;:null}" fill="url(#color-62)" stroke-linecap="butt"/><path d="M124.58631,342.25079h60.75297" data-paper-data="{&quot;origPos&quot;:null}" fill="url(#color-63)" stroke-linecap="round"/><path d="M136.03253,351.17092l-30.81672,0.81093" data-paper-data="{&quot;origPos&quot;:null}" fill="url(#color-64)" stroke-linecap="round"/><path d="M227.04916,360.56498l11.40356,-8.092l-9.75106,-6.40401l6.68083,-7.17775l-13,-7.51941l88.34922,0.33701v29.19316z" data-paper-data="{&quot;origPos&quot;:null}" fill="url(#color-65)" stroke-linecap="butt"/><path d="M231.94158,342.25079h59.41963" data-paper-data="{&quot;origPos&quot;:null}" fill="url(#color-66)" stroke-linecap="round"/><path d="M279.91499,351.17093l30.81672,0.81093" data-paper-data="{&quot;origPos&quot;:null}" fill="url(#color-67)" stroke-linecap="round"/><path d="M177.5355,355.59421l11.44621,-0.81092" data-paper-data="{&quot;origPos&quot;:null}" fill="url(#color-68)" stroke-linecap="round"/><path d="M235.5355,354.7833l11.44621,0.81092" data-paper-data="{&quot;origPos&quot;:null,&quot;index&quot;:null}" fill="url(#color-69)" stroke-linecap="round"/></g><path d="M415.21582,360.90199v-29.19316h95.34922l-12.33334,7.85642l4.41895,12.03333l-7.08562,9.3034z" data-paper-data="{&quot;origPos&quot;:null}" fill="url(#color-70)" stroke="#75491c" stroke-width="2" stroke-linecap="butt"/><path d="M434.58633,342.25079h60.75297" data-paper-data="{&quot;origPos&quot;:null}" fill="url(#color-71)" stroke="#75491c" stroke-width="2" stroke-linecap="round"/><path d="M446.03254,351.17093l-30.81672,0.81093" data-paper-data="{&quot;origPos&quot;:null}" fill="url(#color-72)" stroke="#75491c" stroke-width="2" stroke-linecap="round"/><path d="M561.43942,360.56498l11.40356,-8.092l-9.75106,-6.40401l6.68083,-7.17775l-13,-7.51941l88.34922,0.33701v29.19316z" data-paper-data="{&quot;origPos&quot;:null}" fill="url(#color-73)" stroke="#75491c" stroke-width="2" stroke-linecap="butt"/><path d="M566.33183,342.25079h59.41963" data-paper-data="{&quot;origPos&quot;:null}" fill="url(#color-74)" stroke="#75491c" stroke-width="2" stroke-linecap="round"/><path d="M614.30525,351.17093l30.81672,0.81093" data-paper-data="{&quot;origPos&quot;:null}" fill="url(#color-75)" stroke="#75491c" stroke-width="2" stroke-linecap="round"/><path d="M498.98172,354.7833l-11.44621,0.81092" data-paper-data="{&quot;origPos&quot;:null}" fill="url(#color-76)" stroke="#75491c" stroke-width="2" stroke-linecap="round"/><path d="M581.37195,355.59422l-11.44621,-0.81092" data-paper-data="{&quot;origPos&quot;:null,&quot;index&quot;:null}" fill="url(#color-77)" stroke="#75491c" stroke-width="2" stroke-linecap="round"/><text transform="translate(162.08731,35.84646) scale(0.5,0.5)" font-size="40" xml:space="preserve" fill="#b08b2e" fill-rule="nonzero" stroke="none" stroke-width="1" stroke-linecap="butt" stroke-linejoin="miter" stroke-miterlimit="10" stroke-dasharray="" stroke-dashoffset="0" font-family="Sans Serif" font-weight="normal" text-anchor="start" style="mix-blend-mode: normal"><tspan x="0" dy="0">boss arena</tspan></text></g></g></svg>