<svg version="1.1" xmlns="http://www.w3.org/2000/svg" xmlns:xlink="http://www.w3.org/1999/xlink" width="45.61992" height="55.17179" viewBox="0,0,45.61992,55.17179"><g transform="translate(-218.19004,-149.91412)"><g data-paper-data="{&quot;isPaintingLayer&quot;:true}" fill-rule="nonzero" stroke-linejoin="miter" stroke-miterlimit="10" stroke-dasharray="" stroke-dashoffset="0" style="mix-blend-mode: normal"><g><g data-paper-data="{&quot;index&quot;:null}"><path d="M240.80092,203.19173c0,0 3.77659,-8.59876 10.13037,-11.51091c6.35377,-2.91215 12.87867,0.9651 12.87867,0.9651c0,0 -4.51799,8.1961 -10.87177,11.10825c-6.35377,2.91215 -12.13727,-0.56244 -12.13727,-0.56244z" fill="#24c060" stroke="none" stroke-width="0" stroke-linecap="butt"/><path d="M244.55185,201.19445c0,0 3.34158,-4.07594 8.13775,-6.03179c4.19007,-1.70869 7.21739,-1.56141 7.21739,-1.56141" fill="none" stroke="#1a8752" stroke-width="1.5" stroke-linecap="round"/></g><path d="M238.61764,177.93013h4.7356v25.31959h-4.7356z" fill="#24c060" stroke="none" stroke-width="0.97987" stroke-linecap="butt"/><g><path d="M241.19908,203.36047c0,0 -5.7835,3.47459 -12.13727,0.56244c-6.35378,-2.91215 -10.87177,-11.10825 -10.87177,-11.10825c0,0 6.52489,-3.87725 12.87867,-0.9651c6.35378,2.91215 10.13037,11.51091 10.13037,11.51091z" fill="#24c060" stroke="none" stroke-width="0" stroke-linecap="butt"/><path d="M222.09301,193.76999c0,0 3.02732,-0.14728 7.21739,1.56141c4.79618,1.95585 8.13775,6.0318 8.13775,6.0318" fill="none" stroke="#1a8752" stroke-width="1.5" stroke-linecap="round"/></g><g stroke="none" stroke-width="0" stroke-linecap="butt"><path d="M263.5265,156.91673c0,0 0.00986,31.2521 -22.10466,31.30087c-21.60136,0.04764 -22.94834,-31.80708 -22.94834,-31.80708l11.47877,3.67073l10.96336,-10.16713l10.34598,10.01038z" fill="#35b2ff"/><path d="M241.32818,185.0116c-15.62369,-0.13768 -18.69644,-21.07515 -18.69644,-21.07515l8.55501,2.88385l9.57888,-7.96309l10.12989,8.64586l9.48518,-3.57406c0,0 -3.36709,20.88206 -19.05252,21.08259z" fill="#85e0ff"/><path d="M241.22899,182.84545c-9.64469,-0.21832 -13.16282,-10.94002 -13.16282,-10.94002l5.52872,2.39888l7.24267,-5.68773l8.23941,5.7375l5.86929,-2.45284c0,0 -3.87627,10.69042 -13.71726,10.94422z" fill="#d0f8ff"/></g><g stroke="none" stroke-width="0" stroke-linecap="butt"><path d="M246.14679,168.68948c1.67199,0 2.22177,1.67007 2.22177,5.59273c0,3.78367 -0.69809,5.59273 -2.22177,5.59273c-1.52367,0 -2.22177,-1.94806 -2.22177,-5.59274c0,-3.92265 0.54979,-5.59273 2.22177,-5.59273z" fill="#000000"/><path d="M245.13514,171.28412c0,-1.28411 0.43797,-1.55901 0.97822,-1.55901c0.54024,0 1.00447,0.299 0.9782,1.58285c-0.02384,1.16492 -0.17694,1.64849 -0.9782,1.64849c-0.84896,0 -0.97822,-0.57893 -0.97822,-1.67232z" fill="#ffffff"/></g><g stroke="none" stroke-width="0" stroke-linecap="butt"><path d="M235.85322,168.7186c1.67199,0 2.22175,1.67008 2.22175,5.59273c0,3.78367 -0.69808,5.59273 -2.22175,5.59273c-1.52367,0 -2.22177,-1.94805 -2.22177,-5.59273c0,-3.92265 0.54978,-5.59274 2.22177,-5.59274z" fill="#000000"/><path d="M235.00823,171.31324c0,-1.2841 0.43797,-1.55901 0.97822,-1.55901c0.54024,0 1.00447,0.29899 0.9782,1.58284c-0.02384,1.16492 -0.17694,1.64849 -0.9782,1.64849c-0.84895,0 -0.97822,-0.57893 -0.97822,-1.67232z" fill="#ffffff"/></g></g></g></g></svg>