<svg version="1.1" xmlns="http://www.w3.org/2000/svg" xmlns:xlink="http://www.w3.org/1999/xlink" width="39.93988" height="40.49739" viewBox="0,0,39.93988,40.49739"><g transform="translate(-220.03007,-159.75132)"><g data-paper-data="{&quot;isPaintingLayer&quot;:true}" fill-rule="nonzero" stroke-width="1.5" stroke-linecap="butt" stroke-linejoin="miter" stroke-miterlimit="10" stroke-dasharray="" stroke-dashoffset="0" style="mix-blend-mode: normal"><g><g data-paper-data="{&quot;index&quot;:null}" fill="#f1f1f1" stroke="#727272"><path d="M236.58802,195.96667l-12.49553,-12.49553l3.47043,-3.47043l12.49553,12.49553z"/><path d="M240.05847,167.5038l-12.49553,12.49553l-3.47043,-3.47043l12.49553,-12.49553z" data-paper-data="{&quot;index&quot;:null}"/></g><path d="M220.78007,180.00002c0,-2.48225 2.01226,-4.49451 4.49451,-4.49451c2.48225,0 4.49451,2.01226 4.49451,4.49451c0,2.48225 -2.01226,4.49451 -4.49451,4.49451c-2.48225,0 -4.49451,-2.01226 -4.49451,-4.49451z" fill="#ff9400" stroke="#cc5000"/></g><g><g fill="#f1f1f1" stroke="#727272"><path d="M239.94156,192.49623l12.49553,-12.49553l3.47043,3.47043l-12.49553,12.49553z"/><path d="M243.41199,164.03337l12.49553,12.49553l-3.47043,3.47043l-12.49553,-12.49553z" data-paper-data="{&quot;index&quot;:null}"/></g><path d="M250.23093,180.00003c0,-2.48226 2.01226,-4.49451 4.49451,-4.49451c2.48226,0 4.49451,2.01226 4.49451,4.49451c0,2.48226 -2.01226,4.49451 -4.49451,4.49451c-2.48226,0 -4.49451,-2.01226 -4.49451,-4.49451z" fill="#ff9400" stroke="#cc5000"/></g><path d="M220.83921,160.50133h38.3216v7.41755h-38.3216z" fill="#ff9400" stroke="#cc5000"/><path d="M220.83921,192.08117h38.3216v7.41755h-38.3216z" fill="#ff9400" stroke="#cc5000"/></g></g></svg>