<svg version="1.1" xmlns="http://www.w3.org/2000/svg" xmlns:xlink="http://www.w3.org/1999/xlink" width="143.7336" height="143.73361"><defs><linearGradient x1="240" y1="113.32985" x2="240" y2="246.67015" gradientUnits="userSpaceOnUse" id="color-1"><stop offset="0" stop-color="#6494ff"/><stop offset="1" stop-color="#51d3ff"/></linearGradient><radialGradient cx="239.99999" cy="179.99997" r="67.17002" gradientUnits="userSpaceOnUse" id="color-2"><stop offset="0" stop-color="#3c94ed" stop-opacity="0"/><stop offset="1" stop-color="#3c94ed"/></radialGradient></defs><g transform="translate(-168.1332,-108.13319)"><g data-paper-data="{&quot;isPaintingLayer&quot;:true}" fill="none" fill-rule="nonzero" stroke="none" stroke-width="none" stroke-linecap="none" stroke-linejoin="miter" stroke-miterlimit="10" stroke-dasharray="" stroke-dashoffset="0" font-family="none" font-weight="none" font-size="none" text-anchor="none" style="mix-blend-mode: normal"><path d="M240,110.1332c19.2752,0 36.74421,7.8268 49.3899,20.47689c12.64989,12.64569 20.4769,30.11449 20.4769,49.38991c0,19.27542 -7.82701,36.74421 -20.4769,49.38991c-12.64569,12.65009 -30.1147,20.4769 -49.3899,20.4769c-19.27542,0 -36.74442,-7.8268 -49.39012,-20.4769c-12.64989,-12.64569 -20.47668,-30.11449 -20.47668,-49.38991c0,-19.27542 7.82679,-36.74421 20.47668,-49.38991c12.64569,-12.6501 30.11471,-20.47689 49.39012,-20.47689z" data-paper-data="{&quot;origPos&quot;:null}" id="ID0.4039921844378114" fill="#3c94ed" stroke="#23568d" stroke-width="4" stroke-linecap="butt"/><path d="M239.99995,113.32985c18.3943,0 35.0619,7.4711 47.1305,19.5397c12.0686,12.0686 19.5397,28.7362 19.5397,47.1305c0,18.3943 -7.4711,35.0618 -19.5397,47.1305c-12.0686,12.0686 -28.7362,19.5396 -47.1305,19.5396c-18.3943,0 -35.0618,-7.471 -47.1305,-19.5396c-12.0686,-12.0687 -19.5396,-28.7362 -19.5396,-47.1305c0,-18.3943 7.471,-35.0619 19.5396,-47.1305c12.0687,-12.0686 28.7362,-19.5397 47.1305,-19.5397z" data-paper-data="{&quot;origPos&quot;:null}" id="ID0.11478918511420488" fill="url(#color-1)" stroke="none" stroke-width="1.3334" stroke-linecap="butt"/><path d="M214.32685,167.56598v72.91712l-10.8941,-5.2131l-0.06184,-0.04122l-2.64453,-1.95512l-0.13619,-0.15889l-0.05259,-0.00292l-0.06544,-0.05609l-7.88197,-7.94099l-0.31822,-0.01768l-0.38408,-0.64012l-0.00261,-0.04711l-0.05281,-0.04526l-0.26138,-0.43564l-6.5,-8l-1,-1l-8.82107,-18.92893l-0.25,-0.14285l-0.1942,-20.39598l-0.04737,-0.99489l0.24157,-0.96627v-1l-0.03278,-0.13112l0.09509,-0.42789l-0.3233,-0.48495l-0.10858,-0.4343l0.49914,-0.8735l1.23909,-0.2737z" data-paper-data="{&quot;origPos&quot;:null}" id="ID0.1578373690135777" fill="#b8723c" stroke="none" stroke-width="1" stroke-linecap="butt"/><path d="M253.55417,194.6743h47.44584v3.9981l-0.75997,4.55986l-1.31829,4.39428l-4.58828,7.09553l-1.33346,1.77795l-0.10023,0.23805l-4.47084,4.69088l-0.37031,0.61719l-4.98385,6.44365l-1.46659,1.75992l-27.83058,13.76451l0.5836,-3.79179z" data-paper-data="{&quot;origPos&quot;:null}" id="ID0.4152753259986639" fill="#b8723c" stroke="none" stroke-width="1" stroke-linecap="butt"/><path d="M214.00793,194.6743h40.18409v49.86128l-0.27687,0.323l-0.88727,0.19718l-0.24922,0.12461l-0.27864,0.06966l-0.02993,0.05238l-0.63235,0.21078l-0.76502,0.48684h-19.0825l-1.29569,-0.25914l-1.76915,-0.44228l-12.13621,-3.56832l-1.12686,-0.7171l-0.82579,-0.27526l-0.82857,-0.41429z" data-paper-data="{&quot;origPos&quot;:null}" id="ID0.5245620715431869" fill="#00cccc" stroke="none" stroke-width="1" stroke-linecap="butt"/><path d="M220.38635,209.34469v-8.29196" data-paper-data="{&quot;origPos&quot;:null}" id="ID0.47397167375311255" fill="none" stroke="#00ffff" stroke-width="2" stroke-linecap="round"/><path d="M225.80801,215.72311v11.16225" data-paper-data="{&quot;origPos&quot;:null}" id="ID0.26215417543426156" fill="none" stroke="#00ffff" stroke-width="2" stroke-linecap="round"/><path d="M221.66204,235.49623v3.82706z" data-paper-data="{&quot;origPos&quot;:null}" id="ID0.37979636946693063" fill="none" stroke="#00ffff" stroke-width="2" stroke-linecap="round"/><path d="M234.73781,223.69614v14.9893" data-paper-data="{&quot;origPos&quot;:null}" id="ID0.3477747133001685" fill="none" stroke="#00ffff" stroke-width="2" stroke-linecap="round"/><path d="M244.94329,222.10153v8.92979" data-paper-data="{&quot;origPos&quot;:null}" id="ID0.4466923912987113" fill="none" stroke="#00ffff" stroke-width="2" stroke-linecap="round"/><path d="M239.84055,216.04203v-15.62715" data-paper-data="{&quot;origPos&quot;:null}" id="ID0.975325626321137" fill="none" stroke="#00ffff" stroke-width="2" stroke-linecap="round"/><path d="M250.04603,190.84725h51.11717l-0.16319,0.65278v6.6824h-50.95398z" data-paper-data="{&quot;origPos&quot;:null}" id="ID0.024714037775993347" fill="#48da88" stroke="none" stroke-width="1" stroke-linecap="butt"/><path d="M217.83498,162.78215v8.29196h-43.19144l-0.01309,-0.05236l0.49914,-0.8735l4.75581,-7.3661z" data-paper-data="{&quot;origPos&quot;:null}" id="ID0.1579026971012354" fill="#48da88" stroke="none" stroke-width="1" stroke-linecap="butt"/><path d="M258.50001,241.25003l-0.05573,0.09752l-0.4164,0.20821l-5.24923,3.62461l-0.27864,0.06966l-0.02993,0.05238l-0.63235,0.21078l-0.76502,0.48684h-19.0825l-1.29569,-0.25914l-1.76915,-0.44228l-12.13621,-3.56832l-1.12686,-0.7171l-0.82579,-0.27526l-2.19146,-1.09573z" data-paper-data="{&quot;origPos&quot;:null}" id="ID0.024381828494369984" fill="#48da88" stroke="none" stroke-width="1" stroke-linecap="butt"/><path d="M279.06787,216.99879c0.19646,-1.61374 3.07823,-6.72286 6.05951,-6.69735c3.39587,0.0472 6.45242,3.14712 7.65411,6.05951c0.0412,0.12765 0.07772,0.25654 0.10977,0.3865l-4.46232,4.68151l-0.37031,0.61719l-4.47895,5.45381c-1.90737,-0.56827 -3.91371,-1.77522 -3.87397,-3.16599c0.10206,-1.9569 5.16526,-0.93762 6.37843,-2.87029c0.90446,-1.54996 0.5039,-4.33733 -0.95677,-5.42166c-1.78596,-1.2221 -6.20621,2.06023 -6.05951,0.95676z" data-paper-data="{&quot;origPos&quot;:null}" id="ID0.715565855614841" fill="#8d8d8d" stroke="#767676" stroke-width="2" stroke-linecap="round"/><path d="M192.05657,197.76363c-1.11303,1.43884 -0.74513,4.23068 0.54472,5.47843c1.69041,1.53274 6.28951,-0.81746 6.91689,1.03904c0.55849,1.79093 -2.55469,4.26576 -4.57843,4.9295c-1.86021,0.60442 -4.20211,0.18217 -5.68752,-1.07285c-2.11011,-1.80981 -4.59808,-4.88485 -4.47842,-7.99778c0.36956,-3.12875 2.4742,-6.9396 5.73089,-7.90313c2.86327,-0.8306 7.01907,3.30926 7.64441,4.80972c0.4396,1.02272 -4.70345,-0.94235 -6.09255,0.71706z" data-paper-data="{&quot;origPos&quot;:null}" id="ID0.715565855614841" fill="#8d8d8d" stroke="#767676" stroke-width="2" stroke-linecap="round"/><path d="M169.75,212.00001c0,-0.13807 0.11193,-0.25 0.25,-0.25c0.13807,0 0.25,0.11193 0.25,0.25c0,0.13807 -0.11193,0.25 -0.25,0.25c-0.13807,0 -0.25,-0.11193 -0.25,-0.25z" fill="#9966ff" stroke="none" stroke-width="0.5" stroke-linecap="butt"/><path d="M223.49904,114.8883c17.96432,-4.5526 36.09141,-1.38139 50.86489,7.41812c14.77348,8.79951 26.19518,23.22838 30.74778,41.19271c4.55261,17.96432 1.38136,36.0913 -7.41811,50.86488c-8.79951,14.77348 -23.22841,26.19508 -41.19273,30.74768c-17.96432,4.55261 -36.09128,1.38146 -50.86485,-7.41801c-14.7735,-8.7996 -26.19508,-23.22841 -30.74768,-41.19272c-4.5526,-17.96432 -1.38149,-36.09137 7.41801,-50.86486c8.7996,-14.7735 23.22838,-26.19517 41.1927,-30.74778zM250.45435,221.25233c23.24803,-5.89163 37.31819,-29.51398 31.42655,-52.76202c-5.89162,-23.24803 -29.51398,-37.31818 -52.76201,-31.42655c-23.24803,5.89163 -37.31818,29.51398 -31.42655,52.76201c5.89163,23.24803 29.51398,37.31819 52.76201,31.42655z" data-paper-data="{&quot;origPos&quot;:null,&quot;origRot&quot;:0}" id="ID0.11478918511420488" fill="url(#color-2)" stroke="none" stroke-width="1.3334" stroke-linecap="butt"/></g></g></svg>