<svg version="1.1" xmlns="http://www.w3.org/2000/svg" xmlns:xlink="http://www.w3.org/1999/xlink" width="518.37205" height="282.97342" viewBox="0,0,518.37205,282.97342"><defs><linearGradient x1="134.87637" y1="73.81924" x2="134.87637" y2="93.4659" gradientUnits="userSpaceOnUse" id="color-1"><stop offset="0" stop-color="#6fb361"/><stop offset="1" stop-color="#4a7b50"/></linearGradient><linearGradient x1="113.76526" y1="72.15258" x2="113.76526" y2="91.79924" gradientUnits="userSpaceOnUse" id="color-2"><stop offset="0" stop-color="#6fb361"/><stop offset="1" stop-color="#4a7b50"/></linearGradient><linearGradient x1="155.43192" y1="68.26369" x2="155.43192" y2="87.91035" gradientUnits="userSpaceOnUse" id="color-3"><stop offset="0" stop-color="#6fb361"/><stop offset="1" stop-color="#4a7b50"/></linearGradient><linearGradient x1="102.09859" y1="79.93035" x2="102.09859" y2="99.57701" gradientUnits="userSpaceOnUse" id="color-4"><stop offset="0" stop-color="#6fb361"/><stop offset="1" stop-color="#4a7b50"/></linearGradient><linearGradient x1="126.54303" y1="84.3748" x2="126.54303" y2="104.02146" gradientUnits="userSpaceOnUse" id="color-5"><stop offset="0" stop-color="#6fb361"/><stop offset="1" stop-color="#4a7b50"/></linearGradient><linearGradient x1="149.32081" y1="77.70813" x2="149.32081" y2="97.35479" gradientUnits="userSpaceOnUse" id="color-6"><stop offset="0" stop-color="#6fb361"/><stop offset="1" stop-color="#4a7b50"/></linearGradient><linearGradient x1="168.76526" y1="82.70813" x2="168.76526" y2="102.35479" gradientUnits="userSpaceOnUse" id="color-7"><stop offset="0" stop-color="#6fb361"/><stop offset="1" stop-color="#4a7b50"/></linearGradient><linearGradient x1="109.32081" y1="93.26369" x2="109.32081" y2="112.91035" gradientUnits="userSpaceOnUse" id="color-8"><stop offset="0" stop-color="#6fb361"/><stop offset="1" stop-color="#4a7b50"/></linearGradient><linearGradient x1="148.76526" y1="92.70813" x2="148.76526" y2="112.35479" gradientUnits="userSpaceOnUse" id="color-9"><stop offset="0" stop-color="#6fb361"/><stop offset="1" stop-color="#4a7b50"/></linearGradient></defs><g transform="translate(-62.24261,-67.26369)"><g data-paper-data="{&quot;isPaintingLayer&quot;:true}" fill-rule="nonzero" stroke-linejoin="miter" stroke-miterlimit="10" stroke-dasharray="" stroke-dashoffset="0" style="mix-blend-mode: normal"><path d="M364.87748,346.37322h-113.06231v-153.52967h113.06231z" data-paper-data="{&quot;origPos&quot;:null}" fill="#a88c51" stroke="#706035" stroke-width="2.22445" stroke-linecap="butt"/><path d="M71.88966,117.48273h119.21724v231.75438h-119.21724z" data-paper-data="{&quot;origPos&quot;:null}" fill="#a88c51" stroke="#706035" stroke-width="2" stroke-linecap="butt"/><path d="M482.44831,166.65592h86.04374v177.58116h-86.04374z" data-paper-data="{&quot;origPos&quot;:null}" fill="#a88c51" stroke="#706035" stroke-width="2" stroke-linecap="butt"/><path d="M484.52165,180.60968c-3.10068,0.36698 -5.46845,0.06427 -7.25671,-1.03667c-2.91098,-1.79137 -6.51548,-3.92069 -7.2567,-7.2567c-1.50007,-6.74873 -1.14967,-14.17544 1.03667,-20.73343c0.88013,-2.6404 4.8962,-2.6715 7.2567,-4.14669c3.166,-1.97901 4.57276,-6.07179 9.33005,-6.22003c19.02707,-0.59505 38.03755,2.66736 57.01694,4.14669c7.60295,0.59194 15.29402,0.76713 22.80678,2.07334c1.87845,0.32655 11.72491,9.55745 12.15928,12.42799c1.73953,11.48218 -12.56669,19.9566 -17.6018,18.93133c-4.81637,-0.96722 -9.35804,5.17195 -14.25424,3.88752c-3.33497,-0.87288 -2.03913,-8.37527 -5.44253,-8.81171c-6.48023,-0.42296 -11.91654,6.69794 -18.40092,6.73837c-8.32758,0.05079 -16.05079,-5.569 -24.36178,-5.7017c-5.67474,0.1327 -10.57302,4.71789 -16.06841,5.7017z" data-paper-data="{&quot;origPos&quot;:null}" fill="#7fb579" stroke="#5b875d" stroke-width="2" stroke-linecap="round"/><path d="M69.74223,100.46276c3.22405,-1.61202 12.2419,-5.79425 15.66084,-6.93355c0.85525,-0.28509 0.95788,-0.88843 2.07334,-1.03667c4.46183,-0.59505 8.97655,-0.9444 13.47674,-1.03667c12.42555,-0.25399 24.89567,-0.29545 37.32018,0c3.10587,0.0736 4.1301,0.82726 6.22003,1.03667c8.27264,0.82727 16.62096,1.12065 24.88012,2.07335c2.06505,0.23844 1.31657,0.88531 2.07334,1.03667c2.72956,0.54632 5.57626,0.43333 8.29338,1.03667c3.51847,0.78165 7.36763,1.11131 10.36671,3.11002c3.45834,2.30556 5.76805,6.02824 8.29337,9.33004c1.97797,2.5865 3.72683,5.38033 5.18335,8.29337c0.36387,0.72774 0,1.38291 0,2.07334c0,1.72606 0.50797,3.53401 0,5.18336c-0.90812,2.9514 -2.03498,6.04069 -4.14668,8.29337c-3.21161,3.42516 -7.12194,6.3662 -11.40339,8.29337c-2.85085,1.28236 -6.23247,1.4586 -9.33004,1.03668c-4.65258,-0.63444 -9.14966,-2.32422 -13.47673,-4.14669c-2.29416,-0.96618 -3.76208,-3.75378 -6.22003,-4.14668c-6.47713,-1.03667 -13.26525,-1.28651 -19.69676,0c-4.24103,0.84799 -7.2339,5.06933 -11.40339,6.22003c-6.02721,1.66282 -12.43073,2.60723 -18.66009,2.07334c-6.0946,-0.52248 -11.62523,-3.98393 -17.62342,-5.18336c-2.70778,-0.54115 -5.59077,-0.56913 -8.29337,0c-3.95386,0.83245 -7.89633,5.60839 -11.40339,4.14668c-2.71297,-1.12997 -8.59665,-2.97023 -8.68373,-6.09476c-0.25917,-9.31761 3.83746,-18.20039 2.35294,-27.40189c-0.37113,-2.30038 2.39989,-6.38381 4.14668,-7.25669z" data-paper-data="{&quot;origPos&quot;:null}" fill="#7fb579" stroke="#5b875d" stroke-width="2" stroke-linecap="round"/><path d="M363.5153,198.3027c-7.22104,-0.85059 -13.65742,-4.81472 -21.1141,-4.92947c-10.92072,0.11476 -21.0691,4.97333 -32.01159,4.92947c-8.52061,-0.03494 -15.6639,-4.87562 -24.17902,-4.50999c-4.4721,0.37735 -2.76936,5.5478 -7.15148,6.3025c-6.43369,1.11048 -12.4015,-4.19717 -18.73027,-3.36099c-6.61614,0.88635 -14.36702,11.69624 -15.3247,8.42492c-3.29921,-7.5959 4.52528,-20.2323 6.81104,-30.15937c0.57069,-2.48179 10.34008,-5.10277 20.33049,-5.61458c24.93911,-1.27894 60.91906,-5.65508 85.92078,-5.14058c6.25113,0.12813 8.09962,3.66661 12.25979,5.37763c3.10172,1.27532 8.37889,1.30227 9.5354,3.58501c2.87282,5.66977 3.33331,12.09059 1.36219,17.92529c-0.97395,2.88413 -5.71041,4.72515 -9.53541,6.27384c-2.34983,0.95187 -5.46108,1.21353 -9.53541,0.8963z" data-paper-data="{&quot;origPos&quot;:null}" fill="#7fb579" stroke="#5b875d" stroke-width="2.22445" stroke-linecap="round"/><g data-paper-data="{&quot;index&quot;:null}" stroke-linecap="butt"><path d="M144.68006,76.6983c2.51057,1.77829 4.06463,4.23413 4.06463,6.94427c0,2.71015 -1.55406,5.16599 -4.06463,6.94428c-2.51057,1.77829 -5.97766,2.87905 -9.80369,2.87905c-3.82604,0 -7.29311,-1.10075 -9.80368,-2.87905c-2.51056,-1.7783 -4.06462,-4.23414 -4.06462,-6.94428c0,-2.71014 1.55405,-5.16597 4.06462,-6.94427c2.51057,-1.7783 5.97765,-2.87906 9.80368,-2.87906c3.82604,0 7.29312,1.10077 9.80369,2.87906z" data-paper-data="{&quot;index&quot;:null}" fill="url(#color-1)" stroke="#4b7c50" stroke-width="2"/><path d="M123.56895,75.03163c2.51056,1.7783 4.06462,4.23414 4.06462,6.94428c0,2.71015 -1.55405,5.16599 -4.06462,6.94428c-2.51057,1.77829 -5.97766,2.87905 -9.80369,2.87905c-3.82604,0 -7.29311,-1.10075 -9.80368,-2.87905c-2.51057,-1.7783 -4.06463,-4.23414 -4.06463,-6.94428c0,-2.71015 1.55406,-5.16598 4.06463,-6.94428c2.51057,-1.77829 5.97764,-2.87905 9.80368,-2.87905c3.82604,0 7.29312,1.10076 9.80369,2.87905z" data-paper-data="{&quot;index&quot;:null}" fill="url(#color-2)" stroke="#4b7c50" stroke-width="2"/><path d="M85.33249,103.90945c8.78628,-17.57256 28.47106,-14.16328 44.31997,-13.69922c5.88197,0.17222 11.76755,-2.36218 17.58253,-1.7896c3.17311,0.31244 9.50217,3.5096 11.04996,3.55421c2.75423,0.07939 5.58667,-1.51778 8.45665,-1.22773c8.61874,0.87105 19.62215,7.72345 20.73955,16.82332c0.37705,3.0706 -1.36249,5.63861 -2.94916,7.93299c-4.4782,6.47565 -10.70725,7.99474 -18.09738,9.06709c-4.88498,0.70884 -8.91588,3.94781 -14.00979,4.29504c-4.2715,0.29116 -7.88902,-0.63202 -11.94389,-1.0498c-1.93817,-0.19969 -3.78958,0.94052 -5.68255,0.94052c-2.14399,0 -4.27111,-0.69644 -6.37965,-0.96449c-5.88483,-0.7481 -13.15502,0.60657 -19.03484,0.60657c-2.95758,0 -6.50096,-2.63995 -7.96892,-2.75409c-1.83551,-0.14273 -3.60599,-0.1041 -5.40852,-0.21721c-8.36424,-0.52484 -13.85284,-9.9143 -11.81567,-17.38786c0.29873,-1.09592 0.21022,-2.57997 1.00072,-3.49529z" data-paper-data="{&quot;index&quot;:null}" fill-opacity="0.25098" fill="#000000" stroke="none" stroke-width="0.5"/><path d="M131.52516,117.39632h-7.88391v-21.62066h7.88391z" data-paper-data="{&quot;index&quot;:null}" fill="#816c3e" stroke="#706035" stroke-width="0"/><path d="M113.19183,123.06299h-7.88391v-21.62066h7.88391z" data-paper-data="{&quot;index&quot;:null}" fill="#816c3e" stroke="#706035" stroke-width="0"/><path d="M165.2356,71.14275c2.51057,1.77829 4.06463,4.23413 4.06463,6.94427c0,2.71015 -1.55406,5.16599 -4.06463,6.94428c-2.51057,1.77829 -5.97765,2.87905 -9.80368,2.87905c-3.82603,0 -7.29311,-1.10075 -9.80368,-2.87905c-2.51056,-1.7783 -4.06462,-4.23414 -4.06462,-6.94428c0,-2.71014 1.55405,-5.16597 4.06462,-6.94427c2.51057,-1.7783 5.97765,-2.87906 9.80368,-2.87906c3.82603,0 7.29311,1.10077 9.80368,2.87906z" data-paper-data="{&quot;index&quot;:null}" fill="url(#color-3)" stroke="#4b7c50" stroke-width="2"/><path d="M111.90228,82.80941c2.51056,1.7783 4.06462,4.23414 4.06462,6.94428c0,2.71014 -1.55405,5.16597 -4.06462,6.94427c-2.51057,1.77829 -5.97766,2.87905 -9.80369,2.87905c-3.82604,0 -7.29311,-1.10076 -9.80368,-2.87905c-2.51056,-1.77829 -4.06462,-4.23413 -4.06462,-6.94427c0,-2.71015 1.55405,-5.16598 4.06462,-6.94428c2.51057,-1.7783 5.97765,-2.87906 9.80368,-2.87906c3.82604,0 7.29312,1.10077 9.80369,2.87906z" data-paper-data="{&quot;index&quot;:null}" fill="url(#color-4)" stroke="#4b7c50" stroke-width="2"/><path d="M136.34671,87.25386c2.51057,1.77829 4.06463,4.23413 4.06463,6.94427c0,2.71015 -1.55406,5.16599 -4.06463,6.94428c-2.51057,1.7783 -5.97765,2.87906 -9.80368,2.87906c-3.82604,0 -7.29311,-1.10076 -9.80368,-2.87906c-2.51057,-1.7783 -4.06463,-4.23414 -4.06463,-6.94428c0,-2.71014 1.55406,-5.16597 4.06463,-6.94427c2.51057,-1.7783 5.97765,-2.87906 9.80368,-2.87906c3.82603,0 7.29311,1.10077 9.80368,2.87906z" data-paper-data="{&quot;index&quot;:null}" fill="url(#color-5)" stroke="#4b7c50" stroke-width="2"/><path d="M173.52516,114.39632h-7.88391v-21.62066h7.88391z" data-paper-data="{&quot;index&quot;:null}" fill="#816c3e" stroke="#706035" stroke-width="0"/><path d="M159.12449,80.58718c2.51057,1.7783 4.06463,4.23414 4.06463,6.94428c0,2.71015 -1.55406,5.16599 -4.06463,6.94428c-2.51057,1.77829 -5.97765,2.87905 -9.80368,2.87905c-3.82603,0 -7.29311,-1.10075 -9.80368,-2.87905c-2.51056,-1.7783 -4.06462,-4.23414 -4.06462,-6.94428c0,-2.71015 1.55405,-5.16598 4.06462,-6.94428c2.51057,-1.77829 5.97765,-2.87905 9.80368,-2.87905c3.82603,0 7.29311,1.10076 9.80368,2.87905z" data-paper-data="{&quot;index&quot;:null}" fill="url(#color-6)" stroke="#4b7c50" stroke-width="2"/><path d="M178.56895,85.58718c2.51057,1.7783 4.06462,4.23414 4.06462,6.94428c0,2.71015 -1.55405,5.16599 -4.06462,6.94428c-2.51057,1.77829 -5.97766,2.87905 -9.80369,2.87905c-3.82604,0 -7.29311,-1.10075 -9.80368,-2.87905c-2.51057,-1.7783 -4.06463,-4.23414 -4.06463,-6.94428c0,-2.71015 1.55406,-5.16598 4.06463,-6.94428c2.51057,-1.77829 5.97765,-2.87905 9.80368,-2.87905c3.82604,0 7.29312,1.10076 9.80369,2.87905z" data-paper-data="{&quot;index&quot;:null}" fill="url(#color-7)" stroke="#4b7c50" stroke-width="2"/><path d="M119.12449,96.14275c2.51057,1.77829 4.06463,4.23413 4.06463,6.94427c0,2.71015 -1.55406,5.16599 -4.06463,6.94428c-2.51057,1.77829 -5.97765,2.87905 -9.80368,2.87905c-3.82603,0 -7.29311,-1.10075 -9.80368,-2.87905c-2.51056,-1.7783 -4.06462,-4.23414 -4.06462,-6.94428c0,-2.71014 1.55405,-5.16597 4.06462,-6.94427c2.51057,-1.7783 5.97765,-2.87906 9.80368,-2.87906c3.82603,0 7.29311,1.10077 9.80368,2.87906z" data-paper-data="{&quot;index&quot;:null}" fill="url(#color-8)" stroke="#4b7c50" stroke-width="2"/><path d="M153.19183,125.72965h-7.88391v-21.62066h7.88391z" data-paper-data="{&quot;index&quot;:null}" fill="#816c3e" stroke="#706035" stroke-width="0"/><path d="M158.56895,95.58718c2.51057,1.7783 4.06463,4.23414 4.06463,6.94428c0,2.71015 -1.55406,5.16599 -4.06463,6.94428c-2.51057,1.77829 -5.97766,2.87905 -9.80369,2.87905c-3.82604,0 -7.29311,-1.10075 -9.80368,-2.87905c-2.51057,-1.7783 -4.06463,-4.23414 -4.06463,-6.94428c0,-2.71015 1.55406,-5.16598 4.06463,-6.94428c2.51057,-1.77829 5.97765,-2.87905 9.80368,-2.87905c3.82604,0 7.29312,1.10076 9.80369,2.87905z" data-paper-data="{&quot;index&quot;:null}" fill="url(#color-9)" stroke="#4b7c50" stroke-width="2"/></g></g></g></svg>