<svg version="1.1" xmlns="http://www.w3.org/2000/svg" xmlns:xlink="http://www.w3.org/1999/xlink" width="20.24138" height="24.3844" viewBox="0,0,20.24138,24.3844"><defs><linearGradient x1="240.01668" y1="167.83972" x2="240.01668" y2="192.04268" gradientUnits="userSpaceOnUse" id="color-1"><stop offset="0" stop-color="#d08f02"/><stop offset="1" stop-color="#a86802"/></linearGradient><linearGradient x1="237.40582" y1="167.8422" x2="237.40582" y2="192.1922" gradientUnits="userSpaceOnUse" id="color-2"><stop offset="0" stop-color="#d08f02"/><stop offset="1" stop-color="#a86802"/></linearGradient><linearGradient x1="242.5942" y1="167.8078" x2="242.5942" y2="192.1578" gradientUnits="userSpaceOnUse" id="color-3"><stop offset="0" stop-color="#fee300"/><stop offset="1" stop-color="#ecb500"/></linearGradient><linearGradient x1="242.65466" y1="170.54929" x2="242.65466" y2="188.96789" gradientUnits="userSpaceOnUse" id="color-4"><stop offset="0" stop-color="#df9902"/><stop offset="1" stop-color="#be7602"/></linearGradient></defs><g transform="translate(-229.87932,-167.8078)"><g data-paper-data="{&quot;isPaintingLayer&quot;:true}" fill-rule="nonzero" stroke="none" stroke-linecap="butt" stroke-linejoin="miter" stroke-miterlimit="10" stroke-dasharray="" stroke-dashoffset="0" style="mix-blend-mode: normal"><path d="M242.76215,192.04268h-5.49094v-24.20296h5.49094z" data-paper-data="{&quot;origPos&quot;:null}" fill="url(#color-1)" stroke-width="0.36499"/><path d="M242.72632,171.4107c1.3625,2.2039 2.206,5.2474 2.206,8.6065c0,3.359 -0.8435,6.4026 -2.206,8.6065c-1.3625,2.204 -3.2439,3.5685 -5.3205,3.5685c-2.0765,0 -3.958,-1.3645 -5.3205,-3.5685c-1.3625,-2.2039 -2.206,-5.2475 -2.206,-8.6065c0,-3.3591 0.8435,-6.4026 2.206,-8.6065c1.3625,-2.204 3.244,-3.5685 5.3205,-3.5685c2.0766,0 3.958,1.3645 5.3205,3.5685z" data-paper-data="{&quot;origPos&quot;:null}" fill="url(#color-2)" stroke-width="0.39926"/><path d="M242.5942,167.8078c2.0765,0 3.958,1.3645 5.3205,3.5685c1.3625,2.2039 2.206,5.2474 2.206,8.6065c0,3.359 -0.8435,6.4026 -2.206,8.6065c-1.3625,2.204 -3.244,3.5685 -5.3205,3.5685c-2.0766,0 -3.958,-1.3645 -5.3205,-3.5685c-1.3625,-2.2039 -2.206,-5.2475 -2.206,-8.6065c0,-3.3591 0.8435,-6.4026 2.206,-8.6065c1.3625,-2.204 3.2439,-3.5685 5.3205,-3.5685z" data-paper-data="{&quot;origPos&quot;:null,&quot;index&quot;:null}" fill="url(#color-3)" stroke-width="0.39926"/><path d="M243.79382,188.96789h-2.27832v-18.4186h2.27832z" data-paper-data="{&quot;origPos&quot;:null}" fill="url(#color-4)" stroke-width="0.5012"/></g></g></svg>