<svg version="1.1" xmlns="http://www.w3.org/2000/svg" xmlns:xlink="http://www.w3.org/1999/xlink" width="106.75" height="21.78569" viewBox="0,0,106.75,21.78569"><g transform="translate(-186.625,-169.10716)"><g data-paper-data="{&quot;isPaintingLayer&quot;:true}" fill="none" fill-rule="nonzero" stroke="#7f7f7f" stroke-width="2" stroke-linecap="none" stroke-linejoin="miter" stroke-miterlimit="10" stroke-dasharray="" stroke-dashoffset="0" font-family="none" font-weight="none" font-size="none" text-anchor="none" style="mix-blend-mode: normal"><path d="M198.37916,170.10753l83.4917,19.78506" data-paper-data="{&quot;origPos&quot;:null}" fill="none" stroke-linecap="round"/><path d="M198.37087,189.85752l83.50828,-19.71494" data-paper-data="{&quot;origPos&quot;:null,&quot;index&quot;:null}" fill="none" stroke-linecap="round"/><path d="M292.37501,180.022c-0.00229,5.45381 -4.42534,9.87314 -9.87915,9.87085c-5.45381,-0.00229 -9.87314,-4.42534 -9.87085,-9.87915c0.00229,-5.45381 4.42534,-9.87314 9.87915,-9.87085c5.45381,0.00229 9.87314,4.42534 9.87085,9.87915z" data-paper-data="{&quot;origPos&quot;:null}" fill="#7f7f7f" stroke-linecap="butt"/><path d="M207.37501,179.98631c-0.00229,5.45381 -4.42534,9.87314 -9.87915,9.87085c-5.45381,-0.00229 -9.87314,-4.42534 -9.87085,-9.87915c0.00229,-5.45381 4.42534,-9.87314 9.87915,-9.87085c5.45381,0.00229 9.87314,4.42534 9.87085,9.87915z" data-paper-data="{&quot;origPos&quot;:null}" fill="#7f7f7f" stroke-linecap="butt"/></g></g></svg>