<svg version="1.1" xmlns="http://www.w3.org/2000/svg" xmlns:xlink="http://www.w3.org/1999/xlink" width="140.02105" height="189.59142" viewBox="0,0,140.02105,189.59142"><defs><linearGradient x1="253.2898" y1="264.3419" x2="289.03333" y2="246.08841" gradientUnits="userSpaceOnUse" id="color-1"><stop offset="0" stop-color="#8e4108"/><stop offset="1" stop-color="#be6d2f"/></linearGradient><linearGradient x1="199.99959" y1="252.3903" x2="238.54575" y2="263.56996" gradientUnits="userSpaceOnUse" id="color-2"><stop offset="0" stop-color="#8e4108"/><stop offset="1" stop-color="#be6d2f"/></linearGradient><linearGradient x1="240.82915" y1="175.3552" x2="240.82915" y2="227.40507" gradientUnits="userSpaceOnUse" id="color-3"><stop offset="0" stop-color="#0052ef"/><stop offset="1" stop-color="#004bd6"/></linearGradient><linearGradient x1="274.37556" y1="120.30207" x2="274.37556" y2="134.06958" gradientUnits="userSpaceOnUse" id="color-4"><stop offset="0" stop-color="#bc041a"/><stop offset="1" stop-color="#880010"/></linearGradient><linearGradient x1="253.99048" y1="112.6317" x2="253.99048" y2="131.24761" gradientUnits="userSpaceOnUse" id="color-5"><stop offset="0" stop-color="#bc041a"/><stop offset="1" stop-color="#a90216"/></linearGradient></defs><g transform="translate(-169.98947,-85.20428)"><g data-paper-data="{&quot;isPaintingLayer&quot;:true}" fill-rule="nonzero" stroke-linejoin="miter" stroke-miterlimit="10" stroke-dasharray="" stroke-dashoffset="0" style="mix-blend-mode: normal"><g><path d="M260.62173,194.1647c-4.51917,-3.12244 -3.2422,-13.98788 2.47549,-22.26325c5.7177,-8.27534 12.3886,-15.28779 12.3886,-15.28779l13.66917,9.21457c0,0 -7.35748,14.03493 -11.95628,20.69089c-5.7177,8.27534 -12.05785,10.76799 -16.57702,7.64559z" data-paper-data="{&quot;origRot&quot;:0,&quot;origPos&quot;:null}" fill="#ff0021" stroke="none" stroke-width="0" stroke-linecap="butt"/><g data-paper-data="{&quot;origPos&quot;:null,&quot;origRot&quot;:0}" fill="#ffffff" stroke="none" stroke-width="0" stroke-linecap="butt"><path d="M285.94496,157.42644c-8.22623,-5.14338 -18.11884,-11.96353 -12.19982,-20.30313c4.29403,-6.05009 18.47553,-9.40531 25.35015,-2.55952c7.50179,7.47033 15.38628,12.92964 7.887,21.62763c-7.00233,8.1216 -12.81109,6.37839 -21.03735,1.23501z" data-paper-data="{&quot;origRot&quot;:0,&quot;origPos&quot;:null}"/><path d="M280.54139,163.5778c-6.34592,-3.97934 -14.36238,-7.28183 -10.92132,-11.90662c3.8495,-5.17376 5.29708,-3.8129 15.50659,2.94615c11.63052,7.69984 14.8099,6.75925 10.86654,12.63524c-2.30265,3.43116 -9.10587,0.30457 -15.4518,-3.67475z" data-paper-data="{&quot;origRot&quot;:0,&quot;origPos&quot;:null}"/></g><path d="M273.38863,236.96368c2.37426,4.08123 7.96351,3.30097 8.29748,4.31971c1.35124,4.12187 0.91161,7.73698 -4.49744,12.76396c-6.70032,6.22699 -13.12284,8.84991 -22.25421,8.31302c-6.21927,-0.36567 -3.25219,-4.94107 -4.11014,-11.11171c-0.30784,-2.21419 -1.08067,-4.92115 -3.16464,-10.13794c-2.60551,-6.52239 -5.04803,-19.57921 -5.04803,-19.57921c0,0 4.526,-3.25281 9.33235,-5.79924c4.78029,-2.46827 10.55205,-2.93823 10.55205,-2.93823c0,0 5.40417,14.73539 10.89258,24.16963z" data-paper-data="{&quot;origPos&quot;:null,&quot;origRot&quot;:0}" fill="#004bd6" stroke="none" stroke-width="0" stroke-linecap="butt"/><path d="M290.41481,254.02365c1.83217,3.58769 -0.95538,7.14246 -3.92849,9.86075c-1.94842,1.78144 -13.10736,7.07441 -20.19514,6.66505c-2.20045,-0.12712 -4.72616,-1.67678 -4.72616,-1.67678c0,0 -4.27824,3.06606 -4.94956,1.71867c-0.5329,-1.06959 -1.48514,-2.86811 -0.736,-3.94698c3.22466,-4.64409 13.74149,-10.00767 18.77674,-12.57906c6.91229,-3.52998 13.96764,-3.54859 15.75858,-0.04162z" data-paper-data="{&quot;origPos&quot;:null,&quot;origRot&quot;:0}" fill="#f9c869" stroke="none" stroke-width="0" stroke-linecap="butt"/><path d="M289.84757,248.63131c0.887,4.84168 -1.78308,9.98979 -9.59752,13.98046c-7.81444,3.99067 -18.4885,3.72731 -18.4885,3.72731c0,0 -5.50524,3.18692 -6.36093,1.79388c-1.77107,-2.88321 -4.32841,-7.75736 -3.27318,-8.49829c3.89558,-2.73537 3.39318,-1.76227 8.28296,-5.73906c3.16589,-2.57477 7.37386,-8.99367 11.00814,-10.84961c7.81444,-3.99067 16.96864,-2.3866 18.4291,5.58529z" data-paper-data="{&quot;origPos&quot;:null,&quot;origRot&quot;:0}" fill="url(#color-1)" stroke="none" stroke-width="0" stroke-linecap="butt"/><path d="M233.39553,246.2064c-1.06513,4.5999 3.54183,7.85935 3.08747,8.83039c-1.83843,3.92884 -4.63468,6.26192 -12.01888,6.22025c-9.14697,-0.05161 -15.62314,-2.53908 -21.90904,-9.18419c-4.28123,-4.52591 1.01431,-5.82769 4.61533,-10.91154c1.29214,-1.82422 2.58296,-4.32593 4.63737,-9.55447c2.56854,-6.53701 10.5475,-17.756 10.5475,-17.756c0,0 7.54277,2.12157 12.25299,4.47838c3.71725,1.85994 9.34133,6.32653 9.34133,6.32653c0,0 -8.09187,10.91743 -10.55408,21.55064z" data-paper-data="{&quot;origPos&quot;:null,&quot;origRot&quot;:0}" fill="#004bd6" stroke="none" stroke-width="0" stroke-linecap="butt"/><path d="M234.11765,270.29815c-1.12215,3.86902 -5.58789,4.55006 -9.61596,4.49454c-2.63978,-0.0364 -14.39586,-3.82223 -19.28002,-8.97481c-1.51631,-1.59965 -2.29531,-4.45864 -2.29531,-4.45864c0,0 -5.21727,-0.69599 -4.78361,-2.13755c0.34424,-1.14432 0.88216,-3.10697 2.16693,-3.38003c5.53032,-1.17541 16.86683,2.11918 22.2969,3.69409c7.45428,2.16199 12.60795,6.98049 11.51107,10.76243z" data-paper-data="{&quot;origPos&quot;:null,&quot;origRot&quot;:0}" fill="#f9c869" stroke="none" stroke-width="0" stroke-linecap="butt"/><path d="M237.39746,265.98052c-2.66966,4.13537 -8.1411,6.05788 -16.56825,3.61374c-8.42716,-2.44414 -16.02447,-9.94654 -16.02447,-9.94654c0,0 -6.19408,-1.44828 -5.86352,-3.04938c0.68416,-3.31382 2.15898,-8.61687 3.43534,-8.43408c4.71191,0.67487 3.6794,1.03987 9.96597,1.49109c4.07025,0.29214 11.53259,-1.50303 15.45181,-0.36633c8.42716,2.44414 13.99881,9.88252 9.60316,16.6915z" data-paper-data="{&quot;origPos&quot;:null,&quot;origRot&quot;:0}" fill="url(#color-2)" stroke="none" stroke-width="0" stroke-linecap="butt"/><path d="M269.75825,199.29832c0.40468,21.87936 -13.54928,28.10672 -29.24343,28.10672c-15.69412,0 -28.62342,-10.37259 -28.62342,-20.87339c0,-11.39162 1.36248,-20.45991 10.14877,-27.71043c6.54605,-5.40186 15.98089,-2.87631 24.46798,-2.87631c15.69412,0 22.85338,1.90673 23.25007,23.35339z" data-paper-data="{&quot;origPos&quot;:null}" fill="url(#color-3)" stroke="none" stroke-width="0" stroke-linecap="butt"/><path d="M269.75825,198.67831c0,0 -17.8187,2.06668 -30.38008,2.48002c-11.52181,0.37913 -23.14673,-3.51334 -23.14673,-3.51334c0,0 -1.01936,-14.25553 7.21746,-19.79873c5.38911,-3.62676 11.44975,-4.81448 19.23594,-5.00133c7.78621,-0.18687 16.25323,2.21042 20.17285,5.3859c9.25856,7.50084 6.90057,20.44751 6.90057,20.44751z" data-paper-data="{&quot;origPos&quot;:null}" fill="#ff0021" stroke="none" stroke-width="0" stroke-linecap="butt"/><path d="M255.40296,176.86596c0,0 2.21162,7.0683 2.6578,11.31833c0.57305,5.45884 -0.59931,15.71547 -0.59931,15.71547" data-paper-data="{&quot;origPos&quot;:null,&quot;origRot&quot;:0}" fill="none" stroke="#0052ef" stroke-width="10" stroke-linecap="round"/><path d="M233.17815,177.39159c0,0 1.28119,7.29458 1.17528,11.56664c-0.13603,5.48714 -2.62193,15.50677 -2.62193,15.50677" data-paper-data="{&quot;origPos&quot;:null}" fill="none" stroke="#0052ef" stroke-width="10" stroke-linecap="round"/><path d="M228.21814,202.50165c0,-2.33986 1.89683,-4.23667 4.23667,-4.23667c2.33986,0 4.23669,1.89683 4.23669,4.23667c0,2.33986 -1.89685,4.23668 -4.23669,4.23668c-2.33986,0 -4.23667,-1.89684 -4.23667,-4.23668z" data-paper-data="{&quot;origPos&quot;:null}" fill="#ffe84f" stroke="none" stroke-width="0" stroke-linecap="butt"/><path d="M253.84487,202.50165c0,-2.33986 1.89683,-4.23667 4.23669,-4.23667c2.33986,0 4.23669,1.89683 4.23669,4.23667c0,2.33986 -1.89683,4.23668 -4.23669,4.23668c-2.33986,0 -4.23669,-1.89684 -4.23669,-4.23668z" data-paper-data="{&quot;origPos&quot;:null}" fill="#ffe84f" stroke="none" stroke-width="0" stroke-linecap="butt"/><path d="M287.76091,125.1829c-0.58686,3.91976 -12.28634,8.88671 -21.4934,8.88671c-7.41904,0 -5.58,-6.98011 -5.58,-10.74671c0,-3.76658 14.53935,-2.94501 21.95839,-2.94501c7.41904,0 5.49488,2.26781 5.11501,4.80502z" data-paper-data="{&quot;origPos&quot;:null}" fill="url(#color-4)" stroke="none" stroke-width="0" stroke-linecap="butt"/><path d="M212.07907,167.45916c0,0 -1.75695,1.20959 -3.70276,-0.20402c-1.94578,-1.41361 -3.35544,-4.68253 -0.5388,-6.24368c3.36901,-1.86728 2.49506,-8.1477 4.44084,-6.73411c0,0 7.47406,1.05576 8.05086,4.04593c0,0 3.15239,8.63508 1.86058,10.01627c0,0 -1.84119,1.36588 -6.6414,1.13905c-2.60083,-0.1229 -3.46934,-2.01946 -3.46934,-2.01946z" data-paper-data="{&quot;origRot&quot;:0,&quot;origPos&quot;:null}" fill="#5a2c0a" stroke="none" stroke-width="0" stroke-linecap="butt"/><path d="M217.06348,127.54235c4.45777,1.04067 38.48456,-2.2405 44.47149,-1.90776c8.85757,0.4923 6.40879,8.48743 7.03405,17.33661c0.71891,10.17467 7.81496,14.80809 4.25102,24.36521c-1.37409,3.6848 -4.46514,5.61315 -7.55432,8.04683c-1.75247,1.38062 -6.64329,2.72173 -17.79117,2.95102c-15.75819,0.32411 -20.22621,-2.22737 -26.72301,-7.17899c-4.12529,-3.14416 -2.32541,-7.61114 -5.6065,-12.57838c-1.00577,-1.52264 -2.19839,-2.33488 -2.3994,-2.33488c-10.71613,0 -16.6072,-8.85206 -16.6072,-17.22227c0,-8.37021 3.82439,-15.15561 9.81669,-15.15561c5.9923,0 9.55837,3.31634 11.10836,3.67819z" data-paper-data="{&quot;origPos&quot;:null}" fill="#ffdebd" stroke="none" stroke-width="0" stroke-linecap="butt"/><path d="M266.85307,132.92232c0.36409,5.05183 -1.87869,9.33005 -5.00941,9.55567c-3.13072,0.22565 -5.96379,-3.68676 -6.3279,-8.73858c-0.36409,-5.05183 1.87869,-9.33005 5.00941,-9.55567c3.13072,-0.22565 5.9638,3.68676 6.32789,8.73858z" data-paper-data="{&quot;origPos&quot;:null,&quot;origRot&quot;:0}" fill="#ffffff" stroke="none" stroke-width="0" stroke-linecap="butt"/><path d="M227.82051,135.62662c0,2.69546 3.16001,6.63809 0.73584,7.81663c-2.82007,1.37104 -4.26367,-0.5265 -4.26367,-0.5265c0,0 0.60166,1.62826 -3.1741,2.33466c-2.80483,0.52475 -3.77905,-5.35446 -3.77905,-9.92005c0,-4.56559 -0.01724,-8.98816 2.83429,-9.09334c12.00588,-0.44286 7.64668,4.82302 7.64668,9.38858z" data-paper-data="{&quot;origPos&quot;:null}" fill="#5a2c0a" stroke="none" stroke-width="0" stroke-linecap="butt"/><path d="M253.39571,138.09389c0.58997,5.03044 -1.45897,9.40482 -4.57641,9.77045c-3.11746,0.36563 -6.12296,-3.41597 -6.71293,-8.44641c-0.58997,-5.03044 1.45897,-9.40483 4.57641,-9.77043c3.11746,-0.36563 6.12293,3.41597 6.7129,8.44641z" data-paper-data="{&quot;origPos&quot;:null,&quot;origRot&quot;:0}" fill="#ffffff" stroke="none" stroke-width="0" stroke-linecap="butt"/><path d="M273.18463,97.25664c2.47637,15.44281 -0.50857,16.32101 -8.80576,21.26486c-12.0897,7.20361 -27.90385,5.74527 -40.81742,11.33921c-3.39077,1.46883 -12.03303,-2.0999 -15.72826,-2.0999c-7.55779,0 -11.82227,-5.40149 -12.13459,-11.83523c-0.68888,-14.19131 6.29902,-14.24635 13.85684,-14.24635c0,0 8.31759,1.37861 11.19063,5.7914c0,0 11.57092,-18.82635 23.76828,-21.15217c15.70143,-2.99399 26.89193,-0.15177 28.67029,10.93819z" data-paper-data="{&quot;origPos&quot;:null}" fill="#ff0021" stroke="none" stroke-width="0" stroke-linecap="butt"/><path d="M270.1942,106.06617c0,5.64991 -1.51194,9.90058 -12.60672,10.23004c-11.7125,0.3478 -12.6067,-4.58014 -12.6067,-10.23004c0,-5.64991 5.64419,-10.23004 12.6067,-10.23004c6.96248,0 12.60672,4.58013 12.60672,10.23004z" data-paper-data="{&quot;origPos&quot;:null}" fill="#ffffff" stroke="none" stroke-width="0" stroke-linecap="butt"/><path d="M288.17424,123.01288c-0.20665,0.8871 -40.65438,6.71668 -51.9768,7.9567c-5.50285,0.60266 -16.63671,0.16375 -16.43006,-0.72335c0.76396,-3.27931 2.89843,-8.51983 8.16336,-10.23002c6.36241,-2.06666 28.20501,-7.62607 44.53897,-7.37636c6.67723,0.10209 16.46849,7.09374 15.70453,10.37303z" data-paper-data="{&quot;origPos&quot;:null}" fill="url(#color-5)" stroke="none" stroke-width="0" stroke-linecap="butt"/><path d="M248.90747,111.97916l4.98877,-13.24967l4.55065,6.13634l2.81434,-5.48656l5.51056,10.41826l-3.7807,2.28355l-1.5685,-7.89549l-2.80525,4.82429l-3.69097,-4.84697l-1.58084,7.81628z" data-paper-data="{&quot;origPos&quot;:null}" fill="#ff0021" stroke="none" stroke-width="0" stroke-linecap="butt"/><path d="M272.16361,167.68928c-0.38348,2.63332 -2.37262,3.95354 -3.86645,4.35862c-4.55917,1.23631 -11.19996,1.0562 -15.72288,-0.30683c-2.5994,-0.78337 -2.64558,-2.465 -2.89658,-2.70008c-0.26518,-0.24837 -3.06874,1.61912 -6.4475,1.61912c-5.4216,0 -9.17086,-3.82059 -9.17086,-9.17086c0,-5.86694 0.50914,-9.12714 1.39161,-9.29593c5.13958,-0.98311 6.67091,3.54684 10.62091,5.67926c0,0 13.208,4.34779 19.37844,3.99635c0,0 9.96012,-4.66141 13.04734,-4.45704c1.53111,0.10136 1.54112,3.30991 1.0581,4.93046c0,0 0.1572,4.42617 -1.98532,5.60279c-5.06597,2.78213 -5.29584,-1.01795 -5.40682,-0.25588z" data-paper-data="{&quot;origPos&quot;:null}" fill="#38291e" stroke="none" stroke-width="0" stroke-linecap="butt"/><path d="M277.97612,151.15589c-0.51667,6.83864 1.165,11.49586 -13.6917,11.23752c-6.84733,-0.11908 -13.43339,-4.39888 -13.43339,-10.46251c0,-6.06363 6.60573,-13.5473 13.43339,-14.07919c9.94834,-0.77501 14.5183,2.36339 13.6917,13.30421z" data-paper-data="{&quot;origPos&quot;:null}" fill="#ffdebd" stroke="none" stroke-width="0" stroke-linecap="butt"/><g data-paper-data="{&quot;origPos&quot;:null}" fill="none" stroke="#f6b09a" stroke-width="3.5" stroke-linecap="round"><path d="M202.72494,134.56375c0,0 3.06212,-1.78762 6.98018,1.23947c5.61914,4.34134 2.31986,11.75105 2.31986,11.75105" data-paper-data="{&quot;origPos&quot;:null}"/><path d="M205.52971,141.50191h6.20001" data-paper-data="{&quot;origPos&quot;:null}"/><path d="M211.13926,147.70194h-1.32858" data-paper-data="{&quot;origPos&quot;:null}"/></g><path d="M243.44438,127.09191c-1.42162,0.42396 -1.35431,0.6248 -2.0444,1.93801c-0.71191,1.35478 -2.21813,3.0995 -2.21813,3.0995c0,0 -1.50694,-3.74798 -1.50694,-6.53011c0,-1.88903 1.02648,-5.18156 3.93811,-5.84189c9.84885,-0.33159 6.91717,8.93933 6.91717,8.93933c0,0 -3.5932,-2.09066 -5.08581,-1.60481z" data-paper-data="{&quot;origPos&quot;:null}" fill="#38291e" stroke="none" stroke-width="0" stroke-linecap="butt"/><path d="M261.28058,124.19233c-1.56696,0.09214 -4.14988,3.34951 -4.14988,3.34951c0,0 -6.11171,-7.56251 3.17937,-10.84665c2.95188,-0.44734 5.10876,2.24381 5.79785,4.00265c1.01495,2.5904 0.97911,6.62983 0.97911,6.62983c0,0 -2.03891,-1.07503 -3.19596,-2.07672c-1.12158,-0.97097 -1.13218,-1.18255 -2.61049,-1.05866z" data-paper-data="{&quot;origPos&quot;:null,&quot;index&quot;:null,&quot;origRot&quot;:0}" fill="#38291e" stroke="none" stroke-width="0" stroke-linecap="butt"/><path d="M205.83272,186.79705c-5.14245,-6.24548 -13.65457,-19.61168 -13.65457,-19.61168l12.84549,-10.33186c0,0 7.23722,6.42633 13.63082,14.19135c6.39363,7.76502 8.58014,18.48453 4.33968,21.97607c-4.24046,3.49154 -10.76784,1.54112 -17.16144,-6.2239z" data-paper-data="{&quot;origRot&quot;:0,&quot;origPos&quot;:null}" fill="#ff0021" stroke="none" stroke-width="0" stroke-linecap="butt"/><g data-paper-data="{&quot;origPos&quot;:null,&quot;origRot&quot;:0}" fill="#ffffff" stroke="none" stroke-width="0" stroke-linecap="butt"><path d="M173.60331,159.08247c-8.20443,-8.03626 -0.80717,-14.13953 6.03957,-22.21447c6.27433,-7.39987 20.68782,-5.24959 25.4756,0.41779c6.59964,7.81211 -2.68412,15.44031 -10.44851,21.25751c-7.76438,5.81719 -13.4059,8.04292 -21.06666,0.53917z" data-paper-data="{&quot;origRot&quot;:0,&quot;origPos&quot;:null}"/><path d="M185.48401,169.17989c-4.42372,-5.52343 -1.17646,-4.85364 9.76505,-13.50463c9.60467,-7.59399 10.93264,-9.07178 15.20375,-4.24022c3.81795,4.31891 -3.89227,8.28411 -9.88093,12.78319c-5.98866,4.49911 -12.50474,8.18696 -15.08788,4.96166z" data-paper-data="{&quot;origRot&quot;:0,&quot;origPos&quot;:null}"/></g><path d="M246.43499,138.98826c0,-0.90939 0.73718,-1.64657 1.64657,-1.64657c0.90939,0 1.64657,0.73718 1.64657,1.64657c0,0.90939 -0.73718,1.64657 -1.64657,1.64657c-0.90939,0 -1.64657,-0.73718 -1.64657,-1.64657z" data-paper-data="{&quot;origPos&quot;:null}" fill="#000000" stroke="none" stroke-width="0.5" stroke-linecap="butt"/><path d="M259.79048,135.51217c0,-0.90939 0.73718,-1.64657 1.64657,-1.64657c0.90939,0 1.64657,0.73718 1.64657,1.64657c0,0.90939 -0.73718,1.64657 -1.64657,1.64657c-0.90939,0 -1.64657,-0.73718 -1.64657,-1.64657z" data-paper-data="{&quot;origPos&quot;:null}" fill="#000000" stroke="none" stroke-width="0.5" stroke-linecap="butt"/></g></g></g></svg>