<svg version="1.1" xmlns="http://www.w3.org/2000/svg" xmlns:xlink="http://www.w3.org/1999/xlink" width="33.85257" height="35.3317" viewBox="0,0,33.85257,35.3317"><defs><linearGradient x1="36.5238" y1="18.61016" x2="36.5238" y2="23.64252" gradientUnits="userSpaceOnUse" id="color-1"><stop offset="0" stop-color="#349fc7"/><stop offset="1" stop-color="#297299"/></linearGradient><linearGradient x1="29.07258" y1="15.80647" x2="29.07258" y2="22.61102" gradientUnits="userSpaceOnUse" id="color-2"><stop offset="0" stop-color="#349fc7"/><stop offset="1" stop-color="#2f8ab2"/></linearGradient><linearGradient x1="25.16742" y1="18.4079" x2="25.16742" y2="22.93334" gradientUnits="userSpaceOnUse" id="color-3"><stop offset="0" stop-color="#38291e"/><stop offset="1" stop-color="#381e32"/></linearGradient><linearGradient x1="31.67951" y1="17.2737" x2="31.67951" y2="21.25648" gradientUnits="userSpaceOnUse" id="color-4"><stop offset="0" stop-color="#38291e"/><stop offset="1" stop-color="#381e32"/></linearGradient></defs><g transform="translate(-7.74837,-5.78112)"><g data-paper-data="{&quot;isPaintingLayer&quot;:true}" fill-rule="nonzero" stroke-linejoin="miter" stroke-miterlimit="10" stroke-dasharray="" stroke-dashoffset="0" style="mix-blend-mode: normal"><path d="M41.41647,20.39422c-0.21451,1.43275 -4.49095,3.24829 -7.85634,3.24829c-2.71183,0 -2.03963,-2.55139 -2.03963,-3.92816c0,-1.37678 5.31447,-1.07646 8.0263,-1.07646c2.71183,0 2.00851,0.82894 1.86966,1.75634z" fill="url(#color-1)" stroke="none" stroke-width="0" stroke-linecap="butt"/><path d="M13.02907,36.02441c-0.71123,-0.5167 -0.88467,-1.37372 -0.32285,-2.40811c0.65184,-1.20015 0.40839,-3.10407 1.11962,-2.58737c0,0 2.73194,0.38591 2.94278,1.47888c0,0 1.15227,3.15634 0.68009,3.66119c0,0 -0.673,0.49926 -2.42759,0.41634c-0.95066,-0.04492 -1.28082,-0.04422 -1.99205,-0.56093z" data-paper-data="{&quot;origRot&quot;:0}" fill="#e7be7a" stroke="none" stroke-width="0" stroke-linecap="butt"/><path d="M15.57491,21.25666c1.62941,0.38039 14.06701,-0.81895 16.25536,-0.69732c3.23765,0.17995 2.34256,3.10234 2.57111,6.33693c0.26278,3.71908 2.85655,5.41271 1.55384,8.90606c-0.50227,1.34688 -2.10425,2.33502 -3.23341,3.22459c-0.64057,0.50465 -1.51549,2.00208 -5.59029,2.0859c-7.14491,-1.42384 -9.13404,-3.29524 -10.33444,-4.79592c-1.24161,-1.43223 -0.7241,-1.90073 -1.92341,-3.71637c-0.36763,-0.55656 -0.80357,-0.85345 -0.87704,-0.85345c-3.91699,0 -6.07032,-3.23564 -6.07032,-6.29515c0,-3.05951 1.3979,-5.53972 3.58823,-5.53972c2.19033,0 3.4938,1.2122 4.06036,1.34446z" fill="#ffdebd" stroke="none" stroke-width="0" stroke-linecap="butt"/><path d="M33.77416,23.22316c0.13309,1.84656 -0.6867,3.41036 -1.83106,3.49283c-1.14435,0.08247 -2.17991,-1.3476 -2.31299,-3.19416c-0.13309,-1.84656 0.6867,-3.41035 1.83105,-3.49282c1.14434,-0.08247 2.17991,1.3476 2.313,3.19416z" data-paper-data="{&quot;origRot&quot;:0}" fill="#ffffff" stroke="none" stroke-width="0" stroke-linecap="butt"/><path d="M19.50686,24.21166c0,0.98525 1.45722,3.78612 0.57114,4.21691c-1.0308,0.50115 -1.33855,-1.10813 -2.71869,-0.84991c-1.02522,0.1918 -1.6835,-1.80609 -1.6835,-3.47492c0,-1.66882 -0.0063,-3.28539 1.036,-3.32383c4.38843,-0.16187 2.79504,1.76293 2.79504,3.43175z" fill="#e7be7a" stroke="none" stroke-width="0" stroke-linecap="butt"/><path d="M28.85519,25.11349c0.21564,1.83874 -0.53328,3.43768 -1.67278,3.57132c-1.1395,0.13365 -2.23808,-1.24862 -2.45372,-3.08736c-0.21564,-1.83874 0.53328,-3.43768 1.67278,-3.57132c1.1395,-0.13365 2.23808,1.24862 2.45372,3.08736z" data-paper-data="{&quot;origRot&quot;:0}" fill="#ffffff" stroke="none" stroke-width="0" stroke-linecap="butt"/><path d="M27.80026,23.73548c0.35957,0 0.68517,0.2625 0.92123,0.68629c0.23569,0.42379 0.38186,1.00924 0.38186,1.65549c0,0.64626 -0.14617,1.23172 -0.38186,1.6555c-0.23606,0.42379 -0.56165,0.68629 -0.92123,0.68629c-0.35957,0 -0.68517,-0.2625 -0.92123,-0.68629c-0.23569,-0.42379 -0.38186,-1.00924 -0.38186,-1.6555c0,-0.64626 0.14617,-1.23171 0.38186,-1.65549c0.23606,-0.42379 0.56165,-0.68629 0.92123,-0.68629z" fill="#000000" stroke="#ffe008" stroke-width="1" stroke-linecap="butt"/><path d="M32.71047,22.01691c0.35957,0 0.68516,0.26251 0.92123,0.6863c0.23568,0.42379 0.29272,1.09687 0.38186,1.6555c0.03135,0.20358 0.08801,0.4997 -0.05665,0.67987c-0.18243,0.21794 -0.48385,0.32219 -0.75542,0.41549c-0.4744,0.09821 -1.03794,0.39168 -1.45417,0.15108c-0.36487,-0.21907 -0.33616,-0.80754 -0.33995,-1.24644c-0.00491,-0.56694 0.14617,-1.23171 0.38186,-1.65549c0.23607,-0.42379 0.56166,-0.68629 0.92124,-0.68629z" fill="#000000" stroke="#ffe008" stroke-width="1" stroke-linecap="round"/><path d="M36.08849,10.18652c0.90517,5.64471 -0.18589,5.96571 -3.2187,7.77281c-4.41906,2.63309 -10.19951,2.10004 -14.91972,4.14475c-1.2394,0.53689 -4.39835,-0.76756 -5.74903,-0.76756c-2.76255,0 -4.32132,-1.97438 -4.43548,-4.32605c-0.25181,-5.18726 2.30244,-5.20737 5.06499,-5.20737c0,0 3.04027,0.50391 4.09044,2.11689c0,0 4.22944,-6.88146 8.68787,-7.73161c5.73924,-1.09438 9.82962,-0.05548 10.47965,3.99817z" fill="#41c3ff" stroke="none" stroke-width="0" stroke-linecap="butt"/><path d="M34.99542,13.40662c0,2.06517 -0.55264,3.61889 -4.60805,3.73932c-4.2812,0.12713 -4.60805,-1.67415 -4.60805,-3.73932c0,-2.06517 2.0631,-3.73931 4.60805,-3.73931c2.54495,0 4.60805,1.67414 4.60805,3.73931z" fill="#ffffff" stroke="none" stroke-width="0" stroke-linecap="butt"/><path d="M41.56755,19.60103c-0.07554,0.32426 -14.86013,2.4551 -18.99874,2.90836c-2.01142,0.22029 -6.08111,0.05987 -6.00557,-0.26439c0.27925,-1.19865 1.05944,-3.1142 2.9839,-3.73932c2.32561,-0.75542 10.30959,-2.7875 16.28003,-2.69623c2.44069,0.03732 6.01962,2.59293 5.74037,3.79158z" fill="url(#color-2)" stroke="none" stroke-width="0" stroke-linecap="butt"/><path d="M28.68916,15.76363l0.07119,-1.30645l1.92527,-0.28138l-0.5481,-0.6684l-1.36943,-0.17161l-0.75294,-1.13838l0.73865,-1.06458l2.98375,-0.46839l0.65442,1.23553l-2.76678,0.21596l1.56067,0.57792l1.1574,0.95892l0.10924,0.97702l-0.84953,0.6224z" data-paper-data="{&quot;origRot&quot;:0}" fill="#ffe008" stroke="none" stroke-width="0" stroke-linecap="butt"/><path d="M33.98725,37.65037c-1.21521,0.07635 -2.96349,-0.27371 -5.79744,-0.74166c-3.6745,-0.60674 -4.19607,-3.19016 -4.19607,-3.19016c0,0 -1.37716,-0.50323 -2.14349,-0.93483c-0.59984,-0.33783 0.12315,-2.45487 0.44571,-2.51657c1.87863,-0.35935 2.43838,1.29646 3.88219,2.07591c0,0 4.82783,1.58922 7.08327,1.46076c0,0 3.64066,-1.70385 4.76911,-1.62915c0.55966,0.03706 0.56332,1.20985 0.38676,1.8022c0,0 -0.48954,1.58646 -1.29225,2.14238c-0.80271,0.55591 -1.92259,1.45477 -3.1378,1.53112z" fill="#e7be7a" stroke="none" stroke-width="0" stroke-linecap="butt"/><path d="M37.83991,29.88797c-0.18885,2.49968 0.42583,4.20201 -5.00464,4.10758c-2.50285,-0.04352 -4.91021,-1.6079 -4.91021,-3.82429c0,-2.21641 2.41454,-4.95187 4.91021,-5.14629c3.63635,-0.28328 5.30678,0.86388 5.00464,4.863z" fill="#ffdebd" stroke="none" stroke-width="0" stroke-linecap="butt"/><g fill="none" stroke="#f6b09a" stroke-width="1.5" stroke-linecap="round"><path d="M10.33384,23.82315c0,0 1.11928,-0.65342 2.55142,0.45305c2.05393,1.58686 0.84796,4.29529 0.84796,4.29529" data-paper-data="{&quot;origPos&quot;:null}"/><path d="M11.35905,26.3592h2.26625" data-paper-data="{&quot;origPos&quot;:null}"/><path d="M13.40946,28.62546h-0.48562" data-paper-data="{&quot;origPos&quot;:null}"/></g><path d="M25.21775,21.09201c-0.51964,0.15496 -0.49503,0.22837 -0.74727,0.70839c-0.26022,0.4952 -0.81078,1.13294 -0.81078,1.13294c0,0 -0.55082,-1.36997 -0.55082,-2.38691c0,-0.69049 0.3752,-1.89399 1.43947,-2.13535c3.59998,-0.1212 2.52839,3.26753 2.52839,3.26753c0,0 -1.3134,-0.76418 -1.85898,-0.58659z" fill="url(#color-3)" stroke="none" stroke-width="0" stroke-linecap="butt"/><path d="M31.73729,20.03215c-0.57276,0.03368 -1.51688,1.22433 -1.51688,1.22433c0,0 -2.23398,-2.76428 1.16213,-3.96471c1.07899,-0.16352 1.86736,0.82017 2.11926,1.46307c0.37098,0.94686 0.35788,2.42337 0.35788,2.42337c0,0 -0.74526,-0.39295 -1.1682,-0.7591c-0.40996,-0.35491 -0.41384,-0.43224 -0.95419,-0.38697z" data-paper-data="{&quot;index&quot;:null,&quot;origRot&quot;:0}" fill="url(#color-4)" stroke="none" stroke-width="0" stroke-linecap="butt"/></g></g></svg>