<svg version="1.1" xmlns="http://www.w3.org/2000/svg" xmlns:xlink="http://www.w3.org/1999/xlink" width="815.53146" height="377.98799" viewBox="0,0,815.53146,377.98799"><g transform="translate(166.29588,3.5)"><g data-paper-data="{&quot;isPaintingLayer&quot;:true}" fill-rule="nonzero" stroke-linecap="butt" stroke-linejoin="miter" stroke-miterlimit="10" stroke-dasharray="" stroke-dashoffset="0" style="mix-blend-mode: normal"><g fill="#8e6f54" stroke="#795d45" stroke-width="7"><g><path d="M-160.79587,0h110v50h-110z"/><path d="M-44.79587,0h110v50h-110z"/><path d="M71.20413,0h110v50h-110z"/></g><g><path d="M-100.79587,56h110v50h-110z"/><path d="M15.20413,56h110v50h-110z"/><path d="M131.20413,56h110v50h-110z"/></g></g><g fill="#8e6f54" stroke="#795d45" stroke-width="7"><g><path d="M-161.79587,111h110v50h-110z"/><path d="M-45.79587,111h110v50h-110z"/><path d="M70.20413,111h110v50h-110z"/></g><g><path d="M-101.79587,167h110v50h-110z"/><path d="M14.20413,167h110v50h-110z"/><path d="M130.20413,167h110v50h-110z"/></g></g><g fill="#8e6f54" stroke="#795d45" stroke-width="7"><g><path d="M-162.79587,222h110v50h-110z"/><path d="M-46.79587,222h110v50h-110z"/><path d="M69.20413,222h110v50h-110z"/></g><g><path d="M-102.79587,278h110v50h-110z"/><path d="M13.20413,278h110v50h-110z"/><path d="M129.20413,278h110v50h-110z"/></g></g><g><g fill="#8e6f54" stroke="#795d45" stroke-width="7"><path d="M-162.79587,333h110v37.98799h-110z"/><path d="M-46.79587,333h110v37.98799h-110z"/><path d="M69.20413,333h110v37.98799h-110z"/></g><g fill="none" stroke="none" stroke-width="1" font-family="sans-serif" font-weight="normal" font-size="12" text-anchor="start"/></g><g fill="#8e6f54" stroke="#795d45" stroke-width="7"><g><path d="M187.73559,0h110v50h-110z"/><path d="M303.73559,0h110v50h-110z"/><path d="M419.73559,0h110v50h-110z"/><path d="M535.73559,0h110v50h-110z"/></g><g><path d="M247.73559,56h110v50h-110z"/><path d="M363.73559,56h110v50h-110z"/><path d="M479.73559,56h110v50h-110z"/></g></g><g fill="#8e6f54" stroke="#795d45" stroke-width="7"><g><path d="M186.73559,111h110v50h-110z"/><path d="M302.73559,111h110v50h-110z"/><path d="M418.73559,111h110v50h-110z"/><path d="M534.73559,111h110v50h-110z"/></g><g><path d="M246.73559,167h110v50h-110z"/><path d="M362.73559,167h110v50h-110z"/><path d="M478.73559,167h110v50h-110z"/></g></g><g fill="#8e6f54" stroke="#795d45" stroke-width="7"><g><path d="M185.73559,222h110v50h-110z"/><path d="M301.73559,222h110v50h-110z"/><path d="M417.73559,222h110v50h-110z"/><path d="M533.73559,222h110v50h-110z"/></g><g><path d="M245.73559,278h110v50h-110z"/><path d="M361.73559,278h110v50h-110z"/><path d="M477.73559,278h110v50h-110z"/></g></g><g><g fill="#8e6f54" stroke="#795d45" stroke-width="7"><path d="M185.73559,333h110v37.98799h-110z"/><path d="M301.73559,333h110v37.98799h-110z"/><path d="M417.73559,333h110v37.98799h-110z"/><path d="M533.73559,333h110v37.98799h-110z"/></g><g fill="none" stroke="none" stroke-width="1" font-family="sans-serif" font-weight="normal" font-size="12" text-anchor="start"/></g></g></g></svg>