<svg version="1.1" xmlns="http://www.w3.org/2000/svg" xmlns:xlink="http://www.w3.org/1999/xlink" width="40.98061" height="40.98982" viewBox="0,0,40.98061,40.98982"><g transform="translate(-219.50969,-159.47636)"><g data-paper-data="{&quot;isPaintingLayer&quot;:true}" fill-rule="nonzero" stroke="none" stroke-linecap="butt" stroke-linejoin="miter" stroke-miterlimit="10" stroke-dasharray="" stroke-dashoffset="0" style="mix-blend-mode: normal"><g><path d="M221.63513,197.92636c-1.89392,-1.96637 -2.12544,-6.26421 -2.12544,-6.26421v-23.43616c0,0 0.0283,-4.10183 2.21456,-6.42754c2.08577,-2.21879 7.19294,-2.32209 7.19294,-2.32209h22.77104c0,0 4.26759,0.15457 6.27147,2.02423c2.61534,2.44017 2.53028,5.87386 2.53028,5.87386v25.27091c0,0 -0.10478,3.4944 -2.32786,5.78707c-2.22151,2.29104 -6.17025,2.02423 -6.17025,2.02423h-24.11418c0,0 -3.8523,-0.04859 -6.24256,-2.53028z" fill="#aa4212" stroke-width="0"/><path d="M223.18953,164.72309c0,-0.97113 0.78726,-1.7584 1.7584,-1.7584c0.97113,0 1.7584,0.78727 1.7584,1.7584c0,0.97113 -0.78726,1.7584 -1.7584,1.7584c-0.97113,0 -1.7584,-0.78726 -1.7584,-1.7584z" fill="#762b09" stroke-width="0"/><path d="M223.17656,195.26626c0,-0.97113 0.78726,-1.7584 1.7584,-1.7584c0.97113,0 1.7584,0.78726 1.7584,1.7584c0,0.97113 -0.78727,1.7584 -1.7584,1.7584c-0.97113,0 -1.7584,-0.78726 -1.7584,-1.7584z" fill="#762b09" stroke-width="0"/><path d="M253.54396,164.40651c0,-0.97113 0.78727,-1.7584 1.7584,-1.7584c0.97113,0 1.75839,0.78727 1.75839,1.7584c0,0.97113 -0.78726,1.75839 -1.75839,1.75839c-0.97113,0 -1.7584,-0.78726 -1.7584,-1.75839z" fill="#762b09" stroke-width="0"/><path d="M253.6693,195.3545c0,-0.97113 0.78726,-1.7584 1.7584,-1.7584c0.97113,0 1.7584,0.78727 1.7584,1.7584c0,0.97113 -0.78727,1.7584 -1.7584,1.7584c-0.97113,0 -1.7584,-0.78726 -1.7584,-1.7584z" fill="#762b09" stroke-width="0"/><path d="M228.76486,182.07519c-0.27758,-1.25988 1.264,-1.88326 2.15407,-1.93945c2.30474,-0.1455 3.53778,0.61323 3.53778,0.61323c0,0 -1.72162,-3.20594 -3.76407,-4.16591c-2.04245,-0.95997 -4.75774,-1.21862 -4.9369,-1.24871c-1.00392,-0.16857 -1.6811,-1.11906 -1.51253,-2.12298c0.14371,-0.85589 0.85398,-1.55728 1.68472,-1.53359c5.32442,0.15184 8.28484,2.54991 10.37572,6.00324c1.05988,1.75051 1.70311,4.27994 0.91385,5.57184c-0.75788,1.24053 -1.81244,0.39589 -4.43995,0.16403c-2.92612,-0.25822 -3.70146,0.07092 -4.01268,-1.3417z" fill="#5f2308" stroke-width="0.5"/><path d="M251.24516,182.07519c-0.31122,1.41262 -1.08656,1.08348 -4.01268,1.3417c-2.62751,0.23186 -3.68206,1.07651 -4.43995,-0.16402c-0.78927,-1.2919 -0.14604,-3.82133 0.91384,-5.57185c2.09088,-3.45334 5.0513,-5.8514 10.37572,-6.00324c0.83074,-0.02369 1.54101,0.67771 1.68472,1.5336c0.16857,1.00392 -0.50861,1.95441 -1.51253,2.12297c-0.17916,0.03009 -2.89445,0.28874 -4.9369,1.24871c-2.04245,0.95997 -3.76408,4.16591 -3.76408,4.16591c0,0 1.23305,-0.75872 3.53779,-0.61322c0.89006,0.05619 2.43165,0.67956 2.15407,1.93945z" data-paper-data="{&quot;index&quot;:null}" fill="#5f2308" stroke-width="0.5"/></g></g></g></svg>