<svg version="1.1" xmlns="http://www.w3.org/2000/svg" xmlns:xlink="http://www.w3.org/1999/xlink" width="58.40145" height="51.80081" viewBox="0,0,58.40145,51.80081"><defs><linearGradient x1="240.11099" y1="154.09967" x2="240.11099" y2="197.29655" gradientUnits="userSpaceOnUse" id="color-1"><stop offset="0" stop-color="#fff01b"/><stop offset="1" stop-color="#ffa30a"/></linearGradient><linearGradient x1="240.08023" y1="157.2263" x2="240.08023" y2="182.63543" gradientUnits="userSpaceOnUse" id="color-2"><stop offset="0" stop-color="#d69a18"/><stop offset="1" stop-color="#ce6e08"/></linearGradient><linearGradient x1="215.98092" y1="166.83435" x2="215.98092" y2="190.54631" gradientUnits="userSpaceOnUse" id="color-3"><stop offset="0" stop-color="#d69a18"/><stop offset="1" stop-color="#ce6e08"/></linearGradient><linearGradient x1="264.49258" y1="166.99414" x2="264.49258" y2="190.53633" gradientUnits="userSpaceOnUse" id="color-4"><stop offset="0" stop-color="#d69a18"/><stop offset="1" stop-color="#ce6e08"/></linearGradient><linearGradient x1="240.17399" y1="187.20841" x2="240.17399" y2="205.90048" gradientUnits="userSpaceOnUse" id="color-5"><stop offset="0" stop-color="#fff159"/><stop offset="1" stop-color="#ffd341"/></linearGradient><linearGradient x1="244.861" y1="190.89448" x2="244.861" y2="201.3337" gradientUnits="userSpaceOnUse" id="color-6"><stop offset="0" stop-color="#000000"/><stop offset="1" stop-color="#805506"/></linearGradient><linearGradient x1="235.25416" y1="190.92166" x2="235.25416" y2="201.36088" gradientUnits="userSpaceOnUse" id="color-7"><stop offset="0" stop-color="#000000"/><stop offset="1" stop-color="#805506"/></linearGradient></defs><g transform="translate(-210.91076,-154.09967)"><g data-paper-data="{&quot;isPaintingLayer&quot;:true}" fill-rule="nonzero" stroke="none" stroke-linejoin="miter" stroke-miterlimit="10" stroke-dasharray="" stroke-dashoffset="0" style="mix-blend-mode: normal"><g><g><path d="M269.04811,183.68881c-0.45954,7.34749 -6.17246,13.18795 -29.91777,13.60774c-22.89836,-0.15312 -27.45843,-8.56856 -27.96053,-14.39158c-0.5021,-5.82303 2.56326,-28.92768 28.36032,-28.80481c27.26713,0.12987 30.02557,21.47302 29.51799,29.58865z" fill="url(#color-1)" stroke-width="0.93172" stroke-linecap="round"/><path d="M226.74316,169.93017c0,-7.01605 3.6732,-12.6622 13.33707,-12.70368c8.89619,-0.03818 13.33707,5.68764 13.33707,12.70368c0,7.01605 -2.75528,12.56599 -13.33707,12.70368c-8.59009,0.11176 -13.33707,-5.68763 -13.33707,-12.70368z" fill="url(#color-2)" stroke-width="0" stroke-linecap="butt"/><path d="M215.26618,166.83437c0,0 4.95762,4.50319 5.70031,10.53303c0.93258,7.57153 -6.1541,13.17891 -6.1541,13.17891c0,0 -5.00756,-2.22322 -3.67659,-11.80186c1.16401,-8.37706 4.13038,-11.91009 4.13038,-11.91009z" fill="url(#color-3)" stroke-width="0" stroke-linecap="butt"/><path d="M266.1687,190.53632c0,0 -6.92873,-4.45874 -6.47435,-12.50786c0.33749,-5.97825 5.62857,-11.03432 5.62857,-11.03432c0,0 3.8205,5.87752 3.9774,12.43764c0.23645,9.88667 -3.13162,11.10455 -3.13162,11.10455z" fill="url(#color-4)" stroke-width="0" stroke-linecap="butt"/></g><g stroke-linecap="butt"><path d="M257.53785,197.20205c-0.06415,4.02086 -0.7382,8.42672 -18.02531,8.68981c-17.29051,0.26314 -16.60698,-5.55558 -16.70058,-9.19813c-0.12985,-5.05373 3.34685,-9.48341 16.94957,-9.48532c15.59352,0.1182 17.84864,5.46023 17.77631,9.99364z" fill="url(#color-5)" stroke-width="1"/><g stroke-width="0"><path d="M244.861,190.89448c1.56044,0 2.07354,1.55866 2.07354,5.21961c0,3.53124 -0.65151,5.21961 -2.07354,5.21961c-1.42202,0 -2.07354,-1.81808 -2.07354,-5.21961c0,-3.66095 0.5131,-5.21961 2.07354,-5.21961z" fill="url(#color-6)"/><path d="M243.95275,193.31602c0,-1.19843 0.40875,-1.455 0.91296,-1.455c0.50421,0 0.93747,0.27905 0.91295,1.47725c-0.02225,1.0872 -0.16514,1.53851 -0.91295,1.53851c-0.79232,0 -0.91296,-0.5403 -0.91296,-1.56075z" fill="#ffffff"/></g><g stroke-width="0"><path d="M235.25416,190.92166c1.56044,0 2.07353,1.55865 2.07353,5.21961c0,3.53124 -0.6515,5.21961 -2.07353,5.21961c-1.42203,0 -2.07354,-1.81808 -2.07354,-5.21961c0,-3.66095 0.5131,-5.21961 2.07354,-5.21961z" fill="url(#color-7)"/><path d="M234.43342,193.3432c0,-1.19843 0.40875,-1.455 0.91295,-1.455c0.50421,0 0.93746,0.27905 0.91294,1.47725c-0.02225,1.0872 -0.16513,1.53851 -0.91294,1.53851c-0.79232,0 -0.91295,-0.54031 -0.91295,-1.56075z" fill="#ffffff"/></g></g></g></g></g></svg>