<svg version="1.1" xmlns="http://www.w3.org/2000/svg" xmlns:xlink="http://www.w3.org/1999/xlink" width="492.72149" height="60.28323" viewBox="0,0,492.72149,60.28323"><defs><linearGradient x1="206.12205" y1="-0.64162" x2="206.12205" y2="59.64171" gradientUnits="userSpaceOnUse" id="color-1"><stop offset="0" stop-color="#3672d9"/><stop offset="1" stop-color="#3d85f3"/></linearGradient><linearGradient x1="240.00001" y1="180" x2="240.00001" y2="180" gradientUnits="userSpaceOnUse" id="color-2"><stop offset="0" stop-color="#2b5cac"/><stop offset="1" stop-color="#336aca"/></linearGradient><linearGradient x1="240.00001" y1="180" x2="240.00001" y2="180" gradientUnits="userSpaceOnUse" id="color-3"><stop offset="0" stop-color="#3672d9"/><stop offset="1" stop-color="#3d85f3"/></linearGradient><linearGradient x1="240.00001" y1="180" x2="240.00001" y2="180" gradientUnits="userSpaceOnUse" id="color-4"><stop offset="0" stop-color="#2b5cac"/><stop offset="1" stop-color="#336aca"/></linearGradient></defs><g transform="translate(87.50146,0.64162)"><g data-paper-data="{&quot;isPaintingLayer&quot;:true}" fill-rule="nonzero" stroke-linejoin="miter" stroke-miterlimit="10" stroke-dasharray="" stroke-dashoffset="0" style="mix-blend-mode: normal"><path d="M405.22004,-0.64162l-22.35669,60.28323h-470.3648l1.4985,-60.1323z" fill="url(#color-1)" stroke="#000000" stroke-width="0" stroke-linecap="round"/><g><path d="" fill="url(#color-2)" stroke="none" stroke-width="1.00627" stroke-linecap="butt"/><path d="" fill="url(#color-3)" stroke="#000000" stroke-width="0" stroke-linecap="round"/></g><path d="" fill="url(#color-4)" stroke="none" stroke-width="1.00627" stroke-linecap="butt"/><g fill="#2c6eb0" stroke-linecap="butt"><g stroke="#2c6eb0" stroke-width="7.5"><path d=""/><path d=""/><path d=""/><path d=""/><path d=""/><path d=""/><path d=""/><path d=""/><path d=""/><path d=""/></g><g stroke="none"><path d="" stroke-width="0.13229"/><path d="" stroke-width="0.26458"/><path d="" stroke-width="0.26458"/><path d="" stroke-width="0.26458"/><path d="" stroke-width="0.26458"/><path d="" stroke-width="0.26458"/><path d="" stroke-width="0.26458"/><path d="" stroke-width="0.26458"/><path d="" stroke-width="0.26458"/><path d="" stroke-width="0.26458"/></g></g><g fill="#ffffff" stroke-linecap="butt"><g stroke="#224a8c" stroke-width="7.5"><path d=""/><path d=""/><path d=""/><path d=""/><path d=""/><path d=""/><path d=""/><path d=""/><path d=""/><path d=""/></g><g stroke="none" stroke-width="0.26458"><path d=""/><path d=""/><path d=""/><path d=""/><path d=""/><path d=""/><path d=""/><path d=""/><path d=""/><path d=""/></g></g><path d="M122.86982,16.6943c-0.99005,3.81859 -1.65687,5.71824 -1.95988,5.71824c-4.18249,-0.28326 -6.26357,-0.56603 -6.26357,-0.82848v-5.85968c0.04056,-0.1819 0.14144,-0.28268 0.28278,-0.28268zM160.93669,16.6943c-0.99005,3.81859 -1.65687,5.71824 -1.95997,5.71824c-4.18239,-0.28326 -6.26395,-0.56603 -6.26395,-0.82848v-5.85968c0.04056,-0.1819 0.14182,-0.28268 0.28326,-0.28268zM94.542,18.14906c1.47506,3.94018 2.36434,6.4657 2.68758,7.55663h0.12111c0.34357,-0.74736 1.69704,-2.82844 4.02082,-6.22291h0.12111c3.6574,0.22198 5.47555,0.48491 5.47555,0.74736l3.2936,22.52903c0,0.14134 -2.88923,0.46468 -8.64756,0.96982l-0.12159,-0.2427c-0.32324,-6.84926 -0.48491,-11.03165 -0.48491,-12.54727h-0.12111l-4.99064,4.38462h-0.12111c-0.16167,-0.08103 -1.29316,-1.8591 -3.4148,-5.35444h-0.12111c-2.60655,7.57686 -4.0212,11.59768 -4.26342,12.06236h-0.2427c-4.64707,-2.10131 -7.2937,-3.35401 -7.92043,-3.77812v-0.12159c5.75871,-13.55765 8.76915,-20.44747 9.01184,-20.70992c3.81859,0.26245 5.71777,0.50476 5.71777,0.72713zM148.20715,28.1709c-0.46468,7.67822 -0.80825,12.16362 -0.99015,13.45678c-0.78792,0.10088 -3.15178,0.24222 -7.13203,0.42412l-0.14182,-0.28278l-0.70689,-10.78943l-0.28278,-0.14144c-2.56647,0.54532 -4.34454,0.96992 -5.31436,1.25269c0.26293,4.58628 0.40427,7.92043 0.40427,9.96095c-4.02072,1.11126 -6.20316,1.67719 -6.58681,1.67719c-2.60645,-11.4968 -3.91985,-17.57837 -3.91985,-18.22495c5.67768,-0.74793 8.76915,-1.11174 9.25406,-1.11174v0.14182c0.10088,0.06041 0.24222,1.47468 0.42412,4.20272c5.2131,-3.45526 7.96099,-5.19277 8.264,-5.19277zM203.99384,25.58458c3.15216,2.70743 4.72809,4.16216 4.72809,4.34406c-1.27283,4.00059 -2.00044,6.42523 -2.18234,7.29418c1.27331,2.84877 2.00044,4.54619 2.18234,5.0919c0,0.16167 -2.08108,0.58579 -6.26347,1.29316c-0.06079,-0.22237 -0.44492,-0.74784 -1.15182,-1.53576c-5.75871,1.11116 -8.87002,1.65687 -9.31485,1.65687l-3.07123,-8.30447l6.76919,-3.57637c1.09093,0.1819 2.78797,0.26293 5.11175,0.26293c0,-0.30301 0.04047,-1.19228 0.12111,-2.68758c-0.38365,0 -3.87938,0.26293 -10.46619,0.76807l-0.12111,-0.26293c0.90903,-4.26303 1.47496,-6.38458 1.65648,-6.38458c8.00146,1.11126 12.00204,1.77807 12.00204,2.04052zM241.61579,27.38287c-0.62625,8.0214 -1.0099,12.40593 -1.1918,13.15377c-3.96041,0.98977 -6.18292,1.47468 -6.6476,1.47468c0,-1.75784 -0.14134,-5.21262 -0.40427,-10.36493c-1.49491,0.14134 -2.24275,0.28278 -2.24275,0.38365c0,0.50514 0.08103,3.43494 0.26293,8.76915c0.08064,0 0.12111,0.04056 0.12111,0.14134c0,0.16167 -2.08108,0.60611 -6.24324,1.33372c-0.1819,-0.22246 -0.70737,-3.49583 -1.59655,-9.83994c-1.67681,0.42421 -2.52552,0.74745 -2.52552,0.92936l0.80825,8.24377c-0.16167,0.1819 -2.38418,0.8888 -6.6476,2.12154c-2.48496,-8.76915 -4.02082,-14.64906 -4.64707,-17.65949c4.6673,-1.15172 7.29408,-1.73751 7.83941,-1.73751c0.62673,2.44488 0.92974,3.85915 0.92974,4.24318h0.14134c2.28331,-2.10131 3.85915,-3.51596 4.76827,-4.24318h0.14134l4.24318,3.0509h0.14144c2.64702,-2.56599 4.06128,-3.83882 4.24318,-3.83882c3.2936,1.35347 6.12213,2.64663 8.50622,3.83882zM289.80538,27.82733c-1.39403,3.11169 -2.20228,4.6674 -2.40442,4.6674l-7.35449,-4.26303h-0.26293c0,0.14134 -0.32324,0.8888 -0.94959,2.26298c6.76871,3.65692 10.16318,5.51601 10.16318,5.61689c-1.89918,4.38462 -2.96987,6.70792 -3.21257,6.95061l-11.4968,0.66681c-4.46526,-2.97035 -6.86958,-4.52596 -7.21315,-4.68763v-0.12111c0,-0.34347 0.66681,-1.8591 2.00053,-4.54619l8.9709,4.6673l0.66681,-2.66725c-5.55658,-2.48496 -8.84979,-4.04105 -9.90064,-4.6674v-0.28278c0,-0.50514 1.07108,-2.78836 3.21257,-6.80917l11.35537,-1.0707c3.87948,2.48496 6.02135,3.89961 6.42523,4.28327zM265.23573,29.06008c-0.86847,4.10146 -1.39394,6.20277 -1.55561,6.32388h-12.76973v0.22246l3.57637,4.42509l5.61699,-2.86948c0.5457,0.95007 1.35395,2.62678 2.38409,5.01087c-0.48491,0.16167 -4.02072,0.68714 -10.60753,1.55609c-5.45532,-3.5966 -8.20321,-5.47555 -8.24377,-5.61689c0.86895,-6.99117 1.39403,-10.4869 1.55561,-10.4869c5.69801,-2.42465 8.99161,-3.77812 9.90073,-4.0609c6.1019,3.13154 9.47604,4.97041 10.14285,5.49578zM185.26365,24.35221c0.99005,14.91112 1.47496,22.85188 1.47496,23.80147c-4.34406,2.76812 -7.43552,4.62722 -9.31437,5.61737c-6.60752,-2.08108 -9.90073,-3.25313 -9.90073,-3.55614c2.12164,-3.11169 3.35401,-4.68763 3.69748,-4.72809c3.5967,1.77807 5.65755,2.66686 6.20325,2.66686l1.91941,-2.52552c-0.50524,-2.08108 -0.84871,-3.31344 -1.03062,-3.69748c-0.30301,0 -3.94018,0.58579 -10.9512,1.77807c-3.83882,-6.24324 -5.75871,-9.43605 -5.75871,-9.59763c3.31383,-5.29365 5.33421,-8.40544 6.06182,-9.31447h0.14134c0.38404,0 3.2936,0.64658 8.72868,1.91941v-0.44435c0,-0.52547 -0.04056,-1.37419 -0.14144,-2.52591l0.28278,-0.14144c5.71824,0.14144 8.58734,0.40436 8.58734,0.74784zM112.82785,25.0592c6.14236,1.11116 9.21359,1.77797 9.21359,1.95988c-1.75784,10.00161 -2.82853,15.55818 -3.21257,16.70991h-6.40491c-0.1819,0 -0.28326,-0.10126 -0.28326,-0.28278l0.56603,-18.387zM150.89473,25.0592c6.14236,1.11116 9.21349,1.77797 9.21349,1.95988c-1.75774,10.00161 -2.82892,15.55818 -3.21257,16.70991h-6.40529c-0.1819,0 -0.28278,-0.10126 -0.28278,-0.28278l0.56555,-18.387zM251.63763,31.66624c0,0.56594 0.7884,0.84871 2.38457,0.84871c0,0.08103 1.15172,0.28278 3.45478,0.58617c0.62635,-0.86895 0.94959,-1.39442 0.94959,-1.53576c-0.20175,-1.19228 -0.64658,-1.7983 -1.31301,-1.7983l-3.33406,-1.31339c-0.10088,0.26293 -0.82848,1.33362 -2.14187,3.21257zM172.10988,38.83922c1.25298,-0.40388 3.17249,-1.15172 5.75871,-2.22242c-0.50514,-2.42465 -0.74784,-3.79883 -0.74784,-4.1424l-0.72722,-0.14134h-0.88918c-1.13149,0 -2.84877,-0.06031 -5.17254,-0.16167c0.1819,0.4246 0.7884,2.64702 1.77807,6.66783zM197.48758,40.15261h0.12159c1.69704,-1.11126 2.54576,-1.83886 2.54576,-2.18234l0.26254,-2.16172c-0.32334,0 -1.7376,-0.12111 -4.22295,-0.38404c0,0.14134 0.4245,1.71766 1.29306,4.72809z" fill="#ffffff" stroke="#2c6eb0" stroke-width="7.5" stroke-linecap="butt"/><path d="M119.86982,13.6943c-0.99005,3.81859 -1.65687,5.71824 -1.95988,5.71824c-4.18249,-0.28326 -6.26357,-0.56603 -6.26357,-0.82848v-5.85968c0.04056,-0.1819 0.14144,-0.28268 0.28278,-0.28268zM157.93669,13.6943c-0.99005,3.81859 -1.65687,5.71824 -1.95997,5.71824c-4.18239,-0.28326 -6.26395,-0.56603 -6.26395,-0.82848v-5.85968c0.04056,-0.1819 0.14182,-0.28268 0.28326,-0.28268zM91.542,15.14906c1.47506,3.94018 2.36434,6.4657 2.68758,7.55663h0.12111c0.34357,-0.74736 1.69704,-2.82844 4.02082,-6.22291h0.12111c3.6574,0.22198 5.47555,0.48491 5.47555,0.74736l3.2936,22.52903c0,0.14134 -2.88923,0.46468 -8.64756,0.96982l-0.12159,-0.2427c-0.32324,-6.84926 -0.48491,-11.03165 -0.48491,-12.54727h-0.12111l-4.99064,4.38462h-0.12111c-0.16167,-0.08103 -1.29316,-1.8591 -3.4148,-5.35444h-0.12111c-2.60655,7.57686 -4.0212,11.59768 -4.26342,12.06236h-0.2427c-4.64707,-2.10131 -7.2937,-3.35401 -7.92043,-3.77812v-0.12159c5.75871,-13.55765 8.76915,-20.44747 9.01184,-20.70992c3.81859,0.26245 5.71777,0.50476 5.71777,0.72713zM145.20715,25.1709c-0.46468,7.67822 -0.80825,12.16362 -0.99015,13.45678c-0.78792,0.10088 -3.15178,0.24222 -7.13203,0.42412l-0.14182,-0.28278l-0.70689,-10.78943l-0.28278,-0.14144c-2.56647,0.54532 -4.34454,0.96992 -5.31436,1.25269c0.26293,4.58628 0.40427,7.92043 0.40427,9.96095c-4.02072,1.11126 -6.20316,1.67719 -6.58681,1.67719c-2.60645,-11.4968 -3.91985,-17.57837 -3.91985,-18.22495c5.67768,-0.74793 8.76915,-1.11174 9.25406,-1.11174v0.14182c0.10088,0.06041 0.24222,1.47468 0.42412,4.20272c5.2131,-3.45526 7.96099,-5.19277 8.264,-5.19277zM200.99384,22.58458c3.15216,2.70743 4.72809,4.16216 4.72809,4.34406c-1.27283,4.00059 -2.00044,6.42523 -2.18234,7.29418c1.27331,2.84877 2.00044,4.54619 2.18234,5.0919c0,0.16167 -2.08108,0.58579 -6.26347,1.29316c-0.06079,-0.22237 -0.44492,-0.74784 -1.15182,-1.53576c-5.75871,1.11116 -8.87002,1.65687 -9.31485,1.65687l-3.07123,-8.30447l6.76919,-3.57637c1.09093,0.1819 2.78797,0.26293 5.11175,0.26293c0,-0.30301 0.04047,-1.19228 0.12111,-2.68758c-0.38365,0 -3.87938,0.26293 -10.46619,0.76807l-0.12111,-0.26293c0.90903,-4.26303 1.47496,-6.38458 1.65648,-6.38458c8.00146,1.11126 12.00204,1.77807 12.00204,2.04052zM238.61579,24.38288c-0.62625,8.0214 -1.0099,12.40593 -1.1918,13.15377c-3.96041,0.98977 -6.18292,1.47468 -6.6476,1.47468c0,-1.75784 -0.14134,-5.21262 -0.40427,-10.36493c-1.49491,0.14134 -2.24275,0.28278 -2.24275,0.38365c0,0.50514 0.08103,3.43494 0.26293,8.76915c0.08064,0 0.12111,0.04056 0.12111,0.14134c0,0.16167 -2.08108,0.60611 -6.24324,1.33372c-0.1819,-0.22246 -0.70737,-3.49583 -1.59655,-9.83994c-1.67681,0.42421 -2.52552,0.74745 -2.52552,0.92936l0.80825,8.24377c-0.16167,0.1819 -2.38418,0.8888 -6.6476,2.12154c-2.48496,-8.76915 -4.02082,-14.64906 -4.64707,-17.65949c4.6673,-1.15172 7.29408,-1.73751 7.83941,-1.73751c0.62673,2.44488 0.92974,3.85915 0.92974,4.24318h0.14134c2.28331,-2.10131 3.85915,-3.51596 4.76827,-4.24318h0.14134l4.24318,3.0509h0.14144c2.64702,-2.56599 4.06128,-3.83882 4.24318,-3.83882c3.2936,1.35347 6.12213,2.64663 8.50622,3.83882zM286.80538,24.8273c-1.39403,3.11169 -2.20228,4.6674 -2.40442,4.6674l-7.35449,-4.26303h-0.26293c0,0.14134 -0.32324,0.8888 -0.94959,2.26298c6.76871,3.65692 10.16318,5.51601 10.16318,5.61689c-1.89918,4.38462 -2.96987,6.70792 -3.21257,6.95061l-11.4968,0.66681c-4.46526,-2.97035 -6.86958,-4.52596 -7.21315,-4.68763v-0.12111c0,-0.34347 0.66681,-1.8591 2.00053,-4.54619l8.9709,4.6673l0.66681,-2.66725c-5.55658,-2.48496 -8.84979,-4.04105 -9.90064,-4.6674v-0.28278c0,-0.50514 1.07108,-2.78836 3.21257,-6.80917l11.35537,-1.0707c3.87948,2.48496 6.02135,3.89961 6.42523,4.28327zM262.23573,26.06008c-0.86847,4.10146 -1.39394,6.20277 -1.55561,6.32388h-12.76973v0.22246l3.57637,4.42509l5.61699,-2.86948c0.5457,0.95007 1.35395,2.62678 2.38409,5.01087c-0.48491,0.16167 -4.02072,0.68714 -10.60753,1.55609c-5.45532,-3.5966 -8.20321,-5.47555 -8.24377,-5.61689c0.86895,-6.99117 1.39403,-10.4869 1.55561,-10.4869c5.69801,-2.42465 8.99161,-3.77812 9.90073,-4.0609c6.1019,3.13154 9.47604,4.97041 10.14285,5.49578zM182.26365,21.35221c0.99005,14.91112 1.47496,22.85188 1.47496,23.80147c-4.34406,2.76812 -7.43552,4.62722 -9.31437,5.61737c-6.60752,-2.08108 -9.90073,-3.25313 -9.90073,-3.55614c2.12164,-3.11169 3.35401,-4.68763 3.69748,-4.72809c3.5967,1.77807 5.65755,2.66686 6.20325,2.66686l1.91941,-2.52552c-0.50524,-2.08108 -0.84871,-3.31344 -1.03062,-3.69748c-0.30301,0 -3.94018,0.58579 -10.9512,1.77807c-3.83882,-6.24324 -5.75871,-9.43605 -5.75871,-9.59763c3.31383,-5.29365 5.33421,-8.40544 6.06182,-9.31447h0.14134c0.38404,0 3.2936,0.64658 8.72868,1.91941v-0.44435c0,-0.52547 -0.04056,-1.37419 -0.14144,-2.52591l0.28278,-0.14144c5.71824,0.14144 8.58734,0.40436 8.58734,0.74784zM109.82785,22.05917c6.14236,1.11116 9.21359,1.77797 9.21359,1.95988c-1.75784,10.00161 -2.82853,15.55818 -3.21257,16.70991h-6.40491c-0.1819,0 -0.28326,-0.10126 -0.28326,-0.28278l0.56603,-18.387zM147.89473,22.05917c6.14236,1.11116 9.21349,1.77797 9.21349,1.95988c-1.75774,10.00161 -2.82892,15.55818 -3.21257,16.70991h-6.40529c-0.1819,0 -0.28278,-0.10126 -0.28278,-0.28278l0.56555,-18.387zM248.63763,28.66624c0,0.56594 0.7884,0.84871 2.38457,0.84871c0,0.08103 1.15172,0.28278 3.45478,0.58617c0.62635,-0.86895 0.94959,-1.39442 0.94959,-1.53576c-0.20175,-1.19228 -0.64658,-1.7983 -1.31301,-1.7983l-3.33406,-1.31339c-0.10088,0.26293 -0.82848,1.33362 -2.14187,3.21257zM169.10988,35.83922c1.25298,-0.40388 3.17249,-1.15172 5.75871,-2.22242c-0.50514,-2.42465 -0.74784,-3.79883 -0.74784,-4.1424l-0.72722,-0.14134h-0.88918c-1.13149,0 -2.84877,-0.06031 -5.17254,-0.16167c0.1819,0.4246 0.7884,2.64702 1.77807,6.66783zM194.48758,37.15261h0.12159c1.69704,-1.11126 2.54576,-1.83886 2.54576,-2.18234l0.26254,-2.16172c-0.32334,0 -1.7376,-0.12111 -4.22295,-0.38404c0,0.14134 0.4245,1.71766 1.29306,4.72809z" fill="#ffffff" stroke="#224a8c" stroke-width="7.5" stroke-linecap="butt"/><path d="M119.86982,13.6943c-0.99005,3.81859 -1.65687,5.71824 -1.95988,5.71824c-4.18249,-0.28326 -6.26357,-0.56603 -6.26357,-0.82848v-5.85968c0.04056,-0.1819 0.14144,-0.28268 0.28278,-0.28268zM157.93669,13.6943c-0.99005,3.81859 -1.65687,5.71824 -1.95997,5.71824c-4.18239,-0.28326 -6.26395,-0.56603 -6.26395,-0.82848v-5.85968c0.04056,-0.1819 0.14182,-0.28268 0.28326,-0.28268zM91.542,15.14906c1.47506,3.94018 2.36434,6.4657 2.68758,7.55663h0.12111c0.34357,-0.74736 1.69704,-2.82844 4.02082,-6.22291h0.12111c3.6574,0.22198 5.47555,0.48491 5.47555,0.74736l3.2936,22.52903c0,0.14134 -2.88923,0.46468 -8.64756,0.96982l-0.12159,-0.2427c-0.32324,-6.84926 -0.48491,-11.03165 -0.48491,-12.54727h-0.12111l-4.99064,4.38462h-0.12111c-0.16167,-0.08103 -1.29316,-1.8591 -3.4148,-5.35444h-0.12111c-2.60655,7.57686 -4.0212,11.59768 -4.26342,12.06236h-0.2427c-4.64707,-2.10131 -7.2937,-3.35401 -7.92043,-3.77812v-0.12159c5.75871,-13.55765 8.76915,-20.44747 9.01184,-20.70992c3.81859,0.26245 5.71777,0.50476 5.71777,0.72713zM145.20715,25.1709c-0.46468,7.67822 -0.80825,12.16362 -0.99015,13.45678c-0.78792,0.10088 -3.15178,0.24222 -7.13203,0.42412l-0.14182,-0.28278l-0.70689,-10.78943l-0.28278,-0.14144c-2.56647,0.54532 -4.34454,0.96992 -5.31436,1.25269c0.26293,4.58628 0.40427,7.92043 0.40427,9.96095c-4.02072,1.11126 -6.20316,1.67719 -6.58681,1.67719c-2.60645,-11.4968 -3.91985,-17.57837 -3.91985,-18.22495c5.67768,-0.74793 8.76915,-1.11174 9.25406,-1.11174v0.14182c0.10088,0.06041 0.24222,1.47468 0.42412,4.20272c5.2131,-3.45526 7.96099,-5.19277 8.264,-5.19277zM200.99384,22.58458c3.15216,2.70743 4.72809,4.16216 4.72809,4.34406c-1.27283,4.00059 -2.00044,6.42523 -2.18234,7.29418c1.27331,2.84877 2.00044,4.54619 2.18234,5.0919c0,0.16167 -2.08108,0.58579 -6.26347,1.29316c-0.06079,-0.22237 -0.44492,-0.74784 -1.15182,-1.53576c-5.75871,1.11116 -8.87002,1.65687 -9.31485,1.65687l-3.07123,-8.30447l6.76919,-3.57637c1.09093,0.1819 2.78797,0.26293 5.11175,0.26293c0,-0.30301 0.04047,-1.19228 0.12111,-2.68758c-0.38365,0 -3.87938,0.26293 -10.46619,0.76807l-0.12111,-0.26293c0.90903,-4.26303 1.47496,-6.38458 1.65648,-6.38458c8.00146,1.11126 12.00204,1.77807 12.00204,2.04052zM238.61579,24.38288c-0.62625,8.0214 -1.0099,12.40593 -1.1918,13.15377c-3.96041,0.98977 -6.18292,1.47468 -6.6476,1.47468c0,-1.75784 -0.14134,-5.21262 -0.40427,-10.36493c-1.49491,0.14134 -2.24275,0.28278 -2.24275,0.38365c0,0.50514 0.08103,3.43494 0.26293,8.76915c0.08064,0 0.12111,0.04056 0.12111,0.14134c0,0.16167 -2.08108,0.60611 -6.24324,1.33372c-0.1819,-0.22246 -0.70737,-3.49583 -1.59655,-9.83994c-1.67681,0.42421 -2.52552,0.74745 -2.52552,0.92936l0.80825,8.24377c-0.16167,0.1819 -2.38418,0.8888 -6.6476,2.12154c-2.48496,-8.76915 -4.02082,-14.64906 -4.64707,-17.65949c4.6673,-1.15172 7.29408,-1.73751 7.83941,-1.73751c0.62673,2.44488 0.92974,3.85915 0.92974,4.24318h0.14134c2.28331,-2.10131 3.85915,-3.51596 4.76827,-4.24318h0.14134l4.24318,3.0509h0.14144c2.64702,-2.56599 4.06128,-3.83882 4.24318,-3.83882c3.2936,1.35347 6.12213,2.64663 8.50622,3.83882zM286.80538,24.8273c-1.39403,3.11169 -2.20228,4.6674 -2.40442,4.6674l-7.35449,-4.26303h-0.26293c0,0.14134 -0.32324,0.8888 -0.94959,2.26298c6.76871,3.65692 10.16318,5.51601 10.16318,5.61689c-1.89918,4.38462 -2.96987,6.70792 -3.21257,6.95061l-11.4968,0.66681c-4.46526,-2.97035 -6.86958,-4.52596 -7.21315,-4.68763v-0.12111c0,-0.34347 0.66681,-1.8591 2.00053,-4.54619l8.9709,4.6673l0.66681,-2.66725c-5.55658,-2.48496 -8.84979,-4.04105 -9.90064,-4.6674v-0.28278c0,-0.50514 1.07108,-2.78836 3.21257,-6.80917l11.35537,-1.0707c3.87948,2.48496 6.02135,3.89961 6.42523,4.28327zM262.23573,26.06008c-0.86847,4.10146 -1.39394,6.20277 -1.55561,6.32388h-12.76973v0.22246l3.57637,4.42509l5.61699,-2.86948c0.5457,0.95007 1.35395,2.62678 2.38409,5.01087c-0.48491,0.16167 -4.02072,0.68714 -10.60753,1.55609c-5.45532,-3.5966 -8.20321,-5.47555 -8.24377,-5.61689c0.86895,-6.99117 1.39403,-10.4869 1.55561,-10.4869c5.69801,-2.42465 8.99161,-3.77812 9.90073,-4.0609c6.1019,3.13154 9.47604,4.97041 10.14285,5.49578zM182.26365,21.35221c0.99005,14.91112 1.47496,22.85188 1.47496,23.80147c-4.34406,2.76812 -7.43552,4.62722 -9.31437,5.61737c-6.60752,-2.08108 -9.90073,-3.25313 -9.90073,-3.55614c2.12164,-3.11169 3.35401,-4.68763 3.69748,-4.72809c3.5967,1.77807 5.65755,2.66686 6.20325,2.66686l1.91941,-2.52552c-0.50524,-2.08108 -0.84871,-3.31344 -1.03062,-3.69748c-0.30301,0 -3.94018,0.58579 -10.9512,1.77807c-3.83882,-6.24324 -5.75871,-9.43605 -5.75871,-9.59763c3.31383,-5.29365 5.33421,-8.40544 6.06182,-9.31447h0.14134c0.38404,0 3.2936,0.64658 8.72868,1.91941v-0.44435c0,-0.52547 -0.04056,-1.37419 -0.14144,-2.52591l0.28278,-0.14144c5.71824,0.14144 8.58734,0.40436 8.58734,0.74784zM109.82785,22.05917c6.14236,1.11116 9.21359,1.77797 9.21359,1.95988c-1.75784,10.00161 -2.82853,15.55818 -3.21257,16.70991h-6.40491c-0.1819,0 -0.28326,-0.10126 -0.28326,-0.28278l0.56603,-18.387zM147.89473,22.05917c6.14236,1.11116 9.21349,1.77797 9.21349,1.95988c-1.75774,10.00161 -2.82892,15.55818 -3.21257,16.70991h-6.40529c-0.1819,0 -0.28278,-0.10126 -0.28278,-0.28278l0.56555,-18.387zM248.63763,28.66624c0,0.56594 0.7884,0.84871 2.38457,0.84871c0,0.08103 1.15172,0.28278 3.45478,0.58617c0.62635,-0.86895 0.94959,-1.39442 0.94959,-1.53576c-0.20175,-1.19228 -0.64658,-1.7983 -1.31301,-1.7983l-3.33406,-1.31339c-0.10088,0.26293 -0.82848,1.33362 -2.14187,3.21257zM169.10988,35.83922c1.25298,-0.40388 3.17249,-1.15172 5.75871,-2.22242c-0.50514,-2.42465 -0.74784,-3.79883 -0.74784,-4.1424l-0.72722,-0.14134h-0.88918c-1.13149,0 -2.84877,-0.06031 -5.17254,-0.16167c0.1819,0.4246 0.7884,2.64702 1.77807,6.66783zM194.48758,37.15261h0.12159c1.69704,-1.11126 2.54576,-1.83886 2.54576,-2.18234l0.26254,-2.16172c-0.32334,0 -1.7376,-0.12111 -4.22295,-0.38404c0,0.14134 0.4245,1.71766 1.29306,4.72809z" fill="#ffffff" stroke="none" stroke-width="0.44952" stroke-linecap="butt"/></g></g></svg>