<svg version="1.1" xmlns="http://www.w3.org/2000/svg" xmlns:xlink="http://www.w3.org/1999/xlink" width="146.858" height="104.97908" viewBox="0,0,146.858,104.97908"><defs><linearGradient x1="168.22089" y1="130.26046" x2="168.22089" y2="218.75653" gradientUnits="userSpaceOnUse" id="color-1"><stop offset="0" stop-color="#b2b2b2"/><stop offset="1" stop-color="#7f7f7f"/></linearGradient></defs><g transform="translate(-166.57596,-128.76046)"><g data-paper-data="{&quot;isPaintingLayer&quot;:true}" fill-rule="nonzero" stroke-linejoin="miter" stroke-miterlimit="10" stroke-dasharray="" stroke-dashoffset="0" style="mix-blend-mode: normal"><path d="M168.22089,130.26046h143.55822l-7.5557,76.78476l-11.71133,11.71133h-105.40196l-11.80577,-11.80577z" fill="url(#color-1)" stroke="#969696" stroke-width="3" stroke-linecap="round"/><path d="M271.24353,211.74541c2.48206,0 4.73204,1.00767 6.35957,2.63758c1.62993,1.62753 2.63758,3.87734 2.63758,6.3594c0,2.48206 -1.00767,4.73204 -2.63758,6.35957c-1.62753,1.62993 -3.87751,2.63758 -6.35957,2.63758c-2.48206,0 -4.73187,-1.00767 -6.3594,-2.63758c-1.62993,-1.62753 -2.63758,-3.87751 -2.63758,-6.35957c0,-2.48206 1.00767,-4.73187 2.63758,-6.3594c1.62753,-1.62993 3.87734,-2.63758 6.3594,-2.63758z" fill="#969696" stroke="#000000" stroke-width="8" stroke-linecap="butt"/><path d="M207.71594,211.4322c2.48206,0 4.73204,1.00765 6.35957,2.63758c1.62993,1.62753 2.63758,3.87734 2.63758,6.3594c0,2.48206 -1.00765,4.73204 -2.63758,6.35957c-1.62753,1.62993 -3.87751,2.63758 -6.35957,2.63758c-2.48206,0 -4.73187,-1.00765 -6.3594,-2.63758c-1.62993,-1.62753 -2.63758,-3.87751 -2.63758,-6.35957c0,-2.48206 1.00765,-4.73187 2.63758,-6.3594c1.62753,-1.62993 3.87734,-2.63758 6.3594,-2.63758z" fill="#969696" stroke="#000000" stroke-width="8" stroke-linecap="butt"/></g></g></svg>