<svg version="1.1" xmlns="http://www.w3.org/2000/svg" xmlns:xlink="http://www.w3.org/1999/xlink" width="518.01871" height="296.20871" viewBox="0,0,518.01871,296.20871"><defs><linearGradient x1="239.25901" y1="89.79671" x2="239.25901" y2="142.41207" gradientUnits="userSpaceOnUse" id="color-1"><stop offset="0" stop-color="#ff4040"/><stop offset="1" stop-color="#c33131"/></linearGradient><linearGradient x1="-20.13979" y1="107.33516" x2="71.8289" y2="107.33516" gradientUnits="userSpaceOnUse" id="color-2"><stop offset="0" stop-color="#c33131"/><stop offset="1" stop-color="#ff4040"/></linearGradient><linearGradient x1="405.91022" y1="107.33516" x2="497.87892" y2="107.33516" gradientUnits="userSpaceOnUse" id="color-3"><stop offset="0" stop-color="#c33131"/><stop offset="1" stop-color="#ff4040"/></linearGradient><linearGradient x1="-4.51918" y1="243.4775" x2="65.00001" y2="243.4775" gradientUnits="userSpaceOnUse" id="color-4"><stop offset="0" stop-color="#e2e2e2"/><stop offset="1" stop-color="#e2e2e2" stop-opacity="0"/></linearGradient><linearGradient x1="415.00002" y1="243.4775" x2="484.4635" y2="243.4775" gradientUnits="userSpaceOnUse" id="color-5"><stop offset="0" stop-color="#e2e2e2"/><stop offset="1" stop-color="#e2e2e2" stop-opacity="0"/></linearGradient><linearGradient x1="-89.40098" y1="308.00443" x2="-89.40098" y2="406.00444" gradientUnits="userSpaceOnUse" id="color-6"><stop offset="0" stop-color="#000000" stop-opacity="0"/><stop offset="1" stop-color="#000000"/></linearGradient></defs><g transform="translate(20.13979,-72.25817)"><g data-paper-data="{&quot;isPaintingLayer&quot;:true}" fill-rule="nonzero" stroke-linejoin="miter" stroke-miterlimit="10" stroke-dasharray="" stroke-dashoffset="0" style="mix-blend-mode: normal"><path d="M200.58969,130l0.34823,0.3" fill="none" stroke="#cccccc" stroke-width="2" stroke-linecap="round"/><path d="M375.05375,132.30003l-0.34823,-0.3" fill="none" stroke="#cccccc" stroke-width="2" stroke-linecap="round"/><path d="M287.84375,210.4775l0.34823,0.3" fill="none" stroke="#cccccc" stroke-width="2" stroke-linecap="round"/><path d="M139.41699,159.77749l-0.34823,-0.3" fill="none" stroke="#cccccc" stroke-width="2" stroke-linecap="round"/><path d="M55.84138,141.30003l-0.34823,-0.3" fill="none" stroke="#cccccc" stroke-width="2" stroke-linecap="round"/><path d="M69.42243,220.47752l0.34823,0.3" fill="none" stroke="#cccccc" stroke-width="2" stroke-linecap="round"/><path d="M139.26488,285.47749l0.34823,0.3" fill="none" stroke="#cccccc" stroke-width="2" stroke-linecap="round"/><path d="M220.51896,250.47751l0.34823,0.3" fill="none" stroke="#cccccc" stroke-width="2" stroke-linecap="round"/><path d="M308.73765,289.47749l0.34823,0.3" fill="none" stroke="#cccccc" stroke-width="2" stroke-linecap="round"/><path d="M390.95633,268.47749l0.34823,0.3" fill="none" stroke="#cccccc" stroke-width="2" stroke-linecap="round"/><path d="M467.5673,276.47749l0.34823,0.3" fill="none" stroke="#cccccc" stroke-width="2" stroke-linecap="round"/><path d="M433.90491,187.4775l0.34823,0.3" fill="none" stroke="#cccccc" stroke-width="2" stroke-linecap="round"/><path d="M362.28526,185.77751l-0.34823,-0.3" fill="none" stroke="#cccccc" stroke-width="2" stroke-linecap="round"/><path d="M297.28202,138.77749l-0.34823,-0.3" fill="none" stroke="#cccccc" stroke-width="2" stroke-linecap="round"/><path d="M192.46428,164.4775l0.34823,0.3" fill="none" stroke="#cccccc" stroke-width="2" stroke-linecap="round"/><path d="M48.52853,192.4775l0.34823,0.3" fill="none" stroke="#cccccc" stroke-width="2" stroke-linecap="round"/><path d="M144.2562,239.77752l-0.34823,-0.3" fill="none" stroke="#cccccc" stroke-width="2" stroke-linecap="round"/><path d="M380.85762,227.77752l-0.34823,-0.3" fill="none" stroke="#cccccc" stroke-width="2" stroke-linecap="round"/><path d="M-1.71216,142.41207h481.13975v205.957h-481.13975z" fill="#ebf2f7" stroke="none" stroke-width="9.46438" stroke-linecap="butt"/><path d="M38.81449,119.02741l87.2523,-29.2307h58.9543h117.9086l56.5961,1.9487l84.8942,25.3333l9.4326,25.3334h-429.1872z" data-paper-data="{&quot;origPos&quot;:null}" fill="url(#color-1)" stroke="none" stroke-width="2.16315" stroke-linecap="round"/><path d="M-20.13979,142.41207l44.8052,-70.1539l47.1635,70.1539z" data-paper-data="{&quot;origPos&quot;:null}" fill="url(#color-2)" stroke="none" stroke-width="2.16315" stroke-linecap="round"/><path d="M405.91022,142.41207l44.8052,-70.1539l47.1635,70.1539z" data-paper-data="{&quot;origPos&quot;:null}" fill="url(#color-3)" stroke="none" stroke-width="2.16315" stroke-linecap="round"/><path d="M-4.51918,344.47751v-202h69.5192v202z" data-paper-data="{&quot;origPos&quot;:null}" fill="url(#color-4)" stroke="none" stroke-width="0" stroke-linecap="butt"/><path d="M415.00002,344.47751v-202h69.46348v202z" data-paper-data="{&quot;origPos&quot;:null}" fill="url(#color-5)" stroke="none" stroke-width="0" stroke-linecap="butt"/><g data-paper-data="{&quot;origPos&quot;:null}" fill="#99ffff" stroke="#84c3c3" stroke-width="2" stroke-linecap="butt"><path d="M7.99999,197.48199h16v16h-16z"/><path d="M29.49999,197.48199h16v16h-16z"/><path d="M28.99999,219.48199h16v16h-16z"/><path d="M7.99999,219.48199h16v16h-16z"/></g><g data-paper-data="{&quot;origPos&quot;:null}" fill="#99ffff" stroke="#84c3c3" stroke-width="2" stroke-linecap="butt"><path d="M436,194.48199h16v16h-16z"/><path d="M457.5,194.48199h16v16h-16z"/><path d="M457,216.48199h16v16h-16z"/><path d="M436,216.48199h16v16h-16z"/></g><g fill="#99ffff" stroke="#84c3c3" stroke-width="2" stroke-linecap="butt"><path d="M114.99098,230.49101h16v16h-16z"/><path d="M136.49098,230.49101h16v16h-16z"/><path d="M135.99098,252.49101h16v16h-16z"/><path d="M114.99098,252.49101h16v16h-16z"/></g><g fill="#99ffff" stroke="#84c3c3" stroke-width="2" stroke-linecap="butt"><path d="M324.49099,232.99101h16v16h-16z"/><path d="M345.99099,232.99101h16v16h-16z"/><path d="M345.49099,254.99101h16v16h-16z"/><path d="M324.49099,254.99101h16v16h-16z"/></g><g fill="#99ffff" stroke="#84c3c3" stroke-width="2" stroke-linecap="butt"><path d="M114.99098,162.48199h16v16h-16z"/><path d="M136.49098,162.48199h16v16h-16z"/><path d="M135.99098,184.48199h16v16h-16z"/><path d="M114.99098,184.48199h16v16h-16z"/></g><g fill="#99ffff" stroke="#84c3c3" stroke-width="2" stroke-linecap="butt"><path d="M324.49099,164.98199h16v16h-16z"/><path d="M345.99099,164.98199h16v16h-16z"/><path d="M345.49099,186.98199h16v16h-16z"/><path d="M324.49099,186.98199h16v16h-16z"/></g><path d="M38,197.66012h28v149.74598h-28z" fill="#aa5e35" stroke="none" stroke-width="1.78564" stroke-linecap="butt"/><path d="M231.00001,198.59809h28v152.55372h-28z" fill="#aa5e35" stroke="none" stroke-width="1.81391" stroke-linecap="butt"/><path d="M412.00001,198.57974h28v148.81007h-28z" fill="#aa5e35" stroke="none" stroke-width="1.77623" stroke-linecap="butt"/><path d="M426.00001,163.97751c11.036,0 21.036,4.482 28.277,11.723c7.241,7.241 11.723,17.241 11.723,28.277c0,11.036 -4.482,21.036 -11.723,28.277c-7.241,7.241 -17.241,11.723 -28.277,11.723c-11.036,0 -21.036,-4.482 -28.277,-11.723c-7.241,-7.241 -11.723,-17.241 -11.723,-28.277c0,-11.036 4.482,-21.036 11.723,-28.277c7.241,-7.241 17.241,-11.723 28.277,-11.723z" data-paper-data="{&quot;origPos&quot;:null}" fill="#3abc3a" stroke="none" stroke-width="1" stroke-linecap="butt"/><path d="M426.00001,125.97748c9.104,0 17.354,3.698 23.328,9.672c5.974,5.974 9.672,14.224 9.672,23.328c0,9.104 -3.698,17.354 -9.672,23.328c-5.974,5.974 -14.224,9.672 -23.328,9.672c-9.104,0 -17.354,-3.698 -23.328,-9.672c-5.974,-5.974 -9.672,-14.224 -9.672,-23.328c0,-9.104 3.698,-17.354 9.672,-23.328c5.974,-5.974 14.224,-9.672 23.328,-9.672z" fill="#3ec73d" stroke="none" stroke-width="1" stroke-linecap="butt"/><path d="M426.50001,99.9775c5.38,0 10.255,2.185 13.785,5.715c3.53,3.53 5.715,8.405 5.715,13.785c0,5.38 -2.185,10.255 -5.715,13.785c-3.53,3.53 -8.405,5.715 -13.785,5.715c-5.38,0 -10.255,-2.185 -13.785,-5.715c-3.53,-3.53 -5.715,-8.405 -5.715,-13.785c0,-5.38 2.185,-10.255 5.715,-13.785c3.53,-3.53 8.405,-5.715 13.785,-5.715z" fill="#42d642" stroke="none" stroke-width="1" stroke-linecap="butt"/><path d="M52,162.97751c11.036,0 21.036,4.482 28.277,11.723c7.241,7.241 11.723,17.241 11.723,28.277c0,11.036 -4.482,21.036 -11.723,28.277c-7.241,7.241 -17.241,11.723 -28.277,11.723c-11.036,0 -21.036,-4.482 -28.277,-11.723c-7.241,-7.241 -11.723,-17.241 -11.723,-28.277c0,-11.036 4.482,-21.036 11.723,-28.277c7.241,-7.241 17.241,-11.723 28.277,-11.723z" fill="#3abc3a" stroke="none" stroke-width="1" stroke-linecap="butt"/><path d="M52,124.97748c9.104,0 17.354,3.698 23.328,9.672c5.974,5.974 9.672,14.224 9.672,23.328c0,9.104 -3.698,17.354 -9.672,23.328c-5.974,5.974 -14.224,9.672 -23.328,9.672c-9.104,0 -17.354,-3.698 -23.328,-9.672c-5.974,-5.974 -9.672,-14.224 -9.672,-23.328c0,-9.104 3.698,-17.354 9.672,-23.328c5.974,-5.974 14.224,-9.672 23.328,-9.672z" fill="#3ec73d" stroke="none" stroke-width="1" stroke-linecap="butt"/><path d="M52.5,98.9775c5.38,0 10.255,2.185 13.785,5.715c3.53,3.53 5.715,8.405 5.715,13.785c0,5.38 -2.185,10.255 -5.715,13.785c-3.53,3.53 -8.405,5.715 -13.785,5.715c-5.38,0 -10.255,-2.185 -13.785,-5.715c-3.53,-3.53 -5.715,-8.405 -5.715,-13.785c0,-5.38 2.185,-10.255 5.715,-13.785c3.53,-3.53 8.405,-5.715 13.785,-5.715z" fill="#42d642" stroke="none" stroke-width="1" stroke-linecap="butt"/><path d="M245.00001,163.97751c11.036,0 21.036,4.482 28.277,11.723c7.241,7.241 11.723,17.241 11.723,28.277c0,11.036 -4.482,21.036 -11.723,28.277c-7.241,7.241 -17.241,11.723 -28.277,11.723c-11.036,0 -21.036,-4.482 -28.277,-11.723c-7.241,-7.241 -11.723,-17.241 -11.723,-28.277c0,-11.036 4.482,-21.036 11.723,-28.277c7.241,-7.241 17.241,-11.723 28.277,-11.723z" fill="#3abc3a" stroke="none" stroke-width="1" stroke-linecap="butt"/><path d="M245.00001,125.97748c9.104,0 17.354,3.698 23.328,9.672c5.974,5.974 9.672,14.224 9.672,23.328c0,9.104 -3.698,17.354 -9.672,23.328c-5.974,5.974 -14.224,9.672 -23.328,9.672c-9.104,0 -17.354,-3.698 -23.328,-9.672c-5.974,-5.974 -9.672,-14.224 -9.672,-23.328c0,-9.104 3.698,-17.354 9.672,-23.328c5.974,-5.974 14.224,-9.672 23.328,-9.672z" fill="#3ec73d" stroke="none" stroke-width="1" stroke-linecap="butt"/><path d="M245.50001,99.9775c5.38,0 10.255,2.185 13.785,5.715c3.53,3.53 5.715,8.405 5.715,13.785c0,5.38 -2.185,10.255 -5.715,13.785c-3.53,3.53 -8.405,5.715 -13.785,5.715c-5.38,0 -10.255,-2.185 -13.785,-5.715c-3.53,-3.53 -5.715,-8.405 -5.715,-13.785c0,-5.38 2.185,-10.255 5.715,-13.785c3.53,-3.53 8.405,-5.715 13.785,-5.715z" fill="#42d642" stroke="none" stroke-width="1" stroke-linecap="butt"/><path d="M-4.87468,308.00443h490.88069c0,20.15416 0,40.30831 0,60.46246l-493.51352,-1.49689c0,0 2.43922,-52.27911 2.63283,-58.96557z" data-paper-data="{&quot;origPos&quot;:null}" fill="url(#color-6)" stroke="none" stroke-width="1.22826" stroke-linecap="butt"/></g></g></svg>