<svg version="1.1" xmlns="http://www.w3.org/2000/svg" xmlns:xlink="http://www.w3.org/1999/xlink" width="682.24214" height="376.00494" viewBox="0,0,682.24214,376.00494"><defs><linearGradient x1="-82.57822" y1="181.40799" x2="485.09322" y2="181.40799" gradientUnits="userSpaceOnUse" id="color-1"><stop offset="0" stop-color="#0d0d0d"/><stop offset="1" stop-color="#0d0d0d" stop-opacity="0"/></linearGradient></defs><g transform="translate(96.90671,6.59448)"><g data-paper-data="{&quot;isPaintingLayer&quot;:true}" fill-rule="nonzero" stroke="none" stroke-width="0" stroke-linecap="butt" stroke-linejoin="miter" stroke-miterlimit="10" stroke-dasharray="" stroke-dashoffset="0" style="mix-blend-mode: normal"><g data-paper-data="{&quot;index&quot;:null}"><path d="M106.22159,73.67474v-78.76951h192.72952v78.76951z" data-paper-data="{&quot;index&quot;:null}" fill="#1f2740"/><path d="M404.31165,59.78293v57.22326h-165.38781v-57.22326z" data-paper-data="{&quot;index&quot;:null}" fill="#0c101a"/><path d="M44.90557,243.64537v-128.00344h207.05539v128.00343z" data-paper-data="{&quot;index&quot;:null}" fill="#1f2740"/><path d="M240.60085,366.05845v-253.5229h338.76691v253.52296z" data-paper-data="{&quot;index&quot;:null}" fill="#0c101a"/><path d="M493.06383,104.80339v66.09092h-144.00458v-66.09093z" data-paper-data="{&quot;index&quot;:null}" fill="#0c101a"/><path d="M584.0582,104.80339v126.80034h-138.81887v-126.80034z" data-paper-data="{&quot;index&quot;:null}" fill="#0c101a"/><path d="M-93.15436,236.45414v-131.04413h145.48784v131.04413z" data-paper-data="{&quot;index&quot;:null}" fill="#0c101a"/><path d="M240.60087,56.37227v67.11675h-336.56949v-67.11674z" data-paper-data="{&quot;index&quot;:null}" fill="#1f2740"/><path d="M-89.40202,366.05851v-42.36747h330.00289v42.36746z" data-paper-data="{&quot;index&quot;:null}" fill="#1f2740"/><path d="M-96.90671,59.78293v-64.8777h203.12832v64.8777z" data-paper-data="{&quot;index&quot;:null}" fill="#0c101a"/><path d="M295.24664,63.19357v-68.28834h107.01862v68.28834z" data-paper-data="{&quot;index&quot;:null}" fill="#0c101a"/><path d="M317.27739,236.45413v88.60116h-271.00757v-88.60115z" data-paper-data="{&quot;index&quot;:null}" fill="#1f2740"/><path d="M445.23933,327.17719v-97.42531h136.00461v97.42532z" data-paper-data="{&quot;index&quot;:null}" fill="#1f2740"/><path d="M52.33347,233.72562v90.64755h-144.54975v-90.64754z" data-paper-data="{&quot;index&quot;:null}" fill="#0c101a"/><path d="M585.33543,-3.655v120.66119h-183.7523v-120.66119z" data-paper-data="{&quot;index&quot;:null}" fill="#1f2740"/></g><path d="M-82.57822,369.41046v-376.00494h567.67144v376.00494z" fill="url(#color-1)"/></g></g></svg>