<svg version="1.1" xmlns="http://www.w3.org/2000/svg" xmlns:xlink="http://www.w3.org/1999/xlink" width="452.73276" height="374.233" viewBox="0,0,452.73276,374.233"><defs><linearGradient x1="205.2464" y1="231.81455" x2="205.81298" y2="360.18805" gradientUnits="userSpaceOnUse" id="color-1"><stop offset="0" stop-color="#935f0a"/><stop offset="1" stop-color="#de7b19"/></linearGradient></defs><g transform="translate(23.24007,-81.00005)"><g data-paper-data="{&quot;isPaintingLayer&quot;:true}" fill-rule="nonzero" stroke-width="0" stroke-linecap="butt" stroke-linejoin="miter" stroke-miterlimit="10" stroke-dasharray="" stroke-dashoffset="0" style="mix-blend-mode: normal"><path d="M-23.00556,336.46452c-0.0476,0.0889 -0.11935,0.16399 -0.20301,0.23171c-0.01043,-0.01399 -0.02093,-0.02795 -0.0315,-0.04186c0.16471,-0.16122 0.29477,-0.30241 0.23451,-0.18985z" data-paper-data="{&quot;origPos&quot;:null,&quot;index&quot;:null}" fill="url(#color-1)" stroke="#372403"/><path d="M202.49561,375.13295h-136.26563v-105.1h136.26563z" data-paper-data="{&quot;origPos&quot;:null,&quot;index&quot;:null}" fill="#000000" stroke="#964f17"/><path d="M380.73037,455.23306h-33.86781v-222.42081h33.86782z" data-paper-data="{&quot;origPos&quot;:null,&quot;index&quot;:null}" fill="#000000" stroke="#964f17"/><path d="M364.12979,346.33001l-8.60592,20.75257l-59.71211,-36.84379l8.60592,-20.75257z" data-paper-data="{&quot;origPos&quot;:null,&quot;index&quot;:null,&quot;origRot&quot;:0}" fill="#000000" stroke="#964f17"/><path d="M419.1686,252.96287l10.32409,19.56135l-56.4852,43.71593l-10.32409,-19.56135z" data-paper-data="{&quot;origPos&quot;:null,&quot;index&quot;:null,&quot;origRot&quot;:0}" fill="#000000" stroke="#964f17"/><path d="M107,123.00006v-35h105v35z" data-paper-data="{&quot;origPos&quot;:null}" fill="#000000" stroke="none"/><path d="M307,116.00006v-35h105v35z" data-paper-data="{&quot;origPos&quot;:null}" fill="#000000" stroke="none"/></g></g></svg>