<svg version="1.1" xmlns="http://www.w3.org/2000/svg" xmlns:xlink="http://www.w3.org/1999/xlink" width="28.55335" height="28.55335" viewBox="0,0,28.55335,28.55335"><defs><radialGradient cx="240" cy="180" r="14.27668" gradientUnits="userSpaceOnUse" id="color-1"><stop offset="0" stop-color="#ffec6d"/><stop offset="1" stop-color="#ffec6d" stop-opacity="0"/></radialGradient><radialGradient cx="240" cy="180" r="14.27668" gradientUnits="userSpaceOnUse" id="color-2"><stop offset="0" stop-color="#ffffff"/><stop offset="1" stop-color="#ffffff" stop-opacity="0"/></radialGradient></defs><g transform="translate(-225.72332,-165.72332)"><g data-paper-data="{&quot;isPaintingLayer&quot;:true}" fill-rule="nonzero" stroke="none" stroke-width="0" stroke-linecap="butt" stroke-linejoin="miter" stroke-miterlimit="10" stroke-dasharray="" stroke-dashoffset="0" style="mix-blend-mode: normal"><path d="M225.72333,179.89298c0,0 7.92167,-1.58834 10.2896,-3.95627c2.35522,-2.35522 3.88005,-10.21339 3.88005,-10.21339c0,0 1.74802,7.91469 4.13591,10.30258c2.40653,2.40653 10.24779,4.08112 10.24779,4.08112c0,0 -7.93594,1.68594 -10.25505,4.00505c-2.40124,2.40124 -3.9146,10.1646 -3.9146,10.1646c0,0 -1.74441,-7.82775 -4.16446,-10.24779c-2.37363,-2.37363 -10.21924,-4.13591 -10.21924,-4.13591z" fill="url(#color-1)"/><path d="M225.72333,179.89298c0,0 7.92167,-1.58834 10.2896,-3.95627c2.35522,-2.35522 3.88005,-10.21339 3.88005,-10.21339c0,0 1.74802,7.91469 4.13591,10.30258c2.40653,2.40653 10.24779,4.08112 10.24779,4.08112c0,0 -7.93594,1.68594 -10.25505,4.00505c-2.40124,2.40124 -3.9146,10.1646 -3.9146,10.1646c0,0 -1.74441,-7.82775 -4.16446,-10.24779c-2.37363,-2.37363 -10.21924,-4.13591 -10.21924,-4.13591z" fill="url(#color-2)"/></g></g></svg>