<svg version="1.1" xmlns="http://www.w3.org/2000/svg" xmlns:xlink="http://www.w3.org/1999/xlink" width="682.24214" height="371.15328" viewBox="0,0,682.24214,371.15328"><g transform="translate(96.90671,5.09477)"><g data-paper-data="{&quot;isPaintingLayer&quot;:true}" fill-rule="nonzero" stroke="none" stroke-width="0" stroke-linecap="butt" stroke-linejoin="miter" stroke-miterlimit="10" stroke-dasharray="" stroke-dashoffset="0" style="mix-blend-mode: normal"><path d="M382.20713,287.289v78.76951h-192.72952v-78.76951z" data-paper-data="{&quot;index&quot;:null}" fill="#1f2740"/><path d="M84.11707,301.18081v-57.22326h165.38781v57.22326z" data-paper-data="{&quot;index&quot;:null}" fill="#0c101a"/><path d="M443.52315,117.31837v128.00344h-207.05539v-128.00343z" data-paper-data="{&quot;index&quot;:null}" fill="#1f2740"/><path d="M247.82787,-5.09471v253.5229h-338.76691v-253.52296z" data-paper-data="{&quot;index&quot;:null}" fill="#0c101a"/><path d="M-4.63511,256.16035v-66.09092h144.00458v66.09093z" data-paper-data="{&quot;index&quot;:null}" fill="#0c101a"/><path d="M-95.62948,256.16035v-126.80034h138.81887v126.80034z" data-paper-data="{&quot;index&quot;:null}" fill="#0c101a"/><path d="M581.58308,124.5096v131.04413h-145.48784v-131.04413z" data-paper-data="{&quot;index&quot;:null}" fill="#0c101a"/><path d="M247.82785,304.59147v-67.11675h336.56949v67.11674z" data-paper-data="{&quot;index&quot;:null}" fill="#1f2740"/><path d="M577.83074,-5.09477v42.36747h-330.00289v-42.36746z" data-paper-data="{&quot;index&quot;:null}" fill="#1f2740"/><path d="M585.33543,301.18081v64.8777h-203.12832v-64.8777z" data-paper-data="{&quot;index&quot;:null}" fill="#0c101a"/><path d="M193.18208,297.77017v68.28834h-107.01862v-68.28834z" data-paper-data="{&quot;index&quot;:null}" fill="#0c101a"/><path d="M171.15133,124.50961v-88.60116h271.00757v88.60115z" data-paper-data="{&quot;index&quot;:null}" fill="#1f2740"/><path d="M43.18939,33.78655v97.42531h-136.00461v-97.42532z" data-paper-data="{&quot;index&quot;:null}" fill="#1f2740"/><path d="M436.09525,127.23812v-90.64755h144.54975v90.64754z" data-paper-data="{&quot;index&quot;:null}" fill="#0c101a"/><path d="M-96.90671,364.61874v-120.66119h183.7523v120.66119z" data-paper-data="{&quot;index&quot;:null}" fill="#1f2740"/></g></g></svg>