<svg version="1.1" xmlns="http://www.w3.org/2000/svg" xmlns:xlink="http://www.w3.org/1999/xlink" width="615" height="200" viewBox="0,0,615,200"><defs><linearGradient x1="239.87238" y1="303.33833" x2="239.87238" y2="320.62033" gradientUnits="userSpaceOnUse" id="color-1"><stop offset="0" stop-color="#ffffff"/><stop offset="1" stop-color="#e0e0e0"/></linearGradient><linearGradient x1="239.87238" y1="303.33833" x2="239.87238" y2="320.62034" gradientUnits="userSpaceOnUse" id="color-2"><stop offset="0" stop-color="#ffffff"/><stop offset="1" stop-color="#d5dee8"/></linearGradient></defs><g transform="translate(72.5,-188)"><g data-paper-data="{&quot;isPaintingLayer&quot;:true}" fill-rule="nonzero" stroke-linecap="butt" stroke-linejoin="miter" stroke-dasharray="" stroke-dashoffset="0" style="mix-blend-mode: normal"><path d="M74.73344,306.25048l3.47116,1.43692l-1.1108,2.36037h-0.04649l-2.18215,-0.97064l-1.84827,1.29675l0.27189,2.40756l2.32232,0.93188l1.66937,-1.57639l1.38973,2.22089v0.13947l-3.43242,1.85603l-4.40235,-1.5299l-1.39044,-4.58901l1.99549,-2.78016l3.29297,-1.20377zM78.35398,304.2307l4.55302,4.85166l-1.28043,7.36424l-7.02982,2.98468l-6.79198,-2.81301l-1.53258,-7.46259l5.32736,-5.64747l0.16095,-0.16989zM67.26649,309.43825l1.33586,6.51837l5.99081,2.48038l6.21794,-2.63775l1.1159,-6.42359l-4.01653,-4.28299l-5.80663,-0.78328zM411.51326,306.62102l1.95931,4.15375l-4.34967,3.72269l3.95791,-0.35268l-0.54861,3.52676l-7.994,-0.15673l-0.47024,-2.5863l1.21478,-1.13639l3.95781,-3.60515l-0.70535,-0.90128l-1.80258,1.92013l-2.93896,-2.39036l3.33082,-2.97817zM400.84478,306.62102l1.95931,4.15375l-4.34967,3.72269l3.95791,-0.35268l-0.54862,3.52676l-7.994,-0.15673l-0.47025,-2.5863l1.21478,-1.13639l3.95781,-3.60515l-0.70536,-0.90128l-1.80257,1.92013l-2.93898,-2.39036l3.33083,-2.97817zM392.05725,314.54645l-6.80862,0.2547l-0.38208,-2.89979l7.38661,-0.12736zM384.12203,308.45296l-2.39036,4.11457l-0.21553,4.80032l-0.07828,0.03919l-4.69258,-0.07838l-0.17631,-0.08817l2.51771,-8.0234l-4.98647,0.26451l0.7936,-3.78149l8.25852,-0.03919zM372.89513,306.30752v11.36403l-3.48767,-0.15674l-0.07009,-6.36475l-0.87038,0.526l-2.74305,-2.89979l3.84026,-2.93897zM358.26886,306.03321l4.05579,1.18539l1.92992,3.56595l-1.32254,4.14395l-1.59684,2.04749l-3.1251,0.64658l-3.50717,-2.04748l-0.38207,-7.06333l3.94801,-2.47853zM358.95464,309.2563l-1.7046,1.7242l0.21553,3.28186l1.09721,0.75433l1.37152,-0.42125l1.04824,-3.50717l-0.71516,-1.23436zM351.00961,306.62102l1.95931,4.15375l-4.34967,3.72269l3.95791,-0.35268l-0.54862,3.52676l-7.994,-0.15673l-0.47025,-2.5863l1.21478,-1.13639l3.95781,-3.60515l-0.70536,-0.90128l-1.80257,1.92013l-2.93898,-2.39036l3.33083,-2.97817zM337.34337,309.74611l-0.578,6.37757l-3.22305,0.71516l-0.19595,-5.02565l-1.08741,0.18613l0.1274,4.25172l0.05878,0.06858l-3.02714,0.64658l-0.77392,-4.77093l-1.22457,0.45064l0.39185,3.997l-3.22307,1.02864l-2.2532,-8.56221l3.80107,-0.84251l0.45064,2.05729h0.06867l2.38066,-2.05729l2.12594,1.47929l2.05727,-1.86135zM319.11195,308.87423l2.29241,2.10626l-1.05804,3.53656l1.05804,2.46874l-3.03695,0.62697l-0.5584,-0.74454l-4.51623,0.80332l-1.48908,-4.02639l3.28186,-1.73399l2.47853,0.12735l0.05878,-1.30293l-5.13341,0.24491l0.80331,-3.09571zM315.33047,313.64514l0.62698,2.2924h0.05878l1.23436,-1.05803l0.1274,-1.04824l-2.04747,-0.18614zM305.99435,307.89457l4.91788,2.66467l-0.75434,3.06632h-6.19143v0.10776l1.73399,2.14544l2.72345,-1.39111l1.156,2.42955l-5.14319,0.75434l-3.997,-2.72344l0.75433,-5.08443l4.80032,-1.96911zM305.35756,310.26534l-1.03842,1.55767l1.156,0.41146l1.6752,0.2841l0.46043,-0.74454l-0.63678,-0.8719zM299.05838,308.79583h-0.05878l-4.50642,-0.38207v8.68956l-1.84176,0.3135l-2.08666,0.2547l-0.06867,-0.12735l0.578,-9.18918l-4.56521,0.62697l-0.89148,-3.419l13.76417,-0.63678zM271.99037,313.68435l2.91937,-0.54861l0.75434,-3.80107l4.0068,0.88169l-2.31199,7.54337l-4.14396,2.8606l-4.69256,-1.22458l1.49888,-2.65486l2.98794,1.49887l1.43031,-2.44914l-2.24342,0.48004l-3.81087,-1.9789l0.8817,-6.38737h3.60515zM265.97535,309.57958l-2.48832,2.68426l3.99699,1.59684l-2.21401,2.73325l-2.8606,-2.40017l-1.92992,3.47779l-3.05653,-1.22458l2.5863,-3.37983l-3.85985,-1.74378l1.78297,-2.8704l3.48758,2.40017l1.69481,-2.96836zM247.10715,307.88477l5.81917,0.98946l2.2924,2.10626l-1.05804,3.53656l1.05804,2.46874l-3.03694,0.62697l-0.5584,-0.74454l-4.51622,0.80332l-1.48908,-4.02639l3.28186,-1.73399l2.47853,0.12735l0.05878,-1.30293l-5.07463,0.37227l-0.05878,-0.12736l0.80333,-3.09571zM249.14484,313.64514l0.62697,2.2924h0.05878l1.23438,-1.05803l0.12735,-1.04824l-2.04749,-0.18614zM239.33847,304.936l4.39866,0.05878l0.77394,12.03019l-3.48758,0.64658l-0.96986,-7.36702zM236.11541,308.87423l2.29239,2.10626l-1.05803,3.53656l1.05803,2.46874l-3.03693,0.62697l-0.5584,-0.74454l-4.51623,0.80332l-1.48907,-4.02639l3.28186,-1.73399l2.47853,0.12735l0.05878,-1.30293l-5.13341,0.24491l0.80332,-3.09571zM232.33393,313.64514l0.62697,2.2924h0.05878l1.23438,-1.05803l0.12735,-1.04824l-2.04749,-0.18614zM225.64287,307.88477l2.38056,1.4107l-1.77318,3.36022l-1.4009,-1.22457l-1.65563,2.01809l0.18614,3.67371l-3.24267,0.54861l-1.52827,-8.25851l4.09497,-0.60738l0.37227,1.83196zM216.15977,308.96239l-0.95027,2.78222h-0.05878l-2.37078,-0.76413l-1.18538,2.12586l1.95932,1.90054l2.31199,-2.13565l1.77318,2.60588l-3.37982,2.19444l-5.03544,-1.12661l-1.53806,-4.97666l3.85006,-3.67371zM205.85378,306.70916l-1.46947,2.83121h-0.06858l-3.37983,-1.59683l-1.107,1.47928l6.8282,3.4484l-2.58629,4.31049l-5.53506,0.48982l-4.0068,-2.71364l1.66541,-2.51772l3.81088,2.08667l1.29315,-1.46949l-6.52452,-3.38961v-0.05878l2.03769,-3.69331l5.41751,-0.98946zM190.25166,307.05012l-7.36702,10.95451l-3.26623,-0.56626l7.28865,-10.64101zM173.58018,309.10934l2.3022,3.34063l-1.51848,4.19293l-4.61418,1.02864l-3.87945,-2.37077l-0.18613,-4.54562l3.94802,-2.86059zM169.44601,311.48011l-0.17635,2.8508l2.18463,0.48982l0.78373,-2.61568l-2.79203,-0.78372v0.05878zM158.92451,304.91641l4.42805,0.578l1.30293,11.53058l-3.9676,0.51921v-1.04823l-4.62399,1.17559l-3.12511,-4.48682l2.34139,-4.03619l4.10476,0.19594l-0.51923,-4.42805zM157.04357,311.94055l1.23436,3.32104l1.94952,-1.69481l-0.45064,-1.75359h-2.60589l-0.12735,0.12735zM151.95916,310.12819l-0.48004,6.52452l-3.4582,0.20573l-0.06858,-0.13716l-0.34288,-5.23138l-0.13716,-0.06858l-2.5765,0.60739l0.19593,4.82971l-3.19368,0.81311l-1.90054,-8.83651l4.48684,-0.5388v0.06858l0.20573,2.03769l4.0068,-2.51772zM139.10604,310.55924l-0.75434,3.06632h-6.19143v0.10776l1.73399,2.14544l2.72345,-1.39111l1.156,2.42955l-5.1432,0.75434l-3.997,-2.72344l0.75434,-5.08443l4.80032,-1.96911zM133.55139,310.26534l-1.03843,1.55767l1.156,0.41146l1.6752,0.2841l0.46044,-0.74454l-0.63678,-0.8719zM125.31247,305.69033l-0.41146,3.27205h2.71366l-0.48983,3.27206l-2.64507,-0.13715l-0.20573,5.50568l-0.13716,0.06858l-3.76189,-0.35268l0.06858,-0.2743l0.27431,-5.29015l-2.64507,-0.35268l0.35268,-3.27207l2.5765,0.37982l-0.07838,-3.51472zM117.09316,310.12819l-0.48004,6.52452l-3.45819,0.20573l-0.06858,-0.13716l-0.48004,-5.29996l-2.5765,0.60739l0.19593,4.82971l-3.19368,0.81311l-1.90054,-8.83651l4.48683,-0.5388v0.06858l0.20573,2.03769l4.0068,-2.51772zM100.97778,303.95635l3.85006,0.60738l-0.95027,2.77244l-3.03694,-0.40165v-2.84102l0.13716,-0.13716zM99.90017,308.61952h0.05879l4.46723,0.95027l-1.55765,8.10176h-3.10552l-0.13716,-0.13715zM85.4796,306.66999l4.18315,-0.77392l3.39488,4.30143l0.23964,-4.93821l4.85911,0.12735l-0.53881,11.09951l-3.10551,1.02864l-4.44765,-5.7408l0.94048,5.86815l-4.18314,-0.25471z" fill="url(#color-1)" stroke-opacity="0.50588" stroke="#000000" stroke-width="3.5" stroke-miterlimit="4"/><path d="M74.73344,306.25049l3.47116,1.43692l-1.1108,2.36037h-0.04649l-2.18215,-0.97064l-1.84827,1.29675l0.27189,2.40756l2.32232,0.93188l1.66937,-1.57639l1.38973,2.22089v0.13947l-3.43242,1.85603l-4.40235,-1.5299l-1.39044,-4.58901l1.99549,-2.78016l3.29297,-1.20377zM78.35398,304.2307l4.55302,4.85166l-1.28043,7.36424l-7.02982,2.98468l-6.79198,-2.81301l-1.53258,-7.46259l5.32736,-5.64747l0.16095,-0.16989zM67.26649,309.43825l1.33586,6.51837l5.99081,2.48038l6.21794,-2.63775l1.1159,-6.42359l-4.01653,-4.28299l-5.80663,-0.78328zM407.12439,305.83729l4.38888,0.78373l1.95931,4.15375l-4.34967,3.72269l3.91863,-0.43105l0.03928,0.07838l-0.54861,3.52676l-7.994,-0.15673l-0.47024,-2.5863l1.21478,-1.13639l3.95781,-3.60515l-0.70535,-0.90128l-1.80258,1.92013l-2.93896,-2.31198v-0.07838l3.09571,-2.78222l0.23511,-0.19594zM396.4559,305.83729l4.38888,0.78373l1.95931,4.15375l-4.34967,3.72269l3.91863,-0.43105l0.03928,0.07838l-0.54862,3.52676l-7.994,-0.15673l-0.47025,-2.5863l1.21478,-1.13639l3.95781,-3.60515l-0.70536,-0.90128l-1.80257,1.92013l-2.93898,-2.31198v-0.07838l3.09572,-2.78222l0.23511,-0.19594zM392.25318,311.77401l0.05878,0.12735l-0.05878,2.14545v0.3135l-0.19593,0.18614l-6.80862,0.2547l-0.44086,-2.84101l0.05878,-0.05878l5.04524,-0.06858h1.07762l1.26375,-0.05878zM384.12203,308.45297l-2.39036,4.11457l-0.29381,4.8395l-4.86889,-0.16655l2.51771,-8.0234l-4.98647,0.26451l0.7936,-3.78149l8.25852,-0.03919zM369.5643,305.83729l3.33083,0.47023l0.03928,11.20728v0.07838l-0.03928,0.07838l-3.44839,-0.11756l-0.03928,-0.03919l0.23511,-6.97516l-1.17558,1.1364l-2.74305,-2.89979l3.84026,-2.93897zM358.26886,306.03321l4.05579,1.18539l1.92992,3.56595l-1.32254,4.14395l-1.59684,2.04749l-3.1251,0.64658l-3.50717,-2.04748l-0.38207,-7.06333l3.94801,-2.47853zM358.95464,309.25629l-1.7046,1.7242l0.21553,3.28186l1.09721,0.75433l1.37152,-0.42125l1.04824,-3.50717l-0.71516,-1.23436zM346.62073,305.83729l4.38888,0.78373l1.95931,4.15375l-4.34967,3.72269l3.91863,-0.43105l0.03928,0.07838l-0.54862,3.52676l-7.994,-0.15673l-0.47025,-2.5863l1.21478,-1.13639l3.95781,-3.60515l-0.70536,-0.90128l-1.80257,1.92013l-2.93898,-2.31198v-0.07838l3.09572,-2.78222l0.23511,-0.19594zM333.21901,307.88476l4.12436,1.86134l-0.578,6.37757l-3.22305,0.71516l-0.19595,-5.02565l-1.08741,0.18613l0.1274,4.25172l0.05878,0.06858l-3.02714,0.64658l-0.77392,-4.77093l-1.22457,0.45064l0.39185,3.997l-3.22307,1.02864l-2.2532,-8.56221l3.80107,-0.84251l0.45064,2.05729h0.06867l2.31199,-2.05729h0.06867l2.05727,1.47929h0.06867l2.05727,-1.86135zM313.29279,307.88476l5.81916,0.98946l2.29241,2.10626l-1.05804,3.53656l1.05804,2.46874l-3.03695,0.62697l-0.5584,-0.74454l-4.51623,0.80332l-1.48908,-4.02639l3.28186,-1.73399l2.47853,0.12735l0.05878,-1.30293l-5.07462,0.37227l-0.05878,-0.12736l0.80331,-3.09571zM315.33047,313.64514l0.62698,2.2924h0.05878l1.23436,-1.05803l0.1274,-1.04824l-2.04747,-0.18614zM305.99435,307.89458l4.91788,2.66467l-0.75434,3.06632h-6.19143v0.10776l1.73399,2.14544l2.72345,-1.39111l1.156,2.42955l-5.14319,0.75434l-3.997,-2.72344l0.75433,-5.08443l4.80032,-1.96911zM305.35756,310.26535l-1.03842,1.55767l1.156,0.41146l1.6752,0.2841l0.46043,-0.74454l-0.63678,-0.8719zM299.38166,304.92621l0.05878,0.12736l-0.38207,3.74228h-0.05878l-4.50642,-0.38207v8.68956l-1.84176,0.3135l-2.08666,0.2547l-0.06867,-0.12735l0.578,-9.18918l-4.56521,0.62697l-0.89148,-3.419l13.76417,-0.63678zM272.87214,307.90437l0.13707,0.13716l-1.01884,5.64282l2.91937,-0.54861l0.75434,-3.80107l4.0068,0.88169l-2.31199,7.54337l-4.14396,2.8606l-4.69256,-1.156v-0.06858l1.49888,-2.65486l2.98794,1.49887l1.43031,-2.44914l-2.24342,0.48004l-3.81087,-1.9789l0.8817,-6.38737h3.60515zM263.11475,307.88476h0.03919l2.82141,1.60663v0.08817l-2.48832,2.68426l3.99699,1.59684l-2.21401,2.73325l-2.8606,-2.40017l-1.89073,3.47779h-0.03919l-3.05653,-1.17559v-0.04899l2.5863,-3.37983l-3.85985,-1.74378l1.78297,-2.8704l3.48758,2.40017l1.69481,-2.96836zM247.10715,307.88476l5.81917,0.98946l2.2924,2.10626l-1.05804,3.53656l1.05804,2.46874l-3.03694,0.62697l-0.5584,-0.74454l-4.51622,0.80332l-1.48908,-4.02639l3.28186,-1.73399l2.47853,0.12735l0.05878,-1.30293l-5.07463,0.37227l-0.05878,-0.12736l0.80333,-3.09571zM249.14484,313.64514l0.62697,2.2924h0.05878l1.23438,-1.05803l0.12735,-1.04824l-2.04749,-0.18614zM239.33847,304.93599l4.39866,0.05878l0.77394,12.03019l-3.48758,0.64658l-0.96986,-7.36702zM230.29623,307.88476l5.81918,0.98946l2.29239,2.10626l-1.05803,3.53656l1.05803,2.46874l-3.03693,0.62697l-0.5584,-0.74454l-4.51623,0.80332l-1.48907,-4.02639l3.28186,-1.73399l2.47853,0.12735l0.05878,-1.30293l-5.07462,0.37227l-0.05878,-0.12736l0.80332,-3.09571zM232.33393,313.64514l0.62697,2.2924h0.05878l1.23438,-1.05803l0.12735,-1.04824l-2.04749,-0.18614zM225.64287,307.88476l2.38056,1.4107l-1.7046,3.36022h-0.06858l-1.4009,-1.22457l-1.65563,2.01809l0.18614,3.67371l-3.24267,0.54861l-1.52827,-8.25851l4.09497,-0.60738l0.37227,1.83196zM211.53579,307.89458l4.62398,0.95027v0.11756l-0.95027,2.78222h-0.05878l-2.37078,-0.76413l-1.18538,2.12586l1.95932,1.90054l2.31199,-2.13565l1.77318,2.60588l-3.37982,2.19444l-5.03544,-1.12661l-1.53806,-4.97666l3.85006,-3.67371zM202.22906,304.92621l3.62472,1.78297l-1.46947,2.83121h-0.06858l-3.37983,-1.59683l-1.107,1.47928l6.8282,3.4484l-2.58629,4.31049l-5.53506,0.48982l-4.0068,-2.64507v-0.06858l1.53805,-2.51772h0.12735l3.81088,2.08667l1.29315,-1.46949l-6.52452,-3.38961v-0.05878l2.03769,-3.69331l5.41751,-0.98946zM190.25166,307.05013l-7.36702,10.95451l-3.26623,-0.56626l7.28865,-10.64101zM169.63217,307.89458l3.94802,1.21477l2.3022,3.34063l-1.51848,4.19293l-4.61418,1.02864l-3.87945,-2.37077l-0.12735,-4.36927l-0.05878,-0.17635l3.88924,-2.86059h0.05878zM169.44601,311.48012l-0.17635,2.8508l2.18463,0.48982l0.78373,-2.61568l-2.79203,-0.78372v0.05878zM158.86573,304.91641h0.05878l4.42805,0.578l1.30293,11.53058l-3.90882,0.64656l-0.05878,-0.12735v-1.04823l-4.62399,1.17559l-3.12511,-4.48682l2.34139,-4.03619l4.10476,0.19594l-0.51923,-4.42805zM157.04357,311.94056l1.23436,3.32104l1.94952,-1.69481l-0.45064,-1.75359h-2.60589l-0.12735,0.12735zM148.6969,307.88476l3.26226,2.24341l-0.48004,6.52452l-3.4582,0.20573l-0.06858,-0.13716l-0.34288,-5.23138l-0.13716,-0.06858l-2.5765,0.60739l0.19593,4.82971l-3.19368,0.81311l-1.90054,-8.83651l4.48684,-0.5388v0.06858l0.20573,2.03769l4.0068,-2.51772zM134.18816,307.89458l4.91789,2.66467l-0.75434,3.06632h-6.19143v0.10776l1.73399,2.14544l2.72345,-1.39111l1.156,2.42955l-5.1432,0.75434l-3.997,-2.72344l0.75434,-5.08443l4.80032,-1.96911zM133.55139,310.26535l-1.03843,1.55767l1.156,0.41146l1.6752,0.2841l0.46044,-0.74454l-0.63678,-0.8719zM121.00198,304.92621l4.31049,0.76413l-0.41146,3.27205l1.88094,-0.06858h0.62698l0.13716,-0.06858l0.06858,0.13716l-0.35268,3.35043l-0.13716,-0.07838l-2.64507,-0.13715l-0.20573,5.50568l-0.13716,0.06858l-3.76189,-0.35268l0.06858,-0.2743l0.27431,-5.29015l-2.64507,-0.35268l0.35268,-3.27207l2.5765,0.48984v-0.84251l-0.07838,-2.78223zM113.83089,307.88476l3.26226,2.24341l-0.48004,6.52452l-3.45819,0.20573l-0.06858,-0.13716l-0.34288,-5.23138l-0.13716,-0.06858l-2.5765,0.60739l0.19593,4.82971l-3.19368,0.81311l-1.90054,-8.83651l4.48683,-0.5388v0.06858l0.20573,2.03769l4.0068,-2.51772zM100.97778,303.95635l3.85006,0.60738l-0.95027,2.77244l-3.03694,-0.40165v-2.84102l0.13716,-0.13716zM99.90017,308.61951h0.05879l4.46723,0.95027l-1.55765,8.10176h-3.10552l-0.13716,-0.13715zM86.82173,317.38745l-1.34213,-10.71746l4.18315,-0.77392l4.31049,6.13266l-0.67597,-6.76943l4.85911,0.12735l-0.53881,11.09951l-3.10551,1.02864l-4.44765,-5.7408l0.94048,5.86815l-4.18314,-0.25471z" fill="url(#color-2)" stroke="none" stroke-width="0" stroke-miterlimit="4"/><path d="M-72.5,388v-200h615v200z" fill="none" stroke="none" stroke-width="none" stroke-miterlimit="10"/></g></g></svg>