<svg version="1.1" xmlns="http://www.w3.org/2000/svg" xmlns:xlink="http://www.w3.org/1999/xlink" width="146.858" height="104.97908" viewBox="0,0,146.858,104.97908"><defs><linearGradient x1="168.22089" y1="130.26046" x2="168.22089" y2="218.75653" gradientUnits="userSpaceOnUse" id="color-1"><stop offset="0" stop-color="#b2b2b2"/><stop offset="1" stop-color="#7f7f7f"/></linearGradient></defs><g transform="translate(-166.57596,-128.76046)"><g data-paper-data="{&quot;isPaintingLayer&quot;:true}" fill-rule="nonzero" stroke-linejoin="miter" stroke-miterlimit="10" stroke-dasharray="" stroke-dashoffset="0" style="mix-blend-mode: normal"><path d="M168.22089,130.26046h143.55822l-7.5557,76.78476l-11.71133,11.71133h-105.40196l-11.80577,-11.80577z" fill="url(#color-1)" stroke="#969696" stroke-width="3" stroke-linecap="round"/><path d="M271.24353,211.74541c2.48206,0 4.73204,1.00767 6.35957,2.63758c1.62993,1.62753 2.63758,3.87734 2.63758,6.3594c0,2.48206 -1.00767,4.73204 -2.63758,6.35957c-1.62753,1.62993 -3.87751,2.63758 -6.35957,2.63758c-2.48206,0 -4.73187,-1.00767 -6.3594,-2.63758c-1.62993,-1.62753 -2.63758,-3.87751 -2.63758,-6.35957c0,-2.48206 1.00767,-4.73187 2.63758,-6.3594c1.62753,-1.62993 3.87734,-2.63758 6.3594,-2.63758z" fill="#969696" stroke="#000000" stroke-width="8" stroke-linecap="butt"/><path d="M207.71594,211.4322c2.48206,0 4.73204,1.00765 6.35957,2.63758c1.62993,1.62753 2.63758,3.87734 2.63758,6.3594c0,2.48206 -1.00765,4.73204 -2.63758,6.35957c-1.62753,1.62993 -3.87751,2.63758 -6.35957,2.63758c-2.48206,0 -4.73187,-1.00765 -6.3594,-2.63758c-1.62993,-1.62753 -2.63758,-3.87751 -2.63758,-6.35957c0,-2.48206 1.00765,-4.73187 2.63758,-6.3594c1.62753,-1.62993 3.87734,-2.63758 6.3594,-2.63758z" fill="#969696" stroke="#000000" stroke-width="8" stroke-linecap="butt"/><path d="M218.37199,171.29144c0,-12.26298 9.94111,-22.20408 22.20408,-22.20408c12.26297,0 22.20407,9.94111 22.20407,22.20408c0,12.26298 -9.94111,22.20407 -22.20407,22.20407c-12.26297,0 -22.20408,-9.94111 -22.20408,-22.20407z" fill="#ffffff" stroke="#b0b0b0" stroke-width="2" stroke-linecap="butt"/><path d="M258.55049,159.41151l-2.70993,7.81985v0.15713c-1.12841,0.6942 -12.61031,6.69054 -23.04316,12.00125l9.13935,0.91413c5.67636,-3.05673 9.05305,-4.90504 10.13005,-5.54781h0.33709c2.72533,3.9766 4.088,6.20772 4.088,6.69336v0.17997c-0.38282,0.15713 -3.93088,2.49967 -10.64997,7.03046l-22.12291,-2.72548l0.53729,-10.03276c0,0 18.44176,-9.62185 23.42394,-12.0158l-8.21743,-1.07955c-5.77921,2.82818 -8.77308,4.24227 -8.98161,4.24227h-0.18283c-2.60535,-4.73934 -3.90519,-7.24757 -3.90519,-7.52468c0.17141,0 3.38525,-1.57977 9.63296,-4.73934c0.97129,0 22.52435,4.62701 22.52435,4.62701z" data-paper-data="{&quot;index&quot;:null}" fill="#b0b0b0" stroke="none" stroke-width="1" stroke-linecap="butt"/></g></g></svg>