<svg version="1.1" xmlns="http://www.w3.org/2000/svg" xmlns:xlink="http://www.w3.org/1999/xlink" width="115" height="115"><defs><linearGradient x1="201.44139" y1="156.726" x2="201.44139" y2="204.31802" gradientUnits="userSpaceOnUse" id="color-1"><stop offset="0" stop-color="#b2b2b2"/><stop offset="1" stop-color="#7f7f7f"/></linearGradient></defs><g transform="translate(-182.625,-121.625)"><g data-paper-data="{&quot;isPaintingLayer&quot;:true}" fill="none" fill-rule="nonzero" stroke="none" stroke-width="none" stroke-linecap="none" stroke-linejoin="miter" stroke-miterlimit="10" stroke-dasharray="" stroke-dashoffset="0" font-family="none" font-weight="none" font-size="none" text-anchor="none" style="mix-blend-mode: normal"><path d="M188.875,127.375h102v104.25h-102z" data-paper-data="{&quot;origPos&quot;:null}" id="ID0.037351823411881924" fill="#647fbb" stroke="none" stroke-width="1" stroke-linecap="butt"/><path d="M187.125,126.125h104.5v17.5h-104.5z" data-paper-data="{&quot;origPos&quot;:null}" id="ID0.00037402287125587463" fill="#33415f" stroke="none" stroke-width="1" stroke-linecap="butt"/><path d="M186.375,212.625h81.5v21h-81.5z" data-paper-data="{&quot;origPos&quot;:null}" id="ID0.8618657067418098" fill="#33415f" stroke="none" stroke-width="1" stroke-linecap="butt"/><path d="M267.625,212.625h25.75v2.5h-25.75z" data-paper-data="{&quot;origPos&quot;:null}" id="ID0.64888707222417" fill="#b2b2b2" stroke="none" stroke-width="1" stroke-linecap="butt"/><path d="M276.625,214.375h5.25v19.5h-5.25z" data-paper-data="{&quot;origPos&quot;:null}" id="ID0.6058069313876331" fill="#995900" stroke="none" stroke-width="1" stroke-linecap="butt"/><path d="M267.125,226.625h26.5v7h-26.5z" data-paper-data="{&quot;origPos&quot;:null}" id="ID0.9917108761146665" fill="#ff0000" stroke="none" stroke-width="1" stroke-linecap="butt"/><path d="M187.125,126.125h106v106h-106z" data-paper-data="{&quot;origPos&quot;:null}" id="ID0.5801267544738948" fill="none" stroke="#995900" stroke-width="9" stroke-linecap="butt"/><g data-paper-data="{&quot;origPos&quot;:null}"><path d="M201.44139,156.726h77.2037l-4.06336,41.29382l-6.2982,6.2982h-56.68377l-6.34899,-6.34899z" data-paper-data="{&quot;origPos&quot;:null}" id="ID0.9248404409736395" fill="url(#color-1)" stroke="#969696" stroke-width="1.5" stroke-linecap="round"/><path d="M256.8456,200.5475c1.33482,0 2.54483,0.54191 3.42009,1.41846c0.87655,0.87526 1.41846,2.08518 1.41846,3.42c0,1.33482 -0.54191,2.54483 -1.41846,3.42009c-0.87526,0.87655 -2.08527,1.41846 -3.42009,1.41846c-1.33482,0 -2.54474,-0.54191 -3.42,-1.41846c-0.87655,-0.87526 -1.41846,-2.08527 -1.41846,-3.42009c0,-1.33482 0.54191,-2.54474 1.41846,-3.42c0.87526,-0.87655 2.08518,-1.41846 3.42,-1.41846z" data-paper-data="{&quot;origPos&quot;:null}" id="ID0.13418535515666008" fill="#969696" stroke="#000000" stroke-width="4" stroke-linecap="butt"/><path d="M222.68131,200.37906c1.33482,0 2.54483,0.5419 3.42009,1.41846c0.87655,0.87526 1.41846,2.08518 1.41846,3.42c0,1.33482 -0.5419,2.54483 -1.41846,3.42009c-0.87526,0.87655 -2.08527,1.41846 -3.42009,1.41846c-1.33482,0 -2.54474,-0.5419 -3.42,-1.41846c-0.87655,-0.87526 -1.41846,-2.08527 -1.41846,-3.42009c0,-1.33482 0.5419,-2.54474 1.41846,-3.42c0.87526,-0.87655 2.08518,-1.41846 3.42,-1.41846z" data-paper-data="{&quot;origPos&quot;:null}" id="ID0.13418535515666008" fill="#969696" stroke="#000000" stroke-width="4" stroke-linecap="butt"/></g></g></g></svg>