<svg version="1.1" xmlns="http://www.w3.org/2000/svg" xmlns:xlink="http://www.w3.org/1999/xlink" width="79.93567" height="81.51935" viewBox="0,0,79.93567,81.51935"><g transform="translate(-200.03217,-139.24032)"><g data-paper-data="{&quot;isPaintingLayer&quot;:true}" fill-rule="nonzero" stroke-linejoin="miter" stroke-miterlimit="10" stroke-dasharray="" stroke-dashoffset="0" style="mix-blend-mode: normal"><g stroke-linecap="butt"><path d="M200.78217,201.93969c0,-9.97977 8.09021,-18.06999 18.06999,-18.06999c9.97978,0 18.06999,8.09021 18.06999,18.06999c0,9.97977 -8.09021,18.06999 -18.06999,18.06999c-9.97978,0 -18.06999,-8.09021 -18.06999,-18.06999z" fill="#ffffff" stroke="#ffe008" stroke-width="1.5"/><path d="M221.68115,189.90458c4.31221,2.18075 6.53043,3.27112 6.64871,3.27112c0,0.19125 -0.89714,1.92244 -2.69538,5.19356h-0.12619c-0.14393,0 -2.21033,-0.97601 -6.19916,-2.92804l-2.03089,2.71313c3.43872,1.65232 7.6129,3.76209 12.52647,6.32535c-2.23004,3.96715 -3.81138,6.60139 -4.74598,7.90866l-10.1525,0.89714c-4.63753,-3.12718 -7.08644,-4.74401 -7.35065,-4.85246v-0.12422c0,-0.33521 0.94051,-1.87512 2.82156,-4.61979h0.23268c0.74334,0.44365 3.07395,1.71936 6.9918,3.82912l2.37201,-2.69734c-7.20079,-3.66546 -11.18963,-5.73778 -11.96848,-6.21689v-0.10845c2.28723,-4.45615 3.53336,-6.71576 3.73842,-6.77492c5.95465,-1.21066 9.26719,-1.81597 9.93758,-1.81597z" fill="#ffe008" stroke="none" stroke-width="1"/></g><g data-paper-data="{&quot;index&quot;:null}"><path d="M243.07786,201.93379c0,-9.97977 8.09021,-18.06999 18.06999,-18.06999c9.97978,0 18.06999,8.09021 18.06999,18.06999c0,9.97977 -8.09021,18.06999 -18.06999,18.06999c-9.97978,0 -18.06999,-8.09021 -18.06999,-18.06999z" fill="#ffffff" stroke="#0052ef" stroke-width="1.5" stroke-linecap="butt"/><path d="M245.09684,196.68439l3.93704,-1.91804l5.65318,8.27787l6.46079,-9.69117l6.86458,9.79212l5.75411,-8.37882l3.43229,1.91804l-8.68167,15.64721l-7.36932,-10.90256l-7.16743,11.00352z" fill="#0052ef" stroke="#000000" stroke-width="0" stroke-linecap="round"/></g><g><path d="M200.79009,158.06031c0,-9.97978 8.09021,-18.06999 18.06999,-18.06999c9.97977,0 18.06999,8.09023 18.06999,18.06999c0,9.97978 -8.09021,18.06999 -18.06999,18.06999c-9.97977,0 -18.06999,-8.09021 -18.06999,-18.06999z" fill="#ffffff" stroke="#ff0021" stroke-width="1.5" stroke-linecap="butt"/><path d="M218.86008,153.01281l6.86458,-7.97504l8.37882,17.66619l-5.45128,4.64368l-4.54273,-13.02251l-5.24938,6.25888l-5.24938,-6.35984l-4.64368,13.02251l-5.35033,-4.44177l8.37882,-17.56524z" fill="#ff0021" stroke="#000000" stroke-width="0" stroke-linecap="round"/></g><g><path d="M243.03889,158.36161c0,-9.97978 8.09021,-18.06999 18.06999,-18.06999c9.97978,0 18.06999,8.09021 18.06999,18.06999c0,9.97977 -8.09021,18.06999 -18.06999,18.06999c-9.97978,0 -18.06999,-8.09021 -18.06999,-18.06999z" fill="#ffffff" stroke="#64ca00" stroke-width="1.5" stroke-linecap="butt"/><path d="M258.28228,146.24764l-0.50475,17.66619l11.40731,-0.70664l0.2019,5.75413l-16.2529,0.10095l-0.60569,-22.71368z" fill="#64ca00" stroke="#000000" stroke-width="0" stroke-linecap="round"/></g></g></g></svg>