<svg version="1.1" xmlns="http://www.w3.org/2000/svg" xmlns:xlink="http://www.w3.org/1999/xlink" width="482" height="224.3564" viewBox="0,0,482,224.3564"><g transform="translate(1,-139)"><g data-paper-data="{&quot;isPaintingLayer&quot;:true}" fill-rule="nonzero" stroke-width="2" stroke-linejoin="miter" stroke-miterlimit="10" stroke-dasharray="" stroke-dashoffset="0" style="mix-blend-mode: normal"><path d="M5.45365,147.65l180.71596,4.37084l-0.12169,130.75811l293.95208,3.93916v75.6383h-474.54635z" fill="#95693b" stroke="#763e13" stroke-linecap="butt"/><path d="M0,140h190v23h-190z" fill="#8d5827" stroke="#704d00" stroke-linecap="butt"/><path d="M182.54635,267h297.45365v27h-297.45365z" fill="#8d5827" stroke="#704d00" stroke-linecap="butt"/><g fill="#b2b2b2" stroke="#7f7f7f" stroke-linecap="round"><path d="M49.732,187.8088c0.0927,0.6971 -1.8404,-1.4248 -3.4198,-1.3892c-1.4369,0.0321 -2.7916,0.7203 -4.1443,1.204c-0.6701,0.2396 -1.3373,1.3863 -1.9074,0.9613c-1.1404,-0.85 -1.8121,-2.3965 -1.9227,-3.8149c-0.1193,-1.526 0.2214,-3.3092 1.2814,-4.4139c1.4776,-1.5394 3.6463,-2.3922 5.7223,-2.884c1.3358,-0.3159 2.9549,-0.217 4.0846,0.5627c1.1068,0.7641 1.6802,2.2389 1.8957,3.5664c0.3107,1.9186 1.0077,4.4955 -0.374,5.8243z"/><path d="M60.0914,185.6673c3.2269,3.4591 1.1834,8.8691 -0.3647,12.8643c-1.631,4.2045 -5.2327,8.0644 -9.1656,10.5501c-2.6331,1.6617 -6.0032,1.8714 -8.9205,1.2192c-2.9051,-0.6504 -6.0548,-2.6192 -7.3847,-5.4855c-2.1414,-4.1623 -4.9245,-9.8996 -2.2826,-14.086c2.7301,-4.3196 9.5324,-3.9431 14.562,-4.8488c4.4436,-0.7999 10.1108,-3.0151 13.5561,-0.2133z"/><path d="M52.2773,181.0384c-1.7437,-0.2644 -3.8325,-0.0388 -5.1596,-1.2005c-1.1436,-1.0005 -2.4788,-3.5262 -1.2309,-4.3928c2.4608,-1.7104 5.9961,-1.4914 8.9475,-0.9707c1.7055,0.3018 3.7934,1.5881 4.1325,3.3237c0.1326,1.4904 -1.784,2.674 -3.156,3.3599c-1.0513,0.5265 -2.3697,0.057 -3.0095,0.0751z"/><path d="M36.6139,182.7894c-0.6287,0.1195 -1.8157,0.8608 -2.9555,0.5721c-1.4872,-0.3758 -3.613,-1.1209 -3.8031,-2.605c-0.0409,-1.7679 1.7225,-3.4721 3.3236,-4.1326c2.7711,-1.1415 6.1771,-2.1136 8.9475,-0.9707c1.4047,0.5789 0.6422,3.3322 -0.2602,4.5546c-1.0471,1.4193 -3.1357,1.6468 -4.7821,2.2791z"/></g><g fill="#b2b2b2" stroke="#7f7f7f" stroke-linecap="round"><path d="M139.1528,334.2978c-0.691,-0.1302 1.9295,-1.3015 2.3904,-2.8126c0.4195,-1.3747 0.1902,-2.8767 0.1545,-4.3129c-0.0177,-0.7114 -0.8977,-1.7042 -0.3156,-2.1126c1.1644,-0.8167 2.8435,-0.9703 4.2251,-0.6311c1.4867,0.3646 3.0734,1.2466 3.7906,2.5993c0.9992,1.8854 1.1299,4.212 0.9468,6.3377c-0.1183,1.3674 -0.7194,2.8741 -1.8137,3.7028c-1.0723,0.8118 -2.6524,0.8945 -3.9806,0.6834c-1.9195,-0.3058 -4.585,-0.4509 -5.4142,-2.1793z"/><path d="M137.9793,344.7507c-4.2957,1.9812 -8.7936,-1.6537 -12.103,-4.3752c-3.4821,-2.8658 -6.0199,-7.4952 -7.1488,-12.0086c-0.7534,-3.0211 0.1029,-6.2873 1.6359,-8.8536c1.5276,-2.5553 4.3837,-4.9299 7.5223,-5.2953c4.6236,-0.7301 10.9439,-1.5762 14.0922,2.2439c3.2474,3.9455 0.7594,10.2876 0.0444,15.3479c-0.632,4.4707 -0.3032,10.5464 -4.043,12.9409z"/><path d="M144.8703,338.7728c0.7973,-1.5731 1.2372,-3.6275 2.756,-4.524c1.3083,-0.7727 4.1252,-1.2497 4.5574,0.2068c0.8536,2.8727 -0.4615,6.1615 -1.8804,8.8013c-0.8207,1.5252 -2.6962,3.1052 -4.4507,2.8838c-1.4569,-0.3409 -1.9808,-2.5317 -2.2025,-4.0496c-0.1707,-1.1633 0.6881,-2.2683 0.8712,-2.8815z"/><path d="M148.0219,323.4144c0.0834,-0.6346 -0.2489,-1.994 0.3823,-2.986c0.8227,-1.2947 2.196,-3.0802 3.665,-2.796c1.6918,0.5148 2.7579,2.7233 2.8838,4.4507c0.2162,2.9892 0.0727,6.5283 -1.8804,8.8014c-0.9896,1.1527 -3.3656,-0.4337 -4.244,-1.6736c-1.0199,-1.4389 -0.5819,-3.4937 -0.6667,-5.2553z"/></g><g fill="#b2b2b2" stroke="#7f7f7f" stroke-linecap="round"><path d="M385.8966,317.3757c0.6773,0.189 -2.034,1.1314 -2.6227,2.5975c-0.5357,1.3336 -0.436,2.8498 -0.5235,4.2837c-0.0433,0.7104 0.7484,1.7749 0.1334,2.1319c-1.2301,0.714 -2.9162,0.7231 -4.2637,0.2667c-1.4499,-0.4907 -2.9552,-1.5054 -3.5539,-2.9146c-0.8339,-1.964 -0.7648,-4.2933 -0.4001,-6.3955c0.235,-1.3523 0.963,-2.8019 2.1243,-3.5337c1.1379,-0.717 2.7193,-0.664 4.0245,-0.3398c1.8862,0.4692 4.5295,0.8422 5.2075,2.6353z"/><path d="M387.9441,307.0659c4.4497,-1.6058 8.6195,2.4012 11.6835,5.3963c3.2237,3.1536 5.3554,7.9835 6.0934,12.5771c0.4918,3.0745 -0.6413,6.2553 -2.3886,8.6808c-1.7409,2.415 -4.7901,4.5361 -7.9485,4.6311c-4.6691,0.3312 -11.0387,0.6326 -13.848,-3.4432c-2.8973,-4.2093 0.125,-10.3149 1.2711,-15.2953c1.0128,-4.4 1.2058,-10.4817 5.1371,-12.5468z"/><path d="M380.5722,312.3972c-0.9292,1.499 -1.5436,3.5082 -3.1336,4.2712c-1.3698,0.6577 -4.2171,0.8916 -4.5229,-0.5966c-0.6043,-2.9353 0.9878,-6.0993 2.6277,-8.6078c0.9484,-1.4493 2.9524,-2.8627 4.6815,-2.4918c1.4223,0.4646 1.7565,2.6922 1.8474,4.2235c0.0703,1.1736 -0.88,2.2009 -1.1151,2.7962z"/><path d="M376.0724,327.4817c-0.1375,0.6251 0.077,2.008 -0.6368,2.9423c-0.9306,1.2194 -2.4519,2.8807 -3.8912,2.4716c-1.6414,-0.6579 -2.5144,-2.9496 -2.4917,-4.6815c0.0407,-2.9967 0.487,-6.5104 2.6277,-8.6078c1.0848,-1.0636 3.3161,0.7206 4.0849,2.0311c0.8929,1.521 0.2804,3.5307 0.2139,5.2931z"/></g><path d="M122.0569,236.717c-1.9754,-2.8688 10.1343,-8.1238 10.6734,-13.9402c0.3675,-4.0085 -4.799,-6.4984 -8.0119,-8.8245c-1.9732,-1.4092 -5.5926,-0.4304 -6.0628,-2.0596c-0.4451,-1.5491 2.5199,-3.2122 4.3069,-3.9386c2.2018,-1.1007 4.9685,-2.3796 7.1687,-1.3171c6.0703,2.933 13.704,5.9505 16.1289,12.2417c2.0015,5.1922 -0.8219,12.5465 -5.3012,15.8476c-5.0948,3.755 -16.7631,5.0967 -19.8968,3.2197z" fill="#b2b2b2" stroke="#7f7f7f" stroke-linecap="round"/><path d="M285.5421,316.9771c3.3707,0.8778 -2.3518,12.7738 1.045,17.526c2.344,3.2724 7.8806,1.7764 11.8324,1.4342c2.4143,-0.2248 4.5118,-3.3326 5.9331,-2.4079c1.3499,0.8806 0.195,4.078 -0.6815,5.7964c-0.9454,2.2728 -2.2016,5.0498 -4.5609,5.6854c-6.51,1.752 -14.258,4.4629 -20.2073,1.2904c-4.9102,-2.6182 -7.585,-10.0278 -6.3562,-15.4547c1.3975,-6.1728 9.3459,-14.8201 12.944,-15.4501z" fill="#b2b2b2" stroke="#7f7f7f" stroke-linecap="round"/></g></g></svg>