<svg version="1.1" xmlns="http://www.w3.org/2000/svg" xmlns:xlink="http://www.w3.org/1999/xlink" width="127.50369" height="210.00263" viewBox="0,0,127.50369,210.00263"><defs><linearGradient x1="263.82695" y1="178.31559" x2="263.82695" y2="210.60848" gradientUnits="userSpaceOnUse" id="color-1"><stop offset="0" stop-color="#3b2f49"/><stop offset="1" stop-color="#342842"/></linearGradient><linearGradient x1="278.9709" y1="242.31323" x2="278.9709" y2="261.71994" gradientUnits="userSpaceOnUse" id="color-2"><stop offset="0" stop-color="#ff7f01"/><stop offset="1" stop-color="#e57300"/></linearGradient><linearGradient x1="240.03813" y1="139.60346" x2="240.03813" y2="195.63037" gradientUnits="userSpaceOnUse" id="color-3"><stop offset="0" stop-color="#4c405a"/><stop offset="1" stop-color="#342842"/></linearGradient><linearGradient x1="220.17305" y1="178.61419" x2="220.17305" y2="210.90708" gradientUnits="userSpaceOnUse" id="color-4"><stop offset="0" stop-color="#3b2f49"/><stop offset="1" stop-color="#342842"/></linearGradient><linearGradient x1="205.0291" y1="242.61184" x2="205.0291" y2="262.01855" gradientUnits="userSpaceOnUse" id="color-5"><stop offset="0" stop-color="#ff7f01"/><stop offset="1" stop-color="#e57300"/></linearGradient><radialGradient cx="263.74289" cy="106.67603" r="16.80982" gradientUnits="userSpaceOnUse" id="color-6"><stop offset="0" stop-color="#fbc5fc"/><stop offset="1" stop-color="#f991fd"/></radialGradient></defs><g transform="translate(-178.24816,-52.01588)"><g data-paper-data="{&quot;isPaintingLayer&quot;:true}" fill-rule="nonzero" stroke-linejoin="miter" stroke-miterlimit="10" stroke-dasharray="" stroke-dashoffset="0" style="mix-blend-mode: normal"><g data-paper-data="{&quot;index&quot;:null}" stroke="none" stroke-width="0" stroke-linecap="butt"><path d="M244.70711,151.42359c-2.16915,-4.6351 -1.27145,-7.74184 2.11878,-11.59904c3.39022,-3.8572 12.6659,-0.74943 15.27027,1.85198c8.09413,8.0849 15.26613,19.22863 22.06298,27.35392c0.65485,0.78286 -5.52689,5.16609 -7.60076,7.40634c-0.92711,1.00149 -11.8487,-9.08435 -15.30603,-12.07502c-7.05611,-6.10375 -15.38046,-10.44925 -16.54523,-12.93818z" fill="#7100f3"/><g><path d="M275.27222,200.50051c11.3677,2.63961 12.4129,9.79656 10.2643,15.66878c-2.61451,5.68999 -7.53853,7.00367 -18.20419,4.22161c-9.38914,-2.97987 -10.81409,-9.92703 -9.09242,-15.69858c5.13517,-8.43509 7.9846,-7.2394 17.03231,-4.19182z" data-paper-data="{&quot;origRot&quot;:0}" fill="#ffffff"/><path d="M275.63384,194.29582c6.21836,2.30184 13.76209,3.7153 11.61572,8.34488c-2.40114,5.17909 -3.90149,4.26137 -13.97026,0.24871c-11.47018,-4.57115 -14.05549,-3.18158 -11.6999,-8.98621c1.37549,-3.38949 7.83609,-1.90924 14.05443,0.39262z" data-paper-data="{&quot;origRot&quot;:0}" fill="#ffffff"/><path d="M268.62885,189.98713c1.77109,-3.80573 2.30602,-7.78105 3.12814,-12.52173c0.77611,-4.47529 1.71585,-9.8109 7.22433,-10.47602c7.68178,-0.92755 6.61028,6.85419 6.36984,15.06335c-0.24044,8.20918 -0.17397,18.09798 -3.9324,17.9879c-3.75842,-0.11008 -16.25501,-2.60759 -12.78992,-10.05349z" fill="#7100f3"/></g></g><g stroke="none" stroke-width="0" stroke-linecap="butt"><path d="M243.33529,181.61462c2.21837,-4.63145 12.16686,-3.59921 15.29283,-1.6554c9.71521,6.04113 19.928,16.97044 25.5958,21.6448c1.52357,1.25653 1.40975,5.90895 -1.30057,7.96504c-2.71032,2.05609 -4.20723,0.55995 -6.81361,-0.22383c-2.60639,-0.78377 -11.50836,-4.37244 -15.5533,-6.50218c-8.25539,-4.34661 -12.86869,-5.49899 -14.56702,-7.65936c0,0 -5.6796,-7.25256 -2.6541,-13.56909z" data-paper-data="{&quot;index&quot;:null}" fill="url(#color-1)"/><g><path d="M280.69429,240.40755c-1.38434,12.0878 -19.37719,7.75874 -24.21038,4.98947c-4.8332,-2.76927 2.08316,-17.39634 8.13185,-27.95308c6.04868,-10.55674 10.71672,-19.57711 16.97094,-15.73994c5.35122,5.10284 0.93226,9.68383 0.7467,17.73174c-0.18556,8.04792 -0.93154,14.79353 -1.63908,20.97181z" fill="#342842"/><path d="M304.80101,242.40514c2.47168,0.23906 0.03886,12.8959 -6.30078,16.67116c-8.39618,4.99994 -22.5192,1.40113 -30.12873,1.24499c-14.5524,-0.29861 -18.54559,-6.39856 -14.93012,-15.52733c2.24762,-5.67507 0.70503,4.43197 13.73571,1.49301c2.09062,-0.47152 10.96134,-2.10626 17.02009,-3.30585c4.97502,-0.08921 7.83209,2.06475 11.14696,1.61385c3.35416,-1.47495 1.3946,-2.96958 9.45687,-2.18981z" fill="url(#color-2)"/></g></g><g><path d="M257.53661,142.80592c7.8934,7.68112 8.3747,24.40331 8.3747,36.47146c0,11.12442 -11.36779,16.35299 -25.46704,16.35299c-6.96666,0 -11.44539,0.52823 -16.33255,-3.89398c-4.88715,-4.42221 -4.12279,-12.81756 -5.4518,-15.8179c-1.79848,-4.0602 -4.27795,-8.83951 -4.17218,-15.58246c0.60394,-8.48966 3.00701,-19.56074 17.10626,-19.56074c0,0 20.06178,-3.69201 25.94261,2.03066z" data-paper-data="{&quot;origPos&quot;:null,&quot;index&quot;:null}" fill="url(#color-3)" stroke="none" stroke-width="0" stroke-linecap="butt"/><path d="M234.31727,137.04819c7.6246,0 16.63924,-1.99788 22.52006,3.72477c3.98096,3.87389 7.9109,18.32745 7.9109,18.32745c0,0 -17.09325,-1.86394 -21.61342,0.76641c-2.0267,1.17935 -8.14938,4.83289 -10.86037,5.84939c-1.42079,0.5327 -16.97992,1.11535 -15.62607,-11.89862c0.60394,-8.48966 3.56965,-16.76938 17.6689,-16.76938z" data-paper-data="{&quot;origPos&quot;:null,&quot;index&quot;:null}" fill="#7100f3" stroke="none" stroke-width="0" stroke-linecap="butt"/><path d="M229.54849,140.80915c0,0 4.83815,6.33983 6.37388,10.04988c1.78669,4.31629 5.20077,13.70817 5.20077,13.70817" data-paper-data="{&quot;origPos&quot;:null}" fill="none" stroke="#433751" stroke-width="10.5" stroke-linecap="round"/><path d="M244.62206,164.26517c0,2.15743 -1.86684,4.12163 -3.78105,4.12163c-1.9142,0 -3.78104,-1.96422 -3.78104,-4.12163c0,-2.15743 1.86684,-4.12163 3.78104,-4.12163c1.9142,0 3.78105,1.96421 3.78105,4.12163z" fill="#ffea12" stroke="none" stroke-width="0" stroke-linecap="butt"/><path d="M250.79214,139.52862c0,0 3.53282,4.03766 5.07539,7.34007c1.54256,3.30241 5.70292,16.0754 5.70292,16.0754" data-paper-data="{&quot;origPos&quot;:null,&quot;origRot&quot;:0}" fill="none" stroke="#433751" stroke-width="9.5" stroke-linecap="round"/><path d="M264.2252,161.17551c0,2.15743 -1.55178,3.79489 -3.46598,3.79489c-1.91421,0 -3.46598,-1.63747 -3.46598,-3.79489c0,-2.15743 1.55177,-3.7949 3.46598,-3.7949c1.91421,0 3.46598,1.63747 3.46598,3.7949z" data-paper-data="{&quot;origPos&quot;:null}" fill="#ffea12" stroke="none" stroke-width="0" stroke-linecap="butt"/></g><g data-paper-data="{&quot;index&quot;:null}" stroke="none" stroke-width="0" stroke-linecap="butt"><path d="M238.01062,195.48231c-1.69833,2.16036 -6.31166,3.31274 -14.56702,7.65936c-4.04495,2.12973 -12.94692,5.7184 -15.5533,6.50218c-2.60639,0.78377 -4.1033,2.27991 -6.81361,0.22383c-2.71032,-2.05609 -2.82416,-6.70851 -1.30057,-7.96504c5.6678,-4.67436 15.88058,-15.60368 25.5958,-21.6448c3.12597,-1.9438 13.07445,-2.97605 15.29283,1.6554c3.0255,6.31653 -2.6541,13.56909 -2.6541,13.56909z" data-paper-data="{&quot;index&quot;:null}" fill="url(#color-4)"/><g><path d="M203.3057,240.70615c-0.70755,-6.17828 -1.45352,-12.9239 -1.63908,-20.97181c-0.18556,-8.04792 -4.60452,-12.62891 0.7467,-17.73174c6.25422,-3.83716 10.92226,5.1832 16.97094,15.73994c6.04868,10.55674 12.96504,25.18383 8.13185,27.95308c-4.8332,2.76927 -22.82605,7.09834 -24.21038,-4.98947z" fill="#342842"/><path d="M179.19899,242.70375c8.06227,-0.77977 6.10271,0.71486 9.45687,2.18981c3.31487,0.45091 6.17194,-1.70306 11.14696,-1.61385c6.05874,1.19959 14.92947,2.83434 17.02009,3.30585c13.03068,2.93896 11.48809,-7.16808 13.73571,-1.49301c3.61547,9.12877 -0.37772,15.22872 -14.93012,15.52733c-7.60953,0.15614 -21.73255,3.75494 -30.12873,-1.24499c-6.33963,-3.77526 -8.77246,-16.4321 -6.30078,-16.67116z" fill="url(#color-5)"/></g></g><g stroke-linecap="butt"><path d="M227.86772,152.63874c-1.18678,2.47852 -9.5493,6.75013 -16.6592,12.79113c-3.48369,2.95995 -14.49417,12.94865 -15.41238,11.93899c-2.05395,-2.25854 -8.19662,-6.69634 -7.53485,-7.47337c6.86854,-8.06477 14.13897,-19.14455 22.3044,-27.15744c2.62731,-2.57824 11.93016,-5.60373 15.28608,-1.71665c3.35591,3.88707 4.22605,7.00163 2.01594,11.61735z" fill="#7100f3" stroke="none" stroke-width="0"/><g><path d="M213.86362,205.78554c1.6705,5.78658 0.18406,12.72084 -9.23111,15.61744c-10.68988,2.68746 -15.60207,1.33023 -18.16608,-4.38269c-2.09652,-5.89102 -0.98796,-13.03844 10.40268,-15.57726c9.07436,-2.96733 11.93427,-4.13773 16.99453,4.3425z" data-paper-data="{&quot;origRot&quot;:0}" fill="#ffffff" stroke="none" stroke-width="0"/><path d="M210.6198,194.96728c2.30409,5.82526 -0.2688,4.41285 -11.77904,8.88223c-10.1039,3.92332 -11.61232,4.8277 -13.9675,-0.37244c-2.10529,-4.64841 5.45067,-5.99498 11.68918,-8.24166c6.23848,-2.24669 12.71193,-3.66965 14.05736,-0.26811z" data-paper-data="{&quot;origRot&quot;:0}" fill="#ffffff" stroke="none" stroke-width="0"/><path d="M203.6053,190.98891c3.399,7.47631 -9.11923,9.86301 -12.87846,9.93982c-3.75924,0.07679 -3.6052,-9.81103 -3.77291,-18.02202c-0.16772,-8.21098 -1.17025,-16.00191 6.50302,-15.00635c5.50238,0.71389 6.39481,6.05762 7.13124,10.53961c0.78011,4.74777 1.27982,8.72768 3.01711,12.54893z" fill="#7100f3" stroke="none" stroke-width="0"/><path d="M198.4858,218.35157l-1.27537,-3.14585l4.83334,-1.79368l-2.9341,-7.86218l4.02689,-1.65403l3.97015,11.24812z" data-paper-data="{&quot;index&quot;:null,&quot;origRot&quot;:0}" fill="#ffea12" stroke="#7100f3" stroke-width="1"/></g></g><g><path d="M275.17071,86.12985c-0.54681,3.30219 -11.44781,7.48662 -20.02647,7.48662c-6.9127,0 -5.19919,-5.88042 -5.19919,-9.0536c0,-3.1732 13.54704,-2.48105 20.45973,-2.48105c6.91268,0 5.11985,1.91053 4.76591,4.048z" data-paper-data="{&quot;index&quot;:null}" fill="#2d0757" stroke="none" stroke-width="0" stroke-linecap="butt"/><path d="M257.46521,108.21745c0.05887,-0.03543 0.1213,-0.06981 0.18747,-0.1029c1.74832,-0.87416 2.62246,0.87416 2.62246,0.87416l-0.09364,0.09722c0.24169,0.23722 0.36827,0.45871 0.36827,0.45871c2.33294,4.08262 2.66948,10.90152 1.88642,15.62971c-0.2966,1.79093 -2.81011,4.183 -2.70652,5.50476c-0.78605,2.35814 -3.50884,3.07651 -5.76809,3.2646c-5.67101,0.47212 -11.56912,0.0266 -17.26171,0.0266c-1.24819,0 -3.76086,0.49196 -4.88665,0c-7.33568,-3.20556 -3.90931,-12.94773 -3.90931,-19.0579c0,-3.78816 2.05886,-6.37111 5.97854,-6.92896c5.40306,-0.76899 11.36814,-0.07521 16.82578,-0.07521c2.28043,0 4.56087,0 6.84129,0z" data-paper-data="{&quot;index&quot;:null}" fill="#ffffff" stroke="none" stroke-width="0.5" stroke-linecap="butt"/><path d="M257.50254,116.13492c1.22077,-0.04695 1.2677,1.1738 1.2677,1.1738l0.00091,0.37274c0,0.84831 0.03256,1.70085 0.0771,2.5566c0.47393,-0.24152 0.94464,-0.4833 1.41266,-0.7173l0.96779,-0.10711c0,0 1.19979,-0.23009 1.42989,0.9697c0.23009,1.19979 -0.9697,1.42989 -0.9697,1.42989l-0.33531,-0.10711c-0.77405,0.38703 -1.558,0.79196 -2.35217,1.18427c0.0239,0.43502 0.04546,0.87059 0.06203,1.30659h0.03346v1.62888c0,0.1544 -0.02866,0.30211 -0.08093,0.43812c-0.11907,0.35047 -0.41337,0.78353 -1.14074,0.78353c-0.72739,0 -1.02168,-0.43309 -1.14075,-0.78353c-0.05227,-0.13598 -0.08093,-0.28373 -0.08093,-0.43812c0,-0.614 -0.01633,-1.22621 -0.04168,-1.8369c-0.87928,0.36411 -1.77096,0.6784 -2.67547,0.90454c-0.89092,0.15619 -1.77598,0.30169 -2.65817,0.43577c0,1.03427 0,2.06853 0,3.10281v0.32576c0,0 0,1.22166 -1.22166,1.22166c-1.22166,0 -1.22166,-1.22166 -1.22166,-1.22166c0,-1.0042 0,-2.03934 0,-3.08636c-2.21046,0.28239 -4.42058,0.48855 -6.67841,0.60718c0,0.39203 0,0.78404 0,1.17607v0.97732c0,0 0,1.22166 -1.22166,1.22166c-1.22166,0 -1.22166,-1.22166 -1.22166,-1.22166c0,-0.63062 0,-1.32936 0,-2.06022c-0.67273,0.01598 -1.35103,0.0241 -2.03609,0.0241c0,0 -1.22166,0 -1.22166,-1.22166c0,-1.22166 1.22166,-1.22166 1.22166,-1.22166c0.67733,0 1.35644,-0.00053 2.03609,-0.00432c0,-1.29959 0,-2.58011 0,-3.66066c0,0 0,-1.22166 1.22166,-1.22166c1.22166,0 1.22166,1.22166 1.22166,1.22166c0,1.2094 0,2.41877 0,3.62815c2.25121,-0.05182 4.49231,-0.17613 6.67841,-0.47385c0,-1.62132 0,-3.23886 0,-4.78319c0,0 0,-1.22166 1.22166,-1.22166c1.22166,0 1.22166,1.22166 1.22166,1.22166c0,1.45593 0,2.91184 0,4.36777c0.69666,-0.14421 1.38571,-0.31085 2.06559,-0.50342c1.06378,-0.26595 2.10427,-0.66627 3.12653,-1.12634c-0.07412,-1.24248 -0.14257,-2.48014 -0.14257,-3.71532l0.00091,-0.27881c0,0 -0.04695,-1.22077 1.1738,-1.2677z" data-paper-data="{&quot;index&quot;:null}" fill="#a5b5ff" stroke="none" stroke-width="0.5" stroke-linecap="butt"/><path d="M207.55715,109.82685l0.03321,-0.35705c0.10859,-0.19764 0.21717,-0.39527 0.32576,-0.59291c4.83092,-4.11215 8.73048,3.88431 10.7657,6.93525c0.68099,1.02085 1.46823,1.84278 1.98317,2.95705c1.62113,3.53304 10.10085,11.86927 2.32272,13.47235c-0.98767,0.20356 -1.89721,0.18143 -2.9025,0.18143c-0.58142,-0.20484 -1.21933,-0.30837 -1.74423,-0.61453c-0.44987,-0.26242 -3.32688,-2.39282 -4.33203,-2.97203c-0.42236,-0.24337 -5.76934,-5.22785 -6.02241,-6.14898c-1.15958,-4.25508 -0.52515,-8.14743 -0.52515,-12.424c0,-0.14048 0.02866,-0.27491 0.08093,-0.39866c0.00467,-0.01253 0.00962,-0.02516 0.01486,-0.03788z" data-paper-data="{&quot;index&quot;:null}" fill="#8e4108" stroke="none" stroke-width="0.5" stroke-linecap="butt"/><path d="M262.146,135.78646c0.17064,3.90728 1.4718,7.7783 -0.81964,10.68763c-0.98729,1.25352 -2.80221,2.54013 -3.44498,2.48218c-3.20931,0.01312 -7.29019,0.56007 -10.30556,-0.67839c-2.1749,-0.89325 -6.72968,-3.9574 -6.76184,-3.96815c-0.03266,-0.00895 -0.05046,-0.01488 -0.05046,-0.01488c-2.82364,-0.94121 -5.28539,-2.75087 -8.07466,-3.6896c-1.2975,-0.43668 -5.42252,-1.75082 -5.42252,-1.75082c-6.09459,-4.06305 -10.21819,-10.1142 -12.61901,-16.97128c-0.97333,-2.92007 -1.63971,-5.89651 -2.6062,-8.79596l0.08174,-0.32924c-2.89541,-1.65655 -5.32302,-4.00823 -8.24441,-5.60387c-1.55584,-0.84976 -3.71568,-1.52599 -5.19128,-2.71002c-1.55595,-1.2485 -2.4401,-1.98118 -3.68164,-3.5427c-4.82896,-4.94704 -5.54326,-9.36392 -5.54326,-16.12327l0.08029,-0.93507c-0.08765,-0.25002 -0.12319,-0.54806 -0.07337,-0.9021c0.02221,-0.36596 0.13727,-0.7961 0.48318,-1.14738c0.32357,-0.37197 0.74353,-0.51985 1.1067,-0.57023c0.50012,-0.11024 0.89914,-0.03706 1.21302,0.1204c5.02706,1.23803 8.96383,3.61955 13.70159,5.59536c1.90723,0.7954 4.22413,0.6164 6.2885,0.96047c0.97732,0.16289 3.91374,0.46208 3.91374,0.46208c4.4492,0 7.24958,-2.69117 11.36738,-4.27354c3.21192,-1.23425 6.47564,-1.16868 9.8125,-1.72676c5.71052,-0.95175 12.1258,-0.18948 17.91325,-0.18948c0,0 2.27591,0.66536 2.56434,1.07193c2.38694,2.18763 2.3223,4.51829 2.3223,7.72402c0,4.6196 -0.41579,9.48463 0.24119,14.05865c0.28991,2.17437 0.7278,4.20633 0.73602,6.40239c0.10558,0.44099 0.01282,0.83277 -0.13788,1.14528c-0.13233,0.37412 -0.3917,0.76753 -0.89419,0.99929c-2.73293,2.0173 -5.05029,1.4282 -8.09397,2.45254c-1.34395,0.45229 -2.52281,1.35418 -4.01944,1.58028c-2.4169,0.36509 -4.99279,0.04074 -7.38274,0.53728c-2.81257,0.46875 -5.99479,0.37837 -8.86894,-0.02543c-0.06008,1.17998 -0.10577,2.38688 0.0774,3.47266c0.76504,4.53495 6.2475,7.86532 10.34151,8.3224c4.93194,0.61651 8.60764,-0.8447 13.14781,-2.3581c1.31991,-0.43997 2.9717,-0.51994 4.20609,-1.05103c1.28669,-0.5536 2.28541,-1.35823 3.90931,-1.62888l1.60147,1.05457c0,0 1.85084,0.62858 1.22225,2.47942z" data-paper-data="{&quot;index&quot;:null}" fill="#ffdebd" stroke="none" stroke-width="0.5" stroke-linecap="butt"/><path d="M273.8523,83.93558c0,0 -0.01404,2.37374 -0.87055,3.48215c-0.8565,1.10841 -4.06251,2.90178 -4.06251,2.90178l-9.86609,4.64286" data-paper-data="{&quot;index&quot;:null}" fill="none" stroke="#a5b5ff" stroke-width="4.5" stroke-linecap="round"/><path d="M230.39365,90.68697c-0.23453,1.12237 -0.6881,2.14499 -0.88129,3.31621c-0.25959,1.57375 0.05015,3.56101 0.05015,5.18127c0,0.9952 3.86725,1.49928 5.70108,1.49928c0.49187,0 3.43204,0.03523 3.3672,-0.1653c0.74436,-0.50753 2.03597,-0.55362 2.67638,-1.11611c1.98945,-1.74735 3.77762,-4.192 4.75719,-7.19738c0.12251,-0.37594 0.49336,-1.25728 0.11273,-1.18319c-0.2025,0.03941 -0.08929,0.52533 -0.29308,0.55682c-0.55947,0.08647 -1.77338,-0.80918 -2.35034,-0.96149c-0.75594,-0.19957 -2.03995,-0.16837 -2.87806,-0.31297c-1.85687,-0.32037 -4.1463,0.05128 -6.04357,0.05128c-1.46493,0 -2.79782,0.30684 -4.21839,0.33159zM229.56253,88.35638c0.37783,0 0.6096,0.14938 0.75176,0.33266c1.41752,-0.01464 2.82146,-0.33266 4.29777,-0.33266c3.15477,0 7.39645,-0.51624 10.36904,0.69979c1.86724,0.76384 3.69601,1.45409 2.93762,3.78093c-1.17344,3.6002 -0.68747,5.07931 -3.5359,7.36947c-0.58037,0.46662 -3.73519,1.93219 -4.66779,1.97516c-0.93259,0.04299 -7.34968,0.87244 -9.71732,-0.33317c-0.98905,-0.50364 -2.38984,-1.47831 -2.38984,-2.6641c0,-1.87431 -0.24952,-3.96285 0.05014,-5.81342c0.22808,-1.40844 0.92718,-2.54424 0.92718,-4.01518c0,0 0,-0.99952 0.97732,-0.99952z" data-paper-data="{&quot;index&quot;:null}" fill="#18c6ff" stroke="none" stroke-width="0.5" stroke-linecap="butt"/><path d="M240.47412,88.17607c2.23189,0.55981 1.84776,0.61099 3.09678,1.38534c1.24902,0.77436 2.66145,2.24965 2.53891,2.62559c-0.97955,3.0054 -0.5968,4.68575 -2.58626,6.43312c-0.64041,0.56248 -3.77513,1.60961 -4.88561,1.84423c-1.11049,0.23461 -2.90425,0.26313 -3.3961,0.26313c-1.83384,0 -5.72386,-0.52771 -5.72386,-1.52293c0,-1.62024 -0.31339,-3.63584 -0.05379,-5.20959c0.19319,-1.17121 0.65362,-3.3288 0.88817,-4.45117c1.42057,-0.33192 2.38496,-1.03307 4.23323,-1.31452c1.84826,-0.28145 3.65662,-0.61299 5.8885,-0.05318z" data-paper-data="{&quot;noHover&quot;:false,&quot;origItem&quot;:[&quot;Path&quot;,{&quot;applyMatrix&quot;:true,&quot;segments&quot;:[[[469.86056,340.47788],[2.90705,-0.05065],[-0.47996,2.2968]],[[468.0571,347.26415],[0.39535,-2.39679],[-0.53123,3.22051]],[[468.15973,357.86707],[0,-3.31566],[0,2.03658]],[[479.8264,360.93518],[-3.75277,0],[1.00657,0]],[[486.717,360.5969],[0.13271,0.41035],[1.52326,-1.03856]],[[492.19394,358.31293],[-1.31054,1.15106],[4.07119,-3.57579]],[[501.92903,343.58421],[-2.00456,6.15021],[0.25074,-0.76931]],[[502.15973,341.16292],[0.77893,-0.15165],[-0.41434,0.08067]],[[501.56,342.30239],[0.41704,-0.06448],[-1.14489,0.17701]],[[496.75028,340.33482],[1.18068,0.3117],[-1.54698,-0.4084]],[[490.86061,339.69435],[1.71512,0.2959],[-3.79987,-0.65558]],[[478.49306,339.79931],[3.88259,0],[-2.99782,0]]],&quot;closed&quot;:true}],&quot;index&quot;:null}" fill="#ffffff" stroke="none" stroke-width="0.5" stroke-linecap="butt"/><path d="M252.69261,91.20224c0,1.2767 0,2.55342 0,3.83012c0,0.09781 -0.00413,1.46587 0,1.46598c0.16339,0.00383 -0.10318,-0.4407 0.05345,-0.48741c0.45282,-0.13501 2.3483,0.48741 3.3672,0.48741c0.19825,0 2.44313,0.00816 2.44332,0c0.00383,-0.16339 -0.4407,0.10318 -0.48741,-0.05346c-0.36921,-1.23836 0.07992,-4.68793 0.15212,-6.77818c-0.56536,0.396 -1.77659,-0.33544 -2.59671,-0.33544c-0.77336,0 -1.75491,0.80535 -2.40382,1.50552l-0.48867,0.48867c0,0 -0.0155,-0.04649 -0.03952,-0.12322zM251.83871,89.45459c1.7905,-1.71515 4.40158,-3.19646 6.82507,-3.10199c1.09775,0.04282 1.52175,1.45045 1.52175,2.81574c0,2.66277 1.00668,7.78863 -1.62887,9.28463c-0.46433,0.26356 -1.89382,0 -2.44332,0c-1.91679,0 -4.32769,-0.10902 -5.37532,-1.95465c-0.62126,-1.09451 0,-4.26702 0,-5.53819c0,0 0,-0.842 0.78155,-0.96294z" data-paper-data="{&quot;index&quot;:null}" fill="#18c6ff" stroke="none" stroke-width="0.5" stroke-linecap="butt"/><path d="M255.62462,87.23445c0.82011,0 2.83199,0.35547 2.83199,0.35547c0,0 0.13479,8.78283 0.13096,8.94622c-0.00019,0.00816 -2.2694,0.0106 -2.46764,0.0106c-1.0189,0 -3.29484,-0.00675 -3.45823,-0.01059c-0.00414,-0.00011 -0.00868,-1.3774 -0.00868,-1.4752c0,-1.2767 0.03633,-3.75906 0.03633,-3.75906c0,0 2.16193,-4.06744 2.93528,-4.06744z" data-paper-data="{&quot;noHover&quot;:false,&quot;origItem&quot;:[&quot;Path&quot;,{&quot;applyMatrix&quot;:true,&quot;segments&quot;:[[[515.49306,341.5323],[0.04917,0.15701],[0,2.61264]],[[515.49306,349.37022],[0,-2.61264],[0,0.20016]],[[515.49306,352.37022],[-0.00844,-0.0002],[0.33438,0.00784]],[[515.60246,351.37279],[-0.32053,0.09557],[0.92664,-0.27628]],[[522.49306,352.37022],[-2.08504,0],[0.4057,0]],[[527.49306,352.37022],[-0.00039,0.0167],[0.00784,-0.33438]],[[526.49563,352.26082],[0.09557,0.32053],[-0.75555,-2.53413]],[[526.80695,338.39],[-0.14773,4.27747],[-1.15693,0.81042]],[[521.49306,337.70356],[1.67827,0],[-1.5826,0]],[[516.57394,340.78444],[1.32792,-1.43284],[0,0]],[515.57394,341.78444]],&quot;closed&quot;:true}],&quot;index&quot;:null}" fill="#ffffff" stroke="none" stroke-width="0.5" stroke-linecap="butt"/><path d="M197.8851,91.58351l5.09413,2.90178c0,0 3.58887,0.77931 5.60355,2.03125c2.01466,1.25195 1.99543,1.68875 2.80176,3.19197c0.80633,1.50322 0.61575,1.66204 0,2.03125c-0.61573,0.36923 -2.96449,1.29775 -4.83942,0.87055c-1.87493,-0.42722 -2.80178,-2.61162 -2.80178,-2.61162l-0.78958,-5.45536" data-paper-data="{&quot;index&quot;:null}" fill="none" stroke="#f6b09a" stroke-width="3" stroke-linecap="round"/><path d="M243.43846,92.9119c0.5603,0 1.0674,0.22699 1.43498,0.59424c0.36765,0.36642 0.59498,0.8731 0.59498,1.43245c0,0.55935 -0.22734,1.06604 -0.59498,1.43246c-0.36757,0.36724 -0.87468,0.59424 -1.43498,0.59424c-0.56023,0 -1.06734,-0.22699 -1.43498,-0.59424c-0.36757,-0.36642 -0.59492,-0.87311 -0.59492,-1.43246c0,-0.55935 0.22734,-1.06603 0.59492,-1.43245c0.36765,-0.36724 0.87475,-0.59424 1.43498,-0.59424z" data-paper-data="{&quot;index&quot;:null}" fill="#000000" stroke="none" stroke-width="1.05702" stroke-linecap="butt"/><path d="M263.92121,62.54272c2.16292,13.48807 -0.44418,14.25513 -7.69114,18.57319c-10.5594,6.29178 -24.37183,5.01806 -35.65083,9.90393c-2.96155,1.28289 -10.50991,-1.83411 -13.7374,-1.83411c-6.60116,0 -10.32586,-4.71778 -10.59864,-10.33715c-0.60167,-12.39503 5.50173,-12.44309 12.10288,-12.44309c0,0 7.26477,1.2041 9.77415,5.05833c0,0 10.1063,-16.44334 20.75976,-18.47479c13.71398,-2.61501 23.48798,-0.13256 25.04125,9.55368z" data-paper-data="{&quot;index&quot;:null}" fill="#7100f3" stroke="none" stroke-width="0" stroke-linecap="butt"/><path d="M261.30931,70.2372c0,4.93475 -1.32057,8.64737 -11.01098,8.93514c-10.22996,0.30378 -11.01099,-4.00039 -11.01099,-8.93514c0,-4.93475 4.9298,-8.93514 11.01099,-8.93514c6.08119,0 11.01098,4.00039 11.01098,8.93514z" data-paper-data="{&quot;index&quot;:null}" fill="#ffffff" stroke="none" stroke-width="0" stroke-linecap="butt"/><path d="M254.47317,63.46336l0.36246,3.1932l-4.86389,0.40569l0.67485,7.91604l-4.09297,0.48356l-0.75798,-11.26728z" data-paper-data="{&quot;index&quot;:null,&quot;origRot&quot;:0}" fill="#ffea12" stroke="#7100f3" stroke-width="1" stroke-linecap="butt"/><path d="M275.79296,111.49177l-5.21241,11.07639l-2.60622,-0.32576l-9.12173,-3.90931l-26.38785,6.18974h-3.90931l-2.93199,-3.25775l-5.21241,-12.05374l1.30312,-1.62887l9.44751,9.12173l14.33414,-1.62888l11.40216,-3.25775l10.09904,3.90931l6.18974,-5.21241z" data-paper-data="{&quot;index&quot;:null}" fill="#000000" stroke="#ff0000" stroke-width="0" stroke-linecap="round"/><path d="M218.46369,89.05646c0.90728,0 2.36907,1.62917 2.42914,1.97596c1.51732,1.51907 2.8596,3.85536 3.18623,5.98181c0.10466,0.68151 -1.50092,4.25681 -1.86896,4.74753c-1.94646,1.51394 -4.59518,2.82118 -5.69598,0.21504c-0.25622,-0.60662 0.72789,-3.2121 0.72789,-3.88002c0,-2.28043 0,-4.56085 0,-6.84129c0,0 0,-0.31425 0.15937,-0.624l-0.15937,-0.35333c0,0 0,-1.22166 1.22166,-1.22166z" data-paper-data="{&quot;index&quot;:null}" fill="#8e4108" stroke="none" stroke-width="0.5" stroke-linecap="butt"/><path d="M261.08693,75.72673c6.22154,0.086 15.34451,5.97617 14.63269,8.73881c-0.19256,0.74733 -36.40517,2.38179 -46.95485,3.42643c-5.12726,0.50772 -15.33742,3.74232 -15.14485,2.995c0.71185,-2.76264 4.99428,-8.32441 9.89989,-9.76515c5.92819,-1.74107 22.348,-5.60543 37.56715,-5.39508z" data-paper-data="{&quot;index&quot;:null}" fill="#4f05a3" stroke="none" stroke-width="0" stroke-linecap="butt"/><path d="M215.45376,91.33514l27.34939,-5.36832l31.33936,-2.03125" data-paper-data="{&quot;index&quot;:null}" fill="none" stroke="#ffffff" stroke-width="4.5" stroke-linecap="round"/><path d="M249.66046,92.0224c-0.08489,1.9528 -2.0377,1.86792 -2.0377,1.86792l-1.78771,-1.07803c-0.81444,-0.65154 -1.62887,-1.30312 -2.44332,-1.95465c-4.64773,-3.96775 -12.02756,-1.34689 -16.7379,1.34474c0,0 -1.69713,0.96977 -2.6669,-0.72734c-0.96977,-1.69712 0.72734,-2.66689 0.72734,-2.66689c6.29148,-3.59513 14.75612,-5.9134 21.1196,-1.00316c0.81444,0.65154 2.28639,1.68822 2.28639,1.68822c0,0 1.62514,0.57641 1.54024,2.52922z" data-paper-data="{&quot;index&quot;:null}" fill="#000000" stroke="none" stroke-width="0.5" stroke-linecap="butt"/><path d="M261.55945,85.11084c0.95506,1.70545 -0.7504,2.66051 -0.7504,2.66051l-2.25816,0.24921c-2.75376,0 -4.09599,0.55147 -4.98694,3.22433c0,0 -0.61813,1.85435 -2.47246,1.23624c-1.85437,-0.61811 -1.23624,-2.47246 -1.23624,-2.47246c1.3885,-4.16549 6.04007,-5.37512 6.04007,-5.37512c0,0 4.70908,-1.22811 5.66415,0.47734z" data-paper-data="{&quot;index&quot;:null}" fill="#000000" stroke="none" stroke-width="0.5" stroke-linecap="butt"/><path d="M257.91058,91.05511c0.48493,0 0.92382,0.19645 1.24196,0.51431c0.3182,0.31713 0.51496,0.75566 0.51496,1.23977c0,0.48412 -0.19676,0.92263 -0.51496,1.23976c-0.31813,0.31785 -0.75702,0.51432 -1.24196,0.51432c-0.48488,0 -0.92376,-0.19646 -1.24196,-0.51432c-0.31812,-0.31713 -0.5149,-0.75565 -0.5149,-1.23976c0,-0.48412 0.19675,-0.92264 0.5149,-1.23977c0.3182,-0.31785 0.75707,-0.51431 1.24196,-0.51431z" data-paper-data="{&quot;index&quot;:null}" fill="#000000" stroke="none" stroke-width="1.05702" stroke-linecap="butt"/><path d="M246.43103,102.56247c0.21224,-1.40103 0.12975,-3.15451 0.53847,-4.25848c0.90288,-2.43874 3.61727,-3.57427 6.00467,-3.57427c8.01081,0 20.47939,3.06186 20.47939,12.90202c-0.06007,2.90027 -0.61275,5.42749 -2.9257,7.4309c-1.13332,0.98166 -3.23136,1.01816 -4.65268,1.16029c-4.42435,0.44245 -9.52436,1.05371 -13.91702,0.17518c-3.84212,-1.01882 -7.55935,-0.60591 -10.60431,-3.88072c-2.14039,-2.30195 -1.84573,-6.66395 -0.19913,-9.03984c0.79581,-1.14827 3.60345,-0.96566 4.85647,-0.96566c0,0 0.17367,0 0.41985,0.05057z" fill="url(#color-6)" stroke="none" stroke-width="0.5" stroke-linecap="butt"/></g></g></g></svg>