<svg version="1.1" xmlns="http://www.w3.org/2000/svg" xmlns:xlink="http://www.w3.org/1999/xlink" width="493" height="79.00001" viewBox="0,0,493,79.00001"><g transform="translate(6.5,-282.5)"><g data-paper-data="{&quot;isPaintingLayer&quot;:true}" fill="#001ee8" fill-rule="nonzero" stroke="#001f66" stroke-width="2" stroke-linecap="butt" stroke-linejoin="miter" stroke-miterlimit="10" stroke-dasharray="" stroke-dashoffset="0" style="mix-blend-mode: normal"><path d="M11.50098,303.46751l7.13857,-10.86466l66.85947,43.92963l-7.13857,10.86466z" data-paper-data="{&quot;index&quot;:null}"/><path d="M89.63955,351.39715l-7.13856,-10.86466l66.85947,-43.92963l7.13856,10.86466z" data-paper-data="{&quot;index&quot;:null}"/><path d="M149.50098,306.46751l7.13856,-10.86466l66.85947,43.92963l-7.13856,10.86466z" data-paper-data="{&quot;index&quot;:null}"/><path d="M217.63955,351.39715l-7.13856,-10.86466l66.85947,-43.92963l7.13856,10.86466z" data-paper-data="{&quot;index&quot;:null}"/><path d="M406.50098,308.46751l7.13857,-10.86466l66.85947,43.92963l-7.13857,10.86466z" data-paper-data="{&quot;index&quot;:null}"/><path d="M346.63955,351.39715l-7.13857,-10.86466l66.85947,-43.92963l7.13857,10.86466z" data-paper-data="{&quot;index&quot;:null}"/><path d="M278.50099,308.46751l7.13856,-10.86466l66.85947,43.92963l-7.13857,10.86466z" data-paper-data="{&quot;index&quot;:null}"/><path d="M-4.5,306.5v-23h490v23z" data-paper-data="{&quot;index&quot;:null}"/><path d="M-5.5,360.50001v-23h491v23z" data-paper-data="{&quot;index&quot;:null}"/></g></g></svg>