<svg version="1.1" xmlns="http://www.w3.org/2000/svg" xmlns:xlink="http://www.w3.org/1999/xlink" width="191" height="246.85849" viewBox="0,0,191,246.85849"><defs><linearGradient x1="248.49378" y1="137.20351" x2="248.49378" y2="223.85227" gradientUnits="userSpaceOnUse" id="color-1"><stop offset="0" stop-color="#e6a902"/><stop offset="1" stop-color="#c78602"/></linearGradient><linearGradient x1="238.83955" y1="137.48105" x2="238.83955" y2="224.12979" gradientUnits="userSpaceOnUse" id="color-2"><stop offset="0" stop-color="#fff300"/><stop offset="1" stop-color="#ffbb00"/></linearGradient><linearGradient x1="238.96261" y1="146.38795" x2="238.96261" y2="211.92998" gradientUnits="userSpaceOnUse" id="color-3"><stop offset="0" stop-color="#e6a902"/><stop offset="1" stop-color="#c78602"/></linearGradient></defs><g transform="translate(-158,-58.64151)"><g data-paper-data="{&quot;isPaintingLayer&quot;:true}" fill-rule="nonzero" stroke="none" stroke-linecap="butt" stroke-linejoin="miter" stroke-miterlimit="10" stroke-dasharray="" stroke-dashoffset="0" style="mix-blend-mode: normal"><path d="M158,305.5v-246.85849h191v246.85849z" fill="none" stroke-width="0"/><path d="M158,305.5v-246.85849h191v246.85849z" fill="none" stroke-width="0"/><g><path d="M248.49378,137.20351c9.86694,0 18.80686,4.85552 25.2808,12.6984c6.47391,7.84252 10.48183,18.6727 10.48183,30.62598c0,11.95289 -4.00791,22.78346 -10.48183,30.62598c-6.47391,7.84288 -15.41386,12.6984 -25.2808,12.6984c-9.86694,0 -18.80686,-4.85552 -25.2808,-12.6984c-6.47391,-7.84252 -10.48183,-18.67306 -10.48183,-30.62598c0,-11.95325 4.00791,-22.78346 10.48183,-30.62598c6.47391,-7.84288 15.41386,-12.6984 25.2808,-12.6984z" data-paper-data="{&quot;origPos&quot;:null}" fill="url(#color-1)" stroke-width="0.44036"/><path d="M238.83955,137.48105c9.86694,0 18.80686,4.85552 25.2808,12.6984c6.47391,7.84252 10.48183,18.6727 10.48183,30.62598c0,11.95289 -4.00791,22.78346 -10.48183,30.62598c-6.47391,7.84288 -15.41386,12.6984 -25.2808,12.6984c-9.86694,0 -18.80686,-4.85552 -25.2808,-12.6984c-6.47391,-7.84252 -10.48183,-18.67306 -10.48183,-30.62598c0,-11.95325 4.00791,-22.78346 10.48183,-30.62598c6.47391,-7.84288 15.41386,-12.6984 25.2808,-12.6984z" fill="url(#color-2)" stroke-width="0.44036"/><path d="M232.76336,146.38795h12.39849v65.54203h-12.39849z" data-paper-data="{&quot;origPos&quot;:null}" fill="url(#color-3)" stroke-width="0.59798"/></g></g></g></svg>