<svg version="1.1" xmlns="http://www.w3.org/2000/svg" xmlns:xlink="http://www.w3.org/1999/xlink" width="559.43156" height="401.59578" viewBox="0,0,559.43156,401.59578"><defs><linearGradient x1="37.70681" y1="89.56281" x2="37.70681" y2="378.16901" gradientUnits="userSpaceOnUse" id="color-1"><stop offset="0" stop-color="#5290a4"/><stop offset="1" stop-color="#072034"/></linearGradient><linearGradient x1="178.41975" y1="136.35024" x2="178.41975" y2="388.48796" gradientUnits="userSpaceOnUse" id="color-2"><stop offset="0" stop-color="#5290a4"/><stop offset="1" stop-color="#072034"/></linearGradient><linearGradient x1="132.45352" y1="161.67855" x2="132.45352" y2="413.81629" gradientUnits="userSpaceOnUse" id="color-3"><stop offset="0" stop-color="#5290a4"/><stop offset="1" stop-color="#072034"/></linearGradient><linearGradient x1="340.70868" y1="94.22216" x2="340.70868" y2="379.1071" gradientUnits="userSpaceOnUse" id="color-4"><stop offset="0" stop-color="#5290a4"/><stop offset="1" stop-color="#072034"/></linearGradient><linearGradient x1="284.43039" y1="164.7231" x2="231.13753" y2="411.16437" gradientUnits="userSpaceOnUse" id="color-5"><stop offset="0" stop-color="#5290a4"/><stop offset="1" stop-color="#072034"/></linearGradient><linearGradient x1="416.70057" y1="140.33283" x2="363.4077" y2="386.77413" gradientUnits="userSpaceOnUse" id="color-6"><stop offset="0" stop-color="#5290a4"/><stop offset="1" stop-color="#072034"/></linearGradient><linearGradient x1="439.16179" y1="150.66617" x2="476.31285" y2="400.05189" gradientUnits="userSpaceOnUse" id="color-7"><stop offset="0" stop-color="#5290a4"/><stop offset="1" stop-color="#072034"/></linearGradient></defs><g transform="translate(24.12773,-14.39901)"><g data-paper-data="{&quot;isPaintingLayer&quot;:true}" fill-rule="nonzero" stroke="none" stroke-width="0.5" stroke-linecap="butt" stroke-linejoin="miter" stroke-miterlimit="10" stroke-dasharray="" stroke-dashoffset="0" style="mix-blend-mode: normal"><path d="M-18.73505,368.54501c-0.03836,-0.01428 -0.0768,-0.02878 -0.11535,-0.04349c-10.67269,-4.07211 -1.8975,-54.91534 -1.64658,-57.00735c0.90942,-7.58207 60.68479,-281.12799 68.11744,-289.40124c9.09862,-6.83464 20.58831,-10.93403 30.93156,-4.40744c9.44808,5.96174 14.95989,281.87856 15.68677,286.98483c1.34147,9.42368 10.06775,60.00573 1.75722,69.81882c-2.95164,3.4853 -8.10836,3.02031 -12.3103,3.67515c-1.35308,0.21087 -83.08102,-6.72735 -94.01057,-6.72735h-0.9936c0,0 -4.15654,0 -7.4166,-2.89195z" fill="url(#color-1)"/><path d="M121.9779,380.08006c-0.03836,-0.01248 -0.0768,-0.02514 -0.11535,-0.03799c-10.67269,-3.55756 -1.8975,-47.9762 -1.64658,-49.80386c0.90942,-6.624 60.68479,-245.60446 68.11744,-252.8323c9.09862,-5.97101 20.58831,-9.5524 30.93156,-3.85051c9.44808,5.20841 14.95989,246.26019 15.68677,250.72123c1.34147,8.2329 10.06775,52.42336 1.75722,60.99646c-2.95164,3.0449 -8.10836,2.63866 -12.3103,3.21076c-1.35308,0.18422 -83.08102,-5.87728 -94.01057,-5.87728h-0.9936c0,0 -4.15654,0 -7.4166,-2.52652z" fill="url(#color-2)"/><path d="M188.8954,405.40838c-3.26006,2.52652 -7.4166,2.52652 -7.4166,2.52652h-0.9936c-10.92955,0 -92.65749,6.0615 -94.01057,5.87728c-4.20194,-0.5721 -9.35866,-0.16586 -12.3103,-3.21076c-8.31053,-8.5731 0.41575,-52.76356 1.75722,-60.99646c0.72688,-4.46104 6.23869,-245.51282 15.68677,-250.72123c10.34325,-5.70189 21.83294,-2.1205 30.93156,3.85051c7.43265,7.22784 67.20802,246.2083 68.11744,252.8323c0.25092,1.82766 9.02611,46.2463 -1.64658,49.80386c-0.03855,0.01285 -0.07699,0.02551 -0.11535,0.03799z" data-paper-data="{&quot;index&quot;:null}" fill="url(#color-3)"/><path d="M397.15056,369.60718c-3.26006,2.85466 -7.4166,2.85466 -7.4166,2.85466h-0.9936c-10.92955,0 -92.65749,6.84875 -94.01057,6.64061c-4.20194,-0.64641 -9.35866,-0.1874 -12.3103,-3.62777c-8.31053,-9.68656 0.41575,-59.6164 1.75722,-68.91857c0.72688,-5.04043 6.23868,-277.3996 15.68676,-283.28446c10.34325,-6.44244 21.83294,-2.3959 30.93156,4.35061c7.43265,8.16658 67.20801,278.1854 68.11744,285.66972c0.25092,2.06504 9.02611,52.25269 -1.64658,56.2723c-0.03855,0.01452 -0.07699,0.02883 -0.11535,0.04293z" data-paper-data="{&quot;index&quot;:null}" fill="url(#color-4)"/><path d="M288.08137,414.8762c-3.72042,1.78038 -7.78305,0.90184 -7.78305,0.90184l-0.97116,-0.21001c-10.68262,-2.31011 -91.84529,-13.65992 -93.12887,-14.12597c-3.98609,-1.44732 -9.11217,-2.1402 -11.35354,-5.74018c-6.31073,-10.13596 11.55868,-51.48361 14.60998,-59.24697c1.65336,-4.20661 57.99034,-238.64741 68.32584,-241.74117c11.31475,-3.38688 21.78787,2.54211 29.41888,10.30134c5.73702,8.63554 13.65,254.85118 13.1388,261.51774c-0.14105,1.8394 -0.95263,47.10927 -12.13613,48.33063c-0.04039,0.00441 -0.08064,0.00866 -0.12077,0.01275z" data-paper-data="{&quot;index&quot;:null}" fill="url(#color-5)"/><path d="M420.35154,390.48595c-3.72042,1.78038 -7.78305,0.90184 -7.78305,0.90184l-0.97116,-0.21001c-10.68262,-2.31011 -91.8453,-13.65992 -93.12887,-14.12597c-3.98609,-1.44732 -9.11217,-2.1402 -11.35354,-5.74018c-6.31073,-10.13596 11.55868,-51.48361 14.60998,-59.24697c1.65336,-4.20661 57.99034,-238.64741 68.32584,-241.74117c11.31475,-3.38688 21.78787,2.54211 29.41887,10.30134c5.73702,8.63554 13.65001,254.85118 13.13881,261.51774c-0.14105,1.8394 -0.95263,47.10927 -12.13613,48.33063c-0.04039,0.00441 -0.08064,0.00866 -0.12077,0.01275z" data-paper-data="{&quot;index&quot;:null}" fill="url(#color-6)"/><path d="M419.24819,400.05214c-0.03978,-0.00669 -0.07966,-0.01355 -0.11969,-0.02058c-11.08038,-1.94617 -8.94581,-47.17296 -8.96692,-49.01765c-0.07651,-6.6857 23.834,-251.86531 30.12054,-260.10942c8.11951,-7.24647 18.9561,-12.48171 30.0266,-8.36607c10.11239,3.75944 51.08164,241.36807 52.4579,245.67332c2.5399,7.94538 17.68214,50.36775 10.72552,60.07179c-2.47078,3.44657 -7.63107,3.80457 -11.70285,4.98956c-1.31117,0.38158 -83.0402,6.42839 -93.85045,8.03879l-0.98276,0.1464c0,0 -4.11118,0.61244 -7.70792,-1.40615z" data-paper-data="{&quot;index&quot;:null}" fill="url(#color-7)"/></g></g></svg>