<svg version="1.1" xmlns="http://www.w3.org/2000/svg" xmlns:xlink="http://www.w3.org/1999/xlink" width="660.18018" height="370.51051" viewBox="0,0,660.18018,370.51051"><defs><linearGradient x1="318.49858" y1="-10.51049" x2="318.49858" y2="360.00003" gradientUnits="userSpaceOnUse" id="color-1"><stop offset="0" stop-color="#181c8f"/><stop offset="1" stop-color="#195490"/></linearGradient><linearGradient x1="277.39372" y1="56.55752" x2="277.39372" y2="99.25912" gradientUnits="userSpaceOnUse" id="color-2"><stop offset="0" stop-color="#ffffff" stop-opacity="0"/><stop offset="1" stop-color="#ffffff"/></linearGradient><linearGradient x1="362.43321" y1="8.3651" x2="362.43321" y2="50.18531" gradientUnits="userSpaceOnUse" id="color-3"><stop offset="0" stop-color="#ffffff" stop-opacity="0"/><stop offset="1" stop-color="#ffffff"/></linearGradient><linearGradient x1="375.16449" y1="274.21324" x2="375.16449" y2="319.21324" gradientUnits="userSpaceOnUse" id="color-4"><stop offset="0" stop-color="#ffffff" stop-opacity="0"/><stop offset="1" stop-color="#ffffff"/></linearGradient><linearGradient x1="263.83393" y1="243.17314" x2="263.83393" y2="285.87471" gradientUnits="userSpaceOnUse" id="color-5"><stop offset="0" stop-color="#ffffff" stop-opacity="0"/><stop offset="1" stop-color="#ffffff"/></linearGradient><linearGradient x1="369.27914" y1="147.90757" x2="369.27914" y2="193.10797" gradientUnits="userSpaceOnUse" id="color-6"><stop offset="0" stop-color="#ffffff" stop-opacity="0"/><stop offset="1" stop-color="#ffffff"/></linearGradient><linearGradient x1="75.25177" y1="267.29098" x2="75.25177" y2="312.96528" gradientUnits="userSpaceOnUse" id="color-7"><stop offset="0" stop-color="#ffffff" stop-opacity="0"/><stop offset="1" stop-color="#ffffff"/></linearGradient><linearGradient x1="129.76075" y1="199.69319" x2="129.76075" y2="243.72688" gradientUnits="userSpaceOnUse" id="color-8"><stop offset="0" stop-color="#ffffff" stop-opacity="0"/><stop offset="1" stop-color="#ffffff"/></linearGradient><linearGradient x1="476.46673" y1="201.54423" x2="476.46673" y2="243.26534" gradientUnits="userSpaceOnUse" id="color-9"><stop offset="0" stop-color="#ffffff" stop-opacity="0"/><stop offset="1" stop-color="#ffffff"/></linearGradient><linearGradient x1="502.20923" y1="261.01256" x2="502.20923" y2="304.44705" gradientUnits="userSpaceOnUse" id="color-10"><stop offset="0" stop-color="#ffffff" stop-opacity="0"/><stop offset="1" stop-color="#ffffff"/></linearGradient></defs><g transform="translate(11.59153,10.5105)"><g data-paper-data="{&quot;isPaintingLayer&quot;:true}" fill-rule="nonzero" stroke-linejoin="miter" stroke-miterlimit="10" stroke-dasharray="" stroke-dashoffset="0" style="mix-blend-mode: normal"><path d="M-11.59152,-10.51049h660.18018v370.51051h-660.18018z" data-paper-data="{&quot;origPos&quot;:null}" fill="url(#color-1)" stroke="none" stroke-width="1" stroke-linecap="butt"/><g stroke="#ffde00" stroke-width="1"><path d="M450.53745,129.84492c-27.33585,0 -49.49594,-22.82733 -49.49594,-50.98627c0,-28.15894 22.16009,-50.98627 49.49594,-50.98627c27.33585,0 49.49594,22.82733 49.49594,50.98627c0,28.15894 -22.16009,50.98627 -49.49594,50.98627z" data-paper-data="{&quot;index&quot;:null}" fill="#00163b" stroke-linecap="butt"/><path d="M401.04151,180.53819v-101.97254h98.99188v101.97254z" data-paper-data="{&quot;index&quot;:null}" fill="#00163b" stroke-linecap="butt"/><path d="M401.82378,129.15633h98.1385" data-paper-data="{&quot;index&quot;:null}" fill="none" stroke-linecap="round"/><path d="M450.46634,179.26353v-151.20067" data-paper-data="{&quot;index&quot;:null}" fill="none" stroke-linecap="round"/></g><g stroke="#ffde00" stroke-width="1"><path d="M189.46268,131.28425c-27.33585,0 -49.49594,-22.82733 -49.49594,-50.98627c0,-28.15894 22.16009,-50.98627 49.49594,-50.98627c27.33585,0 49.49594,22.82733 49.49594,50.98627c0,28.15894 -22.16009,50.98627 -49.49594,50.98627z" data-paper-data="{&quot;index&quot;:null}" fill="#00163b" stroke-linecap="butt"/><path d="M139.96673,181.9775v-101.97254h98.99188v101.97254z" data-paper-data="{&quot;index&quot;:null}" fill="#00163b" stroke-linecap="butt"/><path d="M238.88749,130.59563h-98.1385" data-paper-data="{&quot;index&quot;:null}" fill="none" stroke-linecap="round"/><path d="M189.39156,180.70284v-151.20067" data-paper-data="{&quot;index&quot;:null}" fill="none" stroke-linecap="round"/></g><path d="M262.30312,56.55752l13.1942,11.6689l16.352,-7.9915l-7.4321,13.4169l15.6467,5.425l-19.5856,2.1569l-7.3203,18.0254l-1.9337,-17.0957l-16.5008,4.0892l13.4527,-13.4545z" fill="url(#color-2)" stroke="none" stroke-width="0" stroke-linecap="round"/><path d="M382.11736,48.3017l-15.1347,-9.0105l-14.5798,10.8941l4.8062,-14.5654l-16.3828,-2.4194l18.8425,-5.7629l3.839,-19.0725l5.0804,16.4374l15.452,-7.0876l-10.7147,15.7223z" fill="url(#color-3)" stroke="none" stroke-width="0" stroke-linecap="round"/><path d="M380.16449,300.21324l-1,19l-8,-15l-14,10l8.5,-17.5l-11.5,-16l14.5,8l5,-14.5l5,17.5l17.5,2z" data-paper-data="{&quot;index&quot;:null}" fill="url(#color-4)" stroke="none" stroke-width="0" stroke-linecap="round"/><path d="M273.05143,259.41373l13.4527,13.4545l-16.5008,-4.0892l-1.9337,17.0957l-7.3203,-18.0254l-19.5856,-2.1569l15.6467,-5.425l-7.4321,-13.4169l16.352,7.9915l13.1942,-11.6689z" data-paper-data="{&quot;index&quot;:null}" fill="url(#color-5)" stroke="none" stroke-width="0" stroke-linecap="round"/><path d="M373.45033,174.67907l-4.72984,18.42889l-4.88256,-16.2837l-15.69807,7.04054l11.78631,-15.47841l-8.1164,-17.9548l12.63612,10.70412l7.76316,-13.22814l1.44823,18.14262l16.76114,5.41408z" data-paper-data="{&quot;index&quot;:null}" fill="url(#color-6)" stroke="none" stroke-width="0" stroke-linecap="round"/><path d="M80.32846,298.77168l-12.6706,14.1936l3.1476,-16.7061l-17.1777,-0.9619l17.5816,-8.3299l1.0436,-19.6764l6.3029,15.3142l12.9742,-8.1804l-7.052,16.7785l12.3977,12.5118z" data-paper-data="{&quot;index&quot;:null}" fill="url(#color-7)" stroke="none" stroke-width="0" stroke-linecap="round"/><path d="M135.85377,216.92799l16.6767,9.1591l-16.9862,0.6849l2.9208,16.9549l-12.0659,-15.2615l-19.4081,3.4023l13.5073,-9.5814l-10.8854,-10.8055l17.9337,3.1035l9.4077,-14.8911z" data-paper-data="{&quot;index&quot;:null}" fill="url(#color-8)" stroke="none" stroke-width="0" stroke-linecap="round"/><path d="M487.28838,218.10783l10.8525,15.6276l-15.5137,-6.9516l-4.9358,16.4815l-4.0065,-19.0381l-18.8923,-5.5971l16.3609,-2.5633l-4.934,-14.5226l14.6749,10.7656l15.055,-9.1431z" data-paper-data="{&quot;index&quot;:null}" fill="url(#color-9)" stroke="none" stroke-width="0" stroke-linecap="round"/><path d="M505.13264,275.90945l18.94588,-1.74704l-13.69132,10.07707l11.91224,12.41373l-18.54185,-5.89076l-14.17672,13.68457l5.82804,-15.50108l-15.06898,-2.85939l16.59738,-7.46844l-0.54144,-17.60557z" data-paper-data="{&quot;index&quot;:null}" fill="url(#color-10)" stroke="none" stroke-width="0" stroke-linecap="round"/><g fill="none" stroke="none" stroke-width="1" stroke-linecap="butt" font-family="sans-serif" font-weight="normal" font-size="12" text-anchor="start"/></g></g></svg>