<svg version="1.1" xmlns="http://www.w3.org/2000/svg" xmlns:xlink="http://www.w3.org/1999/xlink" width="780.06824" height="542.05053" viewBox="0,0,780.06824,542.05053"><defs><linearGradient x1="-154.23154" y1="-155.99215" x2="-154.23154" y2="386.05841" gradientUnits="userSpaceOnUse" id="color-1"><stop offset="0" stop-color="#001966"/><stop offset="1" stop-color="#006666"/></linearGradient><linearGradient x1="217.82313" y1="70.94671" x2="217.82313" y2="218.66305" gradientUnits="userSpaceOnUse" id="color-2"><stop offset="0" stop-color="#edf3f8"/><stop offset="1" stop-color="#cedee9"/></linearGradient><linearGradient x1="237.42131" y1="131.87144" x2="237.42131" y2="152.12645" gradientUnits="userSpaceOnUse" id="color-3"><stop offset="0" stop-color="#ff4040"/><stop offset="1" stop-color="#c33131"/></linearGradient><linearGradient x1="271.34048" y1="172.00535" x2="239.36606" y2="175.35324" gradientUnits="userSpaceOnUse" id="color-4"><stop offset="0" stop-color="#ffffff"/><stop offset="1" stop-color="#ffffff" stop-opacity="0"/></linearGradient><linearGradient x1="204.28866" y1="171.82648" x2="236.30592" y2="174.65823" gradientUnits="userSpaceOnUse" id="color-5"><stop offset="0" stop-color="#979797"/><stop offset="1" stop-color="#979797" stop-opacity="0"/></linearGradient><linearGradient x1="235.90843" y1="210.70253" x2="235.90843" y2="237.06095" gradientUnits="userSpaceOnUse" id="color-6"><stop offset="0" stop-color="#ff4040"/><stop offset="1" stop-color="#c33131"/></linearGradient><linearGradient x1="109.60025" y1="219.48864" x2="154.38226" y2="219.48864" gradientUnits="userSpaceOnUse" id="color-7"><stop offset="0" stop-color="#c33131"/><stop offset="1" stop-color="#ff4040"/></linearGradient><linearGradient x1="317.05534" y1="219.48864" x2="361.83734" y2="219.48864" gradientUnits="userSpaceOnUse" id="color-8"><stop offset="0" stop-color="#c33131"/><stop offset="1" stop-color="#ff4040"/></linearGradient><linearGradient x1="118.91993" y1="287.19009" x2="151.05708" y2="287.19009" gradientUnits="userSpaceOnUse" id="color-9"><stop offset="0" stop-color="#d6dde2"/><stop offset="1" stop-color="#d6dde2" stop-opacity="0"/></linearGradient><linearGradient x1="321.4814" y1="287.69108" x2="353.61856" y2="287.69108" gradientUnits="userSpaceOnUse" id="color-10"><stop offset="0" stop-color="#d6dde2"/><stop offset="1" stop-color="#d6dde2" stop-opacity="0"/></linearGradient><linearGradient x1="206.56672" y1="300.21517" x2="238.70388" y2="300.21517" gradientUnits="userSpaceOnUse" id="color-11"><stop offset="0" stop-color="#d6dde2"/><stop offset="1" stop-color="#d6dde2" stop-opacity="0"/></linearGradient><linearGradient x1="268.4064" y1="300.71615" x2="236.26925" y2="300.71615" gradientUnits="userSpaceOnUse" id="color-12"><stop offset="0" stop-color="#ffffff"/><stop offset="1" stop-color="#ffffff" stop-opacity="0"/></linearGradient><linearGradient x1="496.95853" y1="202.37411" x2="538.40413" y2="202.37411" gradientUnits="userSpaceOnUse" id="color-13"><stop offset="0" stop-color="#de540f"/><stop offset="1" stop-color="#f06529"/></linearGradient><linearGradient x1="-78.04147" y1="202.82415" x2="-36.59587" y2="202.82415" gradientUnits="userSpaceOnUse" id="color-14"><stop offset="0" stop-color="#de540f"/><stop offset="1" stop-color="#f06529"/></linearGradient><linearGradient x1="29.90843" y1="211.64262" x2="29.90843" y2="237.26246" gradientUnits="userSpaceOnUse" id="color-15"><stop offset="0" stop-color="#ff4040"/><stop offset="1" stop-color="#c33131"/></linearGradient><linearGradient x1="-96.39975" y1="220.18256" x2="-51.61774" y2="220.18256" gradientUnits="userSpaceOnUse" id="color-16"><stop offset="0" stop-color="#c33131"/><stop offset="1" stop-color="#ff4040"/></linearGradient><linearGradient x1="-87.08007" y1="285.98692" x2="-54.94292" y2="285.98692" gradientUnits="userSpaceOnUse" id="color-17"><stop offset="0" stop-color="#d6dde2"/><stop offset="1" stop-color="#d6dde2" stop-opacity="0"/></linearGradient><linearGradient x1="450.09156" y1="212.64262" x2="450.09156" y2="238.26246" gradientUnits="userSpaceOnUse" id="color-18"><stop offset="0" stop-color="#ff4040"/><stop offset="1" stop-color="#c33131"/></linearGradient><linearGradient x1="576.39974" y1="221.18256" x2="531.61773" y2="221.18256" gradientUnits="userSpaceOnUse" id="color-19"><stop offset="0" stop-color="#c33131"/><stop offset="1" stop-color="#ff4040"/></linearGradient><linearGradient x1="567.08006" y1="286.98692" x2="534.94291" y2="286.98692" gradientUnits="userSpaceOnUse" id="color-20"><stop offset="0" stop-color="#d6dde2"/><stop offset="1" stop-color="#d6dde2" stop-opacity="0"/></linearGradient><linearGradient x1="237.2091" y1="34.39078" x2="237.2091" y2="73.98151" gradientUnits="userSpaceOnUse" id="color-21"><stop offset="0" stop-color="#ff4040"/><stop offset="1" stop-color="#c33131"/></linearGradient><linearGradient x1="246.45163" y1="326.34456" x2="246.45163" y2="384.04669" gradientUnits="userSpaceOnUse" id="color-22"><stop offset="0" stop-color="#8d5418"/><stop offset="1" stop-color="#c06520"/></linearGradient><linearGradient x1="246.10726" y1="314.75068" x2="246.10726" y2="351.7613" gradientUnits="userSpaceOnUse" id="color-23"><stop offset="0" stop-color="#7fea5b"/><stop offset="1" stop-color="#61b245"/></linearGradient></defs><g transform="translate(154.23154,155.99215)"><g data-paper-data="{&quot;isPaintingLayer&quot;:true}" fill-rule="nonzero" stroke-linejoin="miter" stroke-miterlimit="10" stroke-dasharray="" stroke-dashoffset="0" style="mix-blend-mode: normal"><path d="M-154.23154,-155.99215h780.06824v542.05053h-780.06824z" fill="url(#color-1)" stroke="#000000" stroke-width="0" stroke-linecap="butt"/><path d="M46.78253,-6.65329l-0.3,-0.3" fill="none" stroke="#cccccc" stroke-width="2" stroke-linecap="round"/><path d="M72.78253,50.34671l-0.3,-0.3" fill="none" stroke="#cccccc" stroke-width="2" stroke-linecap="round"/><path d="M284.48253,38.04671l0.3,0.3" fill="none" stroke="#cccccc" stroke-width="2" stroke-linecap="round"/><path d="M161.48253,12.04671l0.3,0.3" fill="none" stroke="#cccccc" stroke-width="2" stroke-linecap="round"/><path d="M193.48253,66.04671l0.3,0.3" fill="none" stroke="#cccccc" stroke-width="2" stroke-linecap="round"/><path d="M257.48253,8.04671l0.3,0.3" fill="none" stroke="#cccccc" stroke-width="2" stroke-linecap="round"/><path d="M448.78253,20.3467l-0.3,-0.3" fill="none" stroke="#cccccc" stroke-width="2" stroke-linecap="round"/><path d="M436.48253,85.04671l0.3,0.3" fill="none" stroke="#cccccc" stroke-width="2" stroke-linecap="round"/><path d="M417.48253,126.04671l0.3,0.3" fill="none" stroke="#cccccc" stroke-width="2" stroke-linecap="round"/><path d="M364.78253,111.34671l-0.3,-0.3" fill="none" stroke="#cccccc" stroke-width="2" stroke-linecap="round"/><path d="M364.48253,32.0467l0.3,0.3" fill="none" stroke="#cccccc" stroke-width="2" stroke-linecap="round"/><path d="M284.78253,212.34673l-0.3,-0.3" fill="none" stroke="#cccccc" stroke-width="2" stroke-linecap="round"/><path d="M161.48253,161.04669l0.3,0.3" fill="none" stroke="#cccccc" stroke-width="2" stroke-linecap="round"/><path d="M28.78253,130.34671l-0.3,-0.3" fill="none" stroke="#cccccc" stroke-width="2" stroke-linecap="round"/><path d="M89.48253,120.04671l0.3,0.3" fill="none" stroke="#cccccc" stroke-width="2" stroke-linecap="round"/><path d="M35.78253,310.34671l-0.3,-0.3" fill="none" stroke="#cccccc" stroke-width="2" stroke-linecap="round"/><path d="M101.48253,222.04671l0.3,0.3" fill="none" stroke="#cccccc" stroke-width="2" stroke-linecap="round"/><path d="M156.48253,287.0467l0.3,0.3" fill="none" stroke="#cccccc" stroke-width="2" stroke-linecap="round"/><path d="M226.48253,252.04671l0.3,0.3" fill="none" stroke="#cccccc" stroke-width="2" stroke-linecap="round"/><path d="M302.78253,291.34671l-0.3,-0.3" fill="none" stroke="#cccccc" stroke-width="2" stroke-linecap="round"/><path d="M378.48253,270.0467l0.3,0.3" fill="none" stroke="#cccccc" stroke-width="2" stroke-linecap="round"/><path d="M444.78253,278.34671l-0.3,-0.3" fill="none" stroke="#cccccc" stroke-width="2" stroke-linecap="round"/><path d="M415.78253,189.34675l-0.3,-0.3" fill="none" stroke="#cccccc" stroke-width="2" stroke-linecap="round"/><path d="M353.48253,187.04672l0.3,0.3" fill="none" stroke="#cccccc" stroke-width="2" stroke-linecap="round"/><path d="M297.78253,140.34669l-0.3,-0.3" fill="none" stroke="#cccccc" stroke-width="2" stroke-linecap="round"/><path d="M270.48253,99.04671l0.3,0.3" fill="none" stroke="#cccccc" stroke-width="2" stroke-linecap="round"/><path d="M214.78253,109.34671l-0.3,-0.3" fill="none" stroke="#cccccc" stroke-width="2" stroke-linecap="round"/><path d="M207.78253,166.34671l-0.3,-0.3" fill="none" stroke="#cccccc" stroke-width="2" stroke-linecap="round"/><path d="M133.48253,82.04671l0.3,0.3" fill="none" stroke="#cccccc" stroke-width="2" stroke-linecap="round"/><path d="M365.48253,71.04671l0.3,0.3" fill="none" stroke="#cccccc" stroke-width="2" stroke-linecap="round"/><path d="M316.78253,102.34671l-0.3,-0.3" fill="none" stroke="#cccccc" stroke-width="2" stroke-linecap="round"/><path d="M83.78253,194.34672l-0.3,-0.3" fill="none" stroke="#cccccc" stroke-width="2" stroke-linecap="round"/><path d="M53.48253,228.04671l0.3,0.3" fill="none" stroke="#cccccc" stroke-width="2" stroke-linecap="round"/><path d="M160.48253,241.04671l0.3,0.3" fill="none" stroke="#cccccc" stroke-width="2" stroke-linecap="round"/><path d="M369.48253,229.04671l0.3,0.3" fill="none" stroke="#cccccc" stroke-width="2" stroke-linecap="round"/><path d="M217.82313,70.94671h39.3202v147.7163h-39.3202z" data-paper-data="{&quot;origPos&quot;:null}" fill="url(#color-2)" stroke="none" stroke-width="1.11058" stroke-linecap="butt"/><path d="M205.43967,131.87144h63.96327v20.25501h-63.96327z" data-paper-data="{&quot;origPos&quot;:null}" fill="url(#color-3)" stroke="none" stroke-width="1.06271" stroke-linecap="butt"/><path d="M327.76568,230.35625c4.53962,3.26478 7.34967,7.77346 7.34967,12.74903c0,4.97557 -2.81005,9.48426 -7.34967,12.74904c-4.53962,3.26478 -10.8088,5.28567 -17.72705,5.28567c-6.91825,0 -13.18743,-2.02089 -17.72705,-5.28567c-4.53962,-3.26478 -7.34967,-7.77347 -7.34967,-12.74904c0,-4.97557 2.81005,-9.48425 7.34967,-12.74903c4.53962,-3.26478 10.80879,-5.28567 17.72705,-5.28567c6.91825,0 13.18743,2.02088 17.72705,5.28567z" data-paper-data="{&quot;origPos&quot;:null}" fill="#718399" stroke="none" stroke-width="1" stroke-linecap="butt"/><path d="M292.70696,221.3389c4.53962,3.26478 7.34967,7.77346 7.34967,12.74904c0,4.97557 -2.81005,9.48425 -7.34967,12.74903c-4.53962,3.26478 -10.8088,5.28567 -17.72705,5.28567c-6.91825,0 -13.18743,-2.02089 -17.72705,-5.28567c-4.53961,-3.26478 -7.34967,-7.77346 -7.34967,-12.74903c0,-4.97557 2.81006,-9.48425 7.34967,-12.74904c4.53961,-3.26478 10.80879,-5.28567 17.72705,-5.28567c6.91825,0 13.18743,2.02088 17.72705,5.28567z" data-paper-data="{&quot;origPos&quot;:null}" fill="#718399" stroke="none" stroke-width="1" stroke-linecap="butt"/><path d="M286.02389,236.7721c0.39684,0.8842 0.64225,2.10505 0.64225,3.45264c0,1.3476 -0.24541,2.56844 -0.64225,3.45264c-0.39636,0.8842 -0.94415,1.43176 -1.54892,1.43176c-0.60476,0 -1.15255,-0.54756 -1.54891,-1.43176c-0.39684,-0.8842 -0.64226,-2.10504 -0.64226,-3.45264c0,-1.3476 0.24542,-2.56844 0.64226,-3.45264c0.39636,-0.8842 0.94414,-1.43176 1.54891,-1.43176c0.60476,0 1.15256,0.54756 1.54892,1.43176z" data-paper-data="{&quot;origPos&quot;:null}" fill="#000000" stroke="none" stroke-width="1" stroke-linecap="butt"/><path d="M275.79843,236.5216c0.39684,0.8842 0.64226,2.10505 0.64226,3.45264c0,1.3476 -0.24541,2.56845 -0.64226,3.45265c-0.39636,0.8842 -0.94415,1.43176 -1.54891,1.43176c-0.60476,0 -1.15255,-0.54756 -1.54891,-1.43176c-0.39684,-0.8842 -0.64226,-2.10505 -0.64226,-3.45265c0,-1.3476 0.24541,-2.56844 0.64226,-3.45264c0.39636,-0.8842 0.94415,-1.43176 1.54891,-1.43176c0.60476,0 1.15255,0.54756 1.54891,1.43176z" data-paper-data="{&quot;origPos&quot;:null}" fill="#000000" stroke="none" stroke-width="1" stroke-linecap="butt"/><path d="M155.77103,245.53896c0.39685,0.8842 0.64226,2.10505 0.64226,3.45264c0,1.3476 -0.24541,2.56844 -0.64226,3.45264c-0.39636,0.8842 -0.94415,1.43176 -1.54891,1.43176c-0.60476,0 -1.15255,-0.54756 -1.54891,-1.43176c-0.39685,-0.8842 -0.64226,-2.10505 -0.64226,-3.45264c0,-1.3476 0.24541,-2.56844 0.64226,-3.45264c0.39636,-0.8842 0.94415,-1.43176 1.54891,-1.43176c0.60476,0 1.15256,0.54756 1.54891,1.43176z" data-paper-data="{&quot;origPos&quot;:null}" fill="#000000" stroke="none" stroke-width="1" stroke-linecap="butt"/><path d="M172.32653,245.16324c0.39685,0.8842 0.64226,2.10505 0.64226,3.45265c0,1.3476 -0.24541,2.56844 -0.64226,3.45264c-0.39636,0.8842 -0.94415,1.43176 -1.54891,1.43176c-0.60476,0 -1.15256,-0.54756 -1.54892,-1.43176c-0.39685,-0.8842 -0.64225,-2.10504 -0.64225,-3.45264c0,-1.3476 0.24541,-2.56845 0.64225,-3.45265c0.39636,-0.8842 0.94415,-1.43175 1.54892,-1.43175c0.60476,0 1.15256,0.54755 1.54891,1.43175z" data-paper-data="{&quot;origPos&quot;:null}" fill="#000000" stroke="none" stroke-width="1" stroke-linecap="butt"/><g data-paper-data="{&quot;origPos&quot;:null,&quot;origRot&quot;:0}" stroke="none"><path d="M274.71927,209.54907l-73.48271,-0.9159l5.04266,-57.81203l14.56495,-13.94596l35.0489,0.00773l13.38972,13.49474z" data-paper-data="{&quot;origPos&quot;:null}" fill="#ebf2f7" stroke-width="2.16315" stroke-linecap="round"/><path d="M244.31116,225.69034l-8.73637,-88.9292l20.25189,0.21066l13.68367,13.819l6.77523,71.55165z" data-paper-data="{&quot;origPos&quot;:null,&quot;index&quot;:null,&quot;origRot&quot;:0}" fill="url(#color-4)" stroke-width="0" stroke-linecap="butt"/><path d="M200.04187,222.23772l6.00223,-71.24906l14.74242,-14.12383l18.74036,-0.22778l-7.46774,88.43247z" data-paper-data="{&quot;origPos&quot;:null,&quot;origRot&quot;:0}" fill="url(#color-5)" stroke-width="0" stroke-linecap="butt"/></g><path d="M138.30666,225.34606l42.48547,-14.64354h28.70641h57.41284l27.55814,0.97623l41.33724,12.69108l4.59298,12.69112h-208.98266z" data-paper-data="{&quot;origPos&quot;:null}" fill="url(#color-6)" stroke="none" stroke-width="2.16315" stroke-linecap="round"/><path d="M110.15958,237.06095h251.46817v105.43368h-251.46817z" data-paper-data="{&quot;origPos&quot;:null}" fill="#ebf2f7" stroke="none" stroke-width="9.46438" stroke-linecap="butt"/><path d="M109.60025,237.06095l21.81685,-35.14459l22.96516,35.14459z" data-paper-data="{&quot;origPos&quot;:null}" fill="url(#color-7)" stroke="none" stroke-width="2.16315" stroke-linecap="round"/><path d="M317.05534,237.06095l21.81684,-35.14459l22.96517,35.14459z" data-paper-data="{&quot;origPos&quot;:null}" fill="url(#color-8)" stroke="none" stroke-width="2.16315" stroke-linecap="round"/><path d="M217.13887,162.84116h45.93023l14.92732,56.62183h-81.52617z" data-paper-data="{&quot;origPos&quot;:null}" fill="#ff4040" stroke="none" stroke-width="2.16315" stroke-linecap="round"/><path d="M205.83156,199.70846l31.57709,-24.61106l31.57705,24.61106v50.16871h-63.15413z" data-paper-data="{&quot;origPos&quot;:null}" fill="#d6dde2" stroke="none" stroke-width="2.65368" stroke-linecap="round"/><path d="M211.92292,203.52911l25.80711,-18.78616l25.07672,18.78616v38.82472h-50.88383z" data-paper-data="{&quot;origPos&quot;:null}" fill="#3f99ff" stroke="none" stroke-width="1" stroke-linecap="round"/><path d="M118.91993,337.7875v-101.19476h32.13715v101.19476z" data-paper-data="{&quot;origPos&quot;:null}" fill="url(#color-9)" stroke="none" stroke-width="0" stroke-linecap="butt"/><path d="M321.4814,338.28847v-101.19476h32.13715v101.19476z" data-paper-data="{&quot;origPos&quot;:null}" fill="url(#color-10)" stroke="none" stroke-width="0" stroke-linecap="butt"/><path d="M206.56672,350.81256v-101.19476h32.13716v101.19476z" data-paper-data="{&quot;origPos&quot;:null}" fill="url(#color-11)" stroke="none" stroke-width="0" stroke-linecap="butt"/><path d="M236.26925,351.31355v-101.19476h32.13715v101.19476z" data-paper-data="{&quot;origPos&quot;:null,&quot;index&quot;:null}" fill="url(#color-12)" stroke="none" stroke-width="0" stroke-linecap="butt"/><g data-paper-data="{&quot;origPos&quot;:null}" fill="#99ffff" stroke="#84c3c3" stroke-width="2" stroke-linecap="butt"><path d="M122.81534,264.89721h7.79082v8.01542h-7.79082z"/><path d="M133.28426,264.89721h7.79082v8.01542h-7.79082z"/><path d="M133.0408,275.91842h7.79082v8.01543h-7.79082z"/><path d="M122.81534,275.91842h7.79082v8.01543h-7.79082z"/></g><g data-paper-data="{&quot;origPos&quot;:null}" fill="#99ffff" stroke="#84c3c3" stroke-width="2" stroke-linecap="butt"><path d="M331.21993,263.39433h7.79082v8.01543h-7.79082z"/><path d="M341.68885,263.39433h7.79082v8.01543h-7.79082z"/><path d="M341.44539,274.41554h7.79082v8.01542h-7.79082z"/><path d="M331.21993,274.41554h7.79082v8.01542h-7.79082z"/></g><g data-paper-data="{&quot;origPos&quot;:null}" stroke="none" stroke-linecap="butt"><path d="M317.09906,253.32715h13.63394v95.18319h-13.63394z" data-paper-data="{&quot;origPos&quot;:null}" fill="#aa5e35" stroke-width="2.07153"/><path d="M323.91603,235.84131c5.37372,0 10.24299,2.24533 13.76882,5.87281c3.52583,3.62748 5.70824,8.63712 5.70824,14.16576c0,5.52864 -2.18241,10.53829 -5.70824,14.16576c-3.52583,3.62748 -8.39511,5.8728 -13.76882,5.8728c-5.37372,0 -10.24299,-2.24532 -13.76882,-5.8728c-3.52583,-3.62748 -5.70824,-8.63712 -5.70824,-14.16576c0,-5.52864 2.18241,-10.53829 5.70824,-14.16576c3.52583,-3.62748 8.3951,-5.8728 13.76882,-5.8728z" data-paper-data="{&quot;origPos&quot;:null}" fill="#3abc3a" stroke-width="1"/><path d="M323.91603,216.80465c4.43298,0 8.45013,1.85256 11.35903,4.84533c2.9089,2.99276 4.70955,7.12572 4.70955,11.6865c0,4.56078 -1.80065,8.69373 -4.70955,11.68649c-2.9089,2.99276 -6.92605,4.84533 -11.35903,4.84533c-4.43298,0 -8.45012,-1.85257 -11.35902,-4.84533c-2.9089,-2.99276 -4.70956,-7.12571 -4.70956,-11.68649c0,-4.56078 1.80066,-8.69374 4.70956,-11.6865c2.9089,-2.99276 6.92604,-4.84533 11.35902,-4.84533z" data-paper-data="{&quot;origPos&quot;:null}" fill="#3ec73d" stroke-width="1"/><path d="M324.1595,203.7796c2.61966,0 4.99344,1.09461 6.71229,2.86301c1.71885,1.76841 2.78278,4.2106 2.78278,6.90579c0,2.69519 -1.06394,5.13739 -2.78278,6.9058c-1.71885,1.76841 -4.09262,2.863 -6.71229,2.863c-2.61966,0 -4.99344,-1.0946 -6.71229,-2.863c-1.71885,-1.76841 -2.78278,-4.21061 -2.78278,-6.9058c0,-2.69519 1.06394,-5.13738 2.78278,-6.90579c1.71885,-1.76841 4.09262,-2.86301 6.71229,-2.86301z" data-paper-data="{&quot;origPos&quot;:null}" fill="#42d642" stroke-width="1"/></g><g data-paper-data="{&quot;origPos&quot;:null}" stroke="none" stroke-linecap="butt"><path d="M141.31855,253.63749h13.63395v97.18706h-13.63395z" data-paper-data="{&quot;origPos&quot;:null}" fill="#aa5e35" stroke-width="2.1101"/><path d="M148.13552,236.59276c5.37372,0 10.24299,2.24532 13.76883,5.8728c3.52584,3.62748 5.70824,8.63712 5.70824,14.16576c0,5.52864 -2.1824,10.53829 -5.70824,14.16576c-3.52584,3.62748 -8.39511,5.87281 -13.76883,5.87281c-5.37372,0 -10.24299,-2.24533 -13.76882,-5.8728c-3.52584,-3.62748 -5.70824,-8.63712 -5.70824,-14.16576c0,-5.52864 2.1824,-10.53829 5.70824,-14.16576c3.52584,-3.62748 8.39511,-5.8728 13.76882,-5.8728z" data-paper-data="{&quot;origPos&quot;:null}" fill="#3abc3a" stroke-width="1"/><path d="M148.13552,217.55612c4.43298,0 8.45013,1.85256 11.35903,4.84532c2.9089,2.99276 4.70955,7.12571 4.70955,11.68649c0,4.56078 -1.80065,8.69373 -4.70955,11.68649c-2.9089,2.99276 -6.92605,4.84533 -11.35903,4.84533c-4.43298,0 -8.45012,-1.85256 -11.35902,-4.84533c-2.9089,-2.99276 -4.70956,-7.12571 -4.70956,-11.68649c0,-4.56078 1.80066,-8.69373 4.70956,-11.68649c2.9089,-2.99276 6.92604,-4.84532 11.35902,-4.84532z" data-paper-data="{&quot;origPos&quot;:null}" fill="#3ec73d" stroke-width="1"/><path d="M148.37898,204.53105c2.61966,0 4.99344,1.09461 6.71229,2.86301c1.71885,1.76841 2.78279,4.2106 2.78279,6.90579c0,2.69519 -1.06394,5.13739 -2.78279,6.90579c-1.71885,1.76841 -4.09262,2.86301 -6.71229,2.86301c-2.61966,0 -4.99343,-1.09461 -6.71228,-2.86301c-1.71885,-1.76841 -2.78278,-4.21061 -2.78278,-6.90579c0,-2.69519 1.06393,-5.13738 2.78278,-6.90579c1.71885,-1.76841 4.09261,-2.86301 6.71228,-2.86301z" data-paper-data="{&quot;origPos&quot;:null}" fill="#42d642" stroke-width="1"/></g><g data-paper-data="{&quot;origPos&quot;:null}" fill="#99ffff" stroke="#84c3c3" stroke-width="2" stroke-linecap="butt"><path d="M171.508,277.42132h7.79082v8.01542h-7.79082z"/><path d="M181.97692,277.42132h7.79083v8.01542h-7.79083z"/><path d="M181.73346,288.44252h7.79082v8.01542h-7.79082z"/><path d="M171.508,288.44252h7.79082v8.01542h-7.79082z"/></g><g data-paper-data="{&quot;origPos&quot;:null}" fill="#99ffff" stroke="#84c3c3" stroke-width="2" stroke-linecap="butt"><path d="M273.51913,278.67372h7.79082v8.01542h-7.79082z"/><path d="M283.98805,278.67372h7.79082v8.01542h-7.79082z"/><path d="M283.74458,289.69493h7.79083v8.01542h-7.79083z"/><path d="M273.51913,289.69493h7.79082v8.01542h-7.79082z"/></g><g data-paper-data="{&quot;origPos&quot;:null}" fill="#99ffff" stroke="#84c3c3" stroke-width="2" stroke-linecap="butt"><path d="M171.508,247.86443h7.79082v8.01542h-7.79082z"/><path d="M181.97692,247.86443h7.79083v8.01542h-7.79083z"/><path d="M181.73346,258.88564h7.79082v8.01542h-7.79082z"/><path d="M171.508,258.88564h7.79082v8.01542h-7.79082z"/></g><g data-paper-data="{&quot;origPos&quot;:null}" fill="#99ffff" stroke="#84c3c3" stroke-width="2" stroke-linecap="butt"><path d="M273.51913,249.11684h7.79082v8.01543h-7.79082z"/><path d="M283.98805,249.11684h7.79082v8.01543h-7.79082z"/><path d="M283.74458,260.13805h7.79083v8.01542h-7.79083z"/><path d="M273.51913,260.13805h7.79082v8.01542h-7.79082z"/></g><path d="M496.95853,240.63155l20.1914,-38.2574l21.2542,38.2574z" fill="url(#color-13)" stroke="none" stroke-width="1.06271" stroke-linecap="round"/><path d="M-78.04147,241.08151l20.1914,-38.2574l21.2542,38.2574z" fill="url(#color-14)" stroke="none" stroke-width="1.06271" stroke-linecap="round"/><g data-paper-data="{&quot;origPos&quot;:null}"><path d="M-67.69334,225.87581l42.48547,-14.2332h28.70641h57.41284l27.55814,0.94888l41.33724,12.33545l4.59298,12.3355h-208.98266z" data-paper-data="{&quot;origPos&quot;:null}" fill="url(#color-15)" stroke="none" stroke-width="2.16315" stroke-linecap="round"/><path d="M-50.22897,245.50288c0.39685,0.85942 0.64226,2.04607 0.64226,3.3559c0,1.30983 -0.24541,2.49647 -0.64226,3.3559c-0.39636,0.85942 -0.94415,1.39164 -1.54891,1.39164c-0.60476,0 -1.15255,-0.53222 -1.54891,-1.39164c-0.39685,-0.85942 -0.64226,-2.04606 -0.64226,-3.3559c0,-1.30983 0.24541,-2.49648 0.64226,-3.3559c0.39636,-0.85942 0.94415,-1.39163 1.54891,-1.39163c0.60476,0 1.15256,0.53221 1.54891,1.39163z" data-paper-data="{&quot;origPos&quot;:null}" fill="#000000" stroke="none" stroke-width="1" stroke-linecap="butt"/><path d="M-33.67347,245.13769c0.39685,0.85942 0.64226,2.04607 0.64226,3.3559c0,1.30983 -0.24541,2.49647 -0.64226,3.3559c-0.39636,0.85942 -0.94415,1.39164 -1.54891,1.39164c-0.60476,0 -1.15256,-0.53222 -1.54892,-1.39164c-0.39685,-0.85942 -0.64225,-2.04606 -0.64225,-3.3559c0,-1.30983 0.24541,-2.49648 0.64225,-3.3559c0.39636,-0.85942 0.94415,-1.39163 1.54892,-1.39163c0.60476,0 1.15256,0.53221 1.54891,1.39163z" data-paper-data="{&quot;origPos&quot;:null}" fill="#000000" stroke="none" stroke-width="1" stroke-linecap="butt"/><path d="M-95.84042,237.26246h214.46817v102.47931h-214.46817z" data-paper-data="{&quot;origPos&quot;:null}" fill="#ebf2f7" stroke="none" stroke-width="9.46438" stroke-linecap="butt"/><path d="M-96.39975,237.26246l21.81685,-34.1598l22.96516,34.1598z" data-paper-data="{&quot;origPos&quot;:null}" fill="url(#color-16)" stroke="none" stroke-width="2.16315" stroke-linecap="round"/><path d="M-87.08007,335.16653v-98.35917h32.13715v98.35917z" data-paper-data="{&quot;origPos&quot;:null}" fill="url(#color-17)" stroke="none" stroke-width="0" stroke-linecap="butt"/><g data-paper-data="{&quot;origPos&quot;:null}" fill="#99ffff" stroke="#84c3c3" stroke-width="2" stroke-linecap="butt"><path d="M-83.18467,264.3187h7.79083v7.79083h-7.79083z"/><path d="M-72.71574,264.3187h7.79082v7.79083h-7.79082z"/><path d="M-72.95921,275.03108h7.79083v7.79083h-7.79083z"/><path d="M-83.18467,275.03108h7.79083v7.79083h-7.79083z"/></g><g data-paper-data="{&quot;origPos&quot;:null}" stroke="none" stroke-linecap="butt"><path d="M18.09906,254.07285h13.63394v92.51605h-13.63394z" data-paper-data="{&quot;origPos&quot;:null}" fill="#aa5e35" stroke-width="2.07153"/><path d="M24.91603,237.07699c5.37372,0 10.24299,2.1824 13.76882,5.70824c3.52583,3.52584 5.70824,8.39511 5.70824,13.76882c0,5.37372 -2.18241,10.24299 -5.70824,13.76883c-3.52583,3.52584 -8.39511,5.70824 -13.76882,5.70824c-5.37372,0 -10.24299,-2.1824 -13.76882,-5.70824c-3.52583,-3.52584 -5.70824,-8.39511 -5.70824,-13.76883c0,-5.37372 2.18241,-10.24299 5.70824,-13.76882c3.52583,-3.52584 8.3951,-5.70824 13.76882,-5.70824z" data-paper-data="{&quot;origPos&quot;:null}" fill="#3abc3a" stroke-width="1"/><path d="M24.91603,218.57378c4.43298,0 8.45013,1.80066 11.35903,4.70955c2.9089,2.9089 4.70955,6.92605 4.70955,11.35903c0,4.43298 -1.80065,8.45012 -4.70955,11.35902c-2.9089,2.9089 -6.92605,4.70955 -11.35903,4.70955c-4.43298,0 -8.45012,-1.80066 -11.35902,-4.70955c-2.9089,-2.9089 -4.70956,-6.92604 -4.70956,-11.35902c0,-4.43298 1.80066,-8.45013 4.70956,-11.35903c2.9089,-2.9089 6.92604,-4.70955 11.35902,-4.70955z" data-paper-data="{&quot;origPos&quot;:null}" fill="#3ec73d" stroke-width="1"/><path d="M25.1595,205.91368c2.61966,0 4.99344,1.06394 6.71229,2.78279c1.71885,1.71885 2.78278,4.09261 2.78278,6.71228c0,2.61966 -1.06394,4.99344 -2.78278,6.71229c-1.71885,1.71885 -4.09262,2.78278 -6.71229,2.78278c-2.61966,0 -4.99344,-1.06393 -6.71229,-2.78278c-1.71885,-1.71885 -2.78278,-4.09262 -2.78278,-6.71229c0,-2.61966 1.06394,-4.99343 2.78278,-6.71228c1.71885,-1.71885 4.09262,-2.78279 6.71229,-2.78279z" data-paper-data="{&quot;origPos&quot;:null}" fill="#42d642" stroke-width="1"/></g><g data-paper-data="{&quot;origPos&quot;:null}" fill="#99ffff" stroke="#84c3c3" stroke-width="2" stroke-linecap="butt"><path d="M-34.492,276.49186h7.79082v7.79083h-7.79082z"/><path d="M-24.02308,276.49186h7.79083v7.79083h-7.79083z"/><path d="M-24.26654,287.20425h7.79082v7.79082h-7.79082z"/><path d="M-34.492,287.20425h7.79082v7.79082h-7.79082z"/></g><g data-paper-data="{&quot;origPos&quot;:null}" fill="#99ffff" stroke="#84c3c3" stroke-width="2" stroke-linecap="butt"><path d="M67.51913,277.70917h7.79082v7.79082h-7.79082z"/><path d="M77.98805,277.70917h7.79082v7.79082h-7.79082z"/><path d="M77.74458,288.42156h7.79083v7.79083h-7.79083z"/><path d="M67.51913,288.42156h7.79082v7.79083h-7.79082z"/></g><g data-paper-data="{&quot;origPos&quot;:null}" fill="#99ffff" stroke="#84c3c3" stroke-width="2" stroke-linecap="butt"><path d="M-34.492,247.76319h7.79082v7.79082h-7.79082z"/><path d="M-24.02308,247.76319h7.79083v7.79082h-7.79083z"/><path d="M-24.26654,258.47558h7.79082v7.79083h-7.79082z"/><path d="M-34.492,258.47558h7.79082v7.79083h-7.79082z"/></g><g data-paper-data="{&quot;origPos&quot;:null}" fill="#99ffff" stroke="#84c3c3" stroke-width="2" stroke-linecap="butt"><path d="M67.51913,248.9805h7.79082v7.79083h-7.79082z"/><path d="M77.98805,248.9805h7.79082v7.79083h-7.79082z"/><path d="M77.74458,259.6929h7.79083v7.79082h-7.79083z"/><path d="M67.51913,259.6929h7.79082v7.79082h-7.79082z"/></g><g data-paper-data="{&quot;origPos&quot;:null}" stroke="none" stroke-linecap="butt"><path d="M81.09906,255.07285h13.63394v92.51605h-13.63394z" data-paper-data="{&quot;origPos&quot;:null}" fill="#aa5e35" stroke-width="2.07153"/><path d="M87.91603,238.07699c5.37372,0 10.24299,2.1824 13.76882,5.70824c3.52583,3.52584 5.70824,8.39511 5.70824,13.76882c0,5.37372 -2.18241,10.24299 -5.70824,13.76883c-3.52583,3.52584 -8.39511,5.70824 -13.76882,5.70824c-5.37372,0 -10.24299,-2.1824 -13.76882,-5.70824c-3.52583,-3.52584 -5.70824,-8.39511 -5.70824,-13.76883c0,-5.37372 2.18241,-10.24299 5.70824,-13.76882c3.52583,-3.52584 8.3951,-5.70824 13.76882,-5.70824z" data-paper-data="{&quot;origPos&quot;:null}" fill="#3abc3a" stroke-width="1"/><path d="M87.91603,219.57378c4.43298,0 8.45013,1.80066 11.35903,4.70955c2.9089,2.9089 4.70955,6.92605 4.70955,11.35903c0,4.43298 -1.80065,8.45012 -4.70955,11.35902c-2.9089,2.9089 -6.92605,4.70955 -11.35903,4.70955c-4.43298,0 -8.45012,-1.80066 -11.35902,-4.70955c-2.9089,-2.9089 -4.70956,-6.92604 -4.70956,-11.35902c0,-4.43298 1.80066,-8.45013 4.70956,-11.35903c2.9089,-2.9089 6.92604,-4.70955 11.35902,-4.70955z" data-paper-data="{&quot;origPos&quot;:null}" fill="#3ec73d" stroke-width="1"/><path d="M88.1595,206.91368c2.61966,0 4.99344,1.06394 6.71229,2.78279c1.71885,1.71885 2.78278,4.09261 2.78278,6.71228c0,2.61966 -1.06394,4.99344 -2.78278,6.71229c-1.71885,1.71885 -4.09262,2.78278 -6.71229,2.78278c-2.61966,0 -4.99344,-1.06393 -6.71229,-2.78278c-1.71885,-1.71885 -2.78278,-4.09262 -2.78278,-6.71229c0,-2.61966 1.06394,-4.99343 2.78278,-6.71228c1.71885,-1.71885 4.09262,-2.78279 6.71229,-2.78279z" data-paper-data="{&quot;origPos&quot;:null}" fill="#42d642" stroke-width="1"/></g></g><g data-paper-data="{&quot;origPos&quot;:null,&quot;index&quot;:null}"><path d="M554.58291,238.26246h-208.98266l4.59298,-12.3355l41.33724,-12.33545l27.55814,-0.94888h57.41284h28.70641l42.48547,14.2332z" data-paper-data="{&quot;origPos&quot;:null}" fill="url(#color-18)" stroke="none" stroke-width="2.16315" stroke-linecap="round"/><path d="M531.77787,245.11126c0.60476,0 1.15255,0.53221 1.54891,1.39163c0.39685,0.85942 0.64226,2.04607 0.64226,3.3559c0,1.30984 -0.24541,2.49648 -0.64226,3.3559c-0.39636,0.85942 -0.94415,1.39164 -1.54891,1.39164c-0.60476,0 -1.15255,-0.53222 -1.54891,-1.39164c-0.39685,-0.85943 -0.64226,-2.04607 -0.64226,-3.3559c0,-1.30983 0.24541,-2.49648 0.64226,-3.3559c0.39635,-0.85942 0.94415,-1.39163 1.54891,-1.39163z" data-paper-data="{&quot;origPos&quot;:null}" fill="#000000" stroke="none" stroke-width="1" stroke-linecap="butt"/><path d="M515.22237,244.74607c0.60477,0 1.15256,0.53221 1.54892,1.39163c0.39684,0.85942 0.64225,2.04607 0.64225,3.3559c0,1.30984 -0.2454,2.49648 -0.64225,3.3559c-0.39636,0.85942 -0.94416,1.39164 -1.54892,1.39164c-0.60476,0 -1.15255,-0.53222 -1.54891,-1.39164c-0.39685,-0.85943 -0.64226,-2.04607 -0.64226,-3.3559c0,-1.30983 0.24541,-2.49648 0.64226,-3.3559c0.39635,-0.85942 0.94415,-1.39163 1.54891,-1.39163z" data-paper-data="{&quot;origPos&quot;:null}" fill="#000000" stroke="none" stroke-width="1" stroke-linecap="butt"/><path d="M575.84041,340.74175h-214.46817v-102.47931h214.46817z" data-paper-data="{&quot;origPos&quot;:null}" fill="#ebf2f7" stroke="none" stroke-width="9.46438" stroke-linecap="butt"/><path d="M531.61773,238.26246l22.96516,-34.1598l21.81685,34.1598z" data-paper-data="{&quot;origPos&quot;:null}" fill="url(#color-19)" stroke="none" stroke-width="2.16315" stroke-linecap="round"/><path d="M534.94291,336.16653v-98.35917h32.13715v98.35917z" data-paper-data="{&quot;origPos&quot;:null}" fill="url(#color-20)" stroke="none" stroke-width="0" stroke-linecap="butt"/><g data-paper-data="{&quot;origPos&quot;:null}" fill="#99ffff" stroke="#84c3c3" stroke-width="2" stroke-linecap="butt"><path d="M563.18466,273.10953h-7.79083v-7.79083h7.79083z"/><path d="M552.71573,273.10953h-7.79082v-7.79083h7.79082z"/><path d="M552.9592,283.82191h-7.79083v-7.79083h7.79083z"/><path d="M563.18466,283.82191h-7.79083v-7.79083h7.79083z"/></g><g data-paper-data="{&quot;origPos&quot;:null}" stroke="none" stroke-linecap="butt"><path d="M461.90093,347.5889h-13.63394v-92.51605h13.63394z" data-paper-data="{&quot;origPos&quot;:null}" fill="#aa5e35" stroke-width="2.07153"/><path d="M468.85278,243.7852c3.52583,3.52583 5.70824,8.3951 5.70824,13.76882c0,5.37372 -2.18241,10.24299 -5.70824,13.76883c-3.52583,3.52584 -8.3951,5.70824 -13.76882,5.70824c-5.37371,0 -10.24299,-2.1824 -13.76882,-5.70824c-3.52583,-3.52584 -5.70824,-8.39511 -5.70824,-13.76883c0,-5.37371 2.18241,-10.24298 5.70824,-13.76882c3.52583,-3.52584 8.3951,-5.70824 13.76882,-5.70824c5.37372,0 10.24299,2.1824 13.76882,5.70824z" data-paper-data="{&quot;origPos&quot;:null}" fill="#3abc3a" stroke-width="1"/><path d="M466.44298,224.28332c2.9089,2.9089 4.70956,6.92605 4.70956,11.35903c0,4.43298 -1.80066,8.45012 -4.70956,11.35902c-2.9089,2.90889 -6.92604,4.70955 -11.35902,4.70955c-4.43298,0 -8.45013,-1.80065 -11.35903,-4.70955c-2.9089,-2.9089 -4.70955,-6.92604 -4.70955,-11.35902c0,-4.43298 1.80065,-8.45013 4.70955,-11.35903c2.9089,-2.90889 6.92605,-4.70955 11.35903,-4.70955c4.43298,0 8.45012,1.80065 11.35902,4.70955z" data-paper-data="{&quot;origPos&quot;:null}" fill="#3ec73d" stroke-width="1"/><path d="M461.55278,209.69646c1.71884,1.71885 2.78278,4.09262 2.78278,6.71228c0,2.61967 -1.06393,4.99344 -2.78278,6.71229c-1.71885,1.71885 -4.09263,2.78278 -6.71229,2.78278c-2.61967,0 -4.99344,-1.06393 -6.71229,-2.78278c-1.71884,-1.71885 -2.78278,-4.09263 -2.78278,-6.71229c0,-2.61967 1.06393,-4.99343 2.78278,-6.71228c1.71885,-1.71885 4.09263,-2.78279 6.71229,-2.78279c2.61967,0 4.99344,1.06394 6.71229,2.78279z" data-paper-data="{&quot;origPos&quot;:null}" fill="#42d642" stroke-width="1"/></g><g data-paper-data="{&quot;origPos&quot;:null}" fill="#99ffff" stroke="#84c3c3" stroke-width="2" stroke-linecap="butt"><path d="M514.49199,285.28269h-7.79082v-7.79083h7.79082z"/><path d="M504.02307,285.28269h-7.79083v-7.79083h7.79083z"/><path d="M504.26653,295.99507h-7.79082v-7.79082h7.79082z"/><path d="M514.49199,295.99507h-7.79082v-7.79082h7.79082z"/></g><g data-paper-data="{&quot;origPos&quot;:null}" fill="#99ffff" stroke="#84c3c3" stroke-width="2" stroke-linecap="butt"><path d="M412.48086,286.5h-7.79082v-7.79082h7.79082z"/><path d="M402.01194,286.5h-7.79082v-7.79082h7.79082z"/><path d="M402.25541,297.2124h-7.79083v-7.79083h7.79083z"/><path d="M412.48086,297.2124h-7.79082v-7.79083h7.79082z"/></g><g data-paper-data="{&quot;origPos&quot;:null}" fill="#99ffff" stroke="#84c3c3" stroke-width="2" stroke-linecap="butt"><path d="M514.49199,256.55402h-7.79082v-7.79082h7.79082z"/><path d="M504.02307,256.55402h-7.79083v-7.79082h7.79083z"/><path d="M504.26653,267.26641h-7.79082v-7.79083h7.79082z"/><path d="M514.49199,267.26641h-7.79082v-7.79083h7.79082z"/></g><g data-paper-data="{&quot;origPos&quot;:null}" fill="#99ffff" stroke="#84c3c3" stroke-width="2" stroke-linecap="butt"><path d="M412.48086,257.77134h-7.79082v-7.79083h7.79082z"/><path d="M402.01194,257.77134h-7.79082v-7.79083h7.79082z"/><path d="M402.25541,268.48372h-7.79083v-7.79082h7.79083z"/><path d="M412.48086,268.48372h-7.79082v-7.79082h7.79082z"/></g><g data-paper-data="{&quot;origPos&quot;:null}" stroke="none" stroke-linecap="butt"><path d="M398.90093,348.5889h-13.63394v-92.51605h13.63394z" data-paper-data="{&quot;origPos&quot;:null}" fill="#aa5e35" stroke-width="2.07153"/><path d="M405.85278,244.7852c3.52583,3.52583 5.70824,8.3951 5.70824,13.76882c0,5.37372 -2.18241,10.24299 -5.70824,13.76883c-3.52583,3.52584 -8.3951,5.70824 -13.76882,5.70824c-5.37371,0 -10.24299,-2.1824 -13.76882,-5.70824c-3.52583,-3.52584 -5.70824,-8.39511 -5.70824,-13.76883c0,-5.37371 2.18241,-10.24298 5.70824,-13.76882c3.52583,-3.52584 8.3951,-5.70824 13.76882,-5.70824c5.37372,0 10.24299,2.1824 13.76882,5.70824z" data-paper-data="{&quot;origPos&quot;:null}" fill="#3abc3a" stroke-width="1"/><path d="M403.44298,225.28332c2.9089,2.9089 4.70956,6.92605 4.70956,11.35903c0,4.43298 -1.80066,8.45012 -4.70956,11.35902c-2.9089,2.90889 -6.92604,4.70955 -11.35902,4.70955c-4.43298,0 -8.45013,-1.80065 -11.35903,-4.70955c-2.9089,-2.9089 -4.70955,-6.92604 -4.70955,-11.35902c0,-4.43298 1.80065,-8.45013 4.70955,-11.35903c2.9089,-2.90889 6.92605,-4.70955 11.35903,-4.70955c4.43298,0 8.45012,1.80065 11.35902,4.70955z" data-paper-data="{&quot;origPos&quot;:null}" fill="#3ec73d" stroke-width="1"/><path d="M398.55278,210.69646c1.71884,1.71885 2.78278,4.09262 2.78278,6.71228c0,2.61967 -1.06393,4.99344 -2.78278,6.71229c-1.71885,1.71885 -4.09263,2.78278 -6.71229,2.78278c-2.61967,0 -4.99344,-1.06393 -6.71229,-2.78278c-1.71884,-1.71885 -2.78278,-4.09263 -2.78278,-6.71229c0,-2.61967 1.06393,-4.99343 2.78278,-6.71228c1.71885,-1.71885 4.09263,-2.78279 6.71229,-2.78279c2.61967,0 4.99344,1.06394 6.71229,2.78279z" data-paper-data="{&quot;origPos&quot;:null}" fill="#42d642" stroke-width="1"/></g></g><path d="M215.76408,73.98151l20.8951,-39.59073l21.99494,39.59073z" data-paper-data="{&quot;origPos&quot;:null}" fill="url(#color-21)" stroke="none" stroke-width="1.06271" stroke-linecap="round"/><path d="M221.69937,255.89095h31.10982v14.54485h-31.10982z" data-paper-data="{&quot;origPos&quot;:null}" fill="#c95206" stroke="none" stroke-width="1" stroke-linecap="butt"/><path d="M211.43253,268.70757h52.77438v49.38174h-52.77438z" data-paper-data="{&quot;origPos&quot;:null}" fill="#c95206" stroke="none" stroke-width="1" stroke-linecap="butt"/><path d="M211.43253,268.80182l10.55488,-13.00511v13.00511z" data-paper-data="{&quot;origPos&quot;:null}" fill="#c95206" stroke="none" stroke-width="1" stroke-linecap="round"/><path d="M252.52116,255.9852l11.77999,12.81663h-11.77999z" data-paper-data="{&quot;origPos&quot;:null}" fill="#c95206" stroke="none" stroke-width="1" stroke-linecap="round"/><g data-paper-data="{&quot;origPos&quot;:null}" fill="#dd7821" stroke="none" stroke-width="1" stroke-linecap="butt"><path d="M222.09107,260.56524c0.45499,0 0.86739,0.18472 1.16594,0.48327c0.29855,0.29855 0.48326,0.71094 0.48326,1.16593c0,0.45499 -0.18471,0.86739 -0.48326,1.16594c-0.29855,0.29855 -0.71095,0.48326 -1.16594,0.48326c-0.45499,0 -0.86738,-0.18471 -1.16593,-0.48326c-0.29855,-0.29855 -0.48326,-0.71095 -0.48326,-1.16594c0,-0.45499 0.18471,-0.86739 0.48326,-1.16593c0.29855,-0.29855 0.71094,-0.48327 1.16593,-0.48327z" data-paper-data="{&quot;origPos&quot;:null}"/><path d="M232.04917,257.11607c0.45499,0 0.86738,0.18471 1.16593,0.48326c0.29855,0.29855 0.48327,0.71095 0.48327,1.16594c0,0.45499 -0.18472,0.86739 -0.48327,1.16593c-0.29855,0.29855 -0.71094,0.48326 -1.16593,0.48326c-0.45499,0 -0.86738,-0.18471 -1.16593,-0.48326c-0.29855,-0.29855 -0.48327,-0.71094 -0.48327,-1.16593c0,-0.45499 0.18472,-0.86739 0.48327,-1.16594c0.29855,-0.29855 0.71094,-0.48326 1.16593,-0.48326z" data-paper-data="{&quot;origPos&quot;:null}"/><g data-paper-data="{&quot;origPos&quot;:null}"><path d="M232.13705,269.11162c0.45499,0 0.86738,0.18471 1.16593,0.48326c0.29855,0.29855 0.48327,0.71094 0.48327,1.16593c0,0.45499 -0.18472,0.86739 -0.48327,1.16594c-0.29855,0.29855 -0.71094,0.48326 -1.16593,0.48326c-0.45499,0 -0.86738,-0.18471 -1.16593,-0.48326c-0.29855,-0.29855 -0.48327,-0.71095 -0.48327,-1.16594c0,-0.45499 0.18472,-0.86739 0.48327,-1.16593c0.29855,-0.29855 0.71094,-0.48326 1.16593,-0.48326z" data-paper-data="{&quot;origPos&quot;:null}"/><path d="M232.11185,280.58764c0.45499,0 0.86739,0.18472 1.16594,0.48327c0.29855,0.29855 0.48326,0.71094 0.48326,1.16593c0,0.45499 -0.18471,0.86739 -0.48326,1.16594c-0.29855,0.29855 -0.71095,0.48326 -1.16594,0.48326c-0.45499,0 -0.86738,-0.18471 -1.16593,-0.48326c-0.29855,-0.29855 -0.48327,-0.71095 -0.48327,-1.16594c0,-0.45499 0.18472,-0.86739 0.48327,-1.16593c0.29855,-0.29855 0.71094,-0.48327 1.16593,-0.48327z" data-paper-data="{&quot;origPos&quot;:null}"/><path d="M231.94035,292.07907c0.45499,0 0.86739,0.18472 1.16594,0.48327c0.29855,0.29855 0.48326,0.71094 0.48326,1.16593c0,0.45499 -0.18471,0.86739 -0.48326,1.16593c-0.29855,0.29855 -0.71095,0.48327 -1.16594,0.48327c-0.45499,0 -0.86739,-0.18472 -1.16594,-0.48327c-0.29855,-0.29855 -0.48326,-0.71094 -0.48326,-1.16593c0,-0.45499 0.18471,-0.86739 0.48326,-1.16593c0.29855,-0.29855 0.71095,-0.48327 1.16594,-0.48327z" data-paper-data="{&quot;origPos&quot;:null}"/><path d="M231.95181,303.07037c0.45499,0 0.86739,0.18471 1.16594,0.48326c0.29855,0.29855 0.48326,0.71095 0.48326,1.16594c0,0.45499 -0.18471,0.86739 -0.48326,1.16593c-0.29855,0.29855 -0.71095,0.48327 -1.16594,0.48327c-0.45499,0 -0.86738,-0.18472 -1.16593,-0.48327c-0.29855,-0.29855 -0.48326,-0.71094 -0.48326,-1.16593c0,-0.45499 0.18471,-0.86739 0.48326,-1.16594c0.29855,-0.29855 0.71094,-0.48326 1.16593,-0.48326z" data-paper-data="{&quot;origPos&quot;:null}"/><path d="M231.91943,313.6035c0.45499,0 0.86739,0.18471 1.16594,0.48326c0.29855,0.29855 0.48326,0.71095 0.48326,1.16594c0,0.45499 -0.18471,0.86739 -0.48326,1.16594c-0.29855,0.29855 -0.71095,0.48326 -1.16594,0.48326c-0.45499,0 -0.86738,-0.18471 -1.16593,-0.48326c-0.29855,-0.29855 -0.48326,-0.71095 -0.48326,-1.16594c0,-0.45499 0.18471,-0.86739 0.48326,-1.16594c0.29855,-0.29855 0.71094,-0.48326 1.16593,-0.48326z" data-paper-data="{&quot;origPos&quot;:null}"/></g><g data-paper-data="{&quot;origPos&quot;:null}"><path d="M215.25057,269.03709c0.45499,0 0.86738,0.18471 1.16593,0.48326c0.29855,0.29855 0.48326,0.71095 0.48326,1.16594c0,0.45499 -0.18471,0.86739 -0.48326,1.16593c-0.29855,0.29855 -0.71094,0.48326 -1.16593,0.48326c-0.45499,0 -0.86739,-0.18471 -1.16594,-0.48326c-0.29855,-0.29855 -0.48326,-0.71094 -0.48326,-1.16593c0,-0.45499 0.18471,-0.86739 0.48326,-1.16594c0.29855,-0.29855 0.71095,-0.48326 1.16594,-0.48326z" data-paper-data="{&quot;origPos&quot;:null}"/><path d="M215.22536,280.51313c0.45499,0 0.86738,0.18471 1.16593,0.48326c0.29855,0.29855 0.48326,0.71095 0.48326,1.16594c0,0.45499 -0.18471,0.86739 -0.48326,1.16594c-0.29855,0.29855 -0.71094,0.48326 -1.16593,0.48326c-0.45499,0 -0.86739,-0.18471 -1.16594,-0.48326c-0.29855,-0.29855 -0.48326,-0.71095 -0.48326,-1.16594c0,-0.45499 0.18471,-0.86739 0.48326,-1.16594c0.29855,-0.29855 0.71095,-0.48326 1.16594,-0.48326z" data-paper-data="{&quot;origPos&quot;:null}"/><path d="M215.05387,292.00457c0.45499,0 0.86738,0.18471 1.16593,0.48326c0.29855,0.29855 0.48327,0.71095 0.48327,1.16594c0,0.45499 -0.18472,0.86739 -0.48327,1.16594c-0.29855,0.29855 -0.71094,0.48326 -1.16593,0.48326c-0.45499,0 -0.86738,-0.18471 -1.16593,-0.48326c-0.29855,-0.29855 -0.48327,-0.71095 -0.48327,-1.16594c0,-0.45499 0.18472,-0.86739 0.48327,-1.16594c0.29855,-0.29855 0.71094,-0.48326 1.16593,-0.48326z" data-paper-data="{&quot;origPos&quot;:null}"/><path d="M215.06532,302.99585c0.45499,0 0.86739,0.18472 1.16594,0.48327c0.29855,0.29855 0.48326,0.71094 0.48326,1.16593c0,0.45499 -0.18471,0.86739 -0.48326,1.16593c-0.29855,0.29855 -0.71095,0.48327 -1.16594,0.48327c-0.45499,0 -0.86738,-0.18472 -1.16593,-0.48327c-0.29855,-0.29855 -0.48326,-0.71094 -0.48326,-1.16593c0,-0.45499 0.18471,-0.86739 0.48326,-1.16593c0.29855,-0.29855 0.71094,-0.48327 1.16593,-0.48327z" data-paper-data="{&quot;origPos&quot;:null}"/><path d="M215.03294,313.52899c0.45499,0 0.86739,0.18472 1.16594,0.48327c0.29855,0.29855 0.48326,0.71094 0.48326,1.16593c0,0.45499 -0.18471,0.86739 -0.48326,1.16593c-0.29855,0.29855 -0.71095,0.48327 -1.16594,0.48327c-0.45499,0 -0.86739,-0.18472 -1.16594,-0.48327c-0.29855,-0.29855 -0.48326,-0.71094 -0.48326,-1.16593c0,-0.45499 0.18471,-0.86739 0.48326,-1.16593c0.29855,-0.29855 0.71095,-0.48327 1.16594,-0.48327z" data-paper-data="{&quot;origPos&quot;:null}"/></g><path d="M223.78739,313.52811c0.45499,0 0.86738,0.18472 1.16593,0.48327c0.29855,0.29855 0.48327,0.71094 0.48327,1.16593c0,0.45499 -0.18472,0.86739 -0.48327,1.16594c-0.29855,0.29855 -0.71094,0.48326 -1.16593,0.48326c-0.45499,0 -0.86739,-0.18471 -1.16594,-0.48326c-0.29855,-0.29855 -0.48326,-0.71095 -0.48326,-1.16594c0,-0.45499 0.18471,-0.86739 0.48326,-1.16593c0.29855,-0.29855 0.71095,-0.48327 1.16594,-0.48327z" data-paper-data="{&quot;origPos&quot;:null}"/></g><g data-paper-data="{&quot;index&quot;:null,&quot;origPos&quot;:null}" fill="#dd7821" stroke="none" stroke-width="1" stroke-linecap="butt"><path d="M254.51685,261.04851c0.29855,0.29855 0.48326,0.71094 0.48326,1.16593c0,0.45499 -0.18471,0.86739 -0.48326,1.16594c-0.29855,0.29855 -0.71094,0.48326 -1.16593,0.48326c-0.45499,0 -0.86739,-0.18471 -1.16594,-0.48326c-0.29855,-0.29855 -0.48326,-0.71095 -0.48326,-1.16594c0,-0.45499 0.18471,-0.86739 0.48326,-1.16593c0.29855,-0.29855 0.71095,-0.48327 1.16594,-0.48327c0.45499,0 0.86738,0.18472 1.16593,0.48327z" data-paper-data="{&quot;origPos&quot;:null}"/><path d="M244.55875,257.59932c0.29855,0.29855 0.48327,0.71095 0.48327,1.16594c0,0.45499 -0.18472,0.86739 -0.48327,1.16593c-0.29855,0.29855 -0.71094,0.48326 -1.16593,0.48326c-0.45499,0 -0.86738,-0.18471 -1.16593,-0.48326c-0.29855,-0.29855 -0.48327,-0.71094 -0.48327,-1.16593c0,-0.45499 0.18472,-0.86739 0.48327,-1.16594c0.29855,-0.29855 0.71094,-0.48326 1.16593,-0.48326c0.45499,0 0.86738,0.18471 1.16593,0.48326z" data-paper-data="{&quot;origPos&quot;:null}"/><g data-paper-data="{&quot;origPos&quot;:null}"><path d="M244.47087,269.59489c0.29855,0.29855 0.48327,0.71094 0.48327,1.16593c0,0.45499 -0.18472,0.86739 -0.48327,1.16594c-0.29855,0.29855 -0.71094,0.48326 -1.16593,0.48326c-0.45499,0 -0.86738,-0.18471 -1.16593,-0.48326c-0.29855,-0.29855 -0.48327,-0.71095 -0.48327,-1.16594c0,-0.45499 0.18472,-0.86739 0.48327,-1.16593c0.29855,-0.29855 0.71094,-0.48326 1.16593,-0.48326c0.45499,0 0.86738,0.18471 1.16593,0.48326z" data-paper-data="{&quot;origPos&quot;:null}"/><path d="M244.49607,281.07089c0.29855,0.29855 0.48327,0.71094 0.48327,1.16593c0,0.45499 -0.18472,0.86739 -0.48327,1.16594c-0.29855,0.29855 -0.71094,0.48326 -1.16593,0.48326c-0.45499,0 -0.86739,-0.18471 -1.16594,-0.48326c-0.29855,-0.29855 -0.48326,-0.71095 -0.48326,-1.16594c0,-0.45499 0.18471,-0.86739 0.48326,-1.16593c0.29855,-0.29855 0.71095,-0.48327 1.16594,-0.48327c0.45499,0 0.86738,0.18472 1.16593,0.48327z" data-paper-data="{&quot;origPos&quot;:null}"/><path d="M244.66756,292.56234c0.29855,0.29855 0.48327,0.71094 0.48327,1.16593c0,0.45499 -0.18472,0.86739 -0.48327,1.16593c-0.29855,0.29855 -0.71094,0.48327 -1.16593,0.48327c-0.45499,0 -0.86738,-0.18472 -1.16593,-0.48327c-0.29855,-0.29855 -0.48327,-0.71094 -0.48327,-1.16593c0,-0.45499 0.18472,-0.86739 0.48327,-1.16593c0.29855,-0.29855 0.71094,-0.48327 1.16593,-0.48327c0.45499,0 0.86738,0.18472 1.16593,0.48327z" data-paper-data="{&quot;origPos&quot;:null}"/><path d="M244.65611,303.55363c0.29855,0.29855 0.48326,0.71095 0.48326,1.16594c0,0.45499 -0.18471,0.86739 -0.48326,1.16593c-0.29855,0.29855 -0.71095,0.48326 -1.16594,0.48326c-0.45499,0 -0.86738,-0.18471 -1.16593,-0.48326c-0.29855,-0.29855 -0.48326,-0.71094 -0.48326,-1.16593c0,-0.45499 0.18471,-0.86739 0.48326,-1.16594c0.29855,-0.29855 0.71094,-0.48326 1.16593,-0.48326c0.45499,0 0.86739,0.18471 1.16594,0.48326z" data-paper-data="{&quot;origPos&quot;:null}"/><path d="M244.68849,314.08676c0.29855,0.29855 0.48327,0.71095 0.48327,1.16594c0,0.45499 -0.18472,0.86739 -0.48327,1.16594c-0.29855,0.29855 -0.71094,0.48326 -1.16593,0.48326c-0.45499,0 -0.86739,-0.18471 -1.16594,-0.48326c-0.29855,-0.29855 -0.48326,-0.71095 -0.48326,-1.16594c0,-0.45499 0.18471,-0.86739 0.48326,-1.16594c0.29855,-0.29855 0.71095,-0.48326 1.16594,-0.48326c0.45499,0 0.86738,0.18471 1.16593,0.48326z" data-paper-data="{&quot;origPos&quot;:null}"/></g><g data-paper-data="{&quot;origPos&quot;:null}"><path d="M261.35736,269.52038c0.29855,0.29855 0.48326,0.71094 0.48326,1.16593c0,0.45499 -0.18471,0.86739 -0.48326,1.16594c-0.29855,0.29855 -0.71095,0.48326 -1.16594,0.48326c-0.45499,0 -0.86738,-0.18471 -1.16593,-0.48326c-0.29855,-0.29855 -0.48326,-0.71095 -0.48326,-1.16594c0,-0.45499 0.18471,-0.86739 0.48326,-1.16593c0.29855,-0.29855 0.71094,-0.48327 1.16593,-0.48327c0.45499,0 0.86739,0.18472 1.16594,0.48327z" data-paper-data="{&quot;origPos&quot;:null}"/><path d="M261.38256,280.99639c0.29855,0.29855 0.48326,0.71095 0.48326,1.16594c0,0.45499 -0.18471,0.86739 -0.48326,1.16594c-0.29855,0.29855 -0.71095,0.48326 -1.16594,0.48326c-0.45499,0 -0.86738,-0.18471 -1.16593,-0.48326c-0.29855,-0.29855 -0.48326,-0.71095 -0.48326,-1.16594c0,-0.45499 0.18471,-0.86739 0.48326,-1.16594c0.29855,-0.29855 0.71094,-0.48326 1.16593,-0.48326c0.45499,0 0.86739,0.18471 1.16594,0.48326z" data-paper-data="{&quot;origPos&quot;:null}"/><path d="M261.55405,292.48782c0.29855,0.29855 0.48327,0.71095 0.48327,1.16594c0,0.45499 -0.18472,0.86739 -0.48327,1.16594c-0.29855,0.29855 -0.71094,0.48326 -1.16593,0.48326c-0.45499,0 -0.86738,-0.18471 -1.16593,-0.48326c-0.29855,-0.29855 -0.48327,-0.71095 -0.48327,-1.16594c0,-0.45499 0.18472,-0.86739 0.48327,-1.16594c0.29855,-0.29855 0.71094,-0.48326 1.16593,-0.48326c0.45499,0 0.86738,0.18471 1.16593,0.48326z" data-paper-data="{&quot;origPos&quot;:null}"/><path d="M261.5426,303.47912c0.29855,0.29855 0.48327,0.71095 0.48327,1.16594c0,0.45499 -0.18472,0.86739 -0.48327,1.16593c-0.29855,0.29855 -0.71094,0.48326 -1.16593,0.48326c-0.45499,0 -0.86739,-0.18471 -1.16594,-0.48326c-0.29855,-0.29855 -0.48326,-0.71094 -0.48326,-1.16593c0,-0.45499 0.18471,-0.86739 0.48326,-1.16594c0.29855,-0.29855 0.71095,-0.48326 1.16594,-0.48326c0.45499,0 0.86738,0.18471 1.16593,0.48326z" data-paper-data="{&quot;origPos&quot;:null}"/><path d="M261.57498,314.01226c0.29855,0.29855 0.48326,0.71094 0.48326,1.16593c0,0.45499 -0.18471,0.86739 -0.48326,1.16593c-0.29855,0.29855 -0.71095,0.48327 -1.16594,0.48327c-0.45499,0 -0.86739,-0.18472 -1.16594,-0.48327c-0.29855,-0.29855 -0.48326,-0.71094 -0.48326,-1.16593c0,-0.45499 0.18471,-0.86739 0.48326,-1.16593c0.29855,-0.29855 0.71095,-0.48327 1.16594,-0.48327c0.45499,0 0.86739,0.18472 1.16594,0.48327z" data-paper-data="{&quot;origPos&quot;:null}"/></g><path d="M252.82053,314.01137c0.29855,0.29855 0.48326,0.71094 0.48326,1.16593c0,0.45499 -0.18471,0.86739 -0.48326,1.16594c-0.29855,0.29855 -0.71095,0.48326 -1.16594,0.48326c-0.45499,0 -0.86738,-0.18471 -1.16593,-0.48326c-0.29855,-0.29855 -0.48327,-0.71095 -0.48327,-1.16594c0,-0.45499 0.18472,-0.86739 0.48327,-1.16593c0.29855,-0.29855 0.71094,-0.48327 1.16593,-0.48327c0.45499,0 0.86739,0.18472 1.16594,0.48327z" data-paper-data="{&quot;origPos&quot;:null}"/></g><path d="M236.31188,255.91673h3.10992v62.19838h-3.10992z" data-paper-data="{&quot;origPos&quot;:null}" fill="#b03405" stroke="none" stroke-width="1.14943" stroke-linecap="round"/><path d="M226.69941,291.79637c0,-2.34213 1.89867,-4.24079 4.24079,-4.24079c2.34213,0 4.2408,1.89867 4.2408,4.24079c0,2.34213 -1.89867,4.2408 -4.2408,4.2408c-2.34213,0 -4.24079,-1.89867 -4.24079,-4.2408z" data-paper-data="{&quot;origPos&quot;:null}" fill="#ffd400" stroke="none" stroke-width="0" stroke-linecap="butt"/><path d="M240.64692,291.79637c0,-2.34213 1.89866,-4.24079 4.24079,-4.24079c2.34213,0 4.2408,1.89867 4.2408,4.24079c0,2.34213 -1.89867,4.2408 -4.2408,4.2408c-2.34213,0 -4.24079,-1.89867 -4.24079,-4.2408z" data-paper-data="{&quot;origPos&quot;:null}" fill="#ffd400" stroke="none" stroke-width="0" stroke-linecap="butt"/><path d="M-100.85536,326.34456h694.61399v57.70217h-694.61398z" data-paper-data="{&quot;origPos&quot;:null}" fill="url(#color-22)" stroke="#763e13" stroke-width="2" stroke-linecap="butt"/><path d="M593.40169,320.62075c28.64981,1.28799 -14.51045,10.48692 -24.37821,12.70833c-26.86404,6.02589 -43.46185,18.34963 -71.44962,15.92399c-31.77078,-2.75351 -49.73068,-18.38475 -81.61367,-16.37064c-31.31037,1.97794 -48.90784,18.02251 -80.34313,18.23111c-40.83349,0.26751 -37.15103,-15.57411 -78.09287,-14.92979c-38.68008,1.22698 -44.11914,15.91999 -82.61503,15.57242c-41.06239,-0.37363 -52.30208,-18.59166 -93.44978,-19.0625c-39.00377,-1.41317 -46.92534,14.1301 -86.21895,14.61366c-33.02164,0.40159 -47.64585,-6.33099 -76.30242,-13.97823c-11.24784,-3.00489 -47.78399,-15.25445 -18.96081,-16.52083c115.29537,-5.06617 231.99384,0.75297 348.06659,1.27083c0,0 230.75732,-2.6103 345.35791,2.54166z" fill="url(#color-23)" stroke="#006622" stroke-width="2" stroke-linecap="round"/><path d="M35.38472,-59.52592c0,-0.55228 0.44772,-1 1,-1c0.55228,0 1,0.44772 1,1c0,0.55228 -0.44772,1 -1,1c-0.55228,0 -1,-0.44772 -1,-1z" fill="#cccccc" stroke="none" stroke-width="0.5" stroke-linecap="butt"/><path d="M145.20737,-58.16166c0,-0.55228 0.44772,-1 1,-1c0.55228,0 1,0.44772 1,1c0,0.55228 -0.44772,1 -1,1c-0.55228,0 -1,-0.44772 -1,-1z" fill="#cccccc" stroke="none" stroke-width="0.5" stroke-linecap="butt"/><path d="M285.72578,-32.24079c0,-0.55228 0.44772,-1 1,-1c0.55228,0 1,0.44772 1,1c0,0.55228 -0.44772,1 -1,1c-0.55228,0 -1,-0.44772 -1,-1z" fill="#cccccc" stroke="none" stroke-width="0.5" stroke-linecap="butt"/><path d="M110.41883,-39.06207c0,-0.55228 0.44772,-1 1,-1c0.55228,0 1,0.44772 1,1c0,0.55228 -0.44772,1 -1,1c-0.55228,0 -1,-0.44772 -1,-1z" fill="#cccccc" stroke="none" stroke-width="0.5" stroke-linecap="butt"/><path d="M401.68759,-41.10846c0,-0.55228 0.44772,-1 1,-1c0.55228,0 1,0.44772 1,1c0,0.55228 -0.44772,1 -1,1c-0.55228,0 -1,-0.44772 -1,-1z" fill="#cccccc" stroke="none" stroke-width="0.5" stroke-linecap="butt"/><path d="M267.30832,-62.93656c0,-0.55228 0.44772,-1 1,-1c0.55228,0 1,0.44772 1,1c0,0.55228 -0.44772,1 -1,1c-0.55228,0 -1,-0.44772 -1,-1z" fill="#cccccc" stroke="none" stroke-width="0.5" stroke-linecap="butt"/><path d="M338.93179,-28.83015c0,-0.55228 0.44772,-1 1,-1c0.55228,0 1,0.44772 1,1c0,0.55228 -0.44772,1 -1,1c-0.55228,0 -1,-0.44772 -1,-1z" fill="#cccccc" stroke="none" stroke-width="0.5" stroke-linecap="butt"/><path d="M468.53615,-62.25443c0,-0.55228 0.44772,-1 1,-1c0.55228,0 1,0.44772 1,1c0,0.55228 -0.44772,1 -1,1c-0.55228,0 -1,-0.44772 -1,-1z" fill="#cccccc" stroke="none" stroke-width="0.5" stroke-linecap="butt"/><path d="M445.34379,-34.28718c0,-0.55228 0.44772,-1 1,-1c0.55228,0 1,0.44772 1,1c0,0.55228 -0.44772,1 -1,1c-0.55228,0 -1,-0.44772 -1,-1z" fill="#cccccc" stroke="none" stroke-width="0.5" stroke-linecap="butt"/><path d="M215.4931,206.05507l22.11689,-15.32609l21.49094,15.32609v31.67391h-43.60783z" fill="#52c4ff" stroke="none" stroke-width="1" stroke-linecap="round"/></g></g></svg>