<svg version="1.1" xmlns="http://www.w3.org/2000/svg" xmlns:xlink="http://www.w3.org/1999/xlink" width="70.95196" height="70.95196" viewBox="0,0,70.95196,70.95196"><g transform="translate(-204.52402,-144.52402)"><g data-paper-data="{&quot;isPaintingLayer&quot;:true}" fill-rule="nonzero" stroke-linecap="butt" stroke-linejoin="miter" stroke-miterlimit="10" stroke-dasharray="" stroke-dashoffset="0" style="mix-blend-mode: normal"><path d="M205.52402,180c0,-19.04057 15.43543,-34.47598 34.47598,-34.47598c19.04057,0 34.47598,15.43543 34.47598,34.47598c0,19.04057 -15.43543,34.47598 -34.47598,34.47598c-19.04057,0 -34.47598,-15.43543 -34.47598,-34.47598z" fill="#ffffff" stroke="#ffe008" stroke-width="2"/><path d="M245.39747,157.03806c8.2273,4.16068 12.45948,6.24101 12.68516,6.24101c0,0.3649 -1.71167,3.66785 -5.14255,9.90889h-0.24077c-0.27461,0 -4.21712,-1.86215 -11.82746,-5.58644l-3.87477,5.1764c6.56078,3.15248 14.52474,7.17773 23.89945,12.06823c-4.25472,7.56899 -7.27178,12.5949 -9.05494,15.08905l-19.3701,1.71167c-8.84801,-5.9664 -13.52031,-9.05117 -14.02442,-9.25806v-0.237c0,-0.63954 1.79442,-3.57758 5.38329,-8.81417h0.44392c1.41823,0.84643 5.86484,3.28039 13.33974,7.30563l4.52558,-5.14629c-13.7385,-6.9934 -21.34885,-10.94717 -22.83481,-11.86132v-0.20691c4.36383,-8.50193 6.74135,-12.81309 7.13259,-12.92595c11.36097,-2.30982 17.68099,-3.46474 18.96004,-3.46474z" fill="#ffe008" stroke="none" stroke-width="1"/></g></g></svg>