<svg version="1.1" xmlns="http://www.w3.org/2000/svg" xmlns:xlink="http://www.w3.org/1999/xlink" width="86.30527" height="109.11227" viewBox="0,0,86.30527,109.11227"><defs><linearGradient x1="240.00001" y1="191.56432" x2="240.00001" y2="226.91651" gradientUnits="userSpaceOnUse" id="color-1"><stop offset="0" stop-color="#777777"/><stop offset="1" stop-color="#6a6a6a"/></linearGradient><linearGradient x1="240" y1="125.06741" x2="240" y2="185.43704" gradientUnits="userSpaceOnUse" id="color-2"><stop offset="0" stop-color="#c7c7c7"/><stop offset="1" stop-color="#777777"/></linearGradient></defs><g transform="translate(-196.84737,-125.0674)"><g data-paper-data="{&quot;isPaintingLayer&quot;:true}" fill-rule="nonzero" stroke="none" stroke-linejoin="miter" stroke-miterlimit="10" stroke-dasharray="" stroke-dashoffset="0" style="mix-blend-mode: normal"><path d="M204.5706,184.30118h70.85881l7.72323,49.8785h-86.30527z" fill="#4f4f4f" stroke-width="1" stroke-linecap="butt"/><path d="M210.59199,226.91651v-35.35218h58.81602v35.35218z" fill="url(#color-1)" stroke-width="0" stroke-linecap="butt"/><text transform="translate(216.80123,208.61233) scale(0.18971,0.18971)" font-size="40" xml:space="preserve" fill="#dbdbdb" fill-rule="nonzero" stroke="none" stroke-width="1" stroke-linecap="butt" stroke-linejoin="miter" stroke-miterlimit="10" stroke-dasharray="" stroke-dashoffset="0" font-family="Sans Serif" font-weight="normal" text-anchor="start" style="mix-blend-mode: normal"><tspan x="0" dy="0">L is real 2401</tspan></text><path d="M217.206,216.1321v-1.04201h45.84852v1.04201z" fill="#dbdbdb" stroke-width="0" stroke-linecap="butt"/><path d="M247.93174,181.39363c-2.68239,-1.67506 -8.02501,-6.55536 -8.02501,-6.55536c0,0 -5.95988,5.12951 -8.48626,6.76723c-5.78656,3.7511 -10.47245,4.26826 -10.96966,3.56252c-0.61621,-0.87458 -0.28699,-6.9702 0.83437,-12.91782c0.89674,-4.75615 1.87396,-8.25845 1.87396,-8.25845c-2.98743,-2.30466 -5.40385,-3.34908 -7.75955,-5.36916c-4.82026,-4.13353 -6.94372,-9.51538 -6.53369,-10.66615c0.56121,-1.57511 8.61771,-3.22881 19.98945,-3.56533l0.72195,-0.26651c3.86386,-11.08114 8.48681,-19.05719 10.3121,-19.05719c1.69315,0.02997 6.39095,7.94028 10.3611,18.95104l0.56665,0.39247c11.50098,0.35861 19.72464,2.02604 20.32996,3.54552c0.36064,0.90527 -1.92023,6.67513 -7.62576,11.35532c-2.00995,1.64873 -4.49036,2.53617 -6.86658,4.37177c0,0 1.21448,3.90464 2.21269,9.18011c1.12621,5.95202 1.29654,11.64856 0.46053,12.30444c-0.71717,0.56264 -5.81043,-0.28624 -11.39621,-3.77441z" data-paper-data="{&quot;index&quot;:null}" fill="url(#color-2)" stroke-width="0" stroke-linecap="round"/></g></g></svg>