<svg version="1.1" xmlns="http://www.w3.org/2000/svg" xmlns:xlink="http://www.w3.org/1999/xlink" width="482.08358" height="341.19556" viewBox="0,0,482.08358,341.19556"><defs><linearGradient x1="192.89268" y1="252.70174" x2="161.10732" y2="291.29826" gradientUnits="userSpaceOnUse" id="color-1"><stop offset="0" stop-color="#badbee"/><stop offset="1" stop-color="#64b9e0"/></linearGradient><linearGradient x1="256.89268" y1="252.70174" x2="225.10732" y2="291.29825" gradientUnits="userSpaceOnUse" id="color-2"><stop offset="0" stop-color="#badbee"/><stop offset="1" stop-color="#64b9e0"/></linearGradient><linearGradient x1="319.89268" y1="252.70174" x2="288.10732" y2="291.29825" gradientUnits="userSpaceOnUse" id="color-3"><stop offset="0" stop-color="#badbee"/><stop offset="1" stop-color="#64b9e0"/></linearGradient></defs><g transform="translate(1.04179,-42.30445)"><g data-paper-data="{&quot;isPaintingLayer&quot;:true}" fill-rule="nonzero" stroke-linecap="butt" stroke-linejoin="miter" stroke-miterlimit="10" stroke-dasharray="" stroke-dashoffset="0" style="mix-blend-mode: normal"><g><path d="M110,345.5c5.242,0 9.992,2.129 13.431,5.569c3.44,3.439 5.569,8.189 5.569,13.431c0,5.242 -2.129,9.992 -5.569,13.431c-3.439,3.44 -8.189,5.569 -13.431,5.569c-5.242,0 -9.992,-2.129 -13.431,-5.569c-3.44,-3.439 -5.569,-8.189 -5.569,-13.431c0,-5.242 2.129,-9.992 5.569,-13.431c3.439,-3.44 8.189,-5.569 13.431,-5.569z" fill="#000000" stroke="none" stroke-width="1"/><path d="M101,329.5h14v21h-14z" fill="#b2b2b2" stroke="#666666" stroke-width="2"/></g><g><path d="M349,343.5c5.242,0 9.992,2.129 13.431,5.569c3.44,3.439 5.569,8.189 5.569,13.431c0,5.242 -2.129,9.992 -5.569,13.431c-3.439,3.44 -8.189,5.569 -13.431,5.569c-5.242,0 -9.992,-2.129 -13.431,-5.569c-3.44,-3.439 -5.569,-8.189 -5.569,-13.431c0,-5.242 2.129,-9.992 5.569,-13.431c3.439,-3.44 8.189,-5.569 13.431,-5.569z" fill="#000000" stroke="none" stroke-width="1"/><path d="M340,327.5h14v21h-14z" fill="#b2b2b2" stroke="#666666" stroke-width="2"/></g><path d="M134.4666,145.5h19v73h-19z" data-paper-data="{&quot;origPos&quot;:null}" fill="#b2b2b2" stroke="#666666" stroke-width="2"/><path d="M326.4666,145.5h19v73h-19z" data-paper-data="{&quot;origPos&quot;:null}" fill="#b2b2b2" stroke="#666666" stroke-width="2"/><path d="M133.5089,141.5h212.9822v19h-212.9822z" data-paper-data="{&quot;origPos&quot;:null}" fill="#b2b2b2" stroke="#666666" stroke-width="2.03418"/><path d="M0,208.0492h480v132h-480z" fill="#cc7700" stroke="#663b00" stroke-width="2.08358"/><path d="M0,43.23439h410v11.86501h-410z" fill="#cc7700" stroke="#663b00" stroke-width="1.85989"/><path d="M157.70174,256.10732c8.77729,-10.65813 24.5328,-12.18286 35.19094,-3.40557c10.65813,8.77729 12.18286,24.5328 3.40557,35.19094c-8.77729,10.65813 -24.5328,12.18286 -35.19094,3.40557c-10.65813,-8.77729 -12.18286,-24.5328 -3.40557,-35.19094z" data-paper-data="{&quot;origPos&quot;:null,&quot;origRot&quot;:0}" fill="url(#color-1)" stroke="#965700" stroke-width="7"/><path d="M221.70175,256.10732c8.77729,-10.65813 24.53281,-12.18286 35.19094,-3.40558c10.65813,8.77729 12.18286,24.53281 3.40557,35.19093c-8.77729,10.65813 -24.53281,12.18286 -35.19094,3.40557c-10.65813,-8.77729 -12.18286,-24.5328 -3.40557,-35.19093z" data-paper-data="{&quot;origPos&quot;:null,&quot;origRot&quot;:0}" fill="url(#color-2)" stroke="#965700" stroke-width="7"/><path d="M284.70174,256.10732c8.77729,-10.65813 24.53281,-12.18286 35.19094,-3.40558c10.65813,8.77729 12.18286,24.53281 3.40557,35.19093c-8.77729,10.65813 -24.53281,12.18286 -35.19094,3.40557c-10.65813,-8.77729 -12.18286,-24.5328 -3.40557,-35.19093z" data-paper-data="{&quot;origPos&quot;:null,&quot;origRot&quot;:0}" fill="url(#color-3)" stroke="#965700" stroke-width="7"/></g></g></svg>