<svg version="1.1" xmlns="http://www.w3.org/2000/svg" xmlns:xlink="http://www.w3.org/1999/xlink" width="115" height="115" viewBox="0,0,115,115"><g transform="translate(-182.5,-121.875)"><g data-paper-data="{&quot;isPaintingLayer&quot;:true}" fill-rule="nonzero" stroke-linejoin="miter" stroke-miterlimit="10" stroke-dasharray="" stroke-dashoffset="0" style="mix-blend-mode: normal"><path d="M189,127.875h102v104.75h-102z" data-paper-data="{&quot;origPos&quot;:null}" fill="#7e86a8" stroke="none" stroke-width="1" stroke-linecap="butt"/><path d="M188.25,216.125h103.5v17.5h-103.5z" data-paper-data="{&quot;origPos&quot;:null}" fill="#a87a2e" stroke="none" stroke-width="1" stroke-linecap="butt"/><path d="M188.75,127.125h104.25v15h-104.25z" data-paper-data="{&quot;origPos&quot;:null}" fill="#a87a2e" stroke="none" stroke-width="1" stroke-linecap="butt"/><g data-paper-data="{&quot;origPos&quot;:null}" stroke="none" stroke-width="1" stroke-linecap="butt"><path d="M200.75,180.375h8.25v24.25h-8.25z" fill="#000000"/><path d="M210.75,180.625h8.25v24.25h-8.25z" fill="#000000"/><path d="M210.5,154.875h8.25v24.25h-8.25z" fill="#000000"/><path d="M201,154.875h8.25v24.25h-8.25z" fill="#000000"/><path d="M218.875,146.125c2.242,0 4.273,0.91 5.744,2.381c1.471,1.471 2.381,3.502 2.381,5.744c0,2.242 -0.91,4.273 -2.381,5.744c-1.471,1.471 -3.502,2.381 -5.744,2.381c-2.242,0 -4.273,-0.91 -5.744,-2.381c-1.471,-1.471 -2.381,-3.502 -2.381,-5.744c0,-2.242 0.91,-4.273 2.381,-5.744c1.471,-1.471 3.502,-2.381 5.744,-2.381z" fill="#7e86a8"/><path d="M200.875,146.375c2.242,0 4.273,0.91 5.744,2.381c1.471,1.471 2.381,3.502 2.381,5.744c0,2.242 -0.91,4.273 -2.381,5.744c-1.471,1.471 -3.502,2.381 -5.744,2.381c-2.242,0 -4.273,-0.91 -5.744,-2.381c-1.471,-1.471 -2.381,-3.502 -2.381,-5.744c0,-2.242 0.91,-4.273 2.381,-5.744c1.471,-1.471 3.502,-2.381 5.744,-2.381z" fill="#7e86a8"/></g><g data-paper-data="{&quot;origPos&quot;:null}" stroke="none" stroke-width="1" stroke-linecap="butt"><path d="M257.25,181.375h8.25v24.25h-8.25z" fill="#000000"/><path d="M267.25,181.625h8.25v24.25h-8.25z" fill="#000000"/><path d="M267,155.875h8.25v24.25h-8.25z" fill="#000000"/><path d="M257.5,155.875h8.25v24.25h-8.25z" fill="#000000"/><path d="M275.375,147.125c2.242,0 4.273,0.91 5.744,2.381c1.471,1.471 2.381,3.502 2.381,5.744c0,2.242 -0.91,4.273 -2.381,5.744c-1.471,1.471 -3.502,2.381 -5.744,2.381c-2.242,0 -4.273,-0.91 -5.744,-2.381c-1.471,-1.471 -2.381,-3.502 -2.381,-5.744c0,-2.242 0.91,-4.273 2.381,-5.744c1.471,-1.471 3.502,-2.381 5.744,-2.381z" fill="#7e86a8"/><path d="M257.375,147.375c2.242,0 4.273,0.91 5.744,2.381c1.471,1.471 2.381,3.502 2.381,5.744c0,2.242 -0.91,4.273 -2.381,5.744c-1.471,1.471 -3.502,2.381 -5.744,2.381c-2.242,0 -4.273,-0.91 -5.744,-2.381c-1.471,-1.471 -2.381,-3.502 -2.381,-5.744c0,-2.242 0.91,-4.273 2.381,-5.744c1.471,-1.471 3.502,-2.381 5.744,-2.381z" fill="#7e86a8"/></g><path d="M258,204.625l1.75,-15.5l2.5,1l2.25,-6.5" data-paper-data="{&quot;origPos&quot;:null}" fill="none" stroke="#ffff99" stroke-width="2" stroke-linecap="round"/><path d="M267.25,179.375l2,-9.5l2.25,1.5l1.5,-7.75" data-paper-data="{&quot;origPos&quot;:null}" fill="none" stroke="#ffff99" stroke-width="2" stroke-linecap="round"/><path d="M187,126.375h106v106h-106z" data-paper-data="{&quot;origPos&quot;:null}" fill="none" stroke="#995900" stroke-width="9" stroke-linecap="butt"/></g></g></svg>