<svg version="1.1" xmlns="http://www.w3.org/2000/svg" xmlns:xlink="http://www.w3.org/1999/xlink" width="97.09302" height="99.2973" viewBox="0,0,97.09302,99.2973"><defs><linearGradient x1="246.70197" y1="138.11997" x2="246.70197" y2="174.00956" gradientUnits="userSpaceOnUse" id="color-1"><stop offset="0" stop-color="#e73a0f"/><stop offset="1" stop-color="#921d13"/></linearGradient><linearGradient x1="233.24338" y1="170.48469" x2="225.71297" y2="170.48469" gradientUnits="userSpaceOnUse" id="color-2"><stop offset="0" stop-color="#921d13"/><stop offset="1" stop-color="#a82317"/></linearGradient><radialGradient cx="213.00943" cy="146.14001" r="4.44012" gradientUnits="userSpaceOnUse" id="color-3"><stop offset="0" stop-color="#ffffff"/><stop offset="1" stop-color="#a08e90"/></radialGradient><radialGradient cx="219.28861" cy="144.12766" r="6.93432" gradientUnits="userSpaceOnUse" id="color-4"><stop offset="0" stop-color="#ffffff"/><stop offset="1" stop-color="#a08e90"/></radialGradient></defs><g transform="translate(-204.02939,-120.48771)"><g data-paper-data="{&quot;isPaintingLayer&quot;:true}" fill-rule="nonzero" stroke-linejoin="miter" stroke-miterlimit="10" stroke-dasharray="" stroke-dashoffset="0" style="mix-blend-mode: normal"><path d="M241.68249,147.63435c6.23507,5.78923 8.92166,14.68516 12.70927,22.357c3.39971,6.88449 -15.3687,16.73716 -18.91899,10.25394c-4.20334,-7.67549 -10.41717,-14.89946 -11.90767,-23.42736c-0.55822,-3.87068 3.3445,-7.41668 6.54085,-9.0551c3.38047,-1.73294 8.57754,-2.7916 11.57655,-0.1285z" data-paper-data="{&quot;index&quot;:null}" fill="#814719" stroke="none" stroke-width="0.40022" stroke-linecap="round"/><g data-paper-data="{&quot;index&quot;:null}" stroke="none" stroke-linecap="round"><path d="M299.97236,198.1251c1.09417,1.34461 1.35546,3.4022 1.00316,5.09558c-0.52098,2.51022 -2.05557,4.73638 -3.36885,6.94686c-1.85619,3.12527 -3.07382,7.05631 -6.10082,9.05863c-1.62838,1.10555 -4.68725,0.49152 -5.7536,-1.14521c-1.73192,-2.65823 -1.66473,-6.36158 -1.23179,-9.54672c0.49176,-3.37 1.85566,-6.73817 3.91667,-9.48812c1.45702,-1.94323 3.79145,-3.61971 6.21197,-3.82556c2.02991,-0.17243 4.08831,1.30355 5.32325,2.90455z" data-paper-data="{&quot;index&quot;:null}" fill="#d8b199" stroke-width="0.47213"/><path d="M299.25392,179.61165c1.07209,3.33244 -6.78073,6.43324 -6.90235,10.25368c-0.12387,4.04781 7.43257,4.97328 6.64304,9.17803c-0.81165,4.29235 -5.97773,9.48604 -10.60373,9.92758c-6.24884,0.59135 -11.44229,-3.64068 -14.96037,-7.86649c-2.68688,-3.2315 -3.7366,-8.50351 -1.91532,-12.99732c2.75555,-6.79398 7.10141,-15.56505 14.17048,-17.691c6.19859,-1.93777 11.90014,4.00594 13.56825,9.19555z" data-paper-data="{&quot;index&quot;:null}" fill="#814719" stroke-width="0.43026"/></g><g data-paper-data="{&quot;index&quot;:null}" stroke="none" stroke-linecap="round"><path d="M250.45237,166.41134c6.28237,4.4143 13.48226,8.32445 18.26252,14.30321c2.42751,3.24436 4.23917,8.54691 2.00996,11.63786c-2.5145,3.4866 -8.50225,4.77621 -13.07142,3.73502c-7.06758,-1.8258 -12.6729,-7.62187 -18.8952,-11.6118c-7.36674,-4.72361 4.69407,-22.98386 11.69414,-18.06429z" data-paper-data="{&quot;index&quot;:null}" fill="#814719" stroke-width="0.40022"/><path d="M268.47362,184.9251c3.37739,-0.32374 6.55636,3.85498 9.79637,2.83717c2.16996,-0.68315 0.07736,-5.39074 2.02827,-6.67685c1.53291,-0.97461 4.88863,0.20371 5.13799,2.02738c0.62635,4.57889 -0.59289,9.65146 -3.08068,13.53176c-1.97862,3.08737 -5.87433,5.74598 -9.44219,5.66732c-4.26804,-0.09926 -8.78329,-2.53743 -11.38102,-5.91005c-1.45022,-1.92546 0.23192,-5.04143 1.46907,-7.06374c1.22115,-1.99657 3.15062,-4.14885 5.47215,-4.41299z" data-paper-data="{&quot;index&quot;:null}" fill="#d8b199" stroke-width="0.47213"/></g><path d="M251.7359,141.0789c7.02709,2.10604 15.63298,6.51641 24.14783,12.73143c8.51485,6.21519 15.33861,13.06702 19.48663,19.11756c4.14766,6.0491 6.8288,11.58735 3.4243,14.3025c-5.71405,4.54857 -16.23831,5.16559 -25.03118,2.42364c-13.09707,-4.08504 -25.28381,-13.40513 -36.77814,-21.90108c-5.39682,-3.98643 -13.4879,-9.21374 -13.57481,-14.85168c0.12578,-6.1191 8.24368,-8.43045 13.65975,-10.72364c4.17735,-1.77242 7.64015,-3.20495 14.66562,-1.09873z" data-paper-data="{&quot;index&quot;:null}" fill="#96521e" stroke="none" stroke-width="0.5448" stroke-linecap="round"/><g data-paper-data="{&quot;index&quot;:null}" stroke="none" stroke-width="1"><path d="M246.38153,144.36857l-0.96132,7.37018l-2.56354,9.13262l-5.9282,8.17129l-4.16576,4.96686l-2.72376,-0.64088l6.24863,-9.61328l4.32599,-7.37018l1.76243,-5.60775l0.80111,-6.56907v-6.08841l3.52487,0.32044z" fill="url(#color-1)" stroke-linecap="round"/><g><path d="M235.48647,202.68919l-7.85085,9.61328l-4.64641,-11.21549l5.12708,-23.07189l3.68509,0.32045z" fill="#ed0000" stroke-linecap="round"/><path d="M231.96161,178.49576l-4.16577,0.16022l-2.08287,-6.56908l2.2431,-1.44199l3.52486,-0.16022l1.76244,2.2431z" fill="url(#color-2)" stroke-linecap="round"/><text transform="translate(233.48178,204.01944) rotate(-180) scale(0.28142,-0.38042) skewX(0)" font-size="22" xml:space="preserve" fill="#ffff00" fill-rule="nonzero" stroke="none" stroke-width="1" stroke-linecap="butt" stroke-linejoin="miter" stroke-miterlimit="10" stroke-dasharray="" stroke-dashoffset="0" font-family="Sans Serif" font-weight="400" text-anchor="start" style="mix-blend-mode: normal"><tspan x="0" dy="0">DK</tspan></text><text transform="translate(233.06297,203.5847) rotate(-180) scale(0.25043,-0.33853) skewX(0)" font-size="22" xml:space="preserve" fill="#ff0000" fill-rule="nonzero" stroke="none" stroke-width="1" stroke-linecap="butt" stroke-linejoin="miter" stroke-miterlimit="10" stroke-dasharray="" stroke-dashoffset="0" font-family="Sans Serif" font-weight="400" text-anchor="start" style="mix-blend-mode: normal"><tspan x="0" dy="0">DK</tspan></text><text transform="translate(232.63998,203.35885) rotate(-180) scale(0.22165,-0.29962)" font-size="22" xml:space="preserve" fill="#ffff00" fill-rule="nonzero" stroke="none" stroke-width="1" stroke-linecap="butt" stroke-linejoin="miter" stroke-miterlimit="10" stroke-dasharray="" stroke-dashoffset="0" font-family="Sans Serif" font-weight="400" text-anchor="start" style="mix-blend-mode: normal"><tspan x="0" dy="0">DK</tspan></text></g></g><g data-paper-data="{&quot;index&quot;:null}"><path d="M241.0782,133.15311c2.30078,3.76136 2.60425,8.68945 2.2431,13.05804c-0.32269,3.90331 -1.66053,8.13092 -4.34359,10.92999c-2.68275,2.79874 -6.68444,4.78293 -10.47688,4.53137c-4.72108,-0.31243 -9.54214,-2.70839 -13.05804,-5.9282c-1.9531,-1.87139 -1.57337,-4.56983 -1.92266,-6.88951c-0.24418,-1.83357 0.31723,-3.63863 0.16022,-5.44753c-0.1128,-1.32599 -1.41187,-2.64333 -1.12155,-4.00554c0.88986,-3.30121 3.10958,-6.12943 4.4862,-9.29284c0.47521,-1.08533 1.04241,-2.19823 0.96133,-3.36464c-0.02276,-0.81617 -0.54059,-2.13639 -1.28177,-2.08288c-0.97831,0.06281 -1.97649,2.80707 -2.2431,2.40332c-0.3025,-0.48772 -0.23457,-3.44669 0.80111,-4.64642c1.35644,-1.31478 3.51269,-1.80793 5.44753,-1.92265c1.58107,-0.09261 2.90353,1.63586 4.4862,1.60221c1.08886,-0.02467 1.68264,-1.74032 2.72376,-1.60221c0.79118,0.11023 0.70402,1.35579 1.12156,1.92265c0.49156,0.82354 0.75657,1.49903 1.60221,2.24311c3.35984,2.9548 8.01811,4.58425 10.41438,8.49173z" fill="#814719" stroke="none" stroke-width="1" stroke-linecap="round"/><path d="M215.73694,145.23121c0.36275,0.38421 0.58705,0.91486 0.58705,1.50063c0,0.58578 -0.2243,1.11643 -0.58705,1.50064c-0.36242,0.38453 -0.86327,0.6223 -1.41571,0.6223c-0.55244,0 -1.0533,-0.23776 -1.41572,-0.6223c-0.36275,-0.38421 -0.58705,-0.91486 -0.58705,-1.50064c0,-0.58578 0.2243,-1.11642 0.58705,-1.50063c0.36242,-0.38453 0.86328,-0.6223 1.41572,-0.6223c0.55244,0 1.05329,0.23776 1.41571,0.6223z" fill="url(#color-3)" stroke="none" stroke-width="1" stroke-linecap="butt"/><path d="M223.59484,142.8734c0.754,0.6598 1.22088,1.57112 1.22088,2.57667c0,1.00555 -0.46688,1.91688 -1.22088,2.57667c-0.754,0.6598 -1.79543,1.06836 -2.94487,1.06836c-1.14943,0 -2.19087,-0.40857 -2.94487,-1.06836c-0.754,-0.6598 -1.22089,-1.57112 -1.22089,-2.57667c0,-1.00555 0.46689,-1.91688 1.22089,-2.57667c0.754,-0.6598 1.79544,-1.06836 2.94487,-1.06836c1.14943,0 2.19087,0.40856 2.94487,1.06836z" fill="url(#color-4)" stroke="none" stroke-width="1" stroke-linecap="butt"/><path d="M230.34337,132.67244c1.01772,1.86049 1.37886,4.25163 0.72099,6.24863c-1.08053,3.58319 -3.44348,6.69885 -5.68786,9.69339c-0.5611,0.74856 -1.42533,0.70786 -1.60222,0.24033c-0.32364,-0.8636 0.26437,-2.07935 0.64089,-3.04421c0.73413,-1.88068 2.06589,-3.47424 2.72376,-5.36741c0.25955,-0.74599 0.38325,-2.26521 -0.08011,-2.32321c-0.57327,-0.07145 -1.07862,1.69194 -1.92266,2.16299c-2.48023,1.37855 -5.06331,2.54527 -7.77074,3.28454c-1.72526,0.50405 -3.55243,0.69248 -5.36741,0.40056c-0.59955,-0.0987 -0.93473,-0.86937 -0.96133,-1.52211c-0.05672,-1.28305 -0.11248,-2.90578 0.88122,-3.76521c0.86807,-0.74951 2.39051,0.56206 3.44476,0.08011c2.58822,-1.21416 4.61822,-3.44187 7.04973,-4.96686c1.46507,-0.91935 2.88527,-2.07165 4.64642,-2.32321c1.15295,-0.16439 2.72569,0.18008 3.28454,1.20166z" fill="#edc2a8" stroke="none" stroke-width="1" stroke-linecap="round"/><path d="M243.48152,138.60063c1.06419,1.41123 1.51603,3.41048 1.20166,5.12709c-0.29192,1.83486 -1.47468,3.53126 -2.88398,4.72652c-1.38656,1.17603 -3.27076,2.09346 -5.04697,2.08289c-1.24331,-0.00706 -2.70742,-0.92448 -3.04421,-2.16299c-0.36626,-1.35259 0.99947,-2.62474 1.52211,-3.92542c0.60019,-1.49263 0.80687,-3.14771 1.76243,-4.40608c0.77835,-1.02606 1.92523,-1.99892 3.20443,-2.32321c1.10265,-0.20508 2.60263,-0.02308 3.28453,0.88121z" fill="#edc2a8" stroke="none" stroke-width="1" stroke-linecap="round"/><path d="M238.034,145.16969c0,0 0.19804,-0.54123 0.32044,-0.80111c0.09165,-0.19451 0.21373,-0.37395 0.32044,-0.56077c0.1067,-0.18681 0.18939,-0.39031 0.32045,-0.56078c0.13812,-0.17944 0.28583,-0.36562 0.48066,-0.48066c0.4012,-0.23712 0.83988,-0.41338 1.28177,-0.56078c0.20412,-0.06794 0.42683,-0.0596 0.64089,-0.08011c0.34639,-0.033 1.04143,-0.08011 1.04143,-0.08011" fill="none" stroke="#8f4d28" stroke-width="2" stroke-linecap="round"/><g fill="#000000" stroke="none" stroke-width="1.0037" stroke-linecap="butt"><path d="M214.54455,145.4658c0.2031,0.23956 0.32871,0.56994 0.32871,0.93457c0,0.36463 -0.12561,0.69501 -0.32871,0.93457c-0.2031,0.23922 -0.48342,0.38725 -0.79284,0.38725c-0.30939,0 -0.58972,-0.14804 -0.79284,-0.38725c-0.2031,-0.23956 -0.32871,-0.56994 -0.32871,-0.93457c0,-0.36463 0.12561,-0.69501 0.32871,-0.93457c0.20313,-0.23922 0.48346,-0.38726 0.79284,-0.38726c0.30942,0 0.58974,0.14804 0.79284,0.38726z"/></g><g fill="#000000" stroke="none" stroke-width="1" stroke-linecap="butt"><path d="M219.75626,144.70154c0.30474,0.30442 0.49316,0.72517 0.49316,1.18917c0,0.464 -0.18842,0.88475 -0.49316,1.18917c-0.30442,0.30474 -0.72517,0.49317 -1.18917,0.49317c-0.464,0 -0.88475,-0.18842 -1.18916,-0.49317c-0.30474,-0.30442 -0.49316,-0.72517 -0.49316,-1.18917c0,-0.464 0.18842,-0.88475 0.49316,-1.18917c0.30442,-0.30474 0.72516,-0.49316 1.18916,-0.49316c0.464,0 0.88475,0.18841 1.18917,0.49316z"/></g><path d="M231.00275,153.37179c1.99828,-1.44423 3.29127,-5.22835 5.76797,-4.64642c3.07432,0.72837 6.24736,4.56695 5.60775,7.69063c-1.23819,6.04196 -6.01086,11.0229 -10.57461,15.22102c-2.25912,1.94861 -5.77855,2.28188 -8.81218,2.2431c-3.25282,-0.04069 -6.96035,-0.34032 -9.61329,-2.2431c-3.48193,-2.69845 -8.78621,-7.38748 -7.69062,-10.73482c1.05041,-3.17078 8.19949,-1.72494 12.17683,-2.56354c2.28283,-0.48291 4.75888,-0.40088 6.88951,-1.28177c2.32033,-0.80175 4.31221,-2.28764 6.24864,-3.68509z" fill="#edc2a8" stroke="none" stroke-width="1" stroke-linecap="round"/><g fill="#edc2a8" stroke="none" stroke-width="1" stroke-linecap="round"><path d="M237.63345,149.41557c0.83058,0.27878 0.1458,1.17666 -0.96133,1.84255c-4.16159,2.59719 -8.38343,5.42734 -13.13816,6.88952c-4.19684,1.29074 -8.74712,0.36915 -13.13815,1.12155c-1.83646,0.31596 -3.23777,1.95439 -5.12709,2.2431c-0.47682,0.07307 -1.09527,-0.47137 -0.96132,-1.04144c0.40055,-1.52819 1.68136,-2.65391 2.56354,-4.00554c1.30849,-1.8182 2.1311,-4.27927 3.47484,-6.10417c0.65505,-0.88961 1.43395,-1.62804 2.45335,-2.06712c4.41089,-1.8999 9.6277,-0.58769 14.41992,-0.32044c3.50661,0.10735 7.09526,0.3291 10.4144,1.44199z"/></g></g><path d="M211.63082,152.208c0.17059,0.30626 0.08799,2.26871 -0.04103,2.53142c-0.11444,0.23338 -0.55404,-0.96107 -0.54684,-1.55866c0.00522,-0.44752 0.48782,-1.43719 0.57815,-1.18077z" data-paper-data="{&quot;index&quot;:null}" fill="none" stroke="#b1695f" stroke-width="0.81869" stroke-linecap="round"/><path d="M216.13544,152.75404c0.17059,0.30626 0.08799,2.26871 -0.04103,2.53143c-0.11444,0.23338 -0.55404,-0.96107 -0.54684,-1.55866c0.00522,-0.44752 0.48782,-1.4372 0.57815,-1.18078z" data-paper-data="{&quot;index&quot;:null}" fill="none" stroke="#b1695f" stroke-width="0.8187" stroke-linecap="round"/><g data-paper-data="{&quot;index&quot;:null}" stroke="none" stroke-linecap="round"><path d="M278.34853,196.7887c1.26519,1.59672 1.17215,4.12789 0.51995,6.04178c-0.51626,1.65489 -2.08697,3.00947 -3.69307,3.65136c-2.38016,0.9526 -5.08355,0.90339 -7.65161,1.02998c-3.6305,0.17946 -7.57986,1.33637 -10.92118,-0.0805c-1.82116,-0.74652 -2.9993,-3.63542 -2.22418,-5.42849c1.25886,-2.91223 4.38281,-4.90221 7.27692,-6.3011c3.08068,-1.45197 6.64164,-2.17597 10.07247,-1.97733c2.42471,0.14087 5.11183,1.16048 6.62071,3.06429z" data-paper-data="{&quot;index&quot;:null}" fill="#edc2a8" stroke-width="0.47213"/><path d="M293.43232,188.21002c-2.18538,2.73469 -9.10851,-2.0977 -12.36013,-0.08836c-3.44239,2.13307 -0.03903,8.94288 -3.97999,10.60782c-4.02621,1.69489 -11.20941,0.25822 -14.13323,-3.35371c-3.94526,-4.88187 -3.28704,-11.54887 -1.70835,-16.81593c1.20908,-4.02491 5.0235,-7.81257 9.77543,-8.77721c7.18534,-1.4567 16.89727,-2.68017 22.57484,2.03757c5.03976,4.0961 3.23554,12.13227 -0.16854,16.38985z" data-paper-data="{&quot;index&quot;:null}" fill="#c06832" stroke-width="0.43026"/></g><g data-paper-data="{&quot;index&quot;:null}" stroke="none" stroke-linecap="round"><path d="M245.41135,175.74979c-6.97027,3.22021 -13.96465,7.48708 -21.53474,8.62303c-4.02435,0.47241 -9.52024,-0.62043 -11.07584,-4.09947c-1.75475,-3.92426 0.13345,-9.75101 3.32629,-13.18136c5.12493,-5.19801 12.95085,-7.13936 19.52386,-10.52053c6.85433,-3.526 17.52779,15.5907 9.76043,19.17833z" data-paper-data="{&quot;index&quot;:null}" fill="#c06832" stroke-width="0.40022"/><path d="M221.62532,180.99818c-1.21508,2.91887 -6.13635,3.3334 -6.70608,6.50153c-0.3803,2.12254 4.50809,2.86782 4.73227,5.12577c0.14586,1.75548 -2.32533,3.8752 -3.97167,3.1293c-4.13386,-1.8725 -7.87074,-5.50474 -10.04412,-9.54978c-1.7297,-3.2177 -2.25369,-7.77348 -0.61571,-10.638c1.96382,-3.42405 6.0071,-5.83236 9.9932,-6.19305c2.26118,-0.17917 4.14551,2.81206 5.30454,4.87172c1.14422,2.03339 2.10767,4.72452 1.30756,6.75251z" data-paper-data="{&quot;index&quot;:null}" fill="#edc2a8" stroke-width="0.45259"/></g><path d="M262.79128,180.18856c-8.40751,1.30585 -17.05422,-2.09852 -25.42254,-3.88017c-7.51001,-1.59821 -3.61171,-22.43406 3.67668,-21.20274c8.62884,1.45765 18.1492,1.05759 25.76584,5.17262c3.38376,1.96059 3.74821,7.22105 3.05328,10.745c-0.73483,3.727 -3.12462,8.46192 -7.07326,9.16528z" data-paper-data="{&quot;index&quot;:null}" fill="#c06832" stroke="none" stroke-width="0.40022" stroke-linecap="round"/></g></g></svg>