<svg version="1.1" xmlns="http://www.w3.org/2000/svg" xmlns:xlink="http://www.w3.org/1999/xlink" width="564.23147" height="305.00468" viewBox="0,0,564.23147,305.00468"><defs><linearGradient x1="281.73356" y1="264.07367" x2="311.39286" y2="264.07367" gradientUnits="userSpaceOnUse" id="color-1"><stop offset="0" stop-color="#d6dde2"/><stop offset="1" stop-color="#d6dde2" stop-opacity="0"/></linearGradient><linearGradient x1="25.57974" y1="25.99703" x2="25.57974" y2="324.99403" gradientUnits="userSpaceOnUse" id="color-2"><stop offset="0" stop-color="#ff796b"/><stop offset="1" stop-color="#ff4040"/></linearGradient><linearGradient x1="186.0676" y1="64.04089" x2="186.0676" y2="200.3679" gradientUnits="userSpaceOnUse" id="color-3"><stop offset="0" stop-color="#edf3f8"/><stop offset="1" stop-color="#cedee9"/></linearGradient><linearGradient x1="204.15469" y1="120.26814" x2="204.15469" y2="138.96141" gradientUnits="userSpaceOnUse" id="color-4"><stop offset="0" stop-color="#ff4040"/><stop offset="1" stop-color="#c33131"/></linearGradient><linearGradient x1="235.45863" y1="157.30764" x2="205.94949" y2="160.39738" gradientUnits="userSpaceOnUse" id="color-5"><stop offset="0" stop-color="#ffffff"/><stop offset="1" stop-color="#ffffff" stop-opacity="0"/></linearGradient><linearGradient x1="173.57667" y1="157.14255" x2="203.12531" y2="159.75596" gradientUnits="userSpaceOnUse" id="color-6"><stop offset="0" stop-color="#979797"/><stop offset="1" stop-color="#979797" stop-opacity="0"/></linearGradient><linearGradient x1="202.75845" y1="193.02116" x2="202.75845" y2="217.3473" gradientUnits="userSpaceOnUse" id="color-7"><stop offset="0" stop-color="#ff4040"/><stop offset="1" stop-color="#c33131"/></linearGradient><linearGradient x1="86.18898" y1="201.12987" x2="127.51817" y2="201.12987" gradientUnits="userSpaceOnUse" id="color-8"><stop offset="0" stop-color="#c33131"/><stop offset="1" stop-color="#ff4040"/></linearGradient><linearGradient x1="94.79009" y1="263.61133" x2="124.44937" y2="263.61133" gradientUnits="userSpaceOnUse" id="color-9"><stop offset="0" stop-color="#d6dde2"/><stop offset="1" stop-color="#d6dde2" stop-opacity="0"/></linearGradient><linearGradient x1="175.67908" y1="265.13212" x2="205.33838" y2="265.13212" gradientUnits="userSpaceOnUse" id="color-10"><stop offset="0" stop-color="#d6dde2"/><stop offset="1" stop-color="#d6dde2" stop-opacity="0"/></linearGradient><linearGradient x1="12.64159" y1="193.88878" x2="12.64159" y2="217.53328" gradientUnits="userSpaceOnUse" id="color-11"><stop offset="0" stop-color="#ff4040"/><stop offset="1" stop-color="#c33131"/></linearGradient><linearGradient x1="-103.9279" y1="201.77026" x2="-62.5987" y2="201.77026" gradientUnits="userSpaceOnUse" id="color-12"><stop offset="0" stop-color="#c33131"/><stop offset="1" stop-color="#ff4040"/></linearGradient><linearGradient x1="-95.32679" y1="262.50092" x2="-65.66751" y2="262.50092" gradientUnits="userSpaceOnUse" id="color-13"><stop offset="0" stop-color="#d6dde2"/><stop offset="1" stop-color="#d6dde2" stop-opacity="0"/></linearGradient><linearGradient x1="203.95885" y1="30.30349" x2="203.95885" y2="66.84167" gradientUnits="userSpaceOnUse" id="color-14"><stop offset="0" stop-color="#ff4040"/><stop offset="1" stop-color="#c33131"/></linearGradient><linearGradient x1="33.09925" y1="304.29711" x2="33.09925" y2="325.0235" gradientUnits="userSpaceOnUse" id="color-15"><stop offset="0" stop-color="#8d5418"/><stop offset="1" stop-color="#a75d1c"/></linearGradient><linearGradient x1="38.35871" y1="287.17748" x2="38.35871" y2="323.07428" gradientUnits="userSpaceOnUse" id="color-16"><stop offset="0" stop-color="#7de75a"/><stop offset="1" stop-color="#62b446"/></linearGradient></defs><g transform="translate(257.15634,-22.98935)"><g data-paper-data="{&quot;isPaintingLayer&quot;:true}" fill-rule="nonzero" stroke-linejoin="miter" stroke-miterlimit="10" stroke-dasharray="" stroke-dashoffset="0" style="mix-blend-mode: normal"><path d="" data-paper-data="{&quot;origPos&quot;:null}" fill="url(#color-1)" stroke="none" stroke-width="0" stroke-linecap="butt"/><path d="M302.76004,25.99703l-110.8863,298.997h-440.4743l-5.5,-298.00694z" fill="none" stroke="#801818" stroke-width="6" stroke-linecap="round"/><path d="M302.76004,25.99703l-110.8863,298.997h-439.4743l-4,-298.00694z" fill="url(#color-2)" stroke="#000000" stroke-width="0" stroke-linecap="round"/><g><path d="M-14.63048,306.25221l-0.31205,-0.27687" fill="none" stroke="#cccccc" stroke-width="2" stroke-linecap="round"/><path d="M111.23212,285.02556l-0.31205,-0.27687" fill="none" stroke="#cccccc" stroke-width="2" stroke-linecap="round"/><path d="M184.04521,252.7242l-0.31205,-0.27687" fill="none" stroke="#cccccc" stroke-width="2" stroke-linecap="round"/><path d="" fill="none" stroke="#cccccc" stroke-width="2" stroke-linecap="round"/><path d="M115.39287,242.57233l-0.31205,-0.27687" fill="none" stroke="#cccccc" stroke-width="2" stroke-linecap="round"/><path d="M186.0676,64.04089h36.28851v136.32699h-36.28851z" data-paper-data="{&quot;origPos&quot;:null}" fill="url(#color-3)" stroke="none" stroke-width="1.11058" stroke-linecap="butt"/><path d="M174.63892,120.26814h59.03154v18.6933h-59.03154z" data-paper-data="{&quot;origPos&quot;:null}" fill="url(#color-4)" stroke="none" stroke-width="1.06271" stroke-linecap="butt"/><g data-paper-data="{&quot;origPos&quot;:null,&quot;origRot&quot;:0}" stroke="none"><path d="M238.5769,191.95663l-67.817,-0.84528l4.65386,-53.35457l13.44196,-12.87069l32.34654,0.00714l12.35734,12.45426z" data-paper-data="{&quot;origPos&quot;:null}" fill="#ebf2f7" stroke-width="2.16315" stroke-linecap="round"/><path d="M210.51332,206.85338l-8.06277,-82.07253l18.69042,0.19442l12.62862,12.75352l5.13095,54.18676l-4.21721,12.40711z" data-paper-data="{&quot;origPos&quot;:null,&quot;index&quot;:null,&quot;origRot&quot;:0}" fill="url(#color-5)" stroke-width="0" stroke-linecap="butt"/><path d="M169.65731,203.66696l5.53945,-65.75557l13.60574,-13.03485l17.29543,-0.21021l-6.89196,81.6141z" data-paper-data="{&quot;origPos&quot;:null,&quot;origRot&quot;:0}" fill="url(#color-6)" stroke-width="0" stroke-linecap="butt"/></g><path d="M112.68205,206.53565l39.20973,-13.51449h26.49307h52.98617l8.87649,0.34987l-8.99749,23.97625h-124.92634z" data-paper-data="{&quot;origPos&quot;:null}" fill="url(#color-7)" stroke="none" stroke-width="2.16315" stroke-linecap="round"/><path d="M86.70517,217.3473h144.79485l-36.25,97.30448h-108.54485z" data-paper-data="{&quot;origPos&quot;:null}" fill="#ebf2f7" stroke="none" stroke-width="9.46438" stroke-linecap="butt"/><path d="M86.18898,217.3473l20.13472,-32.43485l21.19449,32.43485z" data-paper-data="{&quot;origPos&quot;:null}" fill="url(#color-8)" stroke="none" stroke-width="2.16315" stroke-linecap="round"/><path d="M185.43609,148.85002h42.38889l12.10972,46.58947l-2.29146,5.66666h-71.28217z" data-paper-data="{&quot;origPos&quot;:null}" fill="#ff4040" stroke="none" stroke-width="2.16315" stroke-linecap="round"/><path d="M175.0006,182.87475l29.14242,-22.71348l29.14238,22.71348v29.57527l-6.08383,16.72531h-52.20095z" data-paper-data="{&quot;origPos&quot;:null}" fill="#d6dde2" stroke="none" stroke-width="2.65368" stroke-linecap="round"/><path d="M180.6223,186.40082l23.81732,-17.3377l23.14324,17.3377v35.83123h-46.96055z" data-paper-data="{&quot;origPos&quot;:null}" fill="#3f99ff" stroke="none" stroke-width="1" stroke-linecap="round"/><path d="M94.79009,310.30753v-93.39238h29.6593v93.39238z" data-paper-data="{&quot;origPos&quot;:null}" fill="url(#color-9)" stroke="none" stroke-width="0" stroke-linecap="butt"/><path d="M175.67908,301.32835v-72.39238h29.6593v72.39238z" data-paper-data="{&quot;origPos&quot;:null}" fill="url(#color-10)" stroke="none" stroke-width="0" stroke-linecap="butt"/><g data-paper-data="{&quot;origPos&quot;:null}" fill="#99ffff" stroke="#84c3c3" stroke-width="2" stroke-linecap="butt"><path d="M98.38515,243.03729h7.19012v7.39741h-7.19012z"/><path d="M108.04689,243.03729h7.19012v7.39741h-7.19012z"/><path d="M107.8222,253.20874h7.19013v7.39742h-7.19013z"/><path d="M98.38515,253.20874h7.19012v7.39742h-7.19012z"/></g><g data-paper-data="{&quot;origPos&quot;:null}" stroke="none" stroke-linecap="butt"><path d="M115.46172,232.64575h12.58274v89.69369h-12.58273z" data-paper-data="{&quot;origPos&quot;:null}" fill="#aa5e35" stroke-width="2.1101"/><path d="M121.75307,216.91518c4.95939,0 9.45323,2.0722 12.70721,5.41999c3.25399,3.34779 5.26812,7.97117 5.26812,13.07354c0,5.10237 -2.01413,9.72576 -5.26812,13.07354c-3.25399,3.34779 -7.74782,5.42001 -12.70721,5.42001c-4.95939,0 -9.45323,-2.07221 -12.70721,-5.41999c-3.25399,-3.34779 -5.26812,-7.97117 -5.26812,-13.07354c0,-5.10237 2.01413,-9.72576 5.26812,-13.07354c3.25399,-3.34779 7.74783,-5.41999 12.70721,-5.41999z" data-paper-data="{&quot;origPos&quot;:null}" fill="#3abc3a" stroke-width="1"/><path d="M121.75307,199.34633c4.09118,0 7.7986,1.70973 10.48322,4.47174c2.68462,2.76201 4.34643,6.5763 4.34643,10.78543c0,4.20913 -1.66181,8.02342 -4.34643,10.78543c-2.68462,2.76201 -6.39203,4.47174 -10.48322,4.47174c-4.09118,0 -7.7986,-1.70972 -10.48321,-4.47174c-2.68461,-2.76201 -4.34644,-6.5763 -4.34644,-10.78543c0,-4.20913 1.66183,-8.02342 4.34644,-10.78543c2.68461,-2.76201 6.39203,-4.47174 10.48321,-4.47174z" data-paper-data="{&quot;origPos&quot;:null}" fill="#3ec73d" stroke-width="1"/><path d="M121.97776,187.32553c2.41768,0 4.60844,1.01022 6.19476,2.64227c1.58632,1.63206 2.56823,3.88595 2.56823,6.37333c0,2.48738 -0.98191,4.74129 -2.56823,6.37334c-1.58632,1.63206 -3.77707,2.64226 -6.19476,2.64226c-2.41768,0 -4.60843,-1.01021 -6.19475,-2.64226c-1.58632,-1.63206 -2.56822,-3.88596 -2.56822,-6.37334c0,-2.48738 0.9819,-4.74128 2.56822,-6.37333c1.58632,-1.63206 3.77706,-2.64227 6.19475,-2.64227z" data-paper-data="{&quot;origPos&quot;:null}" fill="#42d642" stroke-width="1"/></g><g data-paper-data="{&quot;origPos&quot;:null}" fill="#99ffff" stroke="#84c3c3" stroke-width="2" stroke-linecap="butt"><path d="M143.32347,254.59579h7.19013v7.39741h-7.19013z"/><path d="M152.98521,254.59579h7.19013v7.39741h-7.19013z"/><path d="M152.76052,264.76716h7.19013v7.39741h-7.19013z"/><path d="M143.32347,264.76716h7.19013v7.39741h-7.19013z"/></g><g data-paper-data="{&quot;origPos&quot;:null}" fill="#99ffff" stroke="#84c3c3" stroke-width="2" stroke-linecap="butt"><path d="M143.32347,227.31778h7.19013v7.39741h-7.19013z"/><path d="M152.98521,227.31778h7.19013v7.39741h-7.19013z"/><path d="M152.76052,237.48923h7.19013v7.39741h-7.19013z"/><path d="M143.32347,237.48923h7.19013v7.39741h-7.19013z"/></g><path d="M-77.43484,207.02453l39.20973,-13.13578h26.49307h52.98616l25.43334,0.87571l38.15004,11.38436l4.23885,11.38441h-192.86956z" data-paper-data="{&quot;origPos&quot;:null}" fill="url(#color-11)" stroke="none" stroke-width="2.16315" stroke-linecap="round"/><path d="M-103.41169,217.53328h197.93212v94.57789h-197.93212z" data-paper-data="{&quot;origPos&quot;:null}" fill="#ebf2f7" stroke="none" stroke-width="9.46438" stroke-linecap="butt"/><path d="M-103.9279,217.53328l20.13472,-31.52599l21.19449,31.52599z" data-paper-data="{&quot;origPos&quot;:null}" fill="url(#color-12)" stroke="none" stroke-width="2.16315" stroke-linecap="round"/><path d="M-95.32679,307.88867v-90.77542h29.6593v90.77542z" data-paper-data="{&quot;origPos&quot;:null}" fill="url(#color-13)" stroke="none" stroke-width="0" stroke-linecap="butt"/><g data-paper-data="{&quot;origPos&quot;:null}" fill="#99ffff" stroke="#84c3c3" stroke-width="2" stroke-linecap="butt"><path d="M-91.73174,242.50342h7.19014v7.19013h-7.19014z"/><path d="M-82.07,242.50342h7.19013v7.19013h-7.19013z"/><path d="M-82.29468,252.38982h7.19013v7.19013h-7.19013z"/><path d="M-91.73174,252.38982h7.19014v7.19013h-7.19014z"/></g><g data-paper-data="{&quot;origPos&quot;:null}" stroke="none" stroke-linecap="butt"><path d="M1.74276,233.04754h12.58273v85.38283h-12.58273z" data-paper-data="{&quot;origPos&quot;:null}" fill="#aa5e35" stroke-width="2.07153"/><path d="M8.03413,217.36208c4.95939,0 9.45323,2.01413 12.70721,5.26812c3.25398,3.25399 5.26812,7.74783 5.26812,12.70721c0,4.95939 -2.01414,9.45323 -5.26812,12.70722c-3.25398,3.25399 -7.74782,5.26812 -12.7072,5.26812c-4.95939,0 -9.45323,-2.01413 -12.70721,-5.26812c-3.25398,-3.25399 -5.26812,-7.74783 -5.26812,-12.70722c0,-4.95939 2.01414,-9.45323 5.26812,-12.70721c3.25398,-3.25399 7.74782,-5.26812 12.70721,-5.26812z" data-paper-data="{&quot;origPos&quot;:null}" fill="#3abc3a" stroke-width="1"/><path d="M8.03413,200.28551c4.09119,0 7.79861,1.66183 10.48322,4.34644c2.68462,2.68462 4.34643,6.39203 4.34643,10.48322c0,4.09118 -1.66181,7.7986 -4.34643,10.48321c-2.68462,2.68462 -6.39203,4.34643 -10.48322,4.34643c-4.09119,0 -7.7986,-1.66182 -10.48321,-4.34643c-2.68462,-2.68462 -4.34644,-6.39203 -4.34644,-10.48321c0,-4.09118 1.66182,-7.7986 4.34644,-10.48322c2.68462,-2.68462 6.39203,-4.34644 10.48321,-4.34644z" data-paper-data="{&quot;origPos&quot;:null}" fill="#3ec73d" stroke-width="1"/><path d="M8.25879,188.60154c2.41767,0 4.60844,0.98191 6.19476,2.56823c1.58632,1.58632 2.56823,3.77706 2.56823,6.19474c0,2.41768 -0.98191,4.60844 -2.56823,6.19476c-1.58632,1.58632 -3.77707,2.56822 -6.19476,2.56822c-2.41767,0 -4.60843,-0.9819 -6.19475,-2.56822c-1.58632,-1.58632 -2.56822,-3.77707 -2.56822,-6.19476c0,-2.41768 0.9819,-4.60842 2.56822,-6.19474c1.58632,-1.58632 3.77707,-2.56823 6.19475,-2.56823z" data-paper-data="{&quot;origPos&quot;:null}" fill="#42d642" stroke-width="1"/></g><g data-paper-data="{&quot;origPos&quot;:null}" fill="#99ffff" stroke="#84c3c3" stroke-width="2" stroke-linecap="butt"><path d="M-46.7934,253.73797h7.19013v7.19014h-7.19013z"/><path d="M-37.13166,253.73797h7.19014v7.19014h-7.19014z"/><path d="M-37.35635,263.62439h7.19013v7.19013h-7.19013z"/><path d="M-46.7934,263.62439h7.19013v7.19013h-7.19013z"/></g><g data-paper-data="{&quot;origPos&quot;:null}" fill="#99ffff" stroke="#84c3c3" stroke-width="2" stroke-linecap="butt"><path d="M47.3524,254.86142h7.19013v7.19013h-7.19013z"/><path d="M57.01415,254.86142h7.19013v7.19013h-7.19013z"/><path d="M56.78945,264.74782h7.19014v7.19013h-7.19014z"/><path d="M47.3524,264.74782h7.19013v7.19013h-7.19013z"/></g><g data-paper-data="{&quot;origPos&quot;:null}" fill="#99ffff" stroke="#84c3c3" stroke-width="2" stroke-linecap="butt"><path d="M-46.7934,227.22437h7.19013v7.19013h-7.19013z"/><path d="M-37.13166,227.22437h7.19014v7.19013h-7.19014z"/><path d="M-37.35635,237.11082h7.19013v7.19013h-7.19013z"/><path d="M-46.7934,237.11082h7.19013v7.19013h-7.19013z"/></g><g data-paper-data="{&quot;origPos&quot;:null}" fill="#99ffff" stroke="#84c3c3" stroke-width="2" stroke-linecap="butt"><path d="M47.3524,228.34782h7.19013v7.19013h-7.19013z"/><path d="M57.01415,228.34782h7.19013v7.19013h-7.19013z"/><path d="M56.78945,238.23427h7.19014v7.19013h-7.19014z"/><path d="M47.3524,238.23427h7.19013v7.19013h-7.19013z"/></g><g data-paper-data="{&quot;origPos&quot;:null}" stroke="none" stroke-linecap="butt"><path d="M59.8853,233.97044h12.58273v85.38282h-12.58273z" data-paper-data="{&quot;origPos&quot;:null}" fill="#aa5e35" stroke-width="2.07153"/><path d="M66.17664,218.28498c4.95939,0 9.45323,2.01413 12.70721,5.26812c3.25398,3.25399 5.26812,7.74782 5.26812,12.70721c0,4.95939 -2.01414,9.45323 -5.26812,12.70722c-3.25398,3.25399 -7.74782,5.26812 -12.70721,5.26812c-4.95939,0 -9.45323,-2.01413 -12.70721,-5.26812c-3.25398,-3.25399 -5.26812,-7.74783 -5.26812,-12.70722c0,-4.95939 2.01414,-9.45323 5.26812,-12.70721c3.25398,-3.25399 7.74782,-5.26812 12.70721,-5.26812z" data-paper-data="{&quot;origPos&quot;:null}" fill="#3abc3a" stroke-width="1"/><path d="M66.17664,201.20841c4.09118,0 7.7986,1.66182 10.48322,4.34643c2.68461,2.68462 4.34643,6.39204 4.34643,10.48322c0,4.09118 -1.66182,7.79859 -4.34643,10.48321c-2.68461,2.68462 -6.39203,4.34644 -10.48322,4.34644c-4.09119,0 -7.79859,-1.66183 -10.48321,-4.34644c-2.68462,-2.68462 -4.34645,-6.39202 -4.34645,-10.48321c0,-4.09118 1.66183,-7.79861 4.34645,-10.48322c2.68462,-2.68462 6.39202,-4.34643 10.48321,-4.34643z" data-paper-data="{&quot;origPos&quot;:null}" fill="#3ec73d" stroke-width="1"/><path d="M66.40135,189.52443c2.41768,0 4.60844,0.98191 6.19476,2.56823c1.58632,1.58632 2.56822,3.77706 2.56822,6.19475c0,2.41768 -0.9819,4.60843 -2.56822,6.19475c-1.58632,1.58632 -3.77707,2.56822 -6.19476,2.56822c-2.41768,0 -4.60843,-0.9819 -6.19476,-2.56822c-1.58632,-1.58632 -2.56822,-3.77707 -2.56822,-6.19475c0,-2.41768 0.98191,-4.60843 2.56822,-6.19475c1.58632,-1.58632 3.77707,-2.56823 6.19476,-2.56823z" data-paper-data="{&quot;origPos&quot;:null}" fill="#42d642" stroke-width="1"/></g><path d="M184.1673,66.84167l19.28403,-36.53818l20.29908,36.53819z" data-paper-data="{&quot;origPos&quot;:null}" fill="url(#color-14)" stroke="none" stroke-width="1.06271" stroke-linecap="round"/><path d="M189.64497,234.72547h28.71117v13.42341h-28.71117z" data-paper-data="{&quot;origPos&quot;:null}" fill="#c95206" stroke="none" stroke-width="1" stroke-linecap="butt"/><path d="M180.16973,246.55389h40.45534l-16.75,45.57428h-23.70534z" data-paper-data="{&quot;origPos&quot;:null}" fill="#c95206" stroke="none" stroke-width="1" stroke-linecap="butt"/><path d="M180.16973,246.64087l9.74107,-12.00239v12.00239z" data-paper-data="{&quot;origPos&quot;:null}" fill="#c95206" stroke="none" stroke-width="1" stroke-linecap="round"/><path d="M218.0903,234.81244l5.04409,5.50997l-2.67237,6.31846h-2.37172z" data-paper-data="{&quot;origPos&quot;:null}" fill="#c95206" stroke="none" stroke-width="1" stroke-linecap="round"/><g data-paper-data="{&quot;origPos&quot;:null}" fill="#dd7821" stroke="none" stroke-width="1" stroke-linecap="butt"><path d="M190.00645,239.03935c0.41991,0 0.80051,0.17048 1.07604,0.44601c0.27553,0.27553 0.446,0.65613 0.446,1.07604c0,0.41991 -0.17047,0.80051 -0.446,1.07604c-0.27553,0.27553 -0.65614,0.446 -1.07604,0.446c-0.41991,0 -0.8005,-0.17047 -1.07603,-0.446c-0.27553,-0.27553 -0.446,-0.65613 -0.446,-1.07604c0,-0.41991 0.17047,-0.80052 0.446,-1.07604c0.27553,-0.27553 0.65612,-0.44601 1.07603,-0.44601z" data-paper-data="{&quot;origPos&quot;:null}"/><path d="M199.19675,235.85613c0.41991,0 0.8005,0.17047 1.07603,0.446c0.27553,0.27553 0.44601,0.65613 0.44601,1.07604c0,0.41991 -0.17048,0.80052 -0.44601,1.07604c-0.27553,0.27553 -0.65613,0.446 -1.07603,0.446c-0.41991,0 -0.8005,-0.17047 -1.07603,-0.446c-0.27553,-0.27553 -0.44601,-0.65613 -0.44601,-1.07604c0,-0.41991 0.17048,-0.80051 0.44601,-1.07604c0.27553,-0.27553 0.65613,-0.446 1.07603,-0.446z" data-paper-data="{&quot;origPos&quot;:null}"/><g data-paper-data="{&quot;origPos&quot;:null}"><path d="M199.27788,246.92678c0.41991,0 0.80051,0.17047 1.07604,0.446c0.27553,0.27553 0.446,0.65613 0.446,1.07603c0,0.41991 -0.17047,0.80051 -0.446,1.07604c-0.27553,0.27553 -0.65613,0.446 -1.07604,0.446c-0.41991,0 -0.8005,-0.17047 -1.07603,-0.446c-0.27553,-0.27553 -0.44601,-0.65614 -0.44601,-1.07604c0,-0.41991 0.17048,-0.80051 0.44601,-1.07603c0.27553,-0.27553 0.65613,-0.446 1.07603,-0.446z" data-paper-data="{&quot;origPos&quot;:null}"/><path d="M199.2546,257.51795c0.41991,0 0.80051,0.17048 1.07604,0.44601c0.27553,0.27553 0.446,0.65612 0.446,1.07603c0,0.41991 -0.17047,0.80052 -0.446,1.07605c-0.27553,0.27553 -0.65613,0.446 -1.07604,0.446c-0.41991,0 -0.8005,-0.17047 -1.07603,-0.446c-0.27553,-0.27553 -0.44601,-0.65614 -0.44601,-1.07605c0,-0.41991 0.17048,-0.80052 0.44601,-1.07603c0.27553,-0.27553 0.65613,-0.44601 1.07603,-0.44601z" data-paper-data="{&quot;origPos&quot;:null}"/><path d="M199.09633,268.12334c0.41991,0 0.80052,0.17048 1.07605,0.44601c0.27553,0.27553 0.446,0.65612 0.446,1.07603c0,0.41991 -0.17047,0.80051 -0.446,1.07603c-0.27553,0.27553 -0.65614,0.44601 -1.07605,0.44601c-0.41991,0 -0.80051,-0.17048 -1.07604,-0.44601c-0.27553,-0.27553 -0.446,-0.65612 -0.446,-1.07603c0,-0.41991 0.17047,-0.80052 0.446,-1.07603c0.27553,-0.27553 0.65613,-0.44601 1.07604,-0.44601z" data-paper-data="{&quot;origPos&quot;:null}"/><path d="M199.10691,278.2672c0.41991,0 0.80051,0.17047 1.07604,0.446c0.27553,0.27553 0.446,0.65613 0.446,1.07604c0,0.41991 -0.17047,0.80052 -0.446,1.07603c-0.27553,0.27553 -0.65614,0.44601 -1.07604,0.44601c-0.41991,0 -0.8005,-0.17048 -1.07603,-0.44601c-0.27553,-0.27553 -0.446,-0.65612 -0.446,-1.07603c0,-0.41991 0.17047,-0.80051 0.446,-1.07604c0.27553,-0.27553 0.65612,-0.446 1.07603,-0.446z" data-paper-data="{&quot;origPos&quot;:null}"/><path d="M199.07703,287.98816c0.41991,0 0.80051,0.17047 1.07604,0.446c0.27553,0.27553 0.446,0.65614 0.446,1.07605c0,0.41991 -0.17047,0.80051 -0.446,1.07604c-0.27553,0.27553 -0.65613,0.446 -1.07604,0.446c-0.41991,0 -0.80051,-0.17047 -1.07604,-0.446c-0.27553,-0.27553 -0.446,-0.65613 -0.446,-1.07604c0,-0.41991 0.17047,-0.80052 0.446,-1.07605c0.27553,-0.27553 0.65613,-0.446 1.07604,-0.446z" data-paper-data="{&quot;origPos&quot;:null}"/></g><g data-paper-data="{&quot;origPos&quot;:null}"><path d="M183.69341,246.85801c0.41991,0 0.8005,0.17047 1.07603,0.446c0.27553,0.27553 0.446,0.65613 0.446,1.07604c0,0.41991 -0.17047,0.80052 -0.446,1.07604c-0.27553,0.27553 -0.65612,0.446 -1.07603,0.446c-0.41991,0 -0.80051,-0.17047 -1.07604,-0.446c-0.27553,-0.27553 -0.446,-0.65613 -0.446,-1.07604c0,-0.41991 0.17047,-0.80051 0.446,-1.07604c0.27553,-0.27553 0.65614,-0.446 1.07604,-0.446z" data-paper-data="{&quot;origPos&quot;:null}"/><path d="M183.67011,257.44919c0.41991,0 0.80051,0.17047 1.07604,0.446c0.27553,0.27553 0.446,0.65613 0.446,1.07604c0,0.41991 -0.17047,0.80052 -0.446,1.07605c-0.27553,0.27553 -0.65613,0.44599 -1.07604,0.44599c-0.41991,0 -0.80051,-0.17046 -1.07604,-0.44599c-0.27553,-0.27553 -0.446,-0.65614 -0.446,-1.07605c0,-0.41991 0.17047,-0.80051 0.446,-1.07604c0.27553,-0.27553 0.65614,-0.446 1.07604,-0.446z" data-paper-data="{&quot;origPos&quot;:null}"/><path d="M183.51184,268.05458c0.41991,0 0.8005,0.17047 1.07603,0.446c0.27553,0.27553 0.44601,0.65613 0.44601,1.07604c0,0.41991 -0.17048,0.80052 -0.44601,1.07605c-0.27553,0.27553 -0.65613,0.446 -1.07603,0.446c-0.41991,0 -0.8005,-0.17047 -1.07603,-0.446c-0.27553,-0.27553 -0.44601,-0.65614 -0.44601,-1.07605c0,-0.41991 0.17048,-0.80051 0.44601,-1.07604c0.27553,-0.27553 0.65612,-0.446 1.07603,-0.446z" data-paper-data="{&quot;origPos&quot;:null}"/><path d="M183.52242,278.1984c0.41991,0 0.80051,0.17047 1.07604,0.446c0.27553,0.27553 0.446,0.65613 0.446,1.07604c0,0.41991 -0.17047,0.80052 -0.446,1.07603c-0.27553,0.27553 -0.65613,0.446 -1.07604,0.446c-0.41991,0 -0.80051,-0.17047 -1.07604,-0.446c-0.27553,-0.27553 -0.446,-0.65612 -0.446,-1.07603c0,-0.41991 0.17047,-0.80052 0.446,-1.07604c0.27553,-0.27553 0.65613,-0.446 1.07604,-0.446z" data-paper-data="{&quot;origPos&quot;:null}"/><path d="M183.49254,287.91944c0.41991,0 0.80051,0.17048 1.07604,0.44601c0.27553,0.27553 0.446,0.65612 0.446,1.07603c0,0.41991 -0.17047,0.80051 -0.446,1.07603c-0.27553,0.27553 -0.65614,0.44601 -1.07604,0.44601c-0.41991,0 -0.80051,-0.17048 -1.07604,-0.44601c-0.27553,-0.27553 -0.446,-0.65612 -0.446,-1.07603c0,-0.41991 0.17047,-0.80052 0.446,-1.07603c0.27553,-0.27553 0.65614,-0.44601 1.07604,-0.44601z" data-paper-data="{&quot;origPos&quot;:null}"/></g><path d="M191.57199,287.91863c0.41991,0 0.8005,0.17048 1.07603,0.44601c0.27553,0.27553 0.44601,0.65612 0.44601,1.07603c0,0.41991 -0.17048,0.80051 -0.44601,1.07604c-0.27553,0.27553 -0.65613,0.446 -1.07603,0.446c-0.41991,0 -0.80051,-0.17047 -1.07604,-0.446c-0.27553,-0.27553 -0.446,-0.65613 -0.446,-1.07604c0,-0.41991 0.17047,-0.80052 0.446,-1.07603c0.27553,-0.27553 0.65614,-0.44601 1.07604,-0.44601z" data-paper-data="{&quot;origPos&quot;:null}"/></g><path d="M219.93213,239.48536c0.27553,0.27553 0.446,0.65613 0.446,1.07604c0,0.41991 -0.17047,0.80051 -0.446,1.07604c-0.27553,0.27553 -0.65613,0.446 -1.07604,0.446c-0.41991,0 -0.80051,-0.17047 -1.07604,-0.446c-0.27553,-0.27553 -0.446,-0.65613 -0.446,-1.07604c0,-0.41991 0.17047,-0.80052 0.446,-1.07604c0.27553,-0.27553 0.65613,-0.44601 1.07604,-0.44601c0.41991,0 0.80051,0.17048 1.07604,0.44601z" data-paper-data="{&quot;origPos&quot;:null}" fill="#dd7821" stroke="none" stroke-width="1" stroke-linecap="butt"/><path d="M210.74182,236.30212c0.27553,0.27553 0.44601,0.65614 0.44601,1.07604c0,0.41991 -0.17048,0.80051 -0.44601,1.07603c-0.27553,0.27553 -0.65613,0.446 -1.07604,0.446c-0.41991,0 -0.8005,-0.17047 -1.07603,-0.446c-0.27553,-0.27553 -0.44601,-0.65612 -0.44601,-1.07603c0,-0.41991 0.17048,-0.80051 0.44601,-1.07604c0.27553,-0.27553 0.65613,-0.446 1.07603,-0.446c0.41991,0 0.80051,0.17047 1.07604,0.446z" data-paper-data="{&quot;origPos&quot;:null}" fill="#dd7821" stroke="none" stroke-width="1" stroke-linecap="butt"/><g data-paper-data="{&quot;origPos&quot;:null}" fill="#dd7821" stroke="none" stroke-width="1" stroke-linecap="butt"><path d="M210.66073,247.37279c0.27553,0.27553 0.44601,0.65613 0.44601,1.07604c0,0.41991 -0.17048,0.80051 -0.44601,1.07604c-0.27553,0.27553 -0.65613,0.446 -1.07604,0.446c-0.41991,0 -0.8005,-0.17047 -1.07603,-0.446c-0.27553,-0.27553 -0.446,-0.65614 -0.446,-1.07604c0,-0.41991 0.17047,-0.80052 0.446,-1.07604c0.27553,-0.27553 0.65613,-0.446 1.07603,-0.446c0.41991,0 0.80051,0.17047 1.07604,0.446z" data-paper-data="{&quot;origPos&quot;:null}"/><path d="M210.68397,257.96394c0.27553,0.27553 0.44601,0.65612 0.44601,1.07603c0,0.41991 -0.17048,0.80052 -0.44601,1.07605c-0.27553,0.27553 -0.65612,0.446 -1.07603,0.446c-0.41991,0 -0.80051,-0.17047 -1.07604,-0.446c-0.27553,-0.27553 -0.446,-0.65614 -0.446,-1.07605c0,-0.41991 0.17047,-0.80051 0.446,-1.07603c0.27553,-0.27553 0.65614,-0.44601 1.07604,-0.44601c0.41991,0 0.8005,0.17048 1.07603,0.44601z" data-paper-data="{&quot;origPos&quot;:null}"/><path d="M210.84226,268.56935c0.27553,0.27553 0.446,0.65612 0.446,1.07603c0,0.41991 -0.17047,0.80051 -0.446,1.07603c-0.27553,0.27553 -0.65613,0.44601 -1.07603,0.44601c-0.41991,0 -0.80051,-0.17048 -1.07604,-0.44601c-0.27553,-0.27553 -0.44601,-0.65612 -0.44601,-1.07603c0,-0.41991 0.17048,-0.80052 0.44601,-1.07603c0.27553,-0.27553 0.65613,-0.44601 1.07604,-0.44601c0.41991,0 0.8005,0.17048 1.07603,0.44601z" data-paper-data="{&quot;origPos&quot;:null}"/></g><path d="M203.13081,234.74923h2.87014v50.90272l-2.87014,7.5z" data-paper-data="{&quot;origPos&quot;:null}" fill="#b03405" stroke="none" stroke-width="1.14943" stroke-linecap="round"/><path d="M194.25949,267.86244c0,-2.16154 1.75228,-3.91381 3.91381,-3.91381c2.16154,0 3.91383,1.75228 3.91383,3.91381c0,2.16154 -1.75228,3.91382 -3.91383,3.91382c-2.16154,0 -3.91381,-1.75228 -3.91381,-3.91382z" data-paper-data="{&quot;origPos&quot;:null}" fill="#ffd400" stroke="none" stroke-width="0" stroke-linecap="butt"/><path d="M207.1316,267.86244c0,-2.16154 1.75227,-3.91381 3.91381,-3.91381c1.25244,0 2.11748,0.33829 2.83387,1.25361c0.08141,0.10402 -2.41136,6.57403 -2.58387,6.57403c-2.16154,0 -4.16381,-1.75228 -4.16381,-3.91382z" data-paper-data="{&quot;origPos&quot;:null}" fill="#ffd400" stroke="none" stroke-width="0" stroke-linecap="butt"/><path d="M-126.08618,304.29711h326.03753l-7.66667,20.72641h-318.37086z" data-paper-data="{&quot;origPos&quot;:null}" fill="url(#color-15)" stroke="#763e13" stroke-width="0" stroke-linecap="butt"/><path d="M197.94926,309.59979c-3.88268,-1.11119 -8.60938,-1.7749 -14.86478,-1.63479c-26.35795,1.19003 -30.06431,15.44051 -56.29674,15.1034c-27.98132,-0.36237 -35.64045,-18.03171 -63.67992,-18.48837c-26.57852,-1.37061 -31.97655,13.70453 -58.75257,14.17352c-22.50208,0.38949 -32.46753,-6.14031 -51.99511,-13.55723c-3.24849,-1.23519 -38.96077,14.46621 -59.36806,12.46776c-18.56584,-1.81813 -22.23759,-21.30771 -20.34517,-23.07216c0.93539,-0.87214 63.0493,-5.18477 66.79267,-5.41885c78.56626,-4.91359 158.08863,0.73029 237.18464,1.23256c0,0 10.69464,-0.17219 27.89091,-0.33812" data-paper-data="{&quot;origPos&quot;:null}" fill="url(#color-16)" stroke="#006622" stroke-width="2" stroke-linecap="round"/></g><g fill="#ffffff" stroke="#80312d" stroke-width="10" stroke-linecap="butt"><path d="M-11.98897,55.16936c0.2941,0.04201 2.36326,20.19782 4.37988,40.30109l-0.37813,0.15762c-8.08753,0.86128 -12.11027,1.08184 -12.06826,0.6617l-14.40002,-17.29889h-0.18905c0.10504,0.18903 0.18907,5.55619 0.25207,16.10152c-6.30197,1.17638 -9.99911,1.77508 -11.09145,1.79606c-0.33611,-0.02093 -0.68271,-8.47608 -1.03983,-25.36543c-0.18907,-0.92428 -0.39913,-6.0604 -0.6302,-15.40832l9.20088,-3.24551c0.25209,0.02099 6.17592,8.75973 17.77155,26.21619h0.18905c0.04201,-0.31511 -2.22669,-24.57767 -2.2057,-24.70372c0.02099,-0.12605 10.20921,0.78769 10.20921,0.78769z"/><path d="M29.25743,72.84639c-1.36543,6.38599 -2.17419,9.67351 -2.42626,9.86258h-19.91422v0.34659l5.57725,6.90068l8.75973,-4.47441c0.86126,1.49146 2.10065,4.09627 3.71816,7.81443c-0.75624,0.25209 -6.27045,1.06085 -16.54267,2.42628c-8.50766,-5.60877 -12.79299,-8.52869 -12.85601,-8.75974c1.36543,-10.90242 2.17419,-16.35362 2.42626,-16.35362c8.88578,-3.78118 14.03238,-5.89234 15.43982,-6.33347c1.40744,-0.44113 14.78862,7.75143 15.81794,8.57068zM11.39134,71.90108c-0.16805,0.42014 -1.28139,2.09015 -3.34004,5.01006c0,0.88227 1.23939,1.32341 3.71817,1.32341c0,0.12602 1.79605,0.4306 5.38817,0.91378c0.98732,-1.36543 1.48097,-2.16367 1.48097,-2.39475c-0.31511,-1.86957 -0.9978,-2.80435 -2.04814,-2.80435z"/><path d="M50.21148,82.51992h0.22058c0,-0.15201 3.29794,-6.22626 4.90024,-6.72295c1.43774,-0.44569 7.41845,5.46419 7.41845,5.46419c0,0 1.20953,-13.17294 1.48261,-14.05521c0.27308,-0.88227 12.98206,0.79826 12.98206,1.07134c-3.97024,15.96498 -6.0919,24.26259 -6.36498,24.89278c-1.32341,0.14715 -4.09629,0.56728 -8.31861,1.26039c-3.46609,-5.4407 -5.45119,-8.3396 -5.95535,-8.69672c-2.26872,6.04988 -3.68665,9.37943 -4.25383,9.98864h-8.50767c-0.52517,-0.16809 -3.00394,-5.6298 -7.43632,-16.38514c-2.8359,-6.00787 -4.25383,-9.26389 -4.25383,-9.76805c0,-0.46215 4.73977,-1.87628 13.83284,-5.32516c1.11078,-0.4213 1.69101,6.44918 4.25381,18.27589z"/><path d="M132.07408,58.35184c-2.83589,6.78512 -4.35886,10.26171 -4.56892,10.42976c-0.52517,0 -3.93874,-1.19738 -10.24071,-3.59213c-3.65515,3.40305 -5.48271,5.30415 -5.48271,5.70328c-0.27309,6.30197 -0.40962,9.96762 -0.40962,10.99694c4.36937,2.01663 6.96367,3.15098 7.78292,3.40307c4.07528,-1.76456 6.4175,-2.8359 7.02669,-3.21402l-1.13434,-3.62362c-0.75624,0.42012 -3.03546,1.37593 -6.83764,2.8674l-0.18905,-0.37814v-1.54396c0,-1.32343 -0.06302,-3.34007 -0.18905,-6.04989c0.98731,-0.25209 6.74309,-0.88229 17.26739,-1.89061c0.25207,1.3024 0.69323,6.85865 1.32342,16.66871c-0.33611,0.37812 -6.65908,2.90943 -18.96893,7.59389c-10.48228,-3.82321 -15.79695,-5.97637 -15.94399,-6.45952c-3.27702,-11.38555 -4.91554,-17.38294 -4.91554,-17.99213c4.30635,-7.75143 6.77462,-11.93172 7.40481,-12.54091c0.52517,-0.25207 13.53197,-4.06019 15.3453,-3.97025c1.80833,0.0897 12.22581,3.21401 12.72997,3.59213z"/><path d="M144.33139,64.2442c12.4779,1.72254 18.71685,2.78336 18.71685,3.18249c4.91554,4.22232 7.3733,6.48054 7.3733,6.77462c-1.99562,6.23895 -3.12997,10.03063 -3.40307,11.37507c1.99562,4.43237 3.12997,7.07919 3.40307,7.94047c0,0.25208 -3.25601,0.92429 -9.76806,2.01665c-0.08395,-0.35712 -0.68264,-1.15537 -1.79606,-2.39476c-8.9908,1.72254 -13.83282,2.5838 -14.52603,2.5838l-4.78949,-12.95055l10.5558,-5.57724c1.70154,0.27309 4.35885,0.40963 7.97198,0.40963c0,-0.46215 0.063,-1.85909 0.18902,-4.19081c-0.60919,0 -6.04989,0.39913 -16.32209,1.19737l-0.18906,-0.40963c1.42844,-6.63808 2.28972,-9.95711 2.58381,-9.95711zM150.88544,82.77198c0,0.23108 0.67221,2.68886 2.01663,7.37331h0.18905c2.64683,-1.72254 3.97024,-2.8569 3.97024,-3.40308l0.40964,-3.37154c-0.50414,0 -2.69934,-0.19956 -6.58557,-0.59869z"/><path d="M221.68805,70.23106c-0.9663,12.49891 -1.58598,19.33654 -1.85908,20.51292c-6.17592,1.53347 -9.63149,2.30021 -10.36671,2.30021c0,-2.73085 -0.21008,-8.11902 -0.63021,-16.16453c-2.33172,0.23105 -3.49758,0.43061 -3.49758,0.59866c0,0.79824 0.13654,5.35668 0.40964,13.6753c0.12602,0 0.18902,0.07348 0.18902,0.22043c0,0.25208 -3.24552,0.94529 -9.73656,2.07966c-0.27307,-0.33611 -1.10282,-5.45122 -2.48927,-15.3453c-2.62583,0.67221 -3.93874,1.15537 -3.93874,1.44945l1.26039,12.85604c-0.25207,0.27307 -3.70766,1.37591 -10.36674,3.30853c-3.86519,-13.67527 -6.28095,-22.85515 -7.24724,-27.53962c7.28927,-1.80656 11.36453,-2.70984 12.2258,-2.70984c0.96633,3.8232 1.44947,6.02888 1.44947,6.61706h0.22043c3.55012,-3.27702 6.18071,-6.07889 7.65705,-6.61706c0.61604,0.06354 6.83779,4.75798 6.83779,4.75798c4.13828,-3.99126 6.34396,-5.98686 6.61705,-5.98686c0.27309,0 9.54733,4.11739 13.26549,5.98697z"/><path d="M242.67364,64.27571c9.51597,4.89453 14.78863,7.75143 15.81795,8.57068c-1.36544,6.38599 -2.1742,9.67351 -2.42628,9.86258h-19.91423v0.34659l5.57725,6.90068l8.75974,-4.47441c0.86128,1.49146 2.10067,4.09627 3.71816,7.81443c-0.75624,0.25209 -6.27045,1.06085 -16.54268,2.42628c-8.50765,-5.60877 -12.79297,-8.52869 -12.85601,-8.75974c1.36542,-10.90242 2.17417,-16.35362 2.42624,-16.35362c8.88579,-3.78118 14.03241,-5.89234 15.43984,-6.33347zM240.62551,71.90108c-0.16809,0.42014 -1.28144,2.09015 -3.34005,5.01006c0,0.88227 1.23938,1.32341 3.71816,1.32341c0,0.12602 1.79606,0.4306 5.38819,0.91378c0.98731,-1.36543 1.48098,-2.16367 1.48098,-2.39475c-0.3151,-1.86957 -0.99782,-2.80435 -2.04817,-2.80435z"/></g><g fill="#ffffff" stroke="#801818" stroke-width="10" stroke-linecap="butt"><path d="M-16.86518,51.04333c0.2941,0.04201 2.36326,20.19782 4.37988,40.30109l-0.37813,0.15762c-8.08753,0.86128 -12.11027,1.08184 -12.06826,0.6617l-14.40002,-17.29889h-0.18905c0.10504,0.18903 0.18907,5.55619 0.25207,16.10152c-6.30197,1.17638 -9.99911,1.77508 -11.09145,1.79606c-0.33611,-0.02093 -0.68271,-8.47608 -1.03983,-25.36543c-0.18907,-0.92428 -0.39913,-6.0604 -0.6302,-15.40832l9.20088,-3.24551c0.25209,0.02099 6.17592,8.75973 17.77155,26.21619h0.18905c0.04201,-0.31511 -2.22669,-24.57767 -2.2057,-24.70372c0.02099,-0.12605 10.20921,0.78769 10.20921,0.78769z"/><path d="M24.38122,68.72034c-1.36543,6.38599 -2.17419,9.67351 -2.42626,9.86258h-19.91422v0.34659l5.57725,6.90068l8.75973,-4.47441c0.86126,1.49146 2.10065,4.09627 3.71816,7.81443c-0.75624,0.25209 -6.27045,1.06085 -16.54267,2.42628c-8.50766,-5.60877 -12.79299,-8.52869 -12.85601,-8.75974c1.36543,-10.90242 2.17419,-16.35362 2.42626,-16.35362c8.88578,-3.78118 14.03238,-5.89234 15.43982,-6.33347c1.40744,-0.44113 14.78862,7.75143 15.81794,8.57068zM6.51513,67.77505c-0.16805,0.42014 -1.28139,2.09015 -3.34004,5.01006c0,0.88227 1.23939,1.32341 3.71817,1.32341c0,0.12602 1.79605,0.4306 5.38817,0.91378c0.98732,-1.36543 1.48097,-2.16367 1.48097,-2.39475c-0.31511,-1.86957 -0.9978,-2.80435 -2.04814,-2.80435z"/><path d="M45.33527,78.39387h0.22058c0,-0.15201 3.29794,-6.22626 4.90024,-6.72295c1.43774,-0.44569 7.41845,5.46419 7.41845,5.46419c0,0 1.20953,-13.17294 1.48261,-14.05521c0.27308,-0.88227 12.98206,0.79826 12.98206,1.07134c-3.97024,15.96498 -6.0919,24.26259 -6.36498,24.89278c-1.32341,0.14715 -4.09629,0.56728 -8.31861,1.26039c-3.46609,-5.4407 -5.45119,-8.3396 -5.95535,-8.69672c-2.26872,6.04988 -3.68665,9.37943 -4.25383,9.98864h-8.50767c-0.52517,-0.16809 -3.00394,-5.6298 -7.43632,-16.38514c-2.8359,-6.00787 -4.25383,-9.26389 -4.25383,-9.76805c0,-0.46215 4.73977,-1.87628 13.83284,-5.32516c1.11078,-0.4213 1.69101,6.44918 4.25381,18.27589z"/><path d="M127.19787,54.22581c-2.83589,6.78512 -4.35886,10.26171 -4.56892,10.42976c-0.52517,0 -3.93874,-1.19738 -10.24071,-3.59213c-3.65515,3.40305 -5.48271,5.30415 -5.48271,5.70328c-0.27309,6.30197 -0.40962,9.96762 -0.40962,10.99694c4.36937,2.01663 6.96367,3.15098 7.78292,3.40307c4.07528,-1.76456 6.4175,-2.8359 7.02669,-3.21402l-1.13434,-3.62362c-0.75624,0.42012 -3.03546,1.37593 -6.83764,2.8674l-0.18905,-0.37814v-1.54396c0,-1.32343 -0.06302,-3.34007 -0.18905,-6.04989c0.98731,-0.25209 6.74309,-0.88229 17.26739,-1.89061c0.25207,1.3024 0.69323,6.85865 1.32342,16.66871c-0.33611,0.37812 -6.65908,2.90943 -18.96893,7.59389c-10.48228,-3.82321 -15.79695,-5.97637 -15.94399,-6.45952c-3.27702,-11.38555 -4.91554,-17.38294 -4.91554,-17.99213c4.30635,-7.75143 6.77462,-11.93172 7.40481,-12.54091c0.52517,-0.25207 13.53197,-4.06019 15.3453,-3.97025c1.80833,0.0897 12.22581,3.21401 12.72997,3.59213z"/><path d="M139.45518,60.11817c12.4779,1.72254 18.71685,2.78336 18.71685,3.18249c4.91554,4.22232 7.3733,6.48054 7.3733,6.77462c-1.99562,6.23895 -3.12997,10.03063 -3.40307,11.37507c1.99562,4.43237 3.12997,7.07919 3.40307,7.94047c0,0.25208 -3.25601,0.92429 -9.76806,2.01665c-0.08395,-0.35712 -0.68264,-1.15537 -1.79606,-2.39476c-8.9908,1.72254 -13.83282,2.5838 -14.52603,2.5838l-4.78949,-12.95055l10.5558,-5.57724c1.70154,0.27309 4.35885,0.40963 7.97198,0.40963c0,-0.46215 0.063,-1.85909 0.18902,-4.19081c-0.60919,0 -6.04989,0.39913 -16.32209,1.19737l-0.18906,-0.40963c1.42844,-6.63808 2.28972,-9.95711 2.58381,-9.95711zM146.00922,78.64593c0,0.23108 0.67221,2.68886 2.01663,7.37331h0.18905c2.64683,-1.72254 3.97024,-2.8569 3.97024,-3.40308l0.40964,-3.37154c-0.50414,0 -2.69934,-0.19956 -6.58557,-0.59869z"/><path d="M216.81184,66.10501c-0.9663,12.49891 -1.58598,19.33654 -1.85908,20.51292c-6.17592,1.53347 -9.63149,2.30021 -10.36671,2.30021c0,-2.73085 -0.21008,-8.11902 -0.63021,-16.16453c-2.33172,0.23105 -3.49758,0.43061 -3.49758,0.59866c0,0.79824 0.13654,5.35668 0.40964,13.6753c0.12602,0 0.18902,0.07348 0.18902,0.22043c0,0.25208 -3.24552,0.94529 -9.73656,2.07966c-0.27307,-0.33611 -1.10282,-5.45122 -2.48927,-15.3453c-2.62583,0.67221 -3.93874,1.15537 -3.93874,1.44945l1.26039,12.85604c-0.25207,0.27307 -3.70766,1.37591 -10.36674,3.30853c-3.86519,-13.67527 -6.28095,-22.85515 -7.24724,-27.53962c7.28927,-1.80656 11.36453,-2.70984 12.2258,-2.70984c0.96633,3.8232 1.44947,6.02888 1.44947,6.61706h0.22043c3.55012,-3.27702 6.18071,-6.07889 7.65705,-6.61706c0.61604,0.06354 6.83779,4.75798 6.83779,4.75798c4.13828,-3.99126 6.34396,-5.98686 6.61705,-5.98686c0.27309,0 9.54733,4.11739 13.26549,5.98697z"/><path d="M237.79743,60.14968c9.51597,4.89453 14.78863,7.75143 15.81795,8.57068c-1.36544,6.38599 -2.1742,9.67351 -2.42628,9.86258h-19.91423v0.34659l5.57725,6.90068l8.75974,-4.47441c0.86128,1.49146 2.10067,4.09627 3.71816,7.81443c-0.75624,0.25209 -6.27045,1.06085 -16.54268,2.42628c-8.50765,-5.60877 -12.79297,-8.52869 -12.85601,-8.75974c1.36542,-10.90242 2.17417,-16.35362 2.42624,-16.35362c8.88579,-3.78118 14.03241,-5.89234 15.43984,-6.33347zM235.7493,67.77505c-0.16809,0.42014 -1.28144,2.09015 -3.34005,5.01006c0,0.88227 1.23938,1.32341 3.71816,1.32341c0,0.12602 1.79606,0.4306 5.38819,0.91378c0.98731,-1.36543 1.48098,-2.16367 1.48098,-2.39475c-0.3151,-1.86957 -0.99782,-2.80435 -2.04817,-2.80435z"/></g><g fill="#ffffff" stroke="none" stroke-width="0.26459" stroke-linecap="butt"><path d="M-19.386,50.82276l2.52079,0.22057c0.2941,0.04201 0.69321,3.32954 1.19737,9.86259c0.10505,0.18907 1.16589,10.33523 3.18251,30.4385l-0.37813,0.15762c-8.08753,0.86128 -12.11027,1.08184 -12.06826,0.6617l-14.40002,-17.29889h-0.18905c0.10504,0.18903 0.18907,5.55619 0.25207,16.10152c-6.30197,1.17638 -9.99911,1.77508 -11.09145,1.79606c-0.33611,-0.02093 -0.68271,-8.47608 -1.03983,-25.36543c-0.18907,-0.92428 -0.39913,-6.0604 -0.6302,-15.40832l9.20088,-3.24551c0.25209,0.02099 6.17592,8.75973 17.77155,26.21619h0.18905c0.04201,-0.31511 -0.77724,-8.49716 -2.45777,-24.54616c0.14706,0.02102 0.23108,-0.03151 0.25207,-0.15756c3.23501,0.18907 5.79783,0.37812 7.68841,0.56718z"/><path d="M8.56327,60.14968c9.51597,4.89453 14.78863,7.75143 15.81795,8.57068c-1.36543,6.38599 -2.17419,9.67351 -2.42626,9.86258h-19.91422v0.34659l5.57725,6.90068l8.75973,-4.47441c0.86126,1.49146 2.10065,4.09627 3.71816,7.81443c-0.75624,0.25209 -6.27045,1.06085 -16.54267,2.42628c-8.50766,-5.60877 -12.79299,-8.52869 -12.85601,-8.75974c1.36543,-10.90242 2.17419,-16.35362 2.42626,-16.35362c8.88578,-3.78118 14.03238,-5.89234 15.43982,-6.33347zM6.51513,67.77505c-0.16805,0.42014 -1.28139,2.09015 -3.34004,5.01006c0,0.88227 1.23939,1.32341 3.71817,1.32341c0,0.12602 1.79605,0.4306 5.38817,0.91378c0.98732,-1.36543 1.48097,-2.16367 1.48097,-2.39475c-0.31511,-1.86957 -0.9978,-2.80435 -2.04814,-2.80435z"/><path d="M41.08144,60.11817c0.27309,0.35712 1.69103,6.44901 4.25383,18.27572h0.22058c0,-0.27309 1.55448,-2.67835 4.66345,-7.21578c1.30241,0.88227 3.78118,2.79388 7.43632,5.7348h0.44114v-0.22073c0.56718,-8.19256 0.98731,-12.72999 1.26039,-13.61226c8.65471,0.44114 12.98206,0.79826 12.98206,1.07134c-3.97024,15.96498 -6.0919,24.26259 -6.36498,24.89278c-1.32341,0.14715 -4.09629,0.56728 -8.31861,1.26039c-3.46609,-5.4407 -5.45119,-8.3396 -5.95535,-8.69672c-2.26872,6.04988 -3.68665,9.37943 -4.25383,9.98864h-8.50767c-0.52517,-0.16809 -3.00394,-5.6298 -7.43632,-16.38514c-2.8359,-6.00787 -4.25383,-9.26389 -4.25383,-9.76805c0,-0.46215 4.61095,-2.23719 13.83284,-5.32516z"/><path d="M114.46788,50.63369c7.9825,2.01662 12.22583,3.214 12.72999,3.59212c-2.83589,6.78512 -4.35886,10.26171 -4.56892,10.42976c-0.52517,0 -3.93874,-1.19738 -10.24071,-3.59213c-3.65515,3.40305 -5.48271,5.30415 -5.48271,5.70328c-0.27309,6.30197 -0.40962,9.96762 -0.40962,10.99694c4.36937,2.01663 6.96367,3.15098 7.78292,3.40307c4.07528,-1.76456 6.4175,-2.8359 7.02669,-3.21402l-1.13434,-3.62362c-0.75624,0.42012 -3.03546,1.37593 -6.83764,2.8674l-0.18905,-0.37814v-1.54396c0,-1.32343 -0.06302,-3.34007 -0.18905,-6.04989c0.98731,-0.25209 6.74309,-0.88229 17.26739,-1.89061c0.25207,1.3024 0.69323,6.85865 1.32342,16.66871c-0.33611,0.37812 -6.65908,2.90943 -18.96893,7.59389c-10.48228,-3.82321 -15.79695,-5.97637 -15.94399,-6.45952c-3.27702,-11.38555 -4.91554,-17.38294 -4.91554,-17.99213c4.30635,-7.75143 6.77462,-11.93172 7.40481,-12.54091c0.52517,-0.25207 5.64026,-1.5755 15.3453,-3.97025z"/><path d="M139.45518,60.11817c12.4779,1.72254 18.71685,2.78336 18.71685,3.18249c4.91554,4.22232 7.3733,6.48054 7.3733,6.77462c-1.99562,6.23895 -3.12997,10.03063 -3.40307,11.37507c1.99562,4.43237 3.12997,7.07919 3.40307,7.94047c0,0.25208 -3.25601,0.92429 -9.76806,2.01665c-0.08395,-0.35712 -0.68264,-1.15537 -1.79606,-2.39476c-8.9908,1.72254 -13.83282,2.5838 -14.52603,2.5838l-4.78949,-12.95055l10.5558,-5.57724c1.70154,0.27309 4.35885,0.40963 7.97198,0.40963c0,-0.46215 0.063,-1.85909 0.18902,-4.19081c-0.60919,0 -6.04989,0.39913 -16.32209,1.19737l-0.18906,-0.40963c1.42844,-6.63808 2.28972,-9.95711 2.58381,-9.95711zM146.00922,78.64593c0,0.23108 0.67221,2.68886 2.01663,7.37331h0.18905c2.64683,-1.72254 3.97024,-2.8569 3.97024,-3.40308l0.40964,-3.37154c-0.50414,0 -2.69934,-0.19956 -6.58557,-0.59869z"/><path d="M203.5462,60.11817c5.1256,2.12165 9.54748,4.11728 13.26564,5.98686c-0.9663,12.49891 -1.58598,19.33654 -1.85908,20.51292c-6.17592,1.53347 -9.63149,2.30021 -10.36671,2.30021c0,-2.73085 -0.21008,-8.11902 -0.63021,-16.16453c-2.33172,0.23105 -3.49758,0.43061 -3.49758,0.59866c0,0.79824 0.13654,5.35668 0.40964,13.6753c0.12602,0 0.18902,0.07348 0.18902,0.22043c0,0.25208 -3.24552,0.94529 -9.73656,2.07966c-0.27307,-0.33611 -1.10282,-5.45122 -2.48927,-15.3453c-2.62583,0.67221 -3.93874,1.15537 -3.93874,1.44945l1.26039,12.85604c-0.25207,0.27307 -3.70766,1.37591 -10.36674,3.30853c-3.86519,-13.67527 -6.28095,-22.85515 -7.24724,-27.53962c7.28927,-1.80656 11.36453,-2.70984 12.2258,-2.70984c0.96633,3.8232 1.44947,6.02888 1.44947,6.61706h0.22043c3.55012,-3.27702 6.02889,-5.48271 7.43632,-6.61706h0.22073l6.61706,4.75798h0.22073c4.13828,-3.99126 6.34396,-5.98686 6.61705,-5.98686z"/><path d="M237.79743,60.14968c9.51597,4.89453 14.78863,7.75143 15.81795,8.57068c-1.36544,6.38599 -2.1742,9.67351 -2.42628,9.86258h-19.91423v0.34659l5.57725,6.90068l8.75974,-4.47441c0.86128,1.49146 2.10067,4.09627 3.71816,7.81443c-0.75624,0.25209 -6.27045,1.06085 -16.54268,2.42628c-8.50765,-5.60877 -12.79297,-8.52869 -12.85601,-8.75974c1.36542,-10.90242 2.17417,-16.35362 2.42624,-16.35362c8.88579,-3.78118 14.03241,-5.89234 15.43984,-6.33347zM235.7493,67.77505c-0.16809,0.42014 -1.28144,2.09015 -3.34005,5.01006c0,0.88227 1.23938,1.32341 3.71816,1.32341c0,0.12602 1.79606,0.4306 5.38819,0.91378c0.98731,-1.36543 1.48098,-2.16367 1.48098,-2.39475c-0.3151,-1.86957 -0.99782,-2.80435 -2.04817,-2.80435z"/></g><path d="M185.02671,189.27766l19.38692,-13.43433l18.83823,13.43433v27.76429h-38.22516z" fill="#52c4ff" stroke="none" stroke-width="1" stroke-linecap="round"/></g></g></svg>