<svg version="1.1" xmlns="http://www.w3.org/2000/svg" xmlns:xlink="http://www.w3.org/1999/xlink" width="698.08108" height="440.43843" viewBox="0,0,698.08108,440.43843"><defs><linearGradient x1="170.35061" y1="204.15442" x2="170.35061" y2="333.28355" gradientUnits="userSpaceOnUse" id="color-1"><stop offset="0" stop-color="#af9141"/><stop offset="1" stop-color="#ddb747"/></linearGradient><linearGradient x1="162.84311" y1="327.27755" x2="162.84311" y2="379.8301" gradientUnits="userSpaceOnUse" id="color-2"><stop offset="0" stop-color="#af9141"/><stop offset="1" stop-color="#ddb747"/></linearGradient><linearGradient x1="539.46473" y1="329.27455" x2="539.46473" y2="381.8271" gradientUnits="userSpaceOnUse" id="color-3"><stop offset="0" stop-color="#af9141"/><stop offset="1" stop-color="#ddb747"/></linearGradient><linearGradient x1="74.25452" y1="-22.5723" x2="74.25452" y2="393.34361" gradientUnits="userSpaceOnUse" id="color-4"><stop offset="0" stop-color="#af9141"/><stop offset="1" stop-color="#ddb747"/></linearGradient><linearGradient x1="575.75601" y1="-24.0738" x2="575.75601" y2="399.34962" gradientUnits="userSpaceOnUse" id="color-5"><stop offset="0" stop-color="#af9141"/><stop offset="1" stop-color="#ddb747"/></linearGradient><linearGradient x1="283.71398" y1="-39.08882" x2="283.71398" y2="55.50578" gradientUnits="userSpaceOnUse" id="color-6"><stop offset="0" stop-color="#af9141"/><stop offset="1" stop-color="#ddb747"/></linearGradient></defs><g transform="translate(52.82657,40.08881)"><g data-paper-data="{&quot;isPaintingLayer&quot;:true}" fill-rule="nonzero" stroke-linecap="butt" stroke-linejoin="miter" stroke-miterlimit="10" stroke-dasharray="" stroke-dashoffset="0" style="mix-blend-mode: normal"><path d="M131.31157,333.28355v-129.12913h78.07808v129.12913z" fill="url(#color-1)" stroke="#91773e" stroke-width="2"/><path d="M15.74099,379.8301v-52.55255h249.20421v52.55255z" fill="url(#color-2)" stroke="#91773e" stroke-width="2"/><path d="M471.14641,381.8271v-52.55255h144.63664v52.55255z" fill="url(#color-3)" stroke="#91773e" stroke-width="2"/><path d="M-12.78754,393.34361v-415.91592l129.08408,0v415.91592z" fill="url(#color-4)" stroke="#91773e" stroke-width="2"/><path d="M515.69595,399.34962v-423.42342h128.12012v423.42342z" fill="url(#color-5)" stroke="#91773e" stroke-width="2"/><path d="M-51.82657,55.50578v-94.59459l696.08108,0v94.59459z" fill="url(#color-6)" stroke="#91773e" stroke-width="2"/><text transform="translate(141.23895,226.34473) scale(0.28792,0.28792)" font-size="40" xml:space="preserve" fill="#d5b14f" fill-rule="nonzero" stroke="none" stroke-width="1" stroke-linecap="butt" stroke-linejoin="miter" stroke-miterlimit="10" stroke-dasharray="" stroke-dashoffset="0" font-family="Handwriting" font-weight="normal" text-anchor="start" style="mix-blend-mode: normal"><tspan x="0" dy="0">The four</tspan><tspan x="0" dy="46.150000000000006px">numb is</tspan><tspan x="0" dy="46.150000000000006px">3</tspan></text><path d="M181.85553,223.29755c0,-1.38071 1.11929,-2.5 2.5,-2.5c1.38071,0 2.5,1.11929 2.5,2.5c0,1.38071 -1.11929,2.5 -2.5,2.5c-1.38071,0 -2.5,-1.11929 -2.5,-2.5z" fill="#d5b14f" stroke="none" stroke-width="0.5"/><path d="M162.60553,237.29755c0,-1.38071 1.11929,-2.5 2.5,-2.5c1.38071,0 2.5,1.11929 2.5,2.5c0,1.38071 -1.11929,2.5 -2.5,2.5c-1.38071,0 -2.5,-1.11929 -2.5,-2.5z" fill="#d5b14f" stroke="none" stroke-width="0.5"/><path d="M149.48759,281.41834c0,1 -1,1 -1,1h-0.23757c-3.30522,-0.01477 -6.67101,0.46264 -9.9782,0.47515c0,0 -1,0 -1,-1c0,-1 1,-1 1,-1c3.30619,0.01477 6.67119,-0.46264 9.9782,-0.47515h0.23757c0,0 1,0 1,1z" fill="#af9141" stroke="none" stroke-width="0.5"/><path d="M170.3943,278.80501c0,1 -1,1 -1,1h-0.71273c-4.25301,0 -8.2294,0.09768 -12.39543,0.93088c0,0 -0.98058,0.19611 -1.17669,-0.78447c-0.19612,-0.98058 0.78446,-1.1767 0.78446,-1.1767c4.29523,-0.85904 8.40435,-0.96972 12.78766,-0.96972h0.71273c0,0 1,0 1,1z" fill="#af9141" stroke="none" stroke-width="0.5"/><path d="M185.3616,277.8547c0,1 -1,1 -1,1l-0.57131,-0.01005c-3.48557,0.49786 -7.07556,0.96035 -10.59477,0.96035c0,0 -1,0 -1,-1c0,-1 1,-1 1,-1c3.42667,0 6.9173,-0.45522 10.31193,-0.94025l0.85415,-0.01005c0,0 1,0 1,1z" fill="#af9141" stroke="none" stroke-width="0.5"/><path d="M187.63797,275.24136c0,-1 1,-1 1,-1h0.9503c2.22555,0.00994 4.44601,-0.24713 6.7006,-0.21953c3.73228,-1.39305 -2.38439,-4.94431 -1.9335,-6.97586c0.18493,-0.83324 1.28759,-1.12491 1.98234,-1.62071c0.35934,-0.25643 1.58355,-0.50639 1.16159,-0.6361c-1.80349,-0.55439 -3.74163,0.19233 -5.17285,1.274c0,0 -0.8,0.6 -1.4,-0.2c-0.6,-0.8 0.2,-1.4 0.2,-1.4c1.70988,-1.27398 4.18001,-2.40797 6.3492,-1.584c1.75066,0.66499 2.64827,1.01395 1.48277,3.19763c-0.43456,0.81419 -2.217,1.20728 -2.73361,1.67994c-0.35954,0.32895 0.85234,0.49446 1.19784,0.83812c0.59045,0.5873 1.27244,1.15014 1.60752,1.91256c1.16882,2.65943 0.06,4.47808 -2.36309,5.47833c-2.37513,0.02314 -4.72806,0.24673 -7.07882,0.25562h-0.9503c0,0 -1,0 -1,-1z" fill="#af9141" stroke="none" stroke-width="0.5"/></g></g></svg>