<svg version="1.1" xmlns="http://www.w3.org/2000/svg" xmlns:xlink="http://www.w3.org/1999/xlink" width="22.81306" height="24.4524" viewBox="0,0,22.81306,24.4524"><defs><linearGradient x1="238.6435" y1="167.8762" x2="238.6435" y2="192.2262" gradientUnits="userSpaceOnUse" id="color-1"><stop offset="0" stop-color="#be8202"/><stop offset="1" stop-color="#9b6002"/></linearGradient><linearGradient x1="241.35655" y1="167.7738" x2="241.35655" y2="192.1238" gradientUnits="userSpaceOnUse" id="color-2"><stop offset="0" stop-color="#ffff00"/><stop offset="1" stop-color="#ffc700"/></linearGradient><linearGradient x1="241.32196" y1="170.36956" x2="241.32196" y2="188.78816" gradientUnits="userSpaceOnUse" id="color-3"><stop offset="0" stop-color="#df9902"/><stop offset="1" stop-color="#be7602"/></linearGradient></defs><g transform="translate(-228.5935,-167.7738)"><g data-paper-data="{&quot;isPaintingLayer&quot;:true}" fill-rule="nonzero" stroke="none" stroke-linecap="butt" stroke-linejoin="miter" stroke-miterlimit="10" stroke-dasharray="" stroke-dashoffset="0" style="mix-blend-mode: normal"><path d="M245.7479,171.4447c1.8193,2.2039 2.9456,5.2474 2.9456,8.6065c0,3.359 -1.1263,6.4026 -2.9456,8.6065c-1.8193,2.204 -4.3316,3.5685 -7.1044,3.5685c-2.7728,0 -5.2851,-1.3645 -7.1044,-3.5685c-1.8193,-2.2039 -2.9456,-5.2475 -2.9456,-8.6065c0,-3.3591 1.1263,-6.4026 2.9456,-8.6065c1.8193,-2.204 4.3316,-3.5685 7.1044,-3.5685c2.7728,0 5.2851,1.3645 7.1044,3.5685z" data-paper-data="{&quot;origPos&quot;:null}" fill="url(#color-1)" stroke-width="0.44036"/><path d="M241.35655,167.7738c2.7728,0 5.2851,1.3645 7.1044,3.5685c1.8193,2.2039 2.9456,5.2474 2.9456,8.6065c0,3.359 -1.1263,6.4026 -2.9456,8.6065c-1.8193,2.204 -4.3316,3.5685 -7.1044,3.5685c-2.7728,0 -5.2851,-1.3645 -7.1044,-3.5685c-1.8193,-2.2039 -2.9456,-5.2475 -2.9456,-8.6065c0,-3.3591 1.1263,-6.4026 2.9456,-8.6065c1.8193,-2.204 4.3316,-3.5685 7.1044,-3.5685z" data-paper-data="{&quot;origPos&quot;:null,&quot;index&quot;:null}" fill="url(#color-2)" stroke-width="0.44036"/><path d="M243.06407,188.78816h-3.48422v-18.4186h3.48422z" fill="url(#color-3)" stroke-width="0.59798"/></g></g></svg>