<svg version="1.1" xmlns="http://www.w3.org/2000/svg" xmlns:xlink="http://www.w3.org/1999/xlink" width="493.51352" height="370.62073" viewBox="0,0,493.51352,370.62073"><defs><linearGradient x1="240.00423" y1="0" x2="240.00423" y2="360" gradientUnits="userSpaceOnUse" id="color-1"><stop offset="0" stop-color="#74beff"/><stop offset="1" stop-color="#c2efff"/></linearGradient><linearGradient x1="38.95421" y1="188.84344" x2="159.96963" y2="188.84344" gradientUnits="userSpaceOnUse" id="color-2"><stop offset="0" stop-color="#ffda52"/><stop offset="1" stop-color="#f2ff88"/></linearGradient><linearGradient x1="38.99352" y1="276.45586" x2="160.00894" y2="276.45586" gradientUnits="userSpaceOnUse" id="color-3"><stop offset="0" stop-color="#ffda52"/><stop offset="1" stop-color="#f2ff88"/></linearGradient><linearGradient x1="382.50422" y1="225.21302" x2="382.50422" y2="422" gradientUnits="userSpaceOnUse" id="color-4"><stop offset="0" stop-color="#80e794"/><stop offset="1" stop-color="#39b360"/></linearGradient><linearGradient x1="-89.40098" y1="308.0044" x2="-89.40098" y2="406.0044" gradientUnits="userSpaceOnUse" id="color-5"><stop offset="0" stop-color="#000000" stop-opacity="0"/><stop offset="1" stop-color="#000000"/></linearGradient></defs><g transform="translate(7.50751,0)"><g data-paper-data="{&quot;isPaintingLayer&quot;:true}" fill-rule="nonzero" stroke-linecap="butt" stroke-linejoin="miter" stroke-miterlimit="10" stroke-dasharray="" stroke-dashoffset="0" style="mix-blend-mode: normal"><path d="M480.00422,360h-480v-360h480z" data-paper-data="{&quot;origPos&quot;:null,&quot;index&quot;:null}" fill="url(#color-1)" stroke="none" stroke-width="1"/><g data-paper-data="{&quot;origPos&quot;:null,&quot;index&quot;:null}" stroke="none" stroke-width="1"><path d="M159.75952,128.71463c-6.02548,-4.21195 -9.75529,-10.02867 -9.75529,-16.44774c0,-6.41908 3.72982,-12.2358 9.75529,-16.44775c6.02548,-4.21195 14.34662,-6.81914 23.52928,-6.81914c9.18266,0 17.5038,2.60719 23.52928,6.81914c6.02547,4.21195 9.75528,10.02867 9.75528,16.44775c0,6.41907 -3.7298,12.23579 -9.75528,16.44774c-6.02547,4.21195 -14.34662,6.81914 -23.52928,6.81914c-9.18266,0 -17.50381,-2.60719 -23.52928,-6.81914z" data-paper-data="{&quot;origPos&quot;:null}" fill="#ffffff"/><path d="M201.12286,139.05547c-6.02548,-4.21194 -9.75529,-10.02867 -9.75529,-16.44774c0,-6.41907 3.72982,-12.23579 9.75529,-16.44774c6.02547,-4.21195 14.34662,-6.81914 23.52928,-6.81914c9.18266,0 17.5038,2.60719 23.52928,6.81914c6.02548,4.21195 9.75529,10.02866 9.75529,16.44774c0,6.41907 -3.72981,12.23579 -9.75529,16.44774c-6.02548,4.21195 -14.34662,6.81914 -23.52928,6.81914c-9.18266,0 -17.50381,-2.60719 -23.52928,-6.81914z" data-paper-data="{&quot;origPos&quot;:null}" fill="#ffffff"/><path d="M188.66539,123.66895c-0.52674,-1.14073 -0.85248,-2.71577 -0.85248,-4.45432c0,-1.73856 0.32575,-3.31359 0.85248,-4.45432c0.52609,-1.14073 1.25317,-1.84713 2.05588,-1.84713c0.80271,0 1.5298,0.7064 2.05589,1.84713c0.52673,1.14073 0.85247,2.71577 0.85247,4.45432c0,1.73856 -0.32574,3.31359 -0.85247,4.45432c-0.52609,1.14073 -1.25318,1.84714 -2.05589,1.84714c-0.8027,0 -1.52979,-0.70641 -2.05588,-1.84714z" data-paper-data="{&quot;origPos&quot;:null}" fill="#4a4f54"/><path d="M202.23773,123.99211c-0.52673,-1.14073 -0.85247,-2.71577 -0.85247,-4.45432c0,-1.73856 0.32574,-3.31359 0.85247,-4.45432c0.52609,-1.14072 1.25318,-1.84713 2.05589,-1.84713c0.8027,0 1.52979,0.7064 2.05588,1.84713c0.52673,1.14073 0.85247,2.71577 0.85247,4.45432c0,1.73856 -0.32574,3.31359 -0.85247,4.45432c-0.52609,1.14073 -1.25317,1.84713 -2.05588,1.84713c-0.8027,0 -1.5298,-0.7064 -2.05589,-1.84713z" data-paper-data="{&quot;origPos&quot;:null}" fill="#4a4f54"/></g><g data-paper-data="{&quot;origPos&quot;:null,&quot;index&quot;:null,&quot;origRot&quot;:0}" fill="#75beff" stroke="#4bca88" stroke-width="0"><path d="M415.67189,190.34094c26.40766,-3.59559 50.89929,-1.45591 68.57647,4.86406c0,20.78174 0,41.8292 0,62.6952c-14.8705,8.45324 -34.69852,15.02915 -56.91952,18.05469c-49.8665,6.78968 -92.90078,-6.87153 -96.11976,-30.51317c-3.21898,-23.64164 34.59631,-48.3111 84.46281,-55.10078z" data-paper-data="{&quot;origPos&quot;:null}"/><path d="" data-paper-data="{&quot;origPos&quot;:null}"/><path d="M303.7408,204.00523c49.8665,-6.78968 92.90078,6.87153 96.11976,30.51317c3.21898,23.64164 -34.59631,48.3111 -84.46281,55.10078c-49.8665,6.78968 -92.90078,-6.87153 -96.11976,-30.51317c-3.21898,-23.64164 34.59631,-48.3111 84.46281,-55.10078z" data-paper-data="{&quot;origPos&quot;:null}"/></g><path d="M107.71703,295.30863c0.36156,-23.85703 41.44776,-42.57874 91.76859,-41.8161c50.32083,0.76264 90.82081,20.72082 90.45925,44.57786c-0.36157,23.85704 -41.44776,42.57875 -91.76859,41.81611c-50.32083,-0.76264 -90.82081,-20.72082 -90.45925,-44.57786z" data-paper-data="{&quot;origPos&quot;:null,&quot;index&quot;:null}" fill="#75beff" stroke="#4bca88" stroke-width="0"/><path d="M42.771,259.22259c50.32083,0.76264 90.82081,20.72082 90.45925,44.57786c-0.36156,23.85704 -41.44776,42.57875 -91.76859,41.81611c-15.66904,-0.23748 -30.38586,-2.33613 -43.21329,-5.83414c0,-25.25194 0,-50.50387 0,-75.7558c13.19899,-3.28952 28.386,-5.04858 44.52263,-4.80402z" data-paper-data="{&quot;origPos&quot;:null,&quot;index&quot;:null}" fill="#75beff" stroke="#4bca88" stroke-width="0"/><path d="M99.23084,281.22259c85.66612,0.76264 154.61324,20.72082 153.99772,44.57786c-0.61552,23.85704 -70.56062,42.57875 -156.22674,41.81611c-37.63951,-0.33508 -72.05142,-4.37586 -98.75345,-10.82486c0,-22.04074 0,-44.08149 0,-66.12223c27.26601,-6.20797 62.54146,-9.7891 100.98248,-9.44688z" data-paper-data="{&quot;origPos&quot;:null,&quot;index&quot;:null}" fill="#75beff" stroke="#4bca88" stroke-width="0"/><g data-paper-data="{&quot;origPos&quot;:null}"><path d="M99.46192,133.48532c16.6936,0 31.82053,6.20337 42.77389,16.22422c10.9537,10.02145 17.73382,23.86098 17.73382,39.1339c0,15.273 -6.78012,29.11253 -17.73382,39.13398c-10.95335,10.02085 -26.08028,16.22413 -42.77389,16.22413c-16.69369,0 -31.82062,-6.20328 -42.77389,-16.22413c-10.9537,-10.02145 -17.73382,-23.86098 -17.73382,-39.13398c0,-15.27292 6.78012,-29.11245 17.73382,-39.1339c10.95327,-10.02085 26.0802,-16.22422 42.77389,-16.22422z" data-paper-data="{&quot;origPos&quot;:null}" fill="url(#color-2)" stroke="none" stroke-width="0.55092"/><path d="M38.99352,191.91672h121.01542v169.07828h-121.01542z" data-paper-data="{&quot;origPos&quot;:null}" fill="url(#color-3)" stroke="none" stroke-width="1.16723"/><path d="M60.45015,252.77387c0,13.20448 -3.84258,23.90882 -8.58265,23.90882c-4.74007,0 -8.58265,-10.70435 -8.58265,-23.90882c0,-13.20448 3.84258,-23.90882 8.58265,-23.90882c4.74007,0 8.58265,10.70435 8.58265,23.90882z" data-paper-data="{&quot;origPos&quot;:null}" fill="#fdffb3" stroke="#000000" stroke-width="0"/><path d="M133.60077,204.83362c2.95343,0 5.34765,6.66962 5.34765,14.89703c0,8.2274 -2.39423,14.89703 -5.34765,14.89703c-2.95343,0 -5.34765,-6.66962 -5.34765,-14.89703c0,-8.2274 2.39423,-14.89703 5.34765,-14.89703z" data-paper-data="{&quot;origPos&quot;:null}" fill="#fdffb3" stroke="#000000" stroke-width="0"/><path d="M117.29373,277.78617c2.95343,0 5.34765,6.66964 5.34765,14.89704c0,8.2274 -2.39423,14.89703 -5.34765,14.89703c-2.95343,0 -5.34765,-6.66963 -5.34765,-14.89703c0,-8.22741 2.39423,-14.89704 5.34765,-14.89704z" data-paper-data="{&quot;origPos&quot;:null}" fill="#fdffb3" stroke="#000000" stroke-width="0"/><path d="M91.54577,139.60544c2.95343,0 5.34765,6.66963 5.34765,14.89704c0,8.22741 -2.39423,14.89703 -5.34765,14.89703c-2.95342,0 -5.34765,-6.66962 -5.34765,-14.89703c0,-8.22741 2.39423,-14.89704 5.34765,-14.89704z" data-paper-data="{&quot;origPos&quot;:null}" fill="#fdffb3" stroke="#000000" stroke-width="0"/><path d="M80.95555,177.1474c1.82991,0 3.77352,-0.08421 4.97283,3.47566c1.20078,3.55987 1.94336,8.47511 1.94336,13.90064c0,5.42552 -0.74257,10.34077 -1.94336,13.90064c-1.19931,3.55987 -2.85684,3.76175 -4.68675,3.76175c-1.82991,0 -3.48743,-0.20188 -4.68674,-3.76175c-1.20078,-3.55987 -1.94336,-8.47511 -1.94336,-13.90064c0,-5.42552 0.74257,-10.34077 1.94336,-13.90064c1.19931,-3.55987 2.57075,-3.47566 4.40065,-3.47566z" data-paper-data="{&quot;origPos&quot;:null}" fill="#31353b" stroke="none" stroke-width="1"/><path d="M115.57225,176.86131c1.82991,0 3.77353,-0.08421 4.97284,3.47566c1.20078,3.55987 1.94336,8.47511 1.94336,13.90064c0,5.42552 -0.74257,10.34077 -1.94336,13.90064c-1.19931,3.55987 -2.85684,3.76174 -4.68675,3.76174c-1.82991,0 -3.48743,-0.20187 -4.68674,-3.76174c-1.20078,-3.55987 -1.94336,-8.47511 -1.94336,-13.90064c0,-5.42552 0.74257,-10.34077 1.94336,-13.90064c1.19931,-3.55987 2.57075,-3.47566 4.40065,-3.47566z" data-paper-data="{&quot;origPos&quot;:null}" fill="#31353b" stroke="none" stroke-width="1"/></g><path d="M382.50422,225.21302c37.18487,0 71.75797,6.06208 100.53998,16.46268c-0.27219,5.69101 0.95395,81.2637 1.6875,127.62431c-3.49445,0 -283.9597,-1 -286.4478,0.23231c-0.84458,-3.48141 -1.27969,-12.15836 -1.27969,-16.04032c0,-54.34123 85.26032,-128.27897 185.5,-128.27897z" data-paper-data="{&quot;origPos&quot;:null,&quot;index&quot;:null}" fill="url(#color-4)" stroke="#4bca88" stroke-width="1.5"/><g data-paper-data="{&quot;origPos&quot;:null,&quot;index&quot;:null}" stroke="none" stroke-width="1"><path d="M324.2888,120.34084c9.18266,0 17.5038,2.60718 23.52928,6.81914c6.02548,4.21195 9.75529,10.02867 9.75529,16.44775c0,6.41907 -3.72981,12.23579 -9.75529,16.44775c-6.02548,4.21195 -14.34662,6.81914 -23.52928,6.81914c-9.18266,0 -17.5038,-2.60718 -23.52928,-6.81914c-6.02548,-4.21195 -9.75529,-10.02867 -9.75529,-16.44775c0,-6.41907 3.72981,-12.23579 9.75529,-16.44775c6.02548,-4.21195 14.34662,-6.81914 23.52928,-6.81914z" data-paper-data="{&quot;origPos&quot;:null}" fill="#ffffff"/><path d="M365.65214,110c9.18266,0 17.5038,2.60718 23.52928,6.81914c6.02548,4.21195 9.75529,10.02867 9.75529,16.44775c0,6.41907 -3.72981,12.23579 -9.75529,16.44775c-6.02548,4.21195 -14.34662,6.81914 -23.52928,6.81914c-9.18266,0 -17.5038,-2.60718 -23.52928,-6.81914c-6.02548,-4.21195 -9.75529,-10.02867 -9.75529,-16.44775c0,-6.41907 3.72981,-12.23579 9.75529,-16.44775c6.02548,-4.21195 14.34662,-6.81914 23.52928,-6.81914z" data-paper-data="{&quot;origPos&quot;:null}" fill="#ffffff"/><path d="M331.72126,130.35852c0.80271,0 1.5298,0.70641 2.05589,1.84713c0.52674,1.14072 0.85247,2.71576 0.85247,4.45432c0,1.73855 -0.32574,3.31359 -0.85247,4.45432c-0.52609,1.14072 -1.25318,1.84713 -2.05589,1.84713c-0.80271,0 -1.5298,-0.70641 -2.05589,-1.84713c-0.52674,-1.14072 -0.85247,-2.71576 -0.85247,-4.45432c0,-1.73855 0.32574,-3.31359 0.85247,-4.45432c0.52609,-1.14072 1.25318,-1.84713 2.05589,-1.84713z" data-paper-data="{&quot;origPos&quot;:null}" fill="#4a4f54"/><path d="M345.29362,130.03537c0.80271,0 1.5298,0.70641 2.05589,1.84713c0.52674,1.14072 0.85247,2.71576 0.85247,4.45432c0,1.73855 -0.32574,3.31359 -0.85247,4.45432c-0.52609,1.14072 -1.25318,1.84713 -2.05589,1.84713c-0.80271,0 -1.5298,-0.70641 -2.05589,-1.84713c-0.52674,-1.14072 -0.85247,-2.71576 -0.85247,-4.45432c0,-1.73855 0.32574,-3.31359 0.85247,-4.45432c0.52609,-1.14072 1.25318,-1.84713 2.05589,-1.84713z" data-paper-data="{&quot;origPos&quot;:null}" fill="#4a4f54"/></g><g data-paper-data="{&quot;origPos&quot;:null,&quot;index&quot;:null}" stroke="none" stroke-width="1"><path d="M443.24893,40.09566c6.02548,4.21195 9.75529,10.02867 9.75529,16.44775c0,6.41907 -3.72981,12.23579 -9.75529,16.44775c-6.02548,4.21195 -14.34662,6.81914 -23.52928,6.81914c-9.18266,0 -17.5038,-2.60718 -23.52928,-6.81914c-6.02548,-4.21195 -9.75529,-10.02867 -9.75529,-16.44775c0,-6.41907 3.72981,-12.23579 9.75529,-16.44775c6.02548,-4.21195 14.34662,-6.81914 23.52928,-6.81914c9.18266,0 17.5038,2.60718 23.52928,6.81914z" data-paper-data="{&quot;origPos&quot;:null}" fill="#ffffff"/><path d="M401.8856,29.75483c6.02548,4.21195 9.75529,10.02867 9.75529,16.44775c0,6.41907 -3.72981,12.23579 -9.75529,16.44775c-6.02548,4.21195 -14.34662,6.81914 -23.52928,6.81914c-9.18266,0 -17.5038,-2.60718 -23.52928,-6.81914c-6.02548,-4.21195 -9.75529,-10.02867 -9.75529,-16.44775c0,-6.41907 3.72981,-12.23579 9.75529,-16.44775c6.02548,-4.21195 14.34662,-6.81914 23.52928,-6.81914c9.18266,0 17.5038,2.60718 23.52928,6.81914z" data-paper-data="{&quot;origPos&quot;:null}" fill="#ffffff"/><path d="M393.0151,49.66546c0.52674,1.14072 0.85247,2.71576 0.85247,4.45432c0,1.73855 -0.32574,3.31359 -0.85247,4.45432c-0.52609,1.14072 -1.25318,1.84713 -2.05589,1.84713c-0.80271,0 -1.5298,-0.70641 -2.05589,-1.84713c-0.52674,-1.14072 -0.85247,-2.71576 -0.85247,-4.45432c0,-1.73855 0.32574,-3.31359 0.85247,-4.45432c0.52609,-1.14072 1.25318,-1.84713 2.05589,-1.84713c0.80271,0 1.5298,0.70641 2.05589,1.84713z" data-paper-data="{&quot;origPos&quot;:null}" fill="#4a4f54"/><path d="M379.44275,49.34231c0.52674,1.14072 0.85247,2.71576 0.85247,4.45432c0,1.73855 -0.32574,3.31359 -0.85247,4.45432c-0.52609,1.14072 -1.25318,1.84713 -2.05589,1.84713c-0.80271,0 -1.5298,-0.70641 -2.05589,-1.84713c-0.52674,-1.14072 -0.85247,-2.71576 -0.85247,-4.45432c0,-1.73855 0.32574,-3.31359 0.85247,-4.45432c0.52609,-1.14072 1.25318,-1.84713 2.05589,-1.84713c0.80271,0 1.5298,0.70641 2.05589,1.84713z" data-paper-data="{&quot;origPos&quot;:null}" fill="#4a4f54"/></g><g data-paper-data="{&quot;origPos&quot;:null,&quot;index&quot;:null}" stroke="none" stroke-width="1"><path d="M54.2888,58.34084c9.18266,0 17.50381,2.60719 23.52928,6.81914c6.02548,4.21195 9.75528,10.02867 9.75528,16.44774c0,6.41908 -3.72981,12.2358 -9.75528,16.44775c-6.02548,4.21195 -14.34662,6.81914 -23.52928,6.81914c-9.18266,0 -17.5038,-2.60719 -23.52928,-6.81914c-6.02547,-4.21195 -9.75529,-10.02867 -9.75529,-16.44775c0,-6.41907 3.72981,-12.23579 9.75529,-16.44774c6.02547,-4.21195 14.34662,-6.81914 23.52928,-6.81914z" data-paper-data="{&quot;origPos&quot;:null}" fill="#ffffff"/><path d="M95.65214,48c9.18266,0 17.5038,2.60719 23.52928,6.81914c6.02548,4.21195 9.75529,10.02867 9.75529,16.44774c0,6.41908 -3.72981,12.23579 -9.75529,16.44774c-6.02548,4.21195 -14.34662,6.81914 -23.52928,6.81914c-9.18266,0 -17.50381,-2.60719 -23.52928,-6.81914c-6.02547,-4.21195 -9.75529,-10.02867 -9.75529,-16.44774c0,-6.41907 3.72981,-12.2358 9.75529,-16.44774c6.02547,-4.21195 14.34662,-6.81914 23.52928,-6.81914z" data-paper-data="{&quot;origPos&quot;:null}" fill="#ffffff"/><path d="M61.72127,68.35852c0.80271,0 1.5298,0.70641 2.05589,1.84714c0.52673,1.14073 0.85247,2.71576 0.85247,4.45432c0,1.73855 -0.32574,3.31359 -0.85247,4.45432c-0.52609,1.14073 -1.25318,1.84713 -2.05589,1.84713c-0.80271,0 -1.52979,-0.7064 -2.05588,-1.84713c-0.52673,-1.14073 -0.85248,-2.71576 -0.85248,-4.45432c0,-1.73855 0.32574,-3.31359 0.85248,-4.45432c0.52609,-1.14073 1.25318,-1.84714 2.05588,-1.84714z" data-paper-data="{&quot;origPos&quot;:null}" fill="#4a4f54"/><path d="M75.29362,68.03537c0.80271,0 1.52979,0.7064 2.05588,1.84713c0.52673,1.14073 0.85247,2.71576 0.85247,4.45432c0,1.73855 -0.32574,3.31359 -0.85247,4.45432c-0.52609,1.14073 -1.25318,1.84713 -2.05588,1.84713c-0.80271,0 -1.5298,-0.70641 -2.05589,-1.84713c-0.52673,-1.14073 -0.85247,-2.71576 -0.85247,-4.45432c0,-1.73855 0.32574,-3.31359 0.85247,-4.45432c0.52609,-1.14073 1.25319,-1.84713 2.05589,-1.84713z" data-paper-data="{&quot;origPos&quot;:null}" fill="#4a4f54"/></g><g data-paper-data="{&quot;origPos&quot;:null,&quot;index&quot;:null}" stroke="none" stroke-width="1"><path d="M293.24893,34.09566c6.02548,4.21195 9.75529,10.02867 9.75529,16.44775c0,6.41908 -3.72981,12.23579 -9.75529,16.44774c-6.02547,4.21195 -14.34662,6.81914 -23.52928,6.81914c-9.18266,0 -17.5038,-2.60719 -23.52928,-6.81914c-6.02548,-4.21195 -9.75528,-10.02867 -9.75528,-16.44774c0,-6.41908 3.72981,-12.2358 9.75528,-16.44775c6.02548,-4.21195 14.34662,-6.81913 23.52928,-6.81913c9.18266,0 17.50381,2.60718 23.52928,6.81913z" data-paper-data="{&quot;origPos&quot;:null}" fill="#ffffff"/><path d="M251.8856,23.75483c6.02547,4.21195 9.75529,10.02867 9.75529,16.44774c0,6.41908 -3.72981,12.2358 -9.75529,16.44775c-6.02547,4.21195 -14.34662,6.81913 -23.52928,6.81913c-9.18266,0 -17.5038,-2.60718 -23.52928,-6.81913c-6.02548,-4.21195 -9.75529,-10.02867 -9.75529,-16.44775c0,-6.41908 3.72981,-12.23579 9.75529,-16.44774c6.02548,-4.21195 14.34662,-6.81914 23.52928,-6.81914c9.18266,0 17.50381,2.60719 23.52928,6.81914z" data-paper-data="{&quot;origPos&quot;:null}" fill="#ffffff"/><path d="M243.0151,43.66546c0.52673,1.14073 0.85247,2.71576 0.85247,4.45432c0,1.73856 -0.32574,3.31359 -0.85247,4.45431c-0.52609,1.14073 -1.25318,1.84713 -2.05588,1.84713c-0.80271,0 -1.5298,-0.70641 -2.05589,-1.84713c-0.52673,-1.14073 -0.85247,-2.71576 -0.85247,-4.45431c0,-1.73856 0.32574,-3.31359 0.85247,-4.45432c0.52609,-1.14073 1.25319,-1.84713 2.05589,-1.84713c0.80271,0 1.52979,0.7064 2.05588,1.84713z" data-paper-data="{&quot;origPos&quot;:null}" fill="#4a4f54"/><path d="M229.44276,43.34231c0.52673,1.14073 0.85247,2.71576 0.85247,4.45432c0,1.73856 -0.32574,3.31359 -0.85247,4.45431c-0.52609,1.14073 -1.25319,1.84713 -2.05589,1.84713c-0.80271,0 -1.52979,-0.70641 -2.05588,-1.84713c-0.52673,-1.14073 -0.85248,-2.71576 -0.85248,-4.45431c0,-1.73856 0.32574,-3.31359 0.85248,-4.45432c0.52609,-1.14073 1.25318,-1.84713 2.05588,-1.84713c0.80271,0 1.5298,0.70641 2.05589,1.84713z" data-paper-data="{&quot;origPos&quot;:null}" fill="#4a4f54"/></g><path d="M-4.87468,308.0044h490.88069c0,20.15416 0,40.30831 0,60.46246l-493.51352,-1.49689c0,0 2.43922,-52.27911 2.63283,-58.96557z" data-paper-data="{&quot;origPos&quot;:null}" fill="url(#color-5)" stroke="none" stroke-width="1.22826"/></g></g></svg>