<svg version="1.1" xmlns="http://www.w3.org/2000/svg" xmlns:xlink="http://www.w3.org/1999/xlink" width="191" height="246.85849" viewBox="0,0,191,246.85849"><g transform="translate(-158,-58.64151)"><g data-paper-data="{&quot;isPaintingLayer&quot;:true}" fill-rule="nonzero" stroke-linejoin="miter" stroke-miterlimit="10" stroke-dasharray="" stroke-dashoffset="0" style="mix-blend-mode: normal"><g><path d="M253.82888,172.69182h8.29131v44.33076h-8.29131z" fill="#61b120" stroke="none" stroke-width="0.97987" stroke-linecap="butt"/><g data-paper-data="{&quot;index&quot;:null}"><path d="M257.65146,216.92103c0,0 6.61225,-15.05514 17.73674,-20.15387c11.12449,-5.09873 22.5486,1.68974 22.5486,1.68974c0,0 -7.91032,14.35014 -19.03481,19.44887c-11.12449,5.09873 -21.25052,-0.98474 -21.25052,-0.98474z" fill="#61b120" stroke="none" stroke-width="0" stroke-linecap="butt"/><path d="M264.21877,213.42407c0,0 5.85059,-7.13636 14.24796,-10.56075c7.33618,-2.99165 12.63656,-2.73379 12.63656,-2.73379" fill="none" stroke="#448618" stroke-width="1.5" stroke-linecap="round"/></g><g stroke="none" stroke-width="0" stroke-linecap="butt"><path d="M298.54837,159.90459c0,15.17424 -12.85781,27.37507 -40.54835,27.47539c-26.68919,0.09669 -40.54835,-12.30115 -40.54835,-27.47539c0,-15.17424 15.63115,-27.43437 40.54835,-27.47539c27.94762,-0.04602 40.54835,12.30115 40.54835,27.47539z" fill="#ff401c"/><path d="M290.69049,160.3477c0,12.15571 -10.96195,21.30808 -32.69049,21.50509c-20.71576,0.18783 -32.69049,-9.34938 -32.69049,-21.50509c0,-12.15571 12.22379,-21.71214 32.69049,-21.75748c22.48317,-0.04981 32.69049,9.60177 32.69049,21.75748z" fill="#ffc51c"/><path d="M282.92132,160.05225c0,8.40294 -7.7355,14.9819 -24.92131,14.9625c-16.4252,-0.01857 -24.92131,-6.55955 -24.92131,-14.9625c0,-8.40294 7.23252,-14.9625 24.92131,-14.9625c17.43641,0 24.92131,6.55955 24.92131,14.9625z" fill="#ffffff"/></g><g stroke="none" stroke-width="0" stroke-linecap="butt"><path d="M266.06216,151.56421c2.61906,0 3.48027,2.61607 3.48027,8.76069c0,5.9269 -1.0935,8.76069 -3.48027,8.76069c-2.38674,0 -3.48027,-3.05151 -3.48027,-8.76069c0,-6.14462 0.86122,-8.76069 3.48027,-8.76069z" fill="#000000"/><path d="M264.43472,155.62856c0,-2.01149 0.68605,-2.44209 1.53231,-2.44209c0.84627,0 1.57345,0.46836 1.5323,2.47945c-0.03734,1.82477 -0.27716,2.58227 -1.5323,2.58227c-1.32984,0 -1.53231,-0.90686 -1.53231,-2.61958z" fill="#ffffff"/></g><g stroke="none" stroke-width="0" stroke-linecap="butt"><path d="M249.93788,151.60985c2.61906,0 3.48024,2.61607 3.48024,8.76069c0,5.9269 -1.09349,8.76069 -3.48024,8.76069c-2.38675,0 -3.48027,-3.05151 -3.48027,-8.76069c0,-6.14462 0.86122,-8.76069 3.48027,-8.76069z" fill="#000000"/><path d="M248.57244,155.6742c0,-2.01147 0.68605,-2.44209 1.53231,-2.44209c0.84627,0 1.57345,0.46836 1.5323,2.47945c-0.03734,1.82477 -0.27716,2.58227 -1.5323,2.58227c-1.32984,0 -1.53231,-0.90686 -1.53231,-2.6196z" fill="#ffffff"/></g><g><path d="M258.34858,217.21649c0,0 -10.12602,6.08347 -21.25052,0.98474c-11.12449,-5.09873 -19.03481,-19.44887 -19.03481,-19.44887c0,0 11.42411,-6.78847 22.5486,-1.68974c11.12449,5.09873 17.73674,20.15387 17.73674,20.15387z" fill="#61b120" stroke="none" stroke-width="0" stroke-linecap="butt"/><path d="M224.89675,200.42498c0,0 5.30038,-0.25786 12.63656,2.73378c8.39737,3.4244 14.24796,10.56076 14.24796,10.56076" fill="none" stroke="#448618" stroke-width="1.5" stroke-linecap="round"/></g></g><path d="M158,305.5v-246.85849h191v246.85849z" fill="none" stroke="none" stroke-width="0" stroke-linecap="butt"/><path d="M158,305.5v-246.85849h191v246.85849z" fill="none" stroke="none" stroke-width="0" stroke-linecap="butt"/></g></g></svg>