<svg version="1.1" xmlns="http://www.w3.org/2000/svg" xmlns:xlink="http://www.w3.org/1999/xlink" width="480.61554" height="161.98753" viewBox="0,0,480.61554,161.98753"><defs><linearGradient x1="338.99391" y1="238.21307" x2="338.99391" y2="363.29822" gradientUnits="userSpaceOnUse" id="color-1"><stop offset="0" stop-color="#80e794"/><stop offset="1" stop-color="#39b360"/></linearGradient><linearGradient x1="436.81053" y1="282.73995" x2="436.81053" y2="361.48651" gradientUnits="userSpaceOnUse" id="color-2"><stop offset="0" stop-color="#74df8c"/><stop offset="1" stop-color="#39b360"/></linearGradient><linearGradient x1="239.99925" y1="307.45059" x2="239.99925" y2="406.4506" gradientUnits="userSpaceOnUse" id="color-3"><stop offset="0" stop-color="#000000" stop-opacity="0"/><stop offset="1" stop-color="#000000"/></linearGradient></defs><g transform="translate(0.00075,-244.46307)"><g data-paper-data="{&quot;isPaintingLayer&quot;:true}" fill-rule="nonzero" stroke-linecap="butt" stroke-linejoin="miter" stroke-miterlimit="10" stroke-dasharray="" stroke-dashoffset="0" style="mix-blend-mode: normal"><path d="M479.58709,362.30005c-9.66666,0 -278.85415,0.19898 -281.0023,0.99817c-0.7241,-2.91239 -1.0962,-5.97408 -1.0962,-9.19166h-0.00001c0,-49.09452 79.62973,-108.89349 181.47941,-108.89349c36.27869,0 61.65785,-0.643 101.53126,5.57405" data-paper-data="{&quot;origPos&quot;:null,&quot;index&quot;:null}" fill="url(#color-1)" stroke="#4bca88" stroke-width="1.5"/><path d="M480.13938,361.48651c0,0 -89.3568,14.5 -96.20161,14.5c-3.63852,-6.91281 -15.70024,-8.2585 -14.57007,-36.593c1.12557,-28.21935 72.49689,-43.20065 110.88565,-56.15355" data-paper-data="{&quot;index&quot;:null}" fill="url(#color-2)" stroke="#4bca88" stroke-width="1.5"/><path d="M-0.00075,406.4506v-99h480v99z" fill="url(#color-3)" stroke="none" stroke-width="0"/></g></g></svg>