<svg version="1.1" xmlns="http://www.w3.org/2000/svg" xmlns:xlink="http://www.w3.org/1999/xlink" width="212" height="158" viewBox="0,0,212,158"><defs><linearGradient x1="240.24189" y1="167.87031" x2="240.24189" y2="192.07327" gradientUnits="userSpaceOnUse" id="color-1"><stop offset="0" stop-color="#ebad00"/><stop offset="1" stop-color="#bc7e02"/></linearGradient><linearGradient x1="242.59422" y1="167.8762" x2="242.59422" y2="192.2262" gradientUnits="userSpaceOnUse" id="color-2"><stop offset="0" stop-color="#ebad00"/><stop offset="1" stop-color="#bc7e02"/></linearGradient><linearGradient x1="237.40585" y1="167.7738" x2="237.40585" y2="192.1238" gradientUnits="userSpaceOnUse" id="color-3"><stop offset="0" stop-color="#ffd800"/><stop offset="1" stop-color="#de9f00"/></linearGradient><linearGradient x1="237.21374" y1="170.6653" x2="237.21374" y2="189.0839" gradientUnits="userSpaceOnUse" id="color-4"><stop offset="0" stop-color="#df9902"/><stop offset="1" stop-color="#be7602"/></linearGradient></defs><g transform="translate(-134,-101)"><g data-paper-data="{&quot;isPaintingLayer&quot;:true}" fill-rule="nonzero" stroke-linecap="butt" stroke-linejoin="miter" stroke-miterlimit="10" stroke-dasharray="" stroke-dashoffset="0" style="mix-blend-mode: normal"><path d="M134,259v-158h212v158z" fill="none" stroke="#000000" stroke-width="0"/><path d="M237.79731,167.87031h4.88916v24.20296h-4.88916z" data-paper-data="{&quot;origPos&quot;:null}" fill="url(#color-1)" stroke="none" stroke-width="0.36499"/><path d="M242.59422,167.8762c1.3315,0 2.5379,1.3645 3.4115,3.5685c0.8737,2.2039 1.4145,5.2474 1.4145,8.6065c0,3.359 -0.5408,6.4026 -1.4145,8.6065c-0.8736,2.204 -2.08,3.5685 -3.4115,3.5685c-1.3314,0 -2.5378,-1.3645 -3.4115,-3.5685c-0.8736,-2.2039 -1.4145,-5.2475 -1.4145,-8.6065c0,-3.3591 0.5409,-6.4026 1.4145,-8.6065c0.8737,-2.204 2.0801,-3.5685 3.4115,-3.5685z" data-paper-data="{&quot;origPos&quot;:null}" fill="url(#color-2)" stroke="none" stroke-width="0.36532"/><path d="M237.40585,167.7738c1.3315,0 2.5379,1.3645 3.4115,3.5685c0.8737,2.2039 1.4145,5.2474 1.4145,8.6065c0,3.359 -0.5408,6.4026 -1.4145,8.6065c-0.8736,2.204 -2.08,3.5685 -3.4115,3.5685c-1.3314,0 -2.5378,-1.3645 -3.4115,-3.5685c-0.8736,-2.2039 -1.4145,-5.2475 -1.4145,-8.6065c0,-3.3591 0.5409,-6.4026 1.4145,-8.6065c0.8737,-2.204 2.0801,-3.5685 3.4115,-3.5685z" data-paper-data="{&quot;origPos&quot;:null}" fill="url(#color-3)" stroke="none" stroke-width="0.36531"/><path d="M236.31068,170.6653h1.80612v18.4186h-1.80612z" data-paper-data="{&quot;origPos&quot;:null}" fill="url(#color-4)" stroke="none" stroke-width="0.42911"/></g></g></svg>