<svg version="1.1" xmlns="http://www.w3.org/2000/svg" xmlns:xlink="http://www.w3.org/1999/xlink" width="519.13981" height="457.57646" viewBox="0,0,519.13981,457.57646"><defs><linearGradient x1="307.78151" y1="11.24006" x2="242.2065" y2="18.7179" gradientUnits="userSpaceOnUse" id="color-1"><stop offset="0" stop-color="#ffffff"/><stop offset="1" stop-color="#ffffff" stop-opacity="0"/></linearGradient><linearGradient x1="170.08342" y1="12.55115" x2="235.90458" y2="17.40681" gradientUnits="userSpaceOnUse" id="color-2"><stop offset="0" stop-color="#979797"/><stop offset="1" stop-color="#979797" stop-opacity="0"/></linearGradient><linearGradient x1="240.25901" y1="84.79668" x2="240.25901" y2="137.41207" gradientUnits="userSpaceOnUse" id="color-3"><stop offset="0" stop-color="#ff4040"/><stop offset="1" stop-color="#c33131"/></linearGradient><linearGradient x1="-19.1398" y1="102.33513" x2="72.8289" y2="102.33513" gradientUnits="userSpaceOnUse" id="color-4"><stop offset="0" stop-color="#c33131"/><stop offset="1" stop-color="#ff4040"/></linearGradient><linearGradient x1="406.91021" y1="102.33513" x2="498.87891" y2="102.33513" gradientUnits="userSpaceOnUse" id="color-5"><stop offset="0" stop-color="#c33131"/><stop offset="1" stop-color="#ff4040"/></linearGradient><linearGradient x1="-18" y1="237.47748" x2="66" y2="237.47748" gradientUnits="userSpaceOnUse" id="color-6"><stop offset="0" stop-color="#d6dde2"/><stop offset="1" stop-color="#d6dde2" stop-opacity="0"/></linearGradient><linearGradient x1="416.00001" y1="238.47748" x2="500.00001" y2="238.47748" gradientUnits="userSpaceOnUse" id="color-7"><stop offset="0" stop-color="#d6dde2"/><stop offset="1" stop-color="#d6dde2" stop-opacity="0"/></linearGradient><linearGradient x1="176.99701" y1="264.97898" x2="242.99701" y2="264.97898" gradientUnits="userSpaceOnUse" id="color-8"><stop offset="0" stop-color="#d6dde2"/><stop offset="1" stop-color="#d6dde2" stop-opacity="0"/></linearGradient><linearGradient x1="303.99701" y1="265.97898" x2="237.99701" y2="265.97898" gradientUnits="userSpaceOnUse" id="color-9"><stop offset="0" stop-color="#ffffff"/><stop offset="1" stop-color="#ffffff" stop-opacity="0"/></linearGradient><linearGradient x1="567.89948" y1="308.00442" x2="567.89948" y2="406.00442" gradientUnits="userSpaceOnUse" id="color-10"><stop offset="0" stop-color="#000000" stop-opacity="0"/><stop offset="1" stop-color="#000000"/></linearGradient></defs><g transform="translate(19.1398,89.10958)"><g data-paper-data="{&quot;isPaintingLayer&quot;:true}" fill-rule="nonzero" stroke-linejoin="miter" stroke-miterlimit="10" stroke-dasharray="" stroke-dashoffset="0" style="mix-blend-mode: normal"><path d="M-17.99111,137.41207h516.4396v210.4615h-516.4396z" data-paper-data="{&quot;origPos&quot;:null}" fill="#ebf2f7" stroke="none" stroke-width="9.46438" stroke-linecap="butt"/><g data-paper-data="{&quot;index&quot;:null}" stroke="none"><path d="M177.6906,-36.67622l35.3726,-23.3846l61.1033,1l31.6562,19.2821l9.8582,125.8718h-150.923z" data-paper-data="{&quot;origPos&quot;:null}" fill="#ebf2f7" stroke-width="2.16315" stroke-linecap="round"/><path d="M253.64987,119.06754l-19.38674,-200.69927l65.57501,-7.47785l19.38674,200.69927z" data-paper-data="{&quot;origPos&quot;:null,&quot;index&quot;:null,&quot;origRot&quot;:0}" fill="url(#color-1)" stroke-width="0" stroke-linecap="butt"/><path d="M162.6528,113.27744l18.36126,-201.45258l65.82114,4.85566l-18.36126,201.45258z" data-paper-data="{&quot;origPos&quot;:null,&quot;origRot&quot;:0}" fill="url(#color-2)" stroke-width="0" stroke-linecap="butt"/></g><path d="M157.497,100.77898l37.53754,-110h90.92492l37.53754,110z" data-paper-data="{&quot;index&quot;:null}" fill="#ff4040" stroke="none" stroke-width="0" stroke-linecap="butt"/><path d="M39.81449,114.02738l87.2523,-29.2307h58.9543h117.9086l56.5961,1.9487l84.8942,25.3333l9.4326,25.3334h-429.1872z" fill="url(#color-3)" stroke="none" stroke-width="2.16315" stroke-linecap="round"/><path d="M-19.1398,137.41207l44.8052,-70.1539l47.1635,70.1539z" data-paper-data="{&quot;origPos&quot;:null}" fill="url(#color-4)" stroke="none" stroke-width="2.16315" stroke-linecap="round"/><path d="M406.91021,137.41207l44.8052,-70.1539l47.1635,70.1539z" fill="url(#color-5)" stroke="none" stroke-width="2.16315" stroke-linecap="round"/><path d="M175.4872,64.35238l64.8498,-49.1274l64.8497,49.1274v100.1443h-129.6995z" fill="#d6dde2" stroke="none" stroke-width="2.65368" stroke-linecap="round"/><path d="M187.99701,71.97898l53,-37.5l51.5,37.5v77.5h-104.5z" fill="#3f99ff" stroke="none" stroke-width="1" stroke-linecap="round"/><path d="M-18,338.47748v-202h84v202z" data-paper-data="{&quot;origPos&quot;:null}" fill="url(#color-6)" stroke="none" stroke-width="0" stroke-linecap="butt"/><path d="M416.00001,339.47748v-202h84v202z" data-paper-data="{&quot;origPos&quot;:null}" fill="url(#color-7)" stroke="none" stroke-width="0" stroke-linecap="butt"/><path d="M176.99701,365.97898v-202h66v202z" fill="url(#color-8)" stroke="none" stroke-width="0" stroke-linecap="butt"/><path d="M237.99701,366.97898v-202h66v202z" data-paper-data="{&quot;index&quot;:null}" fill="url(#color-9)" stroke="none" stroke-width="0" stroke-linecap="butt"/><g data-paper-data="{&quot;origPos&quot;:null}" fill="#99ffff" stroke="#84c3c3" stroke-width="2" stroke-linecap="butt"><path d="M7.99999,197.48198h16v16h-16z"/><path d="M29.49999,197.48198h16v16h-16z"/><path d="M28.99999,219.48198h16v16h-16z"/><path d="M7.99999,219.48198h16v16h-16z"/></g><g data-paper-data="{&quot;origPos&quot;:null}" fill="#99ffff" stroke="#84c3c3" stroke-width="2" stroke-linecap="butt"><path d="M436,194.48198h16v16h-16z"/><path d="M457.5,194.48198h16v16h-16z"/><path d="M457,216.48198h16v16h-16z"/><path d="M436,216.48198h16v16h-16z"/></g><g stroke="none" stroke-linecap="butt"><path d="M407.00001,169.88188h28v190h-28z" data-paper-data="{&quot;origPos&quot;:null}" fill="#aa5e35" stroke-width="2.07153"/><path d="M421.00001,134.97748c11.036,0 21.036,4.482 28.277,11.723c7.241,7.241 11.723,17.241 11.723,28.277c0,11.036 -4.482,21.036 -11.723,28.277c-7.241,7.241 -17.241,11.723 -28.277,11.723c-11.036,0 -21.036,-4.482 -28.277,-11.723c-7.241,-7.241 -11.723,-17.241 -11.723,-28.277c0,-11.036 4.482,-21.036 11.723,-28.277c7.241,-7.241 17.241,-11.723 28.277,-11.723z" data-paper-data="{&quot;origPos&quot;:null}" fill="#3abc3a" stroke-width="1"/><path d="M421.00001,96.97748c9.104,0 17.354,3.698 23.328,9.672c5.974,5.974 9.672,14.224 9.672,23.328c0,9.104 -3.698,17.354 -9.672,23.328c-5.974,5.974 -14.224,9.672 -23.328,9.672c-9.104,0 -17.354,-3.698 -23.328,-9.672c-5.974,-5.974 -9.672,-14.224 -9.672,-23.328c0,-9.104 3.698,-17.354 9.672,-23.328c5.974,-5.974 14.224,-9.672 23.328,-9.672z" data-paper-data="{&quot;origPos&quot;:null}" fill="#3ec73d" stroke-width="1"/><path d="M421.50001,70.97748c5.38,0 10.255,2.185 13.785,5.715c3.53,3.53 5.715,8.405 5.715,13.785c0,5.38 -2.185,10.255 -5.715,13.785c-3.53,3.53 -8.405,5.715 -13.785,5.715c-5.38,0 -10.255,-2.185 -13.785,-5.715c-3.53,-3.53 -5.715,-8.405 -5.715,-13.785c0,-5.38 2.185,-10.255 5.715,-13.785c3.53,-3.53 8.405,-5.715 13.785,-5.715z" data-paper-data="{&quot;origPos&quot;:null}" fill="#42d642" stroke-width="1"/></g><g data-paper-data="{&quot;origPos&quot;:null}" stroke="none" stroke-linecap="butt"><path d="M46,168.50138h28v194h-28z" data-paper-data="{&quot;origPos&quot;:null}" fill="#aa5e35" stroke-width="2.1101"/><path d="M60,134.47748c11.036,0 21.036,4.482 28.277,11.723c7.241,7.241 11.723,17.241 11.723,28.277c0,11.036 -4.482,21.036 -11.723,28.277c-7.241,7.241 -17.241,11.723 -28.277,11.723c-11.036,0 -21.036,-4.482 -28.277,-11.723c-7.241,-7.241 -11.723,-17.241 -11.723,-28.277c0,-11.036 4.482,-21.036 11.723,-28.277c7.241,-7.241 17.241,-11.723 28.277,-11.723z" data-paper-data="{&quot;origPos&quot;:null}" fill="#3abc3a" stroke-width="1"/><path d="M60,96.47748c9.104,0 17.354,3.698 23.328,9.672c5.974,5.974 9.672,14.224 9.672,23.328c0,9.104 -3.698,17.354 -9.672,23.328c-5.974,5.974 -14.224,9.672 -23.328,9.672c-9.104,0 -17.354,-3.698 -23.328,-9.672c-5.974,-5.974 -9.672,-14.224 -9.672,-23.328c0,-9.104 3.698,-17.354 9.672,-23.328c5.974,-5.974 14.224,-9.672 23.328,-9.672z" data-paper-data="{&quot;origPos&quot;:null}" fill="#3ec73d" stroke-width="1"/><path d="M60.5,70.47748c5.38,0 10.255,2.185 13.785,5.715c3.53,3.53 5.715,8.405 5.715,13.785c0,5.38 -2.185,10.255 -5.715,13.785c-3.53,3.53 -8.405,5.715 -13.785,5.715c-5.38,0 -10.255,-2.185 -13.785,-5.715c-3.53,-3.53 -5.715,-8.405 -5.715,-13.785c0,-5.38 2.185,-10.255 5.715,-13.785c3.53,-3.53 8.405,-5.715 13.785,-5.715z" data-paper-data="{&quot;origPos&quot;:null}" fill="#42d642" stroke-width="1"/></g><g fill="#99ffff" stroke="#84c3c3" stroke-width="2" stroke-linecap="butt"><path d="M115.99999,230.49099h16v16h-16z"/><path d="M137.49999,230.49099h16v16h-16z"/><path d="M136.99999,252.49099h16v16h-16z"/><path d="M115.99999,252.49099h16v16h-16z"/></g><g fill="#99ffff" stroke="#84c3c3" stroke-width="2" stroke-linecap="butt"><path d="M325.5,232.99099h16v16h-16z"/><path d="M347,232.99099h16v16h-16z"/><path d="M346.5,254.99099h16v16h-16z"/><path d="M325.5,254.99099h16v16h-16z"/></g><g fill="#99ffff" stroke="#84c3c3" stroke-width="2" stroke-linecap="butt"><path d="M115.99999,162.48198h16v16h-16z"/><path d="M137.49999,162.48198h16v16h-16z"/><path d="M136.99999,184.48198h16v16h-16z"/><path d="M115.99999,184.48198h16v16h-16z"/></g><g fill="#99ffff" stroke="#84c3c3" stroke-width="2" stroke-linecap="butt"><path d="M325.5,164.98198h16v16h-16z"/><path d="M347,164.98198h16v16h-16z"/><path d="M346.5,186.98198h16v16h-16z"/><path d="M325.5,186.98198h16v16h-16z"/></g><path d="M486.00601,366.96999l-493.51352,1.49689c0,-20.15415 0,-40.3083 0,-60.46246h490.88069c0.19361,6.68646 2.63283,58.96557 2.63283,58.96557z" data-paper-data="{&quot;origPos&quot;:null,&quot;index&quot;:null}" fill="url(#color-10)" stroke="none" stroke-width="1.22826" stroke-linecap="butt"/><path d="M196.17527,76.45724l44.70435,-30.97826l43.43913,30.97826v64.02174h-88.14348z" fill="#52c4ff" stroke="none" stroke-width="1" stroke-linecap="round"/></g></g></svg>