<svg version="1.1" xmlns="http://www.w3.org/2000/svg" xmlns:xlink="http://www.w3.org/1999/xlink" width="667.42671" height="373.69495" viewBox="0,0,667.42671,373.69495"><defs><linearGradient x1="541.72072" y1="211.10975" x2="577.00601" y2="211.10975" gradientUnits="userSpaceOnUse" id="color-1"><stop offset="0" stop-color="#ececec"/><stop offset="1" stop-color="#616161"/></linearGradient><radialGradient cx="46.92673" cy="180.00014" r="517.64399" gradientUnits="userSpaceOnUse" id="color-2"><stop offset="0" stop-color="#ececec"/><stop offset="1" stop-color="#616161"/></radialGradient></defs><g transform="translate(5.17764,1.86886)"><g data-paper-data="{&quot;isPaintingLayer&quot;:true}" fill-rule="nonzero" stroke="none" stroke-linecap="butt" stroke-linejoin="miter" stroke-miterlimit="10" stroke-dasharray="" stroke-dashoffset="0" style="mix-blend-mode: normal"><path d="M576.88321,371.82608v-311.44465h85.36586v311.44465z" fill="#272727" stroke-width="0"/><path d="M457.79518,365.59608v-7.948h86.51444v7.948z" fill="#66c0ff" stroke-width="0"/><path d="" data-paper-data="{&quot;index&quot;:null}" fill="#cc1919" stroke-width="1"/><path d="M549.60061,236.00006h-127l53,-26h74z" data-paper-data="{&quot;index&quot;:null}" fill="#ececec" stroke-width="1"/><path d="M-5.17764,334.99449h463.69715v30.1398h-463.69713z" data-paper-data="{&quot;origPos&quot;:null,&quot;index&quot;:null}" fill="#cc1919" stroke-width="1"/><path d="M541.72072,360.93109v-299.64268h35.28529v299.64268z" fill="url(#color-1)" stroke-width="0"/><path d="M-3.54892,-0.93078h100.95133v139.51613c-33.39749,0 -67.17021,0 -100.95133,0z" fill="url(#color-2)" stroke-width="0"/><path d="M-2.61083,-1.86886h79.37535v162.0302c-26.25956,0 -52.81415,0 -79.37535,0z" fill="#272727" stroke-width="0"/><path d="M404.12613,160.00001h-325.15616l-0.07105,-26h282.1748z" data-paper-data="{&quot;index&quot;:null}" fill="#ececec" stroke-width="1.17703"/><path d="M77.02451,160.31393v-26.2571h42.29294v26.2571z" data-paper-data="{&quot;origPos&quot;:null,&quot;index&quot;:null}" fill="#616161" stroke-width="0"/><path d="M161.60747,160.20995v-26.2571h42.29294v26.2571z" data-paper-data="{&quot;origPos&quot;:null,&quot;index&quot;:null}" fill="#616161" stroke-width="0"/><path d="M246.67949,160.10594v-26.2571h42.29294v26.2571z" data-paper-data="{&quot;origPos&quot;:null,&quot;index&quot;:null}" fill="#616161" stroke-width="0"/><path d="M331.26537,160.20995v-26.2571h30.35747l11.93547,7.59597v18.66112z" data-paper-data="{&quot;origPos&quot;:null,&quot;index&quot;:null}" fill="#616161" stroke-width="0"/><path d="M459.67949,236.20995v-18.66112l11.93547,-7.59598h30.35747v26.2571z" data-paper-data="{&quot;index&quot;:null}" fill="#616161" stroke-width="0"/></g></g></svg>