<svg version="1.1" xmlns="http://www.w3.org/2000/svg" xmlns:xlink="http://www.w3.org/1999/xlink" width="134.2" height="542.59093" viewBox="0,0,134.2,542.59093"><defs><linearGradient x1="227.60239" y1="-7805.73052" x2="227.60239" y2="19900.1973" gradientUnits="userSpaceOnUse" id="color-1"><stop offset="0" stop-color="#519dff"/><stop offset="1" stop-color="#519dff" stop-opacity="0"/></linearGradient></defs><g transform="translate(-172.9,216.09092)"><g data-paper-data="{&quot;isPaintingLayer&quot;:true}" fill-rule="nonzero" stroke-linejoin="miter" stroke-miterlimit="10" stroke-dasharray="" stroke-dashoffset="0" style="mix-blend-mode: normal"><path d="M185.12013,-214.3052l110.23071,-0.28187l-0.02906,520.41557c0,0 -109.19116,-0.41508 -110.06518,1.5387z" data-paper-data="{&quot;origPos&quot;:null}" fill="url(#color-1)" stroke="#55b2f0" stroke-width="3" stroke-linecap="butt"/><path d="M281.8514,174.73776v-42.36335" data-paper-data="{&quot;origPos&quot;:null}" fill="none" stroke="#8bdfff" stroke-width="3" stroke-linecap="round"/><path d="M284.64026,264.16094l-0.9151,-64.5212" data-paper-data="{&quot;origPos&quot;:null}" fill="none" stroke="#8bdfff" stroke-width="3" stroke-linecap="round"/><path d="M264.05065,165.21105v46.29757" data-paper-data="{&quot;origPos&quot;:null}" fill="none" stroke="#8bdfff" stroke-width="3" stroke-linecap="round"/><path d="M245.24767,307.00469l-2.81066,-116.36522" data-paper-data="{&quot;origPos&quot;:null}" fill="none" stroke="#8bdfff" stroke-width="3" stroke-linecap="round"/><path d="M227.44693,284.96777l0.0631,17.50281" data-paper-data="{&quot;origPos&quot;:null}" fill="none" stroke="#8bdfff" stroke-width="3" stroke-linecap="round"/><path d="M283.72516,304.86159v-19.55606" data-paper-data="{&quot;origPos&quot;:null}" fill="none" stroke="#8bdfff" stroke-width="3" stroke-linecap="round"/><path d="M203.17512,126.35591l0.9369,106.45144" data-paper-data="{&quot;origPos&quot;:null}" fill="none" stroke="#8bdfff" stroke-width="3" stroke-linecap="round"/><path d="M220.9541,170.56362l0.9151,94.50281" data-paper-data="{&quot;origPos&quot;:null}" fill="none" stroke="#8bdfff" stroke-width="3" stroke-linecap="round"/><path d="M194.76472,272.03644v35.36333" data-paper-data="{&quot;origPos&quot;:null}" fill="none" stroke="#8bdfff" stroke-width="3" stroke-linecap="round"/><path d="M268.73505,-44.34914l-0.93688,-38.01838" data-paper-data="{&quot;origPos&quot;:null}" fill="none" stroke="#8bdfff" stroke-width="3" stroke-linecap="round"/><path d="M240.62861,54.68138l2.81064,105.36522" data-paper-data="{&quot;origPos&quot;:null}" fill="none" stroke="#8bdfff" stroke-width="3" stroke-linecap="round"/><path d="M266.92663,121.56575l-0.93688,-38.01836" data-paper-data="{&quot;origPos&quot;:null}" fill="none" stroke="#8bdfff" stroke-width="3" stroke-linecap="round"/><path d="M222.84964,135.88257l-0.95866,-61.91564" data-paper-data="{&quot;origPos&quot;:null}" fill="none" stroke="#8bdfff" stroke-width="3" stroke-linecap="round"/><path d="M205.94222,75.45939v-45.90719" data-paper-data="{&quot;origPos&quot;:null}" fill="none" stroke="#8bdfff" stroke-width="3" stroke-linecap="round"/><path d="M205.0271,0.13293l-0.93686,-121.65882" data-paper-data="{&quot;origPos&quot;:null}" fill="none" stroke="#8bdfff" stroke-width="3" stroke-linecap="round"/><path d="M227.53406,36.67355l-0.9151,-80.38169" data-paper-data="{&quot;origPos&quot;:null}" fill="none" stroke="#8bdfff" stroke-width="3" stroke-linecap="round"/><path d="M244.37613,-108.3125v87.98539" data-paper-data="{&quot;origPos&quot;:null}" fill="none" stroke="#8bdfff" stroke-width="3" stroke-linecap="round"/><path d="M288.2353,-1.43305l-0.93688,97.76154" data-paper-data="{&quot;origPos&quot;:null}" fill="none" stroke="#8bdfff" stroke-width="3" stroke-linecap="round"/><path d="M283.72516,-30.28174v-145.55606" data-paper-data="{&quot;origPos&quot;:null}" fill="none" stroke="#8bdfff" stroke-width="3" stroke-linecap="round"/><path d="M264.57369,58.89734l-0.9151,-80.38169" data-paper-data="{&quot;origPos&quot;:null}" fill="none" stroke="#8bdfff" stroke-width="3" stroke-linecap="round"/><g data-paper-data="{&quot;origPos&quot;:null,&quot;index&quot;:null}" fill="#8bdfff" stroke="none" stroke-linecap="butt"><path d="M192.7,323.15067c-10.93524,0 -19.8,-9.24733 -19.8,-20.65449c0,-11.40717 8.86476,-20.65449 19.8,-20.65449c10.93524,0 19.8,9.24733 19.8,20.65449c0,11.40717 -8.86476,20.65449 -19.8,20.65449z" data-paper-data="{&quot;origPos&quot;:null}" stroke-width="3"/><path d="M273,305.28731c0,-9.24905 7.63355,-16.74688 17.05,-16.74688c9.41645,0 17.05,7.49783 17.05,16.74688c0,9.24905 -7.63355,16.74688 -17.05,16.74688c-9.41645,0 -17.05,-7.49783 -17.05,-16.74688z" data-paper-data="{&quot;origPos&quot;:null}" stroke-width="0"/><path d="M220.2,319.80125c-7.89767,0 -14.3,-5.74835 -14.3,-12.83928c0,-7.09094 6.40233,-12.83928 14.3,-12.83928c7.89767,0 14.3,5.74835 14.3,12.83928c0,7.09094 -6.40233,12.83928 -14.3,12.83928z" data-paper-data="{&quot;origPos&quot;:null}" stroke-width="0"/><path d="M253.2,295.79738c0,-6.47434 5.17111,-11.72282 11.55,-11.72282c6.37889,0 11.55,5.24849 11.55,11.72282c0,6.47434 -5.17111,11.72282 -11.55,11.72282c-6.37889,0 -11.55,-5.24849 -11.55,-11.72282z" data-paper-data="{&quot;origPos&quot;:null}" stroke-width="0"/><path d="M243.3,325.38356c-9.1127,0 -16.5,-7.49783 -16.5,-16.74688c0,-9.24905 7.3873,-16.74688 16.5,-16.74688c9.1127,0 16.5,7.49783 16.5,16.74688c0,9.24905 -7.3873,16.74688 -16.5,16.74688z" data-paper-data="{&quot;origPos&quot;:null}" stroke-width="0"/><path d="M254.3,312.54427c0,-7.70755 6.40233,-13.95574 14.3,-13.95574c7.89767,0 14.3,6.2482 14.3,13.95574c0,7.70755 -6.40233,13.95574 -14.3,13.95574c-7.89767,0 -14.3,-6.2482 -14.3,-13.95574z" data-paper-data="{&quot;origPos&quot;:null}" stroke-width="0"/><path d="M233.95,311.98607c-6.9864,0 -12.65,-5.74835 -12.65,-12.83928c0,-7.09094 5.6636,-12.83928 12.65,-12.83928c6.9864,0 12.65,5.74835 12.65,12.83928c0,7.09094 -5.6636,12.83928 -12.65,12.83928z" data-paper-data="{&quot;origPos&quot;:null}" stroke-width="0"/></g></g></g></svg>