<svg version="1.1" xmlns="http://www.w3.org/2000/svg" xmlns:xlink="http://www.w3.org/1999/xlink" width="238.35413" height="27.09036" viewBox="0,0,238.35413,27.09036"><g transform="translate(-120.75,-171.19378)"><g data-paper-data="{&quot;isPaintingLayer&quot;:true}" fill-rule="nonzero" stroke-linecap="butt" stroke-linejoin="miter" stroke-miterlimit="10" stroke-dasharray="" stroke-dashoffset="0" style="mix-blend-mode: normal"><path d="M205.7759,185.5087c0,-7.05568 15.32265,-12.77543 34.2241,-12.77543c18.90145,0 34.2241,5.71975 34.2241,12.77543c0,7.05568 -15.32265,12.77544 -34.2241,12.77544c-18.90144,0 -34.2241,-5.71976 -34.2241,-12.77544z" fill="#ff4d4d" stroke="none" stroke-width="0"/><path d="M229.09945,186.53419c0,-6.02021 4.88035,-10.90055 10.90055,-10.90055c6.02021,0 10.90055,4.88035 10.90055,10.90055c0,6.02021 -4.88035,10.90055 -10.90055,10.90055c-6.02021,0 -10.90055,-4.88035 -10.90055,-10.90055z" fill="#e62d2d" stroke="none" stroke-width="0"/><path d="M120.89587,180.28238v-9.0886h238.20826v9.5886l-6.60413,8.02393h-225z" fill="#ff4d4d" stroke="none" stroke-width="0"/><path d="M127.14587,181.13004l-6.25,-7.93625l-0.14587,-2l238.25367,0.20699l0.10046,1.79301l-6,7.93625z" fill="#e62d2d" stroke="none" stroke-width="0"/><path d="M127.89587,179.13004l-7,-7.93625h238.20826l-7,7.93625z" fill="#d59920" stroke="none" stroke-width="0"/><path d="M129.20183,177.33004l-4.30596,-4.33625h230.00826l-4.10596,4.33625z" fill="#ffdd4d" stroke="none" stroke-width="0"/><g><path d="M230.02359,184.75107c0,-5.50982 4.46659,-9.97641 9.97641,-9.97641c5.50982,0 9.97641,4.46659 9.97641,9.97641c0,5.50982 -4.46659,9.97641 -9.97641,9.97641c-5.50982,0 -9.97641,-4.46659 -9.97641,-9.97641z" fill="#c3c3c3" stroke="#676767" stroke-width="2"/><path d="M234.02359,181.55107c0,-2.41702 2.67573,-4.37641 5.97641,-4.37641c3.30068,0 5.97641,1.95939 5.97641,4.37641c0,2.41702 -2.67573,4.37641 -5.97641,4.37641c-3.30068,0 -5.97641,-1.95938 -5.97641,-4.37641z" fill="#e5e5e5" stroke="none" stroke-width="0"/><path d="M238.52137,191.58975v-13.67735h2.95727v13.67735z" fill="#676767" stroke="none" stroke-width="0"/><path d="M246.83868,186.2297h-13.67735v-2.95727h13.67735z" fill="#676767" stroke="none" stroke-width="0"/></g></g></g></svg>