<svg version="1.1" xmlns="http://www.w3.org/2000/svg" xmlns:xlink="http://www.w3.org/1999/xlink" width="185.83333" height="205.83333" viewBox="0,0,185.83333,205.83333"><g transform="translate(-145.83336,-77.25779)"><g data-paper-data="{&quot;isPaintingLayer&quot;:true}" fill-rule="nonzero" stroke-linejoin="miter" stroke-miterlimit="10" stroke-dasharray="" stroke-dashoffset="0" style="mix-blend-mode: normal"><g data-paper-data="{&quot;origPos&quot;:null,&quot;index&quot;:null,&quot;origRot&quot;:0}" stroke="none" stroke-width="0" stroke-linecap="butt"><path d="M233.04693,193.44131c-2.52273,2.22532 -6.55848,1.16744 -10.63343,-3.4521c-3.27752,-3.71555 -8.76575,-11.71927 -8.76575,-11.71927l7.64713,-6.59117c0,0 4.5634,3.78265 8.63835,8.40219c4.07495,4.61955 5.63642,11.13501 3.11369,13.36034z" data-paper-data="{&quot;origRot&quot;:0,&quot;origPos&quot;:null}" fill="#8ba372"/><g data-paper-data="{&quot;origPos&quot;:null}" fill="#e7e7e7"><path d="M214.99296,172.92859c-4.63117,3.72214 -8.03778,5.20186 -12.88286,0.76862c-5.18893,-4.74787 -0.78842,-8.63745 3.23408,-13.72236c3.68622,-4.65981 12.55292,-3.64379 15.60133,-0.27469c4.20203,4.64408 -1.32137,9.5063 -5.95254,13.22843z" data-paper-data="{&quot;origRot&quot;:0,&quot;origPos&quot;:null}"/><path d="M218.72347,176.27913c-3.57176,2.8784 -7.48322,5.27127 -9.13141,3.35097c-2.82258,-3.28856 -0.82112,-2.94623 5.69564,-8.46896c5.72055,-4.84795 6.50257,-5.7801 9.21734,-2.91182c2.42673,2.56395 -2.20983,5.15141 -5.78158,8.02981z" data-paper-data="{&quot;origRot&quot;:0,&quot;origPos&quot;:null}"/></g></g><path d="M207.16486,208.96548c4.98294,-4.45527 10.92064,-12.01387 10.92064,-12.01387c0,0 3.2725,1.36662 5.58918,3.70937c2.31705,2.39319 4.33706,5.14467 4.33706,5.14467c0,0 -3.89498,7.14185 -6.64752,10.44713c-2.20157,2.64367 -3.16425,4.07386 -3.76283,5.30513c-1.66815,3.43135 -0.80653,6.65791 -4.49789,5.6932c-5.41982,-1.41642 -8.66364,-4.16019 -11.38679,-9.0556c-2.19836,-3.95199 -1.76982,-6.1407 -0.20234,-8.28542c0.38741,-0.53007 3.49486,0.98273 5.65047,-0.94461z" data-paper-data="{&quot;origPos&quot;:null}" fill="#535374" stroke="none" stroke-width="0" stroke-linecap="butt"/><path d="M194.0182,215.67721c1.70714,-1.70335 5.81267,-0.35649 9.16998,3.00829c2.44564,2.45107 7.55502,7.56631 8.55368,10.88167c0.232,0.77021 -0.66314,1.63735 -1.17604,2.15937c-0.64612,0.65762 -2.5572,-1.93821 -2.5572,-1.93821c0,0 -1.76443,0.42427 -3.07004,0.08162c-4.20547,-1.10372 -9.70221,-6.29945 -10.49965,-7.7059c-1.2168,-2.14613 -2.16716,-4.74428 -0.42072,-6.48684z" data-paper-data="{&quot;origPos&quot;:null}" fill="#c7bda8" stroke="none" stroke-width="0" stroke-linecap="butt"/><path d="M195.36968,212.64406c2.36013,-4.36631 7.99532,-3.56709 11.79081,0.23684c1.76518,1.76909 3.00043,6.30431 4.3567,8.40336c2.09478,3.24203 1.98645,2.58016 3.73728,4.91091c0.47426,0.63135 -1.93812,2.98582 -3.51556,4.32964c-0.76215,0.64927 -3.36495,-2.24928 -3.36495,-2.24928c0,0 -6.26649,-1.86785 -10.06198,-5.67178c-3.79549,-3.80393 -4.37571,-7.30783 -2.9423,-9.95968z" data-paper-data="{&quot;origPos&quot;:null}" fill="#745842" stroke="none" stroke-width="0" stroke-linecap="butt"/><path d="M224.31118,219.55481c0.53051,-6.66316 -2.17287,-14.53413 -2.17287,-14.53413c0,0 4.10987,-1.56665 6.62415,-1.9645c3.18591,-0.50413 7.98189,-0.34672 7.98189,-0.34672c0,0 2.58165,8.02611 2.8713,12.31766c0.23167,3.43252 0.52223,5.13187 0.93895,6.43596c1.16133,3.63431 4.01185,5.37432 0.67493,7.22413c-4.89941,2.71595 -9.14044,2.96954 -14.48983,1.30682c-4.31848,-1.34228 -5.5191,-3.22181 -5.86521,-5.85563c-0.08555,-0.65096 3.20716,-1.70114 3.43666,-4.5836z" data-paper-data="{&quot;origPos&quot;:null}" fill="#535374" stroke="none" stroke-width="0" stroke-linecap="butt"/><path d="M219.43089,233.4855c0.05959,-2.41084 3.95997,-4.27 8.71176,-4.15255c3.46144,0.08556 10.68923,0.26029 13.70019,1.96998c0.6995,0.39719 0.6503,1.64249 0.63948,2.37424c-0.01362,0.92182 -3.18818,0.36256 -3.18818,0.36256c0,0 -0.9839,1.52486 -2.16514,2.17808c-3.80487,2.10406 -11.36851,2.13844 -12.9163,1.67114c-2.36179,-0.71307 -4.84276,-1.93712 -4.78181,-4.40346z" data-paper-data="{&quot;origPos&quot;:null}" fill="#c7bda8" stroke="none" stroke-width="0" stroke-linecap="butt"/><path d="M218.31526,230.35793c-1.30595,-4.78847 3.32329,-8.0997 8.69526,-7.96693c2.49834,0.06175 6.52248,2.49081 8.95269,3.07355c3.7535,0.90005 3.21828,0.49589 6.09391,0.97395c0.77895,0.1295 0.65848,3.49826 0.44458,5.55943c-0.10335,0.99587 -3.98737,0.695 -3.98737,0.695c0,0 -5.82365,2.9737 -11.19562,2.84093c-5.37197,-0.13277 -8.21028,-2.2677 -9.00344,-5.17594z" data-paper-data="{&quot;origPos&quot;:null}" fill="#745842" stroke="none" stroke-width="0" stroke-linecap="butt"/><path d="M221.76696,187.01823c7.64884,-12.31497 11.53107,-11.48408 18.58553,-7.24162c3.81492,2.29424 8.93558,3.38184 9.99637,8.2802c1.42383,6.57472 -1.12251,12.19549 -5.09056,18.79367c-3.65775,6.0822 -13.0825,8.5951 -20.13696,4.35264c-7.05446,-4.24246 -11.15754,-11.62147 -3.35438,-24.1849z" data-paper-data="{&quot;origPos&quot;:null}" fill="#535374" stroke="none" stroke-width="0" stroke-linecap="butt"/><path d="M232.20718,176.68102c2.86796,-0.77972 7.50893,0.12056 10.9437,2.33356c3.43477,2.213 5.7453,4.53926 6.90438,8.09671c1.77155,5.43728 -3.65229,13.41872 -3.65229,13.41872c0,0 -6.58122,-0.88789 -11.62818,-4.22207c-5.50232,-3.63502 -12.79187,-9.64883 -12.79187,-9.64883c0,0 3.44979,-8.13629 10.22426,-9.97809z" data-paper-data="{&quot;origPos&quot;:null}" fill="#8ba372" stroke="none" stroke-width="0" stroke-linecap="butt"/><path d="M225.69152,192.44292c0,0 3.04572,-6.25769 5.20479,-9.2646c1.68095,-2.34105 5.13719,-5.83726 5.13719,-5.83726" data-paper-data="{&quot;origPos&quot;:null,&quot;origRot&quot;:0}" fill="none" stroke="#535374" stroke-width="6.5" stroke-linecap="round"/><path d="M236.77785,199.16111c0,0 2.37275,-6.47549 4.22294,-9.69048c1.44047,-2.50307 4.55729,-6.38185 4.55729,-6.38185" data-paper-data="{&quot;origPos&quot;:null}" fill="none" stroke="#535374" stroke-width="6.5" stroke-linecap="round"/><path d="M235.54754,201.17357c-1.27024,-0.76391 -1.63925,-2.48184 -0.82421,-3.83711c0.81504,-1.35527 2.5055,-1.83467 3.77574,-1.07077c1.27024,0.76391 1.63924,2.48184 0.8242,3.83711c-0.81504,1.35528 -2.50549,1.83467 -3.77573,1.07077z" data-paper-data="{&quot;origPos&quot;:null}" fill="#e7e7e7" stroke="none" stroke-width="0" stroke-linecap="butt"/><path d="M224.58225,194.57919c-1.22653,-0.73762 -1.56013,-2.43425 -0.74509,-3.78952c0.81504,-1.35527 2.47008,-1.85597 3.69662,-1.11835c1.22655,0.73763 1.56013,2.43426 0.74509,3.78953c-0.81504,1.35527 -2.47008,1.85596 -3.69662,1.11834z" data-paper-data="{&quot;origPos&quot;:null}" fill="#e7e7e7" stroke="none" stroke-width="0" stroke-linecap="butt"/><g data-paper-data="{&quot;origPos&quot;:null,&quot;origRot&quot;:0,&quot;index&quot;:null}" stroke="none" stroke-width="0" stroke-linecap="butt"><path d="M252.96478,196.80895c-6.15704,-0.19047 -6.5465,-2.12314 -6.44249,-5.4855c0.10401,-3.36235 3.11732,-6.81695 9.27436,-6.62649c6.15704,0.19045 11.98129,1.29101 11.98129,1.29101l-0.19637,10.09374c0,0 -9.66463,0.88043 -14.6168,0.72724z" data-paper-data="{&quot;origRot&quot;:0,&quot;origPos&quot;:null}" fill="#8ba372"/><g data-paper-data="{&quot;origPos&quot;:null}" fill="#e7e7e7"><path d="M278.46385,202.04847c-6.50493,-0.90234 -7.53898,-4.4696 -7.62761,-10.41049c-0.08863,-5.94088 0.13136,-13.2962 6.38837,-13.02353c4.53923,0.19781 10.97868,6.37714 9.74238,12.18864c-1.34908,6.34167 -1.53655,12.21177 -8.50314,11.24539z" data-paper-data="{&quot;origRot&quot;:0,&quot;origPos&quot;:null}"/><path d="M269.12179,200.07247c-2.53024,-0.04396 -3.18326,-4.58257 -3.24565,-9.16936c-0.06239,-4.58679 -1.02818,-9.80789 2.49441,-9.57509c3.94071,0.26043 3.72188,1.45734 3.63864,8.95536c-0.09484,8.54164 1.44573,9.8644 -2.8874,9.7891z" data-paper-data="{&quot;origRot&quot;:0,&quot;origPos&quot;:null}"/></g></g><path d="M222.46825,139.19192c0.24229,-1.55235 -0.46726,-3.22984 3.86869,-1.8722c4.33595,1.35764 12.98362,3.5381 12.29435,5.73943c-0.68927,2.20134 -0.8918,6.61729 -5.22775,5.25965c-5.38093,-1.68483 -11.3096,-6.72864 -10.93529,-9.12687z" data-paper-data="{&quot;origPos&quot;:null,&quot;index&quot;:null}" fill="#6e815a" stroke="none" stroke-width="0" stroke-linecap="butt"/><path d="M257.43525,179.27446c0,0 -0.87059,1.27994 -2.18061,0.97036c-2.41783,-0.57136 -3.00608,-1.87367 -3.00608,-1.87367c-0.31401,-1.22895 3.25474,-7.18022 3.25474,-7.18022c0.98217,-2.14022 4.91078,-1.77436 4.91078,-1.77436c1.28859,-0.7537 -0.608,3.7936 0.6159,5.70537c1.02324,1.59834 -0.43431,3.81791 -1.72291,4.57161c-1.28858,0.7537 -1.87182,-0.41908 -1.87182,-0.41908z" data-paper-data="{&quot;origRot&quot;:0,&quot;origPos&quot;:null,&quot;index&quot;:null}" fill="#38291e" stroke="none" stroke-width="0" stroke-linecap="butt"/><path d="M263.35456,153.50812c0.9721,0.07217 3.66309,-1.21345 7.16521,-0.11689c3.50213,1.09656 4.49554,5.76202 2.96384,10.65387c-1.53171,4.89184 -6.59453,8.98727 -12.85742,7.02628c-0.11748,-0.03678 -0.96312,0.21968 -1.82957,0.92551c-2.82656,2.30261 -2.77545,4.68585 -6.66949,6.3231c-5.12984,2.15685 -8.16039,2.44184 -12.37328,2.65026c-4.9184,0.06823 -3.89337,2.78855 -13.41487,-0.82798c-2.87605,-3.22994 -2.55774,-5.66991 -0.69145,-9.93369c1.74001,-3.97529 2.4999,-11.29364 4.78196,-17.10852c1.98478,-5.05737 2.01669,-10.17812 7.28346,-8.84495c3.55987,0.9011 22.84589,9.04546 25.64161,9.253z" data-paper-data="{&quot;origPos&quot;:null,&quot;index&quot;:null}" fill="#dbd2c8" stroke="none" stroke-width="0" stroke-linecap="butt"/><path d="M233.27127,147.54113c1.13725,-2.88583 3.50896,-4.65394 5.29736,-3.94916c1.7884,0.70477 2.31628,3.61553 1.17903,6.50137c-1.13725,2.88584 -3.50896,4.65395 -5.29736,3.94917c-1.7884,-0.70476 -2.31628,-3.61553 -1.17903,-6.50137z" data-paper-data="{&quot;origPos&quot;:null,&quot;origRot&quot;:0,&quot;index&quot;:null}" fill="#ffffff" stroke="none" stroke-width="0" stroke-linecap="butt"/><path d="M256.88718,156.9218c1.03923,-2.5957 -2.04734,-7.20099 4.88829,-4.74515c1.6473,0.58329 0.82791,3.16487 -0.00757,5.83315c-0.83548,2.66829 -1.69951,3.88833 -3.12426,4.63546c-1.42475,0.74713 -4.27612,0.14296 -4.88798,-0.43392c-1.20109,-1.1324 1.98083,-2.41544 3.13152,-5.28953z" data-paper-data="{&quot;origPos&quot;:null,&quot;index&quot;:null}" fill="#38291e" stroke="none" stroke-width="0" stroke-linecap="butt"/><path d="M240.18986,153.02621c1.26535,-2.83201 3.71387,-4.49213 5.46892,-3.70796c1.75504,0.78415 2.15202,3.71564 0.88668,6.54765c-1.26535,2.83201 -3.71387,4.49213 -5.46892,3.70796c-1.75505,-0.78416 -2.15202,-3.71565 -0.88668,-6.54766z" data-paper-data="{&quot;origPos&quot;:null,&quot;origRot&quot;:0,&quot;index&quot;:null}" fill="#ffffff" stroke="none" stroke-width="0" stroke-linecap="butt"/><path d="M244.1903,151.7119c0.57493,0.18002 0.96408,0.76274 1.12937,1.55852c0.16469,0.79559 0.1053,1.80485 -0.21824,2.83815c-0.32353,1.0333 -0.85035,1.89619 -1.43936,2.4558c-0.58962,0.55941 -1.24162,0.81614 -1.81655,0.63612c-0.57493,-0.18002 -0.96408,-0.76274 -1.12937,-1.55852c-0.16469,-0.79559 -0.1053,-1.80485 0.21824,-2.83815c0.32353,-1.0333 0.85035,-1.89619 1.43936,-2.4558c0.58961,-0.55941 1.24161,-0.81614 1.81654,-0.63612z" data-paper-data="{&quot;origPos&quot;:null,&quot;index&quot;:null}" fill="#000000" stroke="none" stroke-width="1" stroke-linecap="butt"/><path d="M236.47802,146.86667c0.57493,0.18002 0.96408,0.76274 1.12937,1.55852c0.16469,0.79559 0.07344,1.93413 -0.21824,2.83815c-0.22576,0.69987 -0.47447,1.65514 -1.16753,1.82275c-0.78597,0.17631 -1.5401,-0.57507 -2.24945,-0.96959c-0.38751,-0.28513 -0.81725,-0.60271 -0.99983,-1.0425c-0.1411,-0.36049 0.09774,-0.8056 0.24978,-1.11542c0.4222,-0.84857 0.85036,-1.89619 1.43937,-2.4558c0.58962,-0.55941 1.24162,-0.81614 1.81655,-0.63612z" data-paper-data="{&quot;origPos&quot;:null,&quot;index&quot;:null}" fill="#000000" stroke="none" stroke-width="1" stroke-linecap="round"/><path d="M236.09751,125.53818c3.06875,-6.15594 10.12897,-5.76924 18.75757,-1.14616c6.70296,3.59136 10.0203,16.71156 10.0203,16.71156c2.48662,-2.05323 7.6,-1.33687 7.6,-1.33687c4.41705,1.38304 8.49096,2.69395 5.49142,10.86181c-1.35987,3.70294 -4.84063,6.07939 -9.25768,4.69636c-2.15962,-0.67621 -7.86352,-0.172 -9.57642,-1.65092c-6.52349,-5.63242 -16.03271,-7.67402 -21.78014,-14.09642c-3.94448,-4.40771 -5.52828,-5.46718 -1.25505,-14.03935z" data-paper-data="{&quot;origPos&quot;:null,&quot;index&quot;:null}" fill="#8ba372" stroke="none" stroke-width="0" stroke-linecap="butt"/><path d="M245.47297,127.5622c4.06914,1.2741 6.52967,4.98375 5.49577,8.28575c-1.0339,3.302 -2.4583,6.01844 -9.23985,3.67184c-6.42388,-2.22283 -6.52967,-4.98375 -5.49577,-8.28575c1.0339,-3.302 5.17072,-4.94594 9.23985,-3.67184z" data-paper-data="{&quot;origPos&quot;:null,&quot;index&quot;:null}" fill="#e7e7e7" stroke="none" stroke-width="0" stroke-linecap="butt"/><path d="M222.62377,137.84805c0.1536,-2.05634 7.15541,-4.35078 11.0765,-3.18854c9.59185,2.84309 21.34011,10.08928 24.68034,12.46141c2.76407,1.96296 3.05251,5.41631 2.89891,7.47265c-0.04155,0.55627 -6.6289,-1.22466 -9.73467,-2.58387c-6.39031,-2.79664 -28.96262,-13.60538 -28.92107,-14.16165z" data-paper-data="{&quot;origPos&quot;:null,&quot;index&quot;:null}" fill="#8ba372" stroke="none" stroke-width="0" stroke-linecap="butt"/><path d="M241.8552,133.99417l0.78676,-5.96886l3.37151,1.08914l-2.52555,6.18678z" data-paper-data="{&quot;index&quot;:null,&quot;origRot&quot;:0}" fill="#8ba372" stroke="none" stroke-width="0" stroke-linecap="butt"/><path d="M223.33843,168.37981c0.0746,-0.4657 -2.95588,-3.67369 -2.8748,-4.7061c0.19467,-2.47889 1.32896,-7.05862 2.24234,-6.83767c1.84168,0.44551 6.08802,7.87924 6.08802,7.87924c3.54191,1.33455 13.1068,-1.08081 13.1068,-1.08081c4.16476,-0.80776 -3.15097,8.60023 -4.87917,8.69186c-5.33781,0.28299 -6.09526,1.29199 -8.53357,-0.26487c-0.79892,-0.5101 -2.20695,-1.25233 -1.94918,-2.8615z" data-paper-data="{&quot;origPos&quot;:null,&quot;index&quot;:null}" fill="#38291e" stroke="none" stroke-width="0" stroke-linecap="butt"/><path d="M223.43391,156.16205c1.51902,-6.54546 4.76417,-7.54338 10.43652,-5.26994c3.893,1.56028 6.38413,7.14281 5.27452,10.68662c-1.10962,3.5438 -5.74192,4.83988 -9.76553,3.65644c-8.73006,-2.56773 -6.89499,-4.98184 -5.94552,-9.07313z" data-paper-data="{&quot;origPos&quot;:null,&quot;index&quot;:null}" fill="#dbd2c8" stroke="none" stroke-width="0" stroke-linecap="butt"/><g data-paper-data="{&quot;origPos&quot;:null,&quot;index&quot;:null}" fill="none" stroke="#a79c99" stroke-width="3" stroke-linecap="round"><path d="M262.63718,166.12585c0,0 -0.5723,-4.93425 3.50619,-6.44322c2.8438,-1.05216 4.30628,0.55295 4.30628,0.55295" data-paper-data="{&quot;origPos&quot;:null}"/><path d="M263.91729,162.64264l3.62351,1.13456" data-paper-data="{&quot;origPos&quot;:null}"/><path d="M263.12782,166.37419l0.77646,0.24312" data-paper-data="{&quot;origPos&quot;:null}"/></g><path d="M247.71313,149.24362c-0.96129,-0.00307 -5.18949,0.44667 -5.18949,0.44667c0,0 -0.92312,-3.41076 4.88044,-5.06601c1.82126,-0.16154 3.03762,1.56516 3.39218,2.66636c0.52219,1.62183 0.34718,4.08953 0.34718,4.08953c0,0 -1.20551,-0.73438 -1.87479,-1.39051c-0.64876,-0.63601 -0.64722,-0.76573 -1.55552,-0.74604z" data-paper-data="{&quot;origPos&quot;:null,&quot;origRot&quot;:0,&quot;index&quot;:null}" fill="#38291e" stroke="none" stroke-width="0" stroke-linecap="butt"/><path d="M237.08736,143.63501c-0.49044,-0.76475 -0.59723,-0.6911 -1.48702,-0.87463c-0.91792,-0.18934 -2.19998,-0.78003 -2.19998,-0.78003c0,0 1.95027,-1.52206 3.58754,-1.99361c1.11167,-0.32017 3.22329,-0.27413 4.10538,1.32744c1.86441,5.73979 -2.10369,5.76623 -2.10369,5.76623c0,0 -1.36335,-2.64936 -1.90224,-3.4454z" data-paper-data="{&quot;origPos&quot;:null,&quot;index&quot;:null,&quot;origRot&quot;:0}" fill="#38291e" stroke="none" stroke-width="0" stroke-linecap="butt"/><path d="M145.83336,283.09112v-205.83333h185.83333v205.83333z" fill="none" stroke="#000000" stroke-width="0" stroke-linecap="butt"/><path d="M240.68327,136.49487l0.75663,-1.67256l1.40978,1.0085l-0.28478,1.51528z" fill="#8ba372" stroke="none" stroke-width="0" stroke-linecap="butt"/></g></g></svg>