<svg version="1.1" xmlns="http://www.w3.org/2000/svg" xmlns:xlink="http://www.w3.org/1999/xlink" width="33.23021" height="33.42523" viewBox="0,0,33.23021,33.42523"><defs><linearGradient x1="331.63131" y1="175.88059" x2="331.63131" y2="180.82042" gradientUnits="userSpaceOnUse" id="color-1"><stop offset="0" stop-color="#bc041a"/><stop offset="1" stop-color="#880010"/></linearGradient><linearGradient x1="324.31707" y1="173.12844" x2="324.31707" y2="179.80789" gradientUnits="userSpaceOnUse" id="color-2"><stop offset="0" stop-color="#bc041a"/><stop offset="1" stop-color="#a50216"/></linearGradient></defs><g transform="translate(-303.38489,-163.28738)"><g data-paper-data="{&quot;isPaintingLayer&quot;:true}" fill-rule="nonzero" stroke-linejoin="miter" stroke-miterlimit="10" stroke-dasharray="" stroke-dashoffset="0" style="mix-blend-mode: normal"><path d="M336.43402,177.63185c-0.21057,1.40641 -4.40839,3.18857 -7.7119,3.18857c-2.66197,0 -2.00213,-2.50449 -2.00213,-3.85595c0,-1.35146 5.21677,-1.05668 7.87874,-1.05668c2.66197,0 1.97158,0.8137 1.83528,1.72406z" fill="url(#color-1)" stroke="none" stroke-width="0" stroke-linecap="butt"/><path d="M309.27912,192.80071c0,0 -0.6304,0.434 -1.32856,-0.0732c-0.69815,-0.50721 -1.20395,-1.68011 -0.19333,-2.24025c1.20881,-0.66999 0.89523,-2.92342 1.59339,-2.41622c0,0 2.68171,0.3788 2.88867,1.45169c0,0 1.13109,3.0983 0.66759,3.59388c0,0 -0.66063,0.49009 -2.38296,0.4087c-0.93319,-0.04409 -1.24481,-0.72458 -1.24481,-0.72458z" data-paper-data="{&quot;origRot&quot;:0}" fill="#5a2c0a" stroke="none" stroke-width="0" stroke-linecap="butt"/><path d="M311.06755,178.47843c1.59946,0.3734 13.80838,-0.8039 15.95651,-0.6845c3.17813,0.17664 2.29949,3.04531 2.52384,6.22043c0.25795,3.6507 2.80404,5.31319 1.52528,8.74232c-0.49304,1.32212 -1.6021,2.01401 -2.71052,2.88723c-0.6288,0.49537 -2.38364,0.97657 -6.38352,1.05884c-5.65408,0.11629 -7.25723,-0.79919 -9.58831,-2.57585c-1.48017,-1.12814 -0.83436,-2.7309 -2.01163,-4.51316c-0.36088,-0.54633 -0.78879,-0.83776 -0.86091,-0.83776c-3.84498,0 -5.95871,-3.17615 -5.95871,-6.1794c0,-3.00326 1.3722,-5.43788 3.52226,-5.43788c2.15005,0 3.42957,1.18991 3.98572,1.31974z" fill="#ffdebd" stroke="none" stroke-width="0" stroke-linecap="butt"/><path d="M328.93222,180.40878c0.13064,1.81261 -0.67408,3.34765 -1.79739,3.42861c-1.12331,0.08096 -2.13983,-1.32282 -2.27047,-3.13543c-0.13064,-1.81261 0.67408,-3.34765 1.79739,-3.42861c1.12331,-0.08096 2.13983,1.32282 2.27047,3.13543z" data-paper-data="{&quot;origRot&quot;:0}" fill="#ffffff" stroke="none" stroke-width="0" stroke-linecap="butt"/><path d="M314.92721,181.3791c0,0.96714 1.13382,2.38176 0.26403,2.80464c-1.01185,0.49193 -1.52982,-0.18891 -1.52982,-0.18891c0,0 0.21588,0.58422 -1.13887,0.83769c-1.00637,0.18829 -1.35594,-1.9212 -1.35594,-3.55934c0,-1.63814 -0.00619,-3.22499 1.01695,-3.26273c4.30776,-0.1589 2.74366,1.73052 2.74366,3.36865z" fill="#5a2c0a" stroke="none" stroke-width="0" stroke-linecap="butt"/><path d="M324.10368,182.26435c0.21169,1.80494 -0.52348,3.37448 -1.64203,3.50567c-1.11855,0.13119 -2.19693,-1.22566 -2.40862,-3.03061c-0.21169,-1.80494 0.52348,-3.37448 1.64203,-3.50567c1.11855,-0.13119 2.19693,1.22566 2.40862,3.03061z" data-paper-data="{&quot;origRot&quot;:0}" fill="#ffffff" stroke="none" stroke-width="0" stroke-linecap="butt"/><path d="M323.06813,180.91167c0.35297,0 0.67257,0.25768 0.90429,0.67368c0.23136,0.416 0.37484,0.99068 0.37484,1.62506c0,0.63438 -0.14349,1.20906 -0.37484,1.62506c-0.23172,0.416 -0.55133,0.67368 -0.90429,0.67368c-0.35297,0 -0.67257,-0.25768 -0.90429,-0.67368c-0.23136,-0.416 -0.37484,-0.99068 -0.37484,-1.62506c0,-0.63438 0.14349,-1.20906 0.37484,-1.62506c0.23172,-0.416 0.55133,-0.67368 0.90429,-0.67368z" fill="#000000" stroke="none" stroke-width="1" stroke-linecap="butt"/><path d="M327.88807,179.2247c0.35297,0 0.67257,0.25768 0.90429,0.67368c0.23136,0.416 0.28734,1.0767 0.37484,1.62506c0.03077,0.19984 0.08639,0.49052 -0.05561,0.66738c-0.17908,0.21393 -0.47495,0.31626 -0.74152,0.40784c-0.46568,0.0964 -1.01885,0.38448 -1.42744,0.1483c-0.35816,-0.21505 -0.32998,-0.79269 -0.33369,-1.22352c-0.00482,-0.55652 0.14349,-1.20906 0.37484,-1.62506c0.23172,-0.416 0.55133,-0.67368 0.90429,-0.67368z" fill="#000000" stroke="none" stroke-width="1" stroke-linecap="round"/><path d="M331.20401,167.61181c0.88853,5.54093 -0.18247,5.85604 -3.15953,7.6299c-4.33782,2.58468 -10.01199,2.06143 -14.64543,4.06855c-1.21662,0.52702 -4.31749,-0.75346 -5.64334,-0.75346c-2.71176,0 -4.24187,-1.93808 -4.35394,-4.24652c-0.24718,-5.09189 2.26012,-5.11164 4.97188,-5.11164c0,0 2.98438,0.49465 4.01523,2.07798c0,0 4.15168,-6.75495 8.52814,-7.58947c5.63373,-1.07426 9.64891,-0.05446 10.28699,3.92466z" fill="#ff0021" stroke="none" stroke-width="0" stroke-linecap="butt"/><path d="M330.13102,170.77271c0,2.0272 -0.54249,3.55236 -4.52333,3.67057c-4.20248,0.1248 -4.52333,-1.64337 -4.52333,-3.67057c0,-2.0272 2.02516,-3.67057 4.52333,-3.67057c2.49816,0 4.52333,1.64337 4.52333,3.67057z" fill="#ffffff" stroke="none" stroke-width="0" stroke-linecap="butt"/><path d="M336.58233,176.85324c-0.07415,0.31829 -14.58693,2.40997 -18.64945,2.85488c-1.97444,0.21624 -5.96931,0.05876 -5.89516,-0.25953c0.27412,-1.17662 1.03996,-3.05695 2.92904,-3.67057c2.28286,-0.74152 10.12006,-2.73626 15.98073,-2.64666c2.39581,0.03663 5.90895,2.54526 5.63483,3.72188z" fill="url(#color-2)" stroke="none" stroke-width="0" stroke-linecap="butt"/><path d="M322.49328,172.89431l1.78999,-4.75402l1.63279,2.20174l1.00979,-1.96859l1.97721,3.7381l-1.35652,0.81935l-0.56278,-2.83293l-1.00653,1.73097l-1.32434,-1.7391l-0.56721,2.8045z" fill="#ff0021" stroke="none" stroke-width="0" stroke-linecap="butt"/><path d="M330.83766,192.88329c-0.13759,0.94484 -0.8513,1.41854 -1.3873,1.56388c-1.63585,0.44359 -4.01859,0.37897 -5.64143,-0.11009c-0.93268,-0.28107 -0.94925,-0.88445 -1.0393,-0.9688c-0.09515,-0.08912 -1.10107,0.58095 -2.31338,0.58095c-1.94529,0 -3.29053,-1.37084 -3.29053,-3.29053c0,-2.10508 0.18268,-3.27485 0.49931,-3.33541c1.8441,-0.35274 2.39354,1.27263 3.81082,2.03774c0,0 4.73908,1.56 6.95305,1.43391c0,0 3.57372,-1.67253 4.68143,-1.5992c0.54937,0.03636 0.55296,1.18761 0.37965,1.76907c0,0 0.0564,1.58812 -0.71234,2.0103c-1.81769,0.99824 -1.90017,-0.36524 -1.93998,-0.09181z" fill="#38291e" stroke="none" stroke-width="0" stroke-linecap="butt"/><path d="M332.92321,186.95105c-0.18538,2.45372 0.418,4.12475 -4.91263,4.03206c-2.45684,-0.04272 -4.81993,-1.57834 -4.81993,-3.75399c0,-2.17565 2.37015,-4.86082 4.81993,-5.05167c3.5695,-0.27808 5.20921,0.84799 4.91263,4.77359z" fill="#ffdebd" stroke="none" stroke-width="0" stroke-linecap="butt"/><g fill="none" stroke="#f6b09a" stroke-width="1.5" stroke-linecap="round"><path d="M305.92283,180.99774c0,0 1.09869,-0.64141 2.50451,0.44472c2.01617,1.55769 0.83237,4.21631 0.83237,4.21631" data-paper-data="{&quot;origPos&quot;:null}"/><path d="M306.9292,183.48716h2.22458" data-paper-data="{&quot;origPos&quot;:null}"/><path d="M308.94191,185.71175h-0.47669" data-paper-data="{&quot;origPos&quot;:null}"/></g><path d="M320.5331,178.31681c-0.51008,0.15211 -0.48594,0.22418 -0.73354,0.69537c-0.25543,0.48609 -0.79587,1.11211 -0.79587,1.11211c0,0 -0.5407,-1.34479 -0.5407,-2.34302c0,-0.6778 0.3683,-1.85916 1.41301,-2.0961c3.5338,-0.11897 2.4819,3.20746 2.4819,3.20746c0,0 -1.28926,-0.75013 -1.8248,-0.57581z" fill="#38291e" stroke="none" stroke-width="0" stroke-linecap="butt"/><path d="M326.93279,177.27643c-0.56223,0.03306 -1.489,1.20182 -1.489,1.20182c0,0 -2.1929,-2.71346 1.14077,-3.89182c1.05915,-0.16051 1.83303,0.80509 2.08029,1.43617c0.36416,0.92945 0.3513,2.37881 0.3513,2.37881c0,0 -0.73157,-0.38572 -1.14673,-0.74514c-0.40242,-0.34839 -0.40623,-0.42429 -0.93665,-0.37985z" data-paper-data="{&quot;index&quot;:null,&quot;origRot&quot;:0}" fill="#38291e" stroke="none" stroke-width="0" stroke-linecap="butt"/></g></g></svg>