<svg version="1.1" xmlns="http://www.w3.org/2000/svg" xmlns:xlink="http://www.w3.org/1999/xlink" width="58.70646" height="85.31479" viewBox="0,0,58.70646,85.31479"><g transform="translate(-206.36434,-138.65123)"><g data-paper-data="{&quot;isPaintingLayer&quot;:true}" fill-rule="nonzero" stroke-linejoin="miter" stroke-miterlimit="10" stroke-dasharray="" stroke-dashoffset="0" style="mix-blend-mode: normal"><path d="M224.37436,204.49052c-1.80743,0.30124 -5.52692,-0.67647 -5.52692,-0.67647c0,0 3.70818,-2.11335 5.27738,-3.45838c1.26337,-1.0829 3.42079,-3.9972 3.42079,-3.9972l1.95265,5.68044c0,0 -3.38361,2.16156 -5.1239,2.45161z" fill="#d2a31f" stroke="#000000" stroke-width="0" stroke-linecap="round"/><g data-paper-data="{&quot;index&quot;:null}"><path d="M244.25069,179.41296c2.02037,0.01373 4.18818,4.39708 4.18818,4.39708l4.69704,4.45297l1.36397,-0.89937l1.90912,0.00275l2.71615,1.43755l2.79951,2.69388l0.1542,1.34867l-1.2223,1.08411l-0.47085,1.68137l-1.89037,1.74318l-0.79725,1.63831l-1.83203,0.67156l-2.00778,-0.51388l-3.18772,-4.15647l-0.34518,-1.78899l-3.79474,-3.94831l-2.94903,-4.64713c0,0 -1.35128,-5.21103 0.66908,-5.1973z" data-paper-data="{&quot;origPos&quot;:null}" fill="#d2a31f" stroke="#000000" stroke-width="0" stroke-linecap="round"/><path d="M258.53193,197.06882c-0.3037,0.66979 -0.96824,0.4028 -0.96824,0.4028l-0.07835,-0.1286c-0.71447,-0.07572 -1.17068,-0.26505 -1.76254,-0.62034c0,0 -0.61026,-0.36637 -0.20844,-0.98738c0.40182,-0.62105 1.01207,-0.2547 1.01207,-0.2547c0.48947,0.29384 0.66119,0.37293 1.18545,0.42848l0.45921,0.22295c0,0 0.66454,0.267 0.36084,0.93679z" data-paper-data="{&quot;origPos&quot;:null}" fill="#996c1c" stroke="none" stroke-width="0.5" stroke-linecap="butt"/><path d="M260.43372,194.00169c-0.31174,0.65932 -0.96202,0.41094 -0.96202,0.41094l-0.07487,-0.12406c-0.703,-0.06078 -1.14928,-0.23717 -1.72626,-0.57306c0,0 -0.59491,-0.34633 -0.18733,-0.95986c0.40755,-0.61354 1.00247,-0.2672 1.00247,-0.2672c0.47716,0.27778 0.64499,0.35182 1.16087,0.39642l0.44863,0.20914c0,0 0.65026,0.24837 0.33849,0.90769z" data-paper-data="{&quot;origPos&quot;:null}" fill="#996c1c" stroke="none" stroke-width="0.5" stroke-linecap="butt"/></g><g data-paper-data="{&quot;index&quot;:null}" stroke-linecap="butt"><g fill="#bba983" stroke="none" stroke-width="0"><path d="M249.42298,219.11784c-0.00082,2.42317 -3.80284,2.95361 -7.53209,2.95235c-1.63743,-0.00055 -3.04353,0.15753 -4.10548,-0.47281c-1.35666,-0.80524 -2.15175,-2.55761 -2.15131,-3.91682c0.00035,-1.01964 0.52116,-2.4951 1.37151,-3.23983c1.17049,-1.02509 2.96546,-1.14626 4.88823,-1.14561c3.31961,0.00111 7.52999,3.39956 7.52918,5.82273z"/><path d="M243.18654,216.47871c-0.32537,-3.44535 2.68458,-6.5394 6.72291,-6.91079c4.03833,-0.37139 7.57582,2.12058 7.90116,5.56592c0.32536,3.44535 -2.68459,6.53943 -6.7229,6.9108c-4.03833,0.37139 -7.57581,-2.12059 -7.90118,-5.56594z"/></g><g><path d="M249.51121,217.26119c-0.00084,2.50208 -3.92669,3.04978 -7.7774,3.04849c-1.69076,-0.00056 -3.14265,0.16264 -4.23917,-0.48821c-1.40082,-0.83147 -2.22184,-2.64091 -2.22138,-4.04438c0.00035,-1.05285 0.53815,-2.57639 1.41616,-3.34535c1.2086,-1.05846 3.06204,-1.18357 5.0474,-1.18291c3.42773,0.00114 7.77522,3.51026 7.77438,6.01234z" fill="#2b9638" stroke="none" stroke-width="0"/><path d="M246.18509,210.2333c-0.00043,1.27656 -2.1533,2.31072 -4.80855,2.30983c-2.65526,-0.00088 -4.80744,-1.03647 -4.80701,-2.31305c0.00043,-1.27656 2.15329,-2.31072 4.80856,-2.30984c2.65526,0.00088 4.80743,1.03649 4.80701,2.31307z" fill="#1c6225" stroke="#2b9638" stroke-width="1.5"/><path d="M243.07166,214.53612c-0.33596,-3.55757 2.772,-6.7524 6.94185,-7.13585c4.16984,-0.38345 7.82253,2.18965 8.15848,5.7472c0.33597,3.55757 -2.77202,6.75239 -6.94185,7.13585c-4.16985,0.38346 -7.82251,-2.18963 -8.15849,-5.7472z" fill="#2b9638" stroke="none" stroke-width="0"/></g><path d="M238.04623,211.17073l0.00511,-15.23821l6.25142,0.0021l-0.0049,14.6185c0,0 -0.55143,1.181 -2.94237,1.27963c-1.84419,0.04052 -3.30924,-0.66204 -3.30924,-0.66204z" fill="#fcdc48" stroke="none" stroke-width="0"/></g><g data-paper-data="{&quot;index&quot;:null}" stroke-linecap="butt"><g fill="#bba983" stroke="none" stroke-width="0"><path d="M226.03286,218.25788c-1.9215,1.47635 -4.65945,-1.21449 -6.93155,-4.17167c-0.99762,-1.29843 -1.97999,-2.3168 -2.12756,-3.54287c-0.18854,-1.56632 0.71603,-3.26479 1.79383,-4.0929c0.80855,-0.62123 2.2957,-1.10769 3.40439,-0.88746c1.52609,0.3031 2.71624,1.65224 3.8877,3.17695c2.02249,2.63235 1.89466,8.04162 -0.02684,9.51798z"/><path d="M224.32381,211.70523c2.53303,-2.35797 6.82053,-1.85769 9.57642,1.11739c2.75588,2.97507 2.93652,7.29839 0.40349,9.65637c-2.53303,2.35797 -6.82054,1.8577 -9.57644,-1.11739c-2.75588,-2.97507 -2.93652,-7.29841 -0.40348,-9.65636z"/></g><g><path d="M227.5585,217.19611c-1.98407,1.52442 -4.81118,-1.25404 -7.15727,-4.30752c-1.03012,-1.34073 -2.04446,-2.39225 -2.19685,-3.65826c-0.19467,-1.61733 0.73936,-3.3711 1.85227,-4.22617c0.83488,-0.64146 2.37047,-1.14376 3.51526,-0.91637c1.57579,0.31298 2.8047,1.70607 4.0143,3.28039c2.08838,2.71808 1.95636,8.30352 -0.0277,9.82795z" fill="#36c651" stroke="none" stroke-width="0"/><path d="M231.10261,210.2756c-1.01229,0.77776 -3.14435,-0.29861 -4.76209,-2.40416c-1.61776,-2.10556 -2.10857,-4.44296 -1.09628,-5.2207c1.01229,-0.77776 3.14435,0.29861 4.76209,2.40417c1.61776,2.10556 2.10858,4.44295 1.09629,5.2207z" fill="#1c6225" stroke="#36c651" stroke-width="1.5"/><path d="M225.79379,210.43005c2.61555,-2.43475 7.04268,-1.91821 9.8883,1.15379c2.84563,3.07199 3.03216,7.53608 0.41663,9.97084c-2.61553,2.43478 -7.04267,1.9182 -9.8883,-1.15378c-2.84563,-3.07199 -3.03216,-7.53608 -0.41662,-9.97084z" fill="#36c651" stroke="none" stroke-width="0"/></g><path d="M237.4821,195.11079l3.80874,4.95719l-11.59205,8.90647c0,0 -1.0629,0.40587 -2.70718,-1.5485c-1.51511,-2.01029 -1.49706,-3.11346 -1.49706,-3.11346z" fill="#fcdc48" stroke="none" stroke-width="0"/></g><g><path d="M226.13799,189.14005c1.34951,-8.14049 7.85331,-13.84282 14.52661,-12.73652c6.67331,1.1063 10.39461,8.70071 9.0646,16.84443c-1.9334,11.83844 -7.27836,13.74122 -13.95166,12.63491c-6.67331,-1.1063 -10.98907,-8.6023 -9.63954,-16.7428z" fill="#fcdda0" stroke="#00beff" stroke-width="0" stroke-linecap="butt"/><path d="M249.11927,186.54458c0,0 -3.82582,1.08557 -6.32144,0.6159c-2.81642,-0.53005 -9.73129,-3.63698 -9.73129,-3.63698" fill="none" stroke="#c5ab79" stroke-width="2" stroke-linecap="round"/><path d="M247.79628,177.35834c-0.2839,1.9347 -3.20272,3.10852 -6.51934,2.62182c-3.31661,-0.48671 -5.7751,-2.44963 -5.4912,-4.38434c0.2839,-1.9347 3.20272,-3.10852 6.51934,-2.62182c3.31661,0.48671 5.7751,2.44962 5.4912,4.38433z" fill="#a28650" stroke="#fcdda0" stroke-width="4.5" stroke-linecap="butt"/><path d="M248.93402,193.97577c0,0 -4.90462,0.9335 -7.11663,0.51721c-2.93286,-0.55196 -8.9361,-3.53828 -8.9361,-3.53828" fill="none" stroke="#c5ab79" stroke-width="2" stroke-linecap="round"/><path d="M238.61427,176.78161l1.05417,-5.26167l5.20271,0.92296l-1.05417,5.26167c0,0 -1.64619,0.06625 -2.45679,-0.07754c-0.91172,-0.16173 -2.74593,-0.84542 -2.74593,-0.84542z" fill="#d2a31f" stroke="none" stroke-width="0" stroke-linecap="butt"/><path d="M230.27705,184.72546c-0.20596,-3.21814 1.58369,-5.95216 3.99728,-6.10663c2.4136,-0.15447 4.53717,2.3291 4.74313,5.54724c0.20596,3.21813 -1.58368,5.95216 -3.99728,6.10664c-2.4136,0.15446 -4.53717,-2.32912 -4.74313,-5.54726z" fill="#a28650" stroke="none" stroke-width="NaN" stroke-linecap="butt"/><path d="M246.40581,201.38661c0,0 -3.80564,1.31943 -6.46432,0.81908c-2.69182,-0.5066 -9.90784,-3.7837 -9.90784,-3.7837" fill="none" stroke="#c5ab79" stroke-width="2" stroke-linecap="round"/><path d="M233.55508,188.55748c-1.31155,7.33067 -2.63288,12.6316 -7.35,11.78765c-4.71712,-0.84395 -7.4779,-7.47079 -6.16635,-14.80146c1.31155,-7.33066 7.82738,-12.5941 12.54451,-11.75016c4.71712,0.84395 2.28341,7.43329 0.97185,14.76395z" fill="#3ddf5b" stroke="#000000" stroke-width="0" stroke-linecap="butt"/><g fill="none" stroke="#2b9638" stroke-width="1.5" stroke-linecap="round"><path d="M223.1627,178.52112l1.97741,3.6071l-2.51178,8.91627l-2.16991,1.28661" data-paper-data="{&quot;origPos&quot;:null}"/><path d="M226.57754,195.16037l-3.74406,-3.99361l2.27666,-9.09226l4.08173,-0.12978" data-paper-data="{&quot;origPos&quot;:null}"/></g><path d="M233.51425,188.47026c-1.23539,6.90505 -1.27606,14.72587 -5.07197,15.07417c-0.39167,0.03593 -3.01182,-1.45574 -3.26831,-2.7835c-0.25648,-1.32775 0.53149,-2.30866 1.67408,-5.46964c0.76118,-2.10584 0.74482,-4.80797 1.28973,-7.85369c0.80367,-4.49201 0.42852,-5.75372 1.68775,-9.16614c1.25923,-3.41243 2.07074,-4.85493 3.39857,-4.61737c4.71712,0.84395 6.17984,1.39094 4.63767,3.08804c-0.64972,0.71501 -2.04143,1.90664 -2.63772,3.44731c-1.37762,3.55946 -1.70981,8.28081 -1.70981,8.28081z" fill="#ffffff" stroke="none" stroke-width="0" stroke-linecap="butt"/></g><g><g stroke-width="0"><path d="M260.03506,160.69099c0.51778,8.09003 -5.72946,15.07498 -13.95357,15.60133c-8.22411,0.52634 -15.31081,-5.60522 -15.82859,-13.69524c-0.51777,-8.09003 5.72947,-15.07497 13.95358,-15.60131c8.22412,-0.52634 15.3108,5.60521 15.82857,13.69523z" fill="#fcdc48" stroke="none" stroke-linecap="butt"/><path d="M245.76005,146.49741c0.37828,5.91063 -2.29792,7.58246 -5.7172,7.8013c-3.41926,0.21883 -6.279,-0.97681 -6.66505,-7.00883c-0.26175,-4.0897 2.58119,-7.6006 6.85021,-7.87382c4.14763,-0.26544 5.27029,2.99165 5.53204,7.08136z" fill="#ffdd32" stroke="#ff0000" stroke-linecap="butt"/><path d="M253.81914,145.63429c0.37828,5.91063 -0.67933,7.47888 -4.09859,7.69772c-1.71089,0.1095 -8.09077,-3.89144 -8.28364,-6.90525c-0.26175,-4.0897 0.80072,-7.48665 5.06976,-7.75987c4.14763,-0.26544 7.05075,2.87769 7.31249,6.9674z" fill="#ffdd32" stroke="#ff0000" stroke-linecap="butt"/><path d="M240.86489,160.80755c0.36901,5.76582 -2.5066,10.29077 -6.39518,10.53964c-3.88858,0.24887 -7.39618,-5.1008 -7.7652,-10.86662c-0.36901,-5.76582 2.5403,-9.76438 6.42888,-10.01325c3.88858,-0.24887 7.36248,4.57441 7.7315,10.34023z" fill="#fcdc48" stroke="#d2a31f" stroke-linecap="butt"/><path d="M246.45211,147.48837c0.11585,3.51986 -2.07317,5.62013 -4.82545,5.68939c-2.75227,0.06926 -5.02557,-1.91874 -5.14141,-5.4386c-0.11585,-3.51986 2.28296,-7.42129 5.03524,-7.49055c2.75227,-0.06926 4.81579,3.7199 4.93165,7.23978z" fill="#ffffff" stroke="none" stroke-linecap="butt"/><path d="M253.61765,146.33981c0.11585,3.51986 -2.07318,5.62011 -4.82546,5.68938c-2.75227,0.06926 -5.02556,-1.91873 -5.14141,-5.43859c-0.11585,-3.51986 1.64587,-7.218 4.39814,-7.28726c2.75227,-0.06926 5.45287,3.51661 5.56872,7.03648z" fill="#ffffff" stroke="none" stroke-linecap="butt"/><path d="M244.9444,147.29916c0.09566,1.9778 -0.44708,3.63368 -1.21224,3.69848c-0.76516,0.06481 -1.46299,-1.48601 -1.55865,-3.46381c-0.09566,-1.9778 0.4471,-3.63368 1.21224,-3.69847c0.76516,-0.06481 1.46299,1.486 1.55865,3.46381z" fill="#000000" stroke="none" stroke-linecap="butt"/><path d="M250.70246,146.47421c0.09566,1.9778 -0.44708,3.63367 -1.21224,3.69846c-0.76516,0.06481 -1.46299,-1.486 -1.55865,-3.46381c-0.09566,-1.9778 0.44709,-3.63368 1.21224,-3.69848c0.76516,-0.06481 1.46298,1.48602 1.55864,3.46382z" fill="#000000" stroke="none" stroke-linecap="butt"/><path d="M240.35819,169.57396l2.67373,-3.93235l15.62175,2.48283l-2.39424,3.15461c0,0 -5.74317,-1.16347 -8.37264,-1.24403c-2.76115,-0.08461 -7.75281,0.38912 -7.75281,0.38912z" fill="#d2a31f" stroke="#d2a31f" stroke-linecap="round"/></g><g stroke-linecap="round"><path d="M247.13181,152.74122c0,0 6.45702,-3.93554 10.71814,-1.66109c13.79179,7.36157 3.58655,23.82377 3.58655,23.82377c0,0 -5.54397,-4.53638 -9.12749,-5.68572c-3.29136,-1.05564 -10.71621,-1.00786 -10.71621,-1.00786" fill="#fcdc48" stroke="#d2a31f" stroke-width="0"/><path d="M251.29193,154.66841c0,0 1.20799,0.80138 1.72799,1.28512c0.51522,0.47929 1.3778,1.60405 1.3778,1.60405" fill="none" stroke="#996c1c" stroke-width="1.5"/><path d="M259.41641,157.25072l1.1486,-2.97927" data-paper-data="{&quot;index&quot;:null}" fill="none" stroke="#996c1c" stroke-width="1.5"/><path d="M237.26863,156.24218c0,0 3.98879,0.68482 4.37271,6.992c0.42355,6.95833 -3.02347,8.17258 -3.02347,8.17258" fill="none" stroke="#d2a31f" stroke-width="2"/></g></g><g data-paper-data="{&quot;origRot&quot;:0}" stroke-linecap="round"><path d="M222.00038,186.21769c-0.87188,-0.23615 -3.36085,-0.42137 -7.43286,-2.6272c-4.07198,-2.20584 -5.8599,-3.48235 -6.79883,-4.9383c-0.93892,-1.45596 -1.41065,-5.84415 -1.40429,-7.01143c0.00634,-1.16725 -0.03146,-3.55218 0.20854,-5.80736c0.24001,-2.25518 0.20443,-1.40866 0.64602,-2.22257c0.44158,-0.81391 0.53654,-0.65586 1.03675,-0.87888c0.50022,-0.22302 0.50739,-0.06679 0.8253,0.04871c0.31792,0.11549 0.82387,0.32724 1.23455,0.69965c0.41069,0.37236 0.46477,0.54733 0.61386,0.97633c0.16192,0.46587 0.228,1.44601 0.228,1.44601c0,0 1.09899,-1.49159 1.92931,-2.34829c0.83031,-0.85669 1.63501,-0.71912 1.94347,-0.5757c0.30848,0.14341 1.04715,0.29352 1.24474,0.70194c0.19759,0.40843 0.28121,0.87418 0.30116,1.54845c0.01994,0.67428 0.17787,2.3246 0.17787,2.3246c0,0 0.54503,-0.81777 1.06584,-1.42987c0.52085,-0.61211 1.37488,-1.14482 1.7787,-0.93497c0.40384,0.20989 1.15948,0.25435 1.68577,0.93113c0.5263,0.67678 0.46266,1.06169 0.56514,1.80165c0.10247,0.73999 0.092,2.1493 0.17244,3.52435c0.08045,1.37505 0.80547,3.66391 1.30738,5.64892c0.50191,1.98502 1.42712,2.3423 1.74144,2.99199c0.31434,0.64968 0.34104,1.04797 0.30009,1.74124c-0.04093,0.69325 -0.2586,0.96249 -0.495,1.55999c-0.23641,0.59749 -0.27899,1.23182 -0.82045,1.76464c-0.54143,0.53281 -1.18311,1.30113 -2.055,1.065z" data-paper-data="{&quot;origPos&quot;:null}" fill="#ffffff" stroke="#000000" stroke-width="0"/><path d="M214.3189,178.68481c-0.57276,-0.06846 -1.02658,-2.05155 -1.41188,-3.1206c-0.38531,-1.06907 -0.06198,-2.59059 -0.21451,-3.71625" data-paper-data="{&quot;origPos&quot;:null}" fill="none" stroke="#e5e5e5" stroke-width="1"/><path d="M217.72529,178.20666c-0.57276,-0.06848 -1.02658,-2.05155 -1.41188,-3.1206c-0.38531,-1.06907 -0.062,-2.59057 -0.21451,-3.71625" data-paper-data="{&quot;origPos&quot;:null}" fill="none" stroke="#e6e6e6" stroke-width="1"/><path d="M221.151,177.92594c-0.57276,-0.06848 -1.02658,-2.05155 -1.41188,-3.1206c-0.38531,-1.06907 -0.06198,-2.59059 -0.21451,-3.71625" data-paper-data="{&quot;origPos&quot;:null}" fill="none" stroke="#e4e4e4" stroke-width="1"/></g><g><path d="M236.76357,180.54756c0.91553,1.80109 -1.98301,5.73957 -1.98301,5.73957l-1.79897,6.21732l1.42525,0.7987l0.87419,1.69723l-0.02982,3.07297l-1.10763,3.7239l-1.1273,0.75626l-1.52431,-0.58802l-1.70984,0.35378l-2.41656,-0.87886l-1.82147,0.04403l-1.43781,-1.31909l-0.46544,-2.01954l2.22862,-4.74034l1.43072,-1.1281l1.76497,-5.18402l2.77411,-4.75362c0,0 4.00869,-3.5932 4.92422,-1.79212z" data-paper-data="{&quot;origPos&quot;:null}" fill="#fcdc48" stroke="#000000" stroke-width="0" stroke-linecap="round"/><path d="M227.63677,201.34141c-0.73444,0.03776 -0.80242,-0.67518 -0.80242,-0.67518l0.07825,-0.12866c-0.2608,-0.66947 -0.3021,-1.16168 -0.25824,-1.85059c0,0 0.04523,-0.71031 0.78144,-0.63855c0.73622,0.07179 0.69099,0.78211 0.69099,0.78211c-0.03628,0.56974 -0.02769,0.7586 0.16369,1.24985l0.0128,0.5103c0,0 0.06796,0.71295 -0.6665,0.75071z" data-paper-data="{&quot;origPos&quot;:null}" fill="#d2a31f" stroke="none" stroke-width="0.5" stroke-linecap="butt"/><path d="M231.23476,201.62253c-0.72885,0.02583 -0.8068,-0.66591 -0.8068,-0.66591l0.07582,-0.12347c-0.26881,-0.65243 -0.31703,-1.12989 -0.28359,-1.79665c0,0 0.03447,-0.6875 0.76666,-0.60718c0.73218,0.08033 0.69768,0.76783 0.69768,0.76783c-0.02768,0.55144 -0.01636,0.73452 0.1809,1.21327l0.0202,0.49459c0,0 0.07796,0.6917 -0.6509,0.7175z" data-paper-data="{&quot;origPos&quot;:null}" fill="#d2a31f" stroke="none" stroke-width="0.5" stroke-linecap="butt"/></g></g></g></svg>