<svg version="1.1" xmlns="http://www.w3.org/2000/svg" xmlns:xlink="http://www.w3.org/1999/xlink" width="49.25" height="49.25" viewBox="0,0,49.25,49.25"><g transform="translate(-215.375,-155.375)"><g data-paper-data="{&quot;isPaintingLayer&quot;:true}" fill-rule="nonzero" stroke-linecap="butt" stroke-linejoin="miter" stroke-miterlimit="10" stroke-dasharray="" stroke-dashoffset="0" style="mix-blend-mode: normal"><path d="M215.375,180c0,-13.60001 11.02499,-24.625 24.625,-24.625c13.60001,0 24.625,11.02499 24.625,24.625c0,13.60001 -11.02499,24.625 -24.625,24.625c-13.60001,0 -24.625,-11.02499 -24.625,-24.625z" fill="#66caff" stroke="none" stroke-width="0"/><path d="M226.56352,193.13668c-1.38567,-1.43868 -1.55506,-4.58316 -1.55506,-4.58316v-17.14685c0,0 0.02071,-3.00107 1.62027,-4.70264c1.52603,-1.62336 5.26265,-1.69894 5.26265,-1.69894h16.66022c0,0 3.12234,0.11309 4.58846,1.48101c1.91348,1.78532 1.85126,4.29756 1.85126,4.29756v18.48923c0,0 -0.07666,2.55665 -1.70316,4.23406c-1.62534,1.67622 -4.51441,1.48101 -4.51441,1.48101h-17.64292c0,0 -2.8185,-0.03555 -4.56731,-1.85126z" fill="#ffdd33" stroke="none" stroke-width="0"/><path d="M227.69128,191.19044c0,-0.71052 0.57599,-1.28652 1.28652,-1.28652c0.71052,0 1.28652,0.57599 1.28652,1.28652c0,0.71052 -0.576,1.28652 -1.28652,1.28652c-0.71052,0 -1.28652,-0.57599 -1.28652,-1.28652z" fill="#a88801" stroke="none" stroke-width="0"/><path d="M250.00101,191.255c0,-0.71052 0.57599,-1.28652 1.28652,-1.28652c0.71052,0 1.28651,0.576 1.28651,1.28652c0,0.71052 -0.57599,1.28652 -1.28651,1.28652c-0.71052,0 -1.28652,-0.57599 -1.28652,-1.28652z" fill="#a88801" stroke="none" stroke-width="0"/><path d="M241.02223,169.37955c5.36034,0.1333 7.61828,2.0681 7.96144,4.67383c0.31972,2.42769 -0.00511,4.43153 -2.44872,5.50946c-2.01828,0.8903 -3.33789,1.10348 -3.8962,2.80436c-0.55832,1.70087 0.33803,2.77715 -2.8667,2.88598c-3.32556,0.11293 -2.89821,-2.43025 -2.51861,-4.38289c0.29525,-1.51874 1.25337,-2.68958 2.95652,-3.34331c1.01861,-0.39097 1.91015,-0.25421 2.67219,-1.11223c0.45032,-0.50703 1.07869,-1.65079 -2.58918,-1.67976c-2.77233,-0.02189 -3.76472,0.714 -3.76472,1.47126c0,1.68135 -1.49927,2.37596 -3.14842,2.37596c-1.51801,0 -2.44331,-0.8876 -2.56981,-2.38977c-0.18975,-2.25312 0.18586,-6.81283 10.2122,-6.81289z" fill="#ffffff" stroke="#a88801" stroke-width="1.5"/><path d="M236.51317,188.18983c0,-1.52233 0.88961,-2.75642 3.18191,-2.75642c2.59801,0 3.18191,1.23409 3.18191,2.75642c0,1.52233 -0.81735,2.72327 -3.18191,2.75642c-2.22095,0.03115 -3.18191,-1.23409 -3.18191,-2.75642z" fill="#ffffff" stroke="#a88801" stroke-width="1.5"/><path d="M227.6094,168.33332c0,-0.69036 0.55964,-1.25 1.25,-1.25c0.69036,0 1.25,0.55964 1.25,1.25c0,0.69036 -0.55964,1.25 -1.25,1.25c-0.69036,0 -1.25,-0.55964 -1.25,-1.25z" fill="#a88801" stroke="none" stroke-width="0.5"/><path d="M250.27606,168.11109c0,-0.69036 0.55964,-1.25 1.25,-1.25c0.69036,0 1.25,0.55964 1.25,1.25c0,0.69036 -0.55964,1.25 -1.25,1.25c-0.69036,0 -1.25,-0.55964 -1.25,-1.25z" fill="#a88801" stroke="none" stroke-width="0.5"/></g></g></svg>