<svg version="1.1" xmlns="http://www.w3.org/2000/svg" xmlns:xlink="http://www.w3.org/1999/xlink" width="479.80123" height="103" viewBox="0,0,479.80123,103"><defs><linearGradient x1="79.91216" y1="257" x2="79.91216" y2="330" gradientUnits="userSpaceOnUse" id="color-1"><stop offset="0" stop-color="#ff9439" stop-opacity="0"/><stop offset="1" stop-color="#ff9439"/></linearGradient><linearGradient x1="79.91216" y1="314" x2="79.91216" y2="360" gradientUnits="userSpaceOnUse" id="color-2"><stop offset="0" stop-color="#ffaa3e"/><stop offset="1" stop-color="#ff6430"/></linearGradient></defs><g transform="translate(-79.91216,-257)"><g data-paper-data="{&quot;isPaintingLayer&quot;:true}" fill-rule="nonzero" stroke-linecap="butt" stroke-linejoin="miter" stroke-miterlimit="10" stroke-dasharray="" stroke-dashoffset="0" style="mix-blend-mode: normal"><path d="M79.91216,257h479.80123v73h-479.80123z" fill="url(#color-1)" stroke="none" stroke-width="1.00312"/><path d="M79.91216,314h479.80123v46h-479.80123z" fill="url(#color-2)" stroke="none" stroke-width="1.00312"/><path d="M202.09914,332.89999c0,2.20914 -3.78043,4 -8.44382,4c-4.66339,0 -8.44382,-1.79086 -8.44382,-4c0,-2.20914 3.78043,-4 8.44382,-4c4.66339,0 8.44382,1.79086 8.44382,4z" fill="#ffbc3b" stroke="#242739" stroke-width="0"/><path d="M312.36543,336.89999c0,2.20914 -1.77902,4 -3.97356,4c-2.19454,0 -3.97356,-1.79086 -3.97356,-4c0,-2.20914 1.77902,-4 3.97356,-4c2.19454,0 3.97356,1.79086 3.97356,4z" data-paper-data="{&quot;origPos&quot;:null}" fill="#ffbc3b" stroke="none" stroke-width="0"/><path d="M344.15391,329.39999c0,1.38071 -1.33427,2.5 -2.98017,2.5c-1.6459,0 -2.98017,-1.11929 -2.98017,-2.5c0,-1.38071 1.33427,-2.5 2.98017,-2.5c1.6459,0 2.98017,1.11929 2.98017,2.5z" fill="#ffbc3b" stroke="none" stroke-width="0"/><path d="M407.56531,321.39999c0,1.38071 -3.52098,2.5 -7.86434,2.5c-4.34335,0 -7.86434,-1.11929 -7.86434,-2.5c0,-1.38071 3.52098,-2.5 7.86434,-2.5c4.34335,0 7.86434,1.11929 7.86434,2.5z" data-paper-data="{&quot;origPos&quot;:null}" fill="#ffbc3b" stroke="none" stroke-width="0"/><path d="M456.40699,329.89999c0,1.65685 -1.11189,3 -2.48348,3c-1.37158,0 -2.48348,-1.34315 -2.48348,-3c0,-1.65685 1.11189,-3 2.48348,-3c1.37158,0 2.48348,1.34315 2.48348,3z" fill="#ffbc3b" stroke="none" stroke-width="0"/><path d="M505.0831,326.89999c0,1.65685 -2.0014,3 -4.47026,3c-2.46885,0 -4.47026,-1.34315 -4.47026,-3c0,-1.65685 2.0014,-3 4.47026,-3c2.46885,0 4.47026,1.34315 4.47026,3z" fill="#ffbc3b" stroke="none" stroke-width="0"/><path d="M146.4693,327.89999c0,1.65685 -2.44615,3 -5.46365,3c-3.01749,0 -5.46365,-1.34315 -5.46365,-3c0,-1.65685 2.44615,-3 5.46365,-3c3.01749,0 5.46365,1.34315 5.46365,3z" fill="#ffbc3b" stroke="none" stroke-width="0"/><path d="M250.77525,324.39999c-6.10356,0 -11.05146,-0.89543 -11.05146,-2c0,-1.10457 4.94791,-2 11.05146,-2c6.10356,0 11.05146,0.89543 11.05146,2c0,1.10457 -4.94791,2 -11.05146,2z" data-paper-data="{&quot;origPos&quot;:null}" fill="#ffbc3b" stroke="none" stroke-width="0"/><path d="M108.72047,341.39999c0,0.82843 -2.44615,1.5 -5.46365,1.5c-3.01749,0 -5.46365,-0.67157 -5.46365,-1.5c0,-0.82843 2.44615,-1.5 5.46365,-1.5c3.01749,0 5.46365,0.67157 5.46365,1.5z" fill="#ffbc3b" stroke="none" stroke-width="0"/><path d="M377.26691,344.89999c0,1.38071 -1.81609,2.5 -4.05635,2.5c-2.24025,0 -4.05634,-1.11929 -4.05634,-2.5c0,-1.38071 1.81609,-2.5 4.05634,-2.5c2.24025,0 4.05635,1.11929 4.05635,2.5z" data-paper-data="{&quot;origPos&quot;:null}" fill="#ffbc3b" stroke="none" stroke-width="0"/><path d="M538.00689,340.86306c0,1.743 -2.29261,3.15598 -5.12069,3.15598c-2.82808,0 -5.12069,-1.41298 -5.12069,-3.15598c0,-1.743 2.29261,-3.15598 5.12069,-3.15598c2.82808,0 5.12069,1.41298 5.12069,3.15598z" data-paper-data="{&quot;origPos&quot;:null}" fill="#ffbc3b" stroke="none" stroke-width="0"/></g></g></svg>