<svg version="1.1" xmlns="http://www.w3.org/2000/svg" xmlns:xlink="http://www.w3.org/1999/xlink" width="30.775" height="30.775" viewBox="0,0,30.775,30.775"><defs><radialGradient cx="240.32511" cy="179.62306" r="19.19378" gradientUnits="userSpaceOnUse" id="color-1"><stop offset="0" stop-color="#ffc79a"/><stop offset="1" stop-color="#ffc79a" stop-opacity="0"/></radialGradient></defs><g transform="translate(-224.6125,-164.6125)"><g data-paper-data="{&quot;isPaintingLayer&quot;:true}" fill-rule="nonzero" stroke-linejoin="miter" stroke-miterlimit="10" stroke-dasharray="" stroke-dashoffset="0" style="mix-blend-mode: normal"><path d="M240,165.6125c3.96924,0 7.56587,1.612 10.17118,4.21632c2.60431,2.60532 4.21632,6.20194 4.21632,10.17118c0,3.96924 -1.612,7.56587 -4.21632,10.17118c-2.60532,2.60431 -6.20194,4.21632 -10.17118,4.21632c-3.96924,0 -7.56587,-1.612 -10.17118,-4.21632c-2.60431,-2.60532 -4.21632,-6.20194 -4.21632,-10.17118c0,-3.96924 1.612,-7.56587 4.21632,-10.17118c2.60532,-2.60431 6.20194,-4.21632 10.17118,-4.21632z" data-paper-data="{&quot;origPos&quot;:null}" fill="url(#color-1)" stroke="#da5757" stroke-width="2" stroke-linecap="butt"/><g><path d="M238.97492,179.10509h2.03764v10.89457h-2.03764z" fill="#61b120" stroke="none" stroke-width="0.97987" stroke-linecap="butt"/><g data-paper-data="{&quot;index&quot;:null}"><path d="M239.91434,189.9747c0,0 1.625,-3.6999 4.35892,-4.95294c2.73392,-1.25305 5.54146,0.41526 5.54146,0.41526c0,0 -1.94401,3.52664 -4.67793,4.77969c-2.73392,1.25305 -5.22245,-0.24201 -5.22245,-0.24201z" fill="#61b120" stroke="none" stroke-width="0" stroke-linecap="butt"/><path d="M241.5283,189.11531c0,0 1.43782,-1.75381 3.50153,-2.59537c1.80291,-0.73522 3.10552,-0.67185 3.10552,-0.67185" fill="none" stroke="#448618" stroke-width="0.7" stroke-linecap="round"/></g><g stroke="none" stroke-width="0" stroke-linecap="butt"><path d="M249.96502,175.96255c0,3.72917 -3.15989,6.7276 -9.96502,6.75226c-6.55904,0.02376 -9.96502,-3.02309 -9.96502,-6.75226c0,-3.72917 3.84146,-6.74217 9.96502,-6.75226c6.86831,-0.01131 9.96502,3.02309 9.96502,6.75226z" fill="#ff401c"/><path d="M248.03389,176.07144c0,2.98734 -2.69397,5.2366 -8.0339,5.28501c-5.09103,0.04616 -8.0339,-2.29767 -8.0339,-5.28501c0,-2.98734 3.00408,-5.3359 8.0339,-5.34704c5.52539,-0.01224 8.0339,2.3597 8.0339,5.34704z" fill="#ffc51c"/><path d="M246.12457,175.99884c0,2.06508 -1.90105,3.6819 -6.12457,3.67713c-4.0366,-0.00456 -6.12457,-1.61205 -6.12457,-3.67713c0,-2.06508 1.77744,-3.67713 6.12457,-3.67713c4.28511,0 6.12457,1.61205 6.12457,3.67713z" fill="#ffffff"/></g><g stroke="none" stroke-width="0" stroke-linecap="butt"><path d="M241.98132,173.91284c0.64365,0 0.8553,0.64292 0.8553,2.153c0,1.45657 -0.26874,2.153 -0.8553,2.153c-0.58656,0 -0.8553,-0.74993 -0.8553,-2.153c0,-1.51008 0.21165,-2.153 0.8553,-2.153z" fill="#000000"/><path d="M241.58137,174.91169c0,-0.49434 0.1686,-0.60016 0.37658,-0.60016c0.20798,0 0.38668,0.1151 0.37657,0.60934c-0.00918,0.44845 -0.06811,0.63461 -0.37657,0.63461c-0.32682,0 -0.37658,-0.22287 -0.37658,-0.64378z" fill="#ffffff"/></g><g stroke="none" stroke-width="0" stroke-linecap="butt"><path d="M238.01868,173.92406c0.64365,0 0.85529,0.64292 0.85529,2.153c0,1.45657 -0.26873,2.153 -0.85529,2.153c-0.58656,0 -0.8553,-0.74993 -0.8553,-2.153c0,-1.51008 0.21165,-2.153 0.8553,-2.153z" fill="#000000"/><path d="M237.68311,174.9229c0,-0.49433 0.1686,-0.60016 0.37658,-0.60016c0.20798,0 0.38668,0.1151 0.37657,0.60934c-0.00918,0.44845 -0.06811,0.63461 -0.37657,0.63461c-0.32682,0 -0.37658,-0.22287 -0.37658,-0.64378z" fill="#ffffff"/></g><g><path d="M240.08566,190.04732c0,0 -2.48854,1.49505 -5.22245,0.24201c-2.73392,-1.25305 -4.67793,-4.77969 -4.67793,-4.77969c0,0 2.80755,-1.66831 5.54146,-0.41526c2.73392,1.25305 4.35892,4.95294 4.35892,4.95294z" fill="#61b120" stroke="none" stroke-width="0" stroke-linecap="butt"/><path d="M231.86466,185.92069c0,0 1.3026,-0.06337 3.10552,0.67184c2.06371,0.84157 3.50153,2.59538 3.50153,2.59538" fill="none" stroke="#448618" stroke-width="0.7" stroke-linecap="round"/></g></g></g></g></svg>