<svg version="1.1" xmlns="http://www.w3.org/2000/svg" xmlns:xlink="http://www.w3.org/1999/xlink" width="139.32772" height="191.20512" viewBox="0,0,139.32772,191.20512"><defs><linearGradient x1="269.94278" y1="235.81817" x2="249.26922" y2="239.67633" gradientUnits="userSpaceOnUse" id="color-1"><stop offset="0" stop-color="#008c4d"/><stop offset="1" stop-color="#006638"/></linearGradient><linearGradient x1="246.73184" y1="168.10033" x2="246.73184" y2="250.77834" gradientUnits="userSpaceOnUse" id="color-2"><stop offset="0" stop-color="#b100c6"/><stop offset="1" stop-color="#9900aa"/></linearGradient><linearGradient x1="247.07897" y1="253.18486" x2="247.85709" y2="274.20093" gradientUnits="userSpaceOnUse" id="color-3"><stop offset="0" stop-color="#008c4d"/><stop offset="1" stop-color="#006638"/></linearGradient><radialGradient cx="283.33333" cy="147.33333" r="20.52041" gradientUnits="userSpaceOnUse" id="color-4"><stop offset="0" stop-color="#fbc5fc"/><stop offset="1" stop-color="#f991fd"/></radialGradient></defs><g transform="translate(-179.88102,-83.16501)"><g data-paper-data="{&quot;isPaintingLayer&quot;:true}" fill="none" fill-rule="nonzero" stroke="none" stroke-width="none" stroke-linecap="none" stroke-linejoin="miter" stroke-miterlimit="10" stroke-dasharray="" stroke-dashoffset="0" font-family="none" font-weight="none" font-size="none" text-anchor="none" style="mix-blend-mode: normal"><g data-paper-data="{&quot;origPos&quot;:null,&quot;origRot&quot;:0}" stroke-width="0" stroke-linecap="round"><path d="M270.65094,239.79626c0.09281,0.49731 -0.12366,2.9818 -0.4277,4.19733c-0.3572,1.42801 -1.30672,3.10624 -1.57204,3.79811c-0.08844,0.23063 -2.25468,2.15973 -2.00271,3.26326c0.25196,1.10353 2.84606,4.32356 4.08904,7.37501c1.24298,3.05146 2.22412,3.44084 0.91729,4.91514c-1.30684,1.47432 -3.58548,1.20375 -5.95932,0.77306c-2.37385,-0.43069 -5.95277,-1.08179 -8.7815,-3.4475c-2.82873,-2.36571 -3.55879,-4.27003 -4.47788,-7.64154c-0.91909,-3.3715 -4.50004,-16.81607 -5.1979,-27.85245c-0.69786,-11.03638 1.52146,-11.10178 2.81152,-12.18933c0.38884,-0.3278 2.40465,-2.45594 3.24976,-2.57318c2.07896,-0.28844 9.12972,-0.47139 11.33299,3.31043c2.20327,3.78182 3.98768,15.18988 6.01847,26.0717z" data-paper-data="{&quot;origPos&quot;:null}" fill="url(#color-1)" stroke="#000000"/><path d="M267.99138,212.82642c2.71092,-2.2746 1.01722,-1.61728 8.03037,-4.21134c7.01316,-2.59406 10.83183,-3.64729 14.17313,-4.00139c3.6956,-0.39163 9.38813,25.88474 7.75356,32.46184c-1.63458,6.5771 -14.02973,3.80092 -16.85571,4.16292c-2.03339,0.26047 -5.11052,0.0143 -7.2481,-0.68187c-2.13759,-0.69617 -2.10117,-0.19216 -4.66593,-3.19829c-2.56476,-3.00613 -4.34448,-4.44712 -5.31669,-8.50226c-0.9722,-4.05515 0.09628,-8.20382 0.72571,-10.64717c0.62943,-2.44335 0.69274,-3.10783 3.40366,-5.38243z" data-paper-data="{&quot;origPos&quot;:null}" fill="#9900aa" stroke="#b100c6"/></g><g data-paper-data="{&quot;origPos&quot;:null,&quot;origRot&quot;:0}" stroke-width="0" stroke-linecap="butt"><g data-paper-data="{&quot;origPos&quot;:null}" stroke="none"><path d="M271.83092,216.21434c-10.21546,-2.39917 -16.46866,-1.3088 -15.17438,-6.81978c1.29428,-5.51098 0.66169,-19.58059 4.87835,-19.17947c3.52712,0.33552 29.16489,5.31077 31.66512,7.82119c1.94495,1.95289 -1.34062,7.50943 -4.04717,19.03373c-1.29428,5.51098 -7.10647,1.54348 -17.32194,-0.85567z" data-paper-data="{&quot;origRot&quot;:0,&quot;origPos&quot;:null}" fill="#ffdebd"/><path d="M274.88588,196.72286c-10.21547,-2.39915 -15.96582,-2.30737 -14.67154,-7.81834c1.29428,-5.51098 5.1377,-11.06795 9.35437,-10.66683c3.02995,-0.66588 9.69033,-3.74416 12.19055,-1.23373c6.94351,2.46698 14.14383,13.0531 11.43727,24.57741c-1.29005,4.01098 -8.09518,-2.45933 -18.31064,-4.85849z" data-paper-data="{&quot;origRot&quot;:0,&quot;origPos&quot;:null}" fill="#fff70c"/></g><g data-paper-data="{&quot;origPos&quot;:null}"><path d="M292.92034,208.92977c-3.50471,8.21254 -2.84076,13.67937 -10.23955,18.67801c-4.03215,2.72415 -14.64299,-1.22583 -19.11862,-3.1358c-8.00043,-3.4142 -8.20382,-9.3945 -4.1393,-18.91882c4.06452,-9.52432 13.84508,-14.47756 21.84551,-11.06338c8.00043,3.4142 15.71648,4.91566 11.65197,14.43999z" data-paper-data="{&quot;origPos&quot;:null,&quot;origRot&quot;:0}" fill="#ffdebd" stroke="#ffdebd"/><g data-paper-data="{&quot;origPos&quot;:null,&quot;origRot&quot;:0}" fill="#ffffff" stroke="none"><path d="M309.57419,204.06851c14.19683,4.78481 9.46907,16.65236 6.00806,30.0222c-3.17166,12.2521 -14.80269,10.92238 -23.64215,6.98166c-12.18459,-5.43202 -7.12297,-14.16402 -1.30306,-25.40243c5.81991,-11.23842 5.68111,-16.06919 18.93716,-11.60145z" data-paper-data="{&quot;origRot&quot;:0,&quot;origPos&quot;:null}"/><path d="M295.39241,197.96388c8.33012,3.97817 4.13574,5.03383 -3.80835,21.40354c-6.97348,14.36966 -7.69493,16.85897 -15.45325,13.60691c-6.93516,-2.90702 -0.1281,-11.93923 4.35379,-20.62185c4.48188,-8.68262 10.04361,-16.71158 14.90781,-14.3886z" data-paper-data="{&quot;origRot&quot;:0,&quot;origPos&quot;:null}"/></g></g></g><g data-paper-data="{&quot;origPos&quot;:null}"><path d="M229.67785,169.82957c15.39885,0 40.51731,-5.44824 52.39438,2.9966c15.94172,11.33491 16.91377,36.01156 16.91377,53.82034c0,16.41613 -22.9587,24.13183 -51.43391,24.13183c-28.47521,0 -53.79308,-8.23538 -53.05883,-42.43989c1.21973,-12.52806 6.70937,-38.50888 35.18458,-38.50888z" data-paper-data="{&quot;origPos&quot;:null,&quot;index&quot;:null}" fill="url(#color-2)" stroke="none" stroke-width="0" stroke-linecap="butt"/><path d="M235.17785,164.32957c15.39885,0 36.01731,-2.94824 47.89438,5.4966c8.04003,5.71663 15.97706,29.68937 15.97706,29.68937c0,0 -36.93426,-2.75059 -46.06329,1.13097c-4.09315,1.74035 -16.45869,7.13183 -21.9339,8.63183c-2.86947,0.78612 -34.29308,0.76462 -31.55883,-18.43989c1.21973,-12.52806 7.20937,-26.50888 35.68458,-26.50888z" data-paper-data="{&quot;origPos&quot;:null,&quot;index&quot;:null}" fill="#fff70c" stroke="none" stroke-width="0" stroke-linecap="butt"/><path d="M239.24093,205.29651l-1.5,-35.5" data-paper-data="{&quot;origPos&quot;:null}" fill="none" stroke="#b100c6" stroke-width="17" stroke-linecap="round"/><path d="M246.24093,205.29651c0,3.86599 -3.13401,7 -7,7c-3.86599,0 -7,-3.13401 -7,-7c0,-3.86599 3.13401,-7 7,-7c3.86599,0 7,3.13401 7,7z" data-paper-data="{&quot;origPos&quot;:null}" fill="#f3f3f3" stroke="none" stroke-width="0" stroke-linecap="butt"/><path d="M275.21756,167.54925l7.83813,11.27226l9.70859,23.72221" data-paper-data="{&quot;origPos&quot;:null,&quot;origRot&quot;:0}" fill="none" stroke="#b100c6" stroke-width="14" stroke-linecap="round"/><path d="M301.24091,200.29651c0,3.86599 -3.13401,7 -7,7c-3.86599,0 -7,-3.13401 -7,-7c0,-3.86599 3.13401,-7 7,-7c3.86599,0 7,3.13401 7,7z" data-paper-data="{&quot;origPos&quot;:null}" fill="#f3f3f3" stroke="none" stroke-width="0" stroke-linecap="butt"/></g><g data-paper-data="{&quot;origPos&quot;:null,&quot;origRot&quot;:0}" stroke-width="0" stroke-linecap="round"><path d="M251.11795,253.06898c0.50557,-0.01871 2.93125,0.56054 4.0889,1.03991c1.36001,0.56318 2.88047,1.74899 3.52585,2.11312c0.21512,0.12138 1.80495,2.5476 2.93352,2.46053c1.12857,-0.08706 4.69486,-2.17978 7.89585,-2.96084c3.20099,-0.78106 3.73031,-1.6943 4.99658,-0.18499c1.26626,1.50931 0.66376,3.72343 -0.11111,6.00822c-0.77488,2.28479 -1.94484,5.72916 -4.70057,8.17952c-2.75574,2.45036 -4.74667,2.89265 -8.21663,3.30628c-3.46997,0.41363 -17.29481,1.97993 -28.31393,1.04831c-11.01911,-0.93162 -10.75766,-3.13642 -11.64382,-4.57232c-0.2671,-0.43279 -2.07589,-2.73945 -2.06768,-3.59262c0.02021,-2.09877 0.87542,-9.09987 4.93995,-10.72345c4.06455,-1.62358 15.611,-1.7121 26.6731,-2.12168z" data-paper-data="{&quot;origPos&quot;:null}" fill="url(#color-3)" stroke="#000000"/><path d="M224.05011,251.73624c-1.85152,-3.01575 -1.45025,-1.24384 -2.9855,-8.56207c-1.53525,-7.31823 -2.01587,-11.25024 -1.87508,-14.6073c0.15571,-3.71303 26.98335,-5.48222 33.24884,-2.89884c6.26548,2.58338 1.69788,14.43598 1.64065,17.28446c-0.04118,2.04959 -0.73689,5.05714 -1.73964,7.06921c-1.00275,2.01207 -0.49884,2.05013 -3.84925,4.14526c-3.3504,2.09513 -5.03728,3.64378 -9.19127,4.00949c-4.15399,0.36571 -8.1006,-1.30085 -10.42493,-2.28252c-2.32432,-0.98166 -2.97228,-1.14194 -4.8238,-4.15769z" data-paper-data="{&quot;origPos&quot;:null}" fill="#9900aa" stroke="#b100c6"/></g><g data-paper-data="{&quot;origPos&quot;:null,&quot;origRot&quot;:0}" stroke-linecap="butt"><g data-paper-data="{&quot;origPos&quot;:null}" stroke="none" stroke-width="0"><path d="M205.1124,209.87361c-4.66963,3.2001 -6.29112,-3.64777 -12.22302,-12.30364c-5.93191,-8.65588 -11.28721,-12.06352 -6.61759,-15.26363c4.66962,-3.20011 13.68216,-14.02272 16.52768,-10.88516c2.38021,2.62447 17.97224,23.57528 18.12821,27.11491c0.12132,2.75352 -6.05039,4.64559 -15.81529,11.33751z" data-paper-data="{&quot;origRot&quot;:0,&quot;origPos&quot;:null}" fill="#ffdebd"/><path d="M218.53647,201.15327c-3.65582,2.09457 -4.32466,-7.27171 -10.25656,-15.92758c-5.93191,-8.65588 -10.24282,-12.46261 -5.5732,-15.66272c4.66962,-3.20011 11.25384,-4.71662 14.09937,-1.57906c2.68756,1.54952 9.68318,3.76262 9.83914,7.30224c3.46849,6.50138 1.65614,19.1752 -8.10874,25.86712z" data-paper-data="{&quot;origRot&quot;:0,&quot;origPos&quot;:null}" fill="#fff70c"/></g><g data-paper-data="{&quot;origPos&quot;:null}"><path d="M213.38109,206.39709c-8.12324,3.70699 -11.31613,8.19393 -20.15132,6.90231c-4.81493,-0.70389 -9.99409,-10.77211 -12.0143,-15.19905c-3.61125,-7.91344 0.26793,-12.46946 9.68869,-16.76857c9.42076,-4.29909 19.98529,-1.36912 23.59655,6.54433c3.61126,7.91344 8.30112,14.2219 -1.11963,18.521z" data-paper-data="{&quot;origPos&quot;:null,&quot;origRot&quot;:0}" fill="#ffdebd" stroke="#ffdebd" stroke-width="0"/><g data-paper-data="{&quot;origPos&quot;:null,&quot;origRot&quot;:0}" fill="#ffffff" stroke="none" stroke-width="0"><path d="M228.96247,214.02622c7.2664,13.10128 -4.22331,18.68498 -15.7892,26.23226c-10.59895,6.91633 -18.29744,-1.90312 -22.17389,-10.77096c-5.34341,-12.2237 4.28027,-15.26549 16.15307,-19.64841c11.87279,-4.38291 15.02515,-8.04601 21.81002,4.18711z" data-paper-data="{&quot;origRot&quot;:0,&quot;origPos&quot;:null}"/><path d="M222.59647,199.95981c3.47487,8.55232 -0.33575,6.50624 -17.23557,13.24953c-14.835,5.91939 -17.04538,7.27269 -20.58697,-0.3578c-3.16583,-6.82089 7.94988,-8.90848 17.11192,-12.30441c9.16202,-3.39593 18.68156,-5.58127 20.71061,-0.58732z" data-paper-data="{&quot;origRot&quot;:0,&quot;origPos&quot;:null}"/></g><path d="M193.49646,222.56472c-0.62834,-1.89873 1.2704,-2.52707 1.2704,-2.52707l3.08561,1.43851c1.28979,1.18277 2.57958,2.36555 3.86935,3.54832c1.28979,1.18277 2.57958,2.36554 3.86935,3.54832c0.27651,0.25357 0.34049,0.72739 0.67212,0.90284c0.05103,0.02699 0.11347,0.04417 0.18234,0.0553c0.05375,-0.4588 0.03437,-0.92917 -0.02507,-1.41868c-0.29856,-2.45867 -0.60163,-4.04951 0.64626,-6.32712c1.87095,-3.41483 4.66125,-1.15274 6.38858,0.43127c0.61989,0.61608 1.94007,2.9788 2.54525,3.29896c0.17032,0.0901 0.46176,0.07007 0.69844,0.08095c0.40019,-1.00066 0.99132,-2.56448 1.11618,-3.5686c0.17133,-1.37789 -0.07513,-2.89393 -0.38372,-4.3792l-0.14647,0.02272l-0.48797,-3.14545c-0.04023,-0.24541 -0.03472,-0.49726 0.01712,-0.74171c0.10235,-0.59184 0.46234,-1.36142 1.61597,-1.55406c0.01994,-0.00343 0.0399,-0.00656 0.05991,-0.00938c1.15933,-0.16933 1.73755,0.45217 2.01604,0.98526c0.09862,0.17192 0.16984,0.35575 0.21336,0.54493l0.42313,1.72427l-0.13953,0.03424c0.61738,3.88495 1.08689,7.36501 -0.49622,11.28157c-0.91176,2.25565 -2.94913,4.02599 -5.6059,2.57038c-1.95176,-1.06936 -2.50245,-3.00451 -4.14909,-4.19676c-0.24568,-0.22529 -0.49134,-0.45057 -0.73702,-0.67586c-0.2117,0.40017 -0.15458,0.89541 -0.16581,1.348c-0.03015,1.21545 1.76563,5.71121 -0.06276,6.72652c-4.76783,2.64757 -7.59228,-1.67833 -10.76799,-4.59056c-1.28979,-1.18277 -2.57958,-2.36554 -3.86936,-3.54832c0,0 -1.02417,0.03922 -1.65251,-1.85951z" data-paper-data="{&quot;origPos&quot;:null}" fill="#0052ef" stroke="none" stroke-width="0.5"/></g></g><g data-paper-data="{&quot;origPos&quot;:null}"><path d="M272.55909,139.29737l-2.33333,5.33334l7.66667,27.66666l-42.33334,4.33334l-3.66666,-1.33334l-2.66666,-4.66666l-7.33334,-27.33334l33,-4z" data-paper-data="{&quot;origPos&quot;:null}" fill="#a10114" stroke="#a10114" stroke-width="0.5" stroke-linecap="round"/><path d="M225.9474,162.77772c-1.17041,-4.92546 4.12419,-10.40192 11.82582,-12.23201c7.70162,-1.83009 14.89384,0.67921 16.06424,5.60467c1.17041,4.92546 -4.12419,10.40192 -11.82582,12.23201c-7.70163,1.83009 -14.89385,-0.67921 -16.06425,-5.60467z" data-paper-data="{&quot;origPos&quot;:null,&quot;origRot&quot;:0}" fill="#f4c4f6" stroke="none" stroke-width="0" stroke-linecap="butt"/><g data-paper-data="{&quot;origPos&quot;:null}" stroke-linecap="round"><path d="M237.89242,174.96404l-4.66666,-10.33333l40,-5l6.66667,-0.33334l3,2.33334l1.33333,3l1,7.33333z" data-paper-data="{&quot;origPos&quot;:null}" fill="#ffffff" stroke="#000000" stroke-width="0"/><path d="M272.55909,160.29737l4.66667,10" data-paper-data="{&quot;origPos&quot;:null}" fill="none" stroke="#a5b5ff" stroke-width="1.5"/><path d="M263.96606,171.3469l-2.81397,-9.43241" data-paper-data="{&quot;origPos&quot;:null,&quot;origRot&quot;:0}" fill="none" stroke="#a5b5ff" stroke-width="1.5"/><path d="M248.96608,173.01357l-2.81397,-9.43242" data-paper-data="{&quot;origPos&quot;:null,&quot;origRot&quot;:0}" fill="none" stroke="#a5b5ff" stroke-width="1.5"/></g><g data-paper-data="{&quot;origPos&quot;:null}"><path d="M222.37301,139.72779c3.44949,0.6899 4.11556,5.38849 4.17233,5.67233c0.32137,1.60688 11.12385,24.14025 11.88456,25.4081c-2.99229,-1.44186 1.25964,1.27756 1.46254,1.32248c1.48977,0.32987 3.46888,0 5,0c5.88154,0 27.35455,-2.09488 29.64305,-2.64239c1.84283,-0.44089 8.47629,-0.81784 9.85696,-0.35761c5.12234,1.70745 4.47231,11.13352 3.6529,15.23058c-1.71763,1.75647 -3.25597,3.7083 -5.1529,5.26942c-0.64345,0.52955 -1.66667,0 -2.5,0c-2.70957,0 -5.00864,-0.20036 -7.57248,-1.21254c-0.65738,-0.25953 -1.15274,-0.82821 -1.78447,-1.14509c-0.18943,-0.09501 -0.55595,-0.14816 -0.85359,-0.20784c-0.9961,0.53477 -1.92051,1.20274 -2.9325,1.70784c-3.55238,1.77304 -21.65861,1.1468 -24.17895,0.53959c-7.12069,-1.71554 -13.07322,-6.37559 -17.42801,-12.18197c-4.90173,-6.74464 -6.71181,-14.16556 -8.55762,-22.12639c-0.65691,-2.83323 -0.59529,-11.35418 -0.59529,-11.35418c0,0 0.98058,-4.90291 5.88349,-3.92233z" data-paper-data="{&quot;origPos&quot;:null}" fill="#ffdebd" stroke="none" stroke-width="0.5" stroke-linecap="butt"/><path d="M271.89243,175.63071l1.66667,3.66666v2.66666v3l-2,2" data-paper-data="{&quot;origPos&quot;:null}" fill="none" stroke="#f6b09a" stroke-width="1.5" stroke-linecap="round"/></g></g><g data-paper-data="{&quot;origPos&quot;:null}"><path d="M295.8478,121.85391c-0.62813,3.79329 -13.15027,8.6 -23.00472,8.6c-7.94072,0 -5.97237,-6.75492 -5.97237,-10.4c0,-3.64508 15.56169,-2.85 23.50241,-2.85c7.94072,0 5.88126,2.19464 5.47468,4.65z" data-paper-data="{&quot;origPos&quot;:null}" fill="#b49416" stroke="none" stroke-width="0" stroke-linecap="butt"/><path d="M294.33333,119.33333l-1,4l-4.66667,3.33333l-11.33333,5.33334" data-paper-data="{&quot;origPos&quot;:null}" fill="none" stroke="#a5b5ff" stroke-width="4.5" stroke-linecap="round"/><path d="M208.96507,147.97212c2.84617,0.02051 4.30892,0.91673 6.62718,2.36565c4.2679,2.96956 8.49595,8.92257 7.5327,14.3374c-0.83154,4.67445 -7.32065,4.79843 -9.98889,1.68549c-0.03911,-0.06429 -0.41853,-2.25462 -0.52131,-2.43888c-1.03458,-1.85479 -4.32256,-1.62063 -5.85833,-3.62037c-1.4033,-1.82728 -0.44167,-7.3604 -0.44167,-9.57963c0,0 1.513,-3.00639 2.65032,-2.74964z" data-paper-data="{&quot;origPos&quot;:null}" fill="#8e4108" stroke="none" stroke-width="0.5" stroke-linecap="butt"/><path d="M221.41403,170.56751c0,0 -4.93662,-6.19855 -6.77345,-8.95379c-1.31741,-2.02672 -1.9145,-4.06694 -2.82683,-6.23492c-0.39392,-0.9361 -1.97438,-2.62329 -1.98933,-3.60571c-0.00376,-0.24674 -1.0817,-0.68223 -1.96398,-0.99097c-1.74453,-0.61048 -3.56382,-1.32355 -5.23299,-2.11453c-3.10064,-1.4693 -5.7193,-4.02549 -7.80575,-6.70806c-3.28551,-4.24205 -6.35949,-8.91018 -7.50152,-14.16106c-0.92605,-4.25785 0.18828,-7.58788 0.18828,-7.58788c0,0 12.88558,1.06561 13.3213,1.14831c2.05003,0.38909 8.50036,0.37565 12.82928,1.56112c2.10123,0.57542 3.98038,0.99151 5.67273,2.2931c0.64064,0.49271 1.88683,2.39597 2.19186,2.39016c2.70041,-0.05145 6.61193,-2.4474 9.10771,-3.44571c6.76039,-2.70416 41.91996,-6.00736 46.89214,-2.36908c0.71443,0.52277 0.87538,1.53933 1.28772,2.3227c1.50942,2.86766 6.86783,23.77318 7.4328,27.76682c0.29918,2.11479 -1.2611,4.35411 -2.47003,5.75161c-0.54733,0.6327 -6.93655,1.00233 -9.15664,1.00233c-10.69243,0 -21.34714,-0.11066 -32.0221,0.57805c-2.66168,0.16651 -6.17893,0.6634 -8.81707,0.16448c-0.34053,-0.0644 -1.48419,1.14666 -1.23755,1.48506c1.19458,1.63903 3.25747,9.90041 3.25747,9.90041z" data-paper-data="{&quot;origPos&quot;:null}" fill="#ffdebd" stroke="none" stroke-width="0.5" stroke-linecap="butt"/><path d="M258.56475,137.95023c0,0 -0.9935,-0.51493 -7.4,-0.51493c-6.40651,0 -11.68936,4.29531 -15.6,2.57466c-3.4,-1.49597 -4.60651,-13.07925 -2.6,-13.07925c4.64315,0 24.03794,-0.30883 24.03794,-0.30883l1.56206,11.32836z" data-paper-data="{&quot;origPos&quot;:null}" fill="#ffffff" stroke="#f6b09a" stroke-width="0" stroke-linecap="butt"/><path d="M263.99136,130.82176c0,0 1.7916,-4.46328 4.36206,-5.79988c2.67666,-1.39181 7.03794,-2.10012 7.03794,-2.10012c0,0 6.2,7.44741 2.8,8.9c-3.91064,1.67076 0.4065,1.5 -6,1.5c-6.4065,0 -8.2,-2.5 -8.2,-2.5z" data-paper-data="{&quot;index&quot;:null,&quot;origPos&quot;:null}" fill="#ffffff" stroke="#f6b09a" stroke-width="0" stroke-linecap="butt"/><path d="M234.37537,141.4229c-1.70114,0.41062 -2.11176,-1.29052 -2.11176,-1.29052l-0.58286,-0.68312c-2.35983,-3.77572 -2.266,-7.01579 -2.266,-11.3275c0,0 0,-1.75 1.75,-1.75c1.75,0 1.75,1.75 1.75,1.75c0,3.6974 -0.23865,6.31627 1.734,9.47251l1.01714,1.71687c0,0 0.41063,1.70114 -1.29052,2.11176z" data-paper-data="{&quot;origPos&quot;:null}" fill="#18c6ff" stroke="none" stroke-width="0.5" stroke-linecap="butt"/><path d="M219.43193,127.7154l-0.00648,-0.00039c-0.5388,-4.84921 2.7096,-5.35609 6.53929,-5.14325c1.25,0.06947 2.79474,-0.1181 3.63889,1.0213c2.31535,3.1252 0.31112,5.29268 0.31112,8.62869c-0.20415,3.88036 -1.44846,11.21088 -7.0102,8.0534c-0.00173,-0.00098 -0.77381,-2.32479 -0.78444,-2.35535c-1.09205,-3.13976 -2.08041,-6.20301 -2.67714,-9.485c0,0 -0.03988,-0.21932 -0.01289,-0.51565l-0.01534,0.00261c0,0 0,-0.08024 0.01718,-0.20636z" data-paper-data="{&quot;origPos&quot;:null}" fill="#8e4108" stroke="none" stroke-width="0.5" stroke-linecap="butt"/><path d="M280.52698,132.49278c-1.57528,0.77783 -2.33751,-0.82969 -2.33751,-0.82969l-0.08492,-1.64175c-0.57135,-1.74913 -1.4749,-2.87972 -2.6685,-4.30076c0,0 -1.13889,-1.35589 0.18981,-2.51808c1.3287,-1.16219 2.46758,0.1937 2.46758,0.1937c1.47893,1.76073 2.60309,3.26577 3.3315,5.49569l-0.08492,1.21555c0,0 0.76224,1.60752 -0.81304,2.38535z" data-paper-data="{&quot;origPos&quot;:null}" fill="#18c6ff" stroke="none" stroke-width="0.5" stroke-linecap="butt"/><path d="M280.24658,94.82856c2.65049,14.94461 -0.54433,15.79448 -9.42494,20.57884c-12.93978,6.97121 -29.86592,5.55994 -43.68752,10.97342c-3.62918,1.42143 -12.87913,-2.03217 -16.83418,-2.03217c-8.08923,0 -12.65358,-5.22725 -12.98785,-11.45342c-0.73732,-13.7335 6.74195,-13.78676 14.83118,-13.78676c0,0 8.90245,1.33414 11.97751,5.60456c0,0 12.38453,-18.21899 25.43957,-20.46979c16.8055,-2.89741 28.78283,-0.14688 30.68624,10.58532z" data-paper-data="{&quot;origPos&quot;:null}" fill="#fff70c" stroke="none" stroke-width="0" stroke-linecap="butt"/><path d="M275.9885,104.24664c0,5.24671 -5.95461,9.5 -13.3,9.5c-7.34538,0 -13.3,-4.25329 -13.3,-9.5c0,-5.24671 5.95462,-9.5 13.3,-9.5c7.34539,0 13.3,4.25329 13.3,9.5z" data-paper-data="{&quot;origPos&quot;:null}" fill="#ffffff" stroke="none" stroke-width="0" stroke-linecap="butt"/><path d="M247.09449,93.74067c0.0164,-2.22761 2.24401,-2.21121 2.24401,-2.21121l2.74023,2.62113c0.93742,1.70899 1.87483,3.41799 2.81225,5.12698c0.93742,1.70899 1.87484,3.41799 2.81225,5.12698c0.20097,0.36639 0.09896,0.88907 0.38603,1.19276c0.04417,0.04672 0.10388,0.08719 0.17255,0.12356c0.22082,-0.46473 0.36862,-0.96783 0.48103,-1.50545c0.56455,-2.70028 0.81392,-4.48674 2.94495,-6.44285c3.19504,-2.93281 5.32918,0.45142 6.58461,2.74017c0.43349,0.87162 0.9809,3.83612 1.50475,4.3903c0.14743,0.15597 0.46202,0.23907 0.70778,0.33522c0.78009,-0.91237 1.96303,-2.35049 2.45391,-3.365c0.67361,-1.39216 0.95593,-3.07949 1.16171,-4.75657l-0.16262,-0.02842l0.61043,-3.49248c0.04534,-0.27326 0.14126,-0.53695 0.28338,-0.77626c0.31966,-0.58768 0.97469,-1.27069 2.26049,-1.06123c0.02225,0.00351 0.04444,0.00736 0.06655,0.01154c1.28347,0.23608 1.67107,1.0985 1.77415,1.76044c0.04253,0.21663 0.05191,0.43601 0.03013,0.65112l-0.17046,1.97017l-0.15942,-0.01379c-0.73845,4.31881 -1.48803,8.15762 -4.55894,11.72264c-1.76862,2.05318 -4.55097,3.19181 -6.83272,0.70602c-1.67626,-1.82615 -1.56493,-4.06439 -2.87537,-5.91103c-0.17856,-0.32553 -0.35711,-0.65104 -0.53567,-0.97657c-0.36645,0.34639 -0.48336,0.88921 -0.6571,1.36259c-0.46658,1.27132 -0.1805,6.65594 -2.47233,7.07289c-5.9763,1.08724 -7.40821,-4.48618 -9.71632,-8.69407c-0.93742,-1.70899 -1.87484,-3.41799 -2.81226,-5.12698c0,0 -1.09436,-0.32498 -1.07796,-2.55259z" data-paper-data="{&quot;origPos&quot;:null,&quot;origRot&quot;:0}" fill="#0052ef" stroke="none" stroke-width="0.5" stroke-linecap="butt"/><path d="M296.29017,119.75391c-0.2212,0.85848 -43.51301,6.5 -55.63158,7.7c-5.88978,0.58322 -17.80653,0.15848 -17.58533,-0.7c0.81769,-3.1735 3.1022,-8.24498 8.73737,-9.9c6.8098,-2 30.18828,-7.38005 47.67076,-7.1384c7.14675,0.09879 17.62649,6.8649 16.80879,10.0384z" data-paper-data="{&quot;origPos&quot;:null}" fill="#ffd412" stroke="none" stroke-width="0" stroke-linecap="butt"/><path d="M197.00001,128.49286l6.66666,3.33333c0,0 4.69674,0.89519 7.33334,2.33333c2.63659,1.43814 2.61141,1.93989 3.66666,3.66667c1.05525,1.72678 0.80582,1.90922 0,2.33333c-0.80582,0.42412 -3.87963,1.49074 -6.33333,1c-2.4537,-0.49074 -3.66667,-3 -3.66667,-3l-1.03333,-6.26666" data-paper-data="{&quot;origPos&quot;:null}" fill="none" stroke="#f6b09a" stroke-width="3" stroke-linecap="round"/><path d="M227.25001,127.83334l31.41667,-6.16667l36,-2.33333" data-paper-data="{&quot;origPos&quot;:null}" fill="none" stroke="#ffffff" stroke-width="4.5" stroke-linecap="round"/><path d="M278.00001,125.75v-2.25l-5.5,0.5l-3.25,0.75l-3,3.5l-2.5,2.25h-6.75l-2.75,-1.25l-7,-2l-5.5,-0.25l-5.5,1l-11.25,3.25l-1,-10l8.5,-0.75l6,-0.25l5,0.75l6.5,1.5l4.25,2.5l4,0.5l4,-0.75l2.75,-1l4,-4.25l4.75,-2l4.25,-0.25l4,1l0.5,3.5z" data-paper-data="{&quot;origPos&quot;:null}" fill="#000001" stroke="#ff0000" stroke-width="0" stroke-linecap="round"/><path d="M264.74628,122.63835c0.29131,3.63097 -1.70285,6.79089 -4.45407,7.05788c-2.75122,0.26699 -5.21769,-2.46007 -5.50899,-6.09104c-0.2913,-3.63097 1.70286,-2.12422 4.45408,-2.39121c2.75122,-0.26699 5.21768,-2.2066 5.50899,1.42437z" data-paper-data="{&quot;origPos&quot;:null,&quot;origRot&quot;:0}" fill="#ffdebd" stroke="#f6b09a" stroke-width="2.5" stroke-linecap="butt"/><path d="M254.20001,122.33334l5.06667,-0.86667l5.8,-0.53333" data-paper-data="{&quot;origPos&quot;:null}" fill="none" stroke="#ffffff" stroke-width="4.5" stroke-linecap="round"/><g data-paper-data="{&quot;origPos&quot;:null,&quot;index&quot;:null}" stroke-linecap="round"><path d="M280.47387,151.79734l4.7519,8.68623l-40.73059,4.20301c0,0 -10.2946,0.364 -10.42056,0.28312c-0.37789,-0.24264 -1.20463,-2.38462 -1.20463,-2.38462l-3.39421,-7.35527l2.80023,-0.91065z" data-paper-data="{&quot;origPos&quot;:null}" fill="#ffffff" stroke="#000000" stroke-width="0"/><path d="M245.17402,164.12617l-4.75191,-8.40603" data-paper-data="{&quot;origPos&quot;:null}" fill="none" stroke="#a5b5ff" stroke-width="1.5"/><path d="M253.92399,154.83791l2.86537,7.92891" data-paper-data="{&quot;origPos&quot;:null,&quot;origRot&quot;:0}" fill="none" stroke="#a5b5ff" stroke-width="1.5"/><path d="M272.06332,161.36582l-2.86537,-7.92892" data-paper-data="{&quot;origPos&quot;:null,&quot;origRot&quot;:0}" fill="none" stroke="#a5b5ff" stroke-width="1.5"/></g><path d="M296.78848,153.94663l-2.8,7.6h-3.2l-1,-2.4l-0.6,2.6l-4,-0.2l-2.8,-3.8l-0.6,3.4l-2.4,1l-1.6,-0.6l-3,-4.6l-3,5l-2.6,-0.2l-3,-4.2l-3.2,5.2h-1.8l-5.4,-5h-1.4l-3.4,5.2l-1.8,0.4l-7.4,-5.4l-5.2,6.2l-2.6,0.4l-13.8,-17l2.2,-1l11,5.4l1.8,-4.8h2.4l12.4,6.6l4.2,-4.6l1.6,-0.2l5.8,5.2l3.8,-4.6l2.6,0.4l2,1.4l1.2,2.6l2.4,-2.8l2.8,-0.2l3,3.8l2.8,-2.4l3,1l1.8,2.6l2.2,-2.8l2.4,2.2l1,0.8z" data-paper-data="{&quot;origPos&quot;:null}" fill="#000001" stroke="#ff0000" stroke-width="0" stroke-linecap="round"/><path d="M262.20005,142.31174c0.25909,-1.7103 0.15839,-3.85084 0.65733,-5.19849c1.10219,-2.97706 4.41574,-4.36325 7.33013,-4.36325c9.77911,0 25,3.73774 25,15.75c-0.07332,3.54048 -0.74802,6.62555 -3.57153,9.07119c-1.38349,1.19834 -3.94465,1.2429 -5.67971,1.4164c-5.40098,0.5401 -11.62677,1.28631 -16.98905,0.21385c-4.69024,-1.24371 -9.228,-0.73967 -12.94511,-4.73735c-2.61286,-2.81008 -2.25315,-8.13494 -0.24308,-11.03529c0.97147,-1.40174 4.39887,-1.17881 5.92847,-1.17881c0,0 0.212,0 0.51254,0.06173z" data-paper-data="{&quot;origPos&quot;:null}" fill="url(#color-4)" stroke="none" stroke-width="0.5" stroke-linecap="butt"/><path d="M250.63332,131c0.8434,0 1.6067,0.28 2.16,0.733c0.5534,0.452 0.8956,1.077 0.8956,1.767c0,0.69 -0.3422,1.315 -0.8956,1.767c-0.5533,0.453 -1.3166,0.733 -2.16,0.733c-0.8433,0 -1.6066,-0.28 -2.16,-0.733c-0.5533,-0.452 -0.8955,-1.077 -0.8955,-1.767c0,-0.69 0.3422,-1.315 0.8955,-1.767c0.5534,-0.453 1.3167,-0.733 2.16,-0.733z" data-paper-data="{&quot;origPos&quot;:null}" id="ID0.651427554897964" fill="#000000" stroke="none" stroke-width="1.05702" stroke-linecap="butt"/><path d="M270.68332,127.45c0.8434,0 1.6067,0.28 2.16,0.733c0.5534,0.452 0.8956,1.077 0.8956,1.767c0,0.69 -0.3422,1.315 -0.8956,1.767c-0.5533,0.453 -1.3166,0.733 -2.16,0.733c-0.8433,0 -1.6066,-0.28 -2.16,-0.733c-0.5533,-0.452 -0.8955,-1.077 -0.8955,-1.767c0,-0.69 0.3422,-1.315 0.8955,-1.767c0.5534,-0.453 1.3167,-0.733 2.16,-0.733z" data-paper-data="{&quot;origPos&quot;:null}" id="ID0.651427554897964" fill="#000000" stroke="none" stroke-width="1.05702" stroke-linecap="butt"/></g></g></g></svg>