<svg version="1.1" xmlns="http://www.w3.org/2000/svg" xmlns:xlink="http://www.w3.org/1999/xlink" width="480" height="379.47851" viewBox="0,0,480,379.47851"><defs><linearGradient x1="239.99934" y1="274.8046" x2="239.99934" y2="392.97852" gradientUnits="userSpaceOnUse" id="color-1"><stop offset="0" stop-color="#76cfff"/><stop offset="1" stop-color="#76cfff" stop-opacity="0"/></linearGradient><linearGradient x1="294.38577" y1="243.60513" x2="294.38577" y2="365.20486" gradientUnits="userSpaceOnUse" id="color-2"><stop offset="0" stop-color="#f5e862"/><stop offset="1" stop-color="#e0bc5c"/></linearGradient></defs><g transform="translate(0.00065,-13.5)"><g data-paper-data="{&quot;isPaintingLayer&quot;:true}" fill-rule="nonzero" stroke-linejoin="miter" stroke-miterlimit="10" stroke-dasharray="" stroke-dashoffset="0" style="mix-blend-mode: normal"><g><path d="M221.34316,216.08159c0,0 4.45991,-4.9448 8.91558,-4.23604c4.45567,0.70875 7.21981,6.80266 7.21981,6.80266c0,0 -4.57895,1.65773 -9.03461,0.94897c-4.45567,-0.70875 -7.10077,-3.51559 -7.10077,-3.51559z" data-paper-data="{&quot;index&quot;:null}" fill="#39b386" stroke="none" stroke-width="0" stroke-linecap="butt"/><path d="M214.26114,215.11376c-4.21647,-1.60519 -7.36091,-5.32371 -7.36091,-5.32371c0,0 5.43259,-3.90682 9.64906,-2.30163c4.21647,1.60519 5.62013,8.11454 5.62013,8.11454c0,0 -3.69181,1.11599 -7.90828,-0.4892z" data-paper-data="{&quot;index&quot;:null}" fill="#39b386" stroke="none" stroke-width="0" stroke-linecap="butt"/><path d="M218.53471,249.49878c0,0 -3.13695,-6.31243 -1.63029,-16.48778c1.35281,-9.13636 4.36678,-15.4379 4.36678,-15.4379" data-paper-data="{&quot;index&quot;:null}" fill="none" stroke="#865637" stroke-width="3" stroke-linecap="round"/><path d="M221.91007,215.29114c0,0 8.54103,-0.40654 11.92462,4.29609c3.3836,4.70263 0.32846,12.73362 0.32846,12.73362c0,0 -5.6523,-2.67478 -9.03589,-7.3774c-3.3836,-4.70263 -3.21719,-9.65231 -3.21719,-9.65231z" data-paper-data="{&quot;index&quot;:null}" fill="#48c882" stroke="none" stroke-width="0" stroke-linecap="butt"/><path d="M213.73394,221.34395c-5.60258,1.47459 -11.66491,-0.05878 -11.66491,-0.05878c0,0 2.7536,-8.13932 8.35618,-9.61391c5.60258,-1.47459 11.93258,4.27395 11.93258,4.27395c0,0 -3.02127,3.92415 -8.62385,5.39874z" data-paper-data="{&quot;index&quot;:null}" fill="#48c882" stroke="none" stroke-width="0" stroke-linecap="butt"/></g><g><path d="M320.07703,230.13798c0,0 3.36972,-5.74342 7.87672,-5.94885c4.507,-0.20543 8.44457,5.20491 8.44457,5.20491c0,0 -4.14996,2.54807 -8.65696,2.75351c-4.507,0.20543 -7.66433,-2.00956 -7.66433,-2.00956z" data-paper-data="{&quot;index&quot;:null}" fill="#39b386" stroke="none" stroke-width="0" stroke-linecap="butt"/><path d="M312.94545,230.61993c-4.45372,-0.72083 -8.28417,-3.72792 -8.28417,-3.72792c0,0 4.53193,-4.9232 8.98566,-4.20236c4.45372,0.72083 7.14271,6.81274 7.14271,6.81274c0,0 -3.39047,1.83838 -7.84419,1.11755z" data-paper-data="{&quot;index&quot;:null}" fill="#39b386" stroke="none" stroke-width="0" stroke-linecap="butt"/><path d="M324.07331,263.43401c0,0 -4.34682,-5.54908 -4.92558,-15.81908c-0.51967,-9.22134 1.3304,-16.06553 1.3304,-16.06553" data-paper-data="{&quot;index&quot;:null}" fill="none" stroke="#865637" stroke-width="3" stroke-linecap="round"/><path d="M320.4727,229.24935c0,0 8.28306,-2.12258 12.54643,1.80005c4.26337,3.92264 2.8926,12.40507 2.8926,12.40507c0,0 -6.07593,-1.47851 -10.3393,-5.40114c-4.26337,-3.92264 -5.09972,-8.80398 -5.09972,-8.80398z" data-paper-data="{&quot;index&quot;:null}" fill="#48c882" stroke="none" stroke-width="0" stroke-linecap="butt"/><path d="M313.68699,236.82826c-5.18949,2.57538 -11.43655,2.29756 -11.43655,2.29756c0,0 1.05357,-8.52764 6.24306,-11.10302c5.18949,-2.57538 12.54975,1.77676 12.54975,1.77676c0,0 -2.16677,4.45333 -7.35626,7.0287z" data-paper-data="{&quot;index&quot;:null}" fill="#48c882" stroke="none" stroke-width="0" stroke-linecap="butt"/></g><g data-paper-data="{&quot;origPos&quot;:null}" stroke="none" stroke-width="1" stroke-linecap="butt"><path d="M443.3037,45.051c10.15402,6.517 16.43943,15.517 16.43943,25.449c0,9.932 -6.28541,18.932 -16.43943,25.449c-10.15402,6.517 -24.17665,10.551 -39.6511,10.551c-15.47445,0 -29.49708,-4.034 -39.6511,-10.551c-10.15402,-6.517 -16.43943,-15.517 -16.43943,-25.449c0,-9.932 6.28541,-18.932 16.43943,-25.449c10.15402,-6.517 24.17665,-10.551 39.6511,-10.551c15.47445,0 29.49708,4.034 39.6511,10.551z" fill="#ffffff"/><path d="M373.59897,29.051c10.15402,6.517 16.43943,15.517 16.43943,25.449c0,9.932 -6.28541,18.932 -16.43943,25.449c-10.15402,6.517 -24.17665,10.551 -39.6511,10.551c-15.47445,0 -29.49708,-4.034 -39.6511,-10.551c-10.15402,-6.517 -16.43943,-15.517 -16.43943,-25.449c0,-9.932 6.28541,-18.932 16.43943,-25.449c10.15402,-6.517 24.17665,-10.551 39.6511,-10.551c15.47445,0 29.49708,4.034 39.6511,10.551z" fill="#ffffff"/><g fill="#4a4f54"><path d="M394.59205,52.858c0.88765,1.765 1.43657,4.202 1.43657,6.892c0,2.69 -0.54892,5.127 -1.43657,6.892c-0.88656,1.765 -2.11184,2.858 -3.46454,2.858c-1.35271,0 -2.57799,-1.093 -3.46454,-2.858c-0.88765,-1.765 -1.43657,-4.202 -1.43657,-6.892c0,-2.69 0.54892,-5.127 1.43657,-6.892c0.88656,-1.765 2.11184,-2.858 3.46454,-2.858c1.35271,0 2.57799,1.093 3.46454,2.858z"/><path d="M371.72022,52.358c0.88765,1.765 1.43657,4.202 1.43657,6.892c0,2.69 -0.54892,5.127 -1.43657,6.892c-0.88656,1.765 -2.11184,2.858 -3.46454,2.858c-1.35271,0 -2.57799,-1.093 -3.46454,-2.858c-0.88765,-1.765 -1.43657,-4.202 -1.43657,-6.892c0,-2.69 0.54892,-5.127 1.43657,-6.892c0.88656,-1.765 2.11184,-2.858 3.46454,-2.858c1.35271,0 2.57799,1.093 3.46454,2.858z"/></g></g><g data-paper-data="{&quot;origPos&quot;:null}" stroke="none" stroke-width="1" stroke-linecap="butt"><path d="M73.52582,29.5c15.47445,0 29.49708,4.034 39.6511,10.551c10.15402,6.517 16.43943,15.517 16.43943,25.449c0,9.932 -6.28541,18.932 -16.43943,25.449c-10.15402,6.517 -24.17665,10.551 -39.6511,10.551c-15.47445,0 -29.49708,-4.034 -39.6511,-10.551c-10.15402,-6.517 -16.43943,-15.517 -16.43943,-25.449c0,-9.932 6.28541,-18.932 16.43943,-25.449c10.15402,-6.517 24.17665,-10.551 39.6511,-10.551z" fill="#ffffff"/><path d="M143.23054,13.5c15.47445,0 29.49708,4.034 39.6511,10.551c10.15402,6.517 16.43943,15.517 16.43943,25.449c0,9.932 -6.28541,18.932 -16.43943,25.449c-10.15402,6.517 -24.17665,10.551 -39.6511,10.551c-15.47445,0 -29.49708,-4.034 -39.6511,-10.551c-10.15402,-6.517 -16.43943,-15.517 -16.43943,-25.449c0,-9.932 6.28541,-18.932 16.43943,-25.449c10.15402,-6.517 24.17665,-10.551 39.6511,-10.551z" fill="#ffffff"/><g fill="#4a4f54"><path d="M86.0509,45c1.35271,0 2.57799,1.093 3.46454,2.858c0.88765,1.765 1.43657,4.202 1.43657,6.892c0,2.69 -0.54892,5.127 -1.43657,6.892c-0.88656,1.765 -2.11184,2.858 -3.46454,2.858c-1.35271,0 -2.57799,-1.093 -3.46454,-2.858c-0.88765,-1.765 -1.43657,-4.202 -1.43657,-6.892c0,-2.69 0.54892,-5.127 1.43657,-6.892c0.88656,-1.765 2.11184,-2.858 3.46454,-2.858z"/><path d="M108.92276,44.5c1.35271,0 2.57799,1.093 3.46454,2.858c0.88765,1.765 1.43657,4.202 1.43657,6.892c0,2.69 -0.54892,5.127 -1.43657,6.892c-0.88656,1.765 -2.11184,2.858 -3.46454,2.858c-1.35271,0 -2.57799,-1.093 -3.46454,-2.858c-0.88765,-1.765 -1.43657,-4.202 -1.43657,-6.892c0,-2.69 0.54892,-5.127 1.43657,-6.892c0.88656,-1.765 2.11184,-2.858 3.46454,-2.858z"/></g></g><path d="M479.99935,274.8046v118.17391h-480v-118.17391z" fill="url(#color-1)" stroke="none" stroke-width="0" stroke-linecap="butt"/><path d="M167.11584,316.47409c-11.51062,-9.89546 -68.36496,-2.9687 -59.73775,-11.19146c4.44612,-4.23769 30.51085,-16.75225 33.47236,-21.46005c3.66604,-5.82776 -44.84069,-0.78149 -41.3533,-7.82477c9.53877,-19.26492 45.30104,-2.0738 69.63747,-11.8565c24.00007,-9.64748 39.33648,-18.95222 49.90235,-19.52429c29.30456,-1.58665 60.38165,19.65327 71.10473,21.58784c10.72308,1.93457 15.73127,-9.20794 27,-9.5c23.82202,-0.61743 12.98912,9.75241 58.5,17.5c14.49892,2.46824 -57.83243,13.15018 -61.5,19c-5.79835,9.24843 19.238,8.77669 12,13c-10.48708,6.11911 -20.30815,12.93709 -55.7772,17.17129c-35.46906,4.2342 -99.83902,-3.97086 -103.24865,-6.90206z" data-paper-data="{&quot;index&quot;:null}" fill="url(#color-2)" stroke="#e0bd5c" stroke-width="2" stroke-linecap="round"/></g></g></svg>