<svg version="1.1" xmlns="http://www.w3.org/2000/svg" xmlns:xlink="http://www.w3.org/1999/xlink" width="482.3448" height="273.22888" viewBox="0,0,482.3448,273.22888"><defs><linearGradient x1="119.89268" y1="251.70175" x2="88.10732" y2="290.29826" gradientUnits="userSpaceOnUse" id="color-1"><stop offset="0" stop-color="#badbee"/><stop offset="1" stop-color="#64b9e0"/></linearGradient><linearGradient x1="183.89268" y1="251.70175" x2="152.10732" y2="290.29826" gradientUnits="userSpaceOnUse" id="color-2"><stop offset="0" stop-color="#badbee"/><stop offset="1" stop-color="#64b9e0"/></linearGradient><linearGradient x1="329.89268" y1="251.70175" x2="298.10732" y2="290.29826" gradientUnits="userSpaceOnUse" id="color-3"><stop offset="0" stop-color="#badbee"/><stop offset="1" stop-color="#64b9e0"/></linearGradient><linearGradient x1="393.89268" y1="251.70175" x2="362.10732" y2="290.29826" gradientUnits="userSpaceOnUse" id="color-4"><stop offset="0" stop-color="#badbee"/><stop offset="1" stop-color="#64b9e0"/></linearGradient></defs><g transform="translate(1.04179,-111.27112)"><g data-paper-data="{&quot;isPaintingLayer&quot;:true}" fill-rule="nonzero" stroke-linecap="butt" stroke-linejoin="miter" stroke-miterlimit="10" stroke-dasharray="" stroke-dashoffset="0" style="mix-blend-mode: normal"><g><path d="M45,345.5c5.242,0 9.992,2.129 13.431,5.569c3.44,3.439 5.569,8.189 5.569,13.431c0,5.242 -2.129,9.992 -5.569,13.431c-3.439,3.44 -8.189,5.569 -13.431,5.569c-5.242,0 -9.992,-2.129 -13.431,-5.569c-3.44,-3.439 -5.569,-8.189 -5.569,-13.431c0,-5.242 2.129,-9.992 5.569,-13.431c3.439,-3.44 8.189,-5.569 13.431,-5.569z" fill="#000000" stroke="none" stroke-width="1"/><path d="M36,329.5h14v21h-14z" fill="#b2b2b2" stroke="#666666" stroke-width="2"/></g><g><path d="M210,346.5c5.242,0 9.992,2.129 13.431,5.569c3.44,3.439 5.569,8.189 5.569,13.431c0,5.242 -2.129,9.992 -5.569,13.431c-3.439,3.44 -8.189,5.569 -13.431,5.569c-5.242,0 -9.992,-2.129 -13.431,-5.569c-3.44,-3.439 -5.569,-8.189 -5.569,-13.431c0,-5.242 2.129,-9.992 5.569,-13.431c3.439,-3.44 8.189,-5.569 13.431,-5.569z" fill="#000000" stroke="none" stroke-width="1"/><path d="M201,330.5h14v21h-14z" fill="#b2b2b2" stroke="#666666" stroke-width="2"/></g><g><path d="M370,346.5c5.242,0 9.992,2.129 13.431,5.569c3.44,3.439 5.569,8.189 5.569,13.431c0,5.242 -2.129,9.992 -5.569,13.431c-3.439,3.44 -8.189,5.569 -13.431,5.569c-5.242,0 -9.992,-2.129 -13.431,-5.569c-3.44,-3.439 -5.569,-8.189 -5.569,-13.431c0,-5.242 2.129,-9.992 5.569,-13.431c3.439,-3.44 8.189,-5.569 13.431,-5.569z" fill="#000000" stroke="none" stroke-width="1"/><path d="M361,330.5h14v21h-14z" fill="#b2b2b2" stroke="#666666" stroke-width="2"/></g><path d="M337.0042,112.45365h126v101h-126z" fill="#cc7700" stroke="#663b00" stroke-width="2.36505"/><path d="M0,208.0492h480l-30,132.9738l-450,-0.9738z" fill="#cc7700" stroke="#663b00" stroke-width="2.08358"/><path d="M84.70174,255.10732c8.77729,-10.65813 24.53281,-12.18286 35.19094,-3.40558c10.65813,8.77728 12.18286,24.53281 3.40557,35.19093c-8.77729,10.65813 -24.53281,12.18286 -35.19094,3.40557c-10.65813,-8.77729 -12.18286,-24.5328 -3.40557,-35.19093z" data-paper-data="{&quot;origPos&quot;:null,&quot;origRot&quot;:0}" fill="url(#color-1)" stroke="#965700" stroke-width="7"/><path d="M148.70175,255.10732c8.77729,-10.65813 24.5328,-12.18286 35.19094,-3.40558c10.65813,8.77728 12.18286,24.53281 3.40557,35.19093c-8.77729,10.65813 -24.53281,12.18286 -35.19094,3.40557c-10.65813,-8.77729 -12.18286,-24.5328 -3.40557,-35.19093z" data-paper-data="{&quot;origPos&quot;:null,&quot;origRot&quot;:0}" fill="url(#color-2)" stroke="#965700" stroke-width="7"/><path d="M294.70174,255.10732c8.77729,-10.65813 24.53281,-12.18286 35.19094,-3.40558c10.65813,8.77728 12.18286,24.53281 3.40557,35.19093c-8.77729,10.65813 -24.53281,12.18286 -35.19094,3.40557c-10.65813,-8.77729 -12.18286,-24.5328 -3.40557,-35.19093z" data-paper-data="{&quot;origPos&quot;:null,&quot;origRot&quot;:0}" fill="url(#color-3)" stroke="#965700" stroke-width="7"/><path d="M358.70175,255.10732c8.77729,-10.65813 24.5328,-12.18286 35.19094,-3.40558c10.65813,8.77728 12.18286,24.53281 3.40557,35.19093c-8.77729,10.65813 -24.53281,12.18286 -35.19094,3.40557c-10.65813,-8.77729 -12.18286,-24.5328 -3.40557,-35.19093z" data-paper-data="{&quot;origPos&quot;:null,&quot;origRot&quot;:0}" fill="url(#color-4)" stroke="#965700" stroke-width="7"/></g></g></svg>