<svg version="1.1" xmlns="http://www.w3.org/2000/svg" xmlns:xlink="http://www.w3.org/1999/xlink" width="114.38653" height="41.98034" viewBox="0,0,114.38653,41.98034"><defs><linearGradient x1="203.79128" y1="159.0098" x2="203.79128" y2="200.97887" gradientUnits="userSpaceOnUse" id="color-1"><stop offset="0" stop-color="#208057"/><stop offset="1" stop-color="#103c3d"/></linearGradient><linearGradient x1="276.20875" y1="159.0098" x2="276.20875" y2="200.97887" gradientUnits="userSpaceOnUse" id="color-2"><stop offset="0" stop-color="#208057"/><stop offset="1" stop-color="#103c3d"/></linearGradient><linearGradient x1="240.37013" y1="159.02709" x2="240.37013" y2="200.99017" gradientUnits="userSpaceOnUse" id="color-3"><stop offset="0" stop-color="#208057"/><stop offset="1" stop-color="#103c3d"/></linearGradient><linearGradient x1="205.17992" y1="162.8291" x2="205.17992" y2="196.88436" gradientUnits="userSpaceOnUse" id="color-4"><stop offset="0" stop-color="#39e39a"/><stop offset="1" stop-color="#31b8bd"/></linearGradient></defs><g transform="translate(-182.80674,-159.00983)"><g data-paper-data="{&quot;isPaintingLayer&quot;:true}" fill-rule="nonzero" stroke-linejoin="miter" stroke-miterlimit="10" stroke-dasharray="" stroke-dashoffset="0" style="mix-blend-mode: normal"><g data-paper-data="{&quot;index&quot;:null}" stroke="#000000" stroke-width="0" stroke-linecap="butt"><path d="M182.80675,179.99436c0,-11.58944 9.39509,-20.98453 20.98453,-20.98453c11.58944,0 20.98453,9.39509 20.98453,20.98453c0,11.58944 -9.39509,20.98453 -20.98453,20.98453c-11.58944,0 -20.98453,-9.39509 -20.98453,-20.98453z" data-paper-data="{&quot;origPos&quot;:null,&quot;index&quot;:null}" fill="url(#color-1)"/><path d="M255.22422,179.99436c0,-11.58943 9.39509,-20.98453 20.98453,-20.98453c11.58943,0 20.98453,9.39509 20.98453,20.98453c0,11.58943 -9.39509,20.98453 -20.98453,20.98453c-11.58943,0 -20.98453,-9.39509 -20.98453,-20.98453z" data-paper-data="{&quot;origPos&quot;:null,&quot;index&quot;:null}" fill="url(#color-2)"/><path d="M204.29309,200.99017v-41.96308h72.15408v41.96308z" data-paper-data="{&quot;origPos&quot;:null,&quot;index&quot;:null}" fill="url(#color-3)"/></g><text transform="translate(227.58426,186.07139) scale(0.44701,0.44701)" font-size="40" xml:space="preserve" data-paper-data="{&quot;index&quot;:null}" fill="#f7f7f7" fill-rule="nonzero" stroke="none" stroke-width="1" stroke-linecap="butt" stroke-linejoin="miter" stroke-miterlimit="10" stroke-dasharray="" stroke-dashoffset="0" font-family="&quot;Microsoft YaHei&quot;, &quot;微软雅黑&quot;, STXihei, &quot;华文细黑&quot;" font-weight="normal" text-anchor="start" style="mix-blend-mode: normal"><tspan x="0" dy="0">Mobile</tspan></text><g><path d="M205.17992,162.8291c4.69771,0 8.95515,1.90752 12.0371,4.99053c3.08301,3.08195 4.99053,7.33939 4.99053,12.0371c0,4.69771 -1.90752,8.95515 -4.99053,12.0371c-3.08195,3.08301 -7.33939,4.99053 -12.0371,4.99053c-4.69771,0 -8.95515,-1.90752 -12.0371,-4.99053c-3.08301,-3.08195 -4.99053,-7.33939 -4.99053,-12.0371c0,-4.69771 1.90752,-8.95515 4.99053,-12.0371c3.08195,-3.08301 7.33939,-4.99053 12.0371,-4.99053z" data-paper-data="{&quot;origPos&quot;:null}" fill="url(#color-4)" stroke="#238c6c" stroke-width="1.25" stroke-linecap="butt"/><g data-paper-data="{&quot;origPos&quot;:null}" fill="none" stroke="#238c6c" stroke-width="4.5" stroke-linecap="round" font-family="&quot;Helvetica Neue&quot;, Helvetica, Arial, sans-serif" font-weight="400" font-size="16" text-anchor="start"><g/></g><g fill="none" stroke="#ffffff" stroke-width="2" stroke-linecap="round" font-family="&quot;Helvetica Neue&quot;, Helvetica, Arial, sans-serif" font-weight="400" font-size="16" text-anchor="start"><g/></g></g><g fill="none" stroke-linecap="butt"><path d="M199.46056,170.93428h11.5v18.65h-11.5z" stroke="#238c6c" stroke-width="4.5"/><path d="M199.46056,170.93428h11.5v18.65h-11.5z" stroke="#ffffff" stroke-width="2"/></g></g></g></svg>