<svg version="1.1" xmlns="http://www.w3.org/2000/svg" xmlns:xlink="http://www.w3.org/1999/xlink" width="218.56572" height="294.27698" viewBox="0,0,218.56572,294.27698"><defs><linearGradient x1="257.17716" y1="336.23804" x2="257.17716" y2="-7.37683" gradientUnits="userSpaceOnUse" id="color-1"><stop offset="0" stop-color="#1c8e2a"/><stop offset="1" stop-color="#4fb75b"/></linearGradient></defs><g transform="translate(-272.2186,12.37683)"><g data-paper-data="{&quot;isPaintingLayer&quot;:true}" fill="url(#color-1)" fill-rule="nonzero" stroke="#166d20" stroke-width="10" stroke-linecap="butt" stroke-linejoin="miter" stroke-miterlimit="10" stroke-dasharray="" stroke-dashoffset="0" font-family="none" font-weight="none" font-size="none" text-anchor="none" style="mix-blend-mode: normal"><path d="M485.78432,-7.37683v276.37683c-2.6722,-2.92931 -4.99343,-6.48318 -6.30895,-10.16648c-1.26381,-3.28676 -3.17204,-6.68255 -4.19313,-9.98685c-0.20577,-0.66589 0.29039,-1.37365 0.29039,-2.07059c0,-2.93394 0,-5.86789 0,-8.80183c0,-1.10023 0.6511,-2.41379 0,-3.30068c-4.69765,-6.39888 -16.64445,-3.85081 -23.65493,-3.85081c-0.57336,0 -5.01622,0.44312 -5.50115,0c-0.29415,-0.26879 0.57593,-0.74492 0.42957,-1.11553c-0.33676,-0.85278 -1.23293,-1.36997 -1.71827,-2.14784c-0.85831,-1.37566 -1.24415,-3.00034 -2.00802,-4.43061c-2.60512,-4.87778 -4.28129,-9.44129 -6.19963,-14.64c-0.5519,-1.49567 -1.61494,-3.18812 -1.92253,-4.84681l-0.13541,-3.17847c-0.05415,-1.4714 -1.26406,-2.64761 -2.74868,-2.64761c-0.75955,0 -1.44719,0.30786 -1.94495,0.80562l-1.10023,1.10023c-0.4549,0.02459 -0.65161,0.59926 -0.96319,0.96318c-0.04315,0.05039 -0.0885,0.09675 -0.13705,0.13705c-1.93289,1.60431 -4.02971,2.98881 -6.2088,4.22214c-4.1675,2.35872 -8.75193,3.85165 -12.85034,6.25008c-4.40357,2.57702 -10.54572,5.66894 -15.85359,5.2256c-2.51605,0 -7.01331,0.92253 -9.35195,0c-1.27279,-0.50209 -2.11391,-1.75977 -3.30203,-2.43834c-9.07687,-5.18408 -11.03186,-14.16642 -12.94594,-23.96351c-0.95591,-4.88978 -1.87612,-12.13065 -0.80557,-17.0572c0.06332,-0.2914 0.00128,0.89845 0.2946,0.84472c1.08443,-0.19865 3.36112,-4.73203 2.86493,-5.47606c-4.5944,-6.88918 -14.32148,-6.1445 -20.33769,-10.86002c-3.50937,-2.33957 -7.06849,-4.91064 -8.58908,-9.13919c-0.20687,-0.5753 0.54669,-1.16949 0.46196,-1.77495c-0.44305,-3.16598 -1.10023,-5.59817 -1.10023,-8.80183c0,-2.46367 -0.3591,-5.25869 0,-7.70161c0.07474,-0.50842 1.20702,-3.48807 1.0181,-3.73381c-3.47239,-4.51709 -5.03889,-2.56719 -8.80898,-4.14634c-5.51765,-1.83921 -12.03312,-3.07894 -17.1947,-5.73157c-1.5552,-0.79925 -4.2311,-4.61642 -5.01099,-6.32227c-1.05971,-2.31789 -2.83361,-4.68588 -3.56042,-7.12083c-0.43554,-1.45915 -0.05695,-3.06275 -0.36768,-4.55347c-0.3188,-1.52949 -1.18349,-2.92197 -1.42283,-4.46589c-0.28512,-1.8392 0.14016,-4.42428 0.14016,-6.28464c0,-5.17408 -0.06779,-10.52741 1.07899,-15.61216c2.85913,-12.67717 8.54974,-25.11896 8.82307,-38.29907c0,-0.55012 -0.16242,-1.12475 0,-1.65035c0.31352,-1.01458 2.61032,-1.733 1.91008,-3.17082c-2.35263,-4.83071 -4.61276,-3.98067 -8.51145,-3.98067c-4.42097,0 -9.38151,0.59971 -13.75286,0c-4.82612,-0.6621 -7.224,-6.00939 -10.15758,-9.09644c-3.74619,-3.74619 -3.89492,-8.6281 -4.69552,-13.45826c-0.42709,-2.57669 -1.91275,-4.92204 -2.34161,-7.47118c-0.12751,-0.7579 -0.17271,-1.57945 -0.17165,-2.43088z" data-paper-data="{&quot;origPos&quot;:null,&quot;index&quot;:null}"/></g></g></svg>