<svg version="1.1" xmlns="http://www.w3.org/2000/svg" xmlns:xlink="http://www.w3.org/1999/xlink" width="746.73815" height="387.32345" viewBox="0,0,746.73815,387.32345"><defs><linearGradient x1="-101.59313" y1="277.78315" x2="-101.59313" y2="375.78318" gradientUnits="userSpaceOnUse" id="color-1"><stop offset="0" stop-color="#000000" stop-opacity="0"/><stop offset="1" stop-color="#000000"/></linearGradient></defs><g transform="translate(129.30824,11.54031)"><g data-paper-data="{&quot;isPaintingLayer&quot;:true}" fill-rule="nonzero" stroke-linecap="butt" stroke-linejoin="miter" stroke-miterlimit="10" stroke-dasharray="" stroke-dashoffset="0" style="mix-blend-mode: normal"><path d="M-105.17993,0.38348h694.28532v360h-694.28532z" data-paper-data="{&quot;origPos&quot;:null}" fill="#694d00" stroke="none" stroke-width="1"/><path d="M-118.81766,29.38348h734.14947v31h-734.14947z" data-paper-data="{&quot;origPos&quot;:null}" fill="#533900" stroke="none" stroke-width="1.04034"/><path d="M-116.71955,112.88348h734.14947v31h-734.14947z" data-paper-data="{&quot;origPos&quot;:null}" fill="#533900" stroke="none" stroke-width="1.04034"/><path d="M-129.30823,196.38348h734.14947v31h-734.14947z" data-paper-data="{&quot;origPos&quot;:null}" fill="#533900" stroke="none" stroke-width="1.04034"/><path d="M-125.112,280.88347h734.14947v31h-734.14947z" data-paper-data="{&quot;origPos&quot;:null}" fill="#533900" stroke="none" stroke-width="1.04034"/><path d="M-101.59313,277.78315h689.43797v98h-689.43797z" data-paper-data="{&quot;origPos&quot;:null}" fill="url(#color-1)" stroke="none" stroke-width="1.22826"/><path d="M80.09305,374.97807v-386.51837h41.5099v386.51838z" fill="#39272b" stroke="none" stroke-width="0"/><path d="M365.26532,374.97807v-386.51837h41.50989v386.51838z" fill="#39272b" stroke="none" stroke-width="0"/><path d="M66.43488,151.71673l0.53361,-21.38745l18.40958,-20.16064l24.70819,-0.53361l21.37559,22.14486l-0.66291,20.73681l-20.41473,17.8334l-24.2793,0.04301z" fill="#326168" stroke="#344853" stroke-width="5"/><path d="M355.64318,149.67524l0.53361,-21.38745l18.40958,-20.16064l24.7082,-0.53361l21.37559,22.14486l-0.66291,20.73682l-20.41473,17.8334l-24.2793,0.04301z" fill="#326168" stroke="#344853" stroke-width="5"/><path d="M-111.47477,193.24182v-16.11476h700.9048v16.11476z" fill="#692c2c" stroke="#344853" stroke-width="0"/><path d="M-106.0292,66.18096v-17.9294h700.9048v17.9294z" fill="#692c2c" stroke="#344853" stroke-width="0"/><path d="M-118.95852,288.01664v-14.51712h700.9048v14.51712z" fill="#692c2c" stroke="#344853" stroke-width="0"/></g></g></svg>