<svg version="1.1" xmlns="http://www.w3.org/2000/svg" xmlns:xlink="http://www.w3.org/1999/xlink" width="464.70677" height="245.18486" viewBox="0,0,464.70677,245.18486"><defs><linearGradient x1="-30.45287" y1="287.80368" x2="-30.51081" y2="343.80371" gradientUnits="userSpaceOnUse" id="color-1"><stop offset="0" stop-color="#c3e060"/><stop offset="1" stop-color="#6de01b"/></linearGradient><linearGradient x1="401.19543" y1="168.26082" x2="437.07895" y2="211.25361" gradientUnits="userSpaceOnUse" id="color-2"><stop offset="0" stop-color="#c3e060"/><stop offset="1" stop-color="#6de01b"/></linearGradient><linearGradient x1="268.6431" y1="221" x2="268.6431" y2="396.00142" gradientUnits="userSpaceOnUse" id="color-3"><stop offset="0" stop-color="#bee061"/><stop offset="1" stop-color="#4ce01b"/></linearGradient></defs><g transform="translate(28.09673,-172.81516)"><g data-paper-data="{&quot;isPaintingLayer&quot;:true}" fill="none" fill-rule="nonzero" stroke="none" stroke-width="none" stroke-linecap="none" stroke-linejoin="miter" stroke-miterlimit="10" stroke-dasharray="" stroke-dashoffset="0" font-family="none" font-weight="none" font-size="none" text-anchor="none" style="mix-blend-mode: normal"><g data-paper-data="{&quot;origPos&quot;:null,&quot;origRot&quot;:0}" stroke-linecap="butt"><path d="M-24.26407,313.64122l249.33194,-0.94546l1.33283,47.82515l-249.33184,1.94544z" data-paper-data="{&quot;origPos&quot;:null}" id="ID0.29126935824751854" fill="#c06520" stroke="#763e13" stroke-width="1.50655"/><path d="M11.78114,342.06898c-0.69191,-2.67333 0.91436,-5.40141 3.58769,-6.09331c2.67333,-0.69191 5.40141,0.91436 6.09331,3.58769c0.69191,2.67333 -0.91436,5.40141 -3.58769,6.09331c-2.67333,0.69191 -5.40141,-0.91436 -6.09331,-3.58769z" data-paper-data="{&quot;origPos&quot;:null}" fill="#e0bb60" stroke="none" stroke-width="0.5"/><path d="M70.03792,347.65006c-0.69191,-2.67333 0.91436,-5.40141 3.58769,-6.09331c2.67333,-0.69191 5.40141,0.91436 6.09331,3.58769c0.69191,2.67333 -0.91436,5.40141 -3.58769,6.09331c-2.67333,0.69191 -5.40141,-0.91436 -6.09331,-3.58769z" data-paper-data="{&quot;origPos&quot;:null}" fill="#e0bb60" stroke="none" stroke-width="0.5"/><path d="M138.15795,343.44768c-0.69191,-2.67333 0.91436,-5.40141 3.58769,-6.09331c2.67333,-0.69191 5.40141,0.91436 6.09331,3.58769c0.69191,2.67333 -0.91436,5.40141 -3.58769,6.09331c-2.67333,0.69191 -5.40141,-0.91436 -6.09331,-3.58769z" data-paper-data="{&quot;origPos&quot;:null}" fill="#e0bb60" stroke="none" stroke-width="0.5"/><path d="M212.57392,289.10762l-0.07358,43.99987l-9.12324,-8.01142l-10.15958,12.98732l-11.14729,-13.01396l-9.14291,10.98859l-8.78193,-11.01099l-12.86522,12.98394l-14.52386,-11.01815l-4.39401,11.99458l-14.19423,-10.01775l-11.17006,8.98605l-12.16397,-11.01523l-14.21492,9.98224l-10.14877,-12.01275l-12.1727,11.98485l-14.20724,-12.01782l-14.21285,7.98223l-9.12118,-10.01142l-12.17477,13.98485l-13.18072,-9.00165l-8.12924,11.97501l-14.19326,-11.00291l-0.15947,0.10057c0.08737,-10.19559 -0.26948,-15.45575 -0.18211,-25.65134c0.02572,-3.00295 1.58445,-7.97409 3.54337,-10.25026c1.41143,-1.64001 5.81679,-3.62826 11.47404,-3.58619c16.97176,0.12619 224.8197,-0.32828 224.8197,-0.32828z" data-paper-data="{&quot;origPos&quot;:null,&quot;origRot&quot;:0}" fill="url(#color-1)" stroke="#0f6600" stroke-width="2"/></g><g data-paper-data="{&quot;origPos&quot;:null,&quot;origRot&quot;:0}" stroke-linecap="butt"><path d="M259.60818,314.00311l147.43917,-120.6074l28.49217,34.83092l-147.43914,120.6075z" data-paper-data="{&quot;origPos&quot;:null}" id="ID0.29126935824751854" fill="#c06520" stroke="#763e13" stroke-width="1.5215"/><path d="M325.50414,300.64166c-0.77903,-2.64926 0.7371,-5.42844 3.38636,-6.20746c2.64926,-0.77903 5.42844,0.7371 6.20746,3.38636c0.77903,2.64926 -0.7371,5.42844 -3.38636,6.20746c-2.64926,0.77903 -5.42844,-0.7371 -6.20746,-3.38636z" data-paper-data="{&quot;origPos&quot;:null}" fill="#e0bb60" stroke="none" stroke-width="0.5"/><path d="M369.97588,260.46376c-0.77903,-2.64926 0.7371,-5.42844 3.38636,-6.20746c2.64926,-0.77903 5.42844,0.7371 6.20746,3.38636c0.77903,2.64926 -0.7371,5.42844 -3.38636,6.20746c-2.64926,0.77903 -5.42844,-0.7371 -6.20746,-3.38636z" data-paper-data="{&quot;origPos&quot;:null}" fill="#e0bb60" stroke="none" stroke-width="0.5"/><path d="M414.39059,230.726c-0.77903,-2.64926 0.7371,-5.42844 3.38636,-6.20746c2.64926,-0.77903 5.42844,0.7371 6.20746,3.38636c0.77903,2.64926 -0.7371,5.42844 -3.38636,6.20746c-2.64926,0.77903 -5.42844,-0.7371 -6.20746,-3.38636z" data-paper-data="{&quot;origPos&quot;:null}" fill="#e0bb60" stroke="none" stroke-width="0.5"/><path d="M215.38323,323.27931c0,0 166.37835,-137.07224 175.86902,-144.89102c3.16356,-2.60627 6.15732,-5.16434 9.07281,-4.45233c3.23907,0.79105 6.34058,2.9896 8.24625,5.3081c7.15441,8.70434 7.53578,9.16831 14.6902,17.87264l1.80293,16.35614l-13.65594,-6.84926l-3.44374,13.29152l-15.6185,-1.29532l-3.49451,21.14777l-21.57459,1.06906l-0.7423,14.94474l-16.53589,0.77236l-4.49945,16.7769l-13.00462,-6.08062l-3.85867,17.54462l-19.65225,3.37225l5.07544,13.99806l-24.18844,5.85439l0.81585,13.64479l-15.98266,-4.89845l-3.21789,18.31235l-17.17669,0.00463l3.9322,11.04491l-16.39759,-0.64534l2.23572,13.76254z" data-paper-data="{&quot;origPos&quot;:null,&quot;origRot&quot;:0}" fill="url(#color-2)" stroke="#0f6600" stroke-width="2"/></g><path d="M268.50001,224.00002c26.624,0 50.749,10.813 68.218,28.282c17.469,17.469 28.282,41.594 28.282,68.218c0,26.624 -10.813,50.749 -28.282,68.218c-17.469,17.469 -41.594,28.282 -68.218,28.282c-26.624,0 -50.749,-10.813 -68.218,-28.282c-17.469,-17.469 -28.282,-41.594 -28.282,-68.218c0,-26.624 10.813,-50.749 28.282,-68.218c17.469,-17.469 41.594,-28.282 68.218,-28.282z" data-paper-data="{&quot;origPos&quot;:null}" id="ID0.263604449108243" fill="#c06520" stroke="#763e13" stroke-width="2" stroke-linecap="butt"/><path d="M221,343.00001c0,-2.76142 2.23858,-5 5,-5c2.76142,0 5,2.23858 5,5c0,2.76142 -2.23858,5 -5,5c-2.76142,0 -5,-2.23858 -5,-5z" data-paper-data="{&quot;origPos&quot;:null}" fill="#e0bb60" stroke="none" stroke-width="0.5" stroke-linecap="butt"/><path d="M224,282.00001c0,-2.76142 2.23858,-5 5,-5c2.76142,0 5,2.23858 5,5c0,2.76142 -2.23858,5 -5,5c-2.76142,0 -5,-2.23858 -5,-5z" data-paper-data="{&quot;origPos&quot;:null}" fill="#e0bb60" stroke="none" stroke-width="0.5" stroke-linecap="butt"/><path d="M260,304.00001c0,-2.76142 2.23858,-5 5,-5c2.76142,0 5,2.23858 5,5c0,2.76142 -2.23858,5 -5,5c-2.76142,0 -5,-2.23858 -5,-5z" data-paper-data="{&quot;origPos&quot;:null}" fill="#e0bb60" stroke="none" stroke-width="0.5" stroke-linecap="butt"/><path d="M292,335.00001c0,-2.76142 2.23858,-5 5,-5c2.76142,0 5,2.23858 5,5c0,2.76142 -2.23858,5 -5,5c-2.76142,0 -5,-2.23858 -5,-5z" data-paper-data="{&quot;origPos&quot;:null}" fill="#e0bb60" stroke="none" stroke-width="0.5" stroke-linecap="butt"/><path d="M320,297.00001c0,-2.76142 2.23858,-5 5,-5c2.76142,0 5,2.23858 5,5c0,2.76142 -2.23858,5 -5,5c-2.76142,0 -5,-2.23858 -5,-5z" data-paper-data="{&quot;origPos&quot;:null}" fill="#e0bb60" stroke="none" stroke-width="0.5" stroke-linecap="butt"/><path d="M285,267.00001c0,-2.76142 2.23858,-5 5,-5c2.76142,0 5,2.23858 5,5c0,2.76142 -2.23858,5 -5,5c-2.76142,0 -5,-2.23858 -5,-5z" data-paper-data="{&quot;origPos&quot;:null}" fill="#e0bb60" stroke="none" stroke-width="0.5" stroke-linecap="butt"/><path d="M267.50004,221c26.624,0 49.935,11.841 68.218,28.282c16.785,15.11 28.428,39.161 30.282,62.718c2.816,28.029 -16.058,83.682 -17,84c-0.948,0.32 7.295,-53.653 3,-80c-3.243,-18.886 -11.474,-38.105 -26,-51c-2.77511,-2.46227 -11.95906,-14.10512 -11.95906,-14.10512l-13.95058,3.92558l-18.09032,-15.64311l-18.00005,13.82266l-17.08442,-9.47323l-13.2311,14.14013l-15.18862,-4.04789l-5.49586,14.38099c0,0 -20.978,28.443 -23,46c-1.654,24.528 11.503,71.59 9.282,71.718c-18.19079,1.03245 -16.86419,-12.66558 -23.23087,-29.73708c-3.85653,-10.3408 -5.05113,-27.44439 -5.05113,-38.48092c0,-26.624 10.813,-50.749 28.282,-68.218c17.469,-17.469 41.594,-28.282 68.218,-28.282z" data-paper-data="{&quot;origPos&quot;:null}" id="ID0.263604449108243" fill="url(#color-3)" stroke="#006622" stroke-width="2" stroke-linecap="round"/></g></g></svg>