<svg version="1.1" xmlns="http://www.w3.org/2000/svg" xmlns:xlink="http://www.w3.org/1999/xlink" width="30.775" height="30.775" viewBox="0,0,30.775,30.775"><defs><radialGradient cx="240.32511" cy="179.62306" r="19.19378" gradientUnits="userSpaceOnUse" id="color-1"><stop offset="0" stop-color="#d4ff99"/><stop offset="1" stop-color="#d4ff99" stop-opacity="0"/></radialGradient></defs><g transform="translate(-224.6125,-164.6125)"><g data-paper-data="{&quot;isPaintingLayer&quot;:true}" fill-rule="nonzero" stroke-linejoin="miter" stroke-miterlimit="10" stroke-dasharray="" stroke-dashoffset="0" style="mix-blend-mode: normal"><path d="M240,165.6125c3.96924,0 7.56587,1.612 10.17118,4.21632c2.60431,2.60532 4.21632,6.20194 4.21632,10.17118c0,3.96924 -1.612,7.56587 -4.21632,10.17118c-2.60532,2.60431 -6.20194,4.21632 -10.17118,4.21632c-3.96924,0 -7.56587,-1.612 -10.17118,-4.21632c-2.60431,-2.60532 -4.21632,-6.20194 -4.21632,-10.17118c0,-3.96924 1.612,-7.56587 4.21632,-10.17118c2.60532,-2.60431 6.20194,-4.21632 10.17118,-4.21632z" data-paper-data="{&quot;origPos&quot;:null}" fill="url(#color-1)" stroke="#299a0f" stroke-width="2" stroke-linecap="butt"/><g><path d="M238.98457,179.33675h2.01845v10.79193h-2.01845z" fill="#80c125" stroke="none" stroke-width="0.97987" stroke-linecap="butt"/><g data-paper-data="{&quot;index&quot;:null}"><path d="M239.91514,190.10396c0,0 1.60969,-3.66504 4.31785,-4.90628c2.70816,-1.24124 5.48926,0.41135 5.48926,0.41135c0,0 -1.9257,3.49341 -4.63386,4.73466c-2.70816,1.24124 -5.17325,-0.23973 -5.17325,-0.23973z" fill="#80c125" stroke="none" stroke-width="0" stroke-linecap="butt"/><path d="M241.5139,189.25266c0,0 1.42427,-1.73728 3.46854,-2.57092c1.78593,-0.72829 3.07626,-0.66552 3.07626,-0.66552" fill="none" stroke="#55921c" stroke-width="0.7" stroke-linecap="round"/></g><g><path d="M240.08485,190.17589c0,0 -2.46509,1.48097 -5.17325,0.23973c-2.70816,-1.24124 -4.63386,-4.73466 -4.63386,-4.73466c0,0 2.7811,-1.65259 5.48926,-0.41135c2.70816,1.24124 4.31785,4.90628 4.31785,4.90628z" fill="#80c125" stroke="none" stroke-width="0" stroke-linecap="butt"/><path d="M231.9413,186.08814c0,0 1.29033,-0.06277 3.07626,0.66551c2.04427,0.83364 3.46854,2.57092 3.46854,2.57092" fill="none" stroke="#55921c" stroke-width="0.7" stroke-linecap="round"/></g><g stroke-linecap="butt"><path d="M249.65853,175.77734c0,4.4594 -0.5111,5.36989 -5.95925,5.98705c-3.57238,0.40468 -3.78276,1.36708 -7.56997,0.78409c-6.45038,-0.51983 -5.57524,-5.55355 -5.57524,-7.19635c0,-2.18386 1.91232,-3.12424 4.25153,-4.09837c2.62047,-1.09125 3.27232,-2.16356 4.98181,-2.16507c2.53479,-0.00418 3.91319,0.72934 5.87059,1.86749c2.46032,1.43059 4.00055,2.50339 4.00055,4.82115z" fill="#11ac1e" stroke="none" stroke-width="0"/><path d="M247.9582,175.77891c0,2.04876 -1.37099,3.08996 -3.71532,4.40147c-1.44875,0.81049 -3.89108,0.819 -5.5185,0.83376c-2.56632,0.02327 -3.51859,0.28386 -4.87908,-0.69105c-1.313,-0.94088 -2.01612,-2.98456 -2.01612,-4.43788c0,-1.71843 1.4287,-2.16046 3.2459,-3.12262c1.31209,-0.69472 2.62321,-2.16942 4.71231,-2.17405c1.9995,-0.00443 3.70646,1.05043 4.93286,1.59095c2.13068,0.93907 3.23795,1.72125 3.23795,3.59941z" fill="#53ce1b" stroke="none" stroke-width="0"/><path d="M233.94082,179.1478c0,-0.55773 0.45213,-1.00986 1.00986,-1.00986c0.55773,0 1.00986,0.45213 1.00986,1.00986c0,0.55773 -0.45213,1.00986 -1.00986,1.00986c-0.55773,0 -1.00986,-0.45213 -1.00986,-1.00986z" fill="none" stroke="#96f018" stroke-width="0.5"/><path d="M245.10245,175.95877c0,-0.55773 0.45213,-1.00986 1.00986,-1.00986c0.55773,0 1.00986,0.45213 1.00986,1.00986c0,0.55773 -0.45213,1.00986 -1.00986,1.00986c-0.55773,0 -1.00986,-0.45213 -1.00986,-1.00986z" fill="none" stroke="#96f018" stroke-width="0.5"/><path d="M246.05916,178.6163c0,-0.55773 0.45213,-1.00986 1.00986,-1.00986c0.55773,0 1.00986,0.45213 1.00986,1.00986c0,0.55773 -0.45213,1.00986 -1.00986,1.00986c-0.55773,0 -1.00986,-0.45213 -1.00986,-1.00986z" fill="none" stroke="#53ce1b" stroke-width="0.5"/><path d="M240.6378,170.64371c0,-0.55773 0.45213,-1.00986 1.00986,-1.00986c0.55773,0 1.00986,0.45213 1.00986,1.00986c0,0.55773 -0.45213,1.00986 -1.00986,1.00986c-0.55773,0 -1.00986,-0.45213 -1.00986,-1.00986z" fill="none" stroke="#53ce1b" stroke-width="0.5"/><path d="M238.19287,181.06122c0,-0.55773 0.45213,-1.00986 1.00986,-1.00986c0.55773,0 1.00986,0.45213 1.00986,1.00986c0,0.55773 -0.45213,1.00986 -1.00986,1.00986c-0.55773,0 -1.00986,-0.45213 -1.00986,-1.00986z" fill="none" stroke="#53ce1b" stroke-width="0.5"/><path d="M233.62192,173.30124c0,-0.55773 0.45213,-1.00986 1.00986,-1.00986c0.55773,0 1.00986,0.45213 1.00986,1.00986c0,0.55773 -0.45213,1.00986 -1.00986,1.00986c-0.55773,0 -1.00986,-0.45213 -1.00986,-1.00986z" fill="none" stroke="#53ce1b" stroke-width="0.5"/><path d="M246.27947,176.02589c0,1.84359 -1.65694,1.80416 -3.26331,2.61498c-1.11884,0.56474 -2.25523,1.34835 -3.97288,1.34641c-3.99857,-0.00452 -5.32277,-2.12837 -5.32277,-4.17399c0,-1.61437 0.88398,-1.77994 3.46287,-2.27102c1.75192,-0.13118 1.80249,-0.94626 3.34811,-1.37147c1.50726,-0.41466 2.37273,0.11028 3.30882,0.4861c1.60569,0.64465 2.43915,2.07673 2.43915,3.36899z" fill="#96f018" stroke="none" stroke-width="0"/><path d="M237.02356,173.40754c0,-0.55773 0.45213,-1.00986 1.00986,-1.00986c0.55773,0 1.00986,0.45213 1.00986,1.00986c0,0.55773 -0.45213,1.00986 -1.00986,1.00986c-0.55773,0 -1.00986,-0.45213 -1.00986,-1.00986z" fill="none" stroke="#96f018" stroke-width="0.5"/><path d="M231.17699,177.76589c0,-0.55773 0.45213,-1.00986 1.00986,-1.00986c0.55773,0 1.00986,0.45213 1.00986,1.00986c0,0.55773 -0.45213,1.00986 -1.00986,1.00986c-0.55773,0 -1.00986,-0.45213 -1.00986,-1.00986z" fill="none" stroke="#53ce1b" stroke-width="0.5"/></g><g stroke="none" stroke-width="0" stroke-linecap="butt"><path d="M241.96265,174.19342c0.63759,0 0.84724,0.63686 0.84724,2.13271c0,1.44285 -0.2662,2.13271 -0.84724,2.13271c-0.58103,0 -0.84724,-0.74286 -0.84724,-2.13271c0,-1.49585 0.20966,-2.13271 0.84724,-2.13271z" fill="#000000"/><path d="M241.56647,175.18285c0,-0.48968 0.16701,-0.5945 0.37303,-0.5945c0.20602,0 0.38304,0.11402 0.37302,0.6036c-0.00909,0.44422 -0.06747,0.62863 -0.37302,0.62863c-0.32374,0 -0.37303,-0.22077 -0.37303,-0.63771z" fill="#ffffff"/></g><g stroke="none" stroke-width="0" stroke-linecap="butt"><path d="M238.03734,174.20453c0.63759,0 0.84723,0.63686 0.84723,2.13271c0,1.44285 -0.2662,2.13271 -0.84723,2.13271c-0.58103,0 -0.84724,-0.74286 -0.84724,-2.13271c0,-1.49585 0.20966,-2.13271 0.84724,-2.13271z" fill="#000000"/><path d="M237.70494,175.19396c0,-0.48967 0.16701,-0.5945 0.37303,-0.5945c0.20602,0 0.38304,0.11402 0.37302,0.6036c-0.00909,0.44422 -0.06747,0.62863 -0.37302,0.62863c-0.32374,0 -0.37303,-0.22077 -0.37303,-0.63772z" fill="#ffffff"/></g></g></g></g></svg>