<svg version="1.1" xmlns="http://www.w3.org/2000/svg" xmlns:xlink="http://www.w3.org/1999/xlink" width="105.23361" height="105.23361" viewBox="0,0,105.23361,105.23361"><defs><linearGradient x1="240" y1="129.38322" x2="240" y2="230.61683" gradientUnits="userSpaceOnUse" id="color-1"><stop offset="0" stop-color="#3c94ed"/><stop offset="1" stop-color="#337fcc"/></linearGradient><linearGradient x1="221.49258" y1="211.52251" x2="236.35583" y2="211.52251" gradientUnits="userSpaceOnUse" id="color-2"><stop offset="0" stop-color="#643a19"/><stop offset="1" stop-color="#9b663d"/></linearGradient><linearGradient x1="205.1504" y1="131.76007" x2="235.6476" y2="131.76007" gradientUnits="userSpaceOnUse" id="color-3"><stop offset="0" stop-color="#3c94ed"/><stop offset="1" stop-color="#296ec6"/></linearGradient><linearGradient x1="240.62277" y1="215.83922" x2="256.53085" y2="215.83922" gradientUnits="userSpaceOnUse" id="color-4"><stop offset="0" stop-color="#643a19"/><stop offset="1" stop-color="#9b663d"/></linearGradient><linearGradient x1="244.63764" y1="179.83151" x2="244.63764" y2="203.10395" gradientUnits="userSpaceOnUse" id="color-5"><stop offset="0" stop-color="#2a2a84"/><stop offset="1" stop-color="#262675"/></linearGradient><linearGradient x1="259.65169" y1="158.37815" x2="259.65169" y2="163.74854" gradientUnits="userSpaceOnUse" id="color-6"><stop offset="0" stop-color="#509b07"/><stop offset="1" stop-color="#346a00"/></linearGradient><linearGradient x1="251.52585" y1="155.24892" x2="251.52585" y2="161.47163" gradientUnits="userSpaceOnUse" id="color-7"><stop offset="0" stop-color="#509b07"/><stop offset="1" stop-color="#468904"/></linearGradient></defs><g transform="translate(-187.38319,-127.38321)"><g data-paper-data="{&quot;isPaintingLayer&quot;:true}" fill-rule="nonzero" stroke-linejoin="miter" stroke-miterlimit="10" stroke-dasharray="" stroke-dashoffset="0" style="mix-blend-mode: normal"><path d="M240,129.38322c13.96441,0 26.62029,5.67033 35.78178,14.83501c9.16454,9.16149 14.83502,21.81722 14.83502,35.78179c0,13.96457 -5.67048,26.62029 -14.83502,35.78179c-9.16149,9.16468 -21.81737,14.83502 -35.78178,14.83502c-13.96457,0 -26.62044,-5.67033 -35.78195,-14.83502c-9.16454,-9.16149 -14.83486,-21.81722 -14.83486,-35.78179c0,-13.96457 5.67032,-26.62029 14.83486,-35.78179c9.16149,-9.16469 21.81738,-14.83501 35.78195,-14.83501z" fill="url(#color-1)" stroke="#23568d" stroke-width="4" stroke-linecap="butt"/><g data-paper-data="{&quot;origRot&quot;:0}" stroke="none" stroke-width="0" stroke-linecap="butt"><path d="M235.86091,208.56376c-0.95411,1.62123 0.40782,3.41025 0.11917,3.72508c-1.1679,1.27384 -2.50933,1.82675 -5.31108,0.92922c-3.4706,-1.1118 -5.63517,-2.83056 -7.23098,-6.10692c-1.08689,-2.23148 1.08138,-2.09399 3.05716,-3.59638c0.70896,-0.5391 1.49832,-1.33587 2.90351,-3.07792c1.75684,-2.17802 5.8151,-5.57485 5.8151,-5.57485c0,0 2.01318,0.9371 3.83575,2.10947c1.79033,1.17856 3.08011,3.09153 3.08011,3.09153c0,0 -4.06319,4.7531 -6.26872,8.50078z" data-paper-data="{&quot;origPos&quot;:null}" fill="#262675"/><path d="M233.25875,217.80723c-0.88851,1.33662 -2.66725,1.06226 -4.19168,0.56018c-0.99903,-0.32904 -5.01547,-3.17174 -6.2567,-5.71342c-0.38535,-0.78908 -0.34007,-1.9688 -0.34007,-1.9688c0,0 -1.89998,-0.88752 -1.563,-1.38367c0.26748,-0.39386 0.70629,-1.07563 1.22724,-1.026c2.24241,0.21356 6.15803,2.81946 8.03395,4.06645c2.57522,1.71183 3.95877,4.15871 3.09027,5.46525z" data-paper-data="{&quot;origPos&quot;:null}" fill="#dbbb7b"/><path d="M235.02095,216.55771c-1.50852,1.25309 -3.81777,1.33053 -6.72907,-0.60473c-2.91131,-1.93526 -4.90323,-5.69404 -4.90323,-5.69404c0,0 -2.18144,-1.29008 -1.86462,-1.85918c0.65573,-1.17789 1.84951,-3.01748 2.31281,-2.79559c1.71041,0.81914 1.27437,0.83459 3.61002,1.75673c1.51222,0.59704 4.56299,0.80573 5.91697,1.70576c2.91131,1.93526 4.14092,5.42784 1.65712,7.49107z" data-paper-data="{&quot;origPos&quot;:null}" fill="url(#color-2)"/></g><g data-paper-data="{&quot;index&quot;:null,&quot;origRot&quot;:0}" stroke="none" stroke-width="0" stroke-linecap="butt"><path d="M246.23924,183.42894c0.09977,2.18618 -3.65383,4.40179 -7.6571,4.58449c-4.00327,0.18269 -7.83594,-0.24148 -7.83594,-0.24148l-0.37468,-6.55712c0,0 6.22522,-1.0518 9.44509,-1.19875c4.00327,-0.1827 6.32286,1.2267 6.42264,3.41287z" data-paper-data="{&quot;origRot&quot;:0,&quot;origPos&quot;:null}" fill="#64ca00"/><g data-paper-data="{&quot;origPos&quot;:null}" fill="#ffffff"><path d="M228.48138,184.25915c0.35298,3.84918 0.57612,8.63118 -3.49608,8.76554c-2.95423,0.09747 -7.43857,-3.5905 -6.9257,-7.42166c0.55967,-4.18066 0.3893,-7.99766 4.95629,-7.71732c4.26435,0.26177 5.11251,2.52425 5.46549,6.37343z" data-paper-data="{&quot;origRot&quot;:0,&quot;origPos&quot;:null}"/><path d="M231.73533,184.48911c0.26862,2.97214 1.15477,6.31081 -1.14175,6.33501c-2.56911,0.02708 -2.4867,-0.76019 -2.80565,-5.62796c-0.36333,-5.5453 -1.42842,-6.32669 1.38602,-6.49337c1.64344,-0.09733 2.29277,2.81417 2.56138,5.78633z" data-paper-data="{&quot;origRot&quot;:0,&quot;origPos&quot;:null}"/></g></g><path d="M205.1504,146.03296l1.59748,-1.51572l2.03315,-1.8946l1.56116,-1.22105l1.37964,-0.92625l1.88792,-1.34725l1.67008,-0.96843l2.3236,-1.30514l1.70639,-0.79998l1.81531,-0.84209l2.28729,-0.88413l2.3236,-0.75786l2.54144,-0.71574l2.9408,-0.58947l1.99684,-0.29473l1.70639,-0.21051l0.72613,96.37364l-4.17522,-0.46312l-4.1026,-0.88413l-3.558,-1.05258l-2.68666,-1.0947l-2.79557,-1.13675l-2.54144,-1.55783l-2.61404,-1.55783l-1.70639,-1.17886l-2.17837,-1.51572l-1.59748,-1.51572l-1.41594,-1.17886l-1.12549,-1.17886c0,0 -13.79586,-13.16566 -13.79586,-34.23245c0,-19.36786 13.79586,-33.55334 13.79586,-33.55334z" fill="url(#color-3)" stroke="none" stroke-width="1.08278" stroke-linecap="round"/><g data-paper-data="{&quot;origRot&quot;:0}" stroke="none" stroke-width="0" stroke-linecap="butt"><path d="M251.5925,209.4926c0.4285,1.83169 2.64878,2.18633 2.65719,2.61338c0.03403,1.72785 -0.55508,3.0538 -3.20201,4.338c-3.27881,1.59077 -6.03144,1.84094 -9.44749,0.57141c-2.32663,-0.86466 -0.66268,-2.26164 -0.26984,-4.71247c0.14096,-0.87942 0.16226,-2.0008 -0.02321,-4.23124c-0.23189,-2.78864 0.36043,-8.04764 0.36043,-8.04764c0,0 2.10359,-0.71131 4.23161,-1.12084c2.10898,-0.38279 4.36259,0.11135 4.36259,0.11135c0,0 0.34017,6.24387 1.33071,10.47805z" data-paper-data="{&quot;origPos&quot;:null}" fill="#262675"/><path d="M256.08907,217.97753c0.27955,1.58046 -1.19699,2.60956 -2.64665,3.29836c-0.95004,0.4514 -5.81846,1.16634 -8.47087,0.18374c-0.82345,-0.30506 -1.6049,-1.19 -1.6049,-1.19c0,0 -1.98744,0.66908 -2.08603,0.07747c-0.07827,-0.46962 -0.23126,-1.26584 0.17996,-1.58947c1.77011,-1.39312 6.40214,-2.20984 8.62027,-2.60218c3.045,-0.53859 5.73497,0.27717 6.00823,1.82207z" data-paper-data="{&quot;origPos&quot;:null}" fill="#dbbb7b"/><path d="M256.50189,215.85711c-0.22678,1.94793 -1.8444,3.59774 -5.28681,4.20663c-3.44241,0.60888 -7.47807,-0.73637 -7.47807,-0.73637c0,0 -2.46897,0.57201 -2.63248,-0.05848c-0.33843,-1.30493 -0.74421,-3.46006 -0.25579,-3.61925c1.80308,-0.58772 1.4982,-0.2756 3.82482,-1.2203c1.50637,-0.61165 3.85807,-2.5662 5.45904,-2.84938c3.44242,-0.60888 6.7427,1.06985 6.36931,4.27716z" data-paper-data="{&quot;origPos&quot;:null}" fill="url(#color-4)"/></g><g data-paper-data="{&quot;origRot&quot;:0}"><path d="M254.46637,192.44406c-1.52619,9.49963 -6.68921,11.37395 -11.96399,10.44867c-5.27478,-0.92528 -8.83229,-6.17984 -8.03453,-10.72764c0.86543,-4.93361 2.01229,-8.78068 5.51619,-11.4028c2.61051,-1.95357 5.58969,-0.30351 8.44219,0.19686c5.27478,0.92528 7.53615,2.17316 6.04014,11.48492z" data-paper-data="{&quot;origPos&quot;:null}" fill="url(#color-5)" stroke="none" stroke-width="0" stroke-linecap="butt"/><path d="M254.51347,192.17554c0,0 -6.14586,-0.15548 -10.39914,-0.71706c-3.90127,-0.5151 -7.51269,-2.88627 -7.51269,-2.88627c0,0 0.74041,-6.23405 3.92992,-8.14914c2.08681,-1.25299 4.21401,-1.41006 6.84514,-1.03194c2.63113,0.37812 5.29478,1.91557 6.37091,3.52193c2.54195,3.79441 0.76585,9.26247 0.76585,9.26247z" data-paper-data="{&quot;origPos&quot;:null}" fill="#64ca00" stroke="none" stroke-width="0" stroke-linecap="butt"/><path d="M251.34579,181.88245c0,0 0.20635,3.19162 0.03341,5.05856c-0.22211,2.39796 -1.39534,6.77089 -1.39534,6.77089" data-paper-data="{&quot;origPos&quot;:null,&quot;origRot&quot;:0}" fill="none" stroke="#2a2a84" stroke-width="6.5" stroke-linecap="round"/><path d="M243.8361,180.79978c0,0 -0.12357,3.23475 -0.48372,5.07869c-0.46258,2.36841 -2.05929,6.56126 -2.05929,6.56126" data-paper-data="{&quot;origPos&quot;:null}" fill="none" stroke="#2a2a84" stroke-width="6.5" stroke-linecap="round"/><path d="M240.26141,191.3823c0.17776,-1.01336 1.09182,-1.69981 2.04161,-1.53321c0.94979,0.1666 1.57564,1.12318 1.39788,2.13654c-0.17776,1.01336 -1.09182,1.6998 -2.04161,1.5332c-0.94979,-0.1666 -1.57564,-1.12317 -1.39788,-2.13653z" data-paper-data="{&quot;origPos&quot;:null}" fill="#ffe84f" stroke="none" stroke-width="0" stroke-linecap="butt"/><path d="M248.51957,192.83091c0.17776,-1.01336 1.06533,-1.70445 1.98245,-1.54357c0.91711,0.16087 1.51648,1.1128 1.33872,2.12616c-0.17776,1.01336 -1.06533,1.70445 -1.98245,1.54357c-0.91711,-0.16087 -1.51648,-1.11279 -1.33872,-2.12616z" data-paper-data="{&quot;origPos&quot;:null}" fill="#ffe84f" stroke="none" stroke-width="0" stroke-linecap="butt"/></g><g data-paper-data="{&quot;origRot&quot;:0}" stroke="none" stroke-width="0" stroke-linecap="butt"><path d="M248.54758,192.4348c-3.21181,0.2711 -9.5208,0.03399 -9.5208,0.03399l-0.47728,-6.55045c0,0 3.74552,-0.91675 7.73875,-1.25381c3.99325,-0.33705 8.00207,1.37402 8.18614,3.55473c0.18407,2.18071 -1.93357,3.8785 -5.9268,4.21555z" data-paper-data="{&quot;origRot&quot;:0,&quot;origPos&quot;:null}" fill="#64ca00"/><g data-paper-data="{&quot;origPos&quot;:null}" fill="#ffffff"><path d="M232.16398,196.72204c-4.49226,0.86917 -4.81744,-2.93777 -5.91358,-7.01081c-1.00449,-3.73254 2.9647,-7.96994 5.9067,-8.25573c4.05533,-0.39392 4.4531,4.37675 4.60135,8.23923c0.14825,3.86248 -0.3999,6.21573 -4.59447,7.0273z" data-paper-data="{&quot;origRot&quot;:0,&quot;origPos&quot;:null}"/><path d="M238.16446,195.1147c-2.81234,0.19904 -1.85737,-0.71365 -2.21491,-6.25932c-0.31386,-4.8681 -0.4975,-5.63807 2.05352,-5.94379c2.28035,-0.27328 1.83382,3.152 1.95221,6.13391c0.11839,2.98191 -0.1486,5.95298 -1.79081,6.0692z" data-paper-data="{&quot;origRot&quot;:0,&quot;origPos&quot;:null}"/></g></g><path d="M264.97379,160.90388c-0.36474,1.53638 -5.17629,3.11495 -8.83141,2.80548c-2.9453,-0.24938 -1.9806,-2.9586 -1.85399,-4.45392c0.12661,-1.49531 5.87099,-0.68043 8.8163,-0.43104c2.9453,0.24938 2.10519,1.085 1.8691,2.07948z" fill="url(#color-6)" stroke="none" stroke-width="0" stroke-linecap="butt"/><path d="M234.05239,176.43789c0,0 -0.63984,0.56276 -1.23038,-0.20824c-0.59055,-0.771 -0.92214,-2.46634 0.0874,-3.17711c1.2075,-0.85014 1.18434,-4.05534 1.77488,-3.28434c0,0 2.45593,0.74642 2.52075,2.27701c0,0 0.6847,4.46218 0.19318,5.12502c0,0 -0.67473,0.63953 -2.2714,0.38864c-0.8651,-0.13593 -1.07442,-1.12097 -1.07442,-1.12097z" data-paper-data="{&quot;origRot&quot;:0}" fill="#5a2c0a" stroke="none" stroke-width="0" stroke-linecap="butt"/><path d="M236.82819,159.46414c1.73472,0.56298 15.35336,0.40414 17.71894,0.73748c3.49984,0.49317 2.25895,3.58486 2.20972,7.11893c-0.0566,4.06343 -1.39987,8.65771 -1.33023,11.47989c0.0747,3.02701 -0.33404,4.57474 -2.86088,5.81215c-6.62402,-0.16509 -5.33732,-1.55108 -8.2825,-2.80248c-2.48581,-1.16221 -4.24075,-2.0796 -6.79931,-4.64084c-1.94219,-1.94424 -1.32494,-3.3669 -2.46054,-5.44914c-0.3481,-0.63829 -0.79426,-1.00083 -0.87406,-1.00758c-4.25422,-0.36021 -6.29537,-4.07242 -6.01401,-7.39532c0.28135,-3.32291 2.02768,-5.8881 4.40658,-5.68667c2.3789,0.20142 3.68311,1.63785 4.2863,1.8336z" fill="#ffdebd" stroke="none" stroke-width="0" stroke-linecap="butt"/><path d="M256.4134,163.27355c-0.02526,2.01777 -1.05945,3.64081 -2.30989,3.62515c-1.25045,-0.01566 -2.24366,-1.66408 -2.21839,-3.68184c0.02526,-2.01777 1.05945,-3.6408 2.30989,-3.62514c1.25045,0.01566 2.24366,1.66408 2.21839,3.68184z" data-paper-data="{&quot;origRot&quot;:0}" fill="#ffffff" stroke="none" stroke-width="0" stroke-linecap="butt"/><path d="M254.04061,162.6622c0.39053,0.03307 0.72001,0.34811 0.93743,0.8301c0.21701,0.48195 0.32193,1.13124 0.2625,1.83314c-0.05942,0.70189 -0.27202,1.3243 -0.56698,1.7629c-0.29537,0.43857 -0.67312,0.69373 -1.06365,0.66067c-0.39053,-0.03307 -0.72001,-0.34811 -0.93743,-0.8301c-0.21701,-0.48195 -0.32193,-1.13123 -0.2625,-1.83314c0.05942,-0.70189 0.27202,-1.3243 0.56698,-1.76291c0.29537,-0.43857 0.67312,-0.69372 1.06365,-0.66067z" fill="#000000" stroke="none" stroke-width="1" stroke-linecap="butt"/><path d="M239.88297,163.11145c-0.01428,2.014 1.58623,3.56968 0.58423,3.95607c-0.51044,0.19685 -2.37627,-0.14096 -3.05044,-0.94151c-0.67416,-0.80055 -0.89428,-1.74791 -0.74082,-3.56039c0.15347,-1.81249 0.29527,-3.56881 1.43085,-3.51472c4.78113,0.22775 1.78906,2.24161 1.77617,4.06055z" fill="#5a2c0a" stroke="none" stroke-width="0" stroke-linecap="butt"/><path d="M250.89711,164.87428c0.06512,2.01688 -0.89532,3.6846 -2.14521,3.72495c-1.2499,0.04036 -2.31593,-1.56193 -2.38106,-3.5788c-0.06512,-2.01688 0.89532,-3.6846 2.14521,-3.72495c1.2499,-0.04036 2.31593,1.56193 2.38106,3.5788z" data-paper-data="{&quot;origRot&quot;:0}" fill="#ffffff" stroke="none" stroke-width="0" stroke-linecap="butt"/><path d="M248.21306,163.37577c0.39053,0.03307 0.72001,0.34811 0.93743,0.8301c0.217,0.48195 0.32193,1.13124 0.2625,1.83314c-0.05942,0.70189 -0.27202,1.3243 -0.56698,1.7629c-0.29537,0.43857 -0.67312,0.69373 -1.06365,0.66067c-0.39053,-0.03307 -0.72001,-0.34811 -0.93743,-0.8301c-0.217,-0.48195 -0.32193,-1.13123 -0.2625,-1.83314c0.05942,-0.70189 0.27202,-1.3243 0.56697,-1.76291c0.29537,-0.43857 0.67312,-0.69372 1.06365,-0.66067z" fill="#000000" stroke="none" stroke-width="1" stroke-linecap="butt"/><path d="M260.12583,149.3274c0.46402,6.21391 -0.7505,6.46221 -4.2106,8.14599c-5.04165,2.45339 -11.27072,1.34288 -16.58534,3.12956c-1.39547,0.46913 -4.70643,-1.23811 -6.1734,-1.36233c-3.00038,-0.25405 -4.51179,-2.54175 -4.41952,-5.10638c0.20354,-5.65699 2.97953,-5.44396 5.97992,-5.18991c0,0 3.25568,0.82688 4.24792,2.6753c0,0 5.22637,-7.08497 10.14683,-7.59831c6.33398,-0.66081 10.68097,0.84367 11.0142,5.30608z" fill="#64ca00" stroke="none" stroke-width="0" stroke-linecap="butt"/><path d="M258.64252,152.72418c-0.18991,2.24297 -0.93302,3.87962 -5.34862,3.63748c-4.66145,-0.25562 -4.8508,-2.24203 -4.66089,-4.48499c0.18991,-2.24297 2.58457,-3.87151 5.34862,-3.63748c2.76406,0.23403 4.8508,2.24203 4.66089,4.48499z" fill="#ffffff" stroke="none" stroke-width="0" stroke-linecap="butt"/><path d="M265.21083,160.05627c-0.11186,0.34522 -16.36524,1.29994 -20.90182,1.41163c-2.20484,0.05428 -6.61014,-0.49421 -6.49829,-0.83944c0.41353,-1.27617 1.43702,-3.28489 3.58465,-3.78684c2.59529,-0.60659 11.45352,-2.07942 17.92957,-1.43125c2.64737,0.26497 6.29941,3.36973 5.88589,4.6459z" fill="url(#color-7)" stroke="none" stroke-width="0" stroke-linecap="butt"/><path d="M251.89014,154.72328l-0.46308,-5.13034l2.30468,-0.03691l-0.64485,3.86324l3.12635,-0.4132l-0.66888,1.47573z" fill="#64ca00" stroke="none" stroke-width="0" stroke-linecap="butt"/><path d="M255.13803,177.97372c-0.24075,1.03251 -1.27134,1.13301 -1.878,1.24361c-1.85152,0.33756 -3.34807,-0.09547 -6.49299,-1.57942c-1.01821,-0.48045 -1.39485,-6.86566 0.91448,-5.35435c0,0 4.74057,2.36654 7.202,2.43444c0,0 4.11077,-1.51574 5.3295,-1.33084c0.60443,0.09171 0.50055,1.36581 0.25433,1.99292c0,0 -0.0959,1.875 -0.98602,2.2701c-1.29765,0.77579 -2.14443,0.31839 -2.21411,0.61719z" fill="#38291e" stroke="none" stroke-width="0" stroke-linecap="butt"/><path d="M260.21627,170.88605c-0.43498,2.69752 0.07608,4.60293 -5.81323,4.00099c-2.71433,-0.27743 -5.18507,-2.19787 -4.98126,-4.60508c0.20382,-2.40722 3.07778,-5.15613 5.80619,-5.13779c3.97547,0.02673 5.6842,1.42625 4.98829,5.74189z" fill="#ffdebd" stroke="none" stroke-width="0" stroke-linecap="butt"/><g fill="none" stroke="#f6b09a" stroke-width="1.5" stroke-linecap="round"><path d="M230.89987,161.76963c0,0 1.27572,-0.60674 2.72941,0.72669c2.08483,1.91236 0.52597,4.74306 0.52597,4.74306" data-paper-data="{&quot;origPos&quot;:null}"/><path d="M231.78014,164.61829l2.46136,0.20841" data-paper-data="{&quot;origPos&quot;:null}"/><path d="M233.79868,167.26821l-0.52743,-0.04467" data-paper-data="{&quot;origPos&quot;:null}"/></g><path d="M254.40215,160.94759c-0.70805,-0.01266 -1.99339,0.93591 -1.99339,0.93591c0,0 -2.46006,-2.52227 1.84246,-3.3019c1.34426,-0.06162 2.21158,0.83546 2.45447,1.40273c0.35773,0.83546 0.18784,2.09547 0.18784,2.09547c0,0 -0.87581,-0.38947 -1.35792,-0.73274c-0.46732,-0.33275 -0.46404,-0.39907 -1.13342,-0.39948z" data-paper-data="{&quot;index&quot;:null,&quot;origRot&quot;:0}" fill="#38291e" stroke="none" stroke-width="0" stroke-linecap="butt"/><path d="M248.42969,161.45725c-0.66939,0.0004 -0.66611,0.06673 -1.13342,0.39948c-0.48211,0.34327 -1.35792,0.73275 -1.35792,0.73275c0,0 -0.16989,-1.26002 0.18784,-2.09547c0.24289,-0.56726 1.1102,-1.46436 2.45447,-1.40273c4.30251,0.77962 1.84245,3.3019 1.84245,3.3019c0,0 -1.28535,-0.94857 -1.99339,-0.93592z" data-paper-data="{&quot;index&quot;:null,&quot;origRot&quot;:0}" fill="#38291e" stroke="none" stroke-width="0" stroke-linecap="butt"/></g></g></svg>