<svg version="1.1" xmlns="http://www.w3.org/2000/svg" xmlns:xlink="http://www.w3.org/1999/xlink" width="495.0832" height="312.48337" viewBox="0,0,495.0832,312.48337"><g transform="translate(7.43427,-47.75832)"><g data-paper-data="{&quot;isPaintingLayer&quot;:true}" fill-rule="nonzero" stroke-linecap="butt" stroke-linejoin="miter" stroke-miterlimit="10" stroke-dasharray="" stroke-dashoffset="0" style="mix-blend-mode: normal"><g fill="none" stroke="#00c8ff" stroke-width="6"><path d="M420.11742,173.99117l1,-123.34655v123.34655z"/><path d="M475.11742,173.99117l1,-121.88835v121.88835z"/><path d="M420.11742,64.9263v-0.71753h55.5v0.71753z"/><path d="M421.11742,139.54963v-0.71753h55.5v0.71753z"/></g><path d="M400.70528,346.13883l-7.13857,-10.86466l66.85947,-43.92963l7.13857,10.86466z" data-paper-data="{&quot;index&quot;:null}" fill="#001ee8" stroke="#001f66" stroke-width="2"/><path d="M322.56671,306.2092l7.13856,-10.86466l66.85947,43.92963l-7.13856,10.86466z" data-paper-data="{&quot;index&quot;:null}" fill="#001ee8" stroke="#001f66" stroke-width="2"/><path d="M262.70528,349.13883l-7.13856,-10.86466l66.85947,-43.92963l7.13856,10.86466z" data-paper-data="{&quot;index&quot;:null}" fill="#001ee8" stroke="#001f66" stroke-width="2"/><path d="M194.56671,306.2092l7.13856,-10.86466l66.85947,43.92963l-7.13856,10.86466z" data-paper-data="{&quot;index&quot;:null}" fill="#001ee8" stroke="#001f66" stroke-width="2"/><path d="M5.70528,351.13883l-7.13857,-10.86466l66.85947,-43.92963l7.13857,10.86466z" fill="#001ee8" stroke="#001f66" stroke-width="2"/><path d="M65.56671,306.2092l7.13857,-10.86466l66.85947,43.92963l-7.13857,10.86466z" data-paper-data="{&quot;index&quot;:null}" fill="#001ee8" stroke="#001f66" stroke-width="2"/><path d="M133.70527,351.13883l-7.13857,-10.86466l66.85947,-43.92963l7.13856,10.86466z" data-paper-data="{&quot;index&quot;:null}" fill="#001ee8" stroke="#001f66" stroke-width="2"/><path d="M-6.43427,305.24169v-23h490v23z" fill="#001ee8" stroke="#001f66" stroke-width="2"/><path d="M-6.43427,359.24169v-23h491v23z" fill="#001ee8" stroke="#001f66" stroke-width="2"/><path d="M64.54832,182.00038l4.49955,-6.84816l42.14255,27.68952l-4.49955,6.84816z" data-paper-data="{&quot;index&quot;:null}" fill="#001ee8" stroke="#001f66" stroke-width="1"/><path d="M26.81674,209.05958l-4.49955,-6.84816l42.14255,-27.68952l4.49955,6.84817z" data-paper-data="{&quot;index&quot;:null}" fill="#001ee8" stroke="#001f66" stroke-width="1"/><path d="M20.59099,180.76023l0.01335,-14.49725h93.73827v14.49725z" data-paper-data="{&quot;index&quot;:null}" fill="#001ee8" stroke="#001f66" stroke-width="1"/><path d="M20.48087,214.5993l0.12509,-14.29929h93.73663v14.49725z" data-paper-data="{&quot;index&quot;:null}" fill="#001ee8" stroke="#001f66" stroke-width="1"/><path d="" data-paper-data="{&quot;index&quot;:null}" fill="#001ee8" stroke="#001f66" stroke-width="1"/><path d="M363.68293,210.18539l-4.49955,-6.84816l42.14255,-27.68952l4.49955,6.84816z" data-paper-data="{&quot;index&quot;:null}" fill="#001ee8" stroke="#001f66" stroke-width="1"/><path d="M401.41451,181.86556l4.49955,-6.84816l42.14255,27.68952l-4.49955,6.84816z" data-paper-data="{&quot;index&quot;:null}" fill="#001ee8" stroke="#001f66" stroke-width="1"/><path d="M444.36329,210.1854l-4.49955,-6.84816l42.14254,-27.68951l1.73175,2.63567c0.56853,1.63367 1.14831,3.26486 1.72687,4.89641z" data-paper-data="{&quot;index&quot;:null}" fill="#001ee8" stroke="#001f66" stroke-width="1"/><path d="M356.03119,181.25572v-14.49725h130.73262l0.019,14.49725z" data-paper-data="{&quot;index&quot;:null}" fill="#001ee8" stroke="#001f66" stroke-width="1"/><path d="M356.03119,215.29275v-14.49725h130.68243l0.4206,14.49726z" data-paper-data="{&quot;index&quot;:null}" fill="#001ee8" stroke="#001f66" stroke-width="1"/><path d="M193.00627,211.68889l-3.76959,-7.05116l35.30577,-28.51031l3.76959,7.05116z" fill="#001ee8" stroke="#001f66" stroke-width="1"/><path d="M224.61666,182.52957l3.76959,-7.05116l35.30577,28.51031l-3.76959,7.05116z" data-paper-data="{&quot;index&quot;:null}" fill="#001ee8" stroke="#001f66" stroke-width="1"/><path d="M260.59787,211.68889l-3.76959,-7.05116l35.30577,-28.51031l3.76958,7.05116z" data-paper-data="{&quot;index&quot;:null}" fill="#001ee8" stroke="#001f66" stroke-width="1"/><path d="M186.59587,181.90166v-14.92699h111.22463v14.92699z" fill="#001ee8" stroke="#001f66" stroke-width="1"/><path d="M186.59587,216.94764v-14.92699h111.45162v14.92699z" fill="#001ee8" stroke="#001f66" stroke-width="1"/><path d="M441.68256,82.45457l-3.8204,-5.81451l35.78163,-23.51012l3.8204,5.81451z" data-paper-data="{&quot;index&quot;:null}" fill="#001ee8" stroke="#001f66" stroke-width="1"/><path d="M399.86462,61.08517l3.82039,-5.81451l35.78163,23.51012l-3.82039,5.81451z" data-paper-data="{&quot;index&quot;:null}" fill="#001ee8" stroke="#001f66" stroke-width="1"/><path d="M367.82817,84.0601l-3.82039,-5.81451l35.78163,-23.51012l3.82039,5.81451z" data-paper-data="{&quot;index&quot;:null}" fill="#001ee8" stroke="#001f66" stroke-width="1"/><path d="M331.362,61.08517l3.82039,-5.81451l35.78163,23.51012l-3.82039,5.81451z" data-paper-data="{&quot;index&quot;:null}" fill="#001ee8" stroke="#001f66" stroke-width="1"/><path d="M230.28775,85.13046l-3.8204,-5.81451l35.78163,-23.51012l3.8204,5.81451z" fill="#001ee8" stroke="#001f66" stroke-width="1"/><path d="M262.3242,61.08517l3.8204,-5.81451l35.78163,23.51012l-3.8204,5.81451z" data-paper-data="{&quot;index&quot;:null}" fill="#001ee8" stroke="#001f66" stroke-width="1"/><path d="M298.79037,85.13046l-3.8204,-5.81451l35.78163,-23.51012l3.82039,5.81451z" data-paper-data="{&quot;index&quot;:null}" fill="#001ee8" stroke="#001f66" stroke-width="1"/><path d="M223.79095,60.56738v-12.30906h262.2366v12.30906z" fill="#001ee8" stroke="#001f66" stroke-width="1"/><path d="M223.79095,89.46692v-12.30906h262.77177v12.30906z" fill="#001ee8" stroke="#001f66" stroke-width="1"/></g></g></svg>