<svg version="1.1" xmlns="http://www.w3.org/2000/svg" xmlns:xlink="http://www.w3.org/1999/xlink" width="143.7336" height="143.73361" viewBox="0,0,143.7336,143.73361"><defs><linearGradient x1="240" y1="110.13323" x2="240" y2="249.86683" gradientUnits="userSpaceOnUse" id="color-1"><stop offset="0" stop-color="#3c94ed"/><stop offset="1" stop-color="#337fcc"/></linearGradient><linearGradient x1="232.95006" y1="152.49462" x2="232.95006" y2="213.02535" gradientUnits="userSpaceOnUse" id="color-2"><stop offset="0" stop-color="#fff01b"/><stop offset="1" stop-color="#ffa30a"/></linearGradient><linearGradient x1="232.90697" y1="156.87589" x2="232.90697" y2="192.4811" gradientUnits="userSpaceOnUse" id="color-3"><stop offset="0" stop-color="#d69a18"/><stop offset="1" stop-color="#ce6e08"/></linearGradient><linearGradient x1="199.13718" y1="170.33943" x2="199.13718" y2="203.56641" gradientUnits="userSpaceOnUse" id="color-4"><stop offset="0" stop-color="#d69a18"/><stop offset="1" stop-color="#ce6e08"/></linearGradient><linearGradient x1="267.11539" y1="170.56332" x2="267.11539" y2="203.55242" gradientUnits="userSpaceOnUse" id="color-5"><stop offset="0" stop-color="#d69a18"/><stop offset="1" stop-color="#ce6e08"/></linearGradient><linearGradient x1="233.03835" y1="198.88909" x2="233.03835" y2="225.08184" gradientUnits="userSpaceOnUse" id="color-6"><stop offset="0" stop-color="#fff159"/><stop offset="1" stop-color="#ffd341"/></linearGradient><linearGradient x1="239.60614" y1="204.05429" x2="239.60614" y2="218.68251" gradientUnits="userSpaceOnUse" id="color-7"><stop offset="0" stop-color="#000000"/><stop offset="1" stop-color="#805506"/></linearGradient><linearGradient x1="226.14431" y1="204.09238" x2="226.14431" y2="218.7206" gradientUnits="userSpaceOnUse" id="color-8"><stop offset="0" stop-color="#000000"/><stop offset="1" stop-color="#805506"/></linearGradient><linearGradient x1="269.24126" y1="134.44543" x2="269.24126" y2="177.01133" gradientUnits="userSpaceOnUse" id="color-9"><stop offset="0" stop-color="#ffae82"/><stop offset="1" stop-color="#db8b67"/></linearGradient></defs><g transform="translate(-168.1332,-108.13322)"><g data-paper-data="{&quot;isPaintingLayer&quot;:true}" fill-rule="nonzero" stroke-linejoin="miter" stroke-miterlimit="10" stroke-dasharray="" stroke-dashoffset="0" style="mix-blend-mode: normal"><path d="M240,110.13323c19.2752,0 36.74421,7.8268 49.3899,20.47689c12.64989,12.64569 20.4769,30.11449 20.4769,49.38991c0,19.27542 -7.82701,36.74421 -20.4769,49.38991c-12.64569,12.65009 -30.1147,20.4769 -49.3899,20.4769c-19.27542,0 -36.74442,-7.8268 -49.39012,-20.4769c-12.64989,-12.64569 -20.47668,-30.11449 -20.47668,-49.38991c0,-19.27542 7.82679,-36.74421 20.47668,-49.38991c12.64569,-12.6501 30.11471,-20.47689 49.39012,-20.47689z" data-paper-data="{&quot;origPos&quot;:null}" fill="url(#color-1)" stroke="#23568d" stroke-width="4" stroke-linecap="butt"/><g stroke="none"><g><path d="M273.49895,193.95716c-0.64394,10.29586 -8.64932,18.47995 -41.92304,19.0682c-32.08692,-0.21456 -38.47683,-12.00691 -39.18041,-20.16657c-0.70358,-8.15967 3.59183,-40.53565 39.74063,-40.36348c38.20877,0.18198 42.0741,30.08962 41.36284,41.46186z" fill="url(#color-2)" stroke-width="0.93172" stroke-linecap="round"/><path d="M214.21806,174.67751c0,-9.83142 5.14717,-17.74323 18.68891,-17.80136c12.46601,-0.0535 18.68891,7.96995 18.68891,17.80136c0,9.83142 -3.86091,17.60842 -18.68891,17.80136c-12.03708,0.15661 -18.68891,-7.96994 -18.68891,-17.80136z" fill="url(#color-3)" stroke-width="0" stroke-linecap="butt"/><path d="M198.13564,170.33944c0,0 6.94699,6.31021 7.98771,14.75968c1.3068,10.6098 -8.62359,18.46729 -8.62359,18.46729c0,0 -7.01697,-3.11534 -5.15192,-16.53766c1.6311,-11.73857 5.7878,-16.68932 5.7878,-16.68932z" fill="url(#color-4)" stroke-width="0" stroke-linecap="butt"/><path d="M269.46411,203.55241c0,0 -9.70906,-6.24792 -9.07235,-17.52696c0.47292,-8.37718 7.88718,-15.46212 7.88718,-15.46212c0,0 5.35357,8.23603 5.57343,17.42856c0.33133,13.85395 -4.38826,15.56054 -4.38826,15.56054z" fill="url(#color-5)" stroke-width="0" stroke-linecap="butt"/></g><g stroke-linecap="butt"><path d="M257.36991,212.89293c-0.08989,5.63433 -1.03442,11.80816 -25.25843,12.17682c-24.22877,0.36873 -23.27096,-7.7849 -23.40212,-12.88912c-0.18196,-7.08167 4.68986,-13.28887 23.75102,-13.29155c21.85082,0.16563 25.01087,7.65129 24.90951,14.00384z" fill="url(#color-6)" stroke-width="1"/><g stroke-width="0"><path d="M239.60614,204.05429c2.18661,0 2.9056,2.18411 2.9056,7.31411c0,4.94824 -0.91295,7.31411 -2.9056,7.31411c-1.99264,0 -2.9056,-2.54763 -2.9056,-7.31411c0,-5.13 0.71899,-7.31411 2.9056,-7.31411z" fill="url(#color-7)"/><path d="M238.33344,207.44753c0,-1.67933 0.57277,-2.03886 1.27931,-2.03886c0.70654,0 1.31365,0.39103 1.27929,2.07003c-0.03118,1.52347 -0.23141,2.15588 -1.27929,2.15588c-1.11026,0 -1.27931,-0.75711 -1.27931,-2.18704z" fill="#ffffff"/></g><g stroke-width="0"><path d="M226.14431,204.09238c2.18661,0 2.90559,2.1841 2.90559,7.31411c0,4.94824 -0.91293,7.31411 -2.90559,7.31411c-1.99266,0 -2.9056,-2.54763 -2.9056,-7.31411c0,-5.13 0.71899,-7.31411 2.9056,-7.31411z" fill="url(#color-8)"/><path d="M224.99423,207.48562c0,-1.67933 0.57277,-2.03886 1.27929,-2.03886c0.70654,0 1.31364,0.39103 1.27928,2.07003c-0.03118,1.52347 -0.23139,2.15588 -1.27928,2.15588c-1.11026,0 -1.27929,-0.75712 -1.27929,-2.18704z" fill="#ffffff"/></g></g></g><path d="M263.5075,134.44543c10.49881,1.72094 16.08848,2.72432 16.76904,3.0106c3.94066,7.63134 6.09056,11.89482 6.45015,12.75506c0,0.17991 -1.89876,2.0419 -5.73282,5.58968c0.2495,0.42942 2.15013,3.29664 5.73282,8.59841v0.14314c-0.14314,0.61073 -2.43618,4.76599 -6.87933,12.46902h-17.19846c-0.46597,-0.32096 -3.69092,-3.6176 -9.74656,-9.88807c1.18329,-1.11161 4.47971,-3.83406 9.8897,-8.169c0.46597,0.46597 2.47109,3.61784 6.01887,9.45865h0.14314l4.72944,-4.15688c-0.39451,-0.6091 -2.22158,-2.759 -5.44491,-6.44829l5.01549,-6.87933l-3.58269,-5.3034c-4.37148,5.9125 -6.62983,8.88632 -6.7362,8.88632c-6.45015,-4.15712 -10.17599,-6.63006 -11.17936,-7.45376c6.69942,-7.27361 10.60517,-11.46541 11.75169,-12.61215z" data-paper-data="{&quot;origPos&quot;:null}" fill="url(#color-9)" stroke="#ab7356" stroke-width="2.5" stroke-linecap="butt"/></g></g></svg>