<svg version="1.1" xmlns="http://www.w3.org/2000/svg" xmlns:xlink="http://www.w3.org/1999/xlink" width="251.75" height="330" viewBox="0,0,251.75,330"><defs><linearGradient x1="133.125" y1="189.5" x2="153.125" y2="189.5" gradientUnits="userSpaceOnUse" id="color-1"><stop offset="0" stop-color="#ebd316"/><stop offset="1" stop-color="#fff13d"/></linearGradient><radialGradient cx="147.125" cy="34" r="23" gradientUnits="userSpaceOnUse" id="color-2"><stop offset="0" stop-color="#fff13d"/><stop offset="1" stop-color="#ebd316"/></radialGradient><linearGradient x1="114.125" y1="331" x2="173.125" y2="331" gradientUnits="userSpaceOnUse" id="color-3"><stop offset="0" stop-color="#aaadb3"/><stop offset="1" stop-color="#d1dcd6"/></linearGradient></defs><g transform="translate(-114.125,-15)"><g data-paper-data="{&quot;isPaintingLayer&quot;:true}" fill-rule="nonzero" stroke-linecap="butt" stroke-linejoin="miter" stroke-miterlimit="10" stroke-dasharray="" stroke-dashoffset="0" style="mix-blend-mode: normal"><path d="M142.375,192.5v-135h223.5l-34.5,33l34.5,34.5l-34.5,33l34.5,34.5z" data-paper-data="{&quot;origPos&quot;:null}" fill="#41c3ff" stroke="#000000" stroke-width="0"/><path d="M195.625,125c0,-30.09951 24.40049,-54.5 54.5,-54.5c30.09951,0 54.5,24.40049 54.5,54.5c0,30.09951 -24.40049,54.5 -54.5,54.5c-30.09951,0 -54.5,-24.40049 -54.5,-54.5z" data-paper-data="{&quot;origPos&quot;:null}" fill="#ffffff" stroke="none" stroke-width="0"/><path d="M258.65734,88.70153c13.00581,6.57724 19.69605,9.86586 20.05285,9.86586c0,0.57685 -2.70583,5.7982 -8.12938,15.66406h-0.3806c-0.43412,0 -6.66645,-2.9437 -18.69697,-8.8311l-6.12528,8.1829c10.37135,4.98348 22.96088,11.34664 37.78049,19.07757c-6.72592,11.96511 -11.49531,19.91013 -14.31413,23.85291l-30.62046,2.70583c-13.98705,-9.43174 -21.37306,-14.30818 -22.16995,-14.63525v-0.37465c0,-1.01097 2.83665,-5.65547 8.50997,-13.93352h0.70173c2.24197,1.33805 9.27118,5.18567 21.08761,11.54883l7.15409,-8.13532c-21.71798,-11.05524 -33.7485,-17.3054 -36.09752,-18.7505v-0.32708c6.89837,-13.43994 10.6568,-20.25506 11.27528,-20.43346c17.95955,-3.65138 27.95031,-5.47707 29.97224,-5.47707z" data-paper-data="{&quot;origPos&quot;:null}" id="path3117" fill="#ffe008" stroke="none" stroke-width="1"/><g data-paper-data="{&quot;origPos&quot;:null}" stroke="none"><path d="M133.125,324v-269h20v269z" data-paper-data="{&quot;origPos&quot;:null}" fill="url(#color-1)" stroke-width="NaN"/><path d="M144.125,61c-12.70255,0 -23,-10.29745 -23,-23c0,-12.70255 10.29745,-23 23,-23c12.70255,0 23,10.29745 23,23c0,12.70255 -10.29745,23 -23,23z" data-paper-data="{&quot;origPos&quot;:null,&quot;index&quot;:null}" fill="url(#color-2)" stroke-width="0"/><path d="M114.125,345v-28h59v28z" data-paper-data="{&quot;origPos&quot;:null}" fill="url(#color-3)" stroke-width="0"/></g></g></g></svg>