<svg version="1.1" xmlns="http://www.w3.org/2000/svg" xmlns:xlink="http://www.w3.org/1999/xlink" width="411.16301" height="119.58501" viewBox="0,0,411.16301,119.58501"><defs><linearGradient x1="83.50712" y1="297.36034" x2="83.50712" y2="364.56777" gradientUnits="userSpaceOnUse" id="color-1"><stop offset="0" stop-color="#c7a645"/><stop offset="1" stop-color="#ffd559"/></linearGradient><linearGradient x1="76.07366" y1="258.07905" x2="76.07366" y2="319.93874" gradientUnits="userSpaceOnUse" id="color-2"><stop offset="0" stop-color="#ead69e"/><stop offset="1" stop-color="#ccbb8a"/></linearGradient><linearGradient x1="80.42056" y1="254.4903" x2="80.42056" y2="295.39704" gradientUnits="userSpaceOnUse" id="color-3"><stop offset="0" stop-color="#ebcd5b"/><stop offset="1" stop-color="#ebcd5b" stop-opacity="0"/></linearGradient><linearGradient x1="232.65127" y1="300.85883" x2="232.65127" y2="368.06626" gradientUnits="userSpaceOnUse" id="color-4"><stop offset="0" stop-color="#c7a645"/><stop offset="1" stop-color="#ffd559"/></linearGradient><linearGradient x1="225.2178" y1="261.57754" x2="225.2178" y2="323.43723" gradientUnits="userSpaceOnUse" id="color-5"><stop offset="0" stop-color="#ead69e"/><stop offset="1" stop-color="#ccbb8a"/></linearGradient><linearGradient x1="229.5647" y1="257.98879" x2="229.5647" y2="298.89553" gradientUnits="userSpaceOnUse" id="color-6"><stop offset="0" stop-color="#ebcd5b"/><stop offset="1" stop-color="#ebcd5b" stop-opacity="0"/></linearGradient><linearGradient x1="392.96336" y1="296.84982" x2="392.96336" y2="364.05725" gradientUnits="userSpaceOnUse" id="color-7"><stop offset="0" stop-color="#c7a645"/><stop offset="1" stop-color="#ffd559"/></linearGradient><linearGradient x1="368.39414" y1="257.56853" x2="368.39414" y2="319.42822" gradientUnits="userSpaceOnUse" id="color-8"><stop offset="0" stop-color="#ead69e"/><stop offset="1" stop-color="#ccbb8a"/></linearGradient><linearGradient x1="382.76159" y1="253.97978" x2="382.76159" y2="294.88652" gradientUnits="userSpaceOnUse" id="color-9"><stop offset="0" stop-color="#ebcd5b"/><stop offset="1" stop-color="#ebcd5b" stop-opacity="0"/></linearGradient></defs><g transform="translate(-74.18174,-253.97979)"><g data-paper-data="{&quot;isPaintingLayer&quot;:true}" fill-rule="nonzero" stroke-linecap="butt" stroke-linejoin="miter" stroke-miterlimit="10" stroke-dasharray="" stroke-dashoffset="0" style="mix-blend-mode: normal"><path d="M76.05709,297.36034l34.50543,4.36411v67.20742l-34.50543,-4.36411z" fill="url(#color-1)" stroke="#8c7531" stroke-width="2"/><path d="M76.07366,258.07905l34.81123,3.57143v61.8597l-34.81123,-3.57143z" fill="url(#color-2)" stroke="#b7a47c" stroke-width="3.78384"/><path d="M110.30052,260.96848c0.30968,0.05282 0.6195,0.09274 0.92943,0.12152c-0.0103,1.62618 -0.00516,3.27627 -0.02972,4.87848c-0.00236,0.15419 -0.01125,-0.56866 -0.01647,-0.42536c-0.05481,1.50445 -0.05977,4.69209 -0.06532,5.92536c-0.01259,2.79695 0.02902,5.72598 0,8.5c-0.00163,0.15561 -0.01125,-0.56866 -0.01647,-0.42536c-0.03187,0.87466 -0.0368,1.86624 -0.06424,2.76308c-0.03013,1.10533 -0.08597,2.88957 -0.1312,4.49027c-0.09796,1.19634 -0.19265,2.43375 -0.28451,3.69998c-0.01478,-0.0944 -0.0883,0.83016 -0.12085,1.15152c-0.10168,1.00384 -0.18464,2.27534 -0.28824,3.24944c-0.02783,0.26167 -0.06138,0.41115 -0.09359,0.58843c0.02772,-0.18586 0.06177,-0.44954 0.04524,-0.5042c-0.08323,-0.27508 -0.16358,0.66667 -0.24537,1c-0.16358,0.66667 -0.32717,1.33333 -0.49075,2c-0.07707,0.3141 -0.15414,0.6282 -0.23122,0.94231c0.00523,-0.40097 -0.08404,0.04453 -0.12357,0.04453c-0.0409,0 -0.08179,0 -0.12269,0c-0.16358,0 -26.90943,-3.57143 -27.07301,-3.57143c-0.51801,0 -1.03603,0 -1.55404,0c-0.07725,0 -0.15451,0 -0.23177,0c0.01164,-0.48533 -0.08087,-0.40209 -0.12303,-0.48683c-0.04328,-0.087 -0.08674,-0.15943 -0.13031,-0.22228c-0.05617,-0.36159 -0.11234,-0.72263 -0.16854,-1.08228c-0.05564,-0.70726 -0.12586,-1.11387 -0.20589,-1.30904c-0.97557,-6.15441 -1.96253,-11.58259 -3.02557,-11.89958c-0.08208,-0.07749 -0.16386,-0.12441 -0.24537,-0.14274c0,-8.45242 0,-16.90484 0,-25.35726c0,-0.13363 0.0011,-0.26992 0.00243,-0.40673c2.50856,1.25936 31.60015,6.18697 34.10466,6.47816z" fill="url(#color-3)" stroke="#8c7531" stroke-width="0"/><path d="M225.20123,300.85883l34.50543,4.36411v67.20742l-34.50543,-4.36411z" fill="url(#color-4)" stroke="#8c7531" stroke-width="2"/><path d="M225.2178,261.57754l34.81123,3.57143v61.8597l-34.81123,-3.57143z" fill="url(#color-5)" stroke="#b7a47c" stroke-width="3.78384"/><path d="M259.44466,264.46697c0.30969,0.05282 0.6195,0.09274 0.92943,0.12152c-0.01031,1.62618 -0.00516,3.27627 -0.02972,4.87848c-0.00236,0.15419 -0.01125,-0.56866 -0.01647,-0.42536c-0.05481,1.50445 -0.05977,4.69209 -0.06532,5.92536c-0.01259,2.79695 0.02902,5.72598 0,8.5c-0.00163,0.15561 -0.01126,-0.56866 -0.01648,-0.42536c-0.03186,0.87466 -0.03681,1.86624 -0.06424,2.76308c-0.03014,1.10533 -0.08597,2.88957 -0.1312,4.49027c-0.09796,1.19634 -0.19265,2.43375 -0.28451,3.69998c-0.01479,-0.0944 -0.0883,0.83016 -0.12085,1.15152c-0.10168,1.00384 -0.18464,2.27534 -0.28823,3.24944c-0.02783,0.26167 -0.06138,0.41115 -0.09359,0.58843c0.02772,-0.18586 0.06177,-0.44954 0.04523,-0.5042c-0.08323,-0.27508 -0.16359,0.66667 -0.24538,1c-0.16358,0.66667 -0.32716,1.33333 -0.49075,2c-0.07708,0.3141 -0.15414,0.6282 -0.23122,0.94231c0.00523,-0.40097 -0.08403,0.04453 -0.12357,0.04453c-0.04089,0 -0.08179,0 -0.12269,0c-0.16359,0 -26.90943,-3.57143 -27.07301,-3.57143c-0.51801,0 -1.03602,0 -1.55404,0c-0.07726,0 -0.15451,0 -0.23176,0c0.01163,-0.48533 -0.08087,-0.40209 -0.12303,-0.48683c-0.04328,-0.087 -0.08674,-0.15943 -0.1303,-0.22228c-0.05617,-0.36159 -0.11235,-0.72263 -0.16854,-1.08228c-0.05564,-0.70726 -0.12586,-1.11387 -0.20589,-1.30904c-0.97557,-6.15441 -1.96253,-11.58259 -3.02557,-11.89958c-0.08208,-0.07749 -0.16387,-0.12441 -0.24537,-0.14274c0,-8.45242 0,-16.90484 0,-25.35726c0,-0.13363 0.0011,-0.26992 0.00242,-0.40673c2.50857,1.25936 31.60015,6.18697 34.10466,6.47816z" fill="url(#color-6)" stroke="#8c7531" stroke-width="0"/><path d="M368.33937,296.84982l114.04792,4.36411v67.20742l-114.04792,-4.36411z" fill="url(#color-7)" stroke="#8c7531" stroke-width="2"/><path d="M368.39414,257.56853l115.05869,3.57143v61.8597l-115.05869,-3.57143z" fill="url(#color-8)" stroke="#b7a47c" stroke-width="3.78384"/><path d="M481.52135,260.45796c1.02358,0.05282 2.04758,0.09274 3.07197,0.12152c-0.03406,1.62618 -0.01705,3.27627 -0.09825,4.87848c-0.00782,0.15419 -0.03718,-0.56866 -0.05444,-0.42536c-0.18118,1.50445 -0.19755,4.69209 -0.2159,5.92536c-0.04161,2.79695 0.09593,5.72598 0,8.5c-0.00539,0.15561 -0.0372,-0.56866 -0.05445,-0.42536c-0.10532,0.87466 -0.12165,1.86624 -0.21233,2.76308c-0.0996,1.10533 -0.28415,2.88957 -0.43364,4.49027c-0.32378,1.19634 -0.63677,2.43375 -0.94038,3.69998c-0.04887,-0.0944 -0.29185,0.83016 -0.39944,1.15152c-0.33607,1.00384 -0.61028,2.27534 -0.95268,3.24944c-0.09198,0.26167 -0.20287,0.41115 -0.30934,0.58843c0.09162,-0.18586 0.20416,-0.44954 0.14951,-0.5042c-0.27509,-0.27508 -0.54068,0.66667 -0.81102,1c-0.54068,0.66667 -1.08135,1.33333 -1.62204,2c-0.25475,0.3141 -0.50948,0.6282 -0.76423,0.94231c0.0173,-0.40097 -0.27775,0.04453 -0.40843,0.04453c-0.13517,0 -0.27033,0 -0.4055,0c-0.54068,0 -88.94151,-3.57143 -89.48219,-3.57143c-1.71215,0 -3.42429,0 -5.13644,0c-0.25534,0 -0.51069,0 -0.76603,0c0.03846,-0.48533 -0.26728,-0.40209 -0.40662,-0.48683c-0.14305,-0.087 -0.28669,-0.15943 -0.43069,-0.22228c-0.18564,-0.36159 -0.37132,-0.72263 -0.55708,-1.08228c-0.1839,-0.70726 -0.41598,-1.11387 -0.68049,-1.30904c-3.22447,-6.15441 -6.48659,-11.58259 -10.00017,-11.89958c-0.27128,-0.07749 -0.54161,-0.12441 -0.81102,-0.14274c0,-8.45242 0,-16.90484 0,-25.35726c0,-0.13363 0.00364,-0.26992 0.00802,-0.40673c8.29135,1.25936 104.44538,6.18697 112.72331,6.47816z" fill="url(#color-9)" stroke="#8c7531" stroke-width="0"/></g></g></svg>