<svg version="1.1" xmlns="http://www.w3.org/2000/svg" xmlns:xlink="http://www.w3.org/1999/xlink" width="433.49958" height="49.93556" viewBox="0,0,433.49958,49.93556"><defs><linearGradient x1="39.2948" y1="158.58765" x2="39.2948" y2="191.40045" gradientUnits="userSpaceOnUse" id="color-1"><stop offset="0" stop-color="#59f235"/><stop offset="1" stop-color="#3ba822"/></linearGradient><linearGradient x1="70.32882" y1="166.22918" x2="70.32882" y2="191.39885" gradientUnits="userSpaceOnUse" id="color-2"><stop offset="0" stop-color="#59f235"/><stop offset="1" stop-color="#3ba822"/></linearGradient><linearGradient x1="101.14763" y1="166.20126" x2="101.14763" y2="191.39728" gradientUnits="userSpaceOnUse" id="color-3"><stop offset="0" stop-color="#59f235"/><stop offset="1" stop-color="#3ba822"/></linearGradient><linearGradient x1="134.8322" y1="166.27478" x2="134.8322" y2="203.92847" gradientUnits="userSpaceOnUse" id="color-4"><stop offset="0" stop-color="#59f235"/><stop offset="1" stop-color="#3ba822"/></linearGradient><linearGradient x1="165.3596" y1="166.19704" x2="165.3596" y2="191.39277" gradientUnits="userSpaceOnUse" id="color-5"><stop offset="0" stop-color="#59f235"/><stop offset="1" stop-color="#3ba822"/></linearGradient><linearGradient x1="191.83086" y1="166.19622" x2="191.83086" y2="191.39101" gradientUnits="userSpaceOnUse" id="color-6"><stop offset="0" stop-color="#59f235"/><stop offset="1" stop-color="#3ba822"/></linearGradient><linearGradient x1="218.89155" y1="158.57606" x2="218.89155" y2="191.38839" gradientUnits="userSpaceOnUse" id="color-7"><stop offset="0" stop-color="#59f235"/><stop offset="1" stop-color="#3ba822"/></linearGradient><linearGradient x1="249.16892" y1="166.19192" x2="249.16892" y2="191.38712" gradientUnits="userSpaceOnUse" id="color-8"><stop offset="0" stop-color="#59f235"/><stop offset="1" stop-color="#3ba822"/></linearGradient><linearGradient x1="273.69543" y1="158.59765" x2="273.69543" y2="191.38513" gradientUnits="userSpaceOnUse" id="color-9"><stop offset="0" stop-color="#59f235"/><stop offset="1" stop-color="#3ba822"/></linearGradient><linearGradient x1="295.53826" y1="166.18925" x2="295.53826" y2="191.38402" gradientUnits="userSpaceOnUse" id="color-10"><stop offset="0" stop-color="#59f235"/><stop offset="1" stop-color="#3ba822"/></linearGradient><linearGradient x1="322.59893" y1="158.56906" x2="322.59893" y2="191.3814" gradientUnits="userSpaceOnUse" id="color-11"><stop offset="0" stop-color="#59f235"/><stop offset="1" stop-color="#3ba822"/></linearGradient><linearGradient x1="344.25018" y1="156.07153" x2="344.25018" y2="191.38061" gradientUnits="userSpaceOnUse" id="color-12"><stop offset="0" stop-color="#59f235"/><stop offset="1" stop-color="#3ba822"/></linearGradient><linearGradient x1="364.80553" y1="166.2094" x2="364.80553" y2="191.37902" gradientUnits="userSpaceOnUse" id="color-13"><stop offset="0" stop-color="#59f235"/><stop offset="1" stop-color="#3ba822"/></linearGradient><linearGradient x1="395.62433" y1="166.18153" x2="395.62433" y2="191.37745" gradientUnits="userSpaceOnUse" id="color-14"><stop offset="0" stop-color="#59f235"/><stop offset="1" stop-color="#3ba822"/></linearGradient><linearGradient x1="427.80642" y1="166.17937" x2="427.80642" y2="191.37488" gradientUnits="userSpaceOnUse" id="color-15"><stop offset="0" stop-color="#59f235"/><stop offset="1" stop-color="#3ba822"/></linearGradient><linearGradient x1="450.0877" y1="159.49313" x2="450.0877" y2="191.3733" gradientUnits="userSpaceOnUse" id="color-16"><stop offset="0" stop-color="#59f235"/><stop offset="1" stop-color="#3ba822"/></linearGradient></defs><g transform="translate(-23.2143,-155.07153)"><g data-paper-data="{&quot;isPaintingLayer&quot;:true}" fill-rule="nonzero" stroke="#277318" stroke-width="2" stroke-linecap="butt" stroke-linejoin="miter" stroke-miterlimit="10" stroke-dasharray="" stroke-dashoffset="0" style="mix-blend-mode: normal"><path d="M41.48852,158.58765c7.51542,2.9255 11.27428,4.48087 11.27426,4.66625c-2.40411,4.90962 -3.60728,7.46503 -3.60728,7.66634c-0.05027,0.00007 -0.10061,0.00001 -0.15097,0.00006c-1.07523,-0.30193 -3.43858,-1.35182 -7.08758,-3.15205c-1.99942,1.40484 -4.00102,2.80964 -6.00276,4.21213c0.00035,5.21378 0.29567,7.81946 0.88359,7.81946c0.38662,0.20122 2.90095,1.20996 7.5429,3.02609c1.78203,-1.76618 3.58922,-3.47302 5.42155,-5.12024c0.33637,0.3019 1.84185,2.70622 4.51421,7.21285c-0.00006,0.15105 -0.00001,0.30202 0.00005,0.45299c-0.16709,0.00003 -3.88446,2.01123 -11.1477,6.02892c-9.28157,-3.11067 -14.04701,-4.76666 -14.29867,-4.96792c-0.45306,-1.48935 -4.06391,-13.41499 -4.51697,-14.90434c4.23641,-6.0193 6.39812,-9.03004 6.48051,-9.03009c0.18529,0 3.74949,-1.30197 10.69488,-3.91044z" data-paper-data="{&quot;origPos&quot;:null}" fill="url(#color-1)"/><path d="M67.36557,166.22924c6.38976,1.71307 9.77565,2.75608 10.16456,3.12661c3.51429,4.97555 5.4888,7.84197 5.92583,8.59922c-2.26898,7.19728 -3.57272,10.79598 -3.90897,10.79604c-7.56547,1.76429 -11.52545,2.64768 -11.87774,2.64774c-6.25492,-3.64854 -9.58371,-5.68208 -9.98867,-6.10299c-0.21776,-6.79235 -0.32787,-10.54192 -0.32791,-11.24877c-0.10071,-0.20132 -0.151,-0.35233 -0.15099,-0.45302c6.45566,-4.90987 9.79322,-7.36484 10.01286,-7.36489zM66.88579,175.46023c-0.10062,0.67261 -0.25144,3.11819 -0.45253,7.33911l5.62336,1.26015c1.34494,-4.20269 2.01736,-6.4493 2.01726,-6.73522c-4.47254,-1.34263 -6.86781,-2.01504 -7.18815,-2.01501c0.00004,0.05036 0.00001,0.10061 0.00006,0.15097z" data-paper-data="{&quot;origPos&quot;:null}" fill="url(#color-2)"/><path d="M108.14661,166.20126l8.39872,5.77371c-0.58738,9.58566 -0.99875,15.18374 -1.23432,16.79887c-0.97453,0.11673 -3.94398,0.29309 -8.90376,0.5291l-0.17617,-0.35235c-0.29319,-4.4908 -0.58855,-8.97926 -0.88399,-13.46773l-0.35229,-0.17618c-3.21198,0.68882 -5.42192,1.21055 -6.63206,1.56297c0.33672,5.73301 0.50392,9.87835 0.50412,12.43375c-5.01005,1.39589 -7.75068,2.0938 -8.22197,2.09387c-3.26331,-14.35759 -4.89492,-21.94128 -4.89496,-22.74883c7.09644,-0.92477 10.94668,-1.38714 11.55291,-1.38719c0.00002,0.05951 0.00001,0.11663 0.00003,0.17614c0.11671,0.08469 0.29293,1.83249 0.52878,5.24574c6.50603,-4.322 9.94435,-6.48179 10.31495,-6.48189z" data-paper-data="{&quot;origPos&quot;:null}" fill="url(#color-3)"/><path d="M137.9581,166.27478c7.14452,0.18488 10.718,0.49575 10.71804,0.93271c1.22974,18.61292 1.84351,28.51637 1.84359,29.70834c-5.41476,3.448 -9.29006,5.78627 -11.62571,7.01264c-8.24062,-2.58917 -12.35866,-4.06674 -12.35866,-4.43733c2.65582,-3.88478 4.19297,-5.85228 4.61396,-5.90267c4.49098,2.21881 7.07159,3.32819 7.7442,3.32811l2.395,-3.15267c-0.63846,-2.60561 -1.06865,-4.14296 -1.28597,-4.61425c-0.37069,0.00007 -4.92774,0.73925 -13.66903,2.22003c-4.79333,-7.78478 -7.18891,-11.77676 -7.18885,-11.98035c4.13572,-6.6073 6.65655,-10.48281 7.56472,-11.62674c0.05942,-0.00004 0.11663,-0.00001 0.17614,-0.00003c0.48733,-0.00008 4.12029,0.79816 10.89661,2.39679c0,-0.18529 0,-0.37058 0,-0.55588c-0.00008,-0.65659 -0.05959,-1.70672 -0.17869,-3.15251zM130.03871,176.96816c0.2356,0.52158 0.97472,3.29656 2.21964,8.32269c1.56476,-0.50346 3.95995,-1.43012 7.18781,-2.77325c-0.62245,-3.02664 -0.93368,-4.75153 -0.93378,-5.17019l-0.90822,-0.17838c-0.36829,-0.00004 -0.73889,0.00006 -1.10956,0.00004c-1.4115,0.00014 -3.56421,-0.06611 -6.4559,-0.20089z" data-paper-data="{&quot;origPos&quot;:null}" fill="url(#color-4)"/><path d="M171.34975,166.19704c3.32883,1.86658 5.37186,3.07661 6.1291,3.63021c-2.72426,5.66688 -4.18597,8.55183 -4.38729,8.65253c-0.05951,0.00002 -0.11891,-0.00004 -0.17842,-0.00003c-1.20117,-1.0523 -2.40451,-2.10224 -3.60563,-3.15223c-1.42058,1.73192 -2.84115,3.46385 -4.26173,5.19577c0.16031,3.15244 0.32071,6.3049 0.4788,9.4574c-0.21733,0.20131 -3.00152,0.67282 -8.3479,1.41208c-0.20139,-1.44582 -1.51271,-8.53309 -3.93634,-21.2596c0.00005,-0.20359 3.51623,-0.72309 10.54406,-1.56547c0.11668,0.13494 0.43706,1.70661 0.9589,4.71723c4.20226,-4.72675 6.40515,-7.08787 6.60646,-7.08787z" data-paper-data="{&quot;origPos&quot;:null}" fill="url(#color-5)"/><path d="M183.30315,166.19623c9.98839,1.37654 14.98251,2.22724 14.98259,2.54529c3.93509,3.37872 5.90261,5.18813 5.9027,5.42151c-1.59885,4.99421 -2.50453,8.03006 -2.72408,9.10534c1.59703,3.54819 2.50543,5.6666 2.72506,6.35517c0.00004,0.20361 -2.60794,0.74138 -7.81934,1.61563c-0.06637,-0.28595 -0.54686,-0.92417 -1.43684,-1.91702c-7.19704,1.37995 -11.07249,2.06887 -11.62836,2.06887c-0.6041,-1.63571 -3.2286,-8.72977 -3.83261,-10.36546c2.81605,-1.48716 5.63218,-2.9767 8.44823,-4.46387c1.36125,0.21717 3.48881,0.32687 6.38056,0.32664c-0.00009,-0.3706 0.05019,-1.48699 0.15077,-3.35374c-0.4873,-0.00001 -4.84089,0.31826 -13.06296,0.95935l-0.15327,-0.32939c1.14348,-5.31219 1.83419,-7.96832 2.06755,-7.96832zM188.55224,181.02494c0,0.18529 0.53778,2.15273 1.61325,5.90228c0.05036,-0.00004 0.10061,-0.00001 0.15097,-0.00006c2.11839,-1.37961 3.17749,-2.28796 3.17754,-2.7249c0.1097,-0.89908 0.2195,-1.79814 0.3292,-2.69723c-0.40492,0.00004 -2.16193,-0.16003 -5.27095,-0.4801z" data-paper-data="{&quot;origPos&quot;:null}" fill="url(#color-6)"/><path d="M214.14814,158.57607l11.0979,1.96669c-0.35207,2.80931 -0.70647,5.61637 -1.05859,8.42347c2.20302,-0.1168 3.8159,-0.17643 4.84309,-0.17652c0.53767,-0.00003 1.07524,-0.00008 1.61288,-0.00003l0.35226,-0.17619l0.1785,0.35222c-0.35431,5.11315 -0.65603,7.9866 -0.90769,8.6271c-0.11892,-0.06861 -0.23562,-0.13489 -0.35458,-0.20122c-0.25165,-0.00005 -2.52109,-0.11885 -6.80834,-0.35422c-0.23533,3.95102 -0.41118,8.6774 -0.52978,14.17484c-0.11662,0.05952 -0.23564,0.11667 -0.35226,0.17619c-5.41514,-0.35193 -8.64308,-0.65601 -9.68404,-0.90755c0.05718,-0.23562 0.11664,-0.4713 0.17606,-0.70468c-0.00004,-1.46412 0.23527,-6.00296 0.70374,-13.62112c-4.53893,-0.25135 -6.80831,-0.55324 -6.80836,-0.90552c0.23527,-5.61635 0.53702,-8.42581 0.90769,-8.42579c2.20992,0.42083 4.42223,0.84164 6.63217,1.26238c-0.00003,-0.72295 -0.00008,-1.44582 -0.00012,-2.16878c-0.00011,-1.76615 -0.06665,-4.15452 -0.20186,-7.16285c0.13504,-0.00003 0.20138,-0.05949 0.20134,-0.17842z" data-paper-data="{&quot;origPos&quot;:null}" fill="url(#color-7)"/><path d="M247.4649,166.19192c0.05947,0.10984 0.11893,0.21728 0.1762,0.32718c-1.13437,6.01904 -2.26867,12.03818 -3.40295,18.05724c0.05951,-0.00002 0.11893,-0.00005 0.17614,-0.00003c2.89162,-0.84891 5.78555,-1.69785 8.6772,-2.54685c-0.00022,-3.40413 -0.00049,-6.81057 -0.00072,-10.21471c0.03209,-0.23563 0.14184,-0.35225 0.32715,-0.35234c6.5246,0.45258 10.15526,0.68106 10.89651,0.68109c0.00001,0.11663 0.05724,0.17616 0.17616,0.17612c0.00022,2.87335 -0.90766,8.83528 -2.72351,17.88108c0.00003,0.52164 -2.60569,0.91528 -7.81708,1.18558c-0.26993,-0.32023 -0.49653,-0.99974 -0.6819,-2.04294c-6.67546,1.36169 -10.48455,2.04371 -11.42475,2.04375c-5.33065,-3.96661 -7.99604,-6.00934 -7.9961,-6.12827c0.90745,-11.92148 1.47902,-18.10748 1.71459,-18.5628c0.05036,-0.00004 0.1007,0.00001 0.15097,-0.00006c4.25289,-0.11696 8.17179,-0.28647 11.75207,-0.50405z" data-paper-data="{&quot;origPos&quot;:null}" fill="url(#color-8)"/><path d="M267.03595,158.59765c5.14506,0.10261 8.91984,0.15265 11.32427,0.1525c0.21963,-0.00004 0.88372,10.3222 1.99471,30.96893c-0.85794,0.2196 -3.85021,0.77575 -8.97931,1.66604c-0.25157,-0.00003 -1.08474,-6.32099 -2.49718,-18.96518c-0.11896,-0.30426 -0.73236,-4.90936 -1.84249,-13.82229z" data-paper-data="{&quot;origPos&quot;:null}" fill="url(#color-9)"/><path d="M287.01065,166.18925c9.98828,1.3766 14.98251,2.22724 14.9825,2.54527c3.93509,3.37872 5.9027,5.18815 5.9027,5.42151c-1.59885,4.99421 -2.50683,8.0301 -2.72408,9.10534c1.59703,3.54819 2.50543,5.6666 2.72506,6.35517c0.00004,0.20361 -2.60794,0.74138 -7.81934,1.61563c-0.06637,-0.28595 -0.54678,-0.92415 -1.43675,-1.91699c-7.19715,1.38002 -11.07249,2.06887 -11.62846,2.06885c-1.27673,-3.45439 -2.55589,-6.91106 -3.83261,-10.36546c2.81605,-1.48716 5.63218,-2.9767 8.44823,-4.46387c1.36124,0.21726 3.48881,0.32687 6.38054,0.32673c0.00002,-0.37067 0.05021,-1.48707 0.15078,-3.35382c-0.4873,-0.00001 -4.84309,0.31832 -13.06286,0.95937c-0.05035,-0.10972 -0.10304,-0.2196 -0.15337,-0.32941c1.14357,-5.31217 1.83429,-7.9683 2.06765,-7.9683zM292.25735,181.01798c0,0.18529 0.54007,2.15269 1.61555,5.90224c0.05036,-0.00004 0.1007,0.00001 0.15097,-0.00006c2.11839,-1.37961 3.17758,-2.28793 3.17752,-2.72481c0.10973,-0.89917 0.21952,-1.79824 0.32922,-2.69732c-0.40492,0.00004 -2.16184,-0.16001 -5.27326,-0.48007z" data-paper-data="{&quot;origPos&quot;:null}" fill="url(#color-10)"/><path d="M317.85553,158.56907c3.69938,0.65631 7.39867,1.31261 11.0979,1.96669c-0.35436,2.80935 -0.70648,5.61645 -1.05859,8.42347c2.20302,-0.1168 3.8159,-0.17643 4.84078,-0.17648c0.53994,0.00002 1.07752,-0.00003 1.61518,-0.00007c0.11666,-0.05722 0.23564,-0.11667 0.35226,-0.17619c0.05956,0.11891 0.11897,0.23561 0.17847,0.35231c-0.35419,5.11308 -0.65601,7.9865 -0.90758,8.62703c-0.11901,-0.06863 -0.2357,-0.13491 -0.35468,-0.20124c-0.25165,-0.00005 -2.52109,-0.11885 -6.80828,-0.35411c-0.2354,3.95091 -0.41125,8.67729 -0.52985,14.17473c-0.11662,0.05952 -0.23555,0.11669 -0.35226,0.17619c-5.41505,-0.35191 -8.6431,-0.65593 -9.68404,-0.90755c0.05718,-0.23562 0.11664,-0.4713 0.17614,-0.70466c-0.00012,-1.46414 0.23518,-6.00297 0.70366,-13.62114c-4.53884,-0.25132 -6.80831,-0.55324 -6.80836,-0.90552c0.23527,-5.61635 0.53709,-8.4257 0.90769,-8.42579c2.20992,0.42083 4.42223,0.84164 6.63217,1.26238c-0.00006,-0.72286 -0.00008,-1.44582 -0.00012,-2.16878c-0.00014,-1.76607 -0.06657,-4.1545 -0.20177,-7.16283c0.13495,-0.00005 0.2013,-0.05951 0.20124,-0.17844z" data-paper-data="{&quot;origPos&quot;:null}" fill="url(#color-11)"/><path d="M341.03243,156.07153c3.30577,0.52137 6.60933,1.0428 9.91279,1.56421c-1.24416,4.75621 -2.0584,7.13554 -2.44509,7.13552c-5.21374,-0.35191 -7.81951,-0.69716 -7.81954,-1.03352c-0.00018,-2.43638 -0.00029,-4.87513 -0.0005,-7.31381c0.05032,-0.23569 0.16933,-0.35235 0.35235,-0.3524zM338.2605,168.07778c0.05036,-0.00004 0.10061,-0.00001 0.15097,-0.00006c7.6663,1.39504 11.5006,2.20922 11.50063,2.44487c-2.20225,12.47511 -3.53785,19.42767 -4.00905,20.85746c-2.66517,0.0002 -5.33041,0.00036 -7.99557,0.00056c-0.23336,0 -0.35236,-0.11669 -0.35234,-0.35223c0.23511,-7.6502 0.47024,-15.3004 0.70535,-22.9506z" data-paper-data="{&quot;origPos&quot;:null}" fill="url(#color-12)"/><path d="M361.84225,166.2094c6.38746,1.71311 9.77565,2.75608 10.16235,3.12668c3.51429,4.97555 5.49109,7.84193 5.92804,8.59917c-2.2689,7.19731 -3.57262,10.796 -3.90897,10.79604c-7.56541,1.7644 -11.52536,2.6477 -11.87774,2.64774c-6.25483,-3.64852 -9.58371,-5.68208 -9.98858,-6.10296c-0.21787,-6.79227 -0.32789,-10.54184 -0.32791,-11.24877c-0.10071,-0.20132 -0.151,-0.35233 -0.15102,-0.45293c6.4556,-4.90998 9.79325,-7.36493 10.01058,-7.36493c0.05034,0.00005 0.1007,0.00001 0.15325,0zM361.36247,175.44039c-0.10062,0.67261 -0.25144,3.11819 -0.45244,7.33913c1.87367,0.42079 3.7496,0.83934 5.62327,1.26013c1.34491,-4.20261 2.01734,-6.44921 2.01735,-6.7352c-4.47254,-1.34263 -6.86791,-2.01506 -7.18815,-2.01501c-0.00005,0.05034 -0.00001,0.1007 -0.00004,0.15095z" data-paper-data="{&quot;origPos&quot;:null}" fill="url(#color-13)"/><path d="M402.62337,166.18153c2.80031,1.92375 5.59835,3.84985 8.39865,5.7736c-0.58728,9.58568 -0.99865,15.18376 -1.23422,16.79889c-0.97682,0.11677 -3.94409,0.29316 -8.90386,0.52909c-0.05941,-0.11668 -0.11667,-0.23564 -0.17619,-0.35226c-0.29537,-4.49084 -0.58852,-8.97935 -0.88397,-13.46782c-0.11665,-0.0595 -0.23559,-0.11896 -0.35229,-0.17618c-3.21189,0.68883 -5.42183,1.21057 -6.63435,1.56301c0.33672,5.73301 0.50631,9.87833 0.50649,12.43382c-5.01003,1.39579 -7.75076,2.09377 -8.22195,2.09379c-3.26331,-14.35759 -4.895,-21.9413 -4.89505,-22.74885c7.09654,-0.92475 10.94676,-1.38713 11.5507,-1.38713c0.00004,0.05942 0.00001,0.11663 0.00003,0.17614c0.11892,0.08463 0.29523,1.83246 0.53108,5.2457c6.50603,-4.322 9.94435,-6.48179 10.31493,-6.48179z" data-paper-data="{&quot;origPos&quot;:null}" fill="url(#color-14)"/><path d="M433.97214,166.17938c4.84335,3.09269 7.51559,4.87467 8.0212,5.34592c-1.74983,3.88462 -2.74948,5.82696 -3.00116,5.827c-3.06112,-1.77507 -6.11989,-3.54787 -9.18101,-5.32294c-0.10976,-0.00002 -0.21963,0.00004 -0.32712,0.00007c0,0.16927 -0.39572,1.10953 -1.1849,2.82542c8.45579,4.55658 12.68597,6.89204 12.6859,7.01104c-2.36967,5.4815 -3.70778,8.3733 -4.00979,8.67531c-4.78361,0.27939 -9.56719,0.55659 -14.35084,0.83368c-5.58228,-3.69887 -8.58396,-5.64781 -9.00493,-5.85138c0.00005,-0.05034 0.00001,-0.1007 0.00004,-0.15095c-0.00009,-0.41866 0.83254,-2.31071 2.49784,-5.67376c3.73139,1.94199 7.46506,3.88403 11.19879,5.8238c0.27672,-1.1096 0.55353,-2.21917 0.83025,-3.32877c-6.92747,-3.10849 -11.04555,-5.05051 -12.35643,-5.82368c-0.00003,-0.11902 -0.00004,-0.23565 0,-0.35456c-0.00005,-0.63827 1.33579,-3.47062 4.00745,-8.49924c4.72646,-0.44647 9.45064,-0.89053 14.17472,-1.33698z" data-paper-data="{&quot;origPos&quot;:null}" fill="url(#color-15)"/><path d="M455.58623,159.49313c0.03431,0.06871 0.06633,0.13498 0.10065,0.2036c-1.68051,14.84525 -2.62251,22.64646 -2.82375,23.40376c-3.56438,-0.33613 -5.81781,-0.57156 -6.75806,-0.70646c0,-0.03204 0.00005,-0.06636 0.00001,-0.1007c-0.53807,-7.02785 -1.0785,-14.05579 -1.61656,-21.08364c0.40496,-0.13497 4.10187,-0.70713 11.09772,-1.71656zM445.59954,183.60653c0.11897,0.06634 2.74073,0.26749 7.86989,0.60338c0.03431,0.06871 0.06633,0.13498 0.10071,0.20132c-0.78896,4.64187 -1.29442,6.96165 -1.51405,6.96169c-1.94917,0.00017 -3.90061,0.00028 -5.84967,0.00038c-0.20142,0.00007 -0.47147,-2.31967 -0.80809,-6.96151c-0.06638,0.00004 -0.10071,-0.20132 -0.10071,-0.60395c0.20132,-0.06866 0.30196,-0.13494 0.30192,-0.20132z" data-paper-data="{&quot;origPos&quot;:null}" fill="url(#color-16)"/></g></g></svg>